<?xml version="1.0" encoding="iso-8859-1"?>
<!-- Generator: Adobe Illustrator 16.0.0, SVG Export Plug-In . SVG Version: 6.00 Build 0)  -->
<!DOCTYPE svg PUBLIC "-//W3C//DTD SVG 1.1 Tiny//EN" "http://www.w3.org/Graphics/SVG/1.1/DTD/svg11-tiny.dtd">
<svg version="1.1" baseProfile="tiny" id="audio_x5F_volume_x5F_mute_1_"
	 xmlns="http://www.w3.org/2000/svg" xmlns:xlink="http://www.w3.org/1999/xlink" x="0px" y="0px" width="361px" height="361px"
	 viewBox="0 0 361 361" xml:space="preserve">
<path fill="none" stroke="#FFFFFF" stroke-width="10" stroke-miterlimit="10" d="M72.968,218.451c0,2.246,1.82,4.065,4.065,4.065
	h34.323c2.245,0,4.065-1.819,4.065-4.065v-70.002c0-2.244-1.82-4.064-4.065-4.064H77.033c-2.245,0-4.065,1.82-4.065,4.064V218.451z"
	/>
<path fill="none" stroke="#FFFFFF" stroke-width="10" stroke-miterlimit="10" d="M175.441,251.279l-5.853-3.286L132.378,227.1
	c-2.604-1.375-4.145-1.856-4.145-4.146v-79.252c0-2.289,0.426-2.168,4.145-4.145l43.063-24.179c2.29,0,4.145,1.855,4.145,4.145
	V194.5"/>
<g>
	<g>
		<path fill="#FFFFFF" d="M273.516,230.402c-0.264,21.841-14.329,41.071-35.274,47.551c-20.998,6.497-44.063-2.393-55.994-20.611
			c-12.03-18.37-9.941-43.152,4.399-59.601c14.372-16.485,38.711-21.484,58.468-12.159
			C262.451,193.765,273.286,211.373,273.516,230.402c0.117,9.679,15.12,9.775,15.003,0.108
			c-0.285-23.601-12.93-45.153-33.556-56.708c-20.664-11.576-46.938-10.132-66.615,2.754c-19.622,12.85-30.716,36.129-28.74,59.425
			c1.966,23.186,16.774,44.003,38.044,53.442c20.026,8.888,43.534,6.933,61.857-5.067c18.09-11.847,28.75-32.366,29.01-53.846
			C288.636,220.819,273.633,220.745,273.516,230.402z"/>
	</g>
	<g>
		<path fill="#FFFFFF" d="M188.893,276.1c26.912-26.912,53.825-53.824,80.737-80.736c6.835-6.836-3.813-17.404-10.665-10.552
			c-26.912,26.912-53.825,53.824-80.737,80.736C171.392,272.384,182.041,282.952,188.893,276.1L188.893,276.1z"/>
	</g>
</g>
</svg>
