<?xml version="1.0" encoding="iso-8859-1"?>
<!-- Generator: Adobe Illustrator 16.0.0, SVG Export Plug-In . SVG Version: 6.00 Build 0)  -->
<!DOCTYPE svg PUBLIC "-//W3C//DTD SVG 1.1 Tiny//EN" "http://www.w3.org/Graphics/SVG/1.1/DTD/svg11-tiny.dtd">
<svg version="1.1" baseProfile="tiny" id="audio_x5F_audio"
	 xmlns="http://www.w3.org/2000/svg" xmlns:xlink="http://www.w3.org/1999/xlink" x="0px" y="0px" width="361px" height="361px"
	 viewBox="0 0 361 361" xml:space="preserve">
<path fill="none" stroke="#FFFFFF" stroke-width="10" stroke-miterlimit="10" d="M94.981,238.208c0,3.508,2.844,6.351,6.351,6.351
	h53.631c3.507,0,6.351-2.843,6.351-6.351V128.829c0-3.507-2.844-6.351-6.351-6.351h-53.631c-3.507,0-6.351,2.844-6.351,6.351
	V238.208z"/>
<path fill="none" stroke="#FFFFFF" stroke-width="10" stroke-miterlimit="10" d="M261.573,283.024c0,3.577-2.9,6.477-6.477,6.477
	l-67.286-37.78c-4.069-2.149-6.477-2.9-6.477-6.477V121.413c0-3.577,0.666-3.389,6.477-6.477l67.286-37.78
	c3.577,0,6.477,2.899,6.477,6.477V283.024z"/>
</svg>
