<?xml version="1.0" encoding="iso-8859-1"?>
<!-- Generator: Adobe Illustrator 16.0.0, SVG Export Plug-In . SVG Version: 6.00 Build 0)  -->
<!DOCTYPE svg PUBLIC "-//W3C//DTD SVG 1.1 Tiny//EN" "http://www.w3.org/Graphics/SVG/1.1/DTD/svg11-tiny.dtd">
<svg version="1.1" baseProfile="tiny" id="audio_x5F_ff"
	 xmlns="http://www.w3.org/2000/svg" xmlns:xlink="http://www.w3.org/1999/xlink" x="0px" y="0px" width="361px" height="361px"
	 viewBox="0 0 361 361" xml:space="preserve">
<g>
	<path fill="#FFFFFF" d="M176.723,107.629c35,26.75,70,53.501,105,80.252c0-2.878,0-5.756,0-8.635c-35,26.75-70,53.5-105,80.251
		c2.508,1.439,5.016,2.878,7.523,4.317c0-49.382,0-98.765,0-148.147c0-4.119,0-8.237,0-12.355c0-6.449-10-6.449-10,0
		c0,49.382,0,98.765,0,148.147c0,4.119,0,8.237,0,12.355c0,3.435,4.397,6.707,7.523,4.317c35-26.75,70-53.5,105-80.251
		c3.178-2.429,3.178-6.206,0-8.635c-35-26.75-70-53.501-105-80.252C176.644,95.077,171.673,103.77,176.723,107.629z"/>
</g>
<g>
	<path fill="#FFFFFF" d="M134.723,107.629c35,26.75,70,53.501,105,80.252c0-2.878,0-5.756,0-8.635c-35,26.75-70,53.5-105,80.251
		c2.508,1.439,5.016,2.878,7.523,4.317c0-49.382,0-98.765,0-148.147c0-4.119,0-8.237,0-12.355c0-6.449-10-6.449-10,0
		c0,49.382,0,98.765,0,148.147c0,4.119,0,8.237,0,12.355c0,3.435,4.397,6.707,7.523,4.317c35-26.75,70-53.5,105-80.251
		c3.178-2.429,3.178-6.206,0-8.635c-35-26.75-70-53.501-105-80.252C134.644,95.077,129.673,103.77,134.723,107.629z"/>
</g>
</svg>
