<?xml version="1.0" encoding="iso-8859-1"?>
<!-- Generator: Adobe Illustrator 16.0.0, SVG Export Plug-In . SVG Version: 6.00 Build 0)  -->
<!DOCTYPE svg PUBLIC "-//W3C//DTD SVG 1.1//EN" "http://www.w3.org/Graphics/SVG/1.1/DTD/svg11.dtd">
<svg version="1.1" xmlns="http://www.w3.org/2000/svg" xmlns:xlink="http://www.w3.org/1999/xlink" x="0px" y="0px" width="361px"
	 height="361px" viewBox="0 0 361 361" style="enable-background:new 0 0 361 361;" xml:space="preserve">
<g id="audio_x5F_mic_x5F_mute">
	<g>
		<g>
			<path style="fill:#FFFFFF;" d="M138.736,260.167c0,8.833,0,17.667,0,26.5c0,6.448,10,6.448,10,0c0-8.833,0-17.667,0-26.5
				C148.736,253.719,138.736,253.719,138.736,260.167L138.736,260.167z"/>
		</g>
	</g>
	<g>
		<g>
			<path style="fill:#FFFFFF;" d="M102.486,291.667c27.5,0,55,0,82.5,0c6.448,0,6.448-10,0-10c-27.5,0-55,0-82.5,0
				C96.037,281.667,96.037,291.667,102.486,291.667L102.486,291.667z"/>
		</g>
	</g>
	<g>
		<g>
			<path style="fill:#FFFFFF;" d="M174.358,251.793c-5.708,3.928-11.55,3.374-18.193,3.374c-5.776,0-11.552,0-17.328,0
				c-4.396,0-8.825,0.146-13.211-0.188c-8.758-0.671-17.07-4.99-23.375-10.942c-10.115-9.549-12.043-21.988-12.043-35.127
				c0-9.62,0-19.241,0-28.861c0-6.449-10-6.449-10,0c0,10.581,0,21.162,0,31.743c0,15.837,4.769,30.275,16.874,41.061
				c12.025,10.715,26.442,12.315,41.755,12.315c5.928,0,11.855,0,17.783,0c8.281,0,15.694,0.141,22.785-4.739
				C184.68,256.798,179.686,248.126,174.358,251.793L174.358,251.793z"/>
		</g>
	</g>
	<path style="fill:none;stroke:#FFFFFF;stroke-width:10;stroke-miterlimit:10;" d="M169.359,227.578
		c0-15.325,6.05-29.228,15.877-39.482v-81.208c0-17.795-14.427-32.22-32.221-32.22h-18.56c-17.795,0-32.22,14.425-32.22,32.22
		v104.561c0,17.794,14.425,32.221,32.22,32.221h18.56c6.415,0,12.387-1.883,17.408-5.115
		C169.732,235.001,169.359,231.334,169.359,227.578z"/>
	<g>
		<g>
			<g>
				<path style="fill:#FFFFFF;" d="M275.771,227.263c-0.264,21.84-14.327,41.069-35.273,47.55
					c-20.997,6.497-44.063-2.393-55.993-20.61c-12.03-18.37-9.942-43.151,4.398-59.601c14.373-16.484,38.712-21.485,58.469-12.159
					C264.707,190.625,275.542,208.233,275.771,227.263c0.117,9.678,15.12,9.774,15.004,0.107
					c-0.285-23.601-12.93-45.153-33.556-56.708c-20.663-11.576-46.938-10.132-66.615,2.754c-19.622,12.85-30.716,36.13-28.74,59.426
					c1.966,23.186,16.774,44.002,38.044,53.441c20.026,8.887,43.534,6.933,61.857-5.067c18.09-11.847,28.75-32.365,29.01-53.846
					C290.893,217.679,275.889,217.604,275.771,227.263z"/>
			</g>
		</g>
		<g>
			<g>
				<path style="fill:#FFFFFF;" d="M191.149,272.959c26.912-26.912,53.824-53.824,80.735-80.736
					c6.836-6.835-3.813-17.403-10.665-10.551c-26.912,26.912-53.824,53.824-80.736,80.736
					C173.648,269.243,184.297,279.812,191.149,272.959L191.149,272.959z"/>
			</g>
		</g>
	</g>
</g>
<g id="Ebene_1">
</g>
</svg>
