<?xml version="1.0" encoding="iso-8859-1"?>
<!-- Generator: Adobe Illustrator 16.0.0, SVG Export Plug-In . SVG Version: 6.00 Build 0)  -->
<!DOCTYPE svg PUBLIC "-//W3C//DTD SVG 1.1 Tiny//EN" "http://www.w3.org/Graphics/SVG/1.1/DTD/svg11-tiny.dtd">
<svg version="1.1" baseProfile="tiny" id="audio_x5F_eject"
	 xmlns="http://www.w3.org/2000/svg" xmlns:xlink="http://www.w3.org/1999/xlink" x="0px" y="0px" width="361px" height="361px"
	 viewBox="0 0 361 361" xml:space="preserve">
<g>
	<path fill="#FFFFFF" d="M102.354,197.232c26.75-35,53.501-70,80.252-105c-2.878,0-5.756,0-8.635,0c26.75,35,53.5,70,80.251,105
		c1.439-2.508,2.878-5.016,4.317-7.523c-49.382,0-98.765,0-148.147,0c-4.119,0-8.237,0-12.355,0c-6.449,0-6.449,10,0,10
		c49.382,0,98.765,0,148.147,0c4.119,0,8.237,0,12.355,0c3.435,0,6.707-4.397,4.317-7.523c-26.75-35-53.5-70-80.251-105
		c-2.429-3.178-6.206-3.178-8.635,0c-26.75,35-53.501,70-80.252,105C89.802,197.311,98.494,202.282,102.354,197.232z"/>
</g>
<path fill="none" stroke="#FFFFFF" stroke-width="10" stroke-miterlimit="10" d="M259.981,248.024c0,3.256-2.641,5.897-5.897,5.897
	H102.403c-3.257,0-5.897-2.641-5.897-5.897v-23.916c0-3.256,2.641-5.897,5.897-5.897h151.681c3.256,0,5.897,2.641,5.897,5.897
	V248.024z"/>
</svg>
