<?xml version="1.0" encoding="iso-8859-1"?>
<!-- Generator: Adobe Illustrator 16.0.0, SVG Export Plug-In . SVG Version: 6.00 Build 0)  -->
<!DOCTYPE svg PUBLIC "-//W3C//DTD SVG 1.1//EN" "http://www.w3.org/Graphics/SVG/1.1/DTD/svg11.dtd">
<svg version="1.1" xmlns="http://www.w3.org/2000/svg" xmlns:xlink="http://www.w3.org/1999/xlink" x="0px" y="0px" width="361px"
	 height="361px" viewBox="0 0 361 361" style="enable-background:new 0 0 361 361;" xml:space="preserve">
<g id="audio_x5F_playlist">
	<path style="fill:#FFFFFF;" d="M292.333,131.072c0,3.447-2.796,6.243-6.243,6.243H118.576c-3.447,0-6.243-2.795-6.243-6.243v-4.162
		c0-3.447,2.795-6.243,6.243-6.243H286.09c3.447,0,6.243,2.795,6.243,6.243V131.072z"/>
	<path style="fill:#FFFFFF;" d="M97.333,131.167c0,3.313-2.687,6-6,6h-16c-3.313,0-6-2.687-6-6v-5c0-3.313,2.687-6,6-6h16
		c3.313,0,6,2.687,6,6V131.167z"/>
	<path style="fill:#FFFFFF;" d="M292.333,166.072c0,3.447-2.796,6.243-6.243,6.243H118.576c-3.447,0-6.243-2.795-6.243-6.243v-4.162
		c0-3.447,2.795-6.243,6.243-6.243H286.09c3.447,0,6.243,2.795,6.243,6.243V166.072z"/>
	<path style="fill:#FFFFFF;" d="M97.333,166.167c0,3.313-2.687,6-6,6h-16c-3.313,0-6-2.687-6-6v-5c0-3.313,2.687-6,6-6h16
		c3.313,0,6,2.687,6,6V166.167z"/>
	<path style="fill:#FFFFFF;" d="M292.333,200.072c0,3.447-2.796,6.242-6.243,6.242H118.576c-3.447,0-6.243-2.795-6.243-6.242v-4.162
		c0-3.447,2.795-6.243,6.243-6.243H286.09c3.447,0,6.243,2.796,6.243,6.243V200.072z"/>
	<path style="fill:#FFFFFF;" d="M97.333,200.167c0,3.313-2.687,6-6,6h-16c-3.313,0-6-2.687-6-6v-5c0-3.313,2.687-6,6-6h16
		c3.313,0,6,2.687,6,6V200.167z"/>
	<path style="fill:#FFFFFF;" d="M292.333,234.072c0,3.447-2.796,6.242-6.243,6.242H118.576c-3.447,0-6.243-2.795-6.243-6.242v-4.162
		c0-3.447,2.795-6.243,6.243-6.243H286.09c3.447,0,6.243,2.796,6.243,6.243V234.072z"/>
	<path style="fill:#FFFFFF;" d="M97.333,234.167c0,3.313-2.687,6-6,6h-16c-3.313,0-6-2.687-6-6v-5c0-3.313,2.687-6,6-6h16
		c3.313,0,6,2.687,6,6V234.167z"/>
</g>
<g id="Ebene_1">
</g>
</svg>
