<?xml version="1.0" encoding="iso-8859-1"?>
<!-- Generator: Adobe Illustrator 16.0.0, SVG Export Plug-In . SVG Version: 6.00 Build 0)  -->
<!DOCTYPE svg PUBLIC "-//W3C//DTD SVG 1.1 Tiny//EN" "http://www.w3.org/Graphics/SVG/1.1/DTD/svg11-tiny.dtd">
<svg version="1.1" baseProfile="tiny" id="audio_x5F_volume_x5F_mid"
	 xmlns="http://www.w3.org/2000/svg" xmlns:xlink="http://www.w3.org/1999/xlink" x="0px" y="0px" width="361px" height="361px"
	 viewBox="0 0 361 361" xml:space="preserve">
<path fill="none" stroke="#FFFFFF" stroke-width="10" stroke-miterlimit="10" d="M72.968,218.451c0,2.246,1.82,4.065,4.065,4.065
	h34.323c2.245,0,4.065-1.819,4.065-4.065v-70.002c0-2.244-1.82-4.064-4.065-4.064H77.033c-2.245,0-4.065,1.82-4.065,4.064V218.451z"
	/>
<path fill="none" stroke="#FFFFFF" stroke-width="10" stroke-miterlimit="10" d="M179.586,247.134c0,2.289-1.855,4.145-4.145,4.145
	L132.378,227.1c-2.604-1.375-4.145-1.856-4.145-4.146v-79.252c0-2.289,0.426-2.168,4.145-4.145l43.063-24.179
	c2.29,0,4.145,1.855,4.145,4.145V247.134z"/>
<g>
	<path fill="#FFFFFF" d="M203.419,138.41c24.401,24.919,24.401,64.764,0,89.683c-4.513,4.609,2.554,11.685,7.071,7.071
		c28.208-28.807,28.208-75.018,0-103.825C205.973,126.726,198.906,133.801,203.419,138.41L203.419,138.41z"/>
</g>
<g>
	<path fill="#FFFFFF" d="M224.269,120.978c34.838,35.368,34.838,92.598,0,127.966c-4.527,4.596,2.541,11.671,7.071,7.071
		c18.573-18.856,29.074-43.902,29.452-70.37c0.383-26.785-10.756-52.759-29.452-71.739
		C226.809,109.307,219.741,116.381,224.269,120.978L224.269,120.978z"/>
</g>
</svg>
