<?xml version="1.0" encoding="iso-8859-1"?>
<!-- Generator: Adobe Illustrator 16.0.0, SVG Export Plug-In . SVG Version: 6.00 Build 0)  -->
<!DOCTYPE svg PUBLIC "-//W3C//DTD SVG 1.1//EN" "http://www.w3.org/Graphics/SVG/1.1/DTD/svg11.dtd">
<svg version="1.1" xmlns="http://www.w3.org/2000/svg" xmlns:xlink="http://www.w3.org/1999/xlink" x="0px" y="0px" width="361px"
	 height="361px" viewBox="0 0 361 361" style="enable-background:new 0 0 361 361;" xml:space="preserve">
<g id="audio_x5F_eject">
	<g>
		<g>
			<path style="fill:#FFFFFF;" d="M104.872,194.354c26.75-35,53.501-70,80.252-105c-2.878,0-5.756,0-8.635,0
				c26.75,35,53.501,70,80.251,105c1.439-2.508,2.878-5.016,4.317-7.523c-49.383,0-98.765,0-148.147,0c-4.119,0-8.237,0-12.355,0
				c-6.449,0-6.449,10,0,10c49.382,0,98.765,0,148.147,0c4.118,0,8.237,0,12.355,0c3.436,0,6.707-4.396,4.317-7.523
				c-26.75-35-53.501-70-80.251-105c-2.429-3.178-6.206-3.178-8.635,0c-26.75,35-53.501,70-80.252,105
				C92.32,194.433,101.012,199.404,104.872,194.354z"/>
		</g>
	</g>
	<path style="fill:none;stroke:#FFFFFF;stroke-width:10;stroke-miterlimit:10;" d="M262.5,245.146c0,3.256-2.641,5.896-5.897,5.896
		H104.921c-3.257,0-5.897-2.641-5.897-5.896V221.23c0-3.256,2.641-5.896,5.897-5.896h151.681c3.257,0,5.897,2.641,5.897,5.896
		V245.146z"/>
</g>
<g id="Ebene_1">
</g>
</svg>
