<?xml version="1.0" encoding="iso-8859-1"?>
<!-- Generator: Adobe Illustrator 16.0.0, SVG Export Plug-In . SVG Version: 6.00 Build 0)  -->
<!DOCTYPE svg PUBLIC "-//W3C//DTD SVG 1.1//EN" "http://www.w3.org/Graphics/SVG/1.1/DTD/svg11.dtd">
<svg version="1.1" xmlns="http://www.w3.org/2000/svg" xmlns:xlink="http://www.w3.org/1999/xlink" x="0px" y="0px" width="361px"
	 height="361px" viewBox="0 0 361 361" style="enable-background:new 0 0 361 361;" xml:space="preserve">
<g id="audio_x5F_audio">
	<path style="fill:none;stroke:#FFFFFF;stroke-width:10;stroke-miterlimit:10;" d="M97.5,235.33c0,3.508,2.844,6.351,6.351,6.351
		h53.631c3.507,0,6.351-2.843,6.351-6.351V125.951c0-3.507-2.844-6.351-6.351-6.351h-53.631c-3.507,0-6.351,2.844-6.351,6.351
		V235.33z"/>
	<path style="fill:none;stroke:#FFFFFF;stroke-width:10;stroke-miterlimit:10;" d="M264.092,280.146c0,3.576-2.9,6.477-6.478,6.477
		l-67.286-37.779c-4.069-2.149-6.477-2.9-6.477-6.478V118.535c0-3.577,0.666-3.389,6.477-6.477l67.286-37.78
		c3.577,0,6.478,2.899,6.478,6.477V280.146z"/>
</g>
<g id="Ebene_1">
</g>
</svg>
