<?xml version="1.0" encoding="iso-8859-1"?>
<!-- Generator: Adobe Illustrator 16.0.0, SVG Export Plug-In . SVG Version: 6.00 Build 0)  -->
<!DOCTYPE svg PUBLIC "-//W3C//DTD SVG 1.1//EN" "http://www.w3.org/Graphics/SVG/1.1/DTD/svg11.dtd">
<svg version="1.1" xmlns="http://www.w3.org/2000/svg" xmlns:xlink="http://www.w3.org/1999/xlink" x="0px" y="0px" width="361px"
	 height="361px" viewBox="0 0 361 361" style="enable-background:new 0 0 361 361;" xml:space="preserve">
<g id="audio_x5F_volume_x5F_mute">
	<path style="fill:none;stroke:#FFFFFF;stroke-width:10;stroke-miterlimit:10;" d="M75.486,215.572c0,2.246,1.82,4.065,4.065,4.065
		h34.323c2.245,0,4.065-1.819,4.065-4.065V145.57c0-2.244-1.82-4.064-4.065-4.064H79.551c-2.245,0-4.065,1.82-4.065,4.064V215.572z"
		/>
	<path style="fill:none;stroke:#FFFFFF;stroke-width:10;stroke-miterlimit:10;" d="M177.959,248.4l-5.853-3.285l-37.211-20.894
		c-2.604-1.376-4.145-1.856-4.145-4.146v-79.252c0-2.289,0.426-2.168,4.145-4.145l43.063-24.179c2.29,0,4.145,1.855,4.145,4.145
		v74.977"/>
	<g>
		<g>
			<g>
				<path style="fill:#FFFFFF;" d="M276.033,227.524c-0.264,21.84-14.327,41.07-35.273,47.551
					c-20.997,6.497-44.063-2.393-55.993-20.611c-12.03-18.37-9.941-43.151,4.399-59.6c14.372-16.485,38.711-21.485,58.468-12.16
					C264.969,190.887,275.804,208.495,276.033,227.524c0.117,9.678,15.12,9.774,15.004,0.107
					c-0.285-23.601-12.93-45.152-33.556-56.708c-20.663-11.576-46.938-10.132-66.614,2.754
					c-19.622,12.85-30.717,36.129-28.741,59.425c1.966,23.186,16.774,44.003,38.044,53.442c20.025,8.888,43.533,6.932,61.856-5.067
					c18.09-11.847,28.75-32.366,29.01-53.847C291.154,217.94,276.15,217.866,276.033,227.524z"/>
			</g>
		</g>
		<g>
			<g>
				<path style="fill:#FFFFFF;" d="M191.411,273.221c26.912-26.912,53.824-53.824,80.737-80.736
					c6.835-6.835-3.813-17.403-10.666-10.551c-26.912,26.912-53.824,53.824-80.737,80.736
					C173.91,269.505,184.558,280.073,191.411,273.221L191.411,273.221z"/>
			</g>
		</g>
	</g>
</g>
<g id="Ebene_1">
</g>
</svg>
