<?xml version="1.0" encoding="iso-8859-1"?>
<!-- Generator: Adobe Illustrator 16.0.0, SVG Export Plug-In . SVG Version: 6.00 Build 0)  -->
<!DOCTYPE svg PUBLIC "-//W3C//DTD SVG 1.1//EN" "http://www.w3.org/Graphics/SVG/1.1/DTD/svg11.dtd">
<svg version="1.1" xmlns="http://www.w3.org/2000/svg" xmlns:xlink="http://www.w3.org/1999/xlink" x="0px" y="0px" width="361px"
	 height="361px" viewBox="0 0 361 361" style="enable-background:new 0 0 361 361;" xml:space="preserve">
<g id="audio_x5F_fade">
	<g>
		<g>
			<path style="fill:#FFFFFF;" d="M286.941,264.838c-12.027,0-24.055,0-36.081,0c-6.614,0-13.012-0.964-18.198-5.392
				c-7.015-5.989-11.036-15.368-15.163-23.39c-12.911-25.095-26.004-50.102-38.88-75.219c-3.687-7.191-7.374-14.383-11.061-21.575
				c-7.559-14.744-13.659-32.505-26.557-43.607c-9.873-8.498-21.762-8.443-33.966-8.443c-10.662,0-21.323,0-31.985,0
				c-6.449,0-6.449,10,0,10c12.456,0,24.912,0,37.368,0c6.297,0,12.347,0.106,18.067,3.202c8.756,4.739,13.767,14.759,18.144,23.23
				c13.032,25.227,25.677,50.671,38.632,75.941c3.921,7.647,7.842,15.296,11.763,22.944c3.613,7.049,7.47,13.985,11.105,21.028
				c3.679,7.126,7.482,14.234,12.793,20.302c8.356,9.549,19.91,10.979,31.84,10.979c10.727,0,21.453,0,32.18,0
				C293.39,274.838,293.39,264.838,286.941,264.838L286.941,264.838z"/>
		</g>
	</g>
	<g>
		<g>
			<path style="fill:#FFFFFF;" d="M74.554,274.165c12.027,0,24.054,0,36.082,0c7.238,0,14.268-1.088,20.583-4.811
				c7.506-4.425,12.399-12.26,16.534-19.668c14.219-25.477,27.031-51.844,40.339-77.803c4.554-8.882,9.107-17.764,13.66-26.646
				c6.558-12.791,11.854-27.272,21.082-38.445c5.247-6.352,12.037-9.838,20.271-10.233c3.771-0.181,7.583-0.021,11.355-0.021
				c10.661,0,21.323,0,31.984,0c6.448,0,6.448-10,0-10c-12.456,0-24.912,0-37.368,0c-6.478,0-12.846,0.168-18.97,2.612
				c-9.206,3.672-15.588,11.219-20.706,19.438c-7.547,12.122-13.161,25.512-19.68,38.226c-6.883,13.427-13.766,26.853-20.649,40.279
				c-4.741,9.249-9.482,18.497-14.224,27.745c-6.285,12.26-12.306,25.102-19.833,36.652c-3.585,5.502-8.188,9.85-14.594,11.682
				c-4.426,1.266-9.13,0.993-13.688,0.993c-10.727,0-21.454,0-32.18,0C68.105,264.165,68.105,274.165,74.554,274.165L74.554,274.165
				z"/>
		</g>
	</g>
	<g style="display:none;">
		<g style="display:inline;">
			<g>
				<g>
					<path style="fill:#FFFFFF;" d="M73.833,180.024c0.033-18.633,0.763-37.351,3.327-55.824c0.828-5.964,1.896-11.928,3.58-17.715
						c0.51-1.752,1.986-7.995,4.476-8.181c1.917-0.143,1.931-3.144,0-3c-7.742,0.578-9.254,17.751-10.149,22.938
						c-3.509,20.319-4.196,41.207-4.233,61.782C70.83,181.959,73.83,181.959,73.833,180.024L73.833,180.024z"/>
				</g>
			</g>
			<g>
				<g>
					<path style="fill:#FFFFFF;" d="M99.598,180.024c-0.037-20.62-0.865-41.408-4.233-61.782
						c-0.856-5.183-2.431-22.362-10.15-22.938c-1.931-0.144-1.917,2.857,0,3c2.51,0.187,3.938,6.426,4.477,8.181
						c1.767,5.753,2.718,11.773,3.58,17.715c2.673,18.437,3.293,37.22,3.327,55.824C96.602,181.959,99.602,181.959,99.598,180.024
						L99.598,180.024z"/>
				</g>
			</g>
		</g>
		<g style="display:inline;">
			<g>
				<g>
					<path style="fill:#FFFFFF;" d="M96.858,180.025c0.036,20.619,0.845,41.397,4.136,61.782c0.939,5.82,2.025,11.914,4.406,17.348
						c1.066,2.434,2.571,5.364,5.541,5.591c1.931,0.147,1.916-2.854,0-3c-2.433-0.186-3.832-6.492-4.339-8.181
						c-1.728-5.76-2.655-11.774-3.496-17.715c-2.612-18.444-3.215-37.221-3.248-55.825C99.854,178.09,96.854,178.09,96.858,180.025
						L96.858,180.025z"/>
				</g>
			</g>
			<g>
				<g>
					<path style="fill:#FFFFFF;" d="M122.024,180.025c-0.033,18.631-0.744,37.345-3.248,55.825
						c-0.808,5.961-1.851,11.923-3.496,17.715c-0.479,1.687-1.923,7.996-4.339,8.181c-1.916,0.146-1.931,3.147,0,3
						c2.97-0.227,4.475-3.157,5.541-5.591c2.387-5.448,3.424-11.521,4.406-17.348c3.43-20.331,4.1-41.205,4.136-61.782
						C125.027,178.09,122.027,178.09,122.024,180.025L122.024,180.025z"/>
				</g>
			</g>
		</g>
		<g style="display:inline;">
			<g>
				<g>
					<path style="fill:#FFFFFF;" d="M125.024,180.024c0.037-16.316,0.752-32.705,3.2-48.854c0.797-5.257,1.84-10.504,3.433-15.582
						c0.538-1.716,2.022-7.237,4.45-7.421c1.917-0.146,1.931-3.147,0-3c-7.239,0.55-8.92,15.053-9.895,20.071
						c-3.484,17.953-4.146,36.549-4.188,54.787C122.02,181.959,125.02,181.959,125.024,180.024L125.024,180.024z"/>
				</g>
			</g>
			<g>
				<g>
					<path style="fill:#FFFFFF;" d="M150.189,180.024c-0.041-18.292-0.86-36.765-4.188-54.787
						c-0.926-5.014-2.685-19.523-9.895-20.071c-1.931-0.147-1.917,2.854,0,3c2.449,0.186,3.877,5.704,4.45,7.421
						c1.68,5.041,2.599,10.349,3.433,15.582c2.565,16.105,3.164,32.571,3.2,48.854C147.193,181.959,150.193,181.959,150.189,180.024
						L150.189,180.024z"/>
				</g>
			</g>
		</g>
		<g style="display:inline;">
			<g>
				<g>
					<path style="fill:#FFFFFF;" d="M147.189,179.956c0.088,8.075,0.873,16.641,4.123,24.134c1.888,4.352,4.722,9.204,9.949,9.577
						c1.932,0.138,1.918-2.863,0-3c-4.61-0.329-6.857-6.602-8.123-10.206c-2.295-6.535-2.875-13.63-2.949-20.505
						C150.168,178.022,147.168,178.021,147.189,179.956L147.189,179.956z"/>
				</g>
			</g>
			<g>
				<g>
					<path style="fill:#FFFFFF;" d="M172.333,179.956c-0.071,6.506-0.756,12.904-2.53,19.178
						c-1.101,3.892-3.598,11.181-8.542,11.533c-1.918,0.137-1.932,3.138,0,3c4.79-0.342,7.533-4.456,9.454-8.437
						c3.716-7.698,4.527-16.854,4.618-25.274C175.354,178.021,172.354,178.022,172.333,179.956L172.333,179.956z"/>
				</g>
			</g>
		</g>
	</g>
	<g style="display:none;">
		<g style="display:inline;">
			<g>
				<g>
					<path style="fill:#FFFFFF;" d="M288.333,180.251c-0.033,18.633-0.764,37.352-3.327,55.824
						c-0.827,5.965-1.896,11.929-3.579,17.716c-0.51,1.752-1.985,7.995-4.476,8.181c-1.917,0.143-1.931,3.145,0,3
						c7.741-0.578,9.253-17.752,10.148-22.938c3.51-20.318,4.196-41.206,4.233-61.782
						C291.337,178.316,288.337,178.316,288.333,180.251L288.333,180.251z"/>
				</g>
			</g>
			<g>
				<g>
					<path style="fill:#FFFFFF;" d="M262.568,180.251c0.037,20.62,0.865,41.408,4.232,61.782c0.857,5.184,2.432,22.362,10.15,22.938
						c1.931,0.145,1.917-2.857,0-3c-2.51-0.188-3.938-6.426-4.477-8.181c-1.768-5.753-2.718-11.773-3.579-17.716
						c-2.674-18.437-3.294-37.22-3.327-55.824C265.564,178.316,262.564,178.316,262.568,180.251L262.568,180.251z"/>
				</g>
			</g>
		</g>
		<g style="display:inline;">
			<g>
				<g>
					<path style="fill:#FFFFFF;" d="M265.309,180.25c-0.036-20.619-0.845-41.397-4.136-61.782c-0.94-5.82-2.026-11.914-4.407-17.348
						c-1.065-2.433-2.571-5.363-5.541-5.59c-1.931-0.147-1.916,2.854,0,3c2.434,0.186,3.832,6.492,4.339,8.181
						c1.729,5.759,2.655,11.775,3.496,17.715c2.612,18.444,3.217,37.22,3.249,55.824
						C262.312,182.185,265.312,182.186,265.309,180.25L265.309,180.25z"/>
				</g>
			</g>
			<g>
				<g>
					<path style="fill:#FFFFFF;" d="M240.143,180.25c0.032-18.631,0.743-37.346,3.248-55.824c0.808-5.962,1.85-11.923,3.495-17.715
						c0.479-1.686,1.924-7.996,4.339-8.181c1.916-0.146,1.931-3.147,0-3c-2.97,0.227-4.475,3.157-5.541,5.59
						c-2.387,5.449-3.423,11.521-4.406,17.348c-3.429,20.332-4.099,41.206-4.135,61.782
						C237.14,182.186,240.14,182.185,240.143,180.25L240.143,180.25z"/>
				</g>
			</g>
		</g>
		<g style="display:inline;">
			<g>
				<g>
					<path style="fill:#FFFFFF;" d="M237.143,180.251c-0.036,16.315-0.752,32.705-3.2,48.854c-0.797,5.258-1.84,10.504-3.432,15.583
						c-0.538,1.716-2.023,7.236-4.45,7.421c-1.916,0.146-1.931,3.146,0,3c7.239-0.551,8.921-15.054,9.895-20.07
						c3.483-17.953,4.146-36.55,4.188-54.787C240.146,178.316,237.146,178.316,237.143,180.251L237.143,180.251z"/>
				</g>
			</g>
			<g>
				<g>
					<path style="fill:#FFFFFF;" d="M211.977,180.251c0.041,18.291,0.859,36.765,4.188,54.787c0.927,5.014,2.686,19.522,9.896,20.07
						c1.931,0.146,1.916-2.854,0-3c-2.449-0.187-3.878-5.703-4.45-7.421c-1.68-5.041-2.6-10.35-3.434-15.583
						c-2.565-16.105-3.164-32.571-3.2-48.854C214.973,178.316,211.973,178.316,211.977,180.251L211.977,180.251z"/>
				</g>
			</g>
		</g>
		<g style="display:inline;">
			<g>
				<g>
					<path style="fill:#FFFFFF;" d="M214.977,180.319c-0.088-8.075-0.873-16.641-4.123-24.134c-1.888-4.352-4.722-9.204-9.948-9.577
						c-1.932-0.138-1.918,2.863,0,3c4.61,0.329,6.856,6.602,8.122,10.207c2.295,6.535,2.875,13.63,2.949,20.504
						C211.998,182.253,214.998,182.255,214.977,180.319L214.977,180.319z"/>
				</g>
			</g>
			<g>
				<g>
					<path style="fill:#FFFFFF;" d="M189.833,180.319c0.07-6.506,0.756-12.904,2.53-19.177c1.101-3.892,3.599-11.181,8.542-11.534
						c1.918-0.137,1.932-3.138,0-3c-4.789,0.342-7.532,4.456-9.454,8.437c-3.716,7.699-4.526,16.854-4.618,25.274
						C186.812,182.255,189.812,182.253,189.833,180.319L189.833,180.319z"/>
				</g>
			</g>
		</g>
	</g>
</g>
<g id="Ebene_1">
</g>
</svg>
