<?xml version="1.0" encoding="iso-8859-1"?>
<!-- Generator: Adobe Illustrator 16.0.0, SVG Export Plug-In . SVG Version: 6.00 Build 0)  -->
<!DOCTYPE svg PUBLIC "-//W3C//DTD SVG 1.1//EN" "http://www.w3.org/Graphics/SVG/1.1/DTD/svg11.dtd">
<svg version="1.1" xmlns="http://www.w3.org/2000/svg" xmlns:xlink="http://www.w3.org/1999/xlink" x="0px" y="0px" width="361px"
	 height="361px" viewBox="0 0 361 361" style="enable-background:new 0 0 361 361;" xml:space="preserve">
<g id="control_x5F_x">
	<path style="fill:none;stroke:#FFFFFF;stroke-width:10;stroke-miterlimit:10;" d="M184.648,165.393L96.25,76.993
		c-2.892-2.892-7.582-2.892-10.473,0l-8.728,8.728c-2.893,2.893-2.893,7.581,0,10.474l84.857,84.857"/>
	<path style="fill:none;stroke:#FFFFFF;stroke-width:10;stroke-miterlimit:10;" d="M177.594,196.74l87.399,87.399
		c2.892,2.891,7.581,2.891,10.474,0l8.727-8.729c2.894-2.893,2.894-7.582,0-10.474l-83.877-83.878"/>
	<path style="fill:none;stroke:#FFFFFF;stroke-width:10;stroke-miterlimit:10;" d="M181.121,200.268L97.25,284.139
		c-2.892,2.891-7.581,2.891-10.473,0l-8.728-8.728c-2.893-2.893-2.893-7.582,0-10.474l87.381-87.381"/>
	<path style="fill:none;stroke:#FFFFFF;stroke-width:10;stroke-miterlimit:10;" d="M181.121,161.865l84.872-84.872
		c2.892-2.892,7.581-2.892,10.474,0l8.728,8.728c2.893,2.893,2.893,7.581,0,10.474l-88.396,88.396"/>
</g>
<g id="Ebene_1">
</g>
</svg>
