<?xml version="1.0" encoding="iso-8859-1"?>
<!-- Generator: Adobe Illustrator 16.0.3, SVG Export Plug-In . SVG Version: 6.00 Build 0)  -->
<!DOCTYPE svg PUBLIC "-//W3C//DTD SVG 1.1//EN" "http://www.w3.org/Graphics/SVG/1.1/DTD/svg11.dtd">
<svg version="1.1" xmlns="http://www.w3.org/2000/svg" xmlns:xlink="http://www.w3.org/1999/xlink" x="0px" y="0px" width="361px"
	 height="361px" viewBox="0 0 361 361" style="enable-background:new 0 0 361 361;" xml:space="preserve">
<g id="control_x5F_building_x5F_flat_x5F_filled">
	<g id="fill_2_">
		<path style="fill:#FFFFFF;" d="M103.254,124.002v149.945c0,2.716,2.131,4.919,4.761,4.919h138.842
			c2.629,0,4.761-2.203,4.761-4.919V112.002c0-2.716-2.132-4.919-4.761-4.919l-138.842,12
			C105.386,119.083,103.254,121.286,103.254,124.002z"/>
	</g>
	<g id="Haus_66_">
		<g>
			<g>
				<path style="fill:#FFFFFF;" d="M90.042,283.981c1.507,9.67,13.562,7.561,20.607,7.561c13.053,0,26.105,0,39.158,0
					c30.174,0,60.349,0,90.523,0c6.024,0,14.784,1.54,20.345-1.433c5.767-3.085,4.016-14.013,4.016-19.349
					c0.001-28.154,0.002-56.309,0.003-84.462c0.001-29.461,0.002-58.921,0.003-88.382c0-2.543-2.281-5.242-5-5
					c-49.242,4.375-98.484,8.751-147.726,13.126c-5.176,0.46-17.919-0.306-20.699,5.255c-2.775,5.551-1.408,13.681-1.408,19.661
					c0,29.737,0,59.475,0,89.212c0,20.827,0,41.654,0,62.481c0,6.448,10,6.448,10,0c0-49.738,0-99.477,0-149.214
					c0-4.219,0-8.438,0-12.656c0-1.12,0-2.239,0-3.359c0-2.128,0.295-0.33-1.231-0.194c6.1-0.542,12.199-1.084,18.298-1.626
					c30.328-2.695,60.656-5.39,90.984-8.084c17.261-1.534,34.521-3.067,51.781-4.601c-1.667-1.667-3.333-3.333-5-5
					c-0.002,49.756-0.003,99.512-0.005,149.268c0,10.074,0,20.148-0.001,30.224c0,1.727,0,3.453,0,5.18
					c0-1.123,2.133-1.046,0.416-1.046c-1.123,0-2.245,0-3.368,0c-26.485,0-52.972,0-79.458,0c-16.854,0-33.707,0-50.561,0
					c-5.518,0-11.036,0-16.554,0c-1.572,0-3.144,0-4.716,0c-0.432,0-0.864,0-1.296,0c-1.216,0,0.565,0.001,0.531-0.219
					C98.694,274.967,89.059,277.675,90.042,283.981z"/>
			</g>
		</g>
		<g>
			<g>
				<path style="fill:#FFFFFF;" d="M283.363,90.667c-48.87,4.25-97.74,8.501-146.61,12.752c-19.529,1.699-39.057,3.397-58.586,5.096
					c-6.373,0.554-6.427,10.559,0,10c48.87-4.25,97.74-8.501,146.61-12.752c19.528-1.699,39.058-3.397,58.586-5.096
					C289.736,100.113,289.791,90.108,283.363,90.667L283.363,90.667z"/>
			</g>
		</g>
	</g>
</g>
<g id="Ebene_1">
</g>
</svg>
