<?xml version="1.0" encoding="iso-8859-1"?>
<!-- Generator: Adobe Illustrator 16.0.0, SVG Export Plug-In . SVG Version: 6.00 Build 0)  -->
<!DOCTYPE svg PUBLIC "-//W3C//DTD SVG 1.1 Tiny//EN" "http://www.w3.org/Graphics/SVG/1.1/DTD/svg11-tiny.dtd">
<svg version="1.1" baseProfile="tiny" id="control_x5F_on_x5F_off"
	 xmlns="http://www.w3.org/2000/svg" xmlns:xlink="http://www.w3.org/1999/xlink" x="0px" y="0px" width="361px" height="361px"
	 viewBox="0 0 361 361" xml:space="preserve">
<path fill="none" stroke="#FFFFFF" stroke-width="10" stroke-miterlimit="10" d="M267.317,240.326
	c0,17.793-14.427,32.22-32.22,32.22h-114.56c-17.795,0-32.22-14.427-32.22-32.22V125.765c0-17.795,14.425-32.22,32.22-32.22h114.56
	c17.793,0,32.22,14.425,32.22,32.22V240.326z"/>
<g>
	<path fill="#FFFFFF" d="M173.315,122.045c0,40.333,0,80.667,0,121c0,6.449,10,6.449,10,0c0-40.333,0-80.667,0-121
		C183.315,115.596,173.315,115.596,173.315,122.045L173.315,122.045z"/>
</g>
</svg>
