<?xml version="1.0" encoding="iso-8859-1"?>
<!-- Generator: Adobe Illustrator 16.0.0, SVG Export Plug-In . SVG Version: 6.00 Build 0)  -->
<!DOCTYPE svg PUBLIC "-//W3C//DTD SVG 1.1 Tiny//EN" "http://www.w3.org/Graphics/SVG/1.1/DTD/svg11-tiny.dtd">
<svg version="1.1" baseProfile="tiny" id="control_x5F_arrow_x5F_right"
	 xmlns="http://www.w3.org/2000/svg" xmlns:xlink="http://www.w3.org/1999/xlink" x="0px" y="0px" width="361px" height="361px"
	 viewBox="0 0 361 361" xml:space="preserve">
<path fill="none" stroke="#FFFFFF" stroke-width="10" stroke-miterlimit="10" d="M178.815,234.743c0,2.928-0.741,5.302-1.655,5.302
	h-28.69c-0.914,0-1.655-2.374-1.655-5.302V131.347c0-2.928,0.741-5.302,1.655-5.302h28.69c0.914,0,1.655,2.374,1.655,5.302V234.743z
	"/>
<g>
	<path fill="#FFFFFF" d="M177,107.798c35,26.75,70,53.501,105,80.251c0-2.878,0-5.756,0-8.635c-35,26.75-70,53.501-105,80.251
		c2.508,1.439,5.016,2.878,7.523,4.317c0-49.382,0-98.765,0-148.147c0-4.119,0-8.237,0-12.355c0-6.449-10-6.449-10,0
		c0,49.382,0,98.765,0,148.147c0,4.119,0,8.237,0,12.355c0,3.435,4.397,6.707,7.523,4.317c35-26.75,70-53.501,105-80.251
		c3.178-2.429,3.178-6.206,0-8.635c-35-26.75-70-53.501-105-80.251C176.922,95.246,171.951,103.938,177,107.798z"/>
</g>
</svg>
