<?xml version="1.0" encoding="iso-8859-1"?>
<!-- Generator: Adobe Illustrator 16.0.0, SVG Export Plug-In . SVG Version: 6.00 Build 0)  -->
<!DOCTYPE svg PUBLIC "-//W3C//DTD SVG 1.1//EN" "http://www.w3.org/Graphics/SVG/1.1/DTD/svg11.dtd">
<svg version="1.1" xmlns="http://www.w3.org/2000/svg" xmlns:xlink="http://www.w3.org/1999/xlink" x="0px" y="0px" width="361px"
	 height="361px" viewBox="0 0 361 361" style="enable-background:new 0 0 361 361;" xml:space="preserve">
<g id="control_x5F_zoom_x5F_out">
	<g>
		<path style="fill:none;stroke:#FFFFFF;stroke-width:10;stroke-miterlimit:10;" d="M208.502,184.758
			c0,13.205-10.707,23.91-23.91,23.91H99.578c-13.206,0-23.91-10.705-23.91-23.91V99.743c0-13.205,10.704-23.91,23.91-23.91h85.014
			c13.203,0,23.91,10.705,23.91,23.91V184.758z"/>
		<path style="fill:none;stroke:#FFFFFF;stroke-width:10;stroke-miterlimit:10;" d="M208.075,189.242l75.862,75.862
			c2.893,2.892,2.893,7.582,0,10.474l-8.728,8.728c-2.893,2.893-7.581,2.893-10.474,0l-76.004-76.003"/>
	</g>
	<g>
		<g>
			<path style="fill:#FFFFFF;" d="M105.996,149.668c23.906,0,47.813,0,71.718,0c9.687,0,9.771-15.003,0.108-15.003
				c-23.906,0-47.813,0-71.718,0C96.417,134.666,96.332,149.668,105.996,149.668L105.996,149.668z"/>
		</g>
	</g>
</g>
<g id="Ebene_1">
</g>
</svg>
