<?xml version="1.0" encoding="iso-8859-1"?>
<!-- Generator: Adobe Illustrator 16.0.0, SVG Export Plug-In . SVG Version: 6.00 Build 0)  -->
<!DOCTYPE svg PUBLIC "-//W3C//DTD SVG 1.1//EN" "http://www.w3.org/Graphics/SVG/1.1/DTD/svg11.dtd">
<svg version="1.1" xmlns="http://www.w3.org/2000/svg" xmlns:xlink="http://www.w3.org/1999/xlink" x="0px" y="0px" width="361px"
	 height="361px" viewBox="0 0 361 361" style="enable-background:new 0 0 361 361;" xml:space="preserve">
<g id="control_x5F_zoom_x5F_in">
	<g>
		<path style="fill:none;stroke:#FFFFFF;stroke-width:10;stroke-miterlimit:10;" d="M153.274,184.758
			c0,13.205,10.707,23.91,23.91,23.91h85.014c13.206,0,23.91-10.705,23.91-23.91V99.743c0-13.205-10.704-23.91-23.91-23.91h-85.014
			c-13.203,0-23.91,10.705-23.91,23.91V184.758z"/>
		<path style="fill:none;stroke:#FFFFFF;stroke-width:10;stroke-miterlimit:10;" d="M153.7,189.242l-75.863,75.862
			c-2.892,2.892-2.892,7.582,0,10.474l8.728,8.728c2.893,2.893,7.581,2.893,10.474,0l76.003-76.003"/>
	</g>
	<g>
		<g>
			<path style="fill:#FFFFFF;" d="M255.779,134.666c-23.905,0-47.812,0-71.718,0c-9.686,0-9.771,15.003-0.107,15.003
				c23.905,0,47.812,0,71.718,0C265.357,149.668,265.443,134.666,255.779,134.666L255.779,134.666z"/>
		</g>
	</g>
	<g>
		<g>
			<path style="fill:#FFFFFF;" d="M227.368,178.081c0-23.906,0-47.813,0-71.719c0-9.687-15.004-9.772-15.004-0.108
				c0,23.906,0,47.813,0,71.719C212.364,187.658,227.368,187.744,227.368,178.081L227.368,178.081z"/>
		</g>
	</g>
</g>
<g id="Ebene_1">
</g>
</svg>
