<?xml version="1.0" encoding="iso-8859-1"?>
<!-- Generator: Adobe Illustrator 16.0.0, SVG Export Plug-In . SVG Version: 6.00 Build 0)  -->
<!DOCTYPE svg PUBLIC "-//W3C//DTD SVG 1.1//EN" "http://www.w3.org/Graphics/SVG/1.1/DTD/svg11.dtd">
<svg version="1.1" xmlns="http://www.w3.org/2000/svg" xmlns:xlink="http://www.w3.org/1999/xlink" x="0px" y="0px" width="361px"
	 height="361px" viewBox="0 0 361 361" style="enable-background:new 0 0 361 361;" xml:space="preserve">
<g id="control_x5F_arrow_x5F_turn_x5F_right">
	<g>
		<g>
			<path style="fill:#FFFFFF;" d="M268.404,142.417c4.377,32.766,8.754,65.531,13.131,98.296c1.667-1.667,3.333-3.333,5-5
				c-32.765-4.378-65.53-8.755-98.295-13.133c1.179,2.845,2.357,5.69,3.535,8.535c28.389-28.388,56.776-56.775,85.164-85.163
				c4.564-4.564-2.507-11.635-7.07-7.071c-28.389,28.388-56.776,56.775-85.164,85.164c-3.399,3.398-0.542,7.99,3.535,8.535
				c32.765,4.378,65.53,8.755,98.295,13.133c2.463,0.329,5.329-2.537,5-5c-4.377-32.766-8.754-65.531-13.131-98.296
				C277.563,136.122,267.553,136.04,268.404,142.417z"/>
		</g>
	</g>
	<g>
		<g>
			<path style="fill:#FFFFFF;" d="M232.703,153.165c-1.107,0.788-4.399-2.874-1.76-0.234c1.038,1.038,2.076,2.076,3.114,3.114
				c2.835,2.835,5.67,5.669,8.505,8.504c0.867,0.867,1.734,1.734,2.602,2.602c1.841,1.84,0.349-3.916-0.281-3.285
				c-1.276,1.276-2.552,2.552-3.828,3.828c-10.086,10.086-20.173,20.173-30.26,30.26c-0.571,0.571-1.143,1.144-1.715,1.715
				c-1.756,1.756,0.9-1.189,3.353,1.262c-2.271-2.271-4.54-4.54-6.811-6.81c-1.015-1.016-2.03-2.031-3.045-3.046
				c-1.57-1.57,0.301,3.483,1.13,2.351c1.054-1.439,2.107-2.878,3.161-4.317c8.464-11.561,16.929-23.122,25.393-34.683
				c0.745-1.018,1.491-2.036,2.236-3.055c3.816-5.212-4.867-10.192-8.635-5.047c-7.16,9.779-14.319,19.558-21.479,29.337
				c-3.07,4.194-6.141,8.387-9.211,12.581c-4.895,6.687,1.658,11.229,6.06,15.63c4.486,4.486,9.069,8.719,14.92,2.868
				c4.041-4.042,8.083-8.083,12.124-12.124c5.583-5.583,11.166-11.166,16.748-16.749c2.53-2.53,8.285-6.616,9.16-10.401
				c1.503-6.496-5.663-11.102-9.738-15.177c-4.409-4.408-9.864-12.685-16.789-7.76C222.448,148.234,227.436,156.912,232.703,153.165
				z"/>
		</g>
	</g>
	<g>
		<g>
			<path style="fill:#FFFFFF;" d="M179.651,130.118c-0.519,1.134-5.136-0.312-2.035,0.519c1.162,0.312,2.324,0.623,3.486,0.934
				c3.812,1.021,7.623,2.043,11.435,3.064c3.318,0.889,6.637,1.778,9.955,2.667c0.95,0.254,1.899,0.509,2.849,0.764
				c2.428,0.65-0.749-5.817-1.623-3.835c-5.317,12.061-10.635,24.122-15.952,36.184c-1.669,3.784-3.337,7.568-5.006,11.353
				c0.463-1.049,4.759,0.21,2.698-0.343c-0.577-0.154-1.155-0.31-1.733-0.464c-1.723-0.462-3.446-0.924-5.169-1.385
				c-1.639-0.439-3.278-0.879-4.917-1.318c-3.583-0.96,1.16,0.221,1.045,1.272c1.373-12.619,2.746-25.237,4.119-37.856
				c0.51-4.693,1.021-9.386,1.532-14.079c0.697-6.407-9.31-6.339-10,0c-1.311,12.049-2.622,24.097-3.933,36.146
				c-0.562,5.167-1.124,10.333-1.687,15.5c-0.893,8.209,7.039,8.866,13.026,10.471c5.997,1.607,11.07,2.962,14.121-3.959
				c2.373-5.382,4.746-10.764,7.119-16.146c3.176-7.204,6.352-14.407,9.527-21.611c1.815-4.117,4.385-8.43,4.812-12.949
				c0.736-7.806-15.122-9.25-20.016-10.561c-6.383-1.71-18.455-7.794-22.288,0.586C168.354,130.891,176.972,135.977,179.651,130.118
				z"/>
		</g>
	</g>
	<g>
		<g>
			<path style="fill:#FFFFFF;" d="M121.248,134.866c0.121,1.272-4.506,2.299-1.433,1.475c1.162-0.312,2.324-0.623,3.486-0.934
				c3.812-1.021,7.624-2.042,11.435-3.064c3.318-0.889,6.637-1.778,9.955-2.667c0.95-0.254,1.899-0.509,2.849-0.763
				c2.444-0.655-3.628-4.626-3.393-2.464c1.426,13.104,2.851,26.208,4.277,39.313c0.447,4.111,0.895,8.223,1.342,12.334
				c-0.127-1.168,4.134-2.2,2.095-1.654c-0.578,0.155-1.156,0.31-1.733,0.464c-1.723,0.462-3.446,0.923-5.169,1.385
				c-1.639,0.439-3.278,0.878-4.917,1.317c-3.614,0.968,1.185-0.401,1.598,0.537c-5.12-11.615-10.24-23.229-15.36-34.844
				c-1.904-4.32-3.809-8.64-5.713-12.959c-2.596-5.89-11.21-0.796-8.635,5.047c4.889,11.09,9.778,22.18,14.667,33.271
				c2.096,4.756,4.193,9.512,6.29,14.268c3.324,7.54,10.6,4.113,16.574,2.513c6.002-1.608,10.998-2.977,10.179-10.498
				c-0.636-5.848-1.272-11.695-1.908-17.542c-0.852-7.827-1.703-15.653-2.555-23.479c-0.488-4.485-0.426-9.48-2.32-13.616
				c-3.248-7.092-17.799-0.402-22.67,0.903c-6.405,1.716-19.813,2.452-18.938,11.659
				C111.853,141.228,121.858,141.287,121.248,134.866z"/>
		</g>
	</g>
	<g>
		<g>
			<path style="fill:#FFFFFF;" d="M80.142,162.566c0.788,1.107-2.874,4.4-0.234,1.76c1.038-1.038,2.076-2.076,3.114-3.114
				c2.834-2.835,5.669-5.669,8.504-8.504c0.867-0.868,1.734-1.735,2.602-2.602c1.936-1.936-4.69-1.524-4.094-0.71
				c1.054,1.439,2.107,2.878,3.161,4.317c8.464,11.561,16.928,23.121,25.391,34.682c0.741,1.012,1.481,2.023,2.222,3.035
				c-0.776-1.061,2.87-4.362,0.24-1.732c-1.426,1.426-2.852,2.852-4.277,4.277c-1.2,1.2-2.4,2.4-3.6,3.601
				c-2.762,2.762,0.982-1.227,2.694,0.485c-1.156-1.155-2.312-2.312-3.467-3.467c-10.109-10.11-20.218-20.22-30.328-30.33
				c-0.903-0.903-1.806-1.806-2.709-2.709c-4.563-4.564-11.635,2.507-7.071,7.071c8.606,8.607,17.213,17.213,25.819,25.821
				c3.533,3.532,7.065,7.065,10.597,10.598c6.494,6.495,12.021-0.883,16.486-5.349c4.408-4.408,8.064-8.104,3.58-14.229
				c-3.475-4.746-6.95-9.492-10.424-14.238c-4.65-6.352-9.301-12.704-13.951-19.057c-2.644-3.611-5.076-7.964-8.759-10.582
				c-5.926-4.211-12.937,5.801-16.371,9.235c-4.408,4.408-12.686,9.864-7.759,16.788C75.211,172.82,83.89,167.833,80.142,162.566z"
				/>
		</g>
	</g>
</g>
<g id="Ebene_1">
</g>
</svg>
