<?xml version="1.0" encoding="iso-8859-1"?>
<!-- Generator: Adobe Illustrator 16.0.0, SVG Export Plug-In . SVG Version: 6.00 Build 0)  -->
<!DOCTYPE svg PUBLIC "-//W3C//DTD SVG 1.1//EN" "http://www.w3.org/Graphics/SVG/1.1/DTD/svg11.dtd">
<svg version="1.1" xmlns="http://www.w3.org/2000/svg" xmlns:xlink="http://www.w3.org/1999/xlink" x="0px" y="0px" width="361px"
	 height="361px" viewBox="0 0 361 361" style="enable-background:new 0 0 361 361;" xml:space="preserve">
<g id="control_x5F_reset">
	<g>
		<g>
			<path style="fill:#FFFFFF;" d="M245.106,228.263c0.001,8.203,0.294,15.742-4.08,23.091c-4.692,7.885-13.751,12.404-22.771,12.404
				c-9.211,0-18.421,0-27.632,0c-27.373,0-54.746,0-82.118,0c-15.478,0-28.745-10.555-28.745-26.852c0-9.211,0-18.422,0-27.633
				c0-27.372,0-54.746,0-82.119c0-15.478,10.556-28.745,26.853-28.745c9.21,0,18.421,0,27.632,0c27.373,0,54.745,0,82.118,0
				c15.503,0,28.392,10.39,28.745,26.563c0.141,6.439,10.142,6.453,10,0c-0.444-20.332-16.683-36.563-37.124-36.563
				c-9.708,0-19.417,0-29.125,0c-26.973,0-53.945,0-80.918,0c-18.083,0-33.914,11.585-37.52,29.709
				c-1.683,8.454-0.661,17.948-0.661,26.486c0,28.814,0,57.629,0,86.444c0,2.518-0.024,5.035,0.031,7.553
				c0.242,11.064,6.202,21.834,15.157,28.228c10.025,7.158,20.965,6.929,32.54,6.929c29.316,0,58.633,0,87.949,0
				c8.865,0,17.981,0.724,26.416-2.531c9.409-3.631,17.093-11.313,20.724-20.724c2.793-7.236,2.531-14.64,2.53-22.24
				C255.105,221.814,245.105,221.814,245.106,228.263L245.106,228.263z"/>
		</g>
	</g>
	<g>
		<g>
			<path style="fill:#FFFFFF;" d="M219.94,230.786c11.495-15.039,22.989-30.079,34.484-45.118c-2.878,0-5.757,0-8.635,0
				c11.495,15.039,22.989,30.079,34.484,45.118c1.439-2.508,2.878-5.016,4.317-7.523c-22.989,0-45.979,0-68.969,0
				c-6.448,0-6.448,10,0,10c22.989,0,45.979,0,68.969,0c3.436,0,6.707-4.397,4.317-7.523c-11.495-15.04-22.989-30.079-34.484-45.118
				c-2.429-3.178-6.206-3.178-8.635,0c-11.495,15.039-22.989,30.078-34.484,45.118C207.388,230.864,216.081,235.836,219.94,230.786z
				"/>
		</g>
	</g>
	<g>
		<g>
			<path style="fill:#FFFFFF;" d="M157.434,120.584c0,40.333,0,80.667,0,121c0,6.448,10,6.448,10,0c0-40.333,0-80.667,0-121
				C167.434,114.135,157.434,114.135,157.434,120.584L157.434,120.584z"/>
		</g>
	</g>
</g>
<g id="Ebene_1">
</g>
</svg>
