<?xml version="1.0" encoding="iso-8859-1"?>
<!-- Generator: Adobe Illustrator 16.0.0, SVG Export Plug-In . SVG Version: 6.00 Build 0)  -->
<!DOCTYPE svg PUBLIC "-//W3C//DTD SVG 1.1//EN" "http://www.w3.org/Graphics/SVG/1.1/DTD/svg11.dtd">
<svg version="1.1" xmlns="http://www.w3.org/2000/svg" xmlns:xlink="http://www.w3.org/1999/xlink" x="0px" y="0px" width="361px"
	 height="361px" viewBox="0 0 361 361" style="enable-background:new 0 0 361 361;" xml:space="preserve">
<g id="control_x5F_building_x5F_empty">
	<g>
		<g>
			<path style="fill:#FFFFFF;" d="M177.977,78.901c35.59,26.992,71.18,53.984,106.77,80.976c0.011,0.008,0.021,0.016,0.031,0.024
				c0.841-3.106,1.683-6.211,2.523-9.317c-35.519,0-71.038,0-106.557,0c-6.449,0-6.449,10,0,10c35.519,0,71.038,0,106.557,0
				c5.402,0,6.252-6.489,2.523-9.317c-35.59-26.992-71.18-53.984-106.77-80.976c-0.011-0.008-0.021-0.016-0.031-0.024
				C177.882,66.367,172.909,75.058,177.977,78.901L177.977,78.901z"/>
		</g>
	</g>
	<g>
		<polygon style="fill:#FFFFFF;" points="287.107,155.583 180.833,74.584 74.56,155.583 		"/>
		<g>
			<path style="fill:#FFFFFF;" d="M289.631,151.266c-35.422-26.998-70.844-53.996-106.266-80.994
				c-0.003-0.002-0.006-0.004-0.008-0.006c-1.254-0.956-3.794-0.956-5.047,0c-35.422,26.998-70.844,53.996-106.266,80.994
				c-0.003,0.002-0.005,0.004-0.008,0.006c-3.717,2.833-2.888,9.317,2.523,9.317c48.627,0,97.254,0,145.882,0
				c22.222,0,44.444,0,66.666,0c6.448,0,6.448-10,0-10c-48.627,0-97.254,0-145.881,0c-22.222,0-44.444,0-66.667,0
				c0.841,3.106,1.683,6.211,2.523,9.317c35.422-26.998,70.844-53.996,106.267-80.994c0.002-0.002,0.005-0.004,0.008-0.006
				c-1.683,0-3.365,0-5.047,0c35.421,26.998,70.844,53.996,106.266,80.994c0.002,0.002,0.005,0.004,0.008,0.006
				C289.715,163.812,294.688,155.12,289.631,151.266z"/>
		</g>
	</g>
	<g>
		<g>
			<path style="fill:#FFFFFF;" d="M263.679,280.616c-0.087,0.557,1.509,0.468-0.29,0.468c-1.179,0-2.358,0-3.538,0
				c-4.208,0-8.417,0-12.625,0c-13.748,0-27.495,0-41.243,0c-30.299,0-60.599,0-90.898,0c-5.97,0-11.939,0-17.91,0
				c1.289,0,0.992,1.503,0.992-0.631c0-1.555,0-3.109,0-4.664c0-5.338,0-10.676,0-16.015c0-29.691,0-59.384,0-89.076
				c0-3.376,0-6.752,0-10.129c0-1.542-0.106,0.014-0.874,0.014c0.691,0,1.382,0,2.073,0c9.068,0,18.137,0,27.205,0
				c31.417,0,62.833,0,94.25,0c11.768,0,23.534,0,35.301,0c2.583,0,5.166,0,7.749,0c1.35,0-0.37-0.523-0.37-0.692
				c0,0.922,0,1.844,0,2.766c0,27.49,0,54.981,0,82.472c0,12.271,0,24.544,0,36.815c0,6.448,10,6.448,10,0
				c0-23.021,0-46.042,0-69.063c0-14.061,0-28.122,0-42.183c0-7.317,1.835-20.115-9.196-20.115c-50.779,0-101.558,0-152.336,0
				c-5.911,0-14.248-1.429-19.687,1.481c-6.598,3.53-4.114,18.674-4.114,24.562c0,29.939,0,59.878,0,89.818
				c0,6.114-2.59,22.748,6.407,24.25c6.053,1.011,12.502,0.39,18.611,0.39c29.969,0,59.938,0,89.908,0c15.334,0,30.669,0,46.003,0
				c7.599,0,22.583,2.726,24.226-7.81C274.305,276.968,264.67,274.26,263.679,280.616z"/>
		</g>
	</g>
	
		<rect id="Haus_x5F_Block_1_" x="104.18" y="166.167" style="display:none;fill:#FFFFFF;stroke:#FFFFFF;stroke-width:7;stroke-linejoin:round;stroke-miterlimit:10;" width="153.5" height="109"/>
	<path style="display:none;fill:#FFFFFF;stroke:#FFFFFF;stroke-width:7;stroke-linejoin:round;stroke-miterlimit:10;" d="
		M104.18,166.167v109h153.5v-109H104.18z M207.834,238.114c0,5.368-4.352,9.72-9.721,9.72h-34.56c-5.369,0-9.72-4.352-9.72-9.72
		v-34.562c0-5.367,4.352-9.72,9.72-9.72h34.56c5.369,0,9.721,4.353,9.721,9.72V238.114z"/>
	<path id="Home_2_" style="display:none;fill:none;stroke:#FFFFFF;stroke-width:7;stroke-miterlimit:10;" d="M207.834,238.114
		c0,5.368-4.352,9.72-9.721,9.72h-34.56c-5.369,0-9.72-4.352-9.72-9.72v-34.562c0-5.367,4.352-9.72,9.72-9.72h34.56
		c5.369,0,9.721,4.353,9.721,9.72V238.114z"/>
	
		<polygon id="DG_x5F_Block_2_" style="display:none;fill:#FFFFFF;stroke:#FFFFFF;stroke-width:7;stroke-linejoin:round;stroke-miterlimit:10;" points="
		104.958,145.452 180.896,88.243 256.833,145.452 	"/>
</g>
<g id="Ebene_1">
</g>
</svg>
