<?xml version="1.0" encoding="iso-8859-1"?>
<!-- Generator: Adobe Illustrator 16.0.0, SVG Export Plug-In . SVG Version: 6.00 Build 0)  -->
<!DOCTYPE svg PUBLIC "-//W3C//DTD SVG 1.1//EN" "http://www.w3.org/Graphics/SVG/1.1/DTD/svg11.dtd">
<svg version="1.1" xmlns="http://www.w3.org/2000/svg" xmlns:xlink="http://www.w3.org/1999/xlink" x="0px" y="0px" width="361px"
	 height="361px" viewBox="0 0 361 361" style="enable-background:new 0 0 361 361;" xml:space="preserve">
<g id="control_x5F_centr_x5F_arrow_x5F_up_x5F_left">
	<g>
		<path style="fill:none;stroke:#FFFFFF;stroke-width:10;stroke-miterlimit:10;" d="M225.379,149.604
			c2.07-2.071,4.273-3.225,4.92-2.58l20.287,20.287c0.646,0.646-0.509,2.849-2.58,4.92l-73.111,73.112
			c-2.07,2.07-4.273,3.225-4.919,2.578l-20.287-20.287c-0.646-0.646,0.509-2.848,2.579-4.918L225.379,149.604z"/>
		<g>
			<g>
				<path style="fill:#FFFFFF;" d="M136.874,241.92c-5.833-43.664-11.667-87.329-17.5-130.994c-1.667,1.667-3.333,3.333-5,5
					c43.664,5.833,87.329,11.667,130.993,17.5c-1.179-2.845-2.357-5.69-3.535-8.536c-34.919,34.919-69.838,69.837-104.757,104.756
					c-2.912,2.912-5.825,5.825-8.737,8.737c-4.563,4.563,2.507,11.635,7.071,7.07c34.919-34.918,69.837-69.837,104.756-104.756
					c2.912-2.912,5.824-5.824,8.736-8.736c3.399-3.399,0.542-7.991-3.535-8.536c-43.664-5.833-87.329-11.667-130.993-17.5
					c-2.463-0.329-5.329,2.537-5,5c5.833,43.665,11.667,87.33,17.5,130.994C127.715,248.215,137.726,248.297,136.874,241.92z"/>
			</g>
		</g>
	</g>
</g>
<g id="Ebene_1">
</g>
</svg>
