<?xml version="1.0" encoding="iso-8859-1"?>
<!-- Generator: Adobe Illustrator 16.0.3, SVG Export Plug-In . SVG Version: 6.00 Build 0)  -->
<!DOCTYPE svg PUBLIC "-//W3C//DTD SVG 1.1//EN" "http://www.w3.org/Graphics/SVG/1.1/DTD/svg11.dtd">
<svg version="1.1" xmlns="http://www.w3.org/2000/svg" xmlns:xlink="http://www.w3.org/1999/xlink" x="0px" y="0px" width="361px"
	 height="361px" viewBox="0 0 361 361" style="enable-background:new 0 0 361 361;" xml:space="preserve">
<g id="control_x5F_reload">
	<g>
		<g>
			<path style="fill:#FFFFFF;" d="M256.519,157.38c0.001-14.862,2.035-30.803-7.709-43.32c-7.002-8.994-17.524-13.928-28.854-14.175
				c-3.012-0.066-6.033,0-9.046,0c-15.194,0-30.39,0-45.584,0c-10.683,0-22.604-1.316-33.094,1.247
				c-15.179,3.709-25.288,17.49-26.938,32.52c-0.863,7.863-0.122,16.117-0.122,24.019c0,6.449,10,6.449,10,0
				c0-15.061-2.608-31.337,10.212-42.199c9.092-7.703,23.526-5.587,34.599-5.587c15.538,0,31.075,0,46.613,0
				c13.141,0,26.403-0.908,35.123,11.303c7.136,9.993,4.8,24.587,4.799,36.192C246.519,163.829,256.519,163.829,256.519,157.38
				L256.519,157.38z"/>
		</g>
	</g>
	<g>
		<g>
			<path style="fill:#FFFFFF;" d="M212.718,161.153c11.495,15.04,22.989,30.08,34.484,45.119c2.429,3.178,6.206,3.178,8.635,0
				c11.495-15.039,22.989-30.079,34.484-45.119c2.39-3.126-0.882-7.523-4.317-7.523c-22.989,0-45.979,0-68.969,0
				c-6.448,0-6.448,10,0,10c22.989,0,45.979,0,68.969,0c-1.439-2.508-2.878-5.016-4.317-7.523
				c-11.495,15.04-22.989,30.079-34.484,45.119c2.878,0,5.757,0,8.635,0c-11.495-15.04-22.989-30.079-34.484-45.119
				C217.493,151.056,208.8,156.027,212.718,161.153z"/>
		</g>
	</g>
	<g>
		<g>
			<path style="fill:#FFFFFF;" d="M148.321,201.225c-11.495-15.04-22.99-30.079-34.484-45.119c-2.429-3.178-6.206-3.178-8.635,0
				c-11.495,15.04-22.99,30.079-34.484,45.119c-2.39,3.127,0.882,7.523,4.317,7.523c22.99,0,45.979,0,68.969,0
				c6.449,0,6.449-10,0-10c-22.99,0-45.979,0-68.969,0c1.439,2.508,2.878,5.016,4.317,7.523
				c11.495-15.039,22.99-30.079,34.484-45.119c-2.878,0-5.756,0-8.635,0c11.495,15.04,22.99,30.08,34.484,45.119
				C143.546,211.321,152.239,206.35,148.321,201.225z"/>
		</g>
	</g>
	<g>
		<g>
			<path style="fill:#FFFFFF;" d="M246.519,203.925c0.001,14.99,2.55,31.098-10.211,41.908c-9.092,7.702-23.527,5.587-34.601,5.587
				c-15.538,0-31.076,0-46.613,0c-13.141,0-26.402,0.907-35.121-11.304c-7.178-10.051-4.801-24.811-4.801-36.481
				c0-6.448-10-6.448-10,0c0,14.938-2.083,31.03,7.711,43.609c7.001,8.993,17.522,13.928,28.852,14.176c3.012,0.065,6.033,0,9.045,0
				c15.195,0,30.39,0,45.584,0c10.684,0,22.605,1.315,33.095-1.247c15.181-3.709,25.288-17.49,26.938-32.52
				c0.853-7.769,0.121-15.922,0.121-23.729C256.519,197.477,246.519,197.477,246.519,203.925L246.519,203.925z"/>
		</g>
	</g>
</g>
<g id="Ebene_1">
</g>
</svg>
