<?xml version="1.0" encoding="iso-8859-1"?>
<!-- Generator: Adobe Illustrator 16.0.0, SVG Export Plug-In . SVG Version: 6.00 Build 0)  -->
<!DOCTYPE svg PUBLIC "-//W3C//DTD SVG 1.1//EN" "http://www.w3.org/Graphics/SVG/1.1/DTD/svg11.dtd">
<svg version="1.1" xmlns="http://www.w3.org/2000/svg" xmlns:xlink="http://www.w3.org/1999/xlink" x="0px" y="0px" width="361px"
	 height="361px" viewBox="0 0 361 361" style="enable-background:new 0 0 361 361;" xml:space="preserve">
<g id="control_x5F_building_x5F_edg_x5F_all">
	<g>
		<g>
			<g>
				<path style="fill:#FFFFFF;" d="M175.534,75.881c0,0.066,0,0.132,0,0.199c0.004,1.765,0.953,3.425,2.477,4.317
					c0.78,0.452,1.621,0.68,2.523,0.683c0.903-0.003,1.744-0.23,2.524-0.683c0.043-0.033,0.087-0.066,0.13-0.1
					c0.752-0.444,1.35-1.042,1.794-1.794c0.452-0.78,0.68-1.621,0.683-2.523c-0.003-0.902-0.23-1.744-0.683-2.523
					c-0.444-0.751-1.042-1.35-1.794-1.794c-0.044-0.033-0.087-0.066-0.131-0.099c-1.01-0.765-2.689-0.824-3.853-0.504
					c-1.25,0.344-2.333,1.18-2.988,2.298c-0.676,1.155-0.859,2.562-0.504,3.853c0.168,0.398,0.336,0.796,0.504,1.194
					c0.444,0.751,1.042,1.35,1.794,1.794c0.043,0.033,0.087,0.066,0.131,0.099c0-2.878,0-5.756,0-8.635
					c-0.043,0.033-0.087,0.066-0.13,0.1c2.508,1.439,5.015,2.878,7.524,4.317c-0.001-0.066-0.001-0.132-0.001-0.199
					c-0.007-2.726-2.27-5-5-5C177.813,70.881,175.527,73.155,175.534,75.881z"/>
			</g>
		</g>
		<g>
			<g>
				<path style="fill:#FFFFFF;" d="M97.572,144.282c4.852,0,9.705,0,14.557,0c-1.667-1.667-3.333-3.333-5-5
					c0,47.212,0,94.424,0,141.636c0,4.738,1.466,9.197,6.804,10.312c2.144,0.447,4.523,0.179,6.69,0.179c12.072,0,24.145,0,36.217,0
					c28.172,0,56.345,0,84.518,0c2.568,0,4.966,0.094,7.49-0.434c4.861-1.015,5.584-6.285,5.584-10.338
					c-0.001-10.137-0.002-20.273-0.003-30.411c-0.002-30.696-0.005-61.393-0.007-92.089c-0.001-6.285-0.001-12.57-0.002-18.854
					c-1.667,1.667-3.333,3.333-5,5c4.917,0,9.833,0,14.75,0c5.396,0,6.261-6.493,2.523-9.317
					c-27.878-21.067-55.757-42.135-83.635-63.203c-1.259-0.951-3.79-0.958-5.047,0c-27.654,21.067-55.309,42.135-82.963,63.203
					c-5.058,3.853-0.085,12.544,5.047,8.635c27.654-21.067,55.309-42.135,82.963-63.203c-1.683,0-3.365,0-5.047,0
					c27.878,21.067,55.756,42.135,83.635,63.203c0.841-3.106,1.683-6.211,2.523-9.317c-4.917,0-9.833,0-14.75,0
					c-2.726,0-5,2.274-5,5c0.004,47.212,0.008,94.424,0.012,141.636c0,0.702,0,1.404,0,2.105c0-1.222,3.153-1.615,0.889-1.615
					c-3.32,0-6.641,0-9.96,0c-13.731,0-27.464,0-41.195,0c-25.834,0-51.669,0-77.504,0c-2.787,0,0.468-0.271,0.468,1.753
					c0-0.576,0-1.151,0-1.727c0-3.548,0-7.096,0-10.644c0-13.592,0-27.184,0-40.775c0-28.184,0-56.367,0-84.551
					c0-2.061,0-4.122,0-6.183c0-2.726-2.274-5-5-5c-4.852,0-9.705,0-14.557,0C91.123,134.282,91.123,144.282,97.572,144.282z"/>
			</g>
		</g>
		<g>
			<g>
				<path style="fill:#FFFFFF;" d="M266.693,134.965c-10.256-7.774-20.512-15.549-30.768-23.323
					c-5.147-3.902-10.101,4.785-5.047,8.635c5.366,4.088,10.732,8.176,16.1,12.265c3.53,2.689,7.062,5.379,10.592,8.069
					c1.954,1.488,3.97,3.672,6.6,3.672c6.448,0,6.448-10,0-10c2.392,0,2.973,1.14,1.142-0.254c-1.086-0.828-2.173-1.656-3.26-2.484
					c-3.605-2.747-7.212-5.494-10.817-8.241c-5.104-3.887-10.206-7.774-15.309-11.662c-1.683,2.878-3.364,5.756-5.047,8.635
					c10.256,7.774,20.512,15.549,30.768,23.323C266.789,147.498,271.762,138.807,266.693,134.965z"/>
			</g>
		</g>
		<g>
			<g>
				<path style="fill:#FFFFFF;" d="M178.271,71.564c-0.043,0.033-0.087,0.066-0.13,0.099c-0.337,0.261-0.675,0.521-1.012,0.782
					c-0.62,0.624-1.048,1.359-1.286,2.207c-0.355,1.291-0.172,2.698,0.504,3.853c0.655,1.118,1.738,1.954,2.988,2.298
					c1.163,0.32,2.845,0.262,3.853-0.504c0.044-0.033,0.087-0.066,0.13-0.099c0.338-0.261,0.675-0.521,1.012-0.782
					c0.62-0.624,1.049-1.359,1.286-2.207c0.355-1.291,0.173-2.698-0.504-3.853c-0.654-1.118-1.738-1.954-2.988-2.298
					C180.961,70.74,179.279,70.798,178.271,71.564L178.271,71.564z"/>
			</g>
		</g>
	</g>
	<path id="EG_5_" style="fill:#FFFFFF;" d="M238.393,172.068H123.35c-2.179,0-3.945,1.825-3.945,4.076v42.27
		c0,2.25,1.766,4.075,3.945,4.075h115.043c2.178,0,3.944-1.825,3.944-4.075v-42.27C242.337,173.894,240.57,172.068,238.393,172.068z
		 M179.286,209.523h-15.88v-24.76h15v4.08h-10.08v5.561h8.76v4.08h-8.76v6.959h10.96V209.523z M188.365,203.664
		c0.934,1.4,2.307,2.1,4.121,2.1c0.293,0,0.612-0.013,0.959-0.039c0.347-0.027,0.666-0.066,0.961-0.121v-9.039h4.92v12.359
		c-0.588,0.214-1.5,0.453-2.74,0.721c-1.24,0.266-2.74,0.399-4.5,0.399c-1.547,0-2.94-0.274-4.18-0.819
		c-1.24-0.547-2.301-1.361-3.181-2.441c-0.88-1.079-1.56-2.426-2.04-4.039s-0.72-3.486-0.72-5.62c0-2.106,0.28-3.966,0.84-5.58
		c0.56-1.613,1.32-2.966,2.28-4.06s2.093-1.914,3.4-2.461c1.306-0.546,2.705-0.819,4.199-0.819c0.96,0,1.82,0.073,2.58,0.22
		s1.42,0.314,1.98,0.5c0.56,0.188,1.02,0.387,1.38,0.6c0.36,0.215,0.633,0.374,0.819,0.48l-1.279,3.92
		c-0.587-0.373-1.307-0.706-2.16-1c-0.854-0.293-1.734-0.439-2.641-0.439c-1.174,0-2.16,0.213-2.959,0.64
		c-0.801,0.427-1.461,1.021-1.98,1.78s-0.894,1.666-1.12,2.72s-0.34,2.22-0.34,3.5C186.966,200.084,187.432,202.264,188.365,203.664
		z"/>
	<path id="KG_9_" style="fill:#FFFFFF;" d="M238.225,228.902H123.183c-2.179,0-3.945,1.824-3.945,4.075v42.27
		c0,2.251,1.766,4.075,3.945,4.075h115.042c2.18,0,3.945-1.824,3.945-4.075v-42.27C242.17,230.727,240.404,228.902,238.225,228.902z
		 M174.689,267.548c-0.294-0.933-0.714-1.94-1.26-3.021c-0.547-1.08-1.154-2.133-1.82-3.16c-0.667-1.025-1.367-1.985-2.1-2.879
		s-1.434-1.646-2.1-2.26v11.319h-4.92v-24.76h4.92v10.28c0.586-0.746,1.2-1.574,1.84-2.48s1.246-1.813,1.82-2.721
		c0.573-0.906,1.1-1.799,1.58-2.68c0.48-0.88,0.88-1.68,1.2-2.399h5.56c-0.374,0.72-0.82,1.54-1.34,2.46s-1.114,1.88-1.78,2.88
		c-0.667,1-1.38,2.021-2.14,3.06c-0.76,1.041-1.554,2.041-2.38,3c0.826,0.801,1.666,1.721,2.52,2.76
		c0.853,1.041,1.66,2.154,2.42,3.341c0.76,1.187,1.446,2.399,2.06,3.64c0.613,1.24,1.106,2.447,1.48,3.62H174.689z M188.169,261.688
		c0.933,1.4,2.306,2.101,4.12,2.101c0.293,0,0.613-0.013,0.96-0.04c0.347-0.026,0.666-0.066,0.96-0.12v-9.04h4.92v12.359
		c-0.587,0.215-1.5,0.454-2.74,0.721c-1.24,0.266-2.74,0.4-4.5,0.4c-1.547,0-2.939-0.274-4.18-0.82c-1.24-0.547-2.3-1.36-3.18-2.44
		c-0.881-1.079-1.561-2.426-2.041-4.04c-0.479-1.613-0.719-3.486-0.719-5.619c0-2.107,0.279-3.967,0.84-5.58
		c0.56-1.613,1.32-2.967,2.279-4.061c0.961-1.094,2.094-1.913,3.4-2.46c1.307-0.546,2.706-0.819,4.199-0.819
		c0.961,0,1.82,0.073,2.58,0.219c0.761,0.147,1.42,0.314,1.98,0.5c0.561,0.188,1.02,0.388,1.381,0.601
		c0.359,0.214,0.633,0.374,0.819,0.479l-1.28,3.92c-0.586-0.373-1.307-0.705-2.16-1c-0.854-0.293-1.733-0.439-2.64-0.439
		c-1.174,0-2.16,0.214-2.96,0.641c-0.8,0.426-1.46,1.02-1.98,1.779c-0.52,0.76-0.893,1.667-1.119,2.721
		c-0.227,1.053-0.34,2.219-0.34,3.5C186.77,258.107,187.235,260.288,188.169,261.688z"/>
	<g>
		<g>
			<line style="fill:#FFFFFF;" x1="119.521" y1="169.112" x2="241.99" y2="169.112"/>
			<g>
				<path style="fill:#FFFFFF;" d="M119.521,170.612c40.823,0,81.646,0,122.47,0c1.935,0,1.935-3,0-3c-40.823,0-81.646,0-122.47,0
					C117.586,167.612,117.586,170.612,119.521,170.612L119.521,170.612z"/>
			</g>
		</g>
		<g>
			<line style="fill:#FFFFFF;" x1="119.521" y1="225.75" x2="241.99" y2="225.75"/>
			<g>
				<path style="fill:#FFFFFF;" d="M119.521,227.25c40.823,0,81.646,0,122.47,0c1.935,0,1.935-3,0-3c-40.823,0-81.646,0-122.47,0
					C117.586,224.25,117.586,227.25,119.521,227.25L119.521,227.25z"/>
			</g>
		</g>
		<g>
			<g>
				<path style="fill:#FFFFFF;" d="M258.334,227.25c10.61,0,21.222,0,31.832,0c1.935,0,1.935-3,0-3c-10.61,0-21.222,0-31.832,0
					C256.399,224.25,256.399,227.25,258.334,227.25L258.334,227.25z"/>
			</g>
		</g>
		<g>
			<g>
				<path style="fill:#FFFFFF;" d="M72.167,227.25c10.611,0,21.222,0,31.833,0c1.935,0,1.935-3,0-3c-10.611,0-21.222,0-31.833,0
					C70.232,224.25,70.232,227.25,72.167,227.25L72.167,227.25z"/>
			</g>
		</g>
	</g>
	<g>
		<path style="fill:#FFFFFF;" d="M242.3,134.328c-0.007-0.127-0.022-0.253-0.037-0.38c-0.005-0.026-0.006-0.053-0.011-0.078
			c-0.189-1.44-0.919-2.863-2.224-3.841c-18.878-14.15-37.756-28.3-56.634-42.45c-1.271-0.953-3.776-0.953-5.047,0
			c-18.819,14.105-37.637,28.211-56.456,42.316c-1.745,0.917-2.572,2.851-2.479,4.735c0,0.026-0.007,0.05-0.007,0.077v27.27
			c0,2.25,1.766,4.076,3.945,4.076h115.043c2.178,0,3.944-1.825,3.944-4.076v-27.27C242.337,134.577,242.312,134.454,242.3,134.328z
			 M178.365,139.356c-0.574,1.614-1.367,2.927-2.38,3.94c-1.014,1.014-2.22,1.754-3.62,2.22s-2.94,0.7-4.62,0.7
			c-0.88,0-1.74-0.047-2.58-0.14c-0.84-0.094-1.74-0.247-2.7-0.46v-24.16c1.12-0.24,2.173-0.4,3.16-0.48
			c0.986-0.08,1.906-0.12,2.76-0.12c1.626,0,3.113,0.24,4.46,0.72c1.346,0.48,2.486,1.233,3.42,2.26
			c0.933,1.027,1.66,2.334,2.18,3.92c0.52,1.587,0.78,3.5,0.78,5.74C179.225,135.79,178.938,137.743,178.365,139.356z
			 M187.785,140.037c0.933,1.4,2.306,2.1,4.119,2.1c0.293,0,0.613-0.013,0.961-0.04c0.346-0.026,0.666-0.066,0.959-0.12v-9.04h4.92
			v12.36c-0.586,0.214-1.5,0.454-2.739,0.72c-1.24,0.266-2.74,0.4-4.5,0.4c-1.547,0-2.94-0.274-4.181-0.82
			c-1.24-0.546-2.299-1.36-3.18-2.44c-0.88-1.08-1.561-2.426-2.04-4.04c-0.479-1.613-0.72-3.486-0.72-5.62
			c0-2.106,0.279-3.966,0.84-5.58c0.561-1.613,1.32-2.966,2.28-4.06c0.96-1.093,2.093-1.913,3.399-2.46
			c1.307-0.546,2.707-0.82,4.2-0.82c0.96,0,1.82,0.074,2.58,0.22c0.761,0.147,1.42,0.314,1.979,0.5
			c0.561,0.187,1.021,0.387,1.381,0.6c0.359,0.214,0.633,0.374,0.82,0.48l-1.281,3.92c-0.586-0.373-1.307-0.706-2.159-1
			c-0.854-0.293-1.733-0.44-2.64-0.44c-1.174,0-2.16,0.214-2.961,0.64c-0.799,0.427-1.459,1.02-1.979,1.78
			c-0.521,0.76-0.894,1.667-1.12,2.72c-0.227,1.054-0.34,2.22-0.34,3.5C186.385,136.457,186.852,138.637,187.785,140.037z"/>
		<path style="fill:#FFFFFF;" d="M173.145,127.134c-0.4-0.773-0.947-1.393-1.64-1.86c-0.694-0.466-1.587-0.7-2.68-0.7
			c-0.214,0-0.454,0.007-0.72,0.02c-0.267,0.014-0.507,0.047-0.72,0.1v16.64c0.133,0.027,0.28,0.04,0.44,0.04s0.306,0,0.44,0
			c1.12,0,2.06-0.213,2.82-0.64c0.76-0.426,1.374-1.013,1.84-1.76c0.466-0.747,0.8-1.633,1-2.66c0.2-1.026,0.3-2.153,0.3-3.38
			c0-1.066-0.08-2.106-0.24-3.12C173.825,128.801,173.545,127.908,173.145,127.134z"/>
	</g>
</g>
<g id="Ebene_1">
</g>
</svg>
