<?xml version="1.0" encoding="iso-8859-1"?>
<!-- Generator: Adobe Illustrator 16.0.0, SVG Export Plug-In . SVG Version: 6.00 Build 0)  -->
<!DOCTYPE svg PUBLIC "-//W3C//DTD SVG 1.1//EN" "http://www.w3.org/Graphics/SVG/1.1/DTD/svg11.dtd">
<svg version="1.1" xmlns="http://www.w3.org/2000/svg" xmlns:xlink="http://www.w3.org/1999/xlink" x="0px" y="0px" width="361px"
	 height="361px" viewBox="0 0 361 361" style="enable-background:new 0 0 361 361;" xml:space="preserve">
<g id="control_x5F_building_x5F_outside">
	<g id="Zahnrad_1_">
		<path style="fill:#FFFFFF;stroke:#FFFFFF;stroke-width:3;stroke-linejoin:round;stroke-miterlimit:10;" d="M286.202,90.071
			l4.115-0.428l-0.417-3.967l-4.111,0.437l-2.192-4.921l3.077-2.764l-2.67-2.964l-3.07,2.771l-4.664-2.697l0.863-4.042l-3.901-0.83
			l-0.855,4.047l-5.358,0.56l-1.677-3.778l-3.645,1.622l1.687,3.776l-4.002,3.605l-3.58-2.072l-1.995,3.455l3.582,2.063
			l-1.122,5.112l-4.109,0.586l0.417,3.967l4.11-0.437l2.193,4.921l-3.076,2.764l2.669,2.964l3.071-2.772l4.664,2.697l-0.864,4.042
			l3.901,0.83l0.855-4.047l5.358-0.56l1.677,3.778l3.645-1.622l-1.662-3.792l3.979-3.59l3.58,2.072l1.994-3.455l-3.582-2.063
			L286.202,90.071z M271.236,101.324c-6.451,0-11.68-5.23-11.68-11.681c0-6.451,5.229-11.68,11.68-11.68s11.682,5.229,11.682,11.68
			C282.918,96.094,277.688,101.324,271.236,101.324z"/>
		<path style="fill:#FFFFFF;stroke:#FFFFFF;stroke-width:3;stroke-linejoin:round;stroke-miterlimit:10;" d="M262.033,120.076
			l4.133-0.199l-0.197-3.984l-4.129,0.208l-1.918-5.035l3.226-2.59l-2.501-3.107l-3.221,2.598l-4.508-2.951l1.087-3.987
			l-3.851-1.044l-1.077,3.994l-5.382,0.263l-1.465-3.865l-3.729,1.418l1.475,3.864l-4.195,3.378l-3.46-2.267l-2.183,3.339
			l3.463,2.257l-1.404,5.042l-4.135,0.358l0.197,3.984l4.129-0.208l1.918,5.035l-3.226,2.59l2.501,3.107l3.221-2.598l4.508,2.951
			l-1.086,3.988l3.85,1.044l1.077-3.994l5.382-0.263l1.465,3.865l3.729-1.418l-1.449-3.877l4.17-3.364l3.46,2.267l2.183-3.339
			l-3.463-2.257L262.033,120.076z M247.114,130.502c-6.451,0-11.681-5.23-11.681-11.681c0-6.451,5.229-11.681,11.681-11.681
			c6.45,0,11.681,5.229,11.681,11.681C258.795,125.271,253.564,130.502,247.114,130.502z"/>
		<g>
			<g>
				<path style="fill:#FFFFFF;stroke:#FFFFFF;stroke-width:3;stroke-linejoin:round;stroke-miterlimit:10;" d="M282.412,125.054
					l2.521-0.321c-0.424-1.278-1.143-2.452-2.119-3.412l-1.373,2.226L282.412,125.054z"/>
				<path style="fill:#FFFFFF;stroke:#FFFFFF;stroke-width:3;stroke-linejoin:round;stroke-miterlimit:10;" d="M282.814,121.321
					l1.855-3.006l-3.059-1.873l-1.806,2.97c0.116,0.043,0.235,0.079,0.351,0.128C281.18,119.974,282.068,120.587,282.814,121.321z"
					/>
				<path style="fill:#FFFFFF;stroke:#FFFFFF;stroke-width:3;stroke-linejoin:round;stroke-miterlimit:10;" d="M278.418,121.696
					l1.388-2.283c-1.35-0.503-2.749-0.644-4.093-0.465l0.92,2.567L278.418,121.696z"/>
				<path style="fill:#FFFFFF;stroke:#FFFFFF;stroke-width:3;stroke-linejoin:round;stroke-miterlimit:10;" d="M285.329,128.273
					l3.624-0.438l-0.443-3.559l-3.576,0.457C285.306,125.859,285.452,127.063,285.329,128.273z"/>
				<path style="fill:#FFFFFF;stroke:#FFFFFF;stroke-width:3;stroke-linejoin:round;stroke-miterlimit:10;" d="M273.301,122.724
					l-0.945-2.583c-1.174,0.721-2.181,1.73-2.905,2.98l2.597,0.885L273.301,122.724z"/>
				<path style="fill:#FFFFFF;stroke:#FFFFFF;stroke-width:3;stroke-linejoin:round;stroke-miterlimit:10;" d="M274.557,115.729
					l-3.371,1.223l1.17,3.189c1.021-0.627,2.164-1.034,3.357-1.193L274.557,115.729z"/>
				<path style="fill:#FFFFFF;stroke:#FFFFFF;stroke-width:3;stroke-linejoin:round;stroke-miterlimit:10;" d="M282.277,130.272
					l1.758,1.708c0.248-0.392,0.477-0.803,0.662-1.245c0.342-0.806,0.547-1.635,0.632-2.462l-2.479,0.3L282.277,130.272z"/>
				<path style="fill:#FFFFFF;stroke:#FFFFFF;stroke-width:3;stroke-linejoin:round;stroke-miterlimit:10;" d="M268.899,130.576
					l-2.942,1.882l1.943,3.014l2.986-1.938C270.018,132.69,269.342,131.681,268.899,130.576z"/>
				<path style="fill:#FFFFFF;stroke:#FFFFFF;stroke-width:3;stroke-linejoin:round;stroke-miterlimit:10;" d="M278.113,133.419
					l-0.241,2.46c1.313-0.163,2.573-0.625,3.675-1.353l-1.748-1.72L278.113,133.419z"/>
				<path style="fill:#FFFFFF;stroke:#FFFFFF;stroke-width:3;stroke-linejoin:round;stroke-miterlimit:10;" d="M274.323,135.574
					l-0.376,3.602l3.566,0.36l0.358-3.657C276.707,136.024,275.5,135.938,274.323,135.574z"/>
				<path style="fill:#FFFFFF;stroke:#FFFFFF;stroke-width:3;stroke-linejoin:round;stroke-miterlimit:10;" d="M269.45,123.121
					l-3.222-1.098l-1.145,3.397l3.253,1.085c0.087-0.815,0.29-1.63,0.626-2.424C269.104,123.746,269.271,123.429,269.45,123.121z"/>
				<path style="fill:#FFFFFF;stroke:#FFFFFF;stroke-width:3;stroke-linejoin:round;stroke-miterlimit:10;" d="M281.547,134.527
					l2.633,2.592l2.508-2.565l-2.652-2.575C283.38,133.016,282.529,133.878,281.547,134.527z"/>
				<path style="fill:#FFFFFF;stroke:#FFFFFF;stroke-width:3;stroke-linejoin:round;stroke-miterlimit:10;" d="M270.914,127.366
					l-2.577-0.86c-0.149,1.399,0.054,2.795,0.563,4.069l2.237-1.431L270.914,127.366z"/>
				<path style="fill:#FFFFFF;stroke:#FFFFFF;stroke-width:3;stroke-linejoin:round;stroke-miterlimit:10;" d="M273.057,132.126
					l-2.17,1.408c0.738,0.717,1.613,1.317,2.617,1.742c0.271,0.114,0.545,0.214,0.819,0.298l0.263-2.512L273.057,132.126z"/>
			</g>
			
				<circle style="fill:none;stroke:#FFFFFF;stroke-width:5;stroke-linejoin:round;stroke-miterlimit:10;" cx="276.803" cy="127.612" r="5.917"/>
		</g>
	</g>
	<g>
		<polygon style="fill:#FFFFFF;" points="74.677,156.167 74.433,75.167 181.234,156.167 		"/>
		<g>
			<path style="fill:#FFFFFF;" d="M79.677,156.167c-0.082-27-0.163-54-0.245-81c-2.508,1.439-5.016,2.878-7.523,4.317
				c35.59,26.992,71.18,53.984,106.771,80.976c0.01,0.008,0.021,0.016,0.031,0.024c0.841-3.106,1.682-6.211,2.523-9.317
				c-35.519,0-71.038,0-106.557,0c-6.449,0-6.449,10,0,10c35.519,0,71.038,0,106.557,0c5.402,0,6.252-6.489,2.523-9.317
				c-35.59-26.992-71.18-53.984-106.771-80.976c-0.01-0.008-0.021-0.016-0.031-0.024c-3.125-2.371-7.534,0.868-7.523,4.317
				c0.082,27,0.163,54,0.245,81C69.697,162.615,79.697,162.617,79.677,156.167z"/>
		</g>
	</g>
	<path style="fill:none;stroke:#FFFFFF;stroke-width:10;stroke-miterlimit:10;" d="M127.433,280.988c0,3.137-2.687,5.679-6,5.679
		h-23.5c-3.313,0-6-2.542-6-5.679v-68.143c0-3.137,2.687-5.679,6-5.679h23.5c3.313,0,6,2.542,6,5.679V280.988z"/>
	<path style="fill:none;stroke:#FFFFFF;stroke-width:10;stroke-miterlimit:10;" d="M162.833,281.5c0,3.223-4.727,5.834-10.558,5.834
		H85.391c-5.832,0-10.558-2.611-10.558-5.834V159c0-3.222,4.727-5.833,10.558-5.833h66.884c5.832,0,10.558,2.612,10.558,5.833V281.5
		z"/>
	<g id="zaun">
		<g>
			<g>
				<path style="fill:#FFFFFF;" d="M186.188,233.144c0,18.044,0,36.088,0,54.132c0,4.514,7,4.514,7,0c0-18.044,0-36.088,0-54.132
					C193.188,228.63,186.188,228.63,186.188,233.144L186.188,233.144z"/>
			</g>
		</g>
		<g>
			<g>
				<path style="fill:#FFFFFF;" d="M197.537,233.202c0,18.044,0,36.088,0,54.132c0,4.514,7,4.514,7,0c0-18.044,0-36.088,0-54.132
					C204.537,228.688,197.537,228.688,197.537,233.202L197.537,233.202z"/>
			</g>
		</g>
		<g>
			<g>
				<path style="fill:#FFFFFF;" d="M208.888,233.202c0,18.044,0,36.088,0,54.132c0,4.514,7,4.514,7,0c0-18.044,0-36.088,0-54.132
					C215.888,228.688,208.888,228.688,208.888,233.202L208.888,233.202z"/>
			</g>
		</g>
		<g>
			<g>
				<path style="fill:#FFFFFF;" d="M220.238,233.202c0,18.044,0,36.088,0,54.132c0,4.514,7,4.514,7,0c0-18.044,0-36.088,0-54.132
					C227.238,228.688,220.238,228.688,220.238,233.202L220.238,233.202z"/>
			</g>
		</g>
		<g>
			<g>
				<path style="fill:#FFFFFF;" d="M231.588,233.144c0,18.044,0,36.088,0,54.132c0,4.514,7,4.514,7,0c0-18.044,0-36.088,0-54.132
					C238.588,228.63,231.588,228.63,231.588,233.144L231.588,233.144z"/>
			</g>
		</g>
		<g>
			<g>
				<path style="fill:#FFFFFF;" d="M242.938,233.202c0,18.044,0,36.088,0,54.132c0,4.514,7,4.514,7,0c0-18.044,0-36.088,0-54.132
					C249.938,228.688,242.938,228.688,242.938,233.202L242.938,233.202z"/>
			</g>
		</g>
		<g>
			<g>
				<path style="fill:#FFFFFF;" d="M254.289,233.202c0,18.044,0,36.088,0,54.132c0,4.514,7,4.514,7,0c0-18.044,0-36.088,0-54.132
					C261.289,228.688,254.289,228.688,254.289,233.202L254.289,233.202z"/>
			</g>
		</g>
		<g>
			<g>
				<path style="fill:#FFFFFF;" d="M265.639,233.202c0,18.044,0,36.088,0,54.132c0,4.514,7,4.514,7,0c0-18.044,0-36.088,0-54.132
					C272.639,228.688,265.639,228.688,265.639,233.202L265.639,233.202z"/>
			</g>
		</g>
		<g>
			<g>
				<path style="fill:#FFFFFF;" d="M276.989,233.144c0,18.044,0,36.088,0,54.132c0,4.514,7,4.514,7,0c0-18.044,0-36.088,0-54.132
					C283.989,228.63,276.989,228.63,276.989,233.144L276.989,233.144z"/>
			</g>
		</g>
		<g>
			<g>
				<path style="fill:#FFFFFF;" d="M185.288,247.18c33.868,0,67.736,0,101.604,0c4.514,0,4.514-7,0-7c-33.868,0-67.736,0-101.604,0
					C180.774,240.18,180.774,247.18,185.288,247.18L185.288,247.18z"/>
			</g>
		</g>
		<g>
			<g>
				<path style="fill:#FFFFFF;" d="M184.965,280.008c34.054,0,68.106,0,102.16,0c4.514,0,4.514-7,0-7c-34.054,0-68.106,0-102.16,0
					C180.451,273.008,180.451,280.008,184.965,280.008L184.965,280.008z"/>
			</g>
		</g>
	</g>
</g>
<g id="Ebene_1">
</g>
</svg>
