<?xml version="1.0" encoding="iso-8859-1"?>
<!-- Generator: Adobe Illustrator 16.0.0, SVG Export Plug-In . SVG Version: 6.00 Build 0)  -->
<!DOCTYPE svg PUBLIC "-//W3C//DTD SVG 1.1//EN" "http://www.w3.org/Graphics/SVG/1.1/DTD/svg11.dtd">
<svg version="1.1" xmlns="http://www.w3.org/2000/svg" xmlns:xlink="http://www.w3.org/1999/xlink" x="0px" y="0px" width="361px"
	 height="361px" viewBox="0 0 361 361" style="enable-background:new 0 0 361 361;" xml:space="preserve">
<g id="control_x5F_building_x5F_modern_x5F_s_x5F_okg_x5F_all">
	<g id="OG_12_">
		<path style="fill:#FFFFFF;" d="M165.929,157.972c-0.338-0.933-0.813-1.673-1.424-2.22c-0.612-0.547-1.433-0.821-2.462-0.821
			s-1.851,0.274-2.462,0.821c-0.612,0.547-1.086,1.296-1.424,2.245c-0.337,0.95-0.563,2.052-0.675,3.307
			c-0.113,1.254-0.169,2.606-0.169,4.055c0,1.448,0.056,2.808,0.169,4.079c0.112,1.272,0.338,2.374,0.675,3.307
			c0.338,0.934,0.813,1.674,1.424,2.221c0.611,0.547,1.432,0.821,2.462,0.821c0.998,0,1.811-0.273,2.438-0.821
			c0.628-0.547,1.11-1.295,1.449-2.245c0.337-0.95,0.562-2.052,0.675-3.307c0.112-1.255,0.169-2.607,0.169-4.055
			c0-1.448-0.057-2.807-0.169-4.079C166.491,160.008,166.266,158.906,165.929,157.972z"/>
		<path style="fill:#FFFFFF;" d="M243.514,140.333H104.672c-2.629,0-4.761,2.203-4.761,4.919v38.945
			c0,2.716,2.131,4.919,4.761,4.919h138.842c2.63,0,4.762-2.203,4.762-4.919v-38.945
			C248.275,142.536,246.144,140.333,243.514,140.333z M170.008,177.016c-1.867,2.624-4.506,3.935-7.917,3.935
			c-3.508,0-6.188-1.311-8.038-3.935c-1.851-2.623-2.776-6.509-2.776-11.658c0-5.148,0.949-9.035,2.848-11.659
			c1.899-2.622,4.538-3.934,7.917-3.934c3.508,0,6.18,1.312,8.014,3.934c1.834,2.624,2.751,6.51,2.751,11.659
			C172.808,170.507,171.874,174.394,170.008,177.016z M183.139,173.251c1.126,1.689,2.783,2.535,4.973,2.535
			c0.354,0,0.739-0.016,1.158-0.048c0.418-0.032,0.804-0.08,1.158-0.145v-10.91h5.938v14.917c-0.708,0.258-1.811,0.547-3.307,0.869
			c-1.496,0.321-3.307,0.482-5.43,0.482c-1.867,0-3.549-0.331-5.045-0.989c-1.498-0.66-2.776-1.642-3.839-2.945
			c-1.062-1.303-1.883-2.928-2.462-4.875c-0.579-1.947-0.869-4.208-0.869-6.783c0-2.542,0.337-4.787,1.014-6.734
			c0.676-1.947,1.593-3.58,2.752-4.9c1.159-1.319,2.526-2.309,4.103-2.969c1.576-0.66,3.266-0.99,5.068-0.99
			c1.158,0,2.197,0.089,3.114,0.265c0.917,0.178,1.714,0.379,2.39,0.604c0.676,0.226,1.23,0.467,1.666,0.724
			c0.434,0.258,0.764,0.451,0.989,0.58l-1.546,4.731c-0.707-0.45-1.576-0.853-2.605-1.207c-1.031-0.354-2.093-0.531-3.187-0.531
			c-1.417,0-2.606,0.258-3.572,0.772c-0.966,0.515-1.763,1.231-2.39,2.148c-0.627,0.917-1.078,2.012-1.352,3.283
			c-0.273,1.272-0.41,2.679-0.41,4.224C181.449,168.93,182.012,171.562,183.139,173.251z"/>
	</g>
	<path id="EG_11_" style="fill:#FFFFFF;" d="M243.641,195.833H104.545c-2.634,0-4.77,2.237-4.77,4.997v39.564
		c0,2.76,2.136,4.997,4.77,4.997h139.095c2.635,0,4.77-2.237,4.77-4.997V200.83C248.41,198.07,246.275,195.833,243.641,195.833z
		 M172.177,235.625h-19.2v-30.356h18.136v5.002h-12.187v6.817h10.592v5.002h-10.592v8.533h13.251V235.625z M183.155,228.441
		c1.128,1.716,2.788,2.574,4.981,2.574c0.354,0,0.74-0.016,1.16-0.049c0.42-0.032,0.806-0.081,1.161-0.146v-11.084h5.948v15.154
		c-0.709,0.262-1.813,0.556-3.313,0.883c-1.499,0.326-3.313,0.49-5.441,0.49c-1.869,0-3.555-0.336-5.053-1.006
		c-1.5-0.67-2.781-1.668-3.845-2.992c-1.064-1.323-1.887-2.975-2.467-4.952c-0.581-1.979-0.87-4.274-0.87-6.891
		c0-2.583,0.338-4.863,1.016-6.842c0.677-1.978,1.596-3.637,2.757-4.978s2.531-2.346,4.111-3.017
		c1.579-0.67,3.271-1.005,5.078-1.005c1.16,0,2.2,0.09,3.119,0.27s1.717,0.385,2.394,0.612c0.677,0.229,1.233,0.476,1.669,0.736
		c0.435,0.263,0.766,0.458,0.991,0.588l-1.548,4.807c-0.709-0.458-1.58-0.866-2.611-1.226c-1.033-0.359-2.096-0.539-3.192-0.539
		c-1.419,0-2.612,0.262-3.579,0.783c-0.967,0.523-1.765,1.252-2.394,2.183c-0.628,0.933-1.08,2.044-1.354,3.335
		c-0.273,1.293-0.41,2.723-0.41,4.292C181.463,224.052,182.026,226.725,183.155,228.441z"/>
	<g id="Haus_24_">
		<g>
			<g>
				<path style="fill:#FFFFFF;" d="M251.845,247.323c-0.034,0.221,1.911,0.219-0.118,0.219c-1.248,0-2.495,0-3.743,0
					c-4.423,0-8.846,0-13.269,0c-14.202,0-28.403,0-42.605,0c-28.881,0-57.764,0-86.646,0c-2.957,0-5.914,0-8.871,0
					c-1.925,0,0.246-0.169,0.246,1.07c0-0.705,0-1.409,0-2.114c0-10.373,0-20.746,0-31.119c0-29.571,0-59.144,0-88.715
					c0-3.253,0-6.506,0-9.759c-0.826,1.439-1.651,2.878-2.477,4.317c16.27-10.881,32.54-21.762,48.81-32.643
					c-1.284,0.168-2.568,0.336-3.853,0.504c22.513,6.812,45.025,13.624,67.538,20.436c12.697,3.842,25.396,7.685,38.093,11.526
					c2.205,0.667,4.41,1.334,6.615,2.001c0.012,0.004,0.101-1.634,0.101,0.295c0,1.441,0,2.882,0,4.324c0,40.329,0,80.658,0,120.987
					c0,6.448,10,6.448,10,0c0-22.752,0-45.505,0-68.257c0-14.604,0-29.209,0-43.814c0-7.245,2.557-21.508-7.432-23.174
					c-7.365-1.229-14.902-4.509-22.032-6.667c-15.169-4.59-30.337-9.18-45.506-13.77c-12.698-3.842-25.396-7.685-38.093-11.526
					c-2.205-0.667-4.41-1.334-6.615-2.002c-3.545-1.072-8.092,3.329-10.733,5.096c-12.252,8.194-24.505,16.388-36.758,24.583
					c-2.774,1.855-7.658,4.032-7.658,7.873c0,2.356,0,4.713,0,7.069c0,28.944,0,57.888,0,86.833c0,11.332,0,22.664,0,33.996
					c0,3.298-0.321,6.996,2.19,9.594c2.778,2.873,5.862,3.057,9.465,3.057c25.586,0,51.172,0,76.758,0c18.905,0,37.809,0,56.714,0
					c5.697,0,11.395,0,17.093,0c5.491,0,11.367-0.757,12.428-7.561C262.471,243.675,252.836,240.967,251.845,247.323z"/>
			</g>
		</g>
		<g>
			<line style="fill:#FFFFFF;" x1="101.218" y1="192.371" x2="248.237" y2="192.371"/>
			<g>
				<path style="fill:#FFFFFF;" d="M101.218,193.871c47.763,0,95.526,0,143.289,0c1.244,0,2.487,0,3.73,0c1.935,0,1.935-3,0-3
					c-47.763,0-95.526,0-143.29,0c-1.243,0-2.487,0-3.73,0C99.283,190.871,99.283,193.871,101.218,193.871L101.218,193.871z"/>
			</g>
		</g>
		<g>
			<line style="fill:#FFFFFF;" x1="101.218" y1="137.553" x2="248.237" y2="137.553"/>
			<g>
				<path style="fill:#FFFFFF;" d="M101.218,139.053c47.763,0,95.526,0,143.289,0c1.244,0,2.487,0,3.73,0c1.935,0,1.935-3,0-3
					c-47.763,0-95.526,0-143.29,0c-1.243,0-2.487,0-3.73,0C99.283,136.053,99.283,139.053,101.218,139.053L101.218,139.053z"/>
			</g>
		</g>
		<g>
			<g>
				<path style="fill:#FFFFFF;" d="M77.606,132.183c26.285-17.613,52.57-35.226,78.855-52.838c5.327-3.569,0.327-12.236-5.047-8.635
					c-26.285,17.613-52.57,35.226-78.855,52.838C67.232,127.117,72.232,135.784,77.606,132.183L77.606,132.183z"/>
			</g>
		</g>
		<g>
			<g>
				<path style="fill:#FFFFFF;" d="M143.681,90.22c45.313,13.466,90.625,26.932,135.938,40.398c0.805,0.239,1.609,0.478,2.414,0.717
					c6.197,1.842,8.824-7.81,2.658-9.643c-45.313-13.466-90.625-26.932-135.938-40.398c-0.805-0.239-1.61-0.478-2.415-0.717
					C140.142,78.736,137.514,88.388,143.681,90.22L143.681,90.22z"/>
			</g>
		</g>
	</g>
	<g id="DG_18_">
		<path style="fill:#FFFFFF;" d="M141.446,109.76c-0.457-0.881-1.08-1.588-1.871-2.121c-0.791-0.532-1.81-0.798-3.056-0.798
			c-0.244,0-0.518,0.008-0.821,0.023c-0.305,0.016-0.578,0.053-0.821,0.114v18.977c0.152,0.03,0.319,0.045,0.501,0.045
			c0.183,0,0.35,0,0.502,0c1.277,0,2.349-0.243,3.216-0.73c0.866-0.486,1.565-1.155,2.098-2.007
			c0.532-0.851,0.913-1.862,1.141-3.033s0.342-2.456,0.342-3.855c0-1.216-0.091-2.402-0.273-3.559
			C142.222,111.661,141.902,110.643,141.446,109.76z"/>
		<path style="fill:#FFFFFF;" d="M244.13,122.813c0,0-97.925-29.367-99.308-29.78c-1.738-0.52-3.973-0.219-4.746,0.3
			c-0.904,0.607-35.364,23.479-35.364,23.479c-4.802,3.201-4.802,3.35-4.802,6.002v6.803c0,2.651,2.15,4.802,4.802,4.802H244.13
			c2.651,0,4.802-2.15,4.802-4.802v-2.001C248.932,124.964,247.537,124.137,244.13,122.813z M147.399,123.058
			c-0.655,1.84-1.559,3.337-2.714,4.493c-1.156,1.157-2.532,2.001-4.128,2.532c-1.597,0.532-3.353,0.798-5.269,0.798
			c-1.003,0-1.984-0.054-2.942-0.16c-0.958-0.107-1.985-0.281-3.08-0.525v-27.552c1.278-0.274,2.479-0.457,3.604-0.548
			c1.125-0.091,2.174-0.137,3.147-0.137c1.854,0,3.55,0.273,5.086,0.821c1.535,0.548,2.835,1.407,3.9,2.578
			c1.064,1.171,1.893,2.662,2.486,4.471c0.593,1.81,0.89,3.991,0.89,6.546C148.38,118.991,148.053,121.218,147.399,123.058z
			 M158.142,123.833c1.064,1.597,2.63,2.395,4.699,2.395c0.334,0,0.699-0.015,1.095-0.046c0.395-0.03,0.76-0.075,1.095-0.137v-10.31
			h5.611v14.096c-0.669,0.244-1.711,0.517-3.125,0.82c-1.415,0.304-3.125,0.457-5.132,0.457c-1.765,0-3.353-0.313-4.768-0.936
			c-1.414-0.622-2.623-1.551-3.626-2.782s-1.779-2.767-2.327-4.607c-0.547-1.84-0.821-3.976-0.821-6.409
			c0-2.402,0.319-4.523,0.958-6.364c0.639-1.839,1.505-3.383,2.601-4.63c1.094-1.247,2.387-2.182,3.877-2.806
			c1.489-0.623,3.086-0.936,4.79-0.936c1.095,0,2.075,0.084,2.942,0.251c0.866,0.167,1.619,0.358,2.258,0.57
			c0.639,0.213,1.164,0.441,1.574,0.685c0.411,0.244,0.722,0.426,0.935,0.547l-1.459,4.471c-0.669-0.425-1.491-0.805-2.464-1.14
			c-0.974-0.334-1.977-0.501-3.01-0.501c-1.339,0-2.463,0.243-3.376,0.729c-0.912,0.487-1.665,1.163-2.258,2.03
			c-0.593,0.867-1.019,1.901-1.277,3.102c-0.259,1.202-0.388,2.532-0.388,3.992C156.545,119.751,157.077,122.237,158.142,123.833z"
			/>
	</g>
	<g id="Erde_6_">
		<g>
			<g>
				<path style="fill:#FFFFFF;" d="M265.667,250.592c8.264,0,16.527,0,24.791,0c1.935,0,1.935-3,0-3c-8.264,0-16.527,0-24.791,0
					C263.732,247.592,263.732,250.592,265.667,250.592L265.667,250.592z"/>
			</g>
		</g>
		<g>
			<g>
				<path style="fill:#FFFFFF;" d="M283.391,281.786c1.531,0,3.063,0,4.595,0c1.908,0,3.5-1.592,3.5-3.5s-1.592-3.5-3.5-3.5
					c-1.531,0-3.063,0-4.595,0c-1.908,0-3.5,1.592-3.5,3.5S281.482,281.786,283.391,281.786L283.391,281.786z"/>
			</g>
		</g>
		<g>
			<g>
				<path style="fill:#FFFFFF;" d="M256.666,291.786c5.333,0,10.667,0,16,0c4.514,0,4.514-7,0-7c-5.333,0-10.667,0-16,0
					C252.152,284.786,252.152,291.786,256.666,291.786L256.666,291.786z"/>
			</g>
		</g>
		<g>
			<g>
				<path style="fill:#FFFFFF;" d="M268.25,285.786c2,0,4,0,6,0c1.908,0,3.5-1.592,3.5-3.5s-1.592-3.5-3.5-3.5c-2,0-4,0-6,0
					c-1.908,0-3.5,1.592-3.5,3.5S266.342,285.786,268.25,285.786L268.25,285.786z"/>
			</g>
		</g>
		<g>
			<g>
				<path style="fill:#FFFFFF;" d="M286.584,291.786c0.667,0,1.333,0,2,0c1.908,0,3.5-1.592,3.5-3.5s-1.592-3.5-3.5-3.5
					c-0.667,0-1.333,0-2,0c-1.908,0-3.5,1.592-3.5,3.5S284.676,291.786,286.584,291.786L286.584,291.786z"/>
			</g>
		</g>
		<g>
			<g>
				<path style="fill:#FFFFFF;" d="M267.666,271.474c-2,0-4,0-6,0c-1.908,0-3.5,1.592-3.5,3.5s1.592,3.5,3.5,3.5c2,0,4,0,6,0
					c1.908,0,3.5-1.592,3.5-3.5S269.574,271.474,267.666,271.474L267.666,271.474z"/>
			</g>
		</g>
		<g>
			<g>
				<path style="fill:#FFFFFF;" d="M265.666,257.453c-0.667,0-1.333,0-2,0c-1.908,0-3.5,1.592-3.5,3.5s1.592,3.5,3.5,3.5
					c0.667,0,1.333,0,2,0c1.908,0,3.5-1.592,3.5-3.5S267.574,257.453,265.666,257.453L265.666,257.453z"/>
			</g>
		</g>
		<g>
			<g>
				<path style="fill:#FFFFFF;" d="M288.834,257.953c-5.333,0-10.667,0-16,0c-4.514,0-4.514,7,0,7c5.333,0,10.667,0,16,0
					C293.348,264.953,293.348,257.953,288.834,257.953L288.834,257.953z"/>
			</g>
		</g>
		<g>
			<g>
				<path style="fill:#FFFFFF;" d="M284.834,265.953c-5.083,0-10.167,0-15.25,0c-4.514,0-4.514,7,0,7c5.083,0,10.167,0,15.25,0
					C289.348,272.953,289.348,265.953,284.834,265.953L284.834,265.953z"/>
			</g>
		</g>
		<g>
			<g>
				<path style="fill:#FFFFFF;" d="M288.168,251.953c-2,0-4,0-6,0c-1.908,0-3.5,1.592-3.5,3.5s1.592,3.5,3.5,3.5c2,0,4,0,6,0
					c1.908,0,3.5-1.592,3.5-3.5S290.076,251.953,288.168,251.953L288.168,251.953z"/>
			</g>
		</g>
		<g>
			<g>
				<path style="fill:#FFFFFF;" d="M273.834,249.953c-2,0-4,0-6,0c-1.908,0-3.5,1.592-3.5,3.5s1.592,3.5,3.5,3.5c2,0,4,0,6,0
					c1.908,0,3.5-1.592,3.5-3.5S275.742,249.953,273.834,249.953L273.834,249.953z"/>
			</g>
		</g>
		<g>
			<g>
				<path style="fill:#FFFFFF;" d="M256.104,263.89c-2,0-4,0-6,0c-1.908,0-3.5,1.592-3.5,3.5s1.592,3.5,3.5,3.5c2,0,4,0,6,0
					c1.908,0,3.5-1.592,3.5-3.5S258.012,263.89,256.104,263.89L256.104,263.89z"/>
			</g>
		</g>
		<g>
			<g>
				<path style="fill:#FFFFFF;" d="M287.833,269.953c-0.222,0-0.443,0-0.665,0c-1.908,0-3.5,1.592-3.5,3.5s1.592,3.5,3.5,3.5
					c0.222,0,0.443,0,0.665,0c1.908,0,3.5-1.592,3.5-3.5S289.741,269.953,287.833,269.953L287.833,269.953z"/>
			</g>
		</g>
		<g>
			<g>
				<path style="fill:#FFFFFF;" d="M73.75,282.89c2.337,0,4.673,0,7.01,0c4.514,0,4.514-7,0-7c-2.337,0-4.673,0-7.01,0
					C69.235,275.89,69.235,282.89,73.75,282.89L73.75,282.89z"/>
			</g>
		</g>
		<g>
			<g>
				<path style="fill:#FFFFFF;" d="M100.271,279.89c2.581,0,5.161,0,7.741,0c4.514,0,4.514-7,0-7c-2.581,0-5.161,0-7.741,0
					C95.756,272.89,95.756,279.89,100.271,279.89L100.271,279.89z"/>
			</g>
		</g>
		<g>
			<g>
				<path style="fill:#FFFFFF;" d="M96.834,268.89c5.083,0,10.167,0,15.25,0c4.514,0,4.514-7,0-7c-5.083,0-10.167,0-15.25,0
					C92.32,261.89,92.32,268.89,96.834,268.89L96.834,268.89z"/>
			</g>
		</g>
		<g>
			<g>
				<path style="fill:#FFFFFF;" d="M122.069,291.786c2,0,4,0,6,0c1.908,0,3.5-1.592,3.5-3.5s-1.592-3.5-3.5-3.5c-2,0-4,0-6,0
					c-1.908,0-3.5,1.592-3.5,3.5S120.161,291.786,122.069,291.786L122.069,291.786z"/>
			</g>
		</g>
		<g>
			<g>
				<path style="fill:#FFFFFF;" d="M246.238,284.277c-3,0-6.001,0-9.001,0c-4.514,0-4.514,7,0,7c3,0,6.001,0,9.001,0
					C250.752,291.277,250.752,284.277,246.238,284.277L246.238,284.277z"/>
			</g>
		</g>
		<g>
			<g>
				<path style="fill:#FFFFFF;" d="M259.237,268.277c-5.333,0-10.667,0-16,0c-4.514,0-4.514,7,0,7c5.333,0,10.667,0,16,0
					C263.751,275.277,263.751,268.277,259.237,268.277L259.237,268.277z"/>
			</g>
		</g>
		<g>
			<g>
				<path style="fill:#FFFFFF;" d="M79.874,251.578c-2,0-4,0-6,0c-1.908,0-3.5,1.592-3.5,3.5s1.592,3.5,3.5,3.5c2,0,4,0,6,0
					c1.908,0,3.5-1.592,3.5-3.5S81.782,251.578,79.874,251.578L79.874,251.578z"/>
			</g>
		</g>
		<g>
			<g>
				<path style="fill:#FFFFFF;" d="M240.487,260.536c-1.083,0-2.167,0-3.25,0c-1.908,0-3.5,1.592-3.5,3.5s1.592,3.5,3.5,3.5
					c1.083,0,2.167,0,3.25,0c1.908,0,3.5-1.592,3.5-3.5S242.396,260.536,240.487,260.536L240.487,260.536z"/>
			</g>
		</g>
		<g>
			<g>
				<path style="fill:#FFFFFF;" d="M76.583,272.953c0.667,0,1.333,0,2,0c1.908,0,3.5-1.592,3.5-3.5s-1.592-3.5-3.5-3.5
					c-0.667,0-1.333,0-2,0c-1.908,0-3.5,1.592-3.5,3.5S74.675,272.953,76.583,272.953L76.583,272.953z"/>
			</g>
		</g>
		<g>
			<g>
				<path style="fill:#FFFFFF;" d="M93.584,276.277c-0.667,0-1.333,0-2,0c-1.908,0-3.5,1.592-3.5,3.5s1.592,3.5,3.5,3.5
					c0.667,0,1.333,0,2,0c1.908,0,3.5-1.592,3.5-3.5S95.492,276.277,93.584,276.277L93.584,276.277z"/>
			</g>
		</g>
		<g>
			<g>
				<path style="fill:#FFFFFF;" d="M71.416,250.592c3.639,0,7.278,0,10.917,0c1.935,0,1.935-3,0-3c-3.639,0-7.278,0-10.917,0
					C69.481,247.592,69.481,250.592,71.416,250.592L71.416,250.592z"/>
			</g>
		</g>
		<g>
			<g>
				<path style="fill:#FFFFFF;" d="M196.164,284.786c-2,0-4,0-6,0c-1.908,0-3.5,1.592-3.5,3.5s1.592,3.5,3.5,3.5c2,0,4,0,6,0
					c1.908,0,3.5-1.592,3.5-3.5S198.072,284.786,196.164,284.786L196.164,284.786z"/>
			</g>
		</g>
		<g>
			<g>
				<path style="fill:#FFFFFF;" d="M87.833,263.89c-1.833,0-3.667,0-5.5,0c-1.908,0-3.5,1.592-3.5,3.5s1.592,3.5,3.5,3.5
					c1.833,0,3.667,0,5.5,0c1.908,0,3.5-1.592,3.5-3.5S89.741,263.89,87.833,263.89L87.833,263.89z"/>
			</g>
		</g>
		<g>
			<g>
				<path style="fill:#FFFFFF;" d="M172.5,266.953c3,0,6,0,9,0c4.514,0,4.514-7,0-7c-3,0-6,0-9,0
					C167.986,259.953,167.986,266.953,172.5,266.953L172.5,266.953z"/>
			</g>
		</g>
		<g>
			<g>
				<path style="fill:#FFFFFF;" d="M205.916,291.82c5.333,0,10.667,0,16,0c4.514,0,4.514-7,0-7c-5.333,0-10.667,0-16,0
					C201.402,284.82,201.402,291.82,205.916,291.82L205.916,291.82z"/>
			</g>
		</g>
		<g>
			<g>
				<path style="fill:#FFFFFF;" d="M221.375,277.729c2,0,4,0,6,0c1.908,0,3.5-1.592,3.5-3.5s-1.592-3.5-3.5-3.5c-2,0-4,0-6,0
					c-1.908,0-3.5,1.592-3.5,3.5S219.467,277.729,221.375,277.729L221.375,277.729z"/>
			</g>
		</g>
		<g>
			<g>
				<path style="fill:#FFFFFF;" d="M215.209,288.035c0.667,0,1.333,0,2,0c1.908,0,3.5-1.592,3.5-3.5s-1.592-3.5-3.5-3.5
					c-0.667,0-1.333,0-2,0c-1.908,0-3.5,1.592-3.5,3.5S213.301,288.035,215.209,288.035L215.209,288.035z"/>
			</g>
		</g>
		<g>
			<g>
				<path style="fill:#FFFFFF;" d="M213.75,264.584c-2,0-4,0-6,0c-1.908,0-3.5,1.592-3.5,3.5s1.592,3.5,3.5,3.5c2,0,4,0,6,0
					c1.908,0,3.5-1.592,3.5-3.5S215.658,264.584,213.75,264.584L213.75,264.584z"/>
			</g>
		</g>
		<g>
			<g>
				<path style="fill:#FFFFFF;" d="M222.834,260.751c-5.083,0-10.167,0-15.25,0c-4.514,0-4.514,7,0,7c5.083,0,10.167,0,15.25,0
					C227.348,267.751,227.348,260.751,222.834,260.751L222.834,260.751z"/>
			</g>
		</g>
		<g>
			<g>
				<path style="fill:#FFFFFF;" d="M233.834,278.584c-2,0-4,0-6,0c-1.908,0-3.5,1.592-3.5,3.5s1.592,3.5,3.5,3.5c2,0,4,0,6,0
					c1.908,0,3.5-1.592,3.5-3.5S235.742,278.584,233.834,278.584L233.834,278.584z"/>
			</g>
		</g>
		<g>
			<g>
				<path style="fill:#FFFFFF;" d="M135.882,271.917c-3,0-6,0-9,0c-4.514,0-4.514,7,0,7c3,0,6,0,9,0
					C140.396,278.917,140.396,271.917,135.882,271.917L135.882,271.917z"/>
			</g>
		</g>
		<g>
			<g>
				<path style="fill:#FFFFFF;" d="M152.736,260.549c-5.333,0-10.667,0-16,0c-4.514,0-4.514,7,0,7c5.333,0,10.667,0,16,0
					C157.25,267.549,157.25,260.549,152.736,260.549L152.736,260.549z"/>
			</g>
		</g>
		<g>
			<g>
				<path style="fill:#FFFFFF;" d="M152.402,271.786c-2,0-4,0-6,0c-1.908,0-3.5,1.592-3.5,3.5s1.592,3.5,3.5,3.5c2,0,4,0,6,0
					c1.908,0,3.5-1.592,3.5-3.5S154.31,271.786,152.402,271.786L152.402,271.786z"/>
			</g>
		</g>
		<g>
			<g>
				<path style="fill:#FFFFFF;" d="M139.069,265.786c-0.667,0-1.333,0-2,0c-1.908,0-3.5,1.592-3.5,3.5s1.592,3.5,3.5,3.5
					c0.667,0,1.333,0,2,0c1.908,0,3.5-1.592,3.5-3.5S140.977,265.786,139.069,265.786L139.069,265.786z"/>
			</g>
		</g>
		<g>
			<g>
				<path style="fill:#FFFFFF;" d="M144.902,291.786c2,0,4,0,6,0c1.908,0,3.5-1.592,3.5-3.5s-1.592-3.5-3.5-3.5c-2,0-4,0-6,0
					c-1.908,0-3.5,1.592-3.5,3.5S142.995,291.786,144.902,291.786L144.902,291.786z"/>
			</g>
		</g>
		<g>
			<g>
				<path style="fill:#FFFFFF;" d="M85.819,291.619c5.083,0,10.167,0,15.25,0c4.514,0,4.514-7,0-7c-5.083,0-10.167,0-15.25,0
					C81.305,284.619,81.305,291.619,85.819,291.619L85.819,291.619z"/>
			</g>
		</g>
		<g>
			<g>
				<path style="fill:#FFFFFF;" d="M124.569,271.786c2,0,4,0,6,0c1.908,0,3.5-1.592,3.5-3.5s-1.592-3.5-3.5-3.5c-2,0-4,0-6,0
					c-1.908,0-3.5,1.592-3.5,3.5S122.662,271.786,124.569,271.786L124.569,271.786z"/>
			</g>
		</g>
		<g>
			<g>
				<path style="fill:#FFFFFF;" d="M178.251,276.584c3,0,6.001,0,9.001,0c4.514,0,4.514-7,0-7c-3,0-6.001,0-9.001,0
					C173.737,269.584,173.737,276.584,178.251,276.584L178.251,276.584z"/>
			</g>
		</g>
		<g>
			<g>
				<path style="fill:#FFFFFF;" d="M159.584,291.82c5.333,0,10.667,0,16,0c4.514,0,4.514-7,0-7c-5.333,0-10.667,0-16,0
					C155.07,284.82,155.07,291.82,159.584,291.82L159.584,291.82z"/>
			</g>
		</g>
		<g>
			<g>
				<path style="fill:#FFFFFF;" d="M154.902,283.786c2,0,4,0,6,0c1.908,0,3.5-1.592,3.5-3.5s-1.592-3.5-3.5-3.5c-2,0-4,0-6,0
					c-1.908,0-3.5,1.592-3.5,3.5S152.995,283.786,154.902,283.786L154.902,283.786z"/>
			</g>
		</g>
		<g>
			<g>
				<path style="fill:#FFFFFF;" d="M173.251,287.584c0.667,0,1.333,0,2,0c1.908,0,3.5-1.592,3.5-3.5s-1.592-3.5-3.5-3.5
					c-0.667,0-1.333,0-2,0c-1.908,0-3.5,1.592-3.5,3.5S171.344,287.584,173.251,287.584L173.251,287.584z"/>
			</g>
		</g>
		<g>
			<g>
				<path style="fill:#FFFFFF;" d="M167.584,264.584c-3.722,0-7.444,0-11.166,0c-4.514,0-4.514,7,0,7c3.722,0,7.444,0,11.166,0
					C172.098,271.584,172.098,264.584,167.584,264.584L167.584,264.584z"/>
			</g>
		</g>
		<g>
			<g>
				<path style="fill:#FFFFFF;" d="M210.666,267.786c-3.902,0-7.806,0-11.708,0c-4.514,0-4.514,7,0,7c3.902,0,7.806,0,11.708,0
					C215.18,274.786,215.18,267.786,210.666,267.786L210.666,267.786z"/>
			</g>
		</g>
		<g>
			<g>
				<path style="fill:#FFFFFF;" d="M192.001,278.584c-2,0-4,0-6,0c-1.908,0-3.5,1.592-3.5,3.5s1.592,3.5,3.5,3.5c2,0,4,0,6,0
					c1.908,0,3.5-1.592,3.5-3.5S193.909,278.584,192.001,278.584L192.001,278.584z"/>
			</g>
		</g>
		<g>
			<g>
				<path style="fill:#FFFFFF;" d="M146.902,279.786c5.333,0,10.667,0,16,0c4.514,0,4.514-7,0-7c-5.333,0-10.667,0-16,0
					C142.388,272.786,142.388,279.786,146.902,279.786L146.902,279.786z"/>
			</g>
		</g>
		<g>
			<g>
				<path style="fill:#FFFFFF;" d="M118.012,275.203c-3,0-6,0-9,0c-4.514,0-4.514,7,0,7c3,0,6,0,9,0
					C122.526,282.203,122.526,275.203,118.012,275.203L118.012,275.203z"/>
			</g>
		</g>
		<g>
			<g>
				<path style="fill:#FFFFFF;" d="M123.636,260.536c-1.083,0-2.167,0-3.25,0c-1.908,0-3.5,1.592-3.5,3.5s1.592,3.5,3.5,3.5
					c1.083,0,2.167,0,3.25,0c1.908,0,3.5-1.592,3.5-3.5S125.544,260.536,123.636,260.536L123.636,260.536z"/>
			</g>
		</g>
		<g>
			<g>
				<path style="fill:#FFFFFF;" d="M99.584,265.167c-2,0-4,0-6,0c-1.908,0-3.5,1.592-3.5,3.5s1.592,3.5,3.5,3.5c2,0,4,0,6,0
					c1.908,0,3.5-1.592,3.5-3.5S101.492,265.167,99.584,265.167L99.584,265.167z"/>
			</g>
		</g>
		<g>
			<g>
				<path style="fill:#FFFFFF;" d="M87.26,281.035c-1.833,0-3.667,0-5.5,0c-1.908,0-3.5,1.592-3.5,3.5s1.592,3.5,3.5,3.5
					c1.833,0,3.667,0,5.5,0c1.908,0,3.5-1.592,3.5-3.5S89.168,281.035,87.26,281.035L87.26,281.035z"/>
			</g>
		</g>
		<g>
			<g>
				<path style="fill:#FFFFFF;" d="M189.416,270.89c5.083,0,10.167,0,15.25,0c4.514,0,4.514-7,0-7c-5.083,0-10.167,0-15.25,0
					C184.902,263.89,184.902,270.89,189.416,270.89L189.416,270.89z"/>
			</g>
		</g>
		<g>
			<g>
				<path style="fill:#FFFFFF;" d="M143.083,281.917c-0.667,0-1.333,0-2,0c-1.908,0-3.5,1.592-3.5,3.5s1.592,3.5,3.5,3.5
					c0.667,0,1.333,0,2,0c1.908,0,3.5-1.592,3.5-3.5S144.991,281.917,143.083,281.917L143.083,281.917z"/>
			</g>
		</g>
		<g>
			<g>
				<path style="fill:#FFFFFF;" d="M146.833,271.723c-0.667,0-1.333,0-2,0c-1.908,0-3.5,1.592-3.5,3.5s1.592,3.5,3.5,3.5
					c0.667,0,1.333,0,2,0c1.908,0,3.5-1.592,3.5-3.5S148.741,271.723,146.833,271.723L146.833,271.723z"/>
			</g>
		</g>
		<g>
			<g>
				<path style="fill:#FFFFFF;" d="M105.261,291.619c1.833,0,3.667,0,5.5,0c1.908,0,3.5-1.592,3.5-3.5s-1.592-3.5-3.5-3.5
					c-1.833,0-3.667,0-5.5,0c-1.908,0-3.5,1.592-3.5,3.5S103.354,291.619,105.261,291.619L105.261,291.619z"/>
			</g>
		</g>
		<g>
			<g>
				<path style="fill:#FFFFFF;" d="M73.332,290.667c0.667,0,1.333,0,2,0c1.908,0,3.5-1.592,3.5-3.5s-1.592-3.5-3.5-3.5
					c-0.667,0-1.333,0-2,0c-1.908,0-3.5,1.592-3.5,3.5S71.424,290.667,73.332,290.667L73.332,290.667z"/>
			</g>
		</g>
		<g>
			<g>
				<path style="fill:#FFFFFF;" d="M92.583,281.953c0.667,0,1.333,0,2,0c1.908,0,3.5-1.592,3.5-3.5s-1.592-3.5-3.5-3.5
					c-0.667,0-1.333,0-2,0c-1.908,0-3.5,1.592-3.5,3.5S90.675,281.953,92.583,281.953L92.583,281.953z"/>
			</g>
		</g>
		<g>
			<g>
				<path style="fill:#FFFFFF;" d="M103.833,272.89c-1.833,0-3.667,0-5.5,0c-1.908,0-3.5,1.592-3.5,3.5s1.592,3.5,3.5,3.5
					c1.833,0,3.667,0,5.5,0c1.908,0,3.5-1.592,3.5-3.5S105.741,272.89,103.833,272.89L103.833,272.89z"/>
			</g>
		</g>
		<g>
			<g>
				<path style="fill:#FFFFFF;" d="M250.834,283.292c0.667,0,1.333,0,2,0c1.908,0,3.5-1.592,3.5-3.5s-1.592-3.5-3.5-3.5
					c-0.667,0-1.333,0-2,0c-1.908,0-3.5,1.592-3.5,3.5S248.926,283.292,250.834,283.292L250.834,283.292z"/>
			</g>
		</g>
		<g>
			<g>
				<path style="fill:#FFFFFF;" d="M211.5,272.89c-3.722,0-7.444,0-11.166,0c-4.514,0-4.514,7,0,7c3.722,0,7.444,0,11.166,0
					C216.014,279.89,216.014,272.89,211.5,272.89L211.5,272.89z"/>
			</g>
		</g>
		<g>
			<g>
				<path style="fill:#FFFFFF;" d="M83.166,259.953c-3.278,0-6.556,0-9.833,0c-4.514,0-4.514,7,0,7c3.278,0,6.556,0,9.833,0
					C87.68,266.953,87.68,259.953,83.166,259.953L83.166,259.953z"/>
			</g>
		</g>
		<g>
			<g>
				<path style="fill:#FFFFFF;" d="M140.46,280.584c-3.722,0-7.444,0-11.166,0c-4.514,0-4.514,7,0,7c3.722,0,7.444,0,11.166,0
					C144.975,287.584,144.975,280.584,140.46,280.584L140.46,280.584z"/>
			</g>
		</g>
	</g>
</g>
<g id="Ebene_1">
</g>
</svg>
