<?xml version="1.0" encoding="iso-8859-1"?>
<!-- Generator: Adobe Illustrator 16.0.0, SVG Export Plug-In . SVG Version: 6.00 Build 0)  -->
<!DOCTYPE svg PUBLIC "-//W3C//DTD SVG 1.1//EN" "http://www.w3.org/Graphics/SVG/1.1/DTD/svg11.dtd">
<svg version="1.1" xmlns="http://www.w3.org/2000/svg" xmlns:xlink="http://www.w3.org/1999/xlink" x="0px" y="0px" width="361px"
	 height="361px" viewBox="0 0 361 361" style="enable-background:new 0 0 361 361;" xml:space="preserve">
<g id="control_x5F_reboot">
	<g>
		<path style="fill:none;stroke:#FFFFFF;stroke-width:10;stroke-miterlimit:10;" d="M175.835,157.738
			c0,10.04-8.14,18.18-18.18,18.18H93.014c-10.041,0-18.18-8.14-18.18-18.18V93.097c0-10.041,8.139-18.18,18.18-18.18h64.641
			c10.04,0,18.18,8.14,18.18,18.18V157.738z"/>
		<g>
			<g>
				<path style="fill:#FFFFFF;" d="M120.616,96.119c0,19.344,0,38.689,0,58.033c0,6.449,10,6.449,10,0c0-19.344,0-38.689,0-58.033
					C130.616,89.67,120.616,89.67,120.616,96.119L120.616,96.119z"/>
			</g>
		</g>
	</g>
	<g>
		<g>
			<g>
				<path style="fill:#FFFFFF;" d="M144.568,257.158c24.178,0,48.356,0,72.535,0.001c10.999,0,21.999,0,32.999,0
					c18.335,0,34.021-10.83,39.916-28.317c1.881-5.578,1.815-11.432,1.815-17.229c0-7.157,0-14.314,0-21.473
					c0-12.348,1.311-25.582-0.83-37.817c-3.433-19.622-21.957-32.187-41.028-32.187c-13.891,0-27.781,0-41.671,0
					c-2.38,0-4.759,0-7.138,0c-6.448,0-6.448,10,0,10c12.238,0,24.477,0,36.715,0c4.541,0,9.083,0,13.624,0
					c10.862,0,20.577,5.818,26.19,15.009c6.59,10.788,4.138,26.959,4.138,39.04c0,7.764,0,15.527,0,23.291
					c0,4.426,0.356,9.11-0.241,13.514c-2.265,16.698-16.785,26.171-32.673,26.171c-11.552,0-23.104,0-34.656,0
					c-23.231-0.001-46.463-0.001-69.695-0.001C138.119,247.158,138.119,257.158,144.568,257.158L144.568,257.158z"/>
			</g>
		</g>
		<g>
			<g>
				<path style="fill:#FFFFFF;" d="M147.091,281.85c-14.832-11.336-29.664-22.673-44.496-34.009c0,2.878,0,5.757,0,8.635
					c14.832-11.336,29.664-22.672,44.496-34.008c-2.508-1.439-5.016-2.878-7.523-4.317c0,22.672,0,45.345,0,68.017
					c0,6.448,10,6.448,10,0c0-22.672,0-45.345,0-68.017c0-3.436-4.397-6.707-7.523-4.317
					c-14.832,11.336-29.664,22.672-44.496,34.008c-3.178,2.429-3.178,6.206,0,8.635c14.832,11.336,29.664,22.673,44.496,34.009
					C147.17,294.402,152.141,285.709,147.091,281.85z"/>
			</g>
		</g>
	</g>
</g>
<g id="Ebene_1">
</g>
</svg>
