<?xml version="1.0" encoding="iso-8859-1"?>
<!-- Generator: Adobe Illustrator 16.0.0, SVG Export Plug-In . SVG Version: 6.00 Build 0)  -->
<!DOCTYPE svg PUBLIC "-//W3C//DTD SVG 1.1 Tiny//EN" "http://www.w3.org/Graphics/SVG/1.1/DTD/svg11-tiny.dtd">
<svg version="1.1" baseProfile="tiny" id="control_x5F_arrow_x5F_down"
	 xmlns="http://www.w3.org/2000/svg" xmlns:xlink="http://www.w3.org/1999/xlink" x="0px" y="0px" width="361px" height="361px"
	 viewBox="0 0 361 361" xml:space="preserve">
<path fill="none" stroke="#FFFFFF" stroke-width="10" stroke-miterlimit="10" d="M127.381,183.709c-2.929,0-5.303-0.741-5.303-1.654
	v-28.69c0-0.914,2.374-1.655,5.303-1.655h103.396c2.928,0,5.302,0.741,5.302,1.655v28.69c0,0.913-2.374,1.654-5.302,1.654H127.381z"
	/>
<g>
	<path fill="#FFFFFF" d="M254.326,181.895c-26.75,35-53.501,70-80.252,105c2.878,0,5.756,0,8.635,0c-26.75-35-53.5-70-80.251-105
		c-1.439,2.508-2.878,5.016-4.317,7.523c49.382,0,98.765,0,148.147,0c4.119,0,8.237,0,12.355,0c6.449,0,6.449-10,0-10
		c-49.382,0-98.765,0-148.147,0c-4.119,0-8.237,0-12.355,0c-3.435,0-6.707,4.397-4.317,7.523c26.75,35,53.5,70,80.251,105
		c2.429,3.178,6.206,3.178,8.635,0c26.75-35,53.501-70,80.252-105C266.878,181.816,258.185,176.845,254.326,181.895z"/>
</g>
</svg>
