<?xml version="1.0" encoding="iso-8859-1"?>
<!-- Generator: Adobe Illustrator 16.0.0, SVG Export Plug-In . SVG Version: 6.00 Build 0)  -->
<!DOCTYPE svg PUBLIC "-//W3C//DTD SVG 1.1//EN" "http://www.w3.org/Graphics/SVG/1.1/DTD/svg11.dtd">
<svg version="1.1" xmlns="http://www.w3.org/2000/svg" xmlns:xlink="http://www.w3.org/1999/xlink" x="0px" y="0px" width="361px"
	 height="361px" viewBox="0 0 361 361" style="enable-background:new 0 0 361 361;" xml:space="preserve">
<g id="control_x5F_arrow_x5F_leftward">
	<g>
		<g>
			<g>
				<path style="fill:#FFFFFF;" d="M175.408,232.427c0.21,4.182,1.284,10.306,6.721,10.306c2.935,0,5.869,0,8.804,0
					c7.383,0,15.897,1.506,16.407-8.629c0.434-8.597,0.085-17.28,0.085-25.885c0-26.212,0.001-52.424,0.001-78.637
					c0-6.867-2.542-10.91-9.4-10.91c-3.607,0-7.215,0-10.822,0c-2.81,0-5.621-0.371-8.186,0.954
					c-4.201,2.169-3.609,8.632-3.609,12.768c0,5.013,0,10.027,0,15.04c0,27.548,0,55.095,0,82.643
					C175.408,230.86,175.408,231.644,175.408,232.427c0,6.448,10,6.448,10,0c0-24.343,0-48.686,0-73.029c0-9.992,0-19.983,0-29.975
					c0-0.149,0-0.298,0-0.447c-0.001-3.903,0.072-0.303-3.089-0.303c0.407,0,0.814,0,1.222,0c3.731,0,7.464,0,11.196,0
					c1.518,0,3.036,0,4.555,0c0.407,0,0.814,0,1.222,0c-2.804,0-3.287-3.623-3.088,0.304c0.034,0.675,0,1.36,0,2.036
					c0,23.664,0,47.329-0.001,70.993c0,9.462,0,18.924,0,28.387c0,0.661,0,1.323,0,1.984c0,3.972-0.132,0.356,3.089,0.356
					c-1.076,0-2.153,0-3.23,0c-3.36,0-6.721,0-10.081,0c-1.221,0-2.441,0-3.662,0c-0.407,0-0.814,0-1.222,0
					c2.807,0,3.288,3.623,3.09-0.306C185.085,226.01,175.083,225.979,175.408,232.427z"/>
			</g>
		</g>
		<g>
			<g>
				<path style="fill:#FFFFFF;" d="M177.175,96.085c-35.019,26.765-70.037,53.53-105.055,80.294c-3.178,2.429-3.178,6.206,0,8.635
					c35.018,26.765,70.037,53.528,105.055,80.293c3.126,2.39,7.524-0.882,7.524-4.317c-0.001-49.408-0.001-98.817-0.001-148.226
					c0-4.121,0-8.241,0-12.362c0-6.449-10-6.449-10,0c0,49.409,0,98.817,0,148.225c0,4.121,0,8.241,0,12.362
					c2.508-1.439,5.016-2.878,7.524-4.317c-35.019-26.765-70.037-53.528-105.056-80.293c0,2.878,0,5.757,0,8.635
					c35.019-26.765,70.037-53.53,105.055-80.294C187.271,100.86,182.3,92.168,177.175,96.085z"/>
			</g>
		</g>
		<g>
			<g>
				<path style="fill:#FFFFFF;" d="M218.312,232.427c0.211,4.182,1.284,10.306,6.721,10.306c2.935,0,5.869,0,8.804,0
					c7.383,0,15.896,1.506,16.407-8.629c0.433-8.597,0.084-17.28,0.084-25.885c0-26.212,0.001-52.424,0.001-78.637
					c0-6.867-2.541-10.91-9.399-10.91c-3.608,0-7.216,0-10.823,0c-2.808,0-5.622-0.372-8.185,0.954
					c-4.2,2.172-3.61,8.631-3.61,12.768c0,5.013,0,10.027,0,15.04c0,27.548,0.001,55.095,0.001,82.643
					C218.312,230.86,218.312,231.644,218.312,232.427c0,6.448,10,6.448,10,0c0-24.343,0-48.686-0.001-73.029
					c0-9.992,0-19.983,0-29.975c0-0.149,0-0.298,0-0.447c0-3.903,0.075-0.303-3.089-0.303c0.407,0,0.814,0,1.222,0
					c3.732,0,7.464,0,11.196,0c1.519,0,3.037,0,4.556,0c0.407,0,0.814,0,1.222,0c-2.803,0-3.287-3.623-3.089,0.304
					c0.034,0.675,0,1.36,0,2.036c0,23.664,0,47.329-0.001,70.993c0,9.462,0,18.924,0,28.387c0,0.661,0,1.323,0,1.984
					c0,3.972-0.13,0.356,3.09,0.356c-1.076,0-2.153,0-3.23,0c-3.36,0-6.721,0-10.081,0c-1.221,0-2.441,0-3.662,0
					c-0.407,0-0.814,0-1.222,0c2.808,0,3.288,3.624,3.09-0.306C227.988,226.01,217.986,225.979,218.312,232.427z"/>
			</g>
		</g>
		<g>
			<g>
				<path style="fill:#FFFFFF;" d="M260.036,232.422c0.211,4.183,1.286,10.305,6.723,10.305c2.935,0,5.868,0,8.803,0
					c7.383,0,15.896,1.506,16.406-8.628c0.434-8.597,0.085-17.28,0.085-25.885c0.001-26.212,0.001-52.424,0.002-78.637
					c0-6.868-2.54-10.911-9.4-10.911c-3.607,0-7.215,0-10.822,0c-2.811,0-5.621-0.37-8.187,0.954
					c-4.201,2.168-3.609,8.634-3.609,12.769c0,5.013,0,10.027,0,15.04c0,27.548,0,55.095,0,82.643
					C260.036,230.855,260.036,231.639,260.036,232.422c0,6.448,10,6.448,10,0c0-24.343,0-48.686,0-73.029c0-9.992,0-19.983,0-29.975
					c0-0.149,0-0.298,0-0.447c0-3.903,0.072-0.304-3.088-0.304c0.407,0,0.814,0,1.222,0c3.731,0,7.464,0,11.195,0
					c1.519,0,3.037,0,4.556,0c0.407,0,0.814,0,1.222,0c-2.803,0-3.285-3.623-3.088,0.305c0.034,0.675,0,1.36,0,2.036
					c0,23.664-0.001,47.329-0.001,70.993c-0.001,9.462-0.001,18.924-0.001,28.387c0,0.661,0,1.323,0,1.984
					c0,3.971-0.131,0.355,3.09,0.355c-1.076,0-2.153,0-3.229,0c-3.36,0-6.721,0-10.081,0c-1.221,0-2.441,0-3.662,0
					c-0.407,0-0.814,0-1.222,0c2.806,0,3.286,3.623,3.088-0.305C269.712,226.005,259.711,225.974,260.036,232.422z"/>
			</g>
		</g>
	</g>
</g>
<g id="Ebene_1">
</g>
</svg>
