<?xml version="1.0" encoding="iso-8859-1"?>
<!-- Generator: Adobe Illustrator 16.0.0, SVG Export Plug-In . SVG Version: 6.00 Build 0)  -->
<!DOCTYPE svg PUBLIC "-//W3C//DTD SVG 1.1//EN" "http://www.w3.org/Graphics/SVG/1.1/DTD/svg11.dtd">
<svg version="1.1" xmlns="http://www.w3.org/2000/svg" xmlns:xlink="http://www.w3.org/1999/xlink" x="0px" y="0px" width="361px"
	 height="361px" viewBox="0 0 361 361" style="enable-background:new 0 0 361 361;" xml:space="preserve">
<g id="control_x5F_ok">
	<g>
		<g>
			<path style="fill:#FFFFFF;" d="M263.592,237.195c-0.254,11.588-7.394,21.571-18.427,25.297
				c-3.953,1.335-7.983,1.266-12.072,1.266c-12.303,0-24.605,0-36.909,0c-23.792,0-47.584,0-71.376,0
				c-11.548,0-21.632-7.571-25.297-18.426c-1.334-3.954-1.265-7.984-1.265-12.073c0-12.303,0-24.606,0-36.909
				c0-23.792,0-47.584,0-71.377c0-11.548,7.571-21.632,18.426-25.297c3.954-1.335,7.984-1.266,12.073-1.266
				c12.303,0,24.606,0,36.909,0c23.792,0,47.585,0,71.377,0c11.548,0,21.632,7.572,25.297,18.426
				c1.335,3.954,1.266,7.984,1.266,12.073c0,12.303,0,24.606,0,36.909C263.592,189.61,263.592,213.403,263.592,237.195
				c0,6.448,10,6.448,10,0c0-23.792,0-47.585,0-71.377c0-12.303,0-24.606,0-36.909c0-15.611-6.131-29.773-20.843-36.934
				c-9.375-4.563-20.073-3.565-30.189-3.565c-15.042,0-30.084,0-45.125,0c-14.228,0-28.456,0-42.684,0c-3.176,0-6.353,0-9.528,0
				c-8.913,0-16.864,3.087-23.837,8.516c-11.256,8.764-13.14,22.028-13.14,35.198c0,13.507,0,27.015,0,40.522
				c0,15.484,0,30.967,0,46.451c0,9.007-0.909,18.776,1.247,27.602c4.215,17.247,20.607,27.06,37.498,27.06
				c11.303,0,22.607,0,33.91,0c25.28,0,50.56,0,75.84,0c20.338,0,36.411-16.445,36.852-36.563
				C273.733,230.743,263.732,230.757,263.592,237.195z"/>
		</g>
	</g>
	<g>
		<path style="fill:#FFFFFF;" d="M109.445,178.937c0-6.407,0.953-12.059,2.862-16.956c1.907-4.896,4.499-8.981,7.776-12.258
			c3.275-3.275,7.091-5.741,11.448-7.398c4.355-1.656,8.981-2.484,13.878-2.484c4.823,0,9.377,0.828,13.662,2.484
			c4.283,1.657,8.046,4.123,11.286,7.398c3.24,3.277,5.813,7.362,7.722,12.258c1.907,4.897,2.862,10.549,2.862,16.956
			c0,6.409-0.955,12.061-2.862,16.956c-1.909,4.897-4.482,8.982-7.722,12.258c-3.24,3.277-7.003,5.743-11.286,7.398
			c-4.285,1.656-8.839,2.484-13.662,2.484c-4.897,0-9.522-0.828-13.878-2.484c-4.357-1.655-8.173-4.121-11.448-7.398
			c-3.277-3.275-5.869-7.36-7.776-12.258C110.398,190.998,109.445,185.346,109.445,178.937z M120.46,178.937
			c0,4.536,0.576,8.659,1.728,12.366c1.151,3.709,2.79,6.858,4.914,9.45c2.123,2.593,4.715,4.591,7.776,5.994
			c3.059,1.403,6.497,2.106,10.314,2.106c3.815,0,7.236-0.703,10.26-2.106s5.598-3.401,7.722-5.994
			c2.123-2.592,3.761-5.741,4.914-9.45c1.151-3.707,1.728-7.83,1.728-12.366c0-4.536-0.577-8.657-1.728-12.366
			c-1.153-3.708-2.792-6.858-4.914-9.45c-2.125-2.592-4.698-4.59-7.722-5.994c-3.024-1.404-6.444-2.106-10.26-2.106
			c-3.817,0-7.255,0.702-10.314,2.106c-3.062,1.404-5.653,3.402-7.776,5.994c-2.125,2.592-3.763,5.743-4.914,9.45
			C121.036,170.28,120.46,174.401,120.46,178.937z"/>
		<path style="fill:#FFFFFF;" d="M251.896,141.569c-2.232,2.449-4.752,5.167-7.561,8.154c-2.807,2.988-5.742,6.048-8.801,9.18
			c-3.062,3.132-6.103,6.21-9.127,9.234c-3.023,3.024-5.869,5.832-8.531,8.424c3.095,2.16,6.371,4.825,9.828,7.992
			c3.455,3.17,6.839,6.553,10.151,10.152c3.312,3.602,6.427,7.273,9.343,11.016c2.916,3.745,5.346,7.309,7.289,10.692h-12.312
			c-2.16-3.384-4.644-6.786-7.452-10.206c-2.809-3.419-5.777-6.695-8.91-9.828c-3.132-3.132-6.301-6.029-9.504-8.693
			c-3.205-2.664-6.318-4.932-9.342-6.805v35.532h-10.477v-74.844h10.477v33.048c2.52-2.376,5.292-5.058,8.316-8.046
			c3.023-2.987,6.01-5.994,8.963-9.018c2.952-3.024,5.741-5.921,8.371-8.694c2.627-2.771,4.841-5.201,6.642-7.29H251.896z"/>
	</g>
</g>
<g id="Ebene_1">
</g>
</svg>
