<?xml version="1.0" encoding="iso-8859-1"?>
<!-- Generator: Adobe Illustrator 16.0.0, SVG Export Plug-In . SVG Version: 6.00 Build 0)  -->
<!DOCTYPE svg PUBLIC "-//W3C//DTD SVG 1.1//EN" "http://www.w3.org/Graphics/SVG/1.1/DTD/svg11.dtd">
<svg version="1.1" xmlns="http://www.w3.org/2000/svg" xmlns:xlink="http://www.w3.org/1999/xlink" x="0px" y="0px" width="361px"
	 height="361px" viewBox="0 0 361 361" style="enable-background:new 0 0 361 361;" xml:space="preserve">
<g id="control_x5F_clear">
	<g>
		<g>
			<g>
				<path style="fill:#FFFFFF;" d="M187.066,221.706c28.319-41.017,56.639-82.033,84.958-123.05
					c4.19-6.069,8.38-12.138,12.57-18.207c5.504-7.972-7.529-15.41-12.99-7.5c-28.319,41.017-56.639,82.033-84.958,123.049
					c-4.19,6.069-8.381,12.138-12.571,18.207C168.572,222.178,181.604,229.616,187.066,221.706L187.066,221.706z"/>
			</g>
		</g>
		<g>
			<g>
				<path style="fill:#FFFFFF;" d="M184.32,211.461c-14.089-10.111-28.179-20.222-42.269-30.333
					c-3.326-2.387-8.353-0.532-10.245,2.745c-2.194,3.8-0.573,7.864,2.745,10.245c14.09,10.111,28.179,20.222,42.269,30.333
					c3.326,2.387,8.353,0.532,10.246-2.745C189.26,217.906,187.639,213.842,184.32,211.461L184.32,211.461z"/>
			</g>
		</g>
	</g>
	<g>
		<g>
			<path style="fill:#FFFFFF;" d="M263.507,133.845c0,24.444,0,48.888,0,73.331c0,9.563,0,19.126,0,28.689
				c0,16.498-13.553,26.766-29.058,26.766c-27.559,0-55.117,0-82.676,0c-8.955,0-17.91,0-26.865,0
				c-16.492,0-26.748-13.566-26.748-29.058c0-27.56,0-55.118,0-82.677c0-8.956,0-17.911,0-26.866c0-9.79,5.193-18.375,13.537-23.341
				c4.854-2.889,10.26-3.407,15.747-3.407c33.167,0,66.334,0,99.501,0c6.448,0,6.448-10,0-10c-24.443,0-48.887,0-73.33,0
				c-9.563,0-19.125,0-28.688,0c-20.058,0-36.766,16.568-36.766,36.667c0,24.713,0,49.426,0,74.14c0,11.717,0,23.434,0,35.151
				c0,16.891,8.372,31.115,24.499,37.339c8.607,3.321,19.604,2.051,28.674,2.051c15.32,0,30.641,0,45.962,0
				c13.81,0,27.619,0,41.429,0c2.705,0,5.41,0,8.116,0c10.016,0,19.373-4.135,26.416-11.178
				c8.525-8.525,10.251-19.637,10.251-31.047c0-11.524,0-23.048,0-34.571c0-20.664,0-41.327,0-61.99
				C273.507,127.396,263.507,127.396,263.507,133.845L263.507,133.845z"/>
		</g>
	</g>
</g>
<g id="Ebene_1">
</g>
</svg>
