<?xml version="1.0" encoding="iso-8859-1"?>
<!-- Generator: Adobe Illustrator 16.0.0, SVG Export Plug-In . SVG Version: 6.00 Build 0)  -->
<!DOCTYPE svg PUBLIC "-//W3C//DTD SVG 1.1//EN" "http://www.w3.org/Graphics/SVG/1.1/DTD/svg11.dtd">
<svg version="1.1" xmlns="http://www.w3.org/2000/svg" xmlns:xlink="http://www.w3.org/1999/xlink" x="0px" y="0px" width="361px"
	 height="361px" viewBox="0 0 361 361" style="enable-background:new 0 0 361 361;" xml:space="preserve">
<g id="control_x5F_cancel">
	<g>
		<g>
			<path style="fill:#FFFFFF;" d="M263.506,236.695c-0.254,11.588-7.393,21.571-18.426,25.297
				c-3.954,1.335-7.984,1.266-12.073,1.266c-12.303,0-24.605,0-36.908,0c-23.792,0-47.584,0-71.376,0
				c-11.548,0-21.632-7.571-25.297-18.426c-1.334-3.954-1.265-7.984-1.265-12.073c0-12.303,0-24.606,0-36.909
				c0-23.792,0-47.584,0-71.377c0-11.548,7.571-21.632,18.426-25.297c3.954-1.335,7.984-1.266,12.073-1.266
				c12.303,0,24.605,0,36.909,0c23.792,0,47.584,0,71.376,0c11.548,0,21.632,7.571,25.297,18.426
				c1.335,3.954,1.266,7.984,1.266,12.073c0,12.303,0,24.606,0,36.909C263.506,189.11,263.506,212.903,263.506,236.695
				c0,6.448,10,6.448,10,0c0-23.792,0-47.585,0-71.377c0-12.303,0-24.606,0-36.909c0-15.611-6.131-29.773-20.843-36.934
				c-9.375-4.563-20.072-3.565-30.189-3.565c-15.042,0-30.083,0-45.125,0c-14.228,0-28.456,0-42.684,0c-3.176,0-6.352,0-9.528,0
				c-8.913,0-16.864,3.087-23.837,8.516c-11.256,8.764-13.14,22.028-13.14,35.198c0,13.507,0,27.015,0,40.522
				c0,15.484,0,30.967,0,46.451c0,9.007-0.909,18.776,1.247,27.602c4.215,17.247,20.607,27.06,37.498,27.06
				c11.303,0,22.606,0,33.91,0c25.28,0,50.56,0,75.84,0c20.338,0,36.411-16.445,36.852-36.563
				C273.647,230.243,263.646,230.257,263.506,236.695z"/>
		</g>
	</g>
	<g>
		<g>
			<path style="fill:#FFFFFF;" d="M235.686,205.366c-9.648-9.648-19.297-19.297-28.945-28.946c0,2.357,0,4.714,0,7.071
				c7.682-7.681,15.362-15.361,23.043-23.042c3.093-3.093,6.998-6.193,8.817-10.254c3.817-8.52-1.858-14.646-7.429-20.216
				c-5.499-5.499-9.94-10.176-18.475-8.982c-4.897,0.685-8.825,5.813-12.123,9.11c-7.869,7.87-15.739,15.74-23.61,23.61
				c2.357,0,4.714,0,7.071,0c-7.681-7.681-15.361-15.362-23.042-23.043c-3.093-3.093-6.192-6.998-10.254-8.817
				c-8.52-3.817-14.646,1.858-20.216,7.429c-5.499,5.499-10.176,9.94-8.982,18.475c0.685,4.897,5.813,8.825,9.11,12.122
				c7.87,7.87,15.74,15.74,23.61,23.61c0-2.356,0-4.714,0-7.071c-7.681,7.681-15.362,15.362-23.043,23.042
				c-3.093,3.094-6.998,6.193-8.817,10.255c-3.817,8.52,1.858,14.646,7.429,20.217c5.499,5.498,9.94,10.176,18.475,8.982
				c4.896-0.686,8.825-5.813,12.122-9.11c7.87-7.87,15.74-15.74,23.61-23.611c-2.356,0-4.714,0-7.071,0
				c9.534,9.534,19.066,19.067,28.599,28.601c3.296,3.296,7.701,4.948,12.343,4.299c4.885-0.684,7.924-3.818,11.216-7.11
				c2.682-2.683,6.177-5.364,8.234-8.605C241.159,217.388,240.221,210.619,235.686,205.366c-4.221-4.89-11.262,2.216-7.07,7.07
				c4.248,4.922-6.106,12.019-9.184,15.096c-4.237,4.237-7.781-0.792-10.714-3.725c-8.228-8.228-16.455-16.455-24.683-24.683
				c-1.926-1.927-5.145-1.927-7.071,0c-6.43,6.431-12.861,12.861-19.292,19.292c-3.04,3.04-6.08,6.079-9.119,9.119
				c-4.279,4.279-7.977-0.995-10.96-3.979c-2.716-2.716-9.17-7.158-5.011-11.316c2.933-2.933,5.865-5.865,8.798-8.798
				c6.65-6.65,13.301-13.301,19.951-19.951c1.926-1.926,1.926-5.145,0-7.071c-6.431-6.43-12.861-12.861-19.292-19.292
				c-3.04-3.04-6.08-6.08-9.12-9.119c-4.279-4.279,0.996-7.977,3.98-10.96c2.716-2.716,7.158-9.17,11.316-5.011
				c2.933,2.933,5.865,5.865,8.798,8.798c6.65,6.65,13.301,13.301,19.951,19.951c1.926,1.926,5.145,1.926,7.071,0
				c6.431-6.431,12.861-12.861,19.292-19.292c3.04-3.04,6.079-6.08,9.119-9.12c4.279-4.279,7.977,0.996,10.961,3.98
				c2.716,2.716,9.169,7.158,5.011,11.316c-2.933,2.933-5.865,5.865-8.798,8.798c-6.65,6.65-13.301,13.301-19.95,19.951
				c-1.927,1.926-1.927,5.145,0,7.071c9.648,9.648,19.297,19.297,28.945,28.945C233.179,217.001,240.25,209.93,235.686,205.366z"/>
		</g>
	</g>
</g>
<g id="Ebene_1">
</g>
</svg>
