<?xml version="1.0" encoding="iso-8859-1"?>
<!-- Generator: Adobe Illustrator 16.0.0, SVG Export Plug-In . SVG Version: 6.00 Build 0)  -->
<!DOCTYPE svg PUBLIC "-//W3C//DTD SVG 1.1 Tiny//EN" "http://www.w3.org/Graphics/SVG/1.1/DTD/svg11-tiny.dtd">
<svg version="1.1" baseProfile="tiny" id="control_x5F_building_x5F_modern_x5F_s_x5F_dg"
	 xmlns="http://www.w3.org/2000/svg" xmlns:xlink="http://www.w3.org/1999/xlink" x="0px" y="0px" width="361px" height="361px"
	 viewBox="0 0 361 361" xml:space="preserve">
<g id="Haus_5_" display="none">
	<g display="inline">
		<g>
			<path fill="#FFFFFF" d="M175.405,82.779c27.878,21.144,55.757,42.288,83.636,63.431c0.841-3.106,1.682-6.211,2.523-9.317
				c-27.815,0-55.63,0-83.445,0c-6.449,0-6.449,10,0,10c27.815,0,55.63,0,83.445,0c5.403,0,6.252-6.489,2.523-9.317
				c-27.878-21.144-55.757-42.288-83.636-63.431C175.311,70.245,170.338,78.936,175.405,82.779L175.405,82.779z"/>
			<path fill="#FFFFFF" d="M263.937,137.575c-27.741-21.144-55.482-42.287-83.224-63.431c-1.253-0.956-3.793-0.956-5.047,0
				c-27.741,21.144-55.482,42.287-83.223,63.431c-3.717,2.833-2.888,9.317,2.523,9.317c49.712,0,99.424,0,149.136,0
				c5.77,0,11.541,0,17.311,0c6.449,0,6.449-10,0-10c-49.712,0-99.424,0-149.136,0c-5.77,0-11.541,0-17.311,0
				c0.841,3.106,1.683,6.211,2.523,9.317c27.741-21.144,55.482-42.287,83.223-63.431c-1.682,0-3.365,0-5.047,0
				c27.741,21.144,55.482,42.287,83.224,63.431C264.021,150.121,268.993,141.429,263.937,137.575z"/>
		</g>
		<g>
			<path fill="#FFFFFF" d="M242.005,284.518c0.119-0.612,2.896-0.431,0.289-0.431c-1.465,0-2.931,0-4.396,0
				c-5.081,0-10.162,0-15.243,0c-15.326,0-30.651,0-45.977,0c-15.068,0-30.137,0-45.206,0c-4.76,0-9.52,0-14.279,0
				c-1.186,0-2.373,0-3.559,0c-2.265,0,0.889,0.406,0.889,1.611c0-46.66,0-93.32,0-139.98c0-1.733-2.492,1.174-1.618,1.174
				c0.944,0,1.889,0,2.833,0c4.307,0,8.615,0,12.922,0c14.678,0,29.355,0,44.033,0c23.614,0,47.228,0,70.841,0
				c-0.56,0-1.708-2.943-1.708-1.021c0,1.164,0,2.328,0,3.492c0,4.483,0,8.967,0,13.45c0,14.579,0,29.158,0,43.736
				c0,25.761,0,51.522,0,77.283c0,0.671,0,1.342,0,2.014c0,6.449,10,6.449,10,0c0-46.471,0-92.942,0-139.413
				c0-9.78-8.202-9.541-15.322-9.541c-12.724,0-25.448,0-38.171,0c-27.419,0-54.837,0-82.256,0c-3.674,0-7.627-0.144-9.954,3.425
				c-1.817,2.788-1.6,5.566-1.6,8.683c0,10.969,0,21.939,0,32.908c0,30.062,0,60.123,0,90.184c0,6.926-2.398,19.894,6.804,21.815
				c2.144,0.448,4.523,0.179,6.69,0.179c4.976,0,9.951,0,14.927,0c30.401,0,60.802,0,91.203,0c5.257,0,10.513,0,15.77,0
				c5.179,0,10.496-0.578,11.731-6.911C252.877,280.877,243.24,278.192,242.005,284.518z"/>
		</g>
	</g>
	<g display="inline">
		<line fill="#FFFFFF" x1="117.002" y1="191.99" x2="239.472" y2="191.99"/>
		<g>
			<path fill="#FFFFFF" d="M117.002,193.49c40.823,0,81.646,0,122.47,0c1.935,0,1.935-3,0-3c-40.823,0-81.646,0-122.47,0
				C115.068,190.49,115.068,193.49,117.002,193.49L117.002,193.49z"/>
		</g>
	</g>
	<g display="inline">
		<line fill="#FFFFFF" x1="117.002" y1="238.628" x2="239.472" y2="238.628"/>
		<g>
			<path fill="#FFFFFF" d="M117.002,240.128c40.823,0,81.646,0,122.47,0c1.935,0,1.935-3,0-3c-40.823,0-81.646,0-122.47,0
				C115.068,237.128,115.068,240.128,117.002,240.128L117.002,240.128z"/>
		</g>
	</g>
</g>
<g id="OG_15_" display="none">
	<path display="inline" fill="#FFFFFF" d="M171.588,163.16c-0.28-0.773-0.674-1.386-1.18-1.84c-0.507-0.453-1.187-0.68-2.04-0.68
		c-0.854,0-1.534,0.227-2.04,0.68c-0.507,0.454-0.9,1.074-1.18,1.86c-0.28,0.787-0.467,1.7-0.56,2.74
		c-0.094,1.04-0.14,2.16-0.14,3.36c0,1.2,0.046,2.327,0.14,3.38c0.093,1.054,0.28,1.967,0.56,2.74c0.28,0.773,0.673,1.387,1.18,1.84
		c0.506,0.454,1.187,0.68,2.04,0.68c0.826,0,1.5-0.227,2.02-0.68c0.52-0.453,0.92-1.073,1.2-1.86c0.28-0.787,0.466-1.7,0.56-2.74
		c0.093-1.04,0.14-2.16,0.14-3.36c0-1.2-0.047-2.326-0.14-3.38C172.054,164.847,171.868,163.934,171.588,163.16z"/>
	<path display="inline" fill="#FFFFFF" d="M235.874,148.544H120.832c-2.179,0-3.945,1.825-3.945,4.076v32.27
		c0,2.25,1.766,4.076,3.945,4.076h115.042c2.179,0,3.945-1.825,3.945-4.076v-32.27C239.819,150.37,238.053,148.544,235.874,148.544z
		 M174.968,178.939c-1.547,2.174-3.734,3.26-6.56,3.26c-2.907,0-5.127-1.086-6.66-3.26c-1.534-2.173-2.3-5.393-2.3-9.66
		c0-4.266,0.786-7.486,2.36-9.66c1.573-2.173,3.76-3.26,6.56-3.26c2.906,0,5.12,1.087,6.64,3.26c1.52,2.174,2.28,5.394,2.28,9.66
		C177.288,173.546,176.514,176.767,174.968,178.939z M185.848,175.82c0.933,1.4,2.306,2.1,4.12,2.1c0.293,0,0.613-0.013,0.96-0.04
		c0.346-0.026,0.666-0.066,0.96-0.12v-9.04h4.92v12.36c-0.587,0.214-1.5,0.454-2.74,0.72c-1.24,0.266-2.74,0.4-4.5,0.4
		c-1.547,0-2.94-0.274-4.18-0.82c-1.24-0.546-2.3-1.36-3.18-2.44c-0.88-1.08-1.56-2.426-2.04-4.04c-0.48-1.613-0.72-3.486-0.72-5.62
		c0-2.106,0.28-3.966,0.84-5.58c0.56-1.613,1.32-2.966,2.28-4.06c0.96-1.093,2.093-1.913,3.4-2.46c1.306-0.546,2.706-0.82,4.2-0.82
		c0.96,0,1.82,0.074,2.58,0.22c0.76,0.147,1.42,0.314,1.98,0.5c0.56,0.187,1.02,0.387,1.38,0.6c0.36,0.214,0.633,0.374,0.82,0.48
		l-1.28,3.92c-0.586-0.373-1.307-0.706-2.16-1c-0.854-0.293-1.734-0.44-2.64-0.44c-1.174,0-2.16,0.214-2.96,0.64
		c-0.8,0.427-1.46,1.02-1.98,1.78c-0.52,0.76-0.894,1.667-1.12,2.72c-0.227,1.054-0.34,2.22-0.34,3.5
		C184.448,172.24,184.914,174.42,185.848,175.82z"/>
</g>
<path id="EG_14_" display="none" fill="#FFFFFF" d="M235.874,194.946H120.832c-2.179,0-3.945,1.825-3.945,4.076v32.27
	c0,2.25,1.766,4.076,3.945,4.076h115.042c2.179,0,3.945-1.825,3.945-4.076v-32.27C239.819,196.771,238.053,194.946,235.874,194.946z
	 M176.768,227.402h-15.88v-24.76h15v4.08h-10.08v5.56h8.76v4.08h-8.76v6.96h10.96V227.402z M185.848,221.542
	c0.933,1.4,2.306,2.1,4.12,2.1c0.293,0,0.613-0.013,0.96-0.04c0.346-0.026,0.666-0.066,0.96-0.12v-9.04h4.92v12.36
	c-0.587,0.214-1.5,0.454-2.74,0.72c-1.24,0.266-2.74,0.4-4.5,0.4c-1.547,0-2.94-0.274-4.18-0.82c-1.24-0.546-2.3-1.36-3.18-2.44
	c-0.88-1.08-1.56-2.426-2.04-4.04c-0.48-1.613-0.72-3.486-0.72-5.62c0-2.106,0.28-3.966,0.84-5.58c0.56-1.613,1.32-2.966,2.28-4.06
	c0.96-1.093,2.093-1.913,3.4-2.46c1.306-0.546,2.706-0.82,4.2-0.82c0.96,0,1.82,0.074,2.58,0.22c0.76,0.147,1.42,0.314,1.98,0.5
	c0.56,0.187,1.02,0.387,1.38,0.6c0.36,0.214,0.633,0.374,0.82,0.48l-1.28,3.92c-0.586-0.373-1.307-0.706-2.16-1
	c-0.854-0.293-1.734-0.44-2.64-0.44c-1.174,0-2.16,0.214-2.96,0.64c-0.8,0.427-1.46,1.02-1.98,1.78
	c-0.52,0.76-0.894,1.667-1.12,2.72c-0.227,1.054-0.34,2.22-0.34,3.5C184.448,217.962,184.914,220.142,185.848,221.542z"/>
<path id="KG_15_" display="none" fill="#FFFFFF" d="M235.707,241.78H120.665c-2.179,0-3.945,1.825-3.945,4.076v32.27
	c0,2.25,1.766,4.076,3.945,4.076h115.042c2.179,0,3.945-1.825,3.945-4.076v-32.27C239.652,243.605,237.886,241.78,235.707,241.78z
	 M172.171,275.426c-0.294-0.933-0.714-1.94-1.26-3.02c-0.547-1.08-1.154-2.133-1.82-3.16c-0.667-1.026-1.367-1.986-2.1-2.88
	c-0.733-0.893-1.434-1.646-2.1-2.26v11.32h-4.92v-24.76h4.92v10.28c0.586-0.746,1.2-1.573,1.84-2.48
	c0.64-0.906,1.246-1.813,1.82-2.72c0.573-0.906,1.1-1.8,1.58-2.68c0.48-0.88,0.88-1.68,1.2-2.4h5.56
	c-0.374,0.72-0.82,1.54-1.34,2.46c-0.52,0.92-1.114,1.88-1.78,2.88c-0.667,1-1.38,2.02-2.14,3.06c-0.76,1.04-1.554,2.04-2.38,3
	c0.826,0.8,1.666,1.72,2.52,2.76c0.853,1.04,1.66,2.154,2.42,3.34c0.76,1.187,1.446,2.4,2.06,3.64c0.613,1.24,1.106,2.447,1.48,3.62
	H172.171z M185.651,269.566c0.933,1.4,2.306,2.1,4.12,2.1c0.293,0,0.613-0.013,0.96-0.04c0.346-0.026,0.666-0.066,0.96-0.12v-9.04
	h4.92v12.36c-0.587,0.214-1.5,0.454-2.74,0.72c-1.24,0.266-2.74,0.4-4.5,0.4c-1.547,0-2.94-0.274-4.18-0.82
	c-1.24-0.546-2.3-1.36-3.18-2.44c-0.88-1.08-1.56-2.426-2.04-4.04c-0.48-1.613-0.72-3.486-0.72-5.62c0-2.106,0.28-3.966,0.84-5.58
	c0.56-1.613,1.32-2.966,2.28-4.06c0.96-1.093,2.093-1.913,3.4-2.46c1.306-0.546,2.706-0.82,4.2-0.82c0.96,0,1.82,0.074,2.58,0.22
	c0.76,0.147,1.42,0.314,1.98,0.5c0.56,0.187,1.02,0.387,1.38,0.6c0.36,0.214,0.633,0.374,0.82,0.48l-1.28,3.92
	c-0.586-0.373-1.307-0.706-2.16-1c-0.854-0.293-1.734-0.44-2.64-0.44c-1.174,0-2.16,0.214-2.96,0.64c-0.8,0.427-1.46,1.02-1.98,1.78
	c-0.52,0.76-0.894,1.667-1.12,2.72c-0.227,1.054-0.34,2.22-0.34,3.5C184.251,265.986,184.717,268.166,185.651,269.566z"/>
<g>
	<g>
		<path fill="#FFFFFF" d="M255.815,240.128c10.611,0,21.222,0,31.833,0c1.935,0,1.935-3,0-3c-10.611,0-21.222,0-31.833,0
			C253.881,237.128,253.881,240.128,255.815,240.128L255.815,240.128z"/>
	</g>
	<g>
		<path fill="#FFFFFF" d="M276.732,271.323c3,0,6,0,9,0c4.514,0,4.514-7,0-7c-3,0-6,0-9,0
			C272.218,264.323,272.218,271.323,276.732,271.323L276.732,271.323z"/>
	</g>
	<g>
		<path fill="#FFFFFF" d="M258.065,286.56c5.333,0,10.667,0,16,0c4.514,0,4.514-7,0-7c-5.333,0-10.667,0-16,0
			C253.551,279.56,253.551,286.56,258.065,286.56L258.065,286.56z"/>
	</g>
	<g>
		<path fill="#FFFFFF" d="M258.399,275.323c2,0,4,0,6,0c1.908,0,3.5-1.592,3.5-3.5s-1.592-3.5-3.5-3.5c-2,0-4,0-6,0
			c-1.908,0-3.5,1.592-3.5,3.5S256.491,275.323,258.399,275.323L258.399,275.323z"/>
	</g>
	<g>
		<path fill="#FFFFFF" d="M271.732,282.323c0.667,0,1.333,0,2,0c1.908,0,3.5-1.592,3.5-3.5s-1.592-3.5-3.5-3.5c-0.667,0-1.333,0-2,0
			c-1.908,0-3.5,1.592-3.5,3.5S269.825,282.323,271.732,282.323L271.732,282.323z"/>
	</g>
	<g>
		<path fill="#FFFFFF" d="M265.899,259.323c-2,0-4,0-6,0c-1.908,0-3.5,1.592-3.5,3.5s1.592,3.5,3.5,3.5c2,0,4,0,6,0
			c1.908,0,3.5-1.592,3.5-3.5S267.807,259.323,265.899,259.323L265.899,259.323z"/>
	</g>
	<g>
		<path fill="#FFFFFF" d="M260.316,244.49c-0.667,0-1.333,0-2,0c-1.908,0-3.5,1.592-3.5,3.5s1.592,3.5,3.5,3.5c0.667,0,1.333,0,2,0
			c1.908,0,3.5-1.592,3.5-3.5S262.224,244.49,260.316,244.49L260.316,244.49z"/>
	</g>
	<g>
		<path fill="#FFFFFF" d="M283.982,247.49c-5.333,0-10.667,0-16,0c-4.514,0-4.514,7,0,7c5.333,0,10.667,0,16,0
			C288.496,254.49,288.496,247.49,283.982,247.49L283.982,247.49z"/>
	</g>
	<g>
		<path fill="#FFFFFF" d="M274.982,255.49c-5.083,0-10.167,0-15.25,0c-4.514,0-4.514,7,0,7c5.083,0,10.167,0,15.25,0
			C279.497,262.49,279.497,255.49,274.982,255.49L274.982,255.49z"/>
	</g>
	<g>
		<path fill="#FFFFFF" d="M281.316,242.49c-2,0-4,0-6,0c-1.908,0-3.5,1.592-3.5,3.5s1.592,3.5,3.5,3.5c2,0,4,0,6,0
			c1.908,0,3.5-1.592,3.5-3.5S283.224,242.49,281.316,242.49L281.316,242.49z"/>
	</g>
	<g>
		<path fill="#FFFFFF" d="M263.982,239.49c-2,0-4,0-6,0c-1.908,0-3.5,1.592-3.5,3.5s1.592,3.5,3.5,3.5c2,0,4,0,6,0
			c1.908,0,3.5-1.592,3.5-3.5S265.89,239.49,263.982,239.49L263.982,239.49z"/>
	</g>
	<g>
		<path fill="#FFFFFF" d="M260.397,287.615c-0.667,0-1.333,0-2,0c-1.908,0-3.5,1.592-3.5,3.5s1.592,3.5,3.5,3.5c0.667,0,1.333,0,2,0
			c1.908,0,3.5-1.592,3.5-3.5S262.305,287.615,260.397,287.615L260.397,287.615z"/>
	</g>
	<g>
		<path fill="#FFFFFF" d="M285.063,287.615c-5.333,0-10.667,0-16,0c-4.514,0-4.514,7,0,7c5.333,0,10.667,0,16,0
			C289.578,294.615,289.578,287.615,285.063,287.615L285.063,287.615z"/>
	</g>
	<g>
		<path fill="#FFFFFF" d="M285.982,273.323c-2,0-4,0-6,0c-1.908,0-3.5,1.592-3.5,3.5s1.592,3.5,3.5,3.5c2,0,4,0,6,0
			c1.908,0,3.5-1.592,3.5-3.5S287.89,273.323,285.982,273.323L285.982,273.323z"/>
	</g>
	<g>
		<path fill="#FFFFFF" d="M285.316,239.49c-2,0-4,0-6,0c-1.908,0-3.5,1.592-3.5,3.5s1.592,3.5,3.5,3.5c2,0,4,0,6,0
			c1.908,0,3.5-1.592,3.5-3.5S287.224,239.49,285.316,239.49L285.316,239.49z"/>
	</g>
</g>
<g>
	<g>
		<path fill="#FFFFFF" d="M95.981,276.323c0.667,0,1.333,0,2,0c1.908,0,3.5-1.592,3.5-3.5s-1.592-3.5-3.5-3.5c-0.667,0-1.333,0-2,0
			c-1.908,0-3.5,1.592-3.5,3.5S94.073,276.323,95.981,276.323L95.981,276.323z"/>
	</g>
	<g>
		<path fill="#FFFFFF" d="M71.315,282.323c5.333,0,10.667,0,16,0c4.514,0,4.514-7,0-7c-5.333,0-10.667,0-16,0
			C66.801,275.323,66.801,282.323,71.315,282.323L71.315,282.323z"/>
	</g>
	<g>
		<path fill="#FFFFFF" d="M83.314,271.323c5.083,0,10.167,0,15.25,0c4.514,0,4.514-7,0-7c-5.083,0-10.167,0-15.25,0
			C78.8,264.323,78.8,271.323,83.314,271.323L83.314,271.323z"/>
	</g>
	<g>
		<path fill="#FFFFFF" d="M70.939,294.615c2,0,4,0,6,0c1.908,0,3.5-1.592,3.5-3.5s-1.592-3.5-3.5-3.5c-2,0-4,0-6,0
			c-1.908,0-3.5,1.592-3.5,3.5S69.032,294.615,70.939,294.615L70.939,294.615z"/>
	</g>
	<g>
		<path fill="#FFFFFF" d="M91.647,288.56c2,0,4,0,6,0c1.908,0,3.5-1.592,3.5-3.5s-1.592-3.5-3.5-3.5c-2,0-4,0-6,0
			c-1.908,0-3.5,1.592-3.5,3.5S89.739,288.56,91.647,288.56L91.647,288.56z"/>
	</g>
	<g>
		<path fill="#FFFFFF" d="M85.565,255.49c-3,0-6,0-9,0c-4.514,0-4.514,7,0,7c3,0,6,0,9,0C90.079,262.49,90.079,255.49,85.565,255.49
			L85.565,255.49z"/>
	</g>
	<g>
		<path fill="#FFFFFF" d="M98.564,239.49c-5.333,0-10.667,0-16,0c-4.514,0-4.514,7,0,7c5.333,0,10.667,0,16,0
			C103.079,246.49,103.079,239.49,98.564,239.49L98.564,239.49z"/>
	</g>
	<g>
		<path fill="#FFFFFF" d="M97.898,244.49c-2,0-4,0-6,0c-1.908,0-3.5,1.592-3.5,3.5s1.592,3.5,3.5,3.5c2,0,4,0,6,0
			c1.908,0,3.5-1.592,3.5-3.5S99.806,244.49,97.898,244.49L97.898,244.49z"/>
	</g>
	<g>
		<path fill="#FFFFFF" d="M78.189,240.824c-1.083,0-2.167,0-3.25,0c-1.908,0-3.5,1.592-3.5,3.5s1.592,3.5,3.5,3.5
			c1.083,0,2.167,0,3.25,0c1.908,0,3.5-1.592,3.5-3.5S80.097,240.824,78.189,240.824L78.189,240.824z"/>
	</g>
	<g>
		<path fill="#FFFFFF" d="M95.731,262.49c0.667,0,1.333,0,2,0c1.908,0,3.5-1.592,3.5-3.5s-1.592-3.5-3.5-3.5c-0.667,0-1.333,0-2,0
			c-1.908,0-3.5,1.592-3.5,3.5S93.824,262.49,95.731,262.49L95.731,262.49z"/>
	</g>
	<g>
		<path fill="#FFFFFF" d="M97.979,287.615c-2,0-4,0-6,0c-1.908,0-3.5,1.592-3.5,3.5s1.592,3.5,3.5,3.5c2,0,4,0,6,0
			c1.908,0,3.5-1.592,3.5-3.5S99.887,287.615,97.979,287.615L97.979,287.615z"/>
	</g>
	<g>
		<path fill="#FFFFFF" d="M82.065,284.045c-0.667,0-1.333,0-2,0c-1.908,0-3.5,1.592-3.5,3.5s1.592,3.5,3.5,3.5c0.667,0,1.333,0,2,0
			c1.908,0,3.5-1.592,3.5-3.5S83.973,284.045,82.065,284.045L82.065,284.045z"/>
	</g>
	<g>
		<path fill="#FFFFFF" d="M69.648,240.128c10.611,0,21.222,0,31.833,0c1.935,0,1.935-3,0-3c-10.611,0-21.222,0-31.833,0
			C67.714,237.128,67.714,240.128,69.648,240.128L69.648,240.128z"/>
	</g>
	<g>
		<path fill="#FFFFFF" d="M77.313,247.045c-2,0-4,0-6,0c-1.908,0-3.5,1.592-3.5,3.5s1.592,3.5,3.5,3.5c2,0,4,0,6,0
			c1.908,0,3.5-1.592,3.5-3.5S79.221,247.045,77.313,247.045L77.313,247.045z"/>
	</g>
	<g>
		<path fill="#FFFFFF" d="M76.313,266.323c-1.833,0-3.667,0-5.5,0c-1.908,0-3.5,1.592-3.5,3.5s1.592,3.5,3.5,3.5
			c1.833,0,3.667,0,5.5,0c1.908,0,3.5-1.592,3.5-3.5S78.221,266.323,76.313,266.323L76.313,266.323z"/>
	</g>
</g>
<g>
	<path fill="#FFFFFF" d="M171.272,117.631c-0.388-0.749-0.918-1.35-1.589-1.802c-0.672-0.452-1.538-0.679-2.597-0.679
		c-0.208,0-0.44,0.007-0.698,0.02c-0.259,0.014-0.491,0.045-0.698,0.097v16.125c0.129,0.026,0.271,0.038,0.426,0.038
		s0.297,0,0.426,0c1.085,0,1.996-0.206,2.733-0.62c0.736-0.413,1.33-0.981,1.782-1.705c0.452-0.723,0.775-1.583,0.969-2.578
		c0.194-0.995,0.291-2.086,0.291-3.275c0-1.034-0.078-2.041-0.232-3.024C171.931,119.246,171.659,118.38,171.272,117.631z"/>
	<path fill="#FFFFFF" d="M236.365,117.962c0,0-81.573-24.463-82.725-24.808c-1.448-0.433-3.309-0.183-3.953,0.25
		c-0.753,0.506-29.458,19.558-29.458,19.558c-4,2.667-4,2.791-4,5l0.037,20.333c0,2.209,1.791,4,4,4h116.137c2.209,0,4-1.791,4-4
		l-0.037-16.333C240.365,119.753,239.203,119.064,236.365,117.962z M176.311,129.18c-0.556,1.563-1.325,2.836-2.307,3.817
		c-0.982,0.983-2.151,1.7-3.508,2.151c-1.356,0.452-2.849,0.679-4.477,0.679c-0.853,0-1.686-0.046-2.5-0.136
		s-1.686-0.238-2.617-0.446v-23.411c1.086-0.232,2.106-0.388,3.063-0.465c0.956-0.078,1.847-0.117,2.674-0.117
		c1.576,0,3.017,0.232,4.322,0.698c1.305,0.465,2.409,1.195,3.314,2.19c0.904,0.995,1.608,2.262,2.112,3.798
		c0.504,1.538,0.756,3.392,0.756,5.563C177.144,125.724,176.866,127.616,176.311,129.18z M185.438,129.838
		c0.905,1.357,2.235,2.035,3.993,2.035c0.284,0,0.594-0.013,0.93-0.039c0.335-0.025,0.646-0.064,0.931-0.116v-8.76h4.767v11.977
		c-0.569,0.207-1.454,0.439-2.655,0.697s-2.655,0.388-4.36,0.388c-1.499,0-2.849-0.266-4.05-0.795s-2.229-1.318-3.082-2.364
		s-1.512-2.351-1.977-3.915c-0.465-1.563-0.698-3.378-0.698-5.445c0-2.041,0.271-3.844,0.814-5.407
		c0.542-1.563,1.279-2.875,2.209-3.934c0.93-1.06,2.028-1.854,3.294-2.384c1.266-0.529,2.622-0.795,4.07-0.795
		c0.93,0,1.763,0.072,2.5,0.213c0.736,0.142,1.375,0.304,1.918,0.484c0.543,0.181,0.989,0.375,1.337,0.582
		c0.349,0.207,0.613,0.362,0.794,0.465l-1.24,3.799c-0.569-0.362-1.267-0.685-2.093-0.969c-0.827-0.285-1.68-0.426-2.558-0.426
		c-1.138,0-2.093,0.207-2.868,0.62c-0.775,0.414-1.415,0.988-1.918,1.725c-0.504,0.736-0.866,1.615-1.085,2.636
		c-0.22,1.021-0.33,2.151-0.33,3.392C184.082,126.37,184.534,128.482,185.438,129.838z"/>
</g>
<g>
	<path fill="#FFFFFF" d="M152.486,91.366c38.417,11.417,76.833,22.833,115.25,34.25c6.197,1.842,8.825-7.81,2.658-9.643
		c-38.417-11.417-76.833-22.833-115.25-34.25C148.947,79.882,146.319,89.534,152.486,91.366L152.486,91.366z"/>
</g>
<g>
	<path fill="#FFFFFF" d="M98.088,126.237c21.896-14.672,43.792-29.343,65.688-44.015c5.327-3.569,0.327-12.236-5.047-8.635
		c-21.896,14.672-43.792,29.343-65.688,44.015C87.714,121.172,92.714,129.838,98.088,126.237L98.088,126.237z"/>
</g>
<g>
	<path fill="#FFFFFF" d="M242.005,284.518c0.119-0.612,2.896-0.431,0.289-0.431c-1.465,0-2.931,0-4.396,0
		c-5.081,0-10.162,0-15.243,0c-15.326,0-30.651,0-45.977,0c-15.068,0-30.137,0-45.206,0c-4.76,0-9.52,0-14.279,0
		c-1.186,0-2.373,0-3.559,0c-2.261,0,0.889,0.244,0.889,1.638c0-50.77,0-101.54,0-152.31c0-6.875,0-13.751,0-20.626
		c-0.826,1.439-1.651,2.878-2.477,4.317c13.553-9.064,27.106-18.128,40.659-27.192c-1.284,0.168-2.568,0.336-3.853,0.504
		c23.649,7.156,47.297,14.312,70.946,21.468c5.636,1.705,11.272,3.411,16.909,5.116c1.473,0.445,2.945,0.891,4.417,1.336
		c1.829,0.554,0.701,0.547,0.701-1.137c0,6.301,0,12.602,0,18.902c0,49.912,0,99.823,0,149.735c0,0.002,0,0.005,0,0.008
		c0,6.449,10,6.449,10,0c0-49.693,0-99.387,0-149.08c0-6.503,0-13.007,0-19.51c0-8.85-15.068-10.686-21.594-12.661
		c-25.827-7.815-51.654-15.63-77.482-23.445c-3.27-0.989-5.322,0.283-7.953,2.042c-5.823,3.895-11.646,7.789-17.469,11.683
		c-5.823,3.894-11.646,7.788-17.469,11.683c-2.637,1.763-5.337,3.214-5.337,6.838c0,21.712,0,43.424,0,65.137
		c0,29.983,0,59.966,0,89.949c0,5.786,0,11.571,0,17.356c0,10.699,14.644,8.248,21.506,8.248c25.049,0,50.099,0,75.148,0
		c10.906,0,21.812,0,32.717,0c6.465,0,16.083,1.652,17.753-6.911C252.877,280.877,243.24,278.192,242.005,284.518z"/>
</g>
<g>
	<line fill="#FFFFFF" x1="117.002" y1="191.99" x2="239.472" y2="191.99"/>
	<g>
		<path fill="#FFFFFF" d="M117.002,193.49c40.823,0,81.646,0,122.47,0c1.935,0,1.935-3,0-3c-40.823,0-81.646,0-122.47,0
			C115.068,190.49,115.068,193.49,117.002,193.49L117.002,193.49z"/>
	</g>
</g>
<g>
	<line fill="#FFFFFF" x1="117.002" y1="238.628" x2="239.472" y2="238.628"/>
	<g>
		<path fill="#FFFFFF" d="M117.002,240.128c40.823,0,81.646,0,122.47,0c1.935,0,1.935-3,0-3c-40.823,0-81.646,0-122.47,0
			C115.068,237.128,115.068,240.128,117.002,240.128L117.002,240.128z"/>
	</g>
</g>
<g>
	<line fill="#FFFFFF" x1="117.002" y1="145.352" x2="240.25" y2="145.695"/>
	<g>
		<path fill="#FFFFFF" d="M117.002,146.852c41.083,0.114,82.165,0.229,123.248,0.343c1.935,0.005,1.934-2.995,0-3
			c-41.083-0.114-82.165-0.229-123.248-0.343C115.067,143.847,115.068,146.847,117.002,146.852L117.002,146.852z"/>
	</g>
</g>
</svg>
