<?xml version="1.0" encoding="iso-8859-1"?>
<!-- Generator: Adobe Illustrator 16.0.0, SVG Export Plug-In . SVG Version: 6.00 Build 0)  -->
<!DOCTYPE svg PUBLIC "-//W3C//DTD SVG 1.1//EN" "http://www.w3.org/Graphics/SVG/1.1/DTD/svg11.dtd">
<svg version="1.1" xmlns="http://www.w3.org/2000/svg" xmlns:xlink="http://www.w3.org/1999/xlink" x="0px" y="0px" width="361px"
	 height="361px" viewBox="0 0 361 361" style="enable-background:new 0 0 361 361;" xml:space="preserve">
<g id="control_x5F_building_x5F_modern_x5F_s_x5F_2og_x5F_int_x5F_og2">
	<g id="Haus_50_">
		<g>
			<g>
				<path style="fill:#FFFFFF;" d="M244.523,281.64c0.119-0.612,2.896-0.431,0.289-0.431c-1.465,0-2.931,0-4.396,0
					c-5.081,0-10.163,0-15.244,0c-15.325,0-30.651,0-45.977,0c-15.068,0-30.137,0-45.206,0c-4.76,0-9.52,0-14.279,0
					c-1.186,0-2.373,0-3.559,0c-2.261,0,0.889,0.243,0.889,1.638c0-50.77,0-101.539,0-152.309c0-6.875,0-13.751,0-20.626
					c-0.826,1.439-1.651,2.878-2.477,4.317c13.553-9.064,27.106-18.128,40.659-27.192c-1.284,0.168-2.568,0.336-3.853,0.504
					c23.649,7.156,47.298,14.312,70.946,21.468c5.637,1.705,11.272,3.411,16.909,5.116c1.472,0.445,2.944,0.891,4.417,1.336
					c1.829,0.554,0.701,0.547,0.701-1.137c0,6.301,0,12.601,0,18.902c0,49.911,0,99.823,0,149.734c0,0.003,0,0.005,0,0.008
					c0,6.448,10,6.448,10,0c0-49.693,0-99.387,0-149.08c0-6.503,0-13.007,0-19.51c0-8.85-15.068-10.686-21.594-12.661
					c-25.828-7.815-51.655-15.63-77.482-23.445c-3.27-0.989-5.322,0.283-7.953,2.042c-5.823,3.895-11.646,7.789-17.469,11.683
					c-5.823,3.894-11.646,7.788-17.469,11.683c-2.637,1.763-5.337,3.214-5.337,6.838c0,21.712,0,43.424,0,65.137
					c0,29.982,0,59.966,0,89.949c0,5.785,0,11.57,0,17.355c0,10.699,14.644,8.248,21.506,8.248c25.049,0,50.099,0,75.148,0
					c10.905,0,21.812,0,32.718,0c6.465,0,16.082,1.651,17.753-6.911C255.396,277.999,245.758,275.313,244.523,281.64z"/>
			</g>
		</g>
		<g>
			<g>
				<line style="fill:#FFFFFF;" x1="119.521" y1="205.112" x2="241.99" y2="205.112"/>
				<g>
					<path style="fill:#FFFFFF;" d="M119.521,206.612c40.823,0,81.646,0,122.47,0c1.935,0,1.935-3,0-3c-40.823,0-81.646,0-122.47,0
						C117.586,203.612,117.586,206.612,119.521,206.612L119.521,206.612z"/>
				</g>
			</g>
			<g>
				<line style="fill:#FFFFFF;" x1="119.521" y1="243.75" x2="241.99" y2="243.75"/>
				<g>
					<path style="fill:#FFFFFF;" d="M119.521,245.25c40.823,0,81.646,0,122.47,0c1.935,0,1.935-3,0-3c-40.823,0-81.646,0-122.47,0
						C117.586,242.25,117.586,245.25,119.521,245.25L119.521,245.25z"/>
				</g>
			</g>
			<g>
				<line style="fill:#FFFFFF;" x1="119.854" y1="166.112" x2="242.323" y2="166.112"/>
				<g>
					<path style="fill:#FFFFFF;" d="M119.854,167.612c40.823,0,81.646,0,122.47,0c1.935,0,1.935-3,0-3c-40.823,0-81.646,0-122.47,0
						C117.919,164.612,117.919,167.612,119.854,167.612L119.854,167.612z"/>
				</g>
			</g>
			<g>
				<line style="fill:#FFFFFF;" x1="119.854" y1="127.112" x2="242.323" y2="127.112"/>
				<g>
					<path style="fill:#FFFFFF;" d="M119.854,128.612c40.823,0,81.646,0,122.47,0c1.935,0,1.935-3,0-3c-40.823,0-81.646,0-122.47,0
						C117.919,125.612,117.919,128.612,119.854,128.612L119.854,128.612z"/>
				</g>
			</g>
		</g>
		<g>
			<g>
				<path style="fill:#FFFFFF;" d="M100.606,123.359c21.896-14.672,43.792-29.343,65.688-44.015
					c5.327-3.569,0.327-12.236-5.047-8.635c-21.896,14.672-43.792,29.343-65.688,44.015
					C90.232,118.294,95.232,126.96,100.606,123.359L100.606,123.359z"/>
			</g>
		</g>
		<g>
			<g>
				<path style="fill:#FFFFFF;" d="M155.004,88.488c38.417,11.417,76.833,22.833,115.25,34.25c6.197,1.842,8.824-7.81,2.658-9.643
					c-38.417-11.417-76.833-22.833-115.25-34.25C151.465,77.004,148.837,86.656,155.004,88.488L155.004,88.488z"/>
			</g>
		</g>
	</g>
	<path id="EG_66_" style="display:none;fill:#FFFFFF;" d="M238.568,207.667H122.432c-2.209,0-4,1.791-4,4v25.667
		c0,2.209,1.791,4,4,4h116.137c2.209,0,4-1.791,4-4v-25.667C242.568,209.458,240.777,207.667,238.568,207.667z"/>
	<path id="KG_54_" style="display:none;fill:#FFFFFF;" d="M238.756,246.334H122.619c-2.209,0-4,1.791-4,4V276c0,2.209,1.791,4,4,4
		h116.137c2.209,0,4-1.791,4-4v-25.666C242.756,248.125,240.965,246.334,238.756,246.334z"/>
	<g id="OG1_8_" style="display:none;">
		<path style="display:inline;fill:#FFFFFF;" d="M238.824,168.667H122.687c-2.209,0-4,1.791-4,4v25.667c0,2.209,1.791,4,4,4h116.137
			c2.209,0,4-1.791,4-4v-25.667C242.824,170.458,241.033,168.667,238.824,168.667z"/>
		<path style="display:inline;fill:#FFFFFF;" d="M192.643,180.323c-0.267-0.734-0.641-1.317-1.121-1.748
			c-0.482-0.431-1.128-0.646-1.938-0.646c-0.812,0-1.457,0.215-1.938,0.646c-0.48,0.431-0.854,1.02-1.121,1.767
			c-0.266,0.748-0.443,1.615-0.531,2.604c-0.09,0.988-0.133,2.052-0.133,3.191c0,1.141,0.043,2.211,0.133,3.211
			c0.088,1.002,0.266,1.869,0.531,2.604c0.267,0.734,0.641,1.317,1.121,1.748c0.481,0.431,1.127,0.646,1.938,0.646
			c0.785,0,1.425-0.216,1.919-0.646s0.874-1.02,1.141-1.768c0.266-0.746,0.442-1.615,0.531-2.603
			c0.089-0.988,0.133-2.052,0.133-3.192c0-1.14-0.044-2.209-0.133-3.211C193.085,181.926,192.908,181.059,192.643,180.323z"/>
	</g>
	<g id="OG2_8_">
		<path style="fill:#FFFFFF;" d="M238.902,129.834H122.765c-2.209,0-4,1.791-4,4V159.5c0,2.209,1.791,4,4,4h116.137
			c2.209,0,4-1.791,4-4v-25.667C242.902,131.625,241.111,129.834,238.902,129.834z"/>
		<path style="fill:#FFFFFF;" d="M192.643,140.822c-0.267-0.734-0.641-1.317-1.121-1.748c-0.482-0.431-1.128-0.646-1.938-0.646
			c-0.812,0-1.457,0.215-1.938,0.646c-0.48,0.431-0.854,1.02-1.121,1.767c-0.266,0.748-0.443,1.615-0.531,2.603
			c-0.09,0.988-0.133,2.052-0.133,3.192c0,1.14,0.043,2.21,0.133,3.211c0.088,1.001,0.266,1.868,0.531,2.603
			c0.267,0.735,0.641,1.317,1.121,1.748c0.481,0.431,1.127,0.646,1.938,0.646c0.785,0,1.425-0.215,1.919-0.646
			s0.874-1.02,1.141-1.767c0.266-0.747,0.442-1.615,0.531-2.603c0.089-0.988,0.133-2.052,0.133-3.192c0-1.14-0.044-2.21-0.133-3.211
			C193.085,142.425,192.908,141.558,192.643,140.822z"/>
	</g>
	<g id="DG_55_" style="display:none;">
		<path style="display:inline;fill:#FFFFFF;" d="M153.365,103.96c-0.38-0.734-0.9-1.323-1.558-1.767
			c-0.659-0.443-1.508-0.665-2.546-0.665c-0.203,0-0.431,0.007-0.684,0.019c-0.254,0.013-0.481,0.044-0.684,0.095v15.808
			c0.126,0.025,0.266,0.038,0.418,0.038s0.291,0,0.418,0c1.064,0,1.957-0.202,2.679-0.608c0.722-0.405,1.304-0.962,1.748-1.672
			c0.443-0.709,0.76-1.551,0.95-2.527c0.19-0.975,0.285-2.045,0.285-3.211c0-1.013-0.076-2.001-0.228-2.964
			C154.011,105.544,153.745,104.695,153.365,103.96z"/>
		<path style="display:inline;fill:#FFFFFF;" d="M238.902,114.834c0,0-81.574-24.463-82.726-24.808
			c-1.448-0.433-3.309-0.183-3.953,0.25c-0.753,0.506-29.458,19.558-29.458,19.558c-4,2.667-4,2.791-4,5v5.667c0,2.209,1.791,4,4,4
			h116.137c2.209,0,4-1.791,4-4v-1.667C242.902,116.625,241.74,115.936,238.902,114.834z"/>
	</g>
	<g id="Erde_12_">
		<g>
			<g>
				<g>
					<path style="fill:#FFFFFF;" d="M98.499,281.445c0.667,0,1.333,0,2,0c1.908,0,3.5-1.592,3.5-3.5s-1.592-3.5-3.5-3.5
						c-0.667,0-1.333,0-2,0c-1.908,0-3.5,1.592-3.5,3.5S96.591,281.445,98.499,281.445L98.499,281.445z"/>
				</g>
			</g>
			<g>
				<g>
					<path style="fill:#FFFFFF;" d="M73.833,287.445c5.333,0,10.667,0,16,0c4.514,0,4.514-7,0-7c-5.333,0-10.667,0-16,0
						C69.319,280.445,69.319,287.445,73.833,287.445L73.833,287.445z"/>
				</g>
			</g>
			<g>
				<g>
					<path style="fill:#FFFFFF;" d="M85.833,276.445c5.083,0,10.167,0,15.25,0c4.514,0,4.514-7,0-7c-5.083,0-10.167,0-15.25,0
						C81.318,269.445,81.318,276.445,85.833,276.445L85.833,276.445z"/>
				</g>
			</g>
			<g>
				<g>
					<path style="fill:#FFFFFF;" d="M94.416,291.834c2,0,4,0,6,0c1.908,0,3.5-1.592,3.5-3.5s-1.592-3.5-3.5-3.5c-2,0-4,0-6,0
						c-1.908,0-3.5,1.592-3.5,3.5S92.508,291.834,94.416,291.834L94.416,291.834z"/>
				</g>
			</g>
			<g>
				<g>
					<path style="fill:#FFFFFF;" d="M88.083,260.612c-3,0-6,0-9,0c-4.514,0-4.514,7,0,7c3,0,6,0,9,0
						C92.597,267.612,92.597,260.612,88.083,260.612L88.083,260.612z"/>
				</g>
			</g>
			<g>
				<g>
					<path style="fill:#FFFFFF;" d="M101.083,244.612c-5.333,0-10.667,0-16,0c-4.514,0-4.514,7,0,7c5.333,0,10.667,0,16,0
						C105.597,251.612,105.597,244.612,101.083,244.612L101.083,244.612z"/>
				</g>
			</g>
			<g>
				<g>
					<path style="fill:#FFFFFF;" d="M100.416,249.612c-2,0-4,0-6,0c-1.908,0-3.5,1.592-3.5,3.5s1.592,3.5,3.5,3.5c2,0,4,0,6,0
						c1.908,0,3.5-1.592,3.5-3.5S102.324,249.612,100.416,249.612L100.416,249.612z"/>
				</g>
			</g>
			<g>
				<g>
					<path style="fill:#FFFFFF;" d="M80.708,245.945c-1.083,0-2.167,0-3.25,0c-1.908,0-3.5,1.592-3.5,3.5s1.592,3.5,3.5,3.5
						c1.083,0,2.167,0,3.25,0c1.908,0,3.5-1.592,3.5-3.5S82.615,245.945,80.708,245.945L80.708,245.945z"/>
				</g>
			</g>
			<g>
				<g>
					<path style="fill:#FFFFFF;" d="M98.25,267.612c0.667,0,1.333,0,2,0c1.908,0,3.5-1.592,3.5-3.5s-1.592-3.5-3.5-3.5
						c-0.667,0-1.333,0-2,0c-1.908,0-3.5,1.592-3.5,3.5S96.342,267.612,98.25,267.612L98.25,267.612z"/>
				</g>
			</g>
			<g>
				<g>
					<path style="fill:#FFFFFF;" d="M77.583,284.834c-0.667,0-1.333,0-2,0c-1.908,0-3.5,1.592-3.5,3.5s1.592,3.5,3.5,3.5
						c0.667,0,1.333,0,2,0c1.908,0,3.5-1.592,3.5-3.5S79.491,284.834,77.583,284.834L77.583,284.834z"/>
				</g>
			</g>
			<g>
				<g>
					<path style="fill:#FFFFFF;" d="M71.667,245.25c10.778,0,21.555,0,32.333,0c1.935,0,1.935-3,0-3c-10.778,0-21.555,0-32.333,0
						C69.732,242.25,69.732,245.25,71.667,245.25L71.667,245.25z"/>
				</g>
			</g>
			<g>
				<g>
					<path style="fill:#FFFFFF;" d="M79.832,252.167c-2,0-4,0-6,0c-1.908,0-3.5,1.592-3.5,3.5s1.592,3.5,3.5,3.5c2,0,4,0,6,0
						c1.908,0,3.5-1.592,3.5-3.5S81.739,252.167,79.832,252.167L79.832,252.167z"/>
				</g>
			</g>
			<g>
				<g>
					<path style="fill:#FFFFFF;" d="M78.832,271.445c-1.833,0-3.667,0-5.5,0c-1.908,0-3.5,1.592-3.5,3.5s1.592,3.5,3.5,3.5
						c1.833,0,3.667,0,5.5,0c1.908,0,3.5-1.592,3.5-3.5S80.739,271.445,78.832,271.445L78.832,271.445z"/>
				</g>
			</g>
		</g>
		<g>
			<g>
				<g>
					<path style="fill:#FFFFFF;" d="M258.334,245.25c10.61,0,21.222,0,31.832,0c1.935,0,1.935-3,0-3c-10.61,0-21.222,0-31.832,0
						C256.399,242.25,256.399,245.25,258.334,245.25L258.334,245.25z"/>
				</g>
			</g>
			<g>
				<g>
					<path style="fill:#FFFFFF;" d="M279.25,276.445c3,0,6,0,9,0c4.514,0,4.514-7,0-7c-3,0-6,0-9,0
						C274.736,269.445,274.736,276.445,279.25,276.445L279.25,276.445z"/>
				</g>
			</g>
			<g>
				<g>
					<path style="fill:#FFFFFF;" d="M260.583,291.682c5.333,0,10.667,0,16,0c4.514,0,4.514-7,0-7c-5.333,0-10.667,0-16,0
						C256.069,284.682,256.069,291.682,260.583,291.682L260.583,291.682z"/>
				</g>
			</g>
			<g>
				<g>
					<path style="fill:#FFFFFF;" d="M260.917,280.445c2,0,4,0,6,0c1.908,0,3.5-1.592,3.5-3.5s-1.592-3.5-3.5-3.5c-2,0-4,0-6,0
						c-1.908,0-3.5,1.592-3.5,3.5S259.009,280.445,260.917,280.445L260.917,280.445z"/>
				</g>
			</g>
			<g>
				<g>
					<path style="fill:#FFFFFF;" d="M274.25,287.445c0.667,0,1.333,0,2,0c1.908,0,3.5-1.592,3.5-3.5s-1.592-3.5-3.5-3.5
						c-0.667,0-1.333,0-2,0c-1.908,0-3.5,1.592-3.5,3.5S272.342,287.445,274.25,287.445L274.25,287.445z"/>
				</g>
			</g>
			<g>
				<g>
					<path style="fill:#FFFFFF;" d="M268.417,264.445c-2,0-4,0-6,0c-1.908,0-3.5,1.592-3.5,3.5s1.592,3.5,3.5,3.5c2,0,4,0,6,0
						c1.908,0,3.5-1.592,3.5-3.5S270.325,264.445,268.417,264.445L268.417,264.445z"/>
				</g>
			</g>
			<g>
				<g>
					<path style="fill:#FFFFFF;" d="M262.834,249.612c-0.667,0-1.333,0-2,0c-1.908,0-3.5,1.592-3.5,3.5s1.592,3.5,3.5,3.5
						c0.667,0,1.333,0,2,0c1.908,0,3.5-1.592,3.5-3.5S264.742,249.612,262.834,249.612L262.834,249.612z"/>
				</g>
			</g>
			<g>
				<g>
					<path style="fill:#FFFFFF;" d="M286.5,252.612c-5.333,0-10.667,0-16,0c-4.514,0-4.514,7,0,7c5.333,0,10.667,0,16,0
						C291.014,259.612,291.014,252.612,286.5,252.612L286.5,252.612z"/>
				</g>
			</g>
			<g>
				<g>
					<path style="fill:#FFFFFF;" d="M277.5,260.612c-5.083,0-10.167,0-15.25,0c-4.514,0-4.514,7,0,7c5.083,0,10.167,0,15.25,0
						C282.014,267.612,282.014,260.612,277.5,260.612L277.5,260.612z"/>
				</g>
			</g>
			<g>
				<g>
					<path style="fill:#FFFFFF;" d="M283.834,247.612c-2,0-4,0-6,0c-1.908,0-3.5,1.592-3.5,3.5s1.592,3.5,3.5,3.5c2,0,4,0,6,0
						c1.908,0,3.5-1.592,3.5-3.5S285.742,247.612,283.834,247.612L283.834,247.612z"/>
				</g>
			</g>
			<g>
				<g>
					<path style="fill:#FFFFFF;" d="M266.5,244.612c-2,0-4,0-6,0c-1.908,0-3.5,1.592-3.5,3.5s1.592,3.5,3.5,3.5c2,0,4,0,6,0
						c1.908,0,3.5-1.592,3.5-3.5S268.408,244.612,266.5,244.612L266.5,244.612z"/>
				</g>
			</g>
			<g>
				<g>
					<path style="fill:#FFFFFF;" d="M288.5,278.445c-2,0-4,0-6,0c-1.908,0-3.5,1.592-3.5,3.5s1.592,3.5,3.5,3.5c2,0,4,0,6,0
						c1.908,0,3.5-1.592,3.5-3.5S290.408,278.445,288.5,278.445L288.5,278.445z"/>
				</g>
			</g>
			<g>
				<g>
					<path style="fill:#FFFFFF;" d="M287.834,244.612c-2,0-4,0-6,0c-1.908,0-3.5,1.592-3.5,3.5s1.592,3.5,3.5,3.5c2,0,4,0,6,0
						c1.908,0,3.5-1.592,3.5-3.5S289.742,244.612,287.834,244.612L287.834,244.612z"/>
				</g>
			</g>
			<g>
				<g>
					<path style="fill:#FFFFFF;" d="M285.834,291.682c0.667,0,1.333,0,2,0c1.908,0,3.5-1.592,3.5-3.5s-1.592-3.5-3.5-3.5
						c-0.667,0-1.333,0-2,0c-1.908,0-3.5,1.592-3.5,3.5S283.926,291.682,285.834,291.682L285.834,291.682z"/>
				</g>
			</g>
		</g>
	</g>
</g>
<g id="Ebene_1">
</g>
</svg>
