<?xml version="1.0" encoding="iso-8859-1"?>
<!-- Generator: Adobe Illustrator 16.0.0, SVG Export Plug-In . SVG Version: 6.00 Build 0)  -->
<!DOCTYPE svg PUBLIC "-//W3C//DTD SVG 1.1//EN" "http://www.w3.org/Graphics/SVG/1.1/DTD/svg11.dtd">
<svg version="1.1" xmlns="http://www.w3.org/2000/svg" xmlns:xlink="http://www.w3.org/1999/xlink" x="0px" y="0px" width="361px"
	 height="361px" viewBox="0 0 361 361" style="enable-background:new 0 0 361 361;" xml:space="preserve">
<g id="control_x5F_switch_x5F_m_x5F_4">
	<g>
		<g>
			<path style="fill:#FFFFFF;" d="M114.972,167.153c-1.553-0.644-0.485-10.813-0.485-12.465c0-8.001,0-16.001,0-24.002
				c0-5.406,0-10.812,0-16.218c0-1.478,7.818-0.682,9.081-0.682c13.966,0,27.932,0,41.897,0c0.634,0,1.938-0.357,1.938,0.47
				c0,1.931,0,3.863,0,5.794c0,7.461,0,14.922,0,22.383c0,7.571,0,15.142,0,22.713c0,1.226,0.4,1.953-0.932,1.953
				c-2.716,0-5.433,0-8.149,0c-14.583,0-29.167,0-43.75,0c-1.935,0-1.935,3,0,3c12.019,0,24.038,0,36.056,0
				c5.366,0,10.731,0,16.097,0c3.922,0,3.678-3.461,3.678-6.315c0-14.351,0-28.702,0-43.053c0-3.521,1.174-8.294-2.687-9.892
				c-0.827-0.342-2.267-0.054-3.116-0.054c-2.892,0-5.784,0-8.676,0c-11.28,0-22.56,0-33.84,0c-2.504,0-5.008,0-7.512,0
				c-3.31,0-3.086,3.564-3.086,5.823c0,10.883,0,21.766,0,32.649c0,4.842,0,9.684,0,14.526c0,2.816-0.331,5.01,2.687,6.261
				C115.961,170.787,116.732,167.883,114.972,167.153z"/>
		</g>
	</g>
	<path style="fill:none;stroke:#FFFFFF;stroke-width:10;stroke-miterlimit:10;" d="M81,286.844c-3.302,0-5.979-2.678-5.979-5.979
		V80.564c0-3.302,2.678-5.979,5.979-5.979h198.807c3.3,0,5.978,2.677,5.978,5.979v200.301c0,3.301-2.678,5.979-5.978,5.979H81z"/>
	<g>
		<g>
			<path style="fill:#FFFFFF;" d="M194.258,167.153c-1.553-0.644-0.484-10.813-0.484-12.465c0-8.001,0-16.001,0-24.002
				c0-5.406,0-10.812,0-16.218c0-1.478,7.818-0.682,9.081-0.682c13.967,0,27.933,0,41.898,0c0.635,0,1.938-0.357,1.938,0.47
				c0,1.931,0,3.863,0,5.794c0,7.461,0,14.922,0,22.383c0,7.571,0,15.142,0,22.713c0,1.226,0.4,1.953-0.931,1.953
				c-2.717,0-5.434,0-8.149,0c-14.584,0-29.167,0-43.751,0c-1.935,0-1.935,3,0,3c12.019,0,24.038,0,36.057,0
				c5.366,0,10.731,0,16.097,0c3.922,0,3.678-3.461,3.678-6.315c0-14.351,0-28.702,0-43.053c0-3.521,1.174-8.293-2.687-9.892
				c-0.827-0.343-2.267-0.054-3.116-0.054c-2.892,0-5.783,0-8.676,0c-11.28,0-22.56,0-33.84,0c-2.505,0-5.009,0-7.513,0
				c-3.31,0-3.086,3.564-3.086,5.823c0,10.883,0,21.766,0,32.649c0,4.842,0,9.684,0,14.526c0,2.816-0.331,5.01,2.688,6.261
				C195.248,170.786,196.019,167.882,194.258,167.153z"/>
		</g>
	</g>
	<g>
		<g>
			<path style="fill:#FFFFFF;" d="M115.01,246.941c-1.553-0.645-0.485-10.813-0.485-12.466c0-8,0-16.001,0-24.001
				c0-5.406,0-10.812,0-16.218c0-1.479,7.817-0.683,9.081-0.683c13.965,0,27.931,0,41.896,0c0.635,0,1.939-0.357,1.939,0.472
				c0,1.931,0,3.862,0,5.793c0,7.461,0,14.922,0,22.383c0,7.571,0,15.142,0,22.713c0,1.227,0.4,1.953-0.932,1.953
				c-2.716,0-5.433,0-8.149,0c-14.583,0-29.166,0-43.749,0c-1.935,0-1.935,3,0,3c12.019,0,24.037,0,36.056,0
				c5.365,0,10.731,0,16.096,0c3.922,0,3.679-3.461,3.679-6.315c0-14.351,0-28.701,0-43.052c0-3.521,1.174-8.295-2.688-9.893
				c-0.828-0.343-2.267-0.054-3.116-0.054c-2.892,0-5.784,0-8.675,0c-11.28,0-22.56,0-33.839,0c-2.504,0-5.008,0-7.512,0
				c-3.31,0-3.086,3.564-3.086,5.823c0,10.884,0,21.767,0,32.649c0,4.842,0,9.684,0,14.525c0,2.816-0.331,5.01,2.687,6.262
				C116,250.575,116.771,247.672,115.01,246.941z"/>
		</g>
	</g>
	<g>
		<g>
			<path style="fill:#FFFFFF;" d="M193.231,246.941c-1.553-0.645-0.484-10.813-0.484-12.466c0-8,0-16.001,0-24.001
				c0-5.406,0-10.812,0-16.218c0-1.479,7.817-0.683,9.081-0.683c13.966,0,27.931,0,41.896,0c0.635,0,1.939-0.357,1.939,0.472
				c0,1.931,0,3.862,0,5.793c0,7.461,0,14.922,0,22.383c0,7.571,0,15.142,0,22.713c0,1.227,0.399,1.953-0.933,1.953
				c-2.717,0-5.433,0-8.149,0c-14.583,0-29.166,0-43.749,0c-1.935,0-1.935,3,0,3c12.019,0,24.037,0,36.056,0
				c5.365,0,10.73,0,16.096,0c3.923,0,3.68-3.461,3.68-6.315c0-14.351,0-28.701,0-43.052c0-3.521,1.174-8.296-2.688-9.893
				c-0.827-0.343-2.267-0.054-3.116-0.054c-2.892,0-5.783,0-8.675,0c-11.28,0-22.56,0-33.84,0c-2.504,0-5.008,0-7.512,0
				c-3.31,0-3.086,3.565-3.086,5.823c0,10.884,0,21.767,0,32.649c0,4.842,0,9.684,0,14.525c0,2.816-0.331,5.01,2.688,6.262
				C194.221,250.576,194.992,247.672,193.231,246.941z"/>
		</g>
	</g>
</g>
<g id="Ebene_1">
</g>
</svg>
