<?xml version="1.0" encoding="iso-8859-1"?>
<!-- Generator: Adobe Illustrator 16.0.0, SVG Export Plug-In . SVG Version: 6.00 Build 0)  -->
<!DOCTYPE svg PUBLIC "-//W3C//DTD SVG 1.1//EN" "http://www.w3.org/Graphics/SVG/1.1/DTD/svg11.dtd">
<svg version="1.1" xmlns="http://www.w3.org/2000/svg" xmlns:xlink="http://www.w3.org/1999/xlink" x="0px" y="0px" width="361px"
	 height="361px" viewBox="0 0 361 361" style="enable-background:new 0 0 361 361;" xml:space="preserve">
<g id="control_x5F_plus">
	<path style="fill:none;stroke:#FFFFFF;stroke-width:10;stroke-miterlimit:10;" d="M173.333,193.667H105.5c-3.313,0-6-2.687-6-6
		v-13.333c0-3.313,2.687-6,6-6h67.833"/>
	<path style="fill:none;stroke:#FFFFFF;stroke-width:10;stroke-miterlimit:10;" d="M167.833,193.667"/>
	<path style="fill:none;stroke:#FFFFFF;stroke-width:10;stroke-miterlimit:10;" d="M188.666,168.333h70.167c3.313,0,6,2.687,6,6
		v13.333c0,3.313-2.687,6-6,6h-70.417"/>
	<path style="fill:none;stroke:#FFFFFF;stroke-width:10;stroke-miterlimit:10;" d="M193.166,168.333"/>
	<path style="fill:none;stroke:#FFFFFF;stroke-width:10;stroke-miterlimit:10;" d="M167.833,168.333"/>
	<path style="fill:none;stroke:#FFFFFF;stroke-width:10;stroke-miterlimit:10;" d="M193.354,193.354v65.666c0,3.314-2.686,6-6,6
		h-13.333c-3.313,0-6-2.686-5.75-5.916v-65.666"/>
	<path style="fill:none;stroke:#FFFFFF;stroke-width:10;stroke-miterlimit:10;" d="M168.271,168.521v-65.666c0-3.313,2.687-6,6-6
		h13.333c3.313,0,6,2.687,6,6v65.666"/>
</g>
<g id="Ebene_1">
</g>
</svg>
