<?xml version="1.0" encoding="iso-8859-1"?>
<!-- Generator: Adobe Illustrator 16.0.0, SVG Export Plug-In . SVG Version: 6.00 Build 0)  -->
<!DOCTYPE svg PUBLIC "-//W3C//DTD SVG 1.1//EN" "http://www.w3.org/Graphics/SVG/1.1/DTD/svg11.dtd">
<svg version="1.1" xmlns="http://www.w3.org/2000/svg" xmlns:xlink="http://www.w3.org/1999/xlink" x="0px" y="0px" width="361px"
	 height="361px" viewBox="0 0 361 361" style="enable-background:new 0 0 361 361;" xml:space="preserve">
<g id="control_x5F_standby">
	<g>
		<g>
			<path style="fill:#FFFFFF;" d="M204.496,110.854c6.153,0,12.308,0,18.461,0c7.973,0,15.146,0.375,21.439,6.112
				c8.739,7.966,7.014,20.302,7.014,30.936c0,27.054,0,54.109,0,81.163c0,14.21-10.149,23.941-24.228,23.941
				c-11.838,0-23.676,0-35.514,0c-15.364,0-30.727,0-46.09,0c-11.344,0-22.562,1.375-31.066-7.955
				c-7.17-7.866-5.253-20.768-5.253-30.589c0-15.584,0-31.168,0-46.752c0-11.139,0-22.278,0-33.417
				c0-7.455,2.874-14.406,8.943-18.986c6.369-4.807,13.661-4.452,21.147-4.452c5.791,0,11.582,0,17.373,0c6.449,0,6.449-10,0-10
				c-13.077,0-28.239-2.167-40.299,3.799c-9.952,4.923-15.715,15.198-17.03,25.872c-0.366,2.976-0.133,6.135-0.133,9.122
				c0,28.011,0,56.021,0,84.032c0,2.769-0.034,5.538,0.034,8.307c0.271,11.035,6.787,20.902,16.007,26.598
				c9.355,5.778,21.23,4.422,31.748,4.422c26.895,0,53.79,0,80.684,0c18.101,0,33.678-13.764,33.678-32.4c0-9.005,0-18.011,0-27.017
				c0-15.902,0-31.806,0-47.708c0-9.076,1.085-19.002-0.476-28.015c-2.668-15.41-16.266-27.011-31.964-27.011
				c-8.158,0-16.316,0-24.475,0C198.048,100.854,198.048,110.854,204.496,110.854L204.496,110.854z"/>
		</g>
	</g>
	<g>
		<g>
			<path style="fill:#FFFFFF;" d="M175.758,91.83c0,34.283,0,68.567,0,102.85c0,6.448,10,6.448,10,0c0-34.283,0-68.567,0-102.85
				C185.758,85.381,175.758,85.381,175.758,91.83L175.758,91.83z"/>
		</g>
	</g>
</g>
<g id="Ebene_1">
</g>
</svg>
