<?xml version="1.0" encoding="iso-8859-1"?>
<!-- Generator: Adobe Illustrator 16.0.0, SVG Export Plug-In . SVG Version: 6.00 Build 0)  -->
<!DOCTYPE svg PUBLIC "-//W3C//DTD SVG 1.1//EN" "http://www.w3.org/Graphics/SVG/1.1/DTD/svg11.dtd">
<svg version="1.1" xmlns="http://www.w3.org/2000/svg" xmlns:xlink="http://www.w3.org/1999/xlink" x="0px" y="0px" width="361px"
	 height="361px" viewBox="0 0 361 361" style="enable-background:new 0 0 361 361;" xml:space="preserve">
<g id="control_x5F_arrow_x5F_down">
	<path style="fill:none;stroke:#FFFFFF;stroke-width:10;stroke-miterlimit:10;" d="M129.899,180.831
		c-2.929,0-5.303-0.741-5.303-1.654v-28.69c0-0.914,2.374-1.655,5.303-1.655h103.396c2.928,0,5.302,0.741,5.302,1.655v28.69
		c0,0.913-2.374,1.654-5.302,1.654H129.899z"/>
	<g>
		<g>
			<path style="fill:#FFFFFF;" d="M256.844,179.017c-26.751,35-53.501,70-80.252,105c2.878,0,5.757,0,8.635,0
				c-26.75-35-53.5-70-80.251-105c-1.439,2.508-2.878,5.016-4.317,7.523c49.382,0,98.765,0,148.147,0c4.118,0,8.237,0,12.355,0
				c6.448,0,6.448-10,0-10c-49.383,0-98.765,0-148.147,0c-4.119,0-8.237,0-12.355,0c-3.435,0-6.707,4.397-4.317,7.523
				c26.75,35,53.5,70,80.251,105c2.429,3.178,6.206,3.178,8.635,0c26.751-35,53.501-70,80.252-105
				C269.396,178.938,260.703,173.967,256.844,179.017z"/>
		</g>
	</g>
</g>
<g id="Ebene_1">
</g>
</svg>
