<?xml version="1.0" encoding="iso-8859-1"?>
<!-- Generator: Adobe Illustrator 16.0.0, SVG Export Plug-In . SVG Version: 6.00 Build 0)  -->
<!DOCTYPE svg PUBLIC "-//W3C//DTD SVG 1.1 Tiny//EN" "http://www.w3.org/Graphics/SVG/1.1/DTD/svg11-tiny.dtd">
<svg version="1.1" baseProfile="tiny" id="control_x5F_arrow_x5F_rightward"
	 xmlns="http://www.w3.org/2000/svg" xmlns:xlink="http://www.w3.org/1999/xlink" x="0px" y="0px" width="361px" height="361px"
	 viewBox="0 0 361 361" xml:space="preserve">
<g>
	<g>
		<path fill="#FFFFFF" d="M173.772,235.305c-0.198,3.929,0.283,0.306,3.09,0.306c-0.408,0-0.815,0-1.222,0c-1.519,0-3.037,0-4.556,0
			c-3.732,0-7.464,0-11.196,0c-0.407,0-0.814,0-1.222,0c2.807,0,3.287,3.623,3.089-0.306c-0.007-0.148,0-0.299,0-0.447
			c0-1.261,0-2.522,0-3.783c0-12.861,0-25.722,0-38.583c0-15.313,0-30.627,0-45.94c0-4.319,0-8.637,0-12.956
			c0-0.581,0-1.162,0-1.742c0-3.903,0.073-0.304-3.089-0.304c0.408,0,0.815,0,1.222,0c1.827,0,3.654,0,5.481,0
			c3.001,0,6.002,0,9.004,0c0.83,0,1.659,0,2.489,0c-3.285,0-3.089-3.591-3.089,0.416c0,2.335,0,4.67,0,7.006
			c0,11.897,0,23.795,0,35.693C173.772,194.879,173.772,215.092,173.772,235.305c0,6.449,10,6.449,10,0c0-24.343,0-48.686,0-73.029
			c0-9.992,0-19.983,0-29.975c0-2.782-0.358-5.59-1.815-8.003c-1.842-3.051-5.281-2.747-8.326-2.747c-3.645,0-7.289,0-10.934-0.001
			c-2.833,0-6.133-0.477-8.345,1.735c-3.1,3.1-2.598,8.288-2.598,12.383c0,5.145,0,10.289,0,15.433c0,15.738,0,31.477,0,47.215
			c0,11.651,0,23.302,0,34.953c0,4.721,0.418,12.342,6.722,12.342c6.027,0,12.054,0,18.081,0c5.745,0,6.979-5.631,7.214-10.306
			C184.097,228.856,174.095,228.888,173.772,235.305z"/>
	</g>
	<g>
		<path fill="#FFFFFF" d="M176.958,107.598c35.018,26.765,70.036,53.53,105.055,80.294c0-2.878,0-5.756,0-8.635
			c-35.019,26.765-70.037,53.529-105.055,80.293c2.508,1.439,5.016,2.878,7.523,4.317c0-49.409,0-98.817,0-148.226
			c0-4.121,0-8.241,0-12.362c0-6.449-10-6.449-10,0c0,49.409,0,98.817,0,148.226c0,4.121,0,8.241,0,12.362
			c0,3.435,4.397,6.707,7.523,4.317c35.019-26.765,70.037-53.529,105.055-80.293c3.178-2.429,3.178-6.206,0-8.635
			c-35.018-26.765-70.036-53.53-105.055-80.294C176.88,95.046,171.909,103.738,176.958,107.598z"/>
	</g>
	<g>
		<path fill="#FFFFFF" d="M130.869,235.305c-0.198,3.929,0.283,0.306,3.09,0.306c-0.408,0-0.815,0-1.222,0c-1.519,0-3.037,0-4.556,0
			c-3.732,0-7.465,0-11.197,0c-0.407,0-0.814,0-1.222,0c2.807,0,3.289,3.623,3.091-0.306c-0.007-0.148,0-0.299,0-0.447
			c0-1.261,0-2.522,0-3.783c0-12.861,0-25.722,0-38.583c0-15.313,0-30.627,0-45.94c0-4.319,0-8.637,0-12.956
			c0-0.581,0-1.162,0-1.742c0-3.903,0.073-0.304-3.09-0.304c0.408,0,0.815,0,1.222,0c1.827,0,3.654,0,5.481,0
			c3.001,0,6.003,0,9.004,0c0.83,0,1.659,0,2.489,0c-3.287,0-3.09-3.591-3.09,0.416c0,2.335,0,4.67,0,7.006
			c0,11.897,0,23.795,0,35.693C130.869,194.879,130.869,215.092,130.869,235.305c0,6.449,10,6.449,10,0c0-24.343,0-48.686,0-73.029
			c0-9.992,0-19.983,0-29.975c0-2.782-0.359-5.59-1.815-8.003c-1.842-3.051-5.281-2.747-8.325-2.747c-3.645,0-7.29,0-10.934-0.001
			c-2.833,0-6.134-0.477-8.345,1.735c-3.1,3.1-2.597,8.288-2.597,12.383c0,5.145,0,10.289,0,15.433c0,15.738,0,31.477,0,47.215
			c0,11.651,0,23.302,0,34.953c0,4.72,0.417,12.342,6.72,12.342c6.027,0,12.054,0,18.081,0c5.745,0,6.979-5.631,7.214-10.306
			C141.194,228.856,131.192,228.888,130.869,235.305z"/>
	</g>
	<g>
		<path fill="#FFFFFF" d="M89.144,235.3c-0.198,3.928,0.282,0.305,3.088,0.305c-0.407,0-0.814,0-1.222,0c-1.519,0-3.037,0-4.556,0
			c-3.732,0-7.464,0-11.196,0c-0.407,0-0.814,0-1.222,0c2.806,0,3.288,3.623,3.09-0.305c-0.007-0.148,0-0.299,0-0.447
			c0-1.261,0-2.522,0-3.783c0-12.861,0-25.722-0.001-38.583c0-15.313,0-30.627,0-45.94c0-4.319,0-8.637,0-12.956
			c0-0.581,0-1.162,0-1.742c0-3.904,0.071-0.305-3.088-0.305c0.407,0,0.814,0,1.222,0c1.827,0,3.654,0,5.481,0
			c3.001,0,6.002,0,9.003,0c0.83,0,1.659,0,2.489,0c-3.284,0-3.088-3.59-3.088,0.417c0,2.335,0,4.67,0,7.006
			c0,11.897,0,23.795,0,35.693C89.144,194.875,89.144,215.087,89.144,235.3c0,6.449,10,6.449,10,0c0-24.343,0-48.686,0-73.029
			c0-9.992,0-19.983,0-29.975c0-2.782-0.358-5.591-1.816-8.004c-1.843-3.051-5.281-2.747-8.326-2.747c-3.645,0-7.289,0-10.933-0.001
			c-2.833,0-6.134-0.477-8.346,1.735c-3.1,3.1-2.597,8.289-2.597,12.384c0,5.145,0,10.289,0,15.433c0,15.738,0,31.477,0.001,47.215
			c0,11.651,0,23.302,0,34.953c0,4.72,0.418,12.341,6.721,12.341c6.026,0,12.053,0,18.08,0c5.745,0,6.98-5.63,7.216-10.305
			C99.469,228.852,89.468,228.883,89.144,235.3z"/>
	</g>
</g>
</svg>
