<?xml version="1.0" encoding="iso-8859-1"?>
<!-- Generator: Adobe Illustrator 16.0.3, SVG Export Plug-In . SVG Version: 6.00 Build 0)  -->
<!DOCTYPE svg PUBLIC "-//W3C//DTD SVG 1.1//EN" "http://www.w3.org/Graphics/SVG/1.1/DTD/svg11.dtd">
<svg version="1.1" xmlns="http://www.w3.org/2000/svg" xmlns:xlink="http://www.w3.org/1999/xlink" x="0px" y="0px" width="361px"
	 height="361px" viewBox="0 0 361 361" style="enable-background:new 0 0 361 361;" xml:space="preserve">
<g id="control_x5F_building_x5F_flat_x5F_s_x5F_filled">
	<g id="fill_1_">
		<path style="fill:#FFFFFF;" d="M103.254,130.002v109.945c0,2.716,2.131,4.919,4.761,4.919h138.842
			c2.629,0,4.761-2.203,4.761-4.919V118.002c0-2.716-2.132-4.919-4.761-4.919l-138.842,12
			C105.386,125.083,103.254,127.286,103.254,130.002z"/>
	</g>
	<g id="Haus_64_">
		<g>
			<g>
				<path style="fill:#FFFFFF;" d="M90.042,249.981c1.507,9.67,13.562,7.561,20.607,7.561c13.053,0,26.105,0,39.158,0
					c30.174,0,60.349,0,90.523,0c6.024,0,14.784,1.54,20.345-1.433c6.176-3.304,4.016-16.539,4.017-22.129
					c0.001-30.152,0.002-60.305,0.003-90.458c0.001-13.202,0.001-26.404,0.002-39.606c0-2.543-2.281-5.242-5-5
					c-49.242,4.375-98.484,8.751-147.726,13.126c-5.176,0.46-17.919-0.306-20.699,5.255c-1.553,3.106-1.408,5.811-1.408,9.116
					c0,4.788,0,9.576,0,14.364c0,30.22,0,60.44,0,90.66c0,5.738,0,11.477,0,17.215c0,6.448,10,6.448,10,0
					c0-22.752,0-45.505,0-68.257c0-14.604,0-29.209,0-43.814c0-4.074,0-8.147,0-12.222c0-0.716,0-1.432,0-2.147
					c0,0.994-2.17,1.099-0.279,0.931c50.822-4.516,101.645-9.032,152.468-13.547c2.548-0.227,5.096-0.453,7.644-0.679
					c-1.667-1.667-3.333-3.333-5-5c-0.002,47.313-0.004,94.625-0.006,141.938c0,0.824,0,1.649,0,2.474
					c0,0.91,2.074-0.787,0.709-0.787c-2.612,0-5.225,0-7.837,0c-12.105,0-24.212,0-36.318,0c-30.794,0-61.588,0-92.383,0
					c-4.844,0-9.688,0-14.532,0c-1.37,0-2.74,0-4.11,0c-2.392,0-0.5-0.002-0.535-0.219
					C98.694,240.967,89.059,243.675,90.042,249.981z"/>
			</g>
		</g>
		<g>
			<g>
				<path style="fill:#FFFFFF;" d="M283.363,96.667c-48.87,4.25-97.74,8.501-146.61,12.752c-19.529,1.699-39.057,3.397-58.586,5.096
					c-6.373,0.554-6.427,10.559,0,10c48.87-4.25,97.74-8.501,146.61-12.752c19.528-1.699,39.058-3.397,58.586-5.096
					C289.736,106.113,289.791,96.108,283.363,96.667L283.363,96.667z"/>
			</g>
		</g>
	</g>
	<g id="Erde_23_">
		<g>
			<g>
				<path style="fill:#FFFFFF;" d="M268.833,250.592c7.208,0,14.417,0,21.625,0c1.935,0,1.935-3,0-3c-7.208,0-14.417,0-21.625,0
					C266.898,247.592,266.898,250.592,268.833,250.592L268.833,250.592z"/>
			</g>
		</g>
		<g>
			<g>
				<path style="fill:#FFFFFF;" d="M283.391,281.786c1.531,0,3.063,0,4.595,0c1.908,0,3.5-1.592,3.5-3.5s-1.592-3.5-3.5-3.5
					c-1.531,0-3.063,0-4.595,0c-1.908,0-3.5,1.592-3.5,3.5S281.482,281.786,283.391,281.786L283.391,281.786z"/>
			</g>
		</g>
		<g>
			<g>
				<path style="fill:#FFFFFF;" d="M256.666,291.786c5.333,0,10.667,0,16,0c4.514,0,4.514-7,0-7c-5.333,0-10.667,0-16,0
					C252.152,284.786,252.152,291.786,256.666,291.786L256.666,291.786z"/>
			</g>
		</g>
		<g>
			<g>
				<path style="fill:#FFFFFF;" d="M268.25,285.786c2,0,4,0,6,0c1.908,0,3.5-1.592,3.5-3.5s-1.592-3.5-3.5-3.5c-2,0-4,0-6,0
					c-1.908,0-3.5,1.592-3.5,3.5S266.342,285.786,268.25,285.786L268.25,285.786z"/>
			</g>
		</g>
		<g>
			<g>
				<path style="fill:#FFFFFF;" d="M286.584,291.786c0.667,0,1.333,0,2,0c1.908,0,3.5-1.592,3.5-3.5s-1.592-3.5-3.5-3.5
					c-0.667,0-1.333,0-2,0c-1.908,0-3.5,1.592-3.5,3.5S284.676,291.786,286.584,291.786L286.584,291.786z"/>
			</g>
		</g>
		<g>
			<g>
				<path style="fill:#FFFFFF;" d="M267.666,271.474c-2,0-4,0-6,0c-1.908,0-3.5,1.592-3.5,3.5s1.592,3.5,3.5,3.5c2,0,4,0,6,0
					c1.908,0,3.5-1.592,3.5-3.5S269.574,271.474,267.666,271.474L267.666,271.474z"/>
			</g>
		</g>
		<g>
			<g>
				<path style="fill:#FFFFFF;" d="M265.666,259.453c-0.667,0-1.333,0-2,0c-1.908,0-3.5,1.592-3.5,3.5s1.592,3.5,3.5,3.5
					c0.667,0,1.333,0,2,0c1.908,0,3.5-1.592,3.5-3.5S267.574,259.453,265.666,259.453L265.666,259.453z"/>
			</g>
		</g>
		<g>
			<g>
				<path style="fill:#FFFFFF;" d="M288.5,257.953c-5.222,0-10.444,0-15.666,0c-4.514,0-4.514,7,0,7c5.222,0,10.444,0,15.666,0
					C293.014,264.953,293.014,257.953,288.5,257.953L288.5,257.953z"/>
			</g>
		</g>
		<g>
			<g>
				<path style="fill:#FFFFFF;" d="M284.834,265.953c-5.083,0-10.167,0-15.25,0c-4.514,0-4.514,7,0,7c5.083,0,10.167,0,15.25,0
					C289.348,272.953,289.348,265.953,284.834,265.953L284.834,265.953z"/>
			</g>
		</g>
		<g>
			<g>
				<path style="fill:#FFFFFF;" d="M288.168,251.953c-1.89,0-3.778,0-5.668,0c-1.908,0-3.5,1.592-3.5,3.5s1.592,3.5,3.5,3.5
					c1.89,0,3.778,0,5.668,0c1.908,0,3.5-1.592,3.5-3.5S290.076,251.953,288.168,251.953L288.168,251.953z"/>
			</g>
		</g>
		<g>
			<g>
				<path style="fill:#FFFFFF;" d="M273.501,253.62c-2,0-4,0-6,0c-1.908,0-3.5,1.592-3.5,3.5s1.592,3.5,3.5,3.5c2,0,4,0,6,0
					c1.908,0,3.5-1.592,3.5-3.5S275.409,253.62,273.501,253.62L273.501,253.62z"/>
			</g>
		</g>
		<g>
			<g>
				<path style="fill:#FFFFFF;" d="M256.104,263.89c-2,0-4,0-6,0c-1.908,0-3.5,1.592-3.5,3.5s1.592,3.5,3.5,3.5c2,0,4,0,6,0
					c1.908,0,3.5-1.592,3.5-3.5S258.012,263.89,256.104,263.89L256.104,263.89z"/>
			</g>
		</g>
		<g>
			<g>
				<path style="fill:#FFFFFF;" d="M287.833,269.953c-0.222,0-0.443,0-0.665,0c-1.908,0-3.5,1.592-3.5,3.5s1.592,3.5,3.5,3.5
					c0.222,0,0.443,0,0.665,0c1.908,0,3.5-1.592,3.5-3.5S289.741,269.953,287.833,269.953L287.833,269.953z"/>
			</g>
		</g>
		<g>
			<g>
				<path style="fill:#FFFFFF;" d="M73.75,282.89c2.337,0,4.673,0,7.01,0c4.514,0,4.514-7,0-7c-2.337,0-4.673,0-7.01,0
					C69.235,275.89,69.235,282.89,73.75,282.89L73.75,282.89z"/>
			</g>
		</g>
		<g>
			<g>
				<path style="fill:#FFFFFF;" d="M100.271,279.89c2.581,0,5.161,0,7.741,0c4.514,0,4.514-7,0-7c-2.581,0-5.161,0-7.741,0
					C95.756,272.89,95.756,279.89,100.271,279.89L100.271,279.89z"/>
			</g>
		</g>
		<g>
			<g>
				<path style="fill:#FFFFFF;" d="M96.834,268.89c5.083,0,10.167,0,15.25,0c4.514,0,4.514-7,0-7c-5.083,0-10.167,0-15.25,0
					C92.32,261.89,92.32,268.89,96.834,268.89L96.834,268.89z"/>
			</g>
		</g>
		<g>
			<g>
				<path style="fill:#FFFFFF;" d="M122.069,291.786c2,0,4,0,6,0c1.908,0,3.5-1.592,3.5-3.5s-1.592-3.5-3.5-3.5c-2,0-4,0-6,0
					c-1.908,0-3.5,1.592-3.5,3.5S120.161,291.786,122.069,291.786L122.069,291.786z"/>
			</g>
		</g>
		<g>
			<g>
				<path style="fill:#FFFFFF;" d="M246.238,284.277c-3,0-6.001,0-9.001,0c-4.514,0-4.514,7,0,7c3,0,6.001,0,9.001,0
					C250.752,291.277,250.752,284.277,246.238,284.277L246.238,284.277z"/>
			</g>
		</g>
		<g>
			<g>
				<path style="fill:#FFFFFF;" d="M259.237,268.277c-5.333,0-10.667,0-16,0c-4.514,0-4.514,7,0,7c5.333,0,10.667,0,16,0
					C263.751,275.277,263.751,268.277,259.237,268.277L259.237,268.277z"/>
			</g>
		</g>
		<g>
			<g>
				<path style="fill:#FFFFFF;" d="M79.874,251.578c-2,0-4,0-6,0c-1.908,0-3.5,1.592-3.5,3.5s1.592,3.5,3.5,3.5c2,0,4,0,6,0
					c1.908,0,3.5-1.592,3.5-3.5S81.782,251.578,79.874,251.578L79.874,251.578z"/>
			</g>
		</g>
		<g>
			<g>
				<path style="fill:#FFFFFF;" d="M240.487,260.536c-1.083,0-2.167,0-3.25,0c-1.908,0-3.5,1.592-3.5,3.5s1.592,3.5,3.5,3.5
					c1.083,0,2.167,0,3.25,0c1.908,0,3.5-1.592,3.5-3.5S242.396,260.536,240.487,260.536L240.487,260.536z"/>
			</g>
		</g>
		<g>
			<g>
				<path style="fill:#FFFFFF;" d="M76.583,272.953c0.667,0,1.333,0,2,0c1.908,0,3.5-1.592,3.5-3.5s-1.592-3.5-3.5-3.5
					c-0.667,0-1.333,0-2,0c-1.908,0-3.5,1.592-3.5,3.5S74.675,272.953,76.583,272.953L76.583,272.953z"/>
			</g>
		</g>
		<g>
			<g>
				<path style="fill:#FFFFFF;" d="M93.584,276.277c-0.667,0-1.333,0-2,0c-1.908,0-3.5,1.592-3.5,3.5s1.592,3.5,3.5,3.5
					c0.667,0,1.333,0,2,0c1.908,0,3.5-1.592,3.5-3.5S95.492,276.277,93.584,276.277L93.584,276.277z"/>
			</g>
		</g>
		<g>
			<g>
				<path style="fill:#FFFFFF;" d="M71.416,250.592c4.917,0,9.833,0,14.75,0c1.935,0,1.935-3,0-3c-4.917,0-9.833,0-14.75,0
					C69.481,247.592,69.481,250.592,71.416,250.592L71.416,250.592z"/>
			</g>
		</g>
		<g>
			<g>
				<path style="fill:#FFFFFF;" d="M196.164,284.786c-2,0-4,0-6,0c-1.908,0-3.5,1.592-3.5,3.5s1.592,3.5,3.5,3.5c2,0,4,0,6,0
					c1.908,0,3.5-1.592,3.5-3.5S198.072,284.786,196.164,284.786L196.164,284.786z"/>
			</g>
		</g>
		<g>
			<g>
				<path style="fill:#FFFFFF;" d="M87.833,263.89c-1.833,0-3.667,0-5.5,0c-1.908,0-3.5,1.592-3.5,3.5s1.592,3.5,3.5,3.5
					c1.833,0,3.667,0,5.5,0c1.908,0,3.5-1.592,3.5-3.5S89.741,263.89,87.833,263.89L87.833,263.89z"/>
			</g>
		</g>
		<g>
			<g>
				<path style="fill:#FFFFFF;" d="M172.5,266.953c3,0,6,0,9,0c4.514,0,4.514-7,0-7c-3,0-6,0-9,0
					C167.986,259.953,167.986,266.953,172.5,266.953L172.5,266.953z"/>
			</g>
		</g>
		<g>
			<g>
				<path style="fill:#FFFFFF;" d="M205.916,291.82c5.333,0,10.667,0,16,0c4.514,0,4.514-7,0-7c-5.333,0-10.667,0-16,0
					C201.402,284.82,201.402,291.82,205.916,291.82L205.916,291.82z"/>
			</g>
		</g>
		<g>
			<g>
				<path style="fill:#FFFFFF;" d="M221.375,277.729c2,0,4,0,6,0c1.908,0,3.5-1.592,3.5-3.5s-1.592-3.5-3.5-3.5c-2,0-4,0-6,0
					c-1.908,0-3.5,1.592-3.5,3.5S219.467,277.729,221.375,277.729L221.375,277.729z"/>
			</g>
		</g>
		<g>
			<g>
				<path style="fill:#FFFFFF;" d="M215.209,288.035c0.667,0,1.333,0,2,0c1.908,0,3.5-1.592,3.5-3.5s-1.592-3.5-3.5-3.5
					c-0.667,0-1.333,0-2,0c-1.908,0-3.5,1.592-3.5,3.5S213.301,288.035,215.209,288.035L215.209,288.035z"/>
			</g>
		</g>
		<g>
			<g>
				<path style="fill:#FFFFFF;" d="M213.75,264.584c-2,0-4,0-6,0c-1.908,0-3.5,1.592-3.5,3.5s1.592,3.5,3.5,3.5c2,0,4,0,6,0
					c1.908,0,3.5-1.592,3.5-3.5S215.658,264.584,213.75,264.584L213.75,264.584z"/>
			</g>
		</g>
		<g>
			<g>
				<path style="fill:#FFFFFF;" d="M222.834,260.751c-5.083,0-10.167,0-15.25,0c-4.514,0-4.514,7,0,7c5.083,0,10.167,0,15.25,0
					C227.348,267.751,227.348,260.751,222.834,260.751L222.834,260.751z"/>
			</g>
		</g>
		<g>
			<g>
				<path style="fill:#FFFFFF;" d="M233.834,278.584c-2,0-4,0-6,0c-1.908,0-3.5,1.592-3.5,3.5s1.592,3.5,3.5,3.5c2,0,4,0,6,0
					c1.908,0,3.5-1.592,3.5-3.5S235.742,278.584,233.834,278.584L233.834,278.584z"/>
			</g>
		</g>
		<g>
			<g>
				<path style="fill:#FFFFFF;" d="M135.882,271.917c-3,0-6,0-9,0c-4.514,0-4.514,7,0,7c3,0,6,0,9,0
					C140.396,278.917,140.396,271.917,135.882,271.917L135.882,271.917z"/>
			</g>
		</g>
		<g>
			<g>
				<path style="fill:#FFFFFF;" d="M152.736,260.549c-5.333,0-10.667,0-16,0c-4.514,0-4.514,7,0,7c5.333,0,10.667,0,16,0
					C157.25,267.549,157.25,260.549,152.736,260.549L152.736,260.549z"/>
			</g>
		</g>
		<g>
			<g>
				<path style="fill:#FFFFFF;" d="M152.402,271.786c-2,0-4,0-6,0c-1.908,0-3.5,1.592-3.5,3.5s1.592,3.5,3.5,3.5c2,0,4,0,6,0
					c1.908,0,3.5-1.592,3.5-3.5S154.31,271.786,152.402,271.786L152.402,271.786z"/>
			</g>
		</g>
		<g>
			<g>
				<path style="fill:#FFFFFF;" d="M139.069,265.786c-0.667,0-1.333,0-2,0c-1.908,0-3.5,1.592-3.5,3.5s1.592,3.5,3.5,3.5
					c0.667,0,1.333,0,2,0c1.908,0,3.5-1.592,3.5-3.5S140.977,265.786,139.069,265.786L139.069,265.786z"/>
			</g>
		</g>
		<g>
			<g>
				<path style="fill:#FFFFFF;" d="M144.902,291.786c2,0,4,0,6,0c1.908,0,3.5-1.592,3.5-3.5s-1.592-3.5-3.5-3.5c-2,0-4,0-6,0
					c-1.908,0-3.5,1.592-3.5,3.5S142.995,291.786,144.902,291.786L144.902,291.786z"/>
			</g>
		</g>
		<g>
			<g>
				<path style="fill:#FFFFFF;" d="M85.819,291.619c5.083,0,10.167,0,15.25,0c4.514,0,4.514-7,0-7c-5.083,0-10.167,0-15.25,0
					C81.305,284.619,81.305,291.619,85.819,291.619L85.819,291.619z"/>
			</g>
		</g>
		<g>
			<g>
				<path style="fill:#FFFFFF;" d="M124.569,271.786c2,0,4,0,6,0c1.908,0,3.5-1.592,3.5-3.5s-1.592-3.5-3.5-3.5c-2,0-4,0-6,0
					c-1.908,0-3.5,1.592-3.5,3.5S122.662,271.786,124.569,271.786L124.569,271.786z"/>
			</g>
		</g>
		<g>
			<g>
				<path style="fill:#FFFFFF;" d="M178.251,276.584c3,0,6.001,0,9.001,0c4.514,0,4.514-7,0-7c-3,0-6.001,0-9.001,0
					C173.737,269.584,173.737,276.584,178.251,276.584L178.251,276.584z"/>
			</g>
		</g>
		<g>
			<g>
				<path style="fill:#FFFFFF;" d="M159.584,291.82c5.333,0,10.667,0,16,0c4.514,0,4.514-7,0-7c-5.333,0-10.667,0-16,0
					C155.07,284.82,155.07,291.82,159.584,291.82L159.584,291.82z"/>
			</g>
		</g>
		<g>
			<g>
				<path style="fill:#FFFFFF;" d="M154.902,283.786c2,0,4,0,6,0c1.908,0,3.5-1.592,3.5-3.5s-1.592-3.5-3.5-3.5c-2,0-4,0-6,0
					c-1.908,0-3.5,1.592-3.5,3.5S152.995,283.786,154.902,283.786L154.902,283.786z"/>
			</g>
		</g>
		<g>
			<g>
				<path style="fill:#FFFFFF;" d="M173.251,287.584c0.667,0,1.333,0,2,0c1.908,0,3.5-1.592,3.5-3.5s-1.592-3.5-3.5-3.5
					c-0.667,0-1.333,0-2,0c-1.908,0-3.5,1.592-3.5,3.5S171.344,287.584,173.251,287.584L173.251,287.584z"/>
			</g>
		</g>
		<g>
			<g>
				<path style="fill:#FFFFFF;" d="M167.584,264.584c-3.722,0-7.444,0-11.166,0c-4.514,0-4.514,7,0,7c3.722,0,7.444,0,11.166,0
					C172.098,271.584,172.098,264.584,167.584,264.584L167.584,264.584z"/>
			</g>
		</g>
		<g>
			<g>
				<path style="fill:#FFFFFF;" d="M210.666,267.786c-3.902,0-7.806,0-11.708,0c-4.514,0-4.514,7,0,7c3.902,0,7.806,0,11.708,0
					C215.18,274.786,215.18,267.786,210.666,267.786L210.666,267.786z"/>
			</g>
		</g>
		<g>
			<g>
				<path style="fill:#FFFFFF;" d="M192.001,278.584c-2,0-4,0-6,0c-1.908,0-3.5,1.592-3.5,3.5s1.592,3.5,3.5,3.5c2,0,4,0,6,0
					c1.908,0,3.5-1.592,3.5-3.5S193.909,278.584,192.001,278.584L192.001,278.584z"/>
			</g>
		</g>
		<g>
			<g>
				<path style="fill:#FFFFFF;" d="M146.902,279.786c5.333,0,10.667,0,16,0c4.514,0,4.514-7,0-7c-5.333,0-10.667,0-16,0
					C142.388,272.786,142.388,279.786,146.902,279.786L146.902,279.786z"/>
			</g>
		</g>
		<g>
			<g>
				<path style="fill:#FFFFFF;" d="M118.012,275.203c-3,0-6,0-9,0c-4.514,0-4.514,7,0,7c3,0,6,0,9,0
					C122.526,282.203,122.526,275.203,118.012,275.203L118.012,275.203z"/>
			</g>
		</g>
		<g>
			<g>
				<path style="fill:#FFFFFF;" d="M123.636,260.536c-1.083,0-2.167,0-3.25,0c-1.908,0-3.5,1.592-3.5,3.5s1.592,3.5,3.5,3.5
					c1.083,0,2.167,0,3.25,0c1.908,0,3.5-1.592,3.5-3.5S125.544,260.536,123.636,260.536L123.636,260.536z"/>
			</g>
		</g>
		<g>
			<g>
				<path style="fill:#FFFFFF;" d="M99.584,265.167c-2,0-4,0-6,0c-1.908,0-3.5,1.592-3.5,3.5s1.592,3.5,3.5,3.5c2,0,4,0,6,0
					c1.908,0,3.5-1.592,3.5-3.5S101.492,265.167,99.584,265.167L99.584,265.167z"/>
			</g>
		</g>
		<g>
			<g>
				<path style="fill:#FFFFFF;" d="M87.26,281.035c-1.833,0-3.667,0-5.5,0c-1.908,0-3.5,1.592-3.5,3.5s1.592,3.5,3.5,3.5
					c1.833,0,3.667,0,5.5,0c1.908,0,3.5-1.592,3.5-3.5S89.168,281.035,87.26,281.035L87.26,281.035z"/>
			</g>
		</g>
		<g>
			<g>
				<path style="fill:#FFFFFF;" d="M189.416,270.89c5.083,0,10.167,0,15.25,0c4.514,0,4.514-7,0-7c-5.083,0-10.167,0-15.25,0
					C184.902,263.89,184.902,270.89,189.416,270.89L189.416,270.89z"/>
			</g>
		</g>
		<g>
			<g>
				<path style="fill:#FFFFFF;" d="M143.083,281.917c-0.667,0-1.333,0-2,0c-1.908,0-3.5,1.592-3.5,3.5s1.592,3.5,3.5,3.5
					c0.667,0,1.333,0,2,0c1.908,0,3.5-1.592,3.5-3.5S144.991,281.917,143.083,281.917L143.083,281.917z"/>
			</g>
		</g>
		<g>
			<g>
				<path style="fill:#FFFFFF;" d="M146.833,271.723c-0.667,0-1.333,0-2,0c-1.908,0-3.5,1.592-3.5,3.5s1.592,3.5,3.5,3.5
					c0.667,0,1.333,0,2,0c1.908,0,3.5-1.592,3.5-3.5S148.741,271.723,146.833,271.723L146.833,271.723z"/>
			</g>
		</g>
		<g>
			<g>
				<path style="fill:#FFFFFF;" d="M105.261,291.619c1.833,0,3.667,0,5.5,0c1.908,0,3.5-1.592,3.5-3.5s-1.592-3.5-3.5-3.5
					c-1.833,0-3.667,0-5.5,0c-1.908,0-3.5,1.592-3.5,3.5S103.354,291.619,105.261,291.619L105.261,291.619z"/>
			</g>
		</g>
		<g>
			<g>
				<path style="fill:#FFFFFF;" d="M73.332,290.667c0.667,0,1.333,0,2,0c1.908,0,3.5-1.592,3.5-3.5s-1.592-3.5-3.5-3.5
					c-0.667,0-1.333,0-2,0c-1.908,0-3.5,1.592-3.5,3.5S71.424,290.667,73.332,290.667L73.332,290.667z"/>
			</g>
		</g>
		<g>
			<g>
				<path style="fill:#FFFFFF;" d="M92.583,281.953c0.667,0,1.333,0,2,0c1.908,0,3.5-1.592,3.5-3.5s-1.592-3.5-3.5-3.5
					c-0.667,0-1.333,0-2,0c-1.908,0-3.5,1.592-3.5,3.5S90.675,281.953,92.583,281.953L92.583,281.953z"/>
			</g>
		</g>
		<g>
			<g>
				<path style="fill:#FFFFFF;" d="M103.833,272.89c-1.833,0-3.667,0-5.5,0c-1.908,0-3.5,1.592-3.5,3.5s1.592,3.5,3.5,3.5
					c1.833,0,3.667,0,5.5,0c1.908,0,3.5-1.592,3.5-3.5S105.741,272.89,103.833,272.89L103.833,272.89z"/>
			</g>
		</g>
		<g>
			<g>
				<path style="fill:#FFFFFF;" d="M250.834,283.292c0.667,0,1.333,0,2,0c1.908,0,3.5-1.592,3.5-3.5s-1.592-3.5-3.5-3.5
					c-0.667,0-1.333,0-2,0c-1.908,0-3.5,1.592-3.5,3.5S248.926,283.292,250.834,283.292L250.834,283.292z"/>
			</g>
		</g>
		<g>
			<g>
				<path style="fill:#FFFFFF;" d="M211.5,272.89c-3.722,0-7.444,0-11.166,0c-4.514,0-4.514,7,0,7c3.722,0,7.444,0,11.166,0
					C216.014,279.89,216.014,272.89,211.5,272.89L211.5,272.89z"/>
			</g>
		</g>
		<g>
			<g>
				<path style="fill:#FFFFFF;" d="M83.166,259.953c-3.278,0-6.556,0-9.833,0c-4.514,0-4.514,7,0,7c3.278,0,6.556,0,9.833,0
					C87.68,266.953,87.68,259.953,83.166,259.953L83.166,259.953z"/>
			</g>
		</g>
		<g>
			<g>
				<path style="fill:#FFFFFF;" d="M140.46,280.584c-3.722,0-7.444,0-11.166,0c-4.514,0-4.514,7,0,7c3.722,0,7.444,0,11.166,0
					C144.975,287.584,144.975,280.584,140.46,280.584L140.46,280.584z"/>
			</g>
		</g>
	</g>
</g>
<g id="Ebene_1">
</g>
</svg>
