<?xml version="1.0" encoding="iso-8859-1"?>
<!-- Generator: Adobe Illustrator 16.0.0, SVG Export Plug-In . SVG Version: 6.00 Build 0)  -->
<!DOCTYPE svg PUBLIC "-//W3C//DTD SVG 1.1 Tiny//EN" "http://www.w3.org/Graphics/SVG/1.1/DTD/svg11-tiny.dtd">
<svg version="1.1" baseProfile="tiny" id="control_x5F_home"
	 xmlns="http://www.w3.org/2000/svg" xmlns:xlink="http://www.w3.org/1999/xlink" x="0px" y="0px" width="361px" height="361px"
	 viewBox="0 0 361 361" xml:space="preserve">
<g>
	<path fill="#FFFFFF" d="M261.073,240.074c-0.253,11.588-7.393,21.571-18.426,25.297c-3.954,1.335-7.984,1.266-12.073,1.266
		c-12.303,0-24.606,0-36.909,0c-23.792,0-47.584,0-71.376,0c-11.548,0-21.632-7.572-25.297-18.426
		c-1.334-3.954-1.265-7.984-1.265-12.073c0-12.303,0-24.606,0-36.909c0-23.792,0-47.585,0-71.377
		c0-11.548,7.571-21.632,18.426-25.297c3.954-1.335,7.984-1.266,12.073-1.266c12.303,0,24.606,0,36.909,0
		c23.792,0,47.584,0,71.376,0c11.548,0,21.632,7.572,25.297,18.426c1.335,3.954,1.266,7.984,1.266,12.073
		c0,12.303,0,24.606,0,36.909C261.073,192.489,261.073,216.281,261.073,240.074c0,6.449,10,6.449,10,0c0-23.792,0-47.585,0-71.377
		c0-12.303,0-24.606,0-36.909c0-15.611-6.131-29.773-20.843-36.934c-9.375-4.563-20.073-3.565-30.189-3.565
		c-15.042,0-30.083,0-45.125,0c-14.228,0-28.456,0-42.684,0c-3.176,0-6.352,0-9.528,0c-8.913,0-16.864,3.087-23.837,8.516
		c-11.256,8.764-13.14,22.028-13.14,35.198c0,13.507,0,27.015,0,40.522c0,15.483,0,30.967,0,46.451
		c0,9.006-0.909,18.776,1.247,27.601c4.215,17.248,20.607,27.06,37.498,27.06c11.303,0,22.606,0,33.91,0c25.28,0,50.561,0,75.84,0
		c20.337,0,36.412-16.445,36.852-36.563C271.214,233.621,261.214,233.635,261.073,240.074z"/>
</g>
</svg>
