<?xml version="1.0" encoding="iso-8859-1"?>
<!-- Generator: Adobe Illustrator 16.0.0, SVG Export Plug-In . SVG Version: 6.00 Build 0)  -->
<!DOCTYPE svg PUBLIC "-//W3C//DTD SVG 1.1 Tiny//EN" "http://www.w3.org/Graphics/SVG/1.1/DTD/svg11-tiny.dtd">
<svg version="1.1" baseProfile="tiny" id="control_x5F_building_x5F_outside"
	 xmlns="http://www.w3.org/2000/svg" xmlns:xlink="http://www.w3.org/1999/xlink" x="0px" y="0px" width="361px" height="361px"
	 viewBox="0 0 361 361" xml:space="preserve">
<g id="Zahnrad_1_">
	<path fill="#FFFFFF" stroke="#FFFFFF" stroke-width="3" stroke-linejoin="round" stroke-miterlimit="10" d="M283.684,92.949
		l4.115-0.428l-0.417-3.967l-4.111,0.437l-2.193-4.921l3.077-2.764l-2.669-2.964l-3.071,2.771l-4.664-2.697l0.864-4.042l-3.902-0.83
		l-0.855,4.047l-5.358,0.56l-1.677-3.778l-3.645,1.622l1.687,3.776l-4.002,3.605l-3.581-2.072l-1.995,3.455l3.582,2.063
		l-1.123,5.112l-4.109,0.586l0.417,3.967l4.111-0.437l2.193,4.921l-3.077,2.764l2.669,2.964l3.071-2.772l4.664,2.697l-0.864,4.042
		l3.902,0.83l0.855-4.047l5.358-0.56l1.677,3.778l3.644-1.622l-1.661-3.792l3.978-3.59l3.58,2.072l1.995-3.455l-3.582-2.063
		L283.684,92.949z M268.719,104.202c-6.451,0-11.68-5.23-11.68-11.681c0-6.451,5.229-11.68,11.68-11.68
		c6.451,0,11.681,5.229,11.681,11.68C280.399,98.972,275.169,104.202,268.719,104.202z"/>
	<path fill="#FFFFFF" stroke="#FFFFFF" stroke-width="3" stroke-linejoin="round" stroke-miterlimit="10" d="M259.515,122.954
		l4.132-0.199l-0.197-3.984l-4.129,0.208l-1.917-5.035l3.225-2.59l-2.501-3.107l-3.22,2.598l-4.508-2.951l1.086-3.987l-3.85-1.044
		l-1.078,3.994l-5.381,0.263l-1.465-3.865l-3.729,1.418l1.475,3.864l-4.195,3.378l-3.46-2.267l-2.183,3.339l3.463,2.257
		l-1.404,5.042l-4.135,0.358l0.197,3.984l4.129-0.208l1.918,5.035l-3.226,2.59l2.501,3.107l3.22-2.598l4.507,2.951l-1.086,3.988
		l3.85,1.044l1.077-3.994l5.381-0.263l1.466,3.865l3.728-1.418l-1.449-3.877l4.17-3.364l3.459,2.267l2.183-3.339l-3.463-2.257
		L259.515,122.954z M244.596,133.38c-6.451,0-11.68-5.23-11.68-11.681c0-6.451,5.229-11.681,11.68-11.681
		c6.451,0,11.681,5.229,11.681,11.681C256.277,128.149,251.047,133.38,244.596,133.38z"/>
	<g>
		<g>
			<path fill="#FFFFFF" stroke="#FFFFFF" stroke-width="3" stroke-linejoin="round" stroke-miterlimit="10" d="M279.895,127.932
				l2.521-0.321c-0.423-1.278-1.143-2.452-2.118-3.412l-1.374,2.226L279.895,127.932z"/>
			<path fill="#FFFFFF" stroke="#FFFFFF" stroke-width="3" stroke-linejoin="round" stroke-miterlimit="10" d="M280.297,124.199
				l1.854-3.006l-3.058-1.873l-1.806,2.97c0.117,0.043,0.235,0.079,0.351,0.128C278.661,122.852,279.55,123.465,280.297,124.199z"/>
			<path fill="#FFFFFF" stroke="#FFFFFF" stroke-width="3" stroke-linejoin="round" stroke-miterlimit="10" d="M275.899,124.574
				l1.388-2.283c-1.35-0.503-2.75-0.644-4.093-0.465l0.921,2.567L275.899,124.574z"/>
			<path fill="#FFFFFF" stroke="#FFFFFF" stroke-width="3" stroke-linejoin="round" stroke-miterlimit="10" d="M282.811,131.151
				l3.624-0.438l-0.442-3.559l-3.577,0.457C282.788,128.737,282.934,129.941,282.811,131.151z"/>
			<path fill="#FFFFFF" stroke="#FFFFFF" stroke-width="3" stroke-linejoin="round" stroke-miterlimit="10" d="M270.783,125.602
				l-0.946-2.583c-1.174,0.721-2.18,1.73-2.905,2.98l2.597,0.885L270.783,125.602z"/>
			<path fill="#FFFFFF" stroke="#FFFFFF" stroke-width="3" stroke-linejoin="round" stroke-miterlimit="10" d="M272.039,118.607
				l-3.371,1.223l1.169,3.189c1.021-0.627,2.165-1.034,3.357-1.193L272.039,118.607z"/>
			<path fill="#FFFFFF" stroke="#FFFFFF" stroke-width="3" stroke-linejoin="round" stroke-miterlimit="10" d="M279.759,133.15
				l1.759,1.708c0.248-0.392,0.476-0.803,0.662-1.245c0.341-0.806,0.547-1.635,0.631-2.462l-2.48,0.3L279.759,133.15z"/>
			<path fill="#FFFFFF" stroke="#FFFFFF" stroke-width="3" stroke-linejoin="round" stroke-miterlimit="10" d="M266.381,133.454
				l-2.943,1.882l1.943,3.014l2.986-1.938C267.499,135.568,266.823,134.559,266.381,133.454z"/>
			<path fill="#FFFFFF" stroke="#FFFFFF" stroke-width="3" stroke-linejoin="round" stroke-miterlimit="10" d="M275.595,136.297
				l-0.241,2.46c1.314-0.163,2.573-0.625,3.674-1.353l-1.748-1.72L275.595,136.297z"/>
			<path fill="#FFFFFF" stroke="#FFFFFF" stroke-width="3" stroke-linejoin="round" stroke-miterlimit="10" d="M271.805,138.452
				l-0.376,3.602l3.567,0.36l0.358-3.657C274.188,138.902,272.982,138.815,271.805,138.452z"/>
			<path fill="#FFFFFF" stroke="#FFFFFF" stroke-width="3" stroke-linejoin="round" stroke-miterlimit="10" d="M266.932,125.999
				l-3.221-1.098l-1.146,3.397l3.253,1.085c0.086-0.815,0.29-1.63,0.625-2.424C266.586,126.624,266.754,126.307,266.932,125.999z"/>
			<path fill="#FFFFFF" stroke="#FFFFFF" stroke-width="3" stroke-linejoin="round" stroke-miterlimit="10" d="M279.028,137.405
				l2.634,2.592l2.507-2.565l-2.651-2.575C280.862,135.894,280.011,136.756,279.028,137.405z"/>
			<path fill="#FFFFFF" stroke="#FFFFFF" stroke-width="3" stroke-linejoin="round" stroke-miterlimit="10" d="M268.396,130.244
				l-2.578-0.86c-0.149,1.399,0.054,2.795,0.563,4.069l2.237-1.431L268.396,130.244z"/>
			<path fill="#FFFFFF" stroke="#FFFFFF" stroke-width="3" stroke-linejoin="round" stroke-miterlimit="10" d="M270.538,135.004
				l-2.17,1.408c0.739,0.717,1.613,1.317,2.618,1.742c0.271,0.114,0.544,0.214,0.819,0.298l0.262-2.512L270.538,135.004z"/>
		</g>
		
			<circle fill="none" stroke="#FFFFFF" stroke-width="5" stroke-linejoin="round" stroke-miterlimit="10" cx="274.285" cy="130.49" r="5.917"/>
	</g>
</g>
<g>
	<polygon fill="#FFFFFF" points="72.159,159.045 71.915,78.045 178.716,159.045 	"/>
	<g>
		<path fill="#FFFFFF" d="M77.159,159.045c-0.082-27-0.163-54-0.245-81c-2.508,1.439-5.016,2.878-7.523,4.317
			c35.59,26.992,71.18,53.984,106.77,80.976c0.01,0.008,0.021,0.016,0.031,0.024c0.841-3.106,1.682-6.211,2.523-9.317
			c-35.519,0-71.038,0-106.557,0c-6.449,0-6.449,10,0,10c35.519,0,71.038,0,106.557,0c5.402,0,6.252-6.489,2.523-9.317
			c-35.59-26.992-71.18-53.984-106.77-80.976c-0.01-0.008-0.021-0.016-0.031-0.024c-3.125-2.371-7.534,0.868-7.523,4.317
			c0.082,27,0.163,54,0.245,81C67.179,165.493,77.179,165.495,77.159,159.045z"/>
	</g>
</g>
<path fill="none" stroke="#FFFFFF" stroke-width="10" stroke-miterlimit="10" d="M124.915,283.866c0,3.136-2.687,5.679-6,5.679
	h-23.5c-3.313,0-6-2.542-6-5.679v-68.143c0-3.136,2.687-5.679,6-5.679h23.5c3.313,0,6,2.542,6,5.679V283.866z"/>
<path fill="none" stroke="#FFFFFF" stroke-width="10" stroke-miterlimit="10" d="M160.315,284.378c0,3.222-4.727,5.834-10.558,5.834
	H82.873c-5.832,0-10.558-2.612-10.558-5.834v-122.5c0-3.222,4.727-5.833,10.558-5.833h66.884c5.832,0,10.558,2.612,10.558,5.833
	V284.378z"/>
<g id="zaun">
	<g>
		<path fill="#FFFFFF" d="M183.669,236.021c0,18.044,0,36.088,0,54.132c0,4.514,7,4.514,7,0c0-18.044,0-36.088,0-54.132
			C190.669,231.507,183.669,231.507,183.669,236.021L183.669,236.021z"/>
	</g>
	<g>
		<path fill="#FFFFFF" d="M195.02,236.08c0,18.044,0,36.088,0,54.132c0,4.514,7,4.514,7,0c0-18.044,0-36.088,0-54.132
			C202.02,231.566,195.02,231.566,195.02,236.08L195.02,236.08z"/>
	</g>
	<g>
		<path fill="#FFFFFF" d="M206.37,236.08c0,18.044,0,36.088,0,54.132c0,4.514,7,4.514,7,0c0-18.044,0-36.088,0-54.132
			C213.37,231.566,206.37,231.566,206.37,236.08L206.37,236.08z"/>
	</g>
	<g>
		<path fill="#FFFFFF" d="M217.72,236.08c0,18.044,0,36.088,0,54.132c0,4.514,7,4.514,7,0c0-18.044,0-36.088,0-54.132
			C224.72,231.566,217.72,231.566,217.72,236.08L217.72,236.08z"/>
	</g>
	<g>
		<path fill="#FFFFFF" d="M229.069,236.021c0,18.044,0,36.088,0,54.132c0,4.514,7,4.514,7,0c0-18.044,0-36.088,0-54.132
			C236.069,231.507,229.069,231.507,229.069,236.021L229.069,236.021z"/>
	</g>
	<g>
		<path fill="#FFFFFF" d="M240.42,236.08c0,18.044,0,36.088,0,54.132c0,4.514,7,4.514,7,0c0-18.044,0-36.088,0-54.132
			C247.42,231.566,240.42,231.566,240.42,236.08L240.42,236.08z"/>
	</g>
	<g>
		<path fill="#FFFFFF" d="M251.771,236.08c0,18.044,0,36.088,0,54.132c0,4.514,7,4.514,7,0c0-18.044,0-36.088,0-54.132
			C258.771,231.566,251.771,231.566,251.771,236.08L251.771,236.08z"/>
	</g>
	<g>
		<path fill="#FFFFFF" d="M263.121,236.08c0,18.044,0,36.088,0,54.132c0,4.514,7,4.514,7,0c0-18.044,0-36.088,0-54.132
			C270.121,231.566,263.121,231.566,263.121,236.08L263.121,236.08z"/>
	</g>
	<g>
		<path fill="#FFFFFF" d="M274.471,236.021c0,18.044,0,36.088,0,54.132c0,4.514,7,4.514,7,0c0-18.044,0-36.088,0-54.132
			C281.471,231.507,274.471,231.507,274.471,236.021L274.471,236.021z"/>
	</g>
	<g>
		<path fill="#FFFFFF" d="M182.77,250.057c33.868,0,67.736,0,101.604,0c4.514,0,4.514-7,0-7c-33.868,0-67.736,0-101.604,0
			C178.256,243.057,178.256,250.057,182.77,250.057L182.77,250.057z"/>
	</g>
	<g>
		<path fill="#FFFFFF" d="M182.446,282.885c34.053,0,68.107,0,102.16,0c4.514,0,4.514-7,0-7c-34.053,0-68.107,0-102.16,0
			C177.932,275.885,177.932,282.885,182.446,282.885L182.446,282.885z"/>
	</g>
</g>
</svg>
