<?xml version="1.0" encoding="iso-8859-1"?>
<!-- Generator: Adobe Illustrator 16.0.0, SVG Export Plug-In . SVG Version: 6.00 Build 0)  -->
<!DOCTYPE svg PUBLIC "-//W3C//DTD SVG 1.1//EN" "http://www.w3.org/Graphics/SVG/1.1/DTD/svg11.dtd">
<svg version="1.1" xmlns="http://www.w3.org/2000/svg" xmlns:xlink="http://www.w3.org/1999/xlink" x="0px" y="0px" width="361px"
	 height="361px" viewBox="0 0 361 361" style="enable-background:new 0 0 361 361;" xml:space="preserve">
<g id="control_x5F_building_x5F_2_x5F_s_x5F_dg">
	<g>
		<g>
			<path style="fill:#FFFFFF;" d="M177.896,80.364c30.108,22.835,60.217,45.67,90.326,68.505c0.841-3.106,1.683-6.211,2.523-9.317
				c-30.036,0.154-60.072,0.309-90.108,0.463c-6.447,0.033-6.45,10.033,0,10c30.036-0.154,60.072-0.309,90.108-0.463
				c5.393-0.028,6.268-6.478,2.523-9.317c-30.108-22.835-60.217-45.67-90.326-68.505C177.802,67.83,172.829,76.521,177.896,80.364
				L177.896,80.364z"/>
			<path style="fill:#FFFFFF;" d="M273.106,140.234c-29.96-22.835-59.921-45.67-89.881-68.505c-1.254-0.956-3.794-0.956-5.047,0
				c-29.96,22.835-59.921,45.67-89.881,68.505c-3.717,2.833-2.888,9.317,2.523,9.317c49.926,0,99.853,0,149.779,0
				c9.994,0,19.989,0,29.983,0c6.448,0,6.448-10,0-10c-49.927,0-99.853,0-149.779,0c-9.995,0-19.989,0-29.983,0
				c0.841,3.106,1.683,6.211,2.523,9.317c29.96-22.835,59.921-45.67,89.882-68.505c-1.683,0-3.365,0-5.047,0
				c29.96,22.835,59.92,45.67,89.881,68.505C273.19,152.78,278.163,144.088,273.106,140.234z"/>
		</g>
	</g>
	<g>
		<g>
			<path style="fill:#FFFFFF;" d="M244.523,281.64c0.119-0.612,2.896-0.431,0.289-0.431c-1.465,0-2.931,0-4.396,0
				c-5.081,0-10.163,0-15.244,0c-15.325,0-30.651,0-45.977,0c-15.068,0-30.137,0-45.206,0c-4.76,0-9.52,0-14.279,0
				c-1.186,0-2.373,0-3.559,0c-2.266,0,0.889,0.446,0.889,1.604c0-23.229,0-46.46,0-69.689c0-15.037,0-30.074,0-45.111
				c0-4.852,0-9.703,0-14.554c0-1.282,0-2.564,0-3.847c0-2.691,0.264,0.404-1.827,0.404c22.99,0,45.98,0,68.97,0
				c14.88,0,29.76,0,44.64,0c4.537,0,9.074,0,13.611,0c1.049,0,2.098,0,3.146,0c1.829,0-1.236-2.634-1.236-1.414
				c0,44.79,0,89.579,0,134.368c0,6.448,10,6.448,10,0c0-44.875,0-89.751,0-134.626c0-10.524-13.427-8.327-20.264-8.327
				c-13.988,0-27.978,0-41.966,0c-25.321,0-50.642,0-75.963,0c-9.931,0-9.111,9.228-9.111,16.197c0,12.772,0,25.546,0,38.318
				c0,27.881,0,55.762,0,83.643c0,2.542-0.064,4.883,0.425,7.387c0.977,5.008,6.364,5.649,10.467,5.649c10.801,0,21.602,0,32.402,0
				c29.229,0,58.457,0,87.686,0c6.195,0,14.553,1.25,16.146-6.911C255.396,277.999,245.758,275.313,244.523,281.64z"/>
		</g>
	</g>
	<g>
		<line style="fill:#FFFFFF;" x1="119.521" y1="215.75" x2="241.99" y2="215.75"/>
		<g>
			<path style="fill:#FFFFFF;" d="M119.521,217.25c40.823,0,81.646,0,122.47,0c1.935,0,1.935-3,0-3c-40.823,0-81.646,0-122.47,0
				C117.586,214.25,117.586,217.25,119.521,217.25L119.521,217.25z"/>
		</g>
	</g>
	<g id="DG_22_">
		<path style="fill:#FFFFFF;" d="M173.787,113.522c-0.4-0.773-0.947-1.394-1.64-1.86c-0.694-0.466-1.587-0.7-2.68-0.7
			c-0.214,0-0.454,0.007-0.72,0.02c-0.267,0.015-0.507,0.047-0.72,0.101v16.641c0.133,0.027,0.28,0.041,0.44,0.041
			c0.16,0,0.306,0,0.44,0c1.12,0,2.06-0.214,2.82-0.641c0.761-0.426,1.374-1.013,1.84-1.76s0.8-1.633,1-2.66
			c0.2-1.026,0.3-2.154,0.3-3.38c0-1.066-0.08-2.106-0.24-3.12C174.468,115.189,174.188,114.296,173.787,113.522z"/>
		<path style="fill:#FFFFFF;" d="M241.513,130.73l-58.455-44.038c-1.347-1.015-3.202-1.015-4.549,0l-58.455,44.038
			c-1.298,0.978-1.826,2.677-1.311,4.218c0.516,1.542,1.959,2.581,3.585,2.581h116.91c1.625,0,3.068-1.04,3.585-2.581
			C243.339,133.407,242.811,131.708,241.513,130.73z M179.008,125.183c-0.574,1.614-1.367,2.927-2.38,3.94
			c-1.014,1.014-2.221,1.754-3.62,2.22c-1.4,0.466-2.94,0.7-4.621,0.7c-0.88,0-1.74-0.047-2.581-0.14
			c-0.84-0.094-1.74-0.247-2.7-0.46v-24.162c1.12-0.24,2.173-0.4,3.16-0.48c0.986-0.08,1.907-0.12,2.761-0.12
			c1.626,0,3.113,0.24,4.46,0.72s2.487,1.233,3.42,2.26c0.933,1.027,1.66,2.334,2.18,3.92c0.52,1.587,0.78,3.5,0.78,5.741
			C179.868,121.617,179.582,123.57,179.008,125.183z M188.429,125.863c0.933,1.4,2.306,2.101,4.12,2.101
			c0.293,0,0.613-0.014,0.96-0.041c0.347-0.026,0.667-0.066,0.96-0.12v-9.041h4.921v12.361c-0.587,0.214-1.501,0.454-2.74,0.72
			c-1.24,0.266-2.74,0.4-4.5,0.4c-1.548,0-2.94-0.274-4.181-0.82c-1.24-0.546-2.301-1.36-3.181-2.44
			c-0.88-1.08-1.56-2.426-2.04-4.04s-0.72-3.486-0.72-5.621c0-2.106,0.279-3.967,0.84-5.581c0.56-1.614,1.32-2.966,2.28-4.06
			s2.094-1.914,3.4-2.46c1.307-0.546,2.706-0.82,4.2-0.82c0.96,0,1.82,0.074,2.58,0.22c0.761,0.147,1.42,0.314,1.979,0.5
			c0.561,0.187,1.021,0.387,1.381,0.6c0.359,0.214,0.633,0.374,0.82,0.48l-1.28,3.92c-0.587-0.373-1.307-0.706-2.16-1
			c-0.854-0.293-1.733-0.44-2.641-0.44c-1.174,0-2.16,0.214-2.96,0.64c-0.8,0.427-1.46,1.02-1.98,1.78
			c-0.52,0.76-0.893,1.667-1.12,2.721c-0.227,1.053-0.339,2.22-0.339,3.5C187.029,122.283,187.495,124.463,188.429,125.863z"/>
	</g>
	<path id="EG_27_" style="display:none;fill:#FFFFFF;" d="M238.393,152.068H123.35c-2.179,0-3.945,1.825-3.945,4.076v52.27
		c0,2.25,1.766,4.075,3.945,4.075h115.043c2.178,0,3.944-1.825,3.944-4.075v-52.27C242.337,153.894,240.57,152.068,238.393,152.068z
		 M179.286,194.523h-15.88v-24.759h15v4.08h-10.08v5.56h8.76v4.081h-8.76v6.959h10.96V194.523z M188.365,188.664
		c0.934,1.4,2.307,2.1,4.121,2.1c0.293,0,0.612-0.013,0.959-0.039c0.347-0.027,0.666-0.066,0.961-0.121v-9.039h4.92v12.359
		c-0.588,0.214-1.5,0.453-2.74,0.721c-1.24,0.266-2.74,0.399-4.5,0.399c-1.547,0-2.94-0.274-4.18-0.819
		c-1.24-0.547-2.301-1.361-3.181-2.441c-0.88-1.079-1.56-2.426-2.04-4.039s-0.72-3.486-0.72-5.62c0-2.106,0.28-3.966,0.84-5.58
		c0.56-1.613,1.32-2.966,2.28-4.06c0.96-1.093,2.093-1.913,3.4-2.46c1.306-0.546,2.705-0.82,4.199-0.82c0.96,0,1.82,0.074,2.58,0.22
		c0.76,0.147,1.42,0.314,1.98,0.5c0.56,0.187,1.02,0.387,1.38,0.6c0.36,0.214,0.633,0.374,0.819,0.48l-1.279,3.92
		c-0.587-0.373-1.307-0.706-2.16-1c-0.854-0.293-1.734-0.44-2.641-0.44c-1.174,0-2.16,0.214-2.959,0.64
		c-0.801,0.427-1.461,1.02-1.98,1.78c-0.52,0.76-0.894,1.667-1.12,2.72c-0.227,1.054-0.34,2.22-0.34,3.5
		C186.966,185.084,187.432,187.264,188.365,188.664z"/>
	<path id="KG_23_" style="display:none;fill:#FFFFFF;" d="M238.225,218.902H123.183c-2.179,0-3.945,1.824-3.945,4.075v52.27
		c0,2.251,1.766,4.075,3.945,4.075h115.042c2.18,0,3.945-1.824,3.945-4.075v-52.27C242.17,220.727,240.404,218.902,238.225,218.902z
		 M174.689,262.548c-0.294-0.933-0.714-1.94-1.26-3.021c-0.547-1.08-1.154-2.133-1.82-3.16c-0.667-1.025-1.367-1.985-2.1-2.879
		s-1.434-1.646-2.1-2.26v11.319h-4.92v-24.76h4.92v10.28c0.586-0.746,1.2-1.574,1.84-2.48s1.246-1.813,1.82-2.721
		c0.573-0.906,1.1-1.799,1.58-2.68c0.48-0.88,0.88-1.68,1.2-2.399h5.56c-0.374,0.72-0.82,1.54-1.34,2.46s-1.114,1.88-1.78,2.88
		c-0.667,1-1.38,2.021-2.14,3.06c-0.76,1.041-1.554,2.041-2.38,3c0.826,0.801,1.666,1.721,2.52,2.76
		c0.853,1.041,1.66,2.154,2.42,3.341c0.76,1.187,1.446,2.399,2.06,3.64c0.613,1.24,1.106,2.447,1.48,3.62H174.689z M188.169,256.688
		c0.933,1.4,2.306,2.101,4.12,2.101c0.293,0,0.613-0.013,0.96-0.04c0.347-0.026,0.666-0.066,0.96-0.12v-9.04h4.92v12.359
		c-0.587,0.215-1.5,0.454-2.74,0.721c-1.24,0.266-2.74,0.4-4.5,0.4c-1.547,0-2.939-0.274-4.18-0.82c-1.24-0.547-2.3-1.36-3.18-2.44
		c-0.881-1.079-1.561-2.426-2.041-4.04c-0.479-1.613-0.719-3.486-0.719-5.619c0-2.107,0.279-3.967,0.84-5.58
		c0.56-1.613,1.32-2.967,2.279-4.061c0.961-1.094,2.094-1.913,3.4-2.46c1.307-0.546,2.706-0.819,4.199-0.819
		c0.961,0,1.82,0.073,2.58,0.219c0.761,0.147,1.42,0.314,1.98,0.5c0.561,0.188,1.02,0.388,1.381,0.601
		c0.359,0.214,0.633,0.374,0.819,0.479l-1.28,3.92c-0.586-0.373-1.307-0.705-2.16-1c-0.854-0.293-1.733-0.439-2.64-0.439
		c-1.174,0-2.16,0.214-2.96,0.641c-0.8,0.426-1.46,1.02-1.98,1.779c-0.52,0.76-0.893,1.667-1.119,2.721
		c-0.227,1.053-0.34,2.219-0.34,3.5C186.77,253.107,187.235,255.288,188.169,256.688z"/>
	<g>
		<g>
			<g>
				<path style="fill:#FFFFFF;" d="M258.334,217.25c10.61,0,21.222,0,31.832,0c1.935,0,1.935-3,0-3c-10.61,0-21.222,0-31.832,0
					C256.399,214.25,256.399,217.25,258.334,217.25L258.334,217.25z"/>
			</g>
		</g>
		<g>
			<g>
				<path style="fill:#FFFFFF;" d="M279.25,268.445c3,0,6,0,9,0c4.514,0,4.514-7,0-7c-3,0-6,0-9,0
					C274.736,261.445,274.736,268.445,279.25,268.445L279.25,268.445z"/>
			</g>
		</g>
		<g>
			<g>
				<path style="fill:#FFFFFF;" d="M260.583,283.682c5.333,0,10.667,0,16,0c4.514,0,4.514-7,0-7c-5.333,0-10.667,0-16,0
					C256.069,276.682,256.069,283.682,260.583,283.682L260.583,283.682z"/>
			</g>
		</g>
		<g>
			<g>
				<path style="fill:#FFFFFF;" d="M260.917,272.445c2,0,4,0,6,0c1.908,0,3.5-1.592,3.5-3.5s-1.592-3.5-3.5-3.5c-2,0-4,0-6,0
					c-1.908,0-3.5,1.592-3.5,3.5S259.009,272.445,260.917,272.445L260.917,272.445z"/>
			</g>
		</g>
		<g>
			<g>
				<path style="fill:#FFFFFF;" d="M274.25,279.445c0.667,0,1.333,0,2,0c1.908,0,3.5-1.592,3.5-3.5s-1.592-3.5-3.5-3.5
					c-0.667,0-1.333,0-2,0c-1.908,0-3.5,1.592-3.5,3.5S272.342,279.445,274.25,279.445L274.25,279.445z"/>
			</g>
		</g>
		<g>
			<g>
				<path style="fill:#FFFFFF;" d="M268.417,256.445c-2,0-4,0-6,0c-1.908,0-3.5,1.592-3.5,3.5s1.592,3.5,3.5,3.5c2,0,4,0,6,0
					c1.908,0,3.5-1.592,3.5-3.5S270.325,256.445,268.417,256.445L268.417,256.445z"/>
			</g>
		</g>
		<g>
			<g>
				<path style="fill:#FFFFFF;" d="M262.834,241.612c-0.667,0-1.333,0-2,0c-1.908,0-3.5,1.592-3.5,3.5s1.592,3.5,3.5,3.5
					c0.667,0,1.333,0,2,0c1.908,0,3.5-1.592,3.5-3.5S264.742,241.612,262.834,241.612L262.834,241.612z"/>
			</g>
		</g>
		<g>
			<g>
				<path style="fill:#FFFFFF;" d="M286.5,244.612c-5.333,0-10.667,0-16,0c-4.514,0-4.514,7,0,7c5.333,0,10.667,0,16,0
					C291.014,251.612,291.014,244.612,286.5,244.612L286.5,244.612z"/>
			</g>
		</g>
		<g>
			<g>
				<path style="fill:#FFFFFF;" d="M277.5,252.612c-5.083,0-10.167,0-15.25,0c-4.514,0-4.514,7,0,7c5.083,0,10.167,0,15.25,0
					C282.014,259.612,282.014,252.612,277.5,252.612L277.5,252.612z"/>
			</g>
		</g>
		<g>
			<g>
				<path style="fill:#FFFFFF;" d="M283.834,239.612c-2,0-4,0-6,0c-1.908,0-3.5,1.592-3.5,3.5s1.592,3.5,3.5,3.5c2,0,4,0,6,0
					c1.908,0,3.5-1.592,3.5-3.5S285.742,239.612,283.834,239.612L283.834,239.612z"/>
			</g>
		</g>
		<g>
			<g>
				<path style="fill:#FFFFFF;" d="M266.5,236.612c-2,0-4,0-6,0c-1.908,0-3.5,1.592-3.5,3.5s1.592,3.5,3.5,3.5c2,0,4,0,6,0
					c1.908,0,3.5-1.592,3.5-3.5S268.408,236.612,266.5,236.612L266.5,236.612z"/>
			</g>
		</g>
		<g>
			<g>
				<path style="fill:#FFFFFF;" d="M262.916,284.736c-0.667,0-1.333,0-2,0c-1.908,0-3.5,1.592-3.5,3.5s1.592,3.5,3.5,3.5
					c0.667,0,1.333,0,2,0c1.908,0,3.5-1.592,3.5-3.5S264.824,284.736,262.916,284.736L262.916,284.736z"/>
			</g>
		</g>
		<g>
			<g>
				<path style="fill:#FFFFFF;" d="M287.582,284.736c-5.333,0-10.667,0-16,0c-4.514,0-4.514,7,0,7c5.333,0,10.667,0,16,0
					C292.096,291.736,292.096,284.736,287.582,284.736L287.582,284.736z"/>
			</g>
		</g>
		<g>
			<g>
				<path style="fill:#FFFFFF;" d="M288.5,270.445c-2,0-4,0-6,0c-1.908,0-3.5,1.592-3.5,3.5s1.592,3.5,3.5,3.5c2,0,4,0,6,0
					c1.908,0,3.5-1.592,3.5-3.5S290.408,270.445,288.5,270.445L288.5,270.445z"/>
			</g>
		</g>
		<g>
			<g>
				<path style="fill:#FFFFFF;" d="M287.834,236.612c-2,0-4,0-6,0c-1.908,0-3.5,1.592-3.5,3.5s1.592,3.5,3.5,3.5c2,0,4,0,6,0
					c1.908,0,3.5-1.592,3.5-3.5S289.742,236.612,287.834,236.612L287.834,236.612z"/>
			</g>
		</g>
	</g>
	<g>
		<g>
			<g>
				<path style="fill:#FFFFFF;" d="M98.499,273.445c0.667,0,1.333,0,2,0c1.908,0,3.5-1.592,3.5-3.5s-1.592-3.5-3.5-3.5
					c-0.667,0-1.333,0-2,0c-1.908,0-3.5,1.592-3.5,3.5S96.591,273.445,98.499,273.445L98.499,273.445z"/>
			</g>
		</g>
		<g>
			<g>
				<path style="fill:#FFFFFF;" d="M73.833,279.445c5.333,0,10.667,0,16,0c4.514,0,4.514-7,0-7c-5.333,0-10.667,0-16,0
					C69.319,272.445,69.319,279.445,73.833,279.445L73.833,279.445z"/>
			</g>
		</g>
		<g>
			<g>
				<path style="fill:#FFFFFF;" d="M85.833,268.445c5.083,0,10.167,0,15.25,0c4.514,0,4.514-7,0-7c-5.083,0-10.167,0-15.25,0
					C81.318,261.445,81.318,268.445,85.833,268.445L85.833,268.445z"/>
			</g>
		</g>
		<g>
			<g>
				<path style="fill:#FFFFFF;" d="M73.458,291.736c2,0,4,0,6,0c1.908,0,3.5-1.592,3.5-3.5s-1.592-3.5-3.5-3.5c-2,0-4,0-6,0
					c-1.908,0-3.5,1.592-3.5,3.5S71.55,291.736,73.458,291.736L73.458,291.736z"/>
			</g>
		</g>
		<g>
			<g>
				<path style="fill:#FFFFFF;" d="M94.165,285.682c2,0,4,0,6,0c1.908,0,3.5-1.592,3.5-3.5s-1.592-3.5-3.5-3.5c-2,0-4,0-6,0
					c-1.908,0-3.5,1.592-3.5,3.5S92.257,285.682,94.165,285.682L94.165,285.682z"/>
			</g>
		</g>
		<g>
			<g>
				<path style="fill:#FFFFFF;" d="M88.083,252.612c-3,0-6,0-9,0c-4.514,0-4.514,7,0,7c3,0,6,0,9,0
					C92.597,259.612,92.597,252.612,88.083,252.612L88.083,252.612z"/>
			</g>
		</g>
		<g>
			<g>
				<path style="fill:#FFFFFF;" d="M101.083,236.612c-5.333,0-10.667,0-16,0c-4.514,0-4.514,7,0,7c5.333,0,10.667,0,16,0
					C105.597,243.612,105.597,236.612,101.083,236.612L101.083,236.612z"/>
			</g>
		</g>
		<g>
			<g>
				<path style="fill:#FFFFFF;" d="M100.416,241.612c-2,0-4,0-6,0c-1.908,0-3.5,1.592-3.5,3.5s1.592,3.5,3.5,3.5c2,0,4,0,6,0
					c1.908,0,3.5-1.592,3.5-3.5S102.324,241.612,100.416,241.612L100.416,241.612z"/>
			</g>
		</g>
		<g>
			<g>
				<path style="fill:#FFFFFF;" d="M80.708,237.945c-1.083,0-2.167,0-3.25,0c-1.908,0-3.5,1.592-3.5,3.5s1.592,3.5,3.5,3.5
					c1.083,0,2.167,0,3.25,0c1.908,0,3.5-1.592,3.5-3.5S82.615,237.945,80.708,237.945L80.708,237.945z"/>
			</g>
		</g>
		<g>
			<g>
				<path style="fill:#FFFFFF;" d="M98.25,259.612c0.667,0,1.333,0,2,0c1.908,0,3.5-1.592,3.5-3.5s-1.592-3.5-3.5-3.5
					c-0.667,0-1.333,0-2,0c-1.908,0-3.5,1.592-3.5,3.5S96.342,259.612,98.25,259.612L98.25,259.612z"/>
			</g>
		</g>
		<g>
			<g>
				<path style="fill:#FFFFFF;" d="M100.498,284.736c-2,0-4,0-6,0c-1.908,0-3.5,1.592-3.5,3.5s1.592,3.5,3.5,3.5c2,0,4,0,6,0
					c1.908,0,3.5-1.592,3.5-3.5S102.405,284.736,100.498,284.736L100.498,284.736z"/>
			</g>
		</g>
		<g>
			<g>
				<path style="fill:#FFFFFF;" d="M84.583,281.167c-0.667,0-1.333,0-2,0c-1.908,0-3.5,1.592-3.5,3.5s1.592,3.5,3.5,3.5
					c0.667,0,1.333,0,2,0c1.908,0,3.5-1.592,3.5-3.5S86.491,281.167,84.583,281.167L84.583,281.167z"/>
			</g>
		</g>
		<g>
			<g>
				<path style="fill:#FFFFFF;" d="M72.167,217.25c10.611,0,21.222,0,31.833,0c1.935,0,1.935-3,0-3c-10.611,0-21.222,0-31.833,0
					C70.232,214.25,70.232,217.25,72.167,217.25L72.167,217.25z"/>
			</g>
		</g>
		<g>
			<g>
				<path style="fill:#FFFFFF;" d="M79.832,244.167c-2,0-4,0-6,0c-1.908,0-3.5,1.592-3.5,3.5s1.592,3.5,3.5,3.5c2,0,4,0,6,0
					c1.908,0,3.5-1.592,3.5-3.5S81.739,244.167,79.832,244.167L79.832,244.167z"/>
			</g>
		</g>
		<g>
			<g>
				<path style="fill:#FFFFFF;" d="M78.832,263.445c-1.833,0-3.667,0-5.5,0c-1.908,0-3.5,1.592-3.5,3.5s1.592,3.5,3.5,3.5
					c1.833,0,3.667,0,5.5,0c1.908,0,3.5-1.592,3.5-3.5S80.739,263.445,78.832,263.445L78.832,263.445z"/>
			</g>
		</g>
	</g>
	<g>
		<g>
			<path style="fill:#FFFFFF;" d="M101.437,226.889c-5.333,0-10.667,0-16,0c-4.514,0-4.514,7,0,7c5.333,0,10.667,0,16,0
				C105.951,233.889,105.951,226.889,101.437,226.889L101.437,226.889z"/>
		</g>
	</g>
	<g>
		<g>
			<path style="fill:#FFFFFF;" d="M78.769,228.125c-0.667,0-1.333,0-2,0c-1.908,0-3.5,1.592-3.5,3.5s1.592,3.5,3.5,3.5
				c0.667,0,1.333,0,2,0c1.908,0,3.5-1.592,3.5-3.5S80.677,228.125,78.769,228.125L78.769,228.125z"/>
		</g>
	</g>
	<g>
		<g>
			<path style="fill:#FFFFFF;" d="M99.104,225.834c0.667,0,1.333,0,2,0c1.908,0,3.5-1.592,3.5-3.5s-1.592-3.5-3.5-3.5
				c-0.667,0-1.333,0-2,0c-1.908,0-3.5,1.592-3.5,3.5S97.196,225.834,99.104,225.834L99.104,225.834z"/>
		</g>
	</g>
	<g>
		<g>
			<path style="fill:#FFFFFF;" d="M74.438,224.834c5.333,0,10.667,0,16,0c4.514,0,4.514-7,0-7c-5.333,0-10.667,0-16,0
				C69.924,217.834,69.924,224.834,74.438,224.834L74.438,224.834z"/>
		</g>
	</g>
	<g>
		<g>
			<path style="fill:#FFFFFF;" d="M288.187,229.125c-5.333,0-10.667,0-16,0c-4.514,0-4.514,7,0,7c5.333,0,10.667,0,16,0
				C292.7,236.125,292.7,229.125,288.187,229.125L288.187,229.125z"/>
		</g>
	</g>
	<g>
		<g>
			<path style="fill:#FFFFFF;" d="M288.563,216.834c-2,0-4,0-6,0c-1.908,0-3.5,1.592-3.5,3.5s1.592,3.5,3.5,3.5c2,0,4,0,6,0
				c1.908,0,3.5-1.592,3.5-3.5S290.471,216.834,288.563,216.834L288.563,216.834z"/>
		</g>
	</g>
	<g>
		<g>
			<path style="fill:#FFFFFF;" d="M267.854,224.889c-2,0-4,0-6,0c-1.908,0-3.5,1.592-3.5,3.5s1.592,3.5,3.5,3.5c2,0,4,0,6,0
				c1.908,0,3.5-1.592,3.5-3.5S269.763,224.889,267.854,224.889L267.854,224.889z"/>
		</g>
	</g>
	<g>
		<g>
			<path style="fill:#FFFFFF;" d="M261.521,225.834c2,0,4,0,6,0c1.908,0,3.5-1.592,3.5-3.5s-1.592-3.5-3.5-3.5c-2,0-4,0-6,0
				c-1.908,0-3.5,1.592-3.5,3.5S259.613,225.834,261.521,225.834L261.521,225.834z"/>
		</g>
	</g>
	<g>
		<g>
			<path style="fill:#FFFFFF;" d="M277.437,229.404c0.667,0,1.333,0,2,0c1.908,0,3.5-1.592,3.5-3.5s-1.592-3.5-3.5-3.5
				c-0.667,0-1.333,0-2,0c-1.908,0-3.5,1.592-3.5,3.5S275.528,229.404,277.437,229.404L277.437,229.404z"/>
		</g>
	</g>
</g>
<g id="Ebene_1">
</g>
</svg>
