<?xml version="1.0" encoding="iso-8859-1"?>
<!-- Generator: Adobe Illustrator 16.0.0, SVG Export Plug-In . SVG Version: 6.00 Build 0)  -->
<!DOCTYPE svg PUBLIC "-//W3C//DTD SVG 1.1 Tiny//EN" "http://www.w3.org/Graphics/SVG/1.1/DTD/svg11-tiny.dtd">
<svg version="1.1" baseProfile="tiny" id="edit_x5F_delete"
	 xmlns="http://www.w3.org/2000/svg" xmlns:xlink="http://www.w3.org/1999/xlink" x="0px" y="0px" width="361px" height="361px"
	 viewBox="0 0 361 361" xml:space="preserve">
<path display="none" fill="none" stroke="#FFFFFF" stroke-width="10" stroke-miterlimit="10" d="M225.847,212.26v70.334
	c0,3.731-3.026,6.757-6.757,6.757H79.367c-3.731,0-6.757-3.025-6.757-6.757V159.709c0-3.731,3.025-6.757,6.757-6.757h38.739
	c5.752,0,7.47,3.4,7.47,6.047c0,11.964,7.757,10.791,9.226,10.791c4.717,0,11.52,0,19.244,0"/>
<path display="none" fill="none" stroke="#FFFFFF" stroke-width="10" stroke-miterlimit="10" d="M239.371,281.998
	c0,4.062-3.292,7.354-7.354,7.354H79.963c-4.062,0-7.354-3.292-7.354-7.354l26.57-97.081c0-4.062,3.292-7.354,7.354-7.354h42.157
	c6.261,0,8.13,3.7,8.13,6.581c0,13.021,8.441,11.743,10.04,11.743c23.029,0,91.728,0,91.728,0c4.061,0,7.354,3.292,7.354,7.354
	L239.371,281.998z"/>
<g>
	<path fill="#FFFFFF" d="M274.123,148.188c-0.221,21.792-11.693,41.431-30.525,52.381c-18.991,11.042-42.865,9.912-61.415-1.359
		c-18.546-11.269-28.828-32.3-28.177-53.7c0.657-21.622,13.938-40.85,32.767-50.842c18.553-9.847,41.417-8.146,59.116,2.608
		C263.518,107.987,273.916,127.778,274.123,148.188c0.098,9.68,15.101,9.775,15.003,0.108
		c-0.233-23.005-10.627-44.971-28.856-59.156c-18.623-14.491-42.888-19.306-65.713-13.433
		c-21.803,5.609-40.362,21.924-49.293,42.477c-9.432,21.706-7.966,46.575,3.507,67.215c16.491,29.668,52.277,43.732,84.745,35.379
		c32.65-8.4,55.274-39.191,55.611-72.482C289.224,138.605,274.22,138.529,274.123,148.188z"/>
</g>
<g>
	<path fill="#FFFFFF" d="M171.575,201.31c31.841-31.841,63.682-63.682,95.523-95.522c0.021-0.021,0.042-0.042,0.062-0.063
		c6.836-6.835-3.813-17.403-10.665-10.551c-31.841,31.841-63.682,63.682-95.523,95.522c-0.021,0.021-0.042,0.042-0.062,0.063
		C154.075,197.594,164.723,208.162,171.575,201.31L171.575,201.31z"/>
</g>
<g>
	<path fill="none" stroke="#FFFFFF" stroke-width="10" stroke-miterlimit="10" d="M159.538,108.262H77.755
		c-3.05,0-5.522,2.473-5.522,5.522v169.792c0,3.049,2.473,5.521,5.522,5.521h129.759c3.049,0,5.521-2.472,5.521-5.521v-67.755"/>
	<g>
		<path fill="#FFFFFF" d="M93.608,140.237c18.03,0,36.06,0,54.089,0c6.449,0,6.449-10,0-10c-18.03,0-36.06,0-54.089,0
			C87.159,130.237,87.159,140.237,93.608,140.237L93.608,140.237z"/>
	</g>
	<g>
		<path fill="#FFFFFF" d="M93.608,187.509c20.72,0,41.441,0,62.161,0c6.449,0,6.449-10,0-10c-20.72,0-41.441,0-62.161,0
			C87.159,177.509,87.159,187.509,93.608,187.509L93.608,187.509z"/>
	</g>
	<g>
		<path fill="#FFFFFF" d="M93.608,163.873c17.891,0,35.781,0,53.671,0c6.449,0,6.449-10,0-10c-17.891,0-35.781,0-53.671,0
			C87.159,153.873,87.159,163.873,93.608,163.873L93.608,163.873z"/>
	</g>
	<g>
		<path fill="#FFFFFF" d="M93.608,211.144c28.515,0,57.029,0,85.543,0c6.449,0,6.449-10,0-10c-28.515,0-57.029,0-85.543,0
			C87.159,201.144,87.159,211.144,93.608,211.144L93.608,211.144z"/>
	</g>
	<g>
		<path fill="#FFFFFF" d="M94.179,234.778c32.304,0,64.607,0,96.911,0c6.449,0,6.449-10,0-10c-32.304,0-64.607,0-96.911,0
			C87.73,224.778,87.73,234.778,94.179,234.778L94.179,234.778z"/>
	</g>
	<g>
		<path fill="#FFFFFF" d="M94.322,258.414c32.208,0,64.417,0,96.625,0c6.449,0,6.449-10,0-10c-32.208,0-64.417,0-96.625,0
			C87.873,248.414,87.873,258.414,94.322,258.414L94.322,258.414z"/>
	</g>
</g>
</svg>
