<?xml version="1.0" encoding="iso-8859-1"?>
<!-- Generator: Adobe Illustrator 16.0.0, SVG Export Plug-In . SVG Version: 6.00 Build 0)  -->
<!DOCTYPE svg PUBLIC "-//W3C//DTD SVG 1.1//EN" "http://www.w3.org/Graphics/SVG/1.1/DTD/svg11.dtd">
<svg version="1.1" xmlns="http://www.w3.org/2000/svg" xmlns:xlink="http://www.w3.org/1999/xlink" x="0px" y="0px" width="361px"
	 height="361px" viewBox="0 0 361 361" style="enable-background:new 0 0 361 361;" xml:space="preserve">
<g id="edit_x5F_delete">
	<path style="display:none;fill:none;stroke:#FFFFFF;stroke-width:10;stroke-miterlimit:10;" d="M228.365,209.382v70.335
		c0,3.73-3.026,6.756-6.758,6.756H81.885c-3.731,0-6.757-3.025-6.757-6.756V156.832c0-3.731,3.025-6.757,6.757-6.757h38.739
		c5.752,0,7.47,3.4,7.47,6.047c0,11.964,7.757,10.791,9.226,10.791c4.717,0,11.52,0,19.244,0"/>
	<path style="display:none;fill:none;stroke:#FFFFFF;stroke-width:10;stroke-miterlimit:10;" d="M241.889,279.119
		c0,4.063-3.292,7.354-7.354,7.354H82.481c-4.062,0-7.354-3.291-7.354-7.354l26.57-97.08c0-4.062,3.292-7.354,7.354-7.354h42.157
		c6.261,0,8.13,3.7,8.13,6.581c0,13.021,8.441,11.743,10.04,11.743c23.029,0,91.727,0,91.727,0c4.061,0,7.354,3.292,7.354,7.354
		L241.889,279.119z"/>
	<g>
		<g>
			<path style="fill:#FFFFFF;" d="M276.641,145.31c-0.221,21.792-11.693,41.431-30.525,52.381
				c-18.99,11.043-42.865,9.912-61.414-1.359c-18.547-11.269-28.828-32.3-28.178-53.699c0.657-21.622,13.938-40.85,32.767-50.842
				c18.554-9.847,41.418-8.146,59.116,2.608C266.036,105.109,276.435,124.9,276.641,145.31c0.099,9.68,15.102,9.775,15.004,0.108
				c-0.233-23.005-10.628-44.971-28.857-59.156c-18.623-14.491-42.888-19.306-65.713-13.433
				c-21.803,5.609-40.362,21.924-49.293,42.477c-9.432,21.706-7.966,46.575,3.507,67.216c16.491,29.668,52.277,43.731,84.745,35.378
				c32.649-8.399,55.274-39.191,55.611-72.481C291.742,135.727,276.738,135.651,276.641,145.31z"/>
		</g>
	</g>
	<g>
		<g>
			<path style="fill:#FFFFFF;" d="M174.093,198.432c31.841-31.841,63.682-63.682,95.523-95.522c0.021-0.021,0.041-0.042,0.062-0.063
				c6.836-6.835-3.813-17.403-10.665-10.551c-31.841,31.841-63.682,63.682-95.522,95.522c-0.021,0.021-0.042,0.042-0.062,0.063
				C156.593,194.716,167.241,205.284,174.093,198.432L174.093,198.432z"/>
		</g>
	</g>
	<g>
		<path style="fill:none;stroke:#FFFFFF;stroke-width:10;stroke-miterlimit:10;" d="M162.056,105.384H80.273
			c-3.05,0-5.522,2.473-5.522,5.522v169.792c0,3.049,2.473,5.521,5.522,5.521h129.759c3.05,0,5.521-2.472,5.521-5.521v-67.755"/>
		<g>
			<g>
				<path style="fill:#FFFFFF;" d="M96.126,137.359c18.03,0,36.06,0,54.089,0c6.449,0,6.449-10,0-10c-18.03,0-36.06,0-54.089,0
					C89.677,127.359,89.677,137.359,96.126,137.359L96.126,137.359z"/>
			</g>
		</g>
		<g>
			<g>
				<path style="fill:#FFFFFF;" d="M96.126,184.631c20.72,0,41.441,0,62.161,0c6.449,0,6.449-10,0-10c-20.72,0-41.441,0-62.161,0
					C89.677,174.631,89.677,184.631,96.126,184.631L96.126,184.631z"/>
			</g>
		</g>
		<g>
			<g>
				<path style="fill:#FFFFFF;" d="M96.126,160.995c17.891,0,35.781,0,53.671,0c6.449,0,6.449-10,0-10c-17.891,0-35.781,0-53.671,0
					C89.677,150.995,89.677,160.995,96.126,160.995L96.126,160.995z"/>
			</g>
		</g>
		<g>
			<g>
				<path style="fill:#FFFFFF;" d="M96.126,208.266c28.515,0,57.029,0,85.544,0c6.448,0,6.448-10,0-10c-28.515,0-57.029,0-85.544,0
					C89.677,198.266,89.677,208.266,96.126,208.266L96.126,208.266z"/>
			</g>
		</g>
		<g>
			<g>
				<path style="fill:#FFFFFF;" d="M96.697,231.9c32.304,0,64.607,0,96.911,0c6.448,0,6.448-10,0-10c-32.304,0-64.607,0-96.911,0
					C90.248,221.9,90.248,231.9,96.697,231.9L96.697,231.9z"/>
			</g>
		</g>
		<g>
			<g>
				<path style="fill:#FFFFFF;" d="M96.84,255.536c32.208,0,64.417,0,96.625,0c6.448,0,6.448-10,0-10c-32.208,0-64.417,0-96.625,0
					C90.391,245.536,90.391,255.536,96.84,255.536L96.84,255.536z"/>
			</g>
		</g>
	</g>
</g>
<g id="Ebene_1">
</g>
</svg>
