<?xml version="1.0" encoding="iso-8859-1"?>
<!-- Generator: Adobe Illustrator 16.0.0, SVG Export Plug-In . SVG Version: 6.00 Build 0)  -->
<!DOCTYPE svg PUBLIC "-//W3C//DTD SVG 1.1//EN" "http://www.w3.org/Graphics/SVG/1.1/DTD/svg11.dtd">
<svg version="1.1" xmlns="http://www.w3.org/2000/svg" xmlns:xlink="http://www.w3.org/1999/xlink" x="0px" y="0px" width="361px"
	 height="361px" viewBox="0 0 361 361" style="enable-background:new 0 0 361 361;" xml:space="preserve">
<g id="edit_x5F_favorites">
	
		<polygon style="fill:none;stroke:#FFFFFF;stroke-width:10;stroke-linecap:round;stroke-linejoin:round;stroke-miterlimit:10;" points="
		180.998,225.021 146.89,242.951 153.403,204.973 125.809,178.075 163.943,172.533 180.998,137.978 198.053,172.533 
		236.186,178.075 208.592,204.973 215.106,242.951 	"/>
	<path style="fill:none;stroke:#FFFFFF;stroke-width:10;stroke-miterlimit:10;" d="M286.398,264.557
		c0,5.145-4.171,9.314-9.314,9.314H84.477c-5.145,0-9.315-4.17-9.315-9.314V95.161c0-5.145,4.17-9.314,9.315-9.314h53.4
		c7.931,0,10.298,4.686,10.298,8.336c0,16.493,10.693,14.875,12.718,14.875c29.169,0,116.191,0,116.191,0
		c5.144,0,9.314,4.169,9.314,9.314V264.557z"/>
</g>
<g id="Ebene_1">
</g>
</svg>
