<?xml version="1.0" encoding="iso-8859-1"?>
<!-- Generator: Adobe Illustrator 16.0.0, SVG Export Plug-In . SVG Version: 6.00 Build 0)  -->
<!DOCTYPE svg PUBLIC "-//W3C//DTD SVG 1.1//EN" "http://www.w3.org/Graphics/SVG/1.1/DTD/svg11.dtd">
<svg version="1.1" xmlns="http://www.w3.org/2000/svg" xmlns:xlink="http://www.w3.org/1999/xlink" x="0px" y="0px" width="361px"
	 height="361px" viewBox="0 0 361 361" style="enable-background:new 0 0 361 361;" xml:space="preserve">
<g id="edit_x5F_collapse">
	<g style="display:none;">
		<path style="display:inline;fill:none;stroke:#FFFFFF;stroke-width:10;stroke-miterlimit:10;" d="M239.098,81.282
			c0-3.562-2.887-6.449-6.447-6.449H81.125c-3.562,0-6.449,2.887-6.449,6.449v198.272c0,3.561,2.887,6.447,6.449,6.447H232.65
			c3.561,0,6.447-2.887,6.447-6.447V81.282z"/>
		<g style="display:inline;">
			<g>
				<path style="fill:#FFFFFF;" d="M99.637,111.333c38.167,0,76.333,0,114.5,0c6.448,0,6.448-10,0-10c-38.167,0-76.333,0-114.5,0
					C93.188,101.333,93.188,111.333,99.637,111.333L99.637,111.333z"/>
			</g>
		</g>
		<g style="display:inline;">
			<g>
				<path style="fill:#FFFFFF;" d="M99.637,166.534c38.167,0,76.333,0,114.5,0c6.448,0,6.448-10,0-10c-38.167,0-76.333,0-114.5,0
					C93.188,156.534,93.188,166.534,99.637,166.534L99.637,166.534z"/>
			</g>
		</g>
		<g style="display:inline;">
			<g>
				<path style="fill:#FFFFFF;" d="M99.637,138.934c38.167,0,76.333,0,114.5,0c6.448,0,6.448-10,0-10c-38.167,0-76.333,0-114.5,0
					C93.188,128.934,93.188,138.934,99.637,138.934L99.637,138.934z"/>
			</g>
		</g>
		<g style="display:inline;">
			<g>
				<path style="fill:#FFFFFF;" d="M99.637,194.133c38.167,0,76.333,0,114.5,0c6.448,0,6.448-10,0-10c-38.167,0-76.333,0-114.5,0
					C93.188,184.133,93.188,194.133,99.637,194.133L99.637,194.133z"/>
			</g>
		</g>
		<g style="display:inline;">
			<g>
				<path style="fill:#FFFFFF;" d="M100.304,221.733c37.722,0,75.445,0,113.167,0c6.448,0,6.448-10,0-10
					c-37.722,0-75.445,0-113.167,0C93.855,211.733,93.855,221.733,100.304,221.733L100.304,221.733z"/>
			</g>
		</g>
		<g style="display:inline;">
			<g>
				<path style="fill:#FFFFFF;" d="M100.471,249.334c37.611,0,75.222,0,112.833,0c6.448,0,6.448-10,0-10
					c-37.611,0-75.222,0-112.833,0C94.022,239.334,94.022,249.334,100.471,249.334L100.471,249.334z"/>
			</g>
		</g>
	</g>
	<g>
		<g>
			<path style="fill:#FFFFFF;" d="M226.932,157.01c0-11.869,0-23.738,0-35.607c0-13.097,2.063-27.965-5.963-39.25
				C215.127,73.937,205.36,69,195.297,69c-2.965,0-5.93,0-8.895,0c-14.759,0-29.517,0-44.275,0c-12.778,0-25.557,0-38.334,0
				c-16.759,0-31.972,9.898-34.212,27.53c-1.173,9.229-0.306,18.982-0.306,28.252c0,15.947,0,31.894,0,47.84
				c0,7.481,0,14.961,0,22.443c0,17.755,14.841,31.592,32.3,31.592c20.78,0,41.559,0,62.339,0c6.449,0,6.449-10,0-10
				c-11.339,0-22.679,0-34.018,0c-7.279,0-14.557,0-21.836,0c-4.66,0-9.249,0.271-13.782-1.017
				c-9.044-2.568-15.004-11.627-15.004-20.782c0-3.331,0-6.662,0-9.994c0-14.996,0-29.992,0-44.988c0-12.356,0-24.712,0-37.068
				C79.274,89.011,88.379,79,102.465,79c27.114,0,54.229,0,81.343,0c5.479,0,11.48-0.583,16.858,0.658
				c12.125,2.798,16.266,13.938,16.266,25.008c0,17.448,0,34.896,0,52.343C216.932,163.458,226.932,163.458,226.932,157.01
				L226.932,157.01z"/>
		</g>
	</g>
	<g>
		<g>
			<path style="fill:#FFFFFF;" d="M188.213,140.235c-26.574,0-53.148,0-79.722,0c-9.687,0-9.772,15.003-0.108,15.003
				c26.574,0,53.148,0,79.723,0C197.791,155.238,197.877,140.235,188.213,140.235L188.213,140.235z"/>
		</g>
	</g>
	<path style="fill:none;stroke:#FFFFFF;stroke-width:10;stroke-miterlimit:10;" d="M190.478,263.127
		c-2.141,0-3.876,0.543-3.876,1.21v20.97c0,0.667,1.735,1.209,3.876,1.209h75.571c2.141,0,3.875-0.541,3.875-1.209v-20.97
		c0-0.668-1.735-1.21-3.875-1.21H190.478z"/>
	<g>
		<g>
			<path style="fill:#FFFFFF;" d="M290.733,260.085c-19.552-25.581-39.104-51.162-58.655-76.743c-2.429-3.178-6.206-3.178-8.635,0
				c-19.552,25.581-39.104,51.162-58.656,76.744c-2.39,3.126,0.882,7.523,4.317,7.523c39.104,0,78.208-0.001,117.312-0.001
				c6.448,0,6.448-10,0-10c-39.104,0-78.208,0.001-117.312,0.001c1.439,2.508,2.878,5.016,4.317,7.523
				c19.552-25.581,39.104-51.162,58.656-76.744c-2.878,0-5.757,0-8.635,0c19.552,25.581,39.104,51.162,58.655,76.743
				C285.958,270.182,294.651,265.21,290.733,260.085z"/>
		</g>
	</g>
</g>
<g id="Ebene_1">
</g>
</svg>
