<?xml version="1.0" encoding="iso-8859-1"?>
<!-- Generator: Adobe Illustrator 16.0.0, SVG Export Plug-In . SVG Version: 6.00 Build 0)  -->
<!DOCTYPE svg PUBLIC "-//W3C//DTD SVG 1.1//EN" "http://www.w3.org/Graphics/SVG/1.1/DTD/svg11.dtd">
<svg version="1.1" xmlns="http://www.w3.org/2000/svg" xmlns:xlink="http://www.w3.org/1999/xlink" x="0px" y="0px" width="361px"
	 height="361px" viewBox="0 0 361 361" style="enable-background:new 0 0 361 361;" xml:space="preserve">
<g id="edit_x5F_input_x5F_numeric">
	<g>
		<g>
			<g>
				<path style="fill:#FFFFFF;" d="M79.56,255.227c11.275-21.844,22.55-43.688,33.825-65.531c1.692-3.278,4.35-7.221,4.455-10.983
					c0.274-9.831-6.494-13.259-13.958-17.112c-6.928-3.576-13.814-5.637-20.584-0.172c-1.865,1.505-2.945,4.354-4.022,6.441
					c-1.875,3.632-3.749,7.263-5.624,10.895c-0.99,1.917-1.98,3.835-2.97,5.753c-2.953,5.72,5.676,10.779,8.635,5.047
					c2.611-5.058,5.222-10.116,7.833-15.174c0.97-1.878,1.793-4.281,3.22-5.891c1.575-1.778,4.642-0.238,6.188,0.56
					c2.837,1.465,13.755,4.814,11.064,10.027c-1.536,2.976-3.072,5.951-4.608,8.927c-10.696,20.723-21.392,41.444-32.088,62.167
					C67.972,255.899,76.601,260.959,79.56,255.227L79.56,255.227z"/>
			</g>
		</g>
		<g>
			<g>
				<path style="fill:#FFFFFF;" d="M113.628,250.998c10.921-21.157,21.841-42.314,32.762-63.472
					c5.568-10.787,11.136-21.574,16.704-32.362c2.321-4.496,4.752-8.956,6.663-13.645c1.863-4.572,3.663-10.173,1.299-14.921
					c-1.564-3.142-4.283-4.609-7.237-6.134c-2.963-1.529-5.926-3.059-8.89-4.588c-2.122-1.096-4.658-2.813-7.107-2.822
					c-5.08-0.018-7.665,2.996-9.741,7.019c-4.906,9.505-9.813,19.011-14.719,28.516c-9.977,19.329-19.954,38.657-29.931,57.986
					c-2.953,5.72,5.676,10.779,8.635,5.047c11.248-21.79,22.495-43.581,33.743-65.372c4.057-7.859,8.114-15.719,12.17-23.578
					c-0.451,0.874-2.232-0.296-0.022,0.844c1.436,0.742,2.873,1.483,4.309,2.224c2.972,1.534,5.944,3.068,8.917,4.603
					c3.898,2.013-4.106,14.703-5.611,17.618c-16.86,32.663-33.719,65.326-50.579,97.989
					C102.041,251.671,110.67,256.73,113.628,250.998L113.628,250.998z"/>
			</g>
		</g>
		<g>
			<g>
				<path style="fill:#FFFFFF;" d="M80.426,187.414c2.81-5.443,5.62-10.886,8.429-16.329c4.921-9.532-4.926-14.144-11.606-17.955
					c-5.61-3.2-10.646,5.441-5.047,8.635c2.051,1.17,4.103,2.34,6.155,3.511c2.179,1.243,1.816,0.854,0.574,3.262
					c-2.38,4.61-4.759,9.22-7.139,13.83C68.839,188.087,77.467,193.146,80.426,187.414L80.426,187.414z"/>
			</g>
		</g>
		<g>
			<g>
				<path style="fill:#FFFFFF;" d="M125.885,289.254c4.964-7.764,9.927-15.527,14.891-23.291c2.991-4.679,5.981-9.356,8.972-14.034
					c2.485-3.887,5.09-7.861,3.864-12.785c-1.613-6.477-6.569-9.581-11.577-13.291c-6.675-4.945-16.583-6.374-22.142,0.947
					c-5.729,7.547-11.458,15.094-17.188,22.642c-3.902,5.14,4.79,10.112,8.635,5.047c5.114-6.736,10.227-13.473,15.341-20.208
					c0.643-0.847,1.286-1.694,1.928-2.541c1.564-2.06,7.625,2.189,8.883,3.121c2.75,2.037,8.221,4.826,5.579,8.959
					c-8.607,13.463-17.214,26.925-25.821,40.388C113.765,289.657,122.423,294.668,125.885,289.254L125.885,289.254z"/>
			</g>
		</g>
	</g>
	<g>
		<g>
			<g>
				<path style="fill:#FFFFFF;" d="M154.14,91.016c2.014-0.777,3.975-1.775,5.883-2.995c1.908-1.219,3.657-2.747,5.247-4.584h3.498
					v36.729h-4.929V90.273c-0.424,0.389-0.946,0.795-1.563,1.219c-0.619,0.424-1.29,0.831-2.014,1.219
					c-0.725,0.389-1.484,0.76-2.279,1.113c-0.795,0.354-1.563,0.654-2.306,0.901L154.14,91.016z"/>
				<path style="fill:#FFFFFF;" d="M223.727,92.817c0,1.272-0.256,2.5-0.768,3.684c-0.514,1.184-1.193,2.35-2.041,3.498
					c-0.848,1.148-1.802,2.279-2.861,3.392c-1.061,1.113-2.121,2.199-3.181,3.259c-0.601,0.602-1.298,1.308-2.093,2.12
					c-0.795,0.813-1.547,1.661-2.253,2.544c-0.708,0.884-1.299,1.731-1.776,2.544c-0.477,0.813-0.715,1.52-0.715,2.12h16.907v4.187
					h-22.261c-0.035-0.212-0.053-0.424-0.053-0.636c0-0.212,0-0.406,0-0.583c0-1.66,0.273-3.206,0.822-4.637
					c0.547-1.431,1.262-2.783,2.146-4.055c0.883-1.272,1.872-2.473,2.967-3.604c1.096-1.13,2.174-2.226,3.234-3.286
					c0.883-0.848,1.722-1.687,2.517-2.518c0.796-0.83,1.501-1.661,2.12-2.491c0.617-0.83,1.113-1.687,1.484-2.57
					c0.371-0.883,0.557-1.819,0.557-2.809c0-1.06-0.168-1.961-0.504-2.703c-0.336-0.742-0.787-1.36-1.352-1.855
					c-0.565-0.494-1.229-0.856-1.987-1.086c-0.761-0.229-1.563-0.345-2.411-0.345c-1.025,0-1.961,0.142-2.81,0.424
					c-0.849,0.283-1.608,0.609-2.278,0.98c-0.672,0.371-1.238,0.76-1.697,1.166c-0.459,0.407-0.813,0.715-1.06,0.927l-2.438-3.498
					c0.318-0.353,0.796-0.786,1.432-1.298c0.637-0.512,1.396-0.998,2.279-1.458c0.883-0.458,1.872-0.848,2.968-1.166
					c1.095-0.318,2.278-0.477,3.551-0.477c3.851,0,6.739,0.893,8.665,2.677C222.764,87.05,223.727,89.567,223.727,92.817z"/>
				<path style="fill:#FFFFFF;" d="M260.721,116.562c3.145,0,5.396-0.618,6.757-1.855c1.36-1.236,2.04-2.897,2.04-4.982
					c0-1.342-0.283-2.473-0.848-3.392c-0.565-0.918-1.307-1.651-2.226-2.2c-0.919-0.547-1.987-0.936-3.206-1.166
					c-1.22-0.229-2.465-0.344-3.737-0.344h-1.272v-4.028h1.75c0.883,0,1.793-0.088,2.729-0.265c0.937-0.176,1.793-0.495,2.571-0.954
					c0.776-0.459,1.413-1.086,1.907-1.881c0.495-0.795,0.742-1.793,0.742-2.995c0-0.989-0.177-1.837-0.529-2.544
					c-0.354-0.707-0.822-1.29-1.404-1.749c-0.584-0.459-1.255-0.786-2.015-0.98c-0.761-0.194-1.563-0.292-2.411-0.292
					c-1.696,0-3.137,0.248-4.32,0.742c-1.184,0.495-2.182,1.007-2.994,1.537l-1.908-3.763c0.424-0.283,0.963-0.591,1.617-0.928
					c0.653-0.335,1.387-0.644,2.199-0.927c0.813-0.283,1.688-0.521,2.623-0.716c0.937-0.194,1.917-0.292,2.941-0.292
					c1.943,0,3.622,0.239,5.035,0.716s2.579,1.148,3.498,2.014c0.919,0.866,1.607,1.891,2.067,3.074
					c0.459,1.184,0.688,2.464,0.688,3.842c0,1.908-0.548,3.543-1.643,4.903c-1.096,1.36-2.42,2.394-3.975,3.1
					c0.953,0.283,1.872,0.689,2.756,1.219c0.883,0.53,1.651,1.202,2.305,2.014c0.654,0.813,1.184,1.749,1.591,2.809
					c0.405,1.06,0.609,2.245,0.609,3.551c0,1.59-0.274,3.066-0.821,4.425c-0.549,1.361-1.396,2.536-2.545,3.525
					s-2.588,1.767-4.318,2.332c-1.732,0.565-3.781,0.848-6.148,0.848c-0.92,0-1.864-0.071-2.836-0.212
					c-0.972-0.142-1.881-0.318-2.729-0.53c-0.849-0.212-1.59-0.424-2.227-0.636c-0.636-0.212-1.096-0.388-1.378-0.53l0.954-4.293
					c0.6,0.283,1.598,0.654,2.994,1.113C257.001,116.332,258.706,116.562,260.721,116.562z"/>
				<path style="fill:#FFFFFF;" d="M151.331,160.738c0.671-1.554,1.59-3.365,2.756-5.432c1.166-2.067,2.482-4.195,3.949-6.387
					c1.465-2.19,3.038-4.346,4.717-6.466c1.678-2.12,3.366-4.028,5.062-5.724h4.717v23.32h4.346v4.028h-4.346v9.381h-4.77v-9.381
					h-16.43V160.738z M167.76,142.559c-1.06,1.131-2.129,2.394-3.207,3.79c-1.078,1.396-2.129,2.854-3.153,4.373
					c-1.025,1.52-1.987,3.074-2.889,4.664c-0.901,1.59-1.705,3.146-2.411,4.664h11.66V142.559z"/>
				<path style="fill:#FFFFFF;" d="M209.523,150.88c5.334,0.212,9.248,1.378,11.739,3.498s3.736,5,3.736,8.639
					c0,1.625-0.274,3.127-0.821,4.505c-0.549,1.378-1.378,2.562-2.491,3.551c-1.112,0.989-2.518,1.767-4.214,2.332
					c-1.695,0.565-3.709,0.848-6.041,0.848c-0.92,0-1.855-0.071-2.81-0.212c-0.954-0.142-1.837-0.318-2.649-0.53
					c-0.814-0.212-1.537-0.424-2.174-0.636c-0.636-0.212-1.096-0.388-1.378-0.53l0.954-4.293c0.601,0.283,1.581,0.654,2.941,1.113
					c1.359,0.459,3.029,0.689,5.009,0.689c1.59,0,2.923-0.176,4.001-0.53c1.078-0.353,1.952-0.83,2.624-1.431
					c0.671-0.601,1.157-1.298,1.458-2.094c0.299-0.795,0.449-1.634,0.449-2.517c0-1.343-0.229-2.535-0.688-3.578
					c-0.46-1.042-1.272-1.917-2.438-2.624c-1.166-0.707-2.721-1.246-4.664-1.617c-1.943-0.371-4.398-0.556-7.366-0.556
					c0.212-1.731,0.38-3.356,0.503-4.876c0.124-1.519,0.238-3.003,0.345-4.452c0.106-1.448,0.194-2.889,0.265-4.319
					c0.07-1.431,0.141-2.942,0.213-4.532h17.701v4.187h-13.408c-0.036,0.53-0.089,1.246-0.159,2.146
					c-0.071,0.901-0.142,1.837-0.212,2.809c-0.071,0.972-0.142,1.917-0.213,2.835C209.664,149.626,209.594,150.35,209.523,150.88z"
					/>
				<path style="fill:#FFFFFF;" d="M252.081,158.724c0-3.568,0.495-6.722,1.484-9.46c0.989-2.738,2.394-5.043,4.214-6.917
					c1.818-1.873,4.027-3.294,6.625-4.267c2.596-0.972,5.52-1.475,8.771-1.511l0.371,4.134c-2.086,0.036-3.984,0.265-5.698,0.689
					s-3.242,1.096-4.585,2.014c-1.343,0.919-2.473,2.111-3.392,3.577c-0.919,1.467-1.608,3.278-2.067,5.433
					c0.919-0.424,1.952-0.777,3.102-1.06c1.147-0.282,2.34-0.424,3.577-0.424c2.084,0,3.851,0.318,5.3,0.954
					c1.448,0.636,2.632,1.476,3.551,2.517c0.918,1.043,1.581,2.245,1.988,3.604c0.405,1.361,0.609,2.783,0.609,4.267
					c0,1.343-0.23,2.721-0.689,4.134c-0.459,1.414-1.158,2.703-2.094,3.869c-0.937,1.166-2.129,2.12-3.577,2.862
					c-1.449,0.742-3.163,1.113-5.142,1.113c-4.027,0-7.094-1.378-9.195-4.134C253.132,167.363,252.081,163.565,252.081,158.724z
					 M263.953,154.961c-1.237,0-2.385,0.115-3.445,0.345c-1.06,0.23-2.119,0.575-3.18,1.033c-0.035,0.389-0.063,0.787-0.08,1.193
					s-0.025,0.804-0.025,1.192c0,1.555,0.105,3.021,0.317,4.399s0.591,2.589,1.14,3.63c0.547,1.042,1.28,1.874,2.199,2.491
					c0.918,0.619,2.084,0.927,3.498,0.927c1.166,0,2.154-0.247,2.969-0.742c0.813-0.495,1.483-1.13,2.014-1.908
					c0.529-0.777,0.909-1.617,1.139-2.518c0.23-0.901,0.346-1.775,0.346-2.624c0-2.402-0.575-4.24-1.723-5.512
					C267.973,155.597,266.25,154.961,263.953,154.961z"/>
				<path style="fill:#FFFFFF;" d="M157.85,226.75c0.212-2.826,0.715-5.803,1.51-8.93s1.775-6.166,2.941-9.116
					s2.446-5.688,3.843-8.216c1.396-2.525,2.764-4.584,4.107-6.174h-17.861v-4.293h23.373v4.081
					c-1.166,1.343-2.457,3.188-3.869,5.538c-1.414,2.351-2.748,4.982-4.001,7.897c-1.255,2.915-2.332,6.024-3.233,9.328
					c-0.901,3.304-1.458,6.599-1.67,9.884H157.85z"/>
				<path style="fill:#FFFFFF;" d="M225.953,217.211c0,1.483-0.257,2.854-0.769,4.107c-0.513,1.254-1.272,2.35-2.278,3.285
					c-1.008,0.938-2.271,1.662-3.79,2.174c-1.52,0.512-3.269,0.768-5.247,0.768c-2.297,0-4.213-0.326-5.75-0.98
					c-1.537-0.652-2.766-1.475-3.684-2.464c-0.92-0.989-1.573-2.075-1.961-3.26c-0.39-1.183-0.584-2.306-0.584-3.365
					c0-1.024,0.168-2.005,0.504-2.941s0.777-1.811,1.325-2.624c0.548-0.813,1.183-1.545,1.907-2.199
					c0.725-0.653,1.492-1.227,2.307-1.723c-3.464-1.979-5.194-4.893-5.194-8.744c0-1.344,0.265-2.624,0.795-3.844
					c0.53-1.219,1.28-2.287,2.253-3.206c0.971-0.919,2.146-1.651,3.523-2.199c1.379-0.548,2.916-0.821,4.611-0.821
					c1.979,0,3.675,0.301,5.088,0.9c1.413,0.602,2.57,1.37,3.472,2.306c0.901,0.937,1.555,1.97,1.961,3.101
					c0.405,1.131,0.61,2.227,0.61,3.286c0,1.024-0.151,1.987-0.451,2.888c-0.301,0.902-0.707,1.741-1.219,2.518
					c-0.513,0.778-1.096,1.467-1.749,2.067c-0.654,0.602-1.335,1.132-2.04,1.591C223.762,209.809,225.882,212.936,225.953,217.211z
					 M206.873,217.528c0,0.636,0.114,1.299,0.345,1.987c0.229,0.689,0.626,1.325,1.192,1.908c0.564,0.583,1.289,1.069,2.173,1.457
					c0.883,0.39,1.995,0.584,3.339,0.584c1.201,0,2.253-0.177,3.154-0.53c0.9-0.353,1.633-0.804,2.199-1.352
					c0.564-0.548,0.988-1.175,1.271-1.882c0.283-0.706,0.424-1.431,0.424-2.173c0-1.13-0.211-2.12-0.636-2.968
					c-0.424-0.848-1.033-1.59-1.829-2.227c-0.795-0.635-1.748-1.174-2.861-1.616c-1.113-0.441-2.377-0.821-3.789-1.14
					c-1.59,0.884-2.818,1.979-3.684,3.286C207.305,214.172,206.873,215.727,206.873,217.528z M220.123,198.713
					c0-0.529-0.115-1.112-0.344-1.748c-0.23-0.637-0.593-1.228-1.088-1.775c-0.494-0.548-1.131-1.008-1.907-1.379
					c-0.778-0.371-1.731-0.557-2.862-0.557s-2.094,0.178-2.889,0.531s-1.439,0.803-1.934,1.352
					c-0.496,0.547-0.857,1.148-1.087,1.801c-0.23,0.654-0.345,1.299-0.345,1.936c0,0.777,0.141,1.555,0.424,2.332
					s0.725,1.502,1.325,2.172c0.601,0.672,1.386,1.272,2.358,1.803c0.972,0.529,2.129,0.953,3.472,1.271
					c1.483-0.883,2.667-1.916,3.551-3.1C219.681,202.168,220.123,200.621,220.123,198.713z"/>
				<path style="fill:#FFFFFF;" d="M275.295,204.703c0,7.279-1.811,12.781-5.432,16.509c-3.623,3.729-9.002,5.608-16.139,5.645
					l-0.159-4.134c2.226,0,4.23-0.213,6.015-0.637s3.348-1.104,4.691-2.04c1.342-0.936,2.465-2.146,3.365-3.63
					c0.9-1.484,1.563-3.304,1.987-5.459c-0.919,0.424-1.961,0.768-3.127,1.033c-1.166,0.265-2.368,0.397-3.604,0.397
					c-2.084,0-3.852-0.31-5.299-0.928c-1.449-0.618-2.633-1.448-3.552-2.491c-0.919-1.041-1.581-2.243-1.987-3.604
					c-0.406-1.359-0.609-2.783-0.609-4.267c0-1.308,0.229-2.667,0.689-4.081c0.458-1.413,1.156-2.703,2.093-3.869
					s2.128-2.12,3.577-2.861c1.449-0.742,3.162-1.113,5.142-1.113c2.014,0,3.79,0.354,5.326,1.06
					c1.537,0.708,2.827,1.731,3.869,3.074s1.829,2.978,2.358,4.902C275.03,200.137,275.295,202.301,275.295,204.703z
					 M263.424,208.359c1.236,0,2.402-0.114,3.498-0.344c1.094-0.23,2.154-0.574,3.18-1.034c0.034-0.388,0.053-0.769,0.053-1.14
					s0-0.75,0-1.139c0-1.52-0.105-2.977-0.318-4.373c-0.212-1.396-0.592-2.614-1.139-3.657c-0.549-1.042-1.281-1.872-2.2-2.491
					c-0.919-0.617-2.085-0.928-3.498-0.928c-1.166,0-2.155,0.248-2.968,0.742c-0.813,0.496-1.484,1.123-2.014,1.882
					c-0.53,0.761-0.91,1.59-1.14,2.491c-0.23,0.9-0.345,1.775-0.345,2.623c0,2.403,0.574,4.232,1.723,5.486
					C259.403,207.732,261.126,208.359,263.424,208.359z"/>
				<path style="fill:#FFFFFF;" d="M164.315,243.738c0,1.484-0.132,2.906-0.397,4.266c-0.265,1.361-0.539,2.766-0.821,4.214
					c1.272-0.706,2.525-1.396,3.763-2.067c1.236-0.67,2.579-1.254,4.028-1.748l0.318-0.106l1.484,4.452l-0.424,0.158
					c-1.414,0.531-2.828,0.875-4.24,1.034c-1.414,0.159-2.862,0.292-4.346,0.397c1.166,0.99,2.261,1.953,3.286,2.889
					c1.024,0.937,1.979,2.023,2.862,3.26l0.265,0.371l-3.869,2.703l-0.212-0.318c-0.848-1.272-1.582-2.535-2.199-3.789
					c-0.619-1.254-1.246-2.553-1.881-3.896c-0.636,1.344-1.264,2.643-1.882,3.896c-0.619,1.254-1.352,2.517-2.199,3.789
					l-0.212,0.318l-3.869-2.703l0.265-0.371c0.882-1.236,1.836-2.323,2.862-3.26c1.024-0.936,2.12-1.898,3.286-2.889
					c-1.484-0.105-2.934-0.238-4.346-0.397c-1.414-0.159-2.827-0.503-4.24-1.034l-0.424-0.158l1.484-4.452l0.318,0.106
					c1.448,0.494,2.791,1.078,4.028,1.748c1.236,0.672,2.491,1.361,3.763,2.067c-0.283-1.448-0.557-2.853-0.822-4.214
					c-0.265-1.359-0.397-2.781-0.397-4.266v-0.424h4.77V243.738z"/>
			</g>
			<g>
				<g>
					<path style="fill:#FFFFFF;" d="M143.306,125.001c0-12.372,0-24.744,0-37.115c0-4.305-0.907-10.719,5.472-10.719
						c2.778,0,5.555,0,8.333,0c29.272,0,58.544,0,87.817,0c10.576,0,21.153,0,31.729,0c3.418,0,7.562,0.411,7.562,5.083
						c0,1.823,0,3.647,0,5.47c0,24.91,0,49.82,0,74.729c0,30.487,0,60.973,0,91.46c0,7.914,0,15.828,0,23.743
						c0,3.333-0.969,6.784-5.274,6.784c-2.501,0-5.002,0-7.503,0c-28.719,0-57.437,0-86.155,0c-11.151,0-22.302,0-33.453,0
						c-3.7,0-8.528,0.134-8.528-5.197c0-5.858,0-11.716,0-17.574c0-4.514-7-4.514-7,0c0,10.528-3.288,29.771,12.599,29.771
						c8.669,0,17.338,0,26.007,0c30.072,0,60.144,0,90.216,0c7.268,0,19.363,2.042,23.95-5.18
						c3.269-5.145,2.141-12.617,2.141-18.454c0-27.506,0-55.011,0-82.517c0-28.861,0-57.723,0-86.585c0-5.52,0-11.039,0-16.558
						c0-12.285-12.134-11.977-20.805-11.977c-29.272,0-58.545,0-87.817,0c-10.576,0-21.153,0-31.729,0
						c-4.568,0-8.651,0.799-11.875,4.471c-3.606,4.107-2.687,10.444-2.687,15.497c0,11.622,0,23.244,0,34.866
						C136.306,129.515,143.306,129.515,143.306,125.001L143.306,125.001z"/>
				</g>
			</g>
			<g>
				<g>
					<path style="fill:#FFFFFF;" d="M166.134,131.503c40.528,0,81.057,0,121.585,0c4.514,0,4.514-7,0-7
						c-40.528,0-81.057,0-121.585,0C161.62,124.503,161.62,131.503,166.134,131.503L166.134,131.503z"/>
				</g>
			</g>
			<g>
				<g>
					<path style="fill:#FFFFFF;" d="M145.806,184.302c46.396,0,92.793,0,139.188,0c0.368,0,0.736,0,1.104,0c4.514,0,4.514-7,0-7
						c-46.396,0-92.793,0-139.189,0c-0.368,0-0.736,0-1.104,0C141.292,177.302,141.292,184.302,145.806,184.302L145.806,184.302z"/>
				</g>
			</g>
			<g>
				<g>
					<path style="fill:#FFFFFF;" d="M148.482,240.179c46.162,0,92.323,0,138.485,0c0.25,0,0.501,0,0.752,0c4.514,0,4.514-7,0-7
						c-46.161,0-92.323,0-138.484,0c-0.251,0-0.501,0-0.752,0C143.968,233.179,143.968,240.179,148.482,240.179L148.482,240.179z"/>
				</g>
			</g>
			<g>
				<g>
					<path style="fill:#FFFFFF;" d="M184.243,73.667c0,48.434,0,96.868,0,145.302c0,22.989,0,45.979,0,68.969c0,4.514,7,4.514,7,0
						c0-48.434,0-96.868,0-145.302c0-22.99,0-45.979,0-68.969C191.243,69.153,184.243,69.153,184.243,73.667L184.243,73.667z"/>
				</g>
			</g>
			<g>
				<g>
					<path style="fill:#FFFFFF;" d="M237.144,73.667c0,48.434,0,96.868,0,145.302c0,22.989,0,45.979,0,68.969c0,4.514,7,4.514,7,0
						c0-48.434,0-96.868,0-145.302c0-22.99,0-45.979,0-68.969C244.144,69.153,237.144,69.153,237.144,73.667L237.144,73.667z"/>
				</g>
			</g>
			<g>
				<path style="fill:#FFFFFF;" d="M202.482,261.775c0-6.147,1.087-10.882,3.26-14.203c2.174-3.321,5.186-4.982,9.037-4.982
					c3.851,0,6.863,1.661,9.036,4.982s3.26,8.056,3.26,14.203c0,6.148-1.087,10.884-3.26,14.205s-5.186,4.981-9.036,4.981
					c-3.852,0-6.863-1.66-9.037-4.981C203.569,272.659,202.482,267.924,202.482,261.775z M221.881,261.775
					c0-2.014-0.115-3.922-0.344-5.724c-0.23-1.802-0.619-3.374-1.166-4.717c-0.549-1.343-1.281-2.411-2.2-3.206
					s-2.05-1.193-3.392-1.193c-1.344,0-2.475,0.398-3.393,1.193c-0.919,0.795-1.652,1.863-2.199,3.206
					c-0.549,1.343-0.937,2.915-1.166,4.717c-0.23,1.802-0.344,3.71-0.344,5.724c0,2.015,0.113,3.922,0.344,5.725
					c0.229,1.802,0.617,3.375,1.166,4.717c0.547,1.344,1.28,2.412,2.199,3.207c0.918,0.795,2.049,1.192,3.393,1.192
					c1.342,0,2.473-0.397,3.392-1.192s1.651-1.863,2.2-3.207c0.547-1.342,0.936-2.915,1.166-4.717
					C221.766,265.697,221.881,263.79,221.881,261.775z"/>
			</g>
			<g>
				<path style="fill:#FFFFFF;" d="M261.885,253.137h8.586l1.855-9.699h4.451l-1.854,9.699h4.664v3.922h-5.459l-1.802,9.487h7.261
					v3.922h-8.003l-1.855,9.699h-4.451l1.854-9.699h-8.586l-1.854,9.699h-4.453l1.855-9.699h-4.664v-3.922h5.406l1.803-9.487h-7.209
					v-3.922h8.004l1.854-9.699h4.452L261.885,253.137z M259.288,266.546h8.586l1.854-9.487h-8.586L259.288,266.546z"/>
			</g>
		</g>
		<g>
			<g>
				<path style="fill:#FFFFFF;" d="M136.306,190.334c0,13.205,0,26.411,0,39.616c0,4.514,7,4.514,7,0c0-13.205,0-26.411,0-39.616
					C143.306,185.82,136.306,185.82,136.306,190.334L136.306,190.334z"/>
			</g>
		</g>
	</g>
</g>
<g id="Ebene_1">
</g>
</svg>
