<?xml version="1.0" encoding="iso-8859-1"?>
<!-- Generator: Adobe Illustrator 16.0.0, SVG Export Plug-In . SVG Version: 6.00 Build 0)  -->
<!DOCTYPE svg PUBLIC "-//W3C//DTD SVG 1.1//EN" "http://www.w3.org/Graphics/SVG/1.1/DTD/svg11.dtd">
<svg version="1.1" xmlns="http://www.w3.org/2000/svg" xmlns:xlink="http://www.w3.org/1999/xlink" x="0px" y="0px" width="361px"
	 height="361px" viewBox="0 0 361 361" style="enable-background:new 0 0 361 361;" xml:space="preserve">
<g id="edit_x5F_numeric_x5F_0">
	<g>
		<g>
			<path style="fill:#FFFFFF;" d="M282.091,248.793c-0.342,19.011-15.57,33.223-34.364,33.223c-9.349,0-18.696,0-28.045,0
				c-30.382,0-60.764,0-91.146,0c-8.193,0-17.079,0.821-25.046-1.37c-15.908-4.376-23.746-19.357-23.746-34.84
				c0-26.94,0-53.881,0-80.822c0-13.63,0-27.261,0-40.891c0-10.286-0.432-19.816,5.218-29.091
				c5.9-9.688,16.872-15.134,28.005-15.334c1.873-0.034,3.75,0,5.623,0c11.993,0,23.985,0,35.978,0c28.948,0,57.895,0,86.843,0
				c2.435,0,4.869,0,7.304,0c9.692,0,18.423,4.118,24.992,11.149c8.259,8.838,8.384,19.892,8.384,31.057
				C282.091,164.179,282.091,206.486,282.091,248.793c0,6.448,10,6.448,10,0c0-45.25,0-90.499,0-135.749
				c0-21.074-15.582-39.412-36.368-42.802c-7.717-1.259-15.997-0.575-23.774-0.575c-30.484,0-60.969,0-91.454,0
				c-8.919,0-17.838,0-26.757,0c-19.139,0-35.525,11.826-41.866,29.812c-2.981,8.458-2.127,18.187-2.127,27.037
				c0,14.13,0,28.26,0,42.39c0,26.019,0,52.037,0,78.056c0,17.04,8.363,32.442,23.721,40.403c9.584,4.968,19.753,4.651,30.13,4.651
				c29.716,0,59.432,0,89.148,0c10.936,0,21.872,0,32.808,0c15.528,0,28.915-5.53,38.481-18.126
				c5.414-7.128,7.898-16.254,8.058-25.097C292.207,242.341,282.207,242.352,282.091,248.793z"/>
		</g>
	</g>
	<g>
		<path style="fill:#FFFFFF;" d="M131.813,180.303c0-25.812,4.252-45.54,12.76-59.18c8.504-13.64,20.604-20.46,36.3-20.46
			c15.545,0,27.609,6.82,36.189,20.46c8.58,13.64,12.871,33.368,12.871,59.18c0,25.668-4.291,45.32-12.871,58.96
			s-20.645,20.46-36.189,20.46c-15.548,0-27.61-6.82-36.19-20.46S131.813,205.971,131.813,180.303z M214.313,180.303
			c0-8.8-0.549-17.194-1.649-25.19c-1.101-7.992-2.97-15.07-5.61-21.23c-2.64-6.16-6.088-11.072-10.34-14.74
			c-4.256-3.665-9.535-5.5-15.84-5.5c-6.456,0-11.808,1.835-16.06,5.5c-4.255,3.667-7.666,8.58-10.23,14.74
			c-2.568,6.16-4.4,13.238-5.5,21.23c-1.1,7.996-1.65,16.39-1.65,25.19c0,8.801,0.55,17.197,1.65,25.189
			c1.1,7.996,2.932,15.036,5.5,21.121c2.564,6.088,5.975,10.965,10.23,14.629c4.252,3.668,9.604,5.5,16.06,5.5
			c6.305,0,11.584-1.832,15.84-5.5c4.252-3.664,7.7-8.541,10.34-14.629c2.641-6.085,4.51-13.125,5.61-21.121
			C213.764,197.5,214.313,189.104,214.313,180.303z"/>
	</g>
</g>
<g id="Ebene_1">
</g>
</svg>
