<?xml version="1.0" encoding="iso-8859-1"?>
<!-- Generator: Adobe Illustrator 16.0.0, SVG Export Plug-In . SVG Version: 6.00 Build 0)  -->
<!DOCTYPE svg PUBLIC "-//W3C//DTD SVG 1.1//EN" "http://www.w3.org/Graphics/SVG/1.1/DTD/svg11.dtd">
<svg version="1.1" xmlns="http://www.w3.org/2000/svg" xmlns:xlink="http://www.w3.org/1999/xlink" x="0px" y="0px" width="361px"
	 height="361px" viewBox="0 0 361 361" style="enable-background:new 0 0 361 361;" xml:space="preserve">
<g id="edit_x5F_sort">
	<g>
		<path style="fill:#FFFFFF;" d="M134.224,152.667c-0.926-2.889-1.92-5.857-2.985-8.902s-2.126-6.079-3.182-9.098H95.578
			c-1.05,3.034-2.104,6.073-3.158,9.122c-1.056,3.048-2.038,6.009-2.947,8.878h-19.44c3.129-8.959,6.097-17.239,8.906-24.84
			c2.809-7.6,5.556-14.76,8.244-21.48c2.689-6.72,5.336-13.099,7.944-19.14c2.608-6.04,5.317-11.94,8.126-17.7h17.745
			c2.732,5.76,5.425,11.661,8.078,17.7c2.651,6.041,5.325,12.42,8.018,19.14c2.692,6.72,5.445,13.88,8.257,21.48
			c2.813,7.601,5.787,15.881,8.921,24.84H134.224z M111.733,88.348c-0.418,1.208-1.029,2.852-1.833,4.929
			c-0.805,2.08-1.72,4.481-2.747,7.206c-1.027,2.725-2.177,5.725-3.446,9c-1.27,3.276-2.559,6.71-3.87,10.305h23.781
			c-1.273-3.606-2.505-7.052-3.697-10.337c-1.193-3.285-2.327-6.291-3.399-9.017c-1.075-2.724-2.016-5.124-2.826-7.202
			C112.884,91.156,112.23,89.529,111.733,88.348z"/>
	</g>
	<g>
		<path style="fill:#FFFFFF;" d="M133.78,221.467c-2.561,2.641-5.604,6.061-9.125,10.26c-3.521,4.2-7.163,8.781-10.924,13.74
			c-3.761,4.961-7.483,10.08-11.166,15.36s-6.964,10.319-9.844,15.12H135.1v15.72H69.7v-11.16c2.239-4.08,4.98-8.619,8.22-13.62
			c3.24-4.998,6.619-10.039,10.14-15.119c3.52-5.08,7.099-10,10.74-14.761c3.64-4.759,7.02-9.019,10.14-12.78H71.62v-15.72h62.16
			V221.467z"/>
	</g>
	<path style="fill:none;stroke:#FFFFFF;stroke-width:10;stroke-miterlimit:10;" d="M264.741,209.24c2.141,0,3.876-0.542,3.876-1.209
		v-20.97c0-0.667-1.735-1.21-3.876-1.21H189.17c-2.141,0-3.875,0.541-3.875,1.21v20.97c0,0.668,1.734,1.209,3.875,1.209H264.741z"/>
	<g>
		<g>
			<path style="fill:#FFFFFF;" d="M164.485,212.283c19.552,25.581,39.104,51.162,58.656,76.743c2.429,3.178,6.206,3.178,8.635,0
				c19.552-25.581,39.104-51.163,58.655-76.744c2.39-3.126-0.882-7.523-4.317-7.523c-39.104,0-78.207,0.001-117.311,0.001
				c-6.449,0-6.449,10,0,10c39.104,0,78.208-0.001,117.311-0.001c-1.439-2.508-2.878-5.016-4.317-7.523
				c-19.552,25.581-39.104,51.163-58.655,76.744c2.878,0,5.757,0,8.635,0c-19.552-25.581-39.104-51.162-58.656-76.743
				C169.26,202.187,160.567,207.158,164.485,212.283z"/>
		</g>
	</g>
	<path style="fill:none;stroke:#FFFFFF;stroke-width:10;stroke-miterlimit:10;" d="M264.741,164.75c2.141,0,3.876-0.542,3.876-1.209
		v-20.97c0-0.667-1.735-1.209-3.876-1.209l-75.571,0c-2.141,0-3.875,0.542-3.875,1.21v20.969c0,0.668,1.734,1.209,3.875,1.21
		L264.741,164.75z"/>
	<path style="fill:none;stroke:#FFFFFF;stroke-width:10;stroke-miterlimit:10;" d="M265.243,120.389
		c2.141,0,3.876-0.542,3.876-1.209V98.21c0-0.667-1.735-1.209-3.876-1.209l-75.571,0c-2.141,0-3.875,0.542-3.875,1.21v20.969
		c0,0.668,1.734,1.209,3.875,1.21L265.243,120.389z"/>
</g>
<g id="Ebene_1">
</g>
</svg>
