<?xml version="1.0" encoding="iso-8859-1"?>
<!-- Generator: Adobe Illustrator 16.0.0, SVG Export Plug-In . SVG Version: 6.00 Build 0)  -->
<!DOCTYPE svg PUBLIC "-//W3C//DTD SVG 1.1//EN" "http://www.w3.org/Graphics/SVG/1.1/DTD/svg11.dtd">
<svg version="1.1" xmlns="http://www.w3.org/2000/svg" xmlns:xlink="http://www.w3.org/1999/xlink" x="0px" y="0px" width="361px"
	 height="361px" viewBox="0 0 361 361" style="enable-background:new 0 0 361 361;" xml:space="preserve">
<g id="edit_x5F_expand">
	<g style="display:none;">
		<path style="display:inline;fill:none;stroke:#FFFFFF;stroke-width:10;stroke-miterlimit:10;" d="M239.098,81.282
			c0-3.562-2.887-6.449-6.447-6.449H81.125c-3.562,0-6.449,2.887-6.449,6.449v198.272c0,3.561,2.887,6.447,6.449,6.447H232.65
			c3.561,0,6.447-2.887,6.447-6.447V81.282z"/>
		<g style="display:inline;">
			<g>
				<path style="fill:#FFFFFF;" d="M99.637,111.333c38.167,0,76.333,0,114.5,0c6.448,0,6.448-10,0-10c-38.167,0-76.333,0-114.5,0
					C93.188,101.333,93.188,111.333,99.637,111.333L99.637,111.333z"/>
			</g>
		</g>
		<g style="display:inline;">
			<g>
				<path style="fill:#FFFFFF;" d="M99.637,166.534c38.167,0,76.333,0,114.5,0c6.448,0,6.448-10,0-10c-38.167,0-76.333,0-114.5,0
					C93.188,156.534,93.188,166.534,99.637,166.534L99.637,166.534z"/>
			</g>
		</g>
		<g style="display:inline;">
			<g>
				<path style="fill:#FFFFFF;" d="M99.637,138.934c38.167,0,76.333,0,114.5,0c6.448,0,6.448-10,0-10c-38.167,0-76.333,0-114.5,0
					C93.188,128.934,93.188,138.934,99.637,138.934L99.637,138.934z"/>
			</g>
		</g>
		<g style="display:inline;">
			<g>
				<path style="fill:#FFFFFF;" d="M99.637,194.133c38.167,0,76.333,0,114.5,0c6.448,0,6.448-10,0-10c-38.167,0-76.333,0-114.5,0
					C93.188,184.133,93.188,194.133,99.637,194.133L99.637,194.133z"/>
			</g>
		</g>
		<g style="display:inline;">
			<g>
				<path style="fill:#FFFFFF;" d="M100.304,221.733c37.722,0,75.445,0,113.167,0c6.448,0,6.448-10,0-10
					c-37.722,0-75.445,0-113.167,0C93.855,211.733,93.855,221.733,100.304,221.733L100.304,221.733z"/>
			</g>
		</g>
		<g style="display:inline;">
			<g>
				<path style="fill:#FFFFFF;" d="M100.471,249.334c37.611,0,75.222,0,112.833,0c6.448,0,6.448-10,0-10
					c-37.611,0-75.222,0-112.833,0C94.022,239.334,94.022,249.334,100.471,249.334L100.471,249.334z"/>
			</g>
		</g>
	</g>
	<g>
		<g>
			<path style="fill:#FFFFFF;" d="M226.932,164.01c0-11.232,0-22.465,0-33.697c0-7.319,0-14.638,0-21.957
				c0-4.342,0.282-8.861-0.484-13.155c-1.913-10.713-9.253-19.926-19.419-23.934C202.15,69.345,197.174,69,192.023,69
				c-12.979,0-25.959,0-38.938,0c-14.63,0-29.259,0-43.889,0c-2.777,0-5.554,0-8.33,0c-10.789,0-20.214,5.538-26.37,14.194
				c-6.652,9.353-5.222,21.683-5.222,32.525c0,15.62,0,31.24,0,46.86c0,9.853,0,19.706,0,29.56c0,13.165,5.365,24.983,17.532,31.215
				c9.645,4.94,22.195,3.304,32.686,3.304c9.807,0,19.614,0,29.421,0c6.449,0,6.449-10,0-10c-12.251,0-24.503,0-36.755,0
				c-4.657,0-9.375,0.216-14.024-0.138c-10.696-0.813-18.86-11.14-18.86-21.454c0-25.134,0-50.269,0-75.403
				c0-9.586-1.794-21.719,3.166-30.343C89.176,77.605,102.365,79,113.791,79c26.824,0,53.647,0,80.471,0
				c10.996,0,19.817,6.757,22.309,17.55c1.342,5.815,0.361,12.858,0.361,18.739c0,16.24,0,32.48,0,48.72
				C216.932,170.458,226.932,170.458,226.932,164.01L226.932,164.01z"/>
		</g>
	</g>
	<g>
		<g>
			<path style="fill:#FFFFFF;" d="M188.213,140.235c-26.574,0-53.148,0-79.722,0c-9.687,0-9.772,15.003-0.108,15.003
				c26.574,0,53.148,0,79.723,0C197.791,155.238,197.877,140.235,188.213,140.235L188.213,140.235z"/>
		</g>
	</g>
	<g>
		<g>
			<path style="fill:#FFFFFF;" d="M155.799,187.651c0-26.574,0-53.148,0-79.722c0-9.687-15.003-9.772-15.003-0.108
				c0,26.574,0,53.148,0,79.723C140.796,197.229,155.799,197.315,155.799,187.651L155.799,187.651z"/>
		</g>
	</g>
	<path style="fill:none;stroke:#FFFFFF;stroke-width:10;stroke-miterlimit:10;" d="M265.546,209.891
		c2.141,0,3.876-0.543,3.876-1.209v-20.971c0-0.667-1.735-1.209-3.876-1.209h-75.571c-2.141,0-3.875,0.541-3.875,1.209v20.97
		c0,0.668,1.735,1.21,3.875,1.21H265.546z"/>
	<g>
		<g>
			<path style="fill:#FFFFFF;" d="M165.29,212.933c19.552,25.581,39.104,51.162,58.656,76.743c2.429,3.178,6.206,3.178,8.635,0
				c19.552-25.581,39.104-51.162,58.656-76.744c2.39-3.126-0.882-7.523-4.317-7.523c-39.104,0-78.208,0.001-117.312,0.001
				c-6.449,0-6.449,10,0,10c39.104,0,78.208-0.001,117.312-0.001c-1.439-2.508-2.878-5.016-4.317-7.523
				c-19.552,25.581-39.104,51.162-58.656,76.744c2.878,0,5.757,0,8.635,0c-19.552-25.581-39.104-51.162-58.656-76.743
				C170.064,202.836,161.372,207.808,165.29,212.933z"/>
		</g>
	</g>
</g>
<g id="Ebene_1">
</g>
</svg>
