<?xml version="1.0" encoding="iso-8859-1"?>
<!-- Generator: Adobe Illustrator 16.0.0, SVG Export Plug-In . SVG Version: 6.00 Build 0)  -->
<!DOCTYPE svg PUBLIC "-//W3C//DTD SVG 1.1 Tiny//EN" "http://www.w3.org/Graphics/SVG/1.1/DTD/svg11-tiny.dtd">
<svg version="1.1" baseProfile="tiny" id="edit_x5F_cut"
	 xmlns="http://www.w3.org/2000/svg" xmlns:xlink="http://www.w3.org/1999/xlink" x="0px" y="0px" width="361px" height="361px"
	 viewBox="0 0 361 361" xml:space="preserve">
<g display="none">
	<path display="inline" fill="none" stroke="#FFFFFF" stroke-width="10" stroke-miterlimit="10" d="M236.58,84.16
		c0-3.562-2.887-6.449-6.448-6.449H78.607c-3.562,0-6.449,2.887-6.449,6.449v198.273c0,3.561,2.887,6.447,6.449,6.447h151.525
		c3.561,0,6.448-2.887,6.448-6.447V84.16z"/>
	<g display="inline">
		<path fill="#FFFFFF" d="M97.119,114.211c38.167,0,76.333,0,114.5,0c6.449,0,6.449-10,0-10c-38.167,0-76.333,0-114.5,0
			C90.67,104.211,90.67,114.211,97.119,114.211L97.119,114.211z"/>
	</g>
	<g display="inline">
		<path fill="#FFFFFF" d="M97.119,169.412c38.167,0,76.333,0,114.5,0c6.449,0,6.449-10,0-10c-38.167,0-76.333,0-114.5,0
			C90.67,159.412,90.67,169.412,97.119,169.412L97.119,169.412z"/>
	</g>
	<g display="inline">
		<path fill="#FFFFFF" d="M97.119,141.812c38.167,0,76.333,0,114.5,0c6.449,0,6.449-10,0-10c-38.167,0-76.333,0-114.5,0
			C90.67,131.812,90.67,141.812,97.119,141.812L97.119,141.812z"/>
	</g>
	<g display="inline">
		<path fill="#FFFFFF" d="M97.119,197.011c38.167,0,76.333,0,114.5,0c6.449,0,6.449-10,0-10c-38.167,0-76.333,0-114.5,0
			C90.67,187.011,90.67,197.011,97.119,197.011L97.119,197.011z"/>
	</g>
	<g display="inline">
		<path fill="#FFFFFF" d="M97.786,224.611c37.722,0,75.445,0,113.167,0c6.449,0,6.449-10,0-10c-37.722,0-75.445,0-113.167,0
			C91.337,214.611,91.337,224.611,97.786,224.611L97.786,224.611z"/>
	</g>
	<g display="inline">
		<path fill="#FFFFFF" d="M97.953,252.211c37.611,0,75.222,0,112.833,0c6.449,0,6.449-10,0-10c-37.611,0-75.222,0-112.833,0
			C91.504,242.211,91.504,252.211,97.953,252.211L97.953,252.211z"/>
	</g>
</g>
<g>
	<g>
		<path fill="#FFFFFF" d="M156.493,278.882c-2.313,6.883-5.577,4.97-11.733,4.522c-3.105-0.225-6.21-0.451-9.316-0.676
			c-0.334-0.024-0.669-0.048-1.004-0.073c3.335,0.242,0.942,1.321,1.606-0.884c0.163-0.54,0.325-1.08,0.488-1.62
			c1.784-5.925,3.567-11.85,5.351-17.775c1.239-4.115,2.043-8.99,3.838-12.871c1.394-3.013,4.739-5.744,7.501-7.442
			c0.013-0.008-0.482-0.035,0.454-0.031c1.487,0.007,2.974,0.015,4.46,0.022c3.116,0.016,6.232,0.031,9.348,0.046
			c1.543,0.007-0.578,0.197-1.113-0.526c0.466,0.63-0.094,2.12-0.025,2.703c0.006,0.047-0.004,0.1-0.01,0.146
			c0.281-2.595-0.032-0.184-0.182,0.473c-0.423,1.852-0.918,3.688-1.411,5.522C162.185,259.959,159.331,269.423,156.493,278.882
			c-1.858,6.192,7.795,8.819,9.643,2.658c2.963-9.878,5.938-19.76,8.592-29.727c0.65-2.442,1.4-4.939,1.619-7.471
			c0.273-3.162-0.073-6.104-2.011-8.722c-2.478-3.347-5.769-3.513-9.513-3.532c-6.659-0.033-13.382-1.287-18.976,2.949
			c-5.397,4.087-8.8,8.722-10.716,15.084c-2.157,7.165-4.314,14.33-6.471,21.494c-1.637,5.438-5.288,14.07,0.348,18.531
			c5.157,4.082,13.704,3.109,19.986,3.565c0.429,0.031,3.328,0.385,1.446,0.069c1.958,0.328,3.813,0.241,5.732-0.301
			c5.472-1.545,8.295-6.972,9.964-11.94C168.195,275.41,158.536,272.803,156.493,278.882z"/>
	</g>
	<g>
		<path fill="#FFFFFF" d="M175.44,247.226c4.387-12.323,11.445-22.812,20.372-32.277c4.346-4.608,11.298-9.85,11.61-16.747
			c0.147-3.258-3.82-4.353-5.975-2.475c-0.035,0.031-0.071,0.062-0.106,0.093c1.992,0.825,3.983,1.65,5.975,2.475
			c-0.328-21.878-0.655-43.756-0.982-65.634c-0.192-12.842-0.384-25.684-0.577-38.526c-0.04-2.648-0.079-5.296-0.119-7.944
			c-0.113-7.517-7.439-12.654-14.322-13.479c-2.065-0.248-3.28,1.795-3.5,3.5c-1.17,9.083-1.358,18.35-1.873,27.486
			c-0.877,15.589-1.755,31.178-2.632,46.767c-0.725,12.876-1.449,25.751-2.174,38.627c-0.607,10.79-2.619,21.152-7.147,31.091
			c-2.302,5.051-6.34,13.063-12.769,13.326c-4.498,0.184-4.516,7.185,0,7c16.529-0.675,22.99-24.875,25.564-37.805
			c1.526-7.664,1.473-15.755,1.911-23.534c1.625-28.884,3.251-57.769,4.876-86.653c0.307-5.444,0.546-10.892,1.244-16.305
			c-1.167,1.167-2.333,2.333-3.5,3.5c9.828,1.179,7.422,13.187,7.524,19.993c0.194,12.968,0.388,25.937,0.583,38.904
			c0.297,19.896,0.595,39.791,0.893,59.687c0.048,3.192,3.712,4.447,5.975,2.475c0.035-0.031,0.071-0.062,0.106-0.093
			c-1.992-0.825-3.983-1.65-5.975-2.475c-0.088,1.947-2.176,3.964-3.453,5.387c-2.902,3.238-6.034,6.265-8.955,9.488
			c-8.57,9.457-15.043,20.263-19.324,32.287C167.172,249.628,173.937,251.446,175.44,247.226L175.44,247.226z"/>
	</g>
</g>
<g>
	<g>
		<path fill="#FFFFFF" d="M219.265,272.61c3.363,3.888,7.554,6.993,12.907,6.855c2.857-0.074,5.278-1.591,7.762-2.812
			c4.766-2.343,15.222-5.152,16.76-11.104c1.862-7.205-3.178-12.077-7.28-17.183c-4.686-5.833-9.372-11.667-14.058-17.5
			c-4.081-5.08-9.156-7.888-15.528-9.609c-1.921-0.519-3.902-0.73-5.867-0.423c-0.568,0.089-2.89,1.056-1.021,0.29
			c-0.351,0.144-0.702,0.288-1.053,0.432c-3.527,1.447-7.054,2.894-10.581,4.341c-3.032,1.244-6.245,2.542-7.168,6.113
			c-0.977,3.78,0.021,6.795,1.596,10.098c0.969,2.031,2.684,3.882,4.021,5.661C206.079,256.185,212.68,264.397,219.265,272.61
			c4.034,5.032,11.063-2.092,7.071-7.071c-7.315-9.124-15.826-18.201-21.865-28.291c-0.042-0.069-0.081-0.139-0.115-0.211
			c4.379,9.185,0.588,1.52,0.489,1.158c-0.681-2.491-0.717-2.722-3.18-1.712c2.475-1.015,4.95-2.031,7.425-3.046
			c2.195-0.901,4.39-1.801,6.584-2.702c3.333-1.367-0.484-0.219,0.567-0.042c0.996,0.167,1.969,0.492,2.931,0.79
			c2.017,0.625,3.893,1.554,5.701,2.632c3.144,1.876,5.673,6.64,7.898,9.41c4.127,5.137,8.254,10.275,12.381,15.413
			c0.912,1.135,1.919,3.09,2.828,2.644c-2.223,1.093-4.445,2.185-6.667,3.277c-2.642,1.298-5.283,2.597-7.925,3.895
			c-3.105,1.526-4.914-0.741-7.054-3.215C222.11,260.653,215.068,267.759,219.265,272.61z"/>
	</g>
	<g>
		<path fill="#FFFFFF" d="M202.592,239.188c-8.385-9.42-18.36-16.764-29.662-22.307c-3.682-1.806-7.476-3.37-11.187-5.114
			c-2.204-1.036-5.083-2.166-6.17-4.51c-1.317,1.714-2.635,3.428-3.953,5.142c0.044,0.015,0.089,0.031,0.133,0.046
			c2.385,0.821,5.255-1.853,4.306-4.306c-7.184-18.555-14.368-37.111-21.551-55.667c-4.683-12.095-9.365-24.19-14.047-36.285
			c-2.674-6.906-9.338-16.922-0.196-21.959c-1.596-0.418-3.192-0.837-4.789-1.255c4.49,7.982,8.139,16.501,12.041,24.778
			c6.659,14.123,13.317,28.246,19.976,42.369c10.027,21.267,18.311,45.341,35.306,62.225c6.179,6.138,15.588,13.296,24.82,10.018
			c4.222-1.5,2.404-8.265-1.861-6.75c-8.065,2.865-16.449-6.364-21.269-11.61c-4.929-5.365-9.272-11.435-12.382-18.03
			c-3.678-7.801-7.355-15.602-11.034-23.402c-11.57-24.541-23.141-49.081-34.71-73.621c-1.518-3.219-3.096-6.405-4.842-9.508
			c-0.952-1.692-3.14-2.164-4.789-1.255c-5.645,3.11-10.413,10.771-7.9,17.261c0.956,2.47,1.912,4.939,2.868,7.409
			c4.637,11.977,9.274,23.955,13.911,35.932c7.899,20.404,15.799,40.809,23.699,61.214c1.435-1.436,2.87-2.871,4.306-4.306
			c-0.044-0.015-0.089-0.031-0.133-0.046c-3.186-1.097-5.127,2.606-3.953,5.142c2.74,5.914,11.338,8.206,16.743,10.665
			c12.025,5.47,22.555,12.78,31.37,22.683C200.649,247.517,205.583,242.548,202.592,239.188L202.592,239.188z"/>
	</g>
</g>
</svg>
