<?xml version="1.0" encoding="iso-8859-1"?>
<!-- Generator: Adobe Illustrator 16.0.0, SVG Export Plug-In . SVG Version: 6.00 Build 0)  -->
<!DOCTYPE svg PUBLIC "-//W3C//DTD SVG 1.1//EN" "http://www.w3.org/Graphics/SVG/1.1/DTD/svg11.dtd">
<svg version="1.1" xmlns="http://www.w3.org/2000/svg" xmlns:xlink="http://www.w3.org/1999/xlink" x="0px" y="0px" width="361px"
	 height="361px" viewBox="0 0 361 361" style="enable-background:new 0 0 361 361;" xml:space="preserve">
<g id="edit_x5F_numeric_x5F_9">
	<g>
		<g>
			<path style="fill:#FFFFFF;" d="M282.091,248.793c-0.342,19.011-15.57,33.223-34.364,33.223c-9.349,0-18.696,0-28.045,0
				c-30.382,0-60.764,0-91.146,0c-8.193,0-17.079,0.821-25.046-1.37c-15.908-4.376-23.746-19.357-23.746-34.84
				c0-26.94,0-53.881,0-80.822c0-13.63,0-27.261,0-40.891c0-10.286-0.432-19.816,5.218-29.091
				c5.9-9.688,16.872-15.134,28.005-15.334c1.873-0.034,3.75,0,5.623,0c11.993,0,23.985,0,35.978,0c28.948,0,57.895,0,86.843,0
				c2.435,0,4.869,0,7.304,0c9.692,0,18.423,4.118,24.992,11.149c8.259,8.838,8.384,19.892,8.384,31.057
				C282.091,164.179,282.091,206.486,282.091,248.793c0,6.448,10,6.448,10,0c0-45.25,0-90.499,0-135.749
				c0-21.074-15.582-39.412-36.368-42.802c-7.717-1.259-15.997-0.575-23.774-0.575c-30.484,0-60.969,0-91.454,0
				c-8.919,0-17.838,0-26.757,0c-19.139,0-35.525,11.826-41.866,29.812c-2.981,8.458-2.127,18.187-2.127,27.037
				c0,14.13,0,28.26,0,42.39c0,26.019,0,52.037,0,78.056c0,17.04,8.363,32.442,23.721,40.403c9.584,4.968,19.753,4.651,30.13,4.651
				c29.716,0,59.432,0,89.148,0c10.936,0,21.872,0,32.808,0c15.528,0,28.915-5.53,38.481-18.126
				c5.414-7.128,7.898-16.254,8.058-25.097C292.207,242.341,282.207,242.352,282.091,248.793z"/>
		</g>
	</g>
	<g>
		<path style="fill:#FFFFFF;" d="M226.633,164.463c0,30.656-7.336,53.718-22,69.189c-14.668,15.477-36.08,23.211-64.24,23.211
			l-0.44-11.881c9.68,0,18.552-1.1,26.62-3.3c8.064-2.2,15.069-5.61,21.01-10.229c5.94-4.62,10.78-10.561,14.521-17.82
			c3.739-7.26,6.27-16.021,7.59-26.29c-3.961,2.056-8.729,3.851-14.301,5.39c-5.575,1.541-11.516,2.311-17.819,2.311
			c-8.216,0-15.18-1.282-20.9-3.85c-5.72-2.564-10.34-5.975-13.86-10.23c-3.52-4.252-6.088-9.165-7.7-14.74
			c-1.615-5.572-2.42-11.364-2.42-17.38c0-5.572,0.88-11.22,2.64-16.94s4.51-10.89,8.25-15.51c3.74-4.62,8.432-8.395,14.08-11.33
			c5.645-2.932,12.354-4.4,20.13-4.4c15.984,0,28.122,5.61,36.41,16.83C222.487,128.713,226.633,144.371,226.633,164.463z
			 M178.893,182.503c6.744,0,12.65-0.771,17.71-2.31c5.06-1.54,9.789-3.334,14.189-5.39c0.145-1.76,0.254-3.444,0.33-5.06
			c0.072-1.612,0.109-3.444,0.109-5.5c0-6.892-0.477-13.42-1.43-19.58c-0.955-6.16-2.715-11.584-5.279-16.28
			c-2.568-4.692-5.979-8.395-10.23-11.11c-4.256-2.712-9.68-4.07-16.28-4.07c-5.428,0-10.048,0.99-13.86,2.97
			c-3.815,1.98-6.896,4.585-9.24,7.81c-2.348,3.228-4.07,6.968-5.17,11.22c-1.1,4.256-1.65,8.656-1.65,13.2
			c0,11.588,2.603,20.168,7.81,25.74C161.107,179.718,168.773,182.503,178.893,182.503z"/>
	</g>
</g>
<g id="Ebene_1">
</g>
</svg>
