<?xml version="1.0" encoding="iso-8859-1"?>
<!-- Generator: Adobe Illustrator 16.0.0, SVG Export Plug-In . SVG Version: 6.00 Build 0)  -->
<!DOCTYPE svg PUBLIC "-//W3C//DTD SVG 1.1//EN" "http://www.w3.org/Graphics/SVG/1.1/DTD/svg11.dtd">
<svg version="1.1" xmlns="http://www.w3.org/2000/svg" xmlns:xlink="http://www.w3.org/1999/xlink" x="0px" y="0px" width="361px"
	 height="361px" viewBox="0 0 361 361" style="enable-background:new 0 0 361 361;" xml:space="preserve">
<g id="edit_x5F_save">
	<path style="fill:none;stroke:#FFFFFF;stroke-width:10;stroke-miterlimit:10;" d="M287.139,278.447
		c0,4.433-3.594,8.025-8.025,8.025H83.154c-4.433,0-8.026-3.593-8.026-8.025V82.488c0-4.433,3.593-8.026,8.026-8.026h195.959
		c4.432,0,8.025,3.593,8.025,8.026V278.447z"/>
	<g>
		<g>
			<path style="fill:#FFFFFF;" d="M257.893,158.114c-0.377,3.273-5.382,2.349-7.291,2.349c-4.643,0-9.286,0-13.93,0
				c-14.693,0-29.387,0-44.079,0c-25.866,0-51.732,0-77.598,0c-2.259,0-4.604-0.39-4.604-3.39c0-4.679,0-9.357,0-14.036
				c0-15.611,0-31.223,0-46.834c0-4.86,0-9.721,0-14.582c0-2.784,1.974-3.659,4.337-3.659c9.759,0,19.518,0,29.276,0
				c30.654,0,61.307,0,91.961,0c6.525,0,13.052,0,19.577,0c3.714,0,2.35,9.184,2.35,10.827c0,7.01,0,14.021,0,21.031
				C257.893,125.918,257.893,142.016,257.893,158.114c0,4.514,7,4.514,7,0c0-24.451,0-48.902,0-73.354
				c0-4.342,0.336-9.328-3.925-12.036c-2.903-1.846-5.684-1.763-8.902-1.763c-10.692,0-21.386,0-32.078,0
				c-30.366,0-60.732,0-91.098,0c-6.173,0-16.033-1.759-21.574,1.763c-4.26,2.708-3.924,7.694-3.924,12.036
				c0,6.144,0,12.287,0,18.43c0,15.262,0,30.523,0,45.785c0,8.207-0.763,18.487,10.634,18.487c24.865,0,49.731,0,74.597,0
				c16.924,0,33.849,0,50.772,0c8.894,0,24.077,2.986,25.498-9.349C265.409,153.634,258.403,153.684,257.893,158.114z"/>
		</g>
	</g>
	<path style="fill:none;stroke:#FFFFFF;stroke-width:10;stroke-miterlimit:10;" d="M88.776,94.894c0,2.347-1.902,4.25-4.25,4.25
		h-4.378c-2.347,0-4.25-1.902-4.25-4.25l0,0c0-2.347,1.902-4.25,4.25-4.25h4.378C86.874,90.645,88.776,92.547,88.776,94.894
		L88.776,94.894z"/>
	<g>
		<g>
			<path style="fill:#FFFFFF;" d="M124.833,103.304c39.184,0,78.368,0,117.552,0c4.514,0,4.514-7,0-7c-39.184,0-78.368,0-117.552,0
				C120.319,96.304,120.319,103.304,124.833,103.304L124.833,103.304z"/>
		</g>
	</g>
	<g>
		<g>
			<path style="fill:#FFFFFF;" d="M124.833,151.771c39.184,0,78.368,0,117.552,0c4.514,0,4.514-7,0-7c-39.184,0-78.368,0-117.552,0
				C120.319,144.771,120.319,151.771,124.833,151.771L124.833,151.771z"/>
		</g>
	</g>
	<g>
		<g>
			<path style="fill:#FFFFFF;" d="M124.833,127.537c39.184,0,78.368,0,117.552,0c4.514,0,4.514-7,0-7c-39.184,0-78.368,0-117.552,0
				C120.319,120.537,120.319,127.537,124.833,127.537L124.833,127.537z"/>
		</g>
	</g>
	<path style="fill:#FFFFFF;" d="M155.865,266.576c0,4.275-3.344,7.74-7.469,7.74H133.93c-4.125,0-7.468-3.465-7.468-7.74v-49.301
		c0-4.275,3.344-7.742,7.468-7.742h14.467c4.125,0,7.469,3.467,7.469,7.742V266.576z"/>
	<g>
		<g>
			<path style="fill:#FFFFFF;" d="M245.038,278.414c-0.429,5.251-5.506,4.559-9.203,4.559c-5.014,0-10.026,0-15.04,0
				c-15.471,0-30.94,0-46.411,0c-14.005,0-28.01,0-42.015,0c-3.181,0-6.362,0-9.543,0c-5.045,0-5.193-4.123-5.193-7.804
				c0-14.04,0-28.08,0-42.12c0-6.883,0-13.766,0-20.648c0-4.138-1.266-11.051,4.66-11.523c7.47-0.596,15.231,0,22.718,0
				c15.739,0,31.477,0,47.216,0c13.073,0,26.146,0,39.22,0c2.847,0,5.693,0,8.539,0c5.014,0,5.054,4.218,5.054,7.805
				C245.038,231.926,245.038,255.17,245.038,278.414c0,4.514,7,4.514,7,0c0-23.76,0-47.519,0-71.277
				c0-6.278-3.355-12.598-10.337-13.154c-2.387-0.19-4.79-0.105-7.185-0.105c-12.799,0-25.598,0-38.396,0
				c-24.551,0-49.101,0-73.652,0c-13.927,0-11.836,15.551-11.836,24.883c0,15.443,0,30.888,0,46.331
				c0,9.333-2.091,24.882,11.836,24.882c8.611,0,17.222,0,25.833,0c28.738,0,57.477,0,86.215,0c1.896,0,3.79,0,5.686,0
				c6.741,0,11.311-5.131,11.836-11.559C252.406,273.912,245.403,273.947,245.038,278.414z"/>
		</g>
	</g>
</g>
<g id="Ebene_1">
</g>
</svg>
