<?xml version="1.0" encoding="iso-8859-1"?>
<!-- Generator: Adobe Illustrator 16.0.0, SVG Export Plug-In . SVG Version: 6.00 Build 0)  -->
<!DOCTYPE svg PUBLIC "-//W3C//DTD SVG 1.1 Tiny//EN" "http://www.w3.org/Graphics/SVG/1.1/DTD/svg11-tiny.dtd">
<svg version="1.1" baseProfile="tiny" id="edit_x5F_open"
	 xmlns="http://www.w3.org/2000/svg" xmlns:xlink="http://www.w3.org/1999/xlink" x="0px" y="0px" width="361px" height="361px"
	 viewBox="0 0 361 361" xml:space="preserve">
<path fill="none" stroke="#FFFFFF" stroke-width="10" stroke-miterlimit="10" d="M246.595,270.351H80.636
	c-4.433,0-8.026-3.593-8.026-8.026V106.366c0-4.433,3.593-8.026,8.026-8.026h46.013c6.833,0,8.873,4.039,8.873,7.183
	c0,14.211,9.213,12.817,10.958,12.817c25.135,0,100.116,0,100.116,0c4.215,0,7.671,3.25,8,7.38
	c0.017,0.213,0.026,42.403,0.026,42.62"/>
<path display="none" fill="none" stroke="#FFFFFF" stroke-width="10" stroke-miterlimit="10" d="M254.621,281.325
	c0,4.433-3.594,8.026-8.026,8.026H80.636c-4.433,0-8.026-3.593-8.026-8.026V135.366c0-4.433,3.593-8.026,8.026-8.026h46.013
	c6.833,0,8.873,4.039,8.873,7.183c0,14.211,9.213,12.817,10.958,12.817c25.135,0,100.116,0,100.116,0
	c4.432,0,8.026,3.593,8.026,8.026V281.325z"/>
<path fill="none" stroke="#FFFFFF" stroke-width="10" stroke-miterlimit="10" d="M254.621,262.325c0,4.433-3.594,8.026-8.026,8.026
	H80.636c-4.433,0-8.026-3.593-8.026-8.026l29-105.959c0-4.433,3.593-8.026,8.026-8.026h46.013c6.833,0,8.873,4.039,8.873,7.183
	c0,14.211,9.213,12.817,10.958,12.817c25.135,0,100.116,0,100.116,0c4.432,0,8.026,3.593,8.026,8.026L254.621,262.325z"/>
</svg>
