<?xml version="1.0" encoding="iso-8859-1"?>
<!-- Generator: Adobe Illustrator 16.0.0, SVG Export Plug-In . SVG Version: 6.00 Build 0)  -->
<!DOCTYPE svg PUBLIC "-//W3C//DTD SVG 1.1//EN" "http://www.w3.org/Graphics/SVG/1.1/DTD/svg11.dtd">
<svg version="1.1" xmlns="http://www.w3.org/2000/svg" xmlns:xlink="http://www.w3.org/1999/xlink" x="0px" y="0px" width="361px"
	 height="361px" viewBox="0 0 361 361" style="enable-background:new 0 0 361 361;" xml:space="preserve">
<g id="edit_x5F_numeric_x5F_6">
	<g>
		<g>
			<path style="fill:#FFFFFF;" d="M282.091,248.793c-0.342,19.011-15.57,33.223-34.364,33.223c-9.349,0-18.696,0-28.045,0
				c-30.382,0-60.764,0-91.146,0c-8.193,0-17.079,0.821-25.046-1.37c-15.908-4.376-23.746-19.357-23.746-34.84
				c0-26.94,0-53.881,0-80.822c0-13.63,0-27.261,0-40.891c0-10.286-0.432-19.816,5.218-29.091
				c5.9-9.688,16.872-15.134,28.005-15.334c1.873-0.034,3.75,0,5.623,0c11.993,0,23.985,0,35.978,0c28.948,0,57.895,0,86.843,0
				c2.435,0,4.869,0,7.304,0c9.692,0,18.423,4.118,24.992,11.149c8.259,8.838,8.384,19.892,8.384,31.057
				C282.091,164.179,282.091,206.486,282.091,248.793c0,6.448,10,6.448,10,0c0-45.25,0-90.499,0-135.749
				c0-21.074-15.582-39.412-36.368-42.802c-7.717-1.259-15.997-0.575-23.774-0.575c-30.484,0-60.969,0-91.454,0
				c-8.919,0-17.838,0-26.757,0c-19.139,0-35.525,11.826-41.866,29.812c-2.981,8.458-2.127,18.187-2.127,27.037
				c0,14.13,0,28.26,0,42.39c0,26.019,0,52.037,0,78.056c0,17.04,8.363,32.442,23.721,40.403c9.584,4.968,19.753,4.651,30.13,4.651
				c29.716,0,59.432,0,89.148,0c10.936,0,21.872,0,32.808,0c15.528,0,28.915-5.53,38.481-18.126
				c5.414-7.128,7.898-16.254,8.058-25.097C292.207,242.341,282.207,242.352,282.091,248.793z"/>
		</g>
	</g>
	<g>
		<path style="fill:#FFFFFF;" d="M135.773,195.923c0-29.772,7.15-52.36,21.45-67.76c14.3-15.4,35.089-23.685,62.37-24.86l0.88,12.1
			c-8.947,0.588-17.197,1.946-24.75,4.07c-7.555,2.128-14.266,5.428-20.13,9.9c-5.868,4.476-10.78,10.23-14.74,17.27
			c-3.96,7.04-6.676,15.695-8.14,25.96c3.96-2.052,8.725-3.85,14.3-5.39c5.572-1.54,11.512-2.31,17.82-2.31
			c8.212,0,15.181,1.286,20.899,3.85c5.721,2.568,10.341,5.978,13.86,10.23c3.521,4.255,6.085,9.167,7.7,14.74
			c1.612,5.576,2.42,11.44,2.42,17.6c0,5.721-0.88,11.44-2.64,17.16c-1.761,5.721-4.511,10.891-8.25,15.51
			c-3.74,4.621-8.437,8.398-14.08,11.33c-5.647,2.933-12.358,4.4-20.13,4.4c-15.988,0-28.126-5.609-36.41-16.83
			C139.915,231.673,135.773,216.019,135.773,195.923z M183.514,177.443c-6.749,0-12.651,0.77-17.71,2.31
			c-5.06,1.54-9.79,3.338-14.19,5.39c-0.295,2.496-0.44,4.438-0.44,5.83c0,1.396,0,3.118,0,5.17c0,6.896,0.475,13.42,1.43,19.58
			c0.952,6.16,2.712,11.588,5.28,16.28c2.564,4.695,5.975,8.397,10.23,11.11c4.252,2.715,9.68,4.069,16.28,4.069
			c5.425,0,10.045-0.989,13.86-2.97c3.813-1.98,6.892-4.582,9.24-7.811c2.345-3.224,4.069-6.964,5.17-11.22
			c1.101-4.252,1.649-8.724,1.649-13.42c0-11.731-2.605-20.384-7.81-25.96C201.295,180.23,193.633,177.443,183.514,177.443z"/>
	</g>
</g>
<g id="Ebene_1">
</g>
</svg>
