<?xml version="1.0" encoding="iso-8859-1"?>
<!-- Generator: Adobe Illustrator 16.0.0, SVG Export Plug-In . SVG Version: 6.00 Build 0)  -->
<!DOCTYPE svg PUBLIC "-//W3C//DTD SVG 1.1//EN" "http://www.w3.org/Graphics/SVG/1.1/DTD/svg11.dtd">
<svg version="1.1" xmlns="http://www.w3.org/2000/svg" xmlns:xlink="http://www.w3.org/1999/xlink" x="0px" y="0px" width="361px"
	 height="361px" viewBox="0 0 361 361" style="enable-background:new 0 0 361 361;" xml:space="preserve">
<g id="edit_x5F_numeric_x5F_5">
	<g>
		<g>
			<path style="fill:#FFFFFF;" d="M282.091,248.793c-0.342,19.011-15.57,33.223-34.364,33.223c-9.349,0-18.696,0-28.045,0
				c-30.382,0-60.764,0-91.146,0c-8.193,0-17.079,0.821-25.046-1.37c-15.908-4.376-23.746-19.357-23.746-34.84
				c0-26.94,0-53.881,0-80.822c0-13.63,0-27.261,0-40.891c0-10.286-0.432-19.816,5.218-29.091
				c5.9-9.688,16.872-15.134,28.005-15.334c1.873-0.034,3.75,0,5.623,0c11.993,0,23.985,0,35.978,0c28.948,0,57.895,0,86.843,0
				c2.435,0,4.869,0,7.304,0c9.692,0,18.423,4.118,24.992,11.149c8.259,8.838,8.384,19.892,8.384,31.057
				C282.091,164.179,282.091,206.486,282.091,248.793c0,6.448,10,6.448,10,0c0-45.25,0-90.499,0-135.749
				c0-21.074-15.582-39.412-36.368-42.802c-7.717-1.259-15.997-0.575-23.774-0.575c-30.484,0-60.969,0-91.454,0
				c-8.919,0-17.838,0-26.757,0c-19.139,0-35.525,11.826-41.866,29.812c-2.981,8.458-2.127,18.187-2.127,27.037
				c0,14.13,0,28.26,0,42.39c0,26.019,0,52.037,0,78.056c0,17.04,8.363,32.442,23.721,40.403c9.584,4.968,19.753,4.651,30.13,4.651
				c29.716,0,59.432,0,89.148,0c10.936,0,21.872,0,32.808,0c15.528,0,28.915-5.53,38.481-18.126
				c5.414-7.128,7.898-16.254,8.058-25.097C292.207,242.341,282.207,242.352,282.091,248.793z"/>
		</g>
	</g>
	<g>
		<path style="fill:#FFFFFF;" d="M171.413,246.523c7.332,0,13.454-0.843,18.37-2.531c4.912-1.684,8.834-3.994,11.77-6.93
			c2.933-2.932,5.022-6.342,6.271-10.229c1.244-3.885,1.87-8.103,1.87-12.65c0-5.864-0.956-11.144-2.86-15.84
			c-1.907-4.692-5.28-8.652-10.12-11.88c-4.84-3.225-11.367-5.682-19.58-7.37c-8.215-1.684-18.627-2.53-31.24-2.53
			c0.88-7.48,1.612-14.334,2.2-20.57c0.584-6.232,1.1-12.244,1.54-18.04c0.44-5.792,0.77-11.44,0.99-16.94
			c0.22-5.5,0.402-11.182,0.55-17.05h68.64v12.54h-56.1c-0.147,2.788-0.368,6.38-0.66,10.78c-0.296,4.4-0.588,8.91-0.88,13.53
			c-0.295,4.62-0.66,9.058-1.1,13.31c-0.44,4.255-0.808,7.627-1.1,10.12c11.292,0.296,21.044,1.688,29.259,4.18
			c8.213,2.496,14.961,5.868,20.24,10.12c5.28,4.256,9.203,9.388,11.771,15.4c2.564,6.016,3.85,12.688,3.85,20.02
			c0,6.455-1.065,12.468-3.19,18.04c-2.127,5.575-5.389,10.415-9.789,14.521c-4.4,4.107-9.977,7.335-16.721,9.68
			c-6.748,2.344-14.74,3.52-23.979,3.52c-4.696,0-9.058-0.33-13.09-0.99c-4.036-0.66-7.628-1.43-10.78-2.31
			c-3.156-0.88-5.83-1.76-8.03-2.64c-2.2-0.881-3.816-1.612-4.84-2.2l3.74-12.761c0.88,0.588,2.382,1.32,4.51,2.201
			c2.125,0.879,4.62,1.725,7.48,2.529c2.86,0.809,6.084,1.506,9.68,2.09C163.675,246.23,167.453,246.523,171.413,246.523z"/>
	</g>
</g>
<g id="Ebene_1">
</g>
</svg>
