<?xml version="1.0" encoding="iso-8859-1"?>
<!-- Generator: Adobe Illustrator 16.0.0, SVG Export Plug-In . SVG Version: 6.00 Build 0)  -->
<!DOCTYPE svg PUBLIC "-//W3C//DTD SVG 1.1//EN" "http://www.w3.org/Graphics/SVG/1.1/DTD/svg11.dtd">
<svg version="1.1" xmlns="http://www.w3.org/2000/svg" xmlns:xlink="http://www.w3.org/1999/xlink" x="0px" y="0px" width="361px"
	 height="361px" viewBox="0 0 361 361" style="enable-background:new 0 0 361 361;" xml:space="preserve">
<g id="edit_x5F_settings">
	<g id="Zahnrad_2_">
		<g>
			<path style="fill:#FFFFFF;" d="M263.995,134.211l12.629-1.312l-1.28-12.173l-12.614,1.339L256,106.963l9.441-8.481l-8.19-9.097
				l-9.425,8.505l-14.313-8.276l2.652-12.402l-11.973-2.545l-2.626,12.42l-16.442,1.72l-5.145-11.594l-11.185,4.978l5.175,11.587
				l-12.28,11.063l-10.988-6.358l-6.12,10.601l10.992,6.329l-3.445,15.686l-12.608,1.801l1.279,12.172l12.616-1.34l6.73,15.102
				l-9.443,8.482l8.191,9.097l9.425-8.506l14.312,8.275l-2.649,12.404l11.973,2.545l2.623-12.419l16.443-1.719l5.146,11.593
				l11.182-4.979l-5.098-11.635l12.206-11.015l10.985,6.358l6.121-10.601l-10.992-6.329L263.995,134.211z M218.072,168.742
				c-19.797,0-35.842-16.049-35.842-35.843c0-19.797,16.045-35.843,35.842-35.843c19.794,0,35.844,16.046,35.844,35.843
				C253.916,152.693,237.866,168.742,218.072,168.742z"/>
			<g>
				<path style="fill:#FFFFFF;" d="M263.995,139.211c4.21-0.438,8.419-0.875,12.629-1.312c2.479-0.257,5.306-2.089,5-5
					c-0.427-4.058-0.854-8.116-1.28-12.173c-0.261-2.476-2.087-5.309-5-5c-4.205,0.446-8.409,0.893-12.614,1.339
					c1.439,0.826,2.878,1.651,4.317,2.477c-2.243-5.034-4.486-10.068-6.729-15.102c-0.261,2.02-0.521,4.039-0.782,6.059
					c3.147-2.827,6.295-5.654,9.441-8.481c2.104-1.891,1.746-5.132,0-7.071c-2.729-3.032-5.46-6.064-8.19-9.097
					c-1.891-2.101-5.132-1.75-7.07,0c-3.142,2.835-6.283,5.67-9.425,8.505c2.02-0.261,4.039-0.521,6.059-0.782
					c-4.771-2.759-9.541-5.517-14.313-8.276c0.766,1.882,1.532,3.764,2.298,5.646c0.884-4.134,1.769-8.268,2.652-12.402
					c0.543-2.538-0.716-5.56-3.492-6.15c-3.991-0.849-7.981-1.697-11.973-2.545c-2.536-0.539-5.563,0.713-6.15,3.492
					c-0.875,4.14-1.751,8.28-2.626,12.42c1.607-1.224,3.214-2.447,4.821-3.671c-5.48,0.573-10.962,1.146-16.442,1.72
					c1.439,0.826,2.878,1.651,4.317,2.477c-1.715-3.865-3.43-7.729-5.145-11.594c-1.189-2.68-4.58-2.8-6.841-1.794
					c-3.729,1.659-7.457,3.319-11.185,4.978c-2.677,1.191-2.804,4.579-1.794,6.841c1.725,3.862,3.45,7.725,5.175,11.587
					c0.261-2.02,0.521-4.039,0.782-6.059c-4.094,3.688-8.188,7.375-12.281,11.063c2.02-0.261,4.04-0.521,6.059-0.782
					c-3.663-2.119-7.325-4.239-10.988-6.358c-2.349-1.359-5.475-0.572-6.841,1.794c-2.04,3.533-4.08,7.067-6.12,10.601
					c-1.355,2.348-0.576,5.477,1.794,6.841c3.664,2.11,7.328,4.219,10.992,6.329c-0.766-1.882-1.532-3.764-2.298-5.646
					c-1.148,5.229-2.297,10.457-3.445,15.686c1.164-1.164,2.328-2.328,3.492-3.492c-4.203,0.6-8.406,1.2-12.608,1.801
					c-2.007,0.287-3.879,2.838-3.671,4.821c0.426,4.057,0.853,8.115,1.279,12.172c0.26,2.476,2.087,5.31,5,5
					c4.205-0.447,8.411-0.894,12.616-1.34c-1.439-0.826-2.878-1.651-4.317-2.477c2.243,5.034,4.487,10.068,6.73,15.102
					c0.261-2.02,0.521-4.039,0.782-6.059c-3.147,2.828-6.295,5.655-9.443,8.482c-2.104,1.891-1.746,5.132,0,7.071
					c2.73,3.032,5.461,6.064,8.191,9.097c1.892,2.101,5.132,1.75,7.071,0c3.142-2.835,6.283-5.671,9.425-8.506
					c-2.02,0.26-4.039,0.521-6.059,0.782c4.771,2.758,9.541,5.517,14.312,8.275c-0.766-1.882-1.532-3.765-2.298-5.646
					c-0.883,4.135-1.767,8.27-2.649,12.404c-0.542,2.538,0.715,5.561,3.492,6.15c3.991,0.849,7.981,1.696,11.973,2.545
					c2.535,0.539,5.563-0.713,6.15-3.492c0.874-4.14,1.749-8.279,2.623-12.419c-1.607,1.224-3.214,2.448-4.821,3.67
					c5.481-0.572,10.962-1.146,16.443-1.719c-1.439-0.825-2.878-1.65-4.317-2.476c1.716,3.865,3.431,7.729,5.146,11.593
					c1.189,2.68,4.58,2.801,6.841,1.794c3.728-1.659,7.455-3.319,11.182-4.979c2.688-1.197,2.788-4.572,1.794-6.841
					c-1.699-3.878-3.398-7.757-5.098-11.635c-0.261,2.02-0.521,4.039-0.782,6.059c4.069-3.672,8.138-7.344,12.206-11.015
					c-2.02,0.261-4.039,0.521-6.059,0.782c3.661,2.12,7.323,4.239,10.985,6.358c2.349,1.359,5.475,0.572,6.841-1.794
					c2.04-3.534,4.081-7.067,6.121-10.601c1.355-2.348,0.575-5.477-1.794-6.841c-3.664-2.109-7.328-4.219-10.992-6.329
					c0.766,1.882,1.532,3.764,2.298,5.646c1.142-5.391,2.283-10.782,3.425-16.173c1.332-6.29-8.307-8.966-9.643-2.658
					c-1.142,5.391-2.283,10.782-3.425,16.173c-0.466,2.2,0.271,4.479,2.298,5.646c3.664,2.109,7.328,4.219,10.992,6.329
					c-0.598-2.28-1.196-4.561-1.794-6.841c-2.04,3.534-4.081,7.067-6.121,10.601c2.28-0.598,4.561-1.196,6.841-1.794
					c-3.662-2.12-7.323-4.239-10.985-6.358c-2.022-1.171-4.374-0.739-6.059,0.782c-4.069,3.672-8.138,7.344-12.206,11.015
					c-1.796,1.621-1.661,4.054-0.782,6.059c1.699,3.878,3.398,7.757,5.098,11.635c0.598-2.28,1.196-4.561,1.794-6.841
					c-3.728,1.66-7.455,3.319-11.182,4.979c2.28,0.598,4.561,1.196,6.841,1.794c-1.716-3.864-3.431-7.729-5.146-11.593
					c-0.64-1.44-2.759-2.64-4.317-2.477c-5.481,0.573-10.962,1.146-16.443,1.719c-2.137,0.223-4.331,1.349-4.821,3.671
					c-0.874,4.14-1.749,8.28-2.623,12.419c2.05-1.164,4.101-2.328,6.15-3.492c-3.991-0.849-7.981-1.696-11.973-2.545
					c1.164,2.05,2.328,4.101,3.492,6.15c0.883-4.135,1.767-8.27,2.649-12.404c0.471-2.202-0.275-4.477-2.298-5.646
					c-4.771-2.758-9.541-5.517-14.312-8.275c-2.023-1.17-4.373-0.739-6.059,0.782c-3.143,2.835-6.284,5.671-9.426,8.506
					c2.357,0,4.714,0,7.071,0c-2.73-3.032-5.461-6.064-8.191-9.097c0,2.357,0,4.714,0,7.071c3.147-2.828,6.295-5.655,9.443-8.482
					c1.791-1.609,1.671-4.064,0.781-6.059c-2.243-5.034-4.486-10.068-6.729-15.102c-0.641-1.438-2.757-2.642-4.317-2.477
					c-4.205,0.447-8.411,0.894-12.616,1.34c1.667,1.667,3.333,3.333,5,5c-0.426-4.057-0.853-8.115-1.279-12.172
					c-1.224,1.607-2.447,3.214-3.671,4.821c4.203-0.6,8.406-1.2,12.608-1.801c1.598-0.228,3.16-1.977,3.492-3.492
					c1.148-5.229,2.297-10.457,3.445-15.686c0.482-2.194-0.282-4.486-2.298-5.646c-3.664-2.11-7.328-4.219-10.992-6.329
					c0.598,2.28,1.196,4.561,1.794,6.841c2.04-3.533,4.08-7.067,6.12-10.601c-2.28,0.598-4.561,1.196-6.841,1.794
					c3.663,2.119,7.325,4.239,10.988,6.358c2.024,1.171,4.372,0.738,6.059-0.782c4.094-3.688,8.188-7.375,12.28-11.063
					c1.789-1.611,1.674-4.063,0.782-6.059c-1.725-3.862-3.45-7.725-5.175-11.587c-0.598,2.28-1.196,4.561-1.794,6.841
					c3.729-1.659,7.456-3.319,11.185-4.978c-2.28-0.598-4.561-1.196-6.841-1.794c1.715,3.865,3.43,7.729,5.145,11.594
					c0.639,1.44,2.759,2.64,4.317,2.477c5.48-0.573,10.962-1.146,16.442-1.72c2.137-0.224,4.33-1.349,4.821-3.671
					c0.875-4.14,1.751-8.28,2.626-12.42c-2.05,1.164-4.101,2.328-6.15,3.492c3.991,0.849,7.981,1.697,11.973,2.545
					c-1.164-2.05-2.328-4.1-3.492-6.15c-0.884,4.134-1.769,8.268-2.652,12.402c-0.471,2.202,0.275,4.477,2.298,5.646
					c4.771,2.759,9.541,5.517,14.313,8.276c2.023,1.17,4.373,0.739,6.059-0.782c3.142-2.835,6.283-5.67,9.425-8.505
					c-2.356,0-4.714,0-7.07,0c2.729,3.032,5.46,6.064,8.19,9.097c0-2.357,0-4.714,0-7.071c-3.147,2.827-6.295,5.654-9.441,8.481
					c-1.792,1.609-1.671,4.064-0.782,6.059c2.243,5.034,4.486,10.068,6.729,15.102c0.641,1.438,2.758,2.642,4.317,2.477
					c4.205-0.446,8.409-0.893,12.614-1.339c-1.667-1.667-3.333-3.333-5-5c0.427,4.058,0.854,8.116,1.28,12.173
					c1.667-1.667,3.333-3.333,5-5c-4.21,0.438-8.419,0.875-12.629,1.312C257.647,129.871,257.583,139.877,263.995,139.211z"/>
				<path style="fill:#FFFFFF;" d="M218.072,163.742c-17.07-0.329-30.513-13.774-30.842-30.843
					c-0.329-17.071,14.267-30.524,30.842-30.843c17.07-0.329,30.524,14.269,30.844,30.843
					C249.245,149.969,234.646,163.423,218.072,163.742c-6.44,0.124-6.452,10.125,0,10c22.55-0.435,40.409-18.293,40.844-40.843
					c0.435-22.55-18.947-40.421-40.844-40.843c-22.552-0.435-40.42,18.946-40.842,40.843c-0.435,22.55,18.945,40.421,40.842,40.843
					C224.524,173.867,224.513,163.866,218.072,163.742z"/>
			</g>
		</g>
		<g>
			<path style="fill:#FFFFFF;" d="M189.828,226.285l12.682-0.611l-0.604-12.227l-12.67,0.641l-5.885-15.449l9.896-7.947
				l-7.674-9.535l-9.881,7.971l-13.833-9.054l3.334-12.236l-11.815-3.205l-3.307,12.256l-16.513,0.807l-4.497-11.86l-11.441,4.352
				l4.527,11.856l-12.875,10.367l-10.619-6.957l-6.698,10.248l10.628,6.927L98.274,218.1l-12.688,1.099l0.604,12.226l12.67-0.641
				l5.886,15.449l-9.898,7.947l7.676,9.537l9.882-7.973l13.832,9.054l-3.333,12.239l11.815,3.203l3.305-12.257l16.514-0.806
				l4.498,11.859l11.439-4.354l-4.446-11.898l12.798-10.323l10.617,6.957l6.697-10.247l-10.627-6.927L189.828,226.285z
				 M144.048,258.279c-19.796,0-35.842-16.049-35.842-35.844c0-19.796,16.046-35.844,35.842-35.844
				c19.795,0,35.844,16.048,35.844,35.844C179.892,242.23,163.843,258.279,144.048,258.279z"/>
			<g>
				<path style="fill:#FFFFFF;" d="M189.828,231.285c4.228-0.204,8.454-0.407,12.682-0.611c2.616-0.126,5.14-2.181,5-5
					c-0.201-4.075-0.402-8.151-0.604-12.227c-0.129-2.613-2.178-5.143-5-5c-4.224,0.214-8.446,0.427-12.67,0.641
					c1.607,1.224,3.214,2.447,4.821,3.671c-1.962-5.149-3.923-10.3-5.885-15.449c-0.429,1.621-0.857,3.243-1.286,4.864
					c3.299-2.648,6.598-5.298,9.896-7.947c2.286-1.835,1.558-5.136,0-7.07c-2.558-3.179-5.115-6.357-7.674-9.536
					c-1.836-2.282-5.136-1.561-7.07,0c-3.294,2.657-6.588,5.314-9.882,7.971c2.02-0.261,4.04-0.521,6.059-0.782
					c-4.611-3.018-9.222-6.036-13.833-9.054c0.766,1.882,1.532,3.764,2.298,5.647c1.111-4.079,2.223-8.158,3.334-12.236
					c0.714-2.621-0.858-5.436-3.492-6.15c-3.938-1.068-7.877-2.137-11.815-3.205c-2.619-0.71-5.439,0.855-6.15,3.492
					c-1.103,4.085-2.205,8.171-3.307,12.256c1.607-1.224,3.214-2.447,4.821-3.671c-5.504,0.269-11.009,0.538-16.513,0.807
					c1.607,1.224,3.214,2.447,4.821,3.671c-1.499-3.954-2.998-7.907-4.497-11.86c-0.892-2.353-3.431-4.527-6.15-3.492
					c-3.814,1.451-7.627,2.901-11.441,4.352c-2.349,0.893-4.531,3.43-3.492,6.15c1.509,3.952,3.018,7.904,4.527,11.856
					c0.429-1.621,0.857-3.243,1.286-4.865c-4.292,3.456-8.583,6.912-12.875,10.368c2.02-0.261,4.04-0.521,6.059-0.782
					c-3.54-2.319-7.079-4.638-10.619-6.957c-2.364-1.549-5.41-0.395-6.841,1.794c-2.233,3.416-4.465,6.832-6.698,10.248
					c-1.545,2.363-0.399,5.412,1.794,6.841c3.542,2.309,7.085,4.618,10.628,6.927c-0.766-1.882-1.532-3.765-2.298-5.646
					c-1.437,5.157-2.873,10.314-4.309,15.472c1.607-1.224,3.214-2.447,4.821-3.671c-4.229,0.366-8.459,0.732-12.688,1.099
					c-2.606,0.226-5.143,2.104-5,5c0.201,4.075,0.403,8.15,0.604,12.226c0.129,2.613,2.178,5.143,5,5
					c4.224-0.214,8.447-0.427,12.67-0.641c-1.607-1.224-3.214-2.447-4.821-3.671c1.962,5.149,3.924,10.3,5.886,15.449
					c0.429-1.621,0.857-3.243,1.286-4.864c-3.299,2.648-6.599,5.298-9.898,7.947c-2.285,1.835-1.557,5.136,0,7.07
					c2.559,3.18,5.117,6.358,7.676,9.537c1.836,2.282,5.136,1.562,7.071,0c3.294-2.657,6.588-5.314,9.882-7.973
					c-2.02,0.261-4.04,0.521-6.059,0.782c4.61,3.018,9.221,6.036,13.832,9.054c-0.766-1.882-1.532-3.765-2.298-5.646
					c-1.111,4.08-2.222,8.159-3.333,12.239c-0.714,2.621,0.858,5.437,3.492,6.15c3.938,1.067,7.876,2.136,11.815,3.203
					c2.619,0.71,5.439-0.854,6.15-3.492c1.102-4.086,2.203-8.171,3.305-12.257c-1.607,1.224-3.214,2.447-4.821,3.671
					c5.504-0.269,11.009-0.537,16.514-0.806c-1.607-1.224-3.214-2.447-4.821-3.671c1.499,3.953,2.998,7.906,4.498,11.859
					c0.892,2.352,3.431,4.527,6.15,3.492c3.813-1.451,7.626-2.902,11.439-4.354c2.363-0.899,4.512-3.422,3.492-6.15
					c-1.482-3.966-2.964-7.933-4.446-11.898c-0.429,1.621-0.857,3.243-1.286,4.864c4.266-3.44,8.532-6.882,12.798-10.323
					c-2.02,0.261-4.04,0.521-6.059,0.782c3.539,2.319,7.078,4.638,10.617,6.957c2.363,1.549,5.41,0.395,6.841-1.794
					c2.232-3.415,4.465-6.831,6.697-10.247c1.545-2.363,0.398-5.412-1.794-6.841c-3.542-2.309-7.084-4.618-10.627-6.927
					c0.766,1.882,1.532,3.765,2.298,5.646c1.438-5.32,2.876-10.64,4.314-15.96c1.686-6.234-7.962-8.877-9.643-2.658
					c-1.438,5.32-2.876,10.64-4.314,15.96c-0.607,2.247,0.401,4.41,2.298,5.646c3.542,2.309,7.084,4.618,10.627,6.927
					c-0.598-2.28-1.196-4.561-1.794-6.841c-2.232,3.416-4.465,6.831-6.697,10.247c2.28-0.598,4.561-1.196,6.841-1.794
					c-3.539-2.319-7.078-4.638-10.616-6.957c-2.014-1.319-4.357-0.592-6.06,0.782c-4.266,3.44-8.532,6.882-12.798,10.323
					c-1.26,1.016-1.846,3.364-1.286,4.864c1.482,3.966,2.964,7.933,4.446,11.898c1.164-2.05,2.328-4.101,3.492-6.15
					c-3.813,1.451-7.626,2.902-11.439,4.354c2.05,1.164,4.1,2.328,6.15,3.492c-1.499-3.953-2.998-7.906-4.498-11.859
					c-0.769-2.027-2.461-3.786-4.821-3.671c-5.504,0.269-11.009,0.537-16.514,0.806c-2.228,0.108-4.221,1.445-4.821,3.671
					c-1.102,4.086-2.203,8.171-3.305,12.257c2.05-1.164,4.1-2.328,6.15-3.492c-3.938-1.067-7.876-2.136-11.815-3.203
					c1.164,2.05,2.328,4.101,3.492,6.15c1.111-4.08,2.222-8.159,3.333-12.239c0.612-2.248-0.406-4.408-2.298-5.646
					c-4.61-3.018-9.221-6.036-13.832-9.054c-2.015-1.318-4.356-0.592-6.059,0.782c-3.294,2.657-6.588,5.314-9.882,7.973
					c2.357,0,4.714,0,7.071,0c-2.559-3.18-5.117-6.358-7.676-9.537c0,2.356,0,4.714,0,7.07c3.299-2.648,6.599-5.298,9.898-7.947
					c1.255-1.007,1.854-3.373,1.286-4.864c-1.962-5.149-3.924-10.3-5.886-15.449c-0.771-2.023-2.46-3.79-4.821-3.671
					c-4.224,0.214-8.447,0.427-12.67,0.641c1.667,1.667,3.333,3.333,5,5c-0.201-4.075-0.403-8.15-0.604-12.226
					c-1.667,1.667-3.333,3.333-5,5c4.229-0.366,8.459-0.732,12.688-1.099c2.25-0.194,4.185-1.387,4.821-3.671
					c1.437-5.157,2.873-10.314,4.309-15.472c0.624-2.239-0.412-4.418-2.298-5.646c-3.542-2.309-7.085-4.618-10.628-6.927
					c0.598,2.28,1.196,4.561,1.794,6.841c2.233-3.416,4.465-6.832,6.698-10.248c-2.28,0.598-4.561,1.196-6.841,1.794
					c3.54,2.319,7.079,4.638,10.619,6.957c2.015,1.32,4.355,0.59,6.059-0.782c4.292-3.455,8.583-6.911,12.875-10.367
					c1.253-1.009,1.855-3.372,1.286-4.864c-1.509-3.952-3.018-7.904-4.527-11.856c-1.164,2.05-2.328,4.1-3.492,6.15
					c3.814-1.451,7.627-2.901,11.441-4.352c-2.05-1.164-4.1-2.328-6.15-3.492c1.499,3.954,2.998,7.907,4.497,11.86
					c0.769,2.027,2.461,3.786,4.821,3.671c5.504-0.27,11.009-0.538,16.513-0.807c2.229-0.109,4.221-1.446,4.821-3.671
					c1.103-4.085,2.205-8.171,3.307-12.256c-2.05,1.164-4.1,2.328-6.15,3.492c3.938,1.068,7.877,2.137,11.815,3.205
					c-1.164-2.05-2.328-4.1-3.492-6.15c-1.111,4.079-2.223,8.157-3.334,12.236c-0.613,2.248,0.406,4.409,2.298,5.646
					c4.611,3.019,9.222,6.036,13.833,9.055c2.015,1.318,4.356,0.592,6.059-0.782c3.294-2.656,6.588-5.313,9.881-7.971
					c-2.356,0-4.714,0-7.07,0c2.558,3.179,5.115,6.357,7.674,9.535c0-2.356,0-4.714,0-7.07c-3.299,2.648-6.598,5.298-9.897,7.947
					c-1.255,1.008-1.854,3.373-1.286,4.864c1.961,5.149,3.923,10.3,5.885,15.449c0.771,2.023,2.46,3.79,4.821,3.671
					c4.224-0.214,8.446-0.427,12.67-0.641c-1.667-1.667-3.333-3.333-5-5c0.201,4.075,0.402,8.151,0.604,12.227
					c1.667-1.667,3.333-3.333,5-5c-4.228,0.204-8.454,0.407-12.682,0.611C183.409,221.595,183.379,231.596,189.828,231.285z"/>
				<path style="fill:#FFFFFF;" d="M144.048,253.279c-17.07-0.329-30.513-13.774-30.842-30.844
					c-0.329-17.07,14.267-30.524,30.842-30.844c17.07-0.329,30.525,14.27,30.844,30.844
					C175.221,239.506,160.622,252.96,144.048,253.279c-6.44,0.124-6.452,10.124,0,10c22.55-0.435,40.409-18.293,40.845-40.844
					c0.435-22.551-18.948-40.422-40.845-40.844c-22.551-0.435-40.42,18.947-40.842,40.844c-0.435,22.55,18.945,40.422,40.842,40.844
					C150.5,263.403,150.488,253.403,144.048,253.279z"/>
			</g>
		</g>
		<g>
			<g>
				<g>
					<path style="fill:#FFFFFF;" d="M252.367,241.563l7.734-0.986c-1.298-3.922-3.506-7.523-6.5-10.469l-4.215,6.832
						L252.367,241.563z"/>
					<g>
						<path style="fill:#FFFFFF;" d="M252.367,246.563c2.578-0.329,5.156-0.657,7.734-0.986c2.988-0.381,5.995-2.938,4.821-6.329
							c-1.662-4.801-4.207-9.053-7.786-12.675c-2.309-2.338-6.174-1.71-7.853,1.012c-1.405,2.277-2.81,4.555-4.215,6.832
							c-0.901,1.462-0.94,3.589,0,5.047c0.993,1.541,1.987,3.082,2.98,4.623c3.48,5.399,12.141,0.391,8.635-5.047
							c-0.993-1.541-1.987-3.082-2.98-4.623c0,1.683,0,3.364,0,5.047c1.405-2.277,2.81-4.555,4.215-6.832
							c-2.617,0.338-5.235,0.675-7.853,1.012c2.337,2.366,4.122,5.11,5.214,8.263c1.607-2.109,3.214-4.22,4.821-6.329
							c-2.578,0.329-5.156,0.657-7.734,0.986c-2.703,0.345-5,2.014-5,5C247.367,244.026,249.656,246.908,252.367,246.563z"/>
					</g>
				</g>
				<g>
					<path style="fill:#FFFFFF;" d="M253.602,230.107l5.691-9.223l-9.384-5.748l-5.542,9.115c0.358,0.133,0.721,0.243,1.076,0.393
						C248.582,225.973,251.311,227.854,253.602,230.107z"/>
					<g>
						<path style="fill:#FFFFFF;" d="M257.919,232.631c1.897-3.074,3.794-6.148,5.691-9.223c1.453-2.355,0.485-5.444-1.794-6.841
							c-3.128-1.916-6.256-3.832-9.384-5.748c-2.354-1.442-5.448-0.496-6.841,1.794c-1.848,3.038-3.694,6.076-5.542,9.115
							c-1.787,2.938,0.032,6.267,2.988,7.345c2.665,0.973,4.985,2.631,7.028,4.569c4.673,4.437,11.756-2.623,7.07-7.07
							c-3.348-3.178-7.104-5.56-11.44-7.142c0.996,2.448,1.992,4.896,2.988,7.345c1.848-3.038,3.694-6.076,5.542-9.115
							c-2.28,0.598-4.561,1.196-6.841,1.794c3.128,1.916,6.256,3.832,9.384,5.748c-0.598-2.28-1.196-4.561-1.794-6.841
							c-1.897,3.074-3.794,6.148-5.691,9.223C245.888,233.088,254.54,238.106,257.919,232.631z"/>
					</g>
				</g>
				<g>
					<path style="fill:#FFFFFF;" d="M240.107,231.258l4.26-7.006c-4.141-1.543-8.438-1.977-12.561-1.426l2.826,7.877
						L240.107,231.258z"/>
					<g>
						<path style="fill:#FFFFFF;" d="M244.425,233.781c1.42-2.335,2.84-4.67,4.26-7.006c1.773-2.916-0.016-6.297-2.988-7.345
							c-4.45-1.569-9.2-2.149-13.89-1.604c-2.969,0.345-6.025,2.973-4.821,6.329c0.942,2.626,1.884,5.251,2.826,7.877
							c0.82,2.287,2.438,3.43,4.821,3.671c1.825,0.185,3.649,0.37,5.475,0.555c2.717,0.275,5-2.482,5-5c0-2.934-2.289-4.726-5-5
							c-1.825-0.185-3.649-0.37-5.475-0.555c1.607,1.224,3.214,2.447,4.821,3.671c-0.942-2.626-1.884-5.251-2.826-7.877
							c-1.607,2.109-3.214,4.22-4.821,6.329c3.93-0.456,7.502-0.068,11.231,1.247c-0.996-2.448-1.992-4.896-2.988-7.345
							c-1.42,2.335-2.84,4.67-4.26,7.006C232.431,234.26,241.081,239.281,244.425,233.781z"/>
					</g>
				</g>
				<g>
					<path style="fill:#FFFFFF;" d="M261.316,251.44l11.12-1.345l-1.358-10.92l-10.977,1.4
						C261.244,244.033,261.693,247.727,261.316,251.44z"/>
					<g>
						<path style="fill:#FFFFFF;" d="M261.316,256.44c3.707-0.448,7.413-0.896,11.12-1.345c2.43-0.294,5.365-2.065,5-5
							c-0.453-3.64-0.905-7.28-1.358-10.92c-0.301-2.421-2.062-5.375-5-5c-3.659,0.467-7.317,0.934-10.977,1.4
							c-3.07,0.392-5.887,2.914-4.821,6.329c0.992,3.182,1.313,6.21,1.036,9.535C256.091,254.16,258.762,256.44,261.316,256.44
							c2.896,0,4.774-2.285,5-5c0.342-4.116-0.164-8.252-1.394-12.193c-1.607,2.109-3.214,4.22-4.821,6.329
							c3.659-0.467,7.317-0.934,10.977-1.4c-1.667-1.667-3.333-3.333-5-5c0.453,3.64,0.905,7.28,1.358,10.92
							c1.667-1.667,3.333-3.333,5-5c-3.707,0.448-7.413,0.896-11.12,1.345c-2.705,0.327-5,2.027-5,5
							C256.316,253.918,258.604,256.769,261.316,256.44z"/>
					</g>
				</g>
				<g>
					<path style="fill:#FFFFFF;" d="M224.408,234.412l-2.904-7.926c-3.604,2.213-6.69,5.309-8.914,9.145l7.969,2.715
						L224.408,234.412z"/>
					<g>
						<path style="fill:#FFFFFF;" d="M229.229,233.083c-0.968-2.642-1.937-5.284-2.904-7.926c-1.065-2.908-4.431-4.835-7.345-2.988
							c-4.415,2.798-8.018,6.452-10.708,10.938c-1.74,2.902-0.015,6.321,2.988,7.345c2.656,0.905,5.313,1.81,7.969,2.715
							c1.646,0.562,3.678-0.073,4.864-1.286c1.283-1.311,2.566-2.622,3.85-3.934c4.512-4.609-2.555-11.686-7.07-7.07
							c-1.283,1.311-2.566,2.622-3.85,3.934c1.621-0.429,3.243-0.857,4.864-1.286c-2.656-0.905-5.313-1.81-7.969-2.715
							c0.996,2.448,1.992,4.896,2.988,7.345c1.805-3.01,4.151-5.469,7.12-7.351c-2.448-0.996-4.896-1.992-7.345-2.988
							c0.968,2.642,1.937,5.284,2.904,7.926c0.937,2.557,3.358,4.261,6.15,3.492C228.201,238.556,230.168,235.645,229.229,233.083z"
							/>
					</g>
				</g>
				<g>
					<path style="fill:#FFFFFF;" d="M228.26,212.947l-10.344,3.752l3.588,9.787c3.133-1.926,6.643-3.174,10.303-3.66L228.26,212.947
						z"/>
					<g>
						<path style="fill:#FFFFFF;" d="M226.931,208.126c-3.448,1.251-6.896,2.501-10.344,3.752c-2.392,0.867-4.484,3.443-3.492,6.15
							c1.196,3.263,2.392,6.524,3.588,9.787c1.094,2.983,4.385,4.737,7.345,2.988c2.864-1.692,5.819-2.66,9.108-3.156
							c2.56-0.386,4.335-3.804,3.492-6.15c-1.183-3.293-2.364-6.586-3.547-9.879c-2.162-6.022-11.827-3.426-9.643,2.658
							c1.183,3.293,2.364,6.586,3.547,9.879c1.164-2.05,2.328-4.101,3.492-6.15c-4.083,0.615-7.944,2.064-11.497,4.164
							c2.448,0.996,4.896,1.992,7.345,2.988c-1.196-3.263-2.392-6.524-3.588-9.787c-1.164,2.05-2.328,4.101-3.492,6.15
							c3.448-1.251,6.896-2.501,10.344-3.752C235.602,215.588,233.007,205.922,226.931,208.126z"/>
					</g>
				</g>
				<g>
					<path style="fill:#FFFFFF;" d="M251.95,257.574l5.397,5.24c0.76-1.203,1.458-2.465,2.031-3.819
						c1.046-2.474,1.68-5.017,1.938-7.555l-7.609,0.919L251.95,257.574z"/>
					<g>
						<path style="fill:#FFFFFF;" d="M248.415,261.109c1.799,1.747,3.598,3.494,5.397,5.24c2.351,2.283,6.146,1.753,7.853-1.012
							c2.655-4.302,4.069-8.9,4.651-13.897c0.29-2.487-2.505-5.302-5-5c-2.536,0.307-5.073,0.612-7.609,0.919
							c-2.352,0.284-4.038,1.345-4.821,3.671c-0.586,1.738-1.171,3.477-1.757,5.215c-2.064,6.129,7.596,8.735,9.643,2.658
							c0.586-1.738,1.171-3.477,1.757-5.215c-1.607,1.224-3.214,2.447-4.821,3.671c2.536-0.307,5.073-0.612,7.609-0.919
							c-1.667-1.667-3.333-3.333-5-5c-0.373,3.2-1.61,6.135-3.286,8.851c2.617-0.338,5.235-0.675,7.853-1.012
							c-1.799-1.747-3.598-3.494-5.397-5.24C250.859,249.547,243.781,256.611,248.415,261.109z"/>
					</g>
				</g>
				<g>
					<path style="fill:#FFFFFF;" d="M210.898,258.506l-9.029,5.777l5.963,9.248l9.164-5.945
						C214.33,264.994,212.256,261.898,210.898,258.506z"/>
					<g>
						<path style="fill:#FFFFFF;" d="M208.375,254.188c-3.01,1.926-6.02,3.852-9.029,5.777c-2.216,1.418-3.315,4.481-1.794,6.841
							c1.987,3.083,3.976,6.166,5.963,9.248c1.422,2.206,4.48,3.325,6.841,1.794c3.055-1.981,6.109-3.964,9.164-5.945
							c2.696-1.749,3.359-5.482,1.012-7.853c-2.346-2.369-4.018-4.999-5.315-8.068C214.153,253.47,210.496,252.946,208.375,254.188
							c-2.574,1.508-2.855,4.33-1.794,6.841c1.61,3.81,3.973,7.157,6.88,10.092c0.337-2.617,0.674-5.235,1.012-7.853
							c-3.055,1.981-6.109,3.964-9.164,5.945c2.28,0.598,4.561,1.196,6.841,1.794c-1.987-3.083-3.976-6.166-5.963-9.248
							c-0.598,2.28-1.196,4.561-1.794,6.841c3.01-1.926,6.02-3.852,9.029-5.777C218.834,259.36,213.824,250.701,208.375,254.188z"/>
					</g>
				</g>
				<g>
					<path style="fill:#FFFFFF;" d="M239.172,267.232l-0.738,7.551c4.031-0.501,7.895-1.917,11.275-4.15l-5.363-5.279
						L239.172,267.232z"/>
					<g>
						<path style="fill:#FFFFFF;" d="M234.172,267.232c-0.246,2.517-0.492,5.034-0.738,7.551c-0.351,3.585,3.436,5.223,6.329,4.821
							c4.441-0.616,8.694-2.238,12.47-4.654c2.683-1.717,3.383-5.52,1.012-7.853c-1.787-1.76-3.575-3.52-5.363-5.279
							c-1.195-1.178-3.215-1.885-4.864-1.286c-1.725,0.626-3.449,1.253-5.174,1.879c-2.56,0.93-4.259,3.364-3.492,6.15
							c0.679,2.47,3.587,4.424,6.15,3.492c1.725-0.626,3.449-1.253,5.174-1.879c-1.621-0.429-3.243-0.857-4.864-1.286
							c1.787,1.76,3.575,3.52,5.363,5.279c0.337-2.617,0.674-5.235,1.012-7.853c-3.13,2.002-6.4,3.136-10.081,3.646
							c2.109,1.607,4.22,3.214,6.329,4.821c0.246-2.517,0.492-5.034,0.738-7.551c0.266-2.718-2.476-5-5-5
							C236.246,262.232,234.437,264.521,234.172,267.232z"/>
					</g>
				</g>
				<g>
					<path style="fill:#FFFFFF;" d="M227.543,273.846l-1.155,11.053l10.946,1.105l1.1-11.221
						C234.857,275.227,231.156,274.959,227.543,273.846z"/>
					<g>
						<path style="fill:#FFFFFF;" d="M222.543,273.846c-0.385,3.685-0.771,7.368-1.155,11.053c-0.304,2.906,2.519,4.749,5,5
							c3.648,0.368,7.298,0.737,10.946,1.105c2.901,0.293,4.756-2.51,5-5c0.366-3.74,0.733-7.48,1.1-11.221
							c0.246-2.514-2.47-5.271-5-5c-3.307,0.354-6.364,0.162-9.562-0.759c-6.21-1.79-8.843,7.86-2.658,9.643
							c3.976,1.146,8.104,1.557,12.22,1.116c-1.667-1.667-3.333-3.333-5-5c-0.366,3.74-0.733,7.48-1.1,11.221
							c1.667-1.667,3.333-3.333,5-5c-3.648-0.368-7.298-0.737-10.946-1.105c1.667,1.667,3.333,3.333,5,5
							c0.385-3.685,0.771-7.368,1.155-11.053c0.284-2.716-2.489-5-5-5C224.604,268.846,222.826,271.136,222.543,273.846z"/>
					</g>
				</g>
				<g>
					<path style="fill:#FFFFFF;" d="M212.59,235.631l-9.885-3.368l-3.516,10.426l9.983,3.331c0.266-2.502,0.892-5.004,1.921-7.439
						C211.529,237.549,212.042,236.574,212.59,235.631z"/>
					<g>
						<path style="fill:#FFFFFF;" d="M213.919,230.81c-3.295-1.123-6.59-2.245-9.885-3.368c-2.688-0.916-5.321,1.032-6.15,3.492
							c-1.172,3.476-2.344,6.95-3.516,10.426c-0.905,2.685,1.023,5.327,3.492,6.15c3.328,1.11,6.655,2.221,9.983,3.331
							c3.393,1.132,5.954-1.8,6.329-4.821c0.348-2.798,1.356-5.429,2.734-7.865c3.179-5.621-5.461-10.659-8.635-5.047
							c-2.303,4.072-3.525,8.291-4.1,12.912c2.109-1.607,4.22-3.214,6.329-4.821c-3.328-1.11-6.655-2.221-9.983-3.331
							c1.164,2.05,2.328,4.101,3.492,6.15c1.172-3.476,2.344-6.95,3.516-10.426c-2.05,1.164-4.101,2.328-6.15,3.492
							c3.295,1.123,6.59,2.245,9.885,3.368C217.382,242.538,219.987,232.877,213.919,230.81z"/>
					</g>
				</g>
				<g>
					<path style="fill:#FFFFFF;" d="M249.709,270.633l8.082,7.953l7.693-7.871l-8.137-7.9
						C255.335,265.993,252.725,268.639,249.709,270.633z"/>
					<g>
						<path style="fill:#FFFFFF;" d="M246.174,274.168c2.693,2.651,5.388,5.303,8.082,7.953c1.925,1.895,5.155,1.961,7.07,0
							c2.564-2.623,5.129-5.247,7.693-7.871c1.883-1.926,1.972-5.156,0-7.07c-2.712-2.634-5.424-5.268-8.137-7.9
							c-2.404-2.335-6.07-1.688-7.853,1.012c-1.565,2.371-3.501,4.408-5.845,6.024c-5.271,3.634-0.278,12.306,5.047,8.635
							c3.812-2.627,6.881-5.747,9.433-9.612c-2.617,0.338-5.235,0.675-7.853,1.012c2.712,2.634,5.424,5.268,8.137,7.9
							c0-2.356,0-4.714,0-7.07c-2.564,2.623-5.129,5.247-7.693,7.871c2.356,0,4.714,0,7.07,0c-2.693-2.651-5.388-5.303-8.082-7.953
							C248.646,262.572,241.571,269.64,246.174,274.168z"/>
					</g>
				</g>
				<g>
					<path style="fill:#FFFFFF;" d="M217.084,248.658l-7.911-2.639c-0.458,4.293,0.165,8.576,1.726,12.486l6.865-4.389
						L217.084,248.658z"/>
					<g>
						<path style="fill:#FFFFFF;" d="M218.413,243.837c-2.637-0.88-5.274-1.759-7.911-2.639c-3.314-1.105-6.058,1.769-6.329,4.821
							c-0.416,4.685,0.236,9.418,1.904,13.815c1.093,2.881,4.414,4.861,7.345,2.988c2.289-1.463,4.577-2.926,6.865-4.389
							c1.357-0.867,2.692-2.582,2.477-4.317c-0.227-1.819-0.453-3.64-0.68-5.459c-0.337-2.704-2.02-5-5-5c-2.47,0-5.338,2.289-5,5
							c0.227,1.819,0.453,3.64,0.68,5.459c0.825-1.439,1.651-2.878,2.477-4.317c-2.289,1.463-4.577,2.926-6.865,4.389
							c2.448,0.996,4.896,1.992,7.345,2.988c-1.397-3.685-1.896-7.23-1.547-11.157c-2.109,1.607-4.22,3.214-6.329,4.821
							c2.637,0.88,5.274,1.759,7.911,2.639C221.89,255.525,224.499,245.866,218.413,243.837z"/>
					</g>
				</g>
				<g>
					<path style="fill:#FFFFFF;" d="M223.654,263.264l-6.658,4.322c2.268,2.199,4.951,4.04,8.035,5.344
						c0.83,0.351,1.668,0.655,2.512,0.916l0.805-7.708L223.654,263.264z"/>
					<g>
						<path style="fill:#FFFFFF;" d="M221.131,258.946c-2.22,1.44-4.439,2.882-6.658,4.322c-2.625,1.704-3.448,5.552-1.012,7.853
							c3.685,3.479,7.931,5.99,12.753,7.546c3.356,1.083,6.009-1.756,6.329-4.821c0.269-2.569,0.536-5.139,0.805-7.708
							c0.18-1.726-1.087-3.466-2.477-4.317c-1.564-0.958-3.129-1.916-4.693-2.874c-5.516-3.377-10.535,5.274-5.047,8.635
							c1.564,0.958,3.129,1.916,4.693,2.874c-0.825-1.439-1.651-2.878-2.477-4.317c-0.269,2.569-0.536,5.139-0.805,7.708
							c2.109-1.607,4.22-3.214,6.329-4.821c-3.155-1.019-5.933-2.7-8.341-4.974c-0.337,2.617-0.674,5.235-1.012,7.853
							c2.22-1.44,4.439-2.882,6.658-4.322C231.564,264.084,226.558,255.424,221.131,258.946z"/>
					</g>
				</g>
			</g>
			<g>
				<g>
					<path style="fill:#FFFFFF;" d="M248.309,249.412c-0.624,16.975-25.688,16.975-26.313,0
						c-0.271-7.379,6.182-12.898,13.156-13.154C242.531,235.986,248.052,242.437,248.309,249.412c0.236,6.429,10.237,6.451,10,0
						c-0.476-12.937-10.221-22.679-23.156-23.154c-12.926-0.475-22.707,10.934-23.156,23.154
						c-0.476,12.927,10.935,22.708,23.156,23.157c12.928,0.475,22.707-10.935,23.156-23.157
						C258.546,242.961,248.545,242.983,248.309,249.412z"/>
				</g>
			</g>
		</g>
	</g>
</g>
<g id="Ebene_1">
</g>
</svg>
