<?xml version="1.0" encoding="iso-8859-1"?>
<!-- Generator: Adobe Illustrator 16.0.0, SVG Export Plug-In . SVG Version: 6.00 Build 0)  -->
<!DOCTYPE svg PUBLIC "-//W3C//DTD SVG 1.1 Tiny//EN" "http://www.w3.org/Graphics/SVG/1.1/DTD/svg11-tiny.dtd">
<svg version="1.1" baseProfile="tiny" id="edit_x5F_collapse"
	 xmlns="http://www.w3.org/2000/svg" xmlns:xlink="http://www.w3.org/1999/xlink" x="0px" y="0px" width="361px" height="361px"
	 viewBox="0 0 361 361" xml:space="preserve">
<g display="none">
	<path display="inline" fill="none" stroke="#FFFFFF" stroke-width="10" stroke-miterlimit="10" d="M236.58,84.16
		c0-3.562-2.887-6.449-6.448-6.449H78.607c-3.562,0-6.449,2.887-6.449,6.449v198.273c0,3.561,2.887,6.447,6.449,6.447h151.525
		c3.561,0,6.448-2.887,6.448-6.447V84.16z"/>
	<g display="inline">
		<path fill="#FFFFFF" d="M97.119,114.211c38.167,0,76.333,0,114.5,0c6.449,0,6.449-10,0-10c-38.167,0-76.333,0-114.5,0
			C90.67,104.211,90.67,114.211,97.119,114.211L97.119,114.211z"/>
	</g>
	<g display="inline">
		<path fill="#FFFFFF" d="M97.119,169.412c38.167,0,76.333,0,114.5,0c6.449,0,6.449-10,0-10c-38.167,0-76.333,0-114.5,0
			C90.67,159.412,90.67,169.412,97.119,169.412L97.119,169.412z"/>
	</g>
	<g display="inline">
		<path fill="#FFFFFF" d="M97.119,141.812c38.167,0,76.333,0,114.5,0c6.449,0,6.449-10,0-10c-38.167,0-76.333,0-114.5,0
			C90.67,131.812,90.67,141.812,97.119,141.812L97.119,141.812z"/>
	</g>
	<g display="inline">
		<path fill="#FFFFFF" d="M97.119,197.011c38.167,0,76.333,0,114.5,0c6.449,0,6.449-10,0-10c-38.167,0-76.333,0-114.5,0
			C90.67,187.011,90.67,197.011,97.119,197.011L97.119,197.011z"/>
	</g>
	<g display="inline">
		<path fill="#FFFFFF" d="M97.786,224.611c37.722,0,75.445,0,113.167,0c6.449,0,6.449-10,0-10c-37.722,0-75.445,0-113.167,0
			C91.337,214.611,91.337,224.611,97.786,224.611L97.786,224.611z"/>
	</g>
	<g display="inline">
		<path fill="#FFFFFF" d="M97.953,252.211c37.611,0,75.222,0,112.833,0c6.449,0,6.449-10,0-10c-37.611,0-75.222,0-112.833,0
			C91.504,242.211,91.504,252.211,97.953,252.211L97.953,252.211z"/>
	</g>
</g>
<g>
	<path fill="#FFFFFF" d="M224.413,159.888c0-11.869,0-23.738,0-35.607c0-13.097,2.062-27.965-5.962-39.25
		c-5.843-8.216-15.608-13.152-25.672-13.152c-2.965,0-5.93,0-8.895,0c-14.759,0-29.517,0-44.275,0c-12.778,0-25.557,0-38.334,0
		c-16.759,0-31.972,9.898-34.212,27.53c-1.173,9.229-0.306,18.982-0.306,28.252c0,15.947,0,31.894,0,47.84
		c0,7.481,0,14.962,0,22.442c0,17.755,14.841,31.592,32.3,31.592c20.78,0,41.559,0,62.339,0c6.449,0,6.449-10,0-10
		c-11.339,0-22.679,0-34.018,0c-7.279,0-14.557,0-21.836,0c-4.66,0-9.249,0.271-13.782-1.016
		c-9.044-2.568-15.004-11.627-15.004-20.783c0-3.331,0-6.663,0-9.994c0-14.997,0-29.993,0-44.989c0-12.356,0-24.712,0-37.068
		c0-13.798,9.105-23.809,23.191-23.809c27.114,0,54.229,0,81.343,0c5.479,0,11.48-0.583,16.858,0.658
		c12.124,2.798,16.265,13.938,16.265,25.008c0,17.448,0,34.896,0,52.343C214.413,166.336,224.413,166.336,224.413,159.888
		L224.413,159.888z"/>
</g>
<g>
	<path fill="#FFFFFF" d="M185.695,143.113c-26.574,0-53.148,0-79.722,0c-9.687,0-9.772,15.003-0.108,15.003
		c26.574,0,53.148,0,79.722,0C195.273,158.116,195.359,143.113,185.695,143.113L185.695,143.113z"/>
</g>
<path fill="none" stroke="#FFFFFF" stroke-width="10" stroke-miterlimit="10" d="M187.959,266.005c-2.141,0-3.876,0.542-3.876,1.209
	v20.969c0,0.667,1.735,1.209,3.876,1.21h75.571c2.14,0,3.875-0.541,3.875-1.209l0-20.97c0-0.668-1.735-1.209-3.875-1.21
	L187.959,266.005z"/>
<g>
	<path fill="#FFFFFF" d="M288.216,262.963c-19.552-25.581-39.104-51.162-58.656-76.743c-2.429-3.178-6.206-3.178-8.635,0
		c-19.552,25.581-39.104,51.162-58.656,76.744c-2.39,3.126,0.882,7.523,4.317,7.523c39.104,0,78.208,0,117.312,0
		c6.449,0,6.449-10,0-10c-39.104,0-78.208,0-117.312,0c1.439,2.508,2.878,5.016,4.317,7.523
		c19.552-25.581,39.104-51.162,58.656-76.744c-2.878,0-5.756,0-8.635,0c19.552,25.581,39.104,51.162,58.656,76.743
		C283.441,273.06,292.133,268.088,288.216,262.963z"/>
</g>
</svg>
