<?xml version="1.0" encoding="iso-8859-1"?>
<!-- Generator: Adobe Illustrator 16.0.0, SVG Export Plug-In . SVG Version: 6.00 Build 0)  -->
<!DOCTYPE svg PUBLIC "-//W3C//DTD SVG 1.1 Tiny//EN" "http://www.w3.org/Graphics/SVG/1.1/DTD/svg11-tiny.dtd">
<svg version="1.1" baseProfile="tiny" id="edit_x5F_settings"
	 xmlns="http://www.w3.org/2000/svg" xmlns:xlink="http://www.w3.org/1999/xlink" x="0px" y="0px" width="361px" height="361px"
	 viewBox="0 0 361 361" xml:space="preserve">
<g id="Zahnrad_2_">
	<g>
		<path fill="#FFFFFF" d="M261.477,137.089l12.629-1.312l-1.28-12.173l-12.615,1.339l-6.729-15.102l9.441-8.481l-8.19-9.097
			l-9.425,8.505l-14.312-8.276l2.652-12.402l-11.973-2.545l-2.626,12.42l-16.443,1.72l-5.145-11.594l-11.184,4.978l5.175,11.587
			l-12.281,11.063l-10.988-6.358l-6.12,10.601l10.992,6.329l-3.445,15.686l-12.608,1.801l1.279,12.172l12.616-1.34l6.73,15.102
			l-9.443,8.482l8.191,9.097l9.426-8.506l14.311,8.275l-2.65,12.404l11.973,2.545l2.624-12.419l16.443-1.719l5.146,11.593
			l11.181-4.978l-5.098-11.635l12.207-11.015l10.985,6.358l6.121-10.601l-10.992-6.329L261.477,137.089z M215.554,171.62
			c-19.796,0-35.841-16.049-35.841-35.843c0-19.797,16.045-35.843,35.841-35.843c19.794,0,35.845,16.046,35.845,35.843
			C251.398,155.571,235.348,171.62,215.554,171.62z"/>
		<g>
			<path fill="#FFFFFF" d="M261.477,142.089c4.209-0.438,8.419-0.875,12.629-1.312c2.479-0.257,5.306-2.089,5-5
				c-0.427-4.058-0.853-8.116-1.28-12.173c-0.26-2.476-2.087-5.309-5-5c-4.205,0.446-8.41,0.893-12.615,1.339
				c1.439,0.826,2.878,1.651,4.317,2.477c-2.243-5.034-4.486-10.068-6.729-15.102c-0.261,2.02-0.521,4.039-0.782,6.059
				c3.147-2.827,6.294-5.654,9.441-8.481c2.104-1.891,1.746-5.132,0-7.071c-2.73-3.032-5.46-6.064-8.19-9.097
				c-1.892-2.101-5.132-1.75-7.071,0c-3.142,2.835-6.283,5.67-9.425,8.505c2.02-0.261,4.04-0.521,6.059-0.782
				c-4.771-2.759-9.541-5.517-14.312-8.276c0.766,1.882,1.532,3.764,2.298,5.646c0.884-4.134,1.768-8.268,2.652-12.402
				c0.543-2.538-0.716-5.56-3.492-6.15c-3.991-0.849-7.981-1.697-11.973-2.545c-2.536-0.539-5.563,0.713-6.15,3.492
				c-0.875,4.14-1.751,8.28-2.626,12.42c1.607-1.224,3.214-2.447,4.821-3.671c-5.481,0.573-10.962,1.146-16.443,1.72
				c1.439,0.826,2.878,1.651,4.317,2.477c-1.715-3.865-3.43-7.729-5.145-11.594c-1.189-2.68-4.58-2.8-6.841-1.794
				c-3.728,1.659-7.456,3.319-11.184,4.978c-2.677,1.191-2.804,4.579-1.794,6.841c1.725,3.862,3.45,7.725,5.175,11.587
				c0.261-2.02,0.521-4.039,0.782-6.059c-4.093,3.688-8.187,7.375-12.281,11.063c2.02-0.261,4.04-0.521,6.059-0.782
				c-3.663-2.119-7.325-4.239-10.988-6.358c-2.349-1.359-5.475-0.572-6.841,1.794c-2.04,3.533-4.08,7.067-6.12,10.601
				c-1.355,2.348-0.576,5.477,1.794,6.841c3.664,2.11,7.328,4.219,10.992,6.329c-0.766-1.882-1.532-3.764-2.298-5.646
				c-1.148,5.229-2.297,10.457-3.445,15.686c1.164-1.164,2.328-2.328,3.492-3.492c-4.203,0.6-8.406,1.2-12.608,1.801
				c-2.007,0.287-3.879,2.838-3.671,4.821c0.426,4.057,0.853,8.115,1.279,12.172c0.26,2.476,2.087,5.31,5,5
				c4.205-0.447,8.411-0.894,12.616-1.34c-1.439-0.826-2.878-1.651-4.317-2.477c2.243,5.034,4.487,10.068,6.73,15.102
				c0.261-2.02,0.521-4.039,0.782-6.059c-3.147,2.828-6.295,5.655-9.443,8.482c-2.104,1.891-1.746,5.132,0,7.071
				c2.73,3.032,5.461,6.064,8.191,9.097c1.892,2.101,5.132,1.75,7.071,0c3.142-2.835,6.284-5.671,9.426-8.506
				c-2.02,0.26-4.04,0.521-6.059,0.782c4.77,2.758,9.541,5.517,14.311,8.275c-0.766-1.882-1.532-3.765-2.298-5.646
				c-0.883,4.134-1.767,8.269-2.65,12.404c-0.542,2.538,0.715,5.56,3.492,6.15c3.991,0.849,7.981,1.697,11.973,2.545
				c2.536,0.539,5.563-0.713,6.15-3.492c0.875-4.14,1.75-8.279,2.624-12.419c-1.607,1.224-3.214,2.447-4.821,3.671
				c5.481-0.573,10.962-1.146,16.443-1.719c-1.439-0.826-2.878-1.651-4.317-2.477c1.715,3.864,3.431,7.729,5.146,11.593
				c1.189,2.68,4.58,2.801,6.841,1.794c3.727-1.659,7.454-3.319,11.181-4.978c2.689-1.197,2.788-4.573,1.794-6.841
				c-1.699-3.878-3.398-7.757-5.098-11.635c-0.261,2.02-0.521,4.039-0.782,6.059c4.069-3.672,8.138-7.344,12.207-11.015
				c-2.02,0.261-4.04,0.521-6.059,0.782c3.662,2.12,7.323,4.239,10.985,6.358c2.348,1.359,5.475,0.572,6.841-1.794
				c2.041-3.534,4.081-7.067,6.121-10.601c1.355-2.348,0.575-5.477-1.794-6.841c-3.664-2.109-7.328-4.219-10.992-6.329
				c0.766,1.882,1.532,3.764,2.298,5.646c1.142-5.391,2.283-10.782,3.425-16.173c1.332-6.29-8.307-8.966-9.643-2.658
				c-1.142,5.391-2.283,10.782-3.425,16.173c-0.466,2.2,0.271,4.479,2.298,5.646c3.664,2.109,7.328,4.219,10.992,6.329
				c-0.598-2.28-1.196-4.561-1.794-6.841c-2.041,3.534-4.081,7.067-6.121,10.601c2.28-0.598,4.561-1.196,6.841-1.794
				c-3.662-2.12-7.323-4.239-10.985-6.358c-2.022-1.171-4.374-0.739-6.059,0.782c-4.069,3.672-8.138,7.344-12.207,11.015
				c-1.796,1.621-1.661,4.054-0.782,6.059c1.699,3.878,3.398,7.757,5.098,11.635c0.598-2.28,1.196-4.561,1.794-6.841
				c-3.727,1.659-7.454,3.319-11.181,4.978c2.28,0.598,4.561,1.196,6.841,1.794c-1.715-3.864-3.431-7.729-5.146-11.593
				c-0.639-1.44-2.758-2.64-4.317-2.477c-5.481,0.573-10.962,1.146-16.443,1.719c-2.136,0.223-4.331,1.349-4.821,3.671
				c-0.875,4.14-1.75,8.279-2.624,12.419c2.05-1.164,4.1-2.328,6.15-3.492c-3.991-0.849-7.981-1.697-11.973-2.545
				c1.164,2.05,2.328,4.1,3.492,6.15c0.883-4.134,1.767-8.269,2.65-12.404c0.471-2.202-0.275-4.477-2.298-5.646
				c-4.77-2.758-9.541-5.517-14.311-8.275c-2.023-1.17-4.374-0.739-6.059,0.782c-3.142,2.835-6.284,5.671-9.426,8.506
				c2.357,0,4.714,0,7.071,0c-2.73-3.032-5.461-6.064-8.191-9.097c0,2.357,0,4.714,0,7.071c3.147-2.828,6.295-5.655,9.443-8.482
				c1.791-1.609,1.67-4.064,0.782-6.059c-2.243-5.034-4.487-10.068-6.73-15.102c-0.641-1.438-2.757-2.642-4.317-2.477
				c-4.205,0.447-8.411,0.894-12.616,1.34c1.667,1.667,3.333,3.333,5,5c-0.426-4.057-0.853-8.115-1.279-12.172
				c-1.224,1.607-2.447,3.214-3.671,4.821c4.203-0.6,8.406-1.2,12.608-1.801c1.598-0.228,3.16-1.977,3.492-3.492
				c1.148-5.229,2.297-10.457,3.445-15.686c0.482-2.194-0.282-4.486-2.298-5.646c-3.664-2.11-7.328-4.219-10.992-6.329
				c0.598,2.28,1.196,4.561,1.794,6.841c2.04-3.533,4.08-7.067,6.12-10.601c-2.28,0.598-4.561,1.196-6.841,1.794
				c3.663,2.119,7.325,4.239,10.988,6.358c2.024,1.171,4.372,0.738,6.059-0.782c4.093-3.688,8.187-7.375,12.281-11.063
				c1.788-1.611,1.673-4.063,0.782-6.059c-1.725-3.862-3.45-7.725-5.175-11.587c-0.598,2.28-1.196,4.561-1.794,6.841
				c3.728-1.659,7.456-3.319,11.184-4.978c-2.28-0.598-4.561-1.196-6.841-1.794c1.715,3.865,3.43,7.729,5.145,11.594
				c0.639,1.44,2.759,2.64,4.317,2.477c5.481-0.573,10.962-1.146,16.443-1.72c2.137-0.224,4.331-1.349,4.821-3.671
				c0.875-4.14,1.751-8.28,2.626-12.42c-2.05,1.164-4.1,2.328-6.15,3.492c3.991,0.849,7.981,1.697,11.973,2.545
				c-1.164-2.05-2.328-4.1-3.492-6.15c-0.884,4.134-1.768,8.268-2.652,12.402c-0.471,2.202,0.275,4.477,2.298,5.646
				c4.771,2.759,9.541,5.517,14.312,8.276c2.023,1.17,4.374,0.739,6.059-0.782c3.142-2.835,6.283-5.67,9.425-8.505
				c-2.357,0-4.714,0-7.071,0c2.73,3.032,5.46,6.064,8.19,9.097c0-2.357,0-4.714,0-7.071c-3.147,2.827-6.294,5.654-9.441,8.481
				c-1.791,1.609-1.67,4.064-0.782,6.059c2.243,5.034,4.486,10.068,6.729,15.102c0.641,1.438,2.757,2.642,4.317,2.477
				c4.205-0.446,8.41-0.893,12.615-1.339c-1.667-1.667-3.333-3.333-5-5c0.427,4.058,0.853,8.116,1.28,12.173
				c1.667-1.667,3.333-3.333,5-5c-4.209,0.438-8.419,0.875-12.629,1.312C255.129,132.749,255.065,142.755,261.477,142.089z"/>
			<path fill="#FFFFFF" d="M215.554,166.62c-17.069-0.329-30.512-13.774-30.841-30.843c-0.329-17.071,14.266-30.524,30.841-30.843
				c17.071-0.329,30.525,14.269,30.845,30.843C246.728,152.847,232.127,166.301,215.554,166.62c-6.44,0.124-6.452,10.125,0,10
				c22.55-0.435,40.41-18.293,40.845-40.843c0.435-22.551-18.948-40.421-40.845-40.843c-22.551-0.435-40.419,18.947-40.841,40.843
				c-0.435,22.55,18.945,40.421,40.841,40.843C222.006,176.745,221.994,166.744,215.554,166.62z"/>
		</g>
	</g>
	<g>
		<path fill="#FFFFFF" d="M187.311,229.164l12.681-0.612l-0.604-12.226l-12.67,0.641l-5.885-15.45l9.897-7.947l-7.674-9.536
			l-9.881,7.971l-13.833-9.055l3.334-12.236l-11.815-3.205l-3.307,12.256l-16.513,0.807l-4.497-11.86l-11.441,4.352l4.527,11.855
			l-12.875,10.368l-10.619-6.958l-6.698,10.248l10.628,6.927l-4.309,15.472l-12.688,1.098l0.604,12.225l12.67-0.64l5.886,15.449
			l-9.898,7.947l7.676,9.537l9.882-7.973l13.832,9.054l-3.333,12.239l11.815,3.203l3.305-12.256l16.514-0.806l4.498,11.859
			l11.439-4.353l-4.446-11.898l12.798-10.324l10.616,6.957l6.698-10.247l-10.627-6.927L187.311,229.164z M141.53,261.158
			c-19.796,0-35.842-16.05-35.842-35.844c0-19.796,16.046-35.844,35.842-35.844c19.795,0,35.844,16.048,35.844,35.844
			C177.374,245.108,161.325,261.158,141.53,261.158z"/>
		<g>
			<path fill="#FFFFFF" d="M187.311,234.164c4.227-0.204,8.454-0.408,12.681-0.612c2.616-0.126,5.139-2.18,5-5
				c-0.201-4.075-0.402-8.151-0.604-12.226c-0.129-2.613-2.178-5.143-5-5c-4.223,0.213-8.447,0.427-12.67,0.641
				c1.607,1.224,3.214,2.447,4.821,3.671c-1.961-5.15-3.923-10.3-5.885-15.45c-0.429,1.622-0.857,3.243-1.286,4.865
				c3.299-2.649,6.598-5.298,9.897-7.947c2.285-1.835,1.557-5.137,0-7.071c-2.558-3.178-5.116-6.357-7.674-9.536
				c-1.836-2.282-5.136-1.561-7.071,0c-3.293,2.657-6.587,5.314-9.881,7.971c2.02-0.261,4.04-0.521,6.059-0.782
				c-4.611-3.018-9.222-6.037-13.833-9.055c0.766,1.882,1.532,3.764,2.298,5.646c1.111-4.079,2.223-8.157,3.334-12.236
				c0.714-2.621-0.858-5.436-3.492-6.15c-3.938-1.068-7.877-2.137-11.815-3.205c-2.619-0.71-5.439,0.855-6.15,3.492
				c-1.103,4.085-2.205,8.171-3.307,12.256c1.607-1.224,3.214-2.447,4.821-3.671c-5.504,0.269-11.009,0.538-16.513,0.807
				c1.607,1.224,3.214,2.447,4.821,3.671c-1.499-3.954-2.998-7.907-4.497-11.86c-0.892-2.353-3.431-4.527-6.15-3.492
				c-3.814,1.451-7.627,2.901-11.441,4.352c-2.349,0.893-4.531,3.43-3.492,6.15c1.509,3.952,3.018,7.904,4.527,11.855
				c0.429-1.622,0.857-3.243,1.286-4.865c-4.292,3.456-8.583,6.912-12.875,10.368c2.02-0.26,4.04-0.521,6.059-0.782
				c-3.54-2.319-7.079-4.638-10.619-6.958c-2.364-1.549-5.41-0.395-6.841,1.794c-2.233,3.416-4.465,6.832-6.698,10.248
				c-1.545,2.363-0.398,5.412,1.794,6.841c3.542,2.309,7.085,4.618,10.628,6.927c-0.766-1.882-1.532-3.765-2.298-5.646
				c-1.437,5.157-2.873,10.314-4.309,15.472c1.607-1.224,3.214-2.447,4.821-3.671c-4.229,0.366-8.459,0.732-12.688,1.098
				c-2.606,0.226-5.143,2.105-5,5c0.201,4.075,0.403,8.15,0.604,12.225c0.129,2.613,2.178,5.143,5,5
				c4.224-0.213,8.447-0.426,12.67-0.64c-1.607-1.224-3.214-2.447-4.821-3.671c1.962,5.15,3.924,10.3,5.886,15.449
				c0.429-1.622,0.857-3.243,1.286-4.865c-3.299,2.649-6.599,5.298-9.898,7.947c-2.285,1.835-1.557,5.137,0,7.071
				c2.559,3.179,5.117,6.357,7.676,9.537c1.836,2.282,5.136,1.561,7.071,0c3.294-2.658,6.588-5.315,9.882-7.973
				c-2.02,0.261-4.04,0.521-6.059,0.782c4.61,3.018,9.221,6.036,13.832,9.054c-0.766-1.882-1.532-3.765-2.298-5.646
				c-1.111,4.08-2.222,8.159-3.333,12.239c-0.714,2.621,0.858,5.437,3.492,6.15c3.938,1.068,7.876,2.135,11.815,3.203
				c2.619,0.71,5.439-0.854,6.15-3.492c1.102-4.085,2.203-8.171,3.305-12.256c-1.607,1.224-3.214,2.447-4.821,3.671
				c5.504-0.269,11.009-0.537,16.514-0.806c-1.607-1.224-3.214-2.447-4.821-3.671c1.499,3.953,2.998,7.906,4.498,11.859
				c0.892,2.352,3.431,4.527,6.15,3.492c3.813-1.451,7.626-2.901,11.439-4.353c2.363-0.899,4.512-3.422,3.492-6.15
				c-1.482-3.966-2.964-7.933-4.446-11.898c-0.429,1.622-0.857,3.243-1.286,4.865c4.266-3.441,8.532-6.883,12.798-10.324
				c-2.02,0.26-4.04,0.521-6.059,0.782c3.539,2.319,7.077,4.638,10.616,6.957c2.364,1.549,5.41,0.395,6.841-1.794
				c2.232-3.416,4.465-6.831,6.698-10.247c1.545-2.363,0.398-5.412-1.794-6.841c-3.542-2.309-7.084-4.618-10.627-6.927
				c0.766,1.882,1.532,3.765,2.298,5.646c1.438-5.32,2.877-10.64,4.315-15.959c1.686-6.234-7.961-8.877-9.643-2.658
				c-1.438,5.32-2.877,10.64-4.315,15.959c-0.607,2.247,0.401,4.41,2.298,5.646c3.542,2.309,7.084,4.618,10.627,6.927
				c-0.598-2.28-1.196-4.561-1.794-6.841c-2.232,3.416-4.465,6.831-6.698,10.247c2.28-0.598,4.561-1.196,6.841-1.794
				c-3.539-2.319-7.077-4.638-10.616-6.957c-2.014-1.32-4.356-0.591-6.059,0.782c-4.266,3.441-8.532,6.883-12.798,10.324
				c-1.26,1.016-1.846,3.365-1.286,4.865c1.482,3.966,2.964,7.932,4.446,11.898c1.164-2.05,2.328-4.1,3.492-6.15
				c-3.813,1.451-7.626,2.901-11.439,4.353c2.05,1.164,4.1,2.328,6.15,3.492c-1.499-3.953-2.998-7.906-4.498-11.859
				c-0.769-2.027-2.461-3.786-4.821-3.671c-5.504,0.269-11.009,0.537-16.514,0.806c-2.228,0.109-4.221,1.445-4.821,3.671
				c-1.102,4.085-2.203,8.171-3.305,12.256c2.05-1.164,4.1-2.328,6.15-3.492c-3.938-1.068-7.876-2.135-11.815-3.203
				c1.164,2.05,2.328,4.1,3.492,6.15c1.111-4.08,2.222-8.159,3.333-12.239c0.612-2.249-0.406-4.408-2.298-5.646
				c-4.61-3.018-9.221-6.036-13.832-9.054c-2.015-1.319-4.356-0.592-6.059,0.782c-3.294,2.658-6.588,5.315-9.882,7.973
				c2.357,0,4.714,0,7.071,0c-2.559-3.179-5.117-6.357-7.676-9.537c0,2.357,0,4.714,0,7.071c3.299-2.649,6.599-5.298,9.898-7.947
				c1.255-1.008,1.854-3.374,1.286-4.865c-1.962-5.15-3.924-10.3-5.886-15.449c-0.771-2.024-2.46-3.79-4.821-3.671
				c-4.224,0.213-8.447,0.426-12.67,0.64c1.667,1.667,3.333,3.333,5,5c-0.201-4.075-0.403-8.15-0.604-12.225
				c-1.667,1.667-3.333,3.333-5,5c4.229-0.366,8.459-0.732,12.688-1.098c2.25-0.195,4.185-1.386,4.821-3.671
				c1.437-5.157,2.873-10.314,4.309-15.472c0.624-2.239-0.412-4.417-2.298-5.646c-3.542-2.309-7.085-4.618-10.628-6.927
				c0.598,2.28,1.196,4.561,1.794,6.841c2.233-3.416,4.465-6.832,6.698-10.248c-2.28,0.598-4.561,1.196-6.841,1.794
				c3.54,2.319,7.079,4.638,10.619,6.958c2.015,1.32,4.355,0.59,6.059-0.782c4.292-3.456,8.583-6.912,12.875-10.368
				c1.253-1.009,1.855-3.373,1.286-4.865c-1.509-3.952-3.018-7.904-4.527-11.855c-1.164,2.05-2.328,4.1-3.492,6.15
				c3.814-1.451,7.627-2.901,11.441-4.352c-2.05-1.164-4.1-2.328-6.15-3.492c1.499,3.954,2.998,7.907,4.497,11.86
				c0.769,2.027,2.461,3.786,4.821,3.671c5.504-0.269,11.009-0.538,16.513-0.807c2.229-0.109,4.221-1.445,4.821-3.671
				c1.103-4.085,2.205-8.171,3.307-12.256c-2.05,1.164-4.1,2.328-6.15,3.492c3.938,1.068,7.877,2.137,11.815,3.205
				c-1.164-2.05-2.328-4.1-3.492-6.15c-1.111,4.079-2.223,8.157-3.334,12.236c-0.613,2.248,0.406,4.408,2.298,5.646
				c4.611,3.018,9.222,6.037,13.833,9.055c2.015,1.319,4.356,0.592,6.059-0.782c3.293-2.657,6.587-5.314,9.881-7.971
				c-2.357,0-4.714,0-7.071,0c2.558,3.178,5.116,6.357,7.674,9.536c0-2.357,0-4.714,0-7.071c-3.299,2.649-6.598,5.298-9.897,7.947
				c-1.255,1.008-1.854,3.374-1.286,4.865c1.961,5.15,3.923,10.3,5.885,15.45c0.771,2.024,2.46,3.791,4.821,3.671
				c4.223-0.213,8.447-0.427,12.67-0.641c-1.667-1.667-3.333-3.333-5-5c0.201,4.075,0.402,8.151,0.604,12.226
				c1.667-1.667,3.333-3.333,5-5c-4.227,0.204-8.454,0.408-12.681,0.612C180.892,224.473,180.862,234.475,187.311,234.164z"/>
			<path fill="#FFFFFF" d="M141.53,256.158c-17.069-0.329-30.513-13.775-30.842-30.844c-0.329-17.071,14.267-30.525,30.842-30.844
				c17.071-0.329,30.525,14.27,30.844,30.844C172.703,242.384,158.104,255.838,141.53,256.158c-6.44,0.124-6.452,10.125,0,10
				c22.55-0.435,40.41-18.293,40.844-40.844c0.435-22.551-18.948-40.422-40.844-40.844c-22.551-0.435-40.42,18.948-40.842,40.844
				c-0.435,22.55,18.945,40.422,40.842,40.844C147.982,266.282,147.97,256.282,141.53,256.158z"/>
		</g>
	</g>
	<g>
		<g>
			<g>
				<path fill="#FFFFFF" d="M249.849,244.44l7.734-0.986c-1.297-3.923-3.506-7.523-6.5-10.469l-4.215,6.831L249.849,244.44z"/>
				<g>
					<path fill="#FFFFFF" d="M249.849,249.44c2.578-0.329,5.156-0.657,7.734-0.986c2.988-0.381,5.995-2.938,4.821-6.329
						c-1.661-4.801-4.207-9.053-7.785-12.675c-2.31-2.337-6.174-1.709-7.853,1.012c-1.405,2.277-2.81,4.554-4.215,6.831
						c-0.902,1.461-0.94,3.589,0,5.047c0.994,1.542,1.987,3.083,2.98,4.624c3.48,5.399,12.14,0.391,8.635-5.047
						c-0.994-1.542-1.987-3.083-2.98-4.624c0,1.682,0,3.365,0,5.047c1.405-2.277,2.81-4.554,4.215-6.831
						c-2.618,0.337-5.235,0.675-7.853,1.012c2.337,2.366,4.123,5.11,5.214,8.262c1.607-2.11,3.214-4.219,4.821-6.329
						c-2.578,0.329-5.156,0.657-7.734,0.986c-2.703,0.345-5,2.014-5,5C244.849,246.905,247.138,249.786,249.849,249.44z"/>
				</g>
			</g>
			<g>
				<path fill="#FFFFFF" d="M251.083,232.986l5.691-9.224l-9.383-5.747l-5.542,9.115c0.358,0.133,0.72,0.243,1.076,0.393
					C246.064,228.85,248.792,230.732,251.083,232.986z"/>
				<g>
					<path fill="#FFFFFF" d="M255.401,235.509c1.897-3.074,3.794-6.149,5.691-9.224c1.453-2.355,0.486-5.444-1.794-6.841
						c-3.127-1.916-6.255-3.832-9.383-5.747c-2.354-1.442-5.448-0.497-6.841,1.794c-1.847,3.038-3.694,6.076-5.542,9.115
						c-1.787,2.938,0.033,6.267,2.988,7.345c2.666,0.973,4.985,2.632,7.027,4.57c4.674,4.436,11.757-2.624,7.071-7.071
						c-3.348-3.177-7.104-5.56-11.44-7.142c0.996,2.448,1.992,4.896,2.988,7.345c1.847-3.038,3.694-6.076,5.542-9.115
						c-2.28,0.598-4.561,1.196-6.841,1.794c3.127,1.916,6.255,3.832,9.383,5.747c-0.598-2.28-1.196-4.561-1.794-6.841
						c-1.897,3.074-3.794,6.149-5.691,9.224C243.37,235.967,252.022,240.985,255.401,235.509z"/>
				</g>
			</g>
			<g>
				<path fill="#FFFFFF" d="M237.589,234.135l4.26-7.005c-4.142-1.543-8.438-1.977-12.562-1.426l2.827,7.877L237.589,234.135z"/>
				<g>
					<path fill="#FFFFFF" d="M241.907,236.659c1.42-2.335,2.84-4.67,4.26-7.005c1.773-2.916-0.016-6.297-2.988-7.345
						c-4.45-1.569-9.2-2.149-13.891-1.605c-2.969,0.344-6.026,2.973-4.821,6.329c0.942,2.626,1.884,5.251,2.827,7.877
						c0.82,2.287,2.437,3.429,4.821,3.671c1.825,0.185,3.65,0.37,5.475,0.555c2.717,0.275,5-2.483,5-5c0-2.934-2.29-4.726-5-5
						c-1.825-0.185-3.65-0.37-5.475-0.555c1.607,1.224,3.214,2.447,4.821,3.671c-0.942-2.626-1.884-5.251-2.827-7.877
						c-1.607,2.11-3.214,4.219-4.821,6.329c3.93-0.456,7.503-0.067,11.232,1.248c-0.996-2.448-1.992-4.896-2.988-7.345
						c-1.42,2.335-2.84,4.67-4.26,7.005C229.912,237.137,238.562,242.159,241.907,236.659z"/>
				</g>
			</g>
			<g>
				<path fill="#FFFFFF" d="M258.798,254.318l11.12-1.345l-1.358-10.92l-10.977,1.401
					C258.726,246.911,259.176,250.604,258.798,254.318z"/>
				<g>
					<path fill="#FFFFFF" d="M258.798,259.318c3.707-0.448,7.414-0.896,11.12-1.345c2.429-0.294,5.365-2.066,5-5
						c-0.453-3.64-0.906-7.28-1.358-10.92c-0.301-2.42-2.061-5.375-5-5c-3.659,0.467-7.318,0.934-10.977,1.401
						c-3.07,0.392-5.888,2.914-4.821,6.329c0.993,3.181,1.313,6.21,1.037,9.535C253.572,257.039,256.244,259.318,258.798,259.318
						c2.896,0,4.774-2.285,5-5c0.342-4.116-0.164-8.252-1.394-12.193c-1.607,2.11-3.214,4.219-4.821,6.329
						c3.659-0.467,7.318-0.934,10.977-1.401c-1.667-1.667-3.333-3.333-5-5c0.453,3.64,0.906,7.28,1.358,10.92
						c1.667-1.667,3.333-3.333,5-5c-3.707,0.448-7.414,0.896-11.12,1.345c-2.705,0.327-5,2.027-5,5
						C253.798,256.796,256.086,259.646,258.798,259.318z"/>
				</g>
			</g>
			<g>
				<path fill="#FFFFFF" d="M221.89,237.291l-2.904-7.926c-3.603,2.213-6.69,5.309-8.914,9.144l7.969,2.716L221.89,237.291z"/>
				<g>
					<path fill="#FFFFFF" d="M226.711,235.961c-0.968-2.642-1.936-5.284-2.904-7.926c-1.065-2.908-4.431-4.835-7.345-2.988
						c-4.414,2.799-8.018,6.452-10.708,10.938c-1.741,2.902-0.015,6.322,2.988,7.345c2.656,0.905,5.313,1.811,7.969,2.716
						c1.646,0.562,3.678-0.073,4.865-1.286c1.283-1.312,2.566-2.623,3.849-3.934c4.511-4.61-2.555-11.686-7.071-7.071
						c-1.283,1.312-2.566,2.623-3.849,3.934c1.622-0.429,3.243-0.857,4.865-1.286c-2.656-0.905-5.313-1.811-7.969-2.716
						c0.996,2.448,1.992,4.896,2.988,7.345c1.805-3.009,4.152-5.468,7.12-7.35c-2.448-0.996-4.896-1.992-7.345-2.988
						c0.968,2.642,1.936,5.284,2.904,7.926c0.937,2.557,3.358,4.26,6.15,3.492C225.683,241.434,227.649,238.522,226.711,235.961z"/>
				</g>
			</g>
			<g>
				<path fill="#FFFFFF" d="M225.742,215.826l-10.344,3.751l3.587,9.788c3.133-1.926,6.643-3.173,10.303-3.661L225.742,215.826z"/>
				<g>
					<path fill="#FFFFFF" d="M224.413,211.004c-3.448,1.25-6.896,2.5-10.344,3.751c-2.392,0.867-4.484,3.444-3.492,6.15
						c1.196,3.263,2.392,6.525,3.587,9.788c1.094,2.984,4.385,4.737,7.345,2.988c2.864-1.692,5.819-2.66,9.108-3.157
						c2.559-0.386,4.335-3.803,3.492-6.15c-1.182-3.293-2.364-6.585-3.546-9.878c-2.162-6.022-11.827-3.426-9.643,2.658
						c1.182,3.293,2.364,6.585,3.546,9.878c1.164-2.05,2.328-4.1,3.492-6.15c-4.083,0.616-7.944,2.065-11.497,4.165
						c2.448,0.996,4.896,1.992,7.345,2.988c-1.196-3.263-2.392-6.525-3.587-9.788c-1.164,2.05-2.328,4.1-3.492,6.15
						c3.448-1.25,6.896-2.5,10.344-3.751C233.084,218.467,230.49,208.801,224.413,211.004z"/>
				</g>
			</g>
			<g>
				<path fill="#FFFFFF" d="M249.432,260.453l5.398,5.239c0.76-1.203,1.458-2.465,2.031-3.819c1.045-2.474,1.679-5.017,1.937-7.555
					l-7.609,0.919L249.432,260.453z"/>
				<g>
					<path fill="#FFFFFF" d="M245.896,263.988c1.799,1.746,3.599,3.493,5.398,5.239c2.351,2.282,6.146,1.753,7.853-1.012
						c2.656-4.302,4.068-8.9,4.651-13.897c0.29-2.488-2.505-5.301-5-5c-2.537,0.306-5.073,0.613-7.609,0.919
						c-2.352,0.284-4.038,1.345-4.821,3.671c-0.586,1.738-1.171,3.477-1.757,5.215c-2.064,6.128,7.595,8.736,9.643,2.658
						c0.586-1.738,1.171-3.477,1.757-5.215c-1.607,1.224-3.214,2.447-4.821,3.671c2.537-0.306,5.073-0.613,7.609-0.919
						c-1.667-1.667-3.333-3.333-5-5c-0.373,3.201-1.609,6.135-3.286,8.85c2.618-0.337,5.235-0.675,7.853-1.012
						c-1.799-1.746-3.599-3.493-5.398-5.239C248.34,252.426,241.263,259.49,245.896,263.988z"/>
				</g>
			</g>
			<g>
				<path fill="#FFFFFF" d="M208.381,261.384l-9.03,5.776l5.964,9.249l9.164-5.946C211.812,267.873,209.738,264.776,208.381,261.384
					z"/>
				<g>
					<path fill="#FFFFFF" d="M205.857,257.067c-3.01,1.925-6.021,3.851-9.03,5.776c-2.216,1.417-3.315,4.482-1.794,6.841
						c1.988,3.083,3.976,6.166,5.964,9.249c1.422,2.206,4.48,3.326,6.841,1.794c3.055-1.982,6.109-3.964,9.164-5.946
						c2.695-1.749,3.361-5.483,1.012-7.853c-2.347-2.368-4.019-4.997-5.316-8.067C211.636,256.348,207.978,255.825,205.857,257.067
						c-2.575,1.508-2.855,4.33-1.794,6.841c1.61,3.809,3.972,7.157,6.879,10.091c0.337-2.618,0.675-5.235,1.012-7.853
						c-3.055,1.982-6.109,3.964-9.164,5.946c2.28,0.598,4.561,1.196,6.841,1.794c-1.988-3.083-3.976-6.166-5.964-9.249
						c-0.598,2.28-1.196,4.561-1.794,6.841c3.01-1.925,6.021-3.851,9.03-5.776C216.317,262.239,211.307,253.581,205.857,257.067z"/>
				</g>
			</g>
			<g>
				<path fill="#FFFFFF" d="M236.654,270.11l-0.739,7.551c4.032-0.501,7.896-1.917,11.276-4.15l-5.364-5.28L236.654,270.11z"/>
				<g>
					<path fill="#FFFFFF" d="M231.654,270.11c-0.246,2.517-0.493,5.034-0.739,7.551c-0.351,3.585,3.436,5.223,6.329,4.821
						c4.441-0.617,8.695-2.239,12.47-4.654c2.683-1.716,3.382-5.52,1.012-7.853c-1.788-1.76-3.576-3.52-5.364-5.28
						c-1.196-1.177-3.216-1.885-4.865-1.286c-1.725,0.626-3.449,1.252-5.173,1.879c-2.56,0.929-4.259,3.364-3.492,6.15
						c0.679,2.469,3.587,4.423,6.15,3.492c1.725-0.626,3.449-1.252,5.173-1.879c-1.622-0.429-3.243-0.857-4.865-1.286
						c1.788,1.76,3.576,3.52,5.364,5.28c0.337-2.618,0.675-5.235,1.012-7.853c-3.13,2.002-6.401,3.135-10.082,3.646
						c2.11,1.607,4.219,3.214,6.329,4.821c0.246-2.517,0.493-5.034,0.739-7.551c0.266-2.717-2.476-5-5-5
						C233.728,265.11,231.919,267.399,231.654,270.11z"/>
				</g>
			</g>
			<g>
				<path fill="#FFFFFF" d="M225.024,276.723l-1.155,11.053l10.946,1.106l1.099-11.221
					C232.339,278.104,228.638,277.837,225.024,276.723z"/>
				<g>
					<path fill="#FFFFFF" d="M220.024,276.723c-0.385,3.684-0.77,7.369-1.155,11.053c-0.304,2.906,2.519,4.749,5,5
						c3.649,0.369,7.297,0.738,10.946,1.106c2.901,0.293,4.756-2.51,5-5c0.366-3.74,0.733-7.48,1.099-11.221
						c0.246-2.514-2.469-5.271-5-5c-3.307,0.354-6.365,0.162-9.562-0.76c-6.21-1.791-8.843,7.859-2.658,9.643
						c3.976,1.146,8.104,1.557,12.22,1.117c-1.667-1.667-3.333-3.333-5-5c-0.366,3.74-0.733,7.48-1.099,11.221
						c1.667-1.667,3.333-3.333,5-5c-3.649-0.369-7.297-0.738-10.946-1.106c1.667,1.667,3.333,3.333,5,5
						c0.385-3.684,0.77-7.369,1.155-11.053c0.284-2.716-2.489-5-5-5C222.084,271.723,220.308,274.013,220.024,276.723z"/>
				</g>
			</g>
			<g>
				<path fill="#FFFFFF" d="M210.071,238.508l-9.885-3.368l-3.515,10.426l9.983,3.331c0.266-2.501,0.891-5.003,1.921-7.438
					C209.011,240.426,209.524,239.453,210.071,238.508z"/>
				<g>
					<path fill="#FFFFFF" d="M211.4,233.687c-3.295-1.123-6.59-2.245-9.885-3.368c-2.688-0.916-5.321,1.032-6.15,3.492
						c-1.172,3.475-2.343,6.95-3.515,10.426c-0.905,2.685,1.023,5.327,3.492,6.15c3.328,1.11,6.655,2.221,9.983,3.331
						c3.393,1.132,5.954-1.8,6.329-4.821c0.348-2.798,1.357-5.428,2.734-7.865c3.176-5.622-5.464-10.661-8.635-5.047
						c-2.301,4.073-3.525,8.291-4.099,12.912c2.11-1.607,4.219-3.214,6.329-4.821c-3.328-1.11-6.655-2.221-9.983-3.331
						c1.164,2.05,2.328,4.1,3.492,6.15c1.172-3.475,2.343-6.95,3.515-10.426c-2.05,1.164-4.1,2.328-6.15,3.492
						c3.295,1.123,6.59,2.245,9.885,3.368C214.863,245.415,217.469,235.754,211.4,233.687z"/>
				</g>
			</g>
			<g>
				<path fill="#FFFFFF" d="M247.191,273.511l8.082,7.953l7.693-7.871l-8.136-7.901
					C252.817,268.871,250.207,271.517,247.191,273.511z"/>
				<g>
					<path fill="#FFFFFF" d="M243.655,277.047c2.694,2.651,5.388,5.302,8.082,7.953c1.925,1.894,5.155,1.96,7.071,0
						c2.564-2.624,5.128-5.248,7.693-7.871c1.883-1.927,1.971-5.157,0-7.071c-2.712-2.633-5.424-5.267-8.136-7.901
						c-2.405-2.335-6.071-1.687-7.853,1.012c-1.566,2.372-3.501,4.409-5.845,6.025c-5.271,3.634-0.278,12.306,5.047,8.635
						c3.812-2.627,6.881-5.748,9.433-9.613c-2.618,0.337-5.235,0.675-7.853,1.012c2.712,2.633,5.424,5.267,8.136,7.901
						c0-2.357,0-4.714,0-7.071c-2.564,2.624-5.128,5.248-7.693,7.871c2.357,0,4.714,0,7.071,0c-2.694-2.651-5.388-5.302-8.082-7.953
						C246.128,265.451,239.053,272.519,243.655,277.047z"/>
				</g>
			</g>
			<g>
				<path fill="#FFFFFF" d="M214.565,251.537l-7.911-2.64c-0.458,4.293,0.165,8.577,1.726,12.487l6.864-4.39L214.565,251.537z"/>
				<g>
					<path fill="#FFFFFF" d="M215.895,246.715c-2.637-0.88-5.273-1.76-7.911-2.64c-3.314-1.106-6.058,1.769-6.329,4.821
						c-0.416,4.685,0.236,9.419,1.905,13.816c1.093,2.88,4.414,4.862,7.345,2.988c2.288-1.463,4.576-2.926,6.864-4.39
						c1.357-0.868,2.693-2.582,2.477-4.317c-0.227-1.819-0.453-3.639-0.68-5.458c-0.337-2.704-2.02-5-5-5c-2.47,0-5.337,2.289-5,5
						c0.227,1.819,0.453,3.639,0.68,5.458c0.826-1.439,1.651-2.878,2.477-4.317c-2.288,1.463-4.576,2.926-6.864,4.39
						c2.448,0.996,4.896,1.992,7.345,2.988c-1.398-3.685-1.896-7.231-1.547-11.158c-2.11,1.607-4.219,3.214-6.329,4.821
						c2.637,0.88,5.273,1.76,7.911,2.64C219.371,258.405,221.979,248.746,215.895,246.715z"/>
				</g>
			</g>
			<g>
				<path fill="#FFFFFF" d="M221.136,266.142l-6.658,4.322c2.267,2.199,4.95,4.041,8.034,5.344c0.831,0.351,1.669,0.655,2.512,0.916
					l0.805-7.708L221.136,266.142z"/>
				<g>
					<path fill="#FFFFFF" d="M218.613,261.824c-2.219,1.44-4.438,2.881-6.658,4.322c-2.625,1.704-3.448,5.552-1.012,7.853
						c3.684,3.479,7.93,5.99,12.752,7.545c3.356,1.083,6.009-1.755,6.329-4.821c0.269-2.569,0.537-5.138,0.805-7.708
						c0.18-1.726-1.087-3.466-2.477-4.317c-1.564-0.958-3.129-1.916-4.693-2.874c-5.515-3.377-10.535,5.274-5.047,8.635
						c1.564,0.958,3.129,1.916,4.693,2.874c-0.826-1.439-1.651-2.878-2.477-4.317c-0.269,2.569-0.537,5.138-0.805,7.708
						c2.11-1.607,4.219-3.214,6.329-4.821c-3.156-1.018-5.932-2.7-8.339-4.974c-0.337,2.618-0.675,5.235-1.012,7.853
						c2.219-1.44,4.438-2.881,6.658-4.322C229.046,266.962,224.04,258.302,218.613,261.824z"/>
				</g>
			</g>
		</g>
		<g>
			<path fill="#FFFFFF" d="M245.791,252.29c-0.624,16.975-25.689,16.975-26.313,0c-0.271-7.378,6.181-12.898,13.156-13.155
				C240.013,238.864,245.535,245.315,245.791,252.29c0.236,6.429,10.237,6.452,10,0c-0.476-12.937-10.221-22.679-23.157-23.155
				c-12.925-0.475-22.707,10.934-23.156,23.155c-0.475,12.926,10.934,22.708,23.156,23.157
				c12.927,0.475,22.708-10.935,23.157-23.157C256.028,245.838,246.027,245.861,245.791,252.29z"/>
		</g>
	</g>
</g>
</svg>
