<?xml version="1.0" encoding="iso-8859-1"?>
<!-- Generator: Adobe Illustrator 16.0.0, SVG Export Plug-In . SVG Version: 6.00 Build 0)  -->
<!DOCTYPE svg PUBLIC "-//W3C//DTD SVG 1.1 Tiny//EN" "http://www.w3.org/Graphics/SVG/1.1/DTD/svg11-tiny.dtd">
<svg version="1.1" baseProfile="tiny" id="edit_x5F_copy"
	 xmlns="http://www.w3.org/2000/svg" xmlns:xlink="http://www.w3.org/1999/xlink" x="0px" y="0px" width="361px" height="361px"
	 viewBox="0 0 361 361" xml:space="preserve">
<g display="none">
	<path display="inline" fill="none" stroke="#FFFFFF" stroke-width="10" stroke-miterlimit="10" d="M236.58,84.16
		c0-3.562-2.887-6.449-6.448-6.449H78.607c-3.562,0-6.449,2.887-6.449,6.449v198.273c0,3.561,2.887,6.447,6.449,6.447h151.525
		c3.561,0,6.448-2.887,6.448-6.447V84.16z"/>
	<g display="inline">
		<path fill="#FFFFFF" d="M97.119,114.211c38.167,0,76.333,0,114.5,0c6.449,0,6.449-10,0-10c-38.167,0-76.333,0-114.5,0
			C90.67,104.211,90.67,114.211,97.119,114.211L97.119,114.211z"/>
	</g>
	<g display="inline">
		<path fill="#FFFFFF" d="M97.119,169.412c38.167,0,76.333,0,114.5,0c6.449,0,6.449-10,0-10c-38.167,0-76.333,0-114.5,0
			C90.67,159.412,90.67,169.412,97.119,169.412L97.119,169.412z"/>
	</g>
	<g display="inline">
		<path fill="#FFFFFF" d="M97.119,141.812c38.167,0,76.333,0,114.5,0c6.449,0,6.449-10,0-10c-38.167,0-76.333,0-114.5,0
			C90.67,131.812,90.67,141.812,97.119,141.812L97.119,141.812z"/>
	</g>
	<g display="inline">
		<path fill="#FFFFFF" d="M97.119,197.011c38.167,0,76.333,0,114.5,0c6.449,0,6.449-10,0-10c-38.167,0-76.333,0-114.5,0
			C90.67,187.011,90.67,197.011,97.119,197.011L97.119,197.011z"/>
	</g>
	<g display="inline">
		<path fill="#FFFFFF" d="M97.786,224.611c37.722,0,75.445,0,113.167,0c6.449,0,6.449-10,0-10c-37.722,0-75.445,0-113.167,0
			C91.337,214.611,91.337,224.611,97.786,224.611L97.786,224.611z"/>
	</g>
	<g display="inline">
		<path fill="#FFFFFF" d="M97.953,252.211c37.611,0,75.222,0,112.833,0c6.449,0,6.449-10,0-10c-37.611,0-75.222,0-112.833,0
			C91.504,242.211,91.504,252.211,97.953,252.211L97.953,252.211z"/>
	</g>
</g>
<g>
	<path fill="none" stroke="#FFFFFF" stroke-width="10" stroke-miterlimit="10" d="M143.491,108.045h-65.81
		c-3.05,0-5.522,2.473-5.522,5.522v169.792c0,3.049,2.473,5.521,5.522,5.521H207.44c3.049,0,5.521-2.472,5.521-5.521v-25.307"/>
	<g>
		<path fill="#FFFFFF" d="M93.534,140.02c16.684,0,33.369,0,50.053,0c6.449,0,6.449-10,0-10c-16.684,0-33.369,0-50.053,0
			C87.085,130.02,87.085,140.02,93.534,140.02L93.534,140.02z"/>
	</g>
	<g>
		<path fill="#FFFFFF" d="M93.534,187.292c16.684,0,33.369,0,50.053,0c6.449,0,6.449-10,0-10c-16.684,0-33.369,0-50.053,0
			C87.085,177.292,87.085,187.292,93.534,187.292L93.534,187.292z"/>
	</g>
	<g>
		<path fill="#FFFFFF" d="M93.534,163.655c16.684,0,33.369,0,50.053,0c6.449,0,6.449-10,0-10c-16.684,0-33.369,0-50.053,0
			C87.085,153.655,87.085,163.655,93.534,163.655L93.534,163.655z"/>
	</g>
	<g>
		<path fill="#FFFFFF" d="M93.534,210.926c16.684,0,33.369,0,50.053,0c6.449,0,6.449-10,0-10c-16.684,0-33.369,0-50.053,0
			C87.085,200.926,87.085,210.926,93.534,210.926L93.534,210.926z"/>
	</g>
	<g>
		<path fill="#FFFFFF" d="M94.104,234.561c16.304,0,32.607,0,48.911,0c6.449,0,6.449-10,0-10c-16.304,0-32.607,0-48.911,0
			C87.656,224.561,87.656,234.561,94.104,234.561L94.104,234.561z"/>
	</g>
	<g>
		<path fill="#FFFFFF" d="M94.248,258.197c16.208,0,32.417,0,48.625,0c6.449,0,6.449-10,0-10c-16.208,0-32.417,0-48.625,0
			C87.799,248.197,87.799,258.197,94.248,258.197L94.248,258.197z"/>
	</g>
</g>
<g>
	<path fill="none" stroke="#FFFFFF" stroke-width="10" stroke-miterlimit="10" d="M284.294,82.739c0-3.05-2.472-5.522-5.521-5.522
		H149.014c-3.05,0-5.522,2.473-5.522,5.522v169.792c0,3.049,2.473,5.521,5.522,5.521h129.759c3.049,0,5.521-2.472,5.521-5.521
		V82.739z"/>
	<g>
		<path fill="#FFFFFF" d="M164.867,109.191c32.684,0,65.369,0,98.053,0c6.449,0,6.449-10,0-10c-32.684,0-65.369,0-98.053,0
			C158.418,99.191,158.418,109.191,164.867,109.191L164.867,109.191z"/>
	</g>
	<g>
		<path fill="#FFFFFF" d="M164.867,156.463c32.684,0,65.369,0,98.053,0c6.449,0,6.449-10,0-10c-32.684,0-65.369,0-98.053,0
			C158.418,146.463,158.418,156.463,164.867,156.463L164.867,156.463z"/>
	</g>
	<g>
		<path fill="#FFFFFF" d="M164.867,132.827c32.684,0,65.369,0,98.053,0c6.449,0,6.449-10,0-10c-32.684,0-65.369,0-98.053,0
			C158.418,122.827,158.418,132.827,164.867,132.827L164.867,132.827z"/>
	</g>
	<g>
		<path fill="#FFFFFF" d="M164.867,180.098c32.684,0,65.369,0,98.053,0c6.449,0,6.449-10,0-10c-32.684,0-65.369,0-98.053,0
			C158.418,170.098,158.418,180.098,164.867,180.098L164.867,180.098z"/>
	</g>
	<g>
		<path fill="#FFFFFF" d="M165.438,203.732c32.304,0,64.607,0,96.911,0c6.449,0,6.449-10,0-10c-32.304,0-64.607,0-96.911,0
			C158.989,193.732,158.989,203.732,165.438,203.732L165.438,203.732z"/>
	</g>
	<g>
		<path fill="#FFFFFF" d="M165.581,227.368c32.208,0,64.417,0,96.625,0c6.449,0,6.449-10,0-10c-32.208,0-64.417,0-96.625,0
			C159.132,217.368,159.132,227.368,165.581,227.368L165.581,227.368z"/>
	</g>
</g>
</svg>
