<?xml version="1.0" encoding="iso-8859-1"?>
<!-- Generator: Adobe Illustrator 16.0.0, SVG Export Plug-In . SVG Version: 6.00 Build 0)  -->
<!DOCTYPE svg PUBLIC "-//W3C//DTD SVG 1.1//EN" "http://www.w3.org/Graphics/SVG/1.1/DTD/svg11.dtd">
<svg version="1.1" xmlns="http://www.w3.org/2000/svg" xmlns:xlink="http://www.w3.org/1999/xlink" x="0px" y="0px" width="361px"
	 height="361px" viewBox="0 0 361 361" style="enable-background:new 0 0 361 361;" xml:space="preserve">
<g id="fts_x5F_blade_x5F_arc_x5F_00">
	<g>
		<g>
			<g>
				<path style="fill:#FFFFFF;" d="M112.497,213.106c44.951-17.73,96.23-8.717,131.935,24.059c4.74,4.352,11.831-2.701,7.07-7.07
					c-38.144-35.016-93.395-45.67-141.663-26.631C103.912,205.802,106.491,215.476,112.497,213.106L112.497,213.106z"/>
			</g>
		</g>
		<g>
			<g>
				<path style="fill:#FFFFFF;" d="M112.545,202.909c-0.802,0.298-1.603,0.596-2.404,0.895c-1.379,0.513-2.494,1.199-3.26,2.506
					c-0.738,1.26-0.937,2.795-0.55,4.203c0.375,1.363,1.287,2.545,2.506,3.259c1.17,0.686,2.889,1.039,4.203,0.55
					c0.802-0.298,1.603-0.596,2.404-0.895c1.379-0.513,2.494-1.199,3.26-2.506c0.738-1.26,0.937-2.795,0.55-4.203
					c-0.375-1.363-1.287-2.545-2.506-3.259C115.578,202.773,113.859,202.42,112.545,202.909L112.545,202.909z"/>
			</g>
		</g>
		<g>
			<g>
				<path style="fill:#FFFFFF;" d="M250.118,229.397c-0.684-0.515-1.366-1.028-2.049-1.542c-1.105-0.832-2.93-0.9-4.203-0.55
					c-1.363,0.375-2.545,1.287-3.259,2.506c-0.738,1.26-0.938,2.795-0.55,4.203c0.183,0.434,0.366,0.868,0.55,1.303
					c0.484,0.819,1.137,1.472,1.956,1.956c0.684,0.515,1.366,1.028,2.049,1.542c1.105,0.832,2.93,0.9,4.203,0.55
					c1.363-0.375,2.545-1.287,3.259-2.506c0.738-1.26,0.938-2.795,0.55-4.203c-0.183-0.434-0.366-0.868-0.55-1.303
					C251.59,230.534,250.938,229.882,250.118,229.397L250.118,229.397z"/>
			</g>
		</g>
	</g>
	<g>
		<g>
			<path style="fill:#FFFFFF;" d="M178.833,71.667c0,5.416,0,10.832,0,16.248c0,1.935,3,1.935,3,0c0-5.416,0-10.832,0-16.248
				C181.833,69.732,178.833,69.732,178.833,71.667L178.833,71.667z"/>
		</g>
	</g>
	<g>
		<g>
			<path style="fill:#FFFFFF;" d="M179,142.989c0,7.612,0,15.225,0,22.837c0,1.935,3,1.935,3,0c0-7.612,0-15.225,0-22.837
				C182,141.055,179,141.055,179,142.989L179,142.989z"/>
		</g>
	</g>
	<g>
		<g>
			<path style="fill:#FFFFFF;" d="M179,217.986c0,23.894,0,47.787,0,71.681c0,1.935,3,1.935,3,0c0-23.894,0-47.787,0-71.681
				C182,216.052,179,216.052,179,217.986L179,217.986z"/>
		</g>
	</g>
	<g>
		<g>
			<path style="fill:#FFFFFF;" d="M179,134c0,7.612,0,15.225,0,22.837c0,1.935,3,1.935,3,0c0-7.612,0-15.225,0-22.837
				C182,132.066,179,132.066,179,134L179,134z"/>
		</g>
	</g>
	<g>
		<g>
			<g>
				<path style="fill:#FFFFFF;" d="M111.288,132.869c44.951-17.73,96.23-8.717,131.935,24.059c4.74,4.352,11.831-2.702,7.07-7.071
					c-38.144-35.016-93.395-45.669-141.663-26.63C102.703,125.564,105.282,135.238,111.288,132.869L111.288,132.869z"/>
			</g>
		</g>
		<g>
			<g>
				<path style="fill:#FFFFFF;" d="M111.336,122.671c-0.802,0.298-1.603,0.596-2.404,0.895c-1.379,0.513-2.494,1.2-3.26,2.506
					c-0.738,1.26-0.937,2.795-0.55,4.203c0.375,1.363,1.287,2.545,2.506,3.26c1.17,0.685,2.889,1.039,4.203,0.55
					c0.802-0.298,1.603-0.596,2.404-0.895c1.379-0.513,2.494-1.2,3.26-2.506c0.738-1.26,0.937-2.795,0.55-4.203
					c-0.375-1.363-1.287-2.545-2.506-3.26C114.369,122.536,112.65,122.183,111.336,122.671L111.336,122.671z"/>
			</g>
		</g>
		<g>
			<g>
				<path style="fill:#FFFFFF;" d="M248.909,149.16c-0.684-0.514-1.366-1.028-2.049-1.542c-1.105-0.832-2.93-0.9-4.203-0.55
					c-1.363,0.375-2.545,1.287-3.259,2.506c-0.738,1.26-0.938,2.795-0.55,4.203c0.183,0.435,0.366,0.869,0.55,1.303
					c0.484,0.819,1.137,1.472,1.956,1.957c0.684,0.514,1.366,1.028,2.049,1.542c1.105,0.832,2.93,0.9,4.203,0.55
					c1.363-0.375,2.545-1.287,3.259-2.506c0.738-1.26,0.938-2.795,0.55-4.203c-0.183-0.435-0.366-0.869-0.55-1.303
					C250.381,150.297,249.729,149.645,248.909,149.16L248.909,149.16z"/>
			</g>
		</g>
	</g>
</g>
<g id="Ebene_1">
</g>
</svg>
