<?xml version="1.0" encoding="iso-8859-1"?>
<!-- Generator: Adobe Illustrator 16.0.0, SVG Export Plug-In . SVG Version: 6.00 Build 0)  -->
<!DOCTYPE svg PUBLIC "-//W3C//DTD SVG 1.1 Tiny//EN" "http://www.w3.org/Graphics/SVG/1.1/DTD/svg11-tiny.dtd">
<svg version="1.1" baseProfile="tiny" id="fts_x5F_window_x5F_1w_x5F_tilt"
	 xmlns="http://www.w3.org/2000/svg" xmlns:xlink="http://www.w3.org/1999/xlink" x="0px" y="0px" width="361px" height="361px"
	 viewBox="0 0 361 361" xml:space="preserve">
<path fill="none" stroke="#FFFFFF" stroke-width="10" stroke-miterlimit="10" d="M265.308,266.18c0,3.911-3.156,7.083-7.049,7.083
	l-157.885,0.021c-3.894,0-7.05-3.171-7.05-7.083V108.7c0-3.911,3.156-7.083,7.05-7.083l157.885-0.021
	c3.893,0,7.049,3.172,7.049,7.083V266.18z"/>
<path fill="none" stroke="#FFFFFF" stroke-width="10" stroke-miterlimit="10" d="M265.308,106.086c0,2.485-2.71,4.5-6.052,4.5
	l-159.88,0.021c-3.342,0-6.052-2.015-6.052-4.5v-9c0-2.485,2.71-4.5,6.052-4.5l159.88-0.021c3.342,0,6.052,2.015,6.052,4.5V106.086z
	"/>
<path fill="none" stroke="#FFFFFF" stroke-width="10" stroke-miterlimit="10" d="M263.214,268.056
	c0.584,2.887-1.628,5.228-4.942,5.228H100.939c-3.313,0-6.474-2.34-7.058-5.228L72.722,133.511
	c-0.584-2.887,1.628-5.228,4.942-5.228h157.333c3.313,0,6.474,2.34,7.058,5.228L263.214,268.056z"/>
<g>
	<path fill="#FFFFFF" d="M244.676,202.545c2.213,0,4.426,0,6.639,0c2.726,0,5-2.274,5-5s-2.274-5-5-5c-2.213,0-4.426,0-6.639,0
		c-2.726,0-5,2.274-5,5S241.951,202.545,244.676,202.545L244.676,202.545z"/>
</g>
</svg>
