<?xml version="1.0" encoding="iso-8859-1"?>
<!-- Generator: Adobe Illustrator 16.0.0, SVG Export Plug-In . SVG Version: 6.00 Build 0)  -->
<!DOCTYPE svg PUBLIC "-//W3C//DTD SVG 1.1//EN" "http://www.w3.org/Graphics/SVG/1.1/DTD/svg11.dtd">
<svg version="1.1" xmlns="http://www.w3.org/2000/svg" xmlns:xlink="http://www.w3.org/1999/xlink" x="0px" y="0px" width="361px"
	 height="361px" viewBox="0 0 361 361" style="enable-background:new 0 0 361 361;" xml:space="preserve">
<g id="fts_x5F_blade_x5F_z_x5F_10">
	<g>
		<g>
			<path style="fill:#FFFFFF;" d="M178.833,70.667c0,19.833,0,39.667,0,59.5c0,1.935,3,1.935,3,0c0-19.833,0-39.667,0-59.5
				C181.833,68.732,178.833,68.732,178.833,70.667L178.833,70.667z"/>
		</g>
	</g>
	<g>
		<g>
			<path style="fill:#FFFFFF;" d="M179,159.082c0,13.55,0,27.1,0,40.651c0,1.935,3,1.935,3,0c0-13.551,0-27.101,0-40.651
				C182,157.147,179,157.147,179,159.082L179,159.082z"/>
		</g>
	</g>
	<g>
		<g>
			<path style="fill:#FFFFFF;" d="M179,230.667c0,19.667,0,39.333,0,59c0,1.935,3,1.935,3,0c0-19.667,0-39.333,0-59
				C182,228.732,179,228.732,179,230.667L179,230.667z"/>
		</g>
	</g>
	<g style="display:none;">
		<g style="display:inline;">
			<g>
				<path style="fill:#FFFFFF;" d="M210.117,134.19c0,9.159,0,18.318,0,27.477c0,1.935,3,1.935,3,0c0-9.159,0-18.318,0-27.477
					C213.117,132.256,210.117,132.256,210.117,134.19L210.117,134.19z"/>
			</g>
		</g>
		<g style="display:inline;">
			<g>
				<path style="fill:#FFFFFF;" d="M210.236,198c0,10.444,0,20.89,0,31.334c0,1.935,3,1.935,3,0c0-10.444,0-20.89,0-31.334
					C213.236,196.065,210.236,196.065,210.236,198L210.236,198z"/>
			</g>
		</g>
		<g style="display:inline;">
			<g>
				<path style="fill:#FFFFFF;" d="M210.236,262c0,9.171,0,18.341,0,27.512c0,1.935,3,1.935,3,0c0-9.171,0-18.341,0-27.512
					C213.236,260.065,210.236,260.065,210.236,262L210.236,262z"/>
			</g>
		</g>
	</g>
	<g>
		<g>
			<g>
				<g>
					<path style="fill:#FFFFFF;" d="M169.026,146.025c6.122,3.625,12.243,7.25,18.365,10.874c5.562,3.293,10.59-5.353,5.047-8.635
						c-6.122-3.625-12.243-7.25-18.365-10.874C168.511,134.097,163.483,142.744,169.026,146.025L169.026,146.025z"/>
				</g>
			</g>
			<g>
				<g>
					<path style="fill:#FFFFFF;" d="M190.462,157.919c22.511-1.312,45.021-2.623,67.531-3.935c6.409-0.374,6.445-10.375,0-10
						c-22.511,1.312-45.021,2.623-67.531,3.935C184.053,148.292,184.017,158.294,190.462,157.919L190.462,157.919z"/>
				</g>
			</g>
			<g>
				<g>
					<path style="fill:#FFFFFF;" d="M104.021,150.638c22.51-1.31,45.019-2.62,67.529-3.93c6.409-0.373,6.445-10.375,0-10
						c-22.51,1.31-45.019,2.62-67.529,3.93C97.612,141.011,97.576,151.013,104.021,150.638L104.021,150.638z"/>
				</g>
			</g>
		</g>
		<g>
			<g>
				<path style="fill:#FFFFFF;" d="M106.998,141.091c-0.855,0.031-1.71,0.062-2.565,0.093c-2.97,0.107-5.454,2.4-5.454,5.454
					c0,2.892,2.481,5.562,5.454,5.454c0.855-0.031,1.71-0.062,2.565-0.093c2.97-0.107,5.454-2.4,5.454-5.454
					C112.452,143.653,109.971,140.983,106.998,141.091L106.998,141.091z"/>
			</g>
		</g>
		<g>
			<g>
				<path style="fill:#FFFFFF;" d="M257.754,143.939c-0.853,0.056-1.706,0.112-2.559,0.168c-1.481,0.097-2.784,0.525-3.856,1.598
					c-1.019,1.018-1.598,2.416-1.598,3.856c0,2.826,2.484,5.649,5.454,5.454c0.853-0.056,1.706-0.112,2.559-0.168
					c1.481-0.097,2.784-0.525,3.856-1.598c1.019-1.018,1.598-2.416,1.598-3.856C263.208,146.568,260.724,143.745,257.754,143.939
					L257.754,143.939z"/>
			</g>
		</g>
	</g>
	<g>
		<g>
			<g>
				<g>
					<path style="fill:#FFFFFF;" d="M168.666,212.641c6.121,3.625,12.241,7.251,18.362,10.876c5.562,3.294,10.589-5.353,5.047-8.635
						c-6.12-3.625-12.241-7.251-18.362-10.876C168.151,200.712,163.124,209.358,168.666,212.641L168.666,212.641z"/>
				</g>
			</g>
			<g>
				<g>
					<path style="fill:#FFFFFF;" d="M190.101,224.533c22.511-1.311,45.021-2.622,67.532-3.933c6.409-0.373,6.445-10.375,0-10
						c-22.511,1.311-45.021,2.622-67.532,3.933C183.691,214.906,183.655,224.908,190.101,224.533L190.101,224.533z"/>
				</g>
			</g>
			<g>
				<g>
					<path style="fill:#FFFFFF;" d="M103.657,217.256c22.511-1.311,45.021-2.622,67.532-3.933c6.409-0.373,6.445-10.375,0-10
						c-22.511,1.311-45.021,2.622-67.532,3.933C97.249,207.629,97.212,217.631,103.657,217.256L103.657,217.256z"/>
				</g>
			</g>
		</g>
		<g>
			<g>
				<path style="fill:#FFFFFF;" d="M106.634,207.708c-0.854,0.031-1.708,0.063-2.563,0.095c-2.97,0.109-5.454,2.398-5.454,5.454
					c0,2.89,2.481,5.563,5.454,5.454c0.854-0.031,1.708-0.063,2.563-0.095c2.97-0.11,5.454-2.397,5.454-5.454
					C112.088,210.272,109.606,207.599,106.634,207.708L106.634,207.708z"/>
			</g>
		</g>
		<g>
			<g>
				<path style="fill:#FFFFFF;" d="M257.395,210.558c-0.854,0.057-1.71,0.112-2.564,0.169c-1.481,0.098-2.784,0.524-3.856,1.598
					c-1.019,1.019-1.598,2.416-1.598,3.856c0,2.825,2.484,5.649,5.454,5.454c0.854-0.057,1.71-0.112,2.564-0.169
					c1.481-0.098,2.784-0.524,3.856-1.598c1.019-1.019,1.598-2.416,1.598-3.856C262.849,213.187,260.364,210.362,257.395,210.558
					L257.395,210.558z"/>
			</g>
		</g>
	</g>
</g>
<g id="Ebene_1">
</g>
</svg>
