<?xml version="1.0" encoding="iso-8859-1"?>
<!-- Generator: Adobe Illustrator 16.0.0, SVG Export Plug-In . SVG Version: 6.00 Build 0)  -->
<!DOCTYPE svg PUBLIC "-//W3C//DTD SVG 1.1//EN" "http://www.w3.org/Graphics/SVG/1.1/DTD/svg11.dtd">
<svg version="1.1" xmlns="http://www.w3.org/2000/svg" xmlns:xlink="http://www.w3.org/1999/xlink" x="0px" y="0px" width="361px"
	 height="361px" viewBox="0 0 361 361" style="enable-background:new 0 0 361 361;" xml:space="preserve">
<g id="fts_x5F_blade_x5F_z_x5F_00">
	<g>
		<g>
			<path style="fill:#FFFFFF;" d="M178.833,70.667c0,19.833,0,39.667,0,59.5c0,1.935,3,1.935,3,0c0-19.833,0-39.667,0-59.5
				C181.833,68.732,178.833,68.732,178.833,70.667L178.833,70.667z"/>
		</g>
	</g>
	<g>
		<g>
			<path style="fill:#FFFFFF;" d="M179,159.082c0,13.55,0,27.1,0,40.651c0,1.935,3,1.935,3,0c0-13.551,0-27.101,0-40.651
				C182,157.147,179,157.147,179,159.082L179,159.082z"/>
		</g>
	</g>
	<g>
		<g>
			<path style="fill:#FFFFFF;" d="M179,230.667c0,19.667,0,39.333,0,59c0,1.935,3,1.935,3,0c0-19.667,0-39.333,0-59
				C182,228.732,179,228.732,179,230.667L179,230.667z"/>
		</g>
	</g>
	<g style="display:none;">
		<g style="display:inline;">
			<g>
				<path style="fill:#FFFFFF;" d="M210.117,134.19c0,9.159,0,18.318,0,27.477c0,1.935,3,1.935,3,0c0-9.159,0-18.318,0-27.477
					C213.117,132.256,210.117,132.256,210.117,134.19L210.117,134.19z"/>
			</g>
		</g>
		<g style="display:inline;">
			<g>
				<path style="fill:#FFFFFF;" d="M210.236,198c0,10.444,0,20.89,0,31.334c0,1.935,3,1.935,3,0c0-10.444,0-20.89,0-31.334
					C213.236,196.065,210.236,196.065,210.236,198L210.236,198z"/>
			</g>
		</g>
		<g style="display:inline;">
			<g>
				<path style="fill:#FFFFFF;" d="M210.236,262c0,9.171,0,18.341,0,27.512c0,1.935,3,1.935,3,0c0-9.171,0-18.341,0-27.512
					C213.236,260.065,210.236,260.065,210.236,262L210.236,262z"/>
			</g>
		</g>
	</g>
	<g>
		<g>
			<g>
				<g>
					<path style="fill:#FFFFFF;" d="M168.887,143.982c5.558,4.441,11.116,8.883,16.674,13.324c2.127,1.7,4.984,2.086,7.07,0
						c1.767-1.766,2.133-5.367,0-7.071c-5.558-4.441-11.115-8.883-16.673-13.324c-2.127-1.7-4.985-2.086-7.071,0
						C167.121,138.677,166.754,142.278,168.887,143.982L168.887,143.982z"/>
				</g>
			</g>
			<g>
				<g>
					<path style="fill:#FFFFFF;" d="M189.59,159.18c22.474,1.834,44.948,3.668,67.422,5.503c6.432,0.525,6.381-9.479,0-10
						c-22.474-1.834-44.948-3.668-67.422-5.503C183.158,148.655,183.209,158.659,189.59,159.18L189.59,159.18z"/>
				</g>
			</g>
			<g>
				<g>
					<path style="fill:#FFFFFF;" d="M105.003,139.939c22.473,1.835,44.946,3.671,67.419,5.507c6.431,0.525,6.38-9.479,0-10
						c-22.473-1.835-44.946-3.671-67.419-5.507C98.572,129.414,98.623,139.418,105.003,139.939L105.003,139.939z"/>
				</g>
			</g>
		</g>
		<g>
			<g>
				<path style="fill:#FFFFFF;" d="M107.825,130.798c-0.851-0.088-1.702-0.176-2.553-0.265c-1.364-0.141-2.925,0.666-3.856,1.598
					c-1.019,1.018-1.598,2.416-1.598,3.856s0.579,2.838,1.598,3.856c0.368,0.284,0.736,0.569,1.104,0.853
					c0.851,0.493,1.769,0.742,2.753,0.745c0.851,0.088,1.702,0.176,2.553,0.265c1.364,0.141,2.925-0.666,3.856-1.598
					c1.019-1.018,1.598-2.416,1.598-3.856s-0.579-2.838-1.598-3.856c-0.368-0.284-0.736-0.569-1.104-0.853
					C109.727,131.049,108.81,130.801,107.825,130.798L107.825,130.798z"/>
			</g>
		</g>
		<g>
			<g>
				<path style="fill:#FFFFFF;" d="M256.718,154.601c-0.853-0.063-1.705-0.127-2.558-0.19c-1.387-0.103-2.9,0.642-3.856,1.598
					c-1.019,1.018-1.598,2.416-1.598,3.856s0.579,2.838,1.598,3.856c1.08,1.08,2.37,1.487,3.856,1.598
					c0.853,0.063,1.705,0.127,2.558,0.19c1.387,0.103,2.9-0.642,3.856-1.598c1.019-1.018,1.598-2.416,1.598-3.856
					s-0.579-2.838-1.598-3.856C259.494,155.118,258.204,154.711,256.718,154.601L256.718,154.601z"/>
			</g>
		</g>
	</g>
	<g>
		<g>
			<g>
				<g>
					<path style="fill:#FFFFFF;" d="M168.525,210.598c5.557,4.441,11.113,8.883,16.67,13.324c2.126,1.7,4.984,2.087,7.07,0
						c1.767-1.766,2.133-5.366,0-7.07c-5.556-4.441-11.112-8.883-16.669-13.324c-2.127-1.7-4.985-2.087-7.071,0
						C166.759,205.293,166.393,208.894,168.525,210.598L168.525,210.598z"/>
				</g>
			</g>
			<g>
				<g>
					<path style="fill:#FFFFFF;" d="M189.229,225.795c22.475,1.835,44.948,3.669,67.423,5.504c6.432,0.525,6.381-9.479,0-10
						c-22.475-1.835-44.948-3.669-67.423-5.504C182.797,215.27,182.848,225.274,189.229,225.795L189.229,225.795z"/>
				</g>
			</g>
			<g>
				<g>
					<path style="fill:#FFFFFF;" d="M104.639,206.559c22.474,1.835,44.948,3.669,67.422,5.504c6.431,0.525,6.38-9.479,0-10
						c-22.474-1.835-44.948-3.669-67.422-5.504C98.208,196.033,98.258,206.038,104.639,206.559L104.639,206.559z"/>
				</g>
			</g>
		</g>
		<g>
			<g>
				<path style="fill:#FFFFFF;" d="M107.461,197.415c-0.851-0.087-1.701-0.175-2.551-0.262c-1.365-0.14-2.924,0.665-3.856,1.598
					c-1.019,1.019-1.598,2.416-1.598,3.856s0.579,2.838,1.598,3.856c0.368,0.284,0.736,0.568,1.104,0.853
					c0.851,0.494,1.769,0.742,2.753,0.745c0.851,0.087,1.701,0.175,2.551,0.262c1.365,0.14,2.924-0.665,3.856-1.598
					c1.019-1.019,1.598-2.416,1.598-3.856s-0.579-2.838-1.598-3.856c-0.368-0.284-0.736-0.568-1.104-0.853
					C109.363,197.666,108.445,197.418,107.461,197.415L107.461,197.415z"/>
			</g>
		</g>
		<g>
			<g>
				<path style="fill:#FFFFFF;" d="M256.357,221.22c-0.854-0.063-1.708-0.128-2.563-0.191c-1.387-0.104-2.9,0.642-3.856,1.598
					c-1.019,1.019-1.598,2.416-1.598,3.856s0.579,2.838,1.598,3.856c1.08,1.08,2.37,1.486,3.856,1.598
					c0.854,0.063,1.708,0.128,2.563,0.191c1.387,0.104,2.9-0.642,3.856-1.598c1.019-1.019,1.598-2.416,1.598-3.856
					s-0.579-2.838-1.598-3.856C259.134,221.737,257.844,221.331,256.357,221.22L256.357,221.22z"/>
			</g>
		</g>
	</g>
</g>
<g id="Ebene_1">
</g>
</svg>
