<?xml version="1.0" encoding="iso-8859-1"?>
<!-- Generator: Adobe Illustrator 16.0.0, SVG Export Plug-In . SVG Version: 6.00 Build 0)  -->
<!DOCTYPE svg PUBLIC "-//W3C//DTD SVG 1.1//EN" "http://www.w3.org/Graphics/SVG/1.1/DTD/svg11.dtd">
<svg version="1.1" xmlns="http://www.w3.org/2000/svg" xmlns:xlink="http://www.w3.org/1999/xlink" x="0px" y="0px" width="361px"
	 height="361px" viewBox="0 0 361 361" style="enable-background:new 0 0 361 361;" xml:space="preserve">
<g id="fts_x5F_light_x5F_dome">
	<g id="Fenster_gerade_4_" style="display:none;">
		<path style="display:inline;fill:none;stroke:#FFFFFF;stroke-width:10;stroke-miterlimit:10;" d="M247.826,264.303
			c0,3.91-3.156,7.082-7.05,7.082l-117.885,0.021c-3.894,0-7.05-3.171-7.05-7.083v-137.5c0-3.911,3.156-7.083,7.05-7.083
			l117.885-0.021c3.894,0,7.05,3.172,7.05,7.083V264.303z"/>
		<g style="display:inline;">
			<g>
				<path style="fill:#FFFFFF;" d="M175.833,260.681c0,2.213,0,4.427,0,6.64c0,2.726,2.274,5,5,5s5-2.274,5-5
					c0-2.213,0-4.427,0-6.64c0-2.726-2.274-5-5-5S175.833,257.955,175.833,260.681L175.833,260.681z"/>
			</g>
		</g>
		<path style="display:inline;fill:none;stroke:#FFFFFF;stroke-width:10;stroke-miterlimit:10;" d="M247.826,124.208
			c0,2.485-2.711,4.5-6.053,4.5l-119.88,0.021c-3.342,0-6.052-2.015-6.052-4.5v-9c0-2.485,2.71-4.5,6.052-4.5l119.88-0.021
			c3.342,0,6.053,2.015,6.053,4.5V124.208z"/>
		<path style="display:inline;fill:none;stroke:#FFFFFF;stroke-width:10;stroke-miterlimit:10;" d="M261.008,277.855
			c0,4.685-3.782,8.484-8.446,8.484l-141.235,0.025c-4.665,0-8.446-3.8-8.446-8.486V103.144c0-4.685,3.782-8.486,8.446-8.486
			l141.235-0.024c4.664,0,8.446,3.801,8.446,8.486V277.855z"/>
	</g>
	<g>
		<g>
			<path style="fill:#FFFFFF;" d="M271.556,233.755c-0.294,2.184-2.15,1.357-4.162,1.357c-3.82,0-7.642,0-11.462,0
				c-12.941,0-25.882,0-38.822,0c-31.557,0-63.114,0-94.671,0c-9.748,0-19.496,0-29.244,0c-1.097,0-3.254,0.435-4.293-0.004
				c0.332,0.141-0.453,2.111,0.401-0.456c0.509-1.531,0.996-3.07,1.475-4.611c1.537-4.938,2.902-9.93,4.029-14.977
				c2.141-9.594,1.791-19.449,2.423-29.212c0.078-1.202,0.668-15.391,1.394-15.391c6.885,0,13.769,0,20.653,0
				c30.674,0,61.348,0,92.021,0c12.812,0,25.624,0,38.437,0c3.373,0,6.747,0,10.12,0c2.653,0,2.034,0.234,2.266,3.18
				c0.893,11.381,0.62,23.025,1.939,34.337c1.131,9.69,4.186,19.284,7.495,28.435c2.175,6.016,11.841,3.421,9.643-2.658
				c-2.521-6.971-4.673-14.112-6.29-21.346c-2.065-9.235-1.427-19.171-2.049-28.591c-0.415-6.283,0.596-16.924-4.946-21.206
				c-2.81-2.171-5.849-2.151-9.138-2.151c-25.219,0-50.437,0-75.654,0c-26.536,0-53.071,0-79.606,0c-1.694,0-3.388,0-5.082,0
				c-9.776,0-10.057,9.94-10.609,17.087c-0.749,9.683-0.544,19.552-1.606,29.185c-0.961,8.721-3.97,17.484-6.73,25.778
				c-2.137,6.419,3.241,12.6,9.779,12.6c2.178,0,4.355,0,6.533,0c10.785,0,21.569,0,32.354,0c31.768,0,63.537,0,95.304,0
				c12.286,0,24.572,0,36.858,0c7.614,0,19.471,1.807,20.883-8.699C282.045,230.11,272.411,227.389,271.556,233.755z"/>
		</g>
	</g>
	<g>
		<g>
			<g>
				<path style="fill:#FFFFFF;" d="M273.425,159.366c-0.422-10.646-16.857-15.032-24.813-17.345
					c-21.883-6.361-45.448-7.756-68.109-7.816c-22.342-0.059-45.256,1.656-66.902,7.479c-8.163,2.196-25.588,6.737-26.022,17.682
					c-0.077,1.935,2.924,1.928,3,0c0.17-4.289,4.791-7.025,8.103-8.871c6.008-3.347,12.854-5.243,19.486-6.894
					c20.262-5.045,41.526-6.341,62.335-6.396c20.417-0.054,41.101,1.491,61.031,6.083c6.85,1.578,13.708,3.616,20.001,6.789
					c3.546,1.788,8.712,4.774,8.891,9.289C270.501,161.293,273.502,161.301,273.425,159.366L273.425,159.366z"/>
			</g>
		</g>
		<g>
			<g>
				<g>
					<path style="fill:#FFFFFF;" d="M86.445,167.38c49.796,0,99.593,0,149.39,0c12.556,0,25.112,0,37.668,0c6.448,0,6.448-10,0-10
						c-49.797,0-99.593,0-149.39,0c-12.556,0-25.112,0-37.668,0C79.997,157.38,79.997,167.38,86.445,167.38L86.445,167.38z"/>
				</g>
			</g>
			<g>
				<g>
					<path style="fill:#FFFFFF;" d="M81.624,161.051c-1.148,4.009-2.296,8.018-3.444,12.027c-1.779,6.213,7.871,8.847,9.643,2.658
						c1.148-4.009,2.296-8.018,3.444-12.027C93.046,157.497,83.396,154.863,81.624,161.051L81.624,161.051z"/>
				</g>
			</g>
			<g>
				<g>
					<path style="fill:#FFFFFF;" d="M268.682,163.709c1.148,4.009,2.296,8.018,3.444,12.027c1.772,6.188,11.422,3.555,9.643-2.658
						c-1.148-4.009-2.296-8.018-3.444-12.027C276.552,154.863,266.902,157.497,268.682,163.709L268.682,163.709z"/>
				</g>
			</g>
		</g>
	</g>
	<g>
		<g>
			<path style="fill:#FFFFFF;" d="M80.387,223.502c-0.09,4.467-1.548,13.804-7.554,14.112c-4.491,0.231-4.513,7.232,0,7
				c10.441-0.537,14.375-12.264,14.554-21.112C87.479,218.985,80.479,218.994,80.387,223.502L80.387,223.502z"/>
		</g>
	</g>
	<g>
		<g>
			<path style="fill:#FFFFFF;" d="M273.617,223.683c0.18,8.849,4.113,20.574,14.555,21.111c4.514,0.232,4.491-6.769,0-7
				c-6.006-0.309-7.464-9.644-7.555-14.111C280.525,219.175,273.525,219.166,273.617,223.683L273.617,223.683z"/>
		</g>
	</g>
	<g>
		<g>
			<path style="fill:#FFFFFF;" d="M83.887,227.002c49.65,0,99.299,0,148.95,0c14.76,0,29.521,0,44.28,0c4.514,0,4.514-7,0-7
				c-49.649,0-99.299,0-148.949,0c-14.76,0-29.521,0-44.281,0C79.373,220.002,79.373,227.002,83.887,227.002L83.887,227.002z"/>
		</g>
	</g>
	<g>
		<g>
			<path style="fill:#FFFFFF;" d="M72.833,246.122c48.286,0,96.572,0,144.858,0c23.493,0,46.987,0,70.48,0c4.514,0,4.514-7,0-7
				c-48.286,0-96.572,0-144.858,0c-23.494,0-46.987,0-70.48,0C68.319,239.122,68.319,246.122,72.833,246.122L72.833,246.122z"/>
		</g>
	</g>
</g>
<g id="Ebene_1">
</g>
</svg>
