<?xml version="1.0" encoding="iso-8859-1"?>
<!-- Generator: Adobe Illustrator 16.0.0, SVG Export Plug-In . SVG Version: 6.00 Build 0)  -->
<!DOCTYPE svg PUBLIC "-//W3C//DTD SVG 1.1//EN" "http://www.w3.org/Graphics/SVG/1.1/DTD/svg11.dtd">
<svg version="1.1" xmlns="http://www.w3.org/2000/svg" xmlns:xlink="http://www.w3.org/1999/xlink" x="0px" y="0px" width="361px"
	 height="361px" viewBox="0 0 361 361" style="enable-background:new 0 0 361 361;" xml:space="preserve">
<g id="fts_x5F_blade_x5F_arc_x5F_close_x5F_50">
	<g>
		<g>
			<g>
				<g>
					<path style="fill:#FFFFFF;" d="M209.467,214.675c8.73-29.31,33.197-50.547,63.265-55.642c6.349-1.075,3.647-10.711-2.658-9.643
						c-33.44,5.666-60.599,30.228-70.249,62.626C197.979,218.212,207.631,220.84,209.467,214.675L209.467,214.675z"/>
				</g>
			</g>
			<g>
				<g>
					<path style="fill:#FFFFFF;" d="M200.442,210.422c-0.166,0.523-0.331,1.046-0.496,1.568c-0.897,2.835,1.025,5.943,3.809,6.709
						c2.948,0.812,5.813-0.977,6.709-3.809c0.166-0.523,0.331-1.046,0.496-1.568c0.897-2.835-1.025-5.943-3.809-6.709
						C204.203,205.802,201.338,207.59,200.442,210.422L200.442,210.422z"/>
				</g>
			</g>
			<g>
				<g>
					<path style="fill:#FFFFFF;" d="M269.957,149.445c-0.529,0.142-1.059,0.285-1.589,0.427c-2.869,0.771-4.594,3.857-3.809,6.709
						c0.791,2.878,3.839,4.58,6.709,3.81c0.529-0.142,1.059-0.285,1.589-0.427c2.869-0.771,4.594-3.857,3.809-6.709
						C275.875,150.376,272.827,148.674,269.957,149.445L269.957,149.445z"/>
				</g>
			</g>
		</g>
		<g>
			<g>
				<g>
					<path style="fill:#FFFFFF;" d="M209.467,279.56c8.73-29.31,33.197-50.547,63.265-55.642c6.349-1.075,3.647-10.711-2.658-9.643
						c-33.44,5.666-60.599,30.228-70.249,62.626C197.979,283.097,207.631,285.725,209.467,279.56L209.467,279.56z"/>
				</g>
			</g>
			<g>
				<g>
					<path style="fill:#FFFFFF;" d="M200.442,275.307c-0.166,0.523-0.331,1.046-0.496,1.568c-0.897,2.835,1.025,5.943,3.809,6.709
						c2.948,0.812,5.813-0.977,6.709-3.809c0.166-0.523,0.331-1.046,0.496-1.568c0.897-2.835-1.025-5.943-3.809-6.709
						C204.203,270.687,201.338,272.475,200.442,275.307L200.442,275.307z"/>
				</g>
			</g>
			<g>
				<g>
					<path style="fill:#FFFFFF;" d="M269.957,214.33c-0.529,0.142-1.059,0.284-1.589,0.427c-2.869,0.771-4.594,3.856-3.809,6.709
						c0.791,2.877,3.839,4.58,6.709,3.809c0.529-0.142,1.059-0.284,1.589-0.427c2.869-0.771,4.594-3.856,3.809-6.709
						C275.875,215.262,272.827,213.559,269.957,214.33L269.957,214.33z"/>
				</g>
			</g>
		</g>
		<g>
			<g>
				<g>
					<path style="fill:#FFFFFF;" d="M209.467,149.79c8.73-29.31,33.197-50.547,63.265-55.642c6.349-1.075,3.647-10.711-2.658-9.643
						c-33.44,5.666-60.599,30.228-70.249,62.626C197.979,153.327,207.631,155.955,209.467,149.79L209.467,149.79z"/>
				</g>
			</g>
			<g>
				<g>
					<path style="fill:#FFFFFF;" d="M200.442,145.537c-0.166,0.522-0.331,1.045-0.496,1.568c-0.897,2.834,1.025,5.943,3.809,6.709
						c2.948,0.811,5.813-0.978,6.709-3.81c0.166-0.522,0.331-1.045,0.496-1.568c0.897-2.834-1.025-5.943-3.809-6.709
						C204.203,140.917,201.338,142.705,200.442,145.537L200.442,145.537z"/>
				</g>
			</g>
			<g>
				<g>
					<path style="fill:#FFFFFF;" d="M269.957,84.56c-0.529,0.143-1.059,0.285-1.589,0.427c-2.869,0.771-4.594,3.857-3.809,6.709
						c0.791,2.878,3.839,4.58,6.709,3.81c0.529-0.143,1.059-0.285,1.589-0.427c2.869-0.771,4.594-3.857,3.809-6.709
						C275.875,85.491,272.827,83.789,269.957,84.56L269.957,84.56z"/>
				</g>
			</g>
		</g>
	</g>
	<g>
		<g>
			<path style="fill:#FFFFFF;" d="M231.869,71.292c0,6.884,0,13.768,0,20.651c0,1.935,3,1.935,3,0c0-6.884,0-13.768,0-20.651
				C234.869,69.358,231.869,69.358,231.869,71.292L231.869,71.292z"/>
		</g>
	</g>
	<g>
		<g>
			<path style="fill:#FFFFFF;" d="M231.869,120.804c0,12.408,0,24.816,0,37.225c0,1.935,3,1.935,3,0c0-12.408,0-24.816,0-37.225
				C234.869,118.869,231.869,118.869,231.869,120.804L231.869,120.804z"/>
		</g>
	</g>
	<g>
		<g>
			<path style="fill:#FFFFFF;" d="M231.869,184.779c0,12.408,0,24.816,0,37.225c0,1.935,3,1.935,3,0c0-12.408,0-24.816,0-37.225
				C234.869,182.845,231.869,182.845,231.869,184.779L231.869,184.779z"/>
		</g>
	</g>
	<g>
		<g>
			<path style="fill:#FFFFFF;" d="M231.869,248.664c0,13.657,0,27.313,0,40.971c0,1.935,3,1.935,3,0c0-13.657,0-27.313,0-40.971
				C234.869,246.729,231.869,246.729,231.869,248.664L231.869,248.664z"/>
		</g>
	</g>
	<g id="sonne_4_">
		<path style="fill:none;stroke:#FFFFFF;stroke-width:10;stroke-miterlimit:10;" d="M90.708,118.603c0,2.245,1.82,4.064,4.064,4.064
			h23.371c2.245,0,4.064-1.82,4.064-4.064V95.231c0-2.245-1.82-4.064-4.064-4.064H94.772c-2.245,0-4.064,1.82-4.064,4.064V118.603z"
			/>
		<g>
			<g>
				<path style="fill:#FFFFFF;" d="M137.797,70.756c-2.406,2.407-4.813,4.813-7.219,7.219c-1.926,1.926-1.926,5.145,0,7.071
					s5.145,1.926,7.071,0c2.406-2.407,4.813-4.813,7.219-7.219c1.926-1.926,1.926-5.145,0-7.071S139.723,68.83,137.797,70.756
					L137.797,70.756z"/>
			</g>
		</g>
		<g>
			<g>
				<path style="fill:#FFFFFF;" d="M175.708,101.667c-11.167,0-22.333,0-33.5,0c-6.449,0-6.449,10,0,10c11.167,0,22.333,0,33.5,0
					C182.156,111.667,182.156,101.667,175.708,101.667L175.708,101.667z"/>
			</g>
		</g>
		<g>
			<g>
				<path style="fill:#FFFFFF;" d="M78.369,143.327c1.99-1.99,3.979-3.979,5.969-5.969c1.926-1.926,1.926-5.145,0-7.071
					s-5.145-1.926-7.071,0c-1.99,1.99-3.979,3.979-5.969,5.969c-1.926,1.926-1.926,5.145,0,7.071S76.442,145.253,78.369,143.327
					L78.369,143.327z"/>
			</g>
		</g>
		<g>
			<g>
				<path style="fill:#FFFFFF;" d="M111.958,175.417c0-11.167,0-22.333,0-33.5c0-6.449-10-6.449-10,0c0,11.167,0,22.333,0,33.5
					C101.958,181.865,111.958,181.865,111.958,175.417L111.958,175.417z"/>
			</g>
		</g>
		<g>
			<g>
				<path style="fill:#FFFFFF;" d="M160.337,153.976c-7.896-7.896-15.792-15.792-23.688-23.688
					c-4.564-4.563-11.635,2.507-7.071,7.071c7.896,7.896,15.792,15.792,23.688,23.688C157.83,165.61,164.901,158.54,160.337,153.976
					L160.337,153.976z"/>
			</g>
		</g>
	</g>
</g>
<g id="Ebene_1">
</g>
</svg>
