<?xml version="1.0" encoding="iso-8859-1"?>
<!-- Generator: Adobe Illustrator 16.0.0, SVG Export Plug-In . SVG Version: 6.00 Build 0)  -->
<!DOCTYPE svg PUBLIC "-//W3C//DTD SVG 1.1//EN" "http://www.w3.org/Graphics/SVG/1.1/DTD/svg11.dtd">
<svg version="1.1" xmlns="http://www.w3.org/2000/svg" xmlns:xlink="http://www.w3.org/1999/xlink" x="0px" y="0px" width="361px"
	 height="361px" viewBox="0 0 361 361" style="enable-background:new 0 0 361 361;" xml:space="preserve">
<g id="fts_x5F_shutter_x5F_manual">
	<g id="Manual_1_">
		<g>
			<g>
				<path style="fill:#FFFFFF;" d="M254.279,241.441c0-7.839,0-15.679,0-23.518c0-4.717,0-9.435,0-14.151
					c0-4.062,0.029-3.786,4.262-3.786c3.592,0,2.924,0.556,2.924,3.979c0,4.77,0,9.54,0,14.311c0,7.722,0,15.444,0,23.166
					c0,4.514,7,4.514,7,0c0-9.628,0-19.256,0-28.884c0-4.085,0-8.17,0-12.256c0-5.635-5.262-7.315-9.924-7.315
					c-4.99,0-11.262,0.944-11.262,7.491c0,3.907,0,7.815,0,11.724c0,9.746,0,19.493,0,29.24
					C247.279,245.955,254.279,245.955,254.279,241.441L254.279,241.441z"/>
			</g>
		</g>
		<g>
			<g>
				<path style="fill:#FFFFFF;" d="M241.029,264.611c0-17.41-0.761-34.986,0.096-52.377c0.083-1.703-0.23-1.899,1.158-1.899
					c1.53,0,3.06,0,4.59,0c3.138,0,0.406,0.3,0.406-1.67c0,0.426,0,0.851,0,1.276c0,4.608,0,9.217,0,13.825
					c0,9.341,0,18.682,0,28.022c0,4.514,7,4.514,7,0c0-10.579,0-21.157,0-31.736c0-3.836,0-7.672,0-11.508
					c0-6.559-9.839-5.706-14.153-5.085c-6.638,0.955-6.097,9.225-6.097,14.27c0,5.17,0,10.339,0,15.508c0,10.458,0,20.916,0,31.374
					C234.029,269.125,241.029,269.125,241.029,264.611L241.029,264.611z"/>
			</g>
		</g>
		<g>
			<g>
				<path style="fill:#FFFFFF;" d="M268.465,249.08c0-7.706,0-15.411,0-23.117c0-4.991,0-9.981,0-14.972c0-1.372,0-2.745,0-4.117
					c0-0.306,0-0.611,0-0.917c0,2.009-2.682,1.67,0.572,1.67c1.134,0,2.268,0,3.402,0c1.072,0,1.807,1.667,1.807,0.878
					c0,0.961,0,1.923,0,2.884c0,4.636,0,9.272,0,13.908c0,7.928,0,15.855,0,23.783c0,4.514,7,4.514,7,0c0-9.523,0-19.048,0-28.571
					c0-3.97,0-7.938,0-11.908c0-6.226-6.35-7.974-11.283-7.974c-4.254,0-8.498,0.675-8.498,5.938c0,4.514,0,9.027,0,13.542
					c0,9.657,0,19.315,0,28.973C261.465,253.594,268.465,253.594,268.465,249.08L268.465,249.08z"/>
			</g>
		</g>
		<g>
			<g>
				<path style="fill:#FFFFFF;" d="M281.246,253.996c0-10.19,0-20.382,0-30.572c0-1.636,0-3.271,0-4.906
					c0,0.553-2.668,1.47,0.174,1.47c0.353,0,2.667-0.113,2.719-0.045c1.164,1.542,0.551,5.814,0.551,7.593
					c0,20.14,0,40.278,0,60.418c0,4.514,7,4.514,7,0c0-21.451,0-42.901,0-64.352c0-5.274-1.744-9.873-7.493-10.614
					c-5.423-0.699-9.95,0.92-9.95,6.859c0,11.383,0,22.767,0,34.149C274.246,258.51,281.246,258.51,281.246,253.996L281.246,253.996
					z"/>
			</g>
		</g>
		<g>
			<g>
				<path style="fill:#FFFFFF;" d="M230.481,287.013c-3.43-13.311-6.858-26.621-10.288-39.932c-0.623-2.421-1.691-3.43,0.974-4.214
					c0.966-0.284,4.328-1.591,4.608-0.793c0.414,1.177,0.827,2.354,1.241,3.531c2.359,6.713,4.718,13.427,7.077,20.14
					c1.486,4.229,8.251,2.409,6.75-1.861c-2.693-7.663-5.387-15.327-8.079-22.99c-1.576-4.485-5.72-6.801-10.5-5.597
					c-4.827,1.217-10.355,3.049-9.87,9.127c0.572,7.174,3.696,14.792,5.483,21.73c1.951,7.573,3.902,15.146,5.854,22.72
					C224.857,293.242,231.608,291.388,230.481,287.013L230.481,287.013z"/>
			</g>
		</g>
	</g>
	<path style="fill:none;stroke:#FFFFFF;stroke-width:10;stroke-miterlimit:10;" d="M239.016,187.987c0,2.916-2.363,5.28-5.279,5.28
		H85.896c-2.917,0-5.28-2.364-5.28-5.28v-95.04c0-2.916,2.364-5.28,5.28-5.28h147.84c2.916,0,5.279,2.364,5.279,5.28V187.987z"/>
	<g>
		<g>
			<path style="fill:#FFFFFF;" d="M155.373,145.343c3.148,0,6.296,0,9.444,0c6.449,0,6.449-10,0-10c-3.148,0-6.296,0-9.444,0
				C148.924,135.343,148.924,145.343,155.373,145.343L155.373,145.343z"/>
		</g>
	</g>
	
		<line style="fill:none;stroke:#FFFFFF;stroke-width:10;stroke-miterlimit:10;" x1="159.992" y1="87.916" x2="159.992" y2="190.652"/>
	<path style="fill:#FFFFFF;stroke:#FFFFFF;stroke-width:10;stroke-miterlimit:10;" d="M244.749,88.771
		c0,0.407-2.53,0.738-5.653,0.738H80.803c-3.122,0-5.653-0.331-5.653-0.738V75.496c0-0.407,2.531-0.738,5.653-0.738h158.293
		c3.123,0,5.653,0.331,5.653,0.738V88.771z"/>
	<g>
		<g>
			<path style="fill:#FFFFFF;" d="M75.416,103.166c49.739,0,99.478,0.001,149.217,0.002c6.75,0,13.5,0,20.25,0c4.514,0,4.514-7,0-7
				c-49.739,0-99.478-0.001-149.216-0.002c-6.75,0-13.5,0-20.25,0C70.902,96.166,70.902,103.166,75.416,103.166L75.416,103.166z"/>
		</g>
	</g>
	<g>
		<g>
			<path style="fill:#FFFFFF;" d="M75.416,113.566c49.739,0,99.478,0.001,149.217,0.002c6.75,0,13.5,0,20.25,0c4.514,0,4.514-7,0-7
				c-49.739,0-99.478-0.001-149.216-0.002c-6.75,0-13.5,0-20.25,0C70.902,106.566,70.902,113.566,75.416,113.566L75.416,113.566z"/>
		</g>
	</g>
	<g>
		<g>
			<path style="fill:#FFFFFF;" d="M75.416,123.966c49.739,0,99.478,0.001,149.217,0.002c6.75,0,13.5,0,20.25,0c4.514,0,4.514-7,0-7
				c-49.739,0-99.478-0.001-149.216-0.002c-6.75,0-13.5,0-20.25,0C70.902,116.966,70.902,123.966,75.416,123.966L75.416,123.966z"/>
		</g>
	</g>
	<g>
		<g>
			<path style="fill:#FFFFFF;" d="M75.416,134.366c49.739,0,99.478,0.001,149.217,0.002c6.75,0,13.5,0,20.25,0c4.514,0,4.514-7,0-7
				c-49.739,0-99.478-0.001-149.216-0.002c-6.75,0-13.5,0-20.25,0C70.902,127.366,70.902,134.366,75.416,134.366L75.416,134.366z"/>
		</g>
	</g>
</g>
<g id="Ebene_1">
</g>
</svg>
