<?xml version="1.0" encoding="iso-8859-1"?>
<!-- Generator: Adobe Illustrator 16.0.0, SVG Export Plug-In . SVG Version: 6.00 Build 0)  -->
<!DOCTYPE svg PUBLIC "-//W3C//DTD SVG 1.1//EN" "http://www.w3.org/Graphics/SVG/1.1/DTD/svg11.dtd">
<svg version="1.1" xmlns="http://www.w3.org/2000/svg" xmlns:xlink="http://www.w3.org/1999/xlink" x="0px" y="0px" width="361px"
	 height="361px" viewBox="0 0 361 361" style="enable-background:new 0 0 361 361;" xml:space="preserve">
<g id="fts_x5F_blade_x5F_arc_x5F_40">
	<g>
		<g>
			<g>
				<path style="fill:#FFFFFF;" d="M121.844,249.168c28.328-38.351,76.938-57.448,123.796-48.7c6.302,1.177,8.992-8.46,2.658-9.643
					c-51.652-9.644-103.899,11.07-135.089,53.296C109.372,249.315,118.057,254.294,121.844,249.168L121.844,249.168z"/>
			</g>
		</g>
		<g>
			<g>
				<path style="fill:#FFFFFF;" d="M115.151,242.294c-0.521,0.678-1.042,1.355-1.563,2.033c-0.839,1.092-0.896,2.941-0.55,4.203
					c0.375,1.363,1.287,2.545,2.506,3.259c1.26,0.738,2.795,0.938,4.203,0.55c0.435-0.183,0.869-0.366,1.303-0.55
					c0.819-0.484,1.472-1.137,1.957-1.956c0.521-0.678,1.042-1.355,1.563-2.033c0.839-1.092,0.896-2.941,0.55-4.203
					c-0.375-1.363-1.287-2.545-2.506-3.259c-1.26-0.738-2.795-0.938-4.203-0.55c-0.435,0.183-0.869,0.366-1.303,0.55
					C116.288,240.822,115.636,241.475,115.151,242.294L115.151,242.294z"/>
			</g>
		</g>
		<g>
			<g>
				<path style="fill:#FFFFFF;" d="M246.711,190.915c-0.852-0.074-1.703-0.148-2.555-0.223c-1.377-0.12-2.911,0.652-3.856,1.598
					c-1.019,1.019-1.598,2.416-1.598,3.856s0.579,2.838,1.598,3.856c1.09,1.09,2.364,1.468,3.856,1.598
					c0.852,0.074,1.703,0.148,2.555,0.223c1.377,0.12,2.911-0.652,3.856-1.598c1.019-1.019,1.598-2.416,1.598-3.856
					s-0.579-2.838-1.598-3.856C249.478,191.423,248.203,191.045,246.711,190.915L246.711,190.915z"/>
			</g>
		</g>
	</g>
	<g>
		<g>
			<path style="fill:#FFFFFF;" d="M178.833,71.667c0,5.416,0,10.832,0,16.248c0,1.935,3,1.935,3,0c0-5.416,0-10.832,0-16.248
				C181.833,69.732,178.833,69.732,178.833,71.667L178.833,71.667z"/>
		</g>
	</g>
	<g>
		<g>
			<path style="fill:#FFFFFF;" d="M179,142.989c0,7.612,0,15.225,0,22.837c0,1.935,3,1.935,3,0c0-7.612,0-15.225,0-22.837
				C182,141.055,179,141.055,179,142.989L179,142.989z"/>
		</g>
	</g>
	<g>
		<g>
			<path style="fill:#FFFFFF;" d="M179,217.986c0,23.894,0,47.787,0,71.681c0,1.935,3,1.935,3,0c0-23.894,0-47.787,0-71.681
				C182,216.052,179,216.052,179,217.986L179,217.986z"/>
		</g>
	</g>
	<g>
		<g>
			<g>
				<path style="fill:#FFFFFF;" d="M120.635,168.93c28.328-38.351,76.938-57.447,123.796-48.7c6.302,1.177,8.992-8.46,2.658-9.643
					C195.437,100.945,143.19,121.658,112,163.883C108.163,169.078,116.848,174.057,120.635,168.93L120.635,168.93z"/>
			</g>
		</g>
		<g>
			<g>
				<path style="fill:#FFFFFF;" d="M113.942,162.057c-0.521,0.678-1.042,1.355-1.563,2.033c-0.839,1.092-0.896,2.942-0.55,4.203
					c0.375,1.363,1.287,2.545,2.506,3.26c1.26,0.738,2.795,0.937,4.203,0.55c0.435-0.184,0.869-0.367,1.303-0.55
					c0.819-0.485,1.472-1.137,1.957-1.957c0.521-0.678,1.042-1.355,1.563-2.033c0.839-1.092,0.896-2.942,0.55-4.203
					c-0.375-1.363-1.287-2.545-2.506-3.26c-1.26-0.738-2.795-0.937-4.203-0.55c-0.435,0.184-0.869,0.367-1.303,0.55
					C115.079,160.585,114.427,161.238,113.942,162.057L113.942,162.057z"/>
			</g>
		</g>
		<g>
			<g>
				<path style="fill:#FFFFFF;" d="M245.502,110.678c-0.852-0.074-1.703-0.148-2.555-0.223c-1.377-0.12-2.911,0.652-3.856,1.598
					c-1.019,1.018-1.598,2.416-1.598,3.856s0.579,2.838,1.598,3.856c1.09,1.09,2.364,1.467,3.856,1.598
					c0.852,0.074,1.703,0.148,2.555,0.223c1.377,0.12,2.911-0.652,3.856-1.598c1.019-1.018,1.598-2.416,1.598-3.856
					s-0.579-2.838-1.598-3.856C248.269,111.186,246.994,110.809,245.502,110.678L245.502,110.678z"/>
			</g>
		</g>
	</g>
	<g>
		<g>
			<path style="fill:#FFFFFF;" d="M179,134c0,7.612,0,15.225,0,22.837c0,1.935,3,1.935,3,0c0-7.612,0-15.225,0-22.837
				C182,132.066,179,132.066,179,134L179,134z"/>
		</g>
	</g>
</g>
<g id="Ebene_1">
</g>
</svg>
