<?xml version="1.0" encoding="iso-8859-1"?>
<!-- Generator: Adobe Illustrator 16.0.0, SVG Export Plug-In . SVG Version: 6.00 Build 0)  -->
<!DOCTYPE svg PUBLIC "-//W3C//DTD SVG 1.1//EN" "http://www.w3.org/Graphics/SVG/1.1/DTD/svg11.dtd">
<svg version="1.1" xmlns="http://www.w3.org/2000/svg" xmlns:xlink="http://www.w3.org/1999/xlink" x="0px" y="0px" width="361px"
	 height="361px" viewBox="0 0 361 361" style="enable-background:new 0 0 361 361;" xml:space="preserve">
<g id="fts_x5F_window_x5F_2w_x5F_tilt_x5F_l">
	<g>
		<path style="fill:none;stroke:#FFFFFF;stroke-width:10;stroke-miterlimit:10;" d="M267.654,250.303
			c0,3.91-2.583,7.082-5.768,7.082l-161.89,0.021c-3.186,0-5.768-3.171-5.768-7.083v-127.5c0-3.911,2.582-7.083,5.768-7.083
			l161.89-0.021c3.185,0,5.768,3.172,5.768,7.083V250.303z"/>
		
			<line style="fill:none;stroke:#FFFFFF;stroke-width:10;stroke-miterlimit:10;" x1="180.941" y1="116.583" x2="180.941" y2="253.758"/>
		<path style="fill:none;stroke:#FFFFFF;stroke-width:10;stroke-miterlimit:10;" d="M267.654,120.208c0,2.485-2.218,4.5-4.952,4.5
			L99.18,124.729c-2.734,0-4.951-2.015-4.951-4.5v-9c0-2.485,2.217-4.5,4.951-4.5l163.522-0.021c2.734,0,4.952,2.015,4.952,4.5
			V120.208z"/>
	</g>
	<g>
		<path style="fill:none;stroke:#FFFFFF;stroke-width:10;stroke-miterlimit:10;" d="M94.243,250.303c0,3.91,2.583,7.082,5.767,7.082
			l161.89,0.021c3.186,0,5.769-3.171,5.769-7.083v-127.5c0-3.911-2.583-7.083-5.769-7.083l-161.89-0.021
			c-3.185,0-5.767,3.172-5.767,7.083V250.303z"/>
		<g>
			<g>
				<path style="fill:#FFFFFF;" d="M186.113,181.584c-1.722,0-3.443,0-5.165,0c-2.726,0-5,2.274-5,5s2.274,5,5,5
					c1.722,0,3.443,0,5.165,0c2.726,0,5-2.274,5-5S188.839,181.584,186.113,181.584L186.113,181.584z"/>
			</g>
		</g>
		
			<line style="fill:none;stroke:#FFFFFF;stroke-width:10;stroke-miterlimit:10;" x1="180.956" y1="116.583" x2="180.956" y2="253.758"/>
		<path style="fill:none;stroke:#FFFFFF;stroke-width:10;stroke-miterlimit:10;" d="M94.243,120.208c0,2.485,2.217,4.5,4.952,4.5
			l163.521,0.021c2.735,0,4.953-2.015,4.953-4.5v-9c0-2.485-2.218-4.5-4.953-4.5l-163.521-0.021c-2.735,0-4.952,2.015-4.952,4.5
			V120.208z"/>
	</g>
	<path style="display:none;fill:none;stroke:#FFFFFF;stroke-width:10;stroke-miterlimit:10;" d="M257.651,250.284
		c0,3.894-2.582,7.05-5.768,7.05H90.391c-3.186,0-5.768-3.156-5.768-7.05V123.383c0-3.893,2.582-7.05,5.768-7.05h161.493
		c3.186,0,5.768,3.157,5.768,7.05V250.284z"/>
	<g style="display:none;">
		<g style="display:inline;">
			<path style="fill:#FFFFFF;" d="M165.888,191.669c1.295-0.001,2.59-0.001,3.886-0.002c2.726-0.001,5-2.273,5-5
				c0-2.725-2.274-5.001-5-5c-1.295,0.001-2.59,0.001-3.886,0.002c-2.726,0.001-5,2.273-5,5
				C160.888,189.394,163.162,191.67,165.888,191.669L165.888,191.669z"/>
		</g>
	</g>
	
		<line style="display:none;fill:none;stroke:#FFFFFF;stroke-width:10;stroke-miterlimit:10;" x1="170.511" y1="116.667" x2="170.511" y2="253.842"/>
	<path style="display:none;fill:none;stroke:#FFFFFF;stroke-width:10;stroke-miterlimit:10;" d="M257.924,120.167
		c0,2.485-2.219,4.5-4.955,4.5H89.442c-2.737,0-4.956-2.015-4.956-4.5v-9c0-2.485,2.218-4.5,4.956-4.5h163.526
		c2.736,0,4.955,2.015,4.955,4.5V120.167z"/>
	<g>
		<path style="fill:none;stroke:#FFFFFF;stroke-width:10;stroke-miterlimit:10;" d="M267.654,250.303
			c0,3.91-2.582,7.082-5.768,7.082l-161.89,0.021c-3.186,0-5.768-3.171-5.768-7.083v-127.5c0-3.911,2.582-7.083,5.768-7.083
			l161.89-0.021c3.186,0,5.768,3.172,5.768,7.083V250.303z"/>
		<g>
			<g>
				<path style="fill:#FFFFFF;" d="M180.948,191.584c6.448,0,6.448-10,0-10C174.5,181.584,174.5,191.584,180.948,191.584
					L180.948,191.584z"/>
			</g>
		</g>
		
			<line style="fill:none;stroke:#FFFFFF;stroke-width:10;stroke-miterlimit:10;" x1="180.941" y1="116.583" x2="180.941" y2="253.758"/>
		<path style="fill:none;stroke:#FFFFFF;stroke-width:10;stroke-miterlimit:10;" d="M267.654,120.208c0,2.485-2.217,4.5-4.952,4.5
			l-163.521,0.021c-2.734,0-4.951-2.015-4.951-4.5v-9c0-2.485,2.217-4.5,4.951-4.5l163.521-0.021c2.735,0,4.952,2.015,4.952,4.5
			V120.208z"/>
	</g>
	<path style="fill:none;stroke:#FFFFFF;stroke-width:10;stroke-miterlimit:10;" d="M174.629,251.773
		c0.454,2.887-1.266,5.227-3.841,5.227H97.473c-2.575,0-5.032-2.34-5.485-5.227L75.542,147.228c-0.455-2.887,1.266-5.228,3.84-5.228
		h73.316c2.575,0,5.03,2.34,5.485,5.228L174.629,251.773z"/>
</g>
<g id="Ebene_1">
</g>
</svg>
