<?xml version="1.0" encoding="iso-8859-1"?>
<!-- Generator: Adobe Illustrator 16.0.0, SVG Export Plug-In . SVG Version: 6.00 Build 0)  -->
<!DOCTYPE svg PUBLIC "-//W3C//DTD SVG 1.1//EN" "http://www.w3.org/Graphics/SVG/1.1/DTD/svg11.dtd">
<svg version="1.1" xmlns="http://www.w3.org/2000/svg" xmlns:xlink="http://www.w3.org/1999/xlink" x="0px" y="0px" width="361px"
	 height="361px" viewBox="0 0 361 361" style="enable-background:new 0 0 361 361;" xml:space="preserve">
<g id="fts_x5F_yard_x5F_gate_x5F_2w_x5F_open">
	<g>
		<g>
			<path style="fill:#FFFFFF;" d="M110.35,165.846c0,3.491-2.831,6.321-6.322,6.321H91.913c-3.491,0-6.321-2.831-6.321-6.321
				v-11.589c0-3.491,2.831-6.321,6.321-6.321h12.116c3.491,0,6.322,2.83,6.322,6.321V165.846z"/>
			<path style="fill:#FFFFFF;" d="M224.133,165.846c0,3.491-2.83,6.321-6.321,6.321h-12.116c-3.49,0-6.32-2.831-6.32-6.321v-11.589
				c0-3.491,2.83-6.321,6.32-6.321h12.116c3.491,0,6.321,2.83,6.321,6.321V165.846z"/>
			<path style="fill:#FFFFFF;" d="M209.463,118.418H99.621c-6.306,0-11.246-6.332-11.246-14.417v-0.664l5.007-19.54
				c0.488-7.432,8.012-13.655,14.209-13.655h93.901c6.197,0,13.721,6.223,14.209,13.655l5.008,19.54v0.664
				C220.709,112.086,215.77,118.418,209.463,118.418z M100.02,107.883h109.045c0.357-0.396,0.975-1.512,1.09-3.29l-4.963-19.368
				v-0.665c0-1.656-2.627-3.736-3.787-3.885l-93.813,0.004c-1.072,0.146-3.699,2.226-3.699,3.881v0.665l-4.963,19.368
				C99.045,106.371,99.661,107.487,100.02,107.883z"/>
			<path style="fill:#FFFFFF;" d="M228.697,147.614c0,3.085-2.928,5.589-6.537,5.589H87.037c-3.61,0-6.538-2.503-6.538-5.589V118.42
				c0-3.086,2.928-5.589,6.538-5.589H222.16c3.609,0,6.537,2.502,6.537,5.589V147.614z M115.354,125.008
				c0-2.735-2.83-4.953-6.321-4.953H90.859c-3.492,0-6.322,2.218-6.322,4.953v5.16c0,2.735,2.83,4.953,6.322,4.953h18.173
				c3.491,0,6.321-2.217,6.321-4.953V125.008z M224.396,125.008c0-2.735-2.831-4.953-6.322-4.953H199.9
				c-3.49,0-6.32,2.218-6.32,4.953v5.16c0,2.735,2.83,4.953,6.32,4.953h18.174c3.491,0,6.322-2.217,6.322-4.953V125.008z
				 M181.99,129.386c0-5.32-2.83-9.633-6.32-9.633h-42.669c-3.491,0-6.321,4.313-6.321,9.633v6.02c0,5.319,2.831,9.633,6.321,9.633
				h42.669c3.491,0,6.32-4.313,6.32-9.633V129.386z"/>
		</g>
		<rect x="119.568" y="122.65" style="fill:#FFFFFF;" width="69.533" height="10.536"/>
		<rect x="120.622" y="136.346" style="fill:#FFFFFF;" width="69.535" height="10.536"/>
	</g>
	<g>
		<g>
			<path style="fill:#FFFFFF;" d="M276.83,179.472c0,35.047,0,70.094,0,105.141c0,9.686,15.004,9.771,15.004,0.107
				c0-35.047,0-70.094,0-105.14C291.834,169.894,276.83,169.809,276.83,179.472L276.83,179.472z"/>
		</g>
	</g>
	<g>
		<g>
			<path style="fill:#FFFFFF;" d="M284.332,288.834c-48.944,0-97.888,0-146.832,0c-19.834,0-39.667,0-59.501,0c-1.935,0-1.935,3,0,3
				c48.944,0,97.888,0,146.832,0c19.833,0,39.667,0,59.501,0C286.267,291.834,286.267,288.834,284.332,288.834L284.332,288.834z"/>
		</g>
	</g>
	<g>
		<g>
			<path style="fill:#FFFFFF;" d="M70.498,179.472c0,35.047,0,70.094,0,105.141c0,9.686,15.003,9.771,15.003,0.107
				c0-35.047,0-70.094,0-105.14C85.5,169.894,70.498,169.809,70.498,179.472L70.498,179.472z"/>
		</g>
	</g>
	<g>
		<g>
			<g>
				<path style="fill:#FFFFFF;" d="M271.572,277.275c0-29.552,0-59.103,0-88.654c0-6.448-10-6.448-10,0c0,29.552,0,59.103,0,88.654
					C261.572,283.724,271.572,283.724,271.572,277.275L271.572,277.275z"/>
			</g>
		</g>
		<g>
			<g>
				<path style="fill:#FFFFFF;" d="M259.489,266.322c0-29.552,0-59.104,0-88.655c0-4.514-7-4.514-7,0c0,29.552,0,59.104,0,88.655
					C252.489,270.836,259.489,270.836,259.489,266.322L259.489,266.322z"/>
			</g>
		</g>
		<g>
			<g>
				<path style="fill:#FFFFFF;" d="M249.906,257.18c0-29.552,0-59.103,0-88.654c0-4.514-7-4.514-7,0c0,29.552,0,59.103,0,88.654
					C242.906,261.693,249.906,261.693,249.906,257.18L249.906,257.18z"/>
			</g>
		</g>
		<g>
			<g>
				<path style="fill:#FFFFFF;" d="M270.107,185.086c-9.916-10-19.833-20-29.75-30c-4.545-4.583-11.614,2.489-7.07,7.071
					c9.916,10,19.833,20,29.75,30C267.582,196.74,274.651,189.667,270.107,185.086L270.107,185.086z"/>
			</g>
		</g>
		<g>
			<g>
				<path style="fill:#FFFFFF;" d="M270.107,274.413c-9.916-10-19.833-20-29.75-30c-4.545-4.584-11.614,2.489-7.07,7.07
					c9.916,10,19.833,20,29.75,30C267.582,286.067,274.651,278.994,270.107,274.413L270.107,274.413z"/>
			</g>
		</g>
		<g>
			<g>
				<path style="fill:#FFFFFF;" d="M240.322,248.18c0-29.552,0-59.103,0-88.654c0-4.514-7-4.514-7,0c0,29.552,0,59.103,0,88.654
					C233.322,252.693,240.322,252.693,240.322,248.18L240.322,248.18z"/>
			</g>
		</g>
	</g>
	<g>
		<g>
			<g>
				<path style="fill:#FFFFFF;" d="M100.475,276.985c0-29.552,0-59.103,0-88.654c0-6.448-10-6.448-10,0c0,29.552,0,59.103,0,88.654
					C90.475,283.434,100.475,283.434,100.475,276.985L100.475,276.985z"/>
			</g>
		</g>
		<g>
			<g>
				<path style="fill:#FFFFFF;" d="M109.559,266.031c0-29.552,0-59.103,0-88.654c0-4.514-7-4.514-7,0c0,29.552,0,59.103,0,88.654
					C102.559,270.545,109.559,270.545,109.559,266.031L109.559,266.031z"/>
			</g>
		</g>
		<g>
			<g>
				<path style="fill:#FFFFFF;" d="M119.142,256.891c0-29.552,0-59.104,0-88.655c0-4.514-7-4.514-7,0c0,29.552,0,59.104,0,88.655
					C112.142,261.404,119.142,261.404,119.142,256.891L119.142,256.891z"/>
			</g>
		</g>
		<g>
			<g>
				<path style="fill:#FFFFFF;" d="M99.011,191.866c9.917-10,19.833-20,29.75-30c4.543-4.582-2.526-11.655-7.071-7.071
					c-9.917,10-19.833,20-29.75,30C87.396,189.377,94.465,196.45,99.011,191.866L99.011,191.866z"/>
			</g>
		</g>
		<g>
			<g>
				<path style="fill:#FFFFFF;" d="M99.011,281.193c9.917-10,19.833-20,29.75-30c4.543-4.581-2.526-11.654-7.071-7.07
					c-9.917,10-19.833,20-29.75,30C87.396,278.704,94.465,285.777,99.011,281.193L99.011,281.193z"/>
			</g>
		</g>
		<g>
			<g>
				<path style="fill:#FFFFFF;" d="M128.725,247.891c0-29.552,0-59.104,0-88.655c0-4.514-7-4.514-7,0c0,29.552,0,59.104,0,88.655
					C121.725,252.404,128.725,252.404,128.725,247.891L128.725,247.891z"/>
			</g>
		</g>
	</g>
</g>
<g id="Ebene_1">
</g>
</svg>
