<?xml version="1.0" encoding="iso-8859-1"?>
<!-- Generator: Adobe Illustrator 16.0.0, SVG Export Plug-In . SVG Version: 6.00 Build 0)  -->
<!DOCTYPE svg PUBLIC "-//W3C//DTD SVG 1.1//EN" "http://www.w3.org/Graphics/SVG/1.1/DTD/svg11.dtd">
<svg version="1.1" xmlns="http://www.w3.org/2000/svg" xmlns:xlink="http://www.w3.org/1999/xlink" x="0px" y="0px" width="361px"
	 height="361px" viewBox="0 0 361 361" style="enable-background:new 0 0 361 361;" xml:space="preserve">
<g id="fts_x5F_blade_x5F_arc_x5F_50">
	<g>
		<g>
			<g>
				<path style="fill:#FFFFFF;" d="M126.012,257.926c23.067-42.576,68.387-68.218,116.768-66.04c6.449,0.29,6.422-9.711,0-10
					c-51.723-2.328-100.753,25.496-125.402,70.993C114.305,258.549,122.939,263.597,126.012,257.926L126.012,257.926z"/>
			</g>
		</g>
		<g>
			<g>
				<path style="fill:#FFFFFF;" d="M119.073,250.743c-0.421,0.744-0.843,1.488-1.265,2.231c-1.467,2.587-0.631,5.946,1.957,7.462
					c2.539,1.487,5.998,0.626,7.462-1.956c0.421-0.744,0.843-1.488,1.265-2.231c1.467-2.587,0.631-5.946-1.957-7.462
					C123.997,247.3,120.538,248.161,119.073,250.743L119.073,250.743z"/>
			</g>
		</g>
		<g>
			<g>
				<path style="fill:#FFFFFF;" d="M242.624,182.185c-0.854,0.045-1.707,0.09-2.561,0.135c-1.474,0.078-2.795,0.535-3.856,1.598
					c-1.019,1.019-1.598,2.416-1.598,3.856c0,2.854,2.482,5.61,5.454,5.454c0.854-0.045,1.707-0.09,2.561-0.135
					c1.474-0.078,2.795-0.535,3.856-1.598c1.019-1.019,1.598-2.416,1.598-3.856C248.078,184.784,245.596,182.028,242.624,182.185
					L242.624,182.185z"/>
			</g>
		</g>
	</g>
	<g>
		<g>
			<path style="fill:#FFFFFF;" d="M178.833,71.667c0,5.416,0,10.832,0,16.248c0,1.935,3,1.935,3,0c0-5.416,0-10.832,0-16.248
				C181.833,69.732,178.833,69.732,178.833,71.667L178.833,71.667z"/>
		</g>
	</g>
	<g>
		<g>
			<path style="fill:#FFFFFF;" d="M179,142.989c0,7.612,0,15.225,0,22.837c0,1.935,3,1.935,3,0c0-7.612,0-15.225,0-22.837
				C182,141.055,179,141.055,179,142.989L179,142.989z"/>
		</g>
	</g>
	<g>
		<g>
			<path style="fill:#FFFFFF;" d="M179,217.986c0,23.894,0,47.787,0,71.681c0,1.935,3,1.935,3,0c0-23.894,0-47.787,0-71.681
				C182,216.052,179,216.052,179,217.986L179,217.986z"/>
		</g>
	</g>
	<g>
		<g>
			<g>
				<path style="fill:#FFFFFF;" d="M124.803,177.688c23.067-42.577,68.387-68.218,116.768-66.04c6.449,0.291,6.422-9.711,0-10
					c-51.723-2.328-100.753,25.496-125.402,70.993C113.096,178.312,121.73,183.359,124.803,177.688L124.803,177.688z"/>
			</g>
		</g>
		<g>
			<g>
				<path style="fill:#FFFFFF;" d="M117.864,170.506c-0.421,0.744-0.843,1.488-1.265,2.231c-1.467,2.587-0.631,5.946,1.957,7.462
					c2.539,1.487,5.998,0.625,7.462-1.957c0.421-0.744,0.843-1.488,1.265-2.231c1.467-2.587,0.631-5.946-1.957-7.462
					C122.788,167.062,119.329,167.924,117.864,170.506L117.864,170.506z"/>
			</g>
		</g>
		<g>
			<g>
				<path style="fill:#FFFFFF;" d="M241.415,101.947c-0.854,0.045-1.707,0.09-2.561,0.135c-1.474,0.078-2.795,0.536-3.856,1.598
					c-1.019,1.018-1.598,2.416-1.598,3.856c0,2.855,2.482,5.61,5.454,5.454c0.854-0.045,1.707-0.09,2.561-0.135
					c1.474-0.078,2.795-0.536,3.856-1.598c1.019-1.018,1.598-2.416,1.598-3.856C246.869,104.546,244.387,101.791,241.415,101.947
					L241.415,101.947z"/>
			</g>
		</g>
	</g>
	<g>
		<g>
			<path style="fill:#FFFFFF;" d="M179,134c0,7.612,0,15.225,0,22.837c0,1.935,3,1.935,3,0c0-7.612,0-15.225,0-22.837
				C182,132.066,179,132.066,179,134L179,134z"/>
		</g>
	</g>
</g>
<g id="Ebene_1">
</g>
</svg>
