<?xml version="1.0" encoding="iso-8859-1"?>
<!-- Generator: Adobe Illustrator 16.0.0, SVG Export Plug-In . SVG Version: 6.00 Build 0)  -->
<!DOCTYPE svg PUBLIC "-//W3C//DTD SVG 1.1//EN" "http://www.w3.org/Graphics/SVG/1.1/DTD/svg11.dtd">
<svg version="1.1" xmlns="http://www.w3.org/2000/svg" xmlns:xlink="http://www.w3.org/1999/xlink" x="0px" y="0px" width="361px"
	 height="361px" viewBox="0 0 361 361" style="enable-background:new 0 0 361 361;" xml:space="preserve">
<g id="fts_x5F_blade_x5F_s_x5F_100">
	<g>
		<g>
			<path style="fill:#FFFFFF;" d="M178.833,70.667c0,14.222,0,28.445,0,42.667c0,1.935,3,1.935,3,0c0-14.222,0-28.445,0-42.667
				C181.833,68.732,178.833,68.732,178.833,70.667L178.833,70.667z"/>
		</g>
	</g>
	<g>
		<g>
			<path style="fill:#FFFFFF;" d="M179,154.082c0,13.55,0,27.1,0,40.651c0,1.935,3,1.935,3,0c0-13.551,0-27.101,0-40.651
				C182,152.147,179,152.147,179,154.082L179,154.082z"/>
		</g>
	</g>
	<g>
		<g>
			<path style="fill:#FFFFFF;" d="M179,247.334c0,14.111,0,28.222,0,42.333c0,1.935,3,1.935,3,0c0-14.111,0-28.222,0-42.333
				C182,245.399,179,245.399,179,247.334L179,247.334z"/>
		</g>
	</g>
	<g style="display:none;">
		<g style="display:inline;">
			<g>
				<path style="fill:#FFFFFF;" d="M210.117,134.19c0,9.159,0,18.318,0,27.477c0,1.935,3,1.935,3,0c0-9.159,0-18.318,0-27.477
					C213.117,132.256,210.117,132.256,210.117,134.19L210.117,134.19z"/>
			</g>
		</g>
		<g style="display:inline;">
			<g>
				<path style="fill:#FFFFFF;" d="M210.236,198c0,10.444,0,20.89,0,31.334c0,1.935,3,1.935,3,0c0-10.444,0-20.89,0-31.334
					C213.236,196.065,210.236,196.065,210.236,198L210.236,198z"/>
			</g>
		</g>
		<g style="display:inline;">
			<g>
				<path style="fill:#FFFFFF;" d="M210.236,262c0,9.171,0,18.341,0,27.512c0,1.935,3,1.935,3,0c0-9.171,0-18.341,0-27.512
					C213.236,260.065,210.236,260.065,210.236,262L210.236,262z"/>
			</g>
		</g>
	</g>
	<g>
		<g>
			<g>
				<path style="fill:#FFFFFF;" d="M170.557,286.869c-1.76-15.494-3.73-30.848,0.355-46.158c2.591-9.712,7.519-18.568,13.079-26.868
					c5.834-8.709,10.609-18.002,13.791-28.007c3.662-11.517,4.19-23.559,2.245-35.421c-0.121-0.733-0.721-4.442-0.547-3.047
					c-0.042-0.333-0.057-0.666-0.043-1.001c-0.157,2.472-1.649,3.914-4.479,4.325c-1.043,0.085-3.571-1.387-0.152,0.436
					c6.606,3.523,15.87,10.655,22.855,4.188c4.742-4.39-2.347-11.444-7.07-7.071c0.907-0.224,0.71-0.393-0.593-0.508
					c-0.91-0.3-1.787-0.679-2.629-1.138c-2.564-1.244-5.021-2.733-7.517-4.105c-1.824-1.003-4.159-2.399-6.354-1.612
					c-4.176,1.498-4.274,5.149-3.693,8.853c1.728,11.004,1.774,21.265-1.273,32.129c-2.91,10.371-8.306,19.663-14.26,28.551
					c-5.682,8.482-10.184,17.819-13.004,27.639c-4.611,16.058-2.563,32.53-0.712,48.817
					C161.276,293.2,171.284,293.271,170.557,286.869L170.557,286.869z"/>
			</g>
		</g>
		<g>
			<g>
				<path style="fill:#FFFFFF;" d="M160.742,284.113c0.075,0.853,0.149,1.704,0.224,2.557c0.131,1.492,0.507,2.767,1.598,3.856
					c1.018,1.019,2.416,1.598,3.856,1.598s2.838-0.579,3.856-1.598c0.945-0.945,1.718-2.479,1.598-3.856
					c-0.075-0.853-0.149-1.704-0.224-2.557c-0.131-1.492-0.507-2.767-1.598-3.856c-1.018-1.019-2.416-1.598-3.856-1.598
					s-2.838,0.579-3.856,1.598C161.395,281.202,160.622,282.736,160.742,284.113L160.742,284.113z"/>
			</g>
		</g>
		<g>
			<g>
				<path style="fill:#FFFFFF;" d="M211.647,149.221c-0.564,0.643-1.129,1.286-1.693,1.929c-0.754,0.858-1.23,1.8-1.23,2.97
					c0,1.109,0.446,2.186,1.23,2.97c1.539,1.54,4.429,1.722,5.939,0c0.564-0.643,1.129-1.286,1.693-1.929
					c0.754-0.858,1.23-1.8,1.23-2.97c0-1.109-0.446-2.186-1.23-2.97C216.048,147.682,213.158,147.5,211.647,149.221L211.647,149.221
					z"/>
			</g>
		</g>
	</g>
	<g>
		<g>
			<g>
				<path style="fill:#FFFFFF;" d="M170.309,215.34c-1.761-15.494-3.731-30.849,0.354-46.159c2.592-9.712,7.52-18.568,13.08-26.868
					c5.834-8.708,10.609-18.002,13.791-28.006c3.662-11.517,4.19-23.559,2.245-35.421c-0.121-0.733-0.721-4.442-0.547-3.048
					c-0.042-0.333-0.057-0.666-0.043-1.001c-0.157,2.472-1.649,3.914-4.479,4.325c-1.042,0.085-3.572-1.387-0.152,0.436
					c6.606,3.523,15.87,10.656,22.854,4.188c4.741-4.39-2.348-11.445-7.07-7.071c0.907-0.224,0.71-0.393-0.592-0.508
					c-0.91-0.301-1.787-0.68-2.629-1.138c-2.564-1.244-5.021-2.733-7.517-4.105c-1.824-1.003-4.159-2.399-6.354-1.612
					c-4.176,1.499-4.274,5.149-3.693,8.853c1.728,11.005,1.774,21.265-1.273,32.128c-2.91,10.372-8.306,19.664-14.26,28.551
					c-5.683,8.482-10.185,17.82-13.004,27.639c-4.611,16.057-2.563,32.531-0.712,48.818
					C161.028,221.671,171.036,221.741,170.309,215.34L170.309,215.34z"/>
			</g>
		</g>
		<g>
			<g>
				<path style="fill:#FFFFFF;" d="M160.495,212.585c0.075,0.852,0.149,1.704,0.224,2.556c0.131,1.492,0.507,2.767,1.598,3.856
					c1.018,1.019,2.416,1.598,3.856,1.598s2.838-0.579,3.856-1.598c0.945-0.945,1.718-2.479,1.598-3.856
					c-0.075-0.852-0.149-1.704-0.224-2.556c-0.131-1.492-0.507-2.767-1.598-3.856c-1.018-1.019-2.416-1.598-3.856-1.598
					s-2.838,0.579-3.856,1.598C161.147,209.674,160.375,211.208,160.495,212.585L160.495,212.585z"/>
			</g>
		</g>
		<g>
			<g>
				<path style="fill:#FFFFFF;" d="M211.399,77.692c-0.564,0.642-1.128,1.284-1.692,1.927c-0.754,0.858-1.23,1.8-1.23,2.97
					c0,1.109,0.446,2.186,1.23,2.97c1.54,1.54,4.428,1.721,5.939,0c0.564-0.642,1.128-1.284,1.692-1.927
					c0.754-0.858,1.23-1.8,1.23-2.97c0-1.109-0.446-2.186-1.23-2.97C215.799,76.152,212.911,75.971,211.399,77.692L211.399,77.692z"
					/>
			</g>
		</g>
	</g>
</g>
<g id="Ebene_1">
</g>
</svg>
