<?xml version="1.0" encoding="iso-8859-1"?>
<!-- Generator: Adobe Illustrator 16.0.0, SVG Export Plug-In . SVG Version: 6.00 Build 0)  -->
<!DOCTYPE svg PUBLIC "-//W3C//DTD SVG 1.1 Tiny//EN" "http://www.w3.org/Graphics/SVG/1.1/DTD/svg11-tiny.dtd">
<svg version="1.1" baseProfile="tiny" id="fts_x5F_door_x5F_slide_x5F_2w_x5F_open_x5F_lr"
	 xmlns="http://www.w3.org/2000/svg" xmlns:xlink="http://www.w3.org/1999/xlink" x="0px" y="0px" width="361px" height="361px"
	 viewBox="0 0 361 361" xml:space="preserve">
<g>
	<path fill="none" stroke="#FFFFFF" stroke-width="10" stroke-miterlimit="10" d="M272.673,283.809c0,3.406-2.712,6.167-6.058,6.167
		h-57.89c-3.346,0-6.058-2.761-6.058-6.167V96.712c0-3.406,2.712-6.167,6.058-6.167h57.89c3.346,0,6.058,2.761,6.058,6.167V283.809z
		"/>
	<g>
		<path fill="#FFFFFF" d="M204.667,188.563c3.333,0,6.667,0,10,0c6.449,0,6.449-10,0-10c-3.333,0-6.667,0-10,0
			C198.218,178.563,198.218,188.563,204.667,188.563L204.667,188.563z"/>
	</g>
</g>
<path fill="none" stroke="#FFFFFF" stroke-width="10" stroke-miterlimit="10" d="M284.336,83.545c0-3.314,0.313-6-3-6H75.003
	c-3.313,0-3,2.686-3,6v0.667c0,3.313-0.313,6,3,6h206.333c3.313,0,3-2.687,3-6V83.545z"/>
<g>
	<path fill="none" stroke="#FFFFFF" stroke-width="10" stroke-miterlimit="10" d="M82.666,283.809c0,3.406,2.712,6.167,6.058,6.167
		h57.89c3.346,0,6.058-2.761,6.058-6.167V96.712c0-3.406-2.712-6.167-6.058-6.167h-57.89c-3.346,0-6.058,2.761-6.058,6.167V283.809z
		"/>
	<g>
		<path fill="#FFFFFF" d="M150.672,178.563c-3.333,0-6.667,0-10,0c-6.449,0-6.449,10,0,10c3.333,0,6.667,0,10,0
			C157.121,188.563,157.121,178.563,150.672,178.563L150.672,178.563z"/>
	</g>
</g>
</svg>
