<?xml version="1.0" encoding="iso-8859-1"?>
<!-- Generator: Adobe Illustrator 16.0.0, SVG Export Plug-In . SVG Version: 6.00 Build 0)  -->
<!DOCTYPE svg PUBLIC "-//W3C//DTD SVG 1.1//EN" "http://www.w3.org/Graphics/SVG/1.1/DTD/svg11.dtd">
<svg version="1.1" xmlns="http://www.w3.org/2000/svg" xmlns:xlink="http://www.w3.org/1999/xlink" x="0px" y="0px" width="361px"
	 height="361px" viewBox="0 0 361 361" style="enable-background:new 0 0 361 361;" xml:space="preserve">
<g id="fts_x5F_sliding_x5F_gate_x5F_l_x5F_closed">
	<g>
		<g>
			<path style="fill:#FFFFFF;" d="M252.481,165.846c0,3.491,2.831,6.321,6.321,6.321h12.116c3.491,0,6.321-2.831,6.321-6.321
				v-11.589c0-3.491-2.83-6.321-6.321-6.321h-12.116c-3.49,0-6.321,2.83-6.321,6.321V165.846z"/>
			<path style="fill:#FFFFFF;" d="M138.699,165.846c0,3.491,2.831,6.321,6.321,6.321h12.116c3.491,0,6.321-2.831,6.321-6.321
				v-11.589c0-3.491-2.83-6.321-6.321-6.321H145.02c-3.491,0-6.321,2.83-6.321,6.321V165.846z"/>
			<path style="fill:#FFFFFF;" d="M142.123,104.002v-0.664l5.007-19.54c0.488-7.432,8.013-13.655,14.21-13.655h93.9
				c6.197,0,13.721,6.223,14.209,13.655l5.007,19.54v0.664c0,8.084-4.939,14.417-11.245,14.417H153.368
				C147.063,118.418,142.123,112.086,142.123,104.002z M263.902,104.593l-4.963-19.368v-0.665c0-1.655-2.627-3.735-3.699-3.881
				l-93.813-0.004c-1.159,0.149-3.787,2.229-3.787,3.885v0.665l-4.963,19.368c0.115,1.777,0.732,2.894,1.09,3.29h109.045
				C263.17,107.487,263.786,106.371,263.902,104.593z"/>
			<path style="fill:#FFFFFF;" d="M134.134,118.42c0-3.086,2.928-5.589,6.538-5.589h135.123c3.61,0,6.538,2.502,6.538,5.589v29.194
				c0,3.085-2.928,5.589-6.538,5.589H140.672c-3.61,0-6.538-2.503-6.538-5.589V118.42z M247.478,130.168
				c0,2.735,2.83,4.953,6.321,4.953h18.174c3.491,0,6.321-2.217,6.321-4.953v-5.16c0-2.735-2.83-4.953-6.321-4.953h-18.174
				c-3.491,0-6.321,2.218-6.321,4.953V130.168z M138.436,130.168c0,2.735,2.831,4.953,6.321,4.953h18.174
				c3.491,0,6.321-2.217,6.321-4.953v-5.16c0-2.735-2.831-4.953-6.321-4.953h-18.174c-3.491,0-6.321,2.218-6.321,4.953V130.168z
				 M180.841,135.406c0,5.319,2.83,9.633,6.321,9.633h42.668c3.491,0,6.322-4.313,6.322-9.633v-6.02c0-5.32-2.831-9.633-6.322-9.633
				h-42.668c-3.491,0-6.321,4.313-6.321,9.633V135.406z"/>
		</g>
		<rect x="173.729" y="122.65" style="fill:#FFFFFF;" width="69.534" height="10.536"/>
		<rect x="172.676" y="136.346" style="fill:#FFFFFF;" width="69.534" height="10.536"/>
	</g>
	<g>
		<g>
			<path style="fill:#FFFFFF;" d="M83.498,179.472c0,35.047,0,70.094,0,105.141c0,9.686,15.003,9.771,15.003,0.107
				c0-35.047,0-70.094,0-105.14C98.5,169.894,83.498,169.809,83.498,179.472L83.498,179.472z"/>
		</g>
	</g>
	<g>
		<g>
			<path style="fill:#FFFFFF;" d="M88.999,291.834c49.292,0,98.583,0,147.874,0c16.986,0,33.973,0,50.959,0c1.935,0,1.935-3,0-3
				c-49.291,0-98.583,0-147.874,0c-16.986,0-33.973,0-50.959,0C87.064,288.834,87.064,291.834,88.999,291.834L88.999,291.834z"/>
		</g>
	</g>
	<g>
		<g>
			<g>
				<path style="fill:#FFFFFF;" d="M269.749,192.198c0,29.552,0,59.103,0,88.654c0,6.448,10,6.448,10,0c0-29.552,0-59.103,0-88.654
					C279.749,185.75,269.749,185.75,269.749,192.198L269.749,192.198z"/>
			</g>
		</g>
		<g>
			<g>
				<path style="fill:#FFFFFF;" d="M245.832,192.293c0,29.552,0,59.104,0,88.655c0,6.448,10,6.448,10,0c0-29.552,0-59.104,0-88.655
					C255.832,185.845,245.832,185.845,245.832,192.293L245.832,192.293z"/>
			</g>
		</g>
		<g>
			<g>
				<path style="fill:#FFFFFF;" d="M221.916,192.293c0,29.552,0,59.104,0,88.655c0,6.448,10,6.448,10,0c0-29.552,0-59.104,0-88.655
					C231.916,185.845,221.916,185.845,221.916,192.293L221.916,192.293z"/>
			</g>
		</g>
		<g>
			<g>
				<path style="fill:#FFFFFF;" d="M174.082,192.293c0,29.552,0,59.104,0,88.655c0,6.448,10,6.448,10,0c0-29.552,0-59.104,0-88.655
					C184.082,185.845,174.082,185.845,174.082,192.293L174.082,192.293z"/>
			</g>
		</g>
		<g>
			<g>
				<path style="fill:#FFFFFF;" d="M150.166,192.198c0,29.552,0,59.103,0,88.654c0,6.448,10,6.448,10,0c0-29.552,0-59.103,0-88.654
					C160.166,185.75,150.166,185.75,150.166,192.198L150.166,192.198z"/>
			</g>
		</g>
		<g>
			<g>
				<path style="fill:#FFFFFF;" d="M126.249,192.293c0,29.552,0,59.104,0,88.655c0,6.448,10,6.448,10,0c0-29.552,0-59.104,0-88.655
					C136.249,185.845,126.249,185.845,126.249,192.293L126.249,192.293z"/>
			</g>
		</g>
		<g>
			<g>
				<path style="fill:#FFFFFF;" d="M102.332,192.293c0,29.552,0,59.104,0,88.655c0,6.448,10,6.448,10,0c0-29.552,0-59.104,0-88.655
					C112.332,185.845,102.332,185.845,102.332,192.293L102.332,192.293z"/>
			</g>
		</g>
		<g>
			<g>
				<path style="fill:#FFFFFF;" d="M274.749,275.853c-49.657,0-99.315,0-148.973,0c-6.148,0-12.296,0-18.444,0
					c-6.449,0-6.449,10,0,10c49.658,0,99.315,0,148.973,0c6.148,0,12.297,0,18.444,0
					C281.197,285.853,281.197,275.853,274.749,275.853L274.749,275.853z"/>
			</g>
		</g>
		<g>
			<g>
				<path style="fill:#FFFFFF;" d="M274.749,186.525c-49.657,0-99.315,0-148.973,0c-6.148,0-12.296,0-18.444,0
					c-6.449,0-6.449,10,0,10c49.658,0,99.315,0,148.973,0c6.148,0,12.297,0,18.444,0
					C281.197,196.525,281.197,186.525,274.749,186.525L274.749,186.525z"/>
			</g>
		</g>
		<g>
			<g>
				<path style="fill:#FFFFFF;" d="M197.999,192.293c0,29.552,0,59.104,0,88.655c0,6.448,10,6.448,10,0c0-29.552,0-59.104,0-88.655
					C207.999,185.845,197.999,185.845,197.999,192.293L197.999,192.293z"/>
			</g>
		</g>
	</g>
	<g>
		<g>
			<path style="fill:#FFFFFF;" d="M282.832,191.525c0,31.797,0,63.595,0,95.392c0,6.448,10,6.448,10,0c0-31.797,0-63.595,0-95.392
				C292.832,185.077,282.832,185.077,282.832,191.525L282.832,191.525z"/>
		</g>
	</g>
</g>
<g id="Ebene_1">
</g>
</svg>
