<?xml version="1.0" encoding="iso-8859-1"?>
<!-- Generator: Adobe Illustrator 16.0.0, SVG Export Plug-In . SVG Version: 6.00 Build 0)  -->
<!DOCTYPE svg PUBLIC "-//W3C//DTD SVG 1.1 Tiny//EN" "http://www.w3.org/Graphics/SVG/1.1/DTD/svg11-tiny.dtd">
<svg version="1.1" baseProfile="tiny" id="fts_x5F_shutter_x5F_down"
	 xmlns="http://www.w3.org/2000/svg" xmlns:xlink="http://www.w3.org/1999/xlink" x="0px" y="0px" width="361px" height="361px"
	 viewBox="0 0 361 361" xml:space="preserve">
<path fill="none" stroke="#FFFFFF" stroke-width="10" stroke-miterlimit="10" d="M236.231,190.865c0,2.916-2.364,5.28-5.28,5.28
	H83.112c-2.916,0-5.28-2.364-5.28-5.28v-95.04c0-2.916,2.364-5.28,5.28-5.28h147.84c2.916,0,5.28,2.364,5.28,5.28V190.865z"/>
<g>
	<path fill="#FFFFFF" d="M152.588,148.221c3.148,0,6.295,0,9.443,0c6.449,0,6.449-10,0-10c-3.148,0-6.295,0-9.443,0
		C146.14,138.221,146.14,148.221,152.588,148.221L152.588,148.221z"/>
</g>
<line fill="none" stroke="#FFFFFF" stroke-width="10" stroke-miterlimit="10" x1="157.208" y1="90.794" x2="157.208" y2="193.53"/>
<path fill="#FFFFFF" stroke="#FFFFFF" stroke-width="10" stroke-miterlimit="10" d="M241.965,91.649
	c0,0.407-2.531,0.738-5.653,0.738H78.018c-3.122,0-5.653-0.331-5.653-0.738V78.374c0-0.407,2.531-0.738,5.653-0.738h158.293
	c3.123,0,5.653,0.331,5.653,0.738V91.649z"/>
<g>
	<path fill="#FFFFFF" d="M72.631,106.044c49.739,0,99.478,0.001,149.216,0.002c6.75,0,13.5,0,20.25,0c4.514,0,4.514-7,0-7
		c-49.739,0-99.478-0.001-149.216-0.002c-6.75,0-13.5,0-20.25,0C68.117,99.044,68.117,106.044,72.631,106.044L72.631,106.044z"/>
</g>
<g>
	<path fill="#FFFFFF" d="M72.631,116.444c49.739,0,99.478,0.001,149.216,0.002c6.75,0,13.5,0,20.25,0c4.514,0,4.514-7,0-7
		c-49.739,0-99.478-0.001-149.216-0.002c-6.75,0-13.5,0-20.25,0C68.117,109.444,68.117,116.444,72.631,116.444L72.631,116.444z"/>
</g>
<path fill="none" stroke="#FFFFFF" stroke-width="10" stroke-miterlimit="10" d="M218.459,236.636c-1.464,0-2.651-0.371-2.651-0.827
	v-14.345c0-0.457,1.188-0.828,2.651-0.828h51.698c1.464,0,2.65,0.371,2.65,0.828v14.345c0,0.457-1.187,0.827-2.65,0.827H218.459z"/>
<g>
	<path fill="#FFFFFF" d="M279.773,234.467c-13.375,17.5-26.75,35-40.126,52.5c2.878,0,5.756,0,8.635,0
		c-13.375-17.5-26.75-35-40.125-52.5c-1.439,2.508-2.878,5.016-4.317,7.523c26.75,0,53.5,0,80.251,0c6.449,0,6.449-10,0-10
		c-26.75,0-53.5,0-80.251,0c-3.435,0-6.707,4.397-4.317,7.523c13.375,17.5,26.75,35,40.125,52.5c2.429,3.178,6.206,3.178,8.635,0
		c13.375-17.5,26.75-35,40.126-52.5C292.325,234.389,283.633,229.417,279.773,234.467z"/>
</g>
</svg>
