<?xml version="1.0" encoding="iso-8859-1"?>
<!-- Generator: Adobe Illustrator 16.0.0, SVG Export Plug-In . SVG Version: 6.00 Build 0)  -->
<!DOCTYPE svg PUBLIC "-//W3C//DTD SVG 1.1//EN" "http://www.w3.org/Graphics/SVG/1.1/DTD/svg11.dtd">
<svg version="1.1" xmlns="http://www.w3.org/2000/svg" xmlns:xlink="http://www.w3.org/1999/xlink" x="0px" y="0px" width="361px"
	 height="361px" viewBox="0 0 361 361" style="enable-background:new 0 0 361 361;" xml:space="preserve">
<g id="fts_x5F_blade_x5F_s_x5F_50">
	<g>
		<g>
			<path style="fill:#FFFFFF;" d="M178.833,70.667c0,14.222,0,28.445,0,42.667c0,1.935,3,1.935,3,0c0-14.222,0-28.445,0-42.667
				C181.833,68.732,178.833,68.732,178.833,70.667L178.833,70.667z"/>
		</g>
	</g>
	<g>
		<g>
			<path style="fill:#FFFFFF;" d="M179,154.082c0,13.55,0,27.1,0,40.651c0,1.935,3,1.935,3,0c0-13.551,0-27.101,0-40.651
				C182,152.147,179,152.147,179,154.082L179,154.082z"/>
		</g>
	</g>
	<g>
		<g>
			<path style="fill:#FFFFFF;" d="M179,237.334c0,17.444,0,34.889,0,52.333c0,1.935,3,1.935,3,0c0-17.444,0-34.889,0-52.333
				C182,235.399,179,235.399,179,237.334L179,237.334z"/>
		</g>
	</g>
	<g style="display:none;">
		<g style="display:inline;">
			<g>
				<path style="fill:#FFFFFF;" d="M210.117,134.19c0,9.159,0,18.318,0,27.477c0,1.935,3,1.935,3,0c0-9.159,0-18.318,0-27.477
					C213.117,132.256,210.117,132.256,210.117,134.19L210.117,134.19z"/>
			</g>
		</g>
		<g style="display:inline;">
			<g>
				<path style="fill:#FFFFFF;" d="M210.236,198c0,10.444,0,20.89,0,31.334c0,1.935,3,1.935,3,0c0-10.444,0-20.89,0-31.334
					C213.236,196.065,210.236,196.065,210.236,198L210.236,198z"/>
			</g>
		</g>
		<g style="display:inline;">
			<g>
				<path style="fill:#FFFFFF;" d="M210.236,262c0,9.171,0,18.341,0,27.512c0,1.935,3,1.935,3,0c0-9.171,0-18.341,0-27.512
					C213.236,260.065,210.236,260.065,210.236,262L210.236,262z"/>
			</g>
		</g>
	</g>
	<g>
		<g>
			<g>
				<path style="fill:#FFFFFF;" d="M132.19,262.941c7.639-14.059,15.004-27.841,27.593-38.154
					c8.138-6.666,17.879-10.719,27.532-14.608c8.904-3.589,17.35-8.188,24.925-14.104c9.271-7.241,16.713-16.32,21.796-26.93
					c0.578-1.207,1.116-2.432,1.723-3.625c0.235-0.463,1.126-1.591-0.055-0.151c1.4-1.39-0.38-1.206-5.341,0.55
					c-1.542-0.725-1.86-2.176-1.281-1.131c4.021,7.268,6.951,19.079,17.39,17.648c6.365-0.873,3.645-10.507-2.658-9.643
					c1.197-0.165-1.689-4.175-2.188-5.135c-1.357-2.61-2.575-5.293-3.908-7.917c-0.701-1.38-2.133-2.722-3.7-3.027
					c-4.063-0.791-6.148,2.124-7.652,5.33c-4.864,10.37-11.247,18.966-20.23,26.207c-7.8,6.285-17.085,10.613-26.36,14.201
					c-9.775,3.78-18.839,8.765-27.061,15.266c-13.304,10.519-21.219,25.569-29.157,40.178
					C120.477,263.562,129.111,268.608,132.19,262.941L132.19,262.941z"/>
			</g>
		</g>
		<g>
			<g>
				<path style="fill:#FFFFFF;" d="M125.269,255.773c-0.428,0.741-0.855,1.481-1.283,2.222c-1.487,2.575-0.616,5.955,1.957,7.462
					c2.555,1.497,5.978,0.614,7.462-1.956c0.428-0.741,0.855-1.481,1.283-2.222c1.487-2.575,0.616-5.955-1.957-7.462
					C130.177,252.32,126.754,253.203,125.269,255.773L125.269,255.773z"/>
			</g>
		</g>
		<g>
			<g>
				<path style="fill:#FFFFFF;" d="M244.193,174.184c-0.831,0.202-1.662,0.405-2.493,0.607c-2.225,0.542-3.527,3.01-2.934,5.167
					c0.62,2.255,2.943,3.475,5.166,2.934c0.831-0.203,1.662-0.405,2.493-0.607c2.225-0.542,3.527-3.01,2.934-5.167
					C248.739,174.863,246.416,173.643,244.193,174.184L244.193,174.184z"/>
			</g>
		</g>
	</g>
	<g>
		<g>
			<g>
				<path style="fill:#FFFFFF;" d="M131.942,191.41c7.639-14.058,15.004-27.839,27.593-38.151
					c8.138-6.667,17.879-10.72,27.532-14.609c8.904-3.588,17.35-8.188,24.924-14.104c9.271-7.242,16.713-16.32,21.796-26.929
					c0.578-1.207,1.117-2.432,1.724-3.625c0.235-0.463,1.125-1.59-0.056-0.151c1.401-1.389-0.379-1.206-5.34,0.551
					c-1.542-0.725-1.86-2.176-1.281-1.131c4.023,7.268,6.95,19.079,17.39,17.647c6.365-0.873,3.645-10.507-2.658-9.643
					c1.197-0.165-1.689-4.175-2.188-5.135c-1.357-2.61-2.575-5.293-3.908-7.917c-0.701-1.381-2.134-2.722-3.701-3.027
					c-4.063-0.792-6.148,2.124-7.652,5.329c-4.864,10.37-11.246,18.966-20.229,26.206c-7.8,6.286-17.085,10.613-26.36,14.201
					c-9.775,3.781-18.839,8.766-27.062,15.266c-13.304,10.519-21.218,25.568-29.156,40.176
					C120.228,192.03,128.863,197.077,131.942,191.41L131.942,191.41z"/>
			</g>
		</g>
		<g>
			<g>
				<path style="fill:#FFFFFF;" d="M125.02,184.247c-0.427,0.74-0.854,1.479-1.281,2.219c-1.487,2.576-0.616,5.955,1.957,7.462
					c2.555,1.497,5.978,0.614,7.462-1.956c0.427-0.74,0.854-1.479,1.281-2.219c1.487-2.576,0.616-5.955-1.957-7.462
					C129.928,180.794,126.504,181.677,125.02,184.247L125.02,184.247z"/>
			</g>
		</g>
		<g>
			<g>
				<path style="fill:#FFFFFF;" d="M243.944,102.656c-0.831,0.203-1.661,0.406-2.491,0.609c-2.224,0.543-3.527,3.008-2.934,5.167
					c0.62,2.253,2.944,3.477,5.166,2.933c0.831-0.203,1.661-0.406,2.491-0.609c2.224-0.543,3.527-3.008,2.934-5.167
					C248.49,103.335,246.166,102.112,243.944,102.656L243.944,102.656z"/>
			</g>
		</g>
	</g>
</g>
<g id="Ebene_1">
</g>
</svg>
