<?xml version="1.0" encoding="iso-8859-1"?>
<!-- Generator: Adobe Illustrator 16.0.0, SVG Export Plug-In . SVG Version: 6.00 Build 0)  -->
<!DOCTYPE svg PUBLIC "-//W3C//DTD SVG 1.1//EN" "http://www.w3.org/Graphics/SVG/1.1/DTD/svg11.dtd">
<svg version="1.1" xmlns="http://www.w3.org/2000/svg" xmlns:xlink="http://www.w3.org/1999/xlink" x="0px" y="0px" width="361px"
	 height="361px" viewBox="0 0 361 361" style="enable-background:new 0 0 361 361;" xml:space="preserve">
<g id="fts_x5F_blade_x5F_s_x5F_30">
	<g>
		<g>
			<path style="fill:#FFFFFF;" d="M178.833,70.667c0,14.222,0,28.445,0,42.667c0,1.935,3,1.935,3,0c0-14.222,0-28.445,0-42.667
				C181.833,68.732,178.833,68.732,178.833,70.667L178.833,70.667z"/>
		</g>
	</g>
	<g>
		<g>
			<path style="fill:#FFFFFF;" d="M179,154.082c0,13.55,0,27.1,0,40.651c0,1.935,3,1.935,3,0c0-13.551,0-27.101,0-40.651
				C182,152.147,179,152.147,179,154.082L179,154.082z"/>
		</g>
	</g>
	<g>
		<g>
			<path style="fill:#FFFFFF;" d="M179,237.334c0,17.444,0,34.889,0,52.333c0,1.935,3,1.935,3,0c0-17.444,0-34.889,0-52.333
				C182,235.399,179,235.399,179,237.334L179,237.334z"/>
		</g>
	</g>
	<g style="display:none;">
		<g style="display:inline;">
			<g>
				<path style="fill:#FFFFFF;" d="M210.117,134.19c0,9.159,0,18.318,0,27.477c0,1.935,3,1.935,3,0c0-9.159,0-18.318,0-27.477
					C213.117,132.256,210.117,132.256,210.117,134.19L210.117,134.19z"/>
			</g>
		</g>
		<g style="display:inline;">
			<g>
				<path style="fill:#FFFFFF;" d="M210.236,198c0,10.444,0,20.89,0,31.334c0,1.935,3,1.935,3,0c0-10.444,0-20.89,0-31.334
					C213.236,196.065,210.236,196.065,210.236,198L210.236,198z"/>
			</g>
		</g>
		<g style="display:inline;">
			<g>
				<path style="fill:#FFFFFF;" d="M210.236,262c0,9.171,0,18.341,0,27.512c0,1.935,3,1.935,3,0c0-9.171,0-18.341,0-27.512
					C213.236,260.065,210.236,260.065,210.236,262L210.236,262z"/>
			</g>
		</g>
	</g>
	<g>
		<g>
			<g>
				<path style="fill:#FFFFFF;" d="M120.999,248.552c10.912-11.9,21.487-23.59,36.377-30.532c9.244-4.31,19.367-5.914,29.37-7.304
					c9.86-1.37,19.293-3.884,28.431-7.839c10.612-4.592,19.968-11.794,27.322-20.685c0.833-1.007,1.636-2.039,2.487-3.03
					c0.263-0.306,0.539-0.597,0.839-0.866c-2.319,2.079-6.542,0.244-7.048-1.659c2.083,7.831,2.14,20.364,12.504,21.406
					c6.415,0.646,6.353-9.361,0-10c0.991,0.475,1.121,0.277,0.391-0.594c-0.52-1.233-0.814-2.58-1.146-3.871
					c-0.669-2.612-1.146-5.278-1.718-7.912c-0.468-2.151-1.077-4.417-3.179-5.547c-3.507-1.886-6.428,0.378-8.569,2.996
					c-6.998,8.554-14.78,15.279-24.809,20.154c-8.851,4.302-18.791,6.617-28.509,7.836c-10.917,1.369-21.342,3.792-31.414,8.28
					c-15.641,6.97-27.063,19.73-38.402,32.097C109.579,246.224,116.631,253.314,120.999,248.552L120.999,248.552z"/>
			</g>
		</g>
		<g>
			<g>
				<path style="fill:#FFFFFF;" d="M116.107,239.834c-0.595,0.615-1.189,1.23-1.783,1.846c-2.064,2.137-2.128,5.585,0,7.713
					c2.074,2.074,5.648,2.138,7.713,0c0.595-0.615,1.189-1.23,1.783-1.846c2.064-2.137,2.128-5.585,0-7.713
					C121.746,237.76,118.172,237.696,116.107,239.834L116.107,239.834z"/>
			</g>
		</g>
		<g>
			<g>
				<path style="fill:#FFFFFF;" d="M251.294,189.483c-0.855-0.004-1.712-0.009-2.567-0.014c-2.29-0.012-4.2,1.92-4.2,4.2
					c0,2.299,1.911,4.188,4.2,4.2c0.855,0.004,1.712,0.009,2.567,0.014c2.29,0.012,4.2-1.92,4.2-4.2
					C255.494,191.385,253.583,189.496,251.294,189.483L251.294,189.483z"/>
			</g>
		</g>
	</g>
	<g>
		<g>
			<g>
				<path style="fill:#FFFFFF;" d="M120.75,177.022c10.912-11.899,21.488-23.589,36.378-30.531
					c9.244-4.309,19.367-5.914,29.371-7.304c9.86-1.37,19.293-3.885,28.431-7.839c10.612-4.592,19.968-11.794,27.322-20.685
					c0.833-1.007,1.635-2.039,2.487-3.031c0.262-0.306,0.539-0.597,0.839-0.866c-2.319,2.079-6.542,0.243-7.048-1.659
					c2.084,7.829,2.139,20.366,12.503,21.406c6.415,0.644,6.354-9.362,0-10c0.991,0.476,1.122,0.278,0.392-0.593
					c-0.52-1.234-0.814-2.581-1.146-3.872c-0.669-2.612-1.146-5.278-1.718-7.913c-0.468-2.15-1.077-4.418-3.179-5.547
					c-3.508-1.885-6.428,0.378-8.569,2.996c-6.998,8.554-14.78,15.279-24.809,20.154c-8.851,4.303-18.791,6.618-28.509,7.837
					c-10.917,1.369-21.343,3.793-31.415,8.281c-15.64,6.97-27.063,19.729-38.402,32.094
					C109.33,174.693,116.382,181.784,120.75,177.022L120.75,177.022z"/>
			</g>
		</g>
		<g>
			<g>
				<path style="fill:#FFFFFF;" d="M115.857,168.306c-0.594,0.614-1.187,1.229-1.78,1.844c-2.064,2.137-2.129,5.584,0,7.713
					c2.074,2.074,5.648,2.138,7.713,0c0.594-0.614,1.187-1.229,1.78-1.844c2.064-2.137,2.129-5.584,0-7.713
					C121.497,166.232,117.922,166.168,115.857,168.306L115.857,168.306z"/>
			</g>
		</g>
		<g>
			<g>
				<path style="fill:#FFFFFF;" d="M251.044,117.955c-0.854-0.004-1.71-0.008-2.564-0.012c-2.29-0.01-4.2,1.918-4.2,4.2
					c0,2.297,1.911,4.189,4.2,4.2c0.854,0.004,1.71,0.008,2.564,0.012c2.29,0.01,4.2-1.918,4.2-4.2
					C255.244,119.857,253.333,117.965,251.044,117.955L251.044,117.955z"/>
			</g>
		</g>
	</g>
</g>
<g id="Ebene_1">
</g>
</svg>
