<?xml version="1.0" encoding="iso-8859-1"?>
<!-- Generator: Adobe Illustrator 16.0.0, SVG Export Plug-In . SVG Version: 6.00 Build 0)  -->
<!DOCTYPE svg PUBLIC "-//W3C//DTD SVG 1.1//EN" "http://www.w3.org/Graphics/SVG/1.1/DTD/svg11.dtd">
<svg version="1.1" xmlns="http://www.w3.org/2000/svg" xmlns:xlink="http://www.w3.org/1999/xlink" x="0px" y="0px" width="361px"
	 height="361px" viewBox="0 0 361 361" style="enable-background:new 0 0 361 361;" xml:space="preserve">
<g id="fts_x5F_awning">
	<g style="display:none;">
		<g style="display:inline;">
			<g>
				<path style="fill:#FFFFFF;" d="M119.54,141.613c28.504-12.068,57.008-24.136,85.512-36.205c-1.178,0-2.355,0-3.533,0
					c28.504,12.068,57.009,24.137,85.513,36.205c0.589-2.174,1.178-4.348,1.767-6.522c-49.84,0-99.679,0-149.518,0
					c-7.169,0-14.338,0-21.507,0c-4.514,0-4.514,7,0,7c49.839,0,99.679,0,149.518,0c7.169,0,14.338,0,21.507,0
					c3.229,0,5.118-5.103,1.767-6.522c-22.854-9.676-45.707-19.352-68.56-29.027c-4.739-2.006-9.479-4.013-14.219-6.02
					c-2.35-0.995-4.159-2.051-6.726-0.964c-9.881,4.183-19.762,8.367-29.642,12.55c-18.471,7.82-36.941,15.641-55.412,23.461
					C111.862,137.324,115.434,143.352,119.54,141.613z"/>
			</g>
		</g>
		<g style="display:inline;">
			<g>
				<path style="fill:#FFFFFF;" d="M200.811,104.862c11.628,11.628,23.257,23.256,34.886,34.884c3.194,3.194,8.145-1.755,4.949-4.95
					c-11.628-11.628-23.257-23.256-34.886-34.884C202.565,96.718,197.615,101.667,200.811,104.862L200.811,104.862z"/>
			</g>
		</g>
		<g style="display:inline;">
			<g>
				<path style="fill:#FFFFFF;" d="M200.811,99.911c-11.628,11.628-23.255,23.257-34.883,34.885c-3.194,3.195,1.755,8.145,4.95,4.95
					c11.627-11.628,23.255-23.257,34.882-34.885C208.954,101.667,204.005,96.717,200.811,99.911L200.811,99.911z"/>
			</g>
		</g>
	</g>
	<g>
		<g>
			<path style="fill:#FFFFFF;" d="M257.977,287.765c7.69-48.071,15.381-96.142,23.071-144.213
				c3.424-21.407,6.849-42.815,10.273-64.222c1.009-6.306-8.626-9.013-9.643-2.658c-7.69,48.071-15.381,96.142-23.071,144.213
				c-3.424,21.407-6.849,42.814-10.273,64.222C247.325,291.413,256.96,294.119,257.977,287.765L257.977,287.765z"/>
		</g>
	</g>
	<g>
		<g>
			<path style="fill:#FFFFFF;" d="M257.378,105.522c-4.406,7.701-11.093,14.065-17.673,19.896
				c-10.529,9.329-22.294,17.233-34.426,24.312c-34.515,20.14-73.316,32.503-112.741,38.357c-4.452,0.661-2.553,7.405,1.861,6.75
				c40.498-6.013,80.062-19.019,115.486-39.689c12.295-7.174,24.056-15.395,34.769-24.78c7.037-6.166,14.084-13.126,18.769-21.312
				C265.668,105.131,259.619,101.606,257.378,105.522L257.378,105.522z"/>
		</g>
	</g>
	<g>
		<g>
			<path style="fill:#FFFFFF;" d="M259.112,102.929c-17.545,8.662-37.351,12.831-56.598,15.512
				c-35.809,4.988-72.522,3.237-108.255-1.418c-4.467-0.582-4.411,6.425,0,7c36.048,4.696,72.791,6.208,108.907,1.331
				c20.314-2.743,40.984-7.25,59.479-16.381C266.693,106.975,263.145,100.938,259.112,102.929L259.112,102.929z"/>
		</g>
	</g>
	<g>
		<g>
			<path style="fill:#FFFFFF;" d="M70.5,110.085c0,49.817,0,99.635,0,149.452c0,9.3,0,18.599,0,27.898c0,6.448,10,6.448,10,0
				c0-49.817,0-99.635,0-149.453c0-9.299,0-18.599,0-27.898C80.5,103.636,70.5,103.636,70.5,110.085L70.5,110.085z"/>
		</g>
	</g>
	<g>
		<g>
			<path style="fill:#FFFFFF;" d="M90.76,120.523c1.644,14.575,1.449,29.352,0.966,43.989c-0.196,5.952-0.5,11.901-0.897,17.843
				c-0.131,1.954-0.281,3.908-0.453,5.859c-0.145,1.636-0.772,2.631,0.071,1.481c-2.676,3.645,3.403,7.131,6.044,3.533
				c1.283-1.748,0.942-5.6,1.102-7.625c0.487-6.17,0.794-12.355,1.041-18.539c0.615-15.47,0.864-31.134-0.874-46.542
				C97.26,116.09,90.254,116.041,90.76,120.523L90.76,120.523z"/>
		</g>
	</g>
	<g>
		<g>
			<path style="fill:#FFFFFF;" d="M284.782,81.048c-8.321,7.947-16.643,15.895-24.964,23.842c-1.401,1.338,0.723,3.457,2.121,2.121
				c8.321-7.947,16.643-15.895,24.964-23.842C288.305,81.831,286.181,79.713,284.782,81.048L284.782,81.048z"/>
		</g>
	</g>
	<g>
		<g>
			<path style="fill:#FFFFFF;" d="M74.743,111.38c6.253,3.479,12.506,6.958,18.76,10.438c1.692,0.941,3.204-1.65,1.514-2.591
				c-6.253-3.479-12.506-6.958-18.76-10.438C74.565,107.848,73.053,110.439,74.743,111.38L74.743,111.38z"/>
		</g>
	</g>
	<g>
		<g>
			<path style="fill:#FFFFFF;" d="M93.469,189.962c-5.99,0.735-11.979,1.47-17.969,2.205c-1.895,0.232-1.917,3.235,0,3
				c5.99-0.735,11.979-1.47,17.969-2.205C95.364,192.729,95.387,189.727,93.469,189.962L93.469,189.962z"/>
		</g>
	</g>
</g>
<g id="Ebene_1">
</g>
</svg>
