<?xml version="1.0" encoding="iso-8859-1"?>
<!-- Generator: Adobe Illustrator 16.0.0, SVG Export Plug-In . SVG Version: 6.00 Build 0)  -->
<!DOCTYPE svg PUBLIC "-//W3C//DTD SVG 1.1//EN" "http://www.w3.org/Graphics/SVG/1.1/DTD/svg11.dtd">
<svg version="1.1" xmlns="http://www.w3.org/2000/svg" xmlns:xlink="http://www.w3.org/1999/xlink" x="0px" y="0px" width="361px"
	 height="361px" viewBox="0 0 361 361" style="enable-background:new 0 0 361 361;" xml:space="preserve">
<g id="fts_x5F_umbrella_x5F_offset_x5F_open">
	<g>
		<g>
			<path style="fill:#FFFFFF;" d="M144.093,281.921c-23.105,0-46.21,0-69.315,0c0.443,3.273,0.886,6.548,1.329,9.821
				c5.561-1.064,11.122-2.13,16.683-3.195c3.911-0.749,7.822-1.498,11.732-2.246c1.428-0.274,2.855-0.548,4.283-0.821
				c2.069-0.396,2.172,0.287-0.984-0.307c11.647,2.189,23.295,4.38,34.942,6.569c6.301,1.185,8.991-8.452,2.658-9.643
				c-11.659-2.192-23.318-4.384-34.978-6.576c-2.09-0.394-4.42,0.337-6.481,0.732c-3.963,0.759-7.926,1.518-11.889,2.276
				c-6.208,1.189-12.417,2.378-18.625,3.567c-5.654,1.083-4.188,9.821,1.329,9.821c23.105,0,46.21,0,69.315,0
				C150.542,291.921,150.542,281.921,144.093,281.921z"/>
		</g>
	</g>
	<g style="display:none;">
		<g style="display:inline;">
			<g>
				<path style="fill:#FFFFFF;" d="M119.54,141.613c28.504-12.068,57.008-24.136,85.512-36.205c-1.178,0-2.355,0-3.533,0
					c28.504,12.068,57.009,24.137,85.513,36.205c0.589-2.174,1.178-4.348,1.767-6.522c-49.84,0-99.679,0-149.518,0
					c-7.169,0-14.338,0-21.507,0c-4.514,0-4.514,7,0,7c49.839,0,99.679,0,149.518,0c7.169,0,14.338,0,21.507,0
					c3.229,0,5.118-5.103,1.767-6.522c-22.854-9.676-45.707-19.352-68.56-29.027c-4.739-2.006-9.479-4.013-14.219-6.02
					c-2.35-0.995-4.159-2.051-6.726-0.964c-9.881,4.183-19.762,8.367-29.642,12.55c-18.471,7.82-36.941,15.641-55.412,23.461
					C111.862,137.324,115.434,143.352,119.54,141.613z"/>
			</g>
		</g>
		<g style="display:inline;">
			<g>
				<path style="fill:#FFFFFF;" d="M200.811,104.862c11.628,11.628,23.257,23.256,34.886,34.884c3.194,3.194,8.145-1.755,4.949-4.95
					c-11.628-11.628-23.257-23.256-34.886-34.884C202.565,96.718,197.615,101.667,200.811,104.862L200.811,104.862z"/>
			</g>
		</g>
		<g style="display:inline;">
			<g>
				<path style="fill:#FFFFFF;" d="M200.811,99.911c-11.628,11.628-23.255,23.257-34.883,34.885c-3.194,3.195,1.755,8.145,4.95,4.95
					c11.627-11.628,23.255-23.257,34.882-34.885C208.954,101.667,204.005,96.717,200.811,99.911L200.811,99.911z"/>
			</g>
		</g>
	</g>
	<g>
		<g>
			<path style="fill:#FFFFFF;" d="M104.002,149.598c28.912-18.223,57.823-36.446,86.735-54.669
				c-0.899,0.118-1.798,0.235-2.697,0.353c33.207,8.077,66.414,16.154,99.621,24.231c0-2.25,0-4.5,0-6.75
				c-49.03,8.008-98.061,16.016-147.091,24.024c-13.088,2.138-26.177,4.275-39.265,6.413c-4.446,0.726-2.553,7.471,1.861,6.75
				c49.03-8.008,98.061-16.016,147.091-24.024c13.088-2.138,26.176-4.275,39.265-6.413c3.493-0.57,3.204-5.971,0-6.75
				c-23.821-5.794-47.644-11.588-71.465-17.383c-9.319-2.267-18.639-4.534-27.958-6.8c-2.366-0.576-4.297,1.188-6.173,2.371
				c-4.411,2.78-8.822,5.56-13.233,8.34c-23.408,14.754-46.816,29.508-70.225,44.263
				C96.662,145.954,100.171,152.013,104.002,149.598z"/>
		</g>
	</g>
	<g>
		<g>
			<path style="fill:#FFFFFF;" d="M183.659,90.141c-6.209,13.775-12.418,27.55-18.627,41.324c-1.839,4.081,4.191,7.643,6.044,3.533
				c6.209-13.775,12.418-27.55,18.628-41.324C191.543,89.593,185.512,86.031,183.659,90.141L183.659,90.141z"/>
		</g>
	</g>
	<g>
		<g>
			<path style="fill:#FFFFFF;" d="M187.642,80.959c-37.92,14.887-75.84,29.774-113.76,44.662c-5.932,2.329-3.352,12.002,2.658,9.643
				c37.92-14.887,75.84-29.774,113.76-44.662C196.231,88.273,193.651,78.599,187.642,80.959L187.642,80.959z"/>
		</g>
	</g>
	<g>
		<g>
			<path style="fill:#FFFFFF;" d="M115.728,280.306c-7.786-48.066-15.571-96.133-23.357-144.2c-0.403-2.487-0.806-4.974-1.208-7.461
				c-1.029-6.353-10.664-3.648-9.643,2.658c7.786,48.067,15.571,96.133,23.357,144.2c0.403,2.487,0.806,4.974,1.208,7.461
				C107.114,289.317,116.749,286.612,115.728,280.306L115.728,280.306z"/>
		</g>
	</g>
	<g>
		<g>
			<path style="fill:#FFFFFF;" d="M72.869,131.125c6.681,14.058,13.361,28.115,20.041,42.173c0.83,1.747,3.417,0.224,2.591-1.514
				c-6.681-14.058-13.361-28.115-20.041-42.173C74.63,127.864,72.043,129.388,72.869,131.125L72.869,131.125z"/>
		</g>
	</g>
	<g>
		<g>
			<path style="fill:#FFFFFF;" d="M186.907,96.366c10.613,10.754,21.227,21.508,31.841,32.262c3.174,3.216,8.122-1.735,4.949-4.95
				c-10.613-10.754-21.227-21.508-31.841-32.262C188.683,88.2,183.734,93.151,186.907,96.366L186.907,96.366z"/>
		</g>
	</g>
</g>
<g id="Ebene_1">
</g>
</svg>
