<?xml version="1.0" encoding="iso-8859-1"?>
<!-- Generator: Adobe Illustrator 16.0.0, SVG Export Plug-In . SVG Version: 6.00 Build 0)  -->
<!DOCTYPE svg PUBLIC "-//W3C//DTD SVG 1.1 Tiny//EN" "http://www.w3.org/Graphics/SVG/1.1/DTD/svg11-tiny.dtd">
<svg version="1.1" baseProfile="tiny" id="fts_x5F_blade_x5F_s_x5F_sun"
	 xmlns="http://www.w3.org/2000/svg" xmlns:xlink="http://www.w3.org/1999/xlink" x="0px" y="0px" width="361px" height="361px"
	 viewBox="0 0 361 361" xml:space="preserve">
<g display="none">
	<g display="inline">
		<path fill="#FFFFFF" d="M207.6,137.068c0,9.159,0,18.318,0,27.477c0,1.935,3,1.935,3,0c0-9.159,0-18.318,0-27.477
			C210.6,135.134,207.6,135.134,207.6,137.068L207.6,137.068z"/>
	</g>
	<g display="inline">
		<path fill="#FFFFFF" d="M207.718,200.878c0,10.444,0,20.889,0,31.333c0,1.935,3,1.935,3,0c0-10.444,0-20.889,0-31.333
			C210.718,198.944,207.718,198.944,207.718,200.878L207.718,200.878z"/>
	</g>
	<g display="inline">
		<path fill="#FFFFFF" d="M207.718,264.878c0,9.17,0,18.341,0,27.511c0,1.935,3,1.935,3,0c0-9.17,0-18.341,0-27.511
			C210.718,262.944,207.718,262.944,207.718,264.878L207.718,264.878z"/>
	</g>
</g>
<g>
	<g>
		<path fill="#FFFFFF" d="M204.783,131.545c0,10.423,0,20.846,0,31.27c0,1.935,3,1.935,3,0c0-10.423,0-20.846,0-31.27
			C207.783,129.61,204.783,129.61,204.783,131.545L204.783,131.545z"/>
	</g>
	<g>
		<path fill="#FFFFFF" d="M204.905,192.618c0,12.414,0,24.827,0,37.24c0,1.935,3,1.935,3,0c0-12.414,0-24.827,0-37.24
			C207.905,190.684,204.905,190.684,204.905,192.618L204.905,192.618z"/>
	</g>
	<g>
		<path fill="#FFFFFF" d="M204.905,261.021c0,10.341,0,20.683,0,31.024c0,1.935,3,1.935,3,0c0-10.341,0-20.683,0-31.024
			C207.905,259.086,204.905,259.086,204.905,261.021L204.905,261.021z"/>
	</g>
</g>
<g>
	<path fill="#FFFFFF" d="M133.277,292.464c12.864-13.543,25.527-27.3,43.144-34.624c11.229-4.668,22.992-6.167,34.941-7.726
		c11.033-1.44,21.638-4.228,31.866-8.604c11.968-5.121,22.45-13.134,30.854-23.027c0.892-1.05,1.757-2.124,2.684-3.145
		c0.392-0.431,1.669-1.319,0.104-0.242c-1.726,1.188-5.673-0.622-6.189-2.335c2.563,8.518,1.59,23.111,13.313,24.338
		c6.411,0.671,6.346-9.336,0-10c0.995,0.104,0.033-0.793-0.219-1.446c-0.49-1.27-0.779-2.629-1.099-3.947
		c-0.774-3.191-1.289-6.452-1.935-9.671c-0.447-2.225-1.042-4.544-3.21-5.721c-3.815-2.07-6.845,0.736-9.145,3.463
		c-8.209,9.732-17.479,17.28-29.142,22.628c-21.58,9.896-46.123,7.364-67.895,16.803c-18.298,7.933-31.654,21.983-45.144,36.185
		C121.768,290.065,128.828,297.148,133.277,292.464L133.277,292.464z"/>
</g>
<g>
	<path fill="#FFFFFF" d="M129.917,283.75c-0.692,0.692-1.385,1.385-2.078,2.077c-2.023,2.022-2.022,5.402,0,7.425
		c2.023,2.023,5.401,2.022,7.425,0c0.692-0.692,1.385-1.385,2.078-2.077c2.023-2.022,2.022-5.402,0-7.425
		C135.318,281.728,131.94,281.729,129.917,283.75L129.917,283.75z"/>
</g>
<g>
	<path fill="#FFFFFF" d="M283.994,229.633c-0.979-0.022-1.958-0.044-2.937-0.066c-2.29-0.051-4.2,1.95-4.2,4.2
		c0,2.328,1.912,4.148,4.2,4.2c0.979,0.022,1.958,0.044,2.937,0.066c2.29,0.051,4.2-1.95,4.2-4.2
		C288.194,231.505,286.282,229.685,283.994,229.633L283.994,229.633z"/>
</g>
<g>
	<path fill="#FFFFFF" d="M133.966,223.455c12.864-13.543,25.528-27.3,43.144-34.624c11.229-4.668,22.992-6.167,34.941-7.726
		c11.033-1.439,21.638-4.228,31.866-8.604c11.968-5.121,22.45-13.134,30.854-23.028c0.892-1.05,1.757-2.124,2.683-3.144
		c0.392-0.432,1.669-1.319,0.104-0.243c-1.727,1.188-5.673-0.622-6.189-2.335c2.563,8.518,1.589,23.112,13.313,24.339
		c6.411,0.671,6.347-9.336,0-10c0.995,0.104,0.033-0.794-0.219-1.446c-0.49-1.27-0.779-2.629-1.099-3.947
		c-0.774-3.191-1.289-6.453-1.935-9.671c-0.446-2.225-1.041-4.544-3.21-5.721c-3.815-2.07-6.845,0.736-9.145,3.463
		c-8.209,9.732-17.479,17.28-29.141,22.628c-21.58,9.896-46.123,7.364-67.895,16.803c-18.298,7.933-31.654,21.983-45.144,36.185
		C122.457,221.056,129.517,228.139,133.966,223.455L133.966,223.455z"/>
</g>
<g>
	<path fill="#FFFFFF" d="M130.605,214.741c-0.692,0.693-1.385,1.385-2.078,2.078c-2.022,2.023-2.022,5.402,0,7.425
		c2.023,2.022,5.402,2.022,7.425,0c0.692-0.693,1.385-1.385,2.078-2.078c2.022-2.023,2.022-5.402,0-7.425
		C136.007,212.718,132.628,212.718,130.605,214.741L130.605,214.741z"/>
</g>
<g>
	<path fill="#FFFFFF" d="M284.683,160.624c-0.979-0.022-1.958-0.044-2.937-0.066c-2.29-0.051-4.2,1.95-4.2,4.2
		c0,2.328,1.912,4.148,4.2,4.2c0.979,0.022,1.958,0.044,2.937,0.066c2.29,0.051,4.2-1.95,4.2-4.2
		C288.883,162.495,286.972,160.675,284.683,160.624L284.683,160.624z"/>
</g>
<g id="sonne_2_">
	<path fill="none" stroke="#FFFFFF" stroke-width="10" stroke-miterlimit="10" d="M88.189,121.855c0,2.245,1.82,4.064,4.064,4.064
		h23.371c2.245,0,4.064-1.82,4.064-4.064V98.484c0-2.245-1.82-4.064-4.064-4.064H92.254c-2.245,0-4.064,1.82-4.064,4.064V121.855z"
		/>
	<g>
		<path fill="#FFFFFF" d="M135.279,74.009c-2.406,2.407-4.813,4.813-7.219,7.219c-1.926,1.926-1.926,5.145,0,7.071
			s5.145,1.926,7.071,0c2.406-2.407,4.813-4.813,7.219-7.219c1.926-1.926,1.926-5.145,0-7.071S137.205,72.083,135.279,74.009
			L135.279,74.009z"/>
	</g>
	<g>
		<path fill="#FFFFFF" d="M173.189,104.92c-11.167,0-22.333,0-33.5,0c-6.449,0-6.449,10,0,10c11.167,0,22.333,0,33.5,0
			C179.638,114.92,179.638,104.92,173.189,104.92L173.189,104.92z"/>
	</g>
	<g>
		<path fill="#FFFFFF" d="M75.851,146.58c1.99-1.99,3.979-3.979,5.969-5.969c1.926-1.926,1.926-5.145,0-7.071s-5.145-1.926-7.071,0
			c-1.99,1.99-3.979,3.979-5.969,5.969c-1.926,1.926-1.926,5.145,0,7.071S73.924,148.506,75.851,146.58L75.851,146.58z"/>
	</g>
	<g>
		<path fill="#FFFFFF" d="M109.439,178.67c0-11.167,0-22.333,0-33.5c0-6.449-10-6.449-10,0c0,11.167,0,22.333,0,33.5
			C99.439,185.119,109.439,185.119,109.439,178.67L109.439,178.67z"/>
	</g>
	<g>
		<path fill="#FFFFFF" d="M157.819,157.229c-7.896-7.896-15.792-15.792-23.688-23.688c-4.564-4.563-11.635,2.507-7.071,7.071
			c7.896,7.896,15.792,15.792,23.688,23.688C155.312,168.863,162.383,161.792,157.819,157.229L157.819,157.229z"/>
	</g>
</g>
</svg>
