<?xml version="1.0" encoding="iso-8859-1"?>
<!-- Generator: Adobe Illustrator 16.0.0, SVG Export Plug-In . SVG Version: 6.00 Build 0)  -->
<!DOCTYPE svg PUBLIC "-//W3C//DTD SVG 1.1 Tiny//EN" "http://www.w3.org/Graphics/SVG/1.1/DTD/svg11-tiny.dtd">
<svg version="1.1" baseProfile="tiny" id="fts_x5F_blade_x5F_arc_x5F_close_x5F_50"
	 xmlns="http://www.w3.org/2000/svg" xmlns:xlink="http://www.w3.org/1999/xlink" x="0px" y="0px" width="361px" height="361px"
	 viewBox="0 0 361 361" xml:space="preserve">
<g>
	<g>
		<g>
			<path fill="#FFFFFF" d="M206.949,217.553c8.73-29.31,33.197-50.547,63.265-55.642c6.348-1.075,3.647-10.711-2.658-9.643
				c-33.441,5.666-60.599,30.227-70.25,62.626C195.46,221.09,205.112,223.718,206.949,217.553L206.949,217.553z"/>
		</g>
		<g>
			<path fill="#FFFFFF" d="M197.924,213.3c-0.165,0.522-0.331,1.045-0.496,1.568c-0.896,2.834,1.025,5.943,3.81,6.709
				c2.947,0.811,5.814-0.977,6.709-3.81c0.165-0.522,0.33-1.045,0.496-1.568c0.896-2.834-1.025-5.943-3.81-6.709
				C201.686,208.68,198.819,210.468,197.924,213.3L197.924,213.3z"/>
		</g>
		<g>
			<path fill="#FFFFFF" d="M267.439,152.323c-0.53,0.142-1.059,0.285-1.588,0.427c-2.87,0.771-4.594,3.857-3.81,6.709
				c0.792,2.878,3.84,4.581,6.709,3.81c0.53-0.142,1.059-0.285,1.588-0.427c2.87-0.771,4.594-3.857,3.81-6.709
				C273.357,153.254,270.309,151.552,267.439,152.323L267.439,152.323z"/>
		</g>
	</g>
	<g>
		<g>
			<path fill="#FFFFFF" d="M206.949,282.438c8.73-29.31,33.197-50.547,63.265-55.642c6.348-1.075,3.647-10.711-2.658-9.643
				c-33.441,5.666-60.599,30.227-70.25,62.626C195.46,285.975,205.112,288.603,206.949,282.438L206.949,282.438z"/>
		</g>
		<g>
			<path fill="#FFFFFF" d="M197.924,278.185c-0.165,0.522-0.331,1.045-0.496,1.568c-0.896,2.834,1.025,5.943,3.81,6.709
				c2.947,0.811,5.814-0.977,6.709-3.81c0.165-0.522,0.33-1.045,0.496-1.568c0.896-2.834-1.025-5.943-3.81-6.709
				C201.686,273.565,198.819,275.353,197.924,278.185L197.924,278.185z"/>
		</g>
		<g>
			<path fill="#FFFFFF" d="M267.439,217.208c-0.53,0.142-1.059,0.285-1.588,0.427c-2.87,0.771-4.594,3.857-3.81,6.709
				c0.792,2.878,3.84,4.581,6.709,3.81c0.53-0.142,1.059-0.285,1.588-0.427c2.87-0.771,4.594-3.857,3.81-6.709
				C273.357,218.139,270.309,216.437,267.439,217.208L267.439,217.208z"/>
		</g>
	</g>
	<g>
		<g>
			<path fill="#FFFFFF" d="M206.949,152.667c8.73-29.31,33.197-50.547,63.265-55.642c6.348-1.075,3.647-10.711-2.658-9.643
				c-33.441,5.666-60.599,30.227-70.25,62.626C195.46,156.205,205.112,158.833,206.949,152.667L206.949,152.667z"/>
		</g>
		<g>
			<path fill="#FFFFFF" d="M197.924,148.415c-0.165,0.522-0.331,1.045-0.496,1.568c-0.896,2.834,1.025,5.943,3.81,6.709
				c2.947,0.811,5.814-0.977,6.709-3.81c0.165-0.522,0.33-1.045,0.496-1.568c0.896-2.834-1.025-5.943-3.81-6.709
				C201.686,143.795,198.819,145.583,197.924,148.415L197.924,148.415z"/>
		</g>
		<g>
			<path fill="#FFFFFF" d="M267.439,87.438c-0.53,0.143-1.059,0.285-1.588,0.427c-2.87,0.771-4.594,3.857-3.81,6.709
				c0.792,2.878,3.84,4.581,6.709,3.81c0.53-0.143,1.059-0.285,1.588-0.427c2.87-0.771,4.594-3.857,3.81-6.709
				C273.357,88.369,270.309,86.667,267.439,87.438L267.439,87.438z"/>
		</g>
	</g>
</g>
<g>
	<path fill="#FFFFFF" d="M229.351,74.17c0,6.884,0,13.768,0,20.651c0,1.935,3,1.935,3,0c0-6.884,0-13.768,0-20.651
		C232.351,72.236,229.351,72.236,229.351,74.17L229.351,74.17z"/>
</g>
<g>
	<path fill="#FFFFFF" d="M229.351,123.682c0,12.408,0,24.816,0,37.225c0,1.935,3,1.935,3,0c0-12.408,0-24.816,0-37.225
		C232.351,121.747,229.351,121.747,229.351,123.682L229.351,123.682z"/>
</g>
<g>
	<path fill="#FFFFFF" d="M229.351,187.657c0,12.408,0,24.816,0,37.225c0,1.935,3,1.935,3,0c0-12.408,0-24.816,0-37.225
		C232.351,185.722,229.351,185.722,229.351,187.657L229.351,187.657z"/>
</g>
<g>
	<path fill="#FFFFFF" d="M229.351,251.542c0,13.657,0,27.314,0,40.971c0,1.935,3,1.935,3,0c0-13.657,0-27.314,0-40.971
		C232.351,249.607,229.351,249.607,229.351,251.542L229.351,251.542z"/>
</g>
<g id="sonne_4_">
	<path fill="none" stroke="#FFFFFF" stroke-width="10" stroke-miterlimit="10" d="M88.189,121.48c0,2.245,1.82,4.064,4.064,4.064
		h23.371c2.245,0,4.064-1.82,4.064-4.064V98.109c0-2.245-1.82-4.064-4.064-4.064H92.254c-2.245,0-4.064,1.82-4.064,4.064V121.48z"/>
	<g>
		<path fill="#FFFFFF" d="M135.279,73.634c-2.406,2.407-4.813,4.813-7.219,7.219c-1.926,1.926-1.926,5.145,0,7.071
			s5.145,1.926,7.071,0c2.406-2.407,4.813-4.813,7.219-7.219c1.926-1.926,1.926-5.145,0-7.071S137.205,71.708,135.279,73.634
			L135.279,73.634z"/>
	</g>
	<g>
		<path fill="#FFFFFF" d="M173.189,104.545c-11.167,0-22.333,0-33.5,0c-6.449,0-6.449,10,0,10c11.167,0,22.333,0,33.5,0
			C179.638,114.545,179.638,104.545,173.189,104.545L173.189,104.545z"/>
	</g>
	<g>
		<path fill="#FFFFFF" d="M75.851,146.205c1.99-1.99,3.979-3.979,5.969-5.969c1.926-1.926,1.926-5.145,0-7.071s-5.145-1.926-7.071,0
			c-1.99,1.99-3.979,3.979-5.969,5.969c-1.926,1.926-1.926,5.145,0,7.071S73.924,148.131,75.851,146.205L75.851,146.205z"/>
	</g>
	<g>
		<path fill="#FFFFFF" d="M109.439,178.295c0-11.167,0-22.333,0-33.5c0-6.449-10-6.449-10,0c0,11.167,0,22.333,0,33.5
			C99.439,184.744,109.439,184.744,109.439,178.295L109.439,178.295z"/>
	</g>
	<g>
		<path fill="#FFFFFF" d="M157.819,156.854c-7.896-7.896-15.792-15.792-23.688-23.688c-4.564-4.563-11.635,2.507-7.071,7.071
			c7.896,7.896,15.792,15.792,23.688,23.688C155.312,168.488,162.383,161.417,157.819,156.854L157.819,156.854z"/>
	</g>
</g>
</svg>
