<?xml version="1.0" encoding="iso-8859-1"?>
<!-- Generator: Adobe Illustrator 16.0.0, SVG Export Plug-In . SVG Version: 6.00 Build 0)  -->
<!DOCTYPE svg PUBLIC "-//W3C//DTD SVG 1.1//EN" "http://www.w3.org/Graphics/SVG/1.1/DTD/svg11.dtd">
<svg version="1.1" xmlns="http://www.w3.org/2000/svg" xmlns:xlink="http://www.w3.org/1999/xlink" x="0px" y="0px" width="361px"
	 height="361px" viewBox="0 0 361 361" style="enable-background:new 0 0 361 361;" xml:space="preserve">
<g id="fts_x5F_garage_x5F_door_x5F_20">
	<g style="display:none;">
		<g style="display:inline;">
			<path style="fill:#FFFFFF;" d="M138.833,260.167c0,3.313-2.687,6-6,6h-11.5c-3.313,0-6-2.687-6-6v-11c0-3.313,2.687-6,6-6h11.5
				c3.313,0,6,2.687,6,6V260.167z"/>
			<path style="fill:#FFFFFF;" d="M246.833,260.167c0,3.313-2.687,6-6,6h-11.5c-3.313,0-6-2.687-6-6v-11c0-3.313,2.687-6,6-6h11.5
				c3.313,0,6,2.687,6,6V260.167z"/>
			<path style="fill:#FFFFFF;" d="M232.909,215.15h-104.26c-5.985,0-10.674-6.011-10.674-13.684v-0.631l4.752-18.545
				c0.463-7.055,7.605-12.961,13.487-12.961h89.128c5.882,0,13.024,5.906,13.487,12.961l4.753,18.545v0.631
				C243.583,209.14,238.895,215.15,232.909,215.15z M129.028,205.15h103.503c0.34-0.376,0.924-1.436,1.033-3.123l-4.71-18.383
				v-0.631c0-1.572-2.493-3.546-3.595-3.688l-89.045,0.003c-1.018,0.139-3.511,2.113-3.511,3.684v0.631l-4.71,18.383
				C128.103,203.715,128.688,204.774,129.028,205.15z"/>
			<path style="fill:#FFFFFF;" d="M251.166,242.861c0,2.93-2.779,5.306-6.205,5.306H116.705c-3.427,0-6.206-2.376-6.206-5.306
				v-27.709c0-2.93,2.779-5.306,6.206-5.306h128.256c3.426,0,6.205,2.376,6.205,5.306V242.861z M143.583,221.405
				c0-2.597-2.687-4.702-6-4.702h-17.25c-3.313,0-6,2.105-6,4.702v4.897c0,2.596,2.687,4.701,6,4.701h17.25c3.313,0,6-2.105,6-4.701
				V221.405z M247.083,221.405c0-2.597-2.687-4.702-6-4.702h-17.25c-3.313,0-6,2.105-6,4.702v4.897c0,2.596,2.687,4.701,6,4.701
				h17.25c3.313,0,6-2.105,6-4.701V221.405z M206.833,225.561c0-5.05-2.687-9.144-6-9.144h-40.5c-3.313,0-6,4.094-6,9.144v5.713
				c0,5.05,2.687,9.144,6,9.144h40.5c3.313,0,6-4.094,6-9.144V225.561z"/>
		</g>
		<rect x="147.583" y="219.167" style="display:inline;fill:#FFFFFF;" width="66" height="10"/>
		<rect x="148.583" y="232.167" style="display:inline;fill:#FFFFFF;" width="66" height="10"/>
	</g>
	<g>
		<g>
			<g>
				<path style="fill:#FFFFFF;" d="M80.833,130.417c0,45.143,0,90.286,0,135.429c0,0.052,0,0.103,0,0.154c0,6.448,10,6.448,10,0
					c0-45.143,0-90.286,0-135.429c0-0.051,0-0.103,0-0.154C90.833,123.968,80.833,123.968,80.833,130.417L80.833,130.417z"/>
			</g>
		</g>
		<g>
			<g>
				<path style="fill:#FFFFFF;" d="M270.833,130.417c0,45.143,0,90.286,0,135.429c0,0.052,0,0.103,0,0.154c0,6.448,10,6.448,10,0
					c0-45.143,0-90.286,0-135.429c0-0.051,0-0.103,0-0.154C280.833,123.968,270.833,123.968,270.833,130.417L270.833,130.417z"/>
			</g>
		</g>
		<path style="fill:none;stroke:#FFFFFF;stroke-width:10;" d="M286.833,117.588c0,3.172-2.572,5.745-5.745,5.745H81.287
			c-3.173,0-5.745-2.573-5.745-5.745v-9.575c0-3.173,2.572-5.745,5.745-5.745h199.801c3.173,0,5.745,2.572,5.745,5.745V117.588z"/>
	</g>
	<g>
		<g>
			<path style="fill:#FFFFFF;" d="M272.459,146.407c-0.113,0.56,0.604,0.431-0.631,0.431c-1.073,0-2.146,0-3.22,0
				c-3.865,0-7.73,0-11.596,0c-12.936,0-25.87,0-38.806,0c-31.541,0-63.083,0-94.624,0c-9.949,0-19.897,0-29.846,0
				c-1.625,0-3.25,0-4.875,0c0.841,0,0.471-0.918,0.471-2.36c0-1.751,0-3.503,0-5.254c0-0.228-0.894-0.052,0.506-0.052
				c21.638,0,43.275,0,64.912,0c27.778,0,55.555,0,83.333,0c9.18,0,18.358,0,27.538,0c2.121,0,4.243,0,6.364,0
				c1.195,0,0.348,0.125,0.348-0.354c0,2.84,0,5.68,0,8.521c0,4.514,7,4.514,7,0c0-5.256,1.51-15.167-6.528-15.167
				c-1.625,0-3.25,0-4.875,0c-9.949,0-19.897,0-29.847,0c-31.541,0-63.082,0-94.623,0c-18.209,0-36.418,0-54.627,0
				c-8.118,0-7.23,11.861-6.139,17.265c0.771,3.818,4.959,4.402,8.133,4.402c8.364,0,16.729,0,25.093,0
				c52.071,0,104.141,0,156.211,0c3.574,0,6.353-1.983,7.077-5.569C280.099,143.861,273.353,141.984,272.459,146.407z"/>
		</g>
	</g>
</g>
<g id="Ebene_1">
</g>
</svg>
