<?xml version="1.0" encoding="iso-8859-1"?>
<!-- Generator: Adobe Illustrator 16.0.0, SVG Export Plug-In . SVG Version: 6.00 Build 0)  -->
<!DOCTYPE svg PUBLIC "-//W3C//DTD SVG 1.1 Tiny//EN" "http://www.w3.org/Graphics/SVG/1.1/DTD/svg11-tiny.dtd">
<svg version="1.1" baseProfile="tiny" id="fts_x5F_blade_x5F_z"
	 xmlns="http://www.w3.org/2000/svg" xmlns:xlink="http://www.w3.org/1999/xlink" x="0px" y="0px" width="361px" height="361px"
	 viewBox="0 0 361 361" xml:space="preserve">
<g>
	<g>
		<path fill="#FFFFFF" d="M176.315,73.545c0,14.222,0,28.445,0,42.667c0,1.935,3,1.935,3,0c0-14.222,0-28.445,0-42.667
			C179.315,71.61,176.315,71.61,176.315,73.545L176.315,73.545z"/>
	</g>
	<g>
		<path fill="#FFFFFF" d="M176.482,156.878c0,16.938,0,33.876,0,50.814c0,1.935,3,1.935,3,0c0-16.938,0-33.876,0-50.814
			C179.482,154.944,176.482,154.944,176.482,156.878L176.482,156.878z"/>
	</g>
	<g>
		<path fill="#FFFFFF" d="M176.482,250.212c0,14.111,0,28.222,0,42.333c0,1.935,3,1.935,3,0c0-14.111,0-28.222,0-42.333
			C179.482,248.278,176.482,248.278,176.482,250.212L176.482,250.212z"/>
	</g>
</g>
<g display="none">
	<g display="inline">
		<path fill="#FFFFFF" d="M207.6,137.068c0,9.159,0,18.318,0,27.477c0,1.935,3,1.935,3,0c0-9.159,0-18.318,0-27.477
			C210.6,135.134,207.6,135.134,207.6,137.068L207.6,137.068z"/>
	</g>
	<g display="inline">
		<path fill="#FFFFFF" d="M207.718,200.878c0,10.444,0,20.889,0,31.333c0,1.935,3,1.935,3,0c0-10.444,0-20.889,0-31.333
			C210.718,198.944,207.718,198.944,207.718,200.878L207.718,200.878z"/>
	</g>
	<g display="inline">
		<path fill="#FFFFFF" d="M207.718,264.878c0,9.17,0,18.341,0,27.511c0,1.935,3,1.935,3,0c0-9.17,0-18.341,0-27.511
			C210.718,262.944,207.718,262.944,207.718,264.878L207.718,264.878z"/>
	</g>
</g>
<g>
	<g>
		<g>
			<path fill="#FFFFFF" d="M160.641,233.705c11.115,0.113,22.229,0.227,33.344,0.34c6.451,0.066,6.445-9.934,0-10
				c-11.115-0.113-22.229-0.227-33.344-0.34C154.189,223.639,154.196,233.639,160.641,233.705L160.641,233.705z"/>
		</g>
		<g>
			<path fill="#FFFFFF" d="M197.513,233.383c29.418-19.387,58.835-38.774,88.253-58.161c5.358-3.531,0.355-12.195-5.047-8.635
				c-29.418,19.387-58.835,38.774-88.253,58.161C187.107,228.279,192.111,236.943,197.513,233.383L197.513,233.383z"/>
		</g>
		<g>
			<path fill="#FFFFFF" d="M74.911,291.183c29.418-19.387,58.835-38.774,88.253-58.161c5.358-3.531,0.355-12.195-5.047-8.635
				c-29.418,19.387-58.835,38.774-88.253,58.161C64.506,286.08,69.509,294.743,74.911,291.183L74.911,291.183z"/>
		</g>
	</g>
	<g>
		<path fill="#FFFFFF" d="M74.368,281.052c-1.131,0.711-2.262,1.422-3.393,2.133c-2.512,1.58-3.496,4.834-1.957,7.462
			c1.465,2.501,4.943,3.541,7.462,1.957c1.131-0.711,2.262-1.422,3.393-2.133c2.512-1.58,3.496-4.834,1.957-7.462
			C80.365,280.508,76.887,279.468,74.368,281.052L74.368,281.052z"/>
	</g>
	<g>
		<path fill="#FFFFFF" d="M280.489,166.936c-1.11,0.743-2.221,1.486-3.332,2.229c-1.207,0.808-2.113,1.829-2.506,3.26
			c-0.387,1.408-0.188,2.943,0.55,4.203c1.434,2.447,4.988,3.612,7.462,1.957c1.11-0.743,2.221-1.486,3.332-2.229
			c1.207-0.808,2.113-1.829,2.506-3.26c0.387-1.408,0.188-2.943-0.55-4.203C286.518,166.446,282.964,165.281,280.489,166.936
			L280.489,166.936z"/>
	</g>
</g>
<g>
	<g>
		<g>
			<path fill="#FFFFFF" d="M160.972,140.795c11.115,0.113,22.229,0.227,33.344,0.34c6.451,0.066,6.445-9.934,0-10
				c-11.115-0.113-22.229-0.227-33.344-0.34C154.521,130.729,154.527,140.729,160.972,140.795L160.972,140.795z"/>
		</g>
		<g>
			<path fill="#FFFFFF" d="M197.844,140.473c29.418-19.387,58.835-38.774,88.253-58.161c5.358-3.531,0.355-12.195-5.047-8.635
				c-29.418,19.387-58.835,38.774-88.253,58.161C187.438,135.369,192.442,144.033,197.844,140.473L197.844,140.473z"/>
		</g>
		<g>
			<path fill="#FFFFFF" d="M75.242,198.273c29.418-19.387,58.835-38.774,88.253-58.161c5.358-3.531,0.355-12.195-5.047-8.635
				c-29.418,19.387-58.835,38.774-88.253,58.161C64.837,193.169,69.84,201.833,75.242,198.273L75.242,198.273z"/>
		</g>
	</g>
	<g>
		<path fill="#FFFFFF" d="M74.699,188.142c-1.131,0.711-2.262,1.422-3.393,2.133c-2.512,1.58-3.496,4.834-1.957,7.462
			c1.465,2.501,4.943,3.541,7.462,1.957c1.131-0.711,2.262-1.422,3.393-2.133c2.512-1.58,3.496-4.834,1.957-7.462
			C80.696,187.598,77.218,186.558,74.699,188.142L74.699,188.142z"/>
	</g>
	<g>
		<path fill="#FFFFFF" d="M280.82,74.026c-1.11,0.743-2.221,1.486-3.332,2.229c-1.207,0.808-2.113,1.829-2.506,3.26
			c-0.387,1.408-0.188,2.943,0.55,4.203c1.434,2.447,4.988,3.612,7.462,1.957c1.11-0.743,2.221-1.486,3.332-2.229
			c1.207-0.808,2.113-1.829,2.506-3.26c0.387-1.408,0.188-2.943-0.55-4.203C286.849,73.536,283.294,72.371,280.82,74.026
			L280.82,74.026z"/>
	</g>
</g>
</svg>
