<?xml version="1.0" encoding="iso-8859-1"?>
<!-- Generator: Adobe Illustrator 16.0.0, SVG Export Plug-In . SVG Version: 6.00 Build 0)  -->
<!DOCTYPE svg PUBLIC "-//W3C//DTD SVG 1.1 Tiny//EN" "http://www.w3.org/Graphics/SVG/1.1/DTD/svg11-tiny.dtd">
<svg version="1.1" baseProfile="tiny" id="fts_x5F_light_x5F_dome"
	 xmlns="http://www.w3.org/2000/svg" xmlns:xlink="http://www.w3.org/1999/xlink" x="0px" y="0px" width="361px" height="361px"
	 viewBox="0 0 361 361" xml:space="preserve">
<g id="Fenster_gerade_4_" display="none">
	<path display="inline" fill="none" stroke="#FFFFFF" stroke-width="10" stroke-miterlimit="10" d="M245.308,267.18
		c0,3.911-3.156,7.083-7.049,7.083l-117.885,0.021c-3.894,0-7.05-3.171-7.05-7.083V129.7c0-3.911,3.156-7.083,7.05-7.083
		l117.885-0.021c3.893,0,7.049,3.172,7.049,7.083V267.18z"/>
	<g display="inline">
		<path fill="#FFFFFF" d="M173.315,263.559c0,2.213,0,4.426,0,6.639c0,2.726,2.274,5,5,5s5-2.274,5-5c0-2.213,0-4.426,0-6.639
			c0-2.726-2.274-5-5-5S173.315,260.833,173.315,263.559L173.315,263.559z"/>
	</g>
	<path display="inline" fill="none" stroke="#FFFFFF" stroke-width="10" stroke-miterlimit="10" d="M245.308,127.086
		c0,2.485-2.71,4.5-6.052,4.5l-119.88,0.021c-3.342,0-6.052-2.015-6.052-4.5v-9c0-2.485,2.71-4.5,6.052-4.5l119.88-0.021
		c3.342,0,6.052,2.015,6.052,4.5V127.086z"/>
	<path display="inline" fill="none" stroke="#FFFFFF" stroke-width="10" stroke-miterlimit="10" d="M258.489,280.733
		c0,4.685-3.782,8.485-8.446,8.485l-141.235,0.024c-4.665,0-8.446-3.799-8.446-8.485V106.021c0-4.685,3.782-8.486,8.446-8.486
		l141.235-0.024c4.664,0,8.446,3.801,8.446,8.486V280.733z"/>
</g>
<g>
	<path fill="#FFFFFF" d="M269.037,236.633c-0.293,2.183-2.15,1.357-4.161,1.357c-3.821,0-7.642,0-11.463,0
		c-12.94,0-25.881,0-38.822,0c-31.557,0-63.114,0-94.671,0c-9.748,0-19.496,0-29.244,0c-1.427,0-2.853,0-4.279,0
		c0.086,0-0.48,2.148,0.388-0.459c0.509-1.531,0.996-3.07,1.475-4.611c1.537-4.938,2.902-9.929,4.029-14.977
		c2.141-9.593,1.791-19.449,2.423-29.212c0.078-1.202,0.668-15.391,1.394-15.391c6.885,0,13.769,0,20.653,0
		c30.674,0,61.348,0,92.021,0c12.812,0,25.624,0,38.436,0c3.374,0,6.748,0,10.121,0c2.897,0,2.082,0.822,2.325,3.951
		c0.864,11.125,0.59,22.509,1.88,33.565c1.131,9.691,4.186,19.285,7.494,28.436c2.175,6.016,11.841,3.421,9.643-2.658
		c-2.521-6.971-4.672-14.113-6.29-21.347c-2.064-9.235-1.426-19.17-2.048-28.591c-0.415-6.283,0.595-16.923-4.947-21.205
		c-2.81-2.171-5.849-2.151-9.138-2.151c-25.218,0-50.436,0-75.654,0c-26.535,0-53.07,0-79.606,0c-1.694,0-3.388,0-5.082,0
		c-9.776,0-10.057,9.94-10.609,17.087c-0.749,9.683-0.544,19.552-1.606,29.185c-0.961,8.721-3.97,17.485-6.73,25.779
		c-2.137,6.419,3.241,12.599,9.779,12.599c2.178,0,4.355,0,6.533,0c10.785,0,21.569,0,32.354,0c31.768,0,63.537,0,95.305,0
		c12.286,0,24.572,0,36.858,0c7.614,0,19.47,1.807,20.882-8.699C279.527,232.989,269.893,230.268,269.037,236.633z"/>
</g>
<g>
	<g>
		<path fill="#FFFFFF" d="M270.907,162.244c-0.422-10.646-16.857-15.032-24.813-17.345c-21.883-6.361-45.449-7.756-68.109-7.816
			c-22.342-0.059-45.256,1.656-66.902,7.479c-8.163,2.196-25.588,6.737-26.022,17.682c-0.077,1.935,2.924,1.928,3,0
			c0.17-4.289,4.791-7.025,8.103-8.871c6.008-3.347,12.854-5.243,19.486-6.894c20.262-5.045,41.526-6.341,62.335-6.396
			c20.417-0.054,41.101,1.491,61.031,6.083c6.849,1.578,13.708,3.616,20,6.789c3.546,1.788,8.712,4.774,8.891,9.289
			C267.983,164.171,270.983,164.179,270.907,162.244L270.907,162.244z"/>
	</g>
	<g>
		<g>
			<path fill="#FFFFFF" d="M83.927,170.258c49.796,0,99.593,0,149.39,0c12.556,0,25.112,0,37.668,0c6.449,0,6.449-10,0-10
				c-49.796,0-99.593,0-149.39,0c-12.556,0-25.112,0-37.668,0C77.479,160.258,77.479,170.258,83.927,170.258L83.927,170.258z"/>
		</g>
		<g>
			<path fill="#FFFFFF" d="M79.106,163.929c-1.148,4.009-2.296,8.018-3.444,12.027c-1.779,6.213,7.871,8.847,9.643,2.658
				c1.148-4.009,2.296-8.018,3.444-12.027C90.528,160.375,80.878,157.741,79.106,163.929L79.106,163.929z"/>
		</g>
		<g>
			<path fill="#FFFFFF" d="M266.164,166.587c1.148,4.009,2.296,8.018,3.445,12.027c1.772,6.188,11.422,3.555,9.643-2.658
				c-1.148-4.009-2.296-8.018-3.445-12.027C274.034,157.741,264.384,160.375,266.164,166.587L266.164,166.587z"/>
		</g>
	</g>
</g>
<g>
	<path fill="#FFFFFF" d="M77.869,226.38c-0.09,4.467-1.548,13.803-7.554,14.112c-4.491,0.231-4.513,7.232,0,7
		c10.441-0.537,14.375-12.263,14.554-21.112C84.96,221.864,77.96,221.873,77.869,226.38L77.869,226.38z"/>
</g>
<g>
	<path fill="#FFFFFF" d="M271.099,226.561c0.179,8.849,4.113,20.574,14.554,21.111c4.513,0.232,4.491-6.769,0-7
		c-6.005-0.309-7.464-9.645-7.554-14.111C278.008,222.053,271.007,222.044,271.099,226.561L271.099,226.561z"/>
</g>
<g>
	<path fill="#FFFFFF" d="M81.369,229.88c49.65,0,99.299,0,148.949,0c14.76,0,29.521,0,44.281,0c4.514,0,4.514-7,0-7
		c-49.65,0-99.299,0-148.949,0c-14.76,0-29.521,0-44.281,0C76.855,222.88,76.855,229.88,81.369,229.88L81.369,229.88z"/>
</g>
<g>
	<path fill="#FFFFFF" d="M70.315,249c48.286,0,96.572,0,144.858,0c23.494,0,46.987,0,70.48,0c4.514,0,4.514-7,0-7
		c-48.286,0-96.572,0-144.858,0c-23.494,0-46.987,0-70.48,0C65.801,242,65.801,249,70.315,249L70.315,249z"/>
</g>
</svg>
