<?xml version="1.0" encoding="iso-8859-1"?>
<!-- Generator: Adobe Illustrator 16.0.0, SVG Export Plug-In . SVG Version: 6.00 Build 0)  -->
<!DOCTYPE svg PUBLIC "-//W3C//DTD SVG 1.1//EN" "http://www.w3.org/Graphics/SVG/1.1/DTD/svg11.dtd">
<svg version="1.1" xmlns="http://www.w3.org/2000/svg" xmlns:xlink="http://www.w3.org/1999/xlink" x="0px" y="0px" width="361px"
	 height="361px" viewBox="0 0 361 361" style="enable-background:new 0 0 361 361;" xml:space="preserve">
<g id="fts_x5F_blade_x5F_z_x5F_20">
	<g>
		<g>
			<path style="fill:#FFFFFF;" d="M178.833,70.667c0,19.833,0,39.667,0,59.5c0,1.935,3,1.935,3,0c0-19.833,0-39.667,0-59.5
				C181.833,68.732,178.833,68.732,178.833,70.667L178.833,70.667z"/>
		</g>
	</g>
	<g>
		<g>
			<path style="fill:#FFFFFF;" d="M179,159.082c0,13.55,0,27.1,0,40.651c0,1.935,3,1.935,3,0c0-13.551,0-27.101,0-40.651
				C182,157.147,179,157.147,179,159.082L179,159.082z"/>
		</g>
	</g>
	<g>
		<g>
			<path style="fill:#FFFFFF;" d="M179,230.667c0,19.667,0,39.333,0,59c0,1.935,3,1.935,3,0c0-19.667,0-39.333,0-59
				C182,228.732,179,228.732,179,230.667L179,230.667z"/>
		</g>
	</g>
	<g style="display:none;">
		<g style="display:inline;">
			<g>
				<path style="fill:#FFFFFF;" d="M210.117,134.19c0,9.159,0,18.318,0,27.477c0,1.935,3,1.935,3,0c0-9.159,0-18.318,0-27.477
					C213.117,132.256,210.117,132.256,210.117,134.19L210.117,134.19z"/>
			</g>
		</g>
		<g style="display:inline;">
			<g>
				<path style="fill:#FFFFFF;" d="M210.236,198c0,10.444,0,20.89,0,31.334c0,1.935,3,1.935,3,0c0-10.444,0-20.89,0-31.334
					C213.236,196.065,210.236,196.065,210.236,198L210.236,198z"/>
			</g>
		</g>
		<g style="display:inline;">
			<g>
				<path style="fill:#FFFFFF;" d="M210.236,262c0,9.171,0,18.341,0,27.512c0,1.935,3,1.935,3,0c0-9.171,0-18.341,0-27.512
					C213.236,260.065,210.236,260.065,210.236,262L210.236,262z"/>
			</g>
		</g>
	</g>
	<g>
		<g>
			<g>
				<g>
					<path style="fill:#FFFFFF;" d="M169.468,147.895c6.566,2.737,13.133,5.475,19.7,8.212c2.521,1.051,5.496-1.114,6.15-3.492
						c0.792-2.879-0.979-5.103-3.492-6.15c-6.566-2.737-13.133-5.475-19.7-8.212c-2.521-1.051-5.497,1.114-6.15,3.492
						C165.184,144.624,166.955,146.847,169.468,147.895L169.468,147.895z"/>
				</g>
			</g>
			<g>
				<g>
					<path style="fill:#FFFFFF;" d="M192.415,156.365c22.108-4.432,44.218-8.863,66.326-13.295c6.32-1.267,3.638-10.905-2.658-9.643
						c-22.108,4.432-44.218,8.863-66.326,13.295C183.437,147.989,186.119,157.627,192.415,156.365L192.415,156.365z"/>
				</g>
			</g>
			<g>
				<g>
					<path style="fill:#FFFFFF;" d="M105.802,161.185c22.108-4.43,44.217-8.86,66.325-13.29c6.32-1.266,3.638-10.904-2.658-9.643
						c-22.108,4.43-44.217,8.86-66.325,13.29C96.823,152.809,99.505,162.447,105.802,161.185L105.802,161.185z"/>
				</g>
			</g>
		</g>
		<g>
			<g>
				<path style="fill:#FFFFFF;" d="M106.097,151.588c-0.843,0.15-1.685,0.3-2.527,0.449c-1.331,0.237-2.6,1.381-3.26,2.506
					c-0.738,1.26-0.937,2.795-0.55,4.203c0.375,1.363,1.287,2.545,2.506,3.26c1.354,0.792,2.707,0.816,4.203,0.55
					c0.843-0.15,1.685-0.3,2.527-0.449c1.331-0.237,2.6-1.381,3.26-2.506c0.738-1.26,0.937-2.795,0.55-4.203
					c-0.375-1.363-1.287-2.545-2.506-3.26C108.946,151.345,107.593,151.322,106.097,151.588L106.097,151.588z"/>
			</g>
		</g>
		<g>
			<g>
				<path style="fill:#FFFFFF;" d="M255.782,133.428c-0.837,0.175-1.674,0.349-2.511,0.523c-1.343,0.28-2.582,1.351-3.259,2.506
					c-0.738,1.26-0.938,2.795-0.55,4.203c0.375,1.363,1.287,2.545,2.506,3.26c1.324,0.775,2.733,0.856,4.203,0.55
					c0.837-0.175,1.674-0.349,2.511-0.523c1.343-0.28,2.582-1.351,3.259-2.506c0.738-1.26,0.938-2.795,0.55-4.203
					c-0.375-1.363-1.287-2.545-2.506-3.26C258.661,133.202,257.252,133.122,255.782,133.428L255.782,133.428z"/>
			</g>
		</g>
	</g>
	<g>
		<g>
			<g>
				<g>
					<path style="fill:#FFFFFF;" d="M169.107,214.511c6.566,2.738,13.131,5.477,19.698,8.215c2.521,1.052,5.496-1.114,6.15-3.492
						c0.792-2.88-0.979-5.103-3.492-6.15c-6.565-2.738-13.132-5.477-19.698-8.215c-2.521-1.052-5.497,1.114-6.15,3.492
						C164.822,211.24,166.593,213.463,169.107,214.511L169.107,214.511z"/>
				</g>
			</g>
			<g>
				<g>
					<path style="fill:#FFFFFF;" d="M192.053,222.979c22.109-4.431,44.219-8.862,66.328-13.293c6.32-1.267,3.638-10.904-2.658-9.643
						c-22.109,4.431-44.219,8.862-66.328,13.293C183.074,214.604,185.757,224.241,192.053,222.979L192.053,222.979z"/>
				</g>
			</g>
			<g>
				<g>
					<path style="fill:#FFFFFF;" d="M105.438,227.804c22.109-4.431,44.218-8.862,66.327-13.293c6.32-1.267,3.638-10.904-2.658-9.643
						c-22.109,4.431-44.218,8.862-66.327,13.293C96.459,219.428,99.142,229.065,105.438,227.804L105.438,227.804z"/>
				</g>
			</g>
		</g>
		<g>
			<g>
				<path style="fill:#FFFFFF;" d="M105.733,218.207c-0.842,0.149-1.684,0.3-2.525,0.45c-1.331,0.237-2.6,1.38-3.26,2.506
					c-0.738,1.26-0.937,2.795-0.55,4.203c0.375,1.363,1.287,2.545,2.506,3.259c1.353,0.793,2.707,0.817,4.203,0.55
					c0.842-0.149,1.684-0.3,2.525-0.45c1.331-0.237,2.6-1.38,3.26-2.506c0.738-1.26,0.937-2.795,0.55-4.203
					c-0.375-1.363-1.287-2.545-2.506-3.259C108.583,217.964,107.229,217.939,105.733,218.207L105.733,218.207z"/>
			</g>
		</g>
		<g>
			<g>
				<path style="fill:#FFFFFF;" d="M255.422,200.047c-0.838,0.175-1.676,0.35-2.515,0.524c-1.343,0.279-2.582,1.351-3.259,2.506
					c-0.738,1.26-0.938,2.795-0.55,4.203c0.375,1.363,1.287,2.545,2.506,3.259c1.324,0.775,2.733,0.856,4.203,0.55
					c0.838-0.175,1.676-0.35,2.515-0.524c1.343-0.279,2.582-1.351,3.259-2.506c0.738-1.26,0.938-2.795,0.55-4.203
					c-0.375-1.363-1.287-2.545-2.506-3.259C258.301,199.821,256.892,199.74,255.422,200.047L255.422,200.047z"/>
			</g>
		</g>
	</g>
</g>
<g id="Ebene_1">
</g>
</svg>
