<?xml version="1.0" encoding="iso-8859-1"?>
<!-- Generator: Adobe Illustrator 16.0.0, SVG Export Plug-In . SVG Version: 6.00 Build 0)  -->
<!DOCTYPE svg PUBLIC "-//W3C//DTD SVG 1.1 Tiny//EN" "http://www.w3.org/Graphics/SVG/1.1/DTD/svg11-tiny.dtd">
<svg version="1.1" baseProfile="tiny" id="fts_x5F_window_x5F_2w_x5F_open"
	 xmlns="http://www.w3.org/2000/svg" xmlns:xlink="http://www.w3.org/1999/xlink" x="0px" y="0px" width="361px" height="361px"
	 viewBox="0 0 361 361" xml:space="preserve">
<path fill="none" stroke="#FFFFFF" stroke-width="10" stroke-miterlimit="10" d="M284.315,254.982c0,3.217-2.241,6.299-5.006,6.883
	l-71.986,21.692c-2.765,0.584-5.006-1.551-5.006-4.768V156.775c0-3.217,2.241-6.299,5.006-6.884l71.986-21.692
	c2.765-0.584,5.006,1.551,5.006,4.768V254.982z"/>
<g>
	<path fill="#FFFFFF" d="M204.189,222.967c1.937-0.399,3.874-0.799,5.811-1.199c2.67-0.551,4.179-3.654,3.492-6.15
		c-0.757-2.754-3.484-4.042-6.15-3.492c-1.937,0.399-3.874,0.799-5.811,1.199c-2.67,0.551-4.179,3.654-3.492,6.15
		C198.796,222.229,201.522,223.517,204.189,222.967L204.189,222.967z"/>
</g>
<g>
	<path fill="none" stroke="#FFFFFF" stroke-width="10" stroke-miterlimit="10" d="M284.298,253.18c0,3.911-3.156,7.083-7.049,7.083
		l-197.885,0.021c-3.894,0-7.05-3.171-7.05-7.083V125.7c0-3.911,3.156-7.083,7.05-7.083l197.885-0.021
		c3.893,0,7.049,3.172,7.049,7.083V253.18z"/>
	<g>
		<path fill="#FFFFFF" d="M172.001,194.462c2.104,0,4.208,0,6.313,0c2.726,0,5-2.274,5-5s-2.274-5-5-5c-2.104,0-4.208,0-6.313,0
			c-2.726,0-5,2.274-5,5S169.276,194.462,172.001,194.462L172.001,194.462z"/>
	</g>
	
		<line fill="none" stroke="#FFFFFF" stroke-width="10" stroke-miterlimit="10" x1="178.306" y1="119.46" x2="178.306" y2="256.635"/>
	<path fill="none" stroke="#FFFFFF" stroke-width="10" stroke-miterlimit="10" d="M284.298,123.086c0,2.485-2.71,4.5-6.052,4.5
		l-199.88,0.021c-3.342,0-6.052-2.015-6.052-4.5v-9c0-2.485,2.71-4.5,6.052-4.5l199.88-0.021c3.342,0,6.052,2.015,6.052,4.5V123.086
		z"/>
</g>
</svg>
