<?xml version="1.0" encoding="iso-8859-1"?>
<!-- Generator: Adobe Illustrator 16.0.0, SVG Export Plug-In . SVG Version: 6.00 Build 0)  -->
<!DOCTYPE svg PUBLIC "-//W3C//DTD SVG 1.1//EN" "http://www.w3.org/Graphics/SVG/1.1/DTD/svg11.dtd">
<svg version="1.1" xmlns="http://www.w3.org/2000/svg" xmlns:xlink="http://www.w3.org/1999/xlink" x="0px" y="0px" width="361px"
	 height="361px" viewBox="0 0 361 361" style="enable-background:new 0 0 361 361;" xml:space="preserve">
<g id="fts_x5F_blade_x5F_s_x5F_00">
	<g>
		<g>
			<path style="fill:#FFFFFF;" d="M178.833,70.667c0,14.222,0,28.445,0,42.667c0,1.935,3,1.935,3,0c0-14.222,0-28.445,0-42.667
				C181.833,68.732,178.833,68.732,178.833,70.667L178.833,70.667z"/>
		</g>
	</g>
	<g>
		<g>
			<path style="fill:#FFFFFF;" d="M179,154.082c0,13.55,0,27.1,0,40.651c0,1.935,3,1.935,3,0c0-13.551,0-27.101,0-40.651
				C182,152.147,179,152.147,179,154.082L179,154.082z"/>
		</g>
	</g>
	<g>
		<g>
			<path style="fill:#FFFFFF;" d="M179,237.334c0,17.444,0,34.889,0,52.333c0,1.935,3,1.935,3,0c0-17.444,0-34.889,0-52.333
				C182,235.399,179,235.399,179,237.334L179,237.334z"/>
		</g>
	</g>
	<g style="display:none;">
		<g style="display:inline;">
			<g>
				<path style="fill:#FFFFFF;" d="M210.117,134.19c0,9.159,0,18.318,0,27.477c0,1.935,3,1.935,3,0c0-9.159,0-18.318,0-27.477
					C213.117,132.256,210.117,132.256,210.117,134.19L210.117,134.19z"/>
			</g>
		</g>
		<g style="display:inline;">
			<g>
				<path style="fill:#FFFFFF;" d="M210.236,198c0,10.444,0,20.89,0,31.334c0,1.935,3,1.935,3,0c0-10.444,0-20.89,0-31.334
					C213.236,196.065,210.236,196.065,210.236,198L210.236,198z"/>
			</g>
		</g>
		<g style="display:inline;">
			<g>
				<path style="fill:#FFFFFF;" d="M210.236,262c0,9.171,0,18.341,0,27.512c0,1.935,3,1.935,3,0c0-9.171,0-18.341,0-27.512
					C213.236,260.065,210.236,260.065,210.236,262L210.236,262z"/>
			</g>
		</g>
	</g>
	<g>
		<g>
			<g>
				<path style="fill:#FFFFFF;" d="M111.662,223.422c14.953-7.449,29.538-14.735,46.582-15.276
					c11.074-0.351,21.427,2.563,32.165,4.725c8.835,1.779,17.922,2.479,26.911,1.802c11.233-0.846,21.943-4.223,31.727-9.757
					c1.075-0.607,2.134-1.244,3.22-1.832c1.201-0.648,0.1-0.069,0.134-0.08c-2.209,0.522-3.991-0.536-5.348-3.175
					c-0.351-1.003-0.072-1.387-0.238-0.214c-0.985,6.978-4.919,19.075,3.356,23.244c5.743,2.894,10.808-5.732,5.047-8.635
					c-1.207-0.608,0.977-10.24,1.239-11.95c0.34-2.206,0.886-4.474-0.365-6.512c-2.269-3.698-6.331-2.728-9.458-0.992
					c-8.956,4.97-17.782,8.691-28.12,9.794c-21.059,2.243-40.742-7.037-61.723-6.371c-18.22,0.577-34.211,8.642-50.175,16.595
					C100.842,217.663,105.909,226.288,111.662,223.422L111.662,223.422z"/>
			</g>
		</g>
		<g>
			<g>
				<path style="fill:#FFFFFF;" d="M109.196,214.054c-0.775,0.361-1.551,0.723-2.326,1.085c-1.223,0.57-2.161,2.002-2.506,3.259
					c-0.387,1.408-0.188,2.943,0.55,4.203c0.714,1.219,1.896,2.131,3.26,2.506c1.515,0.417,2.825,0.093,4.203-0.55
					c0.775-0.361,1.551-0.723,2.326-1.085c1.223-0.57,2.161-2.002,2.506-3.259c0.387-1.408,0.188-2.943-0.55-4.203
					c-0.714-1.219-1.896-2.131-3.26-2.506C111.883,213.087,110.574,213.411,109.196,214.054L109.196,214.054z"/>
			</g>
		</g>
		<g>
			<g>
				<path style="fill:#FFFFFF;" d="M253.592,215.093c-0.797-0.312-1.594-0.622-2.392-0.933c-0.998-0.39-2.348-0.097-3.236,0.423
					c-0.938,0.551-1.641,1.461-1.93,2.511c-0.299,1.084-0.145,2.266,0.423,3.236c0.597,1.018,1.448,1.516,2.511,1.93
					c0.797,0.311,1.594,0.622,2.392,0.933c0.998,0.39,2.348,0.097,3.236-0.423c0.938-0.551,1.641-1.461,1.93-2.511
					c0.299-1.084,0.145-2.266-0.423-3.236C255.506,216.005,254.654,215.507,253.592,215.093L253.592,215.093z"/>
			</g>
		</g>
	</g>
	<g>
		<g>
			<g>
				<path style="fill:#FFFFFF;" d="M111.412,151.895c14.953-7.45,29.539-14.735,46.584-15.275
					c11.074-0.351,21.427,2.563,32.165,4.725c8.835,1.779,17.922,2.477,26.911,1.8c11.233-0.846,21.942-4.224,31.726-9.758
					c1.074-0.608,2.133-1.245,3.22-1.832c1.2-0.649,0.1-0.069,0.134-0.08c-2.209,0.522-3.991-0.536-5.348-3.174
					c-0.352-1.004-0.072-1.387-0.238-0.213c-0.984,6.977-4.918,19.073,3.357,23.242c5.743,2.893,10.808-5.733,5.047-8.635
					c-1.207-0.608,0.976-10.237,1.238-11.949c0.34-2.207,0.885-4.473-0.365-6.512c-2.268-3.699-6.332-2.728-9.459-0.993
					c-8.956,4.969-17.78,8.692-28.118,9.794c-21.059,2.245-40.742-7.035-61.723-6.37c-18.22,0.578-34.212,8.641-50.177,16.594
					C100.592,146.136,105.659,154.761,111.412,151.895L111.412,151.895z"/>
			</g>
		</g>
		<g>
			<g>
				<path style="fill:#FFFFFF;" d="M108.945,142.526c-0.774,0.361-1.549,0.722-2.324,1.083c-1.223,0.57-2.161,2.003-2.506,3.26
					c-0.387,1.408-0.188,2.943,0.55,4.203c0.714,1.219,1.896,2.131,3.26,2.506c1.516,0.417,2.825,0.092,4.203-0.55
					c0.774-0.361,1.549-0.722,2.324-1.083c1.223-0.57,2.161-2.003,2.506-3.26c0.387-1.408,0.188-2.943-0.55-4.203
					c-0.714-1.219-1.896-2.131-3.26-2.506C111.632,141.559,110.323,141.884,108.945,142.526L108.945,142.526z"/>
			</g>
		</g>
		<g>
			<g>
				<path style="fill:#FFFFFF;" d="M253.343,143.563c-0.797-0.31-1.594-0.619-2.391-0.929c-0.999-0.388-2.347-0.098-3.236,0.423
					c-0.938,0.55-1.641,1.46-1.93,2.51c-0.299,1.084-0.145,2.267,0.423,3.236c0.596,1.017,1.448,1.518,2.511,1.93
					c0.797,0.31,1.594,0.619,2.391,0.929c0.999,0.388,2.347,0.098,3.236-0.423c0.938-0.55,1.641-1.46,1.93-2.51
					c0.299-1.084,0.145-2.267-0.423-3.236C255.258,144.477,254.405,143.976,253.343,143.563L253.343,143.563z"/>
			</g>
		</g>
	</g>
</g>
<g id="Ebene_1">
</g>
</svg>
