<?xml version="1.0" encoding="iso-8859-1"?>
<!-- Generator: Adobe Illustrator 16.0.0, SVG Export Plug-In . SVG Version: 6.00 Build 0)  -->
<!DOCTYPE svg PUBLIC "-//W3C//DTD SVG 1.1//EN" "http://www.w3.org/Graphics/SVG/1.1/DTD/svg11.dtd">
<svg version="1.1" xmlns="http://www.w3.org/2000/svg" xmlns:xlink="http://www.w3.org/1999/xlink" x="0px" y="0px" width="361px"
	 height="361px" viewBox="0 0 361 361" style="enable-background:new 0 0 361 361;" xml:space="preserve">
<g id="fts_x5F_blade_x5F_z_x5F_90">
	<g>
		<g>
			<path style="fill:#FFFFFF;" d="M178.833,70.667c0,19.833,0,39.667,0,59.5c0,1.935,3,1.935,3,0c0-19.833,0-39.667,0-59.5
				C181.833,68.732,178.833,68.732,178.833,70.667L178.833,70.667z"/>
		</g>
	</g>
	<g>
		<g>
			<path style="fill:#FFFFFF;" d="M179,159.082c0,13.55,0,27.1,0,40.651c0,1.935,3,1.935,3,0c0-13.551,0-27.101,0-40.651
				C182,157.147,179,157.147,179,159.082L179,159.082z"/>
		</g>
	</g>
	<g>
		<g>
			<path style="fill:#FFFFFF;" d="M179,230.667c0,19.667,0,39.333,0,59c0,1.935,3,1.935,3,0c0-19.667,0-39.333,0-59
				C182,228.732,179,228.732,179,230.667L179,230.667z"/>
		</g>
	</g>
	<g style="display:none;">
		<g style="display:inline;">
			<g>
				<path style="fill:#FFFFFF;" d="M210.117,134.19c0,9.159,0,18.318,0,27.477c0,1.935,3,1.935,3,0c0-9.159,0-18.318,0-27.477
					C213.117,132.256,210.117,132.256,210.117,134.19L210.117,134.19z"/>
			</g>
		</g>
		<g style="display:inline;">
			<g>
				<path style="fill:#FFFFFF;" d="M210.236,198c0,10.444,0,20.89,0,31.334c0,1.935,3,1.935,3,0c0-10.444,0-20.89,0-31.334
					C213.236,196.065,210.236,196.065,210.236,198L210.236,198z"/>
			</g>
		</g>
		<g style="display:inline;">
			<g>
				<path style="fill:#FFFFFF;" d="M210.236,262c0,9.171,0,18.341,0,27.512c0,1.935,3,1.935,3,0c0-9.171,0-18.341,0-27.512
					C213.236,260.065,210.236,260.065,210.236,262L210.236,262z"/>
			</g>
		</g>
	</g>
	<g>
		<g>
			<g>
				<g>
					<path style="fill:#FFFFFF;" d="M174.046,157.699c5.942-3.913,11.884-7.825,17.825-11.737c5.36-3.529,0.356-12.193-5.047-8.635
						c-5.942,3.913-11.884,7.825-17.825,11.737C163.639,152.594,168.643,161.257,174.046,157.699L174.046,157.699z"/>
				</g>
			</g>
			<g>
				<g>
					<path style="fill:#FFFFFF;" d="M194.71,142.627c8.689-20.807,17.379-41.613,26.068-62.42c2.484-5.949-7.195-8.518-9.643-2.658
						c-8.689,20.807-17.379,41.613-26.068,62.42C182.583,145.918,192.263,148.486,194.71,142.627L194.71,142.627z"/>
				</g>
			</g>
			<g>
				<g>
					<path style="fill:#FFFFFF;" d="M150.274,217.13c8.69-20.807,17.38-41.612,26.069-62.419c2.485-5.949-7.195-8.518-9.643-2.658
						c-8.69,20.806-17.38,41.612-26.069,62.419C138.147,220.421,147.827,222.989,150.274,217.13L150.274,217.13z"/>
				</g>
			</g>
		</g>
		<g>
			<g>
				<path style="fill:#FFFFFF;" d="M142.862,210.77c-0.346,0.782-0.692,1.564-1.039,2.346c-0.183,0.435-0.366,0.869-0.55,1.303
					c-0.26,0.967-0.26,1.934,0,2.9c0.375,1.363,1.287,2.545,2.506,3.259c1.26,0.738,2.795,0.938,4.203,0.55
					c1.235-0.339,2.718-1.283,3.26-2.506c0.346-0.782,0.692-1.564,1.039-2.346c0.183-0.435,0.366-0.869,0.55-1.303
					c0.26-0.967,0.26-1.934,0-2.9c-0.375-1.363-1.287-2.545-2.506-3.259c-1.26-0.738-2.795-0.938-4.203-0.55
					C144.887,208.603,143.404,209.547,142.862,210.77L142.862,210.77z"/>
			</g>
		</g>
		<g>
			<g>
				<path style="fill:#FFFFFF;" d="M210.963,77.822c-0.324,0.791-0.648,1.583-0.972,2.374c-0.523,1.277-0.116,3.066,0.55,4.203
					c0.714,1.219,1.896,2.131,3.259,2.506c1.408,0.387,2.943,0.188,4.203-0.55c0.368-0.284,0.735-0.569,1.104-0.853
					c0.676-0.68,1.144-1.482,1.402-2.407c0.324-0.791,0.648-1.583,0.972-2.374c0.523-1.277,0.116-3.066-0.55-4.203
					c-0.714-1.219-1.896-2.131-3.259-2.506c-1.408-0.387-2.943-0.188-4.203,0.55c-0.368,0.284-0.735,0.569-1.104,0.853
					C211.689,76.095,211.222,76.897,210.963,77.822L210.963,77.822z"/>
			</g>
		</g>
	</g>
	<g>
		<g>
			<g>
				<g>
					<path style="fill:#FFFFFF;" d="M173.684,224.317c5.942-3.913,11.884-7.825,17.826-11.738c5.36-3.529,0.356-12.193-5.047-8.635
						c-5.942,3.913-11.884,7.825-17.826,11.738C163.277,219.212,168.281,227.876,173.684,224.317L173.684,224.317z"/>
				</g>
			</g>
			<g>
				<g>
					<path style="fill:#FFFFFF;" d="M194.348,209.243c8.689-20.806,17.38-41.612,26.069-62.418c2.484-5.949-7.195-8.518-9.643-2.658
						c-8.689,20.806-17.38,41.612-26.069,62.418C182.221,212.534,191.9,215.103,194.348,209.243L194.348,209.243z"/>
				</g>
			</g>
			<g>
				<g>
					<path style="fill:#FFFFFF;" d="M149.913,283.747c8.69-20.806,17.38-41.612,26.069-62.418c2.485-5.949-7.195-8.518-9.643-2.658
						c-8.69,20.806-17.38,41.612-26.069,62.418C137.785,287.038,147.465,289.606,149.913,283.747L149.913,283.747z"/>
				</g>
			</g>
		</g>
		<g>
			<g>
				<path style="fill:#FFFFFF;" d="M142.501,277.388c-0.346,0.782-0.693,1.564-1.04,2.346c-0.183,0.435-0.367,0.869-0.55,1.303
					c-0.26,0.967-0.26,1.934,0,2.9c0.375,1.363,1.287,2.545,2.506,3.259c1.26,0.738,2.795,0.938,4.203,0.55
					c1.235-0.339,2.718-1.283,3.26-2.506c0.346-0.782,0.693-1.564,1.04-2.346c0.183-0.435,0.366-0.869,0.55-1.303
					c0.26-0.967,0.26-1.934,0-2.9c-0.375-1.363-1.287-2.545-2.506-3.259c-1.26-0.738-2.795-0.938-4.203-0.55
					C144.525,275.221,143.043,276.165,142.501,277.388L142.501,277.388z"/>
			</g>
		</g>
		<g>
			<g>
				<path style="fill:#FFFFFF;" d="M210.601,144.439c-0.324,0.792-0.647,1.583-0.971,2.375c-0.522,1.278-0.116,3.065,0.55,4.203
					c0.714,1.219,1.896,2.131,3.259,2.506c1.408,0.387,2.943,0.188,4.203-0.55c0.368-0.284,0.735-0.569,1.104-0.853
					c0.676-0.68,1.144-1.482,1.402-2.407c0.324-0.792,0.647-1.583,0.971-2.375c0.522-1.278,0.116-3.065-0.55-4.203
					c-0.714-1.219-1.896-2.131-3.259-2.506c-1.408-0.387-2.943-0.188-4.203,0.55c-0.368,0.284-0.735,0.569-1.104,0.853
					C211.327,142.713,210.859,143.515,210.601,144.439L210.601,144.439z"/>
			</g>
		</g>
	</g>
</g>
<g id="Ebene_1">
</g>
</svg>
