<?xml version="1.0" encoding="iso-8859-1"?>
<!-- Generator: Adobe Illustrator 16.0.0, SVG Export Plug-In . SVG Version: 6.00 Build 0)  -->
<!DOCTYPE svg PUBLIC "-//W3C//DTD SVG 1.1//EN" "http://www.w3.org/Graphics/SVG/1.1/DTD/svg11.dtd">
<svg version="1.1" xmlns="http://www.w3.org/2000/svg" xmlns:xlink="http://www.w3.org/1999/xlink" x="0px" y="0px" width="361px"
	 height="361px" viewBox="0 0 361 361" style="enable-background:new 0 0 361 361;" xml:space="preserve">
<g id="fts_x5F_blade_x5F_z_x5F_sun">
	<g id="klein_normal" style="display:none;">
		<g style="display:inline;">
			<g>
				<g>
					<path style="fill:#FFFFFF;" d="M200.166,184.207c7.868,0.08,15.737,0.16,23.605,0.24c6.451,0.066,6.445-9.934,0-10
						c-7.868-0.08-15.737-0.161-23.605-0.241C193.715,174.141,193.721,184.142,200.166,184.207L200.166,184.207z"/>
				</g>
			</g>
			<g>
				<g>
					<path style="fill:#FFFFFF;" d="M227.006,183.779c20.824-13.724,41.649-27.448,62.474-41.171
						c5.358-3.531,0.355-12.195-5.047-8.635c-20.825,13.724-41.649,27.448-62.474,41.171
						C216.601,178.676,221.604,187.34,227.006,183.779L227.006,183.779z"/>
				</g>
			</g>
			<g>
				<g>
					<path style="fill:#FFFFFF;" d="M140.216,224.696c20.825-13.724,41.649-27.448,62.473-41.172
						c5.358-3.531,0.355-12.195-5.047-8.635c-20.825,13.724-41.649,27.448-62.473,41.172
						C129.811,219.593,134.814,228.257,140.216,224.696L140.216,224.696z"/>
				</g>
			</g>
		</g>
		<g style="display:inline;">
			<g>
				<g>
					<path style="fill:#FFFFFF;" d="M200.168,250.735c7.868,0.08,15.737,0.161,23.605,0.241c6.451,0.066,6.444-9.935,0-10
						c-7.868-0.08-15.737-0.161-23.605-0.241C193.717,240.67,193.724,250.67,200.168,250.735L200.168,250.735z"/>
				</g>
			</g>
			<g>
				<g>
					<path style="fill:#FFFFFF;" d="M227.008,250.308c20.824-13.724,41.648-27.448,62.473-41.172
						c5.358-3.531,0.355-12.195-5.047-8.635c-20.824,13.724-41.648,27.448-62.473,41.172
						C216.603,245.204,221.605,253.868,227.008,250.308L227.008,250.308z"/>
				</g>
			</g>
			<g>
				<g>
					<path style="fill:#FFFFFF;" d="M140.218,291.226c20.825-13.725,41.649-27.448,62.474-41.173
						c5.358-3.531,0.355-12.195-5.047-8.635c-20.825,13.725-41.649,27.448-62.474,41.173
						C129.813,286.122,134.816,294.786,140.218,291.226L140.218,291.226z"/>
				</g>
			</g>
		</g>
	</g>
	<g style="display:none;">
		<g style="display:inline;">
			<g>
				<path style="fill:#FFFFFF;" d="M210.117,134.19c0,9.159,0,18.318,0,27.477c0,1.935,3,1.935,3,0c0-9.159,0-18.318,0-27.477
					C213.117,132.256,210.117,132.256,210.117,134.19L210.117,134.19z"/>
			</g>
		</g>
		<g style="display:inline;">
			<g>
				<path style="fill:#FFFFFF;" d="M210.236,198c0,10.444,0,20.89,0,31.334c0,1.935,3,1.935,3,0c0-10.444,0-20.89,0-31.334
					C213.236,196.065,210.236,196.065,210.236,198L210.236,198z"/>
			</g>
		</g>
		<g style="display:inline;">
			<g>
				<path style="fill:#FFFFFF;" d="M210.236,262c0,9.171,0,18.341,0,27.512c0,1.935,3,1.935,3,0c0-9.171,0-18.341,0-27.512
					C213.236,260.065,210.236,260.065,210.236,262L210.236,262z"/>
			</g>
		</g>
	</g>
	<g id="sonne">
		<path style="fill:none;stroke:#FFFFFF;stroke-width:10;stroke-miterlimit:10;" d="M90.708,118.978c0,2.245,1.82,4.064,4.064,4.064
			h23.371c2.245,0,4.064-1.82,4.064-4.064V95.606c0-2.245-1.82-4.064-4.064-4.064H94.772c-2.245,0-4.064,1.82-4.064,4.064V118.978z"
			/>
		<g>
			<g>
				<path style="fill:#FFFFFF;" d="M137.797,71.131c-2.406,2.407-4.813,4.813-7.219,7.219c-1.926,1.926-1.926,5.145,0,7.071
					s5.145,1.926,7.071,0c2.406-2.407,4.813-4.813,7.219-7.219c1.926-1.926,1.926-5.145,0-7.071S139.723,69.205,137.797,71.131
					L137.797,71.131z"/>
			</g>
		</g>
		<g>
			<g>
				<path style="fill:#FFFFFF;" d="M175.708,102.042c-11.167,0-22.333,0-33.5,0c-6.449,0-6.449,10,0,10c11.167,0,22.333,0,33.5,0
					C182.156,112.042,182.156,102.042,175.708,102.042L175.708,102.042z"/>
			</g>
		</g>
		<g>
			<g>
				<path style="fill:#FFFFFF;" d="M78.369,143.702c1.99-1.99,3.979-3.979,5.969-5.969c1.926-1.926,1.926-5.145,0-7.071
					s-5.145-1.926-7.071,0c-1.99,1.99-3.979,3.979-5.969,5.969c-1.926,1.926-1.926,5.145,0,7.071S76.442,145.628,78.369,143.702
					L78.369,143.702z"/>
			</g>
		</g>
		<g>
			<g>
				<path style="fill:#FFFFFF;" d="M111.958,175.792c0-11.167,0-22.333,0-33.5c0-6.449-10-6.449-10,0c0,11.167,0,22.333,0,33.5
					C101.958,182.24,111.958,182.24,111.958,175.792L111.958,175.792z"/>
			</g>
		</g>
		<g>
			<g>
				<path style="fill:#FFFFFF;" d="M160.337,154.351c-7.896-7.896-15.792-15.792-23.688-23.688
					c-4.564-4.563-11.635,2.507-7.071,7.071c7.896,7.896,15.792,15.792,23.688,23.688
					C157.83,165.985,164.901,158.915,160.337,154.351L160.337,154.351z"/>
			</g>
		</g>
	</g>
	<g>
		<g>
			<g>
				<path style="fill:#FFFFFF;" d="M210.481,133.667c0,10.087,0,20.175,0,30.262c0,1.935,3,1.935,3,0c0-10.087,0-20.175,0-30.262
					C213.481,131.732,210.481,131.732,210.481,133.667L210.481,133.667z"/>
			</g>
		</g>
		<g>
			<g>
				<path style="fill:#FFFFFF;" d="M210.6,192.771c0,12.013,0,24.026,0,36.039c0,1.935,3,1.935,3,0c0-12.013,0-24.026,0-36.039
					C213.6,190.837,210.6,190.837,210.6,192.771L210.6,192.771z"/>
			</g>
		</g>
		<g>
			<g>
				<path style="fill:#FFFFFF;" d="M210.6,258.969c0,10.008,0,20.016,0,30.023c0,1.935,3,1.935,3,0c0-10.008,0-20.016,0-30.023
					C213.6,257.034,210.6,257.034,210.6,258.969L210.6,258.969z"/>
			</g>
		</g>
	</g>
	<g>
		<g>
			<g>
				<g>
					<path style="fill:#FFFFFF;" d="M199.035,182.818c7.883,0.08,15.767,0.16,23.649,0.24c6.451,0.066,6.444-9.934,0-10
						c-7.883-0.081-15.767-0.161-23.649-0.241C192.584,172.752,192.59,182.752,199.035,182.818L199.035,182.818z"/>
				</g>
			</g>
			<g>
				<g>
					<path style="fill:#FFFFFF;" d="M225.92,182.391c20.865-13.75,41.729-27.5,62.594-41.25c5.358-3.531,0.355-12.195-5.047-8.635
						c-20.865,13.75-41.729,27.5-62.594,41.25C215.515,177.287,220.518,185.95,225.92,182.391L225.92,182.391z"/>
				</g>
			</g>
			<g>
				<g>
					<path style="fill:#FFFFFF;" d="M138.965,223.386c20.865-13.75,41.729-27.5,62.593-41.251c5.358-3.531,0.355-12.194-5.047-8.634
						c-20.865,13.75-41.729,27.5-62.593,41.25C128.56,218.282,133.563,226.946,138.965,223.386L138.965,223.386z"/>
				</g>
			</g>
		</g>
		<g>
			<g>
				<path style="fill:#FFFFFF;" d="M137.082,217.02c-0.802,0.505-1.604,1.009-2.407,1.513c-1.612,1.014-2.243,3.104-1.255,4.789
					c0.94,1.605,3.172,2.271,4.789,1.256c0.802-0.505,1.604-1.009,2.407-1.513c1.612-1.014,2.243-3.104,1.255-4.789
					C140.931,216.67,138.699,216.004,137.082,217.02L137.082,217.02z"/>
			</g>
		</g>
		<g>
			<g>
				<path style="fill:#FFFFFF;" d="M286.224,135.327c-0.788,0.527-1.575,1.054-2.363,1.581c-1.582,1.058-2.264,3.067-1.256,4.789
					c0.92,1.57,3.201,2.317,4.789,1.255c0.788-0.527,1.575-1.054,2.363-1.581c1.582-1.058,2.264-3.067,1.256-4.789
					C290.093,135.012,287.812,134.265,286.224,135.327L286.224,135.327z"/>
			</g>
		</g>
	</g>
	<g>
		<g>
			<g>
				<g>
					<path style="fill:#FFFFFF;" d="M198.92,249.239c7.883,0.08,15.766,0.161,23.648,0.241c6.451,0.065,6.445-9.935,0-10
						c-7.883-0.08-15.766-0.161-23.648-0.241C192.469,239.174,192.475,249.174,198.92,249.239L198.92,249.239z"/>
				</g>
			</g>
			<g>
				<g>
					<path style="fill:#FFFFFF;" d="M225.805,248.812c20.865-13.75,41.729-27.5,62.594-41.25c5.358-3.531,0.355-12.194-5.047-8.635
						c-20.865,13.75-41.729,27.5-62.594,41.25C215.399,243.708,220.402,252.371,225.805,248.812L225.805,248.812z"/>
				</g>
			</g>
			<g>
				<g>
					<path style="fill:#FFFFFF;" d="M138.849,289.808c20.865-13.75,41.729-27.501,62.594-41.251
						c5.358-3.531,0.355-12.195-5.047-8.635c-20.865,13.75-41.729,27.501-62.594,41.251
						C128.444,284.704,133.447,293.367,138.849,289.808L138.849,289.808z"/>
				</g>
			</g>
		</g>
		<g>
			<g>
				<path style="fill:#FFFFFF;" d="M136.966,283.44c-0.802,0.505-1.604,1.01-2.407,1.514c-1.612,1.014-2.243,3.103-1.255,4.789
					c0.94,1.604,3.172,2.272,4.789,1.256c0.802-0.505,1.604-1.01,2.407-1.514c1.612-1.014,2.243-3.103,1.255-4.789
					C140.814,283.092,138.582,282.424,136.966,283.44L136.966,283.44z"/>
			</g>
		</g>
		<g>
			<g>
				<path style="fill:#FFFFFF;" d="M286.108,201.747c-0.788,0.527-1.575,1.055-2.363,1.581c-1.582,1.059-2.264,3.067-1.256,4.789
					c0.92,1.57,3.201,2.317,4.789,1.256c0.788-0.527,1.575-1.055,2.363-1.581c1.582-1.059,2.264-3.067,1.256-4.789
					C289.978,201.433,287.696,200.686,286.108,201.747L286.108,201.747z"/>
			</g>
		</g>
	</g>
</g>
<g id="Ebene_1">
</g>
</svg>
