<?xml version="1.0" encoding="iso-8859-1"?>
<!-- Generator: Adobe Illustrator 16.0.0, SVG Export Plug-In . SVG Version: 6.00 Build 0)  -->
<!DOCTYPE svg PUBLIC "-//W3C//DTD SVG 1.1 Tiny//EN" "http://www.w3.org/Graphics/SVG/1.1/DTD/svg11-tiny.dtd">
<svg version="1.1" baseProfile="tiny" id="fts_x5F_garage_x5F_door_x5F_20"
	 xmlns="http://www.w3.org/2000/svg" xmlns:xlink="http://www.w3.org/1999/xlink" x="0px" y="0px" width="361px" height="361px"
	 viewBox="0 0 361 361" xml:space="preserve">
<g display="none">
	<g display="inline">
		<path fill="#FFFFFF" d="M136.315,263.045c0,3.313-2.687,6-6,6h-11.5c-3.313,0-6-2.687-6-6v-11c0-3.313,2.687-6,6-6h11.5
			c3.313,0,6,2.687,6,6V263.045z"/>
		<path fill="#FFFFFF" d="M244.315,263.045c0,3.313-2.687,6-6,6h-11.5c-3.313,0-6-2.687-6-6v-11c0-3.313,2.687-6,6-6h11.5
			c3.313,0,6,2.687,6,6V263.045z"/>
		<path fill="#FFFFFF" d="M230.391,218.028h-104.26c-5.985,0-10.674-6.011-10.674-13.684v-0.63l4.752-18.546
			c0.463-7.055,7.605-12.961,13.487-12.961h89.128c5.882,0,13.024,5.906,13.488,12.961l4.752,18.546v0.63
			C241.065,212.018,236.376,218.028,230.391,218.028z M126.51,208.028h103.503c0.34-0.376,0.925-1.436,1.034-3.123l-4.71-18.383
			v-0.63c0-1.572-2.494-3.546-3.594-3.688l-89.045,0.003c-1.018,0.139-3.511,2.113-3.511,3.684v0.63l-4.71,18.383
			C125.585,206.593,126.17,207.652,126.51,208.028z"/>
		<path fill="#FFFFFF" d="M248.648,245.74c0,2.929-2.779,5.305-6.206,5.305H114.187c-3.427,0-6.206-2.376-6.206-5.305V218.03
			c0-2.93,2.779-5.306,6.206-5.306h128.256c3.427,0,6.206,2.376,6.206,5.306V245.74z M141.065,224.283c0-2.596-2.687-4.702-6-4.702
			h-17.25c-3.313,0-6,2.105-6,4.702v4.897c0,2.597,2.687,4.701,6,4.701h17.25c3.313,0,6-2.104,6-4.701V224.283z M244.565,224.283
			c0-2.596-2.687-4.702-6-4.702h-17.25c-3.313,0-6,2.105-6,4.702v4.897c0,2.597,2.687,4.701,6,4.701h17.25c3.313,0,6-2.104,6-4.701
			V224.283z M204.315,228.438c0-5.049-2.687-9.143-6-9.143h-40.5c-3.313,0-6,4.094-6,9.143v5.714c0,5.049,2.687,9.143,6,9.143h40.5
			c3.313,0,6-4.094,6-9.143V228.438z"/>
	</g>
	<rect x="145.065" y="222.045" display="inline" fill="#FFFFFF" width="66" height="10"/>
	<rect x="146.065" y="235.045" display="inline" fill="#FFFFFF" width="66" height="10"/>
</g>
<g>
	<g>
		<path fill="#FFFFFF" d="M78.315,133.295c0,45.143,0,90.286,0,135.429c0,0.051,0,0.103,0,0.154c0,6.449,10,6.449,10,0
			c0-45.143,0-90.286,0-135.429c0-0.051,0-0.103,0-0.154C88.315,126.846,78.315,126.846,78.315,133.295L78.315,133.295z"/>
	</g>
	<g>
		<path fill="#FFFFFF" d="M268.315,133.295c0,45.143,0,90.286,0,135.429c0,0.051,0,0.103,0,0.154c0,6.449,10,6.449,10,0
			c0-45.143,0-90.286,0-135.429c0-0.051,0-0.103,0-0.154C278.315,126.846,268.315,126.846,268.315,133.295L268.315,133.295z"/>
	</g>
	<path fill="none" stroke="#FFFFFF" stroke-width="10" d="M284.315,120.466c0,3.172-2.572,5.745-5.745,5.745H78.769
		c-3.173,0-5.745-2.573-5.745-5.745v-9.575c0-3.173,2.572-5.745,5.745-5.745H278.57c3.173,0,5.745,2.572,5.745,5.745V120.466z"/>
</g>
<g>
	<path fill="#FFFFFF" d="M269.94,149.285c-0.113,0.561,0.6,0.431-0.638,0.431c-1.081,0-2.162,0-3.242,0c-3.891,0-7.782,0-11.673,0
		c-13.011,0-26.021,0-39.032,0c-31.623,0-63.245,0-94.868,0c-9.86,0-19.72,0-29.581,0c-1.528,0-3.056,0-4.583,0
		c0.931,0,0.493-1.875,0.493-3.334c0-1.562,0-3.124,0-4.686c0,0.519-0.699,0.354,0.686,0.354c22.029,0,44.059,0,66.087,0
		c27.519,0,55.037,0,82.555,0c9.108,0,18.216,0,27.325,0c2.046,0,4.093,0,6.14,0c1.135,0,0.207-0.296,0.207,0.052
		c0,2.705,0,5.41,0,8.114c0,4.514,7,4.514,7,0c0-5.256,1.509-15.167-6.529-15.167c-1.636,0-3.273,0-4.909,0
		c-10.012,0-20.023,0-30.035,0c-31.663,0-63.326,0-94.989,0c-12.899,0-25.799,0-38.699,0c-5.142,0-11.185-0.902-16.27,0.125
		c-3.897,0.787-5.569,3.775-5.569,7.546c0,2.746-0.952,7.959,0.713,10.429c2.089,3.098,4.702,3.566,8.032,3.566
		c8.586,0,17.172,0,25.758,0c51.848,0,103.695,0,155.542,0c3.507,0,6.139-2.149,6.83-5.569
		C277.58,146.739,270.833,144.862,269.94,149.285z"/>
</g>
</svg>
