<?xml version="1.0" encoding="iso-8859-1"?>
<!-- Generator: Adobe Illustrator 16.0.0, SVG Export Plug-In . SVG Version: 6.00 Build 0)  -->
<!DOCTYPE svg PUBLIC "-//W3C//DTD SVG 1.1//EN" "http://www.w3.org/Graphics/SVG/1.1/DTD/svg11.dtd">
<svg version="1.1" xmlns="http://www.w3.org/2000/svg" xmlns:xlink="http://www.w3.org/1999/xlink" x="0px" y="0px" width="361px"
	 height="361px" viewBox="0 0 361 361" style="enable-background:new 0 0 361 361;" xml:space="preserve">
<g id="fts_x5F_blade_x5F_s_x5F_60">
	<g>
		<g>
			<path style="fill:#FFFFFF;" d="M178.833,70.667c0,14.222,0,28.445,0,42.667c0,1.935,3,1.935,3,0c0-14.222,0-28.445,0-42.667
				C181.833,68.732,178.833,68.732,178.833,70.667L178.833,70.667z"/>
		</g>
	</g>
	<g>
		<g>
			<path style="fill:#FFFFFF;" d="M179,154.082c0,13.55,0,27.1,0,40.651c0,1.935,3,1.935,3,0c0-13.551,0-27.101,0-40.651
				C182,152.147,179,152.147,179,154.082L179,154.082z"/>
		</g>
	</g>
	<g>
		<g>
			<path style="fill:#FFFFFF;" d="M179,237.334c0,17.444,0,34.889,0,52.333c0,1.935,3,1.935,3,0c0-17.444,0-34.889,0-52.333
				C182,235.399,179,235.399,179,237.334L179,237.334z"/>
		</g>
	</g>
	<g style="display:none;">
		<g style="display:inline;">
			<g>
				<path style="fill:#FFFFFF;" d="M210.117,134.19c0,9.159,0,18.318,0,27.477c0,1.935,3,1.935,3,0c0-9.159,0-18.318,0-27.477
					C213.117,132.256,210.117,132.256,210.117,134.19L210.117,134.19z"/>
			</g>
		</g>
		<g style="display:inline;">
			<g>
				<path style="fill:#FFFFFF;" d="M210.236,198c0,10.444,0,20.89,0,31.334c0,1.935,3,1.935,3,0c0-10.444,0-20.89,0-31.334
					C213.236,196.065,210.236,196.065,210.236,198L210.236,198z"/>
			</g>
		</g>
		<g style="display:inline;">
			<g>
				<path style="fill:#FFFFFF;" d="M210.236,262c0,9.171,0,18.341,0,27.512c0,1.935,3,1.935,3,0c0-9.171,0-18.341,0-27.512
					C213.236,260.065,210.236,260.065,210.236,262L210.236,262z"/>
			</g>
		</g>
	</g>
	<g>
		<g>
			<g>
				<path style="fill:#FFFFFF;" d="M139.011,268.704c5.628-14.274,11.098-28.468,21.804-39.813
					c6.799-7.205,15.146-12.63,23.831-17.277c8.985-4.808,17.389-10.58,24.751-17.647c8.769-8.417,15.182-18.823,19.105-30.284
					c0.433-1.262,0.824-2.537,1.256-3.8c0.446-1.305,0.099-0.286,0.115-0.319c-0.756,1.469-5.879,1.902-7.223,0.054
					c4.526,6.226,9.392,18.687,19.172,16.103c6.229-1.646,3.584-11.292-2.658-9.643c0.147-0.039-2.397-3.195-3.036-4.126
					c-1.665-2.425-3.201-4.94-4.843-7.381c-1.172-1.743-2.819-3.091-5.034-3.11c-3.854-0.034-5.343,3.379-6.37,6.458
					c-3.57,10.705-8.681,19.933-16.649,28.079c-7.294,7.457-16.096,12.948-25.236,17.839c-9.271,4.961-17.928,11.281-25.152,18.938
					c-11.551,12.241-17.413,27.895-23.476,43.272C127,272.052,136.674,274.631,139.011,268.704L139.011,268.704z"/>
			</g>
		</g>
		<g>
			<g>
				<path style="fill:#FFFFFF;" d="M131.34,262.488c-0.334,0.788-0.668,1.575-1.003,2.362c-0.183,0.435-0.366,0.869-0.55,1.303
					c-0.26,0.967-0.26,1.934,0,2.9c0.375,1.363,1.287,2.545,2.506,3.259c1.26,0.738,2.795,0.938,4.203,0.55
					c1.217-0.334,2.741-1.285,3.26-2.506c0.334-0.788,0.668-1.575,1.003-2.362c0.183-0.435,0.366-0.869,0.55-1.303
					c0.26-0.967,0.26-1.934,0-2.9c-0.375-1.363-1.287-2.545-2.506-3.259c-1.26-0.738-2.795-0.938-4.203-0.55
					C133.382,260.316,131.858,261.268,131.34,262.488L131.34,262.488z"/>
			</g>
		</g>
		<g>
			<g>
				<path style="fill:#FFFFFF;" d="M239.618,167.442c-0.8,0.302-1.6,0.604-2.398,0.907c-1.063,0.402-1.919,0.919-2.511,1.93
					c-0.567,0.97-0.722,2.152-0.423,3.236c0.289,1.05,0.991,1.96,1.93,2.51c0.896,0.525,2.229,0.804,3.236,0.423
					c0.8-0.302,1.6-0.604,2.398-0.907c1.063-0.402,1.919-0.919,2.511-1.93c0.567-0.97,0.722-2.152,0.423-3.236
					c-0.289-1.05-0.991-1.96-1.93-2.51C241.958,167.34,240.625,167.061,239.618,167.442L239.618,167.442z"/>
			</g>
		</g>
	</g>
	<g>
		<g>
			<g>
				<path style="fill:#FFFFFF;" d="M138.763,197.173c5.63-14.273,11.1-28.466,21.805-39.811c6.799-7.205,15.147-12.63,23.833-17.278
					c8.984-4.808,17.389-10.58,24.751-17.647c8.768-8.417,15.181-18.822,19.104-30.283c0.432-1.262,0.824-2.537,1.255-3.8
					c0.446-1.305,0.099-0.286,0.115-0.319c-0.756,1.469-5.879,1.903-7.223,0.054c4.525,6.225,9.396,18.687,19.174,16.101
					c6.229-1.647,3.584-11.293-2.658-9.643c0.146-0.039-2.397-3.193-3.037-4.124c-1.665-2.425-3.201-4.94-4.844-7.381
					c-1.173-1.743-2.819-3.091-5.034-3.11c-3.854-0.034-5.344,3.379-6.37,6.458c-3.569,10.704-8.68,19.932-16.648,28.079
					c-7.293,7.457-16.095,12.948-25.235,17.839c-9.271,4.961-17.929,11.281-25.153,18.937
					c-11.551,12.241-17.413,27.894-23.477,43.271C126.751,200.521,136.425,203.1,138.763,197.173L138.763,197.173z"/>
			</g>
		</g>
		<g>
			<g>
				<path style="fill:#FFFFFF;" d="M131.091,190.962c-0.334,0.787-0.668,1.573-1.002,2.359c-0.183,0.435-0.366,0.869-0.55,1.303
					c-0.26,0.967-0.26,1.934,0,2.9c0.375,1.363,1.287,2.545,2.506,3.259c1.26,0.738,2.795,0.938,4.203,0.55
					c1.218-0.334,2.741-1.285,3.26-2.506c0.334-0.787,0.668-1.573,1.002-2.359c0.183-0.435,0.367-0.869,0.55-1.303
					c0.26-0.967,0.26-1.934,0-2.9c-0.375-1.363-1.287-2.545-2.506-3.259c-1.26-0.738-2.795-0.938-4.203-0.55
					C133.133,188.79,131.61,189.741,131.091,190.962L131.091,190.962z"/>
			</g>
		</g>
		<g>
			<g>
				<path style="fill:#FFFFFF;" d="M239.372,95.914c-0.8,0.302-1.6,0.605-2.399,0.908c-1.063,0.402-1.919,0.919-2.511,1.93
					c-0.567,0.97-0.722,2.152-0.423,3.236c0.289,1.05,0.991,1.96,1.93,2.51c0.896,0.525,2.229,0.804,3.236,0.423
					c0.8-0.302,1.6-0.605,2.399-0.908c1.063-0.402,1.919-0.919,2.511-1.93c0.567-0.97,0.722-2.152,0.423-3.236
					c-0.289-1.05-0.991-1.96-1.93-2.51C241.712,95.812,240.379,95.532,239.372,95.914L239.372,95.914z"/>
			</g>
		</g>
	</g>
</g>
<g id="Ebene_1">
</g>
</svg>
