<?xml version="1.0" encoding="iso-8859-1"?>
<!-- Generator: Adobe Illustrator 16.0.0, SVG Export Plug-In . SVG Version: 6.00 Build 0)  -->
<!DOCTYPE svg PUBLIC "-//W3C//DTD SVG 1.1//EN" "http://www.w3.org/Graphics/SVG/1.1/DTD/svg11.dtd">
<svg version="1.1" xmlns="http://www.w3.org/2000/svg" xmlns:xlink="http://www.w3.org/1999/xlink" x="0px" y="0px" width="361px"
	 height="361px" viewBox="0 0 361 361" style="enable-background:new 0 0 361 361;" xml:space="preserve">
<g id="fts_x5F_blade_x5F_s_x5F_70">
	<g>
		<g>
			<path style="fill:#FFFFFF;" d="M178.833,70.667c0,14.222,0,28.445,0,42.667c0,1.935,3,1.935,3,0c0-14.222,0-28.445,0-42.667
				C181.833,68.732,178.833,68.732,178.833,70.667L178.833,70.667z"/>
		</g>
	</g>
	<g>
		<g>
			<path style="fill:#FFFFFF;" d="M179,154.082c0,13.55,0,27.1,0,40.651c0,1.935,3,1.935,3,0c0-13.551,0-27.101,0-40.651
				C182,152.147,179,152.147,179,154.082L179,154.082z"/>
		</g>
	</g>
	<g>
		<g>
			<path style="fill:#FFFFFF;" d="M179,237.334c0,17.444,0,34.889,0,52.333c0,1.935,3,1.935,3,0c0-17.444,0-34.889,0-52.333
				C182,235.399,179,235.399,179,237.334L179,237.334z"/>
		</g>
	</g>
	<g style="display:none;">
		<g style="display:inline;">
			<g>
				<path style="fill:#FFFFFF;" d="M210.117,134.19c0,9.159,0,18.318,0,27.477c0,1.935,3,1.935,3,0c0-9.159,0-18.318,0-27.477
					C213.117,132.256,210.117,132.256,210.117,134.19L210.117,134.19z"/>
			</g>
		</g>
		<g style="display:inline;">
			<g>
				<path style="fill:#FFFFFF;" d="M210.236,198c0,10.444,0,20.89,0,31.334c0,1.935,3,1.935,3,0c0-10.444,0-20.89,0-31.334
					C213.236,196.065,210.236,196.065,210.236,198L210.236,198z"/>
			</g>
		</g>
		<g style="display:inline;">
			<g>
				<path style="fill:#FFFFFF;" d="M210.236,262c0,9.171,0,18.341,0,27.512c0,1.935,3,1.935,3,0c0-9.171,0-18.341,0-27.512
					C213.236,260.065,210.236,260.065,210.236,262L210.236,262z"/>
			</g>
		</g>
	</g>
	<g>
		<g>
			<g>
				<path style="fill:#FFFFFF;" d="M146.074,274.878c3.892-15.027,7.571-29.782,16.754-42.598
					c11.759-16.409,31.134-24.803,43.833-40.442c7.658-9.433,12.993-20.4,15.477-32.293c0.28-1.344,0.516-2.697,0.811-4.038
					c0.083-0.377,0.184-0.748,0.303-1.114c-0.723,2.219-6.072,2.795-6.888,1.924c4.77,5.092,11.265,16.825,19.974,13.34
					c5.91-2.365,3.334-12.041-2.658-9.643c-3.118,1.248-8.974-12.425-14.493-12.767c-3.936-0.244-5.483,3.581-6.114,6.721
					c-2.284,11.359-6.243,21.572-13.481,30.798c-6.642,8.466-14.994,14.884-23.634,21.155c-8.315,6.036-15.627,13.07-21.763,21.311
					c-9.832,13.206-13.71,29.342-17.762,44.987C134.813,278.468,144.458,281.116,146.074,274.878L146.074,274.878z"/>
			</g>
		</g>
		<g>
			<g>
				<path style="fill:#FFFFFF;" d="M137.58,269.755c-0.236,0.822-0.472,1.645-0.708,2.466c-0.82,2.856,0.969,5.928,3.81,6.709
					c2.889,0.795,5.889-0.953,6.709-3.809c0.236-0.822,0.472-1.645,0.708-2.466c0.82-2.856-0.969-5.928-3.81-6.709
					C141.399,265.151,138.399,266.899,137.58,269.755L137.58,269.755z"/>
			</g>
		</g>
		<g>
			<g>
				<path style="fill:#FFFFFF;" d="M233.199,161.77c-0.757,0.397-1.515,0.795-2.272,1.193c-2.024,1.063-2.623,3.84-1.507,5.746
					c1.195,2.041,3.72,2.571,5.747,1.507c0.757-0.397,1.515-0.795,2.272-1.193c2.024-1.063,2.623-3.84,1.507-5.746
					C237.751,161.236,235.227,160.705,233.199,161.77L233.199,161.77z"/>
			</g>
		</g>
	</g>
	<g>
		<g>
			<g>
				<path style="fill:#FFFFFF;" d="M145.826,203.348c3.893-15.026,7.571-29.781,16.755-42.596
					c11.759-16.409,31.134-24.802,43.833-40.441c7.659-9.433,12.994-20.4,15.478-32.293c0.28-1.344,0.516-2.697,0.811-4.038
					c0.083-0.377,0.184-0.748,0.303-1.114c-0.723,2.219-6.072,2.795-6.888,1.924c4.771,5.093,11.264,16.824,19.974,13.339
					c5.911-2.364,3.334-12.04-2.658-9.643c-3.12,1.248-8.974-12.424-14.493-12.766c-3.936-0.244-5.483,3.581-6.114,6.721
					c-2.284,11.359-6.244,21.571-13.482,30.797c-6.642,8.465-14.994,14.883-23.634,21.155c-8.315,6.036-15.627,13.069-21.763,21.31
					c-9.832,13.206-13.71,29.341-17.763,44.985C134.564,206.938,144.21,209.586,145.826,203.348L145.826,203.348z"/>
			</g>
		</g>
		<g>
			<g>
				<path style="fill:#FFFFFF;" d="M137.331,198.228c-0.235,0.821-0.471,1.643-0.707,2.464c-0.82,2.856,0.968,5.928,3.81,6.709
					c2.889,0.795,5.89-0.953,6.709-3.809c0.235-0.821,0.471-1.643,0.707-2.464c0.82-2.856-0.968-5.928-3.81-6.709
					C141.151,193.624,138.15,195.372,137.331,198.228L137.331,198.228z"/>
			</g>
		</g>
		<g>
			<g>
				<path style="fill:#FFFFFF;" d="M232.952,90.242c-0.757,0.397-1.514,0.795-2.271,1.193c-2.024,1.063-2.623,3.839-1.507,5.746
					c1.195,2.041,3.72,2.571,5.747,1.507c0.757-0.397,1.514-0.795,2.271-1.193c2.024-1.063,2.623-3.839,1.507-5.746
					C237.504,89.708,234.979,89.178,232.952,90.242L232.952,90.242z"/>
			</g>
		</g>
	</g>
</g>
<g id="Ebene_1">
</g>
</svg>
