<?xml version="1.0" encoding="iso-8859-1"?>
<!-- Generator: Adobe Illustrator 16.0.0, SVG Export Plug-In . SVG Version: 6.00 Build 0)  -->
<!DOCTYPE svg PUBLIC "-//W3C//DTD SVG 1.1//EN" "http://www.w3.org/Graphics/SVG/1.1/DTD/svg11.dtd">
<svg version="1.1" xmlns="http://www.w3.org/2000/svg" xmlns:xlink="http://www.w3.org/1999/xlink" x="0px" y="0px" width="361px"
	 height="361px" viewBox="0 0 361 361" style="enable-background:new 0 0 361 361;" xml:space="preserve">
<g id="fts_x5F_blade_x5F_arc_x5F_60">
	<g>
		<g>
			<g>
				<path style="fill:#FFFFFF;" d="M131.858,264.823c16.648-44.673,58.058-76.53,105.549-81.03c6.362-0.604,6.421-10.609,0-10
					c-52.251,4.952-96.866,39.198-115.192,88.373C119.958,268.221,129.627,270.81,131.858,264.823L131.858,264.823z"/>
			</g>
		</g>
		<g>
			<g>
				<path style="fill:#FFFFFF;" d="M123.58,259.866c-0.314,0.795-0.628,1.59-0.942,2.385c-0.51,1.292-0.123,3.054,0.55,4.203
					c0.714,1.219,1.896,2.131,3.26,2.506c1.408,0.388,2.943,0.188,4.203-0.55c0.368-0.284,0.736-0.568,1.104-0.853
					c0.676-0.681,1.144-1.482,1.403-2.406c0.314-0.795,0.628-1.59,0.942-2.385c0.51-1.292,0.123-3.054-0.55-4.203
					c-0.714-1.219-1.896-2.131-3.26-2.506c-1.408-0.388-2.943-0.188-4.203,0.55c-0.368,0.284-0.736,0.568-1.104,0.853
					C124.307,258.141,123.839,258.942,123.58,259.866L123.58,259.866z"/>
			</g>
		</g>
		<g>
			<g>
				<path style="fill:#FFFFFF;" d="M235.909,174.301c-0.839,0.163-1.678,0.326-2.518,0.489c-1.337,0.26-2.591,1.365-3.259,2.506
					c-0.738,1.26-0.938,2.795-0.55,4.203c0.375,1.363,1.287,2.546,2.506,3.26c1.338,0.783,2.721,0.838,4.203,0.55
					c0.839-0.163,1.678-0.326,2.518-0.489c1.337-0.26,2.591-1.365,3.259-2.507c0.738-1.26,0.938-2.794,0.55-4.202
					c-0.375-1.363-1.287-2.545-2.506-3.26C238.774,174.067,237.392,174.013,235.909,174.301L235.909,174.301z"/>
			</g>
		</g>
	</g>
	<g>
		<g>
			<g>
				<path style="fill:#FFFFFF;" d="M130.649,184.585c16.648-44.672,58.059-76.529,105.549-81.03c6.362-0.603,6.421-10.608,0-10
					c-52.251,4.952-96.866,39.197-115.192,88.372C118.75,187.982,128.418,190.571,130.649,184.585L130.649,184.585z"/>
			</g>
		</g>
		<g>
			<g>
				<path style="fill:#FFFFFF;" d="M122.371,179.628c-0.314,0.795-0.628,1.591-0.942,2.386c-0.51,1.292-0.124,3.054,0.55,4.203
					c0.714,1.219,1.896,2.131,3.26,2.506c1.408,0.388,2.943,0.188,4.203-0.55c0.368-0.284,0.736-0.568,1.104-0.853
					c0.676-0.681,1.144-1.482,1.403-2.406c0.314-0.796,0.628-1.592,0.942-2.387c0.51-1.292,0.124-3.054-0.55-4.203
					c-0.714-1.219-1.896-2.131-3.26-2.506c-1.408-0.387-2.943-0.188-4.203,0.55c-0.368,0.284-0.736,0.569-1.104,0.853
					C123.098,177.902,122.63,178.704,122.371,179.628L122.371,179.628z"/>
			</g>
		</g>
		<g>
			<g>
				<path style="fill:#FFFFFF;" d="M234.7,94.063c-0.839,0.163-1.678,0.326-2.518,0.489c-1.337,0.26-2.591,1.365-3.259,2.506
					c-0.738,1.26-0.938,2.795-0.55,4.203c0.375,1.363,1.287,2.545,2.506,3.26c1.338,0.783,2.721,0.838,4.203,0.55
					c0.839-0.163,1.678-0.326,2.518-0.489c1.337-0.26,2.591-1.365,3.259-2.506c0.738-1.26,0.938-2.795,0.55-4.203
					c-0.375-1.363-1.287-2.545-2.506-3.26C237.565,93.83,236.183,93.775,234.7,94.063L234.7,94.063z"/>
			</g>
		</g>
	</g>
	<g>
		<g>
			<path style="fill:#FFFFFF;" d="M178.833,71.667c0,5.416,0,10.832,0,16.248c0,1.935,3,1.935,3,0c0-5.416,0-10.832,0-16.248
				C181.833,69.732,178.833,69.732,178.833,71.667L178.833,71.667z"/>
		</g>
	</g>
	<g>
		<g>
			<path style="fill:#FFFFFF;" d="M179,142.989c0,7.612,0,15.225,0,22.837c0,1.935,3,1.935,3,0c0-7.612,0-15.225,0-22.837
				C182,141.055,179,141.055,179,142.989L179,142.989z"/>
		</g>
	</g>
	<g>
		<g>
			<path style="fill:#FFFFFF;" d="M179,217.986c0,23.894,0,47.787,0,71.681c0,1.935,3,1.935,3,0c0-23.894,0-47.787,0-71.681
				C182,216.052,179,216.052,179,217.986L179,217.986z"/>
		</g>
	</g>
	<g>
		<g>
			<path style="fill:#FFFFFF;" d="M179,134c0,7.612,0,15.225,0,22.837c0,1.935,3,1.935,3,0c0-7.612,0-15.225,0-22.837
				C182,132.066,179,132.066,179,134L179,134z"/>
		</g>
	</g>
</g>
<g id="Ebene_1">
</g>
</svg>
