<?xml version="1.0" encoding="iso-8859-1"?>
<!-- Generator: Adobe Illustrator 16.0.0, SVG Export Plug-In . SVG Version: 6.00 Build 0)  -->
<!DOCTYPE svg PUBLIC "-//W3C//DTD SVG 1.1//EN" "http://www.w3.org/Graphics/SVG/1.1/DTD/svg11.dtd">
<svg version="1.1" xmlns="http://www.w3.org/2000/svg" xmlns:xlink="http://www.w3.org/1999/xlink" x="0px" y="0px" width="361px"
	 height="361px" viewBox="0 0 361 361" style="enable-background:new 0 0 361 361;" xml:space="preserve">
<g id="fts_x5F_garage_x5F_door_x5F_50">
	<g style="display:none;">
		<g style="display:inline;">
			<path style="fill:#FFFFFF;" d="M138.833,260.167c0,3.313-2.687,6-6,6h-11.5c-3.313,0-6-2.687-6-6v-11c0-3.313,2.687-6,6-6h11.5
				c3.313,0,6,2.687,6,6V260.167z"/>
			<path style="fill:#FFFFFF;" d="M246.833,260.167c0,3.313-2.687,6-6,6h-11.5c-3.313,0-6-2.687-6-6v-11c0-3.313,2.687-6,6-6h11.5
				c3.313,0,6,2.687,6,6V260.167z"/>
			<path style="fill:#FFFFFF;" d="M232.909,215.15h-104.26c-5.985,0-10.674-6.011-10.674-13.684v-0.631l4.752-18.545
				c0.463-7.055,7.605-12.961,13.487-12.961h89.128c5.882,0,13.024,5.906,13.487,12.961l4.753,18.545v0.631
				C243.583,209.14,238.895,215.15,232.909,215.15z M129.028,205.15h103.503c0.34-0.376,0.924-1.436,1.033-3.123l-4.71-18.383
				v-0.631c0-1.572-2.493-3.546-3.595-3.688l-89.045,0.003c-1.018,0.139-3.511,2.113-3.511,3.684v0.631l-4.71,18.383
				C128.103,203.715,128.688,204.774,129.028,205.15z"/>
			<path style="fill:#FFFFFF;" d="M251.166,242.861c0,2.93-2.779,5.306-6.205,5.306H116.705c-3.427,0-6.206-2.376-6.206-5.306
				v-27.709c0-2.93,2.779-5.306,6.206-5.306h128.256c3.426,0,6.205,2.376,6.205,5.306V242.861z M143.583,221.405
				c0-2.597-2.687-4.702-6-4.702h-17.25c-3.313,0-6,2.105-6,4.702v4.897c0,2.596,2.687,4.701,6,4.701h17.25c3.313,0,6-2.105,6-4.701
				V221.405z M247.083,221.405c0-2.597-2.687-4.702-6-4.702h-17.25c-3.313,0-6,2.105-6,4.702v4.897c0,2.596,2.687,4.701,6,4.701
				h17.25c3.313,0,6-2.105,6-4.701V221.405z M206.833,225.561c0-5.05-2.687-9.144-6-9.144h-40.5c-3.313,0-6,4.094-6,9.144v5.713
				c0,5.05,2.687,9.144,6,9.144h40.5c3.313,0,6-4.094,6-9.144V225.561z"/>
		</g>
		<rect x="147.583" y="219.167" style="display:inline;fill:#FFFFFF;" width="66" height="10"/>
		<rect x="148.583" y="232.167" style="display:inline;fill:#FFFFFF;" width="66" height="10"/>
	</g>
	<g>
		<g>
			<g>
				<path style="fill:#FFFFFF;" d="M80.833,130.417c0,45.143,0,90.286,0,135.429c0,0.052,0,0.103,0,0.154c0,6.448,10,6.448,10,0
					c0-45.143,0-90.286,0-135.429c0-0.051,0-0.103,0-0.154C90.833,123.968,80.833,123.968,80.833,130.417L80.833,130.417z"/>
			</g>
		</g>
		<g>
			<g>
				<path style="fill:#FFFFFF;" d="M270.833,130.417c0,45.143,0,90.286,0,135.429c0,0.052,0,0.103,0,0.154c0,6.448,10,6.448,10,0
					c0-45.143,0-90.286,0-135.429c0-0.051,0-0.103,0-0.154C280.833,123.968,270.833,123.968,270.833,130.417L270.833,130.417z"/>
			</g>
		</g>
		<path style="fill:none;stroke:#FFFFFF;stroke-width:10;" d="M286.833,117.588c0,3.172-2.572,5.745-5.745,5.745H81.287
			c-3.173,0-5.745-2.573-5.745-5.745v-9.575c0-3.173,2.572-5.745,5.745-5.745h199.801c3.173,0,5.745,2.572,5.745,5.745V117.588z"/>
	</g>
	<g>
		<g>
			<path style="fill:#FFFFFF;" d="M272.459,145.736c-0.33,1.658,0.979,1.431-0.631,1.431c-1.073,0-2.146,0-3.22,0
				c-3.865,0-7.73,0-11.596,0c-12.936,0-25.87,0-38.806,0c-31.541,0-63.083,0-94.624,0c-9.949,0-19.897,0-29.846,0
				c-1.625,0-3.25,0-4.875,0c0.916,0,0.471-7.707,0.471-8.614c0-0.934-2.839,0.948-0.436,0.948c0.212,0,0.425,0,0.638,0
				c21.101,0,42.201,0,63.302,0c28.416,0,56.832,0,85.247,0c9.317,0,18.634,0,27.95,0c2.077,0,4.153,0,6.229,0
				c0.152,0,0.305,0,0.456,0c2.403,0-0.386-0.254-0.386-1.354c0,2.84,0,5.68,0,8.521c0,4.514,7,4.514,7,0
				c0-6.1,1.498-14.167-6.528-14.167c-1.625,0-3.25,0-4.875,0c-9.949,0-19.897,0-29.847,0c-31.541,0-63.082,0-94.623,0
				c-12.936,0-25.871,0-38.806,0c-4.82,0-11.462,1.13-16.059-0.217c-7.915-2.32-6.705,12.467-5.902,16.498
				c0.77,3.865,4.732,5.386,8.133,5.386c8.364,0,16.729,0,25.093,0c52.071,0,104.141,0,156.211,0c3.563,0,6.415-3.249,7.077-6.569
				C280.088,143.189,273.341,141.311,272.459,145.736z"/>
		</g>
	</g>
	<g>
		<g>
			<path style="fill:#FFFFFF;" d="M272.459,160.156c-0.33,1.658,0.979,1.431-0.631,1.431c-1.073,0-2.146,0-3.22,0
				c-3.865,0-7.73,0-11.596,0c-12.936,0-25.87,0-38.806,0c-31.541,0-63.083,0-94.624,0c-9.949,0-19.897,0-29.846,0
				c-1.625,0-3.25,0-4.875,0c0.916,0,0.471-7.707,0.471-8.614c0-0.934-2.839,0.948-0.436,0.948c0.212,0,0.425,0,0.638,0
				c21.101,0,42.201,0,63.302,0c28.416,0,56.832,0,85.247,0c9.317,0,18.634,0,27.95,0c2.077,0,4.153,0,6.229,0
				c0.152,0,0.305,0,0.456,0c2.403,0-0.386-0.254-0.386-1.354c0,2.84,0,5.68,0,8.521c0,4.514,7,4.514,7,0
				c0-6.1,1.498-14.167-6.528-14.167c-1.625,0-3.25,0-4.875,0c-9.949,0-19.897,0-29.847,0c-31.541,0-63.082,0-94.623,0
				c-12.936,0-25.871,0-38.806,0c-4.82,0-11.462,1.13-16.059-0.217c-7.915-2.32-6.705,12.467-5.902,16.498
				c0.77,3.865,4.732,5.386,8.133,5.386c8.364,0,16.729,0,25.093,0c52.071,0,104.141,0,156.211,0c3.563,0,6.415-3.249,7.077-6.569
				C280.088,157.609,273.341,155.731,272.459,160.156z"/>
		</g>
	</g>
	<g>
		<g>
			<path style="fill:#FFFFFF;" d="M272.459,174.822c-0.33,1.658,0.979,1.431-0.631,1.431c-1.073,0-2.146,0-3.22,0
				c-3.865,0-7.73,0-11.596,0c-12.936,0-25.87,0-38.806,0c-31.541,0-63.083,0-94.624,0c-9.949,0-19.897,0-29.846,0
				c-1.625,0-3.25,0-4.875,0c0.916,0,0.471-7.707,0.471-8.614c0-0.934-2.839,0.948-0.436,0.948c0.212,0,0.425,0,0.638,0
				c21.101,0,42.201,0,63.302,0c28.416,0,56.832,0,85.247,0c9.317,0,18.634,0,27.95,0c2.077,0,4.153,0,6.229,0
				c0.152,0,0.305,0,0.456,0c2.403,0-0.386-0.254-0.386-1.354c0,2.84,0,5.68,0,8.521c0,4.514,7,4.514,7,0
				c0-6.1,1.498-14.167-6.528-14.167c-1.625,0-3.25,0-4.875,0c-9.949,0-19.897,0-29.847,0c-31.541,0-63.082,0-94.623,0
				c-12.936,0-25.871,0-38.806,0c-4.82,0-11.462,1.13-16.059-0.217c-7.915-2.32-6.705,12.467-5.902,16.498
				c0.77,3.865,4.732,5.386,8.133,5.386c8.364,0,16.729,0,25.093,0c52.071,0,104.141,0,156.211,0c3.563,0,6.415-3.249,7.077-6.569
				C280.088,172.275,273.341,170.397,272.459,174.822z"/>
		</g>
	</g>
	<g>
		<g>
			<path style="fill:#FFFFFF;" d="M272.459,189.407c-0.33,1.658,0.979,1.431-0.631,1.431c-1.073,0-2.146,0-3.22,0
				c-3.865,0-7.73,0-11.596,0c-12.936,0-25.87,0-38.806,0c-31.541,0-63.083,0-94.624,0c-9.949,0-19.897,0-29.846,0
				c-1.625,0-3.25,0-4.875,0c0.916,0,0.471-7.308,0.471-8.145c0-1.999-2.613,0.477-0.471,0.477c0.18,0,0.361,0,0.542,0
				c20.827,0,41.654,0,62.481,0c28.733,0,57.467,0,86.199,0c9.451,0,18.901,0,28.353,0c1.981,0,3.964,0,5.946,0
				c0.129,0,0.258,0,0.387,0c2.412,0-0.436-1.771-0.436-1.02c0,2.729,0,5.458,0,8.188c0,4.514,7,4.514,7,0
				c0-6.063,1.501-14.167-6.507-14.167c-1.518,0-3.035,0-4.552,0c-9.798,0-19.597,0-29.395,0c-31.499,0-62.999,0-94.499,0
				c-18.514,0-37.028,0-55.542,0c-8.008,0-6.507,8.104-6.507,14.167c0,4.41,3.992,7.5,8.06,7.5c8.027,0,16.054,0,24.08,0
				c52.452,0,104.903,0,157.354,0c3.696,0,6.672-3.012,7.381-6.569C280.088,186.86,273.341,184.982,272.459,189.407z"/>
		</g>
	</g>
	<g>
		<g>
			<path style="fill:#FFFFFF;" d="M85.833,139.5c49.793,0,99.586,0,149.379,0c13.541,0,27.081,0,40.621,0c4.514,0,4.514-7,0-7
				c-49.793,0-99.586,0-149.379,0c-13.54,0-27.081,0-40.621,0C81.319,132.5,81.319,139.5,85.833,139.5L85.833,139.5z"/>
		</g>
	</g>
	<g>
		<g>
			<path style="fill:#FFFFFF;" d="M238.208,159.253c3.583,0,7.167,0,10.75,0c1.935,0,1.935-3,0-3c-3.583,0-7.167,0-10.75,0
				C236.273,156.253,236.273,159.253,238.208,159.253L238.208,159.253z"/>
		</g>
	</g>
	<g>
		<g>
			<path style="fill:#FFFFFF;" d="M251.208,161.156c-0.122,0.605,0.261,0.431-1.003,0.431c-1.164,0-2.328,0-3.492,0
				c-3.464,0-6.928,0-10.392,0c-1.267,0-2.533,0-3.8,0c-1.434,0-1.438-0.24-1.438,0.354c0-2.792,0-5.583,0-8.375
				c0,0.547-0.461,0.354,0.878,0.354c1.453,0,2.907,0,4.36,0c3.464,0,6.928,0,10.392,0c1.164,0,2.328,0,3.492,0
				c0.381,0,0.762,0,1.143,0c0.267,0-0.265-0.816-0.265,0.052c0,2.705,0,5.41,0,8.114c0,4.514,7,4.514,7,0
				c0-3.056,1.122-8.878-0.714-11.601c-2.524-3.745-5.826-3.566-9.835-3.566c-4.792,0-9.584,0-14.376,0
				c-4.146,0-7.991,0.817-8.95,5.569c-0.712,3.528-0.476,8.169,0.235,11.695c0.888,4.398,5.985,4.402,9.421,4.402
				c4.813,0,9.625,0,14.438,0c4.333,0,8.618-0.428,9.656-5.569C258.848,158.61,252.101,156.733,251.208,161.156z"/>
		</g>
	</g>
</g>
<g id="Ebene_1">
</g>
</svg>
