<?xml version="1.0" encoding="iso-8859-1"?>
<!-- Generator: Adobe Illustrator 16.0.0, SVG Export Plug-In . SVG Version: 6.00 Build 0)  -->
<!DOCTYPE svg PUBLIC "-//W3C//DTD SVG 1.1//EN" "http://www.w3.org/Graphics/SVG/1.1/DTD/svg11.dtd">
<svg version="1.1" xmlns="http://www.w3.org/2000/svg" xmlns:xlink="http://www.w3.org/1999/xlink" x="0px" y="0px" width="361px"
	 height="361px" viewBox="0 0 361 361" style="enable-background:new 0 0 361 361;" xml:space="preserve">
<g id="fts_x5F_blade_x5F_z">
	<g>
		<g>
			<g>
				<path style="fill:#FFFFFF;" d="M178.833,70.667c0,14.222,0,28.445,0,42.667c0,1.935,3,1.935,3,0c0-14.222,0-28.445,0-42.667
					C181.833,68.732,178.833,68.732,178.833,70.667L178.833,70.667z"/>
			</g>
		</g>
		<g>
			<g>
				<path style="fill:#FFFFFF;" d="M179,154c0,16.938,0,33.876,0,50.814c0,1.935,3,1.935,3,0c0-16.938,0-33.876,0-50.814
					C182,152.066,179,152.066,179,154L179,154z"/>
			</g>
		</g>
		<g>
			<g>
				<path style="fill:#FFFFFF;" d="M179,247.334c0,14.111,0,28.222,0,42.333c0,1.935,3,1.935,3,0c0-14.111,0-28.222,0-42.333
					C182,245.399,179,245.399,179,247.334L179,247.334z"/>
			</g>
		</g>
	</g>
	<g style="display:none;">
		<g style="display:inline;">
			<g>
				<path style="fill:#FFFFFF;" d="M210.117,134.19c0,9.159,0,18.318,0,27.477c0,1.935,3,1.935,3,0c0-9.159,0-18.318,0-27.477
					C213.117,132.256,210.117,132.256,210.117,134.19L210.117,134.19z"/>
			</g>
		</g>
		<g style="display:inline;">
			<g>
				<path style="fill:#FFFFFF;" d="M210.236,198c0,10.444,0,20.89,0,31.334c0,1.935,3,1.935,3,0c0-10.444,0-20.89,0-31.334
					C213.236,196.065,210.236,196.065,210.236,198L210.236,198z"/>
			</g>
		</g>
		<g style="display:inline;">
			<g>
				<path style="fill:#FFFFFF;" d="M210.236,262c0,9.171,0,18.341,0,27.512c0,1.935,3,1.935,3,0c0-9.171,0-18.341,0-27.512
					C213.236,260.065,210.236,260.065,210.236,262L210.236,262z"/>
			</g>
		</g>
	</g>
	<g>
		<g>
			<g>
				<g>
					<path style="fill:#FFFFFF;" d="M163.159,230.827c11.115,0.113,22.23,0.227,33.344,0.34c6.451,0.065,6.444-9.935,0-10
						c-11.114-0.113-22.229-0.227-33.344-0.34C156.708,220.762,156.714,230.762,163.159,230.827L163.159,230.827z"/>
				</g>
			</g>
			<g>
				<g>
					<path style="fill:#FFFFFF;" d="M200.031,230.505c29.418-19.387,58.835-38.773,88.252-58.161
						c5.358-3.531,0.355-12.195-5.047-8.635c-29.418,19.387-58.835,38.774-88.252,58.161
						C189.626,225.401,194.629,234.065,200.031,230.505L200.031,230.505z"/>
				</g>
			</g>
			<g>
				<g>
					<path style="fill:#FFFFFF;" d="M77.429,288.306c29.418-19.387,58.835-38.774,88.253-58.161
						c5.358-3.531,0.355-12.195-5.047-8.635c-29.418,19.387-58.835,38.774-88.253,58.161
						C67.024,283.202,72.027,291.866,77.429,288.306L77.429,288.306z"/>
				</g>
			</g>
		</g>
		<g>
			<g>
				<path style="fill:#FFFFFF;" d="M76.886,278.175c-1.131,0.711-2.262,1.422-3.393,2.134c-2.512,1.579-3.496,4.834-1.957,7.462
					c1.465,2.501,4.943,3.541,7.462,1.956c1.131-0.711,2.262-1.422,3.393-2.134c2.512-1.579,3.496-4.834,1.957-7.462
					C82.883,277.63,79.405,276.59,76.886,278.175L76.886,278.175z"/>
			</g>
		</g>
		<g>
			<g>
				<path style="fill:#FFFFFF;" d="M283.007,164.058c-1.11,0.743-2.221,1.486-3.331,2.229c-1.207,0.808-2.112,1.829-2.506,3.26
					c-0.388,1.408-0.188,2.943,0.55,4.203c1.433,2.447,4.987,3.612,7.462,1.957c1.11-0.743,2.221-1.486,3.331-2.229
					c1.207-0.808,2.112-1.829,2.506-3.26c0.388-1.408,0.188-2.943-0.55-4.203C289.036,163.568,285.481,162.403,283.007,164.058
					L283.007,164.058z"/>
			</g>
		</g>
	</g>
	<g>
		<g>
			<g>
				<g>
					<path style="fill:#FFFFFF;" d="M163.49,137.917c11.115,0.113,22.229,0.227,33.344,0.34c6.451,0.066,6.445-9.934,0-10
						c-11.115-0.113-22.229-0.227-33.344-0.34C157.039,127.851,157.045,137.851,163.49,137.917L163.49,137.917z"/>
				</g>
			</g>
			<g>
				<g>
					<path style="fill:#FFFFFF;" d="M200.361,137.595c29.418-19.387,58.836-38.774,88.254-58.161
						c5.358-3.531,0.355-12.195-5.047-8.635c-29.418,19.387-58.836,38.774-88.254,58.161
						C189.956,132.491,194.959,141.155,200.361,137.595L200.361,137.595z"/>
				</g>
			</g>
			<g>
				<g>
					<path style="fill:#FFFFFF;" d="M77.76,195.396c29.418-19.387,58.835-38.774,88.253-58.161
						c5.358-3.531,0.355-12.195-5.047-8.635c-29.418,19.387-58.835,38.774-88.253,58.161
						C67.355,190.292,72.358,198.956,77.76,195.396L77.76,195.396z"/>
				</g>
			</g>
		</g>
		<g>
			<g>
				<path style="fill:#FFFFFF;" d="M77.217,185.265c-1.131,0.711-2.262,1.422-3.393,2.134c-2.512,1.579-3.496,4.834-1.957,7.462
					c1.465,2.501,4.943,3.541,7.462,1.956c1.131-0.711,2.262-1.422,3.393-2.134c2.512-1.579,3.496-4.834,1.957-7.462
					C83.214,184.72,79.736,183.68,77.217,185.265L77.217,185.265z"/>
			</g>
		</g>
		<g>
			<g>
				<path style="fill:#FFFFFF;" d="M283.339,71.148c-1.11,0.743-2.221,1.486-3.332,2.229c-1.207,0.808-2.112,1.829-2.506,3.26
					c-0.388,1.408-0.188,2.943,0.55,4.203c1.434,2.447,4.987,3.612,7.462,1.957c1.11-0.743,2.221-1.486,3.332-2.229
					c1.207-0.808,2.112-1.829,2.506-3.26c0.388-1.408,0.188-2.943-0.55-4.203C289.367,70.658,285.813,69.493,283.339,71.148
					L283.339,71.148z"/>
			</g>
		</g>
	</g>
</g>
<g id="Ebene_1">
</g>
</svg>
