<?xml version="1.0" encoding="iso-8859-1"?>
<!-- Generator: Adobe Illustrator 16.0.0, SVG Export Plug-In . SVG Version: 6.00 Build 0)  -->
<!DOCTYPE svg PUBLIC "-//W3C//DTD SVG 1.1//EN" "http://www.w3.org/Graphics/SVG/1.1/DTD/svg11.dtd">
<svg version="1.1" xmlns="http://www.w3.org/2000/svg" xmlns:xlink="http://www.w3.org/1999/xlink" x="0px" y="0px" width="361px"
	 height="361px" viewBox="0 0 361 361" style="enable-background:new 0 0 361 361;" xml:space="preserve">
<g id="fts_x5F_shutter_x5F_vert_x5F_up">
	<path style="fill:none;stroke:#FFFFFF;stroke-width:10;stroke-miterlimit:10;" d="M271.988,269.805
		c1.464,0,2.651,0.371,2.651,0.828v14.345c0,0.457-1.188,0.827-2.651,0.827H220.29c-1.464,0-2.65-0.37-2.65-0.827v-14.345
		c0-0.457,1.187-0.828,2.65-0.828H271.988z"/>
	<g>
		<g>
			<path style="fill:#FFFFFF;" d="M210.675,271.975c13.375-17.5,26.751-35,40.126-52.5c-2.878,0-5.757,0-8.635,0
				c13.375,17.5,26.75,35,40.125,52.5c1.439-2.508,2.878-5.016,4.317-7.523c-26.75,0-53.501,0-80.251,0c-6.448,0-6.448,10,0,10
				c26.75,0,53.501,0,80.251,0c3.436,0,6.707-4.396,4.317-7.523c-13.375-17.5-26.75-35-40.125-52.5
				c-2.429-3.178-6.206-3.178-8.635,0c-13.375,17.5-26.751,35-40.126,52.5C198.122,272.053,206.815,277.024,210.675,271.975z"/>
		</g>
	</g>
	<g id="Fenster_m_Rahmen_23_">
		<path id="Rahmen_23_" style="fill:none;stroke:#FFFFFF;stroke-width:10;stroke-miterlimit:10;" d="M238.28,187.992
			c0,2.906-2.355,5.261-5.261,5.261H85.694c-2.906,0-5.261-2.354-5.261-5.261V93.284c0-2.906,2.355-5.262,5.261-5.262H233.02
			c2.905,0,5.261,2.356,5.261,5.262V187.992z"/>
		<g id="Hebel_23_">
			<g>
				<path style="fill:#FFFFFF;" d="M154.929,145.514c3.137,0,6.274,0,9.412,0c6.449,0,6.449-10,0-10c-3.137,0-6.274,0-9.412,0
					C148.48,135.514,148.48,145.514,154.929,145.514L154.929,145.514z"/>
			</g>
		</g>
		
			<line id="Mittelsteg_23_" style="fill:none;stroke:#FFFFFF;stroke-width:10;stroke-miterlimit:10;" x1="159.532" y1="88.27" x2="159.532" y2="190.646"/>
		<path id="Sturz_23_" style="fill:#FFFFFF;stroke:#FFFFFF;stroke-width:10;stroke-miterlimit:10;" d="M243.994,89.121
			c0,0.406-2.522,0.736-5.634,0.736H80.619c-3.111,0-5.633-0.33-5.633-0.736V75.893c0-0.405,2.522-0.735,5.633-0.735H238.36
			c3.111,0,5.634,0.33,5.634,0.735V89.121z"/>
	</g>
	<g id="_x31_0_34_">
		<g>
			<path style="fill:#FFFFFF;" d="M97.074,193.292c0-35.875,0.001-71.75,0.001-107.625c0-4.514-7-4.514-7,0
				c0,35.875-0.001,71.75-0.001,107.625C90.074,197.806,97.074,197.806,97.074,193.292L97.074,193.292z"/>
		</g>
	</g>
	<g id="_x32_0_32_">
		<g>
			<path style="fill:#FFFFFF;" d="M111.73,193.292c0.001-35.875,0.001-71.75,0.002-107.625c0-4.514-7-4.514-7,0
				c-0.001,35.875-0.001,71.75-0.002,107.625C104.73,197.806,111.73,197.806,111.73,193.292L111.73,193.292z"/>
		</g>
	</g>
	<g id="_x33_0_30_">
		<g>
			<path style="fill:#FFFFFF;" d="M126.388,193.292c0.001-35.875,0.001-71.75,0.002-107.625c0-4.514-7-4.514-7,0
				c-0.001,35.875-0.001,71.75-0.002,107.625C119.388,197.806,126.388,197.806,126.388,193.292L126.388,193.292z"/>
		</g>
	</g>
	<g id="_x34_0_28_">
		<g>
			<path style="fill:#FFFFFF;" d="M141.044,193.292c0.001-35.875,0.001-71.75,0.002-107.625c0-4.514-7-4.514-7,0
				c-0.001,35.875-0.001,71.75-0.002,107.625C134.044,197.806,141.044,197.806,141.044,193.292L141.044,193.292z"/>
		</g>
	</g>
	<g id="_x35_0_26_">
		<g>
			<path style="fill:#FFFFFF;" d="M155.702,193.292c0.001-35.875,0.001-71.75,0.002-107.625c0-4.514-7-4.514-7,0
				c-0.001,35.875-0.001,71.75-0.002,107.625C148.702,197.806,155.702,197.806,155.702,193.292L155.702,193.292z"/>
		</g>
	</g>
	<g id="_x36_0_24_">
		<g>
			<path style="fill:#FFFFFF;" d="M170.359,193.292c0.001-35.875,0.001-71.75,0.002-107.625c0-4.514-7-4.514-7,0
				c-0.001,35.875-0.001,71.75-0.002,107.625C163.359,197.806,170.359,197.806,170.359,193.292L170.359,193.292z"/>
		</g>
	</g>
	<g id="_x37_0_20_">
		<g>
			<path style="fill:#FFFFFF;" d="M185.016,193.292c0.001-35.875,0.001-71.75,0.002-107.625c0-4.514-7-4.514-7,0
				c0,35.875-0.001,71.75-0.002,107.625C178.016,197.806,185.016,197.806,185.016,193.292L185.016,193.292z"/>
		</g>
	</g>
	<g id="_x38_0_11_">
		<g>
			<path style="fill:#FFFFFF;" d="M199.673,193.292c0.001-35.875,0.001-71.75,0.002-107.625c0-4.514-7-4.514-7,0
				c-0.001,35.875-0.001,71.75-0.002,107.625C192.673,197.806,199.673,197.806,199.673,193.292L199.673,193.292z"/>
		</g>
	</g>
</g>
<g id="Ebene_1">
</g>
</svg>
