<?xml version="1.0" encoding="iso-8859-1"?>
<!-- Generator: Adobe Illustrator 16.0.0, SVG Export Plug-In . SVG Version: 6.00 Build 0)  -->
<!DOCTYPE svg PUBLIC "-//W3C//DTD SVG 1.1//EN" "http://www.w3.org/Graphics/SVG/1.1/DTD/svg11.dtd">
<svg version="1.1" xmlns="http://www.w3.org/2000/svg" xmlns:xlink="http://www.w3.org/1999/xlink" x="0px" y="0px" width="361px"
	 height="361px" viewBox="0 0 361 361" style="enable-background:new 0 0 361 361;" xml:space="preserve">
<g id="fts_x5F_blade_x5F_arc_x5F_90">
	<g>
		<g>
			<g>
				<path style="fill:#FFFFFF;" d="M154.16,282.291c-2.998-48.304,21.698-94.15,63.9-117.952c5.616-3.167,0.577-11.807-5.047-8.635
					c-45.077,25.424-72.06,74.915-68.854,126.587C144.558,288.695,154.56,288.734,154.16,282.291L154.16,282.291z"/>
			</g>
		</g>
		<g>
			<g>
				<path style="fill:#FFFFFF;" d="M144.467,279.568c0.037,0.854,0.073,1.708,0.109,2.563c0.063,1.468,0.544,2.803,1.598,3.856
					c1.018,1.019,2.416,1.598,3.856,1.598c2.877,0,5.581-2.481,5.454-5.454c-0.037-0.854-0.073-1.708-0.109-2.563
					c-0.063-1.468-0.544-2.803-1.598-3.856c-1.018-1.019-2.416-1.598-3.856-1.598C147.044,274.114,144.34,276.596,144.467,279.568
					L144.467,279.568z"/>
			</g>
		</g>
		<g>
			<g>
				<path style="fill:#FFFFFF;" d="M213.054,156.032c-0.7,0.491-1.4,0.981-2.102,1.472c-1.201,0.841-2.106,1.805-2.506,3.26
					c-0.388,1.408-0.188,2.943,0.55,4.203c0.714,1.219,1.896,2.131,3.259,2.506c1.313,0.361,3.051,0.257,4.203-0.55
					c0.7-0.491,1.4-0.981,2.102-1.472c1.201-0.841,2.106-1.805,2.506-3.26c0.388-1.408,0.188-2.943-0.55-4.203
					c-0.714-1.219-1.896-2.131-3.259-2.506C215.943,155.121,214.206,155.225,213.054,156.032L213.054,156.032z"/>
			</g>
		</g>
	</g>
	<g>
		<g>
			<g>
				<path style="fill:#FFFFFF;" d="M152.951,202.054c-2.998-48.303,21.698-94.15,63.9-117.952c5.616-3.167,0.577-11.807-5.047-8.635
					c-45.077,25.423-72.06,74.916-68.854,126.587C143.349,208.458,153.351,208.497,152.951,202.054L152.951,202.054z"/>
			</g>
		</g>
		<g>
			<g>
				<path style="fill:#FFFFFF;" d="M143.258,199.331c0.037,0.854,0.073,1.708,0.109,2.563c0.063,1.468,0.544,2.803,1.598,3.856
					c1.018,1.019,2.416,1.598,3.856,1.598c2.877,0,5.581-2.481,5.454-5.454c-0.037-0.854-0.073-1.708-0.109-2.563
					c-0.063-1.468-0.544-2.803-1.598-3.856c-1.018-1.019-2.416-1.598-3.856-1.598C145.835,193.877,143.131,196.358,143.258,199.331
					L143.258,199.331z"/>
			</g>
		</g>
		<g>
			<g>
				<path style="fill:#FFFFFF;" d="M211.845,75.794c-0.7,0.491-1.4,0.981-2.102,1.472c-1.201,0.841-2.106,1.805-2.506,3.26
					c-0.388,1.408-0.188,2.943,0.55,4.203c0.714,1.219,1.896,2.131,3.259,2.506c1.313,0.361,3.051,0.257,4.203-0.55
					c0.7-0.491,1.4-0.981,2.102-1.472c1.201-0.841,2.106-1.805,2.506-3.26c0.388-1.408,0.188-2.943-0.55-4.203
					c-0.714-1.219-1.896-2.131-3.259-2.506C214.734,74.884,212.997,74.988,211.845,75.794L211.845,75.794z"/>
			</g>
		</g>
	</g>
	<g>
		<g>
			<path style="fill:#FFFFFF;" d="M178.833,71.667c0,5.416,0,10.832,0,16.248c0,1.935,3,1.935,3,0c0-5.416,0-10.832,0-16.248
				C181.833,69.732,178.833,69.732,178.833,71.667L178.833,71.667z"/>
		</g>
	</g>
	<g>
		<g>
			<path style="fill:#FFFFFF;" d="M179,142.989c0,7.612,0,15.225,0,22.837c0,1.935,3,1.935,3,0c0-7.612,0-15.225,0-22.837
				C182,141.055,179,141.055,179,142.989L179,142.989z"/>
		</g>
	</g>
	<g>
		<g>
			<path style="fill:#FFFFFF;" d="M179,217.986c0,23.894,0,47.787,0,71.681c0,1.935,3,1.935,3,0c0-23.894,0-47.787,0-71.681
				C182,216.052,179,216.052,179,217.986L179,217.986z"/>
		</g>
	</g>
	<g>
		<g>
			<path style="fill:#FFFFFF;" d="M179,134c0,7.612,0,15.225,0,22.837c0,1.935,3,1.935,3,0c0-7.612,0-15.225,0-22.837
				C182,132.066,179,132.066,179,134L179,134z"/>
		</g>
	</g>
</g>
<g id="Ebene_1">
</g>
</svg>
