<?xml version="1.0" encoding="iso-8859-1"?>
<!-- Generator: Adobe Illustrator 16.0.0, SVG Export Plug-In . SVG Version: 6.00 Build 0)  -->
<!DOCTYPE svg PUBLIC "-//W3C//DTD SVG 1.1 Tiny//EN" "http://www.w3.org/Graphics/SVG/1.1/DTD/svg11-tiny.dtd">
<svg version="1.1" baseProfile="tiny" id="fts_x5F_blade_x5F_s"
	 xmlns="http://www.w3.org/2000/svg" xmlns:xlink="http://www.w3.org/1999/xlink" x="0px" y="0px" width="361px" height="361px"
	 viewBox="0 0 361 361" xml:space="preserve">
<g>
	<g>
		<path fill="#FFFFFF" d="M176.315,73.545c0,14.222,0,28.445,0,42.667c0,1.935,3,1.935,3,0c0-14.222,0-28.445,0-42.667
			C179.315,71.61,176.315,71.61,176.315,73.545L176.315,73.545z"/>
	</g>
	<g>
		<path fill="#FFFFFF" d="M176.482,156.878c0,16.938,0,33.876,0,50.814c0,1.935,3,1.935,3,0c0-16.938,0-33.876,0-50.814
			C179.482,154.944,176.482,154.944,176.482,156.878L176.482,156.878z"/>
	</g>
	<g>
		<path fill="#FFFFFF" d="M176.482,250.212c0,14.111,0,28.222,0,42.333c0,1.935,3,1.935,3,0c0-14.111,0-28.222,0-42.333
			C179.482,248.278,176.482,248.278,176.482,250.212L176.482,250.212z"/>
	</g>
</g>
<g display="none">
	<g display="inline">
		<path fill="#FFFFFF" d="M207.6,137.068c0,9.159,0,18.318,0,27.477c0,1.935,3,1.935,3,0c0-9.159,0-18.318,0-27.477
			C210.6,135.134,207.6,135.134,207.6,137.068L207.6,137.068z"/>
	</g>
	<g display="inline">
		<path fill="#FFFFFF" d="M207.718,200.878c0,10.444,0,20.889,0,31.333c0,1.935,3,1.935,3,0c0-10.444,0-20.889,0-31.333
			C210.718,198.944,207.718,198.944,207.718,200.878L207.718,200.878z"/>
	</g>
	<g display="inline">
		<path fill="#FFFFFF" d="M207.718,264.878c0,9.17,0,18.341,0,27.511c0,1.935,3,1.935,3,0c0-9.17,0-18.341,0-27.511
			C210.718,262.944,207.718,262.944,207.718,264.878L207.718,264.878z"/>
	</g>
</g>
<g>
	<g>
		<path fill="#FFFFFF" d="M76.91,291.829c13.341-14.04,26.402-28.536,42.876-39.001c9.174-5.829,19.155-10.057,29.564-13.118
			c13.046-3.837,26.421-4.83,39.798-6.824c20.312-3.029,40.404-9.875,57.43-21.516c9.378-6.412,17.226-14.275,24.507-22.923
			c0.856-1.017,1.709-2.071,2.719-2.942c-0.98,0.845-2.405,1.392-4.663,0.309c-1.793-0.861-2.119-3.923-1.267,0.045
			c2.118,9.867,2.515,28.887,15.976,29.893c6.436,0.481,6.39-9.522,0-10c-6.313-0.472-2.304-39.26-17.117-27.317
			c-2.262,1.823-4.005,4.5-5.888,6.688c-3.554,4.131-7.383,8.001-11.496,11.576c-13.656,11.867-30.619,19.211-48.022,23.596
			c-13.099,3.3-26.552,3.957-39.809,6.316c-11.68,2.079-22.998,5.626-33.791,10.539c-23.288,10.601-40.58,29.393-57.889,47.608
			C65.4,289.429,72.46,296.512,76.91,291.829L76.91,291.829z"/>
	</g>
	<g>
		<path fill="#FFFFFF" d="M73.458,282.437c-0.945,0.945-1.89,1.89-2.835,2.834c-2.102,2.101-2.101,5.612,0,7.713
			c2.101,2.102,5.612,2.101,7.713,0c0.945-0.945,1.89-1.89,2.835-2.834c2.102-2.101,2.101-5.612,0-7.713
			C79.07,280.335,75.56,280.335,73.458,282.437L73.458,282.437z"/>
	</g>
	<g>
		<path fill="#FFFFFF" d="M283.851,207.551c-1.336-0.03-2.672-0.06-4.008-0.089c-2.29-0.051-4.2,1.949-4.2,4.2
			c0,2.328,1.912,4.149,4.2,4.2c1.336,0.03,2.672,0.06,4.008,0.089c2.29,0.051,4.2-1.949,4.2-4.2
			C288.051,209.423,286.139,207.603,283.851,207.551L283.851,207.551z"/>
	</g>
</g>
<g>
	<g>
		<path fill="#FFFFFF" d="M77.851,197.667c13.341-14.04,26.402-28.536,42.876-39.001c9.174-5.829,19.155-10.057,29.564-13.118
			c13.046-3.837,26.421-4.83,39.798-6.824c20.312-3.029,40.404-9.875,57.43-21.516c9.378-6.412,17.226-14.275,24.507-22.923
			c0.856-1.017,1.709-2.071,2.719-2.942c-0.98,0.845-2.405,1.392-4.663,0.309c-1.793-0.861-2.119-3.923-1.267,0.045
			c2.118,9.867,2.515,28.887,15.976,29.893c6.436,0.481,6.39-9.522,0-10c-6.313-0.472-2.304-39.26-17.117-27.317
			c-2.262,1.823-4.005,4.5-5.888,6.688c-3.554,4.131-7.383,8.001-11.496,11.576c-13.656,11.867-30.619,19.211-48.022,23.596
			c-13.099,3.3-26.552,3.957-39.809,6.316c-11.68,2.079-22.998,5.626-33.791,10.539c-23.288,10.601-40.58,29.393-57.889,47.608
			C66.34,195.267,73.4,202.349,77.851,197.667L77.851,197.667z"/>
	</g>
	<g>
		<path fill="#FFFFFF" d="M74.399,188.274c-0.945,0.945-1.89,1.89-2.835,2.834c-2.102,2.101-2.101,5.612,0,7.713
			c2.101,2.102,5.612,2.101,7.713,0c0.945-0.945,1.89-1.89,2.835-2.834c2.102-2.101,2.101-5.612,0-7.713
			C80.011,186.172,76.5,186.173,74.399,188.274L74.399,188.274z"/>
	</g>
	<g>
		<path fill="#FFFFFF" d="M284.791,113.389c-1.336-0.03-2.672-0.06-4.008-0.089c-2.29-0.051-4.2,1.949-4.2,4.2
			c0,2.328,1.912,4.149,4.2,4.2c1.336,0.03,2.672,0.06,4.008,0.089c2.29,0.051,4.2-1.949,4.2-4.2
			C288.991,115.261,287.08,113.44,284.791,113.389L284.791,113.389z"/>
	</g>
</g>
</svg>
