<?xml version="1.0" encoding="iso-8859-1"?>
<!-- Generator: Adobe Illustrator 16.0.0, SVG Export Plug-In . SVG Version: 6.00 Build 0)  -->
<!DOCTYPE svg PUBLIC "-//W3C//DTD SVG 1.1//EN" "http://www.w3.org/Graphics/SVG/1.1/DTD/svg11.dtd">
<svg version="1.1" xmlns="http://www.w3.org/2000/svg" xmlns:xlink="http://www.w3.org/1999/xlink" x="0px" y="0px" width="361px"
	 height="361px" viewBox="0 0 361 361" style="enable-background:new 0 0 361 361;" xml:space="preserve">
<g id="fts_x5F_shutter_x5F_unlocked">
	<path style="fill:none;stroke:#FFFFFF;stroke-width:10;stroke-miterlimit:10;" d="M239.016,187.987c0,2.916-2.363,5.28-5.279,5.28
		H85.896c-2.917,0-5.28-2.364-5.28-5.28v-95.04c0-2.916,2.364-5.28,5.28-5.28h147.84c2.916,0,5.279,2.364,5.279,5.28V187.987z"/>
	<g>
		<g>
			<path style="fill:#FFFFFF;" d="M155.373,145.343c3.148,0,6.296,0,9.444,0c6.449,0,6.449-10,0-10c-3.148,0-6.296,0-9.444,0
				C148.924,135.343,148.924,145.343,155.373,145.343L155.373,145.343z"/>
		</g>
	</g>
	
		<line style="fill:none;stroke:#FFFFFF;stroke-width:10;stroke-miterlimit:10;" x1="159.992" y1="87.916" x2="159.992" y2="190.652"/>
	<path style="fill:#FFFFFF;stroke:#FFFFFF;stroke-width:10;stroke-miterlimit:10;" d="M244.749,88.771
		c0,0.407-2.53,0.738-5.653,0.738H80.803c-3.122,0-5.653-0.331-5.653-0.738V75.496c0-0.407,2.531-0.738,5.653-0.738h158.293
		c3.123,0,5.653,0.331,5.653,0.738V88.771z"/>
	<g>
		<g>
			<path style="fill:#FFFFFF;" d="M75.416,103.166c49.739,0,99.478,0.001,149.217,0.002c6.75,0,13.5,0,20.25,0c4.514,0,4.514-7,0-7
				c-49.739,0-99.478-0.001-149.216-0.002c-6.75,0-13.5,0-20.25,0C70.902,96.166,70.902,103.166,75.416,103.166L75.416,103.166z"/>
		</g>
	</g>
	<g>
		<g>
			<path style="fill:#FFFFFF;" d="M75.416,113.566c49.739,0,99.478,0.001,149.217,0.002c6.75,0,13.5,0,20.25,0c4.514,0,4.514-7,0-7
				c-49.739,0-99.478-0.001-149.216-0.002c-6.75,0-13.5,0-20.25,0C70.902,106.566,70.902,113.566,75.416,113.566L75.416,113.566z"/>
		</g>
	</g>
	<g>
		<g>
			<path style="fill:#FFFFFF;" d="M75.416,123.966c49.739,0,99.478,0.001,149.217,0.002c6.75,0,13.5,0,20.25,0c4.514,0,4.514-7,0-7
				c-49.739,0-99.478-0.001-149.216-0.002c-6.75,0-13.5,0-20.25,0C70.902,116.966,70.902,123.966,75.416,123.966L75.416,123.966z"/>
		</g>
	</g>
	<g>
		<g>
			<path style="fill:#FFFFFF;" d="M75.416,134.366c49.739,0,99.478,0.001,149.217,0.002c6.75,0,13.5,0,20.25,0c4.514,0,4.514-7,0-7
				c-49.739,0-99.478-0.001-149.216-0.002c-6.75,0-13.5,0-20.25,0C70.902,127.366,70.902,134.366,75.416,134.366L75.416,134.366z"/>
		</g>
	</g>
	<g>
		<g>
			<g>
				<path style="fill:#FFFFFF;" d="M228.291,242.667c-0.039,0.181-1.229,0.093,0.117,0.093c0.783,0,1.566,0,2.349,0
					c3.004,0,6.008,0,9.012,0c7.986,0,15.973,0,23.96,0c5.584,0,11.168,0,16.753,0c1.302,0-0.009-1.834-0.009,0.346
					c0,2.743,0,5.486,0,8.229c0,7.871,0,15.743,0,23.615c0,2.745,0,5.489,0,8.234c0,0.65,0,1.301,0,1.951
					c0,0.365,1.497-0.762,0.261-0.762c-13.369,0-26.737,0-40.106,0c-4.227,0-8.453,0-12.68,0c-0.953,0,0.469,0.854,0.469,0.906
					c0-0.55,0-1.101,0-1.65c0-2.61,0-5.22,0-7.83c0-11.354,0-22.709,0-34.063c0-4.514-7-4.514-7,0c0,12.402,0,24.806,0,37.208
					c0,4.739-0.993,11.133,5.221,12.305c3.895,0.734,8.358,0.125,12.292,0.125c13.753,0,27.506,0,41.259,0
					c4.935,0,7.285-3.078,7.285-7.744c0-6.688,0-13.375,0-20.063c0-7.277,0-14.554,0-21.831c0-7.954-11.712-5.977-16.691-5.977
					c-10.338,0-20.675,0-31.013,0c-5.363,0-16.663-2.189-18.228,5.046C220.589,245.207,227.337,247.078,228.291,242.667z"/>
			</g>
		</g>
		<g>
			<g>
				<path style="fill:#FFFFFF;" d="M225.639,280.281c9.953,0,19.906,0,29.859,0c4.514,0,4.514-7,0-7c-9.953,0-19.906,0-29.859,0
					C221.125,273.281,221.125,280.281,225.639,280.281L225.639,280.281z"/>
			</g>
		</g>
		<g>
			<g>
				<path style="fill:#FFFFFF;" d="M227.039,268.318c9.486,0,18.973,0,28.459,0c4.514,0,4.514-7,0-7c-9.486,0-18.973,0-28.459,0
					C222.525,261.318,222.525,268.318,227.039,268.318L227.039,268.318z"/>
			</g>
		</g>
		<g>
			<g>
				<path style="fill:#FFFFFF;" d="M227.039,256.355c9.486,0,18.973,0,28.459,0c4.514,0,4.514-7,0-7c-9.486,0-18.973,0-28.459,0
					C222.525,249.355,222.525,256.355,227.039,256.355L227.039,256.355z"/>
			</g>
		</g>
		<g>
			<g>
				<path style="fill:#FFFFFF;" d="M248.67,211.438c2.103-2.102,4.204-4.203,6.306-6.305c1.041-1.04,2.082-2.081,3.123-3.122
					c0.326-0.327,1.07-0.822-0.196,0.061c0.217-0.151,1.968-0.396,2.538-0.506c1.96-0.373,3.968-0.5,5.958-0.565
					c2.414-0.079,1.324,0.841-0.574-1.059c0.273,0.273,0.547,0.547,0.82,0.82c2.464,2.465,4.929,4.93,7.394,7.395
					c2.579,2.579,5.158,5.159,7.737,7.738c1.791,1.79,0.339,1.199,0.08-0.998c0.249,2.114-0.063,4.435-0.36,6.527
					c-0.147,1.03-1.62,4.375-0.171,2.925c-0.975,0.975-1.949,1.95-2.925,2.926c-2.315,2.315-4.631,4.632-6.946,6.948
					c-4.563,4.563,2.508,11.635,7.07,7.07c2.706-2.706,5.413-5.413,8.119-8.12c3.018-3.019,4.038-5.883,4.647-10.158
					c0.563-3.953,1.813-9.935-1.378-13.126c-2.702-2.702-5.404-5.404-8.106-8.106c-2.875-2.876-5.751-5.752-8.627-8.628
					c-3.068-3.068-8.079-2.207-11.973-1.731c-4.31,0.527-7.867,1.206-10.981,4.319c-2.875,2.875-5.75,5.75-8.625,8.625
					C237.035,208.931,244.106,216.001,248.67,211.438L248.67,211.438z"/>
			</g>
		</g>
	</g>
</g>
<g id="Ebene_1">
</g>
</svg>
