<?xml version="1.0" encoding="iso-8859-1"?>
<!-- Generator: Adobe Illustrator 16.0.0, SVG Export Plug-In . SVG Version: 6.00 Build 0)  -->
<!DOCTYPE svg PUBLIC "-//W3C//DTD SVG 1.1//EN" "http://www.w3.org/Graphics/SVG/1.1/DTD/svg11.dtd">
<svg version="1.1" xmlns="http://www.w3.org/2000/svg" xmlns:xlink="http://www.w3.org/1999/xlink" x="0px" y="0px" width="361px"
	 height="361px" viewBox="0 0 361 361" style="enable-background:new 0 0 361 361;" xml:space="preserve">
<g id="fts_x5F_blade_x5F_s_x5F_sun">
	<g style="display:none;">
		<g style="display:inline;">
			<g>
				<path style="fill:#FFFFFF;" d="M210.117,134.19c0,9.159,0,18.318,0,27.477c0,1.935,3,1.935,3,0c0-9.159,0-18.318,0-27.477
					C213.117,132.256,210.117,132.256,210.117,134.19L210.117,134.19z"/>
			</g>
		</g>
		<g style="display:inline;">
			<g>
				<path style="fill:#FFFFFF;" d="M210.236,198c0,10.444,0,20.89,0,31.334c0,1.935,3,1.935,3,0c0-10.444,0-20.89,0-31.334
					C213.236,196.065,210.236,196.065,210.236,198L210.236,198z"/>
			</g>
		</g>
		<g style="display:inline;">
			<g>
				<path style="fill:#FFFFFF;" d="M210.236,262c0,9.171,0,18.341,0,27.512c0,1.935,3,1.935,3,0c0-9.171,0-18.341,0-27.512
					C213.236,260.065,210.236,260.065,210.236,262L210.236,262z"/>
			</g>
		</g>
	</g>
	<g>
		<g>
			<g>
				<path style="fill:#FFFFFF;" d="M207.301,128.667c0,10.423,0,20.846,0,31.27c0,1.935,3,1.935,3,0c0-10.423,0-20.846,0-31.27
					C210.301,126.732,207.301,126.732,207.301,128.667L207.301,128.667z"/>
			</g>
		</g>
		<g>
			<g>
				<path style="fill:#FFFFFF;" d="M207.423,189.74c0,12.413,0,24.827,0,37.24c0,1.935,3,1.935,3,0c0-12.413,0-24.827,0-37.24
					C210.423,187.806,207.423,187.806,207.423,189.74L207.423,189.74z"/>
			</g>
		</g>
		<g>
			<g>
				<path style="fill:#FFFFFF;" d="M207.423,258.143c0,10.342,0,20.683,0,31.024c0,1.935,3,1.935,3,0c0-10.342,0-20.683,0-31.024
					C210.423,256.208,207.423,256.208,207.423,258.143L207.423,258.143z"/>
			</g>
		</g>
	</g>
	<g>
		<g>
			<path style="fill:#FFFFFF;" d="M135.795,289.586c12.864-13.543,25.527-27.3,43.144-34.623
				c11.229-4.668,22.992-6.167,34.941-7.727c11.033-1.439,21.638-4.227,31.866-8.604c11.968-5.12,22.45-13.134,30.854-23.027
				c0.892-1.05,1.757-2.124,2.684-3.145c0.392-0.431,1.669-1.318,0.104-0.242c-1.726,1.188-5.673-0.622-6.188-2.335
				c2.563,8.518,1.59,23.111,13.313,24.339c6.411,0.671,6.347-9.336,0-10c0.995,0.104,0.033-0.794-0.219-1.446
				c-0.489-1.271-0.779-2.629-1.099-3.948c-0.774-3.191-1.289-6.452-1.936-9.671c-0.446-2.225-1.042-4.544-3.21-5.721
				c-3.815-2.07-6.846,0.735-9.146,3.463c-8.209,9.731-17.479,17.28-29.142,22.628c-21.58,9.896-46.123,7.364-67.894,16.804
				c-18.298,7.933-31.654,21.982-45.144,36.185C124.286,287.188,131.346,294.27,135.795,289.586L135.795,289.586z"/>
		</g>
	</g>
	<g>
		<g>
			<path style="fill:#FFFFFF;" d="M132.435,280.873c-0.692,0.692-1.385,1.385-2.078,2.077c-2.023,2.021-2.022,5.402,0,7.424
				c2.023,2.023,5.401,2.022,7.425,0c0.692-0.692,1.385-1.385,2.078-2.077c2.023-2.021,2.022-5.402,0-7.424
				C137.836,278.85,134.458,278.851,132.435,280.873L132.435,280.873z"/>
		</g>
	</g>
	<g>
		<g>
			<path style="fill:#FFFFFF;" d="M286.512,226.755c-0.979-0.021-1.958-0.043-2.938-0.065c-2.29-0.051-4.2,1.949-4.2,4.2
				c0,2.328,1.912,4.149,4.2,4.2c0.979,0.021,1.958,0.043,2.938,0.065c2.29,0.051,4.2-1.949,4.2-4.2
				C290.712,228.627,288.8,226.806,286.512,226.755L286.512,226.755z"/>
		</g>
	</g>
	<g>
		<g>
			<path style="fill:#FFFFFF;" d="M136.484,220.576c12.864-13.543,25.528-27.3,43.144-34.623
				c11.229-4.668,22.992-6.167,34.941-7.726c11.033-1.439,21.638-4.228,31.866-8.604c11.968-5.121,22.45-13.134,30.854-23.028
				c0.892-1.05,1.757-2.124,2.684-3.144c0.392-0.432,1.669-1.319,0.104-0.243c-1.726,1.188-5.673-0.622-6.188-2.335
				c2.563,8.519,1.588,23.112,13.313,24.339c6.411,0.671,6.347-9.336,0-10c0.994,0.104,0.032-0.794-0.22-1.446
				c-0.489-1.27-0.779-2.629-1.099-3.947c-0.775-3.191-1.289-6.453-1.935-9.671c-0.446-2.225-1.042-4.544-3.21-5.721
				c-3.815-2.07-6.846,0.736-9.146,3.463c-8.209,9.732-17.479,17.28-29.142,22.628c-21.58,9.896-46.123,7.364-67.895,16.803
				c-18.298,7.933-31.654,21.983-45.144,36.185C124.975,218.178,132.035,225.26,136.484,220.576L136.484,220.576z"/>
		</g>
	</g>
	<g>
		<g>
			<path style="fill:#FFFFFF;" d="M133.124,211.863c-0.692,0.692-1.385,1.385-2.078,2.077c-2.023,2.022-2.022,5.401,0,7.424
				c2.023,2.023,5.402,2.022,7.425,0c0.692-0.692,1.385-1.385,2.078-2.077c2.023-2.022,2.022-5.401,0-7.424
				C138.525,209.84,135.146,209.841,133.124,211.863L133.124,211.863z"/>
		</g>
	</g>
	<g>
		<g>
			<path style="fill:#FFFFFF;" d="M287.201,157.746c-0.979-0.022-1.958-0.044-2.938-0.066c-2.29-0.051-4.2,1.95-4.2,4.2
				c0,2.328,1.912,4.148,4.2,4.2c0.979,0.022,1.958,0.044,2.938,0.066c2.29,0.051,4.2-1.95,4.2-4.2
				C291.401,159.617,289.489,157.797,287.201,157.746L287.201,157.746z"/>
		</g>
	</g>
	<g id="sonne_2_">
		<path style="fill:none;stroke:#FFFFFF;stroke-width:10;stroke-miterlimit:10;" d="M90.708,118.978c0,2.245,1.82,4.064,4.064,4.064
			h23.371c2.245,0,4.064-1.82,4.064-4.064V95.606c0-2.245-1.82-4.064-4.064-4.064H94.772c-2.245,0-4.064,1.82-4.064,4.064V118.978z"
			/>
		<g>
			<g>
				<path style="fill:#FFFFFF;" d="M137.797,71.131c-2.406,2.407-4.813,4.813-7.219,7.219c-1.926,1.926-1.926,5.145,0,7.071
					s5.145,1.926,7.071,0c2.406-2.407,4.813-4.813,7.219-7.219c1.926-1.926,1.926-5.145,0-7.071S139.723,69.205,137.797,71.131
					L137.797,71.131z"/>
			</g>
		</g>
		<g>
			<g>
				<path style="fill:#FFFFFF;" d="M175.708,102.042c-11.167,0-22.333,0-33.5,0c-6.449,0-6.449,10,0,10c11.167,0,22.333,0,33.5,0
					C182.156,112.042,182.156,102.042,175.708,102.042L175.708,102.042z"/>
			</g>
		</g>
		<g>
			<g>
				<path style="fill:#FFFFFF;" d="M78.369,143.702c1.99-1.99,3.979-3.979,5.969-5.969c1.926-1.926,1.926-5.145,0-7.071
					s-5.145-1.926-7.071,0c-1.99,1.99-3.979,3.979-5.969,5.969c-1.926,1.926-1.926,5.145,0,7.071S76.442,145.628,78.369,143.702
					L78.369,143.702z"/>
			</g>
		</g>
		<g>
			<g>
				<path style="fill:#FFFFFF;" d="M111.958,175.792c0-11.167,0-22.333,0-33.5c0-6.449-10-6.449-10,0c0,11.167,0,22.333,0,33.5
					C101.958,182.24,111.958,182.24,111.958,175.792L111.958,175.792z"/>
			</g>
		</g>
		<g>
			<g>
				<path style="fill:#FFFFFF;" d="M160.337,154.351c-7.896-7.896-15.792-15.792-23.688-23.688
					c-4.564-4.563-11.635,2.507-7.071,7.071c7.896,7.896,15.792,15.792,23.688,23.688
					C157.83,165.985,164.901,158.915,160.337,154.351L160.337,154.351z"/>
			</g>
		</g>
	</g>
</g>
<g id="Ebene_1">
</g>
</svg>
