<?xml version="1.0" encoding="iso-8859-1"?>
<!-- Generator: Adobe Illustrator 16.0.0, SVG Export Plug-In . SVG Version: 6.00 Build 0)  -->
<!DOCTYPE svg PUBLIC "-//W3C//DTD SVG 1.1//EN" "http://www.w3.org/Graphics/SVG/1.1/DTD/svg11.dtd">
<svg version="1.1" xmlns="http://www.w3.org/2000/svg" xmlns:xlink="http://www.w3.org/1999/xlink" x="0px" y="0px" width="361px"
	 height="361px" viewBox="0 0 361 361" style="enable-background:new 0 0 361 361;" xml:space="preserve">
<g id="fts_x5F_frontdoor">
	<path style="fill:none;stroke:#FFFFFF;stroke-width:10;stroke-miterlimit:10;" d="M232.836,280.912
		c0,3.406-2.713,6.168-6.059,6.168h-92.89c-3.346,0-6.058-2.762-6.058-6.168V80.816c0-3.406,2.712-6.167,6.058-6.167h92.89
		c3.346,0,6.059,2.761,6.059,6.167V280.912z"/>
	<g>
		<g>
			<path style="fill:#FFFFFF;" d="M129.83,185.667c3.333,0,6.667,0,10,0c6.449,0,6.449-10,0-10c-3.333,0-6.667,0-10,0
				C123.381,175.667,123.381,185.667,129.83,185.667L129.83,185.667z"/>
		</g>
	</g>
	<path style="fill:none;stroke:#FFFFFF;stroke-width:10;stroke-miterlimit:10;" d="M231.163,280c0-3.313-2.687-6-6-6H133.83
		c-3.313,0-6,2.687-6,6v0.667c0,3.313,2.687,6,6,6h91.333c3.313,0,6-2.687,6-6V280z"/>
	<g>
		<g>
			<path style="fill:#FFFFFF;" d="M129.833,186.077c3.338,0,6.676,0,10.014,0c4.514,0,4.514-7,0-7c-3.338,0-6.676,0-10.014,0
				C125.319,179.077,125.319,186.077,129.833,186.077L129.833,186.077z"/>
		</g>
	</g>
	<g>
		<g>
			<g>
				<path style="fill:#FFFFFF;" d="M188.537,121.593c0.23-0.853,2.312-0.752,1.079-0.752c-0.632,0-1.265,0-1.897,0
					c-2.136,0-4.271,0-6.407,0c-3.461,0-6.921,0-10.382,0c1.593,0,1.465,2.945,1.465-0.125c0-2.031,0-4.062,0-6.092
					c0-3.506,0-7.012,0-10.517c0,1.718-2.624,1.625-1.204,1.625c0.633,0,1.265,0,1.898,0c2.136,0,4.271,0,6.408,0
					c3.514,0,7.029,0,10.543,0c-1.723,0-1.628-2.624-1.628-1.196c0,0.639,0,1.277,0,1.915c0,2.13,0,4.26,0,6.39
					c0,3.228,0,6.456,0,9.684c0,4.514,7,4.514,7,0c0-4.382,0-8.765,0-13.146c0-4.045,0.667-10.646-5.316-10.646
					c-4.417,0-8.834,0-13.25,0c-4.346,0-9.873-0.98-11.325,4.388c-1.067,3.947-0.125,9.2-0.125,13.243
					c0,4.35-0.989,9.9,4.386,11.354c3.968,1.073,9.252,0.125,13.316,0.125c4.489,0,10.68,1.204,12.189-4.386
					C196.466,119.089,189.713,117.24,188.537,121.593z"/>
			</g>
		</g>
		<g>
			<g>
				<path style="fill:#FFFFFF;" d="M188.537,163.452c0.23-0.853,2.312-0.752,1.079-0.752c-0.632,0-1.265,0-1.897,0
					c-2.136,0-4.271,0-6.407,0c-3.461,0-6.921,0-10.382,0c1.593,0,1.465,2.945,1.465-0.125c0-2.031,0-4.062,0-6.092
					c0-3.506,0-7.012,0-10.517c0,1.718-2.624,1.625-1.204,1.625c0.633,0,1.265,0,1.898,0c2.136,0,4.271,0,6.408,0
					c3.514,0,7.029,0,10.543,0c-1.723,0-1.628-2.624-1.628-1.196c0,0.639,0,1.277,0,1.915c0,2.13,0,4.26,0,6.39
					c0,3.228,0,6.456,0,9.684c0,4.514,7,4.514,7,0c0-4.382,0-8.765,0-13.146c0-4.045,0.667-10.646-5.316-10.646
					c-4.417,0-8.834,0-13.25,0c-4.346,0-9.873-0.98-11.325,4.388c-1.067,3.947-0.125,9.2-0.125,13.243
					c0,4.35-0.988,9.899,4.386,11.354c3.968,1.073,9.253,0.125,13.316,0.125c4.489,0,10.679,1.203,12.189-4.386
					C196.466,160.949,189.713,159.099,188.537,163.452z"/>
			</g>
		</g>
		<g>
			<g>
				<path style="fill:#FFFFFF;" d="M188.537,202.892c0.23-0.853,2.312-0.752,1.079-0.752c-0.632,0-1.265,0-1.897,0
					c-2.136,0-4.271,0-6.407,0c-3.461,0-6.921,0-10.382,0c1.593,0,1.465,2.944,1.465-0.126c0-2.03,0-4.061,0-6.092
					c0-3.506,0-7.011,0-10.517c0,1.718-2.624,1.624-1.204,1.624c0.633,0,1.265,0,1.898,0c2.136,0,4.271,0,6.408,0
					c3.514,0,7.029,0,10.543,0c-1.723,0-1.628-2.623-1.628-1.195c0,0.639,0,1.276,0,1.915c0,2.13,0,4.26,0,6.39
					c0,3.228,0,6.456,0,9.684c0,4.514,7,4.514,7,0c0-4.382,0-8.765,0-13.146c0-4.045,0.667-10.646-5.316-10.646
					c-4.417,0-8.834,0-13.25,0c-4.346,0-9.874-0.98-11.325,4.389c-1.067,3.947-0.125,9.199-0.125,13.243
					c0,4.35-0.988,9.898,4.386,11.354c3.967,1.074,9.253,0.125,13.316,0.125c4.489,0,10.679,1.203,12.189-4.387
					C196.466,200.389,189.713,198.539,188.537,202.892z"/>
			</g>
		</g>
		<g>
			<g>
				<path style="fill:#FFFFFF;" d="M188.537,244.751c0.23-0.853,2.312-0.752,1.079-0.752c-0.632,0-1.265,0-1.897,0
					c-2.136,0-4.271,0-6.407,0c-3.461,0-6.921,0-10.382,0c1.593,0,1.465,2.944,1.465-0.126c0-2.03,0-4.062,0-6.092
					c0-3.506,0-7.012,0-10.518c0,1.719-2.624,1.625-1.204,1.625c0.633,0,1.265,0,1.898,0c2.136,0,4.271,0,6.408,0
					c3.514,0,7.029,0,10.543,0c-1.723,0-1.628-2.624-1.628-1.196c0,0.639,0,1.277,0,1.915c0,2.13,0,4.26,0,6.39
					c0,3.229,0,6.456,0,9.685c0,4.514,7,4.514,7,0c0-4.383,0-8.765,0-13.147c0-4.045,0.667-10.646-5.316-10.646
					c-4.417,0-8.834,0-13.25,0c-4.346,0-9.873-0.98-11.325,4.388c-1.068,3.947-0.125,9.2-0.125,13.243
					c0,4.351-0.988,9.899,4.386,11.354c3.967,1.074,9.253,0.125,13.316,0.125c4.489,0,10.679,1.203,12.189-4.387
					C196.466,242.248,189.713,240.398,188.537,244.751z"/>
			</g>
		</g>
	</g>
</g>
<g id="Ebene_1">
</g>
</svg>
