<?xml version="1.0" encoding="iso-8859-1"?>
<!-- Generator: Adobe Illustrator 16.0.0, SVG Export Plug-In . SVG Version: 6.00 Build 0)  -->
<!DOCTYPE svg PUBLIC "-//W3C//DTD SVG 1.1//EN" "http://www.w3.org/Graphics/SVG/1.1/DTD/svg11.dtd">
<svg version="1.1" xmlns="http://www.w3.org/2000/svg" xmlns:xlink="http://www.w3.org/1999/xlink" x="0px" y="0px" width="361px"
	 height="361px" viewBox="0 0 361 361" style="enable-background:new 0 0 361 361;" xml:space="preserve">
<g id="fts_x5F_blade_x5F_z_x5F_50">
	<g>
		<g>
			<path style="fill:#FFFFFF;" d="M178.833,70.667c0,19.833,0,39.667,0,59.5c0,1.935,3,1.935,3,0c0-19.833,0-39.667,0-59.5
				C181.833,68.732,178.833,68.732,178.833,70.667L178.833,70.667z"/>
		</g>
	</g>
	<g>
		<g>
			<path style="fill:#FFFFFF;" d="M179,159.082c0,13.55,0,27.1,0,40.651c0,1.935,3,1.935,3,0c0-13.551,0-27.101,0-40.651
				C182,157.147,179,157.147,179,159.082L179,159.082z"/>
		</g>
	</g>
	<g>
		<g>
			<path style="fill:#FFFFFF;" d="M179,230.667c0,19.667,0,39.333,0,59c0,1.935,3,1.935,3,0c0-19.667,0-39.333,0-59
				C182,228.732,179,228.732,179,230.667L179,230.667z"/>
		</g>
	</g>
	<g style="display:none;">
		<g style="display:inline;">
			<g>
				<path style="fill:#FFFFFF;" d="M210.117,134.19c0,9.159,0,18.318,0,27.477c0,1.935,3,1.935,3,0c0-9.159,0-18.318,0-27.477
					C213.117,132.256,210.117,132.256,210.117,134.19L210.117,134.19z"/>
			</g>
		</g>
		<g style="display:inline;">
			<g>
				<path style="fill:#FFFFFF;" d="M210.236,198c0,10.444,0,20.89,0,31.334c0,1.935,3,1.935,3,0c0-10.444,0-20.89,0-31.334
					C213.236,196.065,210.236,196.065,210.236,198L210.236,198z"/>
			</g>
		</g>
		<g style="display:inline;">
			<g>
				<path style="fill:#FFFFFF;" d="M210.236,262c0,9.171,0,18.341,0,27.512c0,1.935,3,1.935,3,0c0-9.171,0-18.341,0-27.512
					C213.236,260.065,210.236,260.065,210.236,262L210.236,262z"/>
			</g>
		</g>
	</g>
	<g>
		<g>
			<g>
				<g>
					<path style="fill:#FFFFFF;" d="M169.798,152.556c7.112-0.17,14.225-0.34,21.337-0.51c6.438-0.154,6.452-10.154,0-10
						c-7.112,0.17-14.225,0.34-21.337,0.51C163.36,142.709,163.345,152.71,169.798,152.556L169.798,152.556z"/>
				</g>
			</g>
			<g>
				<g>
					<path style="fill:#FFFFFF;" d="M194.301,151.358c18.395-13.041,36.79-26.082,55.185-39.123
						c5.214-3.696,0.227-12.374-5.047-8.635c-18.396,13.041-36.79,26.082-55.185,39.123
						C184.04,146.42,189.027,155.097,194.301,151.358L194.301,151.358z"/>
				</g>
			</g>
			<g>
				<g>
					<path style="fill:#FFFFFF;" d="M117.137,190.991c18.395-13.04,36.79-26.079,55.185-39.118
						c5.214-3.696,0.227-12.373-5.047-8.635c-18.395,13.04-36.79,26.079-55.185,39.118
						C106.875,186.053,111.863,194.729,117.137,190.991L117.137,190.991z"/>
				</g>
			</g>
		</g>
		<g>
			<g>
				<path style="fill:#FFFFFF;" d="M114.865,181.156c-0.708,0.479-1.416,0.959-2.125,1.438c-1.206,0.816-2.111,1.822-2.506,3.259
					c-0.387,1.408-0.188,2.943,0.55,4.203c0.714,1.219,1.896,2.131,3.26,2.506c1.331,0.366,3.029,0.245,4.203-0.55
					c0.708-0.479,1.416-0.959,2.125-1.438c1.206-0.816,2.111-1.822,2.506-3.259c0.387-1.408,0.188-2.943-0.55-4.203
					c-0.714-1.219-1.896-2.131-3.26-2.506C117.736,180.24,116.038,180.362,114.865,181.156L114.865,181.156z"/>
			</g>
		</g>
		<g>
			<g>
				<path style="fill:#FFFFFF;" d="M244.224,103.683c-0.693,0.5-1.387,1-2.081,1.499c-1.196,0.862-2.103,1.791-2.506,3.26
					c-0.388,1.408-0.188,2.943,0.55,4.203c0.714,1.219,1.896,2.131,3.259,2.506c1.298,0.357,3.069,0.267,4.203-0.55
					c0.693-0.5,1.387-1,2.081-1.499c1.196-0.862,2.103-1.791,2.506-3.26c0.388-1.408,0.188-2.943-0.55-4.203
					c-0.714-1.219-1.896-2.131-3.259-2.506C247.129,102.776,245.357,102.867,244.224,103.683L244.224,103.683z"/>
			</g>
		</g>
	</g>
	<g>
		<g>
			<g>
				<g>
					<path style="fill:#FFFFFF;" d="M169.437,219.172c7.112-0.169,14.225-0.339,21.337-0.508c6.438-0.153,6.452-10.153,0-10
						c-7.112,0.169-14.225,0.339-21.337,0.508C162.999,209.325,162.984,219.325,169.437,219.172L169.437,219.172z"/>
				</g>
			</g>
			<g>
				<g>
					<path style="fill:#FFFFFF;" d="M193.938,217.974c18.396-13.04,36.791-26.08,55.187-39.121
						c5.214-3.696,0.227-12.374-5.047-8.635c-18.396,13.041-36.791,26.081-55.187,39.121
						C183.678,213.035,188.665,221.712,193.938,217.974L193.938,217.974z"/>
				</g>
			</g>
			<g>
				<g>
					<path style="fill:#FFFFFF;" d="M116.774,257.61c18.396-13.04,36.791-26.081,55.186-39.121
						c5.214-3.696,0.227-12.373-5.047-8.635c-18.396,13.04-36.791,26.081-55.186,39.121
						C106.513,252.672,111.5,261.349,116.774,257.61L116.774,257.61z"/>
				</g>
			</g>
		</g>
		<g>
			<g>
				<path style="fill:#FFFFFF;" d="M114.502,247.775c-0.708,0.479-1.416,0.958-2.124,1.438c-1.206,0.815-2.111,1.822-2.506,3.259
					c-0.387,1.408-0.188,2.943,0.55,4.203c0.714,1.219,1.896,2.131,3.26,2.506c1.331,0.366,3.029,0.245,4.203-0.55
					c0.708-0.479,1.416-0.958,2.124-1.438c1.206-0.815,2.111-1.822,2.506-3.259c0.387-1.408,0.188-2.943-0.55-4.203
					c-0.714-1.219-1.896-2.131-3.26-2.506C117.374,246.859,115.675,246.98,114.502,247.775L114.502,247.775z"/>
			</g>
		</g>
		<g>
			<g>
				<path style="fill:#FFFFFF;" d="M243.863,170.301c-0.694,0.5-1.389,1.001-2.083,1.501c-1.196,0.862-2.103,1.79-2.506,3.26
					c-0.388,1.408-0.188,2.943,0.55,4.203c0.714,1.219,1.896,2.131,3.259,2.506c1.298,0.356,3.069,0.267,4.203-0.55
					c0.694-0.5,1.389-1.001,2.083-1.501c1.196-0.862,2.103-1.79,2.506-3.26c0.388-1.408,0.188-2.943-0.55-4.203
					c-0.714-1.219-1.896-2.131-3.259-2.506C246.769,169.394,244.997,169.484,243.863,170.301L243.863,170.301z"/>
			</g>
		</g>
	</g>
</g>
<g id="Ebene_1">
</g>
</svg>
