<?xml version="1.0" encoding="iso-8859-1"?>
<!-- Generator: Adobe Illustrator 16.0.0, SVG Export Plug-In . SVG Version: 6.00 Build 0)  -->
<!DOCTYPE svg PUBLIC "-//W3C//DTD SVG 1.1//EN" "http://www.w3.org/Graphics/SVG/1.1/DTD/svg11.dtd">
<svg version="1.1" xmlns="http://www.w3.org/2000/svg" xmlns:xlink="http://www.w3.org/1999/xlink" x="0px" y="0px" width="361px"
	 height="361px" viewBox="0 0 361 361" style="enable-background:new 0 0 361 361;" xml:space="preserve">
<g id="fts_x5F_window_x5F_roof_x5F_shutter_x5F_80">
	<g id="Fenster_gerade_8_" style="display:none;">
		<path style="display:inline;fill:none;stroke:#FFFFFF;stroke-width:10;stroke-miterlimit:10;" d="M247.826,264.303
			c0,3.91-3.156,7.082-7.05,7.082l-117.885,0.021c-3.894,0-7.05-3.171-7.05-7.083v-137.5c0-3.911,3.156-7.083,7.05-7.083
			l117.885-0.021c3.894,0,7.05,3.172,7.05,7.083V264.303z"/>
		<g style="display:inline;">
			<g>
				<path style="fill:#FFFFFF;" d="M175.833,260.681c0,2.213,0,4.427,0,6.64c0,2.726,2.274,5,5,5s5-2.274,5-5
					c0-2.213,0-4.427,0-6.64c0-2.726-2.274-5-5-5S175.833,257.955,175.833,260.681L175.833,260.681z"/>
			</g>
		</g>
		<path style="display:inline;fill:none;stroke:#FFFFFF;stroke-width:10;stroke-miterlimit:10;" d="M247.826,124.208
			c0,2.485-2.711,4.5-6.053,4.5l-119.88,0.021c-3.342,0-6.052-2.015-6.052-4.5v-9c0-2.485,2.71-4.5,6.052-4.5l119.88-0.021
			c3.342,0,6.053,2.015,6.053,4.5V124.208z"/>
		<path style="display:inline;fill:none;stroke:#FFFFFF;stroke-width:10;stroke-miterlimit:10;" d="M261.008,277.855
			c0,4.685-3.782,8.484-8.446,8.484l-141.235,0.025c-4.665,0-8.446-3.8-8.446-8.486V103.144c0-4.685,3.782-8.486,8.446-8.486
			l141.235-0.024c4.664,0,8.446,3.801,8.446,8.486V277.855z"/>
	</g>
	<g>
		<path style="fill:none;stroke:#FFFFFF;stroke-width:10;stroke-miterlimit:10;" d="M201.967,246.192
			c-1.693,3.632-5.998,6.577-9.614,6.577l-90.915,0.019c-3.616,0-5.174-2.945-3.479-6.578l59.546-127.698
			c1.694-3.632,6-6.578,9.615-6.578l90.915-0.02c3.616,0,5.174,2.946,3.479,6.579L201.967,246.192z"/>
		<g>
			<g>
				<path style="fill:#FFFFFF;" d="M146.288,240.305c-0.958,2.055-1.917,4.11-2.876,6.166c-1.152,2.47-0.717,5.37,1.794,6.841
					c2.186,1.28,5.689,0.676,6.841-1.794c0.958-2.055,1.917-4.11,2.876-6.166c1.152-2.47,0.717-5.37-1.794-6.841
					C150.943,237.23,147.44,237.835,146.288,240.305L146.288,240.305z"/>
			</g>
		</g>
	</g>
	<g>
		<g>
			<path style="fill:none;stroke:#FFFFFF;stroke-width:10;stroke-miterlimit:10;" d="M207.744,264.139
				c-2.091,4.48-7.4,8.113-11.861,8.113l-115.944,0.023c-4.461,0-6.383-3.633-4.293-8.115l77.917-167.094
				c2.089-4.48,7.4-8.115,11.861-8.115l115.945-0.023c4.459,0,6.381,3.634,4.292,8.115L207.744,264.139z"/>
			<polygon style="fill:#FFFFFF;" points="277.924,104.261 150.421,104.261 159.19,87.015 286.693,87.015 			"/>
		</g>
		<rect x="76.381" y="262.584" style="fill:#FFFFFF;" width="127.455" height="6.432"/>
	</g>
	<g id="lamellen_x5F_10_3_">
		<g>
			<g>
				<path style="fill:#FFFFFF;" d="M244.031,120.492c-25.041,0-50.082,0-75.123,0c-6.449,0-6.449,10,0,10
					c25.041,0,50.082,0,75.123,0C250.479,130.492,250.479,120.492,244.031,120.492L244.031,120.492z"/>
			</g>
		</g>
		<g>
			<g>
				<path style="fill:#FFFFFF;" d="M238.115,133.083c-25.041,0-50.082,0-75.123,0c-6.449,0-6.449,10,0,10
					c25.041,0,50.082,0,75.123,0C244.563,143.083,244.563,133.083,238.115,133.083L238.115,133.083z"/>
			</g>
		</g>
		<g>
			<g>
				<path style="fill:#FFFFFF;" d="M232.031,145.673c-25.041,0-50.082,0-75.123,0c-6.449,0-6.449,10,0,10
					c25.041,0,50.082,0,75.123,0C238.479,155.673,238.479,145.673,232.031,145.673L232.031,145.673z"/>
			</g>
		</g>
		<g>
			<g>
				<path style="fill:#FFFFFF;" d="M226.031,158.265c-25.041,0-50.082,0-75.123,0c-6.449,0-6.449,10,0,10
					c25.041,0,50.082,0,75.123,0C232.479,168.265,232.479,158.265,226.031,158.265L226.031,158.265z"/>
			</g>
		</g>
		<g>
			<g>
				<path style="fill:#FFFFFF;" d="M220.635,170.855c-25.041,0-50.083,0-75.124,0c-6.449,0-6.449,10,0,10
					c25.041,0,50.083,0,75.124,0C227.083,180.855,227.083,170.855,220.635,170.855L220.635,170.855z"/>
			</g>
		</g>
		<g>
			<g>
				<path style="fill:#FFFFFF;" d="M214.719,183.446c-25.041,0-50.083,0-75.124,0c-6.449,0-6.449,10,0,10
					c25.041,0,50.083,0,75.124,0C221.167,193.446,221.167,183.446,214.719,183.446L214.719,183.446z"/>
			</g>
		</g>
		<g>
			<g>
				<path style="fill:#FFFFFF;" d="M208.635,196.037c-25.041,0-50.083,0-75.124,0c-6.449,0-6.449,10,0,10
					c25.041,0,50.083,0,75.124,0C215.083,206.037,215.083,196.037,208.635,196.037L208.635,196.037z"/>
			</g>
		</g>
		<g>
			<g>
				<path style="fill:#FFFFFF;" d="M202.635,208.629c-25.041,0-50.083,0-75.124,0c-6.449,0-6.449,10,0,10
					c25.041,0,50.083,0,75.124,0C209.083,218.629,209.083,208.629,202.635,208.629L202.635,208.629z"/>
			</g>
		</g>
		<g style="display:none;">
			<g style="display:inline;">
				<path style="fill:#FFFFFF;" d="M196.471,221.219c-25.041,0-50.083,0-75.124,0c-6.449,0-6.449,10,0,10
					c25.041,0,50.083,0,75.124,0C202.919,231.219,202.919,221.219,196.471,221.219L196.471,221.219z"/>
			</g>
		</g>
		<g style="display:none;">
			<g style="display:inline;">
				<path style="fill:#FFFFFF;" d="M190.555,233.811c-25.041,0-50.083,0-75.124,0c-6.449,0-6.449,10,0,10
					c25.041,0,50.083,0,75.124,0C197.003,243.811,197.003,233.811,190.555,233.811L190.555,233.811z"/>
			</g>
		</g>
	</g>
</g>
<g id="Ebene_1">
</g>
</svg>
