<?xml version="1.0" encoding="iso-8859-1"?>
<!-- Generator: Adobe Illustrator 16.0.0, SVG Export Plug-In . SVG Version: 6.00 Build 0)  -->
<!DOCTYPE svg PUBLIC "-//W3C//DTD SVG 1.1//EN" "http://www.w3.org/Graphics/SVG/1.1/DTD/svg11.dtd">
<svg version="1.1" xmlns="http://www.w3.org/2000/svg" xmlns:xlink="http://www.w3.org/1999/xlink" x="0px" y="0px" width="361px"
	 height="361px" viewBox="0 0 361 361" style="enable-background:new 0 0 361 361;" xml:space="preserve">
<g id="fts_x5F_blade_x5F_arc_x5F_80">
	<g>
		<g>
			<g>
				<path style="fill:#FFFFFF;" d="M144.632,196.842c3.689-47.517,34.655-89.599,79.077-107.021c5.933-2.327,3.353-12-2.658-9.643
					c-48.85,19.158-82.355,64.329-86.419,116.663C134.132,203.276,144.136,203.228,144.632,196.842L144.632,196.842z"/>
			</g>
		</g>
		<g>
			<g>
				<path style="fill:#FFFFFF;" d="M135.311,194.252c-0.083,0.851-0.166,1.702-0.249,2.553c-0.133,1.369,0.661,2.92,1.598,3.856
					c1.018,1.019,2.416,1.598,3.856,1.598s2.838-0.579,3.856-1.598c1.099-1.099,1.452-2.359,1.598-3.856
					c0.083-0.851,0.166-1.702,0.249-2.553c0.133-1.369-0.661-2.92-1.598-3.856c-1.018-1.019-2.416-1.598-3.856-1.598
					s-2.838,0.579-3.856,1.598C135.81,191.494,135.457,192.755,135.311,194.252L135.311,194.252z"/>
			</g>
		</g>
		<g>
			<g>
				<path style="fill:#FFFFFF;" d="M219.792,81.042c-0.762,0.388-1.523,0.776-2.285,1.164c-2.646,1.349-3.393,5.01-1.956,7.462
					c0.714,1.219,1.896,2.131,3.259,2.506c1.477,0.406,2.868,0.13,4.203-0.55c0.762-0.388,1.523-0.776,2.285-1.164
					c2.646-1.349,3.393-5.01,1.956-7.462c-0.714-1.219-1.896-2.131-3.259-2.506C222.519,80.086,221.127,80.361,219.792,81.042
					L219.792,81.042z"/>
			</g>
		</g>
	</g>
	<g>
		<g>
			<g>
				<path style="fill:#FFFFFF;" d="M145.841,277.079c3.689-47.517,34.655-89.6,79.077-107.021c5.933-2.327,3.353-12-2.658-9.643
					c-48.85,19.158-82.355,64.329-86.419,116.663C135.341,283.514,145.345,283.465,145.841,277.079L145.841,277.079z"/>
			</g>
		</g>
		<g>
			<g>
				<path style="fill:#FFFFFF;" d="M136.52,274.489c-0.083,0.851-0.166,1.702-0.249,2.553c-0.133,1.369,0.661,2.92,1.598,3.856
					c1.018,1.019,2.416,1.598,3.856,1.598s2.838-0.579,3.856-1.598c1.099-1.099,1.452-2.359,1.598-3.856
					c0.083-0.851,0.166-1.702,0.249-2.553c0.133-1.369-0.661-2.92-1.598-3.856c-1.018-1.019-2.416-1.598-3.856-1.598
					s-2.838,0.579-3.856,1.598C137.019,271.731,136.666,272.992,136.52,274.489L136.52,274.489z"/>
			</g>
		</g>
		<g>
			<g>
				<path style="fill:#FFFFFF;" d="M221.001,161.279c-0.762,0.388-1.523,0.776-2.285,1.164c-2.646,1.349-3.393,5.01-1.956,7.462
					c0.714,1.219,1.896,2.131,3.259,2.506c1.477,0.406,2.868,0.13,4.203-0.55c0.762-0.388,1.523-0.776,2.285-1.164
					c2.646-1.349,3.393-5.01,1.956-7.462c-0.714-1.219-1.896-2.131-3.259-2.506C223.728,160.323,222.336,160.599,221.001,161.279
					L221.001,161.279z"/>
			</g>
		</g>
	</g>
	<g>
		<g>
			<path style="fill:#FFFFFF;" d="M178.833,71.667c0,5.416,0,10.832,0,16.248c0,1.935,3,1.935,3,0c0-5.416,0-10.832,0-16.248
				C181.833,69.732,178.833,69.732,178.833,71.667L178.833,71.667z"/>
		</g>
	</g>
	<g>
		<g>
			<path style="fill:#FFFFFF;" d="M179,142.989c0,7.612,0,15.225,0,22.837c0,1.935,3,1.935,3,0c0-7.612,0-15.225,0-22.837
				C182,141.055,179,141.055,179,142.989L179,142.989z"/>
		</g>
	</g>
	<g>
		<g>
			<path style="fill:#FFFFFF;" d="M179,217.986c0,23.894,0,47.787,0,71.681c0,1.935,3,1.935,3,0c0-23.894,0-47.787,0-71.681
				C182,216.052,179,216.052,179,217.986L179,217.986z"/>
		</g>
	</g>
	<g>
		<g>
			<path style="fill:#FFFFFF;" d="M179,134c0,7.612,0,15.225,0,22.837c0,1.935,3,1.935,3,0c0-7.612,0-15.225,0-22.837
				C182,132.066,179,132.066,179,134L179,134z"/>
		</g>
	</g>
</g>
<g id="Ebene_1">
</g>
</svg>
