<?xml version="1.0" encoding="iso-8859-1"?>
<!-- Generator: Adobe Illustrator 16.0.0, SVG Export Plug-In . SVG Version: 6.00 Build 0)  -->
<!DOCTYPE svg PUBLIC "-//W3C//DTD SVG 1.1 Tiny//EN" "http://www.w3.org/Graphics/SVG/1.1/DTD/svg11-tiny.dtd">
<svg version="1.1" baseProfile="tiny" id="fts_x5F_sunblind"
	 xmlns="http://www.w3.org/2000/svg" xmlns:xlink="http://www.w3.org/1999/xlink" x="0px" y="0px" width="361px" height="361px"
	 viewBox="0 0 361 361" xml:space="preserve">
<path fill="none" stroke="#FFFFFF" stroke-width="10" stroke-miterlimit="10" d="M261.648,183.378v77.738
	c0,3.437-2.784,6.222-6.221,6.222H81.214c-3.436,0-6.222-2.786-6.222-6.222V149.122c0-3.436,2.786-6.222,6.222-6.222h29.987"/>
<g>
	<path fill="#FFFFFF" d="M163.045,202.047c3.709,0,7.418,0,11.128,0c6.449,0,6.449-10,0-10c-3.709,0-7.418,0-11.128,0
		C156.597,192.047,156.597,202.047,163.045,202.047L163.045,202.047z"/>
</g>
<line fill="none" stroke="#FFFFFF" stroke-width="10" stroke-miterlimit="10" x1="168.488" y1="183.452" x2="168.488" y2="266.295"/>
<g>
	<path fill="#FFFFFF" d="M223.024,109.081c19.434,19.434,38.867,38.867,58.3,58.301c4.564,4.563,11.635-2.507,7.071-7.071
		c-19.434-19.434-38.867-38.867-58.3-58.301C225.531,97.446,218.46,104.517,223.024,109.081L223.024,109.081z"/>
</g>
<g>
	<path fill="#FFFFFF" d="M279.86,164.362c0,4.644,0,9.287,0,13.93c0,6.449,10,6.449,10,0c0-4.644,0-9.287,0-13.93
		C289.86,157.913,279.86,157.913,279.86,164.362L279.86,164.362z"/>
</g>
<g>
	<path fill="#FFFFFF" d="M192.841,109.081c19.434,19.434,38.868,38.867,58.301,58.301c4.564,4.563,11.635-2.507,7.071-7.071
		c-19.434-19.434-38.868-38.867-58.301-58.301C195.349,97.446,188.278,104.517,192.841,109.081L192.841,109.081z"/>
</g>
<g>
	<path fill="#FFFFFF" d="M249.678,164.362c0,4.644,0,9.287,0,13.93c0,6.449,10,6.449,10,0c0-4.644,0-9.287,0-13.93
		C259.678,157.913,249.678,157.913,249.678,164.362L249.678,164.362z"/>
</g>
<g>
	<path fill="#FFFFFF" d="M163.175,109.081c19.434,19.434,38.867,38.867,58.301,58.301c4.564,4.563,11.635-2.507,7.071-7.071
		c-19.434-19.434-38.867-38.867-58.301-58.301C165.682,97.446,158.611,104.517,163.175,109.081L163.175,109.081z"/>
</g>
<g>
	<path fill="#FFFFFF" d="M220.011,164.362c0,4.644,0,9.287,0,13.93c0,6.449,10,6.449,10,0c0-4.644,0-9.287,0-13.93
		C230.011,157.913,220.011,157.913,220.011,164.362L220.011,164.362z"/>
</g>
<g>
	<path fill="#FFFFFF" d="M132.993,109.081c19.434,19.434,38.867,38.867,58.301,58.301c4.564,4.563,11.635-2.507,7.071-7.071
		c-19.434-19.434-38.867-38.867-58.301-58.301C135.5,97.446,128.429,104.517,132.993,109.081L132.993,109.081z"/>
</g>
<g>
	<path fill="#FFFFFF" d="M189.829,164.362c0,4.644,0,9.287,0,13.93c0,6.449,10,6.449,10,0c0-4.644,0-9.287,0-13.93
		C199.829,157.913,189.829,157.913,189.829,164.362L189.829,164.362z"/>
</g>
<g>
	<path fill="#FFFFFF" d="M100.23,109.081c19.434,19.434,38.867,38.867,58.301,58.301c4.564,4.563,11.635-2.507,7.071-7.071
		c-19.434-19.434-38.867-38.867-58.301-58.301C102.738,97.446,95.667,104.517,100.23,109.081L100.23,109.081z"/>
</g>
<g>
	<path fill="#FFFFFF" d="M157.067,164.362c0,4.644,0,9.287,0,13.93c0,6.449,10,6.449,10,0c0-4.644,0-9.287,0-13.93
		C167.067,157.913,157.067,157.913,157.067,164.362L157.067,164.362z"/>
</g>
<g>
	<path fill="#FFFFFF" d="M69.048,109.081c19.434,19.434,38.867,38.867,58.301,58.301c4.564,4.563,11.635-2.507,7.071-7.071
		c-19.434-19.434-38.867-38.867-58.301-58.301C71.556,97.446,64.485,104.517,69.048,109.081L69.048,109.081z"/>
</g>
<g>
	<path fill="#FFFFFF" d="M125.885,164.362c0,4.644,0,9.287,0,13.93c0,6.449,10,6.449,10,0c0-4.644,0-9.287,0-13.93
		C135.885,157.913,125.885,157.913,125.885,164.362L125.885,164.362z"/>
</g>
</svg>
