<?xml version="1.0" encoding="iso-8859-1"?>
<!-- Generator: Adobe Illustrator 16.0.0, SVG Export Plug-In . SVG Version: 6.00 Build 0)  -->
<!DOCTYPE svg PUBLIC "-//W3C//DTD SVG 1.1//EN" "http://www.w3.org/Graphics/SVG/1.1/DTD/svg11.dtd">
<svg version="1.1" xmlns="http://www.w3.org/2000/svg" xmlns:xlink="http://www.w3.org/1999/xlink" x="0px" y="0px" width="361px"
	 height="361px" viewBox="0 0 361 361" style="enable-background:new 0 0 361 361;" xml:space="preserve">
<g id="fts_x5F_blade_x5F_arc_x5F_70">
	<g>
		<g>
			<g>
				<path style="fill:#FFFFFF;" d="M138.283,272.095c10.429-47.289,46.882-84.507,94.017-95.745
					c6.271-1.495,3.611-11.138-2.658-9.643c-50.317,11.997-89.863,52.222-101.001,102.729
					C127.255,275.721,136.895,278.392,138.283,272.095L138.283,272.095z"/>
			</g>
		</g>
		<g>
			<g>
				<path style="fill:#FFFFFF;" d="M129.685,266.908c-0.2,0.831-0.4,1.662-0.601,2.493c-0.696,2.888,0.876,5.902,3.81,6.709
					c2.795,0.77,6.012-0.919,6.709-3.809c0.2-0.831,0.401-1.662,0.601-2.493c0.696-2.888-0.876-5.902-3.81-6.709
					C133.599,262.33,130.381,264.019,129.685,266.908L129.685,266.908z"/>
			</g>
		</g>
		<g>
			<g>
				<path style="fill:#FFFFFF;" d="M229.579,167.036c-0.808,0.278-1.616,0.557-2.425,0.835c-1.376,0.474-2.508,1.224-3.259,2.506
					c-0.738,1.26-0.938,2.795-0.55,4.203c0.375,1.363,1.287,2.545,2.506,3.26c1.195,0.7,2.862,1.011,4.203,0.55
					c0.808-0.278,1.616-0.557,2.425-0.835c1.376-0.474,2.508-1.224,3.259-2.506c0.738-1.26,0.938-2.795,0.55-4.203
					c-0.375-1.363-1.287-2.545-2.506-3.26C232.587,166.886,230.92,166.574,229.579,167.036L229.579,167.036z"/>
			</g>
		</g>
	</g>
	<g>
		<g>
			<g>
				<path style="fill:#FFFFFF;" d="M137.074,191.857c10.429-47.29,46.882-84.507,94.017-95.745
					c6.271-1.495,3.611-11.138-2.658-9.643c-50.317,11.997-89.863,52.222-101.001,102.729
					C126.046,195.483,135.686,198.154,137.074,191.857L137.074,191.857z"/>
			</g>
		</g>
		<g>
			<g>
				<path style="fill:#FFFFFF;" d="M128.476,186.671c-0.2,0.831-0.4,1.662-0.601,2.493c-0.696,2.888,0.876,5.902,3.81,6.709
					c2.795,0.77,6.012-0.919,6.709-3.809c0.2-0.831,0.401-1.662,0.601-2.493c0.696-2.888-0.876-5.902-3.81-6.709
					C132.39,182.093,129.172,183.781,128.476,186.671L128.476,186.671z"/>
			</g>
		</g>
		<g>
			<g>
				<path style="fill:#FFFFFF;" d="M228.37,86.798c-0.808,0.278-1.616,0.557-2.425,0.835c-1.376,0.474-2.508,1.224-3.259,2.506
					c-0.738,1.26-0.938,2.795-0.55,4.203c0.375,1.363,1.287,2.545,2.506,3.26c1.195,0.7,2.862,1.011,4.203,0.55
					c0.808-0.278,1.616-0.557,2.425-0.835c1.376-0.474,2.508-1.224,3.259-2.506c0.738-1.26,0.938-2.795,0.55-4.203
					c-0.375-1.363-1.287-2.545-2.506-3.26C231.378,86.648,229.711,86.337,228.37,86.798L228.37,86.798z"/>
			</g>
		</g>
	</g>
	<g>
		<g>
			<path style="fill:#FFFFFF;" d="M178.833,71.667c0,5.416,0,10.832,0,16.248c0,1.935,3,1.935,3,0c0-5.416,0-10.832,0-16.248
				C181.833,69.732,178.833,69.732,178.833,71.667L178.833,71.667z"/>
		</g>
	</g>
	<g>
		<g>
			<path style="fill:#FFFFFF;" d="M179,142.989c0,7.612,0,15.225,0,22.837c0,1.935,3,1.935,3,0c0-7.612,0-15.225,0-22.837
				C182,141.055,179,141.055,179,142.989L179,142.989z"/>
		</g>
	</g>
	<g>
		<g>
			<path style="fill:#FFFFFF;" d="M179,217.986c0,23.894,0,47.787,0,71.681c0,1.935,3,1.935,3,0c0-23.894,0-47.787,0-71.681
				C182,216.052,179,216.052,179,217.986L179,217.986z"/>
		</g>
	</g>
	<g>
		<g>
			<path style="fill:#FFFFFF;" d="M179,134c0,7.612,0,15.225,0,22.837c0,1.935,3,1.935,3,0c0-7.612,0-15.225,0-22.837
				C182,132.066,179,132.066,179,134L179,134z"/>
		</g>
	</g>
</g>
<g id="Ebene_1">
</g>
</svg>
