<?xml version="1.0" encoding="iso-8859-1"?>
<!-- Generator: Adobe Illustrator 16.0.0, SVG Export Plug-In . SVG Version: 6.00 Build 0)  -->
<!DOCTYPE svg PUBLIC "-//W3C//DTD SVG 1.1 Tiny//EN" "http://www.w3.org/Graphics/SVG/1.1/DTD/svg11-tiny.dtd">
<svg version="1.1" baseProfile="tiny" id="fts_x5F_window_x5F_2w_x5F_open_x5F_l_1_"
	 xmlns="http://www.w3.org/2000/svg" xmlns:xlink="http://www.w3.org/1999/xlink" x="0px" y="0px" width="361px" height="361px"
	 viewBox="0 0 361 361" xml:space="preserve">
<g>
	<path fill="none" stroke="#FFFFFF" stroke-width="10" stroke-miterlimit="10" d="M265.136,253.18c0,3.911-2.583,7.083-5.767,7.083
		l-161.89,0.021c-3.186,0-5.768-3.171-5.768-7.083V125.7c0-3.911,2.582-7.083,5.768-7.083l161.89-0.021
		c3.185,0,5.767,3.172,5.767,7.083V253.18z"/>
	
		<line fill="none" stroke="#FFFFFF" stroke-width="10" stroke-miterlimit="10" x1="178.423" y1="119.46" x2="178.423" y2="256.635"/>
	<path fill="none" stroke="#FFFFFF" stroke-width="10" stroke-miterlimit="10" d="M265.136,123.086c0,2.485-2.217,4.5-4.952,4.5
		l-163.522,0.021c-2.734,0-4.951-2.015-4.951-4.5v-9c0-2.485,2.217-4.5,4.951-4.5l163.522-0.021c2.734,0,4.952,2.015,4.952,4.5
		V123.086z"/>
</g>
<g>
	<path fill="none" stroke="#FFFFFF" stroke-width="10" stroke-miterlimit="10" d="M91.711,254.982c0,3.217,1.833,6.299,4.096,6.883
		l48.892,21.692c2.262,0.584,4.096-1.551,4.096-4.768V156.775c0-3.217-1.833-6.299-4.096-6.884l-48.892-21.692
		c-2.262-0.584-4.096,1.551-4.096,4.768V254.982z"/>
	<g>
		<path fill="#FFFFFF" d="M149.678,213.324c-1.584-0.4-3.169-0.8-4.753-1.199c-2.641-0.667-5.417,0.824-6.15,3.492
			c-0.711,2.583,0.85,5.484,3.492,6.15c1.584,0.4,3.169,0.8,4.753,1.199c2.641,0.667,5.417-0.824,6.15-3.492
			C153.881,216.891,152.32,213.991,149.678,213.324L149.678,213.324z"/>
	</g>
</g>
<g>
	<path fill="none" stroke="#FFFFFF" stroke-width="10" stroke-miterlimit="10" d="M91.725,253.18c0,3.911,2.583,7.083,5.767,7.083
		l161.89,0.021c3.186,0,5.768-3.171,5.768-7.083V125.7c0-3.911-2.583-7.083-5.768-7.083l-161.89-0.021
		c-3.185,0-5.767,3.172-5.767,7.083V253.18z"/>
	<g>
		<path fill="#FFFFFF" d="M183.595,184.462c-1.722,0-3.443,0-5.165,0c-2.726,0-5,2.274-5,5s2.274,5,5,5c1.722,0,3.443,0,5.165,0
			c2.726,0,5-2.274,5-5S186.32,184.462,183.595,184.462L183.595,184.462z"/>
	</g>
	
		<line fill="none" stroke="#FFFFFF" stroke-width="10" stroke-miterlimit="10" x1="178.438" y1="119.46" x2="178.438" y2="256.635"/>
	<path fill="none" stroke="#FFFFFF" stroke-width="10" stroke-miterlimit="10" d="M91.725,123.086c0,2.485,2.217,4.5,4.952,4.5
		l163.521,0.021c2.735,0,4.952-2.015,4.952-4.5v-9c0-2.485-2.217-4.5-4.952-4.5l-163.521-0.021c-2.735,0-4.952,2.015-4.952,4.5
		V123.086z"/>
</g>
</svg>
