<?xml version="1.0" encoding="iso-8859-1"?>
<!-- Generator: Adobe Illustrator 16.0.0, SVG Export Plug-In . SVG Version: 6.00 Build 0)  -->
<!DOCTYPE svg PUBLIC "-//W3C//DTD SVG 1.1//EN" "http://www.w3.org/Graphics/SVG/1.1/DTD/svg11.dtd">
<svg version="1.1" xmlns="http://www.w3.org/2000/svg" xmlns:xlink="http://www.w3.org/1999/xlink" x="0px" y="0px" width="361px"
	 height="361px" viewBox="0 0 361 361" style="enable-background:new 0 0 361 361;" xml:space="preserve">
<g id="fts_x5F_umbrella_x5F_offset_x5F_closed">
	<g>
		<g>
			<path style="fill:#FFFFFF;" d="M223.093,281.921c-23.105,0-46.21,0-69.315,0c0.443,3.273,0.886,6.548,1.329,9.821
				c5.561-1.064,11.122-2.13,16.683-3.195c3.911-0.749,7.822-1.498,11.733-2.246c1.428-0.274,2.855-0.548,4.283-0.821
				c2.068-0.396,2.173,0.287-0.984-0.307c11.647,2.189,23.295,4.38,34.942,6.569c6.302,1.185,8.991-8.452,2.658-9.643
				c-11.659-2.192-23.318-4.384-34.978-6.576c-2.09-0.394-4.42,0.337-6.481,0.732c-3.963,0.759-7.926,1.518-11.89,2.276
				c-6.208,1.189-12.417,2.378-18.625,3.567c-5.654,1.083-4.188,9.821,1.329,9.821c23.105,0,46.21,0,69.315,0
				C229.541,291.921,229.541,281.921,223.093,281.921z"/>
		</g>
	</g>
	<g style="display:none;">
		<g style="display:inline;">
			<g>
				<path style="fill:#FFFFFF;" d="M119.54,141.613c28.504-12.068,57.008-24.136,85.512-36.205c-1.178,0-2.355,0-3.533,0
					c28.504,12.068,57.009,24.137,85.513,36.205c0.589-2.174,1.178-4.348,1.767-6.522c-49.84,0-99.679,0-149.518,0
					c-7.169,0-14.338,0-21.507,0c-4.514,0-4.514,7,0,7c49.839,0,99.679,0,149.518,0c7.169,0,14.338,0,21.507,0
					c3.229,0,5.118-5.103,1.767-6.522c-22.854-9.676-45.707-19.352-68.56-29.027c-4.739-2.006-9.479-4.013-14.219-6.02
					c-2.35-0.995-4.159-2.051-6.726-0.964c-9.881,4.183-19.762,8.367-29.642,12.55c-18.471,7.82-36.941,15.641-55.412,23.461
					C111.862,137.324,115.434,143.352,119.54,141.613z"/>
			</g>
		</g>
		<g style="display:inline;">
			<g>
				<path style="fill:#FFFFFF;" d="M200.811,104.862c11.628,11.628,23.257,23.256,34.886,34.884c3.194,3.194,8.145-1.755,4.949-4.95
					c-11.628-11.628-23.257-23.256-34.886-34.884C202.565,96.718,197.615,101.667,200.811,104.862L200.811,104.862z"/>
			</g>
		</g>
		<g style="display:inline;">
			<g>
				<path style="fill:#FFFFFF;" d="M200.811,99.911c-11.628,11.628-23.255,23.257-34.883,34.885c-3.194,3.195,1.755,8.145,4.95,4.95
					c11.627-11.628,23.255-23.257,34.882-34.885C208.954,101.667,204.005,96.717,200.811,99.911L200.811,99.911z"/>
			</g>
		</g>
	</g>
	<g>
		<g>
			<path style="fill:#FFFFFF;" d="M170.403,83.895c-12.45,43.403-24.899,86.806-37.349,130.208c-0.014,0.05-0.028,0.099-0.042,0.148
				c-1.782,6.212,7.868,8.846,9.643,2.658c12.45-43.403,24.899-86.806,37.349-130.208c0.014-0.049,0.028-0.099,0.042-0.148
				C181.827,80.341,172.177,77.708,170.403,83.895L170.403,83.895z"/>
		</g>
	</g>
	<g>
		<g>
			<path style="fill:#FFFFFF;" d="M194.728,280.306c-7.907-47.61-15.815-95.222-23.723-142.832
				c-0.281-1.691-0.562-3.382-0.843-5.072c-1.055-6.351-10.69-3.648-9.643,2.658c7.908,47.611,15.815,95.221,23.723,142.832
				c0.281,1.69,0.562,3.382,0.843,5.072C186.14,289.314,195.775,286.611,194.728,280.306L194.728,280.306z"/>
		</g>
	</g>
	<g>
		<g>
			<path style="fill:#FFFFFF;" d="M145.954,192.543c7.767-12.552,15.533-25.104,23.3-37.655c1.021-1.65-1.575-3.155-2.591-1.514
				c-7.767,12.552-15.533,25.104-23.3,37.655C142.342,192.679,144.938,194.185,145.954,192.543L145.954,192.543z"/>
		</g>
	</g>
	<g style="display:none;">
		<g style="display:inline;">
			<g>
				<path style="fill:#FFFFFF;" d="M177.744,77.807c-2.333,34.778-4.667,69.556-7,104.333c-0.303,4.509,6.7,4.479,7,0
					c2.333-34.778,4.667-69.556,7-104.333C185.047,73.299,178.045,73.328,177.744,77.807L177.744,77.807z"/>
			</g>
		</g>
		<g style="display:inline;">
			<g>
				<path style="fill:#FFFFFF;" d="M178.633,77.807c2.333,34.778,4.667,69.556,7,104.333c0.301,4.479,7.303,4.509,7,0
					c-2.333-34.778-4.667-69.556-7-104.333C185.332,73.328,178.33,73.299,178.633,77.807L178.633,77.807z"/>
			</g>
		</g>
		<g style="display:inline;">
			<g>
				<path style="fill:#FFFFFF;" d="M177.869,76.876c-7.296,34.778-14.593,69.556-21.889,104.333
					c-0.924,4.404,5.823,6.278,6.75,1.861c7.296-34.778,14.593-69.556,21.889-104.333C185.543,74.333,178.796,72.46,177.869,76.876
					L177.869,76.876z"/>
			</g>
		</g>
		<g style="display:inline;">
			<g>
				<path style="fill:#FFFFFF;" d="M178.758,78.738c7.296,34.778,14.593,69.556,21.889,104.333c0.927,4.417,7.674,2.543,6.75-1.861
					c-7.296-34.778-14.593-69.556-21.889-104.333C184.581,72.46,177.834,74.333,178.758,78.738L178.758,78.738z"/>
			</g>
		</g>
		<g style="display:inline;">
			<g>
				<path style="fill:#FFFFFF;" d="M160.605,183.641c4.546,0,9.092,0,13.639,0c4.514,0,4.514-7,0-7c-4.546,0-9.092,0-13.639,0
					C156.091,176.641,156.091,183.641,160.605,183.641L160.605,183.641z"/>
			</g>
		</g>
		<g style="display:inline;">
			<g>
				<path style="fill:#FFFFFF;" d="M174.244,183.641c4.963,0,9.926,0,14.889,0c4.514,0,4.514-7,0-7c-4.963,0-9.926,0-14.889,0
					C169.729,176.641,169.729,183.641,174.244,183.641L174.244,183.641z"/>
			</g>
		</g>
		<g style="display:inline;">
			<g>
				<path style="fill:#FFFFFF;" d="M189.133,183.641c4.616,0,9.231,0,13.848,0c4.514,0,4.514-7,0-7c-4.616,0-9.231,0-13.848,0
					C184.619,176.641,184.619,183.641,189.133,183.641L189.133,183.641z"/>
			</g>
		</g>
	</g>
	<g>
		<g>
			<g>
				<path style="fill:#FFFFFF;" d="M173.211,92.722c9.429,37.137,18.858,74.274,28.287,111.412c1.11,4.373,7.861,2.517,6.75-1.861
					c-9.429-37.137-18.857-74.274-28.287-111.412C178.851,86.488,172.1,88.344,173.211,92.722L173.211,92.722z"/>
			</g>
		</g>
		<g>
			<g>
				<path style="fill:#FFFFFF;" d="M174.051,92.389c13.612,35.873,27.224,71.745,40.836,107.618c1.585,4.178,8.354,2.367,6.75-1.861
					c-13.612-35.873-27.224-71.745-40.836-107.618C179.215,86.351,172.446,88.161,174.051,92.389L174.051,92.389z"/>
			</g>
		</g>
		<g>
			<g>
				<path style="fill:#FFFFFF;" d="M173.086,91.792c4.519,37.806,9.038,75.612,13.556,113.417c0.529,4.425,7.535,4.477,7,0
					c-4.519-37.806-9.037-75.612-13.556-113.417C179.558,87.367,172.551,87.315,173.086,91.792L173.086,91.792z"/>
			</g>
		</g>
		<g>
			<g>
				<path style="fill:#FFFFFF;" d="M174.404,93.225c18.298,34.017,36.597,68.034,54.895,102.051c2.14,3.977,8.183,0.441,6.045-3.533
					c-18.299-34.017-36.598-68.034-54.896-102.051C178.309,85.716,172.266,89.25,174.404,93.225L174.404,93.225z"/>
			</g>
		</g>
	</g>
	<g>
		<g>
			<path style="fill:#FFFFFF;" d="M190.73,206.703c8.7-0.136,17.282-2.19,25.512-4.898c5.232-1.722,13.117-3.896,16.795-8.373
				c2.841-3.457-2.082-8.44-4.949-4.949c-2.933,3.569-9.562,5.15-13.707,6.572c-7.583,2.602-15.609,4.523-23.65,4.648
				C186.221,199.773,186.214,206.773,190.73,206.703L190.73,206.703z"/>
		</g>
	</g>
</g>
<g id="Ebene_1">
</g>
</svg>
