<?xml version="1.0" encoding="iso-8859-1"?>
<!-- Generator: Adobe Illustrator 16.0.0, SVG Export Plug-In . SVG Version: 6.00 Build 0)  -->
<!DOCTYPE svg PUBLIC "-//W3C//DTD SVG 1.1 Tiny//EN" "http://www.w3.org/Graphics/SVG/1.1/DTD/svg11-tiny.dtd">
<svg version="1.1" baseProfile="tiny" id="it_x5F_fax"
	 xmlns="http://www.w3.org/2000/svg" xmlns:xlink="http://www.w3.org/1999/xlink" x="0px" y="0px" width="361px" height="361px"
	 viewBox="0 0 361 361" xml:space="preserve">
<path fill="none" stroke="#FFFFFF" stroke-width="10" stroke-miterlimit="10" d="M284.762,281.099c0,4.894-4.316,8.86-9.638,8.86
	H82.371c-5.321,0-9.637-3.967-9.637-8.86v-89.695c0-4.89,4.316-8.859,9.637-8.859h192.753c5.322,0,9.638,3.969,9.638,8.859V281.099z
	"/>
<path fill="none" stroke="#FFFFFF" stroke-width="10" stroke-miterlimit="10" d="M260.328,216.381
	c-12.85-2.627-27.935-3.783-40.705-4.797c-7.599-0.603-34.618-0.676-40.696-0.684v-0.001c0,0-0.215,0-0.612,0s-0.612,0-0.612,0
	v0.001c-6.079,0.008-33.097,0.081-40.696,0.684c-12.77,1.014-27.854,2.17-40.704,4.797c-2.574,0.525-4.801,1.78-4.801,3.976v32
	c0,2.196,2.149,3.977,4.801,3.977h36.016c10.479-1.011,7.722-13.345,12.961-17.815c1.777-1.516,5.998-1.371,8.549-1.371
	c5.647,0,18.819,0,23.599,0c1.114,0,1.774,0,1.774,0c4.78,0,17.952,0,23.599,0c2.552,0,6.772-0.146,8.549,1.371
	c5.24,4.47,2.482,16.804,12.961,17.815h36.017c2.651,0,4.801-1.78,4.801-3.977v-32C265.129,218.161,262.902,216.906,260.328,216.381
	z"/>
<g>
	<path fill="#FFFFFF" d="M239.804,80.781c-1.459-10.863-15.203-8.061-23.149-8.061c-15.316,0-30.633,0-45.95,0
		c-13.391,0-26.782,0-40.173,0c-2.728,0-5.377-0.075-8.078,0.288c-5.194,0.698-5.917,6.46-5.917,10.594c0,27.638,0,55.275,0,82.913
		c0,6.959-2.295,20.529,8.364,20.529c9.555,0,19.11,0,28.666,0c25.915,0,51.829,0,77.743,0c10.627,0,8.495-12.824,8.495-19.847
		c0-15.082,0-30.164,0-45.246C239.804,108.229,239.804,94.505,239.804,80.781c0-4.514-7-4.514-7,0c0,24.639,0,49.277,0,73.916
		c0,2.034,1.227,25.348-1.109,25.348c-8.754,0-17.508,0-26.263,0c-26.623,0-53.246,0-79.869,0c-2.539,0-2.027-2.317-2.027-4.254
		c0-5.08,0-10.159,0-15.239c0-15.764,0-31.527,0-47.291c0-10.614,0-21.228,0-31.841c0-3.447,17.456-1.699,19.907-1.699
		c28.194,0,56.389,0,84.583,0c0.947,0,4.552-0.617,4.778,1.061C233.396,85.187,240.403,85.244,239.804,80.781z"/>
</g>
<g>
	<path fill="#FFFFFF" d="M137.687,103.996c26.989,0,53.978,0,80.966,0c4.514,0,4.514-7,0-7c-26.989,0-53.978,0-80.966,0
		C133.173,96.996,133.173,103.996,137.687,103.996L137.687,103.996z"/>
</g>
<g>
	<path fill="#FFFFFF" d="M137.687,143.03c26.989,0,53.978,0,80.966,0c4.514,0,4.514-7,0-7c-26.989,0-53.978,0-80.966,0
		C133.173,136.03,133.173,143.03,137.687,143.03L137.687,143.03z"/>
</g>
<g>
	<path fill="#FFFFFF" d="M137.687,123.512c26.989,0,53.978,0,80.966,0c4.514,0,4.514-7,0-7c-26.989,0-53.978,0-80.966,0
		C133.173,116.512,133.173,123.512,137.687,123.512L137.687,123.512z"/>
</g>
<g>
	<path fill="#FFFFFF" d="M137.687,162.546c26.989,0,53.978,0,80.966,0c4.514,0,4.514-7,0-7c-26.989,0-53.978,0-80.966,0
		C133.173,155.546,133.173,162.546,137.687,162.546L137.687,162.546z"/>
</g>
</svg>
