<?xml version="1.0" encoding="iso-8859-1"?>
<!-- Generator: Adobe Illustrator 16.0.0, SVG Export Plug-In . SVG Version: 6.00 Build 0)  -->
<!DOCTYPE svg PUBLIC "-//W3C//DTD SVG 1.1//EN" "http://www.w3.org/Graphics/SVG/1.1/DTD/svg11.dtd">
<svg version="1.1" xmlns="http://www.w3.org/2000/svg" xmlns:xlink="http://www.w3.org/1999/xlink" x="0px" y="0px" width="361px"
	 height="361px" viewBox="0 0 361 361" style="enable-background:new 0 0 361 361;" xml:space="preserve">
<g id="it_x5F_internet">
	<g>
		<g>
			<path style="fill:#FFFFFF;" d="M178.045,194.992c-15.222-19.574-15.938-46.613-2.721-67.319
				c11.82-18.515,33.692-27.751,55.187-25.628c21.272,2.102,39.892,17.598,47.277,37.36c8.866,23.725,0.515,49.955-18.821,65.702
				c-5.004,4.074,2.117,11.104,7.07,7.07c20.114-16.38,28.948-42.436,23.63-67.726c-4.518-21.488-20.677-39.86-40.941-47.928
				c-21.142-8.418-45.451-5.545-64.092,7.475c-18.563,12.967-29.078,34.618-28.779,57.121c0.2,15.034,5.981,29.195,15.119,40.944
				C174.929,207.148,181.953,200.017,178.045,194.992L178.045,194.992z"/>
		</g>
	</g>
	<g>
		<g>
			<path style="fill:#FFFFFF;" d="M169.657,138.435c35.297,0,70.594,0,105.891,0c6.448,0,6.448-10,0-10
				c-35.297,0-70.594,0-105.891,0C163.208,128.435,163.208,138.435,169.657,138.435L169.657,138.435z"/>
		</g>
	</g>
	<g>
		<g>
			<path style="fill:#FFFFFF;" d="M169.331,189.419c35.296,0,70.593,0,105.89,0c6.448,0,6.448-10,0-10c-35.297,0-70.594,0-105.89,0
				C162.882,179.419,162.882,189.419,169.331,189.419L169.331,189.419z"/>
		</g>
	</g>
	<g>
		<g>
			<path style="fill:#FFFFFF;" d="M234.137,104.772c21.902,24.521,26.63,60.212,11.729,89.55c-2.913,5.735,5.714,10.798,8.635,5.047
				c17.021-33.512,11.732-73.651-13.294-101.668C236.903,92.882,229.855,99.979,234.137,104.772L234.137,104.772z"/>
		</g>
	</g>
	<g>
		<g>
			<path style="fill:#FFFFFF;" d="M214.043,95.809c-26.886,25.177-35.984,64.746-22.235,99.019c2.37,5.907,12.046,3.331,9.643-2.658
				c-12.504-31.169-4.885-66.301,19.663-89.289C225.829,98.464,218.743,91.407,214.043,95.809L214.043,95.809z"/>
		</g>
	</g>
	<g>
		<path style="fill:#FFFFFF;" d="M108.172,264.541c-0.874-2.479-1.689-4.76-2.443-6.84c-0.755-2.08-1.47-4.1-2.145-6.061
			c-0.675-1.959-1.352-4-2.027-6.12c-0.675-2.118-1.371-4.458-2.085-7.021c-0.806,2.563-1.53,4.86-2.175,6.9
			s-1.309,4.062-1.993,6.061c-0.687,2-1.391,4.04-2.115,6.119c-0.724,2.082-1.61,4.4-2.657,6.961h-11.16
			c-0.96-3.52-1.86-7.42-2.7-11.701c-0.84-4.277-1.62-8.838-2.34-13.68c-0.72-4.839-1.361-9.858-1.92-15.06
			c-0.561-5.199-1.08-10.519-1.56-15.96h12.6c0.319,6.96,0.66,13.761,1.02,20.4c0.36,6.641,1.02,13.48,1.98,20.52
			c1.046-3.039,1.954-5.859,2.719-8.46c0.765-2.599,1.451-5.079,2.055-7.44c0.604-2.358,1.168-4.639,1.693-6.84
			c0.525-2.199,1.069-4.459,1.633-6.779h10.68c0.476,2.32,0.971,4.58,1.487,6.779c0.516,2.201,1.07,4.481,1.667,6.84
			c0.597,2.361,1.23,4.842,1.905,7.44c0.675,2.601,1.489,5.421,2.441,8.46c0.48-3.679,0.879-7.2,1.2-10.561
			c0.319-3.359,0.58-6.699,0.78-10.02c0.199-3.318,0.36-6.639,0.48-9.96c0.12-3.319,0.259-6.78,0.42-10.38h12.6
			c-0.881,10.961-2.1,21.281-3.66,30.96c-1.56,9.681-3.3,18.161-5.22,25.44H108.172z"/>
		<path style="fill:#FFFFFF;" d="M168.172,264.541c-0.874-2.479-1.689-4.76-2.443-6.84c-0.755-2.08-1.47-4.1-2.145-6.061
			c-0.675-1.959-1.352-4-2.027-6.12c-0.675-2.118-1.371-4.458-2.085-7.021c-0.806,2.563-1.53,4.86-2.175,6.9
			s-1.309,4.062-1.993,6.061c-0.687,2-1.391,4.04-2.115,6.119c-0.724,2.082-1.61,4.4-2.657,6.961h-11.16
			c-0.96-3.52-1.86-7.42-2.7-11.701c-0.84-4.277-1.62-8.838-2.34-13.68c-0.72-4.839-1.361-9.858-1.92-15.06
			c-0.561-5.199-1.08-10.519-1.56-15.96h12.6c0.319,6.96,0.66,13.761,1.02,20.4c0.36,6.641,1.02,13.48,1.98,20.52
			c1.046-3.039,1.954-5.859,2.719-8.46c0.765-2.599,1.451-5.079,2.055-7.44c0.604-2.358,1.168-4.639,1.693-6.84
			c0.525-2.199,1.069-4.459,1.633-6.779h10.68c0.476,2.32,0.971,4.58,1.487,6.779c0.516,2.201,1.07,4.481,1.667,6.84
			c0.597,2.361,1.23,4.842,1.905,7.44c0.675,2.601,1.489,5.421,2.441,8.46c0.48-3.679,0.879-7.2,1.2-10.561
			c0.319-3.359,0.58-6.699,0.78-10.02c0.199-3.318,0.36-6.639,0.48-9.96c0.12-3.319,0.259-6.78,0.42-10.38h12.6
			c-0.882,10.961-2.101,21.281-3.66,30.96c-1.56,9.681-3.3,18.161-5.22,25.44H168.172z"/>
		<path style="fill:#FFFFFF;" d="M228.172,264.541c-0.874-2.479-1.689-4.76-2.443-6.84c-0.756-2.08-1.47-4.1-2.145-6.061
			c-0.676-1.959-1.352-4-2.027-6.12c-0.675-2.118-1.371-4.458-2.085-7.021c-0.806,2.563-1.53,4.86-2.175,6.9
			s-1.309,4.062-1.993,6.061c-0.687,2-1.392,4.04-2.115,6.119c-0.724,2.082-1.61,4.4-2.657,6.961h-11.16
			c-0.959-3.52-1.859-7.42-2.699-11.701c-0.84-4.277-1.62-8.838-2.34-13.68c-0.721-4.839-1.361-9.858-1.92-15.06
			c-0.561-5.199-1.08-10.519-1.561-15.96h12.6c0.319,6.96,0.66,13.761,1.021,20.4c0.36,6.641,1.021,13.48,1.979,20.52
			c1.047-3.039,1.954-5.859,2.719-8.46c0.766-2.599,1.451-5.079,2.056-7.44c0.604-2.358,1.168-4.639,1.692-6.84
			c0.525-2.199,1.069-4.459,1.634-6.779h10.681c0.476,2.32,0.971,4.58,1.486,6.779c0.516,2.201,1.07,4.481,1.666,6.84
			c0.598,2.361,1.23,4.842,1.906,7.44c0.674,2.601,1.488,5.421,2.441,8.46c0.479-3.679,0.879-7.2,1.199-10.561
			c0.318-3.359,0.58-6.699,0.78-10.02c0.198-3.318,0.36-6.639,0.479-9.96c0.12-3.319,0.26-6.78,0.42-10.38h12.601
			c-0.882,10.961-2.101,21.281-3.66,30.96c-1.56,9.681-3.3,18.161-5.22,25.44H228.172z"/>
	</g>
</g>
<g id="Ebene_1">
</g>
</svg>
