<?xml version="1.0" encoding="iso-8859-1"?>
<!-- Generator: Adobe Illustrator 16.0.0, SVG Export Plug-In . SVG Version: 6.00 Build 0)  -->
<!DOCTYPE svg PUBLIC "-//W3C//DTD SVG 1.1 Tiny//EN" "http://www.w3.org/Graphics/SVG/1.1/DTD/svg11-tiny.dtd">
<svg version="1.1" baseProfile="tiny" id="it_x5F_network"
	 xmlns="http://www.w3.org/2000/svg" xmlns:xlink="http://www.w3.org/1999/xlink" x="0px" y="0px" width="361px" height="361px"
	 viewBox="0 0 361 361" xml:space="preserve">
<g>
	<path fill="#FFFFFF" d="M72.815,187.545c48.697,0,97.394,0,146.091,0c21.97,0,43.939,0,65.909,0c6.449,0,6.449-10,0-10
		c-48.697,0-97.394,0-146.091,0c-21.97,0-43.939,0-65.909,0C66.366,177.545,66.366,187.545,72.815,187.545L72.815,187.545z"/>
</g>
<g>
	<path fill="#FFFFFF" d="M183.315,178.045c0-8.167,0-16.333,0-24.5c0-6.449-10-6.449-10,0c0,8.167,0,16.333,0,24.5
		C173.315,184.494,183.315,184.494,183.315,178.045L183.315,178.045z"/>
</g>
<g>
	<path fill="#FFFFFF" d="M253.315,213.545c0-8.833,0-17.667,0-26.5c0-6.449-10-6.449-10,0c0,8.833,0,17.667,0,26.5
		C243.315,219.994,253.315,219.994,253.315,213.545L253.315,213.545z"/>
</g>
<g>
	<path fill="#FFFFFF" d="M112.315,213.295c0-8.75,0-17.5,0-26.25c0-6.449-10-6.449-10,0c0,8.75,0,17.5,0,26.25
		C102.315,219.744,112.315,219.744,112.315,213.295L112.315,213.295z"/>
</g>
<path fill="none" stroke="#FFFFFF" stroke-width="10" stroke-miterlimit="10" d="M137.565,273.045c0,3.313-2.687,6-6,6h-49
	c-3.313,0-6-2.687-6-6v-49c0-3.313,2.687-6,6-6h49c3.313,0,6,2.687,6,6V273.045z"/>
<path fill="none" stroke="#FFFFFF" stroke-width="10" stroke-miterlimit="10" d="M279.565,273.045c0,3.313-2.687,6-6,6h-49
	c-3.313,0-6-2.687-6-6v-49c0-3.313,2.687-6,6-6h49c3.313,0,6,2.687,6,6V273.045z"/>
<path fill="none" stroke="#FFFFFF" stroke-width="10" stroke-miterlimit="10" d="M208.565,143.045c0,3.313-2.687,6-6,6h-49
	c-3.313,0-6-2.687-6-6v-49c0-3.313,2.687-6,6-6h49c3.313,0,6,2.687,6,6V143.045z"/>
</svg>
