<?xml version="1.0" encoding="iso-8859-1"?>
<!-- Generator: Adobe Illustrator 16.0.0, SVG Export Plug-In . SVG Version: 6.00 Build 0)  -->
<!DOCTYPE svg PUBLIC "-//W3C//DTD SVG 1.1 Tiny//EN" "http://www.w3.org/Graphics/SVG/1.1/DTD/svg11-tiny.dtd">
<svg version="1.1" baseProfile="tiny" id="it_x5F_nas"
	 xmlns="http://www.w3.org/2000/svg" xmlns:xlink="http://www.w3.org/1999/xlink" x="0px" y="0px" width="361px" height="361px"
	 viewBox="0 0 361 361" xml:space="preserve">
<g>
	<path fill="#FFFFFF" d="M184.609,281.875c-0.322,4.008-5.436,3.051-8.227,3.051c-5.601,0-11.202,0-16.803,0
		c-15.916,0-31.831,0-47.747,0c-10.387,0-20.774,0-31.161,0c-5.295,0-3.631-8.994-3.631-12.464c0-56.074,0-112.148,0-168.223
		c0-5.936,0-11.872,0-17.808c0-3.669,3.632-3.219,6.112-3.219c4.956,0,9.912,0,14.868,0c27.267,0,54.534,0,81.8,0
		c6.079,0,4.789,5.765,4.789,10.294c0,10.512,0,21.025,0,31.537c0,31.724,0,63.448,0,95.172
		C184.609,240.769,184.609,261.321,184.609,281.875c0,6.449,10,6.449,10,0c0-49.47,0-98.939,0-148.409c0-11.79,0-23.58,0-35.37
		c0-6.088,1.104-13.716-2.229-19.111c-5.142-8.325-19.751-5.772-27.977-5.772c-15.626,0-31.253,0-46.879,0
		c-11.799,0-23.598,0-35.397,0c-5.983,0-11.517,2.083-14.015,8.022c-1.1,2.616-1.073,5.148-1.073,7.88c0,23.092,0,46.184,0,69.276
		c0,31.098,0,62.195,0,93.293c0,8.929,0,17.858,0,26.787c0,1.945-0.182,4.14,0.284,6.04c1.696,6.922,7.411,10.416,14.228,10.416
		c20.858,0,41.715,0,62.573,0c10.253,0,20.506,0,30.76,0c2.169,0,4.338,0,6.507,0c7.583,0,12.64-5.854,13.217-13.051
		C195.125,275.442,185.122,275.492,184.609,281.875z"/>
</g>
<g>
	<path fill="#FFFFFF" d="M170.923,177.592c-0.386,3.825-7.999,2.5-10.467,2.5c-6.957,0-13.915,0-20.872,0
		c-14.169,0-28.337,0-42.506,0c-1.255,0-2.511,0-3.766,0c-3.209,0-2.772-3.244-2.772-5.372c0-2.804-1.97-18.008,2.569-18.008
		c10.892,0,21.784,0,32.676,0c12.867,0,25.733,0,38.6,0c3.355,0,6.538-0.429,6.538,4.049
		C170.923,166.371,170.923,171.981,170.923,177.592c0,4.514,7,4.514,7,0c0-9.403,3.628-27.88-10.562-27.88
		c-12.541,0-25.082,0-37.622,0c-12.032,0-24.063,0-36.095,0c-6.551,0-10.104,4.908-10.104,11.049c0,3.517,0,7.034,0,10.55
		c0,2.54-0.527,5.927,0.247,8.421c2.58,8.313,10.317,7.36,17.22,7.36c10.239,0,20.478,0,30.716,0c9.989,0,19.979,0,29.968,0
		c7.344,0,15.269,0.045,16.231-9.5C178.376,173.101,171.372,173.145,170.923,177.592z"/>
</g>
<g>
	<path fill="#FFFFFF" d="M171.257,133.925c-0.386,3.825-7.999,2.5-10.467,2.5c-6.957,0-13.915,0-20.872,0
		c-14.169,0-28.338,0-42.506,0c-1.255,0-2.511,0-3.766,0c-3.209,0-2.772-3.244-2.772-5.372c0-2.804-1.97-18.008,2.569-18.008
		c10.892,0,21.784,0,32.676,0c12.867,0,25.733,0,38.6,0c3.355,0,6.538-0.429,6.538,4.049
		C171.257,122.705,171.257,128.315,171.257,133.925c0,4.514,7,4.514,7,0c0-9.403,3.628-27.88-10.562-27.88
		c-12.541,0-25.081,0-37.622,0c-12.032,0-24.063,0-36.095,0c-6.551,0-10.104,4.908-10.104,11.049c0,3.517,0,7.034,0,10.55
		c0,2.54-0.527,5.927,0.247,8.421c2.58,8.313,10.317,7.36,17.22,7.36c10.239,0,20.478,0,30.716,0c9.989,0,19.979,0,29.968,0
		c7.344,0,15.269,0.045,16.231-9.5C178.709,129.435,171.705,129.479,171.257,133.925z"/>
</g>
<g>
	<path fill="#FFFFFF" d="M170.923,221.735c-0.386,3.825-7.999,2.5-10.467,2.5c-6.957,0-13.915,0-20.872,0
		c-14.169,0-28.338,0-42.506,0c-1.255,0-2.511,0-3.766,0c-3.209,0-2.772-3.244-2.772-5.372c0-2.804-1.97-18.008,2.569-18.008
		c10.892,0,21.784,0,32.676,0c12.867,0,25.733,0,38.6,0c3.355,0,6.538-0.429,6.538,4.049
		C170.923,210.515,170.923,216.125,170.923,221.735c0,4.514,7,4.514,7,0c0-9.403,3.628-27.88-10.562-27.88
		c-12.541,0-25.081,0-37.622,0c-12.032,0-24.063,0-36.095,0c-6.551,0-10.104,4.908-10.104,11.049c0,3.517,0,7.034,0,10.55
		c0,2.54-0.527,5.927,0.247,8.421c2.58,8.313,10.317,7.36,17.22,7.36c10.239,0,20.478,0,30.716,0c9.989,0,19.979,0,29.968,0
		c7.344,0,15.269,0.045,16.231-9.5C178.376,217.245,171.372,217.289,170.923,221.735z"/>
</g>
<g>
	<path fill="#FFFFFF" d="M172.923,93.878c-0.174,3.224-4.826,3.224-5,0C167.75,90.652,172.75,90.669,172.923,93.878
		c0.104,1.924,3.104,1.934,3,0c-0.167-3.108-2.392-5.333-5.5-5.5c-3.102-0.167-5.346,2.643-5.5,5.5
		c-0.167,3.102,2.643,5.346,5.5,5.5c3.102,0.167,5.346-2.643,5.5-5.5C176.027,91.944,173.027,91.955,172.923,93.878z"/>
</g>
<g>
	<path fill="#FFFFFF" d="M88.882,277.878c27.619,0,55.238,0,82.856,0c6.449,0,6.449-10,0-10c-27.619,0-55.238,0-82.856,0
		C82.434,267.878,82.434,277.878,88.882,277.878L88.882,277.878z"/>
</g>
<g>
	<path fill="#FFFFFF" d="M88.882,264.95c27.619,0,55.238,0,82.856,0c6.449,0,6.449-10,0-10c-27.619,0-55.238,0-82.856,0
		C82.434,254.95,82.434,264.95,88.882,264.95L88.882,264.95z"/>
</g>
<g>
	<path fill="#FFFFFF" d="M88.882,252.022c27.619,0,55.238,0,82.856,0c6.449,0,6.449-10,0-10c-27.619,0-55.238,0-82.856,0
		C82.434,242.022,82.434,252.022,88.882,252.022L88.882,252.022z"/>
</g>
<g>
	<path fill="#FFFFFF" d="M204.475,254.662c27.248,0,54.496,0,81.744,0c4.514,0,4.514-7,0-7c-27.248,0-54.496,0-81.744,0
		C199.96,247.662,199.96,254.662,204.475,254.662L204.475,254.662z"/>
</g>
<g>
	<path fill="#FFFFFF" d="M241.95,239.417c0,3.662,0,7.323,0,10.985c0,4.514,7,4.514,7,0c0-3.662,0-7.323,0-10.985
		C248.95,234.903,241.95,234.903,241.95,239.417L241.95,239.417z"/>
</g>
<g>
	<path fill="#FFFFFF" d="M269.144,252.162c0,3.662,0,7.323,0,10.985c0,4.514,7,4.514,7,0c0-3.662,0-7.323,0-10.985
		C276.144,247.647,269.144,247.647,269.144,252.162L269.144,252.162z"/>
</g>
<g>
	<path fill="#FFFFFF" d="M214.81,252.162c0,3.662,0,7.323,0,10.985c0,4.514,7,4.514,7,0c0-3.662,0-7.323,0-10.985
		C221.81,247.647,214.81,247.647,214.81,252.162L214.81,252.162z"/>
</g>
<g>
	<path fill="#FFFFFF" d="M225.218,284.578c-0.021,0.128,1.651,0.134,0.432,0.134c-0.52,0-1.039,0-1.558,0c-1.624,0-3.247,0-4.87,0
		c-2.923,0-5.846,0-8.77,0c1.241,0,1.128,1.926,1.128,0.611c0-0.52,0-1.039,0-1.558c0-1.624,0-3.247,0-4.87c0-2.923,0-5.846,0-8.77
		c0,1.241-1.927,1.128-0.612,1.128c0.52,0,1.039,0,1.558,0c1.624,0,3.247,0,4.87,0c2.923,0,5.846,0,8.77,0
		c-1.24,0-1.127-1.927-1.127-0.612c0,0.52,0,1.039,0,1.558c0,1.928,0,3.855,0,5.783c0,2.642,0,5.283,0,7.925c0,6.449,10,6.449,10,0
		c0-7.509,2.955-22.793-7.476-24.475c-4.138-0.667-8.621-0.179-12.796-0.179c-5.656,0-11.888,0.53-13.008,7.475
		c-0.667,4.137-0.179,8.621-0.179,12.796c0,5.656,0.53,11.888,7.475,13.009c4.137,0.668,8.621,0.179,12.796,0.179
		c5.657,0,11.889-0.53,13.009-7.476C235.878,280.93,226.243,278.225,225.218,284.578z"/>
</g>
<g>
	<path fill="#FFFFFF" d="M279.552,284.578c-0.021,0.128,1.652,0.134,0.433,0.134c-0.52,0-1.039,0-1.558,0c-1.624,0-3.247,0-4.87,0
		c-2.923,0-5.846,0-8.77,0c1.241,0,1.127,1.925,1.127,0.611c0-0.52,0-1.039,0-1.558c0-1.624,0-3.247,0-4.87c0-2.923,0-5.846,0-8.77
		c0,1.241-1.926,1.128-0.611,1.128c0.52,0,1.039,0,1.558,0c1.624,0,3.247,0,4.87,0c2.923,0,5.846,0,8.77,0
		c-1.241,0-1.128-1.927-1.128-0.612c0,0.52,0,1.039,0,1.558c0,1.928,0,3.855,0,5.783c0,2.642,0,5.283,0,7.925c0,6.449,10,6.449,10,0
		c0-7.509,2.955-22.792-7.475-24.475c-4.138-0.667-8.621-0.179-12.797-0.179c-5.656,0-11.888,0.53-13.008,7.475
		c-0.667,4.137-0.179,8.621-0.179,12.796c0,5.657,0.53,11.888,7.475,13.009c4.137,0.668,8.621,0.179,12.797,0.179
		c5.657,0,11.888-0.531,13.008-7.476C290.212,280.93,280.577,278.225,279.552,284.578z"/>
</g>
<g>
	<path fill="#FFFFFF" d="M252.359,230.037c-0.021,0.127,1.651,0.133,0.432,0.133c-0.52,0-1.039,0-1.558,0c-1.624,0-3.247,0-4.87,0
		c-2.923,0-5.846,0-8.77,0c1.241,0,1.128,1.927,1.128,0.612c0-0.52,0-1.039,0-1.558c0-1.624,0-3.247,0-4.87c0-2.923,0-5.846,0-8.77
		c0,1.24-1.927,1.127-0.612,1.127c0.52,0,1.039,0,1.558,0c1.624,0,3.247,0,4.87,0c2.923,0,5.846,0,8.77,0
		c-1.24,0-1.127-1.925-1.127-0.611c0,0.52,0,1.039,0,1.558c0,1.928,0,3.855,0,5.783c0,2.642,0,5.283,0,7.925c0,6.449,10,6.449,10,0
		c0-7.51,2.954-22.793-7.476-24.476c-4.137-0.668-8.621-0.179-12.796-0.179c-5.657,0-11.888,0.531-13.008,7.476
		c-0.667,4.138-0.179,8.621-0.179,12.796c0,5.656,0.53,11.888,7.475,13.008c4.137,0.667,8.621,0.179,12.796,0.179
		c5.656,0,11.888-0.53,13.009-7.475C263.02,226.389,253.384,223.684,252.359,230.037z"/>
</g>
</svg>
