<?xml version="1.0" encoding="iso-8859-1"?>
<!-- Generator: Adobe Illustrator 16.0.0, SVG Export Plug-In . SVG Version: 6.00 Build 0)  -->
<!DOCTYPE svg PUBLIC "-//W3C//DTD SVG 1.1 Tiny//EN" "http://www.w3.org/Graphics/SVG/1.1/DTD/svg11-tiny.dtd">
<svg version="1.1" baseProfile="tiny" id="it_x5F_pc"
	 xmlns="http://www.w3.org/2000/svg" xmlns:xlink="http://www.w3.org/1999/xlink" x="0px" y="0px" width="361px" height="361px"
	 viewBox="0 0 361 361" xml:space="preserve">
<path fill="none" stroke="#FFFFFF" stroke-width="10" d="M201.315,254.148c0,2.98-2.687,5.397-6,5.397h-109
	c-3.313,0-6-2.417-6-5.397v-78.706c0-2.98,2.687-5.397,6-5.397h109c3.313,0,6,2.417,6,5.397V254.148z"/>
<g>
	<path fill="#FFFFFF" d="M106.815,277.045c21.5,0,43,0,64.5,0c6.449,0,6.449-10,0-10c-21.5,0-43,0-64.5,0
		C100.366,267.045,100.366,277.045,106.815,277.045L106.815,277.045z"/>
</g>
<path fill="none" stroke="#FFFFFF" stroke-width="10" d="M156.315,265.795c0,2.347-1.903,4.25-4.25,4.25h-26.5
	c-2.347,0-4.25-1.903-4.25-4.25l0,0c0-2.347,1.903-4.25,4.25-4.25h26.5C154.412,261.545,156.315,263.448,156.315,265.795
	L156.315,265.795z"/>
<path fill="none" stroke="#FFFFFF" stroke-width="10" d="M284.815,265.045c0,3.313-2.687,6-6,6h-55.5c-3.313,0-6-2.687-6-6v-162
	c0-3.313,2.687-6,6-6h55.5c3.313,0,6,2.687,6,6V265.045z"/>
<g>
	<path fill="#FFFFFF" d="M230.315,118.045c14,0,28,0,42,0c6.449,0,6.449-10,0-10c-14,0-28,0-42,0
		C223.866,108.045,223.866,118.045,230.315,118.045L230.315,118.045z"/>
</g>
<g>
	<path fill="#FFFFFF" d="M230.315,141.045c14,0,28,0,42,0c6.449,0,6.449-10,0-10c-14,0-28,0-42,0
		C223.866,131.045,223.866,141.045,230.315,141.045L230.315,141.045z"/>
</g>
<path fill="#FFFFFF" d="M254.815,203.765c0,1.535-1.245,2.78-2.78,2.78h-3.939c-1.535,0-2.78-1.245-2.78-2.78v-3.939
	c0-1.535,1.245-2.78,2.78-2.78h3.939c1.535,0,2.78,1.245,2.78,2.78V203.765z"/>
<path fill="#FFFFFF" d="M277.524,257.429c0,3.93-3.187,7.116-7.116,7.116h-39.14c-3.93,0-7.116-3.187-7.116-7.116v-36.768
	c0-3.93,3.186-7.116,7.116-7.116h39.14c3.93,0,7.116,3.187,7.116,7.116V257.429z"/>
</svg>
