<?xml version="1.0" encoding="iso-8859-1"?>
<!-- Generator: Adobe Illustrator 16.0.0, SVG Export Plug-In . SVG Version: 6.00 Build 0)  -->
<!DOCTYPE svg PUBLIC "-//W3C//DTD SVG 1.1//EN" "http://www.w3.org/Graphics/SVG/1.1/DTD/svg11.dtd">
<svg version="1.1" xmlns="http://www.w3.org/2000/svg" xmlns:xlink="http://www.w3.org/1999/xlink" x="0px" y="0px" width="361px"
	 height="361px" viewBox="0 0 361 361" style="enable-background:new 0 0 361 361;" xml:space="preserve">
<g id="it_x5F_radio">
	<path style="fill:none;stroke:#FFFFFF;stroke-width:10;stroke-miterlimit:10;" d="M255.924,280.473c0,3.313-2.687,6-6,6H86.878
		c-3.313,0-6-2.687-6-6v-95.841c0-3.313,2.687-6,6-6h163.045c3.313,0,6,2.687,6,6V280.473z"/>
	<g>
		<g>
			<path style="fill:#FFFFFF;" d="M231.63,179.731c13.893-34.818,27.785-69.636,41.678-104.454c2.393-5.995-7.283-8.572-9.643-2.658
				c-13.893,34.818-27.785,69.636-41.678,104.454C219.595,183.068,229.271,185.646,231.63,179.731L231.63,179.731z"/>
		</g>
	</g>
	<g>
		<g>
			<path style="fill:#FFFFFF;" d="M174.931,224.543c17.279,0,34.558,0,51.837,0c6.448,0,6.448-10,0-10c-17.279,0-34.558,0-51.837,0
				C168.482,214.543,168.482,224.543,174.931,224.543L174.931,224.543z"/>
		</g>
	</g>
	<g>
		<g>
			<path style="fill:#FFFFFF;" d="M163.64,238.543c24.398,0,48.798,0,73.196,0c6.448,0,6.448-10,0-10c-24.398,0-48.798,0-73.196,0
				C157.191,228.543,157.191,238.543,163.64,238.543L163.64,238.543z"/>
		</g>
	</g>
	<g>
		<g>
			<path style="fill:#FFFFFF;" d="M163.64,252.543c24.398,0,48.798,0,73.196,0c6.448,0,6.448-10,0-10c-24.398,0-48.798,0-73.196,0
				C157.191,242.543,157.191,252.543,163.64,252.543L163.64,252.543z"/>
		</g>
	</g>
	<g>
		<g>
			<path style="fill:#FFFFFF;" d="M174.931,266.543c17.279,0,34.558,0,51.837,0c6.448,0,6.448-10,0-10c-17.279,0-34.558,0-51.837,0
				C168.482,256.543,168.482,266.543,174.931,266.543L174.931,266.543z"/>
		</g>
	</g>
	<path style="fill:#FFFFFF;stroke:#FFFFFF;stroke-miterlimit:10;" d="M112.964,174.434c0,2.517-2.041,4.558-4.558,4.558H98.247
		c-2.518,0-4.559-2.041-4.559-4.558l0,0c0-2.518,2.041-4.559,4.559-4.559h10.159C110.923,169.875,112.964,171.916,112.964,174.434
		L112.964,174.434z"/>
	<path style="fill:#FFFFFF;stroke:#FFFFFF;stroke-miterlimit:10;" d="M141.964,174.434c0,2.517-2.041,4.558-4.558,4.558h-10.159
		c-2.518,0-4.559-2.041-4.559-4.558l0,0c0-2.518,2.041-4.559,4.559-4.559h10.159C139.923,169.875,141.964,171.916,141.964,174.434
		L141.964,174.434z"/>
	<g>
		<g>
			<path style="fill:#FFFFFF;" d="M98.483,199.469c45.907,0,91.813,0,137.72,0c0.199,0,0.398,0,0.598,0c6.448,0,6.448-10,0-10
				c-45.906,0-91.813,0-137.72,0c-0.199,0-0.399,0-0.598,0C92.034,189.469,92.034,199.469,98.483,199.469L98.483,199.469z"/>
		</g>
	</g>
</g>
<g id="Ebene_1">
</g>
</svg>
