<?xml version="1.0" encoding="iso-8859-1"?>
<!-- Generator: Adobe Illustrator 16.0.0, SVG Export Plug-In . SVG Version: 6.00 Build 0)  -->
<!DOCTYPE svg PUBLIC "-//W3C//DTD SVG 1.1//EN" "http://www.w3.org/Graphics/SVG/1.1/DTD/svg11.dtd">
<svg version="1.1" xmlns="http://www.w3.org/2000/svg" xmlns:xlink="http://www.w3.org/1999/xlink" x="0px" y="0px" width="361px"
	 height="361px" viewBox="0 0 361 361" style="enable-background:new 0 0 361 361;" xml:space="preserve">
<g id="it_x5F_remote">
	<g>
		<g>
			<path style="fill:#FFFFFF;" d="M136.987,107.049c-16.754,0.424-29.773,13.444-30.196,30.198c-0.114,4.517,6.886,4.506,7,0
				c0.326-12.901,10.295-22.871,23.196-23.198C141.493,113.935,141.504,106.935,136.987,107.049L136.987,107.049z"/>
		</g>
	</g>
	<g>
		<g>
			<path style="fill:#FFFFFF;" d="M137.231,88.906c-26.806,0.409-48.234,21.836-48.643,48.642c-0.069,4.517,6.931,4.51,7,0
				c0.351-22.979,18.664-41.292,41.643-41.642C141.741,95.837,141.748,88.837,137.231,88.906L137.231,88.906z"/>
		</g>
	</g>
	<g>
		<g>
			<path style="fill:#FFFFFF;" d="M137.356,71.044c-36.539,0.399-66.105,29.963-66.504,66.502c-0.049,4.516,6.951,4.511,7,0
				c0.357-32.726,26.779-59.145,59.504-59.502C141.867,77.995,141.872,70.995,137.356,71.044L137.356,71.044z"/>
		</g>
	</g>
	<g id="fernbedienung_x5F_orig" style="display:none;">
		<g style="display:inline;">
			<g>
				<path style="fill:#FFFFFF;" d="M238.568,293.351c-0.348,1.74-9.019,0.783-10.926,0.787c-7.783,0.018-15.567,0.034-23.351,0.051
					c-7.113,0.016-14.226,0.031-21.338,0.047c-1.768,0.003-3.535,0.007-5.303,0.011c-0.809,0.002-0.569,0.366-0.571-0.308
					c-0.038-21.593-0.076-43.187-0.115-64.779c-0.053-29.703-0.105-59.406-0.158-89.109c-0.007-3.941-0.014-7.882-0.021-11.823
					c-0.001-0.926-0.026-3.705,0.001-3.705c12.365-0.026,24.729-0.053,37.093-0.08c6.71-0.015,13.42-0.029,20.13-0.043
					c1.964-0.004,4.13-0.853,4.133,0.726c0.014,7.817,0.027,15.635,0.041,23.452c0.055,30.941,0.109,61.883,0.164,92.825
					c0.031,17.626,0.063,35.253,0.094,52.879c0.008,4.514,7.008,4.515,7,0c-0.088-49.739-0.176-99.478-0.264-149.217
					c-0.013-6.859-0.024-13.719-0.037-20.578c-0.009-5.003-4.08-7.102-8.455-7.093c-5.697,0.012-11.394,0.024-17.091,0.037
					c-13.792,0.03-27.583,0.06-41.375,0.089c-8.909,0.019-8.441,7.215-8.43,13.713c0.094,52.881,0.188,105.763,0.281,158.645
					c0.009,4.795-0.188,10.021,5.91,11.245c5.838,1.171,12.816,0.1,18.726,0.086c10.714-0.022,21.428-0.046,32.142-0.069
					c6.02-0.013,16.863,2.093,18.468-5.928C246.2,290.804,239.453,288.927,238.568,293.351z"/>
			</g>
		</g>
		<g style="display:inline;">
			<g>
				<path style="fill:#FFFFFF;" d="M203.732,145.269c2.572-0.004,5.145-0.009,7.717-0.014c4.514-0.008,4.515-7.008,0-7
					c-2.572,0.004-5.145,0.009-7.717,0.014C199.219,138.276,199.218,145.276,203.732,145.269L203.732,145.269z"/>
			</g>
		</g>
		<g style="display:inline;">
			<g>
				<path style="fill:#FFFFFF;" d="M221.197,145.238c2.573-0.004,5.146-0.009,7.719-0.014c4.514-0.008,4.515-7.008,0-7
					c-2.573,0.004-5.146,0.009-7.719,0.014C216.684,138.246,216.683,145.246,221.197,145.238L221.197,145.238z"/>
			</g>
		</g>
		<g style="display:inline;">
			<g>
				<path style="fill:#FFFFFF;" d="M186.111,145.3c2.572-0.005,5.146-0.009,7.718-0.014c4.514-0.008,4.515-7.008,0-7
					c-2.572,0.005-5.146,0.009-7.718,0.014C181.598,138.309,181.597,145.309,186.111,145.3L186.111,145.3z"/>
			</g>
		</g>
		<g style="display:inline;">
			<g>
				<path style="fill:#FFFFFF;" d="M203.49,157.744c2.573-0.004,5.146-0.009,7.719-0.014c4.514-0.008,4.515-7.008,0-7
					c-2.573,0.004-5.146,0.009-7.719,0.014C198.977,150.751,198.976,157.751,203.49,157.744L203.49,157.744z"/>
			</g>
		</g>
		<g style="display:inline;">
			<g>
				<path style="fill:#FFFFFF;" d="M220.955,157.712c2.573-0.004,5.146-0.009,7.719-0.014c4.514-0.008,4.515-7.008,0-7
					c-2.573,0.004-5.146,0.009-7.719,0.014C216.441,150.72,216.44,157.72,220.955,157.712L220.955,157.712z"/>
			</g>
		</g>
		<g style="display:inline;">
			<g>
				<path style="fill:#FFFFFF;" d="M185.869,157.775c2.573-0.005,5.146-0.009,7.719-0.014c4.514-0.008,4.515-7.008,0-7
					c-2.573,0.005-5.146,0.009-7.719,0.014C181.355,150.783,181.354,157.783,185.869,157.775L185.869,157.775z"/>
			</g>
		</g>
		<g style="display:inline;">
			<g>
				<path style="fill:#FFFFFF;" d="M215.977,134.65c2.924-0.005,5.848-0.011,8.771-0.016c4.514-0.008,4.515-7.008,0-7
					c-2.924,0.005-5.848,0.011-8.771,0.016C211.463,127.659,211.462,134.659,215.977,134.65L215.977,134.65z"/>
			</g>
		</g>
		<g style="display:inline;">
			<g>
				<path style="fill:#FFFFFF;" d="M184.833,174.055c3.029-0.005,6.058-0.011,9.087-0.017c4.514-0.008,4.515-7.008,0-7
					c-3.029,0.005-6.058,0.011-9.087,0.017C180.319,167.063,180.318,174.063,184.833,174.055L184.833,174.055z"/>
			</g>
		</g>
		<g style="display:inline;">
			<g>
				<path style="fill:#FFFFFF;" d="M204.225,218.672c2.572-0.005,5.146-0.009,7.718-0.014c4.514-0.008,4.515-7.008,0-7
					c-2.572,0.005-5.146,0.009-7.718,0.014C199.711,211.68,199.71,218.68,204.225,218.672L204.225,218.672z"/>
			</g>
		</g>
		<g style="display:inline;">
			<g>
				<path style="fill:#FFFFFF;" d="M221.689,218.641c2.573-0.005,5.146-0.009,7.719-0.014c4.514-0.008,4.515-7.008,0-7
					c-2.573,0.005-5.146,0.009-7.719,0.014C217.176,211.648,217.175,218.648,221.689,218.641L221.689,218.641z"/>
			</g>
		</g>
		<g style="display:inline;">
			<g>
				<path style="fill:#FFFFFF;" d="M186.604,218.703c2.573-0.005,5.146-0.009,7.72-0.014c4.514-0.008,4.515-7.008,0-7
					c-2.573,0.005-5.146,0.009-7.72,0.014C182.09,211.711,182.089,218.711,186.604,218.703L186.604,218.703z"/>
			</g>
		</g>
		<g style="display:inline;">
			<g>
				<path style="fill:#FFFFFF;" d="M203.986,233.146c2.573-0.005,5.146-0.009,7.719-0.014c4.514-0.008,4.515-7.008,0-7
					c-2.573,0.005-5.146,0.009-7.719,0.014C199.473,226.154,199.472,233.154,203.986,233.146L203.986,233.146z"/>
			</g>
		</g>
		<g style="display:inline;">
			<g>
				<path style="fill:#FFFFFF;" d="M221.451,233.115c2.573-0.005,5.146-0.009,7.719-0.014c4.514-0.008,4.515-7.008,0-7
					c-2.573,0.005-5.146,0.009-7.719,0.014C216.938,226.123,216.937,233.123,221.451,233.115L221.451,233.115z"/>
			</g>
		</g>
		<g style="display:inline;">
			<g>
				<path style="fill:#FFFFFF;" d="M186.365,233.178c2.573-0.005,5.146-0.009,7.719-0.014c4.514-0.008,4.515-7.008,0-7
					c-2.573,0.005-5.146,0.009-7.719,0.014C181.852,226.186,181.851,233.186,186.365,233.178L186.365,233.178z"/>
			</g>
		</g>
		<g style="display:inline;">
			<g>
				<path style="fill:#FFFFFF;" d="M204.091,248.172c2.573-0.005,5.146-0.009,7.719-0.014c4.514-0.008,4.515-7.008,0-7
					c-2.573,0.005-5.146,0.009-7.719,0.014C199.577,241.18,199.576,248.18,204.091,248.172L204.091,248.172z"/>
			</g>
		</g>
		<g style="display:inline;">
			<g>
				<path style="fill:#FFFFFF;" d="M221.555,248.141c2.573-0.005,5.146-0.009,7.72-0.014c4.514-0.008,4.515-7.008,0-7
					c-2.573,0.005-5.146,0.009-7.72,0.014C217.041,241.148,217.04,248.148,221.555,248.141L221.555,248.141z"/>
			</g>
		</g>
		<g style="display:inline;">
			<g>
				<path style="fill:#FFFFFF;" d="M186.471,248.203c2.572-0.005,5.146-0.009,7.718-0.014c4.514-0.008,4.515-7.008,0-7
					c-2.572,0.005-5.146,0.009-7.718,0.014C181.957,241.211,181.956,248.211,186.471,248.203L186.471,248.203z"/>
			</g>
		</g>
		<g style="display:inline;">
			<g>
				<path style="fill:#FFFFFF;" d="M223.028,207.839c1.9-0.004,3.802-0.007,5.702-0.011c1.908-0.004,3.5-1.59,3.5-3.5
					c0-1.905-1.592-3.504-3.5-3.5c-1.9,0.004-3.802,0.007-5.702,0.011c-1.908,0.004-3.5,1.589-3.5,3.5
					C219.528,206.244,221.12,207.843,223.028,207.839L223.028,207.839z"/>
			</g>
		</g>
		<g style="display:inline;">
			<g>
				<path style="fill:#FFFFFF;" d="M187.834,275.853c0.664-0.001,1.329-0.003,1.993-0.004c1.908-0.004,3.5-1.589,3.5-3.5
					c0-1.905-1.592-3.504-3.5-3.5c-0.664,0.001-1.329,0.003-1.993,0.004c-1.908,0.004-3.5,1.589-3.5,3.5
					C184.334,274.258,185.926,275.856,187.834,275.853L187.834,275.853z"/>
			</g>
		</g>
		<g style="display:inline;">
			<g>
				<path style="fill:#FFFFFF;" d="M200.299,275.822c0.664-0.001,1.328-0.003,1.992-0.004c1.908-0.004,3.5-1.589,3.5-3.5
					c0-1.905-1.592-3.504-3.5-3.5c-0.664,0.001-1.328,0.003-1.992,0.004c-1.908,0.004-3.5,1.589-3.5,3.5
					C196.799,274.228,198.391,275.826,200.299,275.822L200.299,275.822z"/>
			</g>
		</g>
		<g style="display:inline;">
			<g>
				<path style="fill:#FFFFFF;" d="M212.928,275.793c0.664-0.001,1.327-0.002,1.991-0.003c1.908-0.003,3.5-1.59,3.5-3.5
					c0-1.906-1.592-3.503-3.5-3.5c-0.664,0.001-1.327,0.002-1.991,0.003c-1.908,0.003-3.5,1.59-3.5,3.5
					C209.428,274.199,211.02,275.796,212.928,275.793L212.928,275.793z"/>
			</g>
		</g>
		<g style="display:inline;">
			<g>
				<path style="fill:#FFFFFF;" d="M225.466,275.76c0.664-0.001,1.329-0.002,1.993-0.003c1.908-0.003,3.5-1.59,3.5-3.5
					c0-1.906-1.592-3.503-3.5-3.5c-0.664,0.001-1.329,0.002-1.993,0.003c-1.908,0.003-3.5,1.59-3.5,3.5
					C221.966,274.166,223.558,275.763,225.466,275.76L225.466,275.76z"/>
			</g>
		</g>
		<g style="display:inline;">
			<g>
				<path style="fill:#FFFFFF;" d="M203.731,263.344c2.572-0.005,5.146-0.009,7.718-0.014c4.514-0.008,4.515-7.008,0-7
					c-2.572,0.005-5.146,0.009-7.718,0.014C199.218,256.352,199.217,263.352,203.731,263.344L203.731,263.344z"/>
			</g>
		</g>
		<g style="display:inline;">
			<g>
				<path style="fill:#FFFFFF;" d="M200.608,177.055c2.054-0.59,4.239-1.32,6.382-1.427c2.046-0.103,4.43,0.86,6.381,1.427
					c-0.35-0.349-0.699-0.698-1.048-1.047c-0.188-0.76,0.027-0.718-0.199-0.124c-0.162,0.423-0.354,0.834-0.537,1.248
					c-0.477,1.074-0.983,2.136-1.512,3.185c-0.143,0.282-0.294,0.558-0.453,0.831c0.398-0.68,1.663-0.562,0.729-0.562
					c-1.03,0-2.061,0-3.091,0c-0.989,0-1.979,0-2.968,0c-0.297,0-0.593,0-0.89,0c-0.081,0,1.301,1.211,0.679,0.069
					c-0.539-0.99-1.003-2.025-1.474-3.049c-0.206-0.449-0.404-0.902-0.602-1.355c-0.289-0.667-0.121-1.175-0.35-0.243
					c0.461-1.879-2.433-2.676-2.893-0.798c-0.333,1.357,0.94,3.229,1.476,4.395c0.526,1.145,1.325,3.981,2.971,3.981
					c1.866,0,3.733,0,5.6,0c1.424,0,2.711,0.254,3.527-1.137c1.064-1.812,1.89-3.824,2.68-5.768c0.668-1.646-0.29-2.367-1.768-2.778
					c-2.234-0.623-4.743-1.478-7.088-1.203c-2.148,0.252-4.275,0.867-6.35,1.463C197.955,174.696,198.745,177.591,200.608,177.055z"
					/>
			</g>
		</g>
		<g style="display:inline;">
			<g>
				<path style="fill:#FFFFFF;" d="M213.371,199.159c-2.054,0.59-4.239,1.32-6.381,1.428c-2.046,0.103-4.431-0.86-6.382-1.428
					c0.35,0.349,0.699,0.698,1.048,1.048c0.188,0.763-0.026,0.716,0.2,0.124c0.161-0.423,0.354-0.835,0.537-1.248
					c0.477-1.074,0.982-2.136,1.512-3.185c0.142-0.282,0.293-0.559,0.453-0.831c-0.399,0.68-1.665,0.562-0.729,0.562
					c1.03,0,2.061,0,3.091,0c0.989,0,1.979,0,2.968,0c0.297,0,0.593,0,0.89,0c0.081,0-1.301-1.211-0.679-0.069
					c0.54,0.99,1.004,2.025,1.475,3.049c0.206,0.449,0.404,0.902,0.601,1.355c0.291,0.67,0.119,1.171,0.35,0.243
					c-0.466,1.878,2.427,2.674,2.893,0.797c0.468-1.885-1.747-5.025-2.551-6.62c-1.159-2.299-3.103-1.755-5.405-1.755
					c-2.072,0-4.629-0.677-5.77,1.416c-0.881,1.619-3.202,5.021-2.727,6.959c0.125,0.51,0.555,0.904,1.048,1.048
					c2.322,0.676,4.75,1.417,7.179,1.535c2.33,0.113,4.963-0.898,7.178-1.535C216.024,201.519,215.234,198.624,213.371,199.159z"/>
			</g>
		</g>
		<g style="display:inline;">
			<g>
				<path style="fill:#FFFFFF;" d="M194.938,194.281c-0.59-2.054-1.321-4.239-1.429-6.381c-0.103-2.047,0.861-4.431,1.429-6.383
					c-0.349,0.35-0.698,0.699-1.048,1.048c-0.765,0.187-0.714-0.025-0.124,0.2c0.423,0.162,0.835,0.354,1.248,0.537
					c1.074,0.477,2.136,0.983,3.185,1.512c0.282,0.143,0.559,0.293,0.831,0.453c-0.68-0.398-0.562-1.665-0.562-0.729
					c0,1.03,0,2.061,0,3.092c0,0.989,0,1.979,0,2.968c0,0.297,0,0.593,0,0.89c0,0.081,1.211-1.301,0.069-0.679
					c-0.99,0.54-2.025,1.004-3.049,1.475c-0.449,0.206-0.902,0.404-1.355,0.601c-0.67,0.291-1.171,0.119-0.243,0.35
					c-1.878-0.466-2.674,2.427-0.797,2.893c1.885,0.468,5.025-1.747,6.62-2.551c2.3-1.159,1.755-3.103,1.755-5.406
					c0-2.071,0.677-4.629-1.416-5.769c-1.622-0.882-5.019-3.2-6.959-2.728c-0.51,0.124-0.904,0.555-1.048,1.047
					c-0.677,2.323-1.418,4.751-1.536,7.18c-0.113,2.33,0.899,4.964,1.536,7.178C192.579,196.935,195.475,196.145,194.938,194.281z"
					/>
			</g>
		</g>
		<g style="display:inline;">
			<g>
				<path style="fill:#FFFFFF;" d="M219.042,181.518c0.59,2.055,1.319,4.24,1.427,6.383c0.103,2.046-0.859,4.43-1.427,6.381
					c0.349-0.35,0.698-0.699,1.048-1.048c0.759-0.188,0.718,0.027,0.124-0.199c-0.423-0.162-0.835-0.354-1.248-0.537
					c-1.074-0.477-2.136-0.983-3.185-1.512c-0.282-0.143-0.559-0.294-0.831-0.453c0.68,0.398,0.562,1.663,0.562,0.729
					c0-1.03,0-2.061,0-3.092c0-0.989,0-1.979,0-2.968c0-0.297,0-0.593,0-0.89c0-0.081-1.211,1.301-0.069,0.68
					c0.99-0.539,2.025-1.003,3.049-1.474c0.449-0.207,0.902-0.405,1.355-0.602c0.665-0.289,1.177-0.123,0.243-0.351
					c1.879,0.458,2.676-2.435,0.797-2.893c-1.358-0.331-3.227,0.94-4.394,1.477c-1.145,0.526-3.981,1.325-3.981,2.97
					c0,1.867,0,3.733,0,5.601c0,1.424-0.254,2.71,1.137,3.527c1.812,1.064,3.823,1.89,5.768,2.68
					c1.646,0.668,2.367-0.29,2.778-1.768c0.622-2.234,1.478-4.743,1.202-7.088c-0.251-2.149-0.866-4.276-1.462-6.351
					C221.401,178.864,218.507,179.654,219.042,181.518z"/>
			</g>
		</g>
		<g style="display:inline;">
			<g>
				<path style="fill:#FFFFFF;" d="M220.426,174.063c3.029-0.005,6.058-0.011,9.087-0.017c4.514-0.008,4.515-7.008,0-7
					c-3.029,0.005-6.058,0.011-9.087,0.017C215.912,167.072,215.911,174.072,220.426,174.063L220.426,174.063z"/>
			</g>
		</g>
	</g>
	<g id="fernbedienung">
		<g>
			<g>
				<path style="fill:#FFFFFF;" d="M285.456,239.009c1.083,1.624-5.593,6.83-6.919,8.161c-5.408,5.432-10.816,10.863-16.224,16.295
					c-1.482,1.488-21.521,21.726-21.63,21.617c-14.138-14.088-28.274-28.175-42.412-42.263
					c-21.862-21.785-43.724-43.569-65.586-65.354c-5.503-5.484-11.007-10.969-16.511-16.453c-1.321-1.316,0.57-2.012,1.806-3.253
					c4.507-4.527,9.015-9.053,13.522-13.58c9.449-9.49,18.897-18.979,28.346-28.469c1.233-1.238,1.216-0.488,2.462,0.753
					c2.374,2.366,4.749,4.731,7.123,7.098c20.319,20.247,40.637,40.493,60.957,60.74c18.538,18.473,37.076,36.945,55.614,55.417
					c3.199,3.188,8.15-1.761,4.949-4.949c-35.339-35.214-70.679-70.428-106.018-105.642c-6.004-5.983-12.009-11.967-18.014-17.95
					c-2.949-2.938-6.524-4.451-10.441-1.84c-2.867,1.911-5.248,5.106-7.656,7.524c-10.64,10.686-21.28,21.372-31.92,32.058
					c-2.646,2.658-5.658,5.171-7.738,8.315c-2.288,3.458,0.382,7.06,2.786,9.455c37.558,37.425,75.116,74.85,112.673,112.276
					c3.619,3.606,7.239,7.214,10.858,10.82c6.362,6.34,12.362-1.868,16.611-6.137c8.902-8.939,17.804-17.88,26.706-26.82
					c3.418-3.433,6.835-6.865,10.253-10.298c3.136-3.149,5.355-6.688,2.446-11.053C289.011,231.739,282.945,235.24,285.456,239.009z
					"/>
			</g>
		</g>
		<g>
			<g>
				<path style="fill:#FFFFFF;" d="M150.645,155.629c1.889-1.896,3.778-3.792,5.668-5.688c1.346-1.351,1.35-3.6,0-4.95
					c-1.347-1.347-3.604-1.351-4.95,0c-1.889,1.896-3.778,3.792-5.668,5.688c-1.346,1.351-1.35,3.6,0,4.95
					C147.041,156.976,149.298,156.98,150.645,155.629L150.645,155.629z"/>
			</g>
		</g>
		<g>
			<g>
				<path style="fill:#FFFFFF;" d="M163.47,142.759c1.89-1.896,3.779-3.793,5.669-5.689c1.346-1.351,1.35-3.6,0-4.95
					c-1.347-1.346-3.604-1.351-4.95,0c-1.89,1.896-3.779,3.793-5.669,5.689c-1.346,1.351-1.35,3.6,0,4.95
					C159.866,144.105,162.124,144.11,163.47,142.759L163.47,142.759z"/>
			</g>
		</g>
		<g>
			<g>
				<path style="fill:#FFFFFF;" d="M137.705,168.616c1.889-1.896,3.778-3.792,5.667-5.688c1.346-1.351,1.35-3.6,0-4.95
					c-1.347-1.346-3.604-1.351-4.95,0c-1.889,1.896-3.778,3.792-5.667,5.688c-1.346,1.351-1.35,3.6,0,4.95
					C134.101,169.962,136.358,169.966,137.705,168.616L137.705,168.616z"/>
			</g>
		</g>
		<g>
			<g>
				<path style="fill:#FFFFFF;" d="M159.644,164.985c1.89-1.896,3.779-3.792,5.669-5.688c1.346-1.351,1.35-3.6,0-4.95
					c-1.347-1.347-3.604-1.351-4.95,0c-1.89,1.896-3.779,3.792-5.669,5.688c-1.346,1.351-1.35,3.6,0,4.95
					C156.04,166.332,158.297,166.336,159.644,164.985L159.644,164.985z"/>
			</g>
		</g>
		<g>
			<g>
				<path style="fill:#FFFFFF;" d="M172.469,152.115c1.889-1.896,3.779-3.792,5.668-5.688c1.346-1.351,1.35-3.6,0-4.95
					c-1.347-1.346-3.604-1.351-4.95,0c-1.889,1.896-3.779,3.792-5.668,5.688c-1.346,1.351-1.35,3.6,0,4.95
					C168.865,153.461,171.123,153.465,172.469,152.115L172.469,152.115z"/>
			</g>
		</g>
		<g>
			<g>
				<path style="fill:#FFFFFF;" d="M146.704,177.971c1.889-1.896,3.778-3.793,5.668-5.689c1.346-1.351,1.35-3.6,0-4.95
					c-1.347-1.346-3.604-1.351-4.95,0c-1.889,1.896-3.778,3.793-5.668,5.689c-1.346,1.351-1.35,3.6,0,4.95
					C143.1,179.317,145.357,179.321,146.704,177.971L146.704,177.971z"/>
			</g>
		</g>
		<g>
			<g>
				<path style="fill:#FFFFFF;" d="M151.84,138.811c2.146-2.155,4.293-4.31,6.44-6.465c3.188-3.201-1.761-8.151-4.95-4.95
					c-2.146,2.155-4.293,4.31-6.44,6.465C143.702,137.061,148.651,142.011,151.84,138.811L151.84,138.811z"/>
			</g>
		</g>
		<g>
			<g>
				<path style="fill:#FFFFFF;" d="M157.918,190.71c2.224-2.232,4.449-4.465,6.673-6.698c3.188-3.2-1.761-8.15-4.95-4.95
					c-2.224,2.233-4.449,4.465-6.673,6.699C149.78,188.961,154.729,193.911,157.918,190.71L157.918,190.71z"/>
			</g>
		</g>
		<g>
			<g>
				<path style="fill:#FFFFFF;" d="M205.006,209.267c1.89-1.896,3.779-3.791,5.668-5.688c1.347-1.351,1.351-3.6,0-4.949
					c-1.347-1.347-3.604-1.351-4.949,0c-1.89,1.896-3.779,3.791-5.668,5.688c-1.347,1.351-1.351,3.6,0,4.949
					C201.403,210.613,203.66,210.617,205.006,209.267L205.006,209.267z"/>
			</g>
		</g>
		<g>
			<g>
				<path style="fill:#FFFFFF;" d="M217.832,196.396c1.89-1.896,3.779-3.793,5.668-5.689c1.346-1.351,1.351-3.6,0-4.949
					c-1.347-1.347-3.604-1.352-4.949,0c-1.89,1.896-3.779,3.793-5.668,5.689c-1.346,1.351-1.351,3.6,0,4.949
					C214.229,197.743,216.486,197.748,217.832,196.396L217.832,196.396z"/>
			</g>
		</g>
		<g>
			<g>
				<path style="fill:#FFFFFF;" d="M192.066,222.253c1.89-1.896,3.779-3.792,5.668-5.688c1.347-1.351,1.351-3.6,0-4.949
					c-1.347-1.347-3.604-1.352-4.949,0c-1.89,1.896-3.779,3.792-5.668,5.688c-1.347,1.351-1.351,3.6,0,4.949
					C188.464,223.6,190.721,223.604,192.066,222.253L192.066,222.253z"/>
			</g>
		</g>
		<g>
			<g>
				<path style="fill:#FFFFFF;" d="M215.48,220.092c1.89-1.896,3.778-3.793,5.667-5.689c1.346-1.351,1.351-3.599,0-4.949
					c-1.346-1.347-3.604-1.352-4.949,0c-1.89,1.896-3.778,3.793-5.667,5.689c-1.346,1.351-1.351,3.599,0,4.949
					C211.877,221.438,214.135,221.443,215.48,220.092L215.48,220.092z"/>
			</g>
		</g>
		<g>
			<g>
				<path style="fill:#FFFFFF;" d="M228.305,207.22c1.89-1.896,3.779-3.791,5.669-5.688c1.347-1.351,1.351-3.6,0-4.949
					c-1.347-1.347-3.604-1.351-4.949,0c-1.89,1.896-3.779,3.791-5.669,5.688c-1.347,1.351-1.351,3.6,0,4.949
					C224.702,208.566,226.959,208.57,228.305,207.22L228.305,207.22z"/>
			</g>
		</g>
		<g>
			<g>
				<path style="fill:#FFFFFF;" d="M202.539,233.077c1.89-1.896,3.779-3.793,5.669-5.689c1.347-1.351,1.351-3.6,0-4.949
					c-1.347-1.347-3.604-1.352-4.949,0c-1.89,1.896-3.779,3.793-5.669,5.689c-1.347,1.351-1.351,3.6,0,4.949
					C198.937,234.424,201.193,234.429,202.539,233.077L202.539,233.077z"/>
			</g>
		</g>
		<g>
			<g>
				<path style="fill:#FFFFFF;" d="M226.609,231.067c1.891-1.896,3.78-3.792,5.67-5.688c1.347-1.351,1.351-3.6,0-4.949
					c-1.347-1.347-3.604-1.351-4.949,0c-1.891,1.896-3.78,3.792-5.67,5.688c-1.347,1.351-1.351,3.6,0,4.949
					C223.007,232.414,225.264,232.418,226.609,231.067L226.609,231.067z"/>
			</g>
		</g>
		<g>
			<g>
				<path style="fill:#FFFFFF;" d="M239.435,218.196c1.89-1.896,3.779-3.792,5.669-5.688c1.347-1.351,1.351-3.6,0-4.949
					c-1.347-1.347-3.604-1.351-4.949,0c-1.89,1.896-3.779,3.792-5.669,5.688c-1.347,1.351-1.351,3.6,0,4.949
					C235.832,219.543,238.089,219.547,239.435,218.196L239.435,218.196z"/>
			</g>
		</g>
		<g>
			<g>
				<path style="fill:#FFFFFF;" d="M213.671,244.055c1.89-1.896,3.778-3.793,5.667-5.689c1.346-1.351,1.351-3.599,0-4.949
					c-1.346-1.347-3.604-1.352-4.949,0c-1.89,1.896-3.778,3.793-5.667,5.689c-1.346,1.351-1.351,3.599,0,4.949
					C210.067,245.401,212.325,245.406,213.671,244.055L213.671,244.055z"/>
			</g>
		</g>
		<g>
			<g>
				<path style="fill:#FFFFFF;" d="M210.87,187.464c1.396-1.4,2.791-2.801,4.187-4.201c1.347-1.351,1.351-3.6,0-4.95
					c-1.347-1.346-3.604-1.351-4.949,0c-1.396,1.401-2.791,2.802-4.187,4.202c-1.347,1.351-1.351,3.6,0,4.949
					C207.268,188.811,209.524,188.815,210.87,187.464L210.87,187.464z"/>
			</g>
		</g>
		<g>
			<g>
				<path style="fill:#FFFFFF;" d="M235.014,263.391c0.488-0.489,0.976-0.979,1.463-1.469c1.346-1.351,1.351-3.599,0-4.949
					c-1.346-1.347-3.604-1.352-4.949,0c-0.488,0.489-0.976,0.979-1.463,1.469c-1.346,1.351-1.351,3.599,0,4.949
					C231.41,264.737,233.668,264.742,235.014,263.391L235.014,263.391z"/>
			</g>
		</g>
		<g>
			<g>
				<path style="fill:#FFFFFF;" d="M244.161,254.198c0.488-0.489,0.977-0.979,1.464-1.469c1.347-1.351,1.351-3.6,0-4.949
					c-1.347-1.347-3.604-1.351-4.949,0c-0.488,0.489-0.977,0.979-1.464,1.469c-1.347,1.351-1.351,3.6,0,4.949
					C240.559,255.545,242.815,255.549,244.161,254.198L244.161,254.198z"/>
			</g>
		</g>
		<g>
			<g>
				<path style="fill:#FFFFFF;" d="M253.432,244.887c0.487-0.488,0.975-0.978,1.462-1.467c1.347-1.351,1.351-3.6,0-4.949
					c-1.347-1.347-3.604-1.351-4.949,0c-0.487,0.488-0.975,0.978-1.462,1.467c-1.347,1.351-1.351,3.6,0,4.949
					C249.829,246.233,252.086,246.237,253.432,244.887L253.432,244.887z"/>
			</g>
		</g>
		<g>
			<g>
				<path style="fill:#FFFFFF;" d="M262.631,235.639c0.488-0.489,0.976-0.979,1.463-1.469c1.346-1.351,1.351-3.599,0-4.949
					c-1.346-1.347-3.604-1.352-4.949,0c-0.488,0.489-0.976,0.979-1.463,1.469c-1.346,1.351-1.351,3.599,0,4.949
					C259.027,236.985,261.285,236.99,262.631,235.639L262.631,235.639z"/>
			</g>
		</g>
		<g>
			<g>
				<path style="fill:#FFFFFF;" d="M237.508,242.494c1.89-1.896,3.778-3.793,5.667-5.689c1.346-1.351,1.351-3.599,0-4.949
					c-1.346-1.347-3.604-1.352-4.949,0c-1.89,1.896-3.778,3.793-5.667,5.689c-1.346,1.351-1.351,3.599,0,4.949
					C233.904,243.841,236.162,243.846,237.508,242.494L237.508,242.494z"/>
			</g>
		</g>
		<g>
			<g>
				<path style="fill:#FFFFFF;" d="M171.768,181.398c1.079-1.951,2.153-4.122,3.664-5.774c1.451-1.586,3.905-2.638,5.774-3.665
					c-0.504,0-1.009,0-1.514,0c-0.56-0.27-0.53-0.636-0.259-0.053c0.211,0.456,0.38,0.933,0.561,1.401
					c0.44,1.14,0.85,2.292,1.235,3.452c0.118,0.358,0.229,0.719,0.318,1.085c-0.218-0.896,0.793-1.664-0.013-0.857
					c-0.79,0.79-1.579,1.579-2.369,2.369c-0.719,0.719-1.438,1.438-2.157,2.157c-0.199,0.199-0.397,0.397-0.596,0.596
					c0.797-0.797,1.779-0.189,0.499-0.58c-1.134-0.346-2.248-0.765-3.358-1.179c-0.538-0.2-1.072-0.411-1.605-0.626
					c-0.688-0.278-0.516-0.539-0.18,0.159c-0.839-1.743-3.425-0.221-2.591,1.514c0.597,1.24,3.346,1.764,4.482,2.181
					c1.217,0.446,3.699,1.828,4.875,0.652c1.364-1.363,2.728-2.728,4.091-4.092c1.11-1.109,2.176-1.836,1.697-3.534
					c-0.567-2.015-1.346-4.021-2.181-5.94c-0.788-1.812-1.988-1.564-3.485-0.715c-2,1.135-4.364,2.3-5.831,4.122
					c-1.428,1.772-2.549,3.827-3.648,5.813C168.24,181.578,170.831,183.092,171.768,181.398z"/>
			</g>
		</g>
		<g>
			<g>
				<path style="fill:#FFFFFF;" d="M197.544,188.298c-1.08,1.95-2.154,4.121-3.665,5.773c-1.45,1.586-3.904,2.638-5.772,3.665
					c0.505,0,1.009,0,1.514,0c0.559,0.269,0.53,0.636,0.259,0.052c-0.211-0.455-0.38-0.933-0.561-1.4
					c-0.44-1.141-0.851-2.293-1.235-3.453c-0.118-0.358-0.229-0.719-0.318-1.085c0.218,0.896-0.793,1.663,0.013,0.857
					c0.79-0.789,1.579-1.579,2.369-2.368c0.72-0.72,1.438-1.438,2.157-2.157c0.199-0.199,0.397-0.397,0.596-0.596
					c-0.797,0.797-1.779,0.189-0.499,0.579c1.134,0.346,2.248,0.765,3.357,1.179c0.538,0.201,1.072,0.411,1.605,0.626
					c0.688,0.278,0.516,0.54,0.181-0.158c0.837,1.743,3.424,0.221,2.59-1.514c-0.596-1.24-3.346-1.764-4.481-2.181
					c-1.218-0.446-3.699-1.828-4.874-0.652c-1.364,1.363-2.729,2.728-4.092,4.091c-1.11,1.109-2.176,1.836-1.697,3.534
					c0.568,2.016,1.346,4.022,2.181,5.94c0.789,1.812,1.989,1.564,3.485,0.716c2-1.136,4.363-2.302,5.83-4.122
					c1.429-1.771,2.55-3.826,3.648-5.813C201.071,188.118,198.48,186.604,197.544,188.298z"/>
			</g>
		</g>
		<g>
			<g>
				<path style="fill:#FFFFFF;" d="M180.318,198.318c-1.951-1.079-4.123-2.153-5.775-3.664c-1.586-1.451-2.638-3.904-3.664-5.773
					c0,0.505,0,1.009,0,1.514c-0.269,0.559-0.637,0.53-0.053,0.259c0.456-0.211,0.933-0.38,1.401-0.561
					c1.14-0.439,2.292-0.85,3.452-1.234c0.358-0.119,0.718-0.229,1.085-0.318c-0.895,0.218-1.664-0.793-0.857,0.013
					c0.79,0.789,1.58,1.579,2.369,2.368c0.719,0.719,1.438,1.438,2.158,2.157c0.199,0.198,0.397,0.396,0.596,0.595
					c-0.797-0.797-0.19-1.778-0.58-0.498c-0.345,1.135-0.765,2.248-1.179,3.358c-0.201,0.538-0.411,1.072-0.626,1.604
					c-0.279,0.69-0.538,0.513,0.158,0.181c-1.745,0.833-0.222,3.42,1.515,2.59c1.239-0.592,1.765-3.348,2.18-4.48
					c0.447-1.217,1.829-3.701,0.653-4.876c-1.364-1.363-2.728-2.728-4.092-4.091c-1.11-1.109-1.836-2.175-3.535-1.696
					c-2.015,0.567-4.021,1.346-5.939,2.18c-1.812,0.789-1.564,1.989-0.715,3.485c1.135,2,2.3,4.364,4.121,5.831
					c1.772,1.429,3.827,2.549,5.813,3.647C180.498,201.846,182.011,199.254,180.318,198.318z"/>
			</g>
		</g>
		<g>
			<g>
				<path style="fill:#FFFFFF;" d="M188.688,171.071c1.95,1.08,4.12,2.155,5.773,3.665c1.587,1.45,2.639,3.906,3.665,5.774
					c0-0.504,0-1.009,0-1.514c0.267-0.558,0.638-0.531,0.053-0.259c-0.455,0.211-0.934,0.38-1.401,0.561
					c-1.14,0.44-2.293,0.85-3.452,1.235c-0.358,0.119-0.719,0.229-1.086,0.318c0.896-0.218,1.663,0.793,0.857-0.013
					c-0.789-0.79-1.579-1.579-2.369-2.369c-0.719-0.719-1.438-1.438-2.157-2.157c-0.198-0.199-0.397-0.397-0.596-0.596
					c0.797,0.797,0.19,1.779,0.58,0.499c0.346-1.134,0.766-2.248,1.18-3.358c0.2-0.539,0.41-1.073,0.626-1.605
					c0.277-0.689,0.539-0.516-0.159-0.181c1.743-0.838,0.221-3.424-1.514-2.591c-1.24,0.596-1.764,3.347-2.181,4.482
					c-0.446,1.217-1.829,3.7-0.653,4.875c1.364,1.364,2.728,2.728,4.092,4.092c1.11,1.109,1.836,2.175,3.535,1.696
					c2.015-0.567,4.021-1.346,5.94-2.181c1.811-0.788,1.563-1.988,0.715-3.484c-1.135-2-2.301-4.365-4.122-5.832
					c-1.772-1.427-3.826-2.549-5.813-3.649C188.509,167.543,186.996,170.134,188.688,171.071z"/>
			</g>
		</g>
		<g>
			<g>
				<path style="fill:#FFFFFF;" d="M184.107,164.532c2.225-2.233,4.449-4.465,6.674-6.698c3.188-3.2-1.761-8.15-4.949-4.95
					c-2.225,2.233-4.449,4.465-6.674,6.698C175.969,162.782,180.918,167.732,184.107,164.532L184.107,164.532z"/>
			</g>
		</g>
	</g>
</g>
<g id="Ebene_1">
</g>
</svg>
