<?xml version="1.0" encoding="iso-8859-1"?>
<!-- Generator: Adobe Illustrator 16.0.0, SVG Export Plug-In . SVG Version: 6.00 Build 0)  -->
<!DOCTYPE svg PUBLIC "-//W3C//DTD SVG 1.1 Tiny//EN" "http://www.w3.org/Graphics/SVG/1.1/DTD/svg11-tiny.dtd">
<svg version="1.1" baseProfile="tiny" id="it_x5F_radio"
	 xmlns="http://www.w3.org/2000/svg" xmlns:xlink="http://www.w3.org/1999/xlink" x="0px" y="0px" width="361px" height="361px"
	 viewBox="0 0 361 361" xml:space="preserve">
<path fill="none" stroke="#FFFFFF" stroke-width="10" stroke-miterlimit="10" d="M253.406,283.351c0,3.313-2.687,6-6,6H84.36
	c-3.313,0-6-2.687-6-6V187.51c0-3.313,2.687-6,6-6h163.045c3.313,0,6,2.687,6,6V283.351z"/>
<g>
	<path fill="#FFFFFF" d="M229.112,182.609c13.893-34.818,27.785-69.636,41.678-104.454c2.392-5.995-7.283-8.572-9.643-2.658
		c-13.893,34.818-27.785,69.636-41.678,104.454C217.078,185.946,226.753,188.523,229.112,182.609L229.112,182.609z"/>
</g>
<g>
	<path fill="#FFFFFF" d="M172.413,227.421c17.279,0,34.558,0,51.837,0c6.449,0,6.449-10,0-10c-17.279,0-34.558,0-51.837,0
		C165.964,217.421,165.964,227.421,172.413,227.421L172.413,227.421z"/>
</g>
<g>
	<path fill="#FFFFFF" d="M161.122,241.421c24.399,0,48.797,0,73.196,0c6.449,0,6.449-10,0-10c-24.399,0-48.797,0-73.196,0
		C154.673,231.421,154.673,241.421,161.122,241.421L161.122,241.421z"/>
</g>
<g>
	<path fill="#FFFFFF" d="M161.122,255.421c24.399,0,48.797,0,73.196,0c6.449,0,6.449-10,0-10c-24.399,0-48.797,0-73.196,0
		C154.673,245.421,154.673,255.421,161.122,255.421L161.122,255.421z"/>
</g>
<g>
	<path fill="#FFFFFF" d="M172.413,269.421c17.279,0,34.558,0,51.837,0c6.449,0,6.449-10,0-10c-17.279,0-34.558,0-51.837,0
		C165.964,259.421,165.964,269.421,172.413,269.421L172.413,269.421z"/>
</g>
<path fill="#FFFFFF" stroke="#FFFFFF" stroke-miterlimit="10" d="M110.446,177.312c0,2.517-2.041,4.558-4.558,4.558H95.729
	c-2.518,0-4.559-2.041-4.559-4.558l0,0c0-2.518,2.041-4.559,4.559-4.559h10.159C108.405,172.753,110.446,174.794,110.446,177.312
	L110.446,177.312z"/>
<path fill="#FFFFFF" stroke="#FFFFFF" stroke-miterlimit="10" d="M139.446,177.312c0,2.517-2.041,4.558-4.558,4.558h-10.159
	c-2.518,0-4.559-2.041-4.559-4.558l0,0c0-2.518,2.041-4.559,4.559-4.559h10.159C137.405,172.753,139.446,174.794,139.446,177.312
	L139.446,177.312z"/>
<g>
	<path fill="#FFFFFF" d="M95.965,202.346c45.906,0,91.813,0,137.719,0c0.199,0,0.399,0,0.598,0c6.449,0,6.449-10,0-10
		c-45.906,0-91.813,0-137.719,0c-0.199,0-0.399,0-0.598,0C89.516,192.346,89.516,202.346,95.965,202.346L95.965,202.346z"/>
</g>
</svg>
