<?xml version="1.0" encoding="iso-8859-1"?>
<!-- Generator: Adobe Illustrator 16.0.0, SVG Export Plug-In . SVG Version: 6.00 Build 0)  -->
<!DOCTYPE svg PUBLIC "-//W3C//DTD SVG 1.1//EN" "http://www.w3.org/Graphics/SVG/1.1/DTD/svg11.dtd">
<svg version="1.1" xmlns="http://www.w3.org/2000/svg" xmlns:xlink="http://www.w3.org/1999/xlink" x="0px" y="0px" width="361px"
	 height="361px" viewBox="0 0 361 361" style="enable-background:new 0 0 361 361;" xml:space="preserve">
<g id="it_x5F_satellite_x5F_dish">
	<g>
		<g>
			<path style="fill:#FFFFFF;" d="M232.672,283.517c-37.676-22.906-75.352-45.812-113.028-68.718
				c-5.525-3.359-10.547,5.291-5.047,8.635c37.676,22.906,75.352,45.812,113.028,68.718
				C233.15,295.511,238.172,286.86,232.672,283.517L232.672,283.517z"/>
		</g>
	</g>
	<path style="fill:#FFFFFF;" d="M100.042,236.336c-2.37,0.125-4.392-1.693-4.516-4.063l-1.743-33.035
		c-0.125-2.369,1.694-4.391,4.063-4.516l5.797-0.306c2.369-0.124,4.391,1.694,4.515,4.063l1.743,33.035
		c0.124,2.369-1.695,4.391-4.064,4.516L100.042,236.336z"/>
	<path style="fill:#FFFFFF;" d="M129.315,206.377c0.104,1.975-1.413,3.659-3.386,3.764l-18.071,0.952
		c-1.974,0.104-3.659-1.411-3.764-3.386l-0.254-4.832c-0.105-1.973,1.412-3.658,3.385-3.761l18.073-0.953
		c1.974-0.104,3.658,1.411,3.762,3.384L129.315,206.377z"/>
	<path style="fill:#FFFFFF;" d="M114.031,226.783c-1.726,0.092-3.221-1.659-3.339-3.91l-1.088-20.608
		c-0.119-2.251,1.184-4.15,2.908-4.241l4.223-0.223c1.726-0.092,3.222,1.66,3.34,3.911l1.086,20.608
		c0.119,2.252-1.184,4.149-2.909,4.24L114.031,226.783z"/>
	<g>
		<g>
			<path style="fill:#FFFFFF;" d="M227.481,175.478c-5.576,26.788-10.442,54.362-10.332,81.816
				c0.044,11.075,0.339,34.441,15.61,35.989c14.386,1.458,23.058-20.794,27.323-30.916c10.841-25.729,17.409-53.301,22.927-80.591
				c5.115-25.304,9.449-51.426,9.14-77.322c-0.13-10.913-0.713-33.241-15.597-34.75c-13.649-1.384-22.062,18.85-26.314,28.548
				C239.467,122.813,233.003,149.321,227.481,175.478c-1.328,6.29,8.312,8.967,9.643,2.658c5.581-26.44,11.979-53.546,23.266-78.224
				c3.082-6.739,6.646-14.084,12.378-18.99c2.946-2.522,4.23-1.583,6.087,2.001c3.416,6.594,3.225,15.583,3.31,22.771
				c0.147,12.353-1.099,24.728-2.655,36.966c-3.837,30.167-10.428,60.297-19.228,89.398c-4.48,14.814-9.535,30.131-17.963,43.238
				c-1.837,2.855-5.024,6.882-7.516,7.807c-1.073,0.398-1.581,0.231-1.81,0.12c-1.176-0.575-1.647-1.445-2.535-3.158
				c-2.227-4.298-2.631-9.812-2.998-14.543c-0.598-7.7-0.316-15.469,0.157-23.166c1.331-21.604,5.102-43.058,9.507-64.221
				C238.434,171.844,228.795,169.166,227.481,175.478z"/>
		</g>
	</g>
</g>
<g id="Ebene_1">
</g>
</svg>
