<?xml version="1.0" encoding="iso-8859-1"?>
<!-- Generator: Adobe Illustrator 16.0.0, SVG Export Plug-In . SVG Version: 6.00 Build 0)  -->
<!DOCTYPE svg PUBLIC "-//W3C//DTD SVG 1.1//EN" "http://www.w3.org/Graphics/SVG/1.1/DTD/svg11.dtd">
<svg version="1.1" xmlns="http://www.w3.org/2000/svg" xmlns:xlink="http://www.w3.org/1999/xlink" x="0px" y="0px" width="361px"
	 height="361px" viewBox="0 0 361 361" style="enable-background:new 0 0 361 361;" xml:space="preserve">
<g id="it_x5F_satellite_x5F_dish_x5F_heating">
	<g id="LNB_x5F_Arm">
		<g>
			<g>
				<path style="fill:#FFFFFF;" d="M232.672,283.517c-37.676-22.906-75.352-45.812-113.028-68.718
					c-5.525-3.359-10.547,5.291-5.047,8.635c37.676,22.906,75.352,45.812,113.028,68.718
					C233.15,295.511,238.172,286.86,232.672,283.517L232.672,283.517z"/>
			</g>
		</g>
		<path style="fill:#FFFFFF;" d="M100.042,236.336c-2.37,0.125-4.392-1.693-4.516-4.063l-1.743-33.035
			c-0.125-2.369,1.694-4.391,4.063-4.516l5.797-0.306c2.369-0.124,4.391,1.694,4.515,4.063l1.743,33.035
			c0.124,2.369-1.695,4.391-4.064,4.516L100.042,236.336z"/>
		<path style="fill:#FFFFFF;" d="M129.315,206.377c0.104,1.975-1.413,3.659-3.386,3.764l-18.071,0.952
			c-1.974,0.104-3.659-1.411-3.764-3.386l-0.254-4.832c-0.105-1.973,1.412-3.658,3.385-3.761l18.073-0.953
			c1.974-0.104,3.658,1.411,3.762,3.384L129.315,206.377z"/>
		<path style="fill:#FFFFFF;" d="M114.031,226.783c-1.726,0.092-3.221-1.659-3.339-3.91l-1.088-20.608
			c-0.119-2.251,1.184-4.15,2.908-4.241l4.223-0.223c1.726-0.092,3.222,1.66,3.34,3.911l1.086,20.608
			c0.119,2.252-1.184,4.149-2.909,4.24L114.031,226.783z"/>
	</g>
	<g id="Schuessel">
		<g>
			<path style="fill:#FFFFFF;" d="M227.481,175.478c-5.576,26.788-10.442,54.362-10.332,81.816
				c0.044,11.075,0.339,34.441,15.61,35.989c14.386,1.458,23.058-20.794,27.323-30.916c10.841-25.729,17.409-53.301,22.927-80.591
				c5.115-25.304,9.449-51.426,9.14-77.322c-0.13-10.913-0.713-33.241-15.597-34.75c-13.649-1.384-22.062,18.85-26.314,28.548
				C239.467,122.813,233.003,149.321,227.481,175.478c-1.328,6.29,8.312,8.967,9.643,2.658c5.581-26.44,11.979-53.546,23.266-78.224
				c3.082-6.739,6.646-14.084,12.378-18.99c2.946-2.522,4.23-1.583,6.087,2.001c3.416,6.594,3.225,15.583,3.31,22.771
				c0.147,12.353-1.099,24.728-2.655,36.966c-3.837,30.167-10.428,60.297-19.228,89.398c-4.48,14.814-9.535,30.131-17.963,43.238
				c-1.837,2.855-5.024,6.882-7.516,7.807c-1.073,0.398-1.581,0.231-1.81,0.12c-1.176-0.575-1.647-1.445-2.535-3.158
				c-2.227-4.298-2.631-9.812-2.998-14.543c-0.598-7.7-0.316-15.469,0.157-23.166c1.331-21.604,5.102-43.058,9.507-64.221
				C238.434,171.844,228.795,169.166,227.481,175.478z"/>
		</g>
	</g>
	<g id="Heizung">
		<g>
			<g>
				<path style="fill:#FFFFFF;" d="M74.584,180.667c21.5,0,43,0,64.5,0c6.449,0,6.449-10,0-10c-21.5,0-43,0-64.5,0
					C68.136,170.667,68.136,180.667,74.584,180.667L74.584,180.667z"/>
			</g>
		</g>
		<g>
			<g>
				<path style="fill:#FFFFFF;" d="M106.959,154.598c1.5-4.667,3-9.333,4.5-14c1.385-4.31-5.375-6.141-6.75-1.861
					c-1.5,4.667-3,9.333-4.5,14C98.824,157.046,105.584,158.877,106.959,154.598L106.959,154.598z"/>
			</g>
		</g>
		<g>
			<g>
				<path style="fill:#FFFFFF;" d="M110.959,136.236c-1.333-5.833-2.667-11.667-4-17.5c-1.006-4.4-7.754-2.534-6.75,1.861
					c1.333,5.833,2.667,11.667,4,17.5C105.215,142.498,111.964,140.631,110.959,136.236L110.959,136.236z"/>
			</g>
		</g>
		<g>
			<g>
				<path style="fill:#FFFFFF;" d="M106.959,120.598c1.5-4.667,3-9.333,4.5-14c1.385-4.31-5.375-6.141-6.75-1.861
					c-1.5,4.667-3,9.333-4.5,14C98.824,123.046,105.584,124.877,106.959,120.598L106.959,120.598z"/>
			</g>
		</g>
		<g>
			<g>
				<path style="fill:#FFFFFF;" d="M110.959,102.236c-1.333-5.833-2.667-11.667-4-17.5c-1.006-4.4-7.754-2.534-6.75,1.861
					c1.333,5.833,2.667,11.667,4,17.5C105.215,108.498,111.964,106.631,110.959,102.236L110.959,102.236z"/>
			</g>
		</g>
		<g>
			<g>
				<path style="fill:#FFFFFF;" d="M106.913,86.598c1.333-4.148,2.667-8.296,4-12.444c1.385-4.31-5.375-6.141-6.75-1.861
					c-1.333,4.148-2.667,8.296-4,12.444C98.778,89.046,105.538,90.877,106.913,86.598L106.913,86.598z"/>
			</g>
		</g>
		<g>
			<g>
				<path style="fill:#FFFFFF;" d="M131.459,161.736c-1.5-4.667-3-9.333-4.5-14c-1.375-4.279-8.135-2.449-6.75,1.861
					c1.5,4.667,3,9.333,4.5,14C126.085,167.877,132.845,166.046,131.459,161.736L131.459,161.736z"/>
			</g>
		</g>
		<g>
			<g>
				<path style="fill:#FFFFFF;" d="M127.459,147.098c1.333-5.833,2.667-11.667,4-17.5c1.004-4.395-5.744-6.261-6.75-1.861
					c-1.333,5.833-2.667,11.667-4,17.5C119.705,149.631,126.454,151.498,127.459,147.098L127.459,147.098z"/>
			</g>
		</g>
		<g>
			<g>
				<path style="fill:#FFFFFF;" d="M131.459,127.736c-1.5-4.667-3-9.333-4.5-14c-1.375-4.279-8.135-2.449-6.75,1.861
					c1.5,4.667,3,9.333,4.5,14C126.085,133.877,132.845,132.046,131.459,127.736L131.459,127.736z"/>
			</g>
		</g>
		<g>
			<g>
				<path style="fill:#FFFFFF;" d="M127.459,113.098c1.333-5.833,2.667-11.667,4-17.5c1.004-4.395-5.744-6.261-6.75-1.861
					c-1.333,5.833-2.667,11.667-4,17.5C119.705,115.631,126.454,117.498,127.459,113.098L127.459,113.098z"/>
			</g>
		</g>
		<g>
			<g>
				<path style="fill:#FFFFFF;" d="M131.459,93.736c-1.5-4.667-3-9.333-4.5-14c-1.375-4.279-8.135-2.449-6.75,1.861
					c1.5,4.667,3,9.333,4.5,14C126.085,99.877,132.845,98.046,131.459,93.736L131.459,93.736z"/>
			</g>
		</g>
		<g>
			<g>
				<path style="fill:#FFFFFF;" d="M87.959,163.9c1.5-4.667,3-9.333,4.5-14c1.385-4.31-5.375-6.141-6.75-1.861
					c-1.5,4.667-3,9.333-4.5,14C79.824,166.349,86.584,168.18,87.959,163.9L87.959,163.9z"/>
			</g>
		</g>
		<g>
			<g>
				<path style="fill:#FFFFFF;" d="M91.959,145.539c-1.333-5.833-2.667-11.667-4-17.5c-1.006-4.4-7.754-2.534-6.75,1.861
					c1.333,5.833,2.667,11.667,4,17.5C86.215,151.8,92.964,149.934,91.959,145.539L91.959,145.539z"/>
			</g>
		</g>
		<g>
			<g>
				<path style="fill:#FFFFFF;" d="M87.959,129.9c1.5-4.667,3-9.333,4.5-14c1.385-4.31-5.375-6.141-6.75-1.861
					c-1.5,4.667-3,9.333-4.5,14C79.824,132.349,86.584,134.18,87.959,129.9L87.959,129.9z"/>
			</g>
		</g>
		<g>
			<g>
				<path style="fill:#FFFFFF;" d="M91.959,111.539c-1.333-5.833-2.667-11.667-4-17.5c-1.006-4.4-7.754-2.534-6.75,1.861
					c1.333,5.833,2.667,11.667,4,17.5C86.215,117.8,92.964,115.934,91.959,111.539L91.959,111.539z"/>
			</g>
		</g>
		<g>
			<g>
				<path style="fill:#FFFFFF;" d="M87.959,95.9c1.5-4.667,3-9.333,4.5-14c1.385-4.31-5.375-6.141-6.75-1.861
					c-1.5,4.667-3,9.333-4.5,14C79.824,98.349,86.584,100.18,87.959,95.9L87.959,95.9z"/>
			</g>
		</g>
	</g>
</g>
<g id="Ebene_1">
</g>
</svg>
