<?xml version="1.0" encoding="iso-8859-1"?>
<!-- Generator: Adobe Illustrator 16.0.0, SVG Export Plug-In . SVG Version: 6.00 Build 0)  -->
<!DOCTYPE svg PUBLIC "-//W3C//DTD SVG 1.1 Tiny//EN" "http://www.w3.org/Graphics/SVG/1.1/DTD/svg11-tiny.dtd">
<svg version="1.1" baseProfile="tiny" id="it_x5F_smartphone"
	 xmlns="http://www.w3.org/2000/svg" xmlns:xlink="http://www.w3.org/1999/xlink" x="0px" y="0px" width="361px" height="361px"
	 viewBox="0 0 361 361" xml:space="preserve">
<path fill="none" stroke="#FFFFFF" stroke-width="10" stroke-miterlimit="10" d="M235.513,282.517c0,3.513-2.621,6.362-5.853,6.362
	H124.966c-3.232,0-5.853-2.849-5.853-6.362V84.574c0-3.513,2.621-6.362,5.853-6.362H229.66c3.232,0,5.853,2.849,5.853,6.362V282.517
	z"/>
<path fill="#FFFFFF" stroke="#FFFFFF" stroke-width="10" stroke-miterlimit="10" d="M234.313,107.878c0,3.313-2.418,6-5.4,6h-102
	c-2.982,0-5.4-2.687-5.4-6V84.545c0-3.313,2.417-6,5.4-6h102c2.982,0,5.4,2.687,5.4,6V107.878z M206.713,95.212
	c0-3.313-2.418-6-5.4-6h-45.6c-2.982,0-5.4,2.687-5.4,6v2.667c0,3.313,2.418,6,5.4,6h45.6c2.982,0,5.4-2.687,5.4-6V95.212z"/>
<path fill="#FFFFFF" d="M230.219,250.956H123.631c-3.117,0-5.643,2.808-5.643,6.27v24.383c0,3.463,2.526,6.27,5.643,6.27h106.588
	c3.116,0,5.643-2.807,5.643-6.27v-24.383C235.862,253.763,233.335,250.956,230.219,250.956z M185.231,273.485
	c0,1.426-1.156,2.583-2.583,2.583h-8.667c-1.426,0-2.583-1.156-2.583-2.583v-8.667c0-1.426,1.156-2.583,2.583-2.583h8.667
	c1.426,0,2.583,1.156,2.583,2.583V273.485z"/>
</svg>
