<?xml version="1.0" encoding="iso-8859-1"?>
<!-- Generator: Adobe Illustrator 16.0.0, SVG Export Plug-In . SVG Version: 6.00 Build 0)  -->
<!DOCTYPE svg PUBLIC "-//W3C//DTD SVG 1.1//EN" "http://www.w3.org/Graphics/SVG/1.1/DTD/svg11.dtd">
<svg version="1.1" xmlns="http://www.w3.org/2000/svg" xmlns:xlink="http://www.w3.org/1999/xlink" x="0px" y="0px" width="361px"
	 height="361px" viewBox="0 0 361 361" style="enable-background:new 0 0 361 361;" xml:space="preserve">
<g id="it_x5F_television">
	<path style="fill:none;stroke:#FFFFFF;stroke-width:10;stroke-miterlimit:10;" d="M287.333,231.578c0,3.733-3.026,6.76-6.759,6.76
		H82.333c-3.732,0-6.758-3.026-6.758-6.76V105.425c0-3.732,3.026-6.758,6.758-6.758h198.241c3.732,0,6.759,3.026,6.759,6.758
		V231.578z"/>
	<path style="fill:#FFFFFF;stroke:#FFFFFF;stroke-width:10;stroke-miterlimit:10;" d="M286.333,231.424
		c0,1.791-2.745,3.243-6.132,3.243H81.964c-3.386,0-6.131-1.452-6.131-3.243v-3.514c0-1.791,2.746-3.243,6.131-3.243h198.237
		c3.387,0,6.132,1.452,6.132,3.243V231.424z"/>
	<path style="fill:#FFFFFF;stroke:#FFFFFF;stroke-width:10;stroke-miterlimit:10;" d="M186.833,256.667c0,3.313-2.687,6-6,6h-0.5
		c-3.313,0-6-2.687-6-6v-19c0-3.313,2.687-6,6-6h0.5c3.313,0,6,2.687,6,6V256.667z"/>
	<g>
		<g>
			<path style="fill:#FFFFFF;" d="M111.333,268.167c46.194,0,92.388,0,138.581,0c0.307,0,0.612,0,0.919,0c6.448,0,6.448-10,0-10
				c-46.193,0-92.387,0-138.581,0c-0.306,0-0.613,0-0.919,0C104.884,258.167,104.884,268.167,111.333,268.167L111.333,268.167z"/>
		</g>
	</g>
</g>
<g id="Ebene_1">
</g>
</svg>
