<?xml version="1.0" encoding="iso-8859-1"?>
<!-- Generator: Adobe Illustrator 16.0.0, SVG Export Plug-In . SVG Version: 6.00 Build 0)  -->
<!DOCTYPE svg PUBLIC "-//W3C//DTD SVG 1.1 Tiny//EN" "http://www.w3.org/Graphics/SVG/1.1/DTD/svg11-tiny.dtd">
<svg version="1.1" baseProfile="tiny" id="it_x5F_telephone"
	 xmlns="http://www.w3.org/2000/svg" xmlns:xlink="http://www.w3.org/1999/xlink" x="0px" y="0px" width="361px" height="361px"
	 viewBox="0 0 361 361" xml:space="preserve">
<path fill="none" stroke="#FFFFFF" stroke-width="10" stroke-miterlimit="10" d="M245.837,268.447c0,3.068-2.706,5.556-6.043,5.556
	H118.943c-3.336,0-6.042-2.487-6.042-5.556v-91.348c0-3.066,2.706-5.554,6.042-5.554h120.852c3.337,0,6.043,2.488,6.043,5.554
	V268.447z"/>
<g>
	<path fill="#FFFFFF" d="M211.826,195.048c0,18.729,0,37.458,0,56.187c0,6.449,10,6.449,10,0c0-18.729,0-37.458,0-56.187
		C221.826,188.599,211.826,188.599,211.826,195.048L211.826,195.048z"/>
</g>
<g>
	<path fill="#FFFFFF" d="M141.086,257.703c25.237,0,50.475,0,75.712,0c6.449,0,6.449-10,0-10c-25.237,0-50.475,0-75.712,0
		C134.637,247.703,134.637,257.703,141.086,257.703L141.086,257.703z"/>
</g>
<g>
	<path fill="#FFFFFF" d="M141.233,237.873c24.846,0,49.692,0,74.538,0c6.449,0,6.449-10,0-10c-24.846,0-49.692,0-74.538,0
		C134.784,227.873,134.784,237.873,141.233,237.873L141.233,237.873z"/>
</g>
<g>
	<path fill="#FFFFFF" d="M186.487,195.048c0,18.729,0,37.458,0,56.187c0,6.449,10,6.449,10,0c0-18.729,0-37.458,0-56.187
		C196.487,188.599,186.487,188.599,186.487,195.048L186.487,195.048z"/>
</g>
<g>
	<path fill="#FFFFFF" d="M135.81,195.048c0,18.729,0,37.458,0,56.187c0,6.449,10,6.449,10,0c0-18.729,0-37.458,0-56.187
		C145.81,188.599,135.81,188.599,135.81,195.048L135.81,195.048z"/>
</g>
<g>
	<path fill="#FFFFFF" d="M161.148,195.048c0,18.729,0,37.458,0,56.187c0,6.449,10,6.449,10,0c0-18.729,0-37.458,0-56.187
		C171.148,188.599,161.148,188.599,161.148,195.048L161.148,195.048z"/>
</g>
<g>
	<path fill="#FFFFFF" d="M140.939,198.212c25.287,0,50.573,0,75.859,0c6.449,0,6.449-10,0-10c-25.287,0-50.573,0-75.859,0
		C134.49,188.212,134.49,198.212,140.939,198.212L140.939,198.212z"/>
</g>
<g>
	<path fill="#FFFFFF" d="M140.939,218.042c25.14,0,50.279,0,75.418,0c6.449,0,6.449-10,0-10c-25.14,0-50.279,0-75.418,0
		C134.49,208.042,134.49,218.042,140.939,218.042L140.939,218.042z"/>
</g>
<path fill="none" stroke="#FFFFFF" stroke-width="10" stroke-miterlimit="10" d="M278.453,101.572
	c-15.689-3.208-34.108-4.619-49.7-5.857c-9.278-0.736-42.268-0.825-49.69-0.834v-0.002c0,0-0.263,0-0.748,0
	c-0.485,0-0.748,0-0.748,0v0.002c-7.422,0.01-40.412,0.098-49.69,0.834c-15.592,1.238-34.01,2.649-49.7,5.857
	c-3.143,0.642-5.862,2.173-5.862,4.855v39.072c0,2.682,2.625,4.855,5.862,4.855h43.976c12.796-1.235,9.428-16.294,15.826-21.752
	c2.17-1.851,7.323-1.673,10.438-1.673c6.895,0,22.978,0,28.814,0c1.361,0,2.167,0,2.167,0c5.836,0,21.919,0,28.814,0
	c3.115,0,8.269-0.178,10.438,1.673c6.398,5.458,3.03,20.518,15.826,21.752h43.976c3.238,0,5.862-2.174,5.862-4.855v-39.072
	C284.315,103.745,281.596,102.214,278.453,101.572z"/>
<path fill="none" stroke="#FFFFFF" stroke-width="10" stroke-miterlimit="10" d="M211.423,165.875c0,3.131-2.538,5.669-5.669,5.669
	h-53.77c-3.131,0-5.669-2.538-5.669-5.669v-9.661c0-3.131,2.538-5.669,5.669-5.669h53.77c3.131,0,5.669,2.538,5.669,5.669V165.875z"
	/>
</svg>
