<?xml version="1.0" encoding="iso-8859-1"?>
<!-- Generator: Adobe Illustrator 16.0.0, SVG Export Plug-In . SVG Version: 6.00 Build 0)  -->
<!DOCTYPE svg PUBLIC "-//W3C//DTD SVG 1.1 Tiny//EN" "http://www.w3.org/Graphics/SVG/1.1/DTD/svg11-tiny.dtd">
<svg version="1.1" baseProfile="tiny" id="it_x5F_wireless_x5F_dcf77"
	 xmlns="http://www.w3.org/2000/svg" xmlns:xlink="http://www.w3.org/1999/xlink" x="0px" y="0px" width="361px" height="361px"
	 viewBox="0 0 361 361" xml:space="preserve">
<g>
	<path fill="#FFFFFF" d="M145.118,120.892c-14.505,15.154-14.506,38.448,0,53.602c4.467,4.666,11.528-2.415,7.071-7.071
		c-10.71-11.188-10.71-28.271,0-39.459C156.646,123.307,149.584,116.226,145.118,120.892L145.118,120.892z"/>
</g>
<g>
	<path fill="#FFFFFF" d="M129.518,104.869c-23.279,23.884-23.279,61.865,0,85.749c4.507,4.624,11.573-2.453,7.071-7.071
		c-19.474-19.98-19.474-51.626,0-71.606C141.091,107.322,134.025,100.245,129.518,104.869L129.518,104.869z"/>
</g>
<g>
	<path fill="#FFFFFF" d="M114.063,89.195c-31.769,32.364-31.77,84.515-0.001,116.88c4.523,4.607,11.59-2.468,7.071-7.071
		c-27.96-28.484-27.959-74.253,0.001-102.737C125.652,91.663,118.585,84.587,114.063,89.195L114.063,89.195z"/>
</g>
<g>
	<path fill="#FFFFFF" d="M98.295,74.669C79,94.251,68.149,120.356,67.958,147.854c-0.19,27.351,11.239,53.804,30.337,73.185
		c4.532,4.599,11.6-2.476,7.071-7.071c-36-36.533-36-95.694,0-132.227C109.895,77.146,102.827,70.071,98.295,74.669L98.295,74.669z"
		/>
</g>
<path fill="#FFFFFF" d="M198.266,286.295c0,4.188-2.609,7.583-5.826,7.583h-7.121c-3.217,0-5.826-3.395-5.826-7.583V127.461
	c0-4.188,2.609-7.583,5.826-7.583h7.121c3.217,0,5.826,3.396,5.826,7.583V286.295z"/>
<path fill="#FFFFFF" d="M206.929,136.878c0,2.748-2.108,4.975-4.708,4.975h-26.683c-2.599,0-4.708-2.228-4.708-4.975v-5.528
	c0-2.747,2.109-4.975,4.708-4.975h26.683c2.6,0,4.708,2.228,4.708,4.975V136.878z"/>
<path fill="#FFFFFF" d="M213.788,154.567c0,2.748-2.91,4.975-6.498,4.975h-36.823c-3.587,0-6.498-2.228-6.498-4.975v-5.528
	c0-2.747,2.91-4.975,6.498-4.975h36.823c3.587,0,6.498,2.228,6.498,4.975V154.567z"/>
<path fill="#FFFFFF" d="M216.315,172.978c0,2.748-3.142,4.975-7.016,4.975h-39.757c-3.874,0-7.016-2.227-7.016-4.975v-5.528
	c0-2.747,3.142-4.975,7.016-4.975h39.757c3.874,0,7.016,2.228,7.016,4.975V172.978z"/>
<g>
	<polygon fill="#FFFFFF" points="172.648,286.878 188.799,165.212 204.95,286.878 	"/>
	<g>
		<path fill="#FFFFFF" d="M180.15,286.933c5.384-40.556,10.768-81.111,16.151-121.667c-4.915,0.629-9.831,1.258-14.746,1.887
			c5.384,40.556,10.767,81.111,16.15,121.667c2.433-3.147,4.866-6.295,7.299-9.442c-10.767,0-21.534,0-32.301,0
			c-9.687,0-9.772,15.003-0.108,15.003c10.767,0,21.534,0,32.301,0c5.358,0,7.931-4.68,7.299-9.442
			c-5.384-40.556-10.767-81.111-16.15-121.667c-0.431-3.249-4.18-5.541-7.19-5.561c-4.476-0.03-7.019,3.398-7.556,7.447
			c-5.384,40.556-10.768,81.111-16.151,121.667c-0.539,4.061,3.745,7.531,7.447,7.556C177.07,294.41,179.613,290.982,180.15,286.933
			z"/>
	</g>
</g>
</svg>
