<?xml version="1.0" encoding="iso-8859-1"?>
<!-- Generator: Adobe Illustrator 16.0.0, SVG Export Plug-In . SVG Version: 6.00 Build 0)  -->
<!DOCTYPE svg PUBLIC "-//W3C//DTD SVG 1.1 Tiny//EN" "http://www.w3.org/Graphics/SVG/1.1/DTD/svg11-tiny.dtd">
<svg version="1.1" baseProfile="tiny" id="it_x5F_wifi"
	 xmlns="http://www.w3.org/2000/svg" xmlns:xlink="http://www.w3.org/1999/xlink" x="0px" y="0px" width="361px" height="361px"
	 viewBox="0 0 361 361" xml:space="preserve">
<path fill="none" stroke="#FFFFFF" stroke-width="10" stroke-miterlimit="10" d="M190.074,166.407c0,2.285-1.853,4.138-4.138,4.138
	h-14.483c-2.285,0-4.138-1.853-4.138-4.138v-11.725c0-2.285,1.853-4.138,4.138-4.138h14.483c2.285,0,4.138,1.853,4.138,4.138
	V166.407z"/>
<g>
	<path fill="#FFFFFF" d="M143.279,138.125c-11.839,12.518-11.839,31.323,0,43.841c4.439,4.693,11.499-2.39,7.071-7.071
		c-8.05-8.511-8.05-21.188,0-29.698C154.778,140.515,147.719,133.431,143.279,138.125L143.279,138.125z"/>
</g>
<g>
	<path fill="#FFFFFF" d="M129.029,119.636c-22.069,22.682-22.069,58.635,0,81.317c4.503,4.628,11.568-2.449,7.071-7.071
		c-18.266-18.772-18.266-48.402,0-67.175C140.598,122.085,133.533,115.008,129.029,119.636L129.029,119.636z"/>
</g>
<g>
	<path fill="#FFFFFF" d="M113.03,106.259c-30.082,30.681-30.082,80.014,0,110.695c4.521,4.61,11.587-2.465,7.071-7.071
		c-26.273-26.797-26.274-69.756,0-96.553C124.617,108.724,117.55,101.648,113.03,106.259L113.03,106.259z"/>
</g>
<g>
	<path fill="#FFFFFF" d="M96.03,93.259c-17.888,18.174-27.934,42.342-28.125,67.848c-0.19,25.358,10.435,49.875,28.125,67.848
		c4.529,4.601,11.597-2.473,7.071-7.071c-33.09-33.618-33.09-87.935,0-121.553C107.626,95.732,100.559,88.658,96.03,93.259
		L96.03,93.259z"/>
</g>
<g>
	<path fill="#FFFFFF" d="M207.369,145.196c8.05,8.511,8.05,21.188,0,29.698c-4.427,4.681,2.632,11.765,7.071,7.071
		c11.839-12.518,11.839-31.323,0-43.841C210.001,133.431,202.942,140.515,207.369,145.196L207.369,145.196z"/>
</g>
<g>
	<path fill="#FFFFFF" d="M221.619,126.708c18.266,18.772,18.266,48.402,0,67.175c-4.497,4.623,2.568,11.7,7.071,7.071
		c22.069-22.682,22.069-58.635,0-81.317C224.187,115.008,217.122,122.085,221.619,126.708L221.619,126.708z"/>
</g>
<g>
	<path fill="#FFFFFF" d="M237.619,113.33c26.274,26.796,26.273,69.756,0,96.553c-4.516,4.606,2.551,11.682,7.071,7.071
		c30.082-30.681,30.082-80.014,0-110.695C240.169,101.648,233.103,108.724,237.619,113.33L237.619,113.33z"/>
</g>
<g>
	<path fill="#FFFFFF" d="M254.619,100.33c33.09,33.618,33.09,87.935,0,121.553c-4.525,4.598,2.542,11.673,7.071,7.071
		c17.888-18.174,27.934-42.342,28.125-67.848c0.19-25.359-10.435-49.875-28.125-67.848
		C257.161,88.658,250.093,95.732,254.619,100.33L254.619,100.33z"/>
</g>
<g>
	<path fill="#FFFFFF" d="M173.315,177.045c0,37.833,0,75.667,0,113.5c0,6.449,10,6.449,10,0c0-37.833,0-75.667,0-113.5
		C183.315,170.596,173.315,170.596,173.315,177.045L173.315,177.045z"/>
</g>
</svg>
