<?xml version="1.0" encoding="iso-8859-1"?>
<!-- Generator: Adobe Illustrator 16.0.0, SVG Export Plug-In . SVG Version: 6.00 Build 0)  -->
<!DOCTYPE svg PUBLIC "-//W3C//DTD SVG 1.1//EN" "http://www.w3.org/Graphics/SVG/1.1/DTD/svg11.dtd">
<svg version="1.1" xmlns="http://www.w3.org/2000/svg" xmlns:xlink="http://www.w3.org/1999/xlink" x="0px" y="0px" width="361px"
	 height="361px" viewBox="0 0 361 361" style="enable-background:new 0 0 361 361;" xml:space="preserve">
<g id="it_x5F_wireless_x5F_dcf77">
	<g>
		<g>
			<path style="fill:#FFFFFF;" d="M147.636,118.014c-14.505,15.154-14.506,38.448,0,53.602c4.467,4.666,11.528-2.415,7.071-7.071
				c-10.71-11.188-10.71-28.271,0-39.459C159.164,120.429,152.103,113.348,147.636,118.014L147.636,118.014z"/>
		</g>
	</g>
	<g>
		<g>
			<path style="fill:#FFFFFF;" d="M132.036,101.991c-23.279,23.884-23.278,61.865,0,85.749c4.507,4.625,11.573-2.452,7.071-7.071
				c-19.474-19.98-19.474-51.627,0-71.607C143.609,104.444,136.543,97.367,132.036,101.991L132.036,101.991z"/>
		</g>
	</g>
	<g>
		<g>
			<path style="fill:#FFFFFF;" d="M116.581,86.317c-31.769,32.364-31.77,84.515-0.001,116.879c4.523,4.608,11.59-2.467,7.071-7.07
				c-27.96-28.485-27.959-74.254,0.001-102.738C128.17,88.785,121.104,81.709,116.581,86.317L116.581,86.317z"/>
		</g>
	</g>
	<g>
		<g>
			<path style="fill:#FFFFFF;" d="M100.813,71.792c-19.296,19.582-30.146,45.687-30.337,73.185
				c-0.19,27.35,11.239,53.803,30.337,73.184c4.532,4.599,11.6-2.476,7.071-7.07c-36-36.533-36-95.695,0-132.227
				C112.413,74.268,105.345,67.193,100.813,71.792L100.813,71.792z"/>
		</g>
	</g>
	<path style="fill:#FFFFFF;" d="M200.783,283.417c0,4.188-2.608,7.583-5.826,7.583h-7.12c-3.217,0-5.825-3.395-5.825-7.583V124.583
		c0-4.188,2.608-7.583,5.825-7.583h7.12c3.218,0,5.826,3.396,5.826,7.583V283.417z"/>
	<path style="fill:#FFFFFF;" d="M209.447,134c0,2.748-2.108,4.975-4.709,4.975h-26.683c-2.599,0-4.708-2.228-4.708-4.975v-5.528
		c0-2.747,2.109-4.975,4.708-4.975h26.683c2.601,0,4.709,2.228,4.709,4.975V134z"/>
	<path style="fill:#FFFFFF;" d="M216.307,151.689c0,2.748-2.91,4.975-6.498,4.975h-36.823c-3.587,0-6.498-2.228-6.498-4.975v-5.528
		c0-2.747,2.91-4.975,6.498-4.975h36.823c3.588,0,6.498,2.228,6.498,4.975V151.689z"/>
	<path style="fill:#FFFFFF;" d="M218.833,170.1c0,2.748-3.142,4.975-7.016,4.975h-39.757c-3.874,0-7.016-2.227-7.016-4.975v-5.528
		c0-2.747,3.142-4.975,7.016-4.975h39.757c3.874,0,7.016,2.228,7.016,4.975V170.1z"/>
	<g>
		<polygon style="fill:#FFFFFF;" points="175.167,284 191.317,162.334 207.468,284 		"/>
		<g>
			<path style="fill:#FFFFFF;" d="M182.668,284.054c5.384-40.555,10.768-81.11,16.151-121.666
				c-4.916,0.629-9.831,1.258-14.746,1.887c5.383,40.555,10.767,81.111,16.15,121.667c2.433-3.147,4.865-6.296,7.298-9.443
				c-10.767,0-21.534,0-32.301,0c-9.687,0-9.772,15.004-0.108,15.004c10.768,0,21.534,0,32.302,0c5.357,0,7.931-4.681,7.298-9.443
				c-5.383-40.555-10.767-81.11-16.15-121.666c-0.431-3.249-4.18-5.541-7.19-5.561c-4.476-0.03-7.018,3.398-7.556,7.447
				c-5.383,40.555-10.767,81.111-16.15,121.667c-0.539,4.061,3.745,7.531,7.447,7.556
				C179.588,291.531,182.131,288.104,182.668,284.054z"/>
		</g>
	</g>
</g>
<g id="Ebene_1">
</g>
</svg>
