<?xml version="1.0" encoding="iso-8859-1"?>
<!-- Generator: Adobe Illustrator 15.0.0, SVG Export Plug-In . SVG Version: 6.00 Build 0)  -->
<!DOCTYPE svg PUBLIC "-//W3C//DTD SVG 1.1 Tiny//EN" "http://www.w3.org/Graphics/SVG/1.1/DTD/svg11-tiny.dtd">
<svg version="1.1" baseProfile="tiny" id="licht_x5F_licht"
	 xmlns="http://www.w3.org/2000/svg" xmlns:xlink="http://www.w3.org/1999/xlink" x="0px" y="0px" width="361px" height="361px"
	 viewBox="0 0 361 361" xml:space="preserve">
<g id="Licht_an" display="none">
	
		<radialGradient id="SVGID_1_" cx="182.335" cy="138.5596" r="67.1628" gradientTransform="matrix(1.2617 0 0 1.3639 -49.6278 -46.3219)" gradientUnits="userSpaceOnUse">
		<stop  offset="0" style="stop-color:#FFE000"/>
		<stop  offset="0.2527" style="stop-color:#FEDF0D;stop-opacity:0.7473"/>
		<stop  offset="0.3933" style="stop-color:#F8DA23;stop-opacity:0.6067"/>
		<stop  offset="0.5064" style="stop-color:#EDD339;stop-opacity:0.4936"/>
		<stop  offset="0.605" style="stop-color:#DFC94D;stop-opacity:0.395"/>
		<stop  offset="0.694" style="stop-color:#CBBA5F;stop-opacity:0.306"/>
		<stop  offset="0.7762" style="stop-color:#B2A76B;stop-opacity:0.2238"/>
		<stop  offset="0.8531" style="stop-color:#948E6D;stop-opacity:0.1469"/>
		<stop  offset="0.9258" style="stop-color:#6F6D60;stop-opacity:0.0742"/>
		<stop  offset="0.9928" style="stop-color:#424240;stop-opacity:0.0072"/>
		<stop  offset="1" style="stop-color:#3C3C3B;stop-opacity:0"/>
	</radialGradient>
	<path display="inline" fill="url(#SVGID_1_)" d="M239.833,243.58c0,6.398-4.801,11.587-10.72,11.587h-97.378
		c-5.92,0-10.72-5.189-10.72-11.587V41.739c0-6.398,4.8-11.587,10.72-11.587h97.378c5.919,0,10.72,5.189,10.72,11.587V243.58z"/>
</g>
<g>
	<path fill="#FFFFFF" d="M155.164,234.139c16.227,2.771,32.454,5.542,48.681,8.312c6.306,1.077,9.005-8.559,2.658-9.643
		c-16.227-2.771-32.454-5.542-48.681-8.312C151.516,223.419,148.816,233.055,155.164,234.139L155.164,234.139z"/>
</g>
<g>
	<path fill="#FFFFFF" d="M155.664,251.639c16.227,2.771,32.454,5.542,48.681,8.312c6.306,1.077,9.005-8.559,2.658-9.643
		c-16.227-2.771-32.454-5.542-48.681-8.312C152.016,240.919,149.316,250.555,155.664,251.639L155.664,251.639z"/>
</g>
<g>
	<path fill="#FFFFFF" d="M155.664,268.639c16.227,2.771,32.454,5.542,48.681,8.312c6.306,1.077,9.005-8.559,2.658-9.643
		c-16.227-2.771-32.454-5.542-48.681-8.312C152.016,257.919,149.316,267.555,155.664,268.639L155.664,268.639z"/>
</g>
<g>
	<path fill="#FFFFFF" d="M166.024,286.786c9.106,1.555,18.213,3.11,27.32,4.665c6.306,1.077,9.005-8.559,2.658-9.643
		c-9.106-1.555-18.213-3.11-27.32-4.665C162.377,276.066,159.677,285.702,166.024,286.786L166.024,286.786z"/>
</g>
<path fill="none" stroke="#FFFFFF" stroke-width="10" stroke-miterlimit="10" d="M222.034,188.252c0,13.729-11.13,24.86-24.86,24.86
	h-33.147c-13.729,0-24.86-11.13-24.86-24.86V99.86c0-13.729,11.13-24.86,24.86-24.86h33.147c13.729,0,24.86,11.13,24.86,24.86
	V188.252z"/>
</svg>
