<?xml version="1.0" encoding="iso-8859-1"?>
<!-- Generator: Adobe Illustrator 16.0.0, SVG Export Plug-In . SVG Version: 6.00 Build 0)  -->
<!DOCTYPE svg PUBLIC "-//W3C//DTD SVG 1.1//EN" "http://www.w3.org/Graphics/SVG/1.1/DTD/svg11.dtd">
<svg version="1.1" xmlns="http://www.w3.org/2000/svg" xmlns:xlink="http://www.w3.org/1999/xlink" x="0px" y="0px" width="361px"
	 height="361px" viewBox="0 0 361 361" style="enable-background:new 0 0 361 361;" xml:space="preserve">
<g id="light_x5F_diffused">
	<g>
		<g>
			<path style="fill:#FFFFFF;" d="M242.09,236.513c8.917,1.522,17.833,3.045,26.749,4.567c4.414,0.754,6.304-5.991,1.861-6.75
				c-8.917-1.522-17.833-3.045-26.749-4.567C239.537,229.009,237.647,235.754,242.09,236.513L242.09,236.513z"/>
		</g>
	</g>
	<g>
		<g>
			<path style="fill:#FFFFFF;" d="M242.364,246.129c8.917,1.522,17.833,3.044,26.749,4.566c4.414,0.754,6.304-5.991,1.861-6.75
				c-8.917-1.522-17.833-3.044-26.749-4.566C239.812,238.625,237.922,245.37,242.364,246.129L242.364,246.129z"/>
		</g>
	</g>
	<g>
		<g>
			<path style="fill:#FFFFFF;" d="M242.364,255.47c8.917,1.522,17.833,3.045,26.749,4.567c4.414,0.754,6.304-5.991,1.861-6.75
				c-8.917-1.522-17.833-3.045-26.749-4.567C239.812,247.966,237.922,254.711,242.364,255.47L242.364,255.47z"/>
		</g>
	</g>
	<g>
		<g>
			<path style="fill:#FFFFFF;" d="M248.058,265.441c5.004,0.854,10.008,1.708,15.012,2.563c4.414,0.754,6.304-5.991,1.861-6.75
				c-5.004-0.854-10.008-1.708-15.012-2.563C245.505,257.938,243.615,264.683,248.058,265.441L248.058,265.441z"/>
		</g>
	</g>
	<path style="fill:none;stroke:#FFFFFF;stroke-width:10;stroke-miterlimit:10;" d="M279.033,210.573
		c0,7.544-6.115,13.66-13.66,13.66H247.16c-7.545,0-13.66-6.116-13.66-13.66v-48.569c0-7.544,6.115-13.66,13.66-13.66h18.213
		c7.545,0,13.66,6.116,13.66,13.66V210.573z"/>
	<g>
		<g>
			<path style="fill:#FFFFFF;" d="M201.331,149.946c0,44.552,0,89.105,0,133.658c0,0.003,0,0.006,0,0.01
				c0,9.686,15.004,9.771,15.004,0.107c0-44.552,0-89.104,0-133.657c0-0.003,0-0.007,0-0.01
				C216.335,140.368,201.331,140.282,201.331,149.946L201.331,149.946z"/>
		</g>
	</g>
	<g>
		<g>
			<path style="fill:#FFFFFF;" d="M78.112,85.335c48.944,0,97.888,0,146.833,0c19.834,0,39.668,0,59.502,0
				c9.686,0,9.771-15.003,0.107-15.003c-48.943,0-97.888,0-146.832,0c-19.834,0-39.667,0-59.501,0
				C68.534,70.332,68.448,85.335,78.112,85.335L78.112,85.335z"/>
		</g>
	</g>
	<g>
		<g>
			<g>
				<path style="fill:#FFFFFF;" d="M245.641,122.192c-11.444-11.444-22.889-22.889-34.333-34.333
					c-3.194-3.194-8.144,1.755-4.949,4.95c11.444,11.444,22.889,22.889,34.333,34.333
					C243.886,130.336,248.836,125.387,245.641,122.192L245.641,122.192z"/>
			</g>
		</g>
		<g>
			<g>
				<path style="fill:#FFFFFF;" d="M206.691,87.525c-33.086,33.086-66.172,66.172-99.258,99.257
					c-0.358,0.358-0.717,0.718-1.076,1.076c-3.194,3.194,1.755,8.144,4.95,4.949c33.085-33.085,66.171-66.171,99.257-99.257
					c0.358-0.358,0.717-0.717,1.075-1.075C214.836,89.28,209.886,84.331,206.691,87.525L206.691,87.525z"/>
			</g>
		</g>
	</g>
	<g>
		<g>
			<g>
				<path style="fill:#FFFFFF;" d="M262.641,122.192c-11.444-11.444-22.889-22.889-34.333-34.333
					c-3.194-3.194-8.144,1.755-4.949,4.95c11.444,11.444,22.889,22.889,34.333,34.333
					C260.886,130.336,265.836,125.387,262.641,122.192L262.641,122.192z"/>
			</g>
		</g>
		<g>
			<g>
				<path style="fill:#FFFFFF;" d="M223.691,87.525c-33.086,33.086-66.172,66.172-99.258,99.257
					c-0.358,0.358-0.717,0.718-1.076,1.076c-3.194,3.194,1.755,8.144,4.95,4.949c33.085-33.085,66.171-66.171,99.257-99.257
					c0.358-0.358,0.717-0.717,1.075-1.075C231.836,89.28,226.886,84.331,223.691,87.525L223.691,87.525z"/>
			</g>
		</g>
	</g>
	<g>
		<g>
			<g>
				<path style="fill:#FFFFFF;" d="M227.641,121.192c-11.444-11.444-22.889-22.889-34.333-34.333
					c-3.194-3.194-8.144,1.755-4.949,4.95c11.444,11.444,22.889,22.889,34.333,34.333
					C225.886,129.336,230.836,124.387,227.641,121.192L227.641,121.192z"/>
			</g>
		</g>
		<g>
			<g>
				<path style="fill:#FFFFFF;" d="M188.691,86.525c-33.086,33.086-66.172,66.172-99.258,99.257
					c-0.358,0.358-0.717,0.718-1.076,1.076c-3.194,3.194,1.755,8.144,4.95,4.949c33.085-33.085,66.171-66.171,99.257-99.257
					c0.358-0.358,0.717-0.717,1.075-1.075C196.836,88.28,191.886,83.331,188.691,86.525L188.691,86.525z"/>
			</g>
		</g>
	</g>
</g>
<g id="Ebene_1">
</g>
</svg>
