<?xml version="1.0" encoding="iso-8859-1"?>
<!-- Generator: Adobe Illustrator 16.0.0, SVG Export Plug-In . SVG Version: 6.00 Build 0)  -->
<!DOCTYPE svg PUBLIC "-//W3C//DTD SVG 1.1 Tiny//EN" "http://www.w3.org/Graphics/SVG/1.1/DTD/svg11-tiny.dtd">
<svg version="1.1" baseProfile="tiny" id="light_x5F_painting"
	 xmlns="http://www.w3.org/2000/svg" xmlns:xlink="http://www.w3.org/1999/xlink" x="0px" y="0px" width="361px" height="361px"
	 viewBox="0 0 361 361" xml:space="preserve">
<g>
	<path fill="#FFFFFF" d="M81.572,165.391c8.917,1.522,17.833,3.045,26.749,4.567c4.414,0.754,6.304-5.991,1.861-6.75
		c-8.917-1.522-17.833-3.045-26.749-4.567C79.019,157.887,77.129,164.632,81.572,165.391L81.572,165.391z"/>
</g>
<g>
	<path fill="#FFFFFF" d="M81.846,175.006c8.917,1.522,17.833,3.045,26.749,4.567c4.414,0.753,6.304-5.991,1.861-6.75
		c-8.917-1.522-17.833-3.045-26.749-4.567C79.293,167.503,77.403,174.248,81.846,175.006L81.846,175.006z"/>
</g>
<g>
	<path fill="#FFFFFF" d="M81.846,184.348c8.917,1.522,17.833,3.045,26.749,4.567c4.414,0.754,6.304-5.991,1.861-6.75
		c-8.917-1.522-17.833-3.045-26.749-4.567C79.293,176.844,77.403,183.589,81.846,184.348L81.846,184.348z"/>
</g>
<g>
	<path fill="#FFFFFF" d="M87.54,194.319c5.004,0.854,10.008,1.709,15.012,2.563c4.414,0.754,6.304-5.991,1.861-6.75
		c-5.004-0.854-10.008-1.709-15.012-2.563C84.987,186.815,83.097,193.56,87.54,194.319L87.54,194.319z"/>
</g>
<path fill="none" stroke="#FFFFFF" stroke-width="10" stroke-miterlimit="10" d="M118.516,139.451c0,7.544-6.116,13.66-13.66,13.66
	H86.642c-7.544,0-13.66-6.116-13.66-13.66V90.882c0-7.544,6.116-13.66,13.66-13.66h18.213c7.544,0,13.66,6.116,13.66,13.66V139.451z
	"/>
<g>
	<path fill="#FFFFFF" d="M166.911,234.045c-5.582-0.589-4.145-7.523-4.145-10.874c0-6.278,0-12.557,0-18.835
		c0-15.945,0-31.89,0-47.834c0-5.535,0-11.069,0-16.604c0-3.04-0.791-7.853,4.554-7.853c9.38,0,18.76,0,28.14,0
		c27.773,0,55.547,0,83.32,0c2.894,0,6.937,0.363,6.937,4.543c0,4.031,0,8.062,0,12.092c0,15.416,0,30.832,0,46.248
		c0,11.449,0,22.899,0,34.348c0,7.386-15.869,4.769-19.864,4.769c-29.504,0-59.008,0-88.512,0
		C173.864,234.045,170.388,234.045,166.911,234.045c-1.935,0-1.935,3,0,3c23.735,0,47.471,0,71.206,0c12.769,0,25.538,0,38.307,0
		c2.682,0,5.452,0.265,8.029-0.58c4.125-1.352,4.264-5.506,4.264-9.042c0-27.579,0-55.159,0-82.738
		c0-6.774,1.316-15.641-8.263-15.641c-10.335,0-20.671,0-31.006,0c-26.98,0-53.96,0-80.94,0c-4.496,0-8.126,1.778-8.742,6.676
		c-0.314,2.504,0,5.251,0,7.768c0,14.517,0,29.034,0,43.551c0,11.455,0,22.91,0,34.364c0,6.354-1.509,14.727,7.145,15.641
		C168.834,237.248,168.814,234.246,166.911,234.045z"/>
</g>
<g>
	<path fill="#FFFFFF" d="M173.55,190.026c8.729-6.229,17.459-12.457,26.188-18.686c1.561-1.113,0.064-3.717-1.514-2.591
		c-8.73,6.229-17.459,12.457-26.189,18.686C170.476,188.548,171.972,191.152,173.55,190.026L173.55,190.026z"/>
</g>
<g>
	<path fill="#FFFFFF" d="M172.436,228.484c-5.186-0.636-3.601-8.481-3.601-11.629c0-6.782,0-13.564,0-20.347
		c0-15.29,0-30.579,0-45.869c0-3.434,0-6.867,0-10.3c0-4.301,6.939-3.294,9.202-3.294c13.414,0,26.827,0,40.24,0
		c15.051,0,30.102,0,45.152,0c3.875,0,7.75,0,11.625,0c4.545,0,4.596,3.702,4.596,6.813c0,26.455,0,52.91,0,79.365
		c0,7.106-8.945,5.26-13.623,5.26c-11.94,0-23.879,0-35.819,0C210.95,228.484,191.693,228.484,172.436,228.484c-1.935,0-1.935,3,0,3
		c24.381,0,48.762,0,73.143,0c10.007,0,20.014,0,30.021,0c9.643,0,7.049-13.236,7.049-19.457c0-15.582,0-31.164,0-46.746
		c0-6.319,0-12.639,0-18.958c0-3.105,0.428-6.354-0.901-9.229c-1.58-3.417-6.023-3.049-9.123-3.049c-5.021,0-10.042,0-15.063,0
		c-15.706,0-31.412,0-47.117,0c-11.885,0-23.77,0-35.655,0c-4.125,0-8.186,0.896-8.901,5.757c-0.392,2.659-0.054,5.579-0.054,8.255
		c0,25.676,0,51.352,0,77.027c0,3.937,3.045,5.964,6.601,6.4C174.353,231.719,174.33,228.716,172.436,228.484z"/>
</g>
<g>
	<path fill="#FFFFFF" d="M197.921,171.105c5.944,6,11.889,12,17.833,18c1.363,1.376,3.483-0.746,2.121-2.121
		c-5.944-6-11.889-12-17.833-18C198.68,167.608,196.559,169.73,197.921,171.105L197.921,171.105z"/>
</g>
<g>
	<path fill="#FFFFFF" d="M217.875,189.105c6-4.944,12-9.889,18-14.833c1.494-1.231-0.641-3.341-2.121-2.121
		c-6,4.944-12,9.889-18,14.833C214.26,188.216,216.395,190.326,217.875,189.105L217.875,189.105z"/>
</g>
<g>
	<path fill="#FFFFFF" d="M233.52,173.969c4,7.167,8,14.333,12,21.5c0.943,1.689,3.534,0.177,2.591-1.515c-4-7.167-8-14.333-12-21.5
		C235.167,170.765,232.576,172.277,233.52,173.969L233.52,173.969z"/>
</g>
<g>
	<path fill="#FFFFFF" d="M248.11,195.469c4.333-6.611,8.667-13.222,13-19.833c1.064-1.624-1.535-3.125-2.591-1.515
		c-4.333,6.611-8.667,13.222-13,19.833C244.456,195.578,247.055,197.079,248.11,195.469L248.11,195.469z"/>
</g>
<g>
	<path fill="#FFFFFF" d="M258.754,175.939c4.333,5.355,8.667,10.71,13,16.065c1.217,1.504,3.326-0.632,2.121-2.121
		c-4.333-5.355-8.667-10.71-13-16.065C259.658,172.313,257.549,174.45,258.754,175.939L258.754,175.939z"/>
</g>
<g>
	<path fill="#FFFFFF" d="M241.815,171.545c4.556,0,9.111,0,13.667,0c1.935,0,1.935-3,0-3c-4.556,0-9.111,0-13.667,0
		C239.88,168.545,239.88,171.545,241.815,171.545L241.815,171.545z"/>
</g>
<g>
	<path fill="#FFFFFF" d="M248.648,165.799c8.306,0,16.611,0,24.917,0c1.935,0,1.935-3,0-3c-8.306,0-16.611,0-24.917,0
		C246.714,162.799,246.714,165.799,248.648,165.799L248.648,165.799z"/>
</g>
<g>
	<path fill="#FFFFFF" d="M240.815,160.711c8.111-0.056,16.222-0.111,24.333-0.167c1.934-0.013,1.935-3.013,0-3
		c-8.111,0.056-16.222,0.111-24.333,0.167C238.881,157.725,238.88,160.725,240.815,160.711L240.815,160.711z"/>
</g>
<g>
	<path fill="#FFFFFF" d="M245.982,156.878c10.167,0,20.333,0,30.5,0c1.935,0,1.935-3,0-3c-10.167,0-20.333,0-30.5,0
		C244.047,153.878,244.047,156.878,245.982,156.878L245.982,156.878z"/>
</g>
<g>
	<path fill="#FFFFFF" d="M208.959,162.651c-1.361-1.5-2.722-3-4.083-4.5c-1.303-1.436-3.418,0.692-2.121,2.121
		c1.361,1.5,2.722,3,4.083,4.5C208.141,166.208,210.256,164.08,208.959,162.651L208.959,162.651z"/>
</g>
<g>
	<path fill="#FFFFFF" d="M221.415,159.847c0.211-1.868,0.422-3.736,0.633-5.604c0.092-0.814-0.752-1.5-1.5-1.5
		c-0.887,0-1.408,0.688-1.5,1.5c-0.211,1.868-0.422,3.736-0.633,5.604c-0.092,0.814,0.752,1.5,1.5,1.5
		C220.802,161.347,221.323,160.659,221.415,159.847L221.415,159.847z"/>
</g>
<g>
	<path fill="#FFFFFF" d="M231.739,167.007c1.556-0.667,3.111-1.333,4.667-2c0.752-0.323,0.912-1.414,0.538-2.053
		c-0.451-0.77-1.301-0.86-2.053-0.538c-1.555,0.667-3.111,1.333-4.666,2c-0.752,0.323-0.913,1.414-0.539,2.053
		C230.138,167.238,230.987,167.329,231.739,167.007L231.739,167.007z"/>
</g>
<g>
	<path fill="#FFFFFF" d="M207.357,176.397c0.711-12.964,19.789-12.964,20.5,0c0.105,1.924,3.106,1.934,3,0
		c-0.923-16.82-25.577-16.82-26.5,0C204.251,178.332,207.251,178.321,207.357,176.397L207.357,176.397z"/>
</g>
<g>
	<path fill="#FFFFFF" d="M181.315,208.211c3.389,0,6.778,0,10.167,0c1.935,0,1.935-3,0-3c-3.389,0-6.778,0-10.167,0
		C179.38,205.211,179.38,208.211,181.315,208.211L181.315,208.211z"/>
</g>
<g>
	<path fill="#FFFFFF" d="M181.315,212.711c9.111,0,18.222,0,27.333,0c1.935,0,1.935-3,0-3c-9.111,0-18.222,0-27.333,0
		C179.38,209.711,179.38,212.711,181.315,212.711L181.315,212.711z"/>
</g>
<g>
	<path fill="#FFFFFF" d="M189.315,217.711c4.833,0,9.667,0,14.5,0c1.935,0,1.935-3,0-3c-4.833,0-9.667,0-14.5,0
		C187.38,214.711,187.38,217.711,189.315,217.711L189.315,217.711z"/>
</g>
<g>
	<path fill="#FFFFFF" d="M212.815,219.878c3.809,0,7.618,0,11.427,0c1.935,0,1.935-3,0-3c-3.809,0-7.618,0-11.427,0
		C210.88,216.878,210.88,219.878,212.815,219.878L212.815,219.878z"/>
</g>
<g>
	<path fill="#FFFFFF" d="M197.815,224.211c3.611,0,7.222,0,10.833,0c1.935,0,1.935-3,0-3c-3.611,0-7.222,0-10.833,0
		C195.88,221.211,195.88,224.211,197.815,224.211L197.815,224.211z"/>
</g>
<g>
	<path fill="#FFFFFF" d="M172.036,200.953c2.24,1.275,4.465,1.197,6.999,1.012c4.047-0.296,7.281,0.718,11.091,1.872
		c7.413,2.245,14.091-0.603,21.453-0.845c4.486-0.147,7.529,2.801,11.25,4.728c3.661,1.896,8.385,3.099,8.844,7.735
		c0.119,1.204,0.298,2.39,0.376,3.598c0.241,3.698-5.499,4.327-7.891,4.573c-1.925,0.198-7.511,1.125-9.221,0.133
		c-1.677-0.972-3.187,1.621-1.515,2.591c2.152,1.247,5.263,0.457,7.616,0.367c4.258-0.162,8.417-0.378,11.963-3.026
		c4.18-3.12,2.07-12.241-1.56-14.869c-4.013-2.905-9.211-5.031-13.531-7.534c-3.296-1.91-7.533-1.358-11.119-0.875
		c-6.251,0.842-11.11,1.972-17.381,0.073c-2.072-0.627-4.138-1.534-6.335-1.617c-2.943-0.111-6.835,1.024-9.524-0.507
		C171.866,197.404,170.355,199.996,172.036,200.953L172.036,200.953z"/>
</g>
<g>
	<g>
		<path fill="#FFFFFF" d="M162.42,79.878c11.167,0,22.333,0,33.5,0c4.514,0,4.514-7,0-7c-11.167,0-22.333,0-33.5,0
			C157.906,72.878,157.906,79.878,162.42,79.878L162.42,79.878z"/>
	</g>
	<g>
		<path fill="#FFFFFF" d="M186.036,79.319c-0.376,2.33-5.204,1.395-6.72,1.395c-2.097,0-4.193,0-6.289,0
			c-1.398,0-0.409-1.992,0.363-1.992c0.368,0,0.736,0,1.104,0c1.385,0,2.77,0,4.155,0c1.566,0,7-1.006,7.387,1.395
			c0.307,1.906,3.198,1.094,2.893-0.798c-0.773-4.795-6.773-3.597-10.28-3.597c-3.232,0-9.667-1.036-9.667,3.996
			s6.435,3.996,9.667,3.996c3.506,0,9.506,1.198,10.28-3.597C189.233,78.225,186.343,77.413,186.036,79.319z"/>
	</g>
	<g>
		<path fill="#FFFFFF" d="M176.815,92.547c0,6.222,0,12.444,0,18.667c0,1.935,3,1.935,3,0c0-6.222,0-12.444,0-18.667
			C179.815,90.613,176.815,90.613,176.815,92.547L176.815,92.547z"/>
	</g>
	<g>
		<path fill="#FFFFFF" d="M184.712,93.276c1.764,5.778,3.528,11.556,5.292,17.333c0.563,1.845,3.459,1.058,2.893-0.798
			c-1.764-5.778-3.528-11.556-5.292-17.333C187.042,90.634,184.146,91.421,184.712,93.276L184.712,93.276z"/>
	</g>
	<g>
		<path fill="#FFFFFF" d="M169.036,92.479c-1.764,5.778-3.528,11.556-5.292,17.333c-0.566,1.855,2.33,2.643,2.893,0.798
			c1.764-5.778,3.528-11.556,5.292-17.333C172.495,91.421,169.599,90.634,169.036,92.479L169.036,92.479z"/>
	</g>
</g>
<g>
	<g>
		<path fill="#FFFFFF" d="M252.253,79.96c11.167,0,22.333,0,33.5,0c4.514,0,4.514-7,0-7c-11.167,0-22.333,0-33.5,0
			C247.739,72.96,247.739,79.96,252.253,79.96L252.253,79.96z"/>
	</g>
	<g>
		<path fill="#FFFFFF" d="M275.869,79.4c-0.376,2.33-5.204,1.395-6.72,1.395c-2.097,0-4.193,0-6.289,0
			c-1.398,0-0.409-1.992,0.363-1.992c0.368,0,0.736,0,1.104,0c1.385,0,2.77,0,4.155,0c1.566,0,7-1.006,7.387,1.395
			c0.307,1.906,3.198,1.094,2.893-0.798c-0.773-4.795-6.773-3.597-10.28-3.597c-3.232,0-9.667-1.036-9.667,3.996
			s6.435,3.996,9.667,3.996c3.506,0,9.506,1.198,10.28-3.597C279.067,78.306,276.176,77.495,275.869,79.4z"/>
	</g>
	<g>
		<path fill="#FFFFFF" d="M266.648,92.629c0,6.222,0,12.444,0,18.667c0,1.935,3,1.935,3,0c0-6.222,0-12.444,0-18.667
			C269.648,90.694,266.648,90.694,266.648,92.629L266.648,92.629z"/>
	</g>
	<g>
		<path fill="#FFFFFF" d="M274.545,93.358c1.764,5.778,3.528,11.556,5.292,17.333c0.563,1.845,3.459,1.058,2.893-0.798
			c-1.764-5.778-3.528-11.556-5.292-17.333C276.875,90.715,273.979,91.502,274.545,93.358L274.545,93.358z"/>
	</g>
	<g>
		<path fill="#FFFFFF" d="M258.869,92.56c-1.764,5.778-3.528,11.556-5.292,17.333c-0.566,1.855,2.33,2.643,2.893,0.798
			c1.764-5.778,3.528-11.556,5.292-17.333C262.328,91.502,259.432,90.715,258.869,92.56L258.869,92.56z"/>
	</g>
</g>
</svg>
