<?xml version="1.0" encoding="iso-8859-1"?>
<!-- Generator: Adobe Illustrator 16.0.3, SVG Export Plug-In . SVG Version: 6.00 Build 0)  -->
<!DOCTYPE svg PUBLIC "-//W3C//DTD SVG 1.1//EN" "http://www.w3.org/Graphics/SVG/1.1/DTD/svg11.dtd">
<svg version="1.1" xmlns="http://www.w3.org/2000/svg" xmlns:xlink="http://www.w3.org/1999/xlink" x="0px" y="0px" width="361px"
	 height="361px" viewBox="0 0 361 361" style="enable-background:new 0 0 361 361;" xml:space="preserve">
<g id="light_x5F_x-mas_x5F_candle_x5F_arch">
	<g>
		<g>
			<g>
				<path style="fill:#FFFFFF;" d="M83.84,163.013c8.917,1.522,17.833,3.045,26.749,4.567c4.414,0.754,6.304-5.991,1.861-6.75
					c-8.917-1.522-17.833-3.045-26.749-4.567C81.287,155.509,79.397,162.254,83.84,163.013L83.84,163.013z"/>
			</g>
		</g>
		<g>
			<g>
				<path style="fill:#FFFFFF;" d="M84.114,172.628c8.917,1.522,17.833,3.045,26.749,4.567c4.414,0.753,6.304-5.991,1.861-6.75
					c-8.917-1.522-17.833-3.045-26.749-4.567C81.562,165.125,79.671,171.87,84.114,172.628L84.114,172.628z"/>
			</g>
		</g>
		<g>
			<g>
				<path style="fill:#FFFFFF;" d="M84.114,181.97c8.917,1.522,17.833,3.045,26.749,4.567c4.414,0.754,6.304-5.991,1.861-6.75
					c-8.917-1.522-17.833-3.045-26.749-4.567C81.562,174.466,79.671,181.211,84.114,181.97L84.114,181.97z"/>
			</g>
		</g>
		<g>
			<g>
				<path style="fill:#FFFFFF;" d="M89.808,191.941c5.004,0.854,10.008,1.708,15.012,2.563c4.414,0.754,6.304-5.991,1.861-6.75
					c-5.004-0.854-10.008-1.708-15.012-2.563C87.255,184.438,85.365,191.183,89.808,191.941L89.808,191.941z"/>
			</g>
		</g>
		<path style="fill:none;stroke:#FFFFFF;stroke-width:10;stroke-miterlimit:10;" d="M120.784,137.073
			c0,7.544-6.116,13.66-13.66,13.66H88.91c-7.544,0-13.66-6.116-13.66-13.66V88.504c0-7.544,6.116-13.66,13.66-13.66h18.213
			c7.544,0,13.66,6.116,13.66,13.66V137.073z"/>
	</g>
	<g>
		<path style="fill:none;stroke:#FFFFFF;stroke-width:10;stroke-linecap:round;stroke-miterlimit:10;" d="M286.291,286.618
			c0-38.799-39.547-70.251-88.332-70.251c-48.786,0-88.333,31.452-88.333,70.251"/>
		<path style="fill:none;stroke:#FFFFFF;stroke-width:10;stroke-linecap:round;stroke-miterlimit:10;" d="M266.174,286.618
			c0-29.962-30.541-54.251-68.215-54.251c-37.675,0-68.215,24.289-68.215,54.251"/>
		
			<line style="fill:none;stroke:#FFFFFF;stroke-width:10;stroke-linecap:round;stroke-miterlimit:10;" x1="109.625" y1="286.618" x2="129.744" y2="286.618"/>
		
			<line style="fill:none;stroke:#FFFFFF;stroke-width:10;stroke-linecap:round;stroke-miterlimit:10;" x1="266.375" y1="286.618" x2="286.494" y2="286.618"/>
	</g>
	<g>
		<path style="fill:#FFFFFF;" d="M206.896,219.535c0,2.695-2.186,4.882-4.882,4.882h-8.238c-2.696,0-4.882-2.187-4.882-4.882
			v-24.736c0-2.695,2.186-4.882,4.882-4.882h8.238c2.696,0,4.882,2.187,4.882,4.882V219.535z"/>
		
			<ellipse style="fill:none;stroke:#FFFFFF;stroke-width:7;stroke-miterlimit:10;" cx="197.895" cy="181.542" rx="7.375" ry="18.375"/>
	</g>
	<g>
		<path style="fill:#FFFFFF;" d="M247.209,228.035c0,2.695-2.187,4.882-4.883,4.882h-8.238c-2.695,0-4.882-2.187-4.882-4.882
			v-24.736c0-2.695,2.187-4.882,4.882-4.882h8.238c2.696,0,4.883,2.187,4.883,4.882V228.035z"/>
		
			<ellipse style="fill:none;stroke:#FFFFFF;stroke-width:7;stroke-miterlimit:10;" cx="238.207" cy="190.042" rx="7.375" ry="18.375"/>
	</g>
	<g>
		<path style="fill:#FFFFFF;" d="M282.521,257.91c0,2.695-2.187,4.882-4.883,4.882H269.4c-2.695,0-4.882-2.187-4.882-4.882v-24.736
			c0-2.695,2.187-4.882,4.882-4.882h8.238c2.696,0,4.883,2.187,4.883,4.882V257.91z"/>
		
			<ellipse style="fill:none;stroke:#FFFFFF;stroke-width:7;stroke-miterlimit:10;" cx="273.52" cy="219.917" rx="7.375" ry="18.375"/>
	</g>
	<g>
		<path style="fill:#FFFFFF;" d="M148.581,227.285c0,2.695,2.186,4.882,4.882,4.882h8.239c2.696,0,4.882-2.187,4.882-4.882v-24.736
			c0-2.695-2.186-4.882-4.882-4.882h-8.239c-2.696,0-4.882,2.187-4.882,4.882V227.285z"/>
		
			<ellipse style="fill:none;stroke:#FFFFFF;stroke-width:7;stroke-miterlimit:10;" cx="157.582" cy="189.292" rx="7.375" ry="18.375"/>
	</g>
	<g>
		<path style="fill:#FFFFFF;" d="M113.268,257.91c0,2.695,2.186,4.882,4.882,4.882h8.239c2.696,0,4.882-2.187,4.882-4.882v-24.736
			c0-2.695-2.186-4.882-4.882-4.882h-8.239c-2.696,0-4.882,2.187-4.882,4.882V257.91z"/>
		
			<ellipse style="fill:none;stroke:#FFFFFF;stroke-width:7;stroke-miterlimit:10;" cx="122.269" cy="219.917" rx="7.375" ry="18.375"/>
	</g>
</g>
<g id="Ebene_1">
</g>
</svg>
