<?xml version="1.0" encoding="iso-8859-1"?>
<!-- Generator: Adobe Illustrator 16.0.3, SVG Export Plug-In . SVG Version: 6.00 Build 0)  -->
<!DOCTYPE svg PUBLIC "-//W3C//DTD SVG 1.1//EN" "http://www.w3.org/Graphics/SVG/1.1/DTD/svg11.dtd">
<svg version="1.1" xmlns="http://www.w3.org/2000/svg" xmlns:xlink="http://www.w3.org/1999/xlink" x="0px" y="0px" width="361px"
	 height="361px" viewBox="0 0 361 361" style="enable-background:new 0 0 361 361;" xml:space="preserve">
<g id="light_x5F_ceiling_x5F_infrared">
	<g>
		<g>
			<path style="fill:#FFFFFF;" d="M83.84,260.422c8.917,1.522,17.833,3.046,26.749,4.568c4.414,0.754,6.304-5.991,1.861-6.75
				c-8.917-1.522-17.833-3.046-26.749-4.568C81.287,252.918,79.397,259.663,83.84,260.422L83.84,260.422z"/>
		</g>
	</g>
	<g>
		<g>
			<path style="fill:#FFFFFF;" d="M84.114,270.038c8.917,1.522,17.833,3.045,26.749,4.567c4.414,0.754,6.304-5.991,1.861-6.75
				c-8.917-1.522-17.833-3.045-26.749-4.567C81.562,262.534,79.671,269.279,84.114,270.038L84.114,270.038z"/>
		</g>
	</g>
	<g>
		<g>
			<path style="fill:#FFFFFF;" d="M84.114,279.379c8.917,1.522,17.833,3.046,26.749,4.568c4.414,0.754,6.304-5.991,1.861-6.75
				c-8.917-1.522-17.833-3.046-26.749-4.568C81.562,271.875,79.671,278.62,84.114,279.379L84.114,279.379z"/>
		</g>
	</g>
	<g>
		<g>
			<path style="fill:#FFFFFF;" d="M89.808,289.351c5.004,0.854,10.008,1.709,15.012,2.563c4.414,0.754,6.304-5.991,1.861-6.75
				c-5.004-0.854-10.008-1.709-15.012-2.563C87.255,281.847,85.365,288.592,89.808,289.351L89.808,289.351z"/>
		</g>
	</g>
	<path style="fill:none;stroke:#FFFFFF;stroke-width:10;stroke-miterlimit:10;" d="M120.784,234.482
		c0,7.545-6.116,13.66-13.66,13.66H88.91c-7.544,0-13.66-6.115-13.66-13.66v-48.568c0-7.544,6.116-13.661,13.66-13.661h18.213
		c7.544,0,13.66,6.116,13.66,13.661V234.482z"/>
	<g>
		<g>
			<path style="fill:#FFFFFF;" d="M95.092,88.224c-5.352,0-10.704-0.004-16.056,0c-2.941,0.002-3.41-11.391,0.771-11.391
				c6.758,0,13.516,0,20.274,0c29.573,0,59.146,0,88.72,0c25.677,0,51.354,0,77.03,0c5.457,0,10.914,0,16.371,0
				c3.621,0,3.428,11.391,0.331,11.391c-5.176,0-10.351,0-15.526,0c-4.514,0-4.514,7,0,7c5.552,0,11.324,0.493,16.841-0.143
				c8.51-0.98,8.249-11.185,7.511-17.595c-1.033-8.97-10.966-7.653-17.385-7.653c-26.076,0-52.152,0-78.229,0
				c-30.339,0-60.678,0-91.017,0c-7.887,0-15.774,0-23.661,0c-3.328,0-6.177,0.511-8.71,3.043
				c-4.249,4.25-3.072,16.231,0.834,20.138c2.738,2.737,7.075,2.209,10.59,2.209c3.771,0,7.541,0,11.312,0
				C99.606,95.224,99.606,88.224,95.092,88.224L95.092,88.224z"/>
		</g>
	</g>
	<g>
		<g>
			<path style="fill:#FFFFFF;" d="M223.494,88.225c-6.679,0-13.358,0-20.037,0c-4.514,0-4.514,7,0,7c6.679,0,13.358,0,20.037,0
				C228.008,95.225,228.008,88.225,223.494,88.225L223.494,88.225z"/>
		</g>
	</g>
	<g>
		<path style="fill:#FFFFFF;" d="M205.795,216.092h10.67v76.229h-10.67V216.092z"/>
		<path style="fill:#FFFFFF;" d="M272.675,260.422c1.173,1.467,2.657,3.393,4.455,5.774c1.796,2.384,3.647,5.024,5.555,7.92
			c1.906,2.897,3.796,5.923,5.665,9.075c1.87,3.154,3.465,6.197,4.785,9.13h-11.66c-1.468-2.786-3.063-5.61-4.785-8.47
			c-1.724-2.86-3.465-5.592-5.225-8.195c-1.76-2.602-3.503-5.041-5.225-7.314c-1.725-2.272-3.283-4.253-4.676-5.94
			c-0.953,0.073-1.925,0.11-2.914,0.11c-0.99,0-2,0-3.025,0h-9.57v29.81h-10.67v-75.13c3.006-0.732,6.361-1.228,10.064-1.485
			c3.703-0.256,7.096-0.385,10.176-0.385c10.706,0,18.865,2.018,24.475,6.05c5.61,4.034,8.415,10.048,8.415,18.04
			c0,5.06-1.339,9.388-4.015,12.979C281.822,255.985,277.881,258.661,272.675,260.422z M256.505,224.672
			c-4.548,0-8.03,0.109-10.45,0.33v28.709h7.59c3.666,0,6.967-0.182,9.9-0.55c2.932-0.366,5.407-1.062,7.425-2.09
			c2.017-1.026,3.575-2.476,4.675-4.345c1.1-1.87,1.65-4.346,1.65-7.426c0-2.859-0.551-5.242-1.65-7.149
			c-1.1-1.906-2.585-3.41-4.455-4.511c-1.869-1.1-4.07-1.869-6.6-2.31C262.06,224.891,259.365,224.672,256.505,224.672z"/>
	</g>
	<g>
		<g>
			<g>
				<path style="fill:#FFFFFF;" d="M264.8,88.268c-0.598,2.959-5.531,1.899-7.517,1.899c-4.632,0-9.264,0-13.896,0
					c-4.016,0-8.031,0-12.047,0c-3.842,0-5.347-0.159-5.347-4.741c0-3.466,19.163-1.759,21.358-1.759c4.224,0,8.446,0,12.67,0
					c3.766,0,4.724,0.825,4.724,5c0,1.935,3,1.935,3,0c0-3.585-0.007-8-4.818-8c-4.538,0-9.076,0-13.614,0
					c-5.991,0-11.982,0-17.973,0c-3.58,0-7.395-0.346-8.293,4.101c-0.735,3.639,0.271,8.399,4.765,8.399c4.538,0,9.076,0,13.614,0
					c5.991,0,11.982,0,17.973,0c3.58,0,7.395,0.346,8.293-4.101C268.074,87.177,265.183,86.373,264.8,88.268z"/>
			</g>
		</g>
		<g>
			<g>
				<path style="fill:#FFFFFF;" d="M201.011,88.268c-0.598,2.959-5.532,1.899-7.517,1.899c-4.632,0-9.264,0-13.895,0
					c-4.016,0-8.031,0-12.046,0c-3.842,0-5.346-0.159-5.346-4.741c0-3.466,19.162-1.759,21.358-1.759c4.223,0,8.445,0,12.669,0
					c3.766,0,4.724,0.825,4.724,5c0,1.935,3,1.935,3,0c0-3.585-0.006-8-4.818-8c-4.538,0-9.076,0-13.613,0
					c-5.991,0-11.982,0-17.973,0c-3.58,0-7.395-0.346-8.292,4.101c-0.735,3.639,0.27,8.399,4.765,8.399c4.538,0,9.075,0,13.613,0
					c5.99,0,11.981,0,17.973,0c3.579,0,7.395,0.346,8.292-4.101C204.285,87.177,201.394,86.373,201.011,88.268z"/>
			</g>
		</g>
		<g>
			<g>
				<path style="fill:#FFFFFF;" d="M137.223,88.268c-0.598,2.959-5.532,1.899-7.517,1.899c-4.632,0-9.264,0-13.895,0
					c-4.016,0-8.031,0-12.047,0c-3.842,0-5.346-0.159-5.346-4.741c0-3.466,19.162-1.759,21.358-1.759c4.223,0,8.446,0,12.669,0
					c3.766,0,4.724,0.825,4.724,5c0,1.935,3,1.935,3,0c0-3.585-0.006-8-4.819-8c-4.538,0-9.076,0-13.613,0
					c-5.991,0-11.982,0-17.973,0c-3.58,0-7.395-0.346-8.292,4.101c-0.735,3.639,0.27,8.399,4.765,8.399c4.538,0,9.076,0,13.613,0
					c5.991,0,11.982,0,17.973,0c3.58,0,7.395,0.346,8.292-4.101C140.497,87.177,137.606,86.373,137.223,88.268z"/>
			</g>
		</g>
	</g>
	<g>
		<g>
			<path style="fill:#FFFFFF;" d="M160.497,88.167c-6.679,0-13.358,0-20.037,0c-4.514,0-4.514,7,0,7c6.679,0,13.358,0,20.037,0
				C165.011,95.167,165.011,88.167,160.497,88.167L160.497,88.167z"/>
		</g>
	</g>
	<g>
		<g>
			<g>
				<path style="fill:#FFFFFF;" d="M236.678,140.255c-2.311-2.069-4.82-4.898-5.094-8.112c-0.258-3.025,3.121-6.353,5.197-8.206
					c6.569-5.865,9.062-13.665,4.003-21.333c-2.474-3.749-8.539-0.247-6.045,3.533c3.338,5.058,1.337,8.731-2.621,12.584
					c-1.873,1.824-3.552,3.7-5.037,5.868c-4.961,7.241-1.28,15.307,4.647,20.616C235.079,148.207,240.047,143.273,236.678,140.255
					L236.678,140.255z"/>
			</g>
		</g>
		<g>
			<g>
				<path style="fill:#FFFFFF;" d="M253.012,140.255c-2.311-2.069-4.822-4.897-5.096-8.112c-0.258-3.026,3.123-6.353,5.199-8.206
					c6.568-5.866,9.06-13.666,4.001-21.333c-2.474-3.749-8.539-0.247-6.045,3.533c3.337,5.058,1.338,8.73-2.619,12.584
					c-1.874,1.825-3.553,3.7-5.038,5.868c-4.963,7.241-1.28,15.308,4.648,20.616C251.414,148.207,256.382,143.272,253.012,140.255
					L253.012,140.255z"/>
			</g>
		</g>
	</g>
	<g>
		<g>
			<g>
				<path style="fill:#FFFFFF;" d="M172.891,140.255c-2.311-2.069-4.821-4.897-5.095-8.112c-0.258-3.025,3.123-6.353,5.198-8.206
					c6.569-5.865,9.061-13.665,4.001-21.333c-2.474-3.749-8.538-0.247-6.044,3.533c3.337,5.058,1.336,8.73-2.621,12.584
					c-1.874,1.824-3.552,3.7-5.038,5.868c-4.962,7.241-1.28,15.307,4.647,20.616C171.292,148.207,176.26,143.273,172.891,140.255
					L172.891,140.255z"/>
			</g>
		</g>
		<g>
			<g>
				<path style="fill:#FFFFFF;" d="M189.223,140.255c-2.311-2.069-4.82-4.897-5.094-8.112c-0.258-3.025,3.121-6.353,5.197-8.206
					c6.57-5.865,9.062-13.665,4.002-21.333c-2.475-3.749-8.539-0.247-6.045,3.533c3.338,5.059,1.338,8.73-2.62,12.584
					c-1.874,1.824-3.552,3.7-5.038,5.868c-4.961,7.241-1.28,15.307,4.648,20.616C187.625,148.207,192.592,143.273,189.223,140.255
					L189.223,140.255z"/>
			</g>
		</g>
	</g>
	<g>
		<g>
			<g>
				<path style="fill:#FFFFFF;" d="M109.103,140.255c-2.311-2.069-4.821-4.897-5.095-8.112c-0.258-3.025,3.123-6.353,5.198-8.206
					c6.569-5.865,9.061-13.665,4.001-21.333c-2.474-3.749-8.538-0.247-6.044,3.533c3.337,5.058,1.336,8.73-2.621,12.584
					c-1.874,1.824-3.552,3.7-5.038,5.868c-4.962,7.241-1.28,15.307,4.647,20.616C107.504,148.207,112.472,143.273,109.103,140.255
					L109.103,140.255z"/>
			</g>
		</g>
		<g>
			<g>
				<path style="fill:#FFFFFF;" d="M125.436,140.255c-2.311-2.069-4.821-4.897-5.095-8.112c-0.258-3.025,3.123-6.353,5.198-8.206
					c6.569-5.866,9.061-13.665,4.001-21.333c-2.474-3.749-8.538-0.247-6.044,3.533c3.337,5.058,1.337,8.73-2.62,12.584
					c-1.874,1.824-3.552,3.7-5.038,5.868c-4.962,7.241-1.28,15.307,4.647,20.616C123.837,148.207,128.805,143.273,125.436,140.255
					L125.436,140.255z"/>
			</g>
		</g>
	</g>
</g>
<g id="Ebene_1">
</g>
</svg>
