<?xml version="1.0" encoding="iso-8859-1"?>
<!-- Generator: Adobe Illustrator 16.0.0, SVG Export Plug-In . SVG Version: 6.00 Build 0)  -->
<!DOCTYPE svg PUBLIC "-//W3C//DTD SVG 1.1 Tiny//EN" "http://www.w3.org/Graphics/SVG/1.1/DTD/svg11-tiny.dtd">
<svg version="1.1" baseProfile="tiny" id="light_x5F_bedside"
	 xmlns="http://www.w3.org/2000/svg" xmlns:xlink="http://www.w3.org/1999/xlink" x="0px" y="0px" width="361px" height="361px"
	 viewBox="0 0 361 361" xml:space="preserve">
<g>
	<path fill="#FFFFFF" d="M81.572,166.391c8.917,1.522,17.833,3.045,26.749,4.567c4.414,0.754,6.304-5.991,1.861-6.75
		c-8.917-1.522-17.833-3.045-26.749-4.567C79.019,158.887,77.129,165.632,81.572,166.391L81.572,166.391z"/>
</g>
<g>
	<path fill="#FFFFFF" d="M81.846,176.006c8.917,1.522,17.833,3.045,26.749,4.567c4.414,0.753,6.304-5.991,1.861-6.75
		c-8.917-1.522-17.833-3.045-26.749-4.567C79.293,168.503,77.403,175.248,81.846,176.006L81.846,176.006z"/>
</g>
<g>
	<path fill="#FFFFFF" d="M81.846,185.348c8.917,1.522,17.833,3.045,26.749,4.567c4.414,0.754,6.304-5.991,1.861-6.75
		c-8.917-1.522-17.833-3.045-26.749-4.567C79.293,177.844,77.403,184.589,81.846,185.348L81.846,185.348z"/>
</g>
<g>
	<path fill="#FFFFFF" d="M87.54,195.319c5.004,0.854,10.008,1.709,15.012,2.563c4.414,0.754,6.304-5.991,1.861-6.75
		c-5.004-0.854-10.008-1.709-15.012-2.563C84.987,187.815,83.097,194.56,87.54,195.319L87.54,195.319z"/>
</g>
<path fill="none" stroke="#FFFFFF" stroke-width="10" stroke-miterlimit="10" d="M118.516,140.451c0,7.544-6.116,13.66-13.66,13.66
	H86.642c-7.544,0-13.66-6.116-13.66-13.66V91.882c0-7.544,6.116-13.66,13.66-13.66h18.213c7.544,0,13.66,6.116,13.66,13.66V140.451z
	"/>
<g>
	<path fill="#FFFFFF" d="M279.315,277.545c-0.529,9.818-15.991,7-22.515,7c-14.885,0-29.77,0-44.654,0c-15.081,0-30.163,0-45.244,0
		c-4.546,0-9.091,0-13.637,0c-3.962,0-8.084-0.035-9.85-4.536c-1.739-4.433-0.433-11.32-0.433-15.914c0-7.233,0-14.465,0-21.698
		c0-4.917,1.647-9.521,7.518-9.521c3.099,0,6.197,0,9.295,0c29.577,0,59.154,0,88.731,0c6.178,0,12.355,0,18.533,0
		c4.471,0,9.779-0.675,11.823,4.536c0.781,1.991,0.433,4.678,0.433,6.77c0,4.348,0,8.695,0,13.043
		C279.315,263.999,279.315,270.771,279.315,277.545c0,6.449,10,6.449,10,0c0-12.035,0-24.069,0-36.104
		c0-8.607-4.544-15.759-13.097-18.109c-2.713-0.746-5.934-0.456-8.731-0.456c-28.399,0-56.798,0-85.197,0
		c-10.272,0-20.543,0-30.815,0c-6.063,0-12.016,2.093-15.495,7.389c-3.567,5.43-2.998,11.502-2.998,17.664
		c0,7.721,0,15.441,0,23.162c0,6.733-0.004,12.431,4.556,18.029c5.96,7.317,18.245,5.424,26.602,5.424c25.289,0,50.578,0,75.867,0
		c9.297,0,18.595,0,27.892,0c1.472,0,2.944,0,4.417,0c9.608,0,16.503-7.782,17-17C289.662,271.098,279.66,271.132,279.315,277.545z"
		/>
</g>
<g>
	<g>
		<path fill="#FFFFFF" d="M173.119,122.144c7.768-7.854,15.686-16.238,24.711-22.65c5.322-3.78,12.288-5.624,18.396-7.686
			c4.541-1.533,9.116-2.977,13.715-4.327c-1.318-0.536-2.635-1.072-3.953-1.608c1.885,3.77,3.678,7.585,5.424,11.421
			c2.552,5.604,5.922,11.911,6.702,18.106c1.359,10.809-0.088,22.386-1.001,33.2c1.477-1.125,2.954-2.25,4.431-3.375
			c-23.324-9.644-46.647-19.287-69.97-28.931c-4.172-1.725-5.971,5.051-1.861,6.75c23.324,9.644,46.647,19.287,69.97,28.931
			c2.273,0.939,4.261-1.363,4.431-3.375c0.936-11.083,2.306-22.825,0.913-33.902c-0.823-6.542-3.987-12.854-6.62-18.822
			c-2.012-4.562-4.144-9.078-6.374-13.537c-0.687-1.373-2.524-2.027-3.953-1.608C217.118,83.949,204.6,86.9,194.875,93.06
			c-9.944,6.299-18.468,15.807-26.707,24.134C164.993,120.405,169.941,125.356,173.119,122.144z"/>
	</g>
	<g>
		<path fill="#FFFFFF" d="M250.73,213.602c8.792-36.369,17.583-72.737,26.374-109.106c1.515-6.266-8.128-8.925-9.643-2.658
			c-8.792,36.369-17.583,72.737-26.374,109.106C239.573,217.209,249.215,219.868,250.73,213.602L250.73,213.602z"/>
	</g>
	<g>
		<path fill="#FFFFFF" d="M274.678,98.73c-14.469-7.275-28.938-14.549-43.408-21.824c-5.745-2.888-10.81,5.737-5.047,8.635
			c14.469,7.275,28.938,14.549,43.408,21.824C275.376,110.253,280.441,101.628,274.678,98.73L274.678,98.73z"/>
	</g>
	<g>
		<path fill="#FFFFFF" d="M193.648,222.939c22.778,0,45.556,0,68.333,0c6.449,0,6.449-10,0-10c-22.778,0-45.556,0-68.333,0
			C187.2,212.939,187.2,222.939,193.648,222.939L193.648,222.939z"/>
	</g>
	<g>
		<path fill="#FFFFFF" d="M198.575,217.939c19.556,0,39.111,0,58.667,0c6.449,0,6.449-10,0-10c-19.556,0-39.111,0-58.667,0
			C192.126,207.939,192.126,217.939,198.575,217.939L198.575,217.939z"/>
	</g>
	<g>
		<path fill="#FFFFFF" d="M202.315,209.272c0,1.778,0,3.556,0,5.333c0,2.726,2.274,5,5,5s5-2.274,5-5c0-1.778,0-3.556,0-5.333
			c0-2.726-2.274-5-5-5S202.315,206.547,202.315,209.272L202.315,209.272z"/>
	</g>
	<g>
		<path fill="#FFFFFF" d="M239.108,87.689c-4.792-2.3-9.585-4.601-14.378-6.901c-5.784-2.776-10.859,5.845-5.047,8.635
			c4.792,2.3,9.585,4.601,14.378,6.901C239.845,99.101,244.92,90.479,239.108,87.689L239.108,87.689z"/>
	</g>
</g>
</svg>
