<?xml version="1.0" encoding="iso-8859-1"?>
<!-- Generator: Adobe Illustrator 16.0.0, SVG Export Plug-In . SVG Version: 6.00 Build 0)  -->
<!DOCTYPE svg PUBLIC "-//W3C//DTD SVG 1.1//EN" "http://www.w3.org/Graphics/SVG/1.1/DTD/svg11.dtd">
<svg version="1.1" xmlns="http://www.w3.org/2000/svg" xmlns:xlink="http://www.w3.org/1999/xlink" x="0px" y="0px" width="361px"
	 height="361px" viewBox="0 0 361 361" style="enable-background:new 0 0 361 361;" xml:space="preserve">
<g id="light_x5F_led">
	<g>
		<g>
			<path style="fill:#FFFFFF;" d="M84.09,162.513c8.917,1.522,17.833,3.045,26.749,4.567c4.414,0.754,6.304-5.991,1.861-6.75
				c-8.917-1.522-17.833-3.045-26.749-4.567C81.537,155.009,79.647,161.754,84.09,162.513L84.09,162.513z"/>
		</g>
	</g>
	<g>
		<g>
			<path style="fill:#FFFFFF;" d="M84.364,172.128c8.917,1.522,17.833,3.045,26.749,4.567c4.414,0.753,6.304-5.991,1.861-6.75
				c-8.917-1.522-17.833-3.045-26.749-4.567C81.812,164.625,79.921,171.37,84.364,172.128L84.364,172.128z"/>
		</g>
	</g>
	<g>
		<g>
			<path style="fill:#FFFFFF;" d="M84.364,181.47c8.917,1.522,17.833,3.045,26.749,4.567c4.414,0.754,6.304-5.991,1.861-6.75
				c-8.917-1.522-17.833-3.045-26.749-4.567C81.812,173.966,79.921,180.711,84.364,181.47L84.364,181.47z"/>
		</g>
	</g>
	<g>
		<g>
			<path style="fill:#FFFFFF;" d="M90.058,191.441c5.004,0.854,10.008,1.708,15.012,2.563c4.414,0.754,6.304-5.991,1.861-6.75
				c-5.004-0.854-10.008-1.708-15.012-2.563C87.505,183.938,85.615,190.683,90.058,191.441L90.058,191.441z"/>
		</g>
	</g>
	<path style="fill:none;stroke:#FFFFFF;stroke-width:10;stroke-miterlimit:10;" d="M121.034,136.573
		c0,7.544-6.116,13.66-13.66,13.66H89.16c-7.544,0-13.66-6.116-13.66-13.66V88.004c0-7.544,6.116-13.66,13.66-13.66h18.213
		c7.544,0,13.66,6.116,13.66,13.66V136.573z"/>
	<g>
		<path style="fill:#FFFFFF;" d="M156.801,282.51v9.157H111.34v-75.551h10.575v66.394H156.801z"/>
		<path style="fill:#FFFFFF;" d="M167.921,291.667v-75.551h46.116v9.049h-35.541v22.458h31.615v8.83h-31.615v26.165h38.266v9.049
			H167.921z"/>
		<path style="fill:#FFFFFF;" d="M292.203,253.837c0,6.542-1.019,12.229-3.053,17.062c-2.035,4.834-4.905,8.831-8.612,11.992
			c-3.706,3.162-8.141,5.524-13.3,7.086c-5.162,1.564-10.831,2.345-17.008,2.345c-3.053,0-6.415-0.128-10.084-0.382
			c-3.671-0.256-6.996-0.744-9.976-1.472v-73.261c2.979-0.727,6.305-1.217,9.976-1.473c3.669-0.254,7.031-0.381,10.084-0.381
			c6.177,0,11.846,0.781,17.008,2.344c5.159,1.563,9.594,3.925,13.3,7.086c3.707,3.162,6.577,7.16,8.612,11.992
			C291.185,241.609,292.203,247.296,292.203,253.837z M251.104,283.055c10.029,0,17.514-2.563,22.457-7.686
			c4.941-5.125,7.414-12.301,7.414-21.532c0-9.229-2.473-16.407-7.414-21.531c-4.943-5.124-12.428-7.687-22.457-7.687
			c-2.981,0-5.288,0.038-6.924,0.109c-1.635,0.074-2.779,0.146-3.434,0.219v57.78c0.654,0.073,1.799,0.146,3.434,0.218
			C245.815,283.019,248.122,283.055,251.104,283.055z"/>
	</g>
</g>
<g id="Ebene_1">
</g>
</svg>
