<?xml version="1.0" encoding="iso-8859-1"?>
<!-- Generator: Adobe Illustrator 16.0.0, SVG Export Plug-In . SVG Version: 6.00 Build 0)  -->
<!DOCTYPE svg PUBLIC "-//W3C//DTD SVG 1.1//EN" "http://www.w3.org/Graphics/SVG/1.1/DTD/svg11.dtd">
<svg version="1.1" xmlns="http://www.w3.org/2000/svg" xmlns:xlink="http://www.w3.org/1999/xlink" x="0px" y="0px" width="361px"
	 height="361px" viewBox="0 0 361 361" style="enable-background:new 0 0 361 361;" xml:space="preserve">
<g id="light_x5F_mirror">
	<g>
		<g>
			<path style="fill:#FFFFFF;" d="M84.09,162.513c8.917,1.522,17.833,3.045,26.749,4.567c4.414,0.754,6.304-5.991,1.861-6.75
				c-8.917-1.522-17.833-3.045-26.749-4.567C81.537,155.009,79.647,161.754,84.09,162.513L84.09,162.513z"/>
		</g>
	</g>
	<g>
		<g>
			<path style="fill:#FFFFFF;" d="M84.364,172.128c8.917,1.522,17.833,3.045,26.749,4.567c4.414,0.753,6.304-5.991,1.861-6.75
				c-8.917-1.522-17.833-3.045-26.749-4.567C81.812,164.625,79.921,171.37,84.364,172.128L84.364,172.128z"/>
		</g>
	</g>
	<g>
		<g>
			<path style="fill:#FFFFFF;" d="M84.364,181.47c8.917,1.522,17.833,3.045,26.749,4.567c4.414,0.754,6.304-5.991,1.861-6.75
				c-8.917-1.522-17.833-3.045-26.749-4.567C81.812,173.966,79.921,180.711,84.364,181.47L84.364,181.47z"/>
		</g>
	</g>
	<g>
		<g>
			<path style="fill:#FFFFFF;" d="M90.058,191.441c5.004,0.854,10.008,1.708,15.012,2.563c4.414,0.754,6.304-5.991,1.861-6.75
				c-5.004-0.854-10.008-1.708-15.012-2.563C87.505,183.938,85.615,190.683,90.058,191.441L90.058,191.441z"/>
		</g>
	</g>
	<path style="fill:none;stroke:#FFFFFF;stroke-width:10;stroke-miterlimit:10;" d="M121.034,136.573
		c0,7.544-6.116,13.66-13.66,13.66H89.16c-7.544,0-13.66-6.116-13.66-13.66V88.004c0-7.544,6.116-13.66,13.66-13.66h18.213
		c7.544,0,13.66,6.116,13.66,13.66V136.573z"/>
	<g>
		<g>
			<path style="fill:#FFFFFF;" d="M169.502,237.304c-5.447-0.627-4.169-7.514-4.169-10.774c0-5.884,0-11.768,0-17.651
				c0-16,0-32,0-48c0-10.266,0-20.532,0-30.797c0-4.905,4.284-4.777,7.287-4.777c4.65,0,9.3,0,13.949,0c29.442,0,58.885,0,88.327,0
				c3.12,0,6.241,0,9.361,0c5.232,0,4.575,5.01,4.575,7.991c0,12.699,0,25.397,0,38.096c0,15.429,0,30.859,0,46.288
				c0,4.751,2.782,19.625-5.507,19.625c-26.684,0-53.368,0-80.053,0C192.017,237.304,180.76,237.304,169.502,237.304
				c-1.935,0-1.935,3,0,3c23.651,0,47.301,0,70.952,0c12.881,0,25.763,0,38.645,0c2.084,0,5.22,0.527,7.264-0.203
				c4.511-1.612,5.471-5.06,5.471-9.32c0-27.604,0-55.208,0-82.812c0-5.023,0-10.047,0-15.071c0-3.228,0.306-7.127-2.866-9.144
				c-2.727-1.733-5.497-1.45-8.564-1.45c-5.02,0-10.04,0-15.061,0c-29.255,0-58.511,0-87.766,0c-6.491,0-15.243-1.056-15.243,8.165
				c0,10.757,0,21.515,0,32.272c0,17.3,0,34.6,0,51.898c0,5.269,0,10.537,0,15.805c0,4.994,1.384,9.194,7.169,9.86
				C171.422,240.524,171.401,237.522,169.502,237.304z"/>
		</g>
	</g>
	<g>
		<g>
			<path style="fill:#FFFFFF;" d="M175.583,116.167c11.167,0,22.333,0,33.5,0c4.514,0,4.514-7,0-7c-11.167,0-22.333,0-33.5,0
				C171.069,109.167,171.069,116.167,175.583,116.167L175.583,116.167z"/>
		</g>
	</g>
	<g>
		<g>
			<path style="fill:#FFFFFF;" d="M192.333,123.304c-0.161-7.275-5.318-12.001-12.5-12.137c-1.936-0.037-1.932,2.963,0,3
				c5.523,0.104,9.375,3.506,9.5,9.137C189.376,125.236,192.376,125.24,192.333,123.304L192.333,123.304z"/>
		</g>
	</g>
	<g>
		<g>
			<path style="fill:#FFFFFF;" d="M241.583,115.985c11.167,0,22.333,0,33.5,0c4.514,0,4.514-7,0-7c-11.167,0-22.333,0-33.5,0
				C237.069,108.985,237.069,115.985,241.583,115.985L241.583,115.985z"/>
		</g>
	</g>
	<g>
		<g>
			<path style="fill:#FFFFFF;" d="M265.333,123.123c-0.161-7.275-5.318-12.001-12.5-12.137c-1.936-0.037-1.933,2.963,0,3
				c5.523,0.104,9.375,3.506,9.5,9.137C262.376,125.054,265.376,125.058,265.333,123.123L265.333,123.123z"/>
		</g>
	</g>
	<g>
		<g>
			<path style="fill:#FFFFFF;" d="M227.095,201.072c12.015-11.399,24.029-22.798,36.044-34.198c1.406-1.334-0.719-3.452-2.121-2.121
				c-12.015,11.399-24.029,22.798-36.044,34.198C223.567,200.285,225.692,202.403,227.095,201.072L227.095,201.072z"/>
		</g>
	</g>
	<g>
		<g>
			<path style="fill:#FFFFFF;" d="M216.232,226.33c22.244-21.104,44.489-42.209,66.733-63.313c1.406-1.334-0.719-3.452-2.121-2.121
				c-22.244,21.104-44.489,42.209-66.733,63.313C212.705,225.543,214.83,227.661,216.232,226.33L216.232,226.33z"/>
		</g>
	</g>
	<g>
		<g>
			<path style="fill:#FFFFFF;" d="M233.515,226.383c13.024-12.356,26.048-24.714,39.072-37.07c1.406-1.334-0.719-3.452-2.121-2.121
				c-13.024,12.356-26.048,24.714-39.072,37.07C229.987,225.596,232.112,227.714,233.515,226.383L233.515,226.383z"/>
		</g>
	</g>
</g>
<g id="Ebene_1">
</g>
</svg>
