<?xml version="1.0" encoding="iso-8859-1"?>
<!-- Generator: Adobe Illustrator 16.0.3, SVG Export Plug-In . SVG Version: 6.00 Build 0)  -->
<!DOCTYPE svg PUBLIC "-//W3C//DTD SVG 1.1//EN" "http://www.w3.org/Graphics/SVG/1.1/DTD/svg11.dtd">
<svg version="1.1" xmlns="http://www.w3.org/2000/svg" xmlns:xlink="http://www.w3.org/1999/xlink" x="0px" y="0px" width="361px"
	 height="361px" viewBox="0 0 361 361" style="enable-background:new 0 0 361 361;" xml:space="preserve">
<g id="light_x5F_x-mas_x5F_star_x5F_1">
	<g>
		<g>
			<g>
				<path style="fill:#FFFFFF;" d="M83.84,163.013c8.917,1.522,17.833,3.045,26.749,4.567c4.414,0.754,6.304-5.991,1.861-6.75
					c-8.917-1.522-17.833-3.045-26.749-4.567C81.287,155.509,79.397,162.254,83.84,163.013L83.84,163.013z"/>
			</g>
		</g>
		<g>
			<g>
				<path style="fill:#FFFFFF;" d="M84.114,172.628c8.917,1.522,17.833,3.045,26.749,4.567c4.414,0.753,6.304-5.991,1.861-6.75
					c-8.917-1.522-17.833-3.045-26.749-4.567C81.562,165.125,79.671,171.87,84.114,172.628L84.114,172.628z"/>
			</g>
		</g>
		<g>
			<g>
				<path style="fill:#FFFFFF;" d="M84.114,181.97c8.917,1.522,17.833,3.045,26.749,4.567c4.414,0.754,6.304-5.991,1.861-6.75
					c-8.917-1.522-17.833-3.045-26.749-4.567C81.562,174.466,79.671,181.211,84.114,181.97L84.114,181.97z"/>
			</g>
		</g>
		<g>
			<g>
				<path style="fill:#FFFFFF;" d="M89.808,191.941c5.004,0.854,10.008,1.708,15.012,2.563c4.414,0.754,6.304-5.991,1.861-6.75
					c-5.004-0.854-10.008-1.708-15.012-2.563C87.255,184.438,85.365,191.183,89.808,191.941L89.808,191.941z"/>
			</g>
		</g>
		<path style="fill:none;stroke:#FFFFFF;stroke-width:10;stroke-miterlimit:10;" d="M120.784,137.073
			c0,7.544-6.116,13.66-13.66,13.66H88.91c-7.544,0-13.66-6.116-13.66-13.66V88.504c0-7.544,6.116-13.66,13.66-13.66h18.213
			c7.544,0,13.66,6.116,13.66,13.66V137.073z"/>
	</g>
	<g>
		
			<polygon style="fill:none;stroke:#FFFFFF;stroke-width:10;stroke-linecap:round;stroke-linejoin:round;stroke-miterlimit:10;" points="
			208.672,261.178 257.113,286.646 247.861,232.705 287.051,194.505 232.893,186.635 208.672,137.558 184.45,186.635 
			130.291,194.505 169.481,232.705 160.229,286.646 		"/>
		
			<polygon style="fill:none;stroke:#FFFFFF;stroke-width:10;stroke-linecap:round;stroke-linejoin:round;stroke-miterlimit:10;" points="
			208.672,239.64 232.893,252.373 228.266,225.403 247.861,206.303 220.781,202.368 208.672,177.83 196.561,202.368 
			169.481,206.303 189.076,225.403 184.451,252.373 		"/>
	</g>
</g>
<g id="Ebene_1">
</g>
</svg>
