<?xml version="1.0" encoding="iso-8859-1"?>
<!-- Generator: Adobe Illustrator 16.0.0, SVG Export Plug-In . SVG Version: 6.00 Build 0)  -->
<!DOCTYPE svg PUBLIC "-//W3C//DTD SVG 1.1 Tiny//EN" "http://www.w3.org/Graphics/SVG/1.1/DTD/svg11-tiny.dtd">
<svg version="1.1" baseProfile="tiny" id="light_x5F_outdoor"
	 xmlns="http://www.w3.org/2000/svg" xmlns:xlink="http://www.w3.org/1999/xlink" x="0px" y="0px" width="361px" height="361px"
	 viewBox="0 0 361 361" xml:space="preserve">
<g>
	<polygon fill="#FFFFFF" points="284.361,159.045 284.606,78.045 177.805,159.045 	"/>
	<g>
		<path fill="#FFFFFF" d="M289.361,159.045c0.082-27,0.163-54,0.245-81c0.01-3.45-4.398-6.688-7.523-4.317
			c-35.59,26.992-71.18,53.984-106.77,80.977c-0.011,0.008-0.021,0.016-0.031,0.023c-3.729,2.828-2.879,9.317,2.523,9.317
			c35.519,0,71.038,0,106.557,0c6.449,0,6.449-10,0-10c-35.519,0-71.038,0-106.557,0c0.841,3.106,1.683,6.211,2.523,9.317
			c35.59-26.992,71.18-53.984,106.77-80.977c0.011-0.008,0.021-0.016,0.031-0.023c-2.508-1.439-5.016-2.878-7.523-4.317
			c-0.082,27-0.163,54-0.245,81C279.342,165.495,289.342,165.493,289.361,159.045z"/>
	</g>
</g>
<path fill="none" stroke="#FFFFFF" stroke-width="10" stroke-miterlimit="10" d="M231.606,283.866c0,3.136,2.687,5.679,6,5.679h23.5
	c3.313,0,6-2.542,6-5.679v-68.143c0-3.136-2.687-5.679-6-5.679h-23.5c-3.313,0-6,2.542-6,5.679V283.866z"/>
<path fill="none" stroke="#FFFFFF" stroke-width="10" stroke-miterlimit="10" d="M196.206,284.378c0,3.222,4.727,5.834,10.558,5.834
	h66.884c5.832,0,10.558-2.612,10.558-5.834v-122.5c0-3.222-4.727-5.833-10.558-5.833h-66.884c-5.832,0-10.558,2.612-10.558,5.833
	V284.378z"/>
<g id="zaun_2_">
	<g>
		<path fill="#FFFFFF" d="M165.852,236.021c0,18.044,0,36.088,0,54.132c0,4.514,7,4.514,7,0c0-18.044,0-36.088,0-54.132
			C172.852,231.507,165.852,231.507,165.852,236.021L165.852,236.021z"/>
	</g>
	<g>
		<path fill="#FFFFFF" d="M154.501,236.08c0,18.044,0,36.088,0,54.132c0,4.514,7,4.514,7,0c0-18.044,0-36.088,0-54.132
			C161.501,231.566,154.501,231.566,154.501,236.08L154.501,236.08z"/>
	</g>
	<g>
		<path fill="#FFFFFF" d="M143.151,236.08c0,18.044,0,36.088,0,54.132c0,4.514,7,4.514,7,0c0-18.044,0-36.088,0-54.132
			C150.151,231.566,143.151,231.566,143.151,236.08L143.151,236.08z"/>
	</g>
	<g>
		<path fill="#FFFFFF" d="M131.801,236.08c0,18.044,0,36.088,0,54.132c0,4.514,7,4.514,7,0c0-18.044,0-36.088,0-54.132
			C138.801,231.566,131.801,231.566,131.801,236.08L131.801,236.08z"/>
	</g>
	<g>
		<path fill="#FFFFFF" d="M120.451,236.021c0,18.044,0,36.088,0,54.132c0,4.514,7,4.514,7,0c0-18.044,0-36.088,0-54.132
			C127.451,231.507,120.451,231.507,120.451,236.021L120.451,236.021z"/>
	</g>
	<g>
		<path fill="#FFFFFF" d="M109.1,236.08c0,18.044,0,36.088,0,54.132c0,4.514,7,4.514,7,0c0-18.044,0-36.088,0-54.132
			C116.1,231.566,109.1,231.566,109.1,236.08L109.1,236.08z"/>
	</g>
	<g>
		<path fill="#FFFFFF" d="M97.75,236.08c0,18.044,0,36.088,0,54.132c0,4.514,7,4.514,7,0c0-18.044,0-36.088,0-54.132
			C104.75,231.566,97.75,231.566,97.75,236.08L97.75,236.08z"/>
	</g>
	<g>
		<path fill="#FFFFFF" d="M86.4,236.08c0,18.044,0,36.088,0,54.132c0,4.514,7,4.514,7,0c0-18.044,0-36.088,0-54.132
			C93.4,231.566,86.4,231.566,86.4,236.08L86.4,236.08z"/>
	</g>
	<g>
		<path fill="#FFFFFF" d="M75.049,236.021c0,18.044,0,36.088,0,54.132c0,4.514,7,4.514,7,0c0-18.044,0-36.088,0-54.132
			C82.049,231.507,75.049,231.507,75.049,236.021L75.049,236.021z"/>
	</g>
	<g>
		<path fill="#FFFFFF" d="M173.75,243.057c-33.868,0-67.736,0-101.604,0c-4.514,0-4.514,7,0,7c33.868,0,67.736,0,101.604,0
			C178.265,250.057,178.265,243.057,173.75,243.057L173.75,243.057z"/>
	</g>
	<g>
		<path fill="#FFFFFF" d="M174.074,275.885c-34.053,0-68.107,0-102.16,0c-4.514,0-4.514,7,0,7c34.053,0,68.107,0,102.16,0
			C178.588,282.885,178.588,275.885,174.074,275.885L174.074,275.885z"/>
	</g>
</g>
<g>
	<path fill="#FFFFFF" d="M81.322,165.711c8.917,1.522,17.833,3.045,26.749,4.567c4.414,0.754,6.304-5.991,1.861-6.75
		c-8.917-1.522-17.833-3.045-26.749-4.567C78.769,158.208,76.879,164.952,81.322,165.711L81.322,165.711z"/>
</g>
<g>
	<path fill="#FFFFFF" d="M81.596,175.327c8.917,1.522,17.833,3.045,26.749,4.567c4.414,0.753,6.304-5.991,1.861-6.75
		c-8.917-1.522-17.833-3.045-26.749-4.567C79.043,167.823,77.153,174.568,81.596,175.327L81.596,175.327z"/>
</g>
<g>
	<path fill="#FFFFFF" d="M81.596,184.668c8.917,1.522,17.833,3.045,26.749,4.567c4.414,0.754,6.304-5.991,1.861-6.75
		c-8.917-1.522-17.833-3.045-26.749-4.567C79.043,177.164,77.153,183.909,81.596,184.668L81.596,184.668z"/>
</g>
<g>
	<path fill="#FFFFFF" d="M87.29,194.639c5.004,0.854,10.008,1.709,15.012,2.563c4.414,0.754,6.304-5.991,1.861-6.75
		c-5.004-0.854-10.008-1.709-15.012-2.563C84.737,187.135,82.847,193.88,87.29,194.639L87.29,194.639z"/>
</g>
<path fill="none" stroke="#FFFFFF" stroke-width="10" stroke-miterlimit="10" d="M118.266,139.771c0,7.544-6.116,13.66-13.66,13.66
	H86.392c-7.544,0-13.66-6.116-13.66-13.66V91.202c0-7.544,6.116-13.66,13.66-13.66h18.213c7.544,0,13.66,6.116,13.66,13.66V139.771z
	"/>
</svg>
