<?xml version="1.0" encoding="iso-8859-1"?>
<!-- Generator: Adobe Illustrator 16.0.0, SVG Export Plug-In . SVG Version: 6.00 Build 0)  -->
<!DOCTYPE svg PUBLIC "-//W3C//DTD SVG 1.1 Tiny//EN" "http://www.w3.org/Graphics/SVG/1.1/DTD/svg11-tiny.dtd">
<svg version="1.1" baseProfile="tiny" id="light_x5F_cabinet"
	 xmlns="http://www.w3.org/2000/svg" xmlns:xlink="http://www.w3.org/1999/xlink" x="0px" y="0px" width="361px" height="361px"
	 viewBox="0 0 361 361" xml:space="preserve">
<g>
	<path fill="#FFFFFF" d="M81.572,165.391c8.917,1.522,17.833,3.045,26.749,4.567c4.414,0.754,6.304-5.991,1.861-6.75
		c-8.917-1.522-17.833-3.045-26.749-4.567C79.019,157.887,77.129,164.632,81.572,165.391L81.572,165.391z"/>
</g>
<g>
	<path fill="#FFFFFF" d="M81.846,175.006c8.917,1.522,17.833,3.045,26.749,4.567c4.414,0.753,6.304-5.991,1.861-6.75
		c-8.917-1.522-17.833-3.045-26.749-4.567C79.293,167.503,77.403,174.248,81.846,175.006L81.846,175.006z"/>
</g>
<g>
	<path fill="#FFFFFF" d="M81.846,184.348c8.917,1.522,17.833,3.045,26.749,4.567c4.414,0.754,6.304-5.991,1.861-6.75
		c-8.917-1.522-17.833-3.045-26.749-4.567C79.293,176.844,77.403,183.589,81.846,184.348L81.846,184.348z"/>
</g>
<g>
	<path fill="#FFFFFF" d="M87.54,194.319c5.004,0.854,10.008,1.709,15.012,2.563c4.414,0.754,6.304-5.991,1.861-6.75
		c-5.004-0.854-10.008-1.709-15.012-2.563C84.987,186.815,83.097,193.56,87.54,194.319L87.54,194.319z"/>
</g>
<path fill="none" stroke="#FFFFFF" stroke-width="10" stroke-miterlimit="10" d="M118.516,139.451c0,7.544-6.116,13.66-13.66,13.66
	H86.642c-7.544,0-13.66-6.116-13.66-13.66V90.882c0-7.544,6.116-13.66,13.66-13.66h18.213c7.544,0,13.66,6.116,13.66,13.66V139.451z
	"/>
<g id="Vitrine">
	<g>
		<path fill="#FFFFFF" d="M282.315,279.125c-0.383,3.33-6.938,2.169-8.775,2.169c-5.884,0-11.768,0-17.651,0c-16,0-32,0-48,0
			c-10.266,0-20.532,0-30.797,0c-4.616,0-2.777-11.129-2.777-13.571c0-55.083,0-110.166,0-165.249c0-4.129-1.648-10.68,4.209-10.68
			c11.675,0,23.35,0,35.024,0c15.77,0,31.541,0,47.311,0c5.155,0,10.31,0,15.464,0c1.756,0,5.991-0.733,5.991,2.424
			c0,51.36,0,102.72,0,154.08C282.315,258.574,282.315,268.85,282.315,279.125c0,4.514,7,4.514,7,0c0-49.871,0-99.741,0-149.611
			c0-10.098,0-20.195,0-30.293c0-7.021-0.985-14.426-10.165-14.426c-26.703,0-53.405,0-80.107,0c-5.652,0-11.304,0-16.955,0
			c-2.992,0-6.17-0.32-9.027,0.701c-7.425,2.654-5.746,12.7-5.746,18.865c0,27.728,0,55.455,0,83.183c0,27.383,0,54.766,0,82.148
			c0,6.678-1.503,17.374,7.87,18.453c8.344,0.961,17.175,0.15,25.557,0.15c18.949,0,37.897,0,56.846,0c6.378,0,12.756,0,19.134,0
			c6.347,0,11.743-1.774,12.594-9.169C289.831,274.646,282.825,274.695,282.315,279.125z"/>
	</g>
	<g>
		<path fill="#FFFFFF" d="M178.065,294.295c4.333,0,8.667,0,13,0c6.449,0,6.449-10,0-10c-4.333,0-8.667,0-13,0
			C171.616,284.295,171.616,294.295,178.065,294.295L178.065,294.295z"/>
	</g>
	<g>
		<path fill="#FFFFFF" d="M266.815,294.295c4.333,0,8.667,0,13,0c6.449,0,6.449-10,0-10c-4.333,0-8.667,0-13,0
			C260.366,284.295,260.366,294.295,266.815,294.295L266.815,294.295z"/>
	</g>
	<g>
		<path fill="#FFFFFF" d="M224.815,90.878c0,43.667,0,87.333,0,131c0,4.514,7,4.514,7,0c0-43.667,0-87.333,0-131
			C231.815,86.364,224.815,86.364,224.815,90.878L224.815,90.878z"/>
	</g>
	<g>
		<path fill="#FFFFFF" d="M170.815,226.712c38.333,0,76.667,0,115,0c4.514,0,4.514-7,0-7c-38.333,0-76.667,0-115,0
			C166.301,219.712,166.301,226.712,170.815,226.712L170.815,226.712z"/>
	</g>
	<g>
		<path fill="#FFFFFF" d="M170.815,257.712c38.333,0,76.667,0,115,0c4.514,0,4.514-7,0-7c-38.333,0-76.667,0-115,0
			C166.301,250.712,166.301,257.712,170.815,257.712L170.815,257.712z"/>
	</g>
	<g>
		<path fill="#FFFFFF" d="M255.565,236.378c5.944,0,11.889,0,17.833,0c1.935,0,1.935-3,0-3c-5.944,0-11.889,0-17.833,0
			C253.63,233.378,253.63,236.378,255.565,236.378L255.565,236.378z"/>
	</g>
	<g>
		<path fill="#FFFFFF" d="M183.231,236.378c5.944,0,11.889,0,17.833,0c1.935,0,1.935-3,0-3c-5.944,0-11.889,0-17.833,0
			C181.297,233.378,181.297,236.378,183.231,236.378L183.231,236.378z"/>
	</g>
	<g>
		<path fill="#FFFFFF" d="M255.565,267.712c5.944,0,11.889,0,17.833,0c1.935,0,1.935-3,0-3c-5.944,0-11.889,0-17.833,0
			C253.631,264.712,253.631,267.712,255.565,267.712L255.565,267.712z"/>
	</g>
	<g>
		<path fill="#FFFFFF" d="M183.232,267.712c5.944,0,11.889,0,17.833,0c1.935,0,1.935-3,0-3c-5.944,0-11.889,0-17.833,0
			C181.297,264.712,181.297,267.712,183.232,267.712L183.232,267.712z"/>
	</g>
	<g>
		<path fill="#FFFFFF" d="M170.815,179.045c38.333,0,76.667,0,115,0c1.935,0,1.935-3,0-3c-38.333,0-76.667,0-115,0
			C168.88,176.045,168.88,179.045,170.815,179.045L170.815,179.045z"/>
	</g>
	<g>
		<path fill="#FFFFFF" d="M170.815,133.045c38.333,0,76.667,0,115,0c1.935,0,1.935-3,0-3c-38.333,0-76.667,0-115,0
			C168.88,130.045,168.88,133.045,170.815,133.045L170.815,133.045z"/>
	</g>
	<g>
		<path fill="#FFFFFF" d="M221.481,170.045c0,5,0,10,0,15c0,4.514,7,4.514,7,0c0-5,0-10,0-15
			C228.481,165.531,221.481,165.531,221.481,170.045L221.481,170.045z"/>
	</g>
	<g>
		<path fill="#FFFFFF" d="M228.148,170.045c0,5,0,10,0,15c0,4.514,7,4.514,7,0c0-5,0-10,0-15
			C235.148,165.531,228.148,165.531,228.148,170.045L228.148,170.045z"/>
	</g>
</g>
</svg>
