<?xml version="1.0" encoding="iso-8859-1"?>
<!-- Generator: Adobe Illustrator 16.0.0, SVG Export Plug-In . SVG Version: 6.00 Build 0)  -->
<!DOCTYPE svg PUBLIC "-//W3C//DTD SVG 1.1//EN" "http://www.w3.org/Graphics/SVG/1.1/DTD/svg11.dtd">
<svg version="1.1" xmlns="http://www.w3.org/2000/svg" xmlns:xlink="http://www.w3.org/1999/xlink" x="0px" y="0px" width="361px"
	 height="361px" viewBox="0 0 361 361" style="enable-background:new 0 0 361 361;" xml:space="preserve">
<g id="light_x5F_outdoor">
	<g>
		<polygon style="fill:#FFFFFF;" points="286.879,156.167 287.124,75.167 180.323,156.167 		"/>
		<g>
			<path style="fill:#FFFFFF;" d="M291.879,156.167c0.082-27,0.163-54,0.245-81c0.011-3.45-4.397-6.688-7.523-4.317
				c-35.59,26.992-71.181,53.984-106.77,80.977c-0.011,0.008-0.021,0.016-0.031,0.023c-3.729,2.828-2.879,9.317,2.523,9.317
				c35.519,0,71.038,0,106.556,0c6.448,0,6.448-10,0-10c-35.519,0-71.037,0-106.556,0c0.841,3.106,1.682,6.211,2.524,9.317
				c35.59-26.992,71.18-53.984,106.77-80.977c0.011-0.008,0.021-0.016,0.031-0.023c-2.508-1.439-5.016-2.878-7.523-4.317
				c-0.082,27-0.163,54-0.245,81C281.859,162.617,291.859,162.615,291.879,156.167z"/>
		</g>
	</g>
	<path style="fill:none;stroke:#FFFFFF;stroke-width:10;stroke-miterlimit:10;" d="M234.124,280.988c0,3.137,2.687,5.679,6,5.679
		h23.5c3.313,0,6-2.542,6-5.679v-68.143c0-3.137-2.687-5.679-6-5.679h-23.5c-3.313,0-6,2.542-6,5.679V280.988z"/>
	<path style="fill:none;stroke:#FFFFFF;stroke-width:10;stroke-miterlimit:10;" d="M198.724,281.5c0,3.223,4.727,5.834,10.558,5.834
		h66.885c5.831,0,10.558-2.611,10.558-5.834V159c0-3.222-4.727-5.833-10.558-5.833h-66.885c-5.831,0-10.558,2.612-10.558,5.833
		V281.5z"/>
	<g id="zaun_2_">
		<g>
			<g>
				<path style="fill:#FFFFFF;" d="M168.37,233.144c0,18.044,0,36.088,0,54.132c0,4.514,7,4.514,7,0c0-18.044,0-36.088,0-54.132
					C175.37,228.63,168.37,228.63,168.37,233.144L168.37,233.144z"/>
			</g>
		</g>
		<g>
			<g>
				<path style="fill:#FFFFFF;" d="M157.019,233.202c0,18.044,0,36.088,0,54.132c0,4.514,7,4.514,7,0c0-18.044,0-36.088,0-54.132
					C164.019,228.688,157.019,228.688,157.019,233.202L157.019,233.202z"/>
			</g>
		</g>
		<g>
			<g>
				<path style="fill:#FFFFFF;" d="M145.669,233.202c0,18.044,0,36.088,0,54.132c0,4.514,7,4.514,7,0c0-18.044,0-36.088,0-54.132
					C152.669,228.688,145.669,228.688,145.669,233.202L145.669,233.202z"/>
			</g>
		</g>
		<g>
			<g>
				<path style="fill:#FFFFFF;" d="M134.319,233.202c0,18.044,0,36.088,0,54.132c0,4.514,7,4.514,7,0c0-18.044,0-36.088,0-54.132
					C141.319,228.688,134.319,228.688,134.319,233.202L134.319,233.202z"/>
			</g>
		</g>
		<g>
			<g>
				<path style="fill:#FFFFFF;" d="M122.969,233.144c0,18.044,0,36.088,0,54.132c0,4.514,7,4.514,7,0c0-18.044,0-36.088,0-54.132
					C129.969,228.63,122.969,228.63,122.969,233.144L122.969,233.144z"/>
			</g>
		</g>
		<g>
			<g>
				<path style="fill:#FFFFFF;" d="M111.618,233.202c0,18.044,0,36.088,0,54.132c0,4.514,7,4.514,7,0c0-18.044,0-36.088,0-54.132
					C118.618,228.688,111.618,228.688,111.618,233.202L111.618,233.202z"/>
			</g>
		</g>
		<g>
			<g>
				<path style="fill:#FFFFFF;" d="M100.268,233.202c0,18.044,0,36.088,0,54.132c0,4.514,7,4.514,7,0c0-18.044,0-36.088,0-54.132
					C107.268,228.688,100.268,228.688,100.268,233.202L100.268,233.202z"/>
			</g>
		</g>
		<g>
			<g>
				<path style="fill:#FFFFFF;" d="M88.918,233.202c0,18.044,0,36.088,0,54.132c0,4.514,7,4.514,7,0c0-18.044,0-36.088,0-54.132
					C95.918,228.688,88.918,228.688,88.918,233.202L88.918,233.202z"/>
			</g>
		</g>
		<g>
			<g>
				<path style="fill:#FFFFFF;" d="M77.567,233.144c0,18.044,0,36.088,0,54.132c0,4.514,7,4.514,7,0c0-18.044,0-36.088,0-54.132
					C84.567,228.63,77.567,228.63,77.567,233.144L77.567,233.144z"/>
			</g>
		</g>
		<g>
			<g>
				<path style="fill:#FFFFFF;" d="M176.269,240.18c-33.868,0-67.736,0-101.604,0c-4.514,0-4.514,7,0,7c33.868,0,67.736,0,101.604,0
					C180.783,247.18,180.783,240.18,176.269,240.18L176.269,240.18z"/>
			</g>
		</g>
		<g>
			<g>
				<path style="fill:#FFFFFF;" d="M176.592,273.008c-34.053,0-68.107,0-102.16,0c-4.514,0-4.514,7,0,7c34.053,0,68.107,0,102.16,0
					C181.106,280.008,181.106,273.008,176.592,273.008L176.592,273.008z"/>
			</g>
		</g>
	</g>
	<g>
		<g>
			<path style="fill:#FFFFFF;" d="M83.84,162.833c8.917,1.522,17.833,3.045,26.749,4.567c4.414,0.754,6.304-5.991,1.861-6.75
				c-8.917-1.522-17.833-3.045-26.749-4.567C81.287,155.329,79.397,162.074,83.84,162.833L83.84,162.833z"/>
		</g>
	</g>
	<g>
		<g>
			<path style="fill:#FFFFFF;" d="M84.114,172.449c8.917,1.522,17.833,3.045,26.749,4.567c4.414,0.753,6.304-5.991,1.861-6.75
				c-8.917-1.522-17.833-3.045-26.749-4.567C81.562,164.945,79.671,171.69,84.114,172.449L84.114,172.449z"/>
		</g>
	</g>
	<g>
		<g>
			<path style="fill:#FFFFFF;" d="M84.114,181.79c8.917,1.522,17.833,3.045,26.749,4.567c4.414,0.754,6.304-5.991,1.861-6.75
				c-8.917-1.522-17.833-3.045-26.749-4.567C81.562,174.286,79.671,181.031,84.114,181.79L84.114,181.79z"/>
		</g>
	</g>
	<g>
		<g>
			<path style="fill:#FFFFFF;" d="M89.808,191.762c5.004,0.854,10.008,1.708,15.012,2.563c4.414,0.754,6.304-5.991,1.861-6.75
				c-5.004-0.854-10.008-1.708-15.012-2.563C87.255,184.258,85.365,191.003,89.808,191.762L89.808,191.762z"/>
		</g>
	</g>
	<path style="fill:none;stroke:#FFFFFF;stroke-width:10;stroke-miterlimit:10;" d="M120.784,136.894
		c0,7.544-6.116,13.66-13.66,13.66H88.91c-7.544,0-13.66-6.116-13.66-13.66V88.324c0-7.544,6.116-13.66,13.66-13.66h18.213
		c7.544,0,13.66,6.116,13.66,13.66V136.894z"/>
</g>
<g id="Ebene_1">
</g>
</svg>
