<?xml version="1.0" encoding="iso-8859-1"?>
<!-- Generator: Adobe Illustrator 16.0.0, SVG Export Plug-In . SVG Version: 6.00 Build 0)  -->
<!DOCTYPE svg PUBLIC "-//W3C//DTD SVG 1.1 Tiny//EN" "http://www.w3.org/Graphics/SVG/1.1/DTD/svg11-tiny.dtd">
<svg version="1.1" baseProfile="tiny" id="light_x5F_pendant_x5F_light_x5F_round"
	 xmlns="http://www.w3.org/2000/svg" xmlns:xlink="http://www.w3.org/1999/xlink" x="0px" y="0px" width="361px" height="361px"
	 viewBox="0 0 361 361" xml:space="preserve">
<g>
	<g>
		<path fill="#FFFFFF" d="M81.572,166.391c8.917,1.522,17.833,3.045,26.749,4.567c4.414,0.754,6.304-5.991,1.861-6.75
			c-8.917-1.522-17.833-3.045-26.749-4.567C79.019,158.887,77.129,165.632,81.572,166.391L81.572,166.391z"/>
	</g>
	<g>
		<path fill="#FFFFFF" d="M81.846,176.006c8.917,1.522,17.833,3.045,26.749,4.567c4.414,0.753,6.304-5.991,1.861-6.75
			c-8.917-1.522-17.833-3.045-26.749-4.567C79.293,168.503,77.403,175.248,81.846,176.006L81.846,176.006z"/>
	</g>
	<g>
		<path fill="#FFFFFF" d="M81.846,185.348c8.917,1.522,17.833,3.045,26.749,4.567c4.414,0.754,6.304-5.991,1.861-6.75
			c-8.917-1.522-17.833-3.045-26.749-4.567C79.293,177.844,77.403,184.589,81.846,185.348L81.846,185.348z"/>
	</g>
	<g>
		<path fill="#FFFFFF" d="M87.54,195.319c5.004,0.854,10.008,1.709,15.012,2.563c4.414,0.754,6.304-5.991,1.861-6.75
			c-5.004-0.854-10.008-1.709-15.012-2.563C84.987,187.815,83.097,194.56,87.54,195.319L87.54,195.319z"/>
	</g>
	<path fill="none" stroke="#FFFFFF" stroke-width="10" stroke-miterlimit="10" d="M118.516,140.451c0,7.544-6.116,13.66-13.66,13.66
		H86.642c-7.544,0-13.66-6.116-13.66-13.66V91.882c0-7.544,6.116-13.66,13.66-13.66h18.213c7.544,0,13.66,6.116,13.66,13.66V140.451
		z"/>
</g>
<path fill="#FFFFFF" stroke="#FFFFFF" stroke-miterlimit="10" d="M240.923,78.042c0,2.852-2.312,5.164-5.164,5.164h-14.58
	c-2.851,0-5.163-2.312-5.163-5.164l0,0c0-2.852,2.312-5.164,5.163-5.164h14.58C238.611,72.878,240.923,75.19,240.923,78.042
	L240.923,78.042z"/>
<g>
	<path fill="#FFFFFF" d="M223.469,85.318c0,30.928,0,61.856,0,92.784c0,6.449,10,6.449,10,0c0-30.928,0-61.856,0-92.784
		C233.469,78.87,223.469,78.87,223.469,85.318L223.469,85.318z"/>
</g>
<g>
	<path fill="#FFFFFF" d="M167.748,233.824c0.276,22.491,12.526,43,32.358,53.698c19.918,10.745,44.971,8.801,63.374-4.105
		c18.406-12.909,28.124-35.591,25.11-57.808c-3.023-22.287-18.208-40.495-38.938-48.687c-18.415-7.277-40.155-3.941-56.195,7.308
		C177.315,195.552,167.988,214.23,167.748,233.824c-0.079,6.452,9.921,6.444,10,0c0.28-22.813,15.297-42.589,37.237-48.909
		c22.038-6.349,45.637,3.955,57.28,23.309c11.846,19.691,7.886,45.279-7.931,61.465c-16.045,16.421-41.786,19.151-61.465,7.931
		c-15.636-8.915-24.903-26.001-25.121-43.796C177.669,227.38,167.669,227.372,167.748,233.824z"/>
</g>
<g>
	<path fill="#FFFFFF" d="M220.968,155.465c0,6.127,0,12.254,0,18.381c0,9.687,15.003,9.772,15.003,0.108c0-6.127,0-12.254,0-18.381
		C235.971,145.887,220.968,145.801,220.968,155.465L220.968,155.465z"/>
</g>
</svg>
