<?xml version="1.0" encoding="iso-8859-1"?>
<!-- Generator: Adobe Illustrator 16.0.0, SVG Export Plug-In . SVG Version: 6.00 Build 0)  -->
<!DOCTYPE svg PUBLIC "-//W3C//DTD SVG 1.1//EN" "http://www.w3.org/Graphics/SVG/1.1/DTD/svg11.dtd">
<svg version="1.1" xmlns="http://www.w3.org/2000/svg" xmlns:xlink="http://www.w3.org/1999/xlink" x="0px" y="0px" width="361px"
	 height="361px" viewBox="0 0 361 361" style="enable-background:new 0 0 361 361;" xml:space="preserve">
<g id="light_x5F_office_x5F_desk">
	<g>
		<g>
			<path style="fill:#FFFFFF;" d="M226.44,240.921c17.578,0,35.157,0,52.735,0c6.448,0,6.448-10,0-10c-17.578,0-35.157,0-52.735,0
				C219.992,230.921,219.992,240.921,226.44,240.921L226.44,240.921z"/>
		</g>
	</g>
	<g>
		<g>
			<path style="fill:#FFFFFF;" d="M248.963,240.385c0,9.414,0,18.828,0,28.242c0,6.448,10,6.448,10,0c0-9.414,0-18.828,0-28.242
				C258.963,233.937,248.963,233.937,248.963,240.385L248.963,240.385z"/>
		</g>
	</g>
	<g>
		<g>
			<path style="fill:#FFFFFF;" d="M254.136,266.025c-10.236,3.67-20.473,7.34-30.71,11.01c-4.216,1.512-2.398,8.277,1.861,6.75
				c10.236-3.67,20.473-7.34,30.71-11.01C260.213,271.264,258.396,264.498,254.136,266.025L254.136,266.025z"/>
		</g>
	</g>
	<g>
		<g>
			<path style="fill:#FFFFFF;" d="M253.032,272.775c10.237,3.67,20.474,7.34,30.71,11.01c4.26,1.527,6.077-5.238,1.861-6.75
				c-10.237-3.67-20.474-7.34-30.71-11.01C250.634,264.498,248.816,271.264,253.032,272.775L253.032,272.775z"/>
		</g>
	</g>
	<g>
		<g>
			<path style="fill:#FFFFFF;" d="M278.061,153.597c-2.044,16.071-4.089,32.142-6.133,48.213c-0.813,6.385,9.197,6.307,10,0
				c2.044-16.071,4.089-32.142,6.133-48.213C288.873,147.212,278.863,147.291,278.061,153.597L278.061,153.597z"/>
		</g>
	</g>
	<g>
		<g>
			<path style="fill:#FFFFFF;" d="M271.928,203.527c0.749,6.612,1.499,13.224,2.248,19.836c0.718,6.332,10.726,6.402,10,0
				c-0.749-6.612-1.499-13.224-2.248-19.836C281.21,197.195,271.202,197.125,271.928,203.527L271.928,203.527z"/>
		</g>
	</g>
	<g>
		<g>
			<path style="fill:#FFFFFF;" d="M278.519,125.82c1.075,5.025,2.151,10.05,3.227,15.075c1.35,6.305,10.988,3.63,9.643-2.658
				c-1.075-5.025-2.151-10.05-3.227-15.075C286.812,116.857,277.173,119.532,278.519,125.82L278.519,125.82z"/>
		</g>
	</g>
	<g>
		<g>
			<path style="fill:#FFFFFF;" d="M236.303,213.922c10.613,0,21.226,0,31.839,0c4.514,0,4.514-7,0-7c-10.613,0-21.226,0-31.839,0
				C231.789,206.922,231.789,213.922,236.303,213.922L236.303,213.922z"/>
		</g>
	</g>
	<g>
		<g>
			<path style="fill:#FFFFFF;" d="M257.451,211.004c0.213,8.24,0.426,16.48,0.639,24.721c0.05,1.931,3.05,1.936,3,0
				c-0.213-8.24-0.426-16.48-0.639-24.721C260.401,209.073,257.401,209.068,257.451,211.004L257.451,211.004z"/>
		</g>
	</g>
	<g>
		<g>
			<path style="fill:#FFFFFF;" d="M224.453,284.667c-0.569,0-1.14,0-1.709,0c-1.908,0-3.5,1.592-3.5,3.5s1.592,3.5,3.5,3.5
				c0.569,0,1.14,0,1.709,0c1.908,0,3.5-1.592,3.5-3.5S226.361,284.667,224.453,284.667L224.453,284.667z"/>
		</g>
	</g>
	<g>
		<g>
			<path style="fill:#FFFFFF;" d="M285.527,284.667c-0.569,0-1.14,0-1.709,0c-1.908,0-3.5,1.592-3.5,3.5s1.592,3.5,3.5,3.5
				c0.569,0,1.14,0,1.709,0c1.908,0,3.5-1.592,3.5-3.5S287.436,284.667,285.527,284.667L285.527,284.667z"/>
		</g>
	</g>
	<g>
		<g>
			<g>
				<path style="fill:#FFFFFF;" d="M135.993,207.91c28.502,0,57.005,0,85.507,0c6.448,0,6.448-10,0-10c-28.502,0-57.004,0-85.507,0
					C129.544,197.91,129.544,207.91,135.993,207.91L135.993,207.91z"/>
			</g>
		</g>
		<g>
			<g>
				<path style="fill:#FFFFFF;" d="M158.503,205.51c0,26.377,0,52.754,0,79.131c0,6.448,10,6.448,10,0c0-26.377,0-52.754,0-79.131
					C168.503,199.062,158.503,199.062,158.503,205.51L158.503,205.51z"/>
			</g>
		</g>
		<g>
			<g>
				<path style="fill:#FFFFFF;" d="M135.845,205.51c0,26.377,0,52.754,0,79.131c0,6.448,10,6.448,10,0c0-26.377,0-52.754,0-79.131
					C145.845,199.062,135.845,199.062,135.845,205.51L135.845,205.51z"/>
			</g>
		</g>
		<g>
			<g>
				<path style="fill:#FFFFFF;" d="M135.993,291.834c18.522,0,37.043,0,55.565,0c6.448,0,6.448-10,0-10c-18.522,0-37.043,0-55.565,0
					C129.544,281.834,129.544,291.834,135.993,291.834L135.993,291.834z"/>
			</g>
		</g>
	</g>
	<g>
		<g>
			<g>
				<path style="fill:#FFFFFF;" d="M84.09,162.513c8.917,1.522,17.833,3.045,26.749,4.567c4.414,0.754,6.304-5.991,1.861-6.75
					c-8.917-1.522-17.833-3.045-26.749-4.567C81.537,155.009,79.647,161.754,84.09,162.513L84.09,162.513z"/>
			</g>
		</g>
		<g>
			<g>
				<path style="fill:#FFFFFF;" d="M84.364,172.128c8.917,1.522,17.833,3.045,26.749,4.567c4.414,0.753,6.304-5.991,1.861-6.75
					c-8.917-1.522-17.833-3.045-26.749-4.567C81.812,164.625,79.921,171.37,84.364,172.128L84.364,172.128z"/>
			</g>
		</g>
		<g>
			<g>
				<path style="fill:#FFFFFF;" d="M84.364,181.47c8.917,1.522,17.833,3.045,26.749,4.567c4.414,0.754,6.304-5.991,1.861-6.75
					c-8.917-1.522-17.833-3.045-26.749-4.567C81.812,173.966,79.921,180.711,84.364,181.47L84.364,181.47z"/>
			</g>
		</g>
		<g>
			<g>
				<path style="fill:#FFFFFF;" d="M90.058,191.441c5.004,0.854,10.008,1.708,15.012,2.563c4.414,0.754,6.304-5.991,1.861-6.75
					c-5.004-0.854-10.008-1.708-15.012-2.563C87.505,183.938,85.615,190.683,90.058,191.441L90.058,191.441z"/>
			</g>
		</g>
		<path style="fill:none;stroke:#FFFFFF;stroke-width:10;stroke-miterlimit:10;" d="M121.034,136.573
			c0,7.544-6.116,13.66-13.66,13.66H89.16c-7.544,0-13.66-6.116-13.66-13.66V88.004c0-7.544,6.116-13.66,13.66-13.66h18.213
			c7.544,0,13.66,6.116,13.66,13.66V136.573z"/>
	</g>
	<g>
		<g>
			<path style="fill:#FFFFFF;" d="M169.857,194.12c-8.096,0-16.193,0-24.289,0c-4.514,0-4.514,7,0,7c8.096,0,16.193,0,24.289,0
				C174.371,201.12,174.371,194.12,169.857,194.12L169.857,194.12z"/>
		</g>
	</g>
	<g>
		<g>
			<path style="fill:#FFFFFF;" d="M152.967,198.583c10.257-25.804,20.513-51.607,30.77-77.411c1.669-4.199-5.104-6.003-6.75-1.861
				c-10.257,25.804-20.513,51.607-30.77,77.411C144.548,200.921,151.321,202.726,152.967,198.583L152.967,198.583z"/>
		</g>
	</g>
	<g>
		<g>
			<path style="fill:#FFFFFF;" d="M180.362,125.241c11.345,0,22.69,0,34.035,0c6.448,0,6.448-10,0-10c-11.345,0-22.69,0-34.035,0
				C173.914,115.241,173.914,125.241,180.362,125.241L180.362,125.241z"/>
		</g>
	</g>
	<g>
		<g>
			<path style="fill:#FFFFFF;" d="M185.955,127.062c8.814,0,17.628,0,26.442,0c1.935,0,1.935-3,0-3c-8.814,0-17.628,0-26.442,0
				C184.021,124.062,184.021,127.062,185.955,127.062L185.955,127.062z"/>
		</g>
	</g>
</g>
<g id="Ebene_1">
</g>
</svg>
