<?xml version="1.0" encoding="iso-8859-1"?>
<!-- Generator: Adobe Illustrator 16.0.3, SVG Export Plug-In . SVG Version: 6.00 Build 0)  -->
<!DOCTYPE svg PUBLIC "-//W3C//DTD SVG 1.1//EN" "http://www.w3.org/Graphics/SVG/1.1/DTD/svg11.dtd">
<svg version="1.1" xmlns="http://www.w3.org/2000/svg" xmlns:xlink="http://www.w3.org/1999/xlink" x="0px" y="0px" width="361px"
	 height="361px" viewBox="0 0 361 361" style="enable-background:new 0 0 361 361;" xml:space="preserve">
<g id="light_x5F_television_x5F_backlight">
	<g id="tv_1_" style="display:none;">
		<path style="display:inline;fill:none;stroke:#FFFFFF;stroke-width:10;stroke-miterlimit:10;" d="M323.617,263.186
			c0,2.783-2.256,5.038-5.039,5.038h-147.79c-2.782,0-5.039-2.255-5.039-5.038v-94.048c0-2.783,2.256-5.039,5.039-5.039h147.79
			c2.783,0,5.039,2.256,5.039,5.039V263.186z"/>
		<path style="display:inline;fill:#FFFFFF;stroke:#FFFFFF;stroke-width:10;stroke-miterlimit:10;" d="M322.87,263.069
			c0,1.336-2.046,2.418-4.571,2.418H170.514c-2.524,0-4.571-1.082-4.571-2.418v-2.618c0-1.336,2.047-2.419,4.571-2.419h147.785
			c2.525,0,4.571,1.083,4.571,2.419V263.069z"/>
		<path style="display:inline;fill:#FFFFFF;stroke:#FFFFFF;stroke-width:10;stroke-miterlimit:10;" d="M248.693,281.889
			c0,2.47-2.002,4.473-4.474,4.473h-0.372c-2.471,0-4.473-2.003-4.473-4.473v-14.165c0-2.47,2.002-4.474,4.473-4.474h0.372
			c2.472,0,4.474,2.004,4.474,4.474V281.889z"/>
		<g style="display:inline;">
			<g>
				<path style="fill:#FFFFFF;" d="M192.407,291.734c34.666,0,69.332,0,103.998,0c6.448,0,6.448-10,0-10
					c-34.666,0-69.332,0-103.998,0C185.959,281.734,185.959,291.734,192.407,291.734L192.407,291.734z"/>
			</g>
		</g>
	</g>
	<g>
		<g>
			<g>
				<path style="fill:#FFFFFF;" d="M84.09,162.513c8.917,1.522,17.833,3.045,26.749,4.567c4.414,0.754,6.304-5.991,1.861-6.75
					c-8.917-1.522-17.833-3.045-26.749-4.567C81.537,155.009,79.647,161.754,84.09,162.513L84.09,162.513z"/>
			</g>
		</g>
		<g>
			<g>
				<path style="fill:#FFFFFF;" d="M84.364,172.128c8.917,1.522,17.833,3.045,26.749,4.567c4.414,0.753,6.304-5.991,1.861-6.75
					c-8.917-1.522-17.833-3.045-26.749-4.567C81.812,164.625,79.921,171.37,84.364,172.128L84.364,172.128z"/>
			</g>
		</g>
		<g>
			<g>
				<path style="fill:#FFFFFF;" d="M84.364,181.47c8.917,1.522,17.833,3.045,26.749,4.567c4.414,0.754,6.304-5.991,1.861-6.75
					c-8.917-1.522-17.833-3.045-26.749-4.567C81.812,173.966,79.921,180.711,84.364,181.47L84.364,181.47z"/>
			</g>
		</g>
		<g>
			<g>
				<path style="fill:#FFFFFF;" d="M90.058,191.441c5.004,0.854,10.008,1.708,15.012,2.563c4.414,0.754,6.304-5.991,1.861-6.75
					c-5.004-0.854-10.008-1.708-15.012-2.563C87.505,183.938,85.615,190.683,90.058,191.441L90.058,191.441z"/>
			</g>
		</g>
		<path style="fill:none;stroke:#FFFFFF;stroke-width:10;stroke-miterlimit:10;" d="M121.034,136.573
			c0,7.544-6.116,13.66-13.66,13.66H89.16c-7.544,0-13.66-6.116-13.66-13.66V88.004c0-7.544,6.116-13.66,13.66-13.66h18.213
			c7.544,0,13.66,6.116,13.66,13.66V136.573z"/>
	</g>
	<g>
		<g>
			<g>
				<path style="fill:#FFFFFF;" d="M165.606,138.146c0,3.725,0,7.45,0,11.174c0,1.935,3,1.935,3,0c0-3.725,0-7.45,0-11.174
					C168.606,136.211,165.606,136.211,165.606,138.146L165.606,138.146z"/>
			</g>
		</g>
		<g>
			<g>
				<path style="fill:#FFFFFF;" d="M148.033,146.576c2.633,2.634,5.267,5.268,7.901,7.901c1.369,1.369,3.49-0.752,2.121-2.121
					c-2.633-2.634-5.267-5.268-7.901-7.901C148.785,143.086,146.664,145.207,148.033,146.576L148.033,146.576z"/>
			</g>
		</g>
		<g>
			<g>
				<path style="fill:#FFFFFF;" d="M140.646,165.027c3.725,0,7.45,0,11.174,0c1.935,0,1.935-3,0-3c-3.725,0-7.45,0-11.174,0
					C138.711,162.027,138.711,165.027,140.646,165.027L140.646,165.027z"/>
			</g>
		</g>
	</g>
	<path style="fill:#FFFFFF;" d="M291.833,281.734c-12.714,0-25.427,0-38.14,0v-8.511h38.14v-20.191H170.754l0.035-83.933
		l121.044,0.032v-10.032H170.789c-5.535,0-10.039,4.503-10.039,10.039v94.048c0,5.535,4.503,10.038,10.039,10.038h63.586v8.511
		c-13.99,0-27.979,0-41.968,0c-6.448,0-6.448,10,0,10c33.142,0,66.284,0,99.426,0V281.734z"/>
	<g>
		<g>
			<g>
				<path style="fill:#FFFFFF;" d="M140.685,269.939c3.725,0,7.45,0,11.174,0c1.935,0,1.935-3,0-3c-3.725,0-7.45,0-11.174,0
					C138.75,266.939,138.75,269.939,140.685,269.939L140.685,269.939z"/>
			</g>
		</g>
		<g>
			<g>
				<path style="fill:#FFFFFF;" d="M150.116,287.512c2.634-2.634,5.268-5.267,7.901-7.9c1.369-1.369-0.752-3.49-2.121-2.121
					c-2.634,2.634-5.268,5.267-7.901,7.9C146.625,286.76,148.747,288.881,150.116,287.512L150.116,287.512z"/>
			</g>
		</g>
		<g>
			<g>
				<path style="fill:#FFFFFF;" d="M168.567,290.167c0-2.147,0-4.294,0-6.441c0-1.935-3-1.935-3,0c0,2.147,0,4.294,0,6.441
					C165.567,292.102,168.567,292.102,168.567,290.167L168.567,290.167z"/>
			</g>
		</g>
	</g>
	<g>
		<g>
			<g>
				<path style="fill:#FFFFFF;" d="M236.877,139.513c-2.634,2.634-5.268,5.268-7.901,7.901c-1.369,1.369,0.752,3.49,2.121,2.121
					c2.634-2.634,5.268-5.268,7.901-7.901C240.367,140.265,238.246,138.144,236.877,139.513L236.877,139.513z"/>
			</g>
		</g>
		<g>
			<g>
				<path style="fill:#FFFFFF;" d="M219.904,137.3c0,3.725-0.001,7.45-0.001,11.175c0,1.935,3,1.935,3,0
					c0-3.725,0.001-7.45,0.001-11.175C222.904,135.365,219.904,135.365,219.904,137.3L219.904,137.3z"/>
			</g>
		</g>
		<g>
			<g>
				<path style="fill:#FFFFFF;" d="M203.754,141.634c2.634,2.634,5.269,5.268,7.902,7.901c1.369,1.369,3.49-0.752,2.121-2.121
					c-2.634-2.634-5.269-5.268-7.902-7.901C204.506,138.144,202.385,140.265,203.754,141.634L203.754,141.634z"/>
			</g>
		</g>
	</g>
	<g>
		<g>
			<g>
				<path style="fill:#FFFFFF;" d="M143.002,200.012c2.634,2.634,5.268,5.268,7.901,7.901c1.369,1.369,3.49-0.752,2.121-2.121
					c-2.634-2.634-5.268-5.268-7.901-7.901C143.754,196.521,141.633,198.643,143.002,200.012L143.002,200.012z"/>
			</g>
		</g>
		<g>
			<g>
				<path style="fill:#FFFFFF;" d="M140.789,216.985c3.725,0,7.45,0,11.175,0c1.935,0,1.935-3,0-3c-3.725,0-7.45,0-11.175,0
					C138.854,213.985,138.854,216.985,140.789,216.985L140.789,216.985z"/>
			</g>
		</g>
		<g>
			<g>
				<path style="fill:#FFFFFF;" d="M145.123,233.135c2.634-2.634,5.268-5.268,7.901-7.901c1.369-1.369-0.752-3.49-2.121-2.121
					c-2.634,2.634-5.268,5.268-7.901,7.901C141.633,232.383,143.754,234.504,145.123,233.135L145.123,233.135z"/>
			</g>
		</g>
	</g>
	<g>
		<g>
			<g>
				<path style="fill:#FFFFFF;" d="M286.195,137.3c0,3.725,0,7.45,0,11.175c0,1.935,3,1.935,3,0c0-3.725,0-7.45,0-11.175
					C289.195,135.365,286.195,135.365,286.195,137.3L286.195,137.3z"/>
			</g>
		</g>
		<g>
			<g>
				<path style="fill:#FFFFFF;" d="M270.046,141.634c2.634,2.634,5.268,5.268,7.901,7.901c1.369,1.369,3.49-0.752,2.121-2.121
					c-2.634-2.634-5.268-5.268-7.901-7.901C270.798,138.144,268.677,140.265,270.046,141.634L270.046,141.634z"/>
			</g>
		</g>
	</g>
</g>
<g id="Ebene_1">
</g>
</svg>
