<?xml version="1.0" encoding="iso-8859-1"?>
<!-- Generator: Adobe Illustrator 16.0.3, SVG Export Plug-In . SVG Version: 6.00 Build 0)  -->
<!DOCTYPE svg PUBLIC "-//W3C//DTD SVG 1.1//EN" "http://www.w3.org/Graphics/SVG/1.1/DTD/svg11.dtd">
<svg version="1.1" xmlns="http://www.w3.org/2000/svg" xmlns:xlink="http://www.w3.org/1999/xlink" x="0px" y="0px" width="361px"
	 height="361px" viewBox="0 0 361 361" style="enable-background:new 0 0 361 361;" xml:space="preserve">
<g id="light_x5F_ceiling_x5F_spots">
	<g>
		<g>
			<path style="fill:#FFFFFF;" d="M83.84,260.423c8.917,1.522,17.833,3.045,26.749,4.567c4.414,0.754,6.304-5.991,1.861-6.75
				c-8.917-1.522-17.833-3.045-26.749-4.567C81.287,252.919,79.397,259.664,83.84,260.423L83.84,260.423z"/>
		</g>
	</g>
	<g>
		<g>
			<path style="fill:#FFFFFF;" d="M84.114,270.038c8.917,1.522,17.833,3.045,26.749,4.567c4.414,0.754,6.304-5.991,1.861-6.75
				c-8.917-1.522-17.833-3.045-26.749-4.567C81.562,262.534,79.671,269.279,84.114,270.038L84.114,270.038z"/>
		</g>
	</g>
	<g>
		<g>
			<path style="fill:#FFFFFF;" d="M84.114,279.379c8.917,1.522,17.833,3.046,26.749,4.568c4.414,0.754,6.304-5.991,1.861-6.75
				c-8.917-1.522-17.833-3.046-26.749-4.568C81.562,271.875,79.671,278.62,84.114,279.379L84.114,279.379z"/>
		</g>
	</g>
	<g>
		<g>
			<path style="fill:#FFFFFF;" d="M89.808,289.351c5.004,0.854,10.008,1.709,15.012,2.563c4.414,0.754,6.304-5.991,1.861-6.75
				c-5.004-0.854-10.008-1.709-15.012-2.563C87.255,281.847,85.365,288.592,89.808,289.351L89.808,289.351z"/>
		</g>
	</g>
	<path style="fill:none;stroke:#FFFFFF;stroke-width:10;stroke-miterlimit:10;" d="M120.784,234.483
		c0,7.544-6.116,13.66-13.66,13.66H88.91c-7.544,0-13.66-6.116-13.66-13.66v-48.569c0-7.544,6.116-13.661,13.66-13.661h18.213
		c7.544,0,13.66,6.116,13.66,13.661V234.483z"/>
	<g>
		<g>
			<path style="fill:#FFFFFF;" d="M152.092,88.224c-23.812,0-47.623-0.001-71.434,0c-2.497,0-3.511-1.335-3.511-3.862
				c0-1.512-0.984-7.528,1.992-7.528c1.678,0,3.357,0,5.035,0c24.298,0,48.597,0,72.896,0c31.12,0,62.239,0,93.358,0
				c9.236,0,18.473,0,27.709,0c1.482,0,2.966,0,4.448,0c2.971,0,1.915,6.84,1.915,8.313c0,3.769-3.504,3.078-6.082,3.078
				c-9.138,0-18.274,0-27.412,0c-4.514,0-4.514,7,0,7c7.54,0,15.081,0,22.621,0c6.913,0,14.74,1.295,17.605-6.723
				c0.945-2.644,0.268-6.48,0.268-9.215c0-4.547-2.541-7.69-6.723-9.185c-1.533-0.548-3.835-0.268-5.443-0.268
				c-22.985,0-45.971,0-68.957,0c-31.511,0-63.022,0-94.534,0c-10.072,0-20.144,0-30.215,0c-2.061,0-4.122,0-6.182,0
				c-6.446,0-9.299,5.079-9.299,10.862c0,6.162-0.104,11.821,6.723,14.261c3.427,1.225,8.646,0.268,12.135,0.268
				c21.029,0,42.058,0,63.087,0C156.606,95.224,156.606,88.224,152.092,88.224L152.092,88.224z"/>
		</g>
	</g>
	<g>
		<g>
			<path style="fill:#FFFFFF;" d="M216.832,88.225c-10.833,0-21.666,0-32.499,0c-4.514,0-4.514,7,0,7c10.833,0,21.666,0,32.499,0
				C221.346,95.225,221.346,88.225,216.832,88.225L216.832,88.225z"/>
		</g>
	</g>
	<g>
		<g>
			<g>
				<path style="fill:#FFFFFF;" d="M258.636,127.119c-1.759-5.764-3.518-11.528-5.276-17.292c-1.313-4.305-8.071-2.468-6.75,1.861
					c1.759,5.764,3.518,11.528,5.276,17.292C253.199,133.285,259.957,131.448,258.636,127.119L258.636,127.119z"/>
			</g>
		</g>
		<g>
			<g>
				<path style="fill:#FFFFFF;" d="M237.082,130.479c0-5.915,0-11.829,0-17.743c0-4.514-7-4.514-7,0c0,5.915,0,11.829,0,17.743
					C230.082,134.994,237.082,134.994,237.082,130.479L237.082,130.479z"/>
			</g>
		</g>
		<g>
			<g>
				<path style="fill:#FFFFFF;" d="M215.273,128.979c1.762-5.764,3.523-11.527,5.285-17.291c1.323-4.329-5.435-6.165-6.75-1.861
					c-1.762,5.764-3.523,11.527-5.285,17.291C207.2,131.447,213.958,133.283,215.273,128.979L215.273,128.979z"/>
			</g>
		</g>
		<g>
			<g>
				<g>
					<path style="fill:#FFFFFF;" d="M193.572,128.109c-1.759-5.764-3.519-11.528-5.277-17.292c-1.313-4.305-8.071-2.468-6.75,1.861
						c1.759,5.764,3.519,11.528,5.277,17.292C188.136,134.275,194.894,132.438,193.572,128.109L193.572,128.109z"/>
				</g>
			</g>
			<g>
				<g>
					<path style="fill:#FFFFFF;" d="M172.019,131.469c0-5.915,0-11.829,0-17.743c0-4.514-7-4.514-7,0c0,5.915,0,11.829,0,17.743
						C165.019,135.983,172.019,135.983,172.019,131.469L172.019,131.469z"/>
				</g>
			</g>
			<g>
				<g>
					<path style="fill:#FFFFFF;" d="M150.21,129.969c1.762-5.764,3.523-11.527,5.285-17.291c1.323-4.329-5.435-6.165-6.75-1.861
						c-1.762,5.764-3.523,11.527-5.285,17.291C142.138,132.437,148.895,134.273,150.21,129.969L150.21,129.969z"/>
				</g>
			</g>
		</g>
	</g>
	<g>
		<g>
			<path style="fill:#FFFFFF;" d="M148.5,96.667c3.159,0,6.317,0,9.476,0c1.935,0,1.935-3,0-3c-3.159,0-6.317,0-9.476,0
				C146.565,93.667,146.565,96.667,148.5,96.667L148.5,96.667z"/>
		</g>
	</g>
	<g id="licht_1_">
		<g>
			<g>
				<path style="fill:#FFFFFF;" d="M247.558,91.325c-0.637,3.145-10.126,3.162-12.179,3.264c-4.851,0.242-10.488,0.012-14.898-2.228
					c-1.965-0.997,3.527-2.538,3.851-2.621c3.003-0.767,6.167-0.861,9.249-0.912c2.366-0.039,13.272-0.186,13.978,3.294
					c0.384,1.895,3.275,1.091,2.893-0.798c-1.153-5.696-12.797-5.429-16.87-5.496c-3.505-0.058-16.925-0.029-16.925,5.895
					c0,5.55,11.728,5.696,15.126,5.865c4.207,0.209,17.446,0.574,18.669-5.466C250.833,90.234,247.941,89.43,247.558,91.325z"/>
			</g>
		</g>
	</g>
	<g id="licht_2_">
		<g>
			<g>
				<path style="fill:#FFFFFF;" d="M182.495,91.325c-0.637,3.145-10.127,3.162-12.18,3.264c-4.85,0.242-10.488,0.012-14.898-2.228
					c-1.964-0.997,3.528-2.538,3.851-2.621c3.003-0.767,6.167-0.861,9.249-0.912c2.367-0.039,13.274-0.186,13.979,3.294
					c0.384,1.895,3.275,1.091,2.893-0.798c-1.153-5.696-12.798-5.429-16.872-5.496c-3.505-0.058-16.924-0.029-16.924,5.895
					c0,5.55,11.727,5.696,15.125,5.865c4.208,0.209,17.448,0.574,18.67-5.466C185.771,90.234,182.879,89.43,182.495,91.325z"/>
			</g>
		</g>
	</g>
	<g>
		<g>
			<path style="fill:#FFFFFF;" d="M180.67,96.667c3.158,0,6.317,0,9.476,0c1.935,0,1.935-3,0-3c-3.158,0-6.317,0-9.476,0
				C178.735,93.667,178.735,96.667,180.67,96.667L180.67,96.667z"/>
		</g>
	</g>
	<g>
		<g>
			<path style="fill:#FFFFFF;" d="M212.757,96.667c3.158,0,6.317,0,9.476,0c1.935,0,1.935-3,0-3c-3.158,0-6.317,0-9.476,0
				C210.822,93.667,210.822,96.667,212.757,96.667L212.757,96.667z"/>
		</g>
	</g>
	<g>
		<g>
			<path style="fill:#FFFFFF;" d="M244.927,96.667c3.158,0,6.317,0,9.476,0c1.935,0,1.935-3,0-3c-3.158,0-6.317,0-9.476,0
				C242.992,93.667,242.992,96.667,244.927,96.667L244.927,96.667z"/>
		</g>
	</g>
</g>
<g id="Ebene_1">
</g>
</svg>
