<?xml version="1.0" encoding="iso-8859-1"?>
<!-- Generator: Adobe Illustrator 16.0.0, SVG Export Plug-In . SVG Version: 6.00 Build 0)  -->
<!DOCTYPE svg PUBLIC "-//W3C//DTD SVG 1.1//EN" "http://www.w3.org/Graphics/SVG/1.1/DTD/svg11.dtd">
<svg version="1.1" xmlns="http://www.w3.org/2000/svg" xmlns:xlink="http://www.w3.org/1999/xlink" x="0px" y="0px" width="361px"
	 height="361px" viewBox="0 0 361 361" style="enable-background:new 0 0 361 361;" xml:space="preserve">
<g id="light_x5F_corridor">
	<g>
		<g>
			<path style="fill:#FFFFFF;" d="M163.064,229.134c0-12.637-0.434-132.479,0.435-132.479c12.263,0,24.527,0,36.79,0
				c6.394,0,12.786,0,19.18,0c2.6,0,3.275-0.333,3.275,2.285c0,26.165,0,52.33,0,78.494c0,17.233,0,34.466,0,51.7
				c0,4.514,7,4.514,7,0c0-22.177,0-44.353,0-66.529c0-15.152,0-30.304,0-45.456c0-6.771,0.939-14.29-0.125-21.008
				c-1.015-6.404-6.628-6.485-11.685-6.485c-6.857,0-13.715,0-20.572,0c-7.799,0-15.598,0-23.396,0
				c-3.722,0-7.792-0.481-11.485,0.125c-8.884,1.458-6.417,14.739-6.417,21.153c0,14.247,0,28.494,0,42.741
				c0,25.153,0,50.306,0,75.459C156.064,233.647,163.064,233.647,163.064,229.134L163.064,229.134z"/>
		</g>
	</g>
	<g>
		<g>
			<path style="fill:#FFFFFF;" d="M218.834,165.098c2.116,0,4.233,0,6.35,0c4.514,0,4.514-7,0-7c-2.116,0-4.233,0-6.35,0
				C214.32,158.098,214.32,165.098,218.834,165.098L218.834,165.098z"/>
		</g>
	</g>
	<g>
		<g>
			<path style="fill:#FFFFFF;" d="M121,233.504c49.871,0,99.743,0,149.614,0c6.567,0,13.136,0,19.704,0c1.935,0,1.935-3,0-3
				c-49.871,0-99.742,0-149.613,0c-6.568,0-13.136,0-19.705,0C119.065,230.504,119.065,233.504,121,233.504L121,233.504z"/>
		</g>
	</g>
	<g>
		<g>
			<path style="fill:#FFFFFF;" d="M226.244,227.171c21.442,0,42.886,0,64.328,0c1.935,0,1.935-3,0-3c-21.442,0-42.886,0-64.328,0
				C224.31,224.171,224.31,227.171,226.244,227.171L226.244,227.171z"/>
		</g>
	</g>
	<g>
		<g>
			<path style="fill:#FFFFFF;" d="M121,227.171c13.278,0,26.557,0,39.835,0c1.935,0,1.935-3,0-3c-13.278,0-26.557,0-39.835,0
				C119.065,224.171,119.065,227.171,121,227.171L121,227.171z"/>
		</g>
	</g>
	<g>
		<g>
			<g>
				<path style="fill:#FFFFFF;" d="M153.333,252.667c36.556,0,73.112,0,109.668,0c1.935,0,1.935-3,0-3c-36.556,0-73.112,0-109.668,0
					C151.398,249.667,151.398,252.667,153.333,252.667L153.333,252.667z"/>
			</g>
		</g>
		<g>
			<g>
				<path style="fill:#FFFFFF;" d="M161,291.834c38.723,0,77.446,0,116.168,0c1.935,0,1.935-3,0-3c-38.723,0-77.445,0-116.168,0
					C159.065,288.834,159.065,291.834,161,291.834L161,291.834z"/>
			</g>
		</g>
		<g>
			<g>
				<path style="fill:#FFFFFF;" d="M140.167,257.02c3.167,0,6.333,0,9.5,0c1.935,0,1.935-3,0-3c-3.167,0-6.333,0-9.5,0
					C138.232,254.02,138.232,257.02,140.167,257.02L140.167,257.02z"/>
			</g>
		</g>
		<g>
			<g>
				<path style="fill:#FFFFFF;" d="M140.167,252.667c3.167,0,6.333,0,9.5,0c1.935,0,1.935-3,0-3c-3.167,0-6.333,0-9.5,0
					C138.232,249.667,138.232,252.667,140.167,252.667L140.167,252.667z"/>
			</g>
		</g>
		<g>
			<g>
				<path style="fill:#FFFFFF;" d="M142.167,265.723c3.167,0,6.333,0,9.5,0c1.935,0,1.935-3,0-3c-3.167,0-6.333,0-9.5,0
					C140.232,262.723,140.232,265.723,142.167,265.723L142.167,265.723z"/>
			</g>
		</g>
		<g>
			<g>
				<path style="fill:#FFFFFF;" d="M142.167,261.371c3.167,0,6.333,0,9.5,0c1.935,0,1.935-3,0-3c-3.167,0-6.333,0-9.5,0
					C140.232,258.371,140.232,261.371,142.167,261.371L142.167,261.371z"/>
			</g>
		</g>
		<g>
			<g>
				<path style="fill:#FFFFFF;" d="M142.167,274.426c3.167,0,6.333,0,9.5,0c1.935,0,1.935-3,0-3c-3.167,0-6.333,0-9.5,0
					C140.232,271.426,140.232,274.426,142.167,274.426L142.167,274.426z"/>
			</g>
		</g>
		<g>
			<g>
				<path style="fill:#FFFFFF;" d="M143.167,270.074c3.167,0,6.333,0,9.5,0c1.935,0,1.935-3,0-3c-3.167,0-6.333,0-9.5,0
					C141.232,267.074,141.232,270.074,143.167,270.074L143.167,270.074z"/>
			</g>
		</g>
		<g>
			<g>
				<path style="fill:#FFFFFF;" d="M145.167,283.13c3.167,0,6.333,0,9.5,0c1.935,0,1.935-3,0-3c-3.167,0-6.333,0-9.5,0
					C143.232,280.13,143.232,283.13,145.167,283.13L145.167,283.13z"/>
			</g>
		</g>
		<g>
			<g>
				<path style="fill:#FFFFFF;" d="M143.167,278.777c3.167,0,6.333,0,9.5,0c1.935,0,1.935-3,0-3c-3.167,0-6.333,0-9.5,0
					C141.232,275.777,141.232,278.777,143.167,278.777L143.167,278.777z"/>
			</g>
		</g>
		<g>
			<g>
				<path style="fill:#FFFFFF;" d="M147.167,291.834c3.167,0,6.333,0,9.5,0c1.935,0,1.935-3,0-3c-3.167,0-6.333,0-9.5,0
					C145.232,288.834,145.232,291.834,147.167,291.834L147.167,291.834z"/>
			</g>
		</g>
		<g>
			<g>
				<path style="fill:#FFFFFF;" d="M146.167,287.481c3.167,0,6.333,0,9.5,0c1.935,0,1.935-3,0-3c-3.167,0-6.333,0-9.5,0
					C144.232,284.481,144.232,287.481,146.167,287.481L146.167,287.481z"/>
			</g>
		</g>
		<g>
			<g>
				<path style="fill:#FFFFFF;" d="M269.333,257.02c3.167,0,6.333,0,9.5,0c1.935,0,1.935-3,0-3c-3.167,0-6.333,0-9.5,0
					C267.398,254.02,267.398,257.02,269.333,257.02L269.333,257.02z"/>
			</g>
		</g>
		<g>
			<g>
				<path style="fill:#FFFFFF;" d="M267.333,252.667c3.167,0,6.333,0,9.5,0c1.935,0,1.935-3,0-3c-3.167,0-6.333,0-9.5,0
					C265.398,249.667,265.398,252.667,267.333,252.667L267.333,252.667z"/>
			</g>
		</g>
		<g>
			<g>
				<path style="fill:#FFFFFF;" d="M273.333,265.723c3.167,0,6.333,0,9.5,0c1.935,0,1.935-3,0-3c-3.167,0-6.333,0-9.5,0
					C271.398,262.723,271.398,265.723,273.333,265.723L273.333,265.723z"/>
			</g>
		</g>
		<g>
			<g>
				<path style="fill:#FFFFFF;" d="M272.333,261.371c3.167,0,6.333,0,9.5,0c1.935,0,1.935-3,0-3c-3.167,0-6.333,0-9.5,0
					C270.398,258.371,270.398,261.371,272.333,261.371L272.333,261.371z"/>
			</g>
		</g>
		<g>
			<g>
				<path style="fill:#FFFFFF;" d="M276.333,274.426c3.167,0,6.333,0,9.5,0c1.935,0,1.935-3,0-3c-3.167,0-6.333,0-9.5,0
					C274.398,271.426,274.398,274.426,276.333,274.426L276.333,274.426z"/>
			</g>
		</g>
		<g>
			<g>
				<path style="fill:#FFFFFF;" d="M274.333,270.074c3.167,0,6.333,0,9.5,0c1.935,0,1.935-3,0-3c-3.167,0-6.333,0-9.5,0
					C272.398,267.074,272.398,270.074,274.333,270.074L274.333,270.074z"/>
			</g>
		</g>
		<g>
			<g>
				<path style="fill:#FFFFFF;" d="M279.333,283.13c3.167,0,6.333,0,9.5,0c1.935,0,1.935-3,0-3c-3.167,0-6.333,0-9.5,0
					C277.398,280.13,277.398,283.13,279.333,283.13L279.333,283.13z"/>
			</g>
		</g>
		<g>
			<g>
				<path style="fill:#FFFFFF;" d="M277.333,278.777c3.167,0,6.333,0,9.5,0c1.935,0,1.935-3,0-3c-3.167,0-6.333,0-9.5,0
					C275.398,275.777,275.398,278.777,277.333,278.777L277.333,278.777z"/>
			</g>
		</g>
		<g>
			<g>
				<path style="fill:#FFFFFF;" d="M281.333,291.834c3.167,0,6.333,0,9.5,0c1.935,0,1.935-3,0-3c-3.167,0-6.333,0-9.5,0
					C279.398,288.834,279.398,291.834,281.333,291.834L281.333,291.834z"/>
			</g>
		</g>
		<g>
			<g>
				<path style="fill:#FFFFFF;" d="M280.333,287.481c3.167,0,6.333,0,9.5,0c1.935,0,1.935-3,0-3c-3.167,0-6.333,0-9.5,0
					C278.398,284.481,278.398,287.481,280.333,287.481L280.333,287.481z"/>
			</g>
		</g>
	</g>
	<g>
		<g>
			<path style="fill:#FFFFFF;" d="M156.667,72.503c44.66,0,89.319,0,133.978,0c0.003,0,0.007,0,0.01,0c1.935,0,1.935-3,0-3
				c-44.659,0-89.318,0-133.978,0c-0.003,0-0.006,0-0.01,0C154.732,69.503,154.732,72.503,156.667,72.503L156.667,72.503z"/>
		</g>
	</g>
	<g>
		<g>
			<path style="fill:#FFFFFF;" d="M84.09,163.192c8.917,1.522,17.833,3.045,26.749,4.567c4.414,0.754,6.304-5.991,1.861-6.75
				c-8.917-1.522-17.833-3.045-26.749-4.567C81.537,155.688,79.647,162.434,84.09,163.192L84.09,163.192z"/>
		</g>
	</g>
	<g>
		<g>
			<path style="fill:#FFFFFF;" d="M84.364,172.808c8.917,1.522,17.833,3.045,26.749,4.567c4.414,0.753,6.304-5.991,1.861-6.75
				c-8.917-1.522-17.833-3.045-26.749-4.567C81.812,165.305,79.921,172.049,84.364,172.808L84.364,172.808z"/>
		</g>
	</g>
	<g>
		<g>
			<path style="fill:#FFFFFF;" d="M84.364,182.149c8.917,1.522,17.833,3.045,26.749,4.567c4.414,0.754,6.304-5.991,1.861-6.75
				c-8.917-1.522-17.833-3.045-26.749-4.567C81.812,174.646,79.921,181.391,84.364,182.149L84.364,182.149z"/>
		</g>
	</g>
	<g>
		<g>
			<path style="fill:#FFFFFF;" d="M90.058,192.121c5.004,0.854,10.008,1.708,15.012,2.563c4.414,0.754,6.304-5.991,1.861-6.75
				c-5.004-0.854-10.008-1.708-15.012-2.563C87.505,184.617,85.615,191.362,90.058,192.121L90.058,192.121z"/>
		</g>
	</g>
	<path style="fill:none;stroke:#FFFFFF;stroke-width:10;stroke-miterlimit:10;" d="M121.034,137.253
		c0,7.544-6.116,13.66-13.66,13.66H89.16c-7.544,0-13.66-6.116-13.66-13.66V88.684c0-7.544,6.116-13.66,13.66-13.66h18.213
		c7.544,0,13.66,6.116,13.66,13.66V137.253z"/>
</g>
<g id="Ebene_1">
</g>
</svg>
