<?xml version="1.0" encoding="iso-8859-1"?>
<!-- Generator: Adobe Illustrator 16.0.3, SVG Export Plug-In . SVG Version: 6.00 Build 0)  -->
<!DOCTYPE svg PUBLIC "-//W3C//DTD SVG 1.1//EN" "http://www.w3.org/Graphics/SVG/1.1/DTD/svg11.dtd">
<svg version="1.1" xmlns="http://www.w3.org/2000/svg" xmlns:xlink="http://www.w3.org/1999/xlink" x="0px" y="0px" width="361px"
	 height="361px" viewBox="0 0 361 361" style="enable-background:new 0 0 361 361;" xml:space="preserve">
<g id="light_x5F_x-mas_x5F_manger">
	<g>
		<g>
			<g>
				<path style="fill:#FFFFFF;" d="M83.84,163.013c8.917,1.522,17.833,3.045,26.749,4.567c4.414,0.754,6.304-5.991,1.861-6.75
					c-8.917-1.522-17.833-3.045-26.749-4.567C81.287,155.509,79.397,162.254,83.84,163.013L83.84,163.013z"/>
			</g>
		</g>
		<g>
			<g>
				<path style="fill:#FFFFFF;" d="M84.114,172.628c8.917,1.522,17.833,3.045,26.749,4.567c4.414,0.753,6.304-5.991,1.861-6.75
					c-8.917-1.522-17.833-3.045-26.749-4.567C81.562,165.125,79.671,171.87,84.114,172.628L84.114,172.628z"/>
			</g>
		</g>
		<g>
			<g>
				<path style="fill:#FFFFFF;" d="M84.114,181.97c8.917,1.522,17.833,3.045,26.749,4.567c4.414,0.754,6.304-5.991,1.861-6.75
					c-8.917-1.522-17.833-3.045-26.749-4.567C81.562,174.466,79.671,181.211,84.114,181.97L84.114,181.97z"/>
			</g>
		</g>
		<g>
			<g>
				<path style="fill:#FFFFFF;" d="M89.808,191.941c5.004,0.854,10.008,1.708,15.012,2.563c4.414,0.754,6.304-5.991,1.861-6.75
					c-5.004-0.854-10.008-1.708-15.012-2.563C87.255,184.438,85.365,191.183,89.808,191.941L89.808,191.941z"/>
			</g>
		</g>
		<path style="fill:none;stroke:#FFFFFF;stroke-width:10;stroke-miterlimit:10;" d="M120.784,137.073
			c0,7.544-6.116,13.66-13.66,13.66H88.91c-7.544,0-13.66-6.116-13.66-13.66V88.504c0-7.544,6.116-13.66,13.66-13.66h18.213
			c7.544,0,13.66,6.116,13.66,13.66V137.073z"/>
	</g>
	<g>
		
			<line style="fill:none;stroke:#FFFFFF;stroke-width:10;stroke-linecap:round;stroke-miterlimit:10;" x1="134.833" y1="203.667" x2="233.91" y2="163.667"/>
		
			<line style="fill:none;stroke:#FFFFFF;stroke-width:10;stroke-linecap:round;stroke-miterlimit:10;" x1="287.083" y1="203.917" x2="234.356" y2="163.667"/>
	</g>
	<g>
		<path style="fill:none;stroke:#FFFFFF;stroke-width:7;stroke-linecap:round;stroke-linejoin:round;stroke-miterlimit:10;" d="
			M262.238,256.167c-0.305,19.466,14.513,32.167,7.333,32.167c-1.329,0-13.648-0.045-17.167-0.167
			c-5.307-0.185-15.133,1.058-16.333-2.167c-2.325-6.242,5.454-19.547,6.5-22.833c1.167-3.667,1.911-3.017,1.042-5.625
			c-0.875-2.625-0.494-6.739,0.75-8.5c1.5-2.125,1.768-6.636,2.041-8.042c0.526-2.705-4.166-9-2.833-13.833
			c1.993-7.224,8.849-6.5,12.667-6.5c4.916,0,7.619,7.843,11.404,18.319C270.238,246.167,262.404,245.5,262.238,256.167z"/>
		<path style="fill:none;stroke:#FFFFFF;stroke-width:7;stroke-linecap:round;stroke-linejoin:round;stroke-miterlimit:10;" d="
			M159.238,232.667c-0.496,2.603-4.301,42.997-4.5,48.5c-0.188,5.214,2.937,7.167,4.777,7.167c1.329,0,7.648-0.045,11.167-0.167
			c5.308-0.185,7.523,0.89,8.723-2.333c2.325-6.244-1.667-28.469-1.667-31.917c0-2.22,1.361-3.644,1-6.25
			c-0.291-2.1-1.779-3.077-2.167-5.167c-0.399-2.156-1.132-8.107-1.5-10c-0.526-2.705,2.458-5.221,1.667-10.5
			c-1-6.666-4.277-9.166-9.667-8.666c-4.896,0.453-6.753,4.546-7.5,7.833C158.738,224.834,160.048,228.41,159.238,232.667z"/>
		<g style="display:none;">
			
				<polygon style="display:inline;fill:#FFFFFF;stroke:#FFFFFF;stroke-width:7;stroke-linecap:round;stroke-linejoin:round;stroke-miterlimit:10;" points="
				216.078,267.329 194.488,267.329 204.449,279.848 204.449,279.848 206.117,279.848 206.117,279.848 			"/>
			
				<ellipse style="display:inline;fill:#FFFFFF;stroke:#FFFFFF;stroke-width:7;stroke-linecap:round;stroke-linejoin:round;stroke-miterlimit:10;" cx="205.284" cy="266.685" rx="3.885" ry="3.3"/>
			<g style="display:inline;">
				
					<line style="fill:none;stroke:#FFFFFF;stroke-width:7;stroke-linecap:round;stroke-linejoin:round;stroke-miterlimit:10;" x1="220.895" y1="270.143" x2="200.842" y2="287.967"/>
				
					<line style="fill:none;stroke:#FFFFFF;stroke-width:7;stroke-linecap:round;stroke-linejoin:round;stroke-miterlimit:10;" x1="189.673" y1="270.143" x2="209.725" y2="287.967"/>
			</g>
		</g>
		<g>
			<path style="fill:#FFFFFF;stroke:#FFFFFF;stroke-width:7;stroke-linecap:round;stroke-linejoin:round;stroke-miterlimit:10;" d="
				M213.092,267.329c0.049-0.208,0.077-0.424,0.077-0.645c0-1.822-1.739-3.3-3.886-3.3s-3.885,1.478-3.885,3.3
				c0,0.221,0.027,0.437,0.076,0.645h-6.986l9.961,12.519h1.668l9.961-12.519H213.092z"/>
			<g>
				
					<line style="fill:#FFFFFF;stroke:#FFFFFF;stroke-width:7;stroke-linecap:round;stroke-linejoin:round;stroke-miterlimit:10;" x1="222.895" y1="270.143" x2="202.842" y2="287.967"/>
				
					<line style="fill:#FFFFFF;stroke:#FFFFFF;stroke-width:7;stroke-linecap:round;stroke-linejoin:round;stroke-miterlimit:10;" x1="195.673" y1="270.143" x2="215.725" y2="287.967"/>
			</g>
		</g>
	</g>
</g>
<g id="Ebene_1">
</g>
</svg>
