<?xml version="1.0" encoding="iso-8859-1"?>
<!-- Generator: Adobe Illustrator 16.0.0, SVG Export Plug-In . SVG Version: 6.00 Build 0)  -->
<!DOCTYPE svg PUBLIC "-//W3C//DTD SVG 1.1//EN" "http://www.w3.org/Graphics/SVG/1.1/DTD/svg11.dtd">
<svg version="1.1" xmlns="http://www.w3.org/2000/svg" xmlns:xlink="http://www.w3.org/1999/xlink" x="0px" y="0px" width="361px"
	 height="361px" viewBox="0 0 361 361" style="enable-background:new 0 0 361 361;" xml:space="preserve">
<g id="light_x5F_garage">
	<g>
		<g>
			<path style="fill:#FFFFFF;" d="M199.658,281.339c0,2.733-2.217,4.949-4.951,4.949h-9.486c-2.734,0-4.951-2.216-4.951-4.949
				v-9.075c0-2.734,2.216-4.95,4.951-4.95h9.486c2.734,0,4.951,2.216,4.951,4.95V281.339z"/>
			<path style="fill:#FFFFFF;" d="M288.758,281.339c0,2.733-2.217,4.949-4.949,4.949h-9.488c-2.734,0-4.949-2.216-4.949-4.949
				v-9.075c0-2.734,2.215-4.95,4.949-4.95h9.488c2.732,0,4.949,2.216,4.949,4.95V281.339z"/>
			<path style="fill:#FFFFFF;" d="M277.271,244.199h-86.016c-4.938,0-8.805-4.958-8.805-11.289v-0.52l3.92-15.3
				c0.383-5.82,6.273-10.693,11.127-10.693h73.531c4.852,0,10.744,4.873,11.127,10.693l3.92,15.3v0.52
				C286.076,239.241,282.209,244.199,277.271,244.199z M191.568,235.949h85.391c0.279-0.31,0.762-1.184,0.852-2.576l-3.885-15.166
				v-0.521c0-1.297-2.057-2.925-2.965-3.042l-73.463,0.003c-0.84,0.114-2.896,1.743-2.896,3.039v0.521l-3.887,15.166
				C190.807,234.766,191.287,235.64,191.568,235.949z"/>
			<path style="fill:#FFFFFF;" d="M292.332,267.062c0,2.416-2.293,4.377-5.119,4.377H181.402c-2.828,0-5.12-1.961-5.12-4.377v-22.86
				c0-2.417,2.292-4.377,5.12-4.377h105.811c2.826,0,5.119,1.96,5.119,4.377V267.062z M203.576,249.36
				c0-2.143-2.215-3.879-4.949-3.879h-14.232c-2.732,0-4.95,1.736-4.95,3.879v4.04c0,2.142,2.217,3.878,4.95,3.878h14.232
				c2.734,0,4.949-1.736,4.949-3.878V249.36z M288.965,249.36c0-2.143-2.217-3.879-4.951-3.879h-14.23
				c-2.734,0-4.951,1.736-4.951,3.879v4.04c0,2.142,2.217,3.878,4.951,3.878h14.23c2.734,0,4.951-1.736,4.951-3.878V249.36z
				 M255.758,252.788c0-4.166-2.217-7.543-4.949-7.543h-33.414c-2.732,0-4.949,3.377-4.949,7.543v4.714
				c0,4.165,2.217,7.543,4.949,7.543h33.414c2.732,0,4.949-3.378,4.949-7.543V252.788z"/>
		</g>
		<rect x="206.877" y="247.514" style="fill:#FFFFFF;" width="54.449" height="8.25"/>
		<rect x="207.701" y="258.238" style="fill:#FFFFFF;" width="54.451" height="8.25"/>
	</g>
	<g>
		<g>
			<g>
				<path style="fill:#FFFFFF;" d="M150.933,174.295c0,37.285,0,74.571,0,111.856c0,6.448,10,6.448,10,0
					c0-37.285,0-74.571,0-111.856C160.933,167.846,150.933,167.846,150.933,174.295L150.933,174.295z"/>
			</g>
		</g>
		<g>
			<g>
				<path style="fill:#FFFFFF;" d="M287.211,163.384c-44.98,0.022-89.96,0.045-134.94,0.067c0.358,0,0.172-5.334,0.172-6.405
					c0-1.394-0.66-0.975,0.513-0.975c3.107,0,6.215,0,9.322,0c13.377,0,26.754,0,40.131,0c27.158,0,54.316,0,81.475,0
					c1.109,0,2.218,0,3.327,0c6.448,0,6.448-10,0-10c-44.98,0-89.96,0-134.94,0c-9.93,0-9.828,9.903-9.828,17.055
					c0,6.351,4.82,10.328,10.887,10.325c9.368-0.005,18.735-0.009,28.103-0.014c30.277-0.015,60.554-0.03,90.83-0.045
					c4.982-0.002,9.966-0.005,14.948-0.007C293.659,173.38,293.66,163.38,287.211,163.384L287.211,163.384z"/>
			</g>
		</g>
	</g>
	<g>
		<g>
			<path style="fill:#FFFFFF;" d="M285.309,175.224c0.069-0.256,1.464-0.094-0.535-0.094c-1.5,0-3,0-4.5,0
				c-5.185,0-10.368,0-15.552,0c-15.468,0-30.937,0-46.404,0c-14.746,0-29.492,0-44.238,0c-4.281,0-8.562,0-12.843,0
				c-0.857,0-1.715,0-2.573,0c-0.767,0,0.769,1.631,0.769,0.294c0-0.822,0-1.644,0-2.465c0-2.051,0.264-0.454-0.983-0.454
				c22.616,0,45.233,0,67.851,0c14.516,0,29.032,0,43.549,0c4.4,0,8.8,0,13.2,0c0.931,0,1.861,0,2.793,0
				c0.975,0-0.659,0.066-0.659-0.825c0,1.492,0,2.983,0,4.474c0,4.514,7,4.514,7,0c0-4.929-0.134-10.649-6.622-10.649
				c-3.127,0-6.254,0-9.381,0c-13.657,0-27.314,0-40.972,0c-25.328,0-50.656,0-75.984,0c-6.44,0-6.792,5.41-6.792,10.449
				c0,4.947,4.231,6.176,8.194,6.176c10.602,0,21.204,0,31.806,0c28.969,0,57.937,0,86.905,0c4.942,0,11.061,1.097,12.721-5.045
				C293.238,172.721,286.485,170.871,285.309,175.224z"/>
		</g>
	</g>
	<g>
		<g>
			<path style="fill:#FFFFFF;" d="M84.09,162.513c8.917,1.522,17.833,3.045,26.749,4.567c4.414,0.754,6.304-5.991,1.861-6.75
				c-8.917-1.522-17.833-3.045-26.749-4.567C81.537,155.009,79.647,161.754,84.09,162.513L84.09,162.513z"/>
		</g>
	</g>
	<g>
		<g>
			<path style="fill:#FFFFFF;" d="M84.364,172.128c8.917,1.522,17.833,3.045,26.749,4.567c4.414,0.753,6.304-5.991,1.861-6.75
				c-8.917-1.522-17.833-3.045-26.749-4.567C81.812,164.625,79.921,171.37,84.364,172.128L84.364,172.128z"/>
		</g>
	</g>
	<g>
		<g>
			<path style="fill:#FFFFFF;" d="M84.364,181.47c8.917,1.522,17.833,3.045,26.749,4.567c4.414,0.754,6.304-5.991,1.861-6.75
				c-8.917-1.522-17.833-3.045-26.749-4.567C81.812,173.966,79.921,180.711,84.364,181.47L84.364,181.47z"/>
		</g>
	</g>
	<g>
		<g>
			<path style="fill:#FFFFFF;" d="M90.058,191.441c5.004,0.854,10.008,1.708,15.012,2.563c4.414,0.754,6.304-5.991,1.861-6.75
				c-5.004-0.854-10.008-1.708-15.012-2.563C87.505,183.938,85.615,190.683,90.058,191.441L90.058,191.441z"/>
		</g>
	</g>
	<path style="fill:none;stroke:#FFFFFF;stroke-width:10;stroke-miterlimit:10;" d="M121.034,136.573
		c0,7.544-6.116,13.66-13.66,13.66H89.16c-7.544,0-13.66-6.116-13.66-13.66V88.004c0-7.544,6.116-13.66,13.66-13.66h18.213
		c7.544,0,13.66,6.116,13.66,13.66V136.573z"/>
</g>
<g id="Ebene_1">
</g>
</svg>
