<?xml version="1.0" encoding="iso-8859-1"?>
<!-- Generator: Adobe Illustrator 16.0.3, SVG Export Plug-In . SVG Version: 6.00 Build 0)  -->
<!DOCTYPE svg PUBLIC "-//W3C//DTD SVG 1.1//EN" "http://www.w3.org/Graphics/SVG/1.1/DTD/svg11.dtd">
<svg version="1.1" xmlns="http://www.w3.org/2000/svg" xmlns:xlink="http://www.w3.org/1999/xlink" x="0px" y="0px" width="361px"
	 height="361px" viewBox="0 0 361 361" style="enable-background:new 0 0 361 361;" xml:space="preserve">
<g id="light_x5F_plant_x5F_spot">
	<g>
		<g>
			<path style="fill:#FFFFFF;" d="M84.09,162.513c8.917,1.522,17.833,3.045,26.749,4.567c4.414,0.754,6.304-5.991,1.861-6.75
				c-8.917-1.522-17.833-3.045-26.749-4.567C81.537,155.009,79.647,161.754,84.09,162.513L84.09,162.513z"/>
		</g>
	</g>
	<g>
		<g>
			<path style="fill:#FFFFFF;" d="M84.364,172.128c8.917,1.522,17.833,3.045,26.749,4.567c4.414,0.753,6.304-5.991,1.861-6.75
				c-8.917-1.522-17.833-3.045-26.749-4.567C81.812,164.625,79.921,171.37,84.364,172.128L84.364,172.128z"/>
		</g>
	</g>
	<g>
		<g>
			<path style="fill:#FFFFFF;" d="M84.364,181.47c8.917,1.522,17.833,3.045,26.749,4.567c4.414,0.754,6.304-5.991,1.861-6.75
				c-8.917-1.522-17.833-3.045-26.749-4.567C81.812,173.966,79.921,180.711,84.364,181.47L84.364,181.47z"/>
		</g>
	</g>
	<g>
		<g>
			<path style="fill:#FFFFFF;" d="M90.058,191.441c5.004,0.854,10.008,1.708,15.012,2.563c4.414,0.754,6.304-5.991,1.861-6.75
				c-5.004-0.854-10.008-1.708-15.012-2.563C87.505,183.938,85.615,190.683,90.058,191.441L90.058,191.441z"/>
		</g>
	</g>
	<path style="fill:none;stroke:#FFFFFF;stroke-width:10;stroke-miterlimit:10;" d="M121.034,136.573
		c0,7.544-6.116,13.66-13.66,13.66H89.16c-7.544,0-13.66-6.116-13.66-13.66V88.004c0-7.544,6.116-13.66,13.66-13.66h18.213
		c7.544,0,13.66,6.116,13.66,13.66V136.573z"/>
	<g>
		<g>
			<g>
				<path style="fill:#FFFFFF;" d="M136.019,252.978c7.905,9.615,15.81,19.229,23.714,28.844c2.869,3.49,7.792-1.492,4.95-4.949
					c-7.905-9.615-15.81-19.229-23.714-28.844C138.1,244.538,133.177,249.521,136.019,252.978L136.019,252.978z"/>
			</g>
		</g>
		<g>
			<g>
				<path style="fill:#FFFFFF;" d="M155.862,274.301c-3.552,2.92-7.104,5.84-10.656,8.76c-1.794,1.476-3.328,2.624-5.306,0.218
					c-1.668-2.028-3.336-4.058-5.005-6.087c-1.571-1.912-3.143-3.823-4.714-5.735c-1.653-2.011-0.282-3.624,1.394-5.001
					c3.723-3.062,7.446-6.122,11.169-9.184c3.489-2.869-1.493-7.792-4.95-4.949c-4.155,3.416-8.311,6.832-12.466,10.249
					c-7.683,6.316,0.355,14.385,4.618,19.569c4.543,5.526,9.624,13.116,17.693,7.905c4.687-3.027,8.864-7.253,13.174-10.796
					C164.302,276.381,159.319,271.458,155.862,274.301L155.862,274.301z"/>
			</g>
		</g>
	</g>
	<g>
		<g>
			<g>
				<path style="fill:#FFFFFF;" d="M269.086,290.963c0.048-9.742-0.126-21.342,5.427-29.844c2.746-4.204,7.565-6.453,11.313-9.609
					c1.481-1.248-0.651-3.358-2.121-2.121c-4.247,3.576-9.03,6.003-12.15,10.779c-5.628,8.616-5.42,20.984-5.469,30.795
					C266.076,292.897,269.076,292.896,269.086,290.963L269.086,290.963z"/>
			</g>
		</g>
		<g>
			<g>
				<path style="fill:#FFFFFF;" d="M261.495,290.963c0.065-9.873,0.352-21.82,7.521-29.497c4.379-4.688,11.067-6.603,16.507-9.722
					c1.678-0.962,0.167-3.554-1.514-2.59c-5.998,3.438-12.788,5.558-17.62,10.731c-7.458,7.986-7.825,20.854-7.894,31.077
					C258.482,292.898,261.482,292.896,261.495,290.963L261.495,290.963z"/>
			</g>
		</g>
		<g>
			<g>
				<path style="fill:#FFFFFF;" d="M279.033,290.646c0.043-5.978-0.479-14.893,3.784-19.817c1.292-1.493,3.223-1.916,3.448-4.134
					c0.195-1.924-2.807-1.905-3,0c-0.035,0.351-3.382,2.997-3.851,3.734c-3.566,5.616-3.337,13.895-3.382,20.217
					C276.02,292.582,279.02,292.58,279.033,290.646L279.033,290.646z"/>
			</g>
		</g>
		<g>
			<g>
				<path style="fill:#FFFFFF;" d="M273.948,291.045c0.922-5.341,1.235-12.494,4.337-17.175c1.621-2.447,5.417-4.047,7.541-6.114
					c1.389-1.352-0.734-3.471-2.121-2.121c-2.351,2.287-5.799,3.783-7.77,6.401c-3.599,4.779-3.911,12.599-4.88,18.212
					C270.729,292.14,273.62,292.949,273.948,291.045L273.948,291.045z"/>
			</g>
		</g>
		<g>
			<g>
				<path style="fill:#FFFFFF;" d="M253.807,290.786c-0.028-7.678,1.653-20.657-5.583-25.714c-1.59-1.111-3.087,1.491-1.514,2.59
					c1.161,0.813,1.732,1.006,2.289,2.516c2.315,6.281,1.783,14.061,1.808,20.608C250.813,292.721,253.813,292.721,253.807,290.786
					L253.807,290.786z"/>
			</g>
		</g>
		<g>
			<g>
				<path style="fill:#FFFFFF;" d="M261.441,290.388c-0.995-5.754-1.389-13.189-4.735-18.233c-1.904-2.868-5.729-4.469-8.179-6.848
					c-1.388-1.349-3.511,0.771-2.121,2.121c2.281,2.216,5.266,3.667,7.443,5.922c1.229,1.273,1.672,3.308,2.128,4.949
					c1.168,4.212,1.827,8.586,2.571,12.886C258.878,293.089,261.769,292.279,261.441,290.388L261.441,290.388z"/>
			</g>
		</g>
		<g>
			<path style="fill:#FFFFFF;" d="M292.654,183.938c0,2.647-2.046,4.793-4.57,4.793h-61.506c-2.525,0-4.57-2.146-4.57-4.793v-31.765
				c0-2.648,2.045-4.794,4.57-4.794h61.506c2.524,0,4.57,2.146,4.57,4.794V183.938z"/>
			<path style="fill:#FFFFFF;" d="M277.352,161.609c0,2.087-1.693,3.779-3.779,3.779h-47.08c-2.087,0-3.779-1.692-3.779-3.779
				v-21.256c0-2.087,1.692-3.779,3.779-3.779h47.08c2.086,0,3.779,1.692,3.779,3.779V161.609z"/>
			<path style="fill:#FFFFFF;" d="M264.861,157.764c0,3.708-3.006,6.714-6.714,6.714h-11.05c-3.709,0-6.715-3.006-6.715-6.714
				v-21.681c0-3.708,3.006-6.714,6.715-6.714h11.05c3.708,0,6.714,3.006,6.714,6.714V157.764z"/>
			<path style="fill:#FFFFFF;" d="M235.234,180.903c0,4.323-3.006,7.828-6.713,7.828h-17.625c-3.708,0-6.714-3.505-6.714-7.828
				v-20.546c0-4.323,3.006-7.828,6.714-7.828h17.625c3.707,0,6.713,3.505,6.713,7.828V180.903z"/>
			<path style="fill:#FFFFFF;" d="M228.716,207.334c0,2.936-2.38,5.316-5.315,5.316h-13.428c-2.936,0-5.315-2.381-5.315-5.316l0,0
				c0-2.936,2.38-5.314,5.315-5.314H223.4C226.336,202.02,228.716,204.398,228.716,207.334L228.716,207.334z"/>
			<path style="fill:#FFFFFF;" d="M270.803,197.865c0,2.758-2.236,4.993-4.994,4.993h-58.535c-2.758,0-4.994-2.235-4.994-4.993
				v-6.658c0-2.758,2.236-4.994,4.994-4.994h58.535c2.758,0,4.994,2.236,4.994,4.994V197.865z"/>
			<path style="fill:#FFFFFF;" d="M286.633,209.229c0,1.609-1.732,2.916-3.867,2.916h-25.701c-2.135,0-3.866-1.307-3.866-2.916
				v-35.353c0-1.609,1.731-2.916,3.866-2.916h25.701c2.135,0,3.867,1.306,3.867,2.916V209.229z"/>
			<path style="fill:#FFFFFF;" d="M276.729,221.591c0,3.203-2.335,5.8-5.217,5.8h-48.294c-2.881,0-5.217-2.597-5.217-5.8v-7.733
				c0-3.203,2.336-5.801,5.217-5.801h48.294c2.882,0,5.217,2.598,5.217,5.801V221.591z"/>
			<g>
				<line style="fill:#FFFFFF;" x1="226.051" y1="201.164" x2="237.347" y2="248.214"/>
				<g>
					<path style="fill:#FFFFFF;" d="M221.229,202.493c3.766,15.684,7.53,31.366,11.296,47.05c1.505,6.269,11.147,3.609,9.643-2.658
						c-3.766-15.684-7.53-31.366-11.296-47.05C229.367,193.566,219.725,196.226,221.229,202.493L221.229,202.493z"/>
				</g>
			</g>
			<g>
				<line style="fill:#FFFFFF;" x1="238.387" y1="235.395" x2="255.693" y2="218.19"/>
				<g>
					<path style="fill:#FFFFFF;" d="M241.922,238.93c5.77-5.734,11.538-11.469,17.307-17.204c4.578-4.551-2.494-11.62-7.07-7.07
						c-5.77,5.734-11.538,11.469-17.307,17.204C230.273,236.41,237.346,243.479,241.922,238.93L241.922,238.93z"/>
				</g>
			</g>
			<g>
				<line style="fill:#FFFFFF;" x1="264.326" y1="214.516" x2="250.337" y2="259.809"/>
				<g>
					<path style="fill:#FFFFFF;" d="M259.505,213.187c-4.663,15.098-9.326,30.195-13.989,45.293c-1.908,6.179,7.746,8.8,9.643,2.658
						c4.663-15.098,9.326-30.195,13.989-45.293C271.056,209.666,261.401,207.045,259.505,213.187L259.505,213.187z"/>
				</g>
			</g>
			<g>
				<line style="fill:#FFFFFF;" x1="239.347" y1="287.157" x2="237.347" y2="250.214"/>
				<g>
					<path style="fill:#FFFFFF;" d="M244.347,287.157c-0.667-12.314-1.333-24.629-2-36.943c-0.348-6.413-10.349-6.446-10,0
						c0.667,12.314,1.333,24.629,2,36.943C234.694,293.57,244.695,293.604,244.347,287.157L244.347,287.157z"/>
				</g>
			</g>
			<g>
				<line style="fill:#FFFFFF;" x1="247.371" y1="287.157" x2="249.874" y2="258.689"/>
				<g>
					<path style="fill:#FFFFFF;" d="M252.371,287.157c0.834-9.489,1.669-18.979,2.503-28.468c0.565-6.427-9.439-6.372-10,0
						c-0.834,9.489-1.669,18.979-2.503,28.468C241.806,293.584,251.811,293.529,252.371,287.157L252.371,287.157z"/>
				</g>
			</g>
		</g>
		<g>
			<g>
				<path style="fill:#FFFFFF;" d="M222.495,289.664c-0.023-7.185,0.333-15.226-2.233-22.087c-1.35-3.607-4.16-5.766-6.993-8.175
					c-1.464-1.245-3.597,0.866-2.121,2.121c2.375,2.021,4.766,3.762,6.136,6.648c2.956,6.228,2.19,14.841,2.212,21.492
					C219.501,291.599,222.501,291.599,222.495,289.664L222.495,289.664z"/>
			</g>
		</g>
		<g>
			<g>
				<path style="fill:#FFFFFF;" d="M227.842,289.664c-0.043-7.27,0.051-15.66-3.791-22.137c-2.453-4.134-7.104-6.065-11.086-8.359
					c-1.679-0.968-3.189,1.625-1.514,2.59c3.369,1.942,7.248,3.508,9.634,6.721c4.196,5.65,3.718,14.574,3.757,21.186
					C224.854,291.598,227.854,291.6,227.842,289.664L227.842,289.664z"/>
			</g>
		</g>
		<g>
			<g>
				<path style="fill:#FFFFFF;" d="M216.104,289.664c-0.035-5.027-0.074-10.624-2.391-15.228c-0.467-0.926-1.163-1.776-1.962-2.434
					c-0.477-0.392-1.122-1.144-1.065-0.575c-0.19-1.906-3.192-1.925-3,0c0.169,1.693,1.41,2.137,2.5,3.195
					c3.438,3.337,2.889,10.811,2.918,15.041C213.117,291.598,216.117,291.6,216.104,289.664L216.104,289.664z"/>
			</g>
		</g>
		<g>
			<g>
				<path style="fill:#FFFFFF;" d="M219.819,289.266c-0.736-4.337-1.025-9.893-3.513-13.708c-1.415-2.171-4.234-3.384-6.061-5.19
					c-1.376-1.361-3.498,0.759-2.121,2.121c1.67,1.652,3.865,2.741,5.459,4.421c0.853,0.899,1.145,2.383,1.457,3.529
					c0.857,3.147,1.341,6.413,1.886,9.624C217.25,291.967,220.141,291.157,219.819,289.266L219.819,289.266z"/>
			</g>
		</g>
		<g>
			<g>
				<path style="fill:#FFFFFF;" d="M231.814,289.765c0.031-4.049-0.298-10.191,2.752-13.428c1.092-1.158,2.511-1.366,2.713-3.193
					c0.213-1.922-2.79-1.901-3,0c0.081-0.731-0.026-0.323-0.774,0.196c-0.848,0.588-1.5,1.319-2.085,2.164
					c-2.683,3.88-2.571,9.803-2.605,14.261C228.8,291.7,231.8,291.698,231.814,289.765L231.814,289.765z"/>
			</g>
		</g>
		<g>
			<g>
				<path style="fill:#FFFFFF;" d="M227.957,290.163c0.642-3.411,0.855-8.882,3.188-11.727c1.409-1.718,4.016-2.73,5.695-4.232
					c1.445-1.292-0.684-3.406-2.121-2.121c-1.798,1.606-4.347,2.587-5.877,4.454c-2.701,3.294-3.031,8.859-3.777,12.829
					C224.709,291.256,227.601,292.063,227.957,290.163L227.957,290.163z"/>
			</g>
		</g>
	</g>
	<g>
		<g>
			<path style="fill:#FFFFFF;" d="M182.924,233.486c-6.968,5.729-13.937,11.457-20.905,17.186c-3.489,2.869,1.493,7.791,4.95,4.949
				c6.968-5.729,13.936-11.457,20.904-17.186C191.363,235.566,186.381,230.645,182.924,233.486L182.924,233.486z"/>
		</g>
	</g>
	<g>
		<g>
			<path style="fill:#FFFFFF;" d="M196.158,247.787c-8.366,3.374-16.732,6.747-25.098,10.121c-4.131,1.666-2.328,8.439,1.861,6.75
				c8.366-3.374,16.732-6.747,25.098-10.121C202.15,252.871,200.348,246.098,196.158,247.787L196.158,247.787z"/>
		</g>
	</g>
	<g>
		<g>
			<path style="fill:#FFFFFF;" d="M170.139,220.29c-4.928,7.556-9.856,15.112-14.784,22.668c-2.474,3.794,3.589,7.298,6.044,3.533
				c4.928-7.556,9.856-15.112,14.784-22.668C178.657,220.029,172.594,216.525,170.139,220.29L170.139,220.29z"/>
		</g>
	</g>
</g>
<g id="Ebene_1">
</g>
</svg>
