<?xml version="1.0" encoding="iso-8859-1"?>
<!-- Generator: Adobe Illustrator 16.0.0, SVG Export Plug-In . SVG Version: 6.00 Build 0)  -->
<!DOCTYPE svg PUBLIC "-//W3C//DTD SVG 1.1//EN" "http://www.w3.org/Graphics/SVG/1.1/DTD/svg11.dtd">
<svg version="1.1" xmlns="http://www.w3.org/2000/svg" xmlns:xlink="http://www.w3.org/1999/xlink" x="0px" y="0px" width="361px"
	 height="361px" viewBox="0 0 361 361" style="enable-background:new 0 0 361 361;" xml:space="preserve">
<g id="light_x5F_fairy_x5F_lights">
	<g>
		<g>
			<path style="fill:#FFFFFF;" d="M83.84,163.013c8.917,1.522,17.833,3.045,26.749,4.567c4.414,0.754,6.304-5.991,1.861-6.75
				c-8.917-1.522-17.833-3.045-26.749-4.567C81.287,155.509,79.397,162.254,83.84,163.013L83.84,163.013z"/>
		</g>
	</g>
	<g>
		<g>
			<path style="fill:#FFFFFF;" d="M84.114,172.628c8.917,1.522,17.833,3.045,26.749,4.567c4.414,0.753,6.304-5.991,1.861-6.75
				c-8.917-1.522-17.833-3.045-26.749-4.567C81.562,165.125,79.671,171.87,84.114,172.628L84.114,172.628z"/>
		</g>
	</g>
	<g>
		<g>
			<path style="fill:#FFFFFF;" d="M84.114,181.97c8.917,1.522,17.833,3.045,26.749,4.567c4.414,0.754,6.304-5.991,1.861-6.75
				c-8.917-1.522-17.833-3.045-26.749-4.567C81.562,174.466,79.671,181.211,84.114,181.97L84.114,181.97z"/>
		</g>
	</g>
	<g>
		<g>
			<path style="fill:#FFFFFF;" d="M89.808,191.941c5.004,0.854,10.008,1.708,15.012,2.563c4.414,0.754,6.304-5.991,1.861-6.75
				c-5.004-0.854-10.008-1.708-15.012-2.563C87.255,184.438,85.365,191.183,89.808,191.941L89.808,191.941z"/>
		</g>
	</g>
	<path style="fill:none;stroke:#FFFFFF;stroke-width:10;stroke-miterlimit:10;" d="M120.784,137.073
		c0,7.544-6.116,13.66-13.66,13.66H88.91c-7.544,0-13.66-6.116-13.66-13.66V88.504c0-7.544,6.116-13.66,13.66-13.66h18.213
		c7.544,0,13.66,6.116,13.66,13.66V137.073z"/>
	<g>
		<g>
			<path style="fill:#FFFFFF;" d="M259.833,161.667c-0.127,8.03-7.06,14.84-13.688,19.554
				c-11.971,8.514-26.208,13.684-40.146,17.933c-42.171,12.854-87.284,16.447-131.165,16.514c-6.448,0.01-6.449,10.01,0,10
				c46.044-0.07,93.463-4.082,137.573-18.035c14.518-4.593,29.407-10.467,41.564-19.832c8.346-6.429,15.688-15.089,15.862-26.133
				C269.935,155.215,259.935,155.225,259.833,161.667L259.833,161.667z"/>
		</g>
	</g>
	<g>
		<g>
			<g>
				<path style="fill:#FFFFFF;" d="M83.333,224.667c0,3.333,0,6.667,0,10c0,4.514,7,4.514,7,0c0-3.333,0-6.667,0-10
					C90.333,220.153,83.333,220.153,83.333,224.667L83.333,224.667z"/>
			</g>
		</g>
		<path style="fill:#FFFFFF;" d="M93.833,250.667c0,3.313-2.687,6-6,6h-3c-3.313,0-6-2.687-6-6v-11c0-3.313,2.687-6,6-6h3
			c3.313,0,6,2.687,6,6V250.667z"/>
	</g>
	<g>
		<g>
			<g>
				<path style="fill:#FFFFFF;" d="M127.333,221.667c0,3.333,0,6.667,0,10c0,4.514,7,4.514,7,0c0-3.333,0-6.667,0-10
					C134.333,217.153,127.333,217.153,127.333,221.667L127.333,221.667z"/>
			</g>
		</g>
		<path style="fill:#FFFFFF;" d="M137.833,247.667c0,3.313-2.687,6-6,6h-3c-3.313,0-6-2.687-6-6v-11c0-3.313,2.687-6,6-6h3
			c3.313,0,6,2.687,6,6V247.667z"/>
	</g>
	<g>
		<g>
			<g>
				<path style="fill:#FFFFFF;" d="M167.333,215.667c0,3.333,0,6.667,0,10c0,4.514,7,4.514,7,0c0-3.333,0-6.667,0-10
					C174.333,211.153,167.333,211.153,167.333,215.667L167.333,215.667z"/>
			</g>
		</g>
		<path style="fill:#FFFFFF;" d="M177.833,241.667c0,3.313-2.687,6-6,6h-3c-3.313,0-6-2.687-6-6v-11c0-3.313,2.687-6,6-6h3
			c3.313,0,6,2.687,6,6V241.667z"/>
	</g>
	<g>
		<g>
			<g>
				<path style="fill:#FFFFFF;" d="M208.333,206.667c0,3.333,0,6.667,0,10c0,4.514,7,4.514,7,0c0-3.333,0-6.667,0-10
					C215.333,202.153,208.333,202.153,208.333,206.667L208.333,206.667z"/>
			</g>
		</g>
		<path style="fill:#FFFFFF;" d="M218.833,232.667c0,3.313-2.687,6-6,6h-3c-3.313,0-6-2.687-6-6v-11c0-3.313,2.687-6,6-6h3
			c3.313,0,6,2.687,6,6V232.667z"/>
	</g>
	<g>
		<g>
			<g>
				<path style="fill:#FFFFFF;" d="M248.333,188.667c0,3.333,0,6.667,0,10c0,4.514,7,4.514,7,0c0-3.333,0-6.667,0-10
					C255.333,184.153,248.333,184.153,248.333,188.667L248.333,188.667z"/>
			</g>
		</g>
		<path style="fill:#FFFFFF;" d="M258.833,214.667c0,3.313-2.687,6-6,6h-3c-3.313,0-6-2.687-6-6v-11c0-3.313,2.687-6,6-6h3
			c3.313,0,6,2.687,6,6V214.667z"/>
	</g>
	<g>
		<polygon style="fill:#FFFFFF;" points="287.409,155.167 287.583,97.716 211.832,155.167 		"/>
		<g>
			<path style="fill:#FFFFFF;" d="M292.409,155.167c0.058-19.15,0.116-38.3,0.174-57.451c0.011-3.45-4.397-6.688-7.523-4.317
				c-25.251,19.15-50.501,38.3-75.751,57.451c-3.729,2.828-2.879,9.317,2.523,9.317c25.192,0,50.385,0,75.577,0
				c6.448,0,6.448-10,0-10c-25.192,0-50.385,0-75.577,0c0.841,3.106,1.683,6.211,2.523,9.317c25.25-19.15,50.501-38.3,75.751-57.451
				c-2.508-1.439-5.016-2.878-7.523-4.317c-0.058,19.15-0.116,38.3-0.174,57.451C282.39,161.617,292.39,161.615,292.409,155.167z"/>
		</g>
	</g>
	<path style="fill:none;stroke:#FFFFFF;stroke-width:10;stroke-miterlimit:10;" d="M317.634,158"/>
	<path style="fill:none;stroke:#FFFFFF;stroke-width:10;stroke-miterlimit:10;" d="M291.834,152.167h-51.643
		c-5.831,0-10.558,2.612-10.558,5.833v122.5c0,3.222,4.727,5.834,10.558,5.834h51.643"/>
	<path style="fill:none;stroke:#FFFFFF;stroke-width:10;stroke-miterlimit:10;" d="M300.134,211.846"/>
	<path style="fill:none;stroke:#FFFFFF;stroke-width:10;stroke-miterlimit:10;" d="M292.583,207.167h-17.949
		c-3.313,0-6,2.542-6,5.679v68.143c0,3.136,2.687,5.679,6,5.679h17.2"/>
</g>
<g id="Ebene_1">
</g>
</svg>
