<?xml version="1.0" encoding="iso-8859-1"?>
<!-- Generator: Adobe Illustrator 16.0.0, SVG Export Plug-In . SVG Version: 6.00 Build 0)  -->
<!DOCTYPE svg PUBLIC "-//W3C//DTD SVG 1.1//EN" "http://www.w3.org/Graphics/SVG/1.1/DTD/svg11.dtd">
<svg version="1.1" xmlns="http://www.w3.org/2000/svg" xmlns:xlink="http://www.w3.org/1999/xlink" x="0px" y="0px" width="361px"
	 height="361px" viewBox="0 0 361 361" style="enable-background:new 0 0 361 361;" xml:space="preserve">
<g id="light_x5F_dinner_x5F_table">
	<g>
		<g>
			<path style="fill:#FFFFFF;" d="M84.09,163.513c8.917,1.522,17.833,3.045,26.749,4.567c4.414,0.754,6.304-5.991,1.861-6.75
				c-8.917-1.522-17.833-3.045-26.749-4.567C81.537,156.009,79.647,162.754,84.09,163.513L84.09,163.513z"/>
		</g>
	</g>
	<g>
		<g>
			<path style="fill:#FFFFFF;" d="M84.364,173.128c8.917,1.522,17.833,3.045,26.749,4.567c4.414,0.753,6.304-5.991,1.861-6.75
				c-8.917-1.522-17.833-3.045-26.749-4.567C81.812,165.625,79.921,172.37,84.364,173.128L84.364,173.128z"/>
		</g>
	</g>
	<g>
		<g>
			<path style="fill:#FFFFFF;" d="M84.364,182.47c8.917,1.522,17.833,3.045,26.749,4.567c4.414,0.754,6.304-5.991,1.861-6.75
				c-8.917-1.522-17.833-3.045-26.749-4.567C81.812,174.966,79.921,181.711,84.364,182.47L84.364,182.47z"/>
		</g>
	</g>
	<g>
		<g>
			<path style="fill:#FFFFFF;" d="M90.058,192.441c5.004,0.854,10.008,1.708,15.012,2.563c4.414,0.754,6.304-5.991,1.861-6.75
				c-5.004-0.854-10.008-1.708-15.012-2.563C87.505,184.938,85.615,191.683,90.058,192.441L90.058,192.441z"/>
		</g>
	</g>
	<path style="fill:none;stroke:#FFFFFF;stroke-width:10;stroke-miterlimit:10;" d="M121.034,137.573
		c0,7.544-6.116,13.66-13.66,13.66H89.16c-7.544,0-13.66-6.116-13.66-13.66V89.004c0-7.544,6.116-13.66,13.66-13.66h18.213
		c7.544,0,13.66,6.116,13.66,13.66V137.573z"/>
	<g>
		<g>
			<path style="fill:#FFFFFF;" d="M200.278,291.002c16.389,0,32.778,0,49.168,0c9.686,0,9.771-15.004,0.107-15.004
				c-16.389,0-32.778,0-49.168,0C190.7,275.998,190.614,291.002,200.278,291.002L200.278,291.002z"/>
		</g>
	</g>
	<g>
		<g>
			<path style="fill:#FFFFFF;" d="M167.779,225.336c38.556,0,77.112,0,115.667,0c9.686,0,9.771-15.004,0.107-15.004
				c-38.556,0-77.111,0-115.667,0C158.201,210.332,158.115,225.336,167.779,225.336L167.779,225.336z"/>
		</g>
	</g>
	<g>
		<g>
			<path style="fill:#FFFFFF;" d="M229.998,223.946c0,19.889,0,39.777,0,59.667c0,9.686,15.004,9.771,15.004,0.107
				c0-19.889,0-39.777,0-59.667C245.002,214.368,229.998,214.282,229.998,223.946L229.998,223.946z"/>
		</g>
	</g>
	<g>
		<g>
			<path style="fill:#FFFFFF;" d="M222,80.667c0,19.111,0,38.222,0,57.333c0,4.514,7,4.514,7,0c0-19.111,0-38.222,0-57.333
				C229,76.153,222,76.153,222,80.667L222,80.667z"/>
		</g>
	</g>
	<g>
		<g>
			<path style="fill:#FFFFFF;" d="M184.632,168.022c14.434-9.222,28.867-18.444,43.301-27.667c-1.178,0-2.355,0-3.533,0
				c14.434,9.223,28.868,18.445,43.302,27.667c0.589-2.174,1.178-4.348,1.767-6.522c-28.867,0-57.735,0-86.603,0
				c-4.514,0-4.514,7,0,7c28.867,0,57.735,0,86.603,0c3.579,0,4.648-4.681,1.767-6.522c-14.434-9.223-28.868-18.445-43.302-27.667
				c-1.013-0.647-2.521-0.647-3.533,0c-14.434,9.222-28.867,18.444-43.301,27.667C177.308,164.4,180.815,170.461,184.632,168.022z"
				/>
		</g>
	</g>
	<path style="fill:#FFFFFF;stroke:#FFFFFF;stroke-miterlimit:10;" d="M239.5,75.667c0,3.129-2.537,5.667-5.667,5.667h-16
		c-3.13,0-5.667-2.537-5.667-5.667l0,0c0-3.129,2.537-5.667,5.667-5.667h16C236.963,70,239.5,72.538,239.5,75.667L239.5,75.667z"/>
	<g>
		<g>
			<path style="fill:#FFFFFF;" d="M203.998,218.946c0,19.889,0,39.777,0,59.667c0,9.686,15.004,9.771,15.004,0.107
				c0-19.889,0-39.777,0-59.667C219.002,209.368,203.998,209.282,203.998,218.946L203.998,218.946z"/>
		</g>
	</g>
</g>
<g id="Ebene_1">
</g>
</svg>
