<?xml version="1.0" encoding="iso-8859-1"?>
<!-- Generator: Adobe Illustrator 16.0.0, SVG Export Plug-In . SVG Version: 6.00 Build 0)  -->
<!DOCTYPE svg PUBLIC "-//W3C//DTD SVG 1.1//EN" "http://www.w3.org/Graphics/SVG/1.1/DTD/svg11.dtd">
<svg version="1.1" xmlns="http://www.w3.org/2000/svg" xmlns:xlink="http://www.w3.org/1999/xlink" x="0px" y="0px" width="361px"
	 height="361px" viewBox="0 0 361 361" style="enable-background:new 0 0 361 361;" xml:space="preserve">
<g id="light_x5F_cube">
	<g id="Lampe">
		<g>
			<g>
				<path style="fill:#FFFFFF;" d="M84.09,163.192c8.917,1.522,17.833,3.045,26.749,4.567c4.414,0.754,6.304-5.991,1.861-6.75
					c-8.917-1.522-17.833-3.045-26.749-4.567C81.537,155.688,79.647,162.434,84.09,163.192L84.09,163.192z"/>
			</g>
		</g>
		<g>
			<g>
				<path style="fill:#FFFFFF;" d="M84.364,172.808c8.917,1.522,17.833,3.045,26.749,4.567c4.414,0.753,6.304-5.991,1.861-6.75
					c-8.917-1.522-17.833-3.045-26.749-4.567C81.812,165.305,79.921,172.049,84.364,172.808L84.364,172.808z"/>
			</g>
		</g>
		<g>
			<g>
				<path style="fill:#FFFFFF;" d="M84.364,182.149c8.917,1.522,17.833,3.045,26.749,4.567c4.414,0.754,6.304-5.991,1.861-6.75
					c-8.917-1.522-17.833-3.045-26.749-4.567C81.812,174.646,79.921,181.391,84.364,182.149L84.364,182.149z"/>
			</g>
		</g>
		<g>
			<g>
				<path style="fill:#FFFFFF;" d="M90.058,192.121c5.004,0.854,10.008,1.708,15.012,2.563c4.414,0.754,6.304-5.991,1.861-6.75
					c-5.004-0.854-10.008-1.708-15.012-2.563C87.505,184.617,85.615,191.362,90.058,192.121L90.058,192.121z"/>
			</g>
		</g>
		<path style="fill:none;stroke:#FFFFFF;stroke-width:10;stroke-miterlimit:10;" d="M121.034,137.253
			c0,7.544-6.116,13.66-13.66,13.66H89.16c-7.544,0-13.66-6.116-13.66-13.66V88.684c0-7.544,6.116-13.66,13.66-13.66h18.213
			c7.544,0,13.66,6.116,13.66,13.66V137.253z"/>
	</g>
	<g>
		<g>
			<path style="fill:#FFFFFF;" d="M155.893,288.545c-0.02-5.125,0.217-10.825-1.594-15.723c-0.973-2.631-2.989-4.216-5.054-5.97
				c-1.465-1.244-3.598,0.867-2.121,2.121c1.629,1.384,3.272,2.575,4.234,4.538c2.108,4.299,1.517,10.428,1.535,15.033
				C152.9,290.479,155.9,290.479,155.893,288.545L155.893,288.545z"/>
		</g>
	</g>
	<g>
		<g>
			<path style="fill:#FFFFFF;" d="M159.67,288.545c-0.036-5.23-0.001-11.152-2.715-15.825c-1.753-3.019-5.125-4.441-8.014-6.102
				c-1.68-0.966-3.19,1.626-1.514,2.59c2.291,1.317,4.983,2.389,6.624,4.556c2.958,3.906,2.587,10.19,2.619,14.781
				C156.684,290.479,159.684,290.48,159.67,288.545L159.67,288.545z"/>
		</g>
	</g>
	<g>
		<g>
			<path style="fill:#FFFFFF;" d="M149.473,288.545c-0.036-4.574-0.104-9.742-2.396-13.856c-0.511-0.918-1.248-1.708-2.087-2.331
				c-0.271-0.202-0.552-0.386-0.839-0.565c-0.454-0.284-0.164-0.271-0.107,0.244c-0.21-1.901-3.212-1.922-3,0
				c0.185,1.679,1.386,2.013,2.504,2.993c3.315,2.908,2.895,9.652,2.924,13.516C146.488,290.479,149.488,290.48,149.473,288.545
				L149.473,288.545z"/>
		</g>
	</g>
	<g>
		<g>
			<path style="fill:#FFFFFF;" d="M153.196,288.146c-0.736-3.918-1.092-9.078-3.52-12.443c-1.476-2.046-4.21-3.063-6.072-4.728
				c-1.438-1.285-3.566,0.829-2.121,2.121c1.686,1.507,3.858,2.468,5.469,4.003c0.829,0.789,1.144,2.08,1.461,3.132
				c0.855,2.838,1.343,5.805,1.889,8.712C150.661,290.844,153.552,290.037,153.196,288.146L153.196,288.146z"/>
		</g>
	</g>
	<g>
		<g>
			<path style="fill:#FFFFFF;" d="M162.477,288.615c0.021-2.716-0.24-6.994,1.815-9.176c0.762-0.808,1.883-1.09,2.046-2.566
				c0.212-1.922-2.79-1.901-3,0c0.084-0.76,0.521-0.832-0.329-0.242c-0.666,0.462-1.171,1.022-1.631,1.687
				c-1.941,2.806-1.876,7.07-1.901,10.298C159.461,290.551,162.461,290.549,162.477,288.615L162.477,288.615z"/>
		</g>
	</g>
	<g>
		<g>
			<path style="fill:#FFFFFF;" d="M159.736,289.014c0.432-2.299,0.563-6.168,2.139-8.091c0.975-1.188,2.844-1.935,4.023-2.989
				c1.445-1.291-0.684-3.406-2.121-2.121c-1.273,1.138-3.067,1.822-4.152,3.146c-1.973,2.406-2.235,6.35-2.782,9.259
				C156.488,290.107,159.379,290.914,159.736,289.014L159.736,289.014z"/>
		</g>
	</g>
	<g>
		<g>
			<path style="fill:#FFFFFF;" d="M281.462,289.773c0.046-5.764-0.075-12.483,3.205-17.507c1.552-2.376,4.419-3.707,6.554-5.483
				c1.489-1.238-0.646-3.349-2.121-2.121c-2.626,2.185-5.456,3.691-7.373,6.627c-3.366,5.155-3.218,12.625-3.265,18.484
				C278.446,291.709,281.446,291.707,281.462,289.773L281.462,289.773z"/>
		</g>
	</g>
	<g>
		<g>
			<path style="fill:#FFFFFF;" d="M276.955,289.773c0.064-5.908,0.193-12.94,4.63-17.421c2.494-2.52,6.303-3.618,9.332-5.335
				c1.683-0.953,0.172-3.545-1.514-2.59c-3.78,2.143-7.964,3.493-10.91,6.844c-4.273,4.861-4.472,12.419-4.538,18.502
				C273.935,291.709,276.935,291.707,276.955,289.773L276.955,289.773z"/>
		</g>
	</g>
	<g>
		<g>
			<path style="fill:#FFFFFF;" d="M287.367,289.585c0.023-3.34-0.328-8.565,2.068-11.333c0.863-0.998,2.064-1.301,2.225-2.885
				c0.194-1.925-2.808-1.905-3,0c0.064-0.64,0.216-0.522-0.449-0.02c-0.715,0.54-1.271,1.17-1.753,1.929
				c-2.179,3.43-2.063,8.441-2.091,12.309C284.354,291.521,287.354,291.519,287.367,289.585L287.367,289.585z"/>
		</g>
	</g>
	<g>
		<g>
			<path style="fill:#FFFFFF;" d="M284.326,289.983c0.537-3.111,0.706-7.322,2.514-10.05c0.916-1.383,3.174-2.331,4.381-3.506
				c1.389-1.352-0.734-3.471-2.121-2.121c-1.446,1.407-3.492,2.31-4.708,3.923c-2.169,2.881-2.374,7.572-2.958,10.957
				C281.107,291.078,283.998,291.888,284.326,289.983L284.326,289.983z"/>
		</g>
	</g>
	<g>
		<g>
			<path style="fill:#FFFFFF;" d="M272.391,289.668c-0.018-4.886,0.936-12.605-3.615-15.791c-1.589-1.113-3.086,1.489-1.514,2.59
				c0.731,0.513,0.728,0.179,1.078,1.129c1.357,3.684,1.036,8.235,1.051,12.072C269.397,291.603,272.397,291.603,272.391,289.668
				L272.391,289.668z"/>
		</g>
	</g>
	<g>
		<g>
			<path style="fill:#FFFFFF;" d="M276.901,289.27c-0.601-3.473-0.854-7.927-2.872-10.969c-1.174-1.768-3.442-2.725-4.95-4.189
				c-1.388-1.349-3.511,0.771-2.121,2.121c1.353,1.314,3.128,2.18,4.418,3.516c0.647,0.67,0.868,1.812,1.106,2.669
				c0.693,2.5,1.085,5.098,1.526,7.649C274.338,291.971,277.229,291.161,276.901,289.27L276.901,289.27z"/>
		</g>
	</g>
	<g>
		<g>
			<path style="fill:#FFFFFF;" d="M139.855,289.043c-0.019-4.901,0.207-10.354-1.525-15.037c-0.934-2.526-2.861-4.049-4.845-5.732
				c-1.465-1.244-3.598,0.867-2.121,2.121c1.552,1.317,3.117,2.451,4.034,4.321c2.007,4.094,1.44,9.942,1.457,14.327
				C136.862,290.978,139.862,290.978,139.855,289.043L139.855,289.043z"/>
		</g>
	</g>
	<g>
		<g>
			<path style="fill:#FFFFFF;" d="M143.464,289.043c-0.035-5.009-0.004-10.677-2.604-15.151c-1.682-2.895-4.908-4.26-7.679-5.853
				c-1.68-0.967-3.19,1.626-1.514,2.59c2.176,1.252,4.745,2.27,6.304,4.328c2.819,3.722,2.462,9.712,2.493,14.086
				C140.478,290.977,143.478,290.979,143.464,289.043L143.464,289.043z"/>
		</g>
	</g>
	<g>
		<g>
			<path style="fill:#FFFFFF;" d="M133.646,289.043c-0.03-4.254-0.074-8.968-2.033-12.859c-0.398-0.792-0.997-1.524-1.68-2.086
				c-0.683-0.562-0.89-1.02-0.819-0.309c-0.19-1.906-3.192-1.925-3,0c0.151,1.512,1.202,1.914,2.163,2.847
				c2.817,2.734,2.344,8.948,2.369,12.407C130.66,290.977,133.66,290.979,133.646,289.043L133.646,289.043z"/>
		</g>
	</g>
	<g>
		<g>
			<path style="fill:#FFFFFF;" d="M136.745,288.645c-0.62-3.65-0.87-8.313-2.963-11.524c-1.2-1.842-3.558-2.859-5.107-4.392
				c-1.376-1.361-3.498,0.759-2.121,2.121c1.396,1.382,3.233,2.294,4.565,3.699c0.679,0.716,0.908,1.933,1.156,2.844
				c0.717,2.632,1.121,5.363,1.577,8.049C134.176,291.346,137.066,290.536,136.745,288.645L136.745,288.645z"/>
		</g>
	</g>
	<g>
		<g>
			<path style="fill:#FFFFFF;" d="M70.833,292.085c48.132,0,96.264,0,144.396,0c24.868,0,49.736,0,74.604,0c1.935,0,1.935-3,0-3
				c-48.132,0-96.264,0-144.396,0c-24.868,0-49.736,0-74.604,0C68.898,289.085,68.898,292.085,70.833,292.085L70.833,292.085z"/>
		</g>
	</g>
	<g>
		<g>
			<path style="fill:#FFFFFF;" d="M117.428,289.942c-0.017-4.345,0.182-9.18-1.354-13.331c-0.837-2.265-2.546-3.632-4.325-5.143
				c-1.465-1.244-3.598,0.867-2.121,2.121c1.359,1.154,2.734,2.146,3.537,3.783c1.756,3.583,1.249,8.734,1.263,12.569
				C114.436,291.877,117.436,291.877,117.428,289.942L117.428,289.942z"/>
		</g>
	</g>
	<g>
		<g>
			<path style="fill:#FFFFFF;" d="M120.617,289.942c-0.031-4.458-0.011-9.492-2.324-13.474c-1.503-2.587-4.371-3.81-6.847-5.234
				c-1.68-0.967-3.19,1.626-1.515,2.59c1.89,1.088,4.153,1.975,5.507,3.762c2.471,3.264,2.152,8.523,2.178,12.356
				C117.631,291.876,120.631,291.878,120.617,289.942L120.617,289.942z"/>
		</g>
	</g>
	<g>
		<g>
			<path style="fill:#FFFFFF;" d="M112.618,289.942c-0.022-3.117-0.074-6.536-1.508-9.386c-0.299-0.594-0.751-1.151-1.265-1.573
				c-0.223-0.184-0.458-0.354-0.695-0.519c-0.083-0.058,0.196,0.19,0.237,0.604c-0.19-1.906-3.192-1.925-3,0
				c0.124,1.241,1.126,1.808,1.668,2.333c1.875,1.82,1.546,6.204,1.563,8.541C109.631,291.876,112.631,291.878,112.618,289.942
				L112.618,289.942z"/>
		</g>
	</g>
	<g>
		<g>
			<path style="fill:#FFFFFF;" d="M114.811,289.544c-0.449-2.644-0.641-5.994-2.156-8.319c-0.886-1.358-2.566-2.088-3.708-3.217
				c-1.376-1.361-3.498,0.759-2.121,2.121c0.996,0.985,2.399,1.734,3.254,2.637c0.357,0.376,0.559,1.269,0.713,1.837
				c0.512,1.877,0.799,3.824,1.125,5.738C112.242,292.245,115.132,291.436,114.811,289.544L114.811,289.544z"/>
		</g>
	</g>
	<g>
		<g>
			<path style="fill:#FFFFFF;" d="M124.985,290.002c0.017-2.221-0.198-5.814,1.464-7.578c0.564-0.599,1.648-0.999,1.795-2.333
				c0.212-1.922-2.79-1.901-3,0c0.081-0.729,0.663-0.978-0.162-0.405c-0.598,0.415-1.047,0.91-1.46,1.508
				c-1.662,2.402-1.615,6.043-1.637,8.809C121.97,291.938,124.97,291.936,124.985,290.002L124.985,290.002z"/>
		</g>
	</g>
	<g>
		<g>
			<path style="fill:#FFFFFF;" d="M122.664,290.4c0.354-1.881,0.528-5.24,1.745-6.725c0.694-0.847,2.415-1.647,3.396-2.524
				c1.445-1.292-0.684-3.406-2.121-2.121c-1.077,0.962-2.586,1.537-3.504,2.656c-1.7,2.072-1.936,5.406-2.408,7.917
				C119.416,291.494,122.307,292.301,122.664,290.4L122.664,290.4z"/>
		</g>
	</g>
	<g>
		<g>
			<path style="fill:#FFFFFF;" d="M173.5,199.69c0-2.537,2.057-4.594,4.594-4.594h77.331c2.536,0,4.594,2.057,4.594,4.594v77.331
				c0,2.537-2.058,4.594-4.594,4.594h-77.331c-2.537,0-4.594-2.057-4.594-4.594V199.69z"/>
			<g>
				<path style="fill:#FFFFFF;" d="M178.5,199.69c-0.101,0.753,0.176,0.406,1.548,0.406c2.202,0,4.404,0,6.606,0
					c7.06,0,14.118,0,21.178,0c14.365,0,28.731,0,43.097,0c1.359,0,2.719,0,4.077,0c0.437,0,0.013-0.676,0.013,0.646
					c0,4.721,0,9.441,0,14.162c0,15.634,0,31.268,0,46.901c0,4.721,0,9.441,0,14.162c0,1.286,0.213,0.646,0.137,0.646
					c-1.409,0-2.817,0-4.227,0c-14.365,0-28.731,0-43.097,0c-7.06,0-14.118,0-21.178,0c-2.083,0-4.166,0-6.249,0
					c-1.394,0-2.011-0.38-1.905,0.406c-0.398-2.96,0-6.249,0-9.228c0-7.163,0-14.326,0-21.489
					C178.5,230.767,178.5,215.229,178.5,199.69c0-6.448-10-6.448-10,0c0,24.441,0,48.882,0,73.323
					c0,5.185,0.311,10.418,5.946,12.796c3.249,1.371,7.491,0.806,10.937,0.806c15.035,0,30.069,0,45.104,0
					c6.464,0,12.929,0,19.394,0c3.921,0,9.614,0.7,12.327-2.81c3.084-3.991,2.811-7.655,2.811-12.328c0-6.465,0-12.93,0-19.394
					c0-15.035,0-30.069,0-45.104c0-3.513,0.549-7.728-0.847-11.034c-2.353-5.573-7.635-5.849-12.755-5.849
					c-16.129,0-32.257,0-48.386,0c-6.977,0-13.953,0-20.93,0c-6.809,0-12.531,1.625-13.602,9.594
					C167.644,206.066,177.654,205.983,178.5,199.69z"/>
			</g>
		</g>
		<g>
			<g>
				<path style="fill:#FFFFFF;" d="M189.426,288.547c18.222,0,36.444,0,54.666,0c1.935,0,1.935-3,0-3c-18.222,0-36.444,0-54.666,0
					C187.491,285.547,187.491,288.547,189.426,288.547L189.426,288.547z"/>
			</g>
		</g>
	</g>
</g>
<g id="Ebene_1">
</g>
</svg>
