<?xml version="1.0" encoding="iso-8859-1"?>
<!-- Generator: Adobe Illustrator 16.0.0, SVG Export Plug-In . SVG Version: 6.00 Build 0)  -->
<!DOCTYPE svg PUBLIC "-//W3C//DTD SVG 1.1 Tiny//EN" "http://www.w3.org/Graphics/SVG/1.1/DTD/svg11-tiny.dtd">
<svg version="1.1" baseProfile="tiny" id="light_x5F_diffused"
	 xmlns="http://www.w3.org/2000/svg" xmlns:xlink="http://www.w3.org/1999/xlink" x="0px" y="0px" width="361px" height="361px"
	 viewBox="0 0 361 361" xml:space="preserve">
<g>
	<path fill="#FFFFFF" d="M239.572,239.391c8.917,1.522,17.833,3.045,26.749,4.567c4.414,0.754,6.304-5.991,1.861-6.75
		c-8.917-1.522-17.833-3.045-26.749-4.567C237.019,231.887,235.129,238.632,239.572,239.391L239.572,239.391z"/>
</g>
<g>
	<path fill="#FFFFFF" d="M239.846,249.006c8.917,1.522,17.833,3.045,26.749,4.567c4.414,0.753,6.304-5.991,1.861-6.75
		c-8.917-1.522-17.833-3.045-26.749-4.567C237.293,241.503,235.403,248.248,239.846,249.006L239.846,249.006z"/>
</g>
<g>
	<path fill="#FFFFFF" d="M239.846,258.348c8.917,1.522,17.833,3.045,26.749,4.567c4.414,0.754,6.304-5.991,1.861-6.75
		c-8.917-1.522-17.833-3.045-26.749-4.567C237.293,250.844,235.403,257.589,239.846,258.348L239.846,258.348z"/>
</g>
<g>
	<path fill="#FFFFFF" d="M245.54,268.319c5.004,0.854,10.008,1.709,15.012,2.563c4.414,0.754,6.304-5.991,1.861-6.75
		c-5.004-0.854-10.008-1.709-15.012-2.563C242.987,260.815,241.097,267.56,245.54,268.319L245.54,268.319z"/>
</g>
<path fill="none" stroke="#FFFFFF" stroke-width="10" stroke-miterlimit="10" d="M276.516,213.451c0,7.544-6.116,13.66-13.66,13.66
	h-18.213c-7.544,0-13.66-6.116-13.66-13.66v-48.569c0-7.544,6.116-13.66,13.66-13.66h18.213c7.544,0,13.66,6.116,13.66,13.66
	V213.451z"/>
<g>
	<path fill="#FFFFFF" d="M198.813,152.824c0,44.553,0,89.105,0,133.657c0,0.003,0,0.007,0,0.01c0,9.687,15.003,9.772,15.003,0.108
		c0-44.553,0-89.105,0-133.657c0-0.003,0-0.007,0-0.01C213.816,143.246,198.813,143.16,198.813,152.824L198.813,152.824z"/>
</g>
<g>
	<path fill="#FFFFFF" d="M75.594,88.213c48.944,0,97.888,0,146.832,0c19.834,0,39.668,0,59.501,0c9.687,0,9.772-15.003,0.108-15.003
		c-48.944,0-97.888,0-146.832,0c-19.834,0-39.668,0-59.501,0C66.016,73.21,65.93,88.213,75.594,88.213L75.594,88.213z"/>
</g>
<g>
	<g>
		<path fill="#FFFFFF" d="M243.123,125.07c-11.444-11.444-22.889-22.889-34.333-34.333c-3.195-3.194-8.145,1.755-4.95,4.95
			c11.444,11.444,22.889,22.889,34.333,34.333C241.368,133.214,246.317,128.265,243.123,125.07L243.123,125.07z"/>
	</g>
	<g>
		<path fill="#FFFFFF" d="M204.173,90.403c-33.085,33.086-66.171,66.172-99.257,99.258c-0.358,0.358-0.717,0.717-1.076,1.075
			c-3.194,3.195,1.755,8.145,4.95,4.95c33.085-33.086,66.171-66.172,99.257-99.258c0.358-0.358,0.717-0.717,1.076-1.075
			C212.317,92.158,207.368,87.208,204.173,90.403L204.173,90.403z"/>
	</g>
</g>
<g>
	<g>
		<path fill="#FFFFFF" d="M260.123,125.07c-11.444-11.444-22.889-22.889-34.333-34.333c-3.195-3.194-8.145,1.755-4.95,4.95
			c11.444,11.444,22.889,22.889,34.333,34.333C258.368,133.214,263.317,128.265,260.123,125.07L260.123,125.07z"/>
	</g>
	<g>
		<path fill="#FFFFFF" d="M221.173,90.403c-33.085,33.086-66.171,66.172-99.257,99.258c-0.358,0.358-0.717,0.717-1.076,1.075
			c-3.194,3.195,1.755,8.145,4.95,4.95c33.085-33.086,66.171-66.172,99.257-99.258c0.358-0.358,0.717-0.717,1.076-1.075
			C229.317,92.158,224.368,87.208,221.173,90.403L221.173,90.403z"/>
	</g>
</g>
<g>
	<g>
		<path fill="#FFFFFF" d="M225.123,124.07c-11.444-11.444-22.889-22.889-34.333-34.333c-3.195-3.194-8.145,1.755-4.95,4.95
			c11.444,11.444,22.889,22.889,34.333,34.333C223.368,132.214,228.317,127.265,225.123,124.07L225.123,124.07z"/>
	</g>
	<g>
		<path fill="#FFFFFF" d="M186.173,89.403c-33.085,33.086-66.171,66.172-99.257,99.258c-0.358,0.358-0.717,0.717-1.076,1.075
			c-3.194,3.195,1.755,8.145,4.95,4.95c33.085-33.086,66.171-66.172,99.257-99.258c0.358-0.358,0.717-0.717,1.076-1.075
			C194.317,91.158,189.368,86.208,186.173,89.403L186.173,89.403z"/>
	</g>
</g>
</svg>
