<?xml version="1.0" encoding="iso-8859-1"?>
<!-- Generator: Adobe Illustrator 16.0.0, SVG Export Plug-In . SVG Version: 6.00 Build 0)  -->
<!DOCTYPE svg PUBLIC "-//W3C//DTD SVG 1.1//EN" "http://www.w3.org/Graphics/SVG/1.1/DTD/svg11.dtd">
<svg version="1.1" xmlns="http://www.w3.org/2000/svg" xmlns:xlink="http://www.w3.org/1999/xlink" x="0px" y="0px" width="361px"
	 height="361px" viewBox="0 0 361 361" style="enable-background:new 0 0 361 361;" xml:space="preserve">
<g id="light_x5F_cabinet">
	<g>
		<g>
			<path style="fill:#FFFFFF;" d="M84.09,162.513c8.917,1.522,17.833,3.045,26.749,4.567c4.414,0.754,6.304-5.991,1.861-6.75
				c-8.917-1.522-17.833-3.045-26.749-4.567C81.537,155.009,79.647,161.754,84.09,162.513L84.09,162.513z"/>
		</g>
	</g>
	<g>
		<g>
			<path style="fill:#FFFFFF;" d="M84.364,172.128c8.917,1.522,17.833,3.045,26.749,4.567c4.414,0.753,6.304-5.991,1.861-6.75
				c-8.917-1.522-17.833-3.045-26.749-4.567C81.812,164.625,79.921,171.37,84.364,172.128L84.364,172.128z"/>
		</g>
	</g>
	<g>
		<g>
			<path style="fill:#FFFFFF;" d="M84.364,181.47c8.917,1.522,17.833,3.045,26.749,4.567c4.414,0.754,6.304-5.991,1.861-6.75
				c-8.917-1.522-17.833-3.045-26.749-4.567C81.812,173.966,79.921,180.711,84.364,181.47L84.364,181.47z"/>
		</g>
	</g>
	<g>
		<g>
			<path style="fill:#FFFFFF;" d="M90.058,191.441c5.004,0.854,10.008,1.708,15.012,2.563c4.414,0.754,6.304-5.991,1.861-6.75
				c-5.004-0.854-10.008-1.708-15.012-2.563C87.505,183.938,85.615,190.683,90.058,191.441L90.058,191.441z"/>
		</g>
	</g>
	<path style="fill:none;stroke:#FFFFFF;stroke-width:10;stroke-miterlimit:10;" d="M121.034,136.573
		c0,7.544-6.116,13.66-13.66,13.66H89.16c-7.544,0-13.66-6.116-13.66-13.66V88.004c0-7.544,6.116-13.66,13.66-13.66h18.213
		c7.544,0,13.66,6.116,13.66,13.66V136.573z"/>
	<g id="Vitrine">
		<g>
			<g>
				<path style="fill:#FFFFFF;" d="M284.833,276.248c-0.384,3.329-6.938,2.169-8.774,2.169c-5.884,0-11.768,0-17.651,0
					c-16,0-32,0-48,0c-10.266,0-20.531,0-30.797,0c-4.616,0-2.777-11.128-2.777-13.571c0-55.082,0-110.166,0-165.249
					c0-4.129-1.648-10.68,4.209-10.68c11.675,0,23.35,0,35.024,0c15.771,0,31.541,0,47.312,0c5.155,0,10.31,0,15.464,0
					c1.757,0,5.991-0.733,5.991,2.424c0,51.36,0,102.72,0,154.08C284.833,255.696,284.833,265.973,284.833,276.248
					c0,4.514,7,4.514,7,0c0-49.871,0-99.741,0-149.612c0-10.098,0-20.195,0-30.293c0-7.021-0.985-14.426-10.164-14.426
					c-26.703,0-53.405,0-80.108,0c-5.651,0-11.303,0-16.955,0c-2.991,0-6.17-0.32-9.027,0.701c-7.425,2.654-5.746,12.7-5.746,18.865
					c0,27.728,0,55.455,0,83.183c0,27.383,0,54.766,0,82.149c0,6.678-1.503,17.372,7.87,18.452
					c8.344,0.961,17.175,0.149,25.557,0.149c18.948,0,37.897,0,56.846,0c6.378,0,12.756,0,19.134,0
					c6.347,0,11.742-1.774,12.594-9.169C292.349,271.769,285.344,271.818,284.833,276.248z"/>
			</g>
		</g>
		<g>
			<g>
				<path style="fill:#FFFFFF;" d="M180.583,291.417c4.333,0,8.667,0,13,0c6.448,0,6.448-10,0-10c-4.333,0-8.667,0-13,0
					C174.134,281.417,174.134,291.417,180.583,291.417L180.583,291.417z"/>
			</g>
		</g>
		<g>
			<g>
				<path style="fill:#FFFFFF;" d="M269.333,291.417c4.333,0,8.667,0,13,0c6.448,0,6.448-10,0-10c-4.333,0-8.667,0-13,0
					C262.885,281.417,262.885,291.417,269.333,291.417L269.333,291.417z"/>
			</g>
		</g>
		<g>
			<g>
				<path style="fill:#FFFFFF;" d="M227.333,88c0,43.667,0,87.333,0,131c0,4.514,7,4.514,7,0c0-43.667,0-87.333,0-131
					C234.333,83.486,227.333,83.486,227.333,88L227.333,88z"/>
			</g>
		</g>
		<g>
			<g>
				<path style="fill:#FFFFFF;" d="M173.333,223.834c38.333,0,76.667,0,115,0c4.514,0,4.514-7,0-7c-38.333,0-76.667,0-115,0
					C168.819,216.834,168.819,223.834,173.333,223.834L173.333,223.834z"/>
			</g>
		</g>
		<g>
			<g>
				<path style="fill:#FFFFFF;" d="M173.333,254.834c38.333,0,76.667,0,115,0c4.514,0,4.514-7,0-7c-38.333,0-76.667,0-115,0
					C168.819,247.834,168.819,254.834,173.333,254.834L173.333,254.834z"/>
			</g>
		</g>
		<g>
			<g>
				<path style="fill:#FFFFFF;" d="M258.083,233.5c5.944,0,11.889,0,17.833,0c1.935,0,1.935-3,0-3c-5.944,0-11.889,0-17.833,0
					C256.148,230.5,256.148,233.5,258.083,233.5L258.083,233.5z"/>
			</g>
		</g>
		<g>
			<g>
				<path style="fill:#FFFFFF;" d="M185.75,233.5c5.944,0,11.888,0,17.832,0c1.935,0,1.935-3,0-3c-5.944,0-11.888,0-17.832,0
					C183.815,230.5,183.815,233.5,185.75,233.5L185.75,233.5z"/>
			</g>
		</g>
		<g>
			<g>
				<path style="fill:#FFFFFF;" d="M258.084,264.834c5.944,0,11.888,0,17.832,0c1.935,0,1.935-3,0-3c-5.944,0-11.888,0-17.832,0
					C256.149,261.834,256.149,264.834,258.084,264.834L258.084,264.834z"/>
			</g>
		</g>
		<g>
			<g>
				<path style="fill:#FFFFFF;" d="M185.75,264.834c5.944,0,11.889,0,17.833,0c1.935,0,1.935-3,0-3c-5.944,0-11.889,0-17.833,0
					C183.815,261.834,183.815,264.834,185.75,264.834L185.75,264.834z"/>
			</g>
		</g>
		<g>
			<g>
				<path style="fill:#FFFFFF;" d="M173.333,176.167c38.333,0,76.667,0,115,0c1.935,0,1.935-3,0-3c-38.333,0-76.667,0-115,0
					C171.398,173.167,171.398,176.167,173.333,176.167L173.333,176.167z"/>
			</g>
		</g>
		<g>
			<g>
				<path style="fill:#FFFFFF;" d="M173.333,130.167c38.333,0,76.667,0,115,0c1.935,0,1.935-3,0-3c-38.333,0-76.667,0-115,0
					C171.398,127.167,171.398,130.167,173.333,130.167L173.333,130.167z"/>
			</g>
		</g>
		<g>
			<g>
				<path style="fill:#FFFFFF;" d="M224,167.167c0,5,0,10,0,15c0,4.514,7,4.514,7,0c0-5,0-10,0-15
					C231,162.653,224,162.653,224,167.167L224,167.167z"/>
			</g>
		</g>
		<g>
			<g>
				<path style="fill:#FFFFFF;" d="M230.666,167.167c0,5,0,10,0,15c0,4.514,7,4.514,7,0c0-5,0-10,0-15
					C237.666,162.653,230.666,162.653,230.666,167.167L230.666,167.167z"/>
			</g>
		</g>
	</g>
</g>
<g id="Ebene_1">
</g>
</svg>
