<?xml version="1.0" encoding="iso-8859-1"?>
<!-- Generator: Adobe Illustrator 16.0.0, SVG Export Plug-In . SVG Version: 6.00 Build 0)  -->
<!DOCTYPE svg PUBLIC "-//W3C//DTD SVG 1.1//EN" "http://www.w3.org/Graphics/SVG/1.1/DTD/svg11.dtd">
<svg version="1.1" xmlns="http://www.w3.org/2000/svg" xmlns:xlink="http://www.w3.org/1999/xlink" x="0px" y="0px" width="361px"
	 height="361px" viewBox="0 0 361 361" style="enable-background:new 0 0 361 361;" xml:space="preserve">
<g id="light_x5F_fountain_x5F_indoor">
	<g>
		<g>
			<path style="fill:#FFFFFF;" d="M211.293,162.989c0,6.322,0,12.645,0,18.967c0,1.935,3,1.935,3,0c0-6.322,0-12.645,0-18.967
				C214.293,161.054,211.293,161.054,211.293,162.989L211.293,162.989z"/>
		</g>
	</g>
	<g>
		<g>
			<g>
				<path style="fill:#FFFFFF;" d="M229.534,163.066c0.768-2.196,1.535-4.392,2.303-6.587c0.641-1.832-2.259-2.611-2.893-0.798
					c-0.768,2.196-1.535,4.392-2.303,6.587C226.001,164.1,228.9,164.879,229.534,163.066L229.534,163.066z"/>
			</g>
		</g>
		<g>
			<g>
				<path style="fill:#FFFFFF;" d="M224.325,182.139c0.78-3.94,1.56-7.881,2.34-11.821c0.374-1.89-2.518-2.694-2.893-0.798
					c-0.78,3.941-1.56,7.881-2.34,11.822C221.059,183.23,223.95,184.036,224.325,182.139L224.325,182.139z"/>
			</g>
		</g>
		<g>
			<g>
				<path style="fill:#FFFFFF;" d="M240.766,151.183c0.483,0.13,0.967,0.26,1.451,0.39c0.789,0.212,1.627-0.256,1.845-1.047
					c0.216-0.785-0.259-1.633-1.048-1.845c-0.483-0.13-0.967-0.26-1.451-0.39c-0.789-0.212-1.627,0.256-1.845,1.047
					C239.502,150.122,239.977,150.971,240.766,151.183L240.766,151.183z"/>
			</g>
		</g>
		<g>
			<g>
				<path style="fill:#FFFFFF;" d="M245.561,155.455c0.243,0.333,0.486,0.665,0.73,0.998c0.481,0.658,1.292,0.983,2.052,0.538
					c0.651-0.381,1.022-1.391,0.538-2.053c-0.243-0.333-0.486-0.665-0.73-0.998c-0.481-0.658-1.292-0.983-2.052-0.538
					C245.447,153.784,245.076,154.793,245.561,155.455L245.561,155.455z"/>
			</g>
		</g>
		<g>
			<g>
				<path style="fill:#FFFFFF;" d="M234.985,152.335c0.438-0.305,0.876-0.609,1.313-0.914c0.67-0.466,0.977-1.305,0.538-2.053
					c-0.389-0.663-1.38-1.005-2.052-0.538c-0.438,0.305-0.876,0.609-1.313,0.914c-0.67,0.466-0.977,1.305-0.538,2.052
					C233.322,152.46,234.313,152.803,234.985,152.335L234.985,152.335z"/>
			</g>
		</g>
	</g>
	<g>
		<g>
			<g>
				<path style="fill:#FFFFFF;" d="M199.283,162.268c-0.768-2.196-1.535-4.392-2.303-6.587c-0.634-1.813-3.533-1.034-2.893,0.798
					c0.768,2.196,1.535,4.392,2.303,6.587C197.024,164.879,199.924,164.1,199.283,162.268L199.283,162.268z"/>
			</g>
		</g>
		<g>
			<g>
				<path style="fill:#FFFFFF;" d="M204.491,181.342c-0.78-3.941-1.56-7.881-2.34-11.822c-0.375-1.896-3.267-1.092-2.893,0.798
					c0.78,3.94,1.56,7.881,2.34,11.821C201.974,184.036,204.865,183.23,204.491,181.342L204.491,181.342z"/>
			</g>
		</g>
		<g>
			<g>
				<path style="fill:#FFFFFF;" d="M184.361,148.29c-0.484,0.13-0.968,0.26-1.451,0.39c-0.789,0.212-1.264,1.061-1.048,1.845
					c0.218,0.791,1.056,1.26,1.845,1.047c0.484-0.13,0.968-0.26,1.451-0.39c0.789-0.212,1.264-1.061,1.048-1.845
					C185.988,148.546,185.15,148.078,184.361,148.29L184.361,148.29z"/>
			</g>
		</g>
		<g>
			<g>
				<path style="fill:#FFFFFF;" d="M177.773,153.94c-0.243,0.333-0.486,0.666-0.73,0.998c-0.483,0.662-0.113,1.671,0.539,2.053
					c0.76,0.445,1.57,0.12,2.052-0.538c0.243-0.333,0.486-0.666,0.73-0.998c0.483-0.662,0.113-1.671-0.538-2.053
					C179.066,152.958,178.255,153.282,177.773,153.94L177.773,153.94z"/>
			</g>
		</g>
		<g>
			<g>
				<path style="fill:#FFFFFF;" d="M192.453,149.745c-0.438-0.304-0.875-0.609-1.313-0.914c-0.672-0.467-1.663-0.125-2.052,0.538
					c-0.438,0.748-0.132,1.586,0.538,2.053c0.438,0.304,0.875,0.609,1.313,0.914c0.672,0.467,1.663,0.125,2.052-0.539
					C193.43,151.05,193.123,150.211,192.453,149.745L192.453,149.745z"/>
			</g>
		</g>
	</g>
	<g>
		<g>
			<g>
				<path style="fill:#FFFFFF;" d="M220.583,136.941c0.321-2.266,0.644-4.531,0.965-6.797c0.269-1.892-2.622-2.707-2.893-0.798
					c-0.321,2.266-0.644,4.531-0.965,6.797C217.422,138.035,220.313,138.85,220.583,136.941L220.583,136.941z"/>
			</g>
		</g>
		<g>
			<g>
				<path style="fill:#FFFFFF;" d="M218.452,156.217c0.327-4.065,0.654-8.13,0.981-12.195c0.155-1.93-2.846-1.915-3,0
					c-0.327,4.065-0.654,8.13-0.981,12.195C215.297,158.146,218.298,158.131,218.452,156.217L218.452,156.217z"/>
			</g>
		</g>
		<g>
			<g>
				<path style="fill:#FFFFFF;" d="M223.864,124.497c0.202,0.134,0.404,0.268,0.607,0.402c0.683,0.452,1.656,0.137,2.052-0.538
					c0.431-0.735,0.143-1.602-0.538-2.053c-0.202-0.134-0.404-0.268-0.607-0.402c-0.683-0.452-1.656-0.137-2.052,0.538
					C222.896,123.18,223.184,124.046,223.864,124.497L223.864,124.497z"/>
			</g>
		</g>
		<g>
			<g>
				<path style="fill:#FFFFFF;" d="M225.562,128.719c0.103,0.343,0.204,0.687,0.307,1.031c0.232,0.783,1.045,1.268,1.845,1.047
					c0.776-0.213,1.281-1.062,1.048-1.845c-0.103-0.343-0.204-0.687-0.307-1.031c-0.232-0.783-1.045-1.268-1.845-1.047
					C225.833,127.087,225.328,127.935,225.562,128.719L225.562,128.719z"/>
			</g>
		</g>
		<g>
			<g>
				<path style="fill:#FFFFFF;" d="M223.007,125.304c0.184-0.314,0.367-0.628,0.551-0.942c0.979-1.674-1.615-3.183-2.59-1.515
					c-0.184,0.314-0.367,0.628-0.551,0.942C219.438,125.463,222.032,126.972,223.007,125.304L223.007,125.304z"/>
			</g>
		</g>
	</g>
	<g>
		<g>
			<g>
				<path style="fill:#FFFFFF;" d="M207.896,136.143c-0.322-2.266-0.644-4.531-0.966-6.797c-0.271-1.909-3.161-1.094-2.893,0.798
					c0.322,2.266,0.644,4.531,0.966,6.797C205.274,138.85,208.164,138.035,207.896,136.143L207.896,136.143z"/>
			</g>
		</g>
		<g>
			<g>
				<path style="fill:#FFFFFF;" d="M210.134,156.217c-0.327-4.065-0.654-8.13-0.981-12.195c-0.154-1.915-3.155-1.93-3,0
					c0.327,4.065,0.654,8.13,0.981,12.195C207.288,158.131,210.289,158.146,210.134,156.217L210.134,156.217z"/>
			</g>
		</g>
		<g>
			<g>
				<path style="fill:#FFFFFF;" d="M200.208,121.906c-0.203,0.134-0.405,0.269-0.607,0.402c-0.681,0.451-0.969,1.317-0.538,2.053
					c0.396,0.675,1.369,0.99,2.052,0.538c0.203-0.134,0.405-0.269,0.607-0.402c0.681-0.451,0.969-1.317,0.538-2.053
					C201.864,121.769,200.891,121.455,200.208,121.906L200.208,121.906z"/>
			</g>
		</g>
		<g>
			<g>
				<path style="fill:#FFFFFF;" d="M197.132,127.921c-0.103,0.344-0.204,0.688-0.307,1.031c-0.233,0.784,0.271,1.632,1.048,1.845
					c0.8,0.22,1.612-0.265,1.845-1.047c0.103-0.344,0.204-0.688,0.307-1.031c0.233-0.784-0.271-1.632-1.048-1.845
					C198.177,126.653,197.364,127.138,197.132,127.921L197.132,127.921z"/>
			</g>
		</g>
		<g>
			<g>
				<path style="fill:#FFFFFF;" d="M205.169,123.789c-0.184-0.314-0.367-0.628-0.551-0.942c-0.975-1.668-3.568-0.159-2.59,1.515
					c0.184,0.314,0.367,0.628,0.551,0.942C203.554,126.972,206.147,125.463,205.169,123.789L205.169,123.789z"/>
			</g>
		</g>
	</g>
	<g>
		<g>
			<path style="fill:#FFFFFF;" d="M286.832,281.167c-49.725,0-99.449,0-149.174,0c-6.857,0-13.715,0-20.572,0
				c-5.456,0-4.653-5.756-4.653-9.447c0-7.567,0-15.135,0-22.702c0-5.285,0-10.57,0-15.855c0-6.763,13.011-4.495,17.136-4.495
				c8.835,0,17.67,0,26.505,0c43.586,0,87.172,0,130.759,0c6.448,0,6.448-10,0-10c-46.716,0-93.433,0-140.149,0
				c-9.287,0-18.573,0-27.859,0c-8.567,0-16.392,5.116-16.392,14.495c0,5.285,0,10.57,0,15.855c0,7.567,0,15.135,0,22.702
				c0,6.971,0.627,12.637,6.747,17.254c4.948,3.733,15.204,2.193,20.971,2.193c51.865,0,103.729,0,155.595,0
				c0.362,0,0.724,0,1.086,0C293.28,291.167,293.28,281.167,286.832,281.167L286.832,281.167z"/>
		</g>
	</g>
	<g>
		<g>
			<path style="fill:#FFFFFF;" d="M283.34,218.544c-0.59-7.309-5.738-13.01-13.368-13.01c-4.142,0-8.284,0-12.426,0
				c1.667,1.667,3.333,3.333,5,5c0-10.466-6.935-15.677-16.811-15.677c-7.208,0-14.417,0-21.625,0c1.667,1.667,3.333,3.333,5,5
				c-1.778-18.504-31.361-18.504-33.14,0c1.667-1.667,3.333-3.333,5-5c-6.687,0-13.373,0-20.06,0
				c-9.75,0-16.333,5.572-16.333,15.677c1.667-1.667,3.333-3.333,5-5c-4.27,0-8.539,0-12.809,0c-7.634,0-12.789,5.692-13.379,13.01
				c-0.519,6.432,9.485,6.382,10,0c0.412-5.103,12.706-3.01,16.188-3.01c2.726,0,5-2.274,5-5c0-7.018,6.057-5.677,11.224-5.677
				c5.057,0,10.112,0,15.169,0c2.923,0,4.739-2.288,5-5c0.513-5.332,12.627-5.331,13.14,0c0.261,2.712,2.077,5,5,5
				c5.244,0,10.488,0,15.733,0c5.386,0,12.702-1.747,12.702,5.677c0,2.726,2.274,5,5,5c3.449,0,15.386-2.049,15.794,3.01
				C273.854,224.926,283.859,224.976,283.34,218.544L283.34,218.544z"/>
		</g>
	</g>
	<g>
		<g>
			<path style="fill:#FFFFFF;" d="M84.006,162.43c8.917,1.522,17.833,3.045,26.749,4.567c4.414,0.754,6.304-5.991,1.861-6.75
				c-8.917-1.522-17.833-3.045-26.749-4.567C81.454,154.926,79.563,161.671,84.006,162.43L84.006,162.43z"/>
		</g>
	</g>
	<g>
		<g>
			<path style="fill:#FFFFFF;" d="M84.281,172.045c8.917,1.522,17.833,3.045,26.749,4.567c4.414,0.753,6.304-5.991,1.861-6.75
				c-8.917-1.522-17.833-3.045-26.749-4.567C81.728,164.542,79.838,171.287,84.281,172.045L84.281,172.045z"/>
		</g>
	</g>
	<g>
		<g>
			<path style="fill:#FFFFFF;" d="M84.281,181.387c8.917,1.522,17.833,3.045,26.749,4.567c4.414,0.754,6.304-5.991,1.861-6.75
				c-8.917-1.522-17.833-3.045-26.749-4.567C81.728,173.883,79.838,180.628,84.281,181.387L84.281,181.387z"/>
		</g>
	</g>
	<g>
		<g>
			<path style="fill:#FFFFFF;" d="M89.974,191.357c5.004,0.854,10.008,1.71,15.012,2.564c4.414,0.754,6.304-5.991,1.861-6.75
				c-5.004-0.854-10.008-1.71-15.012-2.564C87.421,183.854,85.531,190.599,89.974,191.357L89.974,191.357z"/>
		</g>
	</g>
	<path style="fill:none;stroke:#FFFFFF;stroke-width:10;stroke-miterlimit:10;" d="M120.95,136.49c0,7.544-6.116,13.66-13.66,13.66
		H89.077c-7.544,0-13.66-6.116-13.66-13.66V87.921c0-7.544,6.116-13.66,13.66-13.66h18.213c7.544,0,13.66,6.116,13.66,13.66V136.49z
		"/>
</g>
<g id="Ebene_1">
</g>
</svg>
