<?xml version="1.0" encoding="iso-8859-1"?>
<!-- Generator: Adobe Illustrator 16.0.0, SVG Export Plug-In . SVG Version: 6.00 Build 0)  -->
<!DOCTYPE svg PUBLIC "-//W3C//DTD SVG 1.1//EN" "http://www.w3.org/Graphics/SVG/1.1/DTD/svg11.dtd">
<svg version="1.1" xmlns="http://www.w3.org/2000/svg" xmlns:xlink="http://www.w3.org/1999/xlink" x="0px" y="0px" width="361px"
	 height="361px" viewBox="0 0 361 361" style="enable-background:new 0 0 361 361;" xml:space="preserve">
<g id="light_x5F_bollard_x5F_2">
	<g>
		<g>
			<path style="fill:#FFFFFF;" d="M84.09,162.513c8.917,1.522,17.833,3.045,26.749,4.567c4.414,0.754,6.304-5.991,1.861-6.75
				c-8.917-1.522-17.833-3.045-26.749-4.567C81.537,155.009,79.647,161.754,84.09,162.513L84.09,162.513z"/>
		</g>
	</g>
	<g>
		<g>
			<path style="fill:#FFFFFF;" d="M84.364,172.128c8.917,1.522,17.833,3.045,26.749,4.567c4.414,0.753,6.304-5.991,1.861-6.75
				c-8.917-1.522-17.833-3.045-26.749-4.567C81.812,164.625,79.921,171.37,84.364,172.128L84.364,172.128z"/>
		</g>
	</g>
	<g>
		<g>
			<path style="fill:#FFFFFF;" d="M84.364,181.47c8.917,1.522,17.833,3.045,26.749,4.567c4.414,0.754,6.304-5.991,1.861-6.75
				c-8.917-1.522-17.833-3.045-26.749-4.567C81.812,173.966,79.921,180.711,84.364,181.47L84.364,181.47z"/>
		</g>
	</g>
	<g>
		<g>
			<path style="fill:#FFFFFF;" d="M90.058,191.441c5.004,0.854,10.008,1.708,15.012,2.563c4.414,0.754,6.304-5.991,1.861-6.75
				c-5.004-0.854-10.008-1.708-15.012-2.563C87.505,183.938,85.615,190.683,90.058,191.441L90.058,191.441z"/>
		</g>
	</g>
	<path style="fill:none;stroke:#FFFFFF;stroke-width:10;stroke-miterlimit:10;" d="M121.034,136.573
		c0,7.544-6.116,13.66-13.66,13.66H89.16c-7.544,0-13.66-6.116-13.66-13.66V88.004c0-7.544,6.116-13.66,13.66-13.66h18.213
		c7.544,0,13.66,6.116,13.66,13.66V136.573z"/>
	<g>
		<g>
			<path style="fill:#FFFFFF;" d="M207.279,269.342c19.113,0,38.227,0,57.34,0c6.448,0,6.448-10,0-10c-19.113,0-38.227,0-57.34,0
				C200.831,259.342,200.831,269.342,207.279,269.342L207.279,269.342z"/>
		</g>
	</g>
	<g>
		<g>
			<path style="fill:#FFFFFF;" d="M126.772,275.786c2.083,0,4.166,0,6.249,0c1.908,0,3.5-1.592,3.5-3.5s-1.592-3.5-3.5-3.5
				c-2.083,0-4.166,0-6.249,0c-1.908,0-3.5,1.592-3.5,3.5S124.865,275.786,126.772,275.786L126.772,275.786z"/>
		</g>
	</g>
	<g>
		<g>
			<path style="fill:#FFFFFF;" d="M171.567,268.584c-3.876,0-7.752,0-11.628,0c-4.514,0-4.514,7,0,7c3.876,0,7.752,0,11.628,0
				C176.082,275.584,176.082,268.584,171.567,268.584L171.567,268.584z"/>
		</g>
	</g>
	<g>
		<g>
			<path style="fill:#FFFFFF;" d="M283.391,281.786c1.531,0,3.063,0,4.595,0c1.908,0,3.5-1.592,3.5-3.5s-1.592-3.5-3.5-3.5
				c-1.531,0-3.063,0-4.595,0c-1.908,0-3.5,1.592-3.5,3.5S281.482,281.786,283.391,281.786L283.391,281.786z"/>
		</g>
	</g>
	<g>
		<g>
			<path style="fill:#FFFFFF;" d="M256.666,291.786c5.333,0,10.667,0,16,0c4.514,0,4.514-7,0-7c-5.333,0-10.667,0-16,0
				C252.152,284.786,252.152,291.786,256.666,291.786L256.666,291.786z"/>
		</g>
	</g>
	<g>
		<g>
			<path style="fill:#FFFFFF;" d="M276.25,288.786c2,0,4,0,6,0c1.908,0,3.5-1.592,3.5-3.5s-1.592-3.5-3.5-3.5c-2,0-4,0-6,0
				c-1.908,0-3.5,1.592-3.5,3.5S274.342,288.786,276.25,288.786L276.25,288.786z"/>
		</g>
	</g>
	<g>
		<g>
			<path style="fill:#FFFFFF;" d="M286.584,291.786c0.667,0,1.333,0,2,0c1.908,0,3.5-1.592,3.5-3.5s-1.592-3.5-3.5-3.5
				c-0.667,0-1.333,0-2,0c-1.908,0-3.5,1.592-3.5,3.5S284.676,291.786,286.584,291.786L286.584,291.786z"/>
		</g>
	</g>
	<g>
		<g>
			<path style="fill:#FFFFFF;" d="M287.833,269.953c-0.222,0-0.443,0-0.665,0c-1.908,0-3.5,1.592-3.5,3.5s1.592,3.5,3.5,3.5
				c0.222,0,0.443,0,0.665,0c1.908,0,3.5-1.592,3.5-3.5S289.741,269.953,287.833,269.953L287.833,269.953z"/>
		</g>
	</g>
	<g>
		<g>
			<path style="fill:#FFFFFF;" d="M73.75,282.89c2.337,0,4.673,0,7.01,0c4.514,0,4.514-7,0-7c-2.337,0-4.673,0-7.01,0
				C69.235,275.89,69.235,282.89,73.75,282.89L73.75,282.89z"/>
		</g>
	</g>
	<g>
		<g>
			<path style="fill:#FFFFFF;" d="M100.271,279.89c2.581,0,5.161,0,7.741,0c4.514,0,4.514-7,0-7c-2.581,0-5.161,0-7.741,0
				C95.756,272.89,95.756,279.89,100.271,279.89L100.271,279.89z"/>
		</g>
	</g>
	<g>
		<g>
			<path style="fill:#FFFFFF;" d="M122.069,291.786c2,0,4,0,6,0c1.908,0,3.5-1.592,3.5-3.5s-1.592-3.5-3.5-3.5c-2,0-4,0-6,0
				c-1.908,0-3.5,1.592-3.5,3.5S120.161,291.786,122.069,291.786L122.069,291.786z"/>
		</g>
	</g>
	<g>
		<g>
			<path style="fill:#FFFFFF;" d="M246.238,284.278c-3,0-6.001,0-9.001,0c-4.514,0-4.514,7,0,7c3,0,6.001,0,9.001,0
				C250.752,291.278,250.752,284.278,246.238,284.278L246.238,284.278z"/>
		</g>
	</g>
	<g>
		<g>
			<path style="fill:#FFFFFF;" d="M76.8,276.953c0.694,0,1.389,0,2.083,0c1.908,0,3.5-1.592,3.5-3.5s-1.592-3.5-3.5-3.5
				c-0.694,0-1.389,0-2.083,0c-1.908,0-3.5,1.592-3.5,3.5S74.892,276.953,76.8,276.953L76.8,276.953z"/>
		</g>
	</g>
	<g>
		<g>
			<path style="fill:#FFFFFF;" d="M93.584,276.277c-0.667,0-1.333,0-2,0c-1.908,0-3.5,1.592-3.5,3.5s1.592,3.5,3.5,3.5
				c0.667,0,1.333,0,2,0c1.908,0,3.5-1.592,3.5-3.5S95.492,276.277,93.584,276.277L93.584,276.277z"/>
		</g>
	</g>
	<g>
		<g>
			<path style="fill:#FFFFFF;" d="M196.164,284.786c-2,0-4,0-6,0c-1.908,0-3.5,1.592-3.5,3.5s1.592,3.5,3.5,3.5c2,0,4,0,6,0
				c1.908,0,3.5-1.592,3.5-3.5S198.072,284.786,196.164,284.786L196.164,284.786z"/>
		</g>
	</g>
	<g>
		<g>
			<path style="fill:#FFFFFF;" d="M205.916,291.821c5.333,0,10.667,0,16,0c4.514,0,4.514-7,0-7c-5.333,0-10.667,0-16,0
				C201.402,284.821,201.402,291.821,205.916,291.821L205.916,291.821z"/>
		</g>
	</g>
	<g>
		<g>
			<path style="fill:#FFFFFF;" d="M215.209,288.036c0.667,0,1.333,0,2,0c1.908,0,3.5-1.592,3.5-3.5s-1.592-3.5-3.5-3.5
				c-0.667,0-1.333,0-2,0c-1.908,0-3.5,1.592-3.5,3.5S213.301,288.036,215.209,288.036L215.209,288.036z"/>
		</g>
	</g>
	<g>
		<g>
			<path style="fill:#FFFFFF;" d="M135.882,271.917c-3,0-6,0-9,0c-4.514,0-4.514,7,0,7c3,0,6,0,9,0
				C140.396,278.917,140.396,271.917,135.882,271.917L135.882,271.917z"/>
		</g>
	</g>
	<g>
		<g>
			<path style="fill:#FFFFFF;" d="M152.402,271.786c-2,0-4,0-6,0c-1.908,0-3.5,1.592-3.5,3.5s1.592,3.5,3.5,3.5c2,0,4,0,6,0
				c1.908,0,3.5-1.592,3.5-3.5S154.31,271.786,152.402,271.786L152.402,271.786z"/>
		</g>
	</g>
	<g>
		<g>
			<path style="fill:#FFFFFF;" d="M141.872,269.786c-0.694,0-1.388,0-2.083,0c-1.908,0-3.5,1.592-3.5,3.5s1.592,3.5,3.5,3.5
				c0.694,0,1.388,0,2.083,0c1.908,0,3.5-1.592,3.5-3.5S143.78,269.786,141.872,269.786L141.872,269.786z"/>
		</g>
	</g>
	<g>
		<g>
			<path style="fill:#FFFFFF;" d="M144.902,291.786c2,0,4,0,6,0c1.908,0,3.5-1.592,3.5-3.5s-1.592-3.5-3.5-3.5c-2,0-4,0-6,0
				c-1.908,0-3.5,1.592-3.5,3.5S142.995,291.786,144.902,291.786L144.902,291.786z"/>
		</g>
	</g>
	<g>
		<g>
			<path style="fill:#FFFFFF;" d="M85.819,291.619c5.083,0,10.167,0,15.25,0c4.514,0,4.514-7,0-7c-5.083,0-10.167,0-15.25,0
				C81.305,284.619,81.305,291.619,85.819,291.619L85.819,291.619z"/>
		</g>
	</g>
	<g>
		<g>
			<path style="fill:#FFFFFF;" d="M178.251,276.584c3,0,6.001,0,9.001,0c4.514,0,4.514-7,0-7c-3,0-6.001,0-9.001,0
				C173.737,269.584,173.737,276.584,178.251,276.584L178.251,276.584z"/>
		</g>
	</g>
	<g>
		<g>
			<path style="fill:#FFFFFF;" d="M159.584,291.821c5.333,0,10.667,0,16,0c4.514,0,4.514-7,0-7c-5.333,0-10.667,0-16,0
				C155.07,284.821,155.07,291.821,159.584,291.821L159.584,291.821z"/>
		</g>
	</g>
	<g>
		<g>
			<path style="fill:#FFFFFF;" d="M154.902,283.786c2,0,4,0,6,0c1.908,0,3.5-1.592,3.5-3.5s-1.592-3.5-3.5-3.5c-2,0-4,0-6,0
				c-1.908,0-3.5,1.592-3.5,3.5S152.995,283.786,154.902,283.786L154.902,283.786z"/>
		</g>
	</g>
	<g>
		<g>
			<path style="fill:#FFFFFF;" d="M173.251,287.584c0.667,0,1.333,0,2,0c1.908,0,3.5-1.592,3.5-3.5s-1.592-3.5-3.5-3.5
				c-0.667,0-1.333,0-2,0c-1.908,0-3.5,1.592-3.5,3.5S171.344,287.584,173.251,287.584L173.251,287.584z"/>
		</g>
	</g>
	<g>
		<g>
			<path style="fill:#FFFFFF;" d="M213.432,269.786c-4.063,0-8.128,0-12.191,0c-4.514,0-4.514,7,0,7c4.063,0,8.128,0,12.191,0
				C217.945,276.786,217.945,269.786,213.432,269.786L213.432,269.786z"/>
		</g>
	</g>
	<g>
		<g>
			<path style="fill:#FFFFFF;" d="M192.001,278.584c-2,0-4,0-6,0c-1.908,0-3.5,1.592-3.5,3.5s1.592,3.5,3.5,3.5c2,0,4,0,6,0
				c1.908,0,3.5-1.592,3.5-3.5S193.909,278.584,192.001,278.584L192.001,278.584z"/>
		</g>
	</g>
	<g>
		<g>
			<path style="fill:#FFFFFF;" d="M146.902,279.786c5.333,0,10.667,0,16,0c4.514,0,4.514-7,0-7c-5.333,0-10.667,0-16,0
				C142.388,272.786,142.388,279.786,146.902,279.786L146.902,279.786z"/>
		</g>
	</g>
	<g>
		<g>
			<path style="fill:#FFFFFF;" d="M118.012,275.203c-3,0-6,0-9,0c-4.514,0-4.514,7,0,7c3,0,6,0,9,0
				C122.526,282.203,122.526,275.203,118.012,275.203L118.012,275.203z"/>
		</g>
	</g>
	<g>
		<g>
			<path style="fill:#FFFFFF;" d="M100.754,269.167c-2.083,0-4.166,0-6.249,0c-1.908,0-3.5,1.592-3.5,3.5s1.592,3.5,3.5,3.5
				c2.083,0,4.166,0,6.249,0c1.908,0,3.5-1.592,3.5-3.5S102.662,269.167,100.754,269.167L100.754,269.167z"/>
		</g>
	</g>
	<g>
		<g>
			<path style="fill:#FFFFFF;" d="M87.26,281.036c-1.833,0-3.667,0-5.5,0c-1.908,0-3.5,1.592-3.5,3.5s1.592,3.5,3.5,3.5
				c1.833,0,3.667,0,5.5,0c1.908,0,3.5-1.592,3.5-3.5S89.168,281.036,87.26,281.036L87.26,281.036z"/>
		</g>
	</g>
	<g>
		<g>
			<path style="fill:#FFFFFF;" d="M143.083,281.917c-0.667,0-1.333,0-2,0c-1.908,0-3.5,1.592-3.5,3.5s1.592,3.5,3.5,3.5
				c0.667,0,1.333,0,2,0c1.908,0,3.5-1.592,3.5-3.5S144.991,281.917,143.083,281.917L143.083,281.917z"/>
		</g>
	</g>
	<g>
		<g>
			<path style="fill:#FFFFFF;" d="M146.833,271.723c-0.667,0-1.333,0-2,0c-1.908,0-3.5,1.592-3.5,3.5s1.592,3.5,3.5,3.5
				c0.667,0,1.333,0,2,0c1.908,0,3.5-1.592,3.5-3.5S148.741,271.723,146.833,271.723L146.833,271.723z"/>
		</g>
	</g>
	<g>
		<g>
			<path style="fill:#FFFFFF;" d="M105.261,291.619c1.833,0,3.667,0,5.5,0c1.908,0,3.5-1.592,3.5-3.5s-1.592-3.5-3.5-3.5
				c-1.833,0-3.667,0-5.5,0c-1.908,0-3.5,1.592-3.5,3.5S103.354,291.619,105.261,291.619L105.261,291.619z"/>
		</g>
	</g>
	<g>
		<g>
			<path style="fill:#FFFFFF;" d="M73.332,290.667c0.667,0,1.333,0,2,0c1.908,0,3.5-1.592,3.5-3.5s-1.592-3.5-3.5-3.5
				c-0.667,0-1.333,0-2,0c-1.908,0-3.5,1.592-3.5,3.5S71.424,290.667,73.332,290.667L73.332,290.667z"/>
		</g>
	</g>
	<g>
		<g>
			<path style="fill:#FFFFFF;" d="M92.583,281.953c0.667,0,1.333,0,2,0c1.908,0,3.5-1.592,3.5-3.5s-1.592-3.5-3.5-3.5
				c-0.667,0-1.333,0-2,0c-1.908,0-3.5,1.592-3.5,3.5S90.675,281.953,92.583,281.953L92.583,281.953z"/>
		</g>
	</g>
	<g>
		<g>
			<path style="fill:#FFFFFF;" d="M103.833,279.89c4.514,0,4.514-7,0-7S99.319,279.89,103.833,279.89L103.833,279.89z"/>
		</g>
	</g>
	<g>
		<g>
			<path style="fill:#FFFFFF;" d="M207.5,275.89c-3.722,0-7.444,0-11.166,0c-4.514,0-4.514,7,0,7c3.722,0,7.444,0,11.166,0
				C212.014,282.89,212.014,275.89,207.5,275.89L207.5,275.89z"/>
		</g>
	</g>
	<g>
		<g>
			<path style="fill:#FFFFFF;" d="M140.46,280.584c-3.722,0-7.444,0-11.166,0c-4.514,0-4.514,7,0,7c3.722,0,7.444,0,11.166,0
				C144.975,287.584,144.975,280.584,140.46,280.584L140.46,280.584z"/>
		</g>
	</g>
	<g>
		<g>
			<path style="fill:#FFFFFF;" d="M71.332,270.643c48.132,0,96.264,0,144.396,0c24.868,0,49.736,0,74.604,0c1.935,0,1.935-3,0-3
				c-48.132,0-96.265,0-144.396,0c-24.868,0-49.736,0-74.604,0C69.397,267.643,69.397,270.643,71.332,270.643L71.332,270.643z"/>
		</g>
	</g>
	<g>
		<g>
			<path style="fill:#FFFFFF;" d="M284.211,272.723c-3,0-6,0-9,0c-4.514,0-4.514,7,0,7c3,0,6,0,9,0
				C288.725,279.723,288.725,272.723,284.211,272.723L284.211,272.723z"/>
		</g>
	</g>
	<g>
		<g>
			<path style="fill:#FFFFFF;" d="M255.289,278.65c-2,0-4,0-6,0c-1.908,0-3.5,1.592-3.5,3.5s1.592,3.5,3.5,3.5c2,0,4,0,6,0
				c1.908,0,3.5-1.592,3.5-3.5S257.197,278.65,255.289,278.65L255.289,278.65z"/>
		</g>
	</g>
	<g>
		<g>
			<path style="fill:#FFFFFF;" d="M231.783,275.584c2,0,4,0,6,0c1.908,0,3.5-1.592,3.5-3.5s-1.592-3.5-3.5-3.5c-2,0-4,0-6,0
				c-1.908,0-3.5,1.592-3.5,3.5S229.875,275.584,231.783,275.584L231.783,275.584z"/>
		</g>
	</g>
	<g>
		<g>
			<path style="fill:#FFFFFF;" d="M222.116,289.804c5.333,0,10.667,0,16,0c4.514,0,4.514-7,0-7c-5.333,0-10.667,0-16,0
				C217.603,282.804,217.603,289.804,222.116,289.804L222.116,289.804z"/>
		</g>
	</g>
	<g>
		<g>
			<path style="fill:#FFFFFF;" d="M217.435,281.769c2,0,4,0,6,0c1.908,0,3.5-1.592,3.5-3.5s-1.592-3.5-3.5-3.5c-2,0-4,0-6,0
				c-1.908,0-3.5,1.592-3.5,3.5S215.526,281.769,217.435,281.769L217.435,281.769z"/>
		</g>
	</g>
	<g>
		<g>
			<path style="fill:#FFFFFF;" d="M235.783,285.566c0.667,0,1.333,0,2,0c1.908,0,3.5-1.592,3.5-3.5s-1.592-3.5-3.5-3.5
				c-0.667,0-1.333,0-2,0c-1.908,0-3.5,1.592-3.5,3.5S233.875,285.566,235.783,285.566L235.783,285.566z"/>
		</g>
	</g>
	<g>
		<g>
			<path style="fill:#FFFFFF;" d="M251.125,272.449c-2,0-4,0-6,0c-1.908,0-3.5,1.592-3.5,3.5s1.592,3.5,3.5,3.5c2,0,4,0,6,0
				c1.908,0,3.5-1.592,3.5-3.5S253.033,272.449,251.125,272.449L251.125,272.449z"/>
		</g>
	</g>
	<g>
		<g>
			<path style="fill:#FFFFFF;" d="M181.833,275.89c-0.667,0-1.333,0-2,0c-1.908,0-3.5,1.592-3.5,3.5s1.592,3.5,3.5,3.5
				c0.667,0,1.333,0,2,0c1.908,0,3.5-1.592,3.5-3.5S183.741,275.89,181.833,275.89L181.833,275.89z"/>
		</g>
	</g>
	<g>
		<g>
			<path style="fill:#FFFFFF;" d="M268.175,271.723c-3.722,0-7.444,0-11.166,0c-4.514,0-4.514,7,0,7c3.722,0,7.444,0,11.166,0
				C272.688,278.723,272.688,271.723,268.175,271.723L268.175,271.723z"/>
		</g>
	</g>
	<g>
		<g>
			<path style="fill:#FFFFFF;" d="M254.855,113.629c-11.809,0-23.617,0-35.426,0c-6.283,0-10.809,3.636-10.809,10.214
				c0,6.071,0,12.143,0,18.214c0,3.843,6.232,4.914,6.875,0.931c0.424-2.626,6.506-1.431,8.456-1.431
				c0.861,0,9.701-0.421,9.053,0.942c-2.46,5.174-5.485,10.134-8.267,15.139c-3.927,7.067-7.877,14.121-11.833,21.172
				c-1.4,2.495-4.284,5.942-4.284,8.966c0,24.623,0,49.245,0,73.868c0,0.446,0,0.894,0,1.34c0,1.908,1.592,3.5,3.5,3.5
				c16.15,0,32.301,0,48.451,0c1.908,0,3.5-1.592,3.5-3.5c0-46.345,0-92.69,0-139.035
				C264.072,118.155,260.647,114.296,254.855,113.629c-4.479-0.516-4.43,6.49,0,7c3.147,0.362,2.217,5.428,2.217,7.245
				c0,4.712,0,9.424,0,14.136c0,14.813,0,29.626,0,44.439c0,25.076,0,50.152,0,75.228c0,0.437,0,0.872,0,1.309
				c1.167-1.167,2.333-2.333,3.5-3.5c-16.15,0-32.301,0-48.451,0c1.167,1.167,2.333,2.333,3.5,3.5c0-24.163,0-48.327,0-72.49
				c0-1.024,0-2.048,0-3.072c0,0.986-0.847,2.353-0.142,1.099c0.49-0.871,0.979-1.742,1.469-2.613
				c3.627-6.457,7.247-12.918,10.854-19.386c3.444-6.173,6.908-12.338,10.248-18.569c2.856-5.33,1.576-13.396-5.93-13.396
				c-6.844,0-21.828-3.019-23.375,6.569c2.292,0.311,4.583,0.621,6.875,0.931c0-5.21,0-10.42,0-15.631
				c0-1.65-0.699-5.797,2.356-5.797c1.64,0,3.279,0,4.92,0c10.652,0,21.306,0,31.958,0
				C259.369,120.629,259.369,113.629,254.855,113.629z"/>
		</g>
	</g>
	<g>
		<g>
			<path style="fill:#FFFFFF;" d="M210.621,142.058c0,15.099,0,30.197,0,45.296c0,1.935,3,1.935,3,0c0-15.099,0-30.197,0-45.296
				C213.621,140.123,210.621,140.123,210.621,142.058L210.621,142.058z"/>
		</g>
	</g>
	<g>
		<g>
			<path style="fill:#FFFFFF;" d="M170.608,223.293c9.048-8.306,18.096-16.612,27.144-24.919c3.332-3.059-1.631-7.996-4.949-4.949
				c-9.049,8.306-18.097,16.612-27.145,24.919C162.326,221.402,167.29,226.34,170.608,223.293L170.608,223.293z"/>
		</g>
	</g>
	<g>
		<g>
			<path style="fill:#FFFFFF;" d="M169.858,198.421c9.548-7.457,19.096-14.914,28.644-22.371c3.556-2.776-1.437-7.693-4.949-4.95
				c-9.549,7.457-19.097,14.915-28.645,22.372C161.353,196.248,166.345,201.165,169.858,198.421L169.858,198.421z"/>
		</g>
	</g>
	<g>
		<g>
			<path style="fill:#FFFFFF;" d="M169.087,176.412c9.59-7.379,19.18-14.759,28.77-22.138c3.523-2.711,0.045-8.797-3.533-6.044
				c-9.59,7.379-19.18,14.759-28.77,22.138C162.03,173.079,165.509,179.165,169.087,176.412L169.087,176.412z"/>
		</g>
	</g>
</g>
<g id="Ebene_1">
</g>
</svg>
