<?xml version="1.0" encoding="iso-8859-1"?>
<!-- Generator: Adobe Illustrator 16.0.0, SVG Export Plug-In . SVG Version: 6.00 Build 0)  -->
<!DOCTYPE svg PUBLIC "-//W3C//DTD SVG 1.1//EN" "http://www.w3.org/Graphics/SVG/1.1/DTD/svg11.dtd">
<svg version="1.1" xmlns="http://www.w3.org/2000/svg" xmlns:xlink="http://www.w3.org/1999/xlink" x="0px" y="0px" width="361px"
	 height="361px" viewBox="0 0 361 361" style="enable-background:new 0 0 361 361;" xml:space="preserve">
<g id="light_x5F_indoor_x5F_ug">
	<g>
		<g>
			<g>
				<path style="fill:#FFFFFF;" d="M83.84,162.833c8.917,1.522,17.833,3.045,26.749,4.567c4.414,0.754,6.304-5.991,1.861-6.75
					c-8.917-1.522-17.833-3.045-26.749-4.567C81.287,155.329,79.397,162.074,83.84,162.833L83.84,162.833z"/>
			</g>
		</g>
		<g>
			<g>
				<path style="fill:#FFFFFF;" d="M84.114,172.449c8.917,1.522,17.833,3.045,26.749,4.567c4.414,0.753,6.304-5.991,1.861-6.75
					c-8.917-1.522-17.833-3.045-26.749-4.567C81.562,164.945,79.671,171.69,84.114,172.449L84.114,172.449z"/>
			</g>
		</g>
		<g>
			<g>
				<path style="fill:#FFFFFF;" d="M84.114,181.79c8.917,1.522,17.833,3.045,26.749,4.567c4.414,0.754,6.304-5.991,1.861-6.75
					c-8.917-1.522-17.833-3.045-26.749-4.567C81.562,174.286,79.671,181.031,84.114,181.79L84.114,181.79z"/>
			</g>
		</g>
		<g>
			<g>
				<path style="fill:#FFFFFF;" d="M89.808,191.762c5.004,0.854,10.008,1.708,15.012,2.563c4.414,0.754,6.304-5.991,1.861-6.75
					c-5.004-0.854-10.008-1.708-15.012-2.563C87.255,184.258,85.365,191.003,89.808,191.762L89.808,191.762z"/>
			</g>
		</g>
		<path style="fill:none;stroke:#FFFFFF;stroke-width:10;stroke-miterlimit:10;" d="M120.784,136.894
			c0,7.544-6.116,13.66-13.66,13.66H88.91c-7.544,0-13.66-6.116-13.66-13.66V88.324c0-7.544,6.116-13.66,13.66-13.66h18.213
			c7.544,0,13.66,6.116,13.66,13.66V136.894z"/>
	</g>
	<g>
		<g>
			<g>
				<polygon style="fill:#FFFFFF;" points="208.512,190.181 208.33,130.034 287.635,190.181 				"/>
				<g>
					<path style="fill:#FFFFFF;" d="M213.512,190.181c-0.061-20.049-0.121-40.098-0.182-60.146
						c-2.508,1.439-5.016,2.878-7.523,4.317c26.435,20.049,52.869,40.098,79.305,60.146c0.841-3.105,1.683-6.212,2.523-9.317
						c-26.374,0-52.749,0-79.123,0c-6.448,0-6.448,10,0,10c26.374,0,52.749,0,79.123,0c5.402,0,6.252-6.489,2.523-9.317
						c-26.435-20.049-52.869-40.098-79.305-60.146c-3.125-2.371-7.534,0.868-7.523,4.317c0.061,20.049,0.121,40.098,0.182,60.146
						C203.531,196.628,213.531,196.63,213.512,190.181z"/>
				</g>
			</g>
			<g>
				<polygon style="fill:#FFFFFF;" points="208.148,190.181 208.33,130.035 129.025,190.181 				"/>
				<g>
					<path style="fill:#FFFFFF;" d="M213.148,190.181c0.061-20.049,0.121-40.097,0.182-60.146c0.011-3.45-4.397-6.688-7.523-4.317
						c-26.435,20.049-52.87,40.097-79.305,60.146c-3.729,2.828-2.879,9.317,2.523,9.317c26.375,0,52.749,0,79.124,0
						c6.448,0,6.448-10,0-10c-26.375,0-52.749,0-79.124,0c0.841,3.105,1.683,6.212,2.523,9.317
						c26.435-20.049,52.871-40.097,79.305-60.146c-2.508-1.439-5.016-2.878-7.523-4.317c-0.061,20.049-0.121,40.097-0.182,60.146
						C203.129,196.63,213.129,196.628,213.148,190.181z"/>
				</g>
			</g>
		</g>
		<path style="fill:none;stroke:#FFFFFF;stroke-width:10;stroke-miterlimit:10;" d="M273.674,281.814c0,2.91-2.916,5.27-6.513,5.27
			H149.993c-3.597,0-6.512-2.359-6.512-5.27v-96.072c0-2.908,130.193-2.908,130.193,0V281.814z"/>
	</g>
	<g>
		<path style="fill:#FFFFFF;" d="M193.492,255.762c-2.399,0-4.409-0.329-6.029-0.989s-2.91-1.61-3.87-2.851
			c-0.96-1.238-1.641-2.738-2.04-4.5c-0.4-1.76-0.6-3.719-0.6-5.879v-23.701h7.44v23.221c0,1.561,0.08,2.871,0.24,3.93
			c0.159,1.061,0.43,1.91,0.811,2.551c0.379,0.64,0.908,1.1,1.59,1.379c0.68,0.281,1.539,0.42,2.58,0.42
			c1.039,0,1.898-0.139,2.58-0.42c0.68-0.279,1.219-0.75,1.619-1.41c0.4-0.659,0.68-1.52,0.84-2.579s0.24-2.37,0.24-3.931v-23.16
			h7.381v23.701c0,2.16-0.201,4.119-0.601,5.879c-0.4,1.762-1.101,3.262-2.101,4.5c-1,1.24-2.32,2.19-3.959,2.851
			C197.973,255.433,195.932,255.762,193.492,255.762z"/>
		<path style="fill:#FFFFFF;" d="M227.333,223.422c-1.761,0-3.24,0.321-4.44,0.961c-1.199,0.641-2.189,1.529-2.97,2.67
			c-0.78,1.14-1.341,2.5-1.681,4.08s-0.51,3.33-0.51,5.25c0,4.439,0.699,7.709,2.101,9.81c1.399,2.101,3.459,3.149,6.18,3.149
			c0.44,0,0.92-0.02,1.44-0.06c0.52-0.039,0.999-0.099,1.439-0.18v-13.56h7.381v18.539c-0.881,0.32-2.25,0.682-4.111,1.08
			c-1.859,0.4-4.109,0.6-6.75,0.6c-2.32,0-4.409-0.41-6.27-1.229c-1.859-0.819-3.449-2.04-4.77-3.659
			c-1.32-1.621-2.34-3.641-3.061-6.061c-0.72-2.42-1.08-5.229-1.08-8.43c0-3.16,0.42-5.949,1.26-8.371
			c0.841-2.419,1.98-4.449,3.42-6.09c1.441-1.639,3.141-2.869,5.101-3.689c1.96-0.819,4.06-1.23,6.3-1.23
			c1.44,0,2.73,0.111,3.87,0.33c1.14,0.221,2.13,0.471,2.97,0.75c0.84,0.281,1.53,0.58,2.07,0.9s0.949,0.561,1.23,0.721l-1.92,5.879
			c-0.881-0.559-1.961-1.059-3.24-1.5C230.012,223.643,228.692,223.422,227.333,223.422z"/>
	</g>
</g>
<g id="Ebene_1">
</g>
</svg>
