<?xml version="1.0" encoding="iso-8859-1"?>
<!-- Generator: Adobe Illustrator 16.0.0, SVG Export Plug-In . SVG Version: 6.00 Build 0)  -->
<!DOCTYPE svg PUBLIC "-//W3C//DTD SVG 1.1 Tiny//EN" "http://www.w3.org/Graphics/SVG/1.1/DTD/svg11-tiny.dtd">
<svg version="1.1" baseProfile="tiny" id="light_x5F_downlight"
	 xmlns="http://www.w3.org/2000/svg" xmlns:xlink="http://www.w3.org/1999/xlink" x="0px" y="0px" width="361px" height="361px"
	 viewBox="0 0 361 361" xml:space="preserve">
<g>
	<path fill="#FFFFFF" d="M81.322,263.3c8.917,1.522,17.833,3.045,26.749,4.567c4.414,0.754,6.304-5.991,1.861-6.75
		c-8.917-1.522-17.833-3.045-26.749-4.567C78.769,255.796,76.879,262.542,81.322,263.3L81.322,263.3z"/>
</g>
<g>
	<path fill="#FFFFFF" d="M81.596,272.916c8.917,1.522,17.833,3.045,26.749,4.567c4.414,0.753,6.304-5.991,1.861-6.75
		c-8.917-1.522-17.833-3.045-26.749-4.567C79.043,265.413,77.153,272.157,81.596,272.916L81.596,272.916z"/>
</g>
<g>
	<path fill="#FFFFFF" d="M81.596,282.257c8.917,1.522,17.833,3.045,26.749,4.567c4.414,0.754,6.304-5.991,1.861-6.75
		c-8.917-1.522-17.833-3.045-26.749-4.567C79.043,274.753,77.153,281.499,81.596,282.257L81.596,282.257z"/>
</g>
<g>
	<path fill="#FFFFFF" d="M87.29,292.229c5.004,0.854,10.008,1.709,15.012,2.563c4.414,0.754,6.304-5.991,1.861-6.75
		c-5.004-0.854-10.008-1.709-15.012-2.563C84.737,284.725,82.847,291.47,87.29,292.229L87.29,292.229z"/>
</g>
<path fill="none" stroke="#FFFFFF" stroke-width="10" stroke-miterlimit="10" d="M118.266,237.361c0,7.544-6.116,13.66-13.66,13.66
	H86.392c-7.544,0-13.66-6.116-13.66-13.66v-48.569c0-7.544,6.116-13.66,13.66-13.66h18.213c7.544,0,13.66,6.116,13.66,13.66V237.361
	z"/>
<g>
	<path fill="#FFFFFF" d="M281.982,89.213c-0.381,3.306-9.176,1.889-10.991,1.889c-1.128,0-2.256,0-3.385,0
		c-1.431,0-1.755-0.55-1.327,0.636c-0.647-1.795-0.296-4.138-0.453-6.025c-0.699-8.416-8.297-6.987-14.646-6.987
		c-19.676,0-39.352,0-59.027,0c-8.348,0-16.695,0-25.043,0c-2.866,0-5.735-0.38-7.957,1.777c-2.658,2.58-1.766,7.219-2.266,10.496
		c-0.157,1.026-0.157,0.104-1.691,0.104c-1.406,0-2.811,0-4.217,0c-2.917,0-5.833,0-8.75,0c-6.504,0-13.007,0-19.511,0
		c-10.913,0-21.826,0-32.739,0c-1.931,0-14.926,1.804-15.352-1.889c-0.305-2.643-1.178-9.502,2.803-9.502c6.924,0,13.847,0,20.771,0
		c29.691,0,59.382,0,89.074,0c22.83,0,45.661,0,68.491,0c6.617,0,13.234,0,19.851,0c1.387,0,2.773,0,4.16,0
		C283.247,79.711,281.982,87.245,281.982,89.213c0,4.514,7,4.514,7,0c0-7.369,0.502-15.42-8.889-16.502c-1.249-0.144-2.6,0-3.854,0
		c-8.946,0-17.893,0-26.839,0c-30.966,0-61.932,0-92.898,0c-24.713,0-49.427,0-74.14,0c-1.871,0-3.742,0-5.613,0
		c-7.592,0-9.121,6.596-9.121,12.695c0,6.699,1.934,12.695,9.837,12.695c6.801,0,13.601,0,20.402,0c11.789,0,23.579,0,35.368,0
		c5.915,0,11.83,0,17.745,0c4.186,0,9.366,1.135,11.883-3.021c1.771-2.923,0.809-6.813,1.572-9.991
		c-0.238,0.993-0.938,0.636,0.597,0.636c0.693,0,1.385,0,2.078,0c1.92,0,3.841,0,5.761,0c9.299,0,18.598,0,27.896,0
		c18.667,0,37.333,0,56,0c0.665,0,1.329,0,1.993,0c1.205,0-0.268-1.439,0.078,0.104c0.374,1.666,0.145,3.582,0.287,5.286
		c0.282,3.396,1.962,6.987,5.883,6.987c6.021,0,18.386,2.42,22.311-3.752c1.062-1.67,1.437-3.188,1.662-5.137
		C289.499,84.733,282.493,84.783,281.982,89.213z"/>
</g>
<g>
	<g>
		<path fill="#FFFFFF" d="M246.889,147.74c-1.759-5.764-3.518-11.528-5.277-17.292c-1.313-4.305-8.071-2.468-6.75,1.861
			c1.759,5.764,3.518,11.528,5.277,17.292C241.452,153.906,248.209,152.069,246.889,147.74L246.889,147.74z"/>
	</g>
	<g>
		<path fill="#FFFFFF" d="M215.335,151.101c0-5.915,0-11.829,0-17.743c0-4.514-7-4.514-7,0c0,5.915,0,11.829,0,17.743
			C208.335,155.615,215.335,155.615,215.335,151.101L215.335,151.101z"/>
	</g>
	<g>
		<path fill="#FFFFFF" d="M183.527,149.601c1.762-5.764,3.523-11.527,5.285-17.291c1.323-4.329-5.435-6.165-6.75-1.861
			c-1.762,5.764-3.523,11.527-5.285,17.291C175.454,152.068,182.211,153.904,183.527,149.601L183.527,149.601z"/>
	</g>
	<g>
		<path fill="#FFFFFF" d="M152.596,140.5c3.922-5.125,7.845-10.25,11.767-15.375c2.745-3.586-3.34-7.066-6.044-3.533
			c-3.922,5.125-7.845,10.25-11.767,15.375C143.807,140.553,149.892,144.033,152.596,140.5L152.596,140.5z"/>
	</g>
	<g>
		<path fill="#FFFFFF" d="M277.121,136.966c-3.924-5.124-7.849-10.248-11.773-15.372c-2.705-3.532-8.79-0.052-6.044,3.533
			c3.924,5.124,7.849,10.248,11.773,15.372C273.781,144.031,279.866,140.551,277.121,136.966L277.121,136.966z"/>
	</g>
</g>
<g>
	<path fill="#FFFFFF" d="M156.244,99.638c3.715,0,7.43,0,11.145,0c1.935,0,1.935-3,0-3c-3.715,0-7.43,0-11.145,0
		C154.309,96.638,154.309,99.638,156.244,99.638L156.244,99.638z"/>
</g>
<g>
	<path fill="#FFFFFF" d="M206.238,99.638c3.715,0,7.43,0,11.145,0c1.935,0,1.935-3,0-3c-3.715,0-7.43,0-11.145,0
		C204.303,96.638,204.303,99.638,206.238,99.638L206.238,99.638z"/>
</g>
<g>
	<path fill="#FFFFFF" d="M256.39,99.638c3.715,0,7.43,0,11.145,0c1.935,0,1.935-3,0-3c-3.715,0-7.43,0-11.145,0
		C254.456,96.638,254.456,99.638,256.39,99.638L256.39,99.638z"/>
</g>
<g>
	<g>
		<path fill="#FFFFFF" d="M251.366,106.617c-1.415,4.573-11.121,3.288-14.425,2.826c-4.337-0.607-10.047-2.175-12.741-5.896
			c-3.431-4.738,12.899-4.126,14.042-3.967c3.563,0.499,13.196,2.582,13.069,7.436c-0.051,1.936,2.949,1.931,3,0
			c0.18-6.866-10.248-9.376-15.271-10.328c-5.176-0.981-16.071-1.687-18.115,4.92c-2.078,6.717,11.373,9.999,15.218,10.727
			c5.176,0.98,16.072,1.688,18.115-4.92C254.832,105.561,251.936,104.774,251.366,106.617z"/>
	</g>
	<g>
		<path fill="#FFFFFF" d="M250.708,101.471l0.557-3.382c0.574-3.485-1.787-6.775-5.273-7.349l-11.942-1.966
			c-3.485-0.573-6.776,1.788-7.35,5.272l-0.557,3.382"/>
		<g>
			<path fill="#FFFFFF" d="M252.154,101.87c0.527-3.203,1.455-6.863-0.943-9.608c-2.743-3.141-6.46-3.239-10.321-3.874
				c-3.581-0.59-7.407-1.792-10.945-0.563c-4.035,1.401-4.654,5.595-5.248,9.205c-0.312,1.892,2.579,2.703,2.893,0.798
				c0.517-3.142,0.692-6.255,4.321-7.515c1.947-0.676,5.319,0.497,7.241,0.813c2.115,0.349,4.231,0.697,6.346,1.045
				c5.013,0.825,4.354,5.318,3.765,8.902C248.95,102.964,251.84,103.775,252.154,101.87L252.154,101.87z"/>
		</g>
	</g>
</g>
<g id="licht" display="none">
	<g display="inline">
		<path fill="#FFFFFF" d="M180.45,186.68c-1.068,7.761-25.1,7.358-27.853,0.754c-1.753-4.205,12.229-5.279,13.874-5.318
			c3.559-0.086,13.306,0.48,13.979,5.362c0.263,1.909,3.153,1.093,2.893-0.798c-0.928-6.741-11.828-7.442-16.871-7.564
			c-4.656-0.113-16.924,1.077-16.924,7.963c0,6.457,10.689,7.596,15.125,7.92c5.244,0.384,17.688-0.392,18.67-7.521
			C183.603,185.586,180.713,184.771,180.45,186.68z"/>
	</g>
	<g display="inline">
		<path fill="#FFFFFF" d="M180.42,181.949c0-3.897-0.007-7.108-3.259-9.792c-2.678-2.209-7.006-1.532-10.211-1.532
			c-3.694,0-7.515-0.52-10.862,1.297c-3.717,2.018-3.563,6.44-3.563,10.026c0,1.935,3,1.935,3,0c0-3.639-0.113-7.818,4.896-8.323
			c1.818-0.183,3.749,0,5.574,0c2.144,0,4.288,0,6.432,0c5.112,0,4.994,4.842,4.994,8.323
			C177.42,183.883,180.42,183.883,180.42,181.949L180.42,181.949z"/>
	</g>
</g>
<g>
	<g>
		<path fill="#FFFFFF" d="M201.366,106.617c-1.415,4.573-11.121,3.288-14.425,2.826c-4.337-0.607-10.047-2.175-12.741-5.896
			c-3.431-4.738,12.899-4.126,14.042-3.967c3.563,0.499,13.196,2.582,13.069,7.436c-0.051,1.936,2.949,1.931,3,0
			c0.18-6.866-10.248-9.376-15.271-10.328c-5.176-0.981-16.071-1.687-18.115,4.92c-2.078,6.717,11.373,9.999,15.218,10.727
			c5.176,0.98,16.072,1.688,18.115-4.92C204.832,105.561,201.936,104.774,201.366,106.617z"/>
	</g>
	<g>
		<path fill="#FFFFFF" d="M200.708,101.471l0.557-3.382c0.574-3.485-1.787-6.775-5.273-7.349l-11.942-1.966
			c-3.485-0.573-6.776,1.788-7.35,5.272l-0.557,3.382"/>
		<g>
			<path fill="#FFFFFF" d="M202.154,101.87c0.527-3.203,1.455-6.863-0.943-9.608c-2.743-3.141-6.46-3.239-10.321-3.874
				c-3.581-0.59-7.407-1.792-10.945-0.563c-4.035,1.401-4.654,5.595-5.248,9.205c-0.312,1.892,2.579,2.703,2.893,0.798
				c0.517-3.142,0.692-6.255,4.321-7.515c1.947-0.676,5.319,0.497,7.241,0.813c2.115,0.349,4.231,0.697,6.346,1.045
				c5.013,0.825,4.354,5.318,3.765,8.902C198.95,102.964,201.84,103.775,202.154,101.87L202.154,101.87z"/>
		</g>
	</g>
</g>
</svg>
