<?xml version="1.0" encoding="iso-8859-1"?>
<!-- Generator: Adobe Illustrator 16.0.0, SVG Export Plug-In . SVG Version: 6.00 Build 0)  -->
<!DOCTYPE svg PUBLIC "-//W3C//DTD SVG 1.1 Tiny//EN" "http://www.w3.org/Graphics/SVG/1.1/DTD/svg11-tiny.dtd">
<svg version="1.1" baseProfile="tiny" id="light_x5F_fairy_x5F_lights"
	 xmlns="http://www.w3.org/2000/svg" xmlns:xlink="http://www.w3.org/1999/xlink" x="0px" y="0px" width="361px" height="361px"
	 viewBox="0 0 361 361" xml:space="preserve">
<g>
	<path fill="#FFFFFF" d="M81.322,165.891c8.917,1.522,17.833,3.045,26.749,4.567c4.414,0.754,6.304-5.991,1.861-6.75
		c-8.917-1.522-17.833-3.045-26.749-4.567C78.769,158.387,76.879,165.132,81.322,165.891L81.322,165.891z"/>
</g>
<g>
	<path fill="#FFFFFF" d="M81.596,175.506c8.917,1.522,17.833,3.045,26.749,4.567c4.414,0.753,6.304-5.991,1.861-6.75
		c-8.917-1.522-17.833-3.045-26.749-4.567C79.043,168.003,77.153,174.748,81.596,175.506L81.596,175.506z"/>
</g>
<g>
	<path fill="#FFFFFF" d="M81.596,184.848c8.917,1.522,17.833,3.045,26.749,4.567c4.414,0.754,6.304-5.991,1.861-6.75
		c-8.917-1.522-17.833-3.045-26.749-4.567C79.043,177.344,77.153,184.089,81.596,184.848L81.596,184.848z"/>
</g>
<g>
	<path fill="#FFFFFF" d="M87.29,194.819c5.004,0.854,10.008,1.709,15.012,2.563c4.414,0.754,6.304-5.991,1.861-6.75
		c-5.004-0.854-10.008-1.709-15.012-2.563C84.737,187.315,82.847,194.06,87.29,194.819L87.29,194.819z"/>
</g>
<path fill="none" stroke="#FFFFFF" stroke-width="10" stroke-miterlimit="10" d="M118.266,139.951c0,7.544-6.116,13.66-13.66,13.66
	H86.392c-7.544,0-13.66-6.116-13.66-13.66V91.382c0-7.544,6.116-13.66,13.66-13.66h18.213c7.544,0,13.66,6.116,13.66,13.66V139.951z
	"/>
<g>
	<path fill="#FFFFFF" d="M257.315,164.545c-0.127,8.03-7.059,14.84-13.688,19.554c-11.971,8.513-26.208,13.683-40.146,17.932
		c-42.171,12.855-87.284,16.447-131.165,16.514c-6.448,0.01-6.449,10.01,0,10c46.044-0.07,93.463-4.083,137.573-18.036
		c14.517-4.592,29.408-10.466,41.565-19.832c8.345-6.428,15.688-15.089,15.862-26.132
		C267.417,158.093,257.417,158.103,257.315,164.545L257.315,164.545z"/>
</g>
<g>
	<g>
		<path fill="#FFFFFF" d="M80.815,227.545c0,3.333,0,6.667,0,10c0,4.514,7,4.514,7,0c0-3.333,0-6.667,0-10
			C87.815,223.031,80.815,223.031,80.815,227.545L80.815,227.545z"/>
	</g>
	<path fill="#FFFFFF" d="M91.315,253.545c0,3.313-2.687,6-6,6h-3c-3.313,0-6-2.687-6-6v-11c0-3.313,2.687-6,6-6h3
		c3.313,0,6,2.687,6,6V253.545z"/>
</g>
<g>
	<g>
		<path fill="#FFFFFF" d="M124.815,224.545c0,3.333,0,6.667,0,10c0,4.514,7,4.514,7,0c0-3.333,0-6.667,0-10
			C131.815,220.031,124.815,220.031,124.815,224.545L124.815,224.545z"/>
	</g>
	<path fill="#FFFFFF" d="M135.315,250.545c0,3.313-2.687,6-6,6h-3c-3.313,0-6-2.687-6-6v-11c0-3.313,2.687-6,6-6h3
		c3.313,0,6,2.687,6,6V250.545z"/>
</g>
<g>
	<g>
		<path fill="#FFFFFF" d="M164.815,218.545c0,3.333,0,6.667,0,10c0,4.514,7,4.514,7,0c0-3.333,0-6.667,0-10
			C171.815,214.031,164.815,214.031,164.815,218.545L164.815,218.545z"/>
	</g>
	<path fill="#FFFFFF" d="M175.315,244.545c0,3.313-2.687,6-6,6h-3c-3.313,0-6-2.687-6-6v-11c0-3.313,2.687-6,6-6h3
		c3.313,0,6,2.687,6,6V244.545z"/>
</g>
<g>
	<g>
		<path fill="#FFFFFF" d="M205.815,209.545c0,3.333,0,6.667,0,10c0,4.514,7,4.514,7,0c0-3.333,0-6.667,0-10
			C212.815,205.031,205.815,205.031,205.815,209.545L205.815,209.545z"/>
	</g>
	<path fill="#FFFFFF" d="M216.315,235.545c0,3.313-2.687,6-6,6h-3c-3.313,0-6-2.687-6-6v-11c0-3.313,2.687-6,6-6h3
		c3.313,0,6,2.687,6,6V235.545z"/>
</g>
<g>
	<g>
		<path fill="#FFFFFF" d="M245.815,191.545c0,3.333,0,6.667,0,10c0,4.514,7,4.514,7,0c0-3.333,0-6.667,0-10
			C252.815,187.031,245.815,187.031,245.815,191.545L245.815,191.545z"/>
	</g>
	<path fill="#FFFFFF" d="M256.315,217.545c0,3.313-2.687,6-6,6h-3c-3.313,0-6-2.687-6-6v-11c0-3.313,2.687-6,6-6h3
		c3.313,0,6,2.687,6,6V217.545z"/>
</g>
<g>
	<polygon fill="#FFFFFF" points="284.891,158.045 285.065,100.594 209.314,158.045 	"/>
	<g>
		<path fill="#FFFFFF" d="M289.891,158.045c0.058-19.15,0.116-38.3,0.174-57.451c0.01-3.45-4.398-6.688-7.523-4.317
			c-25.25,19.15-50.5,38.3-75.75,57.451c-3.729,2.828-2.879,9.317,2.523,9.317c25.192,0,50.384,0,75.577,0c6.449,0,6.449-10,0-10
			c-25.192,0-50.384,0-75.577,0c0.841,3.106,1.683,6.211,2.523,9.317c25.25-19.15,50.5-38.3,75.75-57.451
			c-2.508-1.439-5.016-2.878-7.523-4.317c-0.058,19.15-0.116,38.3-0.174,57.451C279.872,164.495,289.872,164.493,289.891,158.045z"
			/>
	</g>
</g>
<path fill="none" stroke="#FFFFFF" stroke-width="10" stroke-miterlimit="10" d="M315.116,160.878"/>
<path fill="none" stroke="#FFFFFF" stroke-width="10" stroke-miterlimit="10" d="M289.315,155.045h-51.642
	c-5.832,0-10.558,2.612-10.558,5.833v122.5c0,3.222,4.727,5.834,10.558,5.834h51.642"/>
<path fill="none" stroke="#FFFFFF" stroke-width="10" stroke-miterlimit="10" d="M297.616,214.724"/>
<path fill="none" stroke="#FFFFFF" stroke-width="10" stroke-miterlimit="10" d="M290.065,210.045h-17.949c-3.313,0-6,2.542-6,5.679
	v68.143c0,3.136,2.687,5.679,6,5.679h17.2"/>
</svg>
