<?xml version="1.0" encoding="iso-8859-1"?>
<!-- Generator: Adobe Illustrator 16.0.0, SVG Export Plug-In . SVG Version: 6.00 Build 0)  -->
<!DOCTYPE svg PUBLIC "-//W3C//DTD SVG 1.1 Tiny//EN" "http://www.w3.org/Graphics/SVG/1.1/DTD/svg11-tiny.dtd">
<svg version="1.1" baseProfile="tiny" id="light_x5F_floor_x5F_lamp"
	 xmlns="http://www.w3.org/2000/svg" xmlns:xlink="http://www.w3.org/1999/xlink" x="0px" y="0px" width="361px" height="361px"
	 viewBox="0 0 361 361" xml:space="preserve">
<g>
	<path fill="#FFFFFF" d="M81.572,165.391c8.917,1.522,17.833,3.045,26.749,4.567c4.414,0.754,6.304-5.991,1.861-6.75
		c-8.917-1.522-17.833-3.045-26.749-4.567C79.019,157.887,77.129,164.632,81.572,165.391L81.572,165.391z"/>
</g>
<g>
	<path fill="#FFFFFF" d="M81.846,175.006c8.917,1.522,17.833,3.045,26.749,4.567c4.414,0.753,6.304-5.991,1.861-6.75
		c-8.917-1.522-17.833-3.045-26.749-4.567C79.293,167.503,77.403,174.248,81.846,175.006L81.846,175.006z"/>
</g>
<g>
	<path fill="#FFFFFF" d="M81.846,184.348c8.917,1.522,17.833,3.045,26.749,4.567c4.414,0.754,6.304-5.991,1.861-6.75
		c-8.917-1.522-17.833-3.045-26.749-4.567C79.293,176.844,77.403,183.589,81.846,184.348L81.846,184.348z"/>
</g>
<g>
	<path fill="#FFFFFF" d="M87.54,194.319c5.004,0.854,10.008,1.709,15.012,2.563c4.414,0.754,6.304-5.991,1.861-6.75
		c-5.004-0.854-10.008-1.709-15.012-2.563C84.987,186.815,83.097,193.56,87.54,194.319L87.54,194.319z"/>
</g>
<path fill="none" stroke="#FFFFFF" stroke-width="10" stroke-miterlimit="10" d="M118.516,139.451c0,7.544-6.116,13.66-13.66,13.66
	H86.642c-7.544,0-13.66-6.116-13.66-13.66V90.882c0-7.544,6.116-13.66,13.66-13.66h18.213c7.544,0,13.66,6.116,13.66,13.66V139.451z
	"/>
<g>
	<path fill="#FFFFFF" d="M221.498,294.855c8.7,0,17.399,0,26.098,0c9.687,0,9.772-15.004,0.108-15.004c-8.7,0-17.399,0-26.098,0
		C211.92,279.852,211.834,294.855,221.498,294.855L221.498,294.855z"/>
</g>
<g>
	<path fill="#FFFFFF" d="M201.281,141.117c8.938,16.8,17.877,33.6,26.816,50.4c2.121,3.986,8.163,0.45,6.044-3.533
		c-8.938-16.8-17.877-33.6-26.816-50.4C205.205,133.598,199.162,137.134,201.281,141.117L201.281,141.117z"/>
</g>
<g>
	<path fill="#FFFFFF" d="M228.833,109.077c0,49.943,0,99.886,0,149.829c0,9.546,0,19.093,0,28.639c0,6.449,10,6.449,10,0
		c0-49.943,0-99.886,0-149.829c0-9.546,0-19.092,0-28.639C238.833,102.628,228.833,102.628,228.833,109.077L228.833,109.077z"/>
</g>
<g>
	<path fill="#FFFFFF" d="M281.935,72.904c-16.619,10.363-33.238,20.726-49.857,31.088c1.682,0,3.365,0,5.047,0
		c-16.619-10.363-33.238-20.726-49.857-31.088c-0.841,3.106-1.682,6.211-2.523,9.317c33.238,0,66.476,0,99.714,0
		c6.449,0,6.449-10,0-10c-33.238,0-66.476,0-99.714,0c-5.075,0-6.692,6.718-2.523,9.317c16.619,10.363,33.238,20.726,49.857,31.088
		c1.473,0.918,3.574,0.918,5.047,0c16.619-10.363,33.238-20.726,49.857-31.088C292.44,78.136,287.424,69.482,281.935,72.904z"/>
</g>
<g>
	<path fill="#FFFFFF" d="M174.497,151.923c10.161-3.26,20.321-6.52,30.482-9.78c4.28-1.374,2.45-8.133-1.861-6.75
		c-10.161,3.26-20.321,6.52-30.482,9.78C168.355,146.547,170.186,153.306,174.497,151.923L174.497,151.923z"/>
</g>
<g>
	<path fill="#FFFFFF" d="M165.031,149.58c6.06-0.302,12.119-0.604,18.179-0.906c-0.825-1.992-1.65-3.983-2.475-5.975
		c-4.64,3.909-9.281,7.817-13.921,11.726c1.95,0.515,3.9,1.03,5.85,1.544c-1.419-3.606-2.838-7.213-4.257-10.819
		c-1.633-4.15-8.405-2.345-6.75,1.861c1.419,3.606,2.838,7.213,4.257,10.819c1.001,2.543,3.713,3.344,5.85,1.544
		c4.64-3.909,9.281-7.817,13.921-11.726c2.332-1.964,0.452-6.121-2.475-5.975c-6.06,0.302-12.119,0.604-18.179,0.906
		C160.539,142.804,160.518,149.805,165.031,149.58z"/>
</g>
</svg>
