<?xml version="1.0" encoding="iso-8859-1"?>
<!-- Generator: Adobe Illustrator 16.0.0, SVG Export Plug-In . SVG Version: 6.00 Build 0)  -->
<!DOCTYPE svg PUBLIC "-//W3C//DTD SVG 1.1 Tiny//EN" "http://www.w3.org/Graphics/SVG/1.1/DTD/svg11-tiny.dtd">
<svg version="1.1" baseProfile="tiny" id="light_x5F_dinner_x5F_table"
	 xmlns="http://www.w3.org/2000/svg" xmlns:xlink="http://www.w3.org/1999/xlink" x="0px" y="0px" width="361px" height="361px"
	 viewBox="0 0 361 361" xml:space="preserve">
<g>
	<path fill="#FFFFFF" d="M81.572,166.391c8.917,1.522,17.833,3.045,26.749,4.567c4.414,0.754,6.304-5.991,1.861-6.75
		c-8.917-1.522-17.833-3.045-26.749-4.567C79.019,158.887,77.129,165.632,81.572,166.391L81.572,166.391z"/>
</g>
<g>
	<path fill="#FFFFFF" d="M81.846,176.006c8.917,1.522,17.833,3.045,26.749,4.567c4.414,0.753,6.304-5.991,1.861-6.75
		c-8.917-1.522-17.833-3.045-26.749-4.567C79.293,168.503,77.403,175.248,81.846,176.006L81.846,176.006z"/>
</g>
<g>
	<path fill="#FFFFFF" d="M81.846,185.348c8.917,1.522,17.833,3.045,26.749,4.567c4.414,0.754,6.304-5.991,1.861-6.75
		c-8.917-1.522-17.833-3.045-26.749-4.567C79.293,177.844,77.403,184.589,81.846,185.348L81.846,185.348z"/>
</g>
<g>
	<path fill="#FFFFFF" d="M87.54,195.319c5.004,0.854,10.008,1.709,15.012,2.563c4.414,0.754,6.304-5.991,1.861-6.75
		c-5.004-0.854-10.008-1.709-15.012-2.563C84.987,187.815,83.097,194.56,87.54,195.319L87.54,195.319z"/>
</g>
<path fill="none" stroke="#FFFFFF" stroke-width="10" stroke-miterlimit="10" d="M118.516,140.451c0,7.544-6.116,13.66-13.66,13.66
	H86.642c-7.544,0-13.66-6.116-13.66-13.66V91.882c0-7.544,6.116-13.66,13.66-13.66h18.213c7.544,0,13.66,6.116,13.66,13.66V140.451z
	"/>
<g>
	<path fill="#FFFFFF" d="M197.76,293.88c16.389,0,32.778,0,49.167,0c9.687,0,9.772-15.003,0.108-15.003c-16.389,0-32.778,0-49.167,0
		C188.182,278.877,188.097,293.88,197.76,293.88L197.76,293.88z"/>
</g>
<g>
	<path fill="#FFFFFF" d="M165.261,228.213c38.556,0,77.111,0,115.667,0c9.687,0,9.772-15.003,0.108-15.003
		c-38.556,0-77.111,0-115.667,0C155.683,213.21,155.597,228.213,165.261,228.213L165.261,228.213z"/>
</g>
<g>
	<path fill="#FFFFFF" d="M227.48,226.824c0,19.889,0,39.778,0,59.667c0,9.687,15.003,9.772,15.003,0.108c0-19.889,0-39.778,0-59.667
		C242.483,217.246,227.48,217.16,227.48,226.824L227.48,226.824z"/>
</g>
<g>
	<path fill="#FFFFFF" d="M219.482,83.545c0,19.111,0,38.222,0,57.333c0,4.514,7,4.514,7,0c0-19.111,0-38.222,0-57.333
		C226.482,79.031,219.482,79.031,219.482,83.545L219.482,83.545z"/>
</g>
<g>
	<path fill="#FFFFFF" d="M182.114,170.9c14.434-9.222,28.867-18.444,43.301-27.667c-1.178,0-2.355,0-3.533,0
		c14.434,9.223,28.868,18.445,43.301,27.667c0.589-2.174,1.178-4.348,1.767-6.522c-28.868,0-57.735,0-86.603,0c-4.514,0-4.514,7,0,7
		c28.868,0,57.735,0,86.603,0c3.579,0,4.649-4.681,1.767-6.522c-14.434-9.223-28.868-18.445-43.301-27.667
		c-1.012-0.647-2.521-0.647-3.533,0c-14.434,9.222-28.868,18.444-43.301,27.667C174.79,167.278,178.297,173.339,182.114,170.9z"/>
</g>
<path fill="#FFFFFF" stroke="#FFFFFF" stroke-miterlimit="10" d="M236.981,78.545c0,3.129-2.537,5.667-5.667,5.667h-16
	c-3.129,0-5.667-2.537-5.667-5.667l0,0c0-3.129,2.537-5.667,5.667-5.667h16C234.444,72.878,236.981,75.416,236.981,78.545
	L236.981,78.545z"/>
<g>
	<path fill="#FFFFFF" d="M201.48,221.824c0,19.889,0,39.778,0,59.667c0,9.687,15.003,9.772,15.003,0.108c0-19.889,0-39.778,0-59.667
		C216.483,212.246,201.48,212.16,201.48,221.824L201.48,221.824z"/>
</g>
</svg>
