<?xml version="1.0" encoding="iso-8859-1"?>
<!-- Generator: Adobe Illustrator 16.0.0, SVG Export Plug-In . SVG Version: 6.00 Build 0)  -->
<!DOCTYPE svg PUBLIC "-//W3C//DTD SVG 1.1//EN" "http://www.w3.org/Graphics/SVG/1.1/DTD/svg11.dtd">
<svg version="1.1" xmlns="http://www.w3.org/2000/svg" xmlns:xlink="http://www.w3.org/1999/xlink" x="0px" y="0px" width="361px"
	 height="361px" viewBox="0 0 361 361" style="enable-background:new 0 0 361 361;" xml:space="preserve">
<g id="light_x5F_floor_x5F_lamp">
	<g>
		<g>
			<path style="fill:#FFFFFF;" d="M84.09,162.513c8.917,1.522,17.833,3.045,26.749,4.567c4.414,0.754,6.304-5.991,1.861-6.75
				c-8.917-1.522-17.833-3.045-26.749-4.567C81.537,155.009,79.647,161.754,84.09,162.513L84.09,162.513z"/>
		</g>
	</g>
	<g>
		<g>
			<path style="fill:#FFFFFF;" d="M84.364,172.128c8.917,1.522,17.833,3.045,26.749,4.567c4.414,0.753,6.304-5.991,1.861-6.75
				c-8.917-1.522-17.833-3.045-26.749-4.567C81.812,164.625,79.921,171.37,84.364,172.128L84.364,172.128z"/>
		</g>
	</g>
	<g>
		<g>
			<path style="fill:#FFFFFF;" d="M84.364,181.47c8.917,1.522,17.833,3.045,26.749,4.567c4.414,0.754,6.304-5.991,1.861-6.75
				c-8.917-1.522-17.833-3.045-26.749-4.567C81.812,173.966,79.921,180.711,84.364,181.47L84.364,181.47z"/>
		</g>
	</g>
	<g>
		<g>
			<path style="fill:#FFFFFF;" d="M90.058,191.441c5.004,0.854,10.008,1.708,15.012,2.563c4.414,0.754,6.304-5.991,1.861-6.75
				c-5.004-0.854-10.008-1.708-15.012-2.563C87.505,183.938,85.615,190.683,90.058,191.441L90.058,191.441z"/>
		</g>
	</g>
	<path style="fill:none;stroke:#FFFFFF;stroke-width:10;stroke-miterlimit:10;" d="M121.034,136.573
		c0,7.544-6.116,13.66-13.66,13.66H89.16c-7.544,0-13.66-6.116-13.66-13.66V88.004c0-7.544,6.116-13.66,13.66-13.66h18.213
		c7.544,0,13.66,6.116,13.66,13.66V136.573z"/>
	<g>
		<g>
			<path style="fill:#FFFFFF;" d="M224.017,291.978c8.699,0,17.398,0,26.098,0c9.686,0,9.771-15.004,0.107-15.004
				c-8.699,0-17.398,0-26.098,0C214.438,276.974,214.353,291.978,224.017,291.978L224.017,291.978z"/>
		</g>
	</g>
	<g>
		<g>
			<path style="fill:#FFFFFF;" d="M203.799,138.239c8.938,16.8,17.877,33.6,26.815,50.4c2.121,3.986,8.164,0.449,6.045-3.533
				c-8.938-16.8-17.877-33.6-26.815-50.4C207.723,130.72,201.68,134.256,203.799,138.239L203.799,138.239z"/>
		</g>
	</g>
	<g>
		<g>
			<path style="fill:#FFFFFF;" d="M231.352,106.199c0,49.943,0,99.886,0,149.829c0,9.546,0,19.093,0,28.639c0,6.448,10,6.448,10,0
				c0-49.943,0-99.886,0-149.829c0-9.546,0-19.092,0-28.639C241.352,99.75,231.352,99.75,231.352,106.199L231.352,106.199z"/>
		</g>
	</g>
	<g>
		<g>
			<path style="fill:#FFFFFF;" d="M284.453,70.026c-16.619,10.363-33.238,20.726-49.857,31.088c1.683,0,3.364,0,5.047,0
				c-16.619-10.363-33.238-20.726-49.857-31.088c-0.841,3.106-1.683,6.211-2.523,9.317c33.238,0,66.477,0,99.715,0
				c6.448,0,6.448-10,0-10c-33.238,0-66.477,0-99.715,0c-5.075,0-6.692,6.718-2.523,9.317
				c16.619,10.363,33.238,20.726,49.857,31.088c1.473,0.918,3.574,0.918,5.047,0c16.619-10.363,33.238-20.726,49.857-31.088
				C294.958,75.258,289.942,66.604,284.453,70.026z"/>
		</g>
	</g>
	<g>
		<g>
			<path style="fill:#FFFFFF;" d="M177.015,149.045c10.16-3.26,20.321-6.52,30.482-9.78c4.28-1.374,2.449-8.133-1.861-6.75
				c-10.16,3.26-20.321,6.52-30.482,9.78C170.873,143.669,172.704,150.428,177.015,149.045L177.015,149.045z"/>
		</g>
	</g>
	<g>
		<g>
			<path style="fill:#FFFFFF;" d="M167.549,146.702c6.06-0.302,12.12-0.604,18.179-0.906c-0.825-1.992-1.65-3.983-2.475-5.975
				c-4.641,3.909-9.282,7.817-13.922,11.726c1.95,0.515,3.9,1.03,5.85,1.544c-1.419-3.606-2.838-7.213-4.257-10.819
				c-1.633-4.15-8.405-2.345-6.75,1.861c1.419,3.606,2.838,7.213,4.257,10.819c1.001,2.543,3.713,3.344,5.85,1.544
				c4.641-3.909,9.281-7.817,13.921-11.726c2.332-1.964,0.452-6.121-2.475-5.975c-6.06,0.302-12.12,0.604-18.179,0.906
				C163.057,139.926,163.036,146.927,167.549,146.702z"/>
		</g>
	</g>
</g>
<g id="Ebene_1">
</g>
</svg>
