<?xml version="1.0" encoding="iso-8859-1"?>
<!-- Generator: Adobe Illustrator 16.0.0, SVG Export Plug-In . SVG Version: 6.00 Build 0)  -->
<!DOCTYPE svg PUBLIC "-//W3C//DTD SVG 1.1 Tiny//EN" "http://www.w3.org/Graphics/SVG/1.1/DTD/svg11-tiny.dtd">
<svg version="1.1" baseProfile="tiny" id="light_x5F_ceiling_x5F_light"
	 xmlns="http://www.w3.org/2000/svg" xmlns:xlink="http://www.w3.org/1999/xlink" x="0px" y="0px" width="361px" height="361px"
	 viewBox="0 0 361 361" xml:space="preserve">
<g>
	<path fill="#FFFFFF" d="M81.322,263.3c8.917,1.522,17.833,3.045,26.749,4.567c4.414,0.754,6.304-5.991,1.861-6.75
		c-8.917-1.522-17.833-3.045-26.749-4.567C78.769,255.796,76.879,262.542,81.322,263.3L81.322,263.3z"/>
</g>
<g>
	<path fill="#FFFFFF" d="M81.596,272.916c8.917,1.522,17.833,3.045,26.749,4.567c4.414,0.753,6.304-5.991,1.861-6.75
		c-8.917-1.522-17.833-3.045-26.749-4.567C79.043,265.413,77.153,272.157,81.596,272.916L81.596,272.916z"/>
</g>
<g>
	<path fill="#FFFFFF" d="M81.596,282.257c8.917,1.522,17.833,3.045,26.749,4.567c4.414,0.754,6.304-5.991,1.861-6.75
		c-8.917-1.522-17.833-3.045-26.749-4.567C79.043,274.753,77.153,281.499,81.596,282.257L81.596,282.257z"/>
</g>
<g>
	<path fill="#FFFFFF" d="M87.29,292.229c5.004,0.854,10.008,1.709,15.012,2.563c4.414,0.754,6.304-5.991,1.861-6.75
		c-5.004-0.854-10.008-1.709-15.012-2.563C84.737,284.725,82.847,291.47,87.29,292.229L87.29,292.229z"/>
</g>
<path fill="none" stroke="#FFFFFF" stroke-width="10" stroke-miterlimit="10" d="M118.266,237.361c0,7.544-6.116,13.66-13.66,13.66
	H86.392c-7.544,0-13.66-6.116-13.66-13.66v-48.569c0-7.544,6.116-13.66,13.66-13.66h18.213c7.544,0,13.66,6.116,13.66,13.66V237.361
	z"/>
<g>
	<path fill="#FFFFFF" d="M263.878,91.071c-0.261,8.709-10.961,14.113-17.844,16.986c-13.302,5.553-28.052,7.303-42.354,7.39
		c-14.381,0.087-28.948-2.072-42.354-7.39c-6.899-2.736-17.585-8.369-17.844-16.986c-0.193-6.434-10.193-6.452-10,0
		c0.357,11.917,10.543,19.753,20.408,24.55c15.282,7.433,32.974,9.723,49.791,9.825c16.939,0.103,34.347-2.688,49.79-9.825
		c9.907-4.579,20.055-12.788,20.408-24.55C274.072,84.619,264.071,84.638,263.878,91.071L263.878,91.071z"/>
	<path fill="#FFFFFF" d="M138.482,96.071c43.465,0,86.931,0,130.396,0c6.449,0,6.449-10,0-10c-43.465,0-86.931,0-130.396,0
		C132.034,86.071,132.034,96.071,138.482,96.071L138.482,96.071z"/>
</g>
<g>
	<path fill="#FFFFFF" d="M250.107,85.787c-0.408,3.034-6.008,1.785-8.37,1.785c-6.392,0-12.783,0-19.174,0
		c-15.744,0-31.487,0-47.23,0c-4.934,0-9.867,0-14.8,0c-0.762,0-1.523,0-2.285,0c-1.436,0-1.49-7.86,0.043-7.86
		c9.762,0,19.524,0,29.287,0c14.817,0,29.634,0,44.451,0c4.815,0,9.631,0,14.446,0c0.866,0,1.731,0,2.596,0
		c1.623,0,0.912,5.863,0.912,7.006c0,4.514,7,4.514,7,0c0-5.865,0.174-14.006-7.983-14.006c-3.236,0-6.473,0-9.709,0
		c-15.001,0-30.002,0-45.003,0c-11.643,0-23.286,0-34.928,0c-6.195,0-8.979,4.203-8.979,10.02c0,5.92,1.266,11.84,8.542,11.84
		c17.726,0,35.451,0,53.176,0c9.685,0,19.371,0,29.056,0c5.955,0,14.612,1.203,15.705-6.923
		C257.45,83.236,250.707,81.331,250.107,85.787z"/>
</g>
<g>
	<g>
		<path fill="#FFFFFF" d="M248.988,156.954c-2.328-7.63-4.657-15.261-6.985-22.891c-1.313-4.305-8.071-2.468-6.75,1.861
			c2.328,7.63,4.657,15.261,6.985,22.891C243.551,163.12,250.309,161.283,248.988,156.954L248.988,156.954z"/>
	</g>
	<g>
		<path fill="#FFFFFF" d="M207.179,161.101c0-7.829,0-15.658,0-23.487c0-4.514-7-4.514-7,0c0,7.829,0,15.658,0,23.487
			C200.179,165.615,207.179,165.615,207.179,161.101L207.179,161.101z"/>
	</g>
	<g>
		<path fill="#FFFFFF" d="M165.114,158.814c2.332-7.63,4.664-15.26,6.996-22.889c1.323-4.329-5.435-6.165-6.75-1.861
			c-2.332,7.63-4.664,15.26-6.996,22.889C157.042,161.282,163.799,163.118,165.114,158.814L165.114,158.814z"/>
	</g>
	<g>
		<path fill="#FFFFFF" d="M124.285,146.497c5.192-6.784,10.385-13.568,15.577-20.352c2.745-3.586-3.34-7.066-6.044-3.533
			c-5.192,6.784-10.385,13.568-15.577,20.352C115.496,146.549,121.581,150.029,124.285,146.497L124.285,146.497z"/>
	</g>
	<g>
		<path fill="#FFFFFF" d="M289.121,142.962c-5.194-6.783-10.389-13.565-15.584-20.348c-2.705-3.532-8.79-0.052-6.044,3.533
			c5.194,6.783,10.389,13.565,15.584,20.348C285.781,150.027,291.866,146.547,289.121,142.962L289.121,142.962z"/>
	</g>
</g>
</svg>
