<?xml version="1.0" encoding="iso-8859-1"?>
<!-- Generator: Adobe Illustrator 16.0.0, SVG Export Plug-In . SVG Version: 6.00 Build 0)  -->
<!DOCTYPE svg PUBLIC "-//W3C//DTD SVG 1.1//EN" "http://www.w3.org/Graphics/SVG/1.1/DTD/svg11.dtd">
<svg version="1.1" xmlns="http://www.w3.org/2000/svg" xmlns:xlink="http://www.w3.org/1999/xlink" x="0px" y="0px" width="361px"
	 height="361px" viewBox="0 0 361 361" style="enable-background:new 0 0 361 361;" xml:space="preserve">
<g id="light_x5F_wire_x5F_system_x5F_1">
	<g>
		<g>
			<path style="fill:#FFFFFF;" d="M83.84,260.422c8.917,1.522,17.833,3.046,26.749,4.568c4.414,0.754,6.304-5.991,1.861-6.75
				c-8.917-1.522-17.833-3.046-26.749-4.568C81.287,252.918,79.397,259.663,83.84,260.422L83.84,260.422z"/>
		</g>
	</g>
	<g>
		<g>
			<path style="fill:#FFFFFF;" d="M84.114,270.038c8.917,1.522,17.833,3.045,26.749,4.567c4.414,0.754,6.304-5.991,1.861-6.75
				c-8.917-1.522-17.833-3.045-26.749-4.567C81.562,262.534,79.671,269.279,84.114,270.038L84.114,270.038z"/>
		</g>
	</g>
	<g>
		<g>
			<path style="fill:#FFFFFF;" d="M84.114,279.379c8.917,1.522,17.833,3.046,26.749,4.568c4.414,0.754,6.304-5.991,1.861-6.75
				c-8.917-1.522-17.833-3.046-26.749-4.568C81.562,271.875,79.671,278.62,84.114,279.379L84.114,279.379z"/>
		</g>
	</g>
	<g>
		<g>
			<path style="fill:#FFFFFF;" d="M89.808,289.351c5.004,0.854,10.008,1.709,15.012,2.563c4.414,0.754,6.304-5.991,1.861-6.75
				c-5.004-0.854-10.008-1.709-15.012-2.563C87.255,281.847,85.365,288.592,89.808,289.351L89.808,289.351z"/>
		</g>
	</g>
	<path style="fill:none;stroke:#FFFFFF;stroke-width:10;stroke-miterlimit:10;" d="M120.784,234.482
		c0,7.545-6.116,13.66-13.66,13.66H88.91c-7.544,0-13.66-6.115-13.66-13.66v-48.568c0-7.544,6.116-13.661,13.66-13.661h18.213
		c7.544,0,13.66,6.116,13.66,13.661V234.482z"/>
	<path style="fill:none;stroke:#FFFFFF;stroke-width:10;stroke-miterlimit:10;" d="M158.81,85.544"/>
	<path style="fill:none;stroke:#FFFFFF;stroke-width:10;stroke-miterlimit:10;" d="M212.656,103.044"/>
	<g>
		<g>
			<path style="fill:#FFFFFF;" d="M72.322,72.845c29.626,1.827,59.275,3.517,88.94,4.571c33.96,1.207,67.973-1.146,101.871-3.017
				c8.996-0.497,17.99-1.008,26.983-1.554c1.922-0.117,1.934-3.117,0-3c-29.534,1.792-59.09,3.439-88.66,4.511
				c-33.96,1.23-67.917-1.017-101.817-2.914c-9.107-0.51-18.213-1.035-27.317-1.597C70.389,69.726,70.4,72.726,72.322,72.845
				L72.322,72.845z"/>
		</g>
	</g>
	<g>
		<g>
			<path style="fill:#FFFFFF;" d="M71.981,127.668c29.411,1.722,58.844,3.303,88.29,4.278c33.979,1.126,67.981-1.27,101.892-3.233
				c9.355-0.542,18.711-1.1,28.063-1.694c1.921-0.122,1.933-3.123,0-3c-29.591,1.88-59.203,3.615-88.831,4.774
				c-33.813,1.323-67.631-0.795-101.396-2.577c-9.34-0.493-18.68-1.002-28.018-1.549C70.048,124.555,70.059,127.556,71.981,127.668
				L71.981,127.668z"/>
		</g>
	</g>
	<g>
		<g>
			<g>
				<path style="fill:#FFFFFF;" d="M95.021,88.506c-2.323-4.981-4.646-9.963-6.969-14.944c-0.817-1.752-3.403-0.228-2.591,1.514
					c2.323,4.981,4.646,9.963,6.969,14.944C93.248,91.772,95.833,90.248,95.021,88.506L95.021,88.506z"/>
			</g>
		</g>
		<g>
			<g>
				<path style="fill:#FFFFFF;" d="M112.142,125.221c-2.479-5.315-4.957-10.63-7.436-15.945c-0.817-1.752-3.403-0.228-2.591,1.514
					c2.479,5.315,4.957,10.631,7.436,15.946C110.368,128.487,112.954,126.963,112.142,125.221L112.142,125.221z"/>
			</g>
		</g>
		<g>
			<g>
				<g>
					<path style="fill:#FFFFFF;" d="M73.752,98.135c3.378,7.245,6.757,14.49,10.135,21.735c1.906,4.088,7.939,0.531,6.044-3.533
						c-3.378-7.245-6.757-14.49-10.135-21.735C77.89,90.514,71.856,94.071,73.752,98.135L73.752,98.135z"/>
				</g>
			</g>
			<path style="fill:#FFFFFF;" d="M100.159,104.614c1.36,2.917,0.432,6.229-2.074,7.397l-8.354,3.896
				c-2.506,1.168-5.64-0.25-7-3.166l-4.341-9.311c-1.36-2.917-0.431-6.228,2.074-7.396l8.354-3.896
				c2.505-1.168,5.639,0.249,6.999,3.165L100.159,104.614z"/>
			<g>
				<g>
					<path style="fill:#FFFFFF;" d="M97.887,95.171c1.261,2.706,2.523,5.411,3.785,8.117c0.806,1.729,3.258,2.152,4.789,1.255
						c1.758-1.029,2.062-3.06,1.255-4.789c-1.261-2.706-2.523-5.411-3.785-8.117c-0.806-1.729-3.258-2.152-4.789-1.255
						C97.384,91.412,97.08,93.442,97.887,95.171L97.887,95.171z"/>
				</g>
			</g>
		</g>
	</g>
	<g>
		<g>
			<g>
				<path style="fill:#FFFFFF;" d="M198.688,91.205c-2.322-4.981-4.646-9.963-6.969-14.944c-0.816-1.752-3.402-0.228-2.59,1.514
					c2.322,4.981,4.646,9.963,6.969,14.944C196.914,94.471,199.5,92.947,198.688,91.205L198.688,91.205z"/>
			</g>
		</g>
		<g>
			<g>
				<path style="fill:#FFFFFF;" d="M215.808,127.92c-2.479-5.315-4.957-10.63-7.436-15.945c-0.816-1.752-3.402-0.228-2.59,1.514
					c2.479,5.315,4.957,10.631,7.436,15.946C214.034,131.187,216.62,129.662,215.808,127.92L215.808,127.92z"/>
			</g>
		</g>
		<g>
			<g>
				<g>
					<path style="fill:#FFFFFF;" d="M177.418,100.834c3.378,7.245,6.757,14.49,10.135,21.735c1.907,4.088,7.939,0.531,6.045-3.533
						c-3.379-7.245-6.758-14.49-10.136-21.735C181.556,93.213,175.523,96.771,177.418,100.834L177.418,100.834z"/>
				</g>
			</g>
			<path style="fill:#FFFFFF;" d="M203.825,107.313c1.36,2.917,0.432,6.229-2.074,7.397l-8.354,3.896
				c-2.506,1.168-5.639-0.25-6.999-3.166l-4.342-9.311c-1.36-2.917-0.431-6.228,2.075-7.396l8.354-3.896
				c2.506-1.168,5.64,0.249,7,3.165L203.825,107.313z"/>
			<g>
				<g>
					<path style="fill:#FFFFFF;" d="M201.553,97.87c1.262,2.706,2.523,5.411,3.784,8.117c0.807,1.729,3.259,2.152,4.789,1.255
						c1.758-1.029,2.062-3.06,1.256-4.789c-1.262-2.706-2.523-5.411-3.784-8.117c-0.807-1.729-3.259-2.152-4.789-1.255
						C201.051,94.111,200.747,96.141,201.553,97.87L201.553,97.87z"/>
				</g>
			</g>
		</g>
	</g>
	<g>
		<g>
			<path style="fill:#FFFFFF;" d="M268.282,87.761c-2.322-4.981-4.646-9.962-6.969-14.943c-0.816-1.752-3.402-0.228-2.59,1.514
				c2.322,4.981,4.646,9.963,6.969,14.944C266.509,91.027,269.095,89.503,268.282,87.761L268.282,87.761z"/>
		</g>
	</g>
	<g>
		<g>
			<path style="fill:#FFFFFF;" d="M285.402,124.477c-2.479-5.315-4.957-10.63-7.436-15.945c-0.816-1.752-3.402-0.228-2.59,1.514
				c2.479,5.315,4.957,10.631,7.436,15.946C283.629,127.743,286.215,126.219,285.402,124.477L285.402,124.477z"/>
		</g>
	</g>
	<g>
		<g>
			<g>
				<path style="fill:#FFFFFF;" d="M247.013,97.391c3.379,7.245,6.758,14.49,10.136,21.735c1.907,4.088,7.939,0.531,6.045-3.533
					c-3.379-7.245-6.758-14.49-10.136-21.735C251.15,89.77,245.118,93.327,247.013,97.391L247.013,97.391z"/>
			</g>
		</g>
		<path style="fill:#FFFFFF;" d="M273.42,103.87c1.36,2.916,0.432,6.228-2.074,7.396l-8.354,3.896c-2.506,1.168-5.64-0.249-7-3.166
			l-4.341-9.311c-1.36-2.916-0.431-6.228,2.074-7.396l8.354-3.896c2.506-1.168,5.639,0.249,6.999,3.165L273.42,103.87z"/>
		<g>
			<g>
				<path style="fill:#FFFFFF;" d="M271.147,94.427c1.262,2.705,2.523,5.411,3.785,8.116c0.807,1.729,3.259,2.152,4.789,1.255
					c1.758-1.029,2.062-3.06,1.256-4.789c-1.262-2.705-2.523-5.411-3.785-8.116c-0.807-1.729-3.259-2.152-4.789-1.255
					C270.646,90.667,270.342,92.698,271.147,94.427L271.147,94.427z"/>
			</g>
		</g>
	</g>
</g>
<g id="Ebene_1">
</g>
</svg>
