<?xml version="1.0" encoding="iso-8859-1"?>
<!-- Generator: Adobe Illustrator 16.0.0, SVG Export Plug-In . SVG Version: 6.00 Build 0)  -->
<!DOCTYPE svg PUBLIC "-//W3C//DTD SVG 1.1 Tiny//EN" "http://www.w3.org/Graphics/SVG/1.1/DTD/svg11-tiny.dtd">
<svg version="1.1" baseProfile="tiny" id="light_x5F_wall_x5F_3"
	 xmlns="http://www.w3.org/2000/svg" xmlns:xlink="http://www.w3.org/1999/xlink" x="0px" y="0px" width="361px" height="361px"
	 viewBox="0 0 361 361" xml:space="preserve">
<g>
	<path fill="#FFFFFF" d="M81.322,165.891c8.917,1.522,17.833,3.045,26.749,4.567c4.414,0.754,6.304-5.991,1.861-6.75
		c-8.917-1.522-17.833-3.045-26.749-4.567C78.769,158.387,76.879,165.132,81.322,165.891L81.322,165.891z"/>
</g>
<g>
	<path fill="#FFFFFF" d="M81.596,175.506c8.917,1.522,17.833,3.045,26.749,4.567c4.414,0.753,6.304-5.991,1.861-6.75
		c-8.917-1.522-17.833-3.045-26.749-4.567C79.043,168.003,77.153,174.748,81.596,175.506L81.596,175.506z"/>
</g>
<g>
	<path fill="#FFFFFF" d="M81.596,184.848c8.917,1.522,17.833,3.045,26.749,4.567c4.414,0.754,6.304-5.991,1.861-6.75
		c-8.917-1.522-17.833-3.045-26.749-4.567C79.043,177.344,77.153,184.089,81.596,184.848L81.596,184.848z"/>
</g>
<g>
	<path fill="#FFFFFF" d="M87.29,194.819c5.004,0.854,10.008,1.709,15.012,2.563c4.414,0.754,6.304-5.991,1.861-6.75
		c-5.004-0.854-10.008-1.709-15.012-2.563C84.737,187.315,82.847,194.06,87.29,194.819L87.29,194.819z"/>
</g>
<path fill="none" stroke="#FFFFFF" stroke-width="10" stroke-miterlimit="10" d="M118.266,139.951c0,7.544-6.116,13.66-13.66,13.66
	H86.392c-7.544,0-13.66-6.116-13.66-13.66V91.382c0-7.544,6.116-13.66,13.66-13.66h18.213c7.544,0,13.66,6.116,13.66,13.66V139.951z
	"/>
<g>
	<path fill="#FFFFFF" d="M274.48,79.491c0,48.807,0,97.613,0,146.42c0,20.61,0,41.22,0,61.83c0,9.687,15.004,9.772,15.004,0.108
		c0-48.807,0-97.613,0-146.42c0-20.61,0-41.22,0-61.83C289.484,69.913,274.48,69.828,274.48,79.491L274.48,79.491z"/>
</g>
<g>
	<path fill="#FFFFFF" d="M266.815,206.545c0,15.159,0,30.317,0,45.476c0,6.449,10,6.449,10,0c0-15.159,0-30.317,0-45.476
		C276.815,200.096,266.815,200.096,266.815,206.545L266.815,206.545z"/>
</g>
<path fill="none" stroke="#FFFFFF" stroke-width="10" stroke-miterlimit="10" d="M251.315,195.983
	c0,8.843-8.529,16.011-19.05,16.011h-25.4c-10.521,0-19.05-7.168-19.05-16.011v-56.928c0-8.842,8.529-16.011,19.05-16.011h25.4
	c10.521,0,19.05,7.169,19.05,16.011V195.983z"/>
<g>
	<path fill="#FFFFFF" d="M213.261,236.046c18.667,0,37.333,0,56,0c9.687,0,9.772-15.003,0.108-15.003c-18.667,0-37.333,0-56,0
		C203.683,221.043,203.597,236.046,213.261,236.046L213.261,236.046z"/>
</g>
<g>
	<path fill="#FFFFFF" d="M212.292,214.491c0,3.16,0,6.32,0,9.479c0,4.086,3.341,7.529,7.447,7.556
		c4.065,0.027,7.556-3.361,7.556-7.447c0-3.16,0-6.32,0-9.479c0-4.086-3.341-7.529-7.447-7.556
		C215.783,207.016,212.292,210.405,212.292,214.491L212.292,214.491z"/>
</g>
</svg>
