<?xml version="1.0" encoding="iso-8859-1"?>
<!-- Generator: Adobe Illustrator 16.0.0, SVG Export Plug-In . SVG Version: 6.00 Build 0)  -->
<!DOCTYPE svg PUBLIC "-//W3C//DTD SVG 1.1//EN" "http://www.w3.org/Graphics/SVG/1.1/DTD/svg11.dtd">
<svg version="1.1" xmlns="http://www.w3.org/2000/svg" xmlns:xlink="http://www.w3.org/1999/xlink" x="0px" y="0px" width="361px"
	 height="361px" viewBox="0 0 361 361" style="enable-background:new 0 0 361 361;" xml:space="preserve">
<g id="measure_x5F_water_x5F_meter">
	<g>
		<path style="fill:#FFFFFF;" d="M79.087,256.178c0-3.468,0.153-6.383,0.459-8.746c0.306-2.363,0.799-4.259,1.479-5.687
			c0.68-1.429,1.538-2.456,2.576-3.086c1.037-0.629,2.303-0.943,3.799-0.943c1.461,0,2.72,0.314,3.774,0.943
			c1.054,0.63,1.921,1.657,2.601,3.086c0.68,1.428,1.173,3.323,1.479,5.687c0.306,2.363,0.459,5.278,0.459,8.746
			s-0.153,6.384-0.459,8.746c-0.306,2.363-0.799,4.259-1.479,5.687c-0.68,1.429-1.547,2.457-2.601,3.085
			c-1.054,0.629-2.313,0.944-3.774,0.944c-1.497,0-2.763-0.315-3.799-0.944c-1.038-0.628-1.896-1.656-2.576-3.085
			c-0.68-1.428-1.173-3.323-1.479-5.687C79.24,262.562,79.087,259.646,79.087,256.178z M91.123,256.178
			c0-2.787-0.068-5.117-0.204-6.987c-0.136-1.869-0.349-3.365-0.637-4.487c-0.29-1.122-0.672-1.921-1.147-2.397
			c-0.477-0.476-1.055-0.714-1.734-0.714c-0.68,0-1.258,0.238-1.734,0.714c-0.477,0.477-0.859,1.275-1.147,2.397
			c-0.289,1.122-0.502,2.618-0.638,4.487c-0.136,1.87-0.204,4.2-0.204,6.987c0,2.788,0.067,5.117,0.204,6.987
			c0.136,1.87,0.349,3.365,0.638,4.487c0.289,1.122,0.671,1.922,1.147,2.396c0.476,0.477,1.054,0.715,1.734,0.715
			c0.68,0,1.258-0.238,1.734-0.715c0.476-0.475,0.858-1.274,1.147-2.396c0.288-1.122,0.501-2.617,0.637-4.487
			C91.055,261.295,91.123,258.966,91.123,256.178z"/>
		<path style="fill:#FFFFFF;" d="M126.058,242c-1.292,0.17-2.474,0.451-3.544,0.841c-1.071,0.392-2.032,1.004-2.882,1.837
			c-0.85,0.833-1.555,1.93-2.116,3.289c-0.561,1.36-0.978,3.06-1.25,5.1c0.714-0.306,1.402-0.526,2.065-0.663
			c0.663-0.135,1.283-0.203,1.861-0.203c2.448,0,4.343,0.961,5.687,2.881c1.343,1.922,2.015,4.564,2.015,7.931
			c0,3.604-0.638,6.443-1.913,8.517c-1.275,2.074-3.29,3.111-6.043,3.111c-1.395,0-2.619-0.272-3.672-0.815
			c-1.054-0.544-1.93-1.437-2.626-2.678c-0.697-1.241-1.224-2.873-1.581-4.896c-0.357-2.022-0.536-4.496-0.536-7.42
			c0-2.551,0.247-5.032,0.74-7.446c0.492-2.414,1.292-4.564,2.397-6.451c1.104-1.888,2.55-3.426,4.335-4.616
			c1.785-1.189,3.986-1.836,6.604-1.938L126.058,242z M119.122,255.77c-0.544,0-1.088,0.095-1.632,0.28
			c-0.544,0.188-1.054,0.417-1.53,0.688c-0.034,0.408-0.051,0.825-0.051,1.25c0,0.426,0,0.859,0,1.301
			c0,1.563,0.042,3.052,0.127,4.462c0.084,1.411,0.263,2.651,0.536,3.724c0.271,1.07,0.671,1.921,1.198,2.549
			c0.527,0.63,1.232,0.943,2.117,0.943c1.326,0,2.252-0.705,2.779-2.115c0.527-1.411,0.791-3.29,0.791-5.636
			c0-2.55-0.349-4.429-1.045-5.636C121.714,256.374,120.617,255.77,119.122,255.77z"/>
		<path style="fill:#FFFFFF;" d="M134.676,270.254c1.292-0.136,2.49-0.399,3.596-0.791c1.104-0.391,2.082-0.994,2.932-1.811
			c0.85-0.816,1.572-1.895,2.167-3.238c0.595-1.343,1.028-3.034,1.301-5.074c-1.326,0.544-2.568,0.815-3.723,0.815
			c-2.448,0-4.36-0.96-5.737-2.881s-2.065-4.564-2.065-7.931c0-3.604,0.637-6.442,1.912-8.517c1.275-2.074,3.29-3.111,6.043-3.111
			c1.394,0,2.618,0.272,3.672,0.816c1.053,0.544,1.929,1.437,2.626,2.677c0.696,1.242,1.224,2.874,1.581,4.896
			c0.357,2.023,0.535,4.496,0.535,7.42c0,2.585-0.247,5.084-0.739,7.497c-0.493,2.415-1.301,4.564-2.422,6.452
			c-1.122,1.887-2.601,3.416-4.437,4.59c-1.836,1.172-4.098,1.811-6.783,1.912L134.676,270.254z M142.02,256.586
			c1.02,0,2.023-0.307,3.009-0.918c0-0.408,0.008-0.824,0.025-1.25c0.017-0.425,0.025-0.875,0.025-1.352
			c0-1.563-0.034-3.051-0.102-4.462c-0.068-1.411-0.238-2.652-0.51-3.724c-0.272-1.07-0.672-1.92-1.199-2.55
			c-0.527-0.629-1.232-0.943-2.116-0.943c-1.326,0-2.253,0.706-2.78,2.116c-0.527,1.411-0.79,3.29-0.79,5.636
			c0,2.55,0.365,4.429,1.096,5.636C139.411,255.982,140.524,256.586,142.02,256.586z"/>
		<path style="fill:#FFFFFF;" d="M154.413,240.725c2.005-2.006,4.454-3.009,7.344-3.009c2.754,0,4.862,0.723,6.324,2.167
			c1.461,1.446,2.193,3.698,2.193,6.758c0,1.428-0.238,2.788-0.714,4.08c-0.477,1.293-1.071,2.542-1.785,3.749
			s-1.497,2.405-2.346,3.595c-0.85,1.19-1.666,2.406-2.448,3.646c-0.783,1.242-1.462,2.533-2.04,3.876
			c-0.579,1.344-0.936,2.78-1.071,4.31h11.118v3.979h-15.81v-0.97c0-2.277,0.263-4.3,0.791-6.069
			c0.527-1.767,1.173-3.365,1.938-4.793c0.765-1.428,1.607-2.754,2.525-3.979c0.918-1.224,1.759-2.422,2.524-3.595
			c0.765-1.174,1.41-2.38,1.938-3.621c0.527-1.241,0.791-2.609,0.791-4.105c0-1.802-0.357-3.103-1.071-3.902
			c-0.714-0.798-1.785-1.198-3.213-1.198c-0.986,0-1.879,0.196-2.677,0.587c-0.799,0.391-1.522,0.893-2.167,1.504L154.413,240.725z"
			/>
		<path style="fill:#FFFFFF;" d="M186.287,240.725c2.006-2.006,4.454-3.009,7.344-3.009c2.754,0,4.862,0.723,6.324,2.167
			c1.462,1.446,2.193,3.698,2.193,6.758c0,1.428-0.238,2.788-0.714,4.08c-0.477,1.293-1.071,2.542-1.785,3.749
			s-1.497,2.405-2.347,3.595c-0.85,1.19-1.666,2.406-2.447,3.646c-0.783,1.242-1.463,2.533-2.04,3.876
			c-0.579,1.344-0.936,2.78-1.071,4.31h11.118v3.979h-15.81v-0.97c0-2.277,0.263-4.3,0.79-6.069
			c0.526-1.767,1.173-3.365,1.938-4.793c0.765-1.428,1.606-2.754,2.524-3.979c0.918-1.224,1.759-2.422,2.524-3.595
			c0.765-1.174,1.41-2.38,1.938-3.621s0.791-2.609,0.791-4.105c0-1.802-0.357-3.103-1.071-3.902
			c-0.714-0.798-1.784-1.198-3.213-1.198c-0.986,0-1.879,0.196-2.677,0.587c-0.8,0.391-1.523,0.893-2.168,1.504L186.287,240.725z"/>
		<path style="fill:#FFFFFF;" d="M208.625,256.178c0-3.468,0.153-6.383,0.459-8.746c0.307-2.363,0.799-4.259,1.479-5.687
			c0.68-1.429,1.539-2.456,2.576-3.086c1.037-0.629,2.303-0.943,3.799-0.943c1.462,0,2.721,0.314,3.774,0.943
			c1.054,0.63,1.921,1.657,2.601,3.086c0.68,1.428,1.174,3.323,1.479,5.687s0.459,5.278,0.459,8.746s-0.153,6.384-0.459,8.746
			c-0.306,2.363-0.8,4.259-1.479,5.687c-0.68,1.429-1.547,2.457-2.601,3.085c-1.054,0.629-2.313,0.944-3.774,0.944
			c-1.496,0-2.762-0.315-3.799-0.944c-1.037-0.628-1.896-1.656-2.576-3.085c-0.68-1.428-1.172-3.323-1.479-5.687
			C208.778,262.562,208.625,259.646,208.625,256.178z M220.661,256.178c0-2.787-0.068-5.117-0.204-6.987
			c-0.137-1.869-0.35-3.365-0.637-4.487c-0.29-1.122-0.672-1.921-1.148-2.397c-0.477-0.476-1.055-0.714-1.734-0.714
			s-1.258,0.238-1.733,0.714c-0.477,0.477-0.858,1.275-1.147,2.397s-0.502,2.618-0.638,4.487c-0.136,1.87-0.204,4.2-0.204,6.987
			c0,2.788,0.068,5.117,0.204,6.987s0.349,3.365,0.638,4.487s0.671,1.922,1.147,2.396c0.476,0.477,1.054,0.715,1.733,0.715
			s1.258-0.238,1.734-0.715c0.477-0.475,0.858-1.274,1.148-2.396c0.287-1.122,0.5-2.617,0.637-4.487
			C220.593,261.295,220.661,258.966,220.661,256.178z"/>
		<path style="fill:#FFFFFF;" d="M230.555,256.178c0-3.468,0.153-6.383,0.459-8.746c0.307-2.363,0.799-4.259,1.479-5.687
			c0.68-1.429,1.539-2.456,2.576-3.086c1.037-0.629,2.303-0.943,3.799-0.943c1.462,0,2.721,0.314,3.774,0.943
			c1.054,0.63,1.921,1.657,2.601,3.086c0.68,1.428,1.174,3.323,1.479,5.687s0.459,5.278,0.459,8.746s-0.153,6.384-0.459,8.746
			c-0.306,2.363-0.8,4.259-1.479,5.687c-0.68,1.429-1.547,2.457-2.601,3.085c-1.054,0.629-2.313,0.944-3.774,0.944
			c-1.496,0-2.762-0.315-3.799-0.944c-1.037-0.628-1.896-1.656-2.576-3.085c-0.68-1.428-1.172-3.323-1.479-5.687
			C230.708,262.562,230.555,259.646,230.555,256.178z M242.591,256.178c0-2.787-0.068-5.117-0.204-6.987
			c-0.137-1.869-0.35-3.365-0.637-4.487c-0.29-1.122-0.672-1.921-1.148-2.397c-0.477-0.476-1.055-0.714-1.734-0.714
			s-1.258,0.238-1.733,0.714c-0.477,0.477-0.858,1.275-1.147,2.397s-0.502,2.618-0.638,4.487c-0.136,1.87-0.204,4.2-0.204,6.987
			c0,2.788,0.068,5.117,0.204,6.987s0.349,3.365,0.638,4.487s0.671,1.922,1.147,2.396c0.476,0.477,1.054,0.715,1.733,0.715
			s1.258-0.238,1.734-0.715c0.477-0.475,0.858-1.274,1.148-2.396c0.287-1.122,0.5-2.617,0.637-4.487
			C242.522,261.295,242.591,258.966,242.591,256.178z"/>
		<path style="fill:#FFFFFF;" d="M258.248,268.061c0.033,0.272,0.051,0.535,0.051,0.791c0,0.254,0,0.518,0,0.79
			c0,2.177-0.307,4.267-0.918,6.272c-0.612,2.006-1.445,3.944-2.5,5.814l-3.11-0.918c0.85-1.734,1.411-3.494,1.683-5.278
			c0.271-1.785,0.408-3.46,0.408-5.024c0-0.441-0.009-0.866-0.025-1.274c-0.018-0.407-0.043-0.798-0.076-1.173H258.248z"/>
		<path style="fill:#FFFFFF;" d="M279.412,242c-1.293,0.17-2.474,0.451-3.545,0.841c-1.07,0.392-2.031,1.004-2.881,1.837
			c-0.851,0.833-1.556,1.93-2.117,3.289c-0.561,1.36-0.978,3.06-1.249,5.1c0.714-0.306,1.402-0.526,2.065-0.663
			c0.663-0.135,1.283-0.203,1.861-0.203c2.448,0,4.344,0.961,5.687,2.881c1.343,1.922,2.015,4.564,2.015,7.931
			c0,3.604-0.638,6.443-1.912,8.517c-1.275,2.074-3.29,3.111-6.044,3.111c-1.395,0-2.618-0.272-3.672-0.815
			c-1.054-0.544-1.931-1.437-2.626-2.678c-0.697-1.241-1.225-2.873-1.582-4.896c-0.356-2.022-0.535-4.496-0.535-7.42
			c0-2.551,0.246-5.032,0.74-7.446c0.492-2.414,1.291-4.564,2.396-6.451c1.104-1.888,2.55-3.426,4.335-4.616
			c1.785-1.189,3.985-1.836,6.604-1.938L279.412,242z M272.477,255.77c-0.545,0-1.089,0.095-1.633,0.28
			c-0.544,0.188-1.054,0.417-1.529,0.688c-0.035,0.408-0.051,0.825-0.051,1.25c0,0.426,0,0.859,0,1.301
			c0,1.563,0.041,3.052,0.127,4.462c0.084,1.411,0.263,2.651,0.535,3.724c0.271,1.07,0.672,1.921,1.199,2.549
			c0.526,0.63,1.231,0.943,2.116,0.943c1.325,0,2.252-0.705,2.779-2.115c0.526-1.411,0.79-3.29,0.79-5.636
			c0-2.55-0.349-4.429-1.045-5.636C275.068,256.374,273.972,255.77,272.477,255.77z"/>
	</g>
	<g>
		<g>
			<path style="fill:#FFFFFF;" d="M284.701,282.402c-0.492,4.237-14.117,2.265-16.289,2.265c-12.04,0-24.08,0-36.12,0
				c-32.031,0-64.063,0-96.094,0c-18.969,0-37.937,0-56.906,0c-3.785,0-2.626-6.545-2.626-8.563c0-7.512,0-15.023,0-22.536
				c0-6.694,0-13.389,0-20.083c0-2.415,0.318-5.061,3.382-5.061c52.465,0,104.93,0,157.395,0c14.877,0,29.754,0,44.631,0
				c3.353,0,2.627,4.188,2.627,6.096c0,6.021,0,12.041,0,18.062C284.701,262.521,284.701,272.462,284.701,282.402
				c0,4.514,7,4.514,7,0c0-12.169,0-24.338,0-36.506c0-8.307,2.865-24.473-9.83-24.473c-19.508,0-39.017,0-58.524,0
				c-32.003,0-64.005,0-96.008,0c-11.813,0-23.625,0-35.438,0c-5.051,0-11.526-1.02-16.408,0.711
				c-6.048,2.145-5.826,8.359-5.826,13.556c0,7.283,0,14.566,0,21.85c0,7.011,0,14.021,0,21.031c0,5.637,0.972,12.143,7.979,12.943
				c5.023,0.574,10.265,0.152,15.31,0.152c12.04,0,24.08,0,36.12,0c51,0,101.999,0,152.999,0c5.593,0,9.018-4.016,9.627-9.265
				C292.222,277.923,285.216,277.974,284.701,282.402z"/>
		</g>
	</g>
	<g>
		<path style="fill:#FFFFFF;" d="M95.688,286c0,1.104-0.896,2-2,2h-11.5c-1.104,0-2-0.896-2-2v-5c0-1.104,0.896-2,2-2h11.5
			c1.104,0,2,0.896,2,2V286z"/>
		<g>
			<path style="fill:#FFFFFF;" d="M126.813,286c0,1.104-0.896,2-2,2h-11.5c-1.104,0-2-0.896-2-2v-5c0-1.104,0.896-2,2-2h11.5
				c1.104,0,2,0.896,2,2V286z"/>
			<path style="fill:#FFFFFF;" d="M149.938,286c0,1.104-0.896,2-2,2h-11.5c-1.104,0-2-0.896-2-2v-5c0-1.104,0.896-2,2-2h11.5
				c1.104,0,2,0.896,2,2V286z"/>
			<path style="fill:#FFFFFF;" d="M173.063,286c0,1.104-0.896,2-2,2h-11.5c-1.104,0-2-0.896-2-2v-5c0-1.104,0.896-2,2-2h11.5
				c1.104,0,2,0.896,2,2V286z"/>
		</g>
		<g>
			<path style="fill:#FFFFFF;" d="M201.188,286c0,1.104-0.895,2-2,2h-11.5c-1.104,0-2-0.896-2-2v-5c0-1.104,0.896-2,2-2h11.5
				c1.105,0,2,0.896,2,2V286z"/>
			<path style="fill:#FFFFFF;" d="M224.313,286c0,1.104-0.895,2-2,2h-11.5c-1.104,0-2-0.896-2-2v-5c0-1.104,0.896-2,2-2h11.5
				c1.105,0,2,0.896,2,2V286z"/>
			<path style="fill:#FFFFFF;" d="M247.438,286c0,1.104-0.895,2-2,2h-11.5c-1.104,0-2-0.896-2-2v-5c0-1.104,0.896-2,2-2h11.5
				c1.105,0,2,0.896,2,2V286z"/>
		</g>
		<path style="fill:#FFFFFF;" d="M281.188,286c0,1.104-0.895,2-2,2h-11.5c-1.104,0-2-0.896-2-2v-5c0-1.104,0.896-2,2-2h11.5
			c1.105,0,2,0.896,2,2V286z"/>
	</g>
	<g>
		<path style="fill:#FFFFFF;" d="M95.5,231.834c0,1.104-0.896,2-2,2H82c-1.104,0-2-0.896-2-2v-5c0-1.104,0.896-2,2-2h11.5
			c1.104,0,2,0.896,2,2V231.834z"/>
		<g>
			<path style="fill:#FFFFFF;" d="M126.625,231.834c0,1.104-0.896,2-2,2h-11.5c-1.104,0-2-0.896-2-2v-5c0-1.104,0.896-2,2-2h11.5
				c1.104,0,2,0.896,2,2V231.834z"/>
			<path style="fill:#FFFFFF;" d="M149.75,231.834c0,1.104-0.896,2-2,2h-11.5c-1.104,0-2-0.896-2-2v-5c0-1.104,0.896-2,2-2h11.5
				c1.104,0,2,0.896,2,2V231.834z"/>
			<path style="fill:#FFFFFF;" d="M172.875,231.834c0,1.104-0.896,2-2,2h-11.5c-1.104,0-2-0.896-2-2v-5c0-1.104,0.896-2,2-2h11.5
				c1.104,0,2,0.896,2,2V231.834z"/>
		</g>
		<g>
			<path style="fill:#FFFFFF;" d="M201,231.834c0,1.104-0.896,2-2,2h-11.5c-1.104,0-2-0.896-2-2v-5c0-1.104,0.896-2,2-2H199
				c1.104,0,2,0.896,2,2V231.834z"/>
			<path style="fill:#FFFFFF;" d="M224.125,231.834c0,1.104-0.896,2-2,2h-11.5c-1.104,0-2-0.896-2-2v-5c0-1.104,0.896-2,2-2h11.5
				c1.104,0,2,0.896,2,2V231.834z"/>
			<path style="fill:#FFFFFF;" d="M247.25,231.834c0,1.104-0.896,2-2,2h-11.5c-1.104,0-2-0.896-2-2v-5c0-1.104,0.896-2,2-2h11.5
				c1.104,0,2,0.896,2,2V231.834z"/>
		</g>
		<path style="fill:#FFFFFF;" d="M281,231.834c0,1.104-0.896,2-2,2h-11.5c-1.104,0-2-0.896-2-2v-5c0-1.104,0.896-2,2-2H279
			c1.104,0,2,0.896,2,2V231.834z"/>
	</g>
	<g>
		<g>
			<g>
				<path style="fill:#FFFFFF;" d="M145.641,86.139c1.601,10.669,19.825,7.635,27.309,7.635c15.794,0,31.588,0,47.383,0
					c6.231,0,12.464,0,18.695,0c3.412,0,6.889,0.271,10.208-0.64c3.866-1.062,6.264-4.742,6.264-8.593
					c0-3.418,0.65-7.617-1.695-10.45c-3.243-3.919-7.746-3.863-12.313-3.863c-19.966,0-39.932,0-59.898,0
					c-7.881,0-15.763,0-23.645,0c-2.934,0-5.487,0.252-8.229,1.591c-5.077,2.479-4.204,8.788-4.204,13.389c0,4.514,7,4.514,7,0
					c0-2.931-1.273-7.98,3.11-7.98c0.894,0,1.788,0,2.682,0c5.152,0,10.303,0,15.455,0c15.824,0,31.647,0,47.47,0
					c6.11,0,12.22,0,18.329,0c2.792,0,8.938-1,8.938,2.951c0,2.959,0.968,6.595-3.326,6.595c-1.228,0-2.454,0-3.682,0
					c-5.584,0-11.168,0-16.753,0c-14.985,0-29.971,0-44.957,0c-5.931,0-11.863,0-17.794,0c-2.544,0-9.071,1.014-9.597-2.497
					C151.723,79.826,144.979,81.725,145.641,86.139z"/>
			</g>
		</g>
		<g>
			<g>
				<path style="fill:#FFFFFF;" d="M172.548,90.699c0,5.834,0,11.669,0,17.504c0,4.514,7,4.514,7,0c0-5.834,0-11.669,0-17.504
					C179.548,86.185,172.548,86.185,172.548,90.699L172.548,90.699z"/>
			</g>
		</g>
		<g>
			<g>
				<path style="fill:#FFFFFF;" d="M159.06,91.381c0,5.86,0,11.72,0,17.58c0,4.514,7,4.514,7,0c0-5.86,0-11.72,0-17.58
					C166.06,86.867,159.06,86.867,159.06,91.381L159.06,91.381z"/>
			</g>
		</g>
		<g>
			<g>
				<path style="fill:#FFFFFF;" d="M271.787,152.645c0,9.808,0,19.616,0,29.424c0,4.416,0,8.833,0,13.249
					c0,2.834-6.714,1.509-8.599,1.509c-5.833,0-11.666,0-17.5,0c-3.682,0-2.599-2.808-2.599-5.936c0-10.412,0-20.825,0-31.237
					c0-2.726-2.274-5-5-5c-11.985,0-23.972,0-35.957,0c-2.726,0-5,2.274-5,5c0,1.188,0,2.376,0,3.564
					c0,1.898,0.438,1.263-0.295,1.263c-1.776,0-3.554,0-5.33,0c-7.28,0-14.561,0-21.841,0c-7.063,0-14.125,0-21.187,0
					c-1.914,0-3.828,0-5.742,0c-1.076,0-0.438-0.208-0.182,0.13c-0.82-1.085-0.357-3.713-0.357-4.957c0-2.726-2.274-5-5-5
					c-10.966,0-21.933,0-32.899,0c-4.43,0-8.86,0-13.291,0c-3.365,0-1.843-11.246-1.843-13.263c0-1.836-1.44-13.264,1.707-13.264
					c4.48,0,8.961,0,13.442,0c10.979,0,21.958,0,32.936,0c0-3.333,0-6.667,0-10c-0.017,0-0.035,0-0.052,0
					c1.667,1.667,3.333,3.333,5,5c0-1.38,0-2.759,0-4.139c0-0.69,0-1.38,0-2.07c0-1.515,0.877-1.442-0.177-1.442
					c1.527,0,3.055,0,4.583,0c7.687,0,15.375,0,23.062,0c7.489,0,14.978,0,22.466,0c1.688,0,3.376,0,5.064,0
					c-0.44,0-0.064,1.397-0.064,2.643c0,1.669,0,3.339,0,5.008c0,2.708,2.274,5.023,5,5c17.194-0.148,34.396,0,51.591,0
					c2.158,0,17.727-1.747,18.063,1.595c0.768,7.62,0,15.673,0,23.338c0,6.449,10,6.449,10,0c0-4.213,0-8.427,0-12.64
					c0-4.021,0.912-9.412-0.313-13.356c-3.31-10.662-14.078-8.937-22.851-8.937c-18.828,0-37.664-0.162-56.491,0
					c1.667,1.667,3.333,3.333,5,5c0-4.739,0.577-9.784-2.454-13.798c-2.296-3.042-5.468-3.853-9.049-3.853
					c-8.654,0-17.309,0-25.963,0c-8.522,0-17.044,0-25.566,0c-3.348,0-5.962,0.565-8.665,2.841
					c-4.083,3.438-3.237,10.084-3.237,14.81c0,2.706,2.274,5.026,5,5c0.017,0,0.035,0,0.052,0c6.446-0.061,6.451-10,0-10
					c-12.424,0-24.849,0-37.273,0c-5.16,0-10.744-0.733-15.427,1.809c-6.834,3.709-5.384,13.094-5.384,19.518
					c0,6.233-1.274,14.137,1.809,19.816c3.233,5.956,10.263,5.384,15.955,5.384c13.277,0,26.554,0,39.832,0c0.146,0,0.292,0,0.438,0
					c-1.667-1.667-3.333-3.333-5-5c0,4.661,0.137,11.146,5.127,13.507c2.481,1.175,4.588,1.319,7.208,1.319
					c8.377,0,16.755,0,25.132,0c8.222,0,16.443,0,24.664,0c2.276,0,4.558,0.157,6.681-0.848c5.62-2.661,6.121-8.497,6.121-13.979
					c-1.667,1.667-3.333,3.333-5,5c11.985,0,23.972,0,35.957,0c-1.667-1.667-3.333-3.333-5-5c0,11.429,0,22.858,0,34.288
					c0,6.531,3.299,12.885,10.737,12.885c6.148,0,12.296,0,18.444,0c5.896,0,12.349,1.042,16.831-3.637
					c3.635-3.795,2.685-10.271,2.685-15.083c0-11.821,0-23.642,0-35.462C281.787,146.196,271.787,146.196,271.787,152.645
					L271.787,152.645z"/>
			</g>
		</g>
	</g>
</g>
<g id="Ebene_1">
</g>
</svg>
