<?xml version="1.0" encoding="iso-8859-1"?>
<!-- Generator: Adobe Illustrator 16.0.0, SVG Export Plug-In . SVG Version: 6.00 Build 0)  -->
<!DOCTYPE svg PUBLIC "-//W3C//DTD SVG 1.1//EN" "http://www.w3.org/Graphics/SVG/1.1/DTD/svg11.dtd">
<svg version="1.1" xmlns="http://www.w3.org/2000/svg" xmlns:xlink="http://www.w3.org/1999/xlink" x="0px" y="0px" width="361px"
	 height="361px" viewBox="0 0 361 361" style="enable-background:new 0 0 361 361;" xml:space="preserve">
<g id="measure_x5F_power_x5F_meter">
	<g>
		<g>
			<path style="fill:#FFFFFF;" d="M80.49,77.167c48.841,0,97.682,0,146.523,0c20.347,0,40.692,0,61.038,0c4.514,0,4.514-7,0-7
				c-48.841,0-97.683,0-146.523,0c-20.346,0-40.692,0-61.038,0C75.976,70.167,75.976,77.167,80.49,77.167L80.49,77.167z"/>
		</g>
	</g>
	<g>
		<g>
			<path style="fill:#FFFFFF;" d="M80.49,86.119c6.892,0,13.785,0,20.677,0c4.514,0,4.514-7,0-7c-6.892,0-13.785,0-20.677,0
				C75.976,79.119,75.976,86.119,80.49,86.119L80.49,86.119z"/>
		</g>
	</g>
	<g>
		<g>
			<path style="fill:#FFFFFF;" d="M117.867,86.119c6.892,0,13.785,0,20.677,0c4.514,0,4.514-7,0-7c-6.892,0-13.785,0-20.677,0
				C113.353,79.119,113.353,86.119,117.867,86.119L117.867,86.119z"/>
		</g>
	</g>
	<g>
		<g>
			<path style="fill:#FFFFFF;" d="M155.244,86.119c6.892,0,13.785,0,20.677,0c4.514,0,4.514-7,0-7c-6.892,0-13.785,0-20.677,0
				C150.729,79.119,150.729,86.119,155.244,86.119L155.244,86.119z"/>
		</g>
	</g>
	<g>
		<g>
			<path style="fill:#FFFFFF;" d="M192.62,86.119c6.893,0,13.784,0,20.677,0c4.514,0,4.514-7,0-7c-6.893,0-13.784,0-20.677,0
				C188.106,79.119,188.106,86.119,192.62,86.119L192.62,86.119z"/>
		</g>
	</g>
	<g>
		<g>
			<path style="fill:#FFFFFF;" d="M229.997,86.119c6.893,0,13.784,0,20.677,0c4.514,0,4.514-7,0-7c-6.893,0-13.784,0-20.677,0
				C225.483,79.119,225.483,86.119,229.997,86.119L229.997,86.119z"/>
		</g>
	</g>
	<g>
		<g>
			<path style="fill:#FFFFFF;" d="M69.833,71.667c0,44.971,0,89.941,0,134.912c0,0.029,0,0.059,0,0.088c0,1.935,3,1.935,3,0
				c0-44.971,0-89.941,0-134.913c0-0.029,0-0.058,0-0.087C72.833,69.732,69.833,69.732,69.833,71.667L69.833,71.667z"/>
		</g>
	</g>
	<g>
		<g>
			<path style="fill:#FFFFFF;" d="M267.374,86.119c6.893,0,13.784,0,20.677,0c4.514,0,4.514-7,0-7c-6.893,0-13.784,0-20.677,0
				C262.86,79.119,262.86,86.119,267.374,86.119L267.374,86.119z"/>
		</g>
	</g>
	<g>
		<path style="fill:#FFFFFF;" d="M80.005,245.544c0.646-0.372,1.317-0.829,2.015-1.371c0.696-0.542,1.368-1.127,2.015-1.753
			c0.646-0.627,1.25-1.271,1.811-1.931c0.561-0.661,1.028-1.313,1.402-1.957h3.366v35.343h-4.386v-28.407
			c-0.579,0.612-1.25,1.19-2.015,1.734c-0.765,0.544-1.573,1.054-2.422,1.529L80.005,245.544z"/>
		<path style="fill:#FFFFFF;" d="M126.058,242c-1.292,0.17-2.474,0.451-3.544,0.841c-1.071,0.392-2.032,1.004-2.882,1.837
			c-0.85,0.833-1.555,1.93-2.116,3.289c-0.561,1.36-0.978,3.06-1.25,5.1c0.714-0.306,1.402-0.526,2.065-0.663
			c0.663-0.135,1.283-0.203,1.861-0.203c2.448,0,4.343,0.961,5.687,2.881c1.343,1.922,2.015,4.564,2.015,7.931
			c0,3.604-0.638,6.443-1.913,8.517c-1.275,2.074-3.29,3.111-6.043,3.111c-1.395,0-2.619-0.272-3.672-0.815
			c-1.054-0.544-1.93-1.437-2.626-2.678c-0.697-1.241-1.224-2.873-1.581-4.896c-0.357-2.022-0.536-4.496-0.536-7.42
			c0-2.551,0.247-5.032,0.74-7.446c0.492-2.414,1.292-4.564,2.397-6.451c1.104-1.888,2.55-3.426,4.335-4.616
			c1.785-1.189,3.986-1.836,6.604-1.938L126.058,242z M119.122,255.77c-0.544,0-1.088,0.095-1.632,0.28
			c-0.544,0.188-1.054,0.417-1.53,0.688c-0.034,0.408-0.051,0.825-0.051,1.25c0,0.426,0,0.859,0,1.301
			c0,1.563,0.042,3.052,0.127,4.462c0.084,1.411,0.263,2.651,0.536,3.724c0.271,1.07,0.671,1.921,1.198,2.549
			c0.527,0.63,1.232,0.943,2.117,0.943c1.326,0,2.252-0.705,2.779-2.115c0.527-1.411,0.791-3.29,0.791-5.636
			c0-2.55-0.349-4.429-1.045-5.636C121.714,256.374,120.617,255.77,119.122,255.77z"/>
		<path style="fill:#FFFFFF;" d="M133.809,245.544c0.646-0.372,1.317-0.829,2.015-1.371c0.696-0.542,1.368-1.127,2.015-1.753
			c0.646-0.627,1.25-1.271,1.811-1.931c0.561-0.661,1.028-1.313,1.402-1.957h3.366v35.343h-4.386v-28.407
			c-0.579,0.612-1.25,1.19-2.015,1.734c-0.765,0.544-1.573,1.054-2.422,1.529L133.809,245.544z"/>
		<path style="fill:#FFFFFF;" d="M171.192,246.335c0,1.972-0.484,3.766-1.454,5.38c-0.969,1.615-2.1,3.019-3.391,4.208
			c1.428,1.054,2.668,2.32,3.723,3.8c1.054,1.479,1.581,3.238,1.581,5.278c0,1.599-0.247,3.001-0.739,4.207
			c-0.494,1.207-1.14,2.21-1.938,3.009c-0.799,0.799-1.708,1.402-2.729,1.811s-2.074,0.612-3.162,0.612
			c-1.258,0-2.415-0.229-3.468-0.688c-1.054-0.459-1.956-1.088-2.703-1.887c-0.749-0.799-1.326-1.76-1.734-2.882
			c-0.408-1.122-0.612-2.347-0.612-3.672c0-2.107,0.467-3.986,1.402-5.636c0.935-1.648,2.185-3.102,3.749-4.36
			c-1.292-0.985-2.346-2.235-3.162-3.748c-0.816-1.513-1.224-3.29-1.224-5.33c0-1.529,0.237-2.847,0.714-3.952
			c0.476-1.104,1.097-2.015,1.861-2.729c0.765-0.714,1.624-1.232,2.576-1.556c0.952-0.322,1.92-0.484,2.907-0.484
			c0.951,0,1.895,0.162,2.83,0.484c0.935,0.323,1.776,0.834,2.525,1.53c0.747,0.697,1.343,1.59,1.785,2.678
			C170.97,243.496,171.192,244.805,171.192,246.335z M167.367,265.307c0-0.884-0.146-1.708-0.434-2.474
			c-0.29-0.765-0.672-1.479-1.147-2.142c-0.477-0.663-1.012-1.267-1.606-1.811c-0.596-0.544-1.216-1.054-1.862-1.53
			c-0.986,0.918-1.802,1.989-2.448,3.213c-0.646,1.225-0.969,2.754-0.969,4.59c0,1.837,0.382,3.308,1.147,4.411
			c0.765,1.105,1.811,1.658,3.137,1.658c1.122,0,2.099-0.502,2.933-1.505C166.95,268.715,167.367,267.244,167.367,265.307z
			 M159.615,245.876c0,1.088,0.084,2.049,0.255,2.881c0.169,0.834,0.425,1.564,0.765,2.193c0.34,0.63,0.756,1.198,1.25,1.709
			c0.493,0.51,1.063,0.986,1.708,1.428c0.952-0.986,1.726-2.031,2.321-3.137c0.594-1.104,0.893-2.541,0.893-4.31
			c0-2.073-0.34-3.51-1.02-4.31c-0.681-0.798-1.514-1.198-2.499-1.198c-0.375,0-0.783,0.068-1.224,0.204
			c-0.442,0.136-0.841,0.383-1.199,0.739c-0.357,0.357-0.655,0.842-0.892,1.453C159.734,244.142,159.615,244.924,159.615,245.876z"
			/>
		<path style="fill:#FFFFFF;" d="M186.695,256.178c0-3.468,0.153-6.383,0.459-8.746c0.307-2.363,0.799-4.259,1.479-5.687
			c0.68-1.429,1.539-2.456,2.576-3.086c1.037-0.629,2.303-0.943,3.799-0.943c1.462,0,2.721,0.314,3.774,0.943
			c1.054,0.63,1.921,1.657,2.601,3.086c0.68,1.428,1.174,3.323,1.479,5.687s0.459,5.278,0.459,8.746s-0.153,6.384-0.459,8.746
			c-0.306,2.363-0.8,4.259-1.479,5.687c-0.68,1.429-1.547,2.457-2.601,3.085c-1.054,0.629-2.313,0.944-3.774,0.944
			c-1.496,0-2.762-0.315-3.799-0.944c-1.037-0.628-1.896-1.656-2.576-3.085c-0.68-1.428-1.172-3.323-1.479-5.687
			C186.849,262.562,186.695,259.646,186.695,256.178z M198.731,256.178c0-2.787-0.068-5.117-0.204-6.987
			c-0.137-1.869-0.35-3.365-0.637-4.487c-0.29-1.122-0.672-1.921-1.148-2.397c-0.477-0.476-1.055-0.714-1.734-0.714
			s-1.258,0.238-1.733,0.714c-0.477,0.477-0.858,1.275-1.147,2.397s-0.502,2.618-0.638,4.487c-0.136,1.87-0.204,4.2-0.204,6.987
			c0,2.788,0.068,5.117,0.204,6.987s0.349,3.365,0.638,4.487s0.671,1.922,1.147,2.396c0.476,0.477,1.054,0.715,1.733,0.715
			s1.258-0.238,1.734-0.715c0.477-0.475,0.858-1.274,1.148-2.396c0.287-1.122,0.5-2.617,0.637-4.487
			C198.663,261.295,198.731,258.966,198.731,256.178z"/>
		<path style="fill:#FFFFFF;" d="M219.08,254.852c1.699,0.612,3.018,1.692,3.953,3.238c0.934,1.548,1.402,3.545,1.402,5.993
			c0,3.264-0.791,5.839-2.372,7.726s-3.97,2.831-7.165,2.831c-1.259,0-2.482-0.188-3.672-0.562
			c-1.191-0.373-2.228-0.867-3.111-1.479l1.173-3.57c0.782,0.477,1.606,0.885,2.474,1.225s1.776,0.51,2.729,0.51
			c1.734,0,3.086-0.535,4.055-1.606s1.453-2.78,1.453-5.125c0-2.347-0.535-4.114-1.606-5.305c-1.071-1.189-2.779-1.785-5.126-1.785
			h-1.326v-3.723h1.123c2.039,0,3.553-0.543,4.539-1.632c0.985-1.088,1.479-2.602,1.479-4.539c0-1.836-0.391-3.204-1.173-4.105
			c-0.782-0.9-1.819-1.352-3.11-1.352c-0.885,0-1.727,0.171-2.525,0.51c-0.799,0.341-1.488,0.766-2.065,1.275l-1.733-3.213
			c0.883-0.816,1.929-1.429,3.137-1.836c1.205-0.408,2.404-0.612,3.595-0.612c2.651,0,4.692,0.833,6.12,2.499
			s2.143,3.876,2.143,6.63c0,1.938-0.383,3.579-1.148,4.922C221.554,253.109,220.475,254.138,219.08,254.852z"/>
		<path style="fill:#FFFFFF;" d="M241.01,254.852c1.699,0.612,3.018,1.692,3.953,3.238c0.934,1.548,1.402,3.545,1.402,5.993
			c0,3.264-0.791,5.839-2.372,7.726s-3.97,2.831-7.165,2.831c-1.259,0-2.482-0.188-3.672-0.562
			c-1.191-0.373-2.228-0.867-3.111-1.479l1.173-3.57c0.782,0.477,1.606,0.885,2.474,1.225s1.776,0.51,2.729,0.51
			c1.734,0,3.086-0.535,4.055-1.606s1.453-2.78,1.453-5.125c0-2.347-0.535-4.114-1.606-5.305c-1.071-1.189-2.779-1.785-5.126-1.785
			h-1.326v-3.723h1.123c2.039,0,3.553-0.543,4.539-1.632c0.985-1.088,1.479-2.602,1.479-4.539c0-1.836-0.391-3.204-1.173-4.105
			c-0.782-0.9-1.819-1.352-3.11-1.352c-0.885,0-1.727,0.171-2.525,0.51c-0.799,0.341-1.488,0.766-2.065,1.275l-1.733-3.213
			c0.883-0.816,1.929-1.429,3.137-1.836c1.205-0.408,2.404-0.612,3.595-0.612c2.651,0,4.692,0.833,6.12,2.499
			s2.143,3.876,2.143,6.63c0,1.938-0.383,3.579-1.148,4.922C243.483,253.109,242.404,254.138,241.01,254.852z"/>
		<path style="fill:#FFFFFF;" d="M258.248,268.061c0.033,0.272,0.051,0.535,0.051,0.791c0,0.254,0,0.518,0,0.79
			c0,2.177-0.307,4.267-0.918,6.272c-0.612,2.006-1.445,3.944-2.5,5.814l-3.11-0.918c0.85-1.734,1.411-3.494,1.683-5.278
			c0.271-1.785,0.408-3.46,0.408-5.024c0-0.441-0.009-0.866-0.025-1.274c-0.018-0.407-0.043-0.798-0.076-1.173H258.248z"/>
		<path style="fill:#FFFFFF;" d="M266.102,270.254c1.291-0.136,2.49-0.399,3.596-0.791c1.104-0.391,2.082-0.994,2.932-1.811
			s1.572-1.895,2.168-3.238c0.594-1.343,1.027-3.034,1.301-5.074c-1.326,0.544-2.568,0.815-3.724,0.815
			c-2.448,0-4.36-0.96-5.737-2.881s-2.065-4.564-2.065-7.931c0-3.604,0.638-6.442,1.912-8.517c1.275-2.074,3.29-3.111,6.044-3.111
			c1.394,0,2.617,0.272,3.672,0.816c1.053,0.544,1.93,1.437,2.627,2.677c0.695,1.242,1.224,2.874,1.58,4.896
			c0.357,2.023,0.535,4.496,0.535,7.42c0,2.585-0.246,5.084-0.738,7.497c-0.494,2.415-1.301,4.564-2.423,6.452
			c-1.122,1.887-2.601,3.416-4.437,4.59c-1.837,1.172-4.098,1.811-6.783,1.912L266.102,270.254z M273.445,256.586
			c1.02,0,2.022-0.307,3.009-0.918c0-0.408,0.008-0.824,0.025-1.25c0.017-0.425,0.025-0.875,0.025-1.352
			c0-1.563-0.034-3.051-0.103-4.462s-0.237-2.652-0.51-3.724c-0.271-1.07-0.672-1.92-1.198-2.55
			c-0.527-0.629-1.232-0.943-2.116-0.943c-1.326,0-2.253,0.706-2.779,2.116c-0.527,1.411-0.791,3.29-0.791,5.636
			c0,2.55,0.365,4.429,1.097,5.636S271.949,256.586,273.445,256.586z"/>
	</g>
	<g>
		<g>
			<path style="fill:#FFFFFF;" d="M284.701,282.402c-0.492,4.237-14.117,2.265-16.289,2.265c-12.04,0-24.08,0-36.12,0
				c-32.031,0-64.063,0-96.094,0c-18.969,0-37.937,0-56.906,0c-3.785,0-2.626-6.545-2.626-8.563c0-7.512,0-15.023,0-22.536
				c0-6.694,0-13.389,0-20.083c0-2.415,0.318-5.061,3.382-5.061c52.465,0,104.93,0,157.395,0c14.877,0,29.754,0,44.631,0
				c3.353,0,2.627,4.188,2.627,6.096c0,6.021,0,12.041,0,18.062C284.701,262.521,284.701,272.462,284.701,282.402
				c0,4.514,7,4.514,7,0c0-12.169,0-24.338,0-36.506c0-8.307,2.865-24.473-9.83-24.473c-19.508,0-39.017,0-58.524,0
				c-32.003,0-64.005,0-96.008,0c-11.813,0-23.625,0-35.438,0c-5.051,0-11.526-1.02-16.408,0.711
				c-6.048,2.145-5.826,8.359-5.826,13.556c0,7.283,0,14.566,0,21.85c0,7.011,0,14.021,0,21.031c0,5.637,0.972,12.143,7.979,12.943
				c5.023,0.574,10.265,0.152,15.31,0.152c12.04,0,24.08,0,36.12,0c51,0,101.999,0,152.999,0c5.593,0,9.018-4.016,9.627-9.265
				C292.222,277.923,285.216,277.974,284.701,282.402z"/>
		</g>
	</g>
	<g>
		<path style="fill:#FFFFFF;" d="M95.688,286c0,1.104-0.896,2-2,2h-11.5c-1.104,0-2-0.896-2-2v-5c0-1.104,0.896-2,2-2h11.5
			c1.104,0,2,0.896,2,2V286z"/>
		<g>
			<path style="fill:#FFFFFF;" d="M126.813,286c0,1.104-0.896,2-2,2h-11.5c-1.104,0-2-0.896-2-2v-5c0-1.104,0.896-2,2-2h11.5
				c1.104,0,2,0.896,2,2V286z"/>
			<path style="fill:#FFFFFF;" d="M149.938,286c0,1.104-0.896,2-2,2h-11.5c-1.104,0-2-0.896-2-2v-5c0-1.104,0.896-2,2-2h11.5
				c1.104,0,2,0.896,2,2V286z"/>
			<path style="fill:#FFFFFF;" d="M173.063,286c0,1.104-0.896,2-2,2h-11.5c-1.104,0-2-0.896-2-2v-5c0-1.104,0.896-2,2-2h11.5
				c1.104,0,2,0.896,2,2V286z"/>
		</g>
		<g>
			<path style="fill:#FFFFFF;" d="M201.188,286c0,1.104-0.895,2-2,2h-11.5c-1.104,0-2-0.896-2-2v-5c0-1.104,0.896-2,2-2h11.5
				c1.105,0,2,0.896,2,2V286z"/>
			<path style="fill:#FFFFFF;" d="M224.313,286c0,1.104-0.895,2-2,2h-11.5c-1.104,0-2-0.896-2-2v-5c0-1.104,0.896-2,2-2h11.5
				c1.105,0,2,0.896,2,2V286z"/>
			<path style="fill:#FFFFFF;" d="M247.438,286c0,1.104-0.895,2-2,2h-11.5c-1.104,0-2-0.896-2-2v-5c0-1.104,0.896-2,2-2h11.5
				c1.105,0,2,0.896,2,2V286z"/>
		</g>
		<path style="fill:#FFFFFF;" d="M281.188,286c0,1.104-0.895,2-2,2h-11.5c-1.104,0-2-0.896-2-2v-5c0-1.104,0.896-2,2-2h11.5
			c1.105,0,2,0.896,2,2V286z"/>
	</g>
	<g>
		<path style="fill:#FFFFFF;" d="M95.5,231.834c0,1.104-0.896,2-2,2H82c-1.104,0-2-0.896-2-2v-5c0-1.104,0.896-2,2-2h11.5
			c1.104,0,2,0.896,2,2V231.834z"/>
		<g>
			<path style="fill:#FFFFFF;" d="M126.625,231.834c0,1.104-0.896,2-2,2h-11.5c-1.104,0-2-0.896-2-2v-5c0-1.104,0.896-2,2-2h11.5
				c1.104,0,2,0.896,2,2V231.834z"/>
			<path style="fill:#FFFFFF;" d="M149.75,231.834c0,1.104-0.896,2-2,2h-11.5c-1.104,0-2-0.896-2-2v-5c0-1.104,0.896-2,2-2h11.5
				c1.104,0,2,0.896,2,2V231.834z"/>
			<path style="fill:#FFFFFF;" d="M172.875,231.834c0,1.104-0.896,2-2,2h-11.5c-1.104,0-2-0.896-2-2v-5c0-1.104,0.896-2,2-2h11.5
				c1.104,0,2,0.896,2,2V231.834z"/>
		</g>
		<g>
			<path style="fill:#FFFFFF;" d="M201,231.834c0,1.104-0.896,2-2,2h-11.5c-1.104,0-2-0.896-2-2v-5c0-1.104,0.896-2,2-2H199
				c1.104,0,2,0.896,2,2V231.834z"/>
			<path style="fill:#FFFFFF;" d="M224.125,231.834c0,1.104-0.896,2-2,2h-11.5c-1.104,0-2-0.896-2-2v-5c0-1.104,0.896-2,2-2h11.5
				c1.104,0,2,0.896,2,2V231.834z"/>
			<path style="fill:#FFFFFF;" d="M247.25,231.834c0,1.104-0.896,2-2,2h-11.5c-1.104,0-2-0.896-2-2v-5c0-1.104,0.896-2,2-2h11.5
				c1.104,0,2,0.896,2,2V231.834z"/>
		</g>
		<path style="fill:#FFFFFF;" d="M281,231.834c0,1.104-0.896,2-2,2h-11.5c-1.104,0-2-0.896-2-2v-5c0-1.104,0.896-2,2-2H279
			c1.104,0,2,0.896,2,2V231.834z"/>
	</g>
	<g>
		<g>
			<path style="fill:#FFFFFF;" d="M73.166,150.627c48.397,0,96.794,0,145.191,0c23.548,0,47.095,0,70.643,0c1.935,0,1.935-3,0-3
				c-48.397,0-96.794,0-145.191,0c-23.547,0-47.095,0-70.643,0C71.231,147.627,71.231,150.627,73.166,150.627L73.166,150.627z"/>
		</g>
	</g>
	<g>
		<g>
			<path style="fill:#FFFFFF;" d="M134.25,181.317c3.612,8.654,8.928,23.816,20.072,24.79c5.746,0.502,10.317-6.08,12.944-10.205
				c7.959-12.501,12.345-27.76,16.289-41.931c2.406-8.644,4.788-17.258,7.778-25.73c2.706-7.67,5.773-15.351,10.154-22.236
				c2.494-3.92,5.558-8.041,9.688-4.043c7.245,7.013,10.766,18.917,13.985,28.163c2.329,6.687,4.424,13.487,6.179,20.35
				c1.117,4.371,7.869,2.515,6.75-1.861c-2.885-11.284-17.374-68.885-36.96-52.871c-5.352,4.375-8.558,11.305-11.325,17.466
				c-3.356,7.472-6.057,15.235-8.504,23.046c-2.396,7.647-4.279,15.436-6.605,23.103c-3.19,10.511-6.792,21.103-12.128,30.739
				c-1.603,2.896-3.96,7.433-7.249,8.778c-6.002,2.455-12.798-15.779-14.317-19.419C139.288,175.354,132.511,177.152,134.25,181.317
				L134.25,181.317z"/>
			<path style="fill:#FFFFFF;" d="M167.923,179.456c-2.641,6.327-5.571,13.157-10.477,18.085c-2.584,2.596-4.485,1.282-6.59-0.906
				c-5.128-5.33-8.074-13.296-10.723-20.052c-3.711-9.463-6.629-19.221-9.234-29.039c-3.249-12.248-19.836-73.565-39.977-48.384
				c-6.671,8.341-10.438,19.134-13.91,29.103c-2.328,6.687-4.423,13.487-6.178,20.349c-1.119,4.376,5.632,6.232,6.75,1.861
				c3.011-11.776,6.783-23.556,11.765-34.647c2.102-4.68,5.429-13.467,10.667-15.614c4.239-1.738,8.671,7.736,10.098,10.393
				c11.5,21.417,14.824,46.304,23.644,68.795c3.422,8.726,7.427,19.084,15.231,24.846c12.625,9.32,22.411-15.09,25.684-22.929
				C176.411,177.152,169.635,175.354,167.923,179.456L167.923,179.456z"/>
			<path style="fill:#FFFFFF;" d="M241.37,180.901c3.583,8.583,9.854,26.284,21.965,24.574c6.569-0.928,11.03-9.571,13.711-14.71
				c6.617-12.686,11.04-26.87,14.567-40.708c1.115-4.377-5.636-6.233-6.75-1.861c-2.667,10.466-6.031,20.827-10.095,30.831
				c-2.49,6.131-5.407,12.853-10.054,17.683c-7.199,7.481-14.701-13.134-16.595-17.67
				C246.408,174.938,239.632,176.736,241.37,180.901L241.37,180.901z"/>
			<path style="fill:#FFFFFF;" d="M275.043,179.04c-2.641,6.327-5.57,13.157-10.477,18.085c-2.584,2.596-4.484,1.282-6.59-0.906
				c-5.128-5.33-8.073-13.296-10.723-20.052c-3.712-9.463-6.63-19.221-9.234-29.039c-3.249-12.248-19.835-73.564-39.976-48.384
				c-6.672,8.341-10.438,19.134-13.91,29.103c-2.329,6.687-4.424,13.487-6.179,20.349c-1.119,4.376,5.633,6.232,6.75,1.861
				c3.011-11.776,6.784-23.556,11.766-34.647c2.103-4.68,5.43-13.467,10.668-15.614c4.238-1.738,8.67,7.736,10.097,10.393
				c11.499,21.417,14.823,46.304,23.644,68.795c3.422,8.726,7.427,19.084,15.231,24.846c12.625,9.32,22.411-15.09,25.683-22.929
				C283.531,176.736,276.755,174.938,275.043,179.04L275.043,179.04z"/>
		</g>
	</g>
</g>
<g id="Ebene_1">
</g>
</svg>
