<?xml version="1.0" encoding="iso-8859-1"?>
<!-- Generator: Adobe Illustrator 16.0.0, SVG Export Plug-In . SVG Version: 6.00 Build 0)  -->
<!DOCTYPE svg PUBLIC "-//W3C//DTD SVG 1.1//EN" "http://www.w3.org/Graphics/SVG/1.1/DTD/svg11.dtd">
<svg version="1.1" xmlns="http://www.w3.org/2000/svg" xmlns:xlink="http://www.w3.org/1999/xlink" x="0px" y="0px" width="361px"
	 height="361px" viewBox="0 0 361 361" style="enable-background:new 0 0 361 361;" xml:space="preserve">
<g id="measure_x5F_pressure_x5F_bar">
	<g>
		<path style="fill:#FFFFFF;" d="M231.383,274.887c0,2.521-0.371,4.801-1.11,6.84c-0.741,2.041-1.811,3.78-3.21,5.221
			c-1.4,1.439-3.12,2.55-5.16,3.33c-2.04,0.779-4.36,1.17-6.96,1.17c-1.08,0-2.211-0.051-3.39-0.15c-1.181-0.1-2.34-0.23-3.48-0.39
			c-1.141-0.161-2.23-0.351-3.27-0.57c-1.041-0.22-1.961-0.45-2.76-0.69v-44.1l8.939-1.439v15.72c0.999-0.44,2.04-0.78,3.119-1.021
			c1.08-0.24,2.24-0.359,3.48-0.359c2.24,0,4.22,0.39,5.94,1.17c1.72,0.779,3.159,1.89,4.319,3.33
			c1.16,1.439,2.041,3.17,2.641,5.189C231.082,270.157,231.383,272.407,231.383,274.887z M222.262,274.646
			c0-5.76-2.12-8.64-6.359-8.64c-0.921,0-1.83,0.12-2.73,0.36c-0.899,0.24-1.63,0.54-2.189,0.9v16.26
			c0.439,0.08,0.999,0.149,1.68,0.209c0.68,0.061,1.42,0.091,2.221,0.091c2.439,0,4.279-0.841,5.52-2.521
			C221.642,279.627,222.262,277.407,222.262,274.646z"/>
		<path style="fill:#FFFFFF;" d="M249.621,258.268c2.641,0,4.84,0.299,6.601,0.899c1.76,0.601,3.169,1.46,4.229,2.58
			c1.06,1.12,1.81,2.48,2.25,4.08c0.439,1.601,0.66,3.38,0.66,5.34v18.601c-1.28,0.279-3.06,0.609-5.34,0.989
			c-2.279,0.38-5.04,0.57-8.279,0.57c-2.041,0-3.891-0.181-5.551-0.54c-1.66-0.36-3.09-0.949-4.29-1.77s-2.12-1.891-2.76-3.211
			s-0.96-2.939-0.96-4.859c0-1.84,0.369-3.399,1.109-4.68s1.73-2.301,2.971-3.061c1.239-0.76,2.66-1.31,4.26-1.65
			c1.6-0.339,3.26-0.51,4.98-0.51c1.159,0,2.189,0.051,3.09,0.15s1.629,0.23,2.189,0.39v-0.84c0-1.52-0.46-2.739-1.38-3.66
			c-0.921-0.919-2.521-1.38-4.8-1.38c-1.521,0-3.021,0.11-4.5,0.33c-1.48,0.221-2.76,0.53-3.84,0.93l-1.141-7.199
			c0.52-0.16,1.17-0.33,1.951-0.511c0.779-0.18,1.629-0.339,2.549-0.479s1.891-0.26,2.91-0.36
			C247.552,258.317,248.581,258.268,249.621,258.268z M250.342,284.427c0.879,0,1.719-0.02,2.52-0.06c0.8-0.039,1.44-0.1,1.92-0.18
			v-6.78c-0.359-0.08-0.9-0.159-1.619-0.24c-0.721-0.079-1.381-0.12-1.98-0.12c-0.84,0-1.631,0.051-2.37,0.15
			c-0.741,0.1-1.39,0.291-1.95,0.57s-1,0.659-1.32,1.14c-0.32,0.479-0.479,1.079-0.479,1.8c0,1.4,0.47,2.37,1.41,2.91
			C247.411,284.157,248.701,284.427,250.342,284.427z"/>
		<path style="fill:#FFFFFF;" d="M290.481,267.027c-0.801-0.2-1.74-0.41-2.82-0.631c-1.08-0.219-2.241-0.33-3.479-0.33
			c-0.561,0-1.23,0.051-2.01,0.15c-0.781,0.101-1.371,0.21-1.771,0.33v24.12h-8.94v-29.88c1.6-0.56,3.49-1.09,5.67-1.59
			s4.609-0.75,7.291-0.75c0.479,0,1.059,0.029,1.739,0.09c0.68,0.061,1.359,0.141,2.04,0.24c0.68,0.1,1.359,0.22,2.04,0.359
			c0.68,0.141,1.261,0.311,1.74,0.51L290.481,267.027z"/>
	</g>
	<g>
		<g>
			<g>
				<path style="fill:#FFFFFF;" d="M116.808,241.434c-4.663,4.663-9.326,9.325-13.989,13.988c-1.369,1.369,0.752,3.49,2.121,2.121
					c4.663-4.663,9.326-9.325,13.989-13.988C120.298,242.186,118.177,240.064,116.808,241.434L116.808,241.434z"/>
			</g>
		</g>
		<g>
			<g>
				<path style="fill:#FFFFFF;" d="M129.125,229.023c-8.769,8.8-17.537,17.599-26.306,26.398c-1.367,1.371,0.754,3.493,2.121,2.121
					c8.769-8.8,17.537-17.599,26.306-26.398C132.613,229.773,130.492,227.651,129.125,229.023L129.125,229.023z"/>
			</g>
		</g>
		<g>
			<g>
				<path style="fill:#FFFFFF;" d="M110.251,172.247c-12.602-1.118-25.203-2.236-37.804-3.354c-1.928-0.171-1.911,2.831,0,3
					c12.602,1.118,25.203,2.236,37.804,3.354C112.179,175.418,112.162,172.417,110.251,172.247L110.251,172.247z"/>
			</g>
		</g>
		<g>
			<g>
				<path style="fill:#FFFFFF;" d="M142.021,120.745c-7.268-10.418-14.536-20.836-21.804-31.254
					c-1.098-1.574-3.701-0.077-2.591,1.515c7.268,10.418,14.536,20.836,21.804,31.254
					C140.528,123.833,143.13,122.336,142.021,120.745L142.021,120.745z"/>
			</g>
		</g>
		<g>
			<g>
				<path style="fill:#FFFFFF;" d="M200.342,111.566c3.125-12.215,6.249-24.43,9.374-36.644c0.479-1.875-2.413-2.671-2.893-0.798
					c-3.125,12.215-6.249,24.43-9.374,36.644C196.97,112.644,199.862,113.439,200.342,111.566L200.342,111.566z"/>
			</g>
		</g>
		<g>
			<g>
				<path style="fill:#FFFFFF;" d="M278.794,133.138c-11.617,5.293-23.234,10.586-34.852,15.878
					c-1.759,0.801-0.232,3.386,1.514,2.591c11.617-5.293,23.234-10.586,34.852-15.878
					C282.066,134.927,280.54,132.342,278.794,133.138L278.794,133.138z"/>
			</g>
		</g>
		<g>
			<g>
				<path style="fill:#FFFFFF;" d="M280.415,223.568c-11.494-5.272-22.988-10.545-34.482-15.816
					c-1.745-0.801-3.271,1.784-1.514,2.59c11.494,5.272,22.988,10.545,34.482,15.816
					C280.646,226.959,282.172,224.374,280.415,223.568L280.415,223.568z"/>
			</g>
		</g>
		<g>
			<g>
				<path style="fill:#FFFFFF;" d="M106.819,228.881c-5.42,3.755-10.841,7.51-16.262,11.266c-1.578,1.093-0.081,3.695,1.515,2.59
					c5.42-3.755,10.841-7.51,16.262-11.266C109.912,230.378,108.415,227.775,106.819,228.881L106.819,228.881z"/>
			</g>
		</g>
		<g>
			<g>
				<path style="fill:#FFFFFF;" d="M99.112,215.34c-5.997,2.742-11.994,5.485-17.991,8.229c-1.757,0.804-0.231,3.389,1.515,2.59
					c5.997-2.742,11.994-5.485,17.991-8.229C102.384,217.126,100.858,214.541,99.112,215.34L99.112,215.34z"/>
			</g>
		</g>
		<g>
			<g>
				<path style="fill:#FFFFFF;" d="M94.331,200.757c-6.38,1.667-12.76,3.333-19.141,5c-1.87,0.488-1.076,3.382,0.798,2.893
					c6.38-1.667,12.76-3.333,19.141-5C96.999,203.161,96.205,200.268,94.331,200.757L94.331,200.757z"/>
			</g>
		</g>
		<g>
			<g>
				<path style="fill:#FFFFFF;" d="M92.158,185.727c-6.57,0.56-13.141,1.118-19.711,1.678c-1.913,0.163-1.929,3.164,0,3
					c6.57-0.56,13.141-1.118,19.711-1.678C94.071,188.563,94.087,185.563,92.158,185.727L92.158,185.727z"/>
			</g>
		</g>
		<g>
			<g>
				<path style="fill:#FFFFFF;" d="M92.158,170.568c-6.57-0.559-13.141-1.117-19.711-1.676c-1.929-0.164-1.913,2.837,0,3
					c6.57,0.559,13.141,1.117,19.711,1.676C94.087,173.732,94.071,170.731,92.158,170.568L92.158,170.568z"/>
			</g>
		</g>
		<g>
			<g>
				<path style="fill:#FFFFFF;" d="M95.129,155.646c-6.38-1.667-12.761-3.333-19.141-5c-1.874-0.49-2.668,2.404-0.798,2.893
					c6.38,1.667,12.761,3.333,19.141,5C96.205,159.029,96.999,156.135,95.129,155.646L95.129,155.646z"/>
			</g>
		</g>
		<g>
			<g>
				<path style="fill:#FFFFFF;" d="M100.626,141.365c-5.997-2.743-11.993-5.485-17.99-8.228c-1.746-0.798-3.271,1.787-1.514,2.591
					c5.997,2.743,11.993,5.485,17.99,8.228C100.858,144.754,102.384,142.169,100.626,141.365L100.626,141.365z"/>
			</g>
		</g>
		<g>
			<g>
				<path style="fill:#FFFFFF;" d="M108.333,127.824c-5.42-3.755-10.841-7.51-16.261-11.266c-1.595-1.104-3.093,1.497-1.515,2.591
					c5.421,3.755,10.841,7.51,16.262,11.266C108.414,131.52,109.912,128.918,108.333,127.824L108.333,127.824z"/>
			</g>
		</g>
		<g>
			<g>
				<path style="fill:#FFFFFF;" d="M118.929,115.741c-4.663-4.663-9.325-9.326-13.988-13.988c-1.369-1.369-3.49,0.752-2.121,2.121
					c4.663,4.663,9.325,9.326,13.988,13.988C118.177,119.231,120.298,117.11,118.929,115.741L118.929,115.741z"/>
			</g>
		</g>
		<g>
			<g>
				<path style="fill:#FFFFFF;" d="M131.481,105.753c-3.755-5.421-7.51-10.841-11.265-16.262c-1.094-1.578-3.695-0.081-2.591,1.515
					c3.755,5.42,7.51,10.841,11.265,16.261C129.984,108.845,132.586,107.348,131.481,105.753L131.481,105.753z"/>
			</g>
		</g>
		<g>
			<g>
				<path style="fill:#FFFFFF;" d="M145.022,98.046c-2.743-5.997-5.485-11.994-8.228-17.991c-0.804-1.757-3.389-0.231-2.591,1.515
					c2.743,5.997,5.485,11.994,8.228,17.991C143.235,101.318,145.821,99.792,145.022,98.046L145.022,98.046z"/>
			</g>
		</g>
		<g>
			<g>
				<path style="fill:#FFFFFF;" d="M159.605,93.265c-1.667-6.38-3.333-12.76-5-19.14c-0.488-1.87-3.382-1.076-2.893,0.798
					c1.667,6.38,3.333,12.76,5,19.14C157.201,95.933,160.095,95.139,159.605,93.265L159.605,93.265z"/>
			</g>
		</g>
		<g>
			<g>
				<path style="fill:#FFFFFF;" d="M174.635,91.092c-0.559-6.57-1.117-13.141-1.676-19.711c-0.163-1.913-3.164-1.929-3,0
					c0.559,6.57,1.117,13.141,1.676,19.711C171.798,93.004,174.799,93.021,174.635,91.092L174.635,91.092z"/>
			</g>
		</g>
		<g>
			<g>
				<path style="fill:#FFFFFF;" d="M189.795,91.092c0.559-6.57,1.117-13.141,1.676-19.711c0.164-1.929-2.837-1.913-3,0
					c-0.559,6.57-1.117,13.141-1.676,19.711C186.631,93.021,189.632,93.004,189.795,91.092L189.795,91.092z"/>
			</g>
		</g>
		<g>
			<g>
				<path style="fill:#FFFFFF;" d="M204.717,94.062c1.666-6.38,3.333-12.76,4.999-19.14c0.489-1.874-2.404-2.668-2.893-0.798
					c-1.666,6.38-3.333,12.76-4.999,19.14C201.335,95.138,204.229,95.932,204.717,94.062L204.717,94.062z"/>
			</g>
		</g>
		<g>
			<g>
				<path style="fill:#FFFFFF;" d="M218.997,99.56c2.743-5.997,5.485-11.993,8.228-17.99c0.799-1.746-1.786-3.271-2.59-1.514
					c-2.743,5.997-5.485,11.993-8.228,17.99C215.608,99.792,218.193,101.317,218.997,99.56L218.997,99.56z"/>
			</g>
		</g>
		<g>
			<g>
				<path style="fill:#FFFFFF;" d="M232.538,107.267c3.756-5.42,7.511-10.841,11.266-16.261c1.105-1.595-1.497-3.093-2.59-1.515
					c-3.756,5.42-7.511,10.841-11.266,16.261C228.843,107.347,231.445,108.845,232.538,107.267L232.538,107.267z"/>
			</g>
		</g>
		<g>
			<g>
				<path style="fill:#FFFFFF;" d="M244.621,117.862c4.663-4.663,9.325-9.325,13.988-13.988c1.369-1.369-0.752-3.49-2.121-2.121
					c-4.663,4.663-9.325,9.325-13.988,13.988C241.131,117.11,243.252,119.231,244.621,117.862L244.621,117.862z"/>
			</g>
		</g>
		<g>
			<g>
				<path style="fill:#FFFFFF;" d="M254.61,130.415c5.421-3.755,10.842-7.51,16.262-11.265c1.579-1.094,0.081-3.695-1.514-2.591
					c-5.421,3.755-10.842,7.51-16.262,11.265C251.518,128.917,253.016,131.519,254.61,130.415L254.61,130.415z"/>
			</g>
		</g>
		<g>
			<g>
				<path style="fill:#FFFFFF;" d="M262.317,143.956c5.997-2.743,11.994-5.485,17.99-8.227c1.758-0.804,0.231-3.389-1.514-2.591
					c-5.997,2.743-11.994,5.485-17.99,8.227C259.046,142.168,260.572,144.754,262.317,143.956L262.317,143.956z"/>
			</g>
		</g>
		<g>
			<g>
				<path style="fill:#FFFFFF;" d="M267.098,158.539c6.381-1.666,12.761-3.333,19.141-4.999c1.871-0.488,1.076-3.382-0.797-2.893
					c-6.381,1.666-12.761,3.333-19.141,4.999C264.43,156.134,265.225,159.028,267.098,158.539L267.098,158.539z"/>
			</g>
		</g>
		<g>
			<g>
				<path style="fill:#FFFFFF;" d="M269.271,173.568c6.57-0.559,13.141-1.117,19.711-1.675c1.913-0.163,1.929-3.164,0-3
					c-6.57,0.559-13.141,1.117-19.711,1.675C267.358,170.731,267.343,173.732,269.271,173.568L269.271,173.568z"/>
			</g>
		</g>
		<g>
			<g>
				<path style="fill:#FFFFFF;" d="M269.271,188.728c6.57,0.559,13.141,1.118,19.711,1.677c1.929,0.164,1.913-2.837,0-3
					c-6.57-0.559-13.141-1.118-19.711-1.677C267.343,185.563,267.358,188.564,269.271,188.728L269.271,188.728z"/>
			</g>
		</g>
		<g>
			<g>
				<path style="fill:#FFFFFF;" d="M266.301,203.649c6.38,1.667,12.76,3.333,19.141,5c1.873,0.489,2.668-2.404,0.797-2.893
					c-6.38-1.667-12.76-3.333-19.141-5C265.225,200.268,264.43,203.161,266.301,203.649L266.301,203.649z"/>
			</g>
		</g>
		<g>
			<g>
				<path style="fill:#FFFFFF;" d="M260.804,217.931c5.996,2.743,11.992,5.485,17.989,8.228c1.745,0.799,3.271-1.786,1.514-2.59
					c-5.996-2.743-11.992-5.485-17.989-8.228C260.572,214.542,259.046,217.127,260.804,217.931L260.804,217.931z"/>
			</g>
		</g>
	</g>
	<path style="display:none;fill:none;stroke:#FFFFFF;stroke-width:7;stroke-miterlimit:10;" d="M196.583,214.286
		c-1.944-7.774-9.492-10.548-9.988-18.73c-0.048-0.782-0.54-7.854-0.54-7.854c2.016-1.913,3.278-4.611,3.278-7.609
		c0-3.455-1.677-6.511-4.253-8.425c-2.198-36.207-2.497-74.043-2.497-74.043c0-1.657-0.093-2.726-1.75-2.726
		c-1.657,0-1.75,1.069-1.75,2.726c0,0-0.298,37.823-2.498,74.043c-2.576,1.914-4.252,4.97-4.252,8.425
		c0,2.998,1.263,5.696,3.278,7.608c0,0-0.5,7.196-0.548,7.979c-0.494,8.151-8.038,10.861-9.98,18.606c-0.403,1.606,1.476,3.352,3,4
		c4.969,2.113,5.719,3,12.75,3s8.469-1.168,12.75-3C195.105,217.635,196.984,215.894,196.583,214.286z"/>
	<path style="fill:none;stroke:#FFFFFF;stroke-width:7;stroke-miterlimit:10;" d="M224.37,192.854
		c-8.587-4.201-16.916,0.557-24.764-5.277c-0.749-0.559-7.579-5.542-7.579-5.542c-0.198-3.309-1.689-6.534-4.425-8.837
		c-3.152-2.655-7.229-3.473-10.954-2.593c-34.725-25.813-69.476-54.61-69.476-54.61c-1.511-1.273-2.559-2.009-3.832-0.497
		c-1.272,1.511-0.369,2.418,1.143,3.69c0,0,34.28,29.332,65.637,59.167c-0.232,3.821,1.268,7.698,4.42,10.352
		c2.735,2.303,6.167,3.225,9.461,2.855c0,0,6.181,5.985,6.857,6.629c7.059,6.715,3.735,15.679,9.309,23.401
		c1.158,1.603,4.191,1.229,5.955,0.337c5.746-2.91,7.131-2.913,12.533-9.328c5.401-6.416,5.441-8.625,7.059-13.938
		C226.29,196.773,226.145,193.722,224.37,192.854z"/>
</g>
<g id="Ebene_1">
</g>
</svg>
