<?xml version="1.0" encoding="iso-8859-1"?>
<!-- Generator: Adobe Illustrator 16.0.0, SVG Export Plug-In . SVG Version: 6.00 Build 0)  -->
<!DOCTYPE svg PUBLIC "-//W3C//DTD SVG 1.1//EN" "http://www.w3.org/Graphics/SVG/1.1/DTD/svg11.dtd">
<svg version="1.1" xmlns="http://www.w3.org/2000/svg" xmlns:xlink="http://www.w3.org/1999/xlink" x="0px" y="0px" width="361px"
	 height="361px" viewBox="0 0 361 361" style="enable-background:new 0 0 361 361;" xml:space="preserve">
<g id="measure_x5F_pond_x5F_100">
	<g>
		<g>
			<g>
				<g>
					<path style="fill:#FFFFFF;" d="M131.069,212.847c0.041-18.201,1.042-36.575,4.806-54.422
						c1.881-8.918,5.864-28.303,17.829-28.721c1.929-0.067,1.936-3.068,0-3c-12.171,0.425-16.866,16.024-19.442,25.564
						c-5.273,19.531-6.146,40.459-6.192,60.58C128.065,214.781,131.065,214.781,131.069,212.847L131.069,212.847z"/>
				</g>
			</g>
			<g>
				<g>
					<path style="fill:#FFFFFF;" d="M127.014,202.795c0.059-16.473,1.363-33.155,6.113-49c2.878-9.602,8.689-23.763,20.576-24.091
						c1.931-0.053,1.936-3.054,0-3c-11.288,0.312-17.537,10.891-21.344,20.219c-7.079,17.346-8.278,37.367-8.345,55.873
						C124.007,204.729,127.007,204.729,127.014,202.795L127.014,202.795z"/>
				</g>
			</g>
			<g>
				<g>
					<path style="fill:#FFFFFF;" d="M93.077,155.083c1.501-8.045,2.739-16.822,6.43-24.232c1.79-3.593,4.821-5.469,8.006-7.672
						c1.58-1.093,0.082-3.694-1.514-2.591c-3.251,2.25-6.332,4.212-8.468,7.642c-4.652,7.471-5.774,17.625-7.347,26.055
						C89.831,156.176,92.722,156.983,93.077,155.083L93.077,155.083z"/>
				</g>
			</g>
			<g>
				<g>
					<path style="fill:#FFFFFF;" d="M88.69,148.885c1.272-6.691,2.49-14.735,7.138-20.06c2.833-3.247,7.448-4.12,11.327-5.496
						c1.81-0.642,1.03-3.541-0.798-2.893c-4.3,1.525-8.746,2.581-12.172,5.772c-5.635,5.25-7.039,14.785-8.387,21.878
						C85.438,149.978,88.329,150.784,88.69,148.885L88.69,148.885z"/>
				</g>
			</g>
			<g>
				<g>
					<path style="fill:#FFFFFF;" d="M79.207,146.87c-0.036-4.676-0.104-9.962-2.447-14.168c-0.521-0.935-1.27-1.74-2.125-2.375
						c-0.278-0.207-0.565-0.395-0.859-0.579c-0.456-0.286-0.184-0.292-0.127,0.219c-0.209-1.901-3.212-1.921-3,0
						c0.188,1.704,1.418,2.044,2.553,3.04c3.403,2.984,2.974,9.897,3.004,13.863C76.222,148.803,79.222,148.805,79.207,146.87
						L79.207,146.87z"/>
				</g>
			</g>
			<g>
				<g>
					<path style="fill:#FFFFFF;" d="M83.021,146.471c-0.753-4.008-1.117-9.289-3.6-12.731c-1.508-2.09-4.309-3.133-6.211-4.833
						c-1.438-1.285-3.566,0.83-2.121,2.121c1.727,1.543,3.95,2.526,5.6,4.098c0.853,0.813,1.179,2.14,1.505,3.222
						c0.876,2.906,1.375,5.943,1.935,8.92C80.485,149.168,83.376,148.361,83.021,146.471L83.021,146.471z"/>
				</g>
			</g>
			<g>
				<g>
					<path style="fill:#FFFFFF;" d="M83.681,146.382c-0.021-6.788,0.338-14.309-1.911-20.838c-1.065-3.092-3.336-5.133-5.603-7.355
						c-1.381-1.355-3.504,0.765-2.121,2.121c2.081,2.042,4.055,3.78,5.032,6.616c2.071,6.013,1.583,13.213,1.602,19.457
						C80.687,148.316,83.687,148.317,83.681,146.382L83.681,146.382z"/>
				</g>
			</g>
			<g>
				<g>
					<path style="fill:#FFFFFF;" d="M86.583,149.002c-0.03-7.151,0.325-15.489-2.602-22.223c-1.667-3.836-4.696-5.999-7.813-8.591
						c-1.476-1.228-3.61,0.883-2.121,2.121c2.517,2.094,5.197,3.863,6.801,6.805c3.389,6.217,2.707,15.101,2.735,21.888
						C83.591,150.937,86.591,150.938,86.583,149.002L86.583,149.002z"/>
				</g>
			</g>
			<g>
				<g>
					<path style="fill:#FFFFFF;" d="M119.78,194.928c-0.023-11.965-0.322-23.967-1.805-35.851c-0.73-5.85-1.456-13.03-5.025-17.975
						c-1.121-1.553-3.726-0.058-2.591,1.515c3.725,5.159,4.227,12.996,4.93,19.076c1.274,11.013,1.469,22.162,1.491,33.236
						C116.784,196.862,119.784,196.862,119.78,194.928L119.78,194.928z"/>
				</g>
			</g>
			<g>
				<g>
					<path style="fill:#FFFFFF;" d="M123.886,197.982c-0.044-12.21-0.759-24.433-2.935-36.461
						c-1.239-6.847-2.931-15.691-8.236-20.723c-1.402-1.331-3.527,0.788-2.121,2.121c4.924,4.67,6.237,13.063,7.464,19.399
						c2.266,11.702,2.785,23.771,2.828,35.664C120.893,199.917,123.893,199.917,123.886,197.982L123.886,197.982z"/>
				</g>
			</g>
		</g>
		<g>
			<g>
				<g>
					<path style="fill:#FFFFFF;" d="M248.666,290.786c5.333,0,10.667,0,16,0c4.514,0,4.514-7,0-7c-5.333,0-10.667,0-16,0
						C244.152,283.786,244.152,290.786,248.666,290.786L248.666,290.786z"/>
				</g>
			</g>
			<g>
				<g>
					<path style="fill:#FFFFFF;" d="M75.75,282.89c2.337,0,4.673,0,7.01,0c4.514,0,4.514-7,0-7c-2.337,0-4.673,0-7.01,0
						C71.235,275.89,71.235,282.89,75.75,282.89L75.75,282.89z"/>
				</g>
			</g>
			<g>
				<g>
					<path style="fill:#FFFFFF;" d="M102.271,279.89c2.581,0,5.161,0,7.741,0c4.514,0,4.514-7,0-7c-2.581,0-5.161,0-7.741,0
						C97.756,272.89,97.756,279.89,102.271,279.89L102.271,279.89z"/>
				</g>
			</g>
			<g>
				<g>
					<path style="fill:#FFFFFF;" d="M98.834,268.89c5.083,0,10.167,0,15.25,0c4.514,0,4.514-7,0-7c-5.083,0-10.167,0-15.25,0
						C94.32,261.89,94.32,268.89,98.834,268.89L98.834,268.89z"/>
				</g>
			</g>
			<g>
				<g>
					<path style="fill:#FFFFFF;" d="M124.069,291.786c2,0,4,0,6,0c1.908,0,3.5-1.592,3.5-3.5s-1.592-3.5-3.5-3.5c-2,0-4,0-6,0
						c-1.908,0-3.5,1.592-3.5,3.5S122.161,291.786,124.069,291.786L124.069,291.786z"/>
				</g>
			</g>
			<g>
				<g>
					<path style="fill:#FFFFFF;" d="M276.068,281.917c-3,0-6,0-9,0c-4.514,0-4.514,7,0,7c3,0,6,0,9,0
						C280.582,288.917,280.582,281.917,276.068,281.917L276.068,281.917z"/>
				</g>
			</g>
			<g>
				<g>
					<path style="fill:#FFFFFF;" d="M81.874,251.578c-2,0-4,0-6,0c-1.908,0-3.5,1.592-3.5,3.5s1.592,3.5,3.5,3.5c2,0,4,0,6,0
						c1.908,0,3.5-1.592,3.5-3.5S83.782,251.578,81.874,251.578L81.874,251.578z"/>
				</g>
			</g>
			<g>
				<g>
					<path style="fill:#FFFFFF;" d="M78.583,272.953c0.667,0,1.333,0,2,0c1.908,0,3.5-1.592,3.5-3.5s-1.592-3.5-3.5-3.5
						c-0.667,0-1.333,0-2,0c-1.908,0-3.5,1.592-3.5,3.5S76.675,272.953,78.583,272.953L78.583,272.953z"/>
				</g>
			</g>
			<g>
				<g>
					<path style="fill:#FFFFFF;" d="M95.584,276.277c-0.667,0-1.333,0-2,0c-1.908,0-3.5,1.592-3.5,3.5s1.592,3.5,3.5,3.5
						c0.667,0,1.333,0,2,0c1.908,0,3.5-1.592,3.5-3.5S97.492,276.277,95.584,276.277L95.584,276.277z"/>
				</g>
			</g>
			<g>
				<g>
					<path style="fill:#FFFFFF;" d="M198.164,284.786c-2,0-4,0-6,0c-1.908,0-3.5,1.592-3.5,3.5s1.592,3.5,3.5,3.5c2,0,4,0,6,0
						c1.908,0,3.5-1.592,3.5-3.5S200.072,284.786,198.164,284.786L198.164,284.786z"/>
				</g>
			</g>
			<g>
				<g>
					<path style="fill:#FFFFFF;" d="M89.833,263.89c-1.833,0-3.667,0-5.5,0c-1.908,0-3.5,1.592-3.5,3.5s1.592,3.5,3.5,3.5
						c1.833,0,3.667,0,5.5,0c1.908,0,3.5-1.592,3.5-3.5S91.741,263.89,89.833,263.89L89.833,263.89z"/>
				</g>
			</g>
			<g>
				<g>
					<path style="fill:#FFFFFF;" d="M174.5,266.953c3,0,6,0,9,0c4.514,0,4.514-7,0-7c-3,0-6,0-9,0
						C169.986,259.953,169.986,266.953,174.5,266.953L174.5,266.953z"/>
				</g>
			</g>
			<g>
				<g>
					<path style="fill:#FFFFFF;" d="M207.916,291.82c5.333,0,10.667,0,16,0c4.514,0,4.514-7,0-7c-5.333,0-10.667,0-16,0
						C203.402,284.82,203.402,291.82,207.916,291.82L207.916,291.82z"/>
				</g>
			</g>
			<g>
				<g>
					<path style="fill:#FFFFFF;" d="M217.209,288.035c0.667,0,1.333,0,2,0c1.908,0,3.5-1.592,3.5-3.5s-1.592-3.5-3.5-3.5
						c-0.667,0-1.333,0-2,0c-1.908,0-3.5,1.592-3.5,3.5S215.301,288.035,217.209,288.035L217.209,288.035z"/>
				</g>
			</g>
			<g>
				<g>
					<path style="fill:#FFFFFF;" d="M235.834,278.584c-2,0-4,0-6,0c-1.908,0-3.5,1.592-3.5,3.5s1.592,3.5,3.5,3.5c2,0,4,0,6,0
						c1.908,0,3.5-1.592,3.5-3.5S237.742,278.584,235.834,278.584L235.834,278.584z"/>
				</g>
			</g>
			<g>
				<g>
					<path style="fill:#FFFFFF;" d="M137.882,271.917c-3,0-6,0-9,0c-4.514,0-4.514,7,0,7c3,0,6,0,9,0
						C142.396,278.917,142.396,271.917,137.882,271.917L137.882,271.917z"/>
				</g>
			</g>
			<g>
				<g>
					<path style="fill:#FFFFFF;" d="M154.736,260.549c-5.333,0-10.667,0-16,0c-4.514,0-4.514,7,0,7c5.333,0,10.667,0,16,0
						C159.25,267.549,159.25,260.549,154.736,260.549L154.736,260.549z"/>
				</g>
			</g>
			<g>
				<g>
					<path style="fill:#FFFFFF;" d="M154.402,271.786c-2,0-4,0-6,0c-1.908,0-3.5,1.592-3.5,3.5s1.592,3.5,3.5,3.5c2,0,4,0,6,0
						c1.908,0,3.5-1.592,3.5-3.5S156.31,271.786,154.402,271.786L154.402,271.786z"/>
				</g>
			</g>
			<g>
				<g>
					<path style="fill:#FFFFFF;" d="M141.069,265.786c-0.667,0-1.333,0-2,0c-1.908,0-3.5,1.592-3.5,3.5s1.592,3.5,3.5,3.5
						c0.667,0,1.333,0,2,0c1.908,0,3.5-1.592,3.5-3.5S142.977,265.786,141.069,265.786L141.069,265.786z"/>
				</g>
			</g>
			<g>
				<g>
					<path style="fill:#FFFFFF;" d="M146.902,291.786c2,0,4,0,6,0c1.908,0,3.5-1.592,3.5-3.5s-1.592-3.5-3.5-3.5c-2,0-4,0-6,0
						c-1.908,0-3.5,1.592-3.5,3.5S144.995,291.786,146.902,291.786L146.902,291.786z"/>
				</g>
			</g>
			<g>
				<g>
					<path style="fill:#FFFFFF;" d="M87.819,291.619c5.083,0,10.167,0,15.25,0c4.514,0,4.514-7,0-7c-5.083,0-10.167,0-15.25,0
						C83.305,284.619,83.305,291.619,87.819,291.619L87.819,291.619z"/>
				</g>
			</g>
			<g>
				<g>
					<path style="fill:#FFFFFF;" d="M126.569,271.786c2,0,4,0,6,0c1.908,0,3.5-1.592,3.5-3.5s-1.592-3.5-3.5-3.5c-2,0-4,0-6,0
						c-1.908,0-3.5,1.592-3.5,3.5S124.662,271.786,126.569,271.786L126.569,271.786z"/>
				</g>
			</g>
			<g>
				<g>
					<path style="fill:#FFFFFF;" d="M180.251,276.584c3,0,6.001,0,9.001,0c4.514,0,4.514-7,0-7c-3,0-6.001,0-9.001,0
						C175.737,269.584,175.737,276.584,180.251,276.584L180.251,276.584z"/>
				</g>
			</g>
			<g>
				<g>
					<path style="fill:#FFFFFF;" d="M161.584,291.82c5.333,0,10.667,0,16,0c4.514,0,4.514-7,0-7c-5.333,0-10.667,0-16,0
						C157.07,284.82,157.07,291.82,161.584,291.82L161.584,291.82z"/>
				</g>
			</g>
			<g>
				<g>
					<path style="fill:#FFFFFF;" d="M156.902,283.786c2,0,4,0,6,0c1.908,0,3.5-1.592,3.5-3.5s-1.592-3.5-3.5-3.5c-2,0-4,0-6,0
						c-1.908,0-3.5,1.592-3.5,3.5S154.995,283.786,156.902,283.786L156.902,283.786z"/>
				</g>
			</g>
			<g>
				<g>
					<path style="fill:#FFFFFF;" d="M175.251,287.584c0.667,0,1.333,0,2,0c1.908,0,3.5-1.592,3.5-3.5s-1.592-3.5-3.5-3.5
						c-0.667,0-1.333,0-2,0c-1.908,0-3.5,1.592-3.5,3.5S173.344,287.584,175.251,287.584L175.251,287.584z"/>
				</g>
			</g>
			<g>
				<g>
					<path style="fill:#FFFFFF;" d="M169.584,264.584c-3.722,0-7.444,0-11.166,0c-4.514,0-4.514,7,0,7c3.722,0,7.444,0,11.166,0
						C174.098,271.584,174.098,264.584,169.584,264.584L169.584,264.584z"/>
				</g>
			</g>
			<g>
				<g>
					<path style="fill:#FFFFFF;" d="M194.001,278.584c-2,0-4,0-6,0c-1.908,0-3.5,1.592-3.5,3.5s1.592,3.5,3.5,3.5c2,0,4,0,6,0
						c1.908,0,3.5-1.592,3.5-3.5S195.909,278.584,194.001,278.584L194.001,278.584z"/>
				</g>
			</g>
			<g>
				<g>
					<path style="fill:#FFFFFF;" d="M148.902,279.786c5.333,0,10.667,0,16,0c4.514,0,4.514-7,0-7c-5.333,0-10.667,0-16,0
						C144.388,272.786,144.388,279.786,148.902,279.786L148.902,279.786z"/>
				</g>
			</g>
			<g>
				<g>
					<path style="fill:#FFFFFF;" d="M120.012,275.203c-3,0-6,0-9,0c-4.514,0-4.514,7,0,7c3,0,6,0,9,0
						C124.526,282.203,124.526,275.203,120.012,275.203L120.012,275.203z"/>
				</g>
			</g>
			<g>
				<g>
					<path style="fill:#FFFFFF;" d="M125.636,260.536c-1.083,0-2.167,0-3.25,0c-1.908,0-3.5,1.592-3.5,3.5s1.592,3.5,3.5,3.5
						c1.083,0,2.167,0,3.25,0c1.908,0,3.5-1.592,3.5-3.5S127.544,260.536,125.636,260.536L125.636,260.536z"/>
				</g>
			</g>
			<g>
				<g>
					<path style="fill:#FFFFFF;" d="M101.584,265.167c-2,0-4,0-6,0c-1.908,0-3.5,1.592-3.5,3.5s1.592,3.5,3.5,3.5c2,0,4,0,6,0
						c1.908,0,3.5-1.592,3.5-3.5S103.492,265.167,101.584,265.167L101.584,265.167z"/>
				</g>
			</g>
			<g>
				<g>
					<path style="fill:#FFFFFF;" d="M89.26,281.035c-1.833,0-3.667,0-5.5,0c-1.908,0-3.5,1.592-3.5,3.5s1.592,3.5,3.5,3.5
						c1.833,0,3.667,0,5.5,0c1.908,0,3.5-1.592,3.5-3.5S91.168,281.035,89.26,281.035L89.26,281.035z"/>
				</g>
			</g>
			<g>
				<g>
					<path style="fill:#FFFFFF;" d="M145.083,281.917c-0.667,0-1.333,0-2,0c-1.908,0-3.5,1.592-3.5,3.5s1.592,3.5,3.5,3.5
						c0.667,0,1.333,0,2,0c1.908,0,3.5-1.592,3.5-3.5S146.991,281.917,145.083,281.917L145.083,281.917z"/>
				</g>
			</g>
			<g>
				<g>
					<path style="fill:#FFFFFF;" d="M148.833,271.723c-0.667,0-1.333,0-2,0c-1.908,0-3.5,1.592-3.5,3.5s1.592,3.5,3.5,3.5
						c0.667,0,1.333,0,2,0c1.908,0,3.5-1.592,3.5-3.5S150.741,271.723,148.833,271.723L148.833,271.723z"/>
				</g>
			</g>
			<g>
				<g>
					<path style="fill:#FFFFFF;" d="M107.261,291.619c1.833,0,3.667,0,5.5,0c1.908,0,3.5-1.592,3.5-3.5s-1.592-3.5-3.5-3.5
						c-1.833,0-3.667,0-5.5,0c-1.908,0-3.5,1.592-3.5,3.5S105.354,291.619,107.261,291.619L107.261,291.619z"/>
				</g>
			</g>
			<g>
				<g>
					<path style="fill:#FFFFFF;" d="M73.544,291.619c0.667,0,1.333,0,2,0c1.908,0,3.5-1.592,3.5-3.5s-1.592-3.5-3.5-3.5
						c-0.667,0-1.333,0-2,0c-1.908,0-3.5,1.592-3.5,3.5S71.636,291.619,73.544,291.619L73.544,291.619z"/>
				</g>
			</g>
			<g>
				<g>
					<path style="fill:#FFFFFF;" d="M94.583,281.953c0.667,0,1.333,0,2,0c1.908,0,3.5-1.592,3.5-3.5s-1.592-3.5-3.5-3.5
						c-0.667,0-1.333,0-2,0c-1.908,0-3.5,1.592-3.5,3.5S92.675,281.953,94.583,281.953L94.583,281.953z"/>
				</g>
			</g>
			<g>
				<g>
					<path style="fill:#FFFFFF;" d="M105.833,272.89c-1.833,0-3.667,0-5.5,0c-1.908,0-3.5,1.592-3.5,3.5s1.592,3.5,3.5,3.5
						c1.833,0,3.667,0,5.5,0c1.908,0,3.5-1.592,3.5-3.5S107.741,272.89,105.833,272.89L105.833,272.89z"/>
				</g>
			</g>
			<g>
				<g>
					<path style="fill:#FFFFFF;" d="M252.834,283.292c0.667,0,1.333,0,2,0c1.908,0,3.5-1.592,3.5-3.5s-1.592-3.5-3.5-3.5
						c-0.667,0-1.333,0-2,0c-1.908,0-3.5,1.592-3.5,3.5S250.926,283.292,252.834,283.292L252.834,283.292z"/>
				</g>
			</g>
			<g>
				<g>
					<path style="fill:#FFFFFF;" d="M213.5,272.89c-3.722,0-7.444,0-11.166,0c-4.514,0-4.514,7,0,7c3.722,0,7.444,0,11.166,0
						C218.014,279.89,218.014,272.89,213.5,272.89L213.5,272.89z"/>
				</g>
			</g>
			<g>
				<g>
					<path style="fill:#FFFFFF;" d="M85.166,259.953c-3.278,0-6.556,0-9.833,0c-4.514,0-4.514,7,0,7c3.278,0,6.556,0,9.833,0
						C89.68,266.953,89.68,259.953,85.166,259.953L85.166,259.953z"/>
				</g>
			</g>
			<g>
				<g>
					<path style="fill:#FFFFFF;" d="M142.46,280.584c-3.722,0-7.444,0-11.166,0c-4.514,0-4.514,7,0,7c3.722,0,7.444,0,11.166,0
						C146.975,287.584,146.975,280.584,142.46,280.584L142.46,280.584z"/>
				</g>
			</g>
			<g>
				<g>
					<path style="fill:#FFFFFF;" d="M144.914,224.836c-3.278,0-6.556,0-9.833,0c-4.514,0-4.514,7,0,7c3.278,0,6.556,0,9.833,0
						C149.428,231.836,149.428,224.836,144.914,224.836L144.914,224.836z"/>
				</g>
			</g>
			<g>
				<g>
					<path style="fill:#FFFFFF;" d="M97.444,262.834c0.667,0,1.333,0,2,0c1.908,0,3.5-1.592,3.5-3.5s-1.592-3.5-3.5-3.5
						c-0.667,0-1.333,0-2,0c-1.908,0-3.5,1.592-3.5,3.5S95.536,262.834,97.444,262.834L97.444,262.834z"/>
				</g>
			</g>
			<g>
				<g>
					<path style="fill:#FFFFFF;" d="M98.762,237.893c5.083,0,10.167,0,15.25,0c4.514,0,4.514-7,0-7c-5.083,0-10.167,0-15.25,0
						C94.248,230.893,94.248,237.893,98.762,237.893L98.762,237.893z"/>
				</g>
			</g>
			<g>
				<g>
					<path style="fill:#FFFFFF;" d="M85.76,219.512c-2,0-4,0-6,0c-1.908,0-3.5,1.592-3.5,3.5s1.592,3.5,3.5,3.5c2,0,4,0,6,0
						c1.908,0,3.5-1.592,3.5-3.5S87.667,219.512,85.76,219.512L85.76,219.512z"/>
				</g>
			</g>
			<g>
				<g>
					<path style="fill:#FFFFFF;" d="M78.511,246.955c0.667,0,1.333,0,2,0c1.908,0,3.5-1.592,3.5-3.5s-1.592-3.5-3.5-3.5
						c-0.667,0-1.333,0-2,0c-1.908,0-3.5,1.592-3.5,3.5S76.603,246.955,78.511,246.955L78.511,246.955z"/>
				</g>
			</g>
			<g>
				<g>
					<path style="fill:#FFFFFF;" d="M89.761,232.893c-1.833,0-3.667,0-5.5,0c-1.908,0-3.5,1.592-3.5,3.5s1.592,3.5,3.5,3.5
						c1.833,0,3.667,0,5.5,0c1.908,0,3.5-1.592,3.5-3.5S91.669,232.893,89.761,232.893L89.761,232.893z"/>
				</g>
			</g>
			<g>
				<g>
					<path style="fill:#FFFFFF;" d="M137.81,240.92c-3,0-6,0-9,0c-4.514,0-4.514,7,0,7c3,0,6,0,9,0
						C142.324,247.92,142.324,240.92,137.81,240.92L137.81,240.92z"/>
				</g>
			</g>
			<g>
				<g>
					<path style="fill:#FFFFFF;" d="M116.78,241.789c-5.333,0-10.667,0-16,0c-4.514,0-4.514,7,0,7c5.333,0,10.667,0,16,0
						C121.294,248.789,121.294,241.789,116.78,241.789L116.78,241.789z"/>
				</g>
			</g>
			<g>
				<g>
					<path style="fill:#FFFFFF;" d="M154.331,240.789c-2,0-4,0-6,0c-1.908,0-3.5,1.592-3.5,3.5s1.592,3.5,3.5,3.5c2,0,4,0,6,0
						c1.908,0,3.5-1.592,3.5-3.5S156.238,240.789,154.331,240.789L154.331,240.789z"/>
				</g>
			</g>
			<g>
				<g>
					<path style="fill:#FFFFFF;" d="M140.997,234.789c-0.667,0-1.333,0-2,0c-1.908,0-3.5,1.592-3.5,3.5s1.592,3.5,3.5,3.5
						c0.667,0,1.333,0,2,0c1.908,0,3.5-1.592,3.5-3.5S142.905,234.789,140.997,234.789L140.997,234.789z"/>
				</g>
			</g>
			<g>
				<g>
					<path style="fill:#FFFFFF;" d="M126.498,240.789c2,0,4,0,6,0c1.908,0,3.5-1.592,3.5-3.5s-1.592-3.5-3.5-3.5c-2,0-4,0-6,0
						c-1.908,0-3.5,1.592-3.5,3.5S124.59,240.789,126.498,240.789L126.498,240.789z"/>
				</g>
			</g>
			<g>
				<g>
					<path style="fill:#FFFFFF;" d="M130.899,227.502c-3.722,0-7.444,0-11.166,0c-4.514,0-4.514,7,0,7c3.722,0,7.444,0,11.166,0
						C135.414,234.502,135.414,227.502,130.899,227.502L130.899,227.502z"/>
				</g>
			</g>
			<g>
				<g>
					<path style="fill:#FFFFFF;" d="M146.331,252.502c5.333,0,10.667,0,16,0c4.514,0,4.514-7,0-7c-5.333,0-10.667,0-16,0
						C141.816,245.502,141.816,252.502,146.331,252.502L146.331,252.502z"/>
				</g>
			</g>
			<g>
				<g>
					<path style="fill:#FFFFFF;" d="M151.683,232.893c-1.083,0-2.167,0-3.25,0c-1.908,0-3.5,1.592-3.5,3.5s1.592,3.5,3.5,3.5
						c1.083,0,2.167,0,3.25,0c1.908,0,3.5-1.592,3.5-3.5S153.59,232.893,151.683,232.893L151.683,232.893z"/>
				</g>
			</g>
			<g>
				<g>
					<path style="fill:#FFFFFF;" d="M101.513,234.17c-2,0-4,0-6,0c-1.908,0-3.5,1.592-3.5,3.5s1.592,3.5,3.5,3.5c2,0,4,0,6,0
						c1.908,0,3.5-1.592,3.5-3.5S103.42,234.17,101.513,234.17L101.513,234.17z"/>
				</g>
			</g>
			<g>
				<g>
					<path style="fill:#FFFFFF;" d="M148.761,240.725c-0.667,0-1.333,0-2,0c-1.908,0-3.5,1.592-3.5,3.5s1.592,3.5,3.5,3.5
						c0.667,0,1.333,0,2,0c1.908,0,3.5-1.592,3.5-3.5S150.669,240.725,148.761,240.725L148.761,240.725z"/>
				</g>
			</g>
			<g>
				<g>
					<path style="fill:#FFFFFF;" d="M85.094,227.955c-3.278,0-6.556,0-9.833,0c-4.514,0-4.514,7,0,7c3.278,0,6.556,0,9.833,0
						C89.608,234.955,89.608,227.955,85.094,227.955L85.094,227.955z"/>
				</g>
			</g>
			<g>
				<g>
					<path style="fill:#FFFFFF;" d="M100.427,218.955c-3.278,0-6.556,0-9.833,0c-4.514,0-4.514,7,0,7c3.278,0,6.556,0,9.833,0
						C104.941,225.955,104.941,218.955,100.427,218.955L100.427,218.955z"/>
				</g>
			</g>
			<g>
				<g>
					<path style="fill:#FFFFFF;" d="M97.372,231.836c0.667,0,1.333,0,2,0c1.908,0,3.5-1.592,3.5-3.5s-1.592-3.5-3.5-3.5
						c-0.667,0-1.333,0-2,0c-1.908,0-3.5,1.592-3.5,3.5S95.464,231.836,97.372,231.836L97.372,231.836z"/>
				</g>
			</g>
			<g>
				<g>
					<path style="fill:#FFFFFF;" d="M75.748,215.059c5.083,0,10.167,0,15.25,0c4.514,0,4.514-7,0-7c-5.083,0-10.167,0-15.25,0
						C71.234,208.059,71.234,215.059,75.748,215.059L75.748,215.059z"/>
				</g>
			</g>
			<g>
				<g>
					<path style="fill:#FFFFFF;" d="M91.544,242.766c-2,0-4,0-6,0c-1.908,0-3.5,1.592-3.5,3.5s1.592,3.5,3.5,3.5c2,0,4,0,6,0
						c1.908,0,3.5-1.592,3.5-3.5S93.452,242.766,91.544,242.766L91.544,242.766z"/>
				</g>
			</g>
			<g>
				<g>
					<path style="fill:#FFFFFF;" d="M88.252,264.141c0.667,0,1.333,0,2,0c1.908,0,3.5-1.592,3.5-3.5s-1.592-3.5-3.5-3.5
						c-0.667,0-1.333,0-2,0c-1.908,0-3.5,1.592-3.5,3.5S86.345,264.141,88.252,264.141L88.252,264.141z"/>
				</g>
			</g>
			<g>
				<g>
					<path style="fill:#FFFFFF;" d="M94.669,202.004c-1.833,0-3.667,0-5.5,0c-1.908,0-3.5,1.592-3.5,3.5s1.592,3.5,3.5,3.5
						c1.833,0,3.667,0,5.5,0c1.908,0,3.5-1.592,3.5-3.5S96.577,202.004,94.669,202.004L94.669,202.004z"/>
				</g>
			</g>
			<g>
				<g>
					<path style="fill:#FFFFFF;" d="M114.796,218.086c-3,0-6,0-9,0c-4.514,0-4.514,7,0,7c3,0,6,0,9,0
						C119.31,225.086,119.31,218.086,114.796,218.086L114.796,218.086z"/>
				</g>
			</g>
			<g>
				<g>
					<path style="fill:#FFFFFF;" d="M121.488,206.719c-5.333,0-10.667,0-16,0c-4.514,0-4.514,7,0,7c5.333,0,10.667,0,16,0
						C126.002,213.719,126.002,206.719,121.488,206.719L121.488,206.719z"/>
				</g>
			</g>
			<g>
				<g>
					<path style="fill:#FFFFFF;" d="M131.316,217.955c-2,0-4,0-6,0c-1.908,0-3.5,1.592-3.5,3.5s1.592,3.5,3.5,3.5c2,0,4,0,6,0
						c1.908,0,3.5-1.592,3.5-3.5S133.224,217.955,131.316,217.955L131.316,217.955z"/>
				</g>
			</g>
			<g>
				<g>
					<path style="fill:#FFFFFF;" d="M117.983,211.955c-0.667,0-1.333,0-2,0c-1.908,0-3.5,1.592-3.5,3.5s1.592,3.5,3.5,3.5
						c0.667,0,1.333,0,2,0c1.908,0,3.5-1.592,3.5-3.5S119.891,211.955,117.983,211.955L117.983,211.955z"/>
				</g>
			</g>
			<g>
				<g>
					<path style="fill:#FFFFFF;" d="M103.483,217.955c2,0,4,0,6,0c1.908,0,3.5-1.592,3.5-3.5s-1.592-3.5-3.5-3.5c-2,0-4,0-6,0
						c-1.908,0-3.5,1.592-3.5,3.5S101.576,217.955,103.483,217.955L103.483,217.955z"/>
				</g>
			</g>
			<g>
				<g>
					<path style="fill:#FFFFFF;" d="M119.071,197.748c-3.722,0-7.444,0-11.166,0c-4.514,0-4.514,7,0,7c3.722,0,7.444,0,11.166,0
						C123.585,204.748,123.585,197.748,119.071,197.748L119.071,197.748z"/>
				</g>
			</g>
			<g>
				<g>
					<path style="fill:#FFFFFF;" d="M102.55,206.705c-1.083,0-2.167,0-3.25,0c-1.908,0-3.5,1.592-3.5,3.5s1.592,3.5,3.5,3.5
						c1.083,0,2.167,0,3.25,0c1.908,0,3.5-1.592,3.5-3.5S104.458,206.705,102.55,206.705L102.55,206.705z"/>
				</g>
			</g>
			<g>
				<g>
					<path style="fill:#FFFFFF;" d="M80.499,212.336c-2,0-4,0-6,0c-1.908,0-3.5,1.592-3.5,3.5s1.592,3.5,3.5,3.5c2,0,4,0,6,0
						c1.908,0,3.5-1.592,3.5-3.5S82.406,212.336,80.499,212.336L80.499,212.336z"/>
				</g>
			</g>
			<g>
				<g>
					<path style="fill:#FFFFFF;" d="M125.747,217.893c-0.667,0-1.333,0-2,0c-1.908,0-3.5,1.592-3.5,3.5s1.592,3.5,3.5,3.5
						c0.667,0,1.333,0,2,0c1.908,0,3.5-1.592,3.5-3.5S127.655,217.893,125.747,217.893L125.747,217.893z"/>
				</g>
			</g>
			<g>
				<g>
					<path style="fill:#FFFFFF;" d="M101.5,249.396c-3.278,0-6.556,0-9.833,0c-4.514,0-4.514,7,0,7c3.278,0,6.556,0,9.833,0
						C106.014,256.396,106.014,249.396,101.5,249.396L101.5,249.396z"/>
				</g>
			</g>
			<g>
				<g>
					<path style="fill:#FFFFFF;" d="M83.33,195.786c-2.735,0-5.47,0-8.206,0c-4.514,0-4.514,7,0,7c2.735,0,5.47,0,8.206,0
						C87.844,202.786,87.844,195.786,83.33,195.786L83.33,195.786z"/>
				</g>
			</g>
			<g>
				<g>
					<path style="fill:#FFFFFF;" d="M73.358,209.004c0.667,0,1.333,0,2,0c1.908,0,3.5-1.592,3.5-3.5s-1.592-3.5-3.5-3.5
						c-0.667,0-1.333,0-2,0c-1.908,0-3.5,1.592-3.5,3.5S71.45,209.004,73.358,209.004L73.358,209.004z"/>
				</g>
			</g>
			<g>
				<g>
					<path style="fill:#FFFFFF;" d="M88.528,185.73c-5.083,0-10.167,0-15.25,0c-4.514,0-4.514,7,0,7c5.083,0,10.167,0,15.25,0
						C93.042,192.73,93.042,185.73,88.528,185.73L88.528,185.73z"/>
				</g>
			</g>
			<g>
				<g>
					<path style="fill:#FFFFFF;" d="M107.488,203.042c2,0,4,0,6,0c1.908,0,3.5-1.592,3.5-3.5s-1.592-3.5-3.5-3.5c-2,0-4,0-6,0
						c-1.908,0-3.5,1.592-3.5,3.5S105.581,203.042,107.488,203.042L107.488,203.042z"/>
				</g>
			</g>
			<g>
				<g>
					<path style="fill:#FFFFFF;" d="M103.55,177.167c-0.667,0-1.333,0-2,0c-1.908,0-3.5,1.592-3.5,3.5c0,1.908,1.592,3.5,3.5,3.5
						c0.667,0,1.333,0,2,0c1.908,0,3.5-1.592,3.5-3.5C107.05,178.759,105.458,177.167,103.55,177.167L103.55,177.167z"/>
				</g>
			</g>
			<g>
				<g>
					<path style="fill:#FFFFFF;" d="M99.529,190.73c1.833,0,3.667,0,5.5,0c1.908,0,3.5-1.592,3.5-3.5s-1.592-3.5-3.5-3.5
						c-1.833,0-3.667,0-5.5,0c-1.908,0-3.5,1.592-3.5,3.5S97.622,190.73,99.529,190.73L99.529,190.73z"/>
				</g>
			</g>
			<g>
				<g>
					<path style="fill:#FFFFFF;" d="M86.075,168.78c3,0,6,0,9,0c4.514,0,4.514-7,0-7c-3,0-6,0-9,0
						C81.561,161.78,81.561,168.78,86.075,168.78L86.075,168.78z"/>
				</g>
			</g>
			<g>
				<g>
					<path style="fill:#FFFFFF;" d="M74.124,182.148c3.366,0,6.731,0,10.097,0c4.514,0,4.514-7,0-7c-3.366,0-6.731,0-10.097,0
						C69.61,175.148,69.61,182.148,74.124,182.148L74.124,182.148z"/>
				</g>
			</g>
			<g>
				<g>
					<path style="fill:#FFFFFF;" d="M73.413,156.502c2,0,4,0,6,0c1.908,0,3.5-1.592,3.5-3.5s-1.592-3.5-3.5-3.5c-2,0-4,0-6,0
						c-1.908,0-3.5,1.592-3.5,3.5S71.505,156.502,73.413,156.502L73.413,156.502z"/>
				</g>
			</g>
			<g>
				<g>
					<path style="fill:#FFFFFF;" d="M82.888,174.911c0.667,0,1.333,0,2,0c1.908,0,3.5-1.592,3.5-3.5s-1.592-3.5-3.5-3.5
						c-0.667,0-1.333,0-2,0c-1.908,0-3.5,1.592-3.5,3.5S80.98,174.911,82.888,174.911L82.888,174.911z"/>
				</g>
			</g>
			<g>
				<g>
					<path style="fill:#FFFFFF;" d="M97.388,168.911c-2,0-4,0-6,0c-1.908,0-3.5,1.592-3.5,3.5s1.592,3.5,3.5,3.5c2,0,4,0,6,0
						c1.908,0,3.5-1.592,3.5-3.5S99.295,168.911,97.388,168.911L97.388,168.911z"/>
				</g>
			</g>
			<g>
				<g>
					<path style="fill:#FFFFFF;" d="M75.291,160.705c3.722,0,7.444,0,11.166,0c4.514,0,4.514-7,0-7c-3.722,0-7.444,0-11.166,0
						C70.777,153.705,70.777,160.705,75.291,160.705L75.291,160.705z"/>
				</g>
			</g>
			<g>
				<g>
					<path style="fill:#FFFFFF;" d="M98.321,180.161c1.083,0,2.167,0,3.25,0c1.908,0,3.5-1.592,3.5-3.5s-1.592-3.5-3.5-3.5
						c-1.083,0-2.167,0-3.25,0c-1.908,0-3.5,1.592-3.5,3.5S96.413,180.161,98.321,180.161L98.321,180.161z"/>
				</g>
			</g>
			<g>
				<g>
					<path style="fill:#FFFFFF;" d="M87.778,189.453c2,0,4,0,6,0c1.908,0,3.5-1.592,3.5-3.5s-1.592-3.5-3.5-3.5c-2,0-4,0-6,0
						c-1.908,0-3.5,1.592-3.5,3.5S85.87,189.453,87.778,189.453L87.778,189.453z"/>
				</g>
			</g>
			<g>
				<g>
					<path style="fill:#FFFFFF;" d="M74.124,168.975c0.667,0,1.333,0,2,0c1.908,0,3.5-1.592,3.5-3.5s-1.592-3.5-3.5-3.5
						c-0.667,0-1.333,0-2,0c-1.908,0-3.5,1.592-3.5,3.5S72.216,168.975,74.124,168.975L74.124,168.975z"/>
				</g>
			</g>
			<g>
				<g>
					<path style="fill:#FFFFFF;" d="M99.28,198.786c3.278,0,6.556,0,9.833,0c4.514,0,4.514-7,0-7c-3.278,0-6.556,0-9.833,0
						C94.766,191.786,94.766,198.786,99.28,198.786L99.28,198.786z"/>
				</g>
			</g>
			<g>
				<g>
					<path style="fill:#FFFFFF;" d="M88.863,204.667c3.278,0,6.556,0,9.833,0c4.514,0,4.514-7,0-7c-3.278,0-6.556,0-9.833,0
						C84.349,197.667,84.349,204.667,88.863,204.667L88.863,204.667z"/>
				</g>
			</g>
			<g>
				<g>
					<path style="fill:#FFFFFF;" d="M117.927,252.806c-2,0-4,0-6,0c-1.908,0-3.5,1.592-3.5,3.5s1.592,3.5,3.5,3.5c2,0,4,0,6,0
						c1.908,0,3.5-1.592,3.5-3.5S119.835,252.806,117.927,252.806L117.927,252.806z"/>
				</g>
			</g>
			<g>
				<g>
					<path style="fill:#FFFFFF;" d="M178.21,252.806c-3.722,0-7.444,0-11.166,0c-4.514,0-4.514,7,0,7c3.722,0,7.444,0,11.166,0
						C182.725,259.806,182.725,252.806,178.21,252.806L178.21,252.806z"/>
				</g>
			</g>
			<g>
				<g>
					<path style="fill:#FFFFFF;" d="M136.552,251.181c-3.278,0-6.556,0-9.833,0c-4.514,0-4.514,7,0,7c3.278,0,6.556,0,9.833,0
						C141.066,258.181,141.066,251.181,136.552,251.181L136.552,251.181z"/>
				</g>
			</g>
			<g>
				<g>
					<path style="fill:#FFFFFF;" d="M133.497,264.062c0.667,0,1.333,0,2,0c1.908,0,3.5-1.592,3.5-3.5s-1.592-3.5-3.5-3.5
						c-0.667,0-1.333,0-2,0c-1.908,0-3.5,1.592-3.5,3.5S131.589,264.062,133.497,264.062L133.497,264.062z"/>
				</g>
			</g>
			<g>
				<g>
					<path style="fill:#FFFFFF;" d="M166.627,258.1c2,0,4,0,6,0c1.908,0,3.5-1.592,3.5-3.5s-1.592-3.5-3.5-3.5c-2,0-4,0-6,0
						c-1.908,0-3.5,1.592-3.5,3.5S164.72,258.1,166.627,258.1L166.627,258.1z"/>
				</g>
			</g>
			<g>
				<g>
					<path style="fill:#FFFFFF;" d="M148.002,259.725c3.278,0,6.556,0,9.833,0c4.514,0,4.514-7,0-7c-3.278,0-6.556,0-9.833,0
						C143.488,252.725,143.488,259.725,148.002,259.725L148.002,259.725z"/>
				</g>
			</g>
			<g>
				<g>
					<path style="fill:#FFFFFF;" d="M151.058,246.844c-0.667,0-1.333,0-2,0c-1.908,0-3.5,1.592-3.5,3.5s1.592,3.5,3.5,3.5
						c0.667,0,1.333,0,2,0c1.908,0,3.5-1.592,3.5-3.5S152.965,246.844,151.058,246.844L151.058,246.844z"/>
				</g>
			</g>
			<g>
				<g>
					<path style="fill:#FFFFFF;" d="M119.012,252.502c0.667,0,1.333,0,2,0c1.908,0,3.5-1.592,3.5-3.5s-1.592-3.5-3.5-3.5
						c-0.667,0-1.333,0-2,0c-1.908,0-3.5,1.592-3.5,3.5S117.104,252.502,119.012,252.502L119.012,252.502z"/>
				</g>
			</g>
			<g>
				<g>
					<path style="fill:#FFFFFF;" d="M113.796,241.955c0.667,0,1.333,0,2,0c1.908,0,3.5-1.592,3.5-3.5s-1.592-3.5-3.5-3.5
						c-0.667,0-1.333,0-2,0c-1.908,0-3.5,1.592-3.5,3.5S111.888,241.955,113.796,241.955L113.796,241.955z"/>
				</g>
			</g>
			<g>
				<g>
					<path style="fill:#FFFFFF;" d="M191.164,278.723c0.667,0,1.333,0,2,0c1.908,0,3.5-1.592,3.5-3.5s-1.592-3.5-3.5-3.5
						c-0.667,0-1.333,0-2,0c-1.908,0-3.5,1.592-3.5,3.5S189.256,278.723,191.164,278.723L191.164,278.723z"/>
				</g>
			</g>
			<g>
				<g>
					<path style="fill:#FFFFFF;" d="M219.209,282.203c0.667,0,1.333,0,2,0c1.908,0,3.5-1.592,3.5-3.5s-1.592-3.5-3.5-3.5
						c-0.667,0-1.333,0-2,0c-1.908,0-3.5,1.592-3.5,3.5S217.301,282.203,219.209,282.203L219.209,282.203z"/>
				</g>
			</g>
			<g>
				<g>
					<path style="fill:#FFFFFF;" d="M261.833,284.786c0.667,0,1.333,0,2,0c1.908,0,3.5-1.592,3.5-3.5s-1.592-3.5-3.5-3.5
						c-0.667,0-1.333,0-2,0c-1.908,0-3.5,1.592-3.5,3.5S259.925,284.786,261.833,284.786L261.833,284.786z"/>
				</g>
			</g>
			<g>
				<g>
					<path style="fill:#FFFFFF;" d="M242.737,284.786c0.667,0,1.333,0,2,0c1.908,0,3.5-1.592,3.5-3.5s-1.592-3.5-3.5-3.5
						c-0.667,0-1.333,0-2,0c-1.908,0-3.5,1.592-3.5,3.5S240.829,284.786,242.737,284.786L242.737,284.786z"/>
				</g>
			</g>
			<g>
				<g>
					<path style="fill:#FFFFFF;" d="M75.778,269.874c-0.667,0-1.333,0-2,0c-1.908,0-3.5,1.592-3.5,3.5s1.592,3.5,3.5,3.5
						c0.667,0,1.333,0,2,0c1.908,0,3.5-1.592,3.5-3.5S77.686,269.874,75.778,269.874L75.778,269.874z"/>
				</g>
			</g>
			<g>
				<g>
					<path style="fill:#FFFFFF;" d="M71.778,148.971c3.364-0.153,11.14-0.341,13.823,2.287c2.902,2.843,5.128,6.371,7.78,9.44
						c2.522,2.919,5.99,3.948,8.042,7.538c2.875,5.029,5.186,10.398,7.639,15.64c1.917,4.095,3.658,8.752,6.764,12.108
						c1.149,1.243,3.012,1.564,4.472,2.256c2.778,1.316,4.735,6.612,5.564,9.383c0.735,2.459,0.862,4.71,2.328,6.91
						c2.585,3.881,6.626,6.949,11.017,8.381c3.279,1.069,6.237,1.526,8.761,4.176c1.92,2.017,3.58,4.313,5.262,6.521
						c2.968,3.9,5.745,8.453,9.368,11.794c2.83,2.609,7.216,3.995,10.666,5.542c1.879,0.843,3.761,1.68,5.594,2.619
						c2.716,1.392,4.092,4.493,5.631,6.983c2.29,3.703,4.469,7.788,7.207,11.173c3.024,3.739,8.318,2.521,12.398,2.031
						c7.37-0.887,13.958,3.001,21.053,4.31c2.884,0.532,5.642,1.482,8.568,1.813c3.193,0.361,6.58-0.176,9.752-0.527
						c15.3-1.696,31.29-1.162,46.603,0.413c1.924,0.198,1.904-2.804,0-3c-16.432-1.69-33.114-1.739-49.518-0.106
						c-13.73,1.367-25.612-7.347-39.229-5.554c-3.734,0.492-6.421,0.2-8.701-3.118c-1.385-2.016-2.377-4.291-3.684-6.358
						c-2.163-3.419-4.426-8.104-7.946-10.307c-3.611-2.258-7.875-3.659-11.714-5.487c-4.998-2.381-7.561-5.919-10.872-10.303
						c-2.879-3.812-5.659-7.77-8.96-11.235c-1.508-1.583-3.491-2.446-5.504-3.174c-4.131-1.493-7.167-2.141-10.581-5.294
						c-5.689-5.254-4.046-14.923-10.671-19.562c-2.4-1.681-4.46-1.657-6.297-4.417c-1.207-1.813-2.083-3.93-3.031-5.884
						c-2.591-5.335-4.989-10.762-7.658-16.061c-1.904-3.78-3.587-6.581-7.044-9.051c-3.018-2.155-4.914-4.4-7.242-7.343
						c-1.568-1.983-3.411-5.075-5.934-5.952c-4.1-1.426-9.418-1.78-13.704-1.585C69.852,146.058,69.843,149.059,71.778,148.971
						L71.778,148.971z"/>
				</g>
			</g>
			<g>
				<g>
					<path style="fill:#FFFFFF;" d="M234.834,291.82c0.667,0,1.333,0,2,0c1.908,0,3.5-1.592,3.5-3.5s-1.592-3.5-3.5-3.5
						c-0.667,0-1.333,0-2,0c-1.908,0-3.5,1.592-3.5,3.5S232.926,291.82,234.834,291.82L234.834,291.82z"/>
				</g>
			</g>
			<g>
				<g>
					<path style="fill:#FFFFFF;" d="M286.583,291.82c0.667,0,1.333,0,2,0c1.908,0,3.5-1.592,3.5-3.5s-1.592-3.5-3.5-3.5
						c-0.667,0-1.333,0-2,0c-1.908,0-3.5,1.592-3.5,3.5S284.675,291.82,286.583,291.82L286.583,291.82z"/>
				</g>
			</g>
			<g>
				<g>
					<path style="fill:#FFFFFF;" d="M278.083,285.584c3.458,0,6.917,0,10.375,0c4.514,0,4.514-7,0-7c-3.458,0-6.917,0-10.375,0
						C273.569,278.584,273.569,285.584,278.083,285.584L278.083,285.584z"/>
				</g>
			</g>
		</g>
	</g>
	<g>
		<g>
			<path style="fill:#FFFFFF;" d="M194.916,267.621c31.679,0,63.356,0,95.035,0c1.935,0,1.935-3,0-3c-31.679,0-63.356,0-95.035,0
				C192.981,264.621,192.981,267.621,194.916,267.621L194.916,267.621z"/>
		</g>
	</g>
	<g>
		<g>
			<path style="fill:#FFFFFF;" d="M187.001,255.197c34.316,0,68.634,0,102.95,0c1.935,0,1.935-3,0-3c-34.316,0-68.634,0-102.95,0
				C185.066,252.197,185.066,255.197,187.001,255.197L187.001,255.197z"/>
		</g>
	</g>
	<g>
		<g>
			<path style="fill:#FFFFFF;" d="M166.251,242.775c41.233,0,82.467,0,123.7,0c1.935,0,1.935-3,0-3c-41.233,0-82.467,0-123.7,0
				C164.316,239.775,164.316,242.775,166.251,242.775L166.251,242.775z"/>
		</g>
	</g>
	<g>
		<g>
			<path style="fill:#FFFFFF;" d="M157.001,230.352c44.316,0,88.634,0,132.95,0c1.935,0,1.935-3,0-3c-44.316,0-88.634,0-132.95,0
				C155.066,227.352,155.066,230.352,157.001,230.352L157.001,230.352z"/>
		</g>
	</g>
	<g>
		<g>
			<path style="fill:#FFFFFF;" d="M140.331,217.929c48.164,0,96.327,0,144.49,0c1.71,0,3.421,0,5.131,0c1.935,0,1.935-3,0-3
				c-48.163,0-96.326,0-144.49,0c-1.71,0-3.42,0-5.131,0C138.396,214.929,138.396,217.929,140.331,217.929L140.331,217.929z"/>
		</g>
	</g>
	<g>
		<g>
			<path style="fill:#FFFFFF;" d="M134.331,205.506c48.907,0,97.813,0,146.719,0c2.967,0,5.935,0,8.901,0c1.935,0,1.935-3,0-3
				c-48.906,0-97.813,0-146.719,0c-2.967,0-5.934,0-8.901,0C132.396,202.506,132.396,205.506,134.331,205.506L134.331,205.506z"/>
		</g>
	</g>
	<g>
		<g>
			<path style="fill:#FFFFFF;" d="M134.331,193.082c48.907,0,97.813,0,146.719,0c2.967,0,5.935,0,8.901,0c1.935,0,1.935-3,0-3
				c-48.906,0-97.813,0-146.719,0c-2.967,0-5.934,0-8.901,0C132.396,190.082,132.396,193.082,134.331,193.082L134.331,193.082z"/>
		</g>
	</g>
	<g>
		<g>
			<g>
				<path style="fill:#FFFFFF;" d="M135.736,180.659c48.741,0,97.481,0,146.223,0c2.664,0,5.328,0,7.992,0c1.935,0,1.935-3,0-3
					c-48.741,0-97.481,0-146.223,0c-2.664,0-5.328,0-7.992,0C133.802,177.659,133.802,180.659,135.736,180.659L135.736,180.659z"/>
			</g>
		</g>
		<g>
			<g>
				<path style="fill:#FFFFFF;" d="M112.641,180.659c0.331,0,0.662,0,0.993,0c1.935,0,1.935-3,0-3c-0.331,0-0.662,0-0.993,0
					C110.707,177.659,110.707,180.659,112.641,180.659L112.641,180.659z"/>
			</g>
		</g>
	</g>
	<g>
		<g>
			<g>
				<path style="fill:#FFFFFF;" d="M137.833,168.236c48.473,0,96.945,0,145.417,0c2.234,0,4.468,0,6.701,0c1.935,0,1.935-3,0-3
					c-48.473,0-96.945,0-145.417,0c-2.233,0-4.467,0-6.701,0C135.898,165.236,135.898,168.236,137.833,168.236L137.833,168.236z"/>
			</g>
		</g>
		<g>
			<g>
				<path style="fill:#FFFFFF;" d="M107.137,168.236c1.886,0,3.773,0,5.659,0c1.935,0,1.935-3,0-3c-1.886,0-3.773,0-5.659,0
					C105.202,165.236,105.202,168.236,107.137,168.236L107.137,168.236z"/>
			</g>
		</g>
	</g>
	<g>
		<g>
			<g>
				<path style="fill:#FFFFFF;" d="M140.058,155.813c48.251,0,96.502,0,144.753,0c1.714,0,3.427,0,5.141,0c1.935,0,1.935-3,0-3
					c-48.251,0-96.502,0-144.753,0c-1.714,0-3.427,0-5.141,0C138.123,152.813,138.123,155.813,140.058,155.813L140.058,155.813z"/>
			</g>
		</g>
		<g>
			<g>
				<path style="fill:#FFFFFF;" d="M96.218,155.813c5.298,0,10.596,0,15.894,0c1.935,0,1.935-3,0-3c-5.298,0-10.596,0-15.894,0
					C94.283,152.813,94.283,155.813,96.218,155.813L96.218,155.813z"/>
			</g>
		</g>
		<g>
			<g>
				<path style="fill:#FFFFFF;" d="M122.935,156.184c1.378,0,2.756,0,4.134,0c1.935,0,1.935-3,0-3c-1.378,0-2.756,0-4.134,0
					C121,153.184,121,156.184,122.935,156.184L122.935,156.184z"/>
			</g>
		</g>
	</g>
	<g style="display:none;">
		<g style="display:inline;">
			<g>
				<path style="fill:#FFFFFF;" d="M261.685,173.355c-4.352,1.65-8.703,3.3-13.054,4.95c0.665-0.252-3.157-2.001-3.673-2.237
					c-2.162-0.986-4.394-1.818-6.628-2.62c-5.126-1.837-10.443-3.161-15.828-3.944c-10.096-1.469-21.109,0.399-30.53,4.126
					c-6.21,2.456-13.511,6.927-13.949,14.307c-0.424,7.141,8.192,11.818,13.591,14.156c9.293,4.024,20.824,5.738,30.864,4.278
					c9.073-1.319,18.244-4.111,26.34-8.469c-0.368-0.29-0.386-0.354-0.053-0.191c0.478,0.181,0.954,0.361,1.432,0.542
					c1.624,0.616,3.249,1.232,4.874,1.849c2.205,0.836,4.409,1.672,6.614,2.508c0.927,0.352,1.898-0.541,1.898-1.446
					c0-8.787,0-17.575,0-26.362c0-1.935-3-1.935-3,0c0,8.787,0,17.575,0,26.362c0.633-0.482,1.266-0.964,1.898-1.446
					c-4.024-1.526-8.05-3.053-12.074-4.579c-1.749-0.663-2.262-0.279-3.982,0.646c-4.142,2.229-8.686,3.753-13.169,5.127
					c-9.95,3.05-19.679,3.512-29.911,1.588c-7.228-1.359-21.771-5.294-22.322-14.563c-0.514-8.656,14.643-12.755,20.697-14.214
					c10.707-2.58,21.13-1.782,31.601,1.253c4.196,1.216,8.308,2.782,12.243,4.674c1.573,0.756,2.718,1.982,4.451,1.325
					c4.156-1.576,8.312-3.152,12.467-4.728C264.272,175.569,263.496,172.668,261.685,173.355z"/>
			</g>
		</g>
		<g style="display:inline;">
			<g>
				<path style="fill:#FFFFFF;" d="M201.709,180.615c0.023-0.206,0.029-0.115-0.362-0.115c-0.455,0-0.909,0-1.364,0
					c-0.478,0-0.955,0-1.434,0c-0.16,0-0.32,0-0.48,0c-0.284,0-0.086-0.041-0.068,0.115c0.021,0.178-0.072,0.115,0.362,0.115
					c0.455,0,0.909,0,1.364,0c0.478,0,0.955,0,1.434,0c0.16,0,0.32,0,0.48,0C201.925,180.73,201.727,180.771,201.709,180.615
					c0.219,1.898,3.222,1.92,3,0c-0.169-1.468-1.008-2.668-2.567-2.848c-0.713-0.082-1.442-0.037-2.159-0.037
					c-0.699,0-1.398,0-2.098,0c-1.697,0-2.706,1.332-2.885,2.885c-0.167,1.448,1.257,2.697,2.567,2.849
					c0.712,0.081,1.442,0.036,2.159,0.036c0.699,0,1.398,0,2.098,0c1.697,0,2.706-1.332,2.885-2.885
					C204.93,178.695,201.928,178.717,201.709,180.615z"/>
			</g>
		</g>
		<g style="display:inline;">
			<g>
				<path style="fill:#FFFFFF;" d="M208.875,171.573c1.742-1.445,3.484-2.89,5.227-4.334c0.652-0.541-1.443,0.163,0.266,0.013
					c1.035-0.091,2.07-0.182,3.105-0.273c4.501-0.396,9.001-0.792,13.502-1.188c-0.354-0.854-0.707-1.707-1.061-2.561
					c-1.62,1.536-3.24,3.073-4.859,4.609c-0.34,0.322-0.68,0.644-1.019,0.966c-0.887,0.841-0.623,0.208,0.312,0.208
					c-0.677,0-1.353,0-2.028,0c-4.835,0-9.67,0-14.505,0c-1.935,0-1.935,3,0,3c5.034,0,10.068,0,15.103,0
					c3.844,0,6.482-4.162,9.118-6.662c0.899-0.853,0.264-2.677-1.061-2.561c-4.982,0.438-9.965,0.877-14.946,1.315
					c-4.142,0.364-6.047,2.669-9.274,5.347C205.264,170.688,207.397,172.798,208.875,171.573z"/>
			</g>
		</g>
		<g style="display:inline;">
			<g>
				<path style="fill:#FFFFFF;" d="M210.597,206.372c2.295,2.13,3.905,4.432,7.07,4.743c4.114,0.405,8.229,0.812,12.343,1.217
					c1.38,0.136,1.88-1.69,1.061-2.561c-1.829-1.942-4.144-5.96-7.038-5.96c-4.125,0-8.25,0-12.375,0c-1.935,0-1.935,3,0,3
					c3.832,0,7.663,0,11.495,0c0.536,0,1.071,0,1.607,0c-0.941-0.529-1.202-0.597-0.784-0.202c0.327,0.348,0.654,0.695,0.981,1.043
					c1.331,1.414,2.661,2.827,3.992,4.24c0.354-0.854,0.707-1.707,1.061-2.561c-3.566-0.352-7.132-0.703-10.698-1.055
					c-0.82-0.081-1.641-0.162-2.461-0.242c-1.496-0.147,0.557,0.568,0.056,0.104c-1.396-1.296-2.792-2.592-4.188-3.888
					C211.303,202.937,209.176,205.054,210.597,206.372z"/>
			</g>
		</g>
	</g>
	<g style="display:none;">
		<g style="display:inline;">
			<g>
				<path style="fill:#FFFFFF;" d="M277.989,267.609c3.969,0,7.938,0,11.906,0c1.935,0,1.935-3,0-3c-3.969,0-7.938,0-11.906,0
					C276.055,264.609,276.055,267.609,277.989,267.609L277.989,267.609z"/>
			</g>
		</g>
		<g style="display:inline;">
			<g>
				<path style="fill:#FFFFFF;" d="M277.989,255.187c3.969,0,7.938,0,11.906,0c1.935,0,1.935-3,0-3c-3.969,0-7.938,0-11.906,0
					C276.055,252.187,276.055,255.187,277.989,255.187L277.989,255.187z"/>
			</g>
		</g>
		<g style="display:inline;">
			<g>
				<path style="fill:#FFFFFF;" d="M277.989,242.764c3.969,0,7.938,0,11.906,0c1.935,0,1.935-3,0-3c-3.969,0-7.938,0-11.906,0
					C276.055,239.764,276.055,242.764,277.989,242.764L277.989,242.764z"/>
			</g>
		</g>
		<g style="display:inline;">
			<g>
				<path style="fill:#FFFFFF;" d="M277.989,230.34c3.969,0,7.938,0,11.906,0c1.935,0,1.935-3,0-3c-3.969,0-7.938,0-11.906,0
					C276.055,227.34,276.055,230.34,277.989,230.34L277.989,230.34z"/>
			</g>
		</g>
		<g style="display:inline;">
			<g>
				<path style="fill:#FFFFFF;" d="M273.083,217.918c5.604,0,11.208,0,16.813,0c1.935,0,1.935-3,0-3c-5.604,0-11.208,0-16.813,0
					C271.148,214.918,271.148,217.918,273.083,217.918L273.083,217.918z"/>
			</g>
		</g>
		<g style="display:inline;">
			<g>
				<path style="fill:#FFFFFF;" d="M277.989,205.494c3.969,0,7.938,0,11.906,0c1.935,0,1.935-3,0-3c-3.969,0-7.938,0-11.906,0
					C276.055,202.494,276.055,205.494,277.989,205.494L277.989,205.494z"/>
			</g>
		</g>
		<g style="display:inline;">
			<g>
				<path style="fill:#FFFFFF;" d="M277.989,193.071c3.969,0,7.938,0,11.906,0c1.935,0,1.935-3,0-3c-3.969,0-7.938,0-11.906,0
					C276.055,190.071,276.055,193.071,277.989,193.071L277.989,193.071z"/>
			</g>
		</g>
		<g style="display:inline;">
			<g>
				<path style="fill:#FFFFFF;" d="M277.989,180.648c3.969,0,7.938,0,11.906,0c1.935,0,1.935-3,0-3c-3.969,0-7.938,0-11.906,0
					C276.055,177.648,276.055,180.648,277.989,180.648L277.989,180.648z"/>
			</g>
		</g>
		<g style="display:inline;">
			<g>
				<path style="fill:#FFFFFF;" d="M277.989,168.225c3.969,0,7.938,0,11.906,0c1.935,0,1.935-3,0-3c-3.969,0-7.938,0-11.906,0
					C276.055,165.225,276.055,168.225,277.989,168.225L277.989,168.225z"/>
			</g>
		</g>
		<g style="display:inline;">
			<g>
				<path style="fill:#FFFFFF;" d="M273.083,155.802c5.604,0,11.208,0,16.813,0c1.935,0,1.935-3,0-3c-5.604,0-11.208,0-16.813,0
					C271.148,152.802,271.148,155.802,273.083,155.802L273.083,155.802z"/>
			</g>
		</g>
	</g>
</g>
<g id="Ebene_1">
</g>
</svg>
