<?xml version="1.0" encoding="iso-8859-1"?>
<!-- Generator: Adobe Illustrator 16.0.0, SVG Export Plug-In . SVG Version: 6.00 Build 0)  -->
<!DOCTYPE svg PUBLIC "-//W3C//DTD SVG 1.1//EN" "http://www.w3.org/Graphics/SVG/1.1/DTD/svg11.dtd">
<svg version="1.1" xmlns="http://www.w3.org/2000/svg" xmlns:xlink="http://www.w3.org/1999/xlink" x="0px" y="0px" width="361px"
	 height="361px" viewBox="0 0 361 361" style="enable-background:new 0 0 361 361;" xml:space="preserve">
<g id="measure_x5F_power">
	<g>
		<g>
			<path style="fill:#FFFFFF;" d="M217.758,155.067c9.332-2.266,18.467-3.4,27.4-3.4c6.932,0,13.231,0.834,18.9,2.5
				c5.666,1.669,10.531,4.269,14.6,7.8c4.066,3.535,7.2,8.1,9.4,13.7c2.199,5.6,3.3,12.334,3.3,20.2c0,8-1.134,14.834-3.399,20.5
				c-2.27,5.669-5.469,10.27-9.601,13.801c-4.134,3.533-9.101,6.1-14.899,7.699c-5.801,1.6-12.234,2.4-19.301,2.4h-8.4v51.4h-18
				V155.067z M235.758,224.467h7.201c4.531,0,8.631-0.5,12.299-1.5c3.666-1,6.766-2.631,9.301-4.899c2.531-2.266,4.465-5.2,5.8-8.8
				c1.331-3.6,2-8.066,2-13.4c0-5.331-0.669-9.831-2-13.5c-1.335-3.666-3.169-6.6-5.5-8.8c-2.335-2.2-5.169-3.766-8.5-4.7
				c-3.335-0.932-7-1.4-11-1.4c-3.469,0-6.669,0.2-9.601,0.6V224.467z"/>
		</g>
		<g>
			<g>
				<path style="fill:#FFFFFF;" d="M80.49,77.167c48.841,0,97.682,0,146.523,0c20.347,0,40.692,0,61.038,0c4.514,0,4.514-7,0-7
					c-48.841,0-97.683,0-146.523,0c-20.346,0-40.692,0-61.038,0C75.976,70.167,75.976,77.167,80.49,77.167L80.49,77.167z"/>
			</g>
		</g>
		<g>
			<g>
				<path style="fill:#FFFFFF;" d="M80.49,86.119c6.892,0,13.785,0,20.677,0c4.514,0,4.514-7,0-7c-6.892,0-13.785,0-20.677,0
					C75.976,79.119,75.976,86.119,80.49,86.119L80.49,86.119z"/>
			</g>
		</g>
		<g>
			<g>
				<path style="fill:#FFFFFF;" d="M117.867,86.119c6.892,0,13.785,0,20.677,0c4.514,0,4.514-7,0-7c-6.892,0-13.785,0-20.677,0
					C113.353,79.119,113.353,86.119,117.867,86.119L117.867,86.119z"/>
			</g>
		</g>
		<g>
			<g>
				<path style="fill:#FFFFFF;" d="M155.244,86.119c6.892,0,13.785,0,20.677,0c4.514,0,4.514-7,0-7c-6.892,0-13.785,0-20.677,0
					C150.729,79.119,150.729,86.119,155.244,86.119L155.244,86.119z"/>
			</g>
		</g>
		<g>
			<g>
				<path style="fill:#FFFFFF;" d="M192.62,86.119c6.893,0,13.784,0,20.677,0c4.514,0,4.514-7,0-7c-6.893,0-13.784,0-20.677,0
					C188.106,79.119,188.106,86.119,192.62,86.119L192.62,86.119z"/>
			</g>
		</g>
		<g>
			<g>
				<path style="fill:#FFFFFF;" d="M229.997,86.119c6.893,0,13.784,0,20.677,0c4.514,0,4.514-7,0-7c-6.893,0-13.784,0-20.677,0
					C225.483,79.119,225.483,86.119,229.997,86.119L229.997,86.119z"/>
			</g>
		</g>
		<g>
			<g>
				<path style="fill:#FFFFFF;" d="M69.833,71.667c0,48.178,0,96.356,0,144.534c0,24.6,0,49.199,0,73.799c0,1.935,3,1.935,3,0
					c0-48.178,0-96.356,0-144.534c0-24.6,0-49.199,0-73.799C72.833,69.732,69.833,69.732,69.833,71.667L69.833,71.667z"/>
			</g>
		</g>
		<g>
			<g>
				<path style="fill:#FFFFFF;" d="M74.333,181.667c44.736,0,89.473,0,134.209,0c0.013,0,0.026,0,0.039,0c1.935,0,1.935-3,0-3
					c-44.736,0-89.473,0-134.209,0c-0.013,0-0.026,0-0.039,0C72.398,178.667,72.398,181.667,74.333,181.667L74.333,181.667z"/>
			</g>
		</g>
		<g>
			<g>
				<path style="fill:#FFFFFF;" d="M78.171,181.765c3.006-8.949,6.538-17.749,10.296-26.404
					c6.707-15.446,14.309-31.341,25.187-44.331c3.982-4.756,8.86-9.669,15.006-11.371c5.432-1.503,10.691,1.777,14.646,5.175
					c12.366,10.624,20.2,26.907,27.052,41.37c5.468,11.54,10.377,23.45,14.446,35.561c1.43,4.256,8.191,2.431,6.75-1.861
					c-8.249-24.553-18.895-50.42-34.936-70.921c-7.438-9.505-18.61-20.148-31.696-15.479c-13.712,4.894-22.828,20.379-29.644,32.284
					c-9.747,17.022-17.612,35.522-23.859,54.116C69.979,184.195,76.741,186.021,78.171,181.765L78.171,181.765z"/>
			</g>
		</g>
		<g>
			<g>
				<path style="fill:#FFFFFF;" d="M74.909,269.373c13.888-0.31,23.876-14.2,30.77-24.625c9.251-13.991,16.219-29.516,22.525-45.011
					c7.253-17.821,13.015-36.069,21.219-53.534c6.873-14.631,14.808-30.453,27.052-41.37c5.079-4.528,11.133-7.114,17.688-4.056
					c12.564,5.862,20.623,21.667,26.88,33.226c2.149,3.97,8.193,0.437,6.045-3.533c-8.007-14.792-24.529-45.216-45.982-36.72
					c-13.686,5.42-22.669,20.805-29.54,32.956c-10.554,18.664-17.968,38.671-25.305,58.73c-5.533,15.128-11.954,29.994-19.675,44.14
					c-4.311,7.896-9.112,15.656-15.066,22.429c-4.188,4.764-9.858,10.218-16.611,10.368
					C70.402,262.474,70.393,269.474,74.909,269.373L74.909,269.373z"/>
			</g>
		</g>
		<g>
			<g>
				<path style="fill:#FFFFFF;" d="M72.936,181.765c8.274,24.553,18.933,50.411,34.974,70.921
					c7.42,9.488,18.577,20.152,31.643,15.479c13.7-4.9,22.808-20.387,29.623-32.283c10.743-18.751,18.331-38.924,25.68-59.163
					c4.954-13.644,10.662-27.042,17.322-39.941c6.616-12.814,15.036-29.207,28.473-36.063c6.296-3.213,12.572-0.1,17.559,4.122
					c8.859,7.5,14.986,18.29,20.481,28.336c2.167,3.96,8.212,0.429,6.045-3.533c-8.192-14.977-24.848-44.89-46.371-35.535
					c-13.518,5.875-22.373,21.27-29.22,33.527c-10.374,18.574-17.664,38.42-24.974,58.312c-5.131,13.961-11.032,27.673-17.977,40.83
					c-3.98,7.539-8.369,14.983-13.629,21.709c-3.934,5.029-8.787,10.518-14.873,12.934c-12.626,5.011-23.667-11.509-29.414-20.2
					c-9.219-13.942-16.225-29.42-22.445-44.891c-2.179-5.419-4.281-10.885-6.147-16.421
					C78.252,175.649,71.49,177.475,72.936,181.765L72.936,181.765z"/>
			</g>
		</g>
		<g>
			<g>
				<path style="fill:#FFFFFF;" d="M267.374,86.119c6.893,0,13.784,0,20.677,0c4.514,0,4.514-7,0-7c-6.893,0-13.784,0-20.677,0
					C262.86,79.119,262.86,86.119,267.374,86.119L267.374,86.119z"/>
			</g>
		</g>
	</g>
</g>
<g id="Ebene_1">
</g>
</svg>
