<?xml version="1.0" encoding="iso-8859-1"?>
<!-- Generator: Adobe Illustrator 16.0.0, SVG Export Plug-In . SVG Version: 6.00 Build 0)  -->
<!DOCTYPE svg PUBLIC "-//W3C//DTD SVG 1.1 Tiny//EN" "http://www.w3.org/Graphics/SVG/1.1/DTD/svg11-tiny.dtd">
<svg version="1.1" baseProfile="tiny" id="message_x5F_notice"
	 xmlns="http://www.w3.org/2000/svg" xmlns:xlink="http://www.w3.org/1999/xlink" x="0px" y="0px" width="361px" height="361px"
	 viewBox="0 0 361 361" xml:space="preserve">
<g>
	<g>
		<path fill="#FFFFFF" d="M108.314,118.211c45.801,0,91.603,0,137.404,0c0.199,0,0.398,0,0.597,0c6.449,0,6.449-10,0-10
			c-45.801,0-91.603,0-137.404,0c-0.199,0-0.398,0-0.597,0C101.865,108.211,101.865,118.211,108.314,118.211L108.314,118.211z"/>
	</g>
	<g>
		<path fill="#FFFFFF" d="M108.314,141.323c45.801,0,91.603,0,137.404,0c0.199,0,0.398,0,0.597,0c6.449,0,6.449-10,0-10
			c-45.801,0-91.603,0-137.404,0c-0.199,0-0.398,0-0.597,0C101.865,131.323,101.865,141.323,108.314,141.323L108.314,141.323z"/>
	</g>
	<g>
		<path fill="#FFFFFF" d="M108.314,164.434c45.801,0,91.603,0,137.404,0c0.199,0,0.398,0,0.597,0c6.449,0,6.449-10,0-10
			c-45.801,0-91.603,0-137.404,0c-0.199,0-0.398,0-0.597,0C101.865,154.434,101.865,164.434,108.314,164.434L108.314,164.434z"/>
	</g>
	<g>
		<path fill="#FFFFFF" d="M108.314,187.545c23,0,46,0,69,0c6.449,0,6.449-10,0-10c-23,0-46,0-69,0
			C101.865,177.545,101.865,187.545,108.314,187.545L108.314,187.545z"/>
	</g>
</g>
<g>
	<path fill="#FFFFFF" d="M258.225,72.981c-49.377,0-98.754,0-148.132,0c-7.991,0-16.426-0.756-23.975,2.324
		c-10.101,4.122-17.324,13.512-18.742,24.32c-0.46,3.504-0.315,7.06-0.315,10.588c0,26.499,0,52.997,0,79.496
		c0,17.464,13.074,31.397,30.677,31.856c7.887,0.206,15.807,0,23.695,0c22.947,0,45.893,0,68.84,0
		c-1.179-0.488-2.357-0.976-3.536-1.464c20.531,24.181,41.063,48.362,61.593,72.544c3.619,4.262,9.017-0.485,8.357-4.865
		c-3.644-24.182-7.287-48.363-10.931-72.544c-1.607,2.11-3.214,4.219-4.821,6.329c5.738,0,11.476,0,17.213,0
		c10.76,0,20.23-5.628,26.121-14.466c6.291-9.438,4.631-22.364,4.631-33.157c0-15.791,0-31.582,0-47.373
		c0-9.932,1.291-21.086-1.039-30.856C284.638,82.186,271.67,73.332,258.225,72.981c-6.453-0.168-6.436,9.832,0,10
		c11.505,0.3,20.377,9.173,20.678,20.678c0.072,2.769,0,5.549,0,8.318c0,14.906,0,29.813,0,44.718c0,11.22,0,22.44,0,33.66
		c0,8.575-4.854,16.443-12.912,19.731c-6.562,2.678-15.046,1.479-21.969,1.479c-1.028,0-2.056,0-3.084,0
		c-3.542,0-5.297,3.172-4.821,6.329c3.644,24.182,7.287,48.363,10.931,72.544c2.786-1.622,5.571-3.243,8.357-4.865
		c-16.079-18.937-32.157-37.874-48.235-56.811c-3.559-4.191-7.118-8.383-10.676-12.574c-1.802-2.123-3.287-4.624-6.443-4.624
		c-10.273,0-20.547,0-30.821,0c-15.614,0-31.228,0-46.842,0c-11.15,0-23.759,1.799-31.35-8.451
		c-6.138-8.287-3.974-21.956-3.974-31.659c0-15.837,0-31.675,0-47.512c0-9.828-1.982-22.658,3.266-31.45
		c5.839-9.782,16.318-9.513,26.092-9.513c28.33,0,56.66,0,84.99,0c22.271,0,44.543,0,66.814,0
		C264.673,82.981,264.673,72.981,258.225,72.981z"/>
</g>
</svg>
