<?xml version="1.0" encoding="iso-8859-1"?>
<!-- Generator: Adobe Illustrator 16.0.0, SVG Export Plug-In . SVG Version: 6.00 Build 0)  -->
<!DOCTYPE svg PUBLIC "-//W3C//DTD SVG 1.1 Tiny//EN" "http://www.w3.org/Graphics/SVG/1.1/DTD/svg11-tiny.dtd">
<svg version="1.1" baseProfile="tiny" id="message_x5F_presence"
	 xmlns="http://www.w3.org/2000/svg" xmlns:xlink="http://www.w3.org/1999/xlink" x="0px" y="0px" width="361px" height="361px"
	 viewBox="0 0 361 361" xml:space="preserve">
<path fill="none" stroke="#FFFFFF" stroke-width="10" stroke-miterlimit="10" d="M216.606,93.618c0,1.566-1.271,2.835-2.837,2.835
	H142.86c-1.567,0-2.836-1.27-2.836-2.835V80.381c0-1.566,1.27-2.836,2.836-2.836h70.909c1.566,0,2.837,1.271,2.837,2.836V93.618z"/>
<g>
	<path fill="#FFFFFF" d="M202.602,134.812c-14.072,13.541-35.831,13.541-49.903,0c-1.394-1.341-3.518,0.778-2.121,2.121
		c15.253,14.678,38.892,14.678,54.146,0C206.119,135.589,203.995,133.47,202.602,134.812L202.602,134.812z"/>
</g>
<g>
	<path fill="#FFFFFF" d="M285.65,247.704c-28.385,28.117-66.507,44.061-106.465,44.417c-40.293,0.36-79.308-16.155-107.839-44.417
		c-1.375-1.362-3.497,0.758-2.121,2.121c28.937,28.665,67.849,44.933,108.586,45.296c41.067,0.367,80.883-16.493,109.96-45.296
		C289.147,248.462,287.025,246.342,285.65,247.704L285.65,247.704z"/>
</g>
<g>
	<path fill="#FFFFFF" d="M203.065,96.454c-0.327,13.741-11.009,24.423-24.75,24.75c-13.74,0.327-24.435-11.502-24.75-24.75
		c-0.107-4.506-7.107-4.517-7,0c0.418,17.588,14.162,31.332,31.75,31.75c17.586,0.418,31.346-14.791,31.75-31.75
		C210.172,91.937,203.172,91.947,203.065,96.454L203.065,96.454z"/>
</g>
<g>
	<path fill="#FFFFFF" d="M190.994,100.682c-0.163,7.441-3.532,17.934-12.466,18.328c-1.927,0.085-1.935,3.085,0,3
		c10.699-0.472,15.264-12.096,15.466-21.328C194.037,98.746,191.037,98.75,190.994,100.682L190.994,100.682z"/>
</g>
<g>
	<path fill="#FFFFFF" d="M162.303,100.682c0.222,9.605,5.33,20.872,16.226,21.328c1.935,0.081,1.927-2.919,0-3
		c-9.164-0.383-13.044-10.483-13.226-18.328C165.258,98.75,162.258,98.746,162.303,100.682L162.303,100.682z"/>
</g>
<g>
	<path fill="#FFFFFF" d="M176.815,100.682c0,6.613,0,13.226,0,19.838c0,1.935,3,1.935,3,0c0-6.613,0-13.226,0-19.838
		C179.815,98.747,176.815,98.747,176.815,100.682L176.815,100.682z"/>
</g>
<g>
	<path fill="#FFFFFF" d="M150.342,135.115C123.372,172.542,96.4,209.97,69.429,247.397c-0.146,0.204-0.293,0.407-0.44,0.61
		c-1.133,1.573,1.471,3.068,2.591,1.514c26.971-37.427,53.942-74.855,80.913-112.282c0.146-0.204,0.293-0.407,0.44-0.61
		C154.066,135.056,151.462,133.561,150.342,135.115L150.342,135.115z"/>
</g>
<g>
	<path fill="#FFFFFF" d="M202.367,136.629c27.465,37.335,54.93,74.669,82.395,112.004c0.218,0.296,0.436,0.592,0.653,0.888
		c1.133,1.541,3.739,0.047,2.591-1.514c-27.465-37.335-54.93-74.669-82.395-112.004c-0.218-0.296-0.436-0.592-0.653-0.888
		C203.824,133.574,201.219,135.068,202.367,136.629L202.367,136.629z"/>
</g>
</svg>
