<?xml version="1.0" encoding="iso-8859-1"?>
<!-- Generator: Adobe Illustrator 16.0.0, SVG Export Plug-In . SVG Version: 6.00 Build 0)  -->
<!DOCTYPE svg PUBLIC "-//W3C//DTD SVG 1.1 Tiny//EN" "http://www.w3.org/Graphics/SVG/1.1/DTD/svg11-tiny.dtd">
<svg version="1.1" baseProfile="tiny" id="message_x5F_light_x5F_intensity"
	 xmlns="http://www.w3.org/2000/svg" xmlns:xlink="http://www.w3.org/1999/xlink" x="0px" y="0px" width="361px" height="361px"
	 viewBox="0 0 361 361" xml:space="preserve">
<g>
	<path fill="none" stroke="#FFFFFF" stroke-width="10" stroke-miterlimit="10" d="M201.325,153.238
		c0,7.845-6.36,14.206-14.206,14.206h-18.275c-7.845,0-14.206-6.36-14.206-14.206v-17.363c0-7.846,6.36-14.206,14.206-14.206h18.275
		c7.845,0,14.206,6.36,14.206,14.206V153.238z"/>
	<g>
		<g>
			<path fill="#FFFFFF" d="M244.858,139.557c-7.764,0-15.527,0-23.291,0c-6.449,0-6.449,10,0,10c7.764,0,15.527,0,23.291,0
				C251.307,149.557,251.307,139.557,244.858,139.557L244.858,139.557z"/>
		</g>
		<g>
			<path fill="#FFFFFF" d="M182.982,100.971c0-7.764,0-15.527,0-23.291c0-6.449-10-6.449-10,0c0,7.764,0,15.527,0,23.291
				C172.982,107.42,182.982,107.42,182.982,100.971L182.982,100.971z"/>
		</g>
		<g>
			<path fill="#FFFFFF" d="M145.568,105.07c-5.49-5.489-10.979-10.979-16.469-16.469c-4.564-4.563-11.635,2.507-7.071,7.071
				c5.49,5.489,10.979,10.979,16.469,16.469C143.061,116.705,150.131,109.634,145.568,105.07L145.568,105.07z"/>
		</g>
		<g>
			<path fill="#FFFFFF" d="M217.468,112.142c5.489-5.49,10.979-10.979,16.469-16.469c4.563-4.564-2.507-11.635-7.071-7.071
				c-5.489,5.49-10.979,10.979-16.469,16.469C205.833,109.635,212.904,116.706,217.468,112.142L217.468,112.142z"/>
		</g>
		<g>
			<path fill="#FFFFFF" d="M182.982,211.432c0-7.764,0-15.527,0-23.291c0-6.449-10-6.449-10,0c0,7.764,0,15.527,0,23.291
				C172.982,217.881,182.982,217.881,182.982,211.432L182.982,211.432z"/>
		</g>
		<g>
			<path fill="#FFFFFF" d="M111.106,149.556c7.764,0,15.527,0,23.291,0c6.449,0,6.449-10,0-10c-7.764,0-15.527,0-23.291,0
				C104.658,139.556,104.658,149.556,111.106,149.556L111.106,149.556z"/>
		</g>
		<g>
			<path fill="#FFFFFF" d="M210.396,184.042c5.49,5.489,10.979,10.979,16.469,16.469c4.564,4.563,11.635-2.507,7.071-7.071
				c-5.49-5.489-10.979-10.979-16.469-16.469C212.904,172.407,205.833,179.478,210.396,184.042L210.396,184.042z"/>
		</g>
		<g>
			<path fill="#FFFFFF" d="M138.497,176.97c-5.489,5.49-10.979,10.979-16.469,16.469c-4.563,4.564,2.507,11.635,7.071,7.071
				c5.489-5.49,10.979-10.979,16.469-16.469C150.131,179.478,143.061,172.407,138.497,176.97L138.497,176.97z"/>
		</g>
	</g>
</g>
<g>
	<g>
		<path fill="#FFFFFF" d="M75.339,291.378c-6.657-0.767-4.169-15.327-4.169-19.041c0-6.643,0-13.286,0-19.929
			c0-7.123,11.418-5.03,15.395-5.03c26.883,0,53.766,0,80.648,0c30.165,0,60.33,0,90.495,0c7.767,0,15.533,0,23.299,0
			c3.083,0,6.163,1.649,6.163,5.393c0,6.847,0,13.694,0,20.541c0,3.016,2.263,18.066-4.176,18.066c-1.36,0-2.72,0-4.08,0
			c-8.959,0-17.917,0-26.876,0c-30.909,0-61.817,0-92.726,0C131.321,291.378,103.33,291.378,75.339,291.378c-1.935,0-1.935,3,0,3
			c48.865,0,97.729,0,146.594,0c20.056,0,40.113,0,60.169,0c11.221,0,8.067-15.739,8.067-23.022c0-6.417,0-12.833,0-19.25
			c0-4.409-3.102-7.728-7.572-7.728c-51.14,0-102.28,0-153.42,0c-17.646,0-35.293,0-52.94,0c-10.323,0-8.067,12.199-8.067,19.154
			c0,6.82,0,13.64,0,20.46c0,5.201,1.076,9.684,7.169,10.385C77.259,294.6,77.238,291.597,75.339,291.378z"/>
	</g>
	<g>
		<g>
			<path fill="#FFFFFF" d="M77.409,256.905c0,8.304,0,16.607,0,24.911c0,6.449,10,6.449,10,0c0-8.304,0-16.607,0-24.911
				C87.409,250.456,77.409,250.456,77.409,256.905L77.409,256.905z"/>
		</g>
		<g>
			<path fill="#FFFFFF" d="M92.148,256.905c0,8.304,0,16.607,0,24.911c0,6.449,10,6.449,10,0c0-8.304,0-16.607,0-24.911
				C102.148,250.456,92.148,250.456,92.148,256.905L92.148,256.905z"/>
		</g>
		<g>
			<path fill="#FFFFFF" d="M106.887,256.905c0,8.304,0,16.607,0,24.911c0,6.449,10,6.449,10,0c0-8.304,0-16.607,0-24.911
				C116.887,250.456,106.887,250.456,106.887,256.905L106.887,256.905z"/>
		</g>
		<g>
			<path fill="#FFFFFF" d="M121.626,256.905c0,8.304,0,16.607,0,24.911c0,6.449,10,6.449,10,0c0-8.304,0-16.607,0-24.911
				C131.626,250.456,121.626,250.456,121.626,256.905L121.626,256.905z"/>
		</g>
		<g>
			<path fill="#FFFFFF" d="M136.366,256.905c0,8.304,0,16.607,0,24.911c0,6.449,10,6.449,10,0c0-8.304,0-16.607,0-24.911
				C146.366,250.456,136.366,250.456,136.366,256.905L136.366,256.905z"/>
		</g>
		<g>
			<path fill="#FFFFFF" d="M151.104,256.905c0,8.304,0,16.607,0,24.911c0,6.449,10,6.449,10,0c0-8.304,0-16.607,0-24.911
				C161.104,250.456,151.104,250.456,151.104,256.905L151.104,256.905z"/>
		</g>
		<g>
			<path fill="#FFFFFF" d="M165.844,256.905c0,8.304,0,16.607,0,24.911c0,6.449,10,6.449,10,0c0-8.304,0-16.607,0-24.911
				C175.844,250.456,165.844,250.456,165.844,256.905L165.844,256.905z"/>
		</g>
		<g>
			<path fill="#FFFFFF" d="M180.583,256.905c0,8.304,0,16.607,0,24.911c0,6.449,10,6.449,10,0c0-8.304,0-16.607,0-24.911
				C190.583,250.456,180.583,250.456,180.583,256.905L180.583,256.905z"/>
		</g>
		<g>
			<path fill="#FFFFFF" d="M195.322,256.905c0,8.304,0,16.607,0,24.911c0,6.449,10,6.449,10,0c0-8.304,0-16.607,0-24.911
				C205.322,250.456,195.322,250.456,195.322,256.905L195.322,256.905z"/>
		</g>
	</g>
</g>
</svg>
