<?xml version="1.0" encoding="iso-8859-1"?>
<!-- Generator: Adobe Illustrator 16.0.0, SVG Export Plug-In . SVG Version: 6.00 Build 0)  -->
<!DOCTYPE svg PUBLIC "-//W3C//DTD SVG 1.1//EN" "http://www.w3.org/Graphics/SVG/1.1/DTD/svg11.dtd">
<svg version="1.1" xmlns="http://www.w3.org/2000/svg" xmlns:xlink="http://www.w3.org/1999/xlink" x="0px" y="0px" width="361px"
	 height="361px" viewBox="0 0 361 361" style="enable-background:new 0 0 361 361;" xml:space="preserve">
<g id="message_x5F_bell_x5F_door">
	<g style="display:none;">
		<g style="display:inline;">
			<g>
				<path style="fill:#FFFFFF;" d="M276.033,227.524c-0.264,21.84-14.327,41.07-35.273,47.551
					c-20.997,6.497-44.063-2.393-55.993-20.611c-12.03-18.37-9.941-43.151,4.399-59.6c14.372-16.485,38.711-21.485,58.468-12.16
					C264.969,190.887,275.804,208.495,276.033,227.524c0.117,9.678,15.12,9.774,15.004,0.107
					c-0.285-23.601-12.93-45.152-33.556-56.708c-20.663-11.576-46.938-10.132-66.614,2.754
					c-19.622,12.85-30.717,36.129-28.741,59.425c1.966,23.186,16.774,44.003,38.044,53.442c20.025,8.888,43.533,6.932,61.856-5.067
					c18.09-11.847,28.75-32.366,29.01-53.847C291.154,217.94,276.15,217.866,276.033,227.524z"/>
			</g>
		</g>
		<g style="display:inline;">
			<g>
				<path style="fill:#FFFFFF;" d="M191.411,273.221c26.912-26.912,53.824-53.824,80.737-80.736
					c6.835-6.835-3.813-17.403-10.666-10.551c-26.912,26.912-53.824,53.824-80.737,80.736
					C173.91,269.505,184.558,280.073,191.411,273.221L191.411,273.221z"/>
			</g>
		</g>
	</g>
	<g>
		<g>
			<path style="fill:#FFFFFF;" d="M106.147,125.746c-24.31,24.903-24.31,64.6,0,89.502c3.158,3.234,8.104-1.719,4.95-4.949
				c-21.646-22.174-21.646-57.429,0-79.603C114.251,127.465,109.305,122.512,106.147,125.746L106.147,125.746z"/>
		</g>
	</g>
	<g>
		<g>
			<path style="fill:#FFFFFF;" d="M94.006,114.561c-30.503,31.089-30.501,81.123,0.001,112.211c3.166,3.227,8.112-1.727,4.95-4.949
				c-27.838-28.372-27.839-73.939-0.001-102.312C102.119,116.287,97.172,111.334,94.006,114.561L94.006,114.561z"/>
		</g>
	</g>
	<g>
		<g>
			<path style="fill:#FFFFFF;" d="M255.827,215.588c24.31-24.904,24.312-64.6,0-89.504c-3.157-3.234-8.104,1.719-4.949,4.95
				c21.646,22.175,21.646,57.429,0,79.604C247.724,213.869,252.67,218.822,255.827,215.588L255.827,215.588z"/>
		</g>
	</g>
	<g>
		<g>
			<path style="fill:#FFFFFF;" d="M267.968,226.771c30.502-31.088,30.502-81.123,0-112.211c-3.165-3.226-8.112,1.727-4.949,4.95
				c27.836,28.372,27.837,73.939,0,102.312C259.855,225.045,264.803,229.998,267.968,226.771L267.968,226.771z"/>
		</g>
	</g>
	<g>
		<g>
			<path style="fill:#FFFFFF;" d="M209.12,197.84c0.194,7.243-7.534,5.738-12.351,5.738c-7.126,0-14.252,0-21.377,0
				c-5.848,0-11.696,0-17.544,0c-2.86,0-5.18-0.481-6.276-3.767c-0.896-2.688,0.944-7.238,1.657-9.871
				c0.843-3.117,1.924-6.172,2.999-9.215c2.004-5.676,4.18-11.284,5.948-17.041c1.464-4.765,1.766-9.789,3.372-14.483
				c1.353-3.958,3.463-8.065,6.167-11.27c1.737-2.058,4.08-1.271,6.74-1.271c2.305,0,7.58-0.85,9.326,0.142
				c3.063,1.741,5.051,7.12,6.424,10.136c1.989,4.372,2.268,9.114,3.414,13.726C200.745,173.235,207.397,184.906,209.12,197.84
				c0.587,4.407,7.595,4.464,7,0c-1.741-13.078-7.695-24.958-11.344-37.532c-1.345-4.635-1.615-9.44-3.304-13.97
				c-1.655-4.44-3.894-8.971-6.965-12.61c-3.099-3.672-5.777-4.068-10.45-4.068c-4.963,0-11.995-1.577-16.046,2.1
				c-6.804,6.175-9.339,15.446-11.036,24.07c-2.582,13.123-9.311,25.05-11.896,38.195c-1.645,8.365,2.295,16.554,11.686,16.554
				c13.583,0,27.165,0,40.747,0c2.417,0,4.835,0,7.252,0c6.908,0,11.529-6.26,11.355-12.738
				C215.999,193.335,208.999,193.323,209.12,197.84z"/>
		</g>
	</g>
	<path style="fill:none;stroke:#FFFFFF;stroke-width:10;stroke-miterlimit:10;" d="M232.824,281.167
		c0,3.407-2.712,6.167-6.058,6.167h-92.89c-3.346,0-6.058-2.76-6.058-6.167V81.071c0-3.406,2.712-6.167,6.058-6.167h92.89
		c3.346,0,6.058,2.761,6.058,6.167V281.167z"/>
	<g>
		<g>
			<path style="fill:#FFFFFF;" d="M129.818,185.922c3.333,0,6.667,0,10,0c6.449,0,6.449-10,0-10c-3.333,0-6.667,0-10,0
				C123.37,175.922,123.37,185.922,129.818,185.922L129.818,185.922z"/>
		</g>
	</g>
	<path style="fill:none;stroke:#FFFFFF;stroke-width:10;stroke-miterlimit:10;" d="M231.152,280.256c0-3.314-2.688-6-6-6h-91.334
		c-3.313,0-6,2.686-6,6v0.666c0,3.313,2.687,6,6,6h91.334c3.313,0,6-2.687,6-6V280.256z"/>
	<g>
		<g>
			<path style="fill:#FFFFFF;" d="M129.822,186.332c3.338,0,6.676,0,10.014,0c4.514,0,4.514-7,0-7c-3.338,0-6.676,0-10.014,0
				C125.308,179.332,125.308,186.332,129.822,186.332L129.822,186.332z"/>
		</g>
	</g>
</g>
<g id="Ebene_1">
</g>
</svg>
