<?xml version="1.0" encoding="iso-8859-1"?>
<!-- Generator: Adobe Illustrator 16.0.0, SVG Export Plug-In . SVG Version: 6.00 Build 0)  -->
<!DOCTYPE svg PUBLIC "-//W3C//DTD SVG 1.1//EN" "http://www.w3.org/Graphics/SVG/1.1/DTD/svg11.dtd">
<svg version="1.1" xmlns="http://www.w3.org/2000/svg" xmlns:xlink="http://www.w3.org/1999/xlink" x="0px" y="0px" width="361px"
	 height="361px" viewBox="0 0 361 361" style="enable-background:new 0 0 361 361;" xml:space="preserve">
<g id="message_x5F_caution">
	<path style="fill:#FFFFFF;" d="M101.692,208.489c-5.242,0-9.234-2.411-11.979-7.235c-2.745-4.822-4.117-11.672-4.117-20.549
		c0-4.412,0.418-8.35,1.256-11.813c0.837-3.464,1.985-6.388,3.442-8.774c1.457-2.386,3.194-4.194,5.21-5.425
		c2.016-1.232,4.201-1.848,6.56-1.848c1.364,0,2.604,0.167,3.721,0.5c1.116,0.334,2.094,0.719,2.93,1.155
		c0.837,0.437,1.535,0.886,2.093,1.347c0.558,0.462,0.961,0.821,1.21,1.077l-2.093,9.697c-0.993-0.873-2.148-1.616-3.466-2.232
		c-1.318-0.616-2.814-0.923-4.49-0.923c-1.116,0-2.209,0.307-3.278,0.923c-1.071,0.616-2.016,1.605-2.838,2.963
		c-0.822,1.36-1.482,3.116-1.977,5.272c-0.497,2.155-0.744,4.772-0.744,7.851c0,2.462,0.162,4.759,0.488,6.888
		c0.326,2.129,0.853,3.963,1.581,5.502c0.728,1.539,1.682,2.759,2.861,3.656c1.177,0.898,2.605,1.346,4.279,1.346
		c1.055,0,2.001-0.102,2.839-0.307c0.836-0.205,1.582-0.447,2.233-0.731c0.65-0.282,1.224-0.603,1.721-0.962
		c0.495-0.357,0.945-0.692,1.349-1l2,9.619c-1.023,1.027-2.465,1.951-4.326,2.771S104.141,208.489,101.692,208.489z"/>
	<path style="fill:#FFFFFF;" d="M138.697,208.263c-0.359-1.914-0.744-3.88-1.157-5.897c-0.413-2.016-0.824-4.025-1.234-6.024h-12.59
		c-0.407,2.009-0.816,4.022-1.224,6.042c-0.41,2.018-0.79,3.98-1.142,5.88h-7.537c1.213-5.935,2.364-11.418,3.453-16.452
		c1.089-5.032,2.153-9.775,3.196-14.226c1.042-4.451,2.069-8.674,3.08-12.676c1.011-3.999,2.062-7.907,3.15-11.722h6.879
		c1.058,3.815,2.103,7.724,3.131,11.722c1.028,4.002,2.065,8.226,3.108,12.676c1.044,4.45,2.111,9.193,3.202,14.226
		c1.09,5.034,2.243,10.518,3.458,16.452H138.697z M129.979,165.664c-0.163,0.8-0.4,1.889-0.711,3.265
		c-0.313,1.377-0.667,2.968-1.065,4.772s-0.844,3.791-1.336,5.96c-0.492,2.17-0.992,4.444-1.5,6.825h9.219
		c-0.495-2.389-0.972-4.671-1.434-6.846c-0.462-2.176-0.902-4.166-1.318-5.971c-0.415-1.805-0.78-3.394-1.094-4.77
		C130.425,167.524,130.171,166.447,129.979,165.664z"/>
	<path style="fill:#FFFFFF;" d="M160.233,208.263c-2.264,0-4.218-0.533-5.861-1.597c-1.645-1.064-3-2.545-4.071-4.441
		c-1.068-1.895-1.861-4.154-2.372-6.777c-0.512-2.621-0.769-5.518-0.769-8.686v-33.575h7.258v32.562c0,2.182,0.146,4.039,0.44,5.571
		c0.295,1.532,0.699,2.778,1.21,3.739s1.132,1.648,1.86,2.064c0.729,0.416,1.527,0.623,2.396,0.623c1.768,0,3.202-0.908,4.304-2.727
		c1.1-1.817,1.651-4.908,1.651-9.271v-32.562h7.256v33.575c0,3.168-0.263,6.076-0.79,8.725c-0.528,2.648-1.334,4.922-2.42,6.816
		c-1.085,1.896-2.465,3.363-4.14,4.402C164.514,207.743,162.528,208.263,160.233,208.263z"/>
	<path style="fill:#FFFFFF;" d="M203.058,153.187v10.57h-9.723v44.506h-7.257v-44.506h-9.722v-10.57H203.058z"/>
	<path style="fill:#FFFFFF;" d="M205.105,153.187h7.258v55.076h-7.258V153.187z"/>
	<path style="fill:#FFFFFF;" d="M246.404,180.762c0,4.521-0.412,8.494-1.233,11.921c-0.822,3.428-1.946,6.298-3.373,8.609
		c-1.427,2.311-3.124,4.049-5.093,5.218c-1.97,1.167-4.087,1.752-6.35,1.752c-2.203,0-4.281-0.585-6.234-1.752
		c-1.953-1.169-3.658-2.907-5.117-5.218c-1.457-2.312-2.604-5.182-3.441-8.609s-1.258-7.4-1.258-11.921
		c0-4.519,0.436-8.494,1.304-11.921s2.039-6.309,3.512-8.646c1.474-2.334,3.179-4.087,5.117-5.256
		c1.938-1.168,3.978-1.752,6.118-1.752c2.201,0,4.279,0.584,6.232,1.752c1.954,1.169,3.66,2.922,5.117,5.256
		c1.459,2.337,2.605,5.218,3.443,8.646C245.984,172.269,246.404,176.243,246.404,180.762z M221.797,180.762
		c0,2.59,0.191,4.927,0.58,7.009c0.387,2.083,0.945,3.872,1.675,5.37c0.728,1.498,1.62,2.653,2.675,3.466
		c1.054,0.813,2.265,1.219,3.629,1.219c1.333,0,2.533-0.405,3.605-1.219c1.068-0.813,1.968-1.968,2.697-3.466
		c0.729-1.498,1.285-3.287,1.675-5.37c0.388-2.082,0.581-4.419,0.581-7.009c0-2.59-0.193-4.938-0.581-7.046
		c-0.39-2.106-0.946-3.91-1.675-5.408c-0.729-1.497-1.629-2.653-2.697-3.466c-1.072-0.813-2.272-1.219-3.605-1.219
		c-1.364,0-2.575,0.419-3.629,1.258c-1.055,0.837-1.947,2.007-2.675,3.503c-0.729,1.499-1.288,3.301-1.675,5.409
		C221.988,175.9,221.797,178.224,221.797,180.762z"/>
	<path style="fill:#FFFFFF;" d="M269.977,208.263c-2.076-6.306-4.325-12.53-6.744-18.677s-4.994-11.947-7.722-17.405v36.082h-7.165
		v-55.076h5.908c1.025,1.749,2.156,3.895,3.396,6.437c1.24,2.543,2.504,5.26,3.791,8.146c1.287,2.888,2.565,5.881,3.838,8.98
		c1.271,3.1,2.465,6.081,3.582,8.941v-32.505h7.21v55.076H269.977z"/>
	<g>
		<g>
			<g>
				<g>
					<path style="fill:#FFFFFF;" d="M288.762,91.136c-6.349-6.349-12.697-12.698-19.047-19.046
						c-6.836-6.835-17.403,3.813-10.551,10.665c6.349,6.349,12.697,12.698,19.047,19.046
						C285.047,108.636,295.614,97.988,288.762,91.136L288.762,91.136z"/>
				</g>
			</g>
			<g>
				<g>
					<path style="fill:#FFFFFF;" d="M289.531,138.666c-22.192-22.192-44.385-44.384-66.577-66.577
						c-6.835-6.835-17.403,3.813-10.551,10.665c22.192,22.192,44.385,44.384,66.577,66.577
						C285.816,156.167,296.384,145.519,289.531,138.666L289.531,138.666z"/>
				</g>
			</g>
			<g>
				<g>
					<path style="fill:#FFFFFF;" d="M196.01,138.666c-22.192-22.192-44.384-44.384-66.576-66.577
						c-6.835-6.836-17.403,3.813-10.551,10.665c22.192,22.192,44.384,44.384,66.576,66.577
						C192.294,156.167,202.862,145.519,196.01,138.666L196.01,138.666z"/>
				</g>
			</g>
			<g>
				<g>
					<path style="fill:#FFFFFF;" d="M101.682,137.919c-6.336-6.357-12.673-12.714-19.009-19.071
						c-6.825-6.847-17.393,3.802-10.552,10.665c6.337,6.357,12.673,12.714,19.01,19.071
						C97.956,155.432,108.523,144.782,101.682,137.919L101.682,137.919z"/>
				</g>
			</g>
			<g>
				<g>
					<path style="fill:#FFFFFF;" d="M242.771,138.666c-22.192-22.192-44.384-44.384-66.576-66.577
						c-6.836-6.835-17.404,3.813-10.552,10.665c22.192,22.192,44.385,44.384,66.577,66.577
						C239.055,156.167,249.623,145.519,242.771,138.666L242.771,138.666z"/>
				</g>
			</g>
			<g>
				<g>
					<path style="fill:#FFFFFF;" d="M148.539,137.896c-21.956-21.936-43.911-43.872-65.866-65.807
						c-6.839-6.833-17.407,3.815-10.552,10.665c21.956,21.936,43.911,43.872,65.866,65.807
						C144.826,155.394,155.395,144.746,148.539,137.896L148.539,137.896z"/>
				</g>
			</g>
		</g>
		<g>
			<g>
				<g>
					<path style="fill:#FFFFFF;" d="M82.729,242.795c6.645-6.605,13.291-13.211,19.936-19.816
						c6.857-6.815-3.793-17.382-10.665-10.551c-6.645,6.605-13.291,13.211-19.936,19.816
						C65.208,239.06,75.857,249.626,82.729,242.795L82.729,242.795z"/>
				</g>
			</g>
			<g>
				<g>
					<path style="fill:#FFFFFF;" d="M130.26,288.784c22.036-21.935,44.072-43.87,66.108-65.806
						c6.852-6.82-3.798-17.387-10.666-10.551c-22.035,21.935-44.071,43.87-66.107,65.806
						C112.743,285.054,123.393,295.62,130.26,288.784L130.26,288.784z"/>
				</g>
			</g>
			<g>
				<g>
					<path style="fill:#FFFFFF;" d="M177.021,288.784c21.936-21.935,43.871-43.87,65.807-65.806
						c6.835-6.835-3.813-17.403-10.666-10.551c-21.935,21.935-43.87,43.87-65.806,65.806
						C159.52,285.068,170.168,295.637,177.021,288.784L177.021,288.784z"/>
				</g>
			</g>
			<g>
				<g>
					<path style="fill:#FFFFFF;" d="M223.829,288.737c21.92-21.919,43.839-43.839,65.759-65.759
						c6.836-6.835-3.812-17.403-10.664-10.551c-21.921,21.919-43.841,43.839-65.761,65.759
						C206.328,285.021,216.976,295.59,223.829,288.737L223.829,288.737z"/>
				</g>
			</g>
			<g>
				<g>
					<path style="fill:#FFFFFF;" d="M270.541,288.783c6.35-6.349,12.698-12.697,19.047-19.046
						c6.836-6.835-3.812-17.403-10.664-10.551c-6.35,6.349-12.698,12.697-19.048,19.046
						C253.041,285.067,263.688,295.636,270.541,288.783L270.541,288.783z"/>
				</g>
			</g>
			<g>
				<g>
					<path style="fill:#FFFFFF;" d="M83.499,288.784c21.894-21.935,43.788-43.87,65.682-65.806
						c6.829-6.842-3.819-17.41-10.665-10.551c-21.894,21.935-43.788,43.87-65.682,65.806
						C66.005,285.075,76.653,295.644,83.499,288.784L83.499,288.784z"/>
				</g>
			</g>
		</g>
		<g>
			<g>
				<path style="fill:#FFFFFF;" d="M282.013,283.09c0.524-1.939,4.381-1.719,1.976-1.719c-0.958,0-1.917,0-2.876,0
					c-3.488,0-6.976,0-10.464,0c-11.973,0-23.944,0-35.917,0c-32.054,0-64.108,0-96.162,0c-20.246,0-40.492,0-60.738,0
					c-3.048,0,2.001,5.053,2.001,1.995c0-2.481,0-4.964,0-7.445c0-10.593,0-21.185,0-31.777c0-54.688,0-109.375,0-164.063
					c0-0.867,0-1.734,0-2.601c0-2.744,0.16,2.149-3.023,2.149c1.451,0,2.902,0,4.353,0c9.069,0,18.138,0,27.207,0
					c30.93,0,61.861,0,92.792,0c25.365,0,50.73,0,76.097,0c2.29,0,4.581,0,6.872,0c2.135,0-2.296-5.205-2.296-1.653
					c0,7.303,0,14.606,0,21.909c0,57.269,0,114.538,0,171.806c0,4.243,0,8.485,0,12.729c0,6.448,10,6.448,10,0
					c0-48.906,0-97.813,0-146.719c0-20.073,0-40.147,0-60.22c0-7.655-6.365-7.851-11.979-7.851c-9.35,0-18.7,0-28.05,0
					c-56.063,0-112.125,0-168.188,0c-5.535,0-13.785-0.917-13.785,7.261c0,5.989,0,11.978,0,17.967c0,28.881,0,57.762,0,86.643
					c0,28.607,0,57.214,0,85.821c0,5.646,0,11.293,0,16.94c0,8.308,9.044,7.11,14.577,7.11c56.296,0,112.591,0,168.887,0
					c8.121,0,16.241,0,24.361,0c5.374,0,12.173,1.126,13.997-5.623C293.34,279.514,283.693,276.871,282.013,283.09z"/>
			</g>
		</g>
	</g>
</g>
<g id="Ebene_1">
</g>
</svg>
