<?xml version="1.0" encoding="iso-8859-1"?>
<!-- Generator: Adobe Illustrator 16.0.0, SVG Export Plug-In . SVG Version: 6.00 Build 0)  -->
<!DOCTYPE svg PUBLIC "-//W3C//DTD SVG 1.1 Tiny//EN" "http://www.w3.org/Graphics/SVG/1.1/DTD/svg11-tiny.dtd">
<svg version="1.1" baseProfile="tiny" id="message_x5F_tendency_x5F_downward"
	 xmlns="http://www.w3.org/2000/svg" xmlns:xlink="http://www.w3.org/1999/xlink" x="0px" y="0px" width="361px" height="361px"
	 viewBox="0 0 361 361" xml:space="preserve">
<path fill="none" stroke="#FFFFFF" stroke-width="10" stroke-miterlimit="10" d="M256.882,96.516
	c1.514-1.514,2.357-3.124,1.886-3.596L243.94,78.093c-0.472-0.472-2.083,0.372-3.596,1.885l-53.438,53.437
	c-1.513,1.513-2.357,3.123-1.884,3.596l14.828,14.827c0.472,0.472,2.082-0.372,3.595-1.884L256.882,96.516z"/>
<g>
	<path fill="#FFFFFF" d="M189.41,169.722c31.914,4.263,63.828,8.527,95.742,12.79c2.463,0.329,5.329-2.537,5-5
		c-4.264-31.914-8.527-63.828-12.791-95.742c-0.545-4.077-5.137-6.935-8.536-3.536c-27.65,27.651-55.301,55.302-82.952,82.952
		c-4.563,4.564,2.507,11.635,7.071,7.071c27.65-27.651,55.301-55.302,82.952-82.952c-2.845-1.179-5.69-2.357-8.536-3.536
		c4.264,31.914,8.527,63.828,12.791,95.742c1.667-1.667,3.333-3.333,5-5c-31.914-4.263-63.828-8.527-95.742-12.79
		C183.034,158.87,183.116,168.881,189.41,169.722z"/>
</g>
<path display="none" fill="none" stroke="#FFFFFF" stroke-width="10" stroke-miterlimit="10" d="M283.565,251.323
	c0,20.925-16.965,37.89-37.89,37.89h-134.72c-20.927,0-37.89-16.965-37.89-37.89V116.602c0-20.926,16.963-37.89,37.89-37.89h134.72
	c20.925,0,37.89,16.964,37.89,37.89V251.323z"/>
<g>
	<path fill="#FFFFFF" d="M68.17,188.211c0,33.778,0,67.556,0,101.334c0,6.449,10,6.449,10,0c0-33.778,0-67.556,0-101.334
		C78.17,181.762,68.17,181.762,68.17,188.211L68.17,188.211z"/>
</g>
<g>
	<path fill="#FFFFFF" d="M283.317,284.545c-48.661,0-97.322,0-145.983,0c-21.388,0-42.776,0-64.164,0c-6.449,0-6.449,10,0,10
		c48.661,0,97.322,0,145.983,0c21.388,0,42.776,0,64.164,0C289.766,294.545,289.766,284.545,283.317,284.545L283.317,284.545z"/>
</g>
<g>
	<path fill="#FFFFFF" d="M78.666,251.561c20.486-10.118,40.973-20.235,61.459-30.353c5.782-2.856,0.713-11.479-5.047-8.635
		c-20.486,10.118-40.973,20.235-61.459,30.353C67.837,245.781,72.906,254.405,78.666,251.561L78.666,251.561z"/>
</g>
<g>
	<path fill="#FFFFFF" d="M136.453,220.386c11.805,7.319,23.609,14.639,35.414,21.958c5.497,3.409,10.514-5.245,5.047-8.635
		c-11.805-7.319-23.609-14.639-35.414-21.958C136.003,208.342,130.986,216.996,136.453,220.386L136.453,220.386z"/>
</g>
<g>
	<path fill="#FFFFFF" d="M189.281,226.823c3.305,8.843,6.61,17.687,9.916,26.529c2.236,5.983,11.905,3.395,9.643-2.658
		c-3.305-8.843-6.61-17.687-9.916-26.529C196.688,218.181,187.019,220.77,189.281,226.823L189.281,226.823z"/>
</g>
<g>
	<path fill="#FFFFFF" d="M206.542,256.34c14.465-10.674,28.93-21.349,43.395-32.023c5.128-3.785,0.15-12.47-5.047-8.635
		c-14.465,10.674-28.93,21.349-43.395,32.023C196.366,251.49,201.345,260.175,206.542,256.34L206.542,256.34z"/>
</g>
<g>
	<path fill="#FFFFFF" d="M176.914,242.344c6.571-4.178,13.142-8.355,19.712-12.533c5.424-3.449,0.412-12.106-5.047-8.635
		c-6.571,4.178-13.142,8.355-19.712,12.533C166.443,237.158,171.455,245.815,176.914,242.344L176.914,242.344z"/>
</g>
<g>
	<path fill="#FFFFFF" d="M246.084,224.821c12.016,2.849,24.032,5.697,36.048,8.545c6.271,1.486,8.932-8.156,2.658-9.643
		c-12.016-2.849-24.032-5.697-36.048-8.545C242.472,213.692,239.811,223.334,246.084,224.821L246.084,224.821z"/>
</g>
</svg>
