<?xml version="1.0" encoding="iso-8859-1"?>
<!-- Generator: Adobe Illustrator 16.0.0, SVG Export Plug-In . SVG Version: 6.00 Build 0)  -->
<!DOCTYPE svg PUBLIC "-//W3C//DTD SVG 1.1 Tiny//EN" "http://www.w3.org/Graphics/SVG/1.1/DTD/svg11-tiny.dtd">
<svg version="1.1" baseProfile="tiny" id="message_x5F_socket"
	 xmlns="http://www.w3.org/2000/svg" xmlns:xlink="http://www.w3.org/1999/xlink" x="0px" y="0px" width="361px" height="361px"
	 viewBox="0 0 361 361" xml:space="preserve">
<path fill="none" stroke="#FFFFFF" stroke-width="10" stroke-miterlimit="10" d="M284.464,284.141c0,3.127-2.762,5.663-6.169,5.663
	H78.494c-3.407,0-6.169-2.535-6.169-5.663V83.326c0-3.127,2.762-5.662,6.169-5.662h199.801c3.407,0,6.169,2.535,6.169,5.662V284.141
	z"/>
<path fill="none" stroke="#FFFFFF" stroke-width="10" stroke-miterlimit="10" d="M245.464,246.26c0,1.957-1.728,3.543-3.86,3.543
	H116.567c-2.132,0-3.86-1.586-3.86-3.543V120.589c0-1.957,1.728-3.543,3.86-3.543h125.036c2.132,0,3.86,1.586,3.86,3.543V246.26z"/>
<path fill="none" stroke="#FFFFFF" stroke-width="10" stroke-miterlimit="10" d="M152.565,188.645c0,0.144-0.127,0.26-0.284,0.26
	h-9.195c-0.157,0-0.284-0.117-0.284-0.26v-9.243c0-0.144,0.127-0.26,0.284-0.26h9.195c0.157,0,0.284,0.117,0.284,0.26V188.645z"/>
<path fill="none" stroke="#FFFFFF" stroke-width="10" stroke-miterlimit="10" d="M182.151,249.011c0,0.055-0.109,0.101-0.243,0.101
	h-7.864c-0.134,0-0.243-0.045-0.243-0.101v-3.565c0-0.055,0.109-0.101,0.243-0.101h7.864c0.134,0,0.243,0.045,0.243,0.101V249.011z"
	/>
<g>
	<polygon fill="#FFFFFF" points="115.229,142.686 115.1,119.071 138.714,119.2 	"/>
	<g>
		<path fill="#FFFFFF" d="M120.229,142.686c-0.043-7.872-0.085-15.743-0.128-23.614c-1.667,1.667-3.333,3.333-5,5
			c7.872,0.043,15.743,0.085,23.614,0.128c-1.179-2.845-2.357-5.69-3.536-8.536c-7.829,7.829-15.657,15.657-23.486,23.486
			c-4.563,4.564,2.507,11.635,7.071,7.071c7.829-7.829,15.657-15.657,23.486-23.486c3.098-3.098,0.816-8.512-3.536-8.536
			c-7.872-0.043-15.743-0.085-23.614-0.128c-2.714-0.015-5.015,2.286-5,5c0.043,7.872,0.085,15.743,0.128,23.614
			C110.264,149.132,120.264,149.136,120.229,142.686z"/>
	</g>
</g>
<g>
	<polygon fill="#FFFFFF" points="220.357,119.2 243.971,119.071 243.843,142.686 	"/>
	<g>
		<path fill="#FFFFFF" d="M220.357,124.2c7.872-0.043,15.743-0.085,23.614-0.128c-1.667-1.667-3.333-3.333-5-5
			c-0.043,7.872-0.085,15.743-0.128,23.614c2.845-1.179,5.69-2.357,8.536-3.536c-7.829-7.829-15.657-15.657-23.486-23.486
			c-4.564-4.563-11.635,2.507-7.071,7.071c7.829,7.829,15.657,15.657,23.486,23.486c3.098,3.098,8.512,0.816,8.536-3.536
			c0.043-7.872,0.085-15.743,0.128-23.614c0.015-2.714-2.286-5.015-5-5c-7.872,0.043-15.743,0.085-23.614,0.128
			C213.91,114.235,213.907,124.235,220.357,124.2z"/>
	</g>
</g>
<g>
	<polygon fill="#FFFFFF" points="242.843,224.328 242.971,247.942 219.357,247.814 	"/>
	<g>
		<path fill="#FFFFFF" d="M237.843,224.328c0.043,7.872,0.085,15.743,0.128,23.614c1.667-1.667,3.333-3.333,5-5
			c-7.872-0.043-15.743-0.085-23.614-0.128c1.179,2.845,2.357,5.69,3.536,8.536c7.829-7.829,15.657-15.657,23.486-23.486
			c4.563-4.564-2.507-11.635-7.071-7.071c-7.829,7.829-15.657,15.657-23.486,23.486c-3.098,3.098-0.816,8.512,3.536,8.536
			c7.872,0.043,15.743,0.085,23.614,0.128c2.714,0.015,5.015-2.286,5-5c-0.043-7.872-0.085-15.743-0.128-23.614
			C247.808,217.881,237.808,217.878,237.843,224.328z"/>
	</g>
</g>
<g>
	<polygon fill="#FFFFFF" points="138.713,247.813 115.099,247.942 115.228,224.328 	"/>
	<g>
		<path fill="#FFFFFF" d="M138.713,242.813c-7.872,0.043-15.743,0.085-23.614,0.128c1.667,1.667,3.333,3.333,5,5
			c0.043-7.872,0.085-15.743,0.128-23.614c-2.845,1.179-5.69,2.357-8.536,3.536c7.829,7.829,15.657,15.657,23.486,23.486
			c4.564,4.563,11.635-2.507,7.071-7.071c-7.829-7.829-15.657-15.657-23.486-23.486c-3.098-3.098-8.512-0.816-8.536,3.536
			c-0.043,7.872-0.085,15.743-0.128,23.614c-0.015,2.714,2.286,5.015,5,5c7.872-0.043,15.743-0.085,23.614-0.128
			C145.16,252.778,145.164,242.778,138.713,242.813z"/>
	</g>
</g>
<path fill="none" stroke="#FFFFFF" stroke-width="10" stroke-miterlimit="10" d="M214.565,188.645c0,0.144-0.127,0.26-0.284,0.26
	h-9.195c-0.157,0-0.284-0.117-0.284-0.26v-9.243c0-0.144,0.127-0.26,0.284-0.26h9.195c0.157,0,0.284,0.117,0.284,0.26V188.645z"/>
<path fill="none" stroke="#FFFFFF" stroke-width="10" stroke-miterlimit="10" d="M182.484,121.011c0,0.055-0.109,0.101-0.243,0.101
	h-7.864c-0.134,0-0.243-0.045-0.243-0.101v-3.565c0-0.055,0.109-0.101,0.243-0.101h7.864c0.134,0,0.243,0.045,0.243,0.101V121.011z"
	/>
</svg>
