<?xml version="1.0" encoding="iso-8859-1"?>
<!-- Generator: Adobe Illustrator 16.0.0, SVG Export Plug-In . SVG Version: 6.00 Build 0)  -->
<!DOCTYPE svg PUBLIC "-//W3C//DTD SVG 1.1 Tiny//EN" "http://www.w3.org/Graphics/SVG/1.1/DTD/svg11-tiny.dtd">
<svg version="1.1" baseProfile="tiny" id="message_x5F_presence_x5F_inactive"
	 xmlns="http://www.w3.org/2000/svg" xmlns:xlink="http://www.w3.org/1999/xlink" x="0px" y="0px" width="361px" height="361px"
	 viewBox="0 0 361 361" xml:space="preserve">
<path fill="none" stroke="#FFFFFF" stroke-width="10" stroke-miterlimit="10" d="M216.606,93.618c0,1.566-1.271,2.835-2.837,2.835
	H142.86c-1.567,0-2.836-1.27-2.836-2.835V80.381c0-1.566,1.27-2.836,2.836-2.836h70.909c1.566,0,2.837,1.271,2.837,2.836V93.618z"/>
<g>
	<path fill="#FFFFFF" d="M202.602,134.812c-14.072,13.541-35.831,13.541-49.903,0c-1.394-1.341-3.518,0.778-2.121,2.121
		c15.253,14.678,38.892,14.678,54.146,0C206.119,135.589,203.995,133.47,202.602,134.812L202.602,134.812z"/>
</g>
<g>
	<path fill="#FFFFFF" d="M174.322,291.628c-38.709-1.244-75.401-16.652-102.977-43.924c-1.376-1.361-3.498,0.759-2.121,2.121
		c28.138,27.829,65.603,43.535,105.098,44.803C176.257,294.69,176.251,291.69,174.322,291.628L174.322,291.628z"/>
</g>
<g>
	<path fill="#FFFFFF" d="M203.065,96.454c-0.327,13.741-11.009,24.423-24.75,24.75c-13.74,0.327-24.435-11.502-24.75-24.75
		c-0.107-4.506-7.107-4.517-7,0c0.418,17.588,14.162,31.332,31.75,31.75c17.586,0.418,31.346-14.791,31.75-31.75
		C210.172,91.937,203.172,91.947,203.065,96.454L203.065,96.454z"/>
</g>
<g>
	<path fill="#FFFFFF" d="M190.994,100.682c-0.163,7.441-3.532,17.934-12.466,18.328c-1.927,0.085-1.935,3.085,0,3
		c10.699-0.472,15.264-12.096,15.466-21.328C194.037,98.746,191.037,98.75,190.994,100.682L190.994,100.682z"/>
</g>
<g>
	<path fill="#FFFFFF" d="M162.303,100.682c0.222,9.605,5.33,20.872,16.226,21.328c1.935,0.081,1.927-2.919,0-3
		c-9.164-0.383-13.044-10.483-13.226-18.328C165.258,98.75,162.258,98.746,162.303,100.682L162.303,100.682z"/>
</g>
<g>
	<path fill="#FFFFFF" d="M176.815,100.682c0,6.613,0,13.226,0,19.838c0,1.935,3,1.935,3,0c0-6.613,0-13.226,0-19.838
		C179.815,98.747,176.815,98.747,176.815,100.682L176.815,100.682z"/>
</g>
<g>
	<path fill="#FFFFFF" d="M150.342,135.115C123.372,172.542,96.4,209.97,69.429,247.397c-0.146,0.204-0.293,0.407-0.44,0.61
		c-1.133,1.573,1.471,3.068,2.591,1.514c26.971-37.427,53.942-74.855,80.913-112.282c0.146-0.204,0.293-0.407,0.44-0.61
		C154.066,135.056,151.462,133.561,150.342,135.115L150.342,135.115z"/>
</g>
<g>
	<path fill="#FFFFFF" d="M202.602,136.933c0.705,0.899,1.41,1.797,2.115,2.696c0.505,0.645,1.595,0.526,2.121,0
		c0.63-0.629,0.504-1.479,0-2.121c-0.705-0.899-1.41-1.797-2.115-2.696c-0.505-0.645-1.595-0.526-2.121,0
		C201.972,135.441,202.097,136.29,202.602,136.933L202.602,136.933z"/>
</g>
<path fill="none" stroke="#FFFFFF" stroke-width="3" stroke-miterlimit="10" d="M263.694,279.541c0,7.661-6.244,13.87-13.945,13.87
	h-31.536c-7.701,0-13.944-6.208-13.944-13.87v-69.627c0-7.66,6.243-13.869,13.944-13.869h31.536c7.701,0,13.945,6.208,13.945,13.869
	V279.541z"/>
<path fill="none" stroke="#FFFFFF" stroke-width="3" stroke-miterlimit="10" d="M272.228,207.868c0,16.306,0,60.795,0,77.101
	c0,11.123,15.608,11.123,15.608,0c0-16.306,0-60.795,0-77.101C287.836,196.745,272.228,196.745,272.228,207.868L272.228,207.868z"/>
<path fill="none" stroke="#FFFFFF" stroke-width="3" stroke-miterlimit="10" d="M179.954,207.868c0,16.306,0,60.795,0,77.101
	c0,11.123,15.608,11.123,15.608,0c0-16.306,0-60.795,0-77.101C195.563,196.745,179.954,196.745,179.954,207.868L179.954,207.868z"/>
<circle fill="none" stroke="#FFFFFF" stroke-width="3" stroke-miterlimit="10" cx="233.982" cy="159.442" r="28"/>
</svg>
