<?xml version="1.0" encoding="iso-8859-1"?>
<!-- Generator: Adobe Illustrator 16.0.0, SVG Export Plug-In . SVG Version: 6.00 Build 0)  -->
<!DOCTYPE svg PUBLIC "-//W3C//DTD SVG 1.1//EN" "http://www.w3.org/Graphics/SVG/1.1/DTD/svg11.dtd">
<svg version="1.1" xmlns="http://www.w3.org/2000/svg" xmlns:xlink="http://www.w3.org/1999/xlink" x="0px" y="0px" width="361px"
	 height="361px" viewBox="0 0 361 361" style="enable-background:new 0 0 361 361;" xml:space="preserve">
<g id="message_x5F_garbage_x5F_collection">
	<g>
		<circle style="fill:#FFFFFF;" cx="165.322" cy="258.605" r="33.186"/>
		<path style="fill:#FFFFFF;" d="M115.789,87.815c0-3.228-2.619-5.847-5.848-5.847H70.713v140.114h39.228
			c3.229,0,5.848-2.617,5.848-5.846V87.815z"/>
		<path style="fill:#FFFFFF;" d="M70.713,226.039v32.566h57.283c0.001-20.662,16.75-37.411,37.412-37.411
			c20.626,0,37.351,16.691,37.409,37.306c7.124-0.541,9.017-3.393,9.017-11.923c0,0,0-39.946,0-63.216
			c0-0.531-0.128-1.721-0.287-2.617h-0.016c0.03-0.961-0.179-1.941-0.688-2.838l-26.662-46.774
			c-0.824-1.445-2.219-2.342-3.737-2.617c-0.497-0.129-1.008-0.221-1.545-0.221h-52.984c-3.386,0-6.131,2.746-6.131,6.131v45.218
			c0,0.377,0.046,0.743,0.111,1.102h-0.125v-0.049l-0.225,46.246L70.713,226.039z M127.909,141.34c0-2.909,2.359-5.27,5.27-5.27
			h45.542c0.461,0,0.901,0.08,1.327,0.19c1.306,0.236,2.503,1.007,3.211,2.249l17.155,30.095l-0.018,0
			c0.422,0.746,0.885,1.559,1.379,2.428c2.207,3.879-0.581,6.704-3.874,6.704c-16.899,0-64.723,0-64.723,0
			c-2.823,0-5.107-2.227-5.244-5.014l-0.026,0.001v-0.257v-8.137V141.34z"/>
	</g>
	<g>
		<g>
			<path style="fill:#FFFFFF;" d="M282.609,284.053c-12.317,0-24.636,0-36.953,0c-1.837,0-3.675,0-5.512,0
				c-1.631,0,3.31,4.065,2.91,1.864c-0.095-0.524-0.126-0.882-0.247-1.984c-0.702-6.362-1.165-12.754-1.666-19.134
				c-1.051-13.365-2.004-26.737-2.926-40.111c-0.026-0.386-0.053-0.771-0.079-1.155c0.014,0.202-2.971,0.366-1.308,0.366
				c2.158,0,4.316,0,6.475,0c7.618,0,15.236,0,22.854,0c6.675,0,13.349,0,20.022,0c-1.943,0-1.777-1.083-1.887,0.506
				c-0.073,1.058-0.146,2.114-0.22,3.172c-0.263,3.777-0.529,7.555-0.799,11.332c-0.706,9.879-1.433,19.757-2.224,29.63
				c-0.336,4.202-0.686,8.403-1.086,12.6c-0.132,1.378-0.272,2.755-0.437,4.129c-0.088,0.742,0.05-0.237-0.095,0.65
				c-0.221,1.356-0.546,0.027,1.408-1.387c-3.619,2.619-0.132,8.696,3.533,6.045c2.899-2.099,2.415-7.563,2.712-10.735
				c0.683-7.279,1.232-14.571,1.786-21.862c0.874-11.498,1.696-23.001,2.484-34.506c0.465-6.804-5.552-6.573-10.157-6.573
				c-7.311,0-14.621,0-21.931,0c-6.74,0-13.48,0-20.22,0c-4.465,0-8.267,1.499-7.886,7.046c1.401,20.423,2.38,40.99,4.795,61.322
				c0.317,2.674,0.687,5.786,4.185,5.786c4.303,0,8.606,0,12.909,0c9.853,0,19.704,0,29.556,0
				C287.123,291.053,287.123,284.053,282.609,284.053z"/>
		</g>
	</g>
	<g>
		<g>
			<path style="fill:#FFFFFF;" d="M271.021,198.849c-0.139,1.362-12.843,2.925-14.304,3.219c-0.405,0.081-4.632,1.227-4.742,0.677
				c-0.487-2.424-0.976-4.847-1.463-7.271c-0.024-0.122,13.305-2.739,14.332-2.945c0.864-0.174,4.57-1.53,4.813-0.324
				c0.472,2.348,0.944,4.695,1.417,7.043c0.382,1.896,3.272,1.092,2.893-0.797c-0.558-2.771-0.689-6.091-2.053-8.593
				c-1.157-2.125-4.649-0.87-6.393-0.52c-4.133,0.832-8.266,1.664-12.399,2.495c-2.627,0.529-5.257,0.697-5.582,3.913
				c-0.205,2.022,0.749,6.498,1.719,8.28c1.499,2.758,4.288,1.731,6.78,1.23c4.133-0.832,8.266-1.663,12.398-2.494
				c2.629-0.529,5.256-0.697,5.583-3.914C274.217,196.925,271.215,196.943,271.021,198.849z"/>
		</g>
	</g>
	<g>
		<g>
			<path style="fill:#FFFFFF;" d="M235.229,210.633c18.079-3.788,36.158-7.576,54.237-11.364c4.503-0.943,2.593-7.821-1.896-6.881
				c-18.079,3.788-36.158,7.576-54.237,11.364C228.83,204.695,230.74,211.573,235.229,210.633L235.229,210.633z"/>
		</g>
	</g>
	<g>
		<g>
			<path style="fill:#FFFFFF;" d="M257.721,230.874c0.052,15.656,0.103,31.313,0.154,46.97c0.015,4.514,7.015,4.515,7,0
				c-0.052-15.656-0.103-31.313-0.154-46.97C264.706,226.36,257.706,226.359,257.721,230.874L257.721,230.874z"/>
		</g>
	</g>
	<g>
		<g>
			<path style="fill:#FFFFFF;" d="M271.988,230.874c-0.49,15.656-0.98,31.313-1.471,46.97c-0.142,4.517,6.859,4.503,7,0
				c0.49-15.656,0.98-31.313,1.471-46.97C279.13,226.357,272.129,226.371,271.988,230.874L271.988,230.874z"/>
		</g>
	</g>
	<g>
		<g>
			<path style="fill:#FFFFFF;" d="M243.656,230.874c0.525,15.656,1.051,31.313,1.576,46.97c0.151,4.502,7.151,4.517,7,0
				c-0.525-15.656-1.051-31.313-1.576-46.97C250.505,226.372,243.505,226.357,243.656,230.874L243.656,230.874z"/>
		</g>
	</g>
</g>
<g id="Ebene_1">
</g>
</svg>
