<?xml version="1.0" encoding="iso-8859-1"?>
<!-- Generator: Adobe Illustrator 16.0.0, SVG Export Plug-In . SVG Version: 6.00 Build 0)  -->
<!DOCTYPE svg PUBLIC "-//W3C//DTD SVG 1.1//EN" "http://www.w3.org/Graphics/SVG/1.1/DTD/svg11.dtd">
<svg version="1.1" xmlns="http://www.w3.org/2000/svg" xmlns:xlink="http://www.w3.org/1999/xlink" x="0px" y="0px" width="361px"
	 height="361px" viewBox="0 0 361 361" style="enable-background:new 0 0 361 361;" xml:space="preserve">
<g id="message_x5F_presence_x5F_active">
	<path style="fill:none;stroke:#FFFFFF;stroke-width:10;stroke-miterlimit:10;" d="M219.124,90.74c0,1.566-1.271,2.835-2.837,2.835
		h-70.909c-1.567,0-2.836-1.27-2.836-2.835V77.503c0-1.566,1.27-2.836,2.836-2.836h70.909c1.566,0,2.837,1.271,2.837,2.836V90.74z"
		/>
	<g>
		<g>
			<path style="fill:#FFFFFF;" d="M205.119,131.934c-14.072,13.541-35.831,13.54-49.903,0c-1.394-1.341-3.518,0.778-2.121,2.121
				c15.253,14.677,38.892,14.678,54.145,0C208.637,132.711,206.513,130.592,205.119,131.934L205.119,131.934z"/>
		</g>
	</g>
	<g>
		<g>
			<path style="fill:#FFFFFF;" d="M176.84,288.75c-38.709-1.243-75.401-16.652-102.977-43.924c-1.376-1.361-3.498,0.76-2.121,2.121
				c28.138,27.828,65.604,43.534,105.098,44.803C178.775,291.813,178.77,288.812,176.84,288.75L176.84,288.75z"/>
		</g>
	</g>
	<g>
		<g>
			<path style="fill:#FFFFFF;" d="M205.583,93.576c-0.327,13.741-11.01,24.423-24.75,24.75c-13.74,0.327-24.435-11.502-24.75-24.75
				c-0.107-4.506-7.107-4.517-7,0c0.418,17.588,14.162,31.332,31.75,31.75c17.586,0.418,31.347-14.791,31.75-31.75
				C212.69,89.059,205.69,89.069,205.583,93.576L205.583,93.576z"/>
		</g>
	</g>
	<g>
		<g>
			<path style="fill:#FFFFFF;" d="M193.512,97.804c-0.163,7.441-3.531,17.934-12.465,18.328c-1.927,0.085-1.935,3.085,0,3
				c10.699-0.472,15.263-12.096,15.465-21.328C196.554,95.868,193.554,95.872,193.512,97.804L193.512,97.804z"/>
		</g>
	</g>
	<g>
		<g>
			<path style="fill:#FFFFFF;" d="M164.821,97.804c0.222,9.605,5.33,20.872,16.226,21.328c1.936,0.081,1.928-2.919,0-3
				c-9.165-0.383-13.045-10.482-13.226-18.328C167.776,95.872,164.776,95.868,164.821,97.804L164.821,97.804z"/>
		</g>
	</g>
	<g>
		<g>
			<path style="fill:#FFFFFF;" d="M179.333,97.804c0,6.613,0,13.226,0,19.838c0,1.935,3,1.935,3,0c0-6.613,0-13.226,0-19.838
				C182.333,95.869,179.333,95.869,179.333,97.804L179.333,97.804z"/>
		</g>
	</g>
	<g>
		<g>
			<path style="fill:#FFFFFF;" d="M152.86,132.237c-26.971,37.427-53.942,74.854-80.913,112.282c-0.146,0.203-0.293,0.407-0.44,0.61
				c-1.133,1.572,1.471,3.067,2.591,1.514c26.971-37.428,53.942-74.855,80.913-112.282c0.146-0.204,0.293-0.407,0.44-0.61
				C156.584,132.178,153.98,130.683,152.86,132.237L152.86,132.237z"/>
		</g>
	</g>
	<g>
		<g>
			<path style="fill:#FFFFFF;" d="M205.119,134.055c0.705,0.899,1.41,1.797,2.115,2.696c0.506,0.645,1.596,0.526,2.121,0
				c0.63-0.629,0.504-1.479,0-2.121c-0.705-0.899-1.41-1.797-2.115-2.696c-0.506-0.645-1.596-0.526-2.121,0
				C204.489,132.563,204.615,133.412,205.119,134.055L205.119,134.055z"/>
		</g>
	</g>
	<g>
		<g>
			<path style="fill:#FFFFFF;" d="M277.594,233.471c3.524,4.492,7.05,8.984,10.574,13.477c1.193,1.521,3.301-0.618,2.121-2.121
				c-3.524-4.492-7.05-8.984-10.574-13.477C278.521,229.828,276.414,231.968,277.594,233.471L277.594,233.471z"/>
		</g>
	</g>
	<g>
		<g>
			<circle style="fill:#FFFFFF;" cx="236.5" cy="156.564" r="28.836"/>
			<path style="fill:#FFFFFF;" d="M236.501,186.084c-16.276,0-29.52-13.244-29.52-29.52s13.243-29.52,29.52-29.52
				s29.517,13.244,29.517,29.52S252.777,186.084,236.501,186.084z M236.501,128.41c-15.524,0-28.154,12.63-28.154,28.154
				c0,15.522,12.63,28.154,28.154,28.154c15.523,0,28.151-12.632,28.151-28.154C264.652,141.041,252.024,128.41,236.501,128.41z"/>
		</g>
		<path style="fill:#FFFFFF;" d="M267.465,277.459c0,7.895-6.398,14.291-14.292,14.291h-33.349c-7.893,0-14.291-6.396-14.291-14.291
			v-71.745c0-7.894,6.398-14.291,14.291-14.291h33.349c7.894,0,14.292,6.397,14.292,14.291V277.459z"/>
		<path style="fill:#FFFFFF;" d="M273.764,204.122c0,16.776,0,62.553,0,79.331c0,11.443,17.746,11.443,17.746,0
			c0-16.778,0-62.555,0-79.331C291.51,192.678,273.764,192.678,273.764,204.122L273.764,204.122z"/>
		<path style="fill:#FFFFFF;" d="M181.49,204.12c0,16.778,0,62.554,0,79.331c0,11.443,17.746,11.443,17.746,0
			c0-16.777,0-62.553,0-79.331C199.236,192.677,181.49,192.677,181.49,204.12L181.49,204.12z"/>
	</g>
</g>
<g id="Ebene_1">
</g>
</svg>
