<?xml version="1.0" encoding="iso-8859-1"?>
<!-- Generator: Adobe Illustrator 16.0.0, SVG Export Plug-In . SVG Version: 6.00 Build 0)  -->
<!DOCTYPE svg PUBLIC "-//W3C//DTD SVG 1.1//EN" "http://www.w3.org/Graphics/SVG/1.1/DTD/svg11.dtd">
<svg version="1.1" xmlns="http://www.w3.org/2000/svg" xmlns:xlink="http://www.w3.org/1999/xlink" x="0px" y="0px" width="361px"
	 height="361px" viewBox="0 0 361 361" style="enable-background:new 0 0 361 361;" xml:space="preserve">
<g id="message_x5F_light_x5F_barrier_x5F_open">
	<path style="fill:none;stroke:#FFFFFF;stroke-width:10;stroke-miterlimit:10;" d="M95.154,96.12c0.703,0,1.272,0.57,1.272,1.272
		v31.814c0,0.703-0.569,1.272-1.272,1.272h-5.939c-0.703,0-1.272-0.569-1.272-1.272V97.392c0-0.703,0.57-1.272,1.272-1.272H95.154z"
		/>
	<g>
		<g>
			<path style="fill:#FFFFFF;" d="M96.426,104.125c11.828,0.637,11.828,17.712,0,18.35c-4.489,0.242-4.513,7.243,0,7
				c9.146-0.493,15.682-7.029,16.175-16.175c0.492-9.126-7.769-15.722-16.175-16.175C91.913,96.881,91.937,103.883,96.426,104.125
				L96.426,104.125z"/>
		</g>
	</g>
	<path style="fill:none;stroke:#FFFFFF;stroke-width:10;stroke-miterlimit:10;" d="M85.977,96.12c1.086,0,1.966,0.88,1.966,1.966
		v49.162c0,1.086-0.88,1.966-1.966,1.966h-9.177c-1.086,0-1.966-0.88-1.966-1.966V98.086c0-1.086,0.88-1.966,1.966-1.966H85.977z"/>
	<path style="fill:none;stroke:#FFFFFF;stroke-width:10;stroke-miterlimit:10;" d="M285.711,96.12c0.703,0,1.272,0.57,1.272,1.272
		v31.814c0,0.703-0.569,1.272-1.272,1.272h-5.938c-0.702,0-1.272-0.569-1.272-1.272V97.392c0-0.703,0.57-1.272,1.272-1.272H285.711z
		"/>
	<g>
		<g>
			<g>
				<path style="fill:#FFFFFF;" d="M180.25,114.799c2.944,0,5.889,0,8.833,0c1.935,0,1.935-3,0-3c-2.944,0-5.889,0-8.833,0
					C178.315,111.799,178.315,114.799,180.25,114.799L180.25,114.799z"/>
			</g>
		</g>
		<g>
			<g>
				<path style="fill:#FFFFFF;" d="M163.25,114.799c2.944,0,5.889,0,8.833,0c1.935,0,1.935-3,0-3c-2.944,0-5.889,0-8.833,0
					C161.315,111.799,161.315,114.799,163.25,114.799L163.25,114.799z"/>
			</g>
		</g>
		<g>
			<g>
				<path style="fill:#FFFFFF;" d="M146.25,114.799c2.944,0,5.889,0,8.833,0c1.935,0,1.935-3,0-3c-2.944,0-5.889,0-8.833,0
					C144.315,111.799,144.315,114.799,146.25,114.799L146.25,114.799z"/>
			</g>
		</g>
		<g>
			<g>
				<path style="fill:#FFFFFF;" d="M129.25,114.799c2.944,0,5.889,0,8.833,0c1.935,0,1.935-3,0-3c-2.944,0-5.889,0-8.833,0
					C127.315,111.799,127.315,114.799,129.25,114.799L129.25,114.799z"/>
			</g>
		</g>
		<g>
			<g>
				<path style="fill:#FFFFFF;" d="M112.25,114.799c2.944,0,5.889,0,8.833,0c1.935,0,1.935-3,0-3c-2.944,0-5.889,0-8.833,0
					C110.315,111.799,110.315,114.799,112.25,114.799L112.25,114.799z"/>
			</g>
		</g>
	</g>
	<g>
		<g>
			<g>
				<path style="fill:#FFFFFF;" d="M144.725,286.761c23.711-41.068,47.422-82.138,71.133-123.206
					c0.515-0.893,1.03-1.785,1.546-2.678c-2.878,0-5.757,0-8.635,0c23.711,41.069,47.422,82.137,71.134,123.207
					c0.515,0.893,1.03,1.785,1.546,2.678c1.439-2.508,2.878-5.016,4.317-7.523c-47.422,0-94.844,0-142.266,0
					c-1.031,0-2.062,0-3.092,0c-6.449,0-6.449,10,0,10c47.422,0,94.844,0,142.266,0c1.031,0,2.062,0,3.093,0
					c3.806,0,6.211-4.243,4.317-7.523c-23.711-41.069-47.422-82.138-71.134-123.206c-0.515-0.893-1.03-1.786-1.546-2.678
					c-1.873-3.244-6.762-3.244-8.635,0c-23.711,41.069-47.422,82.137-71.132,123.206c-0.516,0.894-1.031,1.786-1.546,2.679
					C132.859,287.309,141.502,292.342,144.725,286.761z"/>
			</g>
		</g>
		<g>
			<g>
				<path style="fill:#FFFFFF;" d="M208.175,195.157c0,14.896,0,29.794,0,44.69c0,6.448,10,6.448,10,0c0-14.896,0-29.794,0-44.69
					C218.175,188.709,208.175,188.709,208.175,195.157L208.175,195.157z"/>
			</g>
		</g>
		<g>
			<g>
				<path style="fill:#FFFFFF;" d="M208.175,260.003c0,1.694,0,3.388,0,5.082c0,2.726,2.274,5,5,5s5-2.274,5-5
					c0-1.694,0-3.388,0-5.082c0-2.726-2.274-5-5-5S208.175,257.277,208.175,260.003L208.175,260.003z"/>
			</g>
		</g>
	</g>
	<g style="display:none;">
		<g style="display:inline;">
			<g>
				<path style="fill:#FFFFFF;" d="M223.388,288.417c22.579-32.703,45.159-65.406,67.738-98.109c5.504-7.972-7.529-15.41-12.99-7.5
					c-22.579,32.703-45.159,65.406-67.738,98.109C204.894,288.889,217.927,296.327,223.388,288.417L223.388,288.417z"/>
			</g>
		</g>
		<g style="display:inline;">
			<g>
				<path style="fill:#FFFFFF;" d="M220.643,278.172c-9.786-7.022-19.571-14.045-29.357-21.067
					c-3.326-2.387-8.354-0.532-10.245,2.745c-2.194,3.8-0.573,7.864,2.745,10.245c9.786,7.022,19.571,14.045,29.357,21.067
					c3.326,2.387,8.354,0.532,10.245-2.745C225.582,284.617,223.961,280.553,220.643,278.172L220.643,278.172z"/>
			</g>
		</g>
	</g>
	<g>
		<g>
			<path style="fill:#FFFFFF;" d="M193.357,77.728c-13.671,23.126-27.342,46.252-41.013,69.378
				c-3.29,5.564,5.357,10.592,8.635,5.047c13.671-23.126,27.342-46.252,41.013-69.378C205.281,77.211,196.636,72.183,193.357,77.728
				L193.357,77.728z"/>
		</g>
	</g>
	<g>
		<g>
			<path style="fill:#FFFFFF;" d="M210.272,77.728c-13.671,23.126-27.342,46.252-41.013,69.378
				c-3.29,5.564,5.357,10.592,8.635,5.047c13.671-23.126,27.342-46.252,41.013-69.378C222.196,77.211,213.551,72.183,210.272,77.728
				L210.272,77.728z"/>
		</g>
	</g>
</g>
<g id="Ebene_1">
</g>
</svg>
