<?xml version="1.0" encoding="iso-8859-1"?>
<!-- Generator: Adobe Illustrator 16.0.0, SVG Export Plug-In . SVG Version: 6.00 Build 0)  -->
<!DOCTYPE svg PUBLIC "-//W3C//DTD SVG 1.1 Tiny//EN" "http://www.w3.org/Graphics/SVG/1.1/DTD/svg11-tiny.dtd">
<svg version="1.1" baseProfile="tiny" id="message_x5F_ok"
	 xmlns="http://www.w3.org/2000/svg" xmlns:xlink="http://www.w3.org/1999/xlink" x="0px" y="0px" width="361px" height="361px"
	 viewBox="0 0 361 361" xml:space="preserve">
<g>
	<path fill="#FFFFFF" d="M144.299,291.087c25.825-37.403,51.649-74.806,77.473-112.209c22.049-31.934,44.097-63.869,66.146-95.803
		c5.504-7.972-7.529-15.41-12.99-7.5c-25.825,37.403-51.649,74.806-77.473,112.209c-22.049,31.934-44.097,63.869-66.146,95.803
		C125.805,291.559,138.838,298.997,144.299,291.087L144.299,291.087z"/>
</g>
<g>
	<path fill="#FFFFFF" d="M141.554,280.842c-20.748-14.889-41.497-29.779-62.245-44.668c-3.326-2.387-8.353-0.532-10.245,2.745
		c-2.194,3.8-0.573,7.864,2.745,10.245c20.748,14.889,41.497,29.779,62.245,44.668c3.326,2.387,8.353,0.532,10.245-2.745
		C146.494,287.287,144.873,283.223,141.554,280.842L141.554,280.842z"/>
</g>
</svg>
