<?xml version="1.0" encoding="iso-8859-1"?>
<!-- Generator: Adobe Illustrator 16.0.0, SVG Export Plug-In . SVG Version: 6.00 Build 0)  -->
<!DOCTYPE svg PUBLIC "-//W3C//DTD SVG 1.1//EN" "http://www.w3.org/Graphics/SVG/1.1/DTD/svg11.dtd">
<svg version="1.1" xmlns="http://www.w3.org/2000/svg" xmlns:xlink="http://www.w3.org/1999/xlink" x="0px" y="0px" width="361px"
	 height="361px" viewBox="0 0 361 361" style="enable-background:new 0 0 361 361;" xml:space="preserve">
<g id="message_x5F_achtung">
	<g>
		<g>
			<g>
				<g>
					<path style="fill:#FFFFFF;" d="M288.762,91.136c-6.349-6.349-12.697-12.698-19.047-19.046
						c-6.836-6.835-17.403,3.813-10.551,10.665c6.349,6.349,12.697,12.698,19.047,19.046
						C285.047,108.636,295.614,97.988,288.762,91.136L288.762,91.136z"/>
				</g>
			</g>
			<g>
				<g>
					<path style="fill:#FFFFFF;" d="M289.531,138.666c-22.192-22.192-44.385-44.384-66.577-66.577
						c-6.835-6.835-17.403,3.813-10.551,10.665c22.192,22.192,44.385,44.384,66.577,66.577
						C285.816,156.167,296.384,145.519,289.531,138.666L289.531,138.666z"/>
				</g>
			</g>
			<g>
				<g>
					<path style="fill:#FFFFFF;" d="M196.01,138.666c-22.192-22.192-44.384-44.384-66.576-66.577
						c-6.835-6.836-17.403,3.813-10.551,10.665c22.192,22.192,44.384,44.384,66.576,66.577
						C192.294,156.167,202.862,145.519,196.01,138.666L196.01,138.666z"/>
				</g>
			</g>
			<g>
				<g>
					<path style="fill:#FFFFFF;" d="M101.682,137.919c-6.336-6.357-12.673-12.714-19.009-19.071
						c-6.825-6.847-17.393,3.802-10.552,10.665c6.337,6.357,12.673,12.714,19.01,19.071
						C97.956,155.432,108.523,144.782,101.682,137.919L101.682,137.919z"/>
				</g>
			</g>
			<g>
				<g>
					<path style="fill:#FFFFFF;" d="M242.771,138.666c-22.192-22.192-44.384-44.384-66.576-66.577
						c-6.836-6.835-17.404,3.813-10.552,10.665c22.192,22.192,44.385,44.384,66.577,66.577
						C239.055,156.167,249.623,145.519,242.771,138.666L242.771,138.666z"/>
				</g>
			</g>
			<g>
				<g>
					<path style="fill:#FFFFFF;" d="M148.539,137.896c-21.956-21.936-43.911-43.872-65.866-65.807
						c-6.839-6.833-17.407,3.815-10.552,10.665c21.956,21.936,43.911,43.872,65.866,65.807
						C144.826,155.394,155.395,144.746,148.539,137.896L148.539,137.896z"/>
				</g>
			</g>
		</g>
		<g>
			<g>
				<g>
					<path style="fill:#FFFFFF;" d="M82.729,242.795c6.645-6.605,13.291-13.211,19.936-19.816
						c6.857-6.815-3.793-17.382-10.665-10.551c-6.645,6.605-13.291,13.211-19.936,19.816
						C65.208,239.06,75.857,249.626,82.729,242.795L82.729,242.795z"/>
				</g>
			</g>
			<g>
				<g>
					<path style="fill:#FFFFFF;" d="M130.26,288.784c22.036-21.935,44.072-43.87,66.108-65.806
						c6.852-6.82-3.798-17.387-10.666-10.551c-22.035,21.935-44.071,43.87-66.107,65.806
						C112.743,285.054,123.393,295.62,130.26,288.784L130.26,288.784z"/>
				</g>
			</g>
			<g>
				<g>
					<path style="fill:#FFFFFF;" d="M177.021,288.784c21.936-21.935,43.871-43.87,65.807-65.806
						c6.835-6.835-3.813-17.403-10.666-10.551c-21.935,21.935-43.87,43.87-65.806,65.806
						C159.52,285.068,170.168,295.637,177.021,288.784L177.021,288.784z"/>
				</g>
			</g>
			<g>
				<g>
					<path style="fill:#FFFFFF;" d="M223.829,288.737c21.92-21.919,43.839-43.839,65.759-65.759
						c6.836-6.835-3.812-17.403-10.664-10.551c-21.921,21.919-43.841,43.839-65.761,65.759
						C206.328,285.021,216.976,295.59,223.829,288.737L223.829,288.737z"/>
				</g>
			</g>
			<g>
				<g>
					<path style="fill:#FFFFFF;" d="M270.541,288.783c6.35-6.349,12.698-12.697,19.047-19.046
						c6.836-6.835-3.812-17.403-10.664-10.551c-6.35,6.349-12.698,12.697-19.048,19.046
						C253.041,285.067,263.688,295.636,270.541,288.783L270.541,288.783z"/>
				</g>
			</g>
			<g>
				<g>
					<path style="fill:#FFFFFF;" d="M83.499,288.784c21.894-21.935,43.788-43.87,65.682-65.806
						c6.829-6.842-3.819-17.41-10.665-10.551c-21.894,21.935-43.788,43.87-65.682,65.806
						C66.005,285.075,76.653,295.644,83.499,288.784L83.499,288.784z"/>
				</g>
			</g>
		</g>
		<g>
			<g>
				<path style="fill:#FFFFFF;" d="M282.013,283.09c0.524-1.939,4.381-1.719,1.976-1.719c-0.958,0-1.917,0-2.876,0
					c-3.488,0-6.976,0-10.464,0c-11.973,0-23.944,0-35.917,0c-32.054,0-64.108,0-96.162,0c-20.246,0-40.492,0-60.738,0
					c-3.048,0,2.001,5.053,2.001,1.995c0-2.481,0-4.964,0-7.445c0-10.593,0-21.185,0-31.777c0-54.688,0-109.375,0-164.063
					c0-0.867,0-1.734,0-2.601c0-2.744,0.16,2.149-3.023,2.149c1.451,0,2.902,0,4.353,0c9.069,0,18.138,0,27.207,0
					c30.93,0,61.861,0,92.792,0c25.365,0,50.73,0,76.097,0c2.29,0,4.581,0,6.872,0c2.135,0-2.296-5.205-2.296-1.653
					c0,7.303,0,14.606,0,21.909c0,57.269,0,114.538,0,171.806c0,4.243,0,8.485,0,12.729c0,6.448,10,6.448,10,0
					c0-48.906,0-97.813,0-146.719c0-20.073,0-40.147,0-60.22c0-7.655-6.365-7.851-11.979-7.851c-9.35,0-18.7,0-28.05,0
					c-56.063,0-112.125,0-168.188,0c-5.535,0-13.785-0.917-13.785,7.261c0,5.989,0,11.978,0,17.967c0,28.881,0,57.762,0,86.643
					c0,28.607,0,57.214,0,85.821c0,5.646,0,11.293,0,16.94c0,8.308,9.044,7.11,14.577,7.11c56.296,0,112.591,0,168.887,0
					c8.121,0,16.241,0,24.361,0c5.374,0,12.173,1.126,13.997-5.623C293.34,279.514,283.693,276.871,282.013,283.09z"/>
			</g>
		</g>
	</g>
	<path style="fill:#FFFFFF;" d="M108.823,208.263c-0.328-1.927-0.679-3.905-1.056-5.935c-0.377-2.03-0.752-4.053-1.125-6.065H95.154
		c-0.371,2.022-0.744,4.049-1.117,6.081c-0.374,2.033-0.721,4.006-1.043,5.919h-6.875c1.107-5.973,2.156-11.493,3.15-16.56
		s1.965-9.84,2.916-14.32c0.951-4.48,1.888-8.732,2.81-12.76c0.923-4.026,1.881-7.96,2.874-11.8h6.276
		c0.967,3.84,1.919,7.774,2.857,11.8c0.938,4.028,1.884,8.28,2.836,12.76c0.952,4.48,1.925,9.254,2.92,14.32
		c0.995,5.066,2.047,10.587,3.156,16.56H108.823z M100.868,165.383c-0.148,0.805-0.364,1.901-0.649,3.286
		c-0.285,1.386-0.608,2.987-0.972,4.804s-0.77,3.816-1.219,6c-0.449,2.184-0.905,4.474-1.369,6.87h8.412
		c-0.45-2.403-0.886-4.701-1.308-6.891c-0.422-2.19-0.823-4.194-1.203-6.011c-0.38-1.816-0.713-3.417-1-4.801
		C101.275,167.255,101.043,166.17,100.868,165.383z"/>
	<path style="fill:#FFFFFF;" d="M129.603,209.468c-4.782,0-8.425-2.466-10.929-7.399c-2.504-4.934-3.756-11.939-3.756-21.019
		c0-4.513,0.382-8.541,1.146-12.083c0.764-3.543,1.811-6.534,3.141-8.974c1.33-2.44,2.915-4.29,4.754-5.549
		c1.839-1.26,3.834-1.89,5.984-1.89c1.245,0,2.377,0.171,3.396,0.512c1.019,0.342,1.91,0.735,2.674,1.181
		c0.764,0.447,1.4,0.905,1.91,1.377c0.509,0.473,0.877,0.84,1.104,1.103l-1.91,9.918c-0.906-0.892-1.959-1.653-3.162-2.283
		c-1.203-0.629-2.568-0.945-4.096-0.945c-1.019,0-2.016,0.315-2.993,0.945c-0.976,0.63-1.839,1.641-2.589,3.031
		c-0.75,1.391-1.352,3.188-1.804,5.393s-0.679,4.88-0.679,8.029c0,2.519,0.149,4.868,0.446,7.046s0.777,4.053,1.443,5.628
		c0.665,1.575,1.535,2.821,2.61,3.739c1.075,0.919,2.377,1.377,3.905,1.377c0.962,0,1.825-0.104,2.589-0.314
		c0.764-0.209,1.443-0.459,2.037-0.748c0.594-0.287,1.118-0.616,1.57-0.984c0.452-0.365,0.863-0.708,1.231-1.022l1.825,9.84
		c-0.934,1.05-2.25,1.995-3.947,2.834S131.838,209.468,129.603,209.468z"/>
	<path style="fill:#FFFFFF;" d="M158.996,152.823h6.621v55.44h-6.621v-23.521h-11.121v23.521h-6.621v-55.44h6.621v21.2h11.121
		V152.823z"/>
	<path style="fill:#FFFFFF;" d="M192.598,152.823v10.64h-8.871v44.8h-6.622v-44.8h-8.871v-10.64H192.598z"/>
	<path style="fill:#FFFFFF;" d="M207.531,209.383c-2.066,0-3.849-0.548-5.349-1.641c-1.5-1.092-2.737-2.611-3.714-4.56
		c-0.977-1.946-1.697-4.267-2.164-6.96c-0.467-2.692-0.701-5.666-0.701-8.92v-34.48h6.621v33.44c0,2.24,0.135,4.147,0.404,5.72
		c0.268,1.574,0.637,2.854,1.104,3.84c0.467,0.988,1.032,1.694,1.697,2.121c0.664,0.427,1.394,0.639,2.186,0.639
		c1.613,0,2.922-0.932,3.927-2.799c1.004-1.867,1.507-5.041,1.507-9.521v-33.44h6.621v34.48c0,3.254-0.24,6.24-0.722,8.96
		s-1.217,5.054-2.207,7c-0.991,1.947-2.249,3.454-3.778,4.521C211.436,208.85,209.625,209.383,207.531,209.383z"/>
	<path style="fill:#FFFFFF;" d="M242.52,208.263c-1.896-6.347-3.948-12.612-6.154-18.8c-2.208-6.187-4.557-12.026-7.047-17.52v36.32
		h-6.536v-55.44h5.391c0.934,1.76,1.966,3.92,3.099,6.48c1.131,2.56,2.285,5.294,3.459,8.2c1.174,2.907,2.341,5.92,3.502,9.04
		c1.16,3.12,2.25,6.12,3.268,9v-32.72h6.579v55.44H242.52z"/>
	<path style="fill:#FFFFFF;" d="M266.776,163.272c-3.085,0-5.313,1.588-6.685,4.761c-1.373,3.175-2.06,7.516-2.06,13.025
		c0,2.675,0.171,5.102,0.51,7.278c0.339,2.178,0.849,4.052,1.528,5.626c0.679,1.574,1.527,2.795,2.547,3.66
		c1.018,0.865,2.207,1.299,3.564,1.299c0.735,0,1.365-0.026,1.889-0.08c0.523-0.051,0.983-0.156,1.38-0.314v-18.965h6.621v26.992
		c-0.792,0.578-2.065,1.194-3.819,1.85c-1.756,0.655-3.92,0.984-6.494,0.984c-2.207,0-4.209-0.631-6.006-1.889
		c-1.798-1.26-3.332-3.096-4.605-5.51c-1.273-2.412-2.257-5.377-2.95-8.893c-0.693-3.514-1.04-7.527-1.04-12.039
		c0-4.565,0.383-8.605,1.146-12.12c0.764-3.514,1.811-6.493,3.141-8.932s2.893-4.289,4.69-5.547c1.796-1.26,3.714-1.889,5.751-1.889
		c1.386,0,2.639,0.171,3.756,0.512c1.118,0.342,2.08,0.735,2.887,1.18c0.807,0.447,1.471,0.905,1.994,1.377
		c0.523,0.473,0.898,0.84,1.125,1.102l-1.91,9.837c-0.905-0.892-1.945-1.665-3.119-2.321
		C269.442,163.601,268.162,163.272,266.776,163.272z"/>
</g>
<g id="Ebene_1">
</g>
</svg>
