<?xml version="1.0" encoding="iso-8859-1"?>
<!-- Generator: Adobe Illustrator 16.0.0, SVG Export Plug-In . SVG Version: 6.00 Build 0)  -->
<!DOCTYPE svg PUBLIC "-//W3C//DTD SVG 1.1//EN" "http://www.w3.org/Graphics/SVG/1.1/DTD/svg11.dtd">
<svg version="1.1" xmlns="http://www.w3.org/2000/svg" xmlns:xlink="http://www.w3.org/1999/xlink" x="0px" y="0px" width="361px"
	 height="361px" viewBox="0 0 361 361" style="enable-background:new 0 0 361 361;" xml:space="preserve">
<g id="message_x5F_stop">
	<g>
		<g>
			<path style="fill:#FFFFFF;" d="M143.766,277.73c-20.053-20.005-40.104-40.01-60.157-60.015c0.742,1.796,1.484,3.592,2.226,5.387
				c0-28.291,0-56.583,0-84.875c-0.723,1.74-1.446,3.481-2.169,5.221c20.052-20.005,40.104-40.01,60.157-60.015
				c-1.795,0.742-3.591,1.484-5.387,2.226c28.358,0,56.717,0,85.075,0c-1.741-0.723-3.481-1.446-5.222-2.169
				c20.052,20.005,40.104,40.01,60.156,60.015c-0.742-1.795-1.484-3.591-2.227-5.387c0,28.292,0,56.583,0,84.875
				c0.724-1.741,1.446-3.481,2.17-5.222c-20.053,20.004-40.104,40.009-60.157,60.014c1.796-0.742,3.592-1.484,5.387-2.227
				c-28.357,0-56.716,0-85.074,0c-9.687,0-9.772,15.004-0.108,15.004c24.881,0,49.762,0,74.643,0c3.432,0,6.863,0,10.294,0
				c4.063,0,6.503-3.202,9.107-5.801c10.005-9.98,20.009-19.961,30.014-29.941c8.569-8.55,17.14-17.1,25.71-25.649
				c2.457-2.451,3.02-5.231,3.02-8.519c0-5.184,0-10.367,0-15.551c0-15.73,0-31.46,0-47.19c0-5.487,0-10.975,0-16.461
				c0-3.454-0.037-6.426-2.746-9.129c-18.437-18.393-36.874-36.787-55.311-55.18c-2.629-2.623-5.496-6.485-9.563-6.485
				c-3.029,0-6.059,0-9.089,0c-15.085,0-30.171,0-45.256,0c-10.217,0-20.435,0-30.652,0c-4.104,0-6.749,3.523-9.396,6.164
				c-4.376,4.367-8.753,8.733-13.13,13.1c-11.048,11.022-22.097,22.045-33.146,33.067c-3.086,3.079-6.172,6.158-9.258,9.236
				c-2.559,2.552-2.845,5.39-2.845,8.72c0,26.409,0,52.818,0,79.227c0,3.394,0.295,6.284,2.901,8.885
				c3.086,3.078,6.172,6.157,9.258,9.235c11.048,11.022,22.097,22.045,33.146,33.067c5.692,5.679,11.385,11.357,17.077,17.036
				C140.058,295.223,150.626,284.575,143.766,277.73z"/>
		</g>
	</g>
	<g>
		<path style="fill:#FFFFFF;" d="M111.125,195.075c1.496,0,2.73-0.124,3.706-0.374c0.974-0.249,1.756-0.589,2.346-1.02
			c0.588-0.432,0.997-0.941,1.224-1.531c0.227-0.588,0.34-1.246,0.34-1.971c0-1.541-0.726-2.822-2.176-3.843
			c-1.451-1.021-3.944-2.118-7.48-3.298c-1.542-0.544-3.083-1.166-4.624-1.87c-1.542-0.702-2.924-1.586-4.148-2.652
			c-1.224-1.065-2.222-2.357-2.992-3.876c-0.771-1.519-1.156-3.366-1.156-5.542c0-2.176,0.408-4.136,1.224-5.882
			c0.816-1.745,1.972-3.23,3.468-4.454c1.496-1.224,3.309-2.165,5.44-2.822c2.13-0.657,4.533-0.986,7.208-0.986
			c3.173,0,5.916,0.34,8.228,1.02c2.312,0.68,4.216,1.428,5.712,2.244l-3.06,8.364c-1.315-0.68-2.777-1.28-4.386-1.802
			c-1.61-0.521-3.548-0.782-5.814-0.782c-2.54,0-4.364,0.352-5.474,1.054c-1.111,0.703-1.666,1.779-1.666,3.23
			c0,0.861,0.204,1.587,0.612,2.176c0.408,0.59,0.986,1.122,1.734,1.598s1.608,0.907,2.584,1.292c0.974,0.386,2.05,0.782,3.23,1.19
			c2.448,0.907,4.578,1.802,6.392,2.686c1.813,0.884,3.32,1.916,4.522,3.094c1.201,1.179,2.096,2.562,2.686,4.148
			c0.588,1.588,0.884,3.514,0.884,5.78c0,4.397-1.542,7.81-4.624,10.233c-3.083,2.426-7.729,3.639-13.94,3.639
			c-2.085,0-3.967-0.125-5.644-0.374c-1.678-0.25-3.162-0.556-4.454-0.918s-2.403-0.748-3.332-1.156
			c-0.93-0.407-1.711-0.792-2.346-1.155l2.992-8.433c1.405,0.771,3.139,1.462,5.202,2.074
			C105.605,194.77,108.133,195.075,111.125,195.075z"/>
		<path style="fill:#FFFFFF;" d="M171.441,156.043v9.044h-14.212v38.08h-10.608v-38.08h-14.212v-9.044H171.441z"/>
		<path style="fill:#FFFFFF;" d="M221.557,179.571c0,4.036-0.601,7.582-1.801,10.642c-1.202,3.061-2.846,5.621-4.931,7.684
			c-2.085,2.064-4.567,3.616-7.446,4.658c-2.879,1.043-5.973,1.564-9.281,1.564c-3.22,0-6.256-0.521-9.112-1.564
			c-2.856-1.042-5.35-2.594-7.479-4.658c-2.132-2.063-3.809-4.623-5.033-7.684c-1.224-3.061-1.836-6.606-1.836-10.642
			c0-4.034,0.634-7.582,1.904-10.642c1.269-3.06,2.98-5.632,5.134-7.718c2.152-2.084,4.646-3.648,7.479-4.692
			c2.833-1.042,5.813-1.564,8.942-1.564c3.218,0,6.256,0.521,9.111,1.564c2.856,1.043,5.35,2.607,7.48,4.692
			c2.131,2.086,3.808,4.658,5.031,7.718C220.945,171.989,221.557,175.537,221.557,179.571z M185.586,179.571
			c0,2.312,0.282,4.398,0.85,6.256c0.566,1.859,1.382,3.457,2.447,4.794c1.064,1.338,2.369,2.369,3.91,3.094
			c1.541,0.727,3.309,1.088,5.305,1.088c1.948,0,3.705-0.361,5.27-1.088c1.564-0.725,2.879-1.756,3.944-3.094
			c1.064-1.337,1.88-2.935,2.448-4.794c0.566-1.858,0.85-3.944,0.85-6.256s-0.283-4.408-0.85-6.29
			c-0.568-1.88-1.384-3.49-2.448-4.828c-1.065-1.337-2.38-2.369-3.944-3.094c-1.564-0.725-3.321-1.088-5.27-1.088
			c-1.996,0-3.764,0.374-5.305,1.122s-2.846,1.792-3.91,3.128c-1.065,1.338-1.881,2.947-2.447,4.828
			C185.868,175.23,185.586,177.305,185.586,179.571z"/>
		<path style="fill:#FFFFFF;" d="M244.541,155.499c7.026,0,12.42,1.236,16.184,3.706c3.763,2.471,5.645,6.517,5.645,12.138
			c0,5.667-1.904,9.759-5.712,12.274s-9.248,3.773-16.32,3.773h-3.332v15.776h-10.608v-46.444c2.313-0.453,4.761-0.771,7.345-0.952
			C240.325,155.59,242.592,155.499,244.541,155.499z M245.221,164.543c-0.771,0-1.529,0.023-2.277,0.068
			c-0.748,0.046-1.395,0.091-1.938,0.136v13.6h3.332c3.672,0,6.437-0.499,8.296-1.496c1.858-0.997,2.788-2.856,2.788-5.576
			c0-1.314-0.237-2.402-0.714-3.264c-0.477-0.861-1.156-1.553-2.04-2.074c-0.884-0.521-1.962-0.884-3.229-1.088
			C248.168,164.645,246.762,164.543,245.221,164.543z"/>
	</g>
</g>
<g id="Ebene_1">
</g>
</svg>
