<?xml version="1.0" encoding="iso-8859-1"?>
<!-- Generator: Adobe Illustrator 16.0.0, SVG Export Plug-In . SVG Version: 6.00 Build 0)  -->
<!DOCTYPE svg PUBLIC "-//W3C//DTD SVG 1.1//EN" "http://www.w3.org/Graphics/SVG/1.1/DTD/svg11.dtd">
<svg version="1.1" xmlns="http://www.w3.org/2000/svg" xmlns:xlink="http://www.w3.org/1999/xlink" x="0px" y="0px" width="361px"
	 height="361px" viewBox="0 0 361 361" style="enable-background:new 0 0 361 361;" xml:space="preserve">
<g id="message_x5F_attention">
	<g>
		<g>
			<path style="fill:#FFFFFF;" d="M83.527,273.486c24.396-42.254,48.791-84.509,73.187-126.763
				c10.162-17.602,20.325-35.204,30.487-52.806c-4.321,0.016-8.643,0.032-12.965,0.048c24.396,42.254,48.791,84.509,73.188,126.763
				c10.162,17.603,20.325,35.204,30.487,52.807c2.175-3.767,4.35-7.533,6.523-11.3c-48.791,0-97.582,0-146.374,0
				c-20.325,0-40.65,0-60.975,0c-9.687,0-9.772,15.004-0.108,15.004c48.792,0,97.583,0,146.374,0c20.325,0,40.65,0,60.976,0
				c5.736,0,9.392-6.332,6.523-11.3c-24.396-42.254-48.791-84.509-73.188-126.763c-10.162-17.602-20.325-35.204-30.487-52.806
				c-2.828-4.898-10.158-4.814-12.965,0.048c-24.396,42.254-48.791,84.509-73.187,126.764
				c-10.162,17.602-20.325,35.204-30.487,52.806C65.696,274.37,78.687,281.87,83.527,273.486z"/>
		</g>
	</g>
	<g>
		<g>
			<path style="fill:#FFFFFF;" d="M173.332,142.613c0,21.25,0,42.5,0,63.75c0,9.686,15.003,9.771,15.003,0.107
				c0-21.25,0-42.5,0-63.75C188.335,133.035,173.332,132.949,173.332,142.613L173.332,142.613z"/>
		</g>
	</g>
	<g>
		<g>
			<path style="fill:#FFFFFF;" d="M173.332,235.113c0,2.416,0,4.833,0,7.25c0,4.086,3.341,7.528,7.447,7.556
				c4.066,0.026,7.556-3.362,7.556-7.448c0-2.416,0-4.833,0-7.25c0-4.086-3.342-7.528-7.448-7.556
				C176.822,227.639,173.332,231.027,173.332,235.113L173.332,235.113z"/>
		</g>
	</g>
</g>
<g id="Ebene_1">
</g>
</svg>
