<?xml version="1.0" encoding="iso-8859-1"?>
<!-- Generator: Adobe Illustrator 16.0.0, SVG Export Plug-In . SVG Version: 6.00 Build 0)  -->
<!DOCTYPE svg PUBLIC "-//W3C//DTD SVG 1.1 Tiny//EN" "http://www.w3.org/Graphics/SVG/1.1/DTD/svg11-tiny.dtd">
<svg version="1.1" baseProfile="tiny" id="message_x5F_socket_x5F_on_x5F_off"
	 xmlns="http://www.w3.org/2000/svg" xmlns:xlink="http://www.w3.org/1999/xlink" x="0px" y="0px" width="361px" height="361px"
	 viewBox="0 0 361 361" xml:space="preserve">
<path fill="none" stroke="#FFFFFF" stroke-width="10" stroke-miterlimit="10" d="M209.703,286.137c0,2.025-1.789,3.667-3.995,3.667
	H76.32c-2.207,0-3.995-1.642-3.995-3.667V156.092c0-2.025,1.789-3.667,3.995-3.667h129.388c2.206,0,3.995,1.642,3.995,3.667V286.137
	z"/>
<path fill="none" stroke="#FFFFFF" stroke-width="10" stroke-miterlimit="10" d="M184.447,261.605c0,1.268-1.119,2.295-2.5,2.295
	h-80.971c-1.381,0-2.5-1.027-2.5-2.295v-81.382c0-1.268,1.119-2.295,2.5-2.295h80.971c1.381,0,2.5,1.027,2.5,2.295V261.605z"/>
<path fill="none" stroke="#FFFFFF" stroke-width="10" stroke-miterlimit="10" d="M124.287,224.294c0,0.093-0.082,0.168-0.184,0.168
	h-5.954c-0.102,0-0.185-0.076-0.185-0.168v-5.985c0-0.093,0.083-0.168,0.185-0.168h5.954c0.102,0,0.184,0.076,0.184,0.168V224.294z"
	/>
<path fill="none" stroke="#FFFFFF" stroke-width="10" stroke-miterlimit="10" d="M143.447,263.387c0,0.036-0.07,0.065-0.157,0.065
	h-5.093c-0.086,0-0.157-0.03-0.157-0.065v-2.309c0-0.036,0.07-0.065,0.157-0.065h5.093c0.087,0,0.157,0.029,0.157,0.065V263.387z"/>
<g>
	<polygon fill="#FFFFFF" points="100.109,194.532 100.025,179.24 115.318,179.323 	"/>
	<g>
		<path fill="#FFFFFF" d="M105.109,194.532c-0.028-5.097-0.056-10.195-0.083-15.292c-1.667,1.667-3.333,3.333-5,5
			c5.098,0.027,10.195,0.055,15.292,0.083c-1.179-2.845-2.357-5.69-3.536-8.536c-5.069,5.07-10.139,10.14-15.209,15.209
			c-4.563,4.564,2.508,11.635,7.071,7.071c5.069-5.07,10.139-10.14,15.209-15.209c3.098-3.098,0.816-8.512-3.536-8.536
			c-5.098-0.027-10.195-0.055-15.292-0.083c-2.714-0.015-5.015,2.285-5,5c0.028,5.097,0.056,10.195,0.083,15.292
			C95.144,200.979,105.144,200.982,105.109,194.532z"/>
	</g>
</g>
<g>
	<polygon fill="#FFFFFF" points="168.188,179.323 183.48,179.24 183.397,194.532 	"/>
	<g>
		<path fill="#FFFFFF" d="M168.188,184.323c5.097-0.027,10.195-0.055,15.292-0.083c-1.667-1.667-3.333-3.333-5-5
			c-0.028,5.097-0.055,10.195-0.083,15.292c2.845-1.179,5.69-2.357,8.536-3.536c-5.07-5.07-10.14-10.14-15.209-15.209
			c-4.563-4.563-11.635,2.507-7.071,7.071c5.07,5.07,10.14,10.14,15.209,15.209c3.098,3.098,8.512,0.816,8.536-3.536
			c0.028-5.097,0.055-10.195,0.083-15.292c0.015-2.715-2.286-5.015-5-5c-5.097,0.027-10.195,0.055-15.292,0.083
			C161.742,174.357,161.738,184.357,168.188,184.323z"/>
	</g>
</g>
<g>
	<polygon fill="#FFFFFF" points="182.75,247.402 182.833,262.695 167.541,262.612 	"/>
	<g>
		<path fill="#FFFFFF" d="M177.75,247.402c0.028,5.098,0.055,10.195,0.083,15.292c1.667-1.667,3.333-3.333,5-5
			c-5.097-0.028-10.195-0.055-15.292-0.083c1.179,2.845,2.357,5.69,3.536,8.536c5.069-5.07,10.139-10.14,15.209-15.209
			c4.563-4.564-2.508-11.635-7.071-7.071c-5.069,5.07-10.139,10.14-15.209,15.209c-3.098,3.098-0.816,8.512,3.536,8.536
			c5.097,0.028,10.195,0.055,15.292,0.083c2.714,0.015,5.015-2.286,5-5c-0.028-5.098-0.055-10.195-0.083-15.292
			C187.715,240.956,177.715,240.952,177.75,247.402z"/>
	</g>
</g>
<g>
	<polygon fill="#FFFFFF" points="115.317,262.611 100.025,262.694 100.108,247.402 	"/>
	<g>
		<path fill="#FFFFFF" d="M115.317,257.611c-5.097,0.028-10.195,0.055-15.292,0.083c1.667,1.667,3.333,3.333,5,5
			c0.028-5.097,0.055-10.195,0.083-15.292c-2.845,1.179-5.69,2.357-8.536,3.536c5.07,5.069,10.14,10.139,15.209,15.209
			c4.564,4.563,11.635-2.507,7.071-7.071c-5.07-5.069-10.14-10.139-15.209-15.209c-3.098-3.098-8.512-0.816-8.536,3.536
			c-0.028,5.097-0.055,10.195-0.083,15.292c-0.015,2.714,2.286,5.015,5,5c5.097-0.028,10.195-0.055,15.292-0.083
			C121.764,267.576,121.767,257.576,115.317,257.611z"/>
	</g>
</g>
<path fill="none" stroke="#FFFFFF" stroke-width="10" stroke-miterlimit="10" d="M164.438,224.294c0,0.093-0.083,0.168-0.184,0.168
	h-5.955c-0.101,0-0.184-0.076-0.184-0.168v-5.985c0-0.093,0.083-0.168,0.184-0.168h5.955c0.101,0,0.184,0.076,0.184,0.168V224.294z"
	/>
<path fill="none" stroke="#FFFFFF" stroke-width="10" stroke-miterlimit="10" d="M143.663,180.496c0,0.036-0.07,0.065-0.157,0.065
	h-5.092c-0.086,0-0.157-0.03-0.157-0.065v-2.308c0-0.036,0.071-0.066,0.157-0.066h5.092c0.087,0,0.157,0.03,0.157,0.066V180.496z"/>
<g id="ein_x5F_aus_1_">
	<g>
		<path fill="#FFFFFF" d="M282.681,128.418c-0.513,8.886-9.127,7.96-15.471,7.96c-7.75,0-15.501,0-23.252,0
			c-5.376,0-13.058,1.416-16.638-3.583c-2.708-3.781-1.306-11.851-1.306-16.128c0-7.665,0-15.33,0-22.995
			c0-5.901-0.268-13.961,8.084-13.961c12.595,0,25.189,0,37.784,0c5.227,0,10.798,1.603,10.798,8.085c0,3.875,0,7.75,0,11.626
			C282.681,109.087,282.681,118.753,282.681,128.418c0,4.514,7,4.514,7,0c0-12.253,0-24.505,0-36.758
			c0-6.784-1.089-12.417-7.05-16.687c-4.412-3.16-11.093-2.262-16.219-2.262c-7.768,0-15.535,0-23.303,0
			c-5.455,0-10.815-0.524-15.941,1.643c-6.807,2.878-8.153,10.219-8.153,16.71c0,7.289,0,14.578,0,21.867
			c0,7.144-1.202,15.564,1.643,22.293c3.744,8.857,13.781,8.154,21.626,8.154c9.483,0,18.966,0,28.449,0
			c3.009,0,5.848,0.074,8.784-0.793c6.275-1.854,9.809-7.985,10.165-14.167C289.941,123.907,282.939,123.932,282.681,128.418z"/>
	</g>
	<g>
		<path fill="#FFFFFF" d="M251.024,89.504c0,12.361,0,24.722,0,37.083c0,4.514,7,4.514,7,0c0-12.361,0-24.722,0-37.083
			C258.024,84.99,251.024,84.99,251.024,89.504L251.024,89.504z"/>
	</g>
</g>
</svg>
