<?xml version="1.0" encoding="iso-8859-1"?>
<!-- Generator: Adobe Illustrator 16.0.0, SVG Export Plug-In . SVG Version: 6.00 Build 0)  -->
<!DOCTYPE svg PUBLIC "-//W3C//DTD SVG 1.1//EN" "http://www.w3.org/Graphics/SVG/1.1/DTD/svg11.dtd">
<svg version="1.1" xmlns="http://www.w3.org/2000/svg" xmlns:xlink="http://www.w3.org/1999/xlink" x="0px" y="0px" width="361px"
	 height="361px" viewBox="0 0 361 361" style="enable-background:new 0 0 361 361;" xml:space="preserve">
<g id="message_x5F_bell">
	<g style="display:none;">
		<g style="display:inline;">
			<g>
				<path style="fill:#FFFFFF;" d="M276.033,227.524c-0.264,21.84-14.327,41.07-35.273,47.551
					c-20.997,6.497-44.063-2.393-55.993-20.611c-12.03-18.37-9.941-43.151,4.399-59.6c14.372-16.485,38.711-21.485,58.468-12.16
					C264.969,190.887,275.804,208.495,276.033,227.524c0.117,9.678,15.12,9.774,15.004,0.107
					c-0.285-23.601-12.93-45.152-33.556-56.708c-20.663-11.576-46.938-10.132-66.614,2.754
					c-19.622,12.85-30.717,36.129-28.741,59.425c1.966,23.186,16.774,44.003,38.044,53.442c20.025,8.888,43.533,6.932,61.856-5.067
					c18.09-11.847,28.75-32.366,29.01-53.847C291.154,217.94,276.15,217.866,276.033,227.524z"/>
			</g>
		</g>
		<g style="display:inline;">
			<g>
				<path style="fill:#FFFFFF;" d="M191.411,273.221c26.912-26.912,53.824-53.824,80.737-80.736
					c6.835-6.835-3.813-17.403-10.666-10.551c-26.912,26.912-53.824,53.824-80.737,80.736
					C173.91,269.505,184.558,280.073,191.411,273.221L191.411,273.221z"/>
			</g>
		</g>
	</g>
	<g>
		<g>
			<path style="fill:#FFFFFF;" d="M115.938,122.007c-31.769,32.364-31.769,84.515-0.001,116.879c4.523,4.608,11.59-2.467,7.071-7.07
				c-27.959-28.485-27.959-74.254,0.001-102.738C127.527,124.475,120.46,117.4,115.938,122.007L115.938,122.007z"/>
		</g>
	</g>
	<g>
		<g>
			<path style="fill:#FFFFFF;" d="M100.17,107.482c-19.296,19.582-30.146,45.687-30.337,73.185
				c-0.19,27.35,11.239,53.804,30.337,73.185c4.532,4.599,11.6-2.476,7.071-7.07c-36-36.533-36-95.695,0-132.228
				C111.77,109.958,104.702,102.883,100.17,107.482L100.17,107.482z"/>
		</g>
	</g>
	<g>
		<g>
			<path style="fill:#FFFFFF;" d="M246.035,239.326c31.77-32.363,31.77-84.515,0.001-116.879c-4.522-4.608-11.59,2.467-7.07,7.071
				c27.959,28.484,27.959,74.253-0.001,102.738C234.445,236.859,241.513,243.935,246.035,239.326L246.035,239.326z"/>
		</g>
	</g>
	<g>
		<g>
			<path style="fill:#FFFFFF;" d="M261.803,253.852c19.296-19.581,30.146-45.687,30.337-73.184
				c0.189-27.351-11.239-53.804-30.338-73.186c-4.531-4.599-11.599,2.476-7.07,7.071c35.998,36.533,36,95.695,0.001,132.228
				C250.204,251.376,257.271,258.45,261.803,253.852L261.803,253.852z"/>
		</g>
	</g>
	<g>
		<g>
			<path style="fill:#FFFFFF;" d="M217.069,215.956c0.354,7.56-5.81,7-11.034,7c-6.988,0-13.978,0-20.966,0
				c-12.181,0-24.362,0-36.543,0c-11.515,0-0.835-24.668,0.966-29.726c4.316-12.121,8.193-23.74,10.697-36.356
				c0.824-4.151,2.798-8.124,4.767-11.829c1.028-1.936,2.173-3.897,3.519-5.634c0.575-0.742,1.226-1.41,1.893-2.068
				c1.248-1.231-1.377-0.387,1.974-0.387c3.887,0,7.774,0,11.661,0c1.955,0,3.91,0,5.865,0c-1.367,0-0.7-0.23,0.01,0.387
				c3.486,3.036,5.65,7.917,7.561,12.017c1.787,3.838,2.627,7.653,3.271,11.799c0.959,6.175,2.965,12.189,4.991,18.08
				C209.832,191.254,215.428,203.25,217.069,215.956c0.814,6.303,10.825,6.383,10,0c-1.702-13.173-6.758-25.396-11.184-37.827
				c-2.119-5.951-4.02-11.975-5.272-18.172c-0.965-4.773-1.688-8.972-3.61-13.503c-2.901-6.834-7.99-18.563-16.582-19.441
				c-6.452-0.659-14.146-0.659-20.597,0c-4.336,0.443-7.415,3.812-9.835,7.157c-5.667,7.83-8.672,16.407-10.357,25.787
				c-2.373,13.206-8.281,25.642-12.427,38.335c-3.649,11.171-7.755,24.686,3.687,32.563c3.946,2.717,9.389,2.101,13.937,2.101
				c14.393,0,28.785,0,43.178,0c4.466,0,8.931,0,13.396,0c9.276,0,16.093-7.941,15.668-17
				C226.769,209.536,216.768,209.507,217.069,215.956z"/>
		</g>
	</g>
</g>
<g id="Ebene_1">
</g>
</svg>
