<?xml version="1.0" encoding="iso-8859-1"?>
<!-- Generator: Adobe Illustrator 16.0.0, SVG Export Plug-In . SVG Version: 6.00 Build 0)  -->
<!DOCTYPE svg PUBLIC "-//W3C//DTD SVG 1.1 Tiny//EN" "http://www.w3.org/Graphics/SVG/1.1/DTD/svg11-tiny.dtd">
<svg version="1.1" baseProfile="tiny" id="message_x5F_socket_x5F_ch_x5F_3"
	 xmlns="http://www.w3.org/2000/svg" xmlns:xlink="http://www.w3.org/1999/xlink" x="0px" y="0px" width="361px" height="361px"
	 viewBox="0 0 361 361" xml:space="preserve">
<path fill="none" stroke="#FFFFFF" stroke-width="10" stroke-miterlimit="10" d="M284.464,284.141c0,3.127-2.762,5.663-6.169,5.663
	H78.494c-3.407,0-6.169-2.535-6.169-5.663V83.326c0-3.127,2.762-5.662,6.169-5.662h199.801c3.407,0,6.169,2.535,6.169,5.662V284.141
	z"/>
<g>
	<path fill="none" stroke="#FFFFFF" stroke-width="10" stroke-miterlimit="10" d="M157.261,133.315c0,0.049-0.043,0.089-0.097,0.089
		h-3.126c-0.054,0-0.097-0.04-0.097-0.089v-3.143c0-0.048,0.043-0.088,0.097-0.088h3.126c0.054,0,0.097,0.04,0.097,0.088V133.315z"
		/>
	<path fill="none" stroke="#FFFFFF" stroke-width="10" stroke-miterlimit="10" d="M203.501,133.315c0,0.049-0.044,0.089-0.097,0.089
		h-3.126c-0.053,0-0.097-0.04-0.097-0.089v-3.143c0-0.048,0.043-0.088,0.097-0.088h3.126c0.053,0,0.097,0.04,0.097,0.088V133.315z"
		/>
	<path fill="none" stroke="#FFFFFF" stroke-width="10" stroke-miterlimit="10" d="M180.185,146.51c0,0.049-0.044,0.089-0.097,0.089
		h-3.126c-0.053,0-0.097-0.04-0.097-0.089v-3.142c0-0.049,0.043-0.088,0.097-0.088h3.126c0.053,0,0.097,0.04,0.097,0.088V146.51z"/>
	<g>
		<path fill="#FFFFFF" d="M209.816,153.945c-18.144,0-36.288,0-54.431,0c-2.749,0-5.497,0-8.246,0c0.404,0,1.913,0.92,0.626-0.132
			c-1.769-1.447-3.378-3.102-4.983-4.724c-6.5-6.569-12.61-13.561-18.615-20.583c0,2.357,0,4.714,0,7.071
			c3.236-3.867,6.534-7.683,9.867-11.467c4.217-4.788,9.769-11.756,14.286-14.819c0.912-0.618-2.271,0.252-1.18,0.252
			c0.541,0,1.081,0,1.622,0c2.448,0,4.896,0,7.343,0c7.569,0,15.139,0,22.708,0c7.238,0,14.476,0,21.713,0c2.317,0,4.635,0,6.952,0
			c0.611,0,1.222,0,1.833,0c1.537,0-1.909-0.792-1.024-0.264c0.178,0.106,1.152,0.948,1.943,1.685
			c1.181,1.101,2.303,2.266,3.422,3.429c2.95,3.064,5.774,6.252,8.58,9.448c3.466,3.947,6.878,7.944,10.231,11.988
			c0-2.357,0-4.714,0-7.071c-3.556,4.119-7.183,8.178-10.854,12.195c-2.877,3.147-5.802,6.255-8.83,9.259
			c-1.092,1.083-2.213,2.135-3.369,3.151c-1.005,0.884-1.408,0.826-0.923,0.759c-6.364,0.887-3.646,10.521,2.658,9.643
			c2.424-0.338,4.653-2.699,6.371-4.253c3.196-2.892,6.141-6.077,9.078-9.228c4.409-4.729,8.715-9.561,12.94-14.455
			c1.91-2.212,1.839-4.853,0-7.071c-7.783-9.387-15.654-20.303-25.498-27.613c-2.824-2.097-6.235-1.602-9.551-1.602
			c-6.908,0-13.816,0-20.724,0c-12.255,0-24.509,0-36.764,0c-5.026,0-9.482,6.012-12.58,9.281
			c-5.266,5.558-10.272,11.369-15.23,17.201c-0.7,0.824-1.399,1.65-2.093,2.479c-1.855,2.218-1.894,4.857,0,7.071
			c6.201,7.25,12.531,14.433,19.243,21.216c2.636,2.665,6.347,7.15,10.475,7.15c2.184,0,4.368,0,6.552,0c18.817,0,37.633,0,56.45,0
			C216.265,163.945,216.265,153.945,209.816,153.945z"/>
	</g>
</g>
<g>
	<path fill="none" stroke="#FFFFFF" stroke-width="10" stroke-miterlimit="10" d="M145.11,227.513
		c0.042-0.024,0.099-0.007,0.125,0.039l1.563,2.708c0.027,0.046,0.014,0.104-0.029,0.128l-2.721,1.571
		c-0.042,0.024-0.098,0.007-0.125-0.04l-1.563-2.707c-0.027-0.046-0.014-0.104,0.028-0.128L145.11,227.513z"/>
	<path fill="none" stroke="#FFFFFF" stroke-width="10" stroke-miterlimit="10" d="M121.99,187.468
		c0.042-0.024,0.099-0.006,0.125,0.04l1.563,2.708c0.027,0.046,0.014,0.104-0.028,0.128l-2.722,1.571
		c-0.042,0.024-0.098,0.007-0.125-0.04l-1.563-2.708c-0.026-0.045-0.014-0.104,0.028-0.128L121.99,187.468z"/>
	<path fill="none" stroke="#FFFFFF" stroke-width="10" stroke-miterlimit="10" d="M145.075,201.063
		c0.042-0.025,0.099-0.006,0.125,0.04l1.563,2.707c0.027,0.046,0.014,0.104-0.029,0.128l-2.721,1.571
		c-0.042,0.024-0.099,0.007-0.125-0.04l-1.563-2.707c-0.027-0.046-0.014-0.104,0.028-0.128L145.075,201.063z"/>
	<g>
		<path fill="#FFFFFF" d="M136.711,171.708c9.072,15.713,18.144,31.426,27.215,47.139c1.375,2.38,2.749,4.761,4.123,7.141
			c-0.214-0.371-0.181-2.071-0.432-0.535c-0.368,2.255-0.997,4.477-1.599,6.677c-2.439,8.915-5.438,17.701-8.517,26.413
			c2.05-1.164,4.1-2.328,6.15-3.492c-4.967-0.869-9.921-1.817-14.864-2.812c-6.232-1.253-15.129-2.599-19.965-4.944
			c-0.998-0.483,1.288,1.779,0.749,0.845c-0.27-0.468-0.541-0.936-0.811-1.404c-1.224-2.12-2.448-4.24-3.672-6.359
			c-3.784-6.555-7.569-13.11-11.354-19.666c-3.619-6.269-7.238-12.536-10.857-18.805c-1.159-2.007-2.317-4.014-3.476-6.021
			c-0.305-0.529-0.611-1.058-0.917-1.587c-0.767-1.328,0.281,2.058,0.296,1.015c0.015-1.015,1.121-5,1.738-7.142
			c1.179-4.087,2.528-8.126,3.892-12.154c1.685-4.976,3.441-9.929,5.267-14.855c-2.05,1.164-4.1,2.328-6.15,3.492
			c5.345,1.021,10.674,2.132,15.988,3.303c4.165,0.918,8.318,1.897,12.434,3.017c1.484,0.404,2.956,0.849,4.414,1.342
			c1.253,0.423,1.411,0.764,1.129,0.402c3.962,5.082,10.986-2.05,7.071-7.071c-1.51-1.937-4.644-2.695-6.858-3.408
			c-4.103-1.322-8.333-2.28-12.53-3.249c-6.3-1.454-12.637-2.767-18.988-3.979c-2.861-0.546-5.144,0.777-6.15,3.492
			c-4.247,11.457-9.761,23.745-11.173,35.951c-0.403,3.485,1.747,6.205,3.4,9.068c3.454,5.983,6.908,11.965,10.362,17.948
			c6.127,10.613,12.254,21.225,18.381,31.838c2.499,4.328,9.928,5.18,14.28,6.222c7.446,1.782,14.981,3.212,22.511,4.589
			c1.064,0.194,2.129,0.387,3.194,0.573c2.838,0.497,5.175-0.732,6.15-3.492c3.179-8.996,6.234-18.069,8.752-27.273
			c0.997-3.644,3.027-9.108,0.95-12.705c-1.092-1.892-2.184-3.783-3.276-5.675c-9.409-16.296-18.817-32.591-28.225-48.887
			C142.124,161.079,133.48,166.113,136.711,171.708z"/>
	</g>
</g>
<g>
	<path fill="none" stroke="#FFFFFF" stroke-width="10" stroke-miterlimit="10" d="M211.655,227.513
		c-0.042-0.024-0.099-0.007-0.125,0.039l-1.563,2.708c-0.027,0.046-0.014,0.104,0.029,0.128l2.721,1.571
		c0.042,0.024,0.098,0.007,0.125-0.04l1.563-2.707c0.027-0.046,0.014-0.104-0.028-0.128L211.655,227.513z"/>
	<path fill="none" stroke="#FFFFFF" stroke-width="10" stroke-miterlimit="10" d="M234.775,187.468
		c-0.042-0.024-0.099-0.006-0.125,0.04l-1.563,2.708c-0.027,0.046-0.014,0.104,0.028,0.128l2.722,1.571
		c0.042,0.024,0.098,0.007,0.125-0.04l1.563-2.708c0.026-0.045,0.014-0.104-0.028-0.128L234.775,187.468z"/>
	<path fill="none" stroke="#FFFFFF" stroke-width="10" stroke-miterlimit="10" d="M211.69,201.063
		c-0.042-0.025-0.099-0.006-0.125,0.04l-1.563,2.707c-0.027,0.046-0.014,0.104,0.029,0.128l2.721,1.571
		c0.042,0.024,0.099,0.007,0.125-0.04l1.563-2.707c0.027-0.046,0.014-0.104-0.028-0.128L211.69,201.063z"/>
	<g>
		<path fill="#FFFFFF" d="M211.419,166.661c-9.408,16.296-18.816,32.591-28.225,48.887c-1.092,1.892-2.184,3.783-3.276,5.675
			c-2.085,3.612-0.027,9.044,0.95,12.705c2.459,9.214,5.576,18.285,8.752,27.273c0.975,2.76,3.312,3.989,6.15,3.492
			c12.148-2.125,25.468-3.651,36.844-8.582c3.027-1.312,4.473-5.106,6.014-7.776c3.519-6.094,7.037-12.188,10.555-18.282
			c5.98-10.358,11.96-20.716,17.94-31.074c2.565-4.443-0.702-11.759-2.037-16.131c-2.198-7.199-4.713-14.306-7.275-21.383
			c-0.358-0.988-0.718-1.976-1.083-2.961c-1.006-2.715-3.289-4.039-6.15-3.492c-6.016,1.148-12.013,2.405-17.987,3.751
			c-4.298,0.968-8.588,1.997-12.812,3.254c-2.407,0.717-5.947,1.538-7.579,3.631c-3.915,5.021,3.109,12.153,7.071,7.071
			c-0.27,0.346-0.191,0.085,0.539-0.192c1.365-0.519,2.777-0.918,4.178-1.322c4.044-1.165,8.157-2.101,12.261-3.025
			c5.64-1.271,11.307-2.441,16.986-3.526c-2.05-1.164-4.1-2.328-6.15-3.492c1.71,4.616,3.349,9.259,4.946,13.915
			c1.289,3.759,2.529,7.535,3.689,11.336c0.506,1.656,0.978,3.322,1.422,4.996c0.185,0.699,0.351,1.404,0.514,2.109
			c0.046,0.2,0.416,2.419,0.297,1.392c0.198,1.706,0.472-0.865,0.485-0.889c-0.234,0.405-0.468,0.811-0.702,1.216
			c-1.164,2.016-2.328,4.031-3.491,6.047c-3.739,6.476-7.478,12.951-11.216,19.427c-3.661,6.341-7.322,12.683-10.983,19.024
			c-1.211,2.099-2.423,4.197-3.635,6.295c-0.34,0.589-0.68,1.178-1.02,1.767c-0.771,1.335,0.304-0.301,0.866-0.678
			c-4.038,2.704-13.641,3.759-19.29,4.918c-5.269,1.082-10.556,2.086-15.854,3.013c2.05,1.164,4.1,2.328,6.15,3.492
			c-2.979-8.431-5.817-16.931-8.27-25.531c-0.656-2.299-1.261-4.615-1.735-6.959c-0.396-1.958,0.131-1.233-0.613,0.057
			c1.398-2.421,2.795-4.842,4.193-7.263c9.072-15.713,18.144-31.426,27.215-47.139C223.285,166.113,214.642,161.079,211.419,166.661
			z"/>
	</g>
</g>
</svg>
