<?xml version="1.0" encoding="iso-8859-1"?>
<!-- Generator: Adobe Illustrator 16.0.0, SVG Export Plug-In . SVG Version: 6.00 Build 0)  -->
<!DOCTYPE svg PUBLIC "-//W3C//DTD SVG 1.1 Tiny//EN" "http://www.w3.org/Graphics/SVG/1.1/DTD/svg11-tiny.dtd">
<svg version="1.1" baseProfile="tiny" id="message_x5F_tendency_x5F_steady"
	 xmlns="http://www.w3.org/2000/svg" xmlns:xlink="http://www.w3.org/1999/xlink" x="0px" y="0px" width="361px" height="361px"
	 viewBox="0 0 361 361" xml:space="preserve">
<path fill="none" stroke="#FFFFFF" stroke-width="10" stroke-miterlimit="10" d="M206.199,99.442c0-2.141-0.542-3.876-1.209-3.876
	H184.02c-0.668,0-1.21,1.735-1.21,3.876v75.572c0,2.14,0.542,3.875,1.21,3.875h20.969c0.667,0,1.209-1.735,1.209-3.875V99.442z"/>
<g>
	<path fill="#FFFFFF" d="M209.241,199.698c25.582-19.552,51.163-39.104,76.744-58.656c3.178-2.429,3.178-6.206,0-8.635
		c-25.581-19.552-51.163-39.104-76.744-58.655c-3.126-2.39-7.523,0.882-7.523,4.317c0,39.104,0,78.208,0,117.312
		c0,6.449,10,6.449,10,0c0-39.104,0-78.208,0-117.312c-2.508,1.439-5.016,2.878-7.523,4.317
		c25.581,19.552,51.163,39.104,76.744,58.655c0-2.878,0-5.756,0-8.635c-25.582,19.552-51.163,39.104-76.744,58.656
		C199.144,194.923,204.115,203.616,209.241,199.698z"/>
</g>
<path display="none" fill="none" stroke="#FFFFFF" stroke-width="10" stroke-miterlimit="10" d="M283.565,251.323
	c0,20.925-16.965,37.89-37.89,37.89h-134.72c-20.927,0-37.89-16.965-37.89-37.89V116.602c0-20.926,16.963-37.89,37.89-37.89h134.72
	c20.925,0,37.89,16.964,37.89,37.89V251.323z"/>
<g>
	<path fill="#FFFFFF" d="M68.17,188.211c0,33.778,0,67.556,0,101.334c0,6.449,10,6.449,10,0c0-33.778,0-67.556,0-101.334
		C78.17,181.762,68.17,181.762,68.17,188.211L68.17,188.211z"/>
</g>
<g>
	<path fill="#FFFFFF" d="M283.317,284.545c-48.661,0-97.322,0-145.983,0c-21.388,0-42.776,0-64.164,0c-6.449,0-6.449,10,0,10
		c48.661,0,97.322,0,145.983,0c21.388,0,42.776,0,64.164,0C289.766,294.545,289.766,284.545,283.317,284.545L283.317,284.545z"/>
</g>
<g>
	<path fill="#FFFFFF" d="M78.666,251.561c20.486-10.118,40.973-20.235,61.459-30.353c5.782-2.856,0.713-11.479-5.047-8.635
		c-20.486,10.118-40.973,20.235-61.459,30.353C67.837,245.781,72.906,254.405,78.666,251.561L78.666,251.561z"/>
</g>
<g>
	<path fill="#FFFFFF" d="M136.453,220.386c11.805,7.319,23.609,14.639,35.414,21.958c5.497,3.409,10.514-5.245,5.047-8.635
		c-11.805-7.319-23.609-14.639-35.414-21.958C136.003,208.342,130.986,216.996,136.453,220.386L136.453,220.386z"/>
</g>
<g>
	<path fill="#FFFFFF" d="M189.281,226.823c3.305,8.843,6.61,17.687,9.916,26.529c2.236,5.983,11.905,3.395,9.643-2.658
		c-3.305-8.843-6.61-17.687-9.916-26.529C196.688,218.181,187.019,220.77,189.281,226.823L189.281,226.823z"/>
</g>
<g>
	<path fill="#FFFFFF" d="M206.542,256.34c14.465-10.674,28.93-21.349,43.395-32.023c5.128-3.785,0.15-12.47-5.047-8.635
		c-14.465,10.674-28.93,21.349-43.395,32.023C196.366,251.49,201.345,260.175,206.542,256.34L206.542,256.34z"/>
</g>
<g>
	<path fill="#FFFFFF" d="M176.914,242.344c6.571-4.178,13.142-8.355,19.712-12.533c5.424-3.449,0.412-12.106-5.047-8.635
		c-6.571,4.178-13.142,8.355-19.712,12.533C166.443,237.158,171.455,245.815,176.914,242.344L176.914,242.344z"/>
</g>
<g>
	<path fill="#FFFFFF" d="M246.084,224.821c12.016,2.849,24.032,5.697,36.048,8.545c6.271,1.486,8.932-8.156,2.658-9.643
		c-12.016-2.849-24.032-5.697-36.048-8.545C242.472,213.692,239.811,223.334,246.084,224.821L246.084,224.821z"/>
</g>
</svg>
