<?xml version="1.0" encoding="iso-8859-1"?>
<!-- Generator: Adobe Illustrator 16.0.0, SVG Export Plug-In . SVG Version: 6.00 Build 0)  -->
<!DOCTYPE svg PUBLIC "-//W3C//DTD SVG 1.1//EN" "http://www.w3.org/Graphics/SVG/1.1/DTD/svg11.dtd">
<svg version="1.1" xmlns="http://www.w3.org/2000/svg" xmlns:xlink="http://www.w3.org/1999/xlink" x="0px" y="0px" width="361px"
	 height="361px" viewBox="0 0 361 361" style="enable-background:new 0 0 361 361;" xml:space="preserve">
<g id="phone_x5F_call_x5F_end">
	<path style="fill:none;stroke:#FFFFFF;stroke-width:10;stroke-miterlimit:10;" d="M280.971,176.694
		c-15.689-3.208-34.107-4.619-49.699-5.857c-9.279-0.736-42.269-0.825-49.691-0.834V170c0,0-0.262,0-0.747,0
		c-0.485,0-0.748,0-0.748,0v0.002c-7.422,0.01-40.412,0.098-49.69,0.834c-15.592,1.238-34.01,2.649-49.7,5.857
		c-3.143,0.642-5.862,2.173-5.862,4.855v39.072c0,2.682,2.625,4.855,5.862,4.855h43.976c12.796-1.235,9.428-16.295,15.826-21.753
		c2.17-1.851,7.323-1.673,10.438-1.673c6.895,0,22.978,0,28.814,0c1.361,0,2.167,0,2.167,0c5.837,0,21.92,0,28.814,0
		c3.115,0,8.269-0.178,10.438,1.673c6.397,5.458,3.03,20.518,15.826,21.753h43.976c3.238,0,5.862-2.174,5.862-4.855v-39.072
		C286.833,178.867,284.113,177.336,280.971,176.694z"/>
	<g>
		<g>
			<path style="fill:#FFFFFF;" d="M74.833,150.667c48.697,0,97.394,0,146.091,0c21.97,0,43.939,0,65.909,0c6.448,0,6.448-10,0-10
				c-48.697,0-97.395,0-146.091,0c-21.97,0-43.939,0-65.909,0C68.384,140.667,68.384,150.667,74.833,150.667L74.833,150.667z"/>
		</g>
	</g>
</g>
<g id="Ebene_1">
</g>
</svg>
