<?xml version="1.0" encoding="iso-8859-1"?>
<!-- Generator: Adobe Illustrator 16.0.0, SVG Export Plug-In . SVG Version: 6.00 Build 0)  -->
<!DOCTYPE svg PUBLIC "-//W3C//DTD SVG 1.1//EN" "http://www.w3.org/Graphics/SVG/1.1/DTD/svg11.dtd">
<svg version="1.1" xmlns="http://www.w3.org/2000/svg" xmlns:xlink="http://www.w3.org/1999/xlink" x="0px" y="0px" width="361px"
	 height="361px" viewBox="0 0 361 361" style="enable-background:new 0 0 361 361;" xml:space="preserve">
<g id="phone_x5F_answersing">
	<path style="fill:none;stroke:#FFFFFF;stroke-width:10;stroke-miterlimit:10;" d="M280.971,207.693
		c-15.689-3.207-34.107-4.618-49.699-5.856c-9.279-0.736-42.269-0.825-49.691-0.835V201c0,0-0.262,0-0.747,0.001
		C180.348,201,180.085,201,180.085,201v0.002c-7.422,0.01-40.412,0.099-49.69,0.835c-15.592,1.238-34.01,2.649-49.7,5.856
		c-3.143,0.643-5.862,2.174-5.862,4.855v39.072c0,2.682,2.625,4.855,5.862,4.855h43.976c12.796-1.235,9.428-16.295,15.826-21.753
		c2.17-1.851,7.323-1.673,10.438-1.673c6.895,0,22.978,0,28.814,0c1.361,0,2.167,0,2.167,0c5.837,0,21.92,0,28.814,0
		c3.115,0,8.269-0.178,10.438,1.673c6.397,5.458,3.03,20.518,15.826,21.753h43.976c3.238,0,5.862-2.174,5.862-4.855v-39.072
		C286.833,209.867,284.113,208.336,280.971,207.693z"/>
	<g>
		<g>
			<g>
				<path style="fill:#FFFFFF;" d="M158.639,114.102c-0.324,17.193-13.885,30.756-31.079,31.08
					c-17.194,0.324-30.765-14.374-31.079-31.08c-0.324-17.194,14.374-30.764,31.079-31.079
					C144.754,82.7,158.324,97.396,158.639,114.102c0.121,6.44,10.122,6.452,10,0c-0.427-22.675-18.403-40.652-41.079-41.079
					c-22.675-0.427-40.665,19.046-41.079,41.079c-0.427,22.675,19.046,40.665,41.079,41.08c22.675,0.427,40.664-19.047,41.079-41.08
					C168.76,107.65,158.76,107.662,158.639,114.102z"/>
			</g>
		</g>
		<g>
			<g>
				<path style="fill:#FFFFFF;" d="M266.146,114.102c-0.323,17.193-13.885,30.756-31.078,31.08
					c-17.195,0.324-30.766-14.373-31.08-31.08c-0.323-17.195,14.373-30.764,31.08-31.079
					C252.263,82.7,265.832,97.396,266.146,114.102c0.121,6.44,10.121,6.452,10,0c-0.427-22.675-18.403-40.652-41.078-41.079
					c-22.676-0.427-40.665,19.045-41.08,41.079c-0.427,22.676,19.047,40.665,41.08,41.08c22.675,0.427,40.663-19.047,41.078-41.08
					C276.268,107.65,266.268,107.662,266.146,114.102z"/>
			</g>
		</g>
		<g>
			<g>
				<path style="fill:#FFFFFF;" d="M127.56,155.182c35.836,0,71.672,0,107.508,0c6.448,0,6.448-10,0-10
					c-35.836,0-71.672,0-107.508,0C121.111,145.182,121.111,155.182,127.56,155.182L127.56,155.182z"/>
			</g>
		</g>
	</g>
</g>
<g id="Ebene_1">
</g>
</svg>
