<?xml version="1.0" encoding="iso-8859-1"?>
<!-- Generator: Adobe Illustrator 16.0.0, SVG Export Plug-In . SVG Version: 6.00 Build 0)  -->
<!DOCTYPE svg PUBLIC "-//W3C//DTD SVG 1.1//EN" "http://www.w3.org/Graphics/SVG/1.1/DTD/svg11.dtd">
<svg version="1.1" xmlns="http://www.w3.org/2000/svg" xmlns:xlink="http://www.w3.org/1999/xlink" x="0px" y="0px" width="361px"
	 height="361px" viewBox="0 0 361 361" style="enable-background:new 0 0 361 361;" xml:space="preserve">
<g id="phone_x5F_call_x5F_end_x5F_in">
	<path style="fill:none;stroke:#FFFFFF;stroke-width:10;stroke-miterlimit:10;" d="M280.971,237.693
		c-15.689-3.207-34.107-4.618-49.699-5.856c-9.279-0.736-42.269-0.825-49.691-0.835V231c0,0-0.262,0-0.747,0.001
		C180.348,231,180.085,231,180.085,231v0.002c-7.422,0.01-40.412,0.099-49.69,0.835c-15.592,1.238-34.01,2.649-49.7,5.856
		c-3.143,0.643-5.862,2.174-5.862,4.855v39.072c0,2.682,2.625,4.855,5.862,4.855h43.976c12.796-1.235,9.428-16.295,15.826-21.753
		c2.17-1.851,7.323-1.673,10.438-1.673c6.895,0,22.978,0,28.814,0c1.361,0,2.167,0,2.167,0c5.837,0,21.92,0,28.814,0
		c3.115,0,8.269-0.178,10.438,1.673c6.397,5.458,3.03,20.518,15.826,21.753h43.976c3.238,0,5.862-2.174,5.862-4.855v-39.072
		C286.833,239.867,284.113,238.336,280.971,237.693z"/>
	<g>
		<g>
			<path style="fill:#FFFFFF;" d="M74.833,211.667c48.697,0,97.394,0,146.091,0c21.97,0,43.939,0,65.909,0c6.448,0,6.448-10,0-10
				c-48.697,0-97.395,0-146.091,0c-21.97,0-43.939,0-65.909,0C68.384,201.667,68.384,211.667,74.833,211.667L74.833,211.667z"/>
		</g>
	</g>
	<g>
		<g>
			<path style="fill:#FFFFFF;" d="M107.492,177.151c24.414,3.261,48.828,6.522,73.242,9.784c2.463,0.329,5.329-2.537,5-5
				c-3.262-24.415-6.523-48.829-9.784-73.243c-0.544-4.077-5.137-6.935-8.536-3.536c-21.153,21.153-42.306,42.306-63.458,63.459
				c-4.563,4.564,2.507,11.635,7.071,7.071c21.153-21.153,42.306-42.306,63.458-63.459c-2.845-1.179-5.69-2.357-8.536-3.536
				c3.261,24.415,6.522,48.829,9.784,73.243c1.667-1.667,3.333-3.333,5-5c-24.414-3.261-48.828-6.523-73.242-9.784
				C101.115,166.299,101.197,176.311,107.492,177.151z"/>
		</g>
	</g>
	<g>
		<g>
			<path style="fill:#FFFFFF;" d="M92.778,78.937c2.384-1.722,7.425,5.326,8.945,6.847c2.685,2.685,5.37,5.371,8.056,8.056
				c0.938,0.938-13.751,14.678-15.408,16.334c-0.938,0.938-14.678-13.752-16.334-15.408C77.1,93.829,91.82,80.057,93.486,78.39
				c3.194-3.195-1.755-8.145-4.95-4.95c-3.611,3.612-7.223,7.224-10.835,10.836c-4.033,4.033-9.613,8.586-5.203,14.689
				c3.078,4.26,7.678,7.839,11.383,11.544c4.034,4.034,8.585,9.611,14.69,5.203c4.26-3.076,7.84-7.678,11.544-11.383
				c4.034-4.034,9.611-8.584,5.202-14.689c-3.076-4.26-7.678-7.839-11.383-11.544c-4.034-4.034-8.585-9.612-14.69-5.203
				C85.622,75.509,89.111,81.585,92.778,78.937z"/>
		</g>
	</g>
	<g>
		<g>
			<path style="fill:#FFFFFF;" d="M128.293,114.452c2.384-1.722,7.424,5.326,8.945,6.847c2.685,2.685,5.371,5.371,8.056,8.056
				c0.937,0.937-13.751,14.678-15.407,16.334c-0.937,0.937-14.679-13.752-16.335-15.408c-0.937-0.937,13.784-14.709,15.45-16.375
				c3.194-3.195-1.755-8.145-4.95-4.95c-3.612,3.612-7.224,7.224-10.835,10.836c-4.033,4.033-9.612,8.585-5.203,14.689
				c3.077,4.26,7.678,7.839,11.383,11.544c4.034,4.034,8.584,9.61,14.69,5.203c4.26-3.075,7.84-7.679,11.543-11.384
				c4.033-4.034,9.611-8.585,5.203-14.689c-3.076-4.26-7.678-7.839-11.382-11.544c-4.034-4.034-8.585-9.612-14.69-5.203
				C121.138,111.024,124.626,117.101,128.293,114.452z"/>
		</g>
	</g>
</g>
<g id="Ebene_1">
</g>
</svg>
