<?xml version="1.0" encoding="iso-8859-1"?>
<!-- Generator: Adobe Illustrator 16.0.0, SVG Export Plug-In . SVG Version: 6.00 Build 0)  -->
<!DOCTYPE svg PUBLIC "-//W3C//DTD SVG 1.1 Tiny//EN" "http://www.w3.org/Graphics/SVG/1.1/DTD/svg11-tiny.dtd">
<svg version="1.1" baseProfile="tiny" id="phone_x5F_call_x5F_out"
	 xmlns="http://www.w3.org/2000/svg" xmlns:xlink="http://www.w3.org/1999/xlink" x="0px" y="0px" width="361px" height="361px"
	 viewBox="0 0 361 361" xml:space="preserve">
<path fill="none" stroke="#FFFFFF" stroke-width="10" stroke-miterlimit="10" d="M72.104,102.163
	c3.311,15.667,9.358,33.123,14.437,47.916c3.022,8.803,16.089,39.094,19.039,45.906l-0.002,0.001c0,0,0.104,0.241,0.298,0.686
	s0.298,0.686,0.298,0.686l0.002-0.001c2.967,6.804,16.196,37.025,20.569,45.242c7.35,13.806,15.985,30.136,25.18,43.246
	c1.842,2.627,4.33,4.511,6.79,3.442l35.834-15.572c2.459-1.069,3.407-4.342,2.116-7.313l-17.526-40.331
	c-6.233-11.244-18.702-2.153-26.258-5.846c-2.563-1.252-4.453-6.05-5.695-8.907c-2.748-6.324-9.158-21.074-11.484-26.427
	c-0.542-1.248-0.864-1.987-0.864-1.987c-2.326-5.353-8.736-20.103-11.484-26.426c-1.241-2.857-3.458-7.513-2.626-10.24
	c2.457-8.043,17.61-10.957,13.643-23.185l-17.526-40.332c-1.291-2.97-4.331-4.51-6.79-3.442L74.22,94.851
	C71.76,95.92,71.44,99.024,72.104,102.163z"/>
<g>
	<path fill="#FFFFFF" d="M211.845,92.377c24.414-3.261,48.828-6.522,73.242-9.784c-1.667-1.667-3.333-3.333-5-5
		c-3.261,24.414-6.522,48.829-9.784,73.243c2.845-1.179,5.69-2.357,8.536-3.536c-21.153-21.153-42.306-42.306-63.458-63.459
		c-4.564-4.563-11.635,2.507-7.071,7.071c21.153,21.153,42.306,42.306,63.458,63.459c3.399,3.399,7.991,0.542,8.536-3.536
		c3.261-24.414,6.522-48.829,9.784-73.243c0.329-2.463-2.537-5.329-5-5c-24.414,3.261-48.828,6.522-73.242,9.784
		C205.55,83.218,205.468,93.229,211.845,92.377z"/>
</g>
<g>
	<path fill="#FFFFFF" d="M193.598,186.635c5.807,4.194,10.149-0.661,14.051-4.563c3.825-3.825,7.65-7.65,11.475-11.475
		c5.481-5.481-0.124-10.866-4.016-14.759c-3.825-3.825-7.65-7.65-11.475-11.476c-5.481-5.481-10.867,0.124-14.759,4.017
		c-3.825,3.825-7.65,7.65-11.475,11.475c-5.48,5.481,0.124,10.866,4.017,14.759c3.825,3.825,7.65,7.65,11.475,11.475
		c3.195,3.194,8.145-1.755,4.95-4.95c-5.15-5.149-10.299-10.299-15.449-15.449c-0.938-0.938,13.75-14.678,15.407-16.334
		c0.938-0.938,14.679,13.752,16.335,15.408c0.938,0.938-6.677,7.603-7.353,8.278c-1.574,1.574-7.215,9.308-9.649,7.55
		C193.464,177.943,189.975,184.019,193.598,186.635z"/>
</g>
<g>
	<path fill="#FFFFFF" d="M229.113,151.12c5.807,4.194,10.149-0.662,14.051-4.563c3.825-3.825,7.649-7.65,11.475-11.475
		c5.48-5.481-0.124-10.865-4.016-14.758c-3.825-3.825-7.65-7.65-11.475-11.476c-5.481-5.481-10.867,0.125-14.759,4.017
		c-3.825,3.825-7.65,7.65-11.476,11.475c-5.481,5.481,0.125,10.866,4.017,14.759c3.825,3.825,7.65,7.65,11.475,11.475
		c3.195,3.194,8.145-1.755,4.95-4.95c-5.15-5.149-10.3-10.299-15.45-15.449c-0.938-0.938,13.751-14.677,15.408-16.334
		c0.938-0.938,14.677,13.752,16.334,15.409c0.937,0.937-6.676,7.602-7.352,8.277c-1.574,1.574-7.215,9.308-9.649,7.55
		C228.979,142.427,225.491,148.504,229.113,151.12z"/>
</g>
</svg>
