<?xml version="1.0" encoding="iso-8859-1"?>
<!-- Generator: Adobe Illustrator 16.0.0, SVG Export Plug-In . SVG Version: 6.00 Build 0)  -->
<!DOCTYPE svg PUBLIC "-//W3C//DTD SVG 1.1 Tiny//EN" "http://www.w3.org/Graphics/SVG/1.1/DTD/svg11-tiny.dtd">
<svg version="1.1" baseProfile="tiny" id="phone_x5F_missed_x5F_out"
	 xmlns="http://www.w3.org/2000/svg" xmlns:xlink="http://www.w3.org/1999/xlink" x="0px" y="0px" width="361px" height="361px"
	 viewBox="0 0 361 361" xml:space="preserve">
<path fill="none" stroke="#FFFFFF" stroke-width="10" stroke-miterlimit="10" d="M278.453,240.572
	c-15.689-3.208-34.108-4.619-49.7-5.857c-9.278-0.736-42.268-0.825-49.69-0.834v-0.002c0,0-0.263,0-0.748,0
	c-0.485,0-0.748,0-0.748,0v0.002c-7.422,0.01-40.412,0.098-49.69,0.834c-15.592,1.238-34.01,2.649-49.7,5.857
	c-3.143,0.642-5.862,2.173-5.862,4.855v39.072c0,2.682,2.625,4.855,5.862,4.855h43.976c12.796-1.235,9.428-16.294,15.826-21.752
	c2.17-1.851,7.323-1.673,10.438-1.673c6.895,0,22.978,0,28.814,0c1.361,0,2.167,0,2.167,0c5.836,0,21.919,0,28.814,0
	c3.115,0,8.269-0.178,10.438,1.673c6.398,5.458,3.03,20.518,15.826,21.752h43.976c3.238,0,5.862-2.174,5.862-4.855v-39.072
	C284.315,242.745,281.596,241.214,278.453,240.572z"/>
<g>
	<path fill="#FFFFFF" d="M211.845,92.377c24.414-3.261,48.828-6.522,73.242-9.784c-1.667-1.667-3.333-3.333-5-5
		c-3.261,24.414-6.522,48.829-9.784,73.243c2.845-1.179,5.69-2.357,8.536-3.536c-21.153-21.153-42.306-42.306-63.458-63.459
		c-4.564-4.563-11.635,2.507-7.071,7.071c21.153,21.153,42.306,42.306,63.458,63.459c3.399,3.399,7.991,0.542,8.536-3.536
		c3.261-24.414,6.522-48.829,9.784-73.243c0.329-2.463-2.537-5.329-5-5c-24.414,3.261-48.828,6.522-73.242,9.784
		C205.55,83.218,205.468,93.229,211.845,92.377z"/>
</g>
<g>
	<path fill="#FFFFFF" d="M141.425,195.989c-4.194,5.807,0.661,10.148,4.563,14.051c3.825,3.825,7.65,7.65,11.475,11.475
		c5.481,5.481,10.866-0.124,14.759-4.017c3.825-3.825,7.65-7.65,11.476-11.475c5.481-5.481-0.124-10.867-4.017-14.759
		c-3.825-3.825-7.65-7.649-11.476-11.475c-5.481-5.48-10.866,0.123-14.759,4.016c-3.825,3.825-7.649,7.65-11.475,11.475
		c-3.194,3.195,1.755,8.145,4.95,4.95c5.149-5.15,10.299-10.299,15.449-15.449c0.937-0.937,14.679,13.751,16.335,15.407
		c0.938,0.938-13.752,14.678-15.409,16.334c-0.938,0.938-7.602-6.676-8.278-7.352c-1.574-1.574-9.308-7.215-7.55-9.649
		C150.117,195.854,144.041,192.366,141.425,195.989z"/>
</g>
<g>
	<path fill="#FFFFFF" d="M106.068,160.634c-4.193,5.808,0.661,10.149,4.563,14.051c3.825,3.825,7.65,7.65,11.475,11.475
		c5.481,5.481,10.867-0.124,14.759-4.017c3.825-3.825,7.649-7.65,11.475-11.475c5.481-5.482-0.123-10.866-4.016-14.759
		c-3.825-3.825-7.649-7.65-11.474-11.475c-5.481-5.481-10.868,0.124-14.761,4.017c-3.825,3.825-7.65,7.65-11.475,11.475
		c-3.194,3.195,1.755,8.145,4.95,4.95c5.149-5.15,10.299-10.3,15.449-15.45c0.939-0.939,14.678,13.751,16.334,15.408
		c0.938,0.938-13.75,14.678-15.407,16.335c-0.938,0.938-7.604-6.676-8.279-7.352c-1.575-1.575-9.309-7.215-7.551-9.649
		C114.761,160.5,108.684,157.011,106.068,160.634z"/>
</g>
<g>
	<path fill="#FFFFFF" d="M87.46,151.351c5.806,4.196,10.149-0.661,14.051-4.563c3.825-3.825,7.649-7.65,11.475-11.475
		c5.481-5.481-0.124-10.866-4.016-14.759c-3.825-3.825-7.65-7.65-11.475-11.475c-5.481-5.481-10.867,0.123-14.759,4.016
		c-3.825,3.825-7.649,7.65-11.475,11.475c-5.481,5.482,0.123,10.866,4.016,14.759c3.825,3.825,7.65,7.65,11.475,11.475
		c3.195,3.194,8.145-1.755,4.95-4.95c-5.15-5.149-10.3-10.299-15.45-15.449c-0.937-0.937,13.751-14.678,15.407-16.334
		c0.938-0.938,14.678,13.752,16.334,15.408c0.938,0.938-6.676,7.603-7.352,8.279c-1.574,1.574-7.216,9.308-9.649,7.55
		C87.327,142.657,83.838,148.733,87.46,151.351z"/>
</g>
<g>
	<path fill="#FFFFFF" d="M193.598,186.635c5.807,4.194,10.149-0.661,14.051-4.563c3.825-3.825,7.65-7.65,11.475-11.475
		c5.481-5.481-0.124-10.866-4.016-14.759c-3.825-3.825-7.65-7.65-11.475-11.476c-5.481-5.481-10.867,0.124-14.759,4.017
		c-3.825,3.825-7.65,7.65-11.475,11.475c-5.48,5.481,0.124,10.866,4.017,14.759c3.825,3.825,7.65,7.65,11.475,11.475
		c3.195,3.194,8.145-1.755,4.95-4.95c-5.15-5.149-10.299-10.299-15.449-15.449c-0.938-0.938,13.75-14.678,15.407-16.334
		c0.938-0.938,14.679,13.752,16.335,15.408c0.938,0.938-6.677,7.603-7.353,8.278c-1.574,1.574-7.215,9.308-9.649,7.55
		C193.464,177.943,189.975,184.019,193.598,186.635z"/>
</g>
<g>
	<path fill="#FFFFFF" d="M229.113,151.12c5.807,4.194,10.149-0.662,14.051-4.563c3.825-3.825,7.649-7.65,11.475-11.475
		c5.48-5.481-0.124-10.865-4.016-14.758c-3.825-3.825-7.65-7.65-11.475-11.476c-5.481-5.481-10.867,0.125-14.759,4.017
		c-3.825,3.825-7.65,7.65-11.476,11.475c-5.481,5.481,0.125,10.866,4.017,14.759c3.825,3.825,7.65,7.65,11.475,11.475
		c3.195,3.194,8.145-1.755,4.95-4.95c-5.15-5.149-10.3-10.299-15.45-15.449c-0.938-0.938,13.751-14.677,15.408-16.334
		c0.938-0.938,14.677,13.752,16.334,15.409c0.937,0.937-6.676,7.602-7.352,8.277c-1.574,1.574-7.215,9.308-9.649,7.55
		C228.979,142.427,225.491,148.504,229.113,151.12z"/>
</g>
</svg>
