<?xml version="1.0" encoding="iso-8859-1"?>
<!-- Generator: Adobe Illustrator 16.0.0, SVG Export Plug-In . SVG Version: 6.00 Build 0)  -->
<!DOCTYPE svg PUBLIC "-//W3C//DTD SVG 1.1 Tiny//EN" "http://www.w3.org/Graphics/SVG/1.1/DTD/svg11-tiny.dtd">
<svg version="1.1" baseProfile="tiny" id="phone_x5F_answersing"
	 xmlns="http://www.w3.org/2000/svg" xmlns:xlink="http://www.w3.org/1999/xlink" x="0px" y="0px" width="361px" height="361px"
	 viewBox="0 0 361 361" xml:space="preserve">
<path fill="none" stroke="#FFFFFF" stroke-width="10" stroke-miterlimit="10" d="M278.453,210.572
	c-15.689-3.208-34.108-4.619-49.7-5.857c-9.278-0.736-42.268-0.825-49.69-0.834v-0.002c0,0-0.263,0-0.748,0
	c-0.485,0-0.748,0-0.748,0v0.002c-7.422,0.01-40.412,0.098-49.69,0.834c-15.592,1.238-34.01,2.649-49.7,5.857
	c-3.143,0.642-5.862,2.173-5.862,4.855v39.072c0,2.682,2.625,4.855,5.862,4.855h43.976c12.796-1.235,9.428-16.294,15.826-21.752
	c2.17-1.851,7.323-1.673,10.438-1.673c6.895,0,22.978,0,28.814,0c1.361,0,2.167,0,2.167,0c5.836,0,21.919,0,28.814,0
	c3.115,0,8.269-0.178,10.438,1.673c6.398,5.458,3.03,20.518,15.826,21.752h43.976c3.238,0,5.862-2.174,5.862-4.855v-39.072
	C284.315,212.745,281.596,211.214,278.453,210.572z"/>
<g>
	<g>
		<path fill="#FFFFFF" d="M156.121,116.98c-0.324,17.193-13.885,30.756-31.079,31.08c-17.194,0.324-30.765-14.374-31.079-31.08
			c-0.324-17.194,14.374-30.764,31.079-31.079C142.236,85.578,155.806,100.273,156.121,116.98c0.121,6.44,10.122,6.452,10,0
			c-0.427-22.675-18.403-40.652-41.079-41.079c-22.675-0.427-40.665,19.046-41.079,41.079c-0.427,22.675,19.046,40.665,41.079,41.08
			c22.675,0.427,40.664-19.047,41.079-41.08C166.242,110.528,156.242,110.54,156.121,116.98z"/>
	</g>
	<g>
		<path fill="#FFFFFF" d="M263.629,116.98c-0.324,17.194-13.885,30.756-31.079,31.08c-17.195,0.324-30.765-14.373-31.079-31.08
			c-0.324-17.194,14.373-30.764,31.079-31.079C249.744,85.578,263.314,100.273,263.629,116.98c0.121,6.44,10.122,6.452,10,0
			c-0.427-22.675-18.404-40.652-41.079-41.079s-40.665,19.046-41.079,41.079c-0.427,22.675,19.046,40.665,41.079,41.08
			c22.675,0.427,40.665-19.047,41.079-41.08C273.75,110.528,263.75,110.54,263.629,116.98z"/>
	</g>
	<g>
		<path fill="#FFFFFF" d="M125.042,158.06c35.836,0,71.672,0,107.508,0c6.449,0,6.449-10,0-10c-35.836,0-71.672,0-107.508,0
			C118.593,148.06,118.593,158.06,125.042,158.06L125.042,158.06z"/>
	</g>
</g>
</svg>
