<?xml version="1.0" encoding="iso-8859-1"?>
<!-- Generator: Adobe Illustrator 16.0.0, SVG Export Plug-In . SVG Version: 6.00 Build 0)  -->
<!DOCTYPE svg PUBLIC "-//W3C//DTD SVG 1.1//EN" "http://www.w3.org/Graphics/SVG/1.1/DTD/svg11.dtd">
<svg version="1.1" xmlns="http://www.w3.org/2000/svg" xmlns:xlink="http://www.w3.org/1999/xlink" x="0px" y="0px" width="361px"
	 height="361px" viewBox="0 0 361 361" style="enable-background:new 0 0 361 361;" xml:space="preserve">
<g id="phone_x5F_missed_x5F_out">
	<path style="fill:none;stroke:#FFFFFF;stroke-width:10;stroke-miterlimit:10;" d="M280.971,237.693
		c-15.689-3.207-34.107-4.618-49.699-5.856c-9.279-0.736-42.269-0.825-49.691-0.835V231c0,0-0.262,0-0.747,0.001
		C180.348,231,180.085,231,180.085,231v0.002c-7.422,0.01-40.412,0.099-49.69,0.835c-15.592,1.238-34.01,2.649-49.7,5.856
		c-3.143,0.643-5.862,2.174-5.862,4.855v39.072c0,2.682,2.625,4.855,5.862,4.855h43.976c12.796-1.235,9.428-16.295,15.826-21.753
		c2.17-1.851,7.323-1.673,10.438-1.673c6.895,0,22.978,0,28.814,0c1.361,0,2.167,0,2.167,0c5.837,0,21.92,0,28.814,0
		c3.115,0,8.269-0.178,10.438,1.673c6.397,5.458,3.03,20.518,15.826,21.753h43.976c3.238,0,5.862-2.174,5.862-4.855v-39.072
		C286.833,239.867,284.113,238.336,280.971,237.693z"/>
	<g>
		<g>
			<path style="fill:#FFFFFF;" d="M214.363,89.499c24.414-3.261,48.828-6.522,73.242-9.784c-1.667-1.667-3.333-3.333-5-5
				c-3.262,24.414-6.522,48.829-9.784,73.243c2.845-1.179,5.69-2.357,8.535-3.536c-21.152-21.153-42.305-42.306-63.458-63.459
				c-4.563-4.563-11.635,2.507-7.07,7.071c21.152,21.153,42.305,42.306,63.458,63.459c3.398,3.399,7.99,0.542,8.535-3.536
				c3.262-24.414,6.522-48.829,9.784-73.243c0.329-2.463-2.537-5.329-5-5c-24.414,3.261-48.828,6.522-73.242,9.784
				C208.068,80.34,207.986,90.351,214.363,89.499z"/>
		</g>
	</g>
	<g>
		<g>
			<path style="fill:#FFFFFF;" d="M143.943,193.11c-4.193,5.808,0.661,10.147,4.563,14.051c3.825,3.825,7.65,7.65,11.475,11.476
				c5.481,5.481,10.867-0.124,14.759-4.017c3.825-3.825,7.65-7.65,11.476-11.476c5.481-5.48-0.123-10.866-4.017-14.759
				c-3.825-3.824-7.65-7.649-11.475-11.474c-5.481-5.48-10.865,0.123-14.759,4.016c-3.825,3.825-7.649,7.649-11.475,11.475
				c-3.194,3.194,1.755,8.144,4.95,4.949c5.149-5.149,10.299-10.299,15.449-15.448c0.937-0.937,14.679,13.751,16.335,15.406
				c0.938,0.938-13.752,14.68-15.409,16.336c-0.938,0.938-7.602-6.677-8.278-7.353c-1.575-1.574-9.308-7.215-7.55-9.649
				C152.635,192.976,146.558,189.487,143.943,193.11z"/>
		</g>
	</g>
	<g>
		<g>
			<path style="fill:#FFFFFF;" d="M108.586,157.756c-4.193,5.808,0.661,10.149,4.563,14.051c3.825,3.825,7.65,7.65,11.475,11.475
				c5.481,5.48,10.867-0.124,14.759-4.017c3.825-3.825,7.649-7.65,11.475-11.475c5.481-5.482-0.123-10.866-4.016-14.759
				c-3.825-3.825-7.649-7.65-11.474-11.475c-5.481-5.481-10.868,0.124-14.761,4.017c-3.825,3.825-7.65,7.65-11.475,11.475
				c-3.194,3.195,1.755,8.145,4.95,4.95c5.149-5.15,10.299-10.3,15.449-15.45c0.939-0.939,14.678,13.751,16.334,15.408
				c0.938,0.938-13.75,14.678-15.407,16.335c-0.938,0.938-7.604-6.676-8.279-7.352c-1.575-1.575-9.309-7.215-7.551-9.649
				C117.279,157.622,111.202,154.133,108.586,157.756z"/>
		</g>
	</g>
	<g>
		<g>
			<path style="fill:#FFFFFF;" d="M89.978,148.473c5.806,4.196,10.149-0.661,14.051-4.563c3.825-3.825,7.649-7.65,11.475-11.475
				c5.481-5.481-0.124-10.866-4.016-14.759c-3.825-3.825-7.65-7.65-11.475-11.475c-5.481-5.481-10.867,0.123-14.759,4.016
				c-3.825,3.825-7.649,7.65-11.475,11.475c-5.481,5.482,0.123,10.866,4.016,14.759c3.825,3.825,7.65,7.65,11.475,11.475
				c3.195,3.194,8.145-1.755,4.95-4.95c-5.15-5.149-10.3-10.299-15.45-15.449c-0.937-0.937,13.751-14.678,15.407-16.334
				c0.938-0.938,14.678,13.752,16.334,15.408c0.938,0.938-6.676,7.603-7.352,8.279c-1.574,1.574-7.216,9.308-9.649,7.55
				C89.845,139.779,86.356,145.855,89.978,148.473z"/>
		</g>
	</g>
	<g>
		<g>
			<path style="fill:#FFFFFF;" d="M196.116,183.758c5.807,4.193,10.148-0.662,14.051-4.564c3.824-3.825,7.649-7.65,11.474-11.475
				c5.481-5.481-0.122-10.866-4.015-14.759c-3.825-3.825-7.65-7.65-11.476-11.476c-5.481-5.481-10.866,0.124-14.759,4.017
				c-3.825,3.825-7.65,7.65-11.476,11.475c-5.48,5.481,0.125,10.866,4.017,14.759c3.825,3.825,7.65,7.65,11.476,11.475
				c3.194,3.194,8.145-1.755,4.949-4.95c-5.149-5.149-10.3-10.299-15.449-15.449c-0.938-0.938,13.751-14.678,15.407-16.334
				c0.938-0.938,14.679,13.752,16.335,15.408c0.937,0.937-6.678,7.603-7.353,8.278c-1.574,1.574-7.215,9.308-9.648,7.55
				C195.982,175.064,192.494,181.142,196.116,183.758z"/>
		</g>
	</g>
	<g>
		<g>
			<path style="fill:#FFFFFF;" d="M231.631,148.242c5.807,4.194,10.148-0.662,14.051-4.563c3.825-3.825,7.649-7.65,11.475-11.475
				c5.481-5.481-0.124-10.865-4.016-14.758c-3.825-3.825-7.65-7.65-11.476-11.476c-5.48-5.481-10.866,0.125-14.759,4.017
				c-3.825,3.825-7.649,7.65-11.475,11.475c-5.481,5.481,0.123,10.866,4.016,14.759c3.825,3.825,7.65,7.65,11.476,11.475
				c3.194,3.194,8.144-1.755,4.949-4.95c-5.149-5.149-10.3-10.299-15.449-15.449c-0.938-0.938,13.751-14.678,15.407-16.334
				c0.938-0.938,14.679,13.752,16.335,15.409c0.937,0.937-6.677,7.602-7.352,8.277c-1.574,1.574-7.216,9.308-9.649,7.55
				C231.497,139.549,228.009,145.626,231.631,148.242z"/>
		</g>
	</g>
</g>
<g id="Ebene_1">
</g>
</svg>
