<?xml version="1.0" encoding="iso-8859-1"?>
<!-- Generator: Adobe Illustrator 16.0.0, SVG Export Plug-In . SVG Version: 6.00 Build 0)  -->
<!DOCTYPE svg PUBLIC "-//W3C//DTD SVG 1.1 Tiny//EN" "http://www.w3.org/Graphics/SVG/1.1/DTD/svg11-tiny.dtd">
<svg version="1.1" baseProfile="tiny" id="phone_x5F_call_x5F_end_x5F_in"
	 xmlns="http://www.w3.org/2000/svg" xmlns:xlink="http://www.w3.org/1999/xlink" x="0px" y="0px" width="361px" height="361px"
	 viewBox="0 0 361 361" xml:space="preserve">
<path fill="none" stroke="#FFFFFF" stroke-width="10" stroke-miterlimit="10" d="M278.453,240.572
	c-15.689-3.208-34.108-4.619-49.7-5.857c-9.278-0.736-42.268-0.825-49.69-0.834v-0.002c0,0-0.263,0-0.748,0
	c-0.485,0-0.748,0-0.748,0v0.002c-7.422,0.01-40.412,0.098-49.69,0.834c-15.592,1.238-34.01,2.649-49.7,5.857
	c-3.143,0.642-5.862,2.173-5.862,4.855v39.072c0,2.682,2.625,4.855,5.862,4.855h43.976c12.796-1.235,9.428-16.294,15.826-21.752
	c2.17-1.851,7.323-1.673,10.438-1.673c6.895,0,22.978,0,28.814,0c1.361,0,2.167,0,2.167,0c5.836,0,21.919,0,28.814,0
	c3.115,0,8.269-0.178,10.438,1.673c6.398,5.458,3.03,20.518,15.826,21.752h43.976c3.238,0,5.862-2.174,5.862-4.855v-39.072
	C284.315,242.745,281.596,241.214,278.453,240.572z"/>
<g>
	<path fill="#FFFFFF" d="M72.315,214.545c48.697,0,97.394,0,146.091,0c21.97,0,43.939,0,65.909,0c6.449,0,6.449-10,0-10
		c-48.697,0-97.394,0-146.091,0c-21.97,0-43.939,0-65.909,0C65.866,204.545,65.866,214.545,72.315,214.545L72.315,214.545z"/>
</g>
<g>
	<path fill="#FFFFFF" d="M104.974,180.029c24.414,3.261,48.828,6.522,73.242,9.784c2.463,0.329,5.329-2.537,5-5
		c-3.261-24.414-6.522-48.829-9.784-73.243c-0.544-4.077-5.137-6.935-8.536-3.536c-21.153,21.153-42.306,42.306-63.458,63.459
		c-4.563,4.564,2.507,11.635,7.071,7.071c21.153-21.153,42.306-42.306,63.458-63.459c-2.845-1.179-5.69-2.357-8.536-3.536
		c3.261,24.414,6.522,48.829,9.784,73.243c1.667-1.667,3.333-3.333,5-5c-24.414-3.261-48.828-6.522-73.242-9.784
		C98.597,169.178,98.679,179.188,104.974,180.029z"/>
</g>
<g>
	<path fill="#FFFFFF" d="M90.26,81.815c2.384-1.722,7.425,5.326,8.945,6.847c2.685,2.685,5.37,5.371,8.056,8.056
		c0.938,0.938-13.751,14.678-15.408,16.334C90.915,113.99,77.175,99.3,75.519,97.644c-0.937-0.937,13.783-14.709,15.45-16.375
		c3.194-3.195-1.755-8.145-4.95-4.95c-3.611,3.612-7.223,7.224-10.835,10.836c-4.033,4.033-9.613,8.586-5.203,14.689
		c3.078,4.26,7.678,7.839,11.383,11.544c4.034,4.034,8.585,9.611,14.69,5.203c4.26-3.076,7.84-7.678,11.544-11.383
		c4.034-4.034,9.611-8.584,5.202-14.689c-3.076-4.26-7.678-7.839-11.383-11.544c-4.034-4.034-8.585-9.612-14.69-5.203
		C83.104,78.387,86.593,84.463,90.26,81.815z"/>
</g>
<g>
	<path fill="#FFFFFF" d="M125.775,117.33c2.384-1.722,7.424,5.326,8.945,6.847c2.685,2.685,5.371,5.37,8.056,8.056
		c0.937,0.937-13.751,14.678-15.407,16.334c-0.937,0.937-14.679-13.752-16.335-15.408c-0.937-0.937,13.784-14.709,15.45-16.375
		c3.194-3.195-1.755-8.145-4.95-4.95c-3.612,3.612-7.224,7.224-10.835,10.836c-4.033,4.033-9.612,8.585-5.203,14.689
		c3.077,4.26,7.678,7.839,11.383,11.544c4.034,4.034,8.584,9.61,14.69,5.203c4.26-3.075,7.84-7.679,11.543-11.384
		c4.033-4.034,9.611-8.585,5.203-14.689c-3.076-4.26-7.678-7.839-11.382-11.544c-4.034-4.034-8.585-9.612-14.69-5.203
		C118.62,113.902,122.108,119.979,125.775,117.33z"/>
</g>
</svg>
