<?xml version="1.0" encoding="iso-8859-1"?>
<!-- Generator: Adobe Illustrator 16.0.0, SVG Export Plug-In . SVG Version: 6.00 Build 0)  -->
<!DOCTYPE svg PUBLIC "-//W3C//DTD SVG 1.1//EN" "http://www.w3.org/Graphics/SVG/1.1/DTD/svg11.dtd">
<svg version="1.1" xmlns="http://www.w3.org/2000/svg" xmlns:xlink="http://www.w3.org/1999/xlink" x="0px" y="0px" width="361px"
	 height="361px" viewBox="0 0 361 361" style="enable-background:new 0 0 361 361;" xml:space="preserve">
<g id="sani_x5F_heating_x5F_automatic">
	<g>
		<g>
			<g>
				<path style="fill:#FFFFFF;" d="M166.338,203.984c0.678,0.195,0.358-4.745,0.358-5.707c0-5.183,0-10.365,0-15.547
					c0-15.465,0-30.929,0-46.394c0-14.742,0-29.484,0-44.227c0-4.28,0-8.56,0-12.839c0-0.857,0-1.715,0-2.572
					c0-0.748-1.917,0.096-0.76,0.096c1.964,0,3.929,0,5.893,0c2.566,0,0.583-1.057,0.583,0.464c0,1.277,0,2.555,0,3.832
					c0,4.858,0,9.715,0,14.573c0,15.221,0,30.441,0,45.662c0,15.041,0,30.081,0,45.121c0,4.632,0,9.264,0,13.896
					c0,1.074,0,2.148,0,3.223c0,0.202,0,0.404,0,0.606c0-0.208,1.961-0.312,0.761-0.312c-1.047,0-2.094,0-3.141,0
					c-1.542,0-3.083,0-4.625,0c-4.514,0-4.514,7,0,7c5.471,0,14.005,1.379,14.005-6.688c0-2.276,0-4.553,0-6.828
					c0-12.766,0-25.532,0-38.297c0-26.795,0-53.59,0-80.385c0-3.786-0.812-8.866-5.711-8.866c-5.472,0-14.005-1.378-14.005,6.69
					c0,7.666,0,15.332,0,22.998c0,30.135,0,60.269,0,90.404c0,5.548-2.347,18.8,4.781,20.849
					C168.825,211.984,170.668,205.229,166.338,203.984z"/>
			</g>
		</g>
		<g>
			<g>
				<path style="fill:#FFFFFF;" d="M90.93,204.302c0.677,0.194,0.358-4.748,0.358-5.708c0-5.183,0-10.364,0-15.547
					c0-15.464,0-30.929,0-46.393c0-14.743,0-29.485,0-44.227c0-4.28,0-8.56,0-12.839c0-0.857,0-1.715,0-2.572
					c0-0.748-1.917,0.096-0.76,0.096c1.964,0,3.929,0,5.893,0c2.565,0,0.584-1.057,0.584,0.464c0,1.277,0,2.555,0,3.832
					c0,4.857,0,9.715,0,14.572c0,15.221,0,30.441,0,45.662c0,15.04,0,30.081,0,45.121c0,4.632,0,9.264,0,13.896
					c0,1.074,0,2.148,0,3.223c0,0.202,0,0.404,0,0.606c0-0.207,1.96-0.311,0.76-0.311c-1.047,0-2.094,0-3.141,0
					c-1.542,0-3.083,0-4.625,0c-4.514,0-4.514,7,0,7c5.472,0,14.005,1.379,14.005-6.689c0-2.276,0-4.553,0-6.828
					c0-12.766,0-25.531,0-38.297c0-26.795,0-53.59,0-80.385c0-3.787-0.812-8.866-5.711-8.866c-5.472,0-14.005-1.378-14.005,6.69
					c0,7.666,0,15.332,0,22.998c0,30.135,0,60.269,0,90.403c0,5.548-2.346,18.802,4.781,20.85
					C93.417,212.302,95.26,205.546,90.93,204.302z"/>
			</g>
		</g>
		<g>
			<g>
				<path style="fill:#FFFFFF;" d="M128.951,204.302c0.677,0.194,0.358-4.748,0.358-5.708c0-5.183,0-10.364,0-15.547
					c0-15.464,0-30.929,0-46.393c0-14.743,0-29.485,0-44.227c0-4.28,0-8.56,0-12.839c0-0.857,0-1.715,0-2.572
					c0-0.748-1.917,0.096-0.76,0.096c1.964,0,3.929,0,5.893,0c2.565,0,0.584-1.057,0.584,0.464c0,1.277,0,2.555,0,3.832
					c0,4.857,0,9.715,0,14.572c0,15.221,0,30.441,0,45.662c0,15.04,0,30.081,0,45.121c0,4.632,0,9.264,0,13.896
					c0,1.074,0,2.148,0,3.223c0,0.202,0,0.404,0,0.606c0-0.207,1.96-0.311,0.76-0.311c-1.047,0-2.094,0-3.141,0
					c-1.541,0-3.083,0-4.624,0c-4.514,0-4.514,7,0,7c5.472,0,14.005,1.378,14.005-6.689c0-2.276,0-4.553,0-6.828
					c0-12.766,0-25.531,0-38.297c0-26.795,0-53.59,0-80.385c0-3.787-0.812-8.866-5.711-8.866c-5.472,0-14.005-1.378-14.005,6.69
					c0,7.666,0,15.332,0,22.998c0,30.135,0,60.269,0,90.403c0,5.548-2.346,18.801,4.781,20.85
					C131.438,212.302,133.281,205.547,128.951,204.302z"/>
			</g>
		</g>
		<g>
			<path style="fill:#FFFFFF;" d="M86.826,192.95c0,1.222-0.125,2.212-0.281,2.212H75.131c-0.155,0-0.281-0.99-0.281-2.212v-8.294
				c0-1.221,0.126-2.211,0.281-2.211h11.414c0.156,0,0.281,0.99,0.281,2.211V192.95z"/>
			<g>
				<path style="fill:#FFFFFF;" d="M83.326,192.95c-0.152,0.984-0.087,1.133,0.197,0.445c1.007-0.578,2.015-1.155,3.022-1.733
					c-3.805,0-7.609,0-11.414,0c1.007,0.578,2.015,1.155,3.022,1.733c0.55,0.874,0.197-0.823,0.197-1.308c0-1.012,0-2.024,0-3.036
					c0-1.063,0-2.128,0-3.191c0-0.352,0-0.702,0-1.054c0-0.553,0.361-1.48-0.197-0.595c-1.007,0.578-2.015,1.155-3.022,1.733
					c3.805,0,7.609,0,11.414,0c-1.007-0.578-2.015-1.155-3.022-1.733c-0.605-0.959-0.197,0.561-0.197,1.014c0,0.944,0,1.89,0,2.835
					C83.326,189.69,83.326,191.32,83.326,192.95c0,4.514,7,4.514,7,0c0-3.957,1.703-14.005-4.218-14.005c-2.865,0-5.73,0-8.596,0
					c-0.794,0-1.587,0-2.381,0c-3.222,0-3.718,3.242-3.781,5.711c-0.061,2.36,0,4.729,0,7.09c0,3.109,0.155,6.916,4.218,6.916
					c2.865,0,5.73,0,8.596,0c0.794,0,1.587,0,2.381,0c3.222,0,3.718-3.242,3.781-5.712C90.442,188.434,83.441,188.444,83.326,192.95
					z"/>
			</g>
		</g>
		<g>
			<path style="fill:#FFFFFF;" d="M125.224,192.74c0,1.221-0.255,2.211-0.568,2.211h-23.045c-0.314,0-0.568-0.99-0.568-2.211v-8.294
				c0-1.222,0.254-2.212,0.568-2.212h23.045c0.313,0,0.568,0.99,0.568,2.212V192.74z"/>
			<g>
				<path style="fill:#FFFFFF;" d="M121.724,192.74c-0.03,0.148-0.06,0.296-0.09,0.444c1.007-0.578,2.015-1.155,3.022-1.733
					c-7.682,0-15.363,0-23.045,0c1.007,0.578,2.015,1.155,3.022,1.733c-0.714-1.151-0.714-8.032,0-9.184
					c-1.007,0.578-2.015,1.155-3.022,1.733c7.682,0,15.363,0,23.045,0c-1.007-0.578-2.015-1.155-3.022-1.733
					C122.731,185.772,121.724,190.653,121.724,192.74c0,4.514,7,4.514,7,0c0-3.073,1.058-8.876-0.645-11.625
					c-1.947-3.144-5.324-2.381-8.563-2.381c-4.768,0-9.537,0-14.305,0c-4.505,0-7.105,0.411-7.669,5.712
					c-0.297,2.789-0.909,9.12,0.645,11.624c1.95,3.143,5.323,2.381,8.563,2.381c4.768,0,9.537,0,14.305,0
					c4.505,0,7.104-0.41,7.668-5.711C129.202,188.254,122.197,188.3,121.724,192.74z"/>
			</g>
		</g>
		<g>
			<path style="fill:#FFFFFF;" d="M163.139,192.846c0,1.221-0.254,2.211-0.568,2.211h-23.045c-0.314,0-0.568-0.99-0.568-2.211
				v-8.295c0-1.221,0.254-2.211,0.568-2.211h23.045c0.313,0,0.568,0.99,0.568,2.211V192.846z"/>
			<g>
				<path style="fill:#FFFFFF;" d="M159.639,192.846c-0.03,0.148-0.06,0.296-0.09,0.444c1.007-0.578,2.015-1.155,3.022-1.733
					c-7.682,0-15.363,0-23.045,0c1.007,0.578,2.015,1.155,3.022,1.733c-0.714-1.151-0.714-8.032,0-9.184
					c-1.007,0.578-2.015,1.155-3.022,1.733c7.682,0,15.363,0,23.045,0c-1.007-0.578-2.015-1.155-3.022-1.733
					C160.646,185.877,159.639,190.76,159.639,192.846c0,4.514,7,4.514,7,0c0-3.072,1.059-8.877-0.644-11.625
					c-1.949-3.143-5.324-2.381-8.563-2.381c-4.768,0-9.537,0-14.305,0c-4.504,0-7.104,0.411-7.669,5.711
					c-0.297,2.789-0.909,9.121,0.645,11.625c1.95,3.143,5.323,2.381,8.563,2.381c4.768,0,9.537,0,14.305,0
					c4.504,0,7.104-0.41,7.668-5.711C167.116,188.359,160.111,188.405,159.639,192.846z"/>
			</g>
		</g>
		<g>
			<path style="fill:#FFFFFF;" d="M175.734,184.129c0-1.221,0.117-2.211,0.261-2.211h10.608c0.145,0,0.262,0.99,0.262,2.211v8.294
				c0,1.221-0.117,2.212-0.262,2.212h-10.608c-0.145,0-0.261-0.991-0.261-2.212V184.129z"/>
			<g>
				<path style="fill:#FFFFFF;" d="M179.234,184.129c0.16-0.982,0.087-1.131-0.217-0.444c-1.007,0.578-2.015,1.155-3.022,1.733
					c3.536,0,7.072,0,10.608,0c-1.008-0.578-2.015-1.155-3.022-1.733c-0.553-0.943-0.216,0.851-0.216,1.307c0,1.012,0,2.024,0,3.036
					c0,1.063,0,2.128,0,3.191c0,0.522-0.269,2.477,0.216,1.649c1.008-0.578,2.015-1.155,3.022-1.733c-3.536,0-7.072,0-10.608,0
					c1.007,0.578,2.015,1.155,3.022,1.733c0.596,1.019,0.217-0.58,0.217-1.015c0-0.944,0-1.89,0-2.835
					C179.234,187.389,179.234,185.759,179.234,184.129c0-4.514-7-4.514-7,0c0,3.763-1.672,14.006,4.023,14.006
					c2.628,0,5.257,0,7.886,0c0.819,0,1.64,0,2.46,0c3.229,0,3.703-3.243,3.762-5.712c0.057-2.36,0-4.729,0-7.09
					c0-2.951-0.06-6.915-4.024-6.915c-2.628,0-5.257,0-7.885,0c-0.82,0-1.64,0-2.46,0c-3.229,0-3.703,3.242-3.761,5.711
					C172.127,188.646,179.127,188.635,179.234,184.129z"/>
			</g>
		</g>
		<g>
			<path style="fill:#FFFFFF;" d="M86.826,97.053c0,1.221-0.125,2.211-0.281,2.211H75.131c-0.155,0-0.281-0.99-0.281-2.211v-8.293
				c0-1.221,0.126-2.211,0.281-2.211h11.414c0.156,0,0.281,0.991,0.281,2.211V97.053z"/>
			<g>
				<path style="fill:#FFFFFF;" d="M83.326,97.053c-0.152,0.984-0.087,1.133,0.197,0.445c1.007-0.578,2.015-1.156,3.022-1.733
					c-3.805,0-7.609,0-11.414,0c1.007,0.578,2.015,1.156,3.022,1.733c0.551,0.874,0.197-0.823,0.197-1.307c0-1.012,0-2.024,0-3.036
					c0-1.064,0-2.128,0-3.192c0-0.351,0-0.702,0-1.053c0-0.553,0.361-1.482-0.197-0.596c-1.007,0.578-2.015,1.156-3.022,1.733
					c3.805,0,7.609,0,11.414,0c-1.007-0.578-2.015-1.156-3.022-1.733c-0.605-0.959-0.197,0.561-0.197,1.014c0,0.945,0,1.89,0,2.835
					C83.326,93.793,83.326,95.423,83.326,97.053c0,4.514,7,4.514,7,0c0-3.957,1.703-14.005-4.218-14.005c-2.865,0-5.73,0-8.596,0
					c-0.794,0-1.587,0-2.381,0c-3.222,0-3.718,3.242-3.781,5.711c-0.061,2.36,0,4.729,0,7.09c0,3.108,0.156,6.915,4.218,6.915
					c2.865,0,5.73,0,8.596,0c0.794,0,1.587,0,2.381,0c3.222,0,3.718-3.242,3.781-5.711C90.442,92.536,83.441,92.547,83.326,97.053z"
					/>
			</g>
		</g>
		<g>
			<path style="fill:#FFFFFF;" d="M125.224,96.842c0,1.221-0.255,2.211-0.568,2.211h-23.045c-0.314,0-0.568-0.991-0.568-2.211
				v-8.294c0-1.221,0.254-2.211,0.568-2.211h23.045c0.313,0,0.568,0.99,0.568,2.211V96.842z"/>
			<g>
				<path style="fill:#FFFFFF;" d="M121.724,96.842c-0.03,0.148-0.06,0.296-0.09,0.445c1.007-0.578,2.015-1.156,3.022-1.733
					c-7.682,0-15.363,0-23.045,0c1.007,0.578,2.015,1.156,3.022,1.733c-0.714-1.151-0.714-8.032,0-9.183
					c-1.007,0.578-2.015,1.156-3.022,1.733c7.682,0,15.363,0,23.045,0c-1.007-0.578-2.015-1.156-3.022-1.733
					C122.731,89.875,121.724,94.756,121.724,96.842c0,4.514,7,4.514,7,0c0-3.073,1.058-8.875-0.645-11.624
					c-1.948-3.144-5.324-2.381-8.563-2.381c-4.768,0-9.537,0-14.305,0c-4.504,0-7.104,0.411-7.669,5.711
					c-0.297,2.79-0.909,9.12,0.645,11.624c1.95,3.143,5.323,2.381,8.563,2.381c4.768,0,9.537,0,14.305,0
					c4.505,0,7.104-0.411,7.668-5.711C129.202,92.356,122.197,92.402,121.724,96.842z"/>
			</g>
		</g>
		<g>
			<path style="fill:#FFFFFF;" d="M163.139,96.947c0,1.221-0.254,2.211-0.568,2.211h-23.045c-0.314,0-0.568-0.99-0.568-2.211v-8.293
				c0-1.221,0.254-2.211,0.568-2.211h23.045c0.313,0,0.568,0.991,0.568,2.211V96.947z"/>
			<g>
				<path style="fill:#FFFFFF;" d="M159.639,96.947c-0.03,0.148-0.06,0.296-0.09,0.445c1.007-0.578,2.015-1.156,3.022-1.733
					c-7.682,0-15.363,0-23.045,0c1.007,0.578,2.015,1.156,3.022,1.733c-0.714-1.151-0.714-8.032,0-9.183
					c-1.007,0.578-2.015,1.156-3.022,1.733c7.682,0,15.363,0,23.045,0c-1.007-0.578-2.015-1.156-3.022-1.733
					C160.646,89.979,159.639,94.861,159.639,96.947c0,4.514,7,4.514,7,0c0-3.072,1.058-8.876-0.644-11.624
					c-1.948-3.144-5.324-2.381-8.563-2.381c-4.768,0-9.537,0-14.305,0c-4.505,0-7.104,0.411-7.669,5.711
					c-0.297,2.79-0.909,9.12,0.645,11.624c1.95,3.143,5.323,2.381,8.563,2.381c4.768,0,9.537,0,14.305,0
					c4.505,0,7.104-0.411,7.668-5.711C167.116,92.46,160.111,92.507,159.639,96.947z"/>
			</g>
		</g>
		<g>
			<g>
				<path style="fill:#FFFFFF;" d="M205.416,96.868c-0.152,0.984-0.087,1.132,0.196,0.445c1.008-0.578,2.015-1.156,3.022-1.733
					c-3.805,0-7.609,0-11.414,0c1.008,0.578,2.015,1.156,3.022,1.733c0.55,0.874,0.196-0.823,0.196-1.308c0-1.012,0-2.023,0-3.036
					c0-1.064,0-2.128,0-3.191c0-0.351,0-0.702,0-1.053c0-0.553,0.361-1.482-0.196-0.596c-1.008,0.578-2.015,1.156-3.022,1.733
					c3.805,0,7.609,0,11.414,0c-1.008-0.578-2.015-1.156-3.022-1.733c-0.604-0.96-0.196,0.562-0.196,1.014c0,0.945,0,1.89,0,2.835
					C205.416,93.608,205.416,95.238,205.416,96.868c0,4.514,7,4.514,7,0c0-3.957,1.703-14.005-4.218-14.005c-2.865,0-5.73,0-8.597,0
					c-0.793,0-1.587,0-2.381,0c-3.222,0-3.718,3.242-3.781,5.711c-0.061,2.36,0,4.729,0,7.09c0,3.109,0.155,6.916,4.218,6.916
					c2.865,0,5.73,0,8.597,0c0.793,0,1.587,0,2.381,0c3.222,0,3.718-3.242,3.781-5.711
					C212.532,92.352,205.532,92.363,205.416,96.868z"/>
			</g>
		</g>
		<g>
			<path style="fill:#FFFFFF;" d="M175.891,88.596c0-1.221,0.117-2.211,0.261-2.211h10.608c0.145,0,0.262,0.99,0.262,2.211v8.293
				c0,1.221-0.117,2.211-0.262,2.211h-10.608c-0.144,0-0.261-0.99-0.261-2.211V88.596z"/>
			<g>
				<path style="fill:#FFFFFF;" d="M179.391,88.596c0.16-0.982,0.087-1.131-0.217-0.445c-1.007,0.578-2.015,1.156-3.022,1.733
					c3.536,0,7.072,0,10.608,0c-1.008-0.578-2.015-1.156-3.022-1.733c-0.553-0.943-0.216,0.851-0.216,1.307c0,1.012,0,2.024,0,3.036
					c0,1.064,0,2.128,0,3.192c0,0.522-0.269,2.476,0.216,1.648c1.008-0.578,2.015-1.156,3.022-1.733c-3.536,0-7.072,0-10.608,0
					c1.007,0.578,2.015,1.156,3.022,1.733c0.596,1.02,0.217-0.58,0.217-1.014c0-0.945,0-1.89,0-2.835
					C179.391,91.856,179.391,90.226,179.391,88.596c0-4.514-7-4.514-7,0c0,3.763-1.672,14.005,4.023,14.005c2.628,0,5.257,0,7.886,0
					c0.819,0,1.64,0,2.46,0c3.229,0,3.703-3.243,3.762-5.711c0.057-2.36,0-4.729,0-7.09c0-2.951-0.059-6.915-4.024-6.915
					c-2.628,0-5.257,0-7.885,0c-0.82,0-1.64,0-2.46,0c-3.229,0-3.702,3.243-3.761,5.711
					C172.283,93.113,179.284,93.103,179.391,88.596z"/>
			</g>
		</g>
	</g>
	<g>
		<g>
			<path style="fill:#FFFFFF;" d="M198.484,245.925c0.188-0.586,1.316-0.445,0.176-0.445c-0.85,0-1.699,0-2.549,0
				c-2.498,0-4.996,0-7.494,0c-1.551,0-3.101,0-4.651,0c-0.838,0,0.667,2.139,0.667,0.943c0-0.583,0-1.167,0-1.751
				c0-7.809,0-15.618,0-23.428c0,1.479-1.653,1.327-0.302,1.327c0.85,0,1.699,0,2.549,0c2.498,0,4.996,0,7.494,0
				c1.627,0,3.254,0,4.881,0c-1.013,0-0.896-2.243-0.896-0.622c0,0.68,0,1.36,0,2.041c0,7.622,0,15.243,0,22.865
				c0,4.514,7,4.514,7,0c0-4.441,0-8.883,0-13.324c0-3.889,1.089-9.495-0.125-13.268c-1.939-6.028-8.692-4.692-13.738-4.692
				c-5.047,0-11.799-1.336-13.738,4.692c-1.214,3.772-0.125,9.379-0.125,13.268c0,4.441,0,8.883,0,13.324
				c0,6.741,8.491,5.624,12.886,5.624c5.196,0,12.706,1.554,14.716-4.693C206.621,243.477,199.861,241.646,198.484,245.925z"/>
		</g>
	</g>
	<g>
		<g>
			<path style="fill:#FFFFFF;" d="M227.125,245.158c-0.064,0.367,1.441,0.321-0.311,0.321c-1.267,0-2.533,0-3.8,0
				c-2.756,0-5.512,0-8.268,0c-0.713,0-1.427,0-2.141,0c-0.28,0,0.667,1.114,0.667,0.043c0-1.819,0-3.639,0-5.458
				c0-9.623,0-19.246,0-28.869c0,0.734-1.64,0.572,0.186,0.572c1.267,0,2.533,0,3.8,0c2.986,0,5.973,0,8.959,0
				c0.56,0,1.119,0,1.679,0c-1.095,0-0.896-1.074-0.896,0.265c0,1.979,0,3.957,0,5.937c0,9.373,0,18.746,0,28.12
				c0,4.514,7,4.514,7,0c0-11.353,0-22.704,0-34.057c0-7.04-5.566-7.265-10.985-7.265c-5.5,0-15.295-2.032-16.616,5.46
				c-0.839,4.756-0.125,10.152-0.125,14.956c0,6.555,0,13.109,0,19.664c0,6.644,4.577,7.632,10.089,7.632
				c5.598,0,16.159,2.213,17.513-5.46C234.653,242.606,227.908,240.719,227.125,245.158z"/>
		</g>
	</g>
	<g>
		<g>
			<path style="fill:#FFFFFF;" d="M255.799,245.131c0.685,0.242,0.799,0.344,0.345,0.307c-0.51,0-1.021,0-1.53,0
				c-1.768,0-3.535,0-5.304,0c-2.691,0-5.383,0-8.075,0c0.854,0,0.713,1.093,0.713-0.054c0-0.802,0-1.604,0-2.406
				c0-2.893,0-5.785,0-8.678c0-11.57,0-23.142,0-34.712c0,0.875-0.98,0.596,1.061,0.596c1.768,0,3.535,0,5.304,0
				c1.858,0,3.717,0,5.575,0c0.623,0,1.247,0,1.87,0c1.247,0-0.083,0.122-0.083-0.596c0,4.207,0,8.415,0,12.622
				c0,11.284,0,22.567,0,33.852c0,4.514,7,4.514,7,0c0-12.428,0-24.855,0-37.283c0-3.797,1.207-10.702-1.817-13.727
				c-2.152-2.152-5.013-1.868-7.779-1.868c-3.737,0-7.476,0-11.213,0c-6.244,0-6.917,5.165-6.917,10.007c0,7.204,0,14.407,0,21.611
				c0,6.525,0,13.051,0,19.576c0,6.331,3.902,8.06,9.597,8.06c5.661,0,16.541,2.264,18.005-5.445
				C263.387,242.581,256.641,240.699,255.799,245.131z"/>
		</g>
	</g>
	<g>
		<g>
			<path style="fill:#FFFFFF;" d="M284.401,245.183c-0.044,0.231,1.256,0.214,0.066,0.214c-0.583,0-1.166,0-1.749,0
				c-1.769,0-3.537,0-5.306,0s-3.537,0-5.306,0c-0.583,0-1.166,0-1.749,0c-1.229,0,0.191,0.091,0.191,0.632
				c0-4.189,0-8.379,0-12.569c0-14.634,0-29.269,0-43.902c0-1.38,0-2.759,0-4.138c0,0.335-1.441,0.528,0.289,0.528
				c1.87,0,3.741,0,5.611,0c2.868,0,5.735,0,8.603,0c-0.928,0-0.776-1.265-0.776,0.024c0,0.854,0,1.707,0,2.561
				c0,14.415,0,28.831,0,43.246c0,4.778,0,9.557,0,14.335c0,4.514,7,4.514,7,0c0-11.468,0-22.936,0-34.403
				c0-7.004,0-14.009,0-21.013c0-3.735,0.831-10.341-4.186-11.406c-5.501-1.168-11.713-0.344-17.317-0.344
				c-5.965,0-6.224,5.725-6.224,10.082c0,14.532,0,29.065,0,43.598c0,5.674-1.961,15.306,3.35,19.073
				c2.923,2.073,10.102,0.696,13.348,0.696c4.557,0,9.804,0.381,10.904-5.353C291.998,242.634,285.252,240.753,284.401,245.183z"/>
		</g>
	</g>
	<g>
		<path style="fill:#FFFFFF;" d="M199.264,290.906l-1.644-7.081h-9.347l-1.586,7.081h-7.251c1.662-6.041,3.342-11.545,5.042-16.514
			c1.699-4.967,3.342-9.68,4.928-14.136h7.591c1.661,4.489,3.313,9.251,4.957,14.284c1.643,5.035,3.237,10.49,4.786,16.365H199.264z
			 M193.031,266.198c-0.377,1.155-0.727,2.253-1.047,3.293c-0.322,1.04-0.623,2.063-0.906,3.069
			c-0.284,1.008-0.549,2.022-0.794,3.045c-0.246,1.023-0.481,2.08-0.708,3.17h6.854c-0.227-1.09-0.453-2.146-0.68-3.17
			c-0.227-1.022-0.481-2.037-0.765-3.045c-0.283-1.006-0.586-2.029-0.906-3.069C193.758,268.451,193.408,267.354,193.031,266.198z"
			/>
		<path style="fill:#FFFFFF;" d="M221.299,291.549c-2.266,0-4.163-0.271-5.693-0.816c-1.529-0.545-2.746-1.328-3.653-2.352
			c-0.906-1.023-1.549-2.261-1.926-3.714c-0.378-1.452-0.566-3.069-0.566-4.853v-19.558h7.024v19.161
			c0,1.288,0.075,2.369,0.227,3.244c0.15,0.875,0.405,1.576,0.765,2.104c0.358,0.529,0.858,0.908,1.501,1.139
			c0.643,0.232,1.453,0.348,2.436,0.348s1.794-0.115,2.437-0.348c0.642-0.23,1.151-0.618,1.529-1.163
			c0.378-0.544,0.642-1.254,0.794-2.129c0.15-0.874,0.227-1.956,0.227-3.243v-19.112h6.967v19.558c0,1.783-0.189,3.4-0.566,4.853
			c-0.378,1.453-1.039,2.69-1.982,3.714c-0.944,1.023-2.191,1.807-3.738,2.352C225.528,291.277,223.603,291.549,221.299,291.549z"/>
		<path style="fill:#FFFFFF;" d="M262.482,260.257v5.05h-9.233v25.6h-7.024v-25.6h-9.234v-5.05H262.482z"/>
		<path style="fill:#FFFFFF;" d="M265.428,275.557c0-5.281,1.114-9.268,3.343-11.957c2.228-2.691,5.325-4.036,9.29-4.036
			c4.116,0,7.252,1.345,9.404,4.036c2.152,2.689,3.229,6.676,3.229,11.957s-1.096,9.268-3.285,11.957
			c-2.191,2.691-5.288,4.035-9.291,4.035c-4.116,0-7.26-1.344-9.432-4.035C266.514,284.824,265.428,280.838,265.428,275.557z
			 M272.51,275.557c0,1.485,0.065,2.881,0.198,4.184c0.132,1.305,0.396,2.436,0.793,3.393s0.953,1.716,1.671,2.277
			c0.717,0.561,1.68,0.842,2.889,0.842c1.171,0,2.125-0.281,2.861-0.842c0.736-0.562,1.303-1.328,1.699-2.303
			c0.396-0.973,0.66-2.104,0.793-3.392c0.133-1.288,0.199-2.674,0.199-4.159s-0.066-2.88-0.199-4.184
			c-0.133-1.305-0.396-2.435-0.793-3.393c-0.396-0.957-0.954-1.715-1.671-2.277c-0.718-0.561-1.681-0.842-2.89-0.842
			s-2.172,0.281-2.889,0.842c-0.718,0.563-1.274,1.329-1.671,2.303s-0.661,2.104-0.793,3.392
			C272.575,272.685,272.51,274.071,272.51,275.557z"/>
	</g>
</g>
<g id="Ebene_1">
</g>
</svg>
