<?xml version="1.0" encoding="iso-8859-1"?>
<!-- Generator: Adobe Illustrator 16.0.0, SVG Export Plug-In . SVG Version: 6.00 Build 0)  -->
<!DOCTYPE svg PUBLIC "-//W3C//DTD SVG 1.1 Tiny//EN" "http://www.w3.org/Graphics/SVG/1.1/DTD/svg11-tiny.dtd">
<svg version="1.1" baseProfile="tiny" id="sani_x5F_buffer_x5F_temp_x5F_all"
	 xmlns="http://www.w3.org/2000/svg" xmlns:xlink="http://www.w3.org/1999/xlink" x="0px" y="0px" width="361px" height="361px"
	 viewBox="0 0 361 361" xml:space="preserve">
<path id="Speicher" fill="none" stroke="#FFFFFF" stroke-width="10" stroke-miterlimit="10" d="M174.566,284.261
	c0,2.918-12.255,5.284-27.372,5.284h-46.758c-15.116,0-27.372-2.366-27.372-5.284V82.776c0-2.918,12.256-5.285,27.372-5.285h46.758
	c15.116,0,27.372,2.366,27.372,5.285V284.261z"/>
<g id="WT_unten">
	<g>
		<path fill="#FFFFFF" d="M95.469,219.953c19.596-3.332,39.191-6.664,58.786-9.997c6.348-1.079,3.647-10.715-2.658-9.643
			c-19.596,3.332-39.191,6.664-58.786,9.997C86.463,211.39,89.164,221.025,95.469,219.953L95.469,219.953z"/>
	</g>
	<g>
		<path fill="#FFFFFF" d="M154.255,220.783c-19.595-3.333-39.19-6.665-58.786-9.997c-6.306-1.072-9.006,8.563-2.658,9.643
			c19.595,3.333,39.19,6.665,58.786,9.997C157.903,231.498,160.603,221.862,154.255,220.783L154.255,220.783z"/>
	</g>
	<g>
		<path fill="#FFFFFF" d="M154.255,234.745c-19.595-3.333-39.19-6.665-58.786-9.997c-6.306-1.072-9.006,8.563-2.658,9.643
			c19.595,3.333,39.19,6.665,58.786,9.997C157.903,245.46,160.603,235.825,154.255,234.745L154.255,234.745z"/>
	</g>
	<g>
		<path fill="#FFFFFF" d="M154.255,248.707c-19.595-3.332-39.19-6.664-58.786-9.996c-6.306-1.072-9.006,8.563-2.658,9.643
			c19.595,3.332,39.19,6.664,58.786,9.996C157.903,259.422,160.603,249.786,154.255,248.707L154.255,248.707z"/>
	</g>
	<g>
		<path fill="#FFFFFF" d="M154.255,262.67c-19.595-3.333-39.19-6.665-58.786-9.997c-6.306-1.072-9.006,8.563-2.658,9.643
			c19.595,3.333,39.19,6.665,58.786,9.997C157.903,273.385,160.603,263.75,154.255,262.67L154.255,262.67z"/>
	</g>
	<g>
		<path fill="#FFFFFF" d="M155.966,210.188c13.732,0,27.463,0,41.195,0c6.449,0,6.449-10,0-10c-13.732,0-27.463,0-41.195,0
			C149.518,200.188,149.518,210.188,155.966,210.188L155.966,210.188z"/>
	</g>
	<g>
		<path fill="#FFFFFF" d="M155.966,272.729c13.732,0,27.463,0,41.195,0c6.449,0,6.449-10,0-10c-13.732,0-27.463,0-41.195,0
			C149.518,262.729,149.518,272.729,155.966,272.729L155.966,272.729z"/>
	</g>
</g>
<g id="Thermometer">
	<path fill="none" stroke="#FFFFFF" stroke-width="10" stroke-miterlimit="10" d="M266.13,218.797c0,1.86-1.634,3.369-3.648,3.369
		h-13.378c-2.015,0-3.649-1.508-3.649-3.369V125.4c0-1.861,1.634-3.369,3.649-3.369h13.378c2.015,0,3.648,1.508,3.648,3.369V218.797
		z"/>
	<path fill="#FFFFFF" stroke="#FFFFFF" stroke-width="10" stroke-miterlimit="10" d="M271.603,246.896
		c0,2.015-1.28,3.649-2.86,3.649h-25.901c-1.58,0-2.86-1.634-2.86-3.649v-21.081c0-2.015,1.281-3.649,2.86-3.649h25.901
		c1.58,0,2.86,1.634,2.86,3.649V246.896z"/>
	<g>
		<path fill="#FFFFFF" d="M274.036,134.329c3.648,0,7.297,0,10.946,0c6.449,0,6.449-10,0-10c-3.648,0-7.297,0-10.946,0
			C267.587,124.329,267.587,134.329,274.036,134.329L274.036,134.329z"/>
	</g>
	<g>
		<path fill="#FFFFFF" d="M274.036,158.653c3.648,0,7.297,0,10.946,0c6.449,0,6.449-10,0-10c-3.648,0-7.297,0-10.946,0
			C267.587,148.653,267.587,158.653,274.036,158.653L274.036,158.653z"/>
	</g>
	<g>
		<path fill="#FFFFFF" d="M274.036,183.585c3.648,0,7.297,0,10.946,0c6.449,0,6.449-10,0-10c-3.648,0-7.297,0-10.946,0
			C267.587,173.585,267.587,183.585,274.036,183.585L274.036,183.585z"/>
	</g>
	<g>
		<path fill="#FFFFFF" d="M274.036,209.734c3.648,0,7.297,0,10.946,0c6.449,0,6.449-10,0-10c-3.648,0-7.297,0-10.946,0
			C267.587,199.734,267.587,209.734,274.036,209.734L274.036,209.734z"/>
	</g>
</g>
<rect id="Temperatur" x="245.454" y="188.771" fill="#FFFFFF" stroke="#FFFFFF" stroke-width="10" stroke-miterlimit="10" width="20.676" height="42.922"/>
<g id="WT_oben">
	<g>
		<path fill="#FFFFFF" d="M95.469,123.435c19.596-3.332,39.191-6.664,58.786-9.997c6.348-1.079,3.647-10.715-2.658-9.643
			c-19.596,3.332-39.191,6.664-58.786,9.997C86.463,114.871,89.164,124.507,95.469,123.435L95.469,123.435z"/>
	</g>
	<g>
		<path fill="#FFFFFF" d="M154.255,124.264c-19.595-3.333-39.19-6.665-58.786-9.998c-6.306-1.072-9.006,8.563-2.658,9.643
			c19.595,3.333,39.19,6.665,58.786,9.998C157.903,134.979,160.603,125.343,154.255,124.264L154.255,124.264z"/>
	</g>
	<g>
		<path fill="#FFFFFF" d="M154.255,138.226c-19.595-3.332-39.19-6.664-58.786-9.996c-6.306-1.072-9.006,8.563-2.658,9.643
			c19.595,3.332,39.19,6.664,58.786,9.996C157.903,148.94,160.603,139.305,154.255,138.226L154.255,138.226z"/>
	</g>
	<g>
		<path fill="#FFFFFF" d="M154.255,152.188c-19.595-3.333-39.19-6.665-58.786-9.997c-6.306-1.072-9.006,8.563-2.658,9.643
			c19.595,3.333,39.19,6.665,58.786,9.997C157.903,162.903,160.603,153.267,154.255,152.188L154.255,152.188z"/>
	</g>
	<g>
		<path fill="#FFFFFF" d="M154.255,166.15c-19.595-3.332-39.19-6.664-58.786-9.996c-6.306-1.072-9.006,8.563-2.658,9.643
			c19.595,3.332,39.19,6.664,58.786,9.996C157.903,176.865,160.603,167.229,154.255,166.15L154.255,166.15z"/>
	</g>
	<g>
		<path fill="#FFFFFF" d="M155.966,113.669c13.732,0,27.463,0,41.195,0c6.449,0,6.449-10,0-10c-13.732,0-27.463,0-41.195,0
			C149.518,103.669,149.518,113.669,155.966,113.669L155.966,113.669z"/>
	</g>
	<g>
		<path fill="#FFFFFF" d="M155.966,176.209c13.732,0,27.463,0,41.195,0c6.449,0,6.449-10,0-10c-13.732,0-27.463,0-41.195,0
			C149.518,166.209,149.518,176.209,155.966,176.209L155.966,176.209z"/>
	</g>
</g>
</svg>
