<?xml version="1.0" encoding="iso-8859-1"?>
<!-- Generator: Adobe Illustrator 16.0.0, SVG Export Plug-In . SVG Version: 6.00 Build 0)  -->
<!DOCTYPE svg PUBLIC "-//W3C//DTD SVG 1.1//EN" "http://www.w3.org/Graphics/SVG/1.1/DTD/svg11.dtd">
<svg version="1.1" xmlns="http://www.w3.org/2000/svg" xmlns:xlink="http://www.w3.org/1999/xlink" x="0px" y="0px" width="361px"
	 height="361px" viewBox="0 0 361 361" style="enable-background:new 0 0 361 361;" xml:space="preserve">
<g id="sani_x5F_earth_x5F_source_x5F_heat_x5F_pump">
	<path id="Speicher_1_" style="fill:none;stroke:#FFFFFF;stroke-width:10;stroke-miterlimit:10;" d="M177.084,191.383
		c0,2.918-12.255,5.284-27.372,5.284h-46.758c-15.116,0-27.372-2.366-27.372-5.284V79.898c0-2.918,12.256-5.285,27.372-5.285h46.758
		c15.116,0,27.372,2.366,27.372,5.285V191.383z"/>
	<g>
		<g>
			<path style="fill:#FFFFFF;" d="M97.987,120.557c19.596-3.332,39.191-6.664,58.786-9.997c6.348-1.079,3.647-10.715-2.658-9.643
				c-19.596,3.332-39.191,6.664-58.786,9.997C88.981,111.993,91.682,121.629,97.987,120.557L97.987,120.557z"/>
		</g>
	</g>
	<g>
		<g>
			<path style="fill:#FFFFFF;" d="M156.773,121.386c-19.595-3.333-39.19-6.665-58.786-9.998c-6.306-1.072-9.006,8.563-2.658,9.643
				c19.595,3.333,39.19,6.665,58.786,9.998C160.421,132.101,163.121,122.465,156.773,121.386L156.773,121.386z"/>
		</g>
	</g>
	<g>
		<g>
			<path style="fill:#FFFFFF;" d="M156.773,135.348c-19.595-3.332-39.19-6.664-58.786-9.996c-6.306-1.072-9.006,8.563-2.658,9.643
				c19.595,3.332,39.19,6.664,58.786,9.996C160.421,146.063,163.121,136.427,156.773,135.348L156.773,135.348z"/>
		</g>
	</g>
	<g>
		<g>
			<path style="fill:#FFFFFF;" d="M156.773,149.31c-19.595-3.333-39.19-6.665-58.786-9.997c-6.306-1.072-9.006,8.563-2.658,9.643
				c19.595,3.333,39.19,6.665,58.786,9.997C160.421,160.025,163.121,150.389,156.773,149.31L156.773,149.31z"/>
		</g>
	</g>
	<g>
		<g>
			<path style="fill:#FFFFFF;" d="M156.773,163.272c-19.595-3.332-39.19-6.664-58.786-9.996c-6.306-1.072-9.006,8.563-2.658,9.643
				c19.595,3.332,39.19,6.664,58.786,9.996C160.421,173.987,163.121,164.351,156.773,163.272L156.773,163.272z"/>
		</g>
	</g>
	<g>
		<g>
			<path style="fill:#FFFFFF;" d="M155.444,110.792c35.388,0,70.775,0,106.163,0c6.448,0,6.448-10,0-10
				c-35.388,0-70.775,0-106.163,0C148.996,100.792,148.996,110.792,155.444,110.792L155.444,110.792z"/>
		</g>
	</g>
	<g>
		<g>
			<path style="fill:#FFFFFF;" d="M167.61,228.09c27.43,0,54.858,0,82.288,0c1.935,0,1.935-3,0-3c-27.43,0-54.858,0-82.288,0
				C165.676,225.09,165.676,228.09,167.61,228.09L167.61,228.09z"/>
		</g>
	</g>
	<g>
		<g>
			<path style="fill:#FFFFFF;" d="M283.333,281.38c1.531,0,3.063,0,4.595,0c1.908,0,3.5-1.592,3.5-3.5s-1.592-3.5-3.5-3.5
				c-1.531,0-3.063,0-4.595,0c-1.908,0-3.5,1.592-3.5,3.5S281.425,281.38,283.333,281.38L283.333,281.38z"/>
		</g>
	</g>
	<g>
		<g>
			<path style="fill:#FFFFFF;" d="M256.607,291.38c5.333,0,10.667,0,16,0c4.514,0,4.514-7,0-7c-5.333,0-10.667,0-16,0
				C252.094,284.38,252.094,291.38,256.607,291.38L256.607,291.38z"/>
		</g>
	</g>
	<g>
		<g>
			<path style="fill:#FFFFFF;" d="M271.192,285.38c2,0,4,0,6,0c1.908,0,3.5-1.592,3.5-3.5s-1.592-3.5-3.5-3.5c-2,0-4,0-6,0
				c-1.908,0-3.5,1.592-3.5,3.5S269.284,285.38,271.192,285.38L271.192,285.38z"/>
		</g>
	</g>
	<g>
		<g>
			<path style="fill:#FFFFFF;" d="M286.525,291.38c0.667,0,1.333,0,2,0c1.908,0,3.5-1.592,3.5-3.5s-1.592-3.5-3.5-3.5
				c-0.667,0-1.333,0-2,0c-1.908,0-3.5,1.592-3.5,3.5S284.617,291.38,286.525,291.38L286.525,291.38z"/>
		</g>
	</g>
	<g>
		<g>
			<path style="fill:#FFFFFF;" d="M286.109,227.758c-2,0-4,0-6,0c-1.908,0-3.5,1.592-3.5,3.5s1.592,3.5,3.5,3.5c2,0,4,0,6,0
				c1.908,0,3.5-1.592,3.5-3.5S288.018,227.758,286.109,227.758L286.109,227.758z"/>
		</g>
	</g>
	<g>
		<g>
			<path style="fill:#FFFFFF;" d="M274.797,240.451c-0.667,0-1.333,0-2,0c-1.908,0-3.5,1.592-3.5,3.5s1.592,3.5,3.5,3.5
				c0.667,0,1.333,0,2,0c1.908,0,3.5-1.592,3.5-3.5S276.705,240.451,274.797,240.451L274.797,240.451z"/>
		</g>
	</g>
	<g>
		<g>
			<path style="fill:#FFFFFF;" d="M288.775,257.547c-4.659,0-9.319,0-13.979,0c-4.514,0-4.514,7,0,7c4.659,0,9.319,0,13.979,0
				C293.289,264.547,293.289,257.547,288.775,257.547L288.775,257.547z"/>
		</g>
	</g>
	<g>
		<g>
			<path style="fill:#FFFFFF;" d="M283.333,265.547c-2.846,0-5.69,0-8.536,0c-4.514,0-4.514,7,0,7c2.846,0,5.69,0,8.536,0
				C287.847,272.547,287.847,265.547,283.333,265.547L283.333,265.547z"/>
		</g>
	</g>
	<g>
		<g>
			<path style="fill:#FFFFFF;" d="M288.109,251.547c-2,0-4,0-6,0c-1.908,0-3.5,1.592-3.5,3.5s1.592,3.5,3.5,3.5c2,0,4,0,6,0
				c1.908,0,3.5-1.592,3.5-3.5S290.018,251.547,288.109,251.547L288.109,251.547z"/>
		</g>
	</g>
	<g>
		<g>
			<path style="fill:#FFFFFF;" d="M284.109,235.754c-2,0-4,0-6,0c-1.908,0-3.5,1.592-3.5,3.5s1.592,3.5,3.5,3.5c2,0,4,0,6,0
				c1.908,0,3.5-1.592,3.5-3.5S286.018,235.754,284.109,235.754L284.109,235.754z"/>
		</g>
	</g>
	<g>
		<g>
			<path style="fill:#FFFFFF;" d="M227.131,260.963c-2,0-4,0-6,0c-1.908,0-3.5,1.592-3.5,3.5s1.592,3.5,3.5,3.5c2,0,4,0,6,0
				c1.908,0,3.5-1.592,3.5-3.5S229.039,260.963,227.131,260.963L227.131,260.963z"/>
		</g>
	</g>
	<g>
		<g>
			<path style="fill:#FFFFFF;" d="M287.775,269.547c-0.222,0-0.444,0-0.666,0c-1.908,0-3.5,1.592-3.5,3.5s1.592,3.5,3.5,3.5
				c0.222,0,0.444,0,0.666,0c1.908,0,3.5-1.592,3.5-3.5S289.684,269.547,287.775,269.547L287.775,269.547z"/>
		</g>
	</g>
	<g>
		<g>
			<path style="fill:#FFFFFF;" d="M73.691,282.483c2.337,0,4.673,0,7.01,0c4.514,0,4.514-7,0-7c-2.337,0-4.673,0-7.01,0
				C69.177,275.483,69.177,282.483,73.691,282.483L73.691,282.483z"/>
		</g>
	</g>
	<g>
		<g>
			<path style="fill:#FFFFFF;" d="M168.906,232.758c2.581,0,5.161,0,7.741,0c4.514,0,4.514-7,0-7c-2.581,0-5.161,0-7.741,0
				C164.392,225.758,164.392,232.758,168.906,232.758L168.906,232.758z"/>
		</g>
	</g>
	<g>
		<g>
			<path style="fill:#FFFFFF;" d="M203.067,240.451c5.083,0,10.167,0,15.25,0c4.514,0,4.514-7,0-7c-5.083,0-10.167,0-15.25,0
				C198.554,233.451,198.554,240.451,203.067,240.451L203.067,240.451z"/>
		</g>
	</g>
	<g>
		<g>
			<path style="fill:#FFFFFF;" d="M122.011,291.38c2,0,4,0,6,0c1.908,0,3.5-1.592,3.5-3.5s-1.592-3.5-3.5-3.5c-2,0-4,0-6,0
				c-1.908,0-3.5,1.592-3.5,3.5S120.103,291.38,122.011,291.38L122.011,291.38z"/>
		</g>
	</g>
	<g>
		<g>
			<path style="fill:#FFFFFF;" d="M246.18,283.872c-3,0-6,0-9,0c-4.514,0-4.514,7,0,7c3,0,6,0,9,0
				C250.693,290.872,250.693,283.872,246.18,283.872L246.18,283.872z"/>
		</g>
	</g>
	<g>
		<g>
			<path style="fill:#FFFFFF;" d="M187.776,245.75c-5.333,0-10.667,0-16,0c-4.514,0-4.514,7,0,7c5.333,0,10.667,0,16,0
				C192.29,252.75,192.29,245.75,187.776,245.75L187.776,245.75z"/>
		</g>
	</g>
	<g>
		<g>
			<path style="fill:#FFFFFF;" d="M81.191,249.154c-2,0-4,0-6,0c-1.908,0-3.5,1.592-3.5,3.5s1.592,3.5,3.5,3.5c2,0,4,0,6,0
				c1.908,0,3.5-1.592,3.5-3.5S83.099,249.154,81.191,249.154L81.191,249.154z"/>
		</g>
	</g>
	<g>
		<g>
			<path style="fill:#FFFFFF;" d="M238.43,258.13c-1.083,0-2.167,0-3.25,0c-1.908,0-3.5,1.592-3.5,3.5s1.592,3.5,3.5,3.5
				c1.083,0,2.167,0,3.25,0c1.908,0,3.5-1.592,3.5-3.5S240.338,258.13,238.43,258.13L238.43,258.13z"/>
		</g>
	</g>
	<g>
		<g>
			<path style="fill:#FFFFFF;" d="M188.357,243.451c0.667,0,1.333,0,2,0c1.908,0,3.5-1.592,3.5-3.5s-1.592-3.5-3.5-3.5
				c-0.667,0-1.333,0-2,0c-1.908,0-3.5,1.592-3.5,3.5S186.449,243.451,188.357,243.451L188.357,243.451z"/>
		</g>
	</g>
	<g>
		<g>
			<path style="fill:#FFFFFF;" d="M93.526,275.872c-0.667,0-1.333,0-2,0c-1.908,0-3.5,1.592-3.5,3.5s1.592,3.5,3.5,3.5
				c0.667,0,1.333,0,2,0c1.908,0,3.5-1.592,3.5-3.5S95.434,275.872,93.526,275.872L93.526,275.872z"/>
		</g>
	</g>
	<g>
		<g>
			<path style="fill:#FFFFFF;" d="M196.106,284.38c-2,0-4,0-6,0c-1.908,0-3.5,1.592-3.5,3.5s1.592,3.5,3.5,3.5c2,0,4,0,6,0
				c1.908,0,3.5-1.592,3.5-3.5S198.015,284.38,196.106,284.38L196.106,284.38z"/>
		</g>
	</g>
	<g>
		<g>
			<path style="fill:#FFFFFF;" d="M85.775,260.483c-1.833,0-3.667,0-5.5,0c-1.908,0-3.5,1.592-3.5,3.5s1.592,3.5,3.5,3.5
				c1.833,0,3.667,0,5.5,0c1.908,0,3.5-1.592,3.5-3.5S87.683,260.483,85.775,260.483L85.775,260.483z"/>
		</g>
	</g>
	<g>
		<g>
			<path style="fill:#FFFFFF;" d="M178.192,261.547c3,0,6.001,0,9.001,0c4.514,0,4.514-7,0-7c-3,0-6.001,0-9.001,0
				C173.678,254.547,173.678,261.547,178.192,261.547L178.192,261.547z"/>
		</g>
	</g>
	<g>
		<g>
			<path style="fill:#FFFFFF;" d="M205.858,291.415c5.333,0,10.667,0,16,0c4.514,0,4.514-7,0-7c-5.333,0-10.667,0-16,0
				C201.345,284.415,201.345,291.415,205.858,291.415L205.858,291.415z"/>
		</g>
	</g>
	<g>
		<g>
			<path style="fill:#FFFFFF;" d="M240.43,249.75c2,0,4,0,6,0c1.908,0,3.5-1.592,3.5-3.5s-1.592-3.5-3.5-3.5c-2,0-4,0-6,0
				c-1.908,0-3.5,1.592-3.5,3.5S238.521,249.75,240.43,249.75L240.43,249.75z"/>
		</g>
	</g>
	<g>
		<g>
			<path style="fill:#FFFFFF;" d="M284.109,248.477c0.667,0,1.333,0,2,0c1.908,0,3.5-1.592,3.5-3.5s-1.592-3.5-3.5-3.5
				c-0.667,0-1.333,0-2,0c-1.908,0-3.5,1.592-3.5,3.5S282.201,248.477,284.109,248.477L284.109,248.477z"/>
		</g>
	</g>
	<g>
		<g>
			<path style="fill:#FFFFFF;" d="M217.047,257.963c-2,0-4,0-6,0c-1.908,0-3.5,1.592-3.5,3.5s1.592,3.5,3.5,3.5c2,0,4,0,6,0
				c1.908,0,3.5-1.592,3.5-3.5S218.955,257.963,217.047,257.963L217.047,257.963z"/>
		</g>
	</g>
	<g>
		<g>
			<path style="fill:#FFFFFF;" d="M219.131,252.131c-5.083,0-10.167,0-15.25,0c-4.514,0-4.514,7,0,7c5.083,0,10.167,0,15.25,0
				C223.645,259.131,223.645,252.131,219.131,252.131L219.131,252.131z"/>
		</g>
	</g>
	<g>
		<g>
			<path style="fill:#FFFFFF;" d="M247.43,260.483c-2,0-4,0-6,0c-1.908,0-3.5,1.592-3.5,3.5s1.592,3.5,3.5,3.5c2,0,4,0,6,0
				c1.908,0,3.5-1.592,3.5-3.5S249.338,260.483,247.43,260.483L247.43,260.483z"/>
		</g>
	</g>
	<g>
		<g>
			<path style="fill:#FFFFFF;" d="M247.93,227.758c-3,0-6.001,0-9.001,0c-4.514,0-4.514,7,0,7c3,0,6.001,0,9.001,0
				C252.443,234.758,252.443,227.758,247.93,227.758L247.93,227.758z"/>
		</g>
	</g>
	<g>
		<g>
			<path style="fill:#FFFFFF;" d="M244.602,252.885c-5.333,0-10.667,0-16,0c-4.514,0-4.514,7,0,7c5.333,0,10.667,0,16,0
				C249.115,259.885,249.115,252.885,244.602,252.885L244.602,252.885z"/>
		</g>
	</g>
	<g>
		<g>
			<path style="fill:#FFFFFF;" d="M79.524,231.338c-2,0-4,0-6,0c-1.908,0-3.5,1.592-3.5,3.5s1.592,3.5,3.5,3.5c2,0,4,0,6,0
				c1.908,0,3.5-1.592,3.5-3.5S81.432,231.338,79.524,231.338L79.524,231.338z"/>
		</g>
	</g>
	<g>
		<g>
			<path style="fill:#FFFFFF;" d="M213.858,243.75c-0.667,0-1.333,0-2,0c-1.908,0-3.5,1.592-3.5,3.5s1.592,3.5,3.5,3.5
				c0.667,0,1.333,0,2,0c1.908,0,3.5-1.592,3.5-3.5S215.767,243.75,213.858,243.75L213.858,243.75z"/>
		</g>
	</g>
	<g>
		<g>
			<path style="fill:#FFFFFF;" d="M144.844,291.38c2,0,4,0,6,0c1.908,0,3.5-1.592,3.5-3.5s-1.592-3.5-3.5-3.5c-2,0-4,0-6,0
				c-1.908,0-3.5,1.592-3.5,3.5S142.937,291.38,144.844,291.38L144.844,291.38z"/>
		</g>
	</g>
	<g>
		<g>
			<path style="fill:#FFFFFF;" d="M85.761,291.213c5.083,0,10.167,0,15.25,0c4.514,0,4.514-7,0-7c-5.083,0-10.167,0-15.25,0
				C81.247,284.213,81.247,291.213,85.761,291.213L85.761,291.213z"/>
		</g>
	</g>
	<g>
		<g>
			<path style="fill:#FFFFFF;" d="M79.702,249.752c2,0,4,0,6,0c1.908,0,3.5-1.592,3.5-3.5s-1.592-3.5-3.5-3.5c-2,0-4,0-6,0
				c-1.908,0-3.5,1.592-3.5,3.5S77.794,249.752,79.702,249.752L79.702,249.752z"/>
		</g>
	</g>
	<g>
		<g>
			<path style="fill:#FFFFFF;" d="M170.584,268.483c3,0,6,0,9,0c4.514,0,4.514-7,0-7c-3,0-6,0-9,0
				C166.07,261.483,166.07,268.483,170.584,268.483L170.584,268.483z"/>
		</g>
	</g>
	<g>
		<g>
			<path style="fill:#FFFFFF;" d="M159.526,291.415c5.333,0,10.667,0,16,0c4.514,0,4.514-7,0-7c-5.333,0-10.667,0-16,0
				C155.012,284.415,155.012,291.415,159.526,291.415L159.526,291.415z"/>
		</g>
	</g>
	<g>
		<g>
			<path style="fill:#FFFFFF;" d="M224.131,249.752c2,0,4,0,6,0c1.908,0,3.5-1.592,3.5-3.5s-1.592-3.5-3.5-3.5c-2,0-4,0-6,0
				c-1.908,0-3.5,1.592-3.5,3.5S222.223,249.752,224.131,249.752L224.131,249.752z"/>
		</g>
	</g>
	<g>
		<g>
			<path style="fill:#FFFFFF;" d="M176.085,237.756c0.667,0,1.333,0,2,0c1.908,0,3.5-1.592,3.5-3.5s-1.592-3.5-3.5-3.5
				c-0.667,0-1.333,0-2,0c-1.908,0-3.5,1.592-3.5,3.5S174.177,237.756,176.085,237.756L176.085,237.756z"/>
		</g>
	</g>
	<g>
		<g>
			<path style="fill:#FFFFFF;" d="M179.776,236.451c-3.722,0-7.444,0-11.166,0c-4.514,0-4.514,7,0,7c3.722,0,7.444,0,11.166,0
				C184.29,243.451,184.29,236.451,179.776,236.451L179.776,236.451z"/>
		</g>
	</g>
	<g>
		<g>
			<path style="fill:#FFFFFF;" d="M206.962,261.166c-3.902,0-7.806,0-11.708,0c-4.514,0-4.514,7,0,7c3.902,0,7.806,0,11.708,0
				C211.476,268.166,211.476,261.166,206.962,261.166L206.962,261.166z"/>
		</g>
	</g>
	<g>
		<g>
			<path style="fill:#FFFFFF;" d="M230.317,230.756c-2,0-4,0-6,0c-1.908,0-3.5,1.592-3.5,3.5s1.592,3.5,3.5,3.5c2,0,4,0,6,0
				c1.908,0,3.5-1.592,3.5-3.5S232.226,230.756,230.317,230.756L230.317,230.756z"/>
		</g>
	</g>
	<g>
		<g>
			<path style="fill:#FFFFFF;" d="M191.693,245.75c-3,0-6,0-9,0c-4.514,0-4.514,7,0,7c3,0,6,0,9,0
				C196.207,252.75,196.207,245.75,191.693,245.75L191.693,245.75z"/>
		</g>
	</g>
	<g>
		<g>
			<path style="fill:#FFFFFF;" d="M199.731,242.75c-1.083,0-2.167,0-3.25,0c-1.908,0-3.5,1.592-3.5,3.5s1.592,3.5,3.5,3.5
				c1.083,0,2.167,0,3.25,0c1.908,0,3.5-1.592,3.5-3.5S201.64,242.75,199.731,242.75L199.731,242.75z"/>
		</g>
	</g>
	<g>
		<g>
			<path style="fill:#FFFFFF;" d="M89.202,225.758c-2,0-4,0-6,0c-1.908,0-3.5,1.592-3.5,3.5s1.592,3.5,3.5,3.5c2,0,4,0,6,0
				c1.908,0,3.5-1.592,3.5-3.5S91.11,225.758,89.202,225.758L89.202,225.758z"/>
		</g>
	</g>
	<g>
		<g>
			<path style="fill:#FFFFFF;" d="M87.202,280.63c-1.833,0-3.667,0-5.5,0c-1.908,0-3.5,1.592-3.5,3.5s1.592,3.5,3.5,3.5
				c1.833,0,3.667,0,5.5,0c1.908,0,3.5-1.592,3.5-3.5S89.11,280.63,87.202,280.63L87.202,280.63z"/>
		</g>
	</g>
	<g>
		<g>
			<path style="fill:#FFFFFF;" d="M186.357,266.483c1.945,0,3.891,0,5.836,0c4.514,0,4.514-7,0-7c-1.945,0-3.891,0-5.836,0
				C181.844,259.483,181.844,266.483,186.357,266.483L186.357,266.483z"/>
		</g>
	</g>
	<g>
		<g>
			<path style="fill:#FFFFFF;" d="M139.025,282.511c-0.667,0-1.333,0-2,0c-1.908,0-3.5,1.592-3.5,3.5s1.592,3.5,3.5,3.5
				c0.667,0,1.333,0,2,0c1.908,0,3.5-1.592,3.5-3.5S140.933,282.511,139.025,282.511L139.025,282.511z"/>
		</g>
	</g>
	<g>
		<g>
			<path style="fill:#FFFFFF;" d="M216.398,227.758c-6.86,0-13.72,0-20.58,0c-4.514,0-4.514,7,0,7c6.86,0,13.72,0,20.58,0
				C220.912,234.758,220.912,227.758,216.398,227.758L216.398,227.758z"/>
		</g>
	</g>
	<g>
		<g>
			<path style="fill:#FFFFFF;" d="M105.203,291.213c1.833,0,3.667,0,5.5,0c1.908,0,3.5-1.592,3.5-3.5s-1.592-3.5-3.5-3.5
				c-1.833,0-3.667,0-5.5,0c-1.908,0-3.5,1.592-3.5,3.5S103.295,291.213,105.203,291.213L105.203,291.213z"/>
		</g>
	</g>
	<g>
		<g>
			<path style="fill:#FFFFFF;" d="M73.274,290.261c0.667,0,1.333,0,2,0c1.908,0,3.5-1.592,3.5-3.5s-1.592-3.5-3.5-3.5
				c-0.667,0-1.333,0-2,0c-1.908,0-3.5,1.592-3.5,3.5S71.366,290.261,73.274,290.261L73.274,290.261z"/>
		</g>
	</g>
	<g>
		<g>
			<path style="fill:#FFFFFF;" d="M81.274,239.756c0.667,0,1.333,0,2,0c1.908,0,3.5-1.592,3.5-3.5s-1.592-3.5-3.5-3.5
				c-0.667,0-1.333,0-2,0c-1.908,0-3.5,1.592-3.5,3.5S79.367,239.756,81.274,239.756L81.274,239.756z"/>
		</g>
	</g>
	<g>
		<g>
			<path style="fill:#FFFFFF;" d="M82.274,269.115c-1.833,0-3.667,0-5.5,0c-1.908,0-3.5,1.592-3.5,3.5s1.592,3.5,3.5,3.5
				c1.833,0,3.667,0,5.5,0c1.908,0,3.5-1.592,3.5-3.5S84.182,269.115,82.274,269.115L82.274,269.115z"/>
		</g>
	</g>
	<g>
		<g>
			<path style="fill:#FFFFFF;" d="M249.012,238.451c-3.722,0-7.444,0-11.166,0c-4.514,0-4.514,7,0,7c3.722,0,7.444,0,11.166,0
				C253.525,245.451,253.525,238.451,249.012,238.451L249.012,238.451z"/>
		</g>
	</g>
	<g>
		<g>
			<path style="fill:#FFFFFF;" d="M83.107,256.547c-3.278,0-6.556,0-9.833,0c-4.514,0-4.514,7,0,7c3.278,0,6.556,0,9.833,0
				C87.622,263.547,87.622,256.547,83.107,256.547L83.107,256.547z"/>
		</g>
	</g>
	<g>
		<g>
			<path style="fill:#FFFFFF;" d="M119.12,279.511c-3.722,0-7.444,0-11.166,0c-4.514,0-4.514,7,0,7c3.722,0,7.444,0,11.166,0
				C123.634,286.511,123.634,279.511,119.12,279.511L119.12,279.511z"/>
		</g>
	</g>
	<g>
		<g>
			<g>
				<path style="fill:#FFFFFF;" d="M283.697,156.72c-0.321,12.316-9.832,21.827-22.148,22.148
					c-12.314,0.321-21.84-10.316-22.148-22.148c-0.321-12.315,10.315-21.84,22.148-22.149
					C273.864,134.25,283.389,144.887,283.697,156.72c0.117,4.505,7.118,4.517,7,0c-0.422-16.174-12.974-28.727-29.148-29.149
					c-16.171-0.422-28.743,13.61-29.148,29.149c-0.422,16.17,13.61,28.743,29.148,29.148c16.17,0.422,28.743-13.609,29.148-29.148
					C290.815,152.204,283.814,152.215,283.697,156.72z"/>
			</g>
		</g>
		<path style="fill:#FFFFFF;" d="M270.797,130.257c0,1.542-1.25,2.792-2.791,2.792h-13.029c-1.541,0-2.791-1.25-2.791-2.792v-6.048
			c0-1.542,1.25-2.792,2.791-2.792h13.029c1.541,0,2.791,1.25,2.791,2.792V130.257z"/>
		<path style="fill:#FFFFFF;" d="M270.797,189.813c0,1.542-1.25,2.792-2.791,2.792h-13.029c-1.541,0-2.791-1.25-2.791-2.792v-6.049
			c0-1.541,1.25-2.792,2.791-2.792h13.029c1.541,0,2.791,1.25,2.791,2.792V189.813z"/>
		<path style="fill:#FFFFFF;" d="M272.965,194.25c0,1.682-0.915,3.045-2.045,3.045h-18.977c-1.129,0-2.045-1.363-2.045-3.045v-0.847
			c0-1.683,0.916-3.046,2.045-3.046h18.977c1.13,0,2.045,1.363,2.045,3.046V194.25z"/>
		<g>
			<g>
				<path style="fill:#FFFFFF;" d="M258.584,178.752c-11.692,0-23.386,0-35.078,0c-1.927,0-3.853,0-5.779,0
					c-0.554,0,0.395,1.155,0.395,0.222c0-0.731,0-1.463,0-2.195c0-6.654,0-13.309,0-19.963c0-6.48,0-12.961,0-19.442
					c0-0.823,0-1.646,0-2.47c0-1.203-0.053-0.023-0.548-0.023c1.739,0,3.479,0,5.22,0c11.93,0,23.86,0,35.791,0c4.514,0,4.514-7,0-7
					c-12.37,0-24.74,0-37.11,0c-4.645,0-10.353,0.31-10.353,6.583c0,5.477,0,10.953,0,16.43c0,7.634,0,15.268,0,22.901
					c0,4.725-0.552,11.957,6.326,11.957c12.37,0,24.74,0,37.11,0c1.342,0,2.685,0,4.026,0
					C263.098,185.752,263.098,178.752,258.584,178.752L258.584,178.752z"/>
			</g>
		</g>
		<g>
			<g>
				<path style="fill:#FFFFFF;" d="M201.996,131.304c0,16.982,0,33.965,0,50.948c0,4.514,7,4.514,7,0c0-16.982,0-33.965,0-50.948
					C208.996,126.79,201.996,126.79,201.996,131.304L201.996,131.304z"/>
			</g>
		</g>
	</g>
	<g>
		<g>
			<path style="fill:#FFFFFF;" d="M97.987,243.075c19.596-3.332,39.191-6.664,58.786-9.996c6.348-1.079,3.647-10.715-2.658-9.643
				c-19.596,3.332-39.191,6.664-58.786,9.996C88.981,234.512,91.682,244.147,97.987,243.075L97.987,243.075z"/>
		</g>
	</g>
	<g>
		<g>
			<path style="fill:#FFFFFF;" d="M156.773,257.829c-19.595-3.332-39.19-6.664-58.786-9.996c-6.306-1.072-9.006,8.563-2.658,9.643
				c19.595,3.332,39.19,6.664,58.786,9.996C160.421,268.544,163.121,258.908,156.773,257.829L156.773,257.829z"/>
		</g>
	</g>
	<g>
		<g>
			<path style="fill:#FFFFFF;" d="M156.773,271.792c-19.595-3.332-39.19-6.664-58.786-9.996c-6.306-1.072-9.006,8.563-2.658,9.643
				c19.595,3.332,39.19,6.664,58.786,9.996C160.421,282.507,163.121,272.871,156.773,271.792L156.773,271.792z"/>
		</g>
	</g>
	<g>
		<g>
			<path style="fill:#FFFFFF;" d="M158.484,281.851c34.374,0,68.749,0,103.123,0c6.448,0,6.448-10,0-10
				c-34.374,0-68.749,0-103.123,0C152.036,271.851,152.036,281.851,158.484,281.851L158.484,281.851z"/>
		</g>
	</g>
	<g>
		<g>
			<path style="fill:#FFFFFF;" d="M156.773,243.429c-19.595-3.332-39.19-6.664-58.786-9.996c-6.306-1.072-9.006,8.563-2.658,9.643
				c19.595,3.332,39.19,6.664,58.786,9.996C160.421,254.144,163.121,244.508,156.773,243.429L156.773,243.429z"/>
		</g>
	</g>
	<g>
		<g>
			<path style="fill:#FFFFFF;" d="M150.444,168.093c0,20.055,0,40.11,0,60.165c0,6.448,10,6.448,10,0c0-20.055,0-40.109,0-60.165
				C160.444,161.645,150.444,161.645,150.444,168.093L150.444,168.093z"/>
		</g>
	</g>
	<g>
		<g>
			<path style="fill:#FFFFFF;" d="M256.549,191.826c0,28.342,0,56.683,0,85.024c0,6.448,10,6.448,10,0c0-28.342,0-56.683,0-85.024
				C266.549,185.378,256.549,185.378,256.549,191.826L256.549,191.826z"/>
		</g>
	</g>
	<g>
		<g>
			<path style="fill:#FFFFFF;" d="M256.432,106.134c0,7.274,0,14.548,0,21.822c0,6.449,10,6.449,10,0c0-7.274,0-14.548,0-21.822
				C266.432,99.686,256.432,99.686,256.432,106.134L256.432,106.134z"/>
		</g>
	</g>
	<g>
		<g>
			<path style="fill:#FFFFFF;" d="M271.797,228.09c5.993,0,11.985,0,17.979,0c1.935,0,1.935-3,0-3c-5.993,0-11.985,0-17.979,0
				C269.862,225.09,269.862,228.09,271.797,228.09L271.797,228.09z"/>
		</g>
	</g>
	<g>
		<g>
			<path style="fill:#FFFFFF;" d="M71.583,228.09c10.874,0,21.747,0,32.62,0c1.935,0,1.935-3,0-3c-10.874,0-21.747,0-32.62,0
				C69.648,225.09,69.648,228.09,71.583,228.09L71.583,228.09z"/>
		</g>
	</g>
</g>
<g id="Ebene_1">
</g>
</svg>
