<?xml version="1.0" encoding="iso-8859-1"?>
<!-- Generator: Adobe Illustrator 16.0.0, SVG Export Plug-In . SVG Version: 6.00 Build 0)  -->
<!DOCTYPE svg PUBLIC "-//W3C//DTD SVG 1.1//EN" "http://www.w3.org/Graphics/SVG/1.1/DTD/svg11.dtd">
<svg version="1.1" xmlns="http://www.w3.org/2000/svg" xmlns:xlink="http://www.w3.org/1999/xlink" x="0px" y="0px" width="361px"
	 height="361px" viewBox="0 0 361 361" style="enable-background:new 0 0 361 361;" xml:space="preserve">
<g id="sani_x5F_heating_x5F_temp">
	<g>
		<g>
			<path style="fill:#FFFFFF;" d="M166.338,243.984c0.678,0.195,0.358-4.745,0.358-5.707c0-5.183,0-10.365,0-15.547
				c0-15.465,0-30.93,0-46.394c0-14.742,0-29.484,0-44.227c0-4.28,0-8.56,0-12.839c0-0.857,0-1.715,0-2.572
				c0-0.748-1.917,0.096-0.76,0.096c1.964,0,3.929,0,5.893,0c2.566,0,0.583-1.057,0.583,0.464c0,1.277,0,2.555,0,3.832
				c0,4.858,0,9.715,0,14.573c0,15.221,0,30.441,0,45.662c0,15.04,0,30.081,0,45.121c0,4.632,0,9.264,0,13.896
				c0,1.074,0,2.148,0,3.223c0,0.202,0,0.404,0,0.606c0-0.208,1.961-0.312,0.761-0.312c-1.047,0-2.094,0-3.141,0
				c-1.542,0-3.083,0-4.625,0c-4.514,0-4.514,7,0,7c5.471,0,14.005,1.379,14.005-6.688c0-2.276,0-4.553,0-6.828
				c0-12.766,0-25.532,0-38.298c0-26.795,0-53.59,0-80.385c0-3.786-0.812-8.866-5.711-8.866c-5.472,0-14.005-1.378-14.005,6.69
				c0,7.666,0,15.332,0,22.998c0,30.135,0,60.269,0,90.404c0,5.548-2.347,18.8,4.781,20.849
				C168.825,251.984,170.668,245.229,166.338,243.984z"/>
		</g>
	</g>
	<g>
		<g>
			<path style="fill:#FFFFFF;" d="M90.93,244.302c0.677,0.194,0.358-4.748,0.358-5.708c0-5.183,0-10.364,0-15.547
				c0-15.465,0-30.929,0-46.393c0-14.743,0-29.485,0-44.227c0-4.28,0-8.56,0-12.839c0-0.857,0-1.715,0-2.572
				c0-0.748-1.917,0.096-0.76,0.096c1.964,0,3.929,0,5.893,0c2.565,0,0.584-1.057,0.584,0.464c0,1.277,0,2.555,0,3.832
				c0,4.857,0,9.715,0,14.572c0,15.221,0,30.441,0,45.663c0,15.04,0,30.08,0,45.12c0,4.632,0,9.264,0,13.896
				c0,1.074,0,2.148,0,3.223c0,0.202,0,0.404,0,0.606c0-0.207,1.96-0.311,0.76-0.311c-1.047,0-2.094,0-3.141,0
				c-1.542,0-3.083,0-4.625,0c-4.514,0-4.514,7,0,7c5.472,0,14.005,1.379,14.005-6.689c0-2.276,0-4.553,0-6.828
				c0-12.766,0-25.531,0-38.297c0-26.795,0-53.59,0-80.385c0-3.787-0.812-8.866-5.711-8.866c-5.472,0-14.005-1.378-14.005,6.69
				c0,7.666,0,15.332,0,22.998c0,30.135,0,60.27,0,90.403c0,5.548-2.346,18.802,4.781,20.85
				C93.417,252.302,95.26,245.546,90.93,244.302z"/>
		</g>
	</g>
	<g>
		<g>
			<path style="fill:#FFFFFF;" d="M128.951,244.302c0.677,0.194,0.358-4.748,0.358-5.708c0-5.183,0-10.364,0-15.547
				c0-15.465,0-30.929,0-46.393c0-14.743,0-29.485,0-44.227c0-4.28,0-8.56,0-12.839c0-0.857,0-1.715,0-2.572
				c0-0.748-1.917,0.096-0.76,0.096c1.964,0,3.929,0,5.893,0c2.565,0,0.584-1.057,0.584,0.464c0,1.277,0,2.555,0,3.832
				c0,4.857,0,9.715,0,14.572c0,15.221,0,30.441,0,45.663c0,15.04,0,30.08,0,45.12c0,4.632,0,9.264,0,13.896
				c0,1.074,0,2.148,0,3.223c0,0.202,0,0.404,0,0.606c0-0.207,1.96-0.311,0.76-0.311c-1.047,0-2.094,0-3.141,0
				c-1.541,0-3.083,0-4.624,0c-4.514,0-4.514,7,0,7c5.472,0,14.005,1.378,14.005-6.689c0-2.276,0-4.553,0-6.828
				c0-12.766,0-25.531,0-38.297c0-26.795,0-53.59,0-80.385c0-3.787-0.812-8.866-5.711-8.866c-5.472,0-14.005-1.378-14.005,6.69
				c0,7.666,0,15.332,0,22.998c0,30.135,0,60.27,0,90.403c0,5.548-2.346,18.801,4.781,20.85
				C131.438,252.302,133.281,245.547,128.951,244.302z"/>
		</g>
	</g>
	<g>
		<path style="fill:#FFFFFF;" d="M86.826,232.95c0,1.222-0.125,2.212-0.281,2.212H75.131c-0.155,0-0.281-0.99-0.281-2.212v-8.294
			c0-1.221,0.126-2.211,0.281-2.211h11.414c0.156,0,0.281,0.99,0.281,2.211V232.95z"/>
		<g>
			<path style="fill:#FFFFFF;" d="M83.326,232.95c-0.152,0.984-0.087,1.133,0.197,0.445c1.007-0.578,2.015-1.155,3.022-1.733
				c-3.805,0-7.609,0-11.414,0c1.007,0.578,2.015,1.155,3.022,1.733c0.55,0.874,0.197-0.823,0.197-1.308c0-1.012,0-2.024,0-3.036
				c0-1.063,0-2.128,0-3.191c0-0.352,0-0.702,0-1.054c0-0.553,0.361-1.48-0.197-0.595c-1.007,0.578-2.015,1.155-3.022,1.733
				c3.805,0,7.609,0,11.414,0c-1.007-0.578-2.015-1.155-3.022-1.733c-0.605-0.959-0.197,0.561-0.197,1.014c0,0.944,0,1.89,0,2.835
				C83.326,229.69,83.326,231.32,83.326,232.95c0,4.514,7,4.514,7,0c0-3.957,1.703-14.005-4.218-14.005c-2.865,0-5.73,0-8.596,0
				c-0.794,0-1.587,0-2.381,0c-3.222,0-3.718,3.242-3.781,5.711c-0.061,2.36,0,4.729,0,7.09c0,3.109,0.155,6.916,4.218,6.916
				c2.865,0,5.73,0,8.596,0c0.794,0,1.587,0,2.381,0c3.222,0,3.718-3.242,3.781-5.712C90.442,228.434,83.441,228.444,83.326,232.95z
				"/>
		</g>
	</g>
	<g>
		<path style="fill:#FFFFFF;" d="M125.224,232.74c0,1.221-0.255,2.211-0.568,2.211h-23.045c-0.314,0-0.568-0.99-0.568-2.211v-8.294
			c0-1.222,0.254-2.212,0.568-2.212h23.045c0.313,0,0.568,0.99,0.568,2.212V232.74z"/>
		<g>
			<path style="fill:#FFFFFF;" d="M121.724,232.74c-0.03,0.148-0.06,0.296-0.09,0.444c1.007-0.578,2.015-1.155,3.022-1.733
				c-7.682,0-15.363,0-23.045,0c1.007,0.578,2.015,1.155,3.022,1.733c-0.714-1.151-0.714-8.032,0-9.184
				c-1.007,0.578-2.015,1.155-3.022,1.733c7.682,0,15.363,0,23.045,0c-1.007-0.578-2.015-1.155-3.022-1.733
				C122.731,225.772,121.724,230.653,121.724,232.74c0,4.514,7,4.514,7,0c0-3.073,1.058-8.876-0.645-11.625
				c-1.947-3.144-5.324-2.381-8.563-2.381c-4.768,0-9.537,0-14.305,0c-4.505,0-7.105,0.411-7.669,5.712
				c-0.297,2.789-0.909,9.12,0.645,11.624c1.95,3.143,5.323,2.381,8.563,2.381c4.768,0,9.537,0,14.305,0
				c4.505,0,7.104-0.41,7.668-5.711C129.202,228.254,122.197,228.3,121.724,232.74z"/>
		</g>
	</g>
	<g>
		<path style="fill:#FFFFFF;" d="M163.139,232.846c0,1.221-0.254,2.211-0.568,2.211h-23.045c-0.314,0-0.568-0.99-0.568-2.211v-8.295
			c0-1.221,0.254-2.211,0.568-2.211h23.045c0.313,0,0.568,0.99,0.568,2.211V232.846z"/>
		<g>
			<path style="fill:#FFFFFF;" d="M159.639,232.846c-0.03,0.148-0.06,0.296-0.09,0.444c1.007-0.578,2.015-1.155,3.022-1.733
				c-7.682,0-15.363,0-23.045,0c1.007,0.578,2.015,1.155,3.022,1.733c-0.714-1.151-0.714-8.032,0-9.184
				c-1.007,0.578-2.015,1.155-3.022,1.733c7.682,0,15.363,0,23.045,0c-1.007-0.578-2.015-1.155-3.022-1.733
				C160.646,225.877,159.639,230.76,159.639,232.846c0,4.514,7,4.514,7,0c0-3.072,1.059-8.877-0.644-11.625
				c-1.949-3.144-5.324-2.381-8.563-2.381c-4.768,0-9.537,0-14.305,0c-4.504,0-7.104,0.41-7.669,5.711
				c-0.297,2.789-0.909,9.121,0.645,11.625c1.95,3.143,5.323,2.381,8.563,2.381c4.768,0,9.537,0,14.305,0
				c4.504,0,7.104-0.41,7.668-5.711C167.116,228.359,160.111,228.405,159.639,232.846z"/>
		</g>
	</g>
	<g>
		<path style="fill:#FFFFFF;" d="M175.734,224.129c0-1.221,0.117-2.211,0.261-2.211h10.608c0.145,0,0.262,0.99,0.262,2.211v8.294
			c0,1.221-0.117,2.212-0.262,2.212h-10.608c-0.145,0-0.261-0.991-0.261-2.212V224.129z"/>
		<g>
			<path style="fill:#FFFFFF;" d="M179.234,224.129c0.16-0.982,0.087-1.131-0.217-0.444c-1.007,0.578-2.015,1.155-3.022,1.733
				c3.536,0,7.072,0,10.608,0c-1.008-0.578-2.015-1.155-3.022-1.733c-0.553-0.943-0.216,0.851-0.216,1.307c0,1.012,0,2.024,0,3.036
				c0,1.063,0,2.128,0,3.191c0,0.522-0.269,2.477,0.216,1.649c1.008-0.578,2.015-1.155,3.022-1.733c-3.536,0-7.072,0-10.608,0
				c1.007,0.578,2.015,1.155,3.022,1.733c0.596,1.019,0.217-0.58,0.217-1.015c0-0.944,0-1.89,0-2.835
				C179.234,227.389,179.234,225.759,179.234,224.129c0-4.514-7-4.514-7,0c0,3.763-1.672,14.006,4.023,14.006
				c2.628,0,5.257,0,7.886,0c0.819,0,1.64,0,2.46,0c3.229,0,3.703-3.243,3.762-5.712c0.057-2.36,0-4.729,0-7.09
				c0-2.951-0.06-6.915-4.024-6.915c-2.628,0-5.257,0-7.885,0c-0.82,0-1.64,0-2.46,0c-3.229,0-3.703,3.242-3.761,5.711
				C172.127,228.646,179.127,228.635,179.234,224.129z"/>
		</g>
	</g>
	<g>
		<path style="fill:#FFFFFF;" d="M86.826,137.053c0,1.221-0.125,2.211-0.281,2.211H75.131c-0.155,0-0.281-0.99-0.281-2.211v-8.293
			c0-1.221,0.126-2.211,0.281-2.211h11.414c0.156,0,0.281,0.991,0.281,2.211V137.053z"/>
		<g>
			<path style="fill:#FFFFFF;" d="M83.326,137.053c-0.152,0.984-0.087,1.133,0.197,0.445c1.007-0.578,2.015-1.156,3.022-1.733
				c-3.805,0-7.609,0-11.414,0c1.007,0.578,2.015,1.156,3.022,1.733c0.551,0.874,0.197-0.823,0.197-1.307c0-1.012,0-2.024,0-3.036
				c0-1.064,0-2.128,0-3.192c0-0.351,0-0.702,0-1.053c0-0.553,0.361-1.482-0.197-0.596c-1.007,0.578-2.015,1.156-3.022,1.733
				c3.805,0,7.609,0,11.414,0c-1.007-0.578-2.015-1.156-3.022-1.733c-0.605-0.959-0.197,0.561-0.197,1.014c0,0.945,0,1.89,0,2.835
				C83.326,133.793,83.326,135.423,83.326,137.053c0,4.514,7,4.514,7,0c0-3.957,1.703-14.005-4.218-14.005c-2.865,0-5.73,0-8.596,0
				c-0.794,0-1.587,0-2.381,0c-3.222,0-3.718,3.242-3.781,5.711c-0.061,2.36,0,4.729,0,7.09c0,3.108,0.156,6.915,4.218,6.915
				c2.865,0,5.73,0,8.596,0c0.794,0,1.587,0,2.381,0c3.222,0,3.718-3.242,3.781-5.711C90.442,132.536,83.441,132.547,83.326,137.053
				z"/>
		</g>
	</g>
	<g>
		<path style="fill:#FFFFFF;" d="M125.224,136.842c0,1.221-0.255,2.211-0.568,2.211h-23.045c-0.314,0-0.568-0.991-0.568-2.211
			v-8.294c0-1.221,0.254-2.211,0.568-2.211h23.045c0.313,0,0.568,0.99,0.568,2.211V136.842z"/>
		<g>
			<path style="fill:#FFFFFF;" d="M121.724,136.842c-0.03,0.148-0.06,0.296-0.09,0.445c1.007-0.578,2.015-1.156,3.022-1.733
				c-7.682,0-15.363,0-23.045,0c1.007,0.578,2.015,1.156,3.022,1.733c-0.714-1.151-0.714-8.032,0-9.183
				c-1.007,0.578-2.015,1.156-3.022,1.733c7.682,0,15.363,0,23.045,0c-1.007-0.578-2.015-1.156-3.022-1.733
				C122.731,129.875,121.724,134.756,121.724,136.842c0,4.514,7,4.514,7,0c0-3.073,1.058-8.875-0.645-11.624
				c-1.948-3.144-5.324-2.381-8.563-2.381c-4.768,0-9.537,0-14.305,0c-4.504,0-7.104,0.411-7.669,5.711
				c-0.297,2.79-0.909,9.12,0.645,11.624c1.95,3.143,5.323,2.381,8.563,2.381c4.768,0,9.537,0,14.305,0
				c4.505,0,7.104-0.411,7.668-5.711C129.202,132.356,122.197,132.402,121.724,136.842z"/>
		</g>
	</g>
	<g>
		<path style="fill:#FFFFFF;" d="M163.139,136.947c0,1.221-0.254,2.211-0.568,2.211h-23.045c-0.314,0-0.568-0.99-0.568-2.211v-8.293
			c0-1.221,0.254-2.211,0.568-2.211h23.045c0.313,0,0.568,0.991,0.568,2.211V136.947z"/>
		<g>
			<path style="fill:#FFFFFF;" d="M159.639,136.947c-0.03,0.148-0.06,0.296-0.09,0.445c1.007-0.578,2.015-1.156,3.022-1.733
				c-7.682,0-15.363,0-23.045,0c1.007,0.578,2.015,1.156,3.022,1.733c-0.714-1.151-0.714-8.032,0-9.183
				c-1.007,0.578-2.015,1.156-3.022,1.733c7.682,0,15.363,0,23.045,0c-1.007-0.578-2.015-1.156-3.022-1.733
				C160.646,129.979,159.639,134.861,159.639,136.947c0,4.514,7,4.514,7,0c0-3.072,1.058-8.876-0.644-11.624
				c-1.948-3.144-5.324-2.381-8.563-2.381c-4.768,0-9.537,0-14.305,0c-4.505,0-7.104,0.411-7.669,5.711
				c-0.297,2.79-0.909,9.12,0.645,11.624c1.95,3.143,5.323,2.381,8.563,2.381c4.768,0,9.537,0,14.305,0
				c4.505,0,7.104-0.411,7.668-5.711C167.116,132.46,160.111,132.507,159.639,136.947z"/>
		</g>
	</g>
	<g>
		<g>
			<path style="fill:#FFFFFF;" d="M205.416,136.868c-0.152,0.984-0.087,1.132,0.196,0.445c1.008-0.578,2.015-1.156,3.022-1.733
				c-3.805,0-7.609,0-11.414,0c1.008,0.578,2.015,1.156,3.022,1.733c0.55,0.874,0.196-0.823,0.196-1.308c0-1.012,0-2.023,0-3.036
				c0-1.064,0-2.128,0-3.191c0-0.351,0-0.702,0-1.053c0-0.553,0.361-1.482-0.196-0.596c-1.008,0.578-2.015,1.156-3.022,1.733
				c3.805,0,7.609,0,11.414,0c-1.008-0.578-2.015-1.156-3.022-1.733c-0.604-0.96-0.196,0.562-0.196,1.014c0,0.945,0,1.89,0,2.835
				C205.416,133.608,205.416,135.238,205.416,136.868c0,4.514,7,4.514,7,0c0-3.957,1.703-14.005-4.218-14.005
				c-2.865,0-5.73,0-8.597,0c-0.793,0-1.587,0-2.381,0c-3.222,0-3.718,3.242-3.781,5.711c-0.061,2.36,0,4.729,0,7.09
				c0,3.109,0.155,6.916,4.218,6.916c2.865,0,5.73,0,8.597,0c0.793,0,1.587,0,2.381,0c3.222,0,3.718-3.242,3.781-5.711
				C212.532,132.352,205.532,132.363,205.416,136.868z"/>
		</g>
	</g>
	<g>
		<path style="fill:#FFFFFF;" d="M175.891,128.596c0-1.221,0.117-2.211,0.261-2.211h10.608c0.145,0,0.262,0.99,0.262,2.211v8.293
			c0,1.221-0.117,2.211-0.262,2.211h-10.608c-0.144,0-0.261-0.99-0.261-2.211V128.596z"/>
		<g>
			<path style="fill:#FFFFFF;" d="M179.391,128.596c0.16-0.982,0.087-1.131-0.217-0.445c-1.007,0.578-2.015,1.156-3.022,1.733
				c3.536,0,7.072,0,10.608,0c-1.008-0.578-2.015-1.156-3.022-1.733c-0.553-0.943-0.216,0.851-0.216,1.307c0,1.012,0,2.024,0,3.036
				c0,1.064,0,2.128,0,3.192c0,0.522-0.269,2.476,0.216,1.648c1.008-0.578,2.015-1.156,3.022-1.733c-3.536,0-7.072,0-10.608,0
				c1.007,0.578,2.015,1.156,3.022,1.733c0.596,1.02,0.217-0.58,0.217-1.014c0-0.945,0-1.89,0-2.835
				C179.391,131.856,179.391,130.226,179.391,128.596c0-4.514-7-4.514-7,0c0,3.763-1.672,14.005,4.023,14.005
				c2.628,0,5.257,0,7.886,0c0.819,0,1.64,0,2.46,0c3.229,0,3.703-3.243,3.762-5.711c0.057-2.36,0-4.729,0-7.09
				c0-2.951-0.059-6.915-4.024-6.915c-2.628,0-5.257,0-7.885,0c-0.82,0-1.64,0-2.46,0c-3.229,0-3.702,3.243-3.761,5.711
				C172.283,133.113,179.284,133.103,179.391,128.596z"/>
		</g>
	</g>
	<path style="fill:none;stroke:#FFFFFF;stroke-width:10;stroke-miterlimit:10;" d="M268.648,215.92c0,1.859-1.634,3.368-3.648,3.368
		h-13.379c-2.014,0-3.648-1.509-3.648-3.368v-93.397c0-1.861,1.635-3.369,3.648-3.369H265c2.015,0,3.648,1.508,3.648,3.369V215.92z"
		/>
	<path style="fill:#FFFFFF;stroke:#FFFFFF;stroke-width:10;stroke-miterlimit:10;" d="M274.121,244.019
		c0,2.015-1.28,3.648-2.859,3.648H245.36c-1.579,0-2.86-1.634-2.86-3.648v-21.081c0-2.015,1.281-3.648,2.86-3.648h25.901
		c1.579,0,2.859,1.634,2.859,3.648V244.019z"/>
	<g>
		<g>
			<path style="fill:#FFFFFF;" d="M276.555,131.451c3.648,0,7.297,0,10.945,0c6.448,0,6.448-10,0-10c-3.648,0-7.297,0-10.945,0
				C270.106,121.451,270.106,131.451,276.555,131.451L276.555,131.451z"/>
		</g>
	</g>
	<g>
		<g>
			<path style="fill:#FFFFFF;" d="M276.555,155.775c3.648,0,7.297,0,10.945,0c6.448,0,6.448-10,0-10c-3.648,0-7.297,0-10.945,0
				C270.106,145.775,270.106,155.775,276.555,155.775L276.555,155.775z"/>
		</g>
	</g>
	<g>
		<g>
			<path style="fill:#FFFFFF;" d="M276.555,180.708c3.648,0,7.297,0,10.945,0c6.448,0,6.448-10,0-10c-3.648,0-7.297,0-10.945,0
				C270.106,170.708,270.106,180.708,276.555,180.708L276.555,180.708z"/>
		</g>
	</g>
	<g>
		<g>
			<path style="fill:#FFFFFF;" d="M276.555,206.855c3.648,0,7.297,0,10.945,0c6.448,0,6.448-10,0-10c-3.648,0-7.297,0-10.945,0
				C270.106,196.855,270.106,206.855,276.555,206.855L276.555,206.855z"/>
		</g>
	</g>
	
		<rect x="247.973" y="185.894" style="fill:#FFFFFF;stroke:#FFFFFF;stroke-width:10;stroke-miterlimit:10;" width="20.676" height="42.922"/>
</g>
<g id="Ebene_1">
</g>
</svg>
