<?xml version="1.0" encoding="iso-8859-1"?>
<!-- Generator: Adobe Illustrator 16.0.0, SVG Export Plug-In . SVG Version: 6.00 Build 0)  -->
<!DOCTYPE svg PUBLIC "-//W3C//DTD SVG 1.1 Tiny//EN" "http://www.w3.org/Graphics/SVG/1.1/DTD/svg11-tiny.dtd">
<svg version="1.1" baseProfile="tiny" id="sani_x5F_pump"
	 xmlns="http://www.w3.org/2000/svg" xmlns:xlink="http://www.w3.org/1999/xlink" x="0px" y="0px" width="361px" height="361px"
	 viewBox="0 0 361 361" xml:space="preserve">
<g id="Pumpe">
	<circle fill="none" stroke="#FFFFFF" stroke-width="10" stroke-miterlimit="10" cx="215.438" cy="171.892" r="69.333"/>
	<path fill="#FFFFFF" d="M240.435,100.358c0,4.168-3.379,7.546-7.546,7.546h-35.216c-4.168,0-7.547-3.378-7.547-7.546v-16.35
		c0-4.167,3.379-7.546,7.547-7.546h35.216c4.167,0,7.546,3.379,7.546,7.546V100.358z"/>
	<path fill="#FFFFFF" d="M240.435,261.348c0,4.168-3.379,7.546-7.546,7.546h-35.216c-4.168,0-7.547-3.378-7.547-7.546v-16.351
		c0-4.167,3.379-7.546,7.547-7.546h35.216c4.167,0,7.546,3.379,7.546,7.546V261.348z"/>
	<path fill="#FFFFFF" d="M246.298,273.342c0,4.547-2.477,8.235-5.529,8.235h-51.297c-3.054,0-5.529-3.688-5.529-8.235v-2.288
		c0-4.548,2.476-8.235,5.529-8.235h51.297c3.053,0,5.529,3.687,5.529,8.235V273.342z"/>
	<path fill="none" stroke="#FFFFFF" stroke-width="10" stroke-miterlimit="10" d="M207.419,240.91H96.222
		c-4.219,0-7.64-3.42-7.64-7.64V111.038c0-4.22,3.42-7.64,7.64-7.64h111.198"/>
	<g>
		<path fill="#FFFFFF" d="M69.729,103.188c0,45.753,0,91.506,0,137.259c0,0.154,0,0.308,0,0.462c0,6.449,10,6.449,10,0
			c0-45.753,0-91.506,0-137.259c0-0.154,0-0.308,0-0.462C79.729,96.74,69.729,96.74,69.729,103.188L69.729,103.188z"/>
	</g>
</g>
<g id="Pfeil">
	<g>
		<path fill="#FFFFFF" d="M175.648,168.212c0.317-15.703,12.631-28.016,28.333-28.333c6.44-0.13,6.452-10.13,0-10
			c-21.189,0.428-37.905,17.144-38.333,38.333C165.518,174.664,175.519,174.652,175.648,168.212L175.648,168.212z"/>
	</g>
	<g>
		<path fill="#FFFFFF" d="M197.113,123.747c4.889,4.889,9.778,9.778,14.667,14.667c4.563,4.563,11.635-2.507,7.071-7.071
			c-4.889-4.889-9.778-9.778-14.667-14.667C199.621,112.112,192.549,119.183,197.113,123.747L197.113,123.747z"/>
	</g>
	<g>
		<path fill="#FFFFFF" d="M204.184,153.414c4.889-4.889,9.777-9.778,14.667-14.667c4.563-4.564-2.508-11.635-7.071-7.071
			c-4.889,4.889-9.777,9.778-14.667,14.667C192.549,150.907,199.621,157.978,204.184,153.414L204.184,153.414z"/>
	</g>
</g>
</svg>
