<?xml version="1.0" encoding="iso-8859-1"?>
<!-- Generator: Adobe Illustrator 16.0.0, SVG Export Plug-In . SVG Version: 6.00 Build 0)  -->
<!DOCTYPE svg PUBLIC "-//W3C//DTD SVG 1.1 Tiny//EN" "http://www.w3.org/Graphics/SVG/1.1/DTD/svg11-tiny.dtd">
<svg version="1.1" baseProfile="tiny" id="sani_x5F_irrigation"
	 xmlns="http://www.w3.org/2000/svg" xmlns:xlink="http://www.w3.org/1999/xlink" x="0px" y="0px" width="361px" height="361px"
	 viewBox="0 0 361 361" xml:space="preserve">
<g>
	<path fill="#FFFFFF" stroke="#FFFFFF" stroke-miterlimit="10" d="M287.302,169.493c2.646,3.343,2.081,8.199-1.262,10.845
		l-32.286,25.559c-3.343,2.646-8.2,2.081-10.845-1.261l-47.322-59.78c-2.647-3.344-2.082-8.2,1.261-10.846l32.286-25.558
		c3.343-2.646,8.199-2.082,10.846,1.262L287.302,169.493z"/>
	<g>
		<path fill="#FFFFFF" d="M160.275,192.109c27.088,1.939,54.176,3.878,81.265,5.817c6.438,0.461,6.394-9.542,0-10
			c-27.088-1.939-54.176-3.878-81.265-5.817C153.837,181.648,153.882,191.652,160.275,192.109L160.275,192.109z"/>
	</g>
	<g>
		<polygon fill="#FFFFFF" points="143.097,170.877 157.115,186.907 142.634,202.517 		"/>
		<g>
			<path fill="#FFFFFF" d="M139.562,174.413c4.673,5.343,9.345,10.686,14.018,16.029c0-2.357,0-4.714,0-7.071
				c-4.827,5.204-9.653,10.407-14.48,15.61c2.845,1.179,5.69,2.357,8.536,3.536c0.154-10.546,0.309-21.093,0.463-31.64
				c0.094-6.452-9.906-6.443-10,0c-0.154,10.546-0.309,21.093-0.463,31.64c-0.063,4.268,5.555,6.749,8.536,3.536
				c4.827-5.204,9.653-10.407,14.48-15.61c1.947-2.099,1.845-4.961,0-7.071c-4.673-5.343-9.345-10.686-14.018-16.029
				C142.38,162.479,135.336,169.581,139.562,174.413z"/>
		</g>
	</g>
	
		<ellipse transform="matrix(0.8558 -0.5172 0.5172 0.8558 -31.3608 153.3389)" fill="none" stroke="#FFFFFF" stroke-width="10" stroke-miterlimit="10" cx="259.406" cy="132.93" rx="17.713" ry="21.222"/>
	<polygon fill="#FFFFFF" stroke="#FFFFFF" stroke-miterlimit="10" points="204.883,189.388 219.144,164.077 234.235,189.251 	"/>
</g>
<g>
	<path fill="#FFFFFF" d="M129.904,179.589c-3.654,0.209-7.308,0.418-10.962,0.627c-4.487,0.257-4.512,7.258,0,7
		c3.654-0.209,7.308-0.418,10.962-0.627C134.391,186.332,134.416,179.331,129.904,179.589L129.904,179.589z"/>
</g>
<g>
	<path fill="#FFFFFF" d="M92.548,184.087c-3.924,1.819-7.847,3.639-11.771,5.458c-4.092,1.897-0.534,7.93,3.533,6.044
		c3.923-1.819,7.847-3.639,11.771-5.458C100.173,188.234,96.615,182.201,92.548,184.087L92.548,184.087z"/>
</g>
<g>
	<path fill="#FFFFFF" d="M75.338,197.94c-1.999,2.297-3.997,4.594-5.996,6.89c-1.251,1.438-1.418,3.532,0,4.95
		c1.279,1.278,3.697,1.44,4.95,0c1.999-2.297,3.997-4.594,5.996-6.89c1.251-1.438,1.418-3.532,0-4.95
		C79.009,196.662,76.591,196.5,75.338,197.94L75.338,197.94z"/>
</g>
<g>
	<path fill="#FFFFFF" d="M129.832,169.577c-6.256,0-12.511,0-18.767,0c-4.514,0-4.514,7,0,7c6.256,0,12.511,0,18.767,0
		C134.346,176.577,134.346,169.577,129.832,169.577L129.832,169.577z"/>
</g>
<g>
	<path fill="#FFFFFF" d="M96.548,172.273c-4.167,1.833-8.333,3.667-12.5,5.5c-4.124,1.814-0.558,7.844,3.533,6.044
		c4.167-1.833,8.333-3.667,12.5-5.5C104.205,176.502,100.639,170.473,96.548,172.273L96.548,172.273z"/>
</g>
<g>
	<path fill="#FFFFFF" d="M75.34,182.257c-2.25,1.921-4.5,3.843-6.75,5.764c-1.452,1.24-1.269,3.681,0,4.95
		c1.428,1.427,3.5,1.237,4.95,0c2.25-1.921,4.5-3.843,6.75-5.764c1.452-1.24,1.269-3.681,0-4.95
		C78.862,180.83,76.79,181.02,75.34,182.257L75.34,182.257z"/>
</g>
<g>
	<path fill="#FFFFFF" d="M129.901,190.322c-5.089,1.41-10.178,2.819-15.267,4.229c-4.344,1.204-2.497,7.957,1.861,6.75
		c5.089-1.41,10.178-2.819,15.267-4.229C136.107,195.869,134.26,189.115,129.901,190.322L129.901,190.322z"/>
</g>
<g>
	<path fill="#FFFFFF" d="M104.195,201.641c-2.639,1.684-5.278,3.367-7.918,5.051c-3.792,2.419-0.285,8.48,3.533,6.044
		c2.639-1.684,5.278-3.367,7.918-5.051C111.521,205.266,108.013,199.205,104.195,201.641L104.195,201.641z"/>
</g>
<g>
	<path fill="#FFFFFF" d="M85.34,215.07c-1.833,2.167-3.667,4.333-5.5,6.5c-1.231,1.455-1.432,3.518,0,4.95
		c1.265,1.264,3.716,1.458,4.95,0c1.833-2.167,3.667-4.333,5.5-6.5c1.231-1.455,1.432-3.518,0-4.95
		C89.025,213.806,86.574,213.612,85.34,215.07L85.34,215.07z"/>
</g>
<g>
	<path fill="#FFFFFF" d="M70.043,230.028c-0.583,1.25-1.167,2.5-1.75,3.75c-0.807,1.729-0.502,3.759,1.255,4.789
		c1.53,0.896,3.982,0.473,4.789-1.255c0.583-1.25,1.167-2.5,1.75-3.75c0.807-1.729,0.502-3.759-1.255-4.789
		C73.301,227.876,70.85,228.3,70.043,230.028L70.043,230.028z"/>
</g>
<g>
	<path fill="#FFFFFF" d="M130.106,201.892c-6.122,2.587-12.244,5.174-18.366,7.762c-4.146,1.752-0.573,7.78,3.533,6.044
		c6.122-2.587,12.244-5.174,18.366-7.762C137.785,206.184,134.213,200.156,130.106,201.892L130.106,201.892z"/>
</g>
<g>
	<path fill="#FFFFFF" d="M103.111,214.07c-2.528,2.333-5.056,4.667-7.583,7c-3.323,3.068,1.639,8.006,4.95,4.95
		c2.528-2.333,5.056-4.667,7.583-7C111.384,215.952,106.422,211.014,103.111,214.07L103.111,214.07z"/>
</g>
<g>
	<path fill="#FFFFFF" d="M88.043,229.028c-1.667,2.333-3.333,4.667-5,7c-1.111,1.556-0.277,3.891,1.255,4.789
		c1.76,1.031,3.682,0.293,4.789-1.255c1.667-2.333,3.333-4.667,5-7c1.111-1.556,0.277-3.891-1.255-4.789
		C91.072,226.742,89.149,227.479,88.043,229.028L88.043,229.028z"/>
</g>
<g>
	<path fill="#FFFFFF" d="M76.504,243.946c-0.558,1.305-1.115,2.61-1.672,3.915c-0.388,0.909-0.627,1.701-0.353,2.697
		c0.241,0.875,0.826,1.633,1.608,2.091c1.489,0.873,4.039,0.5,4.789-1.255c0.558-1.305,1.115-2.61,1.672-3.915
		c0.388-0.909,0.627-1.701,0.353-2.697c-0.241-0.875-0.826-1.633-1.608-2.091C79.803,241.818,77.253,242.19,76.504,243.946
		L76.504,243.946z"/>
</g>
<g>
	<path fill="#FFFFFF" d="M103.684,189.946c-2.907,1.161-5.815,2.322-8.723,3.483c-1.77,0.707-2.993,2.311-2.444,4.306
		c0.463,1.685,2.531,3.153,4.306,2.444c2.907-1.161,5.815-2.322,8.723-3.483c1.77-0.707,2.993-2.311,2.444-4.306
		C107.526,190.706,105.458,189.238,103.684,189.946L103.684,189.946z"/>
</g>
<g>
	<path fill="#FFFFFF" d="M85.684,203.467c-2.206,1.786-4.412,3.572-6.618,5.358c-1.485,1.203-1.242,3.708,0,4.95
		c1.454,1.454,3.469,1.199,4.95,0c2.206-1.786,4.412-3.572,6.618-5.358c1.485-1.203,1.242-3.708,0-4.95
		C89.18,202.014,87.165,202.268,85.684,203.467L85.684,203.467z"/>
</g>
<g>
	<path fill="#FFFFFF" d="M70.914,217.167c-0.807,1.119-1.613,2.238-2.42,3.357c-1.118,1.551-0.272,3.894,1.255,4.789
		c1.765,1.034,3.675,0.289,4.789-1.255c0.807-1.119,1.613-2.238,2.42-3.357c1.118-1.551,0.272-3.894-1.255-4.789
		C73.937,214.877,72.027,215.622,70.914,217.167L70.914,217.167z"/>
</g>
<g>
	<path fill="#FFFFFF" d="M109.563,178.842c-2.604,0.551-5.209,1.102-7.814,1.653c-1.867,0.395-2.927,2.551-2.444,4.306
		c0.528,1.92,2.44,2.839,4.306,2.444c2.604-0.551,5.209-1.102,7.814-1.653c1.867-0.395,2.927-2.551,2.444-4.306
		C113.34,179.366,111.428,178.448,109.563,178.842L109.563,178.842z"/>
</g>
</svg>
