<?xml version="1.0" encoding="iso-8859-1"?>
<!-- Generator: Adobe Illustrator 16.0.0, SVG Export Plug-In . SVG Version: 6.00 Build 0)  -->
<!DOCTYPE svg PUBLIC "-//W3C//DTD SVG 1.1//EN" "http://www.w3.org/Graphics/SVG/1.1/DTD/svg11.dtd">
<svg version="1.1" xmlns="http://www.w3.org/2000/svg" xmlns:xlink="http://www.w3.org/1999/xlink" x="0px" y="0px" width="361px"
	 height="361px" viewBox="0 0 361 361" style="enable-background:new 0 0 361 361;" xml:space="preserve">
<g id="sani_x5F_cooling_x5F_automatic">
	<g>
		<g>
			<path style="fill:#FFFFFF;" d="M198.484,245.925c0.188-0.586,1.316-0.445,0.176-0.445c-0.85,0-1.699,0-2.549,0
				c-2.498,0-4.996,0-7.494,0c-1.551,0-3.101,0-4.651,0c-0.838,0,0.667,2.139,0.667,0.943c0-0.583,0-1.167,0-1.751
				c0-7.809,0-15.618,0-23.428c0,1.479-1.653,1.327-0.302,1.327c0.85,0,1.699,0,2.549,0c2.498,0,4.996,0,7.494,0
				c1.627,0,3.254,0,4.881,0c-1.013,0-0.896-2.243-0.896-0.622c0,0.68,0,1.36,0,2.041c0,7.622,0,15.243,0,22.865
				c0,4.514,7,4.514,7,0c0-4.441,0-8.883,0-13.324c0-3.889,1.089-9.495-0.125-13.268c-1.939-6.028-8.692-4.692-13.738-4.692
				c-5.047,0-11.799-1.336-13.738,4.692c-1.214,3.772-0.125,9.379-0.125,13.268c0,4.441,0,8.883,0,13.324
				c0,6.741,8.491,5.624,12.886,5.624c5.196,0,12.706,1.554,14.716-4.693C206.621,243.477,199.861,241.646,198.484,245.925z"/>
		</g>
	</g>
	<g>
		<g>
			<path style="fill:#FFFFFF;" d="M227.125,245.158c-0.064,0.367,1.441,0.321-0.311,0.321c-1.267,0-2.533,0-3.8,0
				c-2.756,0-5.512,0-8.268,0c-0.713,0-1.427,0-2.141,0c-0.28,0,0.667,1.114,0.667,0.043c0-1.819,0-3.639,0-5.458
				c0-9.623,0-19.246,0-28.869c0,0.734-1.64,0.572,0.186,0.572c1.267,0,2.533,0,3.8,0c2.986,0,5.973,0,8.959,0
				c0.56,0,1.119,0,1.679,0c-1.095,0-0.896-1.074-0.896,0.265c0,1.979,0,3.957,0,5.937c0,9.373,0,18.746,0,28.12
				c0,4.514,7,4.514,7,0c0-11.353,0-22.704,0-34.057c0-7.04-5.566-7.265-10.985-7.265c-5.5,0-15.295-2.032-16.616,5.46
				c-0.839,4.756-0.125,10.152-0.125,14.956c0,6.555,0,13.109,0,19.664c0,6.644,4.577,7.632,10.089,7.632
				c5.598,0,16.159,2.213,17.513-5.46C234.653,242.606,227.908,240.719,227.125,245.158z"/>
		</g>
	</g>
	<g>
		<g>
			<path style="fill:#FFFFFF;" d="M255.799,245.131c0.685,0.242,0.799,0.344,0.345,0.307c-0.51,0-1.021,0-1.53,0
				c-1.768,0-3.535,0-5.304,0c-2.691,0-5.383,0-8.075,0c0.854,0,0.713,1.093,0.713-0.054c0-0.802,0-1.604,0-2.406
				c0-2.893,0-5.785,0-8.678c0-11.57,0-23.142,0-34.712c0,0.875-0.98,0.596,1.061,0.596c1.768,0,3.535,0,5.304,0
				c1.858,0,3.717,0,5.575,0c0.623,0,1.247,0,1.87,0c1.247,0-0.083,0.122-0.083-0.596c0,4.207,0,8.415,0,12.622
				c0,11.284,0,22.567,0,33.852c0,4.514,7,4.514,7,0c0-12.428,0-24.855,0-37.283c0-3.797,1.207-10.702-1.817-13.727
				c-2.152-2.152-5.013-1.868-7.779-1.868c-3.737,0-7.476,0-11.213,0c-6.244,0-6.917,5.165-6.917,10.007c0,7.204,0,14.407,0,21.611
				c0,6.525,0,13.051,0,19.576c0,6.331,3.902,8.06,9.597,8.06c5.661,0,16.541,2.264,18.005-5.445
				C263.387,242.581,256.641,240.699,255.799,245.131z"/>
		</g>
	</g>
	<g>
		<g>
			<path style="fill:#FFFFFF;" d="M284.401,245.183c-0.044,0.231,1.256,0.214,0.066,0.214c-0.583,0-1.166,0-1.749,0
				c-1.769,0-3.537,0-5.306,0s-3.537,0-5.306,0c-0.583,0-1.166,0-1.749,0c-1.229,0,0.191,0.091,0.191,0.632
				c0-4.189,0-8.379,0-12.569c0-14.634,0-29.269,0-43.902c0-1.38,0-2.759,0-4.138c0,0.335-1.441,0.528,0.289,0.528
				c1.87,0,3.741,0,5.611,0c2.868,0,5.735,0,8.603,0c-0.928,0-0.776-1.265-0.776,0.024c0,0.854,0,1.707,0,2.561
				c0,14.415,0,28.831,0,43.246c0,4.778,0,9.557,0,14.335c0,4.514,7,4.514,7,0c0-11.468,0-22.936,0-34.403
				c0-7.004,0-14.009,0-21.013c0-3.735,0.831-10.341-4.186-11.406c-5.501-1.168-11.713-0.344-17.317-0.344
				c-5.965,0-6.224,5.725-6.224,10.082c0,14.532,0,29.065,0,43.598c0,5.674-1.961,15.306,3.35,19.073
				c2.923,2.073,10.102,0.696,13.348,0.696c4.557,0,9.804,0.381,10.904-5.353C291.998,242.634,285.252,240.753,284.401,245.183z"/>
		</g>
	</g>
	<g>
		<path style="fill:#FFFFFF;" d="M199.264,290.906l-1.644-7.081h-9.347l-1.586,7.081h-7.251c1.662-6.041,3.342-11.545,5.042-16.514
			c1.699-4.967,3.342-9.68,4.928-14.136h7.591c1.661,4.489,3.313,9.251,4.957,14.284c1.643,5.035,3.237,10.49,4.786,16.365H199.264z
			 M193.031,266.198c-0.377,1.155-0.727,2.253-1.047,3.293c-0.322,1.04-0.623,2.063-0.906,3.069
			c-0.284,1.008-0.549,2.022-0.794,3.045c-0.246,1.023-0.481,2.08-0.708,3.17h6.854c-0.227-1.09-0.453-2.146-0.68-3.17
			c-0.227-1.022-0.481-2.037-0.765-3.045c-0.283-1.006-0.586-2.029-0.906-3.069C193.758,268.451,193.408,267.354,193.031,266.198z"
			/>
		<path style="fill:#FFFFFF;" d="M221.299,291.549c-2.266,0-4.163-0.271-5.693-0.816c-1.529-0.545-2.746-1.328-3.653-2.352
			c-0.906-1.023-1.549-2.261-1.926-3.714c-0.378-1.452-0.566-3.069-0.566-4.853v-19.558h7.024v19.161
			c0,1.288,0.075,2.369,0.227,3.244c0.15,0.875,0.405,1.576,0.765,2.104c0.358,0.529,0.858,0.908,1.501,1.139
			c0.643,0.232,1.453,0.348,2.436,0.348s1.794-0.115,2.437-0.348c0.642-0.23,1.151-0.618,1.529-1.163
			c0.378-0.544,0.642-1.254,0.794-2.129c0.15-0.874,0.227-1.956,0.227-3.243v-19.112h6.967v19.558c0,1.783-0.189,3.4-0.566,4.853
			c-0.378,1.453-1.039,2.69-1.982,3.714c-0.944,1.023-2.191,1.807-3.738,2.352C225.528,291.277,223.603,291.549,221.299,291.549z"/>
		<path style="fill:#FFFFFF;" d="M262.482,260.257v5.05h-9.233v25.6h-7.024v-25.6h-9.234v-5.05H262.482z"/>
		<path style="fill:#FFFFFF;" d="M265.428,275.557c0-5.281,1.114-9.268,3.343-11.957c2.228-2.691,5.325-4.036,9.29-4.036
			c4.116,0,7.252,1.345,9.404,4.036c2.152,2.689,3.229,6.676,3.229,11.957s-1.096,9.268-3.285,11.957
			c-2.191,2.691-5.288,4.035-9.291,4.035c-4.116,0-7.26-1.344-9.432-4.035C266.514,284.824,265.428,280.838,265.428,275.557z
			 M272.51,275.557c0,1.485,0.065,2.881,0.198,4.184c0.132,1.305,0.396,2.436,0.793,3.393s0.953,1.716,1.671,2.277
			c0.717,0.561,1.68,0.842,2.889,0.842c1.171,0,2.125-0.281,2.861-0.842c0.736-0.562,1.303-1.328,1.699-2.303
			c0.396-0.973,0.66-2.104,0.793-3.392c0.133-1.288,0.199-2.674,0.199-4.159s-0.066-2.88-0.199-4.184
			c-0.133-1.305-0.396-2.435-0.793-3.393c-0.396-0.957-0.954-1.715-1.671-2.277c-0.718-0.561-1.681-0.842-2.89-0.842
			s-2.172,0.281-2.889,0.842c-0.718,0.563-1.274,1.329-1.671,2.303s-0.661,2.104-0.793,3.392
			C272.575,272.685,272.51,274.071,272.51,275.557z"/>
	</g>
	<g>
		<g>
			<g>
				<g>
					<path style="fill:#FFFFFF;" d="M130.509,75.071c0,15.074,0,30.148,0,45.222c0,6.449,10,6.449,10,0c0-15.074,0-30.148,0-45.222
						C140.509,68.622,130.509,68.622,130.509,75.071L130.509,75.071z"/>
				</g>
			</g>
			<g>
				<g>
					<path style="fill:#FFFFFF;" d="M119.826,83.94c4.395,2.537,8.789,5.075,13.184,7.612c5.595,3.23,10.628-5.413,5.047-8.635
						c-4.395-2.537-8.789-5.075-13.184-7.612C119.278,72.075,114.245,80.718,119.826,83.94L119.826,83.94z"/>
				</g>
			</g>
			<g>
				<g>
					<path style="fill:#FFFFFF;" d="M145.995,75.306c-4.395,2.537-8.789,5.075-13.184,7.612c-5.582,3.223-0.548,11.865,5.047,8.635
						c4.395-2.537,8.789-5.075,13.184-7.612C156.623,80.718,151.589,72.075,145.995,75.306L145.995,75.306z"/>
				</g>
			</g>
		</g>
		<g>
			<g>
				<g>
					<path style="fill:#FFFFFF;" d="M93.666,101.478c13.054,7.537,26.108,15.074,39.163,22.611c5.595,3.23,10.628-5.412,5.047-8.635
						c-13.054-7.537-26.108-15.074-39.163-22.611C93.118,89.613,88.084,98.255,93.666,101.478L93.666,101.478z"/>
				</g>
			</g>
			<g>
				<g>
					<path style="fill:#FFFFFF;" d="M96.076,115.151c4.395-2.538,8.789-5.075,13.183-7.612c5.581-3.223,0.548-11.865-5.047-8.635
						c-4.395,2.538-8.789,5.075-13.183,7.612C85.448,109.739,90.481,118.381,96.076,115.151L96.076,115.151z"/>
				</g>
			</g>
			<g>
				<g>
					<path style="fill:#FFFFFF;" d="M101.636,88.17c0,5.075,0,10.149,0,15.224c0,6.449,10,6.449,10,0c0-5.075,0-10.149,0-15.224
						C111.636,81.722,101.636,81.722,101.636,88.17L101.636,88.17z"/>
				</g>
			</g>
		</g>
		<g>
			<g>
				<g>
					<path style="fill:#FFFFFF;" d="M98.812,146.669c13.055-7.537,26.109-15.074,39.164-22.611
						c5.582-3.222,0.548-11.865-5.047-8.635c-13.055,7.537-26.109,15.074-39.164,22.611C88.184,141.257,93.217,149.9,98.812,146.669
						L98.812,146.669z"/>
				</g>
			</g>
			<g>
				<g>
					<path style="fill:#FFFFFF;" d="M111.811,151.471c0-5.074,0-10.148,0-15.223c0-6.449-10-6.449-10,0c0,5.074,0,10.148,0,15.223
						C101.811,157.92,111.811,157.92,111.811,151.471L111.811,151.471z"/>
				</g>
			</g>
			<g>
				<g>
					<path style="fill:#FFFFFF;" d="M91.203,133.126c4.395,2.538,8.789,5.075,13.184,7.612c5.595,3.23,10.628-5.412,5.047-8.635
						c-4.395-2.538-8.789-5.075-13.184-7.612C90.655,121.261,85.621,129.903,91.203,133.126L91.203,133.126z"/>
				</g>
			</g>
		</g>
		<g>
			<g>
				<g>
					<path style="fill:#FFFFFF;" d="M140.459,165.126c0-15.074,0-30.148,0-45.222c0-6.449-10-6.449-10,0c0,15.074,0,30.148,0,45.222
						C130.459,171.575,140.459,171.575,140.459,165.126L140.459,165.126z"/>
				</g>
			</g>
			<g>
				<g>
					<path style="fill:#FFFFFF;" d="M151.142,156.256c-4.395-2.537-8.789-5.074-13.184-7.611c-5.595-3.23-10.628,5.413-5.047,8.635
						c4.395,2.537,8.789,5.074,13.184,7.611C151.69,168.121,156.723,159.478,151.142,156.256L151.142,156.256z"/>
				</g>
			</g>
			<g>
				<g>
					<path style="fill:#FFFFFF;" d="M124.973,164.891c4.395-2.537,8.789-5.074,13.183-7.611c5.582-3.222,0.548-11.865-5.047-8.635
						c-4.395,2.537-8.789,5.074-13.183,7.611C114.345,159.478,119.378,168.121,124.973,164.891L124.973,164.891z"/>
				</g>
			</g>
		</g>
		<g>
			<g>
				<g>
					<path style="fill:#FFFFFF;" d="M177.302,138.374c-13.055-7.537-26.109-15.074-39.164-22.611
						c-5.595-3.23-10.628,5.413-5.047,8.635c13.055,7.537,26.109,15.074,39.164,22.611
						C177.85,150.239,182.884,141.596,177.302,138.374L177.302,138.374z"/>
				</g>
			</g>
			<g>
				<g>
					<path style="fill:#FFFFFF;" d="M174.893,124.702c-4.395,2.537-8.79,5.075-13.184,7.612c-5.582,3.222-0.548,11.865,5.047,8.635
						c4.395-2.537,8.79-5.075,13.184-7.612C185.521,130.114,180.487,121.471,174.893,124.702L174.893,124.702z"/>
				</g>
			</g>
			<g>
				<g>
					<path style="fill:#FFFFFF;" d="M169.332,151.682c0-5.075,0-10.149,0-15.224c0-6.449-10-6.449-10,0c0,5.075,0,10.149,0,15.224
						C159.332,158.131,169.332,158.131,169.332,151.682L169.332,151.682z"/>
				</g>
			</g>
		</g>
		<g>
			<g>
				<g>
					<path style="fill:#FFFFFF;" d="M172.156,93.183c-13.055,7.537-26.109,15.075-39.164,22.612
						c-5.582,3.223-0.548,11.865,5.047,8.635c13.055-7.537,26.109-15.075,39.164-22.612
						C182.784,98.595,177.751,89.953,172.156,93.183L172.156,93.183z"/>
				</g>
			</g>
			<g>
				<g>
					<path style="fill:#FFFFFF;" d="M159.157,88.38c0,5.075,0,10.149,0,15.224c0,6.449,10,6.449,10,0c0-5.075,0-10.149,0-15.224
						C169.157,81.931,159.157,81.931,159.157,88.38L159.157,88.38z"/>
				</g>
			</g>
			<g>
				<g>
					<path style="fill:#FFFFFF;" d="M179.765,106.726c-4.395-2.537-8.789-5.075-13.184-7.612c-5.595-3.23-10.628,5.412-5.047,8.635
						c4.395,2.537,8.789,5.075,13.184,7.612C180.313,118.591,185.346,109.948,179.765,106.726L179.765,106.726z"/>
				</g>
			</g>
		</g>
	</g>
	<g>
		<g>
			<g>
				<path style="fill:#FFFFFF;" d="M71.478,186.5c5.103-1.521,10.277-2.848,15.505-3.858c7.1-1.372,13.251,0.714,19.897,3.136
					c9.258,3.375,18.697,8.882,28.688,9.268c5.96,0.23,12.572-2.904,18.003-5.008c3.237-1.254,6.416-2.644,9.662-3.878
					c6.432-2.446,12.845-4.821,19.784-3.72c5.621,0.893,11.192,2.437,16.643,4.061c1.858,0.554,2.646-2.342,0.797-2.893
					c-5.103-1.521-10.276-2.849-15.505-3.859c-6.542-1.264-11.919-0.128-18.195,1.966c-10.039,3.35-20.494,9.917-31.188,10.33
					c-6.14,0.237-13.21-3.3-18.796-5.531c-3.748-1.497-7.458-3.058-11.265-4.41c-6.148-2.185-11.703-3.586-18.185-2.557
					c-5.621,0.893-11.192,2.437-16.642,4.061C68.831,184.158,69.619,187.054,71.478,186.5L71.478,186.5z"/>
			</g>
		</g>
		<g>
			<g>
				<path style="fill:#FFFFFF;" d="M77.818,193.686c5.242-1.89,11.354-3.85,16.952-3.007c5.688,0.856,11.29,3.203,16.602,5.324
					c7.693,3.073,15.8,7.21,24.196,7.534c8.107,0.313,16.809-4.544,24.197-7.534c5.369-2.173,10.897-4.242,16.602-5.324
					c5.468-1.037,11.827,1.159,16.953,3.007c1.824,0.658,2.603-2.242,0.797-2.893c-4.979-1.795-10.248-3.147-15.554-3.32
					c-5.685-0.185-11.898,2.679-17.096,4.655c-8.287,3.153-16.927,8.063-25.898,8.409c-5.631,0.218-12.063-2.908-17.206-4.9
					c-2.914-1.128-5.777-2.38-8.691-3.509c-5.231-2.025-10.691-4.054-16.306-4.625c-5.32-0.541-11.404,1.509-16.345,3.29
					C75.215,191.443,75.994,194.344,77.818,193.686L77.818,193.686z"/>
			</g>
		</g>
		<g>
			<g>
				<path style="fill:#FFFFFF;" d="M77.916,176.756c5.242-1.89,11.354-3.85,16.953-3.007c5.688,0.856,11.289,3.203,16.601,5.324
					c7.694,3.073,15.801,7.21,24.196,7.535c8.108,0.313,16.809-4.544,24.197-7.535c5.369-2.173,10.897-4.243,16.602-5.324
					c5.468-1.037,11.826,1.159,16.952,3.007c1.824,0.658,2.603-2.242,0.797-2.893c-4.979-1.795-10.248-3.148-15.553-3.32
					c-5.685-0.185-11.899,2.679-17.096,4.656c-8.287,3.152-16.926,8.063-25.897,8.409c-5.632,0.218-12.064-2.909-17.207-4.9
					c-2.914-1.128-5.776-2.38-8.69-3.509c-5.231-2.026-10.691-4.055-16.305-4.625c-5.32-0.541-11.405,1.508-16.346,3.29
					C75.313,174.515,76.091,177.414,77.916,176.756L77.916,176.756z"/>
			</g>
		</g>
	</g>
</g>
<g id="Ebene_1">
</g>
</svg>
