<?xml version="1.0" encoding="iso-8859-1"?>
<!-- Generator: Adobe Illustrator 16.0.0, SVG Export Plug-In . SVG Version: 6.00 Build 0)  -->
<!DOCTYPE svg PUBLIC "-//W3C//DTD SVG 1.1//EN" "http://www.w3.org/Graphics/SVG/1.1/DTD/svg11.dtd">
<svg version="1.1" xmlns="http://www.w3.org/2000/svg" xmlns:xlink="http://www.w3.org/1999/xlink" x="0px" y="0px" width="361px"
	 height="361px" viewBox="0 0 361 361" style="enable-background:new 0 0 361 361;" xml:space="preserve">
<g id="sani_x5F_cooling">
	<g>
		<g>
			<g>
				<path style="fill:#FFFFFF;" d="M175.875,75.069c0,25.243,0,50.487,0,75.73c0,6.449,10,6.449,10,0c0-25.243,0-50.487,0-75.73
					C185.875,68.621,175.875,68.621,175.875,75.069L175.875,75.069z"/>
			</g>
		</g>
		<g>
			<g>
				<path style="fill:#FFFFFF;" d="M156.315,87.01c7.359,4.249,14.719,8.498,22.078,12.747c5.595,3.23,10.628-5.412,5.047-8.635
					c-7.36-4.249-14.719-8.498-22.079-12.747C155.767,75.145,150.733,83.787,156.315,87.01L156.315,87.01z"/>
			</g>
		</g>
		<g>
			<g>
				<path style="fill:#FFFFFF;" d="M200.138,78.375c-7.359,4.249-14.719,8.498-22.078,12.747c-5.582,3.223-0.548,11.865,5.047,8.635
					c7.359-4.249,14.719-8.498,22.078-12.747C210.766,83.787,205.732,75.145,200.138,78.375L200.138,78.375z"/>
			</g>
		</g>
	</g>
	<g>
		<g>
			<g>
				<path style="fill:#FFFFFF;" d="M112.505,116.379c21.861,12.622,43.723,25.244,65.584,37.866
					c5.595,3.23,10.628-5.412,5.047-8.635c-21.861-12.622-43.723-25.244-65.584-37.866
					C111.958,104.514,106.924,113.156,112.505,116.379L112.505,116.379z"/>
			</g>
		</g>
		<g>
			<g>
				<path style="fill:#FFFFFF;" d="M113.136,139.275c7.359-4.249,14.719-8.498,22.078-12.747c5.582-3.222,0.548-11.865-5.047-8.635
					c-7.359,4.249-14.719,8.498-22.078,12.747C102.507,133.863,107.541,142.506,113.136,139.275L113.136,139.275z"/>
			</g>
		</g>
		<g>
			<g>
				<path style="fill:#FFFFFF;" d="M127.525,97.006c0,8.498,0,16.996,0,25.494c0,6.449,10,6.449,10,0c0-8.498,0-16.996,0-25.494
					C137.525,90.558,127.525,90.558,127.525,97.006L127.525,97.006z"/>
			</g>
		</g>
	</g>
	<g>
		<g>
			<g>
				<path style="fill:#FFFFFF;" d="M117.719,192.058c21.862-12.622,43.724-25.244,65.585-37.866
					c5.581-3.222,0.548-11.865-5.047-8.635c-21.862,12.622-43.724,25.244-65.585,37.866
					C107.09,186.646,112.124,195.288,117.719,192.058L117.719,192.058z"/>
			</g>
		</g>
		<g>
			<g>
				<path style="fill:#FFFFFF;" d="M137.816,203.012c0-8.498,0-16.995,0-25.493c0-6.449-10-6.449-10,0c0,8.498,0,16.995,0,25.493
					C127.816,209.46,137.816,209.46,137.816,203.012L137.816,203.012z"/>
			</g>
		</g>
		<g>
			<g>
				<path style="fill:#FFFFFF;" d="M108.381,169.378c7.359,4.249,14.719,8.498,22.078,12.747c5.595,3.23,10.628-5.413,5.047-8.635
					c-7.359-4.249-14.719-8.498-22.078-12.747C107.833,157.513,102.799,166.156,108.381,169.378L108.381,169.378z"/>
			</g>
		</g>
	</g>
	<g>
		<g>
			<g>
				<path style="fill:#FFFFFF;" d="M185.791,225.879c0-25.244,0-50.488,0-75.731c0-6.449-10-6.449-10,0c0,25.244,0,50.487,0,75.731
					C175.791,232.327,185.791,232.327,185.791,225.879L185.791,225.879z"/>
			</g>
		</g>
		<g>
			<g>
				<path style="fill:#FFFFFF;" d="M205.352,213.937c-7.359-4.249-14.719-8.497-22.078-12.746c-5.595-3.23-10.628,5.412-5.047,8.635
					c7.359,4.249,14.719,8.497,22.078,12.746C205.899,225.802,210.934,217.159,205.352,213.937L205.352,213.937z"/>
			</g>
		</g>
		<g>
			<g>
				<path style="fill:#FFFFFF;" d="M161.529,222.571c7.36-4.249,14.719-8.497,22.079-12.746c5.582-3.223,0.548-11.865-5.047-8.635
					c-7.36,4.249-14.719,8.497-22.079,12.746C150.9,217.159,155.934,225.802,161.529,222.571L161.529,222.571z"/>
			</g>
		</g>
	</g>
	<g>
		<g>
			<g>
				<path style="fill:#FFFFFF;" d="M249.161,183.991c-21.861-12.622-43.724-25.244-65.585-37.865
					c-5.595-3.23-10.628,5.413-5.047,8.635c21.861,12.622,43.723,25.244,65.585,37.865
					C249.709,195.856,254.742,187.214,249.161,183.991L249.161,183.991z"/>
			</g>
		</g>
		<g>
			<g>
				<path style="fill:#FFFFFF;" d="M248.53,161.095c-7.359,4.249-14.718,8.498-22.077,12.747c-5.581,3.223-0.548,11.865,5.047,8.635
					c7.359-4.249,14.719-8.498,22.077-12.747C259.158,166.507,254.125,157.865,248.53,161.095L248.53,161.095z"/>
			</g>
		</g>
		<g>
			<g>
				<path style="fill:#FFFFFF;" d="M234.143,203.364c0-8.498,0-16.996,0-25.494c0-6.449-10-6.449-10,0c0,8.498,0,16.996,0,25.494
					C224.143,209.813,234.143,209.813,234.143,203.364L234.143,203.364z"/>
			</g>
		</g>
	</g>
	<g>
		<g>
			<g>
				<path style="fill:#FFFFFF;" d="M243.947,108.313c-21.861,12.622-43.723,25.244-65.584,37.866
					c-5.582,3.223-0.548,11.865,5.047,8.635c21.861-12.622,43.723-25.244,65.584-37.866
					C254.575,113.725,249.542,105.083,243.947,108.313L243.947,108.313z"/>
			</g>
		</g>
		<g>
			<g>
				<path style="fill:#FFFFFF;" d="M223.851,97.357c0,8.498,0,16.996,0,25.494c0,6.449,10,6.449,10,0c0-8.498,0-16.996,0-25.494
					C233.851,90.909,223.851,90.909,223.851,97.357L223.851,97.357z"/>
			</g>
		</g>
		<g>
			<g>
				<path style="fill:#FFFFFF;" d="M253.285,130.992c-7.359-4.249-14.719-8.499-22.078-12.748c-5.595-3.23-10.628,5.412-5.047,8.635
					c7.359,4.249,14.719,8.499,22.078,12.748C253.833,142.857,258.866,134.215,253.285,130.992L253.285,130.992z"/>
			</g>
		</g>
	</g>
	<g>
		<g>
			<path style="fill:#FFFFFF;" d="M73.91,262.623c14.309-4.273,29.88-9.737,44.725-5.798c13.733,3.644,24.522,9.047,37.334,13.771
				c8.028,2.961,17.078,6.563,25.777,6.355c8.901-0.211,18.075-4.049,26.295-7.12c12.568-4.695,23.734-10.115,37.465-13.573
				c8.333-2.1,16.198-0.325,24.425,1.565c6.082,1.397,12.129,3.013,18.109,4.799c4.337,1.295,6.176-5.462,1.861-6.75
				c-13.771-4.113-29.717-9.766-44.154-6.846c-13.313,2.692-26.022,8.832-37.63,13.318c-8.298,3.207-17.406,7.019-26.371,7.606
				c-8.511,0.559-18.18-3.957-25.978-6.87c-11.988-4.479-24.062-10.198-37.463-13.573c-15.134-3.813-31.75,2.032-46.257,6.364
				C67.734,257.161,69.573,263.918,73.91,262.623L73.91,262.623z"/>
		</g>
	</g>
	<g>
		<g>
			<path style="fill:#FFFFFF;" d="M84.527,274.656c8.096-2.937,17.363-5.841,26.041-5.271c8.938,0.586,18.205,4.713,26.467,7.906
				c4.698,1.815,6.854,2.816,11.538,4.694c8.487,3.401,17.205,6.659,26.187,8.475c8.451,1.709,16.538-0.71,24.56-3.319
				c6.566-2.137,13.023-4.648,19.378-7.349c4.279-1.817,12.164-4.806,17.791-6.679c4.291-1.429,8.654-2.688,13.108-3.498
				c5.435-0.986,11.162,0.371,16.437,1.629c3.846,0.918,7.67,2.063,11.389,3.412c4.254,1.543,6.07-5.224,1.861-6.75
				c-8.368-3.034-17.38-5.407-26.312-5.594c-8.72-0.182-18.024,3.799-26.051,6.759c-12.716,4.689-23.662,10.036-37.395,13.68
				c-8.951,2.375-16.381,0.455-25.037-2.36c-5.634-1.833-13.519-4.856-17.791-6.679c-14.845-6.336-30.659-13.172-47.027-10.42
				c-5.764,0.97-11.512,2.622-17.007,4.614C78.457,269.433,80.273,276.199,84.527,274.656L84.527,274.656z"/>
		</g>
	</g>
	<g>
		<g>
			<path style="fill:#FFFFFF;" d="M84.691,246.307c8.096-2.937,17.363-5.842,26.041-5.272c8.938,0.586,18.204,4.713,26.466,7.906
				c4.698,1.815,6.854,2.816,11.538,4.693c8.488,3.402,17.206,6.659,26.188,8.476c8.451,1.708,16.538-0.711,24.56-3.32
				c6.566-2.136,13.023-4.648,19.378-7.348c4.279-1.817,12.164-4.806,17.791-6.679c4.292-1.429,8.655-2.688,13.109-3.498
				c5.435-0.986,11.162,0.371,16.436,1.63c3.846,0.918,7.67,2.063,11.388,3.412c4.254,1.543,6.07-5.224,1.861-6.75
				c-8.367-3.035-17.378-5.408-26.31-5.595c-8.72-0.182-18.025,3.799-26.051,6.759c-12.716,4.689-23.662,10.036-37.395,13.679
				c-8.951,2.375-16.382,0.455-25.037-2.36c-5.635-1.833-13.52-4.855-17.791-6.678c-14.844-6.336-30.659-13.172-47.026-10.42
				c-5.765,0.97-11.513,2.623-17.007,4.615C78.622,241.083,80.438,247.85,84.691,246.307L84.691,246.307z"/>
		</g>
	</g>
</g>
<g id="Ebene_1">
</g>
</svg>
