<?xml version="1.0" encoding="iso-8859-1"?>
<!-- Generator: Adobe Illustrator 16.0.0, SVG Export Plug-In . SVG Version: 6.00 Build 0)  -->
<!DOCTYPE svg PUBLIC "-//W3C//DTD SVG 1.1 Tiny//EN" "http://www.w3.org/Graphics/SVG/1.1/DTD/svg11-tiny.dtd">
<svg version="1.1" baseProfile="tiny" id="sani_x5F_heating"
	 xmlns="http://www.w3.org/2000/svg" xmlns:xlink="http://www.w3.org/1999/xlink" x="0px" y="0px" width="361px" height="361px"
	 viewBox="0 0 361 361" xml:space="preserve">
<path fill="none" stroke="#FFFFFF" stroke-width="10" stroke-miterlimit="10" d="M215.238,288.544c-1.927,0-3.49-2.225-3.49-4.968
	V81.947c0-2.744,1.563-4.969,3.49-4.969h13.088c1.927,0,3.49,2.225,3.49,4.969v201.628c0,2.744-1.563,4.968-3.49,4.968H215.238z"/>
<path fill="none" stroke="#FFFFFF" stroke-width="10" stroke-miterlimit="10" d="M96.238,289.044c-1.927,0-3.49-2.225-3.49-4.968
	V82.447c0-2.744,1.563-4.969,3.49-4.969h13.088c1.927,0,3.49,2.225,3.49,4.969v201.628c0,2.744-1.563,4.968-3.49,4.968H96.238z"/>
<path fill="none" stroke="#FFFFFF" stroke-width="10" stroke-miterlimit="10" d="M156.238,289.044c-1.927,0-3.49-2.225-3.49-4.968
	V82.447c0-2.744,1.563-4.969,3.49-4.969h13.088c1.927,0,3.49,2.225,3.49,4.969v201.628c0,2.744-1.563,4.968-3.49,4.968H156.238z"/>
<path fill="#FFFFFF" stroke="#FFFFFF" stroke-width="10" stroke-miterlimit="10" d="M91.231,265.805c0,1.927-0.199,3.49-0.444,3.49
	H72.776c-0.246,0-0.444-1.563-0.444-3.49v-13.088c0-1.927,0.199-3.49,0.444-3.49h18.011c0.246,0,0.444,1.563,0.444,3.49V265.805z"/>
<path fill="#FFFFFF" stroke="#FFFFFF" stroke-width="10" stroke-miterlimit="10" d="M151.825,265.472c0,1.927-0.402,3.49-0.896,3.49
	h-36.367c-0.495,0-0.896-1.563-0.896-3.49v-13.088c0-1.927,0.402-3.49,0.896-3.49h36.367c0.495,0,0.896,1.563,0.896,3.49V265.472z"
	/>
<path fill="#FFFFFF" stroke="#FFFFFF" stroke-width="10" stroke-miterlimit="10" d="M211.658,265.639c0,1.927-0.402,3.49-0.896,3.49
	h-36.367c-0.495,0-0.896-1.563-0.896-3.49v-13.088c0-1.927,0.402-3.49,0.896-3.49h36.367c0.495,0,0.896,1.563,0.896,3.49V265.639z"
	/>
<path fill="#FFFFFF" stroke="#FFFFFF" stroke-width="10" stroke-miterlimit="10" d="M231.535,251.884c0-1.927,0.185-3.49,0.412-3.49
	h16.741c0.228,0,0.413,1.563,0.413,3.49v13.088c0,1.927-0.185,3.49-0.413,3.49h-16.741c-0.228,0-0.412-1.563-0.412-3.49V251.884z"/>
<path fill="#FFFFFF" stroke="#FFFFFF" stroke-width="10" stroke-miterlimit="10" d="M91.231,114.472c0,1.927-0.199,3.49-0.444,3.49
	H72.776c-0.246,0-0.444-1.563-0.444-3.49v-13.088c0-1.927,0.199-3.49,0.444-3.49h18.011c0.246,0,0.444,1.563,0.444,3.49V114.472z"/>
<path fill="#FFFFFF" stroke="#FFFFFF" stroke-width="10" stroke-miterlimit="10" d="M151.825,114.139c0,1.927-0.402,3.49-0.896,3.49
	h-36.367c-0.495,0-0.896-1.563-0.896-3.49v-13.088c0-1.927,0.402-3.49,0.896-3.49h36.367c0.495,0,0.896,1.563,0.896,3.49V114.139z"
	/>
<path fill="#FFFFFF" stroke="#FFFFFF" stroke-width="10" stroke-miterlimit="10" d="M211.658,114.305c0,1.927-0.402,3.49-0.896,3.49
	h-36.367c-0.495,0-0.896-1.563-0.896-3.49v-13.088c0-1.927,0.402-3.49,0.896-3.49h36.367c0.495,0,0.896,1.563,0.896,3.49V114.305z"
	/>
<path fill="none" stroke="#FFFFFF" stroke-width="10" stroke-miterlimit="10" d="M283.898,114.18c0,1.927-0.199,3.49-0.444,3.49
	h-18.011c-0.246,0-0.444-1.563-0.444-3.49v-13.088c0-1.927,0.199-3.49,0.444-3.49h18.011c0.246,0,0.444,1.563,0.444,3.49V114.18z"/>
<path fill="#FFFFFF" stroke="#FFFFFF" stroke-width="10" stroke-miterlimit="10" d="M231.782,101.126c0-1.927,0.185-3.49,0.412-3.49
	h16.741c0.228,0,0.413,1.563,0.413,3.49v13.088c0,1.927-0.185,3.49-0.413,3.49h-16.741c-0.228,0-0.412-1.563-0.412-3.49V101.126z"/>
</svg>
