<?xml version="1.0" encoding="iso-8859-1"?>
<!-- Generator: Adobe Illustrator 16.0.0, SVG Export Plug-In . SVG Version: 6.00 Build 0)  -->
<!DOCTYPE svg PUBLIC "-//W3C//DTD SVG 1.1//EN" "http://www.w3.org/Graphics/SVG/1.1/DTD/svg11.dtd">
<svg version="1.1" xmlns="http://www.w3.org/2000/svg" xmlns:xlink="http://www.w3.org/1999/xlink" x="0px" y="0px" width="361px"
	 height="361px" viewBox="0 0 361 361" style="enable-background:new 0 0 361 361;" xml:space="preserve">
<g id="sani_x5F_boiler_x5F_temp">
	<g>
		<g>
			<g>
				<path style="fill:#FFFFFF;" d="M113.025,138.534c16.842-2.864,33.683-5.728,50.524-8.592c6.348-1.079,3.647-10.715-2.658-9.643
					c-16.842,2.864-33.683,5.728-50.524,8.592C104.019,129.971,106.719,139.606,113.025,138.534L113.025,138.534z"/>
			</g>
		</g>
		<g>
			<g>
				<path style="fill:#FFFFFF;" d="M163.549,137.892c-16.841-2.864-33.683-5.728-50.524-8.592c-6.306-1.072-9.006,8.563-2.658,9.643
					c16.841,2.864,33.683,5.728,50.524,8.592C167.197,148.606,169.897,138.971,163.549,137.892L163.549,137.892z"/>
			</g>
		</g>
		<g>
			<g>
				<path style="fill:#FFFFFF;" d="M163.549,149.892c-16.841-2.864-33.683-5.728-50.524-8.592c-6.306-1.072-9.006,8.563-2.658,9.643
					c16.841,2.864,33.683,5.728,50.524,8.592C167.197,160.606,169.897,150.971,163.549,149.892L163.549,149.892z"/>
			</g>
		</g>
		<g>
			<g>
				<path style="fill:#FFFFFF;" d="M163.549,161.892c-16.841-2.864-33.683-5.728-50.524-8.592c-6.306-1.072-9.006,8.563-2.658,9.643
					c16.841,2.864,33.683,5.728,50.524,8.592C167.197,172.606,169.897,162.971,163.549,161.892L163.549,161.892z"/>
			</g>
		</g>
		<g>
			<g>
				<path style="fill:#FFFFFF;" d="M164.833,130.167c18,0,36,0,54,0c6.448,0,6.448-10,0-10c-18,0-36,0-54,0
					C158.384,120.167,158.384,130.167,164.833,130.167L164.833,130.167z"/>
			</g>
		</g>
		<g>
			<g>
				<path style="fill:#FFFFFF;" d="M164.833,171.917c18,0,36,0,54,0c6.448,0,6.448-10,0-10c-18,0-36,0-54,0
					C158.384,161.917,158.384,171.917,164.833,171.917L164.833,171.917z"/>
			</g>
		</g>
	</g>
	<path style="fill:none;stroke:#FFFFFF;stroke-width:10;stroke-miterlimit:10;" d="M268.648,215.92c0,1.859-1.634,3.368-3.648,3.368
		h-13.379c-2.014,0-3.648-1.509-3.648-3.368v-93.397c0-1.861,1.635-3.369,3.648-3.369H265c2.015,0,3.648,1.508,3.648,3.369V215.92z"
		/>
	<path style="fill:#FFFFFF;stroke:#FFFFFF;stroke-width:10;stroke-miterlimit:10;" d="M274.121,244.018
		c0,2.016-1.28,3.649-2.859,3.649H245.36c-1.579,0-2.86-1.634-2.86-3.649v-21.08c0-2.015,1.281-3.648,2.86-3.648h25.901
		c1.579,0,2.859,1.634,2.859,3.648V244.018z"/>
	<g>
		<g>
			<path style="fill:#FFFFFF;" d="M276.555,131.451c3.648,0,7.297,0,10.945,0c6.448,0,6.448-10,0-10c-3.648,0-7.297,0-10.945,0
				C270.106,121.451,270.106,131.451,276.555,131.451L276.555,131.451z"/>
		</g>
	</g>
	<g>
		<g>
			<path style="fill:#FFFFFF;" d="M276.555,155.775c3.648,0,7.297,0,10.945,0c6.448,0,6.448-10,0-10c-3.648,0-7.297,0-10.945,0
				C270.106,145.775,270.106,155.775,276.555,155.775L276.555,155.775z"/>
		</g>
	</g>
	<g>
		<g>
			<path style="fill:#FFFFFF;" d="M276.555,180.708c3.648,0,7.297,0,10.945,0c6.448,0,6.448-10,0-10c-3.648,0-7.297,0-10.945,0
				C270.106,170.708,270.106,180.708,276.555,180.708L276.555,180.708z"/>
		</g>
	</g>
	<g>
		<g>
			<path style="fill:#FFFFFF;" d="M276.555,206.855c3.648,0,7.297,0,10.945,0c6.448,0,6.448-10,0-10c-3.648,0-7.297,0-10.945,0
				C270.106,196.855,270.106,206.855,276.555,206.855L276.555,206.855z"/>
		</g>
	</g>
	
		<rect x="247.973" y="185.894" style="fill:#FFFFFF;stroke:#FFFFFF;stroke-width:10;stroke-miterlimit:10;" width="20.676" height="42.922"/>
	<path style="fill:none;stroke:#FFFFFF;stroke-width:10;stroke-miterlimit:10;" d="M204.067,283.394
		c0,2.084-1.689,3.773-3.772,3.773H78.606c-2.084,0-3.773-1.689-3.773-3.773V109.578c0-2.083,1.689-3.773,3.773-3.773h121.688
		c2.083,0,3.772,1.689,3.772,3.773V283.394z"/>
	<path style="fill:none;stroke:#FFFFFF;stroke-width:10;stroke-miterlimit:10;" d="M167.22,233.733
		c0,19.484-13.012,35.28-29.062,35.28c-16.052,0-32.35-13.602-31.667-33.074c0.41-11.66,7.34-16.117,12.464-24.624
		c5.328-8.848,8.781-27.77,11.562-29.358c0.704-0.402,7.111,8.176,8.546,18.5c2.483,17.843,12.267-6.938,12.87-6.334
		c1.956,1.955,4.721,4.934,6.234,7.34C163.797,210.41,167.22,221.555,167.22,233.733z"/>
	<path style="fill:none;stroke:#FFFFFF;stroke-width:10;stroke-miterlimit:10;" d="M153.09,247.418
		c0,11.502-7.682,20.827-17.157,20.827c-9.476,0-19.097-8.03-18.694-19.524c0.242-6.884,4.333-9.516,7.358-14.537
		c3.146-5.225,5.184-16.395,6.826-17.332c0.416-0.237,4.198,4.827,5.045,10.921c1.466,10.534,7.242-4.095,7.598-3.739
		c1.154,1.156,2.786,2.913,3.68,4.334C151.069,233.648,153.09,240.229,153.09,247.418z"/>
	<path style="fill:none;stroke:#FFFFFF;stroke-width:10;stroke-miterlimit:10;" d="M164.227,101.805c0,2.209-1.791,4-4,4H94.333
		c-2.209,0-4-1.791-4-4V79.167c0-2.209,1.791-4,4-4h65.894c2.209,0,4,1.791,4,4V101.805z"/>
	<g>
		<g>
			<path style="fill:#FFFFFF;" d="M103.515,95.486c6.788,0,13.575,0,20.362,0c6.449,0,6.449-10,0-10c-6.788,0-13.575,0-20.362,0
				C97.066,85.486,97.066,95.486,103.515,95.486L103.515,95.486z"/>
		</g>
	</g>
	<g>
		<g>
			<path style="fill:#FFFFFF;" d="M147.599,95.486c1.312,0,2.624,0,3.935,0c2.726,0,5-2.274,5-5s-2.274-5-5-5
				c-1.312,0-2.624,0-3.935,0c-2.726,0-5,2.274-5,5S144.873,95.486,147.599,95.486L147.599,95.486z"/>
		</g>
	</g>
</g>
<g id="Ebene_1">
</g>
</svg>
