<?xml version="1.0" encoding="iso-8859-1"?>
<!-- Generator: Adobe Illustrator 16.0.0, SVG Export Plug-In . SVG Version: 6.00 Build 0)  -->
<!DOCTYPE svg PUBLIC "-//W3C//DTD SVG 1.1//EN" "http://www.w3.org/Graphics/SVG/1.1/DTD/svg11.dtd">
<svg version="1.1" xmlns="http://www.w3.org/2000/svg" xmlns:xlink="http://www.w3.org/1999/xlink" x="0px" y="0px" width="361px"
	 height="361px" viewBox="0 0 361 361" style="enable-background:new 0 0 361 361;" xml:space="preserve">
<g id="sani_x5F_leakage">
	<g>
		<g>
			<path style="fill:#FFFFFF;" d="M93.333,73.667c0,48.486,0,96.972,0,145.457c0,23.015,0,46.028,0,69.043c0,4.514,7,4.514,7,0
				c0-48.485,0-96.972,0-145.458c0-23.014,0-46.028,0-69.042C100.333,69.153,93.333,69.153,93.333,73.667L93.333,73.667z"/>
		</g>
	</g>
	<g>
		<g>
			<path style="fill:#FFFFFF;" d="M168.792,282.098c0.445,3.405,2.331,4.803,5.551,5.665c2.625,0.702,5.327,0.979,7.946,1.748
				c2.72,0.799,5.171,1.823,8.025,2.177c6.282,0.776,12.607,0.425,18.911,0.135c7.635-0.353,15.272-0.271,22.905-0.588
				c9.347-0.388,18.035-2.408,26.761-5.719c4.507-1.71,16.901-5.353,13.598-12.335c-3.65-7.714-16.244-9.309-23.488-10.614
				c-4.565-0.822-9.143-1.827-13.729-0.84c-5.145,1.107-10.074,3.276-15.079,4.866c-10.719,3.403-25.819-1.583-35.125,4.646
				C180.235,274.473,169.486,273.824,168.792,282.098c-0.162,1.929,2.839,1.913,3,0c0.546-6.499,11.689-5.536,15.479-8.801
				c1.834-1.581,5.821-1.634,8.328-1.844c8.945-0.748,17.891,0.414,26.535-2.331c4.32-1.372,8.54-3.035,12.912-4.247
				c5.353-1.484,11.054,0.155,16.377,1.186c4.953,0.959,9.998,2.24,14.458,4.653c1.511,0.818,2.812,1.89,3.72,3.352
				c1.642,2.645-2.189,4.235-3.946,5.204c-7.224,3.981-15.802,6.693-23.92,8.063c-11.763,1.982-24.104,1.122-35.988,1.646
				c-5.882,0.26-11.847,0.472-17.646-0.715c-2.688-0.55-5.19-1.767-7.865-2.404c-2.247-0.535-8.014-0.479-8.443-3.762
				C171.544,280.208,168.542,280.184,168.792,282.098z"/>
		</g>
	</g>
	<g>
		<g>
			<path style="fill:#FFFFFF;" d="M149.917,278.354c0.313,3.034,1.664,5.359,4.654,6.451c5.39,1.969,11.173,2.269,16.581,4.354
				c11.218,4.325,24.926,2.383,36.599,1.851c13.336-0.607,26.759,0.054,40.027-1.654c8.784-1.131,17.17-3.812,25.415-6.968
				c4.405-1.687,8.756-3.572,12.85-5.922c2.153-1.235,6.054-3.587,5.915-6.563c-0.322-6.938-7.125-10.399-12.801-12.717
				c-5.217-2.131-10.813-3.355-16.32-4.456c-5.714-1.144-12.332-2.864-18.19-2.465c-9.329,0.636-18.439,5.653-27.359,8.154
				c-5.407,1.517-11.011,1.043-16.573,1.138c-4.916,0.084-9.833,0.263-14.736,0.639c-3.948,0.303-8.443,0.516-12.063,2.318
				c-2.439,1.214-2.338,1.586-5.462,2.529C161.978,266.999,150.368,269.994,149.917,278.354c-0.104,1.934,2.896,1.924,3,0
				c0.463-8.57,15.253-8.494,20.633-11.869c1.562-0.979,2.361-1.712,4.43-2.211c7.807-1.885,16.38-1.607,24.34-1.743
				c4.981-0.085,9.852,0.217,14.722-0.944c5.186-1.237,10.21-3.224,15.243-4.952c4.227-1.452,8.66-3.116,13.153-3.422
				c6.682-0.455,14.681,1.93,21.212,3.385c5.282,1.176,10.564,2.713,15.401,5.173c2.595,1.319,9.198,5.769,6.181,9.352
				c-3.122,3.706-9.311,5.726-13.641,7.504c-4.429,1.82-8.968,3.411-13.544,4.814c-10.162,3.115-20.69,3.871-31.262,4.104
				c-14.479,0.318-29.103,1.39-43.578,1.012c-5.896-0.153-11.357-1.196-16.854-3.28c-4.226-1.602-15.835-1.106-16.436-6.921
				C152.72,276.45,149.718,276.431,149.917,278.354z"/>
		</g>
	</g>
	<g>
		<g>
			<path style="fill:#FFFFFF;" d="M189.483,164.834c16.885-29.245,33.771-58.49,50.655-87.735c-2.878,0-5.757,0-8.635,0
				c16.885,29.245,33.769,58.49,50.653,87.735c1.439-2.508,2.878-5.016,4.317-7.523c-33.77,0-67.539,0-101.309,0
				c-6.449,0-6.449,10,0,10c33.77,0,67.539,0,101.309,0c3.806,0,6.211-4.243,4.317-7.523c-16.885-29.245-33.769-58.49-50.653-87.735
				c-1.873-3.244-6.762-3.244-8.635,0c-16.885,29.245-33.771,58.49-50.655,87.735C177.618,165.382,186.261,170.416,189.483,164.834z
				"/>
		</g>
	</g>
	<g>
		<g>
			<path style="fill:#FFFFFF;" d="M232.383,100.226c0,10.382,0,20.765,0,31.147c0,4.514,7,4.514,7,0c0-10.382,0-20.765,0-31.147
				C239.383,95.712,232.383,95.712,232.383,100.226L232.383,100.226z"/>
		</g>
	</g>
	<g>
		<g>
			<path style="fill:#FFFFFF;" d="M232.383,145.42c0,1.181,0,2.362,0,3.543c0,1.908,1.592,3.5,3.5,3.5s3.5-1.592,3.5-3.5
				c0-1.181,0-2.362,0-3.543c0-1.908-1.592-3.5-3.5-3.5S232.383,143.512,232.383,145.42L232.383,145.42z"/>
		</g>
	</g>
	<g>
		<g>
			<g>
				<path style="fill:#FFFFFF;" d="M72.387,212.172c-0.019,0.729-0.037,1.46-0.055,2.189c-0.021,0.817,0.698,1.5,1.5,1.5
					c0.833,0,1.479-0.683,1.5-1.5c0.019-0.729,0.037-1.46,0.055-2.189c0.021-0.817-0.698-1.5-1.5-1.5
					C73.054,210.672,72.408,211.354,72.387,212.172L72.387,212.172z"/>
			</g>
		</g>
		<g>
			<g>
				<path style="fill:#FFFFFF;" d="M75.094,213.088c2.099-1.478,4.197-2.955,6.296-4.434c1.568-1.104,0.071-3.707-1.515-2.59
					c-2.099,1.478-4.197,2.955-6.296,4.434C72.011,211.603,73.508,214.205,75.094,213.088L75.094,213.088z"/>
			</g>
		</g>
		<g>
			<g>
				<path style="fill:#FFFFFF;" d="M80.233,208.806c1.961,0.759,3.923,1.518,5.884,2.276c1.807,0.699,2.582-2.202,0.798-2.893
					c-1.961-0.759-3.923-1.518-5.884-2.276C79.224,205.214,78.449,208.115,80.233,208.806L80.233,208.806z"/>
			</g>
		</g>
		<g>
			<g>
				<path style="fill:#FFFFFF;" d="M88.337,211.005c2.536-3.77,5.072-7.54,7.608-11.311c1.083-1.61-1.517-3.109-2.591-1.514
					c-2.536,3.77-5.072,7.54-7.608,11.311C84.663,211.102,87.263,212.601,88.337,211.005L88.337,211.005z"/>
			</g>
		</g>
		<g>
			<g>
				<path style="fill:#FFFFFF;" d="M77.95,218.856c-0.831-1.375-1.661-2.75-2.491-4.124c-0.999-1.653-3.593-0.146-2.591,1.514
					c0.831,1.375,1.661,2.75,2.491,4.124C76.358,222.023,78.953,220.517,77.95,218.856L77.95,218.856z"/>
			</g>
		</g>
		<g>
			<g>
				<path style="fill:#FFFFFF;" d="M74.922,219.108c-1.527,2.063-3.054,4.125-4.582,6.188c-1.152,1.557,1.453,3.051,2.591,1.514
					c1.527-2.063,3.054-4.125,4.582-6.188C78.666,219.065,76.06,217.572,74.922,219.108L74.922,219.108z"/>
			</g>
		</g>
	</g>
	<g>
		<g>
			<g>
				<path style="fill:#FFFFFF;" d="M141.556,179.779c2.619-0.352,5.238-0.705,7.857-1.057c1.895-0.255,2.898-2.656,2.444-4.306
					c-0.557-2.023-2.416-2.698-4.306-2.444c-2.619,0.352-5.238,0.705-7.857,1.057c-1.895,0.255-2.898,2.656-2.444,4.306
					C137.807,179.358,139.667,180.033,141.556,179.779L141.556,179.779z"/>
			</g>
		</g>
		<g>
			<g>
				<path style="fill:#FFFFFF;" d="M160.813,180.279c1.02,0.563,2.04,1.125,3.06,1.687c1.671,0.921,3.807,0.42,4.789-1.255
					c0.946-1.614,0.413-3.869-1.255-4.789c-1.02-0.563-2.04-1.125-3.06-1.687c-1.671-0.921-3.807-0.42-4.789,1.255
					C158.612,177.105,159.145,179.36,160.813,180.279L160.813,180.279z"/>
			</g>
		</g>
		<g>
			<g>
				<path style="fill:#FFFFFF;" d="M173.933,190.358c0.649,0.967,1.298,1.934,1.947,2.9c1.061,1.58,3.065,2.265,4.789,1.256
					c1.568-0.919,2.321-3.203,1.255-4.789c-0.648-0.967-1.298-1.934-1.947-2.9c-1.061-1.58-3.065-2.265-4.789-1.256
					C173.62,186.488,172.868,188.772,173.933,190.358L173.933,190.358z"/>
			</g>
		</g>
		<g>
			<g>
				<path style="fill:#FFFFFF;" d="M182.695,207.139c0.479,1.062,0.957,2.123,1.436,3.185c0.784,1.739,3.275,2.143,4.789,1.256
					c0.782-0.459,1.368-1.217,1.608-2.092c0.271-0.982,0.05-1.804-0.353-2.697c-0.479-1.062-0.957-2.123-1.436-3.185
					c-0.784-1.739-3.275-2.143-4.789-1.256c-0.782,0.459-1.368,1.217-1.608,2.092C182.072,205.424,182.293,206.245,182.695,207.139
					L182.695,207.139z"/>
			</g>
		</g>
		<g>
			<g>
				<path style="fill:#FFFFFF;" d="M188.432,224.98c0.212,1.145,0.423,2.289,0.635,3.435c0.347,1.877,2.587,2.917,4.306,2.444
					c1.956-0.538,2.791-2.432,2.444-4.306c-0.212-1.145-0.423-2.289-0.635-3.435c-0.347-1.877-2.587-2.917-4.306-2.444
					C188.92,221.213,188.085,223.106,188.432,224.98L188.432,224.98z"/>
			</g>
		</g>
		<g>
			<g>
				<path style="fill:#FFFFFF;" d="M124.295,187.456c2.322-1.261,4.645-2.522,6.967-3.783c3.968-2.154,0.435-8.198-3.533-6.044
					c-2.322,1.261-4.645,2.521-6.967,3.782C116.794,183.565,120.327,189.609,124.295,187.456L124.295,187.456z"/>
			</g>
		</g>
		<g>
			<g>
				<path style="fill:#FFFFFF;" d="M190.156,243.641c0.021,1.165,0.042,2.329,0.063,3.494c0.034,1.907,1.566,3.5,3.5,3.5
					c1.882,0,3.534-1.592,3.5-3.5c-0.021-1.165-0.042-2.329-0.063-3.494c-0.034-1.907-1.566-3.5-3.5-3.5
					C191.774,240.141,190.122,241.732,190.156,243.641L190.156,243.641z"/>
			</g>
		</g>
		<g>
			<g>
				<path style="fill:#FFFFFF;" d="M108.711,199.668c1.934-1.801,3.868-3.602,5.802-5.402c1.396-1.3,1.312-3.637,0-4.949
					c-1.385-1.385-3.555-1.299-4.95,0c-1.934,1.801-3.868,3.602-5.802,5.402c-1.396,1.3-1.312,3.637,0,4.949
					C105.146,201.053,107.316,200.967,108.711,199.668L108.711,199.668z"/>
			</g>
		</g>
	</g>
</g>
<g id="Ebene_1">
</g>
</svg>
