<?xml version="1.0" encoding="iso-8859-1"?>
<!-- Generator: Adobe Illustrator 16.0.0, SVG Export Plug-In . SVG Version: 6.00 Build 0)  -->
<!DOCTYPE svg PUBLIC "-//W3C//DTD SVG 1.1//EN" "http://www.w3.org/Graphics/SVG/1.1/DTD/svg11.dtd">
<svg version="1.1" xmlns="http://www.w3.org/2000/svg" xmlns:xlink="http://www.w3.org/1999/xlink" x="0px" y="0px" width="361px"
	 height="361px" viewBox="0 0 361 361" style="enable-background:new 0 0 361 361;" xml:space="preserve">
<g id="sani_x5F_domestic_x5F_waterworks">
	<g>
		<path style="fill:#FFFFFF;" d="M222.457,85.638c0-1.837-1.359-3.327-3.033-3.327h-14.157c-1.675,0-3.032,1.489-3.032,3.327v7.207
			c0,1.837,1.357,3.326,3.032,3.326h14.157c1.674,0,3.033-1.489,3.033-3.326V85.638z"/>
		<path style="fill:#FFFFFF;" d="M224.813,80.351c0-2.004-0.995-3.629-2.223-3.629h-20.619c-1.229,0-2.223,1.625-2.223,3.629v1.008
			c0,2.005,0.994,3.63,2.223,3.63h20.619c1.228,0,2.223-1.625,2.223-3.63V80.351z"/>
		<path style="fill:#FFFFFF;" d="M146.861,83.177c0,1.087-0.881,1.969-1.968,1.969h-37.796c-1.087,0-1.968-0.882-1.968-1.969V72.451
			c0-1.088,0.881-1.969,1.968-1.969h37.796c1.087,0,1.968,0.881,1.968,1.969V83.177z"/>
		<path style="fill:#FFFFFF;" d="M257.537,138.437c0,5.117-4.148,9.267-9.267,9.267H188.51c-5.117,0-9.266-4.15-9.266-9.267v-35.407
			c0-5.118,4.149-9.267,9.266-9.267h59.761c5.118,0,9.267,4.149,9.267,9.267V138.437z"/>
		<path style="fill:#FFFFFF;" d="M186.447,156.419c0,2.144-1.334,3.882-2.98,3.882h-5.352c-1.647,0-2.982-1.738-2.982-3.882V86.028
			c0-2.144,1.334-3.882,2.982-3.882h5.352c1.646,0,2.98,1.738,2.98,3.882V156.419z"/>
		<g>
			<path style="fill:#FFFFFF;" d="M175.875,140.267c-0.291,5.406-4.765,6.085-8.993,6.085c-4.535,0-9.07,0-13.604,0
				c-13.137,0-26.275,0-39.412,0c-4.765,0-9.53,0-14.296,0c-3.669,0-7.692,0.276-9.351-3.954c-1.296-3.304-0.374-8.358-0.374-11.774
				c0-6.594,0-13.188,0-19.782c0-3.732-0.629-8.126,0.374-11.774c1.182-4.3,5.914-3.954,9.351-3.954c11.373,0,22.745,0,34.117,0
				c11.065,0,22.13,0,33.195,0c4.228,0,8.702,0.679,8.993,6.085c0.199,3.684,0,7.433,0,11.121
				C175.875,121.635,175.875,130.951,175.875,140.267c0,5.339,8.28,5.339,8.28,0c0-10.279,0-20.558,0-30.837
				c0-4.112,0.433-8.557-0.668-12.563c-1.76-6.401-8.16-10.033-14.455-10.033c-21.946,0-43.892,0-65.838,0c-2.417,0-4.834,0-7.251,0
				c-7.968,0-14.377,6.681-14.377,14.568c0,10.869,0,21.737,0,32.605c0,4.742-0.308,9.132,1.961,13.51
				c2.662,5.137,8.405,7.115,13.815,7.115c10.19,0,20.38,0,30.571,0c11.538,0,23.076,0,34.614,0c2.385,0,4.77,0,7.154,0
				c8.164,0,14.05-6.49,14.474-14.365C184.441,134.929,176.16,134.957,175.875,140.267z"/>
			<path style="fill:#FFFFFF;" d="M180.631,105.503c-25.955,0-51.91,0-77.866,0c-3.737,0-3.737,5.796,0,5.796
				c25.956,0,51.911,0,77.866,0C184.369,111.3,184.369,105.503,180.631,105.503L180.631,105.503z"/>
			<path style="fill:#FFFFFF;" d="M180.631,113.809c-25.955,0-51.91,0-77.866,0c-3.737,0-3.737,5.796,0,5.796
				c25.956,0,51.911,0,77.866,0C184.369,119.605,184.369,113.809,180.631,113.809L180.631,113.809z"/>
			<path style="fill:#FFFFFF;" d="M180.631,122.114c-25.955,0-51.91,0-77.866,0c-3.737,0-3.737,5.796,0,5.796
				c25.956,0,51.911,0,77.866,0C184.369,127.91,184.369,122.114,180.631,122.114L180.631,122.114z"/>
			<path style="fill:#FFFFFF;" d="M180.631,130.419c-25.955,0-51.91,0-77.866,0c-3.737,0-3.737,5.796,0,5.796
				c25.956,0,51.911,0,77.866,0C184.369,136.215,184.369,130.419,180.631,130.419L180.631,130.419z"/>
			<path style="fill:#FFFFFF;" d="M178.663,97.198c-24.242,0-48.483,0-72.725,0c-3.738,0-3.738,5.796,0,5.796
				c24.242,0,48.482,0,72.725,0C182.4,102.994,182.4,97.198,178.663,97.198L178.663,97.198z"/>
			<path style="fill:#FFFFFF;" d="M178.663,138.725c-24.242,0-48.483,0-72.725,0c-3.738,0-3.738,5.796,0,5.796
				c24.242,0,48.482,0,72.725,0C182.4,144.521,182.4,138.725,178.663,138.725L178.663,138.725z"/>
		</g>
		<path style="fill:#FFFFFF;" d="M261.805,139.015c1.77,0,3.205-1.229,3.205-2.742v-12.797c0-1.515-1.436-2.743-3.205-2.743h-6.943
			c-1.77,0-3.205,1.228-3.205,2.743v12.797c0,1.514,1.436,2.742,3.205,2.742H261.805z"/>
		<path style="fill:#FFFFFF;" d="M177.125,170.57c0,1.171-0.95,2.121-2.121,2.121h-44.121c-1.172,0-2.122-0.95-2.122-2.121v-10.117
			c0-1.171,0.95-2.121,2.122-2.121h44.121c1.171,0,2.121,0.949,2.121,2.121V170.57z"/>
		<rect x="167.718" y="149.802" style="fill:#FFFFFF;" width="9.624" height="20.998"/>
	</g>
	<g>
		<g>
			<g>
				<g>
					<path style="fill:#FFFFFF;" d="M243.172,247.829c-0.295,11.656-8.993,21.199-20.73,22.092
						c-2.415,0.184-4.895,0.035-7.313,0.035c-12.871,0-25.743,0-38.615,0c-24.031,0-48.062,0-72.093,0
						c-10.83,0-19.418-7.67-21.799-17.989c-1.013-4.389-0.373-9.656-0.373-14.106c0-13.828,0-27.655,0-41.483
						c0-8.82,4.004-16.265,11.72-20.702c4.184-2.405,8.81-2.591,13.462-2.591c11.598,0,23.197,0,34.795,0
						c25.979,0,51.958,0,77.936,0c7.632,0,14.578,3.181,19.06,9.483c3.823,5.376,3.95,11.372,3.95,17.614
						c0,14.425,0,28.851,0,43.275C243.172,244.915,243.172,246.372,243.172,247.829c0,6.448,10,6.448,10,0
						c0-12.185,0-24.368,0-36.553c0-14.872,1.182-29.69-11.336-40.534c-9.236-8.001-20.269-7.659-31.557-7.659
						c-14.201,0-28.401,0-42.602,0c-15.271,0-30.541,0-45.812,0c-8.707,0-18.415-1.007-26.886,1.398
						c-10.705,3.04-18.717,12.12-21.698,22.621c-1.432,5.043-1.033,10.581-1.033,15.775c0,14.212,0,28.424,0,42.636
						c0,18.334,12.878,34.442,32.172,34.442c8.164,0,16.327,0,24.491,0c28.739,0,57.478,0,86.217,0
						c5.21,0,10.211,0.051,15.313-1.398c13.618-3.867,22.382-16.956,22.73-30.729C253.335,241.377,243.335,241.393,243.172,247.829z
						"/>
				</g>
			</g>
			<g>
				<g>
					<path style="fill:#FFFFFF;" d="M113.195,291.373c7.72,0,15.439,0,23.159,0c6.449,0,6.449-10,0-10c-7.72,0-15.439,0-23.159,0
						C106.746,281.373,106.746,291.373,113.195,291.373L113.195,291.373z"/>
				</g>
			</g>
			<g>
				<g>
					<path style="fill:#FFFFFF;" d="M195.59,291.667c7.72,0,15.438,0,23.158,0c6.448,0,6.448-10,0-10c-7.72,0-15.438,0-23.158,0
						C189.142,281.667,189.142,291.667,195.59,291.667L195.59,291.667z"/>
				</g>
			</g>
			<path style="fill:#FFFFFF;" d="M81.883,226.775c0,7.002-2.838,12.68-6.339,12.68l0,0c-3.501,0-6.34-5.678-6.34-12.68v-10.511
				c0-7.003,2.839-12.679,6.34-12.679l0,0c3.501,0,6.339,5.676,6.339,12.679V226.775z"/>
			<g>
				<g>
					<path style="fill:#FFFFFF;" d="M273.517,154.578c-0.037,15.057-0.588,30.458-5.069,44.944c-1.364,4.41-3.362,8.813-6.48,12.231
						c-2.783,3.051-5.865,4.254-9.913,4.334c-9.672,0.191-9.775,15.194-0.107,15.004c35.664-0.705,36.511-51.155,36.574-76.405
						C288.545,144.999,273.541,144.916,273.517,154.578L273.517,154.578z"/>
				</g>
			</g>
			<path style="fill:#FFFFFF;" d="M256.785,243.865c0,2.642-2.143,4.784-4.785,4.784l0,0c-2.643,0-4.785-2.143-4.785-4.784v-44.689
				c0-2.643,2.143-4.785,4.785-4.785l0,0c2.643,0,4.785,2.143,4.785,4.785V243.865z"/>
		</g>
		<g>
			<g>
				<path style="fill:#FFFFFF;" d="M288.521,149.793c-0.341-13.786-9.573-26.516-24.115-27.005
					c-9.693-0.327-9.747,14.679-0.107,15.003c6.037,0.204,9.084,6.432,9.219,11.894
					C273.756,159.353,288.759,159.461,288.521,149.793L288.521,149.793z"/>
			</g>
		</g>
		<path style="fill:#FFFFFF;" d="M280.754,162.579c-5.242,0-9.49-2.254-9.49-5.036v-8.445c0-2.781,4.248-5.035,9.49-5.035l0,0
			c5.24,0,9.489,2.254,9.489,5.035v8.445C290.243,160.324,285.994,162.579,280.754,162.579L280.754,162.579z"/>
	</g>
</g>
<g id="Ebene_1">
</g>
</svg>
