<?xml version="1.0" encoding="iso-8859-1"?>
<!-- Generator: Adobe Illustrator 16.0.0, SVG Export Plug-In . SVG Version: 6.00 Build 0)  -->
<!DOCTYPE svg PUBLIC "-//W3C//DTD SVG 1.1//EN" "http://www.w3.org/Graphics/SVG/1.1/DTD/svg11.dtd">
<svg version="1.1" xmlns="http://www.w3.org/2000/svg" xmlns:xlink="http://www.w3.org/1999/xlink" x="0px" y="0px" width="361px"
	 height="361px" viewBox="0 0 361 361" style="enable-background:new 0 0 361 361;" xml:space="preserve">
<g id="sani_x5F_buffer_x5F_temp_x5F_down">
	<path style="fill:none;stroke:#FFFFFF;stroke-width:10;stroke-miterlimit:10;" d="M177.084,281.383
		c0,2.918-12.255,5.284-27.372,5.284h-46.758c-15.116,0-27.372-2.366-27.372-5.284V79.898c0-2.918,12.256-5.285,27.372-5.285h46.758
		c15.116,0,27.372,2.366,27.372,5.285V281.383z"/>
	<g>
		<g>
			<g>
				<path style="fill:#FFFFFF;" d="M97.987,217.075c19.596-3.332,39.191-6.664,58.786-9.996c6.348-1.079,3.647-10.715-2.658-9.643
					c-19.596,3.332-39.191,6.664-58.786,9.996C88.981,208.512,91.682,218.147,97.987,217.075L97.987,217.075z"/>
			</g>
		</g>
		<g>
			<g>
				<path style="fill:#FFFFFF;" d="M156.773,217.905c-19.595-3.332-39.19-6.665-58.786-9.997c-6.306-1.072-9.006,8.563-2.658,9.643
					c19.595,3.332,39.19,6.665,58.786,9.997C160.421,228.62,163.121,218.984,156.773,217.905L156.773,217.905z"/>
			</g>
		</g>
		<g>
			<g>
				<path style="fill:#FFFFFF;" d="M156.773,231.867c-19.595-3.332-39.19-6.665-58.786-9.997c-6.306-1.072-9.006,8.563-2.658,9.643
					c19.595,3.332,39.19,6.665,58.786,9.997C160.421,242.582,163.121,232.946,156.773,231.867L156.773,231.867z"/>
			</g>
		</g>
		<g>
			<g>
				<path style="fill:#FFFFFF;" d="M156.773,245.829c-19.595-3.332-39.19-6.664-58.786-9.996c-6.306-1.072-9.006,8.563-2.658,9.643
					c19.595,3.332,39.19,6.664,58.786,9.996C160.421,256.544,163.121,246.908,156.773,245.829L156.773,245.829z"/>
			</g>
		</g>
		<g>
			<g>
				<path style="fill:#FFFFFF;" d="M156.773,259.792c-19.595-3.332-39.19-6.664-58.786-9.996c-6.306-1.072-9.006,8.563-2.658,9.643
					c19.595,3.332,39.19,6.664,58.786,9.996C160.421,270.507,163.121,260.871,156.773,259.792L156.773,259.792z"/>
			</g>
		</g>
		<g>
			<g>
				<path style="fill:#FFFFFF;" d="M158.484,207.311c13.732,0,27.464,0,41.195,0c6.448,0,6.448-10,0-10c-13.731,0-27.463,0-41.195,0
					C152.036,197.311,152.036,207.311,158.484,207.311L158.484,207.311z"/>
			</g>
		</g>
		<g>
			<g>
				<path style="fill:#FFFFFF;" d="M158.484,269.851c13.732,0,27.464,0,41.195,0c6.448,0,6.448-10,0-10c-13.731,0-27.463,0-41.195,0
					C152.036,259.851,152.036,269.851,158.484,269.851L158.484,269.851z"/>
			</g>
		</g>
	</g>
	<path style="fill:none;stroke:#FFFFFF;stroke-width:10;stroke-miterlimit:10;" d="M268.648,215.92c0,1.859-1.634,3.368-3.648,3.368
		h-13.379c-2.014,0-3.648-1.509-3.648-3.368v-93.397c0-1.861,1.635-3.369,3.648-3.369H265c2.015,0,3.648,1.508,3.648,3.369V215.92z"
		/>
	<path style="fill:#FFFFFF;stroke:#FFFFFF;stroke-width:10;stroke-miterlimit:10;" d="M274.121,244.018
		c0,2.016-1.28,3.649-2.859,3.649H245.36c-1.579,0-2.86-1.634-2.86-3.649v-21.08c0-2.015,1.281-3.648,2.86-3.648h25.901
		c1.579,0,2.859,1.634,2.859,3.648V244.018z"/>
	<g>
		<g>
			<path style="fill:#FFFFFF;" d="M276.555,131.451c3.648,0,7.297,0,10.945,0c6.448,0,6.448-10,0-10c-3.648,0-7.297,0-10.945,0
				C270.106,121.451,270.106,131.451,276.555,131.451L276.555,131.451z"/>
		</g>
	</g>
	<g>
		<g>
			<path style="fill:#FFFFFF;" d="M276.555,155.775c3.648,0,7.297,0,10.945,0c6.448,0,6.448-10,0-10c-3.648,0-7.297,0-10.945,0
				C270.106,145.775,270.106,155.775,276.555,155.775L276.555,155.775z"/>
		</g>
	</g>
	<g>
		<g>
			<path style="fill:#FFFFFF;" d="M276.555,180.708c3.648,0,7.297,0,10.945,0c6.448,0,6.448-10,0-10c-3.648,0-7.297,0-10.945,0
				C270.106,170.708,270.106,180.708,276.555,180.708L276.555,180.708z"/>
		</g>
	</g>
	<g>
		<g>
			<path style="fill:#FFFFFF;" d="M276.555,206.855c3.648,0,7.297,0,10.945,0c6.448,0,6.448-10,0-10c-3.648,0-7.297,0-10.945,0
				C270.106,196.855,270.106,206.855,276.555,206.855L276.555,206.855z"/>
		</g>
	</g>
	
		<rect x="247.973" y="185.894" style="fill:#FFFFFF;stroke:#FFFFFF;stroke-width:10;stroke-miterlimit:10;" width="20.676" height="42.922"/>
</g>
<g id="Ebene_1">
</g>
</svg>
