<?xml version="1.0" encoding="iso-8859-1"?>
<!-- Generator: Adobe Illustrator 16.0.0, SVG Export Plug-In . SVG Version: 6.00 Build 0)  -->
<!DOCTYPE svg PUBLIC "-//W3C//DTD SVG 1.1 Tiny//EN" "http://www.w3.org/Graphics/SVG/1.1/DTD/svg11-tiny.dtd">
<svg version="1.1" baseProfile="tiny" id="sani_x5F_sprinkling"
	 xmlns="http://www.w3.org/2000/svg" xmlns:xlink="http://www.w3.org/1999/xlink" x="0px" y="0px" width="361px" height="361px"
	 viewBox="0 0 361 361" xml:space="preserve">
<g>
	<g>
		<path fill="#FFFFFF" d="M96.461,292.79c-0.069-19.183-1.412-50.086-27.042-50.506c-1.936-0.032-1.933,2.968,0,3
			c23.526,0.386,23.979,30.271,24.042,47.506C93.468,294.724,96.468,294.725,96.461,292.79L96.461,292.79z"/>
	</g>
	<g>
		<path fill="#FFFFFF" d="M102.418,292.79c-0.137-21.652-6.396-50.099-33-50.506c-1.936-0.03-1.933,2.97,0,3
			c24.768,0.379,29.874,27.678,30,47.506C99.431,294.724,102.431,294.725,102.418,292.79L102.418,292.79z"/>
	</g>
	<g>
		<path fill="#FFFFFF" d="M82.129,292.79c-0.02-9.496,0.501-20.042-2.584-29.192c-1.448-4.295-4.544-7.124-7.648-10.244
			c-1.366-1.373-3.486,0.749-2.121,2.121c2.927,2.942,5.711,5.464,7.075,9.51c2.91,8.63,2.259,18.857,2.278,27.805
			C79.133,294.724,82.133,294.724,82.129,292.79L82.129,292.79z"/>
	</g>
	<g>
		<path fill="#FFFFFF" d="M88.086,292.79c-0.037-9.504,0.256-20.586-4.408-29.229c-2.631-4.876-7.686-7.442-12.085-10.441
			c-1.603-1.093-3.102,1.508-1.514,2.591c4.054,2.764,8.439,5.001,11.009,9.365c4.614,7.835,3.964,19.02,3.998,27.715
			C85.094,294.724,88.094,294.725,88.086,292.79L88.086,292.79z"/>
	</g>
	<g>
		<path fill="#FFFFFF" d="M110.398,292.79c0.042-7.713-0.653-18.977,4.436-25.553c1.432-1.85,3.908-2.559,4.127-5.153
			c0.163-1.929-2.838-1.913-3,0c-0.084,1.003-3.84,3.729-4.52,4.868c-4.347,7.281-3.998,17.747-4.042,25.838
			C107.388,294.725,110.388,294.724,110.398,292.79L110.398,292.79z"/>
	</g>
	<g>
		<path fill="#FFFFFF" d="M104.387,293.188c1.093-6.873,1.367-16.049,5.186-22.156c1.954-3.125,6.399-5.191,8.948-7.889
			c1.328-1.405-0.79-3.53-2.121-2.121c-2.805,2.968-6.699,4.942-9.181,8.156c-1.353,1.752-1.976,4.121-2.543,6.214
			c-1.505,5.549-2.28,11.331-3.181,16.998C101.193,294.283,104.084,295.095,104.387,293.188L104.387,293.188z"/>
	</g>
	<g>
		<path fill="#FFFFFF" d="M135.793,292.79c0.022-7.596-0.307-15.865,2.149-23.168c1.249-3.712,4.352-5.884,7.204-8.313
			c1.476-1.256-0.657-3.368-2.121-2.121c-2.96,2.52-5.959,4.772-7.511,8.467c-3.213,7.654-2.697,17.041-2.721,25.135
			C132.787,294.725,135.787,294.724,135.793,292.79L135.793,292.79z"/>
	</g>
	<g>
		<path fill="#FFFFFF" d="M129.835,292.79c0.04-7.537-0.21-16.394,3.811-23.098c2.419-4.034,7.304-5.902,11.196-8.148
			c1.675-0.966,0.165-3.559-1.514-2.591c-4.34,2.504-8.849,4.513-11.894,8.655c-4.957,6.743-4.558,17.329-4.599,25.182
			C126.825,294.725,129.825,294.724,129.835,292.79L129.835,292.79z"/>
	</g>
	<g>
		<path fill="#FFFFFF" d="M145.919,292.79c0.049-6.599-0.401-16.325,4.525-21.6c1.479-1.584,3.773-1.983,4.037-4.438
			c0.207-1.922-2.795-1.902-3,0c-0.014,0.132-3.935,3.174-4.574,4.094c-4.139,5.953-3.938,15.099-3.988,21.944
			C142.905,294.725,145.905,294.723,145.919,292.79L145.919,292.79z"/>
	</g>
	<g>
		<path fill="#FFFFFF" d="M139.908,293.188c1.042-5.548,1.42-14.122,5.206-18.738c2.219-2.706,6.288-4.275,8.929-6.639
			c1.445-1.292-0.685-3.407-2.121-2.121c-2.806,2.511-6.811,4.056-9.2,6.969c-4.108,5.01-4.575,13.709-5.706,19.731
			C136.66,294.281,139.551,295.088,139.908,293.188L139.908,293.188z"/>
	</g>
	<g>
		<path fill="#FFFFFF" d="M125.41,292.9c-0.04-5.097-0.108-10.867-2.662-15.453c-0.558-1.001-1.361-1.87-2.276-2.551
			c-0.647-0.48-1.229-1.218-1.152-0.518c-0.21-1.901-3.212-1.921-3,0c0.199,1.805,1.552,2.173,2.756,3.229
			c3.762,3.3,3.3,10.904,3.334,15.292C122.425,294.833,125.425,294.835,125.41,292.9L125.41,292.9z"/>
	</g>
	<g>
		<path fill="#FFFFFF" d="M129.594,292.501c-0.823-4.38-1.216-10.154-3.93-13.916c-1.64-2.273-4.714-3.417-6.784-5.267
			c-1.438-1.285-3.566,0.83-2.121,2.121c1.893,1.691,4.327,2.768,6.136,4.491c0.954,0.909,1.321,2.383,1.687,3.595
			c0.96,3.184,1.506,6.512,2.12,9.774C127.058,295.198,129.949,294.392,129.594,292.501L129.594,292.501z"/>
	</g>
	<g>
		<path fill="#FFFFFF" d="M168.269,292.9c0.047-7.559-0.078-16.375,4.069-23.036c2.11-3.39,5.992-5.196,8.972-7.693
			c1.485-1.244-0.649-3.354-2.121-2.121c-3.296,2.761-6.954,4.666-9.441,8.3c-4.63,6.764-4.43,16.777-4.479,24.55
			C165.257,294.835,168.257,294.834,168.269,292.9L168.269,292.9z"/>
	</g>
	<g>
		<path fill="#FFFFFF" d="M162.312,292.9c0.066-7.716,0.262-16.977,5.863-22.975c3.381-3.621,8.623-5.12,12.832-7.52
			c1.68-0.958,0.169-3.55-1.514-2.591c-4.771,2.721-10.11,4.424-13.947,8.532c-5.891,6.308-6.166,16.485-6.234,24.553
			C159.295,294.835,162.295,294.833,162.312,292.9L162.312,292.9z"/>
	</g>
	<g>
		<path fill="#FFFFFF" d="M176.074,292.652c0.033-4.581-0.399-11.54,2.875-15.322c1.091-1.261,2.609-1.587,2.801-3.473
			c0.196-1.924-2.806-1.905-3,0c0.056-0.554-2.553,2.1-2.977,2.768c-2.832,4.458-2.663,11.004-2.698,16.026
			C173.061,294.587,176.061,294.586,176.074,292.652L176.074,292.652z"/>
	</g>
	<g>
		<path fill="#FFFFFF" d="M172.072,293.051c0.718-4.16,0.955-9.753,3.371-13.4c1.249-1.884,4.229-3.138,5.868-4.733
			c1.388-1.351-0.735-3.471-2.121-2.121c-1.872,1.822-4.577,3.003-6.148,5.089c-2.841,3.773-3.097,9.935-3.862,14.367
			C168.853,294.145,171.743,294.954,172.072,293.051L172.072,293.051z"/>
	</g>
	<g>
		<path fill="#FFFFFF" d="M156.278,292.762c-0.023-6.192,1.276-16.397-4.54-20.456c-1.591-1.11-3.088,1.492-1.515,2.591
			c0.888,0.619,1.206,0.58,1.647,1.779c1.808,4.905,1.388,10.975,1.407,16.086C153.286,294.696,156.286,294.697,156.278,292.762
			L156.278,292.762z"/>
	</g>
	<g>
		<path fill="#FFFFFF" d="M162.258,292.363c-0.786-4.544-1.104-10.401-3.748-14.384c-1.517-2.285-4.518-3.544-6.468-5.438
			c-1.388-1.348-3.511,0.771-2.121,2.121c1.789,1.738,4.133,2.878,5.84,4.646c0.921,0.954,1.246,2.514,1.586,3.741
			c0.917,3.305,1.434,6.738,2.018,10.112C159.694,295.064,162.585,294.255,162.258,292.363L162.258,292.363z"/>
	</g>
</g>
<g>
	<path fill="#FFFFFF" d="M206.515,292.733c0.074-13.625,1.247-33.309,18.923-33.657c1.932-0.038,1.936-3.038,0-3
		c-19.637,0.387-21.839,21.122-21.923,36.657C203.505,294.668,206.505,294.667,206.515,292.733L206.515,292.733z"/>
</g>
<g>
	<path fill="#FFFFFF" d="M201.752,292.733c0.15-15.613,5.234-33.313,23.686-33.657c1.932-0.036,1.936-3.036,0-3
		c-20.205,0.378-26.519,19.271-26.686,36.657C198.733,294.669,201.733,294.667,201.752,292.733L201.752,292.733z"/>
</g>
<g>
	<path fill="#FFFFFF" d="M217.975,292.733c0.021-6.478-0.272-13.509,1.779-19.747c0.966-2.937,3.407-4.741,5.611-6.723
		c1.441-1.296-0.687-3.411-2.121-2.121c-2.473,2.224-4.952,4.24-6.16,7.454c-2.464,6.558-2.086,14.272-2.109,21.138
		C214.968,294.668,217.968,294.667,217.975,292.733L217.975,292.733z"/>
</g>
<g>
	<path fill="#FFFFFF" d="M213.211,292.733c0.039-6.41-0.226-13.947,3.155-19.669c1.873-3.168,5.683-4.732,8.694-6.566
		c1.649-1.005,0.143-3.6-1.514-2.591c-3.63,2.211-7.346,4.009-9.771,7.643c-3.885,5.821-3.525,14.567-3.565,21.183
		C210.2,294.668,213.2,294.667,213.211,292.733L213.211,292.733z"/>
</g>
<g>
	<path fill="#FFFFFF" d="M193.772,292.733c-0.045-8.288,0.015-17.745-3.785-25.366c-0.721-1.446-1.771-2.754-3.01-3.787
		c-0.385-0.32-1.722-1.007-1.768-1.552c-0.162-1.913-3.163-1.929-3,0c0.205,2.433,2.392,3.223,3.871,4.847
		c5.546,6.09,4.651,18.438,4.692,25.858C190.783,294.667,193.783,294.668,193.772,292.733L193.772,292.733z"/>
</g>
<g>
	<path fill="#FFFFFF" d="M199.676,292.334c-1.145-7.194-1.491-16.48-5.488-22.872c-2.166-3.463-6.623-5.538-9.417-8.495
		c-1.331-1.409-3.449,0.716-2.121,2.121c2.583,2.733,6.443,4.611,8.712,7.548c1.382,1.79,1.911,4.193,2.453,6.335
		c1.342,5.301,2.111,10.767,2.969,16.161C197.086,295.039,199.977,294.227,199.676,292.334L199.676,292.334z"/>
</g>
<g>
	<path fill="#FFFFFF" d="M240.605,292.733c-0.023-7.981,0.384-16.948-2.483-24.568c-1.5-3.986-4.617-6.368-7.749-9.034
		c-1.464-1.247-3.596,0.865-2.121,2.121c2.706,2.304,5.556,4.325,6.977,7.71c3.002,7.151,2.354,16.216,2.376,23.77
		C237.611,294.668,240.611,294.668,240.605,292.733L240.605,292.733z"/>
</g>
<g>
	<path fill="#FFFFFF" d="M246.563,292.733c-0.042-8.061,0.08-17.442-4.22-24.611c-2.734-4.559-7.868-6.683-12.272-9.225
		c-1.679-0.969-3.189,1.624-1.515,2.591c3.792,2.188,8.148,3.947,10.818,7.579c4.659,6.337,4.15,16.267,4.189,23.667
		C243.573,294.667,246.573,294.668,246.563,292.733L246.563,292.733z"/>
</g>
<g>
	<path fill="#FFFFFF" d="M253.896,292.733c0.049-6.599-0.401-16.324,4.525-21.6c1.479-1.584,3.773-1.982,4.037-4.438
		c0.207-1.923-2.795-1.902-3,0c-0.014,0.132-3.935,3.173-4.574,4.094c-4.139,5.952-3.938,15.098-3.988,21.943
		C250.882,294.669,253.882,294.667,253.896,292.733L253.896,292.733z"/>
</g>
<g>
	<path fill="#FFFFFF" d="M247.885,293.132c1.042-5.547,1.42-14.121,5.206-18.737c2.219-2.705,6.288-4.274,8.929-6.638
		c1.445-1.292-0.685-3.407-2.121-2.121c-2.806,2.511-6.811,4.056-9.2,6.969c-4.108,5.009-4.575,13.709-5.706,19.73
		C244.637,294.226,247.528,295.032,247.885,293.132L247.885,293.132z"/>
</g>
<g>
	<path fill="#FFFFFF" d="M233.387,292.845c-0.04-5.097-0.108-10.867-2.662-15.453c-0.558-1.001-1.361-1.87-2.276-2.551
		c-0.647-0.48-1.229-1.218-1.152-0.518c-0.21-1.901-3.212-1.922-3,0c0.199,1.805,1.552,2.173,2.756,3.229
		c3.762,3.3,3.3,10.904,3.334,15.293C230.402,294.778,233.402,294.78,233.387,292.845L233.387,292.845z"/>
</g>
<g>
	<path fill="#FFFFFF" d="M237.571,292.446c-0.823-4.381-1.216-10.155-3.93-13.917c-1.64-2.273-4.714-3.417-6.784-5.267
		c-1.438-1.285-3.566,0.83-2.121,2.121c1.893,1.691,4.327,2.767,6.136,4.49c0.954,0.909,1.321,2.383,1.687,3.595
		c0.96,3.185,1.506,6.513,2.12,9.774C235.035,295.144,237.926,294.337,237.571,292.446L237.571,292.446z"/>
</g>
<g>
	<path fill="#FFFFFF" d="M276.246,292.845c0.047-7.559-0.078-16.375,4.069-23.037c2.11-3.39,5.992-5.196,8.972-7.692
		c1.485-1.243-0.649-3.354-2.121-2.121c-3.296,2.761-6.954,4.666-9.441,8.3c-4.63,6.764-4.43,16.778-4.479,24.551
		C273.234,294.78,276.234,294.778,276.246,292.845L276.246,292.845z"/>
</g>
<g>
	<path fill="#FFFFFF" d="M270.289,292.845c0.066-7.716,0.262-16.978,5.863-22.976c3.381-3.621,8.623-5.119,12.832-7.52
		c1.68-0.958,0.169-3.55-1.514-2.59c-4.771,2.72-10.11,4.424-13.947,8.531c-5.891,6.309-6.166,16.485-6.234,24.554
		C267.272,294.78,270.272,294.778,270.289,292.845L270.289,292.845z"/>
</g>
<g>
	<path fill="#FFFFFF" d="M284.051,292.597c0.033-4.581-0.399-11.54,2.875-15.322c1.091-1.261,2.609-1.587,2.801-3.473
		c0.196-1.924-2.806-1.905-3,0c0.056-0.554-2.553,2.101-2.977,2.768c-2.832,4.458-2.663,11.006-2.698,16.027
		C281.038,294.532,284.038,294.53,284.051,292.597L284.051,292.597z"/>
</g>
<g>
	<path fill="#FFFFFF" d="M280.049,292.995c0.718-4.16,0.955-9.753,3.371-13.399c1.249-1.885,4.229-3.139,5.868-4.733
		c1.388-1.352-0.735-3.471-2.121-2.121c-1.872,1.821-4.577,3.003-6.148,5.089c-2.841,3.773-3.097,9.936-3.862,14.368
		C276.83,294.09,279.72,294.899,280.049,292.995L280.049,292.995z"/>
</g>
<g>
	<path fill="#FFFFFF" d="M264.255,292.706c-0.023-6.194,1.276-16.395-4.54-20.455c-1.591-1.111-3.088,1.491-1.515,2.59
		c0.888,0.62,1.206,0.581,1.647,1.779c1.808,4.905,1.388,10.975,1.407,16.086C261.263,294.641,264.263,294.641,264.255,292.706
		L264.255,292.706z"/>
</g>
<g>
	<path fill="#FFFFFF" d="M270.235,292.308c-0.786-4.545-1.104-10.401-3.748-14.384c-1.517-2.285-4.518-3.544-6.468-5.438
		c-1.388-1.348-3.511,0.771-2.121,2.121c1.789,1.738,4.133,2.878,5.84,4.646c0.921,0.954,1.246,2.515,1.586,3.741
		c0.917,3.305,1.434,6.737,2.018,10.111C267.671,295.009,270.562,294.199,270.235,292.308L270.235,292.308z"/>
</g>
<path fill="#FFFFFF" d="M186.798,225.159c0,1.196-0.969,2.166-2.166,2.166h-10.699c-1.196,0-2.166-0.97-2.166-2.166v-8.564
	c0-1.196,0.97-2.166,2.166-2.166h10.699c1.196,0,2.166,0.97,2.166,2.166V225.159z"/>
<g>
	<path fill="#FFFFFF" d="M192.18,136.857c2.588-3.537,5.175-7.073,7.763-10.61c1.129-1.543,0.264-3.899-1.255-4.789
		c-1.774-1.039-3.665-0.281-4.789,1.255c-2.588,3.537-5.175,7.073-7.763,10.61c-1.129,1.543-0.264,3.899,1.255,4.789
		C189.165,139.152,191.056,138.394,192.18,136.857L192.18,136.857z"/>
</g>
<g>
	<path fill="#FFFFFF" d="M219.104,128.638c2.468-1.783,4.936-3.566,7.403-5.35c1.543-1.115,2.29-3.022,1.255-4.789
		c-0.894-1.526-3.239-2.375-4.789-1.255c-2.468,1.783-4.936,3.566-7.403,5.35c-1.543,1.115-2.29,3.022-1.255,4.789
		C215.21,128.908,217.555,129.758,219.104,128.638L219.104,128.638z"/>
</g>
<g>
	<path fill="#FFFFFF" d="M191.565,166.37c3.093-6.483,6.185-12.966,9.277-19.449c1.933-4.052-4.101-7.606-6.044-3.533
		c-3.093,6.483-6.185,12.966-9.277,19.449C183.588,166.889,189.623,170.442,191.565,166.37L191.565,166.37z"/>
</g>
<g>
	<path fill="#FFFFFF" d="M181.472,161.944c1.893-5.359,3.786-10.719,5.679-16.078c1.507-4.268-5.257-6.087-6.75-1.861
		c-1.893,5.359-3.786,10.719-5.679,16.078C173.215,164.351,179.979,166.17,181.472,161.944L181.472,161.944z"/>
</g>
<g>
	<path fill="#FFFFFF" d="M235.586,119.08c2.529-0.773,5.059-1.546,7.588-2.319c4.304-1.315,2.467-8.073-1.861-6.75
		c-2.529,0.773-5.059,1.546-7.588,2.319C229.421,113.646,231.257,120.403,235.586,119.08L235.586,119.08z"/>
</g>
<g>
	<path fill="#FFFFFF" d="M150.55,174.749c-4-3.374-8-6.747-12-10.121c-3.427-2.89-8.405,2.036-4.95,4.95c4,3.374,8,6.747,12,10.121
		C149.027,182.589,154.005,177.664,150.55,174.749L150.55,174.749z"/>
</g>
<g>
	<path fill="#FFFFFF" d="M129.016,158.719c-2.487-0.893-4.975-1.787-7.461-2.68c-1.797-0.646-3.829,0.711-4.306,2.444
		c-0.535,1.946,0.651,3.662,2.444,4.306c2.487,0.893,4.975,1.787,7.461,2.68c1.797,0.646,3.829-0.711,4.306-2.444
		C131.995,161.079,130.809,159.363,129.016,158.719L129.016,158.719z"/>
</g>
<g>
	<path fill="#FFFFFF" d="M108.983,154.808c-2.394-0.105-4.787-0.211-7.181-0.317c-1.907-0.084-3.5,1.656-3.5,3.5
		c0,1.972,1.595,3.416,3.5,3.5c2.394,0.105,4.787,0.211,7.181,0.317c1.907,0.084,3.5-1.656,3.5-3.5
		C112.483,156.336,110.889,154.892,108.983,154.808L108.983,154.808z"/>
</g>
<g>
	<path fill="#FFFFFF" d="M91.8,154.96c-1.136,0.256-2.271,0.512-3.408,0.768c-1.861,0.419-2.932,2.533-2.444,4.306
		c0.523,1.902,2.446,2.863,4.306,2.444c1.136-0.256,2.271-0.512,3.408-0.768c1.861-0.419,2.932-2.533,2.444-4.306
		C95.583,155.502,93.66,154.542,91.8,154.96L91.8,154.96z"/>
</g>
<g>
	<path fill="#FFFFFF" d="M144.518,181.646c-5.666-2.202-11.331-4.404-16.996-6.606c-4.214-1.638-6.021,5.133-1.861,6.75
		c5.666,2.202,11.331,4.404,16.996,6.606C146.87,190.033,148.677,183.262,144.518,181.646L144.518,181.646z"/>
</g>
<g>
	<path fill="#FFFFFF" d="M116.673,172.265c-2.904-0.057-5.807-0.113-8.711-0.17c-4.517-0.088-4.508,6.912,0,7
		c2.904,0.057,5.807,0.113,8.711,0.17C121.189,179.353,121.181,172.353,116.673,172.265L116.673,172.265z"/>
</g>
<g>
	<path fill="#FFFFFF" d="M95.954,173.568c-1.973,0.836-3.946,1.673-5.919,2.509c-1.758,0.745-2.126,3.303-1.255,4.789
		c1.055,1.801,3.032,2,4.789,1.255c1.973-0.836,3.946-1.673,5.919-2.509c1.758-0.745,2.126-3.303,1.255-4.789
		C99.688,173.023,97.711,172.824,95.954,173.568L95.954,173.568z"/>
</g>
<g>
	<path fill="#FFFFFF" d="M205.661,139.758c2.011-1.745,4.022-3.489,6.034-5.233c1.442-1.251,1.276-3.673,0-4.95
		c-1.42-1.42-3.51-1.249-4.95,0c-2.011,1.745-4.022,3.489-6.034,5.233c-1.442,1.251-1.276,3.673,0,4.95
		C202.131,141.178,204.221,141.007,205.661,139.758L205.661,139.758z"/>
</g>
<g>
	<path fill="#FFFFFF" d="M252.268,115.666c1.231,0.031,2.463,0.062,3.694,0.093c1.908,0.048,3.5-1.628,3.5-3.5
		c0-1.944-1.593-3.452-3.5-3.5c-1.231-0.031-2.463-0.062-3.694-0.093c-1.908-0.048-3.5,1.628-3.5,3.5
		C248.768,114.11,250.361,115.617,252.268,115.666L252.268,115.666z"/>
</g>
<g>
	<path fill="#FFFFFF" d="M266.388,116.75c0.648,0.166,1.296,0.331,1.944,0.496c1.848,0.471,3.793-0.581,4.306-2.444
		c0.499-1.813-0.597-3.834-2.444-4.306c-0.648-0.166-1.296-0.331-1.944-0.496c-1.848-0.471-3.793,0.581-4.306,2.444
		C263.445,114.256,264.541,116.278,266.388,116.75L266.388,116.75z"/>
</g>
<g>
	<path fill="#FFFFFF" d="M206.066,119.799c2.053-1.531,4.105-3.063,6.158-4.594c1.526-1.138,2.301-3.003,1.255-4.789
		c-0.883-1.507-3.255-2.399-4.789-1.255c-2.053,1.531-4.105,3.063-6.158,4.594c-1.526,1.138-2.301,3.003-1.255,4.789
		C202.161,120.051,204.533,120.942,206.066,119.799L206.066,119.799z"/>
</g>
<g>
	<path fill="#FFFFFF" d="M221.018,110.669c1.214-0.413,2.429-0.825,3.643-1.237c1.805-0.613,2.973-2.384,2.444-4.306
		c-0.483-1.757-2.498-3.058-4.306-2.444c-1.214,0.413-2.429,0.825-3.643,1.237c-1.805,0.613-2.973,2.384-2.444,4.306
		C217.196,109.982,219.21,111.283,221.018,110.669L221.018,110.669z"/>
</g>
<g>
	<path fill="#FFFFFF" d="M235.456,106.5c0.7-0.125,1.4-0.25,2.101-0.375c1.88-0.335,2.915-2.596,2.444-4.306
		c-0.241-0.875-0.826-1.633-1.608-2.091c-0.868-0.509-1.737-0.524-2.697-0.353c-0.7,0.125-1.4,0.25-2.101,0.375
		c-1.88,0.335-2.915,2.596-2.444,4.306c0.241,0.875,0.826,1.633,1.608,2.091C233.627,106.656,234.496,106.671,235.456,106.5
		L235.456,106.5z"/>
</g>
<g>
	<path fill="#FFFFFF" d="M163.487,231.753c-0.919-0.159-0.832,0.888-0.832,0.021c0-0.555,0-1.109,0-1.664c0-1.838,0-3.677,0-5.515
		c0-5.515,0-11.029,0-16.544c0-5.339,0-10.679,0-16.019c0-1.619,0-3.239,0-4.858c0-0.396,0-0.791,0-1.186
		c0,0.802,2.011,0.472,2.766,0.472c0.28,0,0.234-0.98,0.234-0.146c0,0.555,0,1.109,0,1.664c0,1.838,0,3.677,0,5.515
		c0,5.845,0,11.69,0,17.535c0,5.237,0,10.475,0,15.712c0,1.502,0,3.005,0,4.508c0,0.312,0,0.623,0,0.935
		c0-1.019-2.395-0.555-3.099-0.555c-4.514,0-4.514,7,0,7c5.808,0,10.099-1.711,10.099-8.094c0-6.173,0-12.345,0-18.518
		c0-6.889,0-13.778,0-20.667c0-5.019,0.497-10.643-5.971-11.763c-5.69-0.985-11.029,1.315-11.029,7.589c0,5.972,0,11.943,0,17.915
		c0,7.217,0,14.433,0,21.65c0,5.019-0.497,10.643,5.971,11.763C166.04,239.268,167.928,232.522,163.487,231.753z"/>
</g>
<g>
	<path fill="#FFFFFF" d="M260.437,184.133c-3.763,12.947,9.432,17.006,17.844,22.698c1.749,1.183,0.89,1.88,1.736,0.308
		c0.345-0.641,0.475-0.419-0.052-0.203c-1.142,0.469-2.375,0.724-3.577,0.981c-5.759,1.23-11.771,1.336-17.605,2.061
		c-5.489,0.681-11.011,1.572-15.943,4.213c-2.53,1.355-4.288,3.731-6.679,5.283c-2.339,1.517-4.987,1.966-7.723,1.994
		c-6.242,0.063-12.551-2.21-18.594-3.52c-8.646-1.873-17.405-2.604-26.207-1.54c-6.318,0.764-6.393,10.773,0,10
		c8.866-1.072,17.361-0.217,26.033,1.731c6.792,1.525,13.672,3.627,20.707,3.269c6.733-0.342,11.977-3.623,16.753-8.127
		c3.501-3.301,11.429-3.317,15.888-3.786c7.793-0.818,26.488,0.049,26.756-11.53c0.135-5.835-5.82-9.621-10.257-12.064
		c-3.375-1.859-10.865-4.201-9.438-9.11C271.883,180.584,262.233,177.953,260.437,184.133L260.437,184.133z"/>
</g>
<g>
	<path fill="#FFFFFF" d="M151.934,188.151c1.717,1.141,3.434,2.281,5.15,3.421c1.591,1.057,3.867,0.319,4.789-1.255
		c1.006-1.717,0.331-3.735-1.255-4.789c-1.717-1.141-3.434-2.281-5.15-3.421c-1.591-1.057-3.867-0.319-4.789,1.255
		C149.672,185.08,150.348,187.098,151.934,188.151L151.934,188.151z"/>
</g>
<g>
	<path fill="#FFFFFF" d="M172.027,187.895c1.759-2.727,3.519-5.454,5.277-8.181c2.455-3.806-3.607-7.312-6.044-3.533
		c-1.759,2.727-3.519,5.454-5.277,8.181C163.528,188.167,169.59,191.673,172.027,187.895L172.027,187.895z"/>
</g>
<g>
	<path fill="#FFFFFF" d="M142.7,241.128c14.68,0,29.36,0,44.04,0c6.449,0,6.449-10,0-10c-14.68,0-29.36,0-44.04,0
		C136.251,231.128,136.251,241.128,142.7,241.128L142.7,241.128z"/>
</g>
<g>
	<path fill="#FFFFFF" d="M276.632,121.152c0.648,0.166,1.296,0.331,1.944,0.496c1.848,0.471,3.793-0.581,4.306-2.444
		c0.499-1.813-0.597-3.834-2.444-4.306c-0.648-0.166-1.296-0.331-1.944-0.496c-1.848-0.471-3.793,0.581-4.306,2.444
		C273.689,118.659,274.785,120.68,276.632,121.152L276.632,121.152z"/>
</g>
<g>
	<path fill="#FFFFFF" d="M248.131,105.537c0.664-0.08,1.329-0.159,1.993-0.238c0.967-0.116,1.759-0.309,2.475-1.025
		c0.653-0.654,1.025-1.551,1.025-2.475s-0.372-1.821-1.025-2.475c-0.59-0.589-1.608-1.128-2.475-1.025
		c-0.664,0.08-1.329,0.159-1.993,0.238c-0.967,0.116-1.759,0.309-2.475,1.025c-0.653,0.654-1.025,1.551-1.025,2.475
		s0.372,1.821,1.025,2.475C246.246,105.102,247.264,105.641,248.131,105.537L248.131,105.537z"/>
</g>
<g>
	<path fill="#FFFFFF" d="M261.273,105.95c0.664-0.079,1.328-0.159,1.992-0.238c0.967-0.115,1.759-0.309,2.475-1.025
		c0.653-0.654,1.025-1.551,1.025-2.475s-0.372-1.821-1.025-2.475c-0.59-0.589-1.608-1.128-2.475-1.025
		c-0.664,0.079-1.328,0.159-1.992,0.238c-0.967,0.115-1.759,0.309-2.475,1.025c-0.653,0.654-1.025,1.551-1.025,2.475
		s0.372,1.821,1.025,2.475C259.388,105.515,260.406,106.054,261.273,105.95L261.273,105.95z"/>
</g>
<g>
	<path fill="#FFFFFF" d="M77.447,159.655c-0.987,0.617-1.975,1.234-2.962,1.852c-1.614,1.009-2.241,3.105-1.255,4.789
		c0.942,1.608,3.169,2.268,4.789,1.255c0.987-0.617,1.975-1.234,2.962-1.852c1.614-1.009,2.241-3.105,1.255-4.789
		C81.293,159.302,79.066,158.642,77.447,159.655L77.447,159.655z"/>
</g>
<g>
	<path fill="#FFFFFF" d="M80.637,180.481c-1.371,0.972-2.743,1.944-4.114,2.916c-1.553,1.101-2.284,3.033-1.255,4.789
		c0.9,1.537,3.229,2.361,4.789,1.255c1.371-0.972,2.742-1.944,4.114-2.916c1.553-1.101,2.284-3.033,1.255-4.789
		C84.525,180.199,82.196,179.375,80.637,180.481L80.637,180.481z"/>
</g>
<g>
	<path fill="#FFFFFF" d="M69.396,193.157c-0.667,1.325-1.333,2.651-1.999,3.976c-0.857,1.705-0.466,3.78,1.255,4.789
		c1.567,0.918,3.933,0.448,4.789-1.255c0.667-1.326,1.333-2.651,1.999-3.976c0.857-1.705,0.466-3.78-1.255-4.789
		C72.618,190.984,70.252,191.454,69.396,193.157L69.396,193.157z"/>
</g>
</svg>
