<?xml version="1.0" encoding="iso-8859-1"?>
<!-- Generator: Adobe Illustrator 16.0.0, SVG Export Plug-In . SVG Version: 6.00 Build 0)  -->
<!DOCTYPE svg PUBLIC "-//W3C//DTD SVG 1.1 Tiny//EN" "http://www.w3.org/Graphics/SVG/1.1/DTD/svg11-tiny.dtd">
<svg version="1.1" baseProfile="tiny" id="sani_x5F_water_x5F_tap"
	 xmlns="http://www.w3.org/2000/svg" xmlns:xlink="http://www.w3.org/1999/xlink" x="0px" y="0px" width="361px" height="361px"
	 viewBox="0 0 361 361" xml:space="preserve">
<g>
	<g>
		<path fill="#FFFFFF" d="M139.595,114.922c1.535,11.694,16.755,9.071,25.261,9.071c15.403,0,30.807,0,46.209,0
			c11.97,0,23.94,0,35.911,0c5.5,0,10.365-1.476,12.604-7.018c0.999-2.472,0.272-6.358,0.272-8.943c0-4.885-3.979-7.953-8.36-8.997
			c-2.256-0.538-4.96-0.238-7.252-0.238c-4.752,0-9.504,0-14.256,0c-13.867,0-27.735,0-41.602,0c-11.209,0-22.418,0-33.627,0
			c-2.789,0-5.418-0.091-8.161,0.563C138.964,101.179,139.595,108.876,139.595,114.922c0,4.514,7,4.514,7,0
			c0-2.587-1.201-7.537,1.86-8.813c1.067-0.445,2.555-0.313,3.71-0.313c4.475,0,8.951,0,13.426,0c15.481,0,30.962,0,46.443,0
			c11.749,0,23.498,0,35.248,0c0.606,0,1.212,0,1.818,0c5.178,0,3.752,5.729,3.752,9.125c0,2.883-8.529,2.071-10.085,2.071
			c-18.452,0-36.903,0-55.354,0c-8.889,0-17.779,0-26.668,0c-1.833,0-13.708,1.302-14.15-2.071
			C146.016,110.513,139.008,110.457,139.595,114.922z"/>
	</g>
	<g>
		<path fill="#FFFFFF" d="M169.323,120.961c0,6.417,0,12.833,0,19.25c0,4.514,7,4.514,7,0c0-6.417,0-12.833,0-19.25
			C176.323,116.447,169.323,116.447,169.323,120.961L169.323,120.961z"/>
	</g>
	<g>
		<path fill="#FFFFFF" d="M154.489,121.711c0,6.444,0,12.889,0,19.333c0,4.514,7,4.514,7,0c0-6.444,0-12.889,0-19.333
			C161.489,117.197,154.489,117.197,154.489,121.711L154.489,121.711z"/>
	</g>
	<g>
		<path fill="#FFFFFF" d="M278.613,189.087c0,10.871,0,21.742,0,32.614c0,4.89,0,9.78,0,14.67c0,3.257-8.427,1.804-10.479,1.804
			c-6.519,0-13.037,0-19.556,0c-3.734,0-2.523-4.631-2.523-7.446c0-11.311,0-22.623,0-33.934c0-2.726-2.274-5-5-5
			c-13.182,0-26.363,0-39.544,0c-2.726,0-5,2.274-5,5c0,1.062,0.584,5.807-0.722,5.807c-2.07,0-4.141,0-6.21,0
			c-7.925,0-15.849,0-23.773,0s-15.849,0-23.773,0c-1.996,0-3.991,0-5.987,0c-1.752,0-0.947-4.459-0.947-5.807c0-2.726-2.274-5-5-5
			c-11.908,0-23.815,0-35.723,0c-5.041,0-10.082,0-15.122,0c-4.286,0-2.479-12.064-2.479-14.592c0-2.423-1.817-15.579,2.354-15.579
			c4.783,0,9.566,0,14.349,0c12.226,0,24.452,0,36.678,0c0-3.333,0-6.667,0-10c-0.019,0-0.038,0-0.057,0
			c1.667,1.667,3.333,3.333,5,5c0-0.629-0.15-8.913,0.224-8.913c1.624,0,3.249,0,4.873,0c8.537,0,17.074,0,25.611,0
			c8.342,0,16.684,0,25.025,0c1.798,0,3.596,0,5.394,0c0.484,0,0.286,8.207,0.286,8.913c0,2.709,2.274,5.021,5,5
			c18.969-0.149,37.944,0,56.914,0c4.456,0,8.911,0,13.366,0c2.112,0,6.546-0.831,6.822,2.253c0.754,8.416,0,17.21,0,25.666
			c0,6.449,10,6.449,10,0c0-4.77,0-9.541,0-14.311c0-4.9,0.682-10.429-0.632-15.215c-2.896-10.547-16.418-8.393-24.636-8.393
			c-20.609,0-41.226-0.162-61.834,0c1.667,1.667,3.333,3.333,5,5c0-4.965,0.539-10.012-2.207-14.419
			c-2.255-3.621-6.088-4.494-10-4.494c-9.5,0-19,0-28.499,0c-9.366,0-18.731,0-28.097,0c-3.716,0-6.919,0.53-9.622,3.482
			c-3.778,4.128-2.988,10.284-2.988,15.431c0,2.708,2.274,5.023,5,5c0.019,0,0.038,0,0.057,0c6.446-0.055,6.451-10,0-10
			c-12.226,0-24.452,0-36.678,0c-4.783,0-9.566,0-14.349,0c-8.766,0-12.354,7.456-12.354,15.05c0,7.078,0,14.155,0,21.233
			c0,7.508,4.602,13.889,12.651,13.889c13.242,0,26.483,0,39.725,0c3.649,0,7.299,0,10.948,0c-1.667-1.667-3.333-3.333-5-5
			c0,5.892,0.501,10.879,5.654,14.583c2.141,1.539,5.34,1.224,7.858,1.224c9.065,0,18.13,0,27.195,0s18.13,0,27.195,0
			c2.264,0,4.522,0.16,6.663-0.72c6.331-2.604,6.848-9.146,6.848-15.087c-1.667,1.667-3.333,3.333-5,5c13.182,0,26.363,0,39.544,0
			c-1.667-1.667-3.333-3.333-5-5c0,12.189,0,24.378,0,36.568c0,7.563,2.575,13.914,11.11,14.812c5.581,0.587,11.536,0,17.143,0
			c5.054,0,13.422,1.465,18.098-1.184c6.196-3.51,6.208-9.382,6.208-15.544c0-13.698,0-27.396,0-41.095c0-0.422,0-0.843,0-1.265
			C288.613,182.638,278.613,182.638,278.613,189.087L278.613,189.087z"/>
	</g>
</g>
</svg>
