<?xml version="1.0" encoding="iso-8859-1"?>
<!-- Generator: Adobe Illustrator 16.0.0, SVG Export Plug-In . SVG Version: 6.00 Build 0)  -->
<!DOCTYPE svg PUBLIC "-//W3C//DTD SVG 1.1 Tiny//EN" "http://www.w3.org/Graphics/SVG/1.1/DTD/svg11-tiny.dtd">
<svg version="1.1" baseProfile="tiny" id="scene_x5F_stove"
	 xmlns="http://www.w3.org/2000/svg" xmlns:xlink="http://www.w3.org/1999/xlink" x="0px" y="0px" width="361px" height="361px"
	 viewBox="0 0 361 361" xml:space="preserve">
<g>
	<path fill="#FFFFFF" d="M229.606,209.125c-0.478,2.961-6.077,1.696-8.178,1.696c-6.091,0-12.182,0-18.273,0
		c-15.987,0-31.974,0-47.961,0c-9.095,0-18.189,0-27.284,0c-1.732,0-0.817-26.673-0.817-28.699c0-15.408,0-30.816,0-46.225
		c0-3.636,0-7.272,0-10.908c0-1.799,5.531-1.01,6.492-1.01c28.298,0,56.596,0,84.895,0c2.861,0,11.001-1.779,11.001,2.246
		c0,8.817,0,17.635,0,26.453c0,19.126,0,38.251,0,57.377c0,4.514,7,4.514,7,0c0-24.95,0-49.9,0-74.851
		c0-7.657,1.602-18.226-9.273-18.226c-11.395,0-22.79,0-34.185,0c-15.703,0-31.406,0-47.109,0c-4.979,0-9.959,0-14.938,0
		c-4.022,0-9.715,0.373-10.54,5.487c-1.521,9.429-0.342,19.76-0.342,29.271c0,15.485,0,30.971,0,46.456
		c0,7.4-2.13,19.627,8.784,19.627c10.924,0,21.848,0,32.771,0c15.807,0,31.613,0,47.419,0c5.247,0,10.493,0,15.74,0
		c3.62,0,8.378,0.375,10.373-3.479c0.639-1.235,0.954-1.977,1.176-3.355C237.068,206.572,230.324,204.678,229.606,209.125z"/>
</g>
<path fill="none" stroke="#FFFFFF" stroke-width="10" stroke-miterlimit="10" d="M249.815,281.321c0,4.727-3.807,8.558-8.504,8.558
	H115.319c-4.697,0-8.504-3.831-8.504-8.558V106.103c0-4.727,3.807-8.558,8.504-8.558h125.992c4.697,0,8.504,3.831,8.504,8.558
	V281.321z"/>
<g>
	<path fill="#FFFFFF" d="M213.315,189.817c-0.22,9.557-4.266,18.828-12.978,23.47c-8.386,4.468-18.645,0.202-24.586-6.229
		c-7.159-7.749-6.807-18.934-0.818-27.063c4.849-6.582,7.624-12.74,10.05-20.54c0.448-1.439,0.902-2.875,1.381-4.304
		c0.239-0.707,0.502-1.405,0.79-2.094c0.787-1.864,0.578-0.088-0.736-1.137c3.059,2.442,4.473,7.862,5.331,11.43
		c0.676,2.81,1.352,9.766,6.025,7.045c3.038-1.769,4.653-6.231,6.257-9.159c0.45-0.696,0.147-0.495-0.908,0.603
		c0.705,0.735,1.385,1.492,2.042,2.271c1.883,2.162,3.164,4.822,4.368,7.397C212.195,177.203,213.206,183.584,213.315,189.817
		c0.034,1.932,3.034,1.936,3,0c-0.194-11.048-3.456-21.901-11.071-30.098c-3.679-3.96-5.732,3.813-7.44,6.339
		c-0.874,1.292-1.772,2.539-2.445,0.376c-0.869-2.792-1.088-5.689-2.096-8.479c-0.973-2.695-2.674-7.073-5.32-8.623
		c-3.898-2.284-7.214,13.645-7.824,15.446c-1.625,4.799-3.94,8.706-7.013,12.701c-2.824,3.671-5.343,7.658-5.685,12.414
		c-0.73,10.154,3.932,19.088,12.506,24.511c7.358,4.654,16.685,4.769,24.056,0.252c8.392-5.142,12.115-15.451,12.331-24.84
		C216.359,187.881,213.359,187.885,213.315,189.817z"/>
</g>
<g>
	<path fill="#FFFFFF" d="M202.61,200.184c-0.267,6.816-3.982,13.846-11.499,14.279c-6.664,0.384-11.969-5.709-12.645-11.865
		c-0.612-5.582,4.196-9.02,6.323-13.619c1.356-2.932,1.666-8.633,3.965-10.891c-0.606,0.078-1.212,0.156-1.817,0.235
		c3.775,1.652,1.343,11.368,6.103,11.368c1.269,0,2.319-1.211,2.965-2.157c0.565-0.827,1.065-1.678,1.545-2.557
		c0.175-0.321,1.24-1.725,0.479-1.213c-0.605-0.079-1.211-0.157-1.817-0.235C200.631,188.129,202.434,193.887,202.61,200.184
		c0.054,1.931,3.054,1.936,3,0c-0.199-7.088-2.316-13.612-7.277-18.776c-0.444-0.462-1.271-0.602-1.817-0.235
		c-0.83,0.558-3.329,4.919-3.338,4.888c-0.912-2.857-1.359-8.855-4.726-10.329c-0.632-0.277-1.294-0.279-1.817,0.235
		c-1.5,1.474-1.946,4.09-2.544,6.01c-1.207,3.875-2.562,7.252-5.042,10.496c-4.189,5.48-5.036,12.823-0.524,18.525
		c4.006,5.063,10.32,7.634,16.635,5.782c7.016-2.058,10.191-9.975,10.451-16.596C205.686,198.248,202.686,198.256,202.61,200.184z"
		/>
</g>
<g>
	<path fill="#FFFFFF" d="M172.233,206.771c-8.446,11.624-26.547,0.193-20.351-12.375c1.463-2.968,4.045-5.148,5.315-8.274
		c1.135-2.792,1.659-8.416,3.814-10.533c-0.606,0.078-1.212,0.156-1.817,0.235c4.18,1.827,1.503,9.931,5.366,12.078
		c2.812,1.563,3.632-0.846,5.931-1.296c1.897-0.371,1.092-3.262-0.798-2.893c-0.548,0.107-0.98,0.544-1.409,0.87
		c-2.461,1.872-3.032-2.009-3.355-3.686c-0.418-2.172-1.961-6.676-4.222-7.665c-0.632-0.276-1.293-0.28-1.817,0.235
		c-1.255,1.232-1.679,3.269-2.193,4.882c-1.065,3.343-1.994,6.672-3.92,9.644c-3.647,5.625-6.364,9.451-4.181,16.456
		c1.669,5.359,6.714,9.029,11.986,10.241c5.826,1.339,10.936-1.857,14.241-6.406C175.963,206.717,173.359,205.223,172.233,206.771
		L172.233,206.771z"/>
</g>
<g>
	<path fill="#FFFFFF" d="M173.529,177.885c-6.147,0.545-8.474-7.004-10.08-11.66c-0.495-1.436-1.59-6.811-4.243-5.257
		c-1.586,0.929-2.577,3.287-3.358,4.81c-0.71,1.384-1.21,2.875-1.686,4.35c-0.105,0.325-1.386,5.715-1.444,5.666
		c-2.125-1.799-2.584-6.517-5.177-7.544c-0.475-0.188-1.122,0.033-1.459,0.386c-8.726,9.108-12.288,23.584-7.798,35.546
		c1.781,4.745,5.215,8.679,9.596,11.169c5.278,3,10.617,1.773,15.888-0.439c1.756-0.737,0.985-3.641-0.798-2.893
		c-6.834,2.869-12.596,2.819-18.055-2.725c-5.942-6.035-6.23-15.375-4.723-23.156c0.77-3.975,2.414-7.704,4.462-11.172
		c0.519-0.686,1.038-1.371,1.557-2.057c1.429-0.824,1.371-1.58-0.174-2.268c0.366,0.494,0.615,1.121,0.898,1.663
		c1.079,2.068,2.643,5.833,5.139,6.585c2.55,0.77,3.609-1.653,4.124-3.706c0.892-3.561,1.492-6.713,3.368-9.969
		c0.176-0.272,0.352-0.544,0.527-0.817c1.081-0.899,0.781-1.24-0.901-1.022c0.43,0.62,0.623,1.481,0.868,2.185
		c2.178,6.259,5.123,16.064,13.47,15.324C175.44,180.716,175.457,177.714,173.529,177.885L173.529,177.885z"/>
</g>
<g>
	<path fill="#FFFFFF" d="M183.585,162.355c-3.251-4.816-4.974-10.216-6.677-15.726c-1.092-3.533-1.849-7.878-4.203-10.846
		c-1.604-2.022-3.575,0.816-4.417,1.986c-3.696,5.134-4.251,10.939-5.964,16.796c-0.831,2.838-4.593-4.464-5.204-5.612
		c-0.631-1.184-1.575-4.324-3.48-3.799c-1.853,0.51-3.744,3.752-4.865,5.178c-1.914,2.435-3.317,5.329-4.631,8.117
		c-2.82,5.985-3.967,12.458-4.079,19.033c-0.033,1.936,2.967,1.933,3,0c0.113-6.664,1.46-12.829,4.301-18.86
		c1.487-3.155,3.353-6.072,5.625-8.715c1.575-1.832,0.503-1.445,0.232-1.91c0.251,0.432,0.474,0.882,0.705,1.325
		c1.387,2.653,4.731,10.776,8.975,9.05c2.261-0.92,2.667-4.121,2.997-6.175c0.566-3.52,1.644-6.762,3.226-9.96
		c0.508-1.027,1.126-1.995,1.751-2.953c1.068-1.635-0.356-1.506,0.034-0.861c2.208,3.651,2.967,8.651,4.258,12.679
		c1.45,4.521,3.159,8.819,5.824,12.768C182.07,165.464,184.67,163.964,183.585,162.355L183.585,162.355z"/>
</g>
<g>
	<path fill="#FFFFFF" d="M221.481,260.716c-1.248-15.46-19.737-12.004-30.567-12.004c-13.932,0-27.864,0-41.796,0
		c-6.528,0-13.265,3.265-13.858,10.625c-0.516,6.394-0.111,12.941-0.111,19.354c0,7.424,3.547,14.688,12.087,14.688
		c4.129,0,8.259,0,12.389,0c15.962,0,31.925,0,47.887,0c7.333,0,13.97-4.15,13.97-12.251
		C221.481,274.324,221.481,267.52,221.481,260.716c0-4.514-7-4.514-7,0c0,6.212,0,12.424,0,18.637c0,3.33-0.828,7.026-5.087,7.026
		c-1.39,0-2.781,0-4.171,0c-14.645,0-29.29,0-43.935,0c-4.602,0-9.205,0-13.807,0c-7.513,0-5.333-12.039-5.333-16.828
		c0-5.223-1.61-13.838,5.989-13.838c5.255,0,10.51,0,15.766,0c10.479,0,20.959,0,31.438,0c4.952,0,18.541-2.417,19.14,5.004
		C214.842,265.183,221.845,265.218,221.481,260.716z"/>
</g>
<g>
	<path fill="#FFFFFF" d="M222.815,164.545c0,6.339,0,12.678,0,19.018c0,1.935,3,1.935,3,0c0-6.339,0-12.678,0-19.018
		C225.815,162.61,222.815,162.61,222.815,164.545L222.815,164.545z"/>
</g>
<g>
	<path fill="#FFFFFF" d="M225.315,166.045c1.167,0,2.333,0,3.5,0c1.935,0,1.935-3,0-3c-1.167,0-2.333,0-3.5,0
		C223.38,163.045,223.38,166.045,225.315,166.045L225.315,166.045z"/>
</g>
<path fill="#FFFFFF" d="M198.04,95.043c0,1.565-1.282,2.834-2.862,2.834h-34.392c-1.581,0-2.862-1.269-2.862-2.834V75.046
	c0-1.565,1.282-2.834,2.862-2.834h34.392c1.581,0,2.862,1.269,2.862,2.834V95.043z"/>
</svg>
