<?xml version="1.0" encoding="iso-8859-1"?>
<!-- Generator: Adobe Illustrator 16.0.0, SVG Export Plug-In . SVG Version: 6.00 Build 0)  -->
<!DOCTYPE svg PUBLIC "-//W3C//DTD SVG 1.1 Tiny//EN" "http://www.w3.org/Graphics/SVG/1.1/DTD/svg11-tiny.dtd">
<svg version="1.1" baseProfile="tiny" id="scene_x5F_robo_x5F_lawnmower"
	 xmlns="http://www.w3.org/2000/svg" xmlns:xlink="http://www.w3.org/1999/xlink" x="0px" y="0px" width="361px" height="361px"
	 viewBox="0 0 361 361" xml:space="preserve">
<g>
	<path fill="#FFFFFF" d="M268.747,202.648c0.41-0.398,0.819-0.796,1.229-1.194c1.926-0.255,3.852-0.51,5.778-0.765
		c2.492,0.928,3.123,2.235,1.801,0.896c-0.779-0.788-1.558-1.576-2.336-2.365c-1.237-1.252-2.475-2.505-3.712-3.758
		c0.742,1.795,1.484,3.591,2.226,5.387c0.994-8.38,2.593-23.765-7.515-27.16c-4.414-1.482-10.358-0.577-14.898-0.454
		c-5.87,0.159-11.745,0.471-17.618,0.391c-13.407-0.182-27.585,7.902-33.821,19.924c-4.331,8.35-6.871,17.924-8.801,27.097
		c2.43-1.84,4.859-3.681,7.289-5.521c-23.923,0-47.847,0-71.77,0c-11.841,0-23.683,0-35.524,0c-0.895,0-1.79,0-2.685,0
		c-2.376,0,4.259,6.92,4.259,3.998c0-1.536,0-3.071,0-4.606c0-3.753,0-7.507,0-11.26c0-1.08,0-2.16,0-3.24
		c0-0.963-0.503,2.578,0.086,0.08c0.273-1.16,0.659-2.29,1.051-3.414c5.255-15.064,20.234-25.453,35.077-29.422
		c13.053-3.49,26.37-6.084,39.606-8.766c30.711-6.222,61.531-11.915,92.367-17.481c3.361-0.607,6.724-1.212,10.086-1.81
		c-1.307-0.003-2.614-0.006-3.921-0.01c-2.492-0.503-2.634-6.26-2.483-3.632c0.043,0.761,0.087,1.522,0.131,2.283
		c0.148,2.587,0.297,5.173,0.446,7.76c0.452,7.879,0.905,15.757,1.357,23.636c0.676,11.777,1.353,23.554,2.029,35.331
		c0.552,9.624,15.558,9.763,15.003,0.108c-1.324-23.069-2.649-46.139-3.974-69.208c-0.42-7.327-6.001-11.911-13.237-10.621
		c-3.107,0.554-6.213,1.113-9.319,1.673c-13.617,2.457-27.226,4.958-40.827,7.504c-30.411,5.692-61.21,10.838-91.146,18.744
		c-17.535,4.631-32.927,15.819-41.943,31.682c-3.721,6.546-5.391,12.958-5.391,20.365c0,6.403-1.956,17.264,3.104,22.261
		c4.85,4.789,15.166,3.048,21.323,3.048c12.706,0,25.412,0,38.119,0c19.356,0,38.712,0,58.068,0c3.211,0,6.6-2.244,7.289-5.521
		c1.901-9.035,4.13-19.049,9.23-26.856c2.422-3.708,9.454-7.704,14.452-8.845c5.984-1.366,13.415-0.406,19.555-0.597
		c3.037-0.095,6.074-0.176,9.112-0.202c1.178-0.01,2.354,0.007,3.531,0.041c0.453,0.016,0.904,0.041,1.355,0.076
		c-0.999-0.067-2.508-0.004-3.831-2.243c1.128,1.91,0.242,10.007-0.105,13.631c-0.492,5.145,3.839,8.268,7.105,11.574
		c2.154,2.181,4.468,4.214,7.764,4.236c4.86,0.032,8.685-4.329,9.497-8.816C284.93,197.147,270.469,193.135,268.747,202.648z"/>
</g>
<g>
	<path fill="#FFFFFF" d="M273.563,163.241c0.201,6.18,0.401,12.359,0.602,18.538c0.313,9.659,15.317,9.774,15.003,0.108
		c-0.2-6.18-0.401-12.359-0.602-18.538C288.253,153.69,273.25,153.575,273.563,163.241L273.563,163.241z"/>
</g>
<g>
	<path fill="#FFFFFF" d="M270.546,206.672l-1.838-0.46c-0.443-2.883-1.219-5.642-2.287-8.241l1.435-1.389
		c-1.16-2.705-2.632-5.244-4.376-7.567l-1.948,0.557c-1.75-2.232-3.763-4.242-5.993-5.993l0.557-1.949
		c-2.324-1.744-4.863-3.216-7.568-4.375l-1.382,1.428c-2.602-1.071-5.364-1.847-8.25-2.291l-0.457-1.828
		c-1.436-0.17-2.893-0.268-4.373-0.268c-1.481,0-2.938,0.098-4.374,0.268l-0.413,1.653c-2.972,0.374-5.813,1.148-8.484,2.27
		l-1.191-1.23c-2.705,1.159-5.244,2.631-7.568,4.374l0.518,1.812c-2.214,1.795-4.211,3.857-5.95,6.132l-1.952-0.558
		c-1.744,2.324-3.216,4.863-4.375,7.568l1.473,1.425c-1.078,2.617-1.863,5.369-2.315,8.201l-1.849,0.463
		c-0.17,1.435-0.268,2.893-0.268,4.373s0.098,2.938,0.268,4.373l1.656,0.415c0.374,2.97,1.147,5.811,2.269,8.48l-1.233,1.193
		c1.159,2.705,2.632,5.244,4.375,7.568l1.813-0.518c1.795,2.214,3.856,4.211,6.13,5.951l-0.558,1.951
		c2.324,1.744,4.863,3.216,7.568,4.376l1.425-1.473c2.617,1.079,5.369,1.865,8.202,2.317l0.462,1.846
		c1.436,0.17,2.893,0.269,4.374,0.269c1.48,0,2.938-0.099,4.373-0.269l0.413-1.651c2.972-0.373,5.816-1.146,8.487-2.268l1.188,1.229
		c2.704-1.16,5.243-2.632,7.568-4.375l-0.518-1.811c2.215-1.795,4.213-3.857,5.952-6.132l1.95,0.557
		c1.744-2.324,3.216-4.863,4.375-7.568l-1.477-1.429c1.077-2.615,1.86-5.365,2.313-8.195l1.855-0.465
		c0.171-1.436,0.269-2.893,0.269-4.373S270.717,208.106,270.546,206.672z M234.065,228.087c-9.412,0-17.042-7.63-17.042-17.042
		s7.63-17.042,17.042-17.042c9.411,0,17.041,7.63,17.041,17.042S243.476,228.087,234.065,228.087z"/>
	<circle fill="#FFFFFF" cx="234.065" cy="211.045" r="14.333"/>
</g>
<path fill="#FFFFFF" d="M190.606,233.335c0.151-0.495,1.458-0.374,0.293-0.374c-0.58,0-1.16,0-1.74,0c-2.335,0-4.67,0-7.005,0
	c-7.196,0-14.392,0-21.588,0c-13.68,0-27.36,0-41.041,0c-0.907,0-1.814,0-2.722,0c1.154,0,1.01,2.125,1.01,0.472
	c0-0.702,0-1.404,0-2.106c0-2.188,0-4.376,0-6.564c0-0.702,0-1.404,0-2.106c0-1.653,0.145,0.472-1.01,0.472c0.269,0,0.538,0,0.807,0
	c1.79,0,3.579,0,5.369,0c14.768,0,29.536,0,44.303,0c7.162,0,14.324,0,21.486,0c0.71,0,1.42,0,2.13,0
	c1.405,0-0.418-2.042-0.418-0.472c0,3.87,0,7.74,0,11.61c0,4.514,7,4.514,7,0c0-4.736,1.991-14.461-2.958-17.36
	c-2.69-1.576-7.496-0.778-10.408-0.778c-14.985,0-29.97,0-44.955,0c-6.101,0-12.202,0-18.303,0c-4.08,0-10.042-0.094-10.042,5.695
	c0,4.736-1.991,14.461,2.958,17.36c2.69,1.576,7.496,0.778,10.409,0.778c14.678,0,29.355,0,44.033,0c6.243,0,12.486,0,18.73,0
	c4.34,0,8.833,0.416,10.412-4.765C198.675,230.867,191.918,229.03,190.606,233.335z"/>
<g>
	<path fill="#FFFFFF" d="M154.148,219.628c0.259-12.744,11.173-21.492,21.479-27.069c15.228-8.241,33.288-10.991,50.396-11.098
		c4.513-0.028,4.515-7.028,0-7c-19.369,0.12-39.182,3.7-56.201,13.31c-11.767,6.644-22.385,17.639-22.673,31.857
		C147.057,224.145,154.057,224.136,154.148,219.628L154.148,219.628z"/>
</g>
<circle fill="#FFFFFF" cx="102.375" cy="234.526" r="12.436"/>
<g>
	<g>
		<path fill="#FFFFFF" d="M96.461,292.79c-0.069-19.183-1.412-50.086-27.042-50.506c-1.936-0.032-1.933,2.968,0,3
			c23.526,0.386,23.979,30.271,24.042,47.506C93.468,294.724,96.468,294.725,96.461,292.79L96.461,292.79z"/>
	</g>
	<g>
		<path fill="#FFFFFF" d="M102.418,292.79c-0.137-21.652-6.396-50.099-33-50.506c-1.936-0.03-1.933,2.97,0,3
			c24.768,0.379,29.874,27.678,30,47.506C99.431,294.724,102.431,294.725,102.418,292.79L102.418,292.79z"/>
	</g>
	<g>
		<path fill="#FFFFFF" d="M82.129,292.79c-0.02-9.496,0.501-20.042-2.584-29.192c-1.448-4.295-4.544-7.124-7.648-10.244
			c-1.366-1.373-3.486,0.749-2.121,2.121c2.927,2.942,5.711,5.464,7.075,9.51c2.91,8.63,2.259,18.857,2.278,27.805
			C79.133,294.724,82.133,294.724,82.129,292.79L82.129,292.79z"/>
	</g>
	<g>
		<path fill="#FFFFFF" d="M88.086,292.79c-0.037-9.504,0.256-20.586-4.408-29.229c-2.631-4.876-7.686-7.442-12.085-10.441
			c-1.603-1.093-3.102,1.508-1.514,2.591c4.054,2.764,8.439,5.001,11.009,9.365c4.614,7.835,3.964,19.02,3.998,27.715
			C85.094,294.724,88.094,294.725,88.086,292.79L88.086,292.79z"/>
	</g>
	<g>
		<path fill="#FFFFFF" d="M110.398,292.79c0.042-7.713-0.653-18.977,4.436-25.553c1.432-1.85,3.908-2.559,4.127-5.153
			c0.163-1.929-2.838-1.913-3,0c-0.084,1.003-3.84,3.729-4.52,4.868c-4.347,7.281-3.998,17.747-4.042,25.838
			C107.388,294.725,110.388,294.724,110.398,292.79L110.398,292.79z"/>
	</g>
	<g>
		<path fill="#FFFFFF" d="M104.387,293.188c1.093-6.873,1.367-16.049,5.186-22.156c1.954-3.125,6.399-5.191,8.948-7.889
			c1.328-1.405-0.79-3.53-2.121-2.121c-2.805,2.968-6.699,4.942-9.181,8.156c-1.353,1.752-1.976,4.121-2.543,6.214
			c-1.505,5.549-2.28,11.331-3.181,16.998C101.193,294.283,104.084,295.095,104.387,293.188L104.387,293.188z"/>
	</g>
	<g>
		<path fill="#FFFFFF" d="M135.793,292.79c0.022-7.596-0.307-15.865,2.149-23.168c1.249-3.712,4.352-5.884,7.204-8.313
			c1.476-1.256-0.657-3.368-2.121-2.121c-2.96,2.52-5.959,4.772-7.511,8.467c-3.213,7.654-2.697,17.041-2.721,25.135
			C132.787,294.725,135.787,294.724,135.793,292.79L135.793,292.79z"/>
	</g>
	<g>
		<path fill="#FFFFFF" d="M129.835,292.79c0.04-7.537-0.21-16.394,3.811-23.098c2.419-4.034,7.304-5.902,11.196-8.148
			c1.675-0.966,0.165-3.559-1.514-2.591c-4.34,2.504-8.849,4.513-11.894,8.655c-4.957,6.743-4.558,17.329-4.599,25.182
			C126.825,294.725,129.825,294.724,129.835,292.79L129.835,292.79z"/>
	</g>
	<g>
		<path fill="#FFFFFF" d="M145.919,292.79c0.049-6.599-0.401-16.325,4.525-21.6c1.479-1.584,3.773-1.983,4.037-4.438
			c0.207-1.922-2.795-1.902-3,0c-0.014,0.132-3.935,3.174-4.574,4.094c-4.139,5.953-3.938,15.099-3.988,21.944
			C142.905,294.725,145.905,294.723,145.919,292.79L145.919,292.79z"/>
	</g>
	<g>
		<path fill="#FFFFFF" d="M139.908,293.188c1.042-5.548,1.42-14.122,5.206-18.738c2.219-2.706,6.288-4.275,8.929-6.639
			c1.445-1.292-0.685-3.407-2.121-2.121c-2.806,2.511-6.811,4.056-9.2,6.969c-4.108,5.01-4.575,13.709-5.706,19.731
			C136.66,294.281,139.551,295.088,139.908,293.188L139.908,293.188z"/>
	</g>
	<g>
		<path fill="#FFFFFF" d="M125.41,292.9c-0.04-5.097-0.108-10.867-2.662-15.453c-0.558-1.001-1.361-1.87-2.276-2.551
			c-0.647-0.48-1.229-1.218-1.152-0.518c-0.21-1.901-3.212-1.921-3,0c0.199,1.805,1.552,2.173,2.756,3.229
			c3.762,3.3,3.3,10.904,3.334,15.292C122.425,294.833,125.425,294.835,125.41,292.9L125.41,292.9z"/>
	</g>
	<g>
		<path fill="#FFFFFF" d="M129.594,292.501c-0.823-4.38-1.216-10.154-3.93-13.916c-1.64-2.273-4.714-3.417-6.784-5.267
			c-1.438-1.285-3.566,0.83-2.121,2.121c1.893,1.691,4.327,2.768,6.136,4.491c0.954,0.909,1.321,2.383,1.687,3.595
			c0.96,3.184,1.506,6.512,2.12,9.774C127.058,295.198,129.949,294.392,129.594,292.501L129.594,292.501z"/>
	</g>
	<g>
		<path fill="#FFFFFF" d="M168.269,292.9c0.047-7.559-0.078-16.375,4.069-23.036c2.11-3.39,5.992-5.196,8.972-7.693
			c1.485-1.244-0.649-3.354-2.121-2.121c-3.296,2.761-6.954,4.666-9.441,8.3c-4.63,6.764-4.43,16.777-4.479,24.55
			C165.257,294.835,168.257,294.834,168.269,292.9L168.269,292.9z"/>
	</g>
	<g>
		<path fill="#FFFFFF" d="M162.312,292.9c0.066-7.716,0.262-16.977,5.863-22.975c3.381-3.621,8.623-5.12,12.832-7.52
			c1.68-0.958,0.169-3.55-1.514-2.591c-4.771,2.721-10.11,4.424-13.947,8.532c-5.891,6.308-6.166,16.485-6.234,24.553
			C159.295,294.835,162.295,294.833,162.312,292.9L162.312,292.9z"/>
	</g>
	<g>
		<path fill="#FFFFFF" d="M176.074,292.652c0.033-4.581-0.399-11.54,2.875-15.322c1.091-1.261,2.609-1.587,2.801-3.473
			c0.196-1.924-2.806-1.905-3,0c0.056-0.554-2.553,2.1-2.977,2.768c-2.832,4.458-2.663,11.004-2.698,16.026
			C173.061,294.587,176.061,294.586,176.074,292.652L176.074,292.652z"/>
	</g>
	<g>
		<path fill="#FFFFFF" d="M172.072,293.051c0.718-4.16,0.955-9.753,3.371-13.4c1.249-1.884,4.229-3.138,5.868-4.733
			c1.388-1.351-0.735-3.471-2.121-2.121c-1.872,1.822-4.577,3.003-6.148,5.089c-2.841,3.773-3.097,9.935-3.862,14.367
			C168.853,294.145,171.743,294.954,172.072,293.051L172.072,293.051z"/>
	</g>
	<g>
		<path fill="#FFFFFF" d="M156.278,292.762c-0.023-6.192,1.276-16.397-4.54-20.456c-1.591-1.11-3.088,1.492-1.515,2.591
			c0.888,0.619,1.206,0.58,1.647,1.779c1.808,4.905,1.388,10.975,1.407,16.086C153.286,294.696,156.286,294.697,156.278,292.762
			L156.278,292.762z"/>
	</g>
	<g>
		<path fill="#FFFFFF" d="M162.258,292.363c-0.786-4.544-1.104-10.401-3.748-14.384c-1.517-2.285-4.518-3.544-6.468-5.438
			c-1.388-1.348-3.511,0.771-2.121,2.121c1.789,1.738,4.133,2.878,5.84,4.646c0.921,0.954,1.246,2.514,1.586,3.741
			c0.917,3.305,1.434,6.738,2.018,10.112C159.694,295.064,162.585,294.255,162.258,292.363L162.258,292.363z"/>
	</g>
</g>
</svg>
