<?xml version="1.0" encoding="iso-8859-1"?>
<!-- Generator: Adobe Illustrator 16.0.0, SVG Export Plug-In . SVG Version: 6.00 Build 0)  -->
<!DOCTYPE svg PUBLIC "-//W3C//DTD SVG 1.1//EN" "http://www.w3.org/Graphics/SVG/1.1/DTD/svg11.dtd">
<svg version="1.1" xmlns="http://www.w3.org/2000/svg" xmlns:xlink="http://www.w3.org/1999/xlink" x="0px" y="0px" width="361px"
	 height="361px" viewBox="0 0 361 361" style="enable-background:new 0 0 361 361;" xml:space="preserve">
<g id="scene_x5F_stairs">
	<g>
		<g>
			<g>
				<path style="fill:#FFFFFF;" d="M77.112,291.169c13.25,0,26.499,0,39.748,0c9.687,0,9.772-15.004,0.108-15.004
					c-13.25,0-26.499,0-39.748,0C67.534,276.165,67.449,291.169,77.112,291.169L77.112,291.169z"/>
			</g>
		</g>
		<g>
			<g>
				<path style="fill:#FFFFFF;" d="M110.763,269.169c13.249,0,26.498,0,39.747,0c9.687,0,9.772-15.004,0.108-15.004
					c-13.249,0-26.498,0-39.747,0C101.185,254.165,101.1,269.169,110.763,269.169L110.763,269.169z"/>
			</g>
		</g>
		<g>
			<g>
				<path style="fill:#FFFFFF;" d="M144.413,247.169c13.25,0,26.499,0,39.748,0c9.686,0,9.771-15.004,0.107-15.004
					c-13.249,0-26.498,0-39.747,0C134.835,232.165,134.75,247.169,144.413,247.169L144.413,247.169z"/>
			</g>
		</g>
		<g>
			<g>
				<path style="fill:#FFFFFF;" d="M178.064,225.169c13.25,0,26.499,0,39.748,0c9.686,0,9.771-15.004,0.107-15.004
					c-13.249,0-26.498,0-39.747,0C168.486,210.165,168.4,225.169,178.064,225.169L178.064,225.169z"/>
			</g>
		</g>
		<g>
			<g>
				<path style="fill:#FFFFFF;" d="M211.715,203.169c13.249,0,26.498,0,39.747,0c9.686,0,9.771-15.004,0.107-15.004
					c-13.249,0-26.498,0-39.747,0C202.137,188.165,202.051,203.169,211.715,203.169L211.715,203.169z"/>
			</g>
		</g>
		<g>
			<g>
				<path style="fill:#FFFFFF;" d="M245.365,181.169c13.249,0,26.498,0,39.747,0c9.686,0,9.771-15.003,0.107-15.003
					c-13.249,0-26.498,0-39.747,0C235.787,166.166,235.701,181.169,245.365,181.169L245.365,181.169z"/>
			</g>
		</g>
	</g>
</g>
<g id="Ebene_1">
</g>
</svg>
