<?xml version="1.0" encoding="iso-8859-1"?>
<!-- Generator: Adobe Illustrator 16.0.0, SVG Export Plug-In . SVG Version: 6.00 Build 0)  -->
<!DOCTYPE svg PUBLIC "-//W3C//DTD SVG 1.1//EN" "http://www.w3.org/Graphics/SVG/1.1/DTD/svg11.dtd">
<svg version="1.1" xmlns="http://www.w3.org/2000/svg" xmlns:xlink="http://www.w3.org/1999/xlink" x="0px" y="0px" width="361px"
	 height="361px" viewBox="0 0 361 361" style="enable-background:new 0 0 361 361;" xml:space="preserve">
<g id="scene_x5F_livingroom">
	<g>
		<g>
			<g>
				<path style="fill:#FFFFFF;" d="M259.145,175.958c4.106,0,8.213,0,12.319,0c4.514,0,4.514-7,0-7c-4.106,0-8.213,0-12.319,0
					C254.631,168.958,254.631,175.958,259.145,175.958L259.145,175.958z"/>
			</g>
		</g>
		<g>
			<g>
				<g>
					<path style="fill:#FFFFFF;" d="M253.53,99.774c2.44,8.646,4.881,17.291,7.321,25.937c1.225,4.337,7.979,2.492,6.75-1.861
						c-2.44-8.646-4.881-17.291-7.321-25.937C259.056,93.576,252.302,95.421,253.53,99.774L253.53,99.774z"/>
				</g>
			</g>
			<g>
				<g>
					<path style="fill:#FFFFFF;" d="M261.441,88.298c0,28.083,0,56.167,0,84.25c0,4.514,7,4.514,7,0c0-28.083,0-56.167,0-84.25
						C268.441,83.784,261.441,83.784,261.441,88.298L261.441,88.298z"/>
				</g>
			</g>
			<g>
				<g>
					<path style="fill:#FFFFFF;" d="M287.074,70.237c-7.846,4.892-15.69,9.784-23.536,14.677c1.178,0,2.355,0,3.533,0
						c-7.846-4.893-15.691-9.785-23.537-14.677c-0.589,2.174-1.178,4.348-1.767,6.522c15.691,0,31.382,0,47.073,0
						c4.514,0,4.514-7,0-7c-15.691,0-31.382,0-47.073,0c-3.553,0-4.685,4.703-1.767,6.522c7.846,4.893,15.691,9.785,23.537,14.677
						c1.031,0.643,2.502,0.643,3.533,0c7.846-4.892,15.69-9.784,23.536-14.677C294.428,73.898,290.916,67.841,287.074,70.237z"/>
				</g>
			</g>
			<g>
				<g>
					<path style="fill:#FFFFFF;" d="M248.629,112.248c3.592-3.533,7.184-7.066,10.774-10.6c3.222-3.17-1.73-8.117-4.949-4.95
						c-3.592,3.533-7.184,7.066-10.774,10.6C240.458,110.468,245.41,115.415,248.629,112.248L248.629,112.248z"/>
				</g>
			</g>
		</g>
		<g>
			<g>
				<path style="fill:#FFFFFF;" d="M243.8,113.567c2.49-1.414,4.98-2.829,7.471-4.243c-1.597-1.596-3.192-3.192-4.789-4.789
					c-1.125,2.633-2.251,5.266-3.377,7.899c1.833-0.236,3.665-0.472,5.497-0.708c-1.364-1.218-2.729-2.437-4.094-3.656
					c-3.354-2.996-8.323,1.938-4.949,4.95c1.364,1.218,2.729,2.437,4.094,3.656c1.503,1.342,4.558,1.489,5.497-0.708
					c1.125-2.633,2.251-5.266,3.377-7.899c0.629-1.472,0.668-3.025-0.548-4.242c-1.122-1.122-2.87-1.326-4.241-0.547
					c-2.49,1.414-4.98,2.829-7.471,4.243C236.343,109.752,239.869,115.8,243.8,113.567z"/>
			</g>
		</g>
	</g>
	<g>
		<g>
			<path style="fill:none;stroke:#FFFFFF;stroke-width:10;stroke-miterlimit:10;" d="M281.712,222.723h-19.06
				c-2.914,0-5.275,3.033-5.275,6.775v10.057l-139.515,0.179v-10.235c0-3.742-2.363-6.775-5.278-6.775H93.526
				c-2.914,0-5.277,3.033-5.277,6.775v17.691c0,3.742,2.363,6.775,5.277,6.775h9.372v15.574c0,6.598,4.165,11.945,9.304,11.945
				H262.72c5.14,0,9.304-5.348,9.304-11.945v-15.574h9.688c2.915,0,5.277-3.033,5.277-6.775v-17.691
				C286.989,225.756,284.627,222.723,281.712,222.723z"/>
			<path style="fill:none;stroke:#FFFFFF;stroke-width:10;stroke-miterlimit:10;" d="M259.564,213.561
				c0-0.158-0.004-14.572-0.01-14.729c-0.209-5.018-3.723-9.013-8.026-9.013h-128.82c-4.438,0-8.036,4.248-8.036,9.486v14.256"/>
		</g>
		<g>
			<g>
				<path style="fill:#FFFFFF;" d="M113.705,283.249c0,1.14,0,2.278,0,3.418c0,2.726,2.274,5,5,5s5-2.274,5-5
					c0-1.14,0-2.278,0-3.418c0-2.726-2.274-5-5-5S113.705,280.523,113.705,283.249L113.705,283.249z"/>
			</g>
		</g>
		<g>
			<g>
				<path style="fill:#FFFFFF;" d="M251.31,283.249c0,1.14,0,2.278,0,3.418c0,2.726,2.274,5,5,5s5-2.274,5-5c0-1.14,0-2.278,0-3.418
					c0-2.726-2.274-5-5-5S251.31,280.523,251.31,283.249L251.31,283.249z"/>
			</g>
		</g>
	</g>
	<g>
		<path style="fill:#FFFFFF;" d="M156.562,123.906H81.297c-2.461,0-4.464-2.002-4.464-4.464V74.073c0-2.461,2.003-4.465,4.464-4.465
			h75.265c2.461,0,4.464,2.003,4.464,4.465v45.369C161.026,121.904,159.023,123.906,156.562,123.906z M81.297,73.405
			c-0.368,0-0.667,0.299-0.667,0.668v45.369c0,0.368,0.3,0.668,0.667,0.668h75.265c0.368,0,0.667-0.3,0.667-0.668V74.073
			c0-0.369-0.299-0.668-0.667-0.668H81.297z"/>
		<g>
			<path style="fill:#FFFFFF;" d="M158.748,119.383c0,0.68-1.042,1.231-2.327,1.231H81.157c-1.285,0-2.328-0.551-2.328-1.231v-1.334
				c0-0.68,1.042-1.232,2.328-1.232h75.263c1.285,0,2.327,0.552,2.327,1.232V119.383z"/>
			<path style="fill:#FFFFFF;" d="M156.42,122.512H81.157c-2.449,0-4.226-1.315-4.226-3.129v-1.334c0-1.813,1.777-3.13,4.226-3.13
				h75.263c2.448,0,4.226,1.316,4.226,3.13v1.334C160.646,121.197,158.869,122.512,156.42,122.512z M81.157,118.716h75.263H81.157z"
				/>
		</g>
		<g>
			<path style="fill:#FFFFFF;" d="M120.972,128.967c0,1.257-1.02,2.278-2.278,2.278h-0.19c-1.258,0-2.278-1.021-2.278-2.278v-7.214
				c0-1.258,1.021-2.278,2.278-2.278h0.19c1.258,0,2.278,1.021,2.278,2.278V128.967z"/>
			<path style="fill:#FFFFFF;" d="M118.694,133.144h-0.19c-2.303,0-4.176-1.874-4.176-4.176v-7.214c0-2.303,1.874-4.176,4.176-4.176
				h0.19c2.303,0,4.176,1.874,4.176,4.176v7.214C122.87,131.27,120.997,133.144,118.694,133.144z M118.504,121.374
				c-0.209,0-0.38,0.17-0.38,0.379v7.214c0,0.209,0.17,0.379,0.38,0.379h0.19c0.209,0,0.379-0.17,0.379-0.379v-7.214
				c0-0.209-0.17-0.379-0.379-0.379H118.504z"/>
		</g>
		<path style="fill:#FFFFFF;" d="M92.307,133.333c17.538,0,35.076,0,52.614,0c0.116,0,0.232,0,0.349,0c2.448,0,2.448-3.796,0-3.796
			c-17.538,0-35.076,0-52.614,0c-0.116,0-0.232,0-0.349,0C89.859,129.537,89.859,133.333,92.307,133.333L92.307,133.333z"/>
	</g>
	<g>
		<g>
			<path style="fill:#FFFFFF;" d="M185.932,154.045c-0.581,5.047-7.277,3.803-10.285,3.803c-5.796,0-11.593,0-17.39,0
				c-15.955,0-31.909,0-47.863,0c-10.839,0-21.678,0-32.517,0c-6.817,0-5.001-9.738-5.001-13.923c0-5.411,3.18-6.591,7.551-6.591
				c22.662,0,45.325,0,67.987,0c9.71,0,19.42,0,29.13,0c1.528,0,3.057,0,4.585,0C187.98,137.333,185.932,150.978,185.932,154.045
				c0,1.935,3,1.935,3,0c0-5.061,1.474-12.511-1.37-16.982c-1.937-3.046-5.694-2.729-8.791-2.729c-12.345,0-24.689,0-37.034,0
				c-15.624,0-31.248,0-46.872,0c-4.942,0-9.885,0-14.828,0c-3.097,0-6.855-0.317-8.792,2.729c-2.843,4.472-1.37,11.922-1.37,16.982
				c0,4.96,4.312,6.803,8.514,6.803c11.295,0,22.591,0,33.886,0c15.887,0,31.773,0,47.659,0c5.565,0,11.131,0,16.697,0
				c2.71,0,5.641,0.333,8.229-0.593c2.673-0.955,3.775-3.636,4.072-6.21C189.153,152.125,186.15,152.146,185.932,154.045z"/>
		</g>
	</g>
	<g>
		<g>
			<path style="fill:#FFFFFF;" d="M180.002,150.094c-0.69,3.416-7.031,2.104-9.274,2.104c-6.233,0-12.467,0-18.7,0
				c-15.964,0-31.929,0-47.894,0c-5.887,0-11.775,0-17.662,0c-3.852,0-7.614,1.15-7.614-4.126c0-5.853,2.601-5.09,7.116-5.09
				c5.766,0,11.532,0,17.298,0c17.133,0,34.267,0,51.4,0c6.213,0,12.426,0,18.638,0c1.486,0,2.972,0,4.458,0
				c3.124,0,2.181,5.603,2.181,7.511c0,1.935,3,1.935,3,0c0-4.217,0.85-10.511-5.181-10.511c-3.575,0-7.15,0-10.725,0
				c-15.03,0-30.06,0-45.09,0c-12.723,0-25.447,0-38.17,0c-3.526,0-6.992-0.049-7.872,4.307c-0.822,4.071-0.513,10.91,4.983,10.91
				c18.323,0,36.646,0,54.97,0c10.824,0,21.649,0,32.473,0c4.603,0,13.323,1.802,14.557-4.307
				C183.276,149.003,180.385,148.199,180.002,150.094z"/>
		</g>
	</g>
</g>
<g id="Ebene_1">
</g>
</svg>
