<?xml version="1.0" encoding="iso-8859-1"?>
<!-- Generator: Adobe Illustrator 16.0.0, SVG Export Plug-In . SVG Version: 6.00 Build 0)  -->
<!DOCTYPE svg PUBLIC "-//W3C//DTD SVG 1.1 Tiny//EN" "http://www.w3.org/Graphics/SVG/1.1/DTD/svg11-tiny.dtd">
<svg version="1.1" baseProfile="tiny" id="scene_x5F_gaming"
	 xmlns="http://www.w3.org/2000/svg" xmlns:xlink="http://www.w3.org/1999/xlink" x="0px" y="0px" width="361px" height="361px"
	 viewBox="0 0 361 361" xml:space="preserve">
<g display="none">
	<g display="inline">
		<path fill="#FFFFFF" d="M243.067,243.667c-0.405,4.517-5.74,3.538-8.887,3.538c-4.967,0-9.934,0-14.9,0c-2.627,0-5.254,0-7.881,0
			c-5.083,0-3.538-8.915-3.538-12.083c0-4.516,6.011-3.538,8.888-3.538c4.967,0,9.934,0,14.9,0c2.627,0,5.254,0,7.881,0
			C244.611,231.584,243.067,240.5,243.067,243.667c0,4.514,7,4.514,7,0c0-5.83,0.965-11.909-3.528-16.403
			c-3.681-3.681-10.177-2.68-14.891-2.68c-6.085,0-12.171,0-18.256,0c-6.785,0-11.889,3.365-12.532,10.538
			c-0.5,5.574-0.65,12.224,3.529,16.403c3.681,3.681,10.177,2.68,14.891,2.68c6.085,0,12.171,0,18.256,0
			c6.785,0,11.888-3.365,12.531-10.538C250.471,239.17,243.467,239.209,243.067,243.667z"/>
	</g>
	<path display="inline" fill="#FFFFFF" stroke="#FFFFFF" stroke-miterlimit="10" d="M215.671,224.774
		c0,2.742-2.224,4.965-4.966,4.965l0,0c-2.742,0-4.965-2.223-4.965-4.965v-8c0-2.742,2.223-4.965,4.965-4.965l0,0
		c2.742,0,4.966,2.223,4.966,4.965V224.774z"/>
	<g display="inline">
		<path fill="#FFFFFF" d="M270.653,244.083c-0.504,4.511-11.475,2.846-14.37,2.846c-2.118,0-6.216,0.434-6.216-2.889
			c0-1.212,0-2.424,0-3.636c0-8.888,0-17.776,0-26.664c0-4.421,11.894-2.846,14.37-2.846c2.118,0,6.216-0.434,6.216,2.889
			c0,1.212,0,2.424,0,3.636C270.653,226.307,270.653,235.195,270.653,244.083c0,4.514,7,4.514,7,0
			c0-10.395,1.012-21.292-0.143-31.621c-1.015-9.076-10.898-8.567-17.632-8.567c-7.624,0-15.75,0.355-16.811,9.846
			c-0.55,4.924,0,10.222,0,15.171c0,5.419-0.46,11.056,0.143,16.45c1.015,9.076,10.898,8.567,17.632,8.567
			c7.624,0,15.75-0.355,16.811-9.846C278.154,239.601,271.149,239.649,270.653,244.083z"/>
	</g>
	<g display="inline">
		<path fill="#FFFFFF" d="M244.636,210.067c13.609,0,27.218,0,40.828,0c4.514,0,4.514-7,0-7c-13.609,0-27.218,0-40.828,0
			C240.122,203.067,240.122,210.067,244.636,210.067L244.636,210.067z"/>
	</g>
	<g display="inline">
		<path fill="#FFFFFF" d="M209.462,254.206c19.449,0,38.897,0,58.346,0c4.514,0,4.514-7,0-7c-19.449,0-38.897,0-58.346,0
			C204.948,247.206,204.948,254.206,209.462,254.206L209.462,254.206z"/>
	</g>
	<g display="inline">
		<path fill="#FFFFFF" d="M214.93,260.636c-0.447,8.294-12.416,8.294-12.862,0C201.621,252.338,214.485,252.383,214.93,260.636
			c0.242,4.489,7.243,4.513,7,0c-0.409-7.591-5.839-13.022-13.431-13.431c-7.575-0.408-13.056,6.453-13.432,13.431
			c-0.408,7.576,6.454,13.056,13.432,13.432c7.575,0.408,13.055-6.454,13.431-13.432
			C222.173,256.124,215.171,256.147,214.93,260.636z"/>
	</g>
	<g display="inline">
		<path fill="#FFFFFF" d="M267.619,260.636c-0.447,8.294-12.416,8.294-12.863,0C254.31,252.338,267.175,252.383,267.619,260.636
			c0.242,4.489,7.243,4.513,7,0c-0.409-7.591-5.84-13.022-13.431-13.431c-7.575-0.408-13.056,6.453-13.432,13.431
			c-0.408,7.576,6.454,13.056,13.432,13.432c7.575,0.408,13.055-6.454,13.431-13.432
			C274.862,256.124,267.861,256.147,267.619,260.636z"/>
	</g>
	<g display="inline">
		<path fill="#FFFFFF" d="M241.413,260.636c-0.447,8.294-12.416,8.294-12.863,0C228.104,252.338,240.969,252.383,241.413,260.636
			c0.242,4.489,7.243,4.513,7,0c-0.409-7.591-5.84-13.022-13.431-13.431c-7.575-0.408-13.056,6.453-13.432,13.431
			c-0.408,7.576,6.454,13.056,13.432,13.432c7.575,0.408,13.055-6.454,13.431-13.432
			C248.656,256.124,241.655,256.147,241.413,260.636z"/>
	</g>
</g>
<g display="none">
	<path display="inline" fill="#FFFFFF" d="M153.083,188.452c-0.335,15.337-12.33,27.331-27.667,27.667
		c-15.336,0.335-27.342-12.835-27.667-27.667c-0.335-15.336,12.835-27.342,27.667-27.667
		C140.753,160.45,152.759,173.621,153.083,188.452c0.099,4.507,7.099,4.517,7,0c-0.419-19.18-15.487-34.247-34.667-34.667
		c-19.178-0.419-34.261,16.118-34.667,34.667c-0.419,19.178,16.118,34.261,34.667,34.667c19.178,0.419,34.261-16.118,34.667-34.667
		C160.182,183.936,153.182,183.945,153.083,188.452z"/>
</g>
<g>
	<path fill="#FFFFFF" d="M274.721,159.045c-49.61,0-99.219,0-148.829,0c-11.307,0-22.614,0-33.92,0
		c-7.807,0-16.79-1.12-21.871,6.403c-3.608,5.342-2.786,11.859-2.786,17.982c0,7.391,0,14.783,0,22.174c0,4.656,0,9.312,0,13.967
		c0,7.108-0.888,14.652,3.923,20.56c4.574,5.616,10.773,6.683,17.529,6.683c7.246,0,14.492,0,21.739,0
		c13.458,0,33.93,3.2,36.988-14.959c-1.607,1.224-3.214,2.447-4.821,3.671c23.929,0,47.857,0,71.786,0
		c-1.607-1.224-3.214-2.447-4.821-3.671c3.058,18.159,23.53,14.959,36.988,14.959c7.247,0,14.493,0,21.739,0
		c7.071,0,14.073-1.245,18.311-7.695c3.991-6.075,3.142-13.23,3.142-20.151c0-4.663,0-9.325,0-13.988c0-7.473,0-14.946,0-22.419
		c0-6.182,0.857-13.098-3.568-18.125C283.173,160.941,279.308,159.354,274.721,159.045c-6.44-0.433-6.398,9.569,0,10
		c6.488,0.437,5.095,8.187,5.095,12.674c0,6.787,0,13.573,0,20.36c0,8.813,0,17.626,0,26.439c0,6.777-5.402,8.296-10.895,8.296
		c-6.113,0-12.225,0-18.338,0c-6.389,0-12.778,0-19.168,0c-5.793,0-10.951-0.581-12.136-7.617c-0.364-2.163-2.77-3.671-4.821-3.671
		c-23.929,0-47.857,0-71.786,0c-2.051,0-4.457,1.508-4.821,3.671c-1.356,8.054-7.822,7.617-14.131,7.617c-7.675,0-15.351,0-23.026,0
		c-5.173,0-10.346,0-15.52,0c-9.189,0-7.86-10.264-7.86-16.487c0-11.697,0-23.394,0-35.09c0-4.568-1.858-14.065,3.741-16.009
		c1.47-0.511,3.61-0.182,5.113-0.182c54.582,0,109.163,0,163.744,0c8.27,0,16.539,0,24.809,0
		C281.17,169.045,281.17,159.045,274.721,159.045z"/>
</g>
<g>
	<g>
		<path fill="#FFFFFF" d="M162.17,210.807c3.094,0,6.187,0,9.281,0c4.514,0,4.514-7,0-7c-3.094,0-6.187,0-9.281,0
			C157.656,203.807,157.656,210.807,162.17,210.807L162.17,210.807z"/>
	</g>
	<g>
		<path fill="#FFFFFF" d="M185.17,210.807c3.094,0,6.188,0,9.281,0c4.514,0,4.514-7,0-7c-3.094,0-6.188,0-9.281,0
			C180.656,203.807,180.656,210.807,185.17,210.807L185.17,210.807z"/>
	</g>
</g>
<g>
	<g>
		<path fill="#FFFFFF" d="M227.463,192.458c0.106-1.006,1.377-0.868-0.113-0.87c-0.857,0-1.714-0.001-2.571-0.002
			c-0.288,0-0.575,0-0.862,0c-0.565,0-0.257-0.111,0.199,0.251c0.414,0.331,0.226,0.951,0.227-0.058c0-0.344,0-0.688,0.001-1.032
			c-0.001,1.002-1.439,0.869,0.113,0.87c0.857,0.001,1.714,0.001,2.571,0.002c0.287,0,0.575,0,0.862,0
			c0.565,0,0.256,0.111-0.199-0.251c-0.415-0.33-0.227-0.953-0.227,0.057C227.464,191.771,227.463,192.115,227.463,192.458
			c-0.002,4.514,6.998,4.514,7,0c0.001-2.062-0.066-3.982-1.49-5.648c-1.46-1.709-3.468-2.188-5.617-2.189
			c-1.259-0.001-2.519-0.002-3.778-0.003c-3.604-0.003-5.881,2.784-6.234,6.13c-0.488,4.618,2.524,7.834,7.106,7.838
			c1.259,0.001,2.519,0.002,3.778,0.003c3.605,0.003,5.881-2.785,6.235-6.131c0.201-1.901-1.744-3.5-3.5-3.5
			C228.904,188.958,227.664,190.562,227.463,192.458z"/>
	</g>
	<g>
		<path fill="#FFFFFF" d="M255.481,192.474c0.106-1.005,1.378-0.868-0.112-0.87c-0.857,0-1.714-0.001-2.571-0.002
			c-0.288,0-0.575,0-0.862,0c-0.565,0-0.257-0.111,0.199,0.252c0.415,0.331,0.227,0.95,0.227-0.058c0-0.344,0-0.688,0-1.032
			c0,1.001-1.439,0.869,0.113,0.87c0.857,0.001,1.714,0.001,2.571,0.002c0.287,0,0.575,0,0.862,0c0.566,0,0.255,0.111-0.2-0.251
			c-0.415-0.331-0.227-0.95-0.227,0.058C255.482,191.786,255.481,192.13,255.481,192.474c-0.002,4.514,6.998,4.514,7,0
			c0.001-2.062-0.066-3.982-1.489-5.649c-1.46-1.709-3.468-2.188-5.617-2.189c-1.259-0.001-2.519-0.002-3.778-0.003
			c-3.605-0.002-5.881,2.784-6.234,6.131c-0.488,4.619,2.524,7.834,7.106,7.838c1.259,0.001,2.519,0.002,3.778,0.003
			c3.605,0.003,5.882-2.784,6.234-6.131c0.2-1.901-1.744-3.5-3.5-3.5C256.922,188.974,255.681,190.578,255.481,192.474z"/>
	</g>
	<g>
		<path fill="#FFFFFF" d="M233.127,215.298c0.106-1.006,1.378-0.868-0.112-0.87c-0.857,0-1.714-0.001-2.571-0.002
			c-0.288,0-0.575,0-0.862,0c-0.565,0-0.256-0.111,0.199,0.251c0.416,0.331,0.228,0.95,0.228-0.058c0-0.344,0-0.688,0-1.032
			c0,1.001-1.439,0.869,0.112,0.87c0.857,0,1.714,0.001,2.57,0.002c0.288,0,0.575,0,0.862,0c0.565,0,0.257,0.111-0.199-0.252
			c-0.416-0.331-0.227-0.95-0.228,0.058C233.128,214.61,233.127,214.955,233.127,215.298c-0.002,4.514,6.998,4.514,7,0
			c0.001-2.062-0.065-3.983-1.489-5.65c-1.46-1.709-3.468-2.187-5.617-2.188c-1.259-0.001-2.518-0.002-3.777-0.003
			c-3.605-0.003-5.881,2.784-6.234,6.131c-0.487,4.618,2.524,7.834,7.106,7.838c1.259,0.001,2.519,0.002,3.778,0.003
			c3.604,0.003,5.882-2.785,6.234-6.131c0.2-1.901-1.744-3.5-3.5-3.5C234.568,211.798,233.327,213.402,233.127,215.298z"/>
	</g>
	<g>
		<path fill="#FFFFFF" d="M261.146,215.313c0.106-1.006,1.377-0.869-0.113-0.87c-0.857,0-1.714-0.001-2.571-0.002
			c-0.288,0-0.575,0-0.862,0c-0.565,0-0.256-0.111,0.199,0.251c0.415,0.33,0.226,0.952,0.227-0.057c0-0.344,0-0.688,0.001-1.032
			c-0.001,1.001-1.439,0.868,0.113,0.87c0.857,0,1.714,0.001,2.571,0.002c0.287,0,0.575,0,0.862,0c0.565,0,0.256,0.111-0.2-0.252
			c-0.415-0.331-0.227-0.95-0.227,0.058C261.147,214.626,261.146,214.97,261.146,215.313c-0.002,4.514,6.998,4.514,7,0
			c0.001-2.062-0.065-3.983-1.489-5.649c-1.46-1.709-3.468-2.187-5.617-2.189c-1.259-0.001-2.519-0.002-3.778-0.003
			c-3.605-0.003-5.881,2.785-6.234,6.131c-0.487,4.618,2.523,7.834,7.106,7.838c1.259,0.001,2.519,0.002,3.778,0.003
			c3.605,0.003,5.881-2.784,6.235-6.131c0.201-1.901-1.744-3.5-3.5-3.5C262.587,211.813,261.347,213.417,261.146,215.313z"/>
	</g>
</g>
<g>
	<path fill="#FFFFFF" d="M70.592,76.199c1.618,31.434,33.114,48.865,61.863,48.163c4.506-0.11,4.517-7.11,0-7
		c-24.677,0.603-53.444-13.589-54.863-41.163C77.361,71.708,70.36,71.686,70.592,76.199L70.592,76.199z"/>
</g>
<g>
	<path fill="#FFFFFF" d="M182.797,161.378c0.369-26.311-24.37-42.884-48.527-44c-4.515-0.208-4.494,6.792,0,7
		c20.386,0.942,41.841,14.638,41.527,37C175.733,165.894,182.733,165.888,182.797,161.378L182.797,161.378z"/>
</g>
<g>
	<path fill="#FFFFFF" d="M127.005,192.096c-2.451,0-4.902,0-7.354,0c1.167,1.167,2.333,2.333,3.5,3.5
		c0-2.874,0.179-5.796-0.15-8.653c-0.606-5.266-5.331-7.87-10.191-7.87c-5.3,0-9.173,1.685-11.051,6.939
		c-0.984,2.753-0.275,6.726-0.275,9.584c1.167-1.167,2.333-2.333,3.5-3.5c-2.874,0-5.796-0.179-8.653,0.15
		c-5.266,0.606-7.87,5.331-7.87,10.191c0,5.3,1.685,9.173,6.939,11.051c2.753,0.984,6.726,0.275,9.584,0.275
		c-1.167-1.167-2.333-2.333-3.5-3.5c0,2.874-0.179,5.796,0.15,8.653c0.606,5.266,5.331,7.87,10.191,7.87
		c5.3,0,9.173-1.685,11.051-6.939c0.984-2.753,0.275-6.726,0.275-9.584c-1.167,1.167-2.333,2.333-3.5,3.5
		c5.952,0,11.822,0.828,15.469-4.91c1.388-2.183,1.663-7.345,0.779-9.818C134.365,194.74,131.498,192.614,127.005,192.096
		c-4.48-0.516-4.43,6.49,0,7c3.506,0.404,2.878,7.667-0.545,7.667c-2.27,0-4.539,0-6.809,0c-1.908,0-3.5,1.592-3.5,3.5
		c0,3.082,1.396,9.523-3.341,9.523c-5.684,0-4.326-5.421-4.326-9.523c0-1.908-1.592-3.5-3.5-3.5c-3.082,0-9.523,1.396-9.523-3.341
		c0-5.684,5.421-4.326,9.523-4.326c1.908,0,3.5-1.592,3.5-3.5c0-3.082-1.396-9.523,3.341-9.523c5.684,0,4.326,5.421,4.326,9.523
		c0,1.908,1.592,3.5,3.5,3.5c2.451,0,4.902,0,7.354,0C131.519,199.096,131.519,192.096,127.005,192.096z"/>
</g>
</svg>
