<?xml version="1.0" encoding="iso-8859-1"?>
<!-- Generator: Adobe Illustrator 16.0.0, SVG Export Plug-In . SVG Version: 6.00 Build 0)  -->
<!DOCTYPE svg PUBLIC "-//W3C//DTD SVG 1.1 Tiny//EN" "http://www.w3.org/Graphics/SVG/1.1/DTD/svg11-tiny.dtd">
<svg version="1.1" baseProfile="tiny" id="scene_x5F_swimming"
	 xmlns="http://www.w3.org/2000/svg" xmlns:xlink="http://www.w3.org/1999/xlink" x="0px" y="0px" width="361px" height="361px"
	 viewBox="0 0 361 361" xml:space="preserve">
<g>
	<path fill="#FFFFFF" d="M85.644,216.866c5.833-1.333,11.667-2.667,17.5-4c6.286-1.437,3.62-11.078-2.658-9.643
		c-5.833,1.333-11.667,2.667-17.5,4C76.7,208.66,79.366,218.302,85.644,216.866L85.644,216.866z"/>
</g>
<g>
	<path fill="#FFFFFF" d="M100.486,212.866c4.667,1.5,9.333,3,14,4.5c6.157,1.979,8.772-7.678,2.658-9.643c-4.667-1.5-9.333-3-14-4.5
		C96.987,201.244,94.372,210.901,100.486,212.866L100.486,212.866z"/>
</g>
<g>
	<path fill="#FFFFFF" d="M126.644,217.866c5.833-1.333,11.667-2.667,17.5-4c6.286-1.437,3.62-11.078-2.658-9.643
		c-5.833,1.333-11.667,2.667-17.5,4C117.7,209.66,120.366,219.302,126.644,217.866L126.644,217.866z"/>
</g>
<g>
	<path fill="#FFFFFF" d="M141.486,213.866c4.667,1.5,9.333,3,14,4.5c6.157,1.979,8.772-7.678,2.658-9.643c-4.667-1.5-9.333-3-14-4.5
		C137.987,202.244,135.372,211.901,141.486,213.866L141.486,213.866z"/>
</g>
<g>
	<path fill="#FFFFFF" d="M167.644,218.866c5.833-1.333,11.667-2.667,17.5-4c6.286-1.437,3.62-11.078-2.658-9.643
		c-5.833,1.333-11.667,2.667-17.5,4C158.7,210.66,161.366,220.302,167.644,218.866L167.644,218.866z"/>
</g>
<g>
	<path fill="#FFFFFF" d="M182.486,214.866c4.667,1.5,9.333,3,14,4.5c6.157,1.979,8.772-7.678,2.658-9.643c-4.667-1.5-9.333-3-14-4.5
		C178.987,203.244,176.372,212.901,182.486,214.866L182.486,214.866z"/>
</g>
<g>
	<path fill="#FFFFFF" d="M208.644,218.866c5.833-1.333,11.667-2.667,17.5-4c6.286-1.437,3.62-11.078-2.658-9.643
		c-5.833,1.333-11.667,2.667-17.5,4C199.7,210.66,202.366,220.302,208.644,218.866L208.644,218.866z"/>
</g>
<g>
	<path fill="#FFFFFF" d="M223.486,214.866c4.667,1.5,9.333,3,14,4.5c6.157,1.979,8.772-7.678,2.658-9.643c-4.667-1.5-9.333-3-14-4.5
		C219.987,203.244,217.372,212.901,223.486,214.866L223.486,214.866z"/>
</g>
<g>
	<path fill="#FFFFFF" d="M248.644,218.866c5.833-1.333,11.667-2.667,17.5-4c6.286-1.437,3.62-11.078-2.658-9.643
		c-5.833,1.333-11.667,2.667-17.5,4C239.7,210.66,242.366,220.302,248.644,218.866L248.644,218.866z"/>
</g>
<g>
	<path fill="#FFFFFF" d="M263.486,214.866c4.667,1.5,9.333,3,14,4.5c6.157,1.979,8.772-7.678,2.658-9.643c-4.667-1.5-9.333-3-14-4.5
		C259.987,203.244,257.372,212.901,263.486,214.866L263.486,214.866z"/>
</g>
<g>
	<path fill="#FFFFFF" d="M73.644,236.866c5.833-1.333,11.667-2.667,17.5-4c6.286-1.437,3.62-11.078-2.658-9.643
		c-5.833,1.333-11.667,2.667-17.5,4C64.7,228.66,67.366,238.302,73.644,236.866L73.644,236.866z"/>
</g>
<g>
	<path fill="#FFFFFF" d="M88.486,232.866c4.667,1.5,9.333,3,14,4.5c6.157,1.979,8.772-7.678,2.658-9.643c-4.667-1.5-9.333-3-14-4.5
		C84.987,221.244,82.372,230.901,88.486,232.866L88.486,232.866z"/>
</g>
<g>
	<path fill="#FFFFFF" d="M114.644,237.866c5.833-1.333,11.667-2.667,17.5-4c6.286-1.437,3.62-11.078-2.658-9.643
		c-5.833,1.333-11.667,2.667-17.5,4C105.7,229.66,108.366,239.302,114.644,237.866L114.644,237.866z"/>
</g>
<g>
	<path fill="#FFFFFF" d="M129.486,233.866c4.667,1.5,9.333,3,14,4.5c6.157,1.979,8.772-7.678,2.658-9.643c-4.667-1.5-9.333-3-14-4.5
		C125.987,222.244,123.372,231.901,129.486,233.866L129.486,233.866z"/>
</g>
<g>
	<path fill="#FFFFFF" d="M155.644,238.866c5.833-1.333,11.667-2.667,17.5-4c6.286-1.437,3.62-11.078-2.658-9.643
		c-5.833,1.333-11.667,2.667-17.5,4C146.7,230.66,149.366,240.302,155.644,238.866L155.644,238.866z"/>
</g>
<g>
	<path fill="#FFFFFF" d="M170.486,234.866c4.667,1.5,9.333,3,14,4.5c6.157,1.979,8.772-7.678,2.658-9.643c-4.667-1.5-9.333-3-14-4.5
		C166.987,223.244,164.372,232.901,170.486,234.866L170.486,234.866z"/>
</g>
<g>
	<path fill="#FFFFFF" d="M196.644,238.866c5.833-1.333,11.667-2.667,17.5-4c6.286-1.437,3.62-11.078-2.658-9.643
		c-5.833,1.333-11.667,2.667-17.5,4C187.7,230.66,190.366,240.302,196.644,238.866L196.644,238.866z"/>
</g>
<g>
	<path fill="#FFFFFF" d="M211.486,234.866c4.667,1.5,9.333,3,14,4.5c6.157,1.979,8.772-7.678,2.658-9.643c-4.667-1.5-9.333-3-14-4.5
		C207.987,223.244,205.372,232.901,211.486,234.866L211.486,234.866z"/>
</g>
<g>
	<path fill="#FFFFFF" d="M236.644,238.866c5.833-1.333,11.667-2.667,17.5-4c6.286-1.437,3.62-11.078-2.658-9.643
		c-5.833,1.333-11.667,2.667-17.5,4C227.7,230.66,230.366,240.302,236.644,238.866L236.644,238.866z"/>
</g>
<g>
	<path fill="#FFFFFF" d="M251.486,234.866c4.667,1.5,9.333,3,14,4.5c6.157,1.979,8.772-7.678,2.658-9.643c-4.667-1.5-9.333-3-14-4.5
		C247.987,223.244,245.372,232.901,251.486,234.866L251.486,234.866z"/>
</g>
<g>
	<polygon fill="#FFFFFF" points="135.982,191.545 175.148,159.545 214.315,191.545 	"/>
	<g>
		<path fill="#FFFFFF" d="M139.518,195.081c13.055-10.667,26.111-21.333,39.167-32c-2.357,0-4.714,0-7.071,0
			c13.056,10.667,26.111,21.333,39.167,32c1.179-2.845,2.357-5.69,3.536-8.536c-26.111,0-52.222,0-78.333,0c-6.449,0-6.449,10,0,10
			c26.111,0,52.222,0,78.333,0c4.044,0,7.046-5.667,3.536-8.536c-13.056-10.667-26.111-21.333-39.167-32
			c-2.278-1.861-4.793-1.861-7.071,0c-13.055,10.667-26.111,21.333-39.167,32C127.449,192.092,134.569,199.124,139.518,195.081z"/>
	</g>
</g>
<circle fill="#FFFFFF" stroke="#FFFFFF" cx="211.44" cy="153.42" r="21.125"/>
<path fill="#FFFFFF" d="M160.56,139.888c3.97-1.681,8.236-0.57,9.528,2.481l0.975,2.302c1.292,3.051-0.879,6.888-4.849,8.569
	l-57.204,24.223c-3.97,1.681-8.236,0.57-9.528-2.481l-0.975-2.302c-1.292-3.051,0.879-6.888,4.849-8.569L160.56,139.888z"/>
<path fill="#FFFFFF" d="M158.021,151.125c-0.509-0.938,1.437-2.982,4.348-4.564l2.196-1.194c2.911-1.583,5.685-2.105,6.194-1.167
	l7.349,13.515c0.51,0.938-1.437,2.982-4.348,4.564l-2.196,1.194c-2.911,1.583-5.685,2.105-6.194,1.167L158.021,151.125z"/>
</svg>
