<?xml version="1.0" encoding="iso-8859-1"?>
<!-- Generator: Adobe Illustrator 16.0.0, SVG Export Plug-In . SVG Version: 6.00 Build 0)  -->
<!DOCTYPE svg PUBLIC "-//W3C//DTD SVG 1.1//EN" "http://www.w3.org/Graphics/SVG/1.1/DTD/svg11.dtd">
<svg version="1.1" xmlns="http://www.w3.org/2000/svg" xmlns:xlink="http://www.w3.org/1999/xlink" x="0px" y="0px" width="361px"
	 height="361px" viewBox="0 0 361 361" style="enable-background:new 0 0 361 361;" xml:space="preserve">
<g id="scene_x5F_scene_x5F_teach_x5F_in">
	<g>
		<g>
			<g>
				<path style="fill:#FFFFFF;" d="M284.168,154.532c-1.137,2.348-4.997,0.033-6.552-0.478c-4.663-1.531-9.325-3.062-13.987-4.593
					c-14.369-4.718-28.738-9.436-43.106-14.153c-21.329-7.003-42.659-14.006-63.988-21.01c-1.062-0.348,1.057-7.813,2.739-7.261
					c0.586,0.192,1.172,0.385,1.758,0.577c3.583,1.176,7.165,2.353,10.748,3.529c13.391,4.397,26.784,8.794,40.175,13.191
					c24.104,7.914,48.207,15.828,72.311,23.742c2.91,0.956,0.23,5.218-0.45,7.292c-1.412,4.301,5.349,6.129,6.75,1.861
					c1.854-5.646,4.301-13.033-3.421-15.569c-2.213-0.727-4.425-1.453-6.638-2.18c-11.953-3.924-23.905-7.849-35.858-11.773
					c-26.427-8.677-52.854-17.354-79.281-26.031c-2.448-0.804-4.821-1.854-7.444-1.638c-5.885,0.484-11.295,12.184-7.876,17.228
					c3.755,5.539,14.353,6.976,20.242,8.91c28.785,9.451,57.57,18.902,86.354,28.354c6.502,2.134,13.003,4.269,19.504,6.404
					c5.152,1.691,10.976,3.513,14.065-2.868C292.171,154.021,286.136,150.47,284.168,154.532z"/>
			</g>
		</g>
		<polygon style="fill:#FFFFFF;stroke:#FFFFFF;stroke-miterlimit:10;" points="163.796,117.564 155.159,114.729 165.3,108.134 
			173.938,110.971 		"/>
		<polygon style="fill:#FFFFFF;stroke:#FFFFFF;stroke-miterlimit:10;" points="182.173,123.598 173.534,120.762 183.676,114.168 
			192.314,117.004 		"/>
		<polygon style="fill:#FFFFFF;stroke:#FFFFFF;stroke-miterlimit:10;" points="200.014,129.71 191.375,126.874 201.518,120.28 
			210.156,123.117 		"/>
		<polygon style="fill:#FFFFFF;stroke:#FFFFFF;stroke-miterlimit:10;" points="218.465,135.515 209.826,132.678 219.969,126.084 
			228.606,128.92 		"/>
		<polygon style="fill:#FFFFFF;stroke:#FFFFFF;stroke-miterlimit:10;" points="236.303,141.245 227.665,138.408 237.808,131.814 
			246.445,134.651 		"/>
		<polygon style="fill:#FFFFFF;stroke:#FFFFFF;stroke-miterlimit:10;" points="254.832,147.2 246.193,144.364 256.335,137.77 
			264.974,140.607 		"/>
		<polygon style="fill:#FFFFFF;stroke:#FFFFFF;stroke-miterlimit:10;" points="274.893,153.914 266.254,151.078 276.396,144.484 
			285.034,147.321 		"/>
	</g>
	<g>
		<g>
			<g>
				<path style="fill:#FFFFFF;" d="M279.228,251.644c0.128-0.953,0.893-0.647-0.809-0.647c-1.521,0-3.041,0-4.561,0
					c-5.241,0-10.482,0-15.724,0c-15.533,0-31.065,0-46.599,0c-14.509,0-29.018,0-43.527,0c-3.961,0-7.921,0-11.882,0
					c-0.642,0-1.284,0-1.925,0c0.896,0,0.606,0.896,0.606-1.125c0-26.331,0-52.662,0-78.993c0-1.238,0-2.476,0-3.714
					c0-0.445-1.156,0.271,0.008,0.271c3.167,0,6.335,0,9.502,0c13.761,0,27.521,0,41.281,0c24.635,0,49.269,0,73.903,0
					c0.818,0-0.275-1.136-0.275-0.107c0,1.504,0,3.008,0,4.512c0,6.044,0,12.089,0,18.133c0,15.63,0,31.26,0,46.89
					C279.228,241.789,279.228,246.717,279.228,251.644c0,6.448,10,6.448,10,0c0-24.817,0-49.636,0-74.453
					c0-8.185,1.394-19.756-10.371-19.756c-9.648,0-19.298,0-28.946,0c-29.26,0-58.52,0-87.779,0c-2.602,0-5.203,0-7.805,0
					c-6.014,0-9.518,4.991-9.518,10.551c0,12.089,0,24.178,0,36.267c0,14.112,0,28.225,0,42.338c0,3.755-0.62,9.07,2.739,11.667
					c3.35,2.589,6.28,2.739,10.168,2.739c27.732,0,55.466,0,83.198,0c10.33,0,20.66,0,30.99,0c7.649,0,15.973,0.698,17.323-9.353
					C290.084,245.268,280.073,245.351,279.228,251.644z"/>
			</g>
		</g>
		<g>
			<g>
				<g>
					<path style="fill:#FFFFFF;" d="M281.578,173.168c-0.451,2.92-4.559,1.783-6.756,1.783c-5.203,0-10.406,0-15.609,0
						c-15.49,0-30.981,0-46.473,0c-14.67,0-29.34,0-44.01,0c-4.177,0-8.354,0-12.531,0c-0.787,0-1.574,0-2.361,0
						c-1.412,0-1.228-7.747-0.155-7.747c22.678,0,45.357,0,68.035,0c14.67,0,29.341,0,44.011,0c4.177,0,8.354,0,12.53,0
						c0.787,0,1.574,0,2.361,0c1.447,0,0.833,5.92,0.833,6.895c0,4.514,7,4.514,7,0c0-5.758,0.213-13.895-7.833-13.895
						c-2.579,0-5.157,0-7.736,0c-13.115,0-26.231,0-39.348,0c-26.14,0-52.28,0-78.421,0c-5.119,0-9.11,2.955-9.11,8.479
						c0,5.827,0.171,13.268,8.036,13.268c8.668,0,17.336,0,26.005,0c29.833,0,59.666,0,89.499,0c6.537,0,17.403,2.007,18.783-6.922
						C289.011,170.615,282.266,168.718,281.578,173.168z"/>
				</g>
			</g>
			<polygon style="fill:#FFFFFF;stroke:#FFFFFF;stroke-miterlimit:10;" points="161.354,175.791 152.262,175.791 159.841,166.363 
				168.933,166.363 			"/>
			<polygon style="fill:#FFFFFF;stroke:#FFFFFF;stroke-miterlimit:10;" points="180.694,175.791 171.603,175.791 179.181,166.363 
				188.273,166.363 			"/>
			<polygon style="fill:#FFFFFF;stroke:#FFFFFF;stroke-miterlimit:10;" points="199.553,176.032 190.46,176.032 198.039,166.603 
				207.131,166.603 			"/>
			<polygon style="fill:#FFFFFF;stroke:#FFFFFF;stroke-miterlimit:10;" points="218.893,175.791 209.801,175.791 217.38,166.363 
				226.472,166.363 			"/>
			<polygon style="fill:#FFFFFF;stroke:#FFFFFF;stroke-miterlimit:10;" points="237.629,175.67 228.537,175.67 236.116,166.241 
				245.208,166.241 			"/>
			<polygon style="fill:#FFFFFF;stroke:#FFFFFF;stroke-miterlimit:10;" points="257.091,175.549 247.999,175.549 255.577,166.121 
				264.67,166.121 			"/>
			<polygon style="fill:#FFFFFF;stroke:#FFFFFF;stroke-miterlimit:10;" points="275.244,175.67 266.152,175.67 273.732,166.241 
				282.824,166.241 			"/>
		</g>
	</g>
	<g id="Stift_2_">
		<g>
			<g>
				<path style="fill:#FFFFFF;" d="M99.86,253.971c5.789,11.339,11.579,22.679,17.368,34.018c1.337,2.618,5.817,2.105,6.397-0.836
					c2.463-12.491,4.926-24.982,7.389-37.474c0.558-2.831-1.605-4.683-4.306-4.306c-8.252,1.152-16.504,2.304-24.757,3.456
					c-4.455,0.622-2.552,7.366,1.861,6.75c8.252-1.152,16.504-2.304,24.757-3.456c-1.436-1.436-2.871-2.87-4.306-4.306
					c-2.463,12.491-4.926,24.982-7.389,37.474c2.132-0.278,4.265-0.558,6.397-0.836c-5.789-11.339-11.579-22.679-17.368-34.018
					C103.851,246.416,97.812,249.959,99.86,253.971z"/>
			</g>
		</g>
		<g>
			<g>
				<path style="fill:#FFFFFF;" d="M94.452,245.259c1.101,4.939,4.442,8.326,9.317,9.629c2.912,0.778,6.609-0.226,9.543-0.635
					c7.375-1.029,16.141-0.763,19.655-8.698c2.434-5.497-0.367-14.719-1.155-20.364c-4.09-29.296-8.179-58.592-12.269-87.889
					c-2.852-20.431-5.704-40.862-8.556-61.292c-1.141-8.172-9.875-7.293-15.944-6.446c-5.817,0.812-15.898,0.522-20.591,4.558
					c-5.058,4.349-1.873,14.442-1.07,20.193c7.01,50.22,14.021,100.44,21.031,150.66C94.425,245.069,94.438,245.164,94.452,245.259
					c0.622,4.455,7.366,2.552,6.75-1.861c-6.862-49.156-13.724-98.313-20.585-147.469c-0.549-3.935-1.098-7.87-1.647-11.805
					c-0.49-3.51-1.222-4.771,3.343-5.747c5.701-1.219,11.695-1.753,17.481-2.445c4.563-0.546,4.43,1.835,4.9,5.199
					c3.52,25.218,7.041,50.437,10.561,75.655c3.187,22.827,6.373,45.654,9.56,68.481c0.695,4.983,1.391,9.967,2.087,14.95
					c0.751,5.382-5.033,5.831-8.794,6.356c-5.323,0.743-15.228,4.344-16.903-3.177C100.22,238.992,93.472,240.86,94.452,245.259z"/>
			</g>
		</g>
		<g>
			<polygon style="fill:#FFFFFF;" points="112.007,269.357 120.111,285.231 123.56,267.745 			"/>
			<g>
				<path style="fill:#FFFFFF;" d="M108.985,271.124c2.701,5.291,5.403,10.583,8.104,15.874c1.337,2.618,5.817,2.105,6.397-0.836
					c1.149-5.829,2.299-11.658,3.448-17.486c0.558-2.831-1.605-4.683-4.306-4.306c-3.851,0.537-7.702,1.075-11.553,1.612
					c-4.455,0.622-2.552,7.366,1.861,6.75c3.851-0.537,7.702-1.075,11.553-1.612c-1.436-1.436-2.871-2.87-4.306-4.306
					c-1.149,5.829-2.299,11.658-3.448,17.486c2.132-0.278,4.265-0.558,6.397-0.836c-2.701-5.291-5.403-10.583-8.104-15.874
					C112.976,263.569,106.937,267.112,108.985,271.124z"/>
			</g>
		</g>
	</g>
</g>
<g id="Ebene_1">
</g>
</svg>
