<?xml version="1.0" encoding="iso-8859-1"?>
<!-- Generator: Adobe Illustrator 16.0.0, SVG Export Plug-In . SVG Version: 6.00 Build 0)  -->
<!DOCTYPE svg PUBLIC "-//W3C//DTD SVG 1.1//EN" "http://www.w3.org/Graphics/SVG/1.1/DTD/svg11.dtd">
<svg version="1.1" xmlns="http://www.w3.org/2000/svg" xmlns:xlink="http://www.w3.org/1999/xlink" x="0px" y="0px" width="361px"
	 height="361px" viewBox="0 0 361 361" style="enable-background:new 0 0 361 361;" xml:space="preserve">
<g id="scene_x5F_robo_x5F_vac_x5F_cleaner">
	<path style="fill:#FFFFFF;" d="M180.818,193.854c0.158-0.518,1.522-0.391,0.307-0.391c-0.606,0-1.211,0-1.817,0
		c-2.438,0-4.875,0-7.313,0c-7.513,0-15.027,0-22.54,0c-14.283,0-28.566,0-42.85,0c-0.947,0-1.894,0-2.841,0
		c1.205,0,1.054,2.219,1.054,0.492c0-0.732,0-1.467,0-2.199c0-2.284,0-4.568,0-6.854c0-0.732,0-1.467,0-2.199
		c0-1.727,0.151,0.492-1.054,0.492c0.28,0,0.561,0,0.843,0c1.868,0,3.736,0,5.605,0c15.419,0,30.838,0,46.256,0
		c7.478,0,14.955,0,22.434,0c0.74,0,1.482,0,2.224,0c1.467,0-0.437-2.131-0.437-0.492c0,4.041,0,8.08,0,12.121
		c0,4.714,7.308,4.714,7.308,0c0-4.945,2.079-15.098-3.088-18.125c-2.809-1.646-7.826-0.813-10.867-0.813
		c-15.646,0-31.292,0-46.937,0c-6.371,0-12.741,0-19.111,0c-4.26,0-10.484-0.098-10.484,5.947c0,4.945-2.08,15.099,3.088,18.125
		c2.809,1.646,7.826,0.813,10.868,0.813c15.325,0,30.65,0,45.975,0c6.519,0,13.037,0,19.556,0c4.532,0,9.223,0.436,10.871-4.975
		C189.242,191.275,182.188,189.357,180.818,193.854z"/>
	<path style="fill:#FFFFFF;" d="M253.208,196.236c0,10.102-8.187,18.289-18.288,18.289s-18.288-8.188-18.288-18.289H253.208z"/>
	<g>
		<g>
			<path style="fill:#FFFFFF;" d="M281.894,195.65c-0.114,0.988-15.102,0.332-16.169,0.332c-13.179,0-26.356,0-39.535,0
				c-31.136,0-62.271,0-93.407,0c-8.494,0-16.988,0-25.482,0c-2.087,0-2.231,0.052-1.929-2.223
				c0.914-6.881,1.828-13.763,2.742-20.644c0.767-5.776,1.534-11.552,2.301-17.328c0.152-1.146,2.889-0.613,3.67-0.613
				c9.712,0,19.425,0,29.138,0c31.477,0,62.954,0,94.432,0c11.284,0,22.568,0,33.854,0c2.236,0,4.473,0,6.709,0
				c1.34,0,1.179,7.766,1.255,8.755C280.278,174.503,281.086,185.077,281.894,195.65c0.487,6.388,10.491,6.435,10,0
				c-0.935-12.233-1.868-24.466-2.803-36.699c-0.5-6.55-2.41-13.777-10.602-13.777c-1.66,0-3.319,0-4.979,0
				c-26.29,0-52.579,0-78.869,0c-26.289,0-52.579,0-78.868,0c-1.66,0-3.319,0-4.979,0c-8.259,0-9.936,7.278-10.798,13.777
				c-1.625,12.233-3.25,24.466-4.874,36.699c-0.844,6.358,6.009,10.332,11.382,10.332c2.763,0,5.527,0,8.29,0
				c11.713,0,23.427,0,35.14,0c31.613,0,63.225,0,94.838,0c9.759,0,19.518,0,29.277,0c8.034,0,16.624,0.266,17.845-10.332
				C292.631,189.251,282.623,189.321,281.894,195.65z"/>
		</g>
	</g>
	<g>
		<g>
			<path style="fill:#FFFFFF;" d="M109.545,209.439c7.228,0,14.456,0,21.684,0c4.514,0,4.514-7,0-7c-7.228,0-14.456,0-21.684,0
				C105.031,202.439,105.031,209.439,109.545,209.439L109.545,209.439z"/>
		</g>
	</g>
	<g>
		<g>
			<path style="fill:#FFFFFF;" d="M110.908,207.485c-0.363,3.009-11.12,4.207-13.181,4.562c-8.247,1.417-16.71,1.72-25.061,1.759
				c-1.934,0.009-1.935,3.009,0,3c10.341-0.048,20.81-0.584,30.928-2.863c3.441-0.775,9.789-2.11,10.313-6.457
				C114.139,205.567,111.137,205.59,110.908,207.485L110.908,207.485z"/>
		</g>
	</g>
	<g>
		<g>
			<path style="fill:#FFFFFF;" d="M110.162,207.158c0.064,3.306-10.041,5.796-12.206,6.489c-8.1,2.594-16.558,4.118-24.959,5.339
				c-1.908,0.277-1.094,3.168,0.798,2.893c10.103-1.468,20.261-3.413,29.84-7.032c3.13-1.183,9.61-3.413,9.527-7.688
				C113.125,205.227,110.125,205.223,110.162,207.158L110.162,207.158z"/>
		</g>
	</g>
	<g>
		<g>
			<path style="fill:#FFFFFF;" d="M110.9,207.182c0.473,2.883-8.868,6.789-10.706,7.694c-7.734,3.809-16.034,6.523-24.293,8.933
				c-1.853,0.54-1.064,3.436,0.798,2.893c9.722-2.836,19.407-6.168,28.361-10.953c3.174-1.696,9.469-4.874,8.732-9.363
				C113.48,204.479,110.589,205.29,110.9,207.182L110.9,207.182z"/>
		</g>
	</g>
	<g>
		<g>
			<path style="fill:#FFFFFF;" d="M122.03,208.539c1.822,0.121-5.325,22.414-5.874,23.861c-0.688,1.812,2.214,2.588,2.893,0.797
				c1.117-2.944,11.242-27.109,2.981-27.658C120.098,205.41,120.11,208.411,122.03,208.539L122.03,208.539z"/>
		</g>
	</g>
	<g>
		<g>
			<path style="fill:#FFFFFF;" d="M123.731,210.121c2.821-0.169-1.188,21.13-1.502,22.518c-0.426,1.884,2.466,2.684,2.893,0.797
				c0.737-3.26,6.783-26.804-1.39-26.314C121.81,207.236,121.798,210.236,123.731,210.121L123.731,210.121z"/>
		</g>
	</g>
	<g>
		<g>
			<path style="fill:#FFFFFF;" d="M125.097,211.773c3.159-0.584,2.52,19.491,2.415,21.151c-0.122,1.933,2.879,1.921,3,0
				c0.235-3.744,2.21-25.603-6.213-24.044C122.399,209.232,123.206,212.123,125.097,211.773L125.097,211.773z"/>
		</g>
	</g>
	<g>
		<g>
			<path style="fill:#FFFFFF;" d="M132.26,208.964c7.944-1.192,16.302,3.889,21.556,9.402c1.337,1.403,3.455-0.722,2.121-2.121
				c-6.101-6.402-15.387-11.538-24.475-10.174C129.555,206.357,130.368,209.248,132.26,208.964L132.26,208.964z"/>
		</g>
	</g>
	<g>
		<g>
			<path style="fill:#FFFFFF;" d="M131.961,209.29c9.705-1.805,21.452,3.216,29.831,7.558c1.715,0.889,3.232-1.7,1.514-2.59
				c-9.268-4.804-21.475-9.844-32.142-7.86C129.263,206.751,130.071,209.642,131.961,209.29L131.961,209.29z"/>
		</g>
	</g>
	<g>
		<g>
			<path style="fill:#FFFFFF;" d="M131.198,209.193c5.049-1.138,10.708-0.206,15.745,0.514c7.383,1.056,14.671,2.831,21.81,4.968
				c1.858,0.557,2.646-2.34,0.798-2.893c-7.657-2.292-15.438-4.057-23.352-5.188c-5.122-0.732-10.684-1.447-15.799-0.294
				C128.513,206.726,129.313,209.618,131.198,209.193L131.198,209.193z"/>
		</g>
	</g>
	<g>
		<g>
			<path style="fill:#FFFFFF;" d="M102.323,182.488c49.837,0,99.674,0,149.512,0c10.664,0,21.329,0,31.993,0c1.935,0,1.935-3,0-3
				c-49.837,0-99.675,0-149.512,0c-10.665,0-21.329,0-31.994,0C100.388,179.489,100.388,182.488,102.323,182.488L102.323,182.488z"
				/>
		</g>
	</g>
	<g>
		<g>
			<path style="fill:#FFFFFF;" d="M124.64,150.016c19.103,0,38.205,0,57.308,0c4.514,0,4.514-7,0-7c-19.103,0-38.205,0-57.308,0
				C120.125,143.016,120.125,150.016,124.64,150.016L124.64,150.016z"/>
		</g>
	</g>
</g>
<g id="Ebene_1">
</g>
</svg>
