<?xml version="1.0" encoding="iso-8859-1"?>
<!-- Generator: Adobe Illustrator 16.0.0, SVG Export Plug-In . SVG Version: 6.00 Build 0)  -->
<!DOCTYPE svg PUBLIC "-//W3C//DTD SVG 1.1//EN" "http://www.w3.org/Graphics/SVG/1.1/DTD/svg11.dtd">
<svg version="1.1" xmlns="http://www.w3.org/2000/svg" xmlns:xlink="http://www.w3.org/1999/xlink" x="0px" y="0px" width="361px"
	 height="361px" viewBox="0 0 361 361" style="enable-background:new 0 0 361 361;" xml:space="preserve">
<g id="scene_x5F_cooking_x5F_hob">
	<path style="fill:none;stroke:#FFFFFF;stroke-miterlimit:10;" d="M44.239,93.792"/>
	<g style="display:none;">
		<g style="display:inline;">
			<g>
				<path style="fill:#FFFFFF;" d="M187.958,202.729c-3.131-5.027-8.472-2.212-13.063-0.981c-4.172,1.118-12.376,1.865-10.647,8.317
					c2.292,8.554,4.584,17.108,6.876,25.663c1.717,6.408,9.289,2.924,13.415,1.817c4.172-1.117,12.376-1.865,10.647-8.317
					c-2.292-8.554-4.585-17.108-6.877-25.663c-1.167-4.355-7.92-2.505-6.75,1.861c1.146,4.277,2.292,8.554,3.438,12.831
					c1.069,3.989,3.408,9.111,3.27,13.196c0.342-0.825,0.684-1.65,1.025-2.476c0.297-0.291,1.131-0.257,0.16,0.003
					c-0.804,0.215-1.607,0.431-2.41,0.646c-2.362,0.633-4.724,1.266-7.086,1.898c-1.539,0.412-3.077,0.824-4.615,1.236
					c2.246-0.602,2.827,2.206,2.34,0.387c-0.174-0.649-0.349-1.3-0.523-1.95c-1.247-4.653-2.494-9.307-3.741-13.961
					c-0.774-2.891-2.351-6.454-2.251-9.397c-0.342,0.825-0.684,1.65-1.025,2.476c-0.299,0.292-1.131,0.258-0.161-0.002
					c0.56-0.149,1.12-0.3,1.679-0.45c1.699-0.455,3.397-0.91,5.096-1.365s3.397-0.91,5.096-1.365c0.56-0.15,1.119-0.301,1.679-0.45
					c1.616-0.434-1.089,0.43-1.618-0.42C184.293,210.084,190.352,206.572,187.958,202.729z"/>
			</g>
		</g>
		<g style="display:inline;">
			<g>
				<path style="fill:#FFFFFF;" d="M182.625,185.591c-2.802,5.258,2.26,8.431,5.646,11.817c3.037,3.037,7.816,9.806,12.524,5.098
					c6.263-6.263,12.525-12.525,18.787-18.788c4.707-4.707-2.062-9.487-5.099-12.524s-7.816-9.805-12.523-5.098
					c-6.263,6.263-12.525,12.525-18.788,18.788c-3.195,3.194,1.755,8.144,4.949,4.949c3.132-3.131,6.263-6.262,9.395-9.393
					c2.935-2.935,6.195-7.519,9.828-9.456c-0.899,0.118-1.798,0.235-2.697,0.353c-0.38-0.106-0.792-0.873-0.072-0.152
					c0.41,0.41,0.819,0.82,1.229,1.229c1.243,1.244,2.486,2.487,3.73,3.73c1.243,1.243,2.486,2.487,3.729,3.73
					c0.41,0.41,0.82,0.819,1.229,1.229c0.721,0.721-0.046,0.308-0.151-0.071c0.117-0.898,0.234-1.798,0.353-2.697
					c-1.937,3.632-6.521,6.893-9.455,9.828s-6.196,7.521-9.828,9.456c0.898-0.118,1.798-0.235,2.697-0.354
					c0.376,0.105,0.793,0.875,0.071,0.153c-0.41-0.409-0.819-0.819-1.229-1.229c-1.243-1.243-2.486-2.486-3.73-3.73
					c-1.243-1.243-2.486-2.487-3.729-3.73c-0.41-0.409-0.82-0.819-1.229-1.229c-0.721-0.72,0.046-0.308,0.151,0.071
					c-0.117,0.899-0.234,1.798-0.353,2.697c0.203-0.381,0.406-0.762,0.609-1.143C190.792,185.143,184.749,181.606,182.625,185.591z"
					/>
			</g>
		</g>
		<g style="display:inline;">
			<g>
				<path style="fill:#FFFFFF;" d="M170.451,198.872c5.934-0.2,6.152-6.165,7.386-10.772c1.106-4.126,4.591-11.698-1.816-13.415
					c-8.555-2.292-17.109-4.584-25.664-6.877c-6.451-1.729-7.2,6.477-8.317,10.648c-1.106,4.126-4.591,11.699,1.816,13.416
					c8.555,2.292,17.109,4.584,25.664,6.876c4.367,1.17,6.217-5.583,1.861-6.75c-7.451-1.996-14.901-3.992-22.351-5.988
					c-1.089-0.292-2.177-0.583-3.266-0.875c1.805,0.483,0.681,3.931,1.333,1.496c0.245-0.915,0.49-1.83,0.735-2.745
					c0.638-2.379,1.275-4.758,1.913-7.137c0.245-0.915,0.49-1.83,0.735-2.745c0.298-1.11,0.641-0.827,0.125-0.3
					c-0.825,0.342-1.65,0.683-2.475,1.025c2.667-0.092,5.856,1.302,8.484,2.006c4.744,1.271,9.487,2.542,14.23,3.813
					c1.089,0.292,2.177,0.583,3.266,0.875c-1.805-0.483-0.681-3.932-1.333-1.498c-0.245,0.915-0.49,1.831-0.735,2.746
					c-0.638,2.379-1.275,4.758-1.913,7.138c-0.245,0.915-0.49,1.83-0.735,2.745c-0.297,1.108-0.642,0.828-0.125,0.301
					c0.825-0.342,1.65-0.684,2.475-1.025c-0.432,0.015-0.863,0.029-1.294,0.044C165.95,192.023,165.935,199.024,170.451,198.872z"/>
			</g>
		</g>
		<g style="display:inline;">
			<g>
				<path style="fill:#FFFFFF;" d="M178.21,199.798c0.731-2.727,1.462-5.453,2.192-8.181c-0.835,0.221-1.671,0.441-2.507,0.662
					c1.996,1.996,3.993,3.992,5.989,5.988c0.221-0.836,0.441-1.671,0.662-2.507c-2.728,0.73-5.455,1.462-8.182,2.192
					c-1.867,0.5-1.074,3.395,0.798,2.893c2.727-0.73,5.455-1.462,8.181-2.192c1.093-0.293,1.456-1.713,0.662-2.507
					c-1.996-1.996-3.993-3.992-5.989-5.988c-0.794-0.794-2.214-0.431-2.507,0.662c-0.731,2.727-1.462,5.453-2.192,8.181
					C174.816,200.872,177.71,201.665,178.21,199.798z"/>
			</g>
		</g>
	</g>
	<g>
		<g>
			<path style="fill:#FFFFFF;" d="M84.95,281.988c-7.313-0.492-5.186-12.366-5.186-17.284c0-11.992,0-23.984,0-35.977
				c0-31.947,0-63.895,0-95.842c0-11.871,0-23.742,0-35.612c0-4.511-2.032-16.771,5.192-16.771c18.101,0,36.202,0,54.304,0
				c31.835,0,63.671,0,95.506,0c10.97,0,21.938,0,32.908,0c4.741,0,13.446-1.509,13.446,5.623c0,51.736,0,103.472,0,155.208
				c0,10.004,0,20.007,0,30.01c0,5.168,0.199,10.646-6.696,10.646c-21.969,0-43.938,0-65.908,0
				C167.328,281.988,126.139,281.988,84.95,281.988c-6.449,0-6.449,10,0,10c49.659,0,99.317,0,148.976,0c11.102,0,22.204,0,33.306,0
				c8.689,0,17.717,0.648,22.406-8.697c2.659-5.298,1.483-13.396,1.483-19.11c0-12.111,0-24.224,0-36.335
				c0-31.944,0-63.889,0-95.833c0-11.748,0-23.496,0-35.244c0-6.769,1.225-15.374-3.587-20.84
				c-5.744-6.526-13.937-5.426-21.694-5.426c-11.489,0-22.979,0-34.469,0c-31.906,0-63.813,0-95.719,0c-12.338,0-24.676,0-37.014,0
				c-5.786,0-12.012-0.625-17.725,0.542c-11.184,2.285-11.148,13.691-11.148,22.477c0,10.843,0,21.685,0,32.528
				c0,50.242,0,100.483,0,150.726c0,8.673,6.939,14.658,15.186,15.213C91.391,292.422,91.349,282.419,84.95,281.988z"/>
		</g>
	</g>
	<g style="display:none;">
		<g style="display:inline;">
			<g>
				<path style="fill:#FFFFFF;" d="M109,278.834c1.903,0,3.806,0,5.709,0c1.935,0,1.935-3,0-3c-1.903,0-3.806,0-5.709,0
					C107.066,275.834,107.066,278.834,109,278.834L109,278.834z"/>
			</g>
		</g>
		<g style="display:inline;">
			<g>
				<path style="fill:#FFFFFF;" d="M120.651,278.834c1.903,0,3.806,0,5.709,0c1.935,0,1.935-3,0-3c-1.903,0-3.806,0-5.709,0
					C118.717,275.834,118.717,278.834,120.651,278.834L120.651,278.834z"/>
			</g>
		</g>
		<g style="display:inline;">
			<g>
				<path style="fill:#FFFFFF;" d="M132.302,278.834c1.903,0,3.806,0,5.709,0c1.935,0,1.935-3,0-3c-1.903,0-3.806,0-5.709,0
					C130.368,275.834,130.368,278.834,132.302,278.834L132.302,278.834z"/>
			</g>
		</g>
		<g style="display:inline;">
			<g>
				<path style="fill:#FFFFFF;" d="M143.953,278.834c1.903,0,3.806,0,5.709,0c1.935,0,1.935-3,0-3c-1.903,0-3.806,0-5.709,0
					C142.019,275.834,142.019,278.834,143.953,278.834L143.953,278.834z"/>
			</g>
		</g>
		<g style="display:inline;">
			<g>
				<path style="fill:#FFFFFF;" d="M155.604,278.834c1.903,0,3.806,0,5.709,0c1.935,0,1.935-3,0-3c-1.903,0-3.806,0-5.709,0
					C153.669,275.834,153.669,278.834,155.604,278.834L155.604,278.834z"/>
			</g>
		</g>
		<g style="display:inline;">
			<g>
				<path style="fill:#FFFFFF;" d="M167.255,278.834c1.903,0,3.806,0,5.709,0c1.935,0,1.935-3,0-3c-1.903,0-3.806,0-5.709,0
					C165.32,275.834,165.32,278.834,167.255,278.834L167.255,278.834z"/>
			</g>
		</g>
		<g style="display:inline;">
			<g>
				<path style="fill:#FFFFFF;" d="M178.906,278.834c1.903,0,3.806,0,5.709,0c1.935,0,1.935-3,0-3c-1.903,0-3.806,0-5.709,0
					C176.971,275.834,176.971,278.834,178.906,278.834L178.906,278.834z"/>
			</g>
		</g>
		<g style="display:inline;">
			<g>
				<path style="fill:#FFFFFF;" d="M190.557,278.834c1.903,0,3.806,0,5.709,0c1.935,0,1.935-3,0-3c-1.903,0-3.806,0-5.709,0
					C188.622,275.834,188.622,278.834,190.557,278.834L190.557,278.834z"/>
			</g>
		</g>
		<g style="display:inline;">
			<g>
				<path style="fill:#FFFFFF;" d="M202.208,278.834c1.903,0,3.806,0,5.709,0c1.935,0,1.935-3,0-3c-1.903,0-3.806,0-5.709,0
					C200.273,275.834,200.273,278.834,202.208,278.834L202.208,278.834z"/>
			</g>
		</g>
		<g style="display:inline;">
			<g>
				<path style="fill:#FFFFFF;" d="M213.859,278.834c1.903,0,3.806,0,5.709,0c1.935,0,1.935-3,0-3c-1.903,0-3.806,0-5.709,0
					C211.925,275.834,211.925,278.834,213.859,278.834L213.859,278.834z"/>
			</g>
		</g>
		<g style="display:inline;">
			<g>
				<path style="fill:#FFFFFF;" d="M225.51,278.834c1.903,0,3.806,0,5.709,0c1.935,0,1.935-3,0-3c-1.903,0-3.806,0-5.709,0
					C223.575,275.834,223.575,278.834,225.51,278.834L225.51,278.834z"/>
			</g>
		</g>
		<g style="display:inline;">
			<g>
				<path style="fill:#FFFFFF;" d="M237.16,278.834c1.903,0,3.806,0,5.709,0c1.935,0,1.935-3,0-3c-1.903,0-3.806,0-5.709,0
					C235.226,275.834,235.226,278.834,237.16,278.834L237.16,278.834z"/>
			</g>
		</g>
		<g style="display:inline;">
			<g>
				<path style="fill:#FFFFFF;" d="M248.812,278.834c1.903,0,3.806,0,5.709,0c1.935,0,1.935-3,0-3c-1.903,0-3.806,0-5.709,0
					C246.877,275.834,246.877,278.834,248.812,278.834L248.812,278.834z"/>
			</g>
		</g>
		<g style="display:inline;">
			<g>
				<path style="fill:#FFFFFF;" d="M260.463,278.834c1.903,0,3.806,0,5.709,0c1.935,0,1.935-3,0-3c-1.903,0-3.806,0-5.709,0
					C258.528,275.834,258.528,278.834,260.463,278.834L260.463,278.834z"/>
			</g>
		</g>
		<g style="display:inline;">
			<g>
				<path style="fill:#FFFFFF;" d="M272.113,278.834c1.903,0,3.806,0,5.709,0c1.935,0,1.935-3,0-3c-1.903,0-3.806,0-5.709,0
					C270.179,275.834,270.179,278.834,272.113,278.834L272.113,278.834z"/>
			</g>
		</g>
		<g style="display:inline;">
			<g>
				<path style="fill:#FFFFFF;" d="M283.764,278.834c1.903,0,3.806,0,5.709,0c1.935,0,1.935-3,0-3c-1.903,0-3.806,0-5.709,0
					C281.829,275.834,281.829,278.834,283.764,278.834L283.764,278.834z"/>
			</g>
		</g>
		<g style="display:inline;">
			<g>
				<g>
					<g>
						<path style="fill:#FFFFFF;" d="M107.683,160.834c1.903,0,3.806,0,5.709,0c1.935,0,1.935-3,0-3c-1.903,0-3.806,0-5.709,0
							C105.749,157.834,105.749,160.834,107.683,160.834L107.683,160.834z"/>
					</g>
				</g>
				<g>
					<g>
						<path style="fill:#FFFFFF;" d="M119.334,160.834c1.903,0,3.806,0,5.709,0c1.935,0,1.935-3,0-3c-1.903,0-3.806,0-5.709,0
							C117.399,157.834,117.399,160.834,119.334,160.834L119.334,160.834z"/>
					</g>
				</g>
				<g>
					<g>
						<path style="fill:#FFFFFF;" d="M130.985,160.834c1.903,0,3.806,0,5.709,0c1.935,0,1.935-3,0-3c-1.903,0-3.806,0-5.709,0
							C129.05,157.834,129.05,160.834,130.985,160.834L130.985,160.834z"/>
					</g>
				</g>
				<g>
					<g>
						<path style="fill:#FFFFFF;" d="M142.636,160.834c1.903,0,3.806,0,5.709,0c1.935,0,1.935-3,0-3c-1.903,0-3.806,0-5.709,0
							C140.701,157.834,140.701,160.834,142.636,160.834L142.636,160.834z"/>
					</g>
				</g>
				<g>
					<g>
						<path style="fill:#FFFFFF;" d="M154.287,160.834c1.903,0,3.806,0,5.709,0c1.935,0,1.935-3,0-3c-1.903,0-3.806,0-5.709,0
							C152.352,157.834,152.352,160.834,154.287,160.834L154.287,160.834z"/>
					</g>
				</g>
				<g>
					<g>
						<path style="fill:#FFFFFF;" d="M165.938,160.834c1.903,0,3.806,0,5.709,0c1.935,0,1.935-3,0-3c-1.903,0-3.806,0-5.709,0
							C164.003,157.834,164.003,160.834,165.938,160.834L165.938,160.834z"/>
					</g>
				</g>
				<g>
					<g>
						<path style="fill:#FFFFFF;" d="M177.588,160.834c1.903,0,3.806,0,5.708,0c1.935,0,1.935-3,0-3c-1.902,0-3.806,0-5.708,0
							C175.654,157.834,175.654,160.834,177.588,160.834L177.588,160.834z"/>
					</g>
				</g>
				<g>
					<g>
						<path style="fill:#FFFFFF;" d="M189.239,160.834c1.903,0,3.806,0,5.709,0c1.935,0,1.935-3,0-3c-1.903,0-3.806,0-5.709,0
							C187.305,157.834,187.305,160.834,189.239,160.834L189.239,160.834z"/>
					</g>
				</g>
				<g>
					<g>
						<path style="fill:#FFFFFF;" d="M200.891,160.834c1.903,0,3.806,0,5.709,0c1.935,0,1.935-3,0-3c-1.903,0-3.806,0-5.709,0
							C198.956,157.834,198.956,160.834,200.891,160.834L200.891,160.834z"/>
					</g>
				</g>
				<g>
					<g>
						<path style="fill:#FFFFFF;" d="M212.541,160.834c1.903,0,3.806,0,5.709,0c1.935,0,1.935-3,0-3c-1.903,0-3.806,0-5.709,0
							C210.606,157.834,210.606,160.834,212.541,160.834L212.541,160.834z"/>
					</g>
				</g>
				<g>
					<g>
						<path style="fill:#FFFFFF;" d="M224.192,160.834c1.903,0,3.806,0,5.709,0c1.935,0,1.935-3,0-3c-1.903,0-3.806,0-5.709,0
							C222.258,157.834,222.258,160.834,224.192,160.834L224.192,160.834z"/>
					</g>
				</g>
				<g>
					<g>
						<path style="fill:#FFFFFF;" d="M235.844,160.834c1.903,0,3.806,0,5.709,0c1.935,0,1.935-3,0-3c-1.903,0-3.806,0-5.709,0
							C233.909,157.834,233.909,160.834,235.844,160.834L235.844,160.834z"/>
					</g>
				</g>
				<g>
					<g>
						<path style="fill:#FFFFFF;" d="M247.494,160.834c1.903,0,3.806,0,5.709,0c1.935,0,1.935-3,0-3c-1.903,0-3.806,0-5.709,0
							C245.56,157.834,245.56,160.834,247.494,160.834L247.494,160.834z"/>
					</g>
				</g>
			</g>
			<g>
				<g>
					<g>
						<path style="fill:#FFFFFF;" d="M107.648,245.167c1.903,0,3.806,0,5.709,0c1.935,0,1.935-3,0-3c-1.903,0-3.806,0-5.709,0
							C105.713,242.167,105.713,245.167,107.648,245.167L107.648,245.167z"/>
					</g>
				</g>
				<g>
					<g>
						<path style="fill:#FFFFFF;" d="M119.299,245.167c1.903,0,3.806,0,5.709,0c1.935,0,1.935-3,0-3c-1.903,0-3.806,0-5.709,0
							C117.364,242.167,117.364,245.167,119.299,245.167L119.299,245.167z"/>
					</g>
				</g>
				<g>
					<g>
						<path style="fill:#FFFFFF;" d="M130.95,245.167c1.903,0,3.806,0,5.709,0c1.935,0,1.935-3,0-3c-1.903,0-3.806,0-5.709,0
							C129.015,242.167,129.015,245.167,130.95,245.167L130.95,245.167z"/>
					</g>
				</g>
				<g>
					<g>
						<path style="fill:#FFFFFF;" d="M142.601,245.167c1.903,0,3.806,0,5.709,0c1.935,0,1.935-3,0-3c-1.903,0-3.806,0-5.709,0
							C140.666,242.167,140.666,245.167,142.601,245.167L142.601,245.167z"/>
					</g>
				</g>
				<g>
					<g>
						<path style="fill:#FFFFFF;" d="M154.251,245.167c1.903,0,3.806,0,5.709,0c1.935,0,1.935-3,0-3c-1.903,0-3.806,0-5.709,0
							C152.317,242.167,152.317,245.167,154.251,245.167L154.251,245.167z"/>
					</g>
				</g>
				<g>
					<g>
						<path style="fill:#FFFFFF;" d="M165.902,245.167c1.903,0,3.806,0,5.709,0c1.935,0,1.935-3,0-3c-1.903,0-3.806,0-5.709,0
							C163.968,242.167,163.968,245.167,165.902,245.167L165.902,245.167z"/>
					</g>
				</g>
				<g>
					<g>
						<path style="fill:#FFFFFF;" d="M177.553,245.167c1.903,0,3.806,0,5.708,0c1.935,0,1.935-3,0-3c-1.902,0-3.806,0-5.708,0
							C175.619,242.167,175.619,245.167,177.553,245.167L177.553,245.167z"/>
					</g>
				</g>
				<g>
					<g>
						<path style="fill:#FFFFFF;" d="M189.204,245.167c1.903,0,3.806,0,5.709,0c1.935,0,1.935-3,0-3c-1.903,0-3.806,0-5.709,0
							C187.27,242.167,187.27,245.167,189.204,245.167L189.204,245.167z"/>
					</g>
				</g>
				<g>
					<g>
						<path style="fill:#FFFFFF;" d="M200.855,245.167c1.903,0,3.806,0,5.709,0c1.935,0,1.935-3,0-3c-1.903,0-3.806,0-5.709,0
							C198.921,242.167,198.921,245.167,200.855,245.167L200.855,245.167z"/>
					</g>
				</g>
				<g>
					<g>
						<path style="fill:#FFFFFF;" d="M212.506,245.167c1.903,0,3.806,0,5.709,0c1.935,0,1.935-3,0-3c-1.903,0-3.806,0-5.709,0
							C210.571,242.167,210.571,245.167,212.506,245.167L212.506,245.167z"/>
					</g>
				</g>
				<g>
					<g>
						<path style="fill:#FFFFFF;" d="M224.157,245.167c1.903,0,3.806,0,5.709,0c1.935,0,1.935-3,0-3c-1.903,0-3.806,0-5.709,0
							C222.223,242.167,222.223,245.167,224.157,245.167L224.157,245.167z"/>
					</g>
				</g>
				<g>
					<g>
						<path style="fill:#FFFFFF;" d="M235.809,245.167c1.903,0,3.806,0,5.709,0c1.935,0,1.935-3,0-3c-1.903,0-3.806,0-5.709,0
							C233.874,242.167,233.874,245.167,235.809,245.167L235.809,245.167z"/>
					</g>
				</g>
				<g>
					<g>
						<path style="fill:#FFFFFF;" d="M247.459,245.167c1.903,0,3.806,0,5.709,0c1.935,0,1.935-3,0-3c-1.903,0-3.806,0-5.709,0
							C245.524,242.167,245.524,245.167,247.459,245.167L247.459,245.167z"/>
					</g>
				</g>
			</g>
			<g>
				<g>
					<g>
						<path style="fill:#FFFFFF;" d="M256.963,239.345c0-1.903,0-3.806,0-5.709c0-1.935-3-1.935-3,0c0,1.903,0,3.806,0,5.709
							C253.963,241.279,256.963,241.279,256.963,239.345L256.963,239.345z"/>
					</g>
				</g>
				<g>
					<g>
						<path style="fill:#FFFFFF;" d="M256.963,227.694c0-1.903,0-3.806,0-5.709c0-1.935-3-1.935-3,0c0,1.903,0,3.806,0,5.709
							C253.963,229.629,256.963,229.629,256.963,227.694L256.963,227.694z"/>
					</g>
				</g>
				<g>
					<g>
						<path style="fill:#FFFFFF;" d="M256.963,216.043c0-1.903,0-3.806,0-5.709c0-1.935-3-1.935-3,0c0,1.903,0,3.806,0,5.709
							C253.963,217.978,256.963,217.978,256.963,216.043L256.963,216.043z"/>
					</g>
				</g>
				<g>
					<g>
						<path style="fill:#FFFFFF;" d="M256.963,204.393c0-1.903,0-3.806,0-5.709c0-1.935-3-1.935-3,0c0,1.903,0,3.806,0,5.709
							C253.963,206.327,256.963,206.327,256.963,204.393L256.963,204.393z"/>
					</g>
				</g>
				<g>
					<g>
						<path style="fill:#FFFFFF;" d="M256.963,192.741c0-1.903,0-3.806,0-5.709c0-1.935-3-1.935-3,0c0,1.903,0,3.806,0,5.709
							C253.963,194.676,256.963,194.676,256.963,192.741L256.963,192.741z"/>
					</g>
				</g>
				<g>
					<g>
						<path style="fill:#FFFFFF;" d="M256.963,181.091c0-1.903,0-3.806,0-5.709c0-1.935-3-1.935-3,0c0,1.903,0,3.806,0,5.709
							C253.963,183.025,256.963,183.025,256.963,181.091L256.963,181.091z"/>
					</g>
				</g>
				<g>
					<g>
						<path style="fill:#FFFFFF;" d="M256.963,169.44c0-1.903,0-3.806,0-5.709c0-1.935-3-1.935-3,0c0,1.903,0,3.806,0,5.709
							C253.963,171.375,256.963,171.375,256.963,169.44L256.963,169.44z"/>
					</g>
				</g>
			</g>
			<g>
				<g>
					<g>
						<path style="fill:#FFFFFF;" d="M106,238.84c0-1.903,0-3.806,0-5.709c0-1.935-3-1.935-3,0c0,1.903,0,3.806,0,5.709
							C103,240.774,106,240.774,106,238.84L106,238.84z"/>
					</g>
				</g>
				<g>
					<g>
						<path style="fill:#FFFFFF;" d="M106,227.188c0-1.903,0-3.806,0-5.709c0-1.935-3-1.935-3,0c0,1.903,0,3.806,0,5.709
							C103,229.123,106,229.123,106,227.188L106,227.188z"/>
					</g>
				</g>
				<g>
					<g>
						<path style="fill:#FFFFFF;" d="M106,215.538c0-1.903,0-3.806,0-5.709c0-1.935-3-1.935-3,0c0,1.903,0,3.806,0,5.709
							C103,217.473,106,217.473,106,215.538L106,215.538z"/>
					</g>
				</g>
				<g>
					<g>
						<path style="fill:#FFFFFF;" d="M106,203.887c0-1.903,0-3.806,0-5.709c0-1.935-3-1.935-3,0c0,1.903,0,3.806,0,5.709
							C103,205.821,106,205.821,106,203.887L106,203.887z"/>
					</g>
				</g>
				<g>
					<g>
						<path style="fill:#FFFFFF;" d="M106,192.236c0-1.903,0-3.806,0-5.709c0-1.935-3-1.935-3,0c0,1.903,0,3.806,0,5.709
							C103,194.171,106,194.171,106,192.236L106,192.236z"/>
					</g>
				</g>
				<g>
					<g>
						<path style="fill:#FFFFFF;" d="M106,180.585c0-1.903,0-3.806,0-5.709c0-1.935-3-1.935-3,0c0,1.903,0,3.806,0,5.709
							C103,182.521,106,182.521,106,180.585L106,180.585z"/>
					</g>
				</g>
				<g>
					<g>
						<path style="fill:#FFFFFF;" d="M106,168.935c0-1.903,0-3.806,0-5.709c0-1.935-3-1.935-3,0c0,1.903,0,3.806,0,5.709
							C103,170.869,106,170.869,106,168.935L106,168.935z"/>
					</g>
				</g>
			</g>
		</g>
	</g>
	<g>
		<g>
			<path style="fill:#FFFFFF;" d="M162.333,133.804c-0.362,17.437-14.063,31.138-31.5,31.5c-17.436,0.362-31.149-14.608-31.5-31.5
				c-0.362-17.436,14.608-31.149,31.5-31.5C148.269,101.942,161.982,116.912,162.333,133.804c0.04,1.932,3.04,1.936,3,0
				c-0.396-19.083-15.417-34.104-34.5-34.5c-19.083-0.396-34.116,16.013-34.5,34.5c-0.396,19.083,16.013,34.116,34.5,34.5
				c19.083,0.396,34.116-16.013,34.5-34.5C165.373,131.868,162.373,131.872,162.333,133.804z"/>
		</g>
	</g>
	<g>
		<g>
			<path style="fill:#FFFFFF;" d="M154.291,222.667c-0.352,13.048-10.409,23.105-23.457,23.457
				c-13.046,0.352-23.122-10.939-23.459-23.457c-0.352-13.047,10.941-23.12,23.459-23.458
				C143.88,198.857,153.954,210.149,154.291,222.667c0.052,1.931,3.052,1.936,3,0c-0.396-14.696-11.76-26.062-26.457-26.458
				c-14.694-0.396-26.079,12.355-26.459,26.458c-0.396,14.694,12.357,26.077,26.459,26.457
				c14.693,0.396,26.077-12.356,26.457-26.457C157.343,220.731,154.343,220.736,154.291,222.667z"/>
		</g>
	</g>
	<g>
		<g>
			<path style="fill:#FFFFFF;" d="M138.833,133.804c-0.555,10.311-15.445,10.311-16,0
				C122.277,123.488,138.28,123.542,138.833,133.804c0.104,1.924,3.104,1.934,3,0c-0.335-6.226-4.774-10.665-11-11
				c-6.212-0.334-10.692,5.279-11,11c-0.334,6.212,5.279,10.692,11,11c6.212,0.334,10.692-5.279,11-11
				C141.937,131.87,138.937,131.88,138.833,133.804z"/>
		</g>
	</g>
	<g>
		<g>
			<path style="fill:#FFFFFF;" d="M263.083,133.804c-0.361,12.938-10.312,22.889-23.25,23.25
				c-12.936,0.361-22.904-10.855-23.25-23.25c-0.361-12.935,10.854-22.904,23.25-23.25
				C252.769,110.193,262.737,121.409,263.083,133.804c0.054,1.931,3.054,1.936,3,0c-0.407-14.593-11.656-25.843-26.25-26.25
				c-14.59-0.407-25.86,12.269-26.25,26.25c-0.407,14.589,12.27,25.86,26.25,26.25c14.59,0.407,25.86-12.269,26.25-26.25
				C266.137,131.868,263.137,131.873,263.083,133.804z"/>
		</g>
	</g>
	<g>
		<g>
			<path style="fill:#FFFFFF;" d="M263.641,222.668c-0.361,17.387-14.025,31.05-31.412,31.41s-31.063-14.565-31.412-31.41
				c-0.361-17.388,14.566-31.063,31.412-31.413C249.617,190.894,263.291,205.823,263.641,222.668c0.04,1.932,3.04,1.936,3,0
				c-0.395-19.035-15.377-34.018-34.412-34.413s-34.029,15.973-34.412,34.413c-0.395,19.034,15.973,34.027,34.412,34.41
				c19.033,0.395,34.029-15.971,34.412-34.41C266.681,220.732,263.681,220.736,263.641,222.668z"/>
		</g>
	</g>
	<g>
		<g>
			<path style="fill:#FFFFFF;" d="M247.833,133.804c-0.556,10.311-15.444,10.311-16,0
				C231.277,123.487,247.28,123.542,247.833,133.804c0.104,1.924,3.104,1.934,3,0c-0.335-6.226-4.774-10.665-11-11
				c-6.213-0.334-10.692,5.279-11,11c-0.335,6.212,5.278,10.692,11,11c6.213,0.334,10.692-5.279,11-11
				C250.938,131.87,247.937,131.88,247.833,133.804z"/>
		</g>
	</g>
	<g>
		<g>
			<path style="fill:#FFFFFF;" d="M239.925,222.668c-0.534,9.918-14.858,9.918-15.393,0
				C223.997,212.742,239.394,212.794,239.925,222.668c0.104,1.924,3.104,1.934,3,0c-0.326-6.054-4.643-10.371-10.696-10.697
				c-6.041-0.325-10.396,5.135-10.696,10.697c-0.325,6.04,5.134,10.396,10.696,10.695c6.04,0.325,10.396-5.133,10.696-10.695
				C243.029,220.734,240.028,220.744,239.925,222.668z"/>
		</g>
	</g>
	<g>
		<g>
			<path style="fill:#FFFFFF;" d="M138.451,222.667c-0.529,9.819-14.708,9.818-15.236,0
				C122.686,212.841,137.925,212.892,138.451,222.667c0.104,1.924,3.104,1.934,3,0c-0.324-6.009-4.607-10.296-10.617-10.62
				c-5.998-0.323-10.322,5.098-10.619,10.62c-0.323,5.997,5.097,10.321,10.619,10.618c5.996,0.323,10.32-5.097,10.617-10.618
				C141.555,220.733,138.555,220.743,138.451,222.667z"/>
		</g>
	</g>
	<g>
		<g>
			<g>
				<path style="fill:#FFFFFF;" d="M206.949,157.054c-12.938-0.361-22.889-10.312-23.25-23.25
					c-0.36-12.936,10.854-22.904,23.25-23.25c1.931-0.054,1.936-3.054,0-3c-14.594,0.407-25.843,11.656-26.25,26.25
					c-0.407,14.59,12.269,25.86,26.25,26.25C208.885,160.108,208.88,157.107,206.949,157.054L206.949,157.054z"/>
			</g>
		</g>
		<g>
			<g>
				<path style="fill:#FFFFFF;" d="M206.949,110.554c4.706,0,9.413,0,14.119,0c1.935,0,1.935-3,0-3c-4.706,0-9.413,0-14.119,0
					C205.015,107.554,205.015,110.554,206.949,110.554L206.949,110.554z"/>
			</g>
		</g>
		<g>
			<g>
				<path style="fill:#FFFFFF;" d="M206.949,160.054c4.706,0,9.413,0,14.119,0c1.935,0,1.935-3,0-3c-4.706,0-9.413,0-14.119,0
					C205.015,157.054,205.015,160.054,206.949,160.054L206.949,160.054z"/>
			</g>
		</g>
	</g>
	<g>
		<g>
			<path style="fill:#FFFFFF;" d="M136.44,269.955c2.477,0,4.955,0,7.432,0c1.935,0,1.935-3,0-3c-2.477,0-4.955,0-7.432,0
				C134.506,266.955,134.506,269.955,136.44,269.955L136.44,269.955z"/>
		</g>
	</g>
	<g>
		<g>
			<path style="fill:#FFFFFF;" d="M155.791,269.955c17.053,0,34.105,0,51.158,0c1.935,0,1.935-3,0-3c-17.053,0-34.105,0-51.158,0
				C153.856,266.955,153.856,269.955,155.791,269.955L155.791,269.955z"/>
		</g>
	</g>
	<g>
		<g>
			<path style="fill:#FFFFFF;" d="M218.316,269.955c2.478,0,4.954,0,7.432,0c1.935,0,1.935-3,0-3c-2.478,0-4.954,0-7.432,0
				C216.382,266.955,216.382,269.955,218.316,269.955L218.316,269.955z"/>
		</g>
	</g>
</g>
<g id="Ebene_1">
</g>
</svg>
