<?xml version="1.0" encoding="iso-8859-1"?>
<!-- Generator: Adobe Illustrator 16.0.0, SVG Export Plug-In . SVG Version: 6.00 Build 0)  -->
<!DOCTYPE svg PUBLIC "-//W3C//DTD SVG 1.1//EN" "http://www.w3.org/Graphics/SVG/1.1/DTD/svg11.dtd">
<svg version="1.1" xmlns="http://www.w3.org/2000/svg" xmlns:xlink="http://www.w3.org/1999/xlink" x="0px" y="0px" width="361px"
	 height="361px" viewBox="0 0 361 361" style="enable-background:new 0 0 361 361;" xml:space="preserve">
<g id="scene_x5F_dressing_x5F_room_x5F_alternat">
	<g>
		<g>
			<path style="fill:#FFFFFF;" d="M278.071,163.479c-8.515-9.796-17.03-19.593-25.545-29.39
				c-5.438-6.256-10.875-12.511-16.313-18.767c-4.313-4.963-6.634-7.956-13.813-8.613c0,3.333,0,6.667,0,10
				c0.551-0.021,1.115-0.085,1.646-0.208c3.463-0.796,5.093-5.963,2.206-8.357c-3.273-2.713-10.78-2.357-14.419-0.799
				c-3.792,1.623-6.288,5.846-8.593,9.043c-7.539,10.458-17.526,18.173-31.064,13.464c-10.373-3.608-12.403-15.292-20.154-21.571
				c-4.27-3.458-10.234-2.481-15.328-1.671c-5.431,0.862-5.235,8.339-0.417,9.92c0-3.214,0-6.428,0-9.643
				c-4.715,0.667-7.317,4.724-10.241,8.087c-4.332,4.984-8.665,9.969-12.997,14.953c-9.282,10.679-18.563,21.358-27.845,32.037
				c-3.843,4.421-7.351,10.336-2.547,15.736c4.051,4.554,9.35,8.276,13.964,12.241c4.89,4.203,10.946,11.4,18.125,7.83
				c5.337-2.654,9.833-8.806,13.997-12.913c2.44-2.407,4.881-4.814,7.321-7.221c-2.845-1.179-5.69-2.357-8.536-3.536
				c0,24.1,0,48.2,0,72.299c0,11.166,0,22.331,0,33.496c0,5.973,3.395,11.77,10.103,11.77c3.02,0,6.039,0,9.059,0
				c25.219,0,50.438,0,75.658,0c12.481,0,10.148-15.269,10.148-23.455c0-14.961,0-29.922,0-44.883c0-17.094,0-34.188,0-51.283
				c-2.845,1.179-5.69,2.357-8.535,3.536c4.452,4.392,8.905,8.784,13.358,13.175c5.259,5.187,11.027,12.288,19.058,7.067
				c5.313-3.454,9.992-8.5,14.786-12.62c5.679-4.881,13.135-10.35,7.699-18.713c-3.499-5.384-12.16-0.378-8.635,5.047
				c1.238,1.905-7.774,8.004-9.08,9.126c-2.365,2.033-4.73,4.066-7.096,6.099c-1.033,0.888-3.123,3.302-3.838,2.667
				c-6.682-5.945-12.813-12.638-19.183-18.919c-3.098-3.055-8.535-0.848-8.535,3.536c0,23.977,0,47.954,0,71.931
				c0,11.684,0,23.368,0,35.052c0,2.045,0.55,2.639-1.559,2.639c-4.693,0-9.388,0-14.081,0c-15.654,0-31.309,0-46.963,0
				c-5.907,0-11.813,0-17.72,0c-1.055,0-4.646,0.727-4.646-0.673c0-26.046,0-52.093,0-78.139c0-9.585,0-19.169,0-28.753
				c0-4.384-5.438-6.591-8.536-3.536c-3.821,3.769-7.643,7.538-11.464,11.307c-2.036,2.009-4.073,4.017-6.109,6.025
				c-1.247,1.229-1.173,0.606-2.731-0.733c-5.151-4.427-10.302-8.854-15.453-13.281c-0.304-0.261-2.911-2.606-3.035-2.463
				c0.793-0.913,1.586-1.825,2.379-2.737c8.759-10.077,17.518-20.154,26.277-30.231c4.365-5.022,8.729-10.043,13.094-15.065
				c1.54-1.772,4.484-6.502,6.994-6.857c5.28-0.747,4.233-8.253,0-9.643c1.222,0.349,2.182,1.088,2.879,2.218
				c0,1.682,0,3.365,0,5.047c-1.596,2.964-2.229,2.076-2.892,2.156c1.282-0.155,2.583-0.192,3.872-0.255
				c0.783-0.038,4.588,0.561,2.387-0.411c0.5,0.22,0.176,0.005,0.929,0.775c2.48,2.538,4.152,6.034,6.204,8.917
				c6.545,9.2,15.159,15.2,26.651,15.937c11.451,0.734,21.409-5.354,28.441-13.919c2.536-3.089,4.644-6.519,7.23-9.561
				c1.024-1.205,2.235-1.406,0.957-1.346c1.724-0.081,3.496,0.072,5.223,0.123c2.813,0.083,0.903,0.752-1.636-1.353
				c0.735-2.786,1.471-5.571,2.207-8.357c1.751-0.403,1.521-0.169,1.013-0.15c-6.531,0.25-6.344,9.419,0,10
				c3.713,0.34,6.198,5.058,8.502,7.709c5.285,6.08,10.569,12.16,15.854,18.24c8.081,9.298,16.162,18.595,24.244,27.893
				C275.238,175.425,282.281,168.321,278.071,163.479z"/>
		</g>
	</g>
	<g style="display:none;">
		<g style="display:inline;">
			<g>
				<path style="fill:#FFFFFF;" d="M181.956,50.938c2.022-12.383-12.599-18.92-12.967-30.751c-0.2-6.429-10-6.463-10,0
					c0,0.589,0,1.178,0,1.768c0,6.492,9.633,6.391,10,0c0.257-4.478,3.879-7.073,8.138-7.287c-1.667-1.667-3.333-3.333-5-5
					c0,0.035,0,0.07,0,0.105c0,2.859,2.281,4.824,5,5c4.165,0.27,8.46,4.852,7.375,9.115c-1.592,6.253,8.053,8.904,9.643,2.658
					c2.76-10.841-6.354-21.083-17.018-21.773c1.667,1.667,3.333,3.333,5,5c0-0.035,0-0.07,0-0.105c0-2.622-2.275-5.137-5-5
					c-9.917,0.499-17.558,7.187-18.138,17.287c3.333,0,6.667,0,10,0c0-0.589,0-1.178,0-1.768c-3.333,0-6.667,0-10,0
					c0.186,5.98,2.512,11.145,5.789,16.059c1.738,2.606,8.095,8.601,7.535,12.034C171.283,54.585,180.918,57.29,181.956,50.938
					L181.956,50.938z"/>
			</g>
		</g>
		<g style="display:inline;">
			<g>
				<path style="fill:#FFFFFF;" d="M126.383,71.183c0.246-5.41,10.959-8.668,15.042-10.011c12.01-3.95,24.905-5.005,37.473-5.074
					c6.447-0.036,6.451-10.036,0-10c-14.718,0.082-29.916,1.564-43.803,6.713c-8.238,3.055-18.263,8.457-18.712,18.372
					C116.091,77.633,126.092,77.604,126.383,71.183L126.383,71.183z"/>
			</g>
		</g>
		<g style="display:inline;">
			<g>
				<path style="fill:#FFFFFF;" d="M243.35,71.412c-0.437-9.626-9.692-14.625-17.563-17.919
					c-13.906-5.819-30.052-7.083-44.953-7.166c-6.45-0.036-6.447,9.964,0,10c12.228,0.068,24.407,1.242,36.178,4.673
					c4.3,1.253,16.079,4.701,16.338,10.412C233.641,77.833,243.643,77.861,243.35,71.412L243.35,71.412z"/>
			</g>
		</g>
	</g>
	<g>
		<g>
			<g>
				<path style="fill:#FFFFFF;" d="M183.892,111.655c1.763-11.333-11.251-17.053-11.631-27.762c-0.228-6.424-10-6.467-10,0
					c0,0.529,0,1.059,0,1.588c0,6.498,9.607,6.383,10,0c0.23-3.746,3.255-5.848,6.803-6.039c-1.667-1.667-3.333-3.333-5-5
					c0,0.031,0,0.063,0,0.094c0,2.875,2.283,4.803,5,5c3.427,0.249,7,4.021,6.137,7.546c-1.535,6.263,8.108,8.919,9.643,2.658
					c2.485-10.142-5.815-19.481-15.779-20.205c1.667,1.667,3.333,3.333,5,5c0-0.031,0-0.063,0-0.094c0-2.615-2.276-5.147-5-5
					c-9.222,0.497-16.226,6.657-16.803,16.039c3.333,0,6.667,0,10,0c0-0.529,0-1.059,0-1.588c-3.333,0-6.667,0-10,0
					c0.197,5.559,2.345,10.325,5.409,14.886c1.418,2.111,7.006,7.475,6.58,10.218C173.268,115.303,182.902,118.012,183.892,111.655
					L183.892,111.655z"/>
			</g>
		</g>
		<g>
			<g>
				<path style="fill:#FFFFFF;" d="M152.577,119.687c9.235-2.153,18.608-2.963,28.079-3.022c6.446-0.041,6.45-10.041,0-10
					c-10.336,0.065-20.658,1.03-30.737,3.38C143.639,111.508,146.303,121.149,152.577,119.687L152.577,119.687z"/>
			</g>
		</g>
		<g>
			<g>
				<path style="fill:#FFFFFF;" d="M211.972,109.977c-9.746-1.59-19.692-3.012-29.579-3.107c-6.451-0.062-6.445,9.938,0,10
					c9.004,0.086,18.043,1.301,26.921,2.75C215.62,120.648,218.324,111.013,211.972,109.977L211.972,109.977z"/>
			</g>
		</g>
	</g>
</g>
<g id="Ebene_1">
</g>
</svg>
