<?xml version="1.0" encoding="iso-8859-1"?>
<!-- Generator: Adobe Illustrator 16.0.3, SVG Export Plug-In . SVG Version: 6.00 Build 0)  -->
<!DOCTYPE svg PUBLIC "-//W3C//DTD SVG 1.1//EN" "http://www.w3.org/Graphics/SVG/1.1/DTD/svg11.dtd">
<svg version="1.1" xmlns="http://www.w3.org/2000/svg" xmlns:xlink="http://www.w3.org/1999/xlink" x="0px" y="0px" width="361px"
	 height="361px" viewBox="0 0 361 361" style="enable-background:new 0 0 361 361;" xml:space="preserve">
<g id="scene_x5F_freezer">
	<g>
		<g>
			<path style="fill:#FFFFFF;" d="M233.686,276.238c-0.386,5.729-5.707,5.186-9.789,5.186c-5.636,0-11.271,0-16.905,0
				c-15.871,0-31.743,0-47.614,0c-6.128,0-12.256,0-18.384,0c-2.811,0-6.615,0.602-9.225-0.708
				c-3.222-1.617-2.568-5.975-2.568-8.938c0-4.939,0-9.879,0-14.818c0-29.792,0-59.585,0-89.377c0-5.538-2.292-17.514,6.048-17.514
				c11.139,0,22.277,0,33.415,0c15.411,0,30.822,0,46.234,0c5.852,0,18.788-2.535,18.788,6.242c0,26.036,0,52.071,0,78.107
				C233.686,248.356,233.686,262.298,233.686,276.238c0,6.448,10,6.448,10,0c0-23.146,0-46.292,0-69.438c0-13.881,0-27.761,0-41.642
				c0-3.127,0-6.255,0-9.382c0-8.869-6.553-15.128-15.186-15.709c-8.843-0.595-17.931,0-26.788,0c-15.832,0-31.665,0-47.497,0
				c-5.369,0-10.737,0-16.106,0c-4.831,0-9.582,0.152-13.483,3.587c-7.332,6.454-5.426,17.765-5.426,26.563
				c0,29.889,0,59.777,0,89.666c0,7.733-1.955,19.818,3.587,26.115c6.885,7.822,20.433,5.426,29.795,5.426
				c18.696,0,37.393,0,56.088,0c5.976,0,11.952,0,17.928,0c9.308,0,16.438-5.517,17.088-15.186
				C244.119,269.798,234.116,269.84,233.686,276.238z"/>
		</g>
	</g>
	<g id="buegeleisen_6_" style="display:none;">
		<g style="display:inline;">
			<g>
				<path style="fill:#FFFFFF;" d="M253.74,279.667c-0.229,2.271-14.503,0.999-16.25,0.999c-1.748,0.001-16.021,1.273-16.25-0.999
					c-0.854-8.468,0-17.463,0-25.963c0-15.986,0-31.973,0-47.959c0-6.066,0-12.134,0-18.2c0-1.625-0.883-6.16,0.293-7.585
					c0.074-0.089-1.234-0.999,0.46,0.139c-0.136-0.091,1.265,1.149,1.655,1.534c1.773,1.746,3.346,3.713,4.839,5.699
					c4.051,5.388,7.639,11.131,11.136,16.887c5.16,8.495,10.021,17.187,14.636,25.99c0.456,0.871-0.519-3.93-0.519-1.035
					c0,1.706,0,3.413,0,5.119c0,5.852,0,11.703,0,17.555C253.74,261.121,253.74,270.394,253.74,279.667c0,6.448,10,6.448,10,0
					c0-12.158,0-24.315,0-36.474c0-4.989,0-9.979,0-14.97c0-3.185-2.927-6.989-4.371-9.643c-7.63-14.024-15.564-28.286-25.678-40.7
					c-3.882-4.765-9.651-10.675-16.31-7.061c-5.069,2.752-6.142,7.44-6.142,12.654c0,27.693,0,55.387,0,83.08
					c0,8.863-2.157,24.112,11.168,24.112c6.34,0,12.68,0,19.021-0.001c5.582,0,13.565,1.337,18.202-2.488
					c2.727-2.25,3.764-5.079,4.109-8.511C264.387,273.252,254.381,273.314,253.74,279.667z"/>
			</g>
		</g>
		<g style="display:inline;">
			<g>
				<path style="fill:#FFFFFF;" d="M281.832,233.333c0,17.778,0,35.556,0,53.334c0,6.448,10,6.448,10,0c0-17.778,0-35.556,0-53.334
					C291.832,226.885,281.832,226.885,281.832,233.333L281.832,233.333z"/>
			</g>
		</g>
		<g style="display:inline;">
			<g>
				<path style="fill:#FFFFFF;" d="M221.083,291.332c21.806,0,43.611,0.001,65.417,0.001c6.448,0,6.448-10,0-10
					c-21.806,0-43.611-0.001-65.417-0.001C214.635,281.332,214.635,291.332,221.083,291.332L221.083,291.332z"/>
			</g>
		</g>
		<g style="display:inline;">
			<g>
				<path style="fill:#FFFFFF;" d="M260.166,237.104c0,6.757,0,13.513,0,20.27c0,4.514,7,4.514,7,0c0-6.757,0-13.513,0-20.27
					C267.166,232.59,260.166,232.59,260.166,237.104L260.166,237.104z"/>
			</g>
		</g>
	</g>
	<path style="fill:none;stroke:#FFFFFF;stroke-miterlimit:10;" d="M44.239,121.792"/>
	<g>
		<g>
			<path style="fill:#FFFFFF;" d="M217.936,160.973c0,12.963,0,25.927,0,38.89c0,4.514,7,4.514,7,0c0-12.963,0-25.927,0-38.89
				C224.936,156.459,217.936,156.459,217.936,160.973L217.936,160.973z"/>
		</g>
	</g>
	<g>
		<g>
			<path style="fill:#FFFFFF;" d="M233.686,135.297c-0.386,5.729-5.707,5.186-9.789,5.186c-5.636,0-11.271,0-16.905,0
				c-15.871,0-31.743,0-47.614,0c-6.128,0-12.256,0-18.384,0c-2.811,0-6.615,0.602-9.225-0.708
				c-3.98-1.997-2.568-10.274-2.568-13.786c0-7.847,0-15.693,0-23.539c0-5.752,0-11.505,0-17.257c0-4.759,3.419-6.066,7.408-6.066
				c12.305,0,24.61,0,36.916,0c14.935,0,29.869,0,44.804,0c3.317,0,6.636,0,9.953,0c6.048,0,5.405,6.101,5.405,10.237
				C233.686,104.674,233.686,119.985,233.686,135.297c0,6.449,10,6.449,10,0c0-12.191,0-24.383,0-36.575c0-4.77,0-9.539,0-14.309
				c0-8.553-7.075-15.288-15.527-15.288c-25.978,0-51.956,0-77.933,0c-10.299,0-23.967-2.412-29.542,8.698
				c-2.21,4.405-1.483,10.235-1.483,15.021c0,7.785,0,15.57,0,23.355c0,5.97,0,11.94,0,17.91c0,9.108,6.047,15.758,15.186,16.373
				c8.843,0.595,17.931,0,26.789,0c17.162,0,34.324,0,51.487,0c4.835,0,9.669,0,14.504,0c9.145,0,15.898-5.937,16.521-15.186
				C244.119,128.856,234.116,128.898,233.686,135.297z"/>
		</g>
	</g>
	<g>
		<g>
			<path style="fill:#FFFFFF;" d="M217.936,90.359c0,12.963,0,25.927,0,38.89c0,4.514,7,4.514,7,0c0-12.963,0-25.927,0-38.89
				C224.936,85.845,217.936,85.845,217.936,90.359L217.936,90.359z"/>
		</g>
	</g>
	<g>
		<g>
			<g>
				<g>
					<path style="fill:#FFFFFF;" d="M176.634,190.15c0,11.016,0,22.03,0,33.046c0,4.514,7,4.514,7,0c0-11.016,0-22.03,0-33.046
						C183.634,185.637,176.634,185.637,176.634,190.15L176.634,190.15z"/>
				</g>
			</g>
			<g>
				<g>
					<path style="fill:#FFFFFF;" d="M168.75,196.499c3.211,1.854,6.423,3.707,9.635,5.562c3.917,2.261,7.44-3.789,3.533-6.045
						c-3.211-1.854-6.423-3.707-9.634-5.562C168.367,188.193,164.843,194.243,168.75,196.499L168.75,196.499z"/>
				</g>
			</g>
			<g>
				<g>
					<path style="fill:#FFFFFF;" d="M187.874,190.454c-3.211,1.854-6.423,3.708-9.634,5.562c-3.907,2.256-0.384,8.306,3.533,6.045
						c3.212-1.854,6.423-3.708,9.635-5.562C195.314,194.243,191.791,188.193,187.874,190.454L187.874,190.454z"/>
				</g>
			</g>
		</g>
		<g>
			<g>
				<g>
					<path style="fill:#FFFFFF;" d="M149.633,209.315c9.54,5.508,19.08,11.016,28.62,16.523c3.917,2.261,7.44-3.789,3.533-6.045
						c-9.54-5.508-19.079-11.016-28.619-16.523C149.25,201.01,145.726,207.06,149.633,209.315L149.633,209.315z"/>
				</g>
			</g>
			<g>
				<g>
					<path style="fill:#FFFFFF;" d="M151.239,219.307c3.211-1.854,6.423-3.709,9.634-5.563c3.907-2.256,0.383-8.306-3.533-6.045
						c-3.211,1.854-6.423,3.709-9.634,5.563C143.799,215.518,147.323,221.567,151.239,219.307L151.239,219.307z"/>
				</g>
			</g>
			<g>
				<g>
					<path style="fill:#FFFFFF;" d="M155.535,199.723c0,3.709,0,7.417-0.001,11.126c0,4.514,7,4.514,7,0
						c0-3.709,0-7.417,0.001-11.126C162.535,195.209,155.535,195.209,155.535,199.723L155.535,199.723z"/>
				</g>
			</g>
		</g>
		<g>
			<g>
				<g>
					<path style="fill:#FFFFFF;" d="M153.239,242.34c9.54-5.509,19.079-11.017,28.619-16.524c3.907-2.256,0.384-8.306-3.533-6.045
						c-9.54,5.509-19.079,11.017-28.619,16.524C145.799,238.551,149.323,244.601,153.239,242.34L153.239,242.34z"/>
				</g>
			</g>
			<g>
				<g>
					<path style="fill:#FFFFFF;" d="M162.661,245.98c0-3.708,0-7.415,0-11.123c0-4.514-7-4.514-7,0c0,3.708,0,7.415,0,11.123
						C155.661,250.494,162.661,250.494,162.661,245.98L162.661,245.98z"/>
				</g>
			</g>
			<g>
				<g>
					<path style="fill:#FFFFFF;" d="M147.833,232.442c3.212,1.854,6.424,3.709,9.635,5.563c3.917,2.261,7.44-3.789,3.533-6.045
						c-3.212-1.854-6.423-3.709-9.635-5.563C147.45,224.137,143.926,230.187,147.833,232.442L147.833,232.442z"/>
				</g>
			</g>
		</g>
		<g>
			<g>
				<g>
					<path style="fill:#FFFFFF;" d="M183.597,255.96c0-11.016,0-22.032,0-33.048c0-4.514-7-4.514-7,0c0,11.016,0,22.032,0,33.048
						C176.597,260.474,183.597,260.474,183.597,255.96L183.597,255.96z"/>
				</g>
			</g>
			<g>
				<g>
					<path style="fill:#FFFFFF;" d="M191.479,249.61c-3.211-1.854-6.423-3.708-9.634-5.563c-3.917-2.261-7.44,3.789-3.533,6.045
						c3.211,1.854,6.423,3.708,9.634,5.563C191.863,257.916,195.387,251.866,191.479,249.61L191.479,249.61z"/>
				</g>
			</g>
			<g>
				<g>
					<path style="fill:#FFFFFF;" d="M172.356,255.655c3.211-1.854,6.423-3.709,9.634-5.563c3.907-2.256,0.384-8.306-3.533-6.045
						c-3.211,1.854-6.423,3.709-9.634,5.563C164.917,251.866,168.44,257.916,172.356,255.655L172.356,255.655z"/>
				</g>
			</g>
		</g>
		<g>
			<g>
				<g>
					<path style="fill:#FFFFFF;" d="M210.598,236.543c-9.54-5.508-19.08-11.016-28.62-16.523c-3.916-2.261-7.439,3.789-3.533,6.045
						c9.54,5.508,19.08,11.016,28.62,16.523C210.981,244.849,214.505,238.799,210.598,236.543L210.598,236.543z"/>
				</g>
			</g>
			<g>
				<g>
					<path style="fill:#FFFFFF;" d="M208.991,226.552c-3.211,1.854-6.423,3.709-9.634,5.563c-3.906,2.256-0.384,8.306,3.533,6.045
						c3.211-1.854,6.423-3.709,9.634-5.563C216.432,230.341,212.908,224.291,208.991,226.552L208.991,226.552z"/>
				</g>
			</g>
			<g>
				<g>
					<path style="fill:#FFFFFF;" d="M204.696,246.135c0-3.708,0-7.417,0-11.125c0-4.514-7-4.514-7,0c0,3.708,0,7.417,0,11.125
						C197.696,250.648,204.696,250.648,204.696,246.135L204.696,246.135z"/>
				</g>
			</g>
		</g>
		<g>
			<g>
				<g>
					<path style="fill:#FFFFFF;" d="M206.991,203.519c-9.54,5.508-19.079,11.016-28.619,16.523
						c-3.907,2.256-0.383,8.306,3.533,6.045c9.54-5.508,19.079-11.016,28.619-16.523
						C214.432,207.308,210.908,201.258,206.991,203.519L206.991,203.519z"/>
				</g>
			</g>
			<g>
				<g>
					<path style="fill:#FFFFFF;" d="M197.569,199.876c0,3.708,0,7.417,0,11.125c0,4.514,7,4.514,7,0c0-3.708,0-7.417,0-11.125
						C204.569,195.362,197.569,195.362,197.569,199.876L197.569,199.876z"/>
				</g>
			</g>
			<g>
				<g>
					<path style="fill:#FFFFFF;" d="M212.397,213.416c-3.211-1.854-6.423-3.709-9.634-5.563c-3.916-2.262-7.439,3.788-3.533,6.045
						c3.211,1.854,6.423,3.709,9.634,5.563C212.78,221.723,216.304,215.673,212.397,213.416L212.397,213.416z"/>
				</g>
			</g>
		</g>
	</g>
</g>
<g id="Ebene_1">
</g>
</svg>
