<?xml version="1.0" encoding="iso-8859-1"?>
<!-- Generator: Adobe Illustrator 16.0.0, SVG Export Plug-In . SVG Version: 6.00 Build 0)  -->
<!DOCTYPE svg PUBLIC "-//W3C//DTD SVG 1.1 Tiny//EN" "http://www.w3.org/Graphics/SVG/1.1/DTD/svg11-tiny.dtd">
<svg version="1.1" baseProfile="tiny" id="scene_x5F_fitness"
	 xmlns="http://www.w3.org/2000/svg" xmlns:xlink="http://www.w3.org/1999/xlink" x="0px" y="0px" width="361px" height="361px"
	 viewBox="0 0 361 361" xml:space="preserve">
<g>
	<path fill="#FFFFFF" d="M241.246,143.23c2.347,34.78,4.695,69.56,7.042,104.339c0.302,4.479,7.304,4.508,7,0
		c-2.347-34.78-4.695-69.56-7.042-104.339C247.944,138.751,240.942,138.722,241.246,143.23L241.246,143.23z"/>
</g>
<g>
	<g>
		<path fill="#FFFFFF" d="M234.618,249.628c-46.013-1.837-92.026-3.674-138.04-5.511c-0.25-0.01-0.5-0.02-0.75-0.03
			c-6.451-0.257-6.426,9.744,0,10c46.013,1.837,92.026,3.674,138.04,5.511c0.25,0.01,0.5,0.02,0.75,0.03
			C241.069,259.885,241.044,249.884,234.618,249.628L234.618,249.628z"/>
	</g>
	<g>
		<path fill="#FFFFFF" d="M229.97,242.403c-23.723-1.073-47.446-2.146-71.169-3.218c-9.691-0.438-9.734,14.568-0.108,15.003
			c23.723,1.073,47.446,2.146,71.169,3.218C239.552,257.844,239.596,242.838,229.97,242.403L229.97,242.403z"/>
	</g>
</g>
<g>
	<path fill="#FFFFFF" d="M80.767,242.985c0.39,20.71,16.785,37.105,37.495,37.495c20.711,0.39,37.116-17.371,37.495-37.495
		c0.39-20.711-17.371-37.116-37.495-37.495C97.551,205.1,81.146,222.861,80.767,242.985c-0.037,1.936,2.964,1.932,3,0
		c0.359-19.068,15.427-34.136,34.495-34.495c19.068-0.359,34.146,15.968,34.495,34.495c0.359,19.068-15.968,34.146-34.495,34.495
		c-19.068,0.359-34.146-15.968-34.495-34.495C83.731,241.053,80.73,241.049,80.767,242.985z"/>
</g>
<g>
	<g>
		<path fill="#FFFFFF" d="M90.799,277.235c-9.771-9.628-17.333-22.543-16.722-36.612c0.501-11.543,6.244-22.244,14.63-29.971
			c19.671-18.125,51.495-12.699,65.902,9.049c1.16,1.752,3.952,2.513,5.497,0.708c0.061-0.071,0.122-0.143,0.183-0.213
			c-1.135,0.3-2.271,0.6-3.406,0.9c21.391,7.287,42.782,14.574,64.173,21.862c14.04,4.783,28.079,9.565,42.119,14.348
			c4.152,1.415,8.304,2.829,12.456,4.244c2.768,0.943,6.712,1.691,6.712,5.254c0,3.362,0,6.724,0,10.086
			c0,2.47,0.893,7.221-0.821,9.396c-1.139,1.445-4.473,0.908-5.98,0.908c-9.683,0-19.365,0-29.047,0c-31.57,0-63.14,0-94.71,0
			c-17.617,0-35.235,0-52.852,0c-4.514,0-4.514,7,0,7c49.971,0,99.942,0,149.913,0c9.203,0,18.406,0,27.609,0
			c2.411,0,5.137,0.236,7.306-0.997c7.076-4.022,5.583-12.321,5.583-19.234c0-7.088,0.748-15.302-7.868-17.852
			c-2.083-0.617-4.127-1.361-6.183-2.062c-11.594-3.95-23.189-7.9-34.784-11.85c-27.254-9.285-54.509-18.57-81.764-27.854
			c-1.094-0.373-2.646,0.013-3.406,0.9c-0.061,0.071-0.122,0.143-0.183,0.213c1.833,0.236,3.665,0.473,5.497,0.708
			c-16.794-25.352-51.028-30.786-74.917-12.145c-10.905,8.509-17.181,21.657-18.559,35.226
			c-1.642,16.174,7.516,31.942,18.672,42.936C89.066,285.354,94.018,280.407,90.799,277.235L90.799,277.235z"/>
	</g>
	<g>
		<path fill="#FFFFFF" d="M265.895,285.502c0.267,3.31,1.665,5.821,4.511,7.588c2.04,1.266,4.612,1.052,6.904,1.052
			c2.31,0,4.607,0.18,6.783-0.74c3.325-1.405,4.969-4.424,5.249-7.9c0.255-3.16-1.996-6.027-4.511-7.588
			c-2.04-1.266-4.612-1.052-6.905-1.052c-2.31,0-4.607-0.18-6.783,0.74C267.819,279.007,266.175,282.026,265.895,285.502
			c-0.363,4.502,6.64,4.467,7,0c0.176-2.179,2.907-1.64,4.416-1.64c1.564,0,4.847-0.662,5.032,1.64
			c0.175,2.169-3.177,1.64-4.416,1.64c-1.564,0-4.846,0.662-5.032-1.64C272.535,281.035,265.532,281,265.895,285.502z"/>
	</g>
	<g>
		<path fill="#FFFFFF" d="M79.364,285.855c0.267,3.31,1.665,5.821,4.511,7.588c2.04,1.266,4.612,1.052,6.904,1.052
			c2.31,0,4.607,0.18,6.783-0.74c3.325-1.405,4.969-4.424,5.249-7.9c0.255-3.16-1.996-6.027-4.511-7.588
			c-2.04-1.266-4.612-1.052-6.905-1.052c-2.31,0-4.607-0.18-6.783,0.74C81.288,279.36,79.645,282.38,79.364,285.855
			c-0.363,4.502,6.64,4.467,7,0c0.176-2.179,2.907-1.64,4.416-1.64c1.564,0,4.847-0.662,5.032,1.64
			c0.175,2.169-3.177,1.64-4.416,1.64c-1.564,0-4.846,0.662-5.032-1.64C86.004,281.388,79.001,281.353,79.364,285.855z"/>
	</g>
</g>
<g>
	<path fill="#FFFFFF" d="M240.311,255.564c6.004-16.5,11.417-33.238,16.442-50.06c4.056-13.576,7.783-27.269,10.729-41.132
		c2.345-11.037,4.72-22.794,3.847-34.135c-0.492-6.387-10.495-6.435-10,0c0.81,10.522-1.351,21.231-3.49,31.477
		c-2.897,13.871-6.694,27.555-10.729,41.132c-5,16.827-10.439,33.562-16.442,50.06C228.458,258.98,238.125,261.574,240.311,255.564
		L240.311,255.564z"/>
	<path fill="#FFFFFF" d="M261.243,76.226c-1.519,5.487-2.505,11.106-4.516,16.447c-2.407,6.395-5.663,11.902-6.519,18.803
		c-0.608,4.905,1.303,11.131,3.773,15.347c2.182,3.723,6.176,5.75,9.824,7.732c5.667,3.08,10.714-5.555,5.047-8.635
		c-2.448-1.331-5.223-2.416-6.681-4.904c-2.065-3.523-2.364-8.317-1.384-12.161c1.321-5.182,4.212-9.885,6.09-14.874
		c1.829-4.86,2.625-10.103,4.007-15.098C272.609,72.658,262.96,70.019,261.243,76.226L261.243,76.226z"/>
</g>
<g>
	<path fill="#FFFFFF" d="M263.301,248.502c-2.57-17.376-5.771-34.681-9.354-51.874c-2.891-13.872-6.125-27.69-10.128-41.286
		c-3.182-10.806-6.72-22.233-12.876-31.772c-3.483-5.397-12.143-0.389-8.635,5.047c5.724,8.869,8.876,19.354,11.868,29.384
		c4.05,13.58,7.219,27.423,10.128,41.286c3.607,17.186,6.785,34.5,9.354,51.874C254.599,257.521,264.234,254.808,263.301,248.502
		L263.301,248.502z"/>
	<path fill="#FFFFFF" d="M196.529,81.276c1.417,6.15,3.483,12.106,3.95,18.434c0.443,6.002,0.49,12.518,3.254,18.023
		c2.209,4.399,5.961,8.323,10.035,11.055c3.737,2.506,8.569,2.318,12.857,2.305c6.448-0.02,6.45-10.02,0-10
		c-2.776,0.008-6.076,0.495-8.423-1.338c-3.576-2.793-5.829-6.285-6.801-10.658c-1.129-5.08-0.887-10.458-1.623-15.61
		c-0.719-5.033-2.467-9.922-3.607-14.869C204.725,72.335,195.083,75,196.529,81.276L196.529,81.276z"/>
</g>
<g>
	<path fill="#FFFFFF" d="M226.22,154.446c10.763-4.263,21.526-8.526,32.289-12.79c5.922-2.346,3.344-12.02-2.658-9.643
		c-10.763,4.263-21.526,8.526-32.289,12.79C217.64,147.149,220.218,156.824,226.22,154.446L226.22,154.446z"/>
</g>
</svg>
