<?xml version="1.0" encoding="iso-8859-1"?>
<!-- Generator: Adobe Illustrator 16.0.0, SVG Export Plug-In . SVG Version: 6.00 Build 0)  -->
<!DOCTYPE svg PUBLIC "-//W3C//DTD SVG 1.1//EN" "http://www.w3.org/Graphics/SVG/1.1/DTD/svg11.dtd">
<svg version="1.1" xmlns="http://www.w3.org/2000/svg" xmlns:xlink="http://www.w3.org/1999/xlink" x="0px" y="0px" width="361px"
	 height="361px" viewBox="0 0 361 361" style="enable-background:new 0 0 361 361;" xml:space="preserve">
<g id="scene_x5F_hall_x5F_alternat">
	<g>
		<g>
			<path style="fill:#FFFFFF;" d="M278.878,284.736c-0.702,5.227-8.171,3.748-11.771,3.748c-6.957,0-13.914,0-20.871,0
				c-14.679,0-29.356,0-44.035,0c-2.734,0-10.728,0.934-8.962-4.1c2.307-6.574,4.613-13.149,6.921-19.725
				c0.847-2.413,1.167-5.91,4.424-5.91c1.375,0,2.751,0,4.127,0c6.084,0,12.169,0,18.254,0c16.877,0,33.755,0,50.632,0
				c1.792,0,3.585,0,5.378,0c4.813,0,3.9,3.197,3.017,5.716C283.62,271.223,281.249,277.979,278.878,284.736
				c-0.643,1.83,2.257,2.61,2.893,0.797c2.028-5.779,4.056-11.559,6.084-17.338c0.666-1.898,1.333-3.798,1.999-5.697
				c1.213-3.457-3.398-6.748-6.296-6.748c-10.07,0-20.141,0-30.211,0c-14.537,0-29.074,0-43.611,0c-3.608,0-6.88-0.478-9.904,1.86
				c-1.714,1.323-1.875,4.285-2.565,6.252c-1.258,3.585-2.515,7.169-3.772,10.754c-1.31,3.73-3.918,8.186-3.378,12.206
				c0.504,3.745,4.631,4.662,7.708,4.662c9.542,0,19.084,0,28.626,0c12.4,0,24.802,0,37.202,0c5.822,0,17.021,2.216,18.119-5.951
				C282.024,283.643,279.135,282.826,278.878,284.736z"/>
		</g>
	</g>
	<g>
		<path style="fill:#FFFFFF;" d="M269.752,274.983c0.067-0.266,0.137-0.595,0.208-0.986c0.071-0.393,0.149-0.827,0.239-1.304
			s0.182-0.986,0.273-1.533c0.094-0.547,0.199-1.107,0.313-1.682c-0.34,0.729-0.685,1.51-1.039,2.344
			c-0.35,0.833-0.708,1.684-1.078,2.552c-0.365,0.869-0.738,1.749-1.117,2.639c-0.377,0.888-0.758,1.747-1.143,2.574h-2.606
			c0.538-1.065,1.091-2.162,1.659-3.29c0.568-1.127,1.14-2.247,1.715-3.361c0.576-1.113,1.154-2.211,1.734-3.289
			c0.581-1.079,1.144-2.101,1.692-3.068h2.144c-0.104,0.883-0.236,1.832-0.402,2.848s-0.311,1.985-0.435,2.911
			c0.722-0.882,1.491-1.843,2.312-2.88c0.818-1.035,1.574-1.996,2.266-2.879h2.143c-0.338,0.968-0.719,1.993-1.139,3.079
			c-0.424,1.087-0.863,2.185-1.32,3.3c-0.456,1.113-0.925,2.234-1.41,3.361c-0.482,1.128-0.956,2.218-1.417,3.269h-2.396
			c0.399-0.827,0.812-1.681,1.237-2.564c0.427-0.882,0.85-1.761,1.273-2.636c0.42-0.877,0.833-1.731,1.235-2.564
			c0.404-0.834,0.774-1.615,1.114-2.344c-0.334,0.448-0.707,0.939-1.115,1.471c-0.409,0.532-0.809,1.057-1.197,1.576
			c-0.391,0.52-0.748,0.994-1.078,1.43c-0.328,0.434-0.586,0.777-0.773,1.028H269.752z"/>
		<path style="fill:#FFFFFF;" d="M268.059,266.578l-6.064,13.009h-7.881l1-2.144h5.296l1.362-2.922h-4.602l1-2.143h4.602
			l1.704-3.656h-5.759l1-2.145H268.059z"/>
		<path style="fill:#FFFFFF;" d="M249.209,266.578h8.176l-6.064,13.009h-2.607l5.066-10.864h-5.569L249.209,266.578z"/>
		<path style="fill:#FFFFFF;" d="M242.277,266.305c1.834,0,2.962,0.588,3.379,1.766c0.418,1.177,0.122,2.851-0.891,5.021
			c-0.504,1.08-1.099,2.039-1.785,2.881c-0.686,0.84-1.428,1.551-2.224,2.132c-0.798,0.583-1.624,1.022-2.489,1.324
			c-0.859,0.301-1.719,0.452-2.572,0.452c-0.463,0-0.862-0.039-1.197-0.115c-0.334-0.078-0.621-0.164-0.854-0.264
			c-0.236-0.098-0.42-0.203-0.558-0.314c-0.138-0.113-0.242-0.195-0.313-0.252l1.633-2.061c0.225,0.211,0.529,0.39,0.916,0.537
			c0.387,0.146,0.875,0.221,1.463,0.221c0.406,0,0.836-0.074,1.291-0.221c0.454-0.147,0.91-0.394,1.371-0.735
			c0.463-0.343,0.921-0.803,1.378-1.376c0.458-0.576,0.886-1.289,1.284-2.145c0.692-1.486,0.967-2.623,0.825-3.414
			c-0.142-0.793-0.795-1.188-1.958-1.188c-0.673,0-1.266,0.076-1.777,0.23c-0.515,0.154-0.94,0.309-1.278,0.462l0.3-2.037
			c0.469-0.226,1.058-0.431,1.77-0.622C240.702,266.4,241.465,266.305,242.277,266.305z"/>
		<path style="fill:#FFFFFF;" d="M234.258,273.092c-1.045,2.243-2.247,3.934-3.607,5.076c-1.358,1.143-2.772,1.713-4.244,1.713
			c-1.526,0-2.424-0.57-2.69-1.713s0.124-2.833,1.169-5.076c1.045-2.239,2.242-3.933,3.586-5.074s2.76-1.713,4.246-1.713
			c1.525,0,2.426,0.571,2.699,1.713C235.69,269.159,235.304,270.853,234.258,273.092z M231.632,273.092
			c0.294-0.629,0.544-1.221,0.753-1.774c0.21-0.554,0.336-1.033,0.379-1.44c0.041-0.406-0.014-0.727-0.17-0.967
			c-0.156-0.236-0.457-0.355-0.906-0.355c-0.434,0-0.843,0.119-1.227,0.355c-0.385,0.24-0.746,0.564-1.086,0.978
			c-0.341,0.413-0.663,0.895-0.967,1.44c-0.303,0.545-0.604,1.135-0.896,1.764c-0.294,0.632-0.545,1.225-0.754,1.776
			c-0.209,0.554-0.334,1.032-0.378,1.44c-0.041,0.406,0.016,0.729,0.171,0.965c0.154,0.24,0.455,0.359,0.904,0.359
			c0.447,0,0.859-0.119,1.238-0.359c0.378-0.236,0.734-0.563,1.076-0.977c0.34-0.412,0.66-0.893,0.965-1.439
			C231.038,274.313,231.338,273.724,231.632,273.092z"/>
		<path style="fill:#FFFFFF;" d="M217.907,279.587c0.04-0.296,0.093-0.673,0.161-1.136c0.068-0.461,0.143-0.959,0.223-1.491
			s0.162-1.071,0.251-1.618c0.085-0.547,0.159-1.051,0.223-1.514c-0.411,0.52-0.837,1.055-1.275,1.607
			c-0.44,0.555-0.864,1.086-1.271,1.598s-0.785,0.99-1.135,1.439c-0.348,0.449-0.646,0.818-0.896,1.114h-2.144
			c0.431-1.136,0.852-2.243,1.264-3.321c0.41-1.078,0.832-2.146,1.264-3.205c0.431-1.057,0.873-2.121,1.331-3.192
			c0.457-1.071,0.934-2.169,1.428-3.29h2.374l-4.838,10.109l4.164-5.506h1.891l-1.033,5.506l4.609-10.109h2.374
			c-0.538,1.064-1.101,2.172-1.686,3.32c-0.585,1.15-1.169,2.291-1.755,3.426c-0.584,1.135-1.164,2.234-1.737,3.299
			s-1.12,2.053-1.644,2.964H217.907z"/>
		<path style="fill:#FFFFFF;" d="M215.523,266.578l-6.064,13.009h-7.881l1-2.144h5.296l1.362-2.922h-4.602l0.999-2.143h4.602
			l1.705-3.656h-5.759l0.999-2.145H215.523z"/>
	</g>
	<path style="fill:none;stroke:#FFFFFF;stroke-width:10;stroke-miterlimit:10;" d="M286.894,241.774
		c0,2.761-2.197,4.997-4.908,4.997h-75.257c-2.711,0-4.908-2.236-4.908-4.997V79.663c0-2.759,2.197-4.996,4.908-4.996h75.257
		c2.711,0,4.908,2.237,4.908,4.996V241.774z"/>
	<g>
		<g>
			<path style="fill:#FFFFFF;" d="M203.441,165.559c2.7,0,5.401,0,8.102,0c2.726,0,5-2.274,5-5s-2.274-5-5-5c-2.7,0-5.401,0-8.102,0
				c-2.726,0-5,2.274-5,5S200.716,165.559,203.441,165.559L203.441,165.559z"/>
		</g>
	</g>
	<g>
		<g>
			<path style="fill:#FFFFFF;" d="M291.782,240.104c-0.87-6.262-6.281-7.43-11.529-7.43c-5.77,0-11.539,0-17.309,0
				c-15.377,0-30.753,0-46.13,0c-3.316,0-6.633,0-9.949,0c-4.335,0-7.836,3.234-8.42,7.43c-0.639,4.591,2.065,7.872,6.136,9.534
				c2.757,1.126,7.399,0.299,10.226,0.299c6.971,0,13.94,0,20.91,0c12.329,0,24.658,0,36.988,0c7.185,0,19.202,1.784,19.202-8.902
				c0-4.514-7-4.514-7,0c0,3.184-7.88,1.902-9.486,1.902c-6.971,0-13.94,0-20.91,0c-14.38,0-28.76,0-43.141,0
				c-1.367,0-2.734,0-4.101,0c-2.588,0-2.05-3.263,0.182-3.263c4.36,0,8.722,0,13.082,0c15.578,0,31.155,0,46.733,0
				c3.863,0,7.727,0,11.591,0c2.115,0,5.726-0.943,6.175,2.291C285.651,246.421,292.396,244.518,291.782,240.104z"/>
		</g>
	</g>
	<g>
		<g>
			<path style="fill:#FFFFFF;" d="M203.444,165.606c2.704,0,5.408,0,8.112,0c4.514,0,4.514-7,0-7c-2.704,0-5.408,0-8.112,0
				C198.931,158.606,198.931,165.606,203.444,165.606L203.444,165.606z"/>
		</g>
	</g>
	<g>
		<g>
			<g>
				<path style="fill:#FFFFFF;" d="M252.292,113.054c-0.35,1.294-13.533,0.371-15.553,0.371c-0.298,0-0.148-13.351-0.148-14.894
					c0-0.038,14.158-0.019,15.631-0.019c0.033,0,0.017,13.528,0.017,14.94c0,1.935,3,1.935,3,0c0-3.55,0-7.101,0-10.651
					c0-2.392,0.79-7.29-2.972-7.29c-3.578,0-7.157,0-10.735,0c-2.804,0-6.944-0.912-7.887,2.574
					c-0.824,3.048-0.054,7.241-0.054,10.374c0,2.806-0.917,6.967,2.573,7.911c3.064,0.829,7.284,0.054,10.433,0.054
					c2.887,0,7.608,1.056,8.588-2.573C255.689,111.981,252.795,111.188,252.292,113.054z"/>
			</g>
		</g>
		<g>
			<g>
				<path style="fill:#FFFFFF;" d="M252.292,146.967c-0.35,1.294-13.533,0.371-15.553,0.371c-0.298,0-0.148-13.351-0.148-14.893
					c0-0.039,14.158-0.02,15.631-0.02c0.033,0,0.017,13.528,0.017,14.94c0,1.935,3,1.935,3,0c0-3.55,0-7.101,0-10.651
					c0-2.391,0.79-7.29-2.972-7.29c-3.578,0-7.157,0-10.735,0c-2.804,0-6.944-0.912-7.887,2.575
					c-0.824,3.049-0.054,7.241-0.054,10.374c0,2.806-0.917,6.966,2.573,7.91c3.064,0.829,7.284,0.054,10.433,0.054
					c2.887,0,7.608,1.056,8.588-2.573C255.689,145.895,252.795,145.102,252.292,146.967z"/>
			</g>
		</g>
		<g>
			<g>
				<path style="fill:#FFFFFF;" d="M252.292,178.92c-0.35,1.293-13.533,0.371-15.553,0.371c-0.298,0-0.148-13.351-0.148-14.893
					c0-0.038,14.158-0.019,15.631-0.019c0.033,0,0.017,13.528,0.017,14.94c0,1.935,3,1.935,3,0c0-3.55,0-7.101,0-10.651
					c0-2.392,0.791-7.29-2.972-7.29c-3.578,0-7.157,0-10.735,0c-2.804,0-6.944-0.912-7.887,2.574
					c-0.824,3.048-0.054,7.241-0.054,10.374c0,2.806-0.917,6.967,2.573,7.91c3.064,0.829,7.284,0.054,10.433,0.054
					c2.887,0,7.608,1.057,8.588-2.573C255.689,177.848,252.796,177.055,252.292,178.92z"/>
			</g>
		</g>
		<g>
			<g>
				<path style="fill:#FFFFFF;" d="M252.292,212.834c-0.35,1.295-13.532,0.371-15.553,0.371c-0.298,0-0.148-13.352-0.148-14.894
					c0-0.04,14.157-0.021,15.631-0.021c0.033,0,0.017,13.529,0.017,14.941c0,1.935,3,1.935,3,0c0-3.55,0-7.101,0-10.65
					c0-2.392,0.79-7.291-2.972-7.291c-3.578,0-7.157,0-10.735,0c-2.805,0-6.945-0.912-7.887,2.576
					c-0.823,3.049-0.054,7.239-0.054,10.373c0,2.807-0.917,6.966,2.573,7.911c3.063,0.83,7.285,0.054,10.433,0.054
					c2.888,0,7.608,1.057,8.588-2.574C255.689,211.761,252.796,210.968,252.292,212.834z"/>
			</g>
		</g>
	</g>
	<g>
		<g>
			<path style="fill:#FFFFFF;" d="M109.782,191.755c9.361-8.565,18.723-17.13,28.083-25.696c1.43-1.309-0.697-3.424-2.121-2.121
				c-9.361,8.565-18.723,17.13-28.083,25.696C106.231,190.942,108.358,193.058,109.782,191.755L109.782,191.755z"/>
		</g>
	</g>
	<g>
		<g>
			<path style="fill:#FFFFFF;" d="M106.378,206.977c14.081-13.359,28.161-26.718,42.242-40.077c1.406-1.334-0.719-3.452-2.121-2.121
				c-14.081,13.359-28.161,26.718-42.242,40.077C102.851,206.189,104.976,208.308,106.378,206.977L106.378,206.977z"/>
		</g>
	</g>
	<g>
		<g>
			<path style="fill:#FFFFFF;" d="M115.606,210.773c9.787-9.285,19.573-18.57,29.359-27.855c1.406-1.334-0.719-3.452-2.121-2.121
				c-9.787,9.285-19.573,18.57-29.359,27.855C112.079,209.986,114.204,212.104,115.606,210.773L115.606,210.773z"/>
		</g>
	</g>
	<g>
		<g>
			<path style="fill:#FFFFFF;" d="M101.425,114.787c7.015-6.655,14.029-13.31,21.043-19.965c1.406-1.334-0.719-3.452-2.121-2.121
				c-7.015,6.655-14.029,13.31-21.043,19.965C97.897,114,100.022,116.117,101.425,114.787L101.425,114.787z"/>
		</g>
	</g>
	<g>
		<g>
			<path style="fill:#FFFFFF;" d="M102.002,128.614c10.94-10.38,21.881-20.76,32.821-31.14c1.406-1.334-0.719-3.452-2.121-2.121
				c-10.94,10.38-21.881,20.76-32.821,31.14C98.475,127.827,100.6,129.945,102.002,128.614L102.002,128.614z"/>
		</g>
	</g>
	<g>
		<g>
			<path style="fill:#FFFFFF;" d="M115.173,128.563c7.604-7.214,15.208-14.428,22.812-21.643c1.406-1.334-0.719-3.452-2.121-2.121
				c-7.604,7.214-15.208,14.428-22.812,21.643C111.646,127.776,113.771,129.894,115.173,128.563L115.173,128.563z"/>
		</g>
	</g>
	<g>
		<g>
			<path style="fill:#FFFFFF;" d="M154,218.128c-0.623,6.175-9.75,4.5-13.943,4.5c-7.62,0-15.24,0-22.86,0
				c-7.333,0-14.666,0-21.999,0c-3.7,0-11.825,1.329-11.825-4.59c0-23.303,0-46.605,0-69.908c0-14.882,0-29.764,0-44.646
				c0-4.173-2.667-21.855,4.688-21.855c12.348,0,24.696,0,37.044,0c6.701,0,13.401,0,20.102,0c3.77,0,8.792-0.439,8.792,5.129
				C154,130.547,154,174.337,154,218.128c0,1.935,3,1.935,3,0c0-22.333,0-44.667,0-67c0-15.163,0-30.326,0-45.488
				c0-4.861,0-9.722,0-14.582c0-1.943,0.418-4.624-0.175-6.538c-1.65-5.313-5.859-5.892-10.601-5.892c-6.395,0-12.789,0-19.183,0
				c-12.885,0-25.769,0-38.653,0c-9.356,0-8.015,9.822-8.015,16.194c0,13.168,0,26.336,0,39.504c0,27.017,0,54.033,0,81.05
				c0,3.428,0.138,6.356,3.085,8.788c2.743,2.263,7.793,1.464,11.081,1.464c14.922,0,29.845,0,44.767,0
				c6.724,0,16.756,1.808,17.694-7.5C157.193,216.203,154.191,216.223,154,218.128z"/>
		</g>
	</g>
	<g>
		<g>
			<path style="fill:#FFFFFF;" d="M159.96,225.667c-0.384,3.806-7.858,2.5-10.32,2.5c-6.885,0-13.771,0-20.656,0
				c-14.558,0-29.116,0-43.674,0c-2.232,0-7.977,0.983-7.977-2.643c0-2.263,0-4.524,0-6.787c0-11.997,0-23.995,0-35.993
				c0-30.056,0-60.111,0-90.167c0-3.104-2.097-16.41,3.091-16.41c11.912,0,23.824,0,35.736,0c13.124,0,26.247,0,39.37,0
				c2.606,0,4.43,0.923,4.43,3.753c0,3.243,0,6.486,0,9.729c0,29.484,0,58.968,0,88.452
				C159.96,193.956,159.96,209.812,159.96,225.667c0,4.514,7,4.514,7,0c0-47.757,0-95.514,0-143.271
				c0-2.546,0.302-5.526-0.949-7.832c-2.679-4.936-7.124-5.398-12.051-5.398c-13.918,0-27.837,0-41.755,0
				c-10.768,0-21.536,0-32.304,0c-10.828,0-9.567,11.543-9.567,18.867c0,29.076,0,58.151,0,87.226c0,13.142,0,26.284,0,39.425
				c0,7.106-1.862,19.336,8.291,20.359c5.083,0.513,10.353,0.122,15.453,0.122c10.337,0,20.674,0,31.012,0c8.965,0,17.93,0,26.895,0
				c7.042,0,14.083-0.631,14.977-9.5C167.413,221.177,160.408,221.22,159.96,225.667z"/>
		</g>
	</g>
</g>
<g id="Ebene_1">
</g>
</svg>
