<?xml version="1.0" encoding="iso-8859-1"?>
<!-- Generator: Adobe Illustrator 16.0.0, SVG Export Plug-In . SVG Version: 6.00 Build 0)  -->
<!DOCTYPE svg PUBLIC "-//W3C//DTD SVG 1.1//EN" "http://www.w3.org/Graphics/SVG/1.1/DTD/svg11.dtd">
<svg version="1.1" xmlns="http://www.w3.org/2000/svg" xmlns:xlink="http://www.w3.org/1999/xlink" x="0px" y="0px" width="361px"
	 height="361px" viewBox="0 0 361 361" style="enable-background:new 0 0 361 361;" xml:space="preserve">
<g id="scene_x5F_baby">
	<g style="display:none;">
		<g style="display:inline;">
			<g>
				<path style="fill:#FFFFFF;" d="M245.586,240.789c-0.405,4.518-5.74,3.539-8.888,3.539c-4.967,0-9.934,0-14.9,0
					c-2.628,0-5.255,0-7.882,0c-5.081,0-3.537-8.916-3.537-12.084c0-4.515,6.011-3.537,8.887-3.537c4.967,0,9.934,0,14.9,0
					c2.628,0,5.255,0,7.882,0C247.13,228.707,245.586,237.62,245.586,240.789c0,4.514,7,4.514,7,0
					c0-5.829,0.965-11.909-3.528-16.402c-3.683-3.681-10.178-2.68-14.892-2.68c-6.085,0-12.171,0-18.256,0
					c-6.785,0-11.889,3.364-12.531,10.537c-0.5,5.574-0.65,12.224,3.528,16.403c3.681,3.682,10.177,2.681,14.891,2.681
					c6.085,0,12.171,0,18.256,0c6.785,0,11.89-3.366,12.532-10.539C252.989,236.291,245.985,236.33,245.586,240.789z"/>
			</g>
		</g>
		<path style="display:inline;fill:#FFFFFF;stroke:#FFFFFF;stroke-miterlimit:10;" d="M218.189,221.896
			c0,2.742-2.225,4.965-4.967,4.965l0,0c-2.742,0-4.965-2.223-4.965-4.965v-8c0-2.742,2.223-4.965,4.965-4.965l0,0
			c2.742,0,4.967,2.223,4.967,4.965V221.896z"/>
		<g style="display:inline;">
			<g>
				<path style="fill:#FFFFFF;" d="M273.172,241.205c-0.504,4.511-11.476,2.846-14.37,2.846c-2.118,0-6.216,0.435-6.216-2.888
					c0-1.212,0-2.425,0-3.637c0-8.888,0-17.775,0-26.663c0-4.42,11.894-2.846,14.369-2.846c2.117,0,6.217-0.435,6.217,2.888
					c0,1.212,0,2.425,0,3.637C273.172,223.43,273.172,232.317,273.172,241.205c0,4.514,7,4.514,7,0
					c0-10.395,1.012-21.293-0.143-31.621c-1.016-9.075-10.898-8.566-17.633-8.566c-7.623,0-15.75,0.354-16.811,9.846
					c-0.551,4.924,0,10.222,0,15.171c0,5.42-0.46,11.056,0.143,16.45c1.015,9.075,10.898,8.566,17.632,8.566
					c7.624,0,15.751-0.354,16.812-9.846C280.673,236.723,273.668,236.771,273.172,241.205z"/>
			</g>
		</g>
		<g style="display:inline;">
			<g>
				<path style="fill:#FFFFFF;" d="M247.154,207.189c13.609,0,27.219,0,40.828,0c4.514,0,4.514-7,0-7c-13.609,0-27.219,0-40.828,0
					C242.641,200.189,242.641,207.189,247.154,207.189L247.154,207.189z"/>
			</g>
		</g>
		<g style="display:inline;">
			<g>
				<path style="fill:#FFFFFF;" d="M211.98,251.328c19.448,0,38.897,0,58.346,0c4.514,0,4.514-7,0-7c-19.448,0-38.897,0-58.346,0
					C207.467,244.328,207.467,251.328,211.98,251.328L211.98,251.328z"/>
			</g>
		</g>
		<g style="display:inline;">
			<g>
				<path style="fill:#FFFFFF;" d="M217.447,257.758c-0.446,8.295-12.415,8.294-12.861,0
					C204.14,249.461,217.003,249.505,217.447,257.758c0.242,4.489,7.243,4.513,7,0c-0.409-7.591-5.839-13.021-13.43-13.43
					c-7.575-0.408-13.056,6.451-13.432,13.43c-0.408,7.576,6.453,13.056,13.432,13.432c7.575,0.408,13.054-6.454,13.43-13.432
					C224.69,253.245,217.688,253.269,217.447,257.758z"/>
			</g>
		</g>
		<g style="display:inline;">
			<g>
				<path style="fill:#FFFFFF;" d="M270.137,257.758c-0.446,8.295-12.416,8.294-12.862,0
					C256.828,249.461,269.692,249.505,270.137,257.758c0.242,4.489,7.243,4.513,7,0c-0.409-7.592-5.84-13.021-13.431-13.43
					c-7.575-0.408-13.056,6.452-13.432,13.43c-0.408,7.576,6.453,13.056,13.432,13.432c7.576,0.408,13.055-6.453,13.431-13.432
					C277.38,253.245,270.378,253.269,270.137,257.758z"/>
			</g>
		</g>
		<g style="display:inline;">
			<g>
				<path style="fill:#FFFFFF;" d="M243.932,257.758c-0.446,8.294-12.417,8.295-12.863,0
					C230.622,249.461,243.487,249.506,243.932,257.758c0.242,4.489,7.243,4.513,7,0c-0.409-7.592-5.841-13.021-13.432-13.43
					c-7.575-0.408-13.056,6.452-13.432,13.43c-0.408,7.576,6.453,13.056,13.432,13.432c7.575,0.408,13.056-6.453,13.432-13.432
					C251.175,253.245,244.174,253.269,243.932,257.758z"/>
			</g>
		</g>
	</g>
	<g style="display:none;">
		<g style="display:inline;">
			<path style="fill:#FFFFFF;" d="M155.601,185.574c-0.335,15.337-12.33,27.33-27.667,27.666
				c-15.336,0.336-27.342-12.835-27.667-27.666c-0.335-15.336,12.835-27.342,27.667-27.667
				C143.271,157.572,155.277,170.743,155.601,185.574c0.099,4.507,7.099,4.517,7,0c-0.419-19.18-15.487-34.247-34.667-34.667
				c-19.178-0.419-34.261,16.118-34.667,34.667c-0.419,19.179,16.118,34.261,34.667,34.666c19.178,0.42,34.261-16.117,34.667-34.666
				C162.7,181.058,155.7,181.067,155.601,185.574z"/>
		</g>
	</g>
	<g id="Schiff_x5F_orig_1_" style="display:none;">
		<path style="display:inline;fill:#FFFFFF;" d="M212.456,278.088c1.675,2.152,2.474,2.659,4.432,2.659h35.971
			c0.517,0,2.733,0.303,4.06-0.835l23.341-17.279c1.923-1.378,1.479-4.313-2.509-4.313h-75.044c-3.545,0-4.505,2.122-3.094,4.096
			L212.456,278.088z"/>
		<g style="display:inline;">
			<g>
				<path style="fill:#FFFFFF;" d="M243.219,256.145c11.504,0,23.008,0,34.512,0c1.055,0,1.98-1.307,1.295-2.257
					c-11.504-15.955-23.008-31.909-34.512-47.863c-0.832-1.154-2.795-0.837-2.795,0.757c0,15.954,0,31.909,0,47.863
					c0,1.935,3,1.935,3,0c0-15.954,0-31.909,0-47.863c-0.932,0.252-1.863,0.505-2.795,0.757
					c11.504,15.955,23.008,31.909,34.512,47.863c0.432-0.752,0.863-1.505,1.295-2.257c-11.504,0-23.008,0-34.512,0
					C241.284,253.145,241.284,256.145,243.219,256.145z"/>
			</g>
		</g>
		<g style="display:inline;">
			<g>
				<path style="fill:#FFFFFF;" d="M233.848,204.16c0,17.234,0,34.469,0,51.703c0,4.514,7,4.514,7,0c0-17.234,0-34.469,0-51.703
					C240.848,199.646,233.848,199.646,233.848,204.16L233.848,204.16z"/>
			</g>
		</g>
		<g style="display:inline;">
			<g>
				<path style="fill:#FFFFFF;" d="M231.473,253.145c-6.592,0-13.184,0-19.775,0c0.482,0.633,0.964,1.266,1.446,1.898
					c6.592-15.954,13.184-31.908,19.775-47.863c-0.982-0.133-1.964-0.266-2.946-0.398c0,15.954,0,31.909,0,47.863
					c0,1.935,3,1.935,3,0c0-15.954,0-31.909,0-47.863c0-1.816-2.335-1.879-2.946-0.398c-6.592,15.954-13.184,31.908-19.775,47.863
					c-0.381,0.921,0.563,1.898,1.446,1.898c6.592,0,13.184,0,19.775,0C233.407,256.145,233.407,253.145,231.473,253.145z"/>
			</g>
		</g>
	</g>
	<g style="display:none;">
		<path style="display:inline;fill:#FFFFFF;stroke:#FFFFFF;stroke-width:10;stroke-miterlimit:10;" d="M74.833,250.43
			c0,0.311,1.494,0.563,3.336,0.563h82.42c1.842,0,3.336-0.252,3.336-0.563v-3.287c0-0.311-1.494-0.563-3.336-0.563h-82.42
			c-1.842,0-3.336,0.252-3.336,0.563V250.43z"/>
		<g style="display:inline;">
			<g>
				<path style="fill:#FFFFFF;" d="M159.926,198.538c0,26.163,0,52.325,0,78.488c0,6.448,10,6.448,10,0c0-26.163,0-52.325,0-78.488
					C169.926,192.09,159.926,192.09,159.926,198.538L159.926,198.538z"/>
			</g>
		</g>
		<g style="display:inline;">
			<g>
				<path style="fill:#FFFFFF;" d="M69.833,231.617c0,15.137,0,30.272,0,45.409c0,6.448,10,6.448,10,0c0-15.137,0-30.272,0-45.409
					C79.833,225.169,69.833,225.169,69.833,231.617L69.833,231.617z"/>
			</g>
		</g>
	</g>
	<g>
		<g>
			<g>
				<path style="fill:#FFFFFF;" d="M194.96,77.292c31.303,0,62.605,0,93.908,0c4.514,0,4.514-7,0-7c-31.303,0-62.605,0-93.908,0
					C190.446,70.292,190.446,77.292,194.96,77.292L194.96,77.292z"/>
			</g>
		</g>
		
			<line style="fill:none;stroke:#FFFFFF;stroke-width:7;stroke-miterlimit:10;" x1="280.271" y1="152.791" x2="203.412" y2="152.791"/>
		
			<line style="fill:none;stroke:#FFFFFF;stroke-width:7;stroke-miterlimit:10;" x1="242.045" y1="86.98" x2="242.045" y2="150.834"/>
		<g>
			<g>
				<path style="fill:#FFFFFF;" d="M239.166,112.833c2.206,0,4.413,0,6.619,0c4.514,0,4.514-7,0-7c-2.206,0-4.413,0-6.619,0
					C234.652,105.833,234.652,112.833,239.166,112.833L239.166,112.833z"/>
			</g>
		</g>
		<g>
			<g>
				<path style="fill:#FFFFFF;" d="M277.476,75.875c-0.378,4.219-9.253,5.84-12.324,6.591c-7.512,1.837-15.365,2.27-23.069,2.325
					c-7.734,0.055-15.516-0.649-23.069-2.325c-3.067-0.681-11.95-2.42-12.324-6.591c-0.5,0.5-1,1-1.5,1.5
					c24.597-0.054,49.19-0.057,73.787,0c1.935,0.004,1.935-2.996,0-3c-24.597-0.057-49.19-0.054-73.787,0
					c-0.763,0.001-1.573,0.683-1.5,1.5c0.421,4.694,5.694,6.696,9.525,8.072c9.063,3.256,19.342,3.776,28.868,3.844
					c9.638,0.069,19.665-0.845,28.868-3.844c3.844-1.253,9.112-3.458,9.525-8.072C280.648,73.948,277.646,73.965,277.476,75.875z"/>
			</g>
		</g>
		<g>
			<g>
				<path style="fill:#FFFFFF;" d="M193.401,77.561c1.757,0.079,9.381-0.473,10.079,0.658c1.299,2.105,1.087,5.601,1.234,7.963
					c0.218,3.496,0.219,7.008,0.225,10.509c0.016,8.345,0.218,16.748-1.238,24.993c-0.921,5.215-3.456,16.95-10.3,17.424
					c0.5,0.5,1,1,1.5,1.5c-0.068-21.517-0.071-43.029,0-64.546c0.007-1.935-2.993-1.934-3,0c-0.071,21.517-0.068,43.029,0,64.546
					c0.003,0.775,0.682,1.557,1.5,1.5c6.842-0.475,9.932-8.157,11.756-13.766c3.302-10.148,2.768-21.125,2.782-31.651
					c0.007-4.623-0.05-9.255-0.483-13.86c-0.2-2.114-0.337-5.169-1.869-6.833c-2.276-2.471-9.146-1.3-12.186-1.437
					C191.467,74.474,191.475,77.474,193.401,77.561z"/>
			</g>
		</g>
		<g>
			<g>
				<path style="fill:#FFFFFF;" d="M290.463,74.288c-3.04,0.136-9.908-1.035-12.186,1.437c-1.552,1.685-1.622,4.702-1.868,6.833
					c-0.528,4.583-0.476,9.254-0.483,13.86c-0.02,10.652-0.229,21.327,2.781,31.651c1.641,5.626,5.035,13.3,11.756,13.766
					c0.818,0.057,1.498-0.725,1.5-1.5c0.068-21.517,0.071-43.029,0-64.546c-0.007-1.934-3.007-1.935-3,0
					c0.071,21.517,0.068,43.029,0,64.546c0.5-0.5,1-1,1.5-1.5c-6.938-0.481-9.24-12.208-10.299-17.424
					c-1.657-8.161-1.227-16.706-1.238-24.993c-0.009-5.594-0.895-13.227,1.459-18.472c0.45-1.002,8.504-0.587,10.078-0.658
					C292.39,77.201,292.397,74.201,290.463,74.288z"/>
			</g>
		</g>
		<g>
			<g>
				<path style="fill:#FFFFFF;" d="M290.463,183.989c-3.098-0.14-6.194-0.278-9.292-0.418c-0.721-0.032-1.51,0.037-2.215-0.104
					c-0.172-0.035-0.01-5.141-0.005-5.512c0.091-7.663,0.302-15.096,2.244-22.562c1.126-4.327,3.762-12.569,9.268-12.951
					c-0.5-0.5-1-1-1.5-1.5c0.047,14.85,0.135,29.697,0,44.546c-0.018,1.936,2.982,1.934,3,0c0.135-14.849,0.047-29.697,0-44.546
					c-0.002-0.775-0.682-1.557-1.5-1.5c-5.353,0.371-8.547,5.406-10.378,9.958c-3.689,9.176-4.024,18.797-4.134,28.555
					c-0.03,2.635-0.985,8.171,2.935,8.524c3.833,0.345,7.731,0.337,11.577,0.51C292.397,187.076,292.39,184.076,290.463,183.989z"/>
			</g>
		</g>
		<g>
			<g>
				<path style="fill:#FFFFFF;" d="M193.401,187.107c3.847-0.173,7.745-0.165,11.578-0.51c3.918-0.354,2.966-5.89,2.935-8.525
					c-0.115-9.76-0.443-19.375-4.135-28.555c-1.83-4.551-5.024-9.586-10.378-9.958c-0.818-0.057-1.497,0.725-1.5,1.5
					c-0.047,14.85-0.135,29.697,0,44.547c0.018,1.934,3.018,1.936,3,0c-0.135-14.85-0.047-29.697,0-44.547c-0.5,0.5-1,1-1.5,1.5
					c5.598,0.388,8.008,8.628,9.268,12.951c2.145,7.354,2.16,14.978,2.245,22.562c0.021,1.766,0.198,3.647-0.103,5.399
					c-0.049,0.281-1.595,0.194-2.117,0.218c-3.098,0.14-6.195,0.278-9.293,0.418C191.475,184.194,191.467,187.194,193.401,187.107z"
					/>
			</g>
		</g>
	</g>
	<g>
		<g>
			<g>
				<path style="fill:#FFFFFF;" d="M114.97,235.568h55.765c7.66,0,9.268,3.363,9.268,6.185v3.654c0,2.821-1.608,6.185-9.268,6.185
					H98.067"/>
			</g>
			<path style="fill:#FFFFFF;" d="M169.997,187.715c0,29.087,0,58.175,0,87.262c0,7.17,11.118,7.17,11.118,0
				c0-29.087,0-58.175,0-87.262C181.114,180.545,169.997,180.545,169.997,187.715L169.997,187.715z"/>
			<path style="fill:#FFFFFF;" d="M69.833,256.232c0,6.248,0,12.496,0,18.744c0,7.17,11.118,7.17,11.118,0
				c0-6.711,0-13.423,0-20.135"/>
		</g>
		<g>
			<g>
				<path style="fill:#FFFFFF;" d="M71.789,141.731c12.409,0.156,24.817,0.313,37.226,0.469c2.698,0.034,8.805-1.091,9.65,1.245
					c2.246,6.207,1.451,14.158,1.378,20.621c-0.193,17.223-0.83,34.676-1.916,51.866c-0.688,10.881-4.404,21.545-12.655,28.945
					c-7.179,6.438-17.091,8.857-26.428,9.839c-2.474,0.261-4.965,0.33-7.45,0.387c0.5,0.5,1,1,1.5,1.5
					c0-38.791,0.084-77.581,0.195-116.372c0.005-1.935-2.995-1.935-3,0c-0.111,38.791-0.195,77.581-0.195,116.372
					c0,0.804,0.682,1.519,1.5,1.5c18.265-0.414,36.699-5.685,45.074-23.405c4.218-8.927,4.491-18.646,4.708-28.313
					c0.182-8.111,0.719-16.217,1.088-24.32c0.41-9.012,0.767-18.046,0.531-27.069c-0.104-4.015,0.397-11.416-2.652-14.661
					c-1.875-1.997-6.647-1.075-9.008-1.105c-7.734-0.097-15.468-0.195-23.202-0.292c-5.448-0.069-10.896-0.137-16.343-0.206
					C69.854,138.707,69.856,141.707,71.789,141.731z"/>
			</g>
		</g>
		<g>
			<g>
				<path style="fill:#FFFFFF;" d="M120.571,194.386c0,14.414,0,28.827,0,43.241c0,1.935,3,1.935,3,0c0-14.414,0-28.827,0-43.241
					C123.571,192.451,120.571,192.451,120.571,194.386L120.571,194.386z"/>
			</g>
		</g>
		<g>
			<g>
				<path style="fill:#FFFFFF;" d="M137.742,194.386c0,14.414,0,28.827,0,43.241c0,1.935,3,1.935,3,0c0-14.414,0-28.827,0-43.241
					C140.742,192.451,137.742,192.451,137.742,194.386L137.742,194.386z"/>
			</g>
		</g>
		<g>
			<g>
				<path style="fill:#FFFFFF;" d="M154.913,194.386c0,14.414,0,28.827,0,43.241c0,1.935,3,1.935,3,0c0-14.414,0-28.827,0-43.241
					C157.913,192.451,154.913,192.451,154.913,194.386L154.913,194.386z"/>
			</g>
		</g>
		<g>
			<g>
				<path style="fill:#FFFFFF;" d="M163.499,194.386c0,14.414,0,28.827,0,43.241c0,1.935,3,1.935,3,0c0-14.414,0-28.827,0-43.241
					C166.499,192.451,163.499,192.451,163.499,194.386L163.499,194.386z"/>
			</g>
		</g>
		<g>
			<g>
				<path style="fill:#FFFFFF;" d="M129.157,194.386c0,14.414,0,28.827,0,43.241c0,1.935,3,1.935,3,0c0-14.414,0-28.827,0-43.241
					C132.157,192.451,129.157,192.451,129.157,194.386L129.157,194.386z"/>
			</g>
		</g>
		<g>
			<g>
				<path style="fill:#FFFFFF;" d="M146.328,194.386c0,14.414,0,28.827,0,43.241c0,1.935,3,1.935,3,0c0-14.414,0-28.827,0-43.241
					C149.328,192.451,146.328,192.451,146.328,194.386L146.328,194.386z"/>
			</g>
		</g>
		<g>
			<g>
				<path style="fill:#FFFFFF;" d="M122.071,195.886c16.188,0,32.376,0,48.564,0c1.935,0,1.935-3,0-3c-16.188,0-32.376,0-48.564,0
					C120.136,192.886,120.136,195.886,122.071,195.886L122.071,195.886z"/>
			</g>
		</g>
		<g>
			<g>
				<path style="fill:#FFFFFF;" d="M75.392,291.417c6.449,0,6.449-10,0-10S68.943,291.417,75.392,291.417L75.392,291.417z"/>
			</g>
		</g>
		<g>
			<g>
				<path style="fill:#FFFFFF;" d="M175.555,291.417c6.449,0,6.449-10,0-10S169.106,291.417,175.555,291.417L175.555,291.417z"/>
			</g>
		</g>
		<path style="fill:#FFFFFF;" d="M79.561,238.789c0,2.303-1.866,4.17-4.169,4.17l0,0c-2.303,0-4.169-1.867-4.169-4.17l0,0
			c0-2.303,1.866-4.169,4.169-4.169l0,0C77.695,234.62,79.561,236.486,79.561,238.789L79.561,238.789z"/>
		<path style="fill:#FFFFFF;" d="M85.12,177.507c0,2.303-1.867,4.169-4.169,4.169l0,0c-2.303,0-4.169-1.867-4.169-4.169l0,0
			c0-2.303,1.866-4.169,4.169-4.169l0,0C83.253,173.338,85.12,175.205,85.12,177.507L85.12,177.507z"/>
		<path style="fill:#FFFFFF;" d="M121.509,152.613c0,2.303-1.867,4.169-4.169,4.169l0,0c-2.303,0-4.169-1.867-4.169-4.169l0,0
			c0-2.303,1.866-4.169,4.169-4.169l0,0C119.642,148.444,121.509,150.311,121.509,152.613L121.509,152.613z"/>
		<path style="fill:#FFFFFF;" d="M87.9,160.952c0,2.303-1.867,4.169-4.169,4.169l0,0c-2.303,0-4.169-1.867-4.169-4.169l0,0
			c0-2.303,1.866-4.169,4.169-4.169l0,0C86.034,156.783,87.9,158.649,87.9,160.952L87.9,160.952z"/>
		<path style="fill:#FFFFFF;" d="M80.951,146.79c0,2.303-1.867,4.169-4.169,4.169l0,0c-2.303,0-4.169-1.867-4.169-4.169l0,0
			c0-2.303,1.866-4.169,4.169-4.169l0,0C79.084,142.621,80.951,144.487,80.951,146.79L80.951,146.79z"/>
		<path style="fill:#FFFFFF;" d="M104.919,144.4c0,2.303-1.867,4.169-4.169,4.169l0,0c-2.303,0-4.169-1.867-4.169-4.169l0,0
			c0-2.303,1.866-4.169,4.169-4.169l0,0C103.053,140.231,104.919,142.098,104.919,144.4L104.919,144.4z"/>
		<path style="fill:#FFFFFF;" d="M110.577,211.065c0,2.303-1.867,4.169-4.169,4.169l0,0c-2.303,0-4.169-1.866-4.169-4.169l0,0
			c0-2.303,1.866-4.169,4.169-4.169l0,0C108.71,206.896,110.577,208.763,110.577,211.065L110.577,211.065z"/>
		<path style="fill:#FFFFFF;" d="M117.339,169.038c0,2.303-1.866,4.169-4.169,4.169l0,0c-2.303,0-4.169-1.866-4.169-4.169l0,0
			c0-2.303,1.866-4.169,4.169-4.169l0,0C115.473,164.869,117.339,166.735,117.339,169.038L117.339,169.038z"/>
		<path style="fill:#FFFFFF;" d="M89.566,249.629c0,2.303-1.866,4.17-4.169,4.17l0,0c-2.303,0-4.169-1.867-4.169-4.17l0,0
			c0-2.303,1.867-4.169,4.169-4.169l0,0C87.7,245.46,89.566,247.326,89.566,249.629L89.566,249.629z"/>
		<path style="fill:#FFFFFF;" d="M83.731,190.678c0,2.303-1.867,4.17-4.169,4.17l0,0c-2.303,0-4.169-1.867-4.169-4.17l0,0
			c0-2.303,1.866-4.169,4.169-4.169l0,0C81.864,186.509,83.731,188.375,83.731,190.678L83.731,190.678z"/>
		<path style="fill:#FFFFFF;" d="M100.497,239.17c2.093-0.961,4.568-0.044,5.529,2.049l0,0c0.96,2.094,0.042,4.568-2.05,5.529l0,0
			c-2.092,0.959-4.567,0.042-5.528-2.05l0,0C97.487,242.604,98.405,240.129,100.497,239.17L100.497,239.17z"/>
		<path style="fill:#FFFFFF;" d="M111.429,224.717c2.093-0.961,4.568-0.044,5.529,2.049l0,0c0.96,2.094,0.042,4.568-2.05,5.529l0,0
			c-2.093,0.959-4.568,0.043-5.529-2.051l0,0C108.419,228.152,109.337,225.678,111.429,224.717L111.429,224.717z"/>
		<path style="fill:#FFFFFF;" d="M91.734,222.441c1.967,1.197,2.592,3.762,1.396,5.729l0,0c-1.197,1.968-3.761,2.592-5.729,1.396
			l0,0c-1.967-1.197-2.593-3.762-1.396-5.729l0,0C87.201,221.87,89.766,221.245,91.734,222.441L91.734,222.441z"/>
		<path style="fill:#FFFFFF;" d="M77.559,203.334c1.967,1.196,2.592,3.761,1.396,5.729l0,0c-1.196,1.967-3.761,2.592-5.729,1.395
			l0,0c-1.968-1.195-2.592-3.76-1.396-5.728l0,0C73.027,202.762,75.591,202.137,77.559,203.334L77.559,203.334z"/>
		<path style="fill:#FFFFFF;" d="M111.166,182.945c1.967,1.196,2.592,3.762,1.396,5.729l0,0c-1.197,1.969-3.761,2.592-5.728,1.396
			l0,0c-1.968-1.197-2.592-3.762-1.396-5.729l0,0C106.635,182.373,109.199,181.749,111.166,182.945L111.166,182.945z"/>
		<path style="fill:#FFFFFF;" d="M98.747,165.476c1.968,1.197,2.592,3.761,1.396,5.729l0,0c-1.196,1.968-3.761,2.592-5.729,1.396
			l0,0c-1.967-1.197-2.592-3.761-1.396-5.729l0,0C94.215,164.904,96.779,164.28,98.747,165.476L98.747,165.476z"/>
		<path style="fill:#FFFFFF;" d="M97.852,194.994c1.968,1.195,2.593,3.76,1.396,5.728l0,0c-1.196,1.968-3.76,2.593-5.729,1.396l0,0
			c-1.968-1.197-2.592-3.761-1.395-5.729l0,0C93.321,194.422,95.885,193.797,97.852,194.994L97.852,194.994z"/>
	</g>
</g>
<g id="Ebene_1">
</g>
</svg>
