<?xml version="1.0" encoding="iso-8859-1"?>
<!-- Generator: Adobe Illustrator 16.0.0, SVG Export Plug-In . SVG Version: 6.00 Build 0)  -->
<!DOCTYPE svg PUBLIC "-//W3C//DTD SVG 1.1 Tiny//EN" "http://www.w3.org/Graphics/SVG/1.1/DTD/svg11-tiny.dtd">
<svg version="1.1" baseProfile="tiny" id="scene_x5F_keyboard"
	 xmlns="http://www.w3.org/2000/svg" xmlns:xlink="http://www.w3.org/1999/xlink" x="0px" y="0px" width="361px" height="361px"
	 viewBox="0 0 361 361" xml:space="preserve">
<g id="Schluessel3">
	<g>
		<path fill="#FFFFFF" d="M212.735,145.573c5.888-1.038,11.775-2.075,17.663-3.113c8.451-1.489,8.61,11.82,9.553,17.179
			c1.52,8.639,3.04,17.279,4.56,25.918c0.422,2.4,0.845,4.801,1.267,7.201c1.103,6.268-4.446,7.697-9.155,8.526
			c-0.813,0.143-1.239,1.112-1.047,1.845c2.55,9.778,3.639,20.138,5.389,30.082c2.494,14.171,4.987,28.343,7.48,42.515
			c0.979,5.567,1.727,11.172-5.866,12.508c-4.701,0.827-10.904,1.903-12.056-4.646c-0.176-1-0.352-2-0.528-3
			c-2.376-13.504-4.752-27.008-7.128-40.513c-1.949-11.077-4.779-22.36-5.826-33.565c-0.096-1.03-0.879-1.626-1.899-1.446
			c-1.582,0.278-3.164,0.557-4.747,0.835c-1.903,0.335-1.094,3.226,0.798,2.893c1.582-0.278,3.164-0.557,4.747-0.835
			c-0.633-0.482-1.266-0.964-1.899-1.446c0.923,9.883,3.371,19.798,5.089,29.564c2.519,14.314,5.037,28.629,7.555,42.943
			c0.677,3.848,0.935,7.372,3.672,10.433c3.686,4.123,14.482,3.075,18.423-0.449c3.893-3.481,3.694-7.609,2.881-12.226
			c-0.983-5.59-1.967-11.181-2.951-16.771c-2.156-12.25-4.311-24.5-6.466-36.75c-1.218-6.925-2.001-14.111-3.777-20.922
			c-0.349,0.615-0.698,1.23-1.047,1.845c4.223-0.743,8.809-1.528,10.625-6.058c1.222-3.047,0.698-5.74,0.158-8.806
			c-1.735-9.862-3.47-19.724-5.206-29.586c-1.034-5.877-0.946-16.796-7.614-19.47c-3.881-1.556-7.828-0.33-11.777,0.367
			c-3.89,0.686-7.781,1.371-11.671,2.057C210.035,143.016,210.844,145.906,212.735,145.573L212.735,145.573z"/>
	</g>
	<g>
		<path fill="#FFFFFF" d="M230.855,216.863c1.547,8.794,3.095,17.589,4.642,26.384c0.334,1.903,3.226,1.094,2.893-0.798
			c-1.547-8.794-3.095-17.589-4.642-26.384C233.413,214.163,230.522,214.972,230.855,216.863L230.855,216.863z"/>
	</g>
	<g>
		<path fill="#FFFFFF" d="M226.58,222.864c2.205,12.534,4.41,25.067,6.616,37.601c0.334,1.903,3.226,1.094,2.893-0.798
			c-2.205-12.534-4.41-25.067-6.616-37.601C229.138,220.164,226.247,220.973,226.58,222.864L226.58,222.864z"/>
	</g>
	<g>
		<path fill="#FFFFFF" d="M220.319,221.065c0.544,2.346,2.715,3.98,5.138,3.688c2.541-0.307,4.395-2.645,4.087-5.192
			c-0.307-2.54-2.644-4.395-5.191-4.087c-2.54,0.308-4.395,2.645-4.087,5.192c0.229,1.896,3.232,1.918,3,0
			c-0.117-0.966,0.154-1.821,1.147-2.167c0.899-0.313,1.812,0.276,2.106,1.122c0.771,2.208-2.756,3.021-3.307,0.646
			C222.775,218.383,219.882,219.183,220.319,221.065z"/>
	</g>
	<g>
		<path fill="#FFFFFF" d="M232.687,247.774c0.591,2.547,2.931,4.301,5.56,3.983c2.746-0.332,4.714-2.877,4.383-5.613
			c-0.332-2.746-2.877-4.714-5.614-4.383c-2.746,0.332-4.714,2.878-4.382,5.614c0.229,1.896,3.232,1.918,3,0
			c-0.14-1.156,0.229-2.17,1.404-2.58c1.093-0.382,2.201,0.345,2.558,1.37c0.931,2.668-3.352,3.674-4.016,0.811
			C235.143,245.092,232.25,245.892,232.687,247.774z"/>
	</g>
	<g>
		<path fill="#FFFFFF" d="M229.071,264.798c0.591,2.547,2.931,4.302,5.56,3.984c2.746-0.332,4.714-2.877,4.383-5.614
			c-0.332-2.746-2.878-4.714-5.614-4.383c-2.746,0.332-4.713,2.877-4.382,5.614c0.229,1.896,3.232,1.918,3,0
			c-0.14-1.156,0.229-2.17,1.404-2.58c1.093-0.381,2.201,0.344,2.559,1.37c0.931,2.669-3.352,3.675-4.016,0.811
			C231.527,262.116,228.634,262.915,229.071,264.798z"/>
	</g>
	<g>
		<path fill="#FFFFFF" d="M235.248,279.401c0.422,1.822,2.15,3.147,4.04,2.918c2.005-0.243,3.566-2.039,3.318-4.094
			c-0.243-2.005-2.04-3.566-4.094-3.317c-2.005,0.243-3.566,2.039-3.317,4.094c0.099,0.812,0.608,1.5,1.5,1.5
			c0.743,0,1.599-0.687,1.5-1.5c-0.057-0.468-0.035-0.914,0.478-1.092c0.396-0.138,0.799,0.095,0.932,0.477
			c0.353,1.011-1.207,1.324-1.463,0.217C237.704,276.719,234.811,277.518,235.248,279.401z"/>
	</g>
	<g>
		<path fill="#FFFFFF" d="M234.427,267.462c0.559,3.175,1.117,6.351,1.676,9.527c0.334,1.903,3.226,1.094,2.893-0.798
			c-0.559-3.175-1.117-6.351-1.676-9.527C236.985,264.761,234.094,265.57,234.427,267.462L234.427,267.462z"/>
	</g>
	<g>
		<path fill="#FFFFFF" d="M237.625,282.637c0.414,2.354,0.828,4.709,1.243,7.064c0.334,1.903,3.226,1.094,2.893-0.798
			c-0.414-2.354-0.828-4.709-1.243-7.064C240.183,279.937,237.292,280.746,237.625,282.637L237.625,282.637z"/>
	</g>
	<g>
		<path fill="#FFFFFF" d="M236.801,250.657c2.242,12.742,4.483,25.483,6.726,38.226c0.334,1.903,3.226,1.094,2.893-0.798
			c-2.242-12.742-4.483-25.483-6.726-38.226C239.359,247.956,236.468,248.765,236.801,250.657L236.801,250.657z"/>
	</g>
</g>
<g id="Schluessel2">
	<g>
		<path fill="#FFFFFF" d="M226.252,145.441c-6.766-1.382-13.533-2.764-20.299-4.146c-6.492-1.326-13.883-1.392-15.56,6.817
			c-1.565,7.663-3.13,15.325-4.694,22.988c-1.447,7.086-1.377,14.252,7.395,16.043c-0.349-0.615-0.698-1.23-1.047-1.845
			c-1.184,3.565-1.632,6.408-0.375,9.852c0.408,1.117,0.816,2.234,1.225,3.352c0.675,1.848,1.334-0.905-0.017,0.511
			c-1.461,1.532-2.922,3.063-4.383,4.595c-0.355,0.372-0.559,0.952-0.386,1.459c0.584,1.718,1.169,3.435,1.754,5.153
			c0.368,1.081,0.736,2.162,1.104,3.243c0.568,1.669,1.284-1.152-0.153,0.541c-1.861,2.191-5.521,5.814-4.372,9.222
			c0.628,1.861,1.256,3.722,1.884,5.583c0.244,0.722,0.288,2.134,0.598,1.319c-0.456,1.199-0.911,2.397-1.367,3.597
			c-1.667,4.386,0.586,7.819,3.313,11.401c0.5,0.656,1.276,0.98,2.053,0.539c2.925-1.664,7.457-4.152,7.607-7.943
			c0.045-1.125,0.089-2.249,0.134-3.374c0.02-0.512,0.041-1.025,0.061-1.538c0.054-1.367-0.87,0.927-0.022-0.024
			c1.6-1.793,3.199-3.586,4.798-5.38c2.313-2.593,0.984-6.683,0.118-9.471c-0.612-1.97,0.039-1.833-0.952-0.728
			c0.747-0.833,1.495-1.667,2.242-2.5c1.428-1.592,2.855-3.184,4.282-4.775c0.337-0.376,0.577-0.951,0.386-1.459
			c-0.743-1.982-1.487-3.964-2.23-5.946c-0.685-1.825-0.84,0.403-0.412-0.054c0.957-1.021,1.913-2.041,2.87-3.061
			c2.616-2.79,3.041-5.286,3.625-9.13c-0.615,0.349-1.23,0.698-1.845,1.047c5.25,1.072,12.027,0.987,13.886-5.429
			c1.208-4.168,1.851-8.54,2.719-12.788C231.933,164.581,238.463,148.977,226.252,145.441c-1.863-0.54-2.652,2.355-0.798,2.893
			c6.043,1.75,5.366,6.733,4.408,11.422c-0.855,4.186-1.71,8.372-2.565,12.558c-0.714,3.498-1.428,6.995-2.143,10.492
			c-1.191,5.831-5.656,6.674-10.771,5.63c-0.725-0.148-1.717,0.201-1.845,1.047c-0.131,0.861-0.324,1.711-0.498,2.564
			c-0.16,0.784-1.038,3.837-0.495,3.257c-1.706,1.819-3.411,3.639-5.117,5.458c-0.344,0.366-0.574,0.959-0.386,1.459
			c0.743,1.982,1.487,3.964,2.23,5.946c0.699,1.865,1.313-0.932,0.111,0.408c-0.982,1.096-1.964,2.191-2.947,3.286
			c-0.938,1.045-2.966,2.545-3.36,3.979c-0.458,1.667,1.169,4.562,1.655,6.127c0.179,0.574,0.163-0.036-0.132,1.412
			c-0.112,0.55-0.225,1.1-0.337,1.649c-0.278,1.362,0.534-0.21-0.17,0.579c-1.634,1.832-3.269,3.665-4.902,5.497
			c-1.112,1.247-0.572,4.413-0.632,5.922c-0.116,2.91-3.824,4.724-6.15,6.047c0.685,0.18,1.369,0.359,2.053,0.539
			c-1.096-1.439-4.432-5.353-3.725-7.211c0.663-1.745,2.197-4.157,2.197-6.037c0-1.876-1.346-4.229-1.938-5.982
			c-0.449-1.332-0.72-3.947-0.107-4.668c1.307-1.538,2.613-3.076,3.919-4.614c1.066-1.255-0.306-3.492-0.737-4.758
			c-0.502-1.476-1.005-2.952-1.507-4.428c-0.135-0.396-0.27-0.792-0.404-1.188c-0.369-1.082-1.043,1.531-0.156,0.601
			c1.604-1.681,3.207-3.361,4.81-5.042c0.349-0.365,0.568-0.959,0.386-1.459c-2.059-5.636-3.144-7.052-1.259-12.728
			c0.245-0.738-0.276-1.688-1.047-1.845c-8.977-1.833-5.706-10.362-4.447-16.527c1.261-6.174,2.522-12.348,3.783-18.522
			c1.747-8.554,10.354-5.334,16.169-4.146c5.353,1.093,10.705,2.187,16.058,3.279C227.343,148.719,228.147,145.828,226.252,145.441z
			"/>
	</g>
	<g>
		<path fill="#FFFFFF" d="M214.724,152.181c4.009,1.232,2.245,8.12-1.865,7.28c-1.613-0.33-3.227-0.659-4.839-0.988
			c-4.084-0.834-2.25-8.121,1.865-7.28C211.498,151.522,213.111,151.852,214.724,152.181c1.889,0.386,2.692-2.506,0.798-2.893
			c-3.27-0.668-6.877-2.122-9.892-0.063c-4.441,3.033-3.543,10.563,1.591,12.141c3.043,0.936,7.102,1.969,9.892,0.063
			c4.441-3.033,3.543-10.563-1.591-12.141C213.667,148.719,212.881,151.615,214.724,152.181z"/>
	</g>
</g>
<g id="Schluessel1">
	<g>
		<path fill="#FFFFFF" d="M116.539,148.865c-7.379,0-14.758,0-22.137,0c-7.795,0-16.231,2.496-16.231,12.022
			c0,8.125,0,16.25,0,24.374c0,7.528-0.88,15.762,7.746,18.766c-0.367-0.482-0.734-0.964-1.101-1.446c0,14.873,0,29.746,0,44.619
			c0,9.032,0,18.064,0,27.097c0,2.283,0,4.566,0,6.849c0,2.148,1.539,4.012,2.53,5.852c0.248,0.461,0.781,0.743,1.295,0.743
			c2.591,0,4.018,0.21,6.113-1.232c1.799-1.237,5.441-2.754,6.576-4.691c1.098-1.875,0.205-6.116,0.205-8.199
			c0-2.045-0.309-0.884,0.484-2.398c0.656-1.252,1.313-2.505,1.969-3.757c0.619-1.182,0.732-5.24,0-6.371
			c-0.748-1.153-1.495-2.307-2.243-3.46c-0.839-1.294-0.678,1.457-0.189,0.371c0.314-0.699,0.629-1.398,0.943-2.097
			c0.673-1.496,3.219-5.042,2.375-6.792c-1.181-2.446-2.362-4.893-3.543-7.339c-0.079,0.605-0.157,1.211-0.235,1.817
			c2.137-2.148,7.527-5.6,7.527-8.856c0-1.921,0.633-4.926-0.274-6.695c-1.158-2.257-2.316-4.514-3.474-6.771
			c-0.079,0.605-0.157,1.211-0.235,1.817c1.88-1.985,5.679-4.482,5.781-7.404c0.158-4.564,0.316-9.128,0.475-13.692
			c-0.5,0.5-1,1-1.5,1.5c7.345,0,14.886,1.759,18.437-6.47c1.888-4.375,0.839-10.817,0.839-15.403
			C128.67,170.597,132.757,149.846,116.539,148.865c-1.933-0.117-1.922,2.884,0,3c7.904,0.479,9.132,6.8,9.132,13.125
			c0,5.542,0,11.085,0,16.627c0,3.671,0,7.341,0,11.012c0,1.875-0.597,3.451-1.519,5.037c-2.216,3.812-5.613,2.824-9.113,2.824
			c-1.881,0-3.763,0-5.645,0c-0.839,0-1.472,0.683-1.5,1.5c-0.136,3.93-0.272,7.86-0.409,11.791
			c-0.026,0.766-0.053,1.532-0.08,2.297c-0.004,0.118,0.793-1.11-0.403,0.152c-1.495,1.578-2.99,3.157-4.485,4.735
			c-0.485,0.512-0.551,1.2-0.235,1.817c0.997,1.943,1.994,3.885,2.99,5.828c0.534,1.041,0.349,3,0.349,5.399
			c0,1.852,0.299,0.479,0.135,0.645c-0.859,0.863-1.719,1.727-2.578,2.591c-1.401,1.408-2.803,2.817-4.205,4.226
			c-0.504,0.506-0.532,1.203-0.235,1.817c1.162,2.405,2.323,4.811,3.484,7.216c-0.478-0.989,0.243-1.797-0.419-0.326
			c-0.363,0.807-0.726,1.614-1.088,2.42c-0.659,1.464-1.317,2.928-1.976,4.393c-0.39,0.867-0.058,1.424,0.416,2.155
			c0.469,0.723,2.038,3.405,2.038,2.912c0,4.245-0.102,4.477-2.118,8.324c-1.072,2.046-0.54,4.785-0.54,7.025
			c0,0.853,0,1.705,0,2.557c0,1.546-0.296,0.516,0.633-0.124c-1.486,1.022-2.972,2.044-4.457,3.066
			c-0.644,0.443-3.047,1.834-2.493,1.834c-0.858,0-1.717,0-2.576,0c-1.718,0,0.56,1.237-0.07,0.068
			c-0.409-0.759-0.817-1.518-1.226-2.276c-0.262-0.486-0.531-1.819-0.531-0.625c0-0.332,0-0.663,0-0.994c0-25.37,0-50.74,0-76.11
			c0-0.741,0-1.481,0-2.222c0-0.701-0.465-1.225-1.101-1.446c-7.459-2.598-5.543-13.147-5.543-19.517c0-6.754,0-13.509,0-20.263
			c0-10.009,9.448-9.489,16.523-9.489c6.282,0,12.563,0,18.845,0C118.473,151.865,118.473,148.865,116.539,148.865z"/>
	</g>
	<g>
		<path fill="#FFFFFF" d="M90.017,203.986c0,27.418,0,54.836,0,82.254c0,1.935,3,1.935,3,0c0-27.418,0-54.836,0-82.254
			C93.017,202.051,90.017,202.051,90.017,203.986L90.017,203.986z"/>
	</g>
	<g>
		<path fill="#FFFFFF" d="M99.655,168.791c-0.689,6.049-10.88,5.31-10.88-0.716c0-2.057,0-4.113,0-6.17
			c0-5.978,10.88-5.366,10.88,0.716C99.655,164.677,99.655,166.734,99.655,168.791c0,1.935,3,1.935,3,0
			c0-4.344,0.852-8.827-2.69-12.024c-4.928-4.449-13.445-1.401-14.19,5.138c-0.468,4.106-0.553,9.097,2.69,12.024
			c4.928,4.449,13.445,1.402,14.19-5.138C102.874,166.87,99.872,166.891,99.655,168.791z"/>
	</g>
</g>
<g id="Schluessel3_1_" display="none">
	<g display="inline">
		<path fill="#FFFFFF" d="M207.295,27.467c-9.193,0-18.387,0-27.581,0c-4.794,0-8.8,1.466-10.807,6.214
			c-1.091,2.581-0.613,6.133-0.613,8.862c0,11.383,0,22.767,0,34.15c0,3.052-0.273,6.217,0.461,9.201
			c1.499,6.087,7.823,6.573,12.883,6.573c-0.5-0.5-1-1-1.5-1.5c-0.817,10.073-0.095,20.464-0.095,30.561c0,14.389,0,28.778,0,43.167
			c0,3.567-0.524,7.802,1.983,10.724c3.833,4.468,14.584,5.779,19.303,1.731c3.731-3.201,3.714-7.053,3.714-11.469
			c0-5.977,0-11.953,0-17.929c0-12.135,0-24.27,0-36.404c0-6.742,0.451-13.656-0.095-20.382c-0.5,0.5-1,1-1.5,1.5
			c6.67,0,13.345-1.874,13.345-9.946c0-6.355,0-12.711,0-19.066c0-7.784,0-15.569,0-23.354
			C216.795,33.675,214.693,28.063,207.295,27.467c-1.93-0.156-1.915,2.846,0,3c7.366,0.594,6.5,7.54,6.5,12.773
			c0,6.407,0,12.815,0,19.222c0,5.79,0,11.58,0,17.37c0,1.035,0,2.07,0,3.105c0,6.161-5.8,6.529-10.345,6.529
			c-0.768,0-1.566,0.684-1.5,1.5c0.817,10.073,0.095,20.464,0.095,30.561c0,14.389,0,28.778,0,43.167
			c0,5.759-0.201,11.438-8.056,11.438c-4.685,0-10.944-0.048-10.944-6.567c0-1.143,0-2.285,0-3.428c0-13.896,0-27.791,0-41.687
			c0-11.061-0.801-22.452,0.095-33.485c0.066-0.816-0.732-1.5-1.5-1.5c-5.291,0-10.345-0.962-10.345-7.483c0-3.355,0-6.709,0-10.064
			c0-9.792,0-19.584,0-29.376c0-2.723-0.406-5.908,0.688-8.496c1.892-4.478,7.894-3.581,11.775-3.581c7.846,0,15.691,0,23.537,0
			C209.229,30.467,209.229,27.467,207.295,27.467z"/>
	</g>
	<g display="inline">
		<path fill="#FFFFFF" d="M185.628,49.279c-0.371,4.136-5.204,5.463-7.609,2.061c-0.727-1.028-0.558-2.668-0.558-3.869
			c0-2.286,0-4.573,0-6.859c0-4.322,5.364-5.238,7.609-2.061c0.727,1.028,0.558,2.668,0.558,3.869
			C185.628,44.706,185.628,46.993,185.628,49.279c0,1.935,3,1.935,3,0c0-4.108,0.986-9.479-1.518-13.021
			c-4.115-5.822-12.106-1.696-12.648,4.354c-0.347,3.873-0.823,9.709,1.518,13.021c4.115,5.821,12.106,1.697,12.648-4.354
			C188.801,47.351,185.799,47.368,185.628,49.279z"/>
	</g>
	<g display="inline">
		<path fill="#FFFFFF" d="M187.17,103.675c0,8.93,0,17.86,0,26.79c0,1.935,3,1.935,3,0c0-8.93,0-17.86,0-26.79
			C190.17,101.741,187.17,101.741,187.17,103.675L187.17,103.675z"/>
	</g>
	<g display="inline">
		<path fill="#FFFFFF" d="M192.42,108.845c0,12.726,0,25.453,0,38.179c0,1.935,3,1.935,3,0c0-12.726,0-25.453,0-38.179
			C195.42,106.91,192.42,106.91,192.42,108.845L192.42,108.845z"/>
	</g>
	<g display="inline">
		<path fill="#FFFFFF" d="M198.275,105.988c-0.117,2.178-3.258,2.178-3.375,0C194.783,103.808,198.158,103.82,198.275,105.988
			c0.104,1.924,3.104,1.934,3,0c-0.143-2.648-2.039-4.545-4.688-4.688c-2.643-0.142-4.557,2.253-4.688,4.688
			c-0.143,2.643,2.253,4.556,4.688,4.688c2.643,0.142,4.557-2.253,4.688-4.688C201.379,104.054,198.378,104.064,198.275,105.988z"/>
	</g>
	<g display="inline">
		<path fill="#FFFFFF" d="M190.722,134.436c-0.143,2.647-3.961,2.647-4.104,0C186.476,131.787,190.58,131.801,190.722,134.436
			c0.104,1.924,3.104,1.934,3,0c-0.154-2.854-2.197-4.898-5.052-5.052c-2.849-0.153-4.911,2.428-5.052,5.052
			c-0.153,2.849,2.428,4.911,5.052,5.052c2.848,0.153,4.911-2.428,5.052-5.052C193.826,132.502,190.826,132.512,190.722,134.436z"/>
	</g>
	<g display="inline">
		<path fill="#FFFFFF" d="M197.233,150.576c-0.143,2.647-3.961,2.647-4.104,0C192.986,147.926,197.091,147.941,197.233,150.576
			c0.104,1.924,3.104,1.934,3,0c-0.154-2.854-2.197-4.898-5.052-5.052c-2.849-0.153-4.911,2.428-5.052,5.052
			c-0.153,2.849,2.428,4.911,5.052,5.052c2.848,0.153,4.911-2.428,5.052-5.052C200.337,148.642,197.336,148.652,197.233,150.576z"/>
	</g>
	<g display="inline">
		<path fill="#FFFFFF" d="M193.681,166.028c-0.052,0.958-1.427,0.958-1.479,0C192.15,165.068,193.629,165.074,193.681,166.028
			c0.104,1.924,3.104,1.934,3,0c-0.114-2.112-1.627-3.626-3.739-3.74c-2.107-0.113-3.635,1.798-3.74,3.74
			c-0.113,2.107,1.798,3.635,3.74,3.739c2.107,0.113,3.635-1.798,3.739-3.739C196.785,164.094,193.784,164.104,193.681,166.028z"/>
	</g>
	<g display="inline">
		<path fill="#FFFFFF" d="M192.42,154.127c0,3.224,0,6.449,0,9.673c0,1.935,3,1.935,3,0c0-3.224,0-6.449,0-9.673
			C195.42,152.193,192.42,152.193,192.42,154.127L192.42,154.127z"/>
	</g>
	<g display="inline">
		<path fill="#FFFFFF" d="M191.9,169.627c0,2.391,0,4.782,0,7.173c0,1.935,3,1.935,3,0c0-2.391,0-4.782,0-7.173
			C194.9,167.693,191.9,167.693,191.9,169.627L191.9,169.627z"/>
	</g>
	<g display="inline">
		<path fill="#FFFFFF" d="M187.17,137.988c0,12.938,0,25.875,0,38.813c0,1.935,3,1.935,3,0c0-12.938,0-25.875,0-38.813
			C190.17,136.053,187.17,136.053,187.17,137.988L187.17,137.988z"/>
	</g>
</g>
<g id="Schluessel2_1_" display="none">
	<g display="inline">
		<path fill="#FFFFFF" d="M123.946,62.881c-6.906,0-13.812,0-20.717,0c-6.677,0-13.783,1.537-13.783,9.897
			c0,7.821,0,15.641,0,23.462c0,2.557-0.154,5.07,0.461,7.568c1.125,4.571,5.863,6.573,10.098,6.573c-0.5-0.5-1-1-1.5-1.5
			c-0.448,3.76-0.284,6.561,1.65,9.702c0.624,1.013,1.247,2.026,1.87,3.039c1.038,1.685,1.039-1.158,0,0.498
			c-1.125,1.793-2.25,3.586-3.375,5.379c-0.282,0.45-0.264,1.062,0,1.514c0.917,1.566,1.833,3.132,2.75,4.698
			c0.577,0.986,1.153,1.971,1.73,2.957c0.892,1.523,0.936-1.382-0.128,0.553c-1.412,2.569-4.182,6.772-2.352,9.917
			c1.125,1.934,2.25,3.867,3.375,5.801c0.954,1.64,0.505-0.27,0.37,0.556c-0.227,1.388-0.454,2.777-0.68,4.165
			c-0.7,4.289,2.629,7.373,5.67,10.032c0.647,0.566,1.474,0.566,2.121,0c2.586-2.262,6.401-5.551,5.782-9.346
			c-0.181-1.111-0.362-2.222-0.544-3.332c-0.083-0.506-0.165-1.013-0.248-1.519c-0.223-1.364-0.603,1.117,0.041,0.009
			c1.208-2.077,2.417-4.154,3.625-6.23c1.737-2.986-0.478-6.787-1.865-9.311c-1.037-1.887-0.292-1.712-0.992-0.516
			c0.565-0.966,1.131-1.932,1.696-2.898c1.08-1.845,2.16-3.69,3.24-5.536c0.264-0.452,0.282-1.063,0-1.514
			c-1.125-1.793-2.25-3.586-3.375-5.379c-1.055-1.681-0.674,0.598-0.329,0.037c0.733-1.191,1.466-2.382,2.199-3.573
			c1.996-3.242,1.88-5.845,1.684-9.702c-0.5,0.5-1,1-1.5,1.5c5.425,0,11.883-1.541,12.421-8.202
			c0.349-4.326,0.104-8.737,0.104-13.074C133.446,80.288,136.713,63.911,123.946,62.881c-1.93-0.156-1.915,2.846,0,3
			c6.265,0.505,6.5,5.669,6.5,10.407c0,4.272,0,8.545,0,12.817c0,3.57,0,7.14,0,10.709c0,6.048-4.336,7.566-9.525,7.566
			c-0.786,0-1.542,0.683-1.5,1.5c0.044,0.87,0.025,1.741,0.025,2.612c0,0.864-0.287,3.931,0.126,3.259
			c-1.307,2.124-2.614,4.248-3.921,6.371c-0.272,0.443-0.277,1.072,0,1.515c1.125,1.793,2.25,3.586,3.375,5.379
			c1.067,1.7,1.014-1.182,0.105,0.371c-0.743,1.27-1.486,2.54-2.229,3.809c-0.653,1.116-2.807,3.525-2.401,5.001
			c0.534,1.943,2.099,3.902,3.067,5.663c-0.421-0.767-0.121,1.433-0.121,1.897c0,1.773,0.348,0.62-0.42,1.94
			c-1.093,1.878-2.946,4.051-3.526,6.159c-0.479,1.74,0.613,4.554,0.896,6.286c0.354,2.167-3.47,5.08-5.01,6.428
			c0.707,0,1.414,0,2.121,0c-1.228-1.074-5.357-4.302-5.086-5.962c0.333-2.042,1.025-4.281,1.025-6.352
			c0-1.819-2.301-4.36-3.168-5.85c-0.725-1.247-1.379-3.77-0.953-4.545c0.972-1.768,1.944-3.537,2.916-5.305
			c0.753-1.372-1.139-3.459-1.76-4.521c-0.788-1.346-1.575-2.691-2.363-4.037c-0.211-0.361-0.423-0.722-0.634-1.083
			c-0.581-0.992-0.626,1.71,0.053,0.626c1.235-1.968,2.469-3.936,3.704-5.903c0.277-0.443,0.272-1.071,0-1.515
			c-3.142-5.104-4.443-6.308-3.736-12.242c0.097-0.814-0.756-1.5-1.5-1.5c-9.099,0-7.56-9.191-7.56-15.401
			c0-6.301,0-12.603,0-18.905c0-8.661,9.26-7.194,15.111-7.194c5.463,0,10.926,0,16.389,0
			C125.881,65.881,125.881,62.881,123.946,62.881z"/>
	</g>
	<g display="inline">
		<path fill="#FFFFFF" d="M114.203,71.798c4.195,0.407,3.598,7.5-0.573,7.5c-1.646,0-3.293,0-4.939,0c-4.132,0-3.645-7.5,0.573-7.5
			C110.91,71.798,112.556,71.798,114.203,71.798c1.935,0,1.935-3,0-3c-3.387,0-7.085-0.68-9.663,1.977
			c-3.823,3.941-1.129,11.011,4.15,11.523c3.22,0.313,7.275,0.484,9.663-1.977c3.823-3.941,1.129-11.011-4.15-11.523
			C112.277,68.611,112.295,71.613,114.203,71.798z"/>
	</g>
</g>
<g id="Schluessel1_1_" display="none">
	<g display="inline">
		<path fill="#FFFFFF" d="M284.308,41.131c-7.379,0-14.758,0-22.137,0c-7.795,0-16.231,2.496-16.231,12.022
			c0,8.125,0,16.25,0,24.374c0,7.528-0.88,15.762,7.746,18.766c-0.367-0.482-0.734-0.964-1.101-1.446c0,14.873,0,29.746,0,44.619
			c0,9.032,0,18.064,0,27.097c0,2.283,0,4.566,0,6.849c0,2.148,1.539,4.012,2.53,5.852c0.248,0.461,0.781,0.743,1.295,0.743
			c2.591,0,4.018,0.21,6.113-1.232c1.799-1.237,5.441-2.754,6.576-4.691c1.098-1.875,0.205-6.116,0.205-8.199
			c0-2.045-0.309-0.884,0.484-2.398c0.656-1.252,1.313-2.505,1.969-3.757c0.619-1.182,0.732-5.24,0-6.371
			c-0.748-1.153-1.495-2.307-2.243-3.46c-0.839-1.294-0.678,1.457-0.189,0.371c0.314-0.699,0.629-1.398,0.943-2.097
			c0.673-1.496,3.219-5.042,2.375-6.792c-1.181-2.446-2.362-4.893-3.543-7.339c-0.079,0.605-0.157,1.211-0.235,1.817
			c2.137-2.148,7.527-5.6,7.527-8.856c0-1.921,0.633-4.926-0.274-6.695c-1.158-2.257-2.316-4.514-3.474-6.771
			c-0.079,0.605-0.157,1.211-0.235,1.817c1.88-1.985,5.679-4.482,5.781-7.404c0.158-4.564,0.316-9.128,0.475-13.692
			c-0.5,0.5-1,1-1.5,1.5c7.345,0,14.886,1.759,18.437-6.47c1.888-4.375,0.839-10.817,0.839-15.403
			C296.44,62.863,300.527,42.112,284.308,41.131c-1.933-0.117-1.922,2.884,0,3c7.904,0.479,9.132,6.8,9.132,13.125
			c0,5.542,0,11.085,0,16.627c0,3.671,0,7.341,0,11.012c0,1.875-0.597,3.451-1.519,5.037c-2.216,3.812-5.613,2.824-9.113,2.824
			c-1.881,0-3.763,0-5.645,0c-0.839,0-1.472,0.683-1.5,1.5c-0.136,3.93-0.272,7.86-0.409,11.791
			c-0.026,0.766-0.053,1.532-0.08,2.297c-0.004,0.118,0.793-1.11-0.403,0.152c-1.495,1.578-2.99,3.157-4.485,4.735
			c-0.485,0.512-0.551,1.2-0.235,1.817c0.997,1.943,1.994,3.885,2.99,5.828c0.534,1.041,0.349,3,0.349,5.399
			c0,1.852,0.299,0.479,0.135,0.645c-0.859,0.863-1.719,1.727-2.578,2.591c-1.401,1.408-2.803,2.817-4.205,4.226
			c-0.504,0.506-0.532,1.203-0.235,1.817c1.162,2.405,2.323,4.811,3.484,7.216c-0.478-0.989,0.243-1.797-0.419-0.326
			c-0.363,0.807-0.726,1.614-1.088,2.42c-0.659,1.464-1.317,2.928-1.976,4.393c-0.39,0.867-0.058,1.424,0.416,2.155
			c0.469,0.723,2.038,3.405,2.038,2.912c0,4.245-0.102,4.477-2.118,8.324c-1.072,2.046-0.54,4.785-0.54,7.025
			c0,0.853,0,1.705,0,2.557c0,1.546-0.296,0.516,0.633-0.124c-1.486,1.022-2.972,2.044-4.457,3.066
			c-0.644,0.443-3.047,1.834-2.493,1.834c-0.858,0-1.717,0-2.576,0c-1.718,0,0.56,1.237-0.07,0.068
			c-0.409-0.759-0.817-1.518-1.226-2.276c-0.262-0.486-0.531-1.819-0.531-0.625c0-0.332,0-0.663,0-0.994c0-25.37,0-50.74,0-76.11
			c0-0.741,0-1.481,0-2.222c0-0.701-0.465-1.225-1.101-1.446c-7.459-2.598-5.543-13.147-5.543-19.517c0-6.754,0-13.509,0-20.263
			c0-10.009,9.448-9.489,16.523-9.489c6.282,0,12.563,0,18.845,0C286.243,44.131,286.243,41.131,284.308,41.131z"/>
	</g>
	<g display="inline">
		<path fill="#FFFFFF" d="M257.787,96.252c0,27.418,0,54.836,0,82.254c0,1.935,3,1.935,3,0c0-27.418,0-54.836,0-82.254
			C260.787,94.317,257.787,94.317,257.787,96.252L257.787,96.252z"/>
	</g>
	<g display="inline">
		<path fill="#FFFFFF" d="M267.425,61.057c-0.689,6.049-10.88,5.31-10.88-0.716c0-2.057,0-4.113,0-6.17
			c0-5.978,10.88-5.366,10.88,0.716C267.425,56.943,267.425,59,267.425,61.057c0,1.935,3,1.935,3,0c0-4.344,0.852-8.827-2.69-12.024
			c-4.928-4.449-13.445-1.401-14.19,5.138c-0.468,4.106-0.553,9.097,2.69,12.024c4.928,4.449,13.445,1.402,14.19-5.138
			C270.644,59.136,267.641,59.157,267.425,61.057z"/>
	</g>
</g>
<polygon fill="#FFFFFF" points="192.455,191.045 127.17,191.045 127.17,181.045 186.823,181.045 189.982,183.545 192.455,186.67 "/>
<path fill="#FFFFFF" d="M80.96,180.254c-4.339-2.751-3.645-7.257-3.645-11.65c0-6.161,0-12.322,0-18.482c0-15.552,0-31.104,0-46.656
	c0-6.524-2.616-20.867,7.391-20.867c6.85,0,13.699,0,20.549,0c54.355,0,108.711,0,163.067,0c1.701,0,3.523-0.161,5.211,0.135
	c5.824,1.022,5.449,6.886,5.449,11.302c0,13.917,0,27.833,0,41.75c0,12.301,0,24.603,0,36.904c0,5.696-3.503,8.354-8.974,8.354
	c-7.167,0-14.334,0-21.501,0c-0.915,0-1.83,0-2.744,0c-3.145,0-0.682,2.501-0.759,4.938c-0.082,2.561-0.063,5.073,0.759,5.063
	c6.012-0.079,12.025,0,18.038,0c7.483,0,14.228,0.479,20.251-4.945c7.558-6.806,4.93-22.553,4.93-31.579c0-15.693,0-31.386,0-47.08
	c0-10.139,2.546-24.748-6.908-31.549c-6.049-4.351-14.057-3.293-21.118-3.293c-11.831,0-23.663,0-35.494,0
	c-31.833,0-63.666,0-95.499,0c-11.707,0-23.414,0-35.121,0c-7.22,0-15.825-1.152-21.63,4.075
	c-8.344,7.513-5.896,21.479-5.896,31.602c0,15.697,0,31.394,0,47.091c0,11.543-2.732,26.339,8.598,33.521
	c1.194,0.757,3.063,1.668,4.11,1.448c0,0-0.392-3.242,0.292-4.625c0.594-1.202,0.37-1.639,0.458-2.667
	C80.806,182.67,80.768,180.132,80.96,180.254L80.96,180.254z"/>
<g>
	<path fill="#FFFFFF" d="M118.055,111.216c-12.222,5.43-24.444,10.859-36.667,16.289c-5.883,2.614-0.791,11.229,5.047,8.635
		c12.222-5.43,24.444-10.859,36.667-16.289C128.985,117.237,123.893,108.622,118.055,111.216L118.055,111.216z"/>
</g>
<g>
	<path fill="#FFFFFF" d="M177.063,111.216c-12.222,5.43-24.444,10.859-36.667,16.289c-5.883,2.614-0.791,11.229,5.047,8.635
		c12.222-5.43,24.444-10.859,36.667-16.289C187.994,117.237,182.901,108.622,177.063,111.216L177.063,111.216z"/>
</g>
<g>
	<path fill="#FFFFFF" d="M236.072,111.216c-12.222,5.43-24.444,10.859-36.667,16.289c-5.883,2.614-0.791,11.229,5.047,8.635
		c12.222-5.43,24.444-10.859,36.667-16.289C247.002,117.237,241.91,108.622,236.072,111.216L236.072,111.216z"/>
</g>
<g>
	<path fill="#FFFFFF" d="M89.848,150.138c-1.239-5.281-1.413-10.586-0.937-15.973c0.265-2.997,3.188-17.017,7.667-10.105
		c3.121,4.816,3.153,11.825,3.057,17.327c-0.034,1.978-1.501,18.392-6.745,15.212c-1.659-1.005-3.166,1.589-1.515,2.591
		c6.026,3.653,9.026-4.574,10.17-9.085c2.182-8.605,1.839-19.594-2.377-27.559c-2.607-4.926-7.3-4.226-10.038,0
		c-4.978,7.684-4.155,19.948-2.175,28.39C87.397,152.818,90.29,152.02,89.848,150.138L89.848,150.138z"/>
</g>
<g>
	<path fill="#FFFFFF" d="M207.498,141.918c-1.135-5.232-0.76-10.743,1.349-15.687c2.533-5.937,8.033-6.75,11.526-1.188
		c3.087,4.917,3.034,11.726,1.895,17.185c-1.073,5.138-6.101,12.948-11.571,6.755c-1.283-1.453-3.396,0.677-2.121,2.121
		c4.372,4.95,10.001,3.536,13.71-1.324c5.176-6.783,4.442-17.684,1.294-25.063c-2.175-5.098-8.421-9.312-13.438-5.077
		c-6.385,5.391-7.196,15.425-5.536,23.075C205.015,144.606,207.907,143.804,207.498,141.918L207.498,141.918z"/>
</g>
</svg>
