<?xml version="1.0" encoding="iso-8859-1"?>
<!-- Generator: Adobe Illustrator 16.0.0, SVG Export Plug-In . SVG Version: 6.00 Build 0)  -->
<!DOCTYPE svg PUBLIC "-//W3C//DTD SVG 1.1//EN" "http://www.w3.org/Graphics/SVG/1.1/DTD/svg11.dtd">
<svg version="1.1" xmlns="http://www.w3.org/2000/svg" xmlns:xlink="http://www.w3.org/1999/xlink" x="0px" y="0px" width="361px"
	 height="361px" viewBox="0 0 361 361" style="enable-background:new 0 0 361 361;" xml:space="preserve">
<g id="scene_x5F_washing_x5F_machine">
	<g>
		<g>
			<path style="fill:#FFFFFF;" d="M257.686,115.265c-48.647,0-97.294,0-145.942,0c-2.517,0-5.034,0-7.551,0c-6.449,0-6.449,10,0,10
				c48.647,0,97.294,0,145.942,0c2.517,0,5.034,0,7.551,0C264.134,125.265,264.134,115.265,257.686,115.265L257.686,115.265z"/>
		</g>
	</g>
	<g>
		<g>
			<path style="fill:#FFFFFF;" d="M252.686,276.238c-0.532,7.91-16.387,5.186-21.503,5.186c-14.594,0-29.187,0-43.779,0
				c-24.468,0-48.936,0-73.403,0c-7.307,0-5.8-8.537-5.8-13.446c0-10.97,0-21.938,0-32.908c0-31.835,0-63.67,0-95.506
				c0-18.101,0-36.202,0-54.303c0-7.789,16.191-5.193,20.83-5.193c14.487,0,28.975,0,43.462,0c24.744,0,49.488,0,74.232,0
				c7.356,0,5.961,8.011,5.961,13.014c0,10.835,0,21.67,0,32.506c0,50.208,0,100.416,0,150.624
				C252.686,276.22,252.686,276.229,252.686,276.238c0,6.448,10,6.448,10,0c0-49.658,0-99.317,0-148.975c0-11.102,0-22.204,0-33.306
				c0-8.689,0.648-17.717-8.697-22.407c-6.351-3.187-16.718-1.483-23.49-1.483c-14.695,0-29.392,0-44.087,0
				c-24.185,0-48.369,0-72.553,0c-8.85,0-15.08,6.593-15.658,15.186c-0.091,1.352,0,2.741,0,4.095c0,9.405,0,18.81,0,28.215
				c0,52.567,0,105.133,0,157.701c0,6.304,2.96,11.797,8.697,14.676c3.232,1.622,6.694,1.483,10.172,1.483
				c11.157,0,22.313,0,33.47,0c29.31,0,58.62,0,87.93,0c2.853,0,5.705,0,8.559,0c8.85,0,15.079-6.593,15.657-15.186
				C263.119,269.798,253.116,269.84,252.686,276.238z"/>
		</g>
	</g>
	<g>
		<g>
			<path style="fill:#FFFFFF;" d="M179.634,102.167c8.715,0,17.43,0,26.146,0c9.686,0,9.771-15.003,0.107-15.003
				c-8.715,0-17.43,0-26.145,0C170.056,87.165,169.97,102.167,179.634,102.167L179.634,102.167z"/>
		</g>
	</g>
	<g>
		<g>
			<path style="fill:#FFFFFF;" d="M233.188,196.418c-0.277,22.931-15.13,43.015-37.078,49.805
				c-22.01,6.811-46.144-2.655-58.622-21.709c-12.626-19.279-10.27-45.251,4.743-62.47c15.105-17.325,40.664-22.333,61.349-12.569
				C221.692,158.024,232.947,176.572,233.188,196.418c0.078,6.444,10.078,6.451,10,0c-0.273-22.649-12.434-43.288-32.218-54.371
				c-19.889-11.141-45.075-9.664-63.99,2.723c-18.917,12.388-29.361,34.817-27.461,57.216c1.888,22.265,16.351,42.082,36.697,51.112
				c19.19,8.516,41.735,6.434,59.242-5.031c17.346-11.359,27.48-31.078,27.729-51.648
				C243.266,189.967,233.266,189.974,233.188,196.418z"/>
		</g>
	</g>
	<g>
		<g>
			<path style="fill:#FFFFFF;" d="M216.635,196.418c-0.345,19.568-15.848,35.071-35.416,35.416
				c-19.57,0.345-35.08-16.366-35.416-35.416c-0.344-19.569,16.367-35.08,35.416-35.416
				C200.788,160.658,216.3,177.369,216.635,196.418c0.079,4.509,7.079,4.517,7,0c-0.395-22.435-17.37-40.353-39.637-42.318
				c-21.876-1.93-42.145,15.286-44.809,36.812c-2.75,22.22,12.293,42.903,34.251,47.196c21.898,4.282,43.209-10.088,48.906-31.277
				c0.906-3.372,1.227-6.935,1.288-10.413C223.714,191.901,216.714,191.909,216.635,196.418z"/>
		</g>
	</g>
	<g id="buegeleisen_2_" style="display:none;">
		<g style="display:inline;">
			<g>
				<path style="fill:#FFFFFF;" d="M253.74,279.667c-0.229,2.271-14.503,0.999-16.25,0.999c-1.748,0.001-16.021,1.273-16.25-0.999
					c-0.854-8.468,0-17.463,0-25.963c0-15.986,0-31.973,0-47.959c0-6.066,0-12.134,0-18.2c0-1.625-0.883-6.16,0.293-7.585
					c0.074-0.089-1.234-0.999,0.46,0.139c-0.136-0.091,1.265,1.149,1.655,1.534c1.773,1.746,3.346,3.713,4.839,5.699
					c4.051,5.388,7.639,11.131,11.136,16.887c5.16,8.495,10.021,17.187,14.636,25.99c0.456,0.871-0.519-3.93-0.519-1.035
					c0,1.706,0,3.413,0,5.119c0,5.852,0,11.703,0,17.555C253.74,261.121,253.74,270.394,253.74,279.667c0,6.448,10,6.448,10,0
					c0-12.158,0-24.315,0-36.474c0-4.989,0-9.979,0-14.97c0-3.185-2.927-6.989-4.371-9.643c-7.63-14.024-15.564-28.286-25.678-40.7
					c-3.882-4.765-9.651-10.675-16.31-7.061c-5.069,2.752-6.142,7.44-6.142,12.654c0,27.693,0,55.387,0,83.08
					c0,8.863-2.157,24.112,11.168,24.112c6.34,0,12.68,0,19.021-0.001c5.582,0,13.565,1.337,18.202-2.488
					c2.727-2.25,3.764-5.079,4.109-8.511C264.387,273.252,254.381,273.314,253.74,279.667z"/>
			</g>
		</g>
		<g style="display:inline;">
			<g>
				<path style="fill:#FFFFFF;" d="M281.832,233.332c0,17.778,0,35.557,0,53.335c0,6.448,10,6.448,10,0c0-17.778,0-35.557,0-53.335
					C291.832,226.884,281.832,226.884,281.832,233.332L281.832,233.332z"/>
			</g>
		</g>
		<g style="display:inline;">
			<g>
				<path style="fill:#FFFFFF;" d="M221.083,291.332c21.806,0,43.611,0.001,65.417,0.001c6.448,0,6.448-10,0-10
					c-21.806,0-43.611-0.001-65.417-0.001C214.635,281.332,214.635,291.332,221.083,291.332L221.083,291.332z"/>
			</g>
		</g>
		<g style="display:inline;">
			<g>
				<path style="fill:#FFFFFF;" d="M260.166,237.104c0,6.757,0,13.513,0,20.27c0,4.514,7,4.514,7,0c0-6.757,0-13.513,0-20.27
					C267.166,232.59,260.166,232.59,260.166,237.104L260.166,237.104z"/>
			</g>
		</g>
	</g>
	<path style="fill:none;stroke:#FFFFFF;stroke-miterlimit:10;" d="M44.239,121.792"/>
	<g>
		<g>
			<path style="fill:#FFFFFF;" d="M156.192,75.067c0,15.066,0,30.131,0,45.197c0,6.449,10,6.449,10,0c0-15.066,0-30.131,0-45.197
				C166.192,68.619,156.192,68.619,156.192,75.067L156.192,75.067z"/>
		</g>
	</g>
	<g>
		<g>
			<path style="fill:#FFFFFF;" d="M238.213,97.59c1.543,0,3.086,0,4.629,0c2.726,0,5-2.274,5-5s-2.274-5-5-5
				c-1.543,0-3.086,0-4.629,0c-2.726,0-5,2.274-5,5S235.487,97.59,238.213,97.59L238.213,97.59z"/>
		</g>
	</g>
	<g>
		<g>
			<path style="fill:#FFFFFF;" d="M235.436,176.973c0,12.963,0,25.927,0,38.89c0,6.448,10,6.448,10,0c0-12.963,0-25.927,0-38.89
				C245.436,170.524,235.436,170.524,235.436,176.973L235.436,176.973z"/>
		</g>
	</g>
	<g>
		<g>
			<path style="fill:#FFFFFF;" d="M174.728,110.667c3.307,0,6.614,0,9.92,0c1.935,0,1.935-3,0-3c-3.307,0-6.614,0-9.92,0
				C172.793,107.667,172.793,110.667,174.728,110.667L174.728,110.667z"/>
		</g>
	</g>
	<g>
		<g>
			<path style="fill:#FFFFFF;" d="M190.645,110.667c3.307,0,6.613,0,9.92,0c1.935,0,1.935-3,0-3c-3.307,0-6.613,0-9.92,0
				C188.71,107.667,188.71,110.667,190.645,110.667L190.645,110.667z"/>
		</g>
	</g>
	<g>
		<g>
			<path style="fill:#FFFFFF;" d="M206.561,110.667c3.307,0,6.613,0,9.92,0c1.935,0,1.935-3,0-3c-3.307,0-6.613,0-9.92,0
				C204.626,107.667,204.626,110.667,206.561,110.667L206.561,110.667z"/>
		</g>
	</g>
	<g>
		<g>
			<path style="fill:#FFFFFF;" d="M222.477,110.667c3.307,0,6.613,0,9.92,0c1.935,0,1.935-3,0-3c-3.307,0-6.613,0-9.92,0
				C220.542,107.667,220.542,110.667,222.477,110.667L222.477,110.667z"/>
		</g>
	</g>
	<g>
		<g>
			<path style="fill:#FFFFFF;" d="M138.833,269.498c-0.642,5.573-8.165,4.169-11.5,4.169s-10.858,1.404-11.5-4.169
				c-0.585-5.081,0-10.541,0-15.662c0-5.545,8.614-4.169,11.5-4.169c3.335,0,10.858-1.404,11.5,4.169
				C139.418,258.917,138.833,264.377,138.833,269.498c0,1.935,3,1.935,3,0c0-4.405,0-8.81,0-13.215c0-4.014-0.937-8.898-5.87-9.467
				c-4.606-0.53-9.401-0.149-14.033-0.149c-4.906,0-8.491,1.91-9.097,7.169c-0.494,4.284,0,8.902,0,13.215
				c0,4.014,0.937,8.898,5.87,9.467c4.606,0.53,9.401,0.149,14.033,0.149c4.906,0,8.491-1.91,9.097-7.169
				C142.054,267.578,139.052,267.6,138.833,269.498z"/>
		</g>
	</g>
</g>
<g id="Ebene_1">
</g>
</svg>
