<?xml version="1.0" encoding="iso-8859-1"?>
<!-- Generator: Adobe Illustrator 16.0.0, SVG Export Plug-In . SVG Version: 6.00 Build 0)  -->
<!DOCTYPE svg PUBLIC "-//W3C//DTD SVG 1.1 Tiny//EN" "http://www.w3.org/Graphics/SVG/1.1/DTD/svg11-tiny.dtd">
<svg version="1.1" baseProfile="tiny" id="scene_x5F_cockle_x5F_stove"
	 xmlns="http://www.w3.org/2000/svg" xmlns:xlink="http://www.w3.org/1999/xlink" x="0px" y="0px" width="361px" height="361px"
	 viewBox="0 0 361 361" xml:space="preserve">
<g>
	<path fill="#FFFFFF" d="M165.351,266.352c-0.131,0.651-0.608,0.416-2.121,0.416c-2.473,0-4.946,0-7.419,0
		c-7.459,0-14.918,0-22.377,0c-12.547,0-25.094,0-37.641,0c-0.924,0-0.138,0.925-0.138-0.513c0-2.17,0-4.339,0-6.509
		c0-7.441,0-14.882,0-22.323c0-7.44,0-14.881,0-22.322c0-2.068,0-4.137,0-6.205c0-1.693-0.68-0.817,0.138-0.817
		c23.098,0,46.196,0,69.294,0c1.014,0,0.139-0.911,0.139,0.247c0,1.817,0,3.633,0,5.45c0,6.889,0,13.778,0,20.667
		c0,10.947,0,21.894,0,32.841c0,4.514,7,4.514,7,0c0-11.605,0-23.21,0-34.815c0-6.827,0-13.653,0-20.48
		c0-4.612-0.036-10.909-6.486-10.909c-23.316,0-46.631,0-69.947,0c-4.983,0-7.138,3.681-7.138,8.158c0,5.819,0,11.638,0,17.457
		c0,13.276,0,26.552,0,39.829c0,10.469,16.974,7.246,23.617,7.246c15.202,0,30.405,0,45.607,0c5.25,0,12.833,1.323,14.222-5.555
		C172.991,263.806,166.244,261.929,165.351,266.352z"/>
</g>
<g>
	<path fill="#FFFFFF" d="M154.509,253.115c-0.414,13.042-12.742,22.753-24.115,13.185c-5.144-4.327-6.56-12.086-3.271-17.883
		c2.445-4.309,5.423-7.54,7.113-12.313c0.699-1.975,1.279-3.993,1.912-5.99c0.321-1.016,0.661-2.019,1.121-2.982
		c-0.414,0-0.829-0.001-1.243-0.002c0.507,0.647,0.955,1.332,1.344,2.056c1.431,2.424,1.984,5.108,2.463,7.834
		c0.177,1.006,0.659,2.28,1.536,2.879c1.551,1.06,3.033,0.127,4.143-1.091c0.887-0.974,1.542-2.182,2.183-3.321
		c0.368-0.655,1.688-2.445,0.964-2.083c-0.605-0.079-1.211-0.157-1.817-0.235C152.133,238.617,154.318,245.614,154.509,253.115
		c0.049,1.931,3.049,1.936,3,0c-0.211-8.292-2.707-16.055-8.546-22.067c-0.491-0.506-1.216-0.536-1.817-0.235
		c-0.961,0.48-4.188,6.397-4.04,6.599c-0.924-1.267-0.896-4.002-1.31-5.486c-0.41-1.476-1.14-2.901-1.835-4.254
		c-0.655-1.276-1.607-2.925-3.017-3.461c-0.5-0.19-1.094,0.044-1.459,0.386c-1.763,1.646-2.265,4.819-2.945,7.003
		c-1.546,4.968-3.377,9.083-6.553,13.227c-4.901,6.395-4.947,15.577,0.534,21.758c4.675,5.273,12.604,8.66,19.486,5.668
		c7.651-3.326,11.25-11.132,11.503-19.138C157.571,251.179,154.57,251.185,154.509,253.115z"/>
</g>
<g>
	<path fill="#FFFFFF" d="M147.016,260.372c-0.253,4.564-2.501,9.129-7.599,9.545c-6.02,0.492-10.059-6.784-7.534-11.826
		c1.062-2.12,2.8-3.723,3.751-5.953c0.829-1.943,1.049-5.327,2.452-6.917c-0.606,0.078-1.212,0.156-1.817,0.235
		c2.393,1.582,0.868,8.088,4.649,7.983c2.32-0.065,2.592-3.19,3.873-4.409c-0.707,0-1.414,0-2.121,0
		C145.679,252.241,146.842,256.023,147.016,260.372c0.077,1.928,3.078,1.935,3,0c-0.206-5.14-1.67-9.671-5.226-13.461
		c-0.569-0.607-1.543-0.549-2.121,0c-0.345,0.328-0.541,0.767-0.761,1.18c-0.215,0.412-0.439,0.819-0.673,1.22
		c-0.5,0.749-0.529,0.83-0.088,0.244c-0.459-2.241-1.313-5.333-3.365-6.688c-0.533-0.352-1.393-0.247-1.817,0.235
		c-1.07,1.211-1.425,2.897-1.897,4.406c-0.97,3.105-2.175,5.509-4.126,8.092c-2.808,3.718-2.529,9.533,0.613,13.012
		c7.943,8.795,18.872,2.403,19.462-8.24C150.123,258.438,147.123,258.448,147.016,260.372z"/>
</g>
<g>
	<path fill="#FFFFFF" d="M125.814,264.756c-6.843,8.97-18.326-1.943-11.986-10.339c1.042-1.38,1.937-2.752,2.537-4.385
		c0.667-1.816,1.008-5.093,2.3-6.558c-0.606,0.078-1.212,0.156-1.818,0.235c2.77,1.829,0.969,6.836,3.938,8.576
		c1.785,1.046,2.852-0.405,4.317-0.983c1.778-0.701,1.004-3.604-0.798-2.893c-0.313,0.124-0.545,0.239-0.816,0.443
		c-1.778,1.342-1.788-1.161-2.102-2.606c-0.382-1.758-1.48-4.108-3.025-5.128c-0.534-0.352-1.393-0.247-1.818,0.235
		c-2.474,2.803-2.468,7.411-4.569,10.569c-2.715,4.082-4.275,6.98-2.586,11.981c2.972,8.802,13.991,8.953,19.016,2.367
		C129.579,264.731,126.971,263.239,125.814,264.756L125.814,264.756z"/>
</g>
<g>
	<path fill="#FFFFFF" d="M127.109,244.313c-6.288,0.384-5.163-8.392-8.313-11.581c-0.494-0.5-1.214-0.541-1.818-0.235
		c-3.02,1.534-4.005,7.133-4.523,9.978c0.041-0.224-2.149-4.118-3.06-4.739c-0.541-0.369-1.379-0.228-1.817,0.235
		c-6.249,6.592-8.708,16.75-5.553,25.372c2.977,8.136,10.751,10.935,18.371,7.774c1.76-0.73,0.989-3.634-0.798-2.893
		c-7.014,2.909-12.547,0.151-15.144-6.946c-2.571-7.027,0.304-15.972,5.246-21.186c-0.606,0.078-1.212,0.156-1.817,0.235
		c-0.535-0.365,1.105,2.374,1.499,3.021c0.708,1.164,1.57,2.188,2.878,2.639c4.095,1.412,3.803-9.664,6.234-10.898
		c-0.606-0.079-1.212-0.157-1.818-0.235c1.734,1.756,2.229,6.18,3.539,8.437c1.491,2.57,3.895,4.207,6.896,4.023
		C129.031,247.195,129.042,244.194,127.109,244.313L127.109,244.313z"/>
</g>
<g>
	<path fill="#FFFFFF" d="M134.537,233.665c-2.452-3.632-3.668-7.772-4.943-11.925c-0.666-2.167-1.18-5.298-2.935-6.922
		c-0.38-0.352-0.944-0.558-1.459-0.386c-4.057,1.356-5.515,9.489-6.096,12.872c-0.481,2.803-2.224-1.42-2.85-2.564
		c-0.488-0.89-1.016-2.696-2.032-3.171c-0.608-0.284-1.321-0.283-1.817,0.235c-5.974,6.236-8.963,14.08-9.171,22.677
		c-0.047,1.936,2.953,1.931,3,0c0.188-7.809,2.864-14.89,8.292-20.556c-0.606,0.078-1.212,0.156-1.817,0.235
		c-0.645-0.302,0.886,1.968,1.313,2.747c0.746,1.361,1.596,2.668,2.683,3.78c1.587,1.624,3.913,1.138,4.758-0.939
		c1.27-3.121,1.389-6.439,2.876-9.562c0.483-1.014,1.107-2.017,1.819-2.887c-1.403-0.346-1.677,0.011-0.821,1.07
		c0.234,0.628,0.453,1.262,0.656,1.901c1.698,5.113,2.901,10.386,5.953,14.908C133.022,236.773,135.623,235.273,134.537,233.665
		L134.537,233.665z"/>
</g>
<g>
	<path fill="#FFFFFF" d="M161.16,235.424c0,4.438,0,8.875,0,13.313c0,1.935,3,1.935,3,0c0-4.438,0-8.875,0-13.313
		C164.16,233.49,161.16,233.49,161.16,235.424L161.16,235.424z"/>
</g>
<g>
	<path fill="#FFFFFF" d="M163.359,236.924c0.817,0,1.633,0,2.45,0c1.935,0,1.935-3,0-3c-0.817,0-1.633,0-2.45,0
		C161.425,233.924,161.425,236.924,163.359,236.924L163.359,236.924z"/>
</g>
<g>
	<path fill="#FFFFFF" d="M275.494,285.881c0.202-1,3.174-0.836,1.062-0.836c-0.99,0-1.98,0-2.97,0c-3.593,0-7.186,0-10.779,0
		c-12.256,0-24.511,0-36.767,0c-32.093,0-64.186,0-96.279,0c-18.017,0-36.035,0-54.052,0c1.833,0,2.106,3.477,2.106,1.538
		c0-0.866,0-1.732,0-2.599c0-3.344,0-6.689,0-10.033c0-11.803,0-23.606,0-35.41c0-52.369,0-104.738,0-157.107
		c0-0.35,0-0.699,0-1.048c0,2.496-3.729,2.159-0.465,2.159c1.426,0,2.851,0,4.276,0c6.063,0,12.125,0,18.188,0
		c-1.439-0.826-2.878-1.651-4.317-2.477c3.153,4.204,6.306,8.408,9.458,12.611c1.792,2.39,3.585,4.78,5.377,7.17
		c2.436,3.249,5.652,2.695,9.287,2.695c5.823,0,11.646,0,17.468,0c1.285,0,2.57,0,3.855,0c1.912,0-1.551-0.576,0.968,0.34
		c0.883,0.321,1.766,0.642,2.648,0.963c0.903,0.329,1.738,1.154,0.254,0.032c0.439,0.332,0.878,0.664,1.317,0.997
		c10.924,8.267,21.848,16.533,32.771,24.8c0.707,0.535,1.413,1.07,2.12,1.604c1.542,1.167-0.308,0.383-0.98-1.112
		c1.361,3.025,2.723,6.05,4.084,9.076c0.739,1.641-0.324-3.695-0.302-0.119c0.013,2.044,0.026,4.088,0.039,6.132
		c0.095,15,0.19,30,0.285,45c0.042,6.592,0.083,13.184,0.125,19.775c0.02,3.09-0.75,7.792,1.643,10.185
		c1.995,1.995,4.303,5.327,7.414,5.327c0.942,0,1.885,0,2.827,0c5.365,0,10.729,0,16.094,0c15.711,0,31.422,0,47.133,0
		c5.905,0,11.81,0,17.715,0c1.628,0-1.784-3.362-1.784-1.842c0,0.807,0,1.613,0,2.419c0,3.738,0,7.475,0,11.213
		c0,16.625,0,33.25,0,49.875c0,6.449,10,6.449,10,0c0-11.303,0-22.606,0-33.909c0-7.365,0-14.73,0-22.095
		c0-3.912,0.783-8.95-1.513-12.355c-2.63-3.901-7.354-3.307-11.41-3.307c-6.073,0-12.146,0-18.22,0c-15.587,0-31.175,0-46.763,0
		c-4.698,0-9.396,0-14.095,0c1.179,0.488,2.357,0.977,3.536,1.464c-1.333-1.333-2.667-2.667-4-4
		c0.488,1.179,0.976,2.357,1.464,3.536c-0.155-24.534-0.311-49.067-0.466-73.602c-0.05-7.924-2.526-16.322-9.06-21.267
		c-10.967-8.299-21.934-16.599-32.901-24.898c-4.44-3.361-9.362-4.234-14.8-4.234c-7.424,0-14.849,0-22.274,0
		c1.439,0.826,2.878,1.651,4.317,2.477c-3.445-4.594-6.891-9.188-10.336-13.781c-1.443-1.925-2.887-3.85-4.331-5.774
		c-1.961-2.615-3.951-2.921-6.918-2.921c-6.897,0-13.795,0-20.693,0c-5.108,0-9.039,3.118-9.039,8.462c0,19.564,0,39.129,0,58.693
		c0,49.167,0,98.335,0,147.503c0,9.361,10.83,7.841,17.005,7.841c10.947,0,21.894,0,32.84,0c31.87,0,63.739,0,95.609,0
		c15.949,0,31.897,0,47.847,0c6.838,0,22.145,2.788,24.021-6.505C286.407,282.244,276.769,279.563,275.494,285.881z"/>
</g>
<g>
	<path fill="#FFFFFF" d="M192.315,219.578c30.667,0,61.333,0,92,0c6.449,0,6.449-10,0-10c-30.667,0-61.333,0-92,0
		C185.866,209.578,185.866,219.578,192.315,219.578L192.315,219.578z"/>
</g>
<g>
	<path fill="#FFFFFF" d="M136.143,134.745c-0.508,3.945-6.193,2.634-8.775,2.634c-2.908,0-5.816,0-8.724,0
		c-3.343,0-1.867-15.692-1.867-17.7c0-4.652,14.515-2.634,17.499-2.634C137.619,117.045,136.143,132.737,136.143,134.745
		c0,1.935,3,1.935,3,0c0-4.062,0-8.123,0-12.184c0-3.34-0.16-8.516-4.798-8.516c-4.069,0-8.139,0-12.208,0
		c-4.429,0-7.688,0.424-8.359,5.634c-0.505,3.923,0,8.229,0,12.184c0,3.34,0.161,8.516,4.799,8.516c4.069,0,8.139,0,12.208,0
		c4.429,0,7.688-0.424,8.358-5.634C139.39,132.83,136.386,132.854,136.143,134.745z"/>
</g>
<g>
	<path fill="#FFFFFF" d="M162.767,150.078c-0.508,3.945-6.193,2.634-8.775,2.634c-2.908,0-5.816,0-8.724,0
		c-3.343,0-1.867-15.692-1.867-17.7c0-4.652,14.515-2.634,17.499-2.634C164.243,132.378,162.767,148.07,162.767,150.078
		c0,1.935,3,1.935,3,0c0-4.062,0-8.123,0-12.184c0-3.34-0.16-8.516-4.798-8.516c-4.069,0-8.139,0-12.208,0
		c-4.429,0-7.688,0.424-8.359,5.634c-0.505,3.923,0,8.229,0,12.184c0,3.34,0.161,8.516,4.799,8.516c4.069,0,8.139,0,12.208,0
		c4.429,0,7.688-0.424,8.358-5.634C166.014,148.163,163.01,148.187,162.767,150.078z"/>
</g>
<g>
	<path fill="#FFFFFF" d="M132.943,173.412c-0.508,3.945-6.193,2.634-8.775,2.634c-2.908,0-5.816,0-8.724,0
		c-3.343,0-1.867-15.692-1.867-17.7c0-4.652,14.515-2.634,17.499-2.634C134.418,155.712,132.943,171.404,132.943,173.412
		c0,1.935,3,1.935,3,0c0-4.062,0-8.123,0-12.184c0-3.34-0.16-8.516-4.798-8.516c-4.069,0-8.139,0-12.208,0
		c-4.429,0-7.688,0.424-8.359,5.634c-0.505,3.923,0,8.229,0,12.184c0,3.34,0.161,8.516,4.799,8.516c4.069,0,8.139,0,12.208,0
		c4.429,0,7.688-0.424,8.358-5.634C136.189,171.497,133.186,171.521,132.943,173.412z"/>
</g>
</svg>
