<?xml version="1.0" encoding="iso-8859-1"?>
<!-- Generator: Adobe Illustrator 16.0.0, SVG Export Plug-In . SVG Version: 6.00 Build 0)  -->
<!DOCTYPE svg PUBLIC "-//W3C//DTD SVG 1.1 Tiny//EN" "http://www.w3.org/Graphics/SVG/1.1/DTD/svg11-tiny.dtd">
<svg version="1.1" baseProfile="tiny" id="scene_x5F_dishwasher"
	 xmlns="http://www.w3.org/2000/svg" xmlns:xlink="http://www.w3.org/1999/xlink" x="0px" y="0px" width="361px" height="361px"
	 viewBox="0 0 361 361" xml:space="preserve">
<g>
	<path fill="#FFFFFF" d="M255.167,118.143c-48.647,0-97.294,0-145.942,0c-2.517,0-5.034,0-7.551,0c-6.449,0-6.449,10,0,10
		c48.647,0,97.294,0,145.942,0c2.517,0,5.034,0,7.551,0C261.616,128.143,261.616,118.143,255.167,118.143L255.167,118.143z"/>
</g>
<g>
	<path fill="#FFFFFF" d="M250.167,279.116c-0.532,7.91-16.387,5.186-21.503,5.186c-14.593,0-29.187,0-43.779,0
		c-24.468,0-48.935,0-73.403,0c-7.307,0-5.8-8.537-5.8-13.447c0-10.969,0-21.938,0-32.908c0-31.835,0-63.67,0-95.506
		c0-18.101,0-36.202,0-54.303c0-7.789,16.191-5.193,20.83-5.193c14.487,0,28.975,0,43.462,0c24.744,0,49.488,0,74.232,0
		c7.356,0,5.961,8.011,5.961,13.014c0,10.835,0,21.67,0,32.506c0,50.208,0,100.416,0,150.623
		C250.167,279.098,250.167,279.107,250.167,279.116c0,6.449,10,6.449,10,0c0-49.658,0-99.317,0-148.975c0-11.102,0-22.204,0-33.306
		c0-8.689,0.648-17.717-8.698-22.407c-6.351-3.187-16.717-1.483-23.49-1.483c-14.695,0-29.391,0-44.086,0
		c-24.185,0-48.369,0-72.553,0c-8.85,0-15.08,6.593-15.658,15.186c-0.091,1.352,0,2.741,0,4.095c0,9.405,0,18.81,0,28.215
		c0,52.567,0,105.134,0,157.701c0,6.304,2.96,11.797,8.697,14.676c3.232,1.622,6.694,1.483,10.172,1.483c11.157,0,22.313,0,33.47,0
		c29.31,0,58.62,0,87.929,0c2.853,0,5.706,0,8.559,0c8.85,0,15.08-6.592,15.658-15.186
		C260.601,272.676,250.598,272.718,250.167,279.116z"/>
</g>
<g>
	<path fill="#FFFFFF" d="M165.116,90.045c8.715,0,17.43,0,26.145,0c9.687,0,9.772-15.003,0.108-15.003c-8.715,0-17.43,0-26.145,0
		C155.538,75.042,155.452,90.045,165.116,90.045L165.116,90.045z"/>
</g>
<g id="buegeleisen_4_" display="none">
	<g display="inline">
		<path fill="#FFFFFF" d="M251.222,282.545c-0.229,2.271-14.502,1-16.25,1c-1.748,0-16.021,1.272-16.25-1
			c-0.854-8.468,0-17.463,0-25.962c0-15.986,0-31.973,0-47.959c0-6.067,0-12.133,0-18.2c0-1.625-0.882-6.161,0.293-7.585
			c0.074-0.09-1.234-0.999,0.46,0.139c-0.136-0.091,1.264,1.149,1.655,1.534c1.772,1.746,3.345,3.713,4.838,5.699
			c4.051,5.388,7.639,11.13,11.136,16.887c5.16,8.495,10.022,17.187,14.636,25.99c0.456,0.871-0.519-3.93-0.519-1.035
			c0,1.707,0,3.413,0,5.119c0,5.852,0,11.704,0,17.555C251.222,263.999,251.222,273.272,251.222,282.545c0,6.449,10,6.449,10,0
			c0-12.158,0-24.316,0-36.474c0-4.99,0-9.98,0-14.97c0-3.185-2.927-6.989-4.371-9.642c-7.63-14.025-15.565-28.286-25.677-40.7
			c-3.882-4.765-9.652-10.675-16.311-7.061c-5.069,2.752-6.141,7.44-6.141,12.654c0,27.693,0,55.386,0,83.08
			c0,8.863-2.157,24.112,11.168,24.112c6.34,0,12.68,0,19.02,0c5.583,0,13.565,1.337,18.202-2.489
			c2.727-2.25,3.764-5.079,4.109-8.511C261.868,276.13,251.862,276.192,251.222,282.545z"/>
	</g>
	<g display="inline">
		<path fill="#FFFFFF" d="M279.314,236.21c0,17.778,0,35.556,0,53.334c0,6.449,10,6.449,10,0c0-17.778,0-35.556,0-53.334
			C289.314,229.762,279.314,229.762,279.314,236.21L279.314,236.21z"/>
	</g>
	<g display="inline">
		<path fill="#FFFFFF" d="M218.565,294.21c21.806,0,43.611,0,65.417,0c6.449,0,6.449-10,0-10c-21.806,0-43.611,0-65.417,0
			C212.116,284.21,212.116,294.21,218.565,294.21L218.565,294.21z"/>
	</g>
	<g display="inline">
		<path fill="#FFFFFF" d="M257.648,239.981c0,6.756,0,13.513,0,20.269c0,4.514,7,4.514,7,0c0-6.756,0-13.513,0-20.269
			C264.648,235.467,257.648,235.467,257.648,239.981L257.648,239.981z"/>
	</g>
</g>
<path fill="none" stroke="#FFFFFF" stroke-miterlimit="10" d="M41.721,124.67"/>
<g>
	<path fill="#FFFFFF" d="M120.21,113.545c3.307,0,6.613,0,9.92,0c1.935,0,1.935-3,0-3c-3.307,0-6.613,0-9.92,0
		C118.275,110.545,118.275,113.545,120.21,113.545L120.21,113.545z"/>
</g>
<g>
	<path fill="#FFFFFF" d="M120.21,93.711c3.307,0,6.613,0,9.92,0c1.935,0,1.935-3,0-3c-3.307,0-6.613,0-9.92,0
		C118.275,90.711,118.275,93.711,120.21,93.711L120.21,93.711z"/>
</g>
<g>
	<path fill="#FFFFFF" d="M224.918,113.545c3.307,0,6.613,0,9.92,0c1.935,0,1.935-3,0-3c-3.307,0-6.613,0-9.92,0
		C222.983,110.545,222.983,113.545,224.918,113.545L224.918,113.545z"/>
</g>
<g>
	<path fill="#FFFFFF" d="M120.21,106.934c3.307,0,6.613,0,9.92,0c1.935,0,1.935-3,0-3c-3.307,0-6.613,0-9.92,0
		C118.275,103.934,118.275,106.934,120.21,106.934L120.21,106.934z"/>
</g>
<g>
	<path fill="#FFFFFF" d="M120.21,100.323c3.307,0,6.613,0,9.92,0c1.935,0,1.935-3,0-3c-3.307,0-6.613,0-9.92,0
		C118.275,97.323,118.275,100.323,120.21,100.323L120.21,100.323z"/>
</g>
<g>
	<path fill="#FFFFFF" d="M198.202,102.33c-0.543,2.007-5.591,1.049-7.082,1.049c-4.937,0-9.873,0-14.81,0c-4.534,0-9.067,0-13.601,0
		c-1.107,0-2.215,0-3.323,0c-1.547,0-0.948-4.021-0.948-4.982c0-1.879,20.847-0.904,22.824-0.904c4.401,0,8.802,0,13.204,0
		c0.966,0,1.932,0,2.898,0c1.317,0,0.784,4.425,0.784,5.236c0,1.935,3,1.935,3,0c0-3.438,0.64-8.236-4.173-8.236
		c-4.911,0-9.822,0-14.734,0c-6.076,0-12.152,0-18.229,0c-3.351,0-7.417-0.831-8.52,3.251c-0.859,3.175-0.323,8.635,3.894,8.635
		c4.663,0,9.326,0,13.989,0c6.4,0,12.799,0,19.199,0c3.351,0,7.416,0.831,8.52-3.251
		C201.601,101.257,198.707,100.464,198.202,102.33z"/>
</g>
<g>
	<path fill="#FFFFFF" d="M115.982,276.045c41.444,0,82.889,0,124.333,0c4.514,0,4.514-7,0-7c-41.444,0-82.889,0-124.333,0
		C111.468,269.045,111.468,276.045,115.982,276.045L115.982,276.045z"/>
</g>
<g>
	<g>
		<path fill="#FFFFFF" d="M112.482,240.545c0,10.667,0,21.333,0,32c0,4.514,7,4.514,7,0c0-10.667,0-21.333,0-32
			C119.482,236.031,112.482,236.031,112.482,240.545L112.482,240.545z"/>
	</g>
	<g>
		<path fill="#FFFFFF" d="M243.815,272.545c0-10.667,0-21.333,0-32c0-4.514-7-4.514-7,0c0,10.667,0,21.333,0,32
			C236.815,277.059,243.815,277.059,243.815,272.545L243.815,272.545z"/>
	</g>
	<g>
		<g>
			<path fill="#FFFFFF" d="M233.401,240.803c-0.323,11.585-9.41,20.956-21.161,20.956c-6.571,0-13.143,0-19.714,0
				c-9.021,0-16.967-1.866-22.234-10.006c-4.089-6.321-3.084-14.447-3.084-21.617c0-6.726-0.837-14.17,1.207-20.665
				c3.056-9.707,12.632-13.905,22.027-13.905c6.931,0,13.862,0,20.793,0c10.488,0,19.058,6.168,21.688,16.465
				c1.198,4.689,0.478,10.381,0.478,15.158C233.401,231.727,233.401,236.265,233.401,240.803c0,4.514,7,4.514,7,0
				c0-12.799,2.542-28.591-4.746-39.856c-9.775-15.11-28.434-12.381-43.88-12.381c-8.254,0-15.362,1.54-21.952,6.87
				c-6.864,5.551-9.615,14.271-9.615,22.794c0,15.086-2.839,32.452,9.615,43.659c10.391,9.351,26.148,6.87,39.011,6.87
				c6.911,0,13.227-0.891,19.186-4.746c7.864-5.087,12.125-14.027,12.381-23.209C240.527,236.287,233.527,236.299,233.401,240.803z"
				/>
		</g>
		<g>
			<path fill="#FFFFFF" d="M220.486,236.356c-0.72,15.157-16.703,12.988-27.374,12.988c-15.165,0-12.989-17.151-12.989-27.374
				c0-15.165,17.151-12.989,27.374-12.989C222.663,208.982,220.486,226.134,220.486,236.356c0,1.935,3,1.935,3,0
				c0-4.795,0-9.59,0-14.386c0-9.014-7.298-15.576-15.989-15.989c-4.773-0.227-9.606,0-14.385,0
				c-9.014,0-15.576,7.298-15.989,15.989c-0.227,4.773,0,9.606,0,14.386c0,9.014,7.298,15.575,15.989,15.988
				c4.773,0.227,9.606,0,14.385,0c9.014,0,15.576-7.298,15.989-15.988C223.578,234.422,220.578,234.431,220.486,236.356z"/>
		</g>
	</g>
	<g>
		<path fill="#FFFFFF" d="M164.608,262.99c-5.398-4.829-11.758-9.037-13.396-16.403c-1.106-4.977-2.087-9.985-3.128-14.976
			c-1.053-5.048-2.109-10.095-3.159-15.143c-1.549-7.446,2.361-13.606,5.413-20.266c1.866-4.073-4.166-7.633-6.044-3.533
			c-3.238,7.066-7.947,14.677-6.66,22.747c0.914,5.731,2.314,11.415,3.499,17.093c1.16,5.561,2.262,11.137,3.495,16.682
			c1.84,8.28,9.025,13.376,15.03,18.75C163.011,270.939,167.979,266.006,164.608,262.99L164.608,262.99z"/>
	</g>
	<g>
		<path fill="#FFFFFF" d="M150.955,262.99c-5.398-4.829-11.758-9.037-13.396-16.403c-1.106-4.977-2.087-9.985-3.128-14.976
			c-1.053-5.048-2.109-10.095-3.159-15.143c-1.549-7.446,2.361-13.606,5.413-20.266c1.866-4.073-4.166-7.633-6.044-3.533
			c-3.238,7.066-7.947,14.677-6.66,22.747c0.914,5.731,2.314,11.415,3.499,17.093c1.16,5.561,2.262,11.137,3.495,16.682
			c1.84,8.28,9.025,13.376,15.03,18.75C149.358,270.939,154.326,266.006,150.955,262.99L150.955,262.99z"/>
	</g>
	<g>
		<path fill="#FFFFFF" d="M138.3,262.99c-5.398-4.829-11.758-9.037-13.396-16.403c-1.106-4.977-2.087-9.985-3.128-14.976
			c-1.053-5.048-2.109-10.095-3.159-15.143c-1.549-7.446,2.361-13.606,5.413-20.266c1.866-4.073-4.166-7.633-6.044-3.533
			c-3.238,7.066-7.947,14.677-6.66,22.747c0.914,5.731,2.314,11.415,3.499,17.093c1.16,5.561,2.262,11.137,3.495,16.682
			c1.84,8.28,9.025,13.376,15.03,18.75C136.703,270.939,141.671,266.006,138.3,262.99L138.3,262.99z"/>
	</g>
</g>
<g>
	<path fill="#FFFFFF" d="M122.038,153.045c36.78,0,73.56,0,110.34,0c1.935,0,1.935-3,0-3c-36.78,0-73.56,0-110.34,0
		C120.104,150.045,120.104,153.045,122.038,153.045L122.038,153.045z"/>
</g>
<g>
	<path fill="#FFFFFF" d="M183.815,151.545c-0.297,2.95-3.678,2.333-5.711,2.333c-2.102,0-5.98,0.73-6.289-2.333
		c-0.296-2.935,4.056-2.333,5.711-2.333C179.628,149.212,183.506,148.482,183.815,151.545c0.192,1.906,3.194,1.924,3,0
		c-0.513-5.083-4.606-5.333-8.711-5.333c-4.235,0-8.747-0.041-9.289,5.333c-0.513,5.091,5.277,5.333,8.711,5.333
		c4.235,0,8.747,0.041,9.289-5.333C187.009,149.621,184.007,149.64,183.815,151.545z"/>
</g>
<g>
	<g>
		<g>
			<path fill="#FFFFFF" d="M137.232,156.923c0.416,2.384,0.832,4.768,1.249,7.152c0.332,1.903,3.223,1.094,2.893-0.798
				c-0.416-2.384-0.832-4.768-1.249-7.152C139.793,154.222,136.902,155.031,137.232,156.923L137.232,156.923z"/>
		</g>
		<g>
			<path fill="#FFFFFF" d="M126.487,167.822c-0.425,1.892-0.851,3.783-1.276,5.674c-0.424,1.884,2.468,2.685,2.893,0.798
				c0.425-1.892,0.851-3.783,1.276-5.674C129.804,166.736,126.912,165.935,126.487,167.822L126.487,167.822z"/>
		</g>
		<g>
			<path fill="#FFFFFF" d="M139.518,168.755c0.41,2.35,0.82,4.699,1.231,7.049c0.332,1.903,3.223,1.094,2.893-0.798
				c-0.41-2.35-0.82-4.699-1.231-7.049C142.078,166.054,139.187,166.864,139.518,168.755L139.518,168.755z"/>
		</g>
		<g>
			<path fill="#FFFFFF" d="M129.581,156.047c-0.582,2.584-1.163,5.168-1.745,7.751c-0.424,1.884,2.468,2.685,2.893,0.798
				c0.582-2.584,1.163-5.168,1.745-7.751C132.897,154.961,130.005,154.161,129.581,156.047L129.581,156.047z"/>
		</g>
		<g>
			<path fill="#FFFFFF" d="M124.065,178.892c-0.575,2.556-1.15,5.111-1.726,7.667c-0.424,1.884,2.468,2.685,2.893,0.798
				c0.575-2.556,1.15-5.111,1.726-7.667C127.382,177.805,124.49,177.005,124.065,178.892L124.065,178.892z"/>
		</g>
		<g>
			<path fill="#FFFFFF" d="M141.562,180.502c0.246,1.406,0.491,2.813,0.737,4.22c0.141,0.806,1.115,1.249,1.845,1.047
				c0.844-0.232,1.188-1.041,1.047-1.845c-0.246-1.406-0.491-2.813-0.737-4.22c-0.141-0.806-1.115-1.249-1.845-1.047
				C141.766,178.889,141.421,179.697,141.562,180.502L141.562,180.502z"/>
		</g>
		<g>
			<path fill="#FFFFFF" d="M136.815,182.465c-0.011-1.865-0.023-3.729-0.034-5.594c-0.012-1.934-3.012-1.935-3,0
				c0.011,1.865,0.023,3.729,0.034,5.594C133.827,184.399,136.827,184.4,136.815,182.465L136.815,182.465z"/>
		</g>
		<g>
			<path fill="#FFFFFF" d="M136.531,172.083c-0.015-2.385-0.029-4.77-0.043-7.155c-0.012-1.934-3.012-1.935-3,0
				c0.015,2.385,0.029,4.77,0.043,7.155C133.542,174.018,136.542,174.019,136.531,172.083L136.531,172.083z"/>
		</g>
		<g>
			<path fill="#FFFFFF" d="M136.465,160.161c-0.009-1.428-0.017-2.856-0.026-4.284c-0.012-1.934-3.012-1.935-3,0
				c0.009,1.428,0.017,2.856,0.026,4.284C133.477,162.095,136.477,162.096,136.465,160.161L136.465,160.161z"/>
		</g>
		<g>
			<path fill="#FFFFFF" d="M136.853,205.919c-0.017-2.819-0.035-5.637-0.052-8.456c-0.012-1.934-3.012-1.935-3,0
				c0.017,2.819,0.035,5.637,0.052,8.456C133.864,207.854,136.864,207.854,136.853,205.919L136.853,205.919z"/>
		</g>
		<g>
			<path fill="#FFFFFF" d="M136.818,192.81c-0.008-1.357-0.016-2.715-0.024-4.072c-0.012-1.934-3.012-1.935-3,0
				c0.008,1.357,0.016,2.715,0.024,4.072C133.83,194.744,136.83,194.745,136.818,192.81L136.818,192.81z"/>
		</g>
		<g>
			<path fill="#FFFFFF" d="M143.473,189.303c0.246,1.406,0.491,2.813,0.737,4.22c0.141,0.806,1.115,1.249,1.845,1.047
				c0.844-0.232,1.188-1.041,1.047-1.845c-0.246-1.406-0.491-2.813-0.737-4.22c-0.141-0.806-1.115-1.249-1.845-1.047
				C143.677,187.689,143.333,188.498,143.473,189.303L143.473,189.303z"/>
		</g>
		<g>
			<path fill="#FFFFFF" d="M144.965,198.135c0.41,2.35,0.82,4.699,1.231,7.049c0.332,1.903,3.223,1.094,2.893-0.798
				c-0.41-2.35-0.82-4.699-1.231-7.049C147.526,195.434,144.635,196.243,144.965,198.135L144.965,198.135z"/>
		</g>
		<g>
			<path fill="#FFFFFF" d="M120.828,191.574c-0.425,1.892-0.851,3.783-1.276,5.674c-0.424,1.884,2.468,2.685,2.893,0.798
				c0.425-1.892,0.851-3.783,1.276-5.674C124.145,190.488,121.252,189.687,120.828,191.574L120.828,191.574z"/>
		</g>
		<g>
			<path fill="#FFFFFF" d="M118.069,202.549c-0.223,0.991-0.446,1.982-0.668,2.974c-0.179,0.797,0.232,1.621,1.047,1.845
				c0.76,0.209,1.666-0.25,1.845-1.047c0.223-0.991,0.446-1.982,0.668-2.974c0.179-0.797-0.232-1.621-1.047-1.845
				C119.154,201.292,118.248,201.751,118.069,202.549L118.069,202.549z"/>
		</g>
	</g>
	<g>
		<path fill="#FFFFFF" d="M132.027,154.045c1.851,0,3.703,0,5.554,0c1.908,0,3.5-1.592,3.5-3.5s-1.592-3.5-3.5-3.5
			c-1.851,0-3.703,0-5.554,0c-1.908,0-3.5,1.592-3.5,3.5S130.119,154.045,132.027,154.045L132.027,154.045z"/>
	</g>
</g>
<g>
	<g>
		<g>
			<path fill="#FFFFFF" d="M214.618,156.125c-0.417,2.384-0.833,4.769-1.249,7.152c-0.33,1.892,2.561,2.701,2.893,0.798
				c0.417-2.384,0.833-4.769,1.249-7.152C217.841,155.031,214.95,154.222,214.618,156.125L214.618,156.125z"/>
		</g>
		<g>
			<path fill="#FFFFFF" d="M225.363,168.62c0.425,1.891,0.851,3.782,1.276,5.674c0.424,1.887,3.316,1.086,2.893-0.798
				c-0.425-1.891-0.851-3.782-1.276-5.674C227.832,165.935,224.939,166.736,225.363,168.62L225.363,168.62z"/>
		</g>
		<g>
			<path fill="#FFFFFF" d="M212.333,167.958c-0.411,2.35-0.821,4.699-1.231,7.049c-0.331,1.892,2.561,2.701,2.893,0.798
				c0.411-2.35,0.821-4.699,1.231-7.049C215.556,166.864,212.665,166.054,212.333,167.958L212.333,167.958z"/>
		</g>
		<g>
			<path fill="#FFFFFF" d="M222.27,156.845c0.582,2.583,1.163,5.167,1.745,7.751c0.425,1.887,3.317,1.086,2.893-0.798
				c-0.582-2.583-1.163-5.167-1.745-7.751C224.738,154.161,221.846,154.961,222.27,156.845L222.27,156.845z"/>
		</g>
		<g>
			<path fill="#FFFFFF" d="M227.786,179.689c0.575,2.556,1.15,5.111,1.726,7.667c0.425,1.887,3.317,1.086,2.893-0.798
				c-0.575-2.556-1.15-5.111-1.726-7.667C230.253,177.005,227.361,177.805,227.786,179.689L227.786,179.689z"/>
		</g>
		<g>
			<path fill="#FFFFFF" d="M210.289,179.704c-0.246,1.407-0.491,2.813-0.737,4.22c-0.141,0.805,0.204,1.613,1.047,1.845
				c0.73,0.201,1.705-0.241,1.845-1.047c0.246-1.407,0.491-2.813,0.737-4.22c0.141-0.805-0.204-1.613-1.047-1.845
				C211.403,178.456,210.429,178.898,210.289,179.704L210.289,179.704z"/>
		</g>
		<g>
			<path fill="#FFFFFF" d="M220.928,182.465c0.011-1.865,0.023-3.729,0.034-5.594c0.012-1.935-2.988-1.934-3,0
				c-0.011,1.865-0.023,3.729-0.034,5.594C217.917,184.4,220.917,184.399,220.928,182.465L220.928,182.465z"/>
		</g>
		<g>
			<path fill="#FFFFFF" d="M221.212,172.083c0.015-2.385,0.029-4.77,0.043-7.155c0.012-1.935-2.988-1.934-3,0
				c-0.015,2.385-0.029,4.77-0.043,7.155C218.201,174.019,221.201,174.018,221.212,172.083L221.212,172.083z"/>
		</g>
		<g>
			<path fill="#FFFFFF" d="M221.278,160.161c0.009-1.428,0.017-2.856,0.026-4.284c0.012-1.935-2.988-1.934-3,0
				c-0.009,1.428-0.017,2.856-0.026,4.284C218.266,162.096,221.266,162.095,221.278,160.161L221.278,160.161z"/>
		</g>
		<g>
			<path fill="#FFFFFF" d="M220.891,205.919c0.017-2.819,0.035-5.637,0.052-8.456c0.012-1.935-2.988-1.934-3,0
				c-0.017,2.819-0.035,5.637-0.052,8.456C217.879,207.854,220.879,207.854,220.891,205.919L220.891,205.919z"/>
		</g>
		<g>
			<path fill="#FFFFFF" d="M220.925,192.81c0.008-1.357,0.016-2.715,0.024-4.072c0.012-1.935-2.988-1.934-3,0
				c-0.008,1.357-0.016,2.715-0.024,4.072C217.914,194.745,220.914,194.744,220.925,192.81L220.925,192.81z"/>
		</g>
		<g>
			<path fill="#FFFFFF" d="M208.377,188.505c-0.246,1.407-0.491,2.813-0.737,4.22c-0.141,0.805,0.204,1.613,1.047,1.845
				c0.73,0.201,1.705-0.241,1.845-1.047c0.246-1.407,0.491-2.813,0.737-4.22c0.141-0.805-0.204-1.613-1.047-1.845
				C209.492,187.256,208.518,187.699,208.377,188.505L208.377,188.505z"/>
		</g>
		<g>
			<path fill="#FFFFFF" d="M206.885,197.337c-0.411,2.35-0.821,4.699-1.231,7.049c-0.331,1.892,2.561,2.701,2.893,0.798
				c0.411-2.35,0.821-4.699,1.231-7.049C210.108,196.243,207.217,195.434,206.885,197.337L206.885,197.337z"/>
		</g>
		<g>
			<path fill="#FFFFFF" d="M231.022,192.372c0.425,1.891,0.851,3.782,1.276,5.674c0.424,1.887,3.316,1.086,2.893-0.798
				c-0.425-1.891-0.851-3.782-1.276-5.674C233.491,189.687,230.599,190.488,231.022,192.372L231.022,192.372z"/>
		</g>
		<g>
			<path fill="#FFFFFF" d="M233.782,203.347c0.223,0.991,0.445,1.982,0.668,2.974c0.179,0.798,1.085,1.256,1.845,1.047
				c0.815-0.224,1.227-1.048,1.047-1.845c-0.223-0.991-0.445-1.982-0.668-2.974c-0.179-0.798-1.085-1.256-1.845-1.047
				C234.014,201.726,233.603,202.549,233.782,203.347L233.782,203.347z"/>
		</g>
	</g>
	<g>
		<path fill="#FFFFFF" d="M217.462,154.045c1.851,0,3.703,0,5.554,0c1.908,0,3.5-1.592,3.5-3.5s-1.592-3.5-3.5-3.5
			c-1.851,0-3.703,0-5.554,0c-1.908,0-3.5,1.592-3.5,3.5S215.555,154.045,217.462,154.045L217.462,154.045z"/>
	</g>
</g>
<g>
	<path fill="#FFFFFF" d="M189.412,113.545c3.307,0,6.613,0,9.92,0c1.935,0,1.935-3,0-3c-3.307,0-6.613,0-9.92,0
		C187.477,110.545,187.477,113.545,189.412,113.545L189.412,113.545z"/>
</g>
<g>
	<path fill="#FFFFFF" d="M166.166,113.545c3.307,0,6.613,0,9.92,0c1.935,0,1.935-3,0-3c-3.307,0-6.613,0-9.92,0
		C164.231,110.545,164.231,113.545,166.166,113.545L166.166,113.545z"/>
</g>
<g>
	<path fill="#FFFFFF" d="M142.919,113.545c3.307,0,6.613,0,9.92,0c1.935,0,1.935-3,0-3c-3.307,0-6.613,0-9.92,0
		C140.985,110.545,140.985,113.545,142.919,113.545L142.919,113.545z"/>
</g>
</svg>
