<?xml version="1.0" encoding="iso-8859-1"?>
<!-- Generator: Adobe Illustrator 16.0.0, SVG Export Plug-In . SVG Version: 6.00 Build 0)  -->
<!DOCTYPE svg PUBLIC "-//W3C//DTD SVG 1.1 Tiny//EN" "http://www.w3.org/Graphics/SVG/1.1/DTD/svg11-tiny.dtd">
<svg version="1.1" baseProfile="tiny" id="scene_x5F_scene"
	 xmlns="http://www.w3.org/2000/svg" xmlns:xlink="http://www.w3.org/1999/xlink" x="0px" y="0px" width="361px" height="361px"
	 viewBox="0 0 361 361" xml:space="preserve">
<g>
	<path fill="#FFFFFF" d="M265.982,282.878c-0.231,2.291-14.844,1-16.431,1c-13.176,0-26.353,0-39.529,0c-30.984,0-61.967,0-92.951,0
		c-8.058,0-16.116,0-24.175,0c-1.59,0-2.247-0.405-2.247-2.09c0-3.65,0-7.3,0-10.95c0-29.624,0-59.247,0-88.87
		c0-1.914-1.453-17.09,1.367-17.09c6.941,0,13.882,0,20.823,0c30.504,0,61.008,0,91.512,0c20.17,0,40.34,0,60.51,0
		c2.365,0,1.121,17.56,1.121,19.281c0,15.397,0,30.795,0,46.192C265.982,247.861,265.982,265.37,265.982,282.878
		c0,6.449,10,6.449,10,0c0-23.464,0-46.928,0-70.392c0-13.234,0-26.469,0-39.703c0-2.298,0-4.596,0-6.895
		c0-6.541-5.52-11.011-11.744-11.011c-51.774,0-103.548,0-155.322,0c-5.753,0-11.507,0-17.26,0
		c-12.867,0-11.008,14.455-11.008,23.041c0,29.624,0,59.247,0,88.87c0,6.983-2.431,21.283,5.122,25.382
		c5.492,2.981,13.548,1.708,19.559,1.708c29.124,0,58.247,0,87.371,0c18.338,0,36.676,0,55.014,0c10.112,0,26.841,3.156,28.268-11
		C276.629,276.463,266.623,276.526,265.982,282.878z"/>
</g>
<g>
	<g>
		<path fill="#FFFFFF" d="M272.045,149.653c-2.323,5.038-14.145-1.235-17.663-2.39c-12.154-3.991-24.308-7.981-36.461-11.972
			c-30.035-9.861-60.069-19.723-90.104-29.584c-9.52-3.126-19.041-6.251-28.561-9.377c-1.557-0.511-3.114-1.022-4.671-1.534
			c-3.229-1.061,0-7.578,0.601-9.407c0.659-2.006,1.722-3.871,4.287-3.029c19.651,6.452,39.302,12.904,58.953,19.356
			c27.074,8.889,54.148,17.779,81.222,26.668c8.915,2.927,17.83,5.854,26.745,8.781c1.989,0.653,3.979,1.307,5.968,1.959
			c4.095,1.345,0.188,8.758-0.668,11.364c-1.412,4.301,5.349,6.129,6.75,1.861c2.25-6.853,5.902-15.414-2.838-19.443
			c-1.458-0.672-3.057-1.082-4.578-1.582c-9.084-2.982-18.168-5.965-27.252-8.948c-29.915-9.822-59.829-19.644-89.743-29.466
			c-17.708-5.814-35.417-11.628-53.125-17.442C91.5,72.381,88.743,82.59,86.588,89.153c-1.859,5.662,1.335,10.816,6.781,12.604
			c6.848,2.249,13.697,4.498,20.545,6.746c50.384,16.543,100.769,33.086,151.154,49.629c5.207,1.709,10.546,0.421,13.021-4.946
			C279.965,149.116,273.933,145.557,272.045,149.653z"/>
	</g>
	<polygon fill="#FFFFFF" stroke="#FFFFFF" stroke-miterlimit="10" points="104.935,98.015 93.025,94.104 107.009,85.012 
		118.919,88.923 	"/>
	<polygon fill="#FFFFFF" stroke="#FFFFFF" stroke-miterlimit="10" points="130.271,106.333 118.361,102.422 132.345,93.331 
		144.254,97.242 	"/>
	<polygon fill="#FFFFFF" stroke="#FFFFFF" stroke-miterlimit="10" points="154.87,114.76 142.959,110.85 156.943,101.758 
		168.854,105.669 	"/>
	<polygon fill="#FFFFFF" stroke="#FFFFFF" stroke-miterlimit="10" points="180.309,122.763 168.399,118.852 182.383,109.761 
		194.293,113.671 	"/>
	<polygon fill="#FFFFFF" stroke="#FFFFFF" stroke-miterlimit="10" points="204.906,130.663 192.996,126.752 206.979,117.661 
		218.889,121.572 	"/>
	<polygon fill="#FFFFFF" stroke="#FFFFFF" stroke-miterlimit="10" points="230.452,138.875 218.542,134.965 232.525,125.874 
		244.435,129.784 	"/>
	<polygon fill="#FFFFFF" stroke="#FFFFFF" stroke-miterlimit="10" points="258.111,148.132 246.201,144.222 260.184,135.13 
		272.094,139.041 	"/>
</g>
<g>
	<path fill="#FFFFFF" d="M268.482,175.962c-0.367,3.325-4.355,2.5-6.358,2.5c-3.958,0-7.915,0-11.872,0c-13.273,0-26.547,0-39.82,0
		c-31.124,0-62.247,0-93.37,0c-8.216,0-16.431,0-24.647,0c-4.86,0-3.683-6.351-3.683-9.707c0-4.043,2.808-3.626,5.42-3.626
		c24.661,0,49.321,0,73.982,0c24.006,0,48.012,0,72.018,0c7.211,0,14.423,0,21.634,0c1.394,0,2.787,0,4.18,0
		C269.816,165.128,268.482,173.856,268.482,175.962c0,4.514,7,4.514,7,0c0-6.56,1.056-16.594-7.929-17.675
		c-1.81-0.218-3.606-0.159-5.429-0.159c-9.902,0-19.803,0-29.705,0c-31.605,0-63.209,0-94.814,0c-12.069,0-24.139,0-36.208,0
		c-7.415,0-16.363-1.64-19.388,7.194c-0.944,2.757-0.277,6.671-0.277,9.513c0,4.117,1.626,8.338,5.789,9.892
		c2.307,0.861,4.529,0.735,6.931,0.735c9.58,0,19.16,0,28.74,0c31.539,0,63.079,0,94.618,0c12.326,0,24.651,0,36.977,0
		c6.806,0,15.516,1.667,19.634-5.095c0.803-1.319,0.898-2.92,1.062-4.405C275.977,171.478,268.971,171.526,268.482,175.962z"/>
</g>
<polygon fill="#FFFFFF" stroke="#FFFFFF" stroke-miterlimit="10" points="97.431,178.295 84.895,178.295 95.345,165.295 
	107.88,165.295 "/>
<polygon fill="#FFFFFF" stroke="#FFFFFF" stroke-miterlimit="10" points="124.097,178.295 111.562,178.295 122.011,165.295 
	134.547,165.295 "/>
<polygon fill="#FFFFFF" stroke="#FFFFFF" stroke-miterlimit="10" points="150.097,178.628 137.562,178.628 148.011,165.628 
	160.547,165.628 "/>
<polygon fill="#FFFFFF" stroke="#FFFFFF" stroke-miterlimit="10" points="176.764,178.295 164.228,178.295 174.678,165.295 
	187.213,165.295 "/>
<polygon fill="#FFFFFF" stroke="#FFFFFF" stroke-miterlimit="10" points="202.597,178.128 190.062,178.128 200.511,165.128 
	213.047,165.128 "/>
<polygon fill="#FFFFFF" stroke="#FFFFFF" stroke-miterlimit="10" points="229.43,177.962 216.895,177.962 227.344,164.962 
	239.88,164.962 "/>
<polygon fill="#FFFFFF" stroke="#FFFFFF" stroke-miterlimit="10" points="258.597,178.128 246.061,178.128 256.511,165.128 
	269.046,165.128 "/>
</svg>
