<?xml version="1.0" encoding="iso-8859-1"?>
<!-- Generator: Adobe Illustrator 16.0.0, SVG Export Plug-In . SVG Version: 6.00 Build 0)  -->
<!DOCTYPE svg PUBLIC "-//W3C//DTD SVG 1.1//EN" "http://www.w3.org/Graphics/SVG/1.1/DTD/svg11.dtd">
<svg version="1.1" xmlns="http://www.w3.org/2000/svg" xmlns:xlink="http://www.w3.org/1999/xlink" x="0px" y="0px" width="361px"
	 height="361px" viewBox="0 0 361 361" style="enable-background:new 0 0 361 361;" xml:space="preserve">
<g id="scene_x5F_pet">
	<path style="fill:none;stroke:#FFFFFF;stroke-width:10;stroke-linecap:round;stroke-linejoin:round;stroke-miterlimit:10;" d="
		M250.266,247.186c1.59,12.645-10.332,23.077-23.076,23.077c0,0-37.795-4.748-46.479-4.748c-8.624,0-46.232,4.748-46.232,4.748
		c-12.745,0-24.666-10.433-23.077-23.077c1.368-10.888,10.643-29.938,11.739-43.014c1.065-12.7,10.333-23.078,23.078-23.078
		c6.442,0,24.83-11.361,34.493-11.361c9.745,0,28.243,11.361,34.739,11.361c12.744,0,22.013,10.378,23.078,23.078
		C239.623,217.247,248.898,236.298,250.266,247.186z"/>
	<g>
		<path style="fill:none;stroke:#FFFFFF;stroke-width:10;stroke-linecap:round;stroke-linejoin:round;stroke-miterlimit:10;" d="
			M168.824,107.524c-1.514-14.405-11.189-18.156-21.287-17.095c-10.098,1.061-18.782,6.742-17.268,21.147
			c1.514,14.406,12.653,32.081,22.75,31.02C163.117,141.535,170.339,121.931,168.824,107.524z"/>
		<path style="fill:none;stroke:#FFFFFF;stroke-width:10;stroke-linecap:round;stroke-linejoin:round;stroke-miterlimit:10;" d="
			M231.592,111.577c1.514-14.404-7.17-20.086-17.268-21.147s-19.773,2.69-21.287,17.095c-1.515,14.406,5.707,34.012,15.804,35.072
			C218.939,143.658,230.078,125.983,231.592,111.577z"/>
		<path style="fill:none;stroke:#FFFFFF;stroke-width:10;stroke-linecap:round;stroke-linejoin:round;stroke-miterlimit:10;" d="
			M113.479,130.635c-3.011-14.168-13.026-16.887-22.957-14.776c-9.932,2.111-17.975,8.668-14.963,22.836
			c3.012,14.169,15.938,30.583,25.868,28.472C111.359,165.056,116.491,144.804,113.479,130.635z"/>
		<path style="fill:none;stroke:#FFFFFF;stroke-width:10;stroke-linecap:round;stroke-linejoin:round;stroke-miterlimit:10;" d="
			M286.301,138.695c3.012-14.168-5.031-20.726-14.963-22.836c-9.931-2.111-19.945,0.608-22.957,14.776
			c-3.012,14.169,2.121,34.42,12.052,36.531C270.364,169.278,283.289,152.864,286.301,138.695z"/>
	</g>
</g>
<g id="Ebene_1">
</g>
</svg>
