<?xml version="1.0" encoding="iso-8859-1"?>
<!-- Generator: Adobe Illustrator 16.0.0, SVG Export Plug-In . SVG Version: 6.00 Build 0)  -->
<!DOCTYPE svg PUBLIC "-//W3C//DTD SVG 1.1//EN" "http://www.w3.org/Graphics/SVG/1.1/DTD/svg11.dtd">
<svg version="1.1" xmlns="http://www.w3.org/2000/svg" xmlns:xlink="http://www.w3.org/1999/xlink" x="0px" y="0px" width="361px"
	 height="361px" viewBox="0 0 361 361" style="enable-background:new 0 0 361 361;" xml:space="preserve">
<g id="scene_x5F_x-mas">
	<g>
		<g>
			<path style="fill:#FFFFFF;" d="M138.806,157.44c15.5-26.847,31.001-53.695,46.502-80.542c-2.878,0-5.756,0-8.635,0
				c15.501,26.848,31.001,53.695,46.502,80.542c1.439-2.508,2.878-5.016,4.317-7.523c-31.001,0-62.002,0-93.004,0
				c-6.449,0-6.449,10,0,10c31.001,0,62.003,0,93.004,0c3.806,0,6.211-4.243,4.317-7.523
				c-15.501-26.848-31.001-53.695-46.502-80.542c-1.873-3.244-6.762-3.244-8.635,0c-15.5,26.847-31.001,53.695-46.502,80.542
				C126.94,157.988,135.583,163.022,138.806,157.44z"/>
		</g>
	</g>
	<path style="fill:none;stroke:#FFFFFF;stroke-width:10;stroke-miterlimit:10;" d="M193.885,280.504c0,3.127-2.914,5.663-6.51,5.663
		h-14.646c-3.595,0-6.51-2.536-6.51-5.663v-8.023c0-3.127,2.915-5.662,6.51-5.662h14.646c3.596,0,6.51,2.535,6.51,5.662V280.504z"/>
	<g>
		<g>
			<path style="fill:#FFFFFF;" d="M116.9,217.19c11.485-19.892,22.97-39.784,34.455-59.677c-1.439,0.826-2.878,1.651-4.317,2.477
				c22.634,0.009,45.268,0.018,67.902,0.027c-1.439-0.826-2.878-1.651-4.317-2.477c11.48,19.883,22.961,39.767,34.441,59.65
				c1.439-2.508,2.878-5.016,4.317-7.523c-45.485,0-90.971,0-136.457,0c-0.114,0-0.228,0-0.341,0c-6.449,0-6.449,10,0,10
				c45.485,0,90.971,0,136.456,0c0.114,0,0.228,0,0.342,0c3.805,0,6.211-4.243,4.317-7.523
				c-11.431-19.798-22.861-39.595-34.293-59.392c-1.993-3.454-6.123-2.735-9.495-2.736c-6.677-0.002-13.353-0.005-20.028-0.008
				c-13.671-0.005-27.343-0.011-41.014-0.017c-0.61,0-1.22,0-1.83,0c-1.754,0-3.438,0.954-4.317,2.477
				c-11.485,19.892-22.97,39.784-34.455,59.677C105.035,217.738,113.678,222.771,116.9,217.19z"/>
		</g>
	</g>
	<g>
		<g>
			<path style="fill:#FFFFFF;" d="M98.525,269.407c10.047-17.402,20.095-34.806,30.142-52.208c-1.439,0.825-2.878,1.651-4.317,2.477
				c37.094,0.007,74.187,0.013,111.281,0.02c-1.439-0.825-2.878-1.651-4.317-2.477c10.044,17.396,20.087,34.793,30.131,52.188
				c1.439-2.508,2.878-5.016,4.317-7.523c-49.814,0-99.628,0-149.442,0c-7.371,0-14.741,0-22.112,0c-6.449,0-6.449,10,0,10
				c49.814,0,99.628,0,149.442,0c7.37,0,14.741,0,22.111,0c3.806,0,6.211-4.243,4.317-7.523
				c-5.765-9.984-11.528-19.969-17.293-29.953c-3.457-5.987-6.914-11.976-10.371-17.963c-1.686-2.919-3.088-6.748-7.077-6.749
				c-25.454-0.005-50.908-0.009-76.362-0.014c-11.542-0.002-23.083-0.004-34.625-0.006c-1.754,0-3.438,0.953-4.317,2.477
				c-10.047,17.402-20.095,34.805-30.142,52.208C86.66,269.955,95.303,274.988,98.525,269.407z"/>
		</g>
	</g>
</g>
<g id="Ebene_1">
</g>
</svg>
