<?xml version="1.0" encoding="iso-8859-1"?>
<!-- Generator: Adobe Illustrator 16.0.0, SVG Export Plug-In . SVG Version: 6.00 Build 0)  -->
<!DOCTYPE svg PUBLIC "-//W3C//DTD SVG 1.1//EN" "http://www.w3.org/Graphics/SVG/1.1/DTD/svg11.dtd">
<svg version="1.1" xmlns="http://www.w3.org/2000/svg" xmlns:xlink="http://www.w3.org/1999/xlink" x="0px" y="0px" width="361px"
	 height="361px" viewBox="0 0 361 361" style="enable-background:new 0 0 361 361;" xml:space="preserve">
<g id="scene_x5F_laundry_x5F_room">
	<g>
		<g>
			<path style="fill:#FFFFFF;" d="M287.333,181.167c-30.139,0-60.276,0-90.415,0c-4.514,0-4.514,7,0,7c30.139,0,60.276,0,90.415,0
				C291.847,188.167,291.847,181.167,287.333,181.167L287.333,181.167z"/>
		</g>
	</g>
	<g>
		<g>
			<path style="fill:#FFFFFF;" d="M282.333,280.667c-0.256,2.534-26.718,1-29.19,1c-14.766,0-29.531,0-44.297,0
				c-1.003,0-7.513,0.851-7.513-1.047c0-2.55,0-5.1,0-7.65c0-13.694,0-27.389,0-41.083c0-15.443,0-30.886,0-46.328
				c0-4.735,0-9.471,0-14.206c0-1.563-0.611-4.186,1.582-4.186c25.266,0,50.53,0,75.796,0c1.657,0,3.622-0.436,3.622,1.732
				c0,3.078,0,6.157,0,9.235c0,12.938,0,25.875,0,38.813C282.333,238.188,282.333,259.428,282.333,280.667c0,6.448,10,6.448,10,0
				c0-23.852,0-47.702,0-71.554c0-12.333,0-24.667,0-37c0-3.865,0.178-7.604-2.489-10.836c-3.447-4.179-8.054-4.11-12.887-4.11
				c-24.853,0-49.705,0-74.558,0c-12.849,0-11.066,14.22-11.066,22.828c0,14.641,0,29.282,0,43.923c0,14.757,0,29.515,0,44.272
				c0,8.649-1.989,23.477,11.017,23.477c24.702,0,49.405,0,74.107,0c1.604,0,3.207,0,4.81,0c6.439,0,10.464-5.02,11.066-11
				C292.979,274.252,282.974,274.314,282.333,280.667z"/>
		</g>
	</g>
	<g>
		<g>
			<path style="fill:#FFFFFF;" d="M238.583,177.167c3.833,0,7.667,0,11.5,0c4.514,0,4.514-7,0-7c-3.833,0-7.667,0-11.5,0
				C234.069,170.167,234.069,177.167,238.583,177.167L238.583,177.167z"/>
		</g>
	</g>
	<g>
		<g>
			<path style="fill:#FFFFFF;" d="M263.333,177.167c2.5,0,5,0,7.5,0c4.514,0,4.514-7,0-7c-2.5,0-5,0-7.5,0
				C258.819,170.167,258.819,177.167,263.333,177.167L263.333,177.167z"/>
		</g>
	</g>
	<g>
		<g>
			<path style="fill:#FFFFFF;" d="M271.208,241.104c-0.334,16.106-12.978,28.748-29.083,29.082s-28.758-13.479-29.082-29.082
				c-0.334-16.106,13.479-28.758,29.082-29.082C258.231,211.688,270.884,225.5,271.208,241.104c0.094,4.508,7.094,4.517,7,0
				c-0.414-19.949-16.134-35.668-36.083-36.082c-19.947-0.414-35.681,16.757-36.082,36.082
				c-0.414,19.947,16.757,35.681,36.082,36.082c19.947,0.414,35.682-16.757,36.083-36.082
				C278.302,236.587,271.302,236.596,271.208,241.104z"/>
		</g>
	</g>
	<g>
		<g>
			<path style="fill:#FFFFFF;" d="M260.883,241.104c-0.313,10.461-8.297,18.444-18.758,18.758
				c-10.459,0.313-18.458-8.768-18.757-18.758c-0.313-10.458,8.767-18.459,18.757-18.758
				C252.583,222.032,260.584,231.113,260.883,241.104c0.135,4.504,7.136,4.517,7,0c-0.43-14.331-11.427-25.328-25.758-25.758
				c-14.325-0.429-25.347,12.073-25.757,25.758c-0.429,14.325,12.072,25.348,25.757,25.758
				c14.325,0.429,25.348-12.073,25.758-25.758C268.019,236.587,261.018,236.6,260.883,241.104z"/>
		</g>
	</g>
	<g>
		<g>
			<path style="fill:#FFFFFF;" d="M287.453,102.167c-47.691-0.034-95.762-1.933-142.921-9.475
				c-15.026-2.403-30.048-5.427-44.559-10.062c-8.101-2.587-17.366-5.696-23.665-11.688c-3.269-3.109-8.226,1.833-4.95,4.95
				c6.664,6.338,15.878,9.795,24.423,12.718c14.787,5.058,30.28,8.093,45.669,10.633c48.133,7.945,97.296,9.889,146.003,9.923
				C291.968,109.17,291.967,102.17,287.453,102.167L287.453,102.167z"/>
		</g>
	</g>
	<g>
		<g>
			<path style="fill:#FFFFFF;" d="M187,95.917c0,3.833,0,7.667,0,11.5c0,4.514,7,4.514,7,0c0-3.833,0-7.667,0-11.5
				C194,91.403,187,91.403,187,95.917L187,95.917z"/>
		</g>
	</g>
	<g>
		<g>
			<path style="fill:#FFFFFF;" d="M153.074,93.167c0,3.833,0,7.667,0,11.5c0,4.514,7,4.514,7,0c0-3.833,0-7.667,0-11.5
				C160.074,88.653,153.074,88.653,153.074,93.167L153.074,93.167z"/>
		</g>
	</g>
	<g>
		<g>
			<path style="fill:#FFFFFF;" d="M111.333,83.054c0,3.833,0,7.667,0,11.5c0,4.514,7,4.514,7,0c0-3.833,0-7.667,0-11.5
				C118.333,78.54,111.333,78.54,111.333,83.054L111.333,83.054z"/>
		</g>
	</g>
	<g>
		<g>
			<path style="fill:#FFFFFF;" d="M88.043,77.417c0,3.833,0,7.667,0,11.5c0,4.514,7,4.514,7,0c0-3.833,0-7.667,0-11.5
				C95.043,72.903,88.043,72.903,88.043,77.417L88.043,77.417z"/>
		</g>
	</g>
	<g>
		<g>
			<g>
				<path style="fill:#FFFFFF;" d="M196.423,110.709c-0.832-5.055-6.029-5.716-10.282-5.716c-5.676,0-11.353,0-17.029,0
					c-4.421,0-8.843,0-13.264,0c-5.772,0-8.246,3.455-8.246,8.645c0,4.475,0.513,9.276-0.017,13.715
					c-0.325,2.724-2.888,11.137,1.693,12.062c4.595,0.928,9.752,0.256,14.425,0.256c5.422,0,4.842-4.946,4.842-8.949
					c-0.5,0.5-1,1-1.5,1.5c3.33,0,6.66,0,9.989,0c-0.5-0.5-1-1-1.5-1.5c0,4.002-0.58,8.949,4.842,8.949c3.149,0,6.299,0,9.448,0
					c2.18,0,4.273,0.308,6.154-0.96c3.332-2.247,0.498-9.462,0.498-12.687c0-4.972,0-9.944,0-14.917c0-1.935-3-1.935-3,0
					c0,6.958-0.267,13.873,0.558,20.777c0.192,1.61,1.244,4.786-1.399,4.786c-2.207,0-4.414,0-6.621,0c-2.017,0-4.033,0-6.05,0
					c-2.173,0-1.43-4.642-1.43-5.949c0-0.818-0.682-1.5-1.5-1.5c-3.33,0-6.66,0-9.989,0c-0.818,0-1.5,0.682-1.5,1.5
					c0,1.554,0,3.107,0,4.661c0,1.898-3.692,1.288-4.653,1.288c-1.617,0-11.556,1.149-11.227-1.613
					c0.863-7.228,0.937-14.13,0.937-21.42c0-4.255,2.842-5.645,6.835-5.645c3.892,0,7.783,0,11.674,0c4.597,0,9.195,0,13.792,0
					c3.257,0,9.893-0.946,10.627,3.514C193.844,113.413,196.734,112.602,196.423,110.709z"/>
			</g>
		</g>
		<g>
			<g>
				<path style="fill:#FFFFFF;" d="M175.831,114.264c2.206,0.356,1.478,3.648,1.478,5.095c0,2.403,0,4.807,0,7.209
					c0,2.34-1.073,2.693-3.252,2.693c-2.044,0-4.088,0-6.133,0c-2.182,0-1.154-11.201-1.154-12.712c0-3.628,6.884-2.232,9.459-2.232
					c1.935,0,1.935-3,0-3c-4.409,0-12.459-1.688-12.459,4.838c0,3.298,0,6.596,0,9.895c0,2.825,0.287,5.61,3.68,6.158
					c2.61,0.421,5.518,0.054,8.159,0.054c2.762,0,4.7-1.675,4.7-4.518c0-3.405,0-6.81,0-10.214c0-2.826-0.287-5.61-3.68-6.158
					C174.736,111.065,173.925,113.956,175.831,114.264z"/>
			</g>
		</g>
		<g>
			<g>
				<path style="fill:#FFFFFF;" d="M149.102,114.167c15.292,0,30.583,0,45.875,0c1.935,0,1.935-3,0-3c-15.292,0-30.583,0-45.875,0
					C147.167,111.167,147.167,114.167,149.102,114.167L149.102,114.167z"/>
			</g>
		</g>
	</g>
	<g id="buegeleisen" style="display:none;">
		<g style="display:inline;">
			<g>
				<path style="fill:#FFFFFF;" d="M253.74,279.667c-0.229,2.271-14.503,0.999-16.25,0.999c-1.748,0.001-16.021,1.273-16.25-0.999
					c-0.854-8.468,0-17.463,0-25.963c0-15.986,0-31.973,0-47.959c0-6.066,0-12.134,0-18.2c0-1.625-0.883-6.16,0.293-7.585
					c0.074-0.089-1.234-0.999,0.46,0.139c-0.136-0.091,1.265,1.149,1.655,1.534c1.773,1.746,3.346,3.713,4.839,5.699
					c4.051,5.388,7.639,11.131,11.136,16.887c5.16,8.495,10.021,17.187,14.636,25.99c0.456,0.871-0.519-3.93-0.519-1.035
					c0,1.706,0,3.413,0,5.119c0,5.852,0,11.703,0,17.555C253.74,261.121,253.74,270.394,253.74,279.667c0,6.448,10,6.448,10,0
					c0-12.158,0-24.315,0-36.474c0-4.989,0-9.979,0-14.97c0-3.185-2.927-6.989-4.371-9.643c-7.63-14.024-15.564-28.286-25.678-40.7
					c-3.882-4.765-9.651-10.675-16.31-7.061c-5.069,2.752-6.142,7.44-6.142,12.654c0,27.693,0,55.387,0,83.08
					c0,8.863-2.157,24.112,11.168,24.112c6.34,0,12.68,0,19.021-0.001c5.582,0,13.565,1.337,18.202-2.488
					c2.727-2.25,3.764-5.079,4.109-8.511C264.387,273.252,254.381,273.314,253.74,279.667z"/>
			</g>
		</g>
		<g style="display:inline;">
			<g>
				<path style="fill:#FFFFFF;" d="M281.832,233.332c0,17.778,0,35.557,0,53.335c0,6.448,10,6.448,10,0c0-17.778,0-35.557,0-53.335
					C291.832,226.884,281.832,226.884,281.832,233.332L281.832,233.332z"/>
			</g>
		</g>
		<g style="display:inline;">
			<g>
				<path style="fill:#FFFFFF;" d="M221.083,291.332c21.806,0,43.611,0.001,65.417,0.001c6.448,0,6.448-10,0-10
					c-21.806,0-43.611-0.001-65.417-0.001C214.635,281.332,214.635,291.332,221.083,291.332L221.083,291.332z"/>
			</g>
		</g>
		<g style="display:inline;">
			<g>
				<path style="fill:#FFFFFF;" d="M260.166,237.104c0,6.757,0,13.513,0,20.27c0,4.514,7,4.514,7,0c0-6.757,0-13.513,0-20.27
					C267.166,232.59,260.166,232.59,260.166,237.104L260.166,237.104z"/>
			</g>
		</g>
	</g>
	<g>
		<g>
			<path style="fill:#FFFFFF;" d="M103.194,120.402c0.107,3.015-3.144,4.57-5.416,2.527c-0.396-0.356-0.791-0.711-1.187-1.067
				c-1.374-1.236-2.749-2.472-4.123-3.708c-2-1.799-3.76-3.205-3.76-6.062c0-6.458,0-12.917,0-19.375
				c0-2.248,5.518-1.613,5.483-0.541c-0.119,3.73-0.119,7.466,0.046,11.194c0.128,2.902,0.286,5.494,2.042,7.855
				c2.166,2.913,5.913,6.052,6.968,9.575c0.553,1.848,3.449,1.061,2.893-0.798c-1.265-4.223-5.577-7.85-8.062-11.383
				c-1.276-1.814-0.859-5.388-0.926-7.515c-0.088-2.829-0.045-5.664,0.027-8.492c0.109-4.235-3.305-4.196-6.589-4.196
				c-3.813,0-4.881,1.822-4.881,5.345c0,5.051,0,10.103,0,15.154c0,2.83-0.634,6.446,1.648,8.614
				c2.797,2.657,5.621,5.514,8.697,7.838c4.765,3.6,10.366,1.387,10.141-4.966C106.126,118.473,103.125,118.466,103.194,120.402z"/>
		</g>
	</g>
	<path style="fill:none;stroke:#FFFFFF;stroke-miterlimit:10;" d="M44.239,121.792"/>
	<g>
		<g>
			<path style="fill:#FFFFFF;" d="M126.807,126.289c0.107,3.015-3.144,4.57-5.416,2.527c-0.396-0.356-0.791-0.711-1.187-1.067
				c-1.374-1.236-2.749-2.472-4.123-3.708c-2-1.799-3.76-3.205-3.76-6.062c0-6.458,0-12.917,0-19.375
				c0-2.248,5.518-1.613,5.483-0.541c-0.119,3.73-0.119,7.466,0.046,11.194c0.128,2.902,0.286,5.494,2.042,7.855
				c2.166,2.913,5.913,6.052,6.968,9.575c0.553,1.848,3.449,1.061,2.893-0.798c-1.265-4.223-5.577-7.85-8.062-11.383
				c-1.276-1.814-0.859-5.388-0.926-7.515c-0.088-2.829-0.045-5.664,0.027-8.492c0.109-4.235-3.305-4.196-6.589-4.196
				c-3.813,0-4.881,1.822-4.881,5.345c0,5.051,0,10.103,0,15.154c0,2.83-0.634,6.446,1.648,8.614
				c2.797,2.657,5.621,5.514,8.696,7.838c4.766,3.6,10.367,1.387,10.141-4.966C129.739,124.36,126.738,124.353,126.807,126.289z"/>
		</g>
	</g>
	<g>
		<g>
			<g>
				<path style="fill:#FFFFFF;" d="M145.287,261.436c-0.69,3.675-4.743,2.893-6.355,0.573c-1.016-1.46-2.031-2.92-3.046-4.38
					c-1.4-2.014-3.586-4.253-2.975-6.853c1.368-5.822,2.735-11.644,4.103-17.466c0.584-2.485,5.682-0.099,5.576,0.284
					c-0.993,3.574-1.833,7.198-2.423,10.86c-0.422,2.618-0.418,4.453,0.614,6.838c1.37,3.164,4.243,7.057,4.454,10.541
					c0.116,1.922,3.117,1.934,3,0c-0.248-4.103-3.212-8.394-4.863-12.056c-1.91-4.235,0.935-11.09,2.111-15.386
					c1.089-3.976-3.681-4.519-6.3-5.134c-3.524-0.827-4.63,1.42-5.319,4.354c-1.087,4.626-2.174,9.253-3.26,13.879
					c-0.816,3.473-1.445,5.699,0.794,8.919c2.372,3.41,4.557,7.668,7.797,10.331c3.824,3.145,8.246-0.563,8.987-4.51
					C148.535,260.342,145.644,259.535,145.287,261.436z"/>
			</g>
		</g>
		<g>
			<g>
				<path style="fill:#FFFFFF;" d="M149.752,249.971c-0.171,3.778,1.923,6.771,5.812,6.976c3.058,0.161,6.208-3.66,8.279-5.522
					c2.245-2.019,5.656-4.22,6.337-7.321c0.596-2.711,0.058-6.066,0.058-8.813c0-2.778,0.234-5.377-2.99-6.249
					c-2.313-0.626-6.081-0.407-7.809,1.321c-0.822,0.822-0.65,2.09-0.604,3.131c0.122,2.79-0.828,4.597-2.427,6.652
					c-2.175,2.797-5.584,5.95-6.603,9.428c-0.545,1.86,2.35,2.649,2.893,0.797c1.287-4.393,6.221-7.223,8.134-11.328
					c0.899-1.931,1.262-4.814,0.879-6.938c0.082,0.451,5.526-1.165,5.526,0.663c0,4.094,1.31,10.238-1.869,13.258
					c-1.404,1.334-2.886,2.595-4.327,3.891c-0.765,0.687-1.529,1.374-2.293,2.062c-2.205,1.982-6.161,1.638-5.996-2.005
					C152.839,248.036,149.839,248.044,149.752,249.971z"/>
			</g>
		</g>
		<g>
			<g>
				<path style="fill:#FFFFFF;" d="M136.394,263.494c0.102,6.85,0.203,14.341,0.304,21.189c0.057,3.862,7.057,3.867,7,0
					c-0.102-6.849-0.159-10.776-0.261-17.625c-0.057-3.862-2.14-2.433-7.043-4.277V263.494z"/>
			</g>
			<g>
				<path style="fill:#FFFFFF;" d="M153.476,236.359c-0.227,3.883-0.454,7.764-0.681,11.646c-0.129,2.207-0.258,4.414-0.387,6.621
					c-0.607,10.381-1.213,20.762-1.82,31.142c-0.245,4.195,6.756,4.174,7,0c0.647-11.076,1.141-19.512,1.788-30.588
					c0.257-4.392-7.089,1.521-6.833-2.869c0.368-6.299,7.874-14.949,7.933-15.951C160.721,232.164,153.72,232.188,153.476,236.359
					L153.476,236.359z"/>
			</g>
			<g>
				<g>
					<path style="fill:#FFFFFF;" d="M90.509,236.716c1.032,16.827,2.064,33.654,3.096,50.481c0.275,4.483,7.277,4.511,7,0
						c-1.032-16.827-2.064-33.654-3.096-50.481C97.234,232.232,90.232,232.205,90.509,236.716L90.509,236.716z"/>
				</g>
			</g>
			<g>
				<g>
					<path style="fill:#FFFFFF;" d="M121.587,236.531c0.102,16.833,0.203,33.667,0.304,50.5c0.027,4.513,7.027,4.516,7,0
						c-0.102-16.833-0.203-33.667-0.304-50.5C128.56,232.019,121.56,232.016,121.587,236.531L121.587,236.531z"/>
				</g>
			</g>
			<g>
				<g>
					<path style="fill:#FFFFFF;" d="M107.114,236.531c0.102,16.611,0.203,33.222,0.304,49.833c0.027,4.513,7.027,4.516,7,0
						c-0.102-16.611-0.203-33.222-0.304-49.833C114.087,232.019,107.087,232.016,107.114,236.531L107.114,236.531z"/>
				</g>
			</g>
			<g>
				<path style="fill:#FFFFFF;" d="M144.06,234.044c0,0-0.572,2.04-1.194,4.672c2.735,0,5.469,0,8.203,0c2.857,0,5.714,0,8.571,0
					c0.112-0.181,0.2-0.335,0.229-0.432c1.177-3.839,0.705-5.909,0.705-5.909c0-0.232,0.048-0.453,0.125-0.659h0
					c-6.096,0-12.193,0-18.289,0l0.243,0.058C143.669,232.012,144.298,233.028,144.06,234.044z"/>
				<path style="fill:#FFFFFF;" d="M173.895,231.716c-1.649,0-3.299,0-4.948,0c0.077,0.206,0.125,0.427,0.125,0.659v6.341
					c0.52,0,1.04,0,1.56,0c0.872,0,1.745,0,2.617,0c0.221,0,0.441,0,0.663,0c-2.127,12.45-4.329,24.896-6.882,37.265
					c-0.493,2.387-1.011,4.769-1.587,7.137c-0.143,0.586-0.306,1.166-0.467,1.747c-24.121,0-48.241,0-72.362,0
					c-2.304,0-4.608,0-6.912,0c-0.216-0.774-0.413-1.556-0.603-2.337c-0.807-3.316-1.478-6.667-2.148-10.013
					c-1.568-7.819-2.987-15.668-4.382-23.519c-0.506-2.845-1.003-5.69-1.496-8.537c-0.101-0.581-0.2-1.162-0.3-1.743
					c19.155,0,38.31,0,57.465,0l1.554-6.614c0.032-0.137,0.08-0.265,0.138-0.386c0,0,0,0,0,0c-13.771,0-27.542,0-41.312,0
					c-5.089,0-10.179,0-15.268,0c-4.059,0-8.423,0.155-9.673,4.985c-0.902,3.488,1.251,9.115,1.847,12.493
					c1.375,7.798,2.794,15.589,4.316,23.358c1.039,5.306,1.757,11.081,3.741,16.143c1.332,3.4,4.009,3.169,7.071,3.169
					c13.563,0,27.126,0,40.69,0c13.012,0,26.022,0,39.034,0c0.493,0.122,1.048,0.11,1.66-0.071c0.907-0.168,1.574-0.656,2.018-1.298
					c2.247-2.493,2.62-7.483,3.221-10.253c1.66-7.653,3.063-15.365,4.461-23.07c1.056-5.813,2.079-11.633,3.077-17.457
					C181.612,235.031,178.77,231.716,173.895,231.716z"/>
			</g>
		</g>
	</g>
</g>
<g id="Ebene_1">
</g>
</svg>
