<?xml version="1.0" encoding="iso-8859-1"?>
<!-- Generator: Adobe Illustrator 16.0.3, SVG Export Plug-In . SVG Version: 6.00 Build 0)  -->
<!DOCTYPE svg PUBLIC "-//W3C//DTD SVG 1.1//EN" "http://www.w3.org/Graphics/SVG/1.1/DTD/svg11.dtd">
<svg version="1.1" xmlns="http://www.w3.org/2000/svg" xmlns:xlink="http://www.w3.org/1999/xlink" x="0px" y="0px" width="361px"
	 height="361px" viewBox="0 0 361 361" style="enable-background:new 0 0 361 361;" xml:space="preserve">
<g id="scene_x5F_projector_x5F_closed">
	<g style="display:none;">
		<g style="display:inline;">
			<g>
				<g>
					<path style="fill:#FFFFFF;" d="M169.25,137.016c-0.502,3.735-5.599,2.752-7.889,2.752c-2.592,0-3.899-2.023-3.899-4.34
						c0-4.167,0-8.334,0-12.502c0-3.742,5.509-2.824,7.889-2.824c3.466,0,3.899,2.201,3.899,4.965
						C169.25,129.05,169.25,133.033,169.25,137.016c0,1.935,3,1.935,3,0c0-2.945,0-5.89,0-8.834c0-2.505,0.64-6.386-1.02-8.534
						c-3.502-4.534-16.768-4.148-16.768,3.207c0,2.945,0,5.89,0,8.834c0,2.522-0.65,6.372,1.02,8.534
						c2.465,3.19,6.255,2.545,9.869,2.545c3.868,0,6.375-1.849,6.899-5.752C172.506,135.104,169.503,135.128,169.25,137.016z"/>
				</g>
			</g>
			<g>
				<g>
					<path style="fill:#FFFFFF;" d="M164.998,118.603c0,7.555,0,15.11,0,22.666c0,1.935,3,1.935,3,0c0-7.555,0-15.11,0-22.666
						C167.998,116.668,164.998,116.668,164.998,118.603L164.998,118.603z"/>
				</g>
			</g>
		</g>
		<g style="display:inline;">
			<g>
				<g>
					<path style="fill:#FFFFFF;" d="M85.534,160.258c2.411,0,4.822,0,7.232,0c2.726,0,5-2.274,5-5s-2.274-5-5-5
						c-2.411,0-4.822,0-7.232,0c-2.726,0-5,2.274-5,5S82.808,160.258,85.534,160.258L85.534,160.258z"/>
				</g>
			</g>
			<g>
				<g>
					<path style="fill:#FFFFFF;" d="M135.705,160.258c2.411,0,4.822,0,7.232,0c2.726,0,5-2.274,5-5s-2.274-5-5-5
						c-2.411,0-4.822,0-7.232,0c-2.726,0-5,2.274-5,5S132.979,160.258,135.705,160.258L135.705,160.258z"/>
				</g>
			</g>
			<g>
				<g>
					<path style="fill:#FFFFFF;" d="M152.483,146.509c-0.419,3.636-9.264,2.169-11.192,2.169c-7.258,0-14.517,0-21.775,0
						c-13.097,0-26.195,0-39.292,0c-5.127,0-3.576-7.036-3.576-10.419c0-5.94,0-11.881,0-17.822c0-3.556,9.651-2.169,11.192-2.169
						c7.258,0,14.517,0,21.775,0c13.097,0,26.195,0,39.292,0c5.127,0,3.576,7.036,3.576,10.419
						C152.483,134.627,152.483,140.568,152.483,146.509c0,4.514,7,4.514,7,0c0-5.941,0-11.882,0-17.822
						c0-5.833,1.252-14.217-5.746-16.718c-3.42-1.222-7.546-0.701-11.116-0.701c-7.048,0-14.096,0-21.145,0
						c-13.529,0-27.058,0-40.586,0c-5.635,0-11.244,2.681-11.244,9.217c0,6.226,0,12.452,0,18.678c0,3.297-0.828,8.646,1.054,11.605
						c2.357,3.708,5.672,4.91,9.841,4.91c9.037,0,18.074,0,27.111,0c11.212,0,22.425,0,33.638,0c7.707,0,17.007,1.125,18.192-9.169
						C159.999,142.029,152.993,142.079,152.483,146.509z"/>
				</g>
			</g>
			<g>
				<g>
					<path style="fill:#FFFFFF;" d="M82.081,129.108c10.816,0,21.632,0,32.449,0c1.935,0,1.935-3,0-3c-10.816,0-21.632,0-32.449,0
						C80.146,126.108,80.146,129.108,82.081,129.108L82.081,129.108z"/>
				</g>
			</g>
			<g>
				<g>
					<path style="fill:#FFFFFF;" d="M82.081,124.178c10.816,0,21.632,0,32.449,0c1.935,0,1.935-3,0-3c-10.816,0-21.632,0-32.449,0
						C80.146,121.178,80.146,124.178,82.081,124.178L82.081,124.178z"/>
				</g>
			</g>
			<g>
				<g>
					<path style="fill:#FFFFFF;" d="M82.081,134.038c10.816,0,21.632,0,32.449,0c1.935,0,1.935-3,0-3c-10.816,0-21.632,0-32.449,0
						C80.146,131.038,80.146,134.038,82.081,134.038L82.081,134.038z"/>
				</g>
			</g>
		</g>
	</g>
	<g>
		<g>
			<path style="fill:#FFFFFF;" d="M268.551,261.68c0.493,4.288,2.939,8.121,7.579,8.655c3.017,0.348,7.827,0.826,10.504-0.876
				c3.729-2.372,4.699-5.741,4.699-9.818c0-9.195,0-18.392,0-27.587c0-31.239,0-62.478,0-93.716c0-10.417,0-20.833,0-31.25
				c0-1.83,0.367-4.504-0.265-6.271c-1.401-3.921-4.402-6.649-8.753-6.649c-3.544,0-7.989-0.581-10.757,2.188
				c-4.705,4.706-3.008,14.104-3.008,20.17c0,13.276,0,26.553,0,39.83C268.551,191.464,268.551,226.571,268.551,261.68
				c0,4.514,7,4.514,7,0c0-49.14,0-98.279,0-147.419c0-3.243,0-6.486,0-9.73c0-4.418,8.782-4.652,8.782-1.562
				c0,6.196,0,12.393,0,18.589c0,30.471,0,60.943,0,91.414c0,12.47,0,24.939,0,37.408c0,3.168,0,6.335,0,9.503
				c0,0.574,0,1.148,0,1.723c0,2.81-8.461,2.868-8.782,0.074C275.041,257.25,268.035,257.2,268.551,261.68z"/>
		</g>
	</g>
	<g style="display:none;">
		<g style="display:inline;">
			<g>
				<path style="fill:#FFFFFF;" d="M129.49,281.517c-0.55,3.766-7.373,2.65-10.127,2.65c-4.999,0-9.998,0-14.997,0
					c-1.422,0-10.002,0.852-10.002-1.826c0-3.9,0-7.801,0-11.701c0-3.435,22.675-1.826,24.999-1.826
					c1.422,0,10.002-0.852,10.002,1.826c0,3.936,0,7.872,0,11.808c0,4.514,7,4.514,7,0c0-4.403,1.216-10.755-0.653-14.877
					c-2.748-6.063-9.115-5.757-14.718-5.757c-6.576,0-13.153,0-19.729,0c-5.76,0-12.746,0.735-13.776,7.789
					c-0.375,2.57-0.125,5.287-0.125,7.876c0,2.505-0.411,5.585,0.653,7.932c2.748,6.063,9.114,5.757,14.718,5.757
					c6.576,0,13.153,0,19.729,0c5.76,0,12.747-0.735,13.777-7.789C136.885,278.964,130.141,277.063,129.49,281.517z"/>
			</g>
		</g>
		<g style="display:inline;">
			<g>
				<path style="fill:#FFFFFF;" d="M148.914,248.667c-1.847,0-3.693,0-5.54,0c1.167,1.167,2.333,2.333,3.5,3.5
					c0-9.989,3.187-31.566-12.662-30.302c-12.141,0.969-24.283,1.938-36.424,2.907c1.125,0.856,2.25,1.713,3.375,2.569
					c-2.028-12.241-4.057-24.481-6.085-36.723c-0.794-4.794-0.864-10.131-4.134-13.962c-4-4.688-19.009-2.472-20.273,4.178
					c-0.76,3.998,0.427,8.385,0.916,12.378c0.952,7.776,1.904,15.554,2.856,23.331c0.744,6.074,1.487,12.148,2.23,18.223
					c0.631,5.155-0.18,10.778-0.18,16.026c0,5.447-0.43,10.224,3.368,14.652c2.797,3.261,7.15,3.368,11.064,3.368
					c11.046,0,22.092,0,33.139,0c7.564,0,14.807,0.354,22.29,0.354c5.604,0,11.729-1.552,11.729-8.4
					C158.083,254.088,156.537,249.22,148.914,248.667c-4.506-0.327-4.475,6.676,0,7c3.276,0.237,3.311,6.5-0.126,6.5
					c-3.206,0-6.413,0-9.619,0c-4.108,0-8.356-0.354-12.518-0.354c-12.851,0-25.701,0-38.552,0c-6.873,0-4.606-13.102-4.606-17.445
					c0-5.086,0.204-9.406-0.41-14.425c-1.749-14.289-3.499-28.578-5.248-42.867c-0.161-1.315-0.322-2.632-0.483-3.947
					c-0.145-1.183,7.377-2.167,8.358-1.722c1.27,0.576,1.427,3.89,1.616,5.029c0.472,2.85,0.944,5.699,1.417,8.548
					c1.89,11.406,3.78,22.813,5.67,34.219c0.237,1.429,1.957,2.683,3.375,2.569c11.097-0.886,22.193-1.771,33.29-2.657
					c1.42-0.113,2.841-0.227,4.262-0.34c4.016-0.32,4.535,4.677,4.535,7.578c0,5.271,0,10.542,0,15.813c0,1.908,1.592,3.5,3.5,3.5
					c1.847,0,3.693,0,5.54,0C153.428,255.667,153.428,248.667,148.914,248.667z"/>
			</g>
		</g>
		<g style="display:inline;">
			<g>
				<path style="fill:#FFFFFF;" d="M100.788,226.772c13.582-1.091,27.164-2.182,40.746-3.272c4.468-0.358,4.502-7.361,0-7
					c-13.582,1.091-27.164,2.182-40.746,3.272C96.32,220.131,96.285,227.134,100.788,226.772L100.788,226.772z"/>
			</g>
		</g>
	</g>
	<g>
		<g>
			<path style="fill:#FFFFFF;" d="M187.568,79.667c33.088,0,66.177,0,99.265,0c6.448,0,6.448-10,0-10c-33.088,0-66.177,0-99.265,0
				C181.12,69.667,181.12,79.667,187.568,79.667L187.568,79.667z"/>
		</g>
	</g>
	<g>
		<g>
			<path style="fill:#FFFFFF;" d="M75.235,79.667c5.088,0,10.177,0,15.265,0c6.449,0,6.449-10,0-10c-5.088,0-10.177,0-15.265,0
				C68.786,69.667,68.786,79.667,75.235,79.667L75.235,79.667z"/>
		</g>
	</g>
	<g>
		<g>
			<path style="fill:#FFFFFF;" d="M84.329,76.667c37.556,0,75.111,0,112.667,0c4.514,0,4.514-7,0-7c-37.556,0-75.111,0-112.667,0
				C79.815,69.667,79.815,76.667,84.329,76.667L84.329,76.667z"/>
		</g>
	</g>
	<g>
		<g>
			<path style="fill:#FFFFFF;" d="M94.436,84.333c30.818,0,61.635,0,92.453,0c6.448,0,6.448-10,0-10c-30.818,0-61.635,0-92.453,0
				C87.987,74.333,87.987,84.333,94.436,84.333L94.436,84.333z"/>
		</g>
	</g>
</g>
<g id="Ebene_1">
</g>
</svg>
