<?xml version="1.0" encoding="iso-8859-1"?>
<!-- Generator: Adobe Illustrator 16.0.0, SVG Export Plug-In . SVG Version: 6.00 Build 0)  -->
<!DOCTYPE svg PUBLIC "-//W3C//DTD SVG 1.1//EN" "http://www.w3.org/Graphics/SVG/1.1/DTD/svg11.dtd">
<svg version="1.1" xmlns="http://www.w3.org/2000/svg" xmlns:xlink="http://www.w3.org/1999/xlink" x="0px" y="0px" width="361px"
	 height="361px" viewBox="0 0 361 361" style="enable-background:new 0 0 361 361;" xml:space="preserve">
<g id="scene_x5F_waterfall">
	<g>
		<g>
			<path style="fill:#FFFFFF;" d="M154.873,153.673c2.465,6.861,4.931,13.722,7.396,20.583c1.515,4.215,8.28,2.397,6.75-1.861
				c-2.465-6.861-4.931-13.722-7.396-20.583C160.108,147.597,153.343,149.414,154.873,153.673L154.873,153.673z"/>
		</g>
	</g>
	<g>
		<g>
			<path style="fill:#FFFFFF;" d="M127.811,113.934c6.551,9.279,13.103,18.558,19.654,27.836c2.581,3.656,8.654,0.164,6.044-3.533
				c-6.551-9.279-13.103-18.558-19.654-27.836C131.274,106.745,125.201,110.236,127.811,113.934L127.811,113.934z"/>
		</g>
	</g>
	<g>
		<g>
			<path style="fill:#FFFFFF;" d="M173.189,219.684c0,8.151,0,16.304,0,24.455c0,4.514,7,4.514,7,0c0-8.151,0-16.304,0-24.455
				C180.189,215.17,173.189,215.17,173.189,219.684L173.189,219.684z"/>
		</g>
	</g>
	<g>
		<g>
			<path style="fill:#FFFFFF;" d="M180.086,284.529c-0.15-7.043-0.3-14.085-0.451-21.128c-0.096-4.508-7.096-4.517-7,0
				c0.15,7.043,0.3,14.085,0.451,21.128C173.183,289.037,180.183,289.046,180.086,284.529L180.086,284.529z"/>
		</g>
	</g>
	<g>
		<g>
			<path style="fill:#FFFFFF;" d="M166.41,185.933c1.404,7.495,2.807,14.99,4.211,22.486c0.83,4.434,7.576,2.55,6.75-1.861
				c-1.404-7.495-2.807-14.99-4.211-22.486C172.33,179.638,165.584,181.521,166.41,185.933L166.41,185.933z"/>
		</g>
	</g>
	<g>
		<g>
			<path style="fill:#FFFFFF;" d="M186.01,156.928c2.466,6.861,4.931,13.722,7.396,20.583c1.515,4.214,8.28,2.397,6.75-1.861
				c-2.466-6.861-4.931-13.722-7.396-20.583C191.245,150.852,184.479,152.669,186.01,156.928L186.01,156.928z"/>
		</g>
	</g>
	<g>
		<g>
			<path style="fill:#FFFFFF;" d="M156.811,113.934c8.252,11.351,16.504,22.701,24.755,34.052c2.627,3.612,8.704,0.125,6.045-3.533
				c-8.252-11.351-16.504-22.701-24.756-34.052C160.229,106.788,154.151,110.275,156.811,113.934L156.811,113.934z"/>
		</g>
	</g>
	<g>
		<g>
			<path style="fill:#FFFFFF;" d="M203.222,231.07c0.111,6.147,0.224,12.294,0.335,18.441c0.082,4.509,7.082,4.517,7,0
				c-0.111-6.147-0.224-12.294-0.335-18.441C210.14,226.562,203.14,226.554,203.222,231.07L203.222,231.07z"/>
		</g>
	</g>
	<g>
		<g>
			<path style="fill:#FFFFFF;" d="M210.844,275.922c0.108-3.993,0.216-7.987,0.324-11.98c0.122-4.517-6.878-4.505-7,0
				c-0.108,3.993-0.216,7.987-0.324,11.98C203.722,280.438,210.722,280.427,210.844,275.922L210.844,275.922z"/>
		</g>
	</g>
	<g>
		<g>
			<path style="fill:#FFFFFF;" d="M197.504,194.584c1.403,7.495,2.808,14.99,4.211,22.485c0.83,4.434,7.576,2.55,6.75-1.861
				c-1.403-7.495-2.808-14.99-4.211-22.485C203.424,188.289,196.678,190.173,197.504,194.584L197.504,194.584z"/>
		</g>
	</g>
	<g>
		<g>
			<path style="fill:#FFFFFF;" d="M215.157,162.177c2.435,5.295,4.869,10.59,7.303,15.886c1.884,4.097,7.916,0.538,6.045-3.533
				c-2.435-5.295-4.869-10.59-7.303-15.886C219.318,154.547,213.286,158.106,215.157,162.177L215.157,162.177z"/>
		</g>
	</g>
	<g>
		<g>
			<path style="fill:#FFFFFF;" d="M188.278,113.934c7.285,12.32,14.57,24.641,21.854,36.961c2.295,3.881,8.348,0.362,6.045-3.533
				c-7.285-12.32-14.57-24.641-21.854-36.961C192.028,106.519,185.976,110.039,188.278,113.934L188.278,113.934z"/>
		</g>
	</g>
	<g>
		<g>
			<path style="fill:#FFFFFF;" d="M233.159,226.834c0.156,5.812,0.312,11.622,0.468,17.434c0.121,4.505,7.121,4.517,7,0
				c-0.156-5.812-0.312-11.622-0.468-17.434C240.038,222.329,233.038,222.317,233.159,226.834L233.159,226.834z"/>
		</g>
	</g>
	<g>
		<g>
			<path style="fill:#FFFFFF;" d="M240.459,275.965c0.017-3.823,0.033-7.647,0.05-11.471c0.02-4.515-6.98-4.513-7,0
				c-0.017,3.823-0.033,7.647-0.05,11.471C233.439,280.479,240.439,280.478,240.459,275.965L240.459,275.965z"/>
		</g>
	</g>
	<g>
		<g>
			<path style="fill:#FFFFFF;" d="M226.611,193.002c1.403,7.495,2.808,14.99,4.211,22.485c0.83,4.434,7.576,2.55,6.75-1.861
				c-1.403-7.495-2.808-14.99-4.211-22.485C232.531,186.707,225.785,188.591,226.611,193.002L226.611,193.002z"/>
		</g>
	</g>
	<g>
		<g>
			<path style="fill:#FFFFFF;" d="M170.441,155.3c2.465,6.861,4.931,13.723,7.396,20.584c1.515,4.215,8.28,2.397,6.75-1.861
				c-2.466-6.861-4.931-13.723-7.396-20.584C175.677,149.224,168.911,151.041,170.441,155.3L170.441,155.3z"/>
		</g>
	</g>
	<g>
		<g>
			<path style="fill:#FFFFFF;" d="M142.311,113.934c7.472,10.242,14.945,20.484,22.417,30.727c2.631,3.607,8.709,0.12,6.044-3.533
				c-7.472-10.242-14.945-20.484-22.417-30.727C145.724,106.793,139.646,110.28,142.311,113.934L142.311,113.934z"/>
		</g>
	</g>
	<g>
		<g>
			<path style="fill:#FFFFFF;" d="M187.801,223.743c0.56,9.701,1.118,19.402,1.678,29.104c0.259,4.486,7.26,4.512,7,0
				c-0.56-9.701-1.118-19.402-1.678-29.104C194.542,219.257,187.541,219.231,187.801,223.743L187.801,223.743z"/>
		</g>
	</g>
	<g>
		<g>
			<path style="fill:#FFFFFF;" d="M196.617,279.729c-0.002-4.563-0.004-9.126-0.006-13.688c-0.002-4.514-7.002-4.515-7,0
				c0.002,4.563,0.004,9.126,0.006,13.688C189.619,284.243,196.619,284.244,196.617,279.729L196.617,279.729z"/>
		</g>
	</g>
	<g>
		<g>
			<path style="fill:#FFFFFF;" d="M182.95,187.875c0.975,5.206,1.95,10.412,2.925,15.618c0.83,4.434,7.576,2.55,6.75-1.861
				c-0.975-5.206-1.95-10.412-2.925-15.618C188.87,181.58,182.124,183.464,182.95,187.875L182.95,187.875z"/>
		</g>
	</g>
	<g>
		<g>
			<path style="fill:#FFFFFF;" d="M197.357,152.955c3.166,7.496,6.332,14.992,9.497,22.488c1.751,4.146,7.779,0.574,6.045-3.533
				c-3.166-7.496-6.332-14.992-9.497-22.488C201.651,145.275,195.623,148.848,197.357,152.955L197.357,152.955z"/>
		</g>
	</g>
	<g>
		<g>
			<path style="fill:#FFFFFF;" d="M173.339,113.934c6.02,9.384,12.039,18.768,18.058,28.152c2.429,3.786,8.49,0.279,6.045-3.533
				c-6.02-9.384-12.039-18.768-18.059-28.152C176.955,106.615,170.894,110.122,173.339,113.934L173.339,113.934z"/>
		</g>
	</g>
	<g>
		<g>
			<path style="fill:#FFFFFF;" d="M217.199,225.736c0.377,7.462,0.754,14.925,1.131,22.387c0.227,4.491,7.228,4.514,7,0
				c-0.377-7.462-0.754-14.925-1.131-22.387C223.973,221.245,216.972,221.223,217.199,225.736L217.199,225.736z"/>
		</g>
	</g>
	<g>
		<g>
			<path style="fill:#FFFFFF;" d="M225.919,281.292c0.088-4.561,0.175-9.122,0.263-13.683c0.087-4.517-6.913-4.508-7,0
				c-0.088,4.561-0.175,9.122-0.263,13.683C218.832,285.809,225.832,285.8,225.919,281.292L225.919,281.292z"/>
		</g>
	</g>
	<g>
		<g>
			<path style="fill:#FFFFFF;" d="M211.34,189.407c1.344,6.849,2.688,13.697,4.031,20.547c0.869,4.427,7.615,2.548,6.75-1.861
				c-1.344-6.849-2.688-13.697-4.031-20.547C217.221,183.119,210.475,184.998,211.34,189.407L211.34,189.407z"/>
		</g>
	</g>
	<g>
		<g>
			<path style="fill:#FFFFFF;" d="M226.358,156.45c3.217,6.789,6.433,13.577,9.648,20.366c1.932,4.078,7.966,0.523,6.045-3.533
				c-3.217-6.789-6.433-13.577-9.648-20.366C230.472,148.839,224.438,152.394,226.358,156.45L226.358,156.45z"/>
		</g>
	</g>
	<g>
		<g>
			<path style="fill:#FFFFFF;" d="M201.061,113.934c6.852,10.239,13.703,20.478,20.554,30.717c2.497,3.73,8.563,0.23,6.045-3.533
				c-6.852-10.239-13.703-20.478-20.554-30.717C204.608,106.67,198.543,110.17,201.061,113.934L201.061,113.934z"/>
		</g>
	</g>
	<g>
		<g>
			<path style="fill:#FFFFFF;" d="M247.329,232.881c0.291,4.304,0.581,8.606,0.872,12.91c0.303,4.479,7.305,4.508,7,0
				c-0.291-4.304-0.581-8.606-0.872-12.91C254.026,228.402,247.024,228.373,247.329,232.881L247.329,232.881z"/>
		</g>
	</g>
	<g>
		<g>
			<path style="fill:#FFFFFF;" d="M255.221,278.569c-0.128-7.031-0.257-14.062-0.385-21.093c-0.082-4.509-7.082-4.517-7,0
				c0.128,7.031,0.257,14.062,0.385,21.093C248.303,283.078,255.303,283.086,255.221,278.569L255.221,278.569z"/>
		</g>
	</g>
	<g>
		<g>
			<path style="fill:#FFFFFF;" d="M239.092,192.577c1.646,9.16,3.294,18.32,4.94,27.48c0.798,4.438,7.543,2.552,6.75-1.861
				c-1.646-9.16-3.294-18.32-4.94-27.48C245.044,186.278,238.299,188.164,239.092,192.577L239.092,192.577z"/>
		</g>
	</g>
	<g>
		<g>
			<path style="fill:#FFFFFF;" d="M245.301,163.126c2.466,6.861,4.931,13.723,7.396,20.584c1.515,4.215,8.28,2.397,6.75-1.861
				c-2.466-6.861-4.931-13.723-7.396-20.584C250.536,157.05,243.771,158.867,245.301,163.126L245.301,163.126z"/>
		</g>
	</g>
	<g>
		<g>
			<path style="fill:#FFFFFF;" d="M216.921,113.934c7.583,12.161,15.166,24.322,22.748,36.484c2.383,3.82,8.44,0.309,6.045-3.533
				c-7.583-12.161-15.166-24.323-22.748-36.484C220.583,106.58,214.525,110.091,216.921,113.934L216.921,113.934z"/>
		</g>
	</g>
	<g>
		<g>
			<path style="fill:#FFFFFF;" d="M261.432,224.632c0.29,7.545,0.581,15.089,0.871,22.634c0.173,4.499,7.174,4.516,7,0
				c-0.29-7.545-0.581-15.089-0.871-22.634C268.259,220.133,261.258,220.116,261.432,224.632L261.432,224.632z"/>
		</g>
	</g>
	<g>
		<g>
			<path style="fill:#FFFFFF;" d="M270.918,282.156c-0.164-7.794-0.328-15.587-0.492-23.381c-0.095-4.508-7.095-4.517-7,0
				c0.164,7.794,0.328,15.587,0.492,23.381C264.013,286.664,271.013,286.673,270.918,282.156L270.918,282.156z"/>
		</g>
	</g>
	<g>
		<g>
			<path style="fill:#FFFFFF;" d="M255.203,196.858c1.069,4.924,2.139,9.848,3.208,14.771c0.958,4.41,7.706,2.539,6.75-1.861
				c-1.069-4.924-2.139-9.848-3.208-14.771C260.995,190.587,254.247,192.458,255.203,196.858L255.203,196.858z"/>
		</g>
	</g>
	<g>
		<g>
			<path style="fill:#FFFFFF;" d="M277.189,69.667c-11.108,0-22.218,0-33.326,0c-8.488,0-10.281,7.54-10.245,14.283
				c0.04,7.566,0.081,15.133,0.121,22.7c0.012,2.074,1.366,6.517-1.335,6.517c-3.943,0-7.886,0-11.829,0
				c-15.016,0-30.031,0-45.046,0c-13.719,0-27.438,0-41.158,0c-2.323,0-4.645,0-6.968,0c-0.36,0-0.099-14.707-0.093-15.756
				c0.031-5.843,0.063-11.686,0.094-17.529c0.056-10.489-10.598-10.215-18.035-10.215c-5.579,0-11.158,0-16.737,0
				c-8.128,0-16.079-0.335-20.645,7.9c-2.487,4.486-1.554,11.16-1.554,16.093c0,7.887,0,15.774,0,23.661
				c0,5.01-0.77,10.975,1.05,15.75c2.283,5.991,8.124,9.095,14.294,9.095c21.106,0,42.212,0,63.318,0c31.467,0,62.934,0,94.402,0
				c9.656,0,19.313,0,28.969,0c1.565,0,3.131,0,4.696,0c8.599,0,14.404-7.217,14.404-15.396c0-10.462,0-20.924,0-31.385
				c0-3.693,0-7.386,0-11.079C291.566,75.97,285.171,70.252,277.189,69.667c-6.437-0.472-6.392,9.531,0,10
				c6.144,0.451,4.377,9.837,4.377,13.994c0,7.887,0,15.774,0,23.661c0,3.844,1.675,12.846-2.998,14.627
				c-1.46,0.556-3.638,0.218-5.139,0.218c-24.032,0-48.065,0-72.098,0c-30.568,0-61.136,0-91.705,0c-7.772,0-15.544,0-23.316,0
				c-3.222,0-5.878-1.327-5.878-5.092c0-6.061,0-12.122,0-18.183c0-7.203,0-14.405,0-21.607c0-1.541-0.12-3.104,0.218-4.619
				c0.823-3.686,5.604-2.998,8.355-2.998c5.754,0,11.507,0,17.261,0c3.361,0,6.722,0,10.083,0c1.696,0,1.046,1.578,1.038,3.012
				c-0.04,7.434-0.079,14.868-0.119,22.301c-0.034,6.463-0.984,12.961,5.334,16.978c2.668,1.697,6.759,1.209,9.808,1.209
				c5.426,0,10.852,0,16.278,0c27.537,0,55.074,0,82.611,0c5.624,0,10.104-1.913,12.158-7.66c0.611-1.71,0.307-4.173,0.297-5.963
				c-0.02-3.714-0.04-7.428-0.06-11.142c-0.033-6.134-0.065-12.269-0.099-18.403c-0.004-0.676,12.438-0.331,13.993-0.331
				c6.533,0,13.066,0,19.6,0C283.638,79.667,283.638,69.667,277.189,69.667z"/>
		</g>
	</g>
	<g>
		<g>
			<path style="fill:#FFFFFF;" d="M158.671,284.384c-8.34-1.532-15.765-1.177-24.044,0.409c-6.527,1.251-13.071,3.108-19.741,3.286
				c-6.555,0.175-13.319-2.022-19.739-3.286c-8.261-1.625-15.726-1.938-24.046-0.409c-1.901,0.35-1.093,3.24,0.798,2.893
				c8.74-1.605,16.439-0.838,25.063,0.935c5.9,1.213,11.881,2.707,17.925,2.868c5.955,0.159,12.126-1.654,17.926-2.868
				c8.608-1.801,16.337-2.537,25.061-0.935C159.765,287.624,160.572,284.733,158.671,284.384L158.671,284.384z"/>
			<path style="fill:#FFFFFF;" d="M137.782,287.267c8.74-1.605,16.439-0.838,25.062,0.934c5.901,1.213,11.882,2.707,17.926,2.868
				c5.954,0.159,12.125-1.655,17.926-2.868c8.607-1.8,16.337-2.537,25.062-0.934c1.891,0.348,2.698-2.543,0.797-2.893
				c-8.339-1.533-15.765-1.177-24.045,0.409c-6.526,1.25-13.069,3.107-19.739,3.285c-6.555,0.175-13.319-2.022-19.74-3.285
				c-8.261-1.625-15.726-1.938-24.046-0.409C135.083,284.724,135.891,287.614,137.782,287.267L137.782,287.267z"/>
			<path style="fill:#FFFFFF;" d="M203.428,287.255c8.74-1.604,16.439-0.837,25.062,0.935c5.901,1.213,11.882,2.708,17.926,2.869
				c5.955,0.159,12.126-1.656,17.927-2.869c8.606-1.8,16.336-2.536,25.061-0.935c1.891,0.348,2.698-2.544,0.797-2.893
				c-8.339-1.531-15.764-1.176-24.044,0.41c-6.526,1.25-13.07,3.108-19.74,3.286c-6.555,0.175-13.319-2.023-19.74-3.286
				c-8.261-1.625-15.725-1.938-24.044-0.41C200.729,284.711,201.537,287.603,203.428,287.255L203.428,287.255z"/>
		</g>
	</g>
	<g>
		<g>
			<path style="fill:#FFFFFF;" d="M165.452,276.884c-9.081-1.548-17.25-1.137-26.26,0.481c-6.92,1.244-13.862,3.048-20.916,3.214
				c-6.958,0.164-14.084-1.956-20.915-3.214c-8.994-1.655-17.197-2.026-26.261-0.481c-1.904,0.324-1.094,3.215,0.798,2.893
				c9.452-1.61,17.898-0.824,27.237,0.965c6.307,1.207,12.701,2.687,19.141,2.838c6.358,0.149,12.927-1.629,19.142-2.838
				c9.325-1.815,17.798-2.573,27.236-0.965C166.546,280.099,167.356,277.208,165.452,276.884L165.452,276.884z"/>
			<path style="fill:#FFFFFF;" d="M142.931,279.767c9.451-1.611,17.898-0.824,27.236,0.964c6.307,1.207,12.702,2.687,19.142,2.838
				c6.357,0.149,12.926-1.629,19.14-2.838c9.325-1.814,17.799-2.572,27.237-0.964c1.892,0.322,2.701-2.568,0.797-2.893
				c-9.08-1.548-17.25-1.137-26.261,0.481c-6.919,1.242-13.86,3.047-20.913,3.213c-6.958,0.164-14.085-1.956-20.916-3.213
				c-8.993-1.655-17.197-2.026-26.26-0.481C140.229,277.198,141.039,280.089,142.931,279.767L142.931,279.767z"/>
			<path style="fill:#FFFFFF;" d="M213.705,279.755c7.769-1.323,14.766-1.208,22.501,0.1c4.926,0.832,9.807,1.893,14.738,2.694
				c13.438,2.185,25.635-2.09,38.856-3.593c1.899-0.216,1.921-3.219,0-3c-6.031,0.686-11.928,2.041-17.893,3.112
				c-8.317,1.495-15.332,1.453-23.648,0c-4.954-0.865-9.865-1.917-14.838-2.688c-6.944-1.076-13.596-0.697-20.514,0.481
				C211.004,277.187,211.813,280.077,213.705,279.755L213.705,279.755z"/>
		</g>
	</g>
	<g>
		<g>
			<path style="fill:#FFFFFF;" d="M71.5,269.479c4.613,0.041,9.242,0.521,13.803,1.194c1.892,0.28,2.706-2.61,0.798-2.893
				c-4.828-0.714-9.718-1.259-14.601-1.302C69.565,266.461,69.566,269.461,71.5,269.479L71.5,269.479z"/>
			<path style="fill:#FFFFFF;" d="M73.371,269.467c15.624,0.277,30.797,6.241,46.497,4.542c6.342-0.687,12.616-1.852,18.913-2.847
				c9.876-1.562,19.04-1.957,28.97-0.499c1.892,0.278,2.706-2.612,0.798-2.893c-8.874-1.303-17.207-1.392-26.074-0.17
				c-7.151,0.985-14.234,2.37-21.399,3.267c-16.139,2.02-31.65-4.116-47.704-4.4C71.435,266.433,71.438,269.433,73.371,269.467
				L73.371,269.467z"/>
		</g>
	</g>
	<g>
		<g>
			<path style="fill:#FFFFFF;" d="M275.283,272.628c4.884-1.433,9.473-1.496,14.518-1.196c1.934,0.115,1.922-2.886,0-3
				c-5.325-0.316-10.165-0.207-15.314,1.304C272.634,270.278,273.423,273.174,275.283,272.628L275.283,272.628z"/>
		</g>
	</g>
	<g>
		<g>
			<path style="fill:#FFFFFF;" d="M132.083,115.667c32.083,0,64.167,0,96.25,0c4.514,0,4.514-7,0-7c-32.083,0-64.167,0-96.25,0
				C127.569,108.667,127.569,115.667,132.083,115.667L132.083,115.667z"/>
		</g>
	</g>
</g>
<g id="Ebene_1">
</g>
</svg>
