<?xml version="1.0" encoding="iso-8859-1"?>
<!-- Generator: Adobe Illustrator 16.0.0, SVG Export Plug-In . SVG Version: 6.00 Build 0)  -->
<!DOCTYPE svg PUBLIC "-//W3C//DTD SVG 1.1//EN" "http://www.w3.org/Graphics/SVG/1.1/DTD/svg11.dtd">
<svg version="1.1" xmlns="http://www.w3.org/2000/svg" xmlns:xlink="http://www.w3.org/1999/xlink" x="0px" y="0px" width="361px"
	 height="361px" viewBox="0 0 361 361" style="enable-background:new 0 0 361 361;" xml:space="preserve">
<g id="scene_x5F_night">
	<g>
		<g>
			<g>
				<path style="fill:#FFFFFF;" d="M90.869,220.508c-20.669-36.791-7.88-83.569,28.528-104.838c5.563-3.25,0.533-11.895-5.047-8.635
					c-41.129,24.026-55.43,77.021-32.116,118.52C85.393,231.176,94.031,226.137,90.869,220.508L90.869,220.508z"/>
			</g>
		</g>
		<g>
			<g>
				<path style="fill:#FFFFFF;" d="M195.532,248.735c-36.791,20.668-83.569,7.881-104.838-28.528
					c-3.25-5.563-11.895-0.533-8.635,5.047c24.027,41.13,77.02,55.429,118.52,32.116C206.2,254.212,201.161,245.573,195.532,248.735
					L195.532,248.735z"/>
			</g>
		</g>
		<g>
			<g>
				<path style="fill:#FFFFFF;" d="M111.397,206.933c-8.332-14.849-10.957-32.839-10.377-49.66
					c0.514-14.936,4.494-33.457,18.34-41.704c5.534-3.295,0.507-11.942-5.047-8.635c-16.49,9.82-21.907,29.915-23.166,47.88
					c-1.344,19.186,2.135,40.271,11.615,57.165C105.918,217.603,114.557,212.563,111.397,206.933L111.397,206.933z"/>
			</g>
		</g>
		<g>
			<g>
				<path style="fill:#FFFFFF;" d="M195.532,248.735c-14.486,7.937-32.769,0.625-45.95-6.655
					c-15.003-8.287-29.465-20.391-38.203-35.313c-3.256-5.56-11.9-0.53-8.635,5.047c10.077,17.21,26.777,30.864,44.17,40.196
					c15.974,8.57,36.694,14.657,53.664,5.359C206.235,254.271,201.189,245.636,195.532,248.735L195.532,248.735z"/>
			</g>
		</g>
	</g>
	<path style="fill:#FFFFFF;stroke:#FFFFFF;stroke-miterlimit:10;" d="M161.333,136.917c0,1.519-1.231,2.75-2.75,2.75l0,0
		c-1.519,0-2.75-1.231-2.75-2.75l0,0c0-1.519,1.231-2.75,2.75-2.75l0,0C160.102,134.167,161.333,135.398,161.333,136.917
		L161.333,136.917z"/>
	<path style="fill:#FFFFFF;stroke:#FFFFFF;stroke-miterlimit:10;" d="M182.833,95.667c0,2.899-2.351,5.25-5.25,5.25l0,0
		c-2.899,0-5.25-2.351-5.25-5.25l0,0c0-2.899,2.351-5.25,5.25-5.25l0,0C180.482,90.417,182.833,92.768,182.833,95.667
		L182.833,95.667z"/>
	<path style="fill:#FFFFFF;stroke:#FFFFFF;stroke-miterlimit:10;" d="M205.75,139.762c0,2.525-2.047,4.572-4.572,4.572h-1.523
		c-2.524,0-4.571-2.047-4.571-4.572v-1.523c0-2.525,2.047-4.572,4.571-4.572h1.523c2.525,0,4.572,2.047,4.572,4.572V139.762z"/>
	<path style="fill:#FFFFFF;stroke:#FFFFFF;stroke-width:10;stroke-miterlimit:10;" d="M287.333,216.986
		c0,4.405-3.204,7.978-7.16,7.978h-55.487c-3.954,0-7.16-3.572-7.16-7.978v-57.841c0-4.406,3.206-7.978,7.16-7.978h55.487
		c3.956,0,7.16,3.572,7.16,7.978V216.986z"/>
	<path style="fill:#FFFFFF;stroke:#FFFFFF;stroke-width:10;stroke-miterlimit:10;" d="M182.289,197.041
		c0,4.405,3.572,7.978,7.979,7.978h37.23c4.406,0,7.979-3.572,7.979-7.978v-22.605c0-4.406-3.572-7.978-7.979-7.978h-37.23
		c-4.406,0-7.979,3.572-7.979,7.978V197.041z"/>
	<path style="fill:#FFFFFF;stroke:#FFFFFF;stroke-width:10;stroke-miterlimit:10;" d="M166.333,197.041
		c0-4.406,3.572-7.979,7.978-7.979h45.874c4.405,0,7.978,3.572,7.978,7.979v12.631c0,4.406-3.572,7.979-7.978,7.979h-45.874
		c-4.406,0-7.978-3.572-7.978-7.979V197.041z"/>
</g>
<g id="Ebene_1">
</g>
</svg>
