<?xml version="1.0" encoding="iso-8859-1"?>
<!-- Generator: Adobe Illustrator 16.0.3, SVG Export Plug-In . SVG Version: 6.00 Build 0)  -->
<!DOCTYPE svg PUBLIC "-//W3C//DTD SVG 1.1//EN" "http://www.w3.org/Graphics/SVG/1.1/DTD/svg11.dtd">
<svg version="1.1" xmlns="http://www.w3.org/2000/svg" xmlns:xlink="http://www.w3.org/1999/xlink" x="0px" y="0px" width="361px"
	 height="361px" viewBox="0 0 361 361" style="enable-background:new 0 0 361 361;" xml:space="preserve">
<g id="scene_x5F_coffee_x5F_maker_x5F_automatic">
	<g>
		<g>
			<path style="fill:none;stroke:#FFFFFF;stroke-width:10;stroke-miterlimit:10;" d="M256.414,271.2
				c0,2.333-1.893,4.225-4.227,4.225H109.479c-2.333,0-4.226-1.892-4.226-4.225V78.892c0-2.333,1.892-4.225,4.226-4.225h142.708
				c2.334,0,4.227,1.892,4.227,4.225V271.2z"/>
		</g>
	</g>
	<g>
		<g>
			<g>
				<path style="fill:#FFFFFF;" d="M179.784,185.12c2.921,3.856,2.09,7.201-0.466,10.853c-2.315,3.306-2.464,6.753-0.902,10.367
					c0.766,1.771,3.35,0.242,2.59-1.514c-2.034-4.707,1.729-7.786,3.406-11.776c1.337-3.18-0.083-6.862-2.038-9.443
					C181.222,182.085,178.615,183.577,179.784,185.12L179.784,185.12z"/>
			</g>
		</g>
		<g>
			<g>
				<path style="fill:#FFFFFF;" d="M188.74,187.648c2.537,3.348,1.808,6.213-0.411,9.379c-2.079,2.968-2.195,6.071-0.794,9.313
					c0.766,1.771,3.35,0.242,2.59-1.514c-1.742-4.031,1.573-6.796,3.02-10.235c1.194-2.84-0.065-6.15-1.814-8.456
					C190.178,184.614,187.57,186.105,188.74,187.648L188.74,187.648z"/>
			</g>
		</g>
		<g>
			<g>
				<path style="fill:#FFFFFF;" d="M170.334,187.648c2.536,3.348,1.808,6.214-0.411,9.379c-2.079,2.968-2.196,6.071-0.794,9.313
					c0.767,1.771,3.35,0.242,2.591-1.514c-1.744-4.03,1.573-6.797,3.019-10.235c1.194-2.84-0.065-6.149-1.813-8.456
					C171.773,184.613,169.166,186.105,170.334,187.648L170.334,187.648z"/>
			</g>
		</g>
	</g>
	<g>
		<g>
			<path style="fill:#FFFFFF;" d="M192.477,104.19c4.632,0,9.264,0,13.896,0c4.514,0,4.514-7,0-7c-4.632,0-9.264,0-13.896,0
				C187.963,97.19,187.963,104.19,192.477,104.19L192.477,104.19z"/>
		</g>
	</g>
	<g>
		<g>
			<path style="fill:#FFFFFF;" d="M222.582,109.375c-0.834,0-1.669,0-2.503,0c-1.908,0-3.5,1.592-3.5,3.5s1.592,3.5,3.5,3.5
				c0.834,0,1.669,0,2.503,0c1.908,0,3.5-1.592,3.5-3.5S224.49,109.375,222.582,109.375L222.582,109.375z"/>
		</g>
	</g>
	<g>
		<g>
			<path style="fill:#FFFFFF;" d="M220.021,104.19c0.748,0,1.495,0,2.243,0c1.908,0,3.5-1.592,3.5-3.5s-1.592-3.5-3.5-3.5
				c-0.748,0-1.495,0-2.243,0c-1.908,0-3.5,1.592-3.5,3.5S218.112,104.19,220.021,104.19L220.021,104.19z"/>
		</g>
	</g>
	<g>
		<g>
			<path style="fill:#FFFFFF;" d="M114.768,291.667c44.167,0,88.333,0,132.5,0c6.448,0,6.448-10,0-10c-44.166,0-88.333,0-132.5,0
				C108.319,281.667,108.319,291.667,114.768,291.667L114.768,291.667z"/>
		</g>
	</g>
	<g>
		<g>
			<path style="fill:#FFFFFF;" d="M219.518,156.167c-0.257,2.546-27.548,1-30.102,1c-14.095,0-28.189,0-42.284,0
				c-1.153,0-2.305,0-3.458,0c-1.817,0-1.156-3.632-1.156-4.699c0-1.955-1.295-14.801,1.275-14.801c11.579,0,23.158,0,34.737,0
				c12.125,0,24.249,0,36.373,0c2.65,0,4.614-0.649,4.614,2.578C219.518,145.552,219.518,150.86,219.518,156.167
				c0,6.449,10,6.449,10,0c0-5.742,0-11.484,0-17.226c0-7.106-5.732-11.274-12.352-11.274c-12.879,0-25.757,0-38.636,0
				c-11.579,0-23.158,0-34.737,0c-8.231,0-11.275,6.845-11.275,13.919c0,6.335-1.428,14.684,1.708,20.459
				c3.529,6.502,12.545,5.122,18.681,5.122c10.199,0,20.399,0,30.598,0c9.599,0,19.197,0,28.796,0c2.021,0,4.041,0,6.061,0
				c6.478,0,10.547-4.949,11.156-11C230.164,149.752,220.158,149.814,219.518,156.167z"/>
		</g>
	</g>
	<g>
		<g>
			<path style="fill:#FFFFFF;" d="M159.2,174.869c0.62,0.1,0.48,2.116,0.48,0.349c0-0.768,0-1.537,0-2.305c0-1.891,0-3.782,0-5.673
				c0-0.617,0-1.233,0-1.849c0-1.041-2.301,1.055-0.777,1.055c1.794,0,3.588,0,5.383,0c-1.514,0-1.333-2.376-1.333-0.474
				c0,0.768,0,1.537,0,2.305c0,2.047,0,4.093,0,6.14c0,0.525,0,1.05,0,1.575c0-1.053,2.379-1.249,0.341-1.249
				c-1.675,0-3.35,0-5.025,0c-4.514,0-4.514,7,0,7c2.308,0,4.741,0.242,7.025-0.125c3.513-0.565,4.659-3.639,4.659-6.777
				c0-4.621,1.824-14.228-4.659-15.271c-2.284-0.368-4.717-0.125-7.025-0.125c-3.727,0-5.589,3.201-5.589,6.526
				c0,4.663-1.892,14.592,4.659,15.646C161.753,182.33,163.647,175.585,159.2,174.869z"/>
		</g>
	</g>
	<g>
		<g>
			<path style="fill:#FFFFFF;" d="M197.853,174.869c0.62,0.1,0.48,2.116,0.48,0.349c0-0.768,0-1.537,0-2.305
				c0-1.891,0-3.782,0-5.673c0-0.617,0-1.233,0-1.849c0-1.041-2.302,1.055-0.777,1.055c1.795,0,3.589,0,5.383,0
				c-1.514,0-1.332-2.376-1.332-0.474c0,0.768,0,1.537,0,2.305c0,2.047,0,4.093,0,6.14c0,0.525,0,1.05,0,1.575
				c0-1.053,2.379-1.249,0.341-1.249c-1.675,0-3.351,0-5.025,0c-4.514,0-4.514,7,0,7c2.308,0,4.741,0.242,7.025-0.125
				c3.513-0.565,4.659-3.639,4.659-6.777c0-4.621,1.823-14.228-4.659-15.271c-2.284-0.368-4.718-0.125-7.025-0.125
				c-3.727,0-5.589,3.201-5.589,6.526c0,4.662-1.892,14.592,4.658,15.646C200.406,182.33,202.3,175.585,197.853,174.869z"/>
		</g>
	</g>
	<g>
		<g>
			<path style="fill:#FFFFFF;" d="M145.365,276.667c23.645,0,47.29,0,70.936,0c6.448,0,6.448-10,0-10c-23.646,0-47.291,0-70.936,0
				C138.917,266.667,138.917,276.667,145.365,276.667L145.365,276.667z"/>
		</g>
	</g>
	<g>
		<g>
			<g>
				<path style="fill:#FFFFFF;" d="M196.205,249.046c-0.469,8.709-10.487,7-16.504,7c-5.489,0-15.013,1.902-18.54-3.467
					c-1.225-1.865-0.99-4.522-1.064-6.677c-0.119-3.456-0.238-6.912-0.357-10.368c-0.175-5.08-1.457-11.368-0.436-16.394
					c-0.248,1.223-1.148,0.782,0.845,0.729c1.157-0.031,2.327,0.063,3.482,0.113c1.132,0.049,2.264,0.063,3.397,0.063
					c3.062,0,6.123,0,9.185,0c6.318,0,12.634,0.077,18.948-0.16c0.865-0.032,1.769-0.075,2.623,0.092
					c-1.114-0.218-0.51-1.929-0.581,0.112c-0.021,0.642-0.044,1.283-0.066,1.925c-0.109,3.194-0.22,6.389-0.33,9.584
					C196.606,237.414,196.405,243.23,196.205,249.046c-0.223,6.452,9.778,6.431,10,0c0.2-5.815,0.401-11.632,0.602-17.447
					c0.18-5.196,1.808-13.21-1.353-17.805c-4.076-5.927-13.522-3.748-19.775-3.748c-6.473,0-12.946,0-19.418,0
					c-7.829,0-17.411-0.321-17.042,10.386c0.229,6.633,0.458,13.266,0.687,19.899c0.229,6.64-0.383,13.858,4.08,19.338
					c5.453,6.693,13.012,6.377,20.772,6.377c4.816,0,9.632,0,14.447,0c9.608,0,16.504-7.781,17-17
					C206.552,242.599,196.551,242.633,196.205,249.046z"/>
			</g>
		</g>
		<g>
			<g>
				<path style="fill:#FFFFFF;" d="M149.831,245.707c-9.324-0.502-9.324-14.998,0-15.5c6.413-0.346,6.447-10.348,0-10
					c-22.225,1.197-22.226,34.303,0,35.5C156.277,256.054,156.244,246.053,149.831,245.707L149.831,245.707z"/>
			</g>
		</g>
	</g>
	<g>
		<g>
			<path style="fill:#FFFFFF;" d="M206.372,109.375c-4.632,0-9.264,0-13.896,0c-4.514,0-4.514,7,0,7c4.632,0,9.264,0,13.896,0
				C210.886,116.375,210.886,109.375,206.372,109.375L206.372,109.375z"/>
		</g>
	</g>
	<g>
		<g>
			<path style="fill:#FFFFFF;" d="M143.504,114.543c10.382,0,20.764,0,31.145,0c9.686,0,9.772-15.003,0.108-15.003
				c-10.382,0-20.764,0-31.145,0C133.926,99.541,133.84,114.543,143.504,114.543L143.504,114.543z"/>
		</g>
	</g>
</g>
<g id="Ebene_1">
</g>
</svg>
