<?xml version="1.0" encoding="iso-8859-1"?>
<!-- Generator: Adobe Illustrator 16.0.0, SVG Export Plug-In . SVG Version: 6.00 Build 0)  -->
<!DOCTYPE svg PUBLIC "-//W3C//DTD SVG 1.1//EN" "http://www.w3.org/Graphics/SVG/1.1/DTD/svg11.dtd">
<svg version="1.1" xmlns="http://www.w3.org/2000/svg" xmlns:xlink="http://www.w3.org/1999/xlink" x="0px" y="0px" width="361px"
	 height="361px" viewBox="0 0 361 361" style="enable-background:new 0 0 361 361;" xml:space="preserve">
<g id="scene_x5F_toilet_x5F_alternat">
	<g>
		<g>
			<path style="fill:#FFFFFF;" d="M250.749,215.381c-5.517,5.142-11.688,9.531-17.119,14.801
				c-5.176,5.022-10.656,12.34-11.796,19.673c-1.401,9.018,0.886,18.287-0.621,27.225c0.024-0.141-0.79,2.588-0.297,1.503
				c0.612-1.347,5.646-1.613,2.598-1.589c-2.207,0.019-4.413,0.033-6.62,0.048c-6.12,0.04-12.24,0.068-18.361,0.09
				c-6.428,0.022-12.855,0.033-19.283,0.034c-3.188,0-6.376-0.005-9.565-0.013c-1.536-0.003-3.072-0.009-4.608-0.015
				c-0.992-0.005-1.985-0.009-2.977-0.015c2.383,0.139,3.951,1.09,4.704,2.854c-1.912-5.98,1.039-15.431-0.7-22.606
				c-2.614-10.79-16.84-10.137-25.41-10.197c-3.298-0.023-6.598,0.044-9.895,0.158c-2.553,0.089,3.816,7.137,3.856,3.401
				c0.021-2.002,0.038-4.005,0.052-6.007c0.032-4.613,0.048-9.228-0.008-13.841c-0.01-0.856-0.031-1.713-0.056-2.569
				c0.113,3.967-5.163,4.159-3.102,4.059c2.41-0.116,4.849,0.104,7.26,0.138c4.781,0.066,10.152-0.454,13.851-3.805
				c3.432-3.108,4.338-8.014,4.363-12.436c0.052-9.284-3.774-18.63-7.315-27.037c-1.091-2.592-2.237-5.158-3.466-7.688
				c-0.16-0.33-0.783-1.735-0.177-0.149c-0.464-1.215-0.062-0.554-0.154,0.003c-0.084,0.508-1.985,0.982-0.587,0.96
				c23.673-0.378,47.382,0,71.057,0c13.53,0,27.06,0,40.589,0c0.762,0,2.38,0.425,1.239-0.098c-0.833-0.381-1.087-2.963-0.9-1.757
				c0.266,1.721-0.215-1.821-0.008-0.112c0.234,1.93,0.373,3.871,0.478,5.811C258.288,195.897,257.791,207.924,250.749,215.381
				c-6.626,7.018,4.005,17.605,10.666,10.551c12.138-12.854,12.903-32.892,10.345-49.489c-0.975-6.319-8.919-9.085-14.422-9.085
				c-4.015,0-8.029,0-12.045,0c-29.397,0-58.795,0-88.192,0c-10.238,0-25.279-1.533-26.073,12.84
				c-0.308,5.572,3.386,10.975,5.329,15.675c2.668,6.454,6.85,16.491,5.49,22.496c-0.301,1.328,2.316-1.159,0.347-0.959
				c-2.185,0.223-4.419,0.09-6.608,0.021c-5.296-0.167-10.591-0.147-13.959,4.659c-2.67,3.81-1.915,8.638-1.898,13.028
				c0.019,4.739-0.019,9.479-0.064,14.22c-0.041,4.359,0.691,8.467,4.621,11.117c3.236,2.184,6.57,1.854,10.22,1.775
				c4.271-0.094,8.545-0.081,12.814,0.112c1.683,0.075,3.508,0.218,4.6,0.42c1.618,0.3,0.444,0.458-0.305-1.51
				c0.688,1.809,0.049-0.882,0.166,0.879c0.467,7.04-0.854,13.944,0.357,20.98c1.804,10.471,12.575,9.036,20.586,9.052
				c10.596,0.02,21.192-0.008,31.788-0.053c4.493-0.02,8.985-0.044,13.478-0.074c4.012-0.026,8.382,0.491,11.966-1.662
				c6.79-4.079,6.642-14.208,6.546-21.087c-0.048-3.454-0.265-6.897-0.243-10.354c0.012-2.07,0.058-4.139,0.219-6.204
				c-0.079,1.011,1.031-2.741,0.212-0.955c5.088-11.099,15.535-17.276,24.727-25.843
				C268.492,219.335,257.821,208.79,250.749,215.381z"/>
		</g>
	</g>
	<g>
		<g>
			<path style="fill:#FFFFFF;" d="M139.667,164.814c42.705,0,85.409,0,128.113,0c9.686,0,9.771-15.003,0.107-15.003
				c-42.704,0-85.408,0-128.112,0C130.088,149.811,130.003,164.814,139.667,164.814L139.667,164.814z"/>
		</g>
	</g>
	<g>
		<g>
			<path style="fill:#FFFFFF;" d="M85.122,169.616c-0.656,13.18,4.778,23.668,17.394,28.33c12.228,4.518,27.03,2.412,39.764,2.365
				c9.684-0.036,9.773-15.039,0.108-15.004c-10.208,0.038-20.886,1.181-31-0.563c-9.025-1.557-11.721-5.797-11.262-15.019
				C100.607,160.035,85.6,159.996,85.122,169.616L85.122,169.616z"/>
		</g>
	</g>
	<g>
		<g>
			<path style="fill:#FFFFFF;" d="M106.385,160.565c-0.195,1.695-16.442,0.669-18.138,0.669c-2.865,0-8.415,1.604-8.415-2.222
				c0-12.688,0-25.376,0-38.064c0-12.915,0-25.829,0-38.743c0-3.7,3.085-2.538,6.238-2.538c7.608,0,15.216,0,22.824,0
				c0.685,0,5.338-0.653,5.49,0.669c0.391,3.396,0,7.067,0,10.481c0,2.339,0,4.679,0,7.018c0,1.024,0,2.047,0,3.071
				c0,1.272-0.677,2.78,0.355,1.59c-1.068,1.231-3.307,1.822-4.567,2.965c-1.844,1.671-2.977,3.729-3.522,6.147
				c-0.857,3.805-0.32,8.264-0.33,12.137c-0.013,5.37-0.007,10.74,0.002,16.11C106.335,146.759,106.355,153.662,106.385,160.565
				c0.028,6.447,10.028,6.45,10,0c-0.064-14.754-0.142-29.51-0.03-44.264c0.007-0.966-0.349-2.823,0.542-3.475
				c1.411-1.031,3.02-1.656,4.371-2.8c3.442-2.915,3.117-7.019,3.117-11.113c0-4.53,0-9.06,0-13.59
				c0-3.138,0.504-7.231-1.259-10.005c-4.147-6.523-10.752-5.653-17.437-5.653c-7.449,0-14.897,0-22.346,0
				c-6.748,0-13.51,2.874-13.51,10.815c0,3.585,0,7.17,0,10.754c0,21.979,0,43.958,0,65.936c0,2.757-0.28,5.989,1.259,8.41
				c3.559,5.597,8.669,5.652,14.526,5.652c5.949,0,11.897,0,17.847,0c7.041,0,12.069-3.27,12.921-10.669
				C117.123,154.166,107.114,154.237,106.385,160.565z"/>
		</g>
	</g>
</g>
<g id="Ebene_1">
</g>
</svg>
