<?xml version="1.0" encoding="iso-8859-1"?>
<!-- Generator: Adobe Illustrator 16.0.0, SVG Export Plug-In . SVG Version: 6.00 Build 0)  -->
<!DOCTYPE svg PUBLIC "-//W3C//DTD SVG 1.1//EN" "http://www.w3.org/Graphics/SVG/1.1/DTD/svg11.dtd">
<svg version="1.1" xmlns="http://www.w3.org/2000/svg" xmlns:xlink="http://www.w3.org/1999/xlink" x="0px" y="0px" width="361px"
	 height="361px" viewBox="0 0 361 361" style="enable-background:new 0 0 361 361;" xml:space="preserve">
<g id="scene_x5F_dressing_x5F_room">
	<g>
		<g>
			<path style="fill:#FFFFFF;" d="M203.268,183.674c5.324-4.228,5.694,5.563,5.846,8.319c0.24,4.383,0.472,8.767,0.695,13.15
				c0.236,4.644,0.461,9.287,0.643,13.933c0.091,2.341,1.258,7.287-0.715,8.35c0.752,0.432,1.505,0.863,2.257,1.295
				c-0.147-4.766-0.313-9.529-0.474-14.295c-0.08-2.377-0.921-8.32-0.378-9.719c-0.982-0.133-1.964-0.266-2.946-0.398
				c0.416,6.912,0.388,13.877,0.567,20.799c0.099,3.794,0.197,7.588,0.294,11.382c0.02,0.743,0.039,1.486,0.058,2.229
				c0.048,1.883,0.493,1.399-1.214,1.72c-0.871,0.163-1.742,0.327-2.613,0.49c-1.9,0.356-1.094,3.247,0.797,2.893
				c3.706-0.695,6.146-0.613,6.03-5.103c-0.083-3.256-0.167-6.513-0.252-9.769c-0.212-8.2-0.175-16.453-0.667-24.642
				c-0.105-1.753-2.338-1.963-2.946-0.398c-0.931,2.393,0.149,6.914,0.233,9.406c0.173,5.135,0.352,10.27,0.511,15.404
				c0.036,1.156,1.241,1.842,2.257,1.295c3.722-2.004,2.359-6.348,2.234-10.022c-0.237-6.982-0.624-13.96-0.991-20.936
				c-0.229-4.344-0.244-8.755-0.899-13.059c-0.89-5.833-5.987-7.988-10.447-4.446C199.632,182.756,201.77,184.863,203.268,183.674
				L203.268,183.674z"/>
		</g>
	</g>
	<g>
		<g>
			<path style="fill:#FFFFFF;" d="M212.184,192.674c-0.137-4.428-4.182-7.868-8.523-7.979c-1.936-0.049-1.931,2.951,0,3
				c2.673,0.068,5.438,2.219,5.523,4.979C209.243,194.604,212.243,194.609,212.184,192.674L212.184,192.674z"/>
		</g>
	</g>
	<g>
		<g>
			<path style="fill:#FFFFFF;" d="M285.273,280.704c-0.557,6.133-13.232,4.02-17.246,4.02c-11.962,0-23.924,0-35.886,0
				c-32.044,0-64.087,0-96.13,0c-18.376,0-36.753,0-55.129,0c-6.099,0-4.22-11.427-4.22-15.152c0-11.515,0-23.029,0-34.544
				c0-51.237,0-102.474,0-153.711c0-6.025,9.963-4.342,13.791-4.342c11.118,0,22.237,0,33.355,0c31.899,0,63.798,0,95.698,0
				c20.29,0,40.579,0,60.869,0c6.354,0,4.898,7.672,4.898,11.958c0,10.63,0,21.259,0,31.889c0,52.873,0,105.746,0,158.619
				C285.273,279.861,285.273,280.283,285.273,280.704c0,4.514,7,4.514,7,0c0-49.311,0-98.622,0-147.933c0-17.259,0-34.518,0-51.776
				c0-11.111-10.744-11.021-18.613-11.021c-10.472,0-20.943,0-31.415,0c-53.276,0-106.553,0-159.83,0
				c-8.205,0-12.753,5.455-12.753,13.322c0,8.177,0,16.355,0,24.532c0,30.63,0,61.261,0,91.892c0,25.009,0,50.018,0,75.026
				c0,7.666,0.881,16.977,11.22,16.977c5.643,0,11.286,0,16.929,0c56.739,0,113.477,0,170.216,0c9.453,0,23.048,2.178,24.246-11.02
				C292.682,276.207,285.678,276.247,285.273,280.704z"/>
		</g>
	</g>
	<g>
		<g>
			<path style="fill:#FFFFFF;" d="M105.032,73.475c0,48.348,0,96.695,0,145.043c0,23.235,0,46.471,0,69.706c0,4.514,7,4.514,7,0
				c0-48.348,0-96.695,0-145.042c0-23.236,0-46.471,0-69.707C112.032,68.96,105.032,68.96,105.032,73.475L105.032,73.475z"/>
		</g>
	</g>
	<g>
		<g>
			<path style="fill:#FFFFFF;" d="M219.965,73.475c0,48.348,0,96.695,0,145.043c0,23.235,0,46.471,0,69.706c0,4.514,7,4.514,7,0
				c0-48.348,0-96.695,0-145.042c0-23.236,0-46.471,0-69.707C226.965,68.96,219.965,68.96,219.965,73.475L219.965,73.475z"/>
		</g>
	</g>
	<g>
		<g>
			<path style="fill:#FFFFFF;" d="M108.532,160.359c38.311,0,76.623,0,114.933,0c4.514,0,4.514-7,0-7c-38.311,0-76.622,0-114.933,0
				C104.018,153.359,104.018,160.359,108.532,160.359L108.532,160.359z"/>
		</g>
	</g>
	<g>
		<g>
			<path style="fill:#FFFFFF;" d="M108.532,260.833c38.311,0,76.623,0,114.933,0c4.514,0,4.514-7,0-7c-38.311,0-76.622,0-114.933,0
				C104.018,253.833,104.018,260.833,108.532,260.833L108.532,260.833z"/>
		</g>
	</g>
	<g>
		<g>
			<path style="fill:#FFFFFF;" d="M74.532,242.879c11.333,0,22.667,0,34,0c4.514,0,4.514-7,0-7c-11.333,0-22.667,0-34,0
				C70.018,235.879,70.018,242.879,74.532,242.879L74.532,242.879z"/>
		</g>
	</g>
	<g>
		<g>
			<path style="fill:#FFFFFF;" d="M223.465,222.879c20.789,0,41.579,0,62.368,0c4.514,0,4.514-7,0-7c-20.789,0-41.579,0-62.368,0
				C218.951,215.879,218.951,222.879,223.465,222.879L223.465,222.879z"/>
		</g>
	</g>
	<g>
		<g>
			<path style="fill:#FFFFFF;" d="M108.532,173.886c38.311,0,76.623,0,114.933,0c1.935,0,1.935-3,0-3c-38.311,0-76.622,0-114.933,0
				C106.597,170.886,106.597,173.886,108.532,173.886L108.532,173.886z"/>
		</g>
	</g>
	<g>
		<g>
			<path style="fill:#FFFFFF;" d="M76.606,146.917c9.951,0,19.901,0,29.852,0c4.514,0,4.514-7,0-7c-9.951,0-19.901,0-29.852,0
				C72.092,139.917,72.092,146.917,76.606,146.917L76.606,146.917z"/>
		</g>
	</g>
	<g>
		<g>
			<path style="fill:#FFFFFF;" d="M76.606,108.294c9.951,0,19.901,0,29.852,0c4.514,0,4.514-7,0-7c-9.951,0-19.901,0-29.852,0
				C72.092,101.294,72.092,108.294,76.606,108.294L76.606,108.294z"/>
		</g>
	</g>
	<g>
		<g>
			<path style="fill:#FFFFFF;" d="M224.377,146.917c21.466,0,42.931,0,64.396,0c4.514,0,4.514-7,0-7c-21.466,0-42.931,0-64.396,0
				C219.863,139.917,219.863,146.917,224.377,146.917L224.377,146.917z"/>
		</g>
	</g>
	<g>
		<g>
			<path style="fill:#FFFFFF;" d="M224.377,108.294c21.466,0,42.931,0,64.396,0c4.514,0,4.514-7,0-7c-21.466,0-42.931,0-64.396,0
				C219.863,101.294,219.863,108.294,224.377,108.294L224.377,108.294z"/>
		</g>
	</g>
	<g>
		<g>
			<path style="fill:#FFFFFF;" d="M98.672,224.625c-0.292,2.808-7.231,1.561-9.083,1.561c-2.637,0-8.276,1.397-8.276-2.421
				c0-1.462,8.038-0.921,8.841-0.921C92.008,222.844,98.672,221.829,98.672,224.625c0,1.935,3,1.935,3,0
				c0-6.096-6.321-4.781-10.721-4.781c-3.475,0-12.638-1.537-12.638,3.921c0,6.602,5.618,5.421,10.474,5.421
				c4.741,0,12.218,1.852,12.886-4.561C101.872,222.701,98.87,222.721,98.672,224.625z"/>
		</g>
	</g>
	<g>
		<g>
			<path style="fill:#FFFFFF;" d="M81.873,216c0.292-2.811,7.228-1.563,9.083-1.563c2.638,0,8.276-1.398,8.276,2.422
				c0,1.462-8.039,0.921-8.841,0.921C88.537,217.78,81.873,218.795,81.873,216c0-1.935-3-1.935-3,0c0,6.095,6.322,4.78,10.72,4.78
				c3.475,0,12.639,1.536,12.639-3.921c0-6.603-5.617-5.422-10.474-5.422c-4.743,0-12.218-1.852-12.885,4.563
				C78.673,217.924,81.675,217.904,81.873,216z"/>
		</g>
	</g>
	<g>
		<g>
			<path style="fill:#FFFFFF;" d="M82.433,230.107c0.25-1.924,7.14-0.956,8.277-0.956c1.203,0,8.827-1.015,9.083,0.956
				c0.219,1.686-6.867,1.133-8.05,1.133C90.557,231.24,82.433,232.022,82.433,230.107c0-1.935-3-1.935-3,0
				c0,5.523,6.882,4.133,10.721,4.133c3.371,0,12.639,1.557,12.639-3.667c0-5.956-7.263-4.422-11.276-4.422
				c-4.144,0-11.353-1.671-12.083,3.956C79.185,232.022,82.188,231.998,82.433,230.107z"/>
		</g>
	</g>
	<g>
		<g>
			<path style="fill:#FFFFFF;" d="M81.873,208.75c0.25-1.926,7.138-0.957,8.276-0.957c1.204,0,8.827-1.016,9.083,0.957
				c0.219,1.686-6.867,1.133-8.05,1.133C89.997,209.883,81.873,210.665,81.873,208.75c0-1.935-3-1.935-3,0
				c0,5.523,6.882,4.133,10.72,4.133c3.371,0,12.639,1.556,12.639-3.667c0-5.957-7.262-4.423-11.276-4.423
				c-4.145,0-11.353-1.671-12.083,3.957C78.625,210.665,81.628,210.641,81.873,208.75z"/>
		</g>
	</g>
	<g>
		<g>
			<path style="fill:#FFFFFF;" d="M279.576,197.512c-0.428,4.832-6.022,3.849-9.214,3.849c-4.726,0-9.451,0-14.177,0
				s-9.451,0-14.177,0c-3.225,0-9.214,0.996-9.214-4.165c0-4.932,7.21-3.915,10.832-3.915c4.146,0,8.29,0,12.436,0
				c4.649,0,9.299,0,13.947,0C273.784,193.28,279.576,192.328,279.576,197.512c0,1.935,3,1.935,3,0c0-6.477-4.304-7.231-10.11-7.231
				c-5.136,0-10.272,0-15.408,0c-4.819,0-9.638,0-14.456,0s-12.807-0.319-12.807,6.218c0,5.514,3.194,7.862,8.466,7.862
				c5.646,0,11.293,0,16.939,0c6.024,0,12.049,0,18.073,0c4.942,0,8.811-1.281,9.303-6.849
				C282.747,195.584,279.745,195.601,279.576,197.512z"/>
		</g>
	</g>
	<g>
		<g>
			<path style="fill:#FFFFFF;" d="M234.166,182.445c0.427-4.832,6.021-3.848,9.212-3.848c4.726,0,9.451,0,14.177,0s9.451,0,14.177,0
				c3.225,0,9.214-0.997,9.214,4.165c0,4.932-7.21,3.914-10.832,3.914c-4.146,0-8.29,0-12.436,0c-4.648,0-9.298,0-13.946,0
				C239.957,186.676,234.166,187.629,234.166,182.445c0-1.935-3-1.935-3,0c0,6.477,4.303,7.23,10.109,7.23
				c5.136,0,10.271,0,15.408,0c4.818,0,9.637,0,14.455,0s12.807,0.32,12.807-6.217c0-5.515-3.193-7.862-8.466-7.862
				c-5.646,0-11.293,0-16.939,0c-6.024,0-12.049,0-18.073,0c-4.942,0-8.809,1.281-9.301,6.848
				C230.996,184.373,233.997,184.356,234.166,182.445z"/>
		</g>
	</g>
	<g>
		<g>
			<path style="fill:#FFFFFF;" d="M232.795,207.092c0.463-3.65,6.678-2.792,9.214-2.792c4.726,0,9.451,0,14.177,0s9.451,0,14.177,0
				c2.661,0,9.214-0.886,9.214,3.214c0,3.656-8.035,2.677-10.832,2.677c-4.146,0-8.29,0-12.436,0c-4.649,0-9.299,0-13.947,0
				C239.057,210.19,232.795,211.377,232.795,207.092c0-1.935-3-1.935-3,0c0,6.072,5.206,6.099,10.238,6.099
				c5.094,0,10.188,0,15.28,0c4.805,0,9.608,0,14.412,0c4.616,0,12.851,0.693,12.851-5.677c0-5.19-4.554-6.214-8.858-6.214
				c-5.516,0-11.031,0-16.547,0c-5.86,0-11.72,0-17.58,0c-4.533,0-9.113,0.408-9.796,5.792
				C229.552,209.008,232.555,208.984,232.795,207.092z"/>
		</g>
	</g>
	<g>
		<g>
			<path style="fill:#FFFFFF;" d="M232.795,169.78c0.463-3.65,6.678-2.792,9.214-2.792c4.726,0,9.451,0,14.177,0s9.451,0,14.177,0
				c2.661,0,9.214-0.886,9.214,3.214c0,3.657-8.035,2.678-10.832,2.678c-4.146,0-8.29,0-12.436,0c-4.649,0-9.299,0-13.947,0
				C239.057,172.88,232.795,174.066,232.795,169.78c0-1.935-3-1.935-3,0c0,6.072,5.206,6.1,10.238,6.1c5.094,0,10.188,0,15.28,0
				c4.805,0,9.608,0,14.412,0c4.616,0,12.851,0.692,12.851-5.678c0-5.19-4.554-6.214-8.858-6.214c-5.516,0-11.031,0-16.547,0
				c-5.86,0-11.72,0-17.58,0c-4.533,0-9.113,0.409-9.796,5.792C229.552,171.696,232.555,171.672,232.795,169.78z"/>
		</g>
	</g>
	<g>
		<g>
			<path style="fill:#FFFFFF;" d="M186.881,274.799c-0.493,5.509-6.955,4.326-10.813,4.326c-1.66,0-3.201,0.158-4.778-0.591
				c-2.428-1.152-2.143-4.063-2.143-6.241c0-5.508,7.276-4.326,10.812-4.326c1.661,0,3.202-0.158,4.779,0.591
				C187.166,269.71,186.881,272.62,186.881,274.799c0,1.935,3,1.935,3,0c0-6.848-3.186-9.832-9.921-9.832
				c-5.994,0-13.107-0.535-13.812,7.326c-0.617,6.877,3.614,9.832,9.921,9.832c5.994,0,13.108,0.536,13.813-7.326
				C190.054,272.871,187.052,272.888,186.881,274.799z"/>
		</g>
	</g>
	<g>
		<g>
			<path style="fill:#FFFFFF;" d="M211.771,274.799c-0.493,5.509-6.955,4.326-10.813,4.326c-1.66,0-3.201,0.158-4.778-0.591
				c-2.428-1.152-2.143-4.063-2.143-6.241c0-5.508,7.275-4.326,10.812-4.326c1.66,0,3.202-0.158,4.779,0.591
				C212.057,269.71,211.771,272.62,211.771,274.799c0,1.935,3,1.935,3,0c0-6.848-3.186-9.832-9.922-9.832
				c-5.993,0-13.106-0.535-13.812,7.326c-0.616,6.877,3.613,9.832,9.921,9.832c5.994,0,13.108,0.536,13.813-7.326
				C214.944,272.871,211.942,272.888,211.771,274.799z"/>
		</g>
	</g>
	<g>
		<g>
			<path style="fill:#FFFFFF;" d="M159.149,143.651c-0.577,2.755-4.642,3.159-6.944,3.979c-4.185,1.492-8.679,1.949-13.086,2.141
				c-6.55,0.286-13.177-0.86-18.743-3.701c-4.368-2.229,0.325-5.592,2.512-6.194c0.542-0.149,1.092-0.462,1.617-0.657
				c4.994-1.859,10.434-2.279,15.714-2.292c2.915-0.007,18.875,1.488,18.875,7.123c0,1.935,3,1.935,3,0
				c0-8.376-16.396-9.957-21.875-10.123c-5.966-0.181-24.438,0.648-24.438,9.768c0,1.714,0.779,3.29,2.177,4.308
				c1.286,0.937,3.4,1.323,3.884,1.684c3.278,2.446,8.124,2.738,12.025,3.019c6.657,0.479,13.938-0.169,20.216-2.582
				c3.106-1.193,7.121-1.68,7.958-5.675C162.437,142.562,159.545,141.758,159.149,143.651z"/>
		</g>
	</g>
	<g>
		<g>
			<path style="fill:#FFFFFF;" d="M159.149,127.917c-1.069,3.965-15.401,5.025-18.286,5.21c-4.955,0.318-10.149,0.139-14.957-1.18
				c-1.619-0.444-2.275-1.234-3.417-1.378c-8.175-1.03-1.528-4.95,0.757-5.922c0.163-0.069,1.457-0.49,1.962-0.643
				c4.847-1.471,9.978-1.794,15.012-1.805c2.166-0.005,18.875,1.136,18.875,6.116c0,1.935,3,1.935,3,0
				c0-7.375-15.345-8.8-20.159-9.071c-6.35-0.356-13.228,0.294-19.259,2.431c-3.14,1.113-6.895,1.811-6.895,6.035
				c0,4.421,4.003,4.4,6.236,5.85c3.701,2.405,9.186,2.469,13.39,2.634c6.187,0.243,12.779-0.343,18.677-2.344
				c3.07-1.042,6.948-1.388,7.958-5.136C162.546,126.844,159.652,126.051,159.149,127.917z"/>
		</g>
	</g>
	<g>
		<g>
			<g>
				<path style="fill:#FFFFFF;" d="M139.23,181.167c0.641,0.182,0.2-0.212,0.063-0.791c-0.233-0.992-0.278-2.033-0.348-3.046
					c-0.143-2.061-0.117-4.139-0.024-6.201c-1,0-2,0-3,0c0,0.208,0,0.417,0,0.625c0,1.944,2.905,1.921,3,0
					c0.02-0.405,0.001-2.694,0.758-2.897c-0.633-0.482-1.266-0.964-1.899-1.446c0,0.012,0,0.025,0,0.037
					c0,0.687,0.461,1.243,1.101,1.446c0.838,0.266,0.676,3.304,0.625,4.013c-0.14,1.931,2.861,1.918,3,0
					c0.167-2.32-0.188-6.068-2.827-6.906c0.367,0.482,0.734,0.964,1.101,1.446c0-0.012,0-0.025,0-0.037
					c0-0.979-0.957-1.699-1.899-1.446c-2.475,0.665-2.853,3.608-2.96,5.79c1,0,2,0,3,0c0-0.208,0-0.417,0-0.625
					c0-1.943-2.914-1.923-3,0c-0.122,2.717-1.222,11.873,2.511,12.931C140.298,184.588,141.088,181.693,139.23,181.167
					L139.23,181.167z"/>
			</g>
		</g>
		<g>
			<g>
				<path style="fill:#FFFFFF;" d="M137.287,184.711c-0.081,0.354-0.777,0.828-0.581,0.775c0.306-0.082,0.135-0.04,0.369-0.065
					c0.458-0.05,0.919-0.059,1.379-0.062s0.92,0.021,1.379,0.062c0.545,0.049-0.227-0.049,0.238,0.036
					c0.083,0.017,0.166,0.037,0.248,0.061c-0.347-0.132-0.579-0.4-0.698-0.807c0.433,1.886,3.325,1.086,2.893-0.797
					c-0.373-1.627-2.788-1.547-4.06-1.555c-1.269-0.008-3.689-0.061-4.06,1.555C133.961,185.797,136.854,186.597,137.287,184.711
					L137.287,184.711z"/>
			</g>
		</g>
	</g>
	<g>
		<g>
			<g>
				<path style="fill:#FFFFFF;" d="M126.577,181.167c0.64,0.182,0.199-0.212,0.063-0.791c-0.233-0.992-0.277-2.033-0.348-3.046
					c-0.143-2.061-0.116-4.139-0.024-6.201c-1,0-2,0-3,0c0,0.208,0,0.417,0,0.625c0,1.944,2.905,1.921,3,0
					c0.02-0.404,0.001-2.694,0.757-2.897c-0.633-0.482-1.266-0.964-1.899-1.446c0,0.012,0,0.025,0,0.037
					c0,0.687,0.461,1.244,1.101,1.446c0.839,0.267,0.678,3.303,0.626,4.013c-0.139,1.931,2.862,1.918,3,0
					c0.167-2.321-0.189-6.068-2.829-6.906c0.367,0.482,0.734,0.964,1.101,1.446c0-0.012,0-0.025,0-0.037
					c0-0.979-0.957-1.7-1.899-1.446c-2.475,0.665-2.852,3.608-2.959,5.79c1,0,2,0,3,0c0-0.208,0-0.417,0-0.625
					c0-1.943-2.914-1.923-3,0c-0.122,2.717-1.223,11.873,2.511,12.931C127.644,184.588,128.435,181.693,126.577,181.167
					L126.577,181.167z"/>
			</g>
		</g>
		<g>
			<g>
				<path style="fill:#FFFFFF;" d="M124.632,184.711c-0.081,0.354-0.777,0.828-0.581,0.775c0.306-0.082,0.135-0.04,0.369-0.065
					c0.458-0.05,0.919-0.059,1.379-0.062c0.46-0.003,0.92,0.021,1.379,0.062c0.545,0.049-0.227-0.049,0.238,0.036
					c0.083,0.017,0.166,0.037,0.248,0.061c-0.347-0.132-0.579-0.4-0.698-0.807c0.433,1.886,3.325,1.086,2.893-0.797
					c-0.373-1.627-2.788-1.547-4.06-1.555c-1.269-0.008-3.689-0.061-4.06,1.555C121.307,185.797,124.2,186.597,124.632,184.711
					L124.632,184.711z"/>
			</g>
		</g>
	</g>
	<g>
		<g>
			<g>
				<path style="fill:#FFFFFF;" d="M118.526,181.167c0.64,0.182,0.199-0.212,0.063-0.791c-0.233-0.992-0.277-2.033-0.348-3.046
					c-0.143-2.061-0.116-4.139-0.024-6.201c-1,0-2,0-3,0c0,0.208,0,0.417,0,0.625c0,1.944,2.905,1.921,3,0
					c0.02-0.404,0.001-2.694,0.757-2.897c-0.633-0.482-1.266-0.964-1.899-1.446c0,0.012,0,0.025,0,0.037
					c0,0.687,0.461,1.244,1.101,1.446c0.84,0.267,0.677,3.303,0.626,4.013c-0.14,1.931,2.861,1.918,3,0
					c0.168-2.321-0.188-6.068-2.828-6.906c0.367,0.482,0.734,0.964,1.101,1.446c0-0.012,0-0.025,0-0.037
					c0-0.979-0.957-1.7-1.899-1.446c-2.474,0.666-2.852,3.608-2.959,5.79c1,0,2,0,3,0c0-0.208,0-0.417,0-0.625
					c0-1.943-2.914-1.923-3,0c-0.122,2.717-1.223,11.873,2.511,12.931C119.594,184.588,120.385,181.693,118.526,181.167
					L118.526,181.167z"/>
			</g>
		</g>
		<g>
			<g>
				<path style="fill:#FFFFFF;" d="M116.583,184.711c-0.081,0.354-0.777,0.828-0.581,0.775c0.306-0.082,0.135-0.04,0.369-0.065
					c0.458-0.05,0.919-0.059,1.379-0.062s0.92,0.021,1.379,0.062c0.545,0.049-0.227-0.049,0.238,0.036
					c0.083,0.017,0.166,0.037,0.248,0.061c-0.347-0.132-0.579-0.4-0.698-0.807c0.433,1.886,3.325,1.086,2.893-0.797
					c-0.373-1.627-2.788-1.547-4.06-1.555c-1.269-0.008-3.689-0.061-4.06,1.555C113.257,185.797,116.15,186.597,116.583,184.711
					L116.583,184.711z"/>
			</g>
		</g>
	</g>
	<g>
		<g>
			<path style="fill:#FFFFFF;" d="M193.639,185.373c4.007-4.852,7.203,1.721,7.408,5.618c0.217,4.116,0.426,8.233,0.63,12.352
				c0.26,5.235,0.507,10.471,0.723,15.708c0.099,2.409,1.541,10.585-0.602,11.801c0.752,0.432,1.505,0.863,2.257,1.295
				c-0.251-8.575-0.697-17.157-0.8-25.736c-0.367,0.482-0.734,0.965-1.101,1.447c0.001-0.001,0.002-0.001,0.003-0.001
				c-0.634-0.482-1.267-0.965-1.899-1.446c0.4,7.066,0.376,14.18,0.551,21.254c0.103,4.13,0.203,8.26,0.304,12.39
				c0.021,0.88,0.043,1.759,0.064,2.638c0.05,2.04,0.557,1.537-1.214,1.887c-0.872,0.172-1.744,0.345-2.615,0.517
				c-1.897,0.374-1.092,3.266,0.797,2.893c3.908-0.771,6.144-0.733,6.029-5.403c-0.082-3.375-0.164-6.749-0.247-10.123
				c-0.213-8.671-0.179-17.391-0.669-26.051c-0.057-1.002-0.911-1.667-1.898-1.446c-0.001,0-0.002,0-0.003,0
				c-0.642,0.144-1.109,0.806-1.102,1.446c0.103,8.579,0.549,17.161,0.8,25.736c0.033,1.138,1.248,1.867,2.257,1.295
				c4.093-2.321,2.317-8.265,2.169-12.32c-0.273-7.472-0.658-14.939-1.035-22.406c-0.188-3.737,0.479-9.368-1.444-12.821
				c-2.833-5.085-7.096-7.955-11.483-2.642C190.296,184.731,192.405,186.866,193.639,185.373L193.639,185.373z"/>
		</g>
	</g>
	<g>
		<g>
			<g>
				<path style="fill:#FFFFFF;" d="M155.36,183.654c-2.143-2.735-5.121-2.219-7.516-0.054c-1.513,1.367-1.415,4.055-1.506,5.907
					c-0.388,7.844-0.771,15.688-1.146,23.532c-0.292,6.144-0.612,12.286-0.901,18.43c-0.165,3.49-2.487,13.084,2.069,14.826
					c0.652,0.25,1.339-0.171,1.694-0.689c0.959-1.398,0.702-4.16,0.808-5.745c0.286-4.258,0.433-8.526,0.591-12.791
					c0.169-4.565,0.31-9.133,0.458-13.699c0.057-1.761,0.116-3.522,0.183-5.282c0.021-0.557,0.046-1.113,0.074-1.669
					c0.068-1.344,0.26-0.018-0.654,0.377c-0.735-0.299-1.469-0.598-2.204-0.896c0.256,1.237-0.142,5.336-0.199,7.34
					c-0.148,5.193-0.315,10.386-0.482,15.579c-0.171,5.309-2.262,14.707,6.107,13.428c1.907-0.291,1.094-3.182-0.798-2.893
					c-3.545,0.542-2.541-3.443-2.467-5.698c0.128-3.892,0.253-7.783,0.375-11.676c0.164-5.229,1.427-11.711,0.356-16.878
					c-0.216-1.041-1.377-1.253-2.203-0.896c-1.242,0.535-0.888,3.412-0.927,4.413c-0.163,4.229-0.28,8.461-0.42,12.691
					c-0.164,4.94-0.339,9.88-0.581,14.816c-0.091,1.872,0.175,6.821-0.609,7.966c0.565-0.23,1.129-0.46,1.694-0.689
					c-1.222-0.467,0.118-11.625,0.181-12.953c0.195-4.147,0.43-8.293,0.62-12.441c0.304-6.637,0.631-13.273,0.956-19.91
					c0.125-2.544,0.25-5.088,0.375-7.633c0.025-0.521,0.051-1.041,0.077-1.563c0.028-0.561,0.569-7.342,3.871-3.128
					C154.431,187.298,156.539,185.158,155.36,183.654L155.36,183.654z"/>
			</g>
		</g>
		<g>
			<g>
				<path style="fill:#FFFFFF;" d="M150.918,185.777c3.276-4.188,3.834,2.411,3.861,2.97c0.029,0.573,0.057,1.146,0.085,1.719
					c0.125,2.545,0.25,5.089,0.375,7.633c0.326,6.637,0.649,13.273,0.958,19.91c0.192,4.148,0.42,8.294,0.62,12.441
					c0.063,1.327,1.401,12.487,0.18,12.953c0.565,0.229,1.129,0.459,1.694,0.689c-0.68-0.992-0.478-5.466-0.568-7.161
					c-0.261-4.887-0.424-9.778-0.59-14.669c-0.147-4.357-0.275-8.715-0.431-13.071c-0.038-1.05,0.377-4.41-0.948-4.985
					c-0.826-0.358-1.988-0.144-2.203,0.896c-1.071,5.167,0.193,11.649,0.357,16.878c0.122,3.893,0.248,7.784,0.375,11.676
					c0.074,2.255,1.079,6.24-2.467,5.698c-1.892-0.289-2.705,2.602-0.798,2.893c8.369,1.279,6.279-8.12,6.107-13.428
					c-0.158-4.895-0.313-9.789-0.457-14.685c-0.067-2.278-0.538-6.727-0.225-8.234c-0.734,0.299-1.469,0.598-2.204,0.896
					c-1.16-0.504-0.692-1.367-0.6,0.805c0.071,1.664,0.123,3.329,0.177,4.994c0.149,4.504,0.288,9.009,0.449,13.514
					c0.155,4.356,0.324,8.715,0.582,13.067c0.104,1.74-0.204,4.891,0.852,6.43c0.355,0.519,1.042,0.938,1.694,0.689
					c4.402-1.682,2.269-10.41,2.117-13.803c-0.275-6.128-0.608-12.252-0.897-18.379c-0.381-8.057-0.778-16.113-1.176-24.169
					c-0.1-2.021-0.009-4.357-1.292-6.04c-2.063-2.704-5.68-2.895-7.75-0.249C147.62,185.161,149.728,187.3,150.918,185.777
					L150.918,185.777z"/>
			</g>
		</g>
	</g>
	<g>
		<g>
			<g>
				<path style="fill:#FFFFFF;" d="M207.564,181.167c0.641,0.182,0.2-0.212,0.063-0.791c-0.232-0.992-0.277-2.033-0.348-3.046
					c-0.144-2.061-0.117-4.139-0.025-6.201c-1,0-2,0-3,0c0,0.208,0,0.417,0,0.625c0,1.944,2.905,1.921,3,0
					c0.02-0.405,0.001-2.694,0.758-2.897c-0.633-0.482-1.266-0.964-1.898-1.446c0,0.012,0,0.025,0,0.037
					c0,0.687,0.462,1.243,1.102,1.446c0.839,0.267,0.677,3.303,0.626,4.013c-0.139,1.931,2.862,1.918,3,0
					c0.167-2.321-0.189-6.068-2.829-6.906c0.367,0.482,0.734,0.964,1.102,1.446c0-0.012,0-0.025,0-0.037
					c0-0.979-0.957-1.7-1.898-1.446c-2.476,0.665-2.854,3.608-2.961,5.79c1,0,2,0,3,0c0-0.208,0-0.417,0-0.625
					c0-1.943-2.914-1.923-3,0c-0.121,2.717-1.221,11.873,2.513,12.931C208.633,184.588,209.423,181.693,207.564,181.167
					L207.564,181.167z"/>
			</g>
		</g>
	</g>
	<g>
		<g>
			<path style="fill:#FFFFFF;" d="M175.887,184.528c0.951-1.372,3.913-0.535,5.157-0.21c1.802,0.471,1.529,2.498,1.582,3.93
				c0.075,2.056,0.15,4.111,0.226,6.167c0.257,7.027,0.513,14.056,0.758,21.083c0.155,4.43,0.33,8.858,0.49,13.288
				c0.059,1.605,1.593,13.343,0.095,14.114c0.684,0.179,1.368,0.358,2.052,0.538c-0.555-1.085-0.3-5.392-0.37-7.16
				c-0.194-4.888-0.315-9.779-0.438-14.669c-0.11-4.357-0.205-8.715-0.32-13.072c-0.033-1.224,0.426-4.214-0.896-4.985
				c-0.763-0.445-2.053-0.08-2.203,0.896c-0.778,5.048,0.11,10.783,0.228,15.865c0.026,1.154,1.388,18.757-1.046,18.387
				c-1.892-0.288-2.705,2.603-0.798,2.893c7.271,1.107,5.135-9.052,5.029-13.428c-0.118-4.895-0.232-9.789-0.34-14.685
				c-0.051-2.336-0.423-6.664-0.181-8.234c-0.734,0.299-1.469,0.598-2.203,0.896c-1.229-0.718-0.701-1.22-0.637,0.805
				c0.053,1.665,0.091,3.33,0.132,4.994c0.11,4.505,0.214,9.01,0.333,13.514c0.115,4.357,0.241,8.714,0.434,13.067
				c0.084,1.897-0.213,4.672,0.687,6.43c0.386,0.756,1.358,0.896,2.052,0.538c1.587-0.816,1.742-2.655,1.741-4.229
				c-0.001-3.821-0.18-7.647-0.313-11.466c-0.242-6.933-0.509-13.865-0.756-20.798c-0.25-6.987-0.505-13.974-0.762-20.96
				c-0.121-3.302-0.591-5.382-3.776-6.613c-2.728-1.053-6.766-0.977-8.545,1.59C172.191,184.608,174.793,186.106,175.887,184.528
				L175.887,184.528z"/>
		</g>
	</g>
	<g>
		<g>
			<path style="fill:#FFFFFF;" d="M187.766,184.207c1.121-2.029,1.916,3.77,1.951,4.854c0.082,2.553,0.165,5.106,0.246,7.659
				c0.231,7.192,0.461,14.385,0.683,21.577c0.138,4.473,0.5,8.852,0.931,13.306c0.18,1.86,2.548,14.434,1.038,15.317
				c0.684,0.179,1.368,0.358,2.052,0.538c-0.516-1.063-0.43-5.056-0.551-6.805c-0.332-4.774-0.598-9.554-0.866-14.332
				c-0.259-4.588-0.505-9.175-0.772-13.762c-0.11-1.889,0.138-4.367-0.479-6.191c-0.359-1.061-1.667-1.482-2.507-0.661
				c-0.961,0.938-0.458,3.459-0.44,4.595c0.072,4.658,0.171,9.316,0.266,13.975c0.093,4.545,0.188,9.089,0.286,13.634
				c0.028,1.354,0.058,2.708,0.087,4.063c0.004,0.192,0.009,0.384,0.013,0.576c1.158,1.139,1.168,1.638,0.026,1.497
				c-0.959,0.074-1.89-0.076-2.792-0.451c-1.839-0.617-2.621,2.28-0.797,2.893c4.225,1.418,6.659,0.516,6.56-4.086
				c-0.075-3.426-0.147-6.852-0.22-10.277c-0.116-5.5-0.229-11-0.334-16.501c-0.038-1.972-0.073-3.943-0.104-5.916
				c-0.009-0.616-0.017-1.233-0.023-1.851c-0.011-1.136,0.293-0.71-0.405-0.028c-0.836-0.221-1.672-0.441-2.507-0.662
				c0.477,1.409,0.343,4.883,0.455,6.829c0.274,4.746,0.528,9.492,0.797,14.238c0.263,4.629,0.531,9.258,0.861,13.882
				c0.147,2.066-0.074,4.937,0.858,6.856c0.356,0.735,1.388,0.927,2.052,0.538c1.579-0.924,1.737-2.781,1.643-4.419
				c-0.222-3.834-0.638-7.662-1.002-11.484c-0.625-6.564-1.051-13.01-1.257-19.603c-0.259-8.314-0.526-16.629-0.795-24.943
				c-0.07-2.163-0.008-4.451-0.994-6.43c-1.628-3.269-4.994-2.751-6.547,0.062C184.239,184.388,186.83,185.9,187.766,184.207
				L187.766,184.207z"/>
		</g>
	</g>
	<g>
		<g>
			<path style="fill:#FFFFFF;" d="M168.444,185.373c3.759-3.409,5.543,2.219,5.721,4.572c0.154,2.03,0.307,4.062,0.459,6.092
				c0.479,6.372,0.955,12.744,1.416,19.117c0.631,8.716,1.535,17.438,1.791,26.175c0.026,0.899,0.878,3.876,0.458,1.84
				c-0.319-1.543-0.419-3.144-0.562-4.71c-0.461-5.068-0.714-10.157-0.982-15.238c-0.246-4.676-0.454-9.354-0.709-14.028
				c-0.072-1.321,0.325-4.643-1.414-5.137c-0.809-0.229-1.6,0.274-1.845,1.048c-0.456,1.439-0.026,3.449,0.032,4.909
				c0.172,4.328,0.384,8.654,0.592,12.98c0.182,3.773,0.37,7.546,0.559,11.318c0.202,4.006,0.061,5.61-5.223,4.989
				c-1.919-0.226-1.897,2.777,0,3c4.278,0.503,7.913-0.356,8.377-4.938c0.277-2.731-0.293-5.808-0.429-8.542
				c-0.243-4.895-0.479-9.789-0.7-14.685c-0.099-2.188-0.825-6.628-0.316-8.234c-0.615,0.349-1.23,0.698-1.845,1.047
				c-1.232-0.35-1.063-1.784-0.938-0.183c0.063,0.809,0.104,1.618,0.15,2.427c0.142,2.509,0.258,5.02,0.382,7.53
				c0.305,6.194,0.612,12.391,1.057,18.577c0.215,2.989-0.108,7.519,1.44,10.235c0.956,1.677,2.915,0.393,3.888-0.479
				c1.311-1.176,1.057-2.77,1.009-4.391c-0.348-11.9-1.64-23.853-2.521-35.726c-0.401-5.398-0.807-10.796-1.216-16.193
				c-0.408-5.384-6.121-9.696-10.751-5.495C164.887,184.555,167.016,186.67,168.444,185.373L168.444,185.373z"/>
		</g>
	</g>
	<g>
		<g>
			<path style="fill:#FFFFFF;" d="M158.694,185.801c3.204-3.147,8.25-1.369,8.589,3.103c0.132,1.75,0.265,3.499,0.396,5.248
				c0.475,6.296,0.945,12.592,1.404,18.889c0.671,9.2,1.574,18.407,1.925,27.626c0.027,0.725,0.037,1.448,0.019,2.172
				c-0.008,0.336,0.85,1.986,0.531,0.681c-0.401-1.641-0.481-3.385-0.633-5.06c-0.461-5.068-0.714-10.157-0.982-15.238
				c-0.246-4.676-0.454-9.354-0.71-14.028c-0.072-1.32,0.325-4.644-1.415-5.137c-0.81-0.229-1.599,0.273-1.845,1.048
				c-0.457,1.438-0.026,3.449,0.032,4.909c0.173,4.328,0.385,8.654,0.593,12.98c0.182,3.773,0.369,7.546,0.559,11.318
				c0.202,4.006,0.06,5.61-5.223,4.989c-1.919-0.226-1.897,2.777,0,3c4.277,0.503,7.913-0.356,8.377-4.938
				c0.277-2.731-0.293-5.808-0.429-8.542c-0.243-4.895-0.479-9.789-0.701-14.685c-0.099-2.188-0.827-6.63-0.316-8.234
				c-0.615,0.349-1.23,0.698-1.845,1.047c-1.232-0.349-1.063-1.785-0.939-0.183c0.063,0.809,0.105,1.618,0.151,2.427
				c0.142,2.509,0.259,5.02,0.382,7.53c0.319,6.471,0.635,12.944,1.119,19.405c0.177,2.361-0.258,7.934,1.688,9.782
				c1.29,1.226,3.727-0.376,4.3-1.675c0.662-1.5,0.294-3.511,0.224-5.092c-0.565-12.573-1.782-25.159-2.719-37.71
				c-0.372-4.979,0.014-10.916-1.541-15.725c-1.77-5.474-9.598-5.482-13.112-2.029C155.191,185.037,157.313,187.157,158.694,185.801
				L158.694,185.801z"/>
		</g>
	</g>
	<g>
		<g>
			<path style="fill:#FFFFFF;" d="M198.524,181.167c0.641,0.182,0.2-0.212,0.063-0.791c-0.233-0.992-0.278-2.033-0.349-3.046
				c-0.144-2.061-0.117-4.139-0.024-6.201c-1,0-2,0-3,0c0,0.208,0,0.417,0,0.625c0,1.944,2.905,1.921,3,0
				c0.02-0.405,0.001-2.694,0.758-2.897c-0.633-0.482-1.266-0.964-1.898-1.446c0,0.012,0,0.025,0,0.037
				c0,0.687,0.462,1.243,1.102,1.446c0.839,0.267,0.677,3.303,0.625,4.013c-0.14,1.931,2.861,1.918,3,0
				c0.168-2.32-0.188-6.068-2.828-6.906c0.367,0.482,0.734,0.964,1.102,1.446c0-0.012,0-0.025,0-0.037
				c0-0.979-0.957-1.7-1.898-1.446c-2.476,0.665-2.854,3.608-2.961,5.79c1,0,2,0,3,0c0-0.208,0-0.417,0-0.625
				c0-1.943-2.914-1.923-3,0c-0.122,2.717-1.222,11.873,2.513,12.931C199.593,184.588,200.383,181.693,198.524,181.167
				L198.524,181.167z"/>
		</g>
	</g>
	<g>
		<g>
			<g>
				<path style="fill:#FFFFFF;" d="M187.592,181.167c0.641,0.181,0.199-0.212,0.063-0.791c-0.233-0.992-0.278-2.033-0.349-3.046
					c-0.144-2.061-0.117-4.139-0.025-6.201c-1,0-2,0-3,0c0,0.208,0,0.417,0,0.625c0,1.944,2.905,1.921,3,0
					c0.02-0.406,0.001-2.694,0.759-2.897c-0.633-0.482-1.266-0.964-1.898-1.446c0,0.012,0,0.025,0,0.037
					c0,0.687,0.462,1.243,1.102,1.446c0.838,0.266,0.677,3.304,0.626,4.013c-0.139,1.932,2.862,1.918,3,0
					c0.166-2.32-0.189-6.067-2.829-6.906c0.367,0.482,0.734,0.964,1.102,1.446c0-0.012,0-0.025,0-0.037
					c0-0.98-0.957-1.699-1.898-1.446c-2.476,0.665-2.854,3.607-2.962,5.79c1,0,2,0,3,0c0-0.208,0-0.417,0-0.625
					c0-1.943-2.914-1.923-3,0c-0.121,2.717-1.221,11.874,2.514,12.931C188.66,184.588,189.45,181.693,187.592,181.167
					L187.592,181.167z"/>
			</g>
		</g>
		<g>
			<g>
				<path style="fill:#FFFFFF;" d="M185.646,184.711c-0.081,0.354-0.776,0.828-0.581,0.775c0.306-0.082,0.136-0.04,0.369-0.065
					c0.458-0.05,0.92-0.059,1.38-0.062s0.92,0.021,1.379,0.062c0.545,0.049-0.227-0.049,0.238,0.036
					c0.083,0.017,0.166,0.037,0.247,0.061c-0.346-0.132-0.579-0.4-0.697-0.807c0.433,1.886,3.325,1.086,2.893-0.797
					c-0.373-1.627-2.788-1.547-4.06-1.555c-1.27-0.008-3.689-0.061-4.061,1.555C182.321,185.797,185.214,186.597,185.646,184.711
					L185.646,184.711z"/>
			</g>
		</g>
	</g>
	<g>
		<g>
			<g>
				<path style="fill:#FFFFFF;" d="M180.121,180.296c0.61,0.163,0.222-0.046,0.063-0.686c-0.231-0.926-0.279-1.901-0.349-2.849
					c-0.144-1.943-0.117-3.902-0.024-5.846c-1,0-2,0-3,0c0,0.197,0,0.393,0,0.59c0,1.946,2.9,1.92,3,0
					c0.022-0.429,0.004-2.458,0.759-2.649c-0.633-0.482-1.266-0.964-1.899-1.446c0,0.012,0,0.023,0,0.035
					c0,0.679,0.46,1.254,1.101,1.446c0.817,0.245,0.667,3.155,0.625,3.699c-0.148,1.93,2.853,1.916,3,0
					c0.174-2.264-0.255-5.822-2.827-6.591c0.367,0.482,0.734,0.964,1.101,1.446c0-0.012,0-0.023,0-0.035
					c0-0.99-0.956-1.685-1.898-1.446c-2.415,0.611-2.85,3.412-2.961,5.542c1,0,2,0,3,0c0-0.197,0-0.393,0-0.59
					c0-1.944-2.909-1.922-3,0c-0.125,2.626-1.138,11.299,2.513,12.273C181.195,183.688,181.988,180.794,180.121,180.296
					L180.121,180.296z"/>
			</g>
		</g>
	</g>
	<g>
		<g>
			<g>
				<path style="fill:#FFFFFF;" d="M170.703,181.167c0.64,0.181,0.199-0.212,0.063-0.791c-0.233-0.992-0.278-2.033-0.348-3.046
					c-0.143-2.061-0.116-4.139-0.024-6.201c-1,0-2,0-3,0c0,0.208,0,0.417,0,0.625c0,1.944,2.905,1.921,3,0
					c0.02-0.405,0.001-2.694,0.758-2.897c-0.633-0.482-1.266-0.964-1.899-1.446c0,0.012,0,0.025,0,0.037
					c0,0.687,0.461,1.243,1.101,1.446c0.839,0.267,0.676,3.303,0.625,4.013c-0.14,1.931,2.861,1.917,3,0
					c0.168-2.32-0.188-6.067-2.827-6.906c0.367,0.482,0.734,0.964,1.101,1.446c0-0.012,0-0.025,0-0.037
					c0-0.979-0.957-1.699-1.899-1.446c-2.475,0.665-2.853,3.608-2.96,5.79c1,0,2,0,3,0c0-0.208,0-0.417,0-0.625
					c0-1.943-2.914-1.923-3,0c-0.122,2.717-1.223,11.874,2.512,12.931C171.771,184.588,172.561,181.692,170.703,181.167
					L170.703,181.167z"/>
			</g>
		</g>
	</g>
	<g>
		<g>
			<g>
				<path style="fill:#FFFFFF;" d="M162.322,180.798c0.628,0.173,0.208-0.142,0.063-0.747c-0.232-0.964-0.278-1.977-0.349-2.962
					c-0.143-2.011-0.117-4.039-0.024-6.051c-1,0-2,0-3,0c0,0.204,0,0.408,0,0.611c0,1.945,2.903,1.921,3,0
					c0.021-0.413,0.002-2.594,0.758-2.792c-0.633-0.482-1.266-0.964-1.899-1.446c0,0.012,0,0.024,0,0.037
					c0,0.683,0.461,1.248,1.101,1.446c0.837,0.259,0.678,3.185,0.626,3.878c-0.143,1.931,2.858,1.917,3,0
					c0.169-2.293-0.218-5.963-2.829-6.771c0.367,0.482,0.734,0.964,1.101,1.446c0-0.012,0-0.024,0-0.037
					c0-0.984-0.957-1.693-1.899-1.446c-2.45,0.642-2.851,3.525-2.96,5.685c1,0,2,0,3,0c0-0.204,0-0.408,0-0.611
					c0-1.943-2.912-1.923-3,0c-0.123,2.678-1.187,11.631,2.512,12.653C163.392,184.207,164.184,181.313,162.322,180.798
					L162.322,180.798z"/>
			</g>
		</g>
	</g>
	<g>
		<g>
			<g>
				<path style="fill:#FFFFFF;" d="M152.463,181.167c0.64,0.181,0.199-0.212,0.063-0.791c-0.233-0.992-0.278-2.033-0.348-3.046
					c-0.144-2.061-0.117-4.139-0.025-6.201c-1,0-2,0-3,0c0,0.208,0,0.417,0,0.625c0,1.944,2.905,1.921,3,0
					c0.02-0.406,0-2.694,0.759-2.897c-0.633-0.482-1.266-0.964-1.899-1.446c0,0.012,0,0.025,0,0.037
					c0,0.687,0.461,1.243,1.101,1.446c0.839,0.267,0.676,3.304,0.625,4.013c-0.14,1.931,2.861,1.918,3,0
					c0.168-2.32-0.188-6.068-2.827-6.906c0.367,0.482,0.734,0.964,1.101,1.446c0-0.012,0-0.025,0-0.037
					c0-0.98-0.957-1.699-1.899-1.446c-2.476,0.665-2.854,3.608-2.961,5.79c1,0,2,0,3,0c0-0.208,0-0.417,0-0.625
					c0-1.943-2.914-1.923-3,0c-0.121,2.717-1.222,11.874,2.512,12.931C153.53,184.588,154.321,181.693,152.463,181.167
					L152.463,181.167z"/>
			</g>
		</g>
	</g>
	<g>
		<g>
			<path style="fill:#FFFFFF;" d="M213.147,145.313c-0.506,3.517-6.24,2.681-8.37,2.681c-3.936,0-7.87,0-11.806,0
				c-2.875,0-19.132,2.183-19.132-3.343c0-2.291,17.592-1.491,19.328-1.491c3.797,0,7.593,0,11.39,0
				c2.699,0,8.536-0.949,8.536,2.553c0,1.935,3,1.935,3,0c0-5.311-4.314-5.553-8.818-5.553c-4.378,0-8.756,0-13.134,0
				c-3.981,0-23.302-2.223-23.302,4.12c0,4.432,2.263,6.715,6.794,6.715c4.455,0,8.91,0,13.365,0c5.448,0,10.896,0,16.344,0
				c3.844,0,8.028-0.229,8.697-4.883C216.313,144.219,213.422,143.404,213.147,145.313z"/>
		</g>
	</g>
	<g>
		<g>
			<path style="fill:#FFFFFF;" d="M174.949,135.457c0.506-3.517,6.241-2.681,8.372-2.681c3.935,0,7.87,0,11.805,0
				c2.876,0,19.133-2.184,19.133,3.344c0,2.289-17.593,1.49-19.328,1.49c-3.797,0-7.593,0-11.39,0c-2.699,0-8.538,0.949-8.538-2.552
				c0-1.935-3-1.935-3,0c0,5.312,4.316,5.552,8.821,5.552c4.377,0,8.755,0,13.133,0c3.981,0,23.302,2.223,23.302-4.118
				c0-4.432-2.263-6.716-6.794-6.716c-4.455,0-8.91,0-13.365,0c-5.448,0-10.896,0-16.345,0c-3.844,0-8.028,0.229-8.698,4.883
				C171.784,136.551,174.674,137.366,174.949,135.457z"/>
		</g>
	</g>
	<g>
		<g>
			<path style="fill:#FFFFFF;" d="M174.949,126.501c0.665-3.71,16.794-1.933,19.186-1.933c6.027,0,12.81-0.901,18.774,0.246
				c4.892,0.94-1.261,2.844-1.494,2.873c-1.13,0.139-2.284,0.138-3.42,0.162c-0.992,0.021-1.986,0.005-2.979,0.005
				c-3.362,0-6.725,0-10.087,0c-1.896,0-19.927,1.094-19.927-1.752c0-1.935-3-1.935-3,0c0,5.019,5.035,4.752,8.965,4.752
				c4.33,0,8.659,0,12.989,0c4.386,0,23.302,2.354,23.302-4.177c0-7.798-16.391-5.109-21.144-5.109c-5.12,0-10.24,0-15.36,0
				c-3.463,0-7.939-0.096-8.698,4.135C171.717,127.595,174.608,128.403,174.949,126.501z"/>
		</g>
	</g>
	<g>
		<g>
			<path style="fill:#FFFFFF;" d="M233.311,116.417c0.176-2.593,1.061-2.077,2.802-2.077c1.816,0,3.632,0,5.447,0
				c1.74,0,3.48,0,5.222,0c2.017,0,2.285,0.897,2.285,3.081c0,2.075-7.801,1.328-8.762,1.328
				C237.846,118.749,233.311,119.784,233.311,116.417c0-1.935-3-1.935-3,0c0,6.347,5.188,5.332,9.994,5.332
				c3.773,0,11.762,1.398,11.762-4.328c0-2.484-0.308-5.589-3.297-6.027c-2.09-0.307-4.365-0.054-6.471-0.054
				c-2.699,0-5.398,0-8.098,0c-2.933,0-3.724,2.612-3.891,5.077C230.18,118.349,233.181,118.336,233.311,116.417z"/>
		</g>
	</g>
	<g>
		<g>
			<path style="fill:#FFFFFF;" d="M248.551,126.492c-0.175,2.594-1.061,2.077-2.802,2.077c-1.816,0-3.632,0-5.447,0
				c-1.74,0-3.48,0-5.222,0c-2.017,0-2.285-0.897-2.285-3.081c0-2.074,7.801-1.328,8.761-1.328
				C244.014,124.16,248.551,123.125,248.551,126.492c0,1.935,3,1.935,3,0c0-6.346-5.19-5.332-9.995-5.332
				c-3.771,0-11.761-1.397-11.761,4.328c0,2.484,0.307,5.589,3.297,6.027c2.09,0.307,4.365,0.054,6.471,0.054
				c2.699,0,5.398,0,8.098,0c2.934,0,3.725-2.612,3.891-5.077C251.682,124.56,248.681,124.572,248.551,126.492z"/>
		</g>
	</g>
	<g>
		<g>
			<path style="fill:#FFFFFF;" d="M248.551,134.962c-0.256,2.501-6.552,1.371-8.249,1.371c-2.45,0-7.507,1.293-7.507-2.177
				c0-1.235,7.351-0.77,8.026-0.77C242.512,133.386,248.551,132.454,248.551,134.962c0,1.935,3,1.935,3,0
				c0-5.759-5.825-4.576-9.995-4.576c-3.321,0-11.761-1.416-11.761,3.77c0,6.225,5.174,5.177,9.768,5.177
				c4.5,0,11.367,1.698,11.988-4.371C251.748,133.038,248.746,133.057,248.551,134.962z"/>
		</g>
	</g>
	<g>
		<g>
			<path style="fill:#FFFFFF;" d="M259.571,117.815c0.175-2.593,1.063-2.077,2.803-2.077c1.815,0,3.631,0,5.446,0
				c1.74,0,3.48,0,5.221,0c2.017,0,2.286,0.898,2.286,3.081c0,2.076-7.801,1.329-8.762,1.328
				C264.105,120.147,259.571,121.183,259.571,117.815c0-1.935-3-1.935-3,0c0,6.347,5.188,5.333,9.994,5.333
				c3.772,0,11.762,1.398,11.762-4.328c0-2.484-0.308-5.589-3.298-6.027c-2.09-0.307-4.364-0.054-6.47-0.054
				c-2.699,0-5.397,0-8.097,0c-2.934,0-3.725,2.611-3.892,5.077C256.44,119.747,259.441,119.734,259.571,117.815z"/>
		</g>
	</g>
	<g>
		<g>
			<path style="fill:#FFFFFF;" d="M274.811,126.521c-0.175,2.594-1.061,2.077-2.802,2.077c-1.815,0-3.632,0-5.447,0
				c-1.74,0-3.48,0-5.221,0c-2.018,0-2.285-0.898-2.285-3.082c0-2.075,7.8-1.328,8.761-1.328
				C270.275,124.188,274.811,123.152,274.811,126.521c0,1.935,3,1.935,3,0c0-6.347-5.188-5.333-9.994-5.333
				c-3.772,0-11.761-1.397-11.761,4.328c0,2.484,0.307,5.59,3.297,6.028c2.09,0.307,4.364,0.054,6.47,0.054c2.699,0,5.398,0,8.098,0
				c2.934,0,3.725-2.612,3.891-5.077C277.941,124.588,274.94,124.601,274.811,126.521z"/>
		</g>
	</g>
	<g>
		<g>
			<path style="fill:#FFFFFF;" d="M274.811,134.991c-0.256,2.5-6.553,1.37-8.249,1.37c-2.449,0-7.506,1.293-7.506-2.176
				c0-1.235,7.35-0.77,8.025-0.77C268.772,133.415,274.811,132.481,274.811,134.991c0,1.935,3,1.935,3,0
				c0-5.759-5.824-4.576-9.994-4.576c-3.322,0-11.761-1.416-11.761,3.77c0,6.224,5.174,5.176,9.767,5.176
				c4.5,0,11.368,1.698,11.988-4.37C278.008,133.066,275.006,133.085,274.811,134.991z"/>
		</g>
	</g>
	<g>
		<g>
			<path style="fill:#FFFFFF;" d="M85.507,115.904c0.106-2.234,0.271-2.077,2.074-2.077c1.712,0,3.425,0,5.138,0
				c1.367,0,2.734,0,4.101,0c1.714,0,1.265,1.811,1.265,3.221c0,1.91-5.859,1.188-7.022,1.188c-1.392,0-2.783,0-4.174,0
				C85.324,118.236,85.507,117.214,85.507,115.904c0-1.935-3-1.935-3,0c0,2.27,0.143,4.258,2.492,5.176
				c1.476,0.578,3.942,0.156,5.458,0.156c3.604,0,10.627,1.24,10.627-4.188c0-1.831,0.05-5.722-2.506-6.104
				c-1.918-0.287-3.926-0.116-5.86-0.116c-2.242,0-4.483,0-6.725,0c-2.795,0-3.379,2.822-3.486,5.077
				C82.415,117.838,85.416,117.83,85.507,115.904z"/>
		</g>
	</g>
	<g>
		<g>
			<path style="fill:#FFFFFF;" d="M97.656,125.979c-0.106,2.234-0.271,2.077-2.073,2.077c-1.712,0-3.425,0-5.138,0
				c-1.367,0-2.734,0-4.101,0c-1.715,0-1.265-1.812-1.265-3.222c0-1.908,5.86-1.188,7.021-1.188c1.392,0,2.783,0,4.174,0
				C97.839,123.646,97.656,124.668,97.656,125.979c0,1.935,3,1.935,3,0c0-2.27-0.143-4.257-2.492-5.176
				c-1.477-0.578-3.941-0.156-5.458-0.156c-3.603,0-10.627-1.24-10.627,4.188c0,1.831-0.051,5.723,2.506,6.105
				c1.918,0.287,3.926,0.116,5.86,0.116c2.242,0,4.484,0,6.726,0c2.795,0,3.378-2.823,3.486-5.077
				C100.749,124.044,97.748,124.053,97.656,125.979z"/>
		</g>
	</g>
	<g>
		<g>
			<path style="fill:#FFFFFF;" d="M97.656,134.449c-0.125,1.794-0.739,1.37-2.073,1.37c-1.508,0-3.016,0-4.524,0
				c-1.445,0-2.891,0-4.336,0c-1.574,0-1.644-0.479-1.644-2.176c0-1.262,6.47-0.77,7.021-0.77c1.313,0,2.625,0,3.938,0
				C97.277,132.873,97.656,133.191,97.656,134.449c0,1.935,3,1.935,3,0c0-5.387-4.508-4.576-8.556-4.576
				c-3.249,0-10.021-1.146-10.021,3.77c0,2.151,0.359,4.759,2.924,5.122c1.766,0.25,3.664,0.054,5.442,0.054
				c4.279,0,9.809,1.385,10.211-4.37C100.791,132.517,97.791,132.53,97.656,134.449z"/>
		</g>
	</g>
	<g>
		<g>
			<g>
				<path style="fill:#FFFFFF;" d="M258.423,282.586c-0.141-3.219-0.282-6.438-0.423-9.657c-0.084-1.927-3.085-1.935-3,0
					c0.141,3.219,0.282,6.438,0.423,9.657C255.507,284.513,258.508,284.521,258.423,282.586L258.423,282.586z"/>
			</g>
		</g>
		<g>
			<g>
				<path style="fill:#FFFFFF;" d="M256.854,266.601c-0.017,2.035,0.256,4.476-1.625,5.763c-1.289,0.882-2.414,1.176-3.356,2.479
					c-1.056,1.461-1.534,3.472-2.295,5.085c-1.23,2.609-3.059,2.482-5.617,2.294c-1.931-0.143-1.917,2.858,0,3
					c2.437,0.18,4.442,0.403,6.408-1.195c1.883-1.532,2.586-4.475,3.524-6.6c0.912-2.064,3.311-2.247,4.604-4.03
					c1.41-1.943,1.339-4.5,1.357-6.796C259.869,264.665,256.869,264.667,256.854,266.601L256.854,266.601z"/>
			</g>
		</g>
		<g>
			<g>
				<path style="fill:#FFFFFF;" d="M256.904,266.574c-1.479,4.097-1.727-2.674-4.635-0.849c-2.048,1.287-3.001,4.429-4.061,6.461
					c-0.869,1.669-1.813,3.321-3.041,4.755c-0.927,1.083-2.227,1.558-2.801,2.935c-0.758,1.818-1.135,5.944,1.991,5.292
					c1.894-0.395,1.091-3.286-0.797-2.893c-0.096,0.02-0.191,0.04-0.287,0.06c0.486,0.129,0.974,0.257,1.46,0.386
					c-0.771-0.653,3.791-5.204,4.344-6.029c1.544-2.307,2.62-4.893,3.969-7.311c0.192-0.345,0.398-0.694,0.654-0.997
					c-0.398-0.008-0.797-0.016-1.195-0.023c0.104,0.438,0.225,0.872,0.362,1.302c0.294,0.999,1.092,1.979,2.123,2.263
					c2.659,0.731,4.12-2.654,4.806-4.554C260.455,265.547,257.556,264.769,256.904,266.574L256.904,266.574z"/>
			</g>
		</g>
		<g>
			<g>
				<path style="fill:#FFFFFF;" d="M258.423,282.586c0.361-4.056,0.724-8.111,1.085-12.167c0.172-1.928-2.83-1.911-3,0
					c-0.361,4.056-0.724,8.111-1.085,12.167C255.251,284.514,258.252,284.497,258.423,282.586L258.423,282.586z"/>
			</g>
		</g>
	</g>
	<g>
		<g>
			<g>
				<path style="fill:#FFFFFF;" d="M244.408,282.13c-0.142-3.219-0.282-6.438-0.424-9.657c-0.085-1.927-3.085-1.935-3,0
					c0.142,3.219,0.282,6.438,0.424,9.657C241.493,284.057,244.493,284.064,244.408,282.13L244.408,282.13z"/>
			</g>
		</g>
		<g>
			<g>
				<path style="fill:#FFFFFF;" d="M242.838,266.145c-0.017,2.035,0.256,4.477-1.624,5.763c-1.29,0.883-2.415,1.177-3.356,2.479
					c-1.056,1.461-1.534,3.472-2.296,5.085c-1.23,2.609-3.059,2.481-5.617,2.293c-1.931-0.143-1.917,2.858,0,3
					c2.437,0.18,4.442,0.404,6.408-1.195c1.882-1.531,2.586-4.474,3.525-6.599c0.912-2.063,3.31-2.247,4.603-4.03
					c1.41-1.943,1.339-4.5,1.357-6.796C245.854,264.209,242.854,264.211,242.838,266.145L242.838,266.145z"/>
			</g>
		</g>
		<g>
			<g>
				<path style="fill:#FFFFFF;" d="M242.889,266.118c-1.478,4.095-1.729-2.675-4.635-0.849c-2.048,1.287-3.001,4.428-4.061,6.461
					c-0.869,1.669-1.814,3.321-3.041,4.755c-0.927,1.082-2.227,1.557-2.801,2.934c-0.757,1.814-1.135,5.949,1.991,5.292
					c1.894-0.397,1.09-3.289-0.797-2.893c-0.096,0.02-0.191,0.04-0.287,0.061c0.486,0.128,0.974,0.257,1.46,0.386
					c-0.771-0.653,3.791-5.204,4.344-6.03c1.544-2.306,2.62-4.892,3.969-7.31c0.192-0.346,0.398-0.694,0.654-0.997
					c-0.398-0.008-0.797-0.017-1.195-0.024c0.104,0.438,0.225,0.873,0.362,1.302c0.293,1,1.092,1.979,2.123,2.264
					c2.659,0.73,4.12-2.653,4.806-4.554C246.439,265.091,243.54,264.313,242.889,266.118L242.889,266.118z"/>
			</g>
		</g>
		<g>
			<g>
				<path style="fill:#FFFFFF;" d="M244.408,282.13c0.361-4.056,0.724-8.111,1.085-12.167c0.172-1.928-2.829-1.911-3,0
					c-0.361,4.056-0.724,8.111-1.085,12.167C241.236,284.058,244.238,284.041,244.408,282.13L244.408,282.13z"/>
			</g>
		</g>
	</g>
	<g>
		<g>
			<g>
				<path style="fill:#FFFFFF;" d="M280.138,281.095c-0.063-3.885-0.124-7.77-0.187-11.654c-0.031-1.933-3.031-1.936-3,0
					c0.063,3.885,0.124,7.77,0.187,11.654C277.169,283.027,280.169,283.03,280.138,281.095L280.138,281.095z"/>
			</g>
		</g>
		<g>
			<g>
				<path style="fill:#FFFFFF;" d="M278.32,248.52c-0.029,6.481-0.206,13.096-1.27,19.499c-0.32,1.928-3.06,13.092-3.583,12.999
					c-1.891-0.337-2.699,2.554-0.797,2.893c6.276,1.119,4.948-8.483,6.537-12.39c2.741-6.741,2.08-15.864,2.112-23.001
					C281.329,246.585,278.329,246.585,278.32,248.52L278.32,248.52z"/>
			</g>
		</g>
		<g>
			<g>
				<path style="fill:#FFFFFF;" d="M280.219,247.073c-2.125-0.398-4.389-0.312-4.671,2.341c-0.422,3.963-0.284,8.008-0.668,11.992
					c-0.443,4.6-1.008,9.303-2.37,13.734c-0.8,2.605-1.907,4.906-1.166,7.766c0.202,0.784,1.068,1.272,1.845,1.048
					c0.051-0.015,0.102-0.029,0.151-0.044c1.855-0.536,1.065-3.432-0.797-2.893c-0.051,0.015-0.102,0.029-0.152,0.044
					c0.615,0.349,1.23,0.698,1.846,1.048c-0.566-2.188,0.456-4.191,1.166-6.171c1.06-2.951,1.425-6.22,1.858-9.307
					c0.402-2.865,0.688-5.745,0.921-8.629c0.105-1.319-0.192-8.306,1.24-8.037C281.313,250.32,282.119,247.43,280.219,247.073
					L280.219,247.073z"/>
			</g>
		</g>
		<g>
			<g>
				<path style="fill:#FFFFFF;" d="M280.138,281.866c0.159-5.152,0.317-10.304,0.477-15.456c0.06-1.936-2.94-1.93-3,0
					c-0.159,5.152-0.317,10.304-0.477,15.456C277.078,283.802,280.078,283.796,280.138,281.866L280.138,281.866z"/>
			</g>
		</g>
	</g>
	<g>
		<g>
			<g>
				<path style="fill:#FFFFFF;" d="M270.383,280.313c-0.073-3.886-0.147-7.771-0.221-11.656c-0.036-1.933-3.037-1.936-3,0
					c0.073,3.886,0.147,7.771,0.221,11.656C267.419,282.246,270.42,282.249,270.383,280.313L270.383,280.313z"/>
			</g>
		</g>
		<g>
			<g>
				<path style="fill:#FFFFFF;" d="M268.787,247.737c-0.034,6.479-0.261,13.13-1.518,19.499c-0.345,1.749-1.335,3.102-1.781,4.804
					c-0.461,1.757-0.67,8.563-2.82,8.196c-1.892-0.322-2.701,2.568-0.797,2.893c7.224,1.229,4.484-8.134,7.268-12.031
					c1.623-2.273,1.585-6.255,1.885-8.917c0.54-4.785,0.738-9.63,0.764-14.443C271.797,245.803,268.797,245.804,268.787,247.737
					L268.787,247.737z"/>
			</g>
		</g>
		<g>
			<g>
				<path style="fill:#FFFFFF;" d="M270.686,246.291c-7.556-1.228-5.311,8.017-5.851,13.162c-0.498,4.743-1.218,9.565-2.672,14.12
					c-0.921,2.887-2.673,5.298-1.673,8.552c0.246,0.8,1.033,1.244,1.846,1.048c0.06-0.015,0.12-0.029,0.18-0.044
					c1.88-0.454,1.083-3.348-0.797-2.893c-0.061,0.015-0.12,0.029-0.181,0.044c0.615,0.349,1.23,0.698,1.845,1.047
					c-0.714-2.323,0.647-4.145,1.387-6.17c1.098-3.008,1.682-6.158,2.207-9.309c0.477-2.858,0.807-5.744,1.083-8.629
					c0.158-1.656-0.452-8.406,1.829-8.036C271.78,249.491,272.592,246.601,270.686,246.291L270.686,246.291z"/>
			</g>
		</g>
		<g>
			<g>
				<path style="fill:#FFFFFF;" d="M270.383,281.085c0.188-5.152,0.378-10.305,0.566-15.457c0.071-1.936-2.93-1.929-3,0
					c-0.188,5.152-0.378,10.305-0.566,15.457C267.312,283.021,270.313,283.014,270.383,281.085L270.383,281.085z"/>
			</g>
		</g>
	</g>
	<g>
		<g>
			<g>
				<path style="fill:#FFFFFF;" d="M100.011,282.194c-0.062-1.359-0.124-2.72-0.186-4.079c-0.088-1.927-3.088-1.935-3,0
					c0.062,1.359,0.124,2.72,0.186,4.079C97.099,284.121,100.099,284.129,100.011,282.194L100.011,282.194z"/>
			</g>
		</g>
		<g>
			<g>
				<path style="fill:#FFFFFF;" d="M98.193,270.792c-0.035,2.151-0.234,4.628-1.306,6.538c-0.339,0.604-1.093,0.95-1.457,1.634
					c-0.715,1.343-0.704,2.339-2.488,2.211c-1.931-0.139-1.918,2.862,0,3c1.481,0.106,2.607,0.07,3.679-1.052
					c1.002-1.049,1.237-2.519,2.134-3.404c2.147-2.118,2.392-6.087,2.438-8.927C101.225,268.856,98.225,268.859,98.193,270.792
					L98.193,270.792z"/>
			</g>
		</g>
		<g>
			<g>
				<path style="fill:#FFFFFF;" d="M99.693,269.292c-1.352-0.096-3.048-0.332-3.959,0.914c-0.704,0.963-0.431,2.597-0.675,3.727
					c-0.402,1.862-1.083,3.917-2.38,5.351c-1.002,1.106-2.148,2.057-1.5,3.775c0.253,0.672,0.724,1.047,1.446,1.102
					c0.063,0.005,0.127,0.01,0.191,0.015c1.931,0.147,1.916-2.854,0-3c-0.063-0.005-0.127-0.01-0.191-0.015
					c0.482,0.367,0.964,0.734,1.447,1.102c-0.097-0.258,1.657-2.022,1.88-2.365c0.699-1.072,1.146-2.352,1.554-3.556
					c0.366-1.084,0.636-2.234,0.751-3.374c0.046-0.457,0.045-0.907,0.055-1.366c-0.656,0.547-0.648,0.752,0.023,0.614
					c0.454,0.012,0.906,0.038,1.358,0.077C101.625,272.428,101.612,269.427,99.693,269.292L99.693,269.292z"/>
			</g>
		</g>
		<g>
			<g>
				<path style="fill:#FFFFFF;" d="M100.011,282.465c0.159-1.804,0.318-3.607,0.477-5.411c0.17-1.928-2.832-1.911-3,0
					c-0.159,1.804-0.318,3.607-0.477,5.411C96.841,284.393,99.842,284.376,100.011,282.465L100.011,282.465z"/>
			</g>
		</g>
	</g>
	<g>
		<g>
			<g>
				<path style="fill:#FFFFFF;" d="M90.256,281.921c-0.074-1.359-0.147-2.72-0.221-4.079c-0.104-1.924-3.104-1.934-3,0
					c0.074,1.359,0.147,2.72,0.221,4.079C87.36,283.845,90.36,283.854,90.256,281.921L90.256,281.921z"/>
			</g>
		</g>
		<g>
			<g>
				<path style="fill:#FFFFFF;" d="M88.661,270.519c-0.034,1.748-0.156,5.8-1.954,6.74c-0.715,0.374-1.141,1.03-1.521,1.717
					c-0.243,0.44-0.455,0.896-0.701,1.335c-0.497,0.889-1.481,0.643-2.343,0.591c-1.933-0.117-1.922,2.884,0,3
					c1.631,0.099,2.817,0.089,4.104-0.981c1.152-0.958,1.443-2.512,2.602-3.475c2.36-1.961,2.758-6.07,2.813-8.927
					C91.698,268.583,88.698,268.587,88.661,270.519L88.661,270.519z"/>
			</g>
		</g>
		<g>
			<g>
				<path style="fill:#FFFFFF;" d="M90.161,269.019c-1.397-0.085-3.25-0.384-4.341,0.732c-0.876,0.896-0.575,2.644-0.858,3.782
					c-0.475,1.913-1.399,4.342-3.047,5.552c-1.399,1.028-2.232,2.298-1.446,4.059c0.218,0.489,0.805,0.712,1.295,0.743
					c0.076,0.005,0.151,0.01,0.227,0.015c1.933,0.124,1.92-2.876,0-3c-0.076-0.005-0.151-0.01-0.227-0.015
					c0.432,0.248,0.864,0.495,1.295,0.743c0.256,0.574,2.194-1.699,2.329-1.892c0.85-1.209,1.455-2.518,1.985-3.893
					c0.44-1.141,0.705-2.326,0.845-3.537c0.136-1.188,0.083-0.416-0.423-0.349c0.768-0.102,1.599,0.012,2.366,0.059
					C92.094,272.136,92.083,269.136,90.161,269.019L90.161,269.019z"/>
			</g>
		</g>
		<g>
			<g>
				<path style="fill:#FFFFFF;" d="M90.256,282.19c0.189-1.803,0.378-3.606,0.567-5.409c0.202-1.923-2.8-1.904-3,0
					c-0.189,1.803-0.378,3.606-0.567,5.409C87.054,284.113,90.056,284.095,90.256,282.19L90.256,282.19z"/>
			</g>
		</g>
	</g>
	<g>
		<g>
			<path style="fill:#FFFFFF;" d="M212.638,116.1c-0.506,3.517-6.241,2.681-8.371,2.681c-3.936,0-7.87,0-11.806,0
				c-2.875,0-19.132,2.183-19.132-3.343c0-2.291,17.593-1.491,19.329-1.491c3.796,0,7.593,0,11.389,0
				c2.699,0,8.537-0.949,8.537,2.553c0,1.935,3,1.935,3,0c0-5.311-4.315-5.553-8.819-5.553c-4.378,0-8.756,0-13.133,0
				c-3.982,0-23.303-2.223-23.303,4.12c0,4.432,2.263,6.715,6.794,6.715c4.455,0,8.91,0,13.365,0c5.448,0,10.896,0,16.344,0
				c3.844,0,8.028-0.229,8.698-4.883C215.803,115.006,212.912,114.191,212.638,116.1z"/>
		</g>
	</g>
	<g>
		<g>
			<path style="fill:#FFFFFF;" d="M174.438,106.245c0.506-3.517,6.241-2.681,8.372-2.681c3.935,0,7.87,0,11.805,0
				c2.876,0,19.133-2.184,19.133,3.344c0,2.289-17.593,1.49-19.328,1.49c-3.797,0-7.593,0-11.39,0c-2.699,0-8.538,0.949-8.538-2.552
				c0-1.935-3-1.935-3,0c0,5.312,4.316,5.552,8.821,5.552c4.377,0,8.755,0,13.133,0c3.981,0,23.302,2.223,23.302-4.118
				c0-4.433-2.263-6.716-6.794-6.716c-4.455,0-8.91,0-13.365,0c-5.448,0-10.896,0-16.345,0c-3.844,0-8.028,0.229-8.698,4.883
				C171.273,107.338,174.164,108.153,174.438,106.245z"/>
		</g>
	</g>
	<g>
		<g>
			<path style="fill:#FFFFFF;" d="M174.438,97.289c0.665-3.71,16.794-1.933,19.186-1.933c6.027,0,12.81-0.9,18.775,0.246
				c4.892,0.94-1.263,2.844-1.495,2.873c-1.13,0.139-2.284,0.138-3.421,0.162c-0.991,0.021-1.985,0.005-2.978,0.005
				c-3.362,0-6.725,0-10.087,0c-1.896,0-19.927,1.094-19.927-1.752c0-1.935-3-1.935-3,0c0,5.019,5.035,4.752,8.965,4.752
				c4.33,0,8.659,0,12.989,0c4.386,0,23.302,2.354,23.302-4.177c0-7.798-16.39-5.109-21.144-5.109c-5.12,0-10.24,0-15.36,0
				c-3.463,0-7.939-0.096-8.698,4.135C171.207,98.382,174.097,99.19,174.438,97.289z"/>
		</g>
	</g>
	<g>
		<g>
			<path style="fill:#FFFFFF;" d="M74.113,186.693c11.333,0,22.667,0,34,0c4.514,0,4.514-7,0-7c-11.333,0-22.667,0-34,0
				C69.599,179.693,69.599,186.693,74.113,186.693L74.113,186.693z"/>
		</g>
	</g>
</g>
<g id="Ebene_1">
</g>
</svg>
