<?xml version="1.0" encoding="iso-8859-1"?>
<!-- Generator: Adobe Illustrator 16.0.0, SVG Export Plug-In . SVG Version: 6.00 Build 0)  -->
<!DOCTYPE svg PUBLIC "-//W3C//DTD SVG 1.1 Tiny//EN" "http://www.w3.org/Graphics/SVG/1.1/DTD/svg11-tiny.dtd">
<svg version="1.1" baseProfile="tiny" id="scene_x5F_cleaning"
	 xmlns="http://www.w3.org/2000/svg" xmlns:xlink="http://www.w3.org/1999/xlink" x="0px" y="0px" width="361px" height="361px"
	 viewBox="0 0 361 361" xml:space="preserve">
<g>
	<path fill="#FFFFFF" d="M254.184,286.378c-0.402,2.494-9.926,1.167-11.962,1.167c-7.883,0-15.767,0-23.65,0
		c-6.321,0-12.643,0-18.964,0c-3.322,0-2.797-0.559-2.929-3.776c-0.266-6.489-2.773-72.657-2.71-72.657c11.649,0,23.299,0,34.949,0
		c7.157,0,14.313,0,21.47,0c1.478,0,6.837-1.008,6.753,1.045c-1.012,24.7-2.024,49.4-3.037,74.1
		c-0.014,0.351-0.029,0.701-0.043,1.052c-0.185,4.516,6.815,4.498,7,0c0.989-24.141,1.979-48.281,2.968-72.422
		c0.194-4.73-0.308-9.707-6.16-10.65c-3.532-0.569-7.402-0.125-10.96-0.125c-15.029,0-30.059,0-45.088,0
		c-3.888,0-8.293-0.638-11.846,1.198c-4.064,2.102-3.209,7.341-3.058,11.038c0.591,14.423,1.182,28.846,1.772,43.269
		c0.279,6.805,0.558,13.611,0.836,20.417c0.119,2.898-0.427,7.529,0.967,10.224c2.582,4.992,7.629,4.289,12.345,4.289
		c7.205,0,14.41,0,21.615,0c7.865,0,15.73,0,23.595,0c5.247,0,11.781,0.559,12.888-6.305
		C261.646,283.825,254.901,281.931,254.184,286.378z"/>
</g>
<g>
	<g>
		<path fill="#FFFFFF" d="M119.69,78.184c0,49.892,0,99.783,0,149.675c0,11.855,0,23.709,0,35.564c0,6.449,10,6.449,10,0
			c0-49.892,0-99.783,0-149.675c0-11.855,0-23.709,0-35.564C129.69,71.735,119.69,71.735,119.69,78.184L119.69,78.184z"/>
	</g>
	<g>
		<path fill="#FFFFFF" d="M93.011,271.922c21.083,0,42.167,0,63.25,0c9.687,0,9.772-15.003,0.108-15.003c-21.083,0-42.167,0-63.25,0
			C83.433,256.918,83.347,271.922,93.011,271.922L93.011,271.922z"/>
	</g>
	<g>
		<path fill="#FFFFFF" d="M93.139,270.17c-0.333,7.458-0.667,14.917-1,22.375c-0.086,1.935,2.914,1.927,3,0
			c0.333-7.458,0.667-14.917,1-22.375C96.225,268.235,93.225,268.243,93.139,270.17L93.139,270.17z"/>
	</g>
	<g>
		<path fill="#FFFFFF" d="M104.093,270.17c0,7.458,0,14.917,0,22.375c0,1.935,3,1.935,3,0c0-7.458,0-14.917,0-22.375
			C107.093,268.235,104.093,268.235,104.093,270.17L104.093,270.17z"/>
	</g>
	<g>
		<path fill="#FFFFFF" d="M98.616,270.17c0,7.458,0,14.917,0,22.375c0,1.935,3,1.935,3,0c0-7.458,0-14.917,0-22.375
			C101.616,268.235,98.616,268.235,98.616,270.17L98.616,270.17z"/>
	</g>
	<g>
		<path fill="#FFFFFF" d="M109.57,270.17c0,7.458,0,14.917,0,22.375c0,1.935,3,1.935,3,0c0-7.458,0-14.917,0-22.375
			C112.57,268.235,109.57,268.235,109.57,270.17L109.57,270.17z"/>
	</g>
	<g>
		<path fill="#FFFFFF" d="M120.525,270.17c0,7.458,0,14.917,0,22.375c0,1.935,3,1.935,3,0c0-7.458,0-14.917,0-22.375
			C123.525,268.235,120.525,268.235,120.525,270.17L120.525,270.17z"/>
	</g>
	<g>
		<path fill="#FFFFFF" d="M115.048,270.17c0,7.458,0,14.917,0,22.375c0,1.935,3,1.935,3,0c0-7.458,0-14.917,0-22.375
			C118.048,268.235,115.048,268.235,115.048,270.17L115.048,270.17z"/>
	</g>
	<g>
		<path fill="#FFFFFF" d="M126.002,270.17c0,7.458,0,14.917,0,22.375c0,1.935,3,1.935,3,0c0-7.458,0-14.917,0-22.375
			C129.002,268.235,126.002,268.235,126.002,270.17L126.002,270.17z"/>
	</g>
	<g>
		<path fill="#FFFFFF" d="M136.957,270.17c0,7.458,0,14.917,0,22.375c0,1.935,3,1.935,3,0c0-7.458,0-14.917,0-22.375
			C139.957,268.235,136.957,268.235,136.957,270.17L136.957,270.17z"/>
	</g>
	<g>
		<path fill="#FFFFFF" d="M131.479,270.17c0,7.458,0,14.917,0,22.375c0,1.935,3,1.935,3,0c0-7.458,0-14.917,0-22.375
			C134.479,268.235,131.479,268.235,131.479,270.17L131.479,270.17z"/>
	</g>
	<g>
		<path fill="#FFFFFF" d="M142.434,270.17c0,7.458,0,14.917,0,22.375c0,1.935,3,1.935,3,0c0-7.458,0-14.917,0-22.375
			C145.434,268.235,142.434,268.235,142.434,270.17L142.434,270.17z"/>
	</g>
	<g>
		<path fill="#FFFFFF" d="M153.389,270.17c0.333,7.458,0.667,14.917,1,22.375c0.086,1.927,3.086,1.935,3,0
			c-0.333-7.458-0.667-14.917-1-22.375C156.303,268.243,153.302,268.235,153.389,270.17L153.389,270.17z"/>
	</g>
	<g>
		<path fill="#FFFFFF" d="M147.912,270.17c0,7.458,0,14.917,0,22.375c0,1.935,3,1.935,3,0c0-7.458,0-14.917,0-22.375
			C150.912,268.235,147.912,268.235,147.912,270.17L147.912,270.17z"/>
	</g>
	<g>
		<path fill="#FFFFFF" d="M158.695,270.264c0.962,7.396,1.925,14.792,2.888,22.188c0.246,1.89,3.249,1.915,3,0
			c-0.962-7.396-1.925-14.792-2.888-22.188C161.449,268.374,158.446,268.349,158.695,270.264L158.695,270.264z"/>
	</g>
	<g>
		<path fill="#FFFFFF" d="M87.686,270.264c-0.962,7.396-1.925,14.792-2.888,22.188c-0.249,1.915,2.754,1.89,3,0
			c0.962-7.396,1.925-14.792,2.888-22.188C90.935,268.349,87.932,268.374,87.686,270.264L87.686,270.264z"/>
	</g>
</g>
<g>
	<path fill="#FFFFFF" d="M187.71,215.064c0.865-12.291,1.729-24.582,2.594-36.874c0.129-1.833,0.258-3.667,0.387-5.5
		c0.433-6.146,3.782-10.5,8.884-13.759c6.249-3.99,13.805-3.155,20.852-3.155c14.209,0,38.908-3.247,40.341,17.114
		c0.913,12.975,1.826,25.949,2.739,38.923c0.076,1.083,0.152,2.167,0.229,3.25c0.135,1.918,3.136,1.932,3,0
		c-0.865-12.291-1.729-24.582-2.594-36.874c-0.409-5.808-0.505-11.078-4.134-16.029c-4.669-6.369-12.629-9.384-20.295-9.384
		c-7.031,0-14.063,0-21.095,0c-6.347,0-12.123-0.256-18.129,2.287c-7.601,3.219-12.262,10.018-12.829,18.081
		c-0.426,6.048-0.852,12.097-1.277,18.146c-0.558,7.924-1.115,15.849-1.673,23.773C184.575,216.996,187.576,216.982,187.71,215.064
		L187.71,215.064z"/>
</g>
</svg>
