<?xml version="1.0" encoding="iso-8859-1"?>
<!-- Generator: Adobe Illustrator 16.0.0, SVG Export Plug-In . SVG Version: 6.00 Build 0)  -->
<!DOCTYPE svg PUBLIC "-//W3C//DTD SVG 1.1//EN" "http://www.w3.org/Graphics/SVG/1.1/DTD/svg11.dtd">
<svg version="1.1" xmlns="http://www.w3.org/2000/svg" xmlns:xlink="http://www.w3.org/1999/xlink" x="0px" y="0px" width="361px"
	 height="361px" viewBox="0 0 361 361" style="enable-background:new 0 0 361 361;" xml:space="preserve">
<g id="scene_x5F_robo_x5F_lawnmower">
	<g>
		<g>
			<path style="fill:#FFFFFF;" d="M271.265,199.77c0.41-0.397,0.82-0.796,1.229-1.194c1.926-0.255,3.853-0.51,5.778-0.765
				c2.493,0.929,3.122,2.233,1.801,0.896c-0.778-0.788-1.557-1.577-2.336-2.365c-1.237-1.252-2.475-2.505-3.712-3.758
				c0.742,1.796,1.484,3.592,2.227,5.387c0.992-8.38,2.592-23.765-7.516-27.159c-4.414-1.482-10.357-0.577-14.898-0.454
				c-5.869,0.159-11.745,0.471-17.618,0.391c-13.406-0.182-27.585,7.902-33.82,19.924c-4.331,8.35-6.871,17.924-8.802,27.097
				c2.43-1.84,4.859-3.681,7.289-5.521c-23.923,0-47.846,0-71.77,0c-11.841,0-23.683,0-35.524,0c-0.895,0-1.79,0-2.685,0
				c-2.376,0,4.259,6.92,4.259,3.998c0-1.535,0-3.07,0-4.605c0-3.753,0-7.506,0-11.259c0-1.08,0-2.16,0-3.24
				c0-0.963-0.503,2.577,0.086,0.08c0.273-1.159,0.659-2.29,1.051-3.413c5.255-15.065,20.234-25.454,35.077-29.423
				c13.053-3.49,26.37-6.084,39.606-8.766c30.711-6.222,61.532-11.915,92.368-17.481c3.361-0.607,6.724-1.212,10.087-1.81
				c-1.308-0.003-2.614-0.006-3.922-0.01c-2.491-0.503-2.635-6.26-2.483-3.632c0.044,0.761,0.087,1.522,0.131,2.283
				c0.148,2.587,0.297,5.173,0.445,7.76c0.453,7.878,0.905,15.757,1.357,23.636c0.676,11.777,1.353,23.554,2.028,35.331
				c0.553,9.624,15.558,9.762,15.004,0.107c-1.325-23.069-2.649-46.138-3.974-69.208c-0.421-7.327-6.001-11.911-13.237-10.621
				c-3.107,0.554-6.213,1.113-9.319,1.673c-13.617,2.457-27.226,4.958-40.827,7.504c-30.411,5.692-61.21,10.838-91.146,18.744
				c-17.535,4.631-32.927,15.819-41.943,31.682c-3.721,6.546-5.391,12.958-5.391,20.365c0,6.402-1.956,17.264,3.104,22.261
				c4.85,4.789,15.166,3.048,21.323,3.048c12.706,0,25.412,0,38.119,0c19.356,0,38.712,0,58.069,0c3.211,0,6.599-2.244,7.289-5.521
				c1.901-9.035,4.13-19.049,9.23-26.856c2.422-3.707,9.454-7.704,14.451-8.845c5.984-1.365,13.415-0.405,19.556-0.597
				c3.037-0.094,6.074-0.176,9.112-0.201c1.178-0.01,2.354,0.007,3.531,0.041c0.452,0.016,0.904,0.041,1.355,0.076
				c-0.998-0.067-2.509-0.004-3.831-2.242c1.128,1.909,0.242,10.007-0.104,13.631c-0.491,5.146,3.839,8.267,7.105,11.573
				c2.153,2.181,4.468,4.215,7.764,4.236c4.859,0.032,8.685-4.328,9.497-8.816C287.448,194.269,272.987,190.256,271.265,199.77z"/>
		</g>
	</g>
	<g>
		<g>
			<path style="fill:#FFFFFF;" d="M276.081,160.363c0.201,6.18,0.402,12.359,0.603,18.538c0.314,9.659,15.317,9.774,15.004,0.108
				c-0.201-6.18-0.402-12.359-0.603-18.538C290.771,150.813,275.768,150.697,276.081,160.363L276.081,160.363z"/>
		</g>
	</g>
	<g>
		<path style="fill:#FFFFFF;" d="M273.064,203.794l-1.838-0.46c-0.443-2.883-1.219-5.642-2.287-8.241l1.435-1.389
			c-1.16-2.705-2.632-5.244-4.376-7.567l-1.948,0.557c-1.75-2.232-3.763-4.242-5.993-5.993l0.557-1.949
			c-2.324-1.744-4.863-3.216-7.568-4.375l-1.382,1.428c-2.602-1.071-5.364-1.847-8.25-2.291l-0.457-1.828
			c-1.436-0.17-2.893-0.268-4.373-0.268c-1.481,0-2.938,0.098-4.374,0.268l-0.413,1.653c-2.972,0.374-5.813,1.148-8.484,2.27
			l-1.191-1.23c-2.705,1.159-5.244,2.631-7.568,4.374l0.518,1.812c-2.214,1.795-4.211,3.857-5.95,6.132l-1.952-0.558
			c-1.744,2.324-3.216,4.863-4.375,7.568l1.473,1.425c-1.078,2.617-1.863,5.369-2.315,8.201l-1.849,0.463
			c-0.17,1.435-0.268,2.893-0.268,4.373s0.098,2.938,0.268,4.373l1.656,0.415c0.374,2.97,1.147,5.811,2.269,8.48l-1.233,1.193
			c1.159,2.705,2.632,5.244,4.375,7.568l1.813-0.518c1.795,2.214,3.856,4.211,6.13,5.951l-0.558,1.951
			c2.324,1.744,4.863,3.216,7.568,4.376l1.425-1.473c2.617,1.079,5.369,1.865,8.202,2.317l0.462,1.846
			c1.436,0.17,2.893,0.269,4.374,0.269c1.48,0,2.938-0.099,4.373-0.269l0.413-1.651c2.972-0.373,5.816-1.146,8.487-2.268
			l1.188,1.229c2.704-1.16,5.243-2.632,7.568-4.375l-0.518-1.811c2.215-1.795,4.213-3.857,5.952-6.132l1.95,0.557
			c1.744-2.324,3.216-4.863,4.375-7.568l-1.477-1.429c1.077-2.615,1.86-5.365,2.313-8.195l1.855-0.465
			c0.171-1.436,0.269-2.893,0.269-4.373S273.235,205.229,273.064,203.794z M236.583,225.209c-9.412,0-17.042-7.63-17.042-17.042
			s7.63-17.042,17.042-17.042c9.411,0,17.041,7.63,17.041,17.042S245.994,225.209,236.583,225.209z"/>
		<circle style="fill:#FFFFFF;" cx="236.583" cy="208.167" r="14.333"/>
	</g>
	<path style="fill:#FFFFFF;" d="M193.125,230.457c0.15-0.494,1.457-0.373,0.293-0.373c-0.58,0-1.16,0-1.74,0
		c-2.334,0-4.67,0-7.004,0c-7.196,0-14.393,0-21.588,0c-13.68,0-27.36,0-41.041,0c-0.907,0-1.814,0-2.722,0
		c1.154,0,1.01,2.125,1.01,0.472c0-0.702,0-1.404,0-2.106c0-2.188,0-4.377,0-6.564c0-0.702,0-1.404,0-2.106
		c0-1.653,0.145,0.472-1.01,0.472c0.269,0,0.538,0,0.807,0c1.79,0,3.579,0,5.369,0c14.768,0,29.536,0,44.303,0
		c7.162,0,14.324,0,21.486,0c0.71,0,1.42,0,2.13,0c1.405,0-0.418-2.042-0.418-0.472c0,3.87,0,7.739,0,11.61c0,4.514,7,4.514,7,0
		c0-4.736,1.99-14.461-2.959-17.36c-2.689-1.576-7.495-0.778-10.408-0.778c-14.984,0-29.97,0-44.955,0c-6.101,0-12.202,0-18.303,0
		c-4.08,0-10.042-0.094-10.042,5.695c0,4.736-1.991,14.462,2.958,17.361c2.69,1.576,7.496,0.777,10.409,0.777
		c14.678,0,29.355,0,44.033,0c6.243,0,12.486,0,18.73,0c4.34,0,8.834,0.416,10.412-4.766
		C201.193,227.988,194.436,226.152,193.125,230.457z"/>
	<g>
		<g>
			<path style="fill:#FFFFFF;" d="M156.667,216.75c0.259-12.743,11.174-21.491,21.479-27.068
				c15.228-8.241,33.288-10.991,50.396-11.098c4.513-0.028,4.516-7.028,0-7c-19.369,0.12-39.182,3.7-56.201,13.31
				c-11.767,6.644-22.385,17.639-22.673,31.856C149.575,221.267,156.575,221.258,156.667,216.75L156.667,216.75z"/>
		</g>
	</g>
	<circle style="fill:#FFFFFF;" cx="104.894" cy="231.648" r="12.436"/>
	<g>
		<g>
			<g>
				<path style="fill:#FFFFFF;" d="M98.979,289.912c-0.069-19.183-1.412-50.086-27.042-50.507c-1.936-0.032-1.933,2.969,0,3
					c23.526,0.386,23.979,30.271,24.042,47.507C95.986,291.847,98.986,291.847,98.979,289.912L98.979,289.912z"/>
			</g>
		</g>
		<g>
			<g>
				<path style="fill:#FFFFFF;" d="M104.937,289.912c-0.137-21.652-6.396-50.1-33-50.507c-1.936-0.029-1.933,2.971,0,3
					c24.768,0.379,29.874,27.679,30,47.507C101.949,291.846,104.949,291.848,104.937,289.912L104.937,289.912z"/>
			</g>
		</g>
		<g>
			<g>
				<path style="fill:#FFFFFF;" d="M84.647,289.912c-0.02-9.495,0.501-20.042-2.584-29.192c-1.448-4.295-4.544-7.124-7.648-10.244
					c-1.365-1.373-3.486,0.749-2.121,2.121c2.927,2.942,5.711,5.464,7.075,9.511c2.91,8.63,2.259,18.857,2.278,27.805
					C81.651,291.847,84.651,291.847,84.647,289.912L84.647,289.912z"/>
			</g>
		</g>
		<g>
			<g>
				<path style="fill:#FFFFFF;" d="M90.604,289.912c-0.037-9.505,0.256-20.587-4.408-29.23c-2.631-4.876-7.686-7.441-12.085-10.44
					c-1.603-1.093-3.102,1.508-1.514,2.59c4.054,2.764,8.439,5.002,11.009,9.365c4.614,7.835,3.964,19.02,3.998,27.716
					C87.612,291.847,90.612,291.847,90.604,289.912L90.604,289.912z"/>
			</g>
		</g>
		<g>
			<g>
				<path style="fill:#FFFFFF;" d="M112.917,289.912c0.042-7.714-0.653-18.977,4.436-25.553c1.432-1.851,3.908-2.56,4.127-5.154
					c0.163-1.929-2.839-1.913-3,0c-0.084,1.004-3.84,3.729-4.52,4.868c-4.347,7.282-3.998,17.748-4.042,25.839
					C109.906,291.848,112.906,291.846,112.917,289.912L112.917,289.912z"/>
			</g>
		</g>
		<g>
			<g>
				<path style="fill:#FFFFFF;" d="M106.905,290.311c1.093-6.873,1.367-16.049,5.186-22.155c1.954-3.125,6.399-5.191,8.948-7.89
					c1.328-1.405-0.79-3.53-2.121-2.121c-2.805,2.969-6.699,4.942-9.181,8.156c-1.353,1.753-1.976,4.122-2.543,6.214
					c-1.505,5.55-2.28,11.331-3.181,16.999C103.711,291.405,106.602,292.218,106.905,290.311L106.905,290.311z"/>
			</g>
		</g>
		<g>
			<g>
				<path style="fill:#FFFFFF;" d="M138.311,289.912c0.022-7.597-0.307-15.865,2.149-23.169c1.249-3.712,4.352-5.884,7.204-8.313
					c1.476-1.256-0.657-3.367-2.121-2.121c-2.96,2.52-5.959,4.772-7.511,8.468c-3.213,7.653-2.697,17.041-2.721,25.135
					C135.305,291.847,138.305,291.847,138.311,289.912L138.311,289.912z"/>
			</g>
		</g>
		<g>
			<g>
				<path style="fill:#FFFFFF;" d="M132.354,289.912c0.04-7.537-0.21-16.395,3.811-23.099c2.419-4.034,7.304-5.902,11.196-8.148
					c1.675-0.966,0.165-3.559-1.514-2.59c-4.34,2.504-8.849,4.513-11.894,8.655c-4.957,6.742-4.558,17.328-4.599,25.182
					C129.343,291.848,132.343,291.846,132.354,289.912L132.354,289.912z"/>
			</g>
		</g>
		<g>
			<g>
				<path style="fill:#FFFFFF;" d="M148.437,289.912c0.049-6.599-0.401-16.325,4.525-21.601c1.479-1.584,3.773-1.983,4.037-4.438
					c0.207-1.923-2.795-1.902-3,0c-0.014,0.133-3.935,3.174-4.574,4.095c-4.139,5.953-3.938,15.099-3.988,21.944
					C145.423,291.848,148.423,291.846,148.437,289.912L148.437,289.912z"/>
			</g>
		</g>
		<g>
			<g>
				<path style="fill:#FFFFFF;" d="M142.426,290.311c1.042-5.548,1.42-14.122,5.206-18.738c2.219-2.705,6.288-4.275,8.929-6.639
					c1.444-1.293-0.685-3.407-2.121-2.121c-2.806,2.511-6.811,4.057-9.2,6.97c-4.108,5.01-4.575,13.71-5.706,19.731
					C139.178,291.404,142.069,292.211,142.426,290.311L142.426,290.311z"/>
			</g>
		</g>
		<g>
			<g>
				<path style="fill:#FFFFFF;" d="M127.928,290.021c-0.04-5.097-0.108-10.867-2.662-15.452c-0.558-1.002-1.361-1.87-2.276-2.551
					c-0.647-0.48-1.229-1.219-1.152-0.519c-0.21-1.901-3.212-1.922-3,0c0.199,1.805,1.552,2.173,2.756,3.229
					c3.762,3.3,3.3,10.903,3.334,15.292C124.943,291.955,127.943,291.957,127.928,290.021L127.928,290.021z"/>
			</g>
		</g>
		<g>
			<g>
				<path style="fill:#FFFFFF;" d="M132.112,289.623c-0.823-4.38-1.216-10.154-3.93-13.916c-1.64-2.273-4.714-3.418-6.784-5.268
					c-1.437-1.285-3.566,0.829-2.121,2.121c1.893,1.691,4.327,2.768,6.136,4.491c0.954,0.909,1.321,2.383,1.687,3.595
					c0.96,3.184,1.506,6.512,2.12,9.773C129.576,292.32,132.467,291.514,132.112,289.623L132.112,289.623z"/>
			</g>
		</g>
		<g>
			<g>
				<path style="fill:#FFFFFF;" d="M170.787,290.021c0.047-7.559-0.078-16.375,4.069-23.036c2.11-3.39,5.992-5.196,8.972-7.692
					c1.485-1.243-0.648-3.354-2.121-2.121c-3.296,2.761-6.954,4.666-9.441,8.3c-4.63,6.764-4.43,16.777-4.479,24.55
					C167.775,291.957,170.775,291.955,170.787,290.021L170.787,290.021z"/>
			</g>
		</g>
		<g>
			<g>
				<path style="fill:#FFFFFF;" d="M164.83,290.021c0.066-7.716,0.262-16.977,5.863-22.974c3.381-3.621,8.623-5.12,12.832-7.521
					c1.68-0.958,0.169-3.55-1.514-2.59c-4.771,2.721-10.11,4.424-13.947,8.532c-5.891,6.308-6.166,16.484-6.234,24.552
					C161.813,291.957,164.813,291.955,164.83,290.021L164.83,290.021z"/>
			</g>
		</g>
		<g>
			<g>
				<path style="fill:#FFFFFF;" d="M178.592,289.773c0.033-4.581-0.399-11.539,2.875-15.321c1.091-1.261,2.609-1.587,2.801-3.473
					c0.195-1.924-2.807-1.905-3,0c0.057-0.554-2.553,2.101-2.977,2.768c-2.832,4.458-2.663,11.005-2.698,16.026
					C175.579,291.709,178.579,291.707,178.592,289.773L178.592,289.773z"/>
			</g>
		</g>
		<g>
			<g>
				<path style="fill:#FFFFFF;" d="M174.59,290.172c0.718-4.159,0.955-9.753,3.371-13.398c1.249-1.885,4.229-3.139,5.868-4.733
					c1.389-1.352-0.734-3.471-2.121-2.121c-1.872,1.821-4.577,3.003-6.148,5.09c-2.841,3.772-3.097,9.935-3.862,14.366
					C171.371,291.267,174.261,292.076,174.59,290.172L174.59,290.172z"/>
			</g>
		</g>
		<g>
			<g>
				<path style="fill:#FFFFFF;" d="M158.796,289.885c-0.023-6.19,1.277-16.4-4.54-20.456c-1.591-1.11-3.089,1.492-1.515,2.59
					c0.888,0.619,1.206,0.58,1.647,1.779c1.808,4.904,1.388,10.975,1.407,16.087C155.804,291.819,158.804,291.819,158.796,289.885
					L158.796,289.885z"/>
			</g>
		</g>
		<g>
			<g>
				<path style="fill:#FFFFFF;" d="M164.776,289.486c-0.786-4.545-1.104-10.401-3.748-14.385c-1.517-2.284-4.518-3.544-6.468-5.438
					c-1.388-1.349-3.511,0.771-2.121,2.121c1.789,1.738,4.133,2.878,5.84,4.646c0.921,0.954,1.246,2.514,1.586,3.741
					c0.917,3.305,1.434,6.737,2.018,10.111C162.212,292.188,165.103,291.378,164.776,289.486L164.776,289.486z"/>
			</g>
		</g>
	</g>
</g>
<g id="Ebene_1">
</g>
</svg>
