<?xml version="1.0" encoding="iso-8859-1"?>
<!-- Generator: Adobe Illustrator 16.0.0, SVG Export Plug-In . SVG Version: 6.00 Build 0)  -->
<!DOCTYPE svg PUBLIC "-//W3C//DTD SVG 1.1//EN" "http://www.w3.org/Graphics/SVG/1.1/DTD/svg11.dtd">
<svg version="1.1" xmlns="http://www.w3.org/2000/svg" xmlns:xlink="http://www.w3.org/1999/xlink" x="0px" y="0px" width="361px"
	 height="361px" viewBox="0 0 361 361" style="enable-background:new 0 0 361 361;" xml:space="preserve">
<g id="scene_x5F_pool">
	<path style="fill:none;stroke:#FFFFFF;" d="M153.914,172.627"/>
	<g>
		<g>
			<g>
				<path style="fill:#FFFFFF;" d="M123.474,216.601c0-22.041,0-44.082,0-66.123c0-4.509-0.271-8.72-4.11-11.888
					c-4.587-3.785-12.307-2.489-17.832-2.489c-5.664,0-12.642-1.092-17.799,1.708c-6.462,3.508-5.122,12.216-5.122,18.292
					c0,6.449,10,6.449,10,0c0-1.959-1.277-10,1.475-10c5.39,0,10.779,0,16.168,0c1.856,0,7.22-1.134,7.22,1.655
					c0,3.34,0,6.679,0,10.019c0,19.609,0,39.218,0,58.826C113.474,223.049,123.474,223.049,123.474,216.601L123.474,216.601z"/>
			</g>
		</g>
		<g>
			<g>
				<path style="fill:#FFFFFF;" d="M149.157,186.666c0-22.041,0-44.082,0-66.123c0-4.509-0.271-8.72-4.11-11.888
					c-4.587-3.785-12.307-2.489-17.832-2.489c-5.664,0-12.642-1.092-17.799,1.708c-6.462,3.508-5.122,12.216-5.122,18.292
					c0,6.449,10,6.449,10,0c0-1.959-1.277-10,1.475-10c5.39,0,10.779,0,16.168,0c1.856,0,7.22-1.134,7.22,1.655
					c0,3.34,0,6.679,0,10.019c0,19.608,0,39.217,0,58.826C139.157,193.114,149.157,193.114,149.157,186.666L149.157,186.666z"/>
			</g>
		</g>
	</g>
	<g>
		<g>
			<path style="fill:#FFFFFF;" d="M72.379,219.11c14.259-20.364,28.519-40.729,42.778-61.093c2.423-3.46,4.845-6.92,7.268-10.38
				c1.87-2.67,4.38-4.585,7.476-5.688c1.47-0.524,10.916-1.357,10.475,1.444c-0.337,2.14-3.151,5.031-4.316,6.695
				c-3.028,4.325-6.056,8.65-9.084,12.975c-19.015,27.156-38.029,54.311-57.044,81.467c-1.112,1.589,1.49,3.086,2.591,1.514
				c13.283-18.97,26.566-37.94,39.849-56.911c7.966-11.376,15.932-22.753,23.898-34.13c2.618-3.738,13.127-16.375,1.98-16.375
				c-6.227,0-10.773,0.059-15.812,4.346c-1.631,1.388-2.87,3.531-4.096,5.282c-5.591,7.984-11.182,15.969-16.773,23.954
				c-10.594,15.129-21.187,30.259-31.781,45.388C68.676,219.186,71.278,220.683,72.379,219.11L72.379,219.11z"/>
		</g>
	</g>
	<g>
		<g>
			<path style="fill:#FFFFFF;" d="M165.597,244.638c-7.797-1.508-14.692-1.216-22.432,0.327c-6.313,1.259-12.635,3.177-19.098,3.368
				c-6.003,0.178-12.222-1.923-18.084-3.16c-8.076-1.703-15.292-2.111-23.445-0.535c-1.898,0.367-1.092,3.258,0.798,2.893
				c8.263-1.598,15.422-0.855,23.56,0.9c5.65,1.219,11.371,2.73,17.172,2.902c5.47,0.162,11.212-1.572,16.519-2.759
				c8.329-1.863,15.743-2.682,24.213-1.044C166.689,247.896,167.495,245.005,165.597,244.638L165.597,244.638z"/>
			<path style="fill:#FFFFFF;" d="M145.793,247.521c8.263-1.598,15.422-0.855,23.559,0.899c5.65,1.218,11.371,2.73,17.173,2.902
				c5.47,0.162,11.212-1.572,16.518-2.759c8.329-1.862,15.743-2.681,24.215-1.043c1.89,0.365,2.695-2.525,0.797-2.893
				c-7.797-1.508-14.692-1.216-22.433,0.327c-6.313,1.258-12.635,3.176-19.097,3.367c-6.003,0.178-12.222-1.924-18.084-3.159
				c-8.076-1.703-15.292-2.112-23.445-0.535C143.098,244.995,143.903,247.886,145.793,247.521L145.793,247.521z"/>
			<path style="fill:#FFFFFF;" d="M208.025,247.509c8.264-1.597,15.423-0.854,23.56,0.9c5.65,1.218,11.371,2.731,17.173,2.903
				c5.471,0.162,11.213-1.573,16.52-2.76c8.329-1.862,15.742-2.681,24.213-1.044c1.89,0.365,2.695-2.526,0.797-2.893
				c-7.796-1.507-14.691-1.215-22.431,0.328c-6.313,1.258-12.636,3.177-19.099,3.368c-6.003,0.178-12.222-1.925-18.084-3.16
				c-8.076-1.703-15.293-2.111-23.445-0.536C205.33,244.982,206.136,247.874,208.025,247.509L208.025,247.509z"/>
		</g>
	</g>
	<g>
		<g>
			<path style="fill:#FFFFFF;" d="M180.597,227.138c-7.797-1.508-14.692-1.216-22.432,0.327c-6.313,1.259-12.635,3.177-19.098,3.368
				c-6.003,0.178-12.222-1.923-18.084-3.16c-8.076-1.703-15.292-2.111-23.445-0.535c-1.898,0.367-1.092,3.258,0.798,2.893
				c8.263-1.598,15.422-0.855,23.56,0.9c5.65,1.219,11.371,2.73,17.172,2.902c5.47,0.162,11.212-1.572,16.519-2.759
				c8.329-1.863,15.743-2.682,24.213-1.044C181.689,230.396,182.495,227.505,180.597,227.138L180.597,227.138z"/>
			<path style="fill:#FFFFFF;" d="M160.793,230.021c8.263-1.598,15.422-0.855,23.559,0.899c5.65,1.218,11.371,2.73,17.173,2.902
				c5.47,0.162,11.212-1.572,16.518-2.759c8.329-1.862,15.743-2.681,24.215-1.043c1.89,0.365,2.695-2.525,0.797-2.893
				c-7.797-1.508-14.692-1.216-22.433,0.327c-6.313,1.258-12.635,3.176-19.097,3.367c-6.003,0.178-12.222-1.924-18.084-3.159
				c-8.076-1.703-15.293-2.112-23.446-0.535C158.098,227.495,158.903,230.386,160.793,230.021L160.793,230.021z"/>
			<path style="fill:#FFFFFF;" d="M223.025,230.009c11.508-2.224,21.653,0.771,32.836,2.827c11.851,2.18,22.42-2.109,34.027-3.626
				c1.89-0.247,1.914-3.25,0-3c-5.279,0.689-10.409,2.009-15.613,3.079c-7.482,1.537-13.552,1.491-21.033,0
				c-4.406-0.879-8.765-1.938-13.193-2.708c-6.043-1.051-11.815-0.625-17.82,0.535C220.33,227.482,221.136,230.374,223.025,230.009
				L223.025,230.009z"/>
		</g>
	</g>
	<g>
		<g>
			<path style="fill:#FFFFFF;" d="M189.193,209.765c-9.021-1.743-16.916-0.911-25.808,1.044c-8.25,1.813-16.049,3.575-24.461,1.479
				c-1.878-0.468-2.674,2.425-0.798,2.893c8.562,2.134,16.595,0.668,25.034-1.247c8.659-1.966,16.408-2.981,25.236-1.275
				C190.286,213.022,191.092,210.131,189.193,209.765L189.193,209.765z"/>
			<path style="fill:#FFFFFF;" d="M169.39,212.647c8.263-1.597,15.422-0.854,23.559,0.9c5.65,1.218,11.371,2.73,17.173,2.902
				c5.47,0.162,11.212-1.572,16.518-2.759c8.329-1.861,15.743-2.681,24.214-1.044c1.89,0.365,2.695-2.525,0.797-2.893
				c-7.796-1.507-14.691-1.215-22.432,0.328c-6.313,1.258-12.635,3.176-19.097,3.367c-6.003,0.178-12.222-1.924-18.084-3.159
				c-8.076-1.703-15.293-2.111-23.446-0.536C166.694,210.121,167.5,213.013,169.39,212.647L169.39,212.647z"/>
			<path style="fill:#FFFFFF;" d="M231.623,212.637c10.316-1.993,19.391,0.111,29.419,2.172c5.007,1.029,9.934,1.971,15.031,1.255
				c4.786-0.672,9.537-1.868,14.214-3.072c1.873-0.481,1.078-3.375-0.797-2.893c-4.361,1.122-8.759,2.131-13.194,2.909
				c-5.771,1.012-11.539-0.448-17.178-1.664c-9.734-2.099-18.359-3.519-28.292-1.6C228.928,210.11,229.733,213.002,231.623,212.637
				L231.623,212.637z"/>
		</g>
	</g>
	<g>
		<g>
			<path style="fill:#FFFFFF;" d="M236.574,153.74c-7.797-1.507-14.692-1.215-22.432,0.328c-6.313,1.258-12.635,3.177-19.098,3.368
				c-6.003,0.178-12.222-1.924-18.084-3.16c-8.076-1.703-15.292-2.111-23.445-0.536c-1.898,0.367-1.092,3.258,0.798,2.893
				c8.263-1.596,15.422-0.854,23.56,0.9c5.65,1.218,11.371,2.731,17.172,2.903c5.471,0.162,11.212-1.573,16.519-2.759
				c8.329-1.862,15.743-2.681,24.214-1.044C237.667,156.998,238.473,154.107,236.574,153.74L236.574,153.74z"/>
			<path style="fill:#FFFFFF;" d="M216.771,156.623c7.659-1.48,14.278-1.02,21.851,0.536c4.842,0.995,9.636,2.141,14.532,2.863
				c11.752,1.735,23.094-4.249,34.761-4.594c1.93-0.057,1.936-3.057,0-3c-12.331,0.365-23.875,6.354-36.313,4.337
				c-5.183-0.84-10.276-2.154-15.431-3.145c-6.911-1.328-13.275-1.228-20.196,0.11C214.075,154.097,214.881,156.988,216.771,156.623
				L216.771,156.623z"/>
			<path style="fill:#FFFFFF;" d="M279.004,156.612c3.489-0.686,6.781-1.21,10.321-1.196c1.935,0.008,1.935-2.992,0-3
				c-3.801-0.016-7.378,0.567-11.118,1.303C276.31,154.093,277.115,156.984,279.004,156.612L279.004,156.612z"/>
		</g>
	</g>
	<g>
		<g>
			<path style="fill:#FFFFFF;" d="M221.838,171.432c-10.523-2.034-19.725-0.203-30.001,1.964
				c-5.854,1.234-11.248,1.925-17.188,1.284c-5.011-0.541-10.006-1.259-14.99-2.008c-1.892-0.285-2.706,2.606-0.798,2.893
				c9.818,1.476,19.472,3.306,29.344,1.587c4.026-0.701,7.996-1.677,11.998-2.499c7.203-1.48,13.57-1.732,20.838-0.328
				C222.931,174.689,223.736,171.798,221.838,171.432L221.838,171.432z"/>
			<path style="fill:#FFFFFF;" d="M202.033,174.314c8.263-1.596,15.423-0.854,23.56,0.9c5.65,1.218,11.371,2.731,17.173,2.903
				c5.47,0.162,11.212-1.573,16.518-2.759c8.329-1.861,15.744-2.68,24.215-1.043c1.89,0.365,2.695-2.526,0.797-2.893
				c-7.797-1.507-14.692-1.215-22.432,0.327c-6.313,1.258-12.635,3.177-19.098,3.368c-6.003,0.178-12.222-1.924-18.084-3.16
				c-8.076-1.702-15.293-2.11-23.445-0.535C199.338,171.789,200.144,174.68,202.033,174.314L202.033,174.314z"/>
			<path style="fill:#FFFFFF;" d="M264.267,174.304c8.777-1.696,16.518-0.728,25.129,1.25c1.883,0.433,2.683-2.459,0.797-2.893
				c-9.165-2.105-17.405-3.051-26.723-1.25C261.571,171.778,262.377,174.669,264.267,174.304L264.267,174.304z"/>
		</g>
	</g>
	<g>
		<g>
			<path style="fill:#FFFFFF;" d="M208.021,190.182c-9.021-1.743-16.916-0.911-25.809,1.044c-8.72,1.917-16.584,3.422-25.469,1.281
				c-1.88-0.453-2.678,2.439-0.798,2.893c8.932,2.152,16.905,0.993,25.731-0.979c8.774-1.961,16.594-3.075,25.548-1.346
				C209.113,193.439,209.919,190.548,208.021,190.182L208.021,190.182z"/>
			<path style="fill:#FFFFFF;" d="M188.217,193.064c8.263-1.597,15.423-0.854,23.56,0.899c5.65,1.218,11.371,2.731,17.173,2.903
				c5.47,0.162,11.212-1.573,16.518-2.76c8.329-1.861,15.744-2.68,24.215-1.043c1.89,0.365,2.695-2.526,0.797-2.893
				c-7.797-1.507-14.692-1.215-22.433,0.327c-6.313,1.258-12.635,3.177-19.097,3.368c-6.003,0.178-12.222-1.925-18.084-3.16
				c-8.076-1.702-15.293-2.11-23.445-0.535C185.521,190.538,186.327,193.43,188.217,193.064L188.217,193.064z"/>
			<path style="fill:#FFFFFF;" d="M250.449,193.054c7.985-1.544,14.887-0.934,22.765,0.729c5.529,1.166,10.989,2.901,16.675,3.095
				c1.936,0.065,1.93-2.935,0-3c-6.034-0.205-11.914-2.178-17.804-3.389c-7.719-1.587-14.658-1.831-22.433-0.327
				C247.754,190.528,248.56,193.419,250.449,193.054L250.449,193.054z"/>
		</g>
	</g>
</g>
<g id="Ebene_1">
</g>
</svg>
