<?xml version="1.0" encoding="iso-8859-1"?>
<!-- Generator: Adobe Illustrator 16.0.0, SVG Export Plug-In . SVG Version: 6.00 Build 0)  -->
<!DOCTYPE svg PUBLIC "-//W3C//DTD SVG 1.1//EN" "http://www.w3.org/Graphics/SVG/1.1/DTD/svg11.dtd">
<svg version="1.1" xmlns="http://www.w3.org/2000/svg" xmlns:xlink="http://www.w3.org/1999/xlink" x="0px" y="0px" width="361px"
	 height="361px" viewBox="0 0 361 361" style="enable-background:new 0 0 361 361;" xml:space="preserve">
<g id="scene_x5F_day">
	<g>
		<g>
			<path style="fill:#FFFFFF;" d="M157.138,70.994c-4.521,4.521-9.042,9.043-13.564,13.564c-4.563,4.564,2.507,11.635,7.071,7.071
				c4.521-4.521,9.042-9.043,13.564-13.564C168.773,73.501,161.702,66.43,157.138,70.994L157.138,70.994z"/>
		</g>
	</g>
	<g>
		<g>
			<path style="fill:#FFFFFF;" d="M191.83,110.139c-12.006,0-24.012,0-36.018,0c-6.449,0-6.449,10,0,10c12.006,0,24.012,0,36.018,0
				C198.278,120.139,198.278,110.139,191.83,110.139L191.83,110.139z"/>
		</g>
	</g>
	<g>
		<g>
			<path style="fill:#FFFFFF;" d="M79.647,161.552c4.56-4.56,9.12-9.12,13.681-13.68c4.563-4.563-2.507-11.635-7.071-7.071
				c-4.56,4.56-9.12,9.12-13.681,13.68C68.012,159.044,75.083,166.115,79.647,161.552L79.647,161.552z"/>
		</g>
	</g>
	<g>
		<g>
			<path style="fill:#FFFFFF;" d="M122.914,189.057c0-12.006,0-24.012,0-36.018c0-6.449-10-6.449-10,0c0,12.006,0,24.012,0,36.018
				C112.914,195.505,122.914,195.505,122.914,189.057L122.914,189.057z"/>
		</g>
	</g>
	<g>
		<g>
			<path style="fill:#FFFFFF;" d="M175.039,166.269c-8.49-8.489-16.979-16.979-25.469-25.469c-4.564-4.563-11.635,2.507-7.071,7.071
				c8.49,8.489,16.979,16.979,25.469,25.469C172.532,177.904,179.603,170.833,175.039,166.269L175.039,166.269z"/>
		</g>
	</g>
	<g>
		<g>
			<path style="fill:#FFFFFF;" d="M191.83,110.139c-12.006,0-24.012,0-36.018,0c-6.449,0-6.449,10,0,10c12.006,0,24.012,0,36.018,0
				C198.278,120.139,198.278,110.139,191.83,110.139L191.83,110.139z"/>
		</g>
	</g>
	<g>
		<g>
			<path style="fill:#FFFFFF;" d="M122.914,189.057c0-12.006,0-24.012,0-36.018c0-6.449-10-6.449-10,0c0,12.006,0,24.012,0,36.018
				C112.914,195.505,122.914,195.505,122.914,189.057L122.914,189.057z"/>
		</g>
	</g>
	<g>
		<g>
			<path style="fill:#FFFFFF;" d="M175.039,166.269c-8.49-8.489-16.979-16.979-25.469-25.469c-4.564-4.563-11.635,2.507-7.071,7.071
				c8.49,8.489,16.979,16.979,25.469,25.469C172.532,177.904,179.603,170.833,175.039,166.269L175.039,166.269z"/>
		</g>
	</g>
	<g>
		<g>
			<path style="fill:#FFFFFF;" d="M164.274,91.141c-3.38,1.4-6.761,2.8-10.141,4.201c-2.516,1.042-4.283,3.275-3.492,6.15
				c0.655,2.382,3.627,4.537,6.15,3.492c3.38-1.4,6.761-2.8,10.141-4.201c2.516-1.042,4.283-3.275,3.492-6.15
				C169.769,92.251,166.797,90.096,164.274,91.141L164.274,91.141z"/>
		</g>
	</g>
	<g>
		<g>
			<path style="fill:#FFFFFF;" d="M166.625,131.352c-3.38-1.4-6.761-2.8-10.142-4.2c-2.523-1.045-5.495,1.11-6.15,3.492
				c-0.791,2.875,0.976,5.108,3.492,6.15c3.38,1.4,6.761,2.8,10.142,4.2c2.523,1.045,5.495-1.11,6.15-3.492
				C170.908,134.627,169.141,132.394,166.625,131.352L166.625,131.352z"/>
		</g>
	</g>
	<g>
		<g>
			<path style="fill:#FFFFFF;" d="M142.216,161.207c-1.4-3.381-2.8-6.761-4.201-10.142c-1.042-2.516-3.275-4.283-6.15-3.492
				c-2.382,0.655-4.537,3.627-3.492,6.15c1.4,3.381,2.8,6.761,4.201,10.142c1.042,2.516,3.275,4.283,6.15,3.492
				C141.106,166.702,143.261,163.729,142.216,161.207L142.216,161.207z"/>
		</g>
	</g>
	<g>
		<g>
			<path style="fill:#FFFFFF;" d="M103.543,163.865c1.4-3.38,2.801-6.761,4.201-10.142c1.045-2.523-1.11-5.495-3.492-6.15
				c-2.875-0.791-5.108,0.976-6.15,3.492c-1.4,3.38-2.801,6.761-4.201,10.142c-1.045,2.523,1.11,5.495,3.492,6.15
				C100.268,168.148,102.501,166.381,103.543,163.865L103.543,163.865z"/>
		</g>
	</g>
	<g>
		<g>
			<path style="fill:#FFFFFF;" d="M132.544,73.109c-0.775,1.87-1.55,3.741-2.325,5.611c-1.045,2.522,1.11,5.495,3.492,6.15
				c2.875,0.791,5.108-0.976,6.15-3.492c0.775-1.87,1.55-3.741,2.325-5.611c1.045-2.522-1.11-5.495-3.492-6.15
				C135.819,68.826,133.586,70.593,132.544,73.109L132.544,73.109z"/>
		</g>
	</g>
	<g>
		<g>
			<path style="fill:#FFFFFF;" d="M77.049,137.989c1.953-0.809,3.906-1.617,5.859-2.426c2.516-1.042,4.283-3.275,3.492-6.15
				c-0.655-2.383-3.627-4.537-6.15-3.492c-1.953,0.809-3.906,1.617-5.859,2.426c-2.516,1.042-4.283,3.275-3.492,6.15
				C71.554,136.88,74.526,139.034,77.049,137.989L77.049,137.989z"/>
		</g>
	</g>
	<path style="fill:none;stroke:#FFFFFF;stroke-width:10;stroke-miterlimit:10;" d="M92.406,124.168
		c0,8.159,6.614,14.774,14.773,14.774h19.005c8.16,0,14.774-6.615,14.774-14.774v-18.057c0-8.159-6.614-14.774-14.774-14.774H107.18
		c-8.159,0-14.773,6.615-14.773,14.774V124.168z"/>
	<g>
		<g>
			<g>
				<path style="fill:#FFFFFF;" d="M119.661,254.249c4.432-5.581,8.864-11.163,13.296-16.745c1.693-2.132,2.091-4.979,0-7.07
					c-1.762-1.762-5.374-2.139-7.071,0c-4.432,5.581-8.864,11.163-13.296,16.745c-1.693,2.132-2.091,4.979,0,7.07
					C114.351,256.011,117.963,256.388,119.661,254.249L119.661,254.249z"/>
			</g>
		</g>
		<g>
			<g>
				<path style="fill:#FFFFFF;" d="M129.975,238.066c7.091-0.718,14.182-1.435,21.273-2.152c6.352-0.643,6.415-10.649,0-10
					c-7.091,0.718-14.182,1.435-21.273,2.152C123.623,228.709,123.56,238.716,129.975,238.066L129.975,238.066z"/>
			</g>
		</g>
		<g>
			<g>
				<path style="fill:#FFFFFF;" d="M116.603,246.535c-6.94-1.619-13.881-3.238-20.822-4.857c-6.274-1.464-8.937,8.178-2.658,9.643
					c6.94,1.619,13.881,3.238,20.822,4.857C120.218,257.642,122.881,248,116.603,246.535L116.603,246.535z"/>
			</g>
		</g>
		<g>
			<g>
				<path style="fill:#FFFFFF;" d="M90.468,242.397c-6.026,3.808-12.051,7.614-18.077,11.422c-5.435,3.434-0.422,12.091,5.047,8.635
					c6.026-3.808,12.051-7.614,18.077-11.422C100.95,247.599,95.937,238.941,90.468,242.397L90.468,242.397z"/>
			</g>
		</g>
		<g>
			<g>
				<path style="fill:#FFFFFF;" d="M178.558,263.402c3.668-3.199,7.337-6.399,11.005-9.6c2.056-1.792,1.828-5.242,0-7.07
					c-2.024-2.024-5.019-1.79-7.07,0c-3.669,3.199-7.337,6.399-11.006,9.6c-2.055,1.792-1.828,5.242,0,7.07
					C173.511,265.427,176.506,265.192,178.558,263.402L178.558,263.402z"/>
			</g>
		</g>
		<g>
			<g>
				<path style="fill:#FFFFFF;" d="M185.495,254.726c4.726,1.167,9.452,2.333,14.178,3.5c6.261,1.546,8.917-8.098,2.658-9.643
					c-4.726-1.167-9.452-2.333-14.178-3.5C181.893,243.537,179.237,253.181,185.495,254.726L185.495,254.726z"/>
			</g>
		</g>
		<g>
			<g>
				<path style="fill:#FFFFFF;" d="M176.895,255.876c-4.461-1.947-8.922-3.896-13.384-5.843c-2.498-1.091-5.345-0.76-6.841,1.794
					c-1.254,2.142-0.706,5.75,1.794,6.841c4.461,1.947,8.922,3.896,13.384,5.843c2.498,1.091,5.345,0.76,6.841-1.794
					C179.943,260.575,179.394,256.967,176.895,255.876L176.895,255.876z"/>
			</g>
		</g>
		<g>
			<g>
				<path style="fill:#FFFFFF;" d="M157.955,250.514c-3.883,2.936-7.767,5.872-11.649,8.808c-2.169,1.641-3.294,4.279-1.794,6.841
					c1.255,2.143,4.661,3.441,6.841,1.794c3.883-2.936,7.767-5.872,11.649-8.808c2.169-1.641,3.294-4.279,1.794-6.841
					C163.541,250.165,160.135,248.866,157.955,250.514L157.955,250.514z"/>
			</g>
		</g>
	</g>
	<g>
		<path style="fill:#FFFFFF;stroke:#FFFFFF;stroke-width:10;stroke-miterlimit:10;" d="M250.104,221.609
			c0,1.961-1.982,3.55-4.43,3.55h-34.332c-2.445,0-4.43-1.589-4.43-3.55v-25.73c0-1.961,1.984-3.55,4.43-3.55h34.332
			c2.447,0,4.43,1.589,4.43,3.55V221.609z"/>
		<path style="fill:#FFFFFF;stroke:#FFFFFF;stroke-width:10;stroke-miterlimit:10;" d="M187.256,206.672
			c0,3.258,2.641,5.897,5.897,5.897h27.519c3.258,0,5.897-2.64,5.897-5.897v-16.707c0-3.257-2.64-5.897-5.897-5.897h-27.519
			c-3.257,0-5.897,2.641-5.897,5.897V206.672z"/>
		<path style="fill:#FFFFFF;stroke:#FFFFFF;stroke-width:10;stroke-miterlimit:10;" d="M175.462,206.672
			c0-3.256,2.641-5.896,5.897-5.896h33.907c3.257,0,5.897,2.641,5.897,5.896v9.338c0,3.256-2.641,5.896-5.897,5.896h-33.907
			c-3.256,0-5.897-2.641-5.897-5.896V206.672z"/>
		<path style="fill:#FFFFFF;stroke:#FFFFFF;stroke-width:10;stroke-miterlimit:10;" d="M265.271,208.434
			c0-3.256-2.641-5.896-5.897-5.896h-33.906c-3.258,0-5.897,2.641-5.897,5.896v9.338c0,3.256,2.64,5.896,5.897,5.896h33.906
			c3.257,0,5.897-2.641,5.897-5.896V208.434z"/>
	</g>
	<g>
		<path style="fill:#FFFFFF;stroke:#FFFFFF;stroke-width:10;stroke-miterlimit:10;" d="M287.324,152.404
			c0-2.647-2.089-4.794-4.664-4.794h-26.82c-2.575,0-4.664,2.147-4.664,4.794v7.592c0,2.647,2.089,4.794,4.664,4.794h26.82
			c2.575,0,4.664-2.147,4.664-4.794V152.404z"/>
		<path style="fill:#FFFFFF;stroke:#FFFFFF;stroke-width:10;stroke-miterlimit:10;" d="M241.165,155.43
			c0,2.081,2.089,3.767,4.665,3.767h21.766c2.576,0,4.664-1.687,4.664-3.767v-10.674c0-2.08-2.088-3.767-4.664-3.767H245.83
			c-2.576,0-4.665,1.687-4.665,3.767V155.43z"/>
		<path style="fill:#FFFFFF;stroke:#FFFFFF;stroke-width:10;stroke-miterlimit:10;" d="M262.602,151.409
			c0-2.208-1.742-3.998-3.89-3.998h-22.364c-2.148,0-3.89,1.791-3.89,3.998v6.331c0,2.208,1.741,3.999,3.89,3.999h22.364
			c2.147,0,3.89-1.791,3.89-3.999V151.409z"/>
	</g>
</g>
<g id="Ebene_1">
</g>
</svg>
