<?xml version="1.0" encoding="iso-8859-1"?>
<!-- Generator: Adobe Illustrator 16.0.0, SVG Export Plug-In . SVG Version: 6.00 Build 0)  -->
<!DOCTYPE svg PUBLIC "-//W3C//DTD SVG 1.1//EN" "http://www.w3.org/Graphics/SVG/1.1/DTD/svg11.dtd">
<svg version="1.1" xmlns="http://www.w3.org/2000/svg" xmlns:xlink="http://www.w3.org/1999/xlink" x="0px" y="0px" width="361px"
	 height="361px" viewBox="0 0 361 361" style="enable-background:new 0 0 361 361;" xml:space="preserve">
<g id="scene_x5F_bath">
	<g>
		<g>
			<path style="fill:#FFFFFF;" d="M244.986,124.51c13.64,3.655,27.28,7.31,40.92,10.964c6.237,1.671,8.881-7.975,2.658-9.643
				c-13.64-3.655-27.28-7.31-40.92-10.964C241.407,113.196,238.764,122.843,244.986,124.51L244.986,124.51z"/>
		</g>
	</g>
	<g>
		<g>
			<path style="fill:#FFFFFF;" d="M241.435,118.581c-1.21,4.515-2.419,9.03-3.629,13.545c-1.671,6.237,7.976,8.881,9.643,2.658
				c1.21-4.515,2.419-9.03,3.629-13.545C252.748,115.002,243.102,112.358,241.435,118.581L241.435,118.581z"/>
		</g>
	</g>
	<g>
		<g>
			<path style="fill:#FFFFFF;" d="M219.201,134.45c14.157,3.793,28.313,7.587,42.471,11.38c6.237,1.671,8.881-7.975,2.658-9.643
				c-14.157-3.793-28.313-7.587-42.471-11.38C215.622,123.136,212.979,132.782,219.201,134.45L219.201,134.45z"/>
		</g>
	</g>
	<g>
		<g>
			<path style="fill:#FFFFFF;" d="M215.571,128.906c-0.575,2.146-1.149,4.293-1.725,6.44c-0.705,2.631,0.853,5.424,3.492,6.15
				c2.613,0.719,5.446-0.861,6.15-3.492c0.575-2.146,1.149-4.293,1.725-6.44c0.705-2.631-0.853-5.424-3.492-6.15
				C219.108,124.695,216.275,126.275,215.571,128.906L215.571,128.906z"/>
		</g>
	</g>
	<g>
		<g>
			<path style="fill:#FFFFFF;" d="M258.042,140.68c-0.575,2.146-1.149,4.293-1.725,6.44c-0.705,2.631,0.853,5.424,3.492,6.15
				c2.613,0.719,5.446-0.861,6.15-3.492c0.575-2.146,1.149-4.293,1.725-6.44c0.705-2.631-0.853-5.424-3.492-6.15
				C261.579,136.469,258.746,138.048,258.042,140.68L258.042,140.68z"/>
		</g>
	</g>
	<g>
		<g>
			<path style="fill:#FFFFFF;" d="M242.07,166.677c-1.297,4.84-2.594,9.681-3.891,14.521c-1.17,4.366,5.583,6.217,6.75,1.861
				c1.297-4.84,2.594-9.681,3.891-14.521C249.99,164.172,243.237,162.321,242.07,166.677L242.07,166.677z"/>
		</g>
	</g>
	<g>
		<g>
			<path style="fill:#FFFFFF;" d="M233.057,153.946c-1.101,4.11-2.202,8.221-3.303,12.331c-1.17,4.367,5.583,6.217,6.75,1.861
				c1.101-4.11,2.202-8.221,3.303-12.331C240.977,151.441,234.224,149.59,233.057,153.946L233.057,153.946z"/>
		</g>
	</g>
	<g>
		<g>
			<path style="fill:#FFFFFF;" d="M226.588,178.094c-1.832,6.841-3.665,13.682-5.497,20.522c-1.17,4.366,5.583,6.217,6.75,1.861
				c1.832-6.841,3.665-13.682,5.497-20.522C234.508,175.588,227.755,173.738,226.588,178.094L226.588,178.094z"/>
		</g>
	</g>
	<g>
		<g>
			<path style="fill:#FFFFFF;" d="M218.887,160.467c-1.296,4.841-2.593,9.682-3.889,14.522c-1.169,4.367,5.584,6.218,6.75,1.861
				c1.296-4.841,2.593-9.682,3.889-14.522C226.806,157.961,220.053,156.111,218.887,160.467L218.887,160.467z"/>
		</g>
	</g>
	<g>
		<g>
			<path style="fill:#FFFFFF;" d="M211.998,186.184c-1.832,6.841-3.665,13.682-5.497,20.522c-1.17,4.366,5.583,6.217,6.75,1.861
				c1.832-6.841,3.665-13.682,5.497-20.522C219.918,183.679,213.165,181.828,211.998,186.184L211.998,186.184z"/>
		</g>
	</g>
	<g>
		<g>
			<path style="fill:#FFFFFF;" d="M235.779,191.637c-1.832,6.841-3.665,13.682-5.497,20.522c-1.17,4.366,5.583,6.217,6.75,1.861
				c1.832-6.841,3.665-13.682,5.497-20.522C243.699,189.132,236.946,187.281,235.779,191.637L235.779,191.637z"/>
		</g>
	</g>
	<g>
		<g>
			<path style="fill:#FFFFFF;" d="M251.377,179.174c-1.345,5.023-2.69,10.044-4.035,15.067c-1.169,4.366,5.583,6.218,6.75,1.861
				c1.345-5.022,2.69-10.045,4.035-15.067C259.296,176.669,252.544,174.818,251.377,179.174L251.377,179.174z"/>
		</g>
	</g>
	<g>
		<g>
			<path style="fill:#FFFFFF;" d="M243.688,207.616c-0.405,1.515-0.812,3.029-1.217,4.543c-0.493,1.842,0.597,3.798,2.444,4.306
				c1.829,0.503,3.813-0.603,4.306-2.444c0.405-1.515,0.812-3.029,1.217-4.543c0.493-1.842-0.597-3.798-2.444-4.306
				C246.164,204.669,244.181,205.774,243.688,207.616L243.688,207.616z"/>
		</g>
	</g>
	<g>
		<g>
			<path style="fill:#FFFFFF;" d="M204.719,166.372c-1.345,5.022-2.69,10.045-4.035,15.067c-1.169,4.366,5.583,6.218,6.75,1.861
				c1.345-5.022,2.69-10.045,4.035-15.067C212.638,163.866,205.886,162.016,204.719,166.372L204.719,166.372z"/>
		</g>
	</g>
	<g>
		<g>
			<path style="fill:#FFFFFF;" d="M197.057,194.711c-1.55,5.784-3.099,11.568-4.648,17.352c-1.17,4.366,5.583,6.217,6.75,1.861
				c1.55-5.784,3.099-11.568,4.648-17.352C204.977,192.206,198.224,190.355,197.057,194.711L197.057,194.711z"/>
		</g>
	</g>
	<g>
		<g>
			<path style="fill:#FFFFFF;" d="M246.596,150.518c-0.582,2.172-1.164,4.345-1.746,6.517c-1.17,4.367,5.583,6.217,6.75,1.861
				c0.582-2.172,1.164-4.345,1.746-6.517C254.516,148.013,247.763,146.162,246.596,150.518L246.596,150.518z"/>
		</g>
	</g>
	<g>
		<g>
			<path style="fill:#FFFFFF;" d="M223.84,144.335c-0.582,2.172-1.164,4.345-1.746,6.517c-1.17,4.367,5.583,6.217,6.75,1.861
				c0.582-2.172,1.164-4.345,1.746-6.517C231.76,141.83,225.007,139.979,223.84,144.335L223.84,144.335z"/>
		</g>
	</g>
	<g>
		<g>
			<path style="fill:#FFFFFF;" d="M255.45,164.742c-0.354,1.324-0.709,2.648-1.063,3.973c-0.493,1.842,0.597,3.797,2.444,4.306
				c1.829,0.503,3.813-0.603,4.306-2.444c0.354-1.324,0.709-2.648,1.063-3.973c0.493-1.842-0.597-3.797-2.444-4.306
				C257.927,161.794,255.943,162.9,255.45,164.742L255.45,164.742z"/>
		</g>
	</g>
	<g>
		<g>
			<path style="fill:#FFFFFF;" d="M209.25,151.96c-0.354,1.324-0.71,2.648-1.064,3.973c-0.493,1.842,0.597,3.797,2.444,4.306
				c1.829,0.503,3.813-0.603,4.306-2.444c0.354-1.324,0.71-2.648,1.064-3.973c0.493-1.842-0.597-3.797-2.444-4.306
				C211.727,149.013,209.743,150.118,209.25,151.96L209.25,151.96z"/>
		</g>
	</g>
	<g>
		<g>
			<path style="fill:#FFFFFF;" d="M109.833,292c4.222,0,8.444,0,12.667,0c6.449,0,6.449-10,0-10c-4.222,0-8.444,0-12.667,0
				C103.385,282,103.385,292,109.833,292L109.833,292z"/>
		</g>
	</g>
	<g>
		<g>
			<path style="fill:#FFFFFF;" d="M251.834,292c4.222,0,8.444,0,12.666,0c6.448,0,6.448-10,0-10c-4.222,0-8.444,0-12.666,0
				C245.386,282,245.386,292,251.834,292L251.834,292z"/>
		</g>
	</g>
	<g>
		<g>
			<path style="fill:#FFFFFF;" d="M275.414,274.338c-0.984,3.02-1.787,2.329-4.62,2.329c-3.787,0-7.575,0-11.362,0
				c-13.075,0-26.151,0-39.228,0c-31.08,0-62.16,0-93.239,0c-8.246,0-16.491,0-24.737,0c-2.538,0-2.58-2.379-3.555-4.622
				c-2.392-5.5-4.783-11-7.174-16.499c-3.075-7.072-6.149-14.144-9.224-21.215c-0.882-2.029-1.765-4.06-2.647-6.089
				c-0.156-0.358-0.312-0.717-0.467-1.075c1.342,3.087,0.352,1.5,1.788,1.5c5.824,0,11.648,0,17.473,0c56.749,0,113.497,0,170.246,0
				c3.591,0,7.181,0,10.771,0c0.596,0,1.191,0,1.787,0c0.615,0,1.142-0.018,1.152-0.083c-0.143,0.935-0.285,1.87-0.428,2.805
				C279.771,245.705,277.593,260.021,275.414,274.338c-0.96,6.306,8.675,9.017,9.643,2.658c1.871-12.293,3.741-24.587,5.612-36.881
				c0.691-4.544,2.735-11,0.416-15.308c-2.364-4.391-6.495-6.141-11.245-6.141c-21.331,0-42.662,0-63.993,0
				c-31.771,0-63.542,0-95.313,0c-10.61,0-21.221,0-31.831,0c-8.455,0-17.743-0.263-18.869,11c-0.139,1.39,1.061,3.395,1.63,4.703
				c1.146,2.637,2.292,5.272,3.439,7.909c3.156,7.261,6.313,14.521,9.47,21.78c2.018,4.641,4.035,9.281,6.053,13.922
				c2.248,5.169,5.136,8.686,11.104,8.686c21.911,0,43.822,0,65.732,0c25.685,0,51.371,0,77.056,0c8.135,0,16.27,0,24.405,0
				c1.694,0,3.389,0,5.082,0c6.271,0,9.439-4.114,11.252-9.671C287.062,270.848,277.404,268.235,275.414,274.338z"/>
		</g>
	</g>
	<g>
		<g>
			<path style="fill:#FFFFFF;" d="M217.904,208.616c-0.334,1.248-0.669,2.496-1.003,3.743c-0.493,1.842,0.597,3.798,2.444,4.306
				c1.829,0.503,3.813-0.603,4.306-2.444c0.334-1.248,0.669-2.496,1.003-3.743c0.493-1.842-0.597-3.798-2.444-4.306
				C220.381,205.669,218.397,206.774,217.904,208.616L217.904,208.616z"/>
		</g>
	</g>
	<g>
		<g>
			<path style="fill:#FFFFFF;" d="M282.235,133.009c0,32.219,0,64.438,0,96.658c0,6.448,10,6.448,10,0c0-32.22,0-64.439,0-96.658
				C292.235,126.56,282.235,126.56,282.235,133.009L282.235,133.009z"/>
		</g>
	</g>
</g>
<g id="Ebene_1">
</g>
</svg>
