<?xml version="1.0" encoding="iso-8859-1"?>
<!-- Generator: Adobe Illustrator 16.0.0, SVG Export Plug-In . SVG Version: 6.00 Build 0)  -->
<!DOCTYPE svg PUBLIC "-//W3C//DTD SVG 1.1 Tiny//EN" "http://www.w3.org/Graphics/SVG/1.1/DTD/svg11-tiny.dtd">
<svg version="1.1" baseProfile="tiny" id="scene_x5F_cinema"
	 xmlns="http://www.w3.org/2000/svg" xmlns:xlink="http://www.w3.org/1999/xlink" x="0px" y="0px" width="361px" height="361px"
	 viewBox="0 0 361 361" xml:space="preserve">
<g display="none">
	<g display="inline">
		<g>
			<path fill="#FFFFFF" d="M166.731,139.894c-0.502,3.735-5.599,2.752-7.889,2.752c-2.592,0-3.899-2.023-3.899-4.34
				c0-4.167,0-8.334,0-12.502c0-3.742,5.509-2.824,7.889-2.824c3.466,0,3.899,2.201,3.899,4.965
				C166.731,131.928,166.731,135.911,166.731,139.894c0,1.935,3,1.935,3,0c0-2.945,0-5.89,0-8.834c0-2.505,0.64-6.386-1.02-8.534
				c-3.502-4.534-16.768-4.148-16.768,3.207c0,2.945,0,5.89,0,8.834c0,2.522-0.65,6.372,1.02,8.534
				c2.465,3.19,6.255,2.545,9.869,2.545c3.868,0,6.375-1.849,6.899-5.752C169.988,137.981,166.985,138.006,166.731,139.894z"/>
		</g>
		<g>
			<path fill="#FFFFFF" d="M162.479,121.48c0,7.555,0,15.11,0,22.666c0,1.935,3,1.935,3,0c0-7.555,0-15.11,0-22.666
				C165.479,119.546,162.479,119.546,162.479,121.48L162.479,121.48z"/>
		</g>
	</g>
	<g display="inline">
		<g>
			<path fill="#FFFFFF" d="M83.016,163.136c2.411,0,4.822,0,7.232,0c2.726,0,5-2.274,5-5s-2.274-5-5-5c-2.411,0-4.822,0-7.232,0
				c-2.726,0-5,2.274-5,5S80.29,163.136,83.016,163.136L83.016,163.136z"/>
		</g>
		<g>
			<path fill="#FFFFFF" d="M133.187,163.136c2.411,0,4.822,0,7.232,0c2.726,0,5-2.274,5-5s-2.274-5-5-5c-2.411,0-4.822,0-7.232,0
				c-2.726,0-5,2.274-5,5S130.461,163.136,133.187,163.136L133.187,163.136z"/>
		</g>
		<g>
			<path fill="#FFFFFF" d="M149.965,149.387c-0.419,3.636-9.264,2.169-11.192,2.169c-7.258,0-14.517,0-21.775,0
				c-13.097,0-26.195,0-39.292,0c-5.127,0-3.576-7.036-3.576-10.419c0-5.94,0-11.881,0-17.822c0-3.556,9.651-2.169,11.192-2.169
				c7.258,0,14.517,0,21.775,0c13.097,0,26.195,0,39.292,0c5.127,0,3.576,7.036,3.576,10.419
				C149.965,137.505,149.965,143.446,149.965,149.387c0,4.514,7,4.514,7,0c0-5.941,0-11.882,0-17.822
				c0-5.833,1.252-14.217-5.746-16.718c-3.42-1.222-7.546-0.701-11.116-0.701c-7.048,0-14.096,0-21.145,0
				c-13.529,0-27.058,0-40.586,0c-5.635,0-11.244,2.681-11.244,9.217c0,6.226,0,12.452,0,18.678c0,3.297-0.828,8.646,1.054,11.605
				c2.357,3.708,5.672,4.91,9.841,4.91c9.037,0,18.074,0,27.111,0c11.212,0,22.425,0,33.638,0c7.707,0,17.007,1.125,18.192-9.169
				C157.481,144.907,150.475,144.957,149.965,149.387z"/>
		</g>
		<g>
			<path fill="#FFFFFF" d="M79.563,131.986c10.816,0,21.632,0,32.449,0c1.935,0,1.935-3,0-3c-10.816,0-21.632,0-32.449,0
				C77.628,128.986,77.628,131.986,79.563,131.986L79.563,131.986z"/>
		</g>
		<g>
			<path fill="#FFFFFF" d="M79.563,127.056c10.816,0,21.632,0,32.449,0c1.935,0,1.935-3,0-3c-10.816,0-21.632,0-32.449,0
				C77.628,124.056,77.628,127.056,79.563,127.056L79.563,127.056z"/>
		</g>
		<g>
			<path fill="#FFFFFF" d="M79.563,136.916c10.816,0,21.632,0,32.449,0c1.935,0,1.935-3,0-3c-10.816,0-21.632,0-32.449,0
				C77.628,133.916,77.628,136.916,79.563,136.916L79.563,136.916z"/>
		</g>
	</g>
</g>
<g>
	<path fill="#FFFFFF" d="M266.032,264.558c0.494,4.288,2.94,8.12,7.58,8.654c3.017,0.347,7.826,0.826,10.503-0.876
		c3.73-2.372,4.699-5.74,4.699-9.817c0-9.196,0-18.392,0-27.588c0-31.239,0-62.478,0-93.716c0-10.417,0-20.833,0-31.25
		c0-1.83,0.367-4.504-0.265-6.271c-1.402-3.921-4.402-6.649-8.752-6.649c-3.545,0-7.989-0.581-10.758,2.188
		c-4.706,4.706-3.008,14.104-3.008,20.17c0,13.277,0,26.553,0,39.83C266.032,194.342,266.032,229.45,266.032,264.558
		c0,4.514,7,4.514,7,0c0-49.14,0-98.28,0-147.419c0-3.243,0-6.486,0-9.73c0-4.418,8.783-4.652,8.783-1.562
		c0,6.196,0,12.393,0,18.589c0,30.472,0,60.943,0,91.414c0,12.47,0,24.939,0,37.408c0,3.167,0,6.335,0,9.502
		c0,0.575,0,1.149,0,1.723c0,2.808-8.461,2.867-8.783,0.074C272.522,260.128,265.516,260.078,266.032,264.558z"/>
</g>
<g>
	<path fill="#FFFFFF" d="M186.836,147.781c17.043-7.407,34.086-14.814,51.13-22.222c1.77-0.77,0.241-3.354-1.515-2.591
		c-17.043,7.407-34.086,14.814-51.129,22.222C183.552,145.96,185.082,148.544,186.836,147.781L186.836,147.781z"/>
</g>
<g>
	<path fill="#FFFFFF" d="M184.019,166.962c14.709,12.722,29.419,25.443,44.129,38.165c1.456,1.259,3.587-0.854,2.121-2.121
		c-14.709-12.722-29.419-25.443-44.129-38.165C184.685,163.582,182.553,165.694,184.019,166.962L184.019,166.962z"/>
</g>
<g>
	<g>
		<g>
			<path fill="#FFFFFF" d="M168.107,161.545c-1.012,3.739-5.343,2.294-7.682,1.987c-2.866-0.377-4.164-2.527-3.81-5.218
				c0.538-4.087,1.075-8.174,1.612-12.261c0.449-3.414,5.852-1.9,7.638-1.666c2.866,0.376,4.164,2.527,3.81,5.218
				c-0.541,4.113-1.082,8.226-1.623,12.339c-0.251,1.914,2.751,1.89,3,0c0.406-3.091,0.813-6.183,1.219-9.274
				c0.401-3.049,1.213-5.861-0.42-8.667c-1.586-2.726-5.78-2.588-8.472-2.942c-3.841-0.505-6.976,0.403-8.089,4.516
				c-0.75,2.773-0.783,5.942-1.156,8.785c-0.429,3.262-1.444,6.552,0.304,9.555c1.586,2.726,5.78,2.589,8.472,2.943
				c3.841,0.505,6.976-0.403,8.089-4.516C171.506,160.473,168.612,159.68,168.107,161.545z"/>
		</g>
		<g>
			<path fill="#FFFFFF" d="M166.239,143.133c-0.985,7.491-1.97,14.981-2.955,22.472c-0.251,1.914,2.751,1.89,3,0
				c0.985-7.491,1.97-14.981,2.955-22.472C169.49,141.219,166.487,141.244,166.239,143.133L166.239,143.133z"/>
		</g>
	</g>
	<g>
		<g>
			<path fill="#FFFFFF" d="M82.687,173.921c2.39,0.314,4.781,0.628,7.171,0.943c2.709,0.356,5-2.544,5-5c0-2.995-2.298-4.645-5-5
				c-2.39-0.314-4.781-0.628-7.171-0.943c-2.709-0.356-5,2.544-5,5C77.687,171.916,79.985,173.565,82.687,173.921L82.687,173.921z"
				/>
		</g>
		<g>
			<path fill="#FFFFFF" d="M132.43,180.461c2.39,0.314,4.781,0.628,7.171,0.943c2.709,0.356,5-2.544,5-5c0-2.995-2.298-4.645-5-5
				c-2.39-0.314-4.781-0.628-7.171-0.943c-2.709-0.356-5,2.544-5,5C127.43,178.456,129.729,180.106,132.43,180.461L132.43,180.461z"
				/>
		</g>
		<g>
			<path fill="#FFFFFF" d="M150.301,168.5c-0.994,3.968-8.416,1.599-11.261,1.224c-7.095-0.933-14.19-1.866-21.285-2.798
				c-13.205-1.736-26.41-3.473-39.616-5.209c-4.81-0.633-2.594-6.881-2.135-10.369c0.812-6.173,1.624-12.345,2.435-18.518
				c0.474-3.602,29.886,2.123,32.427,2.457c13.206,1.736,26.411,3.473,39.616,5.209c4.81,0.633,2.593,6.882,2.135,10.369
				c-0.814,6.188-1.627,12.377-2.441,18.566c-0.587,4.466,6.42,4.409,7,0c0.774-5.89,1.549-11.78,2.324-17.67
				c0.839-6.384,2.855-13.587-4.271-17.243c-2.896-1.486-7.524-1.386-10.662-1.799c-6.988-0.918-13.976-1.837-20.964-2.756
				c-13.414-1.764-26.827-3.527-40.241-5.291c-5.802-0.763-11.083,1.783-11.922,8.159c-0.812,6.173-1.624,12.345-2.435,18.518
				c-0.467,3.553-1.828,8.171-0.234,11.597c1.808,3.885,5.089,5.209,9.053,5.73c8.744,1.149,17.487,2.299,26.23,3.449
				c11.208,1.474,22.417,2.948,33.625,4.421c7.275,0.957,16.915,3.629,19.372-6.184C158.148,165.981,151.397,164.124,150.301,168.5z
				"/>
		</g>
		<g>
			<path fill="#FFFFFF" d="M82.868,142.557c10.724,1.41,21.448,2.82,32.172,4.23c1.914,0.251,1.89-2.751,0-3
				c-10.724-1.41-21.448-2.82-32.172-4.23C80.954,139.305,80.979,142.308,82.868,142.557L82.868,142.557z"/>
		</g>
		<g>
			<path fill="#FFFFFF" d="M83.511,137.668c10.724,1.41,21.448,2.82,32.172,4.23c1.914,0.251,1.89-2.751,0-3
				c-10.724-1.41-21.448-2.82-32.172-4.23C81.597,134.417,81.621,137.42,83.511,137.668L83.511,137.668z"/>
		</g>
		<g>
			<path fill="#FFFFFF" d="M82.226,147.445c10.724,1.41,21.448,2.82,32.171,4.23c1.914,0.251,1.89-2.751,0-3
				c-10.724-1.41-21.448-2.82-32.171-4.23C80.312,144.193,80.336,147.196,82.226,147.445L82.226,147.445z"/>
		</g>
	</g>
</g>
<g>
	<path fill="#FFFFFF" d="M104.183,102.15c0,9.74,0,19.479,0,29.219c0,4.514,7,4.514,7,0c0-9.74,0-19.479,0-29.219
		C111.183,97.636,104.183,97.636,104.183,102.15L104.183,102.15z"/>
</g>
<g>
	<path fill="#FFFFFF" d="M97.11,103.65c7.048,0,14.097,0,21.145,0c4.514,0,4.514-7,0-7c-7.048,0-14.097,0-21.145,0
		C92.596,96.65,92.596,103.65,97.11,103.65L97.11,103.65z"/>
</g>
<g>
	<path fill="#FFFFFF" d="M78.315,175.014c21.583,2.854,43.167,5.708,64.75,8.562c1.914,0.253,1.889-2.75,0-3
		c-21.583-2.854-43.167-5.708-64.75-8.562C76.401,171.761,76.426,174.764,78.315,175.014L78.315,175.014z"/>
</g>
<g display="none">
	<g display="inline">
		<path fill="#FFFFFF" d="M126.972,284.395c-0.55,3.765-7.373,2.65-10.127,2.65c-4.999,0-9.998,0-14.997,0
			c-1.422,0-10.002,0.851-10.002-1.826c0-3.901,0-7.801,0-11.702c0-3.433,22.676-1.825,24.999-1.825
			c1.421,0,10.002-0.851,10.002,1.825c0,3.936,0,7.873,0,11.809c0,4.514,7,4.514,7,0c0-4.404,1.216-10.755-0.653-14.878
			c-2.748-6.062-9.115-5.755-14.718-5.755c-6.576,0-13.153,0-19.729,0c-5.76,0-12.746,0.734-13.776,7.788
			c-0.375,2.57-0.125,5.288-0.125,7.877c0,2.504-0.411,5.585,0.653,7.932c2.748,6.062,9.115,5.756,14.718,5.756
			c6.576,0,13.153,0,19.729,0c5.76,0,12.747-0.735,13.777-7.789C134.367,281.842,127.623,279.942,126.972,284.395z"/>
	</g>
	<g display="inline">
		<path fill="#FFFFFF" d="M146.396,251.545c-1.847,0-3.693,0-5.54,0c1.167,1.167,2.333,2.333,3.5,3.5
			c0-9.989,3.187-31.566-12.662-30.301c-12.141,0.969-24.283,1.938-36.424,2.907c1.125,0.856,2.25,1.713,3.375,2.569
			c-2.028-12.241-4.057-24.482-6.085-36.723c-0.794-4.794-0.864-10.131-4.134-13.962c-4-4.688-19.009-2.472-20.273,4.178
			c-0.76,3.998,0.427,8.385,0.916,12.378c0.952,7.777,1.904,15.554,2.856,23.331c0.744,6.074,1.487,12.149,2.23,18.223
			c0.631,5.156-0.18,10.778-0.18,16.026c0,5.446-0.43,10.224,3.368,14.652c2.797,3.261,7.15,3.369,11.064,3.369
			c11.046,0,22.092,0,33.139,0c7.563,0,14.807,0.353,22.29,0.353c5.604,0,11.729-1.551,11.729-8.4
			C155.565,256.966,154.019,252.098,146.396,251.545c-4.506-0.327-4.475,6.675,0,7c3.276,0.238,3.311,6.5-0.126,6.5
			c-3.206,0-6.413,0-9.619,0c-4.108,0-8.356-0.353-12.518-0.353c-12.851,0-25.701,0-38.552,0c-6.873,0-4.606-13.103-4.606-17.446
			c0-5.085,0.204-9.406-0.41-14.424c-1.749-14.289-3.499-28.579-5.248-42.868c-0.161-1.316-0.322-2.631-0.483-3.947
			c-0.145-1.183,7.377-2.167,8.358-1.722c1.27,0.577,1.427,3.89,1.616,5.03c0.472,2.849,0.944,5.698,1.417,8.547
			c1.89,11.406,3.78,22.813,5.67,34.219c0.237,1.429,1.957,2.683,3.375,2.569c11.097-0.886,22.193-1.771,33.29-2.657
			c1.42-0.113,2.841-0.227,4.262-0.34c4.016-0.321,4.535,4.676,4.535,7.578c0,5.271,0,10.542,0,15.813c0,1.908,1.592,3.5,3.5,3.5
			c1.847,0,3.693,0,5.54,0C150.91,258.545,150.91,251.545,146.396,251.545z"/>
	</g>
	<g display="inline">
		<path fill="#FFFFFF" d="M98.27,229.651c13.582-1.091,27.164-2.182,40.746-3.272c4.468-0.359,4.502-7.362,0-7
			c-13.582,1.091-27.164,2.182-40.746,3.272C93.802,223.01,93.767,230.013,98.27,229.651L98.27,229.651z"/>
	</g>
</g>
</svg>
