<?xml version="1.0" encoding="iso-8859-1"?>
<!-- Generator: Adobe Illustrator 16.0.0, SVG Export Plug-In . SVG Version: 6.00 Build 0)  -->
<!DOCTYPE svg PUBLIC "-//W3C//DTD SVG 1.1//EN" "http://www.w3.org/Graphics/SVG/1.1/DTD/svg11.dtd">
<svg version="1.1" xmlns="http://www.w3.org/2000/svg" xmlns:xlink="http://www.w3.org/1999/xlink" x="0px" y="0px" width="361px"
	 height="361px" viewBox="0 0 361 361" style="enable-background:new 0 0 361 361;" xml:space="preserve">
<g id="scene_x5F_toilet">
	<path style="fill:#FFFFFF;stroke:#FFFFFF;stroke-width:10;stroke-miterlimit:10;" d="M273.021,175.052
		c0,4.083-3.311,7.393-7.395,7.393h-73.236c-4.083,0-7.394-3.311-7.394-7.393v-46.766c0-4.083,3.311-7.393,7.394-7.393h73.236
		c4.084,0,7.395,3.311,7.395,7.393V175.052z"/>
	
		<line style="fill:none;stroke:#FFFFFF;stroke-width:10;stroke-miterlimit:10;" x1="172.374" y1="152.05" x2="286.187" y2="152.05"/>
	<g>
		<g>
			<path style="fill:#FFFFFF;" d="M168.139,143.169c0,5.667,0,11.333,0,17c0,6.449,10,6.449,10,0c0-5.667,0-11.333,0-17
				C178.139,136.72,168.139,136.72,168.139,143.169L168.139,143.169z"/>
		</g>
	</g>
	<g>
		<g>
			<path style="fill:#FFFFFF;" d="M178.116,101.759c36.023,0,72.047,0,108.07,0c6.448,0,6.448-10,0-10c-36.023,0-72.047,0-108.07,0
				C171.667,91.759,171.667,101.759,178.116,101.759L178.116,101.759z"/>
		</g>
	</g>
	<g>
		<g>
			<g>
				<path style="fill:#FFFFFF;" d="M98.333,97.167c0,49.662,0,99.324,0,148.986c0,13.505,0,27.009,0,40.514c0,6.448,10,6.448,10,0
					c0-49.662,0-99.324,0-148.986c0-13.504,0-27.009,0-40.514C108.333,90.718,98.333,90.718,98.333,97.167L98.333,97.167z"/>
			</g>
		</g>
		<g>
			<g>
				<path style="fill:#FFFFFF;" d="M76.476,221.971c18.048,0,36.097,0,54.145,0c4.514,0,4.514-7,0-7c-18.048,0-36.097,0-54.145,0
					C71.961,214.971,71.961,221.971,76.476,221.971L76.476,221.971z"/>
			</g>
		</g>
		<g>
			<g>
				<path style="fill:#FFFFFF;" d="M73.912,239.387c19.757,0,39.515,0,59.272,0c4.514,0,4.514-7,0-7c-19.757,0-39.515,0-59.272,0
					C69.398,232.387,69.398,239.387,73.912,239.387L73.912,239.387z"/>
			</g>
		</g>
		<g>
			<g>
				<path style="fill:#FFFFFF;" d="M73.912,248.096c19.757,0,39.515,0,59.272,0c4.514,0,4.514-7,0-7c-19.757,0-39.515,0-59.272,0
					C69.398,241.096,69.398,248.096,73.912,248.096L73.912,248.096z"/>
			</g>
		</g>
		<g>
			<g>
				<path style="fill:#FFFFFF;" d="M74.432,256.804c19.411,0,38.821,0,58.232,0c4.514,0,4.514-7,0-7c-19.411,0-38.821,0-58.232,0
					C69.918,249.804,69.918,256.804,74.432,256.804L74.432,256.804z"/>
			</g>
		</g>
		<g>
			<g>
				<path style="fill:#FFFFFF;" d="M77.167,265.512c17.588,0,35.175,0,52.763,0c4.514,0,4.514-7,0-7c-17.588,0-35.175,0-52.763,0
					C72.652,258.512,72.652,265.512,77.167,265.512L77.167,265.512z"/>
			</g>
		</g>
		<g>
			<g>
				<path style="fill:#FFFFFF;" d="M86.021,282.929c11.685,0,23.37,0,35.055,0c4.514,0,4.514-7,0-7c-11.685,0-23.37,0-35.055,0
					C81.507,275.929,81.507,282.929,86.021,282.929L86.021,282.929z"/>
			</g>
		</g>
		<path style="fill:#FFFFFF;" d="M110.673,121.334c0,2.196-1.78,3.976-3.977,3.976h-7.245c-2.196,0-3.976-1.78-3.976-3.976V73.953
			c0-2.196,1.78-3.976,3.976-3.976h7.245c2.196,0,3.977,1.78,3.977,3.976V121.334z"/>
		<g>
			<g>
				<path style="fill:#FFFFFF;" d="M73.912,230.679c19.757,0,39.515,0,59.272,0c4.514,0,4.514-7,0-7c-19.757,0-39.515,0-59.272,0
					C69.398,223.679,69.398,230.679,73.912,230.679L73.912,230.679z"/>
			</g>
		</g>
		<g>
			<g>
				<path style="fill:#FFFFFF;" d="M80.62,274.221c15.286,0,30.571,0,45.857,0c4.514,0,4.514-7,0-7c-15.286,0-30.571,0-45.857,0
					C76.105,267.221,76.105,274.221,80.62,274.221L80.62,274.221z"/>
			</g>
		</g>
		<g>
			<g>
				<path style="fill:#FFFFFF;" d="M94.368,291.637c6.12,0,12.24,0,18.36,0c4.514,0,4.514-7,0-7c-6.12,0-12.24,0-18.36,0
					C89.854,284.637,89.854,291.637,94.368,291.637L94.368,291.637z"/>
			</g>
		</g>
	</g>
	<g>
		<g>
			<path style="fill:#FFFFFF;" d="M281.187,96.759c0,18.43,0,36.861,0,55.291c0,6.449,10,6.449,10,0c0-18.43,0-36.861,0-55.291
				C291.187,90.31,281.187,90.31,281.187,96.759L281.187,96.759z"/>
		</g>
	</g>
</g>
<g id="Ebene_1">
</g>
</svg>
