<?xml version="1.0" encoding="iso-8859-1"?>
<!-- Generator: Adobe Illustrator 16.0.0, SVG Export Plug-In . SVG Version: 6.00 Build 0)  -->
<!DOCTYPE svg PUBLIC "-//W3C//DTD SVG 1.1//EN" "http://www.w3.org/Graphics/SVG/1.1/DTD/svg11.dtd">
<svg version="1.1" xmlns="http://www.w3.org/2000/svg" xmlns:xlink="http://www.w3.org/1999/xlink" x="0px" y="0px" width="361px"
	 height="361px" viewBox="0 0 361 361" style="enable-background:new 0 0 361 361;" xml:space="preserve">
<g id="scene_x5F_hall">
	<g>
		<g>
			<path style="fill:#FFFFFF;" d="M284.063,189.624c-0.242,1.532-1.831,0.926-3.333,0.926c-3.068,0-6.136,0-9.204,0
				c-8.029,0-16.059,0-24.089,0c-5.227,0-10.454,0-15.681,0c-0.717,0-0.324-4.366-0.324-5.143c0-28.55,0-57.1,0-85.649
				c0-1.369-0.035-22.591,0.032-22.591c12.766,0,25.531,0,38.297,0c4.715,0,9.429,0,14.144,0c0.072,0,0.033,5.624,0.033,6.069
				c0,13.084,0,26.168,0,39.252c0,22.689,0,45.377,0,68.066c0,4.514,7,4.514,7,0c0-23.66,0-47.321,0-70.981
				c0-12.567,0-25.134,0-37.702c0-3.021,0.273-5.758-1.141-8.541c-2.155-4.243-8.896-3.165-12.746-3.165
				c-14.303,0-28.606,0-42.909,0c-4.634,0-9.71,1.281-9.71,7.098c0,2.674,0,5.348,0,8.021c0,29.121,0,58.242,0,87.364
				c0,5.728,0,11.455,0,17.183c0,8.108,7.354,7.717,13.196,7.717c11.008,0,22.016,0,33.023,0c6.061,0,18.812,2.458,20.161-6.064
				C291.512,187.07,284.767,185.176,284.063,189.624z"/>
		</g>
	</g>
	<g>
		<g>
			<path style="fill:#FFFFFF;" d="M229.064,138.247c1.889,0,3.778,0,5.667,0c1.908,0,3.5-1.592,3.5-3.5s-1.592-3.5-3.5-3.5
				c-1.889,0-3.778,0-5.667,0c-1.908,0-3.5,1.592-3.5,3.5S227.156,138.247,229.064,138.247L229.064,138.247z"/>
		</g>
	</g>
	<g>
		<g>
			<path style="fill:#FFFFFF;" d="M262.751,104.889c0.028-0.106,0.673-0.073,0.146-0.073c-0.357,0-0.716,0-1.073,0
				c-1.209,0-2.418,0-3.627,0c-1.958,0-3.916,0-5.875,0c-0.376,0,0.349,0.726,0.349,0.347c0-0.299,0-0.599,0-0.898
				c0-1.149,0-2.298,0-3.448c0-1.984,0-3.968,0-5.953c0,0.492-0.77,0.44-0.2,0.44c0.357,0,0.716,0,1.073,0c1.209,0,2.418,0,3.627,0
				c1.988,0,3.978,0,5.967,0c-0.493,0-0.44-0.77-0.44-0.197c0,0.361,0,0.723,0,1.083c0,1.206,0,2.411,0,3.617
				c0,1.827,0,3.654,0,5.48c0,1.935,3,1.935,3,0c0-2.48,0-4.96,0-7.44c0-1.979,0.48-5.543-2.528-5.543c-2.5,0-4.999,0-7.499,0
				c-2.206,0-5.207-0.604-5.945,2.129c-0.59,2.181-0.054,5.129-0.054,7.367c0,2.209-0.607,5.222,2.13,5.962
				c2.192,0.593,5.159,0.054,7.408,0.054c2.277,0,5.664,0.716,6.435-2.129C266.15,103.816,263.256,103.024,262.751,104.889z"/>
		</g>
	</g>
	<g>
		<g>
			<path style="fill:#FFFFFF;" d="M262.751,128.579c0.028-0.106,0.673-0.073,0.146-0.073c-0.357,0-0.716,0-1.073,0
				c-1.209,0-2.418,0-3.627,0c-1.958,0-3.916,0-5.875,0c-0.376,0,0.349,0.726,0.349,0.347c0-0.299,0-0.599,0-0.898
				c0-1.149,0-2.298,0-3.448c0-1.984,0-3.968,0-5.952c0,0.492-0.77,0.439-0.2,0.439c0.357,0,0.716,0,1.073,0
				c1.209,0,2.418,0,3.627,0c1.988,0,3.978,0,5.967,0c-0.493,0-0.44-0.769-0.44-0.196c0,0.361,0,0.722,0,1.083
				c0,1.206,0,2.411,0,3.616c0,1.827,0,3.654,0,5.48c0,1.935,3,1.935,3,0c0-2.48,0-4.96,0-7.44c0-1.979,0.48-5.544-2.528-5.544
				c-2.5,0-4.999,0-7.499,0c-2.206,0-5.207-0.604-5.945,2.13c-0.59,2.181-0.054,5.129-0.054,7.367c0,2.208-0.607,5.221,2.13,5.961
				c2.192,0.593,5.159,0.054,7.408,0.054c2.277,0,5.664,0.716,6.435-2.129C266.15,127.506,263.256,126.713,262.751,128.579z"/>
		</g>
	</g>
	<g>
		<g>
			<path style="fill:#FFFFFF;" d="M262.751,150.899c0.028-0.106,0.673-0.073,0.146-0.073c-0.357,0-0.716,0-1.073,0
				c-1.209,0-2.418,0-3.627,0c-1.958,0-3.916,0-5.875,0c-0.376,0,0.349,0.726,0.349,0.347c0-0.299,0-0.599,0-0.898
				c0-1.149,0-2.298,0-3.448c0-1.984,0-3.968,0-5.953c0,0.492-0.77,0.44-0.2,0.44c0.357,0,0.716,0,1.073,0c1.209,0,2.418,0,3.627,0
				c1.988,0,3.978,0,5.967,0c-0.493,0-0.44-0.77-0.44-0.197c0,0.361,0,0.723,0,1.083c0,1.206,0,2.411,0,3.617
				c0,1.827,0,3.654,0,5.48c0,1.935,3,1.935,3,0c0-2.48,0-4.96,0-7.44c0-1.979,0.48-5.543-2.528-5.543c-2.5,0-4.999,0-7.499,0
				c-2.206,0-5.207-0.604-5.945,2.129c-0.59,2.181-0.054,5.129-0.054,7.367c0,2.209-0.607,5.222,2.13,5.962
				c2.192,0.593,5.159,0.054,7.408,0.054c2.277,0,5.664,0.716,6.435-2.129C266.15,149.826,263.256,149.034,262.751,150.899z"/>
		</g>
	</g>
	<g>
		<g>
			<path style="fill:#FFFFFF;" d="M262.751,174.588c0.028-0.106,0.673-0.073,0.146-0.073c-0.357,0-0.716,0-1.073,0
				c-1.209,0-2.418,0-3.627,0c-1.958,0-3.916,0-5.875,0c-0.376,0,0.349,0.726,0.349,0.347c0-0.299,0-0.599,0-0.898
				c0-1.149,0-2.298,0-3.448c0-1.984,0-3.968,0-5.952c0,0.492-0.77,0.439-0.2,0.439c0.357,0,0.716,0,1.073,0
				c1.209,0,2.418,0,3.627,0c1.988,0,3.978,0,5.967,0c-0.493,0-0.44-0.769-0.44-0.196c0,0.361,0,0.722,0,1.083
				c0,1.206,0,2.411,0,3.616c0,1.827,0,3.654,0,5.48c0,1.935,3,1.935,3,0c0-2.48,0-4.96,0-7.44c0-1.979,0.48-5.544-2.528-5.544
				c-2.5,0-4.999,0-7.499,0c-2.206,0-5.207-0.604-5.945,2.13c-0.59,2.181-0.054,5.129-0.054,7.367c0,2.208-0.607,5.221,2.13,5.961
				c2.192,0.593,5.159,0.054,7.408,0.054c2.277,0,5.664,0.716,6.435-2.129C266.15,173.516,263.256,172.723,262.751,174.588z"/>
		</g>
	</g>
	<g>
		<g>
			<path style="fill:#FFFFFF;" d="M155.855,260.689c-0.431-6.266-7.869-4.429-11.948-3.599c0.633,0.482,1.266,0.964,1.899,1.446
				c0.035-0.36,0.07-0.722,0.104-1.082c0.058-0.601-0.496-1.354-1.101-1.446c-4.005-0.61-9.03-2.414-13.145-1.703
				c-2.493,0.431-7.485,2.184-7.152,5.589c0.726,7.424,11.946,7.524,17.321,8.685c0.854,0.185,1.548-0.248,1.845-1.048
				c0.123-0.328,0.245-0.657,0.367-0.986c-0.615,0.35-1.23,0.699-1.845,1.048c2.936,1.185,6.903,3.711,10.214,2.951
				c2.797-0.642,3.023-7.458,3.386-9.456c0.344-1.891-2.546-2.698-2.893-0.797c-0.234,1.286-0.778,7.554-2.154,7.303
				c-2.679-0.488-5.238-1.878-7.756-2.894c-0.806-0.325-1.586,0.353-1.845,1.048c-0.123,0.328-0.245,0.657-0.367,0.986
				c0.615-0.35,1.23-0.699,1.845-1.048c-4.018-0.867-10.744-0.9-13.86-3.755c-3.043-2.787,1.284-4.477,3.761-4.728
				c3.611-0.364,7.945,1.159,11.479,1.697c-0.367-0.482-0.734-0.964-1.101-1.446c-0.035,0.36-0.07,0.722-0.104,1.082
				c-0.1,1.033,1.027,1.624,1.899,1.446c1.785-0.363,7.934-2.444,8.15,0.706C152.987,262.608,155.988,262.621,155.855,260.689z"/>
		</g>
	</g>
	<g>
		<g>
			<path style="fill:#FFFFFF;" d="M277.637,219.769c-0.735,3.644-11.299,1.898-13.678,1.898c-7.664,0-15.328,0-22.993,0
				c-4.599,0-9.197,0-13.796,0c-3.231,0,0.235-6.502,0.678-7.762c0.888-2.53,1.775-5.06,2.663-7.59
				c1.299-3.7,10.793-1.898,13.678-1.898c7.664,0,15.329,0,22.993,0c4.599,0,9.197,0,13.796,0c3.231,0-0.235,6.502-0.678,7.762
				C279.412,214.709,278.524,217.238,277.637,219.769c-0.643,1.83,2.257,2.61,2.893,0.797c0.888-2.529,1.775-5.06,2.663-7.589
				c0.667-1.902,2.76-5.365,2.337-7.458c-1.031-5.109-6.367-4.102-10.33-4.102c-13.847,0-27.693,0-41.54,0
				c-5.32,0-5.911,3.729-7.436,8.074c-1.491,4.25-7.119,13.596,0.442,15.122c3.881,0.783,8.591,0.054,12.522,0.054
				c7.963,0,15.927,0,23.891,0c4.654,0,16.152,2.331,17.45-4.102C280.91,218.677,278.02,217.873,277.637,219.769z"/>
		</g>
	</g>
	<g>
		<path style="fill:#FFFFFF;" d="M272.542,213.887c0.042-0.164,0.085-0.367,0.129-0.609c0.044-0.243,0.093-0.512,0.148-0.807
			s0.112-0.611,0.169-0.949c0.059-0.338,0.123-0.686,0.193-1.039c-0.211,0.449-0.424,0.934-0.643,1.449
			c-0.217,0.516-0.438,1.041-0.667,1.578c-0.227,0.538-0.457,1.082-0.691,1.633c-0.233,0.549-0.469,1.08-0.707,1.592h-1.612
			c0.333-0.658,0.675-1.337,1.026-2.035c0.353-0.697,0.705-1.39,1.062-2.079c0.355-0.688,0.713-1.368,1.072-2.034
			c0.359-0.668,0.707-1.3,1.047-1.898h1.326c-0.064,0.547-0.146,1.133-0.249,1.762c-0.103,0.628-0.192,1.229-0.269,1.801
			c0.446-0.546,0.922-1.141,1.43-1.781c0.507-0.641,0.975-1.234,1.401-1.781h1.326c-0.21,0.599-0.444,1.232-0.705,1.904
			c-0.262,0.672-0.534,1.352-0.816,2.041s-0.572,1.383-0.872,2.08c-0.299,0.697-0.592,1.372-0.877,2.021h-1.482
			c0.247-0.512,0.502-1.039,0.766-1.586c0.264-0.546,0.525-1.09,0.787-1.631c0.26-0.542,0.516-1.07,0.765-1.586
			c0.25-0.516,0.479-1,0.688-1.449c-0.206,0.276-0.437,0.58-0.689,0.909s-0.5,0.653-0.74,0.976c-0.242,0.32-0.463,0.615-0.667,0.884
			c-0.203,0.269-0.362,0.48-0.479,0.636H272.542z"/>
		<path style="fill:#FFFFFF;" d="M271.495,208.688l-3.752,8.047h-4.875l0.618-1.326h3.276l0.843-1.807h-2.847l0.618-1.326h2.847
			l1.055-2.262h-3.563l0.618-1.326H271.495z"/>
		<path style="fill:#FFFFFF;" d="M259.834,208.688h5.058l-3.752,8.047h-1.612l3.134-6.721h-3.445L259.834,208.688z"/>
		<path style="fill:#FFFFFF;" d="M255.546,208.519c1.135,0,1.832,0.364,2.091,1.093c0.258,0.727,0.074,1.763-0.552,3.105
			c-0.312,0.668-0.68,1.262-1.104,1.782c-0.424,0.52-0.883,0.96-1.375,1.319c-0.494,0.359-1.006,0.633-1.54,0.818
			c-0.532,0.187-1.063,0.28-1.592,0.28c-0.286,0-0.533-0.024-0.74-0.071c-0.207-0.049-0.384-0.102-0.528-0.163
			c-0.146-0.061-0.26-0.126-0.345-0.194c-0.085-0.07-0.149-0.121-0.194-0.156l1.01-1.274c0.139,0.13,0.328,0.241,0.567,0.332
			s0.541,0.136,0.905,0.136c0.251,0,0.518-0.045,0.798-0.136c0.281-0.091,0.563-0.243,0.849-0.455
			c0.286-0.212,0.57-0.497,0.853-0.852c0.283-0.356,0.548-0.798,0.794-1.327c0.429-0.918,0.599-1.622,0.511-2.111
			c-0.088-0.49-0.491-0.734-1.212-0.734c-0.416,0-0.782,0.047-1.1,0.143s-0.581,0.191-0.79,0.285l0.186-1.26
			c0.29-0.139,0.654-0.267,1.095-0.385C254.571,208.577,255.043,208.519,255.546,208.519z"/>
		<path style="fill:#FFFFFF;" d="M250.585,212.717c-0.646,1.388-1.391,2.434-2.231,3.141s-1.716,1.06-2.626,1.06
			c-0.944,0-1.5-0.353-1.665-1.06c-0.164-0.707,0.077-1.753,0.724-3.141c0.646-1.385,1.387-2.433,2.219-3.139
			c0.831-0.707,1.707-1.06,2.626-1.06c0.944,0,1.501,0.353,1.67,1.06C251.471,210.284,251.231,211.332,250.585,212.717z
			 M248.96,212.717c0.182-0.389,0.337-0.756,0.466-1.098c0.13-0.343,0.207-0.639,0.234-0.891c0.025-0.252-0.009-0.45-0.105-0.598
			c-0.096-0.147-0.283-0.221-0.561-0.221c-0.268,0-0.521,0.073-0.759,0.221s-0.461,0.348-0.672,0.604
			c-0.21,0.256-0.409,0.554-0.598,0.892c-0.188,0.337-0.373,0.702-0.555,1.091c-0.182,0.391-0.337,0.758-0.466,1.1
			c-0.13,0.342-0.207,0.639-0.234,0.891c-0.025,0.252,0.01,0.451,0.105,0.598c0.096,0.147,0.282,0.221,0.56,0.221
			s0.532-0.073,0.767-0.221c0.233-0.146,0.454-0.35,0.665-0.605c0.21-0.255,0.409-0.552,0.597-0.89
			C248.593,213.472,248.778,213.107,248.96,212.717z"/>
		<path style="fill:#FFFFFF;" d="M240.47,216.734c0.024-0.182,0.058-0.416,0.1-0.701c0.042-0.286,0.089-0.594,0.138-0.924
			c0.05-0.329,0.101-0.662,0.155-1c0.053-0.339,0.099-0.65,0.138-0.938c-0.254,0.322-0.518,0.652-0.789,0.995
			c-0.272,0.343-0.534,0.672-0.786,0.987c-0.251,0.317-0.485,0.613-0.702,0.892c-0.215,0.277-0.399,0.507-0.554,0.688h-1.326
			c0.267-0.701,0.527-1.387,0.782-2.054c0.254-0.667,0.514-1.327,0.781-1.983c0.267-0.653,0.54-1.313,0.824-1.975
			c0.282-0.663,0.577-1.342,0.883-2.035h1.469l-2.992,6.254l2.575-3.406h1.17l-0.64,3.406l2.852-6.254h1.469
			c-0.333,0.658-0.681,1.344-1.043,2.055c-0.361,0.711-0.723,1.416-1.086,2.119c-0.361,0.701-0.719,1.382-1.074,2.041
			c-0.355,0.658-0.693,1.269-1.017,1.832H240.47z"/>
		<path style="fill:#FFFFFF;" d="M238.995,208.688l-3.752,8.047h-4.875l0.618-1.326h3.276l0.843-1.807h-2.847l0.618-1.326h2.847
			l1.055-2.262h-3.563l0.618-1.326H238.995z"/>
	</g>
	<g id="Jacke2">
		<g>
			<g>
				<path style="fill:#FFFFFF;" d="M140.133,128.854c4.967-2.085,10.529-2.141,15.835-2.001c5.215,0.136,11.497,0.43,16.224,2.907
					c2.382,1.249,2.594,4.612,3.074,6.989c0.8,3.96,1.595,7.922,2.388,11.884c2.928,14.635,5.943,29.266,8.75,43.924
					c0.721,3.767,1.406,7.551,1.836,11.363c0.13,1.143,0.212,2.292,0.168,3.441c-0.016,0.413,0.851-0.358-0.507,0.194
					c-1.519,0.617-3.064,1.2-4.701,1.41c-2.611,0.336-4.379-12.788-4.697-14.512c-1.457-7.907-2.478-15.894-3.527-23.863
					c-0.623-4.731-0.854-9.817-2.188-14.419c-0.957-3.299-3.506-0.711-3.357,1.649c0.441,7.026,1.541,14.048,2.435,21.026
					c0.864,6.747,1.762,13.489,2.676,20.229c0.853,6.292-20.568,4.471-23.73,4.254c-1.932-0.132-1.919,2.869,0,3
					c5.932,0.405,11.831,0.293,17.729-0.473c1.897-0.246,5.776-0.373,7.234-1.831c3.269-3.269,1.237-8.867,0.699-12.908
					c-1.06-7.954-2.099-15.911-3.051-23.878c-0.339-2.838-0.67-5.679-0.921-8.526c-0.061-0.694-0.118-1.392-0.116-2.089
					c-0.005,2.595-2.793-1.264-2.219,1.462c2.815,13.36,3.412,27.161,6.1,40.57c0.737,3.679,1.404,10.251,4.716,12.733
					c2.958,2.218,10.295-0.552,10.444-4.465c0.332-8.728-2.664-18.225-4.475-26.693c-1.977-9.249-3.648-18.565-5.494-27.842
					c-1.046-5.257-2.102-10.512-3.162-15.766c-0.646-3.202-0.868-6.332-3.435-8.648c-3.588-3.237-10.098-3.396-14.602-3.851
					c-6.75-0.681-14.548-0.841-20.923,1.836C137.58,126.698,138.35,129.602,140.133,128.854L140.133,128.854z"/>
			</g>
		</g>
		<g>
			<g>
				<path style="fill:#FFFFFF;" d="M154.95,123.522c-2.612-0.306-1.954-8.448-1.78-10.127c-1,0-2,0-3,0c0,0.211,0,0.422,0,0.633
					c0,1.963,2.833,1.896,3,0c0.147-1.67,1.134-2.744,2.823-2.897c-0.5-0.5-1-1-1.5-1.5c0,0.012,0,0.025,0,0.037
					c0,0.895,0.689,1.399,1.5,1.5c1.682,0.21,2.858,2.015,2.569,3.628c-0.339,1.892,2.552,2.7,2.893,0.798
					c0.662-3.692-1.749-6.962-5.461-7.426c0.5,0.5,1,1,1.5,1.5c0-0.012,0-0.025,0-0.037c0-0.762-0.685-1.574-1.5-1.5
					c-3.399,0.31-5.525,2.511-5.823,5.897c1,0,2,0,3,0c0-0.211,0-0.422,0-0.633c0-1.973-2.805-1.883-3,0
					c-0.412,3.969-0.679,12.488,4.78,13.127C156.869,126.747,156.847,123.744,154.95,123.522L154.95,123.522z"/>
			</g>
		</g>
	</g>
	<g id="Jacke1">
		<g>
			<g>
				<path style="fill:#FFFFFF;" d="M126.361,129.873c8-3.05,16.702-0.448,23.209,4.624c3.9,3.04,4.206,10.895,5.269,15.31
					c2.024,8.41,4,16.846,5.564,25.355c0.576,3.132,1.382,6.412,1.438,9.593c0.036,2.075-6.4,1.889-8.162,2.094
					c0.482,0.367,0.964,0.734,1.446,1.102c-0.81-5.803-1.716-11.592-2.602-17.383c-0.646-4.228-2.094-9.045-1.959-13.339
					c-0.932,0.252-1.864,0.504-2.795,0.757c0.134,0.241,0.368,3.147,0.487,4.092c0.456,3.624,0.889,7.251,1.322,10.878
					c0.917,7.668,1.815,15.339,2.708,23.011c0.196,1.683,0.392,3.366,0.587,5.05c0.349,3.012-6.575,2.386-7.932,2.441
					c-6.327,0.263-12.653,0.525-18.98,0.788c-1.927,0.08-1.935,3.08,0,3c7.109-0.295,14.218-0.59,21.327-0.885
					c5.242-0.218,9.031-1.506,8.336-7.488c-0.966-8.316-1.94-16.631-2.931-24.944c-0.496-4.163-0.995-8.326-1.519-12.485
					c-0.185-1.468-0.073-3.633-0.817-4.972c-0.747-1.346-2.75-0.692-2.795,0.757c-0.12,3.839,1.148,8.118,1.724,11.891
					c0.998,6.54,2.03,13.076,2.945,19.628c0.083,0.598,0.854,1.17,1.446,1.102c2.483-0.288,7.29,0.021,9.403-1.397
					c2.795-1.876,1.676-6.078,1.145-8.856c-1.887-9.875-3.897-19.688-6.229-29.473c-1.493-6.262-1.815-14.245-7.218-18.456
					c-6.949-5.417-16.785-7.901-25.217-4.686C123.775,127.662,124.55,130.563,126.361,129.873L126.361,129.873z"/>
			</g>
		</g>
		<g>
			<g>
				<path style="fill:#FFFFFF;" d="M156.223,141.405c-0.488-3.419-4.89-4.503-7.667-5.222c-7.054-1.827-14.707-1.908-21.941-1.946
					c-1.935-0.01-1.934,2.99,0,3c4.901,0.025,9.783,0.234,14.659,0.747c2.47,0.26,11.572,0.829,12.056,4.219
					C153.603,144.111,156.493,143.296,156.223,141.405L156.223,141.405z"/>
			</g>
		</g>
		<g>
			<g>
				<path style="fill:#FFFFFF;" d="M132.952,125.605c-2.338-0.265-1.383-8.354-1.221-9.826c-1,0-2,0-3,0c0,0.211,0,0.422,0,0.634
					c0,1.963,2.833,1.896,3,0c0.147-1.67,1.134-2.744,2.823-2.897c-0.5-0.5-1-1-1.5-1.5c0,0.012,0,0.025,0,0.037
					c0,0.884,0.688,1.413,1.5,1.5c1.725,0.185,3.273,1.908,2.951,3.702c-0.339,1.892,2.551,2.7,2.893,0.798
					c0.685-3.814-2.053-7.093-5.844-7.5c0.5,0.5,1,1,1.5,1.5c0-0.012,0-0.025,0-0.037c0-0.762-0.685-1.574-1.5-1.5
					c-3.399,0.31-5.525,2.51-5.823,5.897c1,0,2,0,3,0c0-0.211,0-0.422,0-0.634c0-1.978-2.793-1.877-3,0
					c-0.421,3.82-1.223,12.209,4.221,12.826C134.872,128.823,134.851,125.821,132.952,125.605L132.952,125.605z"/>
			</g>
		</g>
	</g>
	<g>
		<g>
			<path style="fill:#FFFFFF;" d="M79.97,232.119c-3.749-0.378-2.824-5.396-2.824-7.958c0-5.027,0-10.054,0-15.08
				c0-15.386,0-30.772,0-46.158c0-14.733,0-29.467,0-44.201c0-4.211,0-8.423,0-12.635c0-3.151,0.706-5.375,4.466-5.375
				c7.03,0,14.06,0,21.089,0c2.583,0,15.761-1.867,15.761,2.834c0,7.506,0,15.012,0,22.519c0,30.008,0,60.015,0,90.023
				c0,3.652,0,7.305,0,10.956c0,3.06-0.946,5.075-4.466,5.075C102.654,232.119,91.312,232.119,79.97,232.119c-4.514,0-4.514,7,0,7
				c11.704,0,23.407,0,35.111,0c11.542,0,10.382-11.456,10.382-19.419c0-29.583,0-59.166,0-88.749c0-8.971,0-17.941,0-26.911
				c0-5.941-4.46-10.329-10.382-10.329c-6.418,0-12.836,0-19.254,0c-9.466,0-25.68-2.936-25.68,11.052c0,9.872,0,19.744,0,29.616
				c0,22.5,0,45,0,67.499c0,7.567,0,15.134,0,22.701c0,7.005,1.185,13.668,9.824,14.539C84.46,239.572,84.417,232.567,79.97,232.119
				z"/>
		</g>
	</g>
	<g>
		<g>
			<path style="fill:#FFFFFF;" d="M122.201,119.738c14.616-1.879,29.231-3.758,43.847-5.637c1.891-0.243,1.915-3.246,0-3
				c-14.616,1.879-29.231,3.758-43.847,5.637C120.31,116.981,120.286,119.984,122.201,119.738L122.201,119.738z"/>
		</g>
	</g>
	<g>
		<g>
			<path style="fill:#FFFFFF;" d="M150.497,249.193c-0.226-2.252-0.871-4.214-3.124-5.021c-1.003-0.359-1.801,0.554-1.899,1.446
				c-0.092,0.834-0.184,1.667-0.275,2.501c0.5-0.5,1-1,1.5-1.5c-2.737,0.086-5.475,0.173-8.212,0.259c0.5,0.5,1,1,1.5,1.5
				c0.037-0.92,0.073-1.84,0.109-2.76c0.032-0.795-0.706-1.53-1.5-1.5c-6.048,0.228-19.125,0.723-19.125,9.369
				c0,0.817,0.682,1.5,1.5,1.5c9.342,0,18.684,0,28.026,0c0.818,0,1.5-0.683,1.5-1.5
				C150.497,252.057,150.497,250.625,150.497,249.193c0-1.935-3-1.935-3,0c0,1.432,0,2.863,0,4.295c0.5-0.5,1-1,1.5-1.5
				c-9.342,0-18.684,0-28.026,0c0.5,0.5,1,1,1.5,1.5c0-6.185,12.262-6.224,16.125-6.369c-0.5-0.5-1-1-1.5-1.5
				c-0.037,0.92-0.073,1.84-0.109,2.76c-0.032,0.799,0.707,1.525,1.5,1.5c2.737-0.086,5.475-0.173,8.212-0.259
				c0.886-0.028,1.408-0.667,1.5-1.5c0.092-0.834,0.184-1.667,0.275-2.501c-0.633,0.482-1.266,0.964-1.899,1.446
				c0.308,0.709,0.615,1.419,0.922,2.128C147.688,251.1,150.69,251.118,150.497,249.193z"/>
		</g>
	</g>
	<g>
		<g>
			<path style="fill:#FFFFFF;" d="M142.77,257.41c-0.424,2.564-0.847,5.129-1.271,7.693c-0.313,1.892,2.578,2.702,2.893,0.797
				c0.424-2.564,0.847-5.129,1.271-7.693C145.975,256.315,143.084,255.505,142.77,257.41L142.77,257.41z"/>
		</g>
	</g>
	<g>
		<g>
			<g>
				<path style="fill:#FFFFFF;" d="M107.758,289.096c-0.316-3.104-0.633-6.21-0.95-9.314c-0.194-1.905-3.196-1.924-3,0
					c0.316,3.104,0.633,6.21,0.95,9.314C104.952,291.001,107.954,291.02,107.758,289.096L107.758,289.096z"/>
			</g>
		</g>
		<g>
			<g>
				<path style="fill:#FFFFFF;" d="M107.966,273.678c-0.129,6.887-7.899,4.935-12.184,8.389c-2.775,2.237-4.431,4.974-7.958,6.286
					c-3.165,1.177-7.349,0.439-10.651,0.337c-1.936-0.06-1.93,2.94,0,3c3.819,0.118,7.709,0.484,11.448-0.444
					c3.593-0.893,6.116-3.88,8.582-6.402c2.901-2.967,7.596-2.363,11.083-4.43c2.367-1.403,2.633-4.267,2.68-6.735
					C111.002,271.742,108.002,271.745,107.966,273.678L107.966,273.678z"/>
			</g>
		</g>
		<g>
			<g>
				<path style="fill:#FFFFFF;" d="M108.397,272.977c-1.504,1.767-3.203,3.242-5.824,2.878c-1.188-0.165-1.361-1.337-1.995-2.028
					c-0.791-0.863-1.612-1.238-2.779-1.282c-3.091-0.117-6.545,3.935-8.645,5.694c-2.44,2.045-5.003,3.819-7.854,5.237
					c-1.931,0.96-4.657,1.033-6.045,2.906c-1.628,2.196-1.392,5.457,1.917,5.308c1.926-0.087,1.935-3.088,0-3
					c0.805-0.843,1.771-1.352,2.896-1.527c0.923-0.266,1.868-0.718,2.747-1.097c1.92-0.828,3.669-2.05,5.359-3.263
					c2.817-2.021,5.266-4.516,8.109-6.497c1.864-1.298,1.779,0.016,3.123,1.069c1.121,0.878,1.935,1.312,3.394,1.515
					c3.052,0.425,5.859-1.608,7.717-3.792C111.765,273.634,109.653,271.501,108.397,272.977L108.397,272.977z"/>
			</g>
		</g>
		<g>
			<g>
				<path style="fill:#FFFFFF;" d="M107.704,289.494c0.811-3.911,1.622-7.823,2.433-11.735c0.392-1.888-2.5-2.691-2.893-0.797
					c-0.811,3.911-1.622,7.823-2.433,11.735C104.42,290.585,107.312,291.389,107.704,289.494L107.704,289.494z"/>
			</g>
		</g>
	</g>
	<g>
		<g>
			<g>
				<path style="fill:#FFFFFF;" d="M115.901,277.335c-0.316-3.104-0.633-6.209-0.95-9.313c-0.194-1.905-3.196-1.924-3,0
					c0.316,3.104,0.633,6.209,0.95,9.313C113.095,279.24,116.097,279.259,115.901,277.335L115.901,277.335z"/>
			</g>
		</g>
		<g>
			<g>
				<path style="fill:#FFFFFF;" d="M90.77,277.074c-1.818-0.02-3.635-0.094-5.453-0.145c-1.936-0.055-1.931,2.945,0,3
					c1.818,0.051,3.635,0.125,5.453,0.145C92.705,280.096,92.703,277.096,90.77,277.074L90.77,277.074z"/>
			</g>
		</g>
		<g>
			<g>
				<path style="fill:#FFFFFF;" d="M116.109,261.918c-0.055,4.307-2.267,4.938-6.171,5.835c-1.961,0.45-3.78,0.714-5.38,2.037
					c-1.925,1.593-3.494,3.546-5.408,5.155c-1.483,1.246,0.651,3.357,2.121,2.121c2.355-1.979,4.259-5.082,7.321-5.974
					c2.353-0.685,4.713-0.961,6.981-1.952c2.967-1.297,3.499-4.315,3.536-7.223C119.134,259.982,116.134,259.985,116.109,261.918
					L116.109,261.918z"/>
			</g>
		</g>
		<g>
			<g>
				<path style="fill:#FFFFFF;" d="M116.541,261.217c-1.504,1.767-3.203,3.242-5.824,2.878c-1.188-0.165-1.362-1.337-1.995-2.028
					c-0.791-0.863-1.612-1.238-2.779-1.282c-3.091-0.118-6.545,3.934-8.645,5.693c-2.44,2.046-5.003,3.819-7.854,5.237
					c-1.931,0.961-4.657,1.034-6.045,2.907c-1.628,2.196-1.392,5.457,1.917,5.308c1.926-0.087,1.935-3.088,0-3
					c0.805-0.843,1.771-1.352,2.896-1.527c0.923-0.266,1.868-0.718,2.747-1.097c1.92-0.828,3.669-2.051,5.359-3.263
					c2.817-2.021,5.266-4.517,8.109-6.497c1.864-1.298,1.779,0.016,3.123,1.069c1.121,0.878,1.935,1.312,3.394,1.515
					c3.052,0.425,5.859-1.608,7.717-3.792C119.908,261.874,117.796,259.741,116.541,261.217L116.541,261.217z"/>
			</g>
		</g>
		<g>
			<g>
				<path style="fill:#FFFFFF;" d="M115.847,277.733c0.811-3.911,1.622-7.823,2.433-11.735c0.392-1.888-2.5-2.691-2.893-0.797
					c-0.811,3.911-1.622,7.823-2.433,11.735C112.563,278.824,115.455,279.628,115.847,277.733L115.847,277.733z"/>
			</g>
		</g>
	</g>
</g>
<g id="Ebene_1">
</g>
</svg>
