<?xml version="1.0" encoding="iso-8859-1"?>
<!-- Generator: Adobe Illustrator 16.0.0, SVG Export Plug-In . SVG Version: 6.00 Build 0)  -->
<!DOCTYPE svg PUBLIC "-//W3C//DTD SVG 1.1//EN" "http://www.w3.org/Graphics/SVG/1.1/DTD/svg11.dtd">
<svg version="1.1" xmlns="http://www.w3.org/2000/svg" xmlns:xlink="http://www.w3.org/1999/xlink" x="0px" y="0px" width="361px"
	 height="361px" viewBox="0 0 361 361" style="enable-background:new 0 0 361 361;" xml:space="preserve">
<g id="scene_x5F_workshop">
	<g>
		<g>
			<path style="fill:#FFFFFF;" d="M206.859,103.664c-1.048,1.047-2.746,1.047-3.794,0L190.102,90.7
				c-1.048-1.048-1.048-2.747,0-3.795l2.846-2.845c1.047-1.048,2.746-1.048,3.795,0l12.963,12.964c1.048,1.048,1.048,2.747,0,3.794
				L206.859,103.664z"/>
			<g>
				<path style="fill:#FFFFFF;" d="M205.093,100.642c-0.025,0.017,0.781,0.881-0.233-0.134c-0.588-0.588-1.176-1.176-1.765-1.764
					c-1.88-1.881-3.761-3.762-5.642-5.643c-1.398-1.399-2.797-2.797-4.196-4.196c-1.095-1.095,0.012-0.218-0.559,0.352
					c0.867-0.867,1.734-1.734,2.602-2.601c-0.57,0.57-1.446-0.536-0.352,0.559c0.588,0.588,1.176,1.176,1.764,1.764
					c1.881,1.881,3.762,3.762,5.643,5.643c1.477,1.477,2.954,2.955,4.432,4.432c0.852,0.852,0.618-0.885-0.001-0.266
					c-0.8,0.801-1.601,1.601-2.4,2.401c-3.194,3.195,1.755,8.145,4.949,4.95c2.767-2.767,5.168-4.878,4.336-9.159
					c-0.449-2.308-3.806-4.748-5.34-6.283c-3.999-3.999-10.647-13.982-17.149-9.66c-3.318,2.206-5.83,5.664-5.044,9.705
					c0.449,2.308,3.806,4.748,5.341,6.283c4.001,4.001,10.643,13.978,17.148,9.661C212.368,104.204,208.866,98.138,205.093,100.642z
					"/>
			</g>
		</g>
		<g>
			<g>
				<path style="fill:#FFFFFF;" d="M202.383,69.885c-4.778,4.778-9.557,9.556-14.334,14.334c-3.195,3.195,1.755,8.145,4.949,4.95
					c4.778-4.778,9.557-9.556,14.334-14.334C210.527,71.641,205.577,66.691,202.383,69.885L202.383,69.885z"/>
			</g>
		</g>
		<g>
			<g>
				<path style="fill:#FFFFFF;" d="M218.316,87.468c-4.082,4.082-8.163,8.164-12.244,12.245c-3.194,3.195,1.755,8.145,4.949,4.95
					c4.082-4.082,8.163-8.164,12.244-12.245C226.46,89.223,221.511,84.273,218.316,87.468L218.316,87.468z"/>
			</g>
		</g>
		<g>
			<g>
				<path style="fill:#FFFFFF;" d="M206.902,163.127c-0.077,0.425,2.348,0.392,0.009,0.392c-0.921,0-1.842,0-2.763,0
					c-0.691,0-1.382,0-2.073,0c1.383,0,1.335,1.035,1.335,0.355c0-1.517,0-3.034,0-4.551c0-6.736,0-13.473,0-20.209
					c0-12.468,0-24.936,0-37.404c0-0.521-2.478,0.215-0.132,0.215c1.611,0,3.224,0,4.836,0c-1.524,0-1.337-1.071-1.337,0.18
					c0,0.827,0,1.654,0,2.481c0,6.287,0,12.574,0,18.861c0,13.213,0,26.427,0,39.64c0,0.324,0,0.647,0,0.971c0,4.514,7,4.514,7,0
					c0-11.269,0-22.538,0-33.807c0-7.234,0-14.467,0-21.701c0-3.725,0.89-9.298-2.008-12.196c-2.191-2.191-6.444-1.429-9.208-1.429
					c-3.695,0-6.151,2.882-6.151,6.543c0,4.076,0,8.152,0,12.228c0,14.821,0,29.643,0,44.465c0,3.431-0.535,7.243,1.461,10.22
					c1.792,2.671,5.402,2.138,8.17,2.138c4.02,0,6.818-1.161,7.611-5.53C214.452,160.576,207.707,158.69,206.902,163.127z"/>
			</g>
		</g>
		<g>
			<g>
				<path style="fill:#FFFFFF;" d="M212.673,160.964c-0.206-2.807-1.646-5.128-4.344-6.155c-1.438-0.548-3.04-0.41-4.552-0.41
					c-2.801,0-5.225,1.755-6.211,4.343c-0.536,1.406-0.41,2.96-0.41,4.438c0,2.776,1.79,5.182,4.343,6.156
					c1.437,0.548,3.04,0.41,4.551,0.41c2.801,0,5.226-1.755,6.213-4.343C212.799,163.996,212.673,162.442,212.673,160.964
					c0-4.514-7-4.514-7,0c0,0.579,0,1.158,0,1.737c0,0.891-0.115,0.084,0.433,0.044c-0.643,0.047-1.305,0-1.948,0
					c-0.83,0-0.04-0.103-0.001,0.434c-0.042-0.572,0-1.163,0-1.737c0-0.891,0.115-0.084-0.435-0.044c0.643-0.047,1.305,0,1.948,0
					c0.829,0,0.042,0.103,0.003-0.435c0.14,1.902,1.486,3.5,3.5,3.5C210.975,164.464,212.813,162.87,212.673,160.964z"/>
			</g>
		</g>
		<g>
			<g>
				<path style="fill:#FFFFFF;" d="M200.207,108.297c2.981,0,5.962,0,8.943,0c4.514,0,4.514-7,0-7c-2.981,0-5.962,0-8.943,0
					C195.693,101.297,195.693,108.297,200.207,108.297L200.207,108.297z"/>
			</g>
		</g>
	</g>
	<g>
		<g>
			<g>
				<path style="fill:#FFFFFF;" d="M266.305,163.259c-0.125,0.926,1.941,0.765-0.176,0.765c-0.926,0-1.851,0-2.775,0
					c-0.828,0-1.656,0-2.483,0c-1.339,0,0.636,0.15,0.636,0.092c0-1.255,0-2.51,0-3.765c0-6.24,0-12.481,0-18.722
					c0-14.555,0-29.109,0-43.664c0-1.348,0-2.696,0-4.044c0-0.575-2.071-0.128,0.051-0.128c1.906,0,3.813,0,5.719,0
					c-1.663,0-1.096,0.637-1.096,2.342c0,2.472,0,4.943,0,7.416c0,15.354,0,30.709,0,46.063c0,4.859,0,9.717,0,14.576
					c0,4.514,7,4.514,7,0c0-23.303,0-46.607,0-69.91c0-7.929-6.381-7.487-12.31-7.487c-5.713,0-6.364,5.331-6.364,9.758
					c0,14.075,0,28.149,0,42.225c0,8.177,0,16.354,0,24.532c0,3.61,1.683,7.716,5.904,7.716c5.287,0,11.704,1.038,12.645-5.903
					C273.652,160.708,266.908,158.804,266.305,163.259z"/>
			</g>
		</g>
		<g>
			<g>
				<path style="fill:#FFFFFF;" d="M284.8,84.989c-0.364,2.028-6.575,1.161-7.622,1.161c-4.827,0-9.654,0-14.481,0
					c-4.913,0-9.826,0-14.739,0c-1.629,0-3.258,0-4.888,0c-2.54,0-1.572-0.015,0.522-1.467c4.77-3.306,9.181-6.864,15.232-7.139
					c3.552-0.161,7.147,0,10.701,0c4.288,0,8.576,0,12.864,0c1.793,0,2.285,0.21,2.285,2.069c0,2.102,0,4.204,0,6.306
					c0,4.514,7,4.514,7,0c0-5.155,1.357-12.723-5.042-14.741c-4.924-1.553-11.051-0.634-16.123-0.634
					c-5.302,0-10.744-0.394-15.989,0.517c-3.408,0.592-6.353,2.104-9.186,3.99c-3.263,2.173-9.121,4.662-10.574,8.497
					c-4.96,13.084,20.13,9.602,25.938,9.602c6.363,0,12.728,0,19.092,0c4.829,0,10.7-0.412,11.759-6.3
					C292.344,82.438,285.598,80.551,284.8,84.989z"/>
			</g>
		</g>
	</g>
	<g>
		<g>
			<g>
				<path style="fill:#FFFFFF;" d="M167.13,126.961c-1.589-5.875-9.208-5.824-14.162-4.484c-4.667,1.263-3.739,7.584-3.739,11.178
					c0,10.374,0,20.748,0,31.122c0,6.898,9.596,6.684,14.287,5.415c4.667-1.262,3.739-7.584,3.739-11.178
					c0-10.374,0-20.748,0-31.122c0-4.514-7-4.514-7,0c0,7.456,0,14.912,0,22.368c0,4.158,0,8.316,0,12.474
					c0,2.764-0.339,0.906,0.961,0.906c-1.983,0-3.965,0-5.948,0c1.3,0,0.961,1.858,0.961-0.906c0-1.756,0-3.513,0-5.269
					c0-5.019,0-10.037,0-15.055c0-4.158,0-8.316,0-12.475c0-2.764,0.339-0.905-0.961-0.905c0.992,0,1.983,0,2.974,0
					c0.597,0,1.193,0,1.79,0c1.864,0,0.456,0.187,0.349-0.207C161.558,133.175,168.311,131.325,167.13,126.961z"/>
			</g>
		</g>
		<g>
			<g>
				<path style="fill:#FFFFFF;" d="M154.446,81.88c0,13.961,0,27.923,0,41.884c0,4.514,7,4.514,7,0c0-13.961,0-27.923,0-41.884
					C161.446,77.366,154.446,77.366,154.446,81.88L154.446,81.88z"/>
			</g>
		</g>
		<g>
			<g>
				<path style="fill:#FFFFFF;" d="M152.946,74.707c0,4.179,0,8.359,0,12.538c0,6.449,10,6.449,10,0c0-4.179,0-8.359,0-12.538
					C162.946,68.258,152.946,68.258,152.946,74.707L152.946,74.707z"/>
			</g>
		</g>
	</g>
	<g>
		<g>
			<g>
				<g>
					<path style="fill:#FFFFFF;" d="M86.582,202.387c0,28.26,0,56.521,0,84.78c0,6.448,10,6.448,10,0c0-28.26,0-56.521,0-84.78
						C96.582,195.938,86.582,195.938,86.582,202.387L86.582,202.387z"/>
				</g>
			</g>
			<g>
				<g>
					<path style="fill:#FFFFFF;" d="M85.258,292.167c4.215,0,8.43,0,12.645,0c6.449,0,6.449-10,0-10c-4.215,0-8.43,0-12.645,0
						C78.81,282.167,78.81,292.167,85.258,292.167L85.258,292.167z"/>
				</g>
			</g>
		</g>
		<g>
			<g>
				<path style="fill:#FFFFFF;" d="M86.231,242.904c37.537,0,75.074,0,112.611,0c4.514,0,4.514-7,0-7c-37.537,0-75.074,0-112.611,0
					C81.717,235.904,81.717,242.904,86.231,242.904L86.231,242.904z"/>
			</g>
		</g>
		<g>
			<g>
				<path style="fill:#FFFFFF;" d="M74.833,200.188c48.739,0,97.479,0,146.218,0c21.705,0,43.41,0,65.115,0c6.448,0,6.448-10,0-10
					c-48.739,0-97.479,0-146.218,0c-21.705,0-43.41,0-65.115,0C68.384,190.188,68.384,200.188,74.833,200.188L74.833,200.188z"/>
			</g>
		</g>
		<g>
			<g>
				<g>
					<path style="fill:#FFFFFF;" d="M264.434,194.947c0,30.665,0,61.331,0,91.996c0,6.448,10,6.448,10,0c0-30.665,0-61.331,0-91.996
						C274.434,188.499,264.434,188.499,264.434,194.947L264.434,194.947z"/>
				</g>
			</g>
			<g>
				<g>
					<path style="fill:#FFFFFF;" d="M262.572,291.943c4.574,0,9.147,0,13.722,0c6.448,0,6.448-10,0-10c-4.574,0-9.147,0-13.722,0
						C256.124,281.943,256.124,291.943,262.572,291.943L262.572,291.943z"/>
				</g>
			</g>
		</g>
		<g>
			<g>
				<path style="fill:#FFFFFF;" d="M260.05,220.156c-0.79,2.388-11.298,0.989-13.04,0.989c-7.617,0-15.234,0-22.852,0
					c-4.785,0-9.571,0-14.357,0c-2.519,0-1.287-13.436-1.287-15.731c0-1.4,33.165-0.675,35.839-0.675c4.785,0,9.571,0,14.357,0
					c2.517,0,1.286,13.502,1.286,15.815c0,1.935,3,1.935,3,0c0-5.146,1.221-11.768-0.402-16.679
					c-1.088-3.29-8.39-2.137-10.819-2.137c-13.665,0-27.329,0-40.994,0c-5.718,0-5.267,4.286-5.267,8.76
					c0,3.755-2.031,13.646,4.16,13.646c12.729,0,25.457,0,38.186,0c4.092,0,13.403,1.888,15.083-3.192
					C263.552,219.111,260.654,218.328,260.05,220.156z"/>
			</g>
		</g>
		<g>
			<g>
				<path style="fill:#FFFFFF;" d="M260.05,244.763c-0.79,2.388-11.298,0.989-13.04,0.989c-7.617,0-15.234,0-22.852,0
					c-4.785,0-9.571,0-14.357,0c-2.519,0-1.287-13.436-1.287-15.731c0-1.4,33.165-0.675,35.839-0.675c4.785,0,9.571,0,14.357,0
					c2.517,0,1.286,13.502,1.286,15.815c0,1.935,3,1.935,3,0c0-5.146,1.221-11.768-0.402-16.679
					c-1.088-3.29-8.39-2.137-10.819-2.137c-13.665,0-27.329,0-40.994,0c-5.718,0-5.267,4.286-5.267,8.76
					c0,3.755-2.031,13.646,4.16,13.646c12.729,0,25.457,0,38.186,0c4.092,0,13.403,1.888,15.083-3.192
					C263.552,243.718,260.654,242.935,260.05,244.763z"/>
			</g>
		</g>
		<g>
			<g>
				<path style="fill:#FFFFFF;" d="M260.05,269.613c-0.79,2.389-11.297,0.99-13.04,0.99c-7.617,0-15.234,0-22.852,0
					c-4.785,0-9.571,0-14.357,0c-2.518,0-1.287-13.438-1.287-15.732c0-1.398,33.166-0.674,35.839-0.674c4.785,0,9.571,0,14.357,0
					c2.517,0,1.286,13.501,1.286,15.814c0,1.935,3,1.935,3,0c0-5.145,1.222-11.769-0.402-16.678
					c-1.089-3.29-8.389-2.137-10.819-2.137c-13.665,0-27.329,0-40.994,0c-5.718,0-5.267,4.285-5.267,8.759
					c0,3.755-2.031,13.647,4.16,13.647c12.729,0,25.457,0,38.186,0c4.092,0,13.404,1.888,15.083-3.193
					C263.551,268.568,260.653,267.785,260.05,269.613z"/>
			</g>
		</g>
		<g>
			<g>
				<path style="fill:#FFFFFF;" d="M268.895,242.904c1.85,0,3.699,0,5.549,0c1.908,0,3.5-1.592,3.5-3.5s-1.592-3.5-3.5-3.5
					c-1.85,0-3.699,0-5.549,0c-1.908,0-3.5,1.592-3.5,3.5S266.986,242.904,268.895,242.904L268.895,242.904z"/>
			</g>
		</g>
		<g>
			<g>
				<path style="fill:#FFFFFF;" d="M223.227,211.465c7.353,0,14.706,0,22.059,0c1.935,0,1.935-3,0-3c-7.353,0-14.706,0-22.059,0
					C221.292,208.465,221.292,211.465,223.227,211.465L223.227,211.465z"/>
			</g>
		</g>
		<g>
			<g>
				<path style="fill:#FFFFFF;" d="M223.227,235.674c7.353,0,14.706,0,22.059,0c1.935,0,1.935-3,0-3c-7.353,0-14.706,0-22.059,0
					C221.292,232.674,221.292,235.674,223.227,235.674L223.227,235.674z"/>
			</g>
		</g>
		<g>
			<g>
				<path style="fill:#FFFFFF;" d="M223.227,259.884c7.353,0,14.706,0,22.059,0c1.935,0,1.935-3,0-3c-7.353,0-14.706,0-22.059,0
					C221.292,256.884,221.292,259.884,223.227,259.884L223.227,259.884z"/>
			</g>
		</g>
		<g>
			<g>
				<path style="fill:#FFFFFF;" d="M264.913,274.042c-0.661,3.276-10.53,1.672-12.677,1.672c-7.863,0-15.727,0-23.589,0
					c-6.713,0-13.425,0-20.138,0c-3.304,0-5.194,0.196-5.194-3.549c0-24.898,0-49.796,0-74.694c0-2.898,7.997-1.686,9.578-1.686
					c7.562,0,15.123,0,22.686,0c7.248,0,14.495,0,21.743,0c2.316,0,7.537-1.164,7.537,2.31c0,25.014,0,50.028,0,75.043
					c0,0.434,0,0.868,0,1.303c0,1.935,3,1.935,3,0c0-24.318,0-48.637,0-72.956c0-2.539,0.731-7.716-2.795-8.428
					c-3.62-0.73-7.593-0.271-11.262-0.271c-14.727,0-29.452,0-44.179,0c-3.647,0-8.31-0.809-9.255,3.875
					c-0.556,2.75-0.054,6.049-0.054,8.831c0,15.092,0,30.184,0,45.275c0,6.248,0,12.495,0,18.743c0,3.299-0.669,6.688,2.438,8.781
					c2.348,1.582,8.35,0.423,10.869,0.423c7.649,0,15.3,0,22.949,0c7.126,0,14.253,0,21.38,0c3.748,0,8.877,0.971,9.854-3.875
					C268.187,272.95,265.296,272.146,264.913,274.042z"/>
			</g>
		</g>
	</g>
</g>
<g id="Ebene_1">
</g>
</svg>
