<?xml version="1.0" encoding="iso-8859-1"?>
<!-- Generator: Adobe Illustrator 16.0.0, SVG Export Plug-In . SVG Version: 6.00 Build 0)  -->
<!DOCTYPE svg PUBLIC "-//W3C//DTD SVG 1.1//EN" "http://www.w3.org/Graphics/SVG/1.1/DTD/svg11.dtd">
<svg version="1.1" xmlns="http://www.w3.org/2000/svg" xmlns:xlink="http://www.w3.org/1999/xlink" x="0px" y="0px" width="361px"
	 height="361px" viewBox="0 0 361 361" style="enable-background:new 0 0 361 361;" xml:space="preserve">
<g id="scene_x5F_sleeping_x5F_twin_x5F_0_x5F_1">
	<g>
		<path style="fill:#FFFFFF;stroke:#FFFFFF;stroke-width:10;stroke-miterlimit:10;" d="M286.833,238.73
			c0,1.622-2.595,2.937-5.795,2.937H80.628c-3.2,0-5.795-1.314-5.795-2.937v-17.127c0-1.622,2.595-2.937,5.795-2.937h200.41
			c3.2,0,5.795,1.314,5.795,2.937V238.73z"/>
		<g>
			<g>
				<path style="fill:#FFFFFF;" d="M69.833,97.667c0,49.694,0,99.388,0,149.082c0,5.392,0,10.784,0,16.176c0,6.448,10,6.448,10,0
					c0-49.694,0-99.388,0-149.082c0-5.392,0-10.784,0-16.176C79.833,91.218,69.833,91.218,69.833,97.667L69.833,97.667z"/>
			</g>
		</g>
		<g>
			<g>
				<path style="fill:#FFFFFF;" d="M281.833,97.667c0,49.628,0,99.257,0,148.886c0,5.761,0,11.521,0,17.281c0,6.448,10,6.448,10,0
					c0-49.629,0-99.257,0-148.886c0-5.76,0-11.521,0-17.281C291.833,91.218,281.833,91.218,281.833,97.667L281.833,97.667z"/>
			</g>
		</g>
	</g>
	<path style="fill:#FFFFFF;stroke:#FFFFFF;stroke-width:10;stroke-miterlimit:10;" d="M214.112,197.09
		c0,3.152-2.901,5.709-6.478,5.709H88.337c-3.577,0-6.478-2.557-6.478-5.709v-25.214c0-3.153,2.901-5.709,6.478-5.709h119.298
		c3.576,0,6.478,2.556,6.478,5.709V197.09z"/>
	<g>
		<g>
			<g>
				<path style="fill:#FFFFFF;" d="M222.331,169.113c0,9.333,0,18.667,0,28c0,9.686,15.004,9.771,15.004,0.107
					c0-9.333,0-18.667,0-28C237.335,159.535,222.331,159.449,222.331,169.113L222.331,169.113z"/>
			</g>
		</g>
		<g>
			<g>
				<path style="fill:#FFFFFF;" d="M262.887,189.665c-11,0-22,0-33,0c-9.686,0-9.771,15.004-0.107,15.004c11,0,22,0,33,0
					C272.465,204.669,272.551,189.665,262.887,189.665L262.887,189.665z"/>
			</g>
		</g>
		<circle style="fill:#FFFFFF;" cx="254.167" cy="173.333" r="13.667"/>
	</g>
	<path style="display:none;fill:#FFFFFF;stroke:#FFFFFF;stroke-width:10;stroke-miterlimit:10;" d="M214.779,138.089
		c0,3.153-2.9,5.709-6.479,5.709H89.004c-3.577,0-6.478-2.556-6.478-5.709v-25.213c0-3.153,2.901-5.709,6.478-5.709h119.297
		c3.578,0,6.479,2.556,6.479,5.709V138.089z"/>
	<g style="display:none;">
		<g style="display:inline;">
			<g>
				<path style="fill:#FFFFFF;" d="M222.998,110.113c0,9.333,0,18.667,0,28c0,9.687,15.004,9.772,15.004,0.108
					c0-9.333,0-18.667,0-28C238.002,100.535,222.998,100.449,222.998,110.113L222.998,110.113z"/>
			</g>
		</g>
		<g style="display:inline;">
			<g>
				<path style="fill:#FFFFFF;" d="M263.554,130.666c-11,0-22,0-33,0c-9.686,0-9.771,15.003-0.107,15.003c11,0,22,0,33,0
					C273.132,145.668,273.218,130.666,263.554,130.666L263.554,130.666z"/>
			</g>
		</g>
		<circle style="display:inline;fill:#FFFFFF;" cx="254.833" cy="114.333" r="13.667"/>
	</g>
	<g>
		<g>
			<path style="fill:#FFFFFF;" d="M207.025,145.667c-23.5,0-47,0-70.5,0c-13.254,0-26.509,0-39.764,0c-2.302,0-4.604,0-6.905,0
				c-11.193,0-9.497-11.75-9.497-19.271c0-7.596-2.208-18.245,7.183-20.977c2.456-0.714,5.748-0.252,8.246-0.252
				c12.928,0,25.855,0,38.784,0c24.136,0,48.272,0,72.409,0c11.222,0,9.53,11.721,9.53,19.271
				C216.511,132.646,218.765,145.001,207.025,145.667c-1.923,0.109-1.934,3.109,0,3c7.753-0.439,12.485-5.632,12.485-13.232
				c0-6.848,0-13.695,0-20.542c0-7.131-5.122-12.725-12.497-12.725c-2.301,0-4.603,0-6.904,0c-29.089,0-58.177,0-87.266,0
				c-7.666,0-15.333,0-22.999,0c-7.771,0-12.486,5.94-12.486,13.232c0,6.848,0,13.695,0,20.542c0,7.131,5.122,12.725,12.497,12.725
				c2.302,0,4.604,0,6.905,0c13.254,0,26.509,0,39.764,0c23.5,0,47,0,70.5,0C208.96,148.667,208.96,145.667,207.025,145.667z"/>
		</g>
	</g>
	<g style="display:none;">
		<g style="display:inline;">
			<path style="fill:#FFFFFF;" d="M206.576,204.732c-23.5,0-47,0-70.5,0c-13.254,0-26.509,0-39.764,0c-2.302,0-4.604,0-6.905,0
				c-11.193,0-9.497-11.75-9.497-19.271c0-7.596-2.208-18.245,7.183-20.977c2.456-0.714,5.748-0.252,8.246-0.252
				c12.928,0,25.855,0,38.784,0c24.136,0,48.272,0,72.409,0c11.222,0,9.53,11.721,9.53,19.271
				C216.062,191.712,218.315,204.067,206.576,204.732c-1.923,0.109-1.934,3.109,0,3c7.753-0.439,12.485-5.633,12.485-13.232
				c0-6.848,0-13.695,0-20.542c0-7.131-5.122-12.725-12.497-12.725c-2.301,0-4.603,0-6.904,0c-29.089,0-58.177,0-87.266,0
				c-7.666,0-15.333,0-22.999,0c-7.771,0-12.486,5.94-12.486,13.232c0,6.848,0,13.695,0,20.542c0,7.132,5.123,12.726,12.497,12.726
				c2.302,0,4.604,0,6.905,0c13.254,0,26.509,0,39.764,0c23.5,0,47,0,70.5,0C208.511,207.732,208.511,204.732,206.576,204.732z"/>
		</g>
	</g>
	<g>
		<g>
			<path style="fill:#FFFFFF;" d="M265.525,145.667c-8.448,0-16.896,0-25.344,0c-5.961,0-12.803-0.912-13.322-8.49
				c-0.486-7.103,0.701-14.512,9.485-15.01c8.391-0.476,16.939,0,25.344,0c5.961,0,12.803,0.912,13.322,8.49
				C275.497,137.76,274.31,145.169,265.525,145.667c-1.923,0.109-1.934,3.109,0,3c8.175-0.463,12.485-5.967,12.485-13.785
				c0-7.694-2.099-14.104-10.711-15.583c-4.904-0.842-10.428-0.131-15.371-0.131c-5.194,0-10.39,0-15.584,0
				c-8.194,0-12.485,6.298-12.485,13.785c0,7.694,2.099,14.104,10.711,15.583c4.904,0.842,10.428,0.131,15.371,0.131
				c5.194,0,10.39,0,15.584,0C267.46,148.667,267.46,145.667,265.525,145.667z"/>
		</g>
	</g>
	<g style="display:none;">
		<g style="display:inline;">
			<path style="fill:#FFFFFF;" d="M265.525,204.732c-8.448,0-16.896,0-25.344,0c-5.961,0-12.803-0.912-13.322-8.49
				c-0.486-7.103,0.701-14.512,9.485-15.01c8.391-0.476,16.939,0,25.344,0c5.961,0,12.803,0.912,13.322,8.49
				C275.497,196.825,274.31,204.234,265.525,204.732c-1.923,0.109-1.934,3.109,0,3c8.175-0.463,12.485-5.967,12.485-13.785
				c0-7.694-2.099-14.104-10.711-15.583c-4.904-0.842-10.428-0.131-15.371-0.131c-5.194,0-10.39,0-15.584,0
				c-8.194,0-12.485,6.298-12.485,13.785c0,7.694,2.099,14.104,10.711,15.583c4.904,0.843,10.428,0.132,15.371,0.132
				c5.194,0,10.39,0,15.584,0C267.46,207.732,267.46,204.732,265.525,204.732z"/>
		</g>
	</g>
</g>
<g id="Ebene_1">
</g>
</svg>
