<?xml version="1.0" encoding="iso-8859-1"?>
<!-- Generator: Adobe Illustrator 16.0.0, SVG Export Plug-In . SVG Version: 6.00 Build 0)  -->
<!DOCTYPE svg PUBLIC "-//W3C//DTD SVG 1.1 Tiny//EN" "http://www.w3.org/Graphics/SVG/1.1/DTD/svg11-tiny.dtd">
<svg version="1.1" baseProfile="tiny" id="scene_x5F_dinner"
	 xmlns="http://www.w3.org/2000/svg" xmlns:xlink="http://www.w3.org/1999/xlink" x="0px" y="0px" width="361px" height="361px"
	 viewBox="0 0 361 361" xml:space="preserve">
<g>
	<path fill="#FFFFFF" d="M241.983,135.577c0,47.103,0,94.205,0,141.308c0,0.665,0,1.33,0,1.995c0,6.449,10,6.449,10,0
		c0-47.103,0-94.205,0-141.308c0-0.665,0-1.33,0-1.995C251.983,129.128,241.983,129.128,241.983,135.577L241.983,135.577z"/>
</g>
<g>
	<path fill="#FFFFFF" d="M278.983,181.879c0,32.333,0,64.667,0,97c0,6.449,10,6.449,10,0c0-32.333,0-64.667,0-97
		C288.983,175.431,278.983,175.431,278.983,181.879L278.983,181.879z"/>
</g>
<g>
	<path fill="#FFFFFF" d="M254.649,135.228c0,12.32,0,24.639,0,36.959c0,6.449,10,6.449,10,0c0-12.32,0-24.639,0-36.959
		C264.649,128.779,254.649,128.779,254.649,135.228L254.649,135.228z"/>
</g>
<g>
	<path fill="#FFFFFF" d="M228.982,134.879c0,12.32,0,24.639,0,36.959c0,6.449,10,6.449,10,0c0-12.32,0-24.639,0-36.959
		C238.982,128.43,228.982,128.43,228.982,134.879L228.982,134.879z"/>
</g>
<path fill="#FFFFFF" stroke="#FFFFFF" stroke-miterlimit="10" d="M270.649,192.546c0,3.313,2.686,6,6,6h6c3.314,0,6-2.687,6-6
	v-55.333c0-3.313-2.686-6-6-6h-6c-3.314,0-6,2.687-6,6V192.546z"/>
<g>
	<path fill="#FFFFFF" d="M233.983,178.213c8.333,0,16.667,0,25,0c6.449,0,6.449-10,0-10c-8.333,0-16.667,0-25,0
		C227.534,168.213,227.534,178.213,233.983,178.213L233.983,178.213z"/>
</g>
<path fill="none" stroke="#FFFFFF" stroke-width="10" stroke-miterlimit="10" d="M114.649,107.344c0,2.246-1.821,4.067-4.067,4.067
	H85.05c-2.246,0-4.067-1.821-4.067-4.067V94.24c0-2.246,1.821-4.067,4.067-4.067h25.532c2.246,0,4.067,1.821,4.067,4.067V107.344z"
	/>
<g>
	<path fill="#FFFFFF" d="M116.649,105.879c31.667,0,63.333,0,95,0c6.449,0,6.449-10,0-10c-31.667,0-63.333,0-95,0
		C110.201,95.879,110.201,105.879,116.649,105.879L116.649,105.879z"/>
</g>
<path fill="none" stroke="#FFFFFF" stroke-width="10" stroke-miterlimit="10" d="M217.979,230.445c0,26.94-21.839,48.78-48.78,48.78
	h-48.434c-26.94,0-48.78-21.839-48.78-48.78v-48.434c0-26.94,21.839-48.78,48.78-48.78h48.434c26.94,0,48.78,21.839,48.78,48.78
	V230.445z"/>
<g>
	<path fill="#FFFFFF" d="M184.729,221.575c-0.296,12.455-8.725,22.376-20.838,25.003c-5.938,1.288-12.901,0.396-18.908,0.396
		c-6.169,0-12.791,0.631-18.908-0.396c-12.163-2.042-20.552-12.99-20.838-25.003c-0.137-5.748,0-11.515,0-17.264
		c0-6.628-0.595-13.495,1.434-19.888c3.285-10.35,13.792-16.942,24.348-16.942c6.563,0,13.126,0,19.689,0
		c5.796,0,11.475-0.345,17.081,1.434c10.283,3.264,16.694,13.531,16.942,23.966C184.956,202.435,184.729,212.019,184.729,221.575
		c0,4.514,7,4.514,7,0c0-5.754,0-11.509,0-17.264c0-6.379,0.428-12.902-0.933-19.175c-2.191-10.101-10.282-18.957-19.9-22.51
		c-6.599-2.438-13.298-2.145-20.189-2.145c-16.113,0-32.948-2.084-44.742,11.416c-10.476,11.992-7.729,29.727-7.729,44.439
		c0,11.563,2.269,21.918,11.416,29.91c8.598,7.511,18.918,7.729,29.607,7.729c9.068,0,18.885,1.004,27.815-0.933
		c14.585-3.163,24.311-17.023,24.655-31.466C191.836,217.059,184.836,217.069,184.729,221.575z"/>
</g>
</svg>
