<?xml version="1.0" encoding="iso-8859-1"?>
<!-- Generator: Adobe Illustrator 16.0.0, SVG Export Plug-In . SVG Version: 6.00 Build 0)  -->
<!DOCTYPE svg PUBLIC "-//W3C//DTD SVG 1.1//EN" "http://www.w3.org/Graphics/SVG/1.1/DTD/svg11.dtd">
<svg version="1.1" xmlns="http://www.w3.org/2000/svg" xmlns:xlink="http://www.w3.org/1999/xlink" x="0px" y="0px" width="361px"
	 height="361px" viewBox="0 0 361 361" style="enable-background:new 0 0 361 361;" xml:space="preserve">
<g id="scene_x5F_baking_x5F_oven">
	<g>
		<g>
			<path style="fill:#FFFFFF;" d="M286.121,132.167c-48.549,0-97.099,0-145.648,0c-21.903,0-43.806,0-65.708,0c-1.935,0-1.935,3,0,3
				c48.549,0,97.099,0,145.647,0c21.903,0,43.806,0,65.709,0C288.056,135.167,288.056,132.167,286.121,132.167L286.121,132.167z"/>
		</g>
	</g>
	<path style="fill:none;stroke:#FFFFFF;stroke-miterlimit:10;" d="M44.239,121.792"/>
	<g>
		<g>
			<path style="fill:#FFFFFF;" d="M102.77,240.466c1.206,7.479,13.026,5.167,18.415,5.167c13.66,0,27.32,0,40.98,0
				c28.097,0,56.195,0,84.292,0c2.036,0,4.073,0,6.11,0c4.699,0,5.602-4.198,5.602-7.875c0-13.382,0-26.763,0-40.144
				c0-11.132,0-22.265,0-33.397c0-7.7-11.283-5.717-16.164-5.717c-29.47,0-58.94,0-88.41,0c-12.44,0-24.88,0-37.32,0
				c-5.528,0-13.56-1.351-13.56,6.617c0,24.983,0,49.967,0,74.95c0,1.935,3,1.935,3,0c0-24.153,0-48.307,0-72.46
				c0-2.655-0.126-6.106,3.64-6.106c3.174,0,6.349,0,9.523,0c13.146,0,26.292,0,39.438,0c28.764,0,57.528,0,86.292,0
				c2.556,0,5.112,0,7.669,0c3.996,0,2.891,6.476,2.891,8.661c0,14.701,0,29.401,0,44.101c0,6.569,0,13.139,0,19.708
				c0,2.186,1.105,8.662-2.891,8.662c-7.85,0-15.699,0-23.549,0c-30.883,0-61.765,0-92.647,0c-6.603,0-13.205,0-19.807,0
				c-2.781,0-9.899,1.466-10.613-2.964C105.355,237.763,102.465,238.574,102.77,240.466z"/>
		</g>
	</g>
	<g>
		<g>
			<path style="fill:#FFFFFF;" d="M225.022,120.91c3.307,0,6.613,0,9.92,0c1.935,0,1.935-3,0-3c-3.307,0-6.613,0-9.92,0
				C223.088,117.91,223.088,120.91,225.022,120.91L225.022,120.91z"/>
		</g>
	</g>
	<g>
		<g>
			<path style="fill:#FFFFFF;" d="M225.022,115.834c3.307,0,6.613,0,9.92,0c1.935,0,1.935-3,0-3c-3.307,0-6.613,0-9.92,0
				C223.088,112.834,223.088,115.834,225.022,115.834L225.022,115.834z"/>
		</g>
	</g>
	<g>
		<g>
			<path style="fill:#FFFFFF;" d="M225.022,125.986c3.307,0,6.613,0,9.92,0c1.935,0,1.935-3,0-3c-3.307,0-6.613,0-9.92,0
				C223.088,122.986,223.088,125.986,225.022,125.986L225.022,125.986z"/>
		</g>
	</g>
	<g>
		<g>
			<path style="fill:#FFFFFF;" d="M147.314,133.167c3.307,0,6.613,0,9.92,0c1.935,0,1.935-3,0-3c-3.307,0-6.613,0-9.92,0
				C145.38,130.167,145.38,133.167,147.314,133.167L147.314,133.167z"/>
		</g>
	</g>
	<g>
		<g>
			<path style="fill:#FFFFFF;" d="M175.483,133.167c3.307,0,6.613,0,9.919,0c1.935,0,1.935-3,0-3c-3.307,0-6.613,0-9.919,0
				C173.548,130.167,173.548,133.167,175.483,133.167L175.483,133.167z"/>
		</g>
	</g>
	<g>
		<g>
			<path style="fill:#FFFFFF;" d="M204.432,133.167c3.307,0,6.613,0,9.92,0c1.935,0,1.935-3,0-3c-3.307,0-6.613,0-9.92,0
				C202.497,130.167,202.497,133.167,204.432,133.167L204.432,133.167z"/>
		</g>
	</g>
	<g>
		<g>
			<path style="fill:#FFFFFF;" d="M212.905,123.471c-0.627,1.514-9.344,0.515-10.896,0.515c-7.723,0-15.445,0-23.168,0
				c-7.362,0-14.724,0-22.086,0c-2.082,0-4.164,0-6.247,0c-2.125,0-1.693-0.469-1.693-2.716c0-0.848-0.487-6.436,0.439-6.436
				c1.657,0,3.314,0,4.971,0c6.886,0,13.772,0,20.659,0c12.51,0,25.021,0,37.53,0c0.91,0,0.438,7.83,0.438,9.036
				c0,1.935,3,1.935,3,0c0-3.012,1.764-12.036-3.298-12.036c-4.312,0-8.623,0-12.935,0c-14.934,0-29.867,0-44.801,0
				c-3.404,0-7.415-0.988-8.95,2.717c-0.873,2.105-0.054,6.007-0.054,8.266c0,2.018,0.755,4.169,3.198,4.169
				c11.933,0,23.866,0,35.799,0c7.139,0,14.277,0,21.416,0c3.497,0,7.988,1.105,9.57-2.717
				C216.538,122.481,213.634,121.71,212.905,123.471z"/>
		</g>
	</g>
	<g>
		<g>
			<path style="fill:#FFFFFF;" d="M127.356,120.91c3.307,0,6.613,0,9.92,0c1.935,0,1.935-3,0-3c-3.307,0-6.613,0-9.92,0
				C125.421,117.91,125.421,120.91,127.356,120.91L127.356,120.91z"/>
		</g>
	</g>
	<g>
		<g>
			<path style="fill:#FFFFFF;" d="M127.356,115.834c3.307,0,6.613,0,9.92,0c1.935,0,1.935-3,0-3c-3.307,0-6.613,0-9.92,0
				C125.421,112.834,125.421,115.834,127.356,115.834L127.356,115.834z"/>
		</g>
	</g>
	<g>
		<g>
			<path style="fill:#FFFFFF;" d="M127.356,125.986c3.307,0,6.613,0,9.92,0c1.935,0,1.935-3,0-3c-3.307,0-6.613,0-9.92,0
				C125.421,122.986,125.421,125.986,127.356,125.986L127.356,125.986z"/>
		</g>
	</g>
	<g>
		<g>
			<path style="fill:#FFFFFF;" d="M121.722,152c39.147,0,78.295,0,117.442,0c6.448,0,6.448-10,0-10c-39.147,0-78.295,0-117.442,0
				C115.273,142,115.273,152,121.722,152L121.722,152z"/>
		</g>
	</g>
	<g style="display:none;">
		<g style="display:inline;">
			<g>
				<path style="fill:#FFFFFF;" d="M187.958,202.729c-3.131-5.026-8.473-2.211-13.063-0.98c-4.172,1.117-12.376,1.864-10.647,8.317
					c2.292,8.554,4.584,17.107,6.876,25.662c1.717,6.408,9.288,2.924,13.415,1.817c4.172-1.117,12.376-1.865,10.647-8.317
					c-2.292-8.554-4.585-17.108-6.877-25.663c-1.167-4.355-7.92-2.505-6.75,1.861c1.146,4.277,2.292,8.554,3.438,12.831
					c1.069,3.989,3.408,9.111,3.27,13.196c0.342-0.825,0.684-1.65,1.025-2.476c0.297-0.291,1.131-0.257,0.16,0.003
					c-0.804,0.215-1.607,0.431-2.41,0.646c-2.362,0.633-4.724,1.266-7.086,1.898c-1.539,0.412-3.077,0.824-4.615,1.236
					c2.246-0.602,2.827,2.206,2.34,0.387c-0.174-0.649-0.349-1.3-0.523-1.95c-1.247-4.653-2.494-9.307-3.741-13.96
					c-0.774-2.891-2.351-6.455-2.251-9.397c-0.342,0.825-0.684,1.65-1.025,2.475c-0.297,0.292-1.132,0.259-0.161-0.002
					c0.56-0.149,1.12-0.3,1.679-0.449c1.699-0.455,3.397-0.911,5.096-1.366s3.397-0.91,5.096-1.365
					c0.56-0.149,1.119-0.3,1.679-0.449c1.616-0.434-1.088,0.43-1.618-0.421C184.294,210.083,190.352,206.572,187.958,202.729z"/>
			</g>
		</g>
		<g style="display:inline;">
			<g>
				<path style="fill:#FFFFFF;" d="M182.625,185.591c-2.802,5.258,2.26,8.431,5.646,11.817c3.037,3.037,7.816,9.806,12.524,5.098
					c6.263-6.262,12.525-12.524,18.787-18.787c4.708-4.708-2.062-9.488-5.099-12.525c-3.037-3.037-7.816-9.805-12.523-5.098
					c-6.263,6.263-12.525,12.525-18.788,18.788c-3.195,3.194,1.755,8.144,4.949,4.949c3.132-3.131,6.263-6.262,9.395-9.393
					c2.935-2.935,6.195-7.519,9.828-9.456c-0.899,0.118-1.798,0.235-2.697,0.353c-0.38-0.106-0.792-0.873-0.072-0.152
					c0.41,0.41,0.819,0.82,1.229,1.229c1.243,1.244,2.486,2.487,3.73,3.73c1.243,1.243,2.486,2.487,3.729,3.73
					c0.41,0.41,0.82,0.819,1.229,1.229c0.721,0.721-0.046,0.308-0.151-0.071c0.117-0.898,0.234-1.797,0.353-2.696
					c-1.936,3.632-6.521,6.894-9.455,9.828c-2.935,2.934-6.196,7.521-9.828,9.455c0.898-0.118,1.798-0.235,2.697-0.354
					c0.376,0.105,0.793,0.875,0.071,0.153c-0.41-0.409-0.819-0.819-1.229-1.229c-1.243-1.243-2.486-2.486-3.73-3.73
					c-1.243-1.243-2.486-2.487-3.729-3.73c-0.41-0.409-0.82-0.819-1.229-1.229c-0.721-0.72,0.046-0.308,0.151,0.071
					c-0.117,0.899-0.234,1.798-0.353,2.697c0.203-0.381,0.406-0.762,0.609-1.143C190.792,185.143,184.749,181.606,182.625,185.591z"
					/>
			</g>
		</g>
		<g style="display:inline;">
			<g>
				<path style="fill:#FFFFFF;" d="M170.451,198.872c5.934-0.2,6.152-6.165,7.386-10.772c1.106-4.126,4.591-11.698-1.816-13.415
					c-8.555-2.292-17.109-4.584-25.664-6.877c-6.451-1.729-7.2,6.477-8.317,10.648c-1.106,4.126-4.591,11.699,1.816,13.416
					c8.555,2.292,17.109,4.584,25.664,6.876c4.367,1.17,6.217-5.583,1.861-6.75c-7.451-1.996-14.901-3.992-22.351-5.988
					c-1.089-0.292-2.177-0.583-3.266-0.875c1.805,0.483,0.681,3.931,1.333,1.496c0.245-0.915,0.49-1.83,0.735-2.745
					c0.638-2.379,1.275-4.758,1.913-7.137c0.245-0.915,0.49-1.83,0.735-2.745c0.298-1.11,0.641-0.827,0.125-0.3
					c-0.825,0.342-1.65,0.683-2.475,1.025c2.667-0.092,5.856,1.302,8.484,2.006c4.744,1.271,9.487,2.542,14.23,3.813
					c1.089,0.292,2.177,0.583,3.266,0.875c-1.805-0.483-0.681-3.932-1.333-1.498c-0.245,0.915-0.49,1.831-0.735,2.746
					c-0.638,2.379-1.275,4.758-1.913,7.138c-0.245,0.915-0.49,1.83-0.735,2.745c-0.297,1.108-0.642,0.828-0.125,0.301
					c0.825-0.342,1.65-0.684,2.475-1.025c-0.432,0.015-0.863,0.029-1.294,0.044C165.95,192.023,165.935,199.024,170.451,198.872z"/>
			</g>
		</g>
		<g style="display:inline;">
			<g>
				<path style="fill:#FFFFFF;" d="M178.21,199.799c0.731-2.727,1.462-5.454,2.192-8.182c-0.835,0.221-1.671,0.441-2.507,0.662
					c1.996,1.996,3.993,3.992,5.989,5.988c0.221-0.836,0.441-1.671,0.662-2.507c-2.728,0.731-5.455,1.462-8.182,2.193
					c-1.867,0.5-1.074,3.395,0.798,2.893c2.727-0.731,5.455-1.462,8.181-2.193c1.093-0.293,1.456-1.713,0.662-2.507
					c-1.996-1.996-3.993-3.992-5.989-5.988c-0.794-0.794-2.214-0.431-2.507,0.662c-0.731,2.727-1.462,5.454-2.192,8.182
					C174.816,200.873,177.71,201.666,178.21,199.799z"/>
			</g>
		</g>
	</g>
	<g>
		<g>
			<path style="fill:#FFFFFF;" d="M225.478,231.802c-0.506,1.102-15.009,0.032-16.371,0.032c-11.879,0-23.758,0-35.637,0
				c-10.429,0-20.859,0-31.288,0c-2.212,0-4.424,0-6.636,0c-0.445,0-0.213-0.075,0.101,0.693c-0.407-0.997-0.814-1.994-1.221-2.991
				c-0.912-2.233-1.823-4.467-2.734-6.701c-0.118,0.899-0.235,1.798-0.353,2.697c0.475-1.032,14.048-0.032,15.319-0.032
				c11.25,0,22.5,0,33.751,0c11.25,0,22.5,0,33.751,0c1.271,0,14.844-1,15.318,0.032c-0.117-0.899-0.235-1.798-0.353-2.697
				c-1.333,3.268-2.667,6.535-4,9.803c-1.706,4.182,5.068,5.982,6.75,1.861c2.157-5.286,7.968-14.375-1.444-15.874
				c-2.544-0.405-5.276-0.125-7.839-0.125c-14.062,0-28.123,0-42.184,0c-14.062,0-28.123,0-42.184,0
				c-2.562,0-5.295-0.28-7.839,0.125c-9.412,1.499-3.601,10.588-1.444,15.874c2.469,6.05,11.587,4.335,16.928,4.335
				c11.181,0,22.363,0,33.544,0c11.388,0,22.777,0,34.166,0c4.688,0,15.499,1.814,17.943-3.499
				C233.395,231.264,227.362,227.705,225.478,231.802z"/>
		</g>
	</g>
	<g>
		<g>
			<path style="fill:#FFFFFF;" d="M84.95,252.988c-7.91-0.532-5.186-16.387-5.186-21.503c0-14.594,0-29.187,0-43.779
				c0-24.468,0-48.936,0-73.403c0-7.307,8.537-5.8,13.447-5.8c10.969,0,21.938,0,32.908,0c31.835,0,63.671,0,95.506,0
				c18.102,0,36.202,0,54.304,0c7.788,0,5.192,16.192,5.192,20.83c0,14.487,0,28.975,0,43.462c0,24.744,0,49.488,0,74.232
				c0,7.356-8.011,5.961-13.014,5.961c-10.835,0-21.671,0-32.506,0c-50.208,0-100.416,0-150.624,0
				C84.969,252.988,84.959,252.988,84.95,252.988c-6.449,0-6.449,10,0,10c49.659,0,99.317,0,148.976,0c11.102,0,22.204,0,33.306,0
				c8.689,0,17.717,0.648,22.406-8.697c3.187-6.351,1.483-16.718,1.483-23.49c0-14.695,0-29.392,0-44.087
				c0-24.185,0-48.369,0-72.553c0-8.85-6.593-15.08-15.186-15.658c-1.352-0.091-2.741,0-4.095,0c-9.405,0-18.811,0-28.216,0
				c-52.567,0-105.134,0-157.701,0c-6.304,0-11.797,2.96-14.676,8.697c-1.622,3.232-1.483,6.694-1.483,10.172
				c0,11.157,0,22.313,0,33.47c0,29.31,0,58.62,0,87.93c0,2.853,0,5.705,0,8.559c0,8.85,6.592,15.079,15.186,15.657
				C91.391,263.422,91.349,253.419,84.95,252.988z"/>
		</g>
	</g>
	<g>
		<g>
			<g>
				<path style="fill:#FFFFFF;" d="M177.725,169.596c5.257,6.948,5.257,14.27,0,21.218c-5.501,7.27-6.534,15.341-2.825,23.619
					c1.842,4.113,7.873,0.55,6.044-3.533c-3.993-8.915,2.261-14.351,5.856-21.664c3.867-7.865,2.144-16.334-3.031-23.173
					C181.082,162.512,174.999,165.994,177.725,169.596L177.725,169.596z"/>
			</g>
		</g>
		<g>
			<g>
				<path style="fill:#FFFFFF;" d="M196.215,174.938c4.546,6.023,4.546,12.247,0,18.27c-4.953,6.563-5.764,13.756-2.489,21.227
					c1.809,4.126,7.839,0.56,6.045-3.533c-3.503-7.991,2.477-12.783,5.482-19.398c3.121-6.866,1.448-14.212-2.993-20.098
					C199.576,167.85,193.493,171.331,196.215,174.938L196.215,174.938z"/>
			</g>
		</g>
		<g>
			<g>
				<path style="fill:#FFFFFF;" d="M158.215,174.938c4.545,6.023,4.545,12.247,0,18.27c-4.954,6.563-5.766,13.756-2.489,21.227
					c1.809,4.126,7.839,0.559,6.044-3.533c-3.504-7.99,2.477-12.783,5.483-19.398c3.12-6.866,1.448-14.212-2.994-20.098
					C161.577,167.85,155.494,171.331,158.215,174.938L158.215,174.938z"/>
			</g>
		</g>
	</g>
	<g style="display:none;">
		<g style="display:inline;">
			<g>
				<path style="fill:#FFFFFF;" d="M109,278.834c1.903,0,3.806,0,5.709,0c1.935,0,1.935-3,0-3c-1.903,0-3.806,0-5.709,0
					C107.066,275.834,107.066,278.834,109,278.834L109,278.834z"/>
			</g>
		</g>
		<g style="display:inline;">
			<g>
				<path style="fill:#FFFFFF;" d="M120.651,278.834c1.903,0,3.806,0,5.709,0c1.935,0,1.935-3,0-3c-1.903,0-3.806,0-5.709,0
					C118.717,275.834,118.717,278.834,120.651,278.834L120.651,278.834z"/>
			</g>
		</g>
		<g style="display:inline;">
			<g>
				<path style="fill:#FFFFFF;" d="M132.302,278.834c1.903,0,3.806,0,5.709,0c1.935,0,1.935-3,0-3c-1.903,0-3.806,0-5.709,0
					C130.368,275.834,130.368,278.834,132.302,278.834L132.302,278.834z"/>
			</g>
		</g>
		<g style="display:inline;">
			<g>
				<path style="fill:#FFFFFF;" d="M143.953,278.834c1.903,0,3.806,0,5.709,0c1.935,0,1.935-3,0-3c-1.903,0-3.806,0-5.709,0
					C142.019,275.834,142.019,278.834,143.953,278.834L143.953,278.834z"/>
			</g>
		</g>
		<g style="display:inline;">
			<g>
				<path style="fill:#FFFFFF;" d="M155.604,278.834c1.903,0,3.806,0,5.709,0c1.935,0,1.935-3,0-3c-1.903,0-3.806,0-5.709,0
					C153.669,275.834,153.669,278.834,155.604,278.834L155.604,278.834z"/>
			</g>
		</g>
		<g style="display:inline;">
			<g>
				<path style="fill:#FFFFFF;" d="M167.255,278.834c1.903,0,3.806,0,5.709,0c1.935,0,1.935-3,0-3c-1.903,0-3.806,0-5.709,0
					C165.32,275.834,165.32,278.834,167.255,278.834L167.255,278.834z"/>
			</g>
		</g>
		<g style="display:inline;">
			<g>
				<path style="fill:#FFFFFF;" d="M178.906,278.834c1.903,0,3.806,0,5.709,0c1.935,0,1.935-3,0-3c-1.903,0-3.806,0-5.709,0
					C176.971,275.834,176.971,278.834,178.906,278.834L178.906,278.834z"/>
			</g>
		</g>
		<g style="display:inline;">
			<g>
				<path style="fill:#FFFFFF;" d="M190.557,278.834c1.903,0,3.806,0,5.709,0c1.935,0,1.935-3,0-3c-1.903,0-3.806,0-5.709,0
					C188.622,275.834,188.622,278.834,190.557,278.834L190.557,278.834z"/>
			</g>
		</g>
		<g style="display:inline;">
			<g>
				<path style="fill:#FFFFFF;" d="M202.208,278.834c1.903,0,3.806,0,5.709,0c1.935,0,1.935-3,0-3c-1.903,0-3.806,0-5.709,0
					C200.273,275.834,200.273,278.834,202.208,278.834L202.208,278.834z"/>
			</g>
		</g>
		<g style="display:inline;">
			<g>
				<path style="fill:#FFFFFF;" d="M213.859,278.834c1.903,0,3.806,0,5.709,0c1.935,0,1.935-3,0-3c-1.903,0-3.806,0-5.709,0
					C211.925,275.834,211.925,278.834,213.859,278.834L213.859,278.834z"/>
			</g>
		</g>
		<g style="display:inline;">
			<g>
				<path style="fill:#FFFFFF;" d="M225.51,278.834c1.903,0,3.806,0,5.709,0c1.935,0,1.935-3,0-3c-1.903,0-3.806,0-5.709,0
					C223.575,275.834,223.575,278.834,225.51,278.834L225.51,278.834z"/>
			</g>
		</g>
		<g style="display:inline;">
			<g>
				<path style="fill:#FFFFFF;" d="M237.16,278.834c1.903,0,3.806,0,5.709,0c1.935,0,1.935-3,0-3c-1.903,0-3.806,0-5.709,0
					C235.226,275.834,235.226,278.834,237.16,278.834L237.16,278.834z"/>
			</g>
		</g>
		<g style="display:inline;">
			<g>
				<path style="fill:#FFFFFF;" d="M248.812,278.834c1.903,0,3.806,0,5.709,0c1.935,0,1.935-3,0-3c-1.903,0-3.806,0-5.709,0
					C246.877,275.834,246.877,278.834,248.812,278.834L248.812,278.834z"/>
			</g>
		</g>
		<g style="display:inline;">
			<g>
				<path style="fill:#FFFFFF;" d="M260.463,278.834c1.903,0,3.806,0,5.709,0c1.935,0,1.935-3,0-3c-1.903,0-3.806,0-5.709,0
					C258.528,275.834,258.528,278.834,260.463,278.834L260.463,278.834z"/>
			</g>
		</g>
		<g style="display:inline;">
			<g>
				<path style="fill:#FFFFFF;" d="M272.113,278.834c1.903,0,3.806,0,5.709,0c1.935,0,1.935-3,0-3c-1.903,0-3.806,0-5.709,0
					C270.179,275.834,270.179,278.834,272.113,278.834L272.113,278.834z"/>
			</g>
		</g>
		<g style="display:inline;">
			<g>
				<path style="fill:#FFFFFF;" d="M283.764,278.834c1.903,0,3.806,0,5.709,0c1.935,0,1.935-3,0-3c-1.903,0-3.806,0-5.709,0
					C281.829,275.834,281.829,278.834,283.764,278.834L283.764,278.834z"/>
			</g>
		</g>
		<g style="display:inline;">
			<g>
				<g>
					<g>
						<path style="fill:#FFFFFF;" d="M107.683,160.834c1.903,0,3.806,0,5.709,0c1.935,0,1.935-3,0-3c-1.903,0-3.806,0-5.709,0
							C105.749,157.834,105.749,160.834,107.683,160.834L107.683,160.834z"/>
					</g>
				</g>
				<g>
					<g>
						<path style="fill:#FFFFFF;" d="M119.334,160.834c1.903,0,3.806,0,5.709,0c1.935,0,1.935-3,0-3c-1.903,0-3.806,0-5.709,0
							C117.399,157.834,117.399,160.834,119.334,160.834L119.334,160.834z"/>
					</g>
				</g>
				<g>
					<g>
						<path style="fill:#FFFFFF;" d="M130.985,160.834c1.903,0,3.806,0,5.709,0c1.935,0,1.935-3,0-3c-1.903,0-3.806,0-5.709,0
							C129.05,157.834,129.05,160.834,130.985,160.834L130.985,160.834z"/>
					</g>
				</g>
				<g>
					<g>
						<path style="fill:#FFFFFF;" d="M142.636,160.834c1.903,0,3.806,0,5.709,0c1.935,0,1.935-3,0-3c-1.903,0-3.806,0-5.709,0
							C140.701,157.834,140.701,160.834,142.636,160.834L142.636,160.834z"/>
					</g>
				</g>
				<g>
					<g>
						<path style="fill:#FFFFFF;" d="M154.287,160.834c1.903,0,3.806,0,5.709,0c1.935,0,1.935-3,0-3c-1.903,0-3.806,0-5.709,0
							C152.352,157.834,152.352,160.834,154.287,160.834L154.287,160.834z"/>
					</g>
				</g>
				<g>
					<g>
						<path style="fill:#FFFFFF;" d="M165.938,160.834c1.903,0,3.806,0,5.709,0c1.935,0,1.935-3,0-3c-1.903,0-3.806,0-5.709,0
							C164.003,157.834,164.003,160.834,165.938,160.834L165.938,160.834z"/>
					</g>
				</g>
				<g>
					<g>
						<path style="fill:#FFFFFF;" d="M177.588,160.834c1.903,0,3.806,0,5.708,0c1.935,0,1.935-3,0-3c-1.902,0-3.806,0-5.708,0
							C175.654,157.834,175.654,160.834,177.588,160.834L177.588,160.834z"/>
					</g>
				</g>
				<g>
					<g>
						<path style="fill:#FFFFFF;" d="M189.239,160.834c1.903,0,3.806,0,5.709,0c1.935,0,1.935-3,0-3c-1.903,0-3.806,0-5.709,0
							C187.305,157.834,187.305,160.834,189.239,160.834L189.239,160.834z"/>
					</g>
				</g>
				<g>
					<g>
						<path style="fill:#FFFFFF;" d="M200.891,160.834c1.903,0,3.806,0,5.709,0c1.935,0,1.935-3,0-3c-1.903,0-3.806,0-5.709,0
							C198.956,157.834,198.956,160.834,200.891,160.834L200.891,160.834z"/>
					</g>
				</g>
				<g>
					<g>
						<path style="fill:#FFFFFF;" d="M212.541,160.834c1.903,0,3.806,0,5.709,0c1.935,0,1.935-3,0-3c-1.903,0-3.806,0-5.709,0
							C210.606,157.834,210.606,160.834,212.541,160.834L212.541,160.834z"/>
					</g>
				</g>
				<g>
					<g>
						<path style="fill:#FFFFFF;" d="M224.192,160.834c1.903,0,3.806,0,5.709,0c1.935,0,1.935-3,0-3c-1.903,0-3.806,0-5.709,0
							C222.258,157.834,222.258,160.834,224.192,160.834L224.192,160.834z"/>
					</g>
				</g>
				<g>
					<g>
						<path style="fill:#FFFFFF;" d="M235.844,160.834c1.903,0,3.806,0,5.709,0c1.935,0,1.935-3,0-3c-1.903,0-3.806,0-5.709,0
							C233.909,157.834,233.909,160.834,235.844,160.834L235.844,160.834z"/>
					</g>
				</g>
				<g>
					<g>
						<path style="fill:#FFFFFF;" d="M247.494,160.834c1.903,0,3.806,0,5.709,0c1.935,0,1.935-3,0-3c-1.903,0-3.806,0-5.709,0
							C245.56,157.834,245.56,160.834,247.494,160.834L247.494,160.834z"/>
					</g>
				</g>
			</g>
			<g>
				<g>
					<g>
						<path style="fill:#FFFFFF;" d="M107.648,245.167c1.903,0,3.806,0,5.709,0c1.935,0,1.935-3,0-3c-1.903,0-3.806,0-5.709,0
							C105.713,242.167,105.713,245.167,107.648,245.167L107.648,245.167z"/>
					</g>
				</g>
				<g>
					<g>
						<path style="fill:#FFFFFF;" d="M119.299,245.167c1.903,0,3.806,0,5.709,0c1.935,0,1.935-3,0-3c-1.903,0-3.806,0-5.709,0
							C117.364,242.167,117.364,245.167,119.299,245.167L119.299,245.167z"/>
					</g>
				</g>
				<g>
					<g>
						<path style="fill:#FFFFFF;" d="M130.95,245.167c1.903,0,3.806,0,5.709,0c1.935,0,1.935-3,0-3c-1.903,0-3.806,0-5.709,0
							C129.015,242.167,129.015,245.167,130.95,245.167L130.95,245.167z"/>
					</g>
				</g>
				<g>
					<g>
						<path style="fill:#FFFFFF;" d="M142.601,245.167c1.903,0,3.806,0,5.709,0c1.935,0,1.935-3,0-3c-1.903,0-3.806,0-5.709,0
							C140.666,242.167,140.666,245.167,142.601,245.167L142.601,245.167z"/>
					</g>
				</g>
				<g>
					<g>
						<path style="fill:#FFFFFF;" d="M154.251,245.167c1.903,0,3.806,0,5.709,0c1.935,0,1.935-3,0-3c-1.903,0-3.806,0-5.709,0
							C152.317,242.167,152.317,245.167,154.251,245.167L154.251,245.167z"/>
					</g>
				</g>
				<g>
					<g>
						<path style="fill:#FFFFFF;" d="M165.902,245.167c1.903,0,3.806,0,5.709,0c1.935,0,1.935-3,0-3c-1.903,0-3.806,0-5.709,0
							C163.968,242.167,163.968,245.167,165.902,245.167L165.902,245.167z"/>
					</g>
				</g>
				<g>
					<g>
						<path style="fill:#FFFFFF;" d="M177.553,245.167c1.903,0,3.806,0,5.708,0c1.935,0,1.935-3,0-3c-1.902,0-3.806,0-5.708,0
							C175.619,242.167,175.619,245.167,177.553,245.167L177.553,245.167z"/>
					</g>
				</g>
				<g>
					<g>
						<path style="fill:#FFFFFF;" d="M189.204,245.167c1.903,0,3.806,0,5.709,0c1.935,0,1.935-3,0-3c-1.903,0-3.806,0-5.709,0
							C187.27,242.167,187.27,245.167,189.204,245.167L189.204,245.167z"/>
					</g>
				</g>
				<g>
					<g>
						<path style="fill:#FFFFFF;" d="M200.855,245.167c1.903,0,3.806,0,5.709,0c1.935,0,1.935-3,0-3c-1.903,0-3.806,0-5.709,0
							C198.921,242.167,198.921,245.167,200.855,245.167L200.855,245.167z"/>
					</g>
				</g>
				<g>
					<g>
						<path style="fill:#FFFFFF;" d="M212.506,245.167c1.903,0,3.806,0,5.709,0c1.935,0,1.935-3,0-3c-1.903,0-3.806,0-5.709,0
							C210.571,242.167,210.571,245.167,212.506,245.167L212.506,245.167z"/>
					</g>
				</g>
				<g>
					<g>
						<path style="fill:#FFFFFF;" d="M224.157,245.167c1.903,0,3.806,0,5.709,0c1.935,0,1.935-3,0-3c-1.903,0-3.806,0-5.709,0
							C222.223,242.167,222.223,245.167,224.157,245.167L224.157,245.167z"/>
					</g>
				</g>
				<g>
					<g>
						<path style="fill:#FFFFFF;" d="M235.809,245.167c1.903,0,3.806,0,5.709,0c1.935,0,1.935-3,0-3c-1.903,0-3.806,0-5.709,0
							C233.874,242.167,233.874,245.167,235.809,245.167L235.809,245.167z"/>
					</g>
				</g>
				<g>
					<g>
						<path style="fill:#FFFFFF;" d="M247.459,245.167c1.903,0,3.806,0,5.709,0c1.935,0,1.935-3,0-3c-1.903,0-3.806,0-5.709,0
							C245.524,242.167,245.524,245.167,247.459,245.167L247.459,245.167z"/>
					</g>
				</g>
			</g>
			<g>
				<g>
					<g>
						<path style="fill:#FFFFFF;" d="M256.963,239.346c0-1.903,0-3.806,0-5.709c0-1.935-3-1.935-3,0c0,1.903,0,3.806,0,5.709
							C253.963,241.28,256.963,241.28,256.963,239.346L256.963,239.346z"/>
					</g>
				</g>
				<g>
					<g>
						<path style="fill:#FFFFFF;" d="M256.963,227.694c0-1.903,0-3.806,0-5.709c0-1.935-3-1.935-3,0c0,1.903,0,3.806,0,5.709
							C253.963,229.629,256.963,229.629,256.963,227.694L256.963,227.694z"/>
					</g>
				</g>
				<g>
					<g>
						<path style="fill:#FFFFFF;" d="M256.963,216.043c0-1.903,0-3.806,0-5.709c0-1.935-3-1.935-3,0c0,1.903,0,3.806,0,5.709
							C253.963,217.978,256.963,217.978,256.963,216.043L256.963,216.043z"/>
					</g>
				</g>
				<g>
					<g>
						<path style="fill:#FFFFFF;" d="M256.963,204.393c0-1.903,0-3.806,0-5.709c0-1.935-3-1.935-3,0c0,1.903,0,3.806,0,5.709
							C253.963,206.327,256.963,206.327,256.963,204.393L256.963,204.393z"/>
					</g>
				</g>
				<g>
					<g>
						<path style="fill:#FFFFFF;" d="M256.963,192.742c0-1.903,0-3.806,0-5.709c0-1.935-3-1.935-3,0c0,1.903,0,3.806,0,5.709
							C253.963,194.677,256.963,194.677,256.963,192.742L256.963,192.742z"/>
					</g>
				</g>
				<g>
					<g>
						<path style="fill:#FFFFFF;" d="M256.963,181.091c0-1.903,0-3.806,0-5.709c0-1.935-3-1.935-3,0c0,1.903,0,3.806,0,5.709
							C253.963,183.025,256.963,183.025,256.963,181.091L256.963,181.091z"/>
					</g>
				</g>
				<g>
					<g>
						<path style="fill:#FFFFFF;" d="M256.963,169.44c0-1.903,0-3.806,0-5.709c0-1.935-3-1.935-3,0c0,1.903,0,3.806,0,5.709
							C253.963,171.375,256.963,171.375,256.963,169.44L256.963,169.44z"/>
					</g>
				</g>
			</g>
			<g>
				<g>
					<g>
						<path style="fill:#FFFFFF;" d="M106,238.84c0-1.903,0-3.806,0-5.709c0-1.935-3-1.935-3,0c0,1.903,0,3.806,0,5.709
							C103,240.774,106,240.774,106,238.84L106,238.84z"/>
					</g>
				</g>
				<g>
					<g>
						<path style="fill:#FFFFFF;" d="M106,227.189c0-1.903,0-3.806,0-5.709c0-1.935-3-1.935-3,0c0,1.903,0,3.806,0,5.709
							C103,229.124,106,229.124,106,227.189L106,227.189z"/>
					</g>
				</g>
				<g>
					<g>
						<path style="fill:#FFFFFF;" d="M106,215.538c0-1.903,0-3.806,0-5.709c0-1.935-3-1.935-3,0c0,1.903,0,3.806,0,5.709
							C103,217.473,106,217.473,106,215.538L106,215.538z"/>
					</g>
				</g>
				<g>
					<g>
						<path style="fill:#FFFFFF;" d="M106,203.887c0-1.903,0-3.806,0-5.709c0-1.935-3-1.935-3,0c0,1.903,0,3.806,0,5.709
							C103,205.821,106,205.821,106,203.887L106,203.887z"/>
					</g>
				</g>
				<g>
					<g>
						<path style="fill:#FFFFFF;" d="M106,192.236c0-1.903,0-3.806,0-5.709c0-1.935-3-1.935-3,0c0,1.903,0,3.806,0,5.709
							C103,194.171,106,194.171,106,192.236L106,192.236z"/>
					</g>
				</g>
				<g>
					<g>
						<path style="fill:#FFFFFF;" d="M106,180.585c0-1.903,0-3.806,0-5.709c0-1.935-3-1.935-3,0c0,1.903,0,3.806,0,5.709
							C103,182.521,106,182.521,106,180.585L106,180.585z"/>
					</g>
				</g>
				<g>
					<g>
						<path style="fill:#FFFFFF;" d="M106,168.935c0-1.903,0-3.806,0-5.709c0-1.935-3-1.935-3,0c0,1.903,0,3.806,0,5.709
							C103,170.869,106,170.869,106,168.935L106,168.935z"/>
					</g>
				</g>
			</g>
		</g>
	</g>
</g>
<g id="Ebene_1">
</g>
</svg>
