<?xml version="1.0" encoding="iso-8859-1"?>
<!-- Generator: Adobe Illustrator 16.0.0, SVG Export Plug-In . SVG Version: 6.00 Build 0)  -->
<!DOCTYPE svg PUBLIC "-//W3C//DTD SVG 1.1//EN" "http://www.w3.org/Graphics/SVG/1.1/DTD/svg11.dtd">
<svg version="1.1" xmlns="http://www.w3.org/2000/svg" xmlns:xlink="http://www.w3.org/1999/xlink" x="0px" y="0px" width="361px"
	 height="361px" viewBox="0 0 361 361" style="enable-background:new 0 0 361 361;" xml:space="preserve">
<g id="scene_x5F_shower">
	<g>
		<g>
			<g>
				<path style="fill:#FFFFFF;" d="M236.166,282.08c-35.09,0-70.18,0-105.27,0c-6.449,0-6.449,10,0,10c35.09,0,70.18,0,105.27,0
					C242.614,292.08,242.614,282.08,236.166,282.08L236.166,282.08z"/>
			</g>
		</g>
		<g>
			<g>
				<path style="fill:#FFFFFF;" d="M236.166,277.917c-10.5,0-21,0-31.5,0c-6.448,0-6.448,10,0,10c10.5,0,21,0,31.5,0
					C242.614,287.917,242.614,277.917,236.166,277.917L236.166,277.917z"/>
			</g>
		</g>
		<g>
			<g>
				<path style="fill:#FFFFFF;" d="M231.166,74.667c0,48.707,0,97.413,0,146.12c0,21.126,0,42.253,0,63.38c0,6.448,10,6.448,10,0
					c0-48.707,0-97.413,0-146.12c0-21.127,0-42.253,0-63.38C241.166,68.218,231.166,68.218,231.166,74.667L231.166,74.667z"/>
			</g>
		</g>
		<g>
			<g>
				<path style="fill:#FFFFFF;" d="M144.09,277.917c-4.398,0-8.795,0-13.193,0c-6.449,0-6.449,10,0,10c4.398,0,8.795,0,13.193,0
					C150.539,287.917,150.539,277.917,144.09,277.917L144.09,277.917z"/>
			</g>
		</g>
		<g>
			<g>
				<path style="fill:#FFFFFF;" d="M125.896,282.916c0,1.388,0,2.775,0,4.163c0,2.726,2.274,5,5,5s5-2.274,5-5
					c0-1.388,0-2.775,0-4.163c0-2.726-2.274-5-5-5S125.896,280.19,125.896,282.916L125.896,282.916z"/>
			</g>
		</g>
	</g>
	<g>
		<g>
			<g>
				<path style="fill:#FFFFFF;" d="M192.949,82.76c13.64,3.655,27.28,7.31,40.92,10.964c6.237,1.671,8.881-7.975,2.658-9.643
					c-13.64-3.655-27.28-7.31-40.92-10.964C189.37,71.446,186.727,81.093,192.949,82.76L192.949,82.76z"/>
			</g>
		</g>
		<g>
			<g>
				<path style="fill:#FFFFFF;" d="M189.397,76.831c-1.21,4.515-2.419,9.03-3.629,13.545c-1.671,6.237,7.976,8.881,9.643,2.658
					c1.21-4.515,2.419-9.03,3.629-13.545C200.711,73.252,191.064,70.608,189.397,76.831L189.397,76.831z"/>
			</g>
		</g>
		<g>
			<g>
				<path style="fill:#FFFFFF;" d="M167.164,92.7c14.157,3.793,28.313,7.587,42.471,11.38c6.237,1.671,8.881-7.975,2.658-9.643
					c-14.157-3.793-28.313-7.587-42.471-11.38C163.585,81.386,160.941,91.032,167.164,92.7L167.164,92.7z"/>
			</g>
		</g>
		<g>
			<g>
				<path style="fill:#FFFFFF;" d="M163.535,87.156c-0.575,2.146-1.15,4.293-1.725,6.44c-0.705,2.631,0.853,5.424,3.492,6.15
					c2.613,0.719,5.446-0.861,6.15-3.492c0.575-2.146,1.15-4.293,1.725-6.44c0.705-2.631-0.853-5.424-3.492-6.15
					C167.072,82.945,164.239,84.525,163.535,87.156L163.535,87.156z"/>
			</g>
		</g>
		<g>
			<g>
				<path style="fill:#FFFFFF;" d="M206.005,98.93c-0.575,2.146-1.149,4.293-1.725,6.44c-0.705,2.631,0.853,5.424,3.492,6.15
					c2.613,0.719,5.446-0.861,6.15-3.492c0.575-2.146,1.149-4.293,1.725-6.44c0.705-2.631-0.853-5.424-3.492-6.15
					C209.542,94.719,206.709,96.298,206.005,98.93L206.005,98.93z"/>
			</g>
		</g>
		<g>
			<g>
				<g>
					<path style="fill:#FFFFFF;" d="M190.033,124.927c-1.297,4.841-2.594,9.681-3.891,14.521c-1.17,4.367,5.583,6.217,6.75,1.861
						c1.297-4.841,2.594-9.681,3.891-14.521C197.953,122.422,191.2,120.571,190.033,124.927L190.033,124.927z"/>
				</g>
			</g>
			<g>
				<g>
					<path style="fill:#FFFFFF;" d="M181.02,112.196c-1.101,4.11-2.202,8.221-3.303,12.331c-1.169,4.367,5.583,6.217,6.75,1.861
						c1.101-4.11,2.202-8.221,3.303-12.331C188.939,109.691,182.187,107.84,181.02,112.196L181.02,112.196z"/>
				</g>
			</g>
			<g>
				<g>
					<path style="fill:#FFFFFF;" d="M174.551,136.344c-1.833,6.841-3.665,13.682-5.498,20.523c-1.169,4.367,5.583,6.217,6.75,1.861
						c1.833-6.841,3.665-13.682,5.497-20.523C182.471,133.838,175.718,131.988,174.551,136.344L174.551,136.344z"/>
				</g>
			</g>
			<g>
				<g>
					<path style="fill:#FFFFFF;" d="M166.85,118.717c-1.296,4.841-2.593,9.682-3.89,14.522c-1.169,4.367,5.583,6.217,6.75,1.861
						c1.296-4.841,2.593-9.682,3.89-14.522C174.77,116.211,168.017,114.361,166.85,118.717L166.85,118.717z"/>
				</g>
			</g>
			<g>
				<g>
					<path style="fill:#FFFFFF;" d="M159.961,144.434c-1.833,6.841-3.665,13.682-5.498,20.523c-1.169,4.367,5.583,6.217,6.75,1.861
						c1.833-6.841,3.665-13.682,5.498-20.523C167.881,141.928,161.128,140.078,159.961,144.434L159.961,144.434z"/>
				</g>
			</g>
			<g>
				<g>
					<path style="fill:#FFFFFF;" d="M183.742,149.887c-1.832,6.841-3.665,13.682-5.497,20.523c-1.169,4.367,5.583,6.217,6.75,1.861
						c1.832-6.841,3.665-13.682,5.497-20.523C191.662,147.381,184.909,145.531,183.742,149.887L183.742,149.887z"/>
				</g>
			</g>
			<g>
				<g>
					<path style="fill:#FFFFFF;" d="M199.34,137.424c-1.345,5.022-2.69,10.045-4.035,15.067c-1.169,4.367,5.583,6.217,6.75,1.861
						c1.345-5.022,2.69-10.045,4.035-15.067C207.259,134.919,200.507,133.068,199.34,137.424L199.34,137.424z"/>
				</g>
			</g>
			<g>
				<g>
					<path style="fill:#FFFFFF;" d="M191.65,165.867c-1.833,6.841-3.665,13.682-5.498,20.523c-1.17,4.366,5.583,6.217,6.75,1.861
						c1.833-6.841,3.665-13.682,5.498-20.523C199.57,163.361,192.817,161.511,191.65,165.867L191.65,165.867z"/>
				</g>
			</g>
			<g>
				<g>
					<path style="fill:#FFFFFF;" d="M152.682,124.622c-1.345,5.022-2.691,10.044-4.036,15.066c-1.169,4.367,5.583,6.217,6.75,1.861
						c1.345-5.022,2.691-10.044,4.036-15.066C160.602,122.116,153.849,120.266,152.682,124.622L152.682,124.622z"/>
				</g>
			</g>
			<g>
				<g>
					<path style="fill:#FFFFFF;" d="M145.02,152.961c-1.833,6.841-3.666,13.682-5.498,20.523c-1.17,4.367,5.583,6.217,6.75,1.861
						c1.833-6.841,3.666-13.682,5.498-20.523C152.939,150.456,146.187,148.605,145.02,152.961L145.02,152.961z"/>
				</g>
			</g>
			<g>
				<g>
					<path style="fill:#FFFFFF;" d="M194.559,108.768c-0.582,2.172-1.164,4.345-1.746,6.517c-1.17,4.367,5.583,6.217,6.75,1.861
						c0.582-2.172,1.164-4.345,1.746-6.517C202.479,106.263,195.726,104.412,194.559,108.768L194.559,108.768z"/>
				</g>
			</g>
			<g>
				<g>
					<path style="fill:#FFFFFF;" d="M171.803,102.585c-0.582,2.172-1.164,4.345-1.746,6.517c-1.169,4.367,5.583,6.217,6.75,1.861
						c0.582-2.172,1.164-4.345,1.746-6.517C179.722,100.08,172.97,98.229,171.803,102.585L171.803,102.585z"/>
				</g>
			</g>
			<g>
				<g>
					<path style="fill:#FFFFFF;" d="M164.981,169.37c-1.345,5.021-2.69,10.042-4.035,15.063c-1.169,4.366,5.583,6.217,6.75,1.861
						c1.345-5.021,2.69-10.042,4.035-15.063C172.9,166.865,166.148,165.014,164.981,169.37L164.981,169.37z"/>
				</g>
			</g>
			<g>
				<g>
					<path style="fill:#FFFFFF;" d="M203.413,122.992c-0.354,1.324-0.709,2.648-1.063,3.973c-0.493,1.842,0.597,3.797,2.444,4.306
						c1.829,0.503,3.813-0.603,4.306-2.444c0.354-1.324,0.709-2.648,1.063-3.973c0.493-1.842-0.597-3.797-2.444-4.306
						C205.89,120.044,203.906,121.15,203.413,122.992L203.413,122.992z"/>
				</g>
			</g>
		</g>
		<g>
			<g>
				<path style="fill:#FFFFFF;" d="M157.212,110.21c-0.354,1.324-0.709,2.648-1.063,3.973c-0.493,1.842,0.597,3.797,2.444,4.306
					c1.829,0.503,3.813-0.603,4.306-2.444c0.354-1.324,0.709-2.648,1.063-3.973c0.493-1.842-0.597-3.797-2.444-4.306
					C159.689,107.263,157.706,108.368,157.212,110.21L157.212,110.21z"/>
			</g>
		</g>
	</g>
</g>
<g id="Ebene_1">
</g>
</svg>
