<?xml version="1.0" encoding="iso-8859-1"?>
<!-- Generator: Adobe Illustrator 16.0.0, SVG Export Plug-In . SVG Version: 6.00 Build 0)  -->
<!DOCTYPE svg PUBLIC "-//W3C//DTD SVG 1.1 Tiny//EN" "http://www.w3.org/Graphics/SVG/1.1/DTD/svg11-tiny.dtd">
<svg version="1.1" baseProfile="tiny" id="scene_x5F_garden"
	 xmlns="http://www.w3.org/2000/svg" xmlns:xlink="http://www.w3.org/1999/xlink" x="0px" y="0px" width="361px" height="361px"
	 viewBox="0 0 361 361" xml:space="preserve">
<g>
	<path fill="#FFFFFF" d="M140.87,217.748c0,24.088,0,48.177,0,72.266c0,6.449,10,6.449,10,0c0-24.088,0-48.177,0-72.266
		C150.87,211.299,140.87,211.299,140.87,217.748L140.87,217.748z"/>
</g>
<g>
	<path fill="#FFFFFF" d="M156.023,217.826c0,24.089,0,48.177,0,72.266c0,6.449,10,6.449,10,0c0-24.089,0-48.177,0-72.266
		C166.023,211.377,156.023,211.377,156.023,217.826L156.023,217.826z"/>
</g>
<g>
	<path fill="#FFFFFF" d="M171.175,217.826c0,24.089,0,48.177,0,72.266c0,6.449,10,6.449,10,0c0-24.089,0-48.177,0-72.266
		C181.175,211.377,171.175,211.377,171.175,217.826L171.175,217.826z"/>
</g>
<g>
	<path fill="#FFFFFF" d="M186.328,217.826c0,24.089,0,48.177,0,72.266c0,6.449,10,6.449,10,0c0-24.089,0-48.177,0-72.266
		C196.328,211.377,186.328,211.377,186.328,217.826L186.328,217.826z"/>
</g>
<g>
	<path fill="#FFFFFF" d="M201.479,217.748c0,24.088,0,48.177,0,72.266c0,6.449,10,6.449,10,0c0-24.088,0-48.177,0-72.266
		C211.479,211.299,201.479,211.299,201.479,217.748L201.479,217.748z"/>
</g>
<g>
	<path fill="#FFFFFF" d="M216.632,217.826c0,24.089,0,48.177,0,72.266c0,6.449,10,6.449,10,0c0-24.089,0-48.177,0-72.266
		C226.632,211.377,216.632,211.377,216.632,217.826L216.632,217.826z"/>
</g>
<g>
	<path fill="#FFFFFF" d="M231.786,217.826c0,24.089,0,48.177,0,72.266c0,6.449,10,6.449,10,0c0-24.089,0-48.177,0-72.266
		C241.786,211.377,231.786,211.377,231.786,217.826L231.786,217.826z"/>
</g>
<g>
	<path fill="#FFFFFF" d="M246.938,217.826c0,24.089,0,48.177,0,72.266c0,6.449,10,6.449,10,0c0-24.089,0-48.177,0-72.266
		C256.938,211.377,246.938,211.377,246.938,217.826L246.938,217.826z"/>
</g>
<g>
	<path fill="#FFFFFF" d="M262.09,217.748c0,24.088,0,48.177,0,72.266c0,6.449,10,6.449,10,0c0-24.088,0-48.177,0-72.266
		C272.09,211.299,262.09,211.299,262.09,217.748L262.09,217.748z"/>
</g>
<g>
	<path fill="#FFFFFF" d="M139.998,236.813c45.162,0,90.324,0,135.486,0c0.051,0,0.103,0,0.154,0c6.449,0,6.449-10,0-10
		c-45.162,0-90.324,0-135.486,0c-0.051,0-0.103,0-0.154,0C133.549,226.813,133.549,236.813,139.998,236.813L139.998,236.813z"/>
</g>
<g>
	<path fill="#FFFFFF" d="M139.565,280.639c45.381,0,90.763,0,136.145,0c0.08,0,0.16,0,0.239,0c6.449,0,6.449-10,0-10
		c-45.381,0-90.763,0-136.145,0c-0.08,0-0.16,0-0.239,0C133.116,270.639,133.116,280.639,139.565,280.639L139.565,280.639z"/>
</g>
<g>
	<path fill="#FFFFFF" d="M116.814,289.69c0,2.428-1.42,4.396-3.172,4.396h-8.989c-1.752,0-3.172-1.969-3.172-4.396V177.941
		c0-2.428,1.42-4.396,3.172-4.396h8.989c1.752,0,3.172,1.969,3.172,4.396V289.69z"/>
	<g>
		<path fill="#FFFFFF" d="M115.517,213.581c7.611-9.278,15.222-18.556,22.833-27.833c4.054-4.942-2.978-12.061-7.071-7.071
			c-7.611,9.278-15.222,18.556-22.833,27.833C104.392,211.451,111.424,218.57,115.517,213.581L115.517,213.581z"/>
	</g>
	<path fill="#FFFFFF" d="M165.454,164.128c0,2.577-1.991,4.667-4.449,4.667h-59.866c-2.458,0-4.449-2.089-4.449-4.667v-30.917
		c0-2.577,1.991-4.667,4.449-4.667h59.866c2.458,0,4.449,2.089,4.449,4.667V164.128z"/>
	<path fill="#FFFFFF" d="M157.726,141.393c0,2.155-1.747,3.902-3.901,3.902h-48.608c-2.155,0-3.902-1.747-3.902-3.902v-21.946
		c0-2.155,1.747-3.902,3.902-3.902h48.608c2.154,0,3.901,1.747,3.901,3.902V141.393z"/>
	<path fill="#FFFFFF" d="M130.193,136.494c0,1.438-1.547,2.605-3.456,2.605H93.77c-1.908,0-3.455-1.167-3.455-2.605V104.9
		c0-1.438,1.547-2.605,3.455-2.605h32.968c1.908,0,3.456,1.167,3.456,2.605V136.494z"/>
	<path fill="#FFFFFF" d="M146.565,125.545c0,3.313-2.687,6-6,6h-9.875c-3.313,0-6-2.687-6-6V106.17c0-3.313,2.687-6,6-6h9.875
		c3.313,0,6,2.687,6,6V125.545z"/>
	<path fill="#FFFFFF" d="M111.44,167.295c0,3.313-2.687,6-6,6H89.69c-3.313,0-6-2.687-6-6v-15.75c0-3.313,2.687-6,6-6h15.75
		c3.313,0,6,2.687,6,6V167.295z"/>
	<path fill="#FFFFFF" d="M104.065,135.545c0,3.313-3.471,6-7.753,6H83.068c-4.282,0-7.753-2.687-7.753-6v-22.75
		c0-3.313,3.471-6,7.753-6h13.244c4.282,0,7.753,2.687,7.753,6V135.545z"/>
	<path fill="#FFFFFF" d="M89.315,163.545c0,3.313-2.687,6-6,6h-10c-3.313,0-6-2.687-6-6v-40.333c0-3.313,2.687-6,6-6h10
		c3.313,0,6,2.687,6,6V163.545z"/>
	<path fill="#FFFFFF" d="M157.648,177.878c0,3.313-2.687,6-6,6H81.315c-3.313,0-6-2.687-6-6v-8c0-3.313,2.687-6,6-6h70.333
		c3.313,0,6,2.687,6,6V177.878z"/>
	<path fill="#FFFFFF" d="M110.565,183.545c0,2.624-2.126,4.75-4.75,4.75h-12c-2.624,0-4.75-2.126-4.75-4.75l0,0
		c0-2.624,2.126-4.75,4.75-4.75h12C108.438,178.795,110.565,180.921,110.565,183.545L110.565,183.545z"/>
</g>
<g>
	<path fill="#FFFFFF" d="M255.158,139.707c3.133-3.946,6.266-7.892,9.398-11.837c1.693-2.132,2.091-4.98,0-7.071
		c-1.762-1.761-5.374-2.138-7.071,0c-3.133,3.946-6.266,7.892-9.398,11.837c-1.693,2.132-2.091,4.98,0,7.071
		C249.849,141.468,253.46,141.844,255.158,139.707L255.158,139.707z"/>
</g>
<g>
	<path fill="#FFFFFF" d="M261.413,127.99c5.013-0.507,10.025-1.015,15.038-1.522c2.71-0.274,5-2.067,5-5c0-2.518-2.283-5.275-5-5
		c-5.013,0.507-10.025,1.015-15.038,1.522c-2.71,0.274-5,2.067-5,5C256.413,125.507,258.696,128.265,261.413,127.99L261.413,127.99z
		"/>
</g>
<g>
	<path fill="#FFFFFF" d="M252.35,131.804c-4.906-1.145-9.813-2.289-14.719-3.434c-6.274-1.464-8.937,8.178-2.658,9.643
		c4.906,1.145,9.813,2.289,14.719,3.434C255.965,142.91,258.628,133.269,252.35,131.804L252.35,131.804z"/>
</g>
<g>
	<path fill="#FFFFFF" d="M232.04,128.32c-4.26,2.691-8.519,5.382-12.778,8.073c-5.435,3.434-0.422,12.09,5.047,8.635
		c4.26-2.691,8.519-5.382,12.778-8.073C242.521,133.521,237.508,124.865,232.04,128.32L232.04,128.32z"/>
</g>
</svg>
