<?xml version="1.0" encoding="iso-8859-1"?>
<!-- Generator: Adobe Illustrator 16.0.0, SVG Export Plug-In . SVG Version: 6.00 Build 0)  -->
<!DOCTYPE svg PUBLIC "-//W3C//DTD SVG 1.1 Tiny//EN" "http://www.w3.org/Graphics/SVG/1.1/DTD/svg11-tiny.dtd">
<svg version="1.1" baseProfile="tiny" id="scene_x5F_making_x5F_love"
	 xmlns="http://www.w3.org/2000/svg" xmlns:xlink="http://www.w3.org/1999/xlink" x="0px" y="0px" width="361px" height="361px"
	 viewBox="0 0 361 361" xml:space="preserve">
<circle fill="#FFFFFF" cx="136.867" cy="105.187" r="19.638"/>
<g>
	<path fill="#FFFFFF" d="M87.864,182.417c12.926,10.367,25.853,20.734,38.779,31.102c3.182,2.552,7.51,3.081,10.608-0.057
		c2.647-2.681,3.14-8.044-0.057-10.608c-12.926-10.367-25.853-20.734-38.779-31.102c-3.182-2.552-7.51-3.081-10.608,0.057
		C85.159,174.49,84.667,179.854,87.864,182.417L87.864,182.417z"/>
</g>
<g>
	<path fill="#FFFFFF" d="M110.205,140.863c-7.93,10.643-15.86,21.285-23.79,31.927c-2.447,3.284-0.484,8.38,2.745,10.245
		c3.847,2.221,7.805,0.53,10.245-2.745c7.93-10.643,15.86-21.285,23.79-31.927c2.447-3.284,0.484-8.38-2.745-10.245
		C116.603,135.897,112.645,137.588,110.205,140.863L110.205,140.863z"/>
</g>
<g>
	<path fill="#FFFFFF" d="M219.74,227.846c2.62,13.964,5.24,27.929,7.86,41.893c1.785,9.515,16.261,5.562,14.489-3.882
		c-2.62-13.964-5.24-27.929-7.86-41.893C232.444,214.45,217.968,218.402,219.74,227.846L219.74,227.846z"/>
</g>
<g>
	<path fill="#FFFFFF" d="M234.79,276.837c15.43,1.11,30.86,2.221,46.29,3.331c9.675,0.696,9.694-14.314,0.108-15.003
		c-15.43-1.11-30.86-2.221-46.29-3.331C225.224,261.138,225.205,276.147,234.79,276.837L234.79,276.837z"/>
</g>
<circle fill="#FFFFFF" cx="256.11" cy="215.097" r="18.26"/>
<ellipse transform="matrix(0.9671 0.2544 -0.2544 0.9671 68.415 -44.0817)" fill="#FFFFFF" cx="204.636" cy="242.464" rx="9.313" ry="13.176"/>
<g>
	<path fill="#FFFFFF" d="M116.443,212.367c6.252,19.789,12.503,39.577,18.755,59.365c4.357,13.792,26.109,8.028,21.733-5.823
		c-6.252-19.789-12.503-39.577-18.755-59.365C133.819,192.751,112.067,198.516,116.443,212.367L116.443,212.367z"/>
</g>
<g>
	<path fill="#FFFFFF" d="M101.842,279.918c14.547-0.224,29.094-0.448,43.641-0.672c14.514-0.223,14.663-22.728,0.162-22.505
		c-14.547,0.224-29.094,0.448-43.641,0.672C87.49,257.637,87.341,280.142,101.842,279.918L101.842,279.918z"/>
</g>
<g>
	<path fill="#FFFFFF" d="M117.323,246.835c15.634-8.923,31.267-17.846,46.9-26.768c12.592-7.187,1.223-26.609-11.393-19.409
		c-15.634,8.923-31.267,17.846-46.9,26.768C93.338,234.612,104.708,254.035,117.323,246.835L117.323,246.835z"/>
</g>
<path fill="#FFFFFF" d="M125.271,129.042c-10.424,0-18.874,8.45-18.874,18.874v62.83l0,0c0,10.423,8.45,18.874,18.874,18.874
	c10.423,0,18.872-8.45,18.873-18.874l0,0v-62.83C144.144,137.492,135.694,129.042,125.271,129.042z"/>
<path fill="#FFFFFF" d="M139.371,209.514c-2.411,9.42,3.677,19.116,13.596,21.655l59.793,15.304l0,0
	c9.92,2.538,19.916-3.041,22.328-12.46c2.41-9.42-3.677-19.116-13.595-21.655l0,0l-59.794-15.304
	C151.779,194.515,141.783,200.094,139.371,209.514z"/>
<g>
	<path fill="#FFFFFF" d="M71.991,225.68c10.949,7.481,21.899,14.962,32.848,22.443c5.067,3.462,12.477,0.89,15.368-4.118
		c3.238-5.609,0.941-11.912-4.118-15.368c-10.949-7.481-21.899-14.962-32.848-22.443c-5.067-3.462-12.477-0.89-15.368,4.118
		C64.635,215.921,66.932,222.224,71.991,225.68L71.991,225.68z"/>
</g>
</svg>
