<?xml version="1.0" encoding="iso-8859-1"?>
<!-- Generator: Adobe Illustrator 16.0.0, SVG Export Plug-In . SVG Version: 6.00 Build 0)  -->
<!DOCTYPE svg PUBLIC "-//W3C//DTD SVG 1.1//EN" "http://www.w3.org/Graphics/SVG/1.1/DTD/svg11.dtd">
<svg version="1.1" xmlns="http://www.w3.org/2000/svg" xmlns:xlink="http://www.w3.org/1999/xlink" x="0px" y="0px" width="361px"
	 height="361px" viewBox="0 0 361 361" style="enable-background:new 0 0 361 361;" xml:space="preserve">
<g id="scene_x5F_garden">
	<g>
		<g>
			<path style="fill:#FFFFFF;" d="M143.388,214.87c0,24.089,0,48.177,0,72.266c0,6.448,10,6.448,10,0c0-24.089,0-48.177,0-72.266
				C153.388,208.422,143.388,208.422,143.388,214.87L143.388,214.87z"/>
		</g>
	</g>
	<g>
		<g>
			<path style="fill:#FFFFFF;" d="M158.541,214.947c0,24.089,0,48.178,0,72.267c0,6.448,10,6.448,10,0c0-24.089,0-48.178,0-72.267
				C168.541,208.499,158.541,208.499,158.541,214.947L158.541,214.947z"/>
		</g>
	</g>
	<g>
		<g>
			<path style="fill:#FFFFFF;" d="M173.693,214.947c0,24.089,0,48.178,0,72.267c0,6.448,10,6.448,10,0c0-24.089,0-48.178,0-72.267
				C183.693,208.499,173.693,208.499,173.693,214.947L173.693,214.947z"/>
		</g>
	</g>
	<g>
		<g>
			<path style="fill:#FFFFFF;" d="M188.846,214.947c0,24.089,0,48.178,0,72.267c0,6.448,10,6.448,10,0c0-24.089,0-48.178,0-72.267
				C198.846,208.499,188.846,208.499,188.846,214.947L188.846,214.947z"/>
		</g>
	</g>
	<g>
		<g>
			<path style="fill:#FFFFFF;" d="M203.998,214.87c0,24.089,0,48.177,0,72.266c0,6.448,10,6.448,10,0c0-24.089,0-48.177,0-72.266
				C213.998,208.422,203.998,208.422,203.998,214.87L203.998,214.87z"/>
		</g>
	</g>
	<g>
		<g>
			<path style="fill:#FFFFFF;" d="M219.15,214.947c0,24.089,0,48.178,0,72.267c0,6.448,10,6.448,10,0c0-24.089,0-48.178,0-72.267
				C229.15,208.499,219.15,208.499,219.15,214.947L219.15,214.947z"/>
		</g>
	</g>
	<g>
		<g>
			<path style="fill:#FFFFFF;" d="M234.304,214.947c0,24.089,0,48.178,0,72.267c0,6.448,10,6.448,10,0c0-24.089,0-48.178,0-72.267
				C244.304,208.499,234.304,208.499,234.304,214.947L234.304,214.947z"/>
		</g>
	</g>
	<g>
		<g>
			<path style="fill:#FFFFFF;" d="M249.455,214.947c0,24.089,0,48.178,0,72.267c0,6.448,10,6.448,10,0c0-24.089,0-48.178,0-72.267
				C259.455,208.499,249.455,208.499,249.455,214.947L249.455,214.947z"/>
		</g>
	</g>
	<g>
		<g>
			<path style="fill:#FFFFFF;" d="M264.608,214.87c0,24.089,0,48.177,0,72.266c0,6.448,10,6.448,10,0c0-24.089,0-48.177,0-72.266
				C274.608,208.422,264.608,208.422,264.608,214.87L264.608,214.87z"/>
		</g>
	</g>
	<g>
		<g>
			<path style="fill:#FFFFFF;" d="M142.516,233.935c45.162,0,90.324,0,135.486,0c0.052,0,0.103,0,0.154,0c6.448,0,6.448-10,0-10
				c-45.162,0-90.324,0-135.486,0c-0.051,0-0.103,0-0.154,0C136.067,223.935,136.067,233.935,142.516,233.935L142.516,233.935z"/>
		</g>
	</g>
	<g>
		<g>
			<path style="fill:#FFFFFF;" d="M142.083,277.761c45.382,0,90.763,0,136.145,0c0.08,0,0.159,0,0.239,0c6.448,0,6.448-10,0-10
				c-45.382,0-90.763,0-136.145,0c-0.08,0-0.16,0-0.239,0C135.634,267.761,135.634,277.761,142.083,277.761L142.083,277.761z"/>
		</g>
	</g>
	<g>
		<path style="fill:#FFFFFF;" d="M119.333,286.813c0,2.428-1.42,4.396-3.172,4.396h-8.989c-1.752,0-3.172-1.969-3.172-4.396V175.063
			c0-2.428,1.42-4.396,3.172-4.396h8.989c1.752,0,3.172,1.969,3.172,4.396V286.813z"/>
		<g>
			<g>
				<path style="fill:#FFFFFF;" d="M118.035,210.702c7.611-9.277,15.222-18.556,22.833-27.833c4.054-4.942-2.978-12.061-7.071-7.071
					c-7.611,9.278-15.222,18.556-22.833,27.834C106.91,208.573,113.942,215.691,118.035,210.702L118.035,210.702z"/>
			</g>
		</g>
		<path style="fill:#FFFFFF;" d="M167.972,161.25c0,2.577-1.991,4.667-4.449,4.667h-59.866c-2.458,0-4.449-2.089-4.449-4.667
			v-30.917c0-2.577,1.991-4.667,4.449-4.667h59.866c2.458,0,4.449,2.089,4.449,4.667V161.25z"/>
		<path style="fill:#FFFFFF;" d="M160.244,138.515c0,2.155-1.747,3.902-3.901,3.902h-48.608c-2.155,0-3.902-1.747-3.902-3.902
			v-21.946c0-2.155,1.747-3.902,3.902-3.902h48.608c2.154,0,3.901,1.747,3.901,3.902V138.515z"/>
		<path style="fill:#FFFFFF;" d="M132.711,133.616c0,1.438-1.547,2.605-3.456,2.605H96.288c-1.908,0-3.455-1.167-3.455-2.605
			v-31.593c0-1.438,1.547-2.605,3.455-2.605h32.968c1.908,0,3.456,1.167,3.456,2.605V133.616z"/>
		<path style="fill:#FFFFFF;" d="M149.083,122.667c0,3.313-2.687,6-6,6h-9.875c-3.313,0-6-2.687-6-6v-19.375c0-3.313,2.687-6,6-6
			h9.875c3.313,0,6,2.687,6,6V122.667z"/>
		<path style="fill:#FFFFFF;" d="M113.958,164.417c0,3.313-2.687,6-6,6h-15.75c-3.313,0-6-2.687-6-6v-15.75c0-3.313,2.687-6,6-6
			h15.75c3.313,0,6,2.687,6,6V164.417z"/>
		<path style="fill:#FFFFFF;" d="M106.583,132.667c0,3.313-3.471,6-7.753,6H85.586c-4.282,0-7.753-2.687-7.753-6v-22.75
			c0-3.313,3.471-6,7.753-6H98.83c4.282,0,7.753,2.687,7.753,6V132.667z"/>
		<path style="fill:#FFFFFF;" d="M91.833,160.667c0,3.313-2.687,6-6,6h-10c-3.313,0-6-2.687-6-6v-40.333c0-3.313,2.687-6,6-6h10
			c3.313,0,6,2.687,6,6V160.667z"/>
		<path style="fill:#FFFFFF;" d="M160.167,175c0,3.313-2.687,6-6,6H83.833c-3.313,0-6-2.686-6-6v-8c0-3.313,2.687-6,6-6h70.333
			c3.313,0,6,2.687,6,6V175z"/>
		<path style="fill:#FFFFFF;" d="M113.083,180.667c0,2.624-2.126,4.75-4.75,4.75h-12c-2.624,0-4.75-2.126-4.75-4.75l0,0
			c0-2.624,2.126-4.75,4.75-4.75h12C110.957,175.917,113.083,178.043,113.083,180.667L113.083,180.667z"/>
	</g>
	<g>
		<g>
			<path style="fill:#FFFFFF;" d="M257.676,136.829c3.133-3.946,6.266-7.892,9.398-11.837c1.693-2.132,2.091-4.98,0-7.071
				c-1.761-1.761-5.373-2.138-7.07,0c-3.133,3.946-6.266,7.892-9.398,11.837c-1.693,2.132-2.091,4.98,0,7.071
				C252.366,138.59,255.979,138.966,257.676,136.829L257.676,136.829z"/>
		</g>
	</g>
	<g>
		<g>
			<path style="fill:#FFFFFF;" d="M263.931,125.112c5.013-0.507,10.025-1.015,15.038-1.522c2.711-0.274,5-2.067,5-5
				c0-2.518-2.283-5.275-5-5c-5.013,0.507-10.025,1.015-15.038,1.522c-2.711,0.274-5,2.067-5,5
				C258.931,122.629,261.214,125.387,263.931,125.112L263.931,125.112z"/>
		</g>
	</g>
	<g>
		<g>
			<path style="fill:#FFFFFF;" d="M254.868,128.926c-4.906-1.145-9.813-2.289-14.72-3.434c-6.274-1.464-8.938,8.178-2.658,9.643
				c4.906,1.145,9.813,2.289,14.72,3.434C258.484,140.032,261.147,130.39,254.868,128.926L254.868,128.926z"/>
		</g>
	</g>
	<g>
		<g>
			<path style="fill:#FFFFFF;" d="M234.558,125.442c-4.26,2.691-8.519,5.382-12.778,8.073c-5.435,3.434-0.422,12.09,5.047,8.635
				c4.26-2.691,8.52-5.382,12.778-8.073C245.039,130.644,240.026,121.987,234.558,125.442L234.558,125.442z"/>
		</g>
	</g>
</g>
<g id="Ebene_1">
</g>
</svg>
