<?xml version="1.0" encoding="iso-8859-1"?>
<!-- Generator: Adobe Illustrator 16.0.0, SVG Export Plug-In . SVG Version: 6.00 Build 0)  -->
<!DOCTYPE svg PUBLIC "-//W3C//DTD SVG 1.1 Tiny//EN" "http://www.w3.org/Graphics/SVG/1.1/DTD/svg11-tiny.dtd">
<svg version="1.1" baseProfile="tiny" id="scene_x5F_shower"
	 xmlns="http://www.w3.org/2000/svg" xmlns:xlink="http://www.w3.org/1999/xlink" x="0px" y="0px" width="361px" height="361px"
	 viewBox="0 0 361 361" xml:space="preserve">
<g>
	<g>
		<path fill="#FFFFFF" d="M233.648,284.958c-35.09,0-70.18,0-105.27,0c-6.449,0-6.449,10,0,10c35.09,0,70.18,0,105.27,0
			C240.097,294.958,240.097,284.958,233.648,284.958L233.648,284.958z"/>
	</g>
	<g>
		<path fill="#FFFFFF" d="M233.648,280.795c-10.5,0-21,0-31.5,0c-6.449,0-6.449,10,0,10c10.5,0,21,0,31.5,0
			C240.097,290.795,240.097,280.795,233.648,280.795L233.648,280.795z"/>
	</g>
	<g>
		<path fill="#FFFFFF" d="M228.648,77.545c0,48.707,0,97.413,0,146.12c0,21.127,0,42.253,0,63.38c0,6.449,10,6.449,10,0
			c0-48.707,0-97.413,0-146.12c0-21.127,0-42.253,0-63.38C238.648,71.096,228.648,71.096,228.648,77.545L228.648,77.545z"/>
	</g>
	<g>
		<path fill="#FFFFFF" d="M141.572,280.795c-4.398,0-8.795,0-13.193,0c-6.449,0-6.449,10,0,10c4.398,0,8.795,0,13.193,0
			C148.021,290.795,148.021,280.795,141.572,280.795L141.572,280.795z"/>
	</g>
	<g>
		<path fill="#FFFFFF" d="M123.378,285.794c0,1.388,0,2.775,0,4.163c0,2.726,2.274,5,5,5s5-2.274,5-5c0-1.388,0-2.775,0-4.163
			c0-2.726-2.274-5-5-5S123.378,283.069,123.378,285.794L123.378,285.794z"/>
	</g>
</g>
<g>
	<g>
		<path fill="#FFFFFF" d="M190.431,85.638c13.64,3.655,27.28,7.31,40.92,10.964c6.237,1.671,8.881-7.975,2.658-9.643
			c-13.64-3.655-27.28-7.31-40.92-10.964C186.852,74.324,184.208,83.971,190.431,85.638L190.431,85.638z"/>
	</g>
	<g>
		<path fill="#FFFFFF" d="M186.88,79.709c-1.21,4.515-2.42,9.03-3.629,13.545c-1.671,6.237,7.975,8.881,9.643,2.658
			c1.21-4.515,2.42-9.03,3.629-13.545C198.194,76.13,188.547,73.486,186.88,79.709L186.88,79.709z"/>
	</g>
	<g>
		<path fill="#FFFFFF" d="M164.646,95.578c14.157,3.793,28.313,7.587,42.471,11.38c6.237,1.671,8.881-7.975,2.658-9.643
			c-14.157-3.793-28.313-7.587-42.471-11.38C161.067,84.264,158.423,93.91,164.646,95.578L164.646,95.578z"/>
	</g>
	<g>
		<path fill="#FFFFFF" d="M161.017,90.034c-0.575,2.146-1.15,4.293-1.725,6.44c-0.705,2.631,0.853,5.424,3.492,6.15
			c2.613,0.719,5.446-0.861,6.15-3.492c0.575-2.146,1.15-4.293,1.725-6.44c0.705-2.631-0.853-5.424-3.492-6.15
			C164.554,85.823,161.721,87.403,161.017,90.034L161.017,90.034z"/>
	</g>
	<g>
		<path fill="#FFFFFF" d="M203.487,101.808c-0.575,2.146-1.15,4.293-1.726,6.44c-0.705,2.631,0.853,5.424,3.492,6.15
			c2.613,0.719,5.445-0.861,6.15-3.492c0.575-2.146,1.15-4.293,1.726-6.44c0.705-2.631-0.853-5.424-3.492-6.15
			C207.024,97.597,204.192,99.176,203.487,101.808L203.487,101.808z"/>
	</g>
	<g>
		<g>
			<path fill="#FFFFFF" d="M187.515,127.805c-1.297,4.841-2.593,9.681-3.89,14.521c-1.169,4.367,5.583,6.217,6.75,1.861
				c1.297-4.841,2.593-9.681,3.89-14.521C195.435,125.3,188.682,123.449,187.515,127.805L187.515,127.805z"/>
		</g>
		<g>
			<path fill="#FFFFFF" d="M178.502,115.074c-1.101,4.11-2.202,8.221-3.303,12.331c-1.169,4.367,5.583,6.217,6.75,1.861
				c1.101-4.11,2.202-8.221,3.303-12.331C186.421,112.569,179.669,110.718,178.502,115.074L178.502,115.074z"/>
		</g>
		<g>
			<path fill="#FFFFFF" d="M172.033,139.222c-1.833,6.841-3.665,13.682-5.498,20.523c-1.169,4.367,5.583,6.217,6.75,1.861
				c1.833-6.841,3.665-13.682,5.498-20.523C179.953,136.716,173.2,134.866,172.033,139.222L172.033,139.222z"/>
		</g>
		<g>
			<path fill="#FFFFFF" d="M164.332,121.595c-1.296,4.841-2.593,9.682-3.89,14.522c-1.169,4.367,5.583,6.217,6.75,1.861
				c1.296-4.841,2.593-9.682,3.89-14.522C172.251,119.089,165.499,117.239,164.332,121.595L164.332,121.595z"/>
		</g>
		<g>
			<path fill="#FFFFFF" d="M157.443,147.312c-1.833,6.841-3.665,13.682-5.498,20.523c-1.169,4.367,5.583,6.217,6.75,1.861
				c1.833-6.841,3.665-13.682,5.498-20.523C165.363,144.806,158.61,142.956,157.443,147.312L157.443,147.312z"/>
		</g>
		<g>
			<path fill="#FFFFFF" d="M181.225,152.765c-1.833,6.841-3.665,13.682-5.498,20.523c-1.169,4.367,5.583,6.217,6.75,1.861
				c1.833-6.841,3.665-13.682,5.498-20.523C189.144,150.259,182.392,148.409,181.225,152.765L181.225,152.765z"/>
		</g>
		<g>
			<path fill="#FFFFFF" d="M196.822,140.302c-1.345,5.022-2.69,10.045-4.036,15.067c-1.169,4.367,5.583,6.217,6.75,1.861
				c1.345-5.022,2.69-10.045,4.036-15.067C204.742,137.797,197.989,135.946,196.822,140.302L196.822,140.302z"/>
		</g>
		<g>
			<path fill="#FFFFFF" d="M189.132,168.745c-1.833,6.841-3.665,13.682-5.498,20.523c-1.169,4.367,5.583,6.217,6.75,1.861
				c1.833-6.841,3.665-13.682,5.498-20.523C197.052,166.239,190.299,164.389,189.132,168.745L189.132,168.745z"/>
		</g>
		<g>
			<path fill="#FFFFFF" d="M150.164,127.5c-1.345,5.022-2.691,10.044-4.036,15.066c-1.169,4.367,5.583,6.217,6.75,1.861
				c1.345-5.022,2.691-10.044,4.036-15.066C158.083,124.994,151.331,123.144,150.164,127.5L150.164,127.5z"/>
		</g>
		<g>
			<path fill="#FFFFFF" d="M142.501,155.839c-1.833,6.841-3.666,13.682-5.498,20.523c-1.17,4.367,5.583,6.217,6.75,1.861
				c1.833-6.841,3.666-13.682,5.498-20.523C150.421,153.333,143.668,151.483,142.501,155.839L142.501,155.839z"/>
		</g>
		<g>
			<path fill="#FFFFFF" d="M192.041,111.646c-0.582,2.172-1.164,4.345-1.746,6.517c-1.169,4.367,5.583,6.217,6.75,1.861
				c0.582-2.172,1.164-4.345,1.746-6.517C199.96,109.141,193.208,107.29,192.041,111.646L192.041,111.646z"/>
		</g>
		<g>
			<path fill="#FFFFFF" d="M169.285,105.463c-0.582,2.172-1.164,4.345-1.746,6.517c-1.169,4.367,5.583,6.217,6.75,1.861
				c0.582-2.172,1.164-4.345,1.746-6.517C177.204,102.958,170.452,101.107,169.285,105.463L169.285,105.463z"/>
		</g>
		<g>
			<path fill="#FFFFFF" d="M162.463,172.248c-1.345,5.021-2.69,10.042-4.035,15.063c-1.169,4.367,5.583,6.217,6.75,1.861
				c1.345-5.021,2.69-10.042,4.035-15.063C170.382,169.743,163.63,167.892,162.463,172.248L162.463,172.248z"/>
		</g>
		<g>
			<path fill="#FFFFFF" d="M200.895,125.87c-0.354,1.324-0.709,2.648-1.063,3.973c-0.493,1.842,0.597,3.797,2.444,4.306
				c1.829,0.503,3.813-0.603,4.306-2.444c0.354-1.324,0.709-2.648,1.063-3.973c0.493-1.842-0.597-3.797-2.444-4.306
				C203.372,122.922,201.388,124.028,200.895,125.87L200.895,125.87z"/>
		</g>
	</g>
	<g>
		<path fill="#FFFFFF" d="M154.694,113.088c-0.354,1.324-0.709,2.648-1.063,3.973c-0.493,1.842,0.597,3.797,2.444,4.306
			c1.829,0.503,3.813-0.603,4.306-2.444c0.354-1.324,0.709-2.648,1.063-3.973c0.493-1.842-0.597-3.797-2.444-4.306
			C157.171,110.141,155.188,111.246,154.694,113.088L154.694,113.088z"/>
	</g>
</g>
</svg>
