<?xml version="1.0" encoding="iso-8859-1"?>
<!-- Generator: Adobe Illustrator 16.0.0, SVG Export Plug-In . SVG Version: 6.00 Build 0)  -->
<!DOCTYPE svg PUBLIC "-//W3C//DTD SVG 1.1 Tiny//EN" "http://www.w3.org/Graphics/SVG/1.1/DTD/svg11-tiny.dtd">
<svg version="1.1" baseProfile="tiny" id="scene_x5F_storeroom"
	 xmlns="http://www.w3.org/2000/svg" xmlns:xlink="http://www.w3.org/1999/xlink" x="0px" y="0px" width="361px" height="361px"
	 viewBox="0 0 361 361" xml:space="preserve">
<g>
	<path fill="#FFFFFF" d="M210.67,183.75c0,35.833,0,71.667,0,107.5c0,4.514,7,4.514,7,0c0-35.833,0-71.667,0-107.5
		C217.67,179.236,210.67,179.236,210.67,183.75L210.67,183.75z"/>
</g>
<g>
	<path fill="#FFFFFF" d="M281.525,183.75c0,35.833,0,71.667,0,107.5c0,4.514,7,4.514,7,0c0-35.833,0-71.667,0-107.5
		C288.525,179.236,281.525,179.236,281.525,183.75L281.525,183.75z"/>
</g>
<g>
	<g>
		<path fill="#FFFFFF" d="M66.96,84.417c0,48.866,0,97.731,0,146.597c0,20.079,0,40.157,0,60.236c0,4.514,7,4.514,7,0
			c0-48.866,0-97.731,0-146.597c0-20.079,0-40.157,0-60.236C73.96,79.903,66.96,79.903,66.96,84.417L66.96,84.417z"/>
	</g>
	<g>
		<path fill="#FFFFFF" d="M166.815,84.417c0,48.866,0,97.731,0,146.597c0,20.079,0,40.157,0,60.236c0,4.514,7,4.514,7,0
			c0-48.866,0-97.731,0-146.597c0-20.079,0-40.157,0-60.236C173.815,79.903,166.815,79.903,166.815,84.417L166.815,84.417z"/>
	</g>
	<g>
		<path fill="#FFFFFF" d="M166.847,87.073c-31.833,0-63.667,0-95.5,0c-4.514,0-4.514,7,0,7c31.833,0,63.667,0,95.5,0
			C171.361,94.073,171.361,87.073,166.847,87.073L166.847,87.073z"/>
	</g>
	<g>
		<path fill="#FFFFFF" d="M166.847,141.893c-31.833,0-63.667,0-95.5,0c-4.514,0-4.514,7,0,7c31.833,0,63.667,0,95.5,0
			C171.361,148.893,171.361,141.893,166.847,141.893L166.847,141.893z"/>
	</g>
	<g>
		<path fill="#FFFFFF" d="M166.847,196.712c-31.833,0-63.667,0-95.5,0c-4.514,0-4.514,7,0,7c31.833,0,63.667,0,95.5,0
			C171.361,203.712,171.361,196.712,166.847,196.712L166.847,196.712z"/>
	</g>
	<g>
		<path fill="#FFFFFF" d="M166.847,268.712c-31.833,0-63.667,0-95.5,0c-4.514,0-4.514,7,0,7c31.833,0,63.667,0,95.5,0
			C171.361,275.712,171.361,268.712,166.847,268.712L166.847,268.712z"/>
	</g>
</g>
<g>
	<g>
		<path fill="#FFFFFF" d="M125.874,193.255c0.134-0.323,0.851-0.209-0.009-0.209c-0.735,0-1.469,0-2.204,0c-2.386,0-4.771,0-7.156,0
			c-2.286,0-4.572,0-6.858,0c-0.611,0-1.222,0-1.833,0c-0.336,0,0.352,1.026,0.352,0.133c0-7.451,0-14.902,0-22.353
			c0,0.661-1.02,0.553-0.044,0.553c0.735,0,1.469,0,2.204,0c2.386,0,4.771,0,7.156,0c2.286,0,4.572,0,6.858,0
			c0.611,0,1.222,0,1.833,0c0.336,0-0.352-1.026-0.352-0.133c0,7.469,0,14.939,0,22.408c0,1.935,3,1.935,3,0
			c0-4.303,0-8.606,0-12.909c0-2.504,1.377-9.588-0.701-11.666c-0.948-0.949-2.582-0.701-3.78-0.701c-2.935,0-5.87,0-8.805,0
			c-2.923,0-8.913-1.39-10.315,1.993c-0.452,1.09-0.054,3.032-0.054,4.16c0,3.049,0,6.099,0,9.148c0,2.504-1.377,9.588,0.701,11.666
			c0.948,0.949,2.582,0.701,3.78,0.701c2.935,0,5.87,0,8.805,0c2.923,0,8.913,1.39,10.315-1.993
			C129.507,192.265,126.604,191.494,125.874,193.255z"/>
	</g>
	<g>
		<path fill="#FFFFFF" d="M106.666,165.865c6.885,0,13.77,0,20.655,0c1.935,0,1.935-3,0-3c-6.885,0-13.77,0-20.655,0
			C104.731,162.865,104.731,165.865,106.666,165.865L106.666,165.865z"/>
	</g>
</g>
<g>
	<g>
		<path fill="#FFFFFF" d="M98.529,193.255c0.134-0.323,0.851-0.209-0.009-0.209c-0.735,0-1.469,0-2.204,0c-2.385,0-4.771,0-7.156,0
			c-2.286,0-4.572,0-6.858,0c-0.611,0-1.222,0-1.833,0c-0.336,0,0.352,1.026,0.352,0.133c0-7.451,0-14.902,0-22.353
			c0,0.661-1.02,0.553-0.044,0.553c0.735,0,1.469,0,2.204,0c2.386,0,4.771,0,7.156,0c2.286,0,4.572,0,6.858,0
			c0.611,0,1.222,0,1.833,0c0.336,0-0.352-1.026-0.352-0.133c0,7.469,0,14.939,0,22.408c0,1.935,3,1.935,3,0
			c0-4.303,0-8.606,0-12.909c0-2.504,1.377-9.588-0.701-11.666c-0.948-0.949-2.582-0.701-3.78-0.701c-2.935,0-5.87,0-8.805,0
			c-2.923,0-8.913-1.391-10.315,1.993c-0.452,1.09-0.054,3.032-0.054,4.16c0,3.049,0,6.099,0,9.148
			c0,2.504-1.377,9.588,0.701,11.666c0.948,0.949,2.582,0.701,3.78,0.701c2.935,0,5.87,0,8.805,0c2.923,0,8.913,1.391,10.315-1.993
			C102.163,192.265,99.259,191.494,98.529,193.255z"/>
	</g>
	<g>
		<path fill="#FFFFFF" d="M79.321,165.865c6.885,0,13.77,0,20.655,0c1.935,0,1.935-3,0-3c-6.885,0-13.77,0-20.655,0
			C77.386,162.865,77.386,165.865,79.321,165.865L79.321,165.865z"/>
	</g>
</g>
<g>
	<g>
		<path fill="#FFFFFF" d="M151.207,193.528c-0.061,0.146-0.121,0.292-0.182,0.438c0.35-0.349,0.699-0.698,1.048-1.048
			c-1.575,0.653-4.491,0.128-6.248,0.128c-1.935,0-5.185,0.594-6.925-0.128c0.349,0.35,0.698,0.699,1.048,1.048
			c-0.791-1.907-0.128-5.521-0.128-7.638c0-2.297-0.732-6.246,0.128-8.318c-0.35,0.349-0.699,0.698-1.048,1.048
			c1.575-0.653,4.491-0.128,6.248-0.128c1.935,0,5.185-0.594,6.925,0.128c-0.349-0.35-0.698-0.699-1.048-1.048
			c0.791,1.907,0.128,5.521,0.128,7.638c0,2.76,0,5.52,0,8.28c0,1.935,3,1.935,3,0c0-2.986,0-5.972,0-8.958
			c0-1.907,0.962-6.837-0.621-8.419c-1.671-1.671-7.025-0.621-9.058-0.621c-2.369,0-6.484-0.972-7.6,1.72
			c-0.332,0.8-0.054,2.187-0.054,3.009c0,2.116,0,4.232,0,6.348c0,1.907-0.962,6.837,0.621,8.419
			c1.671,1.671,7.025,0.621,9.058,0.621c2.369,0,6.484,0.972,7.6-1.72C154.84,192.539,151.937,191.768,151.207,193.528z"/>
	</g>
	<g>
		<path fill="#FFFFFF" d="M138.32,174.103c4.777,0,9.555,0,14.333,0c1.935,0,1.935-3,0-3c-4.777,0-9.555,0-14.333,0
			C136.386,171.103,136.386,174.103,138.32,174.103L138.32,174.103z"/>
	</g>
</g>
<g>
	<g>
		<path fill="#FFFFFF" d="M158.064,136.6c0.021,3.816-5.51,2.377-8.228,2.377c-1.475,0-0.9-7.913-0.9-8.601
			c0-3.851,0-7.701,0-11.552c0-3.71,1.477-6.334,3.045-9.606c0.779-1.627,1.324-3.422,1.528-5.216
			c0.033-0.285-0.241-2.94-0.08-1.308c0.148,1.5,0.536,2.938,0.988,4.368c1.214,3.839,3.646,6.578,3.646,10.816
			C158.064,124.12,158.064,130.36,158.064,136.6c0,1.935,3,1.935,3,0c0-4.04,0-8.08,0-12.12c0-4.245,0.498-8.786-1.165-12.79
			c-1.119-2.692-2.582-5.027-3.275-7.91c-0.686-2.854,0.009-4.304-3.137-4.722c-2.374-0.316-2.743,1.769-2.816,3.53
			c-0.159,3.802-2.331,6.769-3.789,10.118c-1.438,3.299-0.945,7.314-0.945,10.819c0,4.358,0,8.716,0,13.075
			c0,5.231,2.476,5.377,7.065,5.377c4.81,0,8.093,0.366,8.062-5.377C161.054,134.666,158.054,134.665,158.064,136.6z"/>
	</g>
	<g>
		<path fill="#FFFFFF" d="M152.543,100.094c0.638,0,1.276,0,1.914,0c1.935,0,1.935-3,0-3c-0.638,0-1.276,0-1.914,0
			C150.609,97.094,150.609,100.094,152.543,100.094L152.543,100.094z"/>
	</g>
</g>
<g>
	<g>
		<path fill="#FFFFFF" d="M140.193,136.6c0.021,3.816-5.509,2.377-8.227,2.377c-1.476,0-0.9-7.913-0.9-8.601
			c0-3.851,0-7.701,0-11.552c0-3.71,1.477-6.334,3.045-9.606c0.779-1.627,1.324-3.422,1.528-5.216
			c0.033-0.285-0.241-2.94-0.08-1.308c0.148,1.5,0.536,2.938,0.988,4.368c1.214,3.839,3.646,6.578,3.646,10.816
			C140.193,124.12,140.193,130.36,140.193,136.6c0,1.935,3,1.935,3,0c0-4.04,0-8.08,0-12.12c0-4.245,0.498-8.786-1.165-12.79
			c-1.119-2.692-2.582-5.027-3.275-7.91c-0.686-2.854,0.009-4.304-3.137-4.722c-2.374-0.316-2.743,1.769-2.816,3.53
			c-0.159,3.802-2.331,6.769-3.789,10.118c-1.438,3.299-0.945,7.314-0.945,10.819c0,4.358,0,8.716,0,13.075
			c0,5.232,2.476,5.377,7.066,5.377c4.81,0,8.092,0.366,8.062-5.377C143.183,134.666,140.183,134.665,140.193,136.6z"/>
	</g>
	<g>
		<path fill="#FFFFFF" d="M134.673,100.094c0.638,0,1.276,0,1.914,0c1.935,0,1.935-3,0-3c-0.638,0-1.276,0-1.914,0
			C132.738,97.094,132.738,100.094,134.673,100.094L134.673,100.094z"/>
	</g>
</g>
<g>
	<g>
		<path fill="#FFFFFF" d="M88.144,137.705c-0.002,2.021-5.379,2.021-5.381,0c-0.002-1.799,0-3.598,0-5.396c0-2.519,0-5.037,0-7.556
			c0-2.627,1.357-4.415,2.245-6.763c0.485-1.283,0.907-2.598,0.984-3.981c-0.841-0.325-1.155-0.19-0.94,0.403
			c0.246,1.228,0.547,2.325,1.009,3.486c0.943,2.373,2.083,4.187,2.083,6.854C88.144,129.07,88.144,133.388,88.144,137.705
			c0,1.935,3,1.935,3,0c0-5.274,1.367-12.622-0.743-17.609c-1.112-2.627-2.26-4.747-2.574-7.673c-0.102-0.944-0.972-1.79-1.965-1.79
			c-1.038,0-2.394,0.175-2.728,1.391c-0.83,3.016-1.24,5.389-2.569,8.269c-1.153,2.498-0.802,5.481-0.802,8.154
			c0,3.486-0.003,6.972,0.001,10.458c0.004,3.332,3.279,3.054,5.689,3.054c3.547,0,5.685-0.164,5.69-4.255
			C91.146,135.771,88.146,135.771,88.144,137.705z"/>
	</g>
	<g>
		<path fill="#FFFFFF" d="M84.792,112.201c0.441,0,0.882,0,1.323,0c1.935,0,1.935-3,0-3c-0.441,0-0.882,0-1.323,0
			C82.857,109.201,82.857,112.201,84.792,112.201L84.792,112.201z"/>
	</g>
</g>
<g>
	<g>
		<path fill="#FFFFFF" d="M100.97,137.705c-0.002,2.021-5.379,2.021-5.381,0c-0.002-1.799,0-3.598,0-5.396c0-2.519,0-5.037,0-7.556
			c0-2.627,1.357-4.415,2.245-6.763c0.485-1.283,0.907-2.598,0.984-3.981c-0.841-0.325-1.155-0.19-0.94,0.403
			c0.246,1.228,0.547,2.325,1.009,3.486c0.943,2.373,2.083,4.187,2.083,6.854C100.97,129.07,100.97,133.388,100.97,137.705
			c0,1.935,3,1.935,3,0c0-5.274,1.367-12.622-0.743-17.609c-1.112-2.627-2.26-4.747-2.574-7.673c-0.102-0.944-0.972-1.79-1.965-1.79
			c-1.038,0-2.394,0.175-2.728,1.391c-0.83,3.016-1.24,5.389-2.569,8.269c-1.153,2.498-0.802,5.481-0.802,8.154
			c0,3.486-0.003,6.972,0.001,10.458c0.004,3.332,3.279,3.054,5.689,3.054c3.547,0,5.685-0.164,5.69-4.255
			C103.973,135.771,100.973,135.771,100.97,137.705z"/>
	</g>
	<g>
		<path fill="#FFFFFF" d="M97.618,112.201c0.441,0,0.882,0,1.323,0c1.935,0,1.935-3,0-3c-0.441,0-0.882,0-1.323,0
			C95.684,109.201,95.684,112.201,97.618,112.201L97.618,112.201z"/>
	</g>
</g>
<g>
	<path fill="#FFFFFF" d="M285.025,181.487c-23.618,0-47.237,0-70.855,0c-4.514,0-4.514,7,0,7c23.618,0,47.237,0,70.855,0
		C289.539,188.487,289.539,181.487,285.025,181.487L285.025,181.487z"/>
</g>
<g>
	<path fill="#FFFFFF" d="M285.025,279.045c-23.618,0-47.237,0-70.855,0c-4.514,0-4.514,7,0,7c23.618,0,47.237,0,70.855,0
		C289.539,286.045,289.539,279.045,285.025,279.045L285.025,279.045z"/>
</g>
<g>
	<path fill="#FFFFFF" d="M214.17,205.379c4.514,0,4.514-7,0-7S209.656,205.379,214.17,205.379L214.17,205.379z"/>
</g>
<g>
	<path fill="#FFFFFF" d="M285.025,205.379c4.514,0,4.514-7,0-7S280.511,205.379,285.025,205.379L285.025,205.379z"/>
</g>
<g>
	<path fill="#FFFFFF" d="M112.482,262.762c-0.544,4.726-5.888,3.738-8.728,3.738c-4.087,0-8.174,0-12.262,0
		c-4.988,0-12.235,1.27-12.235-5.933c0-13.525,0-27.051,0-40.576c0-7.173,8.53-5.491,13.184-5.491
		c2.969,0,20.041-2.416,20.041,3.768c0,12.697,0,25.393,0,38.089C112.482,258.493,112.482,260.627,112.482,262.762
		c0,1.935,3,1.935,3,0c0-12.459,0-24.919,0-37.379c0-3.764,1.09-10.114-2.705-12.527c-4.508-2.866-12.366-1.355-17.402-1.355
		c-4.03,0-13.402-1.724-16.716,1.59c-3.383,3.383-2.401,8.666-2.401,13.062c0,7.854,0,15.709,0,23.563
		c0,4.693-0.4,9.576,0.138,14.247c0.929,8.067,14.77,5.537,19.969,5.537c6.547,0,18.062,2.425,19.117-6.738
		C115.703,260.842,112.701,260.864,112.482,262.762z"/>
</g>
<g>
	<path fill="#FFFFFF" d="M127.215,265.671c-4.272-0.689-2.452-11.413-2.452-14.16c0-1.781,0-3.562,0-5.343
		c0-2.69,3.621-2.124,5.069-2.124c9.048,0,18.096,0,27.144,0c3.648,0,2.095,13.055,2.095,14.991c0,1.483,0.785,6.582-2.095,6.582
		c-1.207,0-2.413,0-3.619,0c-8.847,0-17.694,0-26.541,0c-1.935,0-1.935,3,0,3c5.034,0,10.067,0,15.101,0
		c4.974,0,10.574,0.741,15.5-0.054c6.229-1.004,4.654-8.669,4.654-13.248c0-4.68,1.788-13.178-4.654-14.217
		c-4.615-0.745-9.856-0.054-14.516-0.054c-5.362,0-10.723,0-16.085,0c-6.646,0-5.053,9.139-5.053,13.301
		c0,4.68-1.788,13.178,4.654,14.217C128.309,268.869,129.121,265.978,127.215,265.671z"/>
</g>
<g>
	<path fill="#FFFFFF" d="M130.215,241.099c-4.272-0.689-2.452-11.413-2.452-14.16c0-1.781,0-3.562,0-5.343
		c0-2.69,3.621-2.124,5.069-2.124c9.048,0,18.096,0,27.144,0c3.648,0,2.095,13.055,2.095,14.991c0,1.483,0.785,6.582-2.095,6.582
		c-1.207,0-2.413,0-3.619,0c-8.847,0-17.694,0-26.541,0c-1.935,0-1.935,3,0,3c5.034,0,10.067,0,15.101,0
		c4.974,0,10.575,0.741,15.5-0.054c6.229-1.004,4.654-8.669,4.654-13.248c0-4.68,1.788-13.178-4.654-14.217
		c-4.615-0.745-9.856-0.054-14.516-0.054c-5.362,0-10.723,0-16.085,0c-6.646,0-5.053,9.139-5.053,13.301
		c0,4.68-1.788,13.178,4.654,14.217C131.309,244.296,132.121,241.406,130.215,241.099z"/>
</g>
<g>
	<path fill="#FFFFFF" d="M243.701,201.118c-0.269-4.998-3.837-8.564-8.834-8.833c-4.986-0.269-8.585,4.241-8.833,8.833
		c-0.269,4.986,4.24,8.586,8.833,8.834C239.854,210.22,243.453,205.71,243.701,201.118c0.104-1.934-2.896-1.924-3,0
		c-0.405,7.52-11.262,7.52-11.667,0c-0.405-7.523,11.264-7.483,11.667,0C240.804,203.042,243.805,203.052,243.701,201.118z"/>
</g>
<g>
	<path fill="#FFFFFF" d="M262.721,201.118c-0.269-4.998-3.836-8.564-8.833-8.833c-4.986-0.269-8.585,4.241-8.833,8.833
		c-0.269,4.986,4.24,8.586,8.833,8.834C258.874,210.22,262.473,205.71,262.721,201.118c0.104-1.934-2.896-1.924-3,0
		c-0.405,7.52-11.262,7.52-11.667,0c-0.405-7.522,11.264-7.483,11.667,0C259.824,203.042,262.825,203.052,262.721,201.118z"/>
</g>
<g>
	<path fill="#FFFFFF" d="M281.742,201.118c-0.269-4.998-3.837-8.564-8.834-8.833c-4.986-0.269-8.586,4.241-8.833,8.833
		c-0.269,4.986,4.24,8.586,8.833,8.834C277.895,210.22,281.494,205.71,281.742,201.118c0.104-1.934-2.896-1.924-3,0
		c-0.405,7.52-11.262,7.52-11.667,0c-0.405-7.523,11.264-7.483,11.667,0C278.845,203.042,281.846,203.052,281.742,201.118z"/>
</g>
<g>
	<path fill="#FFFFFF" d="M234.875,223.339c-0.269-4.997-3.836-8.564-8.833-8.833c-4.986-0.269-8.586,4.241-8.833,8.833
		c-0.269,4.987,4.241,8.586,8.833,8.834C231.028,232.441,234.627,227.932,234.875,223.339c0.104-1.934-2.896-1.924-3,0
		c-0.405,7.52-11.262,7.52-11.667,0c-0.405-7.522,11.264-7.483,11.667,0C231.979,225.263,234.979,225.273,234.875,223.339z"/>
</g>
<g>
	<path fill="#FFFFFF" d="M253.896,223.339c-0.269-4.998-3.837-8.564-8.834-8.833c-4.986-0.269-8.585,4.241-8.833,8.833
		c-0.269,4.986,4.24,8.586,8.833,8.834C250.048,232.441,253.648,227.932,253.896,223.339c0.104-1.934-2.896-1.924-3,0
		c-0.405,7.52-11.262,7.52-11.667,0c-0.405-7.523,11.264-7.483,11.667,0C250.999,225.263,254,225.273,253.896,223.339z"/>
</g>
<g>
	<path fill="#FFFFFF" d="M272.916,223.339c-0.269-4.997-3.836-8.564-8.833-8.833c-4.986-0.269-8.585,4.241-8.833,8.833
		c-0.269,4.986,4.24,8.586,8.833,8.834C269.069,232.441,272.668,227.932,272.916,223.339c0.104-1.934-2.896-1.924-3,0
		c-0.405,7.52-11.262,7.52-11.667,0c-0.405-7.522,11.264-7.483,11.667,0C270.02,225.263,273.02,225.273,272.916,223.339z"/>
</g>
<g>
	<path fill="#FFFFFF" d="M244.279,245.418c-0.269-4.998-3.836-8.564-8.834-8.833c-4.986-0.269-8.585,4.241-8.833,8.833
		c-0.269,4.986,4.24,8.586,8.833,8.833C240.432,254.521,244.032,250.012,244.279,245.418c0.104-1.934-2.896-1.924-3,0
		c-0.405,7.519-11.262,7.519-11.667,0c-0.405-7.523,11.264-7.483,11.667,0C241.383,247.342,244.383,247.353,244.279,245.418z"/>
</g>
<g>
	<path fill="#FFFFFF" d="M263.299,245.418c-0.269-4.998-3.836-8.564-8.833-8.833c-4.986-0.269-8.585,4.242-8.833,8.833
		c-0.269,4.986,4.24,8.586,8.833,8.833C259.453,254.521,263.052,250.011,263.299,245.418c0.104-1.934-2.896-1.924-3,0
		c-0.405,7.519-11.261,7.519-11.666,0c-0.405-7.523,11.263-7.483,11.666,0C260.403,247.342,263.403,247.353,263.299,245.418z"/>
</g>
<g>
	<path fill="#FFFFFF" d="M282.32,245.418c-0.269-4.998-3.836-8.564-8.833-8.833c-4.986-0.269-8.586,4.241-8.833,8.833
		c-0.269,4.987,4.241,8.586,8.833,8.833C278.474,254.521,282.073,250.011,282.32,245.418c0.104-1.934-2.896-1.924-3,0
		c-0.405,7.519-11.262,7.519-11.667,0c-0.405-7.523,11.264-7.483,11.667,0C279.424,247.342,282.424,247.353,282.32,245.418z"/>
</g>
<g>
	<path fill="#FFFFFF" d="M235.454,267.64c-0.269-4.997-3.836-8.564-8.833-8.833c-4.986-0.269-8.585,4.241-8.833,8.833
		c-0.269,4.986,4.24,8.586,8.833,8.833C231.607,276.742,235.207,272.232,235.454,267.64c0.104-1.934-2.896-1.924-3,0
		c-0.405,7.519-11.262,7.519-11.667,0c-0.405-7.523,11.264-7.483,11.667,0C232.557,269.563,235.558,269.574,235.454,267.64z"/>
</g>
<g>
	<path fill="#FFFFFF" d="M254.474,267.64c-0.269-4.997-3.836-8.564-8.833-8.833c-4.986-0.269-8.585,4.241-8.833,8.833
		c-0.269,4.986,4.24,8.586,8.833,8.833C250.627,276.742,254.227,272.232,254.474,267.64c0.104-1.934-2.896-1.924-3,0
		c-0.405,7.519-11.262,7.519-11.667,0c-0.405-7.523,11.264-7.483,11.667,0C251.578,269.563,254.578,269.574,254.474,267.64z"/>
</g>
<g>
	<path fill="#FFFFFF" d="M273.495,267.64c-0.269-4.997-3.836-8.564-8.833-8.833c-4.986-0.269-8.585,4.241-8.833,8.833
		c-0.269,4.986,4.24,8.586,8.833,8.833C269.648,276.742,273.248,272.232,273.495,267.64c0.104-1.934-2.896-1.924-3,0
		c-0.405,7.519-11.262,7.519-11.667,0c-0.405-7.523,11.264-7.483,11.667,0C270.598,269.563,273.599,269.574,273.495,267.64z"/>
</g>
<g>
	<path fill="#FFFFFF" d="M275.587,174.852c-0.14,0.337-0.279,0.674-0.418,1.011c0.814-0.814,1.629-1.629,2.444-2.444
		c-1.152,0.477-3.008,0.293-4.477,0.293c-3.616,0-7.232,0-10.848,0c-3.368,0-6.735,0-10.103,0c-1.658,0-3.89,0.258-5.222-0.293
		c0.814,0.815,1.629,1.63,2.444,2.444c-1.425-3.441-0.293-9.964-0.293-13.872c0-4.17-1.232-11.185,0.293-14.868
		c-0.815,0.814-1.63,1.629-2.444,2.444c1.152-0.477,3.008-0.293,4.477-0.293c3.616,0,7.232,0,10.848,0c3.367,0,6.735,0,10.102,0
		c1.658,0,3.89-0.258,5.222,0.293c-0.815-0.815-1.63-1.63-2.444-2.444c1.425,3.439,0.293,9.964,0.293,13.872
		c0,4.93,0,9.859,0,14.789c0,4.514,7,4.514,7,0c0-5.917,0-11.833,0-17.749c0-5.236,1.848-13.214-3.999-15.635
		c-1.427-0.591-3.865-0.125-5.327-0.125c-3.947,0-7.895,0-11.841,0c-3.519,0-7.037,0-10.555,0c-2.224,0-4.463-0.282-6.474,0.896
		c-4.055,2.375-2.152,13.198-2.152,16.83c0,3.709,0,7.419,0,11.129c0,2.199-0.311,4.533,0.543,6.595
		c1.993,4.813,11.693,2.988,15.693,2.988c6.338,0,12.675,0,19.013,0c2.726,0,4.039-1.745,4.972-3.999
		C284.064,172.543,277.289,170.744,275.587,174.852z"/>
</g>
<g>
	<path fill="#FFFFFF" d="M277.448,136.653c0.594-1.016,2.298-0.667,0.193-0.667c-1.169,0-2.338,0-3.507,0c-3.935,0-7.871,0-11.806,0
		s-7.871,0-11.806,0c-1.169,0-2.338,0-3.507,0c-2.832,0,0.671,2.679,0.671,1.073c0,2.219-3.39,1.958-0.671,1.958
		c1.418,0,2.837,0,4.256,0c4.018,0,8.037,0,12.055,0c3.838,0,7.677,0,11.516,0c1.063,0,2.127,0,3.191,0
		c2.246,0-1.062-3.538-1.062-0.597c0,4.514,7,4.514,7,0c0-4.279-2.066-6.403-6.329-6.403c-4.44,0-8.881,0-13.321,0
		c-5.056,0-10.112,0-15.167,0c-3.213,0-7.255-0.316-8.342,3.636c-2.75,10,13.327,7.334,18.538,7.334c5.165,0,10.329,0,15.493,0
		c3.294,0,6.72,0.499,8.651-2.8C285.777,136.282,279.726,132.761,277.448,136.653z"/>
</g>
<g>
	<path fill="#FFFFFF" d="M214.17,214.045c23.618,0,47.237,0,70.855,0c1.935,0,1.935-3,0-3c-23.618,0-47.237,0-70.855,0
		C212.235,211.045,212.235,214.045,214.17,214.045L214.17,214.045z"/>
</g>
<g>
	<path fill="#FFFFFF" d="M213.968,236.045c23.618,0,47.237,0,70.855,0c1.935,0,1.935-3,0-3c-23.618,0-47.237,0-70.855,0
		C212.034,233.045,212.034,236.045,213.968,236.045L213.968,236.045z"/>
</g>
<g>
	<path fill="#FFFFFF" d="M214.17,257.712c23.618,0,47.237,0,70.855,0c1.935,0,1.935-3,0-3c-23.618,0-47.237,0-70.855,0
		C212.235,254.712,212.235,257.712,214.17,257.712L214.17,257.712z"/>
</g>
</svg>
