<?xml version="1.0" encoding="iso-8859-1"?>
<!-- Generator: Adobe Illustrator 16.0.0, SVG Export Plug-In . SVG Version: 6.00 Build 0)  -->
<!DOCTYPE svg PUBLIC "-//W3C//DTD SVG 1.1//EN" "http://www.w3.org/Graphics/SVG/1.1/DTD/svg11.dtd">
<svg version="1.1" xmlns="http://www.w3.org/2000/svg" xmlns:xlink="http://www.w3.org/1999/xlink" x="0px" y="0px" width="361px"
	 height="361px" viewBox="0 0 361 361" style="enable-background:new 0 0 361 361;" xml:space="preserve">
<g id="scene_x5F_wine_x5F_cellar">
	<g style="display:none;">
		<g style="display:inline;">
			<g>
				<g>
					<g>
						<path style="fill:#FFFFFF;" d="M217.061,270.752c0.023,5.432,0.872,10.143-5.98,10.338c-2.366,0.067-4.744,0-7.111,0
							c-3.733,0-7.466,0-11.199,0c-2.729,0-6.261,0.43-8.772-0.717c-3.216-1.467-1.736-11.332-1.736-14.872
							c0-7.166,0-14.332,0-21.498c0-12.556-1.289-25.983,0.827-38.432c2.085-12.259,7.154-23.919,10.416-35.883
							c1.631-5.984,2.763-12.074,3.4-18.242c0.377-3.654,0.975-5.697,5.02-4.724c0.625,0.15,1.281,9.103,1.48,10.319
							c2.558,15.616,9.126,30.166,12.389,45.6c1.524,7.213,1.268,14.479,1.268,21.793
							C217.061,239.874,217.061,255.313,217.061,270.752c0,1.935,3,1.935,3,0c0-11.881,0-23.761,0-35.642
							c0-13.645,0.55-26.721-3.006-40.051c-3.323-12.46-7.996-24.461-10.461-37.159c-0.742-3.825-1.191-7.692-1.494-11.574
							c-0.069-0.893-0.604-1.626-1.367-2.073c-2.119-1.242-6.499-1.383-8.479,0.233c-1.179,0.962-1.043,2.083-1.103,3.56
							c-0.154,3.791-0.698,7.556-1.357,11.287c-1.212,6.866-3.245,13.574-5.35,20.209c-3.468,10.931-7.65,21.872-8.165,33.446
							c-0.853,19.149-0.019,38.501-0.019,57.671c0,4.171-0.964,11.193,4.307,12.787c4.497,1.359,10.004,0.644,14.629,0.644
							c5.065,0,10.267,0.344,15.316-0.147c7.15-0.696,6.572-7.691,6.548-13.19C220.052,268.817,217.052,268.817,217.061,270.752z"/>
					</g>
				</g>
			</g>
			<g>
				<g>
					<path style="fill:#FFFFFF;" d="M202.883,140.849c-0.02,0.499-0.191,2.588-0.794,2.588c-0.748,0-1.497,0-2.245,0
						c-0.82,0-1.64,0-2.459,0c-0.813,0-0.921-1.9-0.947-2.588c-0.02-0.5,0.218-2.589,0.795-2.589c0.748,0,1.497,0,2.245,0
						c0.82,0,1.64,0,2.459,0C202.749,138.26,202.856,140.162,202.883,140.849c0.075,1.928,3.075,1.936,3,0
						c-0.079-2.027-0.568-3.978-2.281-5.211c-0.927-0.667-2.706-0.378-3.758-0.378c-1.162,0-2.664-0.238-3.766,0.227
						c-2.049,0.864-2.563,3.372-2.641,5.362c-0.077,1.978,0.657,4.041,2.282,5.21c0.927,0.667,2.706,0.378,3.758,0.378
						c1.162,0,2.664,0.238,3.766-0.227c2.049-0.864,2.563-3.371,2.64-5.361C205.958,138.913,202.958,138.92,202.883,140.849z"/>
				</g>
			</g>
			<g>
				<g>
					<path style="fill:#FFFFFF;" d="M197.227,136.637c1.623,0,3.245,0,4.868,0c1.935,0,1.935-3,0-3c-1.623,0-3.245,0-4.868,0
						C195.292,133.637,195.292,136.637,197.227,136.637L197.227,136.637z"/>
				</g>
			</g>
		</g>
		<g style="display:inline;">
			<g>
				<path style="fill:#FFFFFF;" d="M218.143,262.478c-6.115,1.272-12.462,2.787-18.721,2.946c-5.988,0.152-12.408-1.7-18.244-2.946
					c0.367,0.482,0.734,0.964,1.102,1.446c0-15,0-30,0-45c-0.633,0.482-1.266,0.964-1.899,1.446
					c6.383,1.327,13.003,2.888,19.542,3.054c6.255,0.159,12.937-1.754,19.018-3.054c-0.633-0.482-1.266-0.964-1.898-1.446
					c0,15,0,30,0,45c0,1.935,3,1.935,3,0c0-15,0-30,0-45c0-1.018-0.953-1.648-1.898-1.446c-5.945,1.271-12.129,2.787-18.221,2.946
					c-6.153,0.161-12.739-1.698-18.744-2.946c-0.945-0.196-1.898,0.424-1.898,1.446c0,15,0,30,0,45c0,0.638,0.454,1.309,1.101,1.446
					c6.213,1.326,12.669,2.888,19.042,3.054c6.42,0.168,13.268-1.753,19.518-3.054C220.833,264.977,220.03,262.085,218.143,262.478z
					"/>
			</g>
		</g>
	</g>
	<g style="display:none;">
		<g style="display:inline;">
			<g>
				<g>
					<g>
						<path style="fill:#FFFFFF;" d="M244.842,231.746c0.023,5.432,0.872,10.143-5.98,10.338c-2.366,0.067-4.744,0-7.111,0
							c-3.733,0-7.466,0-11.199,0c-2.729,0-6.261,0.43-8.772-0.717c-3.215-1.467-1.735-11.333-1.735-14.872
							c0-7.166,0-14.331,0-21.497c0-12.557-1.289-25.983,0.827-38.432c2.085-12.26,7.154-23.919,10.415-35.884
							c1.631-5.984,2.764-12.074,3.4-18.242c0.377-3.653,0.975-5.697,5.02-4.724c0.625,0.15,1.281,9.103,1.48,10.319
							c2.558,15.616,9.126,30.166,12.389,45.6c1.524,7.213,1.268,14.479,1.268,21.793
							C244.842,200.868,244.842,216.308,244.842,231.746c0,1.935,3,1.935,3,0c0-11.88,0-23.761,0-35.641
							c0-13.645,0.55-26.721-3.006-40.051c-3.323-12.46-7.996-24.461-10.461-37.159c-0.742-3.825-1.191-7.692-1.494-11.574
							c-0.069-0.893-0.604-1.626-1.367-2.073c-2.119-1.242-6.498-1.383-8.479,0.233c-1.179,0.962-1.043,2.083-1.103,3.56
							c-0.154,3.791-0.698,7.556-1.357,11.287c-1.212,6.866-3.245,13.574-5.35,20.209c-3.468,10.931-7.649,21.872-8.164,33.446
							c-0.852,19.149-0.019,38.5-0.019,57.67c0,4.171-0.965,11.193,4.306,12.787c4.497,1.359,10.004,0.644,14.629,0.644
							c5.065,0,10.267,0.344,15.316-0.147c7.15-0.696,6.572-7.691,6.548-13.19C247.833,229.812,244.833,229.812,244.842,231.746z"/>
					</g>
				</g>
			</g>
			<g>
				<g>
					<path style="fill:#FFFFFF;" d="M230.665,101.843c-0.02,0.499-0.191,2.588-0.794,2.588c-0.748,0-1.497,0-2.246,0
						c-0.819,0-1.639,0-2.459,0c-0.813,0-0.92-1.901-0.946-2.588c-0.02-0.5,0.218-2.589,0.794-2.589c0.748,0,1.497,0,2.246,0
						c0.819,0,1.639,0,2.459,0C230.531,99.254,230.639,101.156,230.665,101.843c0.075,1.928,3.075,1.936,3,0
						c-0.079-2.027-0.568-3.978-2.281-5.211c-0.927-0.667-2.707-0.378-3.759-0.378c-1.161,0-2.664-0.238-3.766,0.227
						c-2.049,0.864-2.563,3.372-2.64,5.362c-0.077,1.978,0.657,4.041,2.281,5.21c0.927,0.667,2.707,0.378,3.759,0.378
						c1.161,0,2.664,0.238,3.766-0.227c2.049-0.864,2.563-3.371,2.64-5.361C233.74,99.908,230.74,99.915,230.665,101.843z"/>
				</g>
			</g>
			<g>
				<g>
					<path style="fill:#FFFFFF;" d="M225.008,97.632c1.623,0,3.246,0,4.869,0c1.935,0,1.935-3,0-3c-1.623,0-3.246,0-4.869,0
						C223.073,94.632,223.073,97.632,225.008,97.632L225.008,97.632z"/>
				</g>
			</g>
		</g>
		<g style="display:inline;">
			<g>
				<path style="fill:#FFFFFF;" d="M245.926,221.782c-6.116,1.272-12.463,2.787-18.723,2.946
					c-5.988,0.152-12.407-1.701-18.243-2.946c0.367,0.482,0.734,0.964,1.102,1.446c0-15,0-30,0-45
					c-0.633,0.482-1.266,0.964-1.898,1.446c6.382,1.328,13.003,2.888,19.54,3.054c6.256,0.159,12.938-1.754,19.02-3.054
					c-0.633-0.482-1.266-0.964-1.898-1.446c0,15,0,30,0,45c0,1.935,3,1.935,3,0c0-15,0-30,0-45c0-1.018-0.953-1.648-1.898-1.446
					c-5.946,1.271-12.13,2.788-18.223,2.947c-6.153,0.161-12.738-1.698-18.743-2.947c-0.945-0.197-1.898,0.424-1.898,1.446
					c0,15,0,30,0,45c0,0.638,0.454,1.309,1.102,1.446c6.213,1.326,12.668,2.888,19.04,3.054c6.42,0.168,13.269-1.753,19.52-3.054
					C248.616,224.281,247.813,221.39,245.926,221.782z"/>
			</g>
		</g>
	</g>
	<g style="display:none;">
		<g style="display:inline;">
			<g>
				<g>
					<g>
						<path style="fill:#FFFFFF;" d="M180.832,265.424c-6.104,0-12.207,0-18.31,0c-2.487,0-5.097,0.179-7.552-0.278
							c-4.161-0.775-2.957-7.255-2.957-10.266c0-12.764,0-25.526,0-38.29c0-5.635,0-11.269,0-16.903
							c0-9.073,2.521-17.699,5.251-26.276c3.945-12.391,8.049-24.623,9.392-37.63c0.377-3.653,0.975-5.697,5.02-4.724
							c0.683,0.165,1.08,7.792,1.269,9.045c1.101,7.279,3.101,14.403,5.242,21.433c2.389,7.843,5.095,15.585,6.959,23.579
							c0.439,1.884,3.332,1.085,2.893-0.797c-3.005-12.885-7.949-25.215-10.886-38.125c-0.889-3.909-1.517-7.872-1.978-11.852
							c-0.142-1.221,0.282-4.198-0.943-5.167c-2.143-1.693-5.787-1.917-8.279-0.859c-1.019,0.432-1.534,0.926-1.926,1.949
							c-1.018,2.66-0.526,7.274-0.93,10.127c-0.985,6.966-2.901,13.783-4.959,20.496c-3.422,11.164-7.79,22.157-8.955,33.861
							c-1.195,12.003-0.17,24.526-0.17,36.565c0,6.737,0,13.476,0,20.214c0,4.475-0.91,9.746,1.167,13.801
							c2.149,4.198,9.283,3.097,13.165,3.097c5.83,0,11.659,0,17.488,0C182.767,268.424,182.767,265.424,180.832,265.424
							L180.832,265.424z"/>
					</g>
				</g>
			</g>
			<g>
				<g>
					<path style="fill:#FFFFFF;" d="M172.635,125.183c-0.02,0.499-0.192,2.588-0.794,2.588c-0.749,0-1.498,0-2.246,0
						c-0.819,0-1.639,0-2.458,0c-0.813,0-0.92-1.901-0.947-2.588c-0.02-0.5,0.217-2.589,0.794-2.589c0.749,0,1.498,0,2.246,0
						c0.819,0,1.639,0,2.458,0C172.501,122.594,172.608,124.496,172.635,125.183c0.075,1.928,3.075,1.936,3,0
						c-0.079-2.027-0.569-3.978-2.281-5.211c-0.927-0.667-2.707-0.378-3.759-0.378c-1.162,0-2.664-0.238-3.766,0.227
						c-2.049,0.864-2.563,3.372-2.64,5.362c-0.077,1.978,0.657,4.041,2.281,5.21c0.927,0.667,2.707,0.378,3.759,0.378
						c1.162,0,2.664,0.238,3.766-0.227c2.048-0.864,2.563-3.371,2.64-5.361C175.71,123.248,172.709,123.255,172.635,125.183z"/>
				</g>
			</g>
			<g>
				<g>
					<path style="fill:#FFFFFF;" d="M166.978,120.972c1.623,0,3.246,0,4.868,0c1.935,0,1.935-3,0-3c-1.623,0-3.246,0-4.868,0
						C165.043,117.972,165.043,120.972,166.978,120.972L166.978,120.972z"/>
				</g>
			</g>
		</g>
		<g style="display:inline;">
			<g>
				<path style="fill:#FFFFFF;" d="M170.654,245.646c-3.331-0.512-6.681-0.857-10.046-1.025c-3.054-0.153-5.454-0.568-8.153-2.046
					c-1.997-1.093-0.462,0.767-0.462,0.068c0-4.441,0-8.884,0-13.325c0-10.409,0-20.817,0-31.226
					c-0.752,0.432-1.505,0.863-2.257,1.295c6.057,3.995,13.267,3.033,20.121,4.151c-0.367-0.482-0.734-0.964-1.101-1.446
					c0,15,0,30,0,45c0,1.935,3,1.935,3,0c0-15,0-30,0-45c0-0.612-0.452-1.341-1.101-1.446c-6.468-1.055-13.744-0.115-19.404-3.849
					c-0.966-0.638-2.257,0.205-2.257,1.295c0,11.306,0,22.611,0,33.917c0,3.431-0.868,8.13,0.054,11.481
					c0.572,2.081,5.039,3.17,6.719,3.669c4.365,1.299,9.556,0.683,14.09,1.379C171.748,248.829,172.561,245.938,170.654,245.646z"/>
			</g>
		</g>
	</g>
	<g>
		<g>
			<path style="fill:#FFFFFF;" d="M255.407,160.383c2.407,8.41,2.01,16.679,1.79,25.321c0.5-0.5,1-1,1.5-1.5
				c-19.662,0-39.325,0-58.987,0c0.5,0.5,1,1,1.5,1.5c0.219-8.917,0.702-17.471-1.896-26.119c-0.482,0.633-0.964,1.266-1.446,1.899
				c19.662,0,39.324,0,58.986,0c1.935,0,1.935-3,0-3c-19.662,0-39.324,0-58.986,0c-0.958,0-1.729,0.96-1.446,1.899
				c2.513,8.363,2,16.704,1.789,25.321c-0.021,0.817,0.697,1.5,1.5,1.5c19.662,0,39.325,0,58.987,0c0.833,0,1.479-0.683,1.5-1.5
				c0.227-8.931,0.588-17.437-1.897-26.119C257.769,157.729,254.873,158.519,255.407,160.383z"/>
		</g>
	</g>
	<g>
		<g>
			<g>
				<g>
					<path style="fill:#FFFFFF;" d="M271.392,81.26c8.368,0.481,9.628,15.443,10.189,21.579c0.553,6.032-0.048,12.077-1.352,17.983
						c-1.216,5.514-3.489,12.471-10.071,12.471c-4.628,0-9.255,0-13.883,0c-15.6,0-31.199,0-46.799,0
						c-11.337,0-22.858,0.705-34.012-1.661c-12.081-2.563-23.65-7.342-35.314-11.295c-12.603-4.272-25.462-7.65-38.769-8.654
						c-1.494-0.113-3.011,0.401-3.495-1.236c-0.297-1.003-0.293-2.095-0.318-3.129c-0.084-3.44,0.468-4.256,3.903-4.588
						c6.88-0.664,13.681-2.021,20.384-3.677c12.556-3.102,24.649-7.781,36.928-11.784c9.932-3.238,20.219-6.007,30.738-6.007
						c3.505,0,7.01,0,10.515,0c15.29,0,30.58,0,45.87,0C254.401,81.26,262.896,81.26,271.392,81.26c1.935,0,1.935-3,0-3
						c-24.661,0-49.323,0-73.984,0c-3.119,0-6.238-0.02-9.356,0.015c-11.24,0.125-22.275,3.518-32.849,7.014
						c-12.399,4.101-24.622,8.633-37.352,11.646c-3.277,0.776-6.589,1.393-9.911,1.943c-3.202,0.53-7.307,0.213-10.383,1.218
						c-2.551,0.833-2.79,3.992-2.964,6.279c-0.178,2.33-0.046,5.934,1.906,7.585c1.225,1.036,3.445,0.638,4.883,0.722
						c4.347,0.254,8.661,0.901,12.94,1.684c13.113,2.396,25.696,7.063,38.236,11.458c10.719,3.757,21.596,7.402,32.984,8.333
						c3.527,0.288,7.132,0.137,10.667,0.137c25.04,0,50.08,0,75.12,0c11.854,0,13.313-20.068,13.491-28.44
						c0.191-8.943-1.479-28.904-13.428-29.592C269.458,78.149,269.469,81.149,271.392,81.26z"/>
				</g>
			</g>
		</g>
		<g>
			<g>
				<path style="fill:#FFFFFF;" d="M90.583,101.9c1.304,0.06,4.001,0.281,4.001,2.063c0,1.016,0,2.031,0,3.047
					c0,1.095,0,2.189,0,3.284c0,2.002-2.373,2.283-4.001,2.358c-1.3,0.06-4.002-0.364-4.002-2.063c0-1.016,0-2.031,0-3.047
					c0-1.095,0-2.189,0-3.284C86.58,102.256,88.954,101.976,90.583,101.9c1.926-0.089,1.935-3.089,0-3
					c-2.543,0.117-5.612,0.793-6.726,3.382c-0.588,1.368-0.277,3.288-0.277,4.728c0,1.632-0.103,3.283,0.125,4.901
					c0.404,2.869,4.666,3.638,6.877,3.74c2.489,0.115,5.674-0.94,6.724-3.382c0.588-1.369,0.277-3.288,0.277-4.728
					c0-1.632,0.103-3.283-0.125-4.902c-0.404-2.868-4.664-3.638-6.875-3.74C88.647,98.811,88.656,101.812,90.583,101.9z"/>
			</g>
		</g>
		<g>
			<g>
				<path style="fill:#FFFFFF;" d="M84.397,110.82c0-2.362,0-4.725,0-7.087c0-1.935-3-1.935-3,0c0,2.362,0,4.725,0,7.087
					C81.397,112.754,84.397,112.754,84.397,110.82L84.397,110.82z"/>
			</g>
		</g>
	</g>
	<g>
		<g>
			<path style="fill:#FFFFFF;" d="M93.312,144.167c49.517,0,99.034,0,148.55,0c15.49,0,30.98,0,46.471,0c4.514,0,4.514-7,0-7
				c-49.517,0-99.033,0-148.55,0c-15.49,0-30.98,0-46.471,0C88.798,137.167,88.798,144.167,93.312,144.167L93.312,144.167z"/>
		</g>
	</g>
	<g>
		<g>
			<path style="fill:#FFFFFF;" d="M93.312,218.5c49.517,0,99.034,0,148.55,0c15.49,0,30.98,0,46.471,0c4.514,0,4.514-7,0-7
				c-49.517,0-99.033,0-148.55,0c-15.49,0-30.98,0-46.471,0C88.798,211.5,88.798,218.5,93.312,218.5L93.312,218.5z"/>
		</g>
	</g>
	<g>
		<g>
			<path style="fill:#FFFFFF;" d="M93.113,292.167c49.517,0,99.034,0,148.551,0c15.49,0,30.98,0,46.471,0c4.514,0,4.514-7,0-7
				c-49.517,0-99.034,0-148.551,0c-15.49,0-30.98,0-46.471,0C88.599,285.167,88.599,292.167,93.113,292.167L93.113,292.167z"/>
		</g>
	</g>
	<g>
		<g>
			<path style="fill:#FFFFFF;" d="M284.833,75.167c0,48.454,0,96.908,0,145.362c0,22.713,0,45.425,0,68.138c0,4.514,7,4.514,7,0
				c0-48.454,0-96.908,0-145.362c0-22.712,0-45.425,0-68.138C291.833,70.653,284.833,70.653,284.833,75.167L284.833,75.167z"/>
		</g>
	</g>
	<g>
		<g>
			<g>
				<g>
					<path style="fill:#FFFFFF;" d="M220.286,94.864c0.735,2.403,1.264,4.852,1.587,7.322c0.224,1.934,3.219,1.722,2.975-0.389
						c-0.345-2.634-0.908-5.247-1.692-7.81C222.497,91.943,219.683,92.992,220.286,94.864L220.286,94.864z"/>
				</g>
			</g>
			<g>
				<g>
					<path style="fill:#FFFFFF;" d="M222.116,106.995c0.056,2.396-0.082,4.797-0.411,7.177c-0.295,1.921,2.65,2.508,2.973,0.411
						c0.351-2.539,0.497-5.1,0.438-7.657C225.036,104.812,222.043,105.059,222.116,106.995L222.116,106.995z"/>
				</g>
			</g>
			<g>
				<g>
					<path style="fill:#FFFFFF;" d="M220.933,118.318c-0.132,0.561-0.275,1.119-0.429,1.675c-0.551,1.878,2.291,2.851,2.891,0.8
						c0.165-0.594,0.317-1.189,0.458-1.788C224.31,116.927,221.351,116.414,220.933,118.318L220.933,118.318z"/>
				</g>
			</g>
			<g>
				<g>
					<path style="fill:#FFFFFF;" d="M228.293,98.072c0.357,1.836,0.615,3.687,0.773,5.544c0.157,2.245,3.159,2.168,2.989-0.254
						c-0.167-1.964-0.44-3.921-0.818-5.864C230.735,95.111,227.826,95.86,228.293,98.072L228.293,98.072z"/>
				</g>
			</g>
			<g>
				<g>
					<path style="fill:#FFFFFF;" d="M229.21,110.146c-0.18,4.417-0.923,8.815-2.229,13.087c-0.698,2.167,2.116,3.215,2.869,0.877
						c1.381-4.519,2.167-9.171,2.358-13.842C232.271,107.841,229.269,107.897,229.21,110.146L229.21,110.146z"/>
				</g>
			</g>
			<g>
				<g>
					<path style="fill:#FFFFFF;" d="M236.824,92.739c0.738,2.879,1.265,5.798,1.579,8.734c0.244,2.656,3.244,2.514,2.983-0.319
						c-0.33-3.08-0.882-6.141-1.656-9.16C238.977,89.228,236.117,90.147,236.824,92.739L236.824,92.739z"/>
				</g>
			</g>
			<g>
				<g>
					<path style="fill:#FFFFFF;" d="M238.737,106.614c0.03,1.306,0.019,2.613-0.035,3.919c-0.148,2.661,2.84,2.961,2.997,0.122
						c0.057-1.369,0.068-2.74,0.037-4.11C241.629,103.705,238.637,103.952,238.737,106.614L238.737,106.614z"/>
				</g>
			</g>
			<g>
				<g>
					<path style="fill:#FFFFFF;" d="M237.992,117.67c-0.446,2.81-1.088,5.597-1.927,8.34c-0.827,2.566,1.987,3.615,2.869,0.877
						c0.879-2.876,1.553-5.799,2.021-8.747C241.36,115.32,238.372,115.027,237.992,117.67L237.992,117.67z"/>
				</g>
			</g>
			<g>
				<g>
					<path style="fill:#FFFFFF;" d="M249.385,112.155c-0.328,5.737-1.341,11.445-3.039,16.999c-0.973,3.019,1.841,4.067,2.869,0.877
						c1.769-5.784,2.823-11.729,3.165-17.704C252.521,109.017,249.518,109.023,249.385,112.155L249.385,112.155z"/>
				</g>
			</g>
		</g>
	</g>
	<g>
		<g>
			<path style="fill:#FFFFFF;" d="M254.146,81.231c3.354,0.368,4.625,7.16,5.246,9.612c1.354,5.346,1.651,10.941,1.708,16.433
				c0.057,5.518-0.513,11.049-1.708,16.434c-0.543,2.447-1.944,9.25-5.246,9.612c-1.901,0.209-1.922,3.211,0,3
				c3.563-0.391,5.463-3.749,6.612-6.841c2.628-7.064,3.265-14.723,3.342-22.205c0.077-7.417-0.743-15.218-3.342-22.204
				c-1.149-3.092-3.05-6.449-6.612-6.84C252.224,78.021,252.244,81.022,254.146,81.231L254.146,81.231z"/>
		</g>
	</g>
	<g>
		<g>
			<path style="fill:#FFFFFF;" d="M200.457,81.231c3.354,0.368,4.626,7.159,5.247,9.612c1.354,5.346,1.651,10.941,1.708,16.433
				c0.057,5.518-0.513,11.049-1.708,16.434c-0.543,2.448-1.944,9.25-5.247,9.612c-1.901,0.208-1.922,3.211,0,3
				c3.563-0.391,5.463-3.749,6.613-6.841c2.628-7.064,3.265-14.723,3.342-22.205c0.077-7.417-0.743-15.218-3.342-22.204
				c-1.15-3.092-3.051-6.449-6.613-6.84C198.535,78.021,198.556,81.023,200.457,81.231L200.457,81.231z"/>
		</g>
	</g>
	<g>
		<g>
			<g>
				<g>
					<path style="fill:#FFFFFF;" d="M270.051,161.634c7.946,0.496,8.877,15.45,9.258,21.22c0.426,6.433-0.568,13.219-2.738,19.268
						c-2.072,5.777-5.419,6.563-10.651,6.563c-6.179,0-12.357,0-18.536,0c-15.012,0-30.023,0-45.035,0
						c-3.99,0-7.981,0.092-11.961-0.26c-12.07-1.068-23.768-5.997-35.1-9.955c-12.345-4.313-24.839-8.02-37.902-9.288
						c-3.64-0.354-5.173,0.001-5.283-3.986c-0.11-3.989,1.91-3.862,5.408-4.261c6.735-0.769,13.369-2.241,19.907-4
						c19.679-5.293,38.659-15.3,59.415-15.3c24.354,0,48.707,0,73.062,0C269.945,161.634,269.998,161.634,270.051,161.634
						c1.935,0,1.935-3,0-3c-24.067,0-48.134,0-72.201,0c-18.813,0-35.969,7.555-53.617,13.159
						c-6.166,1.958-12.418,3.604-18.762,4.872c-3.771,0.754-7.583,1.258-11.407,1.635c-1.34,0.132-3.016-0.002-3.791,1.38
						c-1.455,2.594-1.314,5.83-0.877,8.676c0.67,4.361,4.452,3.546,7.989,3.825c25.469,2.015,47.812,16.436,73.002,19.243
						c10.646,1.186,21.811,0.26,32.488,0.26c14.348,0,28.696,0,43.044,0c3.51,0,6.483,0.233,9.429-2.105
						c5.405-4.29,6.268-13.895,6.846-20.203c0.82-8.94-0.088-29.989-12.143-30.741C268.118,158.513,268.13,161.514,270.051,161.634z
						"/>
				</g>
			</g>
		</g>
		<g>
			<g>
				<path style="fill:#FFFFFF;" d="M105.613,180.405c1.097,0.051,3.503,0.219,3.503,1.739c0,0.924,0,1.848,0,2.771
					c0,0.996,0,1.991,0,2.987c0,1.731-2.102,1.943-3.503,2.008c-1.093,0.051-3.504-0.288-3.504-1.739c0-0.924,0-1.848,0-2.771
					c0-0.996,0-1.991,0-2.987C102.108,180.682,104.212,180.47,105.613,180.405c1.926-0.089,1.935-3.089,0-3
					c-2.356,0.109-5.203,0.744-6.234,3.143c-0.548,1.272-0.271,3.026-0.271,4.368c0,1.498-0.09,3.01,0.119,4.494
					c0.377,2.674,4.316,3.405,6.385,3.501c2.307,0.106,5.26-0.881,6.233-3.143c0.547-1.273,0.27-3.026,0.27-4.368
					c0-1.498,0.09-3.01-0.119-4.494c-0.376-2.673-4.314-3.405-6.384-3.501C103.678,177.316,103.687,180.316,105.613,180.405z"/>
			</g>
		</g>
		<g>
			<g>
				<path style="fill:#FFFFFF;" d="M100.123,188.381c0-2.148,0-4.297,0-6.445c0-1.935-3-1.935-3,0c0,2.148,0,4.297,0,6.445
					C97.123,190.315,100.123,190.315,100.123,188.381L100.123,188.381z"/>
			</g>
		</g>
	</g>
	<g>
		<g>
			<g>
				<g>
					<path style="fill:#FFFFFF;" d="M269.375,227.744c8.495,0.465,9.972,15.137,10.648,21.421c0.63,5.841,0.283,11.574-0.716,17.362
						c-0.952,5.516-3.085,15.994-10.305,15.994c-3.756,0-7.512,0-11.268,0c-24.821,0-49.643,0-74.464,0
						c-11.876,0-23.431-3.833-34.546-7.638c-12.504-4.28-24.866-8.91-37.746-11.971c-6.104-1.451-12.312-2.407-18.559-2.966
						c-3.455-0.31-5.194,0.439-5.567-3.376c-0.214-2.194-0.526-5.881,2.174-6.101c13.217-1.075,26.112-4.479,38.694-8.524
						c18.643-5.993,37.087-14.202,57-14.202c12.215,0,24.429,0,36.644,0C237.369,227.744,253.372,227.744,269.375,227.744
						c1.935,0,1.935-3,0-3c-24.821,0-49.643,0-74.464,0c-12.753,0-24.686,0.641-37.146,4.142
						c-11.925,3.35-23.482,7.907-35.308,11.58c-6.163,1.914-12.407,3.539-18.726,4.849c-3.725,0.771-7.486,1.344-11.26,1.805
						c-1.884,0.23-5.074-0.264-6.641,1.056c-2.644,2.226-3.617,13.163,0.661,14.319c2.36,0.638,5.181,0.386,7.624,0.604
						c3.768,0.337,7.502,0.962,11.216,1.667c6.949,1.318,13.767,3.287,20.504,5.421c19.033,6.027,38.031,15.335,58.376,15.335
						c26.2,0,52.401,0,78.602,0c3.621,0,7.657,0.541,10.96-1.211c6.972-3.697,8.331-15.146,9.159-22.008
						c0.814-6.748,0.322-13.412-0.912-20.088c-1.275-6.891-4.205-17.009-12.644-17.471
						C267.441,224.639,267.451,227.639,269.375,227.744z"/>
				</g>
			</g>
		</g>
		<g>
			<g>
				<path style="fill:#FFFFFF;" d="M79.545,249.414c1.417,0.065,4.275,0.315,4.275,2.241c0,1.066,0,2.133,0,3.199
					c0,1.148,0,2.298,0,3.447c0,2.151-2.523,2.469-4.275,2.55c-1.413,0.065-4.278-0.406-4.278-2.24c0-1.066,0-2.133,0-3.199
					c0-1.148,0-2.298,0-3.447C75.267,249.813,77.792,249.495,79.545,249.414c1.926-0.089,1.935-3.089,0-3
					c-2.646,0.122-5.839,0.82-6.998,3.514c-0.611,1.421-0.28,3.433-0.28,4.927c0,1.706-0.109,3.434,0.129,5.126
					c0.419,2.975,4.859,3.766,7.148,3.871c2.59,0.119,5.902-0.973,6.995-3.514c0.611-1.421,0.28-3.432,0.28-4.926
					c0-1.706,0.109-3.434-0.129-5.126c-0.419-2.975-4.857-3.767-7.146-3.872C77.61,246.324,77.619,249.325,79.545,249.414z"/>
			</g>
		</g>
		<g>
			<g>
				<path style="fill:#FFFFFF;" d="M72.976,258.854c0-2.48,0-4.96,0-7.44c0-1.935-3-1.935-3,0c0,2.48,0,4.96,0,7.44
					C69.976,260.788,72.976,260.788,72.976,258.854L72.976,258.854z"/>
			</g>
		</g>
	</g>
	<g>
		<g>
			<path style="fill:#FFFFFF;" d="M265.744,243.285c1.301,7.356,1.088,15.142,0.381,22.551c-0.327,3.428-1.53,16.454-6.488,16.998
				c-1.901,0.209-1.922,3.211,0,3c5.765-0.633,7.446-8.69,8.457-13.246c2.133-9.604,2.255-20.424,0.543-30.1
				C268.301,240.585,265.409,241.395,265.744,243.285L265.744,243.285z"/>
		</g>
	</g>
	<g>
		<g>
			<path style="fill:#FFFFFF;" d="M211.803,243.285c1.245,7.471,1.353,15.021,0.634,22.551c-0.327,3.427-1.53,16.454-6.487,16.998
				c-1.901,0.209-1.922,3.211,0,3c5.322-0.585,7.053-7.527,8.139-11.814c2.571-10.152,2.317-21.275,0.607-31.531
				C214.378,240.583,211.487,241.394,211.803,243.285L211.803,243.285z"/>
		</g>
	</g>
	<g>
		<g>
			<path style="fill:#FFFFFF;" d="M213.249,244.387c17.98,0,35.961,0,53.941,0c1.935,0,1.935-3,0-3c-17.98,0-35.961,0-53.941,0
				C211.314,241.387,211.314,244.387,213.249,244.387L213.249,244.387z"/>
		</g>
	</g>
	<g>
		<g>
			<g>
				<g>
					<path style="fill:#FFFFFF;" d="M217.825,161.338c1.117,2.143,1.935,4.51,2.382,7.029c0.299,2.072,3.3,1.525,2.914-0.842
						c-0.529-2.782-1.464-5.404-2.735-7.786C219.287,157.819,216.901,159.681,217.825,161.338L217.825,161.338z"/>
				</g>
			</g>
			<g>
				<g>
					<path style="fill:#FFFFFF;" d="M220.597,172.916c-0.003,0.635-0.028,1.276-0.079,1.922c-0.072,0.925,0.57,1.742,1.383,1.75
						c0.853,0.009,1.602-0.888,1.662-1.925c0.045-0.71,0.063-1.417,0.056-2.118c-0.011-1.025-0.832-1.694-1.623-1.543
						C221.161,171.159,220.602,172.002,220.597,172.916L220.597,172.916z"/>
				</g>
			</g>
			<g>
				<g>
					<path style="fill:#FFFFFF;" d="M226.556,163.954c1.09,3.813,1.496,7.936,1.083,12.161c-0.361,2.766,2.792,2.597,3.1-0.479
						c0.347-4.571-0.182-9.031-1.448-13.157C228.378,159.795,225.806,161.548,226.556,163.954L226.556,163.954z"/>
				</g>
			</g>
			<g>
				<g>
					<path style="fill:#FFFFFF;" d="M236.447,163.687c0.777,3.479,1.121,7.107,0.985,10.799c-0.24,3.495,2.96,2.733,3.086-1.072
						c0.042-3.93-0.421-7.789-1.345-11.484C238.192,158.455,235.659,160.487,236.447,163.687L236.447,163.687z"/>
				</g>
			</g>
		</g>
	</g>
	<g>
		<g>
			<g>
				<g>
					<path style="fill:#FFFFFF;" d="M236.445,254.807c0.347,2.753,0.462,5.479,0.362,8.153c-0.105,2.065,2.855,2.71,2.99,0.483
						c0.127-2.817,0.027-5.691-0.313-8.592C239.179,252.524,236.134,252.631,236.445,254.807L236.445,254.807z"/>
				</g>
			</g>
			<g>
				<g>
					<path style="fill:#FFFFFF;" d="M236.225,268.049c-0.356,2.502-0.903,4.939-1.623,7.29c-0.601,1.87,2.115,3.186,2.783,1.162
						c0.777-2.482,1.371-5.055,1.767-7.694C239.45,266.608,236.483,265.997,236.225,268.049L236.225,268.049z"/>
				</g>
			</g>
			<g>
				<g>
					<path style="fill:#FFFFFF;" d="M233.165,279.367c-0.219,0.535-0.447,1.065-0.685,1.591c-0.342,0.756-0.176,1.655,0.557,2.103
						c0.665,0.407,1.693,0.188,2.065-0.621c0.255-0.554,0.5-1.114,0.735-1.681c0.343-0.823,0.111-1.777-0.665-2.147
						C234.467,278.275,233.48,278.597,233.165,279.367L233.165,279.367z"/>
				</g>
			</g>
			<g>
				<g>
					<path style="fill:#FFFFFF;" d="M243.877,260.273c0.027,1.982-0.049,3.945-0.224,5.882c-0.238,2.312,2.668,3.281,2.954,0.81
						c0.203-2.028,0.303-4.085,0.294-6.163C246.859,258.233,243.805,257.855,243.877,260.273L243.877,260.273z"/>
				</g>
			</g>
			<g>
				<g>
					<path style="fill:#FFFFFF;" d="M242.641,272.825c-0.948,4.422-2.42,8.643-4.351,12.575c-0.997,1.968,1.401,3.853,2.499,1.744
						c2.069-4.127,3.654-8.554,4.691-13.188C245.991,271.533,243.092,270.545,242.641,272.825L242.641,272.825z"/>
				</g>
			</g>
			<g>
				<g>
					<path style="fill:#FFFFFF;" d="M253.392,257.688c0.153,3.089,0.092,6.15-0.175,9.162c-0.271,2.691,2.614,3.889,2.944,1.036
						c0.313-3.135,0.414-6.323,0.292-9.542C256.305,255.381,253.205,254.874,253.392,257.688L253.392,257.688z"/>
				</g>
			</g>
			<g>
				<g>
					<path style="fill:#FFFFFF;" d="M252.546,272.056c-0.223,1.306-0.482,2.6-0.782,3.88c-0.257,1.108-0.004,2.292,0.773,2.72
						c0.706,0.389,1.717-0.146,2.003-1.311c0.326-1.333,0.613-2.68,0.86-4.039c0.217-1.185-0.166-2.413-0.992-2.74
						C253.655,270.268,252.737,270.926,252.546,272.056L252.546,272.056z"/>
				</g>
			</g>
			<g>
				<g>
					<path style="fill:#FFFFFF;" d="M249.754,282.804c-0.698,1.973-1.489,3.901-2.371,5.781c-1.131,2.339,1.192,4.404,2.436,1.926
						c0.942-1.955,1.791-3.963,2.544-6.018C253.301,281.833,250.604,280.275,249.754,282.804L249.754,282.804z"/>
				</g>
			</g>
		</g>
	</g>
</g>
<g id="Ebene_1">
</g>
</svg>
