<?xml version="1.0" encoding="iso-8859-1"?>
<!-- Generator: Adobe Illustrator 16.0.0, SVG Export Plug-In . SVG Version: 6.00 Build 0)  -->
<!DOCTYPE svg PUBLIC "-//W3C//DTD SVG 1.1 Tiny//EN" "http://www.w3.org/Graphics/SVG/1.1/DTD/svg11-tiny.dtd">
<svg version="1.1" baseProfile="tiny" id="scene_x5F_visit_x5F_guests"
	 xmlns="http://www.w3.org/2000/svg" xmlns:xlink="http://www.w3.org/1999/xlink" x="0px" y="0px" width="361px" height="361px"
	 viewBox="0 0 361 361" xml:space="preserve">
<path fill="none" stroke="#FFFFFF" stroke-width="10" stroke-miterlimit="10" d="M284.14,261.294c0,3.453-2.799,6.25-6.251,6.25
	H79.259c-3.452,0-6.25-2.798-6.25-6.25V136.283c0-3.453,2.799-6.25,6.25-6.25h198.63c3.452,0,6.251,2.798,6.251,6.25V261.294z"/>
<path fill="none" stroke="#FFFFFF" stroke-width="10" stroke-miterlimit="10" d="M206.185,126.916c0,1.721-1.94,3.117-4.333,3.117
	h-46.704c-2.393,0-4.333-1.396-4.333-3.117v-15.587c0-1.721,1.94-3.117,4.333-3.117h46.704c2.394,0,4.333,1.396,4.333,3.117V126.916
	z"/>
<path fill="none" stroke="#FFFFFF" stroke-width="10" stroke-miterlimit="10" d="M170.485,205.516"/>
<path fill="none" stroke="#FFFFFF" stroke-width="10" stroke-miterlimit="10" d="M184.249,191.753"/>
<path fill="none" stroke="#FFFFFF" stroke-width="10" stroke-miterlimit="10" d="M170.485,191.753"/>
<g>
	<path fill="#FFFFFF" d="M94.813,133.491c0,43.111,0,86.223,0,129.333c0,9.687,15.003,9.772,15.003,0.108
		c0-43.111,0-86.223,0-129.333C109.816,123.913,94.813,123.827,94.813,133.491L94.813,133.491z"/>
</g>
<g>
	<path fill="#FFFFFF" d="M247.813,132.491c0,43.111,0,86.223,0,129.333c0,9.687,15.003,9.772,15.003,0.108
		c0-43.111,0-86.223,0-129.333C262.817,122.913,247.813,122.827,247.813,132.491L247.813,132.491z"/>
</g>
<g>
	<path fill="#FFFFFF" d="M163.852,171.67c1.397,5.828-6.33,6.635-10.308,7.951c-5.478,1.812-10.955,3.624-16.433,5.437
		c-1.923,0.636-3.665,1.374-5.566-0.113c-1.562-1.221-2.04-4.215-2.619-5.967c-1.544-4.668-3.089-9.336-4.633-14.005
		c-1.875-5.667,6.705-6.759,10.308-7.951c5.478-1.812,10.955-3.624,16.433-5.437c1.923-0.636,3.665-1.374,5.566,0.113
		c1.562,1.221,2.04,4.215,2.619,5.967C160.763,162.333,162.308,167.001,163.852,171.67c1.411,4.264,8.172,2.437,6.75-1.861
		c-3.305-9.989-6.019-30.072-20.952-25.131c-6.721,2.224-13.443,4.447-20.164,6.671c-6.616,2.189-12.946,4.814-12.388,13.216
		c0.403,6.072,3.897,12.703,5.791,18.426c2.19,6.62,7.383,11.696,14.844,9.227c6.453-2.135,12.907-4.27,19.36-6.405
		c5.935-1.963,13.145-3.558,13.912-11.108c0.176-1.733,0.001-3.211-0.402-4.896C169.55,165.42,162.8,167.282,163.852,171.67z"/>
</g>
</svg>
