<?xml version="1.0" encoding="iso-8859-1"?>
<!-- Generator: Adobe Illustrator 16.0.0, SVG Export Plug-In . SVG Version: 6.00 Build 0)  -->
<!DOCTYPE svg PUBLIC "-//W3C//DTD SVG 1.1 Tiny//EN" "http://www.w3.org/Graphics/SVG/1.1/DTD/svg11-tiny.dtd">
<svg version="1.1" baseProfile="tiny" id="scene_x5F_terrace"
	 xmlns="http://www.w3.org/2000/svg" xmlns:xlink="http://www.w3.org/1999/xlink" x="0px" y="0px" width="361px" height="361px"
	 viewBox="0 0 361 361" xml:space="preserve">
<g>
	<path fill="#FFFFFF" d="M124.894,148.948c46.192-18.91,92.385-37.821,138.577-56.731c7.613-3.117,15.227-6.233,22.839-9.35
		c5.884-2.409,3.312-12.086-2.658-9.643c-46.192,18.91-92.385,37.821-138.577,56.731c-7.613,3.117-15.226,6.233-22.839,9.35
		C116.352,141.714,118.924,151.392,124.894,148.948L124.894,148.948z"/>
</g>
<path fill="#FFFFFF" d="M274.648,288.545c0,3.313-2.686,6-6,6H140.981c-3.313,0-6-2.687-6-6v-11.667c0-3.314,2.687-6,6-6h127.667
	c3.314,0,6,2.686,6,6V288.545z"/>
<g>
	<path fill="#FFFFFF" d="M236.15,215.779c-1.882,9.513-3.765,19.027-5.646,28.541c-1.246,6.297,8.392,8.981,9.643,2.658
		c1.882-9.513,3.765-19.027,5.646-28.541C247.039,212.14,237.401,209.456,236.15,215.779L236.15,215.779z"/>
</g>
<g>
	<path fill="#FFFFFF" d="M229.648,246.878c-0.111,8.111-0.222,16.222-0.333,24.333c-0.088,6.452,9.912,6.443,10,0
		c0.111-8.111,0.222-16.222,0.333-24.333C239.737,240.427,229.737,240.435,229.648,246.878L229.648,246.878z"/>
</g>
<g>
	<path fill="#FFFFFF" d="M234.648,242.211c-9.667,0-19.333,0-29,0c-6.449,0-6.449,10,0,10c9.667,0,19.333,0,29,0
		C241.097,252.211,241.097,242.211,234.648,242.211L234.648,242.211z"/>
</g>
<g>
	<path fill="#FFFFFF" d="M202.73,249.406c-0.931,7.436-1.862,14.872-2.793,22.307c-0.8,6.388,9.21,6.311,10,0
		c0.931-7.436,1.862-14.872,2.793-22.307C213.53,243.019,203.521,243.096,202.73,249.406L202.73,249.406z"/>
</g>
<g>
	<path fill="#FFFFFF" d="M151.981,239.878c0,9.889,0,19.778,0,29.667c0,6.449,10,6.449,10,0c0-9.889,0-19.778,0-29.667
		C161.981,233.43,151.981,233.43,151.981,239.878L151.981,239.878z"/>
</g>
<g>
	<path fill="#FFFFFF" d="M138.315,239.545c18.333,0,36.667,0,55,0c6.449,0,6.449-10,0-10c-18.333,0-36.667,0-55,0
		C131.866,229.545,131.866,239.545,138.315,239.545L138.315,239.545z"/>
</g>
<g>
	<path fill="#FFFFFF" d="M162.982,284.211c-30.333,0-60.667,0-91,0c-6.449,0-6.449,10,0,10c30.333,0,60.667,0,91,0
		C169.431,294.211,169.431,284.211,162.982,284.211L162.982,284.211z"/>
</g>
<g>
	<path fill="#FFFFFF" d="M169.981,238.878c0,9.889,0,19.778,0,29.667c0,6.449,10,6.449,10,0c0-9.889,0-19.778,0-29.667
		C179.981,232.43,169.981,232.43,169.981,238.878L169.981,238.878z"/>
</g>
<line fill="none" stroke="#FFFFFF" stroke-width="10" x1="266.648" y1="89.675" x2="266.648" y2="274.212"/>
</svg>
