<?xml version="1.0" encoding="iso-8859-1"?>
<!-- Generator: Adobe Illustrator 16.0.0, SVG Export Plug-In . SVG Version: 6.00 Build 0)  -->
<!DOCTYPE svg PUBLIC "-//W3C//DTD SVG 1.1//EN" "http://www.w3.org/Graphics/SVG/1.1/DTD/svg11.dtd">
<svg version="1.1" xmlns="http://www.w3.org/2000/svg" xmlns:xlink="http://www.w3.org/1999/xlink" x="0px" y="0px" width="361px"
	 height="361px" viewBox="0 0 361 361" style="enable-background:new 0 0 361 361;" xml:space="preserve">
<g id="scene_x5F_fountain_x5F_indoor">
	<g>
		<g>
			<path style="fill:#FFFFFF;" d="M179.292,162.989c0,6.322,0,12.645,0,18.967c0,1.935,3,1.935,3,0c0-6.322,0-12.645,0-18.967
				C182.293,161.054,179.292,161.054,179.292,162.989L179.292,162.989z"/>
		</g>
	</g>
	<g>
		<g>
			<g>
				<path style="fill:#FFFFFF;" d="M197.534,163.066c0.768-2.196,1.535-4.392,2.303-6.587c0.641-1.832-2.259-2.611-2.893-0.798
					c-0.768,2.196-1.535,4.392-2.303,6.587C194.001,164.1,196.9,164.879,197.534,163.066L197.534,163.066z"/>
			</g>
		</g>
		<g>
			<g>
				<path style="fill:#FFFFFF;" d="M192.325,182.139c0.78-3.94,1.56-7.881,2.34-11.821c0.374-1.89-2.518-2.694-2.893-0.798
					c-0.78,3.941-1.56,7.881-2.34,11.822C189.059,183.23,191.95,184.036,192.325,182.139L192.325,182.139z"/>
			</g>
		</g>
		<g>
			<g>
				<path style="fill:#FFFFFF;" d="M208.766,151.183c0.483,0.13,0.967,0.26,1.451,0.39c0.789,0.212,1.627-0.256,1.845-1.047
					c0.216-0.785-0.259-1.633-1.048-1.845c-0.483-0.13-0.967-0.26-1.451-0.39c-0.789-0.212-1.627,0.256-1.845,1.047
					C207.502,150.122,207.977,150.971,208.766,151.183L208.766,151.183z"/>
			</g>
		</g>
		<g>
			<g>
				<path style="fill:#FFFFFF;" d="M213.561,155.455c0.243,0.333,0.486,0.665,0.73,0.998c0.481,0.658,1.292,0.983,2.052,0.538
					c0.651-0.381,1.022-1.391,0.538-2.053c-0.243-0.333-0.486-0.665-0.73-0.998c-0.481-0.658-1.292-0.983-2.052-0.538
					C213.447,153.784,213.076,154.793,213.561,155.455L213.561,155.455z"/>
			</g>
		</g>
		<g>
			<g>
				<path style="fill:#FFFFFF;" d="M202.985,152.335c0.438-0.305,0.876-0.609,1.313-0.914c0.67-0.466,0.977-1.305,0.538-2.053
					c-0.389-0.663-1.38-1.005-2.052-0.538c-0.438,0.305-0.876,0.609-1.313,0.914c-0.67,0.466-0.977,1.305-0.538,2.052
					C201.322,152.46,202.313,152.803,202.985,152.335L202.985,152.335z"/>
			</g>
		</g>
	</g>
	<g>
		<g>
			<g>
				<path style="fill:#FFFFFF;" d="M167.283,162.268c-0.768-2.196-1.535-4.392-2.303-6.587c-0.634-1.813-3.533-1.034-2.893,0.798
					c0.768,2.196,1.535,4.392,2.303,6.587C165.024,164.879,167.923,164.1,167.283,162.268L167.283,162.268z"/>
			</g>
		</g>
		<g>
			<g>
				<path style="fill:#FFFFFF;" d="M172.492,181.342c-0.78-3.941-1.56-7.881-2.34-11.822c-0.375-1.896-3.267-1.092-2.893,0.798
					c0.78,3.94,1.56,7.881,2.34,11.821C169.975,184.036,172.866,183.23,172.492,181.342L172.492,181.342z"/>
			</g>
		</g>
		<g>
			<g>
				<path style="fill:#FFFFFF;" d="M152.361,148.29c-0.483,0.13-0.967,0.26-1.451,0.39c-0.789,0.212-1.263,1.061-1.047,1.845
					c0.218,0.791,1.056,1.26,1.845,1.047c0.483-0.13,0.967-0.26,1.451-0.39c0.789-0.212,1.263-1.061,1.047-1.845
					C153.988,148.546,153.15,148.078,152.361,148.29L152.361,148.29z"/>
			</g>
		</g>
		<g>
			<g>
				<path style="fill:#FFFFFF;" d="M145.773,153.94c-0.243,0.333-0.486,0.666-0.73,0.998c-0.483,0.662-0.113,1.671,0.539,2.053
					c0.76,0.445,1.57,0.12,2.052-0.538c0.243-0.333,0.486-0.666,0.73-0.998c0.483-0.662,0.113-1.671-0.538-2.053
					C147.066,152.958,146.255,153.282,145.773,153.94L145.773,153.94z"/>
			</g>
		</g>
		<g>
			<g>
				<path style="fill:#FFFFFF;" d="M160.453,149.745c-0.438-0.304-0.876-0.609-1.313-0.914c-0.673-0.467-1.664-0.125-2.053,0.538
					c-0.438,0.748-0.131,1.587,0.538,2.053c0.438,0.304,0.876,0.609,1.314,0.914c0.672,0.467,1.663,0.125,2.052-0.539
					C161.429,151.05,161.123,150.21,160.453,149.745L160.453,149.745z"/>
			</g>
		</g>
	</g>
	<g>
		<g>
			<g>
				<path style="fill:#FFFFFF;" d="M188.583,136.941c0.321-2.266,0.644-4.531,0.965-6.797c0.269-1.892-2.622-2.707-2.893-0.798
					c-0.321,2.266-0.644,4.531-0.965,6.797C185.422,138.035,188.313,138.85,188.583,136.941L188.583,136.941z"/>
			</g>
		</g>
		<g>
			<g>
				<path style="fill:#FFFFFF;" d="M186.452,156.217c0.327-4.065,0.654-8.13,0.981-12.195c0.155-1.93-2.846-1.915-3,0
					c-0.327,4.065-0.654,8.13-0.981,12.195C183.297,158.146,186.298,158.131,186.452,156.217L186.452,156.217z"/>
			</g>
		</g>
		<g>
			<g>
				<path style="fill:#FFFFFF;" d="M191.864,124.497c0.202,0.134,0.404,0.268,0.607,0.402c0.683,0.452,1.656,0.137,2.052-0.538
					c0.431-0.735,0.143-1.602-0.538-2.053c-0.202-0.134-0.404-0.268-0.607-0.402c-0.683-0.452-1.656-0.137-2.052,0.538
					C190.896,123.18,191.184,124.046,191.864,124.497L191.864,124.497z"/>
			</g>
		</g>
		<g>
			<g>
				<path style="fill:#FFFFFF;" d="M193.562,128.719c0.103,0.343,0.204,0.687,0.307,1.031c0.232,0.783,1.045,1.268,1.845,1.047
					c0.776-0.213,1.281-1.062,1.048-1.845c-0.103-0.343-0.204-0.687-0.307-1.031c-0.232-0.783-1.045-1.268-1.845-1.047
					C193.833,127.087,193.328,127.935,193.562,128.719L193.562,128.719z"/>
			</g>
		</g>
		<g>
			<g>
				<path style="fill:#FFFFFF;" d="M191.007,125.304c0.184-0.314,0.367-0.628,0.551-0.942c0.979-1.674-1.615-3.183-2.59-1.515
					c-0.184,0.314-0.367,0.628-0.551,0.942C187.438,125.463,190.032,126.972,191.007,125.304L191.007,125.304z"/>
			</g>
		</g>
	</g>
	<g>
		<g>
			<g>
				<path style="fill:#FFFFFF;" d="M175.896,136.143c-0.322-2.266-0.644-4.531-0.966-6.797c-0.271-1.909-3.162-1.094-2.893,0.798
					c0.322,2.266,0.644,4.531,0.966,6.797C173.275,138.85,176.165,138.035,175.896,136.143L175.896,136.143z"/>
			</g>
		</g>
		<g>
			<g>
				<path style="fill:#FFFFFF;" d="M178.134,156.217c-0.327-4.065-0.654-8.13-0.981-12.195c-0.154-1.915-3.155-1.93-3,0
					c0.327,4.065,0.654,8.13,0.981,12.195C175.288,158.131,178.289,158.146,178.134,156.217L178.134,156.217z"/>
			</g>
		</g>
		<g>
			<g>
				<path style="fill:#FFFFFF;" d="M168.208,121.906c-0.203,0.134-0.405,0.269-0.608,0.402c-0.68,0.451-0.969,1.317-0.538,2.053
					c0.396,0.675,1.37,0.99,2.053,0.538c0.202-0.134,0.405-0.269,0.607-0.402c0.681-0.451,0.969-1.317,0.539-2.053
					C169.864,121.769,168.891,121.455,168.208,121.906L168.208,121.906z"/>
			</g>
		</g>
		<g>
			<g>
				<path style="fill:#FFFFFF;" d="M165.132,127.921c-0.103,0.344-0.205,0.688-0.307,1.031c-0.233,0.784,0.272,1.632,1.047,1.845
					c0.801,0.22,1.612-0.265,1.845-1.047c0.103-0.344,0.205-0.688,0.307-1.031c0.233-0.784-0.272-1.632-1.047-1.845
					C166.177,126.653,165.365,127.138,165.132,127.921L165.132,127.921z"/>
			</g>
		</g>
		<g>
			<g>
				<path style="fill:#FFFFFF;" d="M173.169,123.789c-0.184-0.314-0.367-0.628-0.551-0.942c-0.976-1.668-3.569-0.159-2.591,1.515
					c0.184,0.314,0.367,0.628,0.551,0.942C171.554,126.972,174.147,125.463,173.169,123.789L173.169,123.789z"/>
			</g>
		</g>
	</g>
	<g>
		<g>
			<path style="fill:#FFFFFF;" d="M281.566,276.79c-0.477,6.491-12.62,4.377-16.917,4.377c-12.053,0-24.104,0-36.157,0
				c-31.954,0-63.909,0-95.864,0c-11.933,0-23.865,0-35.798,0c-3.912,0-16.397,2.02-16.397-4.407c0-12.654,0-25.31,0-37.964
				c0-4.781-0.701-10.129,5.811-10.129c6.361,0,12.723,0,19.084,0c46.231,0,92.462,0,138.693,0c4.585,0,9.17,0,13.755,0
				c4.163,0,8.327,0,12.491,0c3.932,0,10.883-1.298,11.299,4.377C282.624,247.466,281.566,262.323,281.566,276.79
				c0,6.448,10,6.448,10,0c0-12.427,0-24.854,0-37.28c0-6.368,0.258-12.131-4.689-17.078c-5.288-5.289-14.703-3.765-21.475-3.765
				c-24.195,0-48.391,0-72.586,0c-21.107,0-42.215,0-63.322,0c-8.926,0-17.852,0-26.777,0c-6.398,0-12.909-0.366-19.292,0.102
				c-8.843,0.648-12.991,8.561-12.991,16.494c0,13.385,0,26.771,0,40.155c0,8.274,5.527,15.749,14.384,15.749
				c1.461,0,2.923,0,4.384,0c24.476,0,48.951,0,73.427,0c27.979,0,55.958,0,83.938,0c8.519,0,17.037,0,25.556,0
				c1.607,0,3.215,0,4.822,0c8.329,0,14.037-6.409,14.622-14.377C292.039,270.354,282.035,270.398,281.566,276.79z"/>
		</g>
	</g>
	<g>
		<g>
			<path style="fill:#FFFFFF;" d="M251.34,218.544c-0.59-7.309-5.738-13.01-13.368-13.01c-4.142,0-8.284,0-12.426,0
				c1.667,1.667,3.333,3.333,5,5c0-10.466-6.935-15.677-16.811-15.677c-7.208,0-14.417,0-21.625,0c1.667,1.667,3.333,3.333,5,5
				c-1.778-18.504-31.362-18.504-33.14,0c1.667-1.667,3.333-3.333,5-5c-6.687,0-13.373,0-20.06,0
				c-9.75,0-16.333,5.572-16.333,15.677c1.667-1.667,3.333-3.333,5-5c-4.27,0-8.539,0-12.809,0c-7.634,0-12.789,5.692-13.379,13.01
				c-0.519,6.432,9.485,6.382,10,0c0.412-5.103,12.706-3.01,16.188-3.01c2.726,0,5-2.274,5-5c0-7.018,6.057-5.677,11.224-5.677
				c5.056,0,10.112,0,15.168,0c2.923,0,4.739-2.288,5-5c0.512-5.332,12.627-5.331,13.14,0c0.261,2.712,2.077,5,5,5
				c5.244,0,10.488,0,15.733,0c5.386,0,12.702-1.747,12.702,5.677c0,2.726,2.274,5,5,5c3.449,0,15.386-2.049,15.794,3.01
				C241.854,224.926,251.859,224.976,251.34,218.544L251.34,218.544z"/>
		</g>
	</g>
</g>
<g id="Ebene_1">
</g>
</svg>
