<?xml version="1.0" encoding="iso-8859-1"?>
<!-- Generator: Adobe Illustrator 16.0.0, SVG Export Plug-In . SVG Version: 6.00 Build 0)  -->
<!DOCTYPE svg PUBLIC "-//W3C//DTD SVG 1.1 Tiny//EN" "http://www.w3.org/Graphics/SVG/1.1/DTD/svg11-tiny.dtd">
<svg version="1.1" baseProfile="tiny" id="scene_x5F_wine_x5F_cellar"
	 xmlns="http://www.w3.org/2000/svg" xmlns:xlink="http://www.w3.org/1999/xlink" x="0px" y="0px" width="361px" height="361px"
	 viewBox="0 0 361 361" xml:space="preserve">
<g display="none">
	<g display="inline">
		<g>
			<g>
				<path fill="#FFFFFF" d="M214.542,273.629c0.024,5.432,0.872,10.143-5.98,10.338c-2.366,0.067-4.745,0-7.112,0
					c-3.732,0-7.465,0-11.198,0c-2.73,0-6.261,0.43-8.773-0.716c-3.215-1.467-1.736-11.333-1.736-14.873c0-7.166,0-14.332,0-21.497
					c0-12.557-1.289-25.983,0.828-38.432c2.085-12.26,7.154-23.919,10.416-35.884c1.631-5.984,2.763-12.074,3.4-18.242
					c0.377-3.653,0.975-5.697,5.02-4.724c0.625,0.15,1.281,9.103,1.48,10.319c2.559,15.616,9.126,30.166,12.389,45.6
					c1.525,7.213,1.268,14.479,1.268,21.793C214.542,242.752,214.542,258.19,214.542,273.629c0,1.935,3,1.935,3,0
					c0-11.88,0-23.761,0-35.641c0-13.645,0.549-26.721-3.006-40.05c-3.323-12.46-7.996-24.461-10.461-37.159
					c-0.742-3.825-1.191-7.692-1.494-11.574c-0.07-0.893-0.603-1.626-1.367-2.073c-2.12-1.242-6.499-1.383-8.479,0.233
					c-1.179,0.962-1.043,2.083-1.103,3.56c-0.154,3.791-0.698,7.556-1.357,11.287c-1.212,6.866-3.245,13.574-5.35,20.209
					c-3.468,10.931-7.649,21.872-8.165,33.446c-0.853,19.149-0.019,38.5-0.019,57.67c0,4.17-0.964,11.193,4.307,12.787
					c4.497,1.359,10.003,0.644,14.629,0.644c5.064,0,10.266,0.344,15.315-0.147c7.15-0.696,6.572-7.692,6.548-13.19
					C217.534,271.695,214.534,271.694,214.542,273.629z"/>
			</g>
		</g>
		<g>
			<path fill="#FFFFFF" d="M200.365,143.727c-0.02,0.499-0.192,2.588-0.794,2.588c-0.749,0-1.498,0-2.246,0
				c-0.819,0-1.639,0-2.458,0c-0.813,0-0.92-1.901-0.947-2.588c-0.02-0.5,0.217-2.589,0.794-2.589c0.749,0,1.498,0,2.246,0
				c0.819,0,1.639,0,2.458,0C200.231,141.138,200.338,143.04,200.365,143.727c0.075,1.928,3.075,1.936,3,0
				c-0.079-2.027-0.569-3.978-2.281-5.211c-0.927-0.667-2.707-0.378-3.759-0.378c-1.162,0-2.664-0.238-3.766,0.227
				c-2.049,0.864-2.563,3.372-2.64,5.362c-0.077,1.978,0.657,4.041,2.281,5.21c0.927,0.667,2.707,0.378,3.759,0.378
				c1.162,0,2.664,0.238,3.766-0.227c2.048-0.864,2.563-3.371,2.64-5.361C203.44,141.791,200.44,141.798,200.365,143.727z"/>
		</g>
		<g>
			<path fill="#FFFFFF" d="M194.708,139.515c1.623,0,3.246,0,4.868,0c1.935,0,1.935-3,0-3c-1.623,0-3.246,0-4.868,0
				C192.774,136.515,192.774,139.515,194.708,139.515L194.708,139.515z"/>
		</g>
	</g>
	<g display="inline">
		<path fill="#FFFFFF" d="M215.625,265.355c-6.115,1.272-12.462,2.787-18.721,2.946c-5.988,0.152-12.407-1.701-18.243-2.946
			c0.367,0.482,0.734,0.964,1.101,1.446c0-15,0-30,0-45c-0.633,0.482-1.266,0.964-1.899,1.446
			c6.383,1.327,13.003,2.888,19.541,3.054c6.255,0.159,12.937-1.754,19.019-3.054c-0.633-0.482-1.266-0.964-1.899-1.446
			c0,15,0,30,0,45c0,1.935,3,1.935,3,0c0-15,0-30,0-45c0-1.018-0.953-1.648-1.899-1.446c-5.945,1.271-12.129,2.787-18.221,2.946
			c-6.153,0.161-12.738-1.698-18.743-2.946c-0.946-0.197-1.899,0.424-1.899,1.446c0,15,0,30,0,45c0,0.638,0.454,1.308,1.101,1.446
			c6.213,1.326,12.669,2.888,19.041,3.054c6.42,0.167,13.269-1.753,19.519-3.054C218.316,267.854,217.512,264.962,215.625,265.355z"
			/>
	</g>
</g>
<g display="none">
	<g display="inline">
		<g>
			<g>
				<path fill="#FFFFFF" d="M242.324,234.624c0.024,5.432,0.872,10.143-5.98,10.338c-2.366,0.067-4.745,0-7.112,0
					c-3.732,0-7.465,0-11.198,0c-2.73,0-6.261,0.43-8.773-0.716c-3.215-1.467-1.736-11.333-1.736-14.873c0-7.166,0-14.332,0-21.497
					c0-12.557-1.289-25.983,0.828-38.432c2.085-12.26,7.154-23.919,10.416-35.884c1.631-5.984,2.763-12.074,3.4-18.242
					c0.377-3.653,0.975-5.697,5.02-4.724c0.625,0.15,1.281,9.103,1.48,10.319c2.559,15.616,9.126,30.166,12.389,45.6
					c1.525,7.213,1.268,14.479,1.268,21.793C242.324,203.747,242.324,219.185,242.324,234.624c0,1.935,3,1.935,3,0
					c0-11.88,0-23.761,0-35.641c0-13.645,0.549-26.721-3.006-40.05c-3.323-12.46-7.996-24.461-10.461-37.159
					c-0.742-3.825-1.191-7.692-1.494-11.574c-0.07-0.893-0.603-1.626-1.367-2.073c-2.12-1.242-6.499-1.383-8.479,0.233
					c-1.179,0.962-1.043,2.083-1.103,3.56c-0.154,3.791-0.698,7.556-1.357,11.287c-1.212,6.866-3.245,13.574-5.35,20.209
					c-3.468,10.931-7.649,21.872-8.165,33.446c-0.853,19.149-0.019,38.5-0.019,57.67c0,4.17-0.964,11.193,4.307,12.787
					c4.497,1.359,10.003,0.644,14.629,0.644c5.064,0,10.266,0.344,15.315-0.147c7.15-0.696,6.572-7.692,6.548-13.19
					C245.316,232.69,242.316,232.689,242.324,234.624z"/>
			</g>
		</g>
		<g>
			<path fill="#FFFFFF" d="M228.147,104.721c-0.02,0.499-0.192,2.588-0.794,2.588c-0.749,0-1.498,0-2.246,0
				c-0.819,0-1.639,0-2.458,0c-0.813,0-0.92-1.901-0.947-2.588c-0.02-0.5,0.217-2.589,0.794-2.589c0.749,0,1.498,0,2.246,0
				c0.819,0,1.639,0,2.458,0C228.013,102.132,228.12,104.034,228.147,104.721c0.075,1.928,3.075,1.936,3,0
				c-0.079-2.027-0.569-3.978-2.281-5.211c-0.927-0.667-2.707-0.378-3.759-0.378c-1.162,0-2.664-0.238-3.766,0.227
				c-2.049,0.864-2.563,3.372-2.64,5.362c-0.077,1.978,0.657,4.041,2.281,5.21c0.927,0.667,2.707,0.378,3.759,0.378
				c1.162,0,2.664,0.238,3.766-0.227c2.048-0.864,2.563-3.371,2.64-5.361C231.222,102.786,228.222,102.793,228.147,104.721z"/>
		</g>
		<g>
			<path fill="#FFFFFF" d="M222.49,100.51c1.623,0,3.246,0,4.868,0c1.935,0,1.935-3,0-3c-1.623,0-3.246,0-4.868,0
				C220.556,97.51,220.556,100.51,222.49,100.51L222.49,100.51z"/>
		</g>
	</g>
	<g display="inline">
		<path fill="#FFFFFF" d="M243.407,224.66c-6.115,1.272-12.462,2.787-18.721,2.946c-5.988,0.152-12.407-1.701-18.243-2.946
			c0.367,0.482,0.734,0.964,1.101,1.446c0-15,0-30,0-45c-0.633,0.482-1.266,0.964-1.899,1.446
			c6.383,1.327,13.003,2.888,19.541,3.054c6.255,0.159,12.937-1.754,19.019-3.054c-0.633-0.482-1.266-0.964-1.899-1.446
			c0,15,0,30,0,45c0,1.935,3,1.935,3,0c0-15,0-30,0-45c0-1.018-0.953-1.648-1.899-1.446c-5.945,1.271-12.129,2.787-18.221,2.946
			c-6.153,0.161-12.738-1.698-18.743-2.946c-0.946-0.197-1.899,0.424-1.899,1.446c0,15,0,30,0,45c0,0.638,0.454,1.308,1.101,1.446
			c6.213,1.326,12.669,2.888,19.041,3.054c6.42,0.167,13.269-1.753,19.519-3.054C246.098,227.158,245.294,224.267,243.407,224.66z"
			/>
	</g>
</g>
<g display="none">
	<g display="inline">
		<g>
			<g>
				<path fill="#FFFFFF" d="M178.313,268.302c-6.104,0-12.207,0-18.31,0c-2.487,0-5.097,0.179-7.552-0.278
					c-4.161-0.775-2.957-7.255-2.957-10.266c0-12.763,0-25.527,0-38.29c0-5.634,0-11.269,0-16.903
					c0-9.073,2.521-17.699,5.251-26.276c3.945-12.391,8.049-24.623,9.392-37.63c0.377-3.653,0.975-5.697,5.02-4.724
					c0.683,0.165,1.08,7.792,1.269,9.045c1.101,7.279,3.102,14.403,5.243,21.433c2.389,7.843,5.094,15.585,6.958,23.579
					c0.439,1.884,3.332,1.084,2.893-0.798c-3.004-12.885-7.948-25.214-10.885-38.125c-0.89-3.909-1.517-7.872-1.979-11.852
					c-0.142-1.221,0.282-4.198-0.943-5.167c-2.143-1.693-5.787-1.917-8.279-0.859c-1.019,0.432-1.534,0.926-1.926,1.949
					c-1.018,2.66-0.526,7.274-0.93,10.127c-0.985,6.966-2.901,13.783-4.959,20.496c-3.422,11.164-7.79,22.157-8.955,33.861
					c-1.195,12.003-0.17,24.527-0.17,36.565c0,6.738,0,13.476,0,20.214c0,4.474-0.91,9.746,1.167,13.801
					c2.149,4.199,9.283,3.097,13.165,3.097c5.83,0,11.659,0,17.488,0C180.248,271.302,180.248,268.302,178.313,268.302
					L178.313,268.302z"/>
			</g>
		</g>
		<g>
			<path fill="#FFFFFF" d="M170.117,128.061c-0.02,0.499-0.192,2.588-0.794,2.588c-0.749,0-1.498,0-2.246,0
				c-0.819,0-1.639,0-2.458,0c-0.813,0-0.92-1.901-0.947-2.588c-0.02-0.5,0.217-2.589,0.794-2.589c0.749,0,1.498,0,2.246,0
				c0.819,0,1.639,0,2.458,0C169.983,125.472,170.09,127.374,170.117,128.061c0.075,1.928,3.075,1.936,3,0
				c-0.079-2.027-0.569-3.978-2.281-5.211c-0.927-0.667-2.707-0.378-3.759-0.378c-1.162,0-2.664-0.238-3.766,0.227
				c-2.049,0.864-2.563,3.372-2.64,5.362c-0.077,1.978,0.657,4.041,2.281,5.21c0.927,0.667,2.707,0.378,3.759,0.378
				c1.162,0,2.664,0.238,3.766-0.227c2.048-0.864,2.563-3.371,2.64-5.361C173.192,126.125,170.191,126.133,170.117,128.061z"/>
		</g>
		<g>
			<path fill="#FFFFFF" d="M164.46,123.85c1.623,0,3.246,0,4.868,0c1.935,0,1.935-3,0-3c-1.623,0-3.246,0-4.868,0
				C162.525,120.85,162.525,123.85,164.46,123.85L164.46,123.85z"/>
		</g>
	</g>
	<g display="inline">
		<path fill="#FFFFFF" d="M168.136,248.523c-3.331-0.512-6.681-0.857-10.046-1.026c-3.054-0.153-5.454-0.568-8.153-2.045
			c-1.997-1.093-0.462,0.766-0.462,0.069c0-4.442,0-8.884,0-13.326c0-10.408,0-20.817,0-31.225
			c-0.752,0.432-1.505,0.863-2.257,1.295c6.057,3.995,13.266,3.033,20.12,4.151c-0.367-0.482-0.734-0.964-1.101-1.446
			c0,15,0,30,0,45c0,1.935,3,1.935,3,0c0-15,0-30,0-45c0-0.613-0.452-1.341-1.101-1.446c-6.468-1.055-13.744-0.115-19.404-3.849
			c-0.965-0.637-2.257,0.205-2.257,1.295c0,11.306,0,22.611,0,33.917c0,3.431-0.868,8.13,0.054,11.482
			c0.572,2.081,5.039,3.169,6.719,3.669c4.365,1.299,9.556,0.682,14.09,1.378C169.23,251.707,170.043,248.816,168.136,248.523z"/>
	</g>
</g>
<g>
	<path fill="#FFFFFF" d="M252.89,163.261c2.408,8.41,2.009,16.679,1.789,25.321c0.5-0.5,1-1,1.5-1.5c-19.662,0-39.325,0-58.987,0
		c0.5,0.5,1,1,1.5,1.5c0.218-8.917,0.702-17.471-1.896-26.119c-0.482,0.633-0.964,1.266-1.446,1.899c19.662,0,39.325,0,58.987,0
		c1.935,0,1.935-3,0-3c-19.662,0-39.325,0-58.987,0c-0.958,0-1.729,0.96-1.446,1.899c2.512,8.363,2,16.704,1.789,25.321
		c-0.02,0.818,0.697,1.5,1.5,1.5c19.662,0,39.325,0,58.987,0c0.833,0,1.479-0.683,1.5-1.5c0.228-8.931,0.589-17.437-1.896-26.119
		C255.251,160.606,252.356,161.396,252.89,163.261z"/>
</g>
<g>
	<g>
		<g>
			<path fill="#FFFFFF" d="M268.874,84.138c8.368,0.481,9.627,15.442,10.19,21.579c0.552,6.032-0.049,12.077-1.352,17.983
				c-1.217,5.514-3.49,12.471-10.072,12.471c-4.627,0-9.255,0-13.883,0c-15.6,0-31.2,0-46.799,0
				c-11.336,0-22.858,0.705-34.012-1.661c-12.081-2.563-23.65-7.342-35.314-11.295c-12.603-4.272-25.462-7.65-38.769-8.654
				c-1.494-0.113-3.011,0.401-3.495-1.236c-0.297-1.003-0.293-2.095-0.318-3.129c-0.084-3.44,0.468-4.256,3.903-4.588
				c6.88-0.664,13.681-2.021,20.384-3.677c12.556-3.102,24.649-7.781,36.928-11.784c9.932-3.238,20.219-6.007,30.738-6.007
				c3.505,0,7.01,0,10.515,0c15.291,0,30.581,0,45.871,0C251.883,84.138,260.378,84.138,268.874,84.138c1.935,0,1.935-3,0-3
				c-24.662,0-49.323,0-73.984,0c-3.119,0-6.238-0.02-9.357,0.015c-11.24,0.125-22.275,3.518-32.848,7.014
				c-12.399,4.101-24.622,8.633-37.352,11.646c-3.277,0.776-6.589,1.393-9.911,1.943c-3.202,0.53-7.307,0.213-10.383,1.218
				c-2.551,0.833-2.79,3.992-2.964,6.279c-0.178,2.33-0.046,5.934,1.906,7.585c1.225,1.036,3.445,0.638,4.883,0.722
				c4.347,0.254,8.661,0.901,12.94,1.684c13.113,2.396,25.696,7.063,38.236,11.458c10.719,3.757,21.596,7.402,32.984,8.333
				c3.527,0.288,7.132,0.137,10.667,0.137c25.04,0,50.08,0,75.12,0c11.855,0,13.312-20.067,13.491-28.44
				c0.191-8.943-1.478-28.904-13.428-29.592C266.94,81.027,266.951,84.027,268.874,84.138z"/>
		</g>
	</g>
	<g>
		<path fill="#FFFFFF" d="M88.064,104.778c1.304,0.06,4.001,0.281,4.001,2.063c0,1.016,0,2.031,0,3.047c0,1.095,0,2.189,0,3.284
			c0,2.002-2.373,2.283-4.001,2.358c-1.3,0.06-4.002-0.364-4.002-2.063c0-1.016,0-2.031,0-3.047c0-1.095,0-2.189,0-3.284
			C84.062,105.134,86.436,104.854,88.064,104.778c1.926-0.089,1.935-3.089,0-3c-2.543,0.117-5.612,0.793-6.726,3.382
			c-0.588,1.368-0.277,3.288-0.277,4.728c0,1.632-0.103,3.283,0.125,4.901c0.404,2.869,4.666,3.638,6.877,3.74
			c2.489,0.115,5.674-0.94,6.724-3.382c0.588-1.369,0.277-3.288,0.277-4.728c0-1.632,0.103-3.283-0.125-4.902
			c-0.404-2.868-4.664-3.638-6.875-3.74C86.129,101.689,86.138,104.689,88.064,104.778z"/>
	</g>
	<g>
		<path fill="#FFFFFF" d="M81.879,113.698c0-2.362,0-4.725,0-7.087c0-1.935-3-1.935-3,0c0,2.362,0,4.725,0,7.087
			C78.879,115.632,81.879,115.632,81.879,113.698L81.879,113.698z"/>
	</g>
</g>
<g>
	<path fill="#FFFFFF" d="M90.794,147.045c49.517,0,99.034,0,148.55,0c15.49,0,30.98,0,46.471,0c4.514,0,4.514-7,0-7
		c-49.517,0-99.034,0-148.55,0c-15.49,0-30.98,0-46.471,0C86.28,140.045,86.28,147.045,90.794,147.045L90.794,147.045z"/>
</g>
<g>
	<path fill="#FFFFFF" d="M90.794,221.378c49.517,0,99.034,0,148.55,0c15.49,0,30.98,0,46.471,0c4.514,0,4.514-7,0-7
		c-49.517,0-99.034,0-148.55,0c-15.49,0-30.98,0-46.471,0C86.28,214.378,86.28,221.378,90.794,221.378L90.794,221.378z"/>
</g>
<g>
	<path fill="#FFFFFF" d="M90.595,295.045c49.517,0,99.034,0,148.55,0c15.49,0,30.98,0,46.471,0c4.514,0,4.514-7,0-7
		c-49.517,0-99.034,0-148.55,0c-15.49,0-30.98,0-46.471,0C86.081,288.045,86.081,295.045,90.595,295.045L90.595,295.045z"/>
</g>
<g>
	<path fill="#FFFFFF" d="M282.315,78.045c0,48.454,0,96.908,0,145.362c0,22.712,0,45.425,0,68.138c0,4.514,7,4.514,7,0
		c0-48.454,0-96.908,0-145.362c0-22.712,0-45.425,0-68.138C289.315,73.531,282.315,73.531,282.315,78.045L282.315,78.045z"/>
</g>
<g>
	<g>
		<path fill="#FFFFFF" d="M217.769,97.742c0.735,2.403,1.263,4.852,1.586,7.322c0.224,1.934,3.219,1.722,2.975-0.389
			c-0.344-2.634-0.909-5.247-1.692-7.81C219.979,94.821,217.165,95.87,217.769,97.742L217.769,97.742z"/>
	</g>
	<g>
		<path fill="#FFFFFF" d="M219.599,109.873c0.055,2.396-0.082,4.797-0.411,7.177c-0.295,1.921,2.65,2.508,2.972,0.411
			c0.351-2.539,0.497-5.1,0.438-7.657C222.518,107.689,219.525,107.937,219.599,109.873L219.599,109.873z"/>
	</g>
	<g>
		<path fill="#FFFFFF" d="M218.415,121.196c-0.132,0.561-0.275,1.119-0.429,1.675c-0.55,1.878,2.292,2.851,2.892,0.8
			c0.165-0.594,0.317-1.189,0.458-1.788C221.792,119.805,218.833,119.292,218.415,121.196L218.415,121.196z"/>
	</g>
	<g>
		<path fill="#FFFFFF" d="M225.774,100.95c0.358,1.836,0.616,3.687,0.774,5.544c0.157,2.245,3.159,2.168,2.989-0.254
			c-0.167-1.964-0.44-3.921-0.818-5.864C228.217,97.989,225.309,98.738,225.774,100.95L225.774,100.95z"/>
	</g>
	<g>
		<path fill="#FFFFFF" d="M226.692,113.023c-0.18,4.417-0.923,8.815-2.229,13.087c-0.698,2.167,2.116,3.216,2.869,0.877
			c1.381-4.519,2.167-9.171,2.358-13.842C229.753,110.719,226.75,110.775,226.692,113.023L226.692,113.023z"/>
	</g>
	<g>
		<path fill="#FFFFFF" d="M234.306,95.617c0.738,2.879,1.265,5.798,1.579,8.734c0.245,2.656,3.244,2.514,2.983-0.319
			c-0.33-3.08-0.882-6.141-1.657-9.16C236.458,92.105,233.599,93.025,234.306,95.617L234.306,95.617z"/>
	</g>
	<g>
		<path fill="#FFFFFF" d="M236.219,109.492c0.03,1.307,0.018,2.613-0.035,3.919c-0.148,2.661,2.84,2.961,2.998,0.122
			c0.056-1.369,0.068-2.74,0.037-4.11C239.111,106.583,236.118,106.829,236.219,109.492L236.219,109.492z"/>
	</g>
	<g>
		<path fill="#FFFFFF" d="M235.475,120.548c-0.446,2.81-1.089,5.597-1.927,8.34c-0.827,2.566,1.987,3.615,2.869,0.877
			c0.879-2.876,1.553-5.799,2.021-8.747C238.843,118.198,235.854,117.905,235.475,120.548L235.475,120.548z"/>
	</g>
	<g>
		<path fill="#FFFFFF" d="M246.867,115.032c-0.328,5.737-1.341,11.445-3.04,16.999c-0.973,3.019,1.841,4.068,2.869,0.877
			c1.769-5.784,2.824-11.729,3.166-17.704C250.002,111.894,247,111.901,246.867,115.032L246.867,115.032z"/>
	</g>
</g>
<g>
	<path fill="#FFFFFF" d="M251.627,84.109c3.354,0.368,4.625,7.159,5.247,9.612c1.354,5.346,1.651,10.941,1.708,16.433
		c0.057,5.518-0.513,11.049-1.708,16.434c-0.543,2.447-1.945,9.25-5.247,9.612c-1.901,0.209-1.922,3.211,0,3
		c3.563-0.391,5.462-3.749,6.613-6.841c2.627-7.064,3.265-14.723,3.342-22.205c0.077-7.417-0.744-15.218-3.342-22.204
		c-1.15-3.092-3.05-6.449-6.613-6.84C249.706,80.898,249.726,83.9,251.627,84.109L251.627,84.109z"/>
</g>
<g>
	<path fill="#FFFFFF" d="M197.939,84.109c3.354,0.368,4.625,7.159,5.247,9.612c1.354,5.346,1.651,10.941,1.708,16.433
		c0.057,5.518-0.513,11.049-1.708,16.434c-0.543,2.447-1.945,9.25-5.247,9.612c-1.901,0.209-1.922,3.211,0,3
		c3.563-0.391,5.462-3.749,6.613-6.841c2.627-7.064,3.265-14.723,3.342-22.205c0.077-7.417-0.744-15.218-3.342-22.204
		c-1.15-3.092-3.05-6.449-6.613-6.84C196.018,80.898,196.038,83.9,197.939,84.109L197.939,84.109z"/>
</g>
<g>
	<g>
		<g>
			<path fill="#FFFFFF" d="M267.533,164.512c7.947,0.496,8.877,15.45,9.259,21.219c0.426,6.433-0.569,13.219-2.739,19.268
				c-2.072,5.777-5.419,6.562-10.652,6.562c-6.179,0-12.357,0-18.536,0c-15.012,0-30.024,0-45.036,0
				c-3.99,0-7.982,0.092-11.961-0.26c-12.07-1.067-23.768-5.996-35.1-9.955c-12.345-4.312-24.84-8.02-37.902-9.288
				c-3.64-0.354-5.173,0.001-5.283-3.986c-0.11-3.99,1.91-3.862,5.408-4.261c6.735-0.769,13.369-2.241,19.907-4
				c19.679-5.293,38.658-15.3,59.415-15.3c24.354,0,48.708,0,73.061,0C267.428,164.512,267.48,164.512,267.533,164.512
				c1.935,0,1.935-3,0-3c-24.067,0-48.134,0-72.201,0c-18.813,0-35.969,7.555-53.617,13.159c-6.166,1.958-12.418,3.604-18.762,4.872
				c-3.771,0.754-7.583,1.258-11.407,1.635c-1.34,0.132-3.016-0.002-3.791,1.38c-1.455,2.594-1.314,5.83-0.877,8.676
				c0.67,4.36,4.452,3.545,7.989,3.825c25.469,2.015,47.811,16.436,73.002,19.242c10.646,1.187,21.81,0.26,32.488,0.26
				c14.348,0,28.696,0,43.044,0c3.51,0,6.483,0.233,9.429-2.105c5.404-4.291,6.267-13.895,6.846-20.204
				c0.82-8.939-0.088-29.989-12.143-30.741C265.6,161.391,265.611,164.392,267.533,164.512z"/>
		</g>
	</g>
	<g>
		<path fill="#FFFFFF" d="M103.095,183.283c1.098,0.051,3.503,0.22,3.503,1.74c0,0.924,0,1.847,0,2.771c0,0.996,0,1.991,0,2.986
			c0,1.732-2.102,1.944-3.503,2.008c-1.094,0.05-3.504-0.288-3.504-1.74c0-0.924,0-1.847,0-2.771c0-0.996,0-1.991,0-2.986
			C99.59,183.56,101.694,183.348,103.095,183.283c1.926-0.089,1.935-3.089,0-3c-2.356,0.109-5.203,0.744-6.234,3.143
			c-0.548,1.273-0.271,3.026-0.271,4.369c0,1.498-0.09,3.009,0.119,4.494c0.376,2.674,4.315,3.405,6.385,3.501
			c2.307,0.106,5.26-0.881,6.233-3.143c0.547-1.273,0.27-3.026,0.27-4.368c0-1.498,0.09-3.009-0.119-4.494
			c-0.376-2.673-4.314-3.405-6.384-3.501C101.16,180.194,101.168,183.194,103.095,183.283z"/>
	</g>
	<g>
		<path fill="#FFFFFF" d="M97.605,191.259c0-2.148,0-4.296,0-6.445c0-1.935-3-1.935-3,0c0,2.148,0,4.296,0,6.445
			C94.605,193.193,97.605,193.193,97.605,191.259L97.605,191.259z"/>
	</g>
</g>
<g>
	<g>
		<g>
			<path fill="#FFFFFF" d="M266.857,230.622c8.495,0.465,9.973,15.137,10.649,21.421c0.629,5.84,0.282,11.575-0.716,17.363
				c-0.952,5.515-3.085,15.994-10.305,15.994c-3.756,0-7.512,0-11.268,0c-24.821,0-49.643,0-74.464,0
				c-11.876,0-23.431-3.833-34.546-7.638c-12.504-4.28-24.866-8.91-37.746-11.971c-6.104-1.451-12.312-2.408-18.559-2.966
				c-3.455-0.309-5.194,0.44-5.567-3.375c-0.214-2.195-0.526-5.881,2.174-6.101c13.217-1.075,26.112-4.479,38.694-8.524
				c18.643-5.993,37.087-14.203,57-14.203c12.214,0,24.429,0,36.644,0C234.851,230.622,250.854,230.622,266.857,230.622
				c1.935,0,1.935-3,0-3c-24.821,0-49.643,0-74.464,0c-12.753,0-24.686,0.641-37.146,4.142c-11.925,3.35-23.482,7.908-35.308,11.581
				c-6.163,1.914-12.407,3.539-18.726,4.848c-3.725,0.771-7.486,1.345-11.26,1.806c-1.884,0.23-5.074-0.264-6.641,1.056
				c-2.644,2.225-3.617,13.163,0.661,14.318c2.361,0.638,5.18,0.386,7.624,0.605c3.768,0.337,7.502,0.962,11.216,1.667
				c6.949,1.319,13.767,3.288,20.504,5.421c19.033,6.028,38.031,15.335,58.375,15.335c26.201,0,52.402,0,78.603,0
				c3.621,0,7.656,0.541,10.959-1.21c6.972-3.698,8.331-15.146,9.159-22.008c0.815-6.749,0.323-13.413-0.912-20.088
				c-1.274-6.891-4.205-17.009-12.644-17.471C264.923,227.516,264.933,230.516,266.857,230.622z"/>
		</g>
	</g>
	<g>
		<path fill="#FFFFFF" d="M77.027,252.292c1.416,0.065,4.275,0.315,4.275,2.24c0,1.066,0,2.133,0,3.199c0,1.149,0,2.298,0,3.447
			c0,2.151-2.522,2.469-4.275,2.55c-1.413,0.065-4.278-0.406-4.278-2.24c0-1.066,0-2.133,0-3.199c0-1.149,0-2.298,0-3.447
			C72.749,252.69,75.274,252.374,77.027,252.292c1.926-0.089,1.935-3.089,0-3c-2.646,0.122-5.839,0.819-6.998,3.513
			c-0.611,1.421-0.28,3.432-0.28,4.926c0,1.706-0.109,3.434,0.129,5.126c0.419,2.976,4.859,3.766,7.148,3.872
			c2.59,0.12,5.902-0.972,6.995-3.514c0.611-1.421,0.28-3.432,0.28-4.926c0-1.706,0.109-3.434-0.129-5.126
			c-0.419-2.975-4.857-3.766-7.146-3.872C75.092,249.203,75.101,252.204,77.027,252.292z"/>
	</g>
	<g>
		<path fill="#FFFFFF" d="M70.458,261.731c0-2.48,0-4.96,0-7.44c0-1.935-3-1.935-3,0c0,2.48,0,4.96,0,7.44
			C67.458,263.666,70.458,263.666,70.458,261.731L70.458,261.731z"/>
	</g>
</g>
<g>
	<path fill="#FFFFFF" d="M263.226,246.164c1.301,7.355,1.088,15.141,0.38,22.549c-0.327,3.428-1.53,16.454-6.488,16.998
		c-1.901,0.208-1.922,3.211,0,3c5.765-0.633,7.446-8.69,8.457-13.246c2.132-9.604,2.255-20.424,0.543-30.1
		C265.782,243.464,262.891,244.272,263.226,246.164L263.226,246.164z"/>
</g>
<g>
	<path fill="#FFFFFF" d="M209.285,246.164c1.246,7.47,1.353,15.021,0.634,22.549c-0.327,3.428-1.53,16.454-6.488,16.998
		c-1.901,0.208-1.922,3.211,0,3c5.323-0.584,7.053-7.526,8.139-11.814c2.571-10.151,2.318-21.275,0.607-31.531
		C211.86,243.461,208.969,244.272,209.285,246.164L209.285,246.164z"/>
</g>
<g>
	<path fill="#FFFFFF" d="M210.731,247.265c17.98,0,35.961,0,53.941,0c1.935,0,1.935-3,0-3c-17.98,0-35.961,0-53.941,0
		C208.796,244.265,208.796,247.265,210.731,247.265L210.731,247.265z"/>
</g>
<g>
	<g>
		<path fill="#FFFFFF" d="M215.307,164.216c1.117,2.143,1.935,4.51,2.382,7.029c0.298,2.072,3.3,1.525,2.915-0.842
			c-0.529-2.782-1.464-5.404-2.735-7.786C216.769,160.697,214.383,162.559,215.307,164.216L215.307,164.216z"/>
	</g>
	<g>
		<path fill="#FFFFFF" d="M218.078,175.793c-0.002,0.635-0.028,1.276-0.079,1.922c-0.072,0.925,0.57,1.742,1.383,1.75
			c0.853,0.009,1.601-0.888,1.663-1.925c0.044-0.71,0.063-1.417,0.056-2.118c-0.012-1.025-0.832-1.694-1.624-1.543
			C218.643,174.037,218.084,174.88,218.078,175.793L218.078,175.793z"/>
	</g>
	<g>
		<path fill="#FFFFFF" d="M224.038,166.832c1.089,3.813,1.496,7.936,1.083,12.161c-0.362,2.766,2.792,2.597,3.099-0.479
			c0.347-4.57-0.181-9.03-1.447-13.157C225.86,162.673,223.289,164.425,224.038,166.832L224.038,166.832z"/>
	</g>
	<g>
		<path fill="#FFFFFF" d="M233.929,166.564c0.777,3.479,1.121,7.107,0.985,10.799c-0.241,3.495,2.96,2.733,3.086-1.072
			c0.042-3.93-0.42-7.789-1.345-11.484C235.675,161.333,233.143,163.365,233.929,166.564L233.929,166.564z"/>
	</g>
</g>
<g>
	<g>
		<path fill="#FFFFFF" d="M233.927,257.684c0.347,2.754,0.462,5.481,0.362,8.154c-0.104,2.065,2.856,2.71,2.991,0.484
			c0.127-2.818,0.028-5.692-0.313-8.592C236.661,255.402,233.616,255.508,233.927,257.684L233.927,257.684z"/>
	</g>
	<g>
		<path fill="#FFFFFF" d="M233.707,270.926c-0.357,2.503-0.904,4.94-1.624,7.291c-0.601,1.871,2.115,3.186,2.783,1.164
			c0.777-2.483,1.372-5.056,1.767-7.696C236.933,269.486,233.965,268.875,233.707,270.926L233.707,270.926z"/>
	</g>
	<g>
		<path fill="#FFFFFF" d="M230.647,282.245c-0.219,0.536-0.447,1.066-0.685,1.59c-0.341,0.757-0.176,1.656,0.557,2.103
			c0.666,0.408,1.693,0.188,2.065-0.62c0.255-0.555,0.5-1.115,0.735-1.681c0.344-0.822,0.112-1.777-0.664-2.147
			C231.95,281.153,230.963,281.474,230.647,282.245L230.647,282.245z"/>
	</g>
	<g>
		<path fill="#FFFFFF" d="M241.359,263.151c0.027,1.982-0.049,3.945-0.224,5.881c-0.238,2.311,2.668,3.282,2.955,0.811
			c0.203-2.03,0.302-4.086,0.294-6.163C244.342,261.112,241.287,260.733,241.359,263.151L241.359,263.151z"/>
	</g>
	<g>
		<path fill="#FFFFFF" d="M240.123,275.703c-0.948,4.422-2.42,8.643-4.351,12.575c-0.998,1.967,1.401,3.852,2.499,1.745
			c2.068-4.126,3.655-8.553,4.692-13.188C243.473,274.412,240.573,273.423,240.123,275.703L240.123,275.703z"/>
	</g>
	<g>
		<path fill="#FFFFFF" d="M250.874,260.565c0.154,3.09,0.092,6.151-0.174,9.163c-0.27,2.691,2.614,3.89,2.944,1.037
			c0.314-3.136,0.415-6.324,0.292-9.542C253.787,258.259,250.687,257.751,250.874,260.565L250.874,260.565z"/>
	</g>
	<g>
		<path fill="#FFFFFF" d="M250.028,274.933c-0.222,1.306-0.482,2.6-0.781,3.879c-0.257,1.109-0.004,2.293,0.773,2.721
			c0.705,0.39,1.717-0.146,2.003-1.31c0.326-1.333,0.613-2.68,0.86-4.039c0.217-1.184-0.166-2.414-0.992-2.741
			C251.138,273.145,250.219,273.803,250.028,274.933L250.028,274.933z"/>
	</g>
	<g>
		<path fill="#FFFFFF" d="M247.237,285.682c-0.699,1.973-1.491,3.901-2.372,5.78c-1.131,2.339,1.192,4.404,2.435,1.927
			c0.943-1.955,1.792-3.963,2.544-6.016C250.783,284.713,248.086,283.154,247.237,285.682L247.237,285.682z"/>
	</g>
</g>
</svg>
