<?xml version="1.0" encoding="iso-8859-1"?>
<!-- Generator: Adobe Illustrator 16.0.0, SVG Export Plug-In . SVG Version: 6.00 Build 0)  -->
<!DOCTYPE svg PUBLIC "-//W3C//DTD SVG 1.1//EN" "http://www.w3.org/Graphics/SVG/1.1/DTD/svg11.dtd">
<svg version="1.1" xmlns="http://www.w3.org/2000/svg" xmlns:xlink="http://www.w3.org/1999/xlink" x="0px" y="0px" width="361px"
	 height="361px" viewBox="0 0 361 361" style="enable-background:new 0 0 361 361;" xml:space="preserve">
<g id="scene_x5F_living">
	<g>
		<path style="fill:none;stroke:#FFFFFF;stroke-width:10;stroke-linejoin:round;stroke-miterlimit:10;" d="M281.058,163.07h-21.341
			c-3.264,0-5.908,3.396-5.908,7.586v11.259l-145.716,0.2v-11.459c0-4.19-2.646-7.586-5.91-7.586h-21.34
			c-3.262,0-5.908,3.396-5.908,7.586v19.81c0,4.189,2.646,7.585,5.908,7.585h10.494v17.438c0,7.388,4.664,13.375,10.418,13.375
			h158.037c5.754,0,10.418-5.987,10.418-13.375v-17.438h10.849c3.263,0,5.907-3.396,5.907-7.585v-19.81
			C286.965,166.467,284.32,163.07,281.058,163.07z"/>
		<path style="fill:none;stroke:#FFFFFF;stroke-width:10;stroke-miterlimit:10;" d="M256.259,152.811
			c0-0.176-0.004-16.314-0.011-16.491c-0.234-5.618-4.168-10.091-8.987-10.091H113.519c-4.969,0-8.998,4.755-8.998,10.621v15.961"/>
		<g>
			<g>
				<path style="fill:#FFFFFF;" d="M104.037,230.84c0,1.275,0,2.552,0,3.827c0,2.726,2.274,5,5,5s5-2.274,5-5
					c0-1.275,0-2.552,0-3.827c0-2.726-2.274-5-5-5S104.037,228.114,104.037,230.84L104.037,230.84z"/>
			</g>
		</g>
		<g>
			<g>
				<path style="fill:#FFFFFF;" d="M247.615,230.84c0,1.275,0,2.552,0,3.827c0,2.726,2.274,5,5,5s5-2.274,5-5
					c0-1.275,0-2.552,0-3.827c0-2.726-2.274-5-5-5S247.615,228.114,247.615,230.84L247.615,230.84z"/>
			</g>
		</g>
	</g>
</g>
<g id="Ebene_1">
</g>
</svg>
