<?xml version="1.0" encoding="iso-8859-1"?>
<!-- Generator: Adobe Illustrator 16.0.0, SVG Export Plug-In . SVG Version: 6.00 Build 0)  -->
<!DOCTYPE svg PUBLIC "-//W3C//DTD SVG 1.1 Tiny//EN" "http://www.w3.org/Graphics/SVG/1.1/DTD/svg11-tiny.dtd">
<svg version="1.1" baseProfile="tiny" id="scene_x5F_sleeping_x5F_alternat"
	 xmlns="http://www.w3.org/2000/svg" xmlns:xlink="http://www.w3.org/1999/xlink" x="0px" y="0px" width="361px" height="361px"
	 viewBox="0 0 361 361" xml:space="preserve">
<path fill="#FFFFFF" stroke="#FFFFFF" stroke-width="10" stroke-miterlimit="10" d="M284.315,215.609
	c0,1.622-2.595,2.936-5.795,2.936H78.11c-3.2,0-5.795-1.314-5.795-2.936v-17.128c0-1.622,2.595-2.936,5.795-2.936h200.41
	c3.2,0,5.795,1.314,5.795,2.936V215.609z"/>
<path fill="#FFFFFF" stroke="#FFFFFF" stroke-width="10" stroke-miterlimit="10" d="M211.594,186.967
	c0,3.153-2.901,5.709-6.478,5.709H85.819c-3.577,0-6.478-2.556-6.478-5.709v-25.213c0-3.153,2.901-5.709,6.478-5.709h119.297
	c3.577,0,6.478,2.556,6.478,5.709V186.967z"/>
<g>
	<path fill="#FFFFFF" d="M67.315,175.268c0,21.512,0,43.023,0,64.535c0,6.449,10,6.449,10,0c0-21.512,0-43.023,0-64.535
		C77.315,168.819,67.315,168.819,67.315,175.268L67.315,175.268z"/>
</g>
<g>
	<path fill="#FFFFFF" d="M279.315,147.545c0,31.056,0,62.111,0,93.167c0,6.449,10,6.449,10,0c0-31.056,0-62.111,0-93.167
		C289.315,141.096,279.315,141.096,279.315,147.545L279.315,147.545z"/>
</g>
<g>
	<path fill="#FFFFFF" d="M219.813,158.991c0,9.333,0,18.667,0,28c0,9.687,15.003,9.772,15.003,0.108c0-9.333,0-18.667,0-28
		C234.816,149.413,219.813,149.327,219.813,158.991L219.813,158.991z"/>
</g>
<g>
	<path fill="#FFFFFF" d="M260.369,179.043c-9.333,0-18.667,0-28,0c-9.687,0-9.772,15.003-0.108,15.003c9.333,0,18.667,0,28,0
		C269.947,194.046,270.033,179.043,260.369,179.043L260.369,179.043z"/>
</g>
<circle fill="#FFFFFF" cx="251.648" cy="163.211" r="13.667"/>
</svg>
