<?xml version="1.0" encoding="iso-8859-1"?>
<!-- Generator: Adobe Illustrator 16.0.0, SVG Export Plug-In . SVG Version: 6.00 Build 0)  -->
<!DOCTYPE svg PUBLIC "-//W3C//DTD SVG 1.1//EN" "http://www.w3.org/Graphics/SVG/1.1/DTD/svg11.dtd">
<svg version="1.1" xmlns="http://www.w3.org/2000/svg" xmlns:xlink="http://www.w3.org/1999/xlink" x="0px" y="0px" width="361px"
	 height="361px" viewBox="0 0 361 361" style="enable-background:new 0 0 361 361;" xml:space="preserve">
<g id="scene_x5F_storeroom">
	<g>
		<g>
			<path style="fill:#FFFFFF;" d="M213.188,180.873c0,35.833,0,71.667,0,107.5c0,4.514,7,4.514,7,0c0-35.834,0-71.667,0-107.5
				C220.188,176.358,213.188,176.358,213.188,180.873L213.188,180.873z"/>
		</g>
	</g>
	<g>
		<g>
			<path style="fill:#FFFFFF;" d="M284.043,180.873c0,35.833,0,71.667,0,107.5c0,4.514,7,4.514,7,0c0-35.834,0-71.667,0-107.5
				C291.043,176.358,284.043,176.358,284.043,180.873L284.043,180.873z"/>
		</g>
	</g>
	<g>
		<g>
			<g>
				<path style="fill:#FFFFFF;" d="M69.478,81.54c0,48.866,0,97.732,0,146.597c0,20.079,0,40.158,0,60.236c0,4.514,7,4.514,7,0
					c0-48.866,0-97.731,0-146.598c0-20.079,0-40.157,0-60.236C76.478,77.025,69.478,77.025,69.478,81.54L69.478,81.54z"/>
			</g>
		</g>
		<g>
			<g>
				<path style="fill:#FFFFFF;" d="M169.333,81.54c0,48.866,0,97.732,0,146.597c0,20.079,0,40.158,0,60.236c0,4.514,7,4.514,7,0
					c0-48.866,0-97.731,0-146.598c0-20.079,0-40.157,0-60.236C176.333,77.025,169.333,77.025,169.333,81.54L169.333,81.54z"/>
			</g>
		</g>
		<g>
			<g>
				<path style="fill:#FFFFFF;" d="M169.365,84.195c-31.833,0-63.667,0-95.5,0c-4.514,0-4.514,7,0,7c31.833,0,63.667,0,95.5,0
					C173.879,91.195,173.879,84.195,169.365,84.195L169.365,84.195z"/>
			</g>
		</g>
		<g>
			<g>
				<path style="fill:#FFFFFF;" d="M169.365,139.015c-31.833,0-63.667,0-95.5,0c-4.514,0-4.514,7,0,7c31.833,0,63.667,0,95.5,0
					C173.879,146.015,173.879,139.015,169.365,139.015L169.365,139.015z"/>
			</g>
		</g>
		<g>
			<g>
				<path style="fill:#FFFFFF;" d="M169.365,193.834c-31.833,0-63.667,0-95.5,0c-4.514,0-4.514,7,0,7c31.833,0,63.667,0,95.5,0
					C173.879,200.834,173.879,193.834,169.365,193.834L169.365,193.834z"/>
			</g>
		</g>
		<g>
			<g>
				<path style="fill:#FFFFFF;" d="M169.365,265.834c-31.833,0-63.667,0-95.5,0c-4.514,0-4.514,7,0,7c31.833,0,63.667,0,95.5,0
					C173.879,272.834,173.879,265.834,169.365,265.834L169.365,265.834z"/>
			</g>
		</g>
	</g>
	<g>
		<g>
			<g>
				<path style="fill:#FFFFFF;" d="M128.392,190.377c0.133-0.322,0.851-0.209-0.009-0.209c-0.735,0-1.469,0-2.204,0
					c-2.385,0-4.771,0-7.156,0c-2.286,0-4.572,0-6.858,0c-0.611,0-1.222,0-1.833,0c-0.336,0,0.352,1.024,0.352,0.132
					c0-7.451,0-14.902,0-22.353c0,0.661-1.02,0.553-0.044,0.553c0.735,0,1.469,0,2.204,0c2.386,0,4.771,0,7.156,0
					c2.286,0,4.572,0,6.858,0c0.611,0,1.222,0,1.833,0c0.336,0-0.352-1.026-0.352-0.133c0,7.469,0,14.938,0,22.408
					c0,1.935,3,1.935,3,0c0-4.303,0-8.606,0-12.909c0-2.504,1.377-9.588-0.701-11.665c-0.948-0.949-2.582-0.701-3.78-0.701
					c-2.935,0-5.87,0-8.805,0c-2.923,0-8.913-1.39-10.315,1.993c-0.452,1.09-0.054,3.032-0.054,4.16c0,3.049,0,6.099,0,9.148
					c0,2.503-1.377,9.588,0.701,11.666c0.949,0.949,2.581,0.701,3.78,0.701c2.935,0,5.87,0,8.805,0
					c2.923,0,8.914,1.391,10.315-1.994C132.025,189.387,129.121,188.615,128.392,190.377z"/>
			</g>
		</g>
		<g>
			<g>
				<path style="fill:#FFFFFF;" d="M109.184,162.987c6.885,0,13.77,0,20.655,0c1.935,0,1.935-3,0-3c-6.885,0-13.77,0-20.655,0
					C107.249,159.987,107.249,162.987,109.184,162.987L109.184,162.987z"/>
			</g>
		</g>
	</g>
	<g>
		<g>
			<g>
				<path style="fill:#FFFFFF;" d="M101.047,190.377c0.133-0.322,0.851-0.209-0.009-0.209c-0.735,0-1.469,0-2.204,0
					c-2.385,0-4.771,0-7.156,0c-2.286,0-4.572,0-6.858,0c-0.611,0-1.222,0-1.833,0c-0.336,0,0.352,1.024,0.352,0.132
					c0-7.451,0-14.902,0-22.353c0,0.661-1.02,0.553-0.044,0.553c0.735,0,1.469,0,2.204,0c2.386,0,4.771,0,7.156,0
					c2.286,0,4.572,0,6.858,0c0.611,0,1.222,0,1.833,0c0.336,0-0.352-1.026-0.352-0.133c0,7.469,0,14.938,0,22.408
					c0,1.935,3,1.935,3,0c0-4.303,0-8.606,0-12.909c0-2.504,1.377-9.588-0.701-11.665c-0.948-0.949-2.582-0.701-3.78-0.701
					c-2.935,0-5.87,0-8.805,0c-2.923,0-8.913-1.39-10.315,1.993c-0.452,1.09-0.054,3.032-0.054,4.16c0,3.049,0,6.099,0,9.148
					c0,2.503-1.377,9.588,0.701,11.666c0.949,0.949,2.581,0.701,3.78,0.701c2.935,0,5.87,0,8.805,0
					c2.923,0,8.914,1.391,10.315-1.994C104.68,189.387,101.776,188.615,101.047,190.377z"/>
			</g>
		</g>
		<g>
			<g>
				<path style="fill:#FFFFFF;" d="M81.839,162.987c6.885,0,13.77,0,20.655,0c1.935,0,1.935-3,0-3c-6.885,0-13.77,0-20.655,0
					C79.904,159.987,79.904,162.987,81.839,162.987L81.839,162.987z"/>
			</g>
		</g>
	</g>
	<g>
		<g>
			<g>
				<path style="fill:#FFFFFF;" d="M153.725,190.65c-0.061,0.146-0.121,0.291-0.182,0.438c0.35-0.35,0.699-0.698,1.048-1.048
					c-1.575,0.653-4.492,0.128-6.248,0.128c-1.935,0-5.186,0.594-6.925-0.128c0.349,0.35,0.698,0.698,1.048,1.048
					c-0.791-1.908-0.128-5.521-0.128-7.639c0-2.297-0.732-6.246,0.128-8.318c-0.35,0.349-0.699,0.698-1.048,1.048
					c1.575-0.653,4.491-0.128,6.248-0.128c1.935,0,5.185-0.594,6.925,0.128c-0.349-0.35-0.698-0.699-1.048-1.048
					c0.791,1.907,0.128,5.521,0.128,7.638c0,2.761,0,5.521,0,8.28c0,1.935,3,1.935,3,0c0-2.986,0-5.972,0-8.958
					c0-1.907,0.962-6.837-0.621-8.419c-1.671-1.671-7.025-0.621-9.058-0.621c-2.369,0-6.484-0.972-7.6,1.72
					c-0.332,0.8-0.054,2.187-0.054,3.009c0,2.116,0,4.232,0,6.349c0,1.906-0.962,6.837,0.621,8.419
					c1.671,1.672,7.024,0.621,9.058,0.621c2.369,0,6.485,0.972,7.6-1.721C157.358,189.66,154.454,188.89,153.725,190.65z"/>
			</g>
		</g>
		<g>
			<g>
				<path style="fill:#FFFFFF;" d="M140.838,171.225c4.777,0,9.555,0,14.333,0c1.935,0,1.935-3,0-3c-4.777,0-9.555,0-14.333,0
					C138.904,168.225,138.904,171.225,140.838,171.225L140.838,171.225z"/>
			</g>
		</g>
	</g>
	<g>
		<g>
			<g>
				<path style="fill:#FFFFFF;" d="M160.583,133.722c0.021,3.816-5.51,2.377-8.228,2.377c-1.475,0-0.9-7.913-0.9-8.601
					c0-3.851,0-7.701,0-11.552c0-3.71,1.477-6.334,3.045-9.606c0.779-1.627,1.324-3.422,1.528-5.216
					c0.033-0.285-0.241-2.94-0.08-1.308c0.148,1.5,0.536,2.938,0.988,4.368c1.214,3.839,3.646,6.578,3.646,10.816
					C160.583,121.242,160.583,127.482,160.583,133.722c0,1.935,3,1.935,3,0c0-4.04,0-8.08,0-12.12c0-4.245,0.498-8.786-1.165-12.79
					c-1.119-2.692-2.582-5.027-3.275-7.91c-0.686-2.854,0.009-4.304-3.137-4.722c-2.374-0.316-2.743,1.769-2.816,3.53
					c-0.159,3.802-2.331,6.769-3.789,10.118c-1.438,3.299-0.945,7.314-0.945,10.819c0,4.358,0,8.716,0,13.075
					c0,5.231,2.476,5.377,7.065,5.377c4.81,0,8.093,0.366,8.062-5.377C163.572,131.788,160.572,131.787,160.583,133.722z"/>
			</g>
		</g>
		<g>
			<g>
				<path style="fill:#FFFFFF;" d="M155.062,97.216c0.638,0,1.276,0,1.914,0c1.935,0,1.935-3,0-3c-0.638,0-1.276,0-1.914,0
					C153.127,94.216,153.127,97.216,155.062,97.216L155.062,97.216z"/>
			</g>
		</g>
	</g>
	<g>
		<g>
			<g>
				<path style="fill:#FFFFFF;" d="M142.711,133.722c0.021,3.816-5.509,2.377-8.227,2.377c-1.476,0-0.9-7.913-0.9-8.601
					c0-3.851,0-7.701,0-11.552c0-3.71,1.477-6.334,3.045-9.606c0.779-1.627,1.324-3.422,1.528-5.216
					c0.033-0.285-0.241-2.94-0.08-1.308c0.148,1.5,0.536,2.938,0.988,4.368c1.214,3.839,3.646,6.578,3.646,10.816
					C142.711,121.242,142.711,127.482,142.711,133.722c0,1.935,3,1.935,3,0c0-4.04,0-8.08,0-12.12c0-4.245,0.498-8.786-1.165-12.79
					c-1.119-2.692-2.582-5.027-3.275-7.91c-0.686-2.854,0.009-4.304-3.137-4.722c-2.374-0.316-2.743,1.769-2.816,3.53
					c-0.159,3.802-2.331,6.769-3.789,10.118c-1.438,3.299-0.945,7.314-0.945,10.819c0,4.358,0,8.716,0,13.075
					c0,5.232,2.476,5.377,7.066,5.377c4.81,0,8.092,0.366,8.062-5.377C145.701,131.788,142.701,131.787,142.711,133.722z"/>
			</g>
		</g>
		<g>
			<g>
				<path style="fill:#FFFFFF;" d="M137.191,97.216c0.638,0,1.276,0,1.914,0c1.935,0,1.935-3,0-3c-0.638,0-1.276,0-1.914,0
					C135.256,94.216,135.256,97.216,137.191,97.216L137.191,97.216z"/>
			</g>
		</g>
	</g>
	<g>
		<g>
			<g>
				<path style="fill:#FFFFFF;" d="M90.662,134.827c-0.002,2.021-5.379,2.021-5.381,0c-0.002-1.799,0-3.598,0-5.396
					c0-2.519,0-5.037,0-7.556c0-2.627,1.357-4.415,2.245-6.763c0.485-1.283,0.907-2.598,0.984-3.981
					c-0.841-0.325-1.155-0.19-0.94,0.403c0.246,1.228,0.547,2.325,1.009,3.486c0.943,2.373,2.083,4.187,2.083,6.854
					C90.662,126.192,90.662,130.51,90.662,134.827c0,1.935,3,1.935,3,0c0-5.274,1.367-12.622-0.743-17.609
					c-1.112-2.627-2.26-4.747-2.574-7.673c-0.102-0.944-0.972-1.79-1.965-1.79c-1.038,0-2.394,0.175-2.728,1.391
					c-0.83,3.016-1.24,5.389-2.569,8.269c-1.153,2.498-0.802,5.481-0.802,8.154c0,3.486-0.003,6.972,0.001,10.458
					c0.004,3.332,3.279,3.054,5.689,3.054c3.547,0,5.685-0.164,5.69-4.255C93.665,132.893,90.665,132.893,90.662,134.827z"/>
			</g>
		</g>
		<g>
			<g>
				<path style="fill:#FFFFFF;" d="M87.31,109.323c0.441,0,0.882,0,1.323,0c1.935,0,1.935-3,0-3c-0.441,0-0.882,0-1.323,0
					C85.375,106.323,85.375,109.323,87.31,109.323L87.31,109.323z"/>
			</g>
		</g>
	</g>
	<g>
		<g>
			<g>
				<path style="fill:#FFFFFF;" d="M103.488,134.827c-0.002,2.021-5.379,2.021-5.381,0c-0.002-1.799,0-3.598,0-5.396
					c0-2.519,0-5.037,0-7.556c0-2.627,1.357-4.415,2.245-6.763c0.485-1.283,0.907-2.598,0.984-3.981
					c-0.841-0.325-1.155-0.19-0.94,0.403c0.246,1.228,0.547,2.325,1.009,3.486c0.943,2.373,2.083,4.187,2.083,6.854
					C103.488,126.192,103.488,130.51,103.488,134.827c0,1.935,3,1.935,3,0c0-5.274,1.367-12.622-0.743-17.609
					c-1.112-2.627-2.26-4.747-2.574-7.673c-0.102-0.944-0.972-1.79-1.965-1.79c-1.038,0-2.394,0.175-2.728,1.391
					c-0.83,3.016-1.24,5.389-2.569,8.269c-1.153,2.498-0.802,5.481-0.802,8.154c0,3.486-0.003,6.972,0.001,10.458
					c0.004,3.332,3.279,3.054,5.689,3.054c3.547,0,5.685-0.164,5.69-4.255C106.491,132.893,103.491,132.893,103.488,134.827z"/>
			</g>
		</g>
		<g>
			<g>
				<path style="fill:#FFFFFF;" d="M100.136,109.323c0.441,0,0.882,0,1.323,0c1.935,0,1.935-3,0-3c-0.441,0-0.882,0-1.323,0
					C98.202,106.323,98.202,109.323,100.136,109.323L100.136,109.323z"/>
			</g>
		</g>
	</g>
	<g>
		<g>
			<path style="fill:#FFFFFF;" d="M287.543,178.609c-23.618,0-47.237,0-70.855,0c-4.514,0-4.514,7,0,7c23.618,0,47.237,0,70.855,0
				C292.057,185.609,292.057,178.609,287.543,178.609L287.543,178.609z"/>
		</g>
	</g>
	<g>
		<g>
			<path style="fill:#FFFFFF;" d="M287.543,276.168c-23.618,0-47.237,0-70.855,0c-4.514,0-4.514,7,0,7c23.618,0,47.237,0,70.855,0
				C292.057,283.168,292.057,276.168,287.543,276.168L287.543,276.168z"/>
		</g>
	</g>
	<g>
		<g>
			<path style="fill:#FFFFFF;" d="M216.688,202.501c4.514,0,4.514-7,0-7S212.174,202.501,216.688,202.501L216.688,202.501z"/>
		</g>
	</g>
	<g>
		<g>
			<path style="fill:#FFFFFF;" d="M287.543,202.501c4.514,0,4.514-7,0-7S283.029,202.501,287.543,202.501L287.543,202.501z"/>
		</g>
	</g>
	<g>
		<g>
			<path style="fill:#FFFFFF;" d="M115,259.885c-0.544,4.727-5.888,3.738-8.728,3.738c-4.087,0-8.174,0-12.262,0
				c-4.988,0-12.235,1.27-12.235-5.933c0-13.525,0-27.051,0-40.576c0-7.174,8.53-5.491,13.184-5.491
				c2.969,0,20.041-2.416,20.041,3.768c0,12.696,0,25.394,0,38.09C115,255.615,115,257.75,115,259.885c0,1.935,3,1.935,3,0
				c0-12.46,0-24.919,0-37.379c0-3.764,1.09-10.115-2.705-12.527c-4.508-2.866-12.366-1.355-17.402-1.355
				c-4.03,0-13.402-1.724-16.716,1.59c-3.383,3.383-2.401,8.667-2.401,13.063c0,7.854,0,15.709,0,23.563
				c0,4.692-0.4,9.575,0.138,14.247c0.929,8.066,14.77,5.537,19.969,5.537c6.547,0,18.062,2.425,19.117-6.738
				C118.221,257.965,115.219,257.986,115,259.885z"/>
		</g>
	</g>
	<g>
		<g>
			<path style="fill:#FFFFFF;" d="M129.733,262.793c-4.272-0.689-2.452-11.412-2.452-14.16c0-1.78,0-3.562,0-5.342
				c0-2.691,3.62-2.124,5.069-2.124c9.048,0,18.096,0,27.144,0c3.648,0,2.095,13.056,2.095,14.99c0,1.483,0.785,6.582-2.095,6.582
				c-1.207,0-2.413,0-3.619,0c-8.847,0-17.694,0-26.541,0c-1.935,0-1.935,3,0,3c5.034,0,10.067,0,15.101,0
				c4.974,0,10.575,0.741,15.5-0.054c6.229-1.005,4.654-8.67,4.654-13.247c0-4.681,1.788-13.179-4.654-14.218
				c-4.615-0.744-9.856-0.054-14.516-0.054c-5.362,0-10.723,0-16.085,0c-6.646,0-5.053,9.139-5.053,13.301
				c0,4.681-1.788,13.179,4.654,14.218C130.827,265.991,131.639,263.101,129.733,262.793z"/>
		</g>
	</g>
	<g>
		<g>
			<path style="fill:#FFFFFF;" d="M132.733,238.221c-4.272-0.689-2.452-11.412-2.452-14.16c0-1.78,0-3.562,0-5.342
				c0-2.691,3.62-2.124,5.069-2.124c9.048,0,18.096,0,27.144,0c3.648,0,2.095,13.056,2.095,14.99c0,1.483,0.785,6.582-2.095,6.582
				c-1.207,0-2.413,0-3.619,0c-8.847,0-17.694,0-26.541,0c-1.935,0-1.935,3,0,3c5.034,0,10.067,0,15.101,0
				c4.974,0,10.575,0.741,15.5-0.054c6.229-1.005,4.654-8.67,4.654-13.247c0-4.681,1.788-13.179-4.654-14.218
				c-4.615-0.744-9.856-0.054-14.516-0.054c-5.362,0-10.723,0-16.085,0c-6.646,0-5.053,9.139-5.053,13.301
				c0,4.681-1.788,13.179,4.654,14.218C133.827,241.419,134.639,238.528,132.733,238.221z"/>
		</g>
	</g>
	<g>
		<g>
			<path style="fill:#FFFFFF;" d="M246.219,198.24c-0.27-4.998-3.836-8.564-8.834-8.834c-4.987-0.269-8.586,4.241-8.833,8.834
				c-0.269,4.986,4.24,8.587,8.833,8.834C242.372,207.343,245.972,202.833,246.219,198.24c0.104-1.934-2.896-1.924-3,0
				c-0.405,7.52-11.262,7.52-11.667,0c-0.405-7.524,11.264-7.484,11.667,0C243.322,200.164,246.323,200.174,246.219,198.24z"/>
		</g>
	</g>
	<g>
		<g>
			<path style="fill:#FFFFFF;" d="M265.238,198.24c-0.27-4.997-3.835-8.564-8.833-8.834c-4.987-0.269-8.586,4.241-8.833,8.834
				c-0.269,4.986,4.24,8.587,8.833,8.834C261.392,207.343,264.991,202.832,265.238,198.24c0.104-1.934-2.896-1.924-3,0
				c-0.405,7.52-11.261,7.52-11.666,0c-0.405-7.523,11.263-7.484,11.666,0C262.342,200.164,265.343,200.174,265.238,198.24z"/>
		</g>
	</g>
	<g>
		<g>
			<path style="fill:#FFFFFF;" d="M284.26,198.24c-0.27-4.998-3.836-8.564-8.834-8.834c-4.987-0.269-8.586,4.241-8.833,8.834
				c-0.269,4.986,4.24,8.587,8.833,8.834C280.413,207.343,284.013,202.833,284.26,198.24c0.104-1.934-2.896-1.924-3,0
				c-0.405,7.52-11.262,7.52-11.667,0c-0.405-7.524,11.264-7.484,11.667,0C281.363,200.164,284.364,200.174,284.26,198.24z"/>
		</g>
	</g>
	<g>
		<g>
			<path style="fill:#FFFFFF;" d="M237.393,220.461c-0.27-4.997-3.836-8.563-8.833-8.833c-4.986-0.269-8.586,4.24-8.833,8.833
				c-0.269,4.986,4.24,8.587,8.833,8.834C233.547,229.563,237.146,225.054,237.393,220.461c0.104-1.934-2.896-1.924-3,0
				c-0.405,7.52-11.261,7.52-11.666,0c-0.405-7.522,11.263-7.483,11.666,0C234.496,222.385,237.497,222.395,237.393,220.461z"/>
		</g>
	</g>
	<g>
		<g>
			<path style="fill:#FFFFFF;" d="M256.414,220.461c-0.27-4.997-3.837-8.563-8.834-8.833c-4.986-0.269-8.586,4.24-8.833,8.833
				c-0.269,4.986,4.24,8.587,8.833,8.834C252.567,229.563,256.167,225.054,256.414,220.461c0.104-1.934-2.896-1.924-3,0
				c-0.405,7.52-11.262,7.52-11.667,0c-0.405-7.522,11.264-7.482,11.667,0C253.518,222.385,256.519,222.395,256.414,220.461z"/>
		</g>
	</g>
	<g>
		<g>
			<path style="fill:#FFFFFF;" d="M275.434,220.461c-0.27-4.997-3.836-8.563-8.833-8.833c-4.986-0.269-8.586,4.24-8.833,8.833
				c-0.269,4.986,4.24,8.587,8.833,8.834C271.588,229.563,275.187,225.054,275.434,220.461c0.104-1.934-2.896-1.924-3,0
				c-0.405,7.52-11.261,7.52-11.666,0c-0.405-7.522,11.263-7.483,11.666,0C272.537,222.385,275.538,222.395,275.434,220.461z"/>
		</g>
	</g>
	<g>
		<g>
			<path style="fill:#FFFFFF;" d="M246.797,242.541c-0.27-4.998-3.836-8.564-8.834-8.834c-4.986-0.269-8.585,4.242-8.832,8.834
				c-0.269,4.986,4.24,8.586,8.832,8.833C242.949,251.643,246.55,247.134,246.797,242.541c0.104-1.934-2.896-1.924-3,0
				c-0.405,7.519-11.261,7.519-11.666,0c-0.405-7.524,11.263-7.484,11.666,0C243.9,244.465,246.901,244.475,246.797,242.541z"/>
		</g>
	</g>
	<g>
		<g>
			<path style="fill:#FFFFFF;" d="M265.817,242.541c-0.27-4.997-3.835-8.564-8.833-8.834c-4.987-0.269-8.586,4.241-8.833,8.834
				c-0.269,4.986,4.24,8.586,8.833,8.833C261.971,251.643,265.57,247.134,265.817,242.541c0.104-1.934-2.896-1.924-3,0
				c-0.405,7.519-11.261,7.519-11.666,0c-0.405-7.523,11.263-7.484,11.666,0C262.921,244.465,265.922,244.475,265.817,242.541z"/>
		</g>
	</g>
	<g>
		<g>
			<path style="fill:#FFFFFF;" d="M284.838,242.541c-0.27-4.997-3.835-8.564-8.833-8.834c-4.987-0.269-8.586,4.241-8.833,8.834
				c-0.269,4.986,4.24,8.586,8.833,8.833C280.991,251.643,284.591,247.134,284.838,242.541c0.104-1.934-2.896-1.924-3,0
				c-0.405,7.519-11.261,7.519-11.666,0c-0.405-7.523,11.263-7.484,11.666,0C281.941,244.465,284.942,244.475,284.838,242.541z"/>
		</g>
	</g>
	<g>
		<g>
			<path style="fill:#FFFFFF;" d="M237.972,264.762c-0.27-4.997-3.836-8.564-8.833-8.834c-4.987-0.269-8.587,4.241-8.834,8.834
				c-0.269,4.987,4.241,8.587,8.834,8.834C234.126,273.864,237.725,269.354,237.972,264.762c0.104-1.934-2.896-1.924-3,0
				c-0.405,7.52-11.262,7.52-11.667,0c-0.405-7.523,11.264-7.484,11.667,0C235.075,266.686,238.076,266.695,237.972,264.762z"/>
		</g>
	</g>
	<g>
		<g>
			<path style="fill:#FFFFFF;" d="M256.992,264.762c-0.27-4.998-3.836-8.564-8.834-8.834c-4.986-0.269-8.585,4.242-8.832,8.834
				c-0.269,4.986,4.239,8.587,8.832,8.834C253.146,273.864,256.745,269.354,256.992,264.762c0.104-1.934-2.896-1.924-3,0
				c-0.405,7.52-11.261,7.52-11.666,0c-0.405-7.523,11.263-7.483,11.666,0C254.096,266.686,257.097,266.695,256.992,264.762z"/>
		</g>
	</g>
	<g>
		<g>
			<path style="fill:#FFFFFF;" d="M276.013,264.762c-0.27-4.997-3.836-8.564-8.833-8.834c-4.987-0.269-8.587,4.241-8.834,8.834
				c-0.269,4.987,4.241,8.587,8.834,8.834C272.167,273.864,275.766,269.354,276.013,264.762c0.104-1.934-2.896-1.924-3,0
				c-0.405,7.52-11.262,7.52-11.667,0c-0.405-7.523,11.264-7.484,11.667,0C273.116,266.686,276.117,266.695,276.013,264.762z"/>
		</g>
	</g>
	<g>
		<g>
			<path style="fill:#FFFFFF;" d="M278.105,171.974c-0.14,0.337-0.279,0.674-0.419,1.011c0.814-0.814,1.63-1.629,2.444-2.444
				c-1.152,0.477-3.008,0.293-4.477,0.293c-3.616,0-7.231,0-10.848,0c-3.367,0-6.734,0-10.103,0c-1.658,0-3.89,0.258-5.223-0.293
				c0.815,0.815,1.63,1.63,2.445,2.444c-1.426-3.441-0.294-9.964-0.294-13.872c0-4.17-1.232-11.185,0.294-14.868
				c-0.815,0.814-1.63,1.629-2.445,2.444c1.153-0.477,3.009-0.293,4.478-0.293c3.616,0,7.231,0,10.848,0c3.367,0,6.734,0,10.103,0
				c1.658,0,3.89-0.258,5.222,0.293c-0.814-0.815-1.63-1.63-2.444-2.444c1.426,3.439,0.294,9.965,0.294,13.872
				c0,4.93,0,9.859,0,14.789c0,4.514,7,4.514,7,0c0-5.917,0-11.833,0-17.749c0-5.236,1.849-13.214-3.999-15.635
				c-1.427-0.59-3.864-0.125-5.327-0.125c-3.947,0-7.895,0-11.841,0c-3.519,0-7.037,0-10.555,0c-2.224,0-4.463-0.282-6.474,0.896
				c-4.056,2.375-2.152,13.198-2.152,16.83c0,3.709,0,7.419,0,11.129c0,2.199-0.311,4.533,0.544,6.595
				c1.992,4.813,11.692,2.988,15.693,2.988c6.338,0,12.675,0,19.013,0c2.727,0,4.038-1.745,4.973-3.999
				C286.584,169.666,279.809,167.866,278.105,171.974z"/>
		</g>
	</g>
	<g>
		<g>
			<path style="fill:#FFFFFF;" d="M279.966,133.775c0.595-1.016,2.3-0.667,0.194-0.667c-1.169,0-2.338,0-3.507,0
				c-3.936,0-7.871,0-11.807,0s-7.871,0-11.807,0c-1.169,0-2.338,0-3.507,0c-2.832,0,0.67,2.679,0.67,1.073
				c0,2.219-3.389,1.958-0.67,1.958c1.419,0,2.837,0,4.256,0c4.019,0,8.037,0,12.056,0c3.838,0,7.677,0,11.516,0
				c1.063,0,2.127,0,3.19,0c2.246,0-1.063-3.538-1.063-0.597c0,4.514,7,4.514,7,0c0-4.279-2.066-6.403-6.328-6.403
				c-4.44,0-8.881,0-13.321,0c-5.056,0-10.112,0-15.168,0c-3.213,0-7.256-0.316-8.343,3.636c-2.75,10,13.328,7.334,18.538,7.334
				c5.165,0,10.329,0,15.494,0c3.293,0,6.72,0.499,8.65-2.8C288.295,133.404,282.244,129.883,279.966,133.775z"/>
		</g>
	</g>
	<g>
		<g>
			<path style="fill:#FFFFFF;" d="M216.688,211.167c23.618,0,47.237,0,70.855,0c1.935,0,1.935-3,0-3c-23.618,0-47.237,0-70.855,0
				C214.753,208.167,214.753,211.167,216.688,211.167L216.688,211.167z"/>
		</g>
	</g>
	<g>
		<g>
			<path style="fill:#FFFFFF;" d="M216.486,233.167c23.618,0,47.237,0,70.855,0c1.935,0,1.935-3,0-3c-23.618,0-47.237,0-70.855,0
				C214.552,230.167,214.552,233.167,216.486,233.167L216.486,233.167z"/>
		</g>
	</g>
	<g>
		<g>
			<path style="fill:#FFFFFF;" d="M216.688,254.834c23.618,0,47.237,0,70.855,0c1.935,0,1.935-3,0-3c-23.618,0-47.237,0-70.855,0
				C214.753,251.834,214.753,254.834,216.688,254.834L216.688,254.834z"/>
		</g>
	</g>
</g>
<g id="Ebene_1">
</g>
</svg>
