<?xml version="1.0" encoding="iso-8859-1"?>
<!-- Generator: Adobe Illustrator 16.0.0, SVG Export Plug-In . SVG Version: 6.00 Build 0)  -->
<!DOCTYPE svg PUBLIC "-//W3C//DTD SVG 1.1 Tiny//EN" "http://www.w3.org/Graphics/SVG/1.1/DTD/svg11-tiny.dtd">
<svg version="1.1" baseProfile="tiny" id="scene_x5F_making_x5F_love_x5F_clean"
	 xmlns="http://www.w3.org/2000/svg" xmlns:xlink="http://www.w3.org/1999/xlink" x="0px" y="0px" width="361px" height="361px"
	 viewBox="0 0 361 361" xml:space="preserve">
<g display="none">
	<path display="inline" fill="#FFFFFF" d="M277.132,159c4.379-6.813,7.414-17.16,7.414-25.893c0-19.543-15.842-35.385-35.385-35.385
		c-19.542,0-35.385,15.842-35.385,35.385c0,0.007,0,0.015,0,0.022h0c0-0.007,0-0.015,0-0.022c0-19.543-15.842-35.385-35.385-35.385
		c-19.542,0-35.385,15.842-35.385,35.385c0,8.855,3.164,19.264,7.636,26.15c13.686,21.073,53.238,76.003,63.134,76.003
		C222.879,235.259,263.5,180.208,277.132,159z"/>
	<g display="inline">
		<path fill="#FFFFFF" d="M281.449,161.523c7.452-12.162,10.472-27.981,5.855-41.68C283.2,107.666,273.187,98.59,261.17,94.54
			c-25.083-8.455-52.981,12.182-52.395,38.588c1.667-1.667,3.333-3.333,5-5h0c1.667,1.667,3.333,3.333,5,5
			c0-22.782-19.257-40.814-41.775-40.38c-23.708,0.457-40.924,22.269-38.71,45.164c1.958,20.244,16.705,37.115,28.285,52.938
			c10.822,14.788,21.896,30.309,35.406,42.801c4.844,4.479,10.451,8.653,16.982,4.971c7.535-4.248,13.567-12.226,19.068-18.679
			C253.712,201.544,268.343,181.839,281.449,161.523c3.507-5.437-5.153-10.445-8.635-5.047
			c-9.931,15.394-20.879,30.211-32.216,44.592c-5.659,7.178-11.48,14.258-17.756,20.908c-2.156,2.284-4.398,4.494-6.801,6.519
			c-0.587,0.496-1.294,0.985-2.125,1.492c-0.197,0.12-1.492,0.689-0.27,0.207c-1.204,0.476,0.155,0.079,0.843,0.181
			c-0.929-0.138-0.108,0.146-1.464-0.655c-0.937-0.553-1.537-1.036-2.346-1.708c-2.771-2.302-5.273-4.936-7.725-7.568
			c-6.406-6.878-12.294-14.264-18.033-21.701c-6.204-8.04-12.193-16.247-18.054-24.54c-4.888-6.917-10.24-13.881-14.144-21.417
			c-9.657-18.641-3.8-42.658,17.589-48.979c19.052-5.63,38.463,9.824,38.463,29.322c0,2.726,2.274,5,5,5h0c2.68,0,5.061-2.274,5-5
			c-0.461-20.768,20.654-34.584,39.736-28.945c9.292,2.746,16.527,10.538,19.572,19.572c3.599,10.676,0.454,23.38-5.27,32.721
			C269.436,161.99,278.087,167.01,281.449,161.523z"/>
	</g>
</g>
<g display="none">
	<path display="inline" fill="#FFFFFF" d="M210.679,216.189c7.452-12.162,10.472-27.981,5.855-41.68
		c-4.104-12.177-14.117-21.253-26.134-25.303c-25.083-8.455-52.981,12.182-52.395,38.588c1.667-1.667,3.333-3.333,5-5h0
		c1.667,1.667,3.333,3.333,5,5c0-22.782-19.257-40.814-41.775-40.38c-23.708,0.457-40.924,22.269-38.71,45.164
		c1.958,20.244,16.705,37.115,28.285,52.938c10.822,14.788,21.896,30.309,35.406,42.801c4.844,4.479,10.451,8.653,16.982,4.971
		c7.535-4.248,13.567-12.226,19.068-18.679C182.942,256.211,197.572,236.506,210.679,216.189c3.507-5.437-5.153-10.445-8.635-5.047
		c-9.931,15.394-20.879,30.211-32.216,44.592c-5.659,7.178-11.48,14.258-17.756,20.908c-2.156,2.284-4.398,4.494-6.801,6.519
		c-0.587,0.496-1.294,0.984-2.125,1.492c-0.197,0.12-1.492,0.689-0.27,0.207c-1.204,0.476,0.155,0.079,0.843,0.181
		c-0.929-0.138-0.108,0.146-1.464-0.655c-0.937-0.553-1.537-1.036-2.346-1.708c-2.771-2.302-5.273-4.936-7.725-7.568
		c-6.406-6.878-12.294-14.264-18.033-21.701c-6.204-8.04-12.193-16.247-18.054-24.54c-4.888-6.917-10.24-13.881-14.144-21.417
		c-9.657-18.641-3.8-42.659,17.589-48.979c19.052-5.63,38.463,9.824,38.463,29.322c0,2.726,2.274,5,5,5h0c2.68,0,5.061-2.274,5-5
		c-0.461-20.768,20.654-34.584,39.736-28.945c9.292,2.746,16.527,10.538,19.572,19.572c3.599,10.676,0.454,23.38-5.27,32.721
		C198.665,216.657,207.316,221.677,210.679,216.189z"/>
</g>
<g>
	<path fill="#FFFFFF" d="M249.161,97.721c-19.542,0-35.385,15.842-35.385,35.385c0,0.007,0,0.015,0,0.022h0c0-0.007,0-0.015,0-0.022
		c0-19.543-15.842-35.385-35.385-35.385c-19.542,0-35.385,15.842-35.385,35.385c0,8.855,3.164,19.264,7.636,26.15
		c0.75,1.154,1.581,2.416,2.477,3.759c6.422-6.555,15.37-10.627,25.272-10.627c19.543,0,35.385,15.842,35.385,35.385
		c0,8.733-3.035,19.08-7.414,25.893c-1.857,2.889-4.217,6.409-6.927,10.328c6.324,6.83,11.53,11.265,14.341,11.265
		c9.104,0,49.724-55.051,63.356-76.26c4.379-6.813,7.414-17.16,7.414-25.893C284.546,113.563,268.704,97.721,249.161,97.721z"/>
	<g>
		<path fill="#FFFFFF" d="M249.161,92.721c-21.619,0.417-40.88,18.103-40.385,40.407c1.667-1.667,3.333-3.333,5-5h0
			c1.667,1.667,3.333,3.333,5,5c0-27.512-27.789-46.882-53.648-38.166c-12.574,4.238-21.962,14.83-25.679,27.407
			c-4.382,14.829,1.148,30.822,9.353,43.168c1.785,2.686,5.45,3.361,7.853,1.012c13.445-13.147,35.514-11.753,46.578,3.693
			c5.074,7.083,6.343,15.729,4.978,24.193c-1.681,10.424-7.241,18.542-13.093,27.034c-1.292,1.875-0.674,4.507,0.782,6.059
			c4.515,4.813,12.88,15.28,20.748,12.172c5.251-2.075,9.447-6.657,13.267-10.654c12.823-13.417,23.99-28.577,34.909-43.546
			c11.637-15.953,24.309-31.692,24.724-52.395C289.992,110.809,270.799,93.138,249.161,92.721c-6.452-0.125-6.44,9.876,0,10
			c19.827,0.382,32.9,17.947,29.819,37.049c-2.477,15.357-13.888,28.437-22.792,40.684c-9.297,12.787-18.922,25.405-29.416,37.24
			c-3.392,3.826-7.297,8.227-11.147,11.146c-0.667,0.505-1.37,0.956-2.098,1.366c-0.118,0.066-0.707,0.106,0.249,0.052
			c-0.709,0.04-2.853-2.052-3.391-2.5c-2.664-2.215-5.049-4.779-7.415-7.301c0.26,2.02,0.521,4.04,0.782,6.059
			c7.432-10.783,13.054-20.785,14.75-33.999c1.419-11.064-2.251-21.73-8.964-30.413c-14.664-18.969-43.474-18.741-59.955-2.626
			c2.618,0.337,5.235,0.675,7.853,1.012c-6.417-9.657-11.023-21.038-8.956-32.858c1.787-10.219,8.834-18.24,18.059-22.553
			c19.603-9.167,42.237,7.295,42.237,28.048c0,2.726,2.274,5,5,5h0c2.68,0,5.061-2.274,5-5
			c-0.374-16.825,14.076-30.093,30.385-30.407C255.601,102.597,255.613,92.597,249.161,92.721z"/>
	</g>
</g>
<g>
	<path fill="#FFFFFF" d="M210.679,216.471c7.452-12.162,10.472-27.981,5.855-41.68c-4.104-12.177-14.117-21.253-26.134-25.303
		c-25.083-8.455-52.981,12.182-52.395,38.588c1.667-1.667,3.333-3.333,5-5h0c1.667,1.667,3.333,3.333,5,5
		c0-22.782-19.257-40.814-41.775-40.38c-23.708,0.457-40.924,22.269-38.71,45.164c1.958,20.244,16.705,37.114,28.285,52.938
		c10.822,14.788,21.896,30.309,35.406,42.801c4.844,4.479,10.451,8.653,16.982,4.971c7.535-4.248,13.567-12.225,19.068-18.679
		C182.942,256.492,197.573,236.787,210.679,216.471c3.507-5.437-5.153-10.444-8.635-5.047
		c-9.931,15.394-20.879,30.211-32.216,44.593c-5.659,7.178-11.48,14.258-17.756,20.908c-2.156,2.283-4.398,4.493-6.801,6.519
		c-0.587,0.495-1.294,0.984-2.125,1.491c-0.197,0.121-1.492,0.689-0.27,0.207c-1.204,0.476,0.155,0.079,0.843,0.182
		c-0.929-0.139-0.108,0.145-1.464-0.656c-0.937-0.553-1.537-1.035-2.346-1.707c-2.771-2.303-5.273-4.937-7.725-7.568
		c-6.406-6.879-12.294-14.264-18.033-21.701c-6.204-8.04-12.193-16.247-18.054-24.54c-4.888-6.917-10.24-13.882-14.144-21.417
		c-9.657-18.641-3.8-42.658,17.589-48.979c19.052-5.63,38.463,9.824,38.463,29.322c0,2.726,2.274,5,5,5h0c2.68,0,5.061-2.274,5-5
		c-0.461-20.768,20.654-34.584,39.736-28.945c9.292,2.746,16.527,10.538,19.572,19.572c3.599,10.676,0.454,23.38-5.27,32.721
		C198.666,216.938,207.317,221.958,210.679,216.471z"/>
</g>
</svg>
