<?xml version="1.0" encoding="iso-8859-1"?>
<!-- Generator: Adobe Illustrator 16.0.0, SVG Export Plug-In . SVG Version: 6.00 Build 0)  -->
<!DOCTYPE svg PUBLIC "-//W3C//DTD SVG 1.1 Tiny//EN" "http://www.w3.org/Graphics/SVG/1.1/DTD/svg11-tiny.dtd">
<svg version="1.1" baseProfile="tiny" id="scene_x5F_stairs"
	 xmlns="http://www.w3.org/2000/svg" xmlns:xlink="http://www.w3.org/1999/xlink" x="0px" y="0px" width="361px" height="361px"
	 viewBox="0 0 361 361" xml:space="preserve">
<g>
	<g>
		<path fill="#FFFFFF" d="M74.594,294.047c13.25,0,26.499,0,39.748,0c9.687,0,9.772-15.004,0.108-15.004c-13.25,0-26.499,0-39.748,0
			C65.016,279.043,64.931,294.047,74.594,294.047L74.594,294.047z"/>
	</g>
	<g>
		<path fill="#FFFFFF" d="M108.245,272.047c13.249,0,26.498,0,39.747,0c9.687,0,9.772-15.003,0.108-15.003
			c-13.249,0-26.498,0-39.747,0C98.667,257.043,98.582,272.047,108.245,272.047L108.245,272.047z"/>
	</g>
	<g>
		<path fill="#FFFFFF" d="M141.895,250.046c13.25,0,26.499,0,39.748,0c9.687,0,9.772-15.003,0.108-15.003
			c-13.25,0-26.499,0-39.748,0C132.317,235.043,132.231,250.046,141.895,250.046L141.895,250.046z"/>
	</g>
	<g>
		<path fill="#FFFFFF" d="M175.546,228.046c13.25,0,26.499,0,39.748,0c9.687,0,9.772-15.003,0.108-15.003
			c-13.25,0-26.499,0-39.748,0C165.968,213.043,165.882,228.046,175.546,228.046L175.546,228.046z"/>
	</g>
	<g>
		<path fill="#FFFFFF" d="M209.196,206.046c13.249,0,26.498,0,39.747,0c9.687,0,9.772-15.003,0.108-15.003
			c-13.249,0-26.498,0-39.747,0C199.618,191.043,199.533,206.046,209.196,206.046L209.196,206.046z"/>
	</g>
	<g>
		<path fill="#FFFFFF" d="M242.847,184.046c13.25,0,26.499,0,39.748,0c9.687,0,9.772-15.003,0.108-15.003
			c-13.25,0-26.499,0-39.748,0C233.269,169.043,233.183,184.046,242.847,184.046L242.847,184.046z"/>
	</g>
</g>
</svg>
