<?xml version="1.0" encoding="iso-8859-1"?>
<!-- Generator: Adobe Illustrator 16.0.0, SVG Export Plug-In . SVG Version: 6.00 Build 0)  -->
<!DOCTYPE svg PUBLIC "-//W3C//DTD SVG 1.1 Tiny//EN" "http://www.w3.org/Graphics/SVG/1.1/DTD/svg11-tiny.dtd">
<svg version="1.1" baseProfile="tiny" id="scene_x5F_bath"
	 xmlns="http://www.w3.org/2000/svg" xmlns:xlink="http://www.w3.org/1999/xlink" x="0px" y="0px" width="361px" height="361px"
	 viewBox="0 0 361 361" xml:space="preserve">
<g>
	<path fill="#FFFFFF" d="M242.468,127.388c13.64,3.655,27.28,7.31,40.92,10.964c6.237,1.671,8.881-7.975,2.658-9.643
		c-13.64-3.655-27.28-7.31-40.92-10.964C238.889,116.074,236.245,125.721,242.468,127.388L242.468,127.388z"/>
</g>
<g>
	<path fill="#FFFFFF" d="M238.917,121.459c-1.21,4.515-2.42,9.03-3.629,13.545c-1.671,6.237,7.975,8.881,9.643,2.658
		c1.21-4.515,2.42-9.03,3.629-13.545C250.231,117.88,240.584,115.236,238.917,121.459L238.917,121.459z"/>
</g>
<g>
	<path fill="#FFFFFF" d="M216.683,137.328c14.157,3.793,28.313,7.587,42.471,11.38c6.237,1.671,8.881-7.975,2.658-9.643
		c-14.157-3.793-28.313-7.587-42.471-11.38C213.104,126.014,210.46,135.66,216.683,137.328L216.683,137.328z"/>
</g>
<g>
	<path fill="#FFFFFF" d="M213.054,131.784c-0.575,2.146-1.15,4.293-1.725,6.44c-0.705,2.631,0.853,5.424,3.492,6.15
		c2.613,0.719,5.446-0.861,6.15-3.492c0.575-2.146,1.15-4.293,1.725-6.44c0.705-2.631-0.853-5.424-3.492-6.15
		C216.591,127.573,213.758,129.153,213.054,131.784L213.054,131.784z"/>
</g>
<g>
	<path fill="#FFFFFF" d="M255.524,143.558c-0.575,2.146-1.15,4.293-1.726,6.44c-0.705,2.631,0.853,5.424,3.492,6.15
		c2.613,0.719,5.445-0.861,6.15-3.492c0.575-2.146,1.15-4.293,1.726-6.44c0.705-2.631-0.853-5.424-3.492-6.15
		C259.062,139.347,256.229,140.926,255.524,143.558L255.524,143.558z"/>
</g>
<g>
	<path fill="#FFFFFF" d="M239.552,169.555c-1.297,4.841-2.593,9.681-3.89,14.521c-1.169,4.367,5.583,6.217,6.75,1.861
		c1.297-4.841,2.593-9.681,3.89-14.521C247.472,167.05,240.719,165.199,239.552,169.555L239.552,169.555z"/>
</g>
<g>
	<path fill="#FFFFFF" d="M230.539,156.824c-1.101,4.11-2.202,8.221-3.303,12.331c-1.169,4.367,5.583,6.217,6.75,1.861
		c1.101-4.11,2.202-8.221,3.303-12.331C238.458,154.319,231.706,152.468,230.539,156.824L230.539,156.824z"/>
</g>
<g>
	<path fill="#FFFFFF" d="M224.07,180.972c-1.833,6.841-3.665,13.682-5.498,20.523c-1.169,4.367,5.583,6.217,6.75,1.861
		c1.833-6.841,3.665-13.682,5.498-20.523C231.99,178.466,225.237,176.616,224.07,180.972L224.07,180.972z"/>
</g>
<g>
	<path fill="#FFFFFF" d="M216.369,163.345c-1.296,4.841-2.593,9.682-3.89,14.522c-1.169,4.367,5.583,6.217,6.75,1.861
		c1.296-4.841,2.593-9.682,3.89-14.522C224.289,160.839,217.536,158.989,216.369,163.345L216.369,163.345z"/>
</g>
<g>
	<path fill="#FFFFFF" d="M209.48,189.062c-1.833,6.841-3.665,13.682-5.498,20.523c-1.169,4.367,5.583,6.217,6.75,1.861
		c1.833-6.841,3.665-13.682,5.498-20.523C217.4,186.556,210.647,184.706,209.48,189.062L209.48,189.062z"/>
</g>
<g>
	<path fill="#FFFFFF" d="M233.262,194.515c-1.833,6.841-3.665,13.682-5.498,20.523c-1.169,4.367,5.583,6.217,6.75,1.861
		c1.833-6.841,3.665-13.682,5.498-20.523C241.181,192.009,234.429,190.159,233.262,194.515L233.262,194.515z"/>
</g>
<g>
	<path fill="#FFFFFF" d="M248.859,182.052c-1.345,5.022-2.69,10.045-4.036,15.067c-1.169,4.367,5.583,6.217,6.75,1.861
		c1.345-5.022,2.69-10.045,4.036-15.067C256.779,179.547,250.026,177.696,248.859,182.052L248.859,182.052z"/>
</g>
<g>
	<path fill="#FFFFFF" d="M241.169,210.495c-0.406,1.515-0.811,3.029-1.217,4.543c-0.493,1.842,0.597,3.797,2.444,4.306
		c1.829,0.503,3.813-0.603,4.306-2.444c0.406-1.515,0.811-3.029,1.217-4.543c0.493-1.842-0.597-3.797-2.444-4.306
		C243.646,207.547,241.663,208.653,241.169,210.495L241.169,210.495z"/>
</g>
<g>
	<path fill="#FFFFFF" d="M202.201,169.25c-1.345,5.022-2.691,10.044-4.036,15.066c-1.169,4.367,5.583,6.217,6.75,1.861
		c1.345-5.022,2.691-10.044,4.036-15.066C210.121,166.744,203.368,164.894,202.201,169.25L202.201,169.25z"/>
</g>
<g>
	<path fill="#FFFFFF" d="M194.539,197.589c-1.549,5.784-3.099,11.568-4.648,17.352c-1.17,4.367,5.583,6.217,6.75,1.861
		c1.549-5.784,3.099-11.568,4.648-17.352C202.458,195.083,195.706,193.233,194.539,197.589L194.539,197.589z"/>
</g>
<g>
	<path fill="#FFFFFF" d="M244.078,153.396c-0.582,2.172-1.164,4.345-1.746,6.517c-1.169,4.367,5.583,6.217,6.75,1.861
		c0.582-2.172,1.164-4.345,1.746-6.517C251.997,150.891,245.245,149.04,244.078,153.396L244.078,153.396z"/>
</g>
<g>
	<path fill="#FFFFFF" d="M221.322,147.213c-0.582,2.172-1.164,4.345-1.746,6.517c-1.169,4.367,5.583,6.217,6.75,1.861
		c0.582-2.172,1.164-4.345,1.746-6.517C229.241,144.708,222.489,142.857,221.322,147.213L221.322,147.213z"/>
</g>
<g>
	<path fill="#FFFFFF" d="M252.932,167.62c-0.354,1.324-0.709,2.648-1.063,3.973c-0.493,1.842,0.597,3.797,2.444,4.306
		c1.829,0.503,3.813-0.603,4.306-2.444c0.354-1.324,0.709-2.648,1.063-3.973c0.493-1.842-0.597-3.797-2.444-4.306
		C255.409,164.672,253.425,165.778,252.932,167.62L252.932,167.62z"/>
</g>
<g>
	<path fill="#FFFFFF" d="M206.731,154.838c-0.354,1.324-0.709,2.648-1.063,3.973c-0.493,1.842,0.597,3.797,2.444,4.306
		c1.829,0.503,3.813-0.603,4.306-2.444c0.354-1.324,0.709-2.648,1.063-3.973c0.493-1.842-0.597-3.797-2.444-4.306
		C209.208,151.891,207.225,152.996,206.731,154.838L206.731,154.838z"/>
</g>
<g>
	<path fill="#FFFFFF" d="M107.315,294.878c4.222,0,8.444,0,12.667,0c6.449,0,6.449-10,0-10c-4.222,0-8.444,0-12.667,0
		C100.867,284.878,100.867,294.878,107.315,294.878L107.315,294.878z"/>
</g>
<g>
	<path fill="#FFFFFF" d="M249.315,294.878c4.222,0,8.444,0,12.667,0c6.449,0,6.449-10,0-10c-4.222,0-8.444,0-12.667,0
		C242.867,284.878,242.867,294.878,249.315,294.878L249.315,294.878z"/>
</g>
<g>
	<path fill="#FFFFFF" d="M272.896,277.216c-0.984,3.02-1.787,2.329-4.62,2.329c-3.788,0-7.575,0-11.362,0
		c-13.076,0-26.152,0-39.228,0c-31.08,0-62.16,0-93.239,0c-8.246,0-16.491,0-24.737,0c-2.538,0-2.58-2.379-3.555-4.623
		c-2.392-5.5-4.783-10.999-7.174-16.499c-3.075-7.071-6.149-14.143-9.224-21.214c-0.882-2.03-1.765-4.059-2.647-6.089
		c-0.156-0.358-0.312-0.717-0.467-1.075c1.342,3.087,0.352,1.5,1.788,1.5c5.824,0,11.648,0,17.473,0c56.749,0,113.498,0,170.247,0
		c3.59,0,7.18,0,10.77,0c0.596,0,1.191,0,1.787,0c0.616,0,1.142-0.018,1.152-0.083c-0.142,0.935-0.285,1.87-0.427,2.805
		C277.253,248.583,275.075,262.899,272.896,277.216c-0.96,6.306,8.675,9.017,9.643,2.658c1.871-12.293,3.742-24.587,5.612-36.88
		c0.692-4.545,2.735-11,0.416-15.308c-2.364-4.392-6.495-6.141-11.245-6.141c-21.331,0-42.662,0-63.993,0
		c-31.771,0-63.542,0-95.313,0c-10.61,0-21.221,0-31.831,0c-8.455,0-17.743-0.263-18.869,11c-0.139,1.39,1.061,3.395,1.63,4.703
		c1.146,2.637,2.292,5.273,3.439,7.909c3.156,7.26,6.313,14.521,9.47,21.781c2.018,4.64,4.035,9.281,6.053,13.921
		c2.248,5.169,5.136,8.686,11.104,8.686c21.911,0,43.822,0,65.732,0c25.686,0,51.371,0,77.057,0c8.135,0,16.27,0,24.404,0
		c1.694,0,3.389,0,5.083,0c6.271,0,9.44-4.114,11.251-9.671C284.543,273.725,274.885,271.112,272.896,277.216z"/>
</g>
<g>
	<path fill="#FFFFFF" d="M215.386,211.495c-0.334,1.248-0.668,2.495-1.003,3.743c-0.494,1.842,0.597,3.797,2.444,4.306
		c1.83,0.503,3.812-0.603,4.306-2.444c0.334-1.248,0.668-2.495,1.003-3.743c0.494-1.842-0.597-3.797-2.444-4.306
		C217.862,208.547,215.88,209.653,215.386,211.495L215.386,211.495z"/>
</g>
<g>
	<path fill="#FFFFFF" d="M279.717,135.887c0,32.219,0,64.439,0,96.658c0,6.449,10,6.449,10,0c0-32.219,0-64.439,0-96.658
		C289.717,129.438,279.717,129.438,279.717,135.887L279.717,135.887z"/>
</g>
</svg>
