<?xml version="1.0" encoding="iso-8859-1"?>
<!-- Generator: Adobe Illustrator 16.0.0, SVG Export Plug-In . SVG Version: 6.00 Build 0)  -->
<!DOCTYPE svg PUBLIC "-//W3C//DTD SVG 1.1 Tiny//EN" "http://www.w3.org/Graphics/SVG/1.1/DTD/svg11-tiny.dtd">
<svg version="1.1" baseProfile="tiny" id="scene_x5F_baking_x5F_oven"
	 xmlns="http://www.w3.org/2000/svg" xmlns:xlink="http://www.w3.org/1999/xlink" x="0px" y="0px" width="361px" height="361px"
	 viewBox="0 0 361 361" xml:space="preserve">
<g>
	<path fill="#FFFFFF" d="M283.603,135.045c-48.549,0-97.099,0-145.648,0c-21.903,0-43.806,0-65.708,0c-1.935,0-1.935,3,0,3
		c48.549,0,97.099,0,145.648,0c21.903,0,43.806,0,65.708,0C285.538,138.045,285.538,135.045,283.603,135.045L283.603,135.045z"/>
</g>
<path fill="none" stroke="#FFFFFF" stroke-miterlimit="10" d="M41.721,124.67"/>
<g>
	<path fill="#FFFFFF" d="M100.252,243.344c1.206,7.479,13.027,5.166,18.415,5.166c13.66,0,27.32,0,40.98,0
		c28.097,0,56.195,0,84.292,0c2.037,0,4.074,0,6.11,0c4.699,0,5.602-4.198,5.602-7.875c0-13.381,0-26.762,0-40.143
		c0-11.132,0-22.265,0-33.397c0-7.701-11.282-5.717-16.164-5.717c-29.47,0-58.94,0-88.41,0c-12.44,0-24.88,0-37.32,0
		c-5.528,0-13.56-1.351-13.56,6.617c0,24.983,0,49.967,0,74.95c0,1.935,3,1.935,3,0c0-24.153,0-48.307,0-72.46
		c0-2.655-0.126-6.106,3.64-6.106c3.174,0,6.349,0,9.523,0c13.146,0,26.292,0,39.438,0c28.764,0,57.528,0,86.292,0
		c2.557,0,5.113,0,7.67,0c3.995,0,2.89,6.476,2.89,8.661c0,14.7,0,29.401,0,44.101c0,6.569,0,13.139,0,19.708
		c0,2.185,1.105,8.662-2.89,8.662c-7.85,0-15.7,0-23.549,0c-30.882,0-61.765,0-92.647,0c-6.603,0-13.205,0-19.807,0
		c-2.781,0-9.899,1.465-10.613-2.964C102.837,240.641,99.947,241.452,100.252,243.344z"/>
</g>
<g>
	<path fill="#FFFFFF" d="M222.504,123.788c3.307,0,6.613,0,9.92,0c1.935,0,1.935-3,0-3c-3.307,0-6.613,0-9.92,0
		C220.57,120.788,220.57,123.788,222.504,123.788L222.504,123.788z"/>
</g>
<g>
	<path fill="#FFFFFF" d="M222.504,118.712c3.307,0,6.613,0,9.92,0c1.935,0,1.935-3,0-3c-3.307,0-6.613,0-9.92,0
		C220.57,115.712,220.57,118.712,222.504,118.712L222.504,118.712z"/>
</g>
<g>
	<path fill="#FFFFFF" d="M222.504,128.864c3.307,0,6.613,0,9.92,0c1.935,0,1.935-3,0-3c-3.307,0-6.613,0-9.92,0
		C220.57,125.864,220.57,128.864,222.504,128.864L222.504,128.864z"/>
</g>
<g>
	<path fill="#FFFFFF" d="M144.796,136.045c3.307,0,6.613,0,9.92,0c1.935,0,1.935-3,0-3c-3.307,0-6.613,0-9.92,0
		C142.862,133.045,142.862,136.045,144.796,136.045L144.796,136.045z"/>
</g>
<g>
	<path fill="#FFFFFF" d="M172.965,136.045c3.307,0,6.613,0,9.92,0c1.935,0,1.935-3,0-3c-3.307,0-6.613,0-9.92,0
		C171.03,133.045,171.03,136.045,172.965,136.045L172.965,136.045z"/>
</g>
<g>
	<path fill="#FFFFFF" d="M201.914,136.045c3.307,0,6.613,0,9.92,0c1.935,0,1.935-3,0-3c-3.307,0-6.613,0-9.92,0
		C199.979,133.045,199.979,136.045,201.914,136.045L201.914,136.045z"/>
</g>
<g>
	<path fill="#FFFFFF" d="M210.387,126.349c-0.627,1.514-9.345,0.515-10.897,0.515c-7.723,0-15.445,0-23.168,0
		c-7.362,0-14.724,0-22.086,0c-2.082,0-4.164,0-6.247,0c-2.125,0-1.693-0.469-1.693-2.716c0-0.848-0.487-6.436,0.439-6.436
		c1.657,0,3.314,0,4.971,0c6.886,0,13.772,0,20.658,0c12.51,0,25.021,0,37.53,0c0.911,0,0.439,7.83,0.439,9.036c0,1.935,3,1.935,3,0
		c0-3.012,1.764-12.036-3.299-12.036c-4.312,0-8.623,0-12.935,0c-14.933,0-29.866,0-44.8,0c-3.404,0-7.415-0.988-8.95,2.717
		c-0.873,2.105-0.054,6.007-0.054,8.266c0,2.018,0.755,4.169,3.198,4.169c11.933,0,23.866,0,35.799,0c7.139,0,14.277,0,21.416,0
		c3.498,0,7.988,1.105,9.571-2.717C214.02,125.359,211.116,124.588,210.387,126.349z"/>
</g>
<g>
	<path fill="#FFFFFF" d="M124.838,123.788c3.307,0,6.613,0,9.92,0c1.935,0,1.935-3,0-3c-3.307,0-6.613,0-9.92,0
		C122.903,120.788,122.903,123.788,124.838,123.788L124.838,123.788z"/>
</g>
<g>
	<path fill="#FFFFFF" d="M124.838,118.712c3.307,0,6.613,0,9.92,0c1.935,0,1.935-3,0-3c-3.307,0-6.613,0-9.92,0
		C122.903,115.712,122.903,118.712,124.838,118.712L124.838,118.712z"/>
</g>
<g>
	<path fill="#FFFFFF" d="M124.838,128.864c3.307,0,6.613,0,9.92,0c1.935,0,1.935-3,0-3c-3.307,0-6.613,0-9.92,0
		C122.903,125.864,122.903,128.864,124.838,128.864L124.838,128.864z"/>
</g>
<g>
	<path fill="#FFFFFF" d="M119.204,154.878c39.147,0,78.295,0,117.442,0c6.449,0,6.449-10,0-10c-39.147,0-78.295,0-117.442,0
		C112.755,144.878,112.755,154.878,119.204,154.878L119.204,154.878z"/>
</g>
<g display="none">
	<g display="inline">
		<path fill="#FFFFFF" d="M185.439,205.606c-3.132-5.026-8.471-2.211-13.062-0.981c-4.172,1.118-12.376,1.865-10.647,8.317
			c2.292,8.554,4.584,17.108,6.876,25.663c1.717,6.408,9.289,2.923,13.416,1.817c4.171-1.118,12.376-1.865,10.647-8.317
			c-2.292-8.554-4.585-17.109-6.877-25.664c-1.167-4.356-7.92-2.505-6.75,1.861c1.146,4.277,2.292,8.554,3.439,12.832
			c1.069,3.989,3.409,9.112,3.27,13.195c0.341-0.825,0.683-1.65,1.025-2.475c0.297-0.292,1.131-0.258,0.161,0.002
			c-0.804,0.215-1.607,0.43-2.411,0.646c-2.362,0.633-4.724,1.266-7.086,1.898c-1.538,0.413-3.077,0.825-4.615,1.237
			c2.246-0.602,2.827,2.206,2.34,0.387c-0.174-0.65-0.349-1.3-0.523-1.951c-1.247-4.653-2.494-9.307-3.741-13.96
			c-0.774-2.891-2.351-6.455-2.251-9.398c-0.342,0.825-0.684,1.65-1.025,2.475c-0.298,0.292-1.132,0.258-0.161-0.002
			c0.56-0.15,1.12-0.3,1.679-0.45c1.699-0.455,3.397-0.91,5.096-1.366c1.699-0.455,3.397-0.91,5.096-1.365
			c0.56-0.15,1.12-0.3,1.679-0.45c1.616-0.433-1.089,0.43-1.618-0.42C181.776,212.961,187.834,209.45,185.439,205.606z"/>
	</g>
	<g display="inline">
		<path fill="#FFFFFF" d="M180.107,188.469c-2.802,5.257,2.259,8.43,5.646,11.817c3.038,3.037,7.817,9.806,12.525,5.098
			c6.262-6.263,12.524-12.525,18.787-18.788c4.708-4.708-2.061-9.488-5.099-12.525c-3.037-3.037-7.817-9.805-12.525-5.098
			c-6.262,6.263-12.525,12.525-18.788,18.788c-3.194,3.195,1.755,8.145,4.95,4.95c3.131-3.131,6.262-6.263,9.394-9.394
			c2.935-2.935,6.196-7.519,9.828-9.456c-0.899,0.118-1.798,0.235-2.697,0.353c-0.379-0.105-0.792-0.873-0.072-0.152
			c0.41,0.41,0.82,0.82,1.229,1.229c1.244,1.244,2.487,2.487,3.73,3.73c1.244,1.243,2.487,2.487,3.73,3.73
			c0.41,0.41,0.819,0.819,1.229,1.229c0.721,0.721-0.047,0.306-0.152-0.071c0.118-0.899,0.235-1.798,0.353-2.697
			c-1.936,3.632-6.521,6.894-9.456,9.828c-2.934,2.935-6.195,7.52-9.828,9.456c0.899-0.118,1.798-0.235,2.697-0.353
			c0.377,0.105,0.793,0.875,0.072,0.153c-0.41-0.41-0.82-0.819-1.229-1.229c-1.243-1.244-2.487-2.487-3.73-3.731
			c-1.244-1.243-2.487-2.487-3.73-3.73c-0.41-0.41-0.819-0.819-1.229-1.229c-0.72-0.72,0.046-0.307,0.152,0.072
			c-0.118,0.899-0.235,1.798-0.353,2.697c0.203-0.381,0.406-0.761,0.608-1.142C188.273,188.021,182.231,184.484,180.107,188.469z"/>
	</g>
	<g display="inline">
		<path fill="#FFFFFF" d="M167.933,201.75c5.934-0.2,6.152-6.166,7.386-10.772c1.106-4.126,4.591-11.698-1.816-13.415
			c-8.555-2.292-17.109-4.584-25.664-6.877c-6.451-1.729-7.2,6.477-8.317,10.648c-1.106,4.126-4.591,11.699,1.816,13.416
			c8.555,2.292,17.109,4.584,25.664,6.876c4.367,1.17,6.217-5.583,1.861-6.75c-7.451-1.996-14.901-3.992-22.351-5.988
			c-1.089-0.292-2.177-0.583-3.266-0.875c1.805,0.483,0.681,3.931,1.333,1.497c0.245-0.915,0.49-1.83,0.735-2.745
			c0.638-2.379,1.275-4.758,1.913-7.138c0.245-0.915,0.49-1.83,0.735-2.745c0.298-1.11,0.641-0.827,0.125-0.3
			c-0.825,0.342-1.65,0.683-2.475,1.025c2.667-0.092,5.856,1.302,8.484,2.006c4.744,1.271,9.487,2.542,14.23,3.813
			c1.089,0.292,2.177,0.583,3.266,0.875c-1.805-0.483-0.681-3.932-1.333-1.498c-0.245,0.915-0.49,1.831-0.735,2.746
			c-0.638,2.379-1.275,4.758-1.913,7.137c-0.245,0.915-0.49,1.831-0.735,2.746c-0.297,1.108-0.642,0.829-0.125,0.301
			c0.825-0.342,1.65-0.683,2.475-1.025c-0.432,0.014-0.863,0.029-1.294,0.043C163.432,194.901,163.417,201.902,167.933,201.75z"/>
	</g>
	<g display="inline">
		<path fill="#FFFFFF" d="M175.692,202.677c0.731-2.727,1.462-5.454,2.192-8.181c-0.835,0.221-1.671,0.441-2.507,0.662
			c1.996,1.997,3.992,3.993,5.989,5.989c0.221-0.835,0.441-1.671,0.662-2.507c-2.727,0.73-5.454,1.461-8.181,2.192
			c-1.867,0.5-1.074,3.394,0.798,2.893c2.727-0.73,5.454-1.461,8.181-2.192c1.092-0.292,1.456-1.713,0.662-2.507
			c-1.996-1.997-3.992-3.993-5.989-5.989c-0.794-0.794-2.214-0.431-2.507,0.662c-0.731,2.727-1.462,5.454-2.192,8.181
			C172.298,203.75,175.192,204.543,175.692,202.677z"/>
	</g>
</g>
<g>
	<path fill="#FFFFFF" d="M222.96,234.68c-0.506,1.1-15.011,0.031-16.371,0.031c-11.879,0-23.758,0-35.637,0
		c-10.429,0-20.859,0-31.288,0c-2.212,0-4.424,0-6.636,0c-0.445,0-0.213-0.075,0.101,0.695c-0.407-0.997-0.814-1.995-1.221-2.992
		c-0.912-2.234-1.823-4.468-2.734-6.702c-0.118,0.899-0.235,1.798-0.353,2.697c0.475-1.031,14.049-0.031,15.319-0.031
		c11.25,0,22.5,0,33.751,0c11.25,0,22.5,0,33.75,0c1.27,0,14.845-1,15.319,0.031c-0.118-0.899-0.235-1.798-0.353-2.697
		c-1.333,3.268-2.667,6.536-4,9.804c-1.706,4.182,5.068,5.982,6.75,1.861c2.157-5.286,7.968-14.375-1.444-15.874
		c-2.544-0.405-5.277-0.125-7.839-0.125c-14.062,0-28.123,0-42.184,0c-14.062,0-28.123,0-42.184,0c-2.562,0-5.295-0.28-7.839,0.125
		c-9.412,1.499-3.601,10.588-1.444,15.874c2.468,6.049,11.588,4.334,16.928,4.334c11.181,0,22.363,0,33.544,0
		c11.388,0,22.777,0,34.166,0c4.688,0,15.499,1.814,17.943-3.498C230.876,234.143,224.844,230.583,222.96,234.68z"/>
</g>
<g>
	<path fill="#FFFFFF" d="M82.432,255.866c-7.91-0.532-5.186-16.387-5.186-21.503c0-14.593,0-29.187,0-43.779
		c0-24.468,0-48.935,0-73.403c0-7.307,8.537-5.8,13.447-5.8c10.969,0,21.938,0,32.908,0c31.835,0,63.67,0,95.506,0
		c18.101,0,36.202,0,54.303,0c7.789,0,5.193,16.191,5.193,20.83c0,14.487,0,28.975,0,43.462c0,24.744,0,49.488,0,74.232
		c0,7.356-8.011,5.961-13.014,5.961c-10.835,0-21.67,0-32.506,0c-50.208,0-100.416,0-150.623,0
		C82.451,255.866,82.441,255.866,82.432,255.866c-6.449,0-6.449,10,0,10c49.658,0,99.317,0,148.975,0c11.102,0,22.204,0,33.306,0
		c8.689,0,17.717,0.648,22.407-8.698c3.187-6.351,1.483-16.717,1.483-23.49c0-14.695,0-29.391,0-44.086c0-24.185,0-48.369,0-72.553
		c0-8.85-6.593-15.08-15.186-15.658c-1.352-0.091-2.741,0-4.095,0c-9.405,0-18.81,0-28.215,0c-52.567,0-105.134,0-157.701,0
		c-6.304,0-11.797,2.96-14.676,8.697c-1.622,3.232-1.483,6.694-1.483,10.172c0,11.157,0,22.313,0,33.47c0,29.31,0,58.62,0,87.929
		c0,2.853,0,5.706,0,8.559c0,8.85,6.592,15.08,15.186,15.658C88.873,266.3,88.831,256.297,82.432,255.866z"/>
</g>
<g>
	<g>
		<path fill="#FFFFFF" d="M175.207,172.474c5.258,6.948,5.257,14.271,0,21.218c-5.501,7.27-6.533,15.342-2.825,23.619
			c1.842,4.113,7.873,0.55,6.044-3.533c-3.993-8.915,2.261-14.351,5.857-21.664c3.868-7.865,2.144-16.335-3.032-23.173
			C178.563,165.391,172.48,168.872,175.207,172.474L175.207,172.474z"/>
	</g>
	<g>
		<path fill="#FFFFFF" d="M193.697,177.815c4.545,6.023,4.545,12.247,0,18.27c-4.954,6.564-5.766,13.755-2.489,21.227
			c1.809,4.125,7.839,0.559,6.044-3.533c-3.504-7.991,2.477-12.783,5.483-19.398c3.12-6.867,1.448-14.212-2.994-20.098
			C197.059,170.728,190.976,174.209,193.697,177.815L193.697,177.815z"/>
	</g>
	<g>
		<path fill="#FFFFFF" d="M155.697,177.815c4.545,6.023,4.545,12.247,0,18.27c-4.954,6.564-5.766,13.755-2.489,21.227
			c1.809,4.125,7.839,0.559,6.044-3.533c-3.504-7.991,2.477-12.783,5.483-19.398c3.12-6.867,1.448-14.212-2.994-20.098
			C159.059,170.728,152.976,174.209,155.697,177.815L155.697,177.815z"/>
	</g>
</g>
<g display="none">
	<g display="inline">
		<path fill="#FFFFFF" d="M106.482,281.712c1.903,0,3.806,0,5.709,0c1.935,0,1.935-3,0-3c-1.903,0-3.806,0-5.709,0
			C104.548,278.712,104.548,281.712,106.482,281.712L106.482,281.712z"/>
	</g>
	<g display="inline">
		<path fill="#FFFFFF" d="M118.133,281.712c1.903,0,3.806,0,5.709,0c1.935,0,1.935-3,0-3c-1.903,0-3.806,0-5.709,0
			C116.199,278.712,116.199,281.712,118.133,281.712L118.133,281.712z"/>
	</g>
	<g display="inline">
		<path fill="#FFFFFF" d="M129.784,281.712c1.903,0,3.806,0,5.709,0c1.935,0,1.935-3,0-3c-1.903,0-3.806,0-5.709,0
			C127.85,278.712,127.85,281.712,129.784,281.712L129.784,281.712z"/>
	</g>
	<g display="inline">
		<path fill="#FFFFFF" d="M141.435,281.712c1.903,0,3.806,0,5.709,0c1.935,0,1.935-3,0-3c-1.903,0-3.806,0-5.709,0
			C139.5,278.712,139.5,281.712,141.435,281.712L141.435,281.712z"/>
	</g>
	<g display="inline">
		<path fill="#FFFFFF" d="M153.086,281.712c1.903,0,3.806,0,5.709,0c1.935,0,1.935-3,0-3c-1.903,0-3.806,0-5.709,0
			C151.151,278.712,151.151,281.712,153.086,281.712L153.086,281.712z"/>
	</g>
	<g display="inline">
		<path fill="#FFFFFF" d="M164.737,281.712c1.903,0,3.806,0,5.709,0c1.935,0,1.935-3,0-3c-1.903,0-3.806,0-5.709,0
			C162.802,278.712,162.802,281.712,164.737,281.712L164.737,281.712z"/>
	</g>
	<g display="inline">
		<path fill="#FFFFFF" d="M176.388,281.712c1.903,0,3.806,0,5.709,0c1.935,0,1.935-3,0-3c-1.903,0-3.806,0-5.709,0
			C174.453,278.712,174.453,281.712,176.388,281.712L176.388,281.712z"/>
	</g>
	<g display="inline">
		<path fill="#FFFFFF" d="M188.039,281.712c1.903,0,3.806,0,5.709,0c1.935,0,1.935-3,0-3c-1.903,0-3.806,0-5.709,0
			C186.104,278.712,186.104,281.712,188.039,281.712L188.039,281.712z"/>
	</g>
	<g display="inline">
		<path fill="#FFFFFF" d="M199.69,281.712c1.903,0,3.806,0,5.709,0c1.935,0,1.935-3,0-3c-1.903,0-3.806,0-5.709,0
			C197.755,278.712,197.755,281.712,199.69,281.712L199.69,281.712z"/>
	</g>
	<g display="inline">
		<path fill="#FFFFFF" d="M211.341,281.712c1.903,0,3.806,0,5.709,0c1.935,0,1.935-3,0-3c-1.903,0-3.806,0-5.709,0
			C209.406,278.712,209.406,281.712,211.341,281.712L211.341,281.712z"/>
	</g>
	<g display="inline">
		<path fill="#FFFFFF" d="M222.992,281.712c1.903,0,3.806,0,5.709,0c1.935,0,1.935-3,0-3c-1.903,0-3.806,0-5.709,0
			C221.057,278.712,221.057,281.712,222.992,281.712L222.992,281.712z"/>
	</g>
	<g display="inline">
		<path fill="#FFFFFF" d="M234.643,281.712c1.903,0,3.806,0,5.709,0c1.935,0,1.935-3,0-3c-1.903,0-3.806,0-5.709,0
			C232.708,278.712,232.708,281.712,234.643,281.712L234.643,281.712z"/>
	</g>
	<g display="inline">
		<path fill="#FFFFFF" d="M246.293,281.712c1.903,0,3.806,0,5.709,0c1.935,0,1.935-3,0-3c-1.903,0-3.806,0-5.709,0
			C244.359,278.712,244.359,281.712,246.293,281.712L246.293,281.712z"/>
	</g>
	<g display="inline">
		<path fill="#FFFFFF" d="M257.944,281.712c1.903,0,3.806,0,5.709,0c1.935,0,1.935-3,0-3c-1.903,0-3.806,0-5.709,0
			C256.01,278.712,256.01,281.712,257.944,281.712L257.944,281.712z"/>
	</g>
	<g display="inline">
		<path fill="#FFFFFF" d="M269.595,281.712c1.903,0,3.806,0,5.709,0c1.935,0,1.935-3,0-3c-1.903,0-3.806,0-5.709,0
			C267.661,278.712,267.661,281.712,269.595,281.712L269.595,281.712z"/>
	</g>
	<g display="inline">
		<path fill="#FFFFFF" d="M281.246,281.712c1.903,0,3.806,0,5.709,0c1.935,0,1.935-3,0-3c-1.903,0-3.806,0-5.709,0
			C279.312,278.712,279.312,281.712,281.246,281.712L281.246,281.712z"/>
	</g>
	<g display="inline">
		<g>
			<g>
				<path fill="#FFFFFF" d="M105.165,163.712c1.903,0,3.806,0,5.709,0c1.935,0,1.935-3,0-3c-1.903,0-3.806,0-5.709,0
					C103.23,160.712,103.23,163.712,105.165,163.712L105.165,163.712z"/>
			</g>
			<g>
				<path fill="#FFFFFF" d="M116.816,163.712c1.903,0,3.806,0,5.709,0c1.935,0,1.935-3,0-3c-1.903,0-3.806,0-5.709,0
					C114.881,160.712,114.881,163.712,116.816,163.712L116.816,163.712z"/>
			</g>
			<g>
				<path fill="#FFFFFF" d="M128.467,163.712c1.903,0,3.806,0,5.709,0c1.935,0,1.935-3,0-3c-1.903,0-3.806,0-5.709,0
					C126.532,160.712,126.532,163.712,128.467,163.712L128.467,163.712z"/>
			</g>
			<g>
				<path fill="#FFFFFF" d="M140.118,163.712c1.903,0,3.806,0,5.709,0c1.935,0,1.935-3,0-3c-1.903,0-3.806,0-5.709,0
					C138.183,160.712,138.183,163.712,140.118,163.712L140.118,163.712z"/>
			</g>
			<g>
				<path fill="#FFFFFF" d="M151.769,163.712c1.903,0,3.806,0,5.709,0c1.935,0,1.935-3,0-3c-1.903,0-3.806,0-5.709,0
					C149.834,160.712,149.834,163.712,151.769,163.712L151.769,163.712z"/>
			</g>
			<g>
				<path fill="#FFFFFF" d="M163.419,163.712c1.903,0,3.806,0,5.709,0c1.935,0,1.935-3,0-3c-1.903,0-3.806,0-5.709,0
					C161.485,160.712,161.485,163.712,163.419,163.712L163.419,163.712z"/>
			</g>
			<g>
				<path fill="#FFFFFF" d="M175.07,163.712c1.903,0,3.806,0,5.709,0c1.935,0,1.935-3,0-3c-1.903,0-3.806,0-5.709,0
					C173.136,160.712,173.136,163.712,175.07,163.712L175.07,163.712z"/>
			</g>
			<g>
				<path fill="#FFFFFF" d="M186.721,163.712c1.903,0,3.806,0,5.709,0c1.935,0,1.935-3,0-3c-1.903,0-3.806,0-5.709,0
					C184.787,160.712,184.787,163.712,186.721,163.712L186.721,163.712z"/>
			</g>
			<g>
				<path fill="#FFFFFF" d="M198.373,163.712c1.903,0,3.806,0,5.709,0c1.935,0,1.935-3,0-3c-1.903,0-3.806,0-5.709,0
					C196.438,160.712,196.438,163.712,198.373,163.712L198.373,163.712z"/>
			</g>
			<g>
				<path fill="#FFFFFF" d="M210.023,163.712c1.903,0,3.806,0,5.709,0c1.935,0,1.935-3,0-3c-1.903,0-3.806,0-5.709,0
					C208.089,160.712,208.089,163.712,210.023,163.712L210.023,163.712z"/>
			</g>
			<g>
				<path fill="#FFFFFF" d="M221.674,163.712c1.903,0,3.806,0,5.709,0c1.935,0,1.935-3,0-3c-1.903,0-3.806,0-5.709,0
					C219.74,160.712,219.74,163.712,221.674,163.712L221.674,163.712z"/>
			</g>
			<g>
				<path fill="#FFFFFF" d="M233.325,163.712c1.903,0,3.806,0,5.709,0c1.935,0,1.935-3,0-3c-1.903,0-3.806,0-5.709,0
					C231.391,160.712,231.391,163.712,233.325,163.712L233.325,163.712z"/>
			</g>
			<g>
				<path fill="#FFFFFF" d="M244.976,163.712c1.903,0,3.806,0,5.709,0c1.935,0,1.935-3,0-3c-1.903,0-3.806,0-5.709,0
					C243.042,160.712,243.042,163.712,244.976,163.712L244.976,163.712z"/>
			</g>
		</g>
		<g>
			<g>
				<path fill="#FFFFFF" d="M105.13,248.045c1.903,0,3.806,0,5.709,0c1.935,0,1.935-3,0-3c-1.903,0-3.806,0-5.709,0
					C103.195,245.045,103.195,248.045,105.13,248.045L105.13,248.045z"/>
			</g>
			<g>
				<path fill="#FFFFFF" d="M116.781,248.045c1.903,0,3.806,0,5.709,0c1.935,0,1.935-3,0-3c-1.903,0-3.806,0-5.709,0
					C114.846,245.045,114.846,248.045,116.781,248.045L116.781,248.045z"/>
			</g>
			<g>
				<path fill="#FFFFFF" d="M128.432,248.045c1.903,0,3.806,0,5.709,0c1.935,0,1.935-3,0-3c-1.903,0-3.806,0-5.709,0
					C126.497,245.045,126.497,248.045,128.432,248.045L128.432,248.045z"/>
			</g>
			<g>
				<path fill="#FFFFFF" d="M140.083,248.045c1.903,0,3.806,0,5.709,0c1.935,0,1.935-3,0-3c-1.903,0-3.806,0-5.709,0
					C138.148,245.045,138.148,248.045,140.083,248.045L140.083,248.045z"/>
			</g>
			<g>
				<path fill="#FFFFFF" d="M151.733,248.045c1.903,0,3.806,0,5.709,0c1.935,0,1.935-3,0-3c-1.903,0-3.806,0-5.709,0
					C149.799,245.045,149.799,248.045,151.733,248.045L151.733,248.045z"/>
			</g>
			<g>
				<path fill="#FFFFFF" d="M163.384,248.045c1.903,0,3.806,0,5.709,0c1.935,0,1.935-3,0-3c-1.903,0-3.806,0-5.709,0
					C161.45,245.045,161.45,248.045,163.384,248.045L163.384,248.045z"/>
			</g>
			<g>
				<path fill="#FFFFFF" d="M175.035,248.045c1.903,0,3.806,0,5.709,0c1.935,0,1.935-3,0-3c-1.903,0-3.806,0-5.709,0
					C173.101,245.045,173.101,248.045,175.035,248.045L175.035,248.045z"/>
			</g>
			<g>
				<path fill="#FFFFFF" d="M186.686,248.045c1.903,0,3.806,0,5.709,0c1.935,0,1.935-3,0-3c-1.903,0-3.806,0-5.709,0
					C184.751,245.045,184.751,248.045,186.686,248.045L186.686,248.045z"/>
			</g>
			<g>
				<path fill="#FFFFFF" d="M198.337,248.045c1.903,0,3.806,0,5.709,0c1.935,0,1.935-3,0-3c-1.903,0-3.806,0-5.709,0
					C196.403,245.045,196.403,248.045,198.337,248.045L198.337,248.045z"/>
			</g>
			<g>
				<path fill="#FFFFFF" d="M209.988,248.045c1.903,0,3.806,0,5.709,0c1.935,0,1.935-3,0-3c-1.903,0-3.806,0-5.709,0
					C208.054,245.045,208.054,248.045,209.988,248.045L209.988,248.045z"/>
			</g>
			<g>
				<path fill="#FFFFFF" d="M221.639,248.045c1.903,0,3.806,0,5.709,0c1.935,0,1.935-3,0-3c-1.903,0-3.806,0-5.709,0
					C219.705,245.045,219.705,248.045,221.639,248.045L221.639,248.045z"/>
			</g>
			<g>
				<path fill="#FFFFFF" d="M233.29,248.045c1.903,0,3.806,0,5.709,0c1.935,0,1.935-3,0-3c-1.903,0-3.806,0-5.709,0
					C231.355,245.045,231.355,248.045,233.29,248.045L233.29,248.045z"/>
			</g>
			<g>
				<path fill="#FFFFFF" d="M244.941,248.045c1.903,0,3.806,0,5.709,0c1.935,0,1.935-3,0-3c-1.903,0-3.806,0-5.709,0
					C243.006,245.045,243.006,248.045,244.941,248.045L244.941,248.045z"/>
			</g>
		</g>
		<g>
			<g>
				<path fill="#FFFFFF" d="M254.444,242.223c0-1.903,0-3.806,0-5.709c0-1.935-3-1.935-3,0c0,1.903,0,3.806,0,5.709
					C251.444,244.158,254.444,244.158,254.444,242.223L254.444,242.223z"/>
			</g>
			<g>
				<path fill="#FFFFFF" d="M254.444,230.572c0-1.903,0-3.806,0-5.709c0-1.935-3-1.935-3,0c0,1.903,0,3.806,0,5.709
					C251.444,232.507,254.444,232.507,254.444,230.572L254.444,230.572z"/>
			</g>
			<g>
				<path fill="#FFFFFF" d="M254.444,218.921c0-1.903,0-3.806,0-5.709c0-1.935-3-1.935-3,0c0,1.903,0,3.806,0,5.709
					C251.444,220.856,254.444,220.856,254.444,218.921L254.444,218.921z"/>
			</g>
			<g>
				<path fill="#FFFFFF" d="M254.444,207.271c0-1.903,0-3.806,0-5.709c0-1.935-3-1.935-3,0c0,1.903,0,3.806,0,5.709
					C251.444,209.205,254.444,209.205,254.444,207.271L254.444,207.271z"/>
			</g>
			<g>
				<path fill="#FFFFFF" d="M254.444,195.62c0-1.903,0-3.806,0-5.709c0-1.935-3-1.935-3,0c0,1.903,0,3.806,0,5.709
					C251.444,197.554,254.444,197.554,254.444,195.62L254.444,195.62z"/>
			</g>
			<g>
				<path fill="#FFFFFF" d="M254.444,183.969c0-1.903,0-3.806,0-5.709c0-1.935-3-1.935-3,0c0,1.903,0,3.806,0,5.709
					C251.444,185.903,254.444,185.903,254.444,183.969L254.444,183.969z"/>
			</g>
			<g>
				<path fill="#FFFFFF" d="M254.444,172.318c0-1.903,0-3.806,0-5.709c0-1.935-3-1.935-3,0c0,1.903,0,3.806,0,5.709
					C251.444,174.252,254.444,174.252,254.444,172.318L254.444,172.318z"/>
			</g>
		</g>
		<g>
			<g>
				<path fill="#FFFFFF" d="M103.482,241.718c0-1.903,0-3.806,0-5.709c0-1.935-3-1.935-3,0c0,1.903,0,3.806,0,5.709
					C100.482,243.652,103.482,243.652,103.482,241.718L103.482,241.718z"/>
			</g>
			<g>
				<path fill="#FFFFFF" d="M103.482,230.067c0-1.903,0-3.806,0-5.709c0-1.935-3-1.935-3,0c0,1.903,0,3.806,0,5.709
					C100.482,232.001,103.482,232.001,103.482,230.067L103.482,230.067z"/>
			</g>
			<g>
				<path fill="#FFFFFF" d="M103.482,218.416c0-1.903,0-3.806,0-5.709c0-1.935-3-1.935-3,0c0,1.903,0,3.806,0,5.709
					C100.482,220.351,103.482,220.351,103.482,218.416L103.482,218.416z"/>
			</g>
			<g>
				<path fill="#FFFFFF" d="M103.482,206.765c0-1.903,0-3.806,0-5.709c0-1.935-3-1.935-3,0c0,1.903,0,3.806,0,5.709
					C100.482,208.7,103.482,208.7,103.482,206.765L103.482,206.765z"/>
			</g>
			<g>
				<path fill="#FFFFFF" d="M103.482,195.114c0-1.903,0-3.806,0-5.709c0-1.935-3-1.935-3,0c0,1.903,0,3.806,0,5.709
					C100.482,197.049,103.482,197.049,103.482,195.114L103.482,195.114z"/>
			</g>
			<g>
				<path fill="#FFFFFF" d="M103.482,183.463c0-1.903,0-3.806,0-5.709c0-1.935-3-1.935-3,0c0,1.903,0,3.806,0,5.709
					C100.482,185.398,103.482,185.398,103.482,183.463L103.482,183.463z"/>
			</g>
			<g>
				<path fill="#FFFFFF" d="M103.482,171.813c0-1.903,0-3.806,0-5.709c0-1.935-3-1.935-3,0c0,1.903,0,3.806,0,5.709
					C100.482,173.747,103.482,173.747,103.482,171.813L103.482,171.813z"/>
			</g>
		</g>
	</g>
</g>
</svg>
