<?xml version="1.0" encoding="iso-8859-1"?>
<!-- Generator: Adobe Illustrator 16.0.0, SVG Export Plug-In . SVG Version: 6.00 Build 0)  -->
<!DOCTYPE svg PUBLIC "-//W3C//DTD SVG 1.1//EN" "http://www.w3.org/Graphics/SVG/1.1/DTD/svg11.dtd">
<svg version="1.1" xmlns="http://www.w3.org/2000/svg" xmlns:xlink="http://www.w3.org/1999/xlink" x="0px" y="0px" width="361px"
	 height="361px" viewBox="0 0 361 361" style="enable-background:new 0 0 361 361;" xml:space="preserve">
<g id="scene_x5F_childs_x5F_room">
	<g style="display:none;">
		<g style="display:inline;">
			<g>
				<path style="fill:#FFFFFF;" d="M245.586,240.789c-0.405,4.518-5.74,3.539-8.888,3.539c-4.967,0-9.934,0-14.9,0
					c-2.628,0-5.255,0-7.882,0c-5.081,0-3.537-8.916-3.537-12.084c0-4.515,6.011-3.537,8.887-3.537c4.967,0,9.934,0,14.9,0
					c2.628,0,5.255,0,7.882,0C247.13,228.707,245.586,237.62,245.586,240.789c0,4.514,7,4.514,7,0
					c0-5.829,0.965-11.909-3.528-16.402c-3.683-3.681-10.178-2.68-14.892-2.68c-6.085,0-12.171,0-18.256,0
					c-6.785,0-11.889,3.364-12.531,10.537c-0.5,5.574-0.65,12.224,3.528,16.403c3.681,3.682,10.177,2.681,14.891,2.681
					c6.085,0,12.171,0,18.256,0c6.785,0,11.89-3.366,12.532-10.539C252.989,236.291,245.985,236.33,245.586,240.789z"/>
			</g>
		</g>
		<path style="display:inline;fill:#FFFFFF;stroke:#FFFFFF;stroke-miterlimit:10;" d="M218.189,221.896
			c0,2.742-2.225,4.965-4.967,4.965l0,0c-2.742,0-4.965-2.223-4.965-4.965v-8c0-2.742,2.223-4.965,4.965-4.965l0,0
			c2.742,0,4.967,2.223,4.967,4.965V221.896z"/>
		<g style="display:inline;">
			<g>
				<path style="fill:#FFFFFF;" d="M273.172,241.205c-0.504,4.511-11.476,2.846-14.37,2.846c-2.118,0-6.216,0.435-6.216-2.888
					c0-1.212,0-2.425,0-3.637c0-8.888,0-17.775,0-26.663c0-4.42,11.894-2.846,14.369-2.846c2.117,0,6.217-0.435,6.217,2.888
					c0,1.212,0,2.425,0,3.637C273.172,223.43,273.172,232.317,273.172,241.205c0,4.514,7,4.514,7,0
					c0-10.395,1.012-21.293-0.143-31.621c-1.016-9.075-10.898-8.566-17.633-8.566c-7.623,0-15.75,0.354-16.811,9.846
					c-0.551,4.924,0,10.222,0,15.171c0,5.42-0.46,11.056,0.143,16.45c1.015,9.075,10.898,8.566,17.632,8.566
					c7.624,0,15.751-0.354,16.812-9.846C280.673,236.723,273.668,236.771,273.172,241.205z"/>
			</g>
		</g>
		<g style="display:inline;">
			<g>
				<path style="fill:#FFFFFF;" d="M247.154,207.189c13.609,0,27.219,0,40.828,0c4.514,0,4.514-7,0-7c-13.609,0-27.219,0-40.828,0
					C242.641,200.189,242.641,207.189,247.154,207.189L247.154,207.189z"/>
			</g>
		</g>
		<g style="display:inline;">
			<g>
				<path style="fill:#FFFFFF;" d="M211.98,251.328c19.448,0,38.897,0,58.346,0c4.514,0,4.514-7,0-7c-19.448,0-38.897,0-58.346,0
					C207.467,244.328,207.467,251.328,211.98,251.328L211.98,251.328z"/>
			</g>
		</g>
		<g style="display:inline;">
			<g>
				<path style="fill:#FFFFFF;" d="M217.447,257.758c-0.446,8.295-12.415,8.294-12.861,0
					C204.14,249.461,217.003,249.505,217.447,257.758c0.242,4.489,7.243,4.513,7,0c-0.409-7.591-5.839-13.021-13.43-13.43
					c-7.575-0.408-13.056,6.451-13.432,13.43c-0.408,7.576,6.453,13.056,13.432,13.432c7.575,0.408,13.054-6.454,13.43-13.432
					C224.69,253.245,217.688,253.269,217.447,257.758z"/>
			</g>
		</g>
		<g style="display:inline;">
			<g>
				<path style="fill:#FFFFFF;" d="M270.137,257.758c-0.446,8.295-12.416,8.294-12.862,0
					C256.828,249.461,269.692,249.505,270.137,257.758c0.242,4.489,7.243,4.513,7,0c-0.409-7.592-5.84-13.021-13.431-13.43
					c-7.575-0.408-13.056,6.452-13.432,13.43c-0.408,7.576,6.453,13.056,13.432,13.432c7.576,0.408,13.055-6.453,13.431-13.432
					C277.38,253.245,270.378,253.269,270.137,257.758z"/>
			</g>
		</g>
		<g style="display:inline;">
			<g>
				<path style="fill:#FFFFFF;" d="M243.932,257.758c-0.446,8.294-12.417,8.295-12.863,0
					C230.622,249.461,243.487,249.506,243.932,257.758c0.242,4.489,7.243,4.513,7,0c-0.409-7.592-5.841-13.021-13.432-13.43
					c-7.575-0.408-13.056,6.452-13.432,13.43c-0.408,7.576,6.453,13.056,13.432,13.432c7.575,0.408,13.056-6.453,13.432-13.432
					C251.175,253.245,244.174,253.269,243.932,257.758z"/>
			</g>
		</g>
	</g>
	<g style="display:none;">
		<g style="display:inline;">
			<path style="fill:#FFFFFF;" d="M155.601,185.574c-0.335,15.337-12.33,27.33-27.667,27.666
				c-15.336,0.336-27.342-12.835-27.667-27.666c-0.335-15.336,12.835-27.342,27.667-27.667
				C143.271,157.572,155.277,170.743,155.601,185.574c0.099,4.507,7.099,4.517,7,0c-0.419-19.18-15.487-34.247-34.667-34.667
				c-19.178-0.419-34.261,16.118-34.667,34.667c-0.419,19.179,16.118,34.261,34.667,34.666c19.178,0.42,34.261-16.117,34.667-34.666
				C162.7,181.058,155.7,181.067,155.601,185.574z"/>
		</g>
	</g>
	<g>
		<g>
			<g>
				<path style="fill:#FFFFFF;" d="M164.626,256.763c-22.028-4.718-44.056-9.437-66.083-14.154
					c-5.011-1.073-6.699,2.216-7.611,6.475c-1.14,5.32-2.278,10.64-3.418,15.959c-1.525,7.116,5.929,7.862,10.894,8.925
					c5.286,1.132,12.97,4.57,16.173-1.698c-0.565,0.23-1.129,0.46-1.694,0.689c8.333,1.784,16.665,3.569,24.998,5.354
					c-0.367-0.482-0.734-0.964-1.101-1.446c0.337,6.657,6.875,6.794,12.026,7.897c3.859,0.827,11.335,3.941,14.293-0.29
					c2.421-3.462,2.658-9.101,3.541-13.224C167.692,266.346,170.913,259.208,164.626,256.763c-1.806-0.702-2.58,2.199-0.798,2.893
					c3.922,1.525-1.191,15.987-1.965,19.602c-1.274,5.949-6.267,3.896-10.386,3.014c-2.952-0.632-11.462-0.807-11.695-5.405
					c-0.032-0.641-0.43-1.303-1.101-1.446c-8.333-1.784-16.665-3.569-24.998-5.354c-0.633-0.136-1.378,0.07-1.694,0.689
					c-2.4,4.699-13.362,0.195-16.938-0.57c-3.415-0.731-4.919-3.065-4.135-6.727c0.337-1.574,0.674-3.147,1.011-4.721
					c0.442-2.064,1.422-14.178,5.099-13.39c2.786,0.597,5.573,1.193,8.359,1.79c19.481,4.173,38.961,8.345,58.442,12.518
					C165.715,260.06,166.518,257.168,164.626,256.763z"/>
			</g>
		</g>
		<g>
			<g>
				<g>
					<path style="fill:#FFFFFF;" d="M121.408,266.325c1.078,0.23,2.155,0.462,3.232,0.692c0.799,0.171,1.619-0.226,1.845-1.048
						c0.208-0.753-0.248-1.674-1.047-1.845c-1.078-0.23-2.155-0.462-3.232-0.692c-0.799-0.171-1.619,0.226-1.845,1.048
						C120.153,265.233,120.608,266.154,121.408,266.325L121.408,266.325z"/>
				</g>
			</g>
			<g>
				<g>
					<path style="fill:#FFFFFF;" d="M129.417,268.04c1.078,0.231,2.155,0.462,3.232,0.693c0.799,0.172,1.619-0.226,1.845-1.048
						c0.208-0.753-0.248-1.674-1.047-1.845c-1.078-0.231-2.155-0.462-3.232-0.693c-0.799-0.172-1.619,0.226-1.845,1.048
						C128.162,266.948,128.617,267.869,129.417,268.04L129.417,268.04z"/>
				</g>
			</g>
		</g>
		<g>
			<g>
				<g>
					<path style="fill:#FFFFFF;" d="M145.424,264.441c0.106-0.325,0.405-0.397,0.682-0.338c-0.097-0.021-0.194-0.042-0.291-0.063
						c-0.298-0.064-0.597-0.128-0.895-0.192c-0.194-0.042-0.562-0.229-0.257,0.023c0.227,0.188,0.087,0.809,0.18,0.377
						c0.026-0.12,0.052-0.239,0.078-0.359c-0.071,0.331-0.428,0.393-0.683,0.338c0.097,0.021,0.194,0.042,0.292,0.063
						c0.298,0.064,0.597,0.129,0.895,0.193c0.197,0.042,0.56,0.229,0.256-0.024c-0.227-0.188-0.087-0.807-0.18-0.376
						C145.475,264.202,145.449,264.321,145.424,264.441c-0.405,1.886,2.487,2.688,2.893,0.797c0.167-0.779,0.328-1.547-0.076-2.295
						c-0.407-0.752-1.091-1.155-1.904-1.329c-0.438-0.095-0.876-0.189-1.315-0.283c-1.364-0.293-2.568,0.455-2.993,1.761
						c-0.544,1.67,0.229,3.246,1.98,3.624c0.438,0.094,0.877,0.188,1.315,0.283c1.363,0.294,2.568-0.458,2.994-1.761
						C148.919,263.395,146.022,262.611,145.424,264.441z"/>
				</g>
			</g>
			<g>
				<g>
					<path style="fill:#FFFFFF;" d="M155.18,266.537c0.106-0.323,0.404-0.399,0.681-0.34c-0.097-0.021-0.194-0.042-0.291-0.063
						c-0.298-0.064-0.597-0.128-0.895-0.192c-0.196-0.042-0.561-0.229-0.256,0.024c0.227,0.188,0.087,0.809,0.18,0.376
						c0.025-0.12,0.051-0.24,0.077-0.36c-0.071,0.332-0.427,0.395-0.682,0.339c0.097,0.021,0.194,0.042,0.292,0.063
						c0.298,0.064,0.597,0.129,0.895,0.193c0.196,0.042,0.561,0.229,0.256-0.024c-0.227-0.188-0.088-0.809-0.18-0.376
						C155.23,266.297,155.205,266.417,155.18,266.537c-0.402,1.887,2.49,2.689,2.893,0.797c0.166-0.779,0.328-1.549-0.077-2.297
						c-0.406-0.751-1.091-1.154-1.904-1.328c-0.438-0.095-0.876-0.189-1.315-0.283c-1.364-0.294-2.566,0.456-2.994,1.76
						c-0.547,1.667,0.232,3.25,1.98,3.625c0.438,0.095,0.877,0.188,1.315,0.282c1.365,0.293,2.567-0.454,2.995-1.759
						C158.677,265.491,155.78,264.707,155.18,266.537z"/>
				</g>
			</g>
			<g>
				<g>
					<path style="fill:#FFFFFF;" d="M145.692,272.816c0.105-0.323,0.407-0.397,0.683-0.338c-0.097-0.021-0.194-0.042-0.292-0.063
						c-0.298-0.064-0.597-0.129-0.896-0.193c-0.197-0.042-0.561-0.229-0.256,0.024c0.227,0.189,0.086,0.808,0.18,0.376
						c0.026-0.119,0.052-0.239,0.078-0.359c-0.071,0.331-0.428,0.394-0.683,0.338c0.097,0.021,0.194,0.042,0.292,0.063
						c0.298,0.064,0.597,0.128,0.895,0.192c0.195,0.042,0.562,0.229,0.256-0.024c-0.227-0.188-0.087-0.807-0.18-0.376
						C145.744,272.577,145.718,272.696,145.692,272.816c-0.405,1.886,2.487,2.688,2.893,0.797c0.167-0.778,0.329-1.548-0.076-2.295
						c-0.407-0.752-1.092-1.153-1.904-1.329c-0.438-0.094-0.876-0.188-1.315-0.283c-1.363-0.294-2.568,0.456-2.993,1.761
						c-0.544,1.668,0.228,3.248,1.979,3.624c0.438,0.095,0.877,0.189,1.316,0.283c1.364,0.293,2.567-0.456,2.993-1.761
						C149.188,271.77,146.29,270.985,145.692,272.816z"/>
				</g>
			</g>
			<g>
				<g>
					<path style="fill:#FFFFFF;" d="M155.449,274.912c0.106-0.324,0.404-0.398,0.682-0.338c-0.097-0.021-0.194-0.042-0.292-0.063
						c-0.298-0.064-0.597-0.128-0.895-0.192c-0.196-0.043-0.562-0.229-0.257,0.024c0.227,0.188,0.088,0.807,0.181,0.376
						c0.026-0.12,0.051-0.239,0.077-0.359c-0.071,0.33-0.427,0.393-0.681,0.338c0.097,0.021,0.194,0.042,0.291,0.063
						c0.298,0.064,0.596,0.129,0.894,0.193c0.195,0.042,0.562,0.229,0.257-0.024c-0.227-0.188-0.087-0.807-0.18-0.376
						C155.5,274.673,155.474,274.792,155.449,274.912c-0.405,1.886,2.487,2.688,2.893,0.797c0.167-0.778,0.329-1.548-0.076-2.296
						c-0.407-0.751-1.092-1.153-1.904-1.328c-0.438-0.095-0.876-0.189-1.314-0.283c-1.365-0.294-2.568,0.455-2.995,1.761
						c-0.545,1.668,0.231,3.247,1.979,3.624c0.438,0.094,0.877,0.188,1.315,0.283c1.365,0.294,2.566-0.458,2.994-1.761
						C158.948,273.866,156.05,273.083,155.449,274.912z"/>
				</g>
			</g>
		</g>
		<g>
			<g>
				<path style="fill:#FFFFFF;" d="M132.643,250.561c1.968-9.371-5.102-16.925-13.707-19.306c-1.868-0.517-2.66,2.378-0.798,2.893
					c6.927,1.916,13.237,7.877,11.612,15.616C129.354,251.65,132.246,252.454,132.643,250.561L132.643,250.561z"/>
			</g>
		</g>
		<g>
			<g>
				<path style="fill:#FFFFFF;" d="M110.833,256.731c-0.854-0.183-1.708-0.365-2.562-0.548c0.349,0.615,0.698,1.23,1.047,1.845
					c0.637-2.972,1.176-6.112-2.629-6.927c-3.832-0.82-4.707,1.943-5.37,5.036c0.615-0.35,1.23-0.699,1.845-1.048
					c-2.971-0.636-6.114-1.176-6.927,2.63c-0.819,3.832,1.943,4.708,5.036,5.369c-0.349-0.615-0.698-1.23-1.047-1.845
					c-0.638,2.971-1.176,6.114,2.629,6.928c3.832,0.819,4.708-1.942,5.371-5.035c-0.615,0.35-1.23,0.699-1.845,1.048
					c2.228,0.477,4.972,1.376,6.417-1.091C114.23,260.649,113.482,257.764,110.833,256.731c-1.805-0.703-2.58,2.198-0.798,2.893
					c0.748,0.291,0.452,2.376-0.438,2.186c-0.806-0.173-1.612-0.345-2.418-0.518c-0.763-0.163-1.667,0.215-1.845,1.048
					c-0.213,0.991-0.178,3.261-1.681,2.939c-1.626-0.348-0.786-2.061-0.534-3.238c0.164-0.762-0.215-1.667-1.047-1.845
					c-0.992-0.212-3.262-0.176-2.941-1.68c0.347-1.625,2.06-0.786,3.236-0.534c0.763,0.163,1.667-0.215,1.845-1.048
					c0.212-0.99,0.178-3.262,1.68-2.94c1.626,0.348,0.787,2.059,0.535,3.237c-0.164,0.762,0.215,1.667,1.047,1.845
					c0.854,0.183,1.708,0.365,2.562,0.548C111.922,260.027,112.725,257.136,110.833,256.731z"/>
			</g>
		</g>
	</g>
	<g id="Schiff_x5F_orig" style="display:none;">
		<path style="display:inline;fill:#FFFFFF;" d="M212.456,278.088c1.675,2.152,2.474,2.659,4.432,2.659h35.971
			c0.517,0,2.733,0.303,4.06-0.835l23.341-17.279c1.923-1.378,1.479-4.313-2.509-4.313h-75.044c-3.545,0-4.505,2.122-3.094,4.096
			L212.456,278.088z"/>
		<g style="display:inline;">
			<g>
				<path style="fill:#FFFFFF;" d="M243.219,256.145c11.504,0,23.008,0,34.512,0c1.055,0,1.98-1.307,1.295-2.257
					c-11.504-15.955-23.008-31.909-34.512-47.863c-0.832-1.154-2.795-0.837-2.795,0.757c0,15.954,0,31.909,0,47.863
					c0,1.935,3,1.935,3,0c0-15.954,0-31.909,0-47.863c-0.932,0.252-1.863,0.505-2.795,0.757
					c11.504,15.955,23.008,31.909,34.512,47.863c0.432-0.752,0.863-1.505,1.295-2.257c-11.504,0-23.008,0-34.512,0
					C241.284,253.145,241.284,256.145,243.219,256.145z"/>
			</g>
		</g>
		<g style="display:inline;">
			<g>
				<path style="fill:#FFFFFF;" d="M233.848,204.16c0,17.234,0,34.469,0,51.703c0,4.514,7,4.514,7,0c0-17.234,0-34.469,0-51.703
					C240.848,199.646,233.848,199.646,233.848,204.16L233.848,204.16z"/>
			</g>
		</g>
		<g style="display:inline;">
			<g>
				<path style="fill:#FFFFFF;" d="M231.473,253.145c-6.592,0-13.184,0-19.775,0c0.482,0.633,0.964,1.266,1.446,1.898
					c6.592-15.954,13.184-31.908,19.775-47.863c-0.982-0.133-1.964-0.266-2.946-0.398c0,15.954,0,31.909,0,47.863
					c0,1.935,3,1.935,3,0c0-15.954,0-31.909,0-47.863c0-1.816-2.335-1.879-2.946-0.398c-6.592,15.954-13.184,31.908-19.775,47.863
					c-0.381,0.921,0.563,1.898,1.446,1.898c6.592,0,13.184,0,19.775,0C233.407,256.145,233.407,253.145,231.473,253.145z"/>
			</g>
		</g>
	</g>
	<g id="Schiff_1_">
		<path style="fill:#FFFFFF;" d="M225.15,289.463c1.894,1.963,2.741,2.383,4.688,2.174l35.769-3.813
			c0.514-0.055,2.749,0.011,3.948-1.261l21.377-19.657c1.767-1.574,1.014-4.444-2.951-4.021l-74.621,7.955
			c-3.525,0.377-4.255,2.588-2.643,4.402L225.15,289.463z"/>
		<g>
			<g>
				<path style="fill:#FFFFFF;" d="M253.254,264.39c11.439-1.22,22.878-2.439,34.317-3.659c1.299-0.139,1.987-1.526,1.061-2.561
					c-13.131-14.645-26.261-29.289-39.392-43.934c-0.827-0.923-2.7-0.245-2.561,1.061c1.691,15.864,3.383,31.729,5.074,47.593
					c0.203,1.903,3.205,1.923,3,0c-1.691-15.864-3.383-31.729-5.074-47.593c-0.854,0.354-1.707,0.707-2.561,1.061
					c13.131,14.645,26.261,29.289,39.392,43.934c0.354-0.854,0.707-1.707,1.061-2.561c-11.439,1.22-22.878,2.439-34.317,3.659
					C251.351,261.593,251.331,264.595,253.254,264.39z"/>
			</g>
		</g>
		<g>
			<g>
				<path style="fill:#FFFFFF;" d="M238.563,213.313c1.827,17.138,3.654,34.274,5.481,51.412c0.474,4.44,7.479,4.486,7,0
					c-1.827-17.138-3.654-34.274-5.481-51.412C245.09,208.872,238.085,208.826,238.563,213.313L238.563,213.313z"/>
			</g>
		</g>
		<g>
			<g>
				<path style="fill:#FFFFFF;" d="M241.574,262.635c-6.555,0.699-13.109,1.398-19.664,2.098c0.482,0.633,0.964,1.266,1.446,1.898
					c4.863-16.563,9.727-33.126,14.59-49.689c-0.982-0.133-1.964-0.266-2.946-0.398c1.691,15.864,3.383,31.728,5.074,47.592
					c0.203,1.903,3.205,1.923,3,0c-1.691-15.864-3.383-31.728-5.074-47.592c-0.173-1.623-2.442-2.115-2.946-0.398
					c-4.863,16.563-9.727,33.126-14.59,49.689c-0.254,0.863,0.471,2.003,1.446,1.898c6.555-0.699,13.109-1.398,19.664-2.098
					C243.478,265.432,243.497,262.43,241.574,262.635z"/>
			</g>
		</g>
	</g>
	<g>
		<path style="fill:#FFFFFF;stroke:#FFFFFF;stroke-width:10;stroke-miterlimit:10;" d="M78.833,192.143
			c0,1.366,1.813,2.474,4.048,2.474h129.997c2.235,0,4.048-1.107,4.048-2.474v-14.429c0-1.367-1.813-2.473-4.048-2.473H82.881
			c-2.235,0-4.048,1.106-4.048,2.473V192.143z"/>
		<path style="fill:#FFFFFF;stroke:#FFFFFF;stroke-width:10;stroke-miterlimit:10;" d="M123.93,173.276
			c0,2.288,1.85,4.144,4.131,4.144h76.074c2.279,0,4.13-1.855,4.13-4.144v-18.299c0-2.289-1.851-4.143-4.13-4.143h-76.074
			c-2.281,0-4.131,1.854-4.131,4.143V173.276z"/>
		<g>
			<g>
				<path style="fill:#FFFFFF;" d="M212.926,141.328c0,23.732,0,47.465,0,71.198c0,6.448,10,6.448,10,0c0-23.732,0-47.465,0-71.198
					C222.926,134.879,212.926,134.879,212.926,141.328L212.926,141.328z"/>
			</g>
		</g>
		<g>
			<g>
				<path style="fill:#FFFFFF;" d="M69.833,134.802c0,26.163,0,52.326,0,78.489c0,6.448,10,6.448,10,0c0-26.163,0-52.326,0-78.489
					C79.833,128.354,69.833,128.354,69.833,134.802L69.833,134.802z"/>
			</g>
		</g>
		<path style="fill:#FFFFFF;stroke:#FFFFFF;stroke-width:10;stroke-miterlimit:10;" d="M84.32,167.314
			c0,0.775,0.59,1.403,1.32,1.403h24.316c0.729,0,1.32-0.628,1.32-1.403v-6.197c0-0.775-0.591-1.403-1.32-1.403H85.64
			c-0.729,0-1.32,0.628-1.32,1.403V167.314z"/>
	</g>
	<g>
		<g>
			<g>
				<path style="fill:#FFFFFF;" d="M194.96,77.292c31.303,0,62.605,0,93.908,0c4.514,0,4.514-7,0-7c-31.303,0-62.605,0-93.908,0
					C190.446,70.292,190.446,77.292,194.96,77.292L194.96,77.292z"/>
			</g>
		</g>
		
			<line style="fill:none;stroke:#FFFFFF;stroke-width:7;stroke-miterlimit:10;" x1="280.271" y1="152.791" x2="194.96" y2="152.791"/>
		
			<line style="fill:none;stroke:#FFFFFF;stroke-width:7;stroke-miterlimit:10;" x1="242.045" y1="86.98" x2="242.045" y2="150.834"/>
		<g>
			<g>
				<path style="fill:#FFFFFF;" d="M239.166,112.833c2.206,0,4.413,0,6.619,0c4.514,0,4.514-7,0-7c-2.206,0-4.413,0-6.619,0
					C234.652,105.833,234.652,112.833,239.166,112.833L239.166,112.833z"/>
			</g>
		</g>
		<g>
			<g>
				<path style="fill:#FFFFFF;" d="M277.476,75.875c-0.378,4.219-9.253,5.84-12.324,6.591c-7.512,1.837-15.365,2.27-23.069,2.325
					c-7.734,0.055-15.516-0.649-23.069-2.325c-3.067-0.681-11.95-2.42-12.324-6.591c-0.5,0.5-1,1-1.5,1.5
					c24.597-0.054,49.19-0.057,73.787,0c1.935,0.004,1.935-2.996,0-3c-24.597-0.057-49.19-0.054-73.787,0
					c-0.763,0.001-1.573,0.683-1.5,1.5c0.421,4.694,5.694,6.696,9.525,8.072c9.063,3.256,19.342,3.776,28.868,3.844
					c9.638,0.069,19.665-0.845,28.868-3.844c3.844-1.253,9.112-3.458,9.525-8.072C280.648,73.948,277.646,73.965,277.476,75.875z"/>
			</g>
		</g>
		<g>
			<g>
				<path style="fill:#FFFFFF;" d="M193.401,77.561c1.757,0.079,9.381-0.473,10.079,0.658c1.299,2.105,1.087,5.601,1.234,7.963
					c0.218,3.496,0.219,7.008,0.225,10.509c0.016,8.345,0.218,16.748-1.238,24.993c-0.921,5.215-3.456,16.95-10.3,17.424
					c0.5,0.5,1,1,1.5,1.5c-0.068-21.517-0.071-43.029,0-64.546c0.007-1.935-2.993-1.934-3,0c-0.071,21.517-0.068,43.029,0,64.546
					c0.003,0.775,0.682,1.557,1.5,1.5c6.842-0.475,9.932-8.157,11.756-13.766c3.302-10.148,2.768-21.125,2.782-31.651
					c0.007-4.623-0.05-9.255-0.483-13.86c-0.2-2.114-0.337-5.169-1.869-6.833c-2.276-2.471-9.146-1.3-12.186-1.437
					C191.467,74.474,191.475,77.474,193.401,77.561z"/>
			</g>
		</g>
		<g>
			<g>
				<path style="fill:#FFFFFF;" d="M290.463,74.288c-3.04,0.136-9.908-1.035-12.186,1.437c-1.552,1.685-1.622,4.702-1.868,6.833
					c-0.528,4.583-0.476,9.254-0.483,13.86c-0.02,10.652-0.229,21.327,2.781,31.651c1.641,5.626,5.035,13.3,11.756,13.766
					c0.818,0.057,1.498-0.725,1.5-1.5c0.068-21.517,0.071-43.029,0-64.546c-0.007-1.934-3.007-1.935-3,0
					c0.071,21.517,0.068,43.029,0,64.546c0.5-0.5,1-1,1.5-1.5c-6.938-0.481-9.24-12.208-10.299-17.424
					c-1.657-8.161-1.227-16.706-1.238-24.993c-0.009-5.594-0.895-13.227,1.459-18.472c0.45-1.002,8.504-0.587,10.078-0.658
					C292.39,77.201,292.397,74.201,290.463,74.288z"/>
			</g>
		</g>
		<g>
			<g>
				<path style="fill:#FFFFFF;" d="M290.463,183.989c-3.098-0.14-6.194-0.278-9.292-0.418c-0.721-0.032-1.51,0.037-2.215-0.104
					c-0.172-0.035-0.01-5.141-0.005-5.512c0.091-7.663,0.302-15.096,2.244-22.562c1.126-4.327,3.762-12.569,9.268-12.951
					c-0.5-0.5-1-1-1.5-1.5c0.047,14.85,0.135,29.697,0,44.546c-0.018,1.936,2.982,1.934,3,0c0.135-14.849,0.047-29.697,0-44.546
					c-0.002-0.775-0.682-1.557-1.5-1.5c-5.353,0.371-8.547,5.406-10.378,9.958c-3.689,9.176-4.024,18.797-4.134,28.555
					c-0.03,2.635-0.985,8.171,2.935,8.524c3.833,0.345,7.731,0.337,11.577,0.51C292.397,187.076,292.39,184.076,290.463,183.989z"/>
			</g>
		</g>
		<g>
			<g>
				<path style="fill:#FFFFFF;" d="M193.401,187.107c3.847-0.173,7.745-0.165,11.578-0.51c3.918-0.354,2.966-5.89,2.935-8.525
					c-0.115-9.76-0.443-19.375-4.135-28.555c-1.83-4.551-5.024-9.586-10.378-9.958c-0.818-0.057-1.497,0.725-1.5,1.5
					c-0.047,14.85-0.135,29.697,0,44.547c0.018,1.934,3.018,1.936,3,0c-0.135-14.85-0.047-29.697,0-44.547c-0.5,0.5-1,1-1.5,1.5
					c5.598,0.388,8.008,8.628,9.268,12.951c2.145,7.354,2.16,14.978,2.245,22.562c0.021,1.766,0.198,3.647-0.103,5.399
					c-0.049,0.281-1.595,0.194-2.117,0.218c-3.098,0.14-6.195,0.278-9.293,0.418C191.475,184.194,191.467,187.194,193.401,187.107z"
					/>
			</g>
		</g>
	</g>
</g>
<g id="Ebene_1">
</g>
</svg>
