<?xml version="1.0" encoding="iso-8859-1"?>
<!-- Generator: Adobe Illustrator 16.0.3, SVG Export Plug-In . SVG Version: 6.00 Build 0)  -->
<!DOCTYPE svg PUBLIC "-//W3C//DTD SVG 1.1//EN" "http://www.w3.org/Graphics/SVG/1.1/DTD/svg11.dtd">
<svg version="1.1" xmlns="http://www.w3.org/2000/svg" xmlns:xlink="http://www.w3.org/1999/xlink" x="0px" y="0px" width="361px"
	 height="361px" viewBox="0 0 361 361" style="enable-background:new 0 0 361 361;" xml:space="preserve">
<g id="scene_x5F_football">
	<circle style="fill:none;stroke:#FFFFFF;stroke-width:10;stroke-miterlimit:10;" cx="181.295" cy="180.777" r="106.019"/>
	<g style="display:none;">
		<polygon style="display:inline;fill:#FFFFFF;stroke:#FFFFFF;stroke-width:10;stroke-miterlimit:10;" points="289.337,144.77 
			264.337,101.468 289.337,58.167 339.337,58.167 364.337,101.468 339.337,144.77 		"/>
		<polygon style="display:inline;fill:#FFFFFF;stroke:#FFFFFF;stroke-width:10;stroke-miterlimit:10;" points="439.337,144.77 
			414.337,101.468 439.337,58.167 489.337,58.167 514.337,101.468 489.337,144.77 		"/>
		<polygon style="display:inline;fill:#FFFFFF;stroke:#FFFFFF;stroke-width:10;stroke-miterlimit:10;" points="589.337,144.77 
			564.337,101.468 589.337,58.167 639.337,58.167 664.337,101.468 639.337,144.77 		"/>
		<polygon style="display:inline;fill:none;stroke:#FFFFFF;stroke-width:10;stroke-miterlimit:10;" points="365.052,188.07 
			340.052,144.77 365.052,101.468 415.052,101.468 440.052,144.77 415.052,188.07 		"/>
		<polygon style="display:inline;fill:none;stroke:#FFFFFF;stroke-width:10;stroke-miterlimit:10;" points="513.837,188.07 
			488.837,144.77 513.837,101.468 563.837,101.468 588.837,144.77 563.837,188.07 		"/>
		<polygon style="display:inline;fill:none;stroke:#FFFFFF;stroke-width:10;stroke-miterlimit:10;" points="289.337,231.372 
			264.337,188.07 289.337,144.77 339.337,144.77 364.337,188.07 339.337,231.372 		"/>
		<polygon style="display:inline;fill:none;stroke:#FFFFFF;stroke-width:10;stroke-miterlimit:10;" points="439.337,231.372 
			414.337,188.07 439.337,144.77 489.337,144.77 514.337,188.07 489.337,231.372 		"/>
		<polygon style="display:inline;fill:none;stroke:#FFFFFF;stroke-width:10;stroke-miterlimit:10;" points="589.337,231.372 
			564.337,188.07 589.337,144.77 639.337,144.77 664.337,188.07 639.337,231.372 		"/>
		<polygon style="display:inline;fill:#FFFFFF;stroke:#FFFFFF;stroke-width:10;stroke-miterlimit:10;" points="365.052,274.674 
			340.052,231.372 365.052,188.07 415.052,188.07 440.052,231.372 415.052,274.674 		"/>
		<polygon style="display:inline;fill:#FFFFFF;stroke:#FFFFFF;stroke-width:10;stroke-miterlimit:10;" points="513.837,274.674 
			488.837,231.372 513.837,188.07 563.837,188.07 588.837,231.372 563.837,274.674 		"/>
		<polygon style="display:inline;fill:none;stroke:#FFFFFF;stroke-width:10;stroke-miterlimit:10;" points="289.337,317.975 
			264.337,274.674 289.337,231.372 339.337,231.372 364.337,274.674 339.337,317.975 		"/>
		<polygon style="display:inline;fill:none;stroke:#FFFFFF;stroke-width:10;stroke-miterlimit:10;" points="439.337,317.975 
			414.337,274.674 439.337,231.372 489.337,231.372 514.337,274.674 489.337,317.975 		"/>
		<polygon style="display:inline;fill:none;stroke:#FFFFFF;stroke-width:10;stroke-miterlimit:10;" points="589.337,317.975 
			564.337,274.674 589.337,231.372 639.337,231.372 664.337,274.674 639.337,317.975 		"/>
		<polygon style="display:inline;fill:none;stroke:#FFFFFF;stroke-width:10;stroke-miterlimit:10;" points="365.052,361.276 
			340.052,317.975 365.052,274.674 415.052,274.674 440.052,317.975 415.052,361.276 		"/>
		<polygon style="display:inline;fill:none;stroke:#FFFFFF;stroke-width:10;stroke-miterlimit:10;" points="513.837,361.276 
			488.837,317.975 513.837,274.674 563.837,274.674 588.837,317.975 563.837,361.276 		"/>
		<polygon style="display:inline;fill:#FFFFFF;stroke:#FFFFFF;stroke-width:10;stroke-miterlimit:10;" points="289.337,404.577 
			264.337,361.276 289.337,317.975 339.337,317.975 364.337,361.276 339.337,404.577 		"/>
		<polygon style="display:inline;fill:#FFFFFF;stroke:#FFFFFF;stroke-width:10;stroke-miterlimit:10;" points="439.337,404.577 
			414.337,361.276 439.337,317.975 489.337,317.975 514.337,361.276 489.337,404.577 		"/>
		<polygon style="display:inline;fill:#FFFFFF;stroke:#FFFFFF;stroke-width:10;stroke-miterlimit:10;" points="589.337,404.577 
			564.337,361.276 589.337,317.975 639.337,317.975 664.337,361.276 639.337,404.577 		"/>
		<polygon style="display:inline;fill:none;stroke:#FFFFFF;stroke-width:10;stroke-miterlimit:10;" points="365.052,447.878 
			340.052,404.577 365.052,361.276 415.052,361.276 440.052,404.577 415.052,447.878 		"/>
		<polygon style="display:inline;fill:none;stroke:#FFFFFF;stroke-width:10;stroke-miterlimit:10;" points="513.837,447.878 
			488.837,404.577 513.837,361.276 563.837,361.276 588.837,404.577 563.837,447.878 		"/>
	</g>
	<g>
		<path style="fill:#FFFFFF;stroke:#FFFFFF;stroke-width:7;stroke-linecap:round;stroke-linejoin:round;stroke-miterlimit:10;" d="
			M194.533,100.13c-2.639-11.519-3.851-16.243-5.995-22.342c10.317-1.158,14.739-0.506,20.553,3.831
			c10.188,4.369,15.306,6.583,25.465,11.019c7.142,1.269,10.642,4.045,16.862,12.358c-5.914,2.613-10.186,4.963-20.387,10.926
			C218.992,110.371,206.821,105.104,194.533,100.13z"/>
		<path style="fill:#FFFFFF;stroke:#FFFFFF;stroke-width:7;stroke-linecap:round;stroke-linejoin:round;stroke-miterlimit:10;" d="
			M97.858,170.698c-0.189-12.405,0.144-24.817,0.913-37.199c8.89-9.22,18.295-17.953,28.309-25.944
			c11.941,3.065,23.679,6.875,35.263,11.084c1.331,13.723,2.775,27.433,4.247,41.141c-11.89,8.841-23.675,17.797-35.365,26.9
			C119.99,181.584,108.855,176.288,97.858,170.698z"/>
		<path style="fill:#FFFFFF;stroke:#FFFFFF;stroke-width:7;stroke-linecap:round;stroke-linejoin:round;stroke-miterlimit:10;" d="
			M211.451,221.391c-1.367-14.751-2.904-29.471-4.598-44.187c10.995-8.31,21.976-16.637,32.879-25.067
			c10.983,5.558,21.784,11.503,32.176,18.11c1.021,12.764,1.092,25.59,0.446,38.374c-8.483,9.039-17.302,17.768-26.457,26.125
			C234.31,230.564,222.842,226.083,211.451,221.391z"/>
		<path style="fill:#FFFFFF;stroke:#FFFFFF;stroke-width:7;stroke-linecap:round;stroke-linejoin:round;stroke-miterlimit:10;" d="
			M116.104,264.955c-2.593-5.308-4.703-10.81-6.866-16.476c9.091-6.295,18.201-12.56,27.29-18.857
			c13.165,6.036,26.409,11.769,39.822,17.231c1.63,10.936,3.299,21.864,4.933,32.799c-4.906,2.015-9.693,3.973-14.593,5.598
			C162.422,286.666,117.755,268.334,116.104,264.955z"/>
	</g>
</g>
<g id="Ebene_1">
</g>
</svg>
