<?xml version="1.0" encoding="iso-8859-1"?>
<!-- Generator: Adobe Illustrator 16.0.0, SVG Export Plug-In . SVG Version: 6.00 Build 0)  -->
<!DOCTYPE svg PUBLIC "-//W3C//DTD SVG 1.1 Tiny//EN" "http://www.w3.org/Graphics/SVG/1.1/DTD/svg11-tiny.dtd">
<svg version="1.1" baseProfile="tiny" id="scene_x5F_summerhouse"
	 xmlns="http://www.w3.org/2000/svg" xmlns:xlink="http://www.w3.org/1999/xlink" x="0px" y="0px" width="361px" height="361px"
	 viewBox="0 0 361 361" xml:space="preserve">
<path fill="#FFFFFF" d="M111.814,290.175c0,2.413-1.42,4.37-3.172,4.37h-8.989c-1.752,0-3.172-1.957-3.172-4.37v-81.26
	c0-2.413,1.42-4.37,3.172-4.37h8.989c1.752,0,3.172,1.957,3.172,4.37V290.175z"/>
<g>
	<path fill="#FFFFFF" d="M110.517,244.581c7.611-9.278,15.222-18.556,22.833-27.833c4.054-4.942-2.978-12.061-7.071-7.071
		c-7.611,9.278-15.222,18.556-22.833,27.833C99.392,242.451,106.424,249.57,110.517,244.581L110.517,244.581z"/>
</g>
<path fill="#FFFFFF" d="M160.454,195.128c0,2.577-1.991,4.667-4.449,4.667H96.139c-2.458,0-4.449-2.089-4.449-4.667v-30.917
	c0-2.577,1.991-4.667,4.449-4.667h59.866c2.458,0,4.449,2.089,4.449,4.667V195.128z"/>
<path fill="#FFFFFF" d="M152.726,172.393c0,2.155-1.747,3.902-3.901,3.902h-48.608c-2.155,0-3.902-1.747-3.902-3.902v-21.946
	c0-2.155,1.747-3.902,3.902-3.902h48.608c2.154,0,3.901,1.747,3.901,3.902V172.393z"/>
<path fill="#FFFFFF" d="M125.193,167.494c0,1.438-1.547,2.605-3.456,2.605H88.77c-1.908,0-3.455-1.167-3.455-2.605V135.9
	c0-1.438,1.547-2.605,3.455-2.605h32.968c1.908,0,3.456,1.167,3.456,2.605V167.494z"/>
<path fill="#FFFFFF" d="M141.565,156.545c0,3.313-2.687,6-6,6h-9.875c-3.313,0-6-2.687-6-6V137.17c0-3.313,2.687-6,6-6h9.875
	c3.313,0,6,2.687,6,6V156.545z"/>
<path fill="#FFFFFF" d="M106.44,198.295c0,3.313-2.687,6-6,6H84.69c-3.313,0-6-2.687-6-6v-15.75c0-3.313,2.687-6,6-6h15.75
	c3.313,0,6,2.687,6,6V198.295z"/>
<path fill="#FFFFFF" d="M99.065,166.545c0,3.313-3.471,6-7.753,6H78.068c-4.282,0-7.753-2.687-7.753-6v-22.75
	c0-3.313,3.471-6,7.753-6h13.244c4.282,0,7.753,2.687,7.753,6V166.545z"/>
<path fill="#FFFFFF" d="M89.315,194.545c0,3.313-2.687,6-6,6h-10c-3.313,0-6-2.687-6-6v-40.333c0-3.313,2.687-6,6-6h10
	c3.313,0,6,2.687,6,6V194.545z"/>
<path fill="#FFFFFF" d="M152.648,208.878c0,3.313-2.687,6-6,6H76.315c-3.313,0-6-2.687-6-6v-8c0-3.313,2.687-6,6-6h70.333
	c3.313,0,6,2.687,6,6V208.878z"/>
<path fill="#FFFFFF" d="M105.565,214.545c0,2.624-2.126,4.75-4.75,4.75h-12c-2.624,0-4.75-2.126-4.75-4.75l0,0
	c0-2.624,2.126-4.75,4.75-4.75h12C103.438,209.795,105.565,211.921,105.565,214.545L105.565,214.545z"/>
<g id="Vogel">
	<g>
		<path fill="#FFFFFF" d="M253.551,124.206c3.133-3.946,6.266-7.892,9.398-11.837c1.693-2.132,2.091-4.98,0-7.071
			c-1.762-1.761-5.374-2.138-7.071,0c-3.133,3.946-6.266,7.892-9.398,11.837c-1.693,2.132-2.091,4.98,0,7.071
			C248.241,125.967,251.853,126.343,253.551,124.206L253.551,124.206z"/>
	</g>
	<g>
		<path fill="#FFFFFF" d="M259.805,112.489c5.013-0.507,10.025-1.015,15.038-1.522c2.71-0.274,5-2.067,5-5c0-2.518-2.283-5.275-5-5
			c-5.013,0.507-10.025,1.015-15.038,1.522c-2.71,0.274-5,2.067-5,5C254.805,110.006,257.088,112.764,259.805,112.489
			L259.805,112.489z"/>
	</g>
	<g>
		<path fill="#FFFFFF" d="M250.742,116.303c-4.906-1.145-9.813-2.289-14.719-3.434c-6.274-1.464-8.937,8.178-2.658,9.643
			c4.906,1.145,9.813,2.289,14.719,3.434C254.358,127.409,257.021,117.768,250.742,116.303L250.742,116.303z"/>
	</g>
	<g>
		<path fill="#FFFFFF" d="M230.432,112.819c-4.26,2.691-8.519,5.382-12.778,8.073c-5.435,3.434-0.422,12.09,5.047,8.635
			c4.26-2.691,8.519-5.382,12.778-8.073C240.914,118.021,235.901,109.364,230.432,112.819L230.432,112.819z"/>
	</g>
</g>
<g>
	<polygon fill="#FFFFFF" points="211.766,211.844 191.589,166.844 284.311,211.844 	"/>
	<g>
		<path fill="#FFFFFF" d="M216.083,209.321c-6.726-15-13.451-30-20.177-45c-2.28,2.28-4.561,4.561-6.841,6.841
			c30.907,15,61.814,30,92.721,45c0.841-3.106,1.682-6.211,2.523-9.317c-24.182,0-48.363,0-72.544,0c-6.449,0-6.449,10,0,10
			c24.182,0,48.363,0,72.544,0c4.744,0,7.137-7.078,2.523-9.317c-30.907-15-61.814-30-92.721-45
			c-4.709-2.286-8.903,2.241-6.841,6.841c6.726,15,13.451,30,20.177,45C210.083,220.243,218.699,215.153,216.083,209.321z"/>
	</g>
</g>
<g>
	<path fill="#FFFFFF" d="M274.535,284.247c-0.599,4.104-8.698,3.265-12.126,3.265c-5.653,0-11.306,0-16.959,0
		c-15.967,0-31.935,0-47.901,0c-9.342,0-18.684,0-28.026,0c-1.762,0-7.112-0.305-7.112-2.955c0-1.701,0-3.401,0-5.102
		c0-6.589,0-13.179,0-19.768c0-14.455,0-28.91,0-43.364c0-1.403,0-2.807,0-4.21c0-2.479,5.71-2.768,7.271-2.768
		c3.237,0,6.475,0,9.712,0c27.972,0,55.943,0,83.915,0c4.02,0,11.102-0.855,11.102,4.356c0,7.823,0,15.646,0,23.469
		c0,16.002,0,32.005,0,48.008c0,4.514,7,4.514,7,0c0-23.826,0-47.651,0-71.477c0-11.267-11.879-11.356-20.497-11.356
		c-14.001,0-28.002,0-42.003,0c-14.155,0-28.311,0-42.466,0c-8.444,0-21.034-0.289-21.034,11.016c0,23.933,0,47.866,0,71.8
		c0,10.615,15.384,9.352,22.751,9.352c12.917,0,25.833,0,38.75,0c13.291,0,26.583,0,39.874,0c7.631,0,23.005,1.828,24.5-8.403
		C281.929,281.694,275.185,279.794,274.535,284.247z"/>
</g>
<g>
	<polygon fill="#FFFFFF" points="211.15,211.844 191.327,166.844 138.606,211.844 	"/>
	<g>
		<path fill="#FFFFFF" d="M215.468,209.321c-6.608-15-13.215-30-19.823-45c-1.394-3.165-5.653-2.89-7.853-1.012
			c-17.574,15-35.147,30-52.721,45c-3.422,2.921-0.575,8.536,3.536,8.536c24.182,0,48.363,0,72.544,0c6.449,0,6.449-10,0-10
			c-24.182,0-48.363,0-72.544,0c1.179,2.845,2.357,5.69,3.536,8.536c17.574-15,35.147-30,52.721-45
			c-2.618-0.337-5.235-0.675-7.853-1.012c6.608,15,13.215,30,19.823,45C209.428,220.258,218.042,215.164,215.468,209.321z"/>
	</g>
</g>
<g id="Fenster">
	<g>
		<path fill="#FFFFFF" d="M262.463,248.722c-0.7,2.749-12.254,1.261-14.069,1.261c-6.037,0-12.074,0-18.111,0
			c-1.072,0-3.735,0.352-3.735-1.323c0-2.473,0-4.946,0-7.419c0-5.171,0-10.343,0-15.514c0-1.857,29.226-0.915,32.127-0.915
			c1.072,0,3.735-0.352,3.735,1.323c0,2.473,0,4.946,0,7.419c0,5.189,0,10.378,0,15.567c0,1.935,3,1.935,3,0
			c0-6.073,0-12.146,0-18.218c0-4.16,0.692-9.091-5.075-9.091c-6.59,0-13.181,0-19.771,0c-4.473,0-11.266-1.315-15.401,0.896
			c-1.722,0.921-1.615,3.064-1.615,4.702c0,3.654,0,7.309,0,10.963c0,2.915-1.89,13.601,2.919,14.371
			c5.195,0.832,10.799,0.239,16.041,0.239c6.09,0,12.181,0,18.271,0c2.33,0,4.017-1.259,4.577-3.463
			C265.833,247.644,262.94,246.848,262.463,248.722z"/>
	</g>
	<g>
		<path fill="#FFFFFF" d="M242.979,223.311c0,9.391,0,18.781,0,28.171c0,1.935,3,1.935,3,0c0-9.391,0-18.781,0-28.171
			C245.979,221.376,242.979,221.376,242.979,223.311L242.979,223.311z"/>
	</g>
	<g>
		<path fill="#FFFFFF" d="M225.048,238.897c12.954,0,25.908,0,38.862,0c1.935,0,1.935-3,0-3c-12.954,0-25.908,0-38.862,0
			C223.113,235.897,223.113,238.897,225.048,238.897L225.048,238.897z"/>
	</g>
</g>
<g id="Tuer">
	<g>
		<path fill="#FFFFFF" d="M198.123,286.361c-0.569,2.819-5.883,1.733-7.77,1.733c-4.028,0-8.056,0-12.083,0
			c-1.36,0-5.2,0.683-5.2-1.677c0-1.74,0-3.479,0-5.22c0-14.74,0-29.479,0-44.219c0-1.767-1.372-10.997,1.825-10.997
			c6.667,0,13.333,0,20,0c4.648,0,3.175,5.442,3.175,8.836c0,7.407,0,14.813,0,22.22c0,9.907,0,19.814,0,29.722c0,1.935,3,1.935,3,0
			c0-11.552,0-23.103,0-34.655c0-6.795,0-13.59,0-20.385c0-3.312,0.589-8.738-4.334-8.738c-6.155,0-12.31,0-18.465,0
			c-3.91,0-8.2-0.054-8.2,5.092c0,13.215,0,26.43,0,39.645c0,5.226,0,10.452,0,15.678c0,3.34-0.211,6.806,3.936,7.644
			c4.773,0.964,10.58,0.054,15.433,0.054c4.045,0,10.506,1.375,11.578-3.937C201.397,285.27,198.505,284.465,198.123,286.361z"/>
	</g>
	<g>
		<path fill="#FFFFFF" d="M193.048,255.095c1.111,0,2.222,0,3.333,0c1.935,0,1.935-3,0-3c-1.111,0-2.222,0-3.333,0
			C191.113,252.095,191.113,255.095,193.048,255.095L193.048,255.095z"/>
	</g>
	<g>
		<g>
			<path fill="#FFFFFF" d="M193.966,244.365c-0.375,1.363-14.26,0.382-16.32,0.382c-0.865,0-0.42-12.865-0.42-14.665
				c0-0.071,14.959-0.036,16.491-0.036c0.394,0,0.195,13.149,0.195,14.717c0,1.935,3,1.935,3,0c0-3.562,0-7.124,0-10.685
				c0-2.446,0.707-7.032-3.056-7.032c-3.783,0-7.565,0-11.348,0c-2.861,0-7.25-0.976-8.229,2.585
				c-0.835,3.038-0.054,7.255-0.054,10.38c0,2.451-0.901,7.734,3.008,7.734c3.798,0,7.597,0,11.396,0c2.86,0,7.25,0.976,8.229-2.584
				C197.373,243.294,194.479,242.502,193.966,244.365z"/>
		</g>
		<g>
			<path fill="#FFFFFF" d="M184.069,228.547c0,5.9,0,11.8,0,17.7c0,1.935,3,1.935,3,0c0-5.9,0-11.8,0-17.7
				C187.069,226.612,184.069,226.612,184.069,228.547L184.069,228.547z"/>
		</g>
		<g>
			<path fill="#FFFFFF" d="M175.726,238.897c6.562,0,13.125,0,19.687,0c1.935,0,1.935-3,0-3c-6.562,0-13.125,0-19.687,0
				C173.792,235.897,173.792,238.897,175.726,238.897L175.726,238.897z"/>
		</g>
	</g>
</g>
<g>
	<path fill="#FFFFFF" d="M87.658,292.963c0.022-7.596-0.307-15.865,2.149-23.168c1.249-3.712,4.352-5.884,7.204-8.313
		c1.476-1.256-0.657-3.368-2.121-2.121c-2.96,2.52-5.959,4.772-7.511,8.467c-3.213,7.654-2.697,17.041-2.721,25.134
		C84.652,294.899,87.652,294.898,87.658,292.963L87.658,292.963z"/>
</g>
<g>
	<path fill="#FFFFFF" d="M81.701,292.963c0.04-7.536-0.21-16.394,3.811-23.098c2.419-4.034,7.304-5.902,11.196-8.148
		c1.675-0.966,0.165-3.559-1.514-2.591c-4.34,2.504-8.849,4.513-11.894,8.655c-4.957,6.743-4.558,17.329-4.599,25.181
		C78.69,294.899,81.69,294.898,81.701,292.963L81.701,292.963z"/>
</g>
<g>
	<path fill="#FFFFFF" d="M97.784,292.963c0.049-6.598-0.401-16.324,4.525-21.6c1.479-1.584,3.773-1.982,4.037-4.438
		c0.207-1.922-2.795-1.902-3,0c-0.014,0.132-3.935,3.174-4.574,4.094c-4.139,5.953-3.938,15.098-3.988,21.943
		C94.77,294.899,97.77,294.897,97.784,292.963L97.784,292.963z"/>
</g>
<g>
	<path fill="#FFFFFF" d="M91.773,293.363c1.042-5.548,1.42-14.122,5.206-18.737c2.219-2.707,6.288-4.275,8.929-6.639
		c1.445-1.292-0.685-3.407-2.121-2.121c-2.806,2.511-6.811,4.056-9.2,6.969c-4.108,5.01-4.575,13.709-5.706,19.73
		C88.525,294.456,91.416,295.262,91.773,293.363L91.773,293.363z"/>
</g>
<g>
	<path fill="#FFFFFF" d="M77.275,293.075c-0.04-5.098-0.108-10.867-2.662-15.453c-0.558-1.002-1.361-1.87-2.276-2.551
		c-0.647-0.48-1.229-1.219-1.152-0.518c-0.21-1.901-3.212-1.922-3,0c0.199,1.805,1.552,2.172,2.756,3.229
		c3.762,3.301,3.3,10.904,3.334,15.293C74.29,295.008,77.29,295.009,77.275,293.075L77.275,293.075z"/>
</g>
<g>
	<path fill="#FFFFFF" d="M81.459,292.675c-0.823-4.38-1.216-10.154-3.93-13.916c-1.64-2.272-4.714-3.417-6.784-5.267
		c-1.438-1.285-3.566,0.829-2.121,2.121c1.893,1.691,4.327,2.768,6.136,4.49c0.954,0.908,1.321,2.383,1.687,3.595
		c0.96,3.185,1.506,6.512,2.12,9.774C78.923,295.373,81.814,294.566,81.459,292.675L81.459,292.675z"/>
</g>
<g>
	<path fill="#FFFFFF" d="M130.134,293.075c0.047-7.559-0.078-16.375,4.069-23.037c2.11-3.39,5.992-5.196,8.972-7.692
		c1.485-1.244-0.649-3.354-2.121-2.121c-3.296,2.761-6.954,4.666-9.441,8.3c-4.63,6.764-4.43,16.777-4.479,24.551
		C127.122,295.009,130.122,295.008,130.134,293.075L130.134,293.075z"/>
</g>
<g>
	<path fill="#FFFFFF" d="M124.177,293.075c0.066-7.717,0.262-16.978,5.863-22.975c3.381-3.622,8.623-5.12,12.832-7.52
		c1.68-0.958,0.169-3.55-1.514-2.591c-4.771,2.721-10.11,4.424-13.947,8.532c-5.891,6.308-6.166,16.485-6.234,24.553
		C121.16,295.009,124.16,295.008,124.177,293.075L124.177,293.075z"/>
</g>
<g>
	<path fill="#FFFFFF" d="M137.939,292.827c0.033-4.581-0.399-11.54,2.875-15.322c1.091-1.261,2.609-1.587,2.801-3.473
		c0.196-1.924-2.806-1.905-3,0c0.056-0.554-2.553,2.1-2.977,2.768c-2.832,4.458-2.663,11.005-2.698,16.027
		C134.926,294.761,137.926,294.76,137.939,292.827L137.939,292.827z"/>
</g>
<g>
	<path fill="#FFFFFF" d="M133.937,293.225c0.718-4.16,0.955-9.754,3.371-13.4c1.249-1.884,4.229-3.138,5.868-4.732
		c1.388-1.352-0.735-3.471-2.121-2.121c-1.872,1.822-4.577,3.003-6.148,5.09c-2.841,3.772-3.097,9.935-3.862,14.366
		C130.718,294.319,133.608,295.128,133.937,293.225L133.937,293.225z"/>
</g>
<g>
	<path fill="#FFFFFF" d="M118.144,292.936c-0.023-6.191,1.276-16.396-4.54-20.455c-1.591-1.11-3.088,1.492-1.515,2.59
		c0.888,0.619,1.206,0.58,1.647,1.779c1.808,4.904,1.388,10.975,1.407,16.086C115.151,294.871,118.151,294.872,118.144,292.936
		L118.144,292.936z"/>
</g>
<g>
	<path fill="#FFFFFF" d="M124.123,292.538c-0.786-4.545-1.104-10.4-3.748-14.384c-1.517-2.284-4.518-3.544-6.468-5.438
		c-1.388-1.348-3.511,0.771-2.121,2.121c1.789,1.738,4.133,2.878,5.84,4.646c0.921,0.953,1.246,2.514,1.586,3.74
		c0.917,3.305,1.434,6.738,2.018,10.112C121.56,295.239,124.45,294.429,124.123,292.538L124.123,292.538z"/>
</g>
</svg>
