<?xml version="1.0" encoding="iso-8859-1"?>
<!-- Generator: Adobe Illustrator 16.0.0, SVG Export Plug-In . SVG Version: 6.00 Build 0)  -->
<!DOCTYPE svg PUBLIC "-//W3C//DTD SVG 1.1//EN" "http://www.w3.org/Graphics/SVG/1.1/DTD/svg11.dtd">
<svg version="1.1" xmlns="http://www.w3.org/2000/svg" xmlns:xlink="http://www.w3.org/1999/xlink" x="0px" y="0px" width="361px"
	 height="361px" viewBox="0 0 361 361" style="enable-background:new 0 0 361 361;" xml:space="preserve">
<g id="scene_x5F_fitness">
	<g>
		<g>
			<path style="fill:#FFFFFF;" d="M243.764,140.352c2.348,34.78,4.695,69.56,7.043,104.339c0.303,4.479,7.305,4.509,7,0
				c-2.348-34.779-4.695-69.56-7.043-104.339C250.461,135.873,243.459,135.844,243.764,140.352L243.764,140.352z"/>
		</g>
	</g>
	<g>
		<g>
			<g>
				<path style="fill:#FFFFFF;" d="M237.137,246.75c-46.014-1.837-92.027-3.674-138.04-5.511c-0.25-0.011-0.5-0.021-0.75-0.03
					c-6.451-0.258-6.426,9.743,0,10c46.013,1.837,92.026,3.674,138.04,5.511c0.25,0.011,0.5,0.021,0.75,0.03
					C243.588,257.008,243.563,247.007,237.137,246.75L237.137,246.75z"/>
			</g>
		</g>
		<g>
			<g>
				<path style="fill:#FFFFFF;" d="M232.487,239.524c-23.723-1.072-47.445-2.145-71.168-3.218
					c-9.691-0.438-9.734,14.568-0.108,15.004c23.723,1.072,47.446,2.145,71.169,3.218
					C242.07,254.966,242.114,239.96,232.487,239.524L232.487,239.524z"/>
			</g>
		</g>
	</g>
	<g>
		<g>
			<path style="fill:#FFFFFF;" d="M83.285,240.107c0.39,20.711,16.785,37.104,37.495,37.494s37.116-17.37,37.495-37.494
				c0.39-20.711-17.371-37.117-37.495-37.496C100.069,202.222,83.664,219.983,83.285,240.107c-0.037,1.936,2.964,1.933,3,0
				c0.359-19.067,15.427-34.137,34.495-34.496c19.069-0.359,34.146,15.969,34.495,34.496c0.359,19.068-15.969,34.146-34.495,34.494
				c-19.068,0.359-34.146-15.967-34.495-34.494C86.249,238.175,83.249,238.172,83.285,240.107z"/>
		</g>
	</g>
	<g>
		<g>
			<g>
				<path style="fill:#FFFFFF;" d="M93.317,274.357c-9.771-9.629-17.333-22.544-16.722-36.613
					c0.501-11.542,6.244-22.243,14.63-29.971c19.671-18.125,51.495-12.697,65.902,9.05c1.162,1.753,3.95,2.512,5.497,0.708
					c0.061-0.07,0.122-0.142,0.183-0.213c-1.135,0.301-2.271,0.601-3.406,0.9c21.391,7.287,42.783,14.574,64.173,21.861
					c14.04,4.783,28.079,9.565,42.119,14.349c4.152,1.414,8.304,2.828,12.456,4.243c2.768,0.942,6.712,1.691,6.712,5.254
					c0,3.362,0,6.725,0,10.087c0,2.471,0.893,7.221-0.821,9.396c-1.139,1.445-4.473,0.908-5.98,0.908c-9.682,0-19.364,0-29.047,0
					c-31.569,0-63.14,0-94.71,0c-17.617,0-35.235,0-52.852,0c-4.514,0-4.514,7,0,7c49.971,0,99.942,0,149.913,0
					c9.203,0,18.406,0,27.609,0c2.411,0,5.138,0.235,7.306-0.996c7.076-4.022,5.583-12.321,5.583-19.234
					c0-7.088,0.747-15.303-7.868-17.853c-2.082-0.616-4.127-1.36-6.183-2.062c-11.595-3.949-23.189-7.899-34.784-11.85
					c-27.255-9.284-54.51-18.568-81.764-27.854c-1.095-0.373-2.646,0.014-3.406,0.9c-0.061,0.07-0.122,0.142-0.183,0.213
					c1.833,0.236,3.665,0.472,5.497,0.708c-16.794-25.352-51.028-30.786-74.917-12.145c-10.905,8.51-17.181,21.657-18.559,35.226
					c-1.642,16.174,7.516,31.942,18.672,42.936C91.584,282.477,96.536,277.529,93.317,274.357L93.317,274.357z"/>
			</g>
		</g>
		<g>
			<g>
				<path style="fill:#FFFFFF;" d="M268.413,282.625c0.268,3.31,1.665,5.82,4.512,7.587c2.04,1.267,4.611,1.052,6.904,1.052
					c2.31,0,4.606,0.18,6.783-0.74c3.324-1.404,4.969-4.423,5.249-7.898c0.255-3.16-1.995-6.027-4.512-7.589
					c-2.04-1.267-4.612-1.052-6.905-1.052c-2.31,0-4.606-0.18-6.782,0.74C270.337,276.13,268.693,279.149,268.413,282.625
					c-0.363,4.502,6.64,4.468,7,0c0.176-2.18,2.907-1.641,4.416-1.641c1.564,0,4.847-0.662,5.032,1.641
					c0.175,2.168-3.179,1.639-4.417,1.639c-1.563,0-4.846,0.662-5.031-1.639C275.053,278.158,268.05,278.123,268.413,282.625z"/>
			</g>
		</g>
		<g>
			<g>
				<path style="fill:#FFFFFF;" d="M81.882,282.978c0.267,3.31,1.665,5.821,4.511,7.588c2.04,1.267,4.612,1.052,6.904,1.052
					c2.31,0,4.607,0.18,6.783-0.74c3.325-1.404,4.969-4.424,5.249-7.899c0.255-3.16-1.996-6.027-4.511-7.588
					c-2.04-1.267-4.612-1.052-6.905-1.052c-2.31,0-4.607-0.18-6.783,0.74C83.806,276.482,82.163,279.502,81.882,282.978
					c-0.363,4.503,6.64,4.468,7,0c0.176-2.179,2.908-1.64,4.416-1.64c1.564,0,4.847-0.662,5.032,1.64
					c0.175,2.169-3.177,1.64-4.416,1.64c-1.564,0-4.846,0.662-5.032-1.64C88.522,278.51,81.519,278.475,81.882,282.978z"/>
			</g>
		</g>
	</g>
	<g>
		<g>
			<path style="fill:#FFFFFF;" d="M242.829,252.687c6.004-16.5,11.417-33.238,16.442-50.06c4.055-13.576,7.783-27.27,10.729-41.132
				c2.346-11.037,4.721-22.794,3.848-34.135c-0.491-6.387-10.495-6.435-10,0c0.81,10.522-1.351,21.231-3.49,31.477
				c-2.896,13.871-6.694,27.554-10.729,41.131c-5.001,16.827-10.439,33.563-16.442,50.061
				C230.977,256.103,240.643,258.696,242.829,252.687L242.829,252.687z"/>
			<path style="fill:#FFFFFF;" d="M263.761,73.348c-1.519,5.487-2.505,11.106-4.515,16.447c-2.407,6.395-5.664,11.901-6.52,18.803
				c-0.607,4.905,1.304,11.131,3.773,15.347c2.182,3.723,6.177,5.75,9.824,7.732c5.667,3.079,10.714-5.555,5.047-8.635
				c-2.448-1.331-5.223-2.416-6.681-4.904c-2.065-3.523-2.364-8.317-1.384-12.161c1.32-5.182,4.212-9.885,6.09-14.874
				c1.829-4.86,2.625-10.103,4.007-15.098C275.126,69.78,265.478,67.141,263.761,73.348L263.761,73.348z"/>
		</g>
	</g>
	<g>
		<g>
			<path style="fill:#FFFFFF;" d="M265.819,245.624c-2.569-17.376-5.771-34.681-9.354-51.874
				c-2.891-13.872-6.124-27.69-10.128-41.286c-3.182-10.806-6.72-22.233-12.876-31.772c-3.483-5.397-12.143-0.389-8.635,5.047
				c5.724,8.869,8.876,19.354,11.868,29.384c4.05,13.58,7.219,27.423,10.128,41.286c3.607,17.187,6.785,34.5,9.354,51.874
				C257.117,254.643,266.752,251.93,265.819,245.624L265.819,245.624z"/>
			<path style="fill:#FFFFFF;" d="M199.048,78.398c1.416,6.15,3.482,12.106,3.949,18.434c0.442,6.002,0.491,12.519,3.255,18.023
				c2.208,4.399,5.961,8.323,10.035,11.055c3.736,2.506,8.569,2.318,12.856,2.305c6.447-0.02,6.449-10.02,0-10
				c-2.776,0.008-6.075,0.495-8.423-1.338c-3.575-2.793-5.829-6.284-6.801-10.658c-1.13-5.08-0.888-10.458-1.623-15.61
				c-0.719-5.033-2.467-9.922-3.606-14.869C207.243,69.457,197.603,72.122,199.048,78.398L199.048,78.398z"/>
		</g>
	</g>
	<g>
		<g>
			<path style="fill:#FFFFFF;" d="M228.737,151.568c10.763-4.263,21.526-8.526,32.289-12.79c5.922-2.346,3.344-12.02-2.658-9.643
				c-10.763,4.263-21.526,8.526-32.289,12.79C220.157,144.271,222.735,153.946,228.737,151.568L228.737,151.568z"/>
		</g>
	</g>
</g>
<g id="Ebene_1">
</g>
</svg>
