<?xml version="1.0" encoding="iso-8859-1"?>
<!-- Generator: Adobe Illustrator 16.0.0, SVG Export Plug-In . SVG Version: 6.00 Build 0)  -->
<!DOCTYPE svg PUBLIC "-//W3C//DTD SVG 1.1//EN" "http://www.w3.org/Graphics/SVG/1.1/DTD/svg11.dtd">
<svg version="1.1" xmlns="http://www.w3.org/2000/svg" xmlns:xlink="http://www.w3.org/1999/xlink" x="0px" y="0px" width="361px"
	 height="361px" viewBox="0 0 361 361" style="enable-background:new 0 0 361 361;" xml:space="preserve">
<g id="scene_x5F_sleeping_x5F_alternat">
	<path style="fill:#FFFFFF;stroke:#FFFFFF;stroke-width:10;stroke-miterlimit:10;" d="M286.833,212.73
		c0,1.622-2.595,2.937-5.795,2.937H80.628c-3.2,0-5.795-1.314-5.795-2.937v-17.127c0-1.622,2.595-2.937,5.795-2.937h200.41
		c3.2,0,5.795,1.314,5.795,2.937V212.73z"/>
	<path style="fill:#FFFFFF;stroke:#FFFFFF;stroke-width:10;stroke-miterlimit:10;" d="M214.112,184.09
		c0,3.152-2.901,5.709-6.478,5.709H88.337c-3.577,0-6.478-2.557-6.478-5.709v-25.214c0-3.153,2.901-5.709,6.478-5.709h119.298
		c3.576,0,6.478,2.556,6.478,5.709V184.09z"/>
	<g>
		<g>
			<path style="fill:#FFFFFF;" d="M69.833,172.39c0,21.511,0,43.023,0,64.535c0,6.448,10,6.448,10,0c0-21.512,0-43.023,0-64.535
				C79.833,165.941,69.833,165.941,69.833,172.39L69.833,172.39z"/>
		</g>
	</g>
	<g>
		<g>
			<path style="fill:#FFFFFF;" d="M281.833,144.667c0,31.056,0,62.111,0,93.167c0,6.448,10,6.448,10,0c0-31.056,0-62.111,0-93.167
				C291.833,138.218,281.833,138.218,281.833,144.667L281.833,144.667z"/>
		</g>
	</g>
	<g>
		<g>
			<path style="fill:#FFFFFF;" d="M222.331,156.113c0,9.333,0,18.667,0,28c0,9.686,15.004,9.771,15.004,0.107c0-9.333,0-18.667,0-28
				C237.335,146.535,222.331,146.449,222.331,156.113L222.331,156.113z"/>
		</g>
	</g>
	<g>
		<g>
			<path style="fill:#FFFFFF;" d="M262.887,176.166c-9.333,0-18.666,0-28,0c-9.686,0-9.771,15.003-0.107,15.003
				c9.333,0,18.666,0,28,0C272.465,191.169,272.551,176.166,262.887,176.166L262.887,176.166z"/>
		</g>
	</g>
	<circle style="fill:#FFFFFF;" cx="254.167" cy="160.333" r="13.667"/>
</g>
<g id="Ebene_1">
</g>
</svg>
