<?xml version="1.0" encoding="iso-8859-1"?>
<!-- Generator: Adobe Illustrator 16.0.0, SVG Export Plug-In . SVG Version: 6.00 Build 0)  -->
<!DOCTYPE svg PUBLIC "-//W3C//DTD SVG 1.1//EN" "http://www.w3.org/Graphics/SVG/1.1/DTD/svg11.dtd">
<svg version="1.1" xmlns="http://www.w3.org/2000/svg" xmlns:xlink="http://www.w3.org/1999/xlink" x="0px" y="0px" width="361px"
	 height="361px" viewBox="0 0 361 361" style="enable-background:new 0 0 361 361;" xml:space="preserve">
<g id="scene_x5F_cleaning">
	<g>
		<g>
			<path style="fill:#FFFFFF;" d="M256.702,283.501c-0.402,2.493-9.926,1.166-11.962,1.166c-7.884,0-15.767,0-23.65,0
				c-6.321,0-12.643,0-18.964,0c-3.322,0-2.798-0.559-2.93-3.775c-0.266-6.489-2.774-72.657-2.711-72.657c11.65,0,23.3,0,34.949,0
				c7.156,0,14.313,0,21.47,0c1.477,0,6.837-1.008,6.753,1.045c-1.013,24.7-2.024,49.4-3.037,74.101
				c-0.015,0.351-0.028,0.701-0.043,1.052c-0.185,4.516,6.815,4.498,7,0c0.989-24.141,1.979-48.282,2.968-72.423
				c0.194-4.729-0.308-9.706-6.159-10.649c-3.532-0.569-7.401-0.125-10.96-0.125c-15.029,0-30.059,0-45.088,0
				c-3.889,0-8.293-0.638-11.846,1.198c-4.065,2.102-3.21,7.341-3.059,11.036c0.591,14.424,1.182,28.847,1.773,43.27
				c0.278,6.806,0.558,13.611,0.837,20.417c0.118,2.898-0.428,7.528,0.966,10.224c2.581,4.991,7.63,4.288,12.345,4.288
				c7.205,0,14.41,0,21.615,0c7.865,0,15.729,0,23.595,0c5.246,0,11.78,0.559,12.888-6.305
				C264.164,280.947,257.42,279.054,256.702,283.501z"/>
		</g>
	</g>
	<g>
		<g>
			<g>
				<path style="fill:#FFFFFF;" d="M122.208,75.306c0,49.892,0,99.783,0,149.674c0,11.854,0,23.71,0,35.564c0,6.448,10,6.448,10,0
					c0-49.892,0-99.783,0-149.674c0-11.855,0-23.709,0-35.564C132.208,68.857,122.208,68.857,122.208,75.306L122.208,75.306z"/>
			</g>
		</g>
		<g>
			<g>
				<path style="fill:#FFFFFF;" d="M95.529,269.044c21.083,0,42.167,0,63.25,0c9.687,0,9.772-15.004,0.108-15.004
					c-21.083,0-42.167,0-63.25,0C85.951,254.04,85.865,269.044,95.529,269.044L95.529,269.044z"/>
			</g>
		</g>
		<g>
			<g>
				<path style="fill:#FFFFFF;" d="M95.657,267.292c-0.333,7.458-0.667,14.917-1,22.375c-0.086,1.935,2.914,1.927,3,0
					c0.333-7.458,0.667-14.917,1-22.375C98.743,265.357,95.743,265.365,95.657,267.292L95.657,267.292z"/>
			</g>
		</g>
		<g>
			<g>
				<path style="fill:#FFFFFF;" d="M106.611,267.292c0,7.458,0,14.917,0,22.375c0,1.935,3,1.935,3,0c0-7.458,0-14.917,0-22.375
					C109.611,265.357,106.611,265.357,106.611,267.292L106.611,267.292z"/>
			</g>
		</g>
		<g>
			<g>
				<path style="fill:#FFFFFF;" d="M101.134,267.292c0,7.458,0,14.917,0,22.375c0,1.935,3,1.935,3,0c0-7.458,0-14.917,0-22.375
					C104.134,265.357,101.134,265.357,101.134,267.292L101.134,267.292z"/>
			</g>
		</g>
		<g>
			<g>
				<path style="fill:#FFFFFF;" d="M112.088,267.292c0,7.458,0,14.917,0,22.375c0,1.935,3,1.935,3,0c0-7.458,0-14.917,0-22.375
					C115.088,265.357,112.088,265.357,112.088,267.292L112.088,267.292z"/>
			</g>
		</g>
		<g>
			<g>
				<path style="fill:#FFFFFF;" d="M123.043,267.292c0,7.458,0,14.917,0,22.375c0,1.935,3,1.935,3,0c0-7.458,0-14.917,0-22.375
					C126.043,265.357,123.043,265.357,123.043,267.292L123.043,267.292z"/>
			</g>
		</g>
		<g>
			<g>
				<path style="fill:#FFFFFF;" d="M117.566,267.292c0,7.458,0,14.917,0,22.375c0,1.935,3,1.935,3,0c0-7.458,0-14.917,0-22.375
					C120.566,265.357,117.566,265.357,117.566,267.292L117.566,267.292z"/>
			</g>
		</g>
		<g>
			<g>
				<path style="fill:#FFFFFF;" d="M128.521,267.292c0,7.458,0,14.917,0,22.375c0,1.935,3,1.935,3,0c0-7.458,0-14.917,0-22.375
					C131.521,265.357,128.521,265.357,128.521,267.292L128.521,267.292z"/>
			</g>
		</g>
		<g>
			<g>
				<path style="fill:#FFFFFF;" d="M139.475,267.292c0,7.458,0,14.917,0,22.375c0,1.935,3,1.935,3,0c0-7.458,0-14.917,0-22.375
					C142.475,265.357,139.475,265.357,139.475,267.292L139.475,267.292z"/>
			</g>
		</g>
		<g>
			<g>
				<path style="fill:#FFFFFF;" d="M133.998,267.292c0,7.458,0,14.917,0,22.375c0,1.935,3,1.935,3,0c0-7.458,0-14.917,0-22.375
					C136.998,265.357,133.998,265.357,133.998,267.292L133.998,267.292z"/>
			</g>
		</g>
		<g>
			<g>
				<path style="fill:#FFFFFF;" d="M144.952,267.292c0,7.458,0,14.917,0,22.375c0,1.935,3,1.935,3,0c0-7.458,0-14.917,0-22.375
					C147.952,265.357,144.952,265.357,144.952,267.292L144.952,267.292z"/>
			</g>
		</g>
		<g>
			<g>
				<path style="fill:#FFFFFF;" d="M155.907,267.292c0.333,7.458,0.667,14.917,1,22.375c0.086,1.927,3.086,1.935,3,0
					c-0.333-7.458-0.667-14.917-1-22.375C158.821,265.365,155.82,265.357,155.907,267.292L155.907,267.292z"/>
			</g>
		</g>
		<g>
			<g>
				<path style="fill:#FFFFFF;" d="M150.43,267.292c0,7.458,0,14.917,0,22.375c0,1.935,3,1.935,3,0c0-7.458,0-14.917,0-22.375
					C153.43,265.357,150.43,265.357,150.43,267.292L150.43,267.292z"/>
			</g>
		</g>
		<g>
			<g>
				<path style="fill:#FFFFFF;" d="M161.213,267.386c0.962,7.396,1.925,14.792,2.888,22.188c0.246,1.891,3.249,1.914,3,0
					c-0.962-7.396-1.925-14.792-2.888-22.188C163.967,265.495,160.964,265.472,161.213,267.386L161.213,267.386z"/>
			</g>
		</g>
		<g>
			<g>
				<path style="fill:#FFFFFF;" d="M90.204,267.386c-0.962,7.396-1.925,14.792-2.888,22.188c-0.249,1.914,2.754,1.891,3,0
					c0.962-7.396,1.925-14.792,2.888-22.188C93.453,265.472,90.45,265.495,90.204,267.386L90.204,267.386z"/>
			</g>
		</g>
	</g>
	<g>
		<g>
			<path style="fill:#FFFFFF;" d="M190.229,212.186c0.865-12.291,1.729-24.582,2.595-36.873c0.129-1.833,0.258-3.667,0.387-5.5
				c0.433-6.146,3.781-10.5,8.884-13.759c6.249-3.991,13.806-3.155,20.853-3.155c14.208,0,38.907-3.248,40.34,17.114
				c0.913,12.974,1.826,25.949,2.739,38.922c0.076,1.083,0.152,2.167,0.229,3.25c0.135,1.919,3.136,1.932,3,0
				c-0.865-12.291-1.729-24.582-2.595-36.873c-0.408-5.808-0.505-11.078-4.134-16.029c-4.668-6.369-12.629-9.384-20.294-9.384
				c-7.032,0-14.064,0-21.096,0c-6.348,0-12.123-0.256-18.129,2.287c-7.602,3.219-12.262,10.018-12.829,18.081
				c-0.426,6.048-0.851,12.097-1.276,18.145c-0.558,7.925-1.115,15.849-1.673,23.773
				C187.093,214.117,190.094,214.104,190.229,212.186L190.229,212.186z"/>
		</g>
	</g>
</g>
<g id="Ebene_1">
</g>
</svg>
