<?xml version="1.0" encoding="iso-8859-1"?>
<!-- Generator: Adobe Illustrator 16.0.0, SVG Export Plug-In . SVG Version: 6.00 Build 0)  -->
<!DOCTYPE svg PUBLIC "-//W3C//DTD SVG 1.1//EN" "http://www.w3.org/Graphics/SVG/1.1/DTD/svg11.dtd">
<svg version="1.1" xmlns="http://www.w3.org/2000/svg" xmlns:xlink="http://www.w3.org/1999/xlink" x="0px" y="0px" width="361px"
	 height="361px" viewBox="0 0 361 361" style="enable-background:new 0 0 361 361;" xml:space="preserve">
<g id="secur_x5F_heat_x5F_protection">
	
		<rect x="70.28" y="116.692" transform="matrix(0.7071 -0.7071 0.7071 0.7071 -52.9857 129.4245)" style="fill:#FFFFFF;" width="118.914" height="23.96"/>
	<path style="fill:none;stroke:#FFFFFF;stroke-width:10;stroke-miterlimit:10;" d="M181.438,124.577
		c0,40.29-25.499,83.021-52.811,83.021c-27.313,0-52.812-42.731-52.812-83.021c0-14.691-0.414-28.367,4.651-39.816
		c0,0,30.806-10.31,48.16-10.31c17.329,0,48.121,10.225,48.121,10.225C181.835,96.141,181.438,109.849,181.438,124.577z"/>
	<path style="fill:none;stroke:#FFFFFF;stroke-width:10;stroke-miterlimit:10;" d="M274.76,109.269c0,1.76-1.426,3.187-3.187,3.187
		h-18.325c-1.76,0-3.188-1.427-3.188-3.187V90.943c0-1.76,1.428-3.187,3.188-3.187h18.325c1.761,0,3.187,1.427,3.187,3.187V109.269z
		"/>
	<g>
		<g>
			<path style="fill:#FFFFFF;" d="M231.529,78.061c1.887,1.887,3.773,3.773,5.661,5.661c1.926,1.926,5.145,1.926,7.07,0
				c1.927-1.926,1.927-5.145,0-7.071c-1.887-1.887-3.773-3.773-5.661-5.661c-1.926-1.926-5.145-1.926-7.07,0
				C229.603,72.916,229.603,76.134,231.529,78.061L231.529,78.061z"/>
		</g>
	</g>
	<g>
		<g>
			<path style="fill:#FFFFFF;" d="M208.111,104.91c8.756,0,17.512,0,26.268,0c6.448,0,6.448-10,0-10c-8.756,0-17.512,0-26.268,0
				C201.663,94.91,201.663,104.91,208.111,104.91L208.111,104.91z"/>
		</g>
	</g>
	<g>
		<g>
			<path style="fill:#FFFFFF;" d="M290.742,122.348c-1.56-1.56-3.119-3.12-4.68-4.681c-1.926-1.926-5.145-1.926-7.07,0
				c-1.927,1.927-1.927,5.145,0,7.071c1.56,1.56,3.119,3.12,4.68,4.681c1.926,1.926,5.145,1.926,7.07,0
				C292.669,127.492,292.669,124.274,290.742,122.348L290.742,122.348z"/>
		</g>
	</g>
	<g>
		<g>
			<path style="fill:#FFFFFF;" d="M267.019,139.777c0-4.076,0-8.152,0-12.228c0-6.449-10-6.449-10,0c0,4.076,0,8.152,0,12.228
				C257.019,146.226,267.019,146.226,267.019,139.777L267.019,139.777z"/>
		</g>
	</g>
	<g>
		<g>
			<path style="fill:#FFFFFF;" d="M226.471,143.313c6.191-6.191,12.383-12.383,18.574-18.574c4.564-4.564-2.507-11.635-7.07-7.071
				c-6.191,6.191-12.383,12.383-18.574,18.574C214.836,140.806,221.907,147.876,226.471,143.313L226.471,143.313z"/>
		</g>
	</g>
	<path style="fill:none;stroke:#FFFFFF;stroke-width:10;stroke-miterlimit:10;" d="M268.648,254.92c0,1.859-1.634,3.368-3.648,3.368
		h-13.379c-2.014,0-3.648-1.509-3.648-3.368v-93.397c0-1.861,1.635-3.369,3.648-3.369H265c2.015,0,3.648,1.508,3.648,3.369V254.92z"
		/>
	<path style="fill:#FFFFFF;stroke:#FFFFFF;stroke-width:10;stroke-miterlimit:10;" d="M274.121,283.019
		c0,2.015-1.28,3.648-2.859,3.648H245.36c-1.579,0-2.86-1.634-2.86-3.648v-21.081c0-2.015,1.281-3.648,2.86-3.648h25.901
		c1.579,0,2.859,1.634,2.859,3.648V283.019z"/>
	<g>
		<g>
			<path style="fill:#FFFFFF;" d="M276.555,170.451c3.648,0,7.297,0,10.945,0c6.448,0,6.448-10,0-10c-3.648,0-7.297,0-10.945,0
				C270.106,160.451,270.106,170.451,276.555,170.451L276.555,170.451z"/>
		</g>
	</g>
	<g>
		<g>
			<path style="fill:#FFFFFF;" d="M276.555,194.775c3.648,0,7.297,0,10.945,0c6.448,0,6.448-10,0-10c-3.648,0-7.297,0-10.945,0
				C270.106,184.775,270.106,194.775,276.555,194.775L276.555,194.775z"/>
		</g>
	</g>
	<g>
		<g>
			<path style="fill:#FFFFFF;" d="M276.555,219.707c3.648,0,7.297,0,10.945,0c6.448,0,6.448-10,0-10c-3.648,0-7.297,0-10.945,0
				C270.106,209.707,270.106,219.707,276.555,219.707L276.555,219.707z"/>
		</g>
	</g>
	<g>
		<g>
			<path style="fill:#FFFFFF;" d="M276.555,245.855c3.648,0,7.297,0,10.945,0c6.448,0,6.448-10,0-10c-3.648,0-7.297,0-10.945,0
				C270.106,235.855,270.106,245.855,276.555,245.855L276.555,245.855z"/>
		</g>
	</g>
	
		<rect x="247.973" y="186.167" style="fill:#FFFFFF;stroke:#FFFFFF;stroke-width:10;stroke-miterlimit:10;" width="20.676" height="81.648"/>
</g>
<g id="Ebene_1">
</g>
</svg>
