<?xml version="1.0" encoding="iso-8859-1"?>
<!-- Generator: Adobe Illustrator 16.0.0, SVG Export Plug-In . SVG Version: 6.00 Build 0)  -->
<!DOCTYPE svg PUBLIC "-//W3C//DTD SVG 1.1 Tiny//EN" "http://www.w3.org/Graphics/SVG/1.1/DTD/svg11-tiny.dtd">
<svg version="1.1" baseProfile="tiny" id="secur_x5F_alarm"
	 xmlns="http://www.w3.org/2000/svg" xmlns:xlink="http://www.w3.org/1999/xlink" x="0px" y="0px" width="361px" height="361px"
	 viewBox="0 0 361 361" xml:space="preserve">
<path fill="none" stroke="#FFFFFF" stroke-width="10" stroke-miterlimit="10" d="M272.982,283.441c0,3.187-2.584,5.771-5.771,5.771
	h-95.534c-3.187,0-5.771-2.584-5.771-5.771V177.648c0-3.187,2.584-5.771,5.771-5.771h95.534c3.187,0,5.771,2.584,5.771,5.771
	V283.441z"/>
<g>
	<path fill="#FFFFFF" d="M257.315,269.378c-25.556,0-51.111,0-76.667,0c-4.514,0-4.514,7,0,7c25.556,0,51.111,0,76.667,0
		C261.829,276.378,261.829,269.378,257.315,269.378L257.315,269.378z"/>
</g>
<g>
	<path fill="#FFFFFF" d="M257.315,256.378c-25.556,0-51.111,0-76.667,0c-4.514,0-4.514,7,0,7c25.556,0,51.111,0,76.667,0
		C261.829,263.378,261.829,256.378,257.315,256.378L257.315,256.378z"/>
</g>
<g>
	<path fill="#FFFFFF" d="M257.315,242.378c-25.556,0-51.111,0-76.667,0c-4.514,0-4.514,7,0,7c25.556,0,51.111,0,76.667,0
		C261.829,249.378,261.829,242.378,257.315,242.378L257.315,242.378z"/>
</g>
<g>
	<path fill="#FFFFFF" d="M257.315,229.378c-25.556,0-51.111,0-76.667,0c-4.514,0-4.514,7,0,7c25.556,0,51.111,0,76.667,0
		C261.829,236.378,261.829,229.378,257.315,229.378L257.315,229.378z"/>
</g>
<g>
	<path fill="#FFFFFF" d="M257.315,216.378c-25.556,0-51.111,0-76.667,0c-4.514,0-4.514,7,0,7c25.556,0,51.111,0,76.667,0
		C261.829,223.378,261.829,216.378,257.315,216.378L257.315,216.378z"/>
</g>
<g>
	<path fill="#FFFFFF" d="M257.315,202.378c-25.556,0-51.111,0-76.667,0c-4.514,0-4.514,7,0,7c25.556,0,51.111,0,76.667,0
		C261.829,209.378,261.829,202.378,257.315,202.378L257.315,202.378z"/>
</g>
<path fill="none" stroke="#FFFFFF" stroke-width="10" stroke-miterlimit="10" d="M254.648,165.786c0,3.364-2.373,6.092-5.3,6.092
	h-60.067c-2.927,0-5.3-2.728-5.3-6.092l5.3-59.571c0-3.364,2.373-6.092,5.3-6.092h49.466c2.927,0,5.3,2.728,5.3,6.092
	L254.648,165.786z"/>
<line fill="none" stroke="#FFFFFF" stroke-width="10" stroke-miterlimit="10" x1="187.648" y1="157.545" x2="251.648" y2="157.545"/>
<g>
	<path fill="#FFFFFF" d="M128.518,176.869c-23.279,23.884-23.279,61.865,0,85.749c4.507,4.624,11.573-2.453,7.071-7.071
		c-19.474-19.98-19.474-51.626,0-71.606C140.091,179.322,133.025,172.245,128.518,176.869L128.518,176.869z"/>
</g>
<g>
	<path fill="#FFFFFF" d="M113.063,161.195c-31.769,32.364-31.77,84.515-0.001,116.88c4.523,4.607,11.59-2.468,7.071-7.071
		c-27.96-28.484-27.959-74.253,0.001-102.737C124.652,163.663,117.585,156.587,113.063,161.195L113.063,161.195z"/>
</g>
<g>
	<path fill="#FFFFFF" d="M97.295,146.669C78,166.251,67.149,192.356,66.958,219.854c-0.19,27.351,11.239,53.804,30.337,73.185
		c4.532,4.599,11.6-2.476,7.071-7.071c-36-36.533-36-95.694,0-132.227C108.895,149.146,101.827,142.071,97.295,146.669
		L97.295,146.669z"/>
</g>
</svg>
