<?xml version="1.0" encoding="iso-8859-1"?>
<!-- Generator: Adobe Illustrator 16.0.0, SVG Export Plug-In . SVG Version: 6.00 Build 0)  -->
<!DOCTYPE svg PUBLIC "-//W3C//DTD SVG 1.1//EN" "http://www.w3.org/Graphics/SVG/1.1/DTD/svg11.dtd">
<svg version="1.1" xmlns="http://www.w3.org/2000/svg" xmlns:xlink="http://www.w3.org/1999/xlink" x="0px" y="0px" width="361px"
	 height="361px" viewBox="0 0 361 361" style="enable-background:new 0 0 361 361;" xml:space="preserve">
<g id="secur_x5F_smoke_x5F_detector">
	<path style="fill:none;stroke:#FFFFFF;stroke-width:10;stroke-miterlimit:10;" d="M219.415,90.74c0,1.566-1.271,2.835-2.837,2.835
		h-70.909c-1.567,0-2.836-1.27-2.836-2.835V77.503c0-1.566,1.27-2.836,2.836-2.836h70.909c1.566,0,2.837,1.271,2.837,2.836V90.74z"
		/>
	<path style="fill:none;stroke:#FFFFFF;stroke-width:10;stroke-miterlimit:10;" d="M217.333,240.254
		c0,25.633-17.118,46.413-38.233,46.413c-21.117,0-42.558-17.894-41.659-43.511c0.539-15.34,9.655-21.203,16.396-32.395
		c7.01-11.641,11.553-36.533,15.211-38.624c0.926-0.529,9.354,10.756,11.243,24.338c3.266,23.474,16.138-9.127,16.932-8.334
		c2.572,2.573,6.209,6.492,8.2,9.656C212.83,209.571,217.333,224.232,217.333,240.254z"/>
	<path style="fill:none;stroke:#FFFFFF;stroke-width:10;stroke-miterlimit:10;" d="M198.744,258.256
		c0,15.133-10.105,27.4-22.571,27.4c-12.466,0-25.124-10.563-24.593-25.687c0.318-9.056,5.7-12.517,9.68-19.124
		c4.138-6.871,6.82-21.566,8.979-22.801c0.547-0.313,5.522,6.351,6.637,14.367c1.929,13.857,9.527-5.388,9.995-4.919
		c1.52,1.52,3.666,3.832,4.842,5.7C196.086,240.143,198.744,248.799,198.744,258.256z"/>
	<g>
		<g>
			<path style="fill:#FFFFFF;" d="M232.192,96.631c-28.237,27.711-73.587,27.711-101.824,0c-4.604-4.518-11.679,2.549-7.071,7.071
				c32.117,31.519,83.848,31.519,115.965,0C243.871,99.18,236.796,92.113,232.192,96.631L232.192,96.631z"/>
		</g>
	</g>
	<g>
		<g>
			<path style="fill:#FFFFFF;" d="M253.798,107.631c-19.602,19.342-45.674,30.18-73.215,30.352
				c-27.409,0.171-53.795-11.188-73.214-30.352c-4.592-4.532-11.667,2.537-7.071,7.071c21.452,21.169,50.141,33.092,80.286,33.281
				c29.999,0.188,59.031-12.307,80.285-33.281C265.464,110.168,258.39,103.1,253.798,107.631L253.798,107.631z"/>
		</g>
	</g>
</g>
<g id="Ebene_1">
</g>
</svg>
