<?xml version="1.0" encoding="iso-8859-1"?>
<!-- Generator: Adobe Illustrator 16.0.0, SVG Export Plug-In . SVG Version: 6.00 Build 0)  -->
<!DOCTYPE svg PUBLIC "-//W3C//DTD SVG 1.1 Tiny//EN" "http://www.w3.org/Graphics/SVG/1.1/DTD/svg11-tiny.dtd">
<svg version="1.1" baseProfile="tiny" id="secur_x5F_open"
	 xmlns="http://www.w3.org/2000/svg" xmlns:xlink="http://www.w3.org/1999/xlink" x="0px" y="0px" width="361px" height="361px"
	 viewBox="0 0 361 361" xml:space="preserve">
<path fill="none" stroke="#FFFFFF" stroke-width="10" stroke-miterlimit="10" d="M111.803,185.256c0-3.098,2.69-5.609,6.009-5.609
	H239.64c3.318,0,6.008,2.512,6.008,5.609v98.959c0,3.098-2.69,5.609-6.008,5.609H117.812c-3.318,0-6.009-2.512-6.009-5.609V185.256z
	"/>
<g>
	<path fill="#FFFFFF" d="M113.44,269.683c22.559,0,45.117,0,67.675,0c6.449,0,6.449-10,0-10c-22.559,0-45.117,0-67.675,0
		C106.991,259.683,106.991,269.683,113.44,269.683L113.44,269.683z"/>
</g>
<g>
	<path fill="#FFFFFF" d="M116.612,242.572c21.501,0,43.002,0,64.503,0c6.449,0,6.449-10,0-10c-21.501,0-43.002,0-64.503,0
		C110.163,232.572,110.163,242.572,116.612,242.572L116.612,242.572z"/>
</g>
<g>
	<path fill="#FFFFFF" d="M116.612,215.46c21.501,0,43.002,0,64.503,0c6.449,0,6.449-10,0-10c-21.501,0-43.002,0-64.503,0
		C110.163,205.46,110.163,215.46,116.612,215.46L116.612,215.46z"/>
</g>
<g display="none">
	<path display="inline" fill="none" stroke="#FFFFFF" stroke-width="10" stroke-miterlimit="10" d="M284.315,167.545
		c0-32.427-22.14-58.667-49.5-58.667"/>
	<path display="inline" fill="none" stroke="#FFFFFF" stroke-width="10" stroke-miterlimit="10" d="M234.815,108.878
		c-27.36,0-49.5,26.24-49.5,58.667"/>
</g>
<g>
	<path fill="#FFFFFF" d="M162.959,113.854c3.986-3.986,7.972-7.972,11.958-11.958c2.516-2.516,5.032-5.031,7.547-7.547
		c0.774-0.774,1.548-1.548,2.323-2.323c1.538-1.539-0.846,0.385,0.164-0.137c-1.844,0.953,0.084,0.055,0.502-0.072
		c0.781-0.238,1.579-0.418,2.373-0.604c1.915-0.451,3.861-0.769,5.803-1.074c4.12-0.649,8.315-0.963,12.483-1.042
		c0.816-0.016,1.63,0.006,2.445,0.035c0.336,0.012,2.559,0.345,0.559-0.002c1.43,0.248-2.603-2.016-1.683-1.097
		c1.324,1.325,2.649,2.649,3.973,3.974c10.319,10.319,20.639,20.639,30.958,30.958c1.175,1.175,2.35,2.35,3.524,3.524
		c0.972,0.972-1.522-3.285-1.163-1.779c-0.476-1.995-0.02,0.023,0.007,0.489c0.065,1.114,0.039,2.234,0.018,3.349
		c-0.074,3.886-0.446,7.805-1.015,11.648c-0.288,1.947-0.654,3.881-1.074,5.803c-0.174,0.798-0.387,1.586-0.604,2.373
		c-0.126,0.44-0.266,0.876-0.419,1.308c0.391-0.855,0.422-0.956,0.096-0.302c0.766-1.481,0.78-0.977,0.048-0.245
		c-0.774,0.774-1.549,1.548-2.323,2.323c-2.516,2.516-5.032,5.031-7.547,7.547c-3.986,3.986-7.972,7.972-11.958,11.958
		c-6.835,6.835,3.813,17.403,10.665,10.551c3.986-3.986,7.972-7.972,11.958-11.958c3.859-3.859,8.967-7.677,11.931-12.336
		c4.09-6.43,4.339-16.261,4.967-23.575c0.501-5.841,1.341-13.444-3.18-17.964c-9.419-9.42-18.839-18.839-28.258-28.259
		c-3.389-3.389-6.778-6.778-10.167-10.167c-4.719-4.719-13.731-3.235-19.677-2.671c-5.958,0.565-12.229,1.238-17.93,3.165
		c-3.65,1.233-5.844,3.43-8.463,6.05c-6.502,6.501-13.003,13.003-19.505,19.504C145.458,110.138,156.106,120.706,162.959,113.854
		L162.959,113.854z"/>
</g>
</svg>
