<?xml version="1.0" encoding="iso-8859-1"?>
<!-- Generator: Adobe Illustrator 16.0.0, SVG Export Plug-In . SVG Version: 6.00 Build 0)  -->
<!DOCTYPE svg PUBLIC "-//W3C//DTD SVG 1.1 Tiny//EN" "http://www.w3.org/Graphics/SVG/1.1/DTD/svg11-tiny.dtd">
<svg version="1.1" baseProfile="tiny" id="secur_x5F_encoding"
	 xmlns="http://www.w3.org/2000/svg" xmlns:xlink="http://www.w3.org/1999/xlink" x="0px" y="0px" width="361px" height="361px"
	 viewBox="0 0 361 361" xml:space="preserve">
<g>
	<path fill-rule="evenodd" fill="#FFFFFF" d="M133.093,80.767c0,19.185,0,38.371,0,57.556c-19.185,0-38.371,0-57.556,0
		c0-19.185,0-38.371,0-57.556C94.722,80.767,113.908,80.767,133.093,80.767z M83.759,88.989c0,13.704,0,27.408,0,41.111
		c13.704,0,27.408,0,41.111,0c0-13.704,0-27.408,0-41.111C111.167,88.989,97.463,88.989,83.759,88.989z"/>
	<path fill-rule="evenodd" fill="#FFFFFF" d="M165.981,80.767c2.741,0,5.481,0,8.222,0c0,2.741,0,5.481,0,8.222
		c-2.741,0-5.481,0-8.222,0C165.981,86.249,165.981,83.508,165.981,80.767z"/>
	<path fill-rule="evenodd" fill="#FFFFFF" d="M182.426,80.767c8.222,0,16.444,0,24.667,0c0,5.481,0,10.963,0,16.444
		c-2.741,0-5.481,0-8.222,0c0-2.741,0-5.481,0-8.222c-5.481,0-10.963,0-16.444,0C182.426,86.249,182.426,83.508,182.426,80.767z"/>
	<path fill-rule="evenodd" fill="#FFFFFF" d="M281.093,80.767c0,19.185,0,38.371,0,57.556c-19.185,0-38.371,0-57.556,0
		c0-19.185,0-38.371,0-57.556C242.722,80.767,261.908,80.767,281.093,80.767z M231.759,88.989c0,13.704,0,27.408,0,41.111
		c13.704,0,27.408,0,41.111,0c0-13.704,0-27.408,0-41.111C259.167,88.989,245.463,88.989,231.759,88.989z"/>
	<path fill-rule="evenodd" fill="#FFFFFF" d="M91.981,97.211c8.222,0,16.445,0,24.667,0c0,8.222,0,16.445,0,24.667
		c-8.222,0-16.445,0-24.667,0C91.981,113.656,91.981,105.434,91.981,97.211z"/>
	<path fill-rule="evenodd" fill="#FFFFFF" d="M182.426,97.211c2.741,0,5.481,0,8.222,0c0,2.741,0,5.481,0,8.222
		c-2.741,0-5.481,0-8.222,0C182.426,102.693,182.426,99.952,182.426,97.211z"/>
	<path fill-rule="evenodd" fill="#FFFFFF" d="M239.981,97.211c8.222,0,16.445,0,24.667,0c0,8.222,0,16.445,0,24.667
		c-8.222,0-16.445,0-24.667,0C239.981,113.656,239.981,105.434,239.981,97.211z"/>
	<path fill-rule="evenodd" fill="#FFFFFF" d="M248.204,146.545c2.741,0,5.481,0,8.223,0c0,2.741,0,5.481,0,8.222
		c-2.741,0-5.481,0-8.223,0C248.204,152.026,248.204,149.286,248.204,146.545z"/>
	<path fill-rule="evenodd" fill="#FFFFFF" d="M239.981,187.656c2.741,0,5.481,0,8.222,0c0,2.741,0,5.481,0,8.222
		c-2.741,0-5.481,0-8.222,0C239.981,193.138,239.981,190.397,239.981,187.656z"/>
	<path fill-rule="evenodd" fill="#FFFFFF" d="M75.537,212.323c5.481,0,10.963,0,16.444,0c0,2.741,0,5.481,0,8.222
		c-5.481,0-10.963,0-16.444,0C75.537,217.804,75.537,215.063,75.537,212.323z"/>
	<path fill-rule="evenodd" fill="#FFFFFF" d="M133.093,228.767c0,19.185,0,38.371,0,57.556c-19.185,0-38.371,0-57.556,0
		c0-19.185,0-38.371,0-57.556C94.722,228.767,113.908,228.767,133.093,228.767z M83.759,236.989c0,13.704,0,27.408,0,41.111
		c13.704,0,27.408,0,41.111,0c0-13.704,0-27.408,0-41.111C111.167,236.989,97.463,236.989,83.759,236.989z"/>
	<path fill-rule="evenodd" fill="#FFFFFF" d="M165.981,228.767c2.741,0,5.481,0,8.222,0c0,2.741,0,5.481,0,8.222
		c-2.741,0-5.481,0-8.222,0C165.981,234.249,165.981,231.508,165.981,228.767z"/>
	<path fill-rule="evenodd" fill="#FFFFFF" d="M223.537,228.767c2.741,0,5.481,0,8.222,0c0,2.741,0,5.481,0,8.222
		c-2.741,0-5.481,0-8.222,0C223.537,234.249,223.537,231.508,223.537,228.767z"/>
	<path fill-rule="evenodd" fill="#FFFFFF" d="M91.981,245.211c8.222,0,16.445,0,24.667,0c0,8.222,0,16.445,0,24.667
		c-8.222,0-16.445,0-24.667,0C91.981,261.656,91.981,253.434,91.981,245.211z"/>
	<path fill-rule="evenodd" fill="#FFFFFF" d="M272.871,278.101c2.741,0,5.481,0,8.222,0c0,2.741,0,5.481,0,8.222
		c-2.741,0-5.481,0-8.222,0C272.871,283.582,272.871,280.841,272.871,278.101z"/>
	<path fill-rule="evenodd" fill="#FFFFFF" d="M182.426,121.878c-10.621,0-21.241,0-31.861,0c-2.387,6.177-0.351,16.779-1.028,24.667
		c-2.741,0-5.481,0-8.222,0c0-8.222,0-16.444,0-24.667c2.741,0,5.481,0,8.222,0c0-2.398,0-4.796,0-7.195
		c-0.765-2.318-5.765-0.402-8.222-1.027c0-2.741,0-5.482,0-8.223c2.741,0,5.481,0,8.222,0c0-8.222,0-16.444,0-24.667
		c2.741,0,5.481,0,8.222,0c0,5.139,0,10.278,0,15.417c3.449,2.375,11.288,0.36,16.444,1.028c0,5.139,0,10.278,0,15.417
		c0.766,2.318,5.765,0.402,8.223,1.028C182.426,116.397,182.426,119.138,182.426,121.878c5.481,0,10.963,0,16.444,0
		c0-5.481,0-10.963,0-16.445c2.741,0,5.481,0,8.222,0c0,2.741,0,5.482,0,8.223c2.741,0,5.481,0,8.222,0c0,13.361,0,26.722,0,40.083
		c0.443,2.298,5.065,0.417,7.194,1.028c2.318-0.765,0.402-5.765,1.028-8.222c5.481,0,10.963,0,16.444,0c0,5.139,0,10.278,0,15.417
		c3.449,2.375,11.288,0.36,16.445,1.028c0,5.481,0,10.963,0,16.444c-8.223,0-16.445,0-24.667,0c0,10.621,0,21.241,0,31.861
		c3.11,2.372,10.601,0.362,15.417,1.028c2.318-0.766,0.402-5.765,1.027-8.222c2.741,0,5.481,0,8.223,0c0,5.481,0,10.963,0,16.444
		c-2.741,0-5.481,0-8.223,0c0,5.139,0,10.278,0,15.417c0.766,2.318,5.765,0.402,8.223,1.028c0,5.139,0,10.278,0,15.417
		c0.442,2.298,5.065,0.416,7.194,1.027c2.318-0.765,0.402-5.765,1.028-8.222c5.481,0,10.963,0,16.444,0c0,2.741,0,5.481,0,8.222
		c-2.741,0-5.481,0-8.222,0c0,2.398,0,4.796,0,7.195c0.765,2.318,5.765,0.402,8.222,1.028c0,2.741,0,5.481,0,8.222
		c-8.222,0-16.444,0-24.667,0c0,5.481,0,10.963,0,16.444c-2.741,0-5.481,0-8.223,0c0-8.222,0-16.444,0-24.667
		c2.741,0,5.481,0,8.223,0c0-2.741,0-5.481,0-8.223c-10.963,0-21.926,0-32.889,0c0,7.88,0,15.759,0,23.639
		c0.766,2.318,5.765,0.402,8.222,1.028c0,2.741,0,5.481,0,8.222c-2.741,0-5.481,0-8.222,0c0-2.741,0-5.481,0-8.222
		c-2.398,0-4.796,0-7.194,0c-2.318,0.765-0.402,5.765-1.028,8.222c-2.741,0-5.481,0-8.222,0c0-5.481,0-10.963,0-16.444
		c2.741,0,5.481,0,8.222,0c0-5.481,0-10.963,0-16.445c-5.481,0-10.963,0-16.444,0c0,5.481,0,10.963,0,16.445
		c-5.139,0-10.278,0-15.417,0c-2.298,0.442-0.416,5.065-1.027,7.194c0.765,2.318,5.765,0.402,8.222,1.028c0,2.741,0,5.481,0,8.222
		c-2.741,0-5.481,0-8.222,0c0-2.398,0-4.796,0-7.194c-0.766-2.318-5.765-0.402-8.223-1.028c0-2.741,0-5.481,0-8.222
		c2.741,0,5.482,0,8.223,0c0-2.741,0-5.481,0-8.222c2.741,0,5.481,0,8.222,0c0-2.741,0-5.481,0-8.223c2.741,0,5.481,0,8.222,0
		c0-2.741,0-5.481,0-8.222c-7.88,0-15.759,0-23.639,0c-2.318,0.766-0.402,5.765-1.028,8.222c-2.398,0-4.796,0-7.194,0
		c-2.318,0.766-0.402,5.765-1.028,8.223c-2.741,0-5.481,0-8.222,0c0-5.481,0-10.963,0-16.445c5.139,0,10.278,0,15.417,0
		c2.318-0.765,0.402-5.765,1.027-8.222c2.741,0,5.482,0,8.223,0c0-2.741,0-5.481,0-8.222c5.481,0,10.963,0,16.444,0
		c0,2.741,0,5.481,0,8.222c2.741,0,5.481,0,8.222,0c0-2.398,0-4.796,0-7.194c-0.766-2.318-5.765-0.402-8.222-1.028
		c0-2.741,0-5.481,0-8.222c-5.481,0-10.963,0-16.444,0c0-2.741,0-5.481,0-8.222c7.879,0,15.759,0,23.639,0
		c2.318-0.766,0.402-5.765,1.028-8.222c2.741,0,5.481,0,8.222,0c0-2.398,0-4.796,0-7.194c-0.443-2.298-5.065-0.417-7.194-1.028
		c-2.318,0.765-0.402,5.765-1.028,8.222c-2.741,0-5.481,0-8.222,0c0-2.741,0-5.481,0-8.222c-10.621,0-21.241,0-31.861,0
		c-2.318,0.765-0.402,5.765-1.028,8.222c-2.741,0-5.481,0-8.222,0c0,2.398,0,4.796,0,7.194c0.443,2.298,5.065,0.417,7.194,1.028
		c2.318-0.766,0.402-5.765,1.028-8.222c2.741,0,5.481,0,8.222,0c0,5.481,0,10.963,0,16.444c-2.398,0-4.796,0-7.194,0
		c-2.318,0.765-0.402,5.765-1.028,8.222c-2.741,0-5.481,0-8.222,0c0,5.481,0,10.963,0,16.444c-2.741,0-5.481,0-8.222,0
		c0-5.139,0-10.278,0-15.417c-0.765-2.318-5.765-0.402-8.222-1.028c0-5.139,0-10.278,0-15.417c-0.443-2.298-5.065-0.417-7.194-1.028
		c-2.318,0.765-0.402,5.765-1.028,8.222c-2.741,0-5.481,0-8.222,0c0-2.741,0-5.481,0-8.222c2.741,0,5.481,0,8.222,0
		c0-2.741,0-5.481,0-8.222c-7.88,0-15.759,0-23.639,0c-2.298,0.442-0.416,5.065-1.027,7.194c0.765,2.318,5.765,0.402,8.222,1.028
		c0,2.741,0,5.481,0,8.222c-2.741,0-5.481,0-8.222,0c0-2.741,0-5.481,0-8.222c-2.741,0-5.482,0-8.223,0c0-5.481,0-10.963,0-16.444
		c5.139,0,10.278,0,15.417,0c2.318-0.766,0.402-5.765,1.028-8.222c2.398,0,4.796,0,7.194,0c2.318-0.766,0.402-5.765,1.028-8.223
		c2.741,0,5.481,0,8.222,0c0,2.741,0,5.482,0,8.223c-2.741,0-5.481,0-8.222,0c0,2.741,0,5.481,0,8.222c2.398,0,4.796,0,7.194,0
		c2.318-0.766,0.402-5.765,1.028-8.222c2.398,0,4.796,0,7.194,0c2.318-0.766,0.402-5.765,1.028-8.223c2.741,0,5.481,0,8.222,0
		c0,2.741,0,5.482,0,8.223c-2.741,0-5.481,0-8.222,0c0,5.481,0,10.963,0,16.444c5.139,0,10.278,0,15.417,0
		c2.298-0.443,0.417-5.065,1.028-7.194c-0.765-2.318-5.765-0.402-8.222-1.028c0-2.741,0-5.481,0-8.222c2.741,0,5.481,0,8.222,0
		c0-2.741,0-5.482,0-8.223c2.741,0,5.481,0,8.222,0c0-5.481,0-10.963,0-16.444c10.963,0,21.926,0,32.889,0
		c0-8.222,0-16.444,0-24.667c2.741,0,5.481,0,8.222,0c0-5.139,0-10.278,0-15.417c-0.766-2.318-5.765-0.402-8.222-1.028
		c0,5.481,0,10.963,0,16.444c-2.741,0-5.481,0-8.222,0c0,5.481,0,10.963,0,16.444c-2.741,0-5.481,0-8.222,0
		c0-5.481,0-10.963,0-16.444c2.741,0,5.481,0,8.222,0c0-2.741,0-5.481,0-8.222c-2.398,0-4.796,0-7.195,0
		c-2.318,0.765-0.402,5.765-1.027,8.222c-2.741,0-5.482,0-8.223,0c0,5.481,0,10.963,0,16.444c-5.481,0-10.963,0-16.444,0
		c0-2.741,0-5.481,0-8.222c2.741,0,5.481,0,8.222,0c0-2.398,0-4.796,0-7.194c-0.765-2.318-5.765-0.402-8.222-1.028
		c0-2.741,0-5.481,0-8.222c2.741,0,5.481,0,8.222,0c0,2.741,0,5.481,0,8.222c2.398,0,4.796,0,7.195,0
		c2.318-0.766,0.402-5.765,1.027-8.222c2.741,0,5.482,0,8.223,0C182.426,127.36,182.426,124.619,182.426,121.878z M174.204,179.434
		c0,2.741,0,5.482,0,8.223c2.741,0,5.482,0,8.223,0c0.625-2.458-1.291-7.457,1.027-8.223c2.398,0,4.796,0,7.195,0
		c0-2.741,0-5.481,0-8.222c-2.741,0-5.481,0-8.222,0c0,2.741,0,5.481,0,8.222C179.686,179.434,176.944,179.434,174.204,179.434z
		 M198.871,187.656c2.741,0,5.481,0,8.222,0c0-2.741,0-5.482,0-8.223c-2.741,0-5.481,0-8.222,0
		C198.871,182.174,198.871,184.916,198.871,187.656z M215.315,187.656c2.741,0,5.481,0,8.222,0c0-2.741,0-5.482,0-8.223
		c-2.741,0-5.481,0-8.222,0C215.315,182.174,215.315,184.916,215.315,187.656z M215.315,245.211c8.222,0,16.444,0,24.667,0
		c0-8.222,0-16.444,0-24.667c-8.222,0-16.444,0-24.667,0C215.315,228.767,215.315,236.989,215.315,245.211z"/>
	<path fill-rule="evenodd" fill="#FFFFFF" d="M165.981,261.656c2.741,0,5.481,0,8.222,0c0,2.741,0,5.481,0,8.222
		c-2.398,0-4.796,0-7.194,0c-2.318,0.765-0.402,5.765-1.028,8.222c-2.741,0-5.481,0-8.222,0c0,2.741,0,5.481,0,8.222
		c-2.741,0-5.481,0-8.222,0c0-2.741,0-5.481,0-8.222c-2.741,0-5.481,0-8.222,0c0-5.481,0-10.963,0-16.444c2.741,0,5.481,0,8.222,0
		c0,2.741,0,5.481,0,8.222c5.139,0,10.278,0,15.417,0C167.272,269.113,165.355,264.113,165.981,261.656z"/>
	<path fill-rule="evenodd" fill="#FFFFFF" d="M91.981,187.656c0-2.741,0-5.482,0-8.223c-2.398,0-4.796,0-7.194,0
		c-2.318,0.766-0.402,5.765-1.028,8.223c-2.741,0-5.481,0-8.222,0c0-5.482,0-10.963,0-16.445c2.741,0,5.481,0,8.222,0
		c0-2.398,0-4.796,0-7.194c-0.765-2.318-5.765-0.402-8.222-1.028c0-2.741,0-5.481,0-8.222c2.741,0,5.481,0,8.222,0
		c0-2.741,0-5.481,0-8.222c5.481,0,10.963,0,16.444,0c0,2.398,0,4.796,0,7.194c0.766,2.318,5.765,0.402,8.223,1.028
		c0,2.741,0,5.481,0,8.222c-5.139,0-10.278,0-15.417,0c-2.298,0.443-0.416,5.065-1.028,7.194c0.766,2.318,5.765,0.402,8.222,1.028
		c0,5.481,0,10.963,0,16.445C97.463,187.656,94.722,187.656,91.981,187.656c0,5.481,0,10.963,0,16.444c-5.481,0-10.963,0-16.444,0
		c0-2.741,0-5.481,0-8.222c2.398,0,4.796,0,7.194,0c2.318-0.766,0.402-5.765,1.028-8.222
		C86.5,187.656,89.241,187.656,91.981,187.656z"/>
	<path fill-rule="evenodd" fill="#FFFFFF" d="M133.093,154.767c-2.741,0-5.481,0-8.222,0c0,2.398,0,4.796,0,7.194
		c0.442,2.298,5.065,0.417,7.194,1.028C134.383,162.224,132.467,157.225,133.093,154.767c5.481,0,10.963,0,16.444,0
		c0,2.398,0,4.796,0,7.194c0.766,2.318,5.765,0.402,8.222,1.028c0,2.741,0,5.481,0,8.222c-2.741,0-5.481,0-8.222,0
		c0-2.741,0-5.481,0-8.222c-2.398,0-4.796,0-7.194,0c-2.318,0.766-0.402,5.765-1.028,8.222c-8.222,0-16.444,0-24.667,0
		c0-5.481,0-10.963,0-16.444c2.398,0,4.796,0,7.194,0c2.318-0.765,0.402-5.765,1.028-8.222c2.741,0,5.481,0,8.222,0
		C133.093,149.286,133.093,152.026,133.093,154.767z"/>
	<path fill-rule="evenodd" fill="#FFFFFF" d="M272.871,171.211c0-2.398,0-4.796,0-7.194c-0.766-2.318-5.765-0.402-8.222-1.028
		c0-2.741,0-5.481,0-8.222c5.481,0,10.963,0,16.444,0c0,5.481,0,10.963,0,16.444C278.352,171.211,275.611,171.211,272.871,171.211
		c0,2.398,0,4.796,0,7.195c0.765,2.318,5.765,0.402,8.222,1.027c0,13.704,0,27.408,0,41.111c-2.741,0-5.481,0-8.222,0
		c0,2.398,0,4.796,0,7.194c0.765,2.318,5.765,0.402,8.222,1.028c0,2.741,0,5.481,0,8.222c-2.741,0-5.481,0-8.222,0
		c0-2.398,0-4.796,0-7.194c-0.766-2.318-5.765-0.402-8.222-1.028c0-2.741,0-5.481,0-8.222c2.741,0,5.481,0,8.222,0
		c0-13.361,0-26.722,0-40.083c-0.766-2.318-5.765-0.402-8.222-1.028c0-2.741,0-5.481,0-8.222
		C267.389,171.211,270.13,171.211,272.871,171.211z"/>
</g>
</svg>
