<?xml version="1.0" encoding="iso-8859-1"?>
<!-- Generator: Adobe Illustrator 16.0.0, SVG Export Plug-In . SVG Version: 6.00 Build 0)  -->
<!DOCTYPE svg PUBLIC "-//W3C//DTD SVG 1.1//EN" "http://www.w3.org/Graphics/SVG/1.1/DTD/svg11.dtd">
<svg version="1.1" xmlns="http://www.w3.org/2000/svg" xmlns:xlink="http://www.w3.org/1999/xlink" x="0px" y="0px" width="361px"
	 height="361px" viewBox="0 0 361 361" style="enable-background:new 0 0 361 361;" xml:space="preserve">
<g id="secur_x5F_breakage_x5F_glass">
	<g>
		<path style="fill:none;stroke:#FFFFFF;stroke-width:10;stroke-miterlimit:10;" d="M286.492,248.742
			c0,3.912-3.156,7.084-7.049,7.084l-197.886,0.02c-3.894,0-7.05-3.172-7.05-7.082v-127.5c0-3.911,3.156-7.083,7.05-7.083
			l197.886-0.021c3.893,0,7.049,3.172,7.049,7.083V248.742z"/>
		<g>
			<g>
				<path style="fill:#FFFFFF;" d="M174.195,190.025c4.203,0,8.406,0,12.609,0c6.448,0,6.448-10,0-10c-4.203,0-8.406,0-12.609,0
					C167.747,180.025,167.747,190.025,174.195,190.025L174.195,190.025z"/>
			</g>
		</g>
		<line style="fill:none;stroke:#FFFFFF;stroke-width:10;stroke-miterlimit:10;" x1="180.5" y1="115.024" x2="180.5" y2="252.197"/>
		<path style="fill:none;stroke:#FFFFFF;stroke-width:10;stroke-miterlimit:10;" d="M286.492,118.649c0,2.485-2.71,4.5-6.053,4.5
			L80.56,123.17c-3.342,0-6.052-2.015-6.052-4.5v-9c0-2.485,2.71-4.5,6.052-4.5l199.879-0.021c3.343,0,6.053,2.015,6.053,4.5
			V118.649z"/>
	</g>
	<g>
		<g>
			<path style="fill:#FFFFFF;" d="M109.743,182.574c10.333-9.804,20.667-19.607,31-29.412c1.209-1.147-0.618-2.969-1.824-1.824
				c-10.333,9.804-20.667,19.607-31,29.412C106.709,181.897,108.537,183.719,109.743,182.574L109.743,182.574z"/>
		</g>
	</g>
	<g>
		<g>
			<path style="fill:#FFFFFF;" d="M100.401,204.298c19.131-18.151,38.263-36.302,57.394-54.453c1.209-1.147-0.618-2.969-1.824-1.824
				c-19.131,18.151-38.263,36.302-57.394,54.453C97.368,203.621,99.195,205.442,100.401,204.298L100.401,204.298z"/>
		</g>
	</g>
	<g>
		<g>
			<path style="fill:#FFFFFF;" d="M115.265,204.342c11.202-10.627,22.403-21.255,33.604-31.882c1.209-1.147-0.618-2.969-1.824-1.824
				c-11.202,10.627-22.403,21.255-33.604,31.882C112.231,203.665,114.059,205.486,115.265,204.342L115.265,204.342z"/>
		</g>
	</g>
	<g>
		<g>
			<path style="fill:#FFFFFF;" d="M239.205,168.442c5.676-2.109,11.352-4.219,17.026-6.329c-0.633-0.482-1.266-0.964-1.898-1.446
				c0.227,9.13,0.452,18.26,0.679,27.391c0.024,1.005,0.936,1.666,1.898,1.446c2.44-0.556,4.881-1.111,7.321-1.667
				c-0.614-0.615-1.229-1.23-1.845-1.845c-2.223,5.925-4.444,11.851-6.667,17.776c0.615-0.35,1.23-0.699,1.845-1.048
				c-2.551-0.686-5.103-1.372-7.654-2.058c-0.779-0.21-1.641,0.253-1.845,1.048c-1.111,4.315-2.223,8.632-3.334,12.948
				c0.734-0.299,1.469-0.598,2.203-0.896c-4.997-2.254-9.995-4.508-14.992-6.762c-3.852-1.737-6.839,0.063-10.829,1.277
				c0.614,0.349,1.229,0.698,1.845,1.048c-0.389-1.262-0.778-2.523-1.167-3.785c-0.236-0.768-0.938-4.142-1.148-3.082
				c0.588-2.97,1.177-5.938,1.765-8.907c0.35-1.768,0.981-3.135-0.12-4.658c-2.084-2.884-4.168-5.768-6.251-8.651
				c-0.533-0.737-0.069,0.875-0.011,0.075c0.04-0.537,0.08-1.075,0.119-1.612c0.133-1.794,0.265-3.588,0.397-5.383
				c0.124-1.688,0.249-3.375,0.374-5.063c0.167-2.271-0.936,0.162-0.146-0.303c5.056-2.979,10.11-5.958,15.165-8.936
				c-0.605-0.079-1.212-0.157-1.817-0.235c2.543,3.09,5.086,6.181,7.629,9.271c1.23,1.495,3.34-0.64,2.121-2.121
				c-2.543-3.09-5.086-6.181-7.629-9.271c-0.422-0.513-1.279-0.552-1.817-0.235c-5.146,3.033-10.292,6.065-15.438,9.097
				c-1.509,0.889-1.124,3.493-1.234,4.984c-0.247,3.355-0.495,6.71-0.742,10.066c-0.143,1.934,3.257,5.081,4.286,6.503
				c0.895,1.238,1.789,2.476,2.683,3.714c0.6,0.829,0.205-1.406,0.018-0.459c-0.16,0.806-0.319,1.612-0.479,2.419
				c-0.594,3.001-1.188,6.001-1.782,9.002c-0.468,2.359,1.638,6.11,2.334,8.367c0.235,0.765,1.045,1.292,1.845,1.048
				c2.21-0.673,4.42-1.346,6.63-2.019c1.813-0.552-0.641-0.702,0.424-0.222c0.942,0.425,1.885,0.851,2.827,1.275
				c4.543,2.049,9.086,4.098,13.63,6.146c0.857,0.387,1.942,0.118,2.203-0.896c1.111-4.315,2.223-8.632,3.334-12.948
				c-0.615,0.35-1.23,0.699-1.845,1.048c2.551,0.686,5.103,1.372,7.654,2.058c0.844,0.227,1.557-0.279,1.845-1.048
				c2.223-5.925,4.444-11.851,6.667-17.776c0.426-1.136-0.825-2.077-1.845-1.845c-2.44,0.556-4.881,1.111-7.321,1.667
				c0.633,0.482,1.266,0.964,1.898,1.446c-0.227-9.13-0.452-18.26-0.679-27.391c-0.022-0.905-0.954-1.797-1.898-1.446
				c-5.676,2.109-11.352,4.219-17.026,6.329C236.611,166.217,237.388,169.118,239.205,168.442z"/>
		</g>
	</g>
	<g>
		<g>
			<path style="fill:#FFFFFF;" d="M220.878,214.022c0.522-0.957,1.045-1.914,1.567-2.871c0.928-1.698-1.663-3.212-2.59-1.514
				c-0.522,0.957-1.045,1.914-1.567,2.871C217.36,214.207,219.951,215.721,220.878,214.022c0.522-0.957,1.045-1.914,1.567-2.871
				c0.928-1.698-1.663-3.212-2.59-1.514c-0.522,0.957-1.045,1.914-1.567,2.871C217.36,214.207,219.951,215.721,220.878,214.022z"/>
		</g>
	</g>
	<g>
		<g>
			<path style="fill:#FFFFFF;" d="M217.027,216.353c1.104-0.597,2.209-1.194,3.313-1.792c1.702-0.92,0.188-3.511-1.514-2.59
				c-1.104,0.597-2.209,1.194-3.313,1.792C213.812,214.683,215.326,217.273,217.027,216.353L217.027,216.353z"/>
		</g>
	</g>
	<g>
		<g>
			<path style="fill:#FFFFFF;" d="M219.295,200.954c-1.599,0.182-3.196,0.362-4.795,0.544c-0.813,0.092-1.5,0.612-1.5,1.5
				c0,0.748,0.686,1.593,1.5,1.5c1.599-0.182,3.196-0.362,4.795-0.544c0.813-0.092,1.5-0.612,1.5-1.5
				C220.795,201.706,220.109,200.861,219.295,200.954L219.295,200.954z"/>
		</g>
	</g>
	<g>
		<g>
			<path style="fill:#FFFFFF;" d="M256.894,161.728c1.458-1.292,2.917-2.583,4.375-3.875c1.451-1.285-0.679-3.399-2.121-2.121
				c-1.458,1.292-2.917,2.583-4.375,3.875C253.321,160.892,255.451,163.005,256.894,161.728L256.894,161.728z"/>
		</g>
	</g>
	<g>
		<g>
			<path style="fill:#FFFFFF;" d="M259.81,158.238c0.625,0.138,1.25,0.275,1.875,0.412c0.798,0.175,1.62-0.229,1.845-1.047
				c0.208-0.757-0.249-1.67-1.048-1.845c-0.625-0.138-1.25-0.275-1.875-0.412c-0.798-0.175-1.62,0.229-1.845,1.047
				C258.554,157.15,259.011,158.063,259.81,158.238L259.81,158.238z"/>
		</g>
	</g>
	<g>
		<g>
			<path style="fill:#FFFFFF;" d="M240.54,149.982c-3.278,2.055-6.557,4.11-9.834,6.166c-1.635,1.025-0.13,3.622,1.514,2.591
				c3.278-2.055,6.557-4.11,9.834-6.166C243.688,151.548,242.184,148.952,240.54,149.982L240.54,149.982z"/>
		</g>
	</g>
	<g>
		<g>
			<path style="fill:#FFFFFF;" d="M242.923,151.677c0.414-1.407,0.829-2.814,1.243-4.221c0.548-1.86-2.348-2.649-2.893-0.798
				c-0.414,1.407-0.829,2.814-1.243,4.221C239.482,152.739,242.378,153.528,242.923,151.677L242.923,151.677z"/>
		</g>
	</g>
</g>
<g id="Ebene_1">
</g>
</svg>
