<?xml version="1.0" encoding="iso-8859-1"?>
<!-- Generator: Adobe Illustrator 16.0.0, SVG Export Plug-In . SVG Version: 6.00 Build 0)  -->
<!DOCTYPE svg PUBLIC "-//W3C//DTD SVG 1.1 Tiny//EN" "http://www.w3.org/Graphics/SVG/1.1/DTD/svg11-tiny.dtd">
<svg version="1.1" baseProfile="tiny" id="secur_x5F_heat_x5F_protection"
	 xmlns="http://www.w3.org/2000/svg" xmlns:xlink="http://www.w3.org/1999/xlink" x="0px" y="0px" width="361px" height="361px"
	 viewBox="0 0 361 361" xml:space="preserve">
<rect x="67.762" y="119.57" transform="matrix(0.7071 -0.7071 0.7071 0.7071 -55.7582 128.4869)" fill="#FFFFFF" width="118.914" height="23.96"/>
<path fill="none" stroke="#FFFFFF" stroke-width="10" stroke-miterlimit="10" d="M178.919,127.455
	c0,40.29-25.499,83.021-52.811,83.021c-27.313,0-52.812-42.731-52.812-83.021c0-14.691-0.414-28.367,4.651-39.816
	c0,0,30.806-10.31,48.16-10.31c17.329,0,48.121,10.225,48.121,10.225C179.317,99.019,178.919,112.727,178.919,127.455z"/>
<path fill="none" stroke="#FFFFFF" stroke-width="10" stroke-miterlimit="10" d="M272.242,112.147c0,1.76-1.427,3.187-3.187,3.187
	H250.73c-1.76,0-3.187-1.427-3.187-3.187V93.821c0-1.76,1.427-3.187,3.187-3.187h18.325c1.76,0,3.187,1.427,3.187,3.187V112.147z"/>
<g>
	<path fill="#FFFFFF" d="M229.011,80.938c1.887,1.887,3.774,3.773,5.661,5.661c1.926,1.926,5.145,1.926,7.071,0s1.926-5.145,0-7.071
		c-1.887-1.887-3.774-3.773-5.661-5.661c-1.926-1.926-5.145-1.926-7.071,0S227.085,79.012,229.011,80.938L229.011,80.938z"/>
</g>
<g>
	<path fill="#FFFFFF" d="M205.593,107.788c8.756,0,17.512,0,26.268,0c6.449,0,6.449-10,0-10c-8.756,0-17.512,0-26.268,0
		C199.145,97.788,199.145,107.788,205.593,107.788L205.593,107.788z"/>
</g>
<g>
	<path fill="#FFFFFF" d="M288.225,125.226c-1.561-1.56-3.121-3.12-4.681-4.681c-1.926-1.926-5.145-1.926-7.071,0
		s-1.926,5.145,0,7.071c1.561,1.56,3.121,3.12,4.681,4.681c1.926,1.926,5.145,1.926,7.071,0S290.151,127.152,288.225,125.226
		L288.225,125.226z"/>
</g>
<g>
	<path fill="#FFFFFF" d="M264.5,142.655c0-4.076,0-8.152,0-12.228c0-6.449-10-6.449-10,0c0,4.076,0,8.152,0,12.228
		C254.5,149.104,264.5,149.104,264.5,142.655L264.5,142.655z"/>
</g>
<g>
	<path fill="#FFFFFF" d="M223.953,146.191c6.191-6.191,12.383-12.383,18.574-18.574c4.563-4.564-2.507-11.635-7.071-7.071
		c-6.191,6.191-12.383,12.383-18.574,18.574C212.318,143.684,219.389,150.754,223.953,146.191L223.953,146.191z"/>
</g>
<path fill="none" stroke="#FFFFFF" stroke-width="10" stroke-miterlimit="10" d="M266.13,257.797c0,1.86-1.634,3.369-3.648,3.369
	h-13.378c-2.015,0-3.649-1.508-3.649-3.369V164.4c0-1.861,1.634-3.369,3.649-3.369h13.378c2.015,0,3.648,1.508,3.648,3.369V257.797z
	"/>
<path fill="#FFFFFF" stroke="#FFFFFF" stroke-width="10" stroke-miterlimit="10" d="M271.603,285.896c0,2.015-1.28,3.648-2.86,3.648
	h-25.901c-1.58,0-2.86-1.634-2.86-3.648v-21.081c0-2.015,1.281-3.649,2.86-3.649h25.901c1.58,0,2.86,1.634,2.86,3.649V285.896z"/>
<g>
	<path fill="#FFFFFF" d="M274.036,173.329c3.648,0,7.297,0,10.946,0c6.449,0,6.449-10,0-10c-3.648,0-7.297,0-10.946,0
		C267.587,163.329,267.587,173.329,274.036,173.329L274.036,173.329z"/>
</g>
<g>
	<path fill="#FFFFFF" d="M274.036,197.653c3.648,0,7.297,0,10.946,0c6.449,0,6.449-10,0-10c-3.648,0-7.297,0-10.946,0
		C267.587,187.653,267.587,197.653,274.036,197.653L274.036,197.653z"/>
</g>
<g>
	<path fill="#FFFFFF" d="M274.036,222.585c3.648,0,7.297,0,10.946,0c6.449,0,6.449-10,0-10c-3.648,0-7.297,0-10.946,0
		C267.587,212.585,267.587,222.585,274.036,222.585L274.036,222.585z"/>
</g>
<g>
	<path fill="#FFFFFF" d="M274.036,248.734c3.648,0,7.297,0,10.946,0c6.449,0,6.449-10,0-10c-3.648,0-7.297,0-10.946,0
		C267.587,238.734,267.587,248.734,274.036,248.734L274.036,248.734z"/>
</g>
<rect x="245.454" y="189.045" fill="#FFFFFF" stroke="#FFFFFF" stroke-width="10" stroke-miterlimit="10" width="20.676" height="81.648"/>
</svg>
