<?xml version="1.0" encoding="iso-8859-1"?>
<!-- Generator: Adobe Illustrator 16.0.0, SVG Export Plug-In . SVG Version: 6.00 Build 0)  -->
<!DOCTYPE svg PUBLIC "-//W3C//DTD SVG 1.1//EN" "http://www.w3.org/Graphics/SVG/1.1/DTD/svg11.dtd">
<svg version="1.1" xmlns="http://www.w3.org/2000/svg" xmlns:xlink="http://www.w3.org/1999/xlink" x="0px" y="0px" width="361px"
	 height="361px" viewBox="0 0 361 361" style="enable-background:new 0 0 361 361;" xml:space="preserve">
<g id="secur_x5F_alarm_x5F_disabled">
	<path style="fill:none;stroke:#FFFFFF;stroke-width:10;stroke-miterlimit:10;" d="M174.333,209.918h-28.834
		c-2.27,0-4.109-1.842-4.109-4.11V130.46c0-2.27,1.84-4.11,4.109-4.11h68.041c2.27,0,4.11,1.84,4.11,4.11v42.707"/>
	<g>
		<g>
			<path style="fill:#FFFFFF;" d="M179.189,194.785c-9.101,0-18.201,0-27.302,0c-4.514,0-4.514,7,0,7c9.101,0,18.201,0,27.302,0
				C183.703,201.785,183.703,194.785,179.189,194.785L179.189,194.785z"/>
		</g>
	</g>
	<g>
		<g>
			<path style="fill:#FFFFFF;" d="M184.604,185.525c-10.905,0-21.811,0-32.716,0c-4.514,0-4.514,7,0,7c10.905,0,21.811,0,32.716,0
				C189.117,192.525,189.117,185.525,184.604,185.525L184.604,185.525z"/>
		</g>
	</g>
	<g>
		<g>
			<path style="fill:#FFFFFF;" d="M197.143,175.555c-15.085,0-30.17,0-45.255,0c-4.514,0-4.514,7,0,7c15.085,0,30.17,0,45.255,0
				C201.656,182.555,201.656,175.555,197.143,175.555L197.143,175.555z"/>
		</g>
	</g>
	<g>
		<g>
			<path style="fill:#FFFFFF;" d="M206.491,166.296c-18.201,0-36.402,0-54.604,0c-4.514,0-4.514,7,0,7c18.201,0,36.402,0,54.604,0
				C211.005,173.296,211.005,166.296,206.491,166.296L206.491,166.296z"/>
		</g>
	</g>
	<g>
		<g>
			<path style="fill:#FFFFFF;" d="M206.491,157.037c-18.201,0-36.402,0-54.604,0c-4.514,0-4.514,7,0,7c18.201,0,36.402,0,54.604,0
				C211.005,164.037,211.005,157.037,206.491,157.037L206.491,157.037z"/>
		</g>
	</g>
	<g>
		<g>
			<path style="fill:#FFFFFF;" d="M206.491,147.066c-18.201,0-36.402,0-54.604,0c-4.514,0-4.514,7,0,7c18.201,0,36.402,0,54.604,0
				C211.005,154.066,211.005,147.066,206.491,147.066L206.491,147.066z"/>
		</g>
	</g>
	<path style="fill:none;stroke:#FFFFFF;stroke-width:10;stroke-miterlimit:10;" d="M204.592,122.012
		c0,2.396-1.689,4.339-3.774,4.339h-42.781c-2.084,0-3.774-1.943-3.774-4.339l3.774-42.428c0-2.396,1.69-4.339,3.775-4.339h35.23
		c2.085,0,3.775,1.943,3.775,4.339L204.592,122.012z"/>
	<g>
		<g>
			<path style="fill:#FFFFFF;" d="M156.874,119.642c15.194,0,30.388,0,45.582,0c4.514,0,4.514-7,0-7c-15.193,0-30.388,0-45.582,0
				C152.359,112.642,152.359,119.642,156.874,119.642L156.874,119.642z"/>
		</g>
	</g>
	<g>
		<g>
			<path style="fill:#FFFFFF;" d="M113.742,128.887c-17.101,17.727-17.101,45.38,0,63.107c4.484,4.648,11.547-2.431,7.071-7.07
				c-13.303-13.79-13.303-35.176,0-48.965C125.29,131.318,118.227,124.239,113.742,128.887L113.742,128.887z"/>
		</g>
	</g>
	<g>
		<g>
			<path style="fill:#FFFFFF;" d="M102.734,117.724c-23.149,23.761-23.15,61.518,0,85.279c4.506,4.626,11.572-2.451,7.071-7.07
				c-19.345-19.857-19.345-51.281,0-71.137C114.306,120.176,107.24,113.099,102.734,117.724L102.734,117.724z"/>
		</g>
	</g>
	<g>
		<g>
			<path style="fill:#FFFFFF;" d="M91.504,107.378c-28.878,29.476-28.878,76.806,0,106.282c4.519,4.612,11.585-2.463,7.071-7.07
				c-25.071-25.59-25.071-66.551,0-92.14C103.09,109.842,96.023,102.766,91.504,107.378L91.504,107.378z"/>
		</g>
	</g>
	<g>
		<g>
			<g>
				<path style="fill:#FFFFFF;" d="M276.864,227.493c-0.264,21.841-14.328,41.071-35.274,47.552
					c-20.997,6.497-44.063-2.394-55.992-20.611c-12.03-18.37-9.942-43.152,4.398-59.601c14.373-16.485,38.711-21.484,58.468-12.159
					C265.799,190.855,276.635,208.464,276.864,227.493c0.117,9.678,15.12,9.774,15.004,0.107
					c-0.285-23.601-12.931-45.152-33.557-56.708c-20.663-11.575-46.938-10.131-66.614,2.754
					c-19.622,12.85-30.716,36.129-28.74,59.425c1.966,23.186,16.774,44.003,38.044,53.443c20.026,8.888,43.534,6.932,61.856-5.067
					c18.09-11.848,28.751-32.366,29.011-53.848C291.985,217.909,276.981,217.835,276.864,227.493z"/>
			</g>
		</g>
		<g>
			<g>
				<path style="fill:#FFFFFF;" d="M192.242,273.19c26.912-26.912,53.824-53.824,80.736-80.736
					c6.836-6.835-3.812-17.403-10.665-10.551c-26.912,26.912-53.824,53.824-80.737,80.736
					C174.741,269.475,185.389,280.043,192.242,273.19L192.242,273.19z"/>
			</g>
		</g>
	</g>
</g>
<g id="Ebene_1">
</g>
</svg>
