<?xml version="1.0" encoding="iso-8859-1"?>
<!-- Generator: Adobe Illustrator 16.0.0, SVG Export Plug-In . SVG Version: 6.00 Build 0)  -->
<!DOCTYPE svg PUBLIC "-//W3C//DTD SVG 1.1//EN" "http://www.w3.org/Graphics/SVG/1.1/DTD/svg11.dtd">
<svg version="1.1" xmlns="http://www.w3.org/2000/svg" xmlns:xlink="http://www.w3.org/1999/xlink" x="0px" y="0px" width="361px"
	 height="361px" viewBox="0 0 361 361" style="enable-background:new 0 0 361 361;" xml:space="preserve">
<g id="secur_x5F_alarm_x5F_enabled">
	<path style="fill:none;stroke:#FFFFFF;stroke-width:10;stroke-miterlimit:10;" d="M217.649,205.808c0,2.269-1.841,4.11-4.11,4.11
		h-68.041c-2.27,0-4.109-1.842-4.109-4.11V130.46c0-2.27,1.84-4.11,4.109-4.11h68.041c2.27,0,4.11,1.84,4.11,4.11V205.808z"/>
	<g>
		<g>
			<path style="fill:#FFFFFF;" d="M206.491,194.785c-18.201,0-36.402,0-54.604,0c-4.514,0-4.514,7,0,7c18.201,0,36.402,0,54.604,0
				C211.005,201.785,211.005,194.785,206.491,194.785L206.491,194.785z"/>
		</g>
	</g>
	<g>
		<g>
			<path style="fill:#FFFFFF;" d="M206.491,185.525c-18.201,0-36.402,0-54.604,0c-4.514,0-4.514,7,0,7c18.201,0,36.402,0,54.604,0
				C211.005,192.525,211.005,185.525,206.491,185.525L206.491,185.525z"/>
		</g>
	</g>
	<g>
		<g>
			<path style="fill:#FFFFFF;" d="M206.491,175.555c-18.201,0-36.402,0-54.604,0c-4.514,0-4.514,7,0,7c18.201,0,36.402,0,54.604,0
				C211.005,182.555,211.005,175.555,206.491,175.555L206.491,175.555z"/>
		</g>
	</g>
	<g>
		<g>
			<path style="fill:#FFFFFF;" d="M206.491,166.296c-18.201,0-36.402,0-54.604,0c-4.514,0-4.514,7,0,7c18.201,0,36.402,0,54.604,0
				C211.005,173.296,211.005,166.296,206.491,166.296L206.491,166.296z"/>
		</g>
	</g>
	<g>
		<g>
			<path style="fill:#FFFFFF;" d="M206.491,157.037c-18.201,0-36.402,0-54.604,0c-4.514,0-4.514,7,0,7c18.201,0,36.402,0,54.604,0
				C211.005,164.037,211.005,157.037,206.491,157.037L206.491,157.037z"/>
		</g>
	</g>
	<g>
		<g>
			<path style="fill:#FFFFFF;" d="M206.491,147.066c-18.201,0-36.402,0-54.604,0c-4.514,0-4.514,7,0,7c18.201,0,36.402,0,54.604,0
				C211.005,154.066,211.005,147.066,206.491,147.066L206.491,147.066z"/>
		</g>
	</g>
	<path style="fill:none;stroke:#FFFFFF;stroke-width:10;stroke-miterlimit:10;" d="M204.592,122.012
		c0,2.396-1.689,4.339-3.774,4.339h-42.781c-2.084,0-3.774-1.943-3.774-4.339l3.774-42.428c0-2.396,1.69-4.339,3.775-4.339h35.23
		c2.085,0,3.775,1.943,3.775,4.339L204.592,122.012z"/>
	<g>
		<g>
			<path style="fill:#FFFFFF;" d="M156.874,119.642c15.194,0,30.388,0,45.582,0c4.514,0,4.514-7,0-7c-15.193,0-30.388,0-45.582,0
				C152.359,112.642,152.359,119.642,156.874,119.642L156.874,119.642z"/>
		</g>
	</g>
	<g>
		<g>
			<path style="fill:#FFFFFF;" d="M113.742,128.887c-17.101,17.727-17.101,45.38,0,63.107c4.484,4.648,11.547-2.431,7.071-7.07
				c-13.303-13.79-13.303-35.176,0-48.965C125.29,131.318,118.227,124.239,113.742,128.887L113.742,128.887z"/>
		</g>
	</g>
	<g>
		<g>
			<path style="fill:#FFFFFF;" d="M102.734,117.724c-23.149,23.761-23.15,61.518,0,85.279c4.506,4.626,11.572-2.451,7.071-7.07
				c-19.345-19.857-19.345-51.281,0-71.137C114.306,120.176,107.24,113.099,102.734,117.724L102.734,117.724z"/>
		</g>
	</g>
	<g>
		<g>
			<path style="fill:#FFFFFF;" d="M91.504,107.378c-28.878,29.476-28.878,76.806,0,106.282c4.519,4.612,11.585-2.463,7.071-7.07
				c-25.071-25.59-25.071-66.551,0-92.14C103.09,109.842,96.023,102.766,91.504,107.378L91.504,107.378z"/>
		</g>
	</g>
	<g>
		<g>
			<g>
				<path style="fill:#FFFFFF;" d="M223.388,288.417c22.579-32.703,45.159-65.407,67.738-98.11c5.504-7.972-7.529-15.41-12.99-7.5
					c-22.579,32.703-45.159,65.407-67.738,98.11C204.894,288.889,217.927,296.327,223.388,288.417L223.388,288.417z"/>
			</g>
		</g>
		<g>
			<g>
				<path style="fill:#FFFFFF;" d="M220.643,278.172c-9.786-7.022-19.571-14.046-29.357-21.068
					c-3.325-2.387-8.354-0.532-10.245,2.745c-2.194,3.8-0.573,7.864,2.745,10.245c9.786,7.022,19.571,14.046,29.357,21.068
					c3.325,2.387,8.354,0.532,10.245-2.745C225.582,284.617,223.961,280.553,220.643,278.172L220.643,278.172z"/>
			</g>
		</g>
	</g>
</g>
<g id="Ebene_1">
</g>
</svg>
