<?xml version="1.0" encoding="iso-8859-1"?>
<!-- Generator: Adobe Illustrator 16.0.0, SVG Export Plug-In . SVG Version: 6.00 Build 0)  -->
<!DOCTYPE svg PUBLIC "-//W3C//DTD SVG 1.1//EN" "http://www.w3.org/Graphics/SVG/1.1/DTD/svg11.dtd">
<svg version="1.1" xmlns="http://www.w3.org/2000/svg" xmlns:xlink="http://www.w3.org/1999/xlink" x="0px" y="0px" width="361px"
	 height="361px" viewBox="0 0 361 361" style="enable-background:new 0 0 361 361;" xml:space="preserve">
<g id="secur_x5F_alarm_x5F_alarm">
	<path style="fill:none;stroke:#FFFFFF;stroke-width:10;stroke-miterlimit:10;" d="M218.963,235.808c0,2.269-1.84,4.11-4.109,4.11
		h-68.042c-2.27,0-4.109-1.842-4.109-4.11V160.46c0-2.27,1.84-4.11,4.109-4.11h68.042c2.27,0,4.109,1.84,4.109,4.11V235.808z"/>
	<g>
		<g>
			<path style="fill:#FFFFFF;" d="M207.805,224.785c-18.201,0-36.402,0-54.603,0c-4.514,0-4.514,7,0,7c18.201,0,36.402,0,54.603,0
				C212.318,231.785,212.318,224.785,207.805,224.785L207.805,224.785z"/>
		</g>
	</g>
	<g>
		<g>
			<path style="fill:#FFFFFF;" d="M207.805,215.525c-18.201,0-36.402,0-54.603,0c-4.514,0-4.514,7,0,7c18.201,0,36.402,0,54.603,0
				C212.318,222.525,212.318,215.525,207.805,215.525L207.805,215.525z"/>
		</g>
	</g>
	<g>
		<g>
			<path style="fill:#FFFFFF;" d="M207.805,205.555c-18.201,0-36.402,0-54.603,0c-4.514,0-4.514,7,0,7c18.201,0,36.402,0,54.603,0
				C212.318,212.555,212.318,205.555,207.805,205.555L207.805,205.555z"/>
		</g>
	</g>
	<g>
		<g>
			<path style="fill:#FFFFFF;" d="M207.805,196.296c-18.201,0-36.402,0-54.603,0c-4.514,0-4.514,7,0,7c18.201,0,36.402,0,54.603,0
				C212.318,203.296,212.318,196.296,207.805,196.296L207.805,196.296z"/>
		</g>
	</g>
	<g>
		<g>
			<path style="fill:#FFFFFF;" d="M207.805,187.037c-18.201,0-36.402,0-54.603,0c-4.514,0-4.514,7,0,7c18.201,0,36.402,0,54.603,0
				C212.318,194.037,212.318,187.037,207.805,187.037L207.805,187.037z"/>
		</g>
	</g>
	<g>
		<g>
			<path style="fill:#FFFFFF;" d="M207.805,177.066c-18.201,0-36.402,0-54.603,0c-4.514,0-4.514,7,0,7c18.201,0,36.402,0,54.603,0
				C212.318,184.066,212.318,177.066,207.805,177.066L207.805,177.066z"/>
		</g>
	</g>
	<path style="fill:none;stroke:#FFFFFF;stroke-width:10;stroke-miterlimit:10;" d="M205.906,152.012c0,2.396-1.69,4.339-3.775,4.339
		H159.35c-2.084,0-3.774-1.943-3.774-4.339l3.774-42.428c0-2.396,1.69-4.339,3.775-4.339h35.23c2.086,0,3.775,1.943,3.775,4.339
		L205.906,152.012z"/>
	<g>
		<g>
			<path style="fill:#FFFFFF;" d="M158.188,149.642c15.194,0,30.388,0,45.582,0c4.514,0,4.514-7,0-7c-15.194,0-30.388,0-45.582,0
				C153.673,142.642,153.673,149.642,158.188,149.642L158.188,149.642z"/>
		</g>
	</g>
	<g>
		<g>
			<path style="fill:#FFFFFF;" d="M106.821,219.583c-0.992,16.153,4.889,31.528,16.123,43.124c4.494,4.639,11.558-2.439,7.071-7.07
				c-9.501-9.808-14.029-22.458-13.194-36.054C117.217,213.14,107.215,213.178,106.821,219.583L106.821,219.583z"/>
		</g>
	</g>
	<g>
		<g>
			<path style="fill:#FFFFFF;" d="M88.606,219.584c-0.905,21.407,7.077,41.853,22.029,57.158c4.512,4.619,11.578-2.457,7.071-7.07
				c-13.194-13.507-19.896-31.245-19.1-50.088C98.878,213.134,88.877,213.16,88.606,219.584L88.606,219.584z"/>
		</g>
	</g>
	<g>
		<g>
			<path style="fill:#FFFFFF;" d="M70.454,219.584c-0.943,26.468,9.054,51.866,27.592,70.744c4.524,4.607,11.591-2.468,7.071-7.07
				c-16.77-17.078-25.515-39.771-24.664-63.674C80.684,213.133,70.683,213.154,70.454,219.584L70.454,219.584z"/>
		</g>
	</g>
	<path style="fill:#FFFFFF;" d="M196.75,136.846c0,1.313-1.143,2.376-2.551,2.376h-26.917c-1.409,0-2.551-1.064-2.551-2.376
		l1.551-21.24c0-1.313,1.143-2.376,2.552-2.376h23.812c1.41,0,2.553,1.064,2.553,2.376L196.75,136.846z"/>
	<g>
		<g>
			<path style="fill:#FFFFFF;" d="M256.477,140.838c-4.281-15.524-14.656-28.368-29.041-35.652
				c-5.738-2.906-10.802,5.721-5.047,8.635c12.171,6.164,20.811,16.499,24.445,29.676
				C248.546,149.705,258.194,147.066,256.477,140.838L256.477,140.838z"/>
		</g>
	</g>
	<g>
		<g>
			<path style="fill:#FFFFFF;" d="M239.33,262.471c9.463-9.78,14.877-21.86,16.124-35.383c0.593-6.423-9.413-6.365-10,0
				c-0.997,10.809-5.673,20.537-13.194,28.313C227.776,260.034,234.84,267.112,239.33,262.471L239.33,262.471z"/>
		</g>
	</g>
	<g>
		<g>
			<path style="fill:#FFFFFF;" d="M273.7,134.909c-6.071-20.468-20.08-37.417-39.192-47c-5.747-2.881-10.813,5.744-5.047,8.635
				c16.859,8.453,29.223,22.906,34.597,41.023C265.887,143.735,275.539,141.107,273.7,134.909L273.7,134.909z"/>
		</g>
	</g>
	<g>
		<g>
			<path style="fill:#FFFFFF;" d="M251.64,276.701c13.199-13.514,20.815-30.78,22.03-49.613c0.416-6.442-9.587-6.401-10,0
				c-1.043,16.157-7.807,30.979-19.101,42.543C240.063,274.245,247.128,281.321,251.64,276.701L251.64,276.701z"/>
		</g>
	</g>
	<g>
		<g>
			<path style="fill:#FFFFFF;" d="M290.864,129.003c-7.687-25.272-25.204-46.236-48.874-58.037
				c-5.752-2.868-10.819,5.757-5.047,8.635c21.401,10.67,37.307,29.141,44.278,52.061
				C283.093,137.813,292.746,135.189,290.864,129.003L290.864,129.003z"/>
		</g>
	</g>
	<g>
		<g>
			<path style="fill:#FFFFFF;" d="M264.229,289.891c16.679-16.989,26.332-39.041,27.593-62.803c0.342-6.447-9.66-6.414-10,0
				c-1.119,21.102-9.877,40.669-24.663,55.732C252.64,287.424,259.707,294.499,264.229,289.891L264.229,289.891z"/>
		</g>
	</g>
	<g>
		<g>
			<path style="fill:#FFFFFF;" d="M114.481,143.497c3.634-13.178,12.275-23.512,24.446-29.676c5.754-2.914,0.691-11.541-5.047-8.635
				c-14.385,7.285-24.761,20.128-29.042,35.652C103.121,147.066,112.769,149.705,114.481,143.497L114.481,143.497z"/>
		</g>
	</g>
	<g>
		<g>
			<path style="fill:#FFFFFF;" d="M97.258,137.567c5.374-18.118,17.737-32.57,34.596-41.023c5.766-2.891,0.7-11.516-5.047-8.635
				c-19.112,9.583-33.121,26.532-39.192,47C85.777,141.107,95.429,143.735,97.258,137.567L97.258,137.567z"/>
		</g>
	</g>
	<g>
		<g>
			<path style="fill:#FFFFFF;" d="M80.093,131.661c6.972-22.919,22.877-41.39,44.278-52.061c5.772-2.878,0.705-11.503-5.047-8.635
				c-23.67,11.801-41.186,32.765-48.874,58.037C68.569,135.189,78.222,137.813,80.093,131.661L80.093,131.661z"/>
		</g>
	</g>
</g>
<g id="Ebene_1">
</g>
</svg>
