<?xml version="1.0" encoding="iso-8859-1"?>
<!-- Generator: Adobe Illustrator 16.0.0, SVG Export Plug-In . SVG Version: 6.00 Build 0)  -->
<!DOCTYPE svg PUBLIC "-//W3C//DTD SVG 1.1//EN" "http://www.w3.org/Graphics/SVG/1.1/DTD/svg11.dtd">
<svg version="1.1" xmlns="http://www.w3.org/2000/svg" xmlns:xlink="http://www.w3.org/1999/xlink" x="0px" y="0px" width="361px"
	 height="361px" viewBox="0 0 361 361" style="enable-background:new 0 0 361 361;" xml:space="preserve">
<g id="secur_x5F_sabotage">
	<path style="fill:none;stroke:#FFFFFF;stroke-width:10;stroke-miterlimit:10;" d="M181.359,280.871c0,3.291-2.654,5.959-5.93,5.959
		l-93.991,0.016c-3.275,0-5.931-2.668-5.931-5.957V80.632c0-3.29,2.655-5.958,5.931-5.958l93.991-0.017
		c3.275,0,5.93,2.668,5.93,5.958V280.871z"/>
	<g>
		<g>
			<path style="fill:#FFFFFF;" d="M115.229,175.948c0,3.536,0,7.072,0,10.607c0,6.448,10,6.448,10,0c0-3.535,0-7.071,0-10.607
				C125.229,169.499,115.229,169.499,115.229,175.948L115.229,175.948z"/>
		</g>
	</g>
	
		<line style="fill:none;stroke:#FFFFFF;stroke-width:10;stroke-miterlimit:10;" x1="132.833" y1="76.555" x2="132.833" y2="284.949"/>
	<g>
		<g>
			<g>
				<path style="fill:#FFFFFF;stroke:#FFFFFF;stroke-width:3;stroke-linejoin:round;stroke-miterlimit:10;" d="M163.1,233.994
					l1.555-2.009c-1.203-0.604-2.542-0.926-3.911-0.915l0.603,2.546L163.1,233.994z"/>
				<path style="fill:#FFFFFF;stroke:#FFFFFF;stroke-width:3;stroke-linejoin:round;stroke-miterlimit:10;" d="M160.745,231.07
					l-0.814-3.437l-3.486,0.839l0.823,3.377c0.113-0.053,0.222-0.111,0.339-0.158C158.635,231.274,159.697,231.079,160.745,231.07z"
					/>
				<path style="fill:#FFFFFF;stroke:#FFFFFF;stroke-width:3;stroke-linejoin:round;stroke-miterlimit:10;" d="M157.9,234.445
					l-0.632-2.596c-1.31,0.599-2.4,1.488-3.223,2.565l2.466,1.164L157.9,234.445z"/>
				<path style="fill:#FFFFFF;stroke:#FFFFFF;stroke-width:3;stroke-linejoin:round;stroke-miterlimit:10;" d="M167.438,234.209
					l2.252-2.873l-2.83-2.203l-2.206,2.853C165.715,232.518,166.669,233.266,167.438,234.209z"/>
				<path style="fill:#FFFFFF;stroke:#FFFFFF;stroke-width:3;stroke-linejoin:round;stroke-miterlimit:10;" d="M155.009,238.789
					l-2.496-1.156c-0.32,1.34-0.318,2.766,0.053,4.16l2.462-1.21L155.009,238.789z"/>
				<path style="fill:#FFFFFF;stroke:#FFFFFF;stroke-width:3;stroke-linejoin:round;stroke-miterlimit:10;" d="M150.952,232.955
					l-1.52,3.249l3.082,1.429c0.279-1.166,0.8-2.262,1.531-3.218L150.952,232.955z"/>
				<path style="fill:#FFFFFF;stroke:#FFFFFF;stroke-width:3;stroke-linejoin:round;stroke-miterlimit:10;" d="M166.693,237.78
					l2.452-0.036c-0.103-0.453-0.232-0.904-0.412-1.348c-0.329-0.812-0.77-1.543-1.294-2.188l-1.542,1.965L166.693,237.78z"/>
				<path style="fill:#FFFFFF;stroke:#FFFFFF;stroke-width:3;stroke-linejoin:round;stroke-miterlimit:10;" d="M157.449,247.455
					l-0.75,3.411l3.505,0.757l0.742-3.481C159.734,248.158,158.543,247.924,157.449,247.455z"/>
				<path style="fill:#FFFFFF;stroke:#FFFFFF;stroke-width:3;stroke-linejoin:round;stroke-miterlimit:10;" d="M165.975,242.95
					l1.57,1.91c0.813-1.044,1.378-2.261,1.641-3.555l-2.452,0.021L165.975,242.95z"/>
				<path style="fill:#FFFFFF;stroke:#FFFFFF;stroke-width:3;stroke-linejoin:round;stroke-miterlimit:10;" d="M164.818,247.153
					l2.281,2.813l2.777-2.268l-2.332-2.839C166.822,245.787,165.908,246.578,164.818,247.153z"/>
				<path style="fill:#FFFFFF;stroke:#FFFFFF;stroke-width:3;stroke-linejoin:round;stroke-miterlimit:10;" d="M152.567,241.793
					l-3.054,1.502l1.592,3.213l3.068-1.533c-0.515-0.638-0.948-1.357-1.271-2.156C152.765,242.48,152.659,242.137,152.567,241.793z"
					/>
				<path style="fill:#FFFFFF;stroke:#FFFFFF;stroke-width:3;stroke-linejoin:round;stroke-miterlimit:10;" d="M169.186,241.306
					l3.695-0.029l-0.041-3.587l-3.695,0.055C169.413,238.941,169.421,240.151,169.186,241.306z"/>
				<path style="fill:#FFFFFF;stroke:#FFFFFF;stroke-width:3;stroke-linejoin:round;stroke-miterlimit:10;" d="M156.604,243.76
					l-2.431,1.215c0.884,1.096,2.015,1.938,3.276,2.48l0.569-2.594L156.604,243.76z"/>
				<path style="fill:#FFFFFF;stroke:#FFFFFF;stroke-width:3;stroke-linejoin:round;stroke-miterlimit:10;" d="M161.484,245.611
					l-0.539,2.53c1.029-0.017,2.072-0.21,3.083-0.62c0.272-0.11,0.536-0.233,0.79-0.368l-1.59-1.961L161.484,245.611z"/>
			</g>
			
				<circle style="fill:none;stroke:#FFFFFF;stroke-width:5;stroke-linejoin:round;stroke-miterlimit:10;" cx="160.942" cy="239.77" r="5.917"/>
		</g>
		<path style="fill:#FFFFFF;stroke:#FFFFFF;stroke-width:3;stroke-linejoin:round;stroke-miterlimit:10;" d="M145.007,214.938
			l3.997-1.065l-1.032-3.854l-3.992,1.074l-2.938-4.516l2.607-3.213l-3.1-2.51l-2.598,3.215l-2.119-0.813v3.4
			c0.925,0.515,1.799,1.154,2.584,1.94c4.561,4.562,4.561,11.957,0,16.519c-0.786,0.785-1.66,1.426-2.584,1.941v3.528l0.74-0.198
			l2.248,3.47l3.346-2.173l-2.257-3.466l3.393-4.186l3.857,1.485l1.43-3.723l-3.855-1.507L145.007,214.938z"/>
		<path style="fill:#FFFFFF;stroke:#FFFFFF;stroke-width:3;stroke-linejoin:round;stroke-miterlimit:10;" d="M148.666,253.452
			l4.049-0.843l-0.818-3.905l-4.044,0.853l-2.683-4.672l2.781-3.063l-2.956-2.678l-2.772,3.066l-4.917-2.204l0.449-4.112
			l-1.922-0.207v7.374c2.256,0.41,4.416,1.481,6.16,3.226c4.561,4.562,4.561,11.959,0,16.52c-1.744,1.744-3.904,2.815-6.16,3.227
			v3.121l3.557-0.742l2.053,3.589l3.46-1.985l-2.063-3.585l3.62-3.991l3.769,1.696l1.633-3.639l-3.766-1.718L148.666,253.452z"/>
	</g>
	<path style="fill:none;stroke:#FFFFFF;stroke-width:10;stroke-miterlimit:10;" d="M222.096,124.522
		c-1.728,1.728-1.728,4.529,0,6.256l8.342,8.342c1.729,1.728,4.529,1.728,6.257,0l48.837-48.837c1.727-1.728,1.727-4.529,0-6.256
		l-8.342-8.342c-1.729-1.728-4.529-1.728-6.258,0L222.096,124.522z"/>
	<g>
		<g>
			<path style="fill:#FFFFFF;" d="M172.403,196.669c18.485-18.485,36.97-36.97,55.456-55.455c4.564-4.564-2.507-11.635-7.07-7.071
				c-18.485,18.485-36.971,36.971-55.457,55.456C160.768,194.162,167.839,201.233,172.403,196.669L172.403,196.669z"/>
		</g>
	</g>
	<path style="fill:#FFFFFF;" d="M165.311,187.525c2.267-2.268,5.942-2.268,8.209-0.001l0.912,0.912c2.267,2.267,2.267,5.942,0,8.21
		l-12.315,12.314c-2.267,2.268-5.942,2.268-8.21,0l-0.912-0.912c-2.267-2.267-2.267-5.942,0-8.209L165.311,187.525z"/>
</g>
<g id="Ebene_1">
</g>
</svg>
