<?xml version="1.0" encoding="iso-8859-1"?>
<!-- Generator: Adobe Illustrator 16.0.0, SVG Export Plug-In . SVG Version: 6.00 Build 0)  -->
<!DOCTYPE svg PUBLIC "-//W3C//DTD SVG 1.1//EN" "http://www.w3.org/Graphics/SVG/1.1/DTD/svg11.dtd">
<svg version="1.1" xmlns="http://www.w3.org/2000/svg" xmlns:xlink="http://www.w3.org/1999/xlink" x="0px" y="0px" width="361px"
	 height="361px" viewBox="0 0 361 361" style="enable-background:new 0 0 361 361;" xml:space="preserve">
<g id="secur_x5F_burglary">
	<g>
		<path style="fill:#FFFFFF;" d="M244.121,135.03c3.304,0,5.991,2.688,5.992,5.992l-0.001,71.332c0,0.139,0.01,0.277,0.028,0.415
			l2.384,17.077l2.349,16.831c0.034,0.243,0.099,0.482,0.19,0.71l6.357,15.711l6.96,17.201c0.614,1.519,0.521,2.889-0.275,4.071
			c-0.948,1.406-2.782,2.352-4.563,2.352c-1.265,0-2.966-0.48-3.892-2.769l-4.207-10.395l-4.921-12.162l-4.627-11.438
			c-0.246-0.607-0.373-1.189-0.388-1.781c-0.003-0.113-0.012-0.227-0.027-0.34l-2.417-17.308l-1.219-8.735
			c-0.207-1.481-1.475-2.585-2.972-2.585h-2.553c-1.521,0-2.802,1.139-2.979,2.649l-4.36,37.099l-3.091,26.294
			c-0.435,3.696-3.621,3.983-4.588,3.983c-1.559,0-3.021-0.597-3.91-1.598c-0.769-0.863-1.076-2.002-0.914-3.381l4.531-38.547
			l3.746-31.869c0.017-0.138,0.022-0.276,0.02-0.414c-0.001-0.083-0.006-0.165-0.013-0.265v-31.52c0-0.953-0.453-1.85-1.221-2.415
			c-0.521-0.385-1.146-0.585-1.779-0.585c-0.298,0-0.597,0.044-0.889,0.135l-29.106,9.021c-0.312,0.097-0.607,0.146-0.878,0.146
			c-1.416,0-2.148-1.44-2.295-2.408c-0.143-0.942,0.027-2.171,1.644-2.672l21.096-6.537l6.356-1.97
			c0.94-0.292,1.679-1.026,1.974-1.965l3.44-10.939l0.03-0.095c0.301-0.958,0.103-2.003-0.528-2.784l-5.243-6.496l-10.383-12.862
			c-0.645-0.798-0.769-1.583-0.378-2.399c0.487-1.02,1.637-1.788,2.674-1.788c0.647,0,1.211,0.309,1.723,0.943l4.037,5.001
			l4.393,5.442c0.581,0.719,1.446,1.116,2.336,1.116c0.333,0,0.671-0.056,0.998-0.171c1.199-0.423,2.001-1.557,2.001-2.829v-3.51
			c0-1.6,0.623-3.105,1.755-4.237c1.132-1.131,2.636-1.755,4.236-1.755H244.121 M244.121,132.03h-13.367
			c-4.965,0-8.992,4.026-8.991,8.992v3.51c-2.81-3.481-5.62-6.962-8.43-10.443c-1.174-1.454-2.627-2.059-4.058-2.059
			c-4.083,0-7.978,4.923-4.631,9.071c5.21,6.452,10.418,12.905,15.627,19.358c-1.156,3.678-2.313,7.355-3.47,11.033
			c-9.151,2.836-18.302,5.672-27.452,8.507c-6.258,1.939-4.084,10.946,1.539,10.946c0.557,0,1.146-0.089,1.766-0.28
			c9.703-3.007,19.404-6.014,29.107-9.021v31.576c0,0.092,0.012,0.18,0.014,0.271c-2.822,24.003-5.443,46.318-8.277,70.416
			c-0.631,5.368,3.609,8.329,7.804,8.329c3.534,0,7.035-2.101,7.567-6.634c2.555-21.732,4.938-42.013,7.451-63.392h2.553
			c1.588,11.376,0.867,6.208,3.636,26.043c0.022,0.897,0.206,1.845,0.606,2.833c9.345,23.098,4.406,10.893,13.754,33.992
			c1.322,3.27,3.971,4.644,6.673,4.644c4.93,0,10.039-4.569,7.62-10.548c-9.191-22.721-4.578-11.311-13.317-32.912
			c-3.297-23.623-1.714-12.275-4.732-33.908l0.001-71.332C253.112,136.056,249.088,132.03,244.121,132.03L244.121,132.03z"/>
	</g>
	<g style="display:none;">
		<path style="display:inline;fill:#FFFFFF;" d="M221.762,213.219c0.001,4.967,4.025,8.991,8.992,8.991h13.367
			c4.966,0,8.992-4.024,8.991-8.991l0.001-72.197c-0.001-4.966-4.025-8.992-8.992-8.992h-13.367c-4.965,0-8.992,4.026-8.991,8.992
			L221.762,213.219z"/>
		<path style="display:inline;fill:#FFFFFF;" d="M224.537,165.743c-6.63-8.214-13.26-16.429-19.893-24.643
			c-4.52-5.601,4.166-12.616,8.688-7.012c6.63,8.213,13.262,16.426,19.892,24.643C237.746,164.333,229.059,171.346,224.537,165.743
			L224.537,165.743z"/>
		<g style="display:inline;">
			<path style="fill:#FFFFFF;" d="M222.002,211.56c-2.908,24.747-5.594,47.599-8.504,72.347
				c-1.162,9.891,14.207,11.609,15.371,1.695c2.908-24.744,5.595-47.602,8.505-72.346
				C238.537,203.361,223.168,201.645,222.002,211.56z"/>
			<path style="fill:#FFFFFF;" d="M226.67,176.746c0.24-0.395,0.447-0.835,0.604-1.335c3.168-10.07,6.334-20.139,9.5-30.209
				c2.16-6.87-8.491-10.219-10.651-3.349c-3.107,9.88-6.213,19.759-9.32,29.639c-9.151,2.836-18.302,5.672-27.452,8.507
				c-6.877,2.13-3.572,12.796,3.305,10.666c10.084-3.125,20.167-6.25,30.251-9.375C225.347,180.532,226.5,178.699,226.67,176.746z"
				/>
			<path style="fill:#FFFFFF;" d="M271.162,279.174c-9.191-22.721-4.578-11.311-13.317-32.912
				c-3.403-24.386-1.606-11.506-5.04-36.109c-1.377-9.867-16.681-7.642-15.301,2.247c3.422,24.515,1.65,11.825,5.005,35.854
				c0.022,0.897,0.206,1.845,0.606,2.833c9.345,23.098,4.406,10.893,13.754,33.992C260.604,294.31,274.907,288.43,271.162,279.174z"
				/>
		</g>
	</g>
	<path style="fill:none;stroke:#FFFFFF;stroke-width:10;stroke-miterlimit:10;" d="M75.163,280.715c0,3.408,2.712,6.168,6.058,6.168
		h92.89c3.346,0,6.058-2.76,6.058-6.168V80.619c0-3.406-2.712-6.167-6.058-6.167h-92.89c-3.346,0-6.058,2.761-6.058,6.167V280.715z"
		/>
	<g>
		<g>
			<path style="fill:#FFFFFF;" d="M178.169,175.47c-3.333,0-6.667,0-10,0c-6.449,0-6.449,10,0,10c3.333,0,6.667,0,10,0
				C184.617,185.471,184.617,175.47,178.169,175.47L178.169,175.47z"/>
		</g>
	</g>
	<path style="fill:none;stroke:#FFFFFF;stroke-width:10;stroke-miterlimit:10;" d="M76.835,279.805c0-3.314,2.687-6,6-6h91.333
		c3.313,0,6,2.686,6,6v0.666c0,3.313-2.687,6-6,6H82.835c-3.313,0-6-2.688-6-6V279.805z"/>
	<g id="brecheisen" style="display:none;">
		<g style="display:inline;">
			<path style="fill:#FFFFFF;" d="M194.125,129.458c3.022-0.004,6.052-0.135,9.072-0.027c5.029,0.18,1.427,5.666-0.161,8.166
				c-1.516,2.386-1.535,5.093-1.532,7.799c0.008,7.619,0.004,15.237,0.004,22.856c-0.001,9.294-0.003,18.589-0.005,27.883
				c-0.001,5.021,0.042,9.218,1.088,14.115c0.404,1.892,3.296,1.09,2.893-0.797c-1.091-5.107-0.981-9.948-0.979-15.605
				c0.002-10.462,0.004-20.924,0.004-31.386c0-6.375,0.04-12.752-0.008-19.128c-0.039-5.192,7.011-9.664,3.382-15.02
				c-2.376-3.508-10.436-1.861-13.757-1.856C192.19,126.46,192.19,129.46,194.125,129.458L194.125,129.458z"/>
		</g>
	</g>
	<g id="brecheisen_1_">
		<g>
			<path style="fill:#FFFFFF;" d="M218.36,125.355c-2.806-1.167-9.454-5.606-12.526-2.663c-4.449,4.262-0.75,10.486-2.883,15.591
				c-2.641,6.322-5.237,12.664-7.854,18.996c-4.021,9.738-8.043,19.476-12.063,29.214c-2.235,5.413-4.143,10.202-7.112,14.786
				c-1.055,1.629,1.543,3.131,2.591,1.514c2.563-3.958,4.184-7.678,5.983-12.037c3.625-8.779,7.25-17.558,10.875-26.337
				c3.088-7.477,6.176-14.954,9.268-22.429c0.826-1.996,1.993-4.201,2.151-6.363c0.166-2.262-1.806-10.564,1.644-10.889
				c2.779-0.262,6.589,2.453,9.13,3.509C219.35,128.991,220.12,126.087,218.36,125.355L218.36,125.355z"/>
		</g>
	</g>
	<g>
		<g>
			<path style="fill:#FFFFFF;" d="M217.004,114.975C217.027,115.167,216.977,114.783,217.004,114.975
				c1.442,9.691,10.297,15.417,19.987,13.975c9.692-1.442,16.379-10.466,14.938-20.158c-0.029-0.192-0.08-0.375-0.115-0.565
				L217.004,114.975z"/>
		</g>
		<g>
			<path style="fill:#FFFFFF;" d="M247.971,100.012c-3.77-5.126-9.47-7.158-16.202-6.156c-6.731,1.002-11.175,3.702-13.289,9.702
				L247.971,100.012z"/>
		</g>
	</g>
	<path style="fill:#FFFFFF;" d="M226.289,108.625c0.145,0.967-0.367,1.845-1.141,1.961l-3.817,0.571
		c-0.774,0.116-1.519-0.574-1.664-1.541l0,0c-0.144-0.968,0.366-1.846,1.14-1.961l3.818-0.57
		C225.398,106.967,226.144,107.658,226.289,108.625L226.289,108.625z"/>
</g>
<g id="Ebene_1">
</g>
</svg>
