<?xml version="1.0" encoding="iso-8859-1"?>
<!-- Generator: Adobe Illustrator 16.0.0, SVG Export Plug-In . SVG Version: 6.00 Build 0)  -->
<!DOCTYPE svg PUBLIC "-//W3C//DTD SVG 1.1//EN" "http://www.w3.org/Graphics/SVG/1.1/DTD/svg11.dtd">
<svg version="1.1" xmlns="http://www.w3.org/2000/svg" xmlns:xlink="http://www.w3.org/1999/xlink" x="0px" y="0px" width="361px"
	 height="361px" viewBox="0 0 361 361" style="enable-background:new 0 0 361 361;" xml:space="preserve">
<g id="status_x5F_locked">
	<g>
		<g>
			<g>
				<polygon style="fill:#FFFFFF;" points="180.744,155.583 180.5,74.583 287.301,155.583 				"/>
				<g>
					<path style="fill:#FFFFFF;" d="M185.744,155.583c-0.081-27-0.163-54-0.244-81c-2.508,1.439-5.016,2.878-7.523,4.317
						c35.59,26.992,71.18,53.984,106.77,80.976c0.011,0.008,0.021,0.016,0.031,0.024c0.841-3.106,1.683-6.211,2.523-9.317
						c-35.519,0-71.038,0-106.557,0c-6.449,0-6.449,10,0,10c35.519,0,71.038,0,106.557,0c5.402,0,6.252-6.489,2.523-9.317
						c-35.59-26.992-71.18-53.984-106.77-80.976c-0.011-0.008-0.021-0.016-0.031-0.024c-3.125-2.371-7.534,0.868-7.523,4.317
						c0.082,27,0.163,54,0.244,81C175.764,162.031,185.764,162.033,185.744,155.583z"/>
				</g>
			</g>
			<g>
				<polygon style="fill:#FFFFFF;" points="180.256,155.583 180.5,74.584 73.699,155.583 				"/>
				<g>
					<path style="fill:#FFFFFF;" d="M185.256,155.583c0.081-27,0.163-54,0.244-81c0.011-3.45-4.397-6.688-7.523-4.317
						c-35.59,26.992-71.18,53.984-106.77,80.976c-0.011,0.008-0.021,0.016-0.031,0.023c-3.729,2.828-2.879,9.317,2.523,9.317
						c35.519,0,71.038,0,106.557,0c6.448,0,6.448-10,0-10c-35.519,0-71.038,0-106.557,0c0.841,3.106,1.683,6.211,2.523,9.317
						c35.59-26.992,71.18-53.984,106.77-80.976c0.011-0.008,0.021-0.016,0.031-0.023c-2.508-1.439-5.016-2.878-7.523-4.317
						c-0.082,27-0.163,54-0.244,81C175.236,162.033,185.236,162.031,185.256,155.583z"/>
				</g>
			</g>
		</g>
		<path style="fill:none;stroke:#FFFFFF;stroke-width:10;stroke-miterlimit:10;" d="M268.5,278.988c0,3.919-3.927,7.096-8.771,7.096
			H101.938c-4.844,0-8.771-3.177-8.771-7.096V149.607c0-3.918,175.333-3.918,175.333,0V278.988z"/>
	</g>
	<g id="Person_x5F_orig_3_" style="display:none;">
		<circle style="display:inline;fill:#FFFFFF;stroke:#FFFFFF;" cx="313.985" cy="133.958" r="21.125"/>
		<g style="display:inline;">
			<g>
				<path style="fill:#FFFFFF;" d="M291.581,253.836c0,29.011,0,58.021,0,87.033c0,11.623,18.004,11.726,18.004,0.129
					c0-29.011,0-58.021,0-87.033C309.585,242.342,291.581,242.239,291.581,253.836L291.581,253.836z"/>
			</g>
		</g>
		<g style="display:inline;">
			<g>
				<path style="fill:#FFFFFF;" d="M318.581,253.836c0,29.011,0,58.021,0,87.033c0,11.623,18.004,11.726,18.004,0.129
					c0-29.011,0-58.021,0-87.033C336.585,242.342,318.581,242.239,318.581,253.836L318.581,253.836z"/>
			</g>
		</g>
		<path style="display:inline;fill:#FFFFFF;" d="M336.67,255.49c0,5.783-4.688,10.471-10.471,10.471h-24.429
			c-5.782,0-10.47-4.688-10.47-10.471v-84.06c0-5.783,4.688-10.47,10.47-10.47h24.429c5.783,0,10.471,4.687,10.471,10.47V255.49z"/>
		<g style="display:inline;">
			<g>
				<g>
					<path style="fill:#FFFFFF;" d="M339.087,172.461c0,12.291,0,24.582,0,36.873c0,8.383,13,8.383,13,0c0-12.291,0-24.582,0-36.873
						C352.087,164.078,339.087,164.078,339.087,172.461L339.087,172.461z"/>
				</g>
			</g>
			<g>
				<g>
					<path style="fill:#FFFFFF;" d="M339.087,209.334c0,12.291,0,24.582,0,36.873c0,8.383,13,8.383,13,0c0-12.291,0-24.582,0-36.873
						C352.087,200.951,339.087,200.951,339.087,209.334L339.087,209.334z"/>
				</g>
			</g>
			<g>
				<g>
					<path style="fill:#FFFFFF;" d="M275.884,172.46c0,12.291,0,24.582,0,36.873c0,8.383,13,8.383,13,0c0-12.291,0-24.582,0-36.873
						C288.884,164.077,275.884,164.077,275.884,172.46L275.884,172.46z"/>
				</g>
			</g>
			<g>
				<g>
					<path style="fill:#FFFFFF;" d="M275.884,209.333c0,12.291,0,24.583,0,36.874c0,8.383,13,8.383,13,0c0-12.291,0-24.583,0-36.874
						C288.884,200.95,275.884,200.95,275.884,209.333L275.884,209.333z"/>
				</g>
			</g>
		</g>
	</g>
	<g>
		<g>
			<g>
				<path style="fill:#FFFFFF;" d="M150.747,222.513c0.081-0.373,1.206-0.235,2.468-0.235c2.737,0,5.474,0,8.21,0
					c7.79,0,15.58,0,23.37,0c7.008,0,14.016,0,21.023,0c1.65,0,3.3,0,4.95,0c0.916,0,0.025-0.1,0.025-0.592c0,0.621,0,1.242,0,1.863
					c0,13.906,0,27.813,0,41.719c0,1.796,0,3.592,0,5.388c0,0.868,0.665-0.288,0.305-0.288c-0.604,0-1.208,0-1.813,0
					c-5.912,0-11.825,0-17.737,0c-10.041,0-20.083,0-30.124,0c-3.138,0-6.276,0-9.415,0c-0.538,0-1.076,0-1.613,0
					c0.539,0,0.474,1.143,0.474,0.288c0-0.52,0-1.04,0-1.56c0-15.838,0-31.676,0-47.514c0-4.514-7-4.514-7,0
					c0,12.218,0,24.435,0,36.652c0,4.276,0,8.552,0,12.828c0,6.302,6.341,6.305,10.834,6.305c14.642,0,29.283,0,43.924,0
					c4.191,0,8.384,0,12.575,0c6.223,0,6.59-5.658,6.59-10.249c0-12.54,0-25.079,0-37.618c0-3.279,0.336-6.716-0.361-9.94
					c-0.988-4.568-6.404-4.282-9.946-4.282c-12.457,0-24.913,0-37.371,0c-5.479,0-10.957,0-16.435,0
					c-4.221,0-8.585,0.29-9.685,5.374C143.045,225.053,149.793,226.924,150.747,222.513z"/>
			</g>
		</g>
		<g>
			<g>
				<path style="fill:#FFFFFF;" d="M148.19,264.796c11.279,0,22.559,0,33.838,0c4.514,0,4.514-7,0-7c-11.279,0-22.559,0-33.838,0
					C143.676,257.796,143.676,264.796,148.19,264.796L148.19,264.796z"/>
			</g>
		</g>
		<g>
			<g>
				<path style="fill:#FFFFFF;" d="M149.776,251.24c10.75,0,21.501,0,32.252,0c4.514,0,4.514-7,0-7c-10.75,0-21.501,0-32.252,0
					C145.262,244.24,145.262,251.24,149.776,251.24L149.776,251.24z"/>
			</g>
		</g>
		<g>
			<g>
				<path style="fill:#FFFFFF;" d="M149.776,237.685c10.75,0,21.501,0,32.252,0c4.514,0,4.514-7,0-7c-10.75,0-21.501,0-32.252,0
					C145.262,230.685,145.262,237.685,149.776,237.685L149.776,237.685z"/>
			</g>
		</g>
		<g>
			<g>
				<path style="fill:#FFFFFF;" d="M161.397,216.35c0-3.627,0-7.253,0-10.88c0-1.574,0-3.148,0-4.723
					c0-0.552-0.754,1.849,0.134,0.219c0.583-1.07,1.32-2.063,2.026-3.053c1.301-1.82,2.802-3.513,4.371-5.104
					c1.249-1.268-2.972-0.082,0.135-0.082c4.085,0,8.17,0,12.255,0s8.17,0,12.255,0c2.338,0,0.699,0.515-0.419-0.441
					c1.873,1.602,3.462,3.659,4.926,5.628c0.568,0.765,1.092,1.559,1.608,2.358c0.713,1.102,0.552,1.918,0.552,0.243
					c0,1.651,0,3.303,0,4.955c0,3.627,0,7.253,0,10.88c0,6.448,10,6.448,10,0c0-4.477,0-8.953,0-13.429
					c0-4.81-1.866-7.933-4.795-11.731c-2.598-3.371-5.978-8.463-10.746-8.463c-4.461,0-8.921,0-13.381,0s-8.92,0-13.38,0
					c-4.769,0-8.147,5.093-10.746,8.463c-2.928,3.799-4.795,6.922-4.795,11.731c0,4.476,0,8.952,0,13.429
					C151.397,222.798,161.397,222.798,161.397,216.35L161.397,216.35z"/>
			</g>
		</g>
	</g>
</g>
<g id="Ebene_1">
</g>
</svg>
