<?xml version="1.0" encoding="iso-8859-1"?>
<!-- Generator: Adobe Illustrator 16.0.0, SVG Export Plug-In . SVG Version: 6.00 Build 0)  -->
<!DOCTYPE svg PUBLIC "-//W3C//DTD SVG 1.1//EN" "http://www.w3.org/Graphics/SVG/1.1/DTD/svg11.dtd">
<svg version="1.1" xmlns="http://www.w3.org/2000/svg" xmlns:xlink="http://www.w3.org/1999/xlink" x="0px" y="0px" width="361px"
	 height="361px" viewBox="0 0 361 361" style="enable-background:new 0 0 361 361;" xml:space="preserve">
<g id="status_x5F_protection">
	<g>
		<g>
			<g>
				<polygon style="fill:#FFFFFF;" points="180.744,155.583 180.5,74.583 287.301,155.583 				"/>
				<g>
					<path style="fill:#FFFFFF;" d="M185.744,155.583c-0.081-27-0.163-54-0.244-81c-2.508,1.439-5.016,2.878-7.523,4.317
						c35.59,26.992,71.18,53.984,106.77,80.976c0.011,0.008,0.021,0.016,0.031,0.024c0.841-3.106,1.683-6.211,2.523-9.317
						c-35.519,0-71.038,0-106.557,0c-6.449,0-6.449,10,0,10c35.519,0,71.038,0,106.557,0c5.402,0,6.252-6.489,2.523-9.317
						c-35.59-26.992-71.18-53.984-106.77-80.976c-0.011-0.008-0.021-0.016-0.031-0.024c-3.125-2.371-7.534,0.868-7.523,4.317
						c0.082,27,0.163,54,0.244,81C175.764,162.031,185.764,162.033,185.744,155.583z"/>
				</g>
			</g>
			<g>
				<polygon style="fill:#FFFFFF;" points="180.256,155.583 180.5,74.584 73.699,155.583 				"/>
				<g>
					<path style="fill:#FFFFFF;" d="M185.256,155.583c0.081-27,0.163-54,0.244-81c0.011-3.45-4.397-6.688-7.523-4.317
						c-35.59,26.992-71.18,53.984-106.77,80.976c-0.011,0.008-0.021,0.016-0.031,0.023c-3.729,2.828-2.879,9.317,2.523,9.317
						c35.519,0,71.038,0,106.557,0c6.448,0,6.448-10,0-10c-35.519,0-71.038,0-106.557,0c0.841,3.106,1.683,6.211,2.523,9.317
						c35.59-26.992,71.18-53.984,106.77-80.976c0.011-0.008,0.021-0.016,0.031-0.023c-2.508-1.439-5.016-2.878-7.523-4.317
						c-0.082,27-0.163,54-0.244,81C175.236,162.033,185.236,162.031,185.256,155.583z"/>
				</g>
			</g>
		</g>
		<path style="fill:none;stroke:#FFFFFF;stroke-width:10;stroke-miterlimit:10;" d="M268.5,278.988c0,3.919-3.927,7.096-8.771,7.096
			H101.938c-4.844,0-8.771-3.177-8.771-7.096V149.607c0-3.918,175.333-3.918,175.333,0V278.988z"/>
	</g>
	
		<rect x="143.607" y="205.954" transform="matrix(0.7071 -0.7071 0.7071 0.7071 -97.7751 191.3781)" style="fill:#FFFFFF;" width="77.04" height="15.522"/>
	<path style="fill:none;stroke:#FFFFFF;stroke-width:10;stroke-miterlimit:10;" d="M215.15,210.838
		c0,25.922-16.406,53.415-33.979,53.415c-17.573,0-33.979-27.493-33.979-53.415c0-9.452-0.266-18.252,2.993-25.617
		c0,0,19.82-6.634,30.986-6.634c11.149,0,30.961,6.577,30.961,6.577C215.406,192.542,215.15,201.362,215.15,210.838z"/>
</g>
<g id="Ebene_1">
</g>
</svg>
