<?xml version="1.0" encoding="iso-8859-1"?>
<!-- Generator: Adobe Illustrator 16.0.0, SVG Export Plug-In . SVG Version: 6.00 Build 0)  -->
<!DOCTYPE svg PUBLIC "-//W3C//DTD SVG 1.1//EN" "http://www.w3.org/Graphics/SVG/1.1/DTD/svg11.dtd">
<svg version="1.1" xmlns="http://www.w3.org/2000/svg" xmlns:xlink="http://www.w3.org/1999/xlink" x="0px" y="0px" width="361px"
	 height="361px" viewBox="0 0 361 361" style="enable-background:new 0 0 361 361;" xml:space="preserve">
<g id="status_x5F_frost">
	<g>
		<g>
			<g>
				<polygon style="fill:#FFFFFF;" points="180.744,155.583 180.5,74.583 287.301,155.583 				"/>
				<g>
					<path style="fill:#FFFFFF;" d="M185.744,155.583c-0.081-27-0.163-54-0.244-81c-2.508,1.439-5.016,2.878-7.523,4.317
						c35.59,26.992,71.18,53.984,106.77,80.976c0.011,0.008,0.021,0.016,0.031,0.024c0.841-3.106,1.683-6.211,2.523-9.317
						c-35.519,0-71.038,0-106.557,0c-6.449,0-6.449,10,0,10c35.519,0,71.038,0,106.557,0c5.402,0,6.252-6.489,2.523-9.317
						c-35.59-26.992-71.18-53.984-106.77-80.976c-0.011-0.008-0.021-0.016-0.031-0.024c-3.125-2.371-7.534,0.868-7.523,4.317
						c0.082,27,0.163,54,0.244,81C175.764,162.031,185.764,162.033,185.744,155.583z"/>
				</g>
			</g>
			<g>
				<polygon style="fill:#FFFFFF;" points="180.256,155.583 180.5,74.584 73.699,155.583 				"/>
				<g>
					<path style="fill:#FFFFFF;" d="M185.256,155.583c0.081-27,0.163-54,0.244-81c0.011-3.45-4.397-6.688-7.523-4.317
						c-35.59,26.992-71.18,53.984-106.77,80.976c-0.011,0.008-0.021,0.016-0.031,0.023c-3.729,2.828-2.879,9.317,2.523,9.317
						c35.519,0,71.038,0,106.557,0c6.448,0,6.448-10,0-10c-35.519,0-71.038,0-106.557,0c0.841,3.106,1.683,6.211,2.523,9.317
						c35.59-26.992,71.18-53.984,106.77-80.976c0.011-0.008,0.021-0.016,0.031-0.023c-2.508-1.439-5.016-2.878-7.523-4.317
						c-0.082,27-0.163,54-0.244,81C175.236,162.033,185.236,162.031,185.256,155.583z"/>
				</g>
			</g>
		</g>
		<path style="fill:none;stroke:#FFFFFF;stroke-width:10;stroke-miterlimit:10;" d="M268.5,278.988c0,3.919-3.927,7.096-8.771,7.096
			H101.938c-4.844,0-8.771-3.177-8.771-7.096V149.607c0-3.918,175.333-3.918,175.333,0V278.988z"/>
	</g>
	<g>
		<g>
			<g>
				<path style="fill:#FFFFFF;" d="M206.236,223.13c0,6.322,0,12.646,0,18.968c0,4.514,7,4.514,7,0c0-6.322,0-12.646,0-18.968
					C213.236,218.616,206.236,218.616,206.236,223.13L206.236,223.13z"/>
			</g>
		</g>
		<g>
			<g>
				<path style="fill:#FFFFFF;" d="M202.45,228.062c1.843,1.063,3.687,2.128,5.529,3.192c1.653,0.954,3.821,0.396,4.789-1.256
					c0.96-1.639,0.394-3.836-1.256-4.789c-1.843-1.063-3.687-2.128-5.529-3.192c-1.653-0.954-3.821-0.396-4.789,1.256
					C200.234,224.911,200.801,227.108,202.45,228.062L202.45,228.062z"/>
			</g>
		</g>
		<g>
			<g>
				<path style="fill:#FFFFFF;" d="M213.426,222.017c-1.843,1.064-3.687,2.129-5.529,3.192c-1.649,0.953-2.216,3.15-1.256,4.789
					c0.968,1.651,3.136,2.21,4.789,1.256c1.843-1.064,3.687-2.129,5.529-3.192c1.649-0.953,2.216-3.15,1.256-4.789
					C217.247,221.621,215.079,221.063,213.426,222.017L213.426,222.017z"/>
			</g>
		</g>
	</g>
	<g>
		<g>
			<g>
				<path style="fill:#FFFFFF;" d="M191.478,235.417c5.476,3.161,10.95,6.322,16.426,9.484c3.917,2.261,7.439-3.789,3.533-6.045
					c-5.476-3.161-10.95-6.322-16.426-9.484C191.094,227.111,187.571,233.161,191.478,235.417L191.478,235.417z"/>
			</g>
		</g>
		<g>
			<g>
				<path style="fill:#FFFFFF;" d="M193.904,241.152c1.844-1.064,3.687-2.129,5.53-3.192c1.649-0.952,2.216-3.15,1.256-4.789
					c-0.968-1.651-3.136-2.21-4.789-1.256c-1.844,1.064-3.687,2.129-5.53,3.192c-1.649,0.952-2.216,3.15-1.256,4.789
					C190.083,241.548,192.251,242.106,193.904,241.152L193.904,241.152z"/>
			</g>
		</g>
		<g>
			<g>
				<path style="fill:#FFFFFF;" d="M194.126,228.625c0,2.128,0,4.257,0,6.385c0,4.514,7,4.514,7,0c0-2.128,0-4.257,0-6.385
					C201.126,224.111,194.126,224.111,194.126,228.625L194.126,228.625z"/>
			</g>
		</g>
	</g>
	<g>
		<g>
			<g>
				<path style="fill:#FFFFFF;" d="M195.052,254.372c5.476-3.162,10.952-6.323,16.428-9.484c3.907-2.256,0.384-8.306-3.533-6.045
					c-5.476,3.162-10.952,6.323-16.428,9.484C187.611,250.583,191.135,256.633,195.052,254.372L195.052,254.372z"/>
			</g>
		</g>
		<g>
			<g>
				<path style="fill:#FFFFFF;" d="M201.199,255.174c0-2.128,0-4.256,0-6.384c0-4.514-7-4.514-7,0c0,2.128,0,4.256,0,6.384
					C194.199,259.688,201.199,259.688,201.199,255.174L201.199,255.174z"/>
			</g>
		</g>
		<g>
			<g>
				<path style="fill:#FFFFFF;" d="M190.444,248.691c1.843,1.064,3.687,2.129,5.529,3.193c1.652,0.954,3.821,0.396,4.789-1.256
					c0.96-1.64,0.394-3.836-1.256-4.789c-1.843-1.064-3.687-2.129-5.529-3.193c-1.652-0.954-3.821-0.396-4.789,1.256
					C188.229,245.542,188.795,247.738,190.444,248.691L190.444,248.691z"/>
			</g>
		</g>
	</g>
	<g>
		<g>
			<g>
				<path style="fill:#FFFFFF;" d="M213.215,260.902c0-6.322,0-12.646,0-18.968c0-4.514-7-4.514-7,0c0,6.322,0,12.646,0,18.968
					C206.215,265.416,213.215,265.416,213.215,260.902L213.215,260.902z"/>
			</g>
		</g>
		<g>
			<g>
				<path style="fill:#FFFFFF;" d="M217.001,255.97c-1.843-1.063-3.687-2.128-5.529-3.192c-1.653-0.954-3.821-0.396-4.789,1.256
					c-0.96,1.639-0.394,3.836,1.256,4.789c1.843,1.063,3.687,2.128,5.529,3.192c1.653,0.954,3.821,0.396,4.789-1.256
					C219.217,259.12,218.65,256.923,217.001,255.97L217.001,255.97z"/>
			</g>
		</g>
		<g>
			<g>
				<path style="fill:#FFFFFF;" d="M206.024,262.015c1.844-1.064,3.687-2.129,5.53-3.192c1.649-0.952,2.216-3.15,1.256-4.789
					c-0.968-1.651-3.136-2.21-4.789-1.256c-1.844,1.064-3.687,2.129-5.53,3.192c-1.649,0.952-2.216,3.15-1.256,4.789
					C202.203,262.41,204.371,262.969,206.024,262.015L206.024,262.015z"/>
			</g>
		</g>
	</g>
	<g>
		<g>
			<g>
				<path style="fill:#FFFFFF;" d="M227.974,248.47c-5.476-3.161-10.951-6.322-16.427-9.484c-3.917-2.261-7.44,3.789-3.533,6.045
					c5.476,3.161,10.951,6.322,16.427,9.484C228.357,256.775,231.881,250.726,227.974,248.47L227.974,248.47z"/>
			</g>
		</g>
		<g>
			<g>
				<path style="fill:#FFFFFF;" d="M225.546,242.735c-1.843,1.064-3.687,2.129-5.529,3.192c-1.649,0.953-2.216,3.15-1.256,4.789
					c0.968,1.651,3.136,2.21,4.789,1.256c1.843-1.064,3.687-2.129,5.529-3.192c1.649-0.953,2.216-3.15,1.256-4.789
					C229.367,242.34,227.199,241.781,225.546,242.735L225.546,242.735z"/>
			</g>
		</g>
		<g>
			<g>
				<path style="fill:#FFFFFF;" d="M225.325,255.263c0-2.128,0-4.257,0-6.385c0-4.514-7-4.514-7,0c0,2.128,0,4.257,0,6.385
					C218.325,259.776,225.325,259.776,225.325,255.263L225.325,255.263z"/>
			</g>
		</g>
	</g>
	<g>
		<g>
			<g>
				<path style="fill:#FFFFFF;" d="M224.398,229.516c-5.476,3.161-10.951,6.322-16.427,9.483c-3.907,2.256-0.384,8.306,3.533,6.045
					c5.476-3.161,10.951-6.322,16.427-9.483C231.839,233.305,228.315,227.255,224.398,229.516L224.398,229.516z"/>
			</g>
		</g>
		<g>
			<g>
				<path style="fill:#FFFFFF;" d="M218.252,228.713c0,2.128,0,4.257,0,6.385c0,4.514,7,4.514,7,0c0-2.128,0-4.257,0-6.385
					C225.252,224.199,218.252,224.199,218.252,228.713L218.252,228.713z"/>
			</g>
		</g>
		<g>
			<g>
				<path style="fill:#FFFFFF;" d="M229.007,235.195c-1.843-1.063-3.687-2.128-5.529-3.192c-1.653-0.954-3.821-0.396-4.789,1.256
					c-0.96,1.639-0.394,3.836,1.256,4.789c1.843,1.063,3.687,2.128,5.529,3.192c1.653,0.954,3.821,0.396,4.789-1.256
					C231.223,238.346,230.656,236.148,229.007,235.195L229.007,235.195z"/>
			</g>
		</g>
	</g>
	<g>
		<g>
			<path style="fill:#FFFFFF;" d="M157.777,243.147c0.075-0.257,1.1-0.124-0.284-0.124c-0.803,0-1.606,0-2.409,0
				c-1.762,0-3.523,0-5.284,0c-1.614,0-0.159,1.171-0.159,0.75c0-0.631,0-1.261,0-1.892c0-5.728,0-11.454,0-17.182
				c0-14.65,0-29.301,0-43.951c0-1.392,0-2.785,0-4.177c0-0.42-1.455,0.75,0.159,0.75c2.062,0,4.123,0,6.185,0
				c0.682,0,1.364,0,2.046,0c0.998,0-0.379-0.708-0.379-0.978c0,0.37,0,0.739,0,1.109c0,2.084,0,4.168,0,6.253
				c0,15.129,0,30.259,0,45.388c0,4.994,0,9.989,0,14.983c0,4.514,7,4.514,7,0c0-22.578,0-45.155,0-67.733
				c0-7.834-10.75-6.022-15.739-6.022c-6.065,0-6.272,5.512-6.272,9.914c0,14.516,0,29.032,0,43.547c0,6.707,0,13.415,0,20.122
				c0,5.096,4.619,6.118,8.667,6.118c5.118,0,11.413,1.15,13.219-5.015C165.8,240.666,159.044,238.825,157.777,243.147z"/>
		</g>
	</g>
	<g>
		<path style="fill:#FFFFFF;" d="M165.126,264.479c0,1.463-0.93,2.648-2.077,2.648h-18.805c-1.147,0-2.077-1.186-2.077-2.648
			v-15.307c0-1.462,0.93-2.648,2.077-2.648h18.805c1.147,0,2.077,1.187,2.077,2.648V264.479z"/>
		<g>
			<path style="fill:#FFFFFF;" d="M161.751,263.548c-0.001,0.009,2.154,0.079-0.542,0.079c-1.769,0-3.538,0-5.307,0
				c-3.6,0-7.2,0-10.799,0c-1.646,0,0.565,1.59,0.565-0.124c0-1.642,0-3.283,0-4.926c0-3.113,0-6.226,0-9.339
				c0,0.853-2.185,0.785-0.929,0.785c0.65,0,1.3,0,1.949,0c1.866,0,3.732,0,5.599,0c3.423,0,6.846,0,10.269,0
				c1.256,0-0.929,0.067-0.929-0.785c0,0.472,0,0.942,0,1.414c0,1.764,0,3.527,0,5.292c0,2.845,0,5.689,0,8.534c0,4.514,7,4.514,7,0
				c0-4.191,0-8.384,0-12.575c0-3.957-0.667-8.88-5.801-8.88c-4.658,0-9.315,0-13.973,0c-4.321,0-9.182-0.322-10.06,5.218
				c-0.651,4.114-0.125,8.628-0.125,12.781c0,3.96,0.211,9.604,5.634,9.604c4.441,0,8.883,0,13.325,0
				c4.492,0,9.946,0.646,10.875-5.218C169.2,260.994,162.455,259.1,161.751,263.548z"/>
		</g>
	</g>
	<g>
		<g>
			<path style="fill:#FFFFFF;" d="M169.892,182.62c2.649,0,5.298,0,7.947,0c4.514,0,4.514-7,0-7c-2.649,0-5.298,0-7.947,0
				C165.378,175.62,165.378,182.62,169.892,182.62L169.892,182.62z"/>
		</g>
	</g>
	<g>
		<g>
			<path style="fill:#FFFFFF;" d="M169.892,200.281c2.649,0,5.298,0,7.947,0c4.514,0,4.514-7,0-7c-2.649,0-5.298,0-7.947,0
				C165.378,193.281,165.378,200.281,169.892,200.281L169.892,200.281z"/>
		</g>
	</g>
	<g>
		<g>
			<path style="fill:#FFFFFF;" d="M169.892,218.383c2.649,0,5.298,0,7.947,0c4.514,0,4.514-7,0-7c-2.649,0-5.298,0-7.947,0
				C165.378,211.383,165.378,218.383,169.892,218.383L169.892,218.383z"/>
		</g>
	</g>
	<g>
		<g>
			<path style="fill:#FFFFFF;" d="M169.892,237.367c2.649,0,5.298,0,7.947,0c4.514,0,4.514-7,0-7c-2.649,0-5.298,0-7.947,0
				C165.378,230.367,165.378,237.367,169.892,237.367L169.892,237.367z"/>
		</g>
	</g>
	<g>
		<rect x="146.141" y="235.303" style="fill:#FFFFFF;" width="15.012" height="18.138"/>
		<g>
			<path style="fill:#FFFFFF;" d="M161.152,231.803c-5.004,0-10.008,0-15.012,0c-1.908,0-3.5,1.592-3.5,3.5
				c0,6.046,0,12.092,0,18.138c0,1.908,1.592,3.5,3.5,3.5c5.004,0,10.008,0,15.012,0c1.908,0,3.5-1.592,3.5-3.5
				c0-6.046,0-12.092,0-18.138c0-4.514-7-4.514-7,0c0,6.046,0,12.092,0,18.138c1.167-1.167,2.333-2.333,3.5-3.5
				c-5.004,0-10.008,0-15.012,0c1.167,1.167,2.333,2.333,3.5,3.5c0-6.046,0-12.092,0-18.138c-1.167,1.167-2.333,2.333-3.5,3.5
				c5.004,0,10.008,0,15.012,0C165.667,238.803,165.667,231.803,161.152,231.803z"/>
		</g>
	</g>
</g>
<g id="Ebene_1">
</g>
</svg>
