<?xml version="1.0" encoding="iso-8859-1"?>
<!-- Generator: Adobe Illustrator 16.0.0, SVG Export Plug-In . SVG Version: 6.00 Build 0)  -->
<!DOCTYPE svg PUBLIC "-//W3C//DTD SVG 1.1//EN" "http://www.w3.org/Graphics/SVG/1.1/DTD/svg11.dtd">
<svg version="1.1" xmlns="http://www.w3.org/2000/svg" xmlns:xlink="http://www.w3.org/1999/xlink" x="0px" y="0px" width="361px"
	 height="361px" viewBox="0 0 361 361" style="enable-background:new 0 0 361 361;" xml:space="preserve">
<g id="status_x5F_standby">
	<g>
		<g>
			<g>
				<polygon style="fill:#FFFFFF;" points="180.744,155.583 180.5,74.583 287.301,155.583 				"/>
				<g>
					<path style="fill:#FFFFFF;" d="M185.744,155.583c-0.081-27-0.163-54-0.244-81c-2.508,1.439-5.016,2.878-7.523,4.317
						c35.59,26.992,71.18,53.984,106.77,80.976c0.011,0.008,0.021,0.016,0.031,0.024c0.841-3.106,1.683-6.211,2.523-9.317
						c-35.519,0-71.038,0-106.557,0c-6.449,0-6.449,10,0,10c35.519,0,71.038,0,106.557,0c5.402,0,6.252-6.489,2.523-9.317
						c-35.59-26.992-71.18-53.984-106.77-80.976c-0.011-0.008-0.021-0.016-0.031-0.024c-3.125-2.371-7.534,0.868-7.523,4.317
						c0.082,27,0.163,54,0.244,81C175.764,162.031,185.764,162.033,185.744,155.583z"/>
				</g>
			</g>
			<g>
				<polygon style="fill:#FFFFFF;" points="180.256,155.583 180.5,74.584 73.699,155.583 				"/>
				<g>
					<path style="fill:#FFFFFF;" d="M185.256,155.583c0.081-27,0.163-54,0.244-81c0.011-3.45-4.397-6.688-7.523-4.317
						c-35.59,26.992-71.18,53.984-106.77,80.976c-0.011,0.008-0.021,0.016-0.031,0.023c-3.729,2.828-2.879,9.317,2.523,9.317
						c35.519,0,71.038,0,106.557,0c6.448,0,6.448-10,0-10c-35.519,0-71.038,0-106.557,0c0.841,3.106,1.683,6.211,2.523,9.317
						c35.59-26.992,71.18-53.984,106.77-80.976c0.011-0.008,0.021-0.016,0.031-0.023c-2.508-1.439-5.016-2.878-7.523-4.317
						c-0.082,27-0.163,54-0.244,81C175.236,162.033,185.236,162.031,185.256,155.583z"/>
				</g>
			</g>
		</g>
		<path style="fill:none;stroke:#FFFFFF;stroke-width:10;stroke-miterlimit:10;" d="M268.5,278.988c0,3.919-3.927,7.096-8.771,7.096
			H101.938c-4.844,0-8.771-3.177-8.771-7.096V149.607c0-3.918,175.333-3.918,175.333,0V278.988z"/>
	</g>
	<g>
		<g>
			<path style="fill:#FFFFFF;" d="M192.175,191.473c6.965,0,16.049-1.81,20.267,5.134c2.335,3.845,1.105,11.205,1.105,15.416
				c0,7.976,0,15.95,0,23.926c0,4.712,0.724,10.15-0.465,14.771c-1.927,7.494-10.185,6.65-16.074,6.65c-7.771,0-15.542,0-23.313,0
				c-5.391,0-10.782,0-16.172,0c-8.018,0-9.871-6.822-9.871-13.264c0-12.501,0-25.002,0-37.502c0-5.509-0.369-10.682,5.133-14.025
				c4.16-2.527,11.862-1.105,16.501-1.105c4.514,0,4.514-7,0-7c-5.911,0-13.397-1.136-18.887,1.509
				c-6.982,3.364-9.747,9.838-9.747,17.229c0,13.814,0,27.629,0,41.444c0,6.951,1.665,12.619,7.518,16.996
				c4.524,3.383,10.708,2.719,16.021,2.719c13.162,0,26.323,0,39.484,0c10.436,0,16.871-8.496,16.871-18.31
				c0-9.515,0-19.028,0-28.543c0-6.896,1.61-16.819-1.509-23.296c-5.296-10.995-16.601-9.748-26.863-9.748
				C187.661,184.473,187.661,191.473,192.175,191.473L192.175,191.473z"/>
		</g>
	</g>
	<g>
		<g>
			<path style="fill:#FFFFFF;" d="M177.303,181.254c0,16.425,0,32.851,0,49.275c0,4.514,7,4.514,7,0c0-16.425,0-32.851,0-49.275
				C184.303,176.74,177.303,176.74,177.303,181.254L177.303,181.254z"/>
		</g>
	</g>
</g>
<g id="Ebene_1">
</g>
</svg>
