<?xml version="1.0" encoding="iso-8859-1"?>
<!-- Generator: Adobe Illustrator 16.0.0, SVG Export Plug-In . SVG Version: 6.00 Build 0)  -->
<!DOCTYPE svg PUBLIC "-//W3C//DTD SVG 1.1//EN" "http://www.w3.org/Graphics/SVG/1.1/DTD/svg11.dtd">
<svg version="1.1" xmlns="http://www.w3.org/2000/svg" xmlns:xlink="http://www.w3.org/1999/xlink" x="0px" y="0px" width="361px"
	 height="361px" viewBox="0 0 361 361" style="enable-background:new 0 0 361 361;" xml:space="preserve">
<g id="status_x5F_automatic">
	<g>
		<g>
			<g>
				<polygon style="fill:#FFFFFF;" points="180.744,155.583 180.5,74.583 287.301,155.583 				"/>
				<g>
					<path style="fill:#FFFFFF;" d="M185.744,155.583c-0.081-27-0.163-54-0.244-81c-2.508,1.439-5.016,2.878-7.523,4.317
						c35.59,26.992,71.18,53.984,106.77,80.976c0.011,0.008,0.021,0.016,0.031,0.024c0.841-3.106,1.683-6.211,2.523-9.317
						c-35.519,0-71.038,0-106.557,0c-6.449,0-6.449,10,0,10c35.519,0,71.038,0,106.557,0c5.402,0,6.252-6.489,2.523-9.317
						c-35.59-26.992-71.18-53.984-106.77-80.976c-0.011-0.008-0.021-0.016-0.031-0.024c-3.125-2.371-7.534,0.868-7.523,4.317
						c0.082,27,0.163,54,0.244,81C175.764,162.031,185.764,162.033,185.744,155.583z"/>
				</g>
			</g>
			<g>
				<polygon style="fill:#FFFFFF;" points="180.256,155.583 180.5,74.584 73.699,155.583 				"/>
				<g>
					<path style="fill:#FFFFFF;" d="M185.256,155.583c0.081-27,0.163-54,0.244-81c0.011-3.45-4.397-6.688-7.523-4.317
						c-35.59,26.992-71.18,53.984-106.77,80.976c-0.011,0.008-0.021,0.016-0.031,0.023c-3.729,2.828-2.879,9.317,2.523,9.317
						c35.519,0,71.038,0,106.557,0c6.448,0,6.448-10,0-10c-35.519,0-71.038,0-106.557,0c0.841,3.106,1.683,6.211,2.523,9.317
						c35.59-26.992,71.18-53.984,106.77-80.976c0.011-0.008,0.021-0.016,0.031-0.023c-2.508-1.439-5.016-2.878-7.523-4.317
						c-0.082,27-0.163,54-0.244,81C175.236,162.033,185.236,162.031,185.256,155.583z"/>
				</g>
			</g>
		</g>
		<path style="fill:none;stroke:#FFFFFF;stroke-width:10;stroke-miterlimit:10;" d="M268.5,278.988c0,3.919-3.927,7.096-8.771,7.096
			H101.938c-4.844,0-8.771-3.177-8.771-7.096V149.607c0-3.918,175.333-3.918,175.333,0V278.988z"/>
	</g>
	<g>
		<g>
			<path style="fill:#FFFFFF;" d="M145.018,230.775c0.213-0.662,1.432-0.511,0.219-0.511c-0.886,0-1.772,0-2.658,0
				c-2.224,0-4.448,0-6.671,0c-1.612,0-3.224,0-4.835,0c-0.898,0,0.728,2.24,0.728,1.001c0-0.594,0-1.188,0-1.781
				c0-7.535,0-15.069,0-22.604c0,1.549-1.775,1.391-0.344,1.391c0.886,0,1.772,0,2.658,0c2.532,0,5.063,0,7.595,0
				c1.384,0,2.769,0,4.153,0c-1.09,0-0.969-2.343-0.969-0.673c0,0.691,0,1.384,0,2.075c0,7.345,0,14.688,0,22.033
				c0,4.514,7,4.514,7,0c0-4.146,0-8.292,0-12.438c0-3.919,1.098-9.568-0.125-13.369c-1.864-5.794-8.055-4.628-12.926-4.628
				c-5.035,0-11.977-1.403-13.917,4.628c-1.136,3.531-0.125,8.752-0.125,12.388c0,4.474,0,8.946,0,13.42
				c0,6.759,8.678,5.559,13.051,5.559c5.035,0,11.977,1.403,13.917-4.628C153.155,228.327,146.395,226.496,145.018,230.775z"/>
		</g>
	</g>
	<g>
		<g>
			<path style="fill:#FFFFFF;" d="M172.783,230.032c-0.042,0.242,1.561,0.232-0.292,0.232c-1.313,0-2.627,0-3.941,0
				c-2.731,0-5.463,0-8.195,0c-0.586,0-1.172,0-1.759,0c1.172,0,0.969,1.232,0.969-0.215c0-1.78,0-3.561,0-5.341
				c0-9.19,0-18.381,0-27.571c0,0.84-1.772,0.66,0.167,0.66c1.313,0,2.627,0,3.941,0c2.731,0,5.463,0,8.195,0
				c0.586,0,1.172,0,1.759,0c-1.173,0-0.969-1.232-0.969,0.215c0,1.78,0,3.561,0,5.341c0,9.203,0,18.406,0,27.609
				c0,4.514,7,4.514,7,0c0-10.983,0-21.967,0-32.95c0-6.587-4.939-7.215-10.184-7.215c-5.453,0-15.468-2.089-16.784,5.371
				c-0.808,4.581-0.125,9.771-0.125,14.398c0,6.494,0,12.988,0,19.482c0,6.588,4.939,7.215,10.185,7.215
				c5.453,0,15.467,2.089,16.783-5.371C180.311,227.48,173.566,225.593,172.783,230.032z"/>
		</g>
	</g>
	<g>
		<g>
			<path style="fill:#FFFFFF;" d="M200.58,230.005c0.76,0.171,0.905,0.244,0.438,0.22c-0.494,0-0.989,0-1.483,0
				c-1.714,0-3.428,0-5.142,0c-2.609,0-5.219,0-7.828,0c0.942,0,0.798,1.241,0.798,0.016c0-0.82,0-1.642,0-2.462
				c0-2.648,0-5.297,0-7.945c0-11.316,0-22.633,0-33.948c0,0.968-1.244,0.684,0.921,0.684c1.714,0,3.428,0,5.142,0
				c2.609,0,5.219,0,7.828,0c-0.942,0-0.798-1.244-0.798-0.018c0,0.82,0,1.642,0,2.462c0,2.942,0,5.884,0,8.826
				c0,11.032,0,22.064,0,33.097c0,4.514,7,4.514,7,0c0-12.426,0-24.851,0-37.276c0-4.817,1.08-10.228-3.334-13.394
				c-1.836-1.316-5.763-0.697-7.829-0.697c-3.242,0-6.485,0-9.728,0c-6.507,0-6.202,6.676-6.202,11.232c0,7.511,0,15.021,0,22.531
				c0,5.718,0,11.436,0,17.154c0,7.647,7.736,6.738,13.063,6.738c5.1,0,12.628,1.372,13.905-5.358
				C208.167,227.455,201.421,225.573,200.58,230.005z"/>
		</g>
	</g>
	<g>
		<g>
			<path style="fill:#FFFFFF;" d="M228.309,230.057c-0.023,0.12,1.377,0.127,0.112,0.127c-0.608,0-1.218,0-1.826,0
				c-1.815,0-3.631,0-5.445,0c-1.727,0-3.453,0-5.181,0c-0.498,0-0.996,0-1.494,0c-0.824,0,0.615,1.275,0.615,0.607
				c0-4.552,0-9.103,0-13.654c0-14.23,0-28.461,0-42.691c0-0.648,0-1.296,0-1.944c0-1.137-0.938,0.266-0.615,0.266
				c3.491,0,6.981,0,10.472,0c1.284,0,2.568,0,3.853,0c0.323,0-0.615-1.403-0.615-0.266c0,1.909,0,3.819,0,5.728
				c0,14.816,0,29.634,0,44.45c0,2.77,0,5.538,0,8.308c0,4.514,7,4.514,7,0c0-11.651,0-23.304,0-34.955c0-6.716,0-13.432,0-20.147
				c0-4.339-0.167-10.118-6.147-10.118c-2.952,0-5.903,0-8.854,0c-2.264,0-6.756-0.753-8.792,0.689
				c-4.103,2.907-3.3,7.341-3.3,11.773c0,14.816,0,29.634,0,44.45c0,4.881-1.472,14.504,6.065,14.504
				c5.854,0,19.358,2.776,20.903-5.266C235.905,227.508,229.159,225.627,228.309,230.057z"/>
		</g>
	</g>
	<g>
		<path style="fill:#FFFFFF;" d="M145.878,274.41l-1.593-6.863h-9.062l-1.538,6.863h-7.029c1.611-5.855,3.24-11.191,4.888-16.008
			c1.647-4.815,3.24-9.384,4.778-13.703h7.359c1.61,4.352,3.212,8.968,4.805,13.848c1.593,4.881,3.139,10.168,4.641,15.863H145.878z
			 M139.837,250.459c-0.366,1.12-0.706,2.184-1.016,3.191c-0.312,1.008-0.604,2-0.878,2.977c-0.275,0.977-0.531,1.961-0.769,2.951
			c-0.238,0.992-0.467,2.016-0.687,3.072h6.645c-0.22-1.057-0.439-2.08-0.659-3.072c-0.219-0.99-0.467-1.975-0.741-2.951
			s-0.568-1.969-0.878-2.977C140.542,252.643,140.203,251.579,139.837,250.459z"/>
		<path style="fill:#FFFFFF;" d="M167.24,275.035c-2.196,0-4.036-0.264-5.519-0.793c-1.482-0.527-2.664-1.287-3.542-2.279
			c-0.879-0.992-1.501-2.191-1.867-3.6c-0.366-1.408-0.549-2.977-0.549-4.705v-18.959h6.81v18.576c0,1.248,0.073,2.295,0.219,3.143
			c0.146,0.85,0.393,1.529,0.742,2.041c0.347,0.512,0.832,0.881,1.455,1.104c0.622,0.225,1.409,0.336,2.361,0.336
			c0.952,0,1.739-0.111,2.362-0.336c0.622-0.223,1.116-0.6,1.482-1.127c0.366-0.529,0.622-1.217,0.769-2.064
			c0.146-0.848,0.22-1.896,0.22-3.145v-18.527h6.754v18.959c0,1.729-0.184,3.297-0.549,4.705c-0.367,1.408-1.007,2.607-1.922,3.6
			c-0.916,0.992-2.124,1.752-3.625,2.279C171.34,274.771,169.473,275.035,167.24,275.035z"/>
		<path style="fill:#FFFFFF;" d="M207.165,244.699v4.896h-8.951v24.815h-6.81v-24.815h-8.951v-4.896H207.165z"/>
		<path style="fill:#FFFFFF;" d="M210.021,259.531c0-5.12,1.078-8.984,3.239-11.593c2.16-2.607,5.163-3.911,9.007-3.911
			c3.99,0,7.029,1.304,9.115,3.911c2.088,2.608,3.131,6.473,3.131,11.593c0,5.119-1.063,8.984-3.186,11.592
			s-5.125,3.912-9.006,3.912c-3.991,0-7.039-1.305-9.144-3.912C211.072,268.516,210.021,264.65,210.021,259.531z M216.885,259.531
			c0,1.439,0.064,2.791,0.193,4.055c0.127,1.266,0.384,2.361,0.769,3.289c0.384,0.928,0.924,1.664,1.62,2.207
			c0.695,0.545,1.629,0.816,2.801,0.816c1.135,0,2.059-0.271,2.773-0.816c0.713-0.543,1.263-1.287,1.646-2.23
			c0.385-0.945,0.641-2.041,0.77-3.289c0.128-1.248,0.191-2.592,0.191-4.031c0-1.44-0.063-2.792-0.191-4.057
			c-0.129-1.264-0.385-2.359-0.77-3.288c-0.384-0.928-0.924-1.663-1.619-2.208c-0.696-0.543-1.63-0.816-2.801-0.816
			c-1.172,0-2.105,0.273-2.801,0.816c-0.696,0.545-1.236,1.289-1.62,2.232c-0.385,0.943-0.642,2.039-0.769,3.287
			C216.949,256.746,216.885,258.091,216.885,259.531z"/>
	</g>
</g>
<g id="Ebene_1">
</g>
</svg>
