<?xml version="1.0" encoding="iso-8859-1"?>
<!-- Generator: Adobe Illustrator 16.0.0, SVG Export Plug-In . SVG Version: 6.00 Build 0)  -->
<!DOCTYPE svg PUBLIC "-//W3C//DTD SVG 1.1//EN" "http://www.w3.org/Graphics/SVG/1.1/DTD/svg11.dtd">
<svg version="1.1" xmlns="http://www.w3.org/2000/svg" xmlns:xlink="http://www.w3.org/1999/xlink" x="0px" y="0px" width="361px"
	 height="361px" viewBox="0 0 361 361" style="enable-background:new 0 0 361 361;" xml:space="preserve">
<g id="status_x5F_away_x5F_2">
	<g id="Person_x5F_orig_4_" style="display:none;">
		<circle style="display:inline;fill:#FFFFFF;stroke:#FFFFFF;" cx="313.985" cy="133.958" r="21.125"/>
		<g style="display:inline;">
			<g>
				<path style="fill:#FFFFFF;" d="M291.581,253.836c0,29.011,0,58.021,0,87.033c0,11.623,18.004,11.726,18.004,0.129
					c0-29.011,0-58.021,0-87.033C309.585,242.342,291.581,242.239,291.581,253.836L291.581,253.836z"/>
			</g>
		</g>
		<g style="display:inline;">
			<g>
				<path style="fill:#FFFFFF;" d="M318.581,253.836c0,29.011,0,58.021,0,87.033c0,11.623,18.004,11.726,18.004,0.129
					c0-29.011,0-58.021,0-87.033C336.585,242.342,318.581,242.239,318.581,253.836L318.581,253.836z"/>
			</g>
		</g>
		<path style="display:inline;fill:#FFFFFF;" d="M336.67,255.49c0,5.783-4.688,10.471-10.471,10.471h-24.429
			c-5.782,0-10.47-4.688-10.47-10.471v-84.06c0-5.783,4.688-10.47,10.47-10.47h24.429c5.783,0,10.471,4.687,10.471,10.47V255.49z"/>
		<g style="display:inline;">
			<g>
				<g>
					<path style="fill:#FFFFFF;" d="M339.087,172.461c0,12.291,0,24.582,0,36.873c0,8.383,13,8.383,13,0c0-12.291,0-24.582,0-36.873
						C352.087,164.078,339.087,164.078,339.087,172.461L339.087,172.461z"/>
				</g>
			</g>
			<g>
				<g>
					<path style="fill:#FFFFFF;" d="M339.087,209.334c0,12.291,0,24.582,0,36.873c0,8.383,13,8.383,13,0c0-12.291,0-24.582,0-36.873
						C352.087,200.951,339.087,200.951,339.087,209.334L339.087,209.334z"/>
				</g>
			</g>
			<g>
				<g>
					<path style="fill:#FFFFFF;" d="M275.884,172.46c0,12.291,0,24.582,0,36.873c0,8.383,13,8.383,13,0c0-12.291,0-24.582,0-36.873
						C288.884,164.077,275.884,164.077,275.884,172.46L275.884,172.46z"/>
				</g>
			</g>
			<g>
				<g>
					<path style="fill:#FFFFFF;" d="M275.884,209.333c0,12.291,0,24.583,0,36.874c0,8.383,13,8.383,13,0c0-12.291,0-24.583,0-36.874
						C288.884,200.95,275.884,200.95,275.884,209.333L275.884,209.333z"/>
				</g>
			</g>
		</g>
	</g>
	<g id="Person_3_" style="display:none;">
		<g style="display:inline;">
			<circle style="fill:#FFFFFF;" cx="220.982" cy="194.576" r="9.529"/>
			<path style="fill:#FFFFFF;" d="M220.982,204.33c-5.379,0-9.755-4.376-9.755-9.754c0-5.379,4.376-9.756,9.755-9.756
				s9.754,4.377,9.754,9.756C230.736,199.954,226.361,204.33,220.982,204.33z M220.982,185.271c-5.131,0-9.304,4.174-9.304,9.305
				c0,5.129,4.173,9.303,9.304,9.303c5.13,0,9.303-4.174,9.303-9.303C230.285,189.445,226.112,185.271,220.982,185.271z"/>
		</g>
		<path style="display:inline;fill:#FFFFFF;" d="M210.875,248.65c0,13.086,0,26.173,0,39.26c0,5.243,8.122,5.289,8.122,0.058
			c0-13.087,0-26.173,0-39.259C218.997,243.465,210.875,243.42,210.875,248.65L210.875,248.65z"/>
		<path style="display:inline;fill:#FFFFFF;" d="M223.055,248.65c0,13.086,0,26.173,0,39.26c0,5.243,8.122,5.289,8.122,0.058
			c0-13.087,0-26.173,0-39.259C231.177,243.465,223.055,243.42,223.055,248.65L223.055,248.65z"/>
		<path style="display:inline;fill:#FFFFFF;" d="M231.215,249.396c0,2.609-2.115,4.723-4.723,4.723h-11.021
			c-2.608,0-4.723-2.113-4.723-4.723v-37.918c0-2.608,2.114-4.723,4.723-4.723h11.021c2.607,0,4.723,2.114,4.723,4.723V249.396z"/>
		<g style="display:inline;">
			<path style="fill:#FFFFFF;" d="M232.305,211.943c0,5.545,0,11.088,0,16.633c0,3.781,5.864,3.781,5.864,0
				c0-5.545,0-11.088,0-16.633C238.169,208.162,232.305,208.162,232.305,211.943L232.305,211.943z"/>
			<path style="fill:#FFFFFF;" d="M232.305,228.576c0,5.545,0,11.089,0,16.633c0,3.781,5.864,3.781,5.864,0
				c0-5.544,0-11.088,0-16.633C238.169,224.795,232.305,224.795,232.305,228.576L232.305,228.576z"/>
			<path style="fill:#FFFFFF;" d="M203.795,211.943c0,5.545,0,11.088,0,16.633c0,3.781,5.864,3.781,5.864,0
				c0-5.545,0-11.088,0-16.633C209.659,208.162,203.795,208.162,203.795,211.943L203.795,211.943z"/>
			<path style="fill:#FFFFFF;" d="M203.795,228.576c0,5.545,0,11.089,0,16.633c0,3.781,5.864,3.781,5.864,0
				c0-5.544,0-11.088,0-16.633C209.659,224.794,203.795,224.794,203.795,228.576L203.795,228.576z"/>
		</g>
	</g>
	<g id="Haus_29_">
		<g>
			<polygon style="fill:#FFFFFF;" points="75.677,156.583 75.433,75.583 182.234,156.583 			"/>
			<g>
				<path style="fill:#FFFFFF;" d="M80.677,156.583c-0.082-27-0.163-54-0.245-81c-2.508,1.439-5.016,2.878-7.523,4.317
					c35.59,26.992,71.18,53.984,106.771,80.976c0.01,0.008,0.021,0.016,0.031,0.024c0.841-3.106,1.683-6.211,2.523-9.317
					c-35.519,0-71.038,0-106.557,0c-6.449,0-6.449,10,0,10c35.519,0,71.038,0,106.557,0c5.402,0,6.252-6.489,2.523-9.317
					c-35.59-26.992-71.18-53.984-106.771-80.976c-0.01-0.008-0.021-0.016-0.031-0.024c-3.125-2.371-7.534,0.868-7.523,4.317
					c0.082,27,0.163,54,0.245,81C70.697,163.031,80.697,163.033,80.677,156.583z"/>
			</g>
		</g>
		<path style="fill:none;stroke:#FFFFFF;stroke-width:10;stroke-miterlimit:10;" d="M163.433,281.916
			c0,3.223-4.727,5.834-10.558,5.834H85.991c-5.832,0-10.558-2.611-10.558-5.834V159.417c0-3.222,4.727-5.833,10.558-5.833h66.884
			c5.832,0,10.558,2.612,10.558,5.833V281.916z"/>
		<path style="fill:none;stroke:#FFFFFF;stroke-width:10;stroke-miterlimit:10;" d="M128.433,281.404c0,3.137-2.687,5.68-6,5.68
			h-23.5c-3.313,0-6-2.543-6-5.68v-68.143c0-3.136,2.687-5.678,6-5.678h23.5c3.313,0,6,2.542,6,5.678V281.404z"/>
	</g>
	<g id="Person_4_">
		<g>
			<circle style="fill:#FFFFFF;" cx="233.833" cy="193.955" r="9.529"/>
			<path style="fill:#FFFFFF;" d="M233.834,203.71c-5.379,0-9.756-4.376-9.756-9.755s4.377-9.755,9.756-9.755
				c5.378,0,9.754,4.376,9.754,9.755S239.212,203.71,233.834,203.71z M233.834,184.651c-5.131,0-9.305,4.174-9.305,9.304
				c0,5.129,4.174,9.304,9.305,9.304c5.129,0,9.303-4.175,9.303-9.304C243.137,188.825,238.963,184.651,233.834,184.651z"/>
		</g>
		<path style="fill:#FFFFFF;" d="M223.727,248.03c0,13.085,0,26.173,0,39.259c0,5.244,8.121,5.289,8.121,0.059
			c0-13.088,0-26.173,0-39.26C231.848,242.845,223.727,242.799,223.727,248.03L223.727,248.03z"/>
		<path style="fill:#FFFFFF;" d="M235.906,248.03c0,13.085,0,26.173,0,39.259c0,5.244,8.121,5.289,8.121,0.059
			c0-13.088,0-26.173,0-39.26C244.027,242.845,235.906,242.799,235.906,248.03L235.906,248.03z"/>
		<path style="fill:#FFFFFF;" d="M244.066,248.776c0,2.608-2.115,4.723-4.724,4.723h-11.021c-2.607,0-4.723-2.114-4.723-4.723
			v-37.919c0-2.607,2.115-4.723,4.723-4.723h11.021c2.608,0,4.724,2.115,4.724,4.723V248.776z"/>
		<g>
			<path style="fill:#FFFFFF;" d="M245.156,211.323c0,5.544,0,11.088,0,16.632c0,3.782,5.863,3.782,5.863,0
				c0-5.544,0-11.088,0-16.632C251.02,207.541,245.156,207.541,245.156,211.323L245.156,211.323z"/>
			<path style="fill:#FFFFFF;" d="M245.156,227.955c0,5.545,0,11.09,0,16.633c0,3.781,5.863,3.781,5.863,0
				c0-5.543,0-11.088,0-16.633C251.02,224.174,245.156,224.174,245.156,227.955L245.156,227.955z"/>
			<path style="fill:#FFFFFF;" d="M216.646,211.322c0,5.545,0,11.088,0,16.633c0,3.781,5.863,3.781,5.863,0
				c0-5.545,0-11.088,0-16.633C222.51,207.541,216.646,207.541,216.646,211.322L216.646,211.322z"/>
			<path style="fill:#FFFFFF;" d="M216.646,227.955c0,5.545,0,11.09,0,16.633c0,3.781,5.863,3.781,5.863,0
				c0-5.543,0-11.088,0-16.633C222.51,224.174,216.646,224.174,216.646,227.955L216.646,227.955z"/>
		</g>
	</g>
</g>
<g id="Ebene_1">
</g>
</svg>
