<?xml version="1.0" encoding="iso-8859-1"?>
<!-- Generator: Adobe Illustrator 16.0.0, SVG Export Plug-In . SVG Version: 6.00 Build 0)  -->
<!DOCTYPE svg PUBLIC "-//W3C//DTD SVG 1.1//EN" "http://www.w3.org/Graphics/SVG/1.1/DTD/svg11.dtd">
<svg version="1.1" xmlns="http://www.w3.org/2000/svg" xmlns:xlink="http://www.w3.org/1999/xlink" x="0px" y="0px" width="361px"
	 height="361px" viewBox="0 0 361 361" style="enable-background:new 0 0 361 361;" xml:space="preserve">
<g id="status_x5F_not_x5F_available">
	<g>
		<g>
			<g>
				<polygon style="fill:#FFFFFF;" points="180.744,155.583 180.5,74.583 287.301,155.583 				"/>
				<g>
					<path style="fill:#FFFFFF;" d="M185.744,155.583c-0.081-27-0.163-54-0.244-81c-2.508,1.439-5.016,2.878-7.523,4.317
						c35.59,26.992,71.18,53.984,106.77,80.976c0.011,0.008,0.021,0.016,0.031,0.024c0.841-3.106,1.683-6.211,2.523-9.317
						c-35.519,0-71.038,0-106.557,0c-6.449,0-6.449,10,0,10c35.519,0,71.038,0,106.557,0c5.402,0,6.252-6.489,2.523-9.317
						c-35.59-26.992-71.18-53.984-106.77-80.976c-0.011-0.008-0.021-0.016-0.031-0.024c-3.125-2.371-7.534,0.868-7.523,4.317
						c0.082,27,0.163,54,0.244,81C175.764,162.031,185.764,162.033,185.744,155.583z"/>
				</g>
			</g>
			<g>
				<polygon style="fill:#FFFFFF;" points="180.256,155.583 180.5,74.584 73.699,155.583 				"/>
				<g>
					<path style="fill:#FFFFFF;" d="M185.256,155.583c0.081-27,0.163-54,0.244-81c0.011-3.45-4.397-6.688-7.523-4.317
						c-35.59,26.992-71.18,53.984-106.77,80.976c-0.011,0.008-0.021,0.016-0.031,0.023c-3.729,2.828-2.879,9.317,2.523,9.317
						c35.519,0,71.038,0,106.557,0c6.448,0,6.448-10,0-10c-35.519,0-71.038,0-106.557,0c0.841,3.106,1.683,6.211,2.523,9.317
						c35.59-26.992,71.18-53.984,106.77-80.976c0.011-0.008,0.021-0.016,0.031-0.023c-2.508-1.439-5.016-2.878-7.523-4.317
						c-0.082,27-0.163,54-0.244,81C175.236,162.033,185.236,162.031,185.256,155.583z"/>
				</g>
			</g>
		</g>
		<path style="fill:none;stroke:#FFFFFF;stroke-width:10;stroke-miterlimit:10;" d="M268.5,278.988c0,3.919-3.927,7.096-8.771,7.096
			H101.938c-4.844,0-8.771-3.177-8.771-7.096V149.607c0-3.918,175.333-3.918,175.333,0V278.988z"/>
	</g>
	<g>
		<g>
			<path style="fill:#FFFFFF;" d="M148.839,207.426c-0.564,6.99-12.401,4.803-17.112,4.803c-5.736,0-11.472,0-17.208,0
				c-6.958,0-4.802-12.865-4.802-17.111c0-5.736,0-11.473,0-17.208c0-6.958,12.864-4.802,17.111-4.802c5.736,0,11.472,0,17.208,0
				c6.959,0,4.803,12.863,4.803,17.111C148.839,195.954,148.839,201.689,148.839,207.426c0,4.514,7,4.514,7,0
				c0-5.736,0-11.472,0-17.208c0-5.827,0.91-12.416-1.405-17.891c-2.917-6.901-11.121-6.22-17.191-6.22c-7.096,0-14.193,0-21.29,0
				c-7.185,0-13.236,4.531-13.236,12.178c0,6.562,0,13.125,0,19.686c0,6.317-0.955,12.657,3.457,17.801
				c4.075,4.752,12.267,3.457,17.8,3.457c10.888,0,30.602,3.853,31.865-11.803C156.203,202.924,149.2,202.958,148.839,207.426z"/>
		</g>
	</g>
	<g>
		<g>
			<path style="fill:#FFFFFF;" d="M116.198,197.668c8.72,0,17.44,0,26.161,0c6.449,0,6.449-10,0-10c-8.72,0-17.44,0-26.161,0
				C109.75,187.668,109.75,197.668,116.198,197.668L116.198,197.668z"/>
		</g>
	</g>
	<g>
		<g>
			<path style="fill:#FFFFFF;" d="M180.982,170.046c3.601,0,6.529,2.929,6.529,6.529c0,3.601-2.929,6.53-6.529,6.53
				s-6.53-2.929-6.53-6.53C174.453,172.976,177.382,170.046,180.982,170.046 M180.982,167.046c-5.263,0-9.53,4.266-9.53,9.529
				s4.267,9.53,9.53,9.53c5.263,0,9.529-4.267,9.529-9.53S186.245,167.046,180.982,167.046L180.982,167.046z"/>
		</g>
		<g>
			<path style="fill:#FFFFFF;" d="M180.982,166.821c-5.379,0-9.755,4.376-9.755,9.755s4.376,9.754,9.755,9.754
				s9.754-4.376,9.754-9.754S186.361,166.821,180.982,166.821L180.982,166.821z M180.982,185.879c-5.13,0-9.304-4.174-9.304-9.303
				c0-5.13,4.173-9.304,9.304-9.304c5.13,0,9.303,4.174,9.303,9.304C190.285,181.705,186.112,185.879,180.982,185.879
				L180.982,185.879z"/>
		</g>
	</g>
	<g>
		<path style="fill:#FFFFFF;" d="M186.492,191.756c0.95,0,1.723,0.772,1.723,1.723v37.797c-0.011,0.082-0.021,0.164-0.027,0.247
			c-0.007,0.084-0.011,0.169-0.011,0.253v38.192c0,0.27,0,0.899-1.031,0.899c-1.091,0-1.091-0.721-1.091-0.957v-33.791
			c0-1.657-1.343-3-3-3h-4.058c-1.657,0-3,1.343-3,3v33.849c0,0.27,0,0.899-1.031,0.899c-1.091,0-1.091-0.721-1.091-0.957v-37.463
			c0-0.225-0.025-0.447-0.075-0.666c-0.035-0.152-0.052-0.278-0.052-0.385v-37.918c0-0.95,0.773-1.723,1.723-1.723H186.492
			 M186.492,188.756h-11.021c-2.608,0-4.723,2.114-4.723,4.723v37.918c0,0.363,0.049,0.712,0.126,1.051c0,12.486,0,24.975,0,37.463
			c0,2.635,2.051,3.957,4.091,3.957c2.021,0,4.031-1.297,4.031-3.899c0-11.283,0-22.565,0-33.849h4.058c0,11.264,0,22.527,0,33.791
			c0,2.635,2.051,3.957,4.091,3.957c2.021,0,4.031-1.297,4.031-3.899c0-12.731,0-25.462,0-38.192
			c0.011-0.127,0.038-0.249,0.038-0.379v-37.918C191.215,190.87,189.1,188.756,186.492,188.756L186.492,188.756z"/>
	</g>
	<g>
		<g>
			<path style="fill:#FFFFFF;" d="M195.236,191.107c-1.466,0-2.932,0.945-2.932,2.836c0,5.545,0,11.088,0,16.633s0,11.089,0,16.633
				c0,1.891,1.466,2.836,2.932,2.836c1.467,0,2.933-0.945,2.933-2.836c0-5.544,0-11.088,0-16.633s0-11.088,0-16.633
				C198.169,192.053,196.703,191.107,195.236,191.107L195.236,191.107z"/>
		</g>
		<g>
			<path style="fill:#FFFFFF;" d="M166.727,191.107c-1.466,0-2.932,0.945-2.932,2.836c0,5.545,0,11.088,0,16.633s0,11.089,0,16.633
				c0,1.891,1.466,2.836,2.932,2.836s2.932-0.945,2.932-2.836c0-5.544,0-11.088,0-16.633s0-11.088,0-16.633
				C169.659,192.053,168.193,191.107,166.727,191.107L166.727,191.107z"/>
		</g>
	</g>
</g>
<g id="Ebene_1">
</g>
</svg>
