<?xml version="1.0" encoding="iso-8859-1"?>
<!-- Generator: Adobe Illustrator 16.0.0, SVG Export Plug-In . SVG Version: 6.00 Build 0)  -->
<!DOCTYPE svg PUBLIC "-//W3C//DTD SVG 1.1//EN" "http://www.w3.org/Graphics/SVG/1.1/DTD/svg11.dtd">
<svg version="1.1" xmlns="http://www.w3.org/2000/svg" xmlns:xlink="http://www.w3.org/1999/xlink" x="0px" y="0px" width="361px"
	 height="361px" viewBox="0 0 361 361" style="enable-background:new 0 0 361 361;" xml:space="preserve">
<g id="status_x5F_comfort">
	<g>
		<g>
			<g>
				<polygon style="fill:#FFFFFF;" points="180.744,155.583 180.5,74.583 287.301,155.583 				"/>
				<g>
					<path style="fill:#FFFFFF;" d="M185.744,155.583c-0.081-27-0.163-54-0.244-81c-2.508,1.439-5.016,2.878-7.523,4.317
						c35.59,26.992,71.18,53.984,106.77,80.976c0.011,0.008,0.021,0.016,0.031,0.024c0.841-3.106,1.683-6.211,2.523-9.317
						c-35.519,0-71.038,0-106.557,0c-6.449,0-6.449,10,0,10c35.519,0,71.038,0,106.557,0c5.402,0,6.252-6.489,2.523-9.317
						c-35.59-26.992-71.18-53.984-106.77-80.976c-0.011-0.008-0.021-0.016-0.031-0.024c-3.125-2.371-7.534,0.868-7.523,4.317
						c0.082,27,0.163,54,0.244,81C175.764,162.031,185.764,162.033,185.744,155.583z"/>
				</g>
			</g>
			<g>
				<polygon style="fill:#FFFFFF;" points="180.256,155.583 180.5,74.584 73.699,155.583 				"/>
				<g>
					<path style="fill:#FFFFFF;" d="M185.256,155.583c0.081-27,0.163-54,0.244-81c0.011-3.45-4.397-6.688-7.523-4.317
						c-35.59,26.992-71.18,53.984-106.77,80.976c-0.011,0.008-0.021,0.016-0.031,0.023c-3.729,2.828-2.879,9.317,2.523,9.317
						c35.519,0,71.038,0,106.557,0c6.448,0,6.448-10,0-10c-35.519,0-71.038,0-106.557,0c0.841,3.106,1.683,6.211,2.523,9.317
						c35.59-26.992,71.18-53.984,106.77-80.976c0.011-0.008,0.021-0.016,0.031-0.023c-2.508-1.439-5.016-2.878-7.523-4.317
						c-0.082,27-0.163,54-0.244,81C175.236,162.033,185.236,162.031,185.256,155.583z"/>
				</g>
			</g>
		</g>
		<path style="fill:none;stroke:#FFFFFF;stroke-width:10;stroke-miterlimit:10;" d="M268.5,278.988c0,3.919-3.927,7.096-8.771,7.096
			H101.938c-4.844,0-8.771-3.177-8.771-7.096V149.607c0-3.918,175.333-3.918,175.333,0V278.988z"/>
	</g>
	<g>
		<g>
			<path style="fill:#FFFFFF;" d="M133.798,268.374c-3.822,0-7.645,0-11.467,0c-4.514,0-4.514,7,0,7c3.822,0,7.645,0,11.467,0
				C138.313,275.374,138.313,268.374,133.798,268.374L133.798,268.374z"/>
		</g>
	</g>
	<g>
		<g>
			<path style="fill:#FFFFFF;" d="M132.507,202.423c-2.271,8.048-4.543,16.096-6.815,24.143c-1.229,4.354,5.525,6.198,6.75,1.861
				c2.271-8.048,4.543-16.096,6.815-24.143C140.486,199.931,133.731,198.086,132.507,202.423L132.507,202.423z"/>
		</g>
	</g>
	<g>
		<g>
			<path style="fill:#FFFFFF;" d="M124.902,193.538c0,26.14,0,52.28,0,78.42c0,4.514,7,4.514,7,0c0-26.14,0-52.28,0-78.42
				C131.902,189.024,124.902,189.024,124.902,193.538L124.902,193.538z"/>
		</g>
	</g>
	<g>
		<g>
			<path style="fill:#FFFFFF;" d="M104.39,182.562c7.303,4.554,14.605,9.108,21.908,13.662c1.031,0.643,2.502,0.643,3.533,0
				c7.303-4.554,14.605-9.108,21.908-13.662c2.918-1.819,1.786-6.522-1.767-6.522c-14.605,0-29.21,0-43.815,0c-4.514,0-4.514,7,0,7
				c14.605,0,29.21,0,43.815,0c-0.589-2.173-1.178-4.348-1.767-6.521c-7.302,4.554-14.605,9.107-21.908,13.661
				c1.178,0,2.355,0,3.533,0c-7.303-4.554-14.605-9.107-21.908-13.661C104.081,174.122,100.57,180.179,104.39,182.562z"/>
		</g>
	</g>
	<g>
		<g>
			<path style="fill:#FFFFFF;" d="M148.364,211.053c-3.343-3.289-6.686-6.578-10.028-9.867c-3.219-3.168-8.171,1.779-4.95,4.949
				c3.343,3.289,6.686,6.578,10.028,9.867C146.633,219.17,151.585,214.223,148.364,211.053L148.364,211.053z"/>
		</g>
	</g>
	<g>
		<g>
			<path style="fill:#FFFFFF;" d="M151.492,211.224c-2.318-1.316-4.636-2.633-6.954-3.949c-1.371-0.778-3.119-0.575-4.242,0.548
				c-1.216,1.216-1.177,2.769-0.547,4.241c1.048,2.45,2.096,4.901,3.144,7.352c0.939,2.197,3.993,2.051,5.497,0.708
				c1.27-1.134,2.54-2.268,3.81-3.402c1.423-1.271,1.291-3.658,0-4.949c-1.406-1.405-3.528-1.27-4.95,0
				c-1.27,1.134-2.54,2.268-3.81,3.402c1.833,0.236,3.665,0.472,5.497,0.708c-1.048-2.45-2.096-4.901-3.144-7.352
				c-1.596,1.597-3.192,3.192-4.789,4.789c2.318,1.316,4.636,2.633,6.954,3.949C151.89,219.501,155.416,213.452,151.492,211.224z"/>
		</g>
	</g>
	<g>
		<path style="fill:none;stroke:#FFFFFF;stroke-width:10;stroke-miterlimit:10;" d="M248.682,223.715H235.29
			c-2.048,0-3.708,2.132-3.708,4.762l0.001,7.065l-48.843,0.125v-7.19c0-2.63-1.66-4.762-3.708-4.762h-13.391
			c-2.047,0-3.708,2.132-3.708,4.762v12.43c0,2.629,1.66,4.761,3.708,4.761h6.584v10.942c0,4.636,2.927,8.393,6.538,8.393h56.573
			c3.61,0,6.538-3.757,6.538-8.393v-10.942h6.807c2.047,0,3.707-2.132,3.707-4.761v-12.43
			C252.389,225.847,250.729,223.715,248.682,223.715z"/>
		<path style="fill:none;stroke:#FFFFFF;stroke-width:10;stroke-miterlimit:10;" d="M233.12,215.872
			c0-0.11-0.003-17.265-0.007-17.375c-0.146-3.525-2.615-6.332-5.64-6.332h-41.327c-3.119,0-5.646,2.983-5.646,6.665v17.042"/>
		<g>
			<g>
				<path style="fill:#FFFFFF;" d="M178.333,266.945c0,0.8,0,1.601,0,2.4c0,2.726,2.274,5,5,5s5-2.274,5-5c0-0.8,0-1.601,0-2.4
					c0-2.726-2.274-5-5-5S178.333,264.22,178.333,266.945L178.333,266.945z"/>
			</g>
		</g>
		<g>
			<g>
				<path style="fill:#FFFFFF;" d="M225.833,266.945c0,0.8,0,1.601,0,2.4c0,2.726,2.274,5,5,5s5-2.274,5-5c0-0.8,0-1.601,0-2.4
					c0-2.726-2.274-5-5-5S225.833,264.22,225.833,266.945L225.833,266.945z"/>
			</g>
		</g>
	</g>
</g>
<g id="Ebene_1">
</g>
</svg>
