<?xml version="1.0" encoding="iso-8859-1"?>
<!-- Generator: Adobe Illustrator 16.0.0, SVG Export Plug-In . SVG Version: 6.00 Build 0)  -->
<!DOCTYPE svg PUBLIC "-//W3C//DTD SVG 1.1//EN" "http://www.w3.org/Graphics/SVG/1.1/DTD/svg11.dtd">
<svg version="1.1" xmlns="http://www.w3.org/2000/svg" xmlns:xlink="http://www.w3.org/1999/xlink" x="0px" y="0px" width="361px"
	 height="361px" viewBox="0 0 361 361" style="enable-background:new 0 0 361 361;" xml:space="preserve">
<g id="status_x5F_night">
	<g>
		<g>
			<g>
				<polygon style="fill:#FFFFFF;" points="180.744,155.583 180.5,74.583 287.301,155.583 				"/>
				<g>
					<path style="fill:#FFFFFF;" d="M185.744,155.583c-0.081-27-0.163-54-0.244-81c-2.508,1.439-5.016,2.878-7.523,4.317
						c35.59,26.992,71.18,53.984,106.77,80.976c0.011,0.008,0.021,0.016,0.031,0.024c0.841-3.106,1.683-6.211,2.523-9.317
						c-35.519,0-71.038,0-106.557,0c-6.449,0-6.449,10,0,10c35.519,0,71.038,0,106.557,0c5.402,0,6.252-6.489,2.523-9.317
						c-35.59-26.992-71.18-53.984-106.77-80.976c-0.011-0.008-0.021-0.016-0.031-0.024c-3.125-2.371-7.534,0.868-7.523,4.317
						c0.082,27,0.163,54,0.244,81C175.764,162.031,185.764,162.033,185.744,155.583z"/>
				</g>
			</g>
			<g>
				<polygon style="fill:#FFFFFF;" points="180.256,155.583 180.5,74.584 73.699,155.583 				"/>
				<g>
					<path style="fill:#FFFFFF;" d="M185.256,155.583c0.081-27,0.163-54,0.244-81c0.011-3.45-4.397-6.688-7.523-4.317
						c-35.59,26.992-71.18,53.984-106.77,80.976c-0.011,0.008-0.021,0.016-0.031,0.023c-3.729,2.828-2.879,9.317,2.523,9.317
						c35.519,0,71.038,0,106.557,0c6.448,0,6.448-10,0-10c-35.519,0-71.038,0-106.557,0c0.841,3.106,1.683,6.211,2.523,9.317
						c35.59-26.992,71.18-53.984,106.77-80.976c0.011-0.008,0.021-0.016,0.031-0.023c-2.508-1.439-5.016-2.878-7.523-4.317
						c-0.082,27-0.163,54-0.244,81C175.236,162.033,185.236,162.031,185.256,155.583z"/>
				</g>
			</g>
		</g>
		<path style="fill:none;stroke:#FFFFFF;stroke-width:10;stroke-miterlimit:10;" d="M268.5,278.988c0,3.919-3.927,7.096-8.771,7.096
			H101.938c-4.844,0-8.771-3.177-8.771-7.096V149.607c0-3.918,175.333-3.918,175.333,0V278.988z"/>
	</g>
	<g>
		<g>
			<g>
				<path style="fill:#FFFFFF;" d="M129.229,241.23c-9.98-18.121-3.849-40.477,13.906-51.05c3.874-2.307,0.355-8.36-3.533-6.045
					c-21.063,12.544-28.233,39.175-16.417,60.628C125.363,248.718,131.408,245.187,129.229,241.23L129.229,241.23z"/>
			</g>
		</g>
		<g>
			<g>
				<path style="fill:#FFFFFF;" d="M180.192,254.985c-18.121,9.98-40.478,3.85-51.051-13.905c-2.307-3.873-8.359-0.354-6.044,3.533
					c12.543,21.063,39.175,28.232,60.628,16.417C187.68,258.853,184.148,252.807,180.192,254.985L180.192,254.985z"/>
			</g>
		</g>
		<g>
			<g>
				<path style="fill:#FFFFFF;" d="M139.493,234.443c-6.284-11.433-9.588-36.144,3.624-44.313c3.83-2.369,0.318-8.426-3.533-6.045
					c-16.783,10.379-14.377,38.896-6.134,53.892C135.623,241.933,141.668,238.401,139.493,234.443L139.493,234.443z"/>
			</g>
		</g>
		<g>
			<g>
				<path style="fill:#FFFFFF;" d="M180.192,254.985c-7.233,3.788-16.067-0.027-22.557-3.663
					c-7.168-4.016-13.91-9.871-18.151-16.962c-2.313-3.868-8.367-0.351-6.044,3.533c8.809,14.728,32.576,32.409,50.286,23.137
					C187.726,258.936,184.187,252.895,180.192,254.985L180.192,254.985z"/>
			</g>
		</g>
	</g>
	<path style="fill:#FFFFFF;stroke:#FFFFFF;stroke-miterlimit:10;" d="M163.598,199.94c0,0.759-0.616,1.375-1.375,1.375l0,0
		c-0.76,0-1.375-0.616-1.375-1.375l0,0c0-0.76,0.615-1.375,1.375-1.375l0,0C162.981,198.565,163.598,199.181,163.598,199.94
		L163.598,199.94z"/>
	<path style="fill:#FFFFFF;stroke:#FFFFFF;stroke-miterlimit:10;" d="M174.348,179.315c0,1.449-1.176,2.625-2.625,2.625l0,0
		c-1.45,0-2.625-1.176-2.625-2.625l0,0c0-1.45,1.175-2.625,2.625-2.625l0,0C173.172,176.69,174.348,177.865,174.348,179.315
		L174.348,179.315z"/>
	<path style="fill:#FFFFFF;stroke:#FFFFFF;stroke-miterlimit:10;" d="M185.806,201.363c0,1.262-1.023,2.285-2.286,2.285h-0.762
		c-1.262,0-2.285-1.023-2.285-2.285v-0.762c0-1.263,1.023-2.286,2.285-2.286h0.762c1.263,0,2.286,1.023,2.286,2.286V201.363z"/>
	<path style="fill:#FFFFFF;stroke:#FFFFFF;stroke-width:10;stroke-miterlimit:10;" d="M226.598,239.975
		c0,2.203-1.603,3.989-3.58,3.989h-27.744c-1.977,0-3.58-1.786-3.58-3.989v-28.92c0-2.203,1.604-3.989,3.58-3.989h27.744
		c1.978,0,3.58,1.786,3.58,3.989V239.975z"/>
	<path style="fill:#FFFFFF;stroke:#FFFFFF;stroke-width:10;stroke-miterlimit:10;" d="M174.075,230.002
		c0,2.203,1.786,3.989,3.989,3.989h18.615c2.203,0,3.989-1.786,3.989-3.989v-11.303c0-2.202-1.786-3.988-3.989-3.988h-18.615
		c-2.203,0-3.989,1.786-3.989,3.988V230.002z"/>
	<path style="fill:#FFFFFF;stroke:#FFFFFF;stroke-width:10;stroke-miterlimit:10;" d="M166.098,230.002
		c0-2.203,1.786-3.989,3.989-3.989h22.937c2.203,0,3.988,1.786,3.988,3.989v6.316c0,2.202-1.785,3.988-3.988,3.988h-22.937
		c-2.203,0-3.989-1.786-3.989-3.988V230.002z"/>
	<path style="fill:#FFFFFF;stroke:#FFFFFF;stroke-width:10;stroke-miterlimit:10;" d="M213.301,236.317
		c0,2.203,1.786,3.989,3.989,3.989h18.615c2.203,0,3.989-1.786,3.989-3.989v-11.302c0-2.203-1.786-3.989-3.989-3.989H217.29
		c-2.203,0-3.989,1.786-3.989,3.989V236.317z"/>
</g>
<g id="Ebene_1">
</g>
</svg>
