<?xml version="1.0" encoding="iso-8859-1"?>
<!-- Generator: Adobe Illustrator 16.0.0, SVG Export Plug-In . SVG Version: 6.00 Build 0)  -->
<!DOCTYPE svg PUBLIC "-//W3C//DTD SVG 1.1 Tiny//EN" "http://www.w3.org/Graphics/SVG/1.1/DTD/svg11-tiny.dtd">
<svg version="1.1" baseProfile="tiny" id="status_x5F_comfort"
	 xmlns="http://www.w3.org/2000/svg" xmlns:xlink="http://www.w3.org/1999/xlink" x="0px" y="0px" width="361px" height="361px"
	 viewBox="0 0 361 361" xml:space="preserve">
<g>
	<g>
		<g>
			<polygon fill="#FFFFFF" points="178.226,158.461 177.982,77.461 284.783,158.461 			"/>
			<g>
				<path fill="#FFFFFF" d="M183.226,158.461c-0.082-27-0.163-54-0.244-81c-2.508,1.439-5.016,2.878-7.523,4.317
					c35.59,26.992,71.18,53.984,106.77,80.976c0.01,0.008,0.021,0.016,0.031,0.024c0.841-3.106,1.682-6.211,2.523-9.317
					c-35.519,0-71.038,0-106.557,0c-6.449,0-6.449,10,0,10c35.519,0,71.038,0,106.557,0c5.402,0,6.252-6.489,2.523-9.317
					c-35.59-26.992-71.18-53.984-106.77-80.976c-0.01-0.008-0.021-0.016-0.031-0.024c-3.125-2.371-7.534,0.868-7.523,4.317
					c0.082,27,0.163,54,0.244,81C173.246,164.909,183.246,164.911,183.226,158.461z"/>
			</g>
		</g>
		<g>
			<polygon fill="#FFFFFF" points="177.738,158.461 177.982,77.462 71.181,158.461 			"/>
			<g>
				<path fill="#FFFFFF" d="M182.738,158.461c0.082-27,0.163-54,0.244-81c0.01-3.45-4.398-6.688-7.523-4.317
					c-35.59,26.992-71.18,53.984-106.77,80.976c-0.011,0.008-0.021,0.016-0.031,0.023c-3.729,2.828-2.879,9.317,2.523,9.317
					c35.519,0,71.038,0,106.557,0c6.449,0,6.449-10,0-10c-35.519,0-71.038,0-106.557,0c0.841,3.106,1.683,6.211,2.523,9.317
					c35.59-26.992,71.18-53.984,106.77-80.976c0.011-0.008,0.021-0.016,0.031-0.023c-2.508-1.439-5.016-2.878-7.523-4.317
					c-0.082,27-0.163,54-0.244,81C172.718,164.911,182.718,164.909,182.738,158.461z"/>
			</g>
		</g>
	</g>
	<path fill="none" stroke="#FFFFFF" stroke-width="10" stroke-miterlimit="10" d="M265.982,281.866c0,3.919-3.927,7.095-8.771,7.095
		H99.419c-4.844,0-8.771-3.176-8.771-7.095V152.485c0-3.918,175.333-3.918,175.333,0V281.866z"/>
</g>
<g>
	<path fill="#FFFFFF" d="M131.28,271.252c-3.822,0-7.645,0-11.467,0c-4.514,0-4.514,7,0,7c3.822,0,7.645,0,11.467,0
		C135.794,278.252,135.794,271.252,131.28,271.252L131.28,271.252z"/>
</g>
<g>
	<path fill="#FFFFFF" d="M129.989,205.301c-2.271,8.047-4.543,16.095-6.815,24.142c-1.229,4.354,5.525,6.198,6.75,1.861
		c2.271-8.047,4.543-16.095,6.815-24.142C137.968,202.809,131.214,200.964,129.989,205.301L129.989,205.301z"/>
</g>
<g>
	<path fill="#FFFFFF" d="M122.384,196.416c0,26.14,0,52.28,0,78.42c0,4.514,7,4.514,7,0c0-26.14,0-52.28,0-78.42
		C129.384,191.902,122.384,191.902,122.384,196.416L122.384,196.416z"/>
</g>
<g>
	<path fill="#FFFFFF" d="M101.872,185.439c7.303,4.554,14.605,9.107,21.908,13.661c1.031,0.643,2.502,0.643,3.533,0
		c7.303-4.554,14.605-9.107,21.908-13.661c2.918-1.819,1.786-6.522-1.767-6.522c-14.605,0-29.21,0-43.815,0c-4.514,0-4.514,7,0,7
		c14.605,0,29.21,0,43.815,0c-0.589-2.174-1.178-4.348-1.767-6.522c-7.302,4.554-14.605,9.107-21.908,13.661
		c1.178,0,2.355,0,3.533,0c-7.303-4.554-14.605-9.107-21.908-13.661C101.563,177,98.052,183.058,101.872,185.439z"/>
</g>
<g>
	<path fill="#FFFFFF" d="M145.846,213.93c-3.343-3.289-6.686-6.577-10.028-9.866c-3.219-3.167-8.171,1.78-4.95,4.95
		c3.343,3.289,6.686,6.577,10.028,9.866C144.115,222.047,149.067,217.1,145.846,213.93L145.846,213.93z"/>
</g>
<g>
	<path fill="#FFFFFF" d="M148.974,214.102c-2.318-1.316-4.636-2.633-6.954-3.949c-1.371-0.779-3.119-0.575-4.242,0.547
		c-1.216,1.216-1.177,2.77-0.547,4.242c1.048,2.451,2.096,4.901,3.144,7.352c0.939,2.197,3.994,2.051,5.497,0.708
		c1.27-1.134,2.54-2.269,3.81-3.403c1.423-1.271,1.292-3.658,0-4.95c-1.405-1.405-3.528-1.27-4.95,0
		c-1.27,1.134-2.54,2.269-3.81,3.403c1.833,0.236,3.665,0.473,5.497,0.708c-1.048-2.451-2.096-4.901-3.144-7.352
		c-1.596,1.596-3.192,3.192-4.789,4.789c2.318,1.316,4.636,2.633,6.954,3.949C149.372,222.378,152.897,216.33,148.974,214.102z"/>
</g>
<g>
	<path fill="none" stroke="#FFFFFF" stroke-width="10" stroke-miterlimit="10" d="M246.163,226.593h-13.391
		c-2.047,0-3.708,2.131-3.708,4.761l0,7.066l-48.842,0.125v-7.191c0-2.629-1.66-4.761-3.708-4.761h-13.391
		c-2.047,0-3.708,2.131-3.708,4.761v12.43c0,2.629,1.66,4.761,3.708,4.761h6.584v10.942c0,4.636,2.927,8.393,6.538,8.393h56.573
		c3.611,0,6.538-3.757,6.538-8.393v-10.942h6.807c2.048,0,3.708-2.131,3.708-4.761v-12.43
		C249.871,228.725,248.211,226.593,246.163,226.593z"/>
	<path fill="none" stroke="#FFFFFF" stroke-width="10" stroke-miterlimit="10" d="M230.602,218.75c0-0.11-0.002-17.264-0.007-17.375
		c-0.147-3.525-2.615-6.332-5.64-6.332h-41.328c-3.118,0-5.646,2.984-5.646,6.665v17.042"/>
	<g>
		<path fill="#FFFFFF" d="M175.815,269.823c0,0.8,0,1.601,0,2.401c0,2.726,2.274,5,5,5s5-2.274,5-5c0-0.8,0-1.601,0-2.401
			c0-2.726-2.274-5-5-5S175.815,267.097,175.815,269.823L175.815,269.823z"/>
	</g>
	<g>
		<path fill="#FFFFFF" d="M223.315,269.823c0,0.8,0,1.601,0,2.401c0,2.726,2.274,5,5,5s5-2.274,5-5c0-0.8,0-1.601,0-2.401
			c0-2.726-2.274-5-5-5S223.315,267.097,223.315,269.823L223.315,269.823z"/>
	</g>
</g>
</svg>
