<?xml version="1.0" encoding="iso-8859-1"?>
<!-- Generator: Adobe Illustrator 16.0.0, SVG Export Plug-In . SVG Version: 6.00 Build 0)  -->
<!DOCTYPE svg PUBLIC "-//W3C//DTD SVG 1.1 Tiny//EN" "http://www.w3.org/Graphics/SVG/1.1/DTD/svg11-tiny.dtd">
<svg version="1.1" baseProfile="tiny" id="temp_x5F_control"
	 xmlns="http://www.w3.org/2000/svg" xmlns:xlink="http://www.w3.org/1999/xlink" x="0px" y="0px" width="361px" height="361px"
	 viewBox="0 0 361 361" xml:space="preserve">
<g>
	<g>
		<path fill="#FFFFFF" d="M77.355,163.962c15.77-35.481,45.484-61.806,82.354-73.811c39.982-13.018,84.019-7.971,122.167,8.59
			c5.852,2.541,10.949-6.073,5.047-8.635c-40.863-17.74-86.938-23.159-129.873-9.598c-39.155,12.367-71.634,40.84-88.33,78.406
			C66.125,164.753,74.74,169.846,77.355,163.962L77.355,163.962z"/>
	</g>
	<g>
		<path fill="#FFFFFF" d="M76.52,165.007c26.971-26.788,63.205-41.83,101.209-42.087c38.527-0.261,75.738,15.62,103.047,42.59
			c4.591,4.533,11.665-2.535,7.071-7.071c-29.012-28.651-67.952-45.045-108.745-45.515c-40.924-0.472-80.708,16.263-109.654,45.012
			C64.868,162.484,71.941,169.554,76.52,165.007L76.52,165.007z"/>
	</g>
	<g>
		<path fill="#FFFFFF" d="M279.4,95.32c0,22.218,0,44.436,0,66.654c0,6.449,10,6.449,10,0c0-22.218,0-44.436,0-66.654
			C289.4,88.871,279.4,88.871,279.4,95.32L279.4,95.32z"/>
	</g>
	<g>
		<path fill="#FFFFFF" d="M85.099,197.568c-4.742,0-9.484,0-14.227,0c1.167,1.167,2.333,2.333,3.5,3.5c0-7.452,0-14.904,0-22.356
			c-1.167,1.167-2.333,2.333-3.5,3.5c4.742,0,9.484,0,14.227,0c-1.167-1.167-2.333-2.333-3.5-3.5c0,7.452,0,14.904,0,22.356
			c0,4.514,7,4.514,7,0c0-7.452,0-14.904,0-22.356c0-1.908-1.592-3.5-3.5-3.5c-4.742,0-9.484,0-14.227,0c-1.908,0-3.5,1.592-3.5,3.5
			c0,7.452,0,14.904,0,22.356c0,1.908,1.592,3.5,3.5,3.5c4.742,0,9.484,0,14.227,0C89.613,204.568,89.613,197.568,85.099,197.568z"
			/>
	</g>
	<g>
		<path fill="#FFFFFF" d="M286.481,198.331c-4.742,0-9.484,0-14.227,0c1.167,1.167,2.333,2.333,3.5,3.5c0-7.452,0-14.904,0-22.356
			c-1.167,1.167-2.333,2.333-3.5,3.5c4.742,0,9.484,0,14.227,0c-1.167-1.167-2.333-2.333-3.5-3.5c0,7.452,0,14.904,0,22.356
			c0,4.514,7,4.514,7,0c0-7.452,0-14.904,0-22.356c0-1.908-1.592-3.5-3.5-3.5c-4.742,0-9.484,0-14.227,0c-1.908,0-3.5,1.592-3.5,3.5
			c0,7.452,0,14.904,0,22.356c0,1.908,1.592,3.5,3.5,3.5c4.742,0,9.484,0,14.227,0C290.996,205.331,290.996,198.331,286.481,198.331
			z"/>
	</g>
	<g>
		<path fill="#FFFFFF" d="M263.617,198.331c-4.742,0-9.484,0-14.227,0c1.167,1.167,2.333,2.333,3.5,3.5c0-7.452,0-14.904,0-22.356
			c-1.167,1.167-2.333,2.333-3.5,3.5c4.742,0,9.484,0,14.227,0c-1.167-1.167-2.333-2.333-3.5-3.5c0,7.452,0,14.904,0,22.356
			c0,4.514,7,4.514,7,0c0-7.452,0-14.904,0-22.356c0-1.908-1.592-3.5-3.5-3.5c-4.742,0-9.484,0-14.227,0c-1.908,0-3.5,1.592-3.5,3.5
			c0,7.452,0,14.904,0,22.356c0,1.908,1.592,3.5,3.5,3.5c4.742,0,9.484,0,14.227,0C268.131,205.331,268.131,198.331,263.617,198.331
			z"/>
	</g>
	<g>
		<path fill="#FFFFFF" d="M237.252,179.156c0,7.685,0,15.37,0,23.055c0,4.514,7,4.514,7,0c0-7.685,0-15.37,0-23.055
			C244.252,174.642,237.252,174.642,237.252,179.156L237.252,179.156z"/>
	</g>
</g>
<path fill="none" stroke="#FFFFFF" stroke-width="10" stroke-miterlimit="10" d="M175.653,256.587c0,1.931-1.696,3.497-3.788,3.497
	h-13.888c-2.092,0-3.788-1.565-3.788-3.497v-96.958c0-1.931,1.696-3.497,3.788-3.497h13.888c2.092,0,3.788,1.566,3.788,3.497
	V256.587z"/>
<path fill="#FFFFFF" stroke="#FFFFFF" stroke-width="10" stroke-miterlimit="10" d="M181.334,285.757
	c0,2.093-1.33,3.788-2.969,3.788h-26.888c-1.64,0-2.969-1.695-2.969-3.788v-21.884c0-2.092,1.329-3.788,2.969-3.788h26.888
	c1.64,0,2.969,1.696,2.969,3.788V285.757z"/>
<g>
	<path fill="#FFFFFF" d="M190.783,168.708c3.788,0,7.576,0,11.364,0c6.449,0,6.449-10,0-10c-3.788,0-7.576,0-11.364,0
		C184.334,158.708,184.334,168.708,190.783,168.708L190.783,168.708z"/>
</g>
<g>
	<path fill="#FFFFFF" d="M190.783,193.959c3.788,0,7.576,0,11.364,0c6.449,0,6.449-10,0-10c-3.788,0-7.576,0-11.364,0
		C184.334,183.959,184.334,193.959,190.783,193.959L190.783,193.959z"/>
</g>
<g>
	<path fill="#FFFFFF" d="M190.783,219.842c3.788,0,7.576,0,11.364,0c6.449,0,6.449-10,0-10c-3.788,0-7.576,0-11.364,0
		C184.334,209.842,184.334,219.842,190.783,219.842L190.783,219.842z"/>
</g>
<g>
	<path fill="#FFFFFF" d="M190.783,246.988c3.788,0,7.576,0,11.364,0c6.449,0,6.449-10,0-10c-3.788,0-7.576,0-11.364,0
		C184.334,236.988,184.334,246.988,190.783,246.988L190.783,246.988z"/>
</g>
<rect x="154.188" y="225.417" fill="#FFFFFF" stroke="#FFFFFF" stroke-width="10" stroke-miterlimit="10" width="21.464" height="44.558"/>
</svg>
