<?xml version="1.0" encoding="iso-8859-1"?>
<!-- Generator: Adobe Illustrator 16.0.0, SVG Export Plug-In . SVG Version: 6.00 Build 0)  -->
<!DOCTYPE svg PUBLIC "-//W3C//DTD SVG 1.1//EN" "http://www.w3.org/Graphics/SVG/1.1/DTD/svg11.dtd">
<svg version="1.1" xmlns="http://www.w3.org/2000/svg" xmlns:xlink="http://www.w3.org/1999/xlink" x="0px" y="0px" width="361px"
	 height="361px" viewBox="0 0 361 361" style="enable-background:new 0 0 361 361;" xml:space="preserve">
<g id="temp_x5F_outside">
	<g>
		<polygon style="fill:#FFFFFF;" points="75.078,156.167 74.833,75.167 181.635,156.167 		"/>
		<g>
			<path style="fill:#FFFFFF;" d="M80.078,156.167c-0.082-27-0.163-54-0.245-81c-2.508,1.439-5.016,2.878-7.523,4.317
				c35.59,26.992,71.18,53.984,106.771,80.976c0.01,0.008,0.021,0.016,0.031,0.024c0.841-3.106,1.682-6.211,2.523-9.317
				c-35.519,0-71.038,0-106.557,0c-6.449,0-6.449,10,0,10c35.519,0,71.038,0,106.557,0c5.402,0,6.252-6.489,2.523-9.317
				c-35.59-26.992-71.18-53.984-106.771-80.976c-0.01-0.008-0.021-0.016-0.031-0.024c-3.125-2.371-7.534,0.868-7.523,4.317
				c0.082,27,0.163,54,0.245,81C70.097,162.615,80.097,162.617,80.078,156.167z"/>
		</g>
	</g>
	<path style="fill:none;stroke:#FFFFFF;stroke-width:10;stroke-miterlimit:10;" d="M162.833,281.5c0,3.223-4.727,5.834-10.558,5.834
		H85.391c-5.832,0-10.558-2.611-10.558-5.834V159c0-3.222,4.727-5.833,10.558-5.833h66.884c5.832,0,10.558,2.612,10.558,5.833V281.5
		z"/>
	<path style="fill:none;stroke:#FFFFFF;stroke-width:10;stroke-miterlimit:10;" d="M127.833,280.988c0,3.137-2.687,5.679-6,5.679
		h-23.5c-3.313,0-6-2.542-6-5.679v-68.143c0-3.137,2.687-5.679,6-5.679h23.5c3.313,0,6,2.542,6,5.679V280.988z"/>
	<path style="fill:none;stroke:#FFFFFF;stroke-width:10;stroke-miterlimit:10;" d="M255.889,248.588
		c0,2.231-1.959,4.041-4.376,4.041h-16.046c-2.418,0-4.377-1.81-4.377-4.041V136.563c0-2.231,1.959-4.041,4.377-4.041h16.046
		c2.417,0,4.376,1.809,4.376,4.041V248.588z"/>
	<path style="fill:#FFFFFF;stroke:#FFFFFF;stroke-width:10;stroke-miterlimit:10;" d="M262.453,282.291
		c0,2.416-1.536,4.376-3.431,4.376h-31.066c-1.896,0-3.431-1.96-3.431-4.376v-25.285c0-2.418,1.535-4.377,3.431-4.377h31.066
		c1.895,0,3.431,1.959,3.431,4.377V282.291z"/>
	<g>
		<g>
			<path style="fill:#FFFFFF;" d="M273.371,146.276c4.376,0,8.753,0,13.129,0c6.448,0,6.448-10,0-10c-4.376,0-8.753,0-13.129,0
				C266.923,136.276,266.923,146.276,273.371,146.276L273.371,146.276z"/>
		</g>
	</g>
	<g>
		<g>
			<path style="fill:#FFFFFF;" d="M273.371,175.451c4.376,0,8.753,0,13.129,0c6.448,0,6.448-10,0-10c-4.376,0-8.753,0-13.129,0
				C266.923,165.451,266.923,175.451,273.371,175.451L273.371,175.451z"/>
		</g>
	</g>
	<g>
		<g>
			<path style="fill:#FFFFFF;" d="M273.371,205.355c4.376,0,8.753,0,13.129,0c6.448,0,6.448-10,0-10c-4.376,0-8.753,0-13.129,0
				C266.923,195.355,266.923,205.355,273.371,205.355L273.371,205.355z"/>
		</g>
	</g>
	<g>
		<g>
			<path style="fill:#FFFFFF;" d="M273.371,236.719c4.376,0,8.753,0,13.129,0c6.448,0,6.448-10,0-10c-4.376,0-8.753,0-13.129,0
				C266.923,226.719,266.923,236.719,273.371,236.719L273.371,236.719z"/>
		</g>
	</g>
	
		<rect x="231.089" y="212.574" style="fill:#FFFFFF;stroke:#FFFFFF;stroke-width:10;stroke-miterlimit:10;" width="24.8" height="51.482"/>
</g>
<g id="Ebene_1">
</g>
</svg>
