<?xml version="1.0" encoding="iso-8859-1"?>
<!-- Generator: Adobe Illustrator 16.0.0, SVG Export Plug-In . SVG Version: 6.00 Build 0)  -->
<!DOCTYPE svg PUBLIC "-//W3C//DTD SVG 1.1 Tiny//EN" "http://www.w3.org/Graphics/SVG/1.1/DTD/svg11-tiny.dtd">
<svg version="1.1" baseProfile="tiny" id="temp_x5F_windchill"
	 xmlns="http://www.w3.org/2000/svg" xmlns:xlink="http://www.w3.org/1999/xlink" x="0px" y="0px" width="361px" height="361px"
	 viewBox="0 0 361 361" xml:space="preserve">
<g>
	<path fill="#FFFFFF" d="M181.466,131.097c4.229-1.258,8.513-2.353,12.844-3.195c5.906-1.149,11.071,0.669,16.589,2.689
		c7.574,2.773,15.314,7.22,23.585,7.594c7.584,0.344,15.701-4.572,22.595-7.222c5.296-2.036,10.721-4.133,16.455-3.259
		c4.718,0.719,9.399,2.033,13.969,3.393c1.859,0.553,2.647-2.342,0.798-2.893c-4.229-1.258-8.513-2.353-12.843-3.195
		c-5.37-1.045-9.779-0.16-14.938,1.538c-8.435,2.775-17.019,8.23-26.035,8.639c-5.043,0.229-10.941-2.752-15.529-4.583
		c-3.04-1.213-6.207-2.541-9.391-3.672c-5.043-1.792-9.607-2.93-14.926-2.119c-4.719,0.72-9.399,2.034-13.97,3.394
		C178.818,128.755,179.607,131.65,181.466,131.097L181.466,131.097z"/>
</g>
<g>
	<path fill="#FFFFFF" d="M186.717,137.05c4.476-1.606,9.602-3.217,14.371-2.406c4.563,0.776,9.035,2.629,13.314,4.337
		c6.278,2.506,13.114,5.923,20.082,6.238c6.44,0.292,13.714-3.623,19.442-5.979c4.211-1.731,8.516-3.3,12.941-4.383
		c5.081-1.242,10.585,0.469,15.383,2.191c1.826,0.655,2.604-2.244,0.798-2.893c-4.163-1.495-8.523-2.583-12.953-2.759
		c-4.584-0.183-9.622,2.132-13.813,3.707c-6.967,2.619-14.19,6.77-21.798,7.115c-6.95,0.314-14.545-4.278-20.875-6.76
		c-4.489-1.76-9.137-3.464-13.949-4.026c-4.458-0.521-9.603,1.238-13.741,2.724C184.113,134.806,184.892,137.705,186.717,137.05
		L186.717,137.05z"/>
</g>
<g>
	<path fill="#FFFFFF" d="M186.798,123.026c4.476-1.606,9.602-3.217,14.37-2.406c4.563,0.777,9.035,2.63,13.313,4.338
		c6.278,2.506,13.115,5.923,20.083,6.238c6.439,0.292,13.714-3.622,19.441-5.978c4.211-1.732,8.516-3.301,12.942-4.384
		c5.081-1.242,10.585,0.469,15.383,2.191c1.826,0.655,2.604-2.244,0.798-2.893c-4.163-1.495-8.523-2.583-12.952-2.759
		c-4.585-0.183-9.622,2.132-13.814,3.708c-6.967,2.619-14.19,6.77-21.798,7.114c-6.95,0.315-14.546-4.277-20.875-6.76
		c-4.489-1.761-9.137-3.465-13.949-4.027c-4.458-0.521-9.602,1.238-13.74,2.724C184.194,120.782,184.973,123.682,186.798,123.026
		L186.798,123.026z"/>
</g>
<g>
	<path fill="#FFFFFF" d="M279.315,190.302c0,33.081,0,66.162,0,99.243c0,6.449,10,6.449,10,0c0-33.081,0-66.162,0-99.243
		C289.315,183.853,279.315,183.853,279.315,190.302L279.315,190.302z"/>
</g>
<line fill="none" stroke="#FFFFFF" stroke-width="10" stroke-miterlimit="10" x1="184.463" y1="206.411" x2="245.4" y2="179.625"/>
<line fill="none" stroke="#FFFFFF" stroke-width="10" stroke-miterlimit="10" x1="189.783" y1="222.066" x2="254.94" y2="215.231"/>
<g>
	<polygon fill="#FFFFFF" points="245.4,179.625 279.075,189.684 254.94,215.231 	"/>
	<g>
		<path fill="#FFFFFF" d="M244.071,184.447c11.225,3.353,22.45,6.706,33.675,10.059c-0.735-2.786-1.471-5.571-2.207-8.357
			c-8.045,8.516-16.09,17.032-24.135,25.547c2.786,0.735,5.571,1.471,8.357,2.207c-3.18-11.869-6.36-23.737-9.54-35.606
			c-1.667-6.223-11.314-3.579-9.643,2.658c3.18,11.869,6.36,23.737,9.54,35.606c0.955,3.565,5.765,4.951,8.357,2.207
			c8.045-8.516,16.09-17.032,24.135-25.547c2.605-2.758,1.455-7.264-2.207-8.357c-11.225-3.353-22.45-6.706-33.675-10.059
			C240.535,172.954,237.908,182.606,244.071,184.447z"/>
	</g>
</g>
<path fill="#FFFFFF" d="M198.826,221.477c0.587,2.352-0.922,4.759-3.372,5.373l-6.287,1.572c-2.452,0.613-4.916-0.799-5.504-3.15
	l-4.753-18.998c-0.59-2.354,0.92-4.759,3.371-5.373l6.287-1.572c2.45-0.612,4.916,0.797,5.504,3.15L198.826,221.477z"/>
<path fill="#FFFFFF" d="M218.519,216.113c0.579,2.311-0.537,4.582-2.492,5.072l-5.012,1.253c-1.954,0.489-4.007-0.989-4.585-3.3
	l-4.67-18.662c-0.579-2.311,0.537-4.582,2.492-5.071l5.012-1.254c1.954-0.488,4.007,0.989,4.586,3.301L218.519,216.113z"/>
<path fill="#FFFFFF" d="M240.843,212.325c0.727,2.9-0.269,5.649-2.224,6.139l-5.013,1.253c-1.954,0.489-4.126-1.466-4.853-4.367
	l-5.861-23.42c-0.725-2.9,0.271-5.649,2.225-6.139l5.013-1.253c1.953-0.489,4.126,1.466,4.853,4.366L240.843,212.325z"/>
<path fill="none" stroke="#FFFFFF" stroke-width="10" stroke-miterlimit="10" d="M132.982,237.005c0,3.06-2.687,5.54-6,5.54h-22
	c-3.313,0-6-2.48-6-5.54V83.418c0-3.06,2.687-5.54,6-5.54h22c3.313,0,6,2.48,6,5.54V237.005z"/>
<path fill="#FFFFFF" stroke="#FFFFFF" stroke-width="10" stroke-miterlimit="10" d="M141.981,283.212c0,3.313-2.106,6-4.704,6
	H94.686c-2.598,0-4.704-2.687-4.704-6v-34.667c0-3.313,2.106-6,4.704-6h42.592c2.598,0,4.704,2.687,4.704,6V283.212z"/>
<g>
	<path fill="#FFFFFF" d="M145.982,93.878c6,0,12,0,18,0c6.449,0,6.449-10,0-10c-6,0-12,0-18,0
		C139.533,83.878,139.533,93.878,145.982,93.878L145.982,93.878z"/>
</g>
<g>
	<path fill="#FFFFFF" d="M145.982,133.878c6,0,12,0,18,0c6.449,0,6.449-10,0-10c-6,0-12,0-18,0
		C139.533,123.878,139.533,133.878,145.982,133.878L145.982,133.878z"/>
</g>
<g>
	<path fill="#FFFFFF" d="M145.982,174.878c6,0,12,0,18,0c6.449,0,6.449-10,0-10c-6,0-12,0-18,0
		C139.533,164.878,139.533,174.878,145.982,174.878L145.982,174.878z"/>
</g>
<g>
	<path fill="#FFFFFF" d="M145.982,217.878c6,0,12,0,18,0c6.449,0,6.449-10,0-10c-6,0-12,0-18,0
		C139.533,207.878,139.533,217.878,145.982,217.878L145.982,217.878z"/>
</g>
<rect x="98.981" y="195.707" fill="#FFFFFF" stroke="#FFFFFF" stroke-width="10" stroke-miterlimit="10" width="34" height="62.505"/>
</svg>
