<?xml version="1.0" encoding="iso-8859-1"?>
<!-- Generator: Adobe Illustrator 16.0.0, SVG Export Plug-In . SVG Version: 6.00 Build 0)  -->
<!DOCTYPE svg PUBLIC "-//W3C//DTD SVG 1.1 Tiny//EN" "http://www.w3.org/Graphics/SVG/1.1/DTD/svg11-tiny.dtd">
<svg version="1.1" baseProfile="tiny" id="temp_x5F_frost"
	 xmlns="http://www.w3.org/2000/svg" xmlns:xlink="http://www.w3.org/1999/xlink" x="0px" y="0px" width="361px" height="361px"
	 viewBox="0 0 361 361" xml:space="preserve">
<g>
	<g>
		<path fill="#FFFFFF" d="M224.433,188.892c0,14.32,0,28.641,0,42.961c0,6.449,10,6.449,10,0c0-14.32,0-28.641,0-42.961
			C234.433,182.443,224.433,182.443,224.433,188.892L224.433,188.892z"/>
	</g>
	<g>
		<path fill="#FFFFFF" d="M214.408,197.533c4.175,2.411,8.35,4.821,12.524,7.231c5.595,3.23,10.628-5.412,5.047-8.635
			c-4.175-2.411-8.35-4.821-12.524-7.231C213.86,185.668,208.826,194.311,214.408,197.533L214.408,197.533z"/>
	</g>
	<g>
		<path fill="#FFFFFF" d="M239.268,188.898c-4.175,2.411-8.35,4.821-12.524,7.231c-5.582,3.223-0.548,11.865,5.047,8.635
			c4.175-2.411,8.35-4.821,12.524-7.231C249.896,194.311,244.862,185.668,239.268,188.898L239.268,188.898z"/>
	</g>
</g>
<g>
	<g>
		<path fill="#FFFFFF" d="M189.555,214.194c12.402,7.16,24.804,14.321,37.206,21.481c5.595,3.23,10.628-5.412,5.047-8.635
			c-12.402-7.16-24.804-14.321-37.206-21.481C189.007,202.329,183.973,210.972,189.555,214.194L189.555,214.194z"/>
	</g>
	<g>
		<path fill="#FFFFFF" d="M192.096,227.183c4.175-2.41,8.35-4.821,12.525-7.231c5.582-3.222,0.548-11.865-5.047-8.635
			c-4.175,2.41-8.35,4.821-12.525,7.231C181.468,221.771,186.501,230.413,192.096,227.183L192.096,227.183z"/>
	</g>
	<g>
		<path fill="#FFFFFF" d="M197.003,201.336c0,4.821,0,9.642,0,14.462c0,6.449,10,6.449,10,0c0-4.821,0-9.642,0-14.462
			C207.003,194.888,197.003,194.888,197.003,201.336L197.003,201.336z"/>
	</g>
</g>
<g>
	<g>
		<path fill="#FFFFFF" d="M194.696,257.126c12.402-7.16,24.804-14.321,37.206-21.481c5.582-3.222,0.548-11.865-5.047-8.635
			c-12.402,7.16-24.804,14.321-37.206,21.481C184.067,251.714,189.101,260.357,194.696,257.126L194.696,257.126z"/>
	</g>
	<g>
		<path fill="#FFFFFF" d="M207.168,261.472c0-4.821,0-9.641,0-14.462c0-6.449-10-6.449-10,0c0,4.821,0,9.641,0,14.462
			C197.168,267.921,207.168,267.921,207.168,261.472L207.168,261.472z"/>
	</g>
	<g>
		<path fill="#FFFFFF" d="M187.215,244.26c4.175,2.411,8.35,4.821,12.525,7.231c5.595,3.23,10.628-5.412,5.047-8.635
			c-4.175-2.411-8.35-4.821-12.525-7.231C186.667,232.395,181.633,241.038,187.215,244.26L187.215,244.26z"/>
	</g>
</g>
<g>
	<g>
		<path fill="#FFFFFF" d="M234.385,274.444c0-14.32,0-28.641,0-42.961c0-6.449-10-6.449-10,0c0,14.32,0,28.641,0,42.961
			C224.385,280.893,234.385,280.893,234.385,274.444L234.385,274.444z"/>
	</g>
	<g>
		<path fill="#FFFFFF" d="M244.409,265.802c-4.175-2.411-8.35-4.821-12.524-7.231c-5.595-3.23-10.628,5.412-5.047,8.635
			c4.175,2.411,8.35,4.821,12.524,7.231C244.957,277.667,249.991,269.025,244.409,265.802L244.409,265.802z"/>
	</g>
	<g>
		<path fill="#FFFFFF" d="M219.549,274.437c4.175-2.411,8.35-4.821,12.524-7.231c5.582-3.223,0.548-11.865-5.047-8.635
			c-4.175,2.411-8.35,4.821-12.524,7.231C208.921,269.025,213.955,277.667,219.549,274.437L219.549,274.437z"/>
	</g>
</g>
<g>
	<g>
		<path fill="#FFFFFF" d="M269.262,248.814c-12.402-7.16-24.804-14.321-37.206-21.481c-5.595-3.23-10.628,5.412-5.047,8.635
			c12.402,7.16,24.804,14.321,37.206,21.481C269.81,260.679,274.844,252.037,269.262,248.814L269.262,248.814z"/>
	</g>
	<g>
		<path fill="#FFFFFF" d="M266.721,235.825c-4.175,2.41-8.35,4.821-12.524,7.231c-5.582,3.222-0.548,11.865,5.047,8.635
			c4.175-2.41,8.35-4.821,12.524-7.231C277.349,241.238,272.315,232.595,266.721,235.825L266.721,235.825z"/>
	</g>
	<g>
		<path fill="#FFFFFF" d="M261.814,261.672c0-4.821,0-9.641,0-14.462c0-6.449-10-6.449-10,0c0,4.821,0,9.641,0,14.462
			C251.814,268.121,261.814,268.121,261.814,261.672L261.814,261.672z"/>
	</g>
</g>
<g>
	<g>
		<path fill="#FFFFFF" d="M264.121,205.882c-12.402,7.16-24.804,14.321-37.206,21.481c-5.582,3.223-0.548,11.865,5.047,8.635
			c12.402-7.16,24.804-14.321,37.206-21.481C274.75,211.294,269.716,202.652,264.121,205.882L264.121,205.882z"/>
	</g>
	<g>
		<path fill="#FFFFFF" d="M251.648,201.536c0,4.821,0,9.642,0,14.462c0,6.449,10,6.449,10,0c0-4.821,0-9.642,0-14.462
			C261.648,195.087,251.648,195.087,251.648,201.536L251.648,201.536z"/>
	</g>
	<g>
		<path fill="#FFFFFF" d="M271.602,218.748c-4.175-2.411-8.35-4.821-12.524-7.231c-5.595-3.23-10.628,5.412-5.047,8.635
			c4.175,2.411,8.35,4.821,12.524,7.231C272.15,230.613,277.184,221.971,271.602,218.748L271.602,218.748z"/>
	</g>
</g>
<path fill="none" stroke="#FFFFFF" stroke-width="10" stroke-miterlimit="10" d="M132.981,237.005c0,3.06-2.687,5.54-6,5.54h-22
	c-3.313,0-6-2.48-6-5.54V83.418c0-3.06,2.687-5.54,6-5.54h22c3.313,0,6,2.48,6,5.54V237.005z"/>
<path fill="#FFFFFF" stroke="#FFFFFF" stroke-width="10" stroke-miterlimit="10" d="M141.981,283.212c0,3.313-2.106,6-4.704,6
	H94.685c-2.598,0-4.704-2.687-4.704-6v-34.667c0-3.313,2.106-6,4.704-6h42.592c2.598,0,4.704,2.687,4.704,6V283.212z"/>
<g>
	<path fill="#FFFFFF" d="M145.982,94.211c6,0,12,0,18,0c6.449,0,6.449-10,0-10c-6,0-12,0-18,0
		C139.533,84.211,139.533,94.211,145.982,94.211L145.982,94.211z"/>
</g>
<g>
	<path fill="#FFFFFF" d="M145.982,134.211c6,0,12,0,18,0c6.449,0,6.449-10,0-10c-6,0-12,0-18,0
		C139.533,124.211,139.533,134.211,145.982,134.211L145.982,134.211z"/>
</g>
<g>
	<path fill="#FFFFFF" d="M145.982,175.211c6,0,12,0,18,0c6.449,0,6.449-10,0-10c-6,0-12,0-18,0
		C139.533,165.211,139.533,175.211,145.982,175.211L145.982,175.211z"/>
</g>
<g>
	<path fill="#FFFFFF" d="M145.982,218.211c6,0,12,0,18,0c6.449,0,6.449-10,0-10c-6,0-12,0-18,0
		C139.533,208.211,139.533,218.211,145.982,218.211L145.982,218.211z"/>
</g>
<rect x="98.981" y="216.462" fill="#FFFFFF" stroke="#FFFFFF" stroke-width="10" stroke-miterlimit="10" width="34" height="41.083"/>
</svg>
