<?xml version="1.0" encoding="iso-8859-1"?>
<!-- Generator: Adobe Illustrator 16.0.0, SVG Export Plug-In . SVG Version: 6.00 Build 0)  -->
<!DOCTYPE svg PUBLIC "-//W3C//DTD SVG 1.1//EN" "http://www.w3.org/Graphics/SVG/1.1/DTD/svg11.dtd">
<svg version="1.1" xmlns="http://www.w3.org/2000/svg" xmlns:xlink="http://www.w3.org/1999/xlink" x="0px" y="0px" width="361px"
	 height="361px" viewBox="0 0 361 361" style="enable-background:new 0 0 361 361;" xml:space="preserve">
<g id="temp_x5F_soil">
	<g>
		<path style="fill:none;stroke:#FFFFFF;stroke-width:10;stroke-miterlimit:10;" d="M135.5,234.416c0,3.06-2.687,5.54-6,5.54h-22
			c-3.313,0-6-2.48-6-5.54V80.83c0-3.06,2.687-5.54,6-5.54h22c3.313,0,6,2.48,6,5.54V234.416z"/>
		<path style="fill:#FFFFFF;stroke:#FFFFFF;stroke-width:10;stroke-miterlimit:10;" d="M144.5,280.623c0,3.313-2.106,6-4.704,6
			H97.204c-2.598,0-4.704-2.687-4.704-6v-34.666c0-3.314,2.106-6,4.704-6h42.592c2.598,0,4.704,2.686,4.704,6V280.623z"/>
		<g>
			<g>
				<path style="fill:#FFFFFF;" d="M148.5,91.29c6,0,12,0,18,0c6.449,0,6.449-10,0-10c-6,0-12,0-18,0
					C142.051,81.29,142.051,91.29,148.5,91.29L148.5,91.29z"/>
			</g>
		</g>
		<g>
			<g>
				<path style="fill:#FFFFFF;" d="M148.5,131.29c6,0,12,0,18,0c6.449,0,6.449-10,0-10c-6,0-12,0-18,0
					C142.051,121.29,142.051,131.29,148.5,131.29L148.5,131.29z"/>
			</g>
		</g>
		<g>
			<g>
				<path style="fill:#FFFFFF;" d="M148.5,172.29c6,0,12,0,18,0c6.449,0,6.449-10,0-10c-6,0-12,0-18,0
					C142.051,162.29,142.051,172.29,148.5,172.29L148.5,172.29z"/>
			</g>
		</g>
		<g>
			<g>
				<path style="fill:#FFFFFF;" d="M148.5,215.289c6,0,12,0,18,0c6.449,0,6.449-10,0-10c-6,0-12,0-18,0
					C142.051,205.289,142.051,215.289,148.5,215.289L148.5,215.289z"/>
			</g>
		</g>
		
			<rect x="101.499" y="193.118" style="fill:#FFFFFF;stroke:#FFFFFF;stroke-width:10;stroke-miterlimit:10;" width="34" height="62.505"/>
	</g>
	<g>
		<g>
			<g>
				<path style="fill:#FFFFFF;" d="M288.503,276.015c-2.337,0-4.674,0-7.011,0c-4.514,0-4.514,7,0,7c2.337,0,4.674,0,7.011,0
					C293.017,283.015,293.017,276.015,288.503,276.015L288.503,276.015z"/>
			</g>
		</g>
		<g>
			<g>
				<path style="fill:#FFFFFF;" d="M261.982,273.015c-2.581,0-5.161,0-7.742,0c-4.514,0-4.514,7,0,7c2.581,0,5.161,0,7.742,0
					C266.496,280.015,266.496,273.015,261.982,273.015L261.982,273.015z"/>
			</g>
		</g>
		<g>
			<g>
				<path style="fill:#FFFFFF;" d="M265.418,262.015c-5.083,0-10.167,0-15.25,0c-4.514,0-4.514,7,0,7c5.083,0,10.167,0,15.25,0
					C269.932,269.015,269.932,262.015,265.418,262.015L265.418,262.015z"/>
			</g>
		</g>
		<g>
			<g>
				<path style="fill:#FFFFFF;" d="M240.184,284.911c-2,0-4,0-6,0c-1.908,0-3.5,1.592-3.5,3.5s1.592,3.5,3.5,3.5c2,0,4,0,6,0
					c1.908,0,3.5-1.592,3.5-3.5S242.092,284.911,240.184,284.911L240.184,284.911z"/>
			</g>
		</g>
		<g>
			<g>
				<path style="fill:#FFFFFF;" d="M285.67,266.078c-0.667,0-1.333,0-2,0c-1.908,0-3.5,1.592-3.5,3.5s1.592,3.5,3.5,3.5
					c0.667,0,1.333,0,2,0c1.908,0,3.5-1.592,3.5-3.5S287.578,266.078,285.67,266.078L285.67,266.078z"/>
			</g>
		</g>
		<g>
			<g>
				<path style="fill:#FFFFFF;" d="M268.668,283.402c0.667,0,1.333,0,2,0c1.908,0,3.5-1.592,3.5-3.5s-1.592-3.5-3.5-3.5
					c-0.667,0-1.333,0-2,0c-1.908,0-3.5,1.592-3.5,3.5S266.76,283.402,268.668,283.402L268.668,283.402z"/>
			</g>
		</g>
		<g>
			<g>
				<path style="fill:#FFFFFF;" d="M184.088,291.911c2,0,4,0,6,0c1.908,0,3.5-1.592,3.5-3.5s-1.592-3.5-3.5-3.5c-2,0-4,0-6,0
					c-1.908,0-3.5,1.592-3.5,3.5S182.18,291.911,184.088,291.911L184.088,291.911z"/>
			</g>
		</g>
		<g>
			<g>
				<path style="fill:#FFFFFF;" d="M274.42,271.015c1.833,0,3.667,0,5.5,0c1.908,0,3.5-1.592,3.5-3.5s-1.592-3.5-3.5-3.5
					c-1.833,0-3.667,0-5.5,0c-1.908,0-3.5,1.592-3.5,3.5S272.512,271.015,274.42,271.015L274.42,271.015z"/>
			</g>
		</g>
		<g>
			<g>
				<path style="fill:#FFFFFF;" d="M193.752,260.078c-3,0-6,0-9,0c-4.514,0-4.514,7,0,7c3,0,6,0,9,0
					C198.266,267.078,198.266,260.078,193.752,260.078L193.752,260.078z"/>
			</g>
		</g>
		<g>
			<g>
				<path style="fill:#FFFFFF;" d="M226.371,279.042c3,0,6,0,9,0c4.514,0,4.514-7,0-7c-3,0-6,0-9,0
					C221.857,272.042,221.857,279.042,226.371,279.042L226.371,279.042z"/>
			</g>
		</g>
		<g>
			<g>
				<path style="fill:#FFFFFF;" d="M209.516,267.674c5.333,0,10.667,0,16,0c4.514,0,4.514-7,0-7c-5.333,0-10.667,0-16,0
					C205.002,260.674,205.002,267.674,209.516,267.674L209.516,267.674z"/>
			</g>
		</g>
		<g>
			<g>
				<path style="fill:#FFFFFF;" d="M209.85,278.911c2,0,4,0,6,0c1.908,0,3.5-1.592,3.5-3.5s-1.592-3.5-3.5-3.5c-2,0-4,0-6,0
					c-1.908,0-3.5,1.592-3.5,3.5S207.941,278.911,209.85,278.911L209.85,278.911z"/>
			</g>
		</g>
		<g>
			<g>
				<path style="fill:#FFFFFF;" d="M223.184,272.911c0.667,0,1.333,0,2,0c1.908,0,3.5-1.592,3.5-3.5s-1.592-3.5-3.5-3.5
					c-0.667,0-1.333,0-2,0c-1.908,0-3.5,1.592-3.5,3.5S221.275,272.911,223.184,272.911L223.184,272.911z"/>
			</g>
		</g>
		<g>
			<g>
				<path style="fill:#FFFFFF;" d="M217.35,284.911c-2,0-4,0-6,0c-1.908,0-3.5,1.592-3.5,3.5s1.592,3.5,3.5,3.5c2,0,4,0,6,0
					c1.908,0,3.5-1.592,3.5-3.5S219.258,284.911,217.35,284.911L217.35,284.911z"/>
			</g>
		</g>
		<g>
			<g>
				<path style="fill:#FFFFFF;" d="M276.434,284.744c-5.083,0-10.167,0-15.25,0c-4.514,0-4.514,7,0,7c5.083,0,10.167,0,15.25,0
					C280.947,291.744,280.947,284.744,276.434,284.744L276.434,284.744z"/>
			</g>
		</g>
		<g>
			<g>
				<path style="fill:#FFFFFF;" d="M237.684,264.911c-2,0-4,0-6,0c-1.908,0-3.5,1.592-3.5,3.5s1.592,3.5,3.5,3.5c2,0,4,0,6,0
					c1.908,0,3.5-1.592,3.5-3.5S239.592,264.911,237.684,264.911L237.684,264.911z"/>
			</g>
		</g>
		<g>
			<g>
				<path style="fill:#FFFFFF;" d="M193.002,269.709c-3,0-6.001,0-9.001,0c-4.514,0-4.514,7,0,7c3,0,6.001,0,9.001,0
					C197.516,276.709,197.516,269.709,193.002,269.709L193.002,269.709z"/>
			</g>
		</g>
		<g>
			<g>
				<path style="fill:#FFFFFF;" d="M202.668,284.945c-5.333,0-10.667,0-16,0c-4.514,0-4.514,7,0,7c5.333,0,10.667,0,16,0
					C207.182,291.945,207.182,284.945,202.668,284.945L202.668,284.945z"/>
			</g>
		</g>
		<g>
			<g>
				<path style="fill:#FFFFFF;" d="M207.35,276.911c-2,0-4,0-6,0c-1.908,0-3.5,1.592-3.5,3.5s1.592,3.5,3.5,3.5c2,0,4,0,6,0
					c1.908,0,3.5-1.592,3.5-3.5S209.258,276.911,207.35,276.911L207.35,276.911z"/>
			</g>
		</g>
		<g>
			<g>
				<path style="fill:#FFFFFF;" d="M189.001,280.709c-0.667,0-1.333,0-2,0c-1.908,0-3.5,1.592-3.5,3.5s1.592,3.5,3.5,3.5
					c0.667,0,1.333,0,2,0c1.908,0,3.5-1.592,3.5-3.5S190.909,280.709,189.001,280.709L189.001,280.709z"/>
			</g>
		</g>
		<g>
			<g>
				<path style="fill:#FFFFFF;" d="M194.668,271.709c3.722,0,7.444,0,11.166,0c4.514,0,4.514-7,0-7c-3.722,0-7.444,0-11.166,0
					C190.154,264.709,190.154,271.709,194.668,271.709L194.668,271.709z"/>
			</g>
		</g>
		<g>
			<g>
				<path style="fill:#FFFFFF;" d="M215.35,272.911c-5.333,0-10.667,0-16,0c-4.514,0-4.514,7,0,7c5.333,0,10.667,0,16,0
					C219.863,279.911,219.863,272.911,215.35,272.911L215.35,272.911z"/>
			</g>
		</g>
		<g>
			<g>
				<path style="fill:#FFFFFF;" d="M244.24,282.328c3,0,6.001,0,9.001,0c4.514,0,4.514-7,0-7c-3,0-6.001,0-9.001,0
					C239.727,275.328,239.727,282.328,244.24,282.328L244.24,282.328z"/>
			</g>
		</g>
		<g>
			<g>
				<path style="fill:#FFFFFF;" d="M238.616,267.661c1.083,0,2.167,0,3.25,0c1.908,0,3.5-1.592,3.5-3.5s-1.592-3.5-3.5-3.5
					c-1.083,0-2.167,0-3.25,0c-1.908,0-3.5,1.592-3.5,3.5S236.708,267.661,238.616,267.661L238.616,267.661z"/>
			</g>
		</g>
		<g>
			<g>
				<path style="fill:#FFFFFF;" d="M262.668,272.292c2,0,4,0,6,0c1.908,0,3.5-1.592,3.5-3.5s-1.592-3.5-3.5-3.5c-2,0-4,0-6,0
					c-1.908,0-3.5,1.592-3.5,3.5S260.76,272.292,262.668,272.292L262.668,272.292z"/>
			</g>
		</g>
		<g>
			<g>
				<path style="fill:#FFFFFF;" d="M274.992,288.16c1.833,0,3.667,0,5.5,0c1.908,0,3.5-1.592,3.5-3.5s-1.592-3.5-3.5-3.5
					c-1.833,0-3.667,0-5.5,0c-1.908,0-3.5,1.592-3.5,3.5S273.084,288.16,274.992,288.16L274.992,288.16z"/>
			</g>
		</g>
		<g>
			<g>
				<path style="fill:#FFFFFF;" d="M219.17,289.042c0.667,0,1.333,0,2,0c1.908,0,3.5-1.592,3.5-3.5s-1.592-3.5-3.5-3.5
					c-0.667,0-1.333,0-2,0c-1.908,0-3.5,1.592-3.5,3.5S217.262,289.042,219.17,289.042L219.17,289.042z"/>
			</g>
		</g>
		<g>
			<g>
				<path style="fill:#FFFFFF;" d="M215.42,278.848c0.667,0,1.333,0,2,0c1.908,0,3.5-1.592,3.5-3.5s-1.592-3.5-3.5-3.5
					c-0.667,0-1.333,0-2,0c-1.908,0-3.5,1.592-3.5,3.5S213.512,278.848,215.42,278.848L215.42,278.848z"/>
			</g>
		</g>
		<g>
			<g>
				<path style="fill:#FFFFFF;" d="M256.991,284.744c-1.834,0-3.667,0-5.501,0c-1.908,0-3.5,1.592-3.5,3.5s1.592,3.5,3.5,3.5
					c1.834,0,3.667,0,5.501,0c1.908,0,3.5-1.592,3.5-3.5S258.899,284.744,256.991,284.744L256.991,284.744z"/>
			</g>
		</g>
		<g>
			<g>
				<path style="fill:#FFFFFF;" d="M288.92,283.792c-0.667,0-1.333,0-2,0c-1.908,0-3.5,1.592-3.5,3.5s1.592,3.5,3.5,3.5
					c0.667,0,1.333,0,2,0c1.908,0,3.5-1.592,3.5-3.5S290.828,283.792,288.92,283.792L288.92,283.792z"/>
			</g>
		</g>
		<g>
			<g>
				<path style="fill:#FFFFFF;" d="M269.67,275.078c-0.667,0-1.333,0-2,0c-1.908,0-3.5,1.592-3.5,3.5s1.592,3.5,3.5,3.5
					c0.667,0,1.333,0,2,0c1.908,0,3.5-1.592,3.5-3.5S271.578,275.078,269.67,275.078L269.67,275.078z"/>
			</g>
		</g>
		<g>
			<g>
				<path style="fill:#FFFFFF;" d="M258.42,280.015c1.833,0,3.667,0,5.5,0c1.908,0,3.5-1.592,3.5-3.5s-1.592-3.5-3.5-3.5
					c-1.833,0-3.667,0-5.5,0c-1.908,0-3.5,1.592-3.5,3.5S256.512,280.015,258.42,280.015L258.42,280.015z"/>
			</g>
		</g>
		<g>
			<g>
				<path style="fill:#FFFFFF;" d="M279.087,267.078c3.277,0,6.556,0,9.833,0c4.514,0,4.514-7,0-7c-3.277,0-6.556,0-9.833,0
					C274.573,260.078,274.573,267.078,279.087,267.078L279.087,267.078z"/>
			</g>
		</g>
		<g>
			<g>
				<path style="fill:#FFFFFF;" d="M221.792,287.709c3.722,0,7.444,0,11.166,0c4.514,0,4.514-7,0-7c-3.722,0-7.444,0-11.166,0
					C217.278,280.709,217.278,287.709,221.792,287.709L221.792,287.709z"/>
			</g>
		</g>
		<g>
			<g>
				<path style="fill:#FFFFFF;" d="M183.873,250.191c2.337,0,4.673,0,7.01,0c4.514,0,4.514-7,0-7c-2.337,0-4.673,0-7.01,0
					C179.359,243.191,179.359,250.191,183.873,250.191L183.873,250.191z"/>
			</g>
		</g>
		<g>
			<g>
				<path style="fill:#FFFFFF;" d="M207.394,247.191c2.58,0,5.161,0,7.741,0c4.514,0,4.514-7,0-7c-2.58,0-5.161,0-7.741,0
					C202.88,240.191,202.88,247.191,207.394,247.191L207.394,247.191z"/>
			</g>
		</g>
		<g>
			<g>
				<path style="fill:#FFFFFF;" d="M203.957,236.191c5.083,0,10.167,0,15.25,0c4.514,0,4.514-7,0-7c-5.083,0-10.167,0-15.25,0
					C199.443,229.191,199.443,236.191,203.957,236.191L203.957,236.191z"/>
			</g>
		</g>
		<g>
			<g>
				<path style="fill:#FFFFFF;" d="M229.191,259.088c2,0,4,0,6,0c1.908,0,3.5-1.592,3.5-3.5s-1.592-3.5-3.5-3.5c-2,0-4,0-6,0
					c-1.908,0-3.5,1.592-3.5,3.5S227.283,259.088,229.191,259.088L229.191,259.088z"/>
			</g>
		</g>
		<g>
			<g>
				<path style="fill:#FFFFFF;" d="M183.705,240.255c0.667,0,1.333,0,2,0c1.908,0,3.5-1.592,3.5-3.5s-1.592-3.5-3.5-3.5
					c-0.667,0-1.333,0-2,0c-1.908,0-3.5,1.592-3.5,3.5S181.797,240.255,183.705,240.255L183.705,240.255z"/>
			</g>
		</g>
		<g>
			<g>
				<path style="fill:#FFFFFF;" d="M200.707,243.58c-0.667,0-1.333,0-2,0c-1.908,0-3.5,1.592-3.5,3.5s1.592,3.5,3.5,3.5
					c0.667,0,1.333,0,2,0c1.908,0,3.5-1.592,3.5-3.5S202.615,243.58,200.707,243.58L200.707,243.58z"/>
			</g>
		</g>
		<g>
			<g>
				<path style="fill:#FFFFFF;" d="M288.287,249.088c-2,0-4,0-6,0c-1.908,0-3.5,1.592-3.5,3.5s1.592,3.5,3.5,3.5c2,0,4,0,6,0
					c1.908,0,3.5-1.592,3.5-3.5S290.195,249.088,288.287,249.088L288.287,249.088z"/>
			</g>
		</g>
		<g>
			<g>
				<path style="fill:#FFFFFF;" d="M194.956,231.191c-1.834,0-3.667,0-5.501,0c-1.908,0-3.5,1.592-3.5,3.5s1.592,3.5,3.5,3.5
					c1.834,0,3.667,0,5.501,0c1.908,0,3.5-1.592,3.5-3.5S196.864,231.191,194.956,231.191L194.956,231.191z"/>
			</g>
		</g>
		<g>
			<g>
				<path style="fill:#FFFFFF;" d="M279.623,234.255c3,0,6.001,0,9.001,0c4.514,0,4.514-7,0-7c-3,0-6.001,0-9.001,0
					C275.109,227.255,275.109,234.255,279.623,234.255L279.623,234.255z"/>
			</g>
		</g>
		<g>
			<g>
				<path style="fill:#FFFFFF;" d="M243.005,239.219c-3,0-6.001,0-9.001,0c-4.514,0-4.514,7,0,7c3,0,6.001,0,9.001,0
					C247.519,246.219,247.519,239.219,243.005,239.219L243.005,239.219z"/>
			</g>
		</g>
		<g>
			<g>
				<path style="fill:#FFFFFF;" d="M259.859,227.852c-5.333,0-10.667,0-16,0c-4.514,0-4.514,7,0,7c5.333,0,10.667,0,16,0
					C264.373,234.852,264.373,227.852,259.859,227.852L259.859,227.852z"/>
			</g>
		</g>
		<g>
			<g>
				<path style="fill:#FFFFFF;" d="M259.525,239.088c-2,0-4,0-6,0c-1.908,0-3.5,1.592-3.5,3.5s1.592,3.5,3.5,3.5c2,0,4,0,6,0
					c1.908,0,3.5-1.592,3.5-3.5S261.434,239.088,259.525,239.088L259.525,239.088z"/>
			</g>
		</g>
		<g>
			<g>
				<path style="fill:#FFFFFF;" d="M246.191,233.088c-0.667,0-1.333,0-2,0c-1.908,0-3.5,1.592-3.5,3.5s1.592,3.5,3.5,3.5
					c0.667,0,1.333,0,2,0c1.908,0,3.5-1.592,3.5-3.5S248.1,233.088,246.191,233.088L246.191,233.088z"/>
			</g>
		</g>
		<g>
			<g>
				<path style="fill:#FFFFFF;" d="M252.025,259.088c2,0,4,0,6,0c1.908,0,3.5-1.592,3.5-3.5s-1.592-3.5-3.5-3.5c-2,0-4,0-6,0
					c-1.908,0-3.5,1.592-3.5,3.5S250.117,259.088,252.025,259.088L252.025,259.088z"/>
			</g>
		</g>
		<g>
			<g>
				<path style="fill:#FFFFFF;" d="M192.941,260.921c5.083,0,10.167,0,15.25,0c4.514,0,4.514-7,0-7c-5.083,0-10.167,0-15.25,0
					C188.428,253.921,188.428,260.921,192.941,260.921L192.941,260.921z"/>
			</g>
		</g>
		<g>
			<g>
				<path style="fill:#FFFFFF;" d="M231.692,239.088c2,0,4,0,6,0c1.908,0,3.5-1.592,3.5-3.5s-1.592-3.5-3.5-3.5c-2,0-4,0-6,0
					c-1.908,0-3.5,1.592-3.5,3.5S229.784,239.088,231.692,239.088L231.692,239.088z"/>
			</g>
		</g>
		<g>
			<g>
				<path style="fill:#FFFFFF;" d="M279.374,243.886c3,0,6.001,0,9.001,0c4.514,0,4.514-7,0-7c-3,0-6.001,0-9.001,0
					C274.86,236.886,274.86,243.886,279.374,243.886L279.374,243.886z"/>
			</g>
		</g>
		<g>
			<g>
				<path style="fill:#FFFFFF;" d="M265.707,259.123c5.333,0,10.667,0,16,0c4.514,0,4.514-7,0-7c-5.333,0-10.667,0-16,0
					C261.193,252.123,261.193,259.123,265.707,259.123L265.707,259.123z"/>
			</g>
		</g>
		<g>
			<g>
				<path style="fill:#FFFFFF;" d="M262.025,251.088c2,0,4,0,6,0c1.908,0,3.5-1.592,3.5-3.5s-1.592-3.5-3.5-3.5c-2,0-4,0-6,0
					c-1.908,0-3.5,1.592-3.5,3.5S260.117,251.088,262.025,251.088L262.025,251.088z"/>
			</g>
		</g>
		<g>
			<g>
				<path style="fill:#FFFFFF;" d="M280.375,254.886c0.667,0,1.333,0,2,0c1.908,0,3.5-1.592,3.5-3.5s-1.592-3.5-3.5-3.5
					c-0.667,0-1.333,0-2,0c-1.908,0-3.5,1.592-3.5,3.5S278.467,254.886,280.375,254.886L280.375,254.886z"/>
			</g>
		</g>
		<g>
			<g>
				<path style="fill:#FFFFFF;" d="M274.707,229.886c-3.722,0-7.444,0-11.166,0c-4.514,0-4.514,7,0,7c3.722,0,7.444,0,11.166,0
					C279.221,236.886,279.221,229.886,274.707,229.886L274.707,229.886z"/>
			</g>
		</g>
		<g>
			<g>
				<path style="fill:#FFFFFF;" d="M254.025,247.088c5.333,0,10.667,0,16,0c4.514,0,4.514-7,0-7c-5.333,0-10.667,0-16,0
					C249.512,240.088,249.512,247.088,254.025,247.088L254.025,247.088z"/>
			</g>
		</g>
		<g>
			<g>
				<path style="fill:#FFFFFF;" d="M225.135,242.504c-3,0-6,0-9,0c-4.514,0-4.514,7,0,7c3,0,6,0,9,0
					C229.648,249.504,229.648,242.504,225.135,242.504L225.135,242.504z"/>
			</g>
		</g>
		<g>
			<g>
				<path style="fill:#FFFFFF;" d="M230.76,227.838c-1.083,0-2.167,0-3.25,0c-1.908,0-3.5,1.592-3.5,3.5s1.592,3.5,3.5,3.5
					c1.083,0,2.167,0,3.25,0c1.908,0,3.5-1.592,3.5-3.5S232.668,227.838,230.76,227.838L230.76,227.838z"/>
			</g>
		</g>
		<g>
			<g>
				<path style="fill:#FFFFFF;" d="M206.707,232.469c-2,0-4,0-6,0c-1.908,0-3.5,1.592-3.5,3.5s1.592,3.5,3.5,3.5c2,0,4,0,6,0
					c1.908,0,3.5-1.592,3.5-3.5S208.615,232.469,206.707,232.469L206.707,232.469z"/>
			</g>
		</g>
		<g>
			<g>
				<path style="fill:#FFFFFF;" d="M194.383,248.338c-1.833,0-3.667,0-5.5,0c-1.908,0-3.5,1.592-3.5,3.5s1.592,3.5,3.5,3.5
					c1.833,0,3.667,0,5.5,0c1.908,0,3.5-1.592,3.5-3.5S196.291,248.338,194.383,248.338L194.383,248.338z"/>
			</g>
		</g>
		<g>
			<g>
				<path style="fill:#FFFFFF;" d="M250.206,249.219c-0.667,0-1.333,0-2,0c-1.908,0-3.5,1.592-3.5,3.5s1.592,3.5,3.5,3.5
					c0.667,0,1.333,0,2,0c1.908,0,3.5-1.592,3.5-3.5S252.114,249.219,250.206,249.219L250.206,249.219z"/>
			</g>
		</g>
		<g>
			<g>
				<path style="fill:#FFFFFF;" d="M253.956,239.024c-0.667,0-1.333,0-2,0c-1.908,0-3.5,1.592-3.5,3.5s1.592,3.5,3.5,3.5
					c0.667,0,1.333,0,2,0c1.908,0,3.5-1.592,3.5-3.5S255.864,239.024,253.956,239.024L253.956,239.024z"/>
			</g>
		</g>
		<g>
			<g>
				<path style="fill:#FFFFFF;" d="M212.385,258.921c1.833,0,3.667,0,5.5,0c1.908,0,3.5-1.592,3.5-3.5s-1.592-3.5-3.5-3.5
					c-1.833,0-3.667,0-5.5,0c-1.908,0-3.5,1.592-3.5,3.5S210.477,258.921,212.385,258.921L212.385,258.921z"/>
			</g>
		</g>
		<g>
			<g>
				<path style="fill:#FFFFFF;" d="M184.455,257.969c0.667,0,1.333,0,2,0c1.908,0,3.5-1.592,3.5-3.5s-1.592-3.5-3.5-3.5
					c-0.667,0-1.333,0-2,0c-1.908,0-3.5,1.592-3.5,3.5S182.547,257.969,184.455,257.969L184.455,257.969z"/>
			</g>
		</g>
		<g>
			<g>
				<path style="fill:#FFFFFF;" d="M199.705,249.255c0.667,0,1.333,0,2,0c1.908,0,3.5-1.592,3.5-3.5s-1.592-3.5-3.5-3.5
					c-0.667,0-1.333,0-2,0c-1.908,0-3.5,1.592-3.5,3.5S197.797,249.255,199.705,249.255L199.705,249.255z"/>
			</g>
		</g>
		<g>
			<g>
				<path style="fill:#FFFFFF;" d="M210.956,238.191c-1.834,0-3.667,0-5.501,0c-1.908,0-3.5,1.592-3.5,3.5s1.592,3.5,3.5,3.5
					c1.834,0,3.667,0,5.501,0c1.908,0,3.5-1.592,3.5-3.5S212.864,238.191,210.956,238.191L210.956,238.191z"/>
			</g>
		</g>
		<g>
			<g>
				<path style="fill:#FFFFFF;" d="M193.289,227.255c-3.278,0-6.556,0-9.834,0c-4.514,0-4.514,7,0,7c3.278,0,6.556,0,9.834,0
					C197.803,234.255,197.803,227.255,193.289,227.255L193.289,227.255z"/>
			</g>
		</g>
		<g>
			<g>
				<path style="fill:#FFFFFF;" d="M247.584,247.886c-3.722,0-7.444,0-11.166,0c-4.514,0-4.514,7,0,7c3.722,0,7.444,0,11.166,0
					C252.098,254.886,252.098,247.886,247.584,247.886L247.584,247.886z"/>
			</g>
		</g>
	</g>
	<g>
		<g>
			<path style="fill:#FFFFFF;" d="M182.088,230.167c36.179,0,72.357,0,108.536,0c1.935,0,1.935-3,0-3c-36.179,0-72.357,0-108.536,0
				C180.153,227.167,180.153,230.167,182.088,230.167L182.088,230.167z"/>
		</g>
	</g>
	<g>
		<g>
			<g>
				<path style="fill:#FFFFFF;" d="M208.718,227.236c0.063-15.673,0.431-42.836,21.81-43.222c1.933-0.035,1.936-3.035,0-3
					c-23.484,0.424-24.739,28.599-24.81,46.222C205.71,229.171,208.71,229.171,208.718,227.236L208.718,227.236z"/>
			</g>
		</g>
		<g>
			<g>
				<path style="fill:#FFFFFF;" d="M203.281,227.236c0.126-18.041,4.718-42.843,27.246-43.222c1.933-0.032,1.936-3.033,0-3
					c-24.365,0.409-30.107,26.354-30.246,46.222C200.268,229.172,203.268,229.17,203.281,227.236L203.281,227.236z"/>
			</g>
		</g>
		<g>
			<g>
				<path style="fill:#FFFFFF;" d="M220.391,227.236c0.016-7.766-0.271-15.921,1.438-23.552c0.762-3.402,2.656-5.781,4.748-8.457
					c1.177-1.505-0.931-3.645-2.121-2.121c-2.146,2.743-4.153,5.209-5.206,8.593c-2.482,7.985-1.843,17.32-1.858,25.537
					C217.387,229.171,220.387,229.171,220.391,227.236L220.391,227.236z"/>
			</g>
		</g>
		<g>
			<g>
				<path style="fill:#FFFFFF;" d="M216.359,227.236c0.028-7.726-0.24-16.176,2.533-23.526c1.416-3.751,4.781-5.968,7.684-8.482
					c1.465-1.269-0.667-3.382-2.121-2.121c-3.118,2.701-6.256,4.996-8.047,8.837c-3.516,7.542-3.02,17.229-3.049,25.293
					C213.353,229.171,216.353,229.171,216.359,227.236L216.359,227.236z"/>
			</g>
		</g>
		<g>
			<g>
				<path style="fill:#FFFFFF;" d="M195.998,227.236c-0.046-7.583-0.018-16.122-3.419-23.114c-0.652-1.341-1.617-2.561-2.749-3.525
					c-0.311-0.265-1.609-0.977-1.646-1.382c-0.17-1.911-3.171-1.928-3,0c0.199,2.249,2.109,2.951,3.498,4.435
					c5.123,5.474,4.275,16.855,4.315,23.587C193.01,229.17,196.01,229.172,195.998,227.236L195.998,227.236z"/>
			</g>
		</g>
		<g>
			<g>
				<path style="fill:#FFFFFF;" d="M201.382,226.838c-1.05-6.593-1.379-15.021-5.013-20.89c-1.971-3.183-6.063-5.089-8.624-7.794
					c-1.332-1.407-3.45,0.718-2.121,2.121c2.401,2.536,5.647,4.241,7.91,6.84c1.318,1.513,1.764,3.878,2.24,5.754
					c1.231,4.842,1.93,9.839,2.715,14.766C198.793,229.542,201.684,228.729,201.382,226.838L201.382,226.838z"/>
			</g>
		</g>
		<g>
			<g>
				<path style="fill:#FFFFFF;" d="M274.576,227.186c0.022-6.912-0.262-14.395,1.936-21.048c1.12-3.392,3.961-5.377,6.561-7.588
					c1.476-1.255-0.657-3.366-2.121-2.121c-2.797,2.379-5.485,4.467-6.953,7.943c-2.916,6.906-2.398,15.518-2.422,22.813
					C271.57,229.12,274.57,229.12,274.576,227.186L274.576,227.186z"/>
			</g>
		</g>
		<g>
			<g>
				<path style="fill:#FFFFFF;" d="M269.139,227.186c0.04-6.861-0.186-14.869,3.442-20.984c2.181-3.675,6.654-5.38,10.188-7.417
					c1.676-0.965,0.165-3.558-1.514-2.59c-3.98,2.294-8.076,4.14-10.883,7.92c-4.566,6.149-4.191,15.894-4.233,23.071
					C266.127,229.121,269.127,229.119,269.139,227.186L269.139,227.186z"/>
			</g>
		</g>
		<g>
			<g>
				<path style="fill:#FFFFFF;" d="M283.816,227.186c0.047-5.998-0.38-14.873,4.124-19.651c1.392-1.477,3.436-1.81,3.69-4.109
					c0.213-1.922-2.79-1.901-3,0c0.01-0.089-3.619,2.893-4.177,3.699c-3.771,5.45-3.589,13.804-3.638,20.062
					C280.802,229.121,283.802,229.119,283.816,227.186L283.816,227.186z"/>
			</g>
		</g>
		<g>
			<g>
				<path style="fill:#FFFFFF;" d="M278.326,227.584c0.946-5.036,1.286-12.857,4.724-17.049c2.021-2.465,5.733-3.897,8.142-6.05
					c1.445-1.292-0.684-3.406-2.121-2.121c-2.565,2.292-6.219,3.705-8.402,6.367c-3.766,4.592-4.197,12.535-5.234,18.056
					C275.078,228.678,277.969,229.484,278.326,227.584L278.326,227.584z"/>
			</g>
		</g>
		<g>
			<g>
				<path style="fill:#FFFFFF;" d="M265.1,227.287c-0.036-4.676-0.104-9.962-2.447-14.168c-0.521-0.935-1.27-1.74-2.124-2.375
					c-0.278-0.206-0.565-0.395-0.858-0.578c-0.456-0.286-0.184-0.293-0.127,0.219c-0.21-1.901-3.212-1.922-3,0
					c0.188,1.703,1.418,2.044,2.553,3.04c3.402,2.984,2.973,9.896,3.004,13.862C262.114,229.221,265.114,229.223,265.1,227.287
					L265.1,227.287z"/>
			</g>
		</g>
		<g>
			<g>
				<path style="fill:#FFFFFF;" d="M268.914,226.889c-0.753-4.009-1.116-9.289-3.6-12.731c-1.508-2.091-4.309-3.133-6.211-4.833
					c-1.438-1.285-3.566,0.829-2.121,2.121c1.727,1.543,3.95,2.526,5.6,4.098c0.853,0.813,1.179,2.14,1.505,3.223
					c0.876,2.906,1.375,5.943,1.935,8.92C266.378,229.586,269.27,228.779,268.914,226.889L268.914,226.889z"/>
			</g>
		</g>
		<g>
			<g>
				<path style="fill:#FFFFFF;" d="M250.574,227.8c-0.021-6.788,0.339-14.309-1.911-20.838c-1.064-3.092-3.337-5.134-5.603-7.355
					c-1.382-1.355-3.504,0.765-2.121,2.121c2.081,2.041,4.056,3.779,5.032,6.616c2.071,6.013,1.583,13.213,1.603,19.456
					C247.58,229.734,250.58,229.734,250.574,227.8L250.574,227.8z"/>
			</g>
		</g>
		<g>
			<g>
				<path style="fill:#FFFFFF;" d="M254.879,227.8c-0.038-6.844,0.123-14.679-3.241-20.888c-1.917-3.539-5.665-5.403-8.881-7.54
					c-1.616-1.074-3.117,1.525-1.514,2.59c2.862,1.902,5.955,3.442,7.804,6.464c3.309,5.406,2.799,13.333,2.832,19.374
					C251.89,229.733,254.89,229.734,254.879,227.8L254.879,227.8z"/>
			</g>
		</g>
		<g>
			<g>
				<path style="fill:#FFFFFF;" d="M239.895,227.793c-0.042-3.811-0.375-7.962-2.924-10.998c-0.622-0.741-1.483-1.313-2.35-1.726
					c-0.273-0.131-0.556-0.241-0.834-0.362c-0.676-0.295-0.063,0.052-0.04,0.199c-0.304-1.906-3.194-1.095-2.893,0.797
					c0.23,1.444,1.997,1.752,3.043,2.381c2.981,1.793,2.965,6.757,2.997,9.709C236.916,229.727,239.916,229.729,239.895,227.793
					L239.895,227.793z"/>
			</g>
		</g>
		<g>
			<g>
				<path style="fill:#FFFFFF;" d="M244.081,227.395c-0.883-3.168-1.622-7.311-4.082-9.727c-1.792-1.76-4.812-2.374-6.941-3.658
					c-1.661-1.002-3.168,1.593-1.514,2.59c1.938,1.17,4.154,1.797,6.063,2.978c2.322,1.437,2.937,6.301,3.582,8.614
					C241.707,230.053,244.602,229.262,244.081,227.395L244.081,227.395z"/>
			</g>
		</g>
	</g>
</g>
<g id="Ebene_1">
</g>
</svg>
