<?xml version="1.0" encoding="iso-8859-1"?>
<!-- Generator: Adobe Illustrator 16.0.0, SVG Export Plug-In . SVG Version: 6.00 Build 0)  -->
<!DOCTYPE svg PUBLIC "-//W3C//DTD SVG 1.1//EN" "http://www.w3.org/Graphics/SVG/1.1/DTD/svg11.dtd">
<svg version="1.1" xmlns="http://www.w3.org/2000/svg" xmlns:xlink="http://www.w3.org/1999/xlink" x="0px" y="0px" width="361px"
	 height="361px" viewBox="0 0 361 361" style="enable-background:new 0 0 361 361;" xml:space="preserve">
<g id="temp_x5F_frost">
	<g>
		<g>
			<g>
				<path style="fill:#FFFFFF;" d="M226.951,186.014c0,14.32,0,28.641,0,42.961c0,6.448,10,6.448,10,0c0-14.32,0-28.641,0-42.961
					C236.951,179.565,226.951,179.565,226.951,186.014L226.951,186.014z"/>
			</g>
		</g>
		<g>
			<g>
				<path style="fill:#FFFFFF;" d="M216.926,194.655c4.175,2.41,8.35,4.821,12.524,7.231c5.595,3.23,10.628-5.412,5.047-8.635
					c-4.175-2.41-8.35-4.821-12.524-7.231C216.378,182.79,211.345,191.433,216.926,194.655L216.926,194.655z"/>
			</g>
		</g>
		<g>
			<g>
				<path style="fill:#FFFFFF;" d="M241.785,186.021c-4.175,2.41-8.35,4.821-12.523,7.231c-5.581,3.223-0.548,11.865,5.047,8.635
					c4.175-2.41,8.35-4.821,12.523-7.231C252.413,191.433,247.38,182.79,241.785,186.021L241.785,186.021z"/>
			</g>
		</g>
	</g>
	<g>
		<g>
			<g>
				<path style="fill:#FFFFFF;" d="M192.072,211.316c12.402,7.16,24.804,14.321,37.206,21.481c5.595,3.23,10.628-5.412,5.047-8.635
					c-12.401-7.16-24.804-14.321-37.206-21.481C191.524,199.451,186.491,208.094,192.072,211.316L192.072,211.316z"/>
			</g>
		</g>
		<g>
			<g>
				<path style="fill:#FFFFFF;" d="M194.614,224.306c4.175-2.41,8.35-4.821,12.524-7.231c5.581-3.223,0.548-11.865-5.047-8.635
					c-4.175,2.41-8.35,4.821-12.524,7.231C183.986,218.894,189.02,227.536,194.614,224.306L194.614,224.306z"/>
			</g>
		</g>
		<g>
			<g>
				<path style="fill:#FFFFFF;" d="M199.521,198.459c0,4.82,0,9.642,0,14.462c0,6.448,10,6.448,10,0c0-4.82,0-9.642,0-14.462
					C209.521,192.011,199.521,192.011,199.521,198.459L199.521,198.459z"/>
			</g>
		</g>
	</g>
	<g>
		<g>
			<g>
				<path style="fill:#FFFFFF;" d="M197.214,254.249c12.402-7.16,24.804-14.321,37.206-21.481c5.581-3.223,0.548-11.865-5.047-8.635
					c-12.402,7.16-24.805,14.321-37.206,21.481C186.586,248.837,191.619,257.479,197.214,254.249L197.214,254.249z"/>
			</g>
		</g>
		<g>
			<g>
				<path style="fill:#FFFFFF;" d="M209.687,258.594c0-4.82,0-9.641,0-14.461c0-6.448-10-6.448-10,0c0,4.82,0,9.641,0,14.461
					C199.687,265.042,209.687,265.042,209.687,258.594L209.687,258.594z"/>
			</g>
		</g>
		<g>
			<g>
				<path style="fill:#FFFFFF;" d="M189.732,241.382c4.175,2.411,8.35,4.821,12.525,7.232c5.595,3.23,10.628-5.412,5.047-8.635
					c-4.175-2.411-8.35-4.821-12.525-7.232C189.185,229.517,184.151,238.159,189.732,241.382L189.732,241.382z"/>
			</g>
		</g>
	</g>
	<g>
		<g>
			<g>
				<path style="fill:#FFFFFF;" d="M236.902,271.566c0-14.32,0-28.641,0-42.961c0-6.448-10-6.448-10,0c0,14.32,0,28.641,0,42.961
					C226.902,278.015,236.902,278.015,236.902,271.566L236.902,271.566z"/>
			</g>
		</g>
		<g>
			<g>
				<path style="fill:#FFFFFF;" d="M246.928,262.925c-4.175-2.411-8.35-4.821-12.525-7.232c-5.595-3.23-10.628,5.412-5.047,8.635
					c4.175,2.411,8.35,4.821,12.525,7.232C247.476,274.79,252.509,266.147,246.928,262.925L246.928,262.925z"/>
			</g>
		</g>
		<g>
			<g>
				<path style="fill:#FFFFFF;" d="M222.067,271.56c4.175-2.411,8.35-4.821,12.524-7.232c5.581-3.223,0.548-11.865-5.047-8.635
					c-4.175,2.411-8.35,4.821-12.524,7.232C211.439,266.147,216.473,274.79,222.067,271.56L222.067,271.56z"/>
			</g>
		</g>
	</g>
	<g>
		<g>
			<g>
				<path style="fill:#FFFFFF;" d="M271.78,245.937c-12.401-7.16-24.804-14.321-37.206-21.481c-5.595-3.23-10.628,5.412-5.047,8.635
					c12.402,7.16,24.804,14.321,37.206,21.481C272.328,257.802,277.361,249.159,271.78,245.937L271.78,245.937z"/>
			</g>
		</g>
		<g>
			<g>
				<path style="fill:#FFFFFF;" d="M269.238,232.947c-4.175,2.41-8.35,4.821-12.523,7.231c-5.581,3.223-0.548,11.865,5.047,8.635
					c4.175-2.41,8.35-4.821,12.523-7.231C279.866,238.359,274.833,229.717,269.238,232.947L269.238,232.947z"/>
			</g>
		</g>
		<g>
			<g>
				<path style="fill:#FFFFFF;" d="M264.332,258.794c0-4.82,0-9.642,0-14.462c0-6.448-10-6.448-10,0c0,4.82,0,9.642,0,14.462
					C254.332,265.242,264.332,265.242,264.332,258.794L264.332,258.794z"/>
			</g>
		</g>
	</g>
	<g>
		<g>
			<g>
				<path style="fill:#FFFFFF;" d="M266.639,203.005c-12.402,7.16-24.804,14.32-37.205,21.48c-5.581,3.223-0.548,11.865,5.047,8.635
					c12.402-7.16,24.804-14.32,37.205-21.48C277.267,208.417,272.233,199.774,266.639,203.005L266.639,203.005z"/>
			</g>
		</g>
		<g>
			<g>
				<path style="fill:#FFFFFF;" d="M254.166,198.658c0,4.82,0,9.642,0,14.462c0,6.448,10,6.448,10,0c0-4.82,0-9.642,0-14.462
					C264.166,192.21,254.166,192.21,254.166,198.658L254.166,198.658z"/>
			</g>
		</g>
		<g>
			<g>
				<path style="fill:#FFFFFF;" d="M274.12,215.87c-4.175-2.41-8.35-4.821-12.524-7.231c-5.595-3.23-10.628,5.412-5.047,8.635
					c4.175,2.41,8.35,4.821,12.524,7.231C274.668,227.735,279.701,219.093,274.12,215.87L274.12,215.87z"/>
			</g>
		</g>
	</g>
	<path style="fill:none;stroke:#FFFFFF;stroke-width:10;stroke-miterlimit:10;" d="M135.5,234.127c0,3.06-2.687,5.54-6,5.54h-22
		c-3.313,0-6-2.48-6-5.54V80.541c0-3.06,2.687-5.54,6-5.54h22c3.313,0,6,2.48,6,5.54V234.127z"/>
	<path style="fill:#FFFFFF;stroke:#FFFFFF;stroke-width:10;stroke-miterlimit:10;" d="M144.499,280.334c0,3.313-2.106,6-4.704,6
		H97.203c-2.598,0-4.704-2.687-4.704-6v-34.666c0-3.314,2.106-6,4.704-6h42.592c2.598,0,4.704,2.686,4.704,6V280.334z"/>
	<g>
		<g>
			<path style="fill:#FFFFFF;" d="M148.5,91.333c6,0,12,0,18,0c6.449,0,6.449-10,0-10c-6,0-12,0-18,0
				C142.051,81.333,142.051,91.333,148.5,91.333L148.5,91.333z"/>
		</g>
	</g>
	<g>
		<g>
			<path style="fill:#FFFFFF;" d="M148.5,131.333c6,0,12,0,18,0c6.449,0,6.449-10,0-10c-6,0-12,0-18,0
				C142.051,121.333,142.051,131.333,148.5,131.333L148.5,131.333z"/>
		</g>
	</g>
	<g>
		<g>
			<path style="fill:#FFFFFF;" d="M148.5,172.333c6,0,12,0,18,0c6.449,0,6.449-10,0-10c-6,0-12,0-18,0
				C142.051,162.333,142.051,172.333,148.5,172.333L148.5,172.333z"/>
		</g>
	</g>
	<g>
		<g>
			<path style="fill:#FFFFFF;" d="M148.5,215.334c6,0,12,0,18,0c6.449,0,6.449-10,0-10c-6,0-12,0-18,0
				C142.051,205.334,142.051,215.334,148.5,215.334L148.5,215.334z"/>
		</g>
	</g>
	
		<rect x="101.499" y="213.584" style="fill:#FFFFFF;stroke:#FFFFFF;stroke-width:10;stroke-miterlimit:10;" width="34" height="41.083"/>
</g>
<g id="Ebene_1">
</g>
</svg>
