<?xml version="1.0" encoding="iso-8859-1"?>
<!-- Generator: Adobe Illustrator 16.0.0, SVG Export Plug-In . SVG Version: 6.00 Build 0)  -->
<!DOCTYPE svg PUBLIC "-//W3C//DTD SVG 1.1//EN" "http://www.w3.org/Graphics/SVG/1.1/DTD/svg11.dtd">
<svg version="1.1" xmlns="http://www.w3.org/2000/svg" xmlns:xlink="http://www.w3.org/1999/xlink" x="0px" y="0px" width="361px"
	 height="361px" viewBox="0 0 361 361" style="enable-background:new 0 0 361 361;" xml:space="preserve">
<g id="temp_x5F_control">
	<g>
		<g>
			<g>
				<path style="fill:#FFFFFF;" d="M79.873,161.084c15.77-35.481,45.484-61.806,82.354-73.811
					c39.982-13.018,84.019-7.971,122.167,8.59c5.852,2.541,10.949-6.073,5.047-8.635c-40.863-17.74-86.938-23.159-129.873-9.598
					c-39.156,12.367-71.634,40.84-88.331,78.406C68.644,161.875,77.258,166.968,79.873,161.084L79.873,161.084z"/>
			</g>
		</g>
		<g>
			<g>
				<path style="fill:#FFFFFF;" d="M79.038,162.129c26.971-26.788,63.205-41.83,101.209-42.087
					c38.527-0.261,75.737,15.62,103.048,42.59c4.59,4.533,11.664-2.535,7.07-7.071c-29.012-28.651-67.952-45.045-108.745-45.515
					c-40.924-0.472-80.707,16.263-109.654,45.012C67.386,159.606,74.459,166.676,79.038,162.129L79.038,162.129z"/>
			</g>
		</g>
		<g>
			<g>
				<path style="fill:#FFFFFF;" d="M281.918,92.442c0,22.218,0,44.436,0,66.654c0,6.449,10,6.449,10,0c0-22.218,0-44.436,0-66.654
					C291.918,85.993,281.918,85.993,281.918,92.442L281.918,92.442z"/>
			</g>
		</g>
		<g>
			<g>
				<path style="fill:#FFFFFF;" d="M87.617,194.69c-4.742,0-9.484,0-14.227,0c1.167,1.167,2.333,2.333,3.5,3.5
					c0-7.452,0-14.904,0-22.356c-1.167,1.167-2.333,2.333-3.5,3.5c4.742,0,9.484,0,14.227,0c-1.167-1.167-2.333-2.333-3.5-3.5
					c0,7.452,0,14.904,0,22.356c0,4.514,7,4.514,7,0c0-7.452,0-14.904,0-22.356c0-1.908-1.592-3.5-3.5-3.5
					c-4.742,0-9.484,0-14.227,0c-1.908,0-3.5,1.592-3.5,3.5c0,7.452,0,14.904,0,22.356c0,1.908,1.592,3.5,3.5,3.5
					c4.742,0,9.484,0,14.227,0C92.131,201.69,92.131,194.69,87.617,194.69z"/>
			</g>
		</g>
		<g>
			<g>
				<path style="fill:#FFFFFF;" d="M289,195.453c-4.742,0-9.484,0-14.227,0c1.167,1.167,2.333,2.333,3.5,3.5
					c0-7.452,0-14.904,0-22.357c-1.167,1.167-2.333,2.333-3.5,3.5c4.742,0,9.484,0,14.227,0c-1.167-1.167-2.333-2.333-3.5-3.5
					c0,7.453,0,14.905,0,22.357c0,4.514,7,4.514,7,0c0-7.452,0-14.904,0-22.357c0-1.908-1.592-3.5-3.5-3.5
					c-4.742,0-9.484,0-14.227,0c-1.908,0-3.5,1.592-3.5,3.5c0,7.453,0,14.905,0,22.357c0,1.908,1.592,3.5,3.5,3.5
					c4.742,0,9.484,0,14.227,0C293.514,202.453,293.514,195.453,289,195.453z"/>
			</g>
		</g>
		<g>
			<g>
				<path style="fill:#FFFFFF;" d="M266.135,195.453c-4.742,0-9.484,0-14.227,0c1.167,1.167,2.333,2.333,3.5,3.5
					c0-7.452,0-14.904,0-22.357c-1.167,1.167-2.333,2.333-3.5,3.5c4.742,0,9.484,0,14.227,0c-1.167-1.167-2.333-2.333-3.5-3.5
					c0,7.453,0,14.905,0,22.357c0,4.514,7,4.514,7,0c0-7.452,0-14.904,0-22.357c0-1.908-1.592-3.5-3.5-3.5
					c-4.742,0-9.484,0-14.227,0c-1.908,0-3.5,1.592-3.5,3.5c0,7.453,0,14.905,0,22.357c0,1.908,1.592,3.5,3.5,3.5
					c4.742,0,9.484,0,14.227,0C270.648,202.453,270.648,195.453,266.135,195.453z"/>
			</g>
		</g>
		<g>
			<g>
				<path style="fill:#FFFFFF;" d="M239.77,176.278c0,7.686,0,15.37,0,23.056c0,4.514,7,4.514,7,0c0-7.686,0-15.37,0-23.056
					C246.77,171.764,239.77,171.764,239.77,176.278L239.77,176.278z"/>
			</g>
		</g>
	</g>
	<path style="fill:none;stroke:#FFFFFF;stroke-width:10;stroke-miterlimit:10;" d="M178.171,253.709
		c0,1.932-1.696,3.497-3.788,3.497h-13.888c-2.092,0-3.788-1.565-3.788-3.497v-96.958c0-1.931,1.696-3.497,3.788-3.497h13.888
		c2.092,0,3.788,1.566,3.788,3.497V253.709z"/>
	<path style="fill:#FFFFFF;stroke:#FFFFFF;stroke-width:10;stroke-miterlimit:10;" d="M183.852,282.879
		c0,2.094-1.329,3.788-2.969,3.788h-26.888c-1.64,0-2.969-1.694-2.969-3.788v-21.885c0-2.092,1.329-3.787,2.969-3.787h26.888
		c1.64,0,2.969,1.695,2.969,3.787V282.879z"/>
	<g>
		<g>
			<path style="fill:#FFFFFF;" d="M193.301,165.83c3.788,0,7.576,0,11.364,0c6.448,0,6.448-10,0-10c-3.788,0-7.576,0-11.364,0
				C186.853,155.83,186.853,165.83,193.301,165.83L193.301,165.83z"/>
		</g>
	</g>
	<g>
		<g>
			<path style="fill:#FFFFFF;" d="M193.301,191.081c3.788,0,7.576,0,11.364,0c6.448,0,6.448-10,0-10c-3.788,0-7.576,0-11.364,0
				C186.853,181.081,186.853,191.081,193.301,191.081L193.301,191.081z"/>
		</g>
	</g>
	<g>
		<g>
			<path style="fill:#FFFFFF;" d="M193.301,216.964c3.788,0,7.576,0,11.364,0c6.448,0,6.448-10,0-10c-3.788,0-7.576,0-11.364,0
				C186.853,206.964,186.853,216.964,193.301,216.964L193.301,216.964z"/>
		</g>
	</g>
	<g>
		<g>
			<path style="fill:#FFFFFF;" d="M193.301,244.109c3.788,0,7.576,0,11.364,0c6.448,0,6.448-10,0-10c-3.788,0-7.576,0-11.364,0
				C186.853,234.109,186.853,244.109,193.301,244.109L193.301,244.109z"/>
		</g>
	</g>
	
		<rect x="156.706" y="222.539" style="fill:#FFFFFF;stroke:#FFFFFF;stroke-width:10;stroke-miterlimit:10;" width="21.464" height="44.559"/>
</g>
<g id="Ebene_1">
</g>
</svg>
