<?xml version="1.0" encoding="iso-8859-1"?>
<!-- Generator: Adobe Illustrator 16.0.0, SVG Export Plug-In . SVG Version: 6.00 Build 0)  -->
<!DOCTYPE svg PUBLIC "-//W3C//DTD SVG 1.1//EN" "http://www.w3.org/Graphics/SVG/1.1/DTD/svg11.dtd">
<svg version="1.1" xmlns="http://www.w3.org/2000/svg" xmlns:xlink="http://www.w3.org/1999/xlink" x="0px" y="0px" width="361px"
	 height="361px" viewBox="0 0 361 361" style="enable-background:new 0 0 361 361;" xml:space="preserve">
<g id="temp_x5F_temperature_x5F_min">
	<path style="fill:none;stroke:#FFFFFF;stroke-width:10;stroke-miterlimit:10;" d="M135.5,234.46c0,3.06-2.687,5.54-6,5.54h-22
		c-3.313,0-6-2.48-6-5.54V80.874c0-3.06,2.687-5.54,6-5.54h22c3.313,0,6,2.48,6,5.54V234.46z"/>
	<path style="fill:#FFFFFF;stroke:#FFFFFF;stroke-width:10;stroke-miterlimit:10;" d="M144.5,280.667c0,3.313-2.106,6-4.704,6
		H97.204c-2.598,0-4.704-2.687-4.704-6V246c0-3.313,2.106-6,4.704-6h42.592c2.598,0,4.704,2.688,4.704,6V280.667z"/>
	<g>
		<g>
			<path style="fill:#FFFFFF;" d="M148.5,91.333c6,0,12,0,18,0c6.449,0,6.449-10,0-10c-6,0-12,0-18,0
				C142.051,81.333,142.051,91.333,148.5,91.333L148.5,91.333z"/>
		</g>
	</g>
	<g>
		<g>
			<path style="fill:#FFFFFF;" d="M148.5,131.333c6,0,12,0,18,0c6.449,0,6.449-10,0-10c-6,0-12,0-18,0
				C142.051,121.333,142.051,131.333,148.5,131.333L148.5,131.333z"/>
		</g>
	</g>
	<g>
		<g>
			<path style="fill:#FFFFFF;" d="M148.5,172.333c6,0,12,0,18,0c6.449,0,6.449-10,0-10c-6,0-12,0-18,0
				C142.051,162.333,142.051,172.333,148.5,172.333L148.5,172.333z"/>
		</g>
	</g>
	<g>
		<g>
			<path style="fill:#FFFFFF;" d="M148.5,215.334c6,0,12,0,18,0c6.449,0,6.449-10,0-10c-6,0-12,0-18,0
				C142.051,205.334,142.051,215.334,148.5,215.334L148.5,215.334z"/>
		</g>
	</g>
	
		<rect x="101.499" y="193.162" style="fill:#FFFFFF;stroke:#FFFFFF;stroke-width:10;stroke-miterlimit:10;" width="34" height="62.505"/>
	<g>
		<g>
			<path style="fill:#FFFFFF;" d="M180.5,200.167c35.444,0,70.889,0,106.333,0c6.448,0,6.448-10,0-10c-35.444,0-70.889,0-106.333,0
				C174.051,190.167,174.051,200.167,180.5,200.167L180.5,200.167z"/>
		</g>
	</g>
	<g>
		<path style="fill:#FFFFFF;" d="M192.172,130.403c0.578,1.056,1.242,2.36,1.998,3.912c0.753,1.553,1.539,3.232,2.357,5.04
			c0.818,1.808,1.628,3.656,2.431,5.544c0.802,1.889,1.556,3.665,2.263,5.328c0.705-1.664,1.459-3.439,2.262-5.328
			c0.801-1.888,1.611-3.736,2.43-5.544c0.818-1.808,1.604-3.487,2.358-5.04c0.754-1.552,1.42-2.856,1.997-3.912h6.816
			c0.319,2.208,0.615,4.68,0.889,7.416c0.271,2.736,0.511,5.584,0.719,8.544c0.209,2.96,0.4,5.928,0.576,8.904
			s0.328,5.776,0.457,8.4h-7.297c-0.096-3.232-0.225-6.751-0.384-10.56c-0.161-3.808-0.4-7.647-0.72-11.52
			c-0.578,1.344-1.221,2.832-1.926,4.464c-0.707,1.632-1.405,3.264-2.096,4.896c-0.689,1.632-1.355,3.192-1.998,4.68
			c-0.642,1.488-1.188,2.76-1.637,3.816h-5.232c-0.449-1.056-0.994-2.328-1.637-3.816c-0.643-1.488-1.309-3.048-1.999-4.68
			c-0.69-1.632-1.388-3.264-2.094-4.896c-0.706-1.632-1.349-3.12-1.927-4.464c-0.319,3.873-0.56,7.712-0.719,11.52
			c-0.161,3.809-0.289,7.328-0.385,10.56h-7.296c0.128-2.624,0.28-5.424,0.456-8.4s0.367-5.944,0.576-8.904
			c0.207-2.959,0.447-5.808,0.72-8.544c0.271-2.736,0.567-5.208,0.888-7.416H192.172z"/>
		<path style="fill:#FFFFFF;" d="M226.396,130.403h7.488v33.264h-7.488V130.403z"/>
		<path style="fill:#FFFFFF;" d="M263.884,163.667c-2.145-3.808-4.464-7.567-6.96-11.28c-2.496-3.712-5.152-7.216-7.969-10.512
			v21.792h-7.392v-33.264h6.097c1.056,1.056,2.223,2.352,3.504,3.888c1.279,1.536,2.584,3.176,3.912,4.92
			c1.327,1.745,2.646,3.552,3.959,5.424c1.313,1.872,2.545,3.672,3.696,5.4v-19.632h7.44v33.264H263.884z"/>
	</g>
</g>
<g id="Ebene_1">
</g>
</svg>
