<?xml version="1.0" encoding="iso-8859-1"?>
<!-- Generator: Adobe Illustrator 16.0.0, SVG Export Plug-In . SVG Version: 6.00 Build 0)  -->
<!DOCTYPE svg PUBLIC "-//W3C//DTD SVG 1.1//EN" "http://www.w3.org/Graphics/SVG/1.1/DTD/svg11.dtd">
<svg version="1.1" xmlns="http://www.w3.org/2000/svg" xmlns:xlink="http://www.w3.org/1999/xlink" x="0px" y="0px" width="361px"
	 height="361px" viewBox="0 0 361 361" style="enable-background:new 0 0 361 361;" xml:space="preserve">
<g id="temp_x5F_inside">
	<path style="fill:none;stroke:#FFFFFF;stroke-width:10;stroke-miterlimit:10;" d="M236.833,280.988c0,3.137-2.687,5.679-6,5.679
		h-23.5c-3.313,0-6-2.542-6-5.679v-68.143c0-3.137,2.687-5.679,6-5.679h23.5c3.313,0,6,2.542,6,5.679V280.988z"/>
	<path style="fill:none;stroke:#FFFFFF;stroke-width:10;stroke-miterlimit:10;" d="M137.762,247.49c0,1.477-1.295,2.672-2.894,2.672
		h-10.609c-1.598,0-2.893-1.195-2.893-2.672v-74.064c0-1.475,1.295-2.671,2.893-2.671h10.609c1.598,0,2.894,1.196,2.894,2.671
		V247.49z"/>
	<path style="fill:#FFFFFF;stroke:#FFFFFF;stroke-width:10;stroke-miterlimit:10;" d="M142.102,269.773
		c0,1.598-1.016,2.894-2.269,2.894h-20.54c-1.253,0-2.268-1.296-2.268-2.894v-16.717c0-1.599,1.015-2.895,2.268-2.895h20.54
		c1.253,0,2.269,1.296,2.269,2.895V269.773z"/>
	<g>
		<g>
			<path style="fill:#FFFFFF;" d="M149.32,181.541c2.894,0,5.787,0,8.68,0c2.726,0,5-2.274,5-5s-2.274-5-5-5
				c-2.894,0-5.787,0-8.68,0c-2.726,0-5,2.274-5,5S146.594,181.541,149.32,181.541L149.32,181.541z"/>
		</g>
	</g>
	<g>
		<g>
			<path style="fill:#FFFFFF;" d="M149.32,200.83c2.894,0,5.787,0,8.68,0c2.726,0,5-2.274,5-5s-2.274-5-5-5c-2.894,0-5.787,0-8.68,0
				c-2.726,0-5,2.274-5,5S146.594,200.83,149.32,200.83L149.32,200.83z"/>
		</g>
	</g>
	<g>
		<g>
			<path style="fill:#FFFFFF;" d="M149.32,220.602c2.894,0,5.787,0,8.68,0c2.726,0,5-2.274,5-5s-2.274-5-5-5
				c-2.894,0-5.787,0-8.68,0c-2.726,0-5,2.274-5,5S146.594,220.602,149.32,220.602L149.32,220.602z"/>
		</g>
	</g>
	<g>
		<g>
			<path style="fill:#FFFFFF;" d="M149.32,241.338c2.894,0,5.787,0,8.68,0c2.726,0,5-2.274,5-5s-2.274-5-5-5
				c-2.894,0-5.787,0-8.68,0c-2.726,0-5,2.274-5,5S146.594,241.338,149.32,241.338L149.32,241.338z"/>
		</g>
	</g>
	
		<rect x="121.365" y="223.68" style="fill:#FFFFFF;stroke:#FFFFFF;stroke-width:10;stroke-miterlimit:10;" width="16.396" height="34.038"/>
	<path style="fill:none;stroke:#FFFFFF;stroke-width:10;stroke-miterlimit:10;" d="M273.583,281.074
		c0,3.365-2.746,6.093-6.132,6.093H94.465c-3.386,0-6.132-2.728-6.132-6.093V162.01c0-3.365,2.746-6.093,6.132-6.093h172.986
		c3.386,0,6.132,2.728,6.132,6.093V281.074z"/>
	<g>
		<g>
			<path style="fill:#FFFFFF;" d="M78.639,160.754c35.06-27.034,70.12-54.069,105.18-81.103c-1.683,0-3.365,0-5.047,0
				c35.061,27.034,70.12,54.069,105.181,81.103c0.841-3.106,1.683-6.211,2.523-9.317c-48.71,0-97.421,0-146.131,0
				c-21.41,0-42.819,0-64.229,0c-6.449,0-6.449,10,0,10c48.71,0,97.421,0,146.131,0c21.41,0,42.819,0,64.229,0
				c5.433,0,6.213-6.473,2.523-9.317c-35.06-27.034-70.12-54.069-105.181-81.103c-1.241-0.957-3.806-0.957-5.047,0
				c-35.06,27.034-70.12,54.069-105.18,81.103C68.562,155.998,73.532,164.692,78.639,160.754z"/>
		</g>
	</g>
</g>
<g id="Ebene_1">
</g>
</svg>
