<?xml version="1.0" encoding="iso-8859-1"?>
<!-- Generator: Adobe Illustrator 16.0.0, SVG Export Plug-In . SVG Version: 6.00 Build 0)  -->
<!DOCTYPE svg PUBLIC "-//W3C//DTD SVG 1.1 Tiny//EN" "http://www.w3.org/Graphics/SVG/1.1/DTD/svg11-tiny.dtd">
<svg version="1.1" baseProfile="tiny" id="temp_x5F_temperature"
	 xmlns="http://www.w3.org/2000/svg" xmlns:xlink="http://www.w3.org/1999/xlink" x="0px" y="0px" width="361px" height="361px"
	 viewBox="0 0 361 361" xml:space="preserve">
<path fill="none" stroke="#FFFFFF" stroke-width="10" stroke-miterlimit="10" d="M183.982,237.338c0,3.06-2.687,5.54-6,5.54h-22
	c-3.313,0-6-2.48-6-5.54V83.751c0-3.06,2.687-5.54,6-5.54h22c3.313,0,6,2.48,6,5.54V237.338z"/>
<path fill="#FFFFFF" stroke="#FFFFFF" stroke-width="10" stroke-miterlimit="10" d="M192.981,283.545c0,3.313-2.106,6-4.704,6
	h-42.592c-2.598,0-4.704-2.687-4.704-6v-34.667c0-3.313,2.106-6,4.704-6h42.592c2.598,0,4.704,2.687,4.704,6V283.545z"/>
<g>
	<path fill="#FFFFFF" d="M196.982,95.211c6,0,12,0,18,0c6.449,0,6.449-10,0-10c-6,0-12,0-18,0
		C190.533,85.211,190.533,95.211,196.982,95.211L196.982,95.211z"/>
</g>
<g>
	<path fill="#FFFFFF" d="M196.982,135.211c6,0,12,0,18,0c6.449,0,6.449-10,0-10c-6,0-12,0-18,0
		C190.533,125.211,190.533,135.211,196.982,135.211L196.982,135.211z"/>
</g>
<g>
	<path fill="#FFFFFF" d="M196.982,176.211c6,0,12,0,18,0c6.449,0,6.449-10,0-10c-6,0-12,0-18,0
		C190.533,166.211,190.533,176.211,196.982,176.211L196.982,176.211z"/>
</g>
<g>
	<path fill="#FFFFFF" d="M196.982,219.211c6,0,12,0,18,0c6.449,0,6.449-10,0-10c-6,0-12,0-18,0
		C190.533,209.211,190.533,219.211,196.982,219.211L196.982,219.211z"/>
</g>
<rect x="149.981" y="187.962" fill="#FFFFFF" stroke="#FFFFFF" stroke-width="10" stroke-miterlimit="10" width="34" height="70.583"/>
</svg>
