<?xml version="1.0" encoding="iso-8859-1"?>
<!-- Generator: Adobe Illustrator 16.0.0, SVG Export Plug-In . SVG Version: 6.00 Build 0)  -->
<!DOCTYPE svg PUBLIC "-//W3C//DTD SVG 1.1//EN" "http://www.w3.org/Graphics/SVG/1.1/DTD/svg11.dtd">
<svg version="1.1" xmlns="http://www.w3.org/2000/svg" xmlns:xlink="http://www.w3.org/1999/xlink" x="0px" y="0px" width="361px"
	 height="361px" viewBox="0 0 361 361" style="enable-background:new 0 0 361 361;" xml:space="preserve">
<g id="text_x5F_max">
	<g>
		<path style="fill:#FFFFFF;" d="M89.705,144.496c1.179,2.156,2.537,4.819,4.078,7.987c1.539,3.169,3.144,6.6,4.814,10.29
			c1.67,3.692,3.324,7.465,4.962,11.319c1.637,3.855,3.176,7.482,4.619,10.878c1.441-3.396,2.979-7.023,4.618-10.878
			c1.637-3.854,3.291-7.627,4.961-11.319c1.671-3.69,3.275-7.12,4.816-10.29c1.539-3.168,2.899-5.831,4.078-7.987h13.916
			c0.652,4.508,1.257,9.555,1.813,15.141c0.554,5.586,1.044,11.402,1.47,17.444c0.424,6.044,0.816,12.103,1.176,18.179
			c0.358,6.076,0.669,11.794,0.931,17.15h-14.896c-0.196-6.598-0.458-13.784-0.784-21.561c-0.328-7.773-0.817-15.614-1.47-23.52
			c-1.181,2.744-2.492,5.782-3.932,9.114c-1.443,3.332-2.868,6.664-4.277,9.995c-1.409,3.332-2.769,6.518-4.08,9.556
			c-1.311,3.038-2.425,5.636-3.343,7.791h-10.682c-0.919-2.155-2.032-4.753-3.343-7.791c-1.311-3.038-2.672-6.224-4.081-9.556
			c-1.409-3.331-2.834-6.663-4.275-9.995c-1.442-3.332-2.753-6.37-3.933-9.114c-0.654,7.906-1.144,15.746-1.47,23.52
			c-0.328,7.776-0.588,14.963-0.784,21.561H69.713c0.26-5.356,0.571-11.074,0.931-17.15c0.358-6.076,0.75-12.135,1.176-18.179
			c0.424-6.042,0.915-11.858,1.47-17.444c0.554-5.586,1.159-10.633,1.813-15.141H89.705z"/>
		<path style="fill:#FFFFFF;" d="M205.141,212.41c-0.757-2.359-1.568-4.783-2.438-7.271s-1.736-4.964-2.599-7.43H173.58
			c-0.857,2.478-1.718,4.96-2.579,7.45c-0.862,2.489-1.665,4.907-2.407,7.25h-15.876c2.556-7.316,4.979-14.078,7.273-20.286
			c2.294-6.206,4.537-12.054,6.733-17.542c2.196-5.488,4.358-10.697,6.488-15.631c2.13-4.932,4.343-9.751,6.637-14.455h14.491
			c2.231,4.704,4.43,9.523,6.598,14.455c2.164,4.934,4.348,10.143,6.547,15.631c2.199,5.488,4.447,11.336,6.744,17.542
			c2.297,6.208,4.725,12.97,7.285,20.286H205.141z M186.773,159.882c-0.342,0.986-0.842,2.329-1.498,4.025
			c-0.657,1.698-1.404,3.66-2.244,5.885c-0.838,2.225-1.777,4.675-2.814,7.35c-1.037,2.675-2.09,5.48-3.16,8.416h19.421
			c-1.041-2.945-2.047-5.759-3.021-8.442c-0.974-2.683-1.899-5.137-2.776-7.364c-0.877-2.225-1.646-4.185-2.307-5.881
			C187.713,162.176,187.179,160.847,186.773,159.882z"/>
		<path style="fill:#FFFFFF;" d="M272.902,212.41c-1.913-3.782-4.006-7.613-6.28-11.494c-2.274-3.879-4.885-7.161-7.832-9.841
			c-0.915,1.011-2.071,2.415-3.475,4.212c-1.403,1.799-2.804,3.709-4.206,5.73s-2.717,4.117-3.938,6.285
			c-1.222,2.17-2.132,3.873-2.728,5.107H227c2.857-5.303,6.23-10.778,10.121-16.426c3.889-5.646,8.229-11.643,13.019-17.987
			l-22.16-33.501h18.522l12.939,19.666l13.225-19.666h17.445l-22.041,32.778c5.779,7.242,10.539,13.879,14.275,19.914
			c3.735,6.035,6.685,11.109,8.844,15.223H272.902z"/>
	</g>
</g>
<g id="Ebene_1">
</g>
</svg>
