<?xml version="1.0" encoding="iso-8859-1"?>
<!-- Generator: Adobe Illustrator 16.0.0, SVG Export Plug-In . SVG Version: 6.00 Build 0)  -->
<!DOCTYPE svg PUBLIC "-//W3C//DTD SVG 1.1//EN" "http://www.w3.org/Graphics/SVG/1.1/DTD/svg11.dtd">
<svg version="1.1" xmlns="http://www.w3.org/2000/svg" xmlns:xlink="http://www.w3.org/1999/xlink" x="0px" y="0px" width="361px"
	 height="361px" viewBox="0 0 361 361" style="enable-background:new 0 0 361 361;" xml:space="preserve">
<g id="time_x5F_graph">
	<g>
		<g>
			<path style="fill:#FFFFFF;" d="M70.833,74.667c0,48.697,0,97.394,0,146.091c0,21.97,0,43.939,0,65.909c0,6.448,10,6.448,10,0
				c0-48.697,0-97.395,0-146.091c0-21.97,0-43.939,0-65.909C80.833,68.218,70.833,68.218,70.833,74.667L70.833,74.667z"/>
		</g>
	</g>
	<g>
		<g>
			<path style="fill:#FFFFFF;" d="M287.833,281.667c-48.697,0-97.395,0-146.091,0c-21.97,0-43.939,0-65.909,0
				c-6.449,0-6.449,10,0,10c48.697,0,97.394,0,146.091,0c21.97,0,43.939,0,65.909,0
				C294.281,291.667,294.281,281.667,287.833,281.667L287.833,281.667z"/>
		</g>
	</g>
	<g>
		<g>
			<path style="fill:#FFFFFF;" d="M82.369,201.702c20.667-21.167,41.333-42.333,62-63.5c4.506-4.615-2.56-11.691-7.071-7.071
				c-20.667,21.167-41.333,42.333-62,63.5C70.792,199.246,77.857,206.322,82.369,201.702L82.369,201.702z"/>
		</g>
	</g>
	<g>
		<g>
			<path style="fill:#FFFFFF;" d="M138.685,136.484c11.909,15.313,23.817,30.625,35.726,45.937
				c3.956,5.086,10.979-2.046,7.071-7.071c-11.909-15.313-23.817-30.625-35.726-45.938
				C141.8,124.327,134.777,131.459,138.685,136.484L138.685,136.484z"/>
		</g>
	</g>
	<g>
		<g>
			<path style="fill:#FFFFFF;" d="M193.012,153.996c3.333,18.5,6.667,37,10,55.5c1.143,6.34,10.778,3.646,9.643-2.658
				c-3.333-18.5-6.667-37-10-55.5C201.512,144.998,191.876,147.692,193.012,153.996L193.012,153.996z"/>
		</g>
	</g>
	<g>
		<g>
			<path style="fill:#FFFFFF;" d="M212.15,210.69c22-33.667,44-67.333,66-101c3.539-5.416-5.123-10.421-8.635-5.047
				c-22,33.667-44,67.333-66,101C199.977,211.06,208.639,216.064,212.15,210.69L212.15,210.69z"/>
		</g>
	</g>
	<g>
		<g>
			<path style="fill:#FFFFFF;" d="M182.263,181.409c6.63-8.739,13.259-17.479,19.888-26.219c3.899-5.141-4.791-10.114-8.635-5.047
				c-6.629,8.739-13.258,17.479-19.887,26.219C169.729,181.504,178.42,186.477,182.263,181.409L182.263,181.409z"/>
		</g>
	</g>
</g>
<g id="Ebene_1">
</g>
</svg>
