<?xml version="1.0" encoding="iso-8859-1"?>
<!-- Generator: Adobe Illustrator 16.0.0, SVG Export Plug-In . SVG Version: 6.00 Build 0)  -->
<!DOCTYPE svg PUBLIC "-//W3C//DTD SVG 1.1//EN" "http://www.w3.org/Graphics/SVG/1.1/DTD/svg11.dtd">
<svg version="1.1" xmlns="http://www.w3.org/2000/svg" xmlns:xlink="http://www.w3.org/1999/xlink" x="0px" y="0px" width="361px"
	 height="361px" viewBox="0 0 361 361" style="enable-background:new 0 0 361 361;" xml:space="preserve">
<g id="time_x5F_alarm_x5F_clock_x5F_alarm_x5F_off">
	<g>
		<g>
			<path style="fill:#FFFFFF;" d="M139.403,112.311c2.427,12.684,4.854,25.368,7.281,38.053c0.848,4.431,7.594,2.549,6.75-1.861
				c-2.427-12.684-4.854-25.368-7.281-38.053C145.306,106.019,138.56,107.9,139.403,112.311L139.403,112.311z"/>
		</g>
	</g>
	<g>
		<g>
			<path style="fill:#FFFFFF;" d="M147.396,146.896c-4.992,6.069-9.984,12.138-14.977,18.206c-2.843,3.457,2.08,8.439,4.95,4.95
				c4.992-6.069,9.984-12.138,14.977-18.206C155.189,148.39,150.266,143.408,147.396,146.896L147.396,146.896z"/>
		</g>
	</g>
	<g>
		<g>
			<path style="fill:#FFFFFF;" d="M224.24,95.132c-6.291-6.291-12.582-12.582-18.873-18.873c-3.872-3.873-9.87-6.336-15.072-3.19
				c-3.922,2.371-7.008,6.236-10.224,9.452c-1.348,1.349-1.348,3.602,0,4.95c10.633,10.634,21.267,21.268,31.901,31.902
				c1.348,1.348,3.602,1.348,4.949,0C223.736,112.558,232.531,104.88,224.24,95.132c-2.929-3.443-7.855,1.533-4.949,4.95
				c4.484,5.272-3.939,10.961-7.319,14.341c1.649,0,3.3,0,4.949,0c-10.633-10.634-21.267-21.268-31.9-31.902c0,1.65,0,3.3,0,4.95
				c2.412-2.412,4.823-4.824,7.235-7.236c3.983-3.984,7.644,0.456,10.352,3.163c5.561,5.561,11.122,11.122,16.684,16.684
				C222.485,103.276,227.436,98.327,224.24,95.132z"/>
		</g>
	</g>
	<g>
		<g>
			<path style="fill:#FFFFFF;" d="M95.01,75.144c-6.291,6.291-12.582,12.582-18.872,18.873c-3.872,3.872-6.336,9.871-3.19,15.073
				c2.372,3.921,6.236,7.008,9.453,10.225c1.349,1.348,3.602,1.348,4.95,0c10.633-10.634,21.267-21.267,31.9-31.9
				c1.348-1.349,1.348-3.602,0-4.95C112.436,75.647,104.758,66.853,95.01,75.144c-3.443,2.929,1.533,7.856,4.95,4.95
				c5.273-4.485,10.96,3.938,14.341,7.319c0-1.65,0-3.3,0-4.95c-10.633,10.634-21.267,21.267-31.9,31.9c1.65,0,3.3,0,4.95,0
				c-2.413-2.412-4.825-4.824-7.237-7.236c-3.983-3.983,0.456-7.643,3.163-10.35c5.561-5.561,11.122-11.122,16.683-16.683
				C103.155,76.899,98.205,71.949,95.01,75.144z"/>
		</g>
	</g>
	<g>
		<path style="fill:#FFFFFF;" d="M173.607,98.45l26.878,26.879v47.962l-26.878,26.879h-47.962l-26.878-26.879l0.001-47.962
			l26.877-26.878L173.607,98.45 M173.607,88.45L173.607,88.45l-47.961,0c-2.652,0-5.196,1.054-7.071,2.929l-26.877,26.878
			c-1.875,1.875-2.929,4.418-2.929,7.071l-0.001,47.962c0,2.652,1.054,5.196,2.929,7.071l26.878,26.879
			c1.875,1.875,4.419,2.929,7.071,2.929h47.962c2.652,0,5.196-1.054,7.071-2.929l26.878-26.879c1.875-1.875,2.929-4.418,2.929-7.071
			v-47.962c0-2.652-1.054-5.196-2.929-7.071l-26.878-26.879C178.803,89.504,176.259,88.45,173.607,88.45L173.607,88.45z"/>
	</g>
	<g>
		<g>
			<path style="fill:#FFFFFF;" d="M108.411,190.791c-5.455,5.454-10.909,10.908-16.364,16.363c-4.563,4.563,2.507,11.635,7.071,7.07
				c5.455-5.454,10.909-10.908,16.364-16.363C120.046,193.298,112.975,186.227,108.411,190.791L108.411,190.791z"/>
		</g>
	</g>
	<g>
		<g>
			<path style="fill:#FFFFFF;" d="M183.771,197.861c5.454,5.455,10.908,10.909,16.363,16.363c4.563,4.564,11.635-2.507,7.07-7.07
				c-5.454-5.455-10.908-10.909-16.363-16.363C186.278,186.227,179.208,193.298,183.771,197.861L183.771,197.861z"/>
		</g>
	</g>
	<g>
		<g>
			<path style="fill:#FFFFFF;" d="M156.644,89.81c-0.384,2.515-7.772,1.299-9.407,1.299c-1.176,0-2.353,0-3.529,0
				c-1.633,0-0.974-3.553-0.974-4.588c0-1.113,8.553-0.557,9.283-0.557c1.2,0,2.401,0,3.601,0c1.543,0,0.901,3.796,0.901,4.776
				c0,4.514,7,4.514,7,0c0-2.947,0.48-6.439-1.626-8.835c-2.303-2.619-5.208-2.941-8.462-2.941c-5.943,0-16.319-1.753-17.572,6.437
				c-0.454,2.968-0.345,6.353,0.954,9.059c1.616,3.366,5.797,3.649,9.011,3.649c5.944,0,16.318,1.753,17.571-6.438
				C164.069,87.256,157.325,85.359,156.644,89.81z"/>
		</g>
	</g>
	<g>
		<g>
			<path style="fill:#FFFFFF;" d="M275.278,273.637c0.021,4.537-5.225,3.379-8.209,3.379c-5.266,0-10.531,0-15.797,0
				c-4.379,0-8.758,0-13.138,0c-1.46,0-2.501,0.233-3.623-1.314c-2.11-2.912,2.232-11.983,3.258-14.883
				c1.481-4.188,3.071-8.328,4.376-12.577c0.997-3.246,1.232-6.635,2.205-9.865c0.876-2.908,2.43-5.944,4.294-8.345
				c1.309-1.686,10.063-2.087,11.551-0.699c5.114,4.769,5.359,12.688,7.122,18.909c2.508,8.854,6.805,17.136,8.086,26.326
				c0.621,4.455,7.365,2.552,6.75-1.861c-1.634-11.714-8.082-22.108-9.716-33.822c-0.737-5.282-5.557-16.901-12.119-16.901
				c-4.35,0-10.916-1.424-14.675,1.278c-3.081,2.214-4.979,6.045-6.52,9.398c-1.821,3.962-2.228,8.004-3.293,12.187
				c-1.635,6.413-4.362,12.532-6.415,18.815c-1.383,4.231-3.447,10.064-1.478,14.405c1.545,3.407,4.736,5.949,8.612,5.949
				c4.907,0,9.814,0,14.722,0c6.356,0,12.713,0,19.069,0c6.508,0,11.97-3.045,11.937-10.379
				C282.258,269.124,275.258,269.122,275.278,273.637z"/>
		</g>
	</g>
	<g>
		<g>
			<path style="fill:#FFFFFF;" d="M223.553,290.936c22.247-22.246,44.493-44.492,66.739-66.738c3.195-3.194-1.755-8.144-4.949-4.949
				c-22.247,22.246-44.493,44.492-66.739,66.738C215.408,289.181,220.358,294.13,223.553,290.936L223.553,290.936z"/>
		</g>
	</g>
</g>
<g id="Ebene_1">
</g>
</svg>
