<?xml version="1.0" encoding="iso-8859-1"?>
<!-- Generator: Adobe Illustrator 16.0.0, SVG Export Plug-In . SVG Version: 6.00 Build 0)  -->
<!DOCTYPE svg PUBLIC "-//W3C//DTD SVG 1.1//EN" "http://www.w3.org/Graphics/SVG/1.1/DTD/svg11.dtd">
<svg version="1.1" xmlns="http://www.w3.org/2000/svg" xmlns:xlink="http://www.w3.org/1999/xlink" x="0px" y="0px" width="361px"
	 height="361px" viewBox="0 0 361 361" style="enable-background:new 0 0 361 361;" xml:space="preserve">
<g id="time_x5F_automatic">
	<path style="fill:none;stroke:#FFFFFF;stroke-width:10;stroke-miterlimit:10;" d="M116.083,202.941c0,2.332-2.25,4.226-5.025,4.226
		h-31.2c-2.775,0-5.025-1.894-5.025-4.226v-51.072c0-2.333,2.25-4.226,5.025-4.226h31.2c2.775,0,5.025,1.893,5.025,4.226V202.941z"
		/>
	<path style="fill:none;stroke:#FFFFFF;stroke-width:10;stroke-miterlimit:10;" d="M173.083,201.414c0,3.176-2.25,5.752-5.025,5.752
		h-31.2c-2.775,0-5.025-2.576-5.025-5.752v-69.519c0-3.176,2.25-5.752,5.025-5.752h31.2c2.775,0,5.025,2.576,5.025,5.752V201.414z"
		/>
	<path style="fill:none;stroke:#FFFFFF;stroke-width:10;stroke-miterlimit:10;" d="M230.149,201.36c0,3.161-2.409,5.724-5.38,5.724
		h-30.49c-2.971,0-5.38-2.563-5.38-5.724v-92.548c0-3.16,2.409-5.724,5.38-5.724h30.49c2.971,0,5.38,2.564,5.38,5.724V201.36z"/>
	<path style="fill:none;stroke:#FFFFFF;stroke-width:10;stroke-miterlimit:10;" d="M287.074,201.465
		c0,3.059-2.357,5.535-5.266,5.535H251.09c-2.908,0-5.266-2.477-5.266-5.535V80.292c0-3.058,2.357-5.535,5.266-5.535h30.719
		c2.908,0,5.266,2.477,5.266,5.535V201.465z"/>
	<g>
		<path style="fill:#FFFFFF;" d="M111.929,290.613l-3.185-13.729H90.622l-3.075,13.729H73.487
			c3.221-11.712,6.48-22.383,9.775-32.016c3.295-9.632,6.48-18.769,9.556-27.408h14.718c3.221,8.704,6.425,17.938,9.61,27.695
			c3.185,9.762,6.277,20.338,9.281,31.729H111.929z M99.848,242.709c-0.733,2.241-1.411,4.368-2.032,6.385
			c-0.623,2.016-1.208,4-1.757,5.951c-0.549,1.953-1.062,3.922-1.538,5.904c-0.477,1.984-0.934,4.032-1.373,6.145h13.29
			c-0.439-2.112-0.878-4.16-1.318-6.145c-0.439-1.982-0.934-3.951-1.483-5.904c-0.549-1.951-1.136-3.936-1.757-5.951
			C101.256,247.077,100.579,244.95,99.848,242.709z"/>
		<path style="fill:#FFFFFF;" d="M154.655,291.861c-4.394,0-8.073-0.527-11.038-1.584c-2.966-1.057-5.327-2.576-7.084-4.561
			c-1.757-1.982-3.003-4.383-3.734-7.199c-0.733-2.816-1.098-5.952-1.098-9.408v-37.92h13.619v37.152
			c0,2.496,0.146,4.592,0.439,6.287c0.292,1.697,0.786,3.058,1.483,4.08c0.695,1.025,1.665,1.762,2.91,2.209
			c1.245,0.447,2.818,0.672,4.723,0.672c1.903,0,3.477-0.225,4.723-0.672c1.244-0.447,2.233-1.201,2.966-2.257
			c0.731-1.056,1.244-2.431,1.538-4.128c0.292-1.695,0.439-3.792,0.439-6.288v-37.056h13.51v37.92c0,3.456-0.367,6.592-1.098,9.408
			c-0.733,2.816-2.015,5.217-3.844,7.199c-1.831,1.984-4.248,3.504-7.249,4.561C162.854,291.334,159.12,291.861,154.655,291.861z"/>
		<path style="fill:#FFFFFF;" d="M234.504,231.189v9.792h-17.902v49.632h-13.619v-49.632h-17.904v-9.792H234.504z"/>
		<path style="fill:#FFFFFF;" d="M240.215,260.854c0-10.239,2.16-17.967,6.48-23.184s10.324-7.824,18.014-7.824
			c7.979,0,14.059,2.607,18.232,7.824c4.173,5.217,6.26,12.944,6.26,23.184c0,10.24-2.125,17.969-6.37,23.184
			c-4.247,5.217-10.253,7.824-18.013,7.824c-7.982,0-14.078-2.607-18.287-7.824C242.319,278.822,240.215,271.094,240.215,260.854z
			 M253.945,260.854c0,2.88,0.127,5.584,0.384,8.111c0.256,2.529,0.769,4.721,1.538,6.576c0.769,1.857,1.848,3.328,3.24,4.416
			c1.39,1.09,3.257,1.633,5.602,1.633c2.268,0,4.118-0.543,5.546-1.633c1.428-1.088,2.526-2.575,3.295-4.464
			c0.769-1.887,1.28-4.08,1.538-6.575c0.256-2.496,0.385-5.185,0.385-8.064c0-2.881-0.129-5.583-0.385-8.112
			c-0.258-2.527-0.77-4.719-1.538-6.576c-0.769-1.855-1.85-3.327-3.239-4.415c-1.393-1.088-3.26-1.633-5.602-1.633
			c-2.345,0-4.212,0.545-5.602,1.633c-1.393,1.088-2.472,2.576-3.24,4.463c-0.77,1.889-1.282,4.08-1.538,6.576
			C254.072,255.285,253.945,257.973,253.945,260.854z"/>
	</g>
</g>
<g id="Ebene_1">
</g>
</svg>
