<?xml version="1.0" encoding="iso-8859-1"?>
<!-- Generator: Adobe Illustrator 16.0.0, SVG Export Plug-In . SVG Version: 6.00 Build 0)  -->
<!DOCTYPE svg PUBLIC "-//W3C//DTD SVG 1.1 Tiny//EN" "http://www.w3.org/Graphics/SVG/1.1/DTD/svg11-tiny.dtd">
<svg version="1.1" baseProfile="tiny" id="time_x5F_statistic"
	 xmlns="http://www.w3.org/2000/svg" xmlns:xlink="http://www.w3.org/1999/xlink" x="0px" y="0px" width="361px" height="361px"
	 viewBox="0 0 361 361" xml:space="preserve">
<path fill="none" stroke="#FFFFFF" stroke-width="10" stroke-miterlimit="10" d="M113.649,283.166c0,3.708-2.687,6.713-6,6.713h-29
	c-3.313,0-6-3.005-6-6.713V139.591c0-3.708,2.687-6.713,6-6.713h29c3.313,0,6,3.005,6,6.713V283.166z"/>
<path fill="none" stroke="#FFFFFF" stroke-width="10" stroke-miterlimit="10" d="M169.649,281.513c0,4.621-2.687,8.366-6,8.366h-29
	c-3.313,0-6-3.745-6-8.366V102.578c0-4.62,2.687-8.366,6-8.366h29c3.313,0,6,3.746,6,8.366V281.513z"/>
<path fill="none" stroke="#FFFFFF" stroke-width="10" stroke-miterlimit="10" d="M226.649,285.974c0,2.157-2.687,3.905-6,3.905h-29
	c-3.313,0-6-1.748-6-3.905V202.45c0-2.156,2.687-3.905,6-3.905h29c3.313,0,6,1.749,6,3.905V285.974z"/>
<path fill="none" stroke="#FFFFFF" stroke-width="10" stroke-miterlimit="10" d="M283.649,284.063c0,3.212-2.687,5.815-6,5.815h-29
	c-3.313,0-6-2.603-6-5.815v-124.37c0-3.211,2.687-5.815,6-5.815h29c3.313,0,6,2.604,6,5.815V284.063z"/>
</svg>
