<?xml version="1.0" encoding="iso-8859-1"?>
<!-- Generator: Adobe Illustrator 16.0.0, SVG Export Plug-In . SVG Version: 6.00 Build 0)  -->
<!DOCTYPE svg PUBLIC "-//W3C//DTD SVG 1.1//EN" "http://www.w3.org/Graphics/SVG/1.1/DTD/svg11.dtd">
<svg version="1.1" xmlns="http://www.w3.org/2000/svg" xmlns:xlink="http://www.w3.org/1999/xlink" x="0px" y="0px" width="361px"
	 height="361px" viewBox="0 0 361 361" style="enable-background:new 0 0 361 361;" xml:space="preserve">
<g id="user_x5F_n_x5F_a">
	<g>
		<circle style="fill:#FFFFFF;" cx="236.593" cy="156.564" r="28.837"/>
		<path style="fill:#FFFFFF;" d="M236.594,186.084c-16.276,0-29.52-13.244-29.52-29.52s13.243-29.52,29.52-29.52
			c16.275,0,29.517,13.244,29.517,29.52S252.869,186.084,236.594,186.084z M236.594,128.41c-15.525,0-28.154,12.63-28.154,28.154
			c0,15.522,12.629,28.154,28.154,28.154c15.523,0,28.15-12.632,28.15-28.154C264.744,141.041,252.117,128.41,236.594,128.41z"/>
	</g>
	<path style="fill:#FFFFFF;" d="M267.559,277.459c0,7.895-6.4,14.291-14.293,14.291h-33.348c-7.893,0-14.291-6.396-14.291-14.291
		v-71.745c0-7.894,6.398-14.291,14.291-14.291h33.348c7.893,0,14.293,6.397,14.293,14.291V277.459z"/>
	<path style="fill:#FFFFFF;" d="M273.856,204.122c0,16.776,0,62.553,0,79.331c0,11.443,17.745,11.443,17.745,0
		c0-16.778,0-62.555,0-79.331C291.602,192.678,273.856,192.678,273.856,204.122L273.856,204.122z"/>
	<path style="fill:#FFFFFF;" d="M181.583,204.12c0,16.778,0,62.554,0,79.331c0,11.443,17.745,11.443,17.745,0
		c0-16.777,0-62.553,0-79.331C199.328,192.677,181.583,192.677,181.583,204.12L181.583,204.12z"/>
	<g>
		<g>
			<path style="fill:#FFFFFF;" d="M170.959,157.688c-0.602,16.38-20.151,13.09-31.255,13.09c-14.331,0-28.662,0-42.993,0
				c-6.572,0-11.992-1.599-15.246-7.987c-1.769-3.474-0.999-9.064-0.999-12.841c0-15.064,0-30.127,0-45.191
				c0-3.789,0-7.577,0-11.365c0-8.113,6.742-13.109,14.329-13.109c13.415,0,26.83,0,40.244,0c6.399,0,12.798,0,19.197,0
				c6.193,0,11.609,0.975,15.145,6.851c2.259,3.755,1.577,9.088,1.577,13.313c0,7.202,0,14.404,0,21.607
				C170.959,133.933,170.959,145.81,170.959,157.688c0,6.449,10,6.449,10,0c0-11.216,0-22.432,0-33.648c0-7.414,0-14.828,0-22.241
				c0-4.054,0.371-8.414-0.375-12.426c-2.074-11.169-11.536-18.676-22.715-19.086c-3.528-0.13-7.085,0-10.614,0
				c-15.092,0-30.184,0-45.275,0c-4.054,0-8.414-0.37-12.427,0.375c-11.169,2.073-18.675,11.535-19.086,22.714
				c-0.411,11.184,0,22.458,0,33.648c0,7.414,0,14.828,0,22.241c0,4.055-0.37,8.414,0.375,12.427
				c2.073,11.17,11.534,18.676,22.714,19.087c3.528,0.13,7.085,0,10.614,0c15.092,0,30.184,0,45.275,0
				c4.054,0,8.414,0.37,12.426-0.375c11.17-2.074,18.677-11.536,19.087-22.715C181.196,151.236,171.196,151.259,170.959,157.688z"/>
		</g>
	</g>
	<g>
		<g>
			<path style="fill:#FFFFFF;" d="M97.16,133.033c19,0,38,0,57,0c9.687,0,9.772-15.003,0.108-15.003c-19,0-38,0-57,0
				C87.582,118.03,87.496,133.033,97.16,133.033L97.16,133.033z"/>
		</g>
	</g>
</g>
<g id="Ebene_1">
</g>
</svg>
