<?xml version="1.0" encoding="iso-8859-1"?>
<!-- Generator: Adobe Illustrator 16.0.0, SVG Export Plug-In . SVG Version: 6.00 Build 0)  -->
<!DOCTYPE svg PUBLIC "-//W3C//DTD SVG 1.1 Tiny//EN" "http://www.w3.org/Graphics/SVG/1.1/DTD/svg11-tiny.dtd">
<svg version="1.1" baseProfile="tiny" id="user_x5F_away"
	 xmlns="http://www.w3.org/2000/svg" xmlns:xlink="http://www.w3.org/1999/xlink" x="0px" y="0px" width="361px" height="361px"
	 viewBox="0 0 361 361" xml:space="preserve">
<g>
	<circle fill="#FFFFFF" cx="234.075" cy="159.442" r="28.836"/>
	<path fill="#FFFFFF" d="M234.076,188.961c-16.276,0-29.52-13.243-29.52-29.519s13.243-29.52,29.52-29.52
		c16.276,0,29.517,13.244,29.517,29.52S250.352,188.961,234.076,188.961z M234.076,131.288c-15.525,0-28.154,12.63-28.154,28.154
		c0,15.522,12.629,28.154,28.154,28.154c15.523,0,28.151-12.632,28.151-28.154C262.227,143.918,249.599,131.288,234.076,131.288z"/>
</g>
<path fill="#FFFFFF" d="M265.04,280.336c0,7.895-6.399,14.292-14.292,14.292h-33.348c-7.893,0-14.291-6.397-14.291-14.292v-71.745
	c0-7.894,6.398-14.291,14.291-14.291h33.348c7.893,0,14.292,6.397,14.292,14.291V280.336z"/>
<path fill="#FFFFFF" d="M271.338,207c0,16.777,0,62.553,0,79.331c0,11.444,17.746,11.444,17.746,0c0-16.778,0-62.554,0-79.331
	C289.084,195.556,271.338,195.556,271.338,207L271.338,207z"/>
<path fill="#FFFFFF" d="M179.065,206.998c0,16.779,0,62.554,0,79.331c0,11.444,17.746,11.444,17.746,0c0-16.777,0-62.552,0-79.331
	C196.811,195.555,179.065,195.555,179.065,206.998L179.065,206.998z"/>
<g>
	<g>
		<path fill="#FFFFFF" d="M74.567,80.352c0.135-0.669,0.073-0.452,1.508-0.452c1.904,0,3.808,0,5.711,0c6.272,0,12.544,0,18.816,0
			c15.979,0,31.958,0,47.938,0c5.803,0,11.607,0,17.411,0c1.463,0,2.927,0,4.391,0c1.404,0,0.584-0.323,0.584-0.145
			c0,10.217,0,20.435,0,30.652c0,15.838,0,31.677,0,47.516c0,5.147,0,10.295,0,15.443c0,1.011,0,2.021,0,3.031
			c0,0.533,0.683-0.264,0.357-0.264c-0.395,0-0.789,0-1.184,0c-27.024,0-54.049,0-81.073,0c-4.101,0-8.203,0-12.304,0
			c-0.796,0-1.592,0-2.388,0c0.471,0,0.357,0.649,0.357-0.827c0-9.894,0-19.788,0-29.681c0-22.068,0-44.137,0-66.205
			c0-4.514-7-4.514-7,0c0,24.776,0,49.551,0,74.327c0,5.803,0,11.607,0,17.411c0,3.167-0.49,6.608,1.363,9.357
			c2.15,3.188,6.35,2.618,9.668,2.618c5.55,0,11.101,0,16.651,0c25.326,0,50.651,0,75.976,0c9.515,0,6.576-17.093,6.576-22.846
			c0-15.679,0-31.359,0-47.038c0-10.995,0-21.99,0-32.985c0-9.625-12.08-7.364-18.482-7.364c-27.574,0-55.147,0-82.721,0
			c-4.083,0-7.944,0.829-8.906,5.59C66.927,82.897,73.673,84.774,74.567,80.352z"/>
	</g>
	<g>
		<path fill="#FFFFFF" d="M71.682,131.394c3.76,0,7.52,0,11.28,0c4.514,0,4.514-7,0-7c-3.76,0-7.52,0-11.28,0
			C67.168,124.394,67.168,131.394,71.682,131.394L71.682,131.394z"/>
	</g>
	<g>
		<path fill="#FFFFFF" d="M162.411,131.394c3.678,0,7.356,0,11.035,0c4.514,0,4.514-7,0-7c-3.678,0-7.356,0-11.035,0
			C157.896,124.394,157.896,131.394,162.411,131.394L162.411,131.394z"/>
	</g>
	<g>
		<path fill="#FFFFFF" d="M119.186,77.626c0,3.515,0,7.029,0,10.544c0,4.514,7,4.514,7,0c0-3.515,0-7.029,0-10.544
			C126.186,73.112,119.186,73.112,119.186,77.626L119.186,77.626z"/>
	</g>
	<g>
		<path fill="#FFFFFF" d="M119.186,167.619c0,3.596,0,7.193,0,10.789c0,4.514,7,4.514,7,0c0-3.596,0-7.193,0-10.789
			C126.186,163.104,119.186,163.104,119.186,167.619L119.186,167.619z"/>
	</g>
	<g>
		<path fill="#FFFFFF" d="M119.432,97.243c0,10.258,0,20.516,0,30.774c0,4.514,7,4.514,7,0c0-10.258,0-20.516,0-30.774
			C126.432,92.729,119.432,92.729,119.432,97.243L119.432,97.243z"/>
	</g>
	<g>
		<path fill="#FFFFFF" d="M120.702,130.615c4.414,4.414,8.828,8.827,13.242,13.241c3.195,3.194,8.145-1.755,4.95-4.95
			c-4.414-4.414-8.828-8.827-13.242-13.241C122.457,122.47,117.507,127.42,120.702,130.615L120.702,130.615z"/>
	</g>
</g>
</svg>
