<?xml version="1.0" encoding="iso-8859-1"?>
<!-- Generator: Adobe Illustrator 16.0.0, SVG Export Plug-In . SVG Version: 6.00 Build 0)  -->
<!DOCTYPE svg PUBLIC "-//W3C//DTD SVG 1.1 Tiny//EN" "http://www.w3.org/Graphics/SVG/1.1/DTD/svg11-tiny.dtd">
<svg version="1.1" baseProfile="tiny" id="vent_x5F_ventilation_x5F_level_x5F_manual_x5F_m"
	 xmlns="http://www.w3.org/2000/svg" xmlns:xlink="http://www.w3.org/1999/xlink" x="0px" y="0px" width="361px" height="361px"
	 viewBox="0 0 361 361" xml:space="preserve">
<path fill="none" stroke="#FFFFFF" stroke-width="10" stroke-miterlimit="10" d="M154.598,149.821
	c-0.497-1.854-2.006-3.064-3.371-2.697l-29.435,7.886c-1.363,0.365-2.066,2.167-1.569,4.022l13.653,50.958
	c0.499,1.855,2.007,3.064,3.373,2.698l29.435-7.887c1.363-0.366,2.066-2.167,1.569-4.022L154.598,149.821z"/>
<path fill="none" stroke="#FFFFFF" stroke-width="10" stroke-miterlimit="10" d="M156.013,115.793
	c-1.357,1.358-1.651,3.27-0.652,4.268l21.547,21.549c0.998,0.998,2.911,0.707,4.269-0.652l37.304-37.304
	c1.357-1.358,1.649-3.27,0.65-4.269l-21.548-21.546c-0.997-0.999-2.91-0.708-4.267,0.65L156.013,115.793z"/>
<path fill="none" stroke="#FFFFFF" stroke-width="10" stroke-miterlimit="10" d="M125.837,131.707
	c1.855,0.499,3.657-0.206,4.022-1.57l7.888-29.436c0.364-1.363-0.843-2.873-2.697-3.369L84.09,83.677
	c-1.856-0.497-3.656,0.207-4.022,1.57l-7.887,29.435c-0.366,1.365,0.841,2.875,2.697,3.372L125.837,131.707z"/>
<g>
	<path fill="#FFFFFF" d="M147.419,136.156c0.56-2.09,1.12-4.18,1.68-6.27c-2.786,0.735-5.571,1.471-8.357,2.207
		c1.53,1.53,3.06,3.06,4.59,4.59c0.735-2.786,1.471-5.571,2.207-8.357c-2.09,0.56-4.18,1.12-6.27,1.68
		c-2.631,0.705-4.211,3.537-3.492,6.15c0.726,2.639,3.52,4.197,6.15,3.492c2.09-0.56,4.18-1.12,6.27-1.68
		c3.642-0.976,4.853-5.71,2.207-8.357c-1.53-1.53-3.06-3.06-4.59-4.59c-2.647-2.646-7.381-1.436-8.357,2.207
		c-0.56,2.09-1.12,4.18-1.68,6.27c-0.705,2.631,0.853,5.424,3.492,6.15C143.882,140.367,146.714,138.788,147.419,136.156z"/>
</g>
<g>
	<g>
		<path fill="#FFFFFF" d="M238.757,231.835c0-9.88,0-19.76,0-29.64c0-6.245,0-12.491,0-18.736c0-1.511,0-3.021,0-4.532
			c0-2.691,3.228-1.898,5.123-1.898c1.232,0,4.695-0.571,4.695,1.476c0,1.488,0,2.976,0,4.464c0,6.18,0,12.359,0,18.539
			c0,10.109,0,20.218,0,30.328c0,4.514,7,4.514,7,0c0-11.729,0-23.457,0-35.186c0-5.797,0-11.594,0-17.391
			c0-6.473-4.82-9.23-10.74-9.23c-6.26,0-13.077,1.09-13.077,9.111c0,5.421,0,10.843,0,16.264c0,12.144,0,24.288,0,36.432
			C231.757,236.349,238.757,236.349,238.757,231.835L238.757,231.835z"/>
	</g>
	<g>
		<path fill="#FFFFFF" d="M223.049,261.889c0-11.067,0-22.133,0-33.2c0-7.314,0-14.629,0-21.944c0-4.869-0.457-10.226,0.398-14.996
			c0.455-2.54,5.473-1.3,7.748-1.3c2.684,0,0.563-0.036,0.563-1.078c0,0.647,0,1.294,0,1.942c0,6.184,0,12.368,0,18.552
			c0,11.797,0,23.594,0,35.391c0,4.514,7,4.514,7,0c0-11.797,0-23.594,0-35.391c0-6.184,0-12.368,0-18.552
			c0-1.515-0.022-2.697-0.428-4.196c-1.08-3.989-5.772-3.668-8.954-3.668c-3.149,0-6.25-0.352-9.173,0.962
			c-4.433,1.993-4.109,9.638-4.151,13.473c-0.042,3.904-0.002,7.811-0.002,11.715c0,15.005,0,30.01,0,45.015c0,2.425,0,4.85,0,7.274
			C216.049,266.402,223.049,266.402,223.049,261.889L223.049,261.889z"/>
	</g>
	<g>
		<path fill="#FFFFFF" d="M255.575,241.745c0-9.843,0-19.686,0-29.528c0-6.469,0-12.938,0-19.406c0-1.919,0-3.838,0-5.758
			c0-0.435,0-0.87,0-1.305c0,0.182-2.004,1.19-0.733,1.19c0.747,0,1.494,0,2.24,0c5.345,0,6.647,0.553,6.647,5.336
			c0,6.074,0,12.149,0,18.223c0,10.416,0,20.832,0,31.247c0,4.514,7,4.514,7,0c0-12.001,0-24.003,0-36.005
			c0-10.291,3.011-25.802-11.81-25.802c-5.727,0-10.345,0.753-10.345,7.471c0,5.997,0,11.993,0,17.99c0,12.107,0,24.215,0,36.323
			c0,0.007,0,0.015,0,0.023C248.575,246.259,255.575,246.259,255.575,241.745L255.575,241.745z"/>
	</g>
	<g>
		<path fill="#FFFFFF" d="M270.729,248.12c0-12.409,0-24.818,0-37.227c0-2.508,0-5.016,0-7.524c0-0.523,0-1.046,0-1.569
			c0,0.33-2.021,1.171-0.597,1.171c1.112,0,2.225,0,3.337,0c3.474,0,2.643,5.424,2.643,8.125c0,26.145,0,52.29,0,78.434
			c0,0.505,0,1.009,0,1.514c0,4.514,7,4.514,7,0c0-24.866,0-49.732,0-74.598c0-2.886,0-5.772,0-8.659
			c0-3.095-0.473-6.744-2.596-9.154c-2.607-2.959-6.063-2.662-9.661-2.662c-6.622,0-7.125,4.732-7.125,9.927
			c0,7.328,0,14.656,0,21.984c0,6.746,0,13.492,0,20.238C263.729,252.634,270.729,252.634,270.729,248.12L270.729,248.12z"/>
	</g>
	<g>
		<path fill="#FFFFFF" d="M210.566,291.221c-4.124-17.511-8.247-35.022-12.37-52.533c-0.769-3.265-1.662-4.898,2.263-6.16
			c1.465-0.471,5.15-2.109,5.793-0.105c0.5,1.556,1,3.112,1.5,4.667c2.783,8.664,5.567,17.328,8.351,25.992
			c1.375,4.279,8.135,2.449,6.75-1.861c-3.115-9.694-6.229-19.389-9.344-29.084c-1.872-5.826-5.823-8.204-12.062-7.229
			c-5.899,0.921-12.522,4.937-10.902,11.815c4.423,18.787,8.847,37.573,13.271,56.36C204.851,297.475,211.6,295.611,210.566,291.221
			L210.566,291.221z"/>
	</g>
</g>
</svg>
