<?xml version="1.0" encoding="iso-8859-1"?>
<!-- Generator: Adobe Illustrator 16.0.0, SVG Export Plug-In . SVG Version: 6.00 Build 0)  -->
<!DOCTYPE svg PUBLIC "-//W3C//DTD SVG 1.1//EN" "http://www.w3.org/Graphics/SVG/1.1/DTD/svg11.dtd">
<svg version="1.1" xmlns="http://www.w3.org/2000/svg" xmlns:xlink="http://www.w3.org/1999/xlink" x="0px" y="0px" width="361px"
	 height="361px" viewBox="0 0 361 361" style="enable-background:new 0 0 361 361;" xml:space="preserve">
<g id="vent_x5F_ventilation_x5F_control">
	<path style="fill:none;stroke:#FFFFFF;stroke-width:10;stroke-miterlimit:10;" d="M172.317,238.911
		c-0.382-1.425-1.542-2.355-2.591-2.073l-22.63,6.063c-1.048,0.28-1.588,1.666-1.206,3.092l10.497,39.178
		c0.383,1.426,1.543,2.355,2.593,2.074l22.63-6.063c1.047-0.282,1.588-1.667,1.205-3.093L172.317,238.911z"/>
	<path style="fill:none;stroke:#FFFFFF;stroke-width:10;stroke-miterlimit:10;" d="M173.405,212.75
		c-1.043,1.044-1.269,2.514-0.501,3.281l16.566,16.566c0.767,0.768,2.237,0.544,3.282-0.5l28.679-28.68
		c1.044-1.045,1.268-2.514,0.5-3.282l-16.566-16.565c-0.767-0.768-2.237-0.543-3.28,0.5L173.405,212.75z"/>
	<path style="fill:none;stroke:#FFFFFF;stroke-width:10;stroke-miterlimit:10;" d="M150.206,224.984
		c1.427,0.383,2.812-0.158,3.092-1.207l6.064-22.63c0.28-1.048-0.648-2.208-2.074-2.591l-39.177-10.498
		c-1.427-0.381-2.811,0.16-3.092,1.208l-6.063,22.629c-0.281,1.05,0.647,2.21,2.074,2.593L150.206,224.984z"/>
	<g>
		<g>
			<path style="fill:#FFFFFF;" d="M167.913,228.712c0.431-1.606,0.861-3.214,1.292-4.82c-2.786,0.735-5.571,1.471-8.357,2.206
				c1.176,1.177,2.353,2.354,3.528,3.529c0.735-2.785,1.471-5.571,2.207-8.356c-1.607,0.431-3.214,0.86-4.82,1.291
				c-2.631,0.705-4.211,3.537-3.492,6.15c0.726,2.64,3.52,4.197,6.15,3.492c1.607-0.431,3.214-0.86,4.82-1.291
				c3.643-0.976,4.853-5.71,2.207-8.356c-1.176-1.177-2.353-2.354-3.528-3.529c-2.646-2.647-7.381-1.436-8.357,2.206
				c-0.431,1.606-0.861,3.214-1.292,4.82c-0.705,2.631,0.853,5.425,3.492,6.15C164.376,232.923,167.208,231.343,167.913,228.712z"/>
		</g>
	</g>
	<g>
		<g>
			<g>
				<path style="fill:#FFFFFF;" d="M79.373,161.584c15.77-35.481,45.484-61.806,82.354-73.811
					c39.982-13.018,84.019-7.971,122.167,8.59c5.852,2.541,10.949-6.073,5.047-8.635c-40.863-17.74-86.938-23.159-129.873-9.598
					c-39.156,12.367-71.634,40.84-88.331,78.406C68.144,162.375,76.758,167.468,79.373,161.584L79.373,161.584z"/>
			</g>
		</g>
		<g>
			<g>
				<path style="fill:#FFFFFF;" d="M78.538,162.629c26.971-26.788,63.205-41.83,101.209-42.087
					c38.527-0.261,75.737,15.62,103.048,42.59c4.59,4.533,11.664-2.535,7.07-7.071c-29.012-28.651-67.952-45.045-108.745-45.515
					c-40.924-0.472-80.707,16.263-109.654,45.012C66.886,160.106,73.959,167.176,78.538,162.629L78.538,162.629z"/>
			</g>
		</g>
		<g>
			<g>
				<path style="fill:#FFFFFF;" d="M281.418,92.942c0,22.218,0,44.436,0,66.654c0,6.449,10,6.449,10,0c0-22.218,0-44.436,0-66.654
					C291.418,86.493,281.418,86.493,281.418,92.942L281.418,92.942z"/>
			</g>
		</g>
	</g>
	<path style="fill:#FFFFFF;" d="M231.453,180.24c0.813-0.336,1.659-0.72,2.541-1.155c0.882-0.434,1.743-0.91,2.583-1.428
		c0.84-0.518,1.645-1.063,2.415-1.638c0.77-0.574,1.463-1.183,2.079-1.827h4.368v29.106h-6.258V182.34
		c-0.84,0.561-1.779,1.07-2.814,1.533c-1.036,0.462-2.045,0.861-3.023,1.197L231.453,180.24z"/>
	<path style="fill:#FFFFFF;" d="M268.797,188.682c0,4.9-0.932,8.66-2.793,11.277c-1.863,2.618-4.432,3.927-7.707,3.927
		c-3.276,0-5.846-1.309-7.707-3.927c-1.863-2.617-2.793-6.377-2.793-11.277c0-2.436,0.244-4.592,0.734-6.468
		c0.49-1.875,1.197-3.458,2.121-4.746c0.924-1.288,2.03-2.268,3.318-2.94c1.287-0.672,2.73-1.008,4.326-1.008
		c3.275,0,5.844,1.309,7.707,3.927C267.865,180.065,268.797,183.811,268.797,188.682z M262.412,188.682
		c0-1.455-0.07-2.778-0.209-3.969c-0.141-1.189-0.365-2.219-0.672-3.087c-0.309-0.868-0.729-1.54-1.261-2.016
		c-0.532-0.476-1.19-0.714-1.974-0.714c-0.785,0-1.436,0.238-1.953,0.714c-0.519,0.477-0.938,1.148-1.26,2.016
		c-0.322,0.868-0.554,1.897-0.693,3.087c-0.141,1.19-0.21,2.514-0.21,3.969c0,1.457,0.069,2.787,0.21,3.99
		c0.14,1.204,0.371,2.24,0.693,3.107c0.321,0.869,0.741,1.541,1.26,2.017c0.518,0.477,1.168,0.714,1.953,0.714
		c0.783,0,1.441-0.237,1.974-0.714c0.532-0.476,0.952-1.147,1.261-2.017c0.307-0.867,0.531-1.903,0.672-3.107
		C262.342,191.469,262.412,190.139,262.412,188.682z"/>
	<path style="fill:#FFFFFF;" d="M291.652,188.682c0,4.9-0.932,8.66-2.793,11.277c-1.862,2.618-4.431,3.927-7.707,3.927
		c-3.275,0-5.845-1.309-7.707-3.927c-1.862-2.617-2.793-6.377-2.793-11.277c0-2.436,0.245-4.592,0.735-6.468
		c0.489-1.875,1.196-3.458,2.121-4.746c0.924-1.288,2.03-2.268,3.317-2.94c1.288-0.672,2.73-1.008,4.326-1.008
		c3.276,0,5.845,1.309,7.707,3.927C290.721,180.065,291.652,183.811,291.652,188.682z M285.269,188.682
		c0-1.455-0.07-2.778-0.21-3.969c-0.141-1.189-0.364-2.219-0.672-3.087c-0.309-0.868-0.729-1.54-1.26-2.016
		c-0.533-0.476-1.191-0.714-1.975-0.714c-0.784,0-1.436,0.238-1.953,0.714c-0.518,0.477-0.938,1.148-1.26,2.016
		c-0.322,0.868-0.553,1.897-0.693,3.087c-0.141,1.19-0.209,2.514-0.209,3.969c0,1.457,0.068,2.787,0.209,3.99
		c0.141,1.204,0.371,2.24,0.693,3.107c0.322,0.869,0.742,1.541,1.26,2.017c0.518,0.477,1.169,0.714,1.953,0.714
		c0.783,0,1.441-0.237,1.975-0.714c0.531-0.476,0.951-1.147,1.26-2.017c0.308-0.867,0.531-1.903,0.672-3.107
		C285.198,191.469,285.269,190.139,285.269,188.682z"/>
	<path style="fill:#FFFFFF;" d="M90.821,187.888c0,4.9-0.932,8.659-2.793,11.277c-1.862,2.618-4.431,3.927-7.707,3.927
		c-3.276,0-5.845-1.309-7.707-3.927c-1.863-2.618-2.793-6.377-2.793-11.277c0-2.436,0.245-4.592,0.735-6.468
		c0.489-1.875,1.197-3.458,2.121-4.746c0.924-1.288,2.03-2.268,3.318-2.94c1.288-0.672,2.73-1.008,4.326-1.008
		c3.276,0,5.844,1.309,7.707,3.927C89.89,179.271,90.821,183.016,90.821,187.888z M84.437,187.888c0-1.456-0.07-2.778-0.21-3.969
		c-0.141-1.19-0.364-2.219-0.672-3.087c-0.309-0.868-0.729-1.54-1.26-2.016c-0.532-0.476-1.19-0.714-1.974-0.714
		c-0.785,0-1.436,0.238-1.953,0.714c-0.519,0.477-0.938,1.148-1.26,2.016c-0.322,0.868-0.553,1.896-0.693,3.087
		c-0.141,1.19-0.21,2.513-0.21,3.969s0.069,2.786,0.21,3.99c0.14,1.204,0.371,2.24,0.693,3.108c0.322,0.867,0.742,1.54,1.26,2.016
		c0.518,0.477,1.168,0.714,1.953,0.714c0.783,0,1.441-0.237,1.974-0.714c0.532-0.476,0.952-1.148,1.26-2.016
		c0.308-0.868,0.531-1.904,0.672-3.108C84.367,190.674,84.437,189.344,84.437,187.888z"/>
</g>
<g id="Ebene_1">
</g>
</svg>
