<?xml version="1.0" encoding="iso-8859-1"?>
<!-- Generator: Adobe Illustrator 16.0.0, SVG Export Plug-In . SVG Version: 6.00 Build 0)  -->
<!DOCTYPE svg PUBLIC "-//W3C//DTD SVG 1.1//EN" "http://www.w3.org/Graphics/SVG/1.1/DTD/svg11.dtd">
<svg version="1.1" xmlns="http://www.w3.org/2000/svg" xmlns:xlink="http://www.w3.org/1999/xlink" x="0px" y="0px" width="361px"
	 height="361px" viewBox="0 0 361 361" style="enable-background:new 0 0 361 361;" xml:space="preserve">
<g id="vent_x5F_ventilation_x5F_level_x5F_2">
	<path style="fill:none;stroke:#FFFFFF;stroke-width:10;stroke-miterlimit:10;" d="M193.252,187.957
		c-0.713-2.662-2.88-4.398-4.838-3.873l-42.253,11.322c-1.957,0.523-2.966,3.108-2.252,5.773l19.6,73.148
		c0.715,2.662,2.88,4.397,4.839,3.871l42.252-11.32c1.957-0.525,2.967-3.111,2.254-5.773L193.252,187.957z"/>
	<path style="fill:none;stroke:#FFFFFF;stroke-width:10;stroke-miterlimit:10;" d="M195.281,139.111
		c-1.948,1.949-2.367,4.693-0.935,6.126l30.931,30.932c1.434,1.432,4.178,1.015,6.127-0.935l53.549-53.549
		c1.948-1.949,2.367-4.693,0.934-6.126l-30.932-30.93c-1.432-1.434-4.176-1.016-6.125,0.934L195.281,139.111z"/>
	<path style="fill:none;stroke:#FFFFFF;stroke-width:10;stroke-miterlimit:10;" d="M151.967,161.954
		c2.664,0.716,5.249-0.295,5.773-2.254l11.322-42.253c0.523-1.957-1.209-4.124-3.872-4.837L92.041,93.008
		c-2.664-0.711-5.248,0.298-5.773,2.255l-11.322,42.252c-0.525,1.959,1.209,4.126,3.873,4.839L151.967,161.954z"/>
	<g>
		<g>
			<path style="fill:#FFFFFF;" d="M174.781,174.764c2.083-7.772,4.166-15.545,6.249-23.318c-2.786,0.735-5.572,1.471-8.357,2.207
				c5.69,5.69,11.38,11.38,17.07,17.07c0.735-2.786,1.471-5.571,2.206-8.357c-7.772,2.083-15.545,4.165-23.318,6.248
				c-6.223,1.667-3.579,11.314,2.658,9.643c7.773-2.083,15.545-4.165,23.318-6.248c3.643-0.976,4.854-5.71,2.206-8.357
				c-5.689-5.69-11.38-11.38-17.069-17.07c-2.647-2.646-7.381-1.436-8.357,2.207c-2.083,7.772-4.166,15.545-6.248,23.318
				C163.467,178.343,173.113,180.987,174.781,174.764z"/>
		</g>
	</g>
	<g>
		<g>
			<path style="fill:#FFFFFF;" d="M81.904,178.101c-3.407-8.751-5.495-16.106-3.231-25.493c0.454-1.88-2.439-2.678-2.893-0.798
				c-2.391,9.915-0.403,17.754,3.231,27.089C79.706,180.681,82.607,179.907,81.904,178.101L81.904,178.101z"/>
		</g>
	</g>
	<g>
		<g>
			<path style="fill:#FFFFFF;" d="M92.54,173.535c-3.32-5.645-3.808-10.633-2.695-17.136c0.324-1.892-2.567-2.702-2.893-0.798
				c-1.25,7.302-0.751,13.076,2.997,19.448C90.929,176.715,93.523,175.206,92.54,173.535L92.54,173.535z"/>
		</g>
	</g>
	<g>
		<g>
			<path style="fill:#FFFFFF;" d="M243.579,238.616c-5.868,7.323-11.232,12.872-20.491,15.558c-1.854,0.538-1.065,3.433,0.797,2.893
				c9.77-2.833,15.587-8.556,21.815-16.329C246.897,239.243,244.789,237.106,243.579,238.616L243.579,238.616z"/>
		</g>
	</g>
	<g>
		<g>
			<path style="fill:#FFFFFF;" d="M234.307,231.683c-1.131,1.995-2.256,3.913-3.88,5.556c-2.595,2.624-6.247,4.12-9.642,5.365
				c-1.801,0.66-1.023,3.561,0.797,2.893c3.806-1.396,7.474-3.046,10.546-5.74c2.057-1.804,3.438-4.21,4.769-6.56
				C237.852,231.511,235.26,230,234.307,231.683L234.307,231.683z"/>
		</g>
	</g>
	<g>
		<g>
			<path style="fill:#FFFFFF;" d="M212.857,72.113c9.28,1.423,16.745,3.296,23.722,9.962c1.397,1.336,3.522-0.783,2.121-2.121
				c-7.361-7.034-15.176-9.22-25.046-10.733C211.763,68.931,210.949,71.821,212.857,72.113L212.857,72.113z"/>
		</g>
	</g>
	<g>
		<g>
			<path style="fill:#FFFFFF;" d="M211.506,83.613c6.556-0.053,11.122,2.016,16.204,6.242c1.476,1.228,3.61-0.883,2.121-2.121
				c-5.688-4.729-10.943-7.18-18.325-7.121C209.572,80.628,209.57,83.628,211.506,83.613L211.506,83.613z"/>
		</g>
	</g>
	<g>
		<path style="fill:#FFFFFF;" d="M148.557,154.408c1.998,0.537,3.937-0.221,4.33-1.69l8.491-31.689
			c0.392-1.468-0.907-3.093-2.904-3.628l-54.862-14.701c-1.998-0.534-3.936,0.224-4.33,1.691l-8.491,31.689
			c-0.394,1.469,0.907,3.095,2.904,3.629L148.557,154.408z"/>
		<path style="fill:#FFFFFF;" d="M140.395,152.264c1.998,0.537,3.937-0.221,4.33-1.69l8.491-31.689
			c0.392-1.468-0.907-3.093-2.904-3.628L95.45,100.555c-1.998-0.534-3.936,0.224-4.33,1.691l-8.491,31.689
			c-0.394,1.469,0.907,3.095,2.904,3.629L140.395,152.264z"/>
	</g>
	<g>
		<path style="fill:#FFFFFF;" d="M209.428,133.829c-1.461,1.462-1.775,3.52-0.701,4.595l23.199,23.199
			c1.074,1.074,3.132,0.761,4.595-0.701l40.161-40.162c1.461-1.462,1.775-3.52,0.7-4.595l-23.198-23.197
			c-1.074-1.076-3.133-0.762-4.595,0.701L209.428,133.829z"/>
		<path style="fill:#FFFFFF;" d="M203.615,139.642c-1.461,1.462-1.775,3.52-0.701,4.595l23.199,23.199
			c1.074,1.074,3.132,0.761,4.595-0.701l40.161-40.162c1.461-1.462,1.775-3.52,0.7-4.595L248.371,98.78
			c-1.074-1.076-3.133-0.762-4.595,0.701L203.615,139.642z"/>
	</g>
</g>
<g id="Ebene_1">
</g>
</svg>
