<?xml version="1.0" encoding="iso-8859-1"?>
<!-- Generator: Adobe Illustrator 16.0.0, SVG Export Plug-In . SVG Version: 6.00 Build 0)  -->
<!DOCTYPE svg PUBLIC "-//W3C//DTD SVG 1.1//EN" "http://www.w3.org/Graphics/SVG/1.1/DTD/svg11.dtd">
<svg version="1.1" xmlns="http://www.w3.org/2000/svg" xmlns:xlink="http://www.w3.org/1999/xlink" x="0px" y="0px" width="361px"
	 height="361px" viewBox="0 0 361 361" style="enable-background:new 0 0 361 361;" xml:space="preserve">
<g id="vent_x5F_exhaust_x5F_air">
	<g id="Zuluft_2_" style="display:none;">
		<g style="display:inline;">
			<g>
				<path style="fill:#FFFFFF;" d="M136.512,268.935c0.351,4.154,1.696,8.337,6.619,8.337c3.457,0,6.914,0,10.371,0
					c2.369,0,4.737,0,7.105,0c4.56,0,6.041-4.951,6.041-8.653c0-12.393,0-24.784,0-37.177c0-7.061,0-14.12,0-21.181
					c0-4.117,0.876-10.327-2.505-13.259c-2.232-1.936-5.187-1.465-7.932-1.465c-3.842,0-7.684,0-11.525,0
					c-6.444,0-8.174,4.386-8.174,10.229C136.512,226.822,136.512,247.879,136.512,268.935c0,6.448,10,6.448,10,0
					c0-10.844,0-21.688,0-32.531c0-7.579,0-15.157,0-22.736c0-2.369,0-4.738,0-7.107c0-0.438,0.344-3.15-0.422-2.487
					c-1.179,0.488-2.357,0.977-3.536,1.465c6.018,0,12.036,0,18.053,0c-1.179-0.488-2.357-0.977-3.536-1.465
					c-0.768-0.666-0.424,1.66-0.424,2.075c0,2.507,0,5.013,0,7.52c0,7.579,0,15.157,0,22.736s0,15.157,0,22.736
					c0,2.369,0,4.738,0,7.107c0,0.434-0.343,3.154,0.424,2.489c1.179-0.488,2.357-0.977,3.536-1.465c-6.018,0-12.036,0-18.053,0
					c1.179,0.488,2.357,0.977,3.536,1.465c0.141,0.065,0.282,0.132,0.422,0.198C145.973,262.558,135.968,262.506,136.512,268.935z"
					/>
			</g>
		</g>
		<g style="display:inline;">
			<g>
				<path style="fill:#FFFFFF;" d="M138.543,182.021c-22.024,16.833-44.048,33.665-66.071,50.498c-3.178,2.429-3.178,6.206,0,8.635
					c22.023,16.833,44.047,33.665,66.071,50.498c3.126,2.39,7.523-0.882,7.523-4.317c0-33.665,0-67.331,0-100.996
					c0-6.449-10-6.449-10,0c0,33.665,0,67.331,0,100.996c2.508-1.439,5.016-2.878,7.523-4.317
					c-22.023-16.833-44.047-33.665-66.071-50.498c0,2.878,0,5.757,0,8.635c22.024-16.833,44.048-33.665,66.071-50.498
					C148.64,186.796,143.668,178.103,138.543,182.021z"/>
			</g>
		</g>
	</g>
	<g id="Abluft_2_">
		<g>
			<g>
				<path style="fill:#FFFFFF;" d="M215.131,268.935c0.141-0.066,0.281-0.133,0.423-0.198c1.178-0.488,2.356-0.977,3.535-1.465
					c-6.018,0-12.036,0-18.054,0c1.179,0.488,2.357,0.977,3.535,1.465c0.768,0.666,0.425-1.665,0.425-2.077c0-2.507,0-5.013,0-7.52
					c0-7.579,0-15.157,0-22.736s0-15.157,0-22.736c0-2.369,0-4.738,0-7.107c0-0.437,0.345-3.154-0.425-2.487
					c-1.178,0.488-2.356,0.977-3.535,1.465c6.018,0,12.036,0,18.054,0c-1.179-0.488-2.357-0.977-3.535-1.465
					c-0.767-0.663-0.423,1.659-0.423,2.075c0,2.265,0,4.529,0,6.794c0,7.488,0,14.978,0,22.466
					C215.131,246.583,215.131,257.759,215.131,268.935c0,6.448,10,6.448,10,0c0-11.176,0-22.352,0-33.527c0-7.488,0-14.978,0-22.466
					c0-3.59,0.781-8.555-0.321-12.082c-2.383-7.626-12.185-5.322-18.511-5.322c-2.303,0-5.692-0.544-7.787,0.683
					c-2.972,1.741-3.517,5.187-3.517,8.354c0,12.917,0,25.835,0,38.753c0,6.194,0,12.39,0,18.584c0,2.992-0.592,7.108,0.32,10.037
					c2.208,7.083,9.782,5.323,15.712,5.323c2.6,0,5.199,0,7.799,0c4.756,0,5.979-4.474,6.305-8.337
					C225.674,262.506,215.67,262.558,215.131,268.935z"/>
			</g>
		</g>
		<g>
			<g>
				<path style="fill:#FFFFFF;" d="M218.053,190.655c22.023,16.833,44.047,33.665,66.071,50.498c0-2.878,0-5.757,0-8.635
					c-22.024,16.833-44.048,33.665-66.071,50.498c2.508,1.439,5.016,2.878,7.523,4.317c0-33.665,0-67.331,0-100.996
					c0-6.449-10-6.449-10,0c0,33.665,0,67.331,0,100.996c0,3.436,4.396,6.707,7.523,4.317
					c22.023-16.833,44.048-33.665,66.071-50.498c3.178-2.429,3.178-6.206,0-8.635c-22.023-16.833-44.048-33.665-66.071-50.498
					C217.975,178.103,213.003,186.796,218.053,190.655z"/>
			</g>
		</g>
	</g>
	<g>
		<g>
			<path style="fill:#FFFFFF;" d="M161.833,286.334c0-36.111,0-72.223,0-108.333c0-6.449-10-6.449-10,0c0,36.111,0,72.222,0,108.333
				C151.833,292.782,161.833,292.782,161.833,286.334L161.833,286.334z"/>
		</g>
	</g>
	<g>
		<g>
			<path style="fill:#FFFFFF;" d="M161.833,120.001c0-6.956,0-13.911,0-20.866c0-6.449-10-6.449-10,0c0,6.956,0,13.911,0,20.866
				C151.833,126.45,161.833,126.45,161.833,120.001L161.833,120.001z"/>
		</g>
	</g>
	<g>
		<g>
			<path style="fill:#FFFFFF;" d="M198.759,113.632c-28.203-14.46-56.406-28.92-84.609-43.38c-5.727-2.936-10.787,5.692-5.047,8.635
				c28.203,14.46,56.406,28.92,84.609,43.38C199.438,125.203,204.499,116.575,198.759,113.632L198.759,113.632z"/>
		</g>
	</g>
	<g>
		<g>
			<path style="fill:#FFFFFF;" d="M136.833,150.984c6.2-1.85,12.492-3.471,18.851-4.672c8.5-1.605,15.959,0.971,23.905,3.886
				c10.954,4.018,22.235,10.623,34.065,11.009c7.296,0.238,15.346-3.587,21.991-6.186c4.038-1.579,8.011-3.305,12.074-4.823
				c7.977-2.98,15.38-5.382,23.906-3.886c6.361,1.116,12.664,2.827,18.851,4.672c1.858,0.555,2.646-2.341,0.797-2.893
				c-6.2-1.85-12.491-3.471-18.851-4.673c-7.98-1.507-14.637,0.111-22.247,2.718c-11.71,4.011-24.009,11.662-36.521,12.07
				c-7.452,0.243-15.945-3.972-22.727-6.689c-4.586-1.838-9.129-3.741-13.794-5.38c-7.143-2.51-13.599-4.118-21.125-2.915
				c-6.746,1.079-13.432,2.918-19.974,4.87C134.186,148.643,134.974,151.539,136.833,150.984L136.833,150.984z"/>
		</g>
	</g>
	<g>
		<g>
			<path style="fill:#FFFFFF;" d="M144.425,159.588c6.024-2.177,12.932-4.321,19.379-3.757c6.911,0.605,13.977,3.766,20.365,6.296
				c9.375,3.713,19.262,8.915,29.485,9.248c6.396,0.208,13.369-2.933,19.231-5.123c3.208-1.198,6.352-2.547,9.524-3.832
				c6.354-2.575,12.89-5.027,19.629-6.363c6.764-1.341,14.501,1.237,20.846,3.53c1.823,0.659,2.602-2.24,0.797-2.893
				c-5.921-2.14-12.23-3.792-18.546-3.964c-6.732-0.185-14.043,3.152-20.203,5.492c-9.988,3.794-20.465,9.8-31.278,10.152
				c-6.682,0.218-14.219-3.385-20.328-5.741c-3.364-1.297-6.668-2.743-10.026-4.056c-6.488-2.538-13.35-5.21-20.343-5.822
				c-6.329-0.554-13.449,1.813-19.33,3.939C141.822,157.348,142.601,160.247,144.425,159.588L144.425,159.588z"/>
		</g>
	</g>
	<g>
		<g>
			<path style="fill:#FFFFFF;" d="M144.542,139.316c6.024-2.177,12.932-4.322,19.379-3.758c6.912,0.605,13.978,3.767,20.365,6.297
				c9.375,3.713,19.262,8.914,29.485,9.248c6.396,0.208,13.369-2.933,19.231-5.122c3.207-1.198,6.351-2.547,9.523-3.832
				c6.354-2.575,12.89-5.027,19.63-6.363c6.764-1.341,14.502,1.238,20.846,3.531c1.823,0.659,2.602-2.24,0.797-2.893
				c-5.921-2.141-12.23-3.792-18.546-3.965c-6.732-0.185-14.043,3.152-20.203,5.492c-9.988,3.794-20.465,9.799-31.278,10.152
				c-6.682,0.218-14.219-3.384-20.328-5.74c-3.364-1.297-6.668-2.743-10.026-4.056c-6.488-2.537-13.35-5.21-20.343-5.822
				c-6.329-0.554-13.449,1.814-19.33,3.939C141.939,137.076,142.718,139.976,144.542,139.316L144.542,139.316z"/>
		</g>
	</g>
</g>
<g id="Ebene_1">
</g>
</svg>
