<?xml version="1.0" encoding="iso-8859-1"?>
<!-- Generator: Adobe Illustrator 16.0.0, SVG Export Plug-In . SVG Version: 6.00 Build 0)  -->
<!DOCTYPE svg PUBLIC "-//W3C//DTD SVG 1.1//EN" "http://www.w3.org/Graphics/SVG/1.1/DTD/svg11.dtd">
<svg version="1.1" xmlns="http://www.w3.org/2000/svg" xmlns:xlink="http://www.w3.org/1999/xlink" x="0px" y="0px" width="361px"
	 height="361px" viewBox="0 0 361 361" style="enable-background:new 0 0 361 361;" xml:space="preserve">
<g id="vent_x5F_air_x5F_filter_x5F_full">
	<g id="Abluft_19_" style="display:none;">
		<g style="display:inline;">
			<g>
				<path style="fill:#FFFFFF;" d="M90.131,268.935c0.141-0.066,0.282-0.133,0.422-0.198c1.179-0.488,2.357-0.977,3.536-1.465
					c-6.018,0-12.036,0-18.053,0c1.179,0.488,2.357,0.977,3.536,1.465c0.767,0.665,0.424-1.665,0.424-2.077c0-2.507,0-5.013,0-7.52
					c0-7.579,0-15.157,0-22.736s0-15.157,0-22.736c0-2.369,0-4.738,0-7.107c0-0.437,0.345-3.153-0.424-2.487
					c-1.179,0.488-2.357,0.977-3.536,1.465c6.018,0,12.036,0,18.053,0c-1.179-0.488-2.357-0.977-3.536-1.465
					c-0.767-0.663-0.422,1.659-0.422,2.075c0,2.265,0,4.529,0,6.794c0,7.488,0,14.978,0,22.466
					C90.131,246.583,90.131,257.759,90.131,268.935c0,6.448,10,6.448,10,0c0-11.176,0-22.352,0-33.527c0-7.488,0-14.978,0-22.466
					c0-3.59,0.782-8.555-0.321-12.082c-2.383-7.625-12.185-5.322-18.511-5.322c-2.303,0-5.692-0.544-7.787,0.683
					c-2.972,1.741-3.517,5.187-3.517,8.354c0,12.917,0,25.835,0,38.753c0,6.194,0,12.39,0,18.584c0,2.992-0.592,7.108,0.321,10.037
					c2.209,7.083,9.781,5.323,15.712,5.323c2.599,0,5.199,0,7.798,0c4.756,0,5.979-4.474,6.305-8.337
					C100.674,262.506,90.67,262.558,90.131,268.935z"/>
			</g>
		</g>
		<g style="display:inline;">
			<g>
				<path style="fill:#FFFFFF;" d="M93.053,190.655c22.023,16.833,44.047,33.665,66.071,50.498c0-2.878,0-5.757,0-8.635
					c-22.024,16.833-44.048,33.665-66.071,50.498c2.508,1.439,5.016,2.878,7.523,4.317c0-33.665,0-67.331,0-100.996
					c0-6.449-10-6.449-10,0c0,33.665,0,67.331,0,100.996c0,3.436,4.397,6.707,7.523,4.317
					c22.024-16.833,44.048-33.665,66.071-50.498c3.178-2.429,3.178-6.206,0-8.635c-22.023-16.833-44.047-33.665-66.071-50.498
					C92.974,178.103,88.003,186.796,93.053,190.655z"/>
			</g>
		</g>
	</g>
	<g>
		<g>
			<path style="fill:#FFFFFF;" d="M136.833,150.984c6.2-1.85,12.492-3.471,18.851-4.672c8.5-1.605,15.959,0.971,23.905,3.886
				c10.954,4.018,22.235,10.623,34.065,11.009c7.296,0.238,15.346-3.587,21.991-6.186c4.038-1.579,8.011-3.305,12.074-4.823
				c7.977-2.98,15.38-5.382,23.906-3.886c6.361,1.116,12.664,2.827,18.851,4.672c1.858,0.555,2.646-2.341,0.797-2.893
				c-6.2-1.85-12.491-3.471-18.851-4.673c-7.98-1.507-14.637,0.111-22.247,2.718c-11.71,4.011-24.009,11.662-36.521,12.07
				c-7.452,0.243-15.945-3.972-22.727-6.689c-4.586-1.838-9.129-3.741-13.794-5.38c-7.143-2.51-13.599-4.118-21.125-2.915
				c-6.746,1.079-13.432,2.918-19.974,4.87C134.186,148.643,134.974,151.539,136.833,150.984L136.833,150.984z"/>
		</g>
	</g>
	<g>
		<g>
			<path style="fill:#FFFFFF;" d="M144.425,159.588c6.024-2.177,12.932-4.321,19.379-3.757c6.911,0.605,13.977,3.766,20.365,6.296
				c9.375,3.713,19.262,8.915,29.485,9.248c6.396,0.208,13.369-2.933,19.231-5.123c3.208-1.198,6.352-2.547,9.524-3.832
				c6.354-2.575,12.89-5.027,19.629-6.363c6.764-1.341,14.501,1.237,20.846,3.53c1.823,0.659,2.602-2.24,0.797-2.893
				c-5.921-2.14-12.23-3.792-18.546-3.964c-6.732-0.185-14.043,3.152-20.203,5.492c-9.988,3.794-20.465,9.8-31.278,10.152
				c-6.682,0.218-14.219-3.385-20.328-5.741c-3.364-1.297-6.668-2.743-10.026-4.056c-6.488-2.538-13.35-5.21-20.343-5.822
				c-6.329-0.554-13.449,1.813-19.33,3.939C141.822,157.348,142.601,160.247,144.425,159.588L144.425,159.588z"/>
		</g>
	</g>
	<g>
		<g>
			<path style="fill:#FFFFFF;" d="M144.542,139.316c6.024-2.177,12.932-4.322,19.379-3.758c6.912,0.605,13.978,3.767,20.365,6.297
				c9.375,3.713,19.262,8.914,29.485,9.248c6.396,0.208,13.369-2.933,19.231-5.122c3.207-1.198,6.351-2.547,9.523-3.832
				c6.354-2.575,12.89-5.027,19.63-6.363c6.764-1.341,14.502,1.238,20.846,3.531c1.823,0.659,2.602-2.24,0.797-2.893
				c-5.921-2.141-12.23-3.792-18.546-3.965c-6.732-0.185-14.043,3.152-20.203,5.492c-9.988,3.794-20.465,9.799-31.278,10.152
				c-6.682,0.218-14.219-3.384-20.328-5.74c-3.364-1.297-6.668-2.743-10.026-4.056c-6.488-2.537-13.35-5.21-20.343-5.822
				c-6.329-0.554-13.449,1.814-19.33,3.939C141.939,137.076,142.718,139.976,144.542,139.316L144.542,139.316z"/>
		</g>
	</g>
	<g style="display:none;">
		<g style="display:inline;">
			<g>
				<path style="fill:#FFFFFF;" d="M106.074,277.078c-0.209,2.072-9.201,1-10.483,1c-7.652,0-15.305,0-22.957,0
					c-2.511,0-30.447,1.195-30.447-1.061c0-18.241,0-36.482,0-54.724c0-31.961,0-63.923,0-95.884c0-11.703,0-23.405,0-35.108
					c0-1.623-1.292-12.72,1.333-12.72c12.677,0,25.354,0,38.031,0c6.579,0,13.158,0,19.737,0c1.559,0,4.785-0.721,4.785,1.533
					c0,19.915,0,39.83,0,59.745C106.074,185.6,106.074,231.339,106.074,277.078c0,6.448,10,6.448,10,0c0-49.353,0-98.705,0-148.058
					c0-12.055,0-24.111,0-36.167c0-5.292,0.952-11.777-0.65-16.937c-2.024-6.52-8.404-7.335-14.135-7.335
					c-6.579,0-13.158,0-19.737,0c-12.677,0-25.354,0-38.031,0c-10.69,0-11.333,9.536-11.333,17.384c0,10.156,0,20.312,0,30.467
					c0,31.582,0,63.163,0,94.745c0,21.48,0,42.96,0,64.44c0,4.769,1.738,8.917,6.141,11.306c3.556,1.93,9.012,1.154,12.9,1.154
					c15.031,0,30.063,0,45.094,0c8.72,0,18.591,0.505,19.751-11C116.721,270.663,106.714,270.726,106.074,277.078z"/>
			</g>
		</g>
		<g style="display:inline;">
			<g>
				<path style="fill:#FFFFFF;" d="M37.452,87.813c24.629,0,49.258,0,73.887,0c1.935,0,1.935-3,0-3c-24.629,0-49.258,0-73.887,0
					C35.517,84.813,35.517,87.813,37.452,87.813L37.452,87.813z"/>
			</g>
		</g>
		<g style="display:inline;">
			<g>
				<path style="fill:#FFFFFF;" d="M37.452,103.815c24.629,0,49.258,0,73.887,0c1.935,0,1.935-3,0-3c-24.629,0-49.258,0-73.887,0
					C35.517,100.815,35.517,103.815,37.452,103.815L37.452,103.815z"/>
			</g>
		</g>
		<g style="display:inline;">
			<g>
				<path style="fill:#FFFFFF;" d="M37.452,119.816c24.629,0,49.258,0,73.887,0c1.935,0,1.935-3,0-3c-24.629,0-49.258,0-73.887,0
					C35.517,116.816,35.517,119.816,37.452,119.816L37.452,119.816z"/>
			</g>
		</g>
		<g style="display:inline;">
			<g>
				<path style="fill:#FFFFFF;" d="M37.452,151.819c24.629,0,49.258,0,73.887,0c1.935,0,1.935-3,0-3c-24.629,0-49.258,0-73.887,0
					C35.517,148.819,35.517,151.819,37.452,151.819L37.452,151.819z"/>
			</g>
		</g>
		<g style="display:inline;">
			<g>
				<path style="fill:#FFFFFF;" d="M37.452,135.818c24.629,0,49.258,0,73.887,0c1.935,0,1.935-3,0-3c-24.629,0-49.258,0-73.887,0
					C35.517,132.818,35.517,135.818,37.452,135.818L37.452,135.818z"/>
			</g>
		</g>
		<g style="display:inline;">
			<g>
				<path style="fill:#FFFFFF;" d="M37.452,167.821c24.629,0,49.258,0,73.887,0c1.935,0,1.935-3,0-3c-24.629,0-49.258,0-73.887,0
					C35.517,164.821,35.517,167.821,37.452,167.821L37.452,167.821z"/>
			</g>
		</g>
		<g style="display:inline;">
			<g>
				<path style="fill:#FFFFFF;" d="M37.452,191.823c24.629,0,49.258,0,73.887,0c1.935,0,1.935-3,0-3c-24.629,0-49.258,0-73.887,0
					C35.517,188.823,35.517,191.823,37.452,191.823L37.452,191.823z"/>
			</g>
		</g>
		<g style="display:inline;">
			<g>
				<path style="fill:#FFFFFF;" d="M37.452,223.826c24.629,0,49.258,0,73.887,0c1.935,0,1.935-3,0-3c-24.629,0-49.258,0-73.887,0
					C35.517,220.826,35.517,223.826,37.452,223.826L37.452,223.826z"/>
			</g>
		</g>
		<g style="display:inline;">
			<g>
				<path style="fill:#FFFFFF;" d="M37.452,199.824c24.629,0,49.258,0,73.887,0c1.935,0,1.935-3,0-3c-24.629,0-49.258,0-73.887,0
					C35.517,196.824,35.517,199.824,37.452,199.824L37.452,199.824z"/>
			</g>
		</g>
		<g style="display:inline;">
			<g>
				<path style="fill:#FFFFFF;" d="M37.452,231.827c24.629,0,49.258,0,73.887,0c1.935,0,1.935-3,0-3c-24.629,0-49.258,0-73.887,0
					C35.517,228.827,35.517,231.827,37.452,231.827L37.452,231.827z"/>
			</g>
		</g>
		<g style="display:inline;">
			<g>
				<path style="fill:#FFFFFF;" d="M37.452,247.829c24.629,0,49.258,0,73.887,0c1.935,0,1.935-3,0-3c-24.629,0-49.258,0-73.887,0
					C35.517,244.829,35.517,247.829,37.452,247.829L37.452,247.829z"/>
			</g>
		</g>
		<g style="display:inline;">
			<g>
				<path style="fill:#FFFFFF;" d="M37.452,263.83c24.629,0,49.258,0,73.887,0c1.935,0,1.935-3,0-3c-24.629,0-49.258,0-73.887,0
					C35.517,260.83,35.517,263.83,37.452,263.83L37.452,263.83z"/>
			</g>
		</g>
		<g style="display:inline;">
			<g>
				<path style="fill:#FFFFFF;" d="M37.452,79.813c24.629,0,49.258,0,73.887,0c1.935,0,1.935-3,0-3c-24.629,0-49.258,0-73.887,0
					C35.517,76.813,35.517,79.813,37.452,79.813L37.452,79.813z"/>
			</g>
		</g>
		<g style="display:inline;">
			<g>
				<path style="fill:#FFFFFF;" d="M37.452,95.814c24.629,0,49.258,0,73.887,0c1.935,0,1.935-3,0-3c-24.629,0-49.258,0-73.887,0
					C35.517,92.814,35.517,95.814,37.452,95.814L37.452,95.814z"/>
			</g>
		</g>
		<g style="display:inline;">
			<g>
				<path style="fill:#FFFFFF;" d="M37.452,111.815c24.629,0,49.258,0,73.887,0c1.935,0,1.935-3,0-3c-24.629,0-49.258,0-73.887,0
					C35.517,108.815,35.517,111.815,37.452,111.815L37.452,111.815z"/>
			</g>
		</g>
		<g style="display:inline;">
			<g>
				<path style="fill:#FFFFFF;" d="M37.452,143.819c24.629,0,49.258,0,73.887,0c1.935,0,1.935-3,0-3c-24.629,0-49.258,0-73.887,0
					C35.517,140.819,35.517,143.819,37.452,143.819L37.452,143.819z"/>
			</g>
		</g>
		<g style="display:inline;">
			<g>
				<path style="fill:#FFFFFF;" d="M37.452,127.817c24.629,0,49.258,0,73.887,0c1.935,0,1.935-3,0-3c-24.629,0-49.258,0-73.887,0
					C35.517,124.817,35.517,127.817,37.452,127.817L37.452,127.817z"/>
			</g>
		</g>
		<g style="display:inline;">
			<g>
				<path style="fill:#FFFFFF;" d="M37.452,159.82c24.629,0,49.258,0,73.887,0c1.935,0,1.935-3,0-3c-24.629,0-49.258,0-73.887,0
					C35.517,156.82,35.517,159.82,37.452,159.82L37.452,159.82z"/>
			</g>
		</g>
		<g style="display:inline;">
			<g>
				<path style="fill:#FFFFFF;" d="M37.452,175.822c24.629,0,49.258,0,73.887,0c1.935,0,1.935-3,0-3c-24.629,0-49.258,0-73.887,0
					C35.517,172.822,35.517,175.822,37.452,175.822L37.452,175.822z"/>
			</g>
		</g>
		<g style="display:inline;">
			<g>
				<path style="fill:#FFFFFF;" d="M37.452,207.825c24.629,0,49.258,0,73.887,0c1.935,0,1.935-3,0-3c-24.629,0-49.258,0-73.887,0
					C35.517,204.825,35.517,207.825,37.452,207.825L37.452,207.825z"/>
			</g>
		</g>
		<g style="display:inline;">
			<g>
				<path style="fill:#FFFFFF;" d="M37.452,183.822c24.629,0,49.258,0,73.887,0c1.935,0,1.935-3,0-3c-24.629,0-49.258,0-73.887,0
					C35.517,180.822,35.517,183.822,37.452,183.822L37.452,183.822z"/>
			</g>
		</g>
		<g style="display:inline;">
			<g>
				<path style="fill:#FFFFFF;" d="M37.452,215.826c24.629,0,49.258,0,73.887,0c1.935,0,1.935-3,0-3c-24.629,0-49.258,0-73.887,0
					C35.517,212.826,35.517,215.826,37.452,215.826L37.452,215.826z"/>
			</g>
		</g>
		<g style="display:inline;">
			<g>
				<path style="fill:#FFFFFF;" d="M37.452,239.828c24.629,0,49.258,0,73.887,0c1.935,0,1.935-3,0-3c-24.629,0-49.258,0-73.887,0
					C35.517,236.828,35.517,239.828,37.452,239.828L37.452,239.828z"/>
			</g>
		</g>
		<g style="display:inline;">
			<g>
				<path style="fill:#FFFFFF;" d="M37.452,255.83c24.629,0,49.258,0,73.887,0c1.935,0,1.935-3,0-3c-24.629,0-49.258,0-73.887,0
					C35.517,252.83,35.517,255.83,37.452,255.83L37.452,255.83z"/>
			</g>
		</g>
		<g style="display:inline;">
			<g>
				<path style="fill:#FFFFFF;" d="M37.452,279.832c24.629,0,49.258,0,73.887,0c1.935,0,1.935-3,0-3c-24.629,0-49.258,0-73.887,0
					C35.517,276.832,35.517,279.832,37.452,279.832L37.452,279.832z"/>
			</g>
		</g>
		<g style="display:inline;">
			<g>
				<path style="fill:#FFFFFF;" d="M37.452,271.831c24.629,0,49.258,0,73.887,0c1.935,0,1.935-3,0-3c-24.629,0-49.258,0-73.887,0
					C35.517,268.831,35.517,271.831,37.452,271.831L37.452,271.831z"/>
			</g>
		</g>
	</g>
	<g>
		<g>
			<path style="fill:#FFFFFF;" d="M240.448,169.661c-7.995,22.067-15.99,44.134-23.985,66.201
				c-4.459,12.307-8.918,24.613-13.377,36.92c-0.727,2.006-1.366,4.164-2.255,6.075c-1.734,3.729-8.934,2.367-12.069,2.367
				c-15.074,0-30.148,0-45.223,0c-2.235,0-4.47,0-6.705,0c-0.548,0-1.096,0-1.644,0c-0.925,0,0.695,0.09,0.641,0.239
				c0.488-1.342,0.977-2.685,1.465-4.026c7.972-21.903,15.944-43.807,23.916-65.709c10.883-29.901,21.767-59.802,32.649-89.704
				c3.734-10.259,7.468-20.519,11.202-30.778c1.226-3.368,2.609-11.871,7.416-11.871c20.262,0,40.524,0,60.786,0
				c2.172,0,0.251-0.083,0.31-0.236c-0.352,0.925-0.703,1.851-1.056,2.775c-1.883,4.953-3.766,9.906-5.648,14.859
				c-3.407,8.959-6.813,17.919-10.22,26.879c-2.296,6.039,7.374,8.625,9.643,2.658c4.386-11.535,8.771-23.07,13.157-34.605
				c1.649-4.339,4.086-8.921,4.338-13.624c0.39-7.243-7.008-8.706-12.5-8.706c-14.464,0-28.929,0-43.393,0
				c-10.486,0-24.563-2.527-29.104,9.947c-17.237,47.36-34.475,94.72-51.712,142.079c-6.85,18.819-13.699,37.639-20.549,56.459
				c-1.769,4.859-0.603,10.813,4.811,12.708c3.69,1.291,8.368,0.655,12.197,0.655c15.075,0,30.149,0,45.223,0
				c4.104,0,8.547,0.459,12.544-0.655c5.505-1.536,8.264-6.407,10.055-11.351c3.831-10.575,7.663-21.15,11.494-31.726
				c8.955-24.715,17.909-49.43,26.863-74.145c0.125-0.343,0.249-0.686,0.373-1.029C252.293,166.242,242.627,163.647,240.448,169.661
				L240.448,169.661z"/>
		</g>
	</g>
	<g>
		<g>
			<path style="fill:#FFFFFF;" d="M201.48,88.75c24.905,0,49.811,0,74.716,0c1.935,0,1.935-3,0-3c-24.905,0-49.811,0-74.716,0
				C199.546,85.75,199.546,88.75,201.48,88.75L201.48,88.75z"/>
		</g>
	</g>
	<g>
		<g>
			<path style="fill:#FFFFFF;" d="M195.59,104.932c24.905,0,49.812,0,74.717,0c1.935,0,1.935-3,0-3c-24.905,0-49.812,0-74.717,0
				C193.655,101.932,193.655,104.932,195.59,104.932L195.59,104.932z"/>
		</g>
	</g>
	<g>
		<g>
			<path style="fill:#FFFFFF;" d="M189.701,121.113c24.905,0,49.812,0,74.717,0c1.935,0,1.935-3,0-3c-24.905,0-49.812,0-74.717,0
				C187.767,118.113,187.767,121.113,189.701,121.113L189.701,121.113z"/>
		</g>
	</g>
	<g>
		<g>
			<path style="fill:#FFFFFF;" d="M177.922,153.475c13.572,0,27.144,0,40.716,0c1.935,0,1.935-3,0-3c-13.572,0-27.145,0-40.716,0
				C175.988,150.475,175.988,153.475,177.922,153.475L177.922,153.475z"/>
		</g>
	</g>
	<g>
		<g>
			<path style="fill:#FFFFFF;" d="M183.813,137.294c17.572,0,35.144,0,52.716,0c1.935,0,1.935-3,0-3c-17.572,0-35.144,0-52.716,0
				C181.878,134.294,181.878,137.294,183.813,137.294L183.813,137.294z"/>
		</g>
	</g>
	<g>
		<g>
			<path style="fill:#FFFFFF;" d="M172.033,169.657c17.361-0.152,34.721-0.304,52.082-0.457c1.934-0.017,1.936-3.017,0-3
				c-17.36,0.152-34.721,0.304-52.082,0.457C170.099,166.674,170.098,169.674,172.033,169.657L172.033,169.657z"/>
		</g>
	</g>
	<g>
		<g>
			<path style="fill:#FFFFFF;" d="M163.198,193.928c24.905,0,49.811,0,74.716,0c1.935,0,1.935-3,0-3c-24.905,0-49.811,0-74.716,0
				C161.264,190.928,161.264,193.928,163.198,193.928L163.198,193.928z"/>
		</g>
	</g>
	<g>
		<g>
			<path style="fill:#FFFFFF;" d="M151.419,226.291c24.906,0,49.812,0,74.717,0c1.935,0,1.935-3,0-3c-24.905,0-49.811,0-74.717,0
				C149.484,223.291,149.484,226.291,151.419,226.291L151.419,226.291z"/>
		</g>
	</g>
	<g>
		<g>
			<path style="fill:#FFFFFF;" d="M160.253,202.02c24.906,0,49.811,0,74.716,0c1.935,0,1.935-3,0-3c-24.905,0-49.811,0-74.716,0
				C158.319,199.02,158.319,202.02,160.253,202.02L160.253,202.02z"/>
		</g>
	</g>
	<g>
		<g>
			<path style="fill:#FFFFFF;" d="M148.475,234.381c24.906,0,49.812,0,74.717,0c1.935,0,1.935-3,0-3c-24.905,0-49.811,0-74.717,0
				C146.54,231.381,146.54,234.381,148.475,234.381L148.475,234.381z"/>
		</g>
	</g>
	<g>
		<g>
			<path style="fill:#FFFFFF;" d="M142.585,250.563c24.906,0,49.812,0,74.717,0c1.935,0,1.935-3,0-3c-24.905,0-49.811,0-74.717,0
				C140.65,247.563,140.65,250.563,142.585,250.563L142.585,250.563z"/>
		</g>
	</g>
	<g>
		<g>
			<path style="fill:#FFFFFF;" d="M136.695,266.744c24.906,0,49.812,0,74.717,0c1.935,0,1.935-3,0-3c-24.905,0-49.811,0-74.717,0
				C134.761,263.744,134.761,266.744,136.695,266.744L136.695,266.744z"/>
		</g>
	</g>
	<g>
		<g>
			<path style="fill:#FFFFFF;" d="M204.425,80.66c24.905,0,49.811,0,74.716,0c1.935,0,1.935-3,0-3c-24.905,0-49.811,0-74.716,0
				C202.49,77.66,202.49,80.66,204.425,80.66L204.425,80.66z"/>
		</g>
	</g>
	<g>
		<g>
			<path style="fill:#FFFFFF;" d="M198.535,96.841c24.905,0,49.812,0,74.717,0c1.935,0,1.935-3,0-3c-24.905,0-49.812,0-74.717,0
				C196.601,93.841,196.601,96.841,198.535,96.841L198.535,96.841z"/>
		</g>
	</g>
	<g>
		<g>
			<path style="fill:#FFFFFF;" d="M192.646,113.022c24.905,0,49.811,0,74.716,0c1.935,0,1.935-3,0-3c-24.905,0-49.811,0-74.716,0
				C190.712,110.022,190.712,113.022,192.646,113.022L192.646,113.022z"/>
		</g>
	</g>
	<g>
		<g>
			<path style="fill:#FFFFFF;" d="M180.867,145.385c13.572,0,27.144,0,40.716,0c1.935,0,1.935-3,0-3c-13.572,0-27.145,0-40.716,0
				C178.932,142.385,178.932,145.385,180.867,145.385L180.867,145.385z"/>
		</g>
	</g>
	<g>
		<g>
			<path style="fill:#FFFFFF;" d="M186.756,129.204c24.905,0,49.812,0,74.717,0c1.935,0,1.935-3,0-3c-24.905,0-49.812,0-74.717,0
				C184.821,126.204,184.821,129.204,186.756,129.204L186.756,129.204z"/>
		</g>
	</g>
	<g>
		<g>
			<path style="fill:#FFFFFF;" d="M174.978,161.566c13.572,0,27.144,0,40.716,0c1.935,0,1.935-3,0-3c-13.572,0-27.144,0-40.716,0
				C173.043,158.566,173.043,161.566,174.978,161.566L174.978,161.566z"/>
		</g>
	</g>
	<g>
		<g>
			<path style="fill:#FFFFFF;" d="M169.088,177.747c24.905,0,49.812,0,74.717,0c1.935,0,1.935-3,0-3c-24.905,0-49.812,0-74.717,0
				C167.153,174.747,167.153,177.747,169.088,177.747L169.088,177.747z"/>
		</g>
	</g>
	<g>
		<g>
			<path style="fill:#FFFFFF;" d="M157.309,210.109c24.905,0,49.812,0,74.717,0c1.935,0,1.935-3,0-3c-24.905,0-49.812,0-74.717,0
				C155.374,207.109,155.374,210.109,157.309,210.109L157.309,210.109z"/>
		</g>
	</g>
	<g>
		<g>
			<path style="fill:#FFFFFF;" d="M166.143,185.838c24.906,0,49.811,0,74.716,0c1.935,0,1.935-3,0-3c-24.905,0-49.811,0-74.716,0
				C164.208,182.838,164.208,185.838,166.143,185.838L166.143,185.838z"/>
		</g>
	</g>
	<g>
		<g>
			<path style="fill:#FFFFFF;" d="M154.364,218.2c24.905,0,49.811,0,74.716,0c1.935,0,1.935-3,0-3c-24.905,0-49.811,0-74.716,0
				C152.429,215.2,152.429,218.2,154.364,218.2L154.364,218.2z"/>
		</g>
	</g>
	<g>
		<g>
			<path style="fill:#FFFFFF;" d="M145.53,242.473c24.905,0,49.811,0,74.716,0c1.935,0,1.935-3,0-3c-24.905,0-49.811,0-74.716,0
				C143.595,239.473,143.595,242.473,145.53,242.473L145.53,242.473z"/>
		</g>
	</g>
	<g>
		<g>
			<path style="fill:#FFFFFF;" d="M139.64,258.653c24.906,0,49.811,0,74.717,0c1.935,0,1.935-3,0-3c-24.906,0-49.812,0-74.717,0
				C137.706,255.653,137.706,258.653,139.64,258.653L139.64,258.653z"/>
		</g>
	</g>
	<g>
		<g>
			<path style="fill:#FFFFFF;" d="M130.806,282.926c24.906,0,49.812,0,74.717,0c1.935,0,1.935-3,0-3c-24.906,0-49.812,0-74.717,0
				C128.872,279.926,128.872,282.926,130.806,282.926L130.806,282.926z"/>
		</g>
	</g>
	<g>
		<g>
			<path style="fill:#FFFFFF;" d="M133.751,274.834c24.906,0,49.812,0,74.717,0c1.935,0,1.935-3,0-3c-24.905,0-49.811,0-74.717,0
				C131.816,271.834,131.816,274.834,133.751,274.834L133.751,274.834z"/>
		</g>
	</g>
	<path style="fill:#FFFFFF;" d="M219.443,91c0,2.071-1.678,3.75-3.75,3.75l0,0c-2.07,0-3.75-1.679-3.75-3.75l0,0
		c0-2.071,1.68-3.75,3.75-3.75l0,0C217.766,87.25,219.443,88.929,219.443,91L219.443,91z"/>
	<path style="fill:#FFFFFF;" d="M205.23,127.704c0,2.071-1.68,3.75-3.75,3.75l0,0c-2.072,0-3.75-1.679-3.75-3.75l0,0
		c0-2.071,1.678-3.75,3.75-3.75l0,0C203.551,123.954,205.23,125.632,205.23,127.704L205.23,127.704z"/>
	<path style="fill:#FFFFFF;" d="M235.775,84.304c0,2.071-1.68,3.75-3.75,3.75l0,0c-2.072,0-3.75-1.679-3.75-3.75l0,0
		c0-2.071,1.678-3.75,3.75-3.75l0,0C234.096,80.554,235.775,82.232,235.775,84.304L235.775,84.304z"/>
	<path style="fill:#FFFFFF;" d="M195.139,167.929c0,2.071-1.68,3.75-3.75,3.75l0,0c-2.072,0-3.75-1.679-3.75-3.75l0,0
		c0-2.071,1.678-3.75,3.75-3.75l0,0C193.459,164.179,195.139,165.857,195.139,167.929L195.139,167.929z"/>
	<path style="fill:#FFFFFF;" d="M216.502,101.139c0.115-2.068,1.884-3.651,3.952-3.537l0,0c2.067,0.115,3.651,1.884,3.536,3.952l0,0
		c-0.114,2.068-1.883,3.651-3.951,3.537l0,0C217.971,104.977,216.388,103.208,216.502,101.139L216.502,101.139z"/>
	<path style="fill:#FFFFFF;" d="M260.674,87.846c0.114-2.068,1.883-3.651,3.951-3.537l0,0c2.068,0.114,3.651,1.883,3.537,3.952l0,0
		c-0.115,2.068-1.884,3.651-3.952,3.537l0,0C262.143,91.683,260.559,89.914,260.674,87.846L260.674,87.846z"/>
	<path style="fill:#FFFFFF;" d="M161.297,252.813c-2.071,0-3.75-1.678-3.75-3.75l0,0c0-2.07,1.679-3.75,3.75-3.75l0,0
		c2.071,0,3.75,1.68,3.75,3.75l0,0C165.047,251.135,163.369,252.813,161.297,252.813L161.297,252.813z"/>
	<path style="fill:#FFFFFF;" d="M245.533,112.554c-2.071,0-3.75-1.679-3.75-3.75l0,0c0-2.071,1.679-3.75,3.75-3.75l0,0
		c2.071,0,3.75,1.679,3.75,3.75l0,0C249.283,110.875,247.604,112.554,245.533,112.554L245.533,112.554z"/>
	<path style="fill:#FFFFFF;" d="M200.557,236.631c-2.072,0-3.75-1.678-3.75-3.75l0,0c0-2.07,1.678-3.75,3.75-3.75l0,0
		c2.07,0,3.75,1.68,3.75,3.75l0,0C204.307,234.953,202.627,236.631,200.557,236.631L200.557,236.631z"/>
	<path style="fill:#FFFFFF;" d="M177.922,199.928c-2.071,0-3.75-1.678-3.75-3.75l0,0c0-2.07,1.679-3.75,3.75-3.75l0,0
		c2.071,0,3.75,1.68,3.75,3.75l0,0C181.672,198.25,179.994,199.928,177.922,199.928L177.922,199.928z"/>
	<path style="fill:#FFFFFF;" d="M192.646,252.813c-2.072,0-3.75-1.678-3.75-3.75l0,0c0-2.07,1.678-3.75,3.75-3.75l0,0
		c2.07,0,3.75,1.68,3.75,3.75l0,0C196.396,251.135,194.717,252.813,192.646,252.813L192.646,252.813z"/>
	<path style="fill:#FFFFFF;" d="M162.797,264.653c-2.071,0-3.75-1.679-3.75-3.75l0,0c0-2.071,1.679-3.75,3.75-3.75l0,0
		c2.071,0,3.75,1.679,3.75,3.75l0,0C166.547,262.975,164.869,264.653,162.797,264.653L162.797,264.653z"/>
	<path style="fill:#FFFFFF;" d="M208.329,192.434c2.068,0.115,3.651,1.885,3.536,3.952l0,0c-0.113,2.068-1.883,3.651-3.951,3.536
		l0,0c-2.068-0.113-3.651-1.883-3.537-3.951l0,0C204.492,193.902,206.262,192.319,208.329,192.434L208.329,192.434z"/>
	<path style="fill:#FFFFFF;" d="M229.969,111.314c0.114-2.068,1.883-3.651,3.951-3.537l0,0c2.068,0.114,3.651,1.883,3.537,3.952l0,0
		c-0.115,2.068-1.884,3.651-3.952,3.537l0,0C231.438,115.151,229.854,113.382,229.969,111.314L229.969,111.314z"/>
	<path style="fill:#FFFFFF;" d="M194.297,276.117c-2.07,0-3.75-1.68-3.75-3.75l0,0c0-2.072,1.68-3.75,3.75-3.75l0,0
		c2.072,0,3.75,1.678,3.75,3.75l0,0C198.047,274.438,196.369,276.117,194.297,276.117L194.297,276.117z"/>
	<path style="fill:#FFFFFF;" d="M165.047,233.117c-2.071,0-3.75-1.68-3.75-3.75l0,0c0-2.072,1.679-3.75,3.75-3.75l0,0
		c2.071,0,3.75,1.678,3.75,3.75l0,0C168.797,231.438,167.119,233.117,165.047,233.117L165.047,233.117z"/>
	<path style="fill:#FFFFFF;" d="M166.547,193.867c-2.071,0-3.75-1.68-3.75-3.75l0,0c0-2.072,1.679-3.75,3.75-3.75l0,0
		c2.071,0,3.75,1.678,3.75,3.75l0,0C170.297,192.188,168.619,193.867,166.547,193.867L166.547,193.867z"/>
	<path style="fill:#FFFFFF;" d="M192.646,207.525c-2.072,0-3.75-1.678-3.75-3.75l0,0c0-2.07,1.678-3.75,3.75-3.75l0,0
		c2.07,0,3.75,1.68,3.75,3.75l0,0C196.396,205.848,194.717,207.525,192.646,207.525L192.646,207.525z"/>
	<path style="fill:#FFFFFF;" d="M186.041,227.46c2.068,0.114,3.65,1.884,3.536,3.952l0,0c-0.114,2.068-1.884,3.65-3.952,3.536l0,0
		c-2.067-0.114-3.65-1.884-3.536-3.952l0,0C182.203,228.929,183.973,227.346,186.041,227.46L186.041,227.46z"/>
	<path style="fill:#FFFFFF;" d="M206.446,216.109c-2.071,0-3.75-1.678-3.75-3.75l0,0c0-2.07,1.679-3.75,3.75-3.75l0,0
		c2.071,0,3.75,1.68,3.75,3.75l0,0C210.196,214.432,208.518,216.109,206.446,216.109L206.446,216.109z"/>
	<path style="fill:#FFFFFF;" d="M228.621,172.521c-2.07,0-3.75-1.679-3.75-3.75l0,0c0-2.071,1.68-3.75,3.75-3.75l0,0
		c2.072,0,3.75,1.679,3.75,3.75l0,0C232.371,170.843,230.693,172.521,228.621,172.521L228.621,172.521z"/>
	<path style="fill:#FFFFFF;" d="M225.621,138.397c-2.07,0-3.75-1.679-3.75-3.75l0,0c0-2.071,1.68-3.75,3.75-3.75l0,0
		c2.072,0,3.75,1.679,3.75,3.75l0,0C229.371,136.718,227.693,138.397,225.621,138.397L225.621,138.397z"/>
	<path style="fill:#FFFFFF;" d="M204.371,155.685c-2.07,0-3.75-1.679-3.75-3.75l0,0c0-2.071,1.68-3.75,3.75-3.75l0,0
		c2.072,0,3.75,1.679,3.75,3.75l0,0C208.121,154.006,206.443,155.685,204.371,155.685L204.371,155.685z"/>
	<path style="fill:#FFFFFF;" d="M192.191,257.21c0-2.071,1.678-3.75,3.75-3.75l0,0c2.07,0,3.75,1.679,3.75,3.75l0,0
		c0,2.071-1.68,3.75-3.75,3.75l0,0C193.869,260.96,192.191,259.281,192.191,257.21L192.191,257.21z"/>
	<path style="fill:#FFFFFF;" d="M198.359,222.616c0-2.071,1.678-3.75,3.75-3.75l0,0c2.07,0,3.75,1.679,3.75,3.75l0,0
		c0,2.071-1.68,3.75-3.75,3.75l0,0C200.037,226.366,198.359,224.688,198.359,222.616L198.359,222.616z"/>
	<path style="fill:#FFFFFF;" d="M175.86,263.906c0-2.07,1.679-3.75,3.75-3.75l0,0c2.072,0,3.75,1.68,3.75,3.75l0,0
		c0,2.072-1.678,3.75-3.75,3.75l0,0C177.539,267.656,175.86,265.979,175.86,263.906L175.86,263.906z"/>
	<path style="fill:#FFFFFF;" d="M212.746,172.521c0-2.071,1.68-3.75,3.75-3.75l0,0c2.072,0,3.75,1.679,3.75,3.75l0,0
		c0,2.071-1.678,3.75-3.75,3.75l0,0C214.426,176.271,212.746,174.593,212.746,172.521L212.746,172.521z"/>
	<path style="fill:#FFFFFF;" d="M181.666,253.668c-0.113,2.067-1.883,3.65-3.951,3.536l0,0c-2.068-0.114-3.651-1.884-3.537-3.952
		l0,0c0.115-2.068,1.884-3.65,3.952-3.537l0,0C180.198,249.83,181.781,251.6,181.666,253.668L181.666,253.668z"/>
	<path style="fill:#FFFFFF;" d="M150.961,260.364c-0.115,2.068-1.884,3.651-3.952,3.536l0,0c-2.068-0.113-3.651-1.883-3.537-3.951
		l0,0c0.114-2.068,1.883-3.651,3.952-3.537l0,0C149.493,256.527,151.076,258.297,150.961,260.364L150.961,260.364z"/>
	<path style="fill:#FFFFFF;" d="M250.338,95.397c2.07,0,3.75,1.679,3.75,3.75l0,0c0,2.071-1.68,3.75-3.75,3.75l0,0
		c-2.072,0-3.75-1.679-3.75-3.75l0,0C246.588,97.076,248.266,95.397,250.338,95.397L250.338,95.397z"/>
	<path style="fill:#FFFFFF;" d="M166.102,235.656c2.071,0,3.75,1.68,3.75,3.75l0,0c0,2.072-1.679,3.75-3.75,3.75l0,0
		c-2.071,0-3.75-1.678-3.75-3.75l0,0C162.352,237.336,164.03,235.656,166.102,235.656L166.102,235.656z"/>
	<path style="fill:#FFFFFF;" d="M211.078,111.579c2.072,0,3.75,1.679,3.75,3.75l0,0c0,2.071-1.678,3.75-3.75,3.75l0,0
		c-2.07,0-3.75-1.679-3.75-3.75l0,0C207.328,113.258,209.008,111.579,211.078,111.579L211.078,111.579z"/>
	<path style="fill:#FFFFFF;" d="M233.713,148.282c2.07,0,3.75,1.679,3.75,3.75l0,0c0,2.071-1.68,3.75-3.75,3.75l0,0
		c-2.072,0-3.75-1.679-3.75-3.75l0,0C229.963,149.961,231.641,148.282,233.713,148.282L233.713,148.282z"/>
	<path style="fill:#FFFFFF;" d="M207.264,99.147c2.07,0,3.75,1.679,3.75,3.75l0,0c0,2.071-1.68,3.75-3.75,3.75l0,0
		c-2.072,0-3.75-1.679-3.75-3.75l0,0C203.514,100.826,205.191,99.147,207.264,99.147L207.264,99.147z"/>
	<path style="fill:#FFFFFF;" d="M248.838,83.557c2.07,0,3.75,1.679,3.75,3.75l0,0c0,2.071-1.68,3.75-3.75,3.75l0,0
		c-2.072,0-3.75-1.679-3.75-3.75l0,0C245.088,85.236,246.766,83.557,248.838,83.557L248.838,83.557z"/>
	<path style="fill:#FFFFFF;" d="M203.306,155.776c-2.068-0.115-3.651-1.884-3.536-3.952l0,0c0.113-2.068,1.883-3.651,3.951-3.537
		l0,0c2.068,0.114,3.651,1.883,3.537,3.952l0,0C207.143,154.308,205.373,155.891,203.306,155.776L203.306,155.776z"/>
	<path style="fill:#FFFFFF;" d="M179.604,224.998c-0.115,2.068-1.884,3.652-3.952,3.537l0,0c-2.068-0.114-3.651-1.883-3.537-3.951
		l0,0c0.114-2.068,1.883-3.652,3.952-3.537l0,0C178.135,221.162,179.719,222.931,179.604,224.998L179.604,224.998z"/>
	<path style="fill:#FFFFFF;" d="M217.338,72.094c2.07,0,3.75,1.679,3.75,3.75l0,0c0,2.071-1.68,3.75-3.75,3.75l0,0
		c-2.072,0-3.75-1.679-3.75-3.75l0,0C213.588,73.772,215.266,72.094,217.338,72.094L217.338,72.094z"/>
	<path style="fill:#FFFFFF;" d="M246.588,115.094c2.07,0,3.75,1.679,3.75,3.75l0,0c0,2.071-1.68,3.75-3.75,3.75l0,0
		c-2.072,0-3.75-1.679-3.75-3.75l0,0C242.838,116.772,244.516,115.094,246.588,115.094L246.588,115.094z"/>
	<path style="fill:#FFFFFF;" d="M217.302,138.031c2.071,0,3.75,1.679,3.75,3.75l0,0c0,2.071-1.679,3.75-3.75,3.75l0,0
		c-2.071,0-3.75-1.679-3.75-3.75l0,0C213.552,139.709,215.23,138.031,217.302,138.031L217.302,138.031z"/>
	<path style="fill:#FFFFFF;" d="M221.664,119.073c-2.068-0.115-3.651-1.884-3.537-3.952l0,0c0.115-2.068,1.884-3.651,3.952-3.537
		l0,0c2.067,0.114,3.651,1.883,3.536,3.952l0,0C225.501,117.604,223.732,119.188,221.664,119.073L221.664,119.073z"/>
	<path style="fill:#FFFFFF;" d="M216.496,123.954c2.072,0,3.75,1.679,3.75,3.75l0,0c0,2.071-1.678,3.75-3.75,3.75l0,0
		c-2.07,0-3.75-1.679-3.75-3.75l0,0C212.746,125.632,214.426,123.954,216.496,123.954L216.496,123.954z"/>
	<path style="fill:#FFFFFF;" d="M183.014,175.689c2.07,0,3.75,1.679,3.75,3.75l0,0c0,2.071-1.68,3.75-3.75,3.75l0,0
		c-2.072,0-3.75-1.68-3.75-3.75l0,0C179.263,177.368,180.942,175.689,183.014,175.689L183.014,175.689z"/>
	<path style="fill:#FFFFFF;" d="M186.014,209.813c2.07,0,3.75,1.679,3.75,3.75l0,0c0,2.071-1.68,3.75-3.75,3.75l0,0
		c-2.072,0-3.75-1.679-3.75-3.75l0,0C182.264,211.492,183.941,209.813,186.014,209.813L186.014,209.813z"/>
	<path style="fill:#FFFFFF;" d="M207.264,192.525c2.07,0,3.75,1.68,3.75,3.75l0,0c0,2.072-1.68,3.75-3.75,3.75l0,0
		c-2.072,0-3.75-1.678-3.75-3.75l0,0C203.514,194.205,205.191,192.525,207.264,192.525L207.264,192.525z"/>
	<path style="fill:#FFFFFF;" d="M220.017,182.796c1.103-1.753,3.417-2.281,5.171-1.179l0,0c1.753,1.104,2.281,3.418,1.178,5.171l0,0
		c-1.103,1.753-3.417,2.281-5.17,1.179l0,0C219.441,186.863,218.914,184.549,220.017,182.796L220.017,182.796z"/>
	<path style="fill:#FFFFFF;" d="M165.89,207.109c1.103-1.754,3.417-2.281,5.171-1.178l0,0c1.753,1.102,2.281,3.417,1.178,5.17l0,0
		c-1.103,1.754-3.417,2.281-5.171,1.178l0,0C165.314,211.178,164.787,208.863,165.89,207.109L165.89,207.109z"/>
	<path style="fill:#FFFFFF;" d="M186.041,198.002c1.754,1.102,2.281,3.417,1.178,5.17l0,0c-1.103,1.754-3.417,2.281-5.17,1.178l0,0
		c-1.754-1.102-2.281-3.416-1.179-5.17l0,0C181.973,197.426,184.287,196.898,186.041,198.002L186.041,198.002z"/>
	<path style="fill:#FFFFFF;" d="M202.295,178.81c-1.69-1.198-2.089-3.539-0.891-5.228l0,0c1.197-1.69,3.538-2.088,5.229-0.89l0,0
		c1.689,1.198,2.088,3.538,0.89,5.228l0,0C206.324,179.609,203.984,180.008,202.295,178.81L202.295,178.81z"/>
	<path style="fill:#FFFFFF;" d="M263.309,101.347c0,2.071-1.678,3.75-3.75,3.75l0,0c-2.07,0-3.75-1.679-3.75-3.75l0,0
		c0-2.071,1.68-3.75,3.75-3.75l0,0C261.631,97.597,263.309,99.275,263.309,101.347L263.309,101.347z"/>
	<path style="fill:#FFFFFF;" d="M176.565,243.156c2.071,0,3.75,1.68,3.75,3.75l0,0c0,2.072-1.679,3.75-3.75,3.75l0,0
		c-2.071,0-3.75-1.678-3.75-3.75l0,0C172.815,244.836,174.494,243.156,176.565,243.156L176.565,243.156z"/>
	<path style="fill:#FFFFFF;" d="M217.302,203.775c2.071,0,3.75,1.68,3.75,3.75l0,0c0,2.072-1.679,3.75-3.75,3.75l0,0
		c-2.071,0-3.75-1.678-3.75-3.75l0,0C213.552,205.455,215.23,203.775,217.302,203.775L217.302,203.775z"/>
	<path style="fill:#FFFFFF;" d="M189.583,180.588c2.071,0,3.75,1.679,3.75,3.75l0,0c0,2.071-1.679,3.75-3.75,3.75l0,0
		c-2.071,0-3.75-1.679-3.75-3.75l0,0C185.833,182.267,187.512,180.588,189.583,180.588L189.583,180.588z"/>
	<path style="fill:#FFFFFF;" d="M151.419,269.584c2.071,0,3.75,1.68,3.75,3.75l0,0c0,2.072-1.679,3.75-3.75,3.75l0,0
		c-2.071,0-3.75-1.678-3.75-3.75l0,0C147.669,271.264,149.348,269.584,151.419,269.584L151.419,269.584z"/>
	<path style="fill:#FFFFFF;" d="M233.354,99.351c1.104-1.753,3.418-2.281,5.172-1.178l0,0c1.752,1.103,2.28,3.417,1.178,5.17l0,0
		c-1.104,1.753-3.418,2.281-5.171,1.178l0,0C232.779,103.418,232.252,101.104,233.354,99.351L233.354,99.351z"/>
	<path style="fill:#FFFFFF;" d="M230.271,195.533c1.754,1.104,2.281,3.418,1.178,5.172l0,0c-1.103,1.752-3.417,2.28-5.17,1.178l0,0
		c-1.754-1.104-2.281-3.418-1.179-5.171l0,0C226.203,194.959,228.518,194.432,230.271,195.533L230.271,195.533z"/>
	<path style="fill:#FFFFFF;" d="M196.475,80.735c0,2.071-1.678,3.75-3.75,3.75l0,0c-2.07,0-3.75-1.679-3.75-3.75l0,0
		c0-2.071,1.68-3.75,3.75-3.75l0,0C194.797,76.985,196.475,78.664,196.475,80.735L196.475,80.735z"/>
	<path style="fill:#FFFFFF;" d="M181.388,114.129c0,2.071-1.679,3.75-3.75,3.75l0,0c-2.071,0-3.75-1.679-3.75-3.75l0,0
		c0-2.071,1.679-3.75,3.75-3.75l0,0C179.709,110.379,181.388,112.058,181.388,114.129L181.388,114.129z"/>
	<path style="fill:#FFFFFF;" d="M183.888,88.379c0,2.071-1.679,3.75-3.75,3.75l0,0c-2.071,0-3.75-1.679-3.75-3.75l0,0
		c0-2.071,1.679-3.75,3.75-3.75l0,0C182.209,84.629,183.888,86.308,183.888,88.379L183.888,88.379z"/>
	<path style="fill:#FFFFFF;" d="M153.638,145.534c0,2.071-1.679,3.75-3.75,3.75l0,0c-2.071,0-3.75-1.679-3.75-3.75l0,0
		c0-2.071,1.679-3.75,3.75-3.75l0,0C151.959,141.784,153.638,143.463,153.638,145.534L153.638,145.534z"/>
	<path style="fill:#FFFFFF;" d="M154.399,105.214c0.114-2.068,1.883-3.651,3.952-3.537l0,0c2.068,0.115,3.651,1.884,3.537,3.952l0,0
		c-0.115,2.068-1.884,3.651-3.952,3.537l0,0C155.868,109.051,154.285,107.282,154.399,105.214L154.399,105.214z"/>
	<path style="fill:#FFFFFF;" d="M172.144,125.921c0.115-2.068,1.884-3.651,3.952-3.537l0,0c2.068,0.114,3.651,1.883,3.537,3.952l0,0
		c-0.114,2.068-1.883,3.651-3.952,3.537l0,0C173.612,129.758,172.029,127.989,172.144,125.921L172.144,125.921z"/>
	<path style="fill:#FFFFFF;" d="M122.138,275.779c-2.071,0-3.75-1.679-3.75-3.75l0,0c0-2.071,1.679-3.75,3.75-3.75l0,0
		c2.071,0,3.75,1.679,3.75,3.75l0,0C125.888,274.101,124.209,275.779,122.138,275.779L122.138,275.779z"/>
	<path style="fill:#FFFFFF;" d="M141.138,230.116c-2.071,0-3.75-1.679-3.75-3.75l0,0c0-2.071,1.679-3.75,3.75-3.75l0,0
		c2.071,0,3.75,1.679,3.75,3.75l0,0C144.888,228.438,143.209,230.116,141.138,230.116L141.138,230.116z"/>
	<path style="fill:#FFFFFF;" d="M122.888,232.779c-2.071,0-3.75-1.679-3.75-3.75l0,0c0-2.071,1.679-3.75,3.75-3.75l0,0
		c2.071,0,3.75,1.679,3.75,3.75l0,0C126.638,231.101,124.959,232.779,122.888,232.779L122.888,232.779z"/>
	<path style="fill:#FFFFFF;" d="M134.388,193.529c-2.071,0-3.75-1.679-3.75-3.75l0,0c0-2.071,1.679-3.75,3.75-3.75l0,0
		c2.071,0,3.75,1.679,3.75,3.75l0,0C138.138,191.851,136.459,193.529,134.388,193.529L134.388,193.529z"/>
	<path style="fill:#FFFFFF;" d="M148.138,195.992c-2.071,0-3.75-1.68-3.75-3.75l0,0c0-2.072,1.679-3.75,3.75-3.75l0,0
		c2.071,0,3.75,1.678,3.75,3.75l0,0C151.888,194.313,150.209,195.992,148.138,195.992L148.138,195.992z"/>
	<path style="fill:#FFFFFF;" d="M146.888,213.279c-2.071,0-3.75-1.679-3.75-3.75l0,0c0-2.071,1.679-3.75,3.75-3.75l0,0
		c2.071,0,3.75,1.679,3.75,3.75l0,0C150.638,211.601,148.959,213.279,146.888,213.279L146.888,213.279z"/>
	<path style="fill:#FFFFFF;" d="M139.595,166.785c2.068,0.115,3.651,1.884,3.537,3.952l0,0c-0.114,2.068-1.883,3.651-3.952,3.537
		l0,0c-2.068-0.114-3.651-1.883-3.537-3.952l0,0C135.758,168.254,137.527,166.67,139.595,166.785L139.595,166.785z"/>
	<path style="fill:#FFFFFF;" d="M202.109,146.31c0,2.071-1.68,3.75-3.75,3.75l0,0c-2.072,0-3.75-1.679-3.75-3.75l0,0
		c0-2.071,1.678-3.75,3.75-3.75l0,0C200.43,142.56,202.109,144.238,202.109,146.31L202.109,146.31z"/>
	<path style="fill:#FFFFFF;" d="M232.654,102.91c0,2.071-1.68,3.75-3.75,3.75l0,0c-2.072,0-3.75-1.679-3.75-3.75l0,0
		c0-2.071,1.678-3.75,3.75-3.75l0,0C230.975,99.16,232.654,100.838,232.654,102.91L232.654,102.91z"/>
	<path style="fill:#FFFFFF;" d="M187.795,190.285c0,2.07-1.679,3.75-3.75,3.75l0,0c-2.071,0-3.75-1.68-3.75-3.75l0,0
		c0-2.072,1.679-3.75,3.75-3.75l0,0C186.116,186.535,187.795,188.213,187.795,190.285L187.795,190.285z"/>
	<path style="fill:#FFFFFF;" d="M257.553,106.452c0.114-2.068,1.883-3.651,3.951-3.537l0,0c2.068,0.114,3.651,1.883,3.537,3.952l0,0
		c-0.115,2.068-1.884,3.651-3.952,3.537l0,0C259.021,110.289,257.438,108.52,257.553,106.452L257.553,106.452z"/>
	<path style="fill:#FFFFFF;" d="M158.176,271.419c-2.071,0-3.75-1.679-3.75-3.75l0,0c0-2.071,1.679-3.75,3.75-3.75l0,0
		c2.071,0,3.75,1.679,3.75,3.75l0,0C161.926,269.74,160.248,271.419,158.176,271.419L158.176,271.419z"/>
	<path style="fill:#FFFFFF;" d="M202.696,254.406c-2.071,0-3.75-1.678-3.75-3.75l0,0c0-2.07,1.679-3.75,3.75-3.75l0,0
		c2.071,0,3.75,1.68,3.75,3.75l0,0C206.446,252.729,204.768,254.406,202.696,254.406L202.696,254.406z"/>
	<path style="fill:#FFFFFF;" d="M174.801,218.534c-2.071,0-3.75-1.679-3.75-3.75l0,0c0-2.071,1.679-3.75,3.75-3.75l0,0
		c2.071,0,3.75,1.679,3.75,3.75l0,0C178.551,216.855,176.873,218.534,174.801,218.534L174.801,218.534z"/>
	<path style="fill:#FFFFFF;" d="M189.525,226.132c-2.072,0-3.75-1.679-3.75-3.75l0,0c0-2.071,1.678-3.75,3.75-3.75l0,0
		c2.07,0,3.75,1.679,3.75,3.75l0,0C193.275,224.453,191.596,226.132,189.525,226.132L189.525,226.132z"/>
	<path style="fill:#FFFFFF;" d="M167.359,278.763c0-2.071,1.679-3.75,3.75-3.75l0,0c2.071,0,3.75,1.679,3.75,3.75l0,0
		c0,2.071-1.679,3.75-3.75,3.75l0,0C169.038,282.513,167.359,280.834,167.359,278.763L167.359,278.763z"/>
	<path style="fill:#FFFFFF;" d="M209.625,191.127c0-2.07,1.68-3.75,3.75-3.75l0,0c2.072,0,3.75,1.68,3.75,3.75l0,0
		c0,2.072-1.678,3.75-3.75,3.75l0,0C211.305,194.877,209.625,193.199,209.625,191.127L209.625,191.127z"/>
	<path style="fill:#FFFFFF;" d="M188.262,271.627c-0.115,2.068-1.884,3.651-3.952,3.537l0,0c-2.067-0.115-3.651-1.885-3.537-3.952
		l0,0c0.115-2.068,1.883-3.651,3.952-3.537l0,0C186.793,267.789,188.376,269.559,188.262,271.627L188.262,271.627z"/>
	<path style="fill:#FFFFFF;" d="M147.84,278.971c-0.115,2.068-1.884,3.65-3.952,3.536l0,0c-2.068-0.114-3.651-1.884-3.537-3.952l0,0
		c0.114-2.067,1.883-3.65,3.952-3.536l0,0C146.372,275.133,147.955,276.902,147.84,278.971L147.84,278.971z"/>
	<path style="fill:#FFFFFF;" d="M168.165,252.656c2.071,0,3.75,1.68,3.75,3.75l0,0c0,2.072-1.679,3.75-3.75,3.75l0,0
		c-2.071,0-3.75-1.678-3.75-3.75l0,0C164.415,254.336,166.093,252.656,168.165,252.656L168.165,252.656z"/>
	<path style="fill:#FFFFFF;" d="M200.185,174.382c-2.068-0.115-3.651-1.884-3.536-3.952l0,0c0.113-2.068,1.883-3.651,3.951-3.537
		l0,0c2.068,0.114,3.651,1.883,3.537,3.952l0,0C204.021,172.914,202.252,174.497,200.185,174.382L200.185,174.382z"/>
	<path style="fill:#FFFFFF;" d="M186.008,239.614c-0.115,2.068-1.885,3.651-3.952,3.536l0,0c-2.068-0.113-3.651-1.883-3.537-3.951
		l0,0c0.114-2.068,1.883-3.651,3.952-3.537l0,0C184.539,235.777,186.122,237.547,186.008,239.614L186.008,239.614z"/>
	<path style="fill:#FFFFFF;" d="M214.181,156.637c2.071,0,3.75,1.679,3.75,3.75l0,0c0,2.071-1.679,3.75-3.75,3.75l0,0
		c-2.071,0-3.75-1.679-3.75-3.75l0,0C210.431,158.315,212.109,156.637,214.181,156.637L214.181,156.637z"/>
	<path style="fill:#FFFFFF;" d="M213.973,138.391c-2.068-0.115-3.65-1.884-3.536-3.952l0,0c0.114-2.068,1.884-3.651,3.952-3.537l0,0
		c2.067,0.114,3.65,1.883,3.536,3.952l0,0C217.811,136.922,216.041,138.506,213.973,138.391L213.973,138.391z"/>
	<path style="fill:#FFFFFF;" d="M214.181,222.382c2.071,0,3.75,1.679,3.75,3.75l0,0c0,2.071-1.679,3.75-3.75,3.75l0,0
		c-2.071,0-3.75-1.679-3.75-3.75l0,0C210.431,224.061,212.109,222.382,214.181,222.382L214.181,222.382z"/>
	<path style="fill:#FFFFFF;" d="M194.667,191.207c2.071,0,3.75,1.68,3.75,3.75l0,0c0,2.072-1.679,3.75-3.75,3.75l0,0
		c-2.071,0-3.75-1.678-3.75-3.75l0,0C190.917,192.887,192.596,191.207,194.667,191.207L194.667,191.207z"/>
	<path style="fill:#FFFFFF;" d="M202.109,239.646c2.07,0,3.75,1.68,3.75,3.75l0,0c0,2.072-1.68,3.75-3.75,3.75l0,0
		c-2.072,0-3.75-1.678-3.75-3.75l0,0C198.359,241.326,200.037,239.646,202.109,239.646L202.109,239.646z"/>
	<path style="fill:#FFFFFF;" d="M230.232,117.957c1.104-1.753,3.418-2.281,5.172-1.178l0,0c1.752,1.103,2.28,3.417,1.178,5.17l0,0
		c-1.104,1.753-3.418,2.281-5.171,1.178l0,0C229.658,122.024,229.131,119.709,230.232,117.957L230.232,117.957z"/>
</g>
<g id="Ebene_1">
</g>
</svg>
