<?xml version="1.0" encoding="iso-8859-1"?>
<!-- Generator: Adobe Illustrator 16.0.0, SVG Export Plug-In . SVG Version: 6.00 Build 0)  -->
<!DOCTYPE svg PUBLIC "-//W3C//DTD SVG 1.1 Tiny//EN" "http://www.w3.org/Graphics/SVG/1.1/DTD/svg11-tiny.dtd">
<svg version="1.1" baseProfile="tiny" id="weather_x5F_frost"
	 xmlns="http://www.w3.org/2000/svg" xmlns:xlink="http://www.w3.org/1999/xlink" x="0px" y="0px" width="361px" height="361px"
	 viewBox="0 0 361 361" xml:space="preserve">
<g>
	<g>
		<path fill="#FFFFFF" d="M173.124,96.122c0,29.179,0,58.358,0,87.538c0,6.449,10,6.449,10,0c0-29.179,0-58.358,0-87.538
			C183.124,89.673,173.124,89.673,173.124,96.122L173.124,96.122z"/>
	</g>
	<g>
		<path fill="#FFFFFF" d="M150.127,109.251c8.507,4.912,17.014,9.823,25.521,14.734c5.595,3.23,10.628-5.413,5.047-8.635
			c-8.507-4.912-17.014-9.823-25.521-14.734C149.58,97.386,144.546,106.029,150.127,109.251L150.127,109.251z"/>
	</g>
	<g>
		<path fill="#FFFFFF" d="M200.783,100.616c-8.507,4.912-17.014,9.823-25.521,14.734c-5.582,3.222-0.548,11.865,5.047,8.635
			c8.507-4.912,17.014-9.823,25.521-14.734C211.411,106.029,206.377,97.386,200.783,100.616L200.783,100.616z"/>
	</g>
</g>
<g>
	<g>
		<path fill="#FFFFFF" d="M99.487,143.2c25.27,14.59,50.54,29.18,75.81,43.77c5.595,3.23,10.628-5.412,5.047-8.635
			c-25.27-14.59-50.54-29.18-75.81-43.77C98.939,131.334,93.906,139.977,99.487,143.2L99.487,143.2z"/>
	</g>
	<g>
		<path fill="#FFFFFF" d="M99.429,169.666c8.507-4.911,17.014-9.823,25.521-14.734c5.582-3.222,0.548-11.865-5.047-8.635
			c-8.507,4.911-17.014,9.823-25.521,14.734C88.801,164.253,93.834,172.896,99.429,169.666L99.429,169.666z"/>
	</g>
	<g>
		<path fill="#FFFFFF" d="M117.234,121.479c0,9.823,0,19.646,0,29.468c0,6.449,10,6.449,10,0c0-9.823,0-19.646,0-29.468
			C127.234,115.031,117.234,115.031,117.234,121.479L117.234,121.479z"/>
	</g>
</g>
<g>
	<g>
		<path fill="#FFFFFF" d="M104.727,230.677c25.271-14.59,50.541-29.18,75.811-43.77c5.582-3.222,0.548-11.865-5.047-8.635
			c-25.271,14.59-50.541,29.18-75.811,43.77C94.098,225.265,99.132,233.908,104.727,230.677L104.727,230.677z"/>
	</g>
	<g>
		<path fill="#FFFFFF" d="M127.571,244.013c0-9.823,0-19.646,0-29.468c0-6.449-10-6.449-10,0c0,9.823,0,19.646,0,29.468
			C117.571,250.461,127.571,250.461,127.571,244.013L127.571,244.013z"/>
	</g>
	<g>
		<path fill="#FFFFFF" d="M94.72,204.462c8.507,4.912,17.014,9.823,25.521,14.734c5.595,3.23,10.628-5.412,5.047-8.635
			c-8.507-4.912-17.014-9.823-25.521-14.734C94.172,192.597,89.138,201.239,94.72,204.462L94.72,204.462z"/>
	</g>
</g>
<g>
	<g>
		<path fill="#FFFFFF" d="M183.027,270.444c0-29.18,0-58.359,0-87.539c0-6.449-10-6.449-10,0c0,29.18,0,58.359,0,87.539
			C173.027,276.893,183.027,276.893,183.027,270.444L183.027,270.444z"/>
	</g>
	<g>
		<path fill="#FFFFFF" d="M206.022,257.314c-8.506-4.912-17.013-9.823-25.52-14.734c-5.595-3.23-10.628,5.412-5.047,8.635
			c8.506,4.912,17.013,9.823,25.52,14.734C206.57,269.18,211.604,260.537,206.022,257.314L206.022,257.314z"/>
	</g>
	<g>
		<path fill="#FFFFFF" d="M155.368,265.949c8.507-4.911,17.014-9.823,25.52-14.734c5.582-3.222,0.548-11.865-5.047-8.635
			c-8.507,4.911-17.014,9.823-25.52,14.734C144.739,260.537,149.773,269.18,155.368,265.949L155.368,265.949z"/>
	</g>
</g>
<g>
	<g>
		<path fill="#FFFFFF" d="M256.663,222.7c-25.27-14.59-50.54-29.18-75.811-43.77c-5.595-3.23-10.628,5.413-5.047,8.635
			c25.27,14.59,50.54,29.18,75.811,43.77C257.211,234.565,262.245,225.922,256.663,222.7L256.663,222.7z"/>
	</g>
	<g>
		<path fill="#FFFFFF" d="M256.721,196.233c-8.507,4.912-17.014,9.823-25.52,14.734c-5.582,3.223-0.548,11.865,5.047,8.635
			c8.507-4.912,17.014-9.823,25.52-14.734C267.349,201.646,262.315,193.003,256.721,196.233L256.721,196.233z"/>
	</g>
	<g>
		<path fill="#FFFFFF" d="M238.917,244.419c0-9.823,0-19.645,0.001-29.468c0-6.449-10-6.449-10,0c0,9.823,0,19.645-0.001,29.468
			C228.917,250.868,238.917,250.868,238.917,244.419L238.917,244.419z"/>
	</g>
</g>
<g>
	<g>
		<path fill="#FFFFFF" d="M251.424,135.222c-25.271,14.59-50.541,29.18-75.811,43.77c-5.582,3.222-0.548,11.865,5.047,8.635
			c25.271-14.59,50.541-29.18,75.811-43.77C262.052,140.635,257.019,131.992,251.424,135.222L251.424,135.222z"/>
	</g>
	<g>
		<path fill="#FFFFFF" d="M228.579,121.885c0,9.823,0,19.646,0,29.469c0,6.449,10,6.449,10,0c0-9.823,0-19.646,0-29.469
			C238.579,115.437,228.579,115.437,228.579,121.885L228.579,121.885z"/>
	</g>
	<g>
		<path fill="#FFFFFF" d="M261.43,161.437c-8.506-4.912-17.013-9.823-25.52-14.735c-5.595-3.23-10.628,5.412-5.047,8.635
			c8.506,4.912,17.013,9.823,25.52,14.735C261.978,173.302,267.012,164.66,261.43,161.437L261.43,161.437z"/>
	</g>
</g>
</svg>
