<?xml version="1.0" encoding="iso-8859-1"?>
<!-- Generator: Adobe Illustrator 16.0.0, SVG Export Plug-In . SVG Version: 6.00 Build 0)  -->
<!DOCTYPE svg PUBLIC "-//W3C//DTD SVG 1.1//EN" "http://www.w3.org/Graphics/SVG/1.1/DTD/svg11.dtd">
<svg version="1.1" xmlns="http://www.w3.org/2000/svg" xmlns:xlink="http://www.w3.org/1999/xlink" x="0px" y="0px" width="361px"
	 height="361px" viewBox="0 0 361 361" style="enable-background:new 0 0 361 361;" xml:space="preserve">
<g id="weather_x5F_rain_x5F_gauge">
	<g>
		<path style="fill:#FFFFFF;stroke:#FFFFFF;stroke-width:13.0628;stroke-miterlimit:10;" d="M138.167,122.249
			c0,3.026-2.2,5.479-4.916,5.479H95.146c-2.716,0-4.918-2.454-4.918-5.479V82.528c0-3.025,2.202-5.479,4.918-5.479h38.104
			c2.716,0,4.916,2.453,4.916,5.479V122.249z"/>
		<path style="fill:#FFFFFF;stroke:#FFFFFF;stroke-width:13.0628;stroke-miterlimit:10;" d="M77.215,108.552
			c0,3.026,2.453,5.479,5.479,5.479h25.568c3.025,0,5.479-2.453,5.479-5.479V93.029c0-3.025-2.454-5.479-5.479-5.479H82.693
			c-3.025,0-5.479,2.453-5.479,5.479V108.552z"/>
		<path style="fill:#FFFFFF;stroke:#FFFFFF;stroke-width:13.0628;stroke-miterlimit:10;" d="M76.044,108.552
			c0-3.025,2.453-5.478,5.479-5.478h31.503c3.025,0,5.479,2.453,5.479,5.478v8.675c0,3.026-2.454,5.479-5.479,5.479H81.522
			c-3.025,0-5.479-2.453-5.479-5.479V108.552z"/>
		<g>
			<g>
				<path style="fill:#FFFFFF;" d="M131.287,137.679c-4.442,7.693-8.884,15.387-13.325,23.08c-2.261,3.917,3.789,7.44,6.044,3.533
					c4.442-7.693,8.884-15.386,13.325-23.08C139.592,137.295,133.542,133.772,131.287,137.679L131.287,137.679z"/>
			</g>
		</g>
		<g>
			<g>
				<path style="fill:#FFFFFF;" d="M127.468,120.333c-4.442,7.693-8.883,15.386-13.325,23.08c-2.261,3.917,3.789,7.44,6.044,3.533
					c4.442-7.693,8.883-15.387,13.325-23.08C135.773,119.95,129.724,116.427,127.468,120.333L127.468,120.333z"/>
			</g>
		</g>
		<g>
			<g>
				<path style="fill:#FFFFFF;" d="M107.471,154.702c-4.442,7.693-8.884,15.387-13.326,23.08c-2.261,3.917,3.789,7.44,6.044,3.533
					c4.442-7.693,8.884-15.386,13.326-23.08C115.776,154.318,109.727,150.795,107.471,154.702L107.471,154.702z"/>
			</g>
		</g>
		<g>
			<g>
				<path style="fill:#FFFFFF;" d="M110.305,125.565c-4.442,7.694-8.884,15.387-13.325,23.081c-2.261,3.917,3.789,7.44,6.044,3.533
					c4.442-7.693,8.884-15.387,13.325-23.081C118.61,125.182,112.561,121.658,110.305,125.565L110.305,125.565z"/>
			</g>
		</g>
		<g>
			<g>
				<path style="fill:#FFFFFF;" d="M100.6,115.147c-3.845,6.659-7.689,13.318-11.534,19.978c-3.23,5.595,5.412,10.628,8.635,5.047
					c3.845-6.659,7.689-13.318,11.534-19.978C112.465,114.599,103.822,109.565,100.6,115.147L100.6,115.147z"/>
			</g>
		</g>
		<g>
			<g>
				<path style="fill:#FFFFFF;" d="M86.489,142.588c-4.442,7.693-8.883,15.387-13.325,23.08c-2.261,3.917,3.789,7.44,6.044,3.533
					c4.442-7.693,8.883-15.387,13.325-23.08C94.794,142.205,88.744,138.681,86.489,142.588L86.489,142.588z"/>
			</g>
		</g>
		<g>
			<g>
				<path style="fill:#FFFFFF;" d="M89.712,161.234c-4.442,7.693-8.884,15.386-13.326,23.08c-2.262,3.917,3.789,7.44,6.044,3.533
					c4.442-7.693,8.884-15.387,13.326-23.08C98.018,160.851,91.967,157.327,89.712,161.234L89.712,161.234z"/>
			</g>
		</g>
		<g>
			<g>
				<path style="fill:#FFFFFF;" d="M111.517,172.54c-4.442,7.693-8.884,15.387-13.325,23.08c-2.261,3.917,3.789,7.44,6.044,3.533
					c4.442-7.693,8.884-15.387,13.325-23.08C119.822,172.157,113.772,168.633,111.517,172.54L111.517,172.54z"/>
			</g>
		</g>
		<g>
			<g>
				<path style="fill:#FFFFFF;" d="M173.693,119.141c-4.442,7.693-8.883,15.386-13.325,23.08c-2.261,3.917,3.789,7.44,6.044,3.533
					c4.442-7.693,8.883-15.387,13.325-23.08C181.998,118.758,175.948,115.234,173.693,119.141L173.693,119.141z"/>
			</g>
		</g>
		<g>
			<g>
				<path style="fill:#FFFFFF;" d="M152.696,155.51c-4.442,7.693-8.884,15.386-13.326,23.079c-2.262,3.917,3.788,7.439,6.044,3.533
					c4.442-7.693,8.884-15.386,13.326-23.079C161.002,155.126,154.952,151.603,152.696,155.51L152.696,155.51z"/>
			</g>
		</g>
		<g>
			<g>
				<path style="fill:#FFFFFF;" d="M155.53,126.373c-4.442,7.693-8.883,15.387-13.325,23.08c-2.261,3.917,3.789,7.44,6.044,3.533
					c4.442-7.693,8.883-15.387,13.325-23.08C163.835,125.989,157.785,122.466,155.53,126.373L155.53,126.373z"/>
			</g>
		</g>
		<g>
			<g>
				<path style="fill:#FFFFFF;" d="M134.937,162.042c-4.442,7.694-8.884,15.387-13.326,23.081c-2.261,3.917,3.789,7.44,6.044,3.533
					c4.442-7.693,8.884-15.387,13.326-23.081C143.242,161.658,137.192,158.135,134.937,162.042L134.937,162.042z"/>
			</g>
		</g>
		<path style="fill:#FFFFFF;stroke:#FFFFFF;stroke-width:13.0628;stroke-miterlimit:10;" d="M167.854,127.729
			c0,3.024-2.201,5.478-4.917,5.478h-38.105c-2.716,0-4.917-2.453-4.917-5.478V88.007c0-3.026,2.202-5.479,4.917-5.479h38.105
			c2.715,0,4.917,2.453,4.917,5.479V127.729z"/>
		<path style="fill:#FFFFFF;stroke:#FFFFFF;stroke-width:13.0628;stroke-miterlimit:10;" d="M142.764,123.162
			c0,3.026,2.454,5.479,5.479,5.479h25.568c3.026,0,5.479-2.453,5.479-5.479v-15.523c0-3.025-2.453-5.478-5.479-5.478h-25.568
			c-3.025,0-5.479,2.453-5.479,5.478V123.162z"/>
		<path style="fill:#FFFFFF;stroke:#FFFFFF;stroke-width:13.0628;stroke-miterlimit:10;" d="M141.972,134.12
			c0,3.025-2.202,5.479-4.916,5.479H91.261c-2.715,0-4.917-2.453-4.917-5.479V94.398c0-3.025,2.202-5.479,4.917-5.479h45.795
			c2.714,0,4.916,2.453,4.916,5.479V134.12z"/>
	</g>
	<g>
		<g>
			<g>
				<g>
					<path style="fill:#FFFFFF;" d="M263.338,261.72c-6.698,0-13.397,0-20.096,0c-1.935,0-1.935,3,0,3c6.698,0,13.397,0,20.096,0
						C265.272,264.72,265.272,261.72,263.338,261.72L263.338,261.72z"/>
				</g>
			</g>
			<g>
				<g>
					<path style="fill:#FFFFFF;" d="M263.338,270.43c-3.729,0-7.459,0-11.188,0c-1.935,0-1.935,3,0,3c3.729,0,7.459,0,11.188,0
						C265.272,273.43,265.272,270.43,263.338,270.43L263.338,270.43z"/>
				</g>
			</g>
			<g>
				<g>
					<path style="fill:#FFFFFF;" d="M263.338,279.138c-3.729,0-7.459,0-11.188,0c-1.935,0-1.935,3,0,3c3.729,0,7.459,0,11.188,0
						C265.272,282.138,265.272,279.138,263.338,279.138L263.338,279.138z"/>
				</g>
			</g>
			<g>
				<g>
					<g>
						<path style="fill:#FFFFFF;" d="M264.066,218.341c-6.698,0-13.396,0-20.095,0c-1.935,0-1.935,3,0,3c6.698,0,13.396,0,20.095,0
							C266.001,221.341,266.001,218.341,264.066,218.341L264.066,218.341z"/>
					</g>
				</g>
				<g>
					<g>
						<path style="fill:#FFFFFF;" d="M264.066,227.049c-3.729,0-7.459,0-11.188,0c-1.935,0-1.935,3,0,3c3.729,0,7.459,0,11.188,0
							C266.001,230.049,266.001,227.049,264.066,227.049L264.066,227.049z"/>
					</g>
				</g>
				<g>
					<g>
						<path style="fill:#FFFFFF;" d="M264.066,235.758c-3.729,0-7.459,0-11.188,0c-1.935,0-1.935,3,0,3c3.729,0,7.459,0,11.188,0
							C266.001,238.758,266.001,235.758,264.066,235.758L264.066,235.758z"/>
					</g>
				</g>
				<g>
					<g>
						<path style="fill:#FFFFFF;" d="M264.066,244.468c-3.729,0-7.459,0-11.188,0c-1.935,0-1.935,3,0,3c3.729,0,7.459,0,11.188,0
							C266.001,247.468,266.001,244.468,264.066,244.468L264.066,244.468z"/>
					</g>
				</g>
				<g>
					<g>
						<path style="fill:#FFFFFF;" d="M264.066,253.178c-3.729,0-7.459,0-11.188,0c-1.935,0-1.935,3,0,3c3.729,0,7.459,0,11.188,0
							C266.001,256.178,266.001,253.178,264.066,253.178L264.066,253.178z"/>
					</g>
				</g>
			</g>
			<g>
				<g>
					<g>
						<path style="fill:#FFFFFF;" d="M263.496,175.4c-6.698,0-13.396,0-20.095,0c-1.935,0-1.935,3,0,3c6.698,0,13.396,0,20.095,0
							C265.431,178.4,265.431,175.4,263.496,175.4L263.496,175.4z"/>
					</g>
				</g>
				<g>
					<g>
						<path style="fill:#FFFFFF;" d="M263.496,184.109c-3.729,0-7.46,0-11.189,0c-1.935,0-1.935,3,0,3c3.729,0,7.46,0,11.189,0
							C265.431,187.109,265.431,184.109,263.496,184.109L263.496,184.109z"/>
					</g>
				</g>
				<g>
					<g>
						<path style="fill:#FFFFFF;" d="M263.496,192.818c-3.729,0-7.46,0-11.189,0c-1.935,0-1.935,3,0,3c3.729,0,7.46,0,11.189,0
							C265.431,195.818,265.431,192.818,263.496,192.818L263.496,192.818z"/>
					</g>
				</g>
				<g>
					<g>
						<path style="fill:#FFFFFF;" d="M263.496,201.527c-3.729,0-7.46,0-11.189,0c-1.935,0-1.935,3,0,3c3.729,0,7.46,0,11.189,0
							C265.431,204.527,265.431,201.527,263.496,201.527L263.496,201.527z"/>
					</g>
				</g>
				<g>
					<g>
						<path style="fill:#FFFFFF;" d="M263.496,210.237c-3.729,0-7.46,0-11.189,0c-1.935,0-1.935,3,0,3c3.729,0,7.46,0,11.189,0
							C265.431,213.237,265.431,210.237,263.496,210.237L263.496,210.237z"/>
					</g>
				</g>
			</g>
			<g>
				<g>
					<g>
						<path style="fill:#FFFFFF;" d="M264.227,132.021c-6.698,0-13.397,0-20.096,0c-1.935,0-1.935,3,0,3c6.698,0,13.397,0,20.096,0
							C266.161,135.021,266.161,132.021,264.227,132.021L264.227,132.021z"/>
					</g>
				</g>
				<g>
					<g>
						<path style="fill:#FFFFFF;" d="M264.227,140.73c-3.729,0-7.46,0-11.189,0c-1.935,0-1.935,3,0,3c3.729,0,7.46,0,11.189,0
							C266.161,143.73,266.161,140.73,264.227,140.73L264.227,140.73z"/>
					</g>
				</g>
				<g>
					<g>
						<path style="fill:#FFFFFF;" d="M264.227,149.439c-3.729,0-7.46,0-11.189,0c-1.935,0-1.935,3,0,3c3.729,0,7.46,0,11.189,0
							C266.161,152.439,266.161,149.439,264.227,149.439L264.227,149.439z"/>
					</g>
				</g>
				<g>
					<g>
						<path style="fill:#FFFFFF;" d="M264.227,158.148c-3.729,0-7.46,0-11.189,0c-1.935,0-1.935,3,0,3c3.729,0,7.46,0,11.189,0
							C266.161,161.148,266.161,158.148,264.227,158.148L264.227,158.148z"/>
					</g>
				</g>
				<g>
					<g>
						<path style="fill:#FFFFFF;" d="M264.227,166.858c-3.729,0-7.46,0-11.189,0c-1.935,0-1.935,3,0,3c3.729,0,7.46,0,11.189,0
							C266.161,169.858,266.161,166.858,264.227,166.858L264.227,166.858z"/>
					</g>
				</g>
			</g>
		</g>
		<g>
			<g>
				<path style="fill:#FFFFFF;" d="M281.849,70.6c-11.198,0-22.397,0-33.596,0c-7.402,0-14.805,0-22.207,0
					c-3.829,0-8.396-0.596-12.071,0.717c-6.631,2.37-6.725,8.61-6.238,14.333c0.603,7.103,1.205,14.206,1.809,21.309
					c0.633,7.464,1.267,14.928,1.9,22.393c0.43,5.066,0.168,10.477,4.015,14.323c2.095,2.095,5.155,2.629,7.982,2.629
					c-1.667-1.667-3.333-3.333-5-5c1.854,46.521,3.707,93.041,5.561,139.562c0.22,5.515,3.296,10.563,9.467,10.563
					c6.099,0,12.196,0,18.294,0c4.875,0,12.861,1.466,17.437-0.899c4.521-2.337,5.301-6.419,5.508-10.933
					c1.202-26.261,2.405-52.522,3.607-78.784c0.909-19.836,1.817-39.672,2.726-59.508c-1.667,1.667-3.333,3.333-5,5
					c8.559,0,11.082-6.164,11.698-13.424c0.649-7.645,1.298-15.29,1.946-22.935c0.688-8.098,1.375-16.196,2.062-24.294
					C292.378,78.218,290.729,71.623,281.849,70.6c-6.399-0.737-6.329,9.271,0,10c0.806,0.093-1.911,26.38-2.078,28.35
					c-0.558,6.571-1.115,13.142-1.673,19.712c-0.175,2.063,0.593,7.642-2.057,7.642c-2.82,0-4.875,2.278-5,5
					c-2.131,46.521-4.261,93.041-6.392,139.562c-0.084,1.826-0.264,0.563,0.642,0.563c-2.103,0-4.205,0-6.308,0
					c-7.404,0-14.809,0-22.213,0c-0.95,0-1.9,0-2.851,0c-1.124,0,0.112,0.179,0.132,0.656c-0.029-0.734-0.059-1.468-0.088-2.202
					c-0.152-3.827-0.306-7.654-0.458-11.481c-1.198-30.094-2.397-60.188-3.597-90.281c-0.489-12.272-0.978-24.544-1.467-36.816
					c-0.108-2.723-2.192-5-5-5c-2.708,0-1.938-6.261-2.116-8.358c-0.594-6.996-1.188-13.991-1.781-20.987
					c-0.568-6.69-1.136-13.38-1.704-20.069c-0.09-1.064-1.358-6.29,0.288-6.29c21.24,0,42.479,0,63.72,0
					C288.297,80.6,288.297,70.6,281.849,70.6z"/>
			</g>
		</g>
	</g>
</g>
<g id="Ebene_1">
</g>
</svg>
