<?xml version="1.0" encoding="iso-8859-1"?>
<!-- Generator: Adobe Illustrator 16.0.0, SVG Export Plug-In . SVG Version: 6.00 Build 0)  -->
<!DOCTYPE svg PUBLIC "-//W3C//DTD SVG 1.1//EN" "http://www.w3.org/Graphics/SVG/1.1/DTD/svg11.dtd">
<svg version="1.1" xmlns="http://www.w3.org/2000/svg" xmlns:xlink="http://www.w3.org/1999/xlink" x="0px" y="0px" width="361px"
	 height="361px" viewBox="0 0 361 361" style="enable-background:new 0 0 361 361;" xml:space="preserve">
<g id="weather_x5F_snow_x5F_ice_x5F_warning">
	<path style="fill:#FFFFFF;stroke:#FFFFFF;stroke-width:13.0628;stroke-miterlimit:10;" d="M196.65,140.42
		c0,4.328-3.148,7.838-7.033,7.838h-54.511c-3.885,0-7.035-3.51-7.035-7.838V83.597c0-4.329,3.15-7.838,7.035-7.838h54.511
		c3.885,0,7.033,3.509,7.033,7.838V140.42z"/>
	<path style="fill:#FFFFFF;stroke:#FFFFFF;stroke-width:13.0628;stroke-miterlimit:10;" d="M93.455,120.825
		c0,4.329,3.509,7.838,7.838,7.838h36.576c4.328,0,7.837-3.509,7.837-7.838V98.619c0-4.329-3.51-7.838-7.837-7.838h-36.576
		c-4.329,0-7.838,3.509-7.838,7.838V120.825z"/>
	<path style="fill:#FFFFFF;stroke:#FFFFFF;stroke-width:13.0628;stroke-miterlimit:10;" d="M77.779,120.825
		c0-4.328,3.509-7.837,7.838-7.837h45.067c4.328,0,7.837,3.509,7.837,7.837v12.41c0,4.329-3.51,7.838-7.837,7.838H85.617
		c-4.329,0-7.838-3.509-7.838-7.838V120.825z"/>
	<path style="fill:#FFFFFF;stroke:#FFFFFF;stroke-width:13.0628;stroke-miterlimit:10;" d="M249.121,148.258
		c0,4.328-3.149,7.838-7.033,7.838h-54.514c-3.885,0-7.034-3.51-7.034-7.838V91.435c0-4.329,3.149-7.838,7.034-7.838h54.514
		c3.884,0,7.033,3.509,7.033,7.838V148.258z"/>
	<path style="fill:#FFFFFF;stroke:#FFFFFF;stroke-width:13.0628;stroke-miterlimit:10;" d="M233.227,141.727
		c0,4.328,3.51,7.838,7.838,7.838h36.576c4.328,0,7.838-3.51,7.838-7.838v-22.208c0-4.328-3.51-7.837-7.838-7.837h-36.576
		c-4.328,0-7.838,3.51-7.838,7.837V141.727z"/>
	<path style="fill:#FFFFFF;stroke:#FFFFFF;stroke-width:13.0628;stroke-miterlimit:10;" d="M202.094,157.402
		c0,4.328-3.148,7.837-7.033,7.837h-54.512c-3.884,0-7.034-3.509-7.034-7.837v-56.824c0-4.329,3.149-7.838,7.034-7.838h54.512
		c3.885,0,7.033,3.509,7.033,7.838V157.402z"/>
	<path style="fill:#FFFFFF;stroke:#FFFFFF;stroke-width:13.0628;stroke-miterlimit:10;" d="M103.063,142.532
		c0-4.328,3.509-7.837,7.838-7.837h45.067c4.328,0,7.837,3.509,7.837,7.837v12.41c0,4.329-3.51,7.838-7.837,7.838h-45.067
		c-4.329,0-7.838-3.509-7.838-7.838V142.532z"/>
	<g>
		<g>
			<g>
				<g>
					<path style="fill:#FFFFFF;" d="M186.213,164.492c-2.649,9.07-5.299,18.14-7.949,27.209c-1.269,4.344,5.486,6.185,6.75,1.861
						c2.649-9.07,5.3-18.14,7.949-27.209C194.231,162.01,187.477,160.168,186.213,164.492L186.213,164.492z"/>
				</g>
			</g>
			<g>
				<g>
					<path style="fill:#FFFFFF;" d="M178.395,168.324c2.198,2.299,4.397,4.598,6.595,6.896c3.125,3.268,8.067-1.689,4.949-4.95
						c-2.198-2.299-4.396-4.598-6.595-6.896C180.22,160.106,175.277,165.063,178.395,168.324L178.395,168.324z"/>
				</g>
			</g>
			<g>
				<g>
					<path style="fill:#FFFFFF;" d="M195.684,167.073c-3.09,0.754-6.18,1.508-9.27,2.263c-4.384,1.07-2.523,7.82,1.861,6.75
						c3.09-0.754,6.18-1.508,9.27-2.263C201.929,172.752,200.068,166.002,195.684,167.073L195.684,167.073z"/>
				</g>
			</g>
		</g>
		<g>
			<g>
				<g>
					<path style="fill:#FFFFFF;" d="M159.572,174.278c6.53,6.83,13.06,13.659,19.59,20.488c3.125,3.269,8.068-1.688,4.95-4.949
						c-6.53-6.83-13.06-13.659-19.589-20.489C161.397,166.06,156.454,171.017,159.572,174.278L159.572,174.278z"/>
				</g>
			</g>
			<g>
				<g>
					<path style="fill:#FFFFFF;" d="M158.987,182.94c3.09-0.754,6.18-1.509,9.271-2.263c4.384-1.07,2.524-7.82-1.861-6.75
						c-3.09,0.754-6.18,1.508-9.271,2.263C152.742,177.26,154.602,184.011,158.987,182.94L158.987,182.94z"/>
				</g>
			</g>
			<g>
				<g>
					<path style="fill:#FFFFFF;" d="M166.538,167.299c-0.892,3.053-1.784,6.106-2.676,9.16c-1.269,4.343,5.487,6.185,6.75,1.861
						c0.892-3.053,1.784-6.106,2.676-9.16C174.557,164.817,167.801,162.976,166.538,167.299L166.538,167.299z"/>
				</g>
			</g>
		</g>
		<g>
			<g>
				<g>
					<path style="fill:#FFFFFF;" d="M155.094,202.385c9.179-2.24,18.358-4.48,27.538-6.721c4.384-1.07,2.523-7.82-1.861-6.75
						c-9.179,2.24-18.358,4.48-27.538,6.721C148.849,196.705,150.709,203.455,155.094,202.385L155.094,202.385z"/>
				</g>
			</g>
			<g>
				<g>
					<path style="fill:#FFFFFF;" d="M162.267,207.277c0.892-3.054,1.784-6.106,2.676-9.159c1.269-4.344-5.487-6.185-6.75-1.861
						c-0.892,3.054-1.784,6.106-2.676,9.159C154.248,209.76,161.003,211.601,162.267,207.277L162.267,207.277z"/>
				</g>
			</g>
			<g>
				<g>
					<path style="fill:#FFFFFF;" d="M152.527,192.887c2.198,2.299,4.396,4.598,6.595,6.896c3.125,3.269,8.068-1.688,4.95-4.949
						c-2.198-2.299-4.396-4.598-6.595-6.896C154.352,184.669,149.409,189.626,152.527,192.887L152.527,192.887z"/>
				</g>
			</g>
		</g>
		<g>
			<g>
				<g>
					<path style="fill:#FFFFFF;" d="M177.104,220.528c2.649-9.07,5.299-18.14,7.949-27.209c1.269-4.344-5.487-6.185-6.75-1.861
						c-2.649,9.07-5.299,18.14-7.949,27.209C169.085,223.011,175.841,224.852,177.104,220.528L177.104,220.528z"/>
				</g>
			</g>
			<g>
				<g>
					<path style="fill:#FFFFFF;" d="M184.92,216.697c-2.197-2.299-4.396-4.598-6.593-6.896c-3.125-3.269-8.068,1.688-4.95,4.949
						c2.198,2.299,4.396,4.598,6.594,6.896C183.095,224.915,188.038,219.958,184.92,216.697L184.92,216.697z"/>
				</g>
			</g>
			<g>
				<g>
					<path style="fill:#FFFFFF;" d="M167.632,217.947c3.09-0.754,6.18-1.508,9.27-2.262c4.384-1.069,2.524-7.819-1.861-6.75
						c-3.09,0.754-6.18,1.508-9.27,2.262C161.387,212.267,163.247,219.017,167.632,217.947L167.632,217.947z"/>
				</g>
			</g>
		</g>
		<g>
			<g>
				<g>
					<path style="fill:#FFFFFF;" d="M203.805,210.536c-6.529-6.83-13.06-13.659-19.59-20.488c-3.124-3.269-8.067,1.688-4.95,4.949
						c6.53,6.83,13.06,13.659,19.59,20.488C201.979,218.754,206.923,213.797,203.805,210.536L203.805,210.536z"/>
				</g>
			</g>
			<g>
				<g>
					<path style="fill:#FFFFFF;" d="M204.39,201.873c-3.09,0.754-6.18,1.508-9.271,2.262c-4.384,1.069-2.523,7.819,1.861,6.75
						c3.09-0.754,6.18-1.508,9.271-2.262C210.635,207.554,208.774,200.804,204.39,201.873L204.39,201.873z"/>
				</g>
			</g>
			<g>
				<g>
					<path style="fill:#FFFFFF;" d="M196.84,217.515c0.892-3.054,1.783-6.107,2.675-9.16c1.269-4.344-5.487-6.185-6.75-1.861
						c-0.892,3.054-1.783,6.107-2.675,9.16C188.821,219.997,195.577,221.838,196.84,217.515L196.84,217.515z"/>
				</g>
			</g>
		</g>
		<g>
			<g>
				<g>
					<path style="fill:#FFFFFF;" d="M208.282,182.428c-9.179,2.24-18.358,4.48-27.538,6.721c-4.384,1.07-2.524,7.82,1.861,6.75
						c9.179-2.24,18.358-4.48,27.538-6.721C214.527,188.107,212.667,181.357,208.282,182.428L208.282,182.428z"/>
				</g>
			</g>
			<g>
				<g>
					<path style="fill:#FFFFFF;" d="M201.11,177.535c-0.892,3.053-1.784,6.106-2.676,9.159c-1.269,4.344,5.487,6.185,6.75,1.861
						c0.892-3.054,1.784-6.106,2.676-9.159C209.129,175.053,202.373,173.212,201.11,177.535L201.11,177.535z"/>
				</g>
			</g>
			<g>
				<g>
					<path style="fill:#FFFFFF;" d="M210.85,191.927c-2.198-2.3-4.396-4.599-6.596-6.897c-3.125-3.269-8.067,1.688-4.949,4.949
						c2.198,2.3,4.396,4.599,6.596,6.897C209.025,200.145,213.968,195.188,210.85,191.927L210.85,191.927z"/>
				</g>
			</g>
		</g>
	</g>
	<g>
		<g>
			<g>
				<g>
					<path style="fill:#FFFFFF;" d="M102.772,134.555c0,9.449,0,18.898,0,28.347c0,4.514,7,4.514,7,0c0-9.449,0-18.898,0-28.347
						C109.772,130.041,102.772,130.041,102.772,134.555L102.772,134.555z"/>
				</g>
			</g>
			<g>
				<g>
					<path style="fill:#FFFFFF;" d="M96.257,140.431c2.755,1.59,5.509,3.181,8.264,4.771c3.917,2.261,7.44-3.789,3.533-6.044
						c-2.755-1.59-5.51-3.181-8.264-4.771C95.874,132.125,92.351,138.175,96.257,140.431L96.257,140.431z"/>
				</g>
			</g>
			<g>
				<g>
					<path style="fill:#FFFFFF;" d="M112.66,134.387c-2.755,1.59-5.509,3.181-8.264,4.771c-3.907,2.255-0.383,8.305,3.533,6.044
						c2.754-1.59,5.509-3.181,8.264-4.771C120.1,138.175,116.577,132.125,112.66,134.387L112.66,134.387z"/>
				</g>
			</g>
		</g>
		<g>
			<g>
				<g>
					<path style="fill:#FFFFFF;" d="M79.859,151.424c8.183,4.725,16.366,9.449,24.548,14.173c3.917,2.261,7.44-3.789,3.533-6.044
						c-8.183-4.725-16.366-9.449-24.548-14.173C79.476,143.119,75.952,149.168,79.859,151.424L79.859,151.424z"/>
				</g>
			</g>
			<g>
				<g>
					<path style="fill:#FFFFFF;" d="M81.739,159.994c2.754-1.59,5.509-3.181,8.264-4.771c3.907-2.255,0.383-8.305-3.533-6.044
						c-2.755,1.59-5.509,3.181-8.264,4.771C74.299,156.206,77.822,162.255,81.739,159.994L81.739,159.994z"/>
				</g>
			</g>
			<g>
				<g>
					<path style="fill:#FFFFFF;" d="M84.674,142.767c0,3.181,0,6.362,0,9.542c0,4.514,7,4.514,7,0c0-3.181,0-6.362,0-9.542
						C91.674,138.252,84.674,138.252,84.674,142.767L84.674,142.767z"/>
				</g>
			</g>
		</g>
		<g>
			<g>
				<g>
					<path style="fill:#FFFFFF;" d="M83.454,179.75c8.183-4.724,16.366-9.448,24.549-14.173c3.907-2.255,0.383-8.305-3.533-6.044
						c-8.183,4.724-16.366,9.448-24.549,14.173C76.014,175.962,79.538,182.012,83.454,179.75L83.454,179.75z"/>
				</g>
			</g>
			<g>
				<g>
					<path style="fill:#FFFFFF;" d="M91.783,182.445c0-3.181,0-6.362,0-9.542c0-4.514-7-4.514-7,0c0,3.181,0,6.362,0,9.542
						C84.783,186.959,91.783,186.959,91.783,182.445L91.783,182.445z"/>
				</g>
			</g>
			<g>
				<g>
					<path style="fill:#FFFFFF;" d="M78.315,171.262c2.754,1.59,5.509,3.181,8.264,4.771c3.917,2.261,7.44-3.789,3.533-6.044
						c-2.754-1.59-5.509-3.181-8.264-4.771C77.932,162.957,74.408,169.007,78.315,171.262L78.315,171.262z"/>
				</g>
			</g>
		</g>
		<g>
			<g>
				<g>
					<path style="fill:#FFFFFF;" d="M109.741,191.004c0-9.448,0-18.897,0-28.346c0-4.514-7-4.514-7,0c0,9.449,0,18.897,0,28.346
						C102.741,195.518,109.741,195.518,109.741,191.004L109.741,191.004z"/>
				</g>
			</g>
			<g>
				<g>
					<path style="fill:#FFFFFF;" d="M116.256,185.128c-2.755-1.59-5.51-3.18-8.264-4.77c-3.917-2.261-7.44,3.789-3.533,6.044
						c2.755,1.59,5.509,3.18,8.264,4.771C116.64,193.434,120.163,187.384,116.256,185.128L116.256,185.128z"/>
				</g>
			</g>
			<g>
				<g>
					<path style="fill:#FFFFFF;" d="M99.853,191.173c2.754-1.591,5.509-3.181,8.264-4.771c3.907-2.256,0.383-8.306-3.533-6.044
						c-2.754,1.59-5.509,3.18-8.264,4.77C92.413,187.384,95.937,193.434,99.853,191.173L99.853,191.173z"/>
				</g>
			</g>
		</g>
		<g>
			<g>
				<g>
					<path style="fill:#FFFFFF;" d="M132.655,173.919c-8.183-4.725-16.366-9.449-24.549-14.173c-3.917-2.261-7.44,3.789-3.533,6.044
						c8.183,4.725,16.366,9.449,24.549,14.173C133.038,182.225,136.562,176.175,132.655,173.919L132.655,173.919z"/>
				</g>
			</g>
			<g>
				<g>
					<path style="fill:#FFFFFF;" d="M130.774,165.35c-2.755,1.59-5.509,3.181-8.264,4.771c-3.907,2.255-0.383,8.305,3.533,6.044
						c2.754-1.59,5.509-3.181,8.264-4.771C138.214,169.138,134.691,163.088,130.774,165.35L130.774,165.35z"/>
				</g>
			</g>
			<g>
				<g>
					<path style="fill:#FFFFFF;" d="M127.839,182.577c0-3.181,0-6.362,0-9.542c0-4.514-7-4.514-7,0c0,3.181,0,6.362,0,9.542
						C120.839,187.091,127.839,187.091,127.839,182.577L127.839,182.577z"/>
				</g>
			</g>
		</g>
		<g>
			<g>
				<g>
					<path style="fill:#FFFFFF;" d="M129.059,145.593c-8.183,4.724-16.366,9.449-24.549,14.173
						c-3.907,2.255-0.383,8.305,3.533,6.044c8.183-4.724,16.366-9.449,24.549-14.173
						C136.499,149.381,132.975,143.332,129.059,145.593L129.059,145.593z"/>
				</g>
			</g>
			<g>
				<g>
					<path style="fill:#FFFFFF;" d="M120.73,142.898c0,3.181,0,6.362,0,9.542c0,4.514,7,4.514,7,0c0-3.181,0-6.362,0-9.542
						C127.73,138.384,120.73,138.384,120.73,142.898L120.73,142.898z"/>
				</g>
			</g>
			<g>
				<g>
					<path style="fill:#FFFFFF;" d="M134.198,154.082c-2.755-1.591-5.51-3.181-8.264-4.771c-3.917-2.261-7.44,3.789-3.533,6.044
						c2.755,1.591,5.509,3.181,8.264,4.771C134.582,162.387,138.105,156.337,134.198,154.082L134.198,154.082z"/>
				</g>
			</g>
		</g>
	</g>
	<g>
		<g>
			<g>
				<g>
					<path style="fill:#FFFFFF;" d="M135.87,216.102c-6.681,6.682-13.362,13.363-20.044,20.045c-3.194,3.194,1.755,8.145,4.95,4.949
						c6.681-6.682,13.362-13.363,20.044-20.045C144.014,217.856,139.064,212.906,135.87,216.102L135.87,216.102z"/>
				</g>
			</g>
			<g>
				<g>
					<path style="fill:#FFFFFF;" d="M127.12,215.692c0.823,3.072,1.646,6.145,2.47,9.217c1.167,4.355,7.92,2.505,6.75-1.861
						c-0.823-3.072-1.646-6.145-2.47-9.217C132.702,209.476,125.95,211.326,127.12,215.692L127.12,215.692z"/>
				</g>
			</g>
			<g>
				<g>
					<path style="fill:#FFFFFF;" d="M143.023,222.985c-3.072-0.823-6.145-1.646-9.217-2.47c-4.367-1.17-6.217,5.583-1.861,6.75
						c3.072,0.823,6.145,1.646,9.217,2.47C145.529,230.905,147.379,224.152,143.023,222.985L143.023,222.985z"/>
				</g>
			</g>
		</g>
		<g>
			<g>
				<g>
					<path style="fill:#FFFFFF;" d="M107.75,211.87c2.445,9.127,4.891,18.254,7.336,27.381c1.167,4.355,7.92,2.505,6.75-1.861
						c-2.445-9.127-4.891-18.254-7.336-27.381C113.333,205.653,106.581,207.504,107.75,211.87L107.75,211.87z"/>
				</g>
			</g>
			<g>
				<g>
					<path style="fill:#FFFFFF;" d="M102.966,219.206c3.073,0.823,6.145,1.646,9.217,2.47c4.367,1.17,6.217-5.583,1.861-6.75
						c-3.073-0.823-6.145-1.646-9.217-2.47C100.46,211.286,98.61,218.039,102.966,219.206L102.966,219.206z"/>
				</g>
			</g>
			<g>
				<g>
					<path style="fill:#FFFFFF;" d="M117.266,209.111c-2.249,2.249-4.499,4.498-6.748,6.747c-3.195,3.194,1.755,8.144,4.95,4.949
						c2.249-2.249,4.499-4.498,6.748-6.747C125.411,210.866,120.461,205.917,117.266,209.111L117.266,209.111z"/>
				</g>
			</g>
		</g>
		<g>
			<g>
				<g>
					<path style="fill:#FFFFFF;" d="M90.209,234.389c9.127,2.446,18.254,4.892,27.38,7.338c4.366,1.17,6.217-5.583,1.861-6.75
						c-9.127-2.446-18.254-4.892-27.38-7.338C87.704,226.469,85.853,233.222,90.209,234.389L90.209,234.389z"/>
				</g>
			</g>
			<g>
				<g>
					<path style="fill:#FFFFFF;" d="M94.236,242.194c2.249-2.249,4.498-4.498,6.748-6.747c3.194-3.194-1.755-8.144-4.95-4.949
						c-2.249,2.249-4.498,4.498-6.748,6.747C86.092,240.439,91.042,245.389,94.236,242.194L94.236,242.194z"/>
				</g>
			</g>
			<g>
				<g>
					<path style="fill:#FFFFFF;" d="M92.631,224.807c0.823,3.072,1.647,6.145,2.47,9.217c1.167,4.355,7.92,2.505,6.75-1.861
						c-0.823-3.072-1.647-6.145-2.47-9.217C98.213,218.59,91.46,220.44,92.631,224.807L92.631,224.807z"/>
				</g>
			</g>
		</g>
		<g>
			<g>
				<g>
					<path style="fill:#FFFFFF;" d="M100.882,260.945c6.681-6.682,13.362-13.363,20.043-20.045c3.194-3.194-1.755-8.145-4.95-4.949
						c-6.681,6.682-13.362,13.363-20.043,20.045C92.738,259.19,97.688,264.141,100.882,260.945L100.882,260.945z"/>
				</g>
			</g>
			<g>
				<g>
					<path style="fill:#FFFFFF;" d="M109.632,261.354c-0.823-3.072-1.646-6.145-2.47-9.218c-1.167-4.355-7.92-2.505-6.75,1.861
						c0.823,3.072,1.646,6.145,2.47,9.218C104.049,267.571,110.802,265.721,109.632,261.354L109.632,261.354z"/>
				</g>
			</g>
			<g>
				<g>
					<path style="fill:#FFFFFF;" d="M93.728,254.062c3.072,0.823,6.145,1.646,9.217,2.47c4.367,1.17,6.217-5.583,1.861-6.75
						c-3.072-0.823-6.145-1.646-9.217-2.47C91.223,246.142,89.372,252.895,93.728,254.062L93.728,254.062z"/>
				</g>
			</g>
		</g>
		<g>
			<g>
				<g>
					<path style="fill:#FFFFFF;" d="M129.154,265.024c-2.446-9.127-4.892-18.254-7.337-27.381c-1.167-4.355-7.92-2.505-6.75,1.861
						c2.446,9.127,4.892,18.254,7.337,27.381C123.572,271.241,130.324,269.391,129.154,265.024L129.154,265.024z"/>
				</g>
			</g>
			<g>
				<g>
					<path style="fill:#FFFFFF;" d="M133.938,257.688c-3.073-0.823-6.145-1.646-9.217-2.47c-4.367-1.17-6.217,5.583-1.861,6.75
						c3.073,0.823,6.145,1.646,9.217,2.47C136.444,265.608,138.294,258.855,133.938,257.688L133.938,257.688z"/>
				</g>
			</g>
			<g>
				<g>
					<path style="fill:#FFFFFF;" d="M119.639,267.783c2.249-2.249,4.498-4.498,6.747-6.748c3.194-3.194-1.756-8.145-4.95-4.949
						c-2.249,2.249-4.498,4.498-6.747,6.748C111.494,266.028,116.444,270.979,119.639,267.783L119.639,267.783z"/>
				</g>
			</g>
		</g>
		<g>
			<g>
				<g>
					<path style="fill:#FFFFFF;" d="M146.695,242.505c-9.127-2.445-18.254-4.892-27.381-7.337c-4.367-1.17-6.217,5.583-1.861,6.75
						c9.127,2.445,18.254,4.892,27.381,7.337C149.201,250.425,151.051,243.672,146.695,242.505L146.695,242.505z"/>
				</g>
			</g>
			<g>
				<g>
					<path style="fill:#FFFFFF;" d="M142.668,234.699c-2.249,2.249-4.498,4.498-6.748,6.748c-3.194,3.194,1.755,8.145,4.95,4.949
						c2.249-2.249,4.498-4.498,6.748-6.748C150.813,236.454,145.863,231.504,142.668,234.699L142.668,234.699z"/>
				</g>
			</g>
			<g>
				<g>
					<path style="fill:#FFFFFF;" d="M144.273,252.087c-0.823-3.072-1.646-6.145-2.47-9.217c-1.167-4.355-7.92-2.505-6.75,1.861
						c0.823,3.072,1.646,6.145,2.47,9.217C138.69,258.304,145.443,256.453,144.273,252.087L144.273,252.087z"/>
				</g>
			</g>
		</g>
	</g>
	<g>
		<g>
			<g>
				<path style="fill:#FFFFFF;" d="M185.609,289.829c17.651-30.573,35.304-61.147,52.955-91.722c-2.878,0-5.757,0-8.635,0
					c17.652,30.574,35.304,61.148,52.956,91.722c1.439-2.508,2.878-5.016,4.317-7.523c-35.304,0-70.607,0-105.911,0
					c-6.449,0-6.449,10,0,10c35.304,0,70.607,0,105.911,0c3.806,0,6.211-4.243,4.317-7.523
					c-17.652-30.574-35.304-61.147-52.956-91.722c-1.873-3.244-6.762-3.244-8.635,0c-17.651,30.574-35.304,61.147-52.955,91.722
					C173.744,290.377,182.387,295.41,185.609,289.829z"/>
			</g>
		</g>
		<g>
			<g>
				<path style="fill:#FFFFFF;" d="M229.313,222.399c0,10.854,0,21.709,0,32.563c0,6.448,10,6.448,10,0c0-10.854,0-21.709,0-32.563
					C239.313,215.951,229.313,215.951,229.313,222.399L229.313,222.399z"/>
			</g>
		</g>
		<g>
			<g>
				<path style="fill:#FFFFFF;" d="M229.313,269.648c0,1.234,0,2.469,0,3.703c0,2.726,2.274,5,5,5s5-2.274,5-5
					c0-1.234,0-2.469,0-3.703c0-2.726-2.274-5-5-5S229.313,266.923,229.313,269.648L229.313,269.648z"/>
			</g>
		</g>
	</g>
</g>
<g id="Ebene_1">
</g>
</svg>
