<?xml version="1.0" encoding="iso-8859-1"?>
<!-- Generator: Adobe Illustrator 16.0.0, SVG Export Plug-In . SVG Version: 6.00 Build 0)  -->
<!DOCTYPE svg PUBLIC "-//W3C//DTD SVG 1.1 Tiny//EN" "http://www.w3.org/Graphics/SVG/1.1/DTD/svg11-tiny.dtd">
<svg version="1.1" baseProfile="tiny" id="weather_x5F_snow_x5F_heavy"
	 xmlns="http://www.w3.org/2000/svg" xmlns:xlink="http://www.w3.org/1999/xlink" x="0px" y="0px" width="361px" height="361px"
	 viewBox="0 0 361 361" xml:space="preserve">
<g>
	<g>
		<g>
			<path fill="#FFFFFF" d="M104.761,165.201c0,9.449,0,18.898,0,28.347c0,4.514,7,4.514,7,0c0-9.449,0-18.898,0-28.347
				C111.761,160.687,104.761,160.687,104.761,165.201L104.761,165.201z"/>
		</g>
		<g>
			<path fill="#FFFFFF" d="M98.246,171.076c2.755,1.59,5.51,3.181,8.264,4.771c3.917,2.261,7.44-3.789,3.533-6.044
				c-2.755-1.59-5.509-3.181-8.264-4.771C97.862,162.771,94.339,168.821,98.246,171.076L98.246,171.076z"/>
		</g>
		<g>
			<path fill="#FFFFFF" d="M114.648,165.032c-2.754,1.59-5.509,3.181-8.264,4.771c-3.907,2.255-0.383,8.305,3.533,6.044
				c2.755-1.59,5.509-3.181,8.264-4.771C122.088,168.821,118.565,162.771,114.648,165.032L114.648,165.032z"/>
		</g>
	</g>
	<g>
		<g>
			<path fill="#FFFFFF" d="M81.847,182.069c8.183,4.725,16.366,9.449,24.548,14.173c3.917,2.261,7.44-3.789,3.533-6.044
				c-8.183-4.725-16.366-9.449-24.548-14.173C81.464,173.764,77.94,179.814,81.847,182.069L81.847,182.069z"/>
		</g>
		<g>
			<path fill="#FFFFFF" d="M83.727,190.64c2.755-1.59,5.509-3.181,8.264-4.771c3.907-2.255,0.383-8.305-3.533-6.044
				c-2.754,1.59-5.509,3.181-8.264,4.771C76.287,186.851,79.811,192.901,83.727,190.64L83.727,190.64z"/>
		</g>
		<g>
			<path fill="#FFFFFF" d="M86.663,173.412c0,3.181,0,6.362,0,9.542c0,4.514,7,4.514,7,0c0-3.181,0-6.362,0-9.542
				C93.663,168.898,86.663,168.898,86.663,173.412L86.663,173.412z"/>
		</g>
	</g>
	<g>
		<g>
			<path fill="#FFFFFF" d="M85.442,210.396c8.183-4.724,16.366-9.448,24.549-14.173c3.907-2.255,0.383-8.305-3.533-6.044
				c-8.183,4.724-16.366,9.448-24.549,14.173C78.002,206.607,81.526,212.657,85.442,210.396L85.442,210.396z"/>
		</g>
		<g>
			<path fill="#FFFFFF" d="M93.771,213.091c0-3.181,0-6.362,0-9.542c0-4.514-7-4.514-7,0c0,3.181,0,6.362,0,9.542
				C86.771,217.605,93.771,217.605,93.771,213.091L93.771,213.091z"/>
		</g>
		<g>
			<path fill="#FFFFFF" d="M80.303,201.908c2.755,1.59,5.509,3.181,8.264,4.771c3.917,2.261,7.44-3.789,3.533-6.044
				c-2.755-1.59-5.509-3.181-8.264-4.771C79.92,193.603,76.396,199.652,80.303,201.908L80.303,201.908z"/>
		</g>
	</g>
	<g>
		<g>
			<path fill="#FFFFFF" d="M111.729,221.65c0-9.449,0-18.897,0-28.346c0-4.514-7-4.514-7,0c0,9.449,0,18.897,0,28.346
				C104.729,226.164,111.729,226.164,111.729,221.65L111.729,221.65z"/>
		</g>
		<g>
			<path fill="#FFFFFF" d="M118.244,215.774c-2.755-1.59-5.509-3.181-8.264-4.771c-3.917-2.261-7.44,3.789-3.533,6.044
				c2.755,1.59,5.51,3.181,8.264,4.771C118.627,224.08,122.151,218.03,118.244,215.774L118.244,215.774z"/>
		</g>
		<g>
			<path fill="#FFFFFF" d="M101.841,221.818c2.754-1.59,5.509-3.181,8.264-4.771c3.907-2.255,0.383-8.305-3.533-6.044
				c-2.754,1.59-5.509,3.181-8.264,4.771C94.401,218.03,97.925,224.08,101.841,221.818L101.841,221.818z"/>
		</g>
	</g>
	<g>
		<g>
			<path fill="#FFFFFF" d="M134.643,204.565c-8.183-4.725-16.366-9.449-24.549-14.173c-3.917-2.261-7.44,3.789-3.533,6.044
				c8.183,4.725,16.366,9.449,24.549,14.173C135.026,212.87,138.55,206.82,134.643,204.565L134.643,204.565z"/>
		</g>
		<g>
			<path fill="#FFFFFF" d="M132.763,195.995c-2.754,1.59-5.509,3.181-8.264,4.771c-3.907,2.255-0.383,8.305,3.533,6.044
				c2.755-1.59,5.509-3.181,8.264-4.771C140.203,199.784,136.679,193.734,132.763,195.995L132.763,195.995z"/>
		</g>
		<g>
			<path fill="#FFFFFF" d="M129.828,213.223c0-3.181,0-6.362,0-9.542c0-4.514-7-4.514-7,0c0,3.181,0,6.362,0,9.542
				C122.828,217.737,129.828,217.737,129.828,213.223L129.828,213.223z"/>
		</g>
	</g>
	<g>
		<g>
			<path fill="#FFFFFF" d="M131.047,176.238c-8.183,4.724-16.366,9.449-24.549,14.173c-3.907,2.255-0.383,8.305,3.533,6.044
				c8.183-4.724,16.366-9.449,24.549-14.173C138.487,180.027,134.963,173.977,131.047,176.238L131.047,176.238z"/>
		</g>
		<g>
			<path fill="#FFFFFF" d="M122.718,173.543c0,3.181,0,6.362,0,9.542c0,4.514,7,4.514,7,0c0-3.181,0-6.362,0-9.542
				C129.718,169.029,122.718,169.029,122.718,173.543L122.718,173.543z"/>
		</g>
		<g>
			<path fill="#FFFFFF" d="M136.187,184.727c-2.755-1.591-5.509-3.181-8.264-4.771c-3.917-2.261-7.44,3.789-3.533,6.044
				c2.755,1.591,5.51,3.181,8.264,4.771C136.57,193.032,140.093,186.982,136.187,184.727L136.187,184.727z"/>
		</g>
	</g>
</g>
<path fill="#FFFFFF" stroke="#FFFFFF" stroke-width="13.0628" stroke-miterlimit="10" d="M194.132,143.298
	c0,4.328-3.148,7.838-7.033,7.838h-54.512c-3.885,0-7.035-3.51-7.035-7.838V86.475c0-4.329,3.15-7.838,7.035-7.838H187.1
	c3.884,0,7.033,3.509,7.033,7.838V143.298z"/>
<path fill="#FFFFFF" stroke="#FFFFFF" stroke-width="13.0628" stroke-miterlimit="10" d="M90.937,123.703
	c0,4.329,3.509,7.838,7.838,7.838h36.576c4.328,0,7.837-3.509,7.837-7.838v-22.206c0-4.329-3.51-7.838-7.837-7.838H98.774
	c-4.329,0-7.838,3.509-7.838,7.838V123.703z"/>
<path fill="#FFFFFF" stroke="#FFFFFF" stroke-width="13.0628" stroke-miterlimit="10" d="M75.261,123.703
	c0-4.328,3.509-7.837,7.838-7.837h45.067c4.328,0,7.837,3.509,7.837,7.837v12.41c0,4.329-3.51,7.838-7.837,7.838H83.099
	c-4.329,0-7.838-3.509-7.838-7.838V123.703z"/>
<path fill="#FFFFFF" stroke="#FFFFFF" stroke-width="13.0628" stroke-miterlimit="10" d="M246.603,151.136
	c0,4.328-3.149,7.838-7.033,7.838h-54.513c-3.885,0-7.034-3.51-7.034-7.838V94.313c0-4.329,3.149-7.838,7.034-7.838h54.513
	c3.884,0,7.033,3.509,7.033,7.838V151.136z"/>
<path fill="#FFFFFF" stroke="#FFFFFF" stroke-width="13.0628" stroke-miterlimit="10" d="M230.709,144.604
	c0,4.328,3.51,7.838,7.837,7.838h36.576c4.329,0,7.838-3.51,7.838-7.838v-22.208c0-4.328-3.509-7.837-7.838-7.837h-36.576
	c-4.328,0-7.837,3.51-7.837,7.837V144.604z"/>
<path fill="#FFFFFF" stroke="#FFFFFF" stroke-width="13.0628" stroke-miterlimit="10" d="M199.576,160.28
	c0,4.328-3.149,7.837-7.033,7.837H138.03c-3.884,0-7.034-3.509-7.034-7.837v-56.824c0-4.329,3.149-7.838,7.034-7.838h54.513
	c3.884,0,7.033,3.509,7.033,7.838V160.28z"/>
<path fill="#FFFFFF" stroke="#FFFFFF" stroke-width="13.0628" stroke-miterlimit="10" d="M100.545,145.41
	c0-4.328,3.509-7.837,7.838-7.837h45.067c4.328,0,7.837,3.509,7.837,7.837v12.41c0,4.329-3.51,7.838-7.837,7.838h-45.067
	c-4.329,0-7.838-3.509-7.838-7.838V145.41z"/>
<g>
	<g>
		<g>
			<path fill="#FFFFFF" d="M166.813,147.771c0,9.449,0,18.898,0,28.347c0,4.514,7,4.514,7,0c0-9.449,0-18.898,0-28.347
				C173.813,143.257,166.813,143.257,166.813,147.771L166.813,147.771z"/>
		</g>
		<g>
			<path fill="#FFFFFF" d="M160.297,153.646c2.755,1.59,5.51,3.181,8.264,4.771c3.917,2.261,7.44-3.789,3.533-6.044
				c-2.755-1.59-5.509-3.181-8.264-4.771C159.914,145.341,156.391,151.391,160.297,153.646L160.297,153.646z"/>
		</g>
		<g>
			<path fill="#FFFFFF" d="M176.7,147.603c-2.754,1.59-5.509,3.181-8.264,4.771c-3.907,2.255-0.383,8.305,3.533,6.044
				c2.755-1.59,5.509-3.181,8.264-4.771C184.14,151.391,180.617,145.341,176.7,147.603L176.7,147.603z"/>
		</g>
	</g>
	<g>
		<g>
			<path fill="#FFFFFF" d="M143.899,164.64c8.183,4.725,16.366,9.449,24.548,14.173c3.917,2.261,7.44-3.789,3.533-6.044
				c-8.183-4.725-16.366-9.449-24.548-14.173C143.516,156.334,139.992,162.384,143.899,164.64L143.899,164.64z"/>
		</g>
		<g>
			<path fill="#FFFFFF" d="M145.779,173.21c2.755-1.59,5.509-3.181,8.264-4.771c3.907-2.255,0.383-8.305-3.533-6.044
				c-2.754,1.59-5.509,3.181-8.264,4.771C138.339,169.421,141.862,175.471,145.779,173.21L145.779,173.21z"/>
		</g>
		<g>
			<path fill="#FFFFFF" d="M148.714,155.982c0,3.181,0,6.362,0,9.542c0,4.514,7,4.514,7,0c0-3.181,0-6.362,0-9.542
				C155.714,151.468,148.714,151.468,148.714,155.982L148.714,155.982z"/>
		</g>
	</g>
	<g>
		<g>
			<path fill="#FFFFFF" d="M147.494,192.966c8.183-4.724,16.366-9.448,24.549-14.173c3.907-2.255,0.383-8.305-3.533-6.044
				c-8.183,4.724-16.366,9.448-24.549,14.173C140.054,189.178,143.578,195.228,147.494,192.966L147.494,192.966z"/>
		</g>
		<g>
			<path fill="#FFFFFF" d="M155.823,195.661c0-3.181,0-6.362,0-9.542c0-4.514-7-4.514-7,0c0,3.181,0,6.362,0,9.542
				C148.823,200.175,155.823,200.175,155.823,195.661L155.823,195.661z"/>
		</g>
		<g>
			<path fill="#FFFFFF" d="M142.355,184.478c2.755,1.59,5.509,3.181,8.264,4.771c3.917,2.261,7.44-3.789,3.533-6.044
				c-2.755-1.59-5.509-3.181-8.264-4.771C141.972,176.173,138.448,182.223,142.355,184.478L142.355,184.478z"/>
		</g>
	</g>
	<g>
		<g>
			<path fill="#FFFFFF" d="M173.781,204.22c0-9.449,0-18.897,0-28.346c0-4.514-7-4.514-7,0c0,9.449,0,18.897,0,28.346
				C166.781,208.734,173.781,208.734,173.781,204.22L173.781,204.22z"/>
		</g>
		<g>
			<path fill="#FFFFFF" d="M180.296,198.345c-2.755-1.59-5.509-3.181-8.264-4.771c-3.917-2.261-7.44,3.789-3.533,6.044
				c2.755,1.59,5.51,3.181,8.264,4.771C180.679,206.65,184.203,200.6,180.296,198.345L180.296,198.345z"/>
		</g>
		<g>
			<path fill="#FFFFFF" d="M163.893,204.389c2.754-1.59,5.509-3.181,8.264-4.771c3.907-2.255,0.383-8.305-3.533-6.044
				c-2.754,1.59-5.509,3.181-8.264,4.771C156.453,200.6,159.977,206.65,163.893,204.389L163.893,204.389z"/>
		</g>
	</g>
	<g>
		<g>
			<path fill="#FFFFFF" d="M196.695,187.135c-8.183-4.725-16.366-9.449-24.549-14.173c-3.917-2.261-7.44,3.789-3.533,6.044
				c8.183,4.725,16.366,9.449,24.549,14.173C197.078,195.44,200.602,189.391,196.695,187.135L196.695,187.135z"/>
		</g>
		<g>
			<path fill="#FFFFFF" d="M194.814,178.565c-2.754,1.59-5.509,3.181-8.264,4.771c-3.907,2.255-0.383,8.305,3.533,6.044
				c2.755-1.59,5.509-3.181,8.264-4.771C202.254,182.354,198.731,176.304,194.814,178.565L194.814,178.565z"/>
		</g>
		<g>
			<path fill="#FFFFFF" d="M191.879,195.793c0-3.181,0-6.362,0-9.542c0-4.514-7-4.514-7,0c0,3.181,0,6.362,0,9.542
				C184.879,200.307,191.879,200.307,191.879,195.793L191.879,195.793z"/>
		</g>
	</g>
	<g>
		<g>
			<path fill="#FFFFFF" d="M193.099,158.809c-8.183,4.724-16.366,9.449-24.549,14.173c-3.907,2.255-0.383,8.305,3.533,6.044
				c8.183-4.724,16.366-9.449,24.549-14.173C200.539,162.597,197.015,156.547,193.099,158.809L193.099,158.809z"/>
		</g>
		<g>
			<path fill="#FFFFFF" d="M184.77,156.114c0,3.181,0,6.362,0,9.542c0,4.514,7,4.514,7,0c0-3.181,0-6.362,0-9.542
				C191.77,151.6,184.77,151.6,184.77,156.114L184.77,156.114z"/>
		</g>
		<g>
			<path fill="#FFFFFF" d="M198.238,167.297c-2.755-1.591-5.509-3.181-8.264-4.771c-3.917-2.261-7.44,3.789-3.533,6.044
				c2.755,1.591,5.51,3.181,8.264,4.771C198.622,175.603,202.145,169.553,198.238,167.297L198.238,167.297z"/>
		</g>
	</g>
</g>
<g>
	<g>
		<g>
			<path fill="#FFFFFF" d="M250.587,172.595c-6.681,6.682-13.362,13.363-20.044,20.044c-3.194,3.195,1.755,8.145,4.95,4.95
				c6.681-6.682,13.362-13.363,20.044-20.044C258.731,174.351,253.782,169.401,250.587,172.595L250.587,172.595z"/>
		</g>
		<g>
			<path fill="#FFFFFF" d="M241.837,172.187c0.823,3.072,1.646,6.145,2.47,9.217c1.167,4.356,7.92,2.505,6.75-1.861
				c-0.823-3.072-1.646-6.145-2.47-9.217C247.419,165.969,240.667,167.82,241.837,172.187L241.837,172.187z"/>
		</g>
		<g>
			<path fill="#FFFFFF" d="M257.741,179.479c-3.072-0.823-6.145-1.646-9.217-2.47c-4.367-1.17-6.217,5.583-1.861,6.75
				c3.072,0.823,6.145,1.646,9.217,2.47C260.246,187.399,262.097,180.646,257.741,179.479L257.741,179.479z"/>
		</g>
	</g>
	<g>
		<g>
			<path fill="#FFFFFF" d="M222.468,168.364c2.445,9.126,4.891,18.253,7.336,27.38c1.167,4.356,7.92,2.505,6.75-1.861
				c-2.445-9.126-4.891-18.253-7.336-27.38C228.051,162.147,221.298,163.998,222.468,168.364L222.468,168.364z"/>
		</g>
		<g>
			<path fill="#FFFFFF" d="M217.683,175.7c3.073,0.823,6.145,1.646,9.217,2.47c4.367,1.17,6.217-5.583,1.861-6.75
				c-3.073-0.823-6.145-1.646-9.217-2.47C215.178,167.78,213.327,174.533,217.683,175.7L217.683,175.7z"/>
		</g>
		<g>
			<path fill="#FFFFFF" d="M231.983,165.604c-2.249,2.249-4.499,4.498-6.748,6.747c-3.195,3.194,1.755,8.145,4.95,4.95
				c2.249-2.249,4.499-4.498,6.748-6.747C240.128,167.36,235.178,162.41,231.983,165.604L231.983,165.604z"/>
		</g>
	</g>
	<g>
		<g>
			<path fill="#FFFFFF" d="M204.926,190.882c9.127,2.446,18.254,4.892,27.38,7.337c4.366,1.17,6.217-5.583,1.861-6.75
				c-9.127-2.446-18.254-4.892-27.38-7.337C202.421,182.962,200.57,189.715,204.926,190.882L204.926,190.882z"/>
		</g>
		<g>
			<path fill="#FFFFFF" d="M208.954,198.689c2.249-2.25,4.498-4.499,6.748-6.748c3.194-3.195-1.755-8.145-4.95-4.95
				c-2.249,2.25-4.498,4.499-6.748,6.748C200.809,196.934,205.759,201.883,208.954,198.689L208.954,198.689z"/>
		</g>
		<g>
			<path fill="#FFFFFF" d="M207.348,181.3c0.823,3.072,1.647,6.145,2.47,9.217c1.167,4.355,7.92,2.505,6.75-1.861
				c-0.823-3.072-1.647-6.145-2.47-9.217C212.931,175.083,206.178,176.934,207.348,181.3L207.348,181.3z"/>
		</g>
	</g>
	<g>
		<g>
			<path fill="#FFFFFF" d="M215.6,217.439c6.681-6.682,13.362-13.363,20.043-20.044c3.194-3.195-1.755-8.145-4.95-4.95
				c-6.681,6.682-13.362,13.363-20.043,20.044C207.455,215.684,212.405,220.633,215.6,217.439L215.6,217.439z"/>
		</g>
		<g>
			<path fill="#FFFFFF" d="M224.349,217.848c-0.823-3.072-1.646-6.145-2.47-9.217c-1.167-4.356-7.92-2.505-6.75,1.861
				c0.823,3.072,1.646,6.145,2.47,9.217C218.767,224.065,225.519,222.214,224.349,217.848L224.349,217.848z"/>
		</g>
		<g>
			<path fill="#FFFFFF" d="M208.445,210.555c3.072,0.823,6.145,1.646,9.217,2.47c4.367,1.17,6.217-5.583,1.861-6.75
				c-3.072-0.823-6.145-1.646-9.217-2.47C205.94,202.635,204.089,209.388,208.445,210.555L208.445,210.555z"/>
		</g>
	</g>
	<g>
		<g>
			<path fill="#FFFFFF" d="M243.872,221.518c-2.446-9.127-4.892-18.254-7.337-27.381c-1.167-4.356-7.92-2.505-6.75,1.861
				c2.446,9.127,4.892,18.254,7.337,27.381C238.289,227.735,245.042,225.884,243.872,221.518L243.872,221.518z"/>
		</g>
		<g>
			<path fill="#FFFFFF" d="M248.656,214.182c-3.073-0.823-6.145-1.647-9.217-2.47c-4.366-1.17-6.217,5.583-1.861,6.75
				c3.073,0.823,6.145,1.647,9.217,2.47C251.161,222.102,253.012,215.35,248.656,214.182L248.656,214.182z"/>
		</g>
		<g>
			<path fill="#FFFFFF" d="M234.355,224.277c2.249-2.25,4.498-4.499,6.748-6.748c3.194-3.195-1.755-8.145-4.95-4.95
				c-2.249,2.25-4.498,4.499-6.748,6.748C226.211,222.522,231.161,227.472,234.355,224.277L234.355,224.277z"/>
		</g>
	</g>
	<g>
		<g>
			<path fill="#FFFFFF" d="M261.413,198.999c-9.127-2.445-18.254-4.891-27.381-7.336c-4.367-1.17-6.217,5.583-1.861,6.75
				c9.127,2.445,18.254,4.891,27.381,7.336C263.918,206.918,265.769,200.166,261.413,198.999L261.413,198.999z"/>
		</g>
		<g>
			<path fill="#FFFFFF" d="M257.386,191.192c-2.249,2.25-4.498,4.499-6.748,6.748c-3.194,3.195,1.755,8.145,4.95,4.95
				c2.249-2.25,4.498-4.499,6.748-6.748C265.53,192.948,260.581,187.998,257.386,191.192L257.386,191.192z"/>
		</g>
		<g>
			<path fill="#FFFFFF" d="M258.99,208.581c-0.823-3.072-1.646-6.145-2.47-9.217c-1.167-4.356-7.92-2.505-6.75,1.861
				c0.823,3.072,1.646,6.145,2.47,9.217C253.407,214.798,260.16,212.948,258.99,208.581L258.99,208.581z"/>
		</g>
	</g>
</g>
<g>
	<g>
		<g>
			<path fill="#FFFFFF" d="M197.829,223.289c-6.681,6.682-13.362,13.363-20.044,20.044c-3.194,3.195,1.755,8.145,4.95,4.95
				c6.681-6.682,13.362-13.363,20.044-20.044C205.973,225.044,201.023,220.095,197.829,223.289L197.829,223.289z"/>
		</g>
		<g>
			<path fill="#FFFFFF" d="M189.079,222.88c0.823,3.072,1.646,6.145,2.47,9.217c1.167,4.356,7.92,2.505,6.75-1.861
				c-0.823-3.072-1.646-6.145-2.47-9.217C194.661,216.663,187.909,218.514,189.079,222.88L189.079,222.88z"/>
		</g>
		<g>
			<path fill="#FFFFFF" d="M204.982,230.173c-3.072-0.823-6.145-1.646-9.217-2.47c-4.367-1.17-6.217,5.583-1.861,6.75
				c3.072,0.823,6.145,1.646,9.217,2.47C207.488,238.093,209.338,231.34,204.982,230.173L204.982,230.173z"/>
		</g>
	</g>
	<g>
		<g>
			<path fill="#FFFFFF" d="M169.709,219.058c2.445,9.126,4.891,18.253,7.336,27.38c1.167,4.356,7.92,2.505,6.75-1.861
				c-2.445-9.126-4.891-18.253-7.336-27.38C175.292,212.841,168.54,214.691,169.709,219.058L169.709,219.058z"/>
		</g>
		<g>
			<path fill="#FFFFFF" d="M164.925,226.394c3.073,0.823,6.145,1.646,9.217,2.47c4.367,1.17,6.217-5.583,1.861-6.75
				c-3.073-0.823-6.145-1.646-9.217-2.47C162.419,218.474,160.569,225.227,164.925,226.394L164.925,226.394z"/>
		</g>
		<g>
			<path fill="#FFFFFF" d="M179.225,216.298c-2.249,2.249-4.499,4.498-6.748,6.747c-3.194,3.194,1.755,8.145,4.95,4.95
				c2.249-2.249,4.499-4.498,6.748-6.747C187.37,218.054,182.42,213.104,179.225,216.298L179.225,216.298z"/>
		</g>
	</g>
	<g>
		<g>
			<path fill="#FFFFFF" d="M152.168,241.576c9.127,2.446,18.254,4.892,27.38,7.337c4.366,1.17,6.217-5.583,1.861-6.75
				c-9.127-2.446-18.254-4.892-27.38-7.337C149.663,233.656,147.812,240.409,152.168,241.576L152.168,241.576z"/>
		</g>
		<g>
			<path fill="#FFFFFF" d="M156.195,249.382c2.249-2.25,4.498-4.499,6.748-6.748c3.194-3.195-1.755-8.145-4.95-4.95
				c-2.249,2.25-4.498,4.499-6.748,6.748C148.051,247.627,153,252.577,156.195,249.382L156.195,249.382z"/>
		</g>
		<g>
			<path fill="#FFFFFF" d="M154.59,231.994c0.823,3.072,1.647,6.145,2.47,9.217c1.167,4.355,7.92,2.505,6.75-1.861
				c-0.823-3.072-1.647-6.145-2.47-9.217C160.172,225.777,153.419,227.628,154.59,231.994L154.59,231.994z"/>
		</g>
	</g>
	<g>
		<g>
			<path fill="#FFFFFF" d="M162.841,268.133c6.681-6.682,13.362-13.363,20.043-20.044c3.194-3.195-1.755-8.145-4.95-4.95
				c-6.681,6.682-13.362,13.363-20.043,20.044C154.697,266.377,159.646,271.327,162.841,268.133L162.841,268.133z"/>
		</g>
		<g>
			<path fill="#FFFFFF" d="M171.591,268.542c-0.823-3.072-1.646-6.145-2.47-9.217c-1.167-4.356-7.92-2.505-6.75,1.861
				c0.823,3.072,1.646,6.145,2.47,9.217C166.008,274.759,172.761,272.908,171.591,268.542L171.591,268.542z"/>
		</g>
		<g>
			<path fill="#FFFFFF" d="M155.687,261.249c3.072,0.823,6.145,1.646,9.217,2.47c4.367,1.17,6.217-5.583,1.861-6.75
				c-3.072-0.823-6.145-1.646-9.217-2.47C153.182,253.329,151.331,260.082,155.687,261.249L155.687,261.249z"/>
		</g>
	</g>
	<g>
		<g>
			<path fill="#FFFFFF" d="M191.113,272.211c-2.446-9.127-4.892-18.254-7.337-27.381c-1.167-4.356-7.92-2.505-6.75,1.861
				c2.446,9.127,4.892,18.254,7.337,27.381C185.531,278.429,192.283,276.578,191.113,272.211L191.113,272.211z"/>
		</g>
		<g>
			<path fill="#FFFFFF" d="M195.897,264.876c-3.073-0.823-6.145-1.647-9.217-2.47c-4.366-1.17-6.217,5.583-1.861,6.75
				c3.073,0.823,6.145,1.647,9.217,2.47C198.402,272.796,200.253,266.043,195.897,264.876L195.897,264.876z"/>
		</g>
		<g>
			<path fill="#FFFFFF" d="M181.598,274.971c2.249-2.25,4.498-4.499,6.747-6.748c3.194-3.195-1.755-8.145-4.95-4.95
				c-2.249,2.25-4.498,4.499-6.747,6.748C173.453,273.216,178.403,278.166,181.598,274.971L181.598,274.971z"/>
		</g>
	</g>
	<g>
		<g>
			<path fill="#FFFFFF" d="M208.654,249.692c-9.127-2.445-18.254-4.891-27.381-7.336c-4.367-1.17-6.217,5.583-1.861,6.75
				c9.127,2.445,18.254,4.891,27.381,7.336C211.16,257.612,213.01,250.859,208.654,249.692L208.654,249.692z"/>
		</g>
		<g>
			<path fill="#FFFFFF" d="M204.627,241.886c-2.249,2.25-4.498,4.499-6.748,6.748c-3.194,3.195,1.755,8.145,4.95,4.95
				c2.249-2.25,4.498-4.499,6.748-6.748C212.772,243.642,207.822,238.692,204.627,241.886L204.627,241.886z"/>
		</g>
		<g>
			<path fill="#FFFFFF" d="M206.232,259.275c-0.823-3.072-1.646-6.145-2.47-9.217c-1.167-4.356-7.92-2.505-6.75,1.861
				c0.823,3.072,1.646,6.145,2.47,9.217C200.649,265.492,207.402,263.642,206.232,259.275L206.232,259.275z"/>
		</g>
	</g>
</g>
<g>
	<g>
		<g>
			<path fill="#FFFFFF" d="M110.612,233.729c0,9.449,0,18.898,0,28.347c0,4.514,7,4.514,7,0c0-9.449,0-18.898,0-28.347
				C117.612,229.214,110.612,229.214,110.612,233.729L110.612,233.729z"/>
		</g>
		<g>
			<path fill="#FFFFFF" d="M104.097,239.604c2.755,1.59,5.51,3.181,8.264,4.771c3.917,2.261,7.44-3.789,3.533-6.044
				c-2.755-1.59-5.509-3.181-8.264-4.771C103.713,231.299,100.19,237.349,104.097,239.604L104.097,239.604z"/>
		</g>
		<g>
			<path fill="#FFFFFF" d="M120.5,233.56c-2.754,1.59-5.509,3.181-8.264,4.771c-3.907,2.255-0.383,8.305,3.533,6.044
				c2.755-1.59,5.509-3.181,8.264-4.771C127.939,237.349,124.416,231.299,120.5,233.56L120.5,233.56z"/>
		</g>
	</g>
	<g>
		<g>
			<path fill="#FFFFFF" d="M87.698,250.597c8.183,4.725,16.366,9.449,24.548,14.173c3.917,2.261,7.44-3.789,3.533-6.044
				c-8.183-4.725-16.366-9.449-24.548-14.173C87.315,242.292,83.792,248.342,87.698,250.597L87.698,250.597z"/>
		</g>
		<g>
			<path fill="#FFFFFF" d="M89.578,259.167c2.755-1.59,5.509-3.181,8.264-4.771c3.907-2.255,0.383-8.305-3.533-6.044
				c-2.754,1.59-5.509,3.181-8.264,4.771C82.138,255.379,85.662,261.429,89.578,259.167L89.578,259.167z"/>
		</g>
		<g>
			<path fill="#FFFFFF" d="M92.514,241.94c0,3.181,0,6.362,0,9.542c0,4.514,7,4.514,7,0c0-3.181,0-6.362,0-9.542
				C99.514,237.426,92.514,237.426,92.514,241.94L92.514,241.94z"/>
		</g>
	</g>
	<g>
		<g>
			<path fill="#FFFFFF" d="M91.293,278.924c8.183-4.724,16.366-9.448,24.549-14.173c3.907-2.255,0.383-8.305-3.533-6.044
				c-8.183,4.724-16.366,9.448-24.549,14.173C83.854,275.135,87.377,281.185,91.293,278.924L91.293,278.924z"/>
		</g>
		<g>
			<path fill="#FFFFFF" d="M99.623,281.619c0-3.181,0-6.362,0-9.542c0-4.514-7-4.514-7,0c0,3.181,0,6.362,0,9.542
				C92.623,286.133,99.623,286.133,99.623,281.619L99.623,281.619z"/>
		</g>
		<g>
			<path fill="#FFFFFF" d="M86.154,270.436c2.755,1.59,5.509,3.181,8.264,4.771c3.917,2.261,7.44-3.789,3.533-6.044
				c-2.755-1.59-5.509-3.181-8.264-4.771C85.771,262.13,82.248,268.18,86.154,270.436L86.154,270.436z"/>
		</g>
	</g>
	<g>
		<g>
			<path fill="#FFFFFF" d="M117.581,290.178c0-9.449,0-18.897,0-28.346c0-4.514-7-4.514-7,0c0,9.449,0,18.897,0,28.346
				C110.581,294.692,117.581,294.692,117.581,290.178L117.581,290.178z"/>
		</g>
		<g>
			<path fill="#FFFFFF" d="M124.095,284.302c-2.755-1.59-5.509-3.181-8.264-4.771c-3.917-2.261-7.44,3.789-3.533,6.044
				c2.755,1.59,5.51,3.181,8.264,4.771C124.479,292.607,128.002,286.558,124.095,284.302L124.095,284.302z"/>
		</g>
		<g>
			<path fill="#FFFFFF" d="M107.692,290.346c2.754-1.59,5.509-3.181,8.264-4.771c3.907-2.255,0.383-8.305-3.533-6.044
				c-2.754,1.59-5.509,3.181-8.264,4.771C100.252,286.558,103.776,292.607,107.692,290.346L107.692,290.346z"/>
		</g>
	</g>
	<g>
		<g>
			<path fill="#FFFFFF" d="M140.494,273.093c-8.183-4.725-16.366-9.449-24.549-14.173c-3.917-2.261-7.44,3.789-3.533,6.044
				c8.183,4.725,16.366,9.449,24.549,14.173C140.877,281.398,144.401,275.348,140.494,273.093L140.494,273.093z"/>
		</g>
		<g>
			<path fill="#FFFFFF" d="M138.614,264.523c-2.754,1.59-5.509,3.181-8.264,4.771c-3.907,2.255-0.383,8.305,3.533,6.044
				c2.755-1.59,5.509-3.181,8.264-4.771C146.054,268.312,142.53,262.262,138.614,264.523L138.614,264.523z"/>
		</g>
		<g>
			<path fill="#FFFFFF" d="M135.679,281.75c0-3.181,0-6.362,0-9.542c0-4.514-7-4.514-7,0c0,3.181,0,6.362,0,9.542
				C128.679,286.265,135.679,286.265,135.679,281.75L135.679,281.75z"/>
		</g>
	</g>
	<g>
		<g>
			<path fill="#FFFFFF" d="M136.898,244.766c-8.183,4.724-16.366,9.449-24.549,14.173c-3.907,2.255-0.383,8.305,3.533,6.044
				c8.183-4.724,16.366-9.449,24.549-14.173C144.338,248.555,140.814,242.505,136.898,244.766L136.898,244.766z"/>
		</g>
		<g>
			<path fill="#FFFFFF" d="M128.569,242.071c0,3.181,0,6.362,0,9.542c0,4.514,7,4.514,7,0c0-3.181,0-6.362,0-9.542
				C135.569,237.557,128.569,237.557,128.569,242.071L128.569,242.071z"/>
		</g>
		<g>
			<path fill="#FFFFFF" d="M142.038,253.255c-2.755-1.591-5.509-3.181-8.264-4.771c-3.917-2.261-7.44,3.789-3.533,6.044
				c2.755,1.591,5.51,3.181,8.264,4.771C142.421,261.56,145.944,255.51,142.038,253.255L142.038,253.255z"/>
		</g>
	</g>
</g>
</svg>
