<?xml version="1.0" encoding="iso-8859-1"?>
<!-- Generator: Adobe Illustrator 16.0.0, SVG Export Plug-In . SVG Version: 6.00 Build 0)  -->
<!DOCTYPE svg PUBLIC "-//W3C//DTD SVG 1.1//EN" "http://www.w3.org/Graphics/SVG/1.1/DTD/svg11.dtd">
<svg version="1.1" xmlns="http://www.w3.org/2000/svg" xmlns:xlink="http://www.w3.org/1999/xlink" x="0px" y="0px" width="361px"
	 height="361px" viewBox="0 0 361 361" style="enable-background:new 0 0 361 361;" xml:space="preserve">
<g id="weather_x5F_humidity_x5F_rel">
	<path style="fill:none;stroke:#FFFFFF;stroke-width:10;stroke-miterlimit:10;" d="M196.834,127.992
		c0,9.084-7.363,16.449-16.449,16.449c-9.084,0-16.449-7.364-16.449-16.449c0-3.474,1.22-6.311,2.303-9.353
		c1.93-5.413,8.535-24.488,14.146-24.488c5.624,0,12.522,19.84,14.167,24.52C195.619,121.706,196.834,124.531,196.834,127.992z"/>
	<path style="fill:none;stroke:#FFFFFF;stroke-width:10;stroke-miterlimit:10;" d="M174.78,201.508
		c0,9.085-7.365,16.449-16.45,16.449c-9.084,0-16.449-7.364-16.449-16.449c0-3.475,1.219-6.312,2.304-9.353
		c1.93-5.413,8.535-24.489,14.145-24.489c5.624,0,12.522,19.84,14.167,24.519C173.564,195.221,174.78,198.046,174.78,201.508z"/>
	<path style="fill:none;stroke:#FFFFFF;stroke-width:10;stroke-miterlimit:10;" d="M125.892,225.797c0,2.369-2.291,4.29-5.115,4.29
		H80.282c-2.825,0-5.115-1.921-5.115-4.29V78.891c0-2.369,2.291-4.29,5.115-4.29h40.495c2.825,0,5.115,1.921,5.115,4.29V225.797z"/>
	<path style="fill:#FFFFFF;" d="M116.702,152.251c0,9.085-7.364,16.45-16.449,16.45c-9.084,0-16.449-7.364-16.449-16.45
		c0-3.474,1.22-6.31,2.304-9.352c1.93-5.413,8.536-24.488,14.146-24.488c5.624,0,12.522,19.84,14.167,24.519
		C115.486,145.965,116.702,148.791,116.702,152.251z"/>
	<g>
		<path style="fill:#FFFFFF;" d="M171.076,249.254c6.24,0,11.02,1.11,14.34,3.33c3.319,2.221,4.979,5.67,4.979,10.351
			c0,2.921-0.67,5.29-2.01,7.11c-1.341,1.82-3.271,3.25-5.79,4.289c0.84,1.041,1.719,2.23,2.641,3.57
			c0.919,1.341,1.83,2.74,2.729,4.2s1.771,2.98,2.61,4.56c0.84,1.581,1.619,3.131,2.34,4.65h-10.464
			c-0.763-1.359-1.537-2.739-2.319-4.141c-0.783-1.398-1.585-2.76-2.408-4.08c-0.823-1.319-1.637-2.568-2.439-3.75
			c-0.804-1.179-1.607-2.25-2.41-3.209h-4.62v15.18h-9.36v-40.98c2.04-0.398,4.149-0.68,6.33-0.84
			C167.405,249.335,169.355,249.254,171.076,249.254z M171.616,257.234c-0.681,0-1.29,0.021-1.83,0.061s-1.05,0.08-1.53,0.119v11.28
			h2.64c3.52,0,6.04-0.439,7.56-1.319c1.52-0.88,2.28-2.38,2.28-4.5c0-2.041-0.771-3.49-2.31-4.351
			C176.885,257.664,174.616,257.234,171.616,257.234z"/>
		<path style="fill:#FFFFFF;" d="M223.995,249.734h9.36v41.58h-9.36v-17.641h-15.72v17.641h-9.36v-41.58h9.36v15.9h15.72V249.734z"
			/>
		<path style="fill:#FFFFFF;" d="M261.494,260.414c0,3.761-0.959,6.641-2.879,8.641s-4.5,3-7.74,3s-5.82-1-7.74-3
			s-2.88-4.88-2.88-8.641c0-3.759,0.96-6.639,2.88-8.64c1.92-1.999,4.5-3,7.74-3s5.82,1.001,7.74,3
			C260.535,253.775,261.494,256.655,261.494,260.414z M254.715,260.414c0-2.039-0.359-3.52-1.08-4.439s-1.641-1.381-2.76-1.381
			c-1.16,0-2.091,0.461-2.79,1.381c-0.7,0.92-1.05,2.4-1.05,4.439c0,2.041,0.35,3.531,1.05,4.471c0.699,0.939,1.63,1.41,2.79,1.41
			c1.119,0,2.039-0.471,2.76-1.41S254.715,262.455,254.715,260.414z M273.195,249.734h8.34l-23.461,41.58h-8.34L273.195,249.734z
			 M291.135,280.635c0,3.76-0.96,6.641-2.88,8.64c-1.92,2.001-4.5,3-7.74,3c-3.239,0-5.819-0.999-7.739-3
			c-1.92-1.999-2.881-4.88-2.881-8.64s0.961-6.64,2.881-8.641c1.92-2,4.5-3,7.739-3c3.24,0,5.82,1,7.74,3
			C290.175,273.995,291.135,276.875,291.135,280.635z M284.355,280.635c0-2.041-0.361-3.52-1.08-4.44
			c-0.721-0.919-1.641-1.38-2.761-1.38c-1.161,0-2.091,0.461-2.79,1.38c-0.7,0.921-1.05,2.399-1.05,4.44
			c0,2.039,0.35,3.53,1.05,4.47c0.699,0.94,1.629,1.41,2.79,1.41c1.12,0,2.04-0.47,2.761-1.41
			C283.994,284.165,284.355,282.674,284.355,280.635z"/>
	</g>
</g>
<g id="Ebene_1">
</g>
</svg>
