<?xml version="1.0" encoding="iso-8859-1"?>
<!-- Generator: Adobe Illustrator 16.0.0, SVG Export Plug-In . SVG Version: 6.00 Build 0)  -->
<!DOCTYPE svg PUBLIC "-//W3C//DTD SVG 1.1//EN" "http://www.w3.org/Graphics/SVG/1.1/DTD/svg11.dtd">
<svg version="1.1" xmlns="http://www.w3.org/2000/svg" xmlns:xlink="http://www.w3.org/1999/xlink" x="0px" y="0px" width="361px"
	 height="361px" viewBox="0 0 361 361" style="enable-background:new 0 0 361 361;" xml:space="preserve">
<g id="weather_x5F_sleet">
	<path style="fill:#FFFFFF;stroke:#FFFFFF;stroke-width:13.0628;stroke-miterlimit:10;" d="M196.204,141.073
		c0,4.329-3.148,7.838-7.032,7.838H134.66c-3.885,0-7.035-3.51-7.035-7.838V84.25c0-4.329,3.15-7.838,7.035-7.838h54.512
		c3.884,0,7.032,3.509,7.032,7.838V141.073z"/>
	<path style="fill:#FFFFFF;stroke:#FFFFFF;stroke-width:13.0628;stroke-miterlimit:10;" d="M93.008,121.479
		c0,4.329,3.509,7.838,7.838,7.838h36.576c4.328,0,7.837-3.509,7.837-7.838V99.272c0-4.329-3.51-7.838-7.837-7.838h-36.576
		c-4.329,0-7.838,3.509-7.838,7.838V121.479z"/>
	<path style="fill:#FFFFFF;stroke:#FFFFFF;stroke-width:13.0628;stroke-miterlimit:10;" d="M77.333,121.479
		c0-4.328,3.509-7.837,7.838-7.837h45.067c4.328,0,7.837,3.509,7.837,7.837v12.41c0,4.329-3.51,7.838-7.837,7.838H85.171
		c-4.329,0-7.838-3.509-7.838-7.838V121.479z"/>
	<g>
		<g>
			<path style="fill:#FFFFFF;" d="M173.792,170.955c-5.5,9.526-11,19.052-16.5,28.579c-3.23,5.595,5.412,10.628,8.635,5.047
				c5.5-9.526,11-19.053,16.5-28.579C185.657,170.407,177.015,165.373,173.792,170.955L173.792,170.955z"/>
		</g>
	</g>
	<g>
		<g>
			<path style="fill:#FFFFFF;" d="M170.302,147c-5.5,9.526-11,19.052-16.5,28.579c-3.23,5.595,5.412,10.628,8.635,5.047
				c5.5-9.526,11-19.052,16.5-28.579C182.167,146.452,173.524,141.418,170.302,147L170.302,147z"/>
		</g>
	</g>
	<g>
		<g>
			<path style="fill:#FFFFFF;" d="M144.302,192.033c-5.5,9.526-11,19.053-16.5,28.579c-3.23,5.595,5.412,10.628,8.635,5.047
				c5.5-9.526,11-19.053,16.5-28.579C156.167,191.485,147.524,186.452,144.302,192.033L144.302,192.033z"/>
		</g>
	</g>
	<g>
		<g>
			<path style="fill:#FFFFFF;" d="M147.811,155.955c-5.5,9.526-11,19.052-16.5,28.579c-3.23,5.595,5.413,10.628,8.635,5.047
				c5.5-9.526,11-19.052,16.5-28.579C159.676,155.407,151.033,150.373,147.811,155.955L147.811,155.955z"/>
		</g>
	</g>
	<g>
		<g>
			<path style="fill:#FFFFFF;" d="M144.321,132c-5.5,9.526-11,19.053-16.5,28.579c-3.23,5.595,5.412,10.628,8.635,5.047
				c5.5-9.526,11-19.053,16.5-28.579C156.186,131.452,147.543,126.418,144.321,132L144.321,132z"/>
		</g>
	</g>
	<g>
		<g>
			<path style="fill:#FFFFFF;" d="M111.948,218.073c-2.045,3.542-4.091,7.085-6.137,10.628c-3.23,5.595,5.412,10.628,8.635,5.047
				c2.045-3.543,4.091-7.085,6.137-10.628C123.813,217.525,115.17,212.492,111.948,218.073L111.948,218.073z"/>
		</g>
	</g>
	<g>
		<g>
			<path style="fill:#FFFFFF;" d="M149.312,214.122c-5.5,9.526-11,19.053-16.5,28.579c-3.23,5.595,5.412,10.628,8.635,5.047
				c5.5-9.526,11-19.053,16.5-28.579C161.177,213.574,152.534,208.541,149.312,214.122L149.312,214.122z"/>
		</g>
	</g>
	<g>
		<g>
			<path style="fill:#FFFFFF;" d="M229.792,171.955c-5.5,9.526-11,19.052-16.5,28.579c-3.23,5.595,5.412,10.628,8.635,5.047
				c5.5-9.526,11-19.053,16.5-28.579C241.657,171.407,233.015,166.373,229.792,171.955L229.792,171.955z"/>
		</g>
	</g>
	<g>
		<g>
			<path style="fill:#FFFFFF;" d="M226.302,148c-5.5,9.526-11,19.052-16.5,28.579c-3.23,5.595,5.412,10.628,8.635,5.047
				c5.5-9.526,11-19.053,16.5-28.579C238.167,147.452,229.524,142.418,226.302,148L226.302,148z"/>
		</g>
	</g>
	<g>
		<g>
			<path style="fill:#FFFFFF;" d="M202.335,190.243c-1.688,2.925-3.377,5.849-5.065,8.773c-3.23,5.595,5.412,10.628,8.635,5.047
				c1.688-2.925,3.377-5.849,5.065-8.773C214.2,189.695,205.558,184.662,202.335,190.243L202.335,190.243z"/>
		</g>
	</g>
	<g>
		<g>
			<path style="fill:#FFFFFF;" d="M203.812,156.955c-5.5,9.526-11,19.052-16.5,28.579c-3.23,5.595,5.412,10.628,8.635,5.047
				c5.5-9.526,11-19.052,16.5-28.579C215.677,156.407,207.034,151.373,203.812,156.955L203.812,156.955z"/>
		</g>
	</g>
	<g>
		<g>
			<path style="fill:#FFFFFF;" d="M150.199,252.602c-1.491,2.582-2.983,5.165-4.474,7.748c-1.363,2.361-0.565,5.459,1.794,6.841
				c2.341,1.372,5.48,0.563,6.841-1.794c1.491-2.582,2.983-5.165,4.474-7.748c1.363-2.361,0.565-5.459-1.794-6.841
				C154.699,249.436,151.56,250.245,150.199,252.602L150.199,252.602z"/>
		</g>
	</g>
	<path style="fill:#FFFFFF;stroke:#FFFFFF;stroke-width:13.0628;stroke-miterlimit:10;" d="M248.674,148.912
		c0,4.328-3.148,7.837-7.033,7.837h-54.512c-3.885,0-7.035-3.509-7.035-7.837V92.088c0-4.329,3.15-7.838,7.035-7.838h54.512
		c3.885,0,7.033,3.509,7.033,7.838V148.912z"/>
	<path style="fill:#FFFFFF;stroke:#FFFFFF;stroke-width:13.0628;stroke-miterlimit:10;" d="M232.781,142.379
		c0,4.329,3.51,7.838,7.837,7.838h36.576c4.329,0,7.838-3.509,7.838-7.838v-22.207c0-4.328-3.509-7.837-7.838-7.837h-36.576
		c-4.327,0-7.837,3.51-7.837,7.837V142.379z"/>
	<path style="fill:#FFFFFF;stroke:#FFFFFF;stroke-width:13.0628;stroke-miterlimit:10;" d="M201.648,158.056
		c0,4.328-3.149,7.837-7.033,7.837h-54.513c-3.884,0-7.034-3.509-7.034-7.837v-56.824c0-4.329,3.149-7.838,7.034-7.838h54.513
		c3.884,0,7.033,3.509,7.033,7.838V158.056z"/>
	<g>
		<g>
			<g>
				<g>
					<path style="fill:#FFFFFF;" d="M193.349,210.342c-2.649,9.07-5.299,18.141-7.948,27.21c-1.269,4.344,5.487,6.185,6.75,1.861
						c2.649-9.07,5.299-18.141,7.948-27.21C201.367,207.859,194.611,206.019,193.349,210.342L193.349,210.342z"/>
				</g>
			</g>
			<g>
				<g>
					<path style="fill:#FFFFFF;" d="M185.531,214.174c2.198,2.299,4.396,4.598,6.595,6.896c3.125,3.269,8.067-1.688,4.949-4.949
						c-2.198-2.299-4.396-4.598-6.595-6.896C187.355,205.956,182.413,210.913,185.531,214.174L185.531,214.174z"/>
				</g>
			</g>
			<g>
				<g>
					<path style="fill:#FFFFFF;" d="M202.819,212.923c-3.09,0.754-6.18,1.509-9.27,2.263c-4.384,1.07-2.523,7.82,1.861,6.75
						c3.09-0.754,6.18-1.509,9.27-2.263C209.064,218.603,207.204,211.853,202.819,212.923L202.819,212.923z"/>
				</g>
			</g>
		</g>
		<g>
			<g>
				<g>
					<path style="fill:#FFFFFF;" d="M166.708,220.127c6.53,6.83,13.06,13.659,19.59,20.488c3.124,3.269,8.067-1.688,4.949-4.949
						c-6.529-6.83-13.059-13.659-19.589-20.488C168.533,211.909,163.59,216.866,166.708,220.127L166.708,220.127z"/>
				</g>
			</g>
			<g>
				<g>
					<path style="fill:#FFFFFF;" d="M166.124,228.791c3.09-0.755,6.18-1.509,9.271-2.264c4.384-1.07,2.523-7.82-1.861-6.75
						c-3.09,0.755-6.18,1.509-9.271,2.264C159.878,223.111,161.739,229.861,166.124,228.791L166.124,228.791z"/>
				</g>
			</g>
			<g>
				<g>
					<path style="fill:#FFFFFF;" d="M173.674,213.149c-0.892,3.054-1.784,6.106-2.676,9.159c-1.269,4.344,5.487,6.185,6.75,1.861
						c0.892-3.054,1.784-6.106,2.676-9.159C181.693,210.667,174.938,208.826,173.674,213.149L173.674,213.149z"/>
				</g>
			</g>
		</g>
		<g>
			<g>
				<g>
					<path style="fill:#FFFFFF;" d="M162.23,248.234c9.179-2.24,18.358-4.479,27.538-6.72c4.384-1.069,2.523-7.82-1.861-6.75
						c-9.179,2.24-18.358,4.479-27.538,6.72C155.985,242.554,157.845,249.305,162.23,248.234L162.23,248.234z"/>
				</g>
			</g>
			<g>
				<g>
					<path style="fill:#FFFFFF;" d="M169.403,253.128c0.892-3.054,1.784-6.107,2.676-9.16c1.269-4.344-5.487-6.185-6.75-1.861
						c-0.892,3.054-1.784,6.107-2.676,9.16C161.384,255.61,168.14,257.451,169.403,253.128L169.403,253.128z"/>
				</g>
			</g>
			<g>
				<g>
					<path style="fill:#FFFFFF;" d="M159.663,238.736c2.198,2.299,4.396,4.598,6.595,6.896c3.125,3.269,8.068-1.688,4.95-4.949
						c-2.198-2.299-4.396-4.598-6.595-6.896C161.488,230.519,156.545,235.476,159.663,238.736L159.663,238.736z"/>
				</g>
			</g>
		</g>
		<g>
			<g>
				<g>
					<path style="fill:#FFFFFF;" d="M184.24,266.379c2.649-9.07,5.299-18.14,7.948-27.209c1.269-4.344-5.487-6.185-6.75-1.861
						c-2.649,9.07-5.299,18.14-7.948,27.209C176.222,268.861,182.978,270.702,184.24,266.379L184.24,266.379z"/>
				</g>
			</g>
			<g>
				<g>
					<path style="fill:#FFFFFF;" d="M192.057,262.547c-2.197-2.299-4.396-4.598-6.594-6.896c-3.124-3.269-8.067,1.688-4.95,4.949
						c2.198,2.299,4.396,4.598,6.594,6.896C190.231,270.765,195.175,265.808,192.057,262.547L192.057,262.547z"/>
				</g>
			</g>
			<g>
				<g>
					<path style="fill:#FFFFFF;" d="M174.769,263.798c3.09-0.754,6.18-1.509,9.27-2.263c4.384-1.07,2.523-7.82-1.861-6.75
						c-3.09,0.754-6.18,1.509-9.27,2.263C168.523,258.118,170.383,264.868,174.769,263.798L174.769,263.798z"/>
				</g>
			</g>
		</g>
		<g>
			<g>
				<g>
					<path style="fill:#FFFFFF;" d="M210.941,256.387c-6.529-6.83-13.06-13.659-19.59-20.488c-3.124-3.269-8.067,1.688-4.949,4.949
						c6.529,6.83,13.06,13.659,19.59,20.488C209.116,264.604,214.06,259.647,210.941,256.387L210.941,256.387z"/>
				</g>
			</g>
			<g>
				<g>
					<path style="fill:#FFFFFF;" d="M211.526,247.723c-3.09,0.754-6.181,1.509-9.271,2.263c-4.384,1.07-2.523,7.82,1.861,6.75
						c3.09-0.754,6.181-1.509,9.271-2.263C217.771,253.402,215.911,246.652,211.526,247.723L211.526,247.723z"/>
				</g>
			</g>
			<g>
				<g>
					<path style="fill:#FFFFFF;" d="M203.976,263.364c0.892-3.054,1.783-6.106,2.675-9.159c1.269-4.344-5.487-6.185-6.75-1.861
						c-0.892,3.054-1.783,6.106-2.675,9.159C195.957,265.847,202.713,267.688,203.976,263.364L203.976,263.364z"/>
				</g>
			</g>
		</g>
		<g>
			<g>
				<g>
					<path style="fill:#FFFFFF;" d="M215.419,228.277c-9.18,2.24-18.359,4.481-27.539,6.722c-4.384,1.07-2.523,7.82,1.861,6.75
						c9.18-2.24,18.359-4.481,27.539-6.722C221.664,233.957,219.804,227.207,215.419,228.277L215.419,228.277z"/>
				</g>
			</g>
			<g>
				<g>
					<path style="fill:#FFFFFF;" d="M208.246,223.386c-0.892,3.054-1.784,6.106-2.676,9.159c-1.269,4.344,5.487,6.185,6.75,1.861
						c0.892-3.054,1.784-6.106,2.676-9.159C216.265,220.903,209.509,219.063,208.246,223.386L208.246,223.386z"/>
				</g>
			</g>
			<g>
				<g>
					<path style="fill:#FFFFFF;" d="M217.985,237.777c-2.198-2.3-4.396-4.6-6.595-6.898c-3.124-3.269-8.067,1.688-4.949,4.949
						c2.198,2.3,4.396,4.6,6.595,6.898C216.16,245.995,221.104,241.038,217.985,237.777L217.985,237.777z"/>
				</g>
			</g>
		</g>
	</g>
	<g>
		<g>
			<g>
				<g>
					<path style="fill:#FFFFFF;" d="M96.708,173.735c0,9.449,0,18.898,0,28.347c0,4.514,7,4.514,7,0c0-9.449,0-18.898,0-28.347
						C103.708,169.221,96.708,169.221,96.708,173.735L96.708,173.735z"/>
				</g>
			</g>
			<g>
				<g>
					<path style="fill:#FFFFFF;" d="M90.193,179.61c2.755,1.591,5.509,3.181,8.264,4.771c3.917,2.261,7.44-3.789,3.533-6.044
						c-2.755-1.59-5.51-3.181-8.264-4.771C89.81,171.305,86.286,177.355,90.193,179.61L90.193,179.61z"/>
				</g>
			</g>
			<g>
				<g>
					<path style="fill:#FFFFFF;" d="M106.596,173.566c-2.755,1.59-5.509,3.181-8.264,4.771c-3.907,2.255-0.383,8.305,3.533,6.044
						c2.754-1.591,5.509-3.181,8.264-4.771C114.036,177.355,110.512,171.305,106.596,173.566L106.596,173.566z"/>
				</g>
			</g>
		</g>
		<g>
			<g>
				<g>
					<path style="fill:#FFFFFF;" d="M73.794,190.604c8.183,4.724,16.366,9.448,24.548,14.173c3.917,2.261,7.44-3.789,3.533-6.045
						c-8.183-4.724-16.366-9.448-24.548-14.173C73.411,182.299,69.888,188.349,73.794,190.604L73.794,190.604z"/>
				</g>
			</g>
			<g>
				<g>
					<path style="fill:#FFFFFF;" d="M75.674,199.175c2.754-1.591,5.509-3.182,8.264-4.771c3.907-2.256,0.383-8.306-3.533-6.045
						c-2.755,1.591-5.509,3.182-8.264,4.771C68.234,195.386,71.758,201.436,75.674,199.175L75.674,199.175z"/>
				</g>
			</g>
			<g>
				<g>
					<path style="fill:#FFFFFF;" d="M78.61,181.946c0,3.181,0,6.361,0,9.542c0,4.514,7,4.514,7,0c0-3.181,0-6.361,0-9.542
						C85.61,177.432,78.61,177.432,78.61,181.946L78.61,181.946z"/>
				</g>
			</g>
		</g>
		<g>
			<g>
				<g>
					<path style="fill:#FFFFFF;" d="M77.39,218.931c8.183-4.725,16.366-9.449,24.549-14.173c3.907-2.256,0.383-8.306-3.533-6.045
						c-8.183,4.725-16.366,9.449-24.549,14.173C69.95,215.142,73.473,221.191,77.39,218.931L77.39,218.931z"/>
				</g>
			</g>
			<g>
				<g>
					<path style="fill:#FFFFFF;" d="M85.719,221.625c0-3.181,0-6.362,0-9.543c0-4.514-7-4.514-7,0c0,3.181,0,6.362,0,9.543
						C78.719,226.139,85.719,226.139,85.719,221.625L85.719,221.625z"/>
				</g>
			</g>
			<g>
				<g>
					<path style="fill:#FFFFFF;" d="M72.25,210.442c2.754,1.59,5.509,3.18,8.264,4.771c3.917,2.261,7.44-3.789,3.533-6.045
						c-2.754-1.59-5.509-3.18-8.264-4.771C71.867,202.137,68.344,208.187,72.25,210.442L72.25,210.442z"/>
				</g>
			</g>
		</g>
		<g>
			<g>
				<g>
					<path style="fill:#FFFFFF;" d="M103.677,230.184c0-9.448,0-18.897,0-28.346c0-4.514-7-4.514-7,0c0,9.448,0,18.897,0,28.346
						C96.677,234.697,103.677,234.697,103.677,230.184L103.677,230.184z"/>
				</g>
			</g>
			<g>
				<g>
					<path style="fill:#FFFFFF;" d="M110.191,224.308c-2.755-1.59-5.51-3.18-8.264-4.771c-3.917-2.261-7.44,3.789-3.533,6.045
						c2.755,1.59,5.509,3.18,8.264,4.771C110.575,232.613,114.099,226.563,110.191,224.308L110.191,224.308z"/>
				</g>
			</g>
			<g>
				<g>
					<path style="fill:#FFFFFF;" d="M93.789,230.353c2.754-1.591,5.509-3.181,8.264-4.771c3.907-2.256,0.383-8.306-3.533-6.045
						c-2.754,1.591-5.509,3.181-8.264,4.771C86.349,226.563,89.872,232.613,93.789,230.353L93.789,230.353z"/>
				</g>
			</g>
		</g>
		<g>
			<g>
				<g>
					<path style="fill:#FFFFFF;" d="M126.59,213.099c-8.183-4.724-16.366-9.448-24.549-14.173c-3.917-2.261-7.44,3.789-3.533,6.045
						c8.183,4.724,16.366,9.448,24.549,14.173C126.974,221.404,130.497,215.354,126.59,213.099L126.59,213.099z"/>
				</g>
			</g>
			<g>
				<g>
					<path style="fill:#FFFFFF;" d="M124.71,204.528c-2.755,1.591-5.509,3.182-8.264,4.771c-3.907,2.256-0.383,8.306,3.533,6.045
						c2.754-1.591,5.509-3.182,8.264-4.771C132.15,208.317,128.626,202.268,124.71,204.528L124.71,204.528z"/>
				</g>
			</g>
			<g>
				<g>
					<path style="fill:#FFFFFF;" d="M121.775,221.757c0-3.181,0-6.361,0-9.542c0-4.514-7-4.514-7,0c0,3.181,0,6.361,0,9.542
						C114.775,226.271,121.775,226.271,121.775,221.757L121.775,221.757z"/>
				</g>
			</g>
		</g>
		<g>
			<g>
				<g>
					<path style="fill:#FFFFFF;" d="M122.994,184.772c-8.183,4.725-16.366,9.449-24.549,14.173
						c-3.907,2.256-0.383,8.306,3.533,6.045c8.183-4.725,16.366-9.449,24.549-14.173
						C130.434,188.562,126.911,182.512,122.994,184.772L122.994,184.772z"/>
				</g>
			</g>
			<g>
				<g>
					<path style="fill:#FFFFFF;" d="M114.666,182.078c0,3.181,0,6.361,0,9.542c0,4.514,7,4.514,7,0c0-3.181,0-6.361,0-9.542
						C121.666,177.564,114.666,177.564,114.666,182.078L114.666,182.078z"/>
				</g>
			</g>
			<g>
				<g>
					<path style="fill:#FFFFFF;" d="M128.134,193.261c-2.755-1.59-5.51-3.181-8.264-4.771c-3.917-2.261-7.44,3.789-3.533,6.045
						c2.755,1.59,5.509,3.181,8.264,4.771C128.517,201.566,132.041,195.517,128.134,193.261L128.134,193.261z"/>
				</g>
			</g>
		</g>
	</g>
	<g>
		<g>
			<path style="fill:#FFFFFF;" d="M117.129,236.547c-4.581,7.934-9.162,15.868-13.743,23.803c-3.23,5.595,5.412,10.628,8.635,5.047
				c4.581-7.934,9.162-15.868,13.743-23.803C128.995,235.999,120.352,230.966,117.129,236.547L117.129,236.547z"/>
		</g>
	</g>
	<g>
		<g>
			<path style="fill:#FFFFFF;" d="M134.528,136.687c-5.5,9.526-11,19.053-16.5,28.579c-3.23,5.595,5.412,10.628,8.635,5.047
				c5.5-9.526,11-19.053,16.5-28.579C146.393,136.139,137.75,131.105,134.528,136.687L134.528,136.687z"/>
		</g>
	</g>
	<g>
		<g>
			<path style="fill:#FFFFFF;" d="M80.029,232.674c-0.869,1.504-1.738,3.009-2.606,4.514c-1.363,2.361-0.565,5.459,1.794,6.841
				c2.341,1.372,5.48,0.563,6.841-1.794c0.869-1.504,1.738-3.009,2.606-4.514c1.363-2.361,0.565-5.459-1.794-6.841
				C84.528,229.508,81.39,230.317,80.029,232.674L80.029,232.674z"/>
		</g>
	</g>
</g>
<g id="Ebene_1">
</g>
</svg>
