<?xml version="1.0" encoding="iso-8859-1"?>
<!-- Generator: Adobe Illustrator 16.0.0, SVG Export Plug-In . SVG Version: 6.00 Build 0)  -->
<!DOCTYPE svg PUBLIC "-//W3C//DTD SVG 1.1//EN" "http://www.w3.org/Graphics/SVG/1.1/DTD/svg11.dtd">
<svg version="1.1" xmlns="http://www.w3.org/2000/svg" xmlns:xlink="http://www.w3.org/1999/xlink" x="0px" y="0px" width="361px"
	 height="361px" viewBox="0 0 361 361" style="enable-background:new 0 0 361 361;" xml:space="preserve">
<g id="weather_x5F_snow_x5F_heavy">
	<g>
		<g>
			<g>
				<g>
					<path style="fill:#FFFFFF;" d="M107.279,162.323c0,9.449,0,18.898,0,28.347c0,4.514,7,4.514,7,0c0-9.449,0-18.898,0-28.347
						C114.279,157.809,107.279,157.809,107.279,162.323L107.279,162.323z"/>
				</g>
			</g>
			<g>
				<g>
					<path style="fill:#FFFFFF;" d="M100.764,168.198c2.755,1.59,5.51,3.181,8.264,4.771c3.917,2.261,7.44-3.789,3.533-6.044
						c-2.755-1.59-5.509-3.181-8.264-4.771C100.38,159.893,96.857,165.943,100.764,168.198L100.764,168.198z"/>
				</g>
			</g>
			<g>
				<g>
					<path style="fill:#FFFFFF;" d="M117.167,162.154c-2.754,1.59-5.509,3.181-8.264,4.771c-3.907,2.255-0.383,8.305,3.533,6.044
						c2.755-1.59,5.509-3.181,8.264-4.771C124.606,165.943,121.083,159.893,117.167,162.154L117.167,162.154z"/>
				</g>
			</g>
		</g>
		<g>
			<g>
				<g>
					<path style="fill:#FFFFFF;" d="M84.365,179.191c8.183,4.725,16.366,9.449,24.548,14.174c3.917,2.261,7.44-3.789,3.533-6.045
						c-8.183-4.725-16.366-9.449-24.548-14.173C83.982,170.886,80.458,176.936,84.365,179.191L84.365,179.191z"/>
				</g>
			</g>
			<g>
				<g>
					<path style="fill:#FFFFFF;" d="M86.245,187.763c2.755-1.591,5.509-3.182,8.264-4.771c3.907-2.256,0.383-8.306-3.533-6.044
						c-2.754,1.59-5.509,3.181-8.264,4.771C78.805,183.974,82.329,190.023,86.245,187.763L86.245,187.763z"/>
				</g>
			</g>
			<g>
				<g>
					<path style="fill:#FFFFFF;" d="M89.181,170.534c0,3.181,0,6.362,0,9.542c0,4.514,7,4.514,7,0c0-3.181,0-6.362,0-9.542
						C96.181,166.02,89.181,166.02,89.181,170.534L89.181,170.534z"/>
				</g>
			</g>
		</g>
		<g>
			<g>
				<g>
					<path style="fill:#FFFFFF;" d="M87.96,207.519c8.183-4.725,16.366-9.449,24.549-14.173c3.907-2.256,0.383-8.306-3.533-6.045
						c-8.183,4.725-16.366,9.449-24.549,14.173C80.521,203.729,84.044,209.779,87.96,207.519L87.96,207.519z"/>
				</g>
			</g>
			<g>
				<g>
					<path style="fill:#FFFFFF;" d="M96.29,210.213c0-3.181,0-6.362,0-9.543c0-4.514-7-4.514-7,0c0,3.181,0,6.362,0,9.543
						C89.29,214.727,96.29,214.727,96.29,210.213L96.29,210.213z"/>
				</g>
			</g>
			<g>
				<g>
					<path style="fill:#FFFFFF;" d="M82.821,199.03c2.755,1.59,5.509,3.18,8.264,4.771c3.917,2.261,7.44-3.789,3.533-6.045
						c-2.755-1.59-5.509-3.18-8.264-4.771C82.438,190.725,78.915,196.774,82.821,199.03L82.821,199.03z"/>
				</g>
			</g>
		</g>
		<g>
			<g>
				<g>
					<path style="fill:#FFFFFF;" d="M114.248,218.771c0-9.448,0-18.897,0-28.346c0-4.514-7-4.514-7,0c0,9.448,0,18.897,0,28.346
						C107.248,223.285,114.248,223.285,114.248,218.771L114.248,218.771z"/>
				</g>
			</g>
			<g>
				<g>
					<path style="fill:#FFFFFF;" d="M120.762,212.896c-2.755-1.59-5.509-3.18-8.264-4.771c-3.917-2.261-7.44,3.789-3.533,6.045
						c2.755,1.59,5.51,3.18,8.264,4.771C121.146,221.201,124.669,215.151,120.762,212.896L120.762,212.896z"/>
				</g>
			</g>
			<g>
				<g>
					<path style="fill:#FFFFFF;" d="M104.359,218.94c2.754-1.591,5.509-3.181,8.264-4.771c3.907-2.256,0.383-8.306-3.533-6.045
						c-2.754,1.591-5.509,3.181-8.264,4.771C96.919,215.151,100.443,221.201,104.359,218.94L104.359,218.94z"/>
				</g>
			</g>
		</g>
		<g>
			<g>
				<g>
					<path style="fill:#FFFFFF;" d="M137.161,201.687c-8.183-4.724-16.366-9.448-24.549-14.173c-3.917-2.261-7.44,3.789-3.533,6.045
						c8.183,4.724,16.366,9.448,24.549,14.173C137.544,209.992,141.068,203.942,137.161,201.687L137.161,201.687z"/>
				</g>
			</g>
			<g>
				<g>
					<path style="fill:#FFFFFF;" d="M135.281,193.116c-2.754,1.591-5.509,3.182-8.264,4.771c-3.907,2.256-0.383,8.306,3.533,6.045
						c2.755-1.591,5.509-3.182,8.264-4.771C142.721,196.905,139.197,190.855,135.281,193.116L135.281,193.116z"/>
				</g>
			</g>
			<g>
				<g>
					<path style="fill:#FFFFFF;" d="M132.346,210.345c0-3.181,0-6.361,0-9.542c0-4.514-7-4.514-7,0c0,3.181,0,6.361,0,9.542
						C125.346,214.858,132.346,214.858,132.346,210.345L132.346,210.345z"/>
				</g>
			</g>
		</g>
		<g>
			<g>
				<g>
					<path style="fill:#FFFFFF;" d="M133.565,173.36c-8.183,4.724-16.366,9.448-24.549,14.173c-3.907,2.256-0.383,8.306,3.533,6.045
						c8.183-4.725,16.366-9.449,24.549-14.174C141.005,177.149,137.481,171.099,133.565,173.36L133.565,173.36z"/>
				</g>
			</g>
			<g>
				<g>
					<path style="fill:#FFFFFF;" d="M125.236,170.666c0,3.181,0,6.362,0,9.542c0,4.514,7,4.514,7,0c0-3.181,0-6.362,0-9.542
						C132.236,166.151,125.236,166.151,125.236,170.666L125.236,170.666z"/>
				</g>
			</g>
			<g>
				<g>
					<path style="fill:#FFFFFF;" d="M138.705,181.849c-2.755-1.59-5.509-3.181-8.264-4.771c-3.917-2.261-7.44,3.789-3.533,6.044
						c2.755,1.59,5.51,3.181,8.264,4.771C139.088,190.154,142.611,184.104,138.705,181.849L138.705,181.849z"/>
				</g>
			</g>
		</g>
	</g>
	<path style="fill:#FFFFFF;stroke:#FFFFFF;stroke-width:13.0628;stroke-miterlimit:10;" d="M196.65,140.42
		c0,4.328-3.148,7.838-7.033,7.838h-54.511c-3.885,0-7.035-3.51-7.035-7.838V83.597c0-4.329,3.15-7.838,7.035-7.838h54.511
		c3.885,0,7.033,3.509,7.033,7.838V140.42z"/>
	<path style="fill:#FFFFFF;stroke:#FFFFFF;stroke-width:13.0628;stroke-miterlimit:10;" d="M93.455,120.825
		c0,4.329,3.509,7.838,7.838,7.838h36.576c4.328,0,7.837-3.509,7.837-7.838V98.619c0-4.329-3.51-7.838-7.837-7.838h-36.576
		c-4.329,0-7.838,3.509-7.838,7.838V120.825z"/>
	<path style="fill:#FFFFFF;stroke:#FFFFFF;stroke-width:13.0628;stroke-miterlimit:10;" d="M77.779,120.825
		c0-4.328,3.509-7.837,7.838-7.837h45.067c4.328,0,7.837,3.509,7.837,7.837v12.41c0,4.329-3.51,7.838-7.837,7.838H85.617
		c-4.329,0-7.838-3.509-7.838-7.838V120.825z"/>
	<path style="fill:#FFFFFF;stroke:#FFFFFF;stroke-width:13.0628;stroke-miterlimit:10;" d="M249.121,148.258
		c0,4.328-3.149,7.838-7.033,7.838h-54.514c-3.885,0-7.034-3.51-7.034-7.838V91.435c0-4.329,3.149-7.838,7.034-7.838h54.514
		c3.884,0,7.033,3.509,7.033,7.838V148.258z"/>
	<path style="fill:#FFFFFF;stroke:#FFFFFF;stroke-width:13.0628;stroke-miterlimit:10;" d="M233.227,141.727
		c0,4.328,3.51,7.838,7.838,7.838h36.576c4.328,0,7.838-3.51,7.838-7.838v-22.208c0-4.328-3.51-7.837-7.838-7.837h-36.576
		c-4.328,0-7.838,3.51-7.838,7.837V141.727z"/>
	<path style="fill:#FFFFFF;stroke:#FFFFFF;stroke-width:13.0628;stroke-miterlimit:10;" d="M202.094,157.402
		c0,4.328-3.148,7.837-7.033,7.837h-54.512c-3.884,0-7.034-3.509-7.034-7.837v-56.824c0-4.329,3.149-7.838,7.034-7.838h54.512
		c3.885,0,7.033,3.509,7.033,7.838V157.402z"/>
	<path style="fill:#FFFFFF;stroke:#FFFFFF;stroke-width:13.0628;stroke-miterlimit:10;" d="M103.063,142.532
		c0-4.328,3.509-7.837,7.838-7.837h45.067c4.328,0,7.837,3.509,7.837,7.837v12.41c0,4.329-3.51,7.838-7.837,7.838h-45.067
		c-4.329,0-7.838-3.509-7.838-7.838V142.532z"/>
	<g>
		<g>
			<g>
				<g>
					<path style="fill:#FFFFFF;" d="M169.331,144.893c0,9.449,0,18.898,0,28.347c0,4.514,7,4.514,7,0c0-9.449,0-18.898,0-28.347
						C176.331,140.379,169.331,140.379,169.331,144.893L169.331,144.893z"/>
				</g>
			</g>
			<g>
				<g>
					<path style="fill:#FFFFFF;" d="M162.815,150.769c2.755,1.59,5.51,3.181,8.264,4.771c3.917,2.261,7.44-3.789,3.533-6.044
						c-2.755-1.59-5.509-3.181-8.264-4.771C162.432,142.463,158.909,148.513,162.815,150.769L162.815,150.769z"/>
				</g>
			</g>
			<g>
				<g>
					<path style="fill:#FFFFFF;" d="M179.218,144.725c-2.754,1.59-5.509,3.181-8.264,4.771c-3.907,2.255-0.383,8.305,3.533,6.044
						c2.755-1.59,5.509-3.181,8.264-4.771C186.658,148.513,183.135,142.463,179.218,144.725L179.218,144.725z"/>
				</g>
			</g>
		</g>
		<g>
			<g>
				<g>
					<path style="fill:#FFFFFF;" d="M146.417,161.762c8.183,4.725,16.366,9.449,24.548,14.173c3.917,2.261,7.44-3.789,3.533-6.044
						c-8.183-4.725-16.366-9.449-24.548-14.173C146.034,153.457,142.51,159.506,146.417,161.762L146.417,161.762z"/>
				</g>
			</g>
			<g>
				<g>
					<path style="fill:#FFFFFF;" d="M148.297,170.332c2.755-1.59,5.509-3.181,8.264-4.771c3.907-2.255,0.383-8.305-3.533-6.044
						c-2.754,1.59-5.509,3.181-8.264,4.771C140.857,166.543,144.38,172.593,148.297,170.332L148.297,170.332z"/>
				</g>
			</g>
			<g>
				<g>
					<path style="fill:#FFFFFF;" d="M151.232,153.104c0,3.181,0,6.362,0,9.542c0,4.514,7,4.514,7,0c0-3.181,0-6.362,0-9.542
						C158.232,148.59,151.232,148.59,151.232,153.104L151.232,153.104z"/>
				</g>
			</g>
		</g>
		<g>
			<g>
				<g>
					<path style="fill:#FFFFFF;" d="M150.012,190.089c8.183-4.725,16.366-9.449,24.549-14.173c3.907-2.255,0.383-8.305-3.533-6.044
						c-8.183,4.724-16.366,9.448-24.549,14.172C142.572,186.3,146.096,192.35,150.012,190.089L150.012,190.089z"/>
				</g>
			</g>
			<g>
				<g>
					<path style="fill:#FFFFFF;" d="M158.341,192.783c0-3.181,0-6.362,0-9.543c0-4.514-7-4.514-7,0c0,3.181,0,6.362,0,9.543
						C151.341,197.297,158.341,197.297,158.341,192.783L158.341,192.783z"/>
				</g>
			</g>
			<g>
				<g>
					<path style="fill:#FFFFFF;" d="M144.873,181.601c2.755,1.59,5.509,3.18,8.264,4.771c3.917,2.261,7.44-3.789,3.533-6.044
						c-2.755-1.59-5.509-3.181-8.264-4.771C144.49,173.295,140.966,179.345,144.873,181.601L144.873,181.601z"/>
				</g>
			</g>
		</g>
		<g>
			<g>
				<g>
					<path style="fill:#FFFFFF;" d="M176.299,201.342c0-9.448,0-18.897,0-28.346c0-4.514-7-4.514-7,0c0,9.448,0,18.897,0,28.346
						C169.299,205.855,176.299,205.855,176.299,201.342L176.299,201.342z"/>
				</g>
			</g>
			<g>
				<g>
					<path style="fill:#FFFFFF;" d="M182.813,195.466c-2.755-1.59-5.509-3.18-8.264-4.771c-3.917-2.261-7.44,3.789-3.533,6.045
						c2.755,1.59,5.509,3.18,8.264,4.771C183.197,203.771,186.721,197.722,182.813,195.466L182.813,195.466z"/>
				</g>
			</g>
			<g>
				<g>
					<path style="fill:#FFFFFF;" d="M166.411,201.511c2.754-1.591,5.509-3.181,8.264-4.771c3.907-2.256,0.383-8.306-3.533-6.045
						c-2.754,1.591-5.509,3.181-8.264,4.771C158.971,197.722,162.495,203.771,166.411,201.511L166.411,201.511z"/>
				</g>
			</g>
		</g>
		<g>
			<g>
				<g>
					<path style="fill:#FFFFFF;" d="M199.213,184.257c-8.184-4.724-16.366-9.448-24.549-14.172c-3.917-2.261-7.44,3.789-3.533,6.044
						c8.183,4.725,16.367,9.449,24.549,14.173C199.597,192.563,203.12,186.513,199.213,184.257L199.213,184.257z"/>
				</g>
			</g>
			<g>
				<g>
					<path style="fill:#FFFFFF;" d="M197.333,175.688c-2.755,1.59-5.51,3.181-8.265,4.771c-3.907,2.255-0.384,8.305,3.533,6.044
						c2.755-1.591,5.51-3.181,8.265-4.771C204.773,179.476,201.25,173.426,197.333,175.688L197.333,175.688z"/>
				</g>
			</g>
			<g>
				<g>
					<path style="fill:#FFFFFF;" d="M194.397,192.915c0-3.181,0-6.361,0-9.542c0-4.514-7-4.514-7,0c0,3.181,0,6.361,0,9.542
						C187.397,197.429,194.397,197.429,194.397,192.915L194.397,192.915z"/>
				</g>
			</g>
		</g>
		<g>
			<g>
				<g>
					<path style="fill:#FFFFFF;" d="M195.616,155.931c-8.183,4.724-16.365,9.449-24.548,14.173
						c-3.907,2.255-0.383,8.305,3.533,6.044c8.183-4.724,16.366-9.449,24.548-14.173
						C203.057,159.719,199.533,153.669,195.616,155.931L195.616,155.931z"/>
				</g>
			</g>
			<g>
				<g>
					<path style="fill:#FFFFFF;" d="M187.288,153.236c0,3.181,0,6.362,0,9.542c0,4.514,7,4.514,7,0c0-3.181,0-6.362,0-9.542
						C194.288,148.722,187.288,148.722,187.288,153.236L187.288,153.236z"/>
				</g>
			</g>
			<g>
				<g>
					<path style="fill:#FFFFFF;" d="M200.757,164.419c-2.755-1.591-5.51-3.181-8.265-4.771c-3.917-2.261-7.44,3.789-3.533,6.044
						c2.755,1.591,5.51,3.181,8.265,4.771C201.141,172.725,204.664,166.675,200.757,164.419L200.757,164.419z"/>
				</g>
			</g>
		</g>
	</g>
	<g>
		<g>
			<g>
				<g>
					<path style="fill:#FFFFFF;" d="M253.105,169.717c-6.682,6.682-13.363,13.363-20.044,20.044
						c-3.194,3.194,1.755,8.145,4.949,4.949c6.682-6.681,13.363-13.362,20.044-20.043C261.25,171.473,256.3,166.523,253.105,169.717
						L253.105,169.717z"/>
				</g>
			</g>
			<g>
				<g>
					<path style="fill:#FFFFFF;" d="M244.355,169.309c0.823,3.072,1.646,6.145,2.469,9.217c1.167,4.355,7.92,2.505,6.75-1.861
						c-0.823-3.072-1.646-6.145-2.469-9.217C249.938,163.091,243.186,164.942,244.355,169.309L244.355,169.309z"/>
				</g>
			</g>
			<g>
				<g>
					<path style="fill:#FFFFFF;" d="M260.259,176.601c-3.072-0.823-6.145-1.646-9.217-2.47c-4.366-1.17-6.217,5.583-1.861,6.75
						c3.072,0.823,6.145,1.646,9.217,2.469C262.764,184.521,264.614,177.769,260.259,176.601L260.259,176.601z"/>
				</g>
			</g>
		</g>
		<g>
			<g>
				<g>
					<path style="fill:#FFFFFF;" d="M224.986,165.486c2.445,9.126,4.891,18.253,7.336,27.38c1.167,4.355,7.92,2.505,6.75-1.861
						c-2.445-9.126-4.891-18.253-7.336-27.38C230.569,159.269,223.816,161.12,224.986,165.486L224.986,165.486z"/>
				</g>
			</g>
			<g>
				<g>
					<path style="fill:#FFFFFF;" d="M220.201,172.822c3.073,0.823,6.146,1.646,9.218,2.47c4.366,1.17,6.217-5.583,1.861-6.75
						c-3.073-0.823-6.146-1.646-9.218-2.47C217.696,164.902,215.846,171.655,220.201,172.822L220.201,172.822z"/>
				</g>
			</g>
			<g>
				<g>
					<path style="fill:#FFFFFF;" d="M234.502,162.727c-2.25,2.249-4.499,4.498-6.748,6.747c-3.195,3.194,1.755,8.145,4.949,4.95
						c2.25-2.249,4.499-4.498,6.748-6.747C242.646,164.482,237.696,159.532,234.502,162.727L234.502,162.727z"/>
				</g>
			</g>
		</g>
		<g>
			<g>
				<g>
					<path style="fill:#FFFFFF;" d="M207.444,188.004c9.127,2.446,18.254,4.892,27.381,7.338c4.366,1.17,6.217-5.583,1.861-6.75
						c-9.127-2.446-18.254-4.892-27.381-7.338C204.939,180.084,203.089,186.837,207.444,188.004L207.444,188.004z"/>
				</g>
			</g>
			<g>
				<g>
					<path style="fill:#FFFFFF;" d="M211.471,195.811c2.25-2.249,4.499-4.498,6.748-6.748c3.195-3.194-1.755-8.144-4.949-4.949
						c-2.25,2.249-4.499,4.498-6.748,6.748C203.326,194.056,208.276,199.006,211.471,195.811L211.471,195.811z"/>
				</g>
			</g>
			<g>
				<g>
					<path style="fill:#FFFFFF;" d="M209.866,178.422c0.823,3.072,1.646,6.145,2.47,9.217c1.167,4.355,7.92,2.505,6.75-1.861
						c-0.823-3.072-1.646-6.145-2.47-9.217C215.449,172.205,208.696,174.056,209.866,178.422L209.866,178.422z"/>
				</g>
			</g>
		</g>
		<g>
			<g>
				<g>
					<path style="fill:#FFFFFF;" d="M218.117,214.561c6.682-6.681,13.362-13.362,20.043-20.044c3.194-3.194-1.755-8.145-4.949-4.949
						c-6.682,6.681-13.362,13.362-20.043,20.044C209.974,212.806,214.923,217.756,218.117,214.561L218.117,214.561z"/>
				</g>
			</g>
			<g>
				<g>
					<path style="fill:#FFFFFF;" d="M226.867,214.97c-0.823-3.072-1.646-6.145-2.47-9.217c-1.167-4.355-7.92-2.505-6.75,1.861
						c0.823,3.072,1.646,6.145,2.47,9.217C221.284,221.187,228.037,219.336,226.867,214.97L226.867,214.97z"/>
				</g>
			</g>
			<g>
				<g>
					<path style="fill:#FFFFFF;" d="M210.964,207.678c3.072,0.823,6.145,1.646,9.217,2.469c4.366,1.17,6.217-5.583,1.861-6.75
						c-3.072-0.823-6.145-1.646-9.217-2.469C208.459,199.758,206.608,206.511,210.964,207.678L210.964,207.678z"/>
				</g>
			</g>
		</g>
		<g>
			<g>
				<g>
					<path style="fill:#FFFFFF;" d="M246.39,218.64c-2.445-9.127-4.892-18.254-7.337-27.381c-1.167-4.355-7.92-2.505-6.75,1.861
						c2.445,9.127,4.892,18.254,7.337,27.381C240.807,224.856,247.56,223.006,246.39,218.64L246.39,218.64z"/>
				</g>
			</g>
			<g>
				<g>
					<path style="fill:#FFFFFF;" d="M251.174,211.305c-3.073-0.823-6.146-1.647-9.218-2.471c-4.366-1.17-6.217,5.582-1.861,6.75
						c3.073,0.823,6.146,1.647,9.218,2.471C253.679,219.225,255.529,212.473,251.174,211.305L251.174,211.305z"/>
				</g>
			</g>
			<g>
				<g>
					<path style="fill:#FFFFFF;" d="M236.873,221.398c2.25-2.249,4.499-4.498,6.748-6.747c3.195-3.194-1.755-8.144-4.949-4.949
						c-2.25,2.249-4.499,4.498-6.748,6.747C228.729,219.644,233.679,224.593,236.873,221.398L236.873,221.398z"/>
				</g>
			</g>
		</g>
		<g>
			<g>
				<g>
					<path style="fill:#FFFFFF;" d="M263.931,196.121c-9.127-2.445-18.254-4.892-27.381-7.337c-4.366-1.17-6.217,5.583-1.861,6.75
						c9.127,2.445,18.254,4.892,27.381,7.337C266.436,204.041,268.286,197.288,263.931,196.121L263.931,196.121z"/>
				</g>
			</g>
			<g>
				<g>
					<path style="fill:#FFFFFF;" d="M259.904,188.314c-2.25,2.249-4.499,4.498-6.748,6.748c-3.195,3.194,1.755,8.145,4.949,4.949
						c2.25-2.249,4.499-4.498,6.748-6.748C268.049,190.069,263.099,185.119,259.904,188.314L259.904,188.314z"/>
				</g>
			</g>
			<g>
				<g>
					<path style="fill:#FFFFFF;" d="M261.508,205.703c-0.823-3.072-1.646-6.145-2.469-9.218c-1.167-4.355-7.919-2.505-6.75,1.861
						c0.823,3.072,1.646,6.145,2.469,9.218C255.925,211.92,262.677,210.069,261.508,205.703L261.508,205.703z"/>
				</g>
			</g>
		</g>
	</g>
	<g>
		<g>
			<g>
				<g>
					<path style="fill:#FFFFFF;" d="M200.348,220.412c-6.682,6.681-13.363,13.362-20.045,20.044
						c-3.194,3.194,1.755,8.144,4.95,4.949c6.682-6.681,13.363-13.362,20.045-20.044
						C208.492,222.167,203.542,217.218,200.348,220.412L200.348,220.412z"/>
				</g>
			</g>
			<g>
				<g>
					<path style="fill:#FFFFFF;" d="M191.597,220.003c0.823,3.072,1.646,6.145,2.47,9.217c1.167,4.355,7.92,2.505,6.75-1.861
						c-0.823-3.072-1.646-6.145-2.47-9.217C197.18,213.786,190.427,215.637,191.597,220.003L191.597,220.003z"/>
				</g>
			</g>
			<g>
				<g>
					<path style="fill:#FFFFFF;" d="M207.501,227.295c-3.072-0.823-6.145-1.646-9.217-2.47c-4.366-1.17-6.217,5.583-1.861,6.75
						c3.072,0.823,6.145,1.646,9.217,2.47C210.006,235.215,211.856,228.462,207.501,227.295L207.501,227.295z"/>
				</g>
			</g>
		</g>
		<g>
			<g>
				<g>
					<path style="fill:#FFFFFF;" d="M172.228,216.181c2.446,9.126,4.891,18.253,7.337,27.38c1.167,4.355,7.92,2.505,6.75-1.861
						c-2.445-9.126-4.892-18.253-7.337-27.38C177.81,209.964,171.058,211.814,172.228,216.181L172.228,216.181z"/>
				</g>
			</g>
			<g>
				<g>
					<path style="fill:#FFFFFF;" d="M167.443,223.516c3.073,0.823,6.145,1.646,9.217,2.47c4.366,1.17,6.217-5.583,1.861-6.75
						c-3.073-0.823-6.145-1.646-9.217-2.47C164.938,215.596,163.087,222.349,167.443,223.516L167.443,223.516z"/>
				</g>
			</g>
			<g>
				<g>
					<path style="fill:#FFFFFF;" d="M181.744,213.421c-2.25,2.249-4.5,4.498-6.749,6.747c-3.195,3.194,1.755,8.144,4.95,4.949
						c2.249-2.249,4.499-4.498,6.748-6.747C189.889,215.176,184.938,210.227,181.744,213.421L181.744,213.421z"/>
				</g>
			</g>
		</g>
		<g>
			<g>
				<g>
					<path style="fill:#FFFFFF;" d="M154.686,238.698c9.127,2.445,18.254,4.892,27.38,7.337c4.366,1.17,6.217-5.583,1.861-6.75
						c-9.127-2.445-18.254-4.892-27.38-7.337C152.181,230.778,150.33,237.531,154.686,238.698L154.686,238.698z"/>
				</g>
			</g>
			<g>
				<g>
					<path style="fill:#FFFFFF;" d="M158.713,246.504c2.249-2.249,4.498-4.498,6.748-6.748c3.194-3.194-1.755-8.145-4.95-4.949
						c-2.249,2.249-4.498,4.498-6.748,6.748C150.569,244.749,155.519,249.699,158.713,246.504L158.713,246.504z"/>
				</g>
			</g>
			<g>
				<g>
					<path style="fill:#FFFFFF;" d="M157.108,229.116c0.823,3.072,1.647,6.145,2.47,9.217c1.167,4.355,7.92,2.505,6.75-1.861
						c-0.823-3.072-1.647-6.145-2.47-9.217C162.69,222.899,155.938,224.75,157.108,229.116L157.108,229.116z"/>
				</g>
			</g>
		</g>
		<g>
			<g>
				<g>
					<path style="fill:#FFFFFF;" d="M165.359,265.254c6.681-6.681,13.362-13.361,20.043-20.043c3.195-3.194-1.755-8.144-4.95-4.949
						c-6.681,6.681-13.362,13.361-20.043,20.043C157.215,263.499,162.165,268.448,165.359,265.254L165.359,265.254z"/>
				</g>
			</g>
			<g>
				<g>
					<path style="fill:#FFFFFF;" d="M174.109,265.663c-0.823-3.072-1.646-6.145-2.47-9.217c-1.167-4.355-7.92-2.505-6.75,1.861
						c0.823,3.072,1.646,6.145,2.47,9.217C168.526,271.88,175.279,270.029,174.109,265.663L174.109,265.663z"/>
				</g>
			</g>
			<g>
				<g>
					<path style="fill:#FFFFFF;" d="M158.205,258.371c3.072,0.823,6.145,1.646,9.217,2.47c4.367,1.17,6.217-5.583,1.861-6.75
						c-3.072-0.823-6.145-1.646-9.217-2.47C155.7,250.451,153.849,257.204,158.205,258.371L158.205,258.371z"/>
				</g>
			</g>
		</g>
		<g>
			<g>
				<g>
					<path style="fill:#FFFFFF;" d="M193.631,269.333c-2.445-9.127-4.892-18.254-7.337-27.381c-1.167-4.355-7.92-2.505-6.75,1.861
						c2.445,9.127,4.892,18.254,7.337,27.381C188.048,275.55,194.801,273.699,193.631,269.333L193.631,269.333z"/>
				</g>
			</g>
			<g>
				<g>
					<path style="fill:#FFFFFF;" d="M198.415,261.998c-3.072-0.823-6.145-1.647-9.217-2.471c-4.366-1.17-6.217,5.582-1.861,6.75
						c3.072,0.823,6.145,1.647,9.217,2.471C200.92,269.918,202.771,263.166,198.415,261.998L198.415,261.998z"/>
				</g>
			</g>
			<g>
				<g>
					<path style="fill:#FFFFFF;" d="M184.115,272.093c2.249-2.249,4.498-4.498,6.747-6.747c3.194-3.194-1.755-8.145-4.949-4.949
						c-2.249,2.249-4.498,4.498-6.748,6.747C175.971,270.338,180.921,275.287,184.115,272.093L184.115,272.093z"/>
				</g>
			</g>
		</g>
		<g>
			<g>
				<g>
					<path style="fill:#FFFFFF;" d="M211.173,246.814c-9.127-2.445-18.254-4.891-27.381-7.336c-4.367-1.17-6.217,5.583-1.861,6.75
						c9.127,2.445,18.254,4.891,27.381,7.336C213.678,254.734,215.528,247.981,211.173,246.814L211.173,246.814z"/>
				</g>
			</g>
			<g>
				<g>
					<path style="fill:#FFFFFF;" d="M207.146,239.009c-2.25,2.249-4.499,4.498-6.748,6.747c-3.195,3.194,1.755,8.144,4.949,4.949
						c2.25-2.249,4.499-4.498,6.748-6.747C215.291,240.764,210.341,235.814,207.146,239.009L207.146,239.009z"/>
				</g>
			</g>
			<g>
				<g>
					<path style="fill:#FFFFFF;" d="M208.75,256.397c-0.823-3.072-1.646-6.145-2.47-9.218c-1.167-4.355-7.92-2.505-6.75,1.861
						c0.823,3.072,1.646,6.145,2.47,9.218C203.167,262.614,209.92,260.764,208.75,256.397L208.75,256.397z"/>
				</g>
			</g>
		</g>
	</g>
	<g>
		<g>
			<g>
				<g>
					<path style="fill:#FFFFFF;" d="M113.13,230.851c0,9.449,0,18.897,0,28.347c0,4.514,7,4.514,7,0c0-9.449,0-18.897,0-28.347
						C120.13,226.337,113.13,226.337,113.13,230.851L113.13,230.851z"/>
				</g>
			</g>
			<g>
				<g>
					<path style="fill:#FFFFFF;" d="M106.615,236.727c2.755,1.59,5.509,3.18,8.264,4.771c3.917,2.261,7.44-3.789,3.533-6.045
						c-2.755-1.59-5.51-3.18-8.264-4.771C106.231,228.421,102.708,234.471,106.615,236.727L106.615,236.727z"/>
				</g>
			</g>
			<g>
				<g>
					<path style="fill:#FFFFFF;" d="M123.018,230.682c-2.755,1.591-5.509,3.181-8.264,4.771c-3.907,2.256-0.384,8.306,3.533,6.045
						c2.754-1.591,5.509-3.181,8.264-4.771C130.458,234.471,126.935,228.421,123.018,230.682L123.018,230.682z"/>
				</g>
			</g>
		</g>
		<g>
			<g>
				<g>
					<path style="fill:#FFFFFF;" d="M90.216,247.72c8.183,4.725,16.366,9.449,24.548,14.174c3.917,2.261,7.44-3.789,3.533-6.045
						c-8.183-4.725-16.366-9.449-24.548-14.174C89.833,239.414,86.31,245.464,90.216,247.72L90.216,247.72z"/>
				</g>
			</g>
			<g>
				<g>
					<path style="fill:#FFFFFF;" d="M92.096,256.29c2.754-1.591,5.509-3.182,8.264-4.771c3.907-2.256,0.383-8.306-3.533-6.045
						c-2.755,1.591-5.509,3.182-8.264,4.771C84.656,252.501,88.18,258.551,92.096,256.29L92.096,256.29z"/>
				</g>
			</g>
			<g>
				<g>
					<path style="fill:#FFFFFF;" d="M95.032,239.063c0,3.181,0,6.361,0,9.542c0,4.514,7,4.514,7,0c0-3.181,0-6.361,0-9.542
						C102.032,234.549,95.032,234.549,95.032,239.063L95.032,239.063z"/>
				</g>
			</g>
		</g>
		<g>
			<g>
				<g>
					<path style="fill:#FFFFFF;" d="M93.812,276.046c8.183-4.725,16.366-9.448,24.549-14.172c3.907-2.256,0.383-8.306-3.533-6.045
						c-8.183,4.725-16.366,9.448-24.549,14.172C86.372,272.257,89.895,278.307,93.812,276.046L93.812,276.046z"/>
				</g>
			</g>
			<g>
				<g>
					<path style="fill:#FFFFFF;" d="M102.141,278.74c0-3.181,0-6.361,0-9.542c0-4.514-7-4.514-7,0c0,3.181,0,6.361,0,9.542
						C95.141,283.254,102.141,283.254,102.141,278.74L102.141,278.74z"/>
				</g>
			</g>
			<g>
				<g>
					<path style="fill:#FFFFFF;" d="M88.672,267.558c2.754,1.59,5.509,3.181,8.264,4.771c3.917,2.261,7.44-3.789,3.533-6.045
						c-2.754-1.59-5.509-3.181-8.264-4.771C88.289,259.252,84.766,265.302,88.672,267.558L88.672,267.558z"/>
				</g>
			</g>
		</g>
		<g>
			<g>
				<g>
					<path style="fill:#FFFFFF;" d="M120.099,287.3c0-9.449,0-18.897,0-28.347c0-4.514-7-4.514-7,0c0,9.449,0,18.897,0,28.347
						C113.099,291.813,120.099,291.813,120.099,287.3L120.099,287.3z"/>
				</g>
			</g>
			<g>
				<g>
					<path style="fill:#FFFFFF;" d="M126.613,281.424c-2.755-1.59-5.51-3.18-8.264-4.771c-3.917-2.261-7.44,3.789-3.533,6.045
						c2.755,1.59,5.509,3.18,8.264,4.771C126.997,289.729,130.521,283.68,126.613,281.424L126.613,281.424z"/>
				</g>
			</g>
			<g>
				<g>
					<path style="fill:#FFFFFF;" d="M110.21,287.469c2.754-1.591,5.509-3.181,8.264-4.771c3.907-2.256,0.383-8.306-3.533-6.045
						c-2.754,1.591-5.509,3.181-8.264,4.771C102.771,283.68,106.294,289.729,110.21,287.469L110.21,287.469z"/>
				</g>
			</g>
		</g>
		<g>
			<g>
				<g>
					<path style="fill:#FFFFFF;" d="M143.012,270.214c-8.183-4.724-16.366-9.447-24.549-14.172c-3.917-2.261-7.44,3.789-3.533,6.045
						c8.183,4.724,16.366,9.447,24.549,14.172C143.396,278.52,146.919,272.47,143.012,270.214L143.012,270.214z"/>
				</g>
			</g>
			<g>
				<g>
					<path style="fill:#FFFFFF;" d="M141.132,261.645c-2.755,1.591-5.509,3.181-8.264,4.771c-3.907,2.256-0.384,8.306,3.533,6.045
						c2.754-1.591,5.509-3.181,8.264-4.771C148.572,265.434,145.049,259.384,141.132,261.645L141.132,261.645z"/>
				</g>
			</g>
			<g>
				<g>
					<path style="fill:#FFFFFF;" d="M138.197,278.873c0-3.181,0-6.362,0-9.543c0-4.514-7-4.514-7,0c0,3.181,0,6.362,0,9.543
						C131.197,283.387,138.197,283.387,138.197,278.873L138.197,278.873z"/>
				</g>
			</g>
		</g>
		<g>
			<g>
				<g>
					<path style="fill:#FFFFFF;" d="M139.416,241.888c-8.183,4.725-16.366,9.449-24.549,14.174
						c-3.907,2.256-0.383,8.306,3.533,6.045c8.183-4.725,16.366-9.449,24.549-14.174
						C146.856,245.677,143.333,239.627,139.416,241.888L139.416,241.888z"/>
				</g>
			</g>
			<g>
				<g>
					<path style="fill:#FFFFFF;" d="M131.087,239.193c0,3.181,0,6.362,0,9.543c0,4.514,7,4.514,7,0c0-3.181,0-6.362,0-9.543
						C138.087,234.68,131.087,234.68,131.087,239.193L131.087,239.193z"/>
				</g>
			</g>
			<g>
				<g>
					<path style="fill:#FFFFFF;" d="M144.556,250.376c-2.755-1.59-5.51-3.181-8.264-4.771c-3.917-2.261-7.44,3.789-3.533,6.045
						c2.755,1.59,5.509,3.181,8.264,4.771C144.939,258.682,148.462,252.632,144.556,250.376L144.556,250.376z"/>
				</g>
			</g>
		</g>
	</g>
</g>
<g id="Ebene_1">
</g>
</svg>
