<?xml version="1.0" encoding="iso-8859-1"?>
<!-- Generator: Adobe Illustrator 16.0.0, SVG Export Plug-In . SVG Version: 6.00 Build 0)  -->
<!DOCTYPE svg PUBLIC "-//W3C//DTD SVG 1.1//EN" "http://www.w3.org/Graphics/SVG/1.1/DTD/svg11.dtd">
<svg version="1.1" xmlns="http://www.w3.org/2000/svg" xmlns:xlink="http://www.w3.org/1999/xlink" x="0px" y="0px" width="361px"
	 height="361px" viewBox="0 0 361 361" style="enable-background:new 0 0 361 361;" xml:space="preserve">
<g id="weather_x5F_station_x5F_quadra">
	<g>
		<path style="fill:none;stroke:#FFFFFF;stroke-width:10;stroke-miterlimit:10;" d="M270.333,119.103
			c0,2.245-1.819,4.064-4.064,4.064h-23.371c-2.245,0-4.064-1.82-4.064-4.064V95.731c0-2.245,1.819-4.064,4.064-4.064h23.371
			c2.245,0,4.064,1.82,4.064,4.064V119.103z"/>
		<g>
			<g>
				<path style="fill:#FFFFFF;" d="M216.173,78.328c2.406,2.406,4.813,4.813,7.22,7.219c1.926,1.926,5.145,1.926,7.07,0
					c1.927-1.926,1.927-5.145,0-7.071c-2.406-2.406-4.813-4.813-7.22-7.219c-1.926-1.926-5.145-1.926-7.07,0
					C214.246,73.183,214.246,76.401,216.173,78.328L216.173,78.328z"/>
			</g>
		</g>
		<g>
			<g>
				<path style="fill:#FFFFFF;" d="M185.333,112.167c11.167,0,22.333,0,33.5,0c6.448,0,6.448-10,0-10c-11.167,0-22.333,0-33.5,0
					C178.884,102.167,178.884,112.167,185.333,112.167L185.333,112.167z"/>
			</g>
		</g>
		<g>
			<g>
				<path style="fill:#FFFFFF;" d="M289.742,136.756c-1.989-1.99-3.979-3.979-5.969-5.969c-1.926-1.926-5.145-1.926-7.07,0
					c-1.927,1.926-1.927,5.145,0,7.071c1.989,1.99,3.979,3.979,5.969,5.969c1.926,1.926,5.145,1.926,7.07,0
					C291.669,141.9,291.669,138.683,289.742,136.756L289.742,136.756z"/>
			</g>
		</g>
		<g>
			<g>
				<path style="fill:#FFFFFF;" d="M259.083,175.917c0-11.167,0-22.333,0-33.5c0-6.449-10-6.449-10,0c0,11.167,0,22.333,0,33.5
					C249.083,182.365,259.083,182.365,259.083,175.917L259.083,175.917z"/>
			</g>
		</g>
		<g>
			<g>
				<path style="fill:#FFFFFF;" d="M207.773,161.547c7.896-7.896,15.793-15.792,23.689-23.688c4.564-4.563-2.507-11.635-7.07-7.071
					c-7.896,7.896-15.793,15.792-23.689,23.688C196.139,159.039,203.21,166.11,207.773,161.547L207.773,161.547z"/>
			</g>
		</g>
	</g>
	<g>
		<g>
			<g>
				<path style="fill:#FFFFFF;" d="M142.041,291.502c4.725,0,9.45,0,14.175,0c4.514,0,4.514-7,0-7c-4.725,0-9.45,0-14.175,0
					C137.526,284.502,137.526,291.502,142.041,291.502L142.041,291.502z"/>
			</g>
		</g>
		<g>
			<g>
				<g>
					<path style="fill:#FFFFFF;" d="M144.311,223.348c0,21.112,0,42.226,0,63.338c0,6.448,10,6.448,10,0c0-21.112,0-42.226,0-63.338
						C154.311,216.899,144.311,216.899,144.311,223.348L144.311,223.348z"/>
				</g>
			</g>
			<g>
				<g>
					<path style="fill:#FFFFFF;" d="M86.286,182.117c1.824,0,3.647,0,5.471,0c1.935,0,1.935-3,0-3c-1.824,0-3.647,0-5.471,0
						C84.352,179.117,84.352,182.117,86.286,182.117L86.286,182.117z"/>
				</g>
			</g>
			<g>
				<g>
					<path style="fill:#FFFFFF;" d="M204.701,182.117c1.824,0,3.647,0,5.472,0c1.935,0,1.935-3,0-3c-1.824,0-3.647,0-5.472,0
						C202.767,179.117,202.767,182.117,204.701,182.117L204.701,182.117z"/>
				</g>
			</g>
			<g>
				<g>
					<g>
						<path style="fill:#FFFFFF;" d="M219.283,212.162c-0.439,5.096-5.64,4.502-9.258,4.502c-4.693,0-9.387,0-14.08,0
							c-15.059,0-30.117,0-45.175,0c-15.321,0-30.643,0-45.964,0c-5.022,0-10.044,0-15.065,0c-2.358,0-4.874,0.251-7.195-0.283
							c-3.948-0.908-3.287-5.525-3.287-8.485c0-4.008,0-8.015,0-12.022c0-3.777,0.026-7.587,5.063-7.967
							c0.545-0.041,1.109,0,1.655,0c10.087,0,20.174,0,30.26,0c29.546,0,59.092,0,88.637,0c3.569,0,7.601-0.527,11.123,0.283
							c4.648,1.069,3.286,8.772,3.286,12.132C219.283,204.269,219.283,208.215,219.283,212.162c0,4.514,7,4.514,7,0
							c0-10.401,3.804-31.256-12.225-31.256c-8.068,0-16.137,0-24.205,0c-30.24,0-60.479,0-90.719,0
							c-7.624,0-18.505-1.9-24.198,4.301c-4.353,4.742-2.677,14.167-2.677,20.002c0,7.738-0.034,14.58,8.426,17.922
							c2.344,0.926,5.728,0.533,8.224,0.533c4.804,0,9.609,0,14.414,0c15.15,0,30.299,0,45.449,0c16.879,0,33.758,0,50.637,0
							c9.988,0,25.661,2.554,26.875-11.502C226.672,207.663,219.668,207.7,219.283,212.162z"/>
					</g>
				</g>
				<g>
					<g>
						<path style="fill:#FFFFFF;" d="M71.167,204.081c13.327,0,26.654,0,39.98,0c1.935,0,1.935-3,0-3c-13.327,0-26.654,0-39.98,0
							C69.232,201.081,69.232,204.081,71.167,204.081L71.167,204.081z"/>
					</g>
				</g>
				<g>
					<g>
						<path style="fill:#FFFFFF;" d="M187.244,204.081c13.327,0,26.653,0,39.98,0c1.935,0,1.935-3,0-3c-13.327,0-26.653,0-39.98,0
							C185.31,201.081,185.31,204.081,187.244,204.081L187.244,204.081z"/>
					</g>
				</g>
				<g>
					<g>
						<g>
							<g>
								<path style="fill:#FFFFFF;" d="M170.789,202.4c-4.15,2.496-8.301,4.992-12.451,7.489c-1.656,0.995-0.148,3.59,1.514,2.59
									c4.151-2.496,8.301-4.992,12.452-7.489C173.959,203.995,172.452,201.4,170.789,202.4L170.789,202.4z"/>
							</g>
						</g>
						<g>
							<g>
								<path style="fill:#FFFFFF;" d="M170.789,196.843c-7.23,4.349-14.46,8.697-21.69,13.047c-1.655,0.995-0.148,3.59,1.514,2.59
									c7.23-4.349,14.461-8.697,21.691-13.047C173.959,198.438,172.452,195.843,170.789,196.843L170.789,196.843z"/>
							</g>
						</g>
						<g>
							<g>
								<path style="fill:#FFFFFF;" d="M170.789,191.286c-7.23,4.349-14.46,8.697-21.69,13.046c-1.656,0.995-0.148,3.59,1.514,2.59
									c7.23-4.349,14.461-8.697,21.691-13.046C173.959,192.881,172.452,190.286,170.789,191.286L170.789,191.286z"/>
							</g>
						</g>
						<g>
							<g>
								<path style="fill:#FFFFFF;" d="M170.314,208.107c-0.987,0.594-1.975,1.188-2.963,1.782c-1.655,0.995-0.148,3.59,1.515,2.59
									c0.987-0.594,1.975-1.188,2.963-1.782C173.484,209.702,171.977,207.107,170.314,208.107L170.314,208.107z"/>
							</g>
						</g>
						<g>
							<g>
								<path style="fill:#FFFFFF;" d="M170.789,185.391c-7.23,4.349-14.46,8.697-21.69,13.046c-1.656,0.995-0.148,3.59,1.514,2.59
									c7.23-4.349,14.461-8.697,21.691-13.046C173.959,186.985,172.452,184.391,170.789,185.391L170.789,185.391z"/>
							</g>
						</g>
					</g>
					<g>
						<g>
							<g>
								<path style="fill:#FFFFFF;" d="M127.407,204.99c4.15,2.497,8.302,4.993,12.452,7.489c1.663,1,3.17-1.595,1.515-2.59
									c-4.151-2.497-8.302-4.993-12.453-7.489C127.259,201.4,125.751,203.995,127.407,204.99L127.407,204.99z"/>
							</g>
						</g>
						<g>
							<g>
								<path style="fill:#FFFFFF;" d="M127.407,199.433c7.23,4.35,14.461,8.698,21.691,13.047c1.662,1,3.169-1.595,1.514-2.59
									c-7.23-4.35-14.461-8.698-21.691-13.047C127.259,195.843,125.751,198.438,127.407,199.433L127.407,199.433z"/>
							</g>
						</g>
						<g>
							<g>
								<path style="fill:#FFFFFF;" d="M127.407,193.876c7.23,4.349,14.461,8.697,21.691,13.046c1.662,1,3.169-1.595,1.514-2.59
									c-7.23-4.349-14.461-8.697-21.691-13.046C127.259,190.286,125.751,192.881,127.407,193.876L127.407,193.876z"/>
							</g>
						</g>
						<g>
							<g>
								<path style="fill:#FFFFFF;" d="M127.882,210.697c0.987,0.595,1.975,1.188,2.963,1.782c1.662,1,3.169-1.595,1.514-2.59
									c-0.987-0.595-1.975-1.188-2.963-1.782C127.733,207.107,126.227,209.702,127.882,210.697L127.882,210.697z"/>
							</g>
						</g>
						<g>
							<g>
								<path style="fill:#FFFFFF;" d="M127.407,187.98c7.23,4.349,14.461,8.697,21.691,13.046c1.662,1,3.169-1.595,1.514-2.59
									c-7.23-4.349-14.461-8.697-21.691-13.046C127.259,184.391,125.751,186.985,127.407,187.98L127.407,187.98z"/>
							</g>
						</g>
					</g>
				</g>
				<g>
					<g>
						<path style="fill:#FFFFFF;" d="M176.322,217.073c-0.78,3.167-13.309,1.591-15.073,1.591c-7.973,0-15.947,0-23.92,0
							c-0.947,0-14.142,1.011-14.142-1.351c0-6.145,0-12.289,0-18.433c0-3.285,0-6.569,0-9.854c0-2.317-0.448-4.083,3.038-4.083
							c5.537,0,11.074,0,16.611,0c7.781,0,15.562,0,23.343,0c3.039,0,10.089-1.321,10.089,2.996c0,9.845,0,19.688,0,29.532
							c0,1.935,3,1.935,3,0c0-5.549,0-11.098,0-16.647c0-5.016,0.948-11.024-0.263-15.938c-0.982-3.986-8.454-2.942-11.388-2.942
							c-7.614,0-15.229,0-22.843,0c-6.012,0-12.023,0-18.035,0c-4.692,0-6.553,2.186-6.553,6.513c0,7.249,0,14.498,0,21.747
							c0,3.939-1.396,10.721,4.312,11.323c9.558,1.01,19.602,0.138,29.201,0.138c5.649,0,11.299,0,16.948,0
							c3.313,0,7.582,0.207,8.567-3.794C179.678,215.992,176.785,215.195,176.322,217.073z"/>
					</g>
				</g>
			</g>
		</g>
	</g>
</g>
<g id="Ebene_1">
</g>
</svg>
