<?xml version="1.0" encoding="iso-8859-1"?>
<!-- Generator: Adobe Illustrator 16.0.0, SVG Export Plug-In . SVG Version: 6.00 Build 0)  -->
<!DOCTYPE svg PUBLIC "-//W3C//DTD SVG 1.1//EN" "http://www.w3.org/Graphics/SVG/1.1/DTD/svg11.dtd">
<svg version="1.1" xmlns="http://www.w3.org/2000/svg" xmlns:xlink="http://www.w3.org/1999/xlink" x="0px" y="0px" width="361px"
	 height="361px" viewBox="0 0 361 361" style="enable-background:new 0 0 361 361;" xml:space="preserve">
<g id="weather_x5F_directions_x5F_sw">
	<g>
		<g>
			<polygon style="fill:#FFFFFF;" points="174.833,160.042 183.785,121.979 192.167,160.042 			"/>
			<g>
				<path style="fill:#FFFFFF;" d="M176.28,160.441c2.984-12.688,5.968-25.375,8.952-38.063c-0.964,0-1.929,0-2.893,0
					c2.794,12.688,5.588,25.375,8.382,38.063c0.482-0.633,0.964-1.266,1.446-1.899c-5.778,0-11.556,0-17.333,0c-1.935,0-1.935,3,0,3
					c5.778,0,11.555,0,17.333,0c1.014,0,1.654-0.954,1.446-1.899c-2.794-12.688-5.588-25.375-8.382-38.063
					c-0.318-1.448-2.558-1.423-2.893,0c-2.984,12.688-5.968,25.375-8.952,38.063C172.944,161.525,175.837,162.324,176.28,160.441z"
					/>
			</g>
		</g>
		<g>
			<g>
				<path style="fill:#FFFFFF;" d="M239.118,177.189c-10.674-2.415-21.348-4.83-32.021-7.245c0.856,1.125,1.713,2.25,2.569,3.375
					c0-4.834,0.81-10.292-1.102-14.821c-2.332-5.526-11.34-3.998-15.96-3.998c1.125,0.856,2.25,1.713,3.375,2.569
					c-3.035-13.414-6.069-26.827-9.104-40.241c-0.758-3.35-5.992-3.35-6.75,0c-3.035,13.414-6.069,26.828-9.104,40.241
					c1.125-0.856,2.25-1.713,3.375-2.569c-5.112,0-11.876-1.289-15.413,3.29c-2.98,3.857-1.649,10.975-1.649,15.53
					c0.856-1.125,1.713-2.25,2.569-3.375c-10.673,2.415-21.347,4.83-32.02,7.244c-3.35,0.758-3.35,5.992,0,6.75
					c10.673,2.415,21.347,4.829,32.02,7.244c-0.856-1.125-1.713-2.25-2.569-3.375c0,3.867-1.472,11.696,1.102,15.028
					c3.981,5.154,9.991,3.998,15.849,3.998c-1.125-0.856-2.25-1.713-3.375-2.569c3.072,13.078,6.144,26.157,9.215,39.236
					c0.784,3.34,5.978,3.359,6.75,0c3.007-13.079,6.015-26.158,9.021-39.236c-1.125,0.856-2.25,1.713-3.375,2.569
					c4.878,0,11.929,1.328,15.328-3.072c3.141-4.067,1.816-11.128,1.816-15.953c-0.856,1.125-1.713,2.25-2.569,3.375
					c10.674-2.415,21.348-4.83,32.021-7.245c4.402-0.995,2.535-7.744-1.861-6.75c-10.674,2.415-21.348,4.83-32.021,7.245
					c-1.509,0.342-2.569,1.873-2.569,3.375c0,3.512,0,7.022,0,10.534c0,2.603-8.361,1.491-10.145,1.491
					c-1.506,0-3.028,1.062-3.375,2.569c-3.007,13.079-6.015,26.158-9.021,39.236c2.25,0,4.5,0,6.75,0
					c-3.072-13.078-6.144-26.157-9.215-39.236c-0.354-1.508-1.863-2.569-3.375-2.569c-1.41,0-9.951,0.923-9.951-1.182
					c0-3.615,0-7.229,0-10.845c0-1.502-1.061-3.033-2.569-3.375c-10.673-2.414-21.347-4.829-32.02-7.244c0,2.25,0,4.5,0,6.75
					c10.673-2.414,21.347-4.829,32.02-7.244c1.509-0.341,2.569-1.873,2.569-3.375c0-3.446,0-6.891,0-10.337
					c0-2.632,8.13-1.482,10.063-1.482c1.502,0,3.034-1.061,3.375-2.569c3.035-13.414,6.069-26.828,9.104-40.241
					c-2.25,0-4.5,0-6.75,0c3.035,13.414,6.069,26.827,9.104,40.241c0.342,1.509,1.873,2.569,3.375,2.569
					c1.563,0,10.062-0.938,10.062,1.179c0,3.546,0,7.093,0,10.64c0,1.502,1.061,3.034,2.569,3.375
					c10.674,2.415,21.348,4.83,32.021,7.244C241.653,184.934,243.521,178.185,239.118,177.189z"/>
			</g>
		</g>
	</g>
	<g>
		<path style="fill:#FFFFFF;" d="M123.67,261.906c0.383,1.313,0.806,2.793,1.27,4.44c0.463,1.648,0.958,3.353,1.486,5.112
			c0.526,1.76,1.062,3.52,1.605,5.279c0.543,1.761,1.07,3.393,1.582,4.896c0.417-1.633,0.844-3.408,1.278-5.328
			c0.434-1.92,0.844-3.904,1.229-5.952c0.386-2.048,0.764-4.087,1.133-6.12c0.37-2.031,0.716-3.991,1.038-5.88h7.778
			c-1.126,5.568-2.422,11.216-3.887,16.944c-1.464,5.729-3.05,11.168-4.755,16.32h-6.849c-1.118-3.072-2.205-6.296-3.258-9.672
			c-1.054-3.377-2.092-6.76-3.114-10.152c-1.025,3.393-2.05,6.775-3.076,10.152c-1.025,3.376-2.099,6.6-3.22,9.672h-6.844
			c-1.704-5.152-3.287-10.592-4.749-16.32c-1.462-5.729-2.755-11.376-3.88-16.944h8.112c0.321,1.889,0.675,3.849,1.062,5.88
			c0.385,2.033,0.788,4.072,1.206,6.12c0.417,2.048,0.844,4.032,1.278,5.952s0.877,3.695,1.327,5.328
			c0.577-1.567,1.138-3.232,1.683-4.992c0.544-1.76,1.074-3.52,1.587-5.279c0.513-1.76,0.986-3.457,1.418-5.089
			s0.826-3.087,1.178-4.368H123.67z"/>
	</g>
	<g>
		<path style="fill:#FFFFFF;" d="M81.063,285.283c1.056,0,1.927-0.088,2.616-0.265c0.688-0.175,1.24-0.415,1.656-0.719
			c0.416-0.305,0.704-0.664,0.864-1.08c0.16-0.416,0.24-0.881,0.24-1.393c0-1.088-0.512-1.992-1.536-2.712
			c-1.024-0.72-2.784-1.495-5.28-2.328c-1.088-0.384-2.177-0.823-3.264-1.319c-1.088-0.496-2.064-1.121-2.928-1.873
			c-0.864-0.751-1.568-1.663-2.112-2.736c-0.544-1.07-0.816-2.375-0.816-3.911s0.288-2.92,0.864-4.152
			c0.576-1.231,1.392-2.28,2.448-3.144c1.056-0.864,2.335-1.527,3.84-1.992c1.504-0.463,3.2-0.696,5.088-0.696
			c2.24,0,4.176,0.24,5.808,0.72c1.632,0.48,2.976,1.008,4.032,1.584l-2.16,5.904c-0.929-0.48-1.96-0.903-3.096-1.271
			c-1.136-0.367-2.504-0.553-4.104-0.553c-1.792,0-3.08,0.248-3.864,0.744c-0.785,0.496-1.176,1.256-1.176,2.28
			c0,0.608,0.144,1.12,0.432,1.536s0.696,0.792,1.224,1.128s1.136,0.641,1.824,0.912c0.688,0.272,1.447,0.552,2.28,0.84
			c1.728,0.641,3.232,1.272,4.512,1.896c1.279,0.625,2.344,1.353,3.192,2.185c0.847,0.833,1.479,1.808,1.896,2.928
			c0.416,1.12,0.624,2.48,0.624,4.08c0,3.104-1.088,5.513-3.264,7.224c-2.176,1.713-5.456,2.568-9.84,2.568
			c-1.472,0-2.801-0.088-3.984-0.264c-1.185-0.176-2.232-0.393-3.144-0.648c-0.912-0.256-1.697-0.527-2.352-0.816
			c-0.656-0.287-1.208-0.559-1.656-0.815l2.112-5.952c0.991,0.545,2.215,1.032,3.672,1.465
			C77.167,285.067,78.951,285.283,81.063,285.283z"/>
	</g>
</g>
<g id="Ebene_1">
</g>
</svg>
