<?xml version="1.0" encoding="iso-8859-1"?>
<!-- Generator: Adobe Illustrator 16.0.0, SVG Export Plug-In . SVG Version: 6.00 Build 0)  -->
<!DOCTYPE svg PUBLIC "-//W3C//DTD SVG 1.1 Tiny//EN" "http://www.w3.org/Graphics/SVG/1.1/DTD/svg11-tiny.dtd">
<svg version="1.1" baseProfile="tiny" id="weather_x5F_wind"
	 xmlns="http://www.w3.org/2000/svg" xmlns:xlink="http://www.w3.org/1999/xlink" x="0px" y="0px" width="361px" height="361px"
	 viewBox="0 0 361 361" xml:space="preserve">
<g>
	<path fill="#FFFFFF" d="M259.631,98.908c0,49.764,0,99.527,0,149.291c0,13.782,0,27.564,0,41.346c0,6.449,10,6.449,10,0
		c0-49.764,0-99.527,0-149.291c0-13.782,0-27.564,0-41.346C269.631,92.459,259.631,92.459,259.631,98.908L259.631,98.908z"/>
</g>
<line fill="none" stroke="#FFFFFF" stroke-width="10" stroke-miterlimit="10" x1="72.827" y1="129.854" x2="189.88" y2="78.401"/>
<line fill="none" stroke="#FFFFFF" stroke-width="10" stroke-miterlimit="10" x1="83.044" y1="159.923" x2="208.207" y2="146.795"/>
<g>
	<polygon fill="#FFFFFF" points="189.88,78.401 254.565,97.721 208.207,146.795 	"/>
	<g>
		<path fill="#FFFFFF" d="M188.551,83.223c21.562,6.44,43.123,12.88,64.685,19.32c-0.735-2.786-1.471-5.571-2.207-8.357
			c-15.453,16.358-30.905,32.716-46.358,49.074c2.786,0.735,5.571,1.471,8.357,2.207c-6.108-22.798-12.217-45.596-18.326-68.394
			c-1.667-6.223-11.314-3.579-9.643,2.658c6.108,22.798,12.217,45.596,18.326,68.394c0.955,3.565,5.765,4.951,8.357,2.207
			c15.453-16.358,30.905-32.716,46.358-49.074c2.605-2.758,1.455-7.264-2.207-8.357c-21.562-6.44-43.123-12.88-64.685-19.32
			C185.015,71.73,182.388,81.382,188.551,83.223z"/>
	</g>
</g>
<path fill="#FFFFFF" d="M98.225,155.182c0.902,3.603-1.41,7.288-5.165,8.228l-9.628,2.409c-3.753,0.938-7.528-1.223-8.43-4.826
	l-7.281-29.096c-0.903-3.604,1.41-7.289,5.164-8.228l9.629-2.409c3.754-0.938,7.528,1.222,8.431,4.826L98.225,155.182z"/>
<path fill="#FFFFFF" d="M138.244,148.489c1.11,4.44-1.033,8.802-4.788,9.742l-9.628,2.409c-3.753,0.939-7.698-1.899-8.809-6.339
	l-8.97-35.847c-1.111-4.44,1.032-8.802,4.787-9.742l9.629-2.409c3.752-0.939,7.697,1.899,8.808,6.34L138.244,148.489z"/>
<path fill="#FFFFFF" d="M181.127,141.213c1.394,5.571-0.518,10.853-4.272,11.791l-9.629,2.409c-3.754,0.939-7.928-2.817-9.321-8.389
	l-11.258-44.987c-1.394-5.571,0.519-10.853,4.273-11.791l9.629-2.409c3.753-0.938,7.928,2.818,9.322,8.389L181.127,141.213z"/>
</svg>
