<?xml version="1.0" encoding="iso-8859-1"?>
<!-- Generator: Adobe Illustrator 16.0.0, SVG Export Plug-In . SVG Version: 6.00 Build 0)  -->
<!DOCTYPE svg PUBLIC "-//W3C//DTD SVG 1.1 Tiny//EN" "http://www.w3.org/Graphics/SVG/1.1/DTD/svg11-tiny.dtd">
<svg version="1.1" baseProfile="tiny" id="weather_x5F_rain_x5F_light"
	 xmlns="http://www.w3.org/2000/svg" xmlns:xlink="http://www.w3.org/1999/xlink" x="0px" y="0px" width="361px" height="361px"
	 viewBox="0 0 361 361" xml:space="preserve">
<path fill="#FFFFFF" stroke="#FFFFFF" stroke-width="13.0628" stroke-miterlimit="10" d="M193.686,143.951
	c0,4.329-3.148,7.838-7.033,7.838h-54.512c-3.885,0-7.035-3.51-7.035-7.838V87.128c0-4.329,3.15-7.838,7.035-7.838h54.512
	c3.884,0,7.033,3.509,7.033,7.838V143.951z"/>
<path fill="#FFFFFF" stroke="#FFFFFF" stroke-width="13.0628" stroke-miterlimit="10" d="M90.49,124.356
	c0,4.329,3.509,7.838,7.838,7.838h36.576c4.328,0,7.837-3.509,7.837-7.838V102.15c0-4.329-3.51-7.838-7.837-7.838H98.328
	c-4.329,0-7.838,3.509-7.838,7.838V124.356z"/>
<path fill="#FFFFFF" stroke="#FFFFFF" stroke-width="13.0628" stroke-miterlimit="10" d="M74.815,124.356
	c0-4.328,3.509-7.837,7.838-7.837h45.067c4.328,0,7.837,3.509,7.837,7.837v12.41c0,4.329-3.51,7.838-7.837,7.838H82.653
	c-4.329,0-7.838-3.509-7.838-7.838V124.356z"/>
<g>
	<path fill="#FFFFFF" d="M141.803,134.878c-5.5,9.526-11,19.053-16.5,28.579c-3.23,5.595,5.412,10.628,8.635,5.047
		c5.5-9.526,11-19.053,16.5-28.579C153.668,134.33,145.025,129.296,141.803,134.878L141.803,134.878z"/>
</g>
<path fill="#FFFFFF" stroke="#FFFFFF" stroke-width="13.0628" stroke-miterlimit="10" d="M246.156,151.79
	c0,4.328-3.149,7.837-7.033,7.837H184.61c-3.885,0-7.034-3.509-7.034-7.837V94.966c0-4.329,3.149-7.838,7.034-7.838h54.513
	c3.884,0,7.033,3.509,7.033,7.838V151.79z"/>
<path fill="#FFFFFF" stroke="#FFFFFF" stroke-width="13.0628" stroke-miterlimit="10" d="M230.263,145.257
	c0,4.329,3.51,7.838,7.837,7.838h36.576c4.329,0,7.838-3.509,7.838-7.838V123.05c0-4.328-3.509-7.837-7.838-7.837H238.1
	c-4.328,0-7.837,3.51-7.837,7.837V145.257z"/>
<path fill="#FFFFFF" stroke="#FFFFFF" stroke-width="13.0628" stroke-miterlimit="10" d="M199.13,160.934
	c0,4.328-3.149,7.837-7.033,7.837h-54.513c-3.884,0-7.034-3.509-7.034-7.837v-56.824c0-4.329,3.149-7.838,7.034-7.838h54.513
	c3.884,0,7.033,3.509,7.033,7.838V160.934z"/>
<g>
	<path fill="#FFFFFF" d="M210.021,201.599c-4.629,7.951-9.258,15.903-13.887,23.854c-3.251,5.584,5.393,10.616,8.635,5.047
		c4.629-7.951,9.258-15.903,13.887-23.854C221.907,201.061,213.263,196.03,210.021,201.599L210.021,201.599z"/>
</g>
<g>
	<path fill="#FFFFFF" d="M238.263,153.294c-4.629,7.951-9.258,15.903-13.887,23.854c-3.251,5.584,5.393,10.616,8.635,5.047
		c4.629-7.951,9.258-15.903,13.887-23.854C250.148,152.756,241.504,147.725,238.263,153.294L238.263,153.294z"/>
</g>
<g>
	<g>
		<path fill="#FFFFFF" d="M168.021,220.463c-4.629,7.951-9.258,15.903-13.887,23.854c-3.251,5.584,5.393,10.616,8.635,5.047
			c4.629-7.951,9.258-15.903,13.887-23.854C179.907,219.925,171.263,214.894,168.021,220.463L168.021,220.463z"/>
	</g>
	<g>
		<path fill="#FFFFFF" d="M196.262,172.158c-4.629,7.951-9.258,15.903-13.887,23.854c-3.251,5.584,5.393,10.616,8.635,5.047
			c4.629-7.951,9.258-15.903,13.887-23.854C208.148,171.621,199.504,166.589,196.262,172.158L196.262,172.158z"/>
	</g>
	<g>
		<path fill="#FFFFFF" d="M224.504,123.854c-4.629,7.951-9.258,15.903-13.887,23.854c-3.251,5.584,5.393,10.616,8.635,5.047
			c4.629-7.951,9.258-15.903,13.887-23.854C236.39,123.316,227.746,118.285,224.504,123.854L224.504,123.854z"/>
	</g>
</g>
<g>
	<path fill="#FFFFFF" d="M131.78,233.903c-2.902,4.984-5.803,9.969-8.705,14.954c-3.251,5.584,5.393,10.616,8.635,5.047
		c2.902-4.984,5.803-9.969,8.705-14.954C143.666,233.366,135.021,228.334,131.78,233.903L131.78,233.903z"/>
</g>
<g>
	<path fill="#FFFFFF" d="M160.021,185.599c-4.629,7.951-9.258,15.903-13.887,23.854c-3.251,5.584,5.393,10.616,8.635,5.047
		c4.629-7.951,9.258-15.903,13.887-23.854C171.907,185.061,163.263,180.03,160.021,185.599L160.021,185.599z"/>
</g>
<g>
	<path fill="#FFFFFF" d="M188.263,137.294c-4.629,7.951-9.258,15.903-13.887,23.854c-3.251,5.584,5.393,10.616,8.635,5.047
		c4.629-7.951,9.258-15.903,13.887-23.854C200.148,136.756,191.504,131.725,188.263,137.294L188.263,137.294z"/>
</g>
<g>
	<path fill="#FFFFFF" d="M120.836,197.599c-4.629,7.951-9.258,15.903-13.887,23.854c-3.251,5.584,5.393,10.616,8.635,5.047
		c4.629-7.951,9.258-15.903,13.887-23.854C132.722,197.061,124.078,192.03,120.836,197.599L120.836,197.599z"/>
</g>
<g>
	<path fill="#FFFFFF" d="M149.078,149.294c-4.629,7.951-9.258,15.903-13.887,23.854c-3.251,5.584,5.393,10.616,8.635,5.047
		c4.629-7.951,9.258-15.903,13.887-23.854C160.963,148.756,152.319,143.725,149.078,149.294L149.078,149.294z"/>
</g>
</svg>
