<?xml version="1.0" encoding="iso-8859-1"?>
<!-- Generator: Adobe Illustrator 16.0.0, SVG Export Plug-In . SVG Version: 6.00 Build 0)  -->
<!DOCTYPE svg PUBLIC "-//W3C//DTD SVG 1.1//EN" "http://www.w3.org/Graphics/SVG/1.1/DTD/svg11.dtd">
<svg version="1.1" xmlns="http://www.w3.org/2000/svg" xmlns:xlink="http://www.w3.org/1999/xlink" x="0px" y="0px" width="361px"
	 height="361px" viewBox="0 0 361 361" style="enable-background:new 0 0 361 361;" xml:space="preserve">
<g id="weather_x5F_baraometric_x5F_pressure">
	<g style="display:none;">
		<g style="display:inline;">
			<g>
				<path style="fill:#FFFFFF;" d="M257.359,144.168c10.192,0,20.386,0,30.578,0c4.514,0,4.514-7,0-7c-10.192,0-20.386,0-30.578,0
					C252.846,137.168,252.846,144.168,257.359,144.168L257.359,144.168z"/>
			</g>
		</g>
		<g style="display:inline;">
			<g>
				<path style="fill:#FFFFFF;" d="M257.359,163.979c10.192,0,20.386,0,30.578,0c4.514,0,4.514-7,0-7c-10.192,0-20.386,0-30.578,0
					C252.846,156.979,252.846,163.979,257.359,163.979L257.359,163.979z"/>
			</g>
		</g>
		<g style="display:inline;">
			<g>
				<path style="fill:#FFFFFF;" d="M257.359,183.791c10.192,0,20.386,0,30.578,0c4.514,0,4.514-7,0-7c-10.192,0-20.386,0-30.578,0
					C252.846,176.791,252.846,183.791,257.359,183.791L257.359,183.791z"/>
			</g>
		</g>
		<g style="display:inline;">
			<g>
				<path style="fill:#FFFFFF;" d="M257.359,203.603c10.192,0,20.386,0,30.578,0c4.514,0,4.514-7,0-7c-10.192,0-20.386,0-30.578,0
					C252.846,196.603,252.846,203.603,257.359,203.603L257.359,203.603z"/>
			</g>
		</g>
		<g style="display:inline;">
			<g>
				<path style="fill:#FFFFFF;" d="M257.359,223.414c10.192,0,20.386,0,30.578,0c4.514,0,4.514-7,0-7c-10.192,0-20.386,0-30.578,0
					C252.846,216.414,252.846,223.414,257.359,223.414L257.359,223.414z"/>
			</g>
		</g>
		<g style="display:inline;">
			<g>
				<path style="fill:#FFFFFF;" d="M257.359,243.226c10.192,0,20.386,0,30.578,0c4.514,0,4.514-7,0-7c-10.192,0-20.386,0-30.578,0
					C252.846,236.226,252.846,243.226,257.359,243.226L257.359,243.226z"/>
			</g>
		</g>
	</g>
	<g>
		<path style="fill:#FFFFFF;" d="M193.513,291.667v-45.12l8.94-1.439v15.119c0.6-0.199,1.369-0.39,2.31-0.569
			c0.938-0.181,1.85-0.271,2.729-0.271c2.56,0,4.689,0.352,6.391,1.051c1.699,0.699,3.06,1.689,4.08,2.97
			c1.02,1.28,1.74,2.8,2.16,4.56c0.42,1.761,0.629,3.721,0.629,5.881v17.819h-8.939v-16.74c0-2.88-0.37-4.92-1.109-6.12
			c-0.741-1.199-2.111-1.8-4.111-1.8c-0.8,0-1.55,0.07-2.25,0.21c-0.699,0.141-1.33,0.291-1.889,0.45v24H193.513z"/>
		<path style="fill:#FFFFFF;" d="M241.932,249.607c6.199,0,10.959,1.09,14.28,3.27c3.319,2.181,4.979,5.75,4.979,10.71
			c0,5.001-1.68,8.61-5.039,10.83c-3.36,2.22-8.16,3.33-14.4,3.33h-2.939v13.92h-9.361v-40.979c2.041-0.4,4.201-0.68,6.48-0.84
			C238.212,249.688,240.211,249.607,241.932,249.607z M242.531,257.587c-0.68,0-1.35,0.021-2.01,0.06
			c-0.66,0.041-1.229,0.081-1.709,0.121v12h2.939c3.24,0,5.68-0.44,7.32-1.32c1.639-0.88,2.459-2.521,2.459-4.92
			c0-1.16-0.209-2.12-0.629-2.881c-0.42-0.759-1.021-1.369-1.801-1.83c-0.779-0.459-1.73-0.779-2.85-0.959
			C245.131,257.677,243.891,257.587,242.531,257.587z"/>
		<path style="fill:#FFFFFF;" d="M277.633,259.268c2.64,0,4.839,0.299,6.6,0.899c1.76,0.601,3.17,1.46,4.23,2.58
			c1.059,1.12,1.809,2.48,2.25,4.08c0.439,1.601,0.659,3.38,0.659,5.34v18.601c-1.28,0.279-3.06,0.609-5.34,0.989
			s-5.04,0.57-8.28,0.57c-2.039,0-3.891-0.181-5.55-0.54c-1.66-0.36-3.09-0.949-4.29-1.77c-1.199-0.82-2.121-1.891-2.76-3.211
			c-0.641-1.32-0.96-2.939-0.96-4.859c0-1.84,0.369-3.399,1.11-4.68c0.739-1.28,1.729-2.301,2.97-3.061
			c1.239-0.76,2.659-1.31,4.26-1.65c1.6-0.339,3.26-0.51,4.979-0.51c1.16,0,2.19,0.051,3.09,0.15c0.9,0.1,1.63,0.23,2.191,0.39
			v-0.84c0-1.52-0.461-2.739-1.381-3.66c-0.92-0.919-2.52-1.38-4.8-1.38c-1.521,0-3.021,0.11-4.5,0.33
			c-1.48,0.221-2.761,0.53-3.84,0.93l-1.14-7.199c0.52-0.16,1.17-0.33,1.949-0.511c0.78-0.18,1.629-0.339,2.551-0.479
			c0.919-0.141,1.89-0.26,2.91-0.36C275.563,259.317,276.592,259.268,277.633,259.268z M278.352,285.427
			c0.88,0,1.721-0.02,2.521-0.06c0.8-0.039,1.44-0.1,1.921-0.18v-6.78c-0.361-0.08-0.9-0.159-1.621-0.24
			c-0.72-0.079-1.379-0.12-1.979-0.12c-0.841,0-1.63,0.051-2.37,0.15s-1.391,0.291-1.95,0.57c-0.561,0.279-1,0.659-1.319,1.14
			c-0.321,0.479-0.48,1.079-0.48,1.8c0,1.4,0.47,2.37,1.41,2.91C275.422,285.157,276.711,285.427,278.352,285.427z"/>
	</g>
	<g style="display:none;">
		<g style="display:inline;">
			<g>
				<path style="fill:#FFFFFF;" d="M112.251,82.983c-0.083-0.05-0.166-0.101-0.249-0.15c0.578,1.007,1.156,2.015,1.733,3.022
					c0-3.635,0-7.27,0-10.905c-0.578,1.007-1.156,2.015-1.733,3.022c1.08-0.814,4.577-0.151,5.836-0.151c4.521,0,9.041,0,13.562,0
					c4.606,0,9.213,0,13.82,0c1.395,0,5.386-0.747,6.578,0.151c-0.578-1.007-1.156-2.015-1.733-3.022c0,3.635,0,7.27,0,10.905
					c0.578-1.007,1.156-2.015,1.733-3.022c-1.082,0.813-4.576,0.15-5.837,0.15c-4.521,0-9.041,0-13.562,0
					C125.683,82.983,118.967,82.983,112.251,82.983c-4.514,0-4.514,7,0,7c11.472,0,22.943,0,34.415,0
					c3.687,0,10.398,0.833,10.398-4.546c0-2.987,0-5.974,0-8.96c0-3.788-1.816-5.178-5.516-5.656c-4.266-0.551-8.967,0-13.26,0
					c-7.052,0-14.104,0-21.155,0c-3.687,0-10.398-0.833-10.398,4.546c0,2.987,0,5.974,0,8.96c0,3.789,1.816,5.177,5.515,5.655
					C116.719,90.562,116.663,83.554,112.251,82.983z"/>
			</g>
		</g>
		<g style="display:inline;">
			<g>
				<path style="fill:#FFFFFF;" d="M159.118,84.986c-10.167,13.303-20.334,26.605-30.501,39.908c2.015,0,4.029,0,6.044,0
					c-10.167-13.303-20.334-26.605-30.501-39.908c-1.007,1.755-2.015,3.511-3.022,5.267c20.334,0,40.668,0,61.003,0
					c4.514,0,4.514-7,0-7c-20.334,0-40.668,0-61.003,0c-2.405,0-4.695,3.078-3.022,5.267c10.167,13.302,20.334,26.605,30.501,39.908
					c1.7,2.224,4.344,2.224,6.044,0c10.167-13.303,20.334-26.605,30.501-39.908C167.904,84.931,161.82,81.451,159.118,84.986z"/>
			</g>
		</g>
	</g>
	<g style="display:none;">
		<g style="display:inline;">
			<g>
				<g>
					<path style="fill:#FFFFFF;" d="M180.607,181.002c0,24.649,0,49.299,0,73.949c0,8.627,0,17.255,0,25.882
						c0,1.752-26.797,0.834-28.465,0.834c-15.594,0-31.188,0-46.782,0c-4.287,0-8.573,0-12.86,0c-3.049,0-2.893-1.122-2.893-3.629
						c0-27.756,0-55.512,0-83.267c0-4.59,0-9.18,0-13.77c0-6.449-10-6.449-10,0c0,24.649,0,49.299,0,73.949
						c0,8.627,0,17.255,0,25.882c0,13.736,19.228,10.834,28.073,10.834c15.733,0,31.467,0,47.201,0c6.1,0,12.199,0,18.298,0
						c4.25,0,7.857,0.153,11.883-1.679c8.401-3.824,5.544-20.302,5.544-27.453c0-15.783,0-31.565,0-47.349
						c0-11.395,0-22.79,0-34.185C190.607,174.553,180.607,174.553,180.607,181.002L180.607,181.002z"/>
				</g>
			</g>
			<g>
				<g>
					<path style="fill:#FFFFFF;" d="M133.853,204.556c43.653-3.264,87.306-6.528,130.958-9.792c6.39-0.478,6.437-10.481,0-10
						c-43.652,3.264-87.305,6.528-130.958,9.792C127.463,195.033,127.417,205.037,133.853,204.556L133.853,204.556z"/>
				</g>
			</g>
			<g>
				<g>
					<path style="fill:#FFFFFF;" d="M79.458,182.063c7.804-7.604,16.806-12.15,27.05-15.591c10.134-3.404,18.535,2.391,28.6,2.695
						c10.085,0.306,18.936-6.285,29.118-2.903c10.459,3.475,19.77,8.037,27.731,15.798c1.386,1.351,3.509-0.769,2.121-2.121
						c-7.544-7.354-16.271-12.045-26.13-15.568c-4.661-1.665-8.828-2.773-13.805-1.977c-5.936,0.95-11.629,3.089-17.62,3.708
						c-5.733,0.592-11.612-2.025-17.099-3.334c-4.9-1.169-8.975-0.741-13.714,0.809c-10.709,3.501-20.255,8.451-28.374,16.363
						C75.949,181.293,78.072,183.413,79.458,182.063L79.458,182.063z"/>
				</g>
			</g>
		</g>
		<g style="display:inline;">
			<g>
				<path style="fill:#FFFFFF;" d="M133.59,167.667c0.211,10.369,0.423,20.739,0.634,31.108c0.04,1.932,3.04,1.936,3,0
					c-0.211-10.369-0.423-20.739-0.634-31.108C136.551,165.735,133.551,165.732,133.59,167.667L133.59,167.667z"/>
			</g>
		</g>
	</g>
	<g>
		<g>
			<g>
				<path style="fill:#FFFFFF;" d="M212.824,147.008c-35.26,35.259-70.519,70.519-105.778,105.779
					c-4.928,4.928-9.855,9.855-14.783,14.783c-1.369,1.369,0.752,3.49,2.121,2.121c35.26-35.26,70.519-70.52,105.778-105.779
					c4.928-4.928,9.855-9.855,14.783-14.783C216.314,147.76,214.193,145.639,212.824,147.008L212.824,147.008z"/>
			</g>
		</g>
		<g>
			<g>
				<path style="fill:#FFFFFF;" d="M213.768,143.236c-7.541,7.676-14.125,16.245-18.269,26.233
					c-2.463,5.938-3.563,13.415,1.042,18.572c3.012,3.374,7.945-1.594,4.949-4.949c-3.273-3.667,0.328-11.016,2.04-14.561
					c3.694-7.654,9.271-14.322,15.187-20.344C221.882,144.965,216.935,140.012,213.768,143.236L213.768,143.236z"/>
			</g>
		</g>
		<g>
			<g>
				<path style="fill:#FFFFFF;" d="M213.768,143.236c-6.096,5.988-12.729,11.265-20.345,15.188c-3.474,1.79-10.946,5.267-14.56,2.04
					c-3.355-2.996-8.324,1.938-4.95,4.95c5.263,4.699,12.515,3.336,18.572,1.041c9.989-3.785,18.695-10.863,26.232-18.268
					C221.941,145.019,216.988,140.072,213.768,143.236L213.768,143.236z"/>
			</g>
		</g>
		<g>
			<g>
				<path style="fill:#FFFFFF;" d="M75.999,271.105c4.35-4.013,10.5-4.013,14.849,0c3.312,3.056,8.274-1.883,4.95-4.949
					c-7.212-6.654-17.537-6.653-24.75,0C67.725,269.223,72.688,274.16,75.999,271.105L75.999,271.105z"/>
				<path style="fill:#FFFFFF;" d="M95.798,290.904c6.652-7.212,6.653-17.536,0-24.748c-3.067-3.324-8.005,1.638-4.95,4.949
					c4.013,4.35,4.012,10.5,0,14.85C87.794,289.267,92.732,294.229,95.798,290.904L95.798,290.904z"/>
			</g>
		</g>
		<path style="fill:#FFFFFF;stroke:#FFFFFF;stroke-miterlimit:10;" d="M148.951,222.195c-2.214,2.214-5.803,2.214-8.018,0
			l-1.175-1.175c-2.214-2.214-2.214-5.804,0-8.018l1.528-1.528c2.214-2.215,5.804-2.215,8.018,0l1.175,1.175
			c2.214,2.214,2.214,5.804,0,8.018L148.951,222.195z"/>
	</g>
	<g>
		<g>
			<path style="fill:#FFFFFF;" d="M223.227,99.384c-4.922,7.027-9.844,14.055-14.767,21.083c-0.974,1.402,1.396,3.105,2.411,1.732
				c5.078-6.915,10.155-13.831,15.233-20.746C227.133,100.064,224.214,97.964,223.227,99.384L223.227,99.384z"/>
		</g>
		<g>
			<path style="fill:#FFFFFF;" d="M243.126,115.921c-3.93,4.018-7.859,8.036-11.79,12.055c-1.188,1.225,1.01,3.423,2.235,2.234
				c4.019-3.93,8.036-7.859,12.055-11.789C246.867,117.217,244.33,114.68,243.126,115.921L243.126,115.921z"/>
		</g>
		<g>
			<path style="fill:#FFFFFF;" d="M233.518,107.254c-3.59,4.325-7.178,8.65-10.768,12.976c-1.085,1.318,1.285,3.332,2.408,2.047
				c3.686-4.243,7.371-8.488,11.055-12.732C237.352,108.245,234.617,105.92,233.518,107.254L233.518,107.254z"/>
		</g>
		<g>
			<path style="fill:#FFFFFF;" d="M260.093,135.442c-6.915,5.077-13.831,10.156-20.746,15.233c-1.372,1.016,0.331,3.384,1.733,2.412
				c7.027-4.923,14.055-9.845,21.082-14.769C263.582,137.333,261.482,134.413,260.093,135.442L260.093,135.442z"/>
		</g>
		<g>
			<path style="fill:#FFFFFF;" d="M267.354,146.199c-4.788,2.946-9.576,5.893-14.363,8.837c-1.451,0.9,0.16,3.578,1.639,2.723
				c4.852-2.838,9.705-5.677,14.558-8.515C270.683,148.377,268.823,145.287,267.354,146.199L267.354,146.199z"/>
		</g>
		<g>
			<path style="fill:#FFFFFF;" d="M287.092,194.715c-5.487,1.227-10.975,2.453-16.461,3.682c-1.665,0.377-1.002,3.528,0.673,3.203
				c5.515-1.1,11.028-2.201,16.542-3.301C289.544,197.965,288.779,194.328,287.092,194.715L287.092,194.715z"/>
		</g>
		<g>
			<path style="fill:#FFFFFF;" d="M283.652,181.861c-8.189,2.567-16.38,5.137-24.568,7.704c-1.627,0.517-0.768,3.372,0.875,2.907
				c8.246-2.381,16.492-4.762,24.736-7.142C286.359,184.855,285.301,181.335,283.652,181.861L283.652,181.861z"/>
		</g>
		<g>
			<path style="fill:#FFFFFF;" d="M252,125.333c-4.244,3.685-8.487,7.37-12.732,11.055c-1.284,1.124,0.73,3.494,2.048,2.41
				c4.325-3.59,8.65-7.179,12.977-10.77C255.626,126.93,253.301,124.194,252,125.333L252,125.333z"/>
		</g>
		<g>
			<path style="fill:#FFFFFF;" d="M273.732,157.554c-5.013,2.543-10.026,5.087-15.041,7.631c-1.52,0.777-0.127,3.591,1.415,2.861
				c5.07-2.431,10.141-4.86,15.212-7.291C276.879,160.012,275.271,156.765,273.732,157.554L273.732,157.554z"/>
		</g>
		<g>
			<path style="fill:#FFFFFF;" d="M279.183,169.458c-5.207,2.123-10.413,4.244-15.62,6.367c-1.578,0.649-0.418,3.587,1.18,2.987
				c5.254-2.004,10.508-4.007,15.761-6.011C282.121,172.189,280.781,168.797,279.183,169.458L279.183,169.458z"/>
		</g>
		<g>
			<path style="fill:#FFFFFF;" d="M289.452,207.967c-5.571,0.758-11.142,1.516-16.712,2.273c-1.69,0.235-1.295,3.476,0.402,3.294
				c5.587-0.627,11.174-1.254,16.76-1.882C291.623,211.464,291.165,207.725,289.452,207.967L289.452,207.967z"/>
		</g>
		<g>
			<path style="fill:#FFFFFF;" d="M290.74,235.479c-8.573-0.332-17.145-0.662-25.718-0.992c-1.705-0.062-1.866,3.104-0.165,3.222
				c8.563,0.539,17.124,1.078,25.687,1.616C292.271,239.437,292.471,235.534,290.74,235.479L290.74,235.479z"/>
		</g>
		<g>
			<path style="fill:#FFFFFF;" d="M290.686,221.572c-5.615,0.275-11.229,0.552-16.844,0.828c-1.704,0.089-1.586,3.404,0.119,3.371
				c5.62-0.143,11.238-0.285,16.858-0.427C292.549,225.306,292.412,221.477,290.686,221.572L290.686,221.572z"/>
		</g>
		<g>
			<path style="fill:#FFFFFF;" d="M122.222,71.003c0.539,8.562,1.077,17.124,1.615,25.686c0.118,1.701,3.284,1.54,3.223-0.166
				c-0.331-8.572-0.662-17.145-0.992-25.717C126.012,69.077,122.109,69.276,122.222,71.003L122.222,71.003z"/>
		</g>
		<g>
			<path style="fill:#FFFFFF;" d="M136.202,70.728c-0.143,5.62-0.285,11.238-0.427,16.858c-0.034,1.705,3.283,1.823,3.372,0.12
				c0.276-5.615,0.552-11.229,0.827-16.843C140.069,69.133,136.241,68.997,136.202,70.728L136.202,70.728z"/>
		</g>
		<g>
			<path style="fill:#FFFFFF;" d="M188.746,81.043c-2.004,5.254-4.007,10.508-6.01,15.761c-0.602,1.598,2.336,2.759,2.986,1.181
				c2.121-5.208,4.244-10.414,6.366-15.621C192.749,80.765,189.357,79.424,188.746,81.043L188.746,81.043z"/>
		</g>
		<g>
			<path style="fill:#FFFFFF;" d="M176.216,76.85c-2.381,8.245-4.761,16.492-7.142,24.737c-0.465,1.643,2.391,2.502,2.907,0.875
				c2.568-8.189,5.137-16.378,7.705-24.568C180.211,76.246,176.689,75.187,176.216,76.85L176.216,76.85z"/>
		</g>
		<g>
			<path style="fill:#FFFFFF;" d="M149.894,71.644c-0.627,5.586-1.254,11.173-1.881,16.76c-0.182,1.696,3.058,2.092,3.293,0.403
				c0.757-5.571,1.516-11.143,2.274-16.713C153.821,70.38,150.082,69.923,149.894,71.644L149.894,71.644z"/>
		</g>
		<g>
			<path style="fill:#FFFFFF;" d="M163.248,73.7c-1.1,5.515-2.201,11.028-3.3,16.543c-0.326,1.674,2.825,2.338,3.204,0.674
				c1.227-5.487,2.455-10.974,3.681-16.461C167.218,72.768,163.582,72.003,163.248,73.7L163.248,73.7z"/>
		</g>
		<g>
			<path style="fill:#FFFFFF;" d="M200.791,86.229c-2.43,5.069-4.86,10.14-7.29,15.21c-0.731,1.542,2.083,2.935,2.86,1.416
				c2.545-5.014,5.088-10.028,7.631-15.042C204.781,86.274,201.533,84.667,200.791,86.229L200.791,86.229z"/>
		</g>
		<g>
			<path style="fill:#FFFFFF;" d="M212.301,92.359c-2.838,4.853-5.676,9.706-8.514,14.559c-0.855,1.477,1.822,3.088,2.723,1.638
				c2.945-4.788,5.893-9.576,8.838-14.364C216.26,92.724,213.168,90.863,212.301,92.359L212.301,92.359z"/>
		</g>
	</g>
</g>
<g id="Ebene_1">
</g>
</svg>
