<?xml version="1.0" encoding="iso-8859-1"?>
<!-- Generator: Adobe Illustrator 16.0.0, SVG Export Plug-In . SVG Version: 6.00 Build 0)  -->
<!DOCTYPE svg PUBLIC "-//W3C//DTD SVG 1.1 Tiny//EN" "http://www.w3.org/Graphics/SVG/1.1/DTD/svg11-tiny.dtd">
<svg version="1.1" baseProfile="tiny" id="weather_x5F_snow_x5F_light"
	 xmlns="http://www.w3.org/2000/svg" xmlns:xlink="http://www.w3.org/1999/xlink" x="0px" y="0px" width="361px" height="361px"
	 viewBox="0 0 361 361" xml:space="preserve">
<g>
	<g>
		<g>
			<path fill="#FFFFFF" d="M104.761,165.201c0,9.449,0,18.898,0,28.347c0,4.514,7,4.514,7,0c0-9.449,0-18.898,0-28.347
				C111.761,160.687,104.761,160.687,104.761,165.201L104.761,165.201z"/>
		</g>
		<g>
			<path fill="#FFFFFF" d="M98.246,171.076c2.755,1.59,5.51,3.181,8.264,4.771c3.917,2.261,7.44-3.789,3.533-6.044
				c-2.755-1.59-5.509-3.181-8.264-4.771C97.862,162.771,94.339,168.821,98.246,171.076L98.246,171.076z"/>
		</g>
		<g>
			<path fill="#FFFFFF" d="M114.648,165.032c-2.754,1.59-5.509,3.181-8.264,4.771c-3.907,2.255-0.383,8.305,3.533,6.044
				c2.755-1.59,5.509-3.181,8.264-4.771C122.088,168.821,118.565,162.771,114.648,165.032L114.648,165.032z"/>
		</g>
	</g>
	<g>
		<g>
			<path fill="#FFFFFF" d="M81.847,182.069c8.183,4.725,16.366,9.449,24.548,14.173c3.917,2.261,7.44-3.789,3.533-6.044
				c-8.183-4.725-16.366-9.449-24.548-14.173C81.464,173.764,77.94,179.814,81.847,182.069L81.847,182.069z"/>
		</g>
		<g>
			<path fill="#FFFFFF" d="M83.727,190.64c2.755-1.59,5.509-3.181,8.264-4.771c3.907-2.255,0.383-8.305-3.533-6.044
				c-2.754,1.59-5.509,3.181-8.264,4.771C76.287,186.851,79.811,192.901,83.727,190.64L83.727,190.64z"/>
		</g>
		<g>
			<path fill="#FFFFFF" d="M86.663,173.412c0,3.181,0,6.362,0,9.542c0,4.514,7,4.514,7,0c0-3.181,0-6.362,0-9.542
				C93.663,168.898,86.663,168.898,86.663,173.412L86.663,173.412z"/>
		</g>
	</g>
	<g>
		<g>
			<path fill="#FFFFFF" d="M85.442,210.396c8.183-4.724,16.366-9.448,24.549-14.173c3.907-2.255,0.383-8.305-3.533-6.044
				c-8.183,4.724-16.366,9.448-24.549,14.173C78.002,206.607,81.526,212.657,85.442,210.396L85.442,210.396z"/>
		</g>
		<g>
			<path fill="#FFFFFF" d="M93.771,213.091c0-3.181,0-6.362,0-9.542c0-4.514-7-4.514-7,0c0,3.181,0,6.362,0,9.542
				C86.771,217.605,93.771,217.605,93.771,213.091L93.771,213.091z"/>
		</g>
		<g>
			<path fill="#FFFFFF" d="M80.303,201.908c2.755,1.59,5.509,3.181,8.264,4.771c3.917,2.261,7.44-3.789,3.533-6.044
				c-2.755-1.59-5.509-3.181-8.264-4.771C79.92,193.603,76.396,199.652,80.303,201.908L80.303,201.908z"/>
		</g>
	</g>
	<g>
		<g>
			<path fill="#FFFFFF" d="M111.729,221.65c0-9.449,0-18.897,0-28.346c0-4.514-7-4.514-7,0c0,9.449,0,18.897,0,28.346
				C104.729,226.164,111.729,226.164,111.729,221.65L111.729,221.65z"/>
		</g>
		<g>
			<path fill="#FFFFFF" d="M118.244,215.774c-2.755-1.59-5.509-3.181-8.264-4.771c-3.917-2.261-7.44,3.789-3.533,6.044
				c2.755,1.59,5.51,3.181,8.264,4.771C118.627,224.08,122.151,218.03,118.244,215.774L118.244,215.774z"/>
		</g>
		<g>
			<path fill="#FFFFFF" d="M101.841,221.818c2.754-1.59,5.509-3.181,8.264-4.771c3.907-2.255,0.383-8.305-3.533-6.044
				c-2.754,1.59-5.509,3.181-8.264,4.771C94.401,218.03,97.925,224.08,101.841,221.818L101.841,221.818z"/>
		</g>
	</g>
	<g>
		<g>
			<path fill="#FFFFFF" d="M134.643,204.565c-8.183-4.725-16.366-9.449-24.549-14.173c-3.917-2.261-7.44,3.789-3.533,6.044
				c8.183,4.725,16.366,9.449,24.549,14.173C135.026,212.87,138.55,206.82,134.643,204.565L134.643,204.565z"/>
		</g>
		<g>
			<path fill="#FFFFFF" d="M132.763,195.995c-2.754,1.59-5.509,3.181-8.264,4.771c-3.907,2.255-0.383,8.305,3.533,6.044
				c2.755-1.59,5.509-3.181,8.264-4.771C140.203,199.784,136.679,193.734,132.763,195.995L132.763,195.995z"/>
		</g>
		<g>
			<path fill="#FFFFFF" d="M129.828,213.223c0-3.181,0-6.362,0-9.542c0-4.514-7-4.514-7,0c0,3.181,0,6.362,0,9.542
				C122.828,217.737,129.828,217.737,129.828,213.223L129.828,213.223z"/>
		</g>
	</g>
	<g>
		<g>
			<path fill="#FFFFFF" d="M131.047,176.238c-8.183,4.724-16.366,9.449-24.549,14.173c-3.907,2.255-0.383,8.305,3.533,6.044
				c8.183-4.724,16.366-9.449,24.549-14.173C138.487,180.027,134.963,173.977,131.047,176.238L131.047,176.238z"/>
		</g>
		<g>
			<path fill="#FFFFFF" d="M122.718,173.543c0,3.181,0,6.362,0,9.542c0,4.514,7,4.514,7,0c0-3.181,0-6.362,0-9.542
				C129.718,169.029,122.718,169.029,122.718,173.543L122.718,173.543z"/>
		</g>
		<g>
			<path fill="#FFFFFF" d="M136.187,184.727c-2.755-1.591-5.509-3.181-8.264-4.771c-3.917-2.261-7.44,3.789-3.533,6.044
				c2.755,1.591,5.51,3.181,8.264,4.771C136.57,193.032,140.093,186.982,136.187,184.727L136.187,184.727z"/>
		</g>
	</g>
</g>
<path fill="#FFFFFF" stroke="#FFFFFF" stroke-width="13.0628" stroke-miterlimit="10" d="M194.132,143.298
	c0,4.328-3.148,7.838-7.033,7.838h-54.512c-3.885,0-7.035-3.51-7.035-7.838V86.475c0-4.329,3.15-7.838,7.035-7.838H187.1
	c3.884,0,7.033,3.509,7.033,7.838V143.298z"/>
<path fill="#FFFFFF" stroke="#FFFFFF" stroke-width="13.0628" stroke-miterlimit="10" d="M90.937,123.703
	c0,4.329,3.509,7.838,7.838,7.838h36.576c4.328,0,7.837-3.509,7.837-7.838v-22.206c0-4.329-3.51-7.838-7.837-7.838H98.774
	c-4.329,0-7.838,3.509-7.838,7.838V123.703z"/>
<path fill="#FFFFFF" stroke="#FFFFFF" stroke-width="13.0628" stroke-miterlimit="10" d="M75.261,123.703
	c0-4.328,3.509-7.837,7.838-7.837h45.067c4.328,0,7.837,3.509,7.837,7.837v12.41c0,4.329-3.51,7.838-7.837,7.838H83.099
	c-4.329,0-7.838-3.509-7.838-7.838V123.703z"/>
<path fill="#FFFFFF" stroke="#FFFFFF" stroke-width="13.0628" stroke-miterlimit="10" d="M246.603,151.136
	c0,4.328-3.149,7.838-7.033,7.838h-54.513c-3.885,0-7.034-3.51-7.034-7.838V94.313c0-4.329,3.149-7.838,7.034-7.838h54.513
	c3.884,0,7.033,3.509,7.033,7.838V151.136z"/>
<path fill="#FFFFFF" stroke="#FFFFFF" stroke-width="13.0628" stroke-miterlimit="10" d="M230.709,144.604
	c0,4.328,3.51,7.838,7.837,7.838h36.576c4.329,0,7.838-3.51,7.838-7.838v-22.208c0-4.328-3.509-7.837-7.838-7.837h-36.576
	c-4.328,0-7.837,3.51-7.837,7.837V144.604z"/>
<path fill="#FFFFFF" stroke="#FFFFFF" stroke-width="13.0628" stroke-miterlimit="10" d="M199.576,160.28
	c0,4.328-3.149,7.837-7.033,7.837H138.03c-3.884,0-7.034-3.509-7.034-7.837v-56.824c0-4.329,3.149-7.838,7.034-7.838h54.513
	c3.884,0,7.033,3.509,7.033,7.838V160.28z"/>
<path fill="#FFFFFF" stroke="#FFFFFF" stroke-width="13.0628" stroke-miterlimit="10" d="M100.545,145.41
	c0-4.328,3.509-7.837,7.838-7.837h45.067c4.328,0,7.837,3.509,7.837,7.837v12.41c0,4.329-3.51,7.838-7.837,7.838h-45.067
	c-4.329,0-7.838-3.509-7.838-7.838V145.41z"/>
<g>
	<g>
		<g>
			<path fill="#FFFFFF" d="M207.829,206.289c-6.681,6.682-13.362,13.363-20.044,20.044c-3.194,3.195,1.755,8.145,4.95,4.95
				c6.681-6.682,13.362-13.363,20.044-20.044C215.973,208.044,211.023,203.095,207.829,206.289L207.829,206.289z"/>
		</g>
		<g>
			<path fill="#FFFFFF" d="M199.079,205.88c0.823,3.072,1.646,6.145,2.47,9.217c1.167,4.356,7.92,2.505,6.75-1.861
				c-0.823-3.072-1.646-6.145-2.47-9.217C204.661,199.663,197.909,201.514,199.079,205.88L199.079,205.88z"/>
		</g>
		<g>
			<path fill="#FFFFFF" d="M214.982,213.173c-3.072-0.823-6.145-1.646-9.217-2.47c-4.367-1.17-6.217,5.583-1.861,6.75
				c3.072,0.823,6.145,1.646,9.217,2.47C217.488,221.093,219.338,214.34,214.982,213.173L214.982,213.173z"/>
		</g>
	</g>
	<g>
		<g>
			<path fill="#FFFFFF" d="M179.709,202.058c2.445,9.126,4.891,18.253,7.336,27.38c1.167,4.356,7.92,2.505,6.75-1.861
				c-2.445-9.126-4.891-18.253-7.336-27.38C185.292,195.841,178.54,197.691,179.709,202.058L179.709,202.058z"/>
		</g>
		<g>
			<path fill="#FFFFFF" d="M174.925,209.394c3.073,0.823,6.145,1.646,9.217,2.47c4.367,1.17,6.217-5.583,1.861-6.75
				c-3.073-0.823-6.145-1.646-9.217-2.47C172.419,201.474,170.569,208.227,174.925,209.394L174.925,209.394z"/>
		</g>
		<g>
			<path fill="#FFFFFF" d="M189.225,199.298c-2.249,2.249-4.499,4.498-6.748,6.747c-3.194,3.194,1.755,8.145,4.95,4.95
				c2.249-2.249,4.499-4.498,6.748-6.747C197.37,201.054,192.42,196.104,189.225,199.298L189.225,199.298z"/>
		</g>
	</g>
	<g>
		<g>
			<path fill="#FFFFFF" d="M162.168,224.576c9.127,2.446,18.254,4.892,27.38,7.337c4.366,1.17,6.217-5.583,1.861-6.75
				c-9.127-2.446-18.254-4.892-27.38-7.337C159.663,216.656,157.812,223.409,162.168,224.576L162.168,224.576z"/>
		</g>
		<g>
			<path fill="#FFFFFF" d="M166.195,232.382c2.249-2.25,4.498-4.499,6.748-6.748c3.194-3.195-1.755-8.145-4.95-4.95
				c-2.249,2.25-4.498,4.499-6.748,6.748C158.051,230.627,163,235.577,166.195,232.382L166.195,232.382z"/>
		</g>
		<g>
			<path fill="#FFFFFF" d="M164.59,214.994c0.823,3.072,1.647,6.145,2.47,9.217c1.167,4.355,7.92,2.505,6.75-1.861
				c-0.823-3.072-1.647-6.145-2.47-9.217C170.172,208.777,163.419,210.628,164.59,214.994L164.59,214.994z"/>
		</g>
	</g>
	<g>
		<g>
			<path fill="#FFFFFF" d="M172.841,251.133c6.681-6.682,13.362-13.363,20.043-20.044c3.194-3.195-1.755-8.145-4.95-4.95
				c-6.681,6.682-13.362,13.363-20.043,20.044C164.697,249.377,169.646,254.327,172.841,251.133L172.841,251.133z"/>
		</g>
		<g>
			<path fill="#FFFFFF" d="M181.591,251.542c-0.823-3.072-1.646-6.145-2.47-9.217c-1.167-4.356-7.92-2.505-6.75,1.861
				c0.823,3.072,1.646,6.145,2.47,9.217C176.008,257.759,182.761,255.908,181.591,251.542L181.591,251.542z"/>
		</g>
		<g>
			<path fill="#FFFFFF" d="M165.687,244.249c3.072,0.823,6.145,1.646,9.217,2.47c4.367,1.17,6.217-5.583,1.861-6.75
				c-3.072-0.823-6.145-1.646-9.217-2.47C163.182,236.329,161.331,243.082,165.687,244.249L165.687,244.249z"/>
		</g>
	</g>
	<g>
		<g>
			<path fill="#FFFFFF" d="M201.113,255.211c-2.446-9.127-4.892-18.254-7.337-27.381c-1.167-4.356-7.92-2.505-6.75,1.861
				c2.446,9.127,4.892,18.254,7.337,27.381C195.531,261.429,202.283,259.578,201.113,255.211L201.113,255.211z"/>
		</g>
		<g>
			<path fill="#FFFFFF" d="M205.897,247.876c-3.073-0.823-6.145-1.647-9.217-2.47c-4.366-1.17-6.217,5.583-1.861,6.75
				c3.073,0.823,6.145,1.647,9.217,2.47C208.402,255.796,210.253,249.043,205.897,247.876L205.897,247.876z"/>
		</g>
		<g>
			<path fill="#FFFFFF" d="M191.598,257.971c2.249-2.25,4.498-4.499,6.747-6.748c3.194-3.195-1.755-8.145-4.95-4.95
				c-2.249,2.25-4.498,4.499-6.747,6.748C183.453,256.216,188.403,261.166,191.598,257.971L191.598,257.971z"/>
		</g>
	</g>
	<g>
		<g>
			<path fill="#FFFFFF" d="M218.654,232.692c-9.127-2.445-18.254-4.891-27.381-7.336c-4.367-1.17-6.217,5.583-1.861,6.75
				c9.127,2.445,18.254,4.891,27.381,7.336C221.16,240.612,223.01,233.859,218.654,232.692L218.654,232.692z"/>
		</g>
		<g>
			<path fill="#FFFFFF" d="M214.627,224.886c-2.249,2.25-4.498,4.499-6.748,6.748c-3.194,3.195,1.755,8.145,4.95,4.95
				c2.249-2.25,4.498-4.499,6.748-6.748C222.772,226.642,217.822,221.692,214.627,224.886L214.627,224.886z"/>
		</g>
		<g>
			<path fill="#FFFFFF" d="M216.232,242.275c-0.823-3.072-1.646-6.145-2.47-9.217c-1.167-4.356-7.92-2.505-6.75,1.861
				c0.823,3.072,1.646,6.145,2.47,9.217C210.649,248.492,217.402,246.642,216.232,242.275L216.232,242.275z"/>
		</g>
	</g>
</g>
</svg>
