<?xml version="1.0" encoding="iso-8859-1"?>
<!-- Generator: Adobe Illustrator 16.0.0, SVG Export Plug-In . SVG Version: 6.00 Build 0)  -->
<!DOCTYPE svg PUBLIC "-//W3C//DTD SVG 1.1 Tiny//EN" "http://www.w3.org/Graphics/SVG/1.1/DTD/svg11-tiny.dtd">
<svg version="1.1" baseProfile="tiny" id="weather_x5F_station_x5F_quadra"
	 xmlns="http://www.w3.org/2000/svg" xmlns:xlink="http://www.w3.org/1999/xlink" x="0px" y="0px" width="361px" height="361px"
	 viewBox="0 0 361 361" xml:space="preserve">
<g>
	<path fill="none" stroke="#FFFFFF" stroke-width="10" stroke-miterlimit="10" d="M267.815,121.98c0,2.245-1.82,4.064-4.064,4.064
		h-23.371c-2.245,0-4.064-1.82-4.064-4.064V98.609c0-2.245,1.82-4.064,4.064-4.064h23.371c2.245,0,4.064,1.82,4.064,4.064V121.98z"
		/>
	<g>
		<path fill="#FFFFFF" d="M213.654,81.206c2.407,2.406,4.813,4.813,7.219,7.219c1.926,1.926,5.145,1.926,7.071,0
			s1.926-5.145,0-7.071c-2.407-2.406-4.813-4.813-7.219-7.219c-1.926-1.926-5.145-1.926-7.071,0S211.728,79.279,213.654,81.206
			L213.654,81.206z"/>
	</g>
	<g>
		<path fill="#FFFFFF" d="M182.815,115.045c11.167,0,22.333,0,33.5,0c6.449,0,6.449-10,0-10c-11.167,0-22.333,0-33.5,0
			C176.366,105.045,176.366,115.045,182.815,115.045L182.815,115.045z"/>
	</g>
	<g>
		<path fill="#FFFFFF" d="M287.225,139.634c-1.99-1.99-3.979-3.979-5.969-5.969c-1.926-1.926-5.145-1.926-7.071,0
			s-1.926,5.145,0,7.071c1.99,1.99,3.979,3.979,5.969,5.969c1.926,1.926,5.145,1.926,7.071,0S289.151,141.56,287.225,139.634
			L287.225,139.634z"/>
	</g>
	<g>
		<path fill="#FFFFFF" d="M256.565,178.795c0-11.167,0-22.333,0-33.5c0-6.449-10-6.449-10,0c0,11.167,0,22.333,0,33.5
			C246.565,185.244,256.565,185.244,256.565,178.795L256.565,178.795z"/>
	</g>
	<g>
		<path fill="#FFFFFF" d="M205.256,164.425c7.896-7.896,15.792-15.792,23.688-23.688c4.563-4.564-2.507-11.635-7.071-7.071
			c-7.896,7.896-15.792,15.792-23.688,23.688C193.622,161.917,200.692,168.988,205.256,164.425L205.256,164.425z"/>
	</g>
</g>
<g>
	<g>
		<path fill="#FFFFFF" d="M139.522,294.379c4.725,0,9.45,0,14.175,0c4.514,0,4.514-7,0-7c-4.725,0-9.45,0-14.175,0
			C135.008,287.379,135.008,294.379,139.522,294.379L139.522,294.379z"/>
	</g>
	<g>
		<g>
			<path fill="#FFFFFF" d="M141.792,226.226c0,21.112,0,42.225,0,63.337c0,6.449,10,6.449,10,0c0-21.112,0-42.225,0-63.337
				C151.792,219.777,141.792,219.777,141.792,226.226L141.792,226.226z"/>
		</g>
		<g>
			<path fill="#FFFFFF" d="M83.768,184.995c1.824,0,3.647,0,5.471,0c1.935,0,1.935-3,0-3c-1.824,0-3.647,0-5.471,0
				C81.833,181.995,81.833,184.995,83.768,184.995L83.768,184.995z"/>
		</g>
		<g>
			<path fill="#FFFFFF" d="M202.183,184.995c1.824,0,3.648,0,5.472,0c1.935,0,1.935-3,0-3c-1.824,0-3.648,0-5.472,0
				C200.248,181.995,200.248,184.995,202.183,184.995L202.183,184.995z"/>
		</g>
		<g>
			<g>
				<path fill="#FFFFFF" d="M216.766,215.04c-0.44,5.095-5.639,4.502-9.258,4.502c-4.693,0-9.387,0-14.08,0
					c-15.059,0-30.117,0-45.176,0c-15.321,0-30.643,0-45.964,0c-5.022,0-10.044,0-15.065,0c-2.358,0-4.874,0.251-7.195-0.283
					c-3.948-0.909-3.287-5.526-3.287-8.486c0-4.007,0-8.014,0-12.021c0-3.777,0.026-7.588,5.063-7.968c0.545-0.041,1.109,0,1.655,0
					c10.087,0,20.174,0,30.26,0c29.546,0,59.092,0,88.638,0c3.568,0,7.6-0.528,11.122,0.283c4.649,1.07,3.287,8.773,3.287,12.133
					C216.766,207.146,216.766,211.093,216.766,215.04c0,4.514,7,4.514,7,0c0-10.401,3.804-31.256-12.224-31.256
					c-8.069,0-16.137,0-24.206,0c-30.24,0-60.479,0-90.719,0c-7.625,0-18.505-1.901-24.198,4.302
					c-4.353,4.742-2.677,14.166-2.677,20.001c0,7.738-0.034,14.581,8.426,17.922c2.344,0.926,5.728,0.533,8.224,0.533
					c4.805,0,9.609,0,14.414,0c15.15,0,30.299,0,45.449,0c16.879,0,33.757,0,50.636,0c9.989,0,25.662,2.553,26.875-11.502
					C224.154,210.54,217.151,210.578,216.766,215.04z"/>
			</g>
			<g>
				<path fill="#FFFFFF" d="M68.648,206.959c13.327,0,26.654,0,39.98,0c1.935,0,1.935-3,0-3c-13.327,0-26.654,0-39.98,0
					C66.714,203.959,66.714,206.959,68.648,206.959L68.648,206.959z"/>
			</g>
			<g>
				<path fill="#FFFFFF" d="M184.727,206.959c13.327,0,26.654,0,39.98,0c1.935,0,1.935-3,0-3c-13.327,0-26.654,0-39.98,0
					C182.792,203.959,182.792,206.959,184.727,206.959L184.727,206.959z"/>
			</g>
			<g>
				<g>
					<g>
						<path fill="#FFFFFF" d="M168.271,205.277c-4.15,2.497-8.301,4.993-12.451,7.49c-1.655,0.996-0.148,3.59,1.514,2.591
							c4.151-2.497,8.301-4.993,12.452-7.49C171.44,206.872,169.934,204.278,168.271,205.277L168.271,205.277z"/>
					</g>
					<g>
						<path fill="#FFFFFF" d="M168.271,199.72c-7.23,4.349-14.46,8.698-21.69,13.047c-1.655,0.996-0.148,3.59,1.514,2.591
							c7.23-4.349,14.461-8.698,21.691-13.047C171.441,201.315,169.934,198.721,168.271,199.72L168.271,199.72z"/>
					</g>
					<g>
						<path fill="#FFFFFF" d="M168.271,194.164c-7.23,4.349-14.46,8.697-21.69,13.046c-1.656,0.996-0.148,3.59,1.514,2.591
							c7.23-4.349,14.461-8.697,21.691-13.046C171.441,195.759,169.934,193.164,168.271,194.164L168.271,194.164z"/>
					</g>
					<g>
						<path fill="#FFFFFF" d="M167.796,210.985c-0.987,0.594-1.975,1.188-2.963,1.782c-1.655,0.996-0.148,3.59,1.515,2.591
							c0.987-0.594,1.975-1.188,2.963-1.782C170.966,212.581,169.459,209.986,167.796,210.985L167.796,210.985z"/>
					</g>
					<g>
						<path fill="#FFFFFF" d="M168.271,188.268c-7.23,4.349-14.46,8.698-21.69,13.046c-1.656,0.996-0.148,3.59,1.514,2.591
							c7.23-4.349,14.461-8.698,21.691-13.046C171.441,189.863,169.934,187.268,168.271,188.268L168.271,188.268z"/>
					</g>
				</g>
				<g>
					<g>
						<path fill="#FFFFFF" d="M124.889,207.868c4.15,2.497,8.302,4.993,12.452,7.49c1.663,1,3.17-1.595,1.515-2.591
							c-4.151-2.497-8.302-4.993-12.453-7.49C124.741,204.278,123.233,206.873,124.889,207.868L124.889,207.868z"/>
					</g>
					<g>
						<path fill="#FFFFFF" d="M124.889,202.311c7.23,4.349,14.461,8.698,21.691,13.047c1.662,1,3.169-1.595,1.514-2.591
							c-7.23-4.349-14.461-8.698-21.691-13.047C124.741,198.721,123.233,201.315,124.889,202.311L124.889,202.311z"/>
					</g>
					<g>
						<path fill="#FFFFFF" d="M124.889,196.754c7.23,4.349,14.461,8.697,21.691,13.046c1.662,1,3.169-1.595,1.514-2.591
							c-7.23-4.349-14.461-8.697-21.691-13.046C124.741,193.164,123.233,195.759,124.889,196.754L124.889,196.754z"/>
					</g>
					<g>
						<path fill="#FFFFFF" d="M125.364,213.576c0.987,0.594,1.975,1.188,2.963,1.782c1.662,1,3.169-1.595,1.514-2.591
							c-0.987-0.594-1.975-1.188-2.963-1.782C125.215,209.986,123.708,212.581,125.364,213.576L125.364,213.576z"/>
					</g>
					<g>
						<path fill="#FFFFFF" d="M124.889,190.858c7.23,4.349,14.461,8.697,21.691,13.046c1.662,1,3.169-1.595,1.514-2.591
							c-7.23-4.349-14.461-8.697-21.691-13.046C124.741,187.268,123.233,189.863,124.889,190.858L124.889,190.858z"/>
					</g>
				</g>
			</g>
			<g>
				<path fill="#FFFFFF" d="M173.804,219.951c-0.78,3.167-13.309,1.591-15.073,1.591c-7.973,0-15.947,0-23.92,0
					c-0.947,0-14.142,1.011-14.142-1.351c0-6.144,0-12.288,0-18.432c0-3.285,0-6.569,0-9.854c0-2.318-0.448-4.083,3.038-4.083
					c5.537,0,11.074,0,16.611,0c7.781,0,15.562,0,23.343,0c3.039,0,10.089-1.322,10.089,2.996c0,9.844,0,19.688,0,29.532
					c0,1.935,3,1.935,3,0c0-5.549,0-11.098,0-16.647c0-5.016,0.948-11.025-0.263-15.939c-0.982-3.985-8.455-2.941-11.388-2.941
					c-7.614,0-15.229,0-22.843,0c-6.012,0-12.023,0-18.035,0c-4.692,0-6.553,2.185-6.553,6.512c0,7.249,0,14.499,0,21.748
					c0,3.938-1.396,10.72,4.312,11.323c9.558,1.009,19.602,0.137,29.201,0.137c5.649,0,11.299,0,16.948,0
					c3.313,0,7.582,0.207,8.567-3.793C177.16,218.87,174.267,218.073,173.804,219.951z"/>
			</g>
		</g>
	</g>
</g>
</svg>
