<?xml version="1.0" encoding="iso-8859-1"?>
<!-- Generator: Adobe Illustrator 16.0.0, SVG Export Plug-In . SVG Version: 6.00 Build 0)  -->
<!DOCTYPE svg PUBLIC "-//W3C//DTD SVG 1.1 Tiny//EN" "http://www.w3.org/Graphics/SVG/1.1/DTD/svg11-tiny.dtd">
<svg version="1.1" baseProfile="tiny" id="weather_x5F_rain"
	 xmlns="http://www.w3.org/2000/svg" xmlns:xlink="http://www.w3.org/1999/xlink" x="0px" y="0px" width="361px" height="361px"
	 viewBox="0 0 361 361" xml:space="preserve">
<path fill="#FFFFFF" stroke="#FFFFFF" stroke-width="13.0628" stroke-miterlimit="10" d="M193.686,143.951
	c0,4.329-3.148,7.838-7.033,7.838h-54.512c-3.885,0-7.035-3.51-7.035-7.838V87.128c0-4.329,3.15-7.838,7.035-7.838h54.512
	c3.884,0,7.033,3.509,7.033,7.838V143.951z"/>
<path fill="#FFFFFF" stroke="#FFFFFF" stroke-width="13.0628" stroke-miterlimit="10" d="M90.49,124.356
	c0,4.329,3.509,7.838,7.838,7.838h36.576c4.328,0,7.837-3.509,7.837-7.838V102.15c0-4.329-3.51-7.838-7.837-7.838H98.328
	c-4.329,0-7.838,3.509-7.838,7.838V124.356z"/>
<path fill="#FFFFFF" stroke="#FFFFFF" stroke-width="13.0628" stroke-miterlimit="10" d="M74.815,124.356
	c0-4.328,3.509-7.837,7.838-7.837h45.067c4.328,0,7.837,3.509,7.837,7.837v12.41c0,4.329-3.51,7.838-7.837,7.838H82.653
	c-4.329,0-7.838-3.509-7.838-7.838V124.356z"/>
<g>
	<path fill="#FFFFFF" d="M171.274,173.833c-5.5,9.526-11,19.052-16.5,28.579c-3.23,5.595,5.412,10.628,8.635,5.047
		c5.5-9.526,11-19.052,16.5-28.579C183.139,173.285,174.497,168.251,171.274,173.833L171.274,173.833z"/>
</g>
<g>
	<path fill="#FFFFFF" d="M167.784,149.878c-5.5,9.526-11,19.052-16.5,28.579c-3.23,5.595,5.412,10.628,8.635,5.047
		c5.5-9.526,11-19.052,16.5-28.579C179.649,149.33,171.006,144.296,167.784,149.878L167.784,149.878z"/>
</g>
<g>
	<path fill="#FFFFFF" d="M141.784,194.911c-5.5,9.526-11,19.053-16.5,28.579c-3.23,5.595,5.412,10.628,8.635,5.047
		c5.5-9.526,11-19.053,16.5-28.579C153.649,194.363,145.006,189.33,141.784,194.911L141.784,194.911z"/>
</g>
<g>
	<path fill="#FFFFFF" d="M145.293,158.833c-5.5,9.526-11,19.053-16.5,28.579c-3.23,5.595,5.413,10.628,8.635,5.047
		c5.5-9.526,11-19.053,16.5-28.579C157.158,158.284,148.515,153.251,145.293,158.833L145.293,158.833z"/>
</g>
<g>
	<path fill="#FFFFFF" d="M141.803,134.878c-5.5,9.526-11,19.053-16.5,28.579c-3.23,5.595,5.412,10.628,8.635,5.047
		c5.5-9.526,11-19.053,16.5-28.579C153.668,134.33,145.025,129.296,141.803,134.878L141.803,134.878z"/>
</g>
<g>
	<path fill="#FFFFFF" d="M115.803,179.911c-5.5,9.526-11,19.053-16.5,28.579c-3.23,5.595,5.413,10.628,8.635,5.047
		c5.5-9.526,11-19.053,16.5-28.579C127.668,179.363,119.025,174.33,115.803,179.911L115.803,179.911z"/>
</g>
<g>
	<path fill="#FFFFFF" d="M119.793,203c-5.5,9.526-11,19.052-16.5,28.579c-3.23,5.595,5.412,10.628,8.635,5.047
		c5.5-9.526,11-19.052,16.5-28.579C131.659,202.452,123.016,197.418,119.793,203L119.793,203z"/>
</g>
<g>
	<path fill="#FFFFFF" d="M146.793,217c-5.5,9.526-11,19.052-16.5,28.579c-3.23,5.595,5.412,10.628,8.635,5.047
		c5.5-9.526,11-19.052,16.5-28.579C158.659,216.452,150.016,211.418,146.793,217L146.793,217z"/>
</g>
<g>
	<path fill="#FFFFFF" d="M227.274,174.833c-5.5,9.526-11,19.052-16.5,28.579c-3.23,5.595,5.412,10.628,8.635,5.047
		c5.5-9.526,11-19.052,16.5-28.579C239.139,174.285,230.497,169.251,227.274,174.833L227.274,174.833z"/>
</g>
<g>
	<path fill="#FFFFFF" d="M223.784,150.878c-5.5,9.526-11,19.052-16.5,28.579c-3.23,5.595,5.412,10.628,8.635,5.047
		c5.5-9.526,11-19.052,16.5-28.579C235.649,150.33,227.006,145.296,223.784,150.878L223.784,150.878z"/>
</g>
<g>
	<path fill="#FFFFFF" d="M197.784,195.911c-5.5,9.526-11,19.053-16.5,28.579c-3.23,5.595,5.412,10.628,8.635,5.047
		c5.5-9.526,11-19.053,16.5-28.579C209.649,195.363,201.006,190.33,197.784,195.911L197.784,195.911z"/>
</g>
<g>
	<path fill="#FFFFFF" d="M201.293,159.833c-5.5,9.526-11,19.053-16.5,28.579c-3.23,5.595,5.413,10.628,8.635,5.047
		c5.5-9.526,11-19.053,16.5-28.579C213.158,159.284,204.515,154.251,201.293,159.833L201.293,159.833z"/>
</g>
<g>
	<path fill="#FFFFFF" d="M175.793,204c-5.5,9.526-11,19.052-16.5,28.579c-3.23,5.595,5.412,10.628,8.635,5.047
		c5.5-9.526,11-19.052,16.5-28.579C187.659,203.452,179.016,198.418,175.793,204L175.793,204z"/>
</g>
<g>
	<path fill="#FFFFFF" d="M202.793,218c-5.5,9.526-11,19.052-16.5,28.579c-3.23,5.595,5.412,10.628,8.635,5.047
		c5.5-9.526,11-19.052,16.5-28.579C214.659,217.452,206.016,212.418,202.793,218L202.793,218z"/>
</g>
<path fill="#FFFFFF" stroke="#FFFFFF" stroke-width="13.0628" stroke-miterlimit="10" d="M246.156,151.79
	c0,4.328-3.149,7.837-7.033,7.837H184.61c-3.885,0-7.034-3.509-7.034-7.837V94.966c0-4.329,3.149-7.838,7.034-7.838h54.513
	c3.884,0,7.033,3.509,7.033,7.838V151.79z"/>
<path fill="#FFFFFF" stroke="#FFFFFF" stroke-width="13.0628" stroke-miterlimit="10" d="M230.263,145.257
	c0,4.329,3.51,7.838,7.837,7.838h36.576c4.329,0,7.838-3.509,7.838-7.838V123.05c0-4.328-3.509-7.837-7.838-7.837H238.1
	c-4.328,0-7.837,3.51-7.837,7.837V145.257z"/>
<path fill="#FFFFFF" stroke="#FFFFFF" stroke-width="13.0628" stroke-miterlimit="10" d="M199.13,160.934
	c0,4.328-3.149,7.837-7.033,7.837h-54.513c-3.884,0-7.034-3.509-7.034-7.837v-56.824c0-4.329,3.149-7.838,7.034-7.838h54.513
	c3.884,0,7.033,3.509,7.033,7.838V160.934z"/>
</svg>
