<?xml version="1.0" encoding="iso-8859-1"?>
<!-- Generator: Adobe Illustrator 16.0.0, SVG Export Plug-In . SVG Version: 6.00 Build 0)  -->
<!DOCTYPE svg PUBLIC "-//W3C//DTD SVG 1.1//EN" "http://www.w3.org/Graphics/SVG/1.1/DTD/svg11.dtd">
<svg version="1.1" xmlns="http://www.w3.org/2000/svg" xmlns:xlink="http://www.w3.org/1999/xlink" x="0px" y="0px" width="361px"
	 height="361px" viewBox="0 0 361 361" style="enable-background:new 0 0 361 361;" xml:space="preserve">
<g id="weather_x5F_directions">
	<g>
		<g>
			<g>
				<path style="fill:#FFFFFF;" d="M191.66,103.333c-2.145-3.808-4.465-7.567-6.961-11.28c-2.496-3.712-5.152-7.216-7.968-10.512
					v21.792h-7.392V70.069h6.096c1.056,1.056,2.224,2.352,3.504,3.888c1.28,1.536,2.584,3.176,3.912,4.92
					c1.328,1.745,2.647,3.552,3.96,5.424c1.312,1.872,2.544,3.672,3.696,5.4V70.069h7.439v33.264H191.66z"/>
			</g>
			<g>
				<path style="fill:#FFFFFF;" d="M183.078,285.955c1.057,0,1.928-0.088,2.616-0.264s1.239-0.416,1.656-0.721
					c0.415-0.303,0.704-0.664,0.864-1.08c0.159-0.415,0.24-0.879,0.24-1.392c0-1.087-0.513-1.992-1.537-2.712
					c-1.023-0.721-2.783-1.496-5.279-2.328c-1.088-0.384-2.177-0.824-3.264-1.32c-1.088-0.496-2.064-1.119-2.928-1.871
					c-0.864-0.752-1.568-1.664-2.112-2.736c-0.544-1.072-0.816-2.377-0.816-3.912c0-1.536,0.288-2.92,0.864-4.152
					c0.576-1.231,1.392-2.279,2.448-3.145c1.056-0.863,2.335-1.527,3.84-1.991c1.503-0.464,3.2-0.696,5.087-0.696
					c2.24,0,4.177,0.24,5.809,0.721c1.633,0.479,2.977,1.008,4.032,1.584l-2.16,5.903c-0.929-0.479-1.96-0.903-3.097-1.272
					c-1.136-0.367-2.504-0.551-4.104-0.551c-1.793,0-3.08,0.248-3.863,0.744c-0.785,0.496-1.176,1.256-1.176,2.279
					c0,0.608,0.144,1.121,0.432,1.536c0.288,0.416,0.696,0.792,1.224,1.128s1.136,0.641,1.824,0.912
					c0.688,0.271,1.447,0.552,2.28,0.84c1.728,0.641,3.231,1.271,4.512,1.896c1.279,0.623,2.344,1.352,3.191,2.184
					s1.48,1.809,1.896,2.928c0.416,1.121,0.624,2.48,0.624,4.08c0,3.104-1.089,5.513-3.265,7.225s-5.455,2.567-9.84,2.567
					c-1.472,0-2.8-0.089-3.983-0.264c-1.185-0.177-2.232-0.393-3.144-0.648c-0.912-0.255-1.697-0.528-2.352-0.815
					c-0.656-0.289-1.208-0.561-1.656-0.816l2.112-5.952c0.991,0.545,2.215,1.032,3.672,1.464
					C179.182,285.738,180.966,285.955,183.078,285.955z"/>
			</g>
			<g>
				<path style="fill:#FFFFFF;" d="M96.027,167.622c0.383,1.313,0.806,2.792,1.27,4.44c0.463,1.648,0.958,3.353,1.486,5.112
					c0.526,1.76,1.062,3.521,1.605,5.28c0.543,1.761,1.07,3.393,1.582,4.896c0.417-1.633,0.844-3.408,1.278-5.328
					c0.434-1.92,0.844-3.904,1.229-5.952c0.386-2.047,0.764-4.087,1.133-6.12c0.37-2.032,0.716-3.992,1.038-5.88h7.778
					c-1.126,5.568-2.422,11.216-3.887,16.944c-1.464,5.729-3.05,11.168-4.755,16.32h-6.849c-1.118-3.072-2.205-6.296-3.258-9.672
					c-1.054-3.377-2.092-6.76-3.114-10.153c-1.025,3.393-2.05,6.776-3.076,10.153c-1.025,3.376-2.099,6.6-3.22,9.672h-6.844
					c-1.704-5.152-3.287-10.592-4.749-16.32c-1.462-5.728-2.755-11.376-3.88-16.944h8.112c0.321,1.889,0.675,3.849,1.062,5.88
					c0.385,2.032,0.788,4.072,1.206,6.12c0.417,2.048,0.844,4.032,1.278,5.952s0.877,3.695,1.327,5.328
					c0.577-1.567,1.138-3.232,1.683-4.992c0.544-1.759,1.074-3.52,1.587-5.28c0.513-1.76,0.986-3.456,1.418-5.088
					c0.433-1.632,0.826-3.087,1.178-4.368H96.027z"/>
			</g>
			<g>
				<path style="fill:#FFFFFF;" d="M292.02,180.678c0,2.848-0.424,5.352-1.271,7.512c-0.849,2.16-2.01,3.969-3.48,5.424
					c-1.473,1.457-3.225,2.553-5.256,3.288c-2.033,0.735-4.217,1.104-6.553,1.104c-2.271,0-4.416-0.369-6.432-1.104
					s-3.775-1.831-5.279-3.288c-1.505-1.455-2.688-3.264-3.553-5.424c-0.863-2.16-1.296-4.664-1.296-7.512
					c0-2.848,0.448-5.352,1.345-7.512c0.895-2.16,2.104-3.976,3.623-5.448c1.52-1.471,3.28-2.575,5.28-3.312
					c1.999-0.735,4.104-1.104,6.312-1.104c2.272,0,4.416,0.369,6.433,1.104c2.017,0.737,3.775,1.841,5.28,3.312
					c1.504,1.473,2.688,3.288,3.552,5.448S292.02,177.83,292.02,180.678z M266.627,180.678c0,1.632,0.2,3.104,0.601,4.416
					c0.399,1.313,0.976,2.44,1.728,3.384c0.752,0.944,1.672,1.673,2.76,2.185s2.336,0.768,3.744,0.768
					c1.376,0,2.617-0.256,3.721-0.768s2.031-1.24,2.783-2.185c0.752-0.943,1.328-2.071,1.729-3.384s0.6-2.784,0.6-4.416
					c0-1.632-0.199-3.112-0.6-4.44c-0.4-1.327-0.977-2.463-1.729-3.408c-0.752-0.943-1.68-1.672-2.783-2.184
					c-1.104-0.512-2.345-0.768-3.721-0.768c-1.408,0-2.656,0.264-3.744,0.792s-2.008,1.265-2.76,2.208
					c-0.752,0.944-1.328,2.081-1.728,3.408C266.827,177.614,266.627,179.078,266.627,180.678z"/>
			</g>
		</g>
		<g>
			<g>
				<polygon style="fill:#FFFFFF;" points="174.833,160.042 183.785,121.979 192.167,160.042 				"/>
				<g>
					<path style="fill:#FFFFFF;" d="M176.28,160.441c2.984-12.688,5.968-25.375,8.952-38.063c-0.964,0-1.929,0-2.893,0
						c2.794,12.688,5.588,25.375,8.382,38.063c0.482-0.633,0.964-1.266,1.446-1.899c-5.778,0-11.556,0-17.333,0
						c-1.935,0-1.935,3,0,3c5.778,0,11.555,0,17.333,0c1.014,0,1.654-0.954,1.446-1.899c-2.794-12.688-5.588-25.375-8.382-38.063
						c-0.318-1.448-2.558-1.423-2.893,0c-2.984,12.688-5.968,25.375-8.952,38.063C172.944,161.525,175.837,162.324,176.28,160.441z"
						/>
				</g>
			</g>
			<g>
				<g>
					<path style="fill:#FFFFFF;" d="M239.118,177.189c-10.674-2.415-21.348-4.83-32.021-7.245c0.856,1.125,1.713,2.25,2.569,3.375
						c0-4.834,0.81-10.292-1.102-14.821c-2.332-5.526-11.34-3.998-15.96-3.998c1.125,0.856,2.25,1.713,3.375,2.569
						c-3.035-13.414-6.069-26.827-9.104-40.241c-0.758-3.35-5.992-3.35-6.75,0c-3.035,13.414-6.069,26.828-9.104,40.241
						c1.125-0.856,2.25-1.713,3.375-2.569c-5.112,0-11.876-1.289-15.413,3.29c-2.98,3.857-1.649,10.975-1.649,15.53
						c0.856-1.125,1.713-2.25,2.569-3.375c-10.673,2.415-21.347,4.83-32.02,7.244c-3.35,0.758-3.35,5.992,0,6.75
						c10.673,2.415,21.347,4.829,32.02,7.244c-0.856-1.125-1.713-2.25-2.569-3.375c0,3.867-1.472,11.696,1.102,15.028
						c3.981,5.154,9.991,3.998,15.849,3.998c-1.125-0.856-2.25-1.713-3.375-2.569c3.072,13.078,6.144,26.157,9.215,39.236
						c0.784,3.34,5.978,3.359,6.75,0c3.007-13.079,6.015-26.158,9.021-39.236c-1.125,0.856-2.25,1.713-3.375,2.569
						c4.878,0,11.929,1.328,15.328-3.072c3.141-4.067,1.816-11.128,1.816-15.953c-0.856,1.125-1.713,2.25-2.569,3.375
						c10.674-2.415,21.348-4.83,32.021-7.245c4.402-0.995,2.535-7.744-1.861-6.75c-10.674,2.415-21.348,4.83-32.021,7.245
						c-1.509,0.342-2.569,1.873-2.569,3.375c0,3.512,0,7.022,0,10.534c0,2.603-8.361,1.491-10.145,1.491
						c-1.506,0-3.028,1.062-3.375,2.569c-3.007,13.079-6.015,26.158-9.021,39.236c2.25,0,4.5,0,6.75,0
						c-3.072-13.078-6.144-26.157-9.215-39.236c-0.354-1.508-1.863-2.569-3.375-2.569c-1.41,0-9.951,0.923-9.951-1.182
						c0-3.615,0-7.229,0-10.845c0-1.502-1.061-3.033-2.569-3.375c-10.673-2.414-21.347-4.829-32.02-7.244c0,2.25,0,4.5,0,6.75
						c10.673-2.414,21.347-4.829,32.02-7.244c1.509-0.341,2.569-1.873,2.569-3.375c0-3.446,0-6.891,0-10.337
						c0-2.632,8.13-1.482,10.063-1.482c1.502,0,3.034-1.061,3.375-2.569c3.035-13.414,6.069-26.828,9.104-40.241
						c-2.25,0-4.5,0-6.75,0c3.035,13.414,6.069,26.827,9.104,40.241c0.342,1.509,1.873,2.569,3.375,2.569
						c1.563,0,10.062-0.938,10.062,1.179c0,3.546,0,7.093,0,10.64c0,1.502,1.061,3.034,2.569,3.375
						c10.674,2.415,21.348,4.83,32.021,7.244C241.653,184.934,243.521,178.185,239.118,177.189z"/>
				</g>
			</g>
		</g>
	</g>
</g>
<g id="Ebene_1">
</g>
</svg>
