<?xml version="1.0" encoding="iso-8859-1"?>
<!-- Generator: Adobe Illustrator 16.0.0, SVG Export Plug-In . SVG Version: 6.00 Build 0)  -->
<!DOCTYPE svg PUBLIC "-//W3C//DTD SVG 1.1//EN" "http://www.w3.org/Graphics/SVG/1.1/DTD/svg11.dtd">
<svg version="1.1" xmlns="http://www.w3.org/2000/svg" xmlns:xlink="http://www.w3.org/1999/xlink" x="0px" y="0px" width="361px"
	 height="361px" viewBox="0 0 361 361" style="enable-background:new 0 0 361 361;" xml:space="preserve">
<g id="weather_x5F_snow_x5F_light">
	<g>
		<g>
			<g>
				<g>
					<path style="fill:#FFFFFF;" d="M107.279,162.323c0,9.449,0,18.898,0,28.347c0,4.514,7,4.514,7,0c0-9.449,0-18.898,0-28.347
						C114.279,157.809,107.279,157.809,107.279,162.323L107.279,162.323z"/>
				</g>
			</g>
			<g>
				<g>
					<path style="fill:#FFFFFF;" d="M100.764,168.198c2.755,1.59,5.51,3.181,8.264,4.771c3.917,2.261,7.44-3.789,3.533-6.044
						c-2.755-1.59-5.509-3.181-8.264-4.771C100.38,159.893,96.857,165.943,100.764,168.198L100.764,168.198z"/>
				</g>
			</g>
			<g>
				<g>
					<path style="fill:#FFFFFF;" d="M117.167,162.154c-2.754,1.59-5.509,3.181-8.264,4.771c-3.907,2.255-0.383,8.305,3.533,6.044
						c2.755-1.59,5.509-3.181,8.264-4.771C124.606,165.943,121.083,159.893,117.167,162.154L117.167,162.154z"/>
				</g>
			</g>
		</g>
		<g>
			<g>
				<g>
					<path style="fill:#FFFFFF;" d="M84.365,179.191c8.183,4.725,16.366,9.449,24.548,14.174c3.917,2.261,7.44-3.789,3.533-6.045
						c-8.183-4.725-16.366-9.449-24.548-14.173C83.982,170.886,80.458,176.936,84.365,179.191L84.365,179.191z"/>
				</g>
			</g>
			<g>
				<g>
					<path style="fill:#FFFFFF;" d="M86.245,187.763c2.755-1.591,5.509-3.182,8.264-4.771c3.907-2.256,0.383-8.306-3.533-6.044
						c-2.754,1.59-5.509,3.181-8.264,4.771C78.805,183.974,82.329,190.023,86.245,187.763L86.245,187.763z"/>
				</g>
			</g>
			<g>
				<g>
					<path style="fill:#FFFFFF;" d="M89.181,170.534c0,3.181,0,6.362,0,9.542c0,4.514,7,4.514,7,0c0-3.181,0-6.362,0-9.542
						C96.181,166.02,89.181,166.02,89.181,170.534L89.181,170.534z"/>
				</g>
			</g>
		</g>
		<g>
			<g>
				<g>
					<path style="fill:#FFFFFF;" d="M87.96,207.519c8.183-4.725,16.366-9.449,24.549-14.173c3.907-2.256,0.383-8.306-3.533-6.045
						c-8.183,4.725-16.366,9.449-24.549,14.173C80.521,203.729,84.044,209.779,87.96,207.519L87.96,207.519z"/>
				</g>
			</g>
			<g>
				<g>
					<path style="fill:#FFFFFF;" d="M96.29,210.213c0-3.181,0-6.362,0-9.543c0-4.514-7-4.514-7,0c0,3.181,0,6.362,0,9.543
						C89.29,214.727,96.29,214.727,96.29,210.213L96.29,210.213z"/>
				</g>
			</g>
			<g>
				<g>
					<path style="fill:#FFFFFF;" d="M82.821,199.03c2.755,1.59,5.509,3.18,8.264,4.771c3.917,2.261,7.44-3.789,3.533-6.045
						c-2.755-1.59-5.509-3.18-8.264-4.771C82.438,190.725,78.915,196.774,82.821,199.03L82.821,199.03z"/>
				</g>
			</g>
		</g>
		<g>
			<g>
				<g>
					<path style="fill:#FFFFFF;" d="M114.248,218.771c0-9.448,0-18.897,0-28.346c0-4.514-7-4.514-7,0c0,9.448,0,18.897,0,28.346
						C107.248,223.285,114.248,223.285,114.248,218.771L114.248,218.771z"/>
				</g>
			</g>
			<g>
				<g>
					<path style="fill:#FFFFFF;" d="M120.762,212.896c-2.755-1.59-5.509-3.18-8.264-4.771c-3.917-2.261-7.44,3.789-3.533,6.045
						c2.755,1.59,5.51,3.18,8.264,4.771C121.146,221.201,124.669,215.151,120.762,212.896L120.762,212.896z"/>
				</g>
			</g>
			<g>
				<g>
					<path style="fill:#FFFFFF;" d="M104.359,218.94c2.754-1.591,5.509-3.181,8.264-4.771c3.907-2.256,0.383-8.306-3.533-6.045
						c-2.754,1.591-5.509,3.181-8.264,4.771C96.919,215.151,100.443,221.201,104.359,218.94L104.359,218.94z"/>
				</g>
			</g>
		</g>
		<g>
			<g>
				<g>
					<path style="fill:#FFFFFF;" d="M137.161,201.687c-8.183-4.724-16.366-9.448-24.549-14.173c-3.917-2.261-7.44,3.789-3.533,6.045
						c8.183,4.724,16.366,9.448,24.549,14.173C137.544,209.992,141.068,203.942,137.161,201.687L137.161,201.687z"/>
				</g>
			</g>
			<g>
				<g>
					<path style="fill:#FFFFFF;" d="M135.281,193.116c-2.754,1.591-5.509,3.182-8.264,4.771c-3.907,2.256-0.383,8.306,3.533,6.045
						c2.755-1.591,5.509-3.182,8.264-4.771C142.721,196.905,139.197,190.855,135.281,193.116L135.281,193.116z"/>
				</g>
			</g>
			<g>
				<g>
					<path style="fill:#FFFFFF;" d="M132.346,210.345c0-3.181,0-6.361,0-9.542c0-4.514-7-4.514-7,0c0,3.181,0,6.361,0,9.542
						C125.346,214.858,132.346,214.858,132.346,210.345L132.346,210.345z"/>
				</g>
			</g>
		</g>
		<g>
			<g>
				<g>
					<path style="fill:#FFFFFF;" d="M133.565,173.36c-8.183,4.724-16.366,9.448-24.549,14.173c-3.907,2.256-0.383,8.306,3.533,6.045
						c8.183-4.725,16.366-9.449,24.549-14.174C141.005,177.149,137.481,171.099,133.565,173.36L133.565,173.36z"/>
				</g>
			</g>
			<g>
				<g>
					<path style="fill:#FFFFFF;" d="M125.236,170.666c0,3.181,0,6.362,0,9.542c0,4.514,7,4.514,7,0c0-3.181,0-6.362,0-9.542
						C132.236,166.151,125.236,166.151,125.236,170.666L125.236,170.666z"/>
				</g>
			</g>
			<g>
				<g>
					<path style="fill:#FFFFFF;" d="M138.705,181.849c-2.755-1.59-5.509-3.181-8.264-4.771c-3.917-2.261-7.44,3.789-3.533,6.044
						c2.755,1.59,5.51,3.181,8.264,4.771C139.088,190.154,142.611,184.104,138.705,181.849L138.705,181.849z"/>
				</g>
			</g>
		</g>
	</g>
	<path style="fill:#FFFFFF;stroke:#FFFFFF;stroke-width:13.0628;stroke-miterlimit:10;" d="M196.65,140.42
		c0,4.328-3.148,7.838-7.033,7.838h-54.511c-3.885,0-7.035-3.51-7.035-7.838V83.597c0-4.329,3.15-7.838,7.035-7.838h54.511
		c3.885,0,7.033,3.509,7.033,7.838V140.42z"/>
	<path style="fill:#FFFFFF;stroke:#FFFFFF;stroke-width:13.0628;stroke-miterlimit:10;" d="M93.455,120.825
		c0,4.329,3.509,7.838,7.838,7.838h36.576c4.328,0,7.837-3.509,7.837-7.838V98.619c0-4.329-3.51-7.838-7.837-7.838h-36.576
		c-4.329,0-7.838,3.509-7.838,7.838V120.825z"/>
	<path style="fill:#FFFFFF;stroke:#FFFFFF;stroke-width:13.0628;stroke-miterlimit:10;" d="M77.779,120.825
		c0-4.328,3.509-7.837,7.838-7.837h45.067c4.328,0,7.837,3.509,7.837,7.837v12.41c0,4.329-3.51,7.838-7.837,7.838H85.617
		c-4.329,0-7.838-3.509-7.838-7.838V120.825z"/>
	<path style="fill:#FFFFFF;stroke:#FFFFFF;stroke-width:13.0628;stroke-miterlimit:10;" d="M249.121,148.258
		c0,4.328-3.149,7.838-7.033,7.838h-54.514c-3.885,0-7.034-3.51-7.034-7.838V91.435c0-4.329,3.149-7.838,7.034-7.838h54.514
		c3.884,0,7.033,3.509,7.033,7.838V148.258z"/>
	<path style="fill:#FFFFFF;stroke:#FFFFFF;stroke-width:13.0628;stroke-miterlimit:10;" d="M233.227,141.727
		c0,4.328,3.51,7.838,7.838,7.838h36.576c4.328,0,7.838-3.51,7.838-7.838v-22.208c0-4.328-3.51-7.837-7.838-7.837h-36.576
		c-4.328,0-7.838,3.51-7.838,7.837V141.727z"/>
	<path style="fill:#FFFFFF;stroke:#FFFFFF;stroke-width:13.0628;stroke-miterlimit:10;" d="M202.094,157.402
		c0,4.328-3.148,7.837-7.033,7.837h-54.512c-3.884,0-7.034-3.509-7.034-7.837v-56.824c0-4.329,3.149-7.838,7.034-7.838h54.512
		c3.885,0,7.033,3.509,7.033,7.838V157.402z"/>
	<path style="fill:#FFFFFF;stroke:#FFFFFF;stroke-width:13.0628;stroke-miterlimit:10;" d="M103.063,142.532
		c0-4.328,3.509-7.837,7.838-7.837h45.067c4.328,0,7.837,3.509,7.837,7.837v12.41c0,4.329-3.51,7.838-7.837,7.838h-45.067
		c-4.329,0-7.838-3.509-7.838-7.838V142.532z"/>
	<g>
		<g>
			<g>
				<g>
					<path style="fill:#FFFFFF;" d="M210.348,203.412c-6.682,6.681-13.363,13.362-20.045,20.044
						c-3.195,3.194,1.755,8.144,4.949,4.949c6.682-6.681,13.363-13.362,20.045-20.044
						C218.492,205.167,213.542,200.218,210.348,203.412L210.348,203.412z"/>
				</g>
			</g>
			<g>
				<g>
					<path style="fill:#FFFFFF;" d="M201.597,203.003c0.823,3.072,1.646,6.145,2.47,9.217c1.167,4.355,7.92,2.505,6.75-1.861
						c-0.823-3.072-1.646-6.145-2.47-9.217C207.18,196.786,200.427,198.637,201.597,203.003L201.597,203.003z"/>
				</g>
			</g>
			<g>
				<g>
					<path style="fill:#FFFFFF;" d="M217.501,210.295c-3.072-0.823-6.145-1.646-9.217-2.47c-4.366-1.17-6.217,5.583-1.861,6.75
						c3.072,0.823,6.145,1.646,9.217,2.47C220.006,218.215,221.856,211.462,217.501,210.295L217.501,210.295z"/>
				</g>
			</g>
		</g>
		<g>
			<g>
				<g>
					<path style="fill:#FFFFFF;" d="M182.228,199.181c2.445,9.126,4.892,18.253,7.337,27.38c1.167,4.355,7.92,2.505,6.75-1.861
						c-2.445-9.126-4.892-18.253-7.337-27.38C187.811,192.964,181.058,194.814,182.228,199.181L182.228,199.181z"/>
				</g>
			</g>
			<g>
				<g>
					<path style="fill:#FFFFFF;" d="M177.443,206.516c3.073,0.823,6.145,1.646,9.217,2.47c4.366,1.17,6.217-5.583,1.861-6.75
						c-3.072-0.823-6.146-1.646-9.217-2.47C174.938,198.596,173.087,205.349,177.443,206.516L177.443,206.516z"/>
				</g>
			</g>
			<g>
				<g>
					<path style="fill:#FFFFFF;" d="M191.744,196.421c-2.25,2.249-4.499,4.498-6.748,6.747c-3.195,3.194,1.755,8.144,4.949,4.949
						c2.25-2.249,4.499-4.498,6.748-6.747C199.889,198.176,194.938,193.227,191.744,196.421L191.744,196.421z"/>
				</g>
			</g>
		</g>
		<g>
			<g>
				<g>
					<path style="fill:#FFFFFF;" d="M164.686,221.698c9.127,2.445,18.253,4.892,27.38,7.337c4.366,1.17,6.217-5.583,1.861-6.75
						c-9.127-2.445-18.254-4.892-27.38-7.337C162.181,213.778,160.33,220.531,164.686,221.698L164.686,221.698z"/>
				</g>
			</g>
			<g>
				<g>
					<path style="fill:#FFFFFF;" d="M168.713,229.504c2.249-2.249,4.498-4.498,6.748-6.748c3.194-3.194-1.755-8.145-4.95-4.949
						c-2.249,2.249-4.498,4.498-6.748,6.748C160.569,227.749,165.519,232.699,168.713,229.504L168.713,229.504z"/>
				</g>
			</g>
			<g>
				<g>
					<path style="fill:#FFFFFF;" d="M167.108,212.116c0.823,3.072,1.647,6.145,2.47,9.217c1.167,4.355,7.92,2.505,6.75-1.861
						c-0.823-3.072-1.647-6.145-2.47-9.217C172.69,205.899,165.938,207.75,167.108,212.116L167.108,212.116z"/>
				</g>
			</g>
		</g>
		<g>
			<g>
				<g>
					<path style="fill:#FFFFFF;" d="M175.359,248.254c6.681-6.681,13.362-13.361,20.043-20.043c3.195-3.194-1.755-8.144-4.949-4.949
						c-6.682,6.681-13.363,13.361-20.044,20.043C167.215,246.499,172.165,251.448,175.359,248.254L175.359,248.254z"/>
				</g>
			</g>
			<g>
				<g>
					<path style="fill:#FFFFFF;" d="M184.108,248.663c-0.823-3.072-1.646-6.145-2.47-9.217c-1.167-4.355-7.919-2.505-6.75,1.861
						c0.823,3.072,1.646,6.145,2.47,9.217C178.526,254.88,185.279,253.029,184.108,248.663L184.108,248.663z"/>
				</g>
			</g>
			<g>
				<g>
					<path style="fill:#FFFFFF;" d="M168.205,241.371c3.072,0.823,6.145,1.646,9.217,2.47c4.366,1.17,6.217-5.583,1.861-6.75
						c-3.072-0.823-6.145-1.646-9.217-2.47C165.7,233.451,163.849,240.204,168.205,241.371L168.205,241.371z"/>
				</g>
			</g>
		</g>
		<g>
			<g>
				<g>
					<path style="fill:#FFFFFF;" d="M203.631,252.333c-2.445-9.127-4.892-18.254-7.337-27.381c-1.167-4.355-7.92-2.505-6.75,1.861
						c2.445,9.127,4.892,18.254,7.337,27.381C198.048,258.55,204.801,256.699,203.631,252.333L203.631,252.333z"/>
				</g>
			</g>
			<g>
				<g>
					<path style="fill:#FFFFFF;" d="M208.415,244.998c-3.072-0.823-6.145-1.647-9.217-2.471c-4.366-1.17-6.217,5.582-1.861,6.75
						c3.072,0.823,6.145,1.647,9.217,2.471C210.92,252.918,212.771,246.166,208.415,244.998L208.415,244.998z"/>
				</g>
			</g>
			<g>
				<g>
					<path style="fill:#FFFFFF;" d="M194.115,255.093c2.249-2.249,4.498-4.498,6.747-6.747c3.194-3.194-1.755-8.145-4.949-4.949
						c-2.249,2.249-4.498,4.498-6.747,6.747C185.971,253.338,190.921,258.287,194.115,255.093L194.115,255.093z"/>
				</g>
			</g>
		</g>
		<g>
			<g>
				<g>
					<path style="fill:#FFFFFF;" d="M221.173,229.814c-9.127-2.445-18.254-4.891-27.381-7.336c-4.366-1.17-6.217,5.583-1.861,6.75
						c9.127,2.445,18.254,4.891,27.381,7.336C223.678,237.734,225.528,230.981,221.173,229.814L221.173,229.814z"/>
				</g>
			</g>
			<g>
				<g>
					<path style="fill:#FFFFFF;" d="M217.146,222.009c-2.25,2.249-4.499,4.498-6.748,6.747c-3.195,3.194,1.755,8.144,4.949,4.949
						c2.25-2.249,4.499-4.498,6.748-6.747C225.291,223.764,220.341,218.814,217.146,222.009L217.146,222.009z"/>
				</g>
			</g>
			<g>
				<g>
					<path style="fill:#FFFFFF;" d="M218.75,239.397c-0.823-3.072-1.646-6.145-2.47-9.218c-1.167-4.355-7.92-2.505-6.75,1.861
						c0.823,3.072,1.646,6.145,2.47,9.218C213.167,245.614,219.92,243.764,218.75,239.397L218.75,239.397z"/>
				</g>
			</g>
		</g>
	</g>
</g>
<g id="Ebene_1">
</g>
</svg>
