<?xml version="1.0" encoding="iso-8859-1"?>
<!-- Generator: Adobe Illustrator 16.0.0, SVG Export Plug-In . SVG Version: 6.00 Build 0)  -->
<!DOCTYPE svg PUBLIC "-//W3C//DTD SVG 1.1//EN" "http://www.w3.org/Graphics/SVG/1.1/DTD/svg11.dtd">
<svg version="1.1" xmlns="http://www.w3.org/2000/svg" xmlns:xlink="http://www.w3.org/1999/xlink" x="0px" y="0px" width="361px"
	 height="361px" viewBox="0 0 361 361" style="enable-background:new 0 0 361 361;" xml:space="preserve">
<g id="weather_x5F_directions_x5F_o">
	<g>
		<path style="fill:#FFFFFF;" d="M292.02,180.678c0,2.848-0.424,5.352-1.271,7.512c-0.849,2.16-2.01,3.969-3.48,5.424
			c-1.473,1.457-3.225,2.553-5.256,3.288c-2.033,0.735-4.217,1.104-6.553,1.104c-2.271,0-4.416-0.369-6.432-1.104
			s-3.775-1.831-5.279-3.288c-1.505-1.455-2.688-3.264-3.553-5.424c-0.863-2.16-1.296-4.664-1.296-7.512
			c0-2.848,0.448-5.352,1.345-7.512c0.895-2.16,2.104-3.976,3.623-5.448c1.52-1.471,3.28-2.575,5.28-3.312
			c1.999-0.735,4.104-1.104,6.312-1.104c2.272,0,4.416,0.369,6.433,1.104c2.017,0.737,3.775,1.841,5.28,3.312
			c1.504,1.473,2.688,3.288,3.552,5.448S292.02,177.83,292.02,180.678z M266.627,180.678c0,1.632,0.2,3.104,0.601,4.416
			c0.399,1.313,0.976,2.44,1.728,3.384c0.752,0.944,1.672,1.673,2.76,2.185s2.336,0.768,3.744,0.768
			c1.376,0,2.617-0.256,3.721-0.768s2.031-1.24,2.783-2.185c0.752-0.943,1.328-2.071,1.729-3.384s0.6-2.784,0.6-4.416
			c0-1.632-0.199-3.112-0.6-4.44c-0.4-1.327-0.977-2.463-1.729-3.408c-0.752-0.943-1.68-1.672-2.783-2.184
			c-1.104-0.512-2.345-0.768-3.721-0.768c-1.408,0-2.656,0.264-3.744,0.792s-2.008,1.265-2.76,2.208
			c-0.752,0.944-1.328,2.081-1.728,3.408C266.827,177.614,266.627,179.078,266.627,180.678z"/>
	</g>
	<g>
		<g>
			<polygon style="fill:#FFFFFF;" points="174.833,160.042 183.785,121.979 192.167,160.042 			"/>
			<g>
				<path style="fill:#FFFFFF;" d="M176.28,160.441c2.984-12.688,5.968-25.375,8.952-38.063c-0.964,0-1.929,0-2.893,0
					c2.794,12.688,5.588,25.375,8.382,38.063c0.482-0.633,0.964-1.266,1.446-1.899c-5.778,0-11.556,0-17.333,0c-1.935,0-1.935,3,0,3
					c5.778,0,11.555,0,17.333,0c1.014,0,1.654-0.954,1.446-1.899c-2.794-12.688-5.588-25.375-8.382-38.063
					c-0.318-1.448-2.558-1.423-2.893,0c-2.984,12.688-5.968,25.375-8.952,38.063C172.944,161.525,175.837,162.324,176.28,160.441z"
					/>
			</g>
		</g>
		<g>
			<g>
				<path style="fill:#FFFFFF;" d="M239.118,177.189c-10.674-2.415-21.348-4.83-32.021-7.245c0.856,1.125,1.713,2.25,2.569,3.375
					c0-4.834,0.81-10.292-1.102-14.821c-2.332-5.526-11.34-3.998-15.96-3.998c1.125,0.856,2.25,1.713,3.375,2.569
					c-3.035-13.414-6.069-26.827-9.104-40.241c-0.758-3.35-5.992-3.35-6.75,0c-3.035,13.414-6.069,26.828-9.104,40.241
					c1.125-0.856,2.25-1.713,3.375-2.569c-5.112,0-11.876-1.289-15.413,3.29c-2.98,3.857-1.649,10.975-1.649,15.53
					c0.856-1.125,1.713-2.25,2.569-3.375c-10.673,2.415-21.347,4.83-32.02,7.244c-3.35,0.758-3.35,5.992,0,6.75
					c10.673,2.415,21.347,4.829,32.02,7.244c-0.856-1.125-1.713-2.25-2.569-3.375c0,3.867-1.472,11.696,1.102,15.028
					c3.981,5.154,9.991,3.998,15.849,3.998c-1.125-0.856-2.25-1.713-3.375-2.569c3.072,13.078,6.144,26.157,9.215,39.236
					c0.784,3.34,5.978,3.359,6.75,0c3.007-13.079,6.015-26.158,9.021-39.236c-1.125,0.856-2.25,1.713-3.375,2.569
					c4.878,0,11.929,1.328,15.328-3.072c3.141-4.067,1.816-11.128,1.816-15.953c-0.856,1.125-1.713,2.25-2.569,3.375
					c10.674-2.415,21.348-4.83,32.021-7.245c4.402-0.995,2.535-7.744-1.861-6.75c-10.674,2.415-21.348,4.83-32.021,7.245
					c-1.509,0.342-2.569,1.873-2.569,3.375c0,3.512,0,7.022,0,10.534c0,2.603-8.361,1.491-10.145,1.491
					c-1.506,0-3.028,1.062-3.375,2.569c-3.007,13.079-6.015,26.158-9.021,39.236c2.25,0,4.5,0,6.75,0
					c-3.072-13.078-6.144-26.157-9.215-39.236c-0.354-1.508-1.863-2.569-3.375-2.569c-1.41,0-9.951,0.923-9.951-1.182
					c0-3.615,0-7.229,0-10.845c0-1.502-1.061-3.033-2.569-3.375c-10.673-2.414-21.347-4.829-32.02-7.244c0,2.25,0,4.5,0,6.75
					c10.673-2.414,21.347-4.829,32.02-7.244c1.509-0.341,2.569-1.873,2.569-3.375c0-3.446,0-6.891,0-10.337
					c0-2.632,8.13-1.482,10.063-1.482c1.502,0,3.034-1.061,3.375-2.569c3.035-13.414,6.069-26.828,9.104-40.241
					c-2.25,0-4.5,0-6.75,0c3.035,13.414,6.069,26.827,9.104,40.241c0.342,1.509,1.873,2.569,3.375,2.569
					c1.563,0,10.062-0.938,10.062,1.179c0,3.546,0,7.093,0,10.64c0,1.502,1.061,3.034,2.569,3.375
					c10.674,2.415,21.348,4.83,32.021,7.244C241.653,184.934,243.521,178.185,239.118,177.189z"/>
			</g>
		</g>
	</g>
</g>
<g id="Ebene_1">
</g>
</svg>
