<?xml version="1.0" encoding="iso-8859-1"?>
<!-- Generator: Adobe Illustrator 16.0.0, SVG Export Plug-In . SVG Version: 6.00 Build 0)  -->
<!DOCTYPE svg PUBLIC "-//W3C//DTD SVG 1.1//EN" "http://www.w3.org/Graphics/SVG/1.1/DTD/svg11.dtd">
<svg version="1.1" xmlns="http://www.w3.org/2000/svg" xmlns:xlink="http://www.w3.org/1999/xlink" x="0px" y="0px" width="361px"
	 height="361px" viewBox="0 0 361 361" style="enable-background:new 0 0 361 361;" xml:space="preserve">
<g id="weather_x5F_wind_x5F_speed">
	<g>
		<g>
			<g>
				<path style="fill:#FFFFFF;" d="M262.148,96.03c0,49.764,0,99.527,0,149.291c0,13.782,0,27.563,0,41.346c0,6.448,10,6.448,10,0
					c0-49.764,0-99.527,0-149.291c0-13.782,0-27.564,0-41.346C272.148,89.582,262.148,89.582,262.148,96.03L262.148,96.03z"/>
			</g>
		</g>
		
			<line style="fill:none;stroke:#FFFFFF;stroke-width:10;stroke-miterlimit:10;" x1="75.345" y1="126.976" x2="192.398" y2="75.523"/>
		
			<line style="fill:none;stroke:#FFFFFF;stroke-width:10;stroke-miterlimit:10;" x1="85.563" y1="157.045" x2="210.725" y2="143.917"/>
		<g>
			<polygon style="fill:#FFFFFF;" points="192.398,75.523 257.083,94.843 210.725,143.917 			"/>
			<g>
				<path style="fill:#FFFFFF;" d="M191.069,80.345c21.562,6.44,43.123,12.88,64.685,19.32c-0.735-2.786-1.471-5.571-2.206-8.357
					c-15.453,16.358-30.906,32.716-46.358,49.074c2.785,0.735,5.571,1.471,8.356,2.207c-6.108-22.798-12.218-45.596-18.326-68.394
					c-1.667-6.223-11.314-3.579-9.643,2.658c6.108,22.798,12.218,45.596,18.326,68.394c0.955,3.565,5.765,4.951,8.356,2.207
					c15.453-16.358,30.906-32.716,46.358-49.074c2.606-2.758,1.455-7.264-2.206-8.357c-21.562-6.44-43.123-12.88-64.685-19.32
					C187.533,68.852,184.906,78.504,191.069,80.345z"/>
			</g>
		</g>
		<path style="fill:#FFFFFF;" d="M100.743,152.304c0.902,3.603-1.41,7.288-5.165,8.228l-9.628,2.409
			c-3.753,0.938-7.528-1.223-8.43-4.826l-7.281-29.096c-0.903-3.604,1.41-7.289,5.164-8.228l9.629-2.409
			c3.754-0.938,7.528,1.222,8.431,4.826L100.743,152.304z"/>
		<path style="fill:#FFFFFF;" d="M140.762,145.611c1.11,4.44-1.033,8.802-4.788,9.742l-9.628,2.409
			c-3.753,0.939-7.698-1.899-8.809-6.339l-8.97-35.847c-1.111-4.44,1.032-8.802,4.787-9.742l9.629-2.409
			c3.752-0.939,7.697,1.899,8.808,6.34L140.762,145.611z"/>
		<path style="fill:#FFFFFF;" d="M183.645,138.335c1.395,5.571-0.518,10.853-4.272,11.791l-9.629,2.409
			c-3.754,0.939-7.928-2.817-9.321-8.389l-11.258-44.987c-1.394-5.571,0.519-10.853,4.273-11.791l9.629-2.409
			c3.753-0.938,7.928,2.818,9.322,8.389L183.645,138.335z"/>
	</g>
	<g>
		<path style="fill:#FFFFFF;" d="M80.33,254.736c1.026-1.113,2.086-2.273,3.182-3.479c1.095-1.206,2.156-2.401,3.182-3.585
			s1.993-2.307,2.902-3.375c0.909-1.066,1.69-1.994,2.343-2.783h12.402c-2.474,2.842-4.889,5.554-7.245,8.137
			c-2.357,2.585-4.935,5.25-7.735,7.998c1.4,1.262,2.846,2.771,4.34,4.523c1.493,1.752,2.94,3.564,4.34,5.434
			c1.4,1.871,2.683,3.74,3.85,5.609c1.166,1.87,2.146,3.576,2.94,5.119H92.837c-0.746-1.217-1.596-2.561-2.55-4.035
			c-0.955-1.474-1.968-2.947-3.04-4.42c-1.072-1.473-2.201-2.889-3.389-4.245s-2.365-2.503-3.528-3.438v16.139H69.9v-52.641
			l10.43-1.68V254.736z"/>
		<path style="fill:#FFFFFF;" d="M130.66,258.804c0-3.36-0.432-5.74-1.295-7.14c-0.864-1.4-2.345-2.101-4.445-2.101
			c-0.654,0-1.33,0.035-2.03,0.104c-0.7,0.07-1.377,0.152-2.03,0.246v28.42h-10.43v-35.561c0.886-0.232,1.925-0.479,3.115-0.734
			s2.45-0.49,3.78-0.701c1.33-0.209,2.695-0.373,4.095-0.489s2.776-0.175,4.13-0.175c2.66,0,4.818,0.339,6.475,1.015
			c1.656,0.677,3.021,1.481,4.095,2.415c1.493-1.072,3.208-1.913,5.145-2.52c1.936-0.606,3.721-0.91,5.355-0.91
			c2.94,0,5.355,0.408,7.245,1.225s3.395,1.973,4.515,3.465c1.12,1.494,1.89,3.268,2.31,5.32c0.42,2.055,0.63,4.34,0.63,6.859
			v20.791h-10.43v-19.53c0-3.36-0.432-5.74-1.295-7.14c-0.864-1.4-2.345-2.101-4.445-2.101c-0.56,0-1.342,0.14-2.345,0.42
			c-1.004,0.28-1.832,0.63-2.485,1.05c0.326,1.074,0.536,2.205,0.63,3.396c0.093,1.19,0.14,2.462,0.14,3.815v20.09h-10.43V258.804z"
			/>
		<path style="fill:#FFFFFF;" d="M174.83,291.283h-10.71l23.528-67.76h10.562L174.83,291.283z"/>
		<path style="fill:#FFFFFF;" d="M202.549,278.334v-52.641l10.431-1.68v17.64c0.7-0.233,1.598-0.454,2.694-0.665
			c1.097-0.21,2.158-0.314,3.186-0.314c2.986,0,5.471,0.408,7.455,1.225c1.982,0.816,3.57,1.973,4.76,3.465
			c1.19,1.494,2.03,3.268,2.52,5.32c0.49,2.055,0.736,4.34,0.736,6.859v20.791h-10.431v-19.53c0-3.36-0.433-5.74-1.295-7.14
			c-0.864-1.4-2.462-2.101-4.795-2.101c-0.935,0-1.81,0.082-2.625,0.245c-0.817,0.164-1.552,0.339-2.205,0.525v28H202.549z"/>
	</g>
</g>
<g id="Ebene_1">
</g>
</svg>
