<?xml version="1.0" encoding="iso-8859-1"?>
<!-- Generator: Adobe Illustrator 16.0.0, SVG Export Plug-In . SVG Version: 6.00 Build 0)  -->
<!DOCTYPE svg PUBLIC "-//W3C//DTD SVG 1.1 Tiny//EN" "http://www.w3.org/Graphics/SVG/1.1/DTD/svg11-tiny.dtd">
<svg version="1.1" baseProfile="tiny" id="weather_x5F_rain_x5F_gauge"
	 xmlns="http://www.w3.org/2000/svg" xmlns:xlink="http://www.w3.org/1999/xlink" x="0px" y="0px" width="361px" height="361px"
	 viewBox="0 0 361 361" xml:space="preserve">
<g>
	<path fill="#FFFFFF" stroke="#FFFFFF" stroke-width="13.0628" stroke-miterlimit="10" d="M135.648,125.127
		c0,3.026-2.2,5.479-4.916,5.479H92.628c-2.716,0-4.918-2.454-4.918-5.479V85.406c0-3.025,2.202-5.479,4.918-5.479h38.104
		c2.716,0,4.916,2.453,4.916,5.479V125.127z"/>
	<path fill="#FFFFFF" stroke="#FFFFFF" stroke-width="13.0628" stroke-miterlimit="10" d="M74.697,111.43
		c0,3.026,2.453,5.479,5.479,5.479h25.568c3.025,0,5.479-2.453,5.479-5.479V95.907c0-3.025-2.454-5.479-5.479-5.479H80.175
		c-3.025,0-5.479,2.453-5.479,5.479V111.43z"/>
	<path fill="#FFFFFF" stroke="#FFFFFF" stroke-width="13.0628" stroke-miterlimit="10" d="M73.526,111.43
		c0-3.025,2.453-5.478,5.479-5.478h31.503c3.025,0,5.479,2.453,5.479,5.478v8.675c0,3.026-2.454,5.479-5.479,5.479H79.004
		c-3.025,0-5.479-2.453-5.479-5.479V111.43z"/>
	<g>
		<path fill="#FFFFFF" d="M128.769,140.557c-4.442,7.693-8.884,15.387-13.325,23.08c-2.261,3.917,3.789,7.44,6.044,3.533
			c4.442-7.693,8.884-15.386,13.325-23.08C137.074,140.173,131.024,136.65,128.769,140.557L128.769,140.557z"/>
	</g>
	<g>
		<path fill="#FFFFFF" d="M124.95,123.211c-4.442,7.693-8.883,15.386-13.325,23.08c-2.261,3.917,3.789,7.44,6.044,3.533
			c4.442-7.693,8.883-15.387,13.325-23.08C133.255,122.828,127.206,119.305,124.95,123.211L124.95,123.211z"/>
	</g>
	<g>
		<path fill="#FFFFFF" d="M104.953,157.58c-4.442,7.693-8.884,15.387-13.326,23.08c-2.261,3.917,3.789,7.44,6.044,3.533
			c4.442-7.693,8.884-15.387,13.326-23.08C113.258,157.196,107.208,153.673,104.953,157.58L104.953,157.58z"/>
	</g>
	<g>
		<path fill="#FFFFFF" d="M107.787,128.443c-4.442,7.694-8.884,15.387-13.325,23.081c-2.261,3.917,3.789,7.44,6.044,3.533
			c4.442-7.693,8.884-15.387,13.325-23.081C116.092,128.06,110.042,124.536,107.787,128.443L107.787,128.443z"/>
	</g>
	<g>
		<path fill="#FFFFFF" d="M98.082,118.025c-3.845,6.659-7.689,13.318-11.534,19.978c-3.23,5.595,5.412,10.628,8.635,5.047
			c3.845-6.659,7.689-13.318,11.534-19.978C109.947,117.477,101.304,112.443,98.082,118.025L98.082,118.025z"/>
	</g>
	<g>
		<path fill="#FFFFFF" d="M83.971,145.466c-4.442,7.693-8.883,15.387-13.325,23.08c-2.261,3.917,3.789,7.44,6.044,3.533
			c4.442-7.693,8.883-15.387,13.325-23.08C92.276,145.083,86.226,141.559,83.971,145.466L83.971,145.466z"/>
	</g>
	<g>
		<path fill="#FFFFFF" d="M87.194,164.112c-4.442,7.693-8.884,15.387-13.326,23.08c-2.261,3.917,3.789,7.44,6.044,3.533
			c4.442-7.693,8.884-15.387,13.326-23.08C95.499,163.729,89.449,160.205,87.194,164.112L87.194,164.112z"/>
	</g>
	<g>
		<path fill="#FFFFFF" d="M108.999,175.418c-4.442,7.693-8.884,15.387-13.325,23.08c-2.261,3.917,3.789,7.44,6.044,3.533
			c4.442-7.693,8.884-15.387,13.325-23.08C117.304,175.035,111.254,171.511,108.999,175.418L108.999,175.418z"/>
	</g>
	<g>
		<path fill="#FFFFFF" d="M171.175,122.019c-4.442,7.693-8.883,15.386-13.325,23.08c-2.261,3.917,3.789,7.44,6.044,3.533
			c4.442-7.693,8.883-15.387,13.325-23.08C179.48,121.636,173.43,118.112,171.175,122.019L171.175,122.019z"/>
	</g>
	<g>
		<path fill="#FFFFFF" d="M150.178,158.388c-4.442,7.693-8.884,15.386-13.326,23.079c-2.262,3.917,3.788,7.44,6.044,3.533
			c4.442-7.693,8.884-15.386,13.326-23.079C158.484,158.004,152.434,154.481,150.178,158.388L150.178,158.388z"/>
	</g>
	<g>
		<path fill="#FFFFFF" d="M153.012,129.25c-4.442,7.693-8.883,15.387-13.325,23.08c-2.261,3.917,3.789,7.44,6.044,3.533
			c4.442-7.693,8.883-15.387,13.325-23.08C161.317,128.867,155.267,125.344,153.012,129.25L153.012,129.25z"/>
	</g>
	<g>
		<path fill="#FFFFFF" d="M132.418,164.919c-4.442,7.693-8.884,15.387-13.326,23.08c-2.261,3.917,3.789,7.44,6.044,3.533
			c4.442-7.693,8.884-15.387,13.326-23.08C140.724,164.536,134.674,161.013,132.418,164.919L132.418,164.919z"/>
	</g>
	<path fill="#FFFFFF" stroke="#FFFFFF" stroke-width="13.0628" stroke-miterlimit="10" d="M165.336,130.606
		c0,3.024-2.201,5.478-4.917,5.478h-38.105c-2.716,0-4.917-2.453-4.917-5.478V90.885c0-3.026,2.202-5.479,4.917-5.479h38.105
		c2.715,0,4.917,2.453,4.917,5.479V130.606z"/>
	<path fill="#FFFFFF" stroke="#FFFFFF" stroke-width="13.0628" stroke-miterlimit="10" d="M140.246,126.04
		c0,3.026,2.454,5.479,5.479,5.479h25.568c3.026,0,5.479-2.453,5.479-5.479v-15.523c0-3.025-2.453-5.478-5.479-5.478h-25.568
		c-3.025,0-5.479,2.453-5.479,5.478V126.04z"/>
	<path fill="#FFFFFF" stroke="#FFFFFF" stroke-width="13.0628" stroke-miterlimit="10" d="M139.454,136.998
		c0,3.025-2.202,5.479-4.916,5.479H88.743c-2.715,0-4.917-2.453-4.917-5.479V97.276c0-3.025,2.202-5.479,4.917-5.479h45.795
		c2.714,0,4.916,2.453,4.916,5.479V136.998z"/>
</g>
<g>
	<g>
		<g>
			<path fill="#FFFFFF" d="M260.82,264.598c-6.699,0-13.397,0-20.096,0c-1.935,0-1.935,3,0,3c6.699,0,13.397,0,20.096,0
				C262.754,267.598,262.754,264.598,260.82,264.598L260.82,264.598z"/>
		</g>
		<g>
			<path fill="#FFFFFF" d="M260.82,273.308c-3.729,0-7.459,0-11.188,0c-1.935,0-1.935,3,0,3c3.729,0,7.459,0,11.188,0
				C262.754,276.308,262.754,273.308,260.82,273.308L260.82,273.308z"/>
		</g>
		<g>
			<path fill="#FFFFFF" d="M260.82,282.016c-3.729,0-7.459,0-11.188,0c-1.935,0-1.935,3,0,3c3.729,0,7.459,0,11.188,0
				C262.754,285.016,262.754,282.016,260.82,282.016L260.82,282.016z"/>
		</g>
		<g>
			<g>
				<path fill="#FFFFFF" d="M261.549,221.219c-6.698,0-13.397,0-20.095,0c-1.935,0-1.935,3,0,3c6.698,0,13.397,0,20.095,0
					C263.483,224.219,263.483,221.219,261.549,221.219L261.549,221.219z"/>
			</g>
			<g>
				<path fill="#FFFFFF" d="M261.549,229.927c-3.729,0-7.459,0-11.189,0c-1.935,0-1.935,3,0,3c3.729,0,7.459,0,11.189,0
					C263.483,232.927,263.483,229.927,261.549,229.927L261.549,229.927z"/>
			</g>
			<g>
				<path fill="#FFFFFF" d="M261.549,238.636c-3.729,0-7.459,0-11.189,0c-1.935,0-1.935,3,0,3c3.729,0,7.459,0,11.189,0
					C263.483,241.636,263.483,238.636,261.549,238.636L261.549,238.636z"/>
			</g>
			<g>
				<path fill="#FFFFFF" d="M261.549,247.346c-3.729,0-7.459,0-11.189,0c-1.935,0-1.935,3,0,3c3.729,0,7.459,0,11.189,0
					C263.483,250.346,263.483,247.346,261.549,247.346L261.549,247.346z"/>
			</g>
			<g>
				<path fill="#FFFFFF" d="M261.549,256.055c-3.729,0-7.459,0-11.189,0c-1.935,0-1.935,3,0,3c3.729,0,7.459,0,11.189,0
					C263.483,259.055,263.483,256.055,261.549,256.055L261.549,256.055z"/>
			</g>
		</g>
		<g>
			<g>
				<path fill="#FFFFFF" d="M260.979,178.278c-6.698,0-13.397,0-20.095,0c-1.935,0-1.935,3,0,3c6.698,0,13.397,0,20.095,0
					C262.913,181.278,262.913,178.278,260.979,178.278L260.979,178.278z"/>
			</g>
			<g>
				<path fill="#FFFFFF" d="M260.979,186.987c-3.73,0-7.459,0-11.189,0c-1.935,0-1.935,3,0,3c3.73,0,7.459,0,11.189,0
					C262.913,189.987,262.913,186.987,260.979,186.987L260.979,186.987z"/>
			</g>
			<g>
				<path fill="#FFFFFF" d="M260.979,195.697c-3.73,0-7.459,0-11.189,0c-1.935,0-1.935,3,0,3c3.73,0,7.459,0,11.189,0
					C262.913,198.697,262.913,195.697,260.979,195.697L260.979,195.697z"/>
			</g>
			<g>
				<path fill="#FFFFFF" d="M260.979,204.406c-3.73,0-7.459,0-11.189,0c-1.935,0-1.935,3,0,3c3.73,0,7.459,0,11.189,0
					C262.913,207.406,262.913,204.406,260.979,204.406L260.979,204.406z"/>
			</g>
			<g>
				<path fill="#FFFFFF" d="M260.979,213.115c-3.73,0-7.459,0-11.189,0c-1.935,0-1.935,3,0,3c3.73,0,7.459,0,11.189,0
					C262.913,216.115,262.913,213.115,260.979,213.115L260.979,213.115z"/>
			</g>
		</g>
		<g>
			<g>
				<path fill="#FFFFFF" d="M261.708,134.898c-6.699,0-13.397,0-20.096,0c-1.935,0-1.935,3,0,3c6.699,0,13.397,0,20.096,0
					C263.643,137.898,263.643,134.898,261.708,134.898L261.708,134.898z"/>
			</g>
			<g>
				<path fill="#FFFFFF" d="M261.708,143.608c-3.73,0-7.459,0-11.189,0c-1.935,0-1.935,3,0,3c3.73,0,7.459,0,11.189,0
					C263.643,146.608,263.643,143.608,261.708,143.608L261.708,143.608z"/>
			</g>
			<g>
				<path fill="#FFFFFF" d="M261.708,152.317c-3.73,0-7.459,0-11.189,0c-1.935,0-1.935,3,0,3c3.73,0,7.459,0,11.189,0
					C263.643,155.317,263.643,152.317,261.708,152.317L261.708,152.317z"/>
			</g>
			<g>
				<path fill="#FFFFFF" d="M261.708,161.026c-3.73,0-7.459,0-11.189,0c-1.935,0-1.935,3,0,3c3.73,0,7.459,0,11.189,0
					C263.643,164.026,263.643,161.026,261.708,161.026L261.708,161.026z"/>
			</g>
			<g>
				<path fill="#FFFFFF" d="M261.708,169.736c-3.73,0-7.459,0-11.189,0c-1.935,0-1.935,3,0,3c3.73,0,7.459,0,11.189,0
					C263.643,172.736,263.643,169.736,261.708,169.736L261.708,169.736z"/>
			</g>
		</g>
	</g>
	<g>
		<path fill="#FFFFFF" d="M279.331,73.478c-11.199,0-22.397,0-33.596,0c-7.402,0-14.804,0-22.207,0
			c-3.829,0-8.396-0.596-12.072,0.717c-6.631,2.369-6.724,8.61-6.238,14.333c0.603,7.103,1.206,14.206,1.809,21.309
			c0.633,7.464,1.267,14.928,1.9,22.393c0.43,5.066,0.167,10.477,4.015,14.323c2.095,2.095,5.156,2.629,7.983,2.629
			c-1.667-1.667-3.333-3.333-5-5c1.854,46.521,3.707,93.041,5.561,139.561c0.22,5.515,3.295,10.563,9.467,10.563
			c6.098,0,12.196,0,18.293,0c4.875,0,12.861,1.465,17.436-0.9c4.521-2.336,5.301-6.418,5.507-10.932
			c1.203-26.261,2.406-52.522,3.608-78.784c0.909-19.836,1.817-39.672,2.726-59.508c-1.667,1.667-3.333,3.333-5,5
			c8.559,0,11.083-6.164,11.699-13.424c0.648-7.645,1.297-15.29,1.946-22.935c0.688-8.098,1.375-16.196,2.062-24.294
			C289.86,81.096,288.211,74.5,279.331,73.478c-6.4-0.737-6.329,9.271,0,10c0.807,0.093-1.911,26.38-2.078,28.35
			c-0.558,6.571-1.115,13.142-1.673,19.712c-0.175,2.063,0.593,7.642-2.057,7.642c-2.82,0-4.875,2.278-5,5
			c-2.131,46.521-4.261,93.041-6.392,139.561c-0.083,1.826-0.263,0.563,0.641,0.563c-2.103,0-4.205,0-6.308,0
			c-7.404,0-14.808,0-22.212,0c-0.95,0-1.9,0-2.851,0c-1.124,0,0.113,0.179,0.132,0.656c-0.029-0.734-0.059-1.468-0.088-2.202
			c-0.152-3.827-0.305-7.654-0.457-11.482c-1.199-30.093-2.398-60.187-3.597-90.28c-0.489-12.272-0.978-24.544-1.467-36.816
			c-0.108-2.723-2.192-5-5-5c-2.708,0-1.939-6.261-2.117-8.358c-0.594-6.996-1.188-13.991-1.781-20.987
			c-0.568-6.69-1.136-13.38-1.703-20.069c-0.09-1.065-1.359-6.29,0.288-6.29c21.24,0,42.479,0,63.719,0
			C285.779,83.478,285.779,73.478,279.331,73.478z"/>
	</g>
</g>
</svg>
