<?xml version="1.0" encoding="iso-8859-1"?>
<!-- Generator: Adobe Illustrator 16.0.0, SVG Export Plug-In . SVG Version: 6.00 Build 0)  -->
<!DOCTYPE svg PUBLIC "-//W3C//DTD SVG 1.1//EN" "http://www.w3.org/Graphics/SVG/1.1/DTD/svg11.dtd">
<svg version="1.1" xmlns="http://www.w3.org/2000/svg" xmlns:xlink="http://www.w3.org/1999/xlink" x="0px" y="0px" width="361px"
	 height="361px" viewBox="0 0 361 361" style="enable-background:new 0 0 361 361;" xml:space="preserve">
<g id="weather_x5F_sunset">
	<g>
		<g>
			<path style="fill:#FFFFFF;" d="M75.989,291.445c48.559,0,97.117,0,145.676,0c21.907,0,43.814,0,65.722,0c6.448,0,6.448-10,0-10
				c-48.559,0-97.117,0-145.676,0c-21.907,0-43.814,0-65.721,0C69.541,281.445,69.541,291.445,75.989,291.445L75.989,291.445z"/>
		</g>
	</g>
	<g id="sonne_3_" style="display:none;">
		<path style="display:inline;fill:none;stroke:#FFFFFF;stroke-width:10;stroke-miterlimit:10;" d="M209.923,265.627
			c-11.063,0-20.032-8.969-20.032-20.033v-25.77c0.001-11.063,8.969-20.031,20.033-20.031h24.482
			c11.064,0,20.033,8.969,20.033,20.031v25.77c0,11.064-8.969,20.033-20.033,20.032L209.923,265.627z"/>
		<g style="display:inline;">
			<g>
				<path style="fill:#FFFFFF;" d="M272.75,169.411c-6.131,6.13-12.262,12.261-18.393,18.392c-4.564,4.563,2.507,11.634,7.07,7.07
					c6.131-6.13,12.262-12.261,18.393-18.391C284.385,171.919,277.313,164.848,272.75,169.411L272.75,169.411z"/>
			</g>
		</g>
		<g style="display:inline;">
			<g>
				<path style="fill:#FFFFFF;" d="M217.166,150.814c0,9.613,0,19.225,0,28.838c0,6.449,10,6.449,10,0c0-9.613,0-19.225,0-28.838
					C227.166,144.365,217.166,144.365,217.166,150.814L217.166,150.814z"/>
			</g>
		</g>
		<g style="display:inline;">
			<g>
				<path style="fill:#FFFFFF;" d="M141.939,236.04c9.612,0,19.225,0,28.837,0c6.449,0,6.449-10,0-10c-9.612,0-19.225,0-28.837,0
					C135.491,226.04,135.491,236.04,141.939,236.04L141.939,236.04z"/>
			</g>
		</g>
		<g style="display:inline;">
			<g>
				<path style="fill:#FFFFFF;" d="M157.507,174.911c7.179,7.178,14.357,14.356,21.535,21.534c4.564,4.564,11.635-2.507,7.071-7.07
					c-7.178-7.179-14.356-14.357-21.535-21.535C160.015,163.276,152.944,170.347,157.507,174.911L157.507,174.911z"/>
			</g>
		</g>
		<g style="display:inline;">
			<g>
				<path style="fill:#FFFFFF;" d="M243.347,165.047c-1.898,4.583-3.797,9.167-5.695,13.751c-1.045,2.523,1.109,5.496,3.492,6.151
					c2.875,0.79,5.108-0.977,6.15-3.492c1.898-4.584,3.797-9.167,5.695-13.751c1.045-2.523-1.109-5.495-3.492-6.15
					C246.622,160.764,244.389,162.531,243.347,165.047L243.347,165.047z"/>
			</g>
		</g>
		<g style="display:inline;">
			<g>
				<path style="fill:#FFFFFF;" d="M188.823,168.123c1.898,4.584,3.797,9.167,5.695,13.751c1.042,2.516,3.275,4.282,6.15,3.492
					c2.383-0.655,4.537-3.628,3.492-6.151c-1.898-4.584-3.797-9.167-5.695-13.751c-1.042-2.516-3.275-4.283-6.15-3.492
					C189.933,162.627,187.778,165.6,188.823,168.123L188.823,168.123z"/>
			</g>
		</g>
		<g style="display:inline;">
			<g>
				<path style="fill:#FFFFFF;" d="M156.57,209.446c4.583,1.898,9.167,3.798,13.751,5.696c2.523,1.045,5.495-1.109,6.15-3.492
					c0.791-2.875-0.976-5.108-3.492-6.15c-4.583-1.898-9.167-3.798-13.751-5.696c-2.523-1.045-5.495,1.109-6.15,3.492
					C152.287,206.171,154.054,208.404,156.57,209.446L156.57,209.446z"/>
			</g>
		</g>
		<g style="display:inline;">
			<g>
				<path style="fill:#FFFFFF;" d="M159.229,261.884c4.584-1.898,9.168-3.797,13.751-5.695c2.516-1.042,4.283-3.275,3.492-6.15
					c-0.655-2.383-3.627-4.537-6.15-3.492c-4.584,1.898-9.168,3.797-13.751,5.695c-2.516,1.042-4.283,3.275-3.492,6.15
					C153.733,260.774,156.706,262.929,159.229,261.884L159.229,261.884z"/>
			</g>
		</g>
		<g style="display:inline;">
			<g>
				<path style="fill:#FFFFFF;" d="M272.822,280.999c-3.482-3.483-6.966-6.967-10.449-10.449c-4.563-4.564-11.635,2.507-7.07,7.07
					c3.482,3.483,6.966,6.967,10.449,10.449C270.315,292.634,277.387,285.563,272.822,280.999L272.822,280.999z"/>
			</g>
		</g>
		<g style="display:inline;">
			<g>
				<path style="fill:#FFFFFF;" d="M174.357,287.918c3.919-3.918,7.837-7.837,11.756-11.756c4.564-4.563-2.507-11.634-7.071-7.07
					c-3.919,3.918-7.838,7.837-11.757,11.756C162.722,285.411,169.793,292.481,174.357,287.918L174.357,287.918z"/>
			</g>
		</g>
		<g style="display:inline;">
			<g>
				<path style="fill:#FFFFFF;" d="M286.025,227.906c-4.292,0-8.585,0-12.877,0c-6.448,0-6.448,10,0,10c4.292,0,8.585,0,12.877,0
					C292.474,237.906,292.474,227.906,286.025,227.906L286.025,227.906z"/>
			</g>
		</g>
		<g style="display:inline;">
			<g>
				<path style="fill:#FFFFFF;" d="M284.696,201.669c-4.584,1.899-9.167,3.798-13.751,5.697c-2.516,1.042-4.283,3.275-3.492,6.15
					c0.655,2.382,3.628,4.537,6.15,3.492c4.584-1.899,9.167-3.798,13.751-5.697c2.516-1.042,4.283-3.275,3.492-6.15
					C290.191,202.779,287.219,200.624,284.696,201.669L284.696,201.669z"/>
			</g>
		</g>
		<g style="display:inline;">
			<g>
				<path style="fill:#FFFFFF;" d="M287.354,254.106c-4.584-1.898-9.167-3.797-13.751-5.695c-2.522-1.045-5.495,1.109-6.15,3.492
					c-0.791,2.875,0.977,5.108,3.492,6.15c4.584,1.898,9.167,3.797,13.751,5.695c2.522,1.045,5.495-1.109,6.15-3.492
					C291.638,257.382,289.87,255.148,287.354,254.106L287.354,254.106z"/>
			</g>
		</g>
		<g style="display:inline;">
			<g>
				<path style="fill:#FFFFFF;" d="M228.426,286.445c0-0.702,0-1.405,0-2.107c0-2.726-2.274-5-5-5s-5,2.274-5,5
					c0,0.702,0,1.405,0,2.107c0,2.726,2.274,5,5,5S228.426,289.171,228.426,286.445L228.426,286.445z"/>
			</g>
		</g>
		<g style="display:inline;">
			<g>
				<path style="fill:#FFFFFF;" d="M248.979,283.283c-0.36-0.792-0.72-1.584-1.08-2.375c-0.51-1.121-1.846-1.983-2.988-2.298
					c-1.29-0.355-2.698-0.173-3.853,0.504c-1.118,0.654-1.954,1.738-2.298,2.988c-0.06,0.443-0.119,0.886-0.179,1.329
					c0.003,0.902,0.23,1.744,0.683,2.523c0.36,0.792,0.72,1.584,1.08,2.375c0.51,1.121,1.846,1.983,2.988,2.298
					c1.29,0.355,2.698,0.173,3.853-0.504c1.118-0.654,1.954-1.738,2.298-2.988c0.06-0.443,0.119-0.886,0.179-1.329
					C249.659,284.904,249.432,284.063,248.979,283.283L248.979,283.283z"/>
			</g>
		</g>
		<g style="display:inline;">
			<g>
				<path style="fill:#FFFFFF;" d="M204.161,287.814c0.42-1.014,0.84-2.027,1.26-3.041c0.483-1.167,0.104-2.814-0.504-3.853
					c-0.654-1.118-1.738-1.954-2.988-2.298c-1.29-0.355-2.698-0.173-3.853,0.504c-1.23,0.721-1.773,1.723-2.298,2.988
					c-0.42,1.014-0.84,2.027-1.26,3.041c-0.483,1.167-0.104,2.814,0.504,3.853c0.654,1.118,1.738,1.954,2.988,2.298
					c1.29,0.355,2.698,0.173,3.853-0.504C203.094,290.082,203.637,289.08,204.161,287.814L204.161,287.814z"/>
			</g>
		</g>
	</g>
	<g>
		<g>
			<g>
				<path style="fill:#FFFFFF;" d="M249.439,233.59c0,4.792,0.577,9.971-0.229,14.712c-1.404,8.264-8.785,12.324-16.527,12.324
					c-6.121,0-12.241,0.001-18.362,0.001c-2.02,0-4.038-0.008-6.058,0.036c-3.688,0.079-11.366-2.859-11.644-7.431
					c-0.389-6.406-10.391-6.444-10,0c0.718,11.831,13.443,17.395,23.76,17.395c7.435,0,14.869-0.001,22.304-0.001
					c10.128,0,19.018-4.443,23.955-13.532c3.84-7.069,2.801-15.753,2.801-23.504C259.439,227.142,249.439,227.142,249.439,233.59
					L249.439,233.59z"/>
			</g>
		</g>
		<g>
			<g>
				<path style="fill:#FFFFFF;" d="M195.661,231.04c-0.095-5.399-0.893-11.247,0.73-16.466c2.259-7.262,9.588-9.781,16.403-9.781
					c6.182,0,12.363,0,18.545,0c5.809,0,16.16-0.428,16.646,7.395c0.398,6.404,10.4,6.443,10,0
					c-1.35-21.712-30.093-17.395-45.191-17.395c-9.976,0-18.468,3.753-23.912,12.397c-4.479,7.111-3.361,15.878-3.222,23.85
					C185.773,237.481,195.774,237.492,195.661,231.04L195.661,231.04z"/>
			</g>
		</g>
	</g>
	<g>
		<g>
			<path style="fill:#FFFFFF;" d="M276.811,168.472c-6.131,6.13-12.262,12.261-18.393,18.392c-3.195,3.194,1.755,8.144,4.949,4.949
				c6.131-6.13,12.262-12.26,18.393-18.391C284.955,170.227,280.005,165.277,276.811,168.472L276.811,168.472z"/>
		</g>
	</g>
	<g>
		<g>
			<path style="fill:#FFFFFF;" d="M218.666,156.814c0,7.479,0,14.958,0,22.438c0,4.514,7,4.514,7,0c0-7.479,0-14.958,0-22.438
				C225.666,152.3,218.666,152.3,218.666,156.814L218.666,156.814z"/>
		</g>
	</g>
	<g>
		<g>
			<path style="fill:#FFFFFF;" d="M141.939,234.54c9.612,0,19.225,0,28.837,0c4.514,0,4.514-7,0-7c-9.612,0-19.225,0-28.837,0
				C137.425,227.54,137.425,234.54,141.939,234.54L141.939,234.54z"/>
		</g>
	</g>
	<g>
		<g>
			<path style="fill:#FFFFFF;" d="M244.793,165.446c-1.898,4.584-3.797,9.167-5.695,13.751c-0.731,1.766,0.777,3.847,2.444,4.305
				c2.013,0.554,3.576-0.683,4.306-2.444c1.898-4.583,3.797-9.167,5.695-13.75c0.731-1.766-0.777-3.847-2.444-4.306
				C247.086,162.448,245.522,163.685,244.793,165.446L244.793,165.446z"/>
		</g>
	</g>
	<g>
		<g>
			<path style="fill:#FFFFFF;" d="M156.969,208c4.584,1.898,9.168,3.798,13.751,5.696c1.766,0.731,3.847-0.777,4.306-2.444
				c0.554-2.013-0.684-3.576-2.444-4.306c-4.584-1.898-9.168-3.798-13.751-5.696c-1.766-0.731-3.847,0.777-4.306,2.444
				C153.971,205.707,155.208,207.271,156.969,208L156.969,208z"/>
		</g>
	</g>
	<g>
		<g>
			<path style="fill:#FFFFFF;" d="M158.83,260.438c4.583-1.898,9.167-3.797,13.751-5.695c1.761-0.729,2.998-2.293,2.444-4.306
				c-0.459-1.667-2.54-3.176-4.306-2.444c-4.583,1.898-9.167,3.797-13.751,5.695c-1.761,0.729-2.998,2.293-2.444,4.306
				C154.983,259.66,157.064,261.169,158.83,260.438L158.83,260.438z"/>
		</g>
	</g>
	<g>
		<g>
			<path style="fill:#FFFFFF;" d="M271.762,282.06c-3.482-3.483-6.966-6.967-10.449-10.449c-3.194-3.194-8.145,1.755-4.949,4.949
				c3.482,3.483,6.966,6.967,10.449,10.449C270.007,290.203,274.957,285.254,271.762,282.06L271.762,282.06z"/>
		</g>
	</g>
	<g>
		<g>
			<path style="fill:#FFFFFF;" d="M173.296,286.857c3.919-3.918,7.837-7.837,11.756-11.756c3.195-3.194-1.755-8.144-4.95-4.949
				c-3.919,3.918-7.838,7.837-11.757,11.756C165.152,285.103,170.102,290.052,173.296,286.857L173.296,286.857z"/>
		</g>
	</g>
	<g>
		<g>
			<path style="fill:#FFFFFF;" d="M286.025,229.406c-4.292,0-8.585,0-12.877,0c-4.514,0-4.514,7,0,7c4.292,0,8.585,0,12.877,0
				C290.539,236.406,290.539,229.406,286.025,229.406L286.025,229.406z"/>
		</g>
	</g>
	<g>
		<g>
			<path style="fill:#FFFFFF;" d="M285.095,203.115c-4.583,1.899-9.167,3.798-13.751,5.697c-1.761,0.729-2.998,2.293-2.444,4.306
				c0.459,1.667,2.539,3.176,4.306,2.444c4.583-1.899,9.167-3.798,13.751-5.697c1.761-0.729,2.998-2.293,2.444-4.306
				C288.941,203.893,286.861,202.384,285.095,203.115L285.095,203.115z"/>
		</g>
	</g>
	<g>
		<g>
			<path style="fill:#FFFFFF;" d="M286.956,255.553c-4.584-1.898-9.168-3.797-13.751-5.695c-1.767-0.731-3.847,0.777-4.306,2.444
				c-0.554,2.013,0.684,3.576,2.444,4.306c4.584,1.898,9.168,3.797,13.751,5.695c1.767,0.731,3.847-0.777,4.306-2.444
				C289.954,257.846,288.717,256.282,286.956,255.553L286.956,255.553z"/>
		</g>
	</g>
	<g>
		<g>
			<path style="fill:#FFFFFF;" d="M226.926,286.445c0-0.702,0-1.405,0-2.107c0-1.908-1.592-3.5-3.5-3.5s-3.5,1.592-3.5,3.5
				c0,0.702,0,1.405,0,2.107c0,1.908,1.592,3.5,3.5,3.5S226.926,288.354,226.926,286.445L226.926,286.445z"/>
		</g>
	</g>
	<g>
		<g>
			<path style="fill:#FFFFFF;" d="M247.685,284.04c-0.36-0.792-0.721-1.583-1.08-2.375c-0.357-0.785-1.293-1.389-2.092-1.608
				c-0.903-0.248-1.889-0.121-2.697,0.353c-0.782,0.459-1.368,1.217-1.608,2.092c-0.27,0.979-0.053,1.806,0.353,2.697
				c0.36,0.792,0.721,1.583,1.08,2.375c0.357,0.785,1.293,1.389,2.092,1.608c0.903,0.248,1.889,0.121,2.697-0.353
				c0.782-0.459,1.368-1.217,1.608-2.092C248.307,285.758,248.09,284.932,247.685,284.04L247.685,284.04z"/>
		</g>
	</g>
	<g>
		<g>
			<path style="fill:#FFFFFF;" d="M202.715,287.416c0.42-1.014,0.84-2.027,1.26-3.041c0.338-0.817,0.073-1.971-0.353-2.697
				c-0.459-0.782-1.217-1.368-2.092-1.608c-0.903-0.248-1.889-0.121-2.697,0.353c-0.861,0.505-1.241,1.206-1.608,2.092
				c-0.42,1.014-0.84,2.027-1.26,3.041c-0.338,0.817-0.073,1.971,0.353,2.697c0.459,0.782,1.217,1.368,2.092,1.608
				c0.903,0.248,1.889,0.121,2.697-0.353C201.968,289.003,202.348,288.302,202.715,287.416L202.715,287.416z"/>
		</g>
	</g>
	<g>
		<g>
			<path style="fill:#FFFFFF;" d="M122.803,242.066c29.902,0,59.804,0,89.707,0c1.935,0,1.935-3,0-3c-29.902,0-59.804,0-89.707,0
				C120.869,239.066,120.869,242.066,122.803,242.066L122.803,242.066z"/>
		</g>
	</g>
	<g>
		<g>
			<path style="fill:#FFFFFF;" d="M104.908,246.652c17.095,0,34.189,0,51.284,0c1.935,0,1.935-3,0-3c-17.095,0-34.189,0-51.284,0
				C102.974,243.652,102.974,246.652,104.908,246.652L104.908,246.652z"/>
		</g>
	</g>
	<g>
		<g>
			<path style="fill:#FFFFFF;" d="M78.299,210.409c22.912,0,45.824,0,68.735,0c1.935,0,1.935-3,0-3c-22.912,0-45.824,0-68.735,0
				C76.365,207.409,76.365,210.409,78.299,210.409L78.299,210.409z"/>
		</g>
	</g>
	<g>
		<g>
			<path style="fill:#FFFFFF;" d="M71.677,215.994c19.703,0,39.406,0,59.108,0c1.935,0,1.935-3,0-3c-19.703,0-39.406,0-59.108,0
				C69.743,212.994,69.743,215.994,71.677,215.994L71.677,215.994z"/>
		</g>
	</g>
	<g>
		<g>
			<path style="fill:#FFFFFF;" d="M239.582,226.58c15.364,0,30.729,0,46.094,0c1.935,0,1.935-3,0-3c-15.364,0-30.729,0-46.094,0
				C237.647,223.58,237.647,226.58,239.582,226.58L239.582,226.58z"/>
		</g>
	</g>
	<g>
		<g>
			<path style="fill:#FFFFFF;" d="M235.645,221.994c13.761,0,27.522,0,41.283,0c1.935,0,1.935-3,0-3c-13.761,0-27.522,0-41.283,0
				C233.71,218.994,233.71,221.994,235.645,221.994L235.645,221.994z"/>
		</g>
	</g>
	<g>
		<g>
			<path style="fill:#FFFFFF;" d="M180.5,246.652c7.542-0.081,15.083-0.162,22.625-0.243c1.934-0.021,1.936-3.021,0-3
				c-7.542,0.081-15.083,0.162-22.625,0.243C178.566,243.673,178.564,246.673,180.5,246.652L180.5,246.652z"/>
		</g>
	</g>
	<g>
		<g>
			<path style="fill:#FFFFFF;" d="M98.674,133.304c34.146,0,68.293,0,102.439,0c1.935,0,1.935-3,0-3c-34.146,0-68.293,0-102.439,0
				C96.739,130.304,96.739,133.304,98.674,133.304L98.674,133.304z"/>
		</g>
	</g>
	<g>
		<g>
			<path style="fill:#FFFFFF;" d="M81.893,138.889c47.362,0,94.724,0,142.086,0c0.933,0,1.866,0,2.8,0c1.935,0,1.935-3,0-3
				c-47.362,0-94.724,0-142.086,0c-0.934,0-1.867,0-2.8,0C79.958,135.889,79.958,138.889,81.893,138.889L81.893,138.889z"/>
		</g>
	</g>
	<g>
		<g>
			<path style="fill:#FFFFFF;" d="M74.431,158.888c22.57,0,45.141,0,67.711,0c1.935,0,1.935-3,0-3c-22.57,0-45.141,0-67.711,0
				C72.496,155.888,72.496,158.888,74.431,158.888L74.431,158.888z"/>
		</g>
	</g>
	<g>
		<g>
			<path style="fill:#FFFFFF;" d="M149.257,162.063c-16.861,0-33.722,0-50.583,0c-1.935,0-1.935,3,0,3c16.861,0,33.722,0,50.583,0
				C151.191,165.063,151.191,162.063,149.257,162.063L149.257,162.063z"/>
		</g>
	</g>
	<g>
		<g>
			<path style="fill:#FFFFFF;" d="M183.37,188.864c-6.131-6.131-12.261-12.262-18.392-18.393c-3.195-3.194-8.145,1.755-4.95,4.95
				c6.131,6.13,12.261,12.261,18.392,18.392C181.614,197.009,186.564,192.059,183.37,188.864L183.37,188.864z"/>
		</g>
	</g>
	<g>
		<g>
			<path style="fill:#FFFFFF;" d="M191.359,167.307c1.898,4.583,3.797,9.167,5.695,13.75c0.729,1.762,2.293,2.998,4.306,2.444
				c1.667-0.458,3.176-2.539,2.444-4.305c-1.898-4.583-3.797-9.167-5.695-13.751c-0.729-1.761-2.293-2.998-4.306-2.444
				C192.137,163.46,190.628,165.541,191.359,167.307L191.359,167.307z"/>
		</g>
	</g>
</g>
<g id="Ebene_1">
</g>
</svg>
