<?xml version="1.0" encoding="iso-8859-1"?>
<!-- Generator: Adobe Illustrator 16.0.0, SVG Export Plug-In . SVG Version: 6.00 Build 0)  -->
<!DOCTYPE svg PUBLIC "-//W3C//DTD SVG 1.1//EN" "http://www.w3.org/Graphics/SVG/1.1/DTD/svg11.dtd">
<svg version="1.1" xmlns="http://www.w3.org/2000/svg" xmlns:xlink="http://www.w3.org/1999/xlink" x="0px" y="0px" width="361px"
	 height="361px" viewBox="0 0 361 361" style="enable-background:new 0 0 361 361;" xml:space="preserve">
<g id="weather_x5F_pollen">
	<g>
		<g>
			<path style="fill:#FFFFFF;" d="M115.5,287c0.05-29.275,1.846-58.858,8.064-87.529c2.027-9.349,4.523-18.861,8.708-27.502
				c1.325-2.735,2.864-5.451,4.914-7.708c0.968-1.066,1.512-1.472,2.458-2.031c0.417-0.246,1.31-0.436,1.531-0.442
				c6.433-0.199,6.452-10.2,0-10c-16.589,0.513-22.607,26.358-25.755,38.659c-8.002,31.275-9.865,64.402-9.92,96.554
				C105.488,293.449,115.488,293.448,115.5,287L115.5,287z"/>
		</g>
	</g>
	<path style="fill:#FFFFFF;" d="M152.459,130.289c0,2.662-2.158,4.82-4.82,4.82h-3.614c-2.662,0-4.82-2.158-4.82-4.82v-3.615
		c0-2.662,2.158-4.819,4.82-4.819h3.614c2.662,0,4.82,2.158,4.82,4.819V130.289z"/>
	<path style="fill:#FFFFFF;" d="M167.621,130.494c0,2.662-2.158,4.82-4.819,4.82h-3.615c-2.662,0-4.82-2.158-4.82-4.82v-3.615
		c0-2.662,2.158-4.82,4.82-4.82h3.615c2.662,0,4.819,2.158,4.819,4.82V130.494z"/>
	<path style="fill:#FFFFFF;" d="M145.13,143.479c0,2.662-2.158,4.819-4.82,4.819h-3.614c-2.662,0-4.82-2.158-4.82-4.819v-3.615
		c0-2.662,2.158-4.819,4.82-4.819h3.614c2.662,0,4.82,2.158,4.82,4.819V143.479z"/>
	<path style="fill:#FFFFFF;" d="M173.771,145.121c0,2.662-2.158,4.819-4.82,4.819h-3.615c-2.661,0-4.819-2.158-4.819-4.819v-3.615
		c0-2.662,2.158-4.82,4.819-4.82h3.615c2.662,0,4.82,2.158,4.82,4.82V145.121z"/>
	<path style="fill:#FFFFFF;" d="M162.321,156.726c0,2.662-2.158,4.819-4.82,4.819h-3.615c-2.662,0-4.819-2.158-4.819-4.819v-3.615
		c0-2.662,2.158-4.819,4.819-4.819h3.615c2.662,0,4.82,2.158,4.82,4.819V156.726z"/>
	<path style="fill:#FFFFFF;" d="M180.314,168.705c0,2.662-2.158,4.82-4.819,4.82h-3.615c-2.662,0-4.82-2.158-4.82-4.82v-3.615
		c0-2.662,2.158-4.82,4.82-4.82h3.615c2.661,0,4.819,2.158,4.819,4.82V168.705z"/>
	<path style="fill:#FFFFFF;" d="M189.569,126.524c0,2.662-2.158,4.82-4.819,4.82h-3.615c-2.662,0-4.82-2.158-4.82-4.82v-3.615
		c0-2.662,2.158-4.82,4.82-4.82h3.615c2.661,0,4.819,2.158,4.819,4.82V126.524z"/>
	<path style="fill:#FFFFFF;" d="M190.685,156.049c0,2.661-2.157,4.819-4.819,4.819h-3.615c-2.661,0-4.819-2.158-4.819-4.819v-3.615
		c0-2.662,2.158-4.82,4.819-4.82h3.615c2.662,0,4.819,2.158,4.819,4.82V156.049z"/>
	<path style="fill:#FFFFFF;" d="M193.916,141.251c0,2.661-2.158,4.819-4.819,4.819h-3.614c-2.662,0-4.821-2.158-4.821-4.819v-3.615
		c0-2.661,2.159-4.819,4.821-4.819h3.614c2.661,0,4.819,2.158,4.819,4.819V141.251z"/>
	<path style="fill:#FFFFFF;" d="M177.315,114.224c0,2.662-2.158,4.819-4.82,4.819h-3.614c-2.662,0-4.82-2.158-4.82-4.819v-3.615
		c0-2.662,2.158-4.82,4.82-4.82h3.614c2.662,0,4.82,2.158,4.82,4.82V114.224z"/>
	<path style="fill:#FFFFFF;" d="M162.054,110.01c0,2.662-2.158,4.82-4.82,4.82h-3.615c-2.662,0-4.82-2.158-4.82-4.82v-3.615
		c0-2.661,2.158-4.819,4.82-4.819h3.615c2.662,0,4.82,2.158,4.82,4.819V110.01z"/>
	<path style="fill:#FFFFFF;" d="M147.684,112.742c0,2.662-2.158,4.819-4.819,4.819h-3.615c-2.662,0-4.82-2.158-4.82-4.819v-3.615
		c0-2.662,2.158-4.82,4.82-4.82h3.615c2.662,0,4.819,2.158,4.819,4.82V112.742z"/>
	<path style="fill:#FFFFFF;" d="M134.955,122.809c0,2.662-2.158,4.82-4.82,4.82h-3.614c-2.662,0-4.82-2.158-4.82-4.82v-3.615
		c0-2.662,2.158-4.82,4.82-4.82h3.614c2.662,0,4.82,2.158,4.82,4.82V122.809z"/>
	<path style="fill:#FFFFFF;" d="M128.713,137.184c0,2.662-2.158,4.82-4.82,4.82h-3.615c-2.661,0-4.819-2.158-4.819-4.82v-3.615
		c0-2.661,2.158-4.819,4.819-4.819h3.615c2.662,0,4.82,2.158,4.82,4.819V137.184z"/>
	<path style="fill:#FFFFFF;" d="M164.891,174.97c0,2.662-2.158,4.82-4.82,4.82h-3.615c-2.662,0-4.82-2.158-4.82-4.82v-3.614
		c0-2.662,2.158-4.82,4.82-4.82h3.615c2.662,0,4.82,2.158,4.82,4.82V174.97z"/>
	<path style="fill:#FFFFFF;" d="M150.485,173.202c0,2.662-2.158,4.819-4.819,4.819h-3.615c-2.662,0-4.819-2.158-4.819-4.819v-3.615
		c0-2.662,2.158-4.82,4.819-4.82h3.615c2.662,0,4.819,2.158,4.819,4.82V173.202z"/>
	<path style="fill:#FFFFFF;" d="M130.208,152.138c0,2.661-2.158,4.819-4.82,4.819h-3.615c-2.662,0-4.819-2.158-4.819-4.819v-3.615
		c0-2.661,2.158-4.819,4.819-4.819h3.615c2.662,0,4.82,2.158,4.82,4.819V152.138z"/>
	<path style="fill:#FFFFFF;" d="M281.583,95.417c0,2.071-1.679,3.75-3.75,3.75l0,0c-2.071,0-3.75-1.679-3.75-3.75l0,0
		c0-2.071,1.679-3.75,3.75-3.75l0,0C279.904,91.667,281.583,93.346,281.583,95.417L281.583,95.417z"/>
	<path style="fill:#FFFFFF;" d="M291.083,82.917c0,2.071-1.679,3.75-3.75,3.75l0,0c-2.071,0-3.75-1.679-3.75-3.75l0,0
		c0-2.071,1.679-3.75,3.75-3.75l0,0C289.404,79.167,291.083,80.846,291.083,82.917L291.083,82.917z"/>
	<path style="fill:#FFFFFF;" d="M259.833,76.917c0,2.071-1.679,3.75-3.75,3.75l0,0c-2.071,0-3.75-1.679-3.75-3.75l0,0
		c0-2.071,1.679-3.75,3.75-3.75l0,0C258.154,73.167,259.833,74.846,259.833,76.917L259.833,76.917z"/>
	<path style="fill:#FFFFFF;" d="M264.083,104.167c0,2.071-1.679,3.75-3.75,3.75l0,0c-2.071,0-3.75-1.679-3.75-3.75l0,0
		c0-2.071,1.679-3.75,3.75-3.75l0,0C262.404,100.417,264.083,102.096,264.083,104.167L264.083,104.167z"/>
	<path style="fill:#FFFFFF;" d="M244.833,102.667c0,2.071-1.679,3.75-3.75,3.75l0,0c-2.071,0-3.75-1.679-3.75-3.75l0,0
		c0-2.071,1.679-3.75,3.75-3.75l0,0C243.154,98.917,244.833,100.596,244.833,102.667L244.833,102.667z"/>
	<path style="fill:#FFFFFF;" d="M222.583,74.167c0,2.071-1.679,3.75-3.75,3.75l0,0c-2.071,0-3.75-1.679-3.75-3.75l0,0
		c0-2.071,1.679-3.75,3.75-3.75l0,0C220.904,70.417,222.583,72.096,222.583,74.167L222.583,74.167z"/>
	<path style="fill:#FFFFFF;" d="M239.583,89.167c0,2.071-1.679,3.75-3.75,3.75l0,0c-2.071,0-3.75-1.679-3.75-3.75l0,0
		c0-2.071,1.679-3.75,3.75-3.75l0,0C237.904,85.417,239.583,87.096,239.583,89.167L239.583,89.167z"/>
	<circle style="display:none;fill:none;stroke:#000000;stroke-miterlimit:10;" cx="139.458" cy="176.792" r="32.625"/>
	<circle style="display:none;fill:none;stroke:#000000;stroke-miterlimit:10;" cx="138.083" cy="176.917" r="14.75"/>
	<circle style="display:none;fill:none;stroke:#000000;stroke-miterlimit:10;" cx="139.333" cy="176.667" r="46.5"/>
	<path style="fill:#FFFFFF;" d="M196.333,85.167c0,2.071-1.679,3.75-3.75,3.75l0,0c-2.071,0-3.75-1.679-3.75-3.75l0,0
		c0-2.071,1.679-3.75,3.75-3.75l0,0C194.654,81.417,196.333,83.096,196.333,85.167L196.333,85.167z"/>
	<path style="fill:#FFFFFF;" d="M200.345,93.752c0.114-2.068,1.884-3.651,3.952-3.537l0,0c2.067,0.115,3.65,1.884,3.536,3.952l0,0
		c-0.114,2.068-1.884,3.651-3.952,3.537l0,0C201.813,97.589,200.23,95.82,200.345,93.752L200.345,93.752z"/>
	<path style="fill:#FFFFFF;" d="M218.089,104.459c0.114-2.068,1.884-3.651,3.952-3.537l0,0c2.068,0.114,3.65,1.883,3.536,3.952l0,0
		c-0.114,2.068-1.884,3.651-3.952,3.537l0,0C219.558,108.296,217.975,106.527,218.089,104.459L218.089,104.459z"/>
	<g>
		<path style="fill:#FFFFFF;" d="M194.083,170.292c0,2.071-1.679,3.75-3.75,3.75l0,0c-2.071,0-3.75-1.679-3.75-3.75l0,0
			c0-2.071,1.679-3.75,3.75-3.75l0,0C192.404,166.542,194.083,168.221,194.083,170.292L194.083,170.292z"/>
		<path style="fill:#FFFFFF;" d="M199.333,162.042c0,2.071-1.679,3.75-3.75,3.75l0,0c-2.071,0-3.75-1.679-3.75-3.75l0,0
			c0-2.071,1.679-3.75,3.75-3.75l0,0C197.654,158.292,199.333,159.971,199.333,162.042L199.333,162.042z"/>
		<path style="fill:#FFFFFF;" d="M203.083,152.792c0,2.071-1.679,3.75-3.75,3.75l0,0c-2.071,0-3.75-1.679-3.75-3.75l0,0
			c0-2.071,1.679-3.75,3.75-3.75l0,0C201.404,149.042,203.083,150.721,203.083,152.792L203.083,152.792z"/>
		<path style="fill:#FFFFFF;" d="M124.333,108.417c0,2.071-1.679,3.75-3.75,3.75l0,0c-2.071,0-3.75-1.679-3.75-3.75l0,0
			c0-2.071,1.679-3.75,3.75-3.75l0,0C122.654,104.667,124.333,106.346,124.333,108.417L124.333,108.417z"/>
		<path style="fill:#FFFFFF;" d="M131.583,102.167c0,2.071-1.679,3.75-3.75,3.75l0,0c-2.071,0-3.75-1.679-3.75-3.75l0,0
			c0-2.071,1.679-3.75,3.75-3.75l0,0C129.904,98.417,131.583,100.096,131.583,102.167L131.583,102.167z"/>
		<path style="fill:#FFFFFF;" d="M139.833,97.667c0,2.071-1.679,3.75-3.75,3.75l0,0c-2.071,0-3.75-1.679-3.75-3.75l0,0
			c0-2.071,1.679-3.75,3.75-3.75l0,0C138.154,93.917,139.833,95.596,139.833,97.667L139.833,97.667z"/>
		<path style="fill:#FFFFFF;" d="M148.833,94.917c0,2.071-1.679,3.75-3.75,3.75l0,0c-2.071,0-3.75-1.679-3.75-3.75l0,0
			c0-2.071,1.679-3.75,3.75-3.75l0,0C147.154,91.167,148.833,92.846,148.833,94.917L148.833,94.917z"/>
		<path style="fill:#FFFFFF;" d="M158.583,94.417c0,2.071-1.679,3.75-3.75,3.75l0,0c-2.071,0-3.75-1.679-3.75-3.75l0,0
			c0-2.071,1.679-3.75,3.75-3.75l0,0C156.904,90.667,158.583,92.346,158.583,94.417L158.583,94.417z"/>
		<path style="fill:#FFFFFF;" d="M167.833,95.417c0,2.071-1.679,3.75-3.75,3.75l0,0c-2.071,0-3.75-1.679-3.75-3.75l0,0
			c0-2.071,1.679-3.75,3.75-3.75l0,0C166.154,91.667,167.833,93.346,167.833,95.417L167.833,95.417z"/>
		<path style="fill:#FFFFFF;" d="M177.083,98.417c0,2.071-1.679,3.75-3.75,3.75l0,0c-2.071,0-3.75-1.679-3.75-3.75l0,0
			c0-2.071,1.679-3.75,3.75-3.75l0,0C175.404,94.667,177.083,96.346,177.083,98.417L177.083,98.417z"/>
		<path style="fill:#FFFFFF;" d="M185.583,103.167c0,2.071-1.679,3.75-3.75,3.75l0,0c-2.071,0-3.75-1.679-3.75-3.75l0,0
			c0-2.071,1.679-3.75,3.75-3.75l0,0C183.904,99.417,185.583,101.096,185.583,103.167L185.583,103.167z"/>
		<path style="fill:#FFFFFF;" d="M192.833,109.167c0,2.071-1.679,3.75-3.75,3.75l0,0c-2.071,0-3.75-1.679-3.75-3.75l0,0
			c0-2.071,1.679-3.75,3.75-3.75l0,0C191.154,105.417,192.833,107.096,192.833,109.167L192.833,109.167z"/>
		<path style="fill:#FFFFFF;" d="M197.833,116.667c0,2.071-1.679,3.75-3.75,3.75l0,0c-2.071,0-3.75-1.679-3.75-3.75l0,0
			c0-2.071,1.679-3.75,3.75-3.75l0,0C196.154,112.917,197.833,114.596,197.833,116.667L197.833,116.667z"/>
		<path style="fill:#FFFFFF;" d="M202.083,124.667c0,2.071-1.679,3.75-3.75,3.75l0,0c-2.071,0-3.75-1.679-3.75-3.75l0,0
			c0-2.071,1.679-3.75,3.75-3.75l0,0C200.404,120.917,202.083,122.596,202.083,124.667L202.083,124.667z"/>
		<path style="fill:#FFFFFF;" d="M204.583,133.667c0,2.071-1.679,3.75-3.75,3.75l0,0c-2.071,0-3.75-1.679-3.75-3.75l0,0
			c0-2.071,1.679-3.75,3.75-3.75l0,0C202.904,129.917,204.583,131.596,204.583,133.667L204.583,133.667z"/>
		<path style="fill:#FFFFFF;" d="M204.833,143.417c0,2.071-1.679,3.75-3.75,3.75l0,0c-2.071,0-3.75-1.679-3.75-3.75l0,0
			c0-2.071,1.679-3.75,3.75-3.75l0,0C203.154,139.667,204.833,141.346,204.833,143.417L204.833,143.417z"/>
		<path style="fill:#FFFFFF;" d="M180.211,176.227c0.414-2.03,2.394-3.339,4.423-2.926l0,0c2.029,0.414,3.34,2.394,2.926,4.423l0,0
			c-0.413,2.03-2.393,3.339-4.423,2.926l0,0C181.107,180.236,179.798,178.257,180.211,176.227L180.211,176.227z"/>
		<path style="fill:#FFFFFF;" d="M173.11,181.029c0.414-2.03,2.394-3.34,4.423-2.926l0,0c2.029,0.413,3.34,2.393,2.927,4.422l0,0
			c-0.414,2.029-2.394,3.34-4.423,2.928l0,0C174.007,185.039,172.697,183.059,173.11,181.029L173.11,181.029z"/>
		<path style="fill:#FFFFFF;" d="M164.783,184.418c0.414-2.029,2.394-3.339,4.424-2.926l0,0c2.029,0.414,3.339,2.394,2.926,4.424
			l0,0c-0.414,2.029-2.393,3.34-4.423,2.926l0,0C165.68,188.428,164.371,186.449,164.783,184.418L164.783,184.418z"/>
		<path style="fill:#FFFFFF;" d="M155.885,186.19c0.414-2.03,2.394-3.339,4.423-2.926l0,0c2.03,0.413,3.339,2.394,2.926,4.423l0,0
			c-0.414,2.029-2.394,3.34-4.423,2.926l0,0C156.782,190.2,155.472,188.221,155.885,186.19L155.885,186.19z"/>
		<path style="fill:#FFFFFF;" d="M146.857,186.109c0.413-2.029,2.394-3.339,4.423-2.925l0,0c2.03,0.413,3.339,2.392,2.927,4.423l0,0
			c-0.414,2.029-2.395,3.339-4.423,2.926l0,0C147.754,190.12,146.444,188.14,146.857,186.109L146.857,186.109z"/>
		<path style="fill:#FFFFFF;" d="M139.899,181.902c1.882-0.864,4.109-0.039,4.973,1.843l0,0c0.864,1.883,0.039,4.108-1.844,4.974
			l0,0c-1.882,0.863-4.108,0.038-4.972-1.844l0,0C137.192,184.992,138.017,182.766,139.899,181.902L139.899,181.902z"/>
		<path style="fill:#FFFFFF;" d="M113.283,162.144c1.883-0.864,4.108-0.039,4.973,1.844l0,0c0.864,1.882,0.039,4.108-1.844,4.973
			l0,0c-1.882,0.864-4.108,0.038-4.972-1.844l0,0C110.576,165.234,111.401,163.007,113.283,162.144L113.283,162.144z"/>
		<path style="fill:#FFFFFF;" d="M109.511,154.116c1.883-0.864,4.108-0.039,4.973,1.844l0,0c0.864,1.883,0.038,4.108-1.844,4.973
			l0,0c-1.882,0.863-4.108,0.038-4.973-1.844l0,0C106.804,157.207,107.629,154.98,109.511,154.116L109.511,154.116z"/>
		<path style="fill:#FFFFFF;" d="M110.739,146.107c1.77,1.077,2.332,3.383,1.255,5.153l0,0c-1.077,1.77-3.383,2.331-5.153,1.255l0,0
			c-1.769-1.077-2.332-3.383-1.255-5.153l0,0C106.663,145.593,108.969,145.031,110.739,146.107L110.739,146.107z"/>
		<path style="fill:#FFFFFF;" d="M109.917,137.79c1.77,1.076,2.332,3.383,1.255,5.152l0,0c-1.076,1.77-3.383,2.332-5.153,1.255l0,0
			c-1.77-1.076-2.332-3.383-1.255-5.152l0,0C105.84,137.275,108.146,136.714,109.917,137.79L109.917,137.79z"/>
		<path style="fill:#FFFFFF;" d="M110.483,128.653c1.77,1.076,2.332,3.383,1.255,5.153l0,0c-1.077,1.77-3.383,2.332-5.152,1.255l0,0
			c-1.77-1.077-2.332-3.383-1.255-5.153l0,0C106.408,128.139,108.714,127.577,110.483,128.653L110.483,128.653z"/>
		<path style="fill:#FFFFFF;" d="M112.685,120.284c1.77,1.077,2.332,3.383,1.255,5.153l0,0c-1.076,1.77-3.383,2.332-5.152,1.255l0,0
			c-1.77-1.076-2.332-3.383-1.255-5.153l0,0C108.609,119.77,110.916,119.208,112.685,120.284L112.685,120.284z"/>
		<path style="fill:#FFFFFF;" d="M116.824,112.069c1.77,1.076,2.332,3.383,1.255,5.152l0,0c-1.076,1.77-3.382,2.332-5.152,1.255l0,0
			c-1.77-1.077-2.332-3.383-1.255-5.152l0,0C112.749,111.555,115.055,110.993,116.824,112.069L116.824,112.069z"/>
	</g>
	<g>
		<g>
			<path style="fill:#FFFFFF;" d="M117,283.334c0.437-43.795,43.348-70.542,83.5-70.834c-0.589-2.174-1.178-4.348-1.767-6.522
				c-8.617,4.732-17.234,9.464-25.851,14.196c-5.84,3.207-11.68,6.414-17.52,9.621c-2.215,1.216-6.537,2.553-8.163,4.641
				c-12.058,15.475-24.116,30.949-36.175,46.424c-2.739,3.515,2.178,8.507,4.95,4.949c12.04-15.451,24.08-30.902,36.121-46.354
				c-0.902,1.158,0.277-0.033,1.206-0.543c1.865-1.024,3.729-2.048,5.594-3.072c5.84-3.207,11.68-6.414,17.521-9.621
				c8.617-4.731,17.234-9.464,25.851-14.195c3.075-1.688,1.67-6.548-1.767-6.522c-44.021,0.32-90.026,30.175-90.5,77.834
				C109.955,287.85,116.955,287.846,117,283.334z"/>
		</g>
	</g>
	<g>
		<g>
			<path style="fill:#FFFFFF;" d="M112.066,287.771c10.331-31.85-5.132-67.154-37.233-78.431c-2.731-0.959-5.827,2.7-3.953,5.142
				c4.246,5.531,8.493,11.063,12.739,16.595c2.727,3.552,5.453,7.104,8.18,10.655c0.889,1.158,1.778,2.317,2.667,3.476
				c0.911,1.187,0.417,0.411,0.39,0.304c3.486,14.087,6.973,28.173,10.459,42.26c1.084,4.38,7.834,2.521,6.75-1.861
				c-3.486-14.086-6.973-28.173-10.459-42.259c-0.409-1.653-1.937-3.073-2.939-4.379c-2.799-3.646-5.599-7.293-8.398-10.939
				c-4.448-5.795-8.896-11.589-13.345-17.384c-1.317,1.714-2.635,3.428-3.953,5.142c28.626,10.056,41.436,41.789,32.344,69.819
				C103.92,290.216,110.68,292.045,112.066,287.771z"/>
		</g>
	</g>
</g>
<g id="Ebene_1">
</g>
</svg>
