<?xml version="1.0" encoding="iso-8859-1"?>
<!-- Generator: Adobe Illustrator 16.0.0, SVG Export Plug-In . SVG Version: 6.00 Build 0)  -->
<!DOCTYPE svg PUBLIC "-//W3C//DTD SVG 1.1//EN" "http://www.w3.org/Graphics/SVG/1.1/DTD/svg11.dtd">
<svg version="1.1" xmlns="http://www.w3.org/2000/svg" xmlns:xlink="http://www.w3.org/1999/xlink" x="0px" y="0px" width="361px"
	 height="361px" viewBox="0 0 361 361" style="enable-background:new 0 0 361 361;" xml:space="preserve">
<g id="weather_x5F_cloudy_x5F_heavy">
	<g>
		<g>
			<path style="fill:#FFFFFF;" d="M189.73,78.854c4.969,4.97,9.938,9.939,14.908,14.909c4.563,4.563,11.634-2.507,7.07-7.071
				c-4.969-4.97-9.938-9.939-14.908-14.909C192.237,67.219,185.167,74.29,189.73,78.854L189.73,78.854z"/>
		</g>
	</g>
	<g>
		<g>
			<path style="fill:#FFFFFF;" d="M159.02,124.956c13.197,0,26.394,0,39.59,0c6.448,0,6.448-10,0-10c-13.196,0-26.393,0-39.59,0
				C152.571,114.956,152.571,124.956,159.02,124.956L159.02,124.956z"/>
		</g>
	</g>
	<g>
		<g>
			<path style="fill:#FFFFFF;" d="M289.748,163.548c-5.012-5.012-10.024-10.024-15.037-15.037c-4.563-4.563-11.635,2.507-7.07,7.071
				c5.012,5.012,10.024,10.024,15.037,15.037C287.241,175.183,294.313,168.112,289.748,163.548L289.748,163.548z"/>
		</g>
	</g>
	<g>
		<g>
			<path style="fill:#FFFFFF;" d="M245.266,201.201c0-13.196,0-26.392,0-39.588c0-6.449-10-6.449-10,0c0,13.196,0,26.392,0,39.588
				C235.266,207.649,245.266,207.649,245.266,201.201L245.266,201.201z"/>
		</g>
	</g>
	<g>
		<g>
			<path style="fill:#FFFFFF;" d="M184.896,183.576c9.332-9.331,18.663-18.663,27.994-27.994c4.564-4.564-2.507-11.635-7.07-7.071
				c-9.332,9.332-18.663,18.663-27.995,27.995C173.262,181.069,180.333,188.141,184.896,183.576L184.896,183.576z"/>
		</g>
	</g>
	<g>
		<g>
			<path style="fill:#FFFFFF;" d="M159.02,124.956c13.197,0,26.394,0,39.59,0c6.448,0,6.448-10,0-10c-13.196,0-26.393,0-39.59,0
				C152.571,114.956,152.571,124.956,159.02,124.956L159.02,124.956z"/>
		</g>
	</g>
	<g>
		<g>
			<path style="fill:#FFFFFF;" d="M245.266,201.201c0-13.196,0-26.392,0-39.588c0-6.449-10-6.449-10,0c0,13.196,0,26.392,0,39.588
				C235.266,207.649,245.266,207.649,245.266,201.201L245.266,201.201z"/>
		</g>
	</g>
	<g>
		<g>
			<path style="fill:#FFFFFF;" d="M184.896,183.576c9.332-9.331,18.663-18.663,27.994-27.994c4.564-4.564-2.507-11.635-7.07-7.071
				c-9.332,9.332-18.663,18.663-27.995,27.995C173.262,181.069,180.333,188.141,184.896,183.576L184.896,183.576z"/>
		</g>
	</g>
	<g>
		<g>
			<path style="fill:#FFFFFF;" d="M186.519,103.698c3.716,1.54,7.431,3.079,11.146,4.618c2.522,1.045,5.495-1.11,6.15-3.492
				c0.791-2.875-0.977-5.108-3.492-6.15c-3.716-1.54-7.431-3.079-11.146-4.618c-2.522-1.045-5.495,1.11-6.15,3.492
				C182.235,100.422,184.003,102.656,186.519,103.698L186.519,103.698z"/>
		</g>
	</g>
	<g>
		<g>
			<path style="fill:#FFFFFF;" d="M189.515,147.896c3.716-1.539,7.431-3.078,11.146-4.617c2.516-1.042,4.283-3.275,3.492-6.15
				c-0.655-2.382-3.628-4.537-6.15-3.492c-3.716,1.539-7.431,3.078-11.146,4.617c-2.516,1.042-4.283,3.275-3.492,6.15
				C184.02,146.787,186.992,148.941,189.515,147.896L189.515,147.896z"/>
		</g>
	</g>
	<g>
		<g>
			<path style="fill:#FFFFFF;" d="M223.675,173.38c1.539-3.715,3.078-7.431,4.617-11.147c1.045-2.523-1.109-5.495-3.492-6.15
				c-2.875-0.791-5.108,0.976-6.15,3.492c-1.539,3.715-3.078,7.431-4.617,11.147c-1.045,2.523,1.109,5.495,3.492,6.15
				C220.399,177.664,222.633,175.896,223.675,173.38L223.675,173.38z"/>
		</g>
	</g>
	<g>
		<g>
			<path style="fill:#FFFFFF;" d="M266.182,170.722c-1.539-3.716-3.079-7.432-4.618-11.147c-1.042-2.516-3.275-4.283-6.15-3.492
				c-2.382,0.655-4.537,3.628-3.492,6.15c1.539,3.716,3.079,7.432,4.618,11.147c1.042,2.516,3.275,4.283,6.15,3.492
				C265.071,176.217,267.227,173.245,266.182,170.722L266.182,170.722z"/>
		</g>
	</g>
	<g>
		<g>
			<path style="fill:#FFFFFF;" d="M214.063,76.547c0.852,2.056,1.704,4.112,2.556,6.168c1.042,2.516,3.275,4.283,6.15,3.492
				c2.382-0.655,4.537-3.628,3.492-6.15c-0.852-2.056-1.704-4.112-2.556-6.168c-1.042-2.516-3.275-4.283-6.15-3.492
				C215.174,71.052,213.019,74.025,214.063,76.547L214.063,76.547z"/>
		</g>
	</g>
	<g>
		<g>
			<path style="fill:#FFFFFF;" d="M287.973,134.951c-2.146-0.889-4.294-1.778-6.44-2.667c-2.522-1.045-5.495,1.11-6.15,3.492
				c-0.791,2.875,0.977,5.108,3.492,6.15c2.146,0.889,4.294,1.778,6.44,2.667c2.522,1.045,5.495-1.11,6.15-3.492
				C292.256,138.226,290.488,135.993,287.973,134.951L287.973,134.951z"/>
		</g>
	</g>
	<path style="fill:#FFFFFF;stroke:#FFFFFF;stroke-width:10;stroke-miterlimit:10;" d="M195.99,211.91
		c0,4.428-3.223,8.018-7.197,8.018h-55.772c-3.974,0-7.196-3.59-7.196-8.018v-58.137c0-4.429,3.222-8.019,7.196-8.019h55.772
		c3.975,0,7.197,3.59,7.197,8.019V211.91z"/>
	<path style="fill:#FFFFFF;stroke:#FFFFFF;stroke-width:10;stroke-miterlimit:10;" d="M90.408,194.862
		c0,4.429,3.591,8.019,8.019,8.019h37.421c4.428,0,8.019-3.59,8.019-8.019v-22.72c0-4.428-3.591-8.019-8.019-8.019H98.427
		c-4.428,0-8.019,3.59-8.019,8.019V194.862z"/>
	<path style="fill:#FFFFFF;stroke:#FFFFFF;stroke-width:10;stroke-miterlimit:10;" d="M74.37,194.862
		c0-4.429,3.59-8.019,8.019-8.019h46.108c4.428,0,8.019,3.59,8.019,8.019v12.696c0,4.429-3.591,8.02-8.019,8.02H82.389
		c-4.429,0-8.019-3.591-8.019-8.02V194.862z"/>
	<path style="fill:#FFFFFF;stroke:#FFFFFF;stroke-width:10;stroke-miterlimit:10;" d="M249.672,222.928
		c0,4.43-3.222,8.02-7.195,8.02h-55.773c-3.974,0-7.196-3.59-7.196-8.02v-58.136c0-4.428,3.223-8.019,7.196-8.019h55.773
		c3.974,0,7.195,3.59,7.195,8.019V222.928z"/>
	<path style="fill:#FFFFFF;stroke:#FFFFFF;stroke-width:10;stroke-miterlimit:10;" d="M233.411,209.246
		c0,4.428,3.591,8.02,8.019,8.02h37.422c4.428,0,8.019-3.592,8.019-8.02v-22.721c0-4.428-3.591-8.019-8.019-8.019H241.43
		c-4.428,0-8.019,3.591-8.019,8.019V209.246z"/>
	<path style="fill:#FFFFFF;stroke:#FFFFFF;stroke-width:10;stroke-miterlimit:10;" d="M201.559,232.283
		c0,4.43-3.222,8.02-7.195,8.02H138.59c-3.974,0-7.197-3.59-7.197-8.02v-58.136c0-4.428,3.223-8.019,7.197-8.019h55.773
		c3.974,0,7.195,3.591,7.195,8.019V232.283z"/>
	<path style="fill:none;stroke:#FFFFFF;stroke-width:10;stroke-miterlimit:10;" d="M264.783,128.638
		c0,7.845-6.361,14.206-14.206,14.206h-18.275c-7.845,0-14.206-6.36-14.206-14.206v-17.363c0-7.846,6.361-14.206,14.206-14.206
		h18.275c7.845,0,14.206,6.36,14.206,14.206V128.638z"/>
	<path style="fill:#FFFFFF;stroke:#FFFFFF;stroke-width:10;stroke-miterlimit:10;" d="M187.023,142.405
		c0-4.428,3.59-8.019,8.019-8.019h46.108c4.428,0,8.02,3.59,8.02,8.019v12.696c0,4.429-3.592,8.02-8.02,8.02h-46.108
		c-4.429,0-8.019-3.591-8.019-8.02V142.405z"/>
	<path style="fill:#FFFFFF;stroke:#FFFFFF;stroke-width:10;stroke-miterlimit:10;" d="M255.518,135.694
		c4.429,0,8.02,3.59,8.02,8.019v46.109c0,4.428-3.591,8.019-8.02,8.019h-12.695c-4.43,0-8.02-3.591-8.02-8.019v-46.109
		c0-4.429,3.59-8.019,8.02-8.019H255.518z"/>
	<path style="fill:#FFFFFF;stroke:#FFFFFF;stroke-width:10;stroke-miterlimit:10;" d="M176.826,136.462
		c-4.429,0-8.019,3.591-8.019,8.019v37.421c0,4.428,3.59,8.02,8.019,8.02h22.72c4.429,0,8.019-3.592,8.019-8.02v-37.421
		c0-4.428-3.59-8.019-8.019-8.019H176.826z"/>
	<path style="fill:#FFFFFF;stroke:#FFFFFF;stroke-width:10;stroke-miterlimit:10;" d="M192.398,172.823
		c0,6.257,5.073,11.329,11.33,11.329h52.869c6.256,0,11.33-5.072,11.33-11.329v-32.1c0-6.256-5.074-11.329-11.33-11.329h-52.869
		c-6.257,0-11.33,5.073-11.33,11.329V172.823z"/>
	<path style="fill:#FFFFFF;stroke:#FFFFFF;stroke-width:10;stroke-miterlimit:10;" d="M263.464,240.42
		c0,4.01-3.048,7.261-6.808,7.261h-52.768c-3.76,0-6.809-3.251-6.809-7.261v-52.65c0-4.012,3.049-7.263,6.809-7.263h52.768
		c3.76,0,6.808,3.251,6.808,7.263V240.42z"/>
	<path style="fill:#FFFFFF;stroke:#FFFFFF;stroke-width:10;stroke-miterlimit:10;" d="M275.572,177.813
		c0,2.085-1.517,3.776-3.389,3.776h-26.265c-1.872,0-3.39-1.69-3.39-3.776v-27.378c0-2.085,1.518-3.776,3.39-3.776h26.265
		c1.872,0,3.389,1.691,3.389,3.776V177.813z"/>
	<path style="fill:#FFFFFF;stroke:#FFFFFF;stroke-width:10;stroke-miterlimit:10;" d="M165.246,238.663
		c0,4.428-3.222,8.018-7.196,8.018h-55.772c-3.974,0-7.196-3.59-7.196-8.018v-58.137c0-4.429,3.222-8.019,7.196-8.019h55.772
		c3.975,0,7.196,3.59,7.196,8.019V238.663z"/>
	<path style="fill:#FFFFFF;stroke:#FFFFFF;stroke-width:10;stroke-miterlimit:10;" d="M165.246,238.663
		c0,4.428-3.222,8.018-7.196,8.018h-55.772c-3.974,0-7.196-3.59-7.196-8.018v-58.137c0-4.429,3.222-8.019,7.196-8.019h55.772
		c3.975,0,7.196,3.59,7.196,8.019V238.663z"/>
	<path style="fill:#FFFFFF;stroke:#FFFFFF;stroke-width:10;stroke-miterlimit:10;" d="M129.745,248.945
		c0,3.683,2.986,6.668,6.669,6.668h31.122c3.683,0,6.669-2.985,6.669-6.668v-18.896c0-3.682-2.986-6.668-6.669-6.668h-31.122
		c-3.683,0-6.669,2.986-6.669,6.668V248.945z"/>
</g>
<g id="Ebene_1">
</g>
</svg>
