<?xml version="1.0" encoding="iso-8859-1"?>
<!-- Generator: Adobe Illustrator 16.0.0, SVG Export Plug-In . SVG Version: 6.00 Build 0)  -->
<!DOCTYPE svg PUBLIC "-//W3C//DTD SVG 1.1 Tiny//EN" "http://www.w3.org/Graphics/SVG/1.1/DTD/svg11-tiny.dtd">
<svg version="1.1" baseProfile="tiny" id="weather_x5F_moonset"
	 xmlns="http://www.w3.org/2000/svg" xmlns:xlink="http://www.w3.org/1999/xlink" x="0px" y="0px" width="361px" height="361px"
	 viewBox="0 0 361 361" xml:space="preserve">
<g>
	<g>
		<path fill="#FFFFFF" d="M108.139,261.736c-18.347-16.766-29.54-39.664-31.008-64.525c-1.458-24.688,7.375-49.103,23.741-67.538
			c4.265-4.804-2.782-11.903-7.071-7.071c-18.243,20.55-27.918,47.105-26.669,74.609c1.24,27.315,13.821,53.213,33.937,71.596
			C105.816,273.147,112.908,266.095,108.139,261.736L108.139,261.736z"/>
	</g>
	<g>
		<path fill="#FFFFFF" d="M239.89,254.19c-16.767,18.347-39.665,29.54-64.526,31.009c-24.687,1.458-49.102-7.375-67.537-23.741
			c-4.804-4.265-11.903,2.782-7.071,7.071c20.55,18.243,47.105,27.918,74.608,26.669c27.316-1.241,53.213-13.822,71.597-33.938
			C251.301,256.512,244.249,249.42,239.89,254.19L239.89,254.19z"/>
	</g>
	<g>
		<path fill="#FFFFFF" d="M240.902,253.408c-17.335,8.139-37.751,8.072-56.231,4.594c-19.218-3.617-38.575-11.526-53.322-24.597
			c-4.425-3.922-10.149,0.935-7.853,6.059c0.027,0.061,0.055,0.122,0.082,0.183c2.618-2.02,5.235-4.039,7.853-6.059
			c-14.319-13.138-22.854-31.169-27.803-49.713c-4.859-18.208-6.152-38.121-1.552-56.509c1.565-6.258-8.079-8.912-9.643-2.658
			c-5.064,20.245-3.585,41.752,1.552,61.826c5.138,20.076,14.955,39.978,30.375,54.125c4.386,4.024,10.125-0.988,7.853-6.059
			c-0.027-0.061-0.055-0.122-0.082-0.183c-2.618,2.02-5.235,4.039-7.853,6.059c16.137,14.302,36.735,22.983,57.734,27.168
			c21.213,4.229,44.11,3.707,63.937-5.602C251.783,259.304,246.703,250.685,240.902,253.408L240.902,253.408z"/>
	</g>
</g>
<g>
	<path fill="none" stroke="#FFFFFF" stroke-width="10" stroke-miterlimit="10" d="M263.04,100.884c2.141,0,3.876-0.542,3.875-1.209
		l0-20.969c0-0.668-1.736-1.21-3.876-1.21h-75.571c-2.14,0-3.875,0.542-3.875,1.21l0,20.969c0,0.667,1.735,1.209,3.874,1.209H263.04
		z"/>
	<g>
		<path fill="#FFFFFF" d="M162.783,103.926c19.552,25.582,39.104,51.163,58.656,76.744c2.429,3.178,6.206,3.178,8.635,0
			c19.552-25.581,39.104-51.163,58.656-76.744c2.39-3.126-0.882-7.523-4.317-7.523c-39.104,0-78.208,0-117.312,0
			c-6.449,0-6.449,10,0,10c39.104,0,78.208,0,117.312,0c-1.439-2.508-2.878-5.016-4.317-7.523
			c-19.552,25.581-39.104,51.163-58.656,76.744c2.878,0,5.756,0,8.635,0c-19.552-25.582-39.104-51.163-58.656-76.744
			C167.558,93.83,158.865,98.801,162.783,103.926z"/>
	</g>
</g>
</svg>
