<?xml version="1.0" encoding="iso-8859-1"?>
<!-- Generator: Adobe Illustrator 16.0.0, SVG Export Plug-In . SVG Version: 6.00 Build 0)  -->
<!DOCTYPE svg PUBLIC "-//W3C//DTD SVG 1.1//EN" "http://www.w3.org/Graphics/SVG/1.1/DTD/svg11.dtd">
<svg version="1.1" xmlns="http://www.w3.org/2000/svg" xmlns:xlink="http://www.w3.org/1999/xlink" x="0px" y="0px" width="361px"
	 height="361px" viewBox="0 0 361 361" style="enable-background:new 0 0 361 361;" xml:space="preserve">
<g id="weather_x5F_sun">
	<g>
		<g>
			<path style="fill:#FFFFFF;" d="M146.098,78.902c7.345,7.345,14.69,14.689,22.035,22.035c4.564,4.563,11.635-2.507,7.071-7.071
				c-7.345-7.345-14.69-14.689-22.035-22.035C148.605,67.268,141.535,74.338,146.098,78.902L146.098,78.902z"/>
		</g>
	</g>
	<g>
		<g>
			<path style="fill:#FFFFFF;" d="M99.02,146.338c19.504,0,39.008,0,58.512,0c6.449,0,6.449-10,0-10c-19.504,0-39.008,0-58.512,0
				C92.571,136.338,92.571,146.338,99.02,146.338L99.02,146.338z"/>
		</g>
	</g>
	<g>
		<g>
			<path style="fill:#FFFFFF;" d="M290.542,207.457c-7.407-7.408-14.815-14.816-22.224-22.224c-4.563-4.564-11.635,2.507-7.07,7.07
				c7.407,7.408,14.815,14.816,22.224,22.224C288.035,219.092,295.106,212.021,290.542,207.457L290.542,207.457z"/>
		</g>
	</g>
	<g>
		<g>
			<path style="fill:#FFFFFF;" d="M224.099,261.417c0-19.504,0-39.007,0-58.511c0-6.448-10-6.448-10,0c0,19.504,0,39.007,0,58.511
				C214.099,267.865,224.099,267.865,224.099,261.417L224.099,261.417z"/>
		</g>
	</g>
	<g>
		<g>
			<path style="fill:#FFFFFF;" d="M135.576,233.678c13.792-13.791,27.583-27.583,41.375-41.375c4.563-4.563-2.507-11.634-7.071-7.07
				c-13.792,13.791-27.583,27.583-41.375,41.375C123.941,231.171,131.012,238.242,135.576,233.678L135.576,233.678z"/>
		</g>
	</g>
	<g>
		<g>
			<path style="fill:#FFFFFF;" d="M99.02,146.338c19.504,0,39.008,0,58.512,0c6.449,0,6.449-10,0-10c-19.504,0-39.008,0-58.512,0
				C92.571,136.338,92.571,146.338,99.02,146.338L99.02,146.338z"/>
		</g>
	</g>
	<g>
		<g>
			<path style="fill:#FFFFFF;" d="M224.099,261.417c0-19.504,0-39.007,0-58.511c0-6.448-10-6.448-10,0c0,19.504,0,39.007,0,58.511
				C214.099,267.865,224.099,267.865,224.099,261.417L224.099,261.417z"/>
		</g>
	</g>
	<g>
		<g>
			<path style="fill:#FFFFFF;" d="M135.576,233.678c13.792-13.791,27.583-27.583,41.375-41.375c4.563-4.563-2.507-11.634-7.071-7.07
				c-13.792,13.791-27.583,27.583-41.375,41.375C123.941,231.171,131.012,238.242,135.576,233.678L135.576,233.678z"/>
		</g>
	</g>
	<g>
		<g>
			<path style="fill:#FFFFFF;" d="M140.297,115.006c5.492,2.275,10.983,4.55,16.475,6.824c2.523,1.045,5.495-1.11,6.15-3.492
				c0.791-2.875-0.976-5.108-3.492-6.15c-5.492-2.275-10.983-4.55-16.475-6.824c-2.523-1.045-5.495,1.11-6.15,3.492
				C136.014,111.73,137.781,113.964,140.297,115.006L140.297,115.006z"/>
		</g>
	</g>
	<g>
		<g>
			<path style="fill:#FFFFFF;" d="M143.455,180.33c5.492-2.274,10.983-4.549,16.475-6.824c2.516-1.042,4.283-3.275,3.492-6.15
				c-0.655-2.382-3.627-4.537-6.15-3.492c-5.492,2.274-10.983,4.549-16.475,6.824c-2.516,1.042-4.283,3.275-3.492,6.15
				C137.96,179.22,140.932,181.375,143.455,180.33L143.455,180.33z"/>
		</g>
	</g>
	<g>
		<g>
			<path style="fill:#FFFFFF;" d="M192.272,219.663c2.274-5.491,4.55-10.983,6.824-16.475c1.045-2.522-1.109-5.495-3.492-6.15
				c-2.875-0.791-5.108,0.977-6.15,3.492c-2.274,5.491-4.55,10.983-6.824,16.475c-1.045,2.522,1.109,5.495,3.492,6.15
				C188.997,223.946,191.23,222.179,192.272,219.663L192.272,219.663z"/>
		</g>
	</g>
	<g>
		<g>
			<path style="fill:#FFFFFF;" d="M255.097,217.005c-2.274-5.491-4.55-10.983-6.824-16.475c-1.042-2.516-3.275-4.283-6.15-3.492
				c-2.383,0.655-4.537,3.628-3.492,6.15c2.274,5.491,4.55,10.983,6.824,16.475c1.042,2.516,3.275,4.283,6.15,3.492
				C253.987,222.5,256.142,219.527,255.097,217.005L255.097,217.005z"/>
		</g>
	</g>
	<g>
		<g>
			<path style="fill:#FFFFFF;" d="M182.678,76.547c1.259,3.039,2.518,6.078,3.776,9.116c1.042,2.516,3.275,4.283,6.15,3.492
				c2.383-0.655,4.537-3.627,3.492-6.15c-1.259-3.039-2.518-6.078-3.776-9.116c-1.042-2.516-3.275-4.283-6.15-3.492
				C183.787,71.052,181.633,74.024,182.678,76.547L182.678,76.547z"/>
		</g>
	</g>
	<g>
		<g>
			<path style="fill:#FFFFFF;" d="M288.972,165.805c-3.173-1.314-6.345-2.628-9.518-3.942c-2.522-1.045-5.495,1.11-6.15,3.492
				c-0.791,2.875,0.977,5.108,3.492,6.15c3.173,1.314,6.345,2.628,9.518,3.942c2.522,1.045,5.495-1.11,6.15-3.492
				C293.255,169.081,291.487,166.847,288.972,165.805L288.972,165.805z"/>
		</g>
	</g>
	<path style="fill:none;stroke:#FFFFFF;stroke-width:10;stroke-miterlimit:10;" d="M260.535,156.005c0,13.255-10.744,24-24,24
		h-30.873c-13.256,0-24-10.745-24-24v-29.333c0-13.255,10.744-24,24-24h30.873c13.256,0,24,10.745,24,24V156.005z"/>
</g>
<g id="Ebene_1">
</g>
</svg>
