<?xml version="1.0" encoding="iso-8859-1"?>
<!-- Generator: Adobe Illustrator 16.0.0, SVG Export Plug-In . SVG Version: 6.00 Build 0)  -->
<!DOCTYPE svg PUBLIC "-//W3C//DTD SVG 1.1//EN" "http://www.w3.org/Graphics/SVG/1.1/DTD/svg11.dtd">
<svg version="1.1" xmlns="http://www.w3.org/2000/svg" xmlns:xlink="http://www.w3.org/1999/xlink" x="0px" y="0px" width="361px"
	 height="361px" viewBox="0 0 361 361" style="enable-background:new 0 0 361 361;" xml:space="preserve">
<g id="weather_x5F_humidity_x5F_abs">
	<path style="fill:none;stroke:#FFFFFF;stroke-width:10;stroke-miterlimit:10;" d="M196.834,127.992
		c0,9.084-7.363,16.449-16.449,16.449c-9.084,0-16.449-7.364-16.449-16.449c0-3.474,1.22-6.311,2.303-9.353
		c1.93-5.413,8.535-24.488,14.146-24.488c5.624,0,12.522,19.84,14.167,24.52C195.619,121.706,196.834,124.531,196.834,127.992z"/>
	<path style="fill:none;stroke:#FFFFFF;stroke-width:10;stroke-miterlimit:10;" d="M174.78,201.508
		c0,9.085-7.365,16.449-16.45,16.449c-9.084,0-16.449-7.364-16.449-16.449c0-3.475,1.219-6.312,2.304-9.353
		c1.93-5.413,8.535-24.489,14.145-24.489c5.624,0,12.522,19.84,14.167,24.519C173.564,195.221,174.78,198.046,174.78,201.508z"/>
	<path style="fill:none;stroke:#FFFFFF;stroke-width:10;stroke-miterlimit:10;" d="M125.892,225.797c0,2.369-2.291,4.29-5.115,4.29
		H80.282c-2.825,0-5.115-1.921-5.115-4.29V78.891c0-2.369,2.291-4.29,5.115-4.29h40.495c2.825,0,5.115,1.921,5.115,4.29V225.797z"/>
	<path style="fill:#FFFFFF;" d="M116.702,152.251c0,9.085-7.364,16.45-16.449,16.45c-9.084,0-16.449-7.364-16.449-16.45
		c0-3.474,1.22-6.31,2.304-9.352c1.93-5.413,8.536-24.488,14.146-24.488c5.624,0,12.522,19.84,14.167,24.519
		C115.486,145.965,116.702,148.791,116.702,152.251z"/>
	<g>
		<path style="fill:#FFFFFF;" d="M192.273,276.374c0,5.16-1.311,8.989-3.931,11.489s-6.67,3.75-12.15,3.75
			c-1.92,0-3.84-0.17-5.76-0.51s-3.7-0.79-5.34-1.35l1.56-7.5c1.4,0.56,2.87,1,4.41,1.32c1.54,0.319,3.29,0.48,5.25,0.48
			c2.56,0,4.37-0.562,5.43-1.681c1.06-1.12,1.59-2.56,1.59-4.319v-1.141c-0.96,0.44-1.95,0.771-2.97,0.99
			c-1.02,0.221-2.13,0.33-3.33,0.33c-4.36,0-7.701-1.291-10.02-3.871c-2.32-2.579-3.48-6.188-3.48-10.829
			c0-2.319,0.36-4.43,1.08-6.33c0.72-1.899,1.77-3.53,3.15-4.89c1.38-1.359,3.069-2.41,5.07-3.15c2-0.74,4.26-1.109,6.78-1.109
			c1.08,0,2.19,0.05,3.331,0.149c1.14,0.101,2.27,0.23,3.39,0.39c1.119,0.16,2.19,0.352,3.21,0.57c1.02,0.221,1.93,0.449,2.73,0.689
			V276.374z M172.653,263.534c0,5.001,2.02,7.5,6.06,7.5c0.92,0,1.779-0.12,2.58-0.36c0.8-0.24,1.479-0.52,2.04-0.84v-14.279
			c-0.44-0.08-0.96-0.15-1.56-0.211c-0.601-0.06-1.301-0.09-2.101-0.09c-2.36,0-4.12,0.78-5.28,2.34
			C173.232,259.154,172.653,261.134,172.653,263.534z"/>
		<path style="fill:#FFFFFF;" d="M204.152,291.434h-9.18l20.166-58.08h9.055L204.152,291.434z"/>
		<path style="fill:#FFFFFF;" d="M242.313,263.594c0-2.88-0.37-4.92-1.109-6.119c-0.741-1.201-2.011-1.801-3.811-1.801
			c-0.561,0-1.141,0.03-1.74,0.09c-0.6,0.061-1.18,0.131-1.74,0.211v24.359h-8.939v-30.48c0.76-0.199,1.65-0.409,2.67-0.629
			c1.02-0.221,2.1-0.42,3.24-0.601c1.14-0.181,2.31-0.319,3.51-0.42c1.199-0.1,2.379-0.149,3.54-0.149c2.28,0,4.13,0.29,5.55,0.869
			c1.42,0.58,2.59,1.271,3.51,2.07c1.279-0.92,2.75-1.64,4.41-2.16c1.66-0.52,3.189-0.779,4.59-0.779c2.521,0,4.59,0.35,6.211,1.049
			c1.619,0.701,2.909,1.691,3.869,2.971c0.96,1.28,1.62,2.801,1.98,4.56c0.359,1.761,0.539,3.72,0.539,5.88v17.82h-8.939v-16.74
			c0-2.88-0.37-4.92-1.109-6.119c-0.741-1.201-2.011-1.801-3.811-1.801c-0.48,0-1.15,0.12-2.01,0.36
			c-0.861,0.239-1.57,0.54-2.131,0.899c0.28,0.921,0.46,1.891,0.541,2.91c0.079,1.02,0.119,2.11,0.119,3.27v17.221h-8.939V263.594z"
			/>
		<path style="fill:#FFFFFF;" d="M281.433,257.055c1.399,0,2.38-0.211,2.94-0.631c0.559-0.42,0.84-0.949,0.84-1.59
			c0-1.64-1.4-2.46-4.2-2.46h-2.46v-4.92h2.46c0.919,0,1.681-0.181,2.28-0.54s0.9-0.9,0.9-1.62c0-1.28-0.881-1.92-2.641-1.92
			c-0.921,0-1.84,0.149-2.76,0.45c-0.921,0.3-1.801,0.65-2.641,1.05l-2.279-4.74c0.999-0.64,2.25-1.189,3.75-1.649
			s2.97-0.69,4.41-0.69c1.599,0,2.949,0.181,4.049,0.54s1.98,0.85,2.641,1.471c0.66,0.62,1.13,1.34,1.41,2.159
			c0.279,0.82,0.42,1.671,0.42,2.55c0,0.84-0.19,1.641-0.57,2.4c-0.381,0.76-1.03,1.5-1.949,2.22c1.279,0.601,2.209,1.401,2.789,2.4
			c0.58,1,0.871,2.12,0.871,3.36c0,1.08-0.181,2.1-0.541,3.06c-0.359,0.96-0.939,1.79-1.74,2.489
			c-0.801,0.701-1.85,1.252-3.149,1.65c-1.3,0.4-2.89,0.6-4.771,0.6c-0.68,0-1.39-0.039-2.129-0.119
			c-0.741-0.08-1.471-0.199-2.19-0.36c-0.72-0.159-1.391-0.33-2.011-0.51c-0.62-0.181-1.17-0.39-1.649-0.63l1.38-5.34
			c1.359,0.561,2.51,0.92,3.45,1.08C279.282,256.975,280.313,257.055,281.433,257.055z"/>
	</g>
</g>
<g id="Ebene_1">
</g>
</svg>
