<?xml version="1.0" encoding="iso-8859-1"?>
<!-- Generator: Adobe Illustrator 16.0.0, SVG Export Plug-In . SVG Version: 6.00 Build 0)  -->
<!DOCTYPE svg PUBLIC "-//W3C//DTD SVG 1.1 Tiny//EN" "http://www.w3.org/Graphics/SVG/1.1/DTD/svg11-tiny.dtd">
<svg version="1.1" baseProfile="tiny" id="weather_x5F_winter"
	 xmlns="http://www.w3.org/2000/svg" xmlns:xlink="http://www.w3.org/1999/xlink" x="0px" y="0px" width="361px" height="361px"
	 viewBox="0 0 361 361" xml:space="preserve">
<g>
	<g>
		<path fill="#FFFFFF" d="M239.53,150.697c0,12.846,0,25.693,0,38.539c0,6.449,10,6.449,10,0c0-12.846,0-25.693,0-38.539
			C249.53,144.248,239.53,144.248,239.53,150.697L239.53,150.697z"/>
	</g>
	<g>
		<path fill="#FFFFFF" d="M230.792,158.894c3.745,2.162,7.49,4.324,11.235,6.486c5.595,3.23,10.628-5.413,5.047-8.635
			c-3.745-2.162-7.49-4.324-11.235-6.486C230.244,147.029,225.21,155.671,230.792,158.894L230.792,158.894z"/>
	</g>
	<g>
		<path fill="#FFFFFF" d="M253.094,150.259c-3.746,2.162-7.491,4.324-11.236,6.486c-5.582,3.222-0.548,11.865,5.047,8.635
			c3.746-2.162,7.491-4.324,11.236-6.486C263.722,155.671,258.689,147.029,253.094,150.259L253.094,150.259z"/>
	</g>
</g>
<g>
	<g>
		<path fill="#FFFFFF" d="M208.497,173.84c11.125,6.423,22.251,12.846,33.376,19.27c5.595,3.23,10.628-5.413,5.047-8.635
			c-11.125-6.423-22.251-12.846-33.376-19.27C207.949,161.975,202.915,170.618,208.497,173.84L208.497,173.84z"/>
	</g>
	<g>
		<path fill="#FFFFFF" d="M211.296,185.492c3.746-2.162,7.491-4.325,11.236-6.487c5.582-3.222,0.548-11.865-5.047-8.635
			c-3.746,2.162-7.491,4.325-11.236,6.487C200.668,180.079,205.702,188.722,211.296,185.492L211.296,185.492z"/>
	</g>
	<g>
		<path fill="#FFFFFF" d="M214.924,161.861c0,4.325,0,8.649-0.001,12.974c0,6.449,10,6.449,10,0c0-4.325,0-8.649,0.001-12.974
			C224.925,155.412,214.925,155.412,214.924,161.861L214.924,161.861z"/>
	</g>
</g>
<g>
	<g>
		<path fill="#FFFFFF" d="M213.628,212.354c11.125-6.424,22.251-12.847,33.376-19.271c5.582-3.223,0.548-11.865-5.047-8.635
			c-11.125,6.424-22.251,12.847-33.376,19.271C203,206.941,208.034,215.584,213.628,212.354L213.628,212.354z"/>
	</g>
	<g>
		<path fill="#FFFFFF" d="M225.072,215.807c0-4.324,0-8.648,0-12.973c0-6.449-10-6.449-10,0c0,4.324,0,8.648,0,12.973
			C215.072,222.255,225.072,222.255,225.072,215.807L225.072,215.807z"/>
	</g>
	<g>
		<path fill="#FFFFFF" d="M206.397,200.811c3.745,2.163,7.491,4.325,11.236,6.487c5.595,3.23,10.628-5.413,5.047-8.635
			c-3.745-2.163-7.491-4.325-11.236-6.487C205.85,188.946,200.816,197.589,206.397,200.811L206.397,200.811z"/>
	</g>
</g>
<g>
	<g>
		<path fill="#FFFFFF" d="M249.487,227.444c0-12.847,0-25.693,0-38.54c0-6.449-10-6.449-10,0c0,12.847,0,25.693,0,38.54
			C239.487,233.893,249.487,233.893,249.487,227.444L249.487,227.444z"/>
	</g>
	<g>
		<path fill="#FFFFFF" d="M258.225,219.247c-3.745-2.162-7.49-4.325-11.235-6.487c-5.595-3.23-10.628,5.412-5.047,8.635
			c3.745,2.162,7.49,4.325,11.235,6.487C258.773,231.112,263.807,222.47,258.225,219.247L258.225,219.247z"/>
	</g>
	<g>
		<path fill="#FFFFFF" d="M235.923,227.882c3.745-2.162,7.49-4.325,11.235-6.487c5.582-3.223,0.548-11.865-5.047-8.635
			c-3.745,2.162-7.49,4.325-11.235,6.487C225.295,222.47,230.329,231.112,235.923,227.882L235.923,227.882z"/>
	</g>
</g>
<g>
	<g>
		<path fill="#FFFFFF" d="M280.52,204.008c-11.125-6.423-22.25-12.847-33.376-19.27c-5.595-3.23-10.628,5.412-5.047,8.635
			c11.125,6.423,22.25,12.847,33.376,19.27C281.068,215.873,286.102,207.23,280.52,204.008L280.52,204.008z"/>
	</g>
	<g>
		<path fill="#FFFFFF" d="M277.721,192.355c-3.745,2.162-7.49,4.325-11.235,6.487c-5.582,3.223-0.548,11.865,5.047,8.635
			c3.745-2.162,7.49-4.325,11.235-6.487C288.349,197.768,283.315,189.125,277.721,192.355L277.721,192.355z"/>
	</g>
	<g>
		<path fill="#FFFFFF" d="M274.093,215.986c0-4.325,0-8.649,0-12.974c0-6.449-10-6.449-10,0c0,4.325,0,8.649,0,12.974
			C264.093,222.435,274.093,222.435,274.093,215.986L274.093,215.986z"/>
	</g>
</g>
<g>
	<g>
		<path fill="#FFFFFF" d="M275.388,165.495c-11.125,6.423-22.251,12.847-33.376,19.27c-5.582,3.223-0.548,11.865,5.047,8.635
			c11.125-6.423,22.251-12.847,33.376-19.27C286.017,170.907,280.983,162.264,275.388,165.495L275.388,165.495z"/>
	</g>
	<g>
		<path fill="#FFFFFF" d="M263.945,162.04c0,4.325,0,8.649,0,12.974c0,6.449,10,6.449,10,0c0-4.325,0-8.649,0-12.974
			C273.945,155.591,263.945,155.591,263.945,162.04L263.945,162.04z"/>
	</g>
	<g>
		<path fill="#FFFFFF" d="M282.619,177.037c-3.745-2.163-7.49-4.325-11.235-6.488c-5.595-3.231-10.628,5.412-5.047,8.635
			c3.745,2.163,7.49,4.325,11.235,6.488C283.167,188.902,288.2,180.259,282.619,177.037L282.619,177.037z"/>
	</g>
</g>
<path fill="none" stroke="#FFFFFF" stroke-width="10" stroke-miterlimit="10" d="M173.815,284.066c0,2.89-2.344,5.234-5.234,5.234
	H97.049c-2.89,0-5.234-2.344-5.234-5.234v-49.288c0-2.89,2.344-5.234,5.234-5.234h71.532c2.89,0,5.234,2.344,5.234,5.234V284.066z"
	/>
<path fill="none" stroke="#FFFFFF" stroke-width="10" stroke-miterlimit="10" d="M164.22,220.14c0,2.985-2.42,5.405-5.405,5.405
	H105.22c-2.985,0-5.405-2.42-5.405-5.405v-48.19c0-2.985,2.42-5.405,5.405-5.405h53.595c2.985,0,5.405,2.42,5.405,5.405V220.14z"/>
<path fill="none" stroke="#FFFFFF" stroke-width="10" stroke-miterlimit="10" d="M147.315,155.619c0,2.997-2.429,5.426-5.426,5.426
	H110.24c-2.996,0-5.425-2.429-5.425-5.426V123.97c0-2.996,2.429-5.425,5.425-5.425h31.649c2.997,0,5.426,2.429,5.426,5.425V155.619z
	"/>
<path fill="none" stroke="#FFFFFF" stroke-width="10" stroke-miterlimit="10" d="M140.064,100.92
	c0.832,3.208-1.094,6.482-4.301,7.315l-22.748,5.899c-3.207,0.832-6.482-1.094-7.314-4.301l-4.77-18.392
	c-0.833-3.207,1.094-6.482,4.301-7.314l22.748-5.9c3.207-0.832,6.482,1.094,7.314,4.301L140.064,100.92z"/>
<path fill="none" stroke="#FFFFFF" stroke-width="10" stroke-miterlimit="10" d="M158.484,106.215
	c0.659,2.54-1.299,5.244-4.373,6.042l-55.174,14.311c-3.074,0.797-6.1-0.615-6.758-3.154l0,0c-0.659-2.54,1.299-5.244,4.373-6.042
	l55.174-14.311C154.799,102.264,157.825,103.676,158.484,106.215L158.484,106.215z"/>
<g>
	<path fill="#FFFFFF" d="M147.304,139.112c5.938,2.239,11.876,4.477,17.814,6.715c0.443-3.274,0.886-6.547,1.329-9.821
		c-6.328-0.48-12.655-0.96-18.983-1.441c1.607,2.11,3.214,4.219,4.821,6.329c0.39-1.758,0.779-3.516,1.169-5.274
		c1.393-6.283-8.248-8.953-9.643-2.658c-0.39,1.758-0.779,3.516-1.169,5.274c-0.74,3.34,1.489,6.076,4.821,6.329
		c6.328,0.48,12.655,0.96,18.983,1.441c6.011,0.456,6.257-7.964,1.329-9.821c-5.938-2.239-11.876-4.477-17.814-6.715
		C143.916,127.19,141.329,136.86,147.304,139.112z"/>
</g>
<path fill="#FFFFFF" d="M136.648,132.678c0,2.135-1.731,3.867-3.867,3.867h-1.933c-2.135,0-3.867-1.731-3.867-3.867v-1.933
	c0-2.135,1.731-3.867,3.867-3.867h1.933c2.135,0,3.867,1.731,3.867,3.867V132.678z"/>
<g>
	<g>
		<path fill="#FFFFFF" d="M134.605,196.023c-19.497-16.656-38.994-33.312-58.491-49.968c-4.874-4.163-11.982,2.876-7.071,7.071
			c19.497,16.656,38.994,33.312,58.491,49.968C132.408,207.258,139.516,200.219,134.605,196.023L134.605,196.023z"/>
	</g>
	<g>
		<path fill="#FFFFFF" d="M93.119,160.357c1.058-5.949,2.115-11.897,3.172-17.847c1.121-6.304-8.516-9-9.643-2.658
			c-1.058,5.949-2.115,11.897-3.172,17.847C82.355,164.003,91.992,166.699,93.119,160.357L93.119,160.357z"/>
	</g>
	<g>
		<path fill="#FFFFFF" d="M91.257,162.181c-6.331,0.658-12.661,1.315-18.991,1.973c-6.348,0.659-6.412,10.666,0,10
			c6.331-0.658,12.661-1.315,18.991-1.973C97.604,171.521,97.669,161.515,91.257,162.181L91.257,162.181z"/>
	</g>
</g>
<path fill="#FFFFFF" stroke="#FFFFFF" stroke-width="10" stroke-miterlimit="10" d="M283.815,126.545c0,3.313-2.411,6-5.384,6H236.7
	c-2.974,0-5.385-2.687-5.385-6v-43.5c0-3.313,2.411-6,5.385-6h41.731c2.974,0,5.384,2.687,5.384,6V126.545z"/>
<path fill="#FFFFFF" stroke="#FFFFFF" stroke-width="10" stroke-miterlimit="10" d="M204.815,111.545c0,3.313,2.687,6,6,6h28
	c3.313,0,6-2.687,6-6v-17c0-3.313-2.687-6-6-6h-28c-3.313,0-6,2.687-6,6V111.545z"/>
<path fill="#FFFFFF" stroke="#FFFFFF" stroke-width="10" stroke-miterlimit="10" d="M192.815,111.545c0-3.313,2.687-6,6-6h34.5
	c3.313,0,6,2.687,6,6v9.5c0,3.313-2.687,6-6,6h-34.5c-3.313,0-6-2.687-6-6V111.545z"/>
</svg>
