<?xml version="1.0" encoding="iso-8859-1"?>
<!-- Generator: Adobe Illustrator 16.0.0, SVG Export Plug-In . SVG Version: 6.00 Build 0)  -->
<!DOCTYPE svg PUBLIC "-//W3C//DTD SVG 1.1//EN" "http://www.w3.org/Graphics/SVG/1.1/DTD/svg11.dtd">
<svg version="1.1" xmlns="http://www.w3.org/2000/svg" xmlns:xlink="http://www.w3.org/1999/xlink" x="0px" y="0px" width="361px"
	 height="361px" viewBox="0 0 361 361" style="enable-background:new 0 0 361 361;" xml:space="preserve">
<g id="weather_x5F_wind_x5F_speed_x5F_bft">
	<g>
		<g>
			<g>
				<path style="fill:#FFFFFF;" d="M262.148,96.03c0,49.764,0,99.527,0,149.291c0,13.782,0,27.563,0,41.346c0,6.448,10,6.448,10,0
					c0-49.764,0-99.527,0-149.291c0-13.782,0-27.564,0-41.346C272.148,89.582,262.148,89.582,262.148,96.03L262.148,96.03z"/>
			</g>
		</g>
		
			<line style="fill:none;stroke:#FFFFFF;stroke-width:10;stroke-miterlimit:10;" x1="75.345" y1="126.976" x2="192.398" y2="75.523"/>
		
			<line style="fill:none;stroke:#FFFFFF;stroke-width:10;stroke-miterlimit:10;" x1="85.563" y1="157.045" x2="210.725" y2="143.917"/>
		<g>
			<polygon style="fill:#FFFFFF;" points="192.398,75.523 257.083,94.843 210.725,143.917 			"/>
			<g>
				<path style="fill:#FFFFFF;" d="M191.069,80.345c21.562,6.44,43.123,12.88,64.685,19.32c-0.735-2.786-1.471-5.571-2.206-8.357
					c-15.453,16.358-30.906,32.716-46.358,49.074c2.785,0.735,5.571,1.471,8.356,2.207c-6.108-22.798-12.218-45.596-18.326-68.394
					c-1.667-6.223-11.314-3.579-9.643,2.658c6.108,22.798,12.218,45.596,18.326,68.394c0.955,3.565,5.765,4.951,8.356,2.207
					c15.453-16.358,30.906-32.716,46.358-49.074c2.606-2.758,1.455-7.264-2.206-8.357c-21.562-6.44-43.123-12.88-64.685-19.32
					C187.533,68.852,184.906,78.504,191.069,80.345z"/>
			</g>
		</g>
		<path style="fill:#FFFFFF;" d="M100.743,152.304c0.902,3.603-1.41,7.288-5.165,8.228l-9.628,2.409
			c-3.753,0.938-7.528-1.223-8.43-4.826l-7.281-29.096c-0.903-3.604,1.41-7.289,5.164-8.228l9.629-2.409
			c3.754-0.938,7.528,1.222,8.431,4.826L100.743,152.304z"/>
		<path style="fill:#FFFFFF;" d="M140.762,145.611c1.11,4.44-1.033,8.802-4.788,9.742l-9.628,2.409
			c-3.753,0.939-7.698-1.899-8.809-6.339l-8.97-35.847c-1.111-4.44,1.032-8.802,4.787-9.742l9.629-2.409
			c3.752-0.939,7.697,1.899,8.808,6.34L140.762,145.611z"/>
		<path style="fill:#FFFFFF;" d="M183.645,138.335c1.395,5.571-0.518,10.853-4.272,11.791l-9.629,2.409
			c-3.754,0.939-7.928-2.817-9.321-8.389l-11.258-44.987c-1.394-5.571,0.519-10.853,4.273-11.791l9.629-2.409
			c3.753-0.938,7.928,2.818,9.322,8.389L183.645,138.335z"/>
	</g>
	<g>
		<path style="fill:#FFFFFF;" d="M86.096,278.478c-2.736,0-5.461-0.085-8.172-0.252c-2.712-0.169-5.533-0.563-8.46-1.188v-48.383
			c2.304-0.433,4.824-0.757,7.56-0.973c2.736-0.216,5.28-0.324,7.632-0.324c3.168,0,6.084,0.229,8.748,0.684
			c2.664,0.457,4.956,1.236,6.876,2.34c1.919,1.105,3.42,2.557,4.5,4.357c1.08,1.799,1.62,4.02,1.62,6.659
			c0,3.985-1.92,7.128-5.76,9.433c3.168,1.199,5.328,2.832,6.48,4.896c1.152,2.064,1.728,4.392,1.728,6.983
			c0,5.232-1.908,9.17-5.724,11.809C99.308,277.158,93.631,278.478,86.096,278.478z M80.408,247.518h5.472
			c3.456,0,5.928-0.443,7.416-1.332c1.487-0.888,2.232-2.315,2.232-4.284c0-2.016-0.769-3.431-2.304-4.247
			c-1.537-0.816-3.792-1.225-6.768-1.225c-0.961,0-1.992,0.012-3.096,0.036c-1.104,0.024-2.088,0.084-2.952,0.18V247.518z
			 M80.408,256.086v12.888c0.815,0.097,1.703,0.169,2.664,0.216c0.959,0.049,2.016,0.072,3.168,0.072
			c3.359,0,6.071-0.479,8.136-1.439c2.063-0.961,3.096-2.736,3.096-5.328c0-2.305-0.864-3.948-2.592-4.933
			c-1.728-0.983-4.201-1.476-7.416-1.476H80.408z"/>
		<path style="fill:#FFFFFF;" d="M133.543,221.957c2.016,0,3.863,0.205,5.544,0.613c1.68,0.408,2.976,0.804,3.888,1.188
			l-2.088,8.568c-0.96-0.433-2.004-0.756-3.132-0.973c-1.128-0.216-2.172-0.324-3.132-0.324c-1.296,0-2.389,0.18-3.276,0.541
			c-0.889,0.359-1.584,0.852-2.088,1.475c-0.504,0.625-0.864,1.369-1.08,2.232c-0.216,0.864-0.324,1.801-0.324,2.809v1.871h13.248
			v8.929h-13.248v28.944h-10.728v-39.889c0-4.896,1.379-8.783,4.14-11.664C124.027,223.397,128.119,221.957,133.543,221.957z"/>
		<path style="fill:#FFFFFF;" d="M147.151,230.525l10.728-1.729v11.16h12.888v8.929h-12.888v13.319c0,2.258,0.396,4.057,1.188,5.4
			c0.792,1.345,2.387,2.016,4.788,2.016c1.152,0,2.34-0.107,3.564-0.324c1.224-0.215,2.34-0.515,3.348-0.899l1.512,8.353
			c-1.296,0.528-2.736,0.984-4.32,1.367c-1.584,0.384-3.528,0.576-5.832,0.576c-2.928,0-5.353-0.396-7.272-1.188
			c-1.92-0.793-3.456-1.896-4.608-3.313c-1.152-1.415-1.956-3.132-2.412-5.148c-0.457-2.016-0.684-4.248-0.684-6.695V230.525z"/>
	</g>
</g>
<g id="Ebene_1">
</g>
</svg>
