<?xml version="1.0" encoding="iso-8859-1"?>
<!-- Generator: Adobe Illustrator 16.0.0, SVG Export Plug-In . SVG Version: 6.00 Build 0)  -->
<!DOCTYPE svg PUBLIC "-//W3C//DTD SVG 1.1//EN" "http://www.w3.org/Graphics/SVG/1.1/DTD/svg11.dtd">
<svg version="1.1" xmlns="http://www.w3.org/2000/svg" xmlns:xlink="http://www.w3.org/1999/xlink" x="0px" y="0px" width="361px"
	 height="361px" viewBox="0 0 361 361" style="enable-background:new 0 0 361 361;" xml:space="preserve">
<g id="weather_x5F_thunderstorm">
	<g>
		<g>
			<g>
				<path style="fill:#FFFFFF;" d="M127.302,208.033c-5.5,9.526-11,19.053-16.5,28.579c-3.23,5.595,5.412,10.628,8.635,5.047
					c5.5-9.526,11-19.053,16.5-28.579C139.167,207.485,130.524,202.452,127.302,208.033L127.302,208.033z"/>
			</g>
		</g>
		<g>
			<g>
				<path style="fill:#FFFFFF;" d="M134.42,169.894c-5.883,10.19-11.766,20.38-17.649,30.57c-3.23,5.595,5.413,10.628,8.635,5.047
					c5.883-10.19,11.766-20.38,17.649-30.57C146.286,169.346,137.643,164.312,134.42,169.894L134.42,169.894z"/>
			</g>
		</g>
		<g>
			<g>
				<path style="fill:#FFFFFF;" d="M130.687,144.27c-5.883,10.19-11.767,20.38-17.65,30.571c-3.23,5.595,5.412,10.628,8.635,5.047
					c5.883-10.19,11.767-20.38,17.65-30.571C142.552,143.722,133.91,138.688,130.687,144.27L130.687,144.27z"/>
			</g>
		</g>
		<g>
			<g>
				<path style="fill:#FFFFFF;" d="M101.321,193.033c-5.5,9.526-11,19.053-16.5,28.579c-3.23,5.595,5.413,10.628,8.635,5.047
					c5.5-9.526,11-19.053,16.5-28.579C113.186,192.485,104.543,187.452,101.321,193.033L101.321,193.033z"/>
			</g>
		</g>
		<g>
			<g>
				<path style="fill:#FFFFFF;" d="M105.312,216.122c-5.5,9.526-11,19.053-16.5,28.579c-3.23,5.595,5.412,10.628,8.635,5.047
					c5.5-9.526,11-19.053,16.5-28.579C117.177,215.574,108.534,210.541,105.312,216.122L105.312,216.122z"/>
			</g>
		</g>
		<g>
			<g>
				<path style="fill:#FFFFFF;" d="M262.792,175.955c-5.5,9.526-11,19.052-16.5,28.579c-3.23,5.595,5.412,10.628,8.635,5.047
					c5.5-9.526,11-19.053,16.5-28.578C274.657,175.407,266.015,170.373,262.792,175.955L262.792,175.955z"/>
			</g>
		</g>
		<g>
			<g>
				<path style="fill:#FFFFFF;" d="M262.122,145.385c-5.883,10.19-11.767,20.38-17.649,30.57c-3.23,5.595,5.412,10.628,8.635,5.047
					c5.883-10.19,11.767-20.38,17.649-30.57C273.987,144.837,265.345,139.803,262.122,145.385L262.122,145.385z"/>
			</g>
		</g>
		<g>
			<g>
				<path style="fill:#FFFFFF;" d="M230.302,198.033c-5.5,9.526-11,19.053-16.5,28.579c-3.23,5.595,5.412,10.628,8.635,5.047
					c5.5-9.526,11-19.053,16.5-28.579C242.167,197.485,233.524,192.452,230.302,198.033L230.302,198.033z"/>
			</g>
		</g>
		<g>
			<g>
				<path style="fill:#FFFFFF;" d="M238.064,154.963c-5.883,10.19-11.767,20.38-17.649,30.57c-3.23,5.595,5.412,10.628,8.635,5.047
					c5.883-10.19,11.767-20.38,17.649-30.57C249.93,154.415,241.287,149.381,238.064,154.963L238.064,154.963z"/>
			</g>
		</g>
		<g>
			<g>
				<path style="fill:#FFFFFF;" d="M237.312,220.122c-5.5,9.526-11,19.053-16.5,28.579c-3.23,5.595,5.412,10.628,8.635,5.047
					c5.5-9.526,11-19.053,16.5-28.579C249.177,219.574,240.534,214.541,237.312,220.122L237.312,220.122z"/>
			</g>
		</g>
		<g>
			<g>
				<path style="fill:#FFFFFF;" d="M182.487,198.003c6.12,3.213,12.24,6.427,18.36,9.64c5.703,2.994,10.758-5.636,5.047-8.635
					c-6.12-3.213-12.24-6.427-18.36-9.64C181.831,186.374,176.776,195.004,182.487,198.003L182.487,198.003z"/>
			</g>
		</g>
		<g>
			<g>
				<path style="fill:#FFFFFF;" d="M188.765,171.292c2.97,10.591,5.94,21.183,8.91,31.775c1.738,6.2,11.388,3.563,9.643-2.658
					c-2.97-10.592-5.94-21.184-8.91-31.775C196.669,162.435,187.02,165.071,188.765,171.292L188.765,171.292z"/>
			</g>
		</g>
		<g>
			<g>
				<path style="fill:#FFFFFF;" d="M180.543,196.382c4.337,10.108,8.674,20.218,13.011,30.326c2.536,5.911,11.148,0.812,8.635-5.047
					c-4.337-10.108-8.674-20.218-13.011-30.326C186.642,185.424,178.03,190.523,180.543,196.382L180.543,196.382z"/>
			</g>
		</g>
		<g>
			<g>
				<path style="fill:#FFFFFF;" d="M187.856,227.961c2.743,0.537,5.485,1.075,8.229,1.612c2.672,0.523,5.388-0.719,6.15-3.492
					c0.682-2.476-0.816-5.626-3.492-6.15c-2.743-0.537-5.485-1.075-8.229-1.612c-2.672-0.523-5.388,0.719-6.15,3.492
					C183.683,224.287,185.181,227.437,187.856,227.961L187.856,227.961z"/>
			</g>
		</g>
		<g>
			<g>
				<path style="fill:#FFFFFF;" d="M181.761,223.903c2.969,10.592,5.938,21.184,8.907,31.775c1.738,6.2,11.387,3.563,9.643-2.658
					c-2.969-10.592-5.938-21.184-8.907-31.775C189.665,215.045,180.017,217.682,181.761,223.903L181.761,223.903z"/>
			</g>
		</g>
		<g>
			<g>
				<path style="fill:#FFFFFF;" d="M150.958,200.238c4.957,4.504,9.914,9.007,14.871,13.51c4.761,4.325,11.854-2.726,7.071-7.07
					c-4.957-4.504-9.914-9.007-14.871-13.51C153.268,188.843,146.175,195.894,150.958,200.238L150.958,200.238z"/>
			</g>
		</g>
		<g>
			<g>
				<path style="fill:#FFFFFF;" d="M157.558,176.822c2.104,10.992,4.208,21.984,6.313,32.977c1.211,6.329,10.849,3.642,9.643-2.658
					c-2.104-10.992-4.208-21.984-6.313-32.977C165.989,167.834,156.352,170.522,157.558,176.822L157.558,176.822z"/>
			</g>
		</g>
		<g>
			<g>
				<path style="fill:#FFFFFF;" d="M149.542,198.167c3.252,10.827,6.504,21.655,9.756,32.482c1.85,6.16,11.502,3.534,9.643-2.658
					c-3.252-10.827-6.504-21.655-9.756-32.482C157.334,189.349,147.682,191.975,149.542,198.167L149.542,198.167z"/>
			</g>
		</g>
	</g>
	<g>
		<path style="fill:#FFFFFF;stroke:#FFFFFF;stroke-width:13.2547;stroke-miterlimit:10;" d="M177.941,152.994
			c0,4.756,3.762,8.614,8.401,8.614h39.207c4.641,0,8.402-3.857,8.402-8.614v-24.406c0-4.756-3.762-8.614-8.402-8.614h-39.207
			c-4.639,0-8.401,3.857-8.401,8.614V152.994z"/>
		<path style="fill:#FFFFFF;stroke:#FFFFFF;stroke-width:11.4775;stroke-miterlimit:10;" d="M133.384,145.341
			c0-4.068,3.298-7.367,7.366-7.367h42.357c4.067,0,7.365,3.298,7.365,7.367v11.663c0,4.068-3.298,7.367-7.365,7.367H140.75
			c-4.068,0-7.366-3.299-7.366-7.367V145.341z"/>
		<path style="fill:#FFFFFF;stroke:#FFFFFF;stroke-width:9.9833;stroke-miterlimit:10;" d="M153.233,138.267
			c0,3.667-2.484,6.64-5.549,6.64h-43.009c-3.064,0-5.549-2.973-5.549-6.64V90.134c0-3.667,2.485-6.64,5.549-6.64h43.009
			c3.065,0,5.549,2.973,5.549,6.64V138.267z"/>
		<path style="fill:#FFFFFF;stroke:#FFFFFF;stroke-width:11.4775;stroke-miterlimit:10;" d="M237.078,137.667
			c0,4.068,3.297,7.366,7.365,7.366h34.377c4.068,0,7.366-3.298,7.366-7.366v-20.872c0-4.068-3.298-7.366-7.366-7.366h-34.377
			c-4.068,0-7.365,3.298-7.365,7.366V137.667z"/>
		<path style="fill:#FFFFFF;stroke:#FFFFFF;stroke-width:11.4775;stroke-miterlimit:10;" d="M121.088,130.608
			c0,4.067,3.298,7.366,7.366,7.366h34.376c4.068,0,7.366-3.299,7.366-7.366v-20.872c0-4.067-3.298-7.366-7.366-7.366h-34.376
			c-4.068,0-7.366,3.299-7.366,7.366V130.608z"/>
		<path style="fill:#FFFFFF;stroke:#FFFFFF;stroke-width:11.4775;stroke-miterlimit:10;" d="M187.52,83.495
			c4.068,0,7.367,3.298,7.367,7.367v42.356c0,4.068-3.299,7.366-7.367,7.366h-11.663c-4.068,0-7.367-3.298-7.367-7.366V90.861
			c0-4.068,3.299-7.366,7.367-7.366H187.52z"/>
		<path style="fill:#FFFFFF;stroke:#FFFFFF;stroke-width:11.4775;stroke-miterlimit:10;" d="M185.011,99.608
			c0-4.068,3.298-7.367,7.366-7.367h42.357c4.067,0,7.365,3.298,7.365,7.367v11.663c0,4.068-3.298,7.367-7.365,7.367h-42.357
			c-4.068,0-7.366-3.299-7.366-7.367V99.608z"/>
		<path style="fill:#FFFFFF;stroke:#FFFFFF;stroke-width:11.4775;stroke-miterlimit:10;" d="M156.914,159.025
			c0,4.068-3.298,7.366-7.367,7.366H107.19c-4.068,0-7.366-3.298-7.366-7.367v-11.663c0-4.068,3.298-7.367,7.366-7.367h42.357
			c4.068,0,7.366,3.299,7.366,7.367V159.025z"/>
		<path style="fill:#FFFFFF;stroke:#FFFFFF;stroke-width:11.4775;stroke-miterlimit:10;" d="M248.995,151.961
			c-4.068,0-7.366-3.298-7.366-7.367v-42.356c0-4.068,3.299-7.366,7.367-7.366h11.662c4.068,0,7.367,3.298,7.367,7.366v42.357
			c0,4.068-3.299,7.366-7.367,7.366H248.995z"/>
		<path style="fill:#FFFFFF;stroke:#FFFFFF;stroke-width:11.4775;stroke-miterlimit:10;" d="M267.109,159.025
			c0,4.068-3.299,7.366-7.367,7.366h-42.355c-4.068,0-7.367-3.298-7.367-7.367v-11.663c0-4.068,3.299-7.367,7.367-7.367h42.356
			c4.067,0,7.366,3.299,7.366,7.367V159.025z"/>
		<path style="fill:#FFFFFF;stroke:#FFFFFF;stroke-width:11.4775;stroke-miterlimit:10;" d="M214.95,75.895
			c4.068,0,7.367,3.298,7.367,7.366v42.357c0,4.067-3.299,7.366-7.367,7.366h-11.663c-4.068,0-7.367-3.299-7.367-7.366V83.261
			c0-4.068,3.299-7.366,7.367-7.366H214.95z"/>
		<path style="fill:#FFFFFF;stroke:#FFFFFF;stroke-width:11.4775;stroke-miterlimit:10;" d="M77.094,134.163
			c0-4.068,3.298-7.367,7.366-7.367h42.357c4.068,0,7.366,3.298,7.366,7.367v11.663c0,4.068-3.298,7.367-7.366,7.367H84.46
			c-4.068,0-7.366-3.299-7.366-7.367V134.163z"/>
		<path style="fill:#FFFFFF;stroke:#FFFFFF;stroke-width:11.4775;stroke-miterlimit:10;" d="M86.574,108.369
			c0-4.068,3.298-7.367,7.366-7.367h42.357c4.068,0,7.366,3.298,7.366,7.367v11.663c0,4.068-3.298,7.367-7.366,7.367H93.94
			c-4.068,0-7.366-3.299-7.366-7.367V108.369z"/>
		<path style="fill:#FFFFFF;stroke:#FFFFFF;stroke-width:11.4775;stroke-miterlimit:10;" d="M132.011,75.825
			c4.068,0,7.367,3.298,7.367,7.366v42.357c0,4.067-3.299,7.366-7.367,7.366h-11.663c-4.068,0-7.367-3.299-7.367-7.366V83.191
			c0-4.068,3.299-7.366,7.367-7.366H132.011z"/>
	</g>
</g>
<g id="Ebene_1">
</g>
</svg>
