<?xml version="1.0" encoding="iso-8859-1"?>
<!-- Generator: Adobe Illustrator 16.0.0, SVG Export Plug-In . SVG Version: 6.00 Build 0)  -->
<!DOCTYPE svg PUBLIC "-//W3C//DTD SVG 1.1//EN" "http://www.w3.org/Graphics/SVG/1.1/DTD/svg11.dtd">
<svg version="1.1" xmlns="http://www.w3.org/2000/svg" xmlns:xlink="http://www.w3.org/1999/xlink" x="0px" y="0px" width="361px"
	 height="361px" viewBox="0 0 361 361" style="enable-background:new 0 0 361 361;" xml:space="preserve">
<g id="audio_x5F_desync">
	<g>
		<g>
			<path style="fill:#FFFFFF;" d="M154.066,261.966c-0.242,1.196-3.827,0.605-5.348,0.605c-4.068,0-8.136,0-12.205,0
				c-2.783,0-5.565,0-8.348,0c-0.888,0-0.391,0.229-0.391,0.116c0-0.66,0-1.321,0-1.981c0-14.076,0-28.151,0-42.228
				c0-2.548,0-5.097,0-7.645c0-0.685,0-1.37,0-2.056c0-0.822-0.41-0.247,0.085-0.247c6.676,0,13.352,0,20.028,0
				c2.11,0,4.221,0,6.331,0c-0.558,0-0.277,2.147-0.277,3.28c0,6.763,0,13.526,0,20.289c0,10.266,0,20.53,0,30.796
				c0,4.514,7,4.514,7,0c0-11.876,0-23.752,0-35.628c0-5.879,0-11.757,0-17.635c0-5.57-3.458-8.103-8.754-8.103
				c-7.143,0-14.286,0-21.428,0c-5.126,0-9.984,1.223-9.984,7.492c0,13.425,0,26.851,0,40.276c0,7.433-2.631,20.271,8.23,20.271
				c6.294,0,12.588,0,18.883,0c5.146,0,11.597,0.849,12.929-5.744C161.706,259.42,154.959,257.543,154.066,261.966z"/>
		</g>
	</g>
	<g>
		<g>
			<path style="fill:#FFFFFF;" d="M70.771,286.235c0.69,3.418,4.628,7.437,8.41,5.313c1.635-0.918,3.27-1.836,4.904-2.754
				c6.748-3.789,13.496-7.578,20.244-11.367c3.675-2.063,10.571-4.608,12.818-8.326c1.657-2.743,0.619-8.502,0.619-11.442
				c0-15.038,0-30.077,0-45.115c0-2.948,0.932-8.365-0.672-11.104c-1.97-3.363-9.505-6.125-12.766-7.956
				c-6.748-3.789-13.496-7.577-20.244-11.366c-1.605-0.901-3.211-1.803-4.817-2.705c-3.817-2.143-7.787,1.748-8.497,5.264
				c-0.498,2.468-0.125,5.279-0.125,7.771c0,6.042,0,12.084,0,18.126c0,24.905,0,49.812,0,74.717c0,0.005,0,0.009,0,0.014
				c0,4.514,7,4.514,7,0c0-16.616,0-33.232,0-49.848c0-11.299,0-22.598,0-33.896c0-3.854,0-7.706,0-11.56
				c0-1.523-0.579-4.005,0.669-4.257c-0.899-0.117-1.798-0.235-2.697-0.353c10.633,5.97,21.267,11.94,31.9,17.91
				c0.542,0.305,1.084,0.609,1.626,0.913c0.452,0.254,0.875,0.462,1.366,0.718c1.939,1.014,0.256,0.329,0.256-0.413
				c0,1.255,0,2.51,0,3.766c0,6.582,0,13.164,0,19.746c0,12.683,0,25.365,0,38.048c0,0.313-9.665,5.132-10.747,5.739
				c-6.696,3.76-13.392,7.521-20.088,11.28c-1.438,0.807-2.875,1.614-4.313,2.421c0.899-0.117,1.798-0.235,2.697-0.353
				c-0.265-0.265-0.529-0.529-0.794-0.794C76.627,279.951,69.88,281.828,70.771,286.235z"/>
		</g>
	</g>
	<g>
		<g>
			<path style="fill:#FFFFFF;" d="M201.778,154.821c1.483,7.348,10.024,5.745,15.614,5.745c5.918,0,11.835,0,17.752,0
				c6.718,0,6.676-6.611,6.676-11.388c0-7.05,0-14.1,0-21.15c0-7.409,0-14.817,0-22.226c0-4.767,0.845-9.503-3.673-12.548
				c-1.612-1.087-4.455-0.728-6.312-0.728c-3.856,0-7.712,0-11.568,0c-4.427,0-14.211-1.778-17.206,2.664
				c-1.957,2.902-1.408,6.61-1.408,9.955c0,6.312,0,12.623,0,18.934c0,9.938,0,19.875,0,29.813c0,4.514,7,4.514,7,0
				c0-11.876,0-23.752,0-35.628c0-5.878,0-11.756,0-17.635c0-1.646-0.546-1.102,0.775-1.102c3.289,0,6.578,0,9.867,0
				c3.698,0,7.396,0,11.094,0c1.219,0,2.438,0,3.655,0c1.078,0,0.775-0.103,0.775-0.116c0,4.754,0,9.509,0,14.264
				c0,13.215,0,26.43,0,39.646c0,0.767-0.098,0.247,0.277,0.247c-0.677,0-1.354,0-2.031,0c-2.963,0-5.926,0-8.889,0
				c-3.435,0-6.868,0-10.302,0c-1.521,0-5.106,0.591-5.348-0.606C207.635,148.537,200.889,150.414,201.778,154.821z"/>
		</g>
	</g>
	<g>
		<g>
			<path style="fill:#FFFFFF;" d="M285.074,175.368c-0.265,0.265-0.529,0.529-0.794,0.794c0.899,0.118,1.798,0.235,2.697,0.353
				c-10.634-5.971-21.267-11.941-31.9-17.911c-0.565-0.318-3.248-1.853-3.248-1.385c0-1.56,0-3.119,0-4.678
				c0-6.875,0-13.749,0-20.624c0-12.113,0-24.227,0-36.34c0-0.48,0.032,0.373-0.626,0.827c0.49-0.339,1.724-0.899,2.16-1.145
				c0.441-0.248,0.882-0.495,1.322-0.742c2.631-1.477,5.261-2.954,7.891-4.431c6.696-3.759,13.393-7.519,20.089-11.279
				c1.438-0.807,2.875-1.615,4.313-2.422c-0.899,0.118-1.798,0.235-2.697,0.353c1.217,0.246,0.669,2.324,0.669,3.826
				c0,3.748,0,7.495,0,11.243c0,11.547,0,23.095,0,34.643c0,16.616,0,33.232,0,49.848c0,4.514,7,4.514,7,0
				c0-24.616,0-49.233,0-73.849c0-8.616,0-17.231,0-25.847c0-3.82-4.549-8.481-8.505-6.26c-1.438,0.807-2.875,1.614-4.313,2.421
				c-6.696,3.76-13.393,7.52-20.089,11.279c-3.524,1.979-10.394,4.433-12.995,7.684c-2.111,2.639-1.219,7.986-1.219,11.125
				c0,15.023,0,30.045,0,45.068c0,3.751-0.305,7.62,0.267,11.339c0.561,3.646,9.563,7.138,12.415,8.739
				c6.782,3.808,13.564,7.616,20.347,11.424c1.775,0.997,3.551,1.994,5.326,2.991c2.913,1.635,7.705-0.552,8.386-3.923
				c0.085-0.42,0.17-0.84,0.255-1.26C292.714,172.822,285.968,170.945,285.074,175.368z"/>
		</g>
	</g>
	<g>
		<g>
			<path style="fill:#FFFFFF;" d="M175.079,145.776c-0.437,3.25-4.028,2.23-6.507,2.23c-3.428,0-6.856,0-10.285,0
				c-1.301,0-5.533,0.716-5.533-1.43c0-1.795,0-3.591,0-5.387c0-11.483,0-22.967,0-34.45c0-2.571,14.724-1.333,16.667-1.333
				c1.302,0,5.534-0.716,5.534,1.431c0,1.795,0,3.591,0,5.387c0,11.494,0,22.989,0,34.483c0,4.514,7,4.514,7,0
				c0-12.346,0-24.691,0-37.037c0-5.742-1.981-11.263-8.849-11.263c-6.267,0-12.534,0-18.802,0c-7.107,0-8.549,6.183-8.549,11.841
				c0,7.46,0,14.919,0,22.379c0,4.906-0.53,10.136,0.125,15.011c1.171,8.714,10.577,7.369,16.996,7.369
				c6.701,0,17.708,1.898,18.954-7.369C182.422,143.225,175.678,141.32,175.079,145.776z"/>
		</g>
	</g>
	<g>
		<g>
			<path style="fill:#FFFFFF;" d="M209.881,255.184c-0.442,3.295-4.295,2.23-6.507,2.23c-3.428,0-6.856,0-10.285,0
				c-1.064,0-5.533,0.748-5.533-1.43c0-1.796,0-3.592,0-5.387c0-11.483,0-22.967,0-34.45c0-2.649,14.903-1.333,16.667-1.333
				c1.064,0,5.533-0.748,5.533,1.43c0,1.796,0,3.592,0,5.387c0,11.495,0,22.989,0,34.483c0,4.514,7,4.514,7,0
				c0-12.346,0-24.691,0-37.037c0-5.745-1.978-11.263-8.849-11.263c-6.268,0-12.535,0-18.802,0c-7.117,0-8.55,6.182-8.55,11.84
				c0,7.46,0,14.92,0,22.38c0,4.906-0.53,10.136,0.125,15.011c1.17,8.706,10.574,7.369,16.996,7.369
				c6.704,0,17.708,1.9,18.954-7.369C217.224,252.633,210.479,250.728,209.881,255.184z"/>
		</g>
	</g>
</g>
<g id="Ebene_1">
</g>
</svg>
