<?xml version="1.0" encoding="iso-8859-1"?>
<!-- Generator: Adobe Illustrator 16.0.0, SVG Export Plug-In . SVG Version: 6.00 Build 0)  -->
<!DOCTYPE svg PUBLIC "-//W3C//DTD SVG 1.1//EN" "http://www.w3.org/Graphics/SVG/1.1/DTD/svg11.dtd">
<svg version="1.1" xmlns="http://www.w3.org/2000/svg" xmlns:xlink="http://www.w3.org/1999/xlink" x="0px" y="0px" width="361px"
	 height="361px" viewBox="0 0 361 361" style="enable-background:new 0 0 361 361;" xml:space="preserve">
<g id="audio_x5F_eq">
	<g>
		<g>
			<path style="fill:#FFFFFF;" d="M103.833,75.167c0,48.697,0,97.394,0,146.091c0,21.97,0,43.939,0,65.909c0,6.448,10,6.448,10,0
				c0-48.697,0-97.395,0-146.091c0-21.97,0-43.939,0-65.909C113.833,68.718,103.833,68.718,103.833,75.167L103.833,75.167z"/>
		</g>
	</g>
	<path style="fill:#FFFFFF;" d="M139.333,154.451c0,4.538-4.356,8.216-9.73,8.216H89.563c-5.374,0-9.73-3.678-9.73-8.216v-12.068
		c0-4.538,4.356-8.216,9.73-8.216h40.039c5.374,0,9.73,3.678,9.73,8.216V154.451z"/>
	<g>
		<g>
			<path style="fill:#FFFFFF;" d="M246.333,75.167c0,48.697,0,97.394,0,146.091c0,21.97,0,43.939,0,65.909c0,6.448,10,6.448,10,0
				c0-48.697,0-97.395,0-146.091c0-21.97,0-43.939,0-65.909C256.333,68.718,246.333,68.718,246.333,75.167L246.333,75.167z"/>
		</g>
	</g>
	<path style="fill:#FFFFFF;" d="M281.833,173.451c0,4.538-4.356,8.216-9.73,8.216h-40.039c-5.374,0-9.73-3.678-9.73-8.216v-12.068
		c0-4.538,4.356-8.216,9.73-8.216h40.039c5.374,0,9.73,3.678,9.73,8.216V173.451z"/>
	<g>
		<g>
			<path style="fill:#FFFFFF;" d="M176.083,74.956c0,48.697,0,97.394,0,146.091c0,21.97,0,43.939,0,65.909c0,6.448,10,6.448,10,0
				c0-48.697,0-97.395,0-146.091c0-21.97,0-43.939,0-65.909C186.083,68.507,176.083,68.507,176.083,74.956L176.083,74.956z"/>
		</g>
	</g>
	<path style="fill:#FFFFFF;" d="M211.583,220.24c0,4.537-4.356,8.216-9.73,8.216h-40.039c-5.374,0-9.73-3.679-9.73-8.216v-12.068
		c0-4.537,4.356-8.216,9.73-8.216h40.039c5.374,0,9.73,3.679,9.73,8.216V220.24z"/>
</g>
<g id="Ebene_1">
</g>
</svg>
