<?xml version="1.0" encoding="iso-8859-1"?>
<!-- Generator: Adobe Illustrator 16.0.0, SVG Export Plug-In . SVG Version: 6.00 Build 0)  -->
<!DOCTYPE svg PUBLIC "-//W3C//DTD SVG 1.1//EN" "http://www.w3.org/Graphics/SVG/1.1/DTD/svg11.dtd">
<svg version="1.1" xmlns="http://www.w3.org/2000/svg" xmlns:xlink="http://www.w3.org/1999/xlink" x="0px" y="0px" width="361px"
	 height="361px" viewBox="0 0 361 361" style="enable-background:new 0 0 361 361;" xml:space="preserve">
<g id="audio_x5F_ls_x5F_51_x5F_sub">
	<g>
		<g>
			<g>
				<path style="fill:#FFFFFF;" d="M71.726,85.799c-4.055,3.375,1.82,11.332,3.43,14.845c1.703,3.716,3.059,9.439,8.267,7.053
					c10.679-4.893,21.357-9.786,32.036-14.679c4.993-2.288-1.877-12.353-3.127-15.08c-1.702-3.716-3.059-9.439-8.266-7.053
					c-10.679,4.893-21.357,9.786-32.037,14.679c-1.757,0.805-0.231,3.391,1.515,2.591c8.937-4.095,17.875-8.19,26.812-12.286
					c1.742-0.798,3.483-1.596,5.225-2.394c1.516-0.694,1.883,1.003,2.419,2.173c2.137,4.663,4.273,9.326,6.41,13.989
					c0.45,0.981-25.052,12.057-27.276,13.075c-1.741,0.798-3.482,1.596-5.224,2.394c-1.516,0.694-1.883-1.003-2.419-2.173
					c-1.072-2.338-7.759-13.251-5.643-15.013C75.336,86.682,73.201,84.571,71.726,85.799z"/>
			</g>
		</g>
		<g>
			<g>
				<path style="fill:#FFFFFF;" d="M81.839,141.529c-1.343,0.225-0.915,0.177-0.8-1.223c0.112-1.37,0.225-2.74,0.337-4.111
					c0.333-4.061,0.667-8.121,1-12.181c0.199-2.422,0.398-4.845,0.597-7.267c0.187-2.271,1.548-2.291,3.417-3.147
					c11.338-5.195,22.676-10.391,34.014-15.586c0.296-0.135,4.505,3.34,4.711,3.49c3.221,2.346,6.442,4.692,9.663,7.039
					c2.314,1.686,4.628,3.371,6.943,5.057c0.845,0.616-1.257,1.054-2.155,1.465c-12.52,5.737-25.04,11.474-37.56,17.21
					c-6.842,3.135-13.685,6.271-20.526,9.405c-1.757,0.805-0.231,3.391,1.514,2.591c10.117-4.636,20.233-9.271,30.35-13.907
					c6.869-3.147,13.737-6.294,20.605-9.441c2.779-1.273,6.762-2.305,9.142-4.285c5.052-4.202-3.153-8.03-6.041-10.134
					c-4.911-3.577-9.705-7.529-14.805-10.831c-2.898-1.875-8.28,2.007-10.9,3.208c-7.079,3.244-14.158,6.487-21.237,9.731
					c-2.765,1.267-5.53,2.534-8.296,3.802c-2.556,1.171-2.033,6.695-2.227,9.056c-0.466,5.675-0.932,11.349-1.398,17.023
					c-0.281,3.416-0.22,6.708,4.449,5.928C84.542,144.104,83.731,141.213,81.839,141.529z"/>
			</g>
		</g>
	</g>
	<g>
		<g>
			<g>
				<path style="fill:#FFFFFF;" d="M287.891,87.92c2.091,1.739-4.31,12.106-5.343,14.36c-0.415,0.906-1.083,3.575-2.45,2.949
					c-1.6-0.733-3.199-1.466-4.798-2.199c-9.158-4.196-18.315-8.393-27.474-12.589c-1.448-0.664,4.935-12.659,5.614-14.141
					c0.415-0.906,1.083-3.575,2.449-2.949c1.6,0.733,3.199,1.466,4.798,2.199c9.169,4.201,18.338,8.402,27.507,12.604
					c1.745,0.8,3.271-1.786,1.514-2.591c-10.571-4.844-21.143-9.688-31.714-14.532c-5.123-2.347-6.402,2.135-8.199,6.057
					c-1.644,3.588-7.977,12.233-3.818,15.694c3.5,2.913,9.487,4.443,13.589,6.322c6.143,2.815,12.285,5.629,18.428,8.444
					c5.124,2.348,6.402-2.134,8.2-6.057c1.644-3.587,7.978-12.234,3.818-15.694C288.536,84.572,286.401,86.682,287.891,87.92z"/>
			</g>
		</g>
		<g>
			<g>
				<path style="fill:#FFFFFF;" d="M279.102,144.422c6.745,1.127,4.365-6.946,4.043-10.87c-0.501-6.094-1.13-12.191-1.469-18.296
					c-0.206-3.726-7.41-5.435-10.047-6.643c-7.079-3.244-14.158-6.487-21.237-9.731c-2.619-1.201-8.001-5.083-10.899-3.208
					c-5.101,3.301-9.895,7.253-14.806,10.831c-2.888,2.104-11.091,5.931-6.04,10.134c2.379,1.98,6.363,3.011,9.142,4.285
					c16.985,7.783,33.97,15.565,50.955,23.348c1.745,0.8,3.271-1.786,1.514-2.591c-10.116-4.635-20.232-9.271-30.35-13.906
					c-6.868-3.147-13.736-6.294-20.604-9.442c-1.02-0.467-9.002-4.94-9.734-4.406c5.258-3.83,10.516-7.659,15.773-11.489
					c1.548-1.128,3.097-2.256,4.645-3.383c1.975-1.438,2.759-0.393,4.954,0.613c6.751,3.094,13.503,6.188,20.255,9.281
					c3.011,1.379,6.021,2.759,9.031,4.138c1.815,0.832,4.396,1.197,4.521,3.467c0.226,4.068,0.668,8.136,1.002,12.197
					c0.247,3.008,0.494,6.016,0.741,9.024c0.082,1.001,0.165,2.003,0.247,3.004c0.1,1.21,0.396,0.956-0.84,0.75
					C278.007,141.213,277.196,144.104,279.102,144.422z"/>
			</g>
		</g>
	</g>
	<g>
		<g>
			<g>
				<path style="fill:#FFFFFF;" d="M96.929,278.855c-1.016-1.096,3.064-7.908,3.817-9.551c0.267-0.584,0.65-2.204,1.189-1.957
					c1.132,0.519,2.264,1.037,3.396,1.557c6.441,2.951,12.881,5.901,19.322,8.853c0.338,0.155-3.62,8.342-4.076,9.337
					c-0.268,0.584-0.65,2.203-1.189,1.957c-1.132-0.519-2.264-1.037-3.396-1.557c-6.456-2.958-12.912-5.915-19.368-8.873
					c-1.745-0.8-3.271,1.785-1.514,2.59c7.587,3.477,15.175,6.953,22.763,10.43c3.663,1.679,4.79-1.933,6-4.575
					c1.458-3.183,5.579-8.478,2.641-11.644c-1.998-2.154-7.057-3.329-9.666-4.524c-4.467-2.047-8.934-4.094-13.4-6.14
					c-3.663-1.679-4.79,1.932-6.001,4.575c-1.458,3.183-5.579,8.478-2.641,11.644C96.126,282.397,98.242,280.271,96.929,278.855z"/>
			</g>
		</g>
		<g>
			<g>
				<path style="fill:#FFFFFF;" d="M102.54,238.805c-6.005-0.225-2.848,10.166-2.562,13.655c0.212,2.589,0.419,5.178,0.643,7.766
					c0.158,1.831,2.277,2.437,3.66,3.07c6.611,3.029,13.222,6.059,19.833,9.088c1.432,0.655,2.932,1.588,4.454,2.027
					c2.106,0.608,3.971-1.487,5.578-2.658c3.01-2.192,6.021-4.386,9.031-6.578c2.016-1.469,3.758-2.063,3.855-4.685
					c0.106-2.852-8.188-5.192-9.896-5.975c-11.28-5.169-22.56-10.338-33.84-15.506c-1.745-0.8-3.271,1.785-1.514,2.59
					c9.117,4.178,18.233,8.355,27.35,12.532c4.558,2.089,9.117,4.178,13.675,6.267c1.24,0.567,2.195-0.247,1.063,0.578
					c-2.535,1.846-5.07,3.692-7.605,5.539c-1.943,1.416-3.886,2.831-5.829,4.246c-1.401,1.021-0.834,0.853-2.997-0.139
					c-5.622-2.576-11.244-5.152-16.866-7.729c-2.042-0.935-4.083-1.87-6.124-2.806c-1.334-0.611-1.008-1.979-1.124-3.394
					c-0.25-3.051-0.501-6.103-0.752-9.153c-0.116-1.411-0.231-2.823-0.348-4.235c-0.045-0.549-0.09-1.097-0.135-1.646
					c-0.091-1.105-0.093,0.123,0.449,0.144C104.476,241.877,104.468,238.877,102.54,238.805z"/>
			</g>
		</g>
	</g>
	<g>
		<g>
			<g>
				<path style="fill:#FFFFFF;" d="M266.929,280.977c2.827-3.044-0.833-7.698-2.249-10.788c-1.155-2.521-2.386-7.268-6.18-5.529
					c-7.658,3.51-15.317,7.019-22.976,10.528c-3.773,1.729,0.586,8.057,1.539,10.137c1.19,2.597,2.55,8.264,6.585,6.415
					c7.659-3.51,15.317-7.019,22.977-10.528c1.757-0.805,0.231-3.39-1.514-2.59c-6.223,2.851-12.444,5.701-18.667,8.553
					c-1.269,0.581-2.537,1.162-3.806,1.743c-0.918,0.421-0.763-0.259-1.184-1.176c-1.521-3.321-3.044-6.643-4.565-9.964
					c0.053,0.115,17.383-7.896,18.814-8.553c1.269-0.581,2.537-1.162,3.806-1.743c0.919-0.421,0.764,0.259,1.185,1.176
					c0.793,1.731,5.162,9.069,4.113,10.198C263.493,280.271,265.609,282.397,266.929,280.977z"/>
			</g>
		</g>
		<g>
			<g>
				<path style="fill:#FFFFFF;" d="M259.197,241.805c0.692-0.026,0.517-0.988,0.365,0.857c-0.107,1.312-0.215,2.623-0.323,3.935
					c-0.276,3.366-0.553,6.732-0.829,10.099c-0.082,0.999,0.16,2.806-0.795,3.243c-2.151,0.985-4.302,1.971-6.452,2.956
					c-5.622,2.576-11.244,5.152-16.866,7.729c-2.047,0.938-1.624,1.139-2.827,0.262c-2-1.456-3.999-2.912-5.999-4.369
					c-2.386-1.737-4.771-3.476-7.158-5.213c-1.73-1.261-0.863-0.227,0.616-0.904c4.559-2.089,9.117-4.178,13.676-6.267
					c9.116-4.177,18.233-8.354,27.35-12.532c1.757-0.805,0.231-3.39-1.514-2.59c-11.03,5.054-22.061,10.108-33.091,15.162
					c-2.271,1.04-9.768,2.924-10.592,5.92c-0.627,2.28,1.044,3.074,2.564,4.182c3.207,2.337,6.414,4.673,9.621,7.009
					c1.206,0.878,3.662,3.352,5.242,3.352c1.514,0,3.491-1.359,4.787-1.953c6.642-3.043,13.284-6.086,19.926-9.129
					c1.443-0.662,3.155-1.107,4.012-2.569c0.99-1.69,0.618-5.726,0.771-7.577c0.294-3.581,0.588-7.162,0.882-10.743
					c0.199-2.429-0.613-3.96-3.365-3.857C257.269,238.877,257.262,241.877,259.197,241.805z"/>
			</g>
		</g>
	</g>
	<g>
		<g>
			<g>
				<path style="fill:#FFFFFF;" d="M167.843,70.603c-3.957,1.646-2.571,7.066-2.565,10.638c0.004,2.605-0.875,7.76,3.183,7.753
					c8.425-0.014,16.849-0.027,25.274-0.041c4.313-0.007,2.969-7.236,2.965-9.718c-0.004-2.673,1.124-8.734-3.185-8.727
					c-8.424,0.014-16.849,0.027-25.273,0.041c-1.935,0.003-1.935,3.003,0,3c6.844-0.011,13.688-0.022,20.532-0.034
					c2.116-0.003,4.915-1.051,4.919,1.396c0.006,3.653,0.012,7.307,0.018,10.96c0,0.166-18.875,0.113-20.508,0.116
					c-2.117,0.003-4.915,1.051-4.919-1.396c-0.002-1.604-0.913-10.567,0.357-11.095C170.4,72.763,169.629,69.859,167.843,70.603z"/>
			</g>
		</g>
		<g>
			<g>
				<path style="fill:#FFFFFF;" d="M158.269,109.409c-0.321-0.132-0.809,1.046,0.177-0.716c0.643-1.148,1.285-2.297,1.928-3.446
					c1.53-2.735,3.06-5.471,4.589-8.206c0.287-0.512,1.537-3.383,2.058-3.383c2.172-0.004,4.344-0.007,6.516-0.011
					c6.27-0.011,12.539-0.021,18.808-0.031c1.565-0.003,2.66-0.452,3.377,0.82c1.215,2.155,2.429,4.31,3.644,6.465
					c1.449,2.571,2.898,5.143,4.348,7.714c0.985,1.749,0.921,0.664-0.715,0.667c-5.015,0.008-10.028,0.017-15.042,0.025
					c-10.029,0.017-20.057,0.033-30.085,0.049c-1.935,0.003-1.935,3.003,0,3c12.408-0.021,24.815-0.041,37.223-0.061
					c2.123-0.003,10.095,1.309,11.565-1.202c1.237-2.113,0.016-3.333-1.032-5.191c-1.959-3.477-3.919-6.955-5.879-10.432
					c-0.618-1.097-1.882-4.508-3.277-4.716c-1.814-0.27-3.675-0.139-5.505-0.136c-7.271,0.012-14.543,0.024-21.815,0.036
					c-1.431,0.002-3.315-0.293-4.452,0.844c-1.73,1.73-2.875,5.014-4.043,7.102c-1.874,3.35-9.016,11.298-3.183,13.703
					C159.26,113.039,160.031,110.136,158.269,109.409z"/>
			</g>
		</g>
	</g>
	<g>
		<g>
			<circle style="fill:#FFFFFF;" cx="180.5" cy="180.568" r="28.836"/>
			<path style="fill:#FFFFFF;" d="M180.501,210.088c-16.276,0-29.52-13.244-29.52-29.52c0-16.276,13.243-29.52,29.52-29.52
				s29.517,13.244,29.517,29.52C210.018,196.844,196.777,210.088,180.501,210.088z M180.501,152.414
				c-15.525,0-28.154,12.63-28.154,28.154c0,15.521,12.629,28.154,28.154,28.154c15.523,0,28.151-12.633,28.151-28.154
				C208.652,165.044,196.024,152.414,180.501,152.414z"/>
		</g>
		<g>
			<g>
				<path style="fill:#FFFFFF;" d="M224.967,181.451c-0.459,9.658-8.187,12.793-16.441,12.793c-6.407,0-12.814,0-19.222,0
					c-13.173,0-26.346,0-39.519,0c-11.279,0-17.164-11.839-11.782-21.356c3.572-6.316,10.522-5.965,16.667-5.965
					c14.827,0,29.654,0,44.48,0c4.021,0,8.042,0,12.063,0C219.86,166.923,224.967,173.103,224.967,181.451c0,1.935,3,1.935,3,0
					c0-8.44-5.089-17.02-14.416-17.463c-3.75-0.178-7.521-0.065-11.274-0.065c-14.999,0-29.998,0-44.997,0
					c-3.841,0-7.758-0.236-11.57,0.311c-8.871,1.273-13.739,10.765-12.558,18.993c1.162,8.094,7.738,14.018,15.993,14.018
					c4.51,0,9.02,0,13.53,0c13.681,0,27.363,0,41.044,0c2.818,0,5.638,0,8.456,0c8.903,0,15.384-7.209,15.792-15.793
					C228.059,179.517,225.059,179.525,224.967,181.451z"/>
			</g>
		</g>
	</g>
	<g>
		<g>
			<path style="fill:#FFFFFF;" d="M74.675,219.914c0.002,1.111,0.905,2.011,2.016,2.01l16.995-0.028
				c1.111-0.002,2.011-0.904,2.009-2.017l-0.057-34.659c-0.002-1.112-0.905-2.011-2.016-2.009l-16.995,0.027
				c-1.112,0.002-2.012,0.904-2.009,2.016L74.675,219.914z"/>
			<g>
				<path style="fill:#FFFFFF;" d="M73.229,220.313c1.372,5.037,10.031,3.101,13.905,3.094c3.602-0.006,10.069,1.27,10.06-4.111
					c-0.019-11.358-0.037-22.717-0.056-34.075c-0.009-5.495-10.87-3.497-13.959-3.492c-3.601,0.006-10.069-1.27-10.06,4.11
					c0.019,11.358,0.037,22.718,0.056,34.076c0.003,1.935,3.003,1.935,3,0c-0.016-9.492-0.031-18.984-0.046-28.476
					c-0.003-1.762-0.006-3.523-0.009-5.285c-0.003-1.76,1.373-1.416,2.805-1.419c4.875-0.008,9.749-0.016,14.624-0.023
					c1.21-0.002,0.632,26.494,0.636,28.984c0.003,1.761,0.006,3.522,0.009,5.284c0.003,1.761-1.372,1.417-2.805,1.42
					c-2.192,0.004-14.647,1.39-15.267-0.884C75.614,217.651,72.72,218.443,73.229,220.313z"/>
			</g>
		</g>
		<g>
			<path style="fill:#FFFFFF;" d="M119.322,234.156c0.002,1.133-0.916,2.053-2.049,2.055l-13.175-11.937
				c-1.291-0.679-2.054-0.915-2.056-2.049l-0.065-39.239c-0.002-1.135,0.209-1.074,2.049-2.056l13.136-12.007
				c1.133-0.002,2.054,0.916,2.056,2.049L119.322,234.156z"/>
			<g>
				<path style="fill:#FFFFFF;" d="M117.876,233.758c-0.258,0.959,0.904,1.796,0.006,0.983c-0.404-0.366-0.807-0.731-1.211-1.098
					c-1.277-1.157-2.554-2.313-3.832-3.471c-2.491-2.258-4.983-4.515-7.475-6.772c-1.86-1.686-1.822-1.184-1.826-3.636
					c-0.005-3.279-0.011-6.559-0.017-9.838c-0.012-7.577-0.025-15.154-0.038-22.731c-0.002-1.402-0.004-2.806-0.007-4.209
					c0-0.282,5.407-4.466,5.681-4.717c2.627-2.401,5.254-4.802,7.88-7.203c1.699-1.553,0.68-0.079,0.682,1.499
					c0.009,5.631,0.019,11.262,0.028,16.893c0.023,14.117,0.046,28.234,0.069,42.353c0.001,0.781,0.002,1.563,0.004,2.345
					c0.003,1.935,3.003,1.935,3,0c-0.019-11.361-0.037-22.723-0.056-34.084c-0.012-7.293-0.024-14.585-0.036-21.878
					c-0.005-3.085,0.918-7.673-1.471-10.053c-1.63-1.624-3.131-0.303-4.342,0.804c-2.849,2.604-5.697,5.208-8.546,7.812
					c-1.341,1.226-4.432,2.957-5.355,4.387c-0.79,1.225-0.537,2.9-0.535,4.304c0.021,12.259,0.041,24.519,0.061,36.778
					c0.004,2.247,2.277,2.912,3.683,4.186c2.403,2.178,4.806,4.354,7.208,6.531c2.508,2.272,7.566,8.188,9.334,1.612
					C121.271,232.685,118.377,231.891,117.876,233.758z"/>
			</g>
		</g>
		<g>
			<path style="fill:#FFFFFF;" d="M72.211,215.211c0.001,0.811,0.082,1.467,0.179,1.467l1.496-0.002
				c0.098,0,0.176-0.657,0.175-1.468l-0.042-25.263c-0.001-0.811-0.082-1.467-0.18-1.467l-1.496,0.002
				c-0.098,0.001-0.176,0.658-0.175,1.469L72.211,215.211z"/>
			<g>
				<path style="fill:#FFFFFF;" d="M70.711,215.211c0.036,0.703,0.042,1.216,0.233,1.865c0.188,0.642,0.771,1.103,1.446,1.102
					c0.499-0.001,0.998-0.001,1.496-0.002c0.674-0.001,1.26-0.458,1.446-1.102c1.247-4.307,0.215-10.091,0.208-14.498
					c-0.007-4.404,1.007-10.195-0.254-14.496c-0.188-0.642-0.771-1.103-1.446-1.102c-0.499,0.001-0.997,0.001-1.496,0.002
					c-0.674,0.001-1.26,0.458-1.446,1.102c-1.081,3.732-0.217,8.698-0.211,12.511C70.695,205.466,70.704,210.338,70.711,215.211
					c0.003,1.935,3.003,1.935,3,0c-0.007-4.21-0.014-8.421-0.021-12.631c-0.006-4.104-1.06-9.694,0.101-13.701
					c-0.482,0.367-0.964,0.734-1.446,1.102c0.499-0.001,0.997-0.001,1.496-0.002c-0.482-0.367-0.964-0.734-1.446-1.102
					c1.174,4.004,0.14,9.595,0.147,13.699c0.006,4.105,1.059,9.693-0.101,13.701c0.482-0.367,0.964-0.734,1.446-1.102
					c-0.499,0.001-0.998,0.001-1.496,0.002c0.482,0.367,0.964,0.734,1.446,1.102c-0.042-0.356-0.083-0.712-0.125-1.068
					C73.612,213.286,70.612,213.276,70.711,215.211z"/>
			</g>
		</g>
	</g>
</g>
<g id="Ebene_1">
</g>
</svg>
