<?xml version="1.0" encoding="iso-8859-1"?>
<!-- Generator: Adobe Illustrator 16.0.0, SVG Export Plug-In . SVG Version: 6.00 Build 0)  -->
<!DOCTYPE svg PUBLIC "-//W3C//DTD SVG 1.1 Tiny//EN" "http://www.w3.org/Graphics/SVG/1.1/DTD/svg11-tiny.dtd">
<svg version="1.1" baseProfile="tiny" id="audio_x5F_rew"
	 xmlns="http://www.w3.org/2000/svg" xmlns:xlink="http://www.w3.org/1999/xlink" x="0px" y="0px" width="361px" height="361px"
	 viewBox="0 0 361 361" xml:space="preserve">
<g>
	<path fill="#FFFFFF" d="M174.723,98.995c-35,26.75-70,53.501-105,80.252c-3.178,2.429-3.178,6.206,0,8.635
		c35,26.75,70,53.5,105,80.251c3.126,2.39,7.523-0.882,7.523-4.317c0-49.382,0-98.765,0-148.147c0-4.119,0-8.237,0-12.355
		c0-6.449-10-6.449-10,0c0,49.382,0,98.765,0,148.147c0,4.119,0,8.237,0,12.355c2.508-1.439,5.016-2.878,7.523-4.317
		c-35-26.75-70-53.5-105-80.251c0,2.878,0,5.756,0,8.635c35-26.75,70-53.501,105-80.252
		C184.819,103.77,179.848,95.077,174.723,98.995z"/>
</g>
<g>
	<path fill="#FFFFFF" d="M216.723,98.995c-35,26.75-70,53.501-105,80.252c-3.178,2.429-3.178,6.206,0,8.635
		c35,26.75,70,53.5,105,80.251c3.126,2.39,7.523-0.882,7.523-4.317c0-49.382,0-98.765,0-148.147c0-4.119,0-8.237,0-12.355
		c0-6.449-10-6.449-10,0c0,49.382,0,98.765,0,148.147c0,4.119,0,8.237,0,12.355c2.508-1.439,5.016-2.878,7.523-4.317
		c-35-26.75-70-53.5-105-80.251c0,2.878,0,5.756,0,8.635c35-26.75,70-53.501,105-80.252
		C226.819,103.77,221.848,95.077,216.723,98.995z"/>
</g>
</svg>
