<?xml version="1.0" encoding="iso-8859-1"?>
<!-- Generator: Adobe Illustrator 16.0.0, SVG Export Plug-In . SVG Version: 6.00 Build 0)  -->
<!DOCTYPE svg PUBLIC "-//W3C//DTD SVG 1.1//EN" "http://www.w3.org/Graphics/SVG/1.1/DTD/svg11.dtd">
<svg version="1.1" xmlns="http://www.w3.org/2000/svg" xmlns:xlink="http://www.w3.org/1999/xlink" x="0px" y="0px" width="361px"
	 height="361px" viewBox="0 0 361 361" style="enable-background:new 0 0 361 361;" xml:space="preserve">
<g id="audio_x5F_loudness">
	<g>
		<g>
			<g>
				<path style="fill:#FFFFFF;" d="M70.713,262.929c1.48,7.332,10.343,5.624,15.891,5.624c5.974,0,12.56,0.824,18.45-0.365
					c5.432-1.097,4.435-8.474,4.435-12.449c0-7.512,0-15.023,0-22.536c0-6.845,0-13.69,0-20.535c0-4.736-0.925-9.826-6.989-9.826
					c-6.786,0-13.573,0-20.359,0c-5.083,0-11.553-0.038-11.553,6.944c0,17.404,0,34.809,0,52.213c0,4.514,7,4.514,7,0
					c0-12.181,0-24.361,0-36.542c0-5.224,0-10.447,0-15.671c0-0.7-0.71,0.056-0.011,0.056c1.017,0,2.035,0,3.052,0
					c3.958,0,7.917,0,11.875,0c3.089,0,6.178,0,9.267,0c1.267,0,0.718,0.117,0.718-0.347c0,0.598,0,1.195,0,1.793
					c0,6.317,0,12.634,0,18.951c0,7.784,0,15.568,0,23.353c0,2.299,0,4.599,0,6.898c0,1.937,0.736,1.063-1.198,1.063
					c-4.573,0-9.146,0-13.719,0c-2.314,0-4.629,0-6.943,0c-1.437,0-2.994,0.368-3.167-0.485
					C76.57,256.645,69.823,258.521,70.713,262.929z"/>
			</g>
		</g>
		<g>
			<g>
				<path style="fill:#FFFFFF;" d="M150.832,282.622c-0.223,0.224-0.447,0.446-0.67,0.67c0.899,0.117,1.798,0.235,2.697,0.353
					c-10.442-5.862-20.884-11.725-31.326-17.588c-0.345-0.193-0.69-0.387-1.035-0.581c-1.884-1.058-1.381,0.3-1.381-0.624
					c0-1.888,0-3.774,0-5.662c0-7.2,0-14.4,0-21.601c0-7.608,0-15.217,0-22.825c0-2.298,0-4.596,0-6.894
					c0-2.703-0.369-1.151,1.412-2.151c10.534-5.914,21.068-11.829,31.602-17.743c0.243-0.136,0.485-0.272,0.728-0.408
					c-0.899,0.117-1.798,0.235-2.697,0.353c1.002,0.202,0.545,2.331,0.545,3.859c0,3.621,0,7.242,0,10.863
					c0,10.987,0,21.976,0,32.963c0,15.982,0,31.965,0,47.947c0,4.514,7,4.514,7,0c0-24.835,0-49.671,0-74.506
					c0-5.606,0-11.213,0-16.82c0-3.354,0.579-7.619-2.646-9.792c-4.855-3.272-10.114,1.546-14.383,3.943
					c-6.631,3.723-13.261,7.445-19.892,11.169c-3.562,1.999-8.669,3.598-8.669,8.368c0,3.716,0,7.431,0,11.146
					c0,14.043,0,28.086,0,42.129c0,3.696-0.627,7.458,1.849,10.483c1.027,1.254,3.318,2.026,4.792,2.854
					c2.547,1.431,5.095,2.86,7.642,4.291c6.168,3.463,12.336,6.926,18.504,10.389c1.464,0.822,2.928,1.644,4.392,2.466
					c3.711,2.084,7.604-1.81,8.287-5.188C158.471,280.076,151.725,278.199,150.832,282.622z"/>
			</g>
		</g>
	</g>
	<g id="g8035_2_" transform="translate(-11401.102,142.51387)">
		<g id="path1111_2_">
			<line style="fill:#FFFFFF;" x1="11665.422" y1="41.797" x2="11665.422" y2="-70.715"/>
			<g>
				<path style="fill:#FFFFFF;" d="M11666.922,41.797c0-37.504,0-75.007,0-112.511c0-1.935-3-1.935-3,0c0,37.504,0,75.007,0,112.511
					C11663.922,43.731,11666.922,43.731,11666.922,41.797L11666.922,41.797z"/>
			</g>
		</g>
		<g id="path1123_2_">
			<line style="fill:#FFFFFF;" x1="11619.198" y1="41.797" x2="11619.198" y2="-70.715"/>
			<g>
				<path style="fill:#FFFFFF;" d="M11620.698,41.797c0-37.504,0-75.007,0-112.511c0-1.935-3-1.935-3,0c0,37.504,0,75.007,0,112.511
					C11617.698,43.731,11620.698,43.731,11620.698,41.797L11620.698,41.797z"/>
			</g>
		</g>
		<g id="path1147_2_" style="display:none;">
			<line style="display:inline;fill:#FFFFFF;" x1="11639.008" y1="41.797" x2="11639.008" y2="-70.715"/>
			<g style="display:inline;">
				<path style="fill:#FFFFFF;" d="M11640.508,41.797c0-37.504,0-75.007,0-112.511c0-1.935-3-1.935-3,0c0,37.504,0,75.007,0,112.511
					C11637.508,43.731,11640.508,43.731,11640.508,41.797L11640.508,41.797z"/>
			</g>
		</g>
		<g id="path1171_2_">
			<line style="fill:#FFFFFF;" x1="11650.895" y1="41.797" x2="11650.895" y2="-70.715"/>
			<g>
				<path style="fill:#FFFFFF;" d="M11652.395,41.797c0-37.504,0-75.007,0-112.511c0-1.935-3-1.935-3,0c0,37.504,0,75.007,0,112.511
					C11649.395,43.731,11652.395,43.731,11652.395,41.797L11652.395,41.797z"/>
			</g>
		</g>
	</g>
	<g id="path8054">
		<line style="fill:#FFFFFF;" x1="72.945" y1="166.935" x2="290.998" y2="166.935"/>
		<g>
			<path style="fill:#FFFFFF;" d="M72.945,168.435c48.116,0,96.232,0,144.349,0c24.568,0,49.136,0,73.704,0c1.935,0,1.935-3,0-3
				c-48.116,0-96.232,0-144.349,0c-24.568,0-49.136,0-73.704,0C71.011,165.435,71.011,168.435,72.945,168.435L72.945,168.435z"/>
		</g>
	</g>
	<g id="use8056" transform="translate(0,-1000.8117)">
		<g id="path8054_1_">
			<line style="fill:#FFFFFF;" x1="72.945" y1="128.046" x2="290.998" y2="128.046"/>
			<g>
				<path style="fill:#FFFFFF;" d="M72.945,129.546c48.116,0,96.232,0,144.349,0c24.568,0,49.136,0,73.704,0c1.935,0,1.935-3,0-3
					c-48.116,0-96.232,0-144.349,0c-24.568,0-49.136,0-73.704,0C71.011,126.546,71.011,129.546,72.945,129.546L72.945,129.546z"/>
			</g>
		</g>
	</g>
	<g>
		<g id="path7772">
			<g>
				<path style="fill:#FFFFFF;" d="M276.851,107.459c-7.754-5.016-15.192-3.751-22.107,1.795
					c-5.077,4.071-8.941,9.554-13.782,13.915c-3.667,3.303-6.134,4.932-11.095,4.042c-3.102-0.557-6.181-1.562-8.977-3.008
					c-2.536-1.312-4.604-3.318-7.281-4.412c-6.658-2.722-11.86,2.192-17.641,2.521c-14.348,0.818-28.777-4.979-41.188-11.717
					c-18.07-9.812-33.822-24.766-48.515-39.022c-3.24-3.143-8.194,1.802-4.95,4.95c25.068,24.322,52.248,48.319,88.198,52.531
					c5.467,0.641,10.557,0.323,15.483-2.061c6.184-2.992,11.311,3.084,16.913,5.27c4.281,1.669,10.238,3.344,14.794,1.943
					c6.169-1.896,11.622-7.954,15.77-12.657c2.774-3.146,5.543-6.156,8.938-8.668c3.786-2.801,8.198-1.776,11.905,0.622
					C277.12,115.963,280.625,109.901,276.851,107.459L276.851,107.459z"/>
			</g>
		</g>
		<g id="path7774">
			<g>
				<path style="fill:#FFFFFF;" d="M95.519,83.082c6.65,7.773,13.3,15.546,19.946,23.324c14.232,16.655,31.245,30.07,51.629,38.48
					c6.143,2.534,12.484,4.27,18.951,5.766c5.396,1.249,11.974,2.695,17.403,0.896c4.052-1.342,4.662-2,8.456-0.31
					c5.99,2.668,10.503,6.705,17.229,7.641c0.539,0.075,4.516,0.578,2.609,0.125c0.724,0.172,1.495,0.229,2.238,0.26
					c3.398,0.144,6.77-1.244,9.636-2.928c4.997-2.937,8.427-7.844,11.584-12.55c2.529-3.771,6.121-8.188,10.748-9.361
					c2.744-0.695,5.371,0.804,8.011,2.105c4.033,1.989,7.582-4.048,3.533-6.044c-4.925-2.429-9.81-4.278-15.166-2.251
					c-10.812,4.092-13.632,16.996-23.167,22.598c-1.246,0.732-2.752,1.261-4.195,1.403c-0.616,0.061-2.151-0.145-1.36,0.017
					c-4.676-0.954-8.387-1.183-12.713-3.896c-3.412-2.14-7.11-4.526-11.187-5.14c-4.256-0.64-7.569,1.952-11.659,2.082
					c-6.713,0.215-13.808-2.185-20.2-3.98c-7.182-2.019-13.877-5.338-20.29-9.094c-5.291-3.099-10.768-5.83-15.63-9.597
					c-4.613-3.573-8.836-7.657-12.922-11.811c-8.54-8.683-16.21-18.28-24.119-27.525c-1.472-1.721-2.944-3.441-4.416-5.162
					C97.53,74.696,92.603,79.671,95.519,83.082L95.519,83.082z"/>
			</g>
		</g>
		<g id="path7778">
			<g>
				<path style="fill:#FFFFFF;" d="M87.7,95.431c5.907,8.261,11.884,16.472,18.043,24.547c4.934,6.47,9.833,12.989,15.96,18.373
					c7.798,6.852,15.011,13.787,23.877,19.322c7.551,4.714,15.634,8.646,24.081,11.458c9.848,3.278,20.614,5.643,31.022,4.434
					c3.197-0.372,6.306-1.558,9.422-0.163c2.472,1.106,4.394,3.412,6.616,4.94c4.51,3.101,9.299,5.064,14.829,5.291
					c17.989,0.739,24.828-33.509,43.373-22.7c3.908,2.278,7.43-3.772,3.533-6.044c-7.738-4.511-16.322-3.618-23.154,1.936
					c-6.756,5.492-11.383,14.532-19.131,18.686c-9.909,5.313-17.365-6.738-25.696-9.395c-4.536-1.447-9.439,0.721-14.022,0.782
					c-6.392,0.086-12.625-1.084-18.788-2.688c-19.011-4.948-35.287-15.827-49.347-29.267
					c-13.353-12.764-23.846-28.041-34.576-43.045C91.144,88.26,85.068,91.75,87.7,95.431L87.7,95.431z"/>
			</g>
		</g>
	</g>
	<g id="path8054_4_">
		<line style="fill:#FFFFFF;" x1="71.807" y1="89.157" x2="289.859" y2="89.157"/>
		<g>
			<path style="fill:#FFFFFF;" d="M71.807,90.657c48.116,0,96.232,0,144.349,0c24.568,0,49.136,0,73.704,0c1.935,0,1.935-3,0-3
				c-48.116,0-96.232,0-144.349,0c-24.568,0-49.136,0-73.704,0C69.872,87.657,69.872,90.657,71.807,90.657L71.807,90.657z"/>
		</g>
	</g>
	<g>
		<g>
			<path style="fill:#FFFFFF;" d="M177.759,212.635c11.894,12.397,11.894,31.431,0,43.828c-3.124,3.256,1.82,8.212,4.95,4.949
				c14.549-15.165,14.549-38.562,0-53.727C179.579,204.423,174.635,209.379,177.759,212.635L177.759,212.635z"/>
		</g>
	</g>
	<g>
		<g>
			<path style="fill:#FFFFFF;" d="M188.271,203.847c17.154,17.676,17.153,45.452,0,63.128c-3.144,3.239,1.801,8.193,4.949,4.949
				c19.814-20.418,19.815-52.609,0-73.026C190.071,195.653,185.127,200.607,188.271,203.847L188.271,203.847z"/>
		</g>
	</g>
	<g>
		<g>
			<path style="fill:#FFFFFF;" d="M199.439,195.307c21.631,22.16,21.631,57.391,0,79.551c-3.154,3.23,1.792,8.184,4.949,4.949
				c24.295-24.889,24.296-64.561,0-89.449C201.231,187.123,196.285,192.076,199.439,195.307L199.439,195.307z"/>
		</g>
	</g>
</g>
<g id="Ebene_1">
</g>
</svg>
