<?xml version="1.0" encoding="iso-8859-1"?>
<!-- Generator: Adobe Illustrator 16.0.0, SVG Export Plug-In . SVG Version: 6.00 Build 0)  -->
<!DOCTYPE svg PUBLIC "-//W3C//DTD SVG 1.1 Tiny//EN" "http://www.w3.org/Graphics/SVG/1.1/DTD/svg11-tiny.dtd">
<svg version="1.1" baseProfile="tiny" id="audio_x5F_repeat"
	 xmlns="http://www.w3.org/2000/svg" xmlns:xlink="http://www.w3.org/1999/xlink" x="0px" y="0px" width="361px" height="361px"
	 viewBox="0 0 361 361" xml:space="preserve">
<g>
	<path fill="#FFFFFF" d="M161.292,224.894c15.04,11.495,30.079,22.99,45.119,34.484c0-2.878,0-5.756,0-8.635
		c-15.04,11.495-30.079,22.989-45.119,34.484c2.508,1.439,5.016,2.878,7.523,4.317c0-22.989,0-45.979,0-68.968
		c0-6.449-10-6.449-10,0c0,22.989,0,45.979,0,68.968c0,3.435,4.397,6.707,7.523,4.317c15.04-11.495,30.079-22.989,45.119-34.484
		c3.178-2.429,3.178-6.206,0-8.635c-15.04-11.495-30.079-22.99-45.119-34.484C161.213,212.342,156.242,221.034,161.292,224.894z"/>
</g>
<g>
	<path fill="#FFFFFF" d="M195.199,118.007c11.306,0,22.612,0,33.918,0c7.367,0,14.734,0,22.101,0c4.419,0,8.981-0.33,13.297,0.735
		c9.109,2.247,15.102,11.064,15.102,20.189c0,3.605,0,7.21,0,10.814c0,15.209,0,30.419,0,45.628c0,10.818,0,21.636,0,32.454
		c0,6.19-1.67,11.626-6.025,16.209c-5.983,6.295-14.011,6.025-21.958,6.025c-6.449,0-6.449,10,0,10c8.552,0,16.41-0.18,23.96-4.868
		c8.718-5.413,14.023-15.583,14.023-25.76c0-9.764,0-19.529,0-29.293c0-15.598,0-31.196,0-46.794
		c0-11.644,1.223-23.548-6.398-33.406c-11.176-14.457-29.208-11.933-45.314-11.933c-14.235,0-28.471,0-42.706,0
		C188.75,108.007,188.75,118.007,195.199,118.007L195.199,118.007z"/>
</g>
<g>
	<path fill="#FFFFFF" d="M191.458,73.191c-15.04,11.495-30.079,22.99-45.119,34.484c-3.178,2.429-3.178,6.206,0,8.635
		c15.04,11.495,30.079,22.989,45.119,34.484c3.126,2.39,7.523-0.882,7.523-4.317c0-22.989,0-45.979,0-68.968c0-6.449-10-6.449-10,0
		c0,22.989,0,45.979,0,68.968c2.508-1.439,5.016-2.878,7.523-4.317c-15.04-11.495-30.079-22.989-45.119-34.484
		c0,2.878,0,5.756,0,8.635c15.04-11.495,30.079-22.99,45.119-34.484C201.555,77.966,196.584,69.273,191.458,73.191z"/>
</g>
<g>
	<path fill="#FFFFFF" d="M161.618,249.061c-11.306,0-22.612,0-33.918,0c-7.367,0-14.734,0-22.101,0
		c-4.419,0-8.981,0.33-13.297-0.735C83.192,246.08,77.2,237.262,77.2,228.137c0-3.605,0-7.21,0-10.814c0-15.209,0-30.419,0-45.628
		c0-10.818,0-21.636,0-32.454c0-6.19,1.67-11.626,6.025-16.209c5.983-6.295,14.011-6.025,21.958-6.025c6.449,0,6.449-10,0-10
		c-8.552,0-16.41,0.18-23.96,4.868c-8.718,5.413-14.023,15.583-14.023,25.76c0,9.764,0,19.529,0,29.293c0,15.598,0,31.196,0,46.794
		c0,11.644-1.223,23.548,6.398,33.406c11.176,14.457,29.208,11.933,45.314,11.933c14.235,0,28.471,0,42.706,0
		C168.067,259.061,168.067,249.061,161.618,249.061L161.618,249.061z"/>
</g>
</svg>
