<?xml version="1.0" encoding="iso-8859-1"?>
<!-- Generator: Adobe Illustrator 16.0.0, SVG Export Plug-In . SVG Version: 6.00 Build 0)  -->
<!DOCTYPE svg PUBLIC "-//W3C//DTD SVG 1.1//EN" "http://www.w3.org/Graphics/SVG/1.1/DTD/svg11.dtd">
<svg version="1.1" xmlns="http://www.w3.org/2000/svg" xmlns:xlink="http://www.w3.org/1999/xlink" x="0px" y="0px" width="361px"
	 height="361px" viewBox="0 0 361 361" style="enable-background:new 0 0 361 361;" xml:space="preserve">
<g id="audio_x5F_ls_x5F_51">
	<g>
		<g>
			<g>
				<path style="fill:#FFFFFF;" d="M71.727,85.799c-4.055,3.375,1.82,11.332,3.43,14.845c1.703,3.716,3.059,9.439,8.267,7.053
					c10.679-4.893,21.357-9.786,32.036-14.679c4.994-2.288-1.877-12.353-3.126-15.08c-1.702-3.716-3.059-9.439-8.266-7.053
					c-10.679,4.893-21.357,9.786-32.036,14.679c-1.757,0.805-0.231,3.391,1.514,2.591c8.938-4.095,17.875-8.19,26.812-12.286
					c1.742-0.798,3.483-1.596,5.225-2.394c1.516-0.694,1.883,1.003,2.419,2.173c2.137,4.663,4.273,9.326,6.41,13.989
					c0.45,0.981-25.052,12.057-27.276,13.075c-1.741,0.798-3.483,1.596-5.224,2.394c-1.516,0.694-1.883-1.003-2.419-2.173
					c-1.072-2.338-7.759-13.251-5.643-15.013C75.336,86.682,73.202,84.571,71.727,85.799z"/>
			</g>
		</g>
		<g>
			<g>
				<path style="fill:#FFFFFF;" d="M81.84,141.529c-1.343,0.225-0.915,0.177-0.8-1.223c0.112-1.37,0.225-2.74,0.337-4.111
					c0.333-4.061,0.667-8.121,1-12.181c0.199-2.422,0.398-4.845,0.597-7.267c0.187-2.271,1.548-2.291,3.417-3.147
					c11.338-5.195,22.676-10.391,34.014-15.586c0.296-0.135,4.505,3.34,4.711,3.49c3.221,2.346,6.442,4.692,9.663,7.039
					c2.314,1.686,4.628,3.371,6.943,5.057c0.845,0.616-1.257,1.054-2.155,1.465c-12.52,5.737-25.04,11.474-37.56,17.21
					c-6.842,3.135-13.685,6.271-20.527,9.405c-1.757,0.805-0.231,3.391,1.515,2.591c10.116-4.636,20.233-9.271,30.349-13.907
					c6.869-3.147,13.737-6.294,20.605-9.441c2.779-1.273,6.762-2.305,9.142-4.285c5.051-4.202-3.153-8.03-6.041-10.134
					c-4.911-3.577-9.705-7.529-14.805-10.831c-2.898-1.875-8.28,2.007-10.9,3.208c-7.079,3.244-14.158,6.487-21.237,9.731
					c-2.766,1.267-5.531,2.534-8.296,3.802c-2.556,1.171-2.033,6.695-2.227,9.056c-0.466,5.675-0.932,11.349-1.398,17.023
					c-0.281,3.416-0.22,6.708,4.449,5.928C84.542,144.104,83.732,141.213,81.84,141.529z"/>
			</g>
		</g>
	</g>
	<g>
		<g>
			<g>
				<path style="fill:#FFFFFF;" d="M287.892,87.92c2.09,1.739-4.312,12.107-5.344,14.36c-0.415,0.906-1.083,3.575-2.449,2.949
					c-1.6-0.733-3.199-1.466-4.798-2.199c-9.158-4.196-18.316-8.393-27.475-12.589c-1.448-0.664,4.935-12.659,5.614-14.141
					c0.415-0.906,1.083-3.575,2.449-2.949c1.6,0.733,3.199,1.466,4.799,2.199c9.169,4.201,18.338,8.402,27.507,12.604
					c1.745,0.8,3.271-1.786,1.514-2.591c-10.571-4.844-21.143-9.688-31.715-14.532c-5.123-2.347-6.402,2.135-8.199,6.057
					c-1.644,3.588-7.977,12.233-3.818,15.694c3.5,2.913,9.487,4.443,13.59,6.322c6.143,2.815,12.285,5.629,18.428,8.444
					c5.123,2.348,6.402-2.134,8.199-6.057c1.644-3.587,7.977-12.233,3.819-15.694C288.537,84.571,286.403,86.682,287.892,87.92z"/>
			</g>
		</g>
		<g>
			<g>
				<path style="fill:#FFFFFF;" d="M279.102,144.422c6.745,1.127,4.365-6.946,4.043-10.87c-0.5-6.094-1.127-12.191-1.468-18.296
					c-0.209-3.727-7.41-5.434-10.048-6.643c-7.079-3.244-14.158-6.487-21.237-9.731c-2.619-1.201-8.001-5.083-10.899-3.208
					c-5.101,3.301-9.895,7.253-14.806,10.831c-2.888,2.104-11.091,5.931-6.04,10.134c2.379,1.98,6.363,3.011,9.142,4.285
					c16.985,7.783,33.97,15.565,50.955,23.348c1.745,0.8,3.271-1.786,1.514-2.591c-10.116-4.635-20.232-9.271-30.35-13.906
					c-6.868-3.147-13.736-6.294-20.604-9.442c-1.02-0.467-9.002-4.94-9.734-4.406c5.258-3.83,10.516-7.659,15.773-11.489
					c1.548-1.128,3.097-2.256,4.645-3.383c1.975-1.438,2.759-0.393,4.954,0.613c6.751,3.094,13.503,6.188,20.255,9.281
					c3.011,1.379,6.021,2.759,9.031,4.138c1.815,0.832,4.396,1.198,4.522,3.467c0.228,4.068,0.668,8.136,1.001,12.197
					c0.247,3.008,0.494,6.016,0.741,9.024c0.082,1.001,0.165,2.003,0.247,3.004c0.1,1.21,0.396,0.956-0.84,0.75
					C278.007,141.213,277.196,144.104,279.102,144.422z"/>
			</g>
		</g>
	</g>
	<g>
		<g>
			<g>
				<path style="fill:#FFFFFF;" d="M96.929,278.854c-1.015-1.094,3.064-7.907,3.817-9.55c0.267-0.584,0.65-2.204,1.189-1.957
					c1.132,0.519,2.264,1.037,3.396,1.557c6.441,2.951,12.881,5.901,19.322,8.853c0.338,0.155-3.62,8.342-4.076,9.337
					c-0.268,0.584-0.65,2.203-1.189,1.957c-1.132-0.519-2.264-1.038-3.396-1.557c-6.456-2.958-12.912-5.916-19.367-8.874
					c-1.746-0.8-3.271,1.785-1.515,2.59c7.588,3.478,15.176,6.954,22.764,10.431c3.662,1.679,4.79-1.933,6-4.575
					c1.458-3.183,5.579-8.478,2.641-11.644c-1.998-2.154-7.057-3.329-9.666-4.524c-4.467-2.047-8.934-4.094-13.4-6.14
					c-3.663-1.679-4.79,1.932-6.001,4.575c-1.458,3.181-5.58,8.479-2.641,11.643C96.127,282.396,98.244,280.27,96.929,278.854z"/>
			</g>
		</g>
		<g>
			<g>
				<path style="fill:#FFFFFF;" d="M102.541,238.804c-6.005-0.22-2.849,10.164-2.562,13.655c0.212,2.589,0.419,5.179,0.643,7.766
					c0.158,1.832,2.276,2.438,3.66,3.071c6.611,3.029,13.222,6.059,19.833,9.088c1.431,0.655,2.932,1.59,4.454,2.027
					c2.106,0.606,3.97-1.487,5.578-2.658c3.01-2.193,6.021-4.386,9.031-6.578c2.017-1.469,3.758-2.063,3.855-4.685
					c0.106-2.852-8.188-5.192-9.896-5.976c-11.28-5.169-22.56-10.337-33.839-15.506c-1.746-0.8-3.271,1.785-1.515,2.59
					c9.117,4.178,18.234,8.355,27.351,12.533c4.558,2.089,9.117,4.178,13.675,6.267c1.24,0.567,2.195-0.247,1.063,0.577
					c-2.535,1.847-5.07,3.693-7.605,5.54c-1.943,1.415-3.886,2.83-5.829,4.245c-1.402,1.021-0.833,0.854-2.997-0.138
					c-5.622-2.576-11.244-5.152-16.866-7.729c-2.042-0.935-4.083-1.87-6.124-2.806c-1.334-0.611-1.008-1.98-1.124-3.395
					c-0.25-3.051-0.501-6.102-0.752-9.152c-0.116-1.412-0.231-2.823-0.348-4.235c-0.045-0.549-0.09-1.097-0.135-1.646
					c-0.091-1.105-0.093,0.123,0.449,0.143C104.476,241.875,104.469,238.874,102.541,238.804z"/>
			</g>
		</g>
	</g>
	<g>
		<g>
			<g>
				<path style="fill:#FFFFFF;" d="M266.929,280.976c2.827-3.041-0.834-7.699-2.249-10.787c-1.155-2.521-2.385-7.267-6.179-5.529
					c-7.659,3.51-15.317,7.019-22.977,10.528c-3.772,1.728,0.587,8.057,1.54,10.137c1.189,2.597,2.549,8.264,6.585,6.414
					c7.658-3.509,15.317-7.019,22.976-10.528c1.757-0.805,0.231-3.39-1.514-2.59c-6.223,2.851-12.444,5.702-18.666,8.553
					c-1.269,0.582-2.537,1.163-3.806,1.744c-0.919,0.421-0.764-0.259-1.184-1.176c-1.522-3.321-3.044-6.643-4.565-9.964
					c0.052,0.114,17.382-7.896,18.814-8.553c1.269-0.581,2.537-1.162,3.806-1.743c0.918-0.421,0.763,0.259,1.184,1.176
					c0.793,1.731,5.161,9.069,4.113,10.197C263.492,280.27,265.609,282.396,266.929,280.976z"/>
			</g>
		</g>
		<g>
			<g>
				<path style="fill:#FFFFFF;" d="M259.197,241.804c0.692-0.025,0.517-0.986,0.365,0.858c-0.107,1.312-0.215,2.623-0.323,3.935
					c-0.276,3.366-0.553,6.731-0.829,10.098c-0.082,0.999,0.16,2.807-0.795,3.244c-2.15,0.985-4.302,1.971-6.452,2.956
					c-5.621,2.576-11.243,5.152-16.865,7.729c-2.047,0.938-1.623,1.139-2.828,0.261c-2-1.456-3.999-2.912-5.999-4.368
					c-2.386-1.738-4.771-3.476-7.157-5.213c-1.73-1.261-0.864-0.227,0.615-0.904c4.559-2.089,9.117-4.178,13.676-6.267
					c9.116-4.178,18.233-8.355,27.35-12.533c1.757-0.805,0.231-3.39-1.514-2.59c-11.03,5.054-22.061,10.108-33.091,15.163
					c-2.271,1.04-9.768,2.924-10.592,5.92c-0.627,2.28,1.045,3.075,2.565,4.182c3.207,2.336,6.414,4.672,9.621,7.008
					c1.205,0.878,3.661,3.352,5.241,3.352c1.515,0,3.491-1.357,4.788-1.952c6.642-3.043,13.283-6.086,19.925-9.129
					c1.444-0.662,3.155-1.107,4.012-2.569c0.99-1.69,0.618-5.727,0.771-7.578c0.294-3.581,0.588-7.162,0.882-10.742
					c0.199-2.43-0.614-3.959-3.365-3.858C257.269,238.874,257.262,241.875,259.197,241.804z"/>
			</g>
		</g>
	</g>
	<g>
		<g>
			<g>
				<path style="fill:#FFFFFF;" d="M167.844,70.603c-3.957,1.646-2.571,7.066-2.565,10.638c0.004,2.605-0.875,7.76,3.183,7.753
					c8.425-0.014,16.849-0.027,25.273-0.041c4.313-0.007,2.97-7.236,2.966-9.718c-0.005-2.673,1.123-8.734-3.186-8.727
					c-8.424,0.014-16.849,0.027-25.273,0.041c-1.935,0.003-1.935,3.003,0,3c6.844-0.011,13.688-0.022,20.532-0.034
					c2.117-0.003,4.915-1.051,4.919,1.396c0.007,3.653,0.013,7.307,0.019,10.96c0,0.166-18.876,0.113-20.509,0.116
					c-2.117,0.003-4.915,1.051-4.919-1.396c-0.002-1.604-0.913-10.567,0.357-11.095C170.4,72.763,169.63,69.859,167.844,70.603z"/>
			</g>
		</g>
		<g>
			<g>
				<path style="fill:#FFFFFF;" d="M158.27,109.409c-0.321-0.132-0.809,1.046,0.177-0.716c0.643-1.148,1.285-2.297,1.928-3.446
					c1.53-2.735,3.06-5.471,4.589-8.206c0.287-0.512,1.538-3.383,2.058-3.383c2.172-0.004,4.344-0.007,6.516-0.011
					c6.269-0.011,12.539-0.021,18.808-0.031c1.564-0.003,2.659-0.452,3.376,0.82c1.215,2.155,2.429,4.31,3.644,6.465
					c1.449,2.571,2.898,5.143,4.348,7.714c0.985,1.749,0.921,0.664-0.715,0.667c-5.015,0.008-10.028,0.017-15.042,0.025
					c-10.028,0.017-20.057,0.033-30.084,0.049c-1.935,0.003-1.935,3.003,0,3c12.407-0.021,24.815-0.041,37.222-0.061
					c2.123-0.003,10.095,1.309,11.565-1.202c1.237-2.113,0.016-3.333-1.032-5.191c-1.959-3.477-3.919-6.955-5.879-10.432
					c-0.618-1.097-1.882-4.508-3.277-4.716c-1.813-0.27-3.675-0.139-5.505-0.136c-7.271,0.012-14.543,0.024-21.815,0.036
					c-1.432,0.002-3.315-0.293-4.452,0.844c-1.73,1.73-2.875,5.014-4.043,7.102c-1.874,3.35-9.016,11.298-3.183,13.703
					C159.261,113.039,160.032,110.136,158.27,109.409z"/>
			</g>
		</g>
	</g>
	<g>
		<g>
			<circle style="fill:#FFFFFF;" cx="180.5" cy="180.568" r="28.836"/>
			<path style="fill:#FFFFFF;" d="M180.501,210.087c-16.276,0-29.52-13.243-29.52-29.519c0-16.276,13.243-29.52,29.52-29.52
				c16.276,0,29.516,13.244,29.516,29.52C210.018,196.844,196.777,210.087,180.501,210.087z M180.501,152.414
				c-15.525,0-28.154,12.63-28.154,28.154c0,15.521,12.629,28.153,28.154,28.153c15.523,0,28.151-12.632,28.151-28.153
				C208.652,165.044,196.024,152.414,180.501,152.414z"/>
		</g>
		<g>
			<g>
				<path style="fill:#FFFFFF;" d="M224.968,181.451c-0.459,9.658-8.188,12.792-16.442,12.792c-6.407,0-12.814,0-19.222,0
					c-13.173,0-26.345,0-39.518,0c-11.279,0-17.164-11.837-11.782-21.355c3.572-6.316,10.522-5.965,16.667-5.965
					c14.827,0,29.654,0,44.481,0c4.021,0,8.041,0,12.063,0C219.86,166.923,224.968,173.102,224.968,181.451c0,1.935,3,1.935,3,0
					c0-8.441-5.09-17.02-14.417-17.463c-3.75-0.178-7.521-0.065-11.274-0.065c-14.999,0-29.998,0-44.996,0
					c-3.841,0-7.758-0.236-11.57,0.311c-8.871,1.273-13.739,10.765-12.558,18.993c1.162,8.094,7.738,14.017,15.993,14.017
					c4.51,0,9.02,0,13.53,0c13.681,0,27.362,0,41.044,0c2.818,0,5.638,0,8.456,0c8.903,0,15.385-7.208,15.793-15.792
					C228.06,179.517,225.06,179.525,224.968,181.451z"/>
			</g>
		</g>
	</g>
	<g>
		<g>
			<g>
				<path style="fill:#FFFFFF;" d="M73.229,220.312c1.372,5.037,10.032,3.101,13.905,3.095c3.602-0.006,10.069,1.27,10.06-4.111
					c-0.019-11.358-0.037-22.717-0.056-34.075c-0.009-5.495-10.87-3.497-13.959-3.492c-3.601,0.006-10.069-1.27-10.06,4.11
					c0.019,11.358,0.037,22.717,0.056,34.075c0.003,1.935,3.003,1.935,3,0c-0.016-9.491-0.031-18.983-0.046-28.476
					c-0.003-1.761-0.006-3.522-0.009-5.284c-0.003-1.76,1.373-1.416,2.805-1.419c4.875-0.008,9.749-0.016,14.624-0.023
					c1.209-0.002,0.632,26.494,0.636,28.984c0.003,1.761,0.006,3.522,0.009,5.284c0.003,1.761-1.372,1.417-2.805,1.42
					c-2.192,0.003-14.648,1.389-15.267-0.885C75.615,217.649,72.72,218.442,73.229,220.312z"/>
			</g>
		</g>
		<g>
			<g>
				<path style="fill:#FFFFFF;" d="M117.876,233.757c-0.258,0.96,0.904,1.797,0.006,0.984c-0.404-0.366-0.807-0.731-1.211-1.098
					c-1.277-1.157-2.554-2.313-3.832-3.471c-2.491-2.258-4.983-4.515-7.475-6.772c-1.86-1.686-1.822-1.184-1.826-3.636
					c-0.005-3.279-0.011-6.559-0.017-9.838c-0.012-7.577-0.025-15.154-0.038-22.731c-0.002-1.403-0.004-2.807-0.007-4.21
					c0-0.281,5.407-4.465,5.681-4.716c2.627-2.401,5.254-4.802,7.88-7.203c1.699-1.553,0.68-0.079,0.682,1.499
					c0.009,5.631,0.019,11.261,0.028,16.892c0.023,14.117,0.046,28.235,0.069,42.353c0.001,0.781,0.002,1.563,0.004,2.345
					c0.003,1.935,3.003,1.935,3,0c-0.019-11.361-0.037-22.723-0.056-34.083c-0.012-7.293-0.024-14.586-0.036-21.878
					c-0.005-3.085,0.918-7.673-1.471-10.053c-1.63-1.624-3.131-0.303-4.342,0.804c-2.849,2.604-5.697,5.208-8.546,7.812
					c-1.341,1.226-4.432,2.957-5.355,4.387c-0.79,1.224-0.537,2.9-0.535,4.303c0.021,12.26,0.041,24.52,0.061,36.779
					c0.004,2.247,2.277,2.912,3.683,4.186c2.403,2.178,4.806,4.354,7.208,6.531c2.509,2.272,7.567,8.188,9.334,1.611
					C121.272,232.683,118.378,231.89,117.876,233.757z"/>
			</g>
		</g>
		<g>
			<g>
				<path style="fill:#FFFFFF;" d="M70.712,215.211c0.036,0.702,0.042,1.216,0.233,1.865c0.188,0.642,0.771,1.103,1.446,1.102
					c0.499-0.001,0.998-0.001,1.496-0.002c0.674-0.001,1.261-0.458,1.446-1.102c1.246-4.308,0.215-10.09,0.208-14.498
					c-0.007-4.404,1.007-10.195-0.254-14.496c-0.188-0.642-0.771-1.103-1.446-1.102c-0.499,0.001-0.997,0.001-1.496,0.002
					c-0.674,0.001-1.26,0.458-1.446,1.102c-1.082,3.732-0.217,8.698-0.211,12.511C70.696,205.465,70.704,210.338,70.712,215.211
					c0.003,1.935,3.003,1.935,3,0c-0.007-4.211-0.014-8.421-0.021-12.631c-0.007-4.104-1.061-9.694,0.1-13.701
					c-0.482,0.367-0.964,0.734-1.446,1.102c0.499-0.001,0.997-0.001,1.496-0.002c-0.482-0.367-0.964-0.734-1.446-1.102
					c1.174,4.004,0.14,9.595,0.146,13.699c0.007,4.106,1.059,9.692-0.1,13.701c0.482-0.367,0.964-0.734,1.446-1.102
					c-0.499,0.001-0.998,0.001-1.496,0.002c0.482,0.367,0.964,0.734,1.446,1.102c-0.042-0.356-0.083-0.712-0.125-1.068
					C73.613,213.286,70.612,213.276,70.712,215.211z"/>
			</g>
		</g>
	</g>
</g>
<g id="Ebene_1">
</g>
</svg>
