<?xml version="1.0" encoding="iso-8859-1"?>
<!-- Generator: Adobe Illustrator 16.0.0, SVG Export Plug-In . SVG Version: 6.00 Build 0)  -->
<!DOCTYPE svg PUBLIC "-//W3C//DTD SVG 1.1//EN" "http://www.w3.org/Graphics/SVG/1.1/DTD/svg11.dtd">
<svg version="1.1" xmlns="http://www.w3.org/2000/svg" xmlns:xlink="http://www.w3.org/1999/xlink" x="0px" y="0px" width="361px"
	 height="361px" viewBox="0 0 361 361" style="enable-background:new 0 0 361 361;" xml:space="preserve">
<g id="audio_x5F_rew">
	<g>
		<g>
			<path style="fill:#FFFFFF;" d="M177.241,96.117c-35,26.75-70,53.501-105,80.252c-3.178,2.429-3.178,6.206,0,8.634
				c35,26.751,70,53.501,105,80.252c3.126,2.39,7.523-0.882,7.523-4.317c0-49.383,0-98.765,0-148.148c0-4.119,0-8.237,0-12.355
				c0-6.449-10-6.449-10,0c0,49.383,0,98.765,0,148.148c0,4.118,0,8.237,0,12.355c2.508-1.439,5.016-2.878,7.524-4.317
				c-35-26.75-70-53.501-105-80.251c0,2.878,0,5.756,0,8.634c35-26.75,70-53.501,105-80.251
				C187.338,100.892,182.366,92.199,177.241,96.117z"/>
		</g>
	</g>
	<g>
		<g>
			<path style="fill:#FFFFFF;" d="M219.24,96.117c-35,26.75-70,53.501-105,80.252c-3.178,2.429-3.178,6.206,0,8.634
				c35,26.751,70,53.501,105,80.252c3.127,2.39,7.523-0.882,7.523-4.317c0-49.383,0-98.765,0-148.148c0-4.119,0-8.237,0-12.355
				c0-6.449-10-6.449-10,0c0,49.383,0,98.765,0,148.148c0,4.118,0,8.237,0,12.355c2.508-1.439,5.016-2.878,7.523-4.317
				c-35-26.75-70-53.501-105-80.251c0,2.878,0,5.756,0,8.634c35-26.75,70-53.501,105-80.251
				C229.337,100.892,224.365,92.199,219.24,96.117z"/>
		</g>
	</g>
</g>
<g id="Ebene_1">
</g>
</svg>
