<?xml version="1.0" encoding="iso-8859-1"?>
<!-- Generator: Adobe Illustrator 16.0.0, SVG Export Plug-In . SVG Version: 6.00 Build 0)  -->
<!DOCTYPE svg PUBLIC "-//W3C//DTD SVG 1.1//EN" "http://www.w3.org/Graphics/SVG/1.1/DTD/svg11.dtd">
<svg version="1.1" xmlns="http://www.w3.org/2000/svg" xmlns:xlink="http://www.w3.org/1999/xlink" x="0px" y="0px" width="361px"
	 height="361px" viewBox="0 0 361 361" style="enable-background:new 0 0 361 361;" xml:space="preserve">
<g id="audio_x5F_headphone">
	<path style="fill:none;stroke:#FFFFFF;stroke-width:10;stroke-miterlimit:10;" d="M260.227,270.547c0,2.082-1.424,3.768-3.18,3.768
		h-26.846c-1.757,0-3.18-1.686-3.18-3.768v-64.876c0-2.081,1.423-3.767,3.18-3.767h26.846c1.756,0,3.18,1.686,3.18,3.767V270.547z"
		/>
	<g>
		<g>
			<path style="fill:#FFFFFF;" d="M291.688,238.109c0-34.018,1.808-68.956-10.823-101.252
				c-6.528-16.691-16.839-31.697-31.123-42.657c-13.115-10.063-28.807-16.038-45.043-18.705c-7.607-1.25-15.307-1.802-23.012-1.829
				c-6.45-0.022-6.448,9.978,0,10c16.556,0.057,33.233,2.694,48.237,9.965c15.127,7.33,27.104,19.18,35.429,33.699
				c18.642,32.511,16.335,71.294,16.335,107.439c0,1.113,0,2.226,0,3.339C281.688,244.558,291.688,244.558,291.688,238.109
				L291.688,238.109z"/>
		</g>
	</g>
	<g>
		<g>
			<path style="fill:#FFFFFF;" d="M268.833,216.359c0,14.5,0,29,0,43.5c0,6.448,10,6.448,10,0c0-14.5,0-29,0-43.5
				C278.833,209.911,268.833,209.911,268.833,216.359L268.833,216.359z"/>
		</g>
	</g>
	<path style="fill:none;stroke:#FFFFFF;stroke-width:10;stroke-miterlimit:10;" d="M101.962,270.547c0,2.081,1.423,3.768,3.18,3.768
		h26.846c1.756,0,3.179-1.687,3.179-3.768v-64.876c0-2.081-1.423-3.767-3.179-3.767h-26.846c-1.757,0-3.18,1.686-3.18,3.767V270.547
		z"/>
	<g>
		<g>
			<path style="fill:#FFFFFF;" d="M80.5,238.109c0-33.728-2.226-68.924,11.313-100.658c6.76-15.845,17.491-29.7,32.025-39.088
				c13.749-8.881,29.981-13.108,46.175-14.329c3.489-0.263,6.989-0.355,10.487-0.367c6.447-0.022,6.449-10.022,0-10
				c-34.512,0.118-67.427,12.323-87.733,41.326C70.341,147.022,70.5,187.347,70.5,224.802c0,4.436,0,8.872,0,13.308
				C70.5,244.558,80.5,244.558,80.5,238.109L80.5,238.109z"/>
		</g>
	</g>
	<g>
		<g>
			<path style="fill:#FFFFFF;" d="M83.355,216.359c0,14.5,0,29,0,43.5c0,6.448,10,6.448,10,0c0-14.5,0-29,0-43.5
				C93.355,209.911,83.355,209.911,83.355,216.359L83.355,216.359z"/>
		</g>
	</g>
</g>
<g id="Ebene_1">
</g>
</svg>
