<?xml version="1.0" encoding="iso-8859-1"?>
<!-- Generator: Adobe Illustrator 16.0.0, SVG Export Plug-In . SVG Version: 6.00 Build 0)  -->
<!DOCTYPE svg PUBLIC "-//W3C//DTD SVG 1.1//EN" "http://www.w3.org/Graphics/SVG/1.1/DTD/svg11.dtd">
<svg version="1.1" xmlns="http://www.w3.org/2000/svg" xmlns:xlink="http://www.w3.org/1999/xlink" x="0px" y="0px" width="361px"
	 height="361px" viewBox="0 0 361 361" style="enable-background:new 0 0 361 361;" xml:space="preserve">
<g id="audio_x5F_volume_x5F_low">
	<path style="fill:none;stroke:#FFFFFF;stroke-width:10;stroke-miterlimit:10;" d="M75.486,215.572c0,2.246,1.82,4.065,4.065,4.065
		h34.323c2.245,0,4.065-1.819,4.065-4.065V145.57c0-2.244-1.82-4.064-4.065-4.064H79.551c-2.245,0-4.065,1.82-4.065,4.064V215.572z"
		/>
	<path style="fill:none;stroke:#FFFFFF;stroke-width:10;stroke-miterlimit:10;" d="M182.104,244.256
		c0,2.289-1.855,4.145-4.145,4.145l-43.063-24.179c-2.604-1.376-4.145-1.856-4.145-4.146v-79.252c0-2.289,0.426-2.168,4.145-4.145
		l43.063-24.179c2.29,0,4.145,1.855,4.145,4.145V244.256z"/>
	<g>
		<g>
			<path style="fill:#FFFFFF;" d="M205.938,135.532c24.4,24.918,24.401,64.764,0,89.683c-4.514,4.608,2.553,11.684,7.07,7.07
				c28.209-28.807,28.209-75.017,0-103.824C208.49,123.848,201.424,130.923,205.938,135.532L205.938,135.532z"/>
		</g>
	</g>
</g>
<g id="Ebene_1">
</g>
</svg>
