<?xml version="1.0" encoding="iso-8859-1"?>
<!-- Generator: Adobe Illustrator 16.0.0, SVG Export Plug-In . SVG Version: 6.00 Build 0)  -->
<!DOCTYPE svg PUBLIC "-//W3C//DTD SVG 1.1 Tiny//EN" "http://www.w3.org/Graphics/SVG/1.1/DTD/svg11-tiny.dtd">
<svg version="1.1" baseProfile="tiny" id="audio_x5F_eq"
	 xmlns="http://www.w3.org/2000/svg" xmlns:xlink="http://www.w3.org/1999/xlink" x="0px" y="0px" width="361px" height="361px"
	 viewBox="0 0 361 361" xml:space="preserve">
<g>
	<path fill="#FFFFFF" d="M101.315,78.045c0,48.697,0,97.394,0,146.091c0,21.97,0,43.939,0,65.909c0,6.449,10,6.449,10,0
		c0-48.697,0-97.394,0-146.091c0-21.97,0-43.939,0-65.909C111.315,71.596,101.315,71.596,101.315,78.045L101.315,78.045z"/>
</g>
<path fill="#FFFFFF" d="M136.815,157.329c0,4.538-4.356,8.216-9.73,8.216H87.045c-5.374,0-9.73-3.678-9.73-8.216v-12.068
	c0-4.538,4.356-8.216,9.73-8.216h40.039c5.374,0,9.73,3.678,9.73,8.216V157.329z"/>
<g>
	<path fill="#FFFFFF" d="M243.815,78.045c0,48.697,0,97.394,0,146.091c0,21.969,0,43.939,0,65.909c0,6.448,10,6.448,10,0
		c0-48.697,0-97.394,0-146.091c0-21.97,0-43.939,0-65.909C253.815,71.596,243.815,71.596,243.815,78.045L243.815,78.045z"/>
</g>
<path fill="#FFFFFF" d="M279.315,176.329c0,4.538-4.356,8.216-9.73,8.216h-40.039c-5.374,0-9.73-3.678-9.73-8.216v-12.068
	c0-4.538,4.356-8.216,9.73-8.216h40.039c5.374,0,9.73,3.678,9.73,8.216V176.329z"/>
<g>
	<path fill="#FFFFFF" d="M173.565,77.834c0,48.697,0,97.394,0,146.091c0,21.969,0,43.939,0,65.909c0,6.448,10,6.448,10,0
		c0-48.697,0-97.394,0-146.091c0-21.97,0-43.939,0-65.909C183.565,71.385,173.565,71.385,173.565,77.834L173.565,77.834z"/>
</g>
<path fill="#FFFFFF" d="M209.065,223.118c0,4.538-4.356,8.216-9.73,8.216h-40.039c-5.374,0-9.73-3.678-9.73-8.216V211.05
	c0-4.538,4.356-8.216,9.73-8.216h40.039c5.374,0,9.73,3.678,9.73,8.216V223.118z"/>
</svg>
