<?xml version="1.0" encoding="iso-8859-1"?>
<!-- Generator: Adobe Illustrator 16.0.0, SVG Export Plug-In . SVG Version: 6.00 Build 0)  -->
<!DOCTYPE svg PUBLIC "-//W3C//DTD SVG 1.1//EN" "http://www.w3.org/Graphics/SVG/1.1/DTD/svg11.dtd">
<svg version="1.1" xmlns="http://www.w3.org/2000/svg" xmlns:xlink="http://www.w3.org/1999/xlink" x="0px" y="0px" width="361px"
	 height="361px" viewBox="0 0 361 361" style="enable-background:new 0 0 361 361;" xml:space="preserve">
<g id="audio_x5F_repeat">
	<g>
		<g>
			<path style="fill:#FFFFFF;" d="M163.81,222.017c15.039,11.495,30.079,22.989,45.118,34.484c0-2.878,0-5.757,0-8.635
				c-15.039,11.494-30.079,22.989-45.118,34.483c2.508,1.439,5.016,2.878,7.523,4.317c0-22.989,0-45.979,0-68.968
				c0-6.448-10-6.448-10,0c0,22.989,0,45.979,0,68.968c0,3.436,4.397,6.707,7.523,4.317c15.04-11.494,30.079-22.989,45.118-34.483
				c3.178-2.429,3.178-6.206,0-8.635c-15.039-11.495-30.078-22.989-45.118-34.484C163.731,209.464,158.76,218.157,163.81,222.017z"
				/>
		</g>
	</g>
	<g>
		<g>
			<path style="fill:#FFFFFF;" d="M197.717,115.129c11.307,0,22.612,0,33.919,0c7.367,0,14.734,0,22.102,0
				c4.419,0,8.98-0.33,13.297,0.735c9.109,2.247,15.102,11.064,15.102,20.189c0,3.605,0,7.21,0,10.814c0,15.209,0,30.419,0,45.628
				c0,10.817,0,21.635,0,32.453c0,6.19-1.67,11.626-6.024,16.209c-5.983,6.296-14.011,6.025-21.959,6.025c-6.448,0-6.448,10,0,10
				c8.552,0,16.411-0.18,23.96-4.868c8.719-5.413,14.023-15.583,14.023-25.76c0-9.765,0-19.528,0-29.293c0-15.599,0-31.196,0-46.794
				c0-11.644,1.223-23.548-6.398-33.406c-11.175-14.457-29.208-11.933-45.313-11.933c-14.235,0-28.472,0-42.707,0
				C191.269,105.129,191.269,115.129,197.717,115.129L197.717,115.129z"/>
		</g>
	</g>
	<g>
		<g>
			<path style="fill:#FFFFFF;" d="M193.977,70.313c-15.04,11.495-30.079,22.99-45.119,34.484c-3.178,2.429-3.178,6.206,0,8.635
				c15.04,11.495,30.079,22.989,45.119,34.484c3.127,2.39,7.523-0.882,7.523-4.317c0-22.989,0-45.979,0-68.968
				c0-6.449-10-6.449-10,0c0,22.989,0,45.979,0,68.968c2.508-1.439,5.016-2.878,7.523-4.317
				c-15.039-11.495-30.079-22.989-45.119-34.484c0,2.878,0,5.756,0,8.635c15.04-11.495,30.08-22.99,45.119-34.484
				C204.073,75.088,199.102,66.396,193.977,70.313z"/>
		</g>
	</g>
	<g>
		<g>
			<path style="fill:#FFFFFF;" d="M164.136,246.184c-11.306,0-22.612,0-33.918,0c-7.367,0-14.734,0-22.101,0
				c-4.419,0-8.981,0.33-13.297-0.734c-9.109-2.247-15.102-11.065-15.102-20.19c0-3.604,0-7.21,0-10.814c0-15.209,0-30.419,0-45.628
				c0-10.817,0-21.635,0-32.453c0-6.19,1.67-11.626,6.025-16.209c5.983-6.295,14.011-6.025,21.958-6.025c6.449,0,6.449-10,0-10
				c-8.552,0-16.41,0.18-23.96,4.868c-8.718,5.413-14.023,15.583-14.023,25.76c0,9.764,0,19.528,0,29.293
				c0,15.598,0,31.196,0,46.794c0,11.644-1.223,23.549,6.398,33.406c11.176,14.457,29.208,11.934,45.314,11.934
				c14.235,0,28.471,0,42.706,0C170.585,256.184,170.585,246.184,164.136,246.184L164.136,246.184z"/>
		</g>
	</g>
</g>
<g id="Ebene_1">
</g>
</svg>
