<?xml version="1.0" encoding="iso-8859-1"?>
<!-- Generator: Adobe Illustrator 16.0.0, SVG Export Plug-In . SVG Version: 6.00 Build 0)  -->
<!DOCTYPE svg PUBLIC "-//W3C//DTD SVG 1.1 Tiny//EN" "http://www.w3.org/Graphics/SVG/1.1/DTD/svg11-tiny.dtd">
<svg version="1.1" baseProfile="tiny" id="audio_x5F_shuffle"
	 xmlns="http://www.w3.org/2000/svg" xmlns:xlink="http://www.w3.org/1999/xlink" x="0px" y="0px" width="361px" height="361px"
	 viewBox="0 0 361 361" xml:space="preserve">
<g>
	<path fill="#FFFFFF" d="M237.292,224.894c15.04,11.495,30.079,22.99,45.119,34.484c0-2.878,0-5.756,0-8.635
		c-15.04,11.495-30.079,22.989-45.119,34.484c2.508,1.439,5.016,2.878,7.523,4.317c0-22.989,0-45.979,0-68.968
		c0-6.449-10-6.449-10,0c0,22.989,0,45.979,0,68.968c0,3.435,4.397,6.707,7.523,4.317c15.04-11.495,30.079-22.989,45.119-34.484
		c3.178-2.429,3.178-6.206,0-8.635c-15.04-11.495-30.079-22.99-45.119-34.484C237.213,212.342,232.242,221.034,237.292,224.894z"/>
</g>
<g>
	<path fill="#FFFFFF" d="M242.387,150.794c15.04-11.495,30.079-22.99,45.119-34.484c3.178-2.429,3.178-6.206,0-8.635
		c-15.04-11.495-30.079-22.989-45.119-34.484c-3.126-2.39-7.523,0.882-7.523,4.317c0,22.989,0,45.979,0,68.968
		c0,6.449,10,6.449,10,0c0-22.989,0-45.979,0-68.968c-2.508,1.439-5.016,2.878-7.523,4.317
		c15.04,11.495,30.079,22.989,45.119,34.484c0-2.878,0-5.756,0-8.635c-15.04,11.495-30.079,22.99-45.119,34.484
		C232.29,146.019,237.261,154.711,242.387,150.794z"/>
</g>
<g>
	<path fill="#FFFFFF" d="M239.379,250.061c-11.181,0-26.317,2.708-35.445-5.123c-9.918-8.508-6.981-24.71-6.99-36.361
		c-0.005-6.448-10.005-6.449-10,0c0.012,14.925-2.22,30.756,8.971,42.53c11.118,11.698,28.899,8.954,43.464,8.954
		C245.828,260.061,245.828,250.061,239.379,250.061L239.379,250.061z"/>
</g>
<g>
	<path fill="#FFFFFF" d="M142.445,188.405c9.685,0,19.71,0.791,29.325-0.513c8.771-1.189,16.371-7.302,20.919-14.627
		c3.575-5.757,4.171-12.339,4.177-18.922c0.004-5.389,0.009-10.778,0.014-16.167c0.007-8.6,4.931-15.537,12.533-19.23
		c4.821-2.342,11.095-1.593,16.308-1.593c4.714,0,9.428,0,14.143,0c6.449,0,6.449-10,0-10c-9.901,0-20.847-1.299-30.54,1.092
		c-8.526,2.104-15.707,8.618-19.485,16.394c-2.83,5.824-2.958,11.948-2.963,18.247c-0.004,4.917-0.008,9.834-0.012,14.751
		c-0.008,9.35-6.288,17.157-15.102,19.834c-4.734,1.438-10.533,0.735-15.413,0.735c-4.634,0-9.269,0-13.903,0
		C135.996,178.405,135.996,188.405,142.445,188.405L142.445,188.405z"/>
</g>
<g>
	<path fill="#FFFFFF" d="M72.905,259.9c10.055,0,21.52,1.476,31.26-1.482c8.405-2.553,15.331-9.219,18.718-17.227
		c2.538-6,2.441-12.123,2.446-18.478c0.003-4.766,0.007-9.531,0.011-14.297c0.007-9.35,6.289-17.158,15.102-19.835
		c4.677-1.421,10.394-0.735,15.216-0.735c4.889,0,9.777,0,14.666,0c6.449,0,6.449-10,0-10c-9.371,0-19.226-0.933-28.529,0.329
		c-9.02,1.223-16.449,6.296-21.587,13.695c-4.079,5.874-4.865,12.887-4.87,19.814c-0.01,12.761,2.423,27.569-10.202,35.408
		c-5.19,3.222-11.126,2.808-16.948,2.808c-5.094,0-10.188,0-15.283,0C66.457,249.9,66.457,259.9,72.905,259.9L72.905,259.9z"/>
</g>
<g>
	<path fill="#FFFFFF" d="M125.421,157.674c-0.013-15.461,2.173-32.058-10.913-43.285c-11.428-9.804-28.131-7.2-42.087-7.2
		c-6.449,0-6.449,10,0,10c5.336,0,10.672,0,16.008,0c6.785,0,13.285-0.153,19.008,4.271c10.82,8.365,7.974,24.192,7.984,36.213
		C115.426,164.123,125.426,164.123,125.421,157.674L125.421,157.674z"/>
</g>
</svg>
