<?xml version="1.0" encoding="iso-8859-1"?>
<!-- Generator: Adobe Illustrator 16.0.0, SVG Export Plug-In . SVG Version: 6.00 Build 0)  -->
<!DOCTYPE svg PUBLIC "-//W3C//DTD SVG 1.1//EN" "http://www.w3.org/Graphics/SVG/1.1/DTD/svg11.dtd">
<svg version="1.1" xmlns="http://www.w3.org/2000/svg" xmlns:xlink="http://www.w3.org/1999/xlink" x="0px" y="0px" width="361px"
	 height="361px" viewBox="0 0 361 361" style="enable-background:new 0 0 361 361;" xml:space="preserve">
<g id="audio_x5F_pause">
	<path style="fill:none;stroke:#FFFFFF;stroke-width:10;stroke-miterlimit:10;" d="M167.865,255.166c0,3.256-2.687,5.896-6,5.896
		h-8.324c-3.313,0-6-2.641-6-5.896V106.112c0-3.256,2.687-5.896,6-5.896h8.324c3.313,0,6,2.64,6,5.896V255.166z"/>
	<path style="fill:none;stroke:#FFFFFF;stroke-width:10;stroke-miterlimit:10;" d="M213.865,255.166c0,3.256-2.687,5.896-6,5.896
		h-8.324c-3.313,0-6-2.641-6-5.896V106.112c0-3.256,2.687-5.896,6-5.896h8.324c3.313,0,6,2.64,6,5.896V255.166z"/>
</g>
<g id="Ebene_1">
</g>
</svg>
