<?xml version="1.0" encoding="iso-8859-1"?>
<!-- Generator: Adobe Illustrator 16.0.0, SVG Export Plug-In . SVG Version: 6.00 Build 0)  -->
<!DOCTYPE svg PUBLIC "-//W3C//DTD SVG 1.1//EN" "http://www.w3.org/Graphics/SVG/1.1/DTD/svg11.dtd">
<svg version="1.1" xmlns="http://www.w3.org/2000/svg" xmlns:xlink="http://www.w3.org/1999/xlink" x="0px" y="0px" width="361px"
	 height="361px" viewBox="0 0 361 361" style="enable-background:new 0 0 361 361;" xml:space="preserve">
<g id="audio_x5F_mic">
	<g style="display:none;">
		<g style="display:inline;">
			<g>
				<path style="fill:#FFFFFF;" d="M276.033,227.524c-0.264,21.84-14.327,41.07-35.273,47.551
					c-20.997,6.497-44.063-2.393-55.993-20.611c-12.03-18.37-9.941-43.151,4.399-59.6c14.372-16.485,38.711-21.485,58.468-12.16
					C264.969,190.887,275.804,208.495,276.033,227.524c0.117,9.678,15.12,9.774,15.004,0.107
					c-0.285-23.601-12.93-45.152-33.556-56.708c-20.663-11.576-46.938-10.132-66.614,2.754
					c-19.622,12.85-30.717,36.129-28.741,59.425c1.966,23.186,16.774,44.003,38.044,53.442c20.025,8.888,43.533,6.932,61.856-5.067
					c18.09-11.847,28.75-32.366,29.01-53.847C291.154,217.94,276.15,217.866,276.033,227.524z"/>
			</g>
		</g>
		<g style="display:inline;">
			<g>
				<path style="fill:#FFFFFF;" d="M191.411,273.221c26.912-26.912,53.824-53.824,80.737-80.736
					c6.835-6.835-3.813-17.403-10.666-10.551c-26.912,26.912-53.824,53.824-80.737,80.736
					C173.91,269.505,184.558,280.073,191.411,273.221L191.411,273.221z"/>
			</g>
		</g>
	</g>
	<path style="fill:none;stroke:#FFFFFF;stroke-width:10;stroke-miterlimit:10;" d="M222.236,211.448
		c0,17.793-14.428,32.22-32.221,32.22h-18.56c-17.795,0-32.22-14.427-32.22-32.22V106.887c0-17.795,14.425-32.22,32.22-32.22h18.56
		c17.793,0,32.221,14.425,32.221,32.22V211.448z"/>
	<g>
		<g>
			<path style="fill:#FFFFFF;" d="M175.736,260.167c0,8.833,0,17.667,0,26.5c0,6.448,10,6.448,10,0c0-8.833,0-17.667,0-26.5
				C185.736,253.719,175.736,253.719,175.736,260.167L175.736,260.167z"/>
		</g>
	</g>
	<g>
		<g>
			<path style="fill:#FFFFFF;" d="M139.486,291.667c27.5,0,55,0,82.5,0c6.448,0,6.448-10,0-10c-27.5,0-55,0-82.5,0
				C133.037,281.667,133.037,291.667,139.486,291.667L139.486,291.667z"/>
		</g>
	</g>
	<g>
		<g>
			<path style="fill:#FFFFFF;" d="M234.264,180.048c0,11.671,0,23.343,0,35.014c0,21.428-16.708,39.1-38.161,40.084
				c-6.092,0.28-12.246,0.021-18.342,0.021c-6.824,0-13.753,0.423-20.445-1.132c-10.741-2.496-19.672-9.772-25.138-19.209
				c-4.016-6.933-4.969-14.572-4.969-22.416c0-10.787,0-21.575,0-32.362c0-6.449-10-6.449-10,0c0,11.671,0,23.343,0,35.014
				c0,21.146,12.904,39.296,32.401,47.037c13.3,5.28,29.998,3.068,44.011,3.068c20.506,0,39.433-11.895,47.09-31.183
				c3.802-9.573,3.554-19.325,3.554-29.39c0-8.183,0-16.364,0-24.547C244.264,173.599,234.264,173.599,234.264,180.048
				L234.264,180.048z"/>
		</g>
	</g>
</g>
<g id="Ebene_1">
</g>
</svg>
