<?xml version="1.0" encoding="iso-8859-1"?>
<!-- Generator: Adobe Illustrator 16.0.0, SVG Export Plug-In . SVG Version: 6.00 Build 0)  -->
<!DOCTYPE svg PUBLIC "-//W3C//DTD SVG 1.1 Tiny//EN" "http://www.w3.org/Graphics/SVG/1.1/DTD/svg11-tiny.dtd">
<svg version="1.1" baseProfile="tiny" id="audio_x5F_playlist"
	 xmlns="http://www.w3.org/2000/svg" xmlns:xlink="http://www.w3.org/1999/xlink" x="0px" y="0px" width="361px" height="361px"
	 viewBox="0 0 361 361" xml:space="preserve">
<path fill="#FFFFFF" d="M289.815,133.95c0,3.447-2.795,6.243-6.243,6.243H116.058c-3.447,0-6.243-2.795-6.243-6.243v-4.162
	c0-3.447,2.795-6.243,6.243-6.243h167.515c3.447,0,6.243,2.795,6.243,6.243V133.95z"/>
<path fill="#FFFFFF" d="M94.815,134.045c0,3.313-2.687,6-6,6h-16c-3.313,0-6-2.687-6-6v-5c0-3.313,2.687-6,6-6h16
	c3.313,0,6,2.687,6,6V134.045z"/>
<path fill="#FFFFFF" d="M289.815,168.95c0,3.447-2.795,6.243-6.243,6.243H116.058c-3.447,0-6.243-2.795-6.243-6.243v-4.162
	c0-3.447,2.795-6.243,6.243-6.243h167.515c3.447,0,6.243,2.795,6.243,6.243V168.95z"/>
<path fill="#FFFFFF" d="M94.815,169.045c0,3.313-2.687,6-6,6h-16c-3.313,0-6-2.687-6-6v-5c0-3.313,2.687-6,6-6h16
	c3.313,0,6,2.687,6,6V169.045z"/>
<path fill="#FFFFFF" d="M289.815,202.95c0,3.447-2.795,6.243-6.243,6.243H116.058c-3.447,0-6.243-2.795-6.243-6.243v-4.162
	c0-3.447,2.795-6.243,6.243-6.243h167.515c3.447,0,6.243,2.795,6.243,6.243V202.95z"/>
<path fill="#FFFFFF" d="M94.815,203.045c0,3.313-2.687,6-6,6h-16c-3.313,0-6-2.687-6-6v-5c0-3.313,2.687-6,6-6h16
	c3.313,0,6,2.687,6,6V203.045z"/>
<path fill="#FFFFFF" d="M289.815,236.95c0,3.447-2.795,6.243-6.243,6.243H116.058c-3.447,0-6.243-2.795-6.243-6.243v-4.162
	c0-3.447,2.795-6.243,6.243-6.243h167.515c3.447,0,6.243,2.795,6.243,6.243V236.95z"/>
<path fill="#FFFFFF" d="M94.815,237.045c0,3.313-2.687,6-6,6h-16c-3.313,0-6-2.687-6-6v-5c0-3.313,2.687-6,6-6h16
	c3.313,0,6,2.687,6,6V237.045z"/>
</svg>
