<?xml version="1.0" encoding="iso-8859-1"?>
<!-- Generator: Adobe Illustrator 16.0.0, SVG Export Plug-In . SVG Version: 6.00 Build 0)  -->
<!DOCTYPE svg PUBLIC "-//W3C//DTD SVG 1.1 Tiny//EN" "http://www.w3.org/Graphics/SVG/1.1/DTD/svg11-tiny.dtd">
<svg version="1.1" baseProfile="tiny" id="audio_x5F_loudness"
	 xmlns="http://www.w3.org/2000/svg" xmlns:xlink="http://www.w3.org/1999/xlink" x="0px" y="0px" width="361px" height="361px"
	 viewBox="0 0 361 361" xml:space="preserve">
<g>
	<g>
		<path fill="#FFFFFF" d="M68.195,265.807c1.48,7.333,10.343,5.624,15.891,5.624c5.974,0,12.56,0.824,18.45-0.365
			c5.432-1.096,4.435-8.474,4.435-12.449c0-7.512,0-15.024,0-22.536c0-6.845,0-13.69,0-20.536c0-4.736-0.925-9.827-6.989-9.827
			c-6.786,0-13.573,0-20.359,0c-5.083,0-11.553-0.038-11.553,6.945c0,17.404,0,34.808,0,52.212c0,4.514,7,4.514,7,0
			c0-12.181,0-24.361,0-36.542c0-5.223,0-10.447,0-15.67c0-0.7-0.71,0.055-0.011,0.055c1.017,0,2.035,0,3.052,0
			c3.958,0,7.917,0,11.875,0c3.089,0,6.178,0,9.267,0c1.267,0,0.718,0.117,0.718-0.346c0,0.598,0,1.195,0,1.793
			c0,6.317,0,12.634,0,18.951c0,7.784,0,15.568,0,23.352c0,2.299,0,4.599,0,6.898c0,1.937,0.736,1.064-1.198,1.064
			c-4.573,0-9.146,0-13.719,0c-2.314,0-4.629,0-6.943,0c-1.437,0-2.994,0.368-3.167-0.485
			C74.052,259.522,67.305,261.399,68.195,265.807z"/>
	</g>
	<g>
		<path fill="#FFFFFF" d="M148.313,285.5c-0.223,0.224-0.447,0.447-0.67,0.67c0.899,0.118,1.798,0.235,2.697,0.353
			c-10.442-5.863-20.884-11.726-31.326-17.588c-0.345-0.194-0.69-0.388-1.035-0.581c-1.884-1.058-1.381,0.299-1.381-0.624
			c0-1.888,0-3.775,0-5.663c0-7.2,0-14.4,0-21.6c0-7.608,0-15.217,0-22.825c0-2.298,0-4.596,0-6.894
			c0-2.703-0.369-1.152,1.412-2.152c10.534-5.915,21.068-11.829,31.602-17.744c0.243-0.136,0.485-0.272,0.728-0.409
			c-0.899,0.118-1.798,0.235-2.697,0.353c1.002,0.202,0.545,2.333,0.545,3.86c0,3.621,0,7.242,0,10.863c0,10.988,0,21.976,0,32.963
			c0,15.982,0,31.965,0,47.947c0,4.514,7,4.514,7,0c0-24.835,0-49.67,0-74.505c0-5.606,0-11.213,0-16.82
			c0-3.354,0.579-7.619-2.646-9.792c-4.854-3.273-10.114,1.546-14.383,3.943c-6.631,3.723-13.261,7.445-19.892,11.168
			c-3.562,2-8.669,3.598-8.669,8.369c0,3.715,0,7.431,0,11.146c0,14.042,0,28.085,0,42.127c0,3.697-0.627,7.458,1.849,10.483
			c1.026,1.254,3.319,2.026,4.792,2.854c2.547,1.43,5.095,2.86,7.642,4.291c6.168,3.463,12.336,6.926,18.504,10.389
			c1.464,0.822,2.928,1.644,4.392,2.466c3.711,2.084,7.604-1.811,8.287-5.189C155.953,282.954,149.206,281.077,148.313,285.5z"/>
	</g>
</g>
<g id="g8035_2_" transform="translate(-11401.102,142.51387)">
	<g id="path1111_2_">
		<line fill="#FFFFFF" x1="11662.903" y1="44.675" x2="11662.903" y2="-67.837"/>
		<g>
			<path fill="#FFFFFF" d="M11664.403,44.675c0-37.504,0-75.008,0-112.512c0-1.935-3-1.935-3,0c0,37.504,0,75.008,0,112.512
				C11661.403,46.61,11664.403,46.61,11664.403,44.675L11664.403,44.675z"/>
		</g>
	</g>
	<g id="path1123_2_">
		<line fill="#FFFFFF" x1="11616.68" y1="44.675" x2="11616.68" y2="-67.837"/>
		<g>
			<path fill="#FFFFFF" d="M11618.18,44.675c0-37.504,0-75.008,0-112.512c0-1.935-3-1.935-3,0c0,37.504,0,75.008,0,112.512
				C11615.18,46.61,11618.18,46.61,11618.18,44.675L11618.18,44.675z"/>
		</g>
	</g>
	<g id="path1147_2_" display="none">
		<line display="inline" fill="#FFFFFF" x1="11636.49" y1="44.675" x2="11636.49" y2="-67.837"/>
		<g display="inline">
			<path fill="#FFFFFF" d="M11637.99,44.675c0-37.504,0-75.008,0-112.512c0-1.935-3-1.935-3,0c0,37.504,0,75.008,0,112.512
				C11634.99,46.61,11637.99,46.61,11637.99,44.675L11637.99,44.675z"/>
		</g>
	</g>
	<g id="path1171_2_">
		<line fill="#FFFFFF" x1="11648.376" y1="44.675" x2="11648.376" y2="-67.837"/>
		<g>
			<path fill="#FFFFFF" d="M11649.876,44.675c0-37.504,0-75.008,0-112.512c0-1.935-3-1.935-3,0c0,37.504,0,75.008,0,112.512
				C11646.876,46.61,11649.876,46.61,11649.876,44.675L11649.876,44.675z"/>
		</g>
	</g>
</g>
<g id="path8054">
	<line fill="#FFFFFF" x1="70.427" y1="169.813" x2="288.48" y2="169.813"/>
	<g>
		<path fill="#FFFFFF" d="M70.427,171.313c48.116,0,96.233,0,144.349,0c24.568,0,49.136,0,73.704,0c1.935,0,1.935-3,0-3
			c-48.116,0-96.233,0-144.349,0c-24.568,0-49.136,0-73.704,0C68.492,168.313,68.492,171.313,70.427,171.313L70.427,171.313z"/>
	</g>
</g>
<g id="use8056" transform="translate(0,-1000.8117)">
	<g id="path8054_1_">
		<line fill="#FFFFFF" x1="70.427" y1="130.924" x2="288.48" y2="130.924"/>
		<g>
			<path fill="#FFFFFF" d="M70.427,132.424c48.116,0,96.233,0,144.349,0c24.568,0,49.136,0,73.704,0c1.935,0,1.935-3,0-3
				c-48.116,0-96.233,0-144.349,0c-24.568,0-49.136,0-73.704,0C68.492,129.424,68.492,132.424,70.427,132.424L70.427,132.424z"/>
		</g>
	</g>
</g>
<g>
	<g id="path7772">
		<path fill="#FFFFFF" d="M274.332,110.337c-7.754-5.017-15.192-3.75-22.107,1.795c-5.077,4.071-8.941,9.554-13.782,13.915
			c-3.667,3.303-6.134,4.932-11.095,4.042c-3.102-0.557-6.181-1.562-8.977-3.008c-2.536-1.312-4.603-3.318-7.28-4.412
			c-6.658-2.722-11.86,2.192-17.641,2.521c-14.347,0.818-28.777-4.979-41.188-11.717c-18.07-9.812-33.822-24.766-48.515-39.022
			c-3.24-3.143-8.194,1.802-4.95,4.95c25.067,24.322,52.248,48.319,88.198,52.531c5.467,0.641,10.558,0.323,15.485-2.061
			c6.183-2.992,11.309,3.084,16.913,5.27c4.281,1.669,10.238,3.344,14.793,1.943c6.168-1.896,11.622-7.954,15.77-12.657
			c2.774-3.146,5.542-6.156,8.938-8.668c3.786-2.801,8.198-1.776,11.905,0.622C274.602,118.841,278.106,112.779,274.332,110.337
			L274.332,110.337z"/>
	</g>
	<g id="path7774">
		<path fill="#FFFFFF" d="M93,85.959c6.65,7.773,13.3,15.546,19.946,23.324c14.232,16.655,31.245,30.07,51.629,38.48
			c6.143,2.534,12.484,4.27,18.951,5.766c5.396,1.249,11.974,2.695,17.402,0.896c4.052-1.342,4.663-2,8.458-0.31
			c5.99,2.667,10.502,6.705,17.229,7.641c0.539,0.075,4.516,0.578,2.609,0.125c0.724,0.172,1.495,0.229,2.238,0.26
			c3.398,0.144,6.769-1.244,9.635-2.928c4.998-2.937,8.427-7.844,11.584-12.55c2.53-3.771,6.122-8.188,10.749-9.361
			c2.744-0.695,5.37,0.804,8.01,2.105c4.033,1.989,7.582-4.047,3.533-6.044c-4.925-2.429-9.809-4.278-15.166-2.251
			c-10.811,4.092-13.632,16.996-23.167,22.598c-1.246,0.732-2.752,1.261-4.195,1.403c-0.617,0.061-2.152-0.145-1.361,0.017
			c-4.675-0.954-8.386-1.183-12.712-3.896c-3.412-2.14-7.11-4.526-11.187-5.14c-4.255-0.64-7.57,1.952-11.659,2.082
			c-6.713,0.215-13.808-2.185-20.2-3.98c-7.182-2.019-13.877-5.338-20.29-9.094c-5.291-3.099-10.768-5.83-15.63-9.597
			c-4.613-3.573-8.836-7.657-12.922-11.811c-8.54-8.683-16.21-18.28-24.119-27.525c-1.472-1.721-2.944-3.441-4.416-5.162
			C95.012,77.574,90.084,82.549,93,85.959L93,85.959z"/>
	</g>
	<g id="path7778">
		<path fill="#FFFFFF" d="M85.182,98.309c5.907,8.261,11.884,16.472,18.043,24.547c4.934,6.47,9.833,12.989,15.96,18.373
			c7.798,6.852,15.011,13.787,23.877,19.322c7.551,4.714,15.634,8.646,24.081,11.458c9.848,3.278,20.614,5.643,31.022,4.434
			c3.198-0.372,6.306-1.558,9.422-0.163c2.472,1.106,4.393,3.412,6.616,4.94c4.509,3.101,9.3,5.064,14.83,5.291
			c17.989,0.739,24.828-33.509,43.373-22.7c3.908,2.278,7.43-3.772,3.533-6.044c-7.738-4.511-16.322-3.618-23.155,1.936
			c-6.756,5.491-11.382,14.532-19.13,18.686c-9.91,5.312-17.365-6.738-25.696-9.395c-4.537-1.446-9.439,0.721-14.022,0.782
			c-6.392,0.086-12.625-1.084-18.788-2.688c-19.011-4.948-35.287-15.827-49.347-29.267c-13.353-12.764-23.846-28.041-34.576-43.045
			C88.625,91.138,82.55,94.628,85.182,98.309L85.182,98.309z"/>
	</g>
</g>
<g id="path8054_4_">
	<line fill="#FFFFFF" x1="69.288" y1="92.035" x2="287.341" y2="92.035"/>
	<g>
		<path fill="#FFFFFF" d="M69.288,93.535c48.116,0,96.233,0,144.349,0c24.568,0,49.136,0,73.704,0c1.935,0,1.935-3,0-3
			c-48.116,0-96.233,0-144.349,0c-24.568,0-49.136,0-73.704,0C67.354,90.535,67.354,93.535,69.288,93.535L69.288,93.535z"/>
	</g>
</g>
<g>
	<path fill="#FFFFFF" d="M175.24,215.513c11.894,12.397,11.894,31.43,0,43.827c-3.124,3.256,1.82,8.212,4.95,4.95
		c14.549-15.166,14.549-38.562,0-53.727C177.06,207.301,172.117,212.257,175.24,215.513L175.24,215.513z"/>
</g>
<g>
	<path fill="#FFFFFF" d="M185.751,206.725c17.154,17.675,17.154,45.451,0,63.126c-3.144,3.24,1.802,8.194,4.95,4.95
		c19.814-20.417,19.815-52.609,0-73.027C187.553,198.531,182.608,203.485,185.751,206.725L185.751,206.725z"/>
</g>
<g>
	<path fill="#FFFFFF" d="M196.92,198.185c21.632,22.16,21.632,57.39,0,79.55c-3.153,3.231,1.792,8.185,4.95,4.95
		c24.295-24.889,24.295-64.562,0-89.45C198.712,190,193.767,194.954,196.92,198.185L196.92,198.185z"/>
</g>
</svg>
