<?xml version="1.0" encoding="iso-8859-1"?>
<!-- Generator: Adobe Illustrator 16.0.0, SVG Export Plug-In . SVG Version: 6.00 Build 0)  -->
<!DOCTYPE svg PUBLIC "-//W3C//DTD SVG 1.1 Tiny//EN" "http://www.w3.org/Graphics/SVG/1.1/DTD/svg11-tiny.dtd">
<svg version="1.1" baseProfile="tiny" id="audio_x5F_pause"
	 xmlns="http://www.w3.org/2000/svg" xmlns:xlink="http://www.w3.org/1999/xlink" x="0px" y="0px" width="361px" height="361px"
	 viewBox="0 0 361 361" xml:space="preserve">
<path fill="none" stroke="#FFFFFF" stroke-width="10" stroke-miterlimit="10" d="M165.347,258.044c0,3.256-2.687,5.896-6,5.896
	h-8.324c-3.313,0-6-2.64-6-5.896V108.99c0-3.256,2.687-5.896,6-5.896h8.324c3.313,0,6,2.64,6,5.896V258.044z"/>
<path fill="none" stroke="#FFFFFF" stroke-width="10" stroke-miterlimit="10" d="M211.347,258.044c0,3.256-2.687,5.896-6,5.896
	h-8.324c-3.313,0-6-2.64-6-5.896V108.99c0-3.256,2.687-5.896,6-5.896h8.324c3.313,0,6,2.64,6,5.896V258.044z"/>
</svg>
