<?xml version="1.0" encoding="iso-8859-1"?>
<!-- Generator: Adobe Illustrator 16.0.0, SVG Export Plug-In . SVG Version: 6.00 Build 0)  -->
<!DOCTYPE svg PUBLIC "-//W3C//DTD SVG 1.1 Tiny//EN" "http://www.w3.org/Graphics/SVG/1.1/DTD/svg11-tiny.dtd">
<svg version="1.1" baseProfile="tiny" id="audio_x5F_fade"
	 xmlns="http://www.w3.org/2000/svg" xmlns:xlink="http://www.w3.org/1999/xlink" x="0px" y="0px" width="361px" height="361px"
	 viewBox="0 0 361 361" xml:space="preserve">
<g>
	<path fill="#FFFFFF" d="M284.423,267.716c-12.027,0-24.054,0-36.082,0c-6.614,0-13.011-0.964-18.198-5.392
		c-7.015-5.989-11.036-15.367-15.163-23.389c-12.912-25.095-26.004-50.102-38.881-75.219c-3.687-7.192-7.374-14.384-11.061-21.576
		c-7.559-14.744-13.659-32.505-26.557-43.607c-9.873-8.498-21.762-8.443-33.966-8.443c-10.662,0-21.323,0-31.985,0
		c-6.449,0-6.449,10,0,10c12.456,0,24.912,0,37.368,0c6.297,0,12.347,0.106,18.067,3.202c8.756,4.739,13.767,14.759,18.144,23.23
		c13.032,25.227,25.677,50.671,38.632,75.941c3.921,7.648,7.842,15.296,11.763,22.944c3.614,7.049,7.47,13.985,11.105,21.028
		c3.679,7.127,7.483,14.235,12.793,20.302c8.356,9.548,19.911,10.979,31.84,10.979c10.727,0,21.454,0,32.18,0
		C290.872,277.716,290.872,267.716,284.423,267.716L284.423,267.716z"/>
</g>
<g>
	<path fill="#FFFFFF" d="M72.036,277.043c12.027,0,24.054,0,36.082,0c7.238,0,14.268-1.087,20.583-4.81
		c7.506-4.425,12.399-12.26,16.534-19.668c14.219-25.477,27.031-51.844,40.339-77.803c4.553-8.882,9.106-17.764,13.66-26.646
		c6.557-12.791,11.854-27.272,21.083-38.445c5.247-6.352,12.036-9.838,20.271-10.233c3.771-0.181,7.583-0.021,11.355-0.021
		c10.662,0,21.323,0,31.985,0c6.449,0,6.449-10,0-10c-12.456,0-24.912,0-37.368,0c-6.478,0-12.846,0.168-18.971,2.612
		c-9.206,3.672-15.587,11.219-20.705,19.438c-7.548,12.122-13.163,25.512-19.68,38.226c-6.883,13.427-13.767,26.853-20.649,40.28
		c-4.741,9.248-9.482,18.496-14.224,27.744c-6.285,12.26-12.306,25.103-19.833,36.653c-3.585,5.502-8.188,9.85-14.594,11.682
		c-4.426,1.266-9.13,0.993-13.688,0.993c-10.727,0-21.454,0-32.18,0C65.587,267.043,65.587,277.043,72.036,277.043L72.036,277.043z"
		/>
</g>
<g display="none">
	<g display="inline">
		<g>
			<path fill="#FFFFFF" d="M71.315,182.902c0.033-18.633,0.763-37.351,3.327-55.824c0.828-5.964,1.896-11.928,3.58-17.715
				c0.51-1.752,1.986-7.995,4.476-8.181c1.917-0.143,1.931-3.144,0-3c-7.742,0.578-9.254,17.751-10.149,22.938
				c-3.509,20.319-4.196,41.207-4.233,61.782C68.312,184.837,71.312,184.837,71.315,182.902L71.315,182.902z"/>
		</g>
		<g>
			<path fill="#FFFFFF" d="M97.08,182.902c-0.037-20.62-0.865-41.408-4.233-61.782c-0.856-5.183-2.431-22.362-10.15-22.938
				c-1.931-0.144-1.917,2.857,0,3c2.51,0.187,3.938,6.426,4.477,8.181c1.767,5.753,2.718,11.773,3.58,17.715
				c2.673,18.437,3.293,37.22,3.327,55.824C94.083,184.837,97.083,184.837,97.08,182.902L97.08,182.902z"/>
		</g>
	</g>
	<g display="inline">
		<g>
			<path fill="#FFFFFF" d="M94.34,182.903c0.036,20.619,0.845,41.397,4.136,61.782c0.939,5.82,2.025,11.914,4.406,17.348
				c1.066,2.434,2.571,5.363,5.541,5.59c1.931,0.147,1.916-2.854,0-3c-2.433-0.186-3.832-6.492-4.339-8.181
				c-1.728-5.759-2.655-11.775-3.496-17.715c-2.612-18.444-3.215-37.22-3.248-55.824C97.336,180.968,94.336,180.968,94.34,182.903
				L94.34,182.903z"/>
		</g>
		<g>
			<path fill="#FFFFFF" d="M119.506,182.903c-0.033,18.631-0.744,37.346-3.248,55.824c-0.808,5.962-1.851,11.923-3.496,17.715
				c-0.479,1.686-1.923,7.996-4.339,8.181c-1.916,0.146-1.931,3.147,0,3c2.97-0.227,4.475-3.157,5.541-5.59
				c2.387-5.449,3.424-11.521,4.406-17.348c3.43-20.332,4.1-41.206,4.136-61.782C122.509,180.968,119.509,180.968,119.506,182.903
				L119.506,182.903z"/>
		</g>
	</g>
	<g display="inline">
		<g>
			<path fill="#FFFFFF" d="M122.506,182.902c0.037-16.316,0.752-32.705,3.2-48.854c0.797-5.257,1.84-10.504,3.433-15.582
				c0.538-1.716,2.022-7.237,4.45-7.421c1.917-0.146,1.931-3.147,0-3c-7.239,0.55-8.92,15.053-9.895,20.071
				c-3.484,17.953-4.146,36.549-4.188,54.787C119.501,184.837,122.501,184.837,122.506,182.902L122.506,182.902z"/>
		</g>
		<g>
			<path fill="#FFFFFF" d="M147.671,182.902c-0.041-18.292-0.86-36.765-4.188-54.787c-0.926-5.014-2.685-19.523-9.895-20.071
				c-1.931-0.147-1.917,2.854,0,3c2.449,0.186,3.877,5.704,4.45,7.421c1.68,5.041,2.599,10.349,3.433,15.582
				c2.565,16.105,3.164,32.571,3.2,48.854C144.675,184.837,147.675,184.837,147.671,182.902L147.671,182.902z"/>
		</g>
	</g>
	<g display="inline">
		<g>
			<path fill="#FFFFFF" d="M144.671,182.834c0.088,8.075,0.873,16.641,4.123,24.134c1.888,4.352,4.722,9.204,9.949,9.577
				c1.932,0.138,1.918-2.863,0-3c-4.61-0.329-6.857-6.602-8.123-10.207c-2.295-6.535-2.875-13.63-2.949-20.504
				C147.65,180.9,144.65,180.898,144.671,182.834L144.671,182.834z"/>
		</g>
		<g>
			<path fill="#FFFFFF" d="M169.815,182.834c-0.071,6.506-0.756,12.904-2.53,19.177c-1.101,3.892-3.598,11.181-8.542,11.534
				c-1.918,0.137-1.932,3.138,0,3c4.79-0.342,7.533-4.456,9.454-8.437c3.716-7.699,4.527-16.854,4.618-25.274
				C172.836,180.898,169.836,180.9,169.815,182.834L169.815,182.834z"/>
		</g>
	</g>
</g>
<g display="none">
	<g display="inline">
		<g>
			<path fill="#FFFFFF" d="M285.815,183.129c-0.033,18.633-0.764,37.352-3.327,55.824c-0.828,5.965-1.896,11.929-3.58,17.716
				c-0.51,1.753-1.986,7.995-4.476,8.181c-1.917,0.143-1.931,3.145,0,3c7.742-0.578,9.254-17.752,10.149-22.938
				c3.509-20.319,4.196-41.207,4.233-61.783C288.818,181.194,285.818,181.194,285.815,183.129L285.815,183.129z"/>
		</g>
		<g>
			<path fill="#FFFFFF" d="M260.05,183.129c0.037,20.62,0.865,41.408,4.233,61.783c0.856,5.183,2.431,22.362,10.15,22.938
				c1.931,0.145,1.917-2.857,0-3c-2.51-0.188-3.938-6.426-4.477-8.181c-1.767-5.753-2.718-11.773-3.58-17.716
				c-2.673-18.436-3.293-37.22-3.327-55.824C263.046,181.194,260.046,181.194,260.05,183.129L260.05,183.129z"/>
		</g>
	</g>
	<g display="inline">
		<g>
			<path fill="#FFFFFF" d="M262.79,183.128c-0.036-20.619-0.845-41.397-4.136-61.782c-0.939-5.82-2.025-11.914-4.406-17.348
				c-1.066-2.434-2.571-5.363-5.541-5.59c-1.931-0.147-1.917,2.854,0,3c2.433,0.186,3.832,6.492,4.339,8.181
				c1.728,5.759,2.655,11.775,3.496,17.715c2.612,18.444,3.215,37.22,3.248,55.824C259.793,185.063,262.793,185.063,262.79,183.128
				L262.79,183.128z"/>
		</g>
		<g>
			<path fill="#FFFFFF" d="M237.624,183.128c0.033-18.631,0.744-37.346,3.248-55.824c0.808-5.962,1.851-11.923,3.496-17.715
				c0.479-1.686,1.923-7.996,4.339-8.181c1.917-0.146,1.931-3.147,0-3c-2.97,0.227-4.475,3.157-5.541,5.59
				c-2.387,5.449-3.424,11.521-4.406,17.348c-3.43,20.332-4.1,41.206-4.136,61.782C234.621,185.063,237.621,185.063,237.624,183.128
				L237.624,183.128z"/>
		</g>
	</g>
	<g display="inline">
		<g>
			<path fill="#FFFFFF" d="M234.624,183.129c-0.037,16.316-0.752,32.705-3.2,48.854c-0.797,5.257-1.84,10.504-3.433,15.582
				c-0.538,1.716-2.022,7.237-4.45,7.421c-1.917,0.146-1.931,3.146,0,3c7.239-0.551,8.92-15.053,9.895-20.071
				c3.484-17.953,4.146-36.549,4.188-54.787C237.628,181.194,234.628,181.194,234.624,183.129L234.624,183.129z"/>
		</g>
		<g>
			<path fill="#FFFFFF" d="M209.459,183.129c0.041,18.292,0.86,36.765,4.188,54.787c0.926,5.014,2.685,19.523,9.895,20.071
				c1.931,0.146,1.917-2.854,0-3c-2.449-0.187-3.877-5.704-4.45-7.421c-1.68-5.041-2.599-10.349-3.433-15.582
				c-2.565-16.105-3.164-32.571-3.2-48.854C212.455,181.194,209.455,181.194,209.459,183.129L209.459,183.129z"/>
		</g>
	</g>
	<g display="inline">
		<g>
			<path fill="#FFFFFF" d="M212.459,183.197c-0.088-8.075-0.873-16.641-4.123-24.134c-1.888-4.352-4.722-9.204-9.949-9.577
				c-1.932-0.138-1.918,2.863,0,3c4.61,0.329,6.857,6.602,8.123,10.207c2.295,6.535,2.875,13.63,2.949,20.504
				C209.48,185.131,212.48,185.133,212.459,183.197L212.459,183.197z"/>
		</g>
		<g>
			<path fill="#FFFFFF" d="M187.315,183.197c0.071-6.506,0.756-12.904,2.53-19.177c1.101-3.892,3.598-11.181,8.542-11.534
				c1.918-0.137,1.932-3.138,0-3c-4.79,0.342-7.533,4.456-9.454,8.437c-3.716,7.699-4.527,16.854-4.618,25.274
				C184.294,185.133,187.294,185.131,187.315,183.197L187.315,183.197z"/>
		</g>
	</g>
</g>
</svg>
