<?xml version="1.0" encoding="iso-8859-1"?>
<!-- Generator: Adobe Illustrator 16.0.0, SVG Export Plug-In . SVG Version: 6.00 Build 0)  -->
<!DOCTYPE svg PUBLIC "-//W3C//DTD SVG 1.1 Tiny//EN" "http://www.w3.org/Graphics/SVG/1.1/DTD/svg11-tiny.dtd">
<svg version="1.1" baseProfile="tiny" id="control_x5F_arrow_x5F_upward"
	 xmlns="http://www.w3.org/2000/svg" xmlns:xlink="http://www.w3.org/1999/xlink" x="0px" y="0px" width="361px" height="361px"
	 viewBox="0 0 361 361" xml:space="preserve">
<g>
	<g>
		<path fill="#FFFFFF" d="M126.601,178.134c-4.182,0.21-10.306,1.283-10.306,6.721c0,2.935,0,5.869,0,8.804
			c0,7.383-1.506,15.897,8.629,16.408c8.597,0.433,17.281,0.084,25.885,0.084c26.212,0,52.425,0,78.637,0
			c6.867,0,10.91-2.541,10.91-9.4c0-3.608,0-7.215,0-10.823c0-2.808,0.371-5.621-0.954-8.185c-2.17-4.201-8.632-3.609-12.768-3.609
			c-5.013,0-10.027,0-15.04,0c-27.548,0-55.095,0-82.643,0C128.168,178.134,127.384,178.134,126.601,178.134c-6.449,0-6.449,10,0,10
			c24.343,0,48.686,0,73.029,0c9.992,0,19.983,0,29.975,0c0.149,0,0.298,0,0.447,0c3.903,0,0.303,0.072,0.303-3.089
			c0,0.407,0,0.814,0,1.222c0,3.732,0,7.464,0,11.196c0,1.519,0,3.037,0,4.555c0,0.407,0,0.814,0,1.222
			c0-2.804,3.623-3.287-0.304-3.089c-0.675,0.034-1.36,0-2.036,0c-23.664,0-47.329,0-70.993,0c-9.462,0-18.924,0-28.386,0
			c-0.662,0-1.323,0-1.985,0c-3.972,0-0.357-0.132-0.357,3.089c0-1.077,0-2.154,0-3.23c0-3.361,0-6.721,0-10.082
			c0-1.221,0-2.441,0-3.662c0-0.407,0-0.814,0-1.222c0,2.807-3.623,3.288,0.306,3.09
			C133.018,187.811,133.049,177.809,126.601,178.134z"/>
	</g>
	<g>
		<path fill="#FFFFFF" d="M262.942,179.9c-26.765-35.019-53.53-70.037-80.294-105.055c-2.429-3.178-6.206-3.178-8.635,0
			c-26.765,35.018-53.529,70.037-80.293,105.055c-2.39,3.126,0.882,7.523,4.317,7.523c49.409,0,98.817,0,148.226,0
			c4.121,0,8.241,0,12.362,0c6.449,0,6.449-10,0-10c-49.409,0-98.817,0-148.226,0c-4.121,0-8.241,0-12.362,0
			c1.439,2.508,2.878,5.016,4.317,7.523c26.765-35.018,53.529-70.037,80.293-105.055c-2.878,0-5.756,0-8.635,0
			c26.765,35.019,53.53,70.037,80.294,105.055C258.167,189.997,266.86,185.026,262.942,179.9z"/>
	</g>
	<g>
		<path fill="#FFFFFF" d="M126.601,221.037c-4.182,0.211-10.306,1.284-10.306,6.721c0,2.935,0,5.869,0,8.804
			c0,7.383-1.506,15.897,8.629,16.407c8.597,0.433,17.281,0.084,25.885,0.084c26.212,0,52.425,0,78.637,0.001
			c6.867,0,10.91-2.54,10.91-9.399c0-3.607,0-7.215,0-10.823c0-2.808,0.372-5.622-0.954-8.185c-2.172-4.2-8.631-3.609-12.768-3.609
			c-5.013,0-10.027,0-15.04,0c-27.548,0-55.095,0-82.643,0C128.168,221.037,127.384,221.037,126.601,221.037c-6.449,0-6.449,10,0,10
			c24.343,0,48.686,0,73.029,0c9.992,0,19.983,0,29.975,0c0.149,0,0.298,0,0.447,0c3.903,0,0.303,0.073,0.303-3.089
			c0,0.407,0,0.814,0,1.222c0,3.732,0,7.464,0,11.197c0,1.519,0,3.037,0,4.556c0,0.407,0,0.814,0,1.222
			c0-2.804,3.623-3.289-0.304-3.09c-0.675,0.034-1.36,0-2.036,0c-23.664,0-47.329,0-70.993,0c-9.462,0-18.924,0-28.386,0
			c-0.662,0-1.323,0-1.985,0c-3.972,0-0.357-0.13-0.357,3.091c0-1.077,0-2.154,0-3.23c0-3.361,0-6.721,0-10.082
			c0-1.221,0-2.441,0-3.662c0-0.407,0-0.814,0-1.222c0,2.807-3.623,3.288,0.306,3.09
			C133.018,230.714,133.049,220.712,126.601,221.037z"/>
	</g>
	<g>
		<path fill="#FFFFFF" d="M126.606,262.762c-4.182,0.211-10.305,1.286-10.305,6.723c0,2.934,0,5.869,0,8.803
			c0,7.382-1.506,15.895,8.628,16.406c8.597,0.434,17.281,0.085,25.884,0.085c26.212,0.001,52.425,0.001,78.637,0.002
			c6.868,0,10.911-2.54,10.911-9.4c0-3.607,0-7.215,0-10.823c0-2.81,0.37-5.62-0.954-8.186c-2.168-4.202-8.634-3.609-12.769-3.609
			c-5.013,0-10.027,0-15.04,0c-27.548,0-55.095,0-82.643,0C128.173,262.762,127.389,262.762,126.606,262.762c-6.449,0-6.449,10,0,10
			c24.343,0,48.686,0,73.029,0c9.992,0,19.983,0,29.975,0c0.149,0,0.298,0,0.447,0c3.903,0,0.304,0.072,0.304-3.088
			c0,0.407,0,0.814,0,1.222c0,3.732,0,7.464,0,11.196c0,1.519,0,3.037,0,4.555c0,0.407,0,0.814,0,1.222
			c0-2.803,3.623-3.285-0.305-3.088c-0.675,0.034-1.36,0-2.036,0c-23.664-0.001-47.329-0.001-70.993-0.001
			c-9.462-0.001-18.924-0.001-28.386-0.001c-0.662,0-1.323,0-1.985,0c-3.97,0-0.356-0.131-0.356,3.09c0-1.076,0-2.153,0-3.229
			c0-3.361,0-6.721,0-10.082c0-1.221,0-2.441,0-3.662c0-0.407,0-0.814,0-1.222c0,2.806-3.623,3.287,0.305,3.088
			C133.022,272.438,133.054,262.437,126.606,262.762z"/>
	</g>
</g>
</svg>
