<?xml version="1.0" encoding="iso-8859-1"?>
<!-- Generator: Adobe Illustrator 16.0.0, SVG Export Plug-In . SVG Version: 6.00 Build 0)  -->
<!DOCTYPE svg PUBLIC "-//W3C//DTD SVG 1.1//EN" "http://www.w3.org/Graphics/SVG/1.1/DTD/svg11.dtd">
<svg version="1.1" xmlns="http://www.w3.org/2000/svg" xmlns:xlink="http://www.w3.org/1999/xlink" x="0px" y="0px" width="361px"
	 height="361px" viewBox="0 0 361 361" style="enable-background:new 0 0 361 361;" xml:space="preserve">
<g id="control_x5F_switch_x5F_m_x5F_8">
	<g>
		<g>
			<path style="fill:#FFFFFF;" d="M143.025,126.179c0.386,0.16,0.187,0.638,0.187-0.475c0-1.137,0-2.273,0-3.41c0-3.3,0-6.6,0-9.899
				c0-5.423,0-10.847,0-16.27c0,0.723-0.95,0.542,0.414,0.542c1.128,0,2.256,0,3.384,0c3.275,0,6.55,0,9.826,0
				c5.383,0,10.766,0,16.148,0c-0.725,0-0.543-0.947-0.543,0.421c0,1.137,0,2.273,0,3.41c0,3.3,0,6.6,0,9.899
				c0,5.423,0,10.847,0,16.27c0-0.723,0.951-0.542-0.414-0.542c-1.128,0-2.256,0-3.384,0c-3.605,0-7.211,0-10.816,0
				c-5.067,0-10.133,0-15.2,0c-1.935,0-1.935,3,0,3c5.726,0,11.452,0,17.178,0c3.396,0,6.792,0,10.187,0
				c1.371,0,3.64,0.396,4.743-0.707c1.013-1.013,0.707-2.89,0.707-4.165c0-3.622,0-7.243,0-10.865c0-5.769,0-11.538,0-17.307
				c0-4.044-9.672-2.415-11.801-2.415c-6.788,0-13.576,0-20.364,0c-4.276,0-3.064,5.507-3.064,8.371c0,7.405,0,14.81,0,22.215
				c0,2.133-0.256,3.877,2.016,4.818C144.015,129.812,144.786,126.908,143.025,126.179z"/>
		</g>
	</g>
	<path style="fill:none;stroke:#FFFFFF;stroke-width:7;stroke-miterlimit:10;" d="M123.275,288.102
		c-1.903,0-3.446-1.541-3.446-3.445V76.885c0-1.903,1.543-3.447,3.446-3.447h114.586c1.902,0,3.445,1.543,3.445,3.447v207.771
		c0,1.904-1.543,3.445-3.445,3.445H123.275z"/>
	<g>
		<g>
			<path style="fill:#FFFFFF;" d="M188.723,126.179c0.388,0.16,0.188,0.637,0.188-0.475c0-1.137,0-2.273,0-3.41c0-3.3,0-6.6,0-9.899
				c0-5.423,0-10.847,0-16.27c0,0.723-0.951,0.542,0.413,0.542c1.129,0,2.257,0,3.385,0c3.275,0,6.551,0,9.826,0
				c5.383,0,10.766,0,16.147,0c-0.725,0-0.543-0.947-0.543,0.421c0,1.137,0,2.273,0,3.41c0,3.3,0,6.6,0,9.899
				c0,5.423,0,10.847,0,16.27c0-0.723,0.951-0.542-0.413-0.542c-1.129,0-2.257,0-3.385,0c-3.605,0-7.211,0-10.816,0
				c-5.066,0-10.134,0-15.2,0c-1.935,0-1.935,3,0,3c5.726,0,11.452,0,17.178,0c3.396,0,6.791,0,10.187,0
				c1.371,0,3.641,0.396,4.743-0.707c1.013-1.013,0.707-2.891,0.707-4.165c0-3.622,0-7.243,0-10.865c0-5.769,0-11.538,0-17.307
				c0-4.044-9.672-2.415-11.802-2.415c-6.787,0-13.575,0-20.363,0c-4.275,0-3.063,5.507-3.063,8.371c0,7.405,0,14.81,0,22.215
				c0,2.133-0.256,3.876,2.016,4.818C189.713,129.812,190.483,126.908,188.723,126.179z"/>
		</g>
	</g>
	<g>
		<g>
			<path style="fill:#FFFFFF;" d="M143.047,172.167c0.387,0.16,0.187,0.636,0.187-0.476c0-1.137,0-2.273,0-3.41c0-3.3,0-6.6,0-9.899
				c0-5.423,0-10.847,0-16.27c0,0.723-0.95,0.542,0.414,0.542c1.128,0,2.256,0,3.384,0c3.275,0,6.55,0,9.826,0
				c5.382,0,10.765,0,16.148,0c-0.725,0-0.543-0.947-0.543,0.421c0,1.137,0,2.273,0,3.41c0,3.3,0,6.6,0,9.899
				c0,5.423,0,10.847,0,16.27c0-0.722,0.951-0.542-0.414-0.542c-1.128,0-2.256,0-3.384,0c-3.605,0-7.211,0-10.816,0
				c-5.066,0-10.133,0-15.2,0c-1.935,0-1.935,3,0,3c5.726,0,11.452,0,17.178,0c3.396,0,6.791,0,10.187,0
				c1.372,0,3.64,0.396,4.743-0.708c1.013-1.013,0.707-2.89,0.707-4.165c0-3.622,0-7.243,0-10.865c0-5.769,0-11.538,0-17.307
				c0-4.044-9.672-2.415-11.801-2.415c-6.788,0-13.575,0-20.363,0c-4.276,0-3.064,5.506-3.064,8.371c0,7.405,0,14.81,0,22.215
				c0,2.134-0.256,3.876,2.016,4.818C144.036,175.801,144.807,172.897,143.047,172.167z"/>
		</g>
	</g>
	<g>
		<g>
			<path style="fill:#FFFFFF;" d="M188.131,172.167c0.388,0.161,0.188,0.636,0.188-0.476c0-1.137,0-2.273,0-3.41
				c0-3.3,0-6.6,0-9.899c0-5.423,0-10.847,0-16.27c0,0.723-0.951,0.542,0.413,0.542c1.129,0,2.257,0,3.385,0
				c3.275,0,6.551,0,9.826,0c5.383,0,10.766,0,16.147,0c-0.725,0-0.543-0.947-0.543,0.421c0,1.137,0,2.273,0,3.41
				c0,3.3,0,6.6,0,9.899c0,5.423,0,10.847,0,16.27c0-0.722,0.951-0.542-0.413-0.542c-1.129,0-2.257,0-3.385,0
				c-3.605,0-7.211,0-10.816,0c-5.066,0-10.134,0-15.2,0c-1.935,0-1.935,3,0,3c5.726,0,11.452,0,17.178,0c3.396,0,6.791,0,10.187,0
				c1.372,0,3.641,0.396,4.743-0.708c1.013-1.013,0.707-2.89,0.707-4.165c0-3.622,0-7.243,0-10.865c0-5.769,0-11.538,0-17.307
				c0-4.044-9.672-2.415-11.802-2.415c-6.787,0-13.575,0-20.363,0c-4.276,0-3.063,5.507-3.063,8.371c0,7.405,0,14.81,0,22.215
				c0,2.134-0.256,3.875,2.016,4.818C189.12,175.801,189.892,172.897,188.131,172.167z"/>
		</g>
	</g>
	<g>
		<g>
			<path style="fill:#FFFFFF;" d="M142.854,218.276c0.387,0.16,0.187,0.639,0.187-0.475c0-1.137,0-2.273,0-3.41c0-3.3,0-6.6,0-9.899
				c0-5.423,0-10.847,0-16.27c0,0.723-0.951,0.543,0.414,0.543c1.128,0,2.256,0,3.384,0c3.275,0,6.55,0,9.826,0
				c5.383,0,10.766,0,16.148,0c-0.725,0-0.543-0.948-0.543,0.421c0,1.137,0,2.273,0,3.41c0,3.3,0,6.6,0,9.899
				c0,5.423,0,10.847,0,16.27c0-0.723,0.951-0.543-0.414-0.543c-1.128,0-2.256,0-3.384,0c-3.605,0-7.211,0-10.816,0
				c-5.067,0-10.133,0-15.2,0c-1.935,0-1.935,3,0,3c5.726,0,11.452,0,17.178,0c3.396,0,6.792,0,10.187,0
				c1.371,0,3.64,0.396,4.743-0.707c1.013-1.014,0.707-2.89,0.707-4.164c0-3.622,0-7.243,0-10.865c0-5.769,0-11.538,0-17.307
				c0-4.044-9.673-2.414-11.801-2.414c-6.788,0-13.576,0-20.364,0c-4.276,0-3.063,5.506-3.063,8.37c0,7.405,0,14.811,0,22.216
				c0,2.134-0.256,3.876,2.015,4.817C143.844,221.91,144.615,219.006,142.854,218.276z"/>
		</g>
	</g>
	<g>
		<g>
			<path style="fill:#FFFFFF;" d="M187.939,218.276c0.388,0.16,0.188,0.639,0.188-0.475c0-1.137,0-2.273,0-3.41c0-3.3,0-6.6,0-9.899
				c0-5.423,0-10.847,0-16.27c0,0.723-0.951,0.543,0.413,0.543c1.129,0,2.257,0,3.385,0c3.275,0,6.551,0,9.826,0
				c5.383,0,10.766,0,16.147,0c-0.725,0-0.543-0.948-0.543,0.421c0,1.137,0,2.273,0,3.41c0,3.3,0,6.6,0,9.899
				c0,5.423,0,10.847,0,16.27c0-0.723,0.951-0.543-0.413-0.543c-1.129,0-2.257,0-3.385,0c-3.605,0-7.211,0-10.816,0
				c-5.066,0-10.134,0-15.2,0c-1.935,0-1.935,3,0,3c5.726,0,11.452,0,17.178,0c3.396,0,6.791,0,10.187,0
				c1.372,0,3.64,0.396,4.743-0.707c1.013-1.014,0.707-2.889,0.707-4.164c0-3.622,0-7.243,0-10.865c0-5.769,0-11.538,0-17.307
				c0-4.044-9.673-2.414-11.802-2.414c-6.787,0-13.575,0-20.363,0c-4.276,0-3.063,5.506-3.063,8.37c0,7.405,0,14.811,0,22.216
				c0,2.134-0.256,3.875,2.016,4.817C188.93,221.91,189.7,219.006,187.939,218.276z"/>
		</g>
	</g>
	<g>
		<g>
			<path style="fill:#FFFFFF;" d="M142.936,264.386c0.387,0.16,0.187,0.639,0.187-0.475c0-1.137,0-2.273,0-3.41c0-3.3,0-6.6,0-9.899
				c0-5.423,0-10.847,0-16.27c0,0.723-0.951,0.543,0.414,0.543c1.128,0,2.256,0,3.384,0c3.275,0,6.55,0,9.826,0
				c5.383,0,10.766,0,16.148,0c-0.725,0-0.543-0.948-0.543,0.421c0,1.137,0,2.273,0,3.41c0,3.3,0,6.6,0,9.899
				c0,5.423,0,10.847,0,16.27c0-0.723,0.951-0.543-0.414-0.543c-1.128,0-2.256,0-3.384,0c-3.605,0-7.211,0-10.816,0
				c-5.067,0-10.133,0-15.2,0c-1.935,0-1.935,3,0,3c5.726,0,11.452,0,17.178,0c3.396,0,6.792,0,10.187,0
				c1.371,0,3.64,0.396,4.743-0.707c1.013-1.014,0.707-2.89,0.707-4.164c0-3.622,0-7.243,0-10.865c0-5.769,0-11.538,0-17.307
				c0-4.044-9.673-2.414-11.801-2.414c-6.788,0-13.576,0-20.364,0c-4.276,0-3.063,5.506-3.063,8.37c0,7.405,0,14.811,0,22.216
				c0,2.134-0.256,3.876,2.015,4.817C143.925,268.02,144.696,265.115,142.936,264.386z"/>
		</g>
	</g>
	<g>
		<g>
			<path style="fill:#FFFFFF;" d="M188.021,264.386c0.388,0.16,0.188,0.639,0.188-0.475c0-1.137,0-2.273,0-3.41c0-3.3,0-6.6,0-9.899
				c0-5.423,0-10.847,0-16.27c0,0.723-0.951,0.543,0.413,0.543c1.129,0,2.257,0,3.385,0c3.275,0,6.55,0,9.825,0
				c5.383,0,10.766,0,16.147,0c-0.723,0-0.542-0.948-0.542,0.421c0,1.137,0,2.273,0,3.41c0,3.3,0,6.6,0,9.899
				c0,5.423,0,10.847,0,16.27c0-0.724,0.949-0.543-0.414-0.543c-1.129,0-2.257,0-3.385,0c-3.605,0-7.211,0-10.815,0
				c-5.067,0-10.134,0-15.2,0c-1.935,0-1.935,3,0,3c5.726,0,11.451,0,17.178,0c3.396,0,6.79,0,10.186,0
				c1.372,0,3.642,0.396,4.744-0.707c1.013-1.014,0.707-2.89,0.707-4.164c0-3.622,0-7.243,0-10.865c0-5.769,0-11.538,0-17.307
				c0-4.044-9.674-2.414-11.802-2.414c-6.788,0-13.575,0-20.363,0c-4.276,0-3.063,5.506-3.063,8.37c0,7.405,0,14.811,0,22.216
				c0,2.134-0.256,3.875,2.016,4.817C189.011,268.02,189.781,265.115,188.021,264.386z"/>
		</g>
	</g>
</g>
<g id="Ebene_1">
</g>
</svg>
