<?xml version="1.0" encoding="iso-8859-1"?>
<!-- Generator: Adobe Illustrator 16.0.0, SVG Export Plug-In . SVG Version: 6.00 Build 0)  -->
<!DOCTYPE svg PUBLIC "-//W3C//DTD SVG 1.1 Tiny//EN" "http://www.w3.org/Graphics/SVG/1.1/DTD/svg11-tiny.dtd">
<svg version="1.1" baseProfile="tiny" id="control_x5F_arrow_x5F_up_x5F_left"
	 xmlns="http://www.w3.org/2000/svg" xmlns:xlink="http://www.w3.org/1999/xlink" x="0px" y="0px" width="361px" height="361px"
	 viewBox="0 0 361 361" xml:space="preserve">
<path fill="none" stroke="#FFFFFF" stroke-width="10" stroke-miterlimit="10" d="M183.861,116.482
	c2.071-2.071,4.273-3.225,4.919-2.58l20.287,20.287c0.646,0.646-0.508,2.849-2.579,4.92l-73.112,73.112
	c-2.07,2.07-4.273,3.225-4.919,2.579l-20.287-20.288c-0.646-0.646,0.509-2.848,2.579-4.918L183.861,116.482z"/>
<g>
	<path fill="#FFFFFF" d="M95.356,208.797c-5.833-43.665-11.667-87.329-17.5-130.993c-1.667,1.667-3.333,3.333-5,5
		c43.664,5.833,87.328,11.667,130.992,17.5c-1.179-2.845-2.357-5.69-3.536-8.536c-34.918,34.919-69.837,69.837-104.756,104.756
		c-2.912,2.912-5.825,5.824-8.737,8.736c-4.563,4.564,2.507,11.635,7.071,7.071c34.918-34.919,69.837-69.837,104.756-104.756
		c2.912-2.912,5.825-5.824,8.737-8.736c3.399-3.399,0.542-7.991-3.536-8.536c-43.664-5.833-87.328-11.667-130.992-17.5
		c-2.463-0.329-5.329,2.537-5,5c5.833,43.665,11.667,87.329,17.5,130.993C86.197,215.092,96.208,215.174,95.356,208.797z"/>
</g>
</svg>
