<?xml version="1.0" encoding="iso-8859-1"?>
<!-- Generator: Adobe Illustrator 16.0.0, SVG Export Plug-In . SVG Version: 6.00 Build 0)  -->
<!DOCTYPE svg PUBLIC "-//W3C//DTD SVG 1.1//EN" "http://www.w3.org/Graphics/SVG/1.1/DTD/svg11.dtd">
<svg version="1.1" xmlns="http://www.w3.org/2000/svg" xmlns:xlink="http://www.w3.org/1999/xlink" x="0px" y="0px" width="361px"
	 height="361px" viewBox="0 0 361 361" style="enable-background:new 0 0 361 361;" xml:space="preserve">
<g id="control_x5F_on_x5F_off">
	<path style="fill:none;stroke:#FFFFFF;stroke-width:10;stroke-miterlimit:10;" d="M269.835,237.448
		c0,17.794-14.427,32.22-32.22,32.22H123.055c-17.795,0-32.22-14.426-32.22-32.22V122.887c0-17.795,14.425-32.22,32.22-32.22
		h114.561c17.793,0,32.22,14.425,32.22,32.22V237.448z"/>
	<g>
		<g>
			<path style="fill:#FFFFFF;" d="M175.833,119.167c0,40.333,0,80.667,0,121c0,6.448,10,6.448,10,0c0-40.333,0-80.667,0-121
				C185.833,112.718,175.833,112.718,175.833,119.167L175.833,119.167z"/>
		</g>
	</g>
</g>
<g id="Ebene_1">
</g>
</svg>
