<?xml version="1.0" encoding="iso-8859-1"?>
<!-- Generator: Adobe Illustrator 16.0.0, SVG Export Plug-In . SVG Version: 6.00 Build 0)  -->
<!DOCTYPE svg PUBLIC "-//W3C//DTD SVG 1.1//EN" "http://www.w3.org/Graphics/SVG/1.1/DTD/svg11.dtd">
<svg version="1.1" xmlns="http://www.w3.org/2000/svg" xmlns:xlink="http://www.w3.org/1999/xlink" x="0px" y="0px" width="361px"
	 height="361px" viewBox="0 0 361 361" style="enable-background:new 0 0 361 361;" xml:space="preserve">
<g id="control_x5F_building_x5F_s_x5F_okg_x5F_og">
	<g>
		<g>
			<path style="fill:#FFFFFF;" d="M259.237,250.592c10.407,0,20.813,0,31.221,0c1.935,0,1.935-3,0-3c-10.407,0-20.813,0-31.221,0
				C257.303,247.592,257.303,250.592,259.237,250.592L259.237,250.592z"/>
		</g>
	</g>
	<g>
		<g>
			<path style="fill:#FFFFFF;" d="M283.391,281.786c1.531,0,3.063,0,4.595,0c1.908,0,3.5-1.592,3.5-3.5s-1.592-3.5-3.5-3.5
				c-1.531,0-3.063,0-4.595,0c-1.908,0-3.5,1.592-3.5,3.5S281.482,281.786,283.391,281.786L283.391,281.786z"/>
		</g>
	</g>
	<g>
		<g>
			<path style="fill:#FFFFFF;" d="M256.666,291.786c5.333,0,10.667,0,16,0c4.514,0,4.514-7,0-7c-5.333,0-10.667,0-16,0
				C252.152,284.786,252.152,291.786,256.666,291.786L256.666,291.786z"/>
		</g>
	</g>
	<g>
		<g>
			<path style="fill:#FFFFFF;" d="M268.25,285.786c2,0,4,0,6,0c1.908,0,3.5-1.592,3.5-3.5s-1.592-3.5-3.5-3.5c-2,0-4,0-6,0
				c-1.908,0-3.5,1.592-3.5,3.5S266.342,285.786,268.25,285.786L268.25,285.786z"/>
		</g>
	</g>
	<g>
		<g>
			<path style="fill:#FFFFFF;" d="M286.584,291.786c0.667,0,1.333,0,2,0c1.908,0,3.5-1.592,3.5-3.5s-1.592-3.5-3.5-3.5
				c-0.667,0-1.333,0-2,0c-1.908,0-3.5,1.592-3.5,3.5S284.676,291.786,286.584,291.786L286.584,291.786z"/>
		</g>
	</g>
	<g>
		<g>
			<path style="fill:#FFFFFF;" d="M267.666,271.474c-2,0-4,0-6,0c-1.908,0-3.5,1.592-3.5,3.5s1.592,3.5,3.5,3.5c2,0,4,0,6,0
				c1.908,0,3.5-1.592,3.5-3.5S269.574,271.474,267.666,271.474L267.666,271.474z"/>
		</g>
	</g>
	<g>
		<g>
			<path style="fill:#FFFFFF;" d="M265.666,257.453c-0.667,0-1.333,0-2,0c-1.908,0-3.5,1.592-3.5,3.5s1.592,3.5,3.5,3.5
				c0.667,0,1.333,0,2,0c1.908,0,3.5-1.592,3.5-3.5S267.574,257.453,265.666,257.453L265.666,257.453z"/>
		</g>
	</g>
	<g>
		<g>
			<path style="fill:#FFFFFF;" d="M288.834,257.953c-5.333,0-10.667,0-16,0c-4.514,0-4.514,7,0,7c5.333,0,10.667,0,16,0
				C293.348,264.953,293.348,257.953,288.834,257.953L288.834,257.953z"/>
		</g>
	</g>
	<g>
		<g>
			<path style="fill:#FFFFFF;" d="M284.834,265.953c-5.083,0-10.167,0-15.25,0c-4.514,0-4.514,7,0,7c5.083,0,10.167,0,15.25,0
				C289.348,272.953,289.348,265.953,284.834,265.953L284.834,265.953z"/>
		</g>
	</g>
	<g>
		<g>
			<path style="fill:#FFFFFF;" d="M288.168,251.953c-2,0-4,0-6,0c-1.908,0-3.5,1.592-3.5,3.5s1.592,3.5,3.5,3.5c2,0,4,0,6,0
				c1.908,0,3.5-1.592,3.5-3.5S290.076,251.953,288.168,251.953L288.168,251.953z"/>
		</g>
	</g>
	<g>
		<g>
			<path style="fill:#FFFFFF;" d="M273.834,249.953c-2,0-4,0-6,0c-1.908,0-3.5,1.592-3.5,3.5s1.592,3.5,3.5,3.5c2,0,4,0,6,0
				c1.908,0,3.5-1.592,3.5-3.5S275.742,249.953,273.834,249.953L273.834,249.953z"/>
		</g>
	</g>
	<g>
		<g>
			<path style="fill:#FFFFFF;" d="M256.104,263.89c-2,0-4,0-6,0c-1.908,0-3.5,1.592-3.5,3.5s1.592,3.5,3.5,3.5c2,0,4,0,6,0
				c1.908,0,3.5-1.592,3.5-3.5S258.012,263.89,256.104,263.89L256.104,263.89z"/>
		</g>
	</g>
	<g>
		<g>
			<path style="fill:#FFFFFF;" d="M287.833,269.953c-0.222,0-0.443,0-0.665,0c-1.908,0-3.5,1.592-3.5,3.5s1.592,3.5,3.5,3.5
				c0.222,0,0.443,0,0.665,0c1.908,0,3.5-1.592,3.5-3.5S289.741,269.953,287.833,269.953L287.833,269.953z"/>
		</g>
	</g>
	<g>
		<g>
			<path style="fill:#FFFFFF;" d="M73.75,282.89c2.337,0,4.673,0,7.01,0c4.514,0,4.514-7,0-7c-2.337,0-4.673,0-7.01,0
				C69.235,275.89,69.235,282.89,73.75,282.89L73.75,282.89z"/>
		</g>
	</g>
	<g>
		<g>
			<path style="fill:#FFFFFF;" d="M100.271,279.89c2.581,0,5.161,0,7.741,0c4.514,0,4.514-7,0-7c-2.581,0-5.161,0-7.741,0
				C95.756,272.89,95.756,279.89,100.271,279.89L100.271,279.89z"/>
		</g>
	</g>
	<g>
		<g>
			<path style="fill:#FFFFFF;" d="M96.834,268.89c5.083,0,10.167,0,15.25,0c4.514,0,4.514-7,0-7c-5.083,0-10.167,0-15.25,0
				C92.32,261.89,92.32,268.89,96.834,268.89L96.834,268.89z"/>
		</g>
	</g>
	<g>
		<g>
			<path style="fill:#FFFFFF;" d="M122.069,291.786c2,0,4,0,6,0c1.908,0,3.5-1.592,3.5-3.5s-1.592-3.5-3.5-3.5c-2,0-4,0-6,0
				c-1.908,0-3.5,1.592-3.5,3.5S120.161,291.786,122.069,291.786L122.069,291.786z"/>
		</g>
	</g>
	<g>
		<g>
			<path style="fill:#FFFFFF;" d="M246.238,284.277c-3,0-6.001,0-9.001,0c-4.514,0-4.514,7,0,7c3,0,6.001,0,9.001,0
				C250.752,291.277,250.752,284.277,246.238,284.277L246.238,284.277z"/>
		</g>
	</g>
	<g>
		<g>
			<path style="fill:#FFFFFF;" d="M259.237,268.277c-5.333,0-10.667,0-16,0c-4.514,0-4.514,7,0,7c5.333,0,10.667,0,16,0
				C263.751,275.277,263.751,268.277,259.237,268.277L259.237,268.277z"/>
		</g>
	</g>
	<g>
		<g>
			<path style="fill:#FFFFFF;" d="M79.874,251.578c-2,0-4,0-6,0c-1.908,0-3.5,1.592-3.5,3.5s1.592,3.5,3.5,3.5c2,0,4,0,6,0
				c1.908,0,3.5-1.592,3.5-3.5S81.782,251.578,79.874,251.578L79.874,251.578z"/>
		</g>
	</g>
	<g>
		<g>
			<path style="fill:#FFFFFF;" d="M240.487,260.536c-1.083,0-2.167,0-3.25,0c-1.908,0-3.5,1.592-3.5,3.5s1.592,3.5,3.5,3.5
				c1.083,0,2.167,0,3.25,0c1.908,0,3.5-1.592,3.5-3.5S242.396,260.536,240.487,260.536L240.487,260.536z"/>
		</g>
	</g>
	<g>
		<g>
			<path style="fill:#FFFFFF;" d="M76.583,272.953c0.667,0,1.333,0,2,0c1.908,0,3.5-1.592,3.5-3.5s-1.592-3.5-3.5-3.5
				c-0.667,0-1.333,0-2,0c-1.908,0-3.5,1.592-3.5,3.5S74.675,272.953,76.583,272.953L76.583,272.953z"/>
		</g>
	</g>
	<g>
		<g>
			<path style="fill:#FFFFFF;" d="M93.584,276.277c-0.667,0-1.333,0-2,0c-1.908,0-3.5,1.592-3.5,3.5s1.592,3.5,3.5,3.5
				c0.667,0,1.333,0,2,0c1.908,0,3.5-1.592,3.5-3.5S95.492,276.277,93.584,276.277L93.584,276.277z"/>
		</g>
	</g>
	<g>
		<g>
			<path style="fill:#FFFFFF;" d="M71.416,250.592c9.889,0,19.778,0,29.667,0c1.935,0,1.935-3,0-3c-9.889,0-19.778,0-29.667,0
				C69.481,247.592,69.481,250.592,71.416,250.592L71.416,250.592z"/>
		</g>
	</g>
	<g>
		<g>
			<path style="fill:#FFFFFF;" d="M196.164,284.786c-2,0-4,0-6,0c-1.908,0-3.5,1.592-3.5,3.5s1.592,3.5,3.5,3.5c2,0,4,0,6,0
				c1.908,0,3.5-1.592,3.5-3.5S198.072,284.786,196.164,284.786L196.164,284.786z"/>
		</g>
	</g>
	<g>
		<g>
			<path style="fill:#FFFFFF;" d="M87.833,263.89c-1.833,0-3.667,0-5.5,0c-1.908,0-3.5,1.592-3.5,3.5s1.592,3.5,3.5,3.5
				c1.833,0,3.667,0,5.5,0c1.908,0,3.5-1.592,3.5-3.5S89.741,263.89,87.833,263.89L87.833,263.89z"/>
		</g>
	</g>
	<g>
		<g>
			<path style="fill:#FFFFFF;" d="M172.5,266.953c3,0,6,0,9,0c4.514,0,4.514-7,0-7c-3,0-6,0-9,0
				C167.986,259.953,167.986,266.953,172.5,266.953L172.5,266.953z"/>
		</g>
	</g>
	<g>
		<g>
			<path style="fill:#FFFFFF;" d="M205.916,291.82c5.333,0,10.667,0,16,0c4.514,0,4.514-7,0-7c-5.333,0-10.667,0-16,0
				C201.402,284.82,201.402,291.82,205.916,291.82L205.916,291.82z"/>
		</g>
	</g>
	<g>
		<g>
			<path style="fill:#FFFFFF;" d="M221.375,277.729c2,0,4,0,6,0c1.908,0,3.5-1.592,3.5-3.5s-1.592-3.5-3.5-3.5c-2,0-4,0-6,0
				c-1.908,0-3.5,1.592-3.5,3.5S219.467,277.729,221.375,277.729L221.375,277.729z"/>
		</g>
	</g>
	<g>
		<g>
			<path style="fill:#FFFFFF;" d="M215.209,288.035c0.667,0,1.333,0,2,0c1.908,0,3.5-1.592,3.5-3.5s-1.592-3.5-3.5-3.5
				c-0.667,0-1.333,0-2,0c-1.908,0-3.5,1.592-3.5,3.5S213.301,288.035,215.209,288.035L215.209,288.035z"/>
		</g>
	</g>
	<g>
		<g>
			<path style="fill:#FFFFFF;" d="M213.75,264.584c-2,0-4,0-6,0c-1.908,0-3.5,1.592-3.5,3.5s1.592,3.5,3.5,3.5c2,0,4,0,6,0
				c1.908,0,3.5-1.592,3.5-3.5S215.658,264.584,213.75,264.584L213.75,264.584z"/>
		</g>
	</g>
	<g>
		<g>
			<path style="fill:#FFFFFF;" d="M222.834,260.751c-5.083,0-10.167,0-15.25,0c-4.514,0-4.514,7,0,7c5.083,0,10.167,0,15.25,0
				C227.348,267.751,227.348,260.751,222.834,260.751L222.834,260.751z"/>
		</g>
	</g>
	<g>
		<g>
			<path style="fill:#FFFFFF;" d="M233.834,278.584c-2,0-4,0-6,0c-1.908,0-3.5,1.592-3.5,3.5s1.592,3.5,3.5,3.5c2,0,4,0,6,0
				c1.908,0,3.5-1.592,3.5-3.5S235.742,278.584,233.834,278.584L233.834,278.584z"/>
		</g>
	</g>
	<g>
		<g>
			<path style="fill:#FFFFFF;" d="M135.882,271.917c-3,0-6,0-9,0c-4.514,0-4.514,7,0,7c3,0,6,0,9,0
				C140.396,278.917,140.396,271.917,135.882,271.917L135.882,271.917z"/>
		</g>
	</g>
	<g>
		<g>
			<path style="fill:#FFFFFF;" d="M152.736,260.549c-5.333,0-10.667,0-16,0c-4.514,0-4.514,7,0,7c5.333,0,10.667,0,16,0
				C157.25,267.549,157.25,260.549,152.736,260.549L152.736,260.549z"/>
		</g>
	</g>
	<g>
		<g>
			<path style="fill:#FFFFFF;" d="M152.402,271.786c-2,0-4,0-6,0c-1.908,0-3.5,1.592-3.5,3.5s1.592,3.5,3.5,3.5c2,0,4,0,6,0
				c1.908,0,3.5-1.592,3.5-3.5S154.31,271.786,152.402,271.786L152.402,271.786z"/>
		</g>
	</g>
	<g>
		<g>
			<path style="fill:#FFFFFF;" d="M139.069,265.786c-0.667,0-1.333,0-2,0c-1.908,0-3.5,1.592-3.5,3.5s1.592,3.5,3.5,3.5
				c0.667,0,1.333,0,2,0c1.908,0,3.5-1.592,3.5-3.5S140.977,265.786,139.069,265.786L139.069,265.786z"/>
		</g>
	</g>
	<g>
		<g>
			<path style="fill:#FFFFFF;" d="M144.902,291.786c2,0,4,0,6,0c1.908,0,3.5-1.592,3.5-3.5s-1.592-3.5-3.5-3.5c-2,0-4,0-6,0
				c-1.908,0-3.5,1.592-3.5,3.5S142.995,291.786,144.902,291.786L144.902,291.786z"/>
		</g>
	</g>
	<g>
		<g>
			<path style="fill:#FFFFFF;" d="M85.819,291.619c5.083,0,10.167,0,15.25,0c4.514,0,4.514-7,0-7c-5.083,0-10.167,0-15.25,0
				C81.305,284.619,81.305,291.619,85.819,291.619L85.819,291.619z"/>
		</g>
	</g>
	<g>
		<g>
			<path style="fill:#FFFFFF;" d="M124.569,271.786c2,0,4,0,6,0c1.908,0,3.5-1.592,3.5-3.5s-1.592-3.5-3.5-3.5c-2,0-4,0-6,0
				c-1.908,0-3.5,1.592-3.5,3.5S122.662,271.786,124.569,271.786L124.569,271.786z"/>
		</g>
	</g>
	<g>
		<g>
			<path style="fill:#FFFFFF;" d="M178.251,276.584c3,0,6.001,0,9.001,0c4.514,0,4.514-7,0-7c-3,0-6.001,0-9.001,0
				C173.737,269.584,173.737,276.584,178.251,276.584L178.251,276.584z"/>
		</g>
	</g>
	<g>
		<g>
			<path style="fill:#FFFFFF;" d="M159.584,291.82c5.333,0,10.667,0,16,0c4.514,0,4.514-7,0-7c-5.333,0-10.667,0-16,0
				C155.07,284.82,155.07,291.82,159.584,291.82L159.584,291.82z"/>
		</g>
	</g>
	<g>
		<g>
			<path style="fill:#FFFFFF;" d="M154.902,283.786c2,0,4,0,6,0c1.908,0,3.5-1.592,3.5-3.5s-1.592-3.5-3.5-3.5c-2,0-4,0-6,0
				c-1.908,0-3.5,1.592-3.5,3.5S152.995,283.786,154.902,283.786L154.902,283.786z"/>
		</g>
	</g>
	<g>
		<g>
			<path style="fill:#FFFFFF;" d="M173.251,287.584c0.667,0,1.333,0,2,0c1.908,0,3.5-1.592,3.5-3.5s-1.592-3.5-3.5-3.5
				c-0.667,0-1.333,0-2,0c-1.908,0-3.5,1.592-3.5,3.5S171.344,287.584,173.251,287.584L173.251,287.584z"/>
		</g>
	</g>
	<g>
		<g>
			<path style="fill:#FFFFFF;" d="M167.584,264.584c-3.722,0-7.444,0-11.166,0c-4.514,0-4.514,7,0,7c3.722,0,7.444,0,11.166,0
				C172.098,271.584,172.098,264.584,167.584,264.584L167.584,264.584z"/>
		</g>
	</g>
	<g>
		<g>
			<path style="fill:#FFFFFF;" d="M210.666,267.786c-3.902,0-7.806,0-11.708,0c-4.514,0-4.514,7,0,7c3.902,0,7.806,0,11.708,0
				C215.18,274.786,215.18,267.786,210.666,267.786L210.666,267.786z"/>
		</g>
	</g>
	<g>
		<g>
			<path style="fill:#FFFFFF;" d="M192.001,278.584c-2,0-4,0-6,0c-1.908,0-3.5,1.592-3.5,3.5s1.592,3.5,3.5,3.5c2,0,4,0,6,0
				c1.908,0,3.5-1.592,3.5-3.5S193.909,278.584,192.001,278.584L192.001,278.584z"/>
		</g>
	</g>
	<g>
		<g>
			<path style="fill:#FFFFFF;" d="M146.902,279.786c5.333,0,10.667,0,16,0c4.514,0,4.514-7,0-7c-5.333,0-10.667,0-16,0
				C142.388,272.786,142.388,279.786,146.902,279.786L146.902,279.786z"/>
		</g>
	</g>
	<g>
		<g>
			<path style="fill:#FFFFFF;" d="M118.012,275.203c-3,0-6,0-9,0c-4.514,0-4.514,7,0,7c3,0,6,0,9,0
				C122.526,282.203,122.526,275.203,118.012,275.203L118.012,275.203z"/>
		</g>
	</g>
	<g>
		<g>
			<path style="fill:#FFFFFF;" d="M123.636,260.536c-1.083,0-2.167,0-3.25,0c-1.908,0-3.5,1.592-3.5,3.5s1.592,3.5,3.5,3.5
				c1.083,0,2.167,0,3.25,0c1.908,0,3.5-1.592,3.5-3.5S125.544,260.536,123.636,260.536L123.636,260.536z"/>
		</g>
	</g>
	<g>
		<g>
			<path style="fill:#FFFFFF;" d="M99.584,265.167c-2,0-4,0-6,0c-1.908,0-3.5,1.592-3.5,3.5s1.592,3.5,3.5,3.5c2,0,4,0,6,0
				c1.908,0,3.5-1.592,3.5-3.5S101.492,265.167,99.584,265.167L99.584,265.167z"/>
		</g>
	</g>
	<g>
		<g>
			<path style="fill:#FFFFFF;" d="M87.26,281.035c-1.833,0-3.667,0-5.5,0c-1.908,0-3.5,1.592-3.5,3.5s1.592,3.5,3.5,3.5
				c1.833,0,3.667,0,5.5,0c1.908,0,3.5-1.592,3.5-3.5S89.168,281.035,87.26,281.035L87.26,281.035z"/>
		</g>
	</g>
	<g>
		<g>
			<path style="fill:#FFFFFF;" d="M189.416,270.89c5.083,0,10.167,0,15.25,0c4.514,0,4.514-7,0-7c-5.083,0-10.167,0-15.25,0
				C184.902,263.89,184.902,270.89,189.416,270.89L189.416,270.89z"/>
		</g>
	</g>
	<g>
		<g>
			<path style="fill:#FFFFFF;" d="M143.083,281.917c-0.667,0-1.333,0-2,0c-1.908,0-3.5,1.592-3.5,3.5s1.592,3.5,3.5,3.5
				c0.667,0,1.333,0,2,0c1.908,0,3.5-1.592,3.5-3.5S144.991,281.917,143.083,281.917L143.083,281.917z"/>
		</g>
	</g>
	<g>
		<g>
			<path style="fill:#FFFFFF;" d="M146.833,271.723c-0.667,0-1.333,0-2,0c-1.908,0-3.5,1.592-3.5,3.5s1.592,3.5,3.5,3.5
				c0.667,0,1.333,0,2,0c1.908,0,3.5-1.592,3.5-3.5S148.741,271.723,146.833,271.723L146.833,271.723z"/>
		</g>
	</g>
	<g>
		<g>
			<path style="fill:#FFFFFF;" d="M105.261,291.619c1.833,0,3.667,0,5.5,0c1.908,0,3.5-1.592,3.5-3.5s-1.592-3.5-3.5-3.5
				c-1.833,0-3.667,0-5.5,0c-1.908,0-3.5,1.592-3.5,3.5S103.354,291.619,105.261,291.619L105.261,291.619z"/>
		</g>
	</g>
	<g>
		<g>
			<path style="fill:#FFFFFF;" d="M73.332,290.667c0.667,0,1.333,0,2,0c1.908,0,3.5-1.592,3.5-3.5s-1.592-3.5-3.5-3.5
				c-0.667,0-1.333,0-2,0c-1.908,0-3.5,1.592-3.5,3.5S71.424,290.667,73.332,290.667L73.332,290.667z"/>
		</g>
	</g>
	<g>
		<g>
			<path style="fill:#FFFFFF;" d="M92.583,281.953c0.667,0,1.333,0,2,0c1.908,0,3.5-1.592,3.5-3.5s-1.592-3.5-3.5-3.5
				c-0.667,0-1.333,0-2,0c-1.908,0-3.5,1.592-3.5,3.5S90.675,281.953,92.583,281.953L92.583,281.953z"/>
		</g>
	</g>
	<g>
		<g>
			<path style="fill:#FFFFFF;" d="M103.833,272.89c-1.833,0-3.667,0-5.5,0c-1.908,0-3.5,1.592-3.5,3.5s1.592,3.5,3.5,3.5
				c1.833,0,3.667,0,5.5,0c1.908,0,3.5-1.592,3.5-3.5S105.741,272.89,103.833,272.89L103.833,272.89z"/>
		</g>
	</g>
	<g>
		<g>
			<path style="fill:#FFFFFF;" d="M250.834,283.292c0.667,0,1.333,0,2,0c1.908,0,3.5-1.592,3.5-3.5s-1.592-3.5-3.5-3.5
				c-0.667,0-1.333,0-2,0c-1.908,0-3.5,1.592-3.5,3.5S248.926,283.292,250.834,283.292L250.834,283.292z"/>
		</g>
	</g>
	<g>
		<g>
			<path style="fill:#FFFFFF;" d="M211.5,272.89c-3.722,0-7.444,0-11.166,0c-4.514,0-4.514,7,0,7c3.722,0,7.444,0,11.166,0
				C216.014,279.89,216.014,272.89,211.5,272.89L211.5,272.89z"/>
		</g>
	</g>
	<g>
		<g>
			<path style="fill:#FFFFFF;" d="M83.166,259.953c-3.278,0-6.556,0-9.833,0c-4.514,0-4.514,7,0,7c3.278,0,6.556,0,9.833,0
				C87.68,266.953,87.68,259.953,83.166,259.953L83.166,259.953z"/>
		</g>
	</g>
	<g>
		<g>
			<path style="fill:#FFFFFF;" d="M140.46,280.584c-3.722,0-7.444,0-11.166,0c-4.514,0-4.514,7,0,7c3.722,0,7.444,0,11.166,0
				C144.975,287.584,144.975,280.584,140.46,280.584L140.46,280.584z"/>
		</g>
	</g>
	<g>
		<g>
			<g>
				<path style="fill:#FFFFFF;" d="M177.973,78.96c27.878,21.144,55.757,42.288,83.636,63.431c0.841-3.106,1.683-6.211,2.523-9.317
					c-27.815,0-55.63,0-83.445,0c-6.449,0-6.449,10,0,10c27.815,0,55.63,0,83.445,0c5.402,0,6.252-6.489,2.523-9.317
					c-27.879-21.144-55.758-42.288-83.636-63.431C177.878,66.426,172.906,75.117,177.973,78.96L177.973,78.96z"/>
				<path style="fill:#FFFFFF;" d="M266.504,133.756c-27.741-21.144-55.482-42.287-83.223-63.431c-1.254-0.956-3.794-0.956-5.047,0
					c-27.741,21.144-55.482,42.287-83.223,63.431c-3.717,2.833-2.888,9.317,2.523,9.317c49.712,0,99.424,0,149.136,0
					c5.771,0,11.54,0,17.311,0c6.448,0,6.448-10,0-10c-49.712,0-99.424,0-149.136,0c-5.771,0-11.541,0-17.311,0
					c0.841,3.106,1.683,6.211,2.523,9.317c27.741-21.144,55.482-42.287,83.224-63.431c-1.683,0-3.365,0-5.047,0
					c27.741,21.144,55.482,42.287,83.223,63.431C266.588,146.302,271.561,137.61,266.504,133.756z"/>
			</g>
		</g>
		<g>
			<g>
				<path style="fill:#FFFFFF;" d="M244.573,247.7c0.119-0.612,2.896-0.431,0.289-0.431c-1.465,0-2.931,0-4.396,0
					c-5.082,0-10.163,0-15.244,0c-15.325,0-30.651,0-45.977,0c-15.068,0-30.137,0-45.206,0c-4.76,0-9.52,0-14.279,0
					c-1.186,0-2.373,0-3.559,0c-2.271,0,0.889,0.691,0.889,1.566c0-25.329,0-50.658,0-75.987c0-10.257,0-20.515,0-30.772
					c0-1.965-2.055,0.998-1.618,0.998c0.944,0,1.889,0,2.833,0c4.307,0,8.615,0,12.922,0c30.298,0,60.597,0,90.895,0
					c7.993,0,15.986,0,23.979,0c-1.115,0-1.707-3.007-1.707-0.8c0,1.486,0,2.973,0,4.459c0,5.506,0,11.013,0,16.519
					c0,28.592,0,57.185,0,85.776c0,6.448,10,6.448,10,0c0-24.153,0-48.307,0-72.46c0-11.19,0-22.38,0-33.57
					c0-4.965-2.501-9.925-8.223-9.925c-2.366,0-4.732,0-7.1,0c-28.961,0-57.922,0-86.883,0c-11.181,0-22.362,0-33.544,0
					c-3.674,0-7.627-0.144-9.954,3.425c-1.972,3.026-1.6,6.349-1.6,9.775c0,28.516,0,57.032,0,85.548
					c0,7.225-2.97,23.227,6.804,25.268c2.144,0.448,4.523,0.179,6.69,0.179c4.976,0,9.951,0,14.927,0c24.291,0,48.582,0,72.873,0
					c9.722,0,19.442,0,29.164,0c6.288,0,15.047,1.39,16.667-6.911C255.445,244.06,245.808,241.374,244.573,247.7z"/>
			</g>
		</g>
	</g>
	<g>
		<line style="fill:#FFFFFF;" x1="119.57" y1="195.172" x2="242.04" y2="195.172"/>
		<g>
			<path style="fill:#FFFFFF;" d="M119.57,196.672c40.823,0,81.646,0,122.47,0c1.935,0,1.935-3,0-3c-40.823,0-81.646,0-122.47,0
				C117.636,193.672,117.636,196.672,119.57,196.672L119.57,196.672z"/>
		</g>
	</g>
	<g id="DG_27_" style="display:none;">
		<path style="display:inline;fill:#FFFFFF;" d="M173.799,108.913c-0.4-0.773-0.947-1.393-1.64-1.86
			c-0.694-0.466-1.587-0.7-2.68-0.7c-0.214,0-0.454,0.007-0.72,0.02c-0.267,0.014-0.507,0.047-0.72,0.1v16.64
			c0.133,0.027,0.28,0.04,0.44,0.04s0.306,0,0.44,0c1.12,0,2.06-0.213,2.82-0.64c0.76-0.426,1.374-1.013,1.84-1.76
			c0.466-0.747,0.8-1.633,1-2.66c0.2-1.026,0.3-2.153,0.3-3.38c0-1.066-0.08-2.106-0.24-3.12
			C174.479,110.58,174.199,109.687,173.799,108.913z"/>
		<path style="display:inline;fill:#FFFFFF;" d="M237.064,125.276L182.939,84.5c-1.248-0.939-2.965-0.939-4.212,0l-54.125,40.776
			c-1.202,0.906-1.691,2.479-1.213,3.906s1.814,2.39,3.319,2.39h108.25c1.505,0,2.842-0.962,3.319-2.39
			S238.266,126.182,237.064,125.276z M179.019,120.573c-0.574,1.614-1.367,2.927-2.38,3.94c-1.014,1.014-2.22,1.754-3.62,2.22
			s-2.94,0.7-4.62,0.7c-0.88,0-1.74-0.047-2.58-0.14c-0.84-0.094-1.74-0.247-2.7-0.46v-24.16c1.12-0.24,2.173-0.4,3.16-0.48
			c0.986-0.08,1.906-0.12,2.76-0.12c1.626,0,3.113,0.24,4.46,0.72c1.346,0.48,2.486,1.233,3.42,2.26
			c0.933,1.027,1.66,2.334,2.18,3.92c0.52,1.587,0.78,3.5,0.78,5.74C179.879,117.007,179.592,118.96,179.019,120.573z
			 M188.439,121.253c0.933,1.4,2.306,2.1,4.119,2.1c0.293,0,0.613-0.013,0.961-0.04c0.346-0.026,0.666-0.066,0.959-0.12v-9.04h4.92
			v12.36c-0.586,0.214-1.5,0.454-2.739,0.72c-1.24,0.266-2.74,0.4-4.5,0.4c-1.547,0-2.94-0.274-4.181-0.82
			c-1.24-0.546-2.299-1.36-3.18-2.44c-0.88-1.08-1.561-2.426-2.04-4.04c-0.479-1.613-0.72-3.486-0.72-5.62
			c0-2.106,0.279-3.966,0.84-5.58c0.561-1.613,1.32-2.966,2.28-4.06c0.96-1.093,2.093-1.913,3.399-2.46
			c1.307-0.546,2.707-0.82,4.2-0.82c0.96,0,1.82,0.074,2.58,0.22c0.761,0.147,1.42,0.314,1.979,0.5
			c0.561,0.187,1.021,0.387,1.381,0.6c0.359,0.214,0.633,0.374,0.82,0.48l-1.281,3.92c-0.586-0.373-1.307-0.706-2.159-1
			c-0.854-0.293-1.733-0.44-2.64-0.44c-1.174,0-2.16,0.214-2.961,0.64c-0.799,0.427-1.459,1.02-1.979,1.78
			c-0.521,0.76-0.894,1.667-1.12,2.72c-0.227,1.054-0.34,2.22-0.34,3.5C187.039,117.673,187.506,119.854,188.439,121.253z"/>
	</g>
	<g id="OG_22_">
		<path style="fill:#FFFFFF;" d="M174.156,162.028c-0.28-0.773-0.674-1.386-1.18-1.84c-0.507-0.453-1.187-0.68-2.04-0.68
			c-0.854,0-1.534,0.227-2.04,0.68c-0.507,0.454-0.9,1.074-1.18,1.86c-0.28,0.787-0.467,1.7-0.56,2.74
			c-0.094,1.04-0.14,2.16-0.14,3.36c0,1.2,0.046,2.327,0.14,3.38c0.093,1.054,0.28,1.967,0.56,2.74
			c0.28,0.773,0.673,1.387,1.18,1.84c0.506,0.454,1.187,0.68,2.04,0.68c0.826,0,1.5-0.227,2.02-0.68c0.52-0.453,0.92-1.073,1.2-1.86
			c0.28-0.787,0.466-1.7,0.56-2.74c0.093-1.04,0.14-2.16,0.14-3.36c0-1.2-0.047-2.326-0.14-3.38
			C174.622,163.715,174.436,162.802,174.156,162.028z"/>
		<path style="fill:#FFFFFF;" d="M238.441,145.413H123.399c-2.179,0-3.945,1.825-3.945,4.076v38.269
			c0,2.251,1.766,4.076,3.945,4.076h115.042c2.18,0,3.945-1.825,3.945-4.076v-38.269
			C242.387,147.238,240.621,145.413,238.441,145.413z M177.536,177.808c-1.547,2.174-3.734,3.26-6.56,3.26
			c-2.907,0-5.127-1.086-6.66-3.26c-1.534-2.173-2.3-5.393-2.3-9.66c0-4.266,0.786-7.486,2.36-9.66c1.573-2.173,3.76-3.26,6.56-3.26
			c2.906,0,5.12,1.087,6.64,3.26c1.52,2.174,2.28,5.394,2.28,9.66C179.855,172.415,179.082,175.635,177.536,177.808z
			 M188.416,174.688c0.933,1.4,2.306,2.1,4.119,2.1c0.293,0,0.613-0.013,0.961-0.04c0.346-0.026,0.666-0.066,0.959-0.12v-9.04h4.92
			v12.36c-0.586,0.214-1.5,0.454-2.739,0.72c-1.24,0.266-2.74,0.4-4.5,0.4c-1.547,0-2.94-0.274-4.181-0.82
			c-1.24-0.546-2.299-1.36-3.18-2.44c-0.88-1.08-1.561-2.426-2.04-4.04c-0.479-1.613-0.72-3.486-0.72-5.62
			c0-2.106,0.279-3.966,0.84-5.58c0.561-1.613,1.32-2.966,2.28-4.06c0.96-1.093,2.093-1.913,3.399-2.46
			c1.307-0.546,2.707-0.82,4.2-0.82c0.96,0,1.82,0.074,2.58,0.22c0.761,0.147,1.42,0.314,1.979,0.5
			c0.561,0.187,1.021,0.387,1.381,0.6c0.359,0.214,0.633,0.374,0.82,0.48l-1.281,3.92c-0.586-0.373-1.307-0.706-2.159-1
			c-0.854-0.293-1.733-0.44-2.64-0.44c-1.174,0-2.16,0.214-2.961,0.64c-0.799,0.427-1.459,1.02-1.979,1.78
			c-0.521,0.76-0.894,1.667-1.12,2.72c-0.227,1.054-0.34,2.22-0.34,3.5C187.016,171.108,187.482,173.289,188.416,174.688z"/>
	</g>
	<path id="EG_32_" style="display:none;fill:#FFFFFF;" d="M238.441,198.752H123.399c-2.179,0-3.945,1.826-3.945,4.076v38.27
		c0,2.25,1.766,4.076,3.945,4.076h115.042c2.18,0,3.945-1.826,3.945-4.076v-38.27C242.387,200.578,240.621,198.752,238.441,198.752z
		 M179.335,234.208h-15.88v-24.76h15v4.079h-10.08v5.561h8.76v4.08h-8.76v6.96h10.96V234.208z M188.416,228.348
		c0.933,1.4,2.306,2.101,4.119,2.101c0.293,0,0.613-0.013,0.961-0.04c0.346-0.026,0.666-0.066,0.959-0.12v-9.04h4.92v12.359
		c-0.586,0.215-1.5,0.454-2.739,0.721c-1.24,0.266-2.74,0.4-4.5,0.4c-1.547,0-2.94-0.274-4.181-0.82
		c-1.24-0.547-2.299-1.36-3.18-2.44c-0.88-1.079-1.561-2.426-2.04-4.04c-0.479-1.613-0.72-3.486-0.72-5.619
		c0-2.107,0.279-3.967,0.84-5.58s1.32-2.967,2.28-4.061s2.093-1.913,3.399-2.46c1.307-0.546,2.707-0.819,4.2-0.819
		c0.96,0,1.82,0.073,2.58,0.219c0.761,0.147,1.42,0.314,1.979,0.5c0.561,0.188,1.021,0.388,1.381,0.601
		c0.359,0.214,0.633,0.374,0.82,0.479l-1.281,3.92c-0.586-0.373-1.307-0.705-2.159-1c-0.854-0.293-1.733-0.439-2.64-0.439
		c-1.174,0-2.16,0.214-2.961,0.641c-0.799,0.426-1.459,1.02-1.979,1.779s-0.894,1.667-1.12,2.721c-0.227,1.053-0.34,2.219-0.34,3.5
		C187.016,224.768,187.482,226.948,188.416,228.348z"/>
	<g>
		<g>
			<path style="fill:#FFFFFF;" d="M98.499,249.953c-3.278,0-6.556,0-9.833,0c-4.514,0-4.514,7,0,7c3.278,0,6.556,0,9.833,0
				C103.013,256.953,103.013,249.953,98.499,249.953L98.499,249.953z"/>
		</g>
	</g>
	<g>
		<g>
			<path style="fill:#FFFFFF;" d="M95.444,262.834c0.667,0,1.333,0,2,0c1.908,0,3.5-1.592,3.5-3.5s-1.592-3.5-3.5-3.5
				c-0.667,0-1.333,0-2,0c-1.908,0-3.5,1.592-3.5,3.5S93.536,262.834,95.444,262.834L95.444,262.834z"/>
		</g>
	</g>
	<g>
		<g>
			<path style="fill:#FFFFFF;" d="M260.237,254.578c-0.667,0-1.333,0-2,0c-1.908,0-3.5,1.592-3.5,3.5s1.592,3.5,3.5,3.5
				c0.667,0,1.333,0,2,0c1.908,0,3.5-1.592,3.5-3.5S262.146,254.578,260.237,254.578L260.237,254.578z"/>
		</g>
	</g>
</g>
<g id="Ebene_1">
</g>
</svg>
