<?xml version="1.0" encoding="iso-8859-1"?>
<!-- Generator: Adobe Illustrator 16.0.0, SVG Export Plug-In . SVG Version: 6.00 Build 0)  -->
<!DOCTYPE svg PUBLIC "-//W3C//DTD SVG 1.1 Tiny//EN" "http://www.w3.org/Graphics/SVG/1.1/DTD/svg11-tiny.dtd">
<svg version="1.1" baseProfile="tiny" id="control_x5F_building_x5F_modern_x5F_s_x5F_okg_x5F_dg"
	 xmlns="http://www.w3.org/2000/svg" xmlns:xlink="http://www.w3.org/1999/xlink" x="0px" y="0px" width="361px" height="361px"
	 viewBox="0 0 361 361" xml:space="preserve">
<g id="OG_11_" display="none">
	<path display="inline" fill="#FFFFFF" d="M163.411,160.85c-0.338-0.933-0.813-1.673-1.424-2.22
		c-0.612-0.547-1.433-0.821-2.462-0.821s-1.851,0.274-2.462,0.821c-0.612,0.547-1.086,1.296-1.424,2.245
		c-0.337,0.95-0.563,2.052-0.675,3.307c-0.113,1.254-0.169,2.606-0.169,4.055c0,1.448,0.056,2.808,0.169,4.079
		c0.112,1.272,0.338,2.374,0.675,3.307c0.338,0.934,0.813,1.674,1.424,2.221c0.611,0.547,1.432,0.821,2.462,0.821
		c0.998,0,1.811-0.273,2.438-0.821c0.628-0.547,1.11-1.295,1.449-2.245c0.337-0.95,0.562-2.052,0.675-3.307
		c0.112-1.255,0.169-2.607,0.169-4.055c0-1.448-0.057-2.807-0.169-4.079C163.973,162.886,163.748,161.784,163.411,160.85z"/>
	<path display="inline" fill="#FFFFFF" d="M240.996,143.211H102.154c-2.629,0-4.761,2.203-4.761,4.919v38.945
		c0,2.716,2.131,4.919,4.761,4.919h138.842c2.629,0,4.761-2.203,4.761-4.919V148.13
		C245.757,145.414,243.625,143.211,240.996,143.211z M167.49,179.894c-1.867,2.624-4.506,3.935-7.917,3.935
		c-3.508,0-6.188-1.311-8.038-3.935c-1.851-2.623-2.776-6.509-2.776-11.658c0-5.148,0.949-9.035,2.848-11.659
		c1.899-2.622,4.538-3.934,7.917-3.934c3.508,0,6.18,1.312,8.014,3.934c1.834,2.624,2.751,6.51,2.751,11.659
		C170.29,173.385,169.356,177.271,167.49,179.894z M180.62,176.129c1.126,1.689,2.784,2.535,4.973,2.535
		c0.354,0,0.74-0.016,1.159-0.048c0.417-0.032,0.804-0.08,1.158-0.145v-10.91h5.938v14.917c-0.708,0.258-1.811,0.547-3.307,0.869
		c-1.497,0.321-3.307,0.482-5.431,0.482c-1.867,0-3.549-0.331-5.045-0.989c-1.497-0.66-2.776-1.642-3.838-2.945
		c-1.062-1.303-1.883-2.928-2.462-4.875c-0.579-1.947-0.869-4.208-0.869-6.783c0-2.542,0.337-4.787,1.014-6.734
		c0.676-1.947,1.593-3.58,2.752-4.9c1.159-1.319,2.526-2.309,4.103-2.969c1.577-0.66,3.266-0.99,5.069-0.99
		c1.158,0,2.197,0.089,3.114,0.265c0.917,0.178,1.713,0.379,2.39,0.604c0.676,0.226,1.231,0.467,1.666,0.724
		c0.434,0.258,0.764,0.451,0.989,0.58l-1.545,4.731c-0.708-0.45-1.577-0.853-2.606-1.207c-1.03-0.354-2.092-0.531-3.186-0.531
		c-1.417,0-2.607,0.258-3.572,0.772c-0.965,0.515-1.762,1.231-2.39,2.148c-0.627,0.917-1.079,2.012-1.352,3.283
		c-0.273,1.272-0.41,2.679-0.41,4.224C178.931,171.808,179.494,174.439,180.62,176.129z"/>
</g>
<path id="EG_23_" display="none" fill="#FFFFFF" d="M241.123,198.711H102.027c-2.634,0-4.77,2.238-4.77,4.997v39.564
	c0,2.759,2.136,4.997,4.77,4.997h139.096c2.634,0,4.77-2.238,4.77-4.997v-39.564C245.893,200.949,243.757,198.711,241.123,198.711z
	 M169.659,238.503h-19.2v-30.357h18.136v5.002h-12.187v6.817h10.592v5.003h-10.592v8.533h13.251V238.503z M180.637,231.319
	c1.128,1.716,2.788,2.575,4.981,2.575c0.354,0,0.741-0.016,1.16-0.049c0.419-0.032,0.806-0.081,1.161-0.147v-11.084h5.949v15.154
	c-0.709,0.262-1.814,0.556-3.313,0.883c-1.499,0.326-3.313,0.49-5.441,0.49c-1.87,0-3.555-0.336-5.054-1.005
	c-1.5-0.67-2.781-1.668-3.845-2.992c-1.064-1.324-1.887-2.975-2.467-4.953c-0.581-1.979-0.87-4.274-0.87-6.891
	c0-2.583,0.338-4.863,1.016-6.842c0.677-1.978,1.596-3.637,2.757-4.978c1.161-1.34,2.531-2.346,4.111-3.016
	c1.58-0.67,3.271-1.005,5.078-1.005c1.161,0,2.201,0.09,3.119,0.269c0.919,0.18,1.717,0.385,2.394,0.613
	c0.677,0.229,1.233,0.475,1.669,0.736c0.435,0.262,0.765,0.458,0.991,0.588l-1.548,4.807c-0.708-0.458-1.579-0.866-2.611-1.226
	c-1.033-0.359-2.096-0.539-3.192-0.539c-1.419,0-2.612,0.262-3.579,0.784c-0.967,0.523-1.765,1.251-2.394,2.182
	c-0.628,0.933-1.08,2.044-1.354,3.335c-0.274,1.292-0.411,2.722-0.411,4.292C178.944,226.93,179.508,229.603,180.637,231.319z"/>
<g id="Haus_25_">
	<g>
		<path fill="#FFFFFF" d="M249.327,250.201c-0.035,0.221,1.911,0.219-0.118,0.219c-1.248,0-2.495,0-3.743,0
			c-4.423,0-8.846,0-13.269,0c-14.202,0-28.403,0-42.604,0c-28.882,0-57.764,0-86.646,0c-2.957,0-5.914,0-8.871,0
			c-1.925,0,0.246-0.169,0.246,1.07c0-0.705,0-1.409,0-2.114c0-10.373,0-20.746,0-31.119c0-29.572,0-59.144,0-88.716
			c0-3.253,0-6.506,0-9.759c-0.826,1.439-1.651,2.878-2.477,4.317c16.27-10.881,32.54-21.762,48.81-32.643
			c-1.284,0.168-2.568,0.336-3.853,0.504c22.513,6.812,45.025,13.624,67.538,20.436c12.698,3.842,25.396,7.685,38.093,11.526
			c2.205,0.667,4.41,1.334,6.615,2.001c0.012,0.004,0.101-1.634,0.101,0.295c0,1.441,0,2.882,0,4.324c0,40.329,0,80.658,0,120.987
			c0,6.449,10,6.449,10,0c0-22.752,0-45.505,0-68.257c0-14.604,0-29.209,0-43.814c0-7.245,2.557-21.508-7.432-23.174
			c-7.365-1.229-14.902-4.509-22.032-6.667c-15.168-4.59-30.337-9.18-45.506-13.77c-12.698-3.842-25.396-7.685-38.093-11.526
			c-2.205-0.667-4.41-1.334-6.615-2.002c-3.545-1.072-8.092,3.329-10.733,5.096c-12.252,8.194-24.505,16.388-36.758,24.583
			c-2.774,1.855-7.658,4.032-7.658,7.873c0,2.356,0,4.713,0,7.069c0,28.944,0,57.888,0,86.832c0,11.332,0,22.664,0,33.996
			c0,3.298-0.321,6.997,2.19,9.594c2.778,2.873,5.862,3.057,9.465,3.057c25.586,0,51.172,0,76.758,0c18.905,0,37.81,0,56.714,0
			c5.697,0,11.395,0,17.092,0c5.491,0,11.368-0.757,12.428-7.561C259.953,246.553,250.317,243.844,249.327,250.201z"/>
	</g>
	<g>
		<line fill="#FFFFFF" x1="98.7" y1="195.249" x2="245.719" y2="195.249"/>
		<g>
			<path fill="#FFFFFF" d="M98.7,196.749c47.763,0,95.526,0,143.29,0c1.243,0,2.487,0,3.73,0c1.935,0,1.935-3,0-3
				c-47.763,0-95.526,0-143.29,0c-1.243,0-2.487,0-3.73,0C96.765,193.749,96.765,196.749,98.7,196.749L98.7,196.749z"/>
		</g>
	</g>
	<g>
		<line fill="#FFFFFF" x1="98.7" y1="140.431" x2="245.719" y2="140.431"/>
		<g>
			<path fill="#FFFFFF" d="M98.7,141.931c47.763,0,95.526,0,143.29,0c1.243,0,2.487,0,3.73,0c1.935,0,1.935-3,0-3
				c-47.763,0-95.526,0-143.29,0c-1.243,0-2.487,0-3.73,0C96.765,138.931,96.765,141.931,98.7,141.931L98.7,141.931z"/>
		</g>
	</g>
	<g>
		<path fill="#FFFFFF" d="M75.088,135.061c26.285-17.613,52.57-35.226,78.855-52.838c5.327-3.569,0.327-12.236-5.047-8.635
			c-26.285,17.613-52.57,35.226-78.855,52.838C64.714,129.995,69.714,138.662,75.088,135.061L75.088,135.061z"/>
	</g>
	<g>
		<path fill="#FFFFFF" d="M141.163,93.098c45.313,13.466,90.625,26.932,135.938,40.398c0.805,0.239,1.61,0.478,2.415,0.717
			c6.197,1.842,8.825-7.81,2.658-9.643c-45.313-13.466-90.625-26.932-135.938-40.398c-0.805-0.239-1.61-0.478-2.415-0.717
			C137.624,81.614,134.996,91.266,141.163,93.098L141.163,93.098z"/>
	</g>
</g>
<g id="DG_12_">
	<path fill="#FFFFFF" d="M138.928,112.638c-0.457-0.881-1.08-1.588-1.871-2.121c-0.791-0.532-1.81-0.798-3.056-0.798
		c-0.244,0-0.518,0.008-0.821,0.023c-0.305,0.016-0.578,0.053-0.821,0.114v18.977c0.152,0.03,0.319,0.045,0.501,0.045
		c0.183,0,0.35,0,0.502,0c1.277,0,2.349-0.243,3.216-0.73c0.866-0.486,1.565-1.155,2.098-2.007c0.532-0.851,0.913-1.862,1.141-3.033
		s0.342-2.456,0.342-3.855c0-1.216-0.091-2.402-0.273-3.559C139.704,114.539,139.384,113.521,138.928,112.638z"/>
	<path fill="#FFFFFF" d="M241.612,125.691c0,0-97.925-29.367-99.308-29.78c-1.738-0.52-3.973-0.219-4.746,0.3
		c-0.904,0.607-35.364,23.479-35.364,23.479c-4.802,3.201-4.802,3.35-4.802,6.002v6.803c0,2.651,2.15,4.802,4.802,4.802h139.417
		c2.652,0,4.802-2.15,4.802-4.802v-2.001C246.414,127.842,245.019,127.015,241.612,125.691z M144.881,125.936
		c-0.655,1.84-1.559,3.337-2.714,4.493c-1.156,1.157-2.532,2.001-4.128,2.532c-1.597,0.532-3.353,0.798-5.269,0.798
		c-1.003,0-1.984-0.054-2.942-0.16c-0.958-0.107-1.985-0.281-3.08-0.525v-27.552c1.278-0.274,2.479-0.457,3.604-0.548
		c1.125-0.091,2.174-0.137,3.147-0.137c1.854,0,3.55,0.273,5.086,0.821c1.535,0.548,2.835,1.407,3.9,2.578
		c1.064,1.171,1.893,2.662,2.486,4.471c0.593,1.81,0.89,3.991,0.89,6.546C145.862,121.869,145.535,124.096,144.881,125.936z
		 M155.624,126.711c1.064,1.597,2.63,2.395,4.699,2.395c0.334,0,0.699-0.015,1.095-0.046c0.395-0.03,0.76-0.075,1.095-0.137v-10.31
		h5.611v14.096c-0.669,0.244-1.711,0.517-3.125,0.82c-1.415,0.304-3.125,0.457-5.132,0.457c-1.765,0-3.353-0.313-4.768-0.936
		c-1.414-0.622-2.623-1.551-3.626-2.782s-1.779-2.767-2.327-4.607c-0.547-1.84-0.821-3.976-0.821-6.409
		c0-2.402,0.319-4.523,0.958-6.364c0.639-1.839,1.505-3.383,2.601-4.63c1.094-1.247,2.387-2.182,3.877-2.806
		c1.489-0.623,3.086-0.936,4.79-0.936c1.095,0,2.075,0.084,2.942,0.251c0.866,0.167,1.619,0.358,2.258,0.57
		c0.639,0.213,1.164,0.441,1.574,0.685c0.411,0.244,0.722,0.426,0.935,0.547l-1.459,4.471c-0.669-0.425-1.491-0.805-2.464-1.14
		c-0.974-0.334-1.977-0.501-3.01-0.501c-1.339,0-2.463,0.243-3.376,0.729c-0.912,0.487-1.665,1.163-2.258,2.03
		c-0.593,0.867-1.019,1.901-1.277,3.102c-0.259,1.202-0.388,2.532-0.388,3.992C154.027,122.629,154.559,125.115,155.624,126.711z"/>
</g>
<g id="Erde_7_">
	<g>
		<path fill="#FFFFFF" d="M263.149,253.469c8.264,0,16.527,0,24.791,0c1.935,0,1.935-3,0-3c-8.264,0-16.527,0-24.791,0
			C261.214,250.469,261.214,253.469,263.149,253.469L263.149,253.469z"/>
	</g>
	<g>
		<path fill="#FFFFFF" d="M280.873,284.664c1.531,0,3.063,0,4.594,0c1.908,0,3.5-1.592,3.5-3.5s-1.592-3.5-3.5-3.5
			c-1.531,0-3.063,0-4.594,0c-1.908,0-3.5,1.592-3.5,3.5S278.965,284.664,280.873,284.664L280.873,284.664z"/>
	</g>
	<g>
		<path fill="#FFFFFF" d="M254.148,294.664c5.333,0,10.667,0,16,0c4.514,0,4.514-7,0-7c-5.333,0-10.667,0-16,0
			C249.634,287.664,249.634,294.664,254.148,294.664L254.148,294.664z"/>
	</g>
	<g>
		<path fill="#FFFFFF" d="M265.732,288.664c2,0,4,0,6,0c1.908,0,3.5-1.592,3.5-3.5s-1.592-3.5-3.5-3.5c-2,0-4,0-6,0
			c-1.908,0-3.5,1.592-3.5,3.5S263.825,288.664,265.732,288.664L265.732,288.664z"/>
	</g>
	<g>
		<path fill="#FFFFFF" d="M284.066,294.664c0.667,0,1.333,0,2,0c1.908,0,3.5-1.592,3.5-3.5s-1.592-3.5-3.5-3.5c-0.667,0-1.333,0-2,0
			c-1.908,0-3.5,1.592-3.5,3.5S282.158,294.664,284.066,294.664L284.066,294.664z"/>
	</g>
	<g>
		<path fill="#FFFFFF" d="M265.148,274.352c-2,0-4,0-6,0c-1.908,0-3.5,1.592-3.5,3.5s1.592,3.5,3.5,3.5c2,0,4,0,6,0
			c1.908,0,3.5-1.592,3.5-3.5S267.056,274.352,265.148,274.352L265.148,274.352z"/>
	</g>
	<g>
		<path fill="#FFFFFF" d="M263.148,260.331c-0.667,0-1.333,0-2,0c-1.908,0-3.5,1.592-3.5,3.5s1.592,3.5,3.5,3.5c0.667,0,1.333,0,2,0
			c1.908,0,3.5-1.592,3.5-3.5S265.056,260.331,263.148,260.331L263.148,260.331z"/>
	</g>
	<g>
		<path fill="#FFFFFF" d="M286.315,260.831c-5.333,0-10.667,0-16,0c-4.514,0-4.514,7,0,7c5.333,0,10.667,0,16,0
			C290.83,267.831,290.83,260.831,286.315,260.831L286.315,260.831z"/>
	</g>
	<g>
		<path fill="#FFFFFF" d="M282.316,268.831c-5.083,0-10.167,0-15.25,0c-4.514,0-4.514,7,0,7c5.083,0,10.167,0,15.25,0
			C286.83,275.831,286.83,268.831,282.316,268.831L282.316,268.831z"/>
	</g>
	<g>
		<path fill="#FFFFFF" d="M285.649,254.831c-2,0-4,0-6,0c-1.908,0-3.5,1.592-3.5,3.5s1.592,3.5,3.5,3.5c2,0,4,0,6,0
			c1.908,0,3.5-1.592,3.5-3.5S287.557,254.831,285.649,254.831L285.649,254.831z"/>
	</g>
	<g>
		<path fill="#FFFFFF" d="M271.316,252.831c-2,0-4,0-6,0c-1.908,0-3.5,1.592-3.5,3.5s1.592,3.5,3.5,3.5c2,0,4,0,6,0
			c1.908,0,3.5-1.592,3.5-3.5S273.224,252.831,271.316,252.831L271.316,252.831z"/>
	</g>
	<g>
		<path fill="#FFFFFF" d="M253.585,266.768c-2,0-4,0-6,0c-1.908,0-3.5,1.592-3.5,3.5s1.592,3.5,3.5,3.5c2,0,4,0,6,0
			c1.908,0,3.5-1.592,3.5-3.5S255.493,266.768,253.585,266.768L253.585,266.768z"/>
	</g>
	<g>
		<path fill="#FFFFFF" d="M285.315,272.831c-0.222,0-0.444,0-0.666,0c-1.908,0-3.5,1.592-3.5,3.5s1.592,3.5,3.5,3.5
			c0.222,0,0.444,0,0.666,0c1.908,0,3.5-1.592,3.5-3.5S287.223,272.831,285.315,272.831L285.315,272.831z"/>
	</g>
	<g>
		<path fill="#FFFFFF" d="M71.231,285.768c2.337,0,4.673,0,7.01,0c4.514,0,4.514-7,0-7c-2.337,0-4.673,0-7.01,0
			C66.717,278.768,66.717,285.768,71.231,285.768L71.231,285.768z"/>
	</g>
	<g>
		<path fill="#FFFFFF" d="M97.752,282.768c2.581,0,5.161,0,7.741,0c4.514,0,4.514-7,0-7c-2.581,0-5.161,0-7.741,0
			C93.238,275.768,93.238,282.768,97.752,282.768L97.752,282.768z"/>
	</g>
	<g>
		<path fill="#FFFFFF" d="M94.316,271.768c5.083,0,10.167,0,15.25,0c4.514,0,4.514-7,0-7c-5.083,0-10.167,0-15.25,0
			C89.802,264.768,89.802,271.768,94.316,271.768L94.316,271.768z"/>
	</g>
	<g>
		<path fill="#FFFFFF" d="M119.551,294.664c2,0,4,0,6,0c1.908,0,3.5-1.592,3.5-3.5s-1.592-3.5-3.5-3.5c-2,0-4,0-6,0
			c-1.908,0-3.5,1.592-3.5,3.5S117.643,294.664,119.551,294.664L119.551,294.664z"/>
	</g>
	<g>
		<path fill="#FFFFFF" d="M243.72,287.156c-3,0-6,0-9,0c-4.514,0-4.514,7,0,7c3,0,6,0,9,0
			C248.234,294.156,248.234,287.156,243.72,287.156L243.72,287.156z"/>
	</g>
	<g>
		<path fill="#FFFFFF" d="M256.719,271.156c-5.333,0-10.667,0-16,0c-4.514,0-4.514,7,0,7c5.333,0,10.667,0,16,0
			C261.233,278.156,261.233,271.156,256.719,271.156L256.719,271.156z"/>
	</g>
	<g>
		<path fill="#FFFFFF" d="M77.356,254.456c-2,0-4,0-6,0c-1.908,0-3.5,1.592-3.5,3.5s1.592,3.5,3.5,3.5c2,0,4,0,6,0
			c1.908,0,3.5-1.592,3.5-3.5S79.264,254.456,77.356,254.456L77.356,254.456z"/>
	</g>
	<g>
		<path fill="#FFFFFF" d="M237.969,263.414c-1.083,0-2.167,0-3.25,0c-1.908,0-3.5,1.592-3.5,3.5s1.592,3.5,3.5,3.5
			c1.083,0,2.167,0,3.25,0c1.908,0,3.5-1.592,3.5-3.5S239.877,263.414,237.969,263.414L237.969,263.414z"/>
	</g>
	<g>
		<path fill="#FFFFFF" d="M74.064,275.831c0.667,0,1.333,0,2,0c1.908,0,3.5-1.592,3.5-3.5s-1.592-3.5-3.5-3.5c-0.667,0-1.333,0-2,0
			c-1.908,0-3.5,1.592-3.5,3.5S72.157,275.831,74.064,275.831L74.064,275.831z"/>
	</g>
	<g>
		<path fill="#FFFFFF" d="M91.066,279.156c-0.667,0-1.333,0-2,0c-1.908,0-3.5,1.592-3.5,3.5s1.592,3.5,3.5,3.5c0.667,0,1.333,0,2,0
			c1.908,0,3.5-1.592,3.5-3.5S92.974,279.156,91.066,279.156L91.066,279.156z"/>
	</g>
	<g>
		<path fill="#FFFFFF" d="M68.897,253.469c3.639,0,7.278,0,10.917,0c1.935,0,1.935-3,0-3c-3.639,0-7.278,0-10.917,0
			C66.963,250.469,66.963,253.469,68.897,253.469L68.897,253.469z"/>
	</g>
	<g>
		<path fill="#FFFFFF" d="M193.646,287.664c-2,0-4,0-6,0c-1.908,0-3.5,1.592-3.5,3.5s1.592,3.5,3.5,3.5c2,0,4,0,6,0
			c1.908,0,3.5-1.592,3.5-3.5S195.554,287.664,193.646,287.664L193.646,287.664z"/>
	</g>
	<g>
		<path fill="#FFFFFF" d="M85.315,266.768c-1.833,0-3.667,0-5.5,0c-1.908,0-3.5,1.592-3.5,3.5s1.592,3.5,3.5,3.5
			c1.833,0,3.667,0,5.5,0c1.908,0,3.5-1.592,3.5-3.5S87.223,266.768,85.315,266.768L85.315,266.768z"/>
	</g>
	<g>
		<path fill="#FFFFFF" d="M169.982,269.831c3,0,6,0,9,0c4.514,0,4.514-7,0-7c-3,0-6,0-9,0
			C165.468,262.831,165.468,269.831,169.982,269.831L169.982,269.831z"/>
	</g>
	<g>
		<path fill="#FFFFFF" d="M203.398,294.699c5.333,0,10.667,0,16,0c4.514,0,4.514-7,0-7c-5.333,0-10.667,0-16,0
			C198.884,287.699,198.884,294.699,203.398,294.699L203.398,294.699z"/>
	</g>
	<g>
		<path fill="#FFFFFF" d="M218.857,280.607c2,0,4,0,6,0c1.908,0,3.5-1.592,3.5-3.5s-1.592-3.5-3.5-3.5c-2,0-4,0-6,0
			c-1.908,0-3.5,1.592-3.5,3.5S216.95,280.607,218.857,280.607L218.857,280.607z"/>
	</g>
	<g>
		<path fill="#FFFFFF" d="M212.691,290.914c0.667,0,1.333,0,2,0c1.908,0,3.5-1.592,3.5-3.5s-1.592-3.5-3.5-3.5c-0.667,0-1.333,0-2,0
			c-1.908,0-3.5,1.592-3.5,3.5S210.783,290.914,212.691,290.914L212.691,290.914z"/>
	</g>
	<g>
		<path fill="#FFFFFF" d="M211.232,267.462c-2,0-4,0-6,0c-1.908,0-3.5,1.592-3.5,3.5s1.592,3.5,3.5,3.5c2,0,4,0,6,0
			c1.908,0,3.5-1.592,3.5-3.5S213.14,267.462,211.232,267.462L211.232,267.462z"/>
	</g>
	<g>
		<path fill="#FFFFFF" d="M220.316,263.629c-5.083,0-10.167,0-15.25,0c-4.514,0-4.514,7,0,7c5.083,0,10.167,0,15.25,0
			C224.83,270.629,224.83,263.629,220.316,263.629L220.316,263.629z"/>
	</g>
	<g>
		<path fill="#FFFFFF" d="M231.315,281.462c-2,0-4,0-6,0c-1.908,0-3.5,1.592-3.5,3.5s1.592,3.5,3.5,3.5c2,0,4,0,6,0
			c1.908,0,3.5-1.592,3.5-3.5S233.223,281.462,231.315,281.462L231.315,281.462z"/>
	</g>
	<g>
		<path fill="#FFFFFF" d="M133.364,274.795c-3,0-6,0-9,0c-4.514,0-4.514,7,0,7c3,0,6,0,9,0
			C137.878,281.795,137.878,274.795,133.364,274.795L133.364,274.795z"/>
	</g>
	<g>
		<path fill="#FFFFFF" d="M150.218,263.427c-5.333,0-10.667,0-16,0c-4.514,0-4.514,7,0,7c5.333,0,10.667,0,16,0
			C154.732,270.427,154.732,263.427,150.218,263.427L150.218,263.427z"/>
	</g>
	<g>
		<path fill="#FFFFFF" d="M149.884,274.664c-2,0-4,0-6,0c-1.908,0-3.5,1.592-3.5,3.5s1.592,3.5,3.5,3.5c2,0,4,0,6,0
			c1.908,0,3.5-1.592,3.5-3.5S151.792,274.664,149.884,274.664L149.884,274.664z"/>
	</g>
	<g>
		<path fill="#FFFFFF" d="M136.551,268.664c-0.667,0-1.333,0-2,0c-1.908,0-3.5,1.592-3.5,3.5s1.592,3.5,3.5,3.5c0.667,0,1.333,0,2,0
			c1.908,0,3.5-1.592,3.5-3.5S138.458,268.664,136.551,268.664L136.551,268.664z"/>
	</g>
	<g>
		<path fill="#FFFFFF" d="M142.384,294.664c2,0,4,0,6,0c1.908,0,3.5-1.592,3.5-3.5s-1.592-3.5-3.5-3.5c-2,0-4,0-6,0
			c-1.908,0-3.5,1.592-3.5,3.5S140.477,294.664,142.384,294.664L142.384,294.664z"/>
	</g>
	<g>
		<path fill="#FFFFFF" d="M83.301,294.497c5.083,0,10.167,0,15.25,0c4.514,0,4.514-7,0-7c-5.083,0-10.167,0-15.25,0
			C78.787,287.497,78.787,294.497,83.301,294.497L83.301,294.497z"/>
	</g>
	<g>
		<path fill="#FFFFFF" d="M122.051,274.664c2,0,4,0,6,0c1.908,0,3.5-1.592,3.5-3.5s-1.592-3.5-3.5-3.5c-2,0-4,0-6,0
			c-1.908,0-3.5,1.592-3.5,3.5S120.144,274.664,122.051,274.664L122.051,274.664z"/>
	</g>
	<g>
		<path fill="#FFFFFF" d="M175.733,279.462c3,0,6,0,9,0c4.514,0,4.514-7,0-7c-3,0-6,0-9,0
			C171.219,272.462,171.219,279.462,175.733,279.462L175.733,279.462z"/>
	</g>
	<g>
		<path fill="#FFFFFF" d="M157.066,294.699c5.333,0,10.667,0,16,0c4.514,0,4.514-7,0-7c-5.333,0-10.667,0-16,0
			C152.552,287.699,152.552,294.699,157.066,294.699L157.066,294.699z"/>
	</g>
	<g>
		<path fill="#FFFFFF" d="M152.384,286.664c2,0,4,0,6,0c1.908,0,3.5-1.592,3.5-3.5s-1.592-3.5-3.5-3.5c-2,0-4,0-6,0
			c-1.908,0-3.5,1.592-3.5,3.5S150.477,286.664,152.384,286.664L152.384,286.664z"/>
	</g>
	<g>
		<path fill="#FFFFFF" d="M170.733,290.462c0.667,0,1.333,0,2,0c1.908,0,3.5-1.592,3.5-3.5s-1.592-3.5-3.5-3.5c-0.667,0-1.333,0-2,0
			c-1.908,0-3.5,1.592-3.5,3.5S168.826,290.462,170.733,290.462L170.733,290.462z"/>
	</g>
	<g>
		<path fill="#FFFFFF" d="M165.066,267.462c-3.722,0-7.444,0-11.166,0c-4.514,0-4.514,7,0,7c3.722,0,7.444,0,11.166,0
			C169.58,274.462,169.58,267.462,165.066,267.462L165.066,267.462z"/>
	</g>
	<g>
		<path fill="#FFFFFF" d="M208.147,270.664c-3.902,0-7.805,0-11.708,0c-4.514,0-4.514,7,0,7c3.902,0,7.805,0,11.708,0
			C212.662,277.664,212.662,270.664,208.147,270.664L208.147,270.664z"/>
	</g>
	<g>
		<path fill="#FFFFFF" d="M189.483,281.462c-2,0-4,0-6,0c-1.908,0-3.5,1.592-3.5,3.5s1.592,3.5,3.5,3.5c2,0,4,0,6,0
			c1.908,0,3.5-1.592,3.5-3.5S191.391,281.462,189.483,281.462L189.483,281.462z"/>
	</g>
	<g>
		<path fill="#FFFFFF" d="M144.384,282.664c5.333,0,10.667,0,16,0c4.514,0,4.514-7,0-7c-5.333,0-10.667,0-16,0
			C139.87,275.664,139.87,282.664,144.384,282.664L144.384,282.664z"/>
	</g>
	<g>
		<path fill="#FFFFFF" d="M115.494,278.081c-3,0-6,0-9,0c-4.514,0-4.514,7,0,7c3,0,6,0,9,0
			C120.008,285.081,120.008,278.081,115.494,278.081L115.494,278.081z"/>
	</g>
	<g>
		<path fill="#FFFFFF" d="M121.118,263.414c-1.083,0-2.167,0-3.25,0c-1.908,0-3.5,1.592-3.5,3.5s1.592,3.5,3.5,3.5
			c1.083,0,2.167,0,3.25,0c1.908,0,3.5-1.592,3.5-3.5S123.026,263.414,121.118,263.414L121.118,263.414z"/>
	</g>
	<g>
		<path fill="#FFFFFF" d="M97.066,268.045c-2,0-4,0-6,0c-1.908,0-3.5,1.592-3.5,3.5s1.592,3.5,3.5,3.5c2,0,4,0,6,0
			c1.908,0,3.5-1.592,3.5-3.5S98.974,268.045,97.066,268.045L97.066,268.045z"/>
	</g>
	<g>
		<path fill="#FFFFFF" d="M84.742,283.914c-1.833,0-3.667,0-5.5,0c-1.908,0-3.5,1.592-3.5,3.5s1.592,3.5,3.5,3.5
			c1.833,0,3.667,0,5.5,0c1.908,0,3.5-1.592,3.5-3.5S86.65,283.914,84.742,283.914L84.742,283.914z"/>
	</g>
	<g>
		<path fill="#FFFFFF" d="M186.897,273.768c5.083,0,10.167,0,15.25,0c4.514,0,4.514-7,0-7c-5.083,0-10.167,0-15.25,0
			C182.383,266.768,182.383,273.768,186.897,273.768L186.897,273.768z"/>
	</g>
	<g>
		<path fill="#FFFFFF" d="M140.565,284.795c-0.667,0-1.333,0-2,0c-1.908,0-3.5,1.592-3.5,3.5s1.592,3.5,3.5,3.5c0.667,0,1.333,0,2,0
			c1.908,0,3.5-1.592,3.5-3.5S142.473,284.795,140.565,284.795L140.565,284.795z"/>
	</g>
	<g>
		<path fill="#FFFFFF" d="M144.315,274.601c-0.667,0-1.333,0-2,0c-1.908,0-3.5,1.592-3.5,3.5s1.592,3.5,3.5,3.5c0.667,0,1.333,0,2,0
			c1.908,0,3.5-1.592,3.5-3.5S146.223,274.601,144.315,274.601L144.315,274.601z"/>
	</g>
	<g>
		<path fill="#FFFFFF" d="M102.743,294.497c1.833,0,3.667,0,5.5,0c1.908,0,3.5-1.592,3.5-3.5s-1.592-3.5-3.5-3.5
			c-1.833,0-3.667,0-5.5,0c-1.908,0-3.5,1.592-3.5,3.5S100.835,294.497,102.743,294.497L102.743,294.497z"/>
	</g>
	<g>
		<path fill="#FFFFFF" d="M70.814,293.545c0.667,0,1.333,0,2,0c1.908,0,3.5-1.592,3.5-3.5s-1.592-3.5-3.5-3.5c-0.667,0-1.333,0-2,0
			c-1.908,0-3.5,1.592-3.5,3.5S68.906,293.545,70.814,293.545L70.814,293.545z"/>
	</g>
	<g>
		<path fill="#FFFFFF" d="M90.064,284.831c0.667,0,1.333,0,2,0c1.908,0,3.5-1.592,3.5-3.5s-1.592-3.5-3.5-3.5c-0.667,0-1.333,0-2,0
			c-1.908,0-3.5,1.592-3.5,3.5S88.157,284.831,90.064,284.831L90.064,284.831z"/>
	</g>
	<g>
		<path fill="#FFFFFF" d="M101.315,275.768c-1.833,0-3.667,0-5.5,0c-1.908,0-3.5,1.592-3.5,3.5s1.592,3.5,3.5,3.5
			c1.833,0,3.667,0,5.5,0c1.908,0,3.5-1.592,3.5-3.5S103.223,275.768,101.315,275.768L101.315,275.768z"/>
	</g>
	<g>
		<path fill="#FFFFFF" d="M248.316,286.17c0.667,0,1.333,0,2,0c1.908,0,3.5-1.592,3.5-3.5s-1.592-3.5-3.5-3.5c-0.667,0-1.333,0-2,0
			c-1.908,0-3.5,1.592-3.5,3.5S246.408,286.17,248.316,286.17L248.316,286.17z"/>
	</g>
	<g>
		<path fill="#FFFFFF" d="M208.981,275.768c-3.722,0-7.444,0-11.166,0c-4.514,0-4.514,7,0,7c3.722,0,7.444,0,11.166,0
			C213.496,282.768,213.496,275.768,208.981,275.768L208.981,275.768z"/>
	</g>
	<g>
		<path fill="#FFFFFF" d="M80.647,262.831c-3.278,0-6.556,0-9.833,0c-4.514,0-4.514,7,0,7c3.278,0,6.556,0,9.833,0
			C85.162,269.831,85.162,262.831,80.647,262.831L80.647,262.831z"/>
	</g>
	<g>
		<path fill="#FFFFFF" d="M137.942,283.462c-3.722,0-7.444,0-11.166,0c-4.514,0-4.514,7,0,7c3.722,0,7.444,0,11.166,0
			C142.457,290.462,142.457,283.462,137.942,283.462L137.942,283.462z"/>
	</g>
</g>
</svg>
