<?xml version="1.0" encoding="iso-8859-1"?>
<!-- Generator: Adobe Illustrator 16.0.0, SVG Export Plug-In . SVG Version: 6.00 Build 0)  -->
<!DOCTYPE svg PUBLIC "-//W3C//DTD SVG 1.1 Tiny//EN" "http://www.w3.org/Graphics/SVG/1.1/DTD/svg11-tiny.dtd">
<svg version="1.1" baseProfile="tiny" id="control_x5F_arrow_x5F_turn_x5F_right"
	 xmlns="http://www.w3.org/2000/svg" xmlns:xlink="http://www.w3.org/1999/xlink" x="0px" y="0px" width="361px" height="361px"
	 viewBox="0 0 361 361" xml:space="preserve">
<g>
	<path fill="#FFFFFF" d="M265.887,145.294c4.377,32.765,8.754,65.531,13.131,98.296c1.667-1.667,3.333-3.333,5-5
		c-32.765-4.377-65.53-8.754-98.295-13.132c1.179,2.845,2.357,5.69,3.536,8.536c28.388-28.388,56.776-56.776,85.165-85.164
		c4.563-4.564-2.507-11.635-7.071-7.071c-28.388,28.388-56.776,56.776-85.165,85.164c-3.399,3.399-0.542,7.991,3.536,8.536
		c32.765,4.377,65.53,8.754,98.295,13.132c2.463,0.329,5.329-2.537,5-5c-4.377-32.765-8.754-65.531-13.131-98.296
		C275.046,139,265.035,138.918,265.887,145.294z"/>
</g>
<g>
	<path fill="#FFFFFF" d="M230.185,156.043c-1.107,0.788-4.399-2.874-1.759-0.234c1.038,1.038,2.076,2.076,3.114,3.114
		c2.835,2.835,5.67,5.669,8.505,8.504c0.867,0.867,1.734,1.734,2.602,2.602c1.841,1.84,0.349-3.916-0.282-3.285
		c-1.276,1.276-2.551,2.552-3.827,3.828c-10.086,10.086-20.173,20.173-30.259,30.26c-0.572,0.571-1.144,1.143-1.715,1.715
		c-1.756,1.756,0.9-1.189,3.352,1.262c-2.271-2.27-4.541-4.54-6.811-6.811c-1.015-1.015-2.031-2.03-3.046-3.045
		c-1.57-1.57,0.302,3.483,1.131,2.35c1.054-1.439,2.107-2.878,3.161-4.317c8.464-11.561,16.928-23.122,25.393-34.682
		c0.746-1.018,1.491-2.037,2.236-3.055c3.816-5.212-4.868-10.192-8.635-5.047c-7.16,9.779-14.319,19.558-21.479,29.337
		c-3.07,4.194-6.141,8.387-9.211,12.581c-4.896,6.686,1.658,11.229,6.059,15.63c4.487,4.487,9.07,8.719,14.921,2.868
		c4.042-4.041,8.083-8.083,12.124-12.124c5.583-5.583,11.166-11.166,16.748-16.748c2.529-2.529,8.286-6.617,9.16-10.401
		c1.501-6.496-5.664-11.101-9.739-15.177c-4.409-4.408-9.863-12.685-16.789-7.76C219.93,151.111,224.917,159.789,230.185,156.043z"
		/>
</g>
<g>
	<path fill="#FFFFFF" d="M177.133,132.996c-0.519,1.134-5.136-0.312-2.035,0.519c1.162,0.312,2.324,0.623,3.486,0.934
		c3.812,1.021,7.623,2.043,11.435,3.064c3.318,0.889,6.637,1.778,9.956,2.667c0.949,0.254,1.899,0.509,2.849,0.764
		c2.428,0.65-0.75-5.817-1.624-3.835c-5.318,12.061-10.635,24.122-15.953,36.184c-1.668,3.784-3.337,7.568-5.005,11.353
		c0.463-1.05,4.758,0.209,2.699-0.343c-0.578-0.155-1.156-0.31-1.734-0.465c-1.723-0.461-3.446-0.923-5.169-1.385
		c-1.639-0.439-3.278-0.878-4.917-1.317c-3.583-0.96,1.16,0.221,1.045,1.272c1.373-12.619,2.746-25.237,4.119-37.856
		c0.51-4.693,1.021-9.386,1.532-14.079c0.697-6.407-9.31-6.339-10,0c-1.311,12.049-2.622,24.097-3.933,36.146
		c-0.562,5.167-1.124,10.333-1.687,15.5c-0.893,8.209,7.038,8.866,13.026,10.471c5.997,1.607,11.07,2.961,14.121-3.958
		c2.373-5.382,4.746-10.765,7.119-16.147c3.176-7.204,6.352-14.407,9.528-21.611c1.815-4.117,4.384-8.43,4.811-12.949
		c0.737-7.806-15.121-9.25-20.015-10.561c-6.383-1.71-18.456-7.794-22.288,0.586C165.836,133.769,174.454,138.854,177.133,132.996z"
		/>
</g>
<g>
	<path fill="#FFFFFF" d="M118.73,137.744c0.121,1.272-4.506,2.299-1.433,1.475c1.162-0.312,2.324-0.623,3.486-0.934
		c3.812-1.021,7.624-2.042,11.435-3.064c3.318-0.889,6.637-1.778,9.955-2.667c0.95-0.254,1.899-0.509,2.849-0.763
		c2.444-0.655-3.628-4.626-3.393-2.464c1.426,13.104,2.851,26.208,4.277,39.313c0.447,4.111,0.895,8.223,1.342,12.334
		c-0.127-1.168,4.134-2.201,2.095-1.654c-0.578,0.155-1.156,0.31-1.733,0.464c-1.723,0.462-3.446,0.924-5.169,1.385
		c-1.639,0.439-3.278,0.878-4.917,1.318c-3.614,0.968,1.185-0.401,1.598,0.537c-5.12-11.615-10.24-23.229-15.36-34.844
		c-1.904-4.32-3.809-8.64-5.713-12.959c-2.596-5.89-11.21-0.796-8.635,5.047c4.889,11.09,9.778,22.18,14.667,33.271
		c2.096,4.756,4.193,9.512,6.29,14.267c3.324,7.541,10.6,4.113,16.574,2.512c6.002-1.608,10.998-2.976,10.179-10.497
		c-0.636-5.848-1.272-11.695-1.908-17.542c-0.852-7.827-1.703-15.653-2.555-23.479c-0.488-4.485-0.426-9.48-2.32-13.616
		c-3.248-7.092-17.799-0.402-22.67,0.903c-6.405,1.716-19.813,2.452-18.938,11.659C109.334,144.105,119.34,144.165,118.73,137.744z"
		/>
</g>
<g>
	<path fill="#FFFFFF" d="M77.624,165.444c0.788,1.107-2.874,4.4-0.234,1.76c1.038-1.038,2.076-2.076,3.114-3.114
		c2.834-2.835,5.669-5.669,8.504-8.504c0.867-0.868,1.734-1.735,2.602-2.602c1.936-1.936-4.69-1.524-4.094-0.71
		c1.054,1.439,2.107,2.878,3.161,4.317c8.464,11.561,16.928,23.122,25.391,34.683c0.741,1.011,1.481,2.023,2.222,3.034
		c-0.776-1.06,2.87-4.362,0.24-1.733c-1.426,1.426-2.852,2.852-4.277,4.278c-1.2,1.2-2.4,2.4-3.6,3.6
		c-2.762,2.762,0.981-1.226,2.694,0.486c-1.156-1.156-2.312-2.312-3.467-3.467c-10.109-10.11-20.218-20.22-30.328-30.33
		c-0.903-0.903-1.806-1.806-2.709-2.709c-4.563-4.564-11.635,2.507-7.071,7.071c8.606,8.607,17.212,17.214,25.819,25.821
		c3.533,3.533,7.065,7.065,10.597,10.598c6.494,6.494,12.021-0.884,16.486-5.349c4.408-4.408,8.064-8.104,3.58-14.229
		c-3.475-4.746-6.95-9.492-10.424-14.238c-4.65-6.353-9.301-12.705-13.951-19.057c-2.644-3.612-5.076-7.965-8.759-10.582
		c-5.926-4.211-12.937,5.801-16.371,9.235c-4.408,4.408-12.686,9.864-7.759,16.788C72.693,175.698,81.372,170.711,77.624,165.444z"
		/>
</g>
</svg>
