<?xml version="1.0" encoding="iso-8859-1"?>
<!-- Generator: Adobe Illustrator 16.0.0, SVG Export Plug-In . SVG Version: 6.00 Build 0)  -->
<!DOCTYPE svg PUBLIC "-//W3C//DTD SVG 1.1 Tiny//EN" "http://www.w3.org/Graphics/SVG/1.1/DTD/svg11-tiny.dtd">
<svg version="1.1" baseProfile="tiny" id="control_x5F_reboot"
	 xmlns="http://www.w3.org/2000/svg" xmlns:xlink="http://www.w3.org/1999/xlink" x="0px" y="0px" width="361px" height="361px"
	 viewBox="0 0 361 361" xml:space="preserve">
<g>
	<path fill="none" stroke="#FFFFFF" stroke-width="10" stroke-miterlimit="10" d="M173.317,160.616c0,10.04-8.14,18.18-18.18,18.18
		H90.496c-10.041,0-18.18-8.14-18.18-18.18V95.975c0-10.041,8.139-18.18,18.18-18.18h64.641c10.04,0,18.18,8.14,18.18,18.18V160.616
		z"/>
	<g>
		<path fill="#FFFFFF" d="M118.098,98.997c0,19.344,0,38.689,0,58.033c0,6.449,10,6.449,10,0c0-19.344,0-38.689,0-58.033
			C128.098,92.548,118.098,92.548,118.098,98.997L118.098,98.997z"/>
	</g>
</g>
<g>
	<g>
		<path fill="#FFFFFF" d="M142.05,260.037c24.178,0,48.356,0,72.534,0c11,0,22,0,32.999,0c18.335,0,34.022-10.83,39.917-28.317
			c1.881-5.579,1.815-11.433,1.815-17.229c0-7.158,0-14.315,0-21.473c0-12.348,1.31-25.582-0.83-37.817
			c-3.433-19.622-21.957-32.187-41.029-32.187c-13.89,0-27.78,0-41.67,0c-2.379,0-4.758,0-7.137,0c-6.449,0-6.449,10,0,10
			c12.238,0,24.476,0,36.714,0c4.542,0,9.083,0,13.625,0c10.862,0,20.577,5.818,26.19,15.009c6.59,10.788,4.138,26.959,4.138,39.039
			c0,7.764,0,15.528,0,23.292c0,4.425,0.356,9.11-0.241,13.513c-2.265,16.699-16.785,26.171-32.673,26.171
			c-11.552,0-23.104,0-34.656,0c-23.231,0-46.463,0-69.694,0C135.601,250.037,135.601,260.037,142.05,260.037L142.05,260.037z"/>
	</g>
	<g>
		<path fill="#FFFFFF" d="M144.573,284.728c-14.832-11.336-29.664-22.672-44.496-34.008c0,2.878,0,5.756,0,8.635
			c14.832-11.336,29.664-22.672,44.496-34.008c-2.508-1.439-5.016-2.878-7.523-4.317c0,22.672,0,45.344,0,68.016
			c0,6.449,10,6.449,10,0c0-22.672,0-45.344,0-68.016c0-3.435-4.397-6.707-7.523-4.317c-14.832,11.336-29.664,22.672-44.496,34.008
			c-3.178,2.429-3.178,6.206,0,8.635c14.832,11.336,29.664,22.672,44.496,34.008C144.652,297.28,149.623,288.587,144.573,284.728z"
			/>
	</g>
</g>
</svg>
