<?xml version="1.0" encoding="iso-8859-1"?>
<!-- Generator: Adobe Illustrator 16.0.0, SVG Export Plug-In . SVG Version: 6.00 Build 0)  -->
<!DOCTYPE svg PUBLIC "-//W3C//DTD SVG 1.1//EN" "http://www.w3.org/Graphics/SVG/1.1/DTD/svg11.dtd">
<svg version="1.1" xmlns="http://www.w3.org/2000/svg" xmlns:xlink="http://www.w3.org/1999/xlink" x="0px" y="0px" width="361px"
	 height="361px" viewBox="0 0 361 361" style="enable-background:new 0 0 361 361;" xml:space="preserve">
<g id="control_x5F_outside_x5F_on_x5F_off">
	<g id="ein_x5F_aus">
		<g>
			<g>
				<path style="fill:#FFFFFF;" d="M285.021,125.541c-0.513,8.886-9.127,7.96-15.471,7.96c-7.75,0-15.501,0-23.252,0
					c-5.377,0-13.058,1.416-16.638-3.583c-2.707-3.781-1.306-11.851-1.306-16.127c0-7.665,0-15.33,0-22.995
					c0-5.901-0.268-13.961,8.083-13.961c12.596,0,25.19,0,37.785,0c5.227,0,10.798,1.603,10.798,8.085c0,3.875,0,7.75,0,11.626
					C285.021,106.209,285.021,115.875,285.021,125.541c0,4.514,7,4.514,7,0c0-12.253,0-24.505,0-36.758
					c0-6.784-1.089-12.417-7.05-16.687c-4.412-3.16-11.093-2.262-16.22-2.262c-7.768,0-15.535,0-23.303,0
					c-5.455,0-10.815-0.524-15.94,1.643c-6.807,2.878-8.153,10.219-8.153,16.71c0,7.289,0,14.578,0,21.867
					c0,7.144-1.202,15.564,1.643,22.293c3.744,8.857,13.78,8.154,21.626,8.154c9.482,0,18.966,0,28.449,0
					c3.009,0,5.848,0.074,8.783-0.793c6.275-1.854,9.809-7.985,10.165-14.167C292.282,121.029,285.28,121.054,285.021,125.541z"/>
			</g>
		</g>
		<g>
			<g>
				<path style="fill:#FFFFFF;" d="M253.365,86.626c0,12.361,0,24.722,0,37.083c0,4.514,7,4.514,7,0c0-12.361,0-24.722,0-37.083
					C260.365,82.112,253.365,82.112,253.365,86.626L253.365,86.626z"/>
			</g>
		</g>
	</g>
	<g>
		<polygon style="fill:#FFFFFF;" points="75.078,156.167 74.833,75.167 181.635,156.167 		"/>
		<g>
			<path style="fill:#FFFFFF;" d="M80.078,156.167c-0.082-27-0.163-54-0.245-81c-2.508,1.439-5.016,2.878-7.523,4.317
				c35.59,26.992,71.18,53.984,106.771,80.976c0.01,0.008,0.021,0.016,0.031,0.024c0.841-3.106,1.682-6.211,2.523-9.317
				c-35.519,0-71.038,0-106.557,0c-6.449,0-6.449,10,0,10c35.519,0,71.038,0,106.557,0c5.402,0,6.252-6.489,2.523-9.317
				c-35.59-26.992-71.18-53.984-106.771-80.976c-0.01-0.008-0.021-0.016-0.031-0.024c-3.125-2.371-7.534,0.868-7.523,4.317
				c0.082,27,0.163,54,0.245,81C70.097,162.615,80.097,162.617,80.078,156.167z"/>
		</g>
	</g>
	<path style="fill:none;stroke:#FFFFFF;stroke-width:10;stroke-miterlimit:10;" d="M162.833,281.5c0,3.223-4.727,5.834-10.558,5.834
		H85.391c-5.832,0-10.558-2.611-10.558-5.834V159c0-3.222,4.727-5.833,10.558-5.833h66.884c5.832,0,10.558,2.612,10.558,5.833V281.5
		z"/>
	<path style="fill:none;stroke:#FFFFFF;stroke-width:10;stroke-miterlimit:10;" d="M127.833,280.988c0,3.137-2.687,5.679-6,5.679
		h-23.5c-3.313,0-6-2.542-6-5.679v-68.143c0-3.137,2.687-5.679,6-5.679h23.5c3.313,0,6,2.542,6,5.679V280.988z"/>
	<g id="zaun_1_">
		<g>
			<g>
				<path style="fill:#FFFFFF;" d="M186.232,233.173c0,18.044,0,36.088,0,54.132c0,4.514,7,4.514,7,0c0-18.044,0-36.088,0-54.132
					C193.232,228.659,186.232,228.659,186.232,233.173L186.232,233.173z"/>
			</g>
		</g>
		<g>
			<g>
				<path style="fill:#FFFFFF;" d="M197.584,233.231c0,18.044,0,36.088,0,54.132c0,4.514,7,4.514,7,0c0-18.044,0-36.088,0-54.132
					C204.584,228.718,197.584,228.718,197.584,233.231L197.584,233.231z"/>
			</g>
		</g>
		<g>
			<g>
				<path style="fill:#FFFFFF;" d="M208.934,233.231c0,18.044,0,36.088,0,54.132c0,4.514,7,4.514,7,0c0-18.044,0-36.088,0-54.132
					C215.934,228.718,208.934,228.718,208.934,233.231L208.934,233.231z"/>
			</g>
		</g>
		<g>
			<g>
				<path style="fill:#FFFFFF;" d="M220.283,233.231c0,18.044,0,36.088,0,54.132c0,4.514,7,4.514,7,0c0-18.044,0-36.088,0-54.132
					C227.283,228.718,220.283,228.718,220.283,233.231L220.283,233.231z"/>
			</g>
		</g>
		<g>
			<g>
				<path style="fill:#FFFFFF;" d="M231.633,233.173c0,18.044,0,36.088,0,54.132c0,4.514,7,4.514,7,0c0-18.044,0-36.088,0-54.132
					C238.633,228.659,231.633,228.659,231.633,233.173L231.633,233.173z"/>
			</g>
		</g>
		<g>
			<g>
				<path style="fill:#FFFFFF;" d="M242.984,233.231c0,18.044,0,36.088,0,54.132c0,4.514,7,4.514,7,0c0-18.044,0-36.088,0-54.132
					C249.984,228.718,242.984,228.718,242.984,233.231L242.984,233.231z"/>
			</g>
		</g>
		<g>
			<g>
				<path style="fill:#FFFFFF;" d="M254.335,233.231c0,18.044,0,36.088,0,54.132c0,4.514,7,4.514,7,0c0-18.044,0-36.088,0-54.132
					C261.335,228.718,254.335,228.718,254.335,233.231L254.335,233.231z"/>
			</g>
		</g>
		<g>
			<g>
				<path style="fill:#FFFFFF;" d="M265.685,233.231c0,18.044,0,36.088,0,54.132c0,4.514,7,4.514,7,0c0-18.044,0-36.088,0-54.132
					C272.685,228.718,265.685,228.718,265.685,233.231L265.685,233.231z"/>
			</g>
		</g>
		<g>
			<g>
				<path style="fill:#FFFFFF;" d="M277.035,233.173c0,18.044,0,36.088,0,54.132c0,4.514,7,4.514,7,0c0-18.044,0-36.088,0-54.132
					C284.035,228.659,277.035,228.659,277.035,233.173L277.035,233.173z"/>
			</g>
		</g>
		<g>
			<g>
				<path style="fill:#FFFFFF;" d="M185.334,247.209c33.868,0,67.735,0,101.604,0c4.514,0,4.514-7,0-7c-33.868,0-67.735,0-101.604,0
					C180.82,240.209,180.82,247.209,185.334,247.209L185.334,247.209z"/>
			</g>
		</g>
		<g>
			<g>
				<path style="fill:#FFFFFF;" d="M185.01,280.037c34.054,0,68.106,0,102.16,0c4.514,0,4.514-7,0-7c-34.054,0-68.106,0-102.16,0
					C180.496,273.037,180.496,280.037,185.01,280.037L185.01,280.037z"/>
			</g>
		</g>
	</g>
</g>
<g id="Ebene_1">
</g>
</svg>
