<?xml version="1.0" encoding="iso-8859-1"?>
<!-- Generator: Adobe Illustrator 16.0.0, SVG Export Plug-In . SVG Version: 6.00 Build 0)  -->
<!DOCTYPE svg PUBLIC "-//W3C//DTD SVG 1.1 Tiny//EN" "http://www.w3.org/Graphics/SVG/1.1/DTD/svg11-tiny.dtd">
<svg version="1.1" baseProfile="tiny" id="control_x5F_arrow_x5F_downward"
	 xmlns="http://www.w3.org/2000/svg" xmlns:xlink="http://www.w3.org/1999/xlink" x="0px" y="0px" width="361px" height="361px"
	 viewBox="0 0 361 361" xml:space="preserve">
<g>
	<g>
		<path fill="#FFFFFF" d="M126.601,179.016c-3.929-0.198-0.306,0.283-0.306,3.09c0-0.408,0-0.815,0-1.222c0-1.519,0-3.037,0-4.556
			c0-3.732,0-7.464,0-11.196c0-0.407,0-0.814,0-1.222c0,2.807-3.623,3.287,0.306,3.089c0.148-0.007,0.299,0,0.447,0
			c1.261,0,2.522,0,3.783,0c12.861,0,25.722,0,38.583,0c15.313,0,30.627,0,45.94,0c4.319,0,8.637,0,12.956,0
			c0.581,0,1.162,0,1.742,0c3.903,0,0.304,0.073,0.304-3.089c0,0.408,0,0.815,0,1.222c0,1.827,0,3.654,0,5.481
			c0,3.001,0,6.002,0,9.004c0,0.83,0,1.659,0,2.489c0-3.285,3.591-3.089-0.416-3.089c-2.335,0-4.67,0-7.006,0
			c-11.897,0-23.795,0-35.693,0C167.026,179.016,146.814,179.016,126.601,179.016c-6.449,0-6.449,10,0,10
			c24.343,0,48.686,0,73.029,0c9.992,0,19.983,0,29.975,0c2.782,0,5.59-0.358,8.003-1.815c3.051-1.842,2.747-5.281,2.747-8.326
			c0-3.645,0-7.289,0.001-10.934c0-2.833,0.477-6.133-1.735-8.345c-3.1-3.1-8.288-2.598-12.383-2.598c-5.145,0-10.289,0-15.433,0
			c-15.738,0-31.477,0-47.215,0c-11.651,0-23.302,0-34.953,0c-4.721,0-12.342,0.418-12.342,6.722c0,6.027,0,12.054,0,18.081
			c0,5.745,5.631,6.979,10.306,7.214C133.049,189.34,133.018,179.339,126.601,179.016z"/>
	</g>
	<g>
		<path fill="#FFFFFF" d="M254.308,182.202c-26.765,35.018-53.53,70.036-80.294,105.055c2.878,0,5.756,0,8.635,0
			c-26.765-35.019-53.529-70.037-80.293-105.055c-1.439,2.508-2.878,5.016-4.317,7.523c49.409,0,98.817,0,148.226,0
			c4.121,0,8.241,0,12.362,0c6.449,0,6.449-10,0-10c-49.409,0-98.817,0-148.226,0c-4.121,0-8.241,0-12.362,0
			c-3.435,0-6.707,4.397-4.317,7.523c26.765,35.019,53.529,70.037,80.293,105.055c2.429,3.178,6.206,3.178,8.635,0
			c26.765-35.018,53.53-70.036,80.294-105.055C266.86,182.124,258.167,177.152,254.308,182.202z"/>
	</g>
	<g>
		<path fill="#FFFFFF" d="M126.601,136.112c-3.929-0.198-0.306,0.283-0.306,3.09c0-0.408,0-0.815,0-1.222c0-1.519,0-3.037,0-4.556
			c0-3.732,0-7.465,0-11.197c0-0.407,0-0.814,0-1.222c0,2.807-3.623,3.289,0.306,3.091c0.148-0.007,0.299,0,0.447,0
			c1.261,0,2.522,0,3.783,0c12.861,0,25.722,0,38.583,0c15.313,0,30.627,0,45.94,0c4.319,0,8.637,0,12.956,0
			c0.581,0,1.162,0,1.742,0c3.903,0,0.304,0.073,0.304-3.09c0,0.408,0,0.815,0,1.222c0,1.827,0,3.654,0,5.481
			c0,3.001,0,6.003,0,9.004c0,0.83,0,1.659,0,2.489c0-3.287,3.591-3.09-0.416-3.09c-2.335,0-4.67,0-7.006,0
			c-11.897,0-23.795,0-35.693,0C167.026,136.112,146.814,136.112,126.601,136.112c-6.449,0-6.449,10,0,10
			c24.343,0,48.686,0,73.029,0c9.992,0,19.983,0,29.975,0c2.782,0,5.59-0.359,8.003-1.815c3.051-1.842,2.747-5.281,2.747-8.325
			c0-3.645,0-7.29,0.001-10.934c0-2.833,0.477-6.134-1.735-8.345c-3.1-3.1-8.288-2.597-12.383-2.597c-5.145,0-10.289,0-15.433,0
			c-15.738,0-31.477,0-47.215,0c-11.651,0-23.302,0-34.953,0c-4.72,0-12.342,0.417-12.342,6.72c0,6.027,0,12.054,0,18.081
			c0,5.745,5.631,6.979,10.306,7.214C133.049,146.438,133.018,136.436,126.601,136.112z"/>
	</g>
	<g>
		<path fill="#FFFFFF" d="M126.606,94.388c-3.928-0.198-0.305,0.282-0.305,3.088c0-0.407,0-0.814,0-1.222c0-1.519,0-3.037,0-4.556
			c0-3.732,0-7.464,0-11.196c0-0.407,0-0.814,0-1.222c0,2.806-3.623,3.288,0.305,3.09c0.148-0.007,0.299,0,0.447,0
			c1.261,0,2.522,0,3.783,0c12.861,0,25.722,0,38.583-0.001c15.313,0,30.627,0,45.94,0c4.319,0,8.637,0,12.956,0
			c0.581,0,1.162,0,1.742,0c3.904,0,0.305,0.071,0.305-3.088c0,0.407,0,0.814,0,1.222c0,1.827,0,3.654,0,5.481
			c0,3.001,0,6.002,0,9.003c0,0.83,0,1.659,0,2.489c0-3.284,3.59-3.088-0.417-3.088c-2.335,0-4.67,0-7.006,0
			c-11.897,0-23.795,0-35.693,0C167.031,94.388,146.819,94.388,126.606,94.388c-6.449,0-6.449,10,0,10c24.343,0,48.686,0,73.029,0
			c9.992,0,19.983,0,29.975,0c2.782,0,5.591-0.358,8.004-1.816c3.051-1.843,2.747-5.281,2.747-8.326c0-3.645,0-7.289,0.001-10.933
			c0-2.833,0.477-6.134-1.735-8.346c-3.1-3.1-8.289-2.597-12.384-2.597c-5.145,0-10.289,0-15.433,0c-15.738,0-31.477,0-47.215,0.001
			c-11.651,0-23.302,0-34.953,0c-4.72,0-12.341,0.418-12.341,6.721c0,6.026,0,12.053,0,18.08c0,5.745,5.63,6.98,10.305,7.216
			C133.054,104.713,133.022,94.711,126.606,94.388z"/>
	</g>
</g>
</svg>
