<?xml version="1.0" encoding="iso-8859-1"?>
<!-- Generator: Adobe Illustrator 16.0.0, SVG Export Plug-In . SVG Version: 6.00 Build 0)  -->
<!DOCTYPE svg PUBLIC "-//W3C//DTD SVG 1.1//EN" "http://www.w3.org/Graphics/SVG/1.1/DTD/svg11.dtd">
<svg version="1.1" xmlns="http://www.w3.org/2000/svg" xmlns:xlink="http://www.w3.org/1999/xlink" x="0px" y="0px" width="361px"
	 height="361px" viewBox="0 0 361 361" style="enable-background:new 0 0 361 361;" xml:space="preserve">
<g id="control_x5F_all_x5F_on_x5F_off">
	<g>
		<g>
			<g>
				<path style="fill:#FFFFFF;" d="M213.037,247.725c-0.454,8.987-8.134,9.646-15.023,9.646c-7.472,0-14.943,0-22.415,0
					c-6.002,0-12.004,0-18.006,0c-7.156,0-10.591-5.121-10.591-11.709c0-13.709,0-27.418,0-41.126c0-6.43,1.92-13.201,9.889-13.201
					c5.277,0,10.555,0,15.832,0c9.038,0,18.076,0,27.113,0c2.808,0,5.422-0.159,8.055,1.108c4.255,2.051,5.146,6.391,5.146,10.601
					C213.037,217.938,213.037,232.831,213.037,247.725c0,4.514,7,4.514,7,0c0-12.298,0-24.597,0-36.895
					c0-4.814,0.494-9.982-0.716-14.688c-1.998-7.771-9.723-11.807-17.204-11.807c-13.578,0-27.156,0-40.734,0
					c-6.207,0-11.583,0.401-16.506,4.876c-4.8,4.362-4.875,10.588-4.875,16.506c0,12.424,0,24.849,0,37.272
					c0,4.529,0.021,8.525,2.064,12.768c2.889,5.997,9.599,8.614,15.855,8.614c11.874,0,23.748,0,35.621,0c3.283,0,6.565,0,9.849,0
					c9.394,0,16.19-7.612,16.646-16.646C220.265,243.211,213.264,243.233,213.037,247.725z"/>
			</g>
		</g>
		<g>
			<g>
				<path style="fill:#FFFFFF;" d="M176.723,209.818c0,10.444,0,20.889,0,31.333c0,4.514,7,4.514,7,0c0-10.444,0-20.889,0-31.333
					C183.723,205.305,176.723,205.305,176.723,209.818L176.723,209.818z"/>
			</g>
		</g>
	</g>
	<g>
		<g>
			<g>
				<polygon style="fill:#FFFFFF;" points="181.079,156.583 180.835,75.583 287.636,156.583 				"/>
				<g>
					<path style="fill:#FFFFFF;" d="M186.079,156.583c-0.081-27-0.163-54-0.244-81c-2.508,1.439-5.016,2.878-7.523,4.317
						c35.59,26.992,71.18,53.984,106.77,80.976c0.011,0.008,0.021,0.016,0.031,0.024c0.841-3.106,1.683-6.211,2.523-9.317
						c-35.519,0-71.038,0-106.557,0c-6.449,0-6.449,10,0,10c35.519,0,71.038,0,106.557,0c5.402,0,6.252-6.489,2.523-9.317
						c-35.59-26.992-71.18-53.984-106.77-80.976c-0.011-0.008-0.021-0.016-0.031-0.024c-3.125-2.371-7.534,0.868-7.523,4.317
						c0.082,27,0.163,54,0.244,81C176.099,163.031,186.099,163.033,186.079,156.583z"/>
				</g>
			</g>
			<g>
				<polygon style="fill:#FFFFFF;" points="180.591,156.583 180.835,75.584 74.034,156.583 				"/>
				<g>
					<path style="fill:#FFFFFF;" d="M185.591,156.583c0.081-27,0.163-54,0.244-81c0.011-3.45-4.397-6.688-7.523-4.317
						c-35.59,26.992-71.18,53.984-106.77,80.976c-0.011,0.008-0.021,0.016-0.031,0.023c-3.729,2.828-2.879,9.317,2.523,9.317
						c35.519,0,71.038,0,106.557,0c6.448,0,6.448-10,0-10c-35.519,0-71.038,0-106.557,0c0.841,3.106,1.683,6.211,2.523,9.317
						c35.59-26.992,71.18-53.984,106.77-80.976c0.011-0.008,0.021-0.016,0.031-0.023c-2.508-1.439-5.016-2.878-7.523-4.317
						c-0.082,27-0.163,54-0.244,81C175.571,163.033,185.571,163.031,185.591,156.583z"/>
				</g>
			</g>
		</g>
		<path style="fill:none;stroke:#FFFFFF;stroke-width:10;stroke-miterlimit:10;" d="M268.835,279.988
			c0,3.919-3.927,7.096-8.771,7.096H102.272c-4.844,0-8.771-3.177-8.771-7.096V150.607c0-3.918,175.333-3.918,175.333,0V279.988z"/>
	</g>
</g>
<g id="Ebene_1">
</g>
</svg>
