<?xml version="1.0" encoding="iso-8859-1"?>
<!-- Generator: Adobe Illustrator 16.0.0, SVG Export Plug-In . SVG Version: 6.00 Build 0)  -->
<!DOCTYPE svg PUBLIC "-//W3C//DTD SVG 1.1 Tiny//EN" "http://www.w3.org/Graphics/SVG/1.1/DTD/svg11-tiny.dtd">
<svg version="1.1" baseProfile="tiny" id="control_x5F_x"
	 xmlns="http://www.w3.org/2000/svg" xmlns:xlink="http://www.w3.org/1999/xlink" x="0px" y="0px" width="361px" height="361px"
	 viewBox="0 0 361 361" xml:space="preserve">
<path fill="none" stroke="#FFFFFF" stroke-width="10" stroke-miterlimit="10" d="M182.131,168.271L93.732,79.871
	c-2.892-2.892-7.582-2.892-10.473,0l-8.728,8.728c-2.893,2.893-2.893,7.581,0,10.474l84.857,84.857"/>
<path fill="none" stroke="#FFFFFF" stroke-width="10" stroke-miterlimit="10" d="M175.076,199.618l87.399,87.4
	c2.892,2.891,7.581,2.891,10.473,0l8.728-8.729c2.893-2.893,2.893-7.582,0-10.474l-83.878-83.878"/>
<path fill="none" stroke="#FFFFFF" stroke-width="10" stroke-miterlimit="10" d="M178.604,203.146l-83.872,83.872
	c-2.892,2.891-7.581,2.891-10.473,0l-8.728-8.728c-2.893-2.893-2.893-7.582,0-10.474l87.381-87.381"/>
<path fill="none" stroke="#FFFFFF" stroke-width="10" stroke-miterlimit="10" d="M178.604,164.743l84.872-84.872
	c2.892-2.892,7.582-2.892,10.473,0l8.728,8.728c2.893,2.893,2.893,7.581,0,10.474l-88.396,88.396"/>
</svg>
