<?xml version="1.0" encoding="iso-8859-1"?>
<!-- Generator: Adobe Illustrator 16.0.0, SVG Export Plug-In . SVG Version: 6.00 Build 0)  -->
<!DOCTYPE svg PUBLIC "-//W3C//DTD SVG 1.1//EN" "http://www.w3.org/Graphics/SVG/1.1/DTD/svg11.dtd">
<svg version="1.1" xmlns="http://www.w3.org/2000/svg" xmlns:xlink="http://www.w3.org/1999/xlink" x="0px" y="0px" width="361px"
	 height="361px" viewBox="0 0 361 361" style="enable-background:new 0 0 361 361;" xml:space="preserve">
<g id="control_x5F_building_x5F_modern_x5F_s_x5F_2og_x5F_og1">
	<g id="Haus_22_">
		<g>
			<g>
				<path style="fill:#FFFFFF;" d="M244.523,281.64c0.119-0.612,2.896-0.431,0.289-0.431c-1.465,0-2.931,0-4.396,0
					c-5.081,0-10.163,0-15.244,0c-15.325,0-30.651,0-45.977,0c-15.068,0-30.137,0-45.206,0c-4.76,0-9.52,0-14.279,0
					c-1.186,0-2.373,0-3.559,0c-2.261,0,0.889,0.243,0.889,1.638c0-50.77,0-101.539,0-152.309c0-6.875,0-13.751,0-20.626
					c-0.826,1.439-1.651,2.878-2.477,4.317c13.553-9.064,27.106-18.128,40.659-27.192c-1.284,0.168-2.568,0.336-3.853,0.504
					c23.649,7.156,47.298,14.312,70.946,21.468c5.637,1.705,11.272,3.411,16.909,5.116c1.472,0.445,2.944,0.891,4.417,1.336
					c1.829,0.554,0.701,0.547,0.701-1.137c0,6.301,0,12.601,0,18.902c0,49.911,0,99.823,0,149.734c0,0.003,0,0.005,0,0.008
					c0,6.448,10,6.448,10,0c0-49.693,0-99.387,0-149.08c0-6.503,0-13.007,0-19.51c0-8.85-15.068-10.686-21.594-12.661
					c-25.828-7.815-51.655-15.63-77.482-23.445c-3.27-0.989-5.322,0.283-7.953,2.042c-5.823,3.895-11.646,7.789-17.469,11.683
					c-5.823,3.894-11.646,7.788-17.469,11.683c-2.637,1.763-5.337,3.214-5.337,6.838c0,21.712,0,43.424,0,65.137
					c0,29.982,0,59.966,0,89.949c0,5.785,0,11.57,0,17.355c0,10.699,14.644,8.248,21.506,8.248c25.049,0,50.099,0,75.148,0
					c10.905,0,21.812,0,32.718,0c6.465,0,16.082,1.651,17.753-6.911C255.396,277.999,245.758,275.313,244.523,281.64z"/>
			</g>
		</g>
		<g>
			<g>
				<line style="fill:#FFFFFF;" x1="119.521" y1="205.112" x2="241.99" y2="205.112"/>
				<g>
					<path style="fill:#FFFFFF;" d="M119.521,206.612c40.823,0,81.646,0,122.47,0c1.935,0,1.935-3,0-3c-40.823,0-81.646,0-122.47,0
						C117.586,203.612,117.586,206.612,119.521,206.612L119.521,206.612z"/>
				</g>
			</g>
			<g>
				<line style="fill:#FFFFFF;" x1="119.521" y1="243.75" x2="241.99" y2="243.75"/>
				<g>
					<path style="fill:#FFFFFF;" d="M119.521,245.25c40.823,0,81.646,0,122.47,0c1.935,0,1.935-3,0-3c-40.823,0-81.646,0-122.47,0
						C117.586,242.25,117.586,245.25,119.521,245.25L119.521,245.25z"/>
				</g>
			</g>
			<g>
				<line style="fill:#FFFFFF;" x1="119.854" y1="166.112" x2="242.323" y2="166.112"/>
				<g>
					<path style="fill:#FFFFFF;" d="M119.854,167.612c40.823,0,81.646,0,122.47,0c1.935,0,1.935-3,0-3c-40.823,0-81.646,0-122.47,0
						C117.919,164.612,117.919,167.612,119.854,167.612L119.854,167.612z"/>
				</g>
			</g>
			<g>
				<line style="fill:#FFFFFF;" x1="119.854" y1="127.112" x2="242.323" y2="127.112"/>
				<g>
					<path style="fill:#FFFFFF;" d="M119.854,128.612c40.823,0,81.646,0,122.47,0c1.935,0,1.935-3,0-3c-40.823,0-81.646,0-122.47,0
						C117.919,125.612,117.919,128.612,119.854,128.612L119.854,128.612z"/>
				</g>
			</g>
		</g>
		<g>
			<g>
				<path style="fill:#FFFFFF;" d="M100.606,123.359c21.896-14.672,43.792-29.343,65.688-44.015
					c5.327-3.569,0.327-12.236-5.047-8.635c-21.896,14.672-43.792,29.343-65.688,44.015
					C90.232,118.294,95.232,126.96,100.606,123.359L100.606,123.359z"/>
			</g>
		</g>
		<g>
			<g>
				<path style="fill:#FFFFFF;" d="M155.004,88.488c38.417,11.417,76.833,22.833,115.25,34.25c6.197,1.842,8.824-7.81,2.658-9.643
					c-38.417-11.417-76.833-22.833-115.25-34.25C151.465,77.004,148.837,86.656,155.004,88.488L155.004,88.488z"/>
			</g>
		</g>
	</g>
	<path id="EG_21_" style="display:none;fill:#FFFFFF;" d="M238.568,207.667H122.432c-2.209,0-4,1.791-4,4v25.667
		c0,2.209,1.791,4,4,4h116.137c2.209,0,4-1.791,4-4v-25.667C242.568,209.458,240.777,207.667,238.568,207.667z M179.063,236.667
		h-15.086v-23.522h14.25v3.877h-9.576v5.281h8.322v3.877h-8.322v6.611h10.412V236.667z M187.689,231.1
		c0.887,1.33,2.19,1.996,3.914,1.996c0.277,0,0.582-0.014,0.912-0.039c0.328-0.024,0.633-0.063,0.912-0.113v-8.588h4.674v11.742
		c-0.559,0.203-1.426,0.43-2.604,0.684c-1.178,0.252-2.604,0.38-4.275,0.38c-1.469,0-2.793-0.261-3.971-0.779
		s-2.186-1.292-3.021-2.317c-0.836-1.026-1.481-2.305-1.938-3.838s-0.684-3.313-0.684-5.34c0-2,0.266-3.768,0.798-5.301
		c0.532-1.532,1.254-2.818,2.166-3.857c0.911-1.038,1.988-1.816,3.229-2.336s2.571-0.779,3.99-0.779c0.912,0,1.729,0.07,2.451,0.209
		c0.722,0.139,1.349,0.298,1.881,0.475c0.532,0.178,0.969,0.367,1.311,0.57s0.602,0.355,0.779,0.455l-1.216,3.725
		c-0.558-0.354-1.241-0.671-2.052-0.949c-0.812-0.279-1.647-0.418-2.508-0.418c-1.115,0-2.053,0.202-2.813,0.607
		s-1.387,0.969-1.881,1.691c-0.494,0.722-0.85,1.583-1.064,2.584c-0.215,1-0.322,2.108-0.322,3.324
		C186.359,227.699,186.802,229.77,187.689,231.1z"/>
	<path id="KG_21_" style="display:none;fill:#FFFFFF;" d="M238.756,246.334H122.619c-2.209,0-4,1.791-4,4V276c0,2.209,1.791,4,4,4
		h116.137c2.209,0,4-1.791,4-4v-25.666C242.756,248.125,240.965,246.334,238.756,246.334z M174.883,275.417
		c-0.279-0.886-0.678-1.843-1.197-2.869c-0.52-1.026-1.096-2.026-1.729-3.002c-0.634-0.975-1.298-1.887-1.995-2.735
		c-0.697-0.85-1.362-1.564-1.995-2.147v10.754h-4.674v-23.522h4.674v9.767c0.557-0.709,1.14-1.495,1.748-2.356
		c0.608-0.861,1.184-1.723,1.729-2.584c0.544-0.861,1.045-1.709,1.501-2.546c0.456-0.836,0.836-1.596,1.14-2.28h5.282
		c-0.355,0.685-0.779,1.463-1.273,2.338c-0.494,0.873-1.058,1.785-1.691,2.735s-1.311,1.919-2.033,2.907
		c-0.722,0.988-1.476,1.938-2.261,2.85c0.785,0.76,1.583,1.635,2.394,2.623c0.811,0.987,1.577,2.045,2.299,3.172
		c0.722,1.128,1.374,2.28,1.957,3.459c0.583,1.178,1.051,2.324,1.406,3.438H174.883z M187.689,269.85
		c0.887,1.33,2.19,1.996,3.914,1.996c0.277,0,0.582-0.014,0.912-0.039c0.328-0.024,0.633-0.063,0.912-0.113v-8.588h4.674v11.742
		c-0.559,0.203-1.426,0.43-2.604,0.684c-1.178,0.252-2.604,0.38-4.275,0.38c-1.469,0-2.793-0.261-3.971-0.779
		s-2.186-1.292-3.021-2.317c-0.836-1.026-1.481-2.305-1.938-3.838s-0.684-3.313-0.684-5.34c0-2,0.266-3.768,0.798-5.301
		c0.532-1.532,1.254-2.818,2.166-3.857c0.911-1.038,1.988-1.816,3.229-2.336s2.571-0.779,3.99-0.779c0.912,0,1.729,0.07,2.451,0.209
		c0.722,0.139,1.349,0.298,1.881,0.475c0.532,0.178,0.969,0.367,1.311,0.57s0.602,0.355,0.779,0.455l-1.216,3.725
		c-0.558-0.354-1.241-0.671-2.052-0.949c-0.812-0.279-1.647-0.418-2.508-0.418c-1.115,0-2.053,0.202-2.813,0.607
		s-1.387,0.969-1.881,1.691c-0.494,0.722-0.85,1.583-1.064,2.584c-0.215,1-0.322,2.108-0.322,3.324
		C186.359,266.449,186.802,268.52,187.689,269.85z"/>
	<g id="OG1_4_">
		<path style="fill:#FFFFFF;" d="M238.824,168.667H122.687c-2.209,0-4,1.791-4,4v25.667c0,2.209,1.791,4,4,4h116.137
			c2.209,0,4-1.791,4-4v-25.667C242.824,170.458,241.033,168.667,238.824,168.667z M159.525,197.917h-14.288v-3.876h4.94v-13.148
			c-0.71,0.507-1.52,0.957-2.432,1.349s-1.685,0.703-2.318,0.931l-1.52-3.876c0.608-0.228,1.266-0.519,1.976-0.874
			c0.709-0.354,1.418-0.747,2.128-1.178c0.708-0.431,1.38-0.887,2.014-1.368c0.633-0.481,1.178-0.975,1.634-1.482h3.192v19.646
			h4.674V197.917z M172.977,197.461c-0.684,0.582-1.47,0.874-2.356,0.874c-0.456,0-0.887-0.076-1.292-0.228
			c-0.406-0.152-0.767-0.374-1.083-0.666c-0.317-0.291-0.57-0.646-0.76-1.063s-0.285-0.905-0.285-1.463
			c0-0.532,0.095-1.007,0.285-1.425s0.443-0.766,0.76-1.045c0.316-0.279,0.677-0.494,1.083-0.646
			c0.405-0.152,0.836-0.229,1.292-0.229c0.886,0,1.672,0.292,2.356,0.875c0.684,0.582,1.026,1.406,1.026,2.47
			C174.003,196.03,173.661,196.879,172.977,197.461z M195.854,195.314c-1.471,2.064-3.547,3.097-6.232,3.097
			c-2.762,0-4.871-1.032-6.327-3.097c-1.457-2.064-2.185-5.124-2.185-9.178c0-4.053,0.746-7.112,2.242-9.177
			c1.494-2.064,3.571-3.097,6.231-3.097c2.761,0,4.864,1.033,6.308,3.097c1.444,2.065,2.166,5.124,2.166,9.177
			C198.057,190.19,197.322,193.25,195.854,195.314z M206.189,192.35c0.887,1.33,2.19,1.996,3.914,1.996
			c0.277,0,0.582-0.014,0.912-0.039c0.328-0.024,0.633-0.063,0.912-0.113v-8.588h4.674v11.742c-0.559,0.203-1.426,0.43-2.604,0.684
			c-1.178,0.252-2.604,0.38-4.275,0.38c-1.469,0-2.793-0.261-3.971-0.779s-2.186-1.292-3.021-2.317
			c-0.836-1.026-1.481-2.305-1.938-3.838s-0.684-3.313-0.684-5.34c0-2,0.266-3.768,0.798-5.301c0.532-1.532,1.254-2.818,2.166-3.857
			c0.911-1.039,1.988-1.817,3.229-2.337c1.241-0.519,2.571-0.779,3.99-0.779c0.912,0,1.729,0.07,2.451,0.209
			c0.722,0.14,1.349,0.298,1.881,0.475c0.532,0.178,0.969,0.368,1.311,0.57s0.602,0.355,0.779,0.456l-1.216,3.724
			c-0.558-0.354-1.241-0.671-2.052-0.95c-0.812-0.279-1.647-0.418-2.508-0.418c-1.115,0-2.053,0.203-2.813,0.608
			s-1.387,0.969-1.881,1.691s-0.85,1.583-1.064,2.584c-0.215,1-0.322,2.108-0.322,3.324
			C204.859,188.949,205.302,191.02,206.189,192.35z"/>
		<path style="fill:#FFFFFF;" d="M192.643,180.323c-0.267-0.734-0.641-1.317-1.121-1.748c-0.482-0.431-1.128-0.646-1.938-0.646
			c-0.812,0-1.457,0.215-1.938,0.646c-0.48,0.431-0.854,1.02-1.121,1.767c-0.266,0.748-0.443,1.615-0.531,2.604
			c-0.09,0.988-0.133,2.052-0.133,3.191c0,1.141,0.043,2.211,0.133,3.211c0.088,1.002,0.266,1.869,0.531,2.604
			c0.267,0.734,0.641,1.317,1.121,1.748c0.481,0.431,1.127,0.646,1.938,0.646c0.785,0,1.425-0.216,1.919-0.646
			s0.874-1.02,1.141-1.768c0.266-0.746,0.442-1.615,0.531-2.603c0.089-0.988,0.133-2.052,0.133-3.192
			c0-1.14-0.044-2.209-0.133-3.211C193.085,181.926,192.908,181.059,192.643,180.323z"/>
	</g>
	<g id="OG2_4_" style="display:none;">
		<path style="display:inline;fill:#FFFFFF;" d="M238.902,129.834H122.765c-2.209,0-4,1.791-4,4V159.5c0,2.209,1.791,4,4,4h116.137
			c2.209,0,4-1.791,4-4v-25.667C242.902,131.625,241.111,129.834,238.902,129.834z M159.639,158.417h-15.352
			c-0.076-0.253-0.108-0.57-0.095-0.95c0.013-0.38,0.019-0.646,0.019-0.798c0-1.267,0.234-2.432,0.703-3.496
			c0.468-1.064,1.064-2.045,1.786-2.945c0.722-0.899,1.494-1.735,2.318-2.508c0.823-0.772,1.596-1.514,2.318-2.223
			c0.722-0.709,1.317-1.393,1.786-2.052c0.468-0.658,0.703-1.33,0.703-2.014c0-0.962-0.292-1.704-0.874-2.223
			c-0.583-0.519-1.318-0.779-2.204-0.779c-0.735,0-1.508,0.177-2.318,0.532c-0.811,0.355-1.609,0.95-2.394,1.786l-2.318-3.268
			c1.013-1.064,2.185-1.849,3.515-2.356c1.33-0.506,2.653-0.76,3.971-0.76c0.962,0,1.887,0.14,2.774,0.418
			c0.886,0.279,1.672,0.697,2.356,1.254s1.229,1.26,1.634,2.109c0.405,0.849,0.608,1.831,0.608,2.945
			c0,0.811-0.152,1.59-0.456,2.337c-0.304,0.748-0.709,1.476-1.216,2.185c-0.507,0.709-1.077,1.394-1.71,2.052
			c-0.633,0.659-1.279,1.292-1.938,1.9c-0.33,0.304-0.709,0.665-1.14,1.083c-0.431,0.418-0.836,0.849-1.216,1.292
			c-0.38,0.443-0.703,0.893-0.969,1.349c-0.266,0.456-0.399,0.874-0.399,1.254h10.108V158.417z M172.977,157.96
			c-0.684,0.583-1.47,0.874-2.356,0.874c-0.456,0-0.887-0.076-1.292-0.228c-0.406-0.152-0.767-0.374-1.083-0.665
			c-0.317-0.291-0.57-0.646-0.76-1.064s-0.285-0.905-0.285-1.463c0-0.532,0.095-1.007,0.285-1.425
			c0.19-0.418,0.443-0.766,0.76-1.045c0.316-0.278,0.677-0.494,1.083-0.646c0.405-0.152,0.836-0.228,1.292-0.228
			c0.886,0,1.672,0.292,2.356,0.874c0.684,0.583,1.026,1.406,1.026,2.47C174.003,156.53,173.661,157.378,172.977,157.96z
			 M195.854,155.813c-1.471,2.065-3.547,3.097-6.232,3.097c-2.762,0-4.871-1.032-6.327-3.097c-1.457-2.064-2.185-5.124-2.185-9.177
			s0.746-7.112,2.242-9.177c1.494-2.064,3.571-3.097,6.231-3.097c2.761,0,4.864,1.033,6.308,3.097
			c1.444,2.065,2.166,5.124,2.166,9.177S197.322,153.749,195.854,155.813z M206.189,152.85c0.887,1.33,2.19,1.995,3.914,1.995
			c0.277,0,0.582-0.013,0.912-0.038c0.328-0.025,0.633-0.063,0.912-0.114v-8.588h4.674v11.742c-0.559,0.203-1.426,0.431-2.604,0.684
			s-2.604,0.38-4.275,0.38c-1.469,0-2.793-0.26-3.971-0.779c-1.178-0.519-2.186-1.292-3.021-2.318s-1.481-2.305-1.938-3.838
			c-0.456-1.533-0.684-3.312-0.684-5.339c0-2.001,0.266-3.768,0.798-5.301c0.532-1.532,1.254-2.818,2.166-3.857
			c0.911-1.039,1.988-1.817,3.229-2.337c1.241-0.519,2.571-0.779,3.99-0.779c0.912,0,1.729,0.07,2.451,0.209
			c0.722,0.14,1.349,0.298,1.881,0.475c0.532,0.178,0.969,0.368,1.311,0.57s0.602,0.355,0.779,0.456l-1.216,3.724
			c-0.558-0.354-1.241-0.671-2.052-0.95c-0.812-0.279-1.647-0.418-2.508-0.418c-1.115,0-2.053,0.203-2.813,0.608
			s-1.387,0.969-1.881,1.691s-0.85,1.583-1.064,2.584c-0.215,1.001-0.322,2.109-0.322,3.325
			C204.859,149.449,205.302,151.52,206.189,152.85z"/>
		<path style="display:inline;fill:#FFFFFF;" d="M192.643,140.822c-0.267-0.734-0.641-1.317-1.121-1.748
			c-0.482-0.431-1.128-0.646-1.938-0.646c-0.812,0-1.457,0.215-1.938,0.646c-0.48,0.431-0.854,1.02-1.121,1.767
			c-0.266,0.748-0.443,1.615-0.531,2.603c-0.09,0.988-0.133,2.052-0.133,3.192c0,1.14,0.043,2.21,0.133,3.211
			c0.088,1.001,0.266,1.868,0.531,2.603c0.267,0.735,0.641,1.317,1.121,1.748c0.481,0.431,1.127,0.646,1.938,0.646
			c0.785,0,1.425-0.215,1.919-0.646s0.874-1.02,1.141-1.767c0.266-0.747,0.442-1.615,0.531-2.603
			c0.089-0.988,0.133-2.052,0.133-3.192c0-1.14-0.044-2.21-0.133-3.211C193.085,142.425,192.908,141.558,192.643,140.822z"/>
	</g>
	<g id="DG_16_" style="display:none;">
		<path style="display:inline;fill:#FFFFFF;" d="M153.365,103.96c-0.38-0.734-0.9-1.323-1.558-1.767
			c-0.659-0.443-1.508-0.665-2.546-0.665c-0.203,0-0.431,0.007-0.684,0.019c-0.254,0.013-0.481,0.044-0.684,0.095v15.808
			c0.126,0.025,0.266,0.038,0.418,0.038s0.291,0,0.418,0c1.064,0,1.957-0.202,2.679-0.608c0.722-0.405,1.304-0.962,1.748-1.672
			c0.443-0.709,0.76-1.551,0.95-2.527c0.19-0.975,0.285-2.045,0.285-3.211c0-1.013-0.076-2.001-0.228-2.964
			C154.011,105.544,153.745,104.695,153.365,103.96z"/>
		<path style="display:inline;fill:#FFFFFF;" d="M238.902,114.834c0,0-81.574-24.463-82.726-24.808
			c-1.448-0.433-3.309-0.183-3.953,0.25c-0.753,0.506-29.458,19.558-29.458,19.558c-4,2.667-4,2.791-4,5v5.667c0,2.209,1.791,4,4,4
			h116.137c2.209,0,4-1.791,4-4v-1.667C242.902,116.625,241.74,115.936,238.902,114.834z M158.324,115.038
			c-0.545,1.533-1.299,2.78-2.261,3.743c-0.963,0.963-2.109,1.667-3.439,2.109s-2.793,0.665-4.389,0.665
			c-0.836,0-1.653-0.045-2.451-0.133c-0.798-0.089-1.653-0.234-2.565-0.437V98.033c1.064-0.228,2.065-0.38,3.002-0.456
			c0.937-0.076,1.811-0.114,2.622-0.114c1.545,0,2.958,0.228,4.237,0.684c1.279,0.456,2.362,1.172,3.249,2.147
			c0.886,0.976,1.577,2.217,2.071,3.724c0.494,1.507,0.741,3.325,0.741,5.453C159.141,111.649,158.868,113.505,158.324,115.038z
			 M167.272,115.684c0.887,1.33,2.191,1.995,3.914,1.995c0.278,0,0.583-0.013,0.912-0.038c0.329-0.025,0.633-0.063,0.912-0.114
			v-8.588h4.674v11.742c-0.558,0.203-1.425,0.431-2.603,0.684c-1.178,0.253-2.603,0.38-4.275,0.38c-1.47,0-2.793-0.26-3.971-0.779
			c-1.178-0.519-2.185-1.292-3.021-2.318s-1.482-2.305-1.938-3.838c-0.456-1.533-0.684-3.312-0.684-5.339
			c0-2.001,0.266-3.768,0.798-5.301c0.532-1.532,1.254-2.818,2.166-3.857c0.912-1.039,1.988-1.817,3.23-2.337
			c1.241-0.519,2.571-0.779,3.99-0.779c0.912,0,1.729,0.07,2.451,0.209c0.722,0.14,1.349,0.298,1.881,0.475
			c0.532,0.178,0.969,0.368,1.311,0.57s0.602,0.355,0.779,0.456l-1.216,3.724c-0.558-0.354-1.242-0.671-2.052-0.95
			c-0.811-0.279-1.647-0.418-2.508-0.418c-1.115,0-2.052,0.203-2.812,0.608c-0.76,0.405-1.387,0.969-1.881,1.691
			s-0.849,1.583-1.064,2.584c-0.216,1.001-0.323,2.109-0.323,3.325C165.942,112.283,166.385,114.354,167.272,115.684z"/>
	</g>
	<g id="Erde_4_">
		<g>
			<g>
				<g>
					<path style="fill:#FFFFFF;" d="M98.499,281.445c0.667,0,1.333,0,2,0c1.908,0,3.5-1.592,3.5-3.5s-1.592-3.5-3.5-3.5
						c-0.667,0-1.333,0-2,0c-1.908,0-3.5,1.592-3.5,3.5S96.591,281.445,98.499,281.445L98.499,281.445z"/>
				</g>
			</g>
			<g>
				<g>
					<path style="fill:#FFFFFF;" d="M73.833,287.445c5.333,0,10.667,0,16,0c4.514,0,4.514-7,0-7c-5.333,0-10.667,0-16,0
						C69.319,280.445,69.319,287.445,73.833,287.445L73.833,287.445z"/>
				</g>
			</g>
			<g>
				<g>
					<path style="fill:#FFFFFF;" d="M85.833,276.445c5.083,0,10.167,0,15.25,0c4.514,0,4.514-7,0-7c-5.083,0-10.167,0-15.25,0
						C81.318,269.445,81.318,276.445,85.833,276.445L85.833,276.445z"/>
				</g>
			</g>
			<g>
				<g>
					<path style="fill:#FFFFFF;" d="M94.416,291.834c2,0,4,0,6,0c1.908,0,3.5-1.592,3.5-3.5s-1.592-3.5-3.5-3.5c-2,0-4,0-6,0
						c-1.908,0-3.5,1.592-3.5,3.5S92.508,291.834,94.416,291.834L94.416,291.834z"/>
				</g>
			</g>
			<g>
				<g>
					<path style="fill:#FFFFFF;" d="M88.083,260.612c-3,0-6,0-9,0c-4.514,0-4.514,7,0,7c3,0,6,0,9,0
						C92.597,267.612,92.597,260.612,88.083,260.612L88.083,260.612z"/>
				</g>
			</g>
			<g>
				<g>
					<path style="fill:#FFFFFF;" d="M101.083,244.612c-5.333,0-10.667,0-16,0c-4.514,0-4.514,7,0,7c5.333,0,10.667,0,16,0
						C105.597,251.612,105.597,244.612,101.083,244.612L101.083,244.612z"/>
				</g>
			</g>
			<g>
				<g>
					<path style="fill:#FFFFFF;" d="M100.416,249.612c-2,0-4,0-6,0c-1.908,0-3.5,1.592-3.5,3.5s1.592,3.5,3.5,3.5c2,0,4,0,6,0
						c1.908,0,3.5-1.592,3.5-3.5S102.324,249.612,100.416,249.612L100.416,249.612z"/>
				</g>
			</g>
			<g>
				<g>
					<path style="fill:#FFFFFF;" d="M80.708,245.945c-1.083,0-2.167,0-3.25,0c-1.908,0-3.5,1.592-3.5,3.5s1.592,3.5,3.5,3.5
						c1.083,0,2.167,0,3.25,0c1.908,0,3.5-1.592,3.5-3.5S82.615,245.945,80.708,245.945L80.708,245.945z"/>
				</g>
			</g>
			<g>
				<g>
					<path style="fill:#FFFFFF;" d="M98.25,267.612c0.667,0,1.333,0,2,0c1.908,0,3.5-1.592,3.5-3.5s-1.592-3.5-3.5-3.5
						c-0.667,0-1.333,0-2,0c-1.908,0-3.5,1.592-3.5,3.5S96.342,267.612,98.25,267.612L98.25,267.612z"/>
				</g>
			</g>
			<g>
				<g>
					<path style="fill:#FFFFFF;" d="M77.583,284.834c-0.667,0-1.333,0-2,0c-1.908,0-3.5,1.592-3.5,3.5s1.592,3.5,3.5,3.5
						c0.667,0,1.333,0,2,0c1.908,0,3.5-1.592,3.5-3.5S79.491,284.834,77.583,284.834L77.583,284.834z"/>
				</g>
			</g>
			<g>
				<g>
					<path style="fill:#FFFFFF;" d="M71.667,245.25c10.778,0,21.555,0,32.333,0c1.935,0,1.935-3,0-3c-10.778,0-21.555,0-32.333,0
						C69.732,242.25,69.732,245.25,71.667,245.25L71.667,245.25z"/>
				</g>
			</g>
			<g>
				<g>
					<path style="fill:#FFFFFF;" d="M79.832,252.167c-2,0-4,0-6,0c-1.908,0-3.5,1.592-3.5,3.5s1.592,3.5,3.5,3.5c2,0,4,0,6,0
						c1.908,0,3.5-1.592,3.5-3.5S81.739,252.167,79.832,252.167L79.832,252.167z"/>
				</g>
			</g>
			<g>
				<g>
					<path style="fill:#FFFFFF;" d="M78.832,271.445c-1.833,0-3.667,0-5.5,0c-1.908,0-3.5,1.592-3.5,3.5s1.592,3.5,3.5,3.5
						c1.833,0,3.667,0,5.5,0c1.908,0,3.5-1.592,3.5-3.5S80.739,271.445,78.832,271.445L78.832,271.445z"/>
				</g>
			</g>
		</g>
		<g>
			<g>
				<g>
					<path style="fill:#FFFFFF;" d="M258.334,245.25c10.61,0,21.222,0,31.832,0c1.935,0,1.935-3,0-3c-10.61,0-21.222,0-31.832,0
						C256.399,242.25,256.399,245.25,258.334,245.25L258.334,245.25z"/>
				</g>
			</g>
			<g>
				<g>
					<path style="fill:#FFFFFF;" d="M279.25,276.445c3,0,6,0,9,0c4.514,0,4.514-7,0-7c-3,0-6,0-9,0
						C274.736,269.445,274.736,276.445,279.25,276.445L279.25,276.445z"/>
				</g>
			</g>
			<g>
				<g>
					<path style="fill:#FFFFFF;" d="M260.583,291.682c5.333,0,10.667,0,16,0c4.514,0,4.514-7,0-7c-5.333,0-10.667,0-16,0
						C256.069,284.682,256.069,291.682,260.583,291.682L260.583,291.682z"/>
				</g>
			</g>
			<g>
				<g>
					<path style="fill:#FFFFFF;" d="M260.917,280.445c2,0,4,0,6,0c1.908,0,3.5-1.592,3.5-3.5s-1.592-3.5-3.5-3.5c-2,0-4,0-6,0
						c-1.908,0-3.5,1.592-3.5,3.5S259.009,280.445,260.917,280.445L260.917,280.445z"/>
				</g>
			</g>
			<g>
				<g>
					<path style="fill:#FFFFFF;" d="M274.25,287.445c0.667,0,1.333,0,2,0c1.908,0,3.5-1.592,3.5-3.5s-1.592-3.5-3.5-3.5
						c-0.667,0-1.333,0-2,0c-1.908,0-3.5,1.592-3.5,3.5S272.342,287.445,274.25,287.445L274.25,287.445z"/>
				</g>
			</g>
			<g>
				<g>
					<path style="fill:#FFFFFF;" d="M268.417,264.445c-2,0-4,0-6,0c-1.908,0-3.5,1.592-3.5,3.5s1.592,3.5,3.5,3.5c2,0,4,0,6,0
						c1.908,0,3.5-1.592,3.5-3.5S270.325,264.445,268.417,264.445L268.417,264.445z"/>
				</g>
			</g>
			<g>
				<g>
					<path style="fill:#FFFFFF;" d="M262.834,249.612c-0.667,0-1.333,0-2,0c-1.908,0-3.5,1.592-3.5,3.5s1.592,3.5,3.5,3.5
						c0.667,0,1.333,0,2,0c1.908,0,3.5-1.592,3.5-3.5S264.742,249.612,262.834,249.612L262.834,249.612z"/>
				</g>
			</g>
			<g>
				<g>
					<path style="fill:#FFFFFF;" d="M286.5,252.612c-5.333,0-10.667,0-16,0c-4.514,0-4.514,7,0,7c5.333,0,10.667,0,16,0
						C291.014,259.612,291.014,252.612,286.5,252.612L286.5,252.612z"/>
				</g>
			</g>
			<g>
				<g>
					<path style="fill:#FFFFFF;" d="M277.5,260.612c-5.083,0-10.167,0-15.25,0c-4.514,0-4.514,7,0,7c5.083,0,10.167,0,15.25,0
						C282.014,267.612,282.014,260.612,277.5,260.612L277.5,260.612z"/>
				</g>
			</g>
			<g>
				<g>
					<path style="fill:#FFFFFF;" d="M283.834,247.612c-2,0-4,0-6,0c-1.908,0-3.5,1.592-3.5,3.5s1.592,3.5,3.5,3.5c2,0,4,0,6,0
						c1.908,0,3.5-1.592,3.5-3.5S285.742,247.612,283.834,247.612L283.834,247.612z"/>
				</g>
			</g>
			<g>
				<g>
					<path style="fill:#FFFFFF;" d="M266.5,244.612c-2,0-4,0-6,0c-1.908,0-3.5,1.592-3.5,3.5s1.592,3.5,3.5,3.5c2,0,4,0,6,0
						c1.908,0,3.5-1.592,3.5-3.5S268.408,244.612,266.5,244.612L266.5,244.612z"/>
				</g>
			</g>
			<g>
				<g>
					<path style="fill:#FFFFFF;" d="M288.5,278.445c-2,0-4,0-6,0c-1.908,0-3.5,1.592-3.5,3.5s1.592,3.5,3.5,3.5c2,0,4,0,6,0
						c1.908,0,3.5-1.592,3.5-3.5S290.408,278.445,288.5,278.445L288.5,278.445z"/>
				</g>
			</g>
			<g>
				<g>
					<path style="fill:#FFFFFF;" d="M287.834,244.612c-2,0-4,0-6,0c-1.908,0-3.5,1.592-3.5,3.5s1.592,3.5,3.5,3.5c2,0,4,0,6,0
						c1.908,0,3.5-1.592,3.5-3.5S289.742,244.612,287.834,244.612L287.834,244.612z"/>
				</g>
			</g>
			<g>
				<g>
					<path style="fill:#FFFFFF;" d="M285.834,291.682c0.667,0,1.333,0,2,0c1.908,0,3.5-1.592,3.5-3.5s-1.592-3.5-3.5-3.5
						c-0.667,0-1.333,0-2,0c-1.908,0-3.5,1.592-3.5,3.5S283.926,291.682,285.834,291.682L285.834,291.682z"/>
				</g>
			</g>
		</g>
	</g>
</g>
<g id="Ebene_1">
</g>
</svg>
