<?xml version="1.0" encoding="iso-8859-1"?>
<!-- Generator: Adobe Illustrator 16.0.0, SVG Export Plug-In . SVG Version: 6.00 Build 0)  -->
<!DOCTYPE svg PUBLIC "-//W3C//DTD SVG 1.1//EN" "http://www.w3.org/Graphics/SVG/1.1/DTD/svg11.dtd">
<svg version="1.1" xmlns="http://www.w3.org/2000/svg" xmlns:xlink="http://www.w3.org/1999/xlink" x="0px" y="0px" width="361px"
	 height="361px" viewBox="0 0 361 361" style="enable-background:new 0 0 361 361;" xml:space="preserve">
<g id="control_x5F_centr_x5F_arrow_x5F_up">
	<g>
		<path style="fill:none;stroke:#FFFFFF;stroke-width:10;stroke-miterlimit:10;" d="M231.816,217.54
			c2.929,0,5.303,0.741,5.303,1.654v28.69c0,0.914-2.374,1.655-5.303,1.655H128.421c-2.928,0-5.302-0.741-5.302-1.655v-28.69
			c0-0.913,2.374-1.654,5.302-1.654H231.816z"/>
		<g>
			<g>
				<path style="fill:#FFFFFF;" d="M104.872,219.354c26.75-35,53.501-70,80.252-105c-2.878,0-5.756,0-8.635,0
					c26.75,35,53.501,70,80.251,105c1.439-2.508,2.878-5.016,4.317-7.523c-49.383,0-98.765,0-148.147,0c-4.119,0-8.237,0-12.355,0
					c-6.449,0-6.449,10,0,10c49.382,0,98.765,0,148.147,0c4.118,0,8.237,0,12.355,0c3.436,0,6.707-4.396,4.317-7.523
					c-26.75-35-53.501-70-80.251-105c-2.429-3.178-6.206-3.178-8.635,0c-26.75,35-53.501,70-80.252,105
					C92.32,219.433,101.012,224.404,104.872,219.354z"/>
			</g>
		</g>
	</g>
</g>
<g id="Ebene_1">
</g>
</svg>
