<?xml version="1.0" encoding="iso-8859-1"?>
<!-- Generator: Adobe Illustrator 16.0.0, SVG Export Plug-In . SVG Version: 6.00 Build 0)  -->
<!DOCTYPE svg PUBLIC "-//W3C//DTD SVG 1.1//EN" "http://www.w3.org/Graphics/SVG/1.1/DTD/svg11.dtd">
<svg version="1.1" xmlns="http://www.w3.org/2000/svg" xmlns:xlink="http://www.w3.org/1999/xlink" x="0px" y="0px" width="361px"
	 height="361px" viewBox="0 0 361 361" style="enable-background:new 0 0 361 361;" xml:space="preserve">
<g id="control_x5F_building_x5F_flat_x5F_s_x5F_mkg_x5F_eg">
	<path id="KG_66_" style="display:none;fill:#FFFFFF;" d="M246.885,205.817h-139.16c-2.636,0-4.772,2.208-4.772,4.931v39.033
		c0,2.724,2.136,4.932,4.772,4.932h139.16c2.635,0,4.771-2.208,4.771-4.932v-39.033C251.656,208.025,249.52,205.817,246.885,205.817
		z M170.029,246.518c-0.355-1.129-0.864-2.348-1.524-3.653c-0.662-1.307-1.396-2.581-2.202-3.823
		c-0.807-1.24-1.653-2.402-2.541-3.483s-1.734-1.991-2.54-2.733v13.693h-5.952v-29.951h5.952v12.436
		c0.709-0.902,1.452-1.904,2.226-3c0.774-1.096,1.508-2.193,2.202-3.291c0.693-1.096,1.331-2.177,1.911-3.241
		c0.581-1.065,1.064-2.032,1.452-2.903h6.726c-0.453,0.871-0.993,1.862-1.622,2.977c-0.629,1.112-1.347,2.273-2.153,3.482
		c-0.807,1.211-1.669,2.443-2.589,3.702c-0.918,1.258-1.879,2.468-2.878,3.629c1,0.968,2.015,2.081,3.049,3.339
		c1.032,1.258,2.007,2.605,2.927,4.04c0.918,1.436,1.749,2.903,2.492,4.403c0.742,1.5,1.337,2.959,1.79,4.379H170.029z
		 M186.335,239.43c1.129,1.692,2.79,2.54,4.983,2.54c0.354,0,0.742-0.017,1.162-0.049c0.418-0.032,0.805-0.08,1.16-0.146V230.84
		h5.951v14.951c-0.709,0.259-1.813,0.549-3.313,0.871s-3.314,0.484-5.443,0.484c-1.871,0-3.558-0.332-5.057-0.992
		c-1.5-0.66-2.782-1.646-3.847-2.951c-1.064-1.307-1.887-2.936-2.468-4.887c-0.581-1.952-0.871-4.218-0.871-6.799
		c0-2.549,0.338-4.798,1.016-6.75c0.677-1.951,1.597-3.588,2.758-4.911c1.161-1.321,2.531-2.313,4.113-2.976
		c1.58-0.66,3.273-0.992,5.08-0.992c1.161,0,2.201,0.09,3.12,0.267c0.92,0.177,1.718,0.379,2.396,0.604
		c0.678,0.227,1.233,0.469,1.67,0.727c0.436,0.258,0.766,0.451,0.992,0.58l-1.549,4.741c-0.71-0.45-1.581-0.854-2.613-1.21
		c-1.033-0.354-2.098-0.531-3.193-0.531c-1.42,0-2.612,0.258-3.58,0.773c-0.968,0.518-1.767,1.234-2.396,2.154
		s-1.081,2.016-1.354,3.29c-0.275,1.274-0.411,2.685-0.411,4.233C184.642,235.098,185.205,237.735,186.335,239.43z"/>
	<g id="OG_62_" style="display:none;">
		<path style="display:inline;fill:#FFFFFF;" d="M167.671,110.718c-0.338-0.933-0.813-1.673-1.424-2.22
			c-0.612-0.547-1.433-0.821-2.462-0.821s-1.851,0.274-2.462,0.821c-0.612,0.547-1.086,1.296-1.424,2.245
			c-0.337,0.95-0.563,2.052-0.675,3.307c-0.113,1.254-0.169,2.606-0.169,4.055c0,1.448,0.056,2.808,0.169,4.079
			c0.112,1.272,0.338,2.374,0.675,3.307c0.338,0.934,0.813,1.674,1.424,2.221c0.611,0.547,1.432,0.821,2.462,0.821
			c0.998,0,1.811-0.273,2.438-0.821c0.628-0.547,1.11-1.295,1.449-2.245c0.337-0.95,0.562-2.052,0.675-3.307
			c0.112-1.255,0.169-2.607,0.169-4.055c0-1.448-0.057-2.807-0.169-4.079C168.233,112.754,168.008,111.652,167.671,110.718z"/>
		<path style="display:inline;fill:#FFFFFF;" d="M103.254,102.999v33.944c0,2.716,2.131,4.919,4.761,4.919h138.842
			c2.629,0,4.761-2.203,4.761-4.919V90.999c0-2.716-2.132-4.919-4.761-4.919l-138.842,12
			C105.386,98.08,103.254,100.283,103.254,102.999z M171.75,129.762c-1.867,2.624-4.506,3.935-7.917,3.935
			c-3.508,0-6.188-1.311-8.038-3.935c-1.851-2.623-2.776-6.509-2.776-11.658c0-5.148,0.949-9.035,2.848-11.659
			c1.899-2.622,4.538-3.934,7.917-3.934c3.508,0,6.18,1.312,8.014,3.934c1.834,2.624,2.751,6.51,2.751,11.659
			C174.55,123.253,173.616,127.14,171.75,129.762z M184.881,125.997c1.126,1.689,2.783,2.535,4.973,2.535
			c0.354,0,0.739-0.016,1.158-0.048c0.418-0.032,0.804-0.08,1.158-0.145v-10.91h5.938v14.917c-0.708,0.258-1.811,0.547-3.307,0.869
			c-1.496,0.321-3.307,0.482-5.43,0.482c-1.867,0-3.549-0.331-5.045-0.989c-1.498-0.66-2.776-1.642-3.839-2.945
			c-1.062-1.303-1.883-2.928-2.462-4.875c-0.579-1.947-0.869-4.208-0.869-6.783c0-2.542,0.337-4.787,1.014-6.734
			c0.676-1.947,1.593-3.58,2.752-4.9c1.159-1.319,2.526-2.309,4.103-2.969c1.576-0.66,3.266-0.99,5.068-0.99
			c1.158,0,2.197,0.089,3.114,0.265c0.917,0.178,1.714,0.379,2.39,0.604c0.676,0.226,1.23,0.467,1.666,0.724
			c0.434,0.258,0.764,0.451,0.989,0.58l-1.546,4.731c-0.707-0.45-1.576-0.853-2.605-1.207c-1.031-0.354-2.093-0.531-3.187-0.531
			c-1.417,0-2.606,0.258-3.572,0.772c-0.966,0.515-1.763,1.231-2.39,2.148c-0.627,0.917-1.078,2.012-1.352,3.283
			c-0.273,1.272-0.41,2.679-0.41,4.224C183.191,121.676,183.754,124.308,184.881,125.997z"/>
	</g>
	<path id="EG_96_" style="fill:#FFFFFF;" d="M103.119,153.826v39.563c0,2.759,2.136,4.997,4.77,4.997h139.096
		c2.634,0,4.77-2.238,4.77-4.997v-39.563c0-2.759-2.136-4.997-4.77-4.997H107.888C105.254,148.829,103.119,151.067,103.119,153.826z
		 M174.178,188.621h-19.2v-30.357h18.136v5.002h-12.187v6.817h10.592v5.003h-10.592v8.534h13.251V188.621z M185.156,181.436
		c1.128,1.717,2.788,2.575,4.981,2.575c0.354,0,0.741-0.016,1.16-0.049c0.419-0.032,0.806-0.081,1.161-0.147v-11.083h5.949v15.154
		c-0.71,0.262-1.814,0.557-3.313,0.884c-1.499,0.326-3.313,0.489-5.44,0.489c-1.871,0-3.555-0.336-5.055-1.004
		c-1.5-0.67-2.78-1.669-3.844-2.992c-1.064-1.324-1.887-2.975-2.467-4.953s-0.87-4.274-0.87-6.891c0-2.583,0.338-4.863,1.016-6.842
		c0.677-1.978,1.596-3.637,2.757-4.978c1.161-1.34,2.53-2.346,4.11-3.016c1.58-0.67,3.271-1.005,5.078-1.005
		c1.161,0,2.201,0.09,3.119,0.269c0.92,0.18,1.717,0.385,2.395,0.613c0.677,0.229,1.233,0.475,1.669,0.736
		c0.435,0.262,0.765,0.458,0.991,0.588l-1.549,4.807c-0.708-0.458-1.578-0.866-2.61-1.226c-1.032-0.359-2.097-0.539-3.192-0.539
		c-1.419,0-2.611,0.262-3.578,0.784c-0.967,0.523-1.766,1.251-2.395,2.182c-0.629,0.933-1.08,2.044-1.354,3.335
		c-0.274,1.292-0.412,2.722-0.412,4.292C183.463,177.047,184.027,179.72,185.156,181.436z"/>
	<g id="Haus_84_">
		<g>
			<g>
				<path style="fill:#FFFFFF;" d="M90.042,259.981c1.507,9.67,13.562,7.561,20.607,7.561c13.053,0,26.105,0,39.158,0
					c30.174,0,60.349,0,90.523,0c6.024,0,14.784,1.54,20.345-1.433c5.798-3.102,4.016-14.205,4.016-19.563
					c0.001-28.417,0.002-56.833,0.003-85.25c0.001-28.128,0.002-56.255,0.003-84.383c0-2.543-2.281-5.242-5-5
					c-49.242,4.375-98.484,8.751-147.726,13.126c-5.176,0.46-17.919-0.306-20.699,5.255c-2.796,5.593-1.408,13.813-1.408,19.837
					c0,29.807,0,59.613,0,89.42c0,19.7,0,39.4,0,59.101c0,6.448,10,6.448,10,0c0-49.507,0-99.014,0-148.521
					c0-3.881,0-7.763,0-11.645c0-0.91,0-1.82,0-2.731c0-1.458-1.13,0.46-1.038,0.452c6.939-0.616,13.878-1.233,20.818-1.85
					c30.66-2.724,61.32-5.449,91.98-8.173c16.024-1.424,32.048-2.848,48.072-4.271c-1.667-1.667-3.333-3.333-5-5
					c-0.002,49.901-0.003,99.802-0.005,149.704c0,9.46-0.001,18.921-0.001,28.382c0,0.931,0,1.86,0,2.791
					c0,1.715-0.087-0.249,1.164-0.249c-2.015,0-4.028,0-6.042,0c-27.504,0-55.007,0-82.51,0c-15.914,0-31.827,0-47.74,0
					c-5.078,0-10.155,0-15.233,0c-1.37,0-2.74,0-4.11,0c-2.392,0-0.5-0.002-0.535-0.219
					C98.694,250.967,89.059,253.675,90.042,259.981z"/>
			</g>
		</g>
		<g>
			<line style="fill:#FFFFFF;" x1="250.312" y1="145.367" x2="103.292" y2="145.367"/>
			<g>
				<path style="fill:#FFFFFF;" d="M250.312,143.867c-47.763,0-95.526,0-143.29,0c-1.243,0-2.487,0-3.73,0c-1.935,0-1.935,3,0,3
					c47.763,0,95.526,0,143.289,0c1.244,0,2.487,0,3.73,0C252.246,146.867,252.246,143.867,250.312,143.867L250.312,143.867z"/>
			</g>
		</g>
		<g>
			<g>
				<path style="fill:#FFFFFF;" d="M283.363,69.664c-48.87,4.25-97.74,8.501-146.61,12.752c-19.529,1.699-39.057,3.397-58.586,5.096
					c-6.373,0.554-6.427,10.559,0,10c48.87-4.25,97.74-8.501,146.61-12.752c19.528-1.699,39.058-3.397,58.586-5.096
					C289.736,79.11,289.791,69.105,283.363,69.664L283.363,69.664z"/>
			</g>
		</g>
		<g>
			<line style="fill:#FFFFFF;" x1="250.945" y1="201.941" x2="103.926" y2="201.941"/>
			<g>
				<path style="fill:#FFFFFF;" d="M250.945,200.441c-47.763,0-95.526,0-143.289,0c-1.243,0-2.487,0-3.73,0c-1.935,0-1.935,3,0,3
					c47.763,0,95.526,0,143.289,0c1.244,0,2.487,0,3.73,0C252.88,203.441,252.88,200.441,250.945,200.441L250.945,200.441z"/>
			</g>
		</g>
	</g>
	<g id="Erde_33_">
		<g>
			<g>
				<path style="fill:#FFFFFF;" d="M268.833,240.59c7.208,0,14.417,0,21.625,0c1.935,0,1.935-3,0-3c-7.208,0-14.417,0-21.625,0
					C266.898,237.59,266.898,240.59,268.833,240.59L268.833,240.59z"/>
			</g>
		</g>
		<g>
			<g>
				<path style="fill:#FFFFFF;" d="M283.391,281.786c1.531,0,3.063,0,4.595,0c1.908,0,3.5-1.592,3.5-3.5s-1.592-3.5-3.5-3.5
					c-1.531,0-3.063,0-4.595,0c-1.908,0-3.5,1.592-3.5,3.5S281.482,281.786,283.391,281.786L283.391,281.786z"/>
			</g>
		</g>
		<g>
			<g>
				<path style="fill:#FFFFFF;" d="M256.666,291.786c5.333,0,10.667,0,16,0c4.514,0,4.514-7,0-7c-5.333,0-10.667,0-16,0
					C252.152,284.786,252.152,291.786,256.666,291.786L256.666,291.786z"/>
			</g>
		</g>
		<g>
			<g>
				<path style="fill:#FFFFFF;" d="M268.25,285.786c2,0,4,0,6,0c1.908,0,3.5-1.592,3.5-3.5s-1.592-3.5-3.5-3.5c-2,0-4,0-6,0
					c-1.908,0-3.5,1.592-3.5,3.5S266.342,285.786,268.25,285.786L268.25,285.786z"/>
			</g>
		</g>
		<g>
			<g>
				<path style="fill:#FFFFFF;" d="M286.584,291.786c0.667,0,1.333,0,2,0c1.908,0,3.5-1.592,3.5-3.5s-1.592-3.5-3.5-3.5
					c-0.667,0-1.333,0-2,0c-1.908,0-3.5,1.592-3.5,3.5S284.676,291.786,286.584,291.786L286.584,291.786z"/>
			</g>
		</g>
		<g>
			<g>
				<path style="fill:#FFFFFF;" d="M267.666,271.474c-2,0-4,0-6,0c-1.908,0-3.5,1.592-3.5,3.5s1.592,3.5,3.5,3.5c2,0,4,0,6,0
					c1.908,0,3.5-1.592,3.5-3.5S269.574,271.474,267.666,271.474L267.666,271.474z"/>
			</g>
		</g>
		<g>
			<g>
				<path style="fill:#FFFFFF;" d="M288.5,257.953c-5.222,0-10.444,0-15.666,0c-4.514,0-4.514,7,0,7c5.222,0,10.444,0,15.666,0
					C293.014,264.953,293.014,257.953,288.5,257.953L288.5,257.953z"/>
			</g>
		</g>
		<g>
			<g>
				<path style="fill:#FFFFFF;" d="M284.834,265.953c-5.083,0-10.167,0-15.25,0c-4.514,0-4.514,7,0,7c5.083,0,10.167,0,15.25,0
					C289.348,272.953,289.348,265.953,284.834,265.953L284.834,265.953z"/>
			</g>
		</g>
		<g>
			<g>
				<path style="fill:#FFFFFF;" d="M288.168,251.953c-1.89,0-3.778,0-5.668,0c-1.908,0-3.5,1.592-3.5,3.5s1.592,3.5,3.5,3.5
					c1.89,0,3.778,0,5.668,0c1.908,0,3.5-1.592,3.5-3.5S290.076,251.953,288.168,251.953L288.168,251.953z"/>
			</g>
		</g>
		<g>
			<g>
				<path style="fill:#FFFFFF;" d="M273.501,253.62c-1.306,0-2.611,0-3.917,0c-1.908,0-3.5,1.592-3.5,3.5s1.592,3.5,3.5,3.5
					c1.306,0,2.611,0,3.917,0c1.908,0,3.5-1.592,3.5-3.5S275.409,253.62,273.501,253.62L273.501,253.62z"/>
			</g>
		</g>
		<g>
			<g>
				<path style="fill:#FFFFFF;" d="M287.833,269.953c-0.222,0-0.443,0-0.665,0c-1.908,0-3.5,1.592-3.5,3.5s1.592,3.5,3.5,3.5
					c0.222,0,0.443,0,0.665,0c1.908,0,3.5-1.592,3.5-3.5S289.741,269.953,287.833,269.953L287.833,269.953z"/>
			</g>
		</g>
		<g>
			<g>
				<path style="fill:#FFFFFF;" d="M73.75,282.89c2.337,0,4.673,0,7.01,0c4.514,0,4.514-7,0-7c-2.337,0-4.673,0-7.01,0
					C69.235,275.89,69.235,282.89,73.75,282.89L73.75,282.89z"/>
			</g>
		</g>
		<g>
			<g>
				<path style="fill:#FFFFFF;" d="M100.271,279.89c2.581,0,5.161,0,7.741,0c4.514,0,4.514-7,0-7c-2.581,0-5.161,0-7.741,0
					C95.756,272.89,95.756,279.89,100.271,279.89L100.271,279.89z"/>
			</g>
		</g>
		<g>
			<g>
				<path style="fill:#FFFFFF;" d="M122.069,291.786c2,0,4,0,6,0c1.908,0,3.5-1.592,3.5-3.5s-1.592-3.5-3.5-3.5c-2,0-4,0-6,0
					c-1.908,0-3.5,1.592-3.5,3.5S120.161,291.786,122.069,291.786L122.069,291.786z"/>
			</g>
		</g>
		<g>
			<g>
				<path style="fill:#FFFFFF;" d="M246.238,284.277c-3,0-6.001,0-9.001,0c-4.514,0-4.514,7,0,7c3,0,6.001,0,9.001,0
					C250.752,291.277,250.752,284.277,246.238,284.277L246.238,284.277z"/>
			</g>
		</g>
		<g>
			<g>
				<path style="fill:#FFFFFF;" d="M259.237,269.277c-5.333,0-10.667,0-16,0c-4.514,0-4.514,7,0,7c5.333,0,10.667,0,16,0
					C263.751,276.277,263.751,269.277,259.237,269.277L259.237,269.277z"/>
			</g>
		</g>
		<g>
			<g>
				<path style="fill:#FFFFFF;" d="M85.083,250.578c-3.736,0-7.473,0-11.209,0c-4.514,0-4.514,7,0,7c3.736,0,7.473,0,11.209,0
					C89.597,257.578,89.597,250.578,85.083,250.578L85.083,250.578z"/>
			</g>
		</g>
		<g>
			<g>
				<path style="fill:#FFFFFF;" d="M76.583,275.953c0.667,0,1.333,0,2,0c1.908,0,3.5-1.592,3.5-3.5s-1.592-3.5-3.5-3.5
					c-0.667,0-1.333,0-2,0c-1.908,0-3.5,1.592-3.5,3.5S74.675,275.953,76.583,275.953L76.583,275.953z"/>
			</g>
		</g>
		<g>
			<g>
				<path style="fill:#FFFFFF;" d="M93.584,276.277c-0.667,0-1.333,0-2,0c-1.908,0-3.5,1.592-3.5,3.5s1.592,3.5,3.5,3.5
					c0.667,0,1.333,0,2,0c1.908,0,3.5-1.592,3.5-3.5S95.492,276.277,93.584,276.277L93.584,276.277z"/>
			</g>
		</g>
		<g>
			<g>
				<path style="fill:#FFFFFF;" d="M71.416,240.59c4.917,0,9.833,0,14.75,0c1.935,0,1.935-3,0-3c-4.917,0-9.833,0-14.75,0
					C69.481,237.59,69.481,240.59,71.416,240.59L71.416,240.59z"/>
			</g>
		</g>
		<g>
			<g>
				<path style="fill:#FFFFFF;" d="M196.164,284.786c-2,0-4,0-6,0c-1.908,0-3.5,1.592-3.5,3.5s1.592,3.5,3.5,3.5c2,0,4,0,6,0
					c1.908,0,3.5-1.592,3.5-3.5S198.072,284.786,196.164,284.786L196.164,284.786z"/>
			</g>
		</g>
		<g>
			<g>
				<path style="fill:#FFFFFF;" d="M87.833,266.89c-1.833,0-3.667,0-5.5,0c-1.908,0-3.5,1.592-3.5,3.5s1.592,3.5,3.5,3.5
					c1.833,0,3.667,0,5.5,0c1.908,0,3.5-1.592,3.5-3.5S89.741,266.89,87.833,266.89L87.833,266.89z"/>
			</g>
		</g>
		<g>
			<g>
				<path style="fill:#FFFFFF;" d="M205.916,291.82c5.333,0,10.667,0,16,0c4.514,0,4.514-7,0-7c-5.333,0-10.667,0-16,0
					C201.402,284.82,201.402,291.82,205.916,291.82L205.916,291.82z"/>
			</g>
		</g>
		<g>
			<g>
				<path style="fill:#FFFFFF;" d="M221.375,277.729c2,0,4,0,6,0c1.908,0,3.5-1.592,3.5-3.5s-1.592-3.5-3.5-3.5c-2,0-4,0-6,0
					c-1.908,0-3.5,1.592-3.5,3.5S219.467,277.729,221.375,277.729L221.375,277.729z"/>
			</g>
		</g>
		<g>
			<g>
				<path style="fill:#FFFFFF;" d="M215.209,288.035c0.667,0,1.333,0,2,0c1.908,0,3.5-1.592,3.5-3.5s-1.592-3.5-3.5-3.5
					c-0.667,0-1.333,0-2,0c-1.908,0-3.5,1.592-3.5,3.5S213.301,288.035,215.209,288.035L215.209,288.035z"/>
			</g>
		</g>
		<g>
			<g>
				<path style="fill:#FFFFFF;" d="M233.834,278.584c-2,0-4,0-6,0c-1.908,0-3.5,1.592-3.5,3.5s1.592,3.5,3.5,3.5c2,0,4,0,6,0
					c1.908,0,3.5-1.592,3.5-3.5S235.742,278.584,233.834,278.584L233.834,278.584z"/>
			</g>
		</g>
		<g>
			<g>
				<path style="fill:#FFFFFF;" d="M135.882,271.917c-3,0-6,0-9,0c-4.514,0-4.514,7,0,7c3,0,6,0,9,0
					C140.396,278.917,140.396,271.917,135.882,271.917L135.882,271.917z"/>
			</g>
		</g>
		<g>
			<g>
				<path style="fill:#FFFFFF;" d="M152.402,271.786c-2,0-4,0-6,0c-1.908,0-3.5,1.592-3.5,3.5s1.592,3.5,3.5,3.5c2,0,4,0,6,0
					c1.908,0,3.5-1.592,3.5-3.5S154.31,271.786,152.402,271.786L152.402,271.786z"/>
			</g>
		</g>
		<g>
			<g>
				<path style="fill:#FFFFFF;" d="M144.902,291.786c2,0,4,0,6,0c1.908,0,3.5-1.592,3.5-3.5s-1.592-3.5-3.5-3.5c-2,0-4,0-6,0
					c-1.908,0-3.5,1.592-3.5,3.5S142.995,291.786,144.902,291.786L144.902,291.786z"/>
			</g>
		</g>
		<g>
			<g>
				<path style="fill:#FFFFFF;" d="M85.819,291.619c5.083,0,10.167,0,15.25,0c4.514,0,4.514-7,0-7c-5.083,0-10.167,0-15.25,0
					C81.305,284.619,81.305,291.619,85.819,291.619L85.819,291.619z"/>
			</g>
		</g>
		<g>
			<g>
				<path style="fill:#FFFFFF;" d="M178.251,276.584c3,0,6.001,0,9.001,0c4.514,0,4.514-7,0-7c-3,0-6.001,0-9.001,0
					C173.737,269.584,173.737,276.584,178.251,276.584L178.251,276.584z"/>
			</g>
		</g>
		<g>
			<g>
				<path style="fill:#FFFFFF;" d="M159.584,291.82c5.333,0,10.667,0,16,0c4.514,0,4.514-7,0-7c-5.333,0-10.667,0-16,0
					C155.07,284.82,155.07,291.82,159.584,291.82L159.584,291.82z"/>
			</g>
		</g>
		<g>
			<g>
				<path style="fill:#FFFFFF;" d="M154.902,283.786c2,0,4,0,6,0c1.908,0,3.5-1.592,3.5-3.5s-1.592-3.5-3.5-3.5c-2,0-4,0-6,0
					c-1.908,0-3.5,1.592-3.5,3.5S152.995,283.786,154.902,283.786L154.902,283.786z"/>
			</g>
		</g>
		<g>
			<g>
				<path style="fill:#FFFFFF;" d="M173.251,287.584c0.667,0,1.333,0,2,0c1.908,0,3.5-1.592,3.5-3.5s-1.592-3.5-3.5-3.5
					c-0.667,0-1.333,0-2,0c-1.908,0-3.5,1.592-3.5,3.5S171.344,287.584,173.251,287.584L173.251,287.584z"/>
			</g>
		</g>
		<g>
			<g>
				<path style="fill:#FFFFFF;" d="M192.001,278.584c-2,0-4,0-6,0c-1.908,0-3.5,1.592-3.5,3.5s1.592,3.5,3.5,3.5c2,0,4,0,6,0
					c1.908,0,3.5-1.592,3.5-3.5S193.909,278.584,192.001,278.584L192.001,278.584z"/>
			</g>
		</g>
		<g>
			<g>
				<path style="fill:#FFFFFF;" d="M146.902,279.786c5.333,0,10.667,0,16,0c4.514,0,4.514-7,0-7c-5.333,0-10.667,0-16,0
					C142.388,272.786,142.388,279.786,146.902,279.786L146.902,279.786z"/>
			</g>
		</g>
		<g>
			<g>
				<path style="fill:#FFFFFF;" d="M118.012,275.203c-3,0-6,0-9,0c-4.514,0-4.514,7,0,7c3,0,6,0,9,0
					C122.526,282.203,122.526,275.203,118.012,275.203L118.012,275.203z"/>
			</g>
		</g>
		<g>
			<g>
				<path style="fill:#FFFFFF;" d="M87.26,281.035c-1.833,0-3.667,0-5.5,0c-1.908,0-3.5,1.592-3.5,3.5s1.592,3.5,3.5,3.5
					c1.833,0,3.667,0,5.5,0c1.908,0,3.5-1.592,3.5-3.5S89.168,281.035,87.26,281.035L87.26,281.035z"/>
			</g>
		</g>
		<g>
			<g>
				<path style="fill:#FFFFFF;" d="M143.083,281.917c-0.667,0-1.333,0-2,0c-1.908,0-3.5,1.592-3.5,3.5s1.592,3.5,3.5,3.5
					c0.667,0,1.333,0,2,0c1.908,0,3.5-1.592,3.5-3.5S144.991,281.917,143.083,281.917L143.083,281.917z"/>
			</g>
		</g>
		<g>
			<g>
				<path style="fill:#FFFFFF;" d="M146.833,271.723c-0.667,0-1.333,0-2,0c-1.908,0-3.5,1.592-3.5,3.5s1.592,3.5,3.5,3.5
					c0.667,0,1.333,0,2,0c1.908,0,3.5-1.592,3.5-3.5S148.741,271.723,146.833,271.723L146.833,271.723z"/>
			</g>
		</g>
		<g>
			<g>
				<path style="fill:#FFFFFF;" d="M105.261,291.619c1.833,0,3.667,0,5.5,0c1.908,0,3.5-1.592,3.5-3.5s-1.592-3.5-3.5-3.5
					c-1.833,0-3.667,0-5.5,0c-1.908,0-3.5,1.592-3.5,3.5S103.354,291.619,105.261,291.619L105.261,291.619z"/>
			</g>
		</g>
		<g>
			<g>
				<path style="fill:#FFFFFF;" d="M73.332,290.667c0.667,0,1.333,0,2,0c1.908,0,3.5-1.592,3.5-3.5s-1.592-3.5-3.5-3.5
					c-0.667,0-1.333,0-2,0c-1.908,0-3.5,1.592-3.5,3.5S71.424,290.667,73.332,290.667L73.332,290.667z"/>
			</g>
		</g>
		<g>
			<g>
				<path style="fill:#FFFFFF;" d="M92.583,281.953c0.667,0,1.333,0,2,0c1.908,0,3.5-1.592,3.5-3.5s-1.592-3.5-3.5-3.5
					c-0.667,0-1.333,0-2,0c-1.908,0-3.5,1.592-3.5,3.5S90.675,281.953,92.583,281.953L92.583,281.953z"/>
			</g>
		</g>
		<g>
			<g>
				<path style="fill:#FFFFFF;" d="M103.833,272.89c-1.833,0-3.667,0-5.5,0c-1.908,0-3.5,1.592-3.5,3.5s1.592,3.5,3.5,3.5
					c1.833,0,3.667,0,5.5,0c1.908,0,3.5-1.592,3.5-3.5S105.741,272.89,103.833,272.89L103.833,272.89z"/>
			</g>
		</g>
		<g>
			<g>
				<path style="fill:#FFFFFF;" d="M250.834,283.292c0.667,0,1.333,0,2,0c1.908,0,3.5-1.592,3.5-3.5s-1.592-3.5-3.5-3.5
					c-0.667,0-1.333,0-2,0c-1.908,0-3.5,1.592-3.5,3.5S248.926,283.292,250.834,283.292L250.834,283.292z"/>
			</g>
		</g>
		<g>
			<g>
				<path style="fill:#FFFFFF;" d="M211.5,272.89c-3.722,0-7.444,0-11.166,0c-4.514,0-4.514,7,0,7c3.722,0,7.444,0,11.166,0
					C216.014,279.89,216.014,272.89,211.5,272.89L211.5,272.89z"/>
			</g>
		</g>
		<g>
			<g>
				<path style="fill:#FFFFFF;" d="M83.166,259.953c-3.278,0-6.556,0-9.833,0c-4.514,0-4.514,7,0,7c3.278,0,6.556,0,9.833,0
					C87.68,266.953,87.68,259.953,83.166,259.953L83.166,259.953z"/>
			</g>
		</g>
		<g>
			<g>
				<path style="fill:#FFFFFF;" d="M140.46,280.584c-3.722,0-7.444,0-11.166,0c-4.514,0-4.514,7,0,7c3.722,0,7.444,0,11.166,0
					C144.975,287.584,144.975,280.584,140.46,280.584L140.46,280.584z"/>
			</g>
		</g>
		<g>
			<g>
				<path style="fill:#FFFFFF;" d="M83.708,247.167c-1.889,0-3.778,0-5.667,0c-1.908,0-3.5,1.592-3.5,3.5s1.592,3.5,3.5,3.5
					c1.889,0,3.778,0,5.667,0c1.908,0,3.5-1.592,3.5-3.5S85.616,247.167,83.708,247.167L83.708,247.167z"/>
			</g>
		</g>
		<g>
			<g>
				<path style="fill:#FFFFFF;" d="M286.042,241.619c-5.223,0-10.444,0-15.667,0c-4.514,0-4.514,7,0,7c5.223,0,10.444,0,15.667,0
					C290.556,248.619,290.556,241.619,286.042,241.619L286.042,241.619z"/>
			</g>
		</g>
		<g>
			<g>
				<path style="fill:#FFFFFF;" d="M280.209,246.167c-2,0-4,0-6,0c-1.908,0-3.5,1.592-3.5,3.5s1.592,3.5,3.5,3.5c2,0,4,0,6,0
					c1.908,0,3.5-1.592,3.5-3.5S282.117,246.167,280.209,246.167L280.209,246.167z"/>
			</g>
		</g>
		<g>
			<g>
				<path style="fill:#FFFFFF;" d="M73.827,246.619c2.337,0,4.673,0,7.01,0c4.514,0,4.514-7,0-7c-2.337,0-4.673,0-7.01,0
					C69.313,239.619,69.313,246.619,73.827,246.619L73.827,246.619z"/>
			</g>
		</g>
	</g>
</g>
<g id="Ebene_1">
</g>
</svg>
