<?xml version="1.0" encoding="iso-8859-1"?>
<!-- Generator: Adobe Illustrator 16.0.3, SVG Export Plug-In . SVG Version: 6.00 Build 0)  -->
<!DOCTYPE svg PUBLIC "-//W3C//DTD SVG 1.1//EN" "http://www.w3.org/Graphics/SVG/1.1/DTD/svg11.dtd">
<svg version="1.1" xmlns="http://www.w3.org/2000/svg" xmlns:xlink="http://www.w3.org/1999/xlink" x="0px" y="0px" width="361px"
	 height="361px" viewBox="0 0 361 361" style="enable-background:new 0 0 361 361;" xml:space="preserve">
<g id="control_x5F_3dot_x5F_vert_x5F_f">
	<path style="fill:#FFFFFF;" d="M187.992,163.333H174.34c-6.065,0-11,4.935-11,11v13.334c0,6.065,4.935,11,11,11h13.652
		c6.066,0,11-4.935,11-11v-13.334C198.992,168.268,194.059,163.333,187.992,163.333z"/>
	<path style="fill:#FFFFFF;" d="M174.34,143.667h13.652c6.066,0,11-4.935,11-11v-13.334c0-6.065-4.934-11-11-11H174.34
		c-6.065,0-11,4.935-11,11v13.334C163.34,138.732,168.275,143.667,174.34,143.667z"/>
	<path style="fill:#FFFFFF;" d="M187.992,218.333H174.34c-6.065,0-11,4.935-11,11v13.334c0,6.065,4.935,11,11,11h13.652
		c6.066,0,11-4.935,11-11v-13.334C198.992,223.268,194.059,218.333,187.992,218.333z"/>
</g>
<g id="Ebene_1">
</g>
</svg>
