<?xml version="1.0" encoding="iso-8859-1"?>
<!-- Generator: Adobe Illustrator 16.0.0, SVG Export Plug-In . SVG Version: 6.00 Build 0)  -->
<!DOCTYPE svg PUBLIC "-//W3C//DTD SVG 1.1//EN" "http://www.w3.org/Graphics/SVG/1.1/DTD/svg11.dtd">
<svg version="1.1" xmlns="http://www.w3.org/2000/svg" xmlns:xlink="http://www.w3.org/1999/xlink" x="0px" y="0px" width="361px"
	 height="361px" viewBox="0 0 361 361" style="enable-background:new 0 0 361 361;" xml:space="preserve">
<g id="control_x5F_circuit_x5F_breaker_x5F_on">
	<path style="fill:none;stroke:#FFFFFF;stroke-width:10;stroke-miterlimit:10;" d="M157.081,287.417c-3.313,0-6-2.687-6-6v-201
		c0-3.313,2.687-6,6-6h47.5c3.313,0,6,2.687,6,6v201c0,3.313-2.687,6-6,6H157.081z"/>
	<g>
		<g>
			<path style="fill:#FFFFFF;" d="M176.765,104.512c-7.717-0.566-7.717-12.441,0-13.008c2.682-0.197,5.444,0,8.134,0
				c7.831,0,7.591,12.451,0,13.008C182.217,104.708,179.455,104.512,176.765,104.512c-4.514,0-4.514,7,0,7
				c7.645,0,15.276,0.639,19.565-7.097c4.932-8.895-1.985-19.217-11.432-19.911c-7.494-0.55-15.502-0.231-19.565,7.097
				c-4.932,8.895,1.986,19.218,11.432,19.911C181.271,111.842,181.238,104.84,176.765,104.512z"/>
		</g>
	</g>
	<path style="fill:none;stroke:#FFFFFF;stroke-width:10;stroke-miterlimit:10;" d="M157.081,235.334c-3.313,0-6-1.389-6-3.1V128.432
		c0-1.711,2.687-3.099,6-3.099h47.5c3.313,0,6,1.388,6,3.099v103.802c0,1.711-2.687,3.1-6,3.1H157.081z"/>
	<g>
		<g>
			<path style="fill:#FFFFFF;" d="M176.765,269.407c-7.717-0.566-7.717-12.441,0-13.008c2.682-0.196,5.444,0,8.134,0
				c7.831,0,7.591,12.451,0,13.008C182.217,269.604,179.455,269.407,176.765,269.407c-4.514,0-4.514,7,0,7
				c7.645,0,15.276,0.64,19.565-7.097c4.933-8.895-1.985-19.218-11.432-19.911c-7.494-0.55-15.502-0.231-19.565,7.097
				c-4.933,8.895,1.985,19.218,11.432,19.911C181.271,276.738,181.238,269.735,176.765,269.407z"/>
		</g>
	</g>
	<g>
		<path style="fill:#FFFFFF;" d="M200.166,218.111c0,1.309-1.061,2.371-2.371,2.371h-14.22c-1.31,0-2.371-1.063-2.371-2.371v-6.258
			c0-1.31,1.062-2.371,2.371-2.371h14.22c1.311,0,2.371,1.062,2.371,2.371V218.111z"/>
		<g>
			<path style="fill:#FFFFFF;" d="M198.72,217.713c-0.526,2.608-9.921,1.27-11.886,1.27c-1.102,0-4.13,0.586-4.13-1.27
				c0-1.918,0-3.836,0-5.754c0-1.89,10.544-0.977,11.832-0.977c1.102,0,4.13-0.586,4.13,1.27c0,1.953,0,3.906,0,5.859
				c0,1.935,3,1.935,3,0c0-2.505,0.257-5.116-0.24-7.579c-0.527-2.615-3.703-2.55-5.717-2.55c-3.35,0-6.698,0-10.048,0
				c-2.748,0-5.255,0.259-5.903,3.473c-0.405,2.003-0.405,5.052,0,7.055c0.649,3.214,3.155,3.473,5.903,3.473
				c3.35,0,6.698,0,10.048,0c2.748,0,5.255-0.259,5.903-3.473C201.993,216.621,199.103,215.817,198.72,217.713z"/>
		</g>
	</g>
	<g>
		<g>
			<g>
				<path style="fill:#FFFFFF;" d="M162.917,158.228c11.722,0,23.444,0,35.166,0c6.448,0,6.448-10,0-10c-11.722,0-23.444,0-35.166,0
					C156.468,148.228,156.468,158.228,162.917,158.228L162.917,158.228z"/>
			</g>
		</g>
		<path style="fill:#FFFFFF;" d="M193.627,157.666c0-1.209-0.979-2.188-2.188-2.188h-21.877c-1.209,0-2.188,0.979-2.188,2.188
			v25.461c0,1.209,0.979,2.188,2.188,2.188h21.877c1.209,0,2.188-0.979,2.188-2.188V157.666z"/>
	</g>
</g>
<g id="Ebene_1">
</g>
</svg>
