<?xml version="1.0" encoding="iso-8859-1"?>
<!-- Generator: Adobe Illustrator 16.0.0, SVG Export Plug-In . SVG Version: 6.00 Build 0)  -->
<!DOCTYPE svg PUBLIC "-//W3C//DTD SVG 1.1//EN" "http://www.w3.org/Graphics/SVG/1.1/DTD/svg11.dtd">
<svg version="1.1" xmlns="http://www.w3.org/2000/svg" xmlns:xlink="http://www.w3.org/1999/xlink" x="0px" y="0px" width="361px"
	 height="361px" viewBox="0 0 361 361" style="enable-background:new 0 0 361 361;" xml:space="preserve">
<g id="control_x5F_switch_x5F_3">
	<g>
		<g>
			<path style="fill:#FFFFFF;" d="M107.345,257.417c-2.824-0.38-1.931-3.568-1.931-5.824c0-4.447,0-8.894,0-13.341
				c0-14.323,0-28.646,0-42.97c0-27.808,0-55.617,0-83.425c0-2.079,0-4.158,0-6.237c0-1.71,4.055-1.078,5.012-1.078
				c10.716,0,21.432,0,32.147,0c30.824,0,61.647,0,92.471,0c6.972,0,13.944,0,20.916,0c2.261,0,1.079,15.686,1.079,17.063
				c0,30.268,0,60.535,0,90.803c0,12.072,0,24.146,0,36.219c0,2.451,0,4.903,0,7.355c0,1.826-2.645,1.311-3.72,1.311
				c-25.858,0-51.716,0-77.574,0c-23.11,0-46.22,0-69.331,0c-4.514,0-4.514,7,0,7c48.165,0,96.329,0,144.494,0
				c1.71,0,3.421,0,5.131,0c5.385,0,8-4.673,8-9.427c0-8.987,0-17.975,0-26.963c0-31.056,0-62.112,0-93.168
				c0-9.181,0-18.361,0-27.542c0-4.41-1.853-8.823-6.804-9.489c-1.968-0.264-3.956-0.161-5.94-0.161c-27.166,0-54.333,0-81.5,0
				c-21.124,0-42.248,0-63.372,0c-9.894,0-8.009,12.246-8.009,18.709c0,12.916,0,25.832,0,38.748c0,23.763,0,47.527,0,71.29
				c0,8.038,0,16.075,0,24.112c0,5.652-0.469,12.753,7.069,13.766C109.896,264.76,111.801,258.016,107.345,257.417z"/>
		</g>
	</g>
	<g>
		<g>
			<g>
				<path style="fill:#FFFFFF;" d="M233.539,152.792c-34.979,0-69.957,0-104.936,0c0.5,0.5,1,1,1.5,1.5c0-17.75,0-35.5,0-53.25
					c-0.5,0.5-1,1-1.5,1.5c34.979,0,69.957,0,104.936,0c-0.5-0.5-1-1-1.5-1.5c0,17.75,0,35.5,0,53.25c0,1.935,3,1.935,3,0
					c0-17.75,0-35.5,0-53.25c0-0.818-0.683-1.5-1.5-1.5c-34.979,0-69.957,0-104.936,0c-0.818,0-1.5,0.682-1.5,1.5
					c0,17.75,0,35.5,0,53.25c0,0.818,0.682,1.5,1.5,1.5c34.979,0,69.957,0,104.936,0
					C235.474,155.792,235.474,152.792,233.539,152.792z"/>
			</g>
		</g>
		<g>
			<g>
				<path style="fill:#FFFFFF;" d="M117.354,129.917c-0.138,1.366-4.285,0.75-5.25,0.75c-1.324,0-0.75-4.395-0.75-5.25
					c0-1.324,4.395-0.75,5.25-0.75C117.927,124.667,117.354,129.062,117.354,129.917c0,1.935,3,1.935,3,0
					c0-3.293,0.713-7.8-3.75-8.25c-3.266-0.329-7.828-0.434-8.25,3.75c-0.329,3.266-0.434,7.828,3.75,8.25
					c3.266,0.329,7.828,0.434,8.25-3.75C120.547,127.993,117.546,128.011,117.354,129.917z"/>
			</g>
		</g>
		<g>
			<g>
				<path style="fill:#FFFFFF;" d="M249.854,129.917c-0.138,1.366-4.285,0.75-5.25,0.75c-1.323,0-0.75-4.395-0.75-5.25
					c0-1.324,4.395-0.75,5.25-0.75C250.427,124.667,249.854,129.062,249.854,129.917c0,1.935,3,1.935,3,0
					c0-3.293,0.714-7.8-3.75-8.25c-3.266-0.329-7.828-0.434-8.25,3.75c-0.329,3.265-0.434,7.828,3.75,8.25
					c3.266,0.329,7.828,0.434,8.25-3.75C253.048,127.993,250.046,128.011,249.854,129.917z"/>
			</g>
		</g>
	</g>
	<g>
		<g>
			<g>
				<path style="fill:#FFFFFF;" d="M233.54,205.854c-34.979,0-69.958,0-104.937,0c0.5,0.5,1,1,1.5,1.5c0-17.75,0-35.5,0-53.25
					c-0.5,0.5-1,1-1.5,1.5c34.979,0,69.958,0,104.937,0c-0.5-0.5-1-1-1.5-1.5c0,17.75,0,35.5,0,53.25c0,1.935,3,1.935,3,0
					c0-17.75,0-35.5,0-53.25c0-0.818-0.683-1.5-1.5-1.5c-34.979,0-69.958,0-104.937,0c-0.818,0-1.5,0.682-1.5,1.5
					c0,17.75,0,35.5,0,53.25c0,0.817,0.682,1.5,1.5,1.5c34.979,0,69.958,0,104.937,0
					C235.475,208.854,235.475,205.854,233.54,205.854z"/>
			</g>
		</g>
		<g>
			<g>
				<path style="fill:#FFFFFF;" d="M117.354,182.979c-0.138,1.366-4.285,0.75-5.25,0.75c-1.324,0-0.75-4.395-0.75-5.25
					c0-1.324,4.395-0.75,5.25-0.75C117.927,177.729,117.354,182.124,117.354,182.979c0,1.935,3,1.935,3,0
					c0-3.293,0.714-7.8-3.75-8.25c-3.266-0.329-7.828-0.434-8.25,3.75c-0.329,3.266-0.434,7.828,3.75,8.25
					c3.266,0.329,7.828,0.435,8.25-3.75C120.547,181.055,117.545,181.073,117.354,182.979z"/>
			</g>
		</g>
		<g>
			<g>
				<path style="fill:#FFFFFF;" d="M249.854,182.979c-0.138,1.366-4.284,0.75-5.25,0.75c-1.323,0-0.75-4.395-0.75-5.25
					c0-1.324,4.395-0.75,5.25-0.75C250.427,177.729,249.854,182.124,249.854,182.979c0,1.935,3,1.935,3,0
					c0-3.293,0.714-7.8-3.75-8.25c-3.266-0.329-7.828-0.434-8.25,3.75c-0.329,3.266-0.434,7.828,3.75,8.25
					c3.266,0.329,7.828,0.435,8.25-3.75C253.047,181.055,250.046,181.073,249.854,182.979z"/>
			</g>
		</g>
	</g>
	<g>
		<g>
			<g>
				<path style="fill:#FFFFFF;" d="M233.54,259.104c-34.979,0-69.958,0-104.937,0c0.5,0.5,1,1,1.5,1.5c0-17.75,0-35.5,0-53.25
					c-0.5,0.5-1,1-1.5,1.5c34.979,0,69.958,0,104.937,0c-0.5-0.5-1-1-1.5-1.5c0,17.75,0,35.5,0,53.25c0,1.935,3,1.935,3,0
					c0-17.75,0-35.5,0-53.25c0-0.817-0.683-1.5-1.5-1.5c-34.979,0-69.958,0-104.937,0c-0.818,0-1.5,0.683-1.5,1.5
					c0,17.75,0,35.5,0,53.25c0,0.817,0.682,1.5,1.5,1.5c34.979,0,69.958,0,104.937,0
					C235.475,262.104,235.475,259.104,233.54,259.104z"/>
			</g>
		</g>
		<g>
			<g>
				<path style="fill:#FFFFFF;" d="M117.354,236.229c-0.138,1.366-4.285,0.75-5.25,0.75c-1.324,0-0.75-4.395-0.75-5.25
					c0-1.323,4.395-0.75,5.25-0.75C117.927,230.979,117.354,235.374,117.354,236.229c0,1.935,3,1.935,3,0
					c0-3.294,0.714-7.8-3.75-8.25c-3.266-0.329-7.828-0.435-8.25,3.75c-0.329,3.266-0.434,7.828,3.75,8.25
					c3.266,0.329,7.828,0.435,8.25-3.75C120.547,234.305,117.545,234.323,117.354,236.229z"/>
			</g>
		</g>
		<g>
			<g>
				<path style="fill:#FFFFFF;" d="M249.854,236.229c-0.138,1.366-4.284,0.75-5.25,0.75c-1.323,0-0.75-4.395-0.75-5.25
					c0-1.323,4.395-0.75,5.25-0.75C250.427,230.979,249.854,235.374,249.854,236.229c0,1.935,3,1.935,3,0
					c0-3.294,0.714-7.801-3.75-8.25c-3.266-0.329-7.828-0.435-8.25,3.75c-0.329,3.266-0.434,7.828,3.75,8.25
					c3.266,0.329,7.828,0.435,8.25-3.75C253.047,234.305,250.046,234.323,249.854,236.229z"/>
			</g>
		</g>
	</g>
	<g>
		<g>
			<path style="fill:#FFFFFF;" d="M102.809,155.604c49.085,0,98.17,0,147.256,0c3.283,0,6.567,0,9.852,0c1.935,0,1.935-3,0-3
				c-49.085,0-98.17,0-147.255,0c-3.284,0-6.568,0-9.852,0C100.874,152.604,100.874,155.604,102.809,155.604L102.809,155.604z"/>
		</g>
	</g>
	<g>
		<g>
			<path style="fill:#FFFFFF;" d="M101.291,208.854c49.262,0,98.523,0,147.785,0c3.613,0,7.227,0,10.84,0c1.935,0,1.935-3,0-3
				c-49.262,0-98.523,0-147.785,0c-3.613,0-7.227,0-10.84,0C99.356,205.854,99.356,208.854,101.291,208.854L101.291,208.854z"/>
		</g>
	</g>
	<path style="fill:none;stroke:#FFFFFF;stroke-width:10;stroke-miterlimit:10;" d="M81.636,286.582
		c-3.288,0-5.954-2.666-5.954-5.953V81.205c0-3.288,2.666-5.953,5.954-5.953h197.936c3.285,0,5.952,2.665,5.952,5.953v199.424
		c0,3.287-2.667,5.953-5.952,5.953H81.636z"/>
</g>
<g id="Ebene_1">
</g>
</svg>
