<?xml version="1.0" encoding="iso-8859-1"?>
<!-- Generator: Adobe Illustrator 16.0.3, SVG Export Plug-In . SVG Version: 6.00 Build 0)  -->
<!DOCTYPE svg PUBLIC "-//W3C//DTD SVG 1.1//EN" "http://www.w3.org/Graphics/SVG/1.1/DTD/svg11.dtd">
<svg version="1.1" xmlns="http://www.w3.org/2000/svg" xmlns:xlink="http://www.w3.org/1999/xlink" x="0px" y="0px" width="361px"
	 height="361px" viewBox="0 0 361 361" style="enable-background:new 0 0 361 361;" xml:space="preserve">
<g id="control_x5F_building_x5F_flat_x5F_s_x5F_okg_x5F_all">
	<g id="OG_46_">
		<path style="fill:#FFFFFF;" d="M167.671,142.722c-0.338-0.933-0.813-1.673-1.424-2.22c-0.612-0.547-1.433-0.821-2.462-0.821
			s-1.851,0.274-2.462,0.821c-0.612,0.547-1.086,1.296-1.424,2.245c-0.337,0.95-0.563,2.052-0.675,3.307
			c-0.113,1.254-0.169,2.606-0.169,4.055c0,1.448,0.056,2.808,0.169,4.079c0.112,1.272,0.338,2.374,0.675,3.307
			c0.338,0.934,0.813,1.674,1.424,2.221c0.611,0.547,1.432,0.821,2.462,0.821c0.998,0,1.811-0.273,2.438-0.821
			c0.628-0.547,1.11-1.295,1.449-2.245c0.337-0.95,0.562-2.052,0.675-3.307c0.112-1.255,0.169-2.607,0.169-4.055
			c0-1.448-0.057-2.807-0.169-4.079C168.233,144.758,168.008,143.656,167.671,142.722z"/>
		<path style="fill:#FFFFFF;" d="M103.254,130.002v43.945c0,2.716,2.131,4.919,4.761,4.919h138.842c2.629,0,4.761-2.203,4.761-4.919
			v-55.945c0-2.716-2.132-4.919-4.761-4.919l-138.842,12C105.386,125.083,103.254,127.286,103.254,130.002z M171.75,161.766
			c-1.867,2.624-4.506,3.935-7.917,3.935c-3.508,0-6.188-1.311-8.038-3.935c-1.851-2.623-2.776-6.509-2.776-11.658
			c0-5.148,0.949-9.035,2.848-11.659c1.899-2.622,4.538-3.934,7.917-3.934c3.508,0,6.18,1.312,8.014,3.934
			c1.834,2.624,2.751,6.51,2.751,11.659C174.55,155.257,173.616,159.144,171.75,161.766z M184.881,158.001
			c1.126,1.689,2.783,2.535,4.973,2.535c0.354,0,0.739-0.016,1.158-0.048c0.418-0.032,0.804-0.08,1.158-0.145v-10.91h5.938v14.917
			c-0.708,0.258-1.811,0.547-3.307,0.869c-1.496,0.321-3.307,0.482-5.43,0.482c-1.867,0-3.549-0.331-5.045-0.989
			c-1.498-0.66-2.776-1.642-3.839-2.945c-1.062-1.303-1.883-2.928-2.462-4.875c-0.579-1.947-0.869-4.208-0.869-6.783
			c0-2.542,0.337-4.787,1.014-6.734c0.676-1.947,1.593-3.58,2.752-4.9c1.159-1.319,2.526-2.309,4.103-2.969
			c1.576-0.66,3.266-0.99,5.068-0.99c1.158,0,2.197,0.089,3.114,0.265c0.917,0.178,1.714,0.379,2.39,0.604
			c0.676,0.226,1.23,0.467,1.666,0.724c0.434,0.258,0.764,0.451,0.989,0.58l-1.546,4.731c-0.707-0.45-1.576-0.853-2.605-1.207
			c-1.031-0.354-2.093-0.531-3.187-0.531c-1.417,0-2.606,0.258-3.572,0.772c-0.966,0.515-1.763,1.231-2.39,2.148
			c-0.627,0.917-1.078,2.012-1.352,3.283c-0.273,1.272-0.41,2.679-0.41,4.224C183.191,153.68,183.754,156.312,184.881,158.001z"/>
	</g>
	<path id="EG_74_" style="fill:#FFFFFF;" d="M103.119,190.83v49.564c0,2.76,2.136,4.997,4.77,4.997h139.096
		c2.634,0,4.77-2.237,4.77-4.997V190.83c0-2.76-2.136-4.997-4.77-4.997H107.888C105.254,185.833,103.119,188.07,103.119,190.83z
		 M174.178,230.625h-19.2v-30.356h18.136v5.002h-12.187v6.817h10.592v5.002h-10.592v8.533h13.251V230.625z M185.156,223.441
		c1.128,1.716,2.788,2.574,4.981,2.574c0.354,0,0.741-0.016,1.16-0.049c0.419-0.032,0.806-0.081,1.161-0.146v-11.084h5.949v15.154
		c-0.71,0.262-1.814,0.556-3.313,0.883c-1.499,0.326-3.313,0.49-5.44,0.49c-1.871,0-3.555-0.336-5.055-1.006
		s-2.78-1.668-3.844-2.992c-1.064-1.323-1.887-2.975-2.467-4.952c-0.581-1.979-0.87-4.274-0.87-6.891
		c0-2.583,0.338-4.863,1.016-6.842c0.677-1.978,1.596-3.637,2.757-4.978s2.53-2.346,4.11-3.017c1.58-0.67,3.271-1.005,5.078-1.005
		c1.161,0,2.201,0.09,3.119,0.27c0.92,0.18,1.717,0.385,2.395,0.612c0.677,0.229,1.233,0.476,1.669,0.736
		c0.435,0.263,0.765,0.458,0.991,0.588l-1.549,4.807c-0.708-0.458-1.578-0.866-2.61-1.226s-2.097-0.539-3.192-0.539
		c-1.419,0-2.611,0.262-3.578,0.783c-0.967,0.523-1.766,1.252-2.395,2.183c-0.629,0.933-1.08,2.044-1.354,3.335
		c-0.274,1.293-0.412,2.723-0.412,4.292C183.463,219.052,184.027,221.725,185.156,223.441z"/>
	<g id="Haus_58_">
		<g>
			<g>
				<path style="fill:#FFFFFF;" d="M90.042,249.981c1.507,9.67,13.562,7.561,20.607,7.561c13.053,0,26.105,0,39.158,0
					c30.174,0,60.349,0,90.523,0c6.024,0,14.784,1.54,20.345-1.433c6.176-3.304,4.016-16.539,4.017-22.129
					c0.001-30.152,0.002-60.305,0.003-90.458c0.001-13.202,0.001-26.404,0.002-39.606c0-2.543-2.281-5.242-5-5
					c-49.242,4.375-98.484,8.751-147.726,13.126c-5.176,0.46-17.919-0.306-20.699,5.255c-1.553,3.106-1.408,5.811-1.408,9.116
					c0,4.788,0,9.576,0,14.364c0,30.22,0,60.44,0,90.66c0,5.738,0,11.477,0,17.215c0,6.448,10,6.448,10,0
					c0-22.752,0-45.505,0-68.257c0-14.604,0-29.209,0-43.814c0-4.074,0-8.147,0-12.222c0-0.716,0-1.432,0-2.147
					c0,0.994-2.17,1.099-0.279,0.931c50.822-4.516,101.645-9.032,152.468-13.547c2.548-0.227,5.096-0.453,7.644-0.679
					c-1.667-1.667-3.333-3.333-5-5c-0.002,47.313-0.004,94.625-0.006,141.938c0,0.824,0,1.649,0,2.474
					c0,0.91,2.074-0.787,0.709-0.787c-2.612,0-5.225,0-7.837,0c-12.105,0-24.212,0-36.318,0c-30.794,0-61.588,0-92.383,0
					c-4.844,0-9.688,0-14.532,0c-1.37,0-2.74,0-4.11,0c-2.392,0-0.5-0.002-0.535-0.219
					C98.694,240.967,89.059,243.675,90.042,249.981z"/>
			</g>
		</g>
		<g>
			<line style="fill:#FFFFFF;" x1="250.312" y1="182.371" x2="103.292" y2="182.371"/>
			<g>
				<path style="fill:#FFFFFF;" d="M250.312,180.871c-47.763,0-95.526,0-143.29,0c-1.243,0-2.487,0-3.73,0c-1.935,0-1.935,3,0,3
					c47.763,0,95.526,0,143.289,0c1.244,0,2.487,0,3.73,0C252.246,183.871,252.246,180.871,250.312,180.871L250.312,180.871z"/>
			</g>
		</g>
		<g>
			<g>
				<path style="fill:#FFFFFF;" d="M283.363,96.667c-48.87,4.25-97.74,8.501-146.61,12.752c-19.529,1.699-39.057,3.397-58.586,5.096
					c-6.373,0.554-6.427,10.559,0,10c48.87-4.25,97.74-8.501,146.61-12.752c19.528-1.699,39.058-3.397,58.586-5.096
					C289.736,106.113,289.791,96.108,283.363,96.667L283.363,96.667z"/>
			</g>
		</g>
	</g>
	<g id="Erde_20_">
		<g>
			<g>
				<path style="fill:#FFFFFF;" d="M268.833,250.592c7.208,0,14.417,0,21.625,0c1.935,0,1.935-3,0-3c-7.208,0-14.417,0-21.625,0
					C266.898,247.592,266.898,250.592,268.833,250.592L268.833,250.592z"/>
			</g>
		</g>
		<g>
			<g>
				<path style="fill:#FFFFFF;" d="M283.391,281.786c1.531,0,3.063,0,4.595,0c1.908,0,3.5-1.592,3.5-3.5s-1.592-3.5-3.5-3.5
					c-1.531,0-3.063,0-4.595,0c-1.908,0-3.5,1.592-3.5,3.5S281.482,281.786,283.391,281.786L283.391,281.786z"/>
			</g>
		</g>
		<g>
			<g>
				<path style="fill:#FFFFFF;" d="M256.666,291.786c5.333,0,10.667,0,16,0c4.514,0,4.514-7,0-7c-5.333,0-10.667,0-16,0
					C252.152,284.786,252.152,291.786,256.666,291.786L256.666,291.786z"/>
			</g>
		</g>
		<g>
			<g>
				<path style="fill:#FFFFFF;" d="M268.25,285.786c2,0,4,0,6,0c1.908,0,3.5-1.592,3.5-3.5s-1.592-3.5-3.5-3.5c-2,0-4,0-6,0
					c-1.908,0-3.5,1.592-3.5,3.5S266.342,285.786,268.25,285.786L268.25,285.786z"/>
			</g>
		</g>
		<g>
			<g>
				<path style="fill:#FFFFFF;" d="M286.584,291.786c0.667,0,1.333,0,2,0c1.908,0,3.5-1.592,3.5-3.5s-1.592-3.5-3.5-3.5
					c-0.667,0-1.333,0-2,0c-1.908,0-3.5,1.592-3.5,3.5S284.676,291.786,286.584,291.786L286.584,291.786z"/>
			</g>
		</g>
		<g>
			<g>
				<path style="fill:#FFFFFF;" d="M267.666,271.474c-2,0-4,0-6,0c-1.908,0-3.5,1.592-3.5,3.5s1.592,3.5,3.5,3.5c2,0,4,0,6,0
					c1.908,0,3.5-1.592,3.5-3.5S269.574,271.474,267.666,271.474L267.666,271.474z"/>
			</g>
		</g>
		<g>
			<g>
				<path style="fill:#FFFFFF;" d="M265.666,259.453c-0.667,0-1.333,0-2,0c-1.908,0-3.5,1.592-3.5,3.5s1.592,3.5,3.5,3.5
					c0.667,0,1.333,0,2,0c1.908,0,3.5-1.592,3.5-3.5S267.574,259.453,265.666,259.453L265.666,259.453z"/>
			</g>
		</g>
		<g>
			<g>
				<path style="fill:#FFFFFF;" d="M288.5,257.953c-5.222,0-10.444,0-15.666,0c-4.514,0-4.514,7,0,7c5.222,0,10.444,0,15.666,0
					C293.014,264.953,293.014,257.953,288.5,257.953L288.5,257.953z"/>
			</g>
		</g>
		<g>
			<g>
				<path style="fill:#FFFFFF;" d="M284.834,265.953c-5.083,0-10.167,0-15.25,0c-4.514,0-4.514,7,0,7c5.083,0,10.167,0,15.25,0
					C289.348,272.953,289.348,265.953,284.834,265.953L284.834,265.953z"/>
			</g>
		</g>
		<g>
			<g>
				<path style="fill:#FFFFFF;" d="M288.168,251.953c-1.89,0-3.778,0-5.668,0c-1.908,0-3.5,1.592-3.5,3.5s1.592,3.5,3.5,3.5
					c1.89,0,3.778,0,5.668,0c1.908,0,3.5-1.592,3.5-3.5S290.076,251.953,288.168,251.953L288.168,251.953z"/>
			</g>
		</g>
		<g>
			<g>
				<path style="fill:#FFFFFF;" d="M273.501,253.62c-2,0-4,0-6,0c-1.908,0-3.5,1.592-3.5,3.5s1.592,3.5,3.5,3.5c2,0,4,0,6,0
					c1.908,0,3.5-1.592,3.5-3.5S275.409,253.62,273.501,253.62L273.501,253.62z"/>
			</g>
		</g>
		<g>
			<g>
				<path style="fill:#FFFFFF;" d="M256.104,263.89c-2,0-4,0-6,0c-1.908,0-3.5,1.592-3.5,3.5s1.592,3.5,3.5,3.5c2,0,4,0,6,0
					c1.908,0,3.5-1.592,3.5-3.5S258.012,263.89,256.104,263.89L256.104,263.89z"/>
			</g>
		</g>
		<g>
			<g>
				<path style="fill:#FFFFFF;" d="M287.833,269.953c-0.222,0-0.443,0-0.665,0c-1.908,0-3.5,1.592-3.5,3.5s1.592,3.5,3.5,3.5
					c0.222,0,0.443,0,0.665,0c1.908,0,3.5-1.592,3.5-3.5S289.741,269.953,287.833,269.953L287.833,269.953z"/>
			</g>
		</g>
		<g>
			<g>
				<path style="fill:#FFFFFF;" d="M73.75,282.89c2.337,0,4.673,0,7.01,0c4.514,0,4.514-7,0-7c-2.337,0-4.673,0-7.01,0
					C69.235,275.89,69.235,282.89,73.75,282.89L73.75,282.89z"/>
			</g>
		</g>
		<g>
			<g>
				<path style="fill:#FFFFFF;" d="M100.271,279.89c2.581,0,5.161,0,7.741,0c4.514,0,4.514-7,0-7c-2.581,0-5.161,0-7.741,0
					C95.756,272.89,95.756,279.89,100.271,279.89L100.271,279.89z"/>
			</g>
		</g>
		<g>
			<g>
				<path style="fill:#FFFFFF;" d="M96.834,268.89c5.083,0,10.167,0,15.25,0c4.514,0,4.514-7,0-7c-5.083,0-10.167,0-15.25,0
					C92.32,261.89,92.32,268.89,96.834,268.89L96.834,268.89z"/>
			</g>
		</g>
		<g>
			<g>
				<path style="fill:#FFFFFF;" d="M122.069,291.786c2,0,4,0,6,0c1.908,0,3.5-1.592,3.5-3.5s-1.592-3.5-3.5-3.5c-2,0-4,0-6,0
					c-1.908,0-3.5,1.592-3.5,3.5S120.161,291.786,122.069,291.786L122.069,291.786z"/>
			</g>
		</g>
		<g>
			<g>
				<path style="fill:#FFFFFF;" d="M246.238,284.277c-3,0-6.001,0-9.001,0c-4.514,0-4.514,7,0,7c3,0,6.001,0,9.001,0
					C250.752,291.277,250.752,284.277,246.238,284.277L246.238,284.277z"/>
			</g>
		</g>
		<g>
			<g>
				<path style="fill:#FFFFFF;" d="M259.237,268.277c-5.333,0-10.667,0-16,0c-4.514,0-4.514,7,0,7c5.333,0,10.667,0,16,0
					C263.751,275.277,263.751,268.277,259.237,268.277L259.237,268.277z"/>
			</g>
		</g>
		<g>
			<g>
				<path style="fill:#FFFFFF;" d="M79.874,251.578c-2,0-4,0-6,0c-1.908,0-3.5,1.592-3.5,3.5s1.592,3.5,3.5,3.5c2,0,4,0,6,0
					c1.908,0,3.5-1.592,3.5-3.5S81.782,251.578,79.874,251.578L79.874,251.578z"/>
			</g>
		</g>
		<g>
			<g>
				<path style="fill:#FFFFFF;" d="M240.487,260.536c-1.083,0-2.167,0-3.25,0c-1.908,0-3.5,1.592-3.5,3.5s1.592,3.5,3.5,3.5
					c1.083,0,2.167,0,3.25,0c1.908,0,3.5-1.592,3.5-3.5S242.396,260.536,240.487,260.536L240.487,260.536z"/>
			</g>
		</g>
		<g>
			<g>
				<path style="fill:#FFFFFF;" d="M76.583,272.953c0.667,0,1.333,0,2,0c1.908,0,3.5-1.592,3.5-3.5s-1.592-3.5-3.5-3.5
					c-0.667,0-1.333,0-2,0c-1.908,0-3.5,1.592-3.5,3.5S74.675,272.953,76.583,272.953L76.583,272.953z"/>
			</g>
		</g>
		<g>
			<g>
				<path style="fill:#FFFFFF;" d="M93.584,276.277c-0.667,0-1.333,0-2,0c-1.908,0-3.5,1.592-3.5,3.5s1.592,3.5,3.5,3.5
					c0.667,0,1.333,0,2,0c1.908,0,3.5-1.592,3.5-3.5S95.492,276.277,93.584,276.277L93.584,276.277z"/>
			</g>
		</g>
		<g>
			<g>
				<path style="fill:#FFFFFF;" d="M71.416,250.592c4.917,0,9.833,0,14.75,0c1.935,0,1.935-3,0-3c-4.917,0-9.833,0-14.75,0
					C69.481,247.592,69.481,250.592,71.416,250.592L71.416,250.592z"/>
			</g>
		</g>
		<g>
			<g>
				<path style="fill:#FFFFFF;" d="M196.164,284.786c-2,0-4,0-6,0c-1.908,0-3.5,1.592-3.5,3.5s1.592,3.5,3.5,3.5c2,0,4,0,6,0
					c1.908,0,3.5-1.592,3.5-3.5S198.072,284.786,196.164,284.786L196.164,284.786z"/>
			</g>
		</g>
		<g>
			<g>
				<path style="fill:#FFFFFF;" d="M87.833,263.89c-1.833,0-3.667,0-5.5,0c-1.908,0-3.5,1.592-3.5,3.5s1.592,3.5,3.5,3.5
					c1.833,0,3.667,0,5.5,0c1.908,0,3.5-1.592,3.5-3.5S89.741,263.89,87.833,263.89L87.833,263.89z"/>
			</g>
		</g>
		<g>
			<g>
				<path style="fill:#FFFFFF;" d="M172.5,266.953c3,0,6,0,9,0c4.514,0,4.514-7,0-7c-3,0-6,0-9,0
					C167.986,259.953,167.986,266.953,172.5,266.953L172.5,266.953z"/>
			</g>
		</g>
		<g>
			<g>
				<path style="fill:#FFFFFF;" d="M205.916,291.82c5.333,0,10.667,0,16,0c4.514,0,4.514-7,0-7c-5.333,0-10.667,0-16,0
					C201.402,284.82,201.402,291.82,205.916,291.82L205.916,291.82z"/>
			</g>
		</g>
		<g>
			<g>
				<path style="fill:#FFFFFF;" d="M221.375,277.729c2,0,4,0,6,0c1.908,0,3.5-1.592,3.5-3.5s-1.592-3.5-3.5-3.5c-2,0-4,0-6,0
					c-1.908,0-3.5,1.592-3.5,3.5S219.467,277.729,221.375,277.729L221.375,277.729z"/>
			</g>
		</g>
		<g>
			<g>
				<path style="fill:#FFFFFF;" d="M215.209,288.035c0.667,0,1.333,0,2,0c1.908,0,3.5-1.592,3.5-3.5s-1.592-3.5-3.5-3.5
					c-0.667,0-1.333,0-2,0c-1.908,0-3.5,1.592-3.5,3.5S213.301,288.035,215.209,288.035L215.209,288.035z"/>
			</g>
		</g>
		<g>
			<g>
				<path style="fill:#FFFFFF;" d="M213.75,264.584c-2,0-4,0-6,0c-1.908,0-3.5,1.592-3.5,3.5s1.592,3.5,3.5,3.5c2,0,4,0,6,0
					c1.908,0,3.5-1.592,3.5-3.5S215.658,264.584,213.75,264.584L213.75,264.584z"/>
			</g>
		</g>
		<g>
			<g>
				<path style="fill:#FFFFFF;" d="M222.834,260.751c-5.083,0-10.167,0-15.25,0c-4.514,0-4.514,7,0,7c5.083,0,10.167,0,15.25,0
					C227.348,267.751,227.348,260.751,222.834,260.751L222.834,260.751z"/>
			</g>
		</g>
		<g>
			<g>
				<path style="fill:#FFFFFF;" d="M233.834,278.584c-2,0-4,0-6,0c-1.908,0-3.5,1.592-3.5,3.5s1.592,3.5,3.5,3.5c2,0,4,0,6,0
					c1.908,0,3.5-1.592,3.5-3.5S235.742,278.584,233.834,278.584L233.834,278.584z"/>
			</g>
		</g>
		<g>
			<g>
				<path style="fill:#FFFFFF;" d="M135.882,271.917c-3,0-6,0-9,0c-4.514,0-4.514,7,0,7c3,0,6,0,9,0
					C140.396,278.917,140.396,271.917,135.882,271.917L135.882,271.917z"/>
			</g>
		</g>
		<g>
			<g>
				<path style="fill:#FFFFFF;" d="M152.736,260.549c-5.333,0-10.667,0-16,0c-4.514,0-4.514,7,0,7c5.333,0,10.667,0,16,0
					C157.25,267.549,157.25,260.549,152.736,260.549L152.736,260.549z"/>
			</g>
		</g>
		<g>
			<g>
				<path style="fill:#FFFFFF;" d="M152.402,271.786c-2,0-4,0-6,0c-1.908,0-3.5,1.592-3.5,3.5s1.592,3.5,3.5,3.5c2,0,4,0,6,0
					c1.908,0,3.5-1.592,3.5-3.5S154.31,271.786,152.402,271.786L152.402,271.786z"/>
			</g>
		</g>
		<g>
			<g>
				<path style="fill:#FFFFFF;" d="M139.069,265.786c-0.667,0-1.333,0-2,0c-1.908,0-3.5,1.592-3.5,3.5s1.592,3.5,3.5,3.5
					c0.667,0,1.333,0,2,0c1.908,0,3.5-1.592,3.5-3.5S140.977,265.786,139.069,265.786L139.069,265.786z"/>
			</g>
		</g>
		<g>
			<g>
				<path style="fill:#FFFFFF;" d="M144.902,291.786c2,0,4,0,6,0c1.908,0,3.5-1.592,3.5-3.5s-1.592-3.5-3.5-3.5c-2,0-4,0-6,0
					c-1.908,0-3.5,1.592-3.5,3.5S142.995,291.786,144.902,291.786L144.902,291.786z"/>
			</g>
		</g>
		<g>
			<g>
				<path style="fill:#FFFFFF;" d="M85.819,291.619c5.083,0,10.167,0,15.25,0c4.514,0,4.514-7,0-7c-5.083,0-10.167,0-15.25,0
					C81.305,284.619,81.305,291.619,85.819,291.619L85.819,291.619z"/>
			</g>
		</g>
		<g>
			<g>
				<path style="fill:#FFFFFF;" d="M124.569,271.786c2,0,4,0,6,0c1.908,0,3.5-1.592,3.5-3.5s-1.592-3.5-3.5-3.5c-2,0-4,0-6,0
					c-1.908,0-3.5,1.592-3.5,3.5S122.662,271.786,124.569,271.786L124.569,271.786z"/>
			</g>
		</g>
		<g>
			<g>
				<path style="fill:#FFFFFF;" d="M178.251,276.584c3,0,6.001,0,9.001,0c4.514,0,4.514-7,0-7c-3,0-6.001,0-9.001,0
					C173.737,269.584,173.737,276.584,178.251,276.584L178.251,276.584z"/>
			</g>
		</g>
		<g>
			<g>
				<path style="fill:#FFFFFF;" d="M159.584,291.82c5.333,0,10.667,0,16,0c4.514,0,4.514-7,0-7c-5.333,0-10.667,0-16,0
					C155.07,284.82,155.07,291.82,159.584,291.82L159.584,291.82z"/>
			</g>
		</g>
		<g>
			<g>
				<path style="fill:#FFFFFF;" d="M154.902,283.786c2,0,4,0,6,0c1.908,0,3.5-1.592,3.5-3.5s-1.592-3.5-3.5-3.5c-2,0-4,0-6,0
					c-1.908,0-3.5,1.592-3.5,3.5S152.995,283.786,154.902,283.786L154.902,283.786z"/>
			</g>
		</g>
		<g>
			<g>
				<path style="fill:#FFFFFF;" d="M173.251,287.584c0.667,0,1.333,0,2,0c1.908,0,3.5-1.592,3.5-3.5s-1.592-3.5-3.5-3.5
					c-0.667,0-1.333,0-2,0c-1.908,0-3.5,1.592-3.5,3.5S171.344,287.584,173.251,287.584L173.251,287.584z"/>
			</g>
		</g>
		<g>
			<g>
				<path style="fill:#FFFFFF;" d="M167.584,264.584c-3.722,0-7.444,0-11.166,0c-4.514,0-4.514,7,0,7c3.722,0,7.444,0,11.166,0
					C172.098,271.584,172.098,264.584,167.584,264.584L167.584,264.584z"/>
			</g>
		</g>
		<g>
			<g>
				<path style="fill:#FFFFFF;" d="M210.666,267.786c-3.902,0-7.806,0-11.708,0c-4.514,0-4.514,7,0,7c3.902,0,7.806,0,11.708,0
					C215.18,274.786,215.18,267.786,210.666,267.786L210.666,267.786z"/>
			</g>
		</g>
		<g>
			<g>
				<path style="fill:#FFFFFF;" d="M192.001,278.584c-2,0-4,0-6,0c-1.908,0-3.5,1.592-3.5,3.5s1.592,3.5,3.5,3.5c2,0,4,0,6,0
					c1.908,0,3.5-1.592,3.5-3.5S193.909,278.584,192.001,278.584L192.001,278.584z"/>
			</g>
		</g>
		<g>
			<g>
				<path style="fill:#FFFFFF;" d="M146.902,279.786c5.333,0,10.667,0,16,0c4.514,0,4.514-7,0-7c-5.333,0-10.667,0-16,0
					C142.388,272.786,142.388,279.786,146.902,279.786L146.902,279.786z"/>
			</g>
		</g>
		<g>
			<g>
				<path style="fill:#FFFFFF;" d="M118.012,275.203c-3,0-6,0-9,0c-4.514,0-4.514,7,0,7c3,0,6,0,9,0
					C122.526,282.203,122.526,275.203,118.012,275.203L118.012,275.203z"/>
			</g>
		</g>
		<g>
			<g>
				<path style="fill:#FFFFFF;" d="M123.636,260.536c-1.083,0-2.167,0-3.25,0c-1.908,0-3.5,1.592-3.5,3.5s1.592,3.5,3.5,3.5
					c1.083,0,2.167,0,3.25,0c1.908,0,3.5-1.592,3.5-3.5S125.544,260.536,123.636,260.536L123.636,260.536z"/>
			</g>
		</g>
		<g>
			<g>
				<path style="fill:#FFFFFF;" d="M99.584,265.167c-2,0-4,0-6,0c-1.908,0-3.5,1.592-3.5,3.5s1.592,3.5,3.5,3.5c2,0,4,0,6,0
					c1.908,0,3.5-1.592,3.5-3.5S101.492,265.167,99.584,265.167L99.584,265.167z"/>
			</g>
		</g>
		<g>
			<g>
				<path style="fill:#FFFFFF;" d="M87.26,281.035c-1.833,0-3.667,0-5.5,0c-1.908,0-3.5,1.592-3.5,3.5s1.592,3.5,3.5,3.5
					c1.833,0,3.667,0,5.5,0c1.908,0,3.5-1.592,3.5-3.5S89.168,281.035,87.26,281.035L87.26,281.035z"/>
			</g>
		</g>
		<g>
			<g>
				<path style="fill:#FFFFFF;" d="M189.416,270.89c5.083,0,10.167,0,15.25,0c4.514,0,4.514-7,0-7c-5.083,0-10.167,0-15.25,0
					C184.902,263.89,184.902,270.89,189.416,270.89L189.416,270.89z"/>
			</g>
		</g>
		<g>
			<g>
				<path style="fill:#FFFFFF;" d="M143.083,281.917c-0.667,0-1.333,0-2,0c-1.908,0-3.5,1.592-3.5,3.5s1.592,3.5,3.5,3.5
					c0.667,0,1.333,0,2,0c1.908,0,3.5-1.592,3.5-3.5S144.991,281.917,143.083,281.917L143.083,281.917z"/>
			</g>
		</g>
		<g>
			<g>
				<path style="fill:#FFFFFF;" d="M146.833,271.723c-0.667,0-1.333,0-2,0c-1.908,0-3.5,1.592-3.5,3.5s1.592,3.5,3.5,3.5
					c0.667,0,1.333,0,2,0c1.908,0,3.5-1.592,3.5-3.5S148.741,271.723,146.833,271.723L146.833,271.723z"/>
			</g>
		</g>
		<g>
			<g>
				<path style="fill:#FFFFFF;" d="M105.261,291.619c1.833,0,3.667,0,5.5,0c1.908,0,3.5-1.592,3.5-3.5s-1.592-3.5-3.5-3.5
					c-1.833,0-3.667,0-5.5,0c-1.908,0-3.5,1.592-3.5,3.5S103.354,291.619,105.261,291.619L105.261,291.619z"/>
			</g>
		</g>
		<g>
			<g>
				<path style="fill:#FFFFFF;" d="M73.332,290.667c0.667,0,1.333,0,2,0c1.908,0,3.5-1.592,3.5-3.5s-1.592-3.5-3.5-3.5
					c-0.667,0-1.333,0-2,0c-1.908,0-3.5,1.592-3.5,3.5S71.424,290.667,73.332,290.667L73.332,290.667z"/>
			</g>
		</g>
		<g>
			<g>
				<path style="fill:#FFFFFF;" d="M92.583,281.953c0.667,0,1.333,0,2,0c1.908,0,3.5-1.592,3.5-3.5s-1.592-3.5-3.5-3.5
					c-0.667,0-1.333,0-2,0c-1.908,0-3.5,1.592-3.5,3.5S90.675,281.953,92.583,281.953L92.583,281.953z"/>
			</g>
		</g>
		<g>
			<g>
				<path style="fill:#FFFFFF;" d="M103.833,272.89c-1.833,0-3.667,0-5.5,0c-1.908,0-3.5,1.592-3.5,3.5s1.592,3.5,3.5,3.5
					c1.833,0,3.667,0,5.5,0c1.908,0,3.5-1.592,3.5-3.5S105.741,272.89,103.833,272.89L103.833,272.89z"/>
			</g>
		</g>
		<g>
			<g>
				<path style="fill:#FFFFFF;" d="M250.834,283.292c0.667,0,1.333,0,2,0c1.908,0,3.5-1.592,3.5-3.5s-1.592-3.5-3.5-3.5
					c-0.667,0-1.333,0-2,0c-1.908,0-3.5,1.592-3.5,3.5S248.926,283.292,250.834,283.292L250.834,283.292z"/>
			</g>
		</g>
		<g>
			<g>
				<path style="fill:#FFFFFF;" d="M211.5,272.89c-3.722,0-7.444,0-11.166,0c-4.514,0-4.514,7,0,7c3.722,0,7.444,0,11.166,0
					C216.014,279.89,216.014,272.89,211.5,272.89L211.5,272.89z"/>
			</g>
		</g>
		<g>
			<g>
				<path style="fill:#FFFFFF;" d="M83.166,259.953c-3.278,0-6.556,0-9.833,0c-4.514,0-4.514,7,0,7c3.278,0,6.556,0,9.833,0
					C87.68,266.953,87.68,259.953,83.166,259.953L83.166,259.953z"/>
			</g>
		</g>
		<g>
			<g>
				<path style="fill:#FFFFFF;" d="M140.46,280.584c-3.722,0-7.444,0-11.166,0c-4.514,0-4.514,7,0,7c3.722,0,7.444,0,11.166,0
					C144.975,287.584,144.975,280.584,140.46,280.584L140.46,280.584z"/>
			</g>
		</g>
	</g>
</g>
<g id="Ebene_1">
</g>
</svg>
