<?xml version="1.0" encoding="iso-8859-1"?>
<!-- Generator: Adobe Illustrator 16.0.3, SVG Export Plug-In . SVG Version: 6.00 Build 0)  -->
<!DOCTYPE svg PUBLIC "-//W3C//DTD SVG 1.1//EN" "http://www.w3.org/Graphics/SVG/1.1/DTD/svg11.dtd">
<svg version="1.1" xmlns="http://www.w3.org/2000/svg" xmlns:xlink="http://www.w3.org/1999/xlink" x="0px" y="0px" width="361px"
	 height="361px" viewBox="0 0 361 361" style="enable-background:new 0 0 361 361;" xml:space="preserve">
<g id="control_x5F_building_x5F_modern02_x5F_okg_x5F_og">
	<g id="OG_55_">
		<path style="fill:#FFFFFF;" d="M172.518,169.203c-0.338-0.933-0.813-1.673-1.424-2.22c-0.612-0.547-1.433-0.821-2.462-0.821
			s-1.851,0.274-2.462,0.821c-0.612,0.547-1.086,1.296-1.424,2.245c-0.337,0.95-0.563,2.052-0.675,3.307
			c-0.113,1.254-0.169,2.606-0.169,4.055c0,1.448,0.056,2.808,0.169,4.079c0.112,1.272,0.338,2.374,0.675,3.307
			c0.338,0.934,0.813,1.674,1.424,2.221c0.611,0.548,1.432,0.821,2.462,0.821c0.998,0,1.811-0.273,2.438-0.821
			c0.628-0.547,1.11-1.296,1.449-2.245c0.337-0.949,0.562-2.052,0.675-3.307c0.112-1.255,0.169-2.607,0.169-4.055
			c0-1.448-0.057-2.807-0.169-4.079C173.08,171.239,172.855,170.137,172.518,169.203z"/>
		<path style="fill:#FFFFFF;" d="M267.105,146.563H94.261c-2.629,0-4.761,2.203-4.761,4.919v48.946c0,2.716,2.131,4.919,4.761,4.919
			h172.845c2.63,0,4.762-2.203,4.762-4.919v-48.946C271.867,148.766,269.735,146.563,267.105,146.563z M176.598,188.248
			c-1.867,2.623-4.506,3.934-7.917,3.934c-3.508,0-6.188-1.311-8.038-3.934c-1.851-2.623-2.776-6.51-2.776-11.659
			c0-5.148,0.949-9.035,2.848-11.659c1.899-2.622,4.538-3.934,7.917-3.934c3.508,0,6.18,1.312,8.014,3.934
			c1.834,2.624,2.751,6.51,2.751,11.659C179.397,181.738,178.464,185.625,176.598,188.248z M189.729,184.482
			c1.126,1.689,2.783,2.535,4.973,2.535c0.354,0,0.739-0.017,1.158-0.049c0.418-0.031,0.804-0.08,1.158-0.145v-10.911h5.938v14.917
			c-0.708,0.258-1.811,0.548-3.307,0.869s-3.307,0.482-5.43,0.482c-1.867,0-3.549-0.33-5.045-0.988
			c-1.498-0.66-2.776-1.643-3.839-2.945c-1.062-1.304-1.883-2.928-2.462-4.876c-0.579-1.946-0.869-4.208-0.869-6.783
			c0-2.542,0.338-4.787,1.014-6.734c0.676-1.947,1.594-3.58,2.752-4.9c1.159-1.319,2.526-2.309,4.104-2.969
			c1.576-0.66,3.266-0.99,5.068-0.99c1.158,0,2.197,0.089,3.114,0.265c0.917,0.178,1.714,0.379,2.39,0.604
			c0.676,0.226,1.23,0.467,1.666,0.724c0.434,0.258,0.764,0.451,0.989,0.58l-1.546,4.731c-0.707-0.45-1.576-0.853-2.605-1.207
			c-1.031-0.354-2.093-0.531-3.187-0.531c-1.417,0-2.606,0.258-3.572,0.772c-0.966,0.515-1.763,1.231-2.39,2.148
			c-0.627,0.917-1.078,2.012-1.352,3.283c-0.273,1.272-0.41,2.679-0.41,4.224C188.039,180.162,188.602,182.793,189.729,184.482z"/>
	</g>
	<path id="EG_89_" style="display:none;fill:#FFFFFF;" d="M266.733,213.833h-172.1c-2.634,0-4.77,2.237-4.77,4.997v51.565
		c0,2.759,2.136,4.997,4.77,4.997h172.1c2.634,0,4.77-2.238,4.77-4.997V218.83C271.503,216.07,269.367,213.833,266.733,213.833z
		 M178.22,259.815h-19.2v-30.356h18.136v5.002h-12.187v6.816h10.592v5.003h-10.592v8.533h13.251V259.815z M189.199,252.631
		c1.127,1.717,2.787,2.574,4.98,2.574c0.354,0,0.741-0.016,1.16-0.049c0.42-0.031,0.807-0.08,1.162-0.146v-11.084h5.948v15.154
		c-0.71,0.262-1.813,0.557-3.313,0.883c-1.498,0.326-3.313,0.49-5.44,0.49c-1.87,0-3.555-0.336-5.054-1.005
		c-1.5-0.67-2.781-1.669-3.845-2.992c-1.064-1.323-1.887-2.975-2.468-4.952c-0.58-1.979-0.869-4.275-0.869-6.891
		c0-2.584,0.338-4.863,1.016-6.842c0.677-1.979,1.596-3.637,2.756-4.979c1.162-1.34,2.531-2.346,4.111-3.016
		s3.271-1.006,5.078-1.006c1.16,0,2.201,0.09,3.119,0.27c0.92,0.18,1.717,0.385,2.395,0.613c0.676,0.229,1.232,0.475,1.668,0.736
		s0.766,0.458,0.992,0.588l-1.549,4.807c-0.709-0.458-1.579-0.866-2.611-1.227c-1.032-0.359-2.096-0.539-3.191-0.539
		c-1.42,0-2.612,0.262-3.579,0.784c-0.967,0.523-1.765,1.251-2.394,2.183s-1.08,2.044-1.354,3.335
		c-0.274,1.292-0.411,2.722-0.411,4.292C187.506,248.242,188.07,250.915,189.199,252.631z"/>
	<g id="Haus_77_">
		<g>
			<g>
				<path style="fill:#FFFFFF;" d="M76.973,124.712c21.382-14.327,42.764-28.655,64.146-42.982
					c5.327-3.569,0.327-12.236-5.047-8.635c-21.382,14.327-42.764,28.655-64.146,42.982
					C66.599,119.646,71.599,128.313,76.973,124.712L76.973,124.712z"/>
			</g>
		</g>
		<g>
			<g>
				<path style="fill:#FFFFFF;" d="M276.718,278.947c0.05-0.382,0.463-0.231-0.573-0.231c-1.03,0-2.06,0-3.09,0
					c-3.723,0-7.445,0-11.169,0c-12.585,0-25.171,0-37.757,0c-31.892,0-63.784,0-95.677,0c-11.399,0-22.799,0-34.199,0
					c-2.833,0-5.667,0-8.5,0c-1.684,0-1.105,0.535-1.105-0.566c0-22.843,0-45.687,0-68.529c0-30.729,0-61.459,0-92.189
					c-0.826,1.439-1.651,2.878-2.477,4.317c19.946-13.339,39.893-26.679,59.838-40.018c-1.284,0.168-2.568,0.336-3.853,0.504
					c45.156,13.664,90.311,27.327,135.467,40.991c0.824,0.25,3.093,0.533,3.093,1.135c0,2.639,0,5.278,0,7.917
					c0,12.192,0,24.384,0,36.576c0,30.577,0,61.153,0,91.73C276.718,266.704,276.718,272.826,276.718,278.947c0,6.448,10,6.448,10,0
					c0-48.891,0-97.78,0-146.67c0-7.945,0.884-15.27-8.594-18.138c-7.547-2.284-15.095-4.567-22.642-6.851
					c-29.569-8.947-59.14-17.895-88.709-26.842c-8.367-2.531-16.733-5.063-25.1-7.595c-2.708-0.819-4.598,0.169-6.763,1.617
					c-4.735,3.167-9.47,6.333-14.206,9.5c-12.558,8.398-25.116,16.796-37.673,25.195c-2.79,1.866-8.384,4.381-8.384,8.268
					c0,1.592,0,3.185,0,4.777c0,51.404,0,102.808,0,154.212c0,3.869,0.424,7.525,3.748,10.181c2.583,2.063,5.429,2.115,8.488,2.115
					c8.553,0,17.106,0,25.659,0c30.943,0,61.887,0,92.83,0c18.055,0,36.109,0,54.165,0c4.894,0,9.788,0,14.682,0
					c6.506,0,11.551-2.471,12.498-9.769C287.546,272.565,277.536,272.646,276.718,278.947z"/>
			</g>
		</g>
		<g>
			<line style="fill:#FFFFFF;" x1="90.564" y1="209.949" x2="270.803" y2="209.949"/>
			<g>
				<path style="fill:#FFFFFF;" d="M90.564,211.449c49.869,0,99.738,0,149.607,0c10.21,0,20.421,0,30.632,0c1.935,0,1.935-3,0-3
					c-49.869,0-99.738,0-149.606,0c-10.211,0-20.421,0-30.632,0C88.629,208.449,88.629,211.449,90.564,211.449L90.564,211.449z"/>
			</g>
		</g>
		<g>
			<line style="fill:#FFFFFF;" x1="90.564" y1="142.746" x2="270.803" y2="142.746"/>
			<g>
				<path style="fill:#FFFFFF;" d="M90.564,144.246c49.869,0,99.738,0,149.607,0c10.21,0,20.421,0,30.632,0c1.935,0,1.935-3,0-3
					c-49.869,0-99.738,0-149.606,0c-10.211,0-20.421,0-30.632,0C88.629,141.246,88.629,144.246,90.564,144.246L90.564,144.246z"/>
			</g>
		</g>
		<g>
			<g>
				<path style="fill:#FFFFFF;" d="M137.828,82.027c46.735,13.889,93.469,27.777,140.205,41.666
					c2.418,0.719,4.836,1.438,7.254,2.156c6.197,1.842,8.825-7.81,2.658-9.643c-46.734-13.889-93.47-27.777-140.204-41.666
					c-2.418-0.719-4.836-1.438-7.254-2.156C134.289,70.542,131.661,80.194,137.828,82.027L137.828,82.027z"/>
			</g>
		</g>
	</g>
	<g id="DG_66_" style="display:none;">
		<path style="display:inline;fill:#FFFFFF;" d="M151.115,111.59c-0.457-0.881-1.08-1.588-1.871-2.121
			c-0.791-0.532-1.81-0.798-3.056-0.798c-0.244,0-0.518,0.008-0.821,0.023c-0.305,0.016-0.578,0.053-0.821,0.114v18.977
			c0.152,0.03,0.319,0.045,0.501,0.045c0.183,0,0.35,0,0.502,0c1.277,0,2.349-0.243,3.216-0.73c0.866-0.486,1.565-1.155,2.098-2.007
			c0.532-0.851,0.913-1.862,1.141-3.033s0.342-2.456,0.342-3.855c0-1.216-0.091-2.402-0.273-3.559
			C151.89,113.491,151.571,112.473,151.115,111.59z"/>
		<path style="display:inline;fill:#FFFFFF;" d="M266.678,125.699c0,0-121.175-35.737-122.558-36.15
			c-1.738-0.52-3.973-0.219-4.746,0.3c-0.904,0.607-44.995,29.793-44.995,29.793c-4.802,3.201-4.802,3.35-4.802,6.002v6.803
			c0,2.651,2.15,4.802,4.802,4.802h172.095c2.651,0,4.801-2.15,4.801-4.802l0.204-1.946
			C271.479,127.849,270.085,127.022,266.678,125.699z M157.068,124.888c-0.655,1.84-1.559,3.337-2.714,4.493
			c-1.156,1.157-2.532,2.001-4.128,2.532c-1.597,0.532-3.353,0.798-5.269,0.798c-1.003,0-1.984-0.054-2.942-0.16
			c-0.958-0.107-1.985-0.281-3.08-0.525v-27.552c1.278-0.274,2.479-0.457,3.604-0.548c1.125-0.091,2.174-0.137,3.147-0.137
			c1.854,0,3.55,0.273,5.086,0.821c1.535,0.548,2.835,1.407,3.9,2.578c1.064,1.171,1.893,2.662,2.486,4.471
			c0.593,1.81,0.89,3.991,0.89,6.546C158.048,120.821,157.721,123.048,157.068,124.888z M167.811,125.664
			c1.064,1.597,2.63,2.395,4.699,2.395c0.334,0,0.699-0.015,1.095-0.046c0.395-0.03,0.76-0.075,1.095-0.137v-10.31h5.611v14.096
			c-0.669,0.244-1.711,0.517-3.125,0.82c-1.415,0.304-3.125,0.457-5.132,0.457c-1.765,0-3.353-0.313-4.768-0.936
			c-1.414-0.622-2.623-1.551-3.626-2.782s-1.779-2.767-2.327-4.607c-0.547-1.84-0.821-3.976-0.821-6.409
			c0-2.402,0.319-4.523,0.958-6.364c0.639-1.839,1.505-3.383,2.601-4.63c1.094-1.247,2.387-2.182,3.877-2.806
			c1.489-0.623,3.086-0.936,4.79-0.936c1.095,0,2.075,0.084,2.942,0.251c0.866,0.167,1.619,0.358,2.258,0.57
			c0.639,0.213,1.164,0.441,1.574,0.685c0.411,0.244,0.722,0.426,0.935,0.547l-1.459,4.471c-0.669-0.425-1.491-0.805-2.464-1.14
			c-0.974-0.334-1.977-0.501-3.01-0.501c-1.339,0-2.463,0.243-3.376,0.729c-0.912,0.487-1.665,1.163-2.258,2.03
			c-0.593,0.867-1.019,1.901-1.277,3.102c-0.259,1.202-0.388,2.532-0.388,3.992C166.214,121.581,166.746,124.067,167.811,125.664z"
			/>
	</g>
</g>
<g id="Ebene_1">
</g>
</svg>
