<?xml version="1.0" encoding="iso-8859-1"?>
<!-- Generator: Adobe Illustrator 16.0.0, SVG Export Plug-In . SVG Version: 6.00 Build 0)  -->
<!DOCTYPE svg PUBLIC "-//W3C//DTD SVG 1.1//EN" "http://www.w3.org/Graphics/SVG/1.1/DTD/svg11.dtd">
<svg version="1.1" xmlns="http://www.w3.org/2000/svg" xmlns:xlink="http://www.w3.org/1999/xlink" x="0px" y="0px" width="361px"
	 height="361px" viewBox="0 0 361 361" style="enable-background:new 0 0 361 361;" xml:space="preserve">
<g id="control_x5F_arrow_x5F_down_x5F_right">
	<g>
		<path style="fill:none;stroke:#FFFFFF;stroke-width:10;stroke-miterlimit:10;" d="M175.761,247.423
			c-2.071,2.071-4.273,3.226-4.919,2.579l-20.287-20.287c-0.646-0.646,0.508-2.849,2.579-4.92l73.112-73.111
			c2.07-2.07,4.272-3.225,4.919-2.579l20.287,20.288c0.646,0.646-0.508,2.848-2.578,4.918L175.761,247.423z"/>
		<g>
			<g>
				<path style="fill:#FFFFFF;" d="M264.266,155.108c5.833,43.665,11.667,87.33,17.5,130.994c1.667-1.667,3.333-3.333,5-5
					c-43.664-5.834-87.328-11.667-130.993-17.501c1.179,2.845,2.357,5.69,3.536,8.535c34.919-34.918,69.837-69.837,104.756-104.756
					c2.912-2.912,5.824-5.824,8.736-8.736c4.564-4.564-2.507-11.635-7.07-7.071c-34.919,34.919-69.838,69.838-104.756,104.756
					c-2.912,2.912-5.825,5.825-8.737,8.737c-3.399,3.398-0.542,7.99,3.536,8.535c43.665,5.834,87.329,11.667,130.993,17.501
					c2.463,0.329,5.329-2.537,5-5c-5.833-43.664-11.667-87.329-17.5-130.994C273.425,148.813,263.414,148.731,264.266,155.108z"/>
			</g>
		</g>
	</g>
</g>
<g id="Ebene_1">
</g>
</svg>
