<?xml version="1.0" encoding="iso-8859-1"?>
<!-- Generator: Adobe Illustrator 16.0.0, SVG Export Plug-In . SVG Version: 6.00 Build 0)  -->
<!DOCTYPE svg PUBLIC "-//W3C//DTD SVG 1.1//EN" "http://www.w3.org/Graphics/SVG/1.1/DTD/svg11.dtd">
<svg version="1.1" xmlns="http://www.w3.org/2000/svg" xmlns:xlink="http://www.w3.org/1999/xlink" x="0px" y="0px" width="361px"
	 height="361px" viewBox="0 0 361 361" style="enable-background:new 0 0 361 361;" xml:space="preserve">
<g id="control_x5F_building_x5F_modern_x5F_s_x5F_int_x5F_all">
	<g id="Haus_38_" style="display:none;">
		<g style="display:inline;">
			<g>
				<g>
					<path style="fill:#FFFFFF;" d="M177.923,79.901c27.878,21.144,55.756,42.288,83.635,63.431
						c0.841-3.106,1.683-6.211,2.523-9.317c-27.814,0-55.63,0-83.444,0c-6.449,0-6.449,10,0,10c27.814,0,55.63,0,83.444,0
						c5.402,0,6.252-6.489,2.523-9.317c-27.878-21.144-55.757-42.288-83.635-63.431C177.829,67.367,172.856,76.058,177.923,79.901
						L177.923,79.901z"/>
					<path style="fill:#FFFFFF;" d="M266.455,134.697c-27.741-21.144-55.482-42.287-83.224-63.431c-1.254-0.956-3.794-0.956-5.047,0
						c-27.741,21.144-55.482,42.287-83.223,63.431c-3.717,2.833-2.888,9.317,2.523,9.317c49.712,0,99.425,0,149.137,0
						c5.771,0,11.54,0,17.311,0c6.448,0,6.448-10,0-10c-49.712,0-99.424,0-149.137,0c-5.77,0-11.541,0-17.311,0
						c0.841,3.106,1.683,6.211,2.523,9.317c27.741-21.144,55.482-42.287,83.224-63.431c-1.683,0-3.365,0-5.047,0
						c27.742,21.144,55.483,42.287,83.224,63.431C266.539,147.243,271.512,138.551,266.455,134.697z"/>
				</g>
			</g>
			<g>
				<g>
					<path style="fill:#FFFFFF;" d="M244.523,281.64c0.119-0.612,2.896-0.431,0.289-0.431c-1.465,0-2.931,0-4.396,0
						c-5.081,0-10.163,0-15.244,0c-15.325,0-30.651,0-45.977,0c-15.068,0-30.137,0-45.206,0c-4.76,0-9.52,0-14.279,0
						c-1.186,0-2.373,0-3.559,0c-2.265,0,0.889,0.406,0.889,1.611c0-46.66,0-93.319,0-139.979c0-1.733-2.492,1.174-1.618,1.174
						c0.944,0,1.889,0,2.833,0c4.307,0,8.615,0,12.922,0c14.678,0,29.355,0,44.033,0c23.613,0,47.228,0,70.841,0
						c-0.56,0-1.707-2.943-1.707-1.021c0,1.164,0,2.328,0,3.492c0,4.483,0,8.967,0,13.45c0,14.579,0,29.157,0,43.736
						c0,25.761,0,51.521,0,77.282c0,0.671,0,1.343,0,2.014c0,6.448,10,6.448,10,0c0-46.471,0-92.941,0-139.413
						c0-9.78-8.202-9.541-15.322-9.541c-12.724,0-25.447,0-38.171,0c-27.419,0-54.837,0-82.256,0c-3.674,0-7.627-0.144-9.954,3.425
						c-1.817,2.788-1.6,5.566-1.6,8.683c0,10.969,0,21.938,0,32.908c0,30.061,0,60.123,0,90.184c0,6.925-2.398,19.894,6.804,21.814
						c2.144,0.447,4.523,0.179,6.69,0.179c4.976,0,9.951,0,14.927,0c30.401,0,60.802,0,91.203,0c5.256,0,10.513,0,15.77,0
						c5.179,0,10.496-0.577,11.731-6.911C255.396,277.999,245.758,275.313,244.523,281.64z"/>
				</g>
			</g>
		</g>
		<g style="display:inline;">
			<line style="fill:#FFFFFF;" x1="119.521" y1="189.112" x2="241.99" y2="189.112"/>
			<g>
				<path style="fill:#FFFFFF;" d="M119.521,190.612c40.823,0,81.646,0,122.47,0c1.935,0,1.935-3,0-3c-40.823,0-81.646,0-122.47,0
					C117.586,187.612,117.586,190.612,119.521,190.612L119.521,190.612z"/>
			</g>
		</g>
		<g style="display:inline;">
			<line style="fill:#FFFFFF;" x1="119.521" y1="235.75" x2="241.99" y2="235.75"/>
			<g>
				<path style="fill:#FFFFFF;" d="M119.521,237.25c40.823,0,81.646,0,122.47,0c1.935,0,1.935-3,0-3c-40.823,0-81.646,0-122.47,0
					C117.586,234.25,117.586,237.25,119.521,237.25L119.521,237.25z"/>
			</g>
		</g>
	</g>
	<g id="OG_37_">
		<path style="fill:#FFFFFF;" d="M174.106,160.282c-0.28-0.773-0.674-1.386-1.18-1.84c-0.507-0.453-1.187-0.68-2.04-0.68
			c-0.854,0-1.534,0.227-2.04,0.68c-0.507,0.454-0.9,1.074-1.18,1.86c-0.28,0.787-0.467,1.7-0.56,2.74
			c-0.094,1.04-0.14,2.16-0.14,3.36c0,1.2,0.046,2.327,0.14,3.38c0.093,1.054,0.28,1.967,0.56,2.74
			c0.28,0.773,0.673,1.387,1.18,1.84c0.506,0.454,1.187,0.68,2.04,0.68c0.826,0,1.5-0.227,2.02-0.68c0.52-0.453,0.92-1.073,1.2-1.86
			c0.28-0.787,0.466-1.7,0.56-2.74c0.093-1.04,0.14-2.16,0.14-3.36c0-1.2-0.047-2.326-0.14-3.38
			C174.572,161.969,174.386,161.056,174.106,160.282z"/>
		<path style="fill:#FFFFFF;" d="M238.393,145.667H123.35c-2.179,0-3.945,1.825-3.945,4.076v32.27c0,2.25,1.766,4.076,3.945,4.076
			h115.043c2.178,0,3.944-1.826,3.944-4.076v-32.27C242.337,147.492,240.57,145.667,238.393,145.667z"/>
	</g>
	<path id="EG_59_" style="fill:#FFFFFF;" d="M238.393,192.068H123.35c-2.179,0-3.945,1.825-3.945,4.076v32.27
		c0,2.25,1.766,4.075,3.945,4.075h115.043c2.178,0,3.944-1.825,3.944-4.075v-32.27C242.337,193.894,240.57,192.068,238.393,192.068z
		"/>
	<path id="KG_47_" style="fill:#FFFFFF;" d="M238.225,238.902H123.183c-2.179,0-3.945,1.824-3.945,4.075v32.27
		c0,2.251,1.766,4.075,3.945,4.075h115.042c2.18,0,3.945-1.824,3.945-4.075v-32.27C242.17,240.727,240.404,238.902,238.225,238.902z
		"/>
	<g id="Steine">
		<g>
			<g>
				<g>
					<path style="fill:#FFFFFF;" d="M258.334,237.25c10.61,0,21.222,0,31.832,0c1.935,0,1.935-3,0-3c-10.61,0-21.222,0-31.832,0
						C256.399,234.25,256.399,237.25,258.334,237.25L258.334,237.25z"/>
				</g>
			</g>
			<g>
				<g>
					<path style="fill:#FFFFFF;" d="M279.25,268.445c3,0,6,0,9,0c4.514,0,4.514-7,0-7c-3,0-6,0-9,0
						C274.736,261.445,274.736,268.445,279.25,268.445L279.25,268.445z"/>
				</g>
			</g>
			<g>
				<g>
					<path style="fill:#FFFFFF;" d="M260.583,283.682c5.333,0,10.667,0,16,0c4.514,0,4.514-7,0-7c-5.333,0-10.667,0-16,0
						C256.069,276.682,256.069,283.682,260.583,283.682L260.583,283.682z"/>
				</g>
			</g>
			<g>
				<g>
					<path style="fill:#FFFFFF;" d="M260.917,272.445c2,0,4,0,6,0c1.908,0,3.5-1.592,3.5-3.5s-1.592-3.5-3.5-3.5c-2,0-4,0-6,0
						c-1.908,0-3.5,1.592-3.5,3.5S259.009,272.445,260.917,272.445L260.917,272.445z"/>
				</g>
			</g>
			<g>
				<g>
					<path style="fill:#FFFFFF;" d="M274.25,279.445c0.667,0,1.333,0,2,0c1.908,0,3.5-1.592,3.5-3.5s-1.592-3.5-3.5-3.5
						c-0.667,0-1.333,0-2,0c-1.908,0-3.5,1.592-3.5,3.5S272.342,279.445,274.25,279.445L274.25,279.445z"/>
				</g>
			</g>
			<g>
				<g>
					<path style="fill:#FFFFFF;" d="M268.417,256.445c-2,0-4,0-6,0c-1.908,0-3.5,1.592-3.5,3.5s1.592,3.5,3.5,3.5c2,0,4,0,6,0
						c1.908,0,3.5-1.592,3.5-3.5S270.325,256.445,268.417,256.445L268.417,256.445z"/>
				</g>
			</g>
			<g>
				<g>
					<path style="fill:#FFFFFF;" d="M262.834,241.612c-0.667,0-1.333,0-2,0c-1.908,0-3.5,1.592-3.5,3.5s1.592,3.5,3.5,3.5
						c0.667,0,1.333,0,2,0c1.908,0,3.5-1.592,3.5-3.5S264.742,241.612,262.834,241.612L262.834,241.612z"/>
				</g>
			</g>
			<g>
				<g>
					<path style="fill:#FFFFFF;" d="M286.5,244.612c-5.333,0-10.667,0-16,0c-4.514,0-4.514,7,0,7c5.333,0,10.667,0,16,0
						C291.014,251.612,291.014,244.612,286.5,244.612L286.5,244.612z"/>
				</g>
			</g>
			<g>
				<g>
					<path style="fill:#FFFFFF;" d="M277.5,252.612c-5.083,0-10.167,0-15.25,0c-4.514,0-4.514,7,0,7c5.083,0,10.167,0,15.25,0
						C282.014,259.612,282.014,252.612,277.5,252.612L277.5,252.612z"/>
				</g>
			</g>
			<g>
				<g>
					<path style="fill:#FFFFFF;" d="M283.834,239.612c-2,0-4,0-6,0c-1.908,0-3.5,1.592-3.5,3.5s1.592,3.5,3.5,3.5c2,0,4,0,6,0
						c1.908,0,3.5-1.592,3.5-3.5S285.742,239.612,283.834,239.612L283.834,239.612z"/>
				</g>
			</g>
			<g>
				<g>
					<path style="fill:#FFFFFF;" d="M266.5,236.612c-2,0-4,0-6,0c-1.908,0-3.5,1.592-3.5,3.5s1.592,3.5,3.5,3.5c2,0,4,0,6,0
						c1.908,0,3.5-1.592,3.5-3.5S268.408,236.612,266.5,236.612L266.5,236.612z"/>
				</g>
			</g>
			<g>
				<g>
					<path style="fill:#FFFFFF;" d="M262.916,284.736c-0.667,0-1.333,0-2,0c-1.908,0-3.5,1.592-3.5,3.5s1.592,3.5,3.5,3.5
						c0.667,0,1.333,0,2,0c1.908,0,3.5-1.592,3.5-3.5S264.824,284.736,262.916,284.736L262.916,284.736z"/>
				</g>
			</g>
			<g>
				<g>
					<path style="fill:#FFFFFF;" d="M287.582,284.736c-5.333,0-10.667,0-16,0c-4.514,0-4.514,7,0,7c5.333,0,10.667,0,16,0
						C292.096,291.736,292.096,284.736,287.582,284.736L287.582,284.736z"/>
				</g>
			</g>
			<g>
				<g>
					<path style="fill:#FFFFFF;" d="M288.5,270.445c-2,0-4,0-6,0c-1.908,0-3.5,1.592-3.5,3.5s1.592,3.5,3.5,3.5c2,0,4,0,6,0
						c1.908,0,3.5-1.592,3.5-3.5S290.408,270.445,288.5,270.445L288.5,270.445z"/>
				</g>
			</g>
			<g>
				<g>
					<path style="fill:#FFFFFF;" d="M287.834,236.612c-2,0-4,0-6,0c-1.908,0-3.5,1.592-3.5,3.5s1.592,3.5,3.5,3.5c2,0,4,0,6,0
						c1.908,0,3.5-1.592,3.5-3.5S289.742,236.612,287.834,236.612L287.834,236.612z"/>
				</g>
			</g>
		</g>
		<g>
			<g>
				<g>
					<path style="fill:#FFFFFF;" d="M98.499,273.445c0.667,0,1.333,0,2,0c1.908,0,3.5-1.592,3.5-3.5s-1.592-3.5-3.5-3.5
						c-0.667,0-1.333,0-2,0c-1.908,0-3.5,1.592-3.5,3.5S96.591,273.445,98.499,273.445L98.499,273.445z"/>
				</g>
			</g>
			<g>
				<g>
					<path style="fill:#FFFFFF;" d="M73.833,279.445c5.333,0,10.667,0,16,0c4.514,0,4.514-7,0-7c-5.333,0-10.667,0-16,0
						C69.319,272.445,69.319,279.445,73.833,279.445L73.833,279.445z"/>
				</g>
			</g>
			<g>
				<g>
					<path style="fill:#FFFFFF;" d="M85.833,268.445c5.083,0,10.167,0,15.25,0c4.514,0,4.514-7,0-7c-5.083,0-10.167,0-15.25,0
						C81.318,261.445,81.318,268.445,85.833,268.445L85.833,268.445z"/>
				</g>
			</g>
			<g>
				<g>
					<path style="fill:#FFFFFF;" d="M73.458,291.736c2,0,4,0,6,0c1.908,0,3.5-1.592,3.5-3.5s-1.592-3.5-3.5-3.5c-2,0-4,0-6,0
						c-1.908,0-3.5,1.592-3.5,3.5S71.55,291.736,73.458,291.736L73.458,291.736z"/>
				</g>
			</g>
			<g>
				<g>
					<path style="fill:#FFFFFF;" d="M94.165,285.682c2,0,4,0,6,0c1.908,0,3.5-1.592,3.5-3.5s-1.592-3.5-3.5-3.5c-2,0-4,0-6,0
						c-1.908,0-3.5,1.592-3.5,3.5S92.257,285.682,94.165,285.682L94.165,285.682z"/>
				</g>
			</g>
			<g>
				<g>
					<path style="fill:#FFFFFF;" d="M88.083,252.612c-3,0-6,0-9,0c-4.514,0-4.514,7,0,7c3,0,6,0,9,0
						C92.597,259.612,92.597,252.612,88.083,252.612L88.083,252.612z"/>
				</g>
			</g>
			<g>
				<g>
					<path style="fill:#FFFFFF;" d="M101.083,236.612c-5.333,0-10.667,0-16,0c-4.514,0-4.514,7,0,7c5.333,0,10.667,0,16,0
						C105.597,243.612,105.597,236.612,101.083,236.612L101.083,236.612z"/>
				</g>
			</g>
			<g>
				<g>
					<path style="fill:#FFFFFF;" d="M100.416,241.612c-2,0-4,0-6,0c-1.908,0-3.5,1.592-3.5,3.5s1.592,3.5,3.5,3.5c2,0,4,0,6,0
						c1.908,0,3.5-1.592,3.5-3.5S102.324,241.612,100.416,241.612L100.416,241.612z"/>
				</g>
			</g>
			<g>
				<g>
					<path style="fill:#FFFFFF;" d="M80.708,237.945c-1.083,0-2.167,0-3.25,0c-1.908,0-3.5,1.592-3.5,3.5s1.592,3.5,3.5,3.5
						c1.083,0,2.167,0,3.25,0c1.908,0,3.5-1.592,3.5-3.5S82.615,237.945,80.708,237.945L80.708,237.945z"/>
				</g>
			</g>
			<g>
				<g>
					<path style="fill:#FFFFFF;" d="M98.25,259.612c0.667,0,1.333,0,2,0c1.908,0,3.5-1.592,3.5-3.5s-1.592-3.5-3.5-3.5
						c-0.667,0-1.333,0-2,0c-1.908,0-3.5,1.592-3.5,3.5S96.342,259.612,98.25,259.612L98.25,259.612z"/>
				</g>
			</g>
			<g>
				<g>
					<path style="fill:#FFFFFF;" d="M100.498,284.736c-2,0-4,0-6,0c-1.908,0-3.5,1.592-3.5,3.5s1.592,3.5,3.5,3.5c2,0,4,0,6,0
						c1.908,0,3.5-1.592,3.5-3.5S102.405,284.736,100.498,284.736L100.498,284.736z"/>
				</g>
			</g>
			<g>
				<g>
					<path style="fill:#FFFFFF;" d="M84.583,281.167c-0.667,0-1.333,0-2,0c-1.908,0-3.5,1.592-3.5,3.5s1.592,3.5,3.5,3.5
						c0.667,0,1.333,0,2,0c1.908,0,3.5-1.592,3.5-3.5S86.491,281.167,84.583,281.167L84.583,281.167z"/>
				</g>
			</g>
			<g>
				<g>
					<path style="fill:#FFFFFF;" d="M72.167,237.25c10.611,0,21.222,0,31.833,0c1.935,0,1.935-3,0-3c-10.611,0-21.222,0-31.833,0
						C70.232,234.25,70.232,237.25,72.167,237.25L72.167,237.25z"/>
				</g>
			</g>
			<g>
				<g>
					<path style="fill:#FFFFFF;" d="M79.832,244.167c-2,0-4,0-6,0c-1.908,0-3.5,1.592-3.5,3.5s1.592,3.5,3.5,3.5c2,0,4,0,6,0
						c1.908,0,3.5-1.592,3.5-3.5S81.739,244.167,79.832,244.167L79.832,244.167z"/>
				</g>
			</g>
			<g>
				<g>
					<path style="fill:#FFFFFF;" d="M78.832,263.445c-1.833,0-3.667,0-5.5,0c-1.908,0-3.5,1.592-3.5,3.5s1.592,3.5,3.5,3.5
						c1.833,0,3.667,0,5.5,0c1.908,0,3.5-1.592,3.5-3.5S80.739,263.445,78.832,263.445L78.832,263.445z"/>
				</g>
			</g>
		</g>
	</g>
	<g id="DG_48_">
		<path style="fill:#FFFFFF;" d="M173.79,114.753c-0.388-0.749-0.918-1.35-1.589-1.802c-0.672-0.452-1.538-0.679-2.597-0.679
			c-0.208,0-0.44,0.007-0.698,0.02c-0.259,0.014-0.491,0.045-0.698,0.097v16.125c0.129,0.026,0.271,0.038,0.426,0.038
			s0.297,0,0.426,0c1.085,0,1.996-0.206,2.733-0.62c0.736-0.413,1.33-0.981,1.782-1.705c0.452-0.723,0.775-1.583,0.969-2.578
			c0.194-0.995,0.291-2.086,0.291-3.275c0-1.034-0.078-2.041-0.232-3.024C174.449,116.368,174.177,115.502,173.79,114.753z"/>
		<path style="fill:#FFFFFF;" d="M238.883,115.084c0,0-81.573-24.463-82.725-24.808c-1.448-0.433-3.309-0.183-3.953,0.25
			c-0.753,0.506-29.458,19.558-29.458,19.558c-4,2.667-4,2.791-4,5l0.037,20.333c0,2.209,1.791,4,4,4H238.92c2.209,0,4-1.791,4-4
			l-0.037-16.333C242.883,116.875,241.721,116.186,238.883,115.084z"/>
	</g>
	<g id="Haus_39_">
		<g>
			<g>
				<path style="fill:#FFFFFF;" d="M155.004,88.488c38.417,11.417,76.833,22.833,115.25,34.25c6.197,1.842,8.824-7.81,2.658-9.643
					c-38.417-11.417-76.833-22.833-115.25-34.25C151.465,77.004,148.837,86.656,155.004,88.488L155.004,88.488z"/>
			</g>
		</g>
		<g>
			<g>
				<path style="fill:#FFFFFF;" d="M100.606,123.359c21.896-14.672,43.792-29.343,65.688-44.015
					c5.327-3.569,0.327-12.236-5.047-8.635c-21.896,14.672-43.792,29.343-65.688,44.015
					C90.232,118.294,95.232,126.96,100.606,123.359L100.606,123.359z"/>
			</g>
		</g>
		<g>
			<g>
				<path style="fill:#FFFFFF;" d="M244.523,281.64c0.119-0.612,2.896-0.431,0.289-0.431c-1.465,0-2.931,0-4.396,0
					c-5.081,0-10.163,0-15.244,0c-15.325,0-30.651,0-45.977,0c-15.068,0-30.137,0-45.206,0c-4.76,0-9.52,0-14.279,0
					c-1.186,0-2.373,0-3.559,0c-2.261,0,0.889,0.243,0.889,1.638c0-50.77,0-101.539,0-152.309c0-6.875,0-13.751,0-20.626
					c-0.826,1.439-1.651,2.878-2.477,4.317c13.553-9.064,27.106-18.128,40.659-27.192c-1.284,0.168-2.568,0.336-3.853,0.504
					c23.649,7.156,47.298,14.312,70.946,21.468c5.637,1.705,11.272,3.411,16.909,5.116c1.472,0.445,2.944,0.891,4.417,1.336
					c1.829,0.554,0.701,0.547,0.701-1.137c0,6.301,0,12.601,0,18.902c0,49.911,0,99.823,0,149.734c0,0.003,0,0.005,0,0.008
					c0,6.448,10,6.448,10,0c0-49.693,0-99.387,0-149.08c0-6.503,0-13.007,0-19.51c0-8.85-15.068-10.686-21.594-12.661
					c-25.828-7.815-51.655-15.63-77.482-23.445c-3.27-0.989-5.322,0.283-7.953,2.042c-5.823,3.895-11.646,7.789-17.469,11.683
					c-5.823,3.894-11.646,7.788-17.469,11.683c-2.637,1.763-5.337,3.214-5.337,6.838c0,21.712,0,43.424,0,65.137
					c0,29.982,0,59.966,0,89.949c0,5.785,0,11.57,0,17.355c0,10.699,14.644,8.248,21.506,8.248c25.049,0,50.099,0,75.148,0
					c10.905,0,21.812,0,32.718,0c6.465,0,16.082,1.651,17.753-6.911C255.396,277.999,245.758,275.313,244.523,281.64z"/>
			</g>
		</g>
		<g>
			<line style="fill:#FFFFFF;" x1="119.521" y1="189.112" x2="241.99" y2="189.112"/>
			<g>
				<path style="fill:#FFFFFF;" d="M119.521,190.612c40.823,0,81.646,0,122.47,0c1.935,0,1.935-3,0-3c-40.823,0-81.646,0-122.47,0
					C117.586,187.612,117.586,190.612,119.521,190.612L119.521,190.612z"/>
			</g>
		</g>
		<g>
			<line style="fill:#FFFFFF;" x1="119.521" y1="235.75" x2="241.99" y2="235.75"/>
			<g>
				<path style="fill:#FFFFFF;" d="M119.521,237.25c40.823,0,81.646,0,122.47,0c1.935,0,1.935-3,0-3c-40.823,0-81.646,0-122.47,0
					C117.586,234.25,117.586,237.25,119.521,237.25L119.521,237.25z"/>
			</g>
		</g>
		<g>
			<line style="fill:#FFFFFF;" x1="119.521" y1="142.474" x2="242.768" y2="142.817"/>
			<g>
				<path style="fill:#FFFFFF;" d="M119.521,143.974c41.083,0.114,82.165,0.229,123.247,0.343c1.935,0.005,1.935-2.995,0-3
					c-41.082-0.114-82.165-0.229-123.247-0.343C117.585,140.969,117.586,143.969,119.521,143.974L119.521,143.974z"/>
			</g>
		</g>
	</g>
</g>
<g id="Ebene_1">
</g>
</svg>
