<?xml version="1.0" encoding="iso-8859-1"?>
<!-- Generator: Adobe Illustrator 16.0.0, SVG Export Plug-In . SVG Version: 6.00 Build 0)  -->
<!DOCTYPE svg PUBLIC "-//W3C//DTD SVG 1.1 Tiny//EN" "http://www.w3.org/Graphics/SVG/1.1/DTD/svg11-tiny.dtd">
<svg version="1.1" baseProfile="tiny" id="control_x5F_building_x5F_filled"
	 xmlns="http://www.w3.org/2000/svg" xmlns:xlink="http://www.w3.org/1999/xlink" x="0px" y="0px" width="361px" height="361px"
	 viewBox="0 0 361 361" xml:space="preserve">
<g>
	<path fill="#FFFFFF" d="M175.458,81.779c35.59,26.992,71.18,53.984,106.77,80.976c0.01,0.008,0.021,0.016,0.031,0.024
		c0.841-3.106,1.682-6.211,2.523-9.317c-35.519,0-71.038,0-106.557,0c-6.449,0-6.449,10,0,10c35.519,0,71.038,0,106.557,0
		c5.402,0,6.252-6.489,2.523-9.317c-35.59-26.992-71.18-53.984-106.77-80.976c-0.01-0.008-0.021-0.016-0.031-0.024
		C175.364,69.245,170.391,77.936,175.458,81.779L175.458,81.779z"/>
</g>
<g>
	<polygon fill="#FFFFFF" points="284.589,158.461 178.315,77.462 72.042,158.461 	"/>
	<g>
		<path fill="#FFFFFF" d="M287.113,154.144c-35.422-26.998-70.844-53.996-106.266-80.994c-0.002-0.002-0.005-0.004-0.008-0.006
			c-1.253-0.956-3.793-0.956-5.047,0c-35.422,26.998-70.844,53.996-106.266,80.994c-0.003,0.002-0.005,0.004-0.008,0.006
			c-3.717,2.833-2.888,9.317,2.523,9.317c48.627,0,97.254,0,145.881,0c22.222,0,44.444,0,66.667,0c6.449,0,6.449-10,0-10
			c-48.627,0-97.254,0-145.881,0c-22.222,0-44.444,0-66.667,0c0.841,3.106,1.683,6.211,2.523,9.317
			c35.422-26.998,70.844-53.996,106.266-80.994c0.003-0.002,0.005-0.004,0.008-0.006c-1.682,0-3.365,0-5.047,0
			c35.422,26.998,70.844,53.996,106.266,80.994c0.002,0.002,0.005,0.004,0.008,0.006
			C287.197,166.69,292.169,157.998,287.113,154.144z"/>
	</g>
</g>
<g>
	<path fill="#FFFFFF" d="M261.161,283.495c-0.087,0.556,1.509,0.467-0.29,0.467c-1.18,0-2.359,0-3.539,0c-4.208,0-8.417,0-12.625,0
		c-13.748,0-27.495,0-41.243,0c-30.299,0-60.599,0-90.898,0c-5.97,0-11.939,0-17.91,0c1.289,0,0.992,1.504,0.992-0.629
		c0-1.555,0-3.109,0-4.664c0-5.338,0-10.677,0-16.015c0-29.692,0-59.384,0-89.076c0-3.376,0-6.752,0-10.129
		c0-1.542-0.106,0.014-0.874,0.014c0.691,0,1.382,0,2.073,0c9.068,0,18.137,0,27.205,0c31.417,0,62.833,0,94.25,0
		c11.767,0,23.533,0,35.3,0c2.583,0,5.167,0,7.75,0c1.35,0-0.37-0.523-0.37-0.692c0,0.922,0,1.844,0,2.766
		c0,27.491,0,54.981,0,82.472c0,12.272,0,24.543,0,36.815c0,6.449,10,6.449,10,0c0-23.021,0-46.042,0-69.063
		c0-14.061,0-28.123,0-42.184c0-7.317,1.834-20.115-9.197-20.115c-50.778,0-101.557,0-152.335,0c-5.911,0-14.248-1.429-19.687,1.481
		c-6.598,3.53-4.114,18.674-4.114,24.562c0,29.939,0,59.879,0,89.818c0,6.114-2.59,22.749,6.407,24.25
		c6.053,1.01,12.502,0.39,18.611,0.39c29.969,0,59.938,0,89.907,0c15.334,0,30.669,0,46.003,0c7.598,0,22.583,2.726,24.226-7.809
		C271.787,279.847,262.152,277.138,261.161,283.495z"/>
</g>
<rect id="Haus_x5F_Block_2_" x="101.662" y="169.045" fill="#FFFFFF" stroke="#FFFFFF" stroke-width="7" stroke-linejoin="round" stroke-miterlimit="10" width="153.5" height="109"/>
<path display="none" fill="#FFFFFF" stroke="#FFFFFF" stroke-width="7" stroke-linejoin="round" stroke-miterlimit="10" d="
	M101.662,169.045v109h153.5v-109H101.662z M205.316,240.992c0,5.368-4.352,9.72-9.72,9.72h-34.561c-5.369,0-9.72-4.353-9.72-9.72
	v-34.561c0-5.368,4.352-9.72,9.72-9.72h34.561c5.368,0,9.72,4.352,9.72,9.72V240.992z"/>
<path id="Home_3_" display="none" fill="none" stroke="#FFFFFF" stroke-width="7" stroke-miterlimit="10" d="M205.316,240.992
	c0,5.368-4.352,9.72-9.72,9.72h-34.561c-5.369,0-9.72-4.353-9.72-9.72v-34.561c0-5.368,4.352-9.72,9.72-9.72h34.561
	c5.368,0,9.72,4.352,9.72,9.72V240.992z"/>
<polygon id="DG_x5F_Block_5_" display="none" fill="#FFFFFF" stroke="#FFFFFF" stroke-width="7" stroke-linejoin="round" stroke-miterlimit="10" points="
	102.44,148.33 178.377,91.121 254.315,148.33 "/>
</svg>
