<?xml version="1.0" encoding="iso-8859-1"?>
<!-- Generator: Adobe Illustrator 16.0.0, SVG Export Plug-In . SVG Version: 6.00 Build 0)  -->
<!DOCTYPE svg PUBLIC "-//W3C//DTD SVG 1.1 Tiny//EN" "http://www.w3.org/Graphics/SVG/1.1/DTD/svg11-tiny.dtd">
<svg version="1.1" baseProfile="tiny" id="control_x5F_arrow_x5F_leftward"
	 xmlns="http://www.w3.org/2000/svg" xmlns:xlink="http://www.w3.org/1999/xlink" x="0px" y="0px" width="361px" height="361px"
	 viewBox="0 0 361 361" xml:space="preserve">
<g>
	<g>
		<path fill="#FFFFFF" d="M172.89,235.305c0.21,4.182,1.283,10.306,6.721,10.306c2.935,0,5.869,0,8.804,0
			c7.383,0,15.897,1.506,16.408-8.629c0.433-8.597,0.084-17.281,0.084-25.885c0-26.212,0-52.425,0-78.637
			c0-6.867-2.541-10.91-9.4-10.91c-3.608,0-7.215,0-10.823,0c-2.808,0-5.621-0.371-8.185,0.954
			c-4.201,2.17-3.609,8.632-3.609,12.768c0,5.013,0,10.027,0,15.04c0,27.548,0,55.095,0,82.643
			C172.89,233.738,172.89,234.521,172.89,235.305c0,6.449,10,6.449,10,0c0-24.343,0-48.686,0-73.029c0-9.992,0-19.983,0-29.975
			c0-0.149,0-0.298,0-0.447c0-3.903,0.072-0.303-3.089-0.303c0.407,0,0.814,0,1.222,0c3.732,0,7.464,0,11.196,0
			c1.519,0,3.037,0,4.555,0c0.407,0,0.814,0,1.222,0c-2.804,0-3.287-3.623-3.089,0.304c0.034,0.675,0,1.36,0,2.036
			c0,23.664,0,47.329,0,70.993c0,9.462,0,18.924,0,28.386c0,0.662,0,1.323,0,1.985c0,3.972-0.132,0.357,3.089,0.357
			c-1.077,0-2.154,0-3.23,0c-3.361,0-6.721,0-10.082,0c-1.221,0-2.441,0-3.662,0c-0.407,0-0.814,0-1.222,0
			c2.807,0,3.288,3.623,3.09-0.306C182.567,228.888,172.565,228.856,172.89,235.305z"/>
	</g>
	<g>
		<path fill="#FFFFFF" d="M174.657,98.963c-35.019,26.765-70.037,53.53-105.055,80.294c-3.178,2.429-3.178,6.206,0,8.635
			c35.018,26.765,70.037,53.529,105.055,80.293c3.126,2.39,7.523-0.882,7.523-4.317c0-49.409,0-98.817,0-148.226
			c0-4.121,0-8.241,0-12.362c0-6.449-10-6.449-10,0c0,49.409,0,98.817,0,148.226c0,4.121,0,8.241,0,12.362
			c2.508-1.439,5.016-2.878,7.523-4.317c-35.018-26.765-70.037-53.529-105.055-80.293c0,2.878,0,5.756,0,8.635
			c35.019-26.765,70.037-53.53,105.055-80.294C184.753,103.738,179.782,95.046,174.657,98.963z"/>
	</g>
	<g>
		<path fill="#FFFFFF" d="M215.793,235.305c0.211,4.182,1.284,10.306,6.721,10.306c2.935,0,5.869,0,8.804,0
			c7.383,0,15.897,1.506,16.407-8.629c0.433-8.597,0.084-17.281,0.084-25.885c0-26.212,0-52.425,0.001-78.637
			c0-6.867-2.54-10.91-9.399-10.91c-3.607,0-7.215,0-10.823,0c-2.808,0-5.622-0.372-8.185,0.954
			c-4.2,2.172-3.609,8.631-3.609,12.768c0,5.013,0,10.027,0,15.04c0,27.548,0,55.095,0,82.643
			C215.793,233.738,215.793,234.521,215.793,235.305c0,6.449,10,6.449,10,0c0-24.343,0-48.686,0-73.029c0-9.992,0-19.983,0-29.975
			c0-0.149,0-0.298,0-0.447c0-3.903,0.073-0.303-3.089-0.303c0.407,0,0.814,0,1.222,0c3.732,0,7.464,0,11.197,0
			c1.519,0,3.037,0,4.556,0c0.407,0,0.814,0,1.222,0c-2.804,0-3.289-3.623-3.09,0.304c0.034,0.675,0,1.36,0,2.036
			c0,23.664,0,47.329,0,70.993c0,9.462,0,18.924,0,28.386c0,0.662,0,1.323,0,1.985c0,3.972-0.13,0.357,3.091,0.357
			c-1.077,0-2.154,0-3.23,0c-3.361,0-6.721,0-10.082,0c-1.221,0-2.441,0-3.662,0c-0.407,0-0.814,0-1.222,0
			c2.807,0,3.288,3.623,3.09-0.306C225.47,228.888,215.468,228.856,215.793,235.305z"/>
	</g>
	<g>
		<path fill="#FFFFFF" d="M257.518,235.3c0.211,4.182,1.286,10.305,6.723,10.305c2.934,0,5.869,0,8.803,0
			c7.383,0,15.896,1.506,16.406-8.628c0.433-8.597,0.085-17.281,0.085-25.884c0-26.212,0.001-52.425,0.001-78.637
			c0-6.868-2.541-10.911-9.4-10.911c-3.607,0-7.215,0-10.823,0c-2.81,0-5.62-0.37-8.186,0.954
			c-4.202,2.168-3.609,8.634-3.609,12.769c0,5.013,0,10.027,0,15.04c0,27.548,0,55.095,0,82.643
			C257.518,233.733,257.518,234.517,257.518,235.3c0,6.449,10,6.449,10,0c0-24.343,0-48.686,0-73.029c0-9.992,0-19.983,0-29.975
			c0-0.149,0-0.298,0-0.447c0-3.903,0.072-0.304-3.088-0.304c0.407,0,0.814,0,1.222,0c3.732,0,7.464,0,11.196,0
			c1.519,0,3.037,0,4.556,0c0.407,0,0.814,0,1.222,0c-2.803,0-3.286-3.623-3.088,0.305c0.034,0.675,0,1.36,0,2.036
			c0,23.664-0.001,47.329-0.001,70.993c0,9.462,0,18.924,0,28.386c0,0.662,0,1.323,0,1.985c0,3.97-0.13,0.356,3.09,0.356
			c-1.077,0-2.154,0-3.23,0c-3.36,0-6.721,0-10.081,0c-1.221,0-2.441,0-3.662,0c-0.407,0-0.814,0-1.222,0
			c2.806,0,3.287,3.623,3.088-0.305C267.194,228.883,257.193,228.852,257.518,235.3z"/>
	</g>
</g>
</svg>
