<?xml version="1.0" encoding="iso-8859-1"?>
<!-- Generator: Adobe Illustrator 16.0.0, SVG Export Plug-In . SVG Version: 6.00 Build 0)  -->
<!DOCTYPE svg PUBLIC "-//W3C//DTD SVG 1.1//EN" "http://www.w3.org/Graphics/SVG/1.1/DTD/svg11.dtd">
<svg version="1.1" xmlns="http://www.w3.org/2000/svg" xmlns:xlink="http://www.w3.org/1999/xlink" x="0px" y="0px" width="361px"
	 height="361px" viewBox="0 0 361 361" style="enable-background:new 0 0 361 361;" xml:space="preserve">
<g id="control_x5F_building_x5F_control">
	<g>
		<g>
			<path style="fill:#FFFFFF;" d="M177.977,78.901c35.59,26.992,71.18,53.984,106.77,80.976c0.011,0.008,0.021,0.016,0.031,0.024
				c0.841-3.106,1.683-6.211,2.523-9.317c-35.519,0-71.038,0-106.557,0c-6.449,0-6.449,10,0,10c35.519,0,71.038,0,106.557,0
				c5.402,0,6.252-6.489,2.523-9.317c-35.59-26.992-71.18-53.984-106.77-80.976c-0.011-0.008-0.021-0.016-0.031-0.024
				C177.882,66.367,172.909,75.058,177.977,78.901L177.977,78.901z"/>
		</g>
	</g>
	<g>
		<polygon style="fill:#FFFFFF;" points="287.107,155.583 180.833,74.584 74.56,155.583 		"/>
		<g>
			<path style="fill:#FFFFFF;" d="M289.631,151.266c-35.422-26.998-70.844-53.996-106.266-80.994
				c-0.003-0.002-0.006-0.004-0.008-0.006c-1.254-0.956-3.794-0.956-5.047,0c-35.422,26.998-70.844,53.996-106.266,80.994
				c-0.003,0.002-0.005,0.004-0.008,0.006c-3.717,2.833-2.888,9.317,2.523,9.317c48.627,0,97.254,0,145.882,0
				c22.222,0,44.444,0,66.666,0c6.448,0,6.448-10,0-10c-48.627,0-97.254,0-145.881,0c-22.222,0-44.444,0-66.667,0
				c0.841,3.106,1.683,6.211,2.523,9.317c35.422-26.998,70.844-53.996,106.267-80.994c0.002-0.002,0.005-0.004,0.008-0.006
				c-1.683,0-3.365,0-5.047,0c35.421,26.998,70.844,53.996,106.266,80.994c0.002,0.002,0.005,0.004,0.008,0.006
				C289.715,163.812,294.688,155.12,289.631,151.266z"/>
		</g>
	</g>
	<g>
		<g>
			<path style="fill:#FFFFFF;" d="M263.679,280.616c-0.087,0.557,1.509,0.468-0.29,0.468c-1.179,0-2.358,0-3.538,0
				c-4.208,0-8.417,0-12.625,0c-13.748,0-27.495,0-41.243,0c-30.299,0-60.599,0-90.898,0c-5.97,0-11.939,0-17.91,0
				c1.289,0,0.992,1.503,0.992-0.631c0-1.555,0-3.109,0-4.664c0-5.338,0-10.676,0-16.015c0-29.691,0-59.384,0-89.076
				c0-3.376,0-6.752,0-10.129c0-1.542-0.106,0.014-0.874,0.014c0.691,0,1.382,0,2.073,0c9.068,0,18.137,0,27.205,0
				c31.417,0,62.833,0,94.25,0c11.768,0,23.534,0,35.301,0c2.583,0,5.166,0,7.749,0c1.35,0-0.37-0.523-0.37-0.692
				c0,0.922,0,1.844,0,2.766c0,27.49,0,54.981,0,82.472c0,12.271,0,24.544,0,36.815c0,6.448,10,6.448,10,0
				c0-23.021,0-46.042,0-69.063c0-14.061,0-28.122,0-42.183c0-7.317,1.835-20.115-9.196-20.115c-50.779,0-101.558,0-152.336,0
				c-5.911,0-14.248-1.429-19.687,1.481c-6.598,3.53-4.114,18.674-4.114,24.562c0,29.939,0,59.878,0,89.818
				c0,6.114-2.59,22.748,6.407,24.25c6.053,1.011,12.502,0.39,18.611,0.39c29.969,0,59.938,0,89.908,0c15.334,0,30.669,0,46.003,0
				c7.599,0,22.583,2.726,24.226-7.81C274.305,276.968,264.67,274.26,263.679,280.616z"/>
		</g>
	</g>
	
		<rect id="Haus_x5F_Block" x="104.18" y="166.167" style="display:none;fill:#FFFFFF;stroke:#FFFFFF;stroke-width:7;stroke-linejoin:round;stroke-miterlimit:10;" width="153.5" height="109"/>
	<path style="display:none;fill:#FFFFFF;stroke:#FFFFFF;stroke-width:7;stroke-linejoin:round;stroke-miterlimit:10;" d="
		M104.18,166.167v109h153.5v-109H104.18z M207.834,238.114c0,5.368-4.352,9.72-9.721,9.72h-34.56c-5.369,0-9.72-4.352-9.72-9.72
		v-34.562c0-5.367,4.352-9.72,9.72-9.72h34.56c5.369,0,9.721,4.353,9.721,9.72V238.114z"/>
	<path id="Home_1_" style="display:none;fill:none;stroke:#FFFFFF;stroke-width:7;stroke-miterlimit:10;" d="M207.834,238.114
		c0,5.368-4.352,9.72-9.721,9.72h-34.56c-5.369,0-9.72-4.352-9.72-9.72v-34.562c0-5.367,4.352-9.72,9.72-9.72h34.56
		c5.369,0,9.721,4.353,9.721,9.72V238.114z"/>
	
		<polygon id="DG_x5F_Block_1_" style="display:none;fill:#FFFFFF;stroke:#FFFFFF;stroke-width:7;stroke-linejoin:round;stroke-miterlimit:10;" points="
		104.958,145.452 180.896,88.243 256.833,145.452 	"/>
	<g id="Zahnrad">
		<path style="fill:#FFFFFF;stroke:#FFFFFF;stroke-width:3;stroke-linejoin:round;stroke-miterlimit:10;" d="M203.449,203.93
			l4.115-0.428l-0.416-3.967l-4.111,0.436l-2.193-4.92l3.077-2.765l-2.669-2.964l-3.071,2.771l-4.664-2.697l0.864-4.041l-3.902-0.83
			l-0.855,4.047l-5.357,0.561l-1.678-3.777l-3.644,1.621l1.687,3.776l-4.002,3.605l-3.581-2.072l-1.995,3.454l3.582,2.063
			l-1.123,5.112l-4.109,0.587l0.417,3.967l4.111-0.438l2.193,4.922l-3.077,2.764l2.669,2.965l3.071-2.772l4.664,2.696l-0.864,4.043
			l3.902,0.829l0.855-4.048l5.357-0.56l1.678,3.778l3.644-1.623l-1.661-3.791l3.979-3.59l3.579,2.072l1.995-3.455l-3.582-2.063
			L203.449,203.93z M188.484,215.182c-6.451,0-11.68-5.229-11.68-11.68c0-6.451,5.229-11.681,11.68-11.681
			s11.681,5.229,11.681,11.681C200.165,209.952,194.936,215.182,188.484,215.182z"/>
		<path style="fill:#FFFFFF;stroke:#FFFFFF;stroke-width:3;stroke-linejoin:round;stroke-miterlimit:10;" d="M179.281,233.934
			l4.132-0.199l-0.196-3.983l-4.129,0.208l-1.917-5.034l3.225-2.59l-2.501-3.107l-3.22,2.598l-4.508-2.95l1.086-3.988l-3.85-1.044
			l-1.078,3.994l-5.381,0.263l-1.465-3.865l-3.729,1.418l1.475,3.864l-4.195,3.378l-3.46-2.267l-2.183,3.339l3.463,2.258
			l-1.404,5.042l-4.135,0.358l0.197,3.983l4.129-0.208l1.918,5.034l-3.226,2.59l2.501,3.107l3.22-2.599l4.507,2.951l-1.086,3.988
			l3.85,1.044l1.077-3.994l5.381-0.263l1.466,3.865l3.728-1.419l-1.449-3.878l4.17-3.363l3.459,2.267l2.183-3.339l-3.463-2.258
			L179.281,233.934z M164.362,244.36c-6.451,0-11.68-5.23-11.68-11.681c0-6.451,5.229-11.681,11.68-11.681
			c6.451,0,11.681,5.229,11.681,11.681C176.042,239.13,170.813,244.36,164.362,244.36z"/>
		<g>
			<g>
				<path style="fill:#FFFFFF;stroke:#FFFFFF;stroke-width:3;stroke-linejoin:round;stroke-miterlimit:10;" d="M199.66,238.912
					l2.521-0.32c-0.423-1.279-1.143-2.452-2.118-3.412l-1.374,2.227L199.66,238.912z"/>
				<path style="fill:#FFFFFF;stroke:#FFFFFF;stroke-width:3;stroke-linejoin:round;stroke-miterlimit:10;" d="M200.063,235.18
					l1.854-3.006l-3.058-1.873l-1.807,2.971c0.117,0.043,0.235,0.079,0.352,0.128C198.427,233.832,199.316,234.445,200.063,235.18z"
					/>
				<path style="fill:#FFFFFF;stroke:#FFFFFF;stroke-width:3;stroke-linejoin:round;stroke-miterlimit:10;" d="M195.665,235.555
					l1.388-2.283c-1.35-0.503-2.749-0.645-4.093-0.465l0.921,2.566L195.665,235.555z"/>
				<path style="fill:#FFFFFF;stroke:#FFFFFF;stroke-width:3;stroke-linejoin:round;stroke-miterlimit:10;" d="M202.576,242.131
					l3.624-0.438l-0.442-3.559l-3.577,0.457C202.553,239.718,202.699,240.922,202.576,242.131z"/>
				<path style="fill:#FFFFFF;stroke:#FFFFFF;stroke-width:3;stroke-linejoin:round;stroke-miterlimit:10;" d="M190.549,236.582
					L189.603,234c-1.174,0.721-2.181,1.729-2.905,2.979l2.598,0.885L190.549,236.582z"/>
				<path style="fill:#FFFFFF;stroke:#FFFFFF;stroke-width:3;stroke-linejoin:round;stroke-miterlimit:10;" d="M191.805,229.588
					l-3.371,1.223l1.169,3.189c1.021-0.628,2.165-1.035,3.357-1.193L191.805,229.588z"/>
				<path style="fill:#FFFFFF;stroke:#FFFFFF;stroke-width:3;stroke-linejoin:round;stroke-miterlimit:10;" d="M199.524,244.131
					l1.759,1.707c0.248-0.393,0.476-0.803,0.662-1.244c0.341-0.807,0.547-1.635,0.631-2.463l-2.479,0.301L199.524,244.131z"/>
				<path style="fill:#FFFFFF;stroke:#FFFFFF;stroke-width:3;stroke-linejoin:round;stroke-miterlimit:10;" d="M186.146,244.434
					l-2.942,1.883l1.943,3.014l2.986-1.938C187.265,246.549,186.589,245.539,186.146,244.434z"/>
				<path style="fill:#FFFFFF;stroke:#FFFFFF;stroke-width:3;stroke-linejoin:round;stroke-miterlimit:10;" d="M195.36,247.277
					l-0.241,2.461c1.314-0.163,2.574-0.625,3.675-1.353l-1.748-1.72L195.36,247.277z"/>
				<path style="fill:#FFFFFF;stroke:#FFFFFF;stroke-width:3;stroke-linejoin:round;stroke-miterlimit:10;" d="M191.57,249.433
					l-0.376,3.603l3.567,0.359l0.357-3.656C193.954,249.883,192.748,249.796,191.57,249.433z"/>
				<path style="fill:#FFFFFF;stroke:#FFFFFF;stroke-width:3;stroke-linejoin:round;stroke-miterlimit:10;" d="M186.697,236.979
					l-3.221-1.098l-1.146,3.397l3.253,1.086c0.087-0.815,0.291-1.631,0.626-2.424C186.352,237.604,186.52,237.287,186.697,236.979z"
					/>
				<path style="fill:#FFFFFF;stroke:#FFFFFF;stroke-width:3;stroke-linejoin:round;stroke-miterlimit:10;" d="M198.794,248.386
					l2.634,2.592l2.507-2.565l-2.651-2.574C200.627,246.874,199.777,247.736,198.794,248.386z"/>
				<path style="fill:#FFFFFF;stroke:#FFFFFF;stroke-width:3;stroke-linejoin:round;stroke-miterlimit:10;" d="M188.162,241.225
					l-2.578-0.859c-0.148,1.398,0.055,2.795,0.563,4.068l2.237-1.43L188.162,241.225z"/>
				<path style="fill:#FFFFFF;stroke:#FFFFFF;stroke-width:3;stroke-linejoin:round;stroke-miterlimit:10;" d="M190.304,245.984
					l-2.17,1.408c0.739,0.717,1.613,1.316,2.618,1.742c0.271,0.113,0.544,0.213,0.818,0.298l0.263-2.512L190.304,245.984z"/>
			</g>
			
				<circle style="fill:none;stroke:#FFFFFF;stroke-width:5;stroke-linejoin:round;stroke-miterlimit:10;" cx="194.05" cy="241.471" r="5.917"/>
		</g>
	</g>
</g>
<g id="Ebene_1">
</g>
</svg>
