<?xml version="1.0" encoding="iso-8859-1"?>
<!-- Generator: Adobe Illustrator 16.0.0, SVG Export Plug-In . SVG Version: 6.00 Build 0)  -->
<!DOCTYPE svg PUBLIC "-//W3C//DTD SVG 1.1//EN" "http://www.w3.org/Graphics/SVG/1.1/DTD/svg11.dtd">
<svg version="1.1" xmlns="http://www.w3.org/2000/svg" xmlns:xlink="http://www.w3.org/1999/xlink" x="0px" y="0px" width="361px"
	 height="361px" viewBox="0 0 361 361" style="enable-background:new 0 0 361 361;" xml:space="preserve">
<g id="control_x5F_home">
	<g>
		<g>
			<path style="fill:#FFFFFF;" d="M263.592,237.195c-0.254,11.588-7.394,21.571-18.427,25.297
				c-3.953,1.335-7.983,1.266-12.072,1.266c-12.303,0-24.605,0-36.909,0c-23.792,0-47.584,0-71.376,0
				c-11.548,0-21.632-7.571-25.297-18.426c-1.334-3.954-1.265-7.984-1.265-12.073c0-12.303,0-24.606,0-36.909
				c0-23.792,0-47.584,0-71.377c0-11.548,7.571-21.632,18.426-25.297c3.954-1.335,7.984-1.266,12.073-1.266
				c12.303,0,24.606,0,36.909,0c23.792,0,47.585,0,71.377,0c11.548,0,21.632,7.572,25.297,18.426
				c1.335,3.954,1.266,7.984,1.266,12.073c0,12.303,0,24.606,0,36.909C263.592,189.61,263.592,213.403,263.592,237.195
				c0,6.448,10,6.448,10,0c0-23.792,0-47.585,0-71.377c0-12.303,0-24.606,0-36.909c0-15.611-6.131-29.773-20.843-36.934
				c-9.375-4.563-20.073-3.565-30.189-3.565c-15.042,0-30.084,0-45.125,0c-14.228,0-28.456,0-42.684,0c-3.176,0-6.353,0-9.528,0
				c-8.913,0-16.864,3.087-23.837,8.516c-11.256,8.764-13.14,22.028-13.14,35.198c0,13.507,0,27.015,0,40.522
				c0,15.484,0,30.967,0,46.451c0,9.007-0.909,18.776,1.247,27.602c4.215,17.247,20.607,27.06,37.498,27.06
				c11.303,0,22.607,0,33.91,0c25.28,0,50.56,0,75.84,0c20.338,0,36.411-16.445,36.852-36.563
				C273.733,230.743,263.732,230.757,263.592,237.195z"/>
		</g>
	</g>
</g>
<g id="Ebene_1">
</g>
</svg>
