<?xml version="1.0" encoding="iso-8859-1"?>
<!-- Generator: Adobe Illustrator 16.0.0, SVG Export Plug-In . SVG Version: 6.00 Build 0)  -->
<!DOCTYPE svg PUBLIC "-//W3C//DTD SVG 1.1 Tiny//EN" "http://www.w3.org/Graphics/SVG/1.1/DTD/svg11-tiny.dtd">
<svg version="1.1" baseProfile="tiny" id="control_x5F_building_x5F_2_x5F_s_x5F_eg"
	 xmlns="http://www.w3.org/2000/svg" xmlns:xlink="http://www.w3.org/1999/xlink" x="0px" y="0px" width="361px" height="361px"
	 viewBox="0 0 361 361" xml:space="preserve">
<g>
	<path fill="#FFFFFF" d="M175.378,83.242c30.109,22.835,60.218,45.67,90.327,68.505c0.841-3.106,1.682-6.211,2.523-9.317
		c-30.036,0.154-60.073,0.309-90.109,0.463c-6.447,0.033-6.45,10.033,0,10c30.036-0.154,60.073-0.309,90.109-0.463
		c5.392-0.028,6.267-6.478,2.523-9.317c-30.109-22.835-60.218-45.67-90.327-68.505C175.284,70.708,170.311,79.398,175.378,83.242
		L175.378,83.242z"/>
	<path fill="#FFFFFF" d="M270.588,143.112c-29.96-22.835-59.921-45.67-89.881-68.505c-1.253-0.956-3.793-0.956-5.047,0
		c-29.96,22.835-59.921,45.67-89.881,68.505c-3.717,2.833-2.888,9.317,2.523,9.317c49.926,0,99.853,0,149.779,0
		c9.995,0,19.989,0,29.983,0c6.449,0,6.449-10,0-10c-49.926,0-99.853,0-149.779,0c-9.995,0-19.989,0-29.983,0
		c0.841,3.106,1.683,6.211,2.523,9.317c29.96-22.835,59.921-45.67,89.881-68.505c-1.682,0-3.365,0-5.047,0
		c29.96,22.835,59.921,45.67,89.881,68.505C270.673,155.658,275.645,146.966,270.588,143.112z"/>
</g>
<g>
	<path fill="#FFFFFF" d="M242.005,284.518c0.119-0.612,2.896-0.431,0.289-0.431c-1.465,0-2.931,0-4.396,0
		c-5.081,0-10.162,0-15.243,0c-15.326,0-30.651,0-45.977,0c-15.068,0-30.137,0-45.206,0c-4.76,0-9.52,0-14.279,0
		c-1.186,0-2.373,0-3.559,0c-2.266,0,0.889,0.447,0.889,1.605c0-23.23,0-46.46,0-69.69c0-15.037,0-30.074,0-45.111
		c0-4.852,0-9.703,0-14.554c0-1.282,0-2.564,0-3.847c0-2.691,0.264,0.404-1.827,0.404c22.99,0,45.98,0,68.97,0
		c14.88,0,29.76,0,44.64,0c4.537,0,9.074,0,13.611,0c1.049,0,2.098,0,3.146,0c1.829,0-1.236-2.634-1.236-1.414
		c0,44.79,0,89.579,0,134.368c0,6.449,10,6.449,10,0c0-44.875,0-89.751,0-134.627c0-10.524-13.427-8.327-20.264-8.327
		c-13.989,0-27.978,0-41.966,0c-25.321,0-50.642,0-75.962,0c-9.931,0-9.111,9.228-9.111,16.197c0,12.773,0,25.546,0,38.318
		c0,27.881,0,55.762,0,83.643c0,2.542-0.064,4.883,0.425,7.386c0.978,5.008,6.364,5.65,10.467,5.65c10.801,0,21.602,0,32.402,0
		c29.229,0,58.458,0,87.686,0c6.195,0,14.552,1.25,16.145-6.911C252.877,280.877,243.24,278.192,242.005,284.518z"/>
</g>
<g>
	<line fill="#FFFFFF" x1="117.002" y1="218.628" x2="239.472" y2="218.628"/>
	<g>
		<path fill="#FFFFFF" d="M117.002,220.128c40.823,0,81.646,0,122.47,0c1.935,0,1.935-3,0-3c-40.823,0-81.646,0-122.47,0
			C115.068,217.128,115.068,220.128,117.002,220.128L117.002,220.128z"/>
	</g>
</g>
<g id="DG_23_" display="none">
	<path display="inline" fill="#FFFFFF" d="M171.269,116.4c-0.4-0.773-0.947-1.394-1.64-1.86c-0.694-0.466-1.587-0.7-2.68-0.7
		c-0.214,0-0.454,0.007-0.72,0.02c-0.267,0.015-0.507,0.047-0.72,0.101v16.641c0.133,0.027,0.28,0.041,0.44,0.041
		c0.16,0,0.306,0,0.44,0c1.12,0,2.06-0.214,2.82-0.641c0.761-0.426,1.374-1.013,1.84-1.76s0.8-1.633,1-2.66
		c0.2-1.026,0.3-2.154,0.3-3.38c0-1.066-0.08-2.106-0.24-3.12C171.95,118.067,171.669,117.174,171.269,116.4z"/>
	<path display="inline" fill="#FFFFFF" d="M238.995,133.608L180.54,89.57c-1.347-1.015-3.202-1.015-4.549,0l-58.455,44.038
		c-1.298,0.978-1.826,2.677-1.311,4.218c0.516,1.542,1.959,2.581,3.585,2.581h116.91c1.625,0,3.069-1.04,3.585-2.581
		C240.821,136.285,240.293,134.586,238.995,133.608z M176.49,128.061c-0.574,1.614-1.367,2.927-2.38,3.94
		c-1.014,1.014-2.221,1.754-3.62,2.22c-1.4,0.466-2.94,0.7-4.621,0.7c-0.88,0-1.74-0.047-2.581-0.14
		c-0.84-0.094-1.74-0.247-2.7-0.46V110.16c1.12-0.24,2.173-0.4,3.16-0.48c0.986-0.08,1.907-0.12,2.761-0.12
		c1.626,0,3.113,0.24,4.46,0.72s2.487,1.233,3.42,2.26c0.933,1.027,1.66,2.334,2.18,3.92c0.52,1.587,0.78,3.5,0.78,5.741
		C177.35,124.495,177.063,126.448,176.49,128.061z M185.911,128.741c0.933,1.4,2.306,2.101,4.12,2.101
		c0.293,0,0.613-0.014,0.96-0.041c0.347-0.026,0.667-0.066,0.96-0.12v-9.041h4.92v12.361c-0.587,0.214-1.5,0.454-2.74,0.72
		c-1.24,0.266-2.74,0.4-4.5,0.4c-1.547,0-2.941-0.274-4.181-0.82c-1.24-0.546-2.3-1.36-3.181-2.44c-0.88-1.08-1.56-2.426-2.041-4.04
		c-0.479-1.614-0.719-3.486-0.719-5.621c0-2.106,0.279-3.967,0.84-5.581c0.56-1.614,1.32-2.966,2.28-4.06s2.093-1.914,3.4-2.46
		c1.306-0.546,2.706-0.82,4.2-0.82c0.96,0,1.82,0.074,2.58,0.22c0.76,0.147,1.42,0.314,1.98,0.5c0.561,0.187,1.02,0.387,1.38,0.6
		c0.36,0.214,0.633,0.374,0.82,0.48l-1.28,3.92c-0.586-0.373-1.307-0.706-2.16-1c-0.854-0.293-1.734-0.44-2.641-0.44
		c-1.174,0-2.16,0.214-2.96,0.64c-0.8,0.427-1.46,1.02-1.98,1.78s-0.894,1.667-1.121,2.721c-0.227,1.053-0.339,2.22-0.339,3.5
		C184.511,125.161,184.977,127.341,185.911,128.741z"/>
</g>
<path id="EG_28_" fill="#FFFFFF" d="M235.874,154.946H120.832c-2.179,0-3.945,1.825-3.945,4.076v52.27
	c0,2.25,1.766,4.076,3.945,4.076h115.042c2.179,0,3.945-1.825,3.945-4.076v-52.27C239.819,156.771,238.053,154.946,235.874,154.946z
	 M176.768,197.402h-15.88v-24.76h15v4.08h-10.08v5.56h8.76v4.08h-8.76v6.96h10.96V197.402z M185.848,191.542
	c0.933,1.4,2.306,2.1,4.12,2.1c0.293,0,0.613-0.013,0.96-0.04c0.346-0.026,0.666-0.066,0.96-0.12v-9.04h4.92v12.36
	c-0.587,0.214-1.5,0.454-2.74,0.72c-1.24,0.266-2.74,0.4-4.5,0.4c-1.547,0-2.94-0.274-4.18-0.82c-1.24-0.546-2.3-1.36-3.18-2.44
	c-0.88-1.08-1.56-2.426-2.04-4.04c-0.48-1.613-0.72-3.486-0.72-5.62c0-2.106,0.28-3.966,0.84-5.58c0.56-1.613,1.32-2.966,2.28-4.06
	c0.96-1.093,2.093-1.913,3.4-2.46c1.306-0.546,2.706-0.82,4.2-0.82c0.96,0,1.82,0.074,2.58,0.22c0.76,0.147,1.42,0.314,1.98,0.5
	c0.56,0.187,1.02,0.387,1.38,0.6c0.36,0.214,0.633,0.374,0.82,0.48l-1.28,3.92c-0.586-0.373-1.307-0.706-2.16-1
	c-0.854-0.293-1.734-0.44-2.64-0.44c-1.174,0-2.16,0.214-2.96,0.64c-0.8,0.427-1.46,1.02-1.98,1.78
	c-0.52,0.76-0.894,1.667-1.12,2.72c-0.227,1.054-0.34,2.22-0.34,3.5C184.448,187.962,184.914,190.142,185.848,191.542z"/>
<path id="KG_24_" display="none" fill="#FFFFFF" d="M235.707,221.78H120.665c-2.179,0-3.945,1.825-3.945,4.076v52.27
	c0,2.25,1.766,4.076,3.945,4.076h115.042c2.179,0,3.945-1.825,3.945-4.076v-52.27C239.652,223.605,237.886,221.78,235.707,221.78z
	 M172.171,265.426c-0.294-0.933-0.714-1.94-1.26-3.02c-0.547-1.08-1.154-2.133-1.82-3.16c-0.667-1.026-1.367-1.986-2.1-2.88
	c-0.733-0.893-1.434-1.646-2.1-2.26v11.32h-4.92v-24.76h4.92v10.28c0.586-0.746,1.2-1.573,1.84-2.48
	c0.64-0.906,1.246-1.813,1.82-2.72c0.573-0.906,1.1-1.8,1.58-2.68c0.48-0.88,0.88-1.68,1.2-2.4h5.56
	c-0.374,0.72-0.82,1.54-1.34,2.46c-0.52,0.92-1.114,1.88-1.78,2.88c-0.667,1-1.38,2.02-2.14,3.06c-0.76,1.04-1.554,2.04-2.38,3
	c0.826,0.8,1.666,1.72,2.52,2.76c0.853,1.04,1.66,2.154,2.42,3.34c0.76,1.187,1.446,2.4,2.06,3.64c0.613,1.24,1.106,2.447,1.48,3.62
	H172.171z M185.651,259.566c0.933,1.4,2.306,2.1,4.12,2.1c0.293,0,0.613-0.013,0.96-0.04c0.346-0.026,0.666-0.066,0.96-0.12v-9.04
	h4.92v12.36c-0.587,0.214-1.5,0.454-2.74,0.72c-1.24,0.266-2.74,0.4-4.5,0.4c-1.547,0-2.94-0.274-4.18-0.82
	c-1.24-0.546-2.3-1.36-3.18-2.44c-0.88-1.08-1.56-2.426-2.04-4.04c-0.48-1.613-0.72-3.486-0.72-5.62c0-2.106,0.28-3.966,0.84-5.58
	c0.56-1.613,1.32-2.966,2.28-4.06c0.96-1.093,2.093-1.913,3.4-2.46c1.306-0.546,2.706-0.82,4.2-0.82c0.96,0,1.82,0.074,2.58,0.22
	c0.76,0.147,1.42,0.314,1.98,0.5c0.56,0.187,1.02,0.387,1.38,0.6c0.36,0.214,0.633,0.374,0.82,0.48l-1.28,3.92
	c-0.586-0.373-1.307-0.706-2.16-1c-0.854-0.293-1.734-0.44-2.64-0.44c-1.174,0-2.16,0.214-2.96,0.64c-0.8,0.427-1.46,1.02-1.98,1.78
	c-0.52,0.76-0.894,1.667-1.12,2.72c-0.227,1.054-0.34,2.22-0.34,3.5C184.251,255.986,184.717,258.166,185.651,259.566z"/>
<g>
	<g>
		<path fill="#FFFFFF" d="M255.815,220.128c10.611,0,21.222,0,31.833,0c1.935,0,1.935-3,0-3c-10.611,0-21.222,0-31.833,0
			C253.881,217.128,253.881,220.128,255.815,220.128L255.815,220.128z"/>
	</g>
	<g>
		<path fill="#FFFFFF" d="M276.732,271.323c3,0,6,0,9,0c4.514,0,4.514-7,0-7c-3,0-6,0-9,0
			C272.218,264.323,272.218,271.323,276.732,271.323L276.732,271.323z"/>
	</g>
	<g>
		<path fill="#FFFFFF" d="M258.065,286.56c5.333,0,10.667,0,16,0c4.514,0,4.514-7,0-7c-5.333,0-10.667,0-16,0
			C253.551,279.56,253.551,286.56,258.065,286.56L258.065,286.56z"/>
	</g>
	<g>
		<path fill="#FFFFFF" d="M258.399,275.323c2,0,4,0,6,0c1.908,0,3.5-1.592,3.5-3.5s-1.592-3.5-3.5-3.5c-2,0-4,0-6,0
			c-1.908,0-3.5,1.592-3.5,3.5S256.491,275.323,258.399,275.323L258.399,275.323z"/>
	</g>
	<g>
		<path fill="#FFFFFF" d="M271.732,282.323c0.667,0,1.333,0,2,0c1.908,0,3.5-1.592,3.5-3.5s-1.592-3.5-3.5-3.5c-0.667,0-1.333,0-2,0
			c-1.908,0-3.5,1.592-3.5,3.5S269.825,282.323,271.732,282.323L271.732,282.323z"/>
	</g>
	<g>
		<path fill="#FFFFFF" d="M265.899,259.323c-2,0-4,0-6,0c-1.908,0-3.5,1.592-3.5,3.5s1.592,3.5,3.5,3.5c2,0,4,0,6,0
			c1.908,0,3.5-1.592,3.5-3.5S267.807,259.323,265.899,259.323L265.899,259.323z"/>
	</g>
	<g>
		<path fill="#FFFFFF" d="M260.316,244.49c-0.667,0-1.333,0-2,0c-1.908,0-3.5,1.592-3.5,3.5s1.592,3.5,3.5,3.5c0.667,0,1.333,0,2,0
			c1.908,0,3.5-1.592,3.5-3.5S262.224,244.49,260.316,244.49L260.316,244.49z"/>
	</g>
	<g>
		<path fill="#FFFFFF" d="M283.982,247.49c-5.333,0-10.667,0-16,0c-4.514,0-4.514,7,0,7c5.333,0,10.667,0,16,0
			C288.496,254.49,288.496,247.49,283.982,247.49L283.982,247.49z"/>
	</g>
	<g>
		<path fill="#FFFFFF" d="M274.982,255.49c-5.083,0-10.167,0-15.25,0c-4.514,0-4.514,7,0,7c5.083,0,10.167,0,15.25,0
			C279.497,262.49,279.497,255.49,274.982,255.49L274.982,255.49z"/>
	</g>
	<g>
		<path fill="#FFFFFF" d="M281.316,242.49c-2,0-4,0-6,0c-1.908,0-3.5,1.592-3.5,3.5s1.592,3.5,3.5,3.5c2,0,4,0,6,0
			c1.908,0,3.5-1.592,3.5-3.5S283.224,242.49,281.316,242.49L281.316,242.49z"/>
	</g>
	<g>
		<path fill="#FFFFFF" d="M263.982,239.49c-2,0-4,0-6,0c-1.908,0-3.5,1.592-3.5,3.5s1.592,3.5,3.5,3.5c2,0,4,0,6,0
			c1.908,0,3.5-1.592,3.5-3.5S265.89,239.49,263.982,239.49L263.982,239.49z"/>
	</g>
	<g>
		<path fill="#FFFFFF" d="M260.397,287.615c-0.667,0-1.333,0-2,0c-1.908,0-3.5,1.592-3.5,3.5s1.592,3.5,3.5,3.5c0.667,0,1.333,0,2,0
			c1.908,0,3.5-1.592,3.5-3.5S262.305,287.615,260.397,287.615L260.397,287.615z"/>
	</g>
	<g>
		<path fill="#FFFFFF" d="M285.063,287.615c-5.333,0-10.667,0-16,0c-4.514,0-4.514,7,0,7c5.333,0,10.667,0,16,0
			C289.578,294.615,289.578,287.615,285.063,287.615L285.063,287.615z"/>
	</g>
	<g>
		<path fill="#FFFFFF" d="M285.982,273.323c-2,0-4,0-6,0c-1.908,0-3.5,1.592-3.5,3.5s1.592,3.5,3.5,3.5c2,0,4,0,6,0
			c1.908,0,3.5-1.592,3.5-3.5S287.89,273.323,285.982,273.323L285.982,273.323z"/>
	</g>
	<g>
		<path fill="#FFFFFF" d="M285.316,239.49c-2,0-4,0-6,0c-1.908,0-3.5,1.592-3.5,3.5s1.592,3.5,3.5,3.5c2,0,4,0,6,0
			c1.908,0,3.5-1.592,3.5-3.5S287.224,239.49,285.316,239.49L285.316,239.49z"/>
	</g>
</g>
<g>
	<g>
		<path fill="#FFFFFF" d="M95.981,276.323c0.667,0,1.333,0,2,0c1.908,0,3.5-1.592,3.5-3.5s-1.592-3.5-3.5-3.5c-0.667,0-1.333,0-2,0
			c-1.908,0-3.5,1.592-3.5,3.5S94.073,276.323,95.981,276.323L95.981,276.323z"/>
	</g>
	<g>
		<path fill="#FFFFFF" d="M71.315,282.323c5.333,0,10.667,0,16,0c4.514,0,4.514-7,0-7c-5.333,0-10.667,0-16,0
			C66.801,275.323,66.801,282.323,71.315,282.323L71.315,282.323z"/>
	</g>
	<g>
		<path fill="#FFFFFF" d="M83.314,271.323c5.083,0,10.167,0,15.25,0c4.514,0,4.514-7,0-7c-5.083,0-10.167,0-15.25,0
			C78.8,264.323,78.8,271.323,83.314,271.323L83.314,271.323z"/>
	</g>
	<g>
		<path fill="#FFFFFF" d="M70.939,294.615c2,0,4,0,6,0c1.908,0,3.5-1.592,3.5-3.5s-1.592-3.5-3.5-3.5c-2,0-4,0-6,0
			c-1.908,0-3.5,1.592-3.5,3.5S69.032,294.615,70.939,294.615L70.939,294.615z"/>
	</g>
	<g>
		<path fill="#FFFFFF" d="M91.647,288.56c2,0,4,0,6,0c1.908,0,3.5-1.592,3.5-3.5s-1.592-3.5-3.5-3.5c-2,0-4,0-6,0
			c-1.908,0-3.5,1.592-3.5,3.5S89.739,288.56,91.647,288.56L91.647,288.56z"/>
	</g>
	<g>
		<path fill="#FFFFFF" d="M85.565,255.49c-3,0-6,0-9,0c-4.514,0-4.514,7,0,7c3,0,6,0,9,0C90.079,262.49,90.079,255.49,85.565,255.49
			L85.565,255.49z"/>
	</g>
	<g>
		<path fill="#FFFFFF" d="M98.564,239.49c-5.333,0-10.667,0-16,0c-4.514,0-4.514,7,0,7c5.333,0,10.667,0,16,0
			C103.079,246.49,103.079,239.49,98.564,239.49L98.564,239.49z"/>
	</g>
	<g>
		<path fill="#FFFFFF" d="M97.898,244.49c-2,0-4,0-6,0c-1.908,0-3.5,1.592-3.5,3.5s1.592,3.5,3.5,3.5c2,0,4,0,6,0
			c1.908,0,3.5-1.592,3.5-3.5S99.806,244.49,97.898,244.49L97.898,244.49z"/>
	</g>
	<g>
		<path fill="#FFFFFF" d="M78.189,240.824c-1.083,0-2.167,0-3.25,0c-1.908,0-3.5,1.592-3.5,3.5s1.592,3.5,3.5,3.5
			c1.083,0,2.167,0,3.25,0c1.908,0,3.5-1.592,3.5-3.5S80.097,240.824,78.189,240.824L78.189,240.824z"/>
	</g>
	<g>
		<path fill="#FFFFFF" d="M95.731,262.49c0.667,0,1.333,0,2,0c1.908,0,3.5-1.592,3.5-3.5s-1.592-3.5-3.5-3.5c-0.667,0-1.333,0-2,0
			c-1.908,0-3.5,1.592-3.5,3.5S93.824,262.49,95.731,262.49L95.731,262.49z"/>
	</g>
	<g>
		<path fill="#FFFFFF" d="M97.979,287.615c-2,0-4,0-6,0c-1.908,0-3.5,1.592-3.5,3.5s1.592,3.5,3.5,3.5c2,0,4,0,6,0
			c1.908,0,3.5-1.592,3.5-3.5S99.887,287.615,97.979,287.615L97.979,287.615z"/>
	</g>
	<g>
		<path fill="#FFFFFF" d="M82.065,284.045c-0.667,0-1.333,0-2,0c-1.908,0-3.5,1.592-3.5,3.5s1.592,3.5,3.5,3.5c0.667,0,1.333,0,2,0
			c1.908,0,3.5-1.592,3.5-3.5S83.973,284.045,82.065,284.045L82.065,284.045z"/>
	</g>
	<g>
		<path fill="#FFFFFF" d="M69.648,220.128c10.611,0,21.222,0,31.833,0c1.935,0,1.935-3,0-3c-10.611,0-21.222,0-31.833,0
			C67.714,217.128,67.714,220.128,69.648,220.128L69.648,220.128z"/>
	</g>
	<g>
		<path fill="#FFFFFF" d="M77.313,247.045c-2,0-4,0-6,0c-1.908,0-3.5,1.592-3.5,3.5s1.592,3.5,3.5,3.5c2,0,4,0,6,0
			c1.908,0,3.5-1.592,3.5-3.5S79.221,247.045,77.313,247.045L77.313,247.045z"/>
	</g>
	<g>
		<path fill="#FFFFFF" d="M76.313,266.323c-1.833,0-3.667,0-5.5,0c-1.908,0-3.5,1.592-3.5,3.5s1.592,3.5,3.5,3.5
			c1.833,0,3.667,0,5.5,0c1.908,0,3.5-1.592,3.5-3.5S78.221,266.323,76.313,266.323L76.313,266.323z"/>
	</g>
</g>
<g>
	<path fill="#FFFFFF" d="M98.918,229.767c-5.333,0-10.667,0-16,0c-4.514,0-4.514,7,0,7c5.333,0,10.667,0,16,0
		C103.433,236.767,103.433,229.767,98.918,229.767L98.918,229.767z"/>
</g>
<g>
	<path fill="#FFFFFF" d="M76.251,231.003c-0.667,0-1.333,0-2,0c-1.908,0-3.5,1.592-3.5,3.5s1.592,3.5,3.5,3.5c0.667,0,1.333,0,2,0
		c1.908,0,3.5-1.592,3.5-3.5S78.159,231.003,76.251,231.003L76.251,231.003z"/>
</g>
<g>
	<path fill="#FFFFFF" d="M96.586,228.712c0.667,0,1.333,0,2,0c1.908,0,3.5-1.592,3.5-3.5s-1.592-3.5-3.5-3.5c-0.667,0-1.333,0-2,0
		c-1.908,0-3.5,1.592-3.5,3.5S94.678,228.712,96.586,228.712L96.586,228.712z"/>
</g>
<g>
	<path fill="#FFFFFF" d="M71.92,227.712c5.333,0,10.667,0,16,0c4.514,0,4.514-7,0-7c-5.333,0-10.667,0-16,0
		C67.406,220.712,67.406,227.712,71.92,227.712L71.92,227.712z"/>
</g>
<g>
	<path fill="#FFFFFF" d="M285.668,232.003c-5.333,0-10.667,0-16,0c-4.514,0-4.514,7,0,7c5.333,0,10.667,0,16,0
		C290.183,239.003,290.183,232.003,285.668,232.003L285.668,232.003z"/>
</g>
<g>
	<path fill="#FFFFFF" d="M286.044,219.712c-2,0-4,0-6,0c-1.908,0-3.5,1.592-3.5,3.5s1.592,3.5,3.5,3.5c2,0,4,0,6,0
		c1.908,0,3.5-1.592,3.5-3.5S287.952,219.712,286.044,219.712L286.044,219.712z"/>
</g>
<g>
	<path fill="#FFFFFF" d="M265.336,227.767c-2,0-4,0-6,0c-1.908,0-3.5,1.592-3.5,3.5s1.592,3.5,3.5,3.5c2,0,4,0,6,0
		c1.908,0,3.5-1.592,3.5-3.5S267.244,227.767,265.336,227.767L265.336,227.767z"/>
</g>
<g>
	<path fill="#FFFFFF" d="M259.004,228.712c2,0,4,0,6,0c1.908,0,3.5-1.592,3.5-3.5s-1.592-3.5-3.5-3.5c-2,0-4,0-6,0
		c-1.908,0-3.5,1.592-3.5,3.5S257.096,228.712,259.004,228.712L259.004,228.712z"/>
</g>
<g>
	<path fill="#FFFFFF" d="M274.918,232.282c0.667,0,1.333,0,2,0c1.908,0,3.5-1.592,3.5-3.5s-1.592-3.5-3.5-3.5c-0.667,0-1.333,0-2,0
		c-1.908,0-3.5,1.592-3.5,3.5S273.011,232.282,274.918,232.282L274.918,232.282z"/>
</g>
</svg>
