<?xml version="1.0" encoding="iso-8859-1"?>
<!-- Generator: Adobe Illustrator 16.0.0, SVG Export Plug-In . SVG Version: 6.00 Build 0)  -->
<!DOCTYPE svg PUBLIC "-//W3C//DTD SVG 1.1 Tiny//EN" "http://www.w3.org/Graphics/SVG/1.1/DTD/svg11-tiny.dtd">
<svg version="1.1" baseProfile="tiny" id="control_x5F_centr_x5F_arrow_x5F_down_x5F_left"
	 xmlns="http://www.w3.org/2000/svg" xmlns:xlink="http://www.w3.org/1999/xlink" x="0px" y="0px" width="361px" height="361px"
	 viewBox="0 0 361 361" xml:space="preserve">
<g>
	<path fill="none" stroke="#FFFFFF" stroke-width="10" stroke-miterlimit="10" d="M220.861,212.301
		c2.071,2.071,4.273,3.225,4.919,2.58l20.287-20.287c0.646-0.646-0.508-2.849-2.579-4.92l-73.112-73.112
		c-2.07-2.07-4.273-3.225-4.919-2.579l-20.287,20.288c-0.646,0.646,0.509,2.848,2.579,4.918L220.861,212.301z"/>
	<g>
		<path fill="#FFFFFF" d="M122.356,119.986c-5.833,43.665-11.667,87.329-17.5,130.993c-0.329,2.463,2.537,5.329,5,5
			c43.664-5.833,87.328-11.667,130.992-17.5c4.077-0.545,6.935-5.137,3.536-8.536c-34.919-34.918-69.837-69.837-104.756-104.756
			c-2.912-2.912-5.824-5.825-8.736-8.737c-4.564-4.563-11.635,2.507-7.071,7.071c34.919,34.918,69.837,69.837,104.756,104.756
			c2.912,2.912,5.824,5.825,8.736,8.737c1.179-2.845,2.357-5.69,3.536-8.536c-43.664,5.833-87.328,11.667-130.992,17.5
			c1.667,1.667,3.333,3.333,5,5c5.833-43.665,11.667-87.329,17.5-130.993C133.208,113.609,123.197,113.691,122.356,119.986z"/>
	</g>
</g>
</svg>
