<?xml version="1.0" encoding="iso-8859-1"?>
<!-- Generator: Adobe Illustrator 16.0.0, SVG Export Plug-In . SVG Version: 6.00 Build 0)  -->
<!DOCTYPE svg PUBLIC "-//W3C//DTD SVG 1.1 Tiny//EN" "http://www.w3.org/Graphics/SVG/1.1/DTD/svg11-tiny.dtd">
<svg version="1.1" baseProfile="tiny" id="control_x5F_all_x5F_on_x5F_off"
	 xmlns="http://www.w3.org/2000/svg" xmlns:xlink="http://www.w3.org/1999/xlink" x="0px" y="0px" width="361px" height="361px"
	 viewBox="0 0 361 361" xml:space="preserve">
<g>
	<g>
		<path fill="#FFFFFF" d="M210.519,250.602c-0.454,8.987-8.134,9.646-15.024,9.646c-7.471,0-14.942,0-22.414,0
			c-6.002,0-12.004,0-18.006,0c-7.156,0-10.591-5.121-10.591-11.709c0-13.708,0-27.417,0-41.125c0-6.429,1.92-13.201,9.889-13.201
			c5.277,0,10.555,0,15.832,0c9.038,0,18.075,0,27.113,0c2.807,0,5.421-0.159,8.054,1.109c4.256,2.05,5.147,6.39,5.147,10.601
			C210.519,220.815,210.519,235.709,210.519,250.602c0,4.514,7,4.514,7,0c0-12.298,0-24.596,0-36.894
			c0-4.814,0.494-9.982-0.716-14.688c-1.998-7.771-9.722-11.807-17.204-11.807c-13.578,0-27.156,0-40.734,0
			c-6.207,0-11.583,0.401-16.506,4.875c-4.8,4.362-4.875,10.588-4.875,16.506c0,12.424,0,24.848,0,37.272
			c0,4.529,0.021,8.525,2.064,12.768c2.889,5.997,9.599,8.614,15.855,8.614c11.874,0,23.747,0,35.621,0c3.283,0,6.566,0,9.849,0
			c9.394,0,16.19-7.612,16.646-16.646C217.747,246.088,210.746,246.11,210.519,250.602z"/>
	</g>
	<g>
		<path fill="#FFFFFF" d="M174.205,212.697c0,10.444,0,20.888,0,31.333c0,4.514,7,4.514,7,0c0-10.444,0-20.888,0-31.333
			C181.205,208.183,174.205,208.183,174.205,212.697L174.205,212.697z"/>
	</g>
</g>
<g>
	<g>
		<g>
			<polygon fill="#FFFFFF" points="178.561,159.461 178.317,78.461 285.118,159.461 			"/>
			<g>
				<path fill="#FFFFFF" d="M183.561,159.461c-0.082-27-0.163-54-0.244-81c-2.508,1.439-5.016,2.878-7.523,4.317
					c35.59,26.992,71.18,53.984,106.77,80.976c0.01,0.008,0.021,0.016,0.031,0.024c0.841-3.106,1.682-6.211,2.523-9.317
					c-35.519,0-71.038,0-106.557,0c-6.449,0-6.449,10,0,10c35.519,0,71.038,0,106.557,0c5.402,0,6.252-6.489,2.523-9.317
					c-35.59-26.992-71.18-53.984-106.77-80.976c-0.01-0.008-0.021-0.016-0.031-0.024c-3.125-2.371-7.534,0.868-7.523,4.317
					c0.082,27,0.163,54,0.244,81C173.581,165.909,183.581,165.911,183.561,159.461z"/>
			</g>
		</g>
		<g>
			<polygon fill="#FFFFFF" points="178.073,159.461 178.317,78.462 71.516,159.461 			"/>
			<g>
				<path fill="#FFFFFF" d="M183.073,159.461c0.082-27,0.163-54,0.244-81c0.01-3.45-4.398-6.688-7.523-4.317
					c-35.59,26.992-71.18,53.984-106.77,80.976c-0.011,0.008-0.021,0.016-0.031,0.023c-3.729,2.828-2.879,9.317,2.523,9.317
					c35.519,0,71.038,0,106.557,0c6.449,0,6.449-10,0-10c-35.519,0-71.038,0-106.557,0c0.841,3.106,1.683,6.211,2.523,9.317
					c35.59-26.992,71.18-53.984,106.77-80.976c0.011-0.008,0.021-0.016,0.031-0.023c-2.508-1.439-5.016-2.878-7.523-4.317
					c-0.082,27-0.163,54-0.244,81C173.053,165.911,183.053,165.909,183.073,159.461z"/>
			</g>
		</g>
	</g>
	<path fill="none" stroke="#FFFFFF" stroke-width="10" stroke-miterlimit="10" d="M266.317,282.866c0,3.919-3.927,7.095-8.771,7.095
		H99.754c-4.844,0-8.771-3.176-8.771-7.095V153.485c0-3.918,175.333-3.918,175.333,0V282.866z"/>
</g>
</svg>
