<?xml version="1.0" encoding="iso-8859-1"?>
<!-- Generator: Adobe Illustrator 16.0.3, SVG Export Plug-In . SVG Version: 6.00 Build 0)  -->
<!DOCTYPE svg PUBLIC "-//W3C//DTD SVG 1.1//EN" "http://www.w3.org/Graphics/SVG/1.1/DTD/svg11.dtd">
<svg version="1.1" xmlns="http://www.w3.org/2000/svg" xmlns:xlink="http://www.w3.org/1999/xlink" x="0px" y="0px" width="361px"
	 height="361px" viewBox="0 0 361 361" style="enable-background:new 0 0 361 361;" xml:space="preserve">
<g id="control_x5F_hamburger_x5F_e">
	<path style="fill:none;stroke:#FFFFFF;stroke-width:10;stroke-miterlimit:10;" d="M281.335,168.333c3.313,0,6,2.688,6,6v13.334
		c0,3.313-2.687,6-6,6H81.665c-3.314,0-6-2.687-6-6v-13.334c0-3.313,2.686-6,6-6H281.335z"/>
	<path style="fill:none;stroke:#FFFFFF;stroke-width:10;stroke-miterlimit:10;" d="M280.835,113.333c3.313,0,6,2.688,6,6v13.334
		c0,3.313-2.687,6-6,6H81.165c-3.314,0-6-2.687-6-6v-13.334c0-3.313,2.686-6,6-6H280.835z"/>
	<path style="fill:none;stroke:#FFFFFF;stroke-width:10;stroke-miterlimit:10;" d="M280.835,223.333c3.313,0,6,2.688,6,6v13.334
		c0,3.313-2.687,6-6,6H81.165c-3.314,0-6-2.687-6-6v-13.334c0-3.313,2.686-6,6-6H280.835z"/>
</g>
<g id="Ebene_1">
</g>
</svg>
