<?xml version="1.0" encoding="iso-8859-1"?>
<!-- Generator: Adobe Illustrator 16.0.0, SVG Export Plug-In . SVG Version: 6.00 Build 0)  -->
<!DOCTYPE svg PUBLIC "-//W3C//DTD SVG 1.1//EN" "http://www.w3.org/Graphics/SVG/1.1/DTD/svg11.dtd">
<svg version="1.1" xmlns="http://www.w3.org/2000/svg" xmlns:xlink="http://www.w3.org/1999/xlink" x="0px" y="0px" width="361px"
	 height="361px" viewBox="0 0 361 361" style="enable-background:new 0 0 361 361;" xml:space="preserve">
<g id="control_x5F_arrow_x5F_upward">
	<g>
		<g>
			<g>
				<path style="fill:#FFFFFF;" d="M129.119,175.256c-4.182,0.21-10.306,1.283-10.306,6.721c0,2.935,0,5.869,0,8.804
					c0,7.383-1.506,15.897,8.629,16.407c8.597,0.434,17.281,0.085,25.885,0.085c26.212,0,52.425,0.001,78.637,0.001
					c6.867,0,10.909-2.542,10.909-9.4c0-3.607,0-7.215,0-10.822c0-2.81,0.371-5.621-0.953-8.186
					c-2.17-4.201-8.633-3.609-12.768-3.609c-5.014,0-10.026,0-15.04,0c-27.548,0-55.096,0-82.643,0
					C130.686,175.256,129.902,175.256,129.119,175.256c-6.449,0-6.449,10,0,10c24.343,0,48.686,0,73.029,0
					c9.991,0,19.983,0,29.975,0c0.149,0,0.298,0,0.447,0c3.902-0.001,0.303,0.072,0.303-3.089c0,0.407,0,0.814,0,1.222
					c0,3.731,0,7.464,0,11.196c0,1.518,0,3.036,0,4.555c0,0.407,0,0.814,0,1.222c0-2.803,3.623-3.287-0.303-3.088
					c-0.675,0.034-1.36,0-2.035,0c-23.665,0-47.329,0-70.994-0.001c-9.462,0-18.924,0-28.386,0c-0.662,0-1.323,0-1.985,0
					c-3.972,0-0.357-0.132-0.357,3.089c0-1.076,0-2.153,0-3.23c0-3.36,0-6.721,0-10.081c0-1.221,0-2.441,0-3.662
					c0-0.407,0-0.814,0-1.222c0,2.807-3.623,3.288,0.306,3.09C135.536,184.933,135.567,174.931,129.119,175.256z"/>
			</g>
		</g>
		<g>
			<g>
				<path style="fill:#FFFFFF;" d="M265.46,177.022c-26.765-35.019-53.529-70.037-80.294-105.055c-2.429-3.178-6.206-3.178-8.635,0
					c-26.765,35.018-53.529,70.037-80.293,105.055c-2.39,3.126,0.882,7.524,4.317,7.524c49.409-0.001,98.817-0.001,148.225-0.001
					c4.121,0,8.241,0,12.362,0c6.448,0,6.448-10,0-10c-49.408,0-98.817,0-148.226,0c-4.121,0-8.241,0-12.362,0
					c1.439,2.508,2.878,5.016,4.317,7.524c26.765-35.019,53.529-70.037,80.293-105.056c-2.878,0-5.756,0-8.635,0
					c26.765,35.019,53.529,70.037,80.294,105.055C260.685,187.119,269.378,182.147,265.46,177.022z"/>
			</g>
		</g>
		<g>
			<g>
				<path style="fill:#FFFFFF;" d="M129.119,218.159c-4.182,0.211-10.306,1.284-10.306,6.721c0,2.935,0,5.869,0,8.804
					c0,7.383-1.506,15.896,8.629,16.407c8.597,0.433,17.281,0.084,25.885,0.084c26.212,0,52.425,0.001,78.637,0.001
					c6.867,0,10.909-2.541,10.909-9.399c0-3.608,0-7.216,0-10.823c0-2.808,0.372-5.622-0.953-8.185
					c-2.173-4.2-8.631-3.61-12.768-3.61c-5.014,0-10.026,0-15.04,0c-27.548,0-55.096,0.001-82.643,0.001
					C130.686,218.159,129.902,218.159,129.119,218.159c-6.449,0-6.449,10,0,10c24.343,0,48.686,0,73.029-0.001
					c9.991,0,19.983,0,29.975,0c0.149,0,0.298,0,0.447,0c3.902,0,0.303,0.074,0.303-3.089c0,0.407,0,0.814,0,1.222
					c0,3.732,0,7.464,0,11.196c0,1.519,0,3.037,0,4.556c0,0.407,0,0.814,0,1.222c0-2.803,3.623-3.287-0.303-3.089
					c-0.675,0.034-1.36,0-2.035,0c-23.665,0-47.329,0-70.994-0.001c-9.462,0-18.924,0-28.386,0c-0.662,0-1.323,0-1.985,0
					c-3.972,0-0.357-0.131-0.357,3.09c0-1.076,0-2.153,0-3.23c0-3.36,0-6.721,0-10.081c0-1.221,0-2.441,0-3.662
					c0-0.407,0-0.814,0-1.222c0,2.808-3.623,3.288,0.306,3.09C135.536,227.836,135.567,217.834,129.119,218.159z"/>
			</g>
		</g>
		<g>
			<g>
				<path style="fill:#FFFFFF;" d="M129.124,259.884c-4.182,0.211-10.305,1.286-10.305,6.723c0,2.935,0,5.868,0,8.803
					c0,7.383-1.506,15.896,8.628,16.406c8.597,0.434,17.28,0.085,25.884,0.085c26.212,0.001,52.424,0.001,78.636,0.002
					c6.868,0,10.911-2.54,10.911-9.4c0-3.607,0-7.215,0-10.822c0-2.811,0.371-5.621-0.953-8.187
					c-2.168-4.202-8.635-3.609-12.77-3.609c-5.014,0-10.026,0-15.04,0c-27.548,0-55.095,0-82.642,0
					C130.691,259.884,129.907,259.884,129.124,259.884c-6.449,0-6.449,10,0,10c24.343,0,48.686,0,73.028,0
					c9.991,0,19.983,0,29.975,0c0.149,0,0.298,0,0.447,0c3.904,0,0.305,0.073,0.305-3.088c0,0.407,0,0.814,0,1.222
					c0,3.731,0,7.464,0,11.195c0,1.519,0,3.037,0,4.556c0,0.407,0,0.814,0,1.222c0-2.804,3.623-3.285-0.305-3.088
					c-0.675,0.034-1.36,0-2.035,0c-23.665,0-47.329-0.001-70.993-0.001c-9.462-0.001-18.924-0.001-28.386-0.001
					c-0.662,0-1.323,0-1.985,0c-3.97,0-0.356-0.131-0.356,3.09c0-1.076,0-2.153,0-3.229c0-3.36,0-6.721,0-10.081
					c0-1.221,0-2.441,0-3.662c0-0.407,0-0.814,0-1.222c0,2.806-3.623,3.286,0.305,3.088
					C135.541,269.56,135.572,259.559,129.124,259.884z"/>
			</g>
		</g>
	</g>
</g>
<g id="Ebene_1">
</g>
</svg>
