<?xml version="1.0" encoding="iso-8859-1"?>
<!-- Generator: Adobe Illustrator 16.0.0, SVG Export Plug-In . SVG Version: 6.00 Build 0)  -->
<!DOCTYPE svg PUBLIC "-//W3C//DTD SVG 1.1 Tiny//EN" "http://www.w3.org/Graphics/SVG/1.1/DTD/svg11-tiny.dtd">
<svg version="1.1" baseProfile="tiny" id="control_x5F_return"
	 xmlns="http://www.w3.org/2000/svg" xmlns:xlink="http://www.w3.org/1999/xlink" x="0px" y="0px" width="361px" height="361px"
	 viewBox="0 0 361 361" xml:space="preserve">
<g>
	<g>
		<path fill="#FFFFFF" d="M139.817,138.154c24.862,0,49.724,0,74.586,0c12.158,0,24.141-0.892,34.388,7.213
			c7.997,6.325,12.652,16.157,12.652,26.319c0,4.149,0,8.298,0,12.447c0,14.696,0,29.392,0,44.088c0,5.733-0.22,11.107-2.126,16.643
			c-3.572,10.371-12.927,17.879-23.284,20.664c-7.496,2.016-16.551,0.971-24.221,0.971c-14.553,0-29.106,0-43.659,0
			c-25.6,0-51.199,0-76.799,0c-6.449,0-6.449,10,0,10c45.467,0,90.933,0,136.4,0c20.36,0,38.072-14.27,42.661-34.044
			c1.176-5.071,1.028-10.257,1.028-15.417c0-7.083,0-14.165,0-21.248c0-11.396,0-22.792,0-34.187
			c0-23.044-18.165-41.363-40.703-43.352c-4.906-0.433-9.971-0.097-14.884-0.097c-10.153,0-20.306,0-30.459,0
			c-15.193,0-30.387,0-45.581,0C133.368,128.154,133.368,138.154,139.817,138.154L139.817,138.154z"/>
	</g>
	<g>
		<path fill="#FFFFFF" d="M137.293,91.797c-16.154,12.346-32.308,24.693-48.461,37.039c-3.178,2.429-3.178,6.206,0,8.635
			c16.154,12.346,32.308,24.693,48.461,37.039c3.126,2.39,7.523-0.882,7.523-4.317c0-24.693,0-49.385,0-74.078
			c0-6.449-10-6.449-10,0c0,24.693,0,49.385,0,74.078c2.508-1.439,5.016-2.878,7.523-4.317
			c-16.154-12.346-32.308-24.693-48.461-37.039c0,2.878,0,5.756,0,8.635c16.154-12.346,32.308-24.693,48.461-37.039
			C147.39,96.572,142.419,87.88,137.293,91.797z"/>
	</g>
</g>
</svg>
