<?xml version="1.0" encoding="iso-8859-1"?>
<!-- Generator: Adobe Illustrator 16.0.3, SVG Export Plug-In . SVG Version: 6.00 Build 0)  -->
<!DOCTYPE svg PUBLIC "-//W3C//DTD SVG 1.1//EN" "http://www.w3.org/Graphics/SVG/1.1/DTD/svg11.dtd">
<svg version="1.1" xmlns="http://www.w3.org/2000/svg" xmlns:xlink="http://www.w3.org/1999/xlink" x="0px" y="0px" width="361px"
	 height="361px" viewBox="0 0 361 361" style="enable-background:new 0 0 361 361;" xml:space="preserve">
<g id="control_x5F_hamburger_x5F_s">
	<g>
		<g>
			<path style="fill:#FFFFFF;" d="M77.782,133.501c48.905,0,97.811,0,146.715,0c20.096,0,40.19,0,60.285,0
				c9.686,0,9.771-15.003,0.107-15.003c-48.905,0-97.811,0-146.715,0c-20.095,0-40.189,0-60.284,0
				C68.204,118.499,68.118,133.501,77.782,133.501L77.782,133.501z"/>
		</g>
	</g>
	<g>
		<g>
			<path style="fill:#FFFFFF;" d="M77.782,243.502c48.905,0,97.811,0,146.715,0c20.096,0,40.19,0,60.285,0
				c9.686,0,9.771-15.004,0.107-15.004c-48.905,0-97.811,0-146.715,0c-20.095,0-40.189,0-60.284,0
				C68.204,228.498,68.118,243.502,77.782,243.502L77.782,243.502z"/>
		</g>
	</g>
	<g>
		<g>
			<path style="fill:#FFFFFF;" d="M77.782,187.458c48.905,0,97.811,0,146.715,0c20.096,0,40.19,0,60.285,0
				c9.686,0,9.771-15.003,0.107-15.003c-48.905,0-97.811,0-146.715,0c-20.095,0-40.189,0-60.284,0
				C68.204,172.455,68.118,187.458,77.782,187.458L77.782,187.458z"/>
		</g>
	</g>
</g>
<g id="Ebene_1">
</g>
</svg>
