<?xml version="1.0" encoding="iso-8859-1"?>
<!-- Generator: Adobe Illustrator 16.0.0, SVG Export Plug-In . SVG Version: 6.00 Build 0)  -->
<!DOCTYPE svg PUBLIC "-//W3C//DTD SVG 1.1//EN" "http://www.w3.org/Graphics/SVG/1.1/DTD/svg11.dtd">
<svg version="1.1" xmlns="http://www.w3.org/2000/svg" xmlns:xlink="http://www.w3.org/1999/xlink" x="0px" y="0px" width="361px"
	 height="361px" viewBox="0 0 361 361" style="enable-background:new 0 0 361 361;" xml:space="preserve">
<g id="control_x5F_fault_x5F_current_x5F_circuit_x5F_breaker_x5F_on">
	<path style="fill:none;stroke:#FFFFFF;stroke-width:10;stroke-miterlimit:10;" d="M81.581,287.417c-3.313,0-6-2.687-6-6v-201
		c0-3.313,2.687-6,6-6h199.5c3.313,0,6,2.687,6,6v201c0,3.313-2.687,6-6,6H81.581z"/>
	<path style="fill:none;stroke:#FFFFFF;stroke-width:10;stroke-miterlimit:10;" d="M81.581,235.334c-3.313,0-6-1.389-6-3.1V128.432
		c0-1.711,2.687-3.099,6-3.099h199.5c3.313,0,6,1.388,6,3.099v103.802c0,1.711-2.687,3.1-6,3.1H81.581z"/>
	<g>
		<path style="fill:#FFFFFF;" d="M158.667,210.111c0,1.309-1.062,2.371-2.371,2.371h-14.22c-1.31,0-2.371-1.063-2.371-2.371v-6.258
			c0-1.31,1.062-2.371,2.371-2.371h14.22c1.31,0,2.371,1.062,2.371,2.371V210.111z"/>
		<g>
			<path style="fill:#FFFFFF;" d="M157.22,209.713c-0.527,2.608-9.921,1.27-11.886,1.27c-1.101,0-4.13,0.586-4.13-1.27
				c0-1.918,0-3.836,0-5.754c0-1.89,10.544-0.977,11.833-0.977c1.101,0,4.13-0.586,4.13,1.27c0,1.953,0,3.906,0,5.859
				c0,1.935,3,1.935,3,0c0-2.505,0.257-5.116-0.24-7.579c-0.528-2.615-3.703-2.55-5.717-2.55c-3.35,0-6.7,0-10.049,0
				c-2.748,0-5.254,0.259-5.903,3.473c-0.405,2.003-0.405,5.052,0,7.055c0.649,3.214,3.155,3.473,5.903,3.473c3.35,0,6.7,0,10.049,0
				c2.748,0,5.254-0.259,5.903-3.473C160.494,208.621,157.603,207.817,157.22,209.713z"/>
		</g>
	</g>
	<g>
		<g>
			<g>
				<path style="fill:#FFFFFF;" d="M103.417,158.228c11.722,0,23.444,0,35.166,0c6.449,0,6.449-10,0-10c-11.722,0-23.444,0-35.166,0
					C96.968,148.228,96.968,158.228,103.417,158.228L103.417,158.228z"/>
			</g>
		</g>
		<path style="fill:#FFFFFF;" d="M134.127,157.666c0-1.209-0.979-2.188-2.188-2.188h-21.877c-1.209,0-2.188,0.979-2.188,2.188
			v25.461c0,1.209,0.979,2.188,2.188,2.188h21.877c1.209,0,2.188-0.979,2.188-2.188V157.666z"/>
	</g>
	<g>
		<path style="fill:#FFFFFF;" d="M271.948,217.117c0,1.967-1.595,3.561-3.562,3.561h-21.357c-1.967,0-3.563-1.594-3.563-3.561
			v-9.398c0-1.967,1.596-3.563,3.563-3.563h21.357c1.967,0,3.562,1.596,3.562,3.563V217.117z"/>
		<g>
			<path style="fill:#FFFFFF;" d="M270.502,216.719c-0.563,3.487-5.403,2.459-7.652,2.459c-3.708,0-7.417,0-11.125,0
				c-1.933,0-6.758,0.869-6.758-2.518c0-2.94,0-5.881,0-8.821c0-3.978,16.436-2.183,18.725-2.183c2.466,0,6.757-0.851,6.757,3.04
				c0,2.807,0,5.614,0,8.421c0,1.935,3,1.935,3,0c0-3.606,0.34-7.355-0.235-10.923c-0.608-3.772-5.203-3.538-7.983-3.538
				c-5.015,0-10.028,0-15.043,0c-3.706,0-7.434,0.125-8.166,4.664c-0.489,3.031-0.489,7.164,0,10.195
				c0.732,4.538,4.461,4.662,8.166,4.662c5.015,0,10.028,0,15.043,0c3.705,0,7.433-0.124,8.165-4.662
				C273.7,215.624,270.81,214.813,270.502,216.719z"/>
		</g>
	</g>
	<g>
		<g>
			<g>
				<path style="fill:#FFFFFF;" d="M104.154,269.157c-7.717-0.566-7.717-12.441,0-13.008c2.682-0.196,5.444,0,8.134,0
					c7.831,0,7.591,12.451,0,13.008C109.606,269.354,106.844,269.157,104.154,269.157c-4.514,0-4.514,7,0,7
					c7.645,0,15.276,0.64,19.565-7.097c4.933-8.895-1.985-19.218-11.432-19.911c-7.495-0.55-15.502-0.231-19.565,7.097
					c-4.933,8.895,1.985,19.218,11.432,19.911C108.66,276.488,108.628,269.485,104.154,269.157z"/>
			</g>
		</g>
		<g>
			<g>
				<path style="fill:#FFFFFF;" d="M152.465,269.157c-7.717-0.566-7.717-12.441,0-13.008c2.682-0.196,5.444,0,8.134,0
					c7.831,0,7.591,12.451,0,13.008C157.917,269.354,155.155,269.157,152.465,269.157c-4.514,0-4.514,7,0,7
					c7.645,0,15.276,0.64,19.565-7.097c4.933-8.895-1.985-19.218-11.432-19.911c-7.495-0.55-15.502-0.231-19.565,7.097
					c-4.933,8.895,1.985,19.218,11.432,19.911C156.971,276.488,156.939,269.485,152.465,269.157z"/>
			</g>
		</g>
		<g>
			<g>
				<path style="fill:#FFFFFF;" d="M200.777,269.157c-7.717-0.566-7.717-12.441,0-13.008c2.681-0.196,5.443,0,8.133,0
					c7.831,0,7.591,12.451,0,13.008C206.229,269.354,203.467,269.157,200.777,269.157c-4.514,0-4.514,7,0,7
					c7.644,0,15.276,0.64,19.564-7.097c4.932-8.896-1.984-19.218-11.432-19.911c-7.494-0.55-15.502-0.231-19.564,7.097
					c-4.932,8.896,1.984,19.218,11.432,19.911C205.283,276.488,205.251,269.485,200.777,269.157z"/>
			</g>
		</g>
		<g>
			<g>
				<path style="fill:#FFFFFF;" d="M249.088,269.157c-7.717-0.566-7.717-12.441,0-13.008c2.682-0.197,5.444,0,8.135,0
					c7.83,0,7.591,12.45,0,13.008C254.541,269.354,251.778,269.157,249.088,269.157c-4.514,0-4.514,7,0,7
					c7.645,0,15.276,0.64,19.566-7.097c4.933-8.895-1.985-19.218-11.432-19.911c-7.495-0.55-15.503-0.231-19.566,7.097
					c-4.933,8.895,1.985,19.218,11.432,19.911C253.594,276.488,253.562,269.485,249.088,269.157z"/>
			</g>
		</g>
	</g>
	<g>
		<g>
			<g>
				<path style="fill:#FFFFFF;" d="M103.966,104.308c-7.717-0.566-7.717-12.441,0-13.008c2.682-0.197,5.444,0,8.134,0
					c7.831,0,7.591,12.451,0,13.008C109.418,104.504,106.656,104.308,103.966,104.308c-4.514,0-4.514,7,0,7
					c7.645,0,15.276,0.639,19.565-7.097c4.933-8.895-1.985-19.218-11.432-19.911c-7.494-0.55-15.502-0.231-19.565,7.097
					c-4.933,8.895,1.985,19.218,11.432,19.911C108.472,111.638,108.44,104.636,103.966,104.308z"/>
			</g>
		</g>
		<g>
			<g>
				<path style="fill:#FFFFFF;" d="M152.277,104.308c-7.717-0.566-7.717-12.441,0-13.008c2.682-0.197,5.444,0,8.134,0
					c7.831,0,7.591,12.451,0,13.008C157.729,104.504,154.967,104.308,152.277,104.308c-4.514,0-4.514,7,0,7
					c7.645,0,15.276,0.639,19.565-7.097c4.933-8.895-1.985-19.218-11.432-19.911c-7.494-0.55-15.502-0.231-19.565,7.097
					c-4.933,8.895,1.985,19.218,11.432,19.911C156.783,111.638,156.751,104.636,152.277,104.308z"/>
			</g>
		</g>
		<g>
			<g>
				<path style="fill:#FFFFFF;" d="M200.589,104.308c-7.717-0.566-7.717-12.441,0-13.008c2.682-0.197,5.444,0,8.134,0
					c7.831,0,7.591,12.451,0,13.008C206.041,104.504,203.278,104.308,200.589,104.308c-4.514,0-4.514,7,0,7
					c7.645,0,15.276,0.639,19.565-7.097c4.933-8.895-1.985-19.218-11.432-19.911c-7.494-0.55-15.502-0.231-19.565,7.097
					c-4.933,8.895,1.985,19.218,11.432,19.911C205.095,111.638,205.063,104.636,200.589,104.308z"/>
			</g>
		</g>
		<g>
			<g>
				<path style="fill:#FFFFFF;" d="M248.9,104.308c-7.717-0.566-7.717-12.441,0-13.008c2.682-0.197,5.444,0,8.134,0
					c7.831,0,7.591,12.451,0,13.008C254.353,104.504,251.59,104.308,248.9,104.308c-4.514,0-4.514,7,0,7
					c7.645,0,15.276,0.639,19.565-7.097c4.933-8.895-1.985-19.218-11.432-19.911c-7.494-0.55-15.502-0.231-19.565,7.097
					c-4.933,8.895,1.985,19.218,11.432,19.911C253.406,111.638,253.374,104.636,248.9,104.308z"/>
			</g>
		</g>
	</g>
</g>
<g id="Ebene_1">
</g>
</svg>
