<?xml version="1.0" encoding="iso-8859-1"?>
<!-- Generator: Adobe Illustrator 16.0.0, SVG Export Plug-In . SVG Version: 6.00 Build 0)  -->
<!DOCTYPE svg PUBLIC "-//W3C//DTD SVG 1.1//EN" "http://www.w3.org/Graphics/SVG/1.1/DTD/svg11.dtd">
<svg version="1.1" xmlns="http://www.w3.org/2000/svg" xmlns:xlink="http://www.w3.org/1999/xlink" x="0px" y="0px" width="361px"
	 height="361px" viewBox="0 0 361 361" style="enable-background:new 0 0 361 361;" xml:space="preserve">
<g id="control_x5F_building_x5F_int_x5F_og">
	<g id="Haus_32_">
		<g>
			<g>
				<g>
					<path style="fill:#FFFFFF;" d="M177.923,79.901c27.878,21.144,55.756,42.288,83.635,63.431
						c0.841-3.106,1.683-6.211,2.523-9.317c-27.814,0-55.63,0-83.444,0c-6.449,0-6.449,10,0,10c27.814,0,55.63,0,83.444,0
						c5.402,0,6.252-6.489,2.523-9.317c-27.878-21.144-55.757-42.288-83.635-63.431C177.829,67.367,172.856,76.058,177.923,79.901
						L177.923,79.901z"/>
					<path style="fill:#FFFFFF;" d="M266.455,134.697c-27.741-21.144-55.482-42.287-83.224-63.431c-1.254-0.956-3.794-0.956-5.047,0
						c-27.741,21.144-55.482,42.287-83.223,63.431c-3.717,2.833-2.888,9.317,2.523,9.317c49.712,0,99.425,0,149.137,0
						c5.771,0,11.54,0,17.311,0c6.448,0,6.448-10,0-10c-49.712,0-99.424,0-149.137,0c-5.77,0-11.541,0-17.311,0
						c0.841,3.106,1.683,6.211,2.523,9.317c27.741-21.144,55.482-42.287,83.224-63.431c-1.683,0-3.365,0-5.047,0
						c27.742,21.144,55.483,42.287,83.224,63.431C266.539,147.243,271.512,138.551,266.455,134.697z"/>
				</g>
			</g>
			<g>
				<g>
					<path style="fill:#FFFFFF;" d="M244.523,281.64c0.119-0.612,2.896-0.431,0.289-0.431c-1.465,0-2.931,0-4.396,0
						c-5.081,0-10.163,0-15.244,0c-15.325,0-30.651,0-45.977,0c-15.068,0-30.137,0-45.206,0c-4.76,0-9.52,0-14.279,0
						c-1.186,0-2.373,0-3.559,0c-2.265,0,0.889,0.406,0.889,1.611c0-46.66,0-93.319,0-139.979c0-1.733-2.492,1.174-1.618,1.174
						c0.944,0,1.889,0,2.833,0c4.307,0,8.615,0,12.922,0c14.678,0,29.355,0,44.033,0c23.613,0,47.228,0,70.841,0
						c-0.56,0-1.707-2.943-1.707-1.021c0,1.164,0,2.328,0,3.492c0,4.483,0,8.967,0,13.45c0,14.579,0,29.157,0,43.736
						c0,25.761,0,51.521,0,77.282c0,0.671,0,1.343,0,2.014c0,6.448,10,6.448,10,0c0-46.471,0-92.941,0-139.413
						c0-9.78-8.202-9.541-15.322-9.541c-12.724,0-25.447,0-38.171,0c-27.419,0-54.837,0-82.256,0c-3.674,0-7.627-0.144-9.954,3.425
						c-1.817,2.788-1.6,5.566-1.6,8.683c0,10.969,0,21.938,0,32.908c0,30.061,0,60.123,0,90.184c0,6.925-2.398,19.894,6.804,21.814
						c2.144,0.447,4.523,0.179,6.69,0.179c4.976,0,9.951,0,14.927,0c30.401,0,60.802,0,91.203,0c5.256,0,10.513,0,15.77,0
						c5.179,0,10.496-0.577,11.731-6.911C255.396,277.999,245.758,275.313,244.523,281.64z"/>
				</g>
			</g>
		</g>
		<g>
			<line style="fill:#FFFFFF;" x1="119.521" y1="189.112" x2="241.99" y2="189.112"/>
			<g>
				<path style="fill:#FFFFFF;" d="M119.521,190.612c40.823,0,81.646,0,122.47,0c1.935,0,1.935-3,0-3c-40.823,0-81.646,0-122.47,0
					C117.586,187.612,117.586,190.612,119.521,190.612L119.521,190.612z"/>
			</g>
		</g>
		<g>
			<line style="fill:#FFFFFF;" x1="119.521" y1="235.75" x2="241.99" y2="235.75"/>
			<g>
				<path style="fill:#FFFFFF;" d="M119.521,237.25c40.823,0,81.646,0,122.47,0c1.935,0,1.935-3,0-3c-40.823,0-81.646,0-122.47,0
					C117.586,234.25,117.586,237.25,119.521,237.25L119.521,237.25z"/>
			</g>
		</g>
	</g>
	<g id="DG_32_" style="display:none;">
		<path style="display:inline;fill:#FFFFFF;" d="M173.749,109.854c-0.4-0.773-0.947-1.393-1.64-1.86
			c-0.694-0.466-1.587-0.7-2.68-0.7c-0.214,0-0.454,0.007-0.72,0.02c-0.267,0.014-0.507,0.047-0.72,0.1v16.64
			c0.133,0.027,0.28,0.04,0.44,0.04s0.306,0,0.44,0c1.12,0,2.06-0.213,2.82-0.64c0.76-0.426,1.374-1.013,1.84-1.76
			c0.466-0.747,0.8-1.633,1-2.66c0.2-1.026,0.3-2.153,0.3-3.38c0-1.066-0.08-2.106-0.24-3.12
			C174.429,111.521,174.149,110.628,173.749,109.854z"/>
		<path style="display:inline;fill:#FFFFFF;" d="M237.014,126.217l-54.125-40.776c-1.246-0.939-2.964-0.939-4.211,0l-54.125,40.776
			c-1.202,0.906-1.691,2.479-1.213,3.906s1.814,2.39,3.319,2.39h108.25c1.506,0,2.842-0.962,3.319-2.39
			S238.217,127.123,237.014,126.217z"/>
	</g>
	<g id="OG_27_">
		<path style="fill:#FFFFFF;" d="M174.106,160.282c-0.28-0.773-0.674-1.386-1.18-1.84c-0.507-0.453-1.187-0.68-2.04-0.68
			c-0.854,0-1.534,0.227-2.04,0.68c-0.507,0.454-0.9,1.074-1.18,1.86c-0.28,0.787-0.467,1.7-0.56,2.74
			c-0.094,1.04-0.14,2.16-0.14,3.36c0,1.2,0.046,2.327,0.14,3.38c0.093,1.054,0.28,1.967,0.56,2.74
			c0.28,0.773,0.673,1.387,1.18,1.84c0.506,0.454,1.187,0.68,2.04,0.68c0.826,0,1.5-0.227,2.02-0.68c0.52-0.453,0.92-1.073,1.2-1.86
			c0.28-0.787,0.466-1.7,0.56-2.74c0.093-1.04,0.14-2.16,0.14-3.36c0-1.2-0.047-2.326-0.14-3.38
			C174.572,161.969,174.386,161.056,174.106,160.282z"/>
		<path style="fill:#FFFFFF;" d="M238.393,145.667H123.35c-2.179,0-3.945,1.825-3.945,4.076v32.27c0,2.25,1.766,4.076,3.945,4.076
			h115.043c2.178,0,3.944-1.826,3.944-4.076v-32.27C242.337,147.492,240.57,145.667,238.393,145.667z"/>
	</g>
	<path id="EG_41_" style="display:none;fill:#FFFFFF;" d="M238.393,192.068H123.35c-2.179,0-3.945,1.825-3.945,4.076v32.27
		c0,2.25,1.766,4.075,3.945,4.075h115.043c2.178,0,3.944-1.825,3.944-4.075v-32.27C242.337,193.894,240.57,192.068,238.393,192.068z
		"/>
	<path id="KG_33_" style="display:none;fill:#FFFFFF;" d="M238.225,238.902H123.183c-2.179,0-3.945,1.824-3.945,4.075v32.27
		c0,2.251,1.766,4.075,3.945,4.075h115.042c2.18,0,3.945-1.824,3.945-4.075v-32.27C242.17,240.727,240.404,238.902,238.225,238.902z
		"/>
	<g>
		<g>
			<path style="fill:#FFFFFF;" d="M258.334,237.25c10.61,0,21.222,0,31.832,0c1.935,0,1.935-3,0-3c-10.61,0-21.222,0-31.832,0
				C256.399,234.25,256.399,237.25,258.334,237.25L258.334,237.25z"/>
		</g>
	</g>
	<g>
		<g>
			<path style="fill:#FFFFFF;" d="M72.167,237.25c10.611,0,21.222,0,31.833,0c1.935,0,1.935-3,0-3c-10.611,0-21.222,0-31.833,0
				C70.232,234.25,70.232,237.25,72.167,237.25L72.167,237.25z"/>
		</g>
	</g>
</g>
<g id="Ebene_1">
</g>
</svg>
