<?xml version="1.0" encoding="iso-8859-1"?>
<!-- Generator: Adobe Illustrator 16.0.3, SVG Export Plug-In . SVG Version: 6.00 Build 0)  -->
<!DOCTYPE svg PUBLIC "-//W3C//DTD SVG 1.1//EN" "http://www.w3.org/Graphics/SVG/1.1/DTD/svg11.dtd">
<svg version="1.1" xmlns="http://www.w3.org/2000/svg" xmlns:xlink="http://www.w3.org/1999/xlink" x="0px" y="0px" width="361px"
	 height="361px" viewBox="0 0 361 361" style="enable-background:new 0 0 361 361;" xml:space="preserve">
<g id="control_x5F_hamburger_x5F_f">
	<g>
		<path style="fill:#FFFFFF;" d="M281.335,163.333H81.665c-6.065,0-11,4.935-11,11v13.334c0,6.065,4.935,11,11,11h199.67
			c6.065,0,11-4.935,11-11v-13.334C292.335,168.268,287.4,163.333,281.335,163.333z"/>
		<path style="fill:#FFFFFF;" d="M81.165,143.667h199.67c6.065,0,11-4.935,11-11v-13.334c0-6.065-4.935-11-11-11H81.165
			c-6.065,0-11,4.935-11,11v13.334C70.165,138.732,75.1,143.667,81.165,143.667z"/>
		<path style="fill:#FFFFFF;" d="M280.835,218.333H81.165c-6.065,0-11,4.935-11,11v13.334c0,6.065,4.935,11,11,11h199.67
			c6.065,0,11-4.935,11-11v-13.334C291.835,223.268,286.9,218.333,280.835,218.333z"/>
	</g>
</g>
<g id="Ebene_1">
</g>
</svg>
