<?xml version="1.0" encoding="iso-8859-1"?>
<!-- Generator: Adobe Illustrator 16.0.0, SVG Export Plug-In . SVG Version: 6.00 Build 0)  -->
<!DOCTYPE svg PUBLIC "-//W3C//DTD SVG 1.1//EN" "http://www.w3.org/Graphics/SVG/1.1/DTD/svg11.dtd">
<svg version="1.1" xmlns="http://www.w3.org/2000/svg" xmlns:xlink="http://www.w3.org/1999/xlink" x="0px" y="0px" width="361px"
	 height="361px" viewBox="0 0 361 361" style="enable-background:new 0 0 361 361;" xml:space="preserve">
<g id="control_x5F_building_x5F_s_x5F_all">
	<g id="Haus_14_">
		<g>
			<g>
				<g>
					<path style="fill:#FFFFFF;" d="M177.923,79.901c27.878,21.144,55.756,42.288,83.635,63.431
						c0.841-3.106,1.683-6.211,2.523-9.317c-27.814,0-55.63,0-83.444,0c-6.449,0-6.449,10,0,10c27.814,0,55.63,0,83.444,0
						c5.402,0,6.252-6.489,2.523-9.317c-27.878-21.144-55.757-42.288-83.635-63.431C177.829,67.367,172.856,76.058,177.923,79.901
						L177.923,79.901z"/>
					<path style="fill:#FFFFFF;" d="M266.455,134.697c-27.741-21.144-55.482-42.287-83.224-63.431c-1.254-0.956-3.794-0.956-5.047,0
						c-27.741,21.144-55.482,42.287-83.223,63.431c-3.717,2.833-2.888,9.317,2.523,9.317c49.712,0,99.425,0,149.137,0
						c5.771,0,11.54,0,17.311,0c6.448,0,6.448-10,0-10c-49.712,0-99.424,0-149.137,0c-5.77,0-11.541,0-17.311,0
						c0.841,3.106,1.683,6.211,2.523,9.317c27.741-21.144,55.482-42.287,83.224-63.431c-1.683,0-3.365,0-5.047,0
						c27.742,21.144,55.483,42.287,83.224,63.431C266.539,147.243,271.512,138.551,266.455,134.697z"/>
				</g>
			</g>
			<g>
				<g>
					<path style="fill:#FFFFFF;" d="M244.523,281.64c0.119-0.612,2.896-0.431,0.289-0.431c-1.465,0-2.931,0-4.396,0
						c-5.081,0-10.163,0-15.244,0c-15.325,0-30.651,0-45.977,0c-15.068,0-30.137,0-45.206,0c-4.76,0-9.52,0-14.279,0
						c-1.186,0-2.373,0-3.559,0c-2.265,0,0.889,0.406,0.889,1.611c0-46.66,0-93.319,0-139.979c0-1.733-2.492,1.174-1.618,1.174
						c0.944,0,1.889,0,2.833,0c4.307,0,8.615,0,12.922,0c14.678,0,29.355,0,44.033,0c23.613,0,47.228,0,70.841,0
						c-0.56,0-1.707-2.943-1.707-1.021c0,1.164,0,2.328,0,3.492c0,4.483,0,8.967,0,13.45c0,14.579,0,29.157,0,43.736
						c0,25.761,0,51.521,0,77.282c0,0.671,0,1.343,0,2.014c0,6.448,10,6.448,10,0c0-46.471,0-92.941,0-139.413
						c0-9.78-8.202-9.541-15.322-9.541c-12.724,0-25.447,0-38.171,0c-27.419,0-54.837,0-82.256,0c-3.674,0-7.627-0.144-9.954,3.425
						c-1.817,2.788-1.6,5.566-1.6,8.683c0,10.969,0,21.938,0,32.908c0,30.061,0,60.123,0,90.184c0,6.925-2.398,19.894,6.804,21.814
						c2.144,0.447,4.523,0.179,6.69,0.179c4.976,0,9.951,0,14.927,0c30.401,0,60.802,0,91.203,0c5.256,0,10.513,0,15.77,0
						c5.179,0,10.496-0.577,11.731-6.911C255.396,277.999,245.758,275.313,244.523,281.64z"/>
				</g>
			</g>
		</g>
		<g>
			<line style="fill:#FFFFFF;" x1="119.521" y1="189.112" x2="241.99" y2="189.112"/>
			<g>
				<path style="fill:#FFFFFF;" d="M119.521,190.612c40.823,0,81.646,0,122.47,0c1.935,0,1.935-3,0-3c-40.823,0-81.646,0-122.47,0
					C117.586,187.612,117.586,190.612,119.521,190.612L119.521,190.612z"/>
			</g>
		</g>
		<g>
			<line style="fill:#FFFFFF;" x1="119.521" y1="235.75" x2="241.99" y2="235.75"/>
			<g>
				<path style="fill:#FFFFFF;" d="M119.521,237.25c40.823,0,81.646,0,122.47,0c1.935,0,1.935-3,0-3c-40.823,0-81.646,0-122.47,0
					C117.586,234.25,117.586,237.25,119.521,237.25L119.521,237.25z"/>
			</g>
		</g>
	</g>
	<g id="DG">
		<path style="fill:#FFFFFF;" d="M173.749,109.854c-0.4-0.773-0.947-1.393-1.64-1.86c-0.694-0.466-1.587-0.7-2.68-0.7
			c-0.214,0-0.454,0.007-0.72,0.02c-0.267,0.014-0.507,0.047-0.72,0.1v16.64c0.133,0.027,0.28,0.04,0.44,0.04s0.306,0,0.44,0
			c1.12,0,2.06-0.213,2.82-0.64c0.76-0.426,1.374-1.013,1.84-1.76c0.466-0.747,0.8-1.633,1-2.66c0.2-1.026,0.3-2.153,0.3-3.38
			c0-1.066-0.08-2.106-0.24-3.12C174.429,111.521,174.149,110.628,173.749,109.854z"/>
		<path style="fill:#FFFFFF;" d="M237.014,126.217l-54.125-40.776c-1.246-0.939-2.964-0.939-4.211,0l-54.125,40.776
			c-1.202,0.906-1.691,2.479-1.213,3.906s1.814,2.39,3.319,2.39h108.25c1.506,0,2.842-0.962,3.319-2.39
			S238.217,127.123,237.014,126.217z M178.969,121.514c-0.574,1.614-1.367,2.927-2.38,3.94c-1.014,1.014-2.22,1.754-3.62,2.22
			s-2.94,0.7-4.62,0.7c-0.88,0-1.74-0.047-2.58-0.14c-0.84-0.094-1.74-0.247-2.7-0.46v-24.16c1.12-0.24,2.173-0.4,3.16-0.48
			c0.986-0.08,1.906-0.12,2.76-0.12c1.626,0,3.113,0.24,4.46,0.72c1.346,0.48,2.486,1.233,3.42,2.26
			c0.933,1.027,1.66,2.334,2.18,3.92c0.52,1.587,0.78,3.5,0.78,5.74C179.829,117.948,179.542,119.901,178.969,121.514z
			 M188.389,122.194c0.934,1.4,2.307,2.1,4.121,2.1c0.293,0,0.612-0.013,0.959-0.04c0.347-0.026,0.666-0.066,0.961-0.12v-9.04h4.92
			v12.36c-0.588,0.214-1.5,0.454-2.74,0.72c-1.24,0.266-2.74,0.4-4.5,0.4c-1.547,0-2.94-0.274-4.18-0.82
			c-1.24-0.546-2.301-1.36-3.181-2.44c-0.88-1.08-1.56-2.426-2.04-4.04c-0.48-1.613-0.72-3.486-0.72-5.62
			c0-2.106,0.28-3.966,0.84-5.58c0.56-1.613,1.32-2.966,2.28-4.06c0.96-1.093,2.093-1.913,3.4-2.46
			c1.306-0.546,2.705-0.82,4.199-0.82c0.96,0,1.82,0.074,2.58,0.22c0.76,0.147,1.42,0.314,1.98,0.5c0.56,0.187,1.02,0.387,1.38,0.6
			c0.36,0.214,0.633,0.374,0.819,0.48l-1.279,3.92c-0.587-0.373-1.307-0.706-2.16-1c-0.854-0.293-1.734-0.44-2.641-0.44
			c-1.174,0-2.16,0.214-2.959,0.64c-0.801,0.427-1.461,1.02-1.98,1.78c-0.52,0.76-0.894,1.667-1.12,2.72
			c-0.227,1.054-0.34,2.22-0.34,3.5C186.989,118.614,187.455,120.794,188.389,122.194z"/>
	</g>
	<g id="OG">
		<path style="fill:#FFFFFF;" d="M174.106,160.282c-0.28-0.773-0.674-1.386-1.18-1.84c-0.507-0.453-1.187-0.68-2.04-0.68
			c-0.854,0-1.534,0.227-2.04,0.68c-0.507,0.454-0.9,1.074-1.18,1.86c-0.28,0.787-0.467,1.7-0.56,2.74
			c-0.094,1.04-0.14,2.16-0.14,3.36c0,1.2,0.046,2.327,0.14,3.38c0.093,1.054,0.28,1.967,0.56,2.74
			c0.28,0.773,0.673,1.387,1.18,1.84c0.506,0.454,1.187,0.68,2.04,0.68c0.826,0,1.5-0.227,2.02-0.68c0.52-0.453,0.92-1.073,1.2-1.86
			c0.28-0.787,0.466-1.7,0.56-2.74c0.093-1.04,0.14-2.16,0.14-3.36c0-1.2-0.047-2.326-0.14-3.38
			C174.572,161.969,174.386,161.056,174.106,160.282z"/>
		<path style="fill:#FFFFFF;" d="M238.393,145.667H123.35c-2.179,0-3.945,1.825-3.945,4.076v32.27c0,2.25,1.766,4.076,3.945,4.076
			h115.043c2.178,0,3.944-1.826,3.944-4.076v-32.27C242.337,147.492,240.57,145.667,238.393,145.667z M177.486,176.062
			c-1.547,2.174-3.734,3.26-6.56,3.26c-2.907,0-5.127-1.086-6.66-3.26c-1.534-2.173-2.3-5.393-2.3-9.66
			c0-4.266,0.786-7.486,2.36-9.66c1.573-2.173,3.76-3.26,6.56-3.26c2.906,0,5.12,1.087,6.64,3.26c1.52,2.174,2.28,5.394,2.28,9.66
			C179.806,170.668,179.032,173.889,177.486,176.062z M188.365,172.942c0.934,1.4,2.307,2.1,4.121,2.1
			c0.293,0,0.612-0.013,0.959-0.04c0.347-0.026,0.666-0.066,0.961-0.12v-9.04h4.92v12.36c-0.588,0.214-1.5,0.454-2.74,0.72
			c-1.24,0.266-2.74,0.4-4.5,0.4c-1.547,0-2.94-0.274-4.18-0.82c-1.24-0.546-2.301-1.36-3.181-2.44c-0.88-1.08-1.56-2.426-2.04-4.04
			c-0.48-1.613-0.72-3.486-0.72-5.62c0-2.106,0.28-3.966,0.84-5.58c0.56-1.613,1.32-2.966,2.28-4.06
			c0.96-1.093,2.093-1.913,3.4-2.46c1.306-0.546,2.705-0.82,4.199-0.82c0.96,0,1.82,0.074,2.58,0.22c0.76,0.147,1.42,0.314,1.98,0.5
			c0.56,0.187,1.02,0.387,1.38,0.6c0.36,0.214,0.633,0.374,0.819,0.48l-1.279,3.92c-0.587-0.373-1.307-0.706-2.16-1
			c-0.854-0.293-1.734-0.44-2.641-0.44c-1.174,0-2.16,0.214-2.959,0.64c-0.801,0.427-1.461,1.02-1.98,1.78
			c-0.52,0.76-0.894,1.667-1.12,2.72c-0.227,1.054-0.34,2.22-0.34,3.5C186.966,169.362,187.432,171.542,188.365,172.942z"/>
	</g>
	<path id="EG" style="fill:#FFFFFF;" d="M238.393,192.068H123.35c-2.179,0-3.945,1.825-3.945,4.076v32.27
		c0,2.25,1.766,4.075,3.945,4.075h115.043c2.178,0,3.944-1.825,3.944-4.075v-32.27C242.337,193.894,240.57,192.068,238.393,192.068z
		 M179.286,224.523h-15.88v-24.76h15v4.08h-10.08v5.561h8.76v4.08h-8.76v6.959h10.96V224.523z M188.365,218.664
		c0.934,1.4,2.307,2.1,4.121,2.1c0.293,0,0.612-0.013,0.959-0.039c0.347-0.027,0.666-0.066,0.961-0.121v-9.039h4.92v12.359
		c-0.588,0.214-1.5,0.453-2.74,0.721c-1.24,0.266-2.74,0.399-4.5,0.399c-1.547,0-2.94-0.274-4.18-0.819
		c-1.24-0.547-2.301-1.361-3.181-2.441c-0.88-1.079-1.56-2.426-2.04-4.039s-0.72-3.486-0.72-5.62c0-2.106,0.28-3.966,0.84-5.58
		c0.56-1.613,1.32-2.966,2.28-4.06s2.093-1.914,3.4-2.461c1.306-0.546,2.705-0.819,4.199-0.819c0.96,0,1.82,0.073,2.58,0.22
		s1.42,0.314,1.98,0.5c0.56,0.188,1.02,0.387,1.38,0.6c0.36,0.215,0.633,0.374,0.819,0.48l-1.279,3.92
		c-0.587-0.373-1.307-0.706-2.16-1c-0.854-0.293-1.734-0.439-2.641-0.439c-1.174,0-2.16,0.213-2.959,0.64
		c-0.801,0.427-1.461,1.021-1.98,1.78s-0.894,1.666-1.12,2.72s-0.34,2.22-0.34,3.5C186.966,215.084,187.432,217.264,188.365,218.664
		z"/>
	<path id="KG" style="fill:#FFFFFF;" d="M238.225,238.902H123.183c-2.179,0-3.945,1.824-3.945,4.075v32.27
		c0,2.251,1.766,4.075,3.945,4.075h115.042c2.18,0,3.945-1.824,3.945-4.075v-32.27C242.17,240.727,240.404,238.902,238.225,238.902z
		 M174.689,272.548c-0.294-0.933-0.714-1.94-1.26-3.021c-0.547-1.08-1.154-2.133-1.82-3.16c-0.667-1.025-1.367-1.985-2.1-2.879
		s-1.434-1.646-2.1-2.26v11.319h-4.92v-24.76h4.92v10.28c0.586-0.746,1.2-1.574,1.84-2.48s1.246-1.813,1.82-2.721
		c0.573-0.906,1.1-1.799,1.58-2.68c0.48-0.88,0.88-1.68,1.2-2.399h5.56c-0.374,0.72-0.82,1.54-1.34,2.46s-1.114,1.88-1.78,2.88
		c-0.667,1-1.38,2.021-2.14,3.06c-0.76,1.041-1.554,2.041-2.38,3c0.826,0.801,1.666,1.721,2.52,2.76
		c0.853,1.041,1.66,2.154,2.42,3.341c0.76,1.187,1.446,2.399,2.06,3.64c0.613,1.24,1.106,2.447,1.48,3.62H174.689z M188.169,266.688
		c0.933,1.4,2.306,2.101,4.12,2.101c0.293,0,0.613-0.013,0.96-0.04c0.347-0.026,0.666-0.066,0.96-0.12v-9.04h4.92v12.359
		c-0.587,0.215-1.5,0.454-2.74,0.721c-1.24,0.266-2.74,0.4-4.5,0.4c-1.547,0-2.939-0.274-4.18-0.82c-1.24-0.547-2.3-1.36-3.18-2.44
		c-0.881-1.079-1.561-2.426-2.041-4.04c-0.479-1.613-0.719-3.486-0.719-5.619c0-2.107,0.279-3.967,0.84-5.58
		c0.56-1.613,1.32-2.967,2.279-4.061c0.961-1.094,2.094-1.913,3.4-2.46c1.307-0.546,2.706-0.819,4.199-0.819
		c0.961,0,1.82,0.073,2.58,0.219c0.761,0.147,1.42,0.314,1.98,0.5c0.561,0.188,1.02,0.388,1.381,0.601
		c0.359,0.214,0.633,0.374,0.819,0.479l-1.28,3.92c-0.586-0.373-1.307-0.705-2.16-1c-0.854-0.293-1.733-0.439-2.64-0.439
		c-1.174,0-2.16,0.214-2.96,0.641c-0.8,0.426-1.46,1.02-1.98,1.779c-0.52,0.76-0.893,1.667-1.119,2.721
		c-0.227,1.053-0.34,2.219-0.34,3.5C186.77,263.107,187.235,265.288,188.169,266.688z"/>
	<g>
		<g>
			<g>
				<path style="fill:#FFFFFF;" d="M258.334,237.25c10.61,0,21.222,0,31.832,0c1.935,0,1.935-3,0-3c-10.61,0-21.222,0-31.832,0
					C256.399,234.25,256.399,237.25,258.334,237.25L258.334,237.25z"/>
			</g>
		</g>
		<g>
			<g>
				<path style="fill:#FFFFFF;" d="M279.25,268.445c3,0,6,0,9,0c4.514,0,4.514-7,0-7c-3,0-6,0-9,0
					C274.736,261.445,274.736,268.445,279.25,268.445L279.25,268.445z"/>
			</g>
		</g>
		<g>
			<g>
				<path style="fill:#FFFFFF;" d="M260.583,283.682c5.333,0,10.667,0,16,0c4.514,0,4.514-7,0-7c-5.333,0-10.667,0-16,0
					C256.069,276.682,256.069,283.682,260.583,283.682L260.583,283.682z"/>
			</g>
		</g>
		<g>
			<g>
				<path style="fill:#FFFFFF;" d="M260.917,272.445c2,0,4,0,6,0c1.908,0,3.5-1.592,3.5-3.5s-1.592-3.5-3.5-3.5c-2,0-4,0-6,0
					c-1.908,0-3.5,1.592-3.5,3.5S259.009,272.445,260.917,272.445L260.917,272.445z"/>
			</g>
		</g>
		<g>
			<g>
				<path style="fill:#FFFFFF;" d="M274.25,279.445c0.667,0,1.333,0,2,0c1.908,0,3.5-1.592,3.5-3.5s-1.592-3.5-3.5-3.5
					c-0.667,0-1.333,0-2,0c-1.908,0-3.5,1.592-3.5,3.5S272.342,279.445,274.25,279.445L274.25,279.445z"/>
			</g>
		</g>
		<g>
			<g>
				<path style="fill:#FFFFFF;" d="M268.417,256.445c-2,0-4,0-6,0c-1.908,0-3.5,1.592-3.5,3.5s1.592,3.5,3.5,3.5c2,0,4,0,6,0
					c1.908,0,3.5-1.592,3.5-3.5S270.325,256.445,268.417,256.445L268.417,256.445z"/>
			</g>
		</g>
		<g>
			<g>
				<path style="fill:#FFFFFF;" d="M262.834,241.612c-0.667,0-1.333,0-2,0c-1.908,0-3.5,1.592-3.5,3.5s1.592,3.5,3.5,3.5
					c0.667,0,1.333,0,2,0c1.908,0,3.5-1.592,3.5-3.5S264.742,241.612,262.834,241.612L262.834,241.612z"/>
			</g>
		</g>
		<g>
			<g>
				<path style="fill:#FFFFFF;" d="M286.5,244.612c-5.333,0-10.667,0-16,0c-4.514,0-4.514,7,0,7c5.333,0,10.667,0,16,0
					C291.014,251.612,291.014,244.612,286.5,244.612L286.5,244.612z"/>
			</g>
		</g>
		<g>
			<g>
				<path style="fill:#FFFFFF;" d="M277.5,252.612c-5.083,0-10.167,0-15.25,0c-4.514,0-4.514,7,0,7c5.083,0,10.167,0,15.25,0
					C282.014,259.612,282.014,252.612,277.5,252.612L277.5,252.612z"/>
			</g>
		</g>
		<g>
			<g>
				<path style="fill:#FFFFFF;" d="M283.834,239.612c-2,0-4,0-6,0c-1.908,0-3.5,1.592-3.5,3.5s1.592,3.5,3.5,3.5c2,0,4,0,6,0
					c1.908,0,3.5-1.592,3.5-3.5S285.742,239.612,283.834,239.612L283.834,239.612z"/>
			</g>
		</g>
		<g>
			<g>
				<path style="fill:#FFFFFF;" d="M266.5,236.612c-2,0-4,0-6,0c-1.908,0-3.5,1.592-3.5,3.5s1.592,3.5,3.5,3.5c2,0,4,0,6,0
					c1.908,0,3.5-1.592,3.5-3.5S268.408,236.612,266.5,236.612L266.5,236.612z"/>
			</g>
		</g>
		<g>
			<g>
				<path style="fill:#FFFFFF;" d="M262.916,284.736c-0.667,0-1.333,0-2,0c-1.908,0-3.5,1.592-3.5,3.5s1.592,3.5,3.5,3.5
					c0.667,0,1.333,0,2,0c1.908,0,3.5-1.592,3.5-3.5S264.824,284.736,262.916,284.736L262.916,284.736z"/>
			</g>
		</g>
		<g>
			<g>
				<path style="fill:#FFFFFF;" d="M287.582,284.736c-5.333,0-10.667,0-16,0c-4.514,0-4.514,7,0,7c5.333,0,10.667,0,16,0
					C292.096,291.736,292.096,284.736,287.582,284.736L287.582,284.736z"/>
			</g>
		</g>
		<g>
			<g>
				<path style="fill:#FFFFFF;" d="M288.5,270.445c-2,0-4,0-6,0c-1.908,0-3.5,1.592-3.5,3.5s1.592,3.5,3.5,3.5c2,0,4,0,6,0
					c1.908,0,3.5-1.592,3.5-3.5S290.408,270.445,288.5,270.445L288.5,270.445z"/>
			</g>
		</g>
		<g>
			<g>
				<path style="fill:#FFFFFF;" d="M287.834,236.612c-2,0-4,0-6,0c-1.908,0-3.5,1.592-3.5,3.5s1.592,3.5,3.5,3.5c2,0,4,0,6,0
					c1.908,0,3.5-1.592,3.5-3.5S289.742,236.612,287.834,236.612L287.834,236.612z"/>
			</g>
		</g>
	</g>
	<g>
		<g>
			<g>
				<path style="fill:#FFFFFF;" d="M98.499,273.445c0.667,0,1.333,0,2,0c1.908,0,3.5-1.592,3.5-3.5s-1.592-3.5-3.5-3.5
					c-0.667,0-1.333,0-2,0c-1.908,0-3.5,1.592-3.5,3.5S96.591,273.445,98.499,273.445L98.499,273.445z"/>
			</g>
		</g>
		<g>
			<g>
				<path style="fill:#FFFFFF;" d="M73.833,279.445c5.333,0,10.667,0,16,0c4.514,0,4.514-7,0-7c-5.333,0-10.667,0-16,0
					C69.319,272.445,69.319,279.445,73.833,279.445L73.833,279.445z"/>
			</g>
		</g>
		<g>
			<g>
				<path style="fill:#FFFFFF;" d="M85.833,268.445c5.083,0,10.167,0,15.25,0c4.514,0,4.514-7,0-7c-5.083,0-10.167,0-15.25,0
					C81.318,261.445,81.318,268.445,85.833,268.445L85.833,268.445z"/>
			</g>
		</g>
		<g>
			<g>
				<path style="fill:#FFFFFF;" d="M73.458,291.736c2,0,4,0,6,0c1.908,0,3.5-1.592,3.5-3.5s-1.592-3.5-3.5-3.5c-2,0-4,0-6,0
					c-1.908,0-3.5,1.592-3.5,3.5S71.55,291.736,73.458,291.736L73.458,291.736z"/>
			</g>
		</g>
		<g>
			<g>
				<path style="fill:#FFFFFF;" d="M94.165,285.682c2,0,4,0,6,0c1.908,0,3.5-1.592,3.5-3.5s-1.592-3.5-3.5-3.5c-2,0-4,0-6,0
					c-1.908,0-3.5,1.592-3.5,3.5S92.257,285.682,94.165,285.682L94.165,285.682z"/>
			</g>
		</g>
		<g>
			<g>
				<path style="fill:#FFFFFF;" d="M88.083,252.612c-3,0-6,0-9,0c-4.514,0-4.514,7,0,7c3,0,6,0,9,0
					C92.597,259.612,92.597,252.612,88.083,252.612L88.083,252.612z"/>
			</g>
		</g>
		<g>
			<g>
				<path style="fill:#FFFFFF;" d="M101.083,236.612c-5.333,0-10.667,0-16,0c-4.514,0-4.514,7,0,7c5.333,0,10.667,0,16,0
					C105.597,243.612,105.597,236.612,101.083,236.612L101.083,236.612z"/>
			</g>
		</g>
		<g>
			<g>
				<path style="fill:#FFFFFF;" d="M100.416,241.612c-2,0-4,0-6,0c-1.908,0-3.5,1.592-3.5,3.5s1.592,3.5,3.5,3.5c2,0,4,0,6,0
					c1.908,0,3.5-1.592,3.5-3.5S102.324,241.612,100.416,241.612L100.416,241.612z"/>
			</g>
		</g>
		<g>
			<g>
				<path style="fill:#FFFFFF;" d="M80.708,237.945c-1.083,0-2.167,0-3.25,0c-1.908,0-3.5,1.592-3.5,3.5s1.592,3.5,3.5,3.5
					c1.083,0,2.167,0,3.25,0c1.908,0,3.5-1.592,3.5-3.5S82.615,237.945,80.708,237.945L80.708,237.945z"/>
			</g>
		</g>
		<g>
			<g>
				<path style="fill:#FFFFFF;" d="M98.25,259.612c0.667,0,1.333,0,2,0c1.908,0,3.5-1.592,3.5-3.5s-1.592-3.5-3.5-3.5
					c-0.667,0-1.333,0-2,0c-1.908,0-3.5,1.592-3.5,3.5S96.342,259.612,98.25,259.612L98.25,259.612z"/>
			</g>
		</g>
		<g>
			<g>
				<path style="fill:#FFFFFF;" d="M100.498,284.736c-2,0-4,0-6,0c-1.908,0-3.5,1.592-3.5,3.5s1.592,3.5,3.5,3.5c2,0,4,0,6,0
					c1.908,0,3.5-1.592,3.5-3.5S102.405,284.736,100.498,284.736L100.498,284.736z"/>
			</g>
		</g>
		<g>
			<g>
				<path style="fill:#FFFFFF;" d="M84.583,281.167c-0.667,0-1.333,0-2,0c-1.908,0-3.5,1.592-3.5,3.5s1.592,3.5,3.5,3.5
					c0.667,0,1.333,0,2,0c1.908,0,3.5-1.592,3.5-3.5S86.491,281.167,84.583,281.167L84.583,281.167z"/>
			</g>
		</g>
		<g>
			<g>
				<path style="fill:#FFFFFF;" d="M72.167,237.25c10.611,0,21.222,0,31.833,0c1.935,0,1.935-3,0-3c-10.611,0-21.222,0-31.833,0
					C70.232,234.25,70.232,237.25,72.167,237.25L72.167,237.25z"/>
			</g>
		</g>
		<g>
			<g>
				<path style="fill:#FFFFFF;" d="M79.832,244.167c-2,0-4,0-6,0c-1.908,0-3.5,1.592-3.5,3.5s1.592,3.5,3.5,3.5c2,0,4,0,6,0
					c1.908,0,3.5-1.592,3.5-3.5S81.739,244.167,79.832,244.167L79.832,244.167z"/>
			</g>
		</g>
		<g>
			<g>
				<path style="fill:#FFFFFF;" d="M78.832,263.445c-1.833,0-3.667,0-5.5,0c-1.908,0-3.5,1.592-3.5,3.5s1.592,3.5,3.5,3.5
					c1.833,0,3.667,0,5.5,0c1.908,0,3.5-1.592,3.5-3.5S80.739,263.445,78.832,263.445L78.832,263.445z"/>
			</g>
		</g>
	</g>
</g>
<g id="Ebene_1">
</g>
</svg>
