<?xml version="1.0" encoding="iso-8859-1"?>
<!-- Generator: Adobe Illustrator 16.0.0, SVG Export Plug-In . SVG Version: 6.00 Build 0)  -->
<!DOCTYPE svg PUBLIC "-//W3C//DTD SVG 1.1 Tiny//EN" "http://www.w3.org/Graphics/SVG/1.1/DTD/svg11-tiny.dtd">
<svg version="1.1" baseProfile="tiny" id="control_x5F_outside_x5F_on_x5F_off"
	 xmlns="http://www.w3.org/2000/svg" xmlns:xlink="http://www.w3.org/1999/xlink" x="0px" y="0px" width="361px" height="361px"
	 viewBox="0 0 361 361" xml:space="preserve">
<g id="ein_x5F_aus">
	<g>
		<path fill="#FFFFFF" d="M282.504,128.418c-0.513,8.886-9.127,7.96-15.471,7.96c-7.75,0-15.501,0-23.252,0
			c-5.377,0-13.058,1.416-16.638-3.583c-2.708-3.781-1.306-11.851-1.306-16.127c0-7.665,0-15.33,0-22.995
			c0-5.901-0.268-13.961,8.084-13.961c12.595,0,25.189,0,37.784,0c5.227,0,10.798,1.603,10.798,8.085c0,3.875,0,7.75,0,11.626
			C282.504,109.087,282.504,118.753,282.504,128.418c0,4.514,7,4.514,7,0c0-12.253,0-24.505,0-36.758
			c0-6.784-1.089-12.417-7.05-16.687c-4.412-3.16-11.093-2.262-16.219-2.262c-7.768,0-15.535,0-23.303,0
			c-5.455,0-10.815-0.524-15.941,1.643c-6.807,2.878-8.153,10.219-8.153,16.71c0,7.289,0,14.578,0,21.867
			c0,7.144-1.202,15.564,1.643,22.293c3.744,8.857,13.781,8.154,21.626,8.154c9.483,0,18.966,0,28.449,0
			c3.009,0,5.848,0.074,8.784-0.793c6.275-1.854,9.809-7.985,10.165-14.167C289.764,123.907,282.763,123.932,282.504,128.418z"/>
	</g>
	<g>
		<path fill="#FFFFFF" d="M250.847,89.504c0,12.361,0,24.722,0,37.083c0,4.514,7,4.514,7,0c0-12.361,0-24.722,0-37.083
			C257.847,84.99,250.847,84.99,250.847,89.504L250.847,89.504z"/>
	</g>
</g>
<g>
	<polygon fill="#FFFFFF" points="72.56,159.045 72.315,78.045 179.116,159.045 	"/>
	<g>
		<path fill="#FFFFFF" d="M77.56,159.045c-0.082-27-0.163-54-0.245-81c-2.508,1.439-5.016,2.878-7.523,4.317
			c35.59,26.992,71.18,53.984,106.77,80.976c0.01,0.008,0.021,0.016,0.031,0.024c0.841-3.106,1.682-6.211,2.523-9.317
			c-35.519,0-71.038,0-106.557,0c-6.449,0-6.449,10,0,10c35.519,0,71.038,0,106.557,0c5.402,0,6.252-6.489,2.523-9.317
			c-35.59-26.992-71.18-53.984-106.77-80.976c-0.01-0.008-0.021-0.016-0.031-0.024c-3.125-2.371-7.534,0.868-7.523,4.317
			c0.082,27,0.163,54,0.245,81C67.579,165.493,77.579,165.495,77.56,159.045z"/>
	</g>
</g>
<path fill="none" stroke="#FFFFFF" stroke-width="10" stroke-miterlimit="10" d="M160.315,284.378c0,3.222-4.727,5.834-10.558,5.834
	H82.873c-5.832,0-10.558-2.612-10.558-5.834v-122.5c0-3.222,4.727-5.833,10.558-5.833h66.884c5.832,0,10.558,2.612,10.558,5.833
	V284.378z"/>
<path fill="none" stroke="#FFFFFF" stroke-width="10" stroke-miterlimit="10" d="M125.315,283.866c0,3.136-2.687,5.679-6,5.679
	h-23.5c-3.313,0-6-2.542-6-5.679v-68.143c0-3.136,2.687-5.679,6-5.679h23.5c3.313,0,6,2.542,6,5.679V283.866z"/>
<g id="zaun_1_">
	<g>
		<path fill="#FFFFFF" d="M183.715,236.051c0,18.044,0,36.088,0,54.132c0,4.514,7,4.514,7,0c0-18.044,0-36.088,0-54.132
			C190.715,231.537,183.715,231.537,183.715,236.051L183.715,236.051z"/>
	</g>
	<g>
		<path fill="#FFFFFF" d="M195.065,236.109c0,18.044,0,36.088,0,54.132c0,4.514,7,4.514,7,0c0-18.044,0-36.088,0-54.132
			C202.065,231.595,195.065,231.595,195.065,236.109L195.065,236.109z"/>
	</g>
	<g>
		<path fill="#FFFFFF" d="M206.416,236.109c0,18.044,0,36.088,0,54.132c0,4.514,7,4.514,7,0c0-18.044,0-36.088,0-54.132
			C213.416,231.595,206.416,231.595,206.416,236.109L206.416,236.109z"/>
	</g>
	<g>
		<path fill="#FFFFFF" d="M217.766,236.109c0,18.044,0,36.088,0,54.132c0,4.514,7,4.514,7,0c0-18.044,0-36.088,0-54.132
			C224.766,231.595,217.766,231.595,217.766,236.109L217.766,236.109z"/>
	</g>
	<g>
		<path fill="#FFFFFF" d="M229.115,236.051c0,18.044,0,36.088,0,54.132c0,4.514,7,4.514,7,0c0-18.044,0-36.088,0-54.132
			C236.115,231.537,229.115,231.537,229.115,236.051L229.115,236.051z"/>
	</g>
	<g>
		<path fill="#FFFFFF" d="M240.466,236.109c0,18.044,0,36.088,0,54.132c0,4.514,7,4.514,7,0c0-18.044,0-36.088,0-54.132
			C247.466,231.595,240.466,231.595,240.466,236.109L240.466,236.109z"/>
	</g>
	<g>
		<path fill="#FFFFFF" d="M251.817,236.109c0,18.044,0,36.088,0,54.132c0,4.514,7,4.514,7,0c0-18.044,0-36.088,0-54.132
			C258.817,231.595,251.817,231.595,251.817,236.109L251.817,236.109z"/>
	</g>
	<g>
		<path fill="#FFFFFF" d="M263.167,236.109c0,18.044,0,36.088,0,54.132c0,4.514,7,4.514,7,0c0-18.044,0-36.088,0-54.132
			C270.167,231.595,263.167,231.595,263.167,236.109L263.167,236.109z"/>
	</g>
	<g>
		<path fill="#FFFFFF" d="M274.517,236.051c0,18.044,0,36.088,0,54.132c0,4.514,7,4.514,7,0c0-18.044,0-36.088,0-54.132
			C281.517,231.537,274.517,231.537,274.517,236.051L274.517,236.051z"/>
	</g>
	<g>
		<path fill="#FFFFFF" d="M182.816,250.086c33.868,0,67.736,0,101.604,0c4.514,0,4.514-7,0-7c-33.868,0-67.736,0-101.604,0
			C178.302,243.086,178.302,250.086,182.816,250.086L182.816,250.086z"/>
	</g>
	<g>
		<path fill="#FFFFFF" d="M182.492,282.915c34.053,0,68.107,0,102.16,0c4.514,0,4.514-7,0-7c-34.053,0-68.107,0-102.16,0
			C177.978,275.915,177.978,282.915,182.492,282.915L182.492,282.915z"/>
	</g>
</g>
</svg>
