<?xml version="1.0" encoding="iso-8859-1"?>
<!-- Generator: Adobe Illustrator 16.0.0, SVG Export Plug-In . SVG Version: 6.00 Build 0)  -->
<!DOCTYPE svg PUBLIC "-//W3C//DTD SVG 1.1//EN" "http://www.w3.org/Graphics/SVG/1.1/DTD/svg11.dtd">
<svg version="1.1" xmlns="http://www.w3.org/2000/svg" xmlns:xlink="http://www.w3.org/1999/xlink" x="0px" y="0px" width="361px"
	 height="361px" viewBox="0 0 361 361" style="enable-background:new 0 0 361 361;" xml:space="preserve">
<g id="control_x5F_arrow_x5F_left">
	<path style="fill:none;stroke:#FFFFFF;stroke-width:10;stroke-miterlimit:10;" d="M181.042,129.844
		c0-2.928,0.741-5.302,1.655-5.302h28.689c0.914,0,1.655,2.374,1.655,5.302V233.24c0,2.928-0.741,5.302-1.655,5.302h-28.689
		c-0.914,0-1.655-2.374-1.655-5.302V129.844z"/>
	<g>
		<g>
			<path style="fill:#FFFFFF;" d="M182.856,256.788c-35-26.75-70-53.501-105-80.251c0,2.878,0,5.757,0,8.635
				c35-26.75,70-53.501,105-80.251c-2.508-1.439-5.016-2.878-7.523-4.317c0,49.382,0,98.765,0,148.147c0,4.118,0,8.237,0,12.355
				c0,6.448,10,6.448,10,0c0-49.383,0-98.765,0-148.147c0-4.119,0-8.237,0-12.355c0-3.435-4.397-6.707-7.523-4.317
				c-35,26.75-70,53.501-105,80.251c-3.178,2.429-3.178,6.206,0,8.635c35,26.75,70,53.501,105,80.251
				C182.935,269.34,187.906,260.647,182.856,256.788z"/>
		</g>
	</g>
</g>
<g id="Ebene_1">
</g>
</svg>
