<?xml version="1.0" encoding="iso-8859-1"?>
<!-- Generator: Adobe Illustrator 16.0.0, SVG Export Plug-In . SVG Version: 6.00 Build 0)  -->
<!DOCTYPE svg PUBLIC "-//W3C//DTD SVG 1.1 Tiny//EN" "http://www.w3.org/Graphics/SVG/1.1/DTD/svg11-tiny.dtd">
<svg version="1.1" baseProfile="tiny" id="control_x5F_standby"
	 xmlns="http://www.w3.org/2000/svg" xmlns:xlink="http://www.w3.org/1999/xlink" x="0px" y="0px" width="361px" height="361px"
	 viewBox="0 0 361 361" xml:space="preserve">
<g>
	<path fill="#FFFFFF" d="M201.978,113.732c6.153,0,12.307,0,18.46,0c7.973,0,15.146,0.375,21.44,6.112
		c8.739,7.966,7.013,20.302,7.013,30.936c0,27.054,0,54.108,0,81.163c0,14.21-10.149,23.941-24.228,23.941
		c-11.838,0-23.676,0-35.514,0c-15.363,0-30.727,0-46.09,0c-11.344,0-22.562,1.375-31.066-7.955
		c-7.17-7.866-5.253-20.768-5.253-30.589c0-15.584,0-31.168,0-46.752c0-11.139,0-22.278,0-33.417c0-7.455,2.874-14.406,8.943-18.986
		c6.369-4.807,13.661-4.452,21.147-4.452c5.791,0,11.582,0,17.373,0c6.449,0,6.449-10,0-10c-13.077,0-28.239-2.167-40.299,3.799
		c-9.952,4.923-15.715,15.198-17.03,25.872c-0.366,2.976-0.133,6.135-0.133,9.122c0,28.01,0,56.021,0,84.032
		c0,2.769-0.034,5.539,0.034,8.306c0.271,11.035,6.787,20.904,16.007,26.599c9.355,5.779,21.23,4.422,31.748,4.422
		c26.895,0,53.79,0,80.684,0c18.101,0,33.678-13.764,33.678-32.401c0-9.005,0-18.011,0-27.016c0-15.903,0-31.806,0-47.709
		c0-9.076,1.084-19.002-0.476-28.015c-2.667-15.41-16.266-27.011-31.964-27.011c-8.158,0-16.316,0-24.474,0
		C195.529,103.732,195.529,113.732,201.978,113.732L201.978,113.732z"/>
</g>
<g>
	<path fill="#FFFFFF" d="M173.24,94.708c0,34.283,0,68.567,0,102.85c0,6.449,10,6.449,10,0c0-34.283,0-68.567,0-102.85
		C183.24,88.259,173.24,88.259,173.24,94.708L173.24,94.708z"/>
</g>
</svg>
