<?xml version="1.0" encoding="iso-8859-1"?>
<!-- Generator: Adobe Illustrator 16.0.0, SVG Export Plug-In . SVG Version: 6.00 Build 0)  -->
<!DOCTYPE svg PUBLIC "-//W3C//DTD SVG 1.1 Tiny//EN" "http://www.w3.org/Graphics/SVG/1.1/DTD/svg11-tiny.dtd">
<svg version="1.1" baseProfile="tiny" id="control_x5F_centr_x5F_arrow_x5F_left"
	 xmlns="http://www.w3.org/2000/svg" xmlns:xlink="http://www.w3.org/1999/xlink" x="0px" y="0px" width="361px" height="361px"
	 viewBox="0 0 361 361" xml:space="preserve">
<g>
	<path fill="none" stroke="#FFFFFF" stroke-width="10" stroke-miterlimit="10" d="M215.524,132.722c0-2.928,0.741-5.302,1.655-5.302
		h28.69c0.914,0,1.655,2.374,1.655,5.302v103.396c0,2.928-0.741,5.302-1.655,5.302h-28.69c-0.914,0-1.655-2.374-1.655-5.302V132.722
		z"/>
	<g>
		<path fill="#FFFFFF" d="M217.338,259.667c-35-26.75-70-53.501-105-80.251c0,2.878,0,5.756,0,8.635c35-26.75,70-53.501,105-80.251
			c-2.508-1.439-5.016-2.878-7.523-4.317c0,49.382,0,98.765,0,148.147c0,4.119,0,8.237,0,12.355c0,6.449,10,6.449,10,0
			c0-49.382,0-98.765,0-148.147c0-4.119,0-8.237,0-12.355c0-3.435-4.397-6.707-7.523-4.317c-35,26.75-70,53.501-105,80.251
			c-3.178,2.429-3.178,6.206,0,8.635c35,26.75,70,53.501,105,80.251C217.417,272.219,222.388,263.526,217.338,259.667z"/>
	</g>
</g>
</svg>
