<?xml version="1.0" encoding="iso-8859-1"?>
<!-- Generator: Adobe Illustrator 16.0.3, SVG Export Plug-In . SVG Version: 6.00 Build 0)  -->
<!DOCTYPE svg PUBLIC "-//W3C//DTD SVG 1.1//EN" "http://www.w3.org/Graphics/SVG/1.1/DTD/svg11.dtd">
<svg version="1.1" xmlns="http://www.w3.org/2000/svg" xmlns:xlink="http://www.w3.org/1999/xlink" x="0px" y="0px" width="361px"
	 height="361px" viewBox="0 0 361 361" style="enable-background:new 0 0 361 361;" xml:space="preserve">
<g id="control_x5F_3dot_x5F_hor_x5F_f">
	<path style="fill:#FFFFFF;" d="M198.834,187.826v-13.652c0-6.065-4.936-11-11-11H174.5c-6.065,0-11,4.935-11,11v13.652
		c0,6.065,4.935,11,11,11h13.334C193.898,198.826,198.834,193.892,198.834,187.826z"/>
	<path style="fill:#FFFFFF;" d="M218.5,174.174v13.652c0,6.065,4.934,11,11,11h13.334c6.064,0,11-4.935,11-11v-13.652
		c0-6.065-4.936-11-11-11H229.5C223.434,163.174,218.5,168.108,218.5,174.174z"/>
	<path style="fill:#FFFFFF;" d="M143.833,187.826v-13.652c0-6.065-4.935-11-11-11H119.5c-6.065,0-11,4.935-11,11v13.652
		c0,6.065,4.935,11,11,11h13.334C138.899,198.826,143.833,193.892,143.833,187.826z"/>
</g>
<g id="Ebene_1">
</g>
</svg>
