<?xml version="1.0" encoding="iso-8859-1"?>
<!-- Generator: Adobe Illustrator 16.0.3, SVG Export Plug-In . SVG Version: 6.00 Build 0)  -->
<!DOCTYPE svg PUBLIC "-//W3C//DTD SVG 1.1//EN" "http://www.w3.org/Graphics/SVG/1.1/DTD/svg11.dtd">
<svg version="1.1" xmlns="http://www.w3.org/2000/svg" xmlns:xlink="http://www.w3.org/1999/xlink" x="0px" y="0px" width="361px"
	 height="361px" viewBox="0 0 361 361" style="enable-background:new 0 0 361 361;" xml:space="preserve">
<g id="control_x5F_building_x5F_modern02_x5F_okg_x5F_int_x5F_all">
	<g id="OG_56_">
		<path style="fill:#FFFFFF;" d="M267.105,146.563H94.261c-2.629,0-4.761,2.203-4.761,4.919v48.946c0,2.716,2.131,4.919,4.761,4.919
			h172.845c2.63,0,4.762-2.203,4.762-4.919v-48.946C271.867,148.766,269.735,146.563,267.105,146.563z"/>
	</g>
	<path id="EG_90_" style="fill:#FFFFFF;" d="M266.733,213.833h-172.1c-2.634,0-4.77,2.237-4.77,4.997v51.565
		c0,2.759,2.136,4.997,4.77,4.997h172.1c2.634,0,4.77-2.238,4.77-4.997V218.83C271.503,216.07,269.367,213.833,266.733,213.833z"/>
	<g id="Haus_78_">
		<g>
			<g>
				<path style="fill:#FFFFFF;" d="M76.973,124.712c21.382-14.327,42.764-28.655,64.146-42.982
					c5.327-3.569,0.327-12.236-5.047-8.635c-21.382,14.327-42.764,28.655-64.146,42.982
					C66.599,119.646,71.599,128.313,76.973,124.712L76.973,124.712z"/>
			</g>
		</g>
		<g>
			<g>
				<path style="fill:#FFFFFF;" d="M276.718,278.947c0.05-0.382,0.463-0.231-0.573-0.231c-1.03,0-2.06,0-3.09,0
					c-3.723,0-7.445,0-11.169,0c-12.585,0-25.171,0-37.757,0c-31.892,0-63.784,0-95.677,0c-11.399,0-22.799,0-34.199,0
					c-2.833,0-5.667,0-8.5,0c-1.684,0-1.105,0.535-1.105-0.566c0-22.843,0-45.687,0-68.529c0-30.729,0-61.459,0-92.189
					c-0.826,1.439-1.651,2.878-2.477,4.317c19.946-13.339,39.893-26.679,59.838-40.018c-1.284,0.168-2.568,0.336-3.853,0.504
					c45.156,13.664,90.311,27.327,135.467,40.991c0.824,0.25,3.093,0.533,3.093,1.135c0,2.639,0,5.278,0,7.917
					c0,12.192,0,24.384,0,36.576c0,30.577,0,61.153,0,91.73C276.718,266.704,276.718,272.826,276.718,278.947c0,6.448,10,6.448,10,0
					c0-48.891,0-97.78,0-146.67c0-7.945,0.884-15.27-8.594-18.138c-7.547-2.284-15.095-4.567-22.642-6.851
					c-29.569-8.947-59.14-17.895-88.709-26.842c-8.367-2.531-16.733-5.063-25.1-7.595c-2.708-0.819-4.598,0.169-6.763,1.617
					c-4.735,3.167-9.47,6.333-14.206,9.5c-12.558,8.398-25.116,16.796-37.673,25.195c-2.79,1.866-8.384,4.381-8.384,8.268
					c0,1.592,0,3.185,0,4.777c0,51.404,0,102.808,0,154.212c0,3.869,0.424,7.525,3.748,10.181c2.583,2.063,5.429,2.115,8.488,2.115
					c8.553,0,17.106,0,25.659,0c30.943,0,61.887,0,92.83,0c18.055,0,36.109,0,54.165,0c4.894,0,9.788,0,14.682,0
					c6.506,0,11.551-2.471,12.498-9.769C287.546,272.565,277.536,272.646,276.718,278.947z"/>
			</g>
		</g>
		<g>
			<line style="fill:#FFFFFF;" x1="90.564" y1="209.949" x2="270.803" y2="209.949"/>
			<g>
				<path style="fill:#FFFFFF;" d="M90.564,211.449c49.869,0,99.738,0,149.607,0c10.21,0,20.421,0,30.632,0c1.935,0,1.935-3,0-3
					c-49.869,0-99.738,0-149.606,0c-10.211,0-20.421,0-30.632,0C88.629,208.449,88.629,211.449,90.564,211.449L90.564,211.449z"/>
			</g>
		</g>
		<g>
			<line style="fill:#FFFFFF;" x1="90.564" y1="142.746" x2="270.803" y2="142.746"/>
			<g>
				<path style="fill:#FFFFFF;" d="M90.564,144.246c49.869,0,99.738,0,149.607,0c10.21,0,20.421,0,30.632,0c1.935,0,1.935-3,0-3
					c-49.869,0-99.738,0-149.606,0c-10.211,0-20.421,0-30.632,0C88.629,141.246,88.629,144.246,90.564,144.246L90.564,144.246z"/>
			</g>
		</g>
		<g>
			<g>
				<path style="fill:#FFFFFF;" d="M137.828,82.027c46.735,13.889,93.469,27.777,140.205,41.666
					c2.418,0.719,4.836,1.438,7.254,2.156c6.197,1.842,8.825-7.81,2.658-9.643c-46.734-13.889-93.47-27.777-140.204-41.666
					c-2.418-0.719-4.836-1.438-7.254-2.156C134.289,70.542,131.661,80.194,137.828,82.027L137.828,82.027z"/>
			</g>
		</g>
	</g>
	<g id="DG_67_">
		<path style="fill:#FFFFFF;" d="M266.678,125.699c0,0-121.175-35.737-122.558-36.15c-1.738-0.52-3.973-0.219-4.746,0.3
			c-0.904,0.607-44.995,29.793-44.995,29.793c-4.802,3.201-4.802,3.35-4.802,6.002v6.803c0,2.651,2.15,4.802,4.802,4.802h172.095
			c2.651,0,4.801-2.15,4.801-4.802l0.204-1.946C271.479,127.849,270.085,127.022,266.678,125.699z"/>
	</g>
</g>
<g id="Ebene_1">
</g>
</svg>
