<?xml version="1.0" encoding="iso-8859-1"?>
<!-- Generator: Adobe Illustrator 16.0.0, SVG Export Plug-In . SVG Version: 6.00 Build 0)  -->
<!DOCTYPE svg PUBLIC "-//W3C//DTD SVG 1.1 Tiny//EN" "http://www.w3.org/Graphics/SVG/1.1/DTD/svg11-tiny.dtd">
<svg version="1.1" baseProfile="tiny" id="control_x5F_zoom_x5F_in"
	 xmlns="http://www.w3.org/2000/svg" xmlns:xlink="http://www.w3.org/1999/xlink" x="0px" y="0px" width="361px" height="361px"
	 viewBox="0 0 361 361" xml:space="preserve">
<g>
	<path fill="none" stroke="#FFFFFF" stroke-width="10" stroke-miterlimit="10" d="M150.756,187.635
		c0,13.205,10.707,23.91,23.91,23.91h85.014c13.206,0,23.91-10.705,23.91-23.91v-85.014c0-13.205-10.704-23.91-23.91-23.91h-85.014
		c-13.203,0-23.91,10.705-23.91,23.91V187.635z"/>
	<path fill="none" stroke="#FFFFFF" stroke-width="10" stroke-miterlimit="10" d="M151.182,192.12l-75.863,75.862
		c-2.892,2.892-2.892,7.582,0,10.474l8.728,8.728c2.893,2.893,7.581,2.893,10.474,0l76.003-76.003"/>
</g>
<g>
	<path fill="#FFFFFF" d="M253.262,137.543c-23.906,0-47.813,0-71.718,0c-9.687,0-9.772,15.003-0.108,15.003
		c23.906,0,47.813,0,71.718,0C262.84,152.546,262.925,137.543,253.262,137.543L253.262,137.543z"/>
</g>
<g>
	<path fill="#FFFFFF" d="M224.85,180.958c0-23.906,0-47.813,0-71.719c0-9.687-15.003-9.772-15.003-0.108c0,23.906,0,47.813,0,71.719
		C209.847,190.537,224.85,190.622,224.85,180.958L224.85,180.958z"/>
</g>
</svg>
