<?xml version="1.0" encoding="iso-8859-1"?>
<!-- Generator: Adobe Illustrator 16.0.0, SVG Export Plug-In . SVG Version: 6.00 Build 0)  -->
<!DOCTYPE svg PUBLIC "-//W3C//DTD SVG 1.1 Tiny//EN" "http://www.w3.org/Graphics/SVG/1.1/DTD/svg11-tiny.dtd">
<svg version="1.1" baseProfile="tiny" id="edit_x5F_save"
	 xmlns="http://www.w3.org/2000/svg" xmlns:xlink="http://www.w3.org/1999/xlink" x="0px" y="0px" width="361px" height="361px"
	 viewBox="0 0 361 361" xml:space="preserve">
<path fill="none" stroke="#FFFFFF" stroke-width="10" stroke-miterlimit="10" d="M284.621,281.325c0,4.433-3.594,8.026-8.026,8.026
	H80.636c-4.433,0-8.026-3.593-8.026-8.026V85.366c0-4.433,3.593-8.026,8.026-8.026h195.959c4.432,0,8.026,3.593,8.026,8.026V281.325
	z"/>
<g>
	<path fill="#FFFFFF" d="M255.374,160.992c-0.377,3.273-5.381,2.349-7.29,2.349c-4.644,0-9.287,0-13.93,0
		c-14.693,0-29.386,0-44.08,0c-25.866,0-51.732,0-77.598,0c-2.259,0-4.604-0.39-4.604-3.39c0-4.679,0-9.357,0-14.036
		c0-15.611,0-31.223,0-46.834c0-4.86,0-9.721,0-14.582c0-2.784,1.974-3.659,4.337-3.659c9.759,0,19.518,0,29.276,0
		c30.654,0,61.308,0,91.961,0c6.526,0,13.052,0,19.578,0c3.712,0,2.349,9.185,2.349,10.827c0,7.01,0,14.021,0,21.031
		C255.374,128.796,255.374,144.894,255.374,160.992c0,4.514,7,4.514,7,0c0-24.451,0-48.902,0-73.354
		c0-4.342,0.336-9.328-3.924-12.036c-2.904-1.846-5.683-1.763-8.901-1.763c-10.693,0-21.386,0-32.079,0c-30.366,0-60.732,0-91.099,0
		c-6.173,0-16.033-1.759-21.574,1.763c-4.26,2.708-3.924,7.694-3.924,12.036c0,6.144,0,12.287,0,18.43c0,15.262,0,30.523,0,45.785
		c0,8.207-0.763,18.487,10.634,18.487c24.866,0,49.731,0,74.597,0c16.924,0,33.848,0,50.772,0c8.894,0,24.077,2.987,25.498-9.349
		C262.89,156.512,255.884,156.562,255.374,160.992z"/>
</g>
<path fill="none" stroke="#FFFFFF" stroke-width="10" stroke-miterlimit="10" d="M86.258,97.772c0,2.347-1.902,4.25-4.25,4.25H77.63
	c-2.347,0-4.25-1.902-4.25-4.25l0,0c0-2.347,1.902-4.25,4.25-4.25h4.378C84.355,93.522,86.258,95.425,86.258,97.772L86.258,97.772z"
	/>
<g>
	<path fill="#FFFFFF" d="M122.315,106.182c39.184,0,78.368,0,117.552,0c4.514,0,4.514-7,0-7c-39.184,0-78.368,0-117.552,0
		C117.801,99.182,117.801,106.182,122.315,106.182L122.315,106.182z"/>
</g>
<g>
	<path fill="#FFFFFF" d="M122.315,154.649c39.184,0,78.368,0,117.552,0c4.514,0,4.514-7,0-7c-39.184,0-78.368,0-117.552,0
		C117.801,147.649,117.801,154.649,122.315,154.649L122.315,154.649z"/>
</g>
<g>
	<path fill="#FFFFFF" d="M122.315,130.415c39.184,0,78.368,0,117.552,0c4.514,0,4.514-7,0-7c-39.184,0-78.368,0-117.552,0
		C117.801,123.415,117.801,130.415,122.315,130.415L122.315,130.415z"/>
</g>
<path fill="#FFFFFF" d="M153.347,269.454c0,4.276-3.344,7.741-7.469,7.741h-14.467c-4.125,0-7.468-3.465-7.468-7.741v-49.301
	c0-4.275,3.344-7.741,7.468-7.741h14.467c4.125,0,7.469,3.466,7.469,7.741V269.454z"/>
<g>
	<path fill="#FFFFFF" d="M242.52,281.292c-0.429,5.251-5.505,4.56-9.203,4.56c-5.013,0-10.026,0-15.04,0c-15.47,0-30.941,0-46.411,0
		c-14.005,0-28.01,0-42.015,0c-3.181,0-6.362,0-9.543,0c-5.045,0-5.193-4.124-5.193-7.805c0-14.04,0-28.08,0-42.119
		c0-6.883,0-13.766,0-20.648c0-4.138-1.266-11.051,4.66-11.523c7.47-0.595,15.231,0,22.718,0c15.739,0,31.477,0,47.216,0
		c13.073,0,26.146,0,39.22,0c2.846,0,5.692,0,8.539,0c5.014,0,5.054,4.218,5.054,7.805
		C242.52,234.804,242.52,258.048,242.52,281.292c0,4.514,7,4.514,7,0c0-23.759,0-47.518,0-71.277
		c0-6.278-3.355-12.598-10.336-13.154c-2.388-0.19-4.791-0.105-7.185-0.105c-12.799,0-25.598,0-38.396,0
		c-24.551,0-49.101,0-73.652,0c-13.927,0-11.836,15.55-11.836,24.883c0,15.443,0,30.887,0,46.331
		c0,9.333-2.091,24.883,11.836,24.883c8.611,0,17.222,0,25.833,0c28.738,0,57.477,0,86.215,0c1.895,0,3.79,0,5.685,0
		c6.742,0,11.312-5.132,11.836-11.56C249.888,276.79,242.885,276.825,242.52,281.292z"/>
</g>
</svg>
