<?xml version="1.0" encoding="iso-8859-1"?>
<!-- Generator: Adobe Illustrator 16.0.0, SVG Export Plug-In . SVG Version: 6.00 Build 0)  -->
<!DOCTYPE svg PUBLIC "-//W3C//DTD SVG 1.1 Tiny//EN" "http://www.w3.org/Graphics/SVG/1.1/DTD/svg11-tiny.dtd">
<svg version="1.1" baseProfile="tiny" id="edit_x5F_expand"
	 xmlns="http://www.w3.org/2000/svg" xmlns:xlink="http://www.w3.org/1999/xlink" x="0px" y="0px" width="361px" height="361px"
	 viewBox="0 0 361 361" xml:space="preserve">
<g display="none">
	<path display="inline" fill="none" stroke="#FFFFFF" stroke-width="10" stroke-miterlimit="10" d="M236.58,84.16
		c0-3.562-2.887-6.449-6.448-6.449H78.607c-3.562,0-6.449,2.887-6.449,6.449v198.273c0,3.561,2.887,6.447,6.449,6.447h151.525
		c3.561,0,6.448-2.887,6.448-6.447V84.16z"/>
	<g display="inline">
		<path fill="#FFFFFF" d="M97.119,114.211c38.167,0,76.333,0,114.5,0c6.449,0,6.449-10,0-10c-38.167,0-76.333,0-114.5,0
			C90.67,104.211,90.67,114.211,97.119,114.211L97.119,114.211z"/>
	</g>
	<g display="inline">
		<path fill="#FFFFFF" d="M97.119,169.412c38.167,0,76.333,0,114.5,0c6.449,0,6.449-10,0-10c-38.167,0-76.333,0-114.5,0
			C90.67,159.412,90.67,169.412,97.119,169.412L97.119,169.412z"/>
	</g>
	<g display="inline">
		<path fill="#FFFFFF" d="M97.119,141.812c38.167,0,76.333,0,114.5,0c6.449,0,6.449-10,0-10c-38.167,0-76.333,0-114.5,0
			C90.67,131.812,90.67,141.812,97.119,141.812L97.119,141.812z"/>
	</g>
	<g display="inline">
		<path fill="#FFFFFF" d="M97.119,197.011c38.167,0,76.333,0,114.5,0c6.449,0,6.449-10,0-10c-38.167,0-76.333,0-114.5,0
			C90.67,187.011,90.67,197.011,97.119,197.011L97.119,197.011z"/>
	</g>
	<g display="inline">
		<path fill="#FFFFFF" d="M97.786,224.611c37.722,0,75.445,0,113.167,0c6.449,0,6.449-10,0-10c-37.722,0-75.445,0-113.167,0
			C91.337,214.611,91.337,224.611,97.786,224.611L97.786,224.611z"/>
	</g>
	<g display="inline">
		<path fill="#FFFFFF" d="M97.953,252.211c37.611,0,75.222,0,112.833,0c6.449,0,6.449-10,0-10c-37.611,0-75.222,0-112.833,0
			C91.504,242.211,91.504,252.211,97.953,252.211L97.953,252.211z"/>
	</g>
</g>
<g>
	<path fill="#FFFFFF" d="M224.413,166.888c0-11.232,0-22.465,0-33.697c0-7.319,0-14.638,0-21.957c0-4.342,0.282-8.861-0.485-13.155
		c-1.913-10.712-9.252-19.925-19.418-23.934c-4.878-1.923-9.854-2.267-15.004-2.267c-12.979,0-25.959,0-38.938,0
		c-14.63,0-29.259,0-43.889,0c-2.777,0-5.554,0-8.33,0c-10.789,0-20.214,5.538-26.37,14.194c-6.652,9.353-5.222,21.683-5.222,32.525
		c0,15.62,0,31.24,0,46.86c0,9.853,0,19.706,0,29.559c0,13.166,5.365,24.984,17.532,31.215c9.645,4.94,22.195,3.304,32.686,3.304
		c9.807,0,19.614,0,29.421,0c6.449,0,6.449-10,0-10c-12.251,0-24.503,0-36.755,0c-4.657,0-9.375,0.216-14.024-0.137
		c-10.696-0.813-18.86-11.14-18.86-21.455c0-25.134,0-50.268,0-75.402c0-9.586-1.794-21.719,3.166-30.343
		c6.736-11.715,19.925-10.32,31.351-10.32c26.824,0,53.647,0,80.471,0c10.996,0,19.817,6.758,22.308,17.55
		c1.342,5.815,0.361,12.858,0.361,18.739c0,16.24,0,32.48,0,48.72C214.413,173.336,224.413,173.336,224.413,166.888L224.413,166.888
		z"/>
</g>
<g>
	<path fill="#FFFFFF" d="M185.695,143.113c-26.574,0-53.148,0-79.722,0c-9.687,0-9.772,15.003-0.108,15.003
		c26.574,0,53.148,0,79.722,0C195.273,158.116,195.359,143.113,185.695,143.113L185.695,143.113z"/>
</g>
<g>
	<path fill="#FFFFFF" d="M153.281,190.529c0-26.574,0-53.148,0-79.722c0-9.687-15.003-9.772-15.003-0.108
		c0,26.574,0,53.148,0,79.722C138.278,200.107,153.281,200.193,153.281,190.529L153.281,190.529z"/>
</g>
<path fill="none" stroke="#FFFFFF" stroke-width="10" stroke-miterlimit="10" d="M263.028,212.768c2.141,0,3.876-0.542,3.876-1.209
	v-20.97c0-0.667-1.735-1.209-3.876-1.21h-75.571c-2.14,0-3.875,0.541-3.875,1.209l0,20.97c0,0.668,1.735,1.209,3.875,1.21
	L263.028,212.768z"/>
<g>
	<path fill="#FFFFFF" d="M162.771,215.811c19.552,25.581,39.104,51.162,58.656,76.743c2.429,3.178,6.206,3.178,8.635,0
		c19.552-25.581,39.104-51.162,58.656-76.744c2.39-3.126-0.882-7.523-4.317-7.523c-39.104,0-78.208,0-117.312,0
		c-6.449,0-6.449,10,0,10c39.104,0,78.208,0,117.312,0c-1.439-2.508-2.878-5.016-4.317-7.523
		c-19.552,25.581-39.104,51.162-58.656,76.744c2.878,0,5.756,0,8.635,0c-19.552-25.581-39.104-51.162-58.656-76.743
		C167.546,205.714,158.854,210.685,162.771,215.811z"/>
</g>
</svg>
