<?xml version="1.0" encoding="iso-8859-1"?>
<!-- Generator: Adobe Illustrator 16.0.0, SVG Export Plug-In . SVG Version: 6.00 Build 0)  -->
<!DOCTYPE svg PUBLIC "-//W3C//DTD SVG 1.1//EN" "http://www.w3.org/Graphics/SVG/1.1/DTD/svg11.dtd">
<svg version="1.1" xmlns="http://www.w3.org/2000/svg" xmlns:xlink="http://www.w3.org/1999/xlink" x="0px" y="0px" width="361px"
	 height="361px" viewBox="0 0 361 361" style="enable-background:new 0 0 361 361;" xml:space="preserve">
<g id="edit_x5F_copy">
	<g style="display:none;">
		<path style="display:inline;fill:none;stroke:#FFFFFF;stroke-width:10;stroke-miterlimit:10;" d="M239.098,81.282
			c0-3.562-2.887-6.449-6.447-6.449H81.125c-3.562,0-6.449,2.887-6.449,6.449v198.272c0,3.561,2.887,6.447,6.449,6.447H232.65
			c3.561,0,6.447-2.887,6.447-6.447V81.282z"/>
		<g style="display:inline;">
			<g>
				<path style="fill:#FFFFFF;" d="M99.637,111.333c38.167,0,76.333,0,114.5,0c6.448,0,6.448-10,0-10c-38.167,0-76.333,0-114.5,0
					C93.188,101.333,93.188,111.333,99.637,111.333L99.637,111.333z"/>
			</g>
		</g>
		<g style="display:inline;">
			<g>
				<path style="fill:#FFFFFF;" d="M99.637,166.534c38.167,0,76.333,0,114.5,0c6.448,0,6.448-10,0-10c-38.167,0-76.333,0-114.5,0
					C93.188,156.534,93.188,166.534,99.637,166.534L99.637,166.534z"/>
			</g>
		</g>
		<g style="display:inline;">
			<g>
				<path style="fill:#FFFFFF;" d="M99.637,138.934c38.167,0,76.333,0,114.5,0c6.448,0,6.448-10,0-10c-38.167,0-76.333,0-114.5,0
					C93.188,128.934,93.188,138.934,99.637,138.934L99.637,138.934z"/>
			</g>
		</g>
		<g style="display:inline;">
			<g>
				<path style="fill:#FFFFFF;" d="M99.637,194.133c38.167,0,76.333,0,114.5,0c6.448,0,6.448-10,0-10c-38.167,0-76.333,0-114.5,0
					C93.188,184.133,93.188,194.133,99.637,194.133L99.637,194.133z"/>
			</g>
		</g>
		<g style="display:inline;">
			<g>
				<path style="fill:#FFFFFF;" d="M100.304,221.733c37.722,0,75.445,0,113.167,0c6.448,0,6.448-10,0-10
					c-37.722,0-75.445,0-113.167,0C93.855,211.733,93.855,221.733,100.304,221.733L100.304,221.733z"/>
			</g>
		</g>
		<g style="display:inline;">
			<g>
				<path style="fill:#FFFFFF;" d="M100.471,249.334c37.611,0,75.222,0,112.833,0c6.448,0,6.448-10,0-10
					c-37.611,0-75.222,0-112.833,0C94.022,239.334,94.022,249.334,100.471,249.334L100.471,249.334z"/>
			</g>
		</g>
	</g>
	<g>
		<path style="fill:none;stroke:#FFFFFF;stroke-width:10;stroke-miterlimit:10;" d="M146.009,105.167h-65.81
			c-3.05,0-5.522,2.473-5.522,5.522v169.792c0,3.049,2.473,5.521,5.522,5.521h129.759c3.05,0,5.521-2.472,5.521-5.521v-25.308"/>
		<g>
			<g>
				<path style="fill:#FFFFFF;" d="M96.052,137.142c16.684,0,33.369,0,50.053,0c6.449,0,6.449-10,0-10c-16.684,0-33.369,0-50.053,0
					C89.603,127.142,89.603,137.142,96.052,137.142L96.052,137.142z"/>
			</g>
		</g>
		<g>
			<g>
				<path style="fill:#FFFFFF;" d="M96.052,184.414c16.684,0,33.369,0,50.053,0c6.449,0,6.449-10,0-10c-16.684,0-33.369,0-50.053,0
					C89.603,174.414,89.603,184.414,96.052,184.414L96.052,184.414z"/>
			</g>
		</g>
		<g>
			<g>
				<path style="fill:#FFFFFF;" d="M96.052,160.777c16.684,0,33.369,0,50.053,0c6.449,0,6.449-10,0-10c-16.684,0-33.369,0-50.053,0
					C89.603,150.777,89.603,160.777,96.052,160.777L96.052,160.777z"/>
			</g>
		</g>
		<g>
			<g>
				<path style="fill:#FFFFFF;" d="M96.052,208.049c16.684,0,33.369,0,50.053,0c6.449,0,6.449-10,0-10c-16.684,0-33.369,0-50.053,0
					C89.603,198.049,89.603,208.049,96.052,208.049L96.052,208.049z"/>
			</g>
		</g>
		<g>
			<g>
				<path style="fill:#FFFFFF;" d="M96.623,231.684c16.304,0,32.607,0,48.911,0c6.449,0,6.449-10,0-10c-16.304,0-32.607,0-48.911,0
					C90.174,221.684,90.174,231.684,96.623,231.684L96.623,231.684z"/>
			</g>
		</g>
		<g>
			<g>
				<path style="fill:#FFFFFF;" d="M96.766,255.318c16.208,0,32.417,0,48.625,0c6.449,0,6.449-10,0-10c-16.208,0-32.417,0-48.625,0
					C90.317,245.318,90.317,255.318,96.766,255.318L96.766,255.318z"/>
			</g>
		</g>
	</g>
	<g>
		<path style="fill:none;stroke:#FFFFFF;stroke-width:10;stroke-miterlimit:10;" d="M286.813,79.861c0-3.05-2.473-5.522-5.521-5.522
			H151.532c-3.05,0-5.522,2.473-5.522,5.522v169.792c0,3.049,2.473,5.521,5.522,5.521h129.759c3.049,0,5.521-2.473,5.521-5.521
			V79.861z"/>
		<g>
			<g>
				<path style="fill:#FFFFFF;" d="M167.385,106.313c32.685,0,65.368,0,98.053,0c6.448,0,6.448-10,0-10c-32.685,0-65.368,0-98.053,0
					C160.936,96.313,160.936,106.313,167.385,106.313L167.385,106.313z"/>
			</g>
		</g>
		<g>
			<g>
				<path style="fill:#FFFFFF;" d="M167.385,153.585c32.685,0,65.368,0,98.053,0c6.448,0,6.448-10,0-10c-32.685,0-65.368,0-98.053,0
					C160.936,143.585,160.936,153.585,167.385,153.585L167.385,153.585z"/>
			</g>
		</g>
		<g>
			<g>
				<path style="fill:#FFFFFF;" d="M167.385,129.949c32.685,0,65.368,0,98.053,0c6.448,0,6.448-10,0-10c-32.685,0-65.368,0-98.053,0
					C160.936,119.949,160.936,129.949,167.385,129.949L167.385,129.949z"/>
			</g>
		</g>
		<g>
			<g>
				<path style="fill:#FFFFFF;" d="M167.385,177.22c32.685,0,65.368,0,98.053,0c6.448,0,6.448-10,0-10c-32.685,0-65.368,0-98.053,0
					C160.936,167.22,160.936,177.22,167.385,177.22L167.385,177.22z"/>
			</g>
		</g>
		<g>
			<g>
				<path style="fill:#FFFFFF;" d="M167.956,200.854c32.304,0,64.608,0,96.912,0c6.448,0,6.448-10,0-10c-32.304,0-64.607,0-96.912,0
					C161.507,190.854,161.507,200.854,167.956,200.854L167.956,200.854z"/>
			</g>
		</g>
		<g>
			<g>
				<path style="fill:#FFFFFF;" d="M168.099,224.49c32.208,0,64.416,0,96.624,0c6.448,0,6.448-10,0-10c-32.208,0-64.416,0-96.624,0
					C161.65,214.49,161.65,224.49,168.099,224.49L168.099,224.49z"/>
			</g>
		</g>
	</g>
</g>
<g id="Ebene_1">
</g>
</svg>
