<?xml version="1.0" encoding="iso-8859-1"?>
<!-- Generator: Adobe Illustrator 16.0.0, SVG Export Plug-In . SVG Version: 6.00 Build 0)  -->
<!DOCTYPE svg PUBLIC "-//W3C//DTD SVG 1.1//EN" "http://www.w3.org/Graphics/SVG/1.1/DTD/svg11.dtd">
<svg version="1.1" xmlns="http://www.w3.org/2000/svg" xmlns:xlink="http://www.w3.org/1999/xlink" x="0px" y="0px" width="361px"
	 height="361px" viewBox="0 0 361 361" style="enable-background:new 0 0 361 361;" xml:space="preserve">
<g id="edit_x5F_numeric_x5F_2">
	<g>
		<g>
			<path style="fill:#FFFFFF;" d="M282.091,248.793c-0.342,19.011-15.57,33.223-34.364,33.223c-9.349,0-18.696,0-28.045,0
				c-30.382,0-60.764,0-91.146,0c-8.193,0-17.079,0.821-25.046-1.37c-15.908-4.376-23.746-19.357-23.746-34.84
				c0-26.94,0-53.881,0-80.822c0-13.63,0-27.261,0-40.891c0-10.286-0.432-19.816,5.218-29.091
				c5.9-9.688,16.872-15.134,28.005-15.334c1.873-0.034,3.75,0,5.623,0c11.993,0,23.985,0,35.978,0c28.948,0,57.895,0,86.843,0
				c2.435,0,4.869,0,7.304,0c9.692,0,18.423,4.118,24.992,11.149c8.259,8.838,8.384,19.892,8.384,31.057
				C282.091,164.179,282.091,206.486,282.091,248.793c0,6.448,10,6.448,10,0c0-45.25,0-90.499,0-135.749
				c0-21.074-15.582-39.412-36.368-42.802c-7.717-1.259-15.997-0.575-23.774-0.575c-30.484,0-60.969,0-91.454,0
				c-8.919,0-17.838,0-26.757,0c-19.139,0-35.525,11.826-41.866,29.812c-2.981,8.458-2.127,18.187-2.127,27.037
				c0,14.13,0,28.26,0,42.39c0,26.019,0,52.037,0,78.056c0,17.04,8.363,32.442,23.721,40.403c9.584,4.968,19.753,4.651,30.13,4.651
				c29.716,0,59.432,0,89.148,0c10.936,0,21.872,0,32.808,0c15.528,0,28.915-5.53,38.481-18.126
				c5.414-7.128,7.898-16.254,8.058-25.097C292.207,242.341,282.207,242.352,282.091,248.793z"/>
		</g>
	</g>
	<g>
		<path style="fill:#FFFFFF;" d="M219.152,141.803c0,5.72-1.027,11.11-3.079,16.17c-2.056,5.06-4.806,9.938-8.25,14.63
			c-3.448,4.695-7.37,9.24-11.771,13.639c-4.4,4.4-8.875,8.801-13.42,13.201c-3.815,3.668-7.518,7.369-11.11,11.109
			c-3.596,3.74-6.82,7.48-9.68,11.221c-2.86,3.739-5.135,7.407-6.82,11c-1.688,3.596-2.53,7.149-2.53,10.67v0.439h71.94v12.54
			h-87.781c0-0.292-0.038-0.843-0.11-1.649c-0.076-0.805-0.11-2.016-0.11-3.631c0-6.893,1.244-13.31,3.74-19.25
			c2.492-5.939,5.682-11.55,9.57-16.83c3.884-5.279,8.212-10.182,12.98-14.712c4.764-4.527,9.35-8.91,13.75-13.146
			c3.664-3.506,7.15-6.902,10.45-10.188s6.194-6.693,8.69-10.223c2.492-3.527,4.472-7.277,5.939-11.248
			c1.465-3.967,2.2-8.305,2.2-13.011c0-10.292-2.75-17.679-8.25-22.165c-5.5-4.482-12.43-6.727-20.79-6.727
			c-4.695,0-8.875,0.587-12.54,1.76c-3.667,1.176-6.857,2.53-9.57,4.07c-2.716,1.54-5.026,3.118-6.93,4.73
			c-1.908,1.616-3.3,2.86-4.18,3.74l-7.48-9.9c0.88-1.024,2.454-2.53,4.73-4.51c2.272-1.98,5.132-3.922,8.58-5.83
			c3.444-1.904,7.442-3.554,11.99-4.95c4.544-1.392,9.604-2.09,15.18-2.09c14.812,0,25.96,3.63,33.44,10.89
			C215.413,118.813,219.152,128.898,219.152,141.803z"/>
	</g>
</g>
<g id="Ebene_1">
</g>
</svg>
