<?xml version="1.0" encoding="iso-8859-1"?>
<!-- Generator: Adobe Illustrator 16.0.0, SVG Export Plug-In . SVG Version: 6.00 Build 0)  -->
<!DOCTYPE svg PUBLIC "-//W3C//DTD SVG 1.1//EN" "http://www.w3.org/Graphics/SVG/1.1/DTD/svg11.dtd">
<svg version="1.1" xmlns="http://www.w3.org/2000/svg" xmlns:xlink="http://www.w3.org/1999/xlink" x="0px" y="0px" width="361px"
	 height="361px" viewBox="0 0 361 361" style="enable-background:new 0 0 361 361;" xml:space="preserve">
<g id="edit_x5F_paste">
	<g>
		<path style="fill:none;stroke:#FFFFFF;stroke-width:10;stroke-miterlimit:10;" d="M286.732,146.84c0-2.44-1.979-4.418-4.418-4.418
			H178.508c-2.44,0-4.418,1.978-4.418,4.418v135.834c0,2.438,1.978,4.416,4.418,4.416h103.807c2.439,0,4.418-1.978,4.418-4.416
			V146.84z"/>
		<g>
			<g>
				<path style="fill:#FFFFFF;" d="M191.189,169.002c26.147,0,52.296,0,78.443,0c6.448,0,6.448-10,0-10c-26.147,0-52.296,0-78.443,0
					C184.741,159.002,184.741,169.002,191.189,169.002L191.189,169.002z"/>
			</g>
		</g>
		<g>
			<g>
				<path style="fill:#FFFFFF;" d="M191.189,206.819c26.147,0,52.296,0,78.443,0c6.448,0,6.448-10,0-10c-26.147,0-52.296,0-78.443,0
					C184.741,196.819,184.741,206.819,191.189,206.819L191.189,206.819z"/>
			</g>
		</g>
		<g>
			<g>
				<path style="fill:#FFFFFF;" d="M191.189,187.91c26.147,0,52.296,0,78.443,0c6.448,0,6.448-10,0-10c-26.147,0-52.296,0-78.443,0
					C184.741,177.91,184.741,187.91,191.189,187.91L191.189,187.91z"/>
			</g>
		</g>
		<g>
			<g>
				<path style="fill:#FFFFFF;" d="M191.189,225.727c26.147,0,52.296,0,78.443,0c6.448,0,6.448-10,0-10c-26.147,0-52.296,0-78.443,0
					C184.741,215.727,184.741,225.727,191.189,225.727L191.189,225.727z"/>
			</g>
		</g>
		<g>
			<g>
				<path style="fill:#FFFFFF;" d="M191.646,244.635c25.843,0,51.687,0,77.529,0c6.448,0,6.448-10,0-10c-25.843,0-51.687,0-77.529,0
					C185.198,234.635,185.198,244.635,191.646,244.635L191.646,244.635z"/>
			</g>
		</g>
		<g>
			<g>
				<path style="fill:#FFFFFF;" d="M191.762,263.543c25.767,0,51.532,0,77.299,0c6.448,0,6.448-10,0-10c-25.767,0-51.532,0-77.299,0
					C185.313,253.543,185.313,263.543,191.762,263.543L191.762,263.543z"/>
			</g>
		</g>
	</g>
	<g id="Klemmbrett_x5F_orig" style="display:none;">
		<g style="display:inline;">
			<g>
				<path style="fill:#FFFFFF;" d="M216.333,272.656c-0.341,4.222-4.718,3.504-7.686,3.504c-4.679,0-9.357,0-14.036,0
					c-15.012,0-30.023,0-45.034,0c-15.273,0-30.547,0-45.82,0c-5.006,0-10.013,0-15.019,0c-1.941,0-4.904,0.529-6.787-0.267
					c-2.627-1.11-2.119-4.303-2.119-6.583c0-3.646,0-7.293,0-10.94c0-12.723,0-25.446,0-38.17c0-31.557,0-63.114,0-94.67
					c0-9.914,0-19.827,0-29.741c0-1.539,0-3.079,0-4.618c0-4.136,4.579-3.511,7.311-3.511c27.651,0,55.302,0,82.953,0
					c12.297,0,24.595,0,36.892,0c1.947,0,3.894,0,5.84,0c3.908,0,3.504,3.946,3.504,6.561c0,24.1,0,48.199,0,72.299
					C216.333,201.898,216.333,237.277,216.333,272.656c0,6.448,10,6.448,10,0c0-49.834,0-99.667,0-149.501
					c0-9.448,0-18.896,0-28.344c0-2.041,0.201-4.364-0.29-6.356c-1.71-6.945-7.449-10.795-14.403-10.795c-25.64,0-51.279,0-76.918,0
					c-13.649,0-27.298,0-40.947,0c-3.212,0-6.424,0-9.635,0c-8.07,0-13.667,5.588-14.306,13.504c-0.425,5.271,0,10.752,0,16.034
					c0,13.061,0,26.121,0,39.182c0,31.429,0,62.857,0,94.286c0,9.448,0,18.896,0,28.344c0,2.04-0.201,4.363,0.29,6.356
					c1.71,6.944,7.449,10.795,14.403,10.795c25.64,0,51.279,0,76.918,0c13.649,0,27.298,0,40.947,0c3.212,0,6.424,0,9.636,0
					c8.069,0,13.667-5.588,14.306-13.504C226.853,266.225,216.848,266.274,216.333,272.656z"/>
			</g>
		</g>
		<g style="display:inline;">
			<g>
				<path style="fill:#FFFFFF;" d="M107.333,73.167c27.167,0,54.333,0,81.5,0c1.935,0,1.935-3,0-3c-27.167,0-54.333,0-81.5,0
					C105.398,70.167,105.398,73.167,107.333,73.167L107.333,73.167z"/>
			</g>
		</g>
		<path style="display:inline;fill:#FFFFFF;" d="M191.458,92.998c0,3.131-2.394,5.669-5.346,5.669h-76.059
			c-2.953,0-5.346-2.538-5.346-5.669V80.836c0-3.131,2.393-5.669,5.346-5.669h76.059c2.952,0,5.346,2.538,5.346,5.669V92.998z"/>
	</g>
	<g id="Klemmbrett_1_">
		<g>
			<g>
				<path style="fill:#FFFFFF;" d="M172.167,276.16c-24.858,0-49.717,0-74.575,0c-4.369,0-8.737,0-13.106,0
					c-2.892,0-4.652-1.625-4.652-4.525c0-7.603,0-15.206,0-22.81c0-52.267,0-104.534,0-156.801c0-6.351,10.297-4.364,14.521-4.364
					c13.782,0,27.563,0,41.346,0c25.381,0,50.762,0,76.143,0c3.201,0,4.49,2.085,4.49,5.073c0,5.286,0,10.571,0,15.856
					c0,10.693,0,21.385,0,32.078c0,6.449,10,6.449,10,0c0-12.223,0-24.446,0-36.669c0-4.278,0-8.556,0-12.834
					c0-7.945-6.703-13.504-14.306-13.504c-25.115,0-50.231,0-75.346,0c-13.911,0-27.822,0-41.733,0
					c-9.712,0-21.792-1.524-24.825,10.795c-1.331,5.403-0.29,12.104-0.29,17.567c0,12.838,0,25.675,0,38.513
					c0,31.518,0,63.036,0,94.553c0,9.76,0,19.521,0,29.28c0,1.429,0,2.858,0,4.287c0,8.208,6.938,13.504,14.652,13.504
					c29.227,0,58.454,0,87.681,0C178.615,286.16,178.615,276.16,172.167,276.16L172.167,276.16z"/>
			</g>
		</g>
		<g>
			<g>
				<path style="fill:#FFFFFF;" d="M107.333,73.167c27.167,0,54.333,0,81.5,0c1.935,0,1.935-3,0-3c-27.167,0-54.333,0-81.5,0
					C105.398,70.167,105.398,73.167,107.333,73.167L107.333,73.167z"/>
			</g>
		</g>
		<path style="fill:#FFFFFF;" d="M191.458,92.998c0,3.131-2.394,5.669-5.346,5.669h-76.059c-2.953,0-5.346-2.538-5.346-5.669V80.836
			c0-3.131,2.393-5.669,5.346-5.669h76.059c2.952,0,5.346,2.538,5.346,5.669V92.998z"/>
	</g>
</g>
<g id="Ebene_1">
</g>
</svg>
