<?xml version="1.0" encoding="iso-8859-1"?>
<!-- Generator: Adobe Illustrator 16.0.0, SVG Export Plug-In . SVG Version: 6.00 Build 0)  -->
<!DOCTYPE svg PUBLIC "-//W3C//DTD SVG 1.1//EN" "http://www.w3.org/Graphics/SVG/1.1/DTD/svg11.dtd">
<svg version="1.1" xmlns="http://www.w3.org/2000/svg" xmlns:xlink="http://www.w3.org/1999/xlink" x="0px" y="0px" width="361px"
	 height="361px" viewBox="0 0 361 361" style="enable-background:new 0 0 361 361;" xml:space="preserve">
<g id="edit_x5F_numeric_x5F_8">
	<g>
		<g>
			<path style="fill:#FFFFFF;" d="M282.091,248.793c-0.342,19.011-15.57,33.223-34.364,33.223c-9.349,0-18.696,0-28.045,0
				c-30.382,0-60.764,0-91.146,0c-8.193,0-17.079,0.821-25.046-1.37c-15.908-4.376-23.746-19.357-23.746-34.84
				c0-26.94,0-53.881,0-80.822c0-13.63,0-27.261,0-40.891c0-10.286-0.432-19.816,5.218-29.091
				c5.9-9.688,16.872-15.134,28.005-15.334c1.873-0.034,3.75,0,5.623,0c11.993,0,23.985,0,35.978,0c28.948,0,57.895,0,86.843,0
				c2.435,0,4.869,0,7.304,0c9.692,0,18.423,4.118,24.992,11.149c8.259,8.838,8.384,19.892,8.384,31.057
				C282.091,164.179,282.091,206.486,282.091,248.793c0,6.448,10,6.448,10,0c0-45.25,0-90.499,0-135.749
				c0-21.074-15.582-39.412-36.368-42.802c-7.717-1.259-15.997-0.575-23.774-0.575c-30.484,0-60.969,0-91.454,0
				c-8.919,0-17.838,0-26.757,0c-19.139,0-35.525,11.826-41.866,29.812c-2.981,8.458-2.127,18.187-2.127,27.037
				c0,14.13,0,28.26,0,42.39c0,26.019,0,52.037,0,78.056c0,17.04,8.363,32.442,23.721,40.403c9.584,4.968,19.753,4.651,30.13,4.651
				c29.716,0,59.432,0,89.148,0c10.936,0,21.872,0,32.808,0c15.528,0,28.915-5.53,38.481-18.126
				c5.414-7.128,7.898-16.254,8.058-25.097C292.207,242.341,282.207,242.352,282.091,248.793z"/>
		</g>
	</g>
	<g>
		<path style="fill:#FFFFFF;" d="M180.873,259.723c-7.188,0-13.678-1.024-19.47-3.072c-5.795-2.049-10.78-4.938-14.96-8.67
			c-4.18-3.733-7.408-8.123-9.68-13.173c-2.276-5.05-3.41-10.577-3.41-16.579c0-5.121,0.729-9.766,2.193-13.939
			c1.461-4.169,3.4-7.902,5.813-11.195s5.191-6.219,8.336-8.783c3.142-2.561,6.469-4.792,9.982-6.696
			c-8.896-4.514-14.96-9.776-18.184-15.792c-3.228-6.012-4.84-12.54-4.84-19.58c0-6.304,1.1-12.024,3.3-17.16
			c2.2-5.132,5.242-9.495,9.13-13.09c3.884-3.592,8.542-6.38,13.97-8.36c5.424-1.98,11.364-2.97,17.82-2.97
			c7.625,0,14.225,1.141,19.8,3.417c5.572,2.276,10.154,5.249,13.75,8.92c3.593,3.671,6.232,7.858,7.92,12.557
			c1.685,4.699,2.53,9.542,2.53,14.534c0,4.847-0.736,9.292-2.203,13.331c-1.472,4.039-3.379,7.71-5.73,11.014
			c-2.352,3.303-4.995,6.205-7.931,8.7c-2.938,2.496-5.802,4.627-8.594,6.387c10.292,4.335,17.528,9.8,21.708,16.4
			s6.27,13.567,6.27,20.899c0,6.309-1.137,12.101-3.41,17.381c-2.275,5.279-5.465,9.789-9.569,13.529
			c-4.108,3.74-9.096,6.676-14.96,8.801C194.585,258.657,188.058,259.723,180.873,259.723z M213.213,218.143
			c0-6.305-1.21-11.439-3.63-15.4c-2.42-3.959-5.575-7.184-9.46-9.676c-3.888-2.492-8.299-4.451-13.228-5.879
			c-4.933-1.426-9.876-2.979-14.833-4.664c-7.48,3.52-13.269,8.25-17.373,14.187c-4.104,5.94-6.156,13.087-6.156,21.443
			c0,4.104,0.66,7.917,1.98,11.437c1.32,3.52,3.334,6.597,6.05,9.236c2.712,2.641,6.084,4.727,10.12,6.267
			c4.032,1.54,8.762,2.31,14.19,2.31c5.424,0,10.154-0.77,14.189-2.31c4.033-1.54,7.404-3.63,10.121-6.271
			c2.711-2.64,4.729-5.719,6.049-9.239C212.553,226.063,213.213,222.25,213.213,218.143z M151.613,140.717
			c0,4.111,0.475,7.851,1.43,11.227c0.952,3.376,2.75,6.418,5.39,9.134c2.64,2.715,6.297,5.221,10.979,7.521
			c4.678,2.3,10.835,4.469,18.469,6.504c6.755-3.816,12.114-8.515,16.081-14.097c3.967-5.579,5.95-12.554,5.95-20.928
			c0-3.375-0.55-6.679-1.649-9.91c-1.101-3.231-2.789-6.129-5.061-8.7c-2.275-2.571-5.246-4.627-8.91-6.17
			c-3.668-1.54-8.141-2.313-13.42-2.313c-4.84,0-9.096,0.735-12.76,2.204c-3.667,1.468-6.71,3.485-9.13,6.053
			s-4.255,5.538-5.5,8.914C152.235,133.529,151.613,137.049,151.613,140.717z"/>
	</g>
</g>
<g id="Ebene_1">
</g>
</svg>
