<?xml version="1.0" encoding="iso-8859-1"?>
<!-- Generator: Adobe Illustrator 16.0.0, SVG Export Plug-In . SVG Version: 6.00 Build 0)  -->
<!DOCTYPE svg PUBLIC "-//W3C//DTD SVG 1.1//EN" "http://www.w3.org/Graphics/SVG/1.1/DTD/svg11.dtd">
<svg version="1.1" xmlns="http://www.w3.org/2000/svg" xmlns:xlink="http://www.w3.org/1999/xlink" x="0px" y="0px" width="361px"
	 height="361px" viewBox="0 0 361 361" style="enable-background:new 0 0 361 361;" xml:space="preserve">
<g id="edit_x5F_numeric_x5F_3">
	<g>
		<g>
			<path style="fill:#FFFFFF;" d="M282.091,248.793c-0.342,19.011-15.57,33.223-34.364,33.223c-9.349,0-18.696,0-28.045,0
				c-30.382,0-60.764,0-91.146,0c-8.193,0-17.079,0.821-25.046-1.37c-15.908-4.376-23.746-19.357-23.746-34.84
				c0-26.94,0-53.881,0-80.822c0-13.63,0-27.261,0-40.891c0-10.286-0.432-19.816,5.218-29.091
				c5.9-9.688,16.872-15.134,28.005-15.334c1.873-0.034,3.75,0,5.623,0c11.993,0,23.985,0,35.978,0c28.948,0,57.895,0,86.843,0
				c2.435,0,4.869,0,7.304,0c9.692,0,18.423,4.118,24.992,11.149c8.259,8.838,8.384,19.892,8.384,31.057
				C282.091,164.179,282.091,206.486,282.091,248.793c0,6.448,10,6.448,10,0c0-45.25,0-90.499,0-135.749
				c0-21.074-15.582-39.412-36.368-42.802c-7.717-1.259-15.997-0.575-23.774-0.575c-30.484,0-60.969,0-91.454,0
				c-8.919,0-17.838,0-26.757,0c-19.139,0-35.525,11.826-41.866,29.812c-2.981,8.458-2.127,18.187-2.127,27.037
				c0,14.13,0,28.26,0,42.39c0,26.019,0,52.037,0,78.056c0,17.04,8.363,32.442,23.721,40.403c9.584,4.968,19.753,4.651,30.13,4.651
				c29.716,0,59.432,0,89.148,0c10.936,0,21.872,0,32.808,0c15.528,0,28.915-5.53,38.481-18.126
				c5.414-7.128,7.898-16.254,8.058-25.097C292.207,242.341,282.207,242.352,282.091,248.793z"/>
		</g>
	</g>
	<g>
		<path style="fill:#FFFFFF;" d="M170.533,246.523c13.932,0,23.904-2.905,29.92-8.719c6.012-5.813,9.02-13.649,9.02-23.508
			c0-6.477-1.209-11.846-3.63-16.115c-2.42-4.266-5.72-7.687-9.899-10.265c-4.18-2.575-9.021-4.414-14.521-5.517
			c-5.5-1.104-11.33-1.658-17.49-1.658h-2.2v-11.88h5.06c3.96,0,8.03-0.399,12.21-1.203c4.181-0.804,7.992-2.3,11.44-4.493
			c3.443-2.193,6.305-5.115,8.58-8.766c2.271-3.651,3.41-8.326,3.41-14.025c0-4.819-0.809-8.944-2.42-12.378
			c-1.616-3.431-3.778-6.17-6.49-8.216c-2.716-2.045-5.868-3.544-9.461-4.493c-3.595-0.949-7.37-1.427-11.33-1.427
			c-7.92,0-14.08,1.1-18.48,3.3c-4.4,2.2-7.996,4.255-10.78,6.16l-6.16-11.22c1.464-1.024,3.334-2.2,5.61-3.52
			c2.272-1.32,4.95-2.564,8.03-3.74c3.08-1.172,6.49-2.162,10.23-2.97c3.74-0.805,7.81-1.21,12.21-1.21
			c7.625,0,14.19,0.952,19.69,2.856s10.082,4.575,13.75,8.016c3.665,3.444,6.38,7.545,8.14,12.303
			c1.76,4.761,2.641,9.924,2.641,15.486c0,8.934-2.386,16.222-7.15,21.859c-4.768,5.637-10.89,9.701-18.37,12.189
			c4.104,1.031,8.103,2.609,11.99,4.737c3.884,2.131,7.37,4.847,10.45,8.15c3.08,3.307,5.572,7.309,7.48,12.008
			c1.904,4.699,2.859,10.205,2.859,16.517c0,6.463-1.138,12.413-3.41,17.845c-2.275,5.434-5.647,10.171-10.12,14.207
			c-4.476,4.039-10.157,7.197-17.05,9.474c-6.896,2.272-14.96,3.413-24.2,3.413c-4.84,0-9.277-0.33-13.31-0.99
			c-4.036-0.66-7.59-1.43-10.67-2.31c-3.08-0.88-5.686-1.76-7.81-2.64c-2.128-0.881-3.706-1.612-4.73-2.2l3.74-12.761
			c0.88,0.588,2.344,1.32,4.4,2.201c2.052,0.879,4.51,1.725,7.37,2.529c2.86,0.809,6.084,1.506,9.68,2.09
			C162.355,246.23,166.277,246.523,170.533,246.523z"/>
	</g>
</g>
<g id="Ebene_1">
</g>
</svg>
