<?xml version="1.0" encoding="iso-8859-1"?>
<!-- Generator: Adobe Illustrator 16.0.0, SVG Export Plug-In . SVG Version: 6.00 Build 0)  -->
<!DOCTYPE svg PUBLIC "-//W3C//DTD SVG 1.1//EN" "http://www.w3.org/Graphics/SVG/1.1/DTD/svg11.dtd">
<svg version="1.1" xmlns="http://www.w3.org/2000/svg" xmlns:xlink="http://www.w3.org/1999/xlink" x="0px" y="0px" width="361px"
	 height="361px" viewBox="0 0 361 361" style="enable-background:new 0 0 361 361;" xml:space="preserve">
<g id="edit_x5F_cut">
	<g style="display:none;">
		<path style="display:inline;fill:none;stroke:#FFFFFF;stroke-width:10;stroke-miterlimit:10;" d="M239.098,81.282
			c0-3.562-2.887-6.449-6.447-6.449H81.125c-3.562,0-6.449,2.887-6.449,6.449v198.272c0,3.561,2.887,6.447,6.449,6.447H232.65
			c3.561,0,6.447-2.887,6.447-6.447V81.282z"/>
		<g style="display:inline;">
			<g>
				<path style="fill:#FFFFFF;" d="M99.637,111.333c38.167,0,76.333,0,114.5,0c6.448,0,6.448-10,0-10c-38.167,0-76.333,0-114.5,0
					C93.188,101.333,93.188,111.333,99.637,111.333L99.637,111.333z"/>
			</g>
		</g>
		<g style="display:inline;">
			<g>
				<path style="fill:#FFFFFF;" d="M99.637,166.534c38.167,0,76.333,0,114.5,0c6.448,0,6.448-10,0-10c-38.167,0-76.333,0-114.5,0
					C93.188,156.534,93.188,166.534,99.637,166.534L99.637,166.534z"/>
			</g>
		</g>
		<g style="display:inline;">
			<g>
				<path style="fill:#FFFFFF;" d="M99.637,138.934c38.167,0,76.333,0,114.5,0c6.448,0,6.448-10,0-10c-38.167,0-76.333,0-114.5,0
					C93.188,128.934,93.188,138.934,99.637,138.934L99.637,138.934z"/>
			</g>
		</g>
		<g style="display:inline;">
			<g>
				<path style="fill:#FFFFFF;" d="M99.637,194.133c38.167,0,76.333,0,114.5,0c6.448,0,6.448-10,0-10c-38.167,0-76.333,0-114.5,0
					C93.188,184.133,93.188,194.133,99.637,194.133L99.637,194.133z"/>
			</g>
		</g>
		<g style="display:inline;">
			<g>
				<path style="fill:#FFFFFF;" d="M100.304,221.733c37.722,0,75.445,0,113.167,0c6.448,0,6.448-10,0-10
					c-37.722,0-75.445,0-113.167,0C93.855,211.733,93.855,221.733,100.304,221.733L100.304,221.733z"/>
			</g>
		</g>
		<g style="display:inline;">
			<g>
				<path style="fill:#FFFFFF;" d="M100.471,249.334c37.611,0,75.222,0,112.833,0c6.448,0,6.448-10,0-10
					c-37.611,0-75.222,0-112.833,0C94.022,239.334,94.022,249.334,100.471,249.334L100.471,249.334z"/>
			</g>
		</g>
	</g>
	<g>
		<g>
			<g>
				<path style="fill:#FFFFFF;" d="M159.011,276.005c-2.313,6.882-5.578,4.969-11.733,4.521c-3.105-0.225-6.21-0.45-9.316-0.676
					c-0.334-0.024-0.669-0.049-1.004-0.073c3.335,0.242,0.942,1.322,1.606-0.883c0.163-0.54,0.325-1.08,0.488-1.62
					c1.784-5.925,3.567-11.851,5.351-17.775c1.239-4.115,2.043-8.99,3.838-12.871c1.394-3.013,4.739-5.743,7.501-7.441
					c0.013-0.008-0.482-0.035,0.454-0.03c1.487,0.007,2.974,0.015,4.46,0.021c3.116,0.016,6.232,0.031,9.348,0.046
					c1.543,0.008-0.578,0.197-1.113-0.525c0.466,0.63-0.094,2.119-0.025,2.702c0.006,0.048-0.004,0.1-0.01,0.146
					c0.281-2.595-0.032-0.184-0.182,0.474c-0.423,1.852-0.918,3.688-1.411,5.521C164.703,257.082,161.849,266.545,159.011,276.005
					c-1.857,6.192,7.795,8.819,9.643,2.658c2.963-9.878,5.938-19.761,8.592-29.728c0.65-2.442,1.4-4.939,1.619-7.472
					c0.273-3.161-0.073-6.103-2.011-8.722c-2.478-3.346-5.769-3.513-9.513-3.531c-6.659-0.033-13.382-1.287-18.976,2.949
					c-5.397,4.086-8.8,8.722-10.716,15.084c-2.157,7.165-4.314,14.33-6.471,21.494c-1.637,5.438-5.288,14.07,0.348,18.531
					c5.157,4.082,13.704,3.108,19.986,3.564c0.429,0.031,3.328,0.385,1.446,0.069c1.958,0.328,3.813,0.241,5.732-0.301
					c5.472-1.546,8.295-6.972,9.964-11.939C170.714,272.533,161.054,269.925,159.011,276.005z"/>
			</g>
		</g>
		<g>
			<g>
				<path style="fill:#FFFFFF;" d="M177.958,244.348c4.387-12.322,11.444-22.812,20.371-32.277
					c4.347-4.607,11.299-9.85,11.61-16.746c0.147-3.259-3.82-4.353-5.975-2.475c-0.036,0.03-0.071,0.062-0.106,0.093
					c1.991,0.824,3.983,1.649,5.975,2.475c-0.327-21.878-0.655-43.756-0.982-65.634c-0.192-12.842-0.385-25.684-0.577-38.526
					c-0.039-2.648-0.079-5.296-0.119-7.944c-0.112-7.517-7.438-12.654-14.321-13.479c-2.065-0.248-3.28,1.795-3.5,3.5
					c-1.17,9.083-1.359,18.349-1.873,27.486c-0.877,15.589-1.755,31.178-2.632,46.768c-0.725,12.875-1.449,25.751-2.174,38.627
					c-0.607,10.789-2.619,21.152-7.147,31.09c-2.302,5.052-6.34,13.063-12.769,13.326c-4.498,0.184-4.516,7.185,0,7
					c16.529-0.675,22.99-24.875,25.565-37.805c1.525-7.664,1.473-15.756,1.91-23.534c1.625-28.884,3.251-57.769,4.876-86.653
					c0.307-5.445,0.547-10.892,1.244-16.305c-1.167,1.167-2.333,2.333-3.5,3.5c9.827,1.179,7.422,13.188,7.524,19.993
					c0.193,12.968,0.388,25.937,0.582,38.904c0.298,19.896,0.596,39.791,0.894,59.687c0.048,3.192,3.712,4.447,5.975,2.475
					c0.036-0.03,0.071-0.062,0.106-0.093c-1.991-0.824-3.983-1.649-5.975-2.475c-0.088,1.947-2.177,3.964-3.453,5.388
					c-2.902,3.237-6.033,6.265-8.954,9.487c-8.569,9.457-15.043,20.264-19.324,32.287
					C169.69,246.75,176.455,248.568,177.958,244.348L177.958,244.348z"/>
			</g>
		</g>
	</g>
	<g>
		<g>
			<g>
				<path style="fill:#FFFFFF;" d="M221.783,269.732c3.362,3.888,7.553,6.993,12.906,6.855c2.857-0.074,5.278-1.592,7.762-2.813
					c4.767-2.342,15.222-5.151,16.76-11.104c1.861-7.205-3.178-12.076-7.279-17.183c-4.687-5.833-9.372-11.666-14.058-17.5
					c-4.081-5.079-9.157-7.888-15.529-9.608c-1.921-0.519-3.902-0.73-5.867-0.423c-0.567,0.089-2.89,1.056-1.021,0.289
					c-0.351,0.145-0.701,0.288-1.052,0.433c-3.527,1.446-7.055,2.894-10.581,4.341c-3.031,1.243-6.246,2.542-7.168,6.113
					c-0.977,3.779,0.021,6.794,1.596,10.097c0.969,2.031,2.684,3.883,4.021,5.661C208.597,253.307,215.198,261.52,221.783,269.732
					c4.034,5.032,11.063-2.092,7.07-7.07c-7.314-9.125-15.825-18.202-21.865-28.292c-0.041-0.068-0.08-0.139-0.114-0.211
					c4.376,9.177,0.588,1.52,0.489,1.158c-0.682-2.491-0.717-2.722-3.18-1.711c2.475-1.016,4.949-2.031,7.425-3.047
					c2.194-0.9,4.39-1.801,6.584-2.701c3.333-1.367-0.484-0.219,0.567-0.042c0.996,0.168,1.97,0.491,2.931,0.789
					c2.017,0.625,3.894,1.555,5.701,2.633c3.145,1.876,5.674,6.64,7.899,9.409c4.127,5.138,8.254,10.275,12.381,15.413
					c0.911,1.134,1.919,3.091,2.828,2.644c-2.222,1.093-4.444,2.185-6.667,3.277c-2.642,1.299-5.283,2.597-7.926,3.896
					c-3.104,1.525-4.913-0.74-7.054-3.215C224.628,257.776,217.586,264.881,221.783,269.732z"/>
			</g>
		</g>
		<g>
			<g>
				<path style="fill:#FFFFFF;" d="M205.109,236.311c-8.385-9.421-18.359-16.764-29.661-22.307
					c-3.682-1.806-7.477-3.369-11.187-5.113c-2.204-1.036-5.083-2.167-6.17-4.511c-1.317,1.714-2.635,3.428-3.953,5.142
					c0.044,0.016,0.089,0.03,0.133,0.046c2.385,0.821,5.255-1.853,4.306-4.306c-7.184-18.556-14.368-37.111-21.551-55.667
					c-4.683-12.095-9.365-24.19-14.047-36.285c-2.674-6.906-9.338-16.922-0.196-21.959c-1.596-0.418-3.192-0.837-4.789-1.255
					c4.49,7.982,8.139,16.501,12.041,24.778c6.659,14.123,13.317,28.246,19.976,42.369c10.027,21.267,18.311,45.342,35.305,62.225
					c6.179,6.139,15.589,13.296,24.82,10.018c4.223-1.5,2.403-8.265-1.861-6.75c-8.065,2.864-16.449-6.363-21.27-11.609
					c-4.929-5.365-9.271-11.436-12.381-18.031c-3.678-7.801-7.355-15.601-11.034-23.402c-11.57-24.541-23.141-49.081-34.71-73.621
					c-1.518-3.219-3.096-6.405-4.842-9.508c-0.952-1.692-3.14-2.164-4.789-1.255c-5.645,3.11-10.413,10.771-7.9,17.261
					c0.956,2.47,1.912,4.939,2.868,7.409c4.637,11.977,9.274,23.955,13.911,35.932c7.899,20.404,15.799,40.809,23.699,61.214
					c1.435-1.436,2.87-2.87,4.306-4.306c-0.044-0.016-0.089-0.03-0.133-0.046c-3.186-1.097-5.127,2.606-3.953,5.142
					c2.74,5.914,11.338,8.206,16.743,10.665c12.024,5.471,22.555,12.779,31.37,22.682C203.167,244.639,208.1,239.67,205.109,236.311
					L205.109,236.311z"/>
			</g>
		</g>
	</g>
</g>
<g id="Ebene_1">
</g>
</svg>
