<?xml version="1.0" encoding="iso-8859-1"?>
<!-- Generator: Adobe Illustrator 16.0.3, SVG Export Plug-In . SVG Version: 6.00 Build 0)  -->
<!DOCTYPE svg PUBLIC "-//W3C//DTD SVG 1.1//EN" "http://www.w3.org/Graphics/SVG/1.1/DTD/svg11.dtd">
<svg version="1.1" xmlns="http://www.w3.org/2000/svg" xmlns:xlink="http://www.w3.org/1999/xlink" x="0px" y="0px" width="361px"
	 height="361px" viewBox="0 0 361 361" style="enable-background:new 0 0 361 361;" xml:space="preserve">
<g id="fts_x5F_blade_x5F_arc_x5F_-50">
	<g>
		<g>
			<g>
				<path style="fill:#FFFFFF;" d="M133.116,172.048c45.177,15.064,78.671,55.181,84.832,102.527c0.819,6.302,10.83,6.382,10,0
					c-6.767-52.007-42.342-95.554-92.173-112.17C129.639,160.359,127.03,170.019,133.116,172.048L133.116,172.048z"/>
			</g>
		</g>
		<g>
			<g>
				<path style="fill:#FFFFFF;" d="M138.137,163.696c-0.805-0.287-1.611-0.574-2.417-0.861c-1.329-0.474-3.019-0.144-4.203,0.55
					c-1.219,0.714-2.131,1.896-2.506,3.26c-0.387,1.408-0.188,2.943,0.55,4.203c0.758,1.293,1.882,2.015,3.26,2.506
					c0.805,0.287,1.611,0.574,2.417,0.861c1.329,0.474,3.019,0.144,4.203-0.55c1.219-0.714,2.131-1.896,2.506-3.26
					c0.387-1.408,0.188-2.943-0.55-4.203C140.639,164.909,139.515,164.187,138.137,163.696L138.137,163.696z"/>
			</g>
		</g>
		<g>
			<g>
				<path style="fill:#FFFFFF;" d="M227.439,273.102c-0.192-0.832-0.385-1.664-0.578-2.497c-0.67-2.896-3.934-4.572-6.709-3.809
					c-1.363,0.375-2.545,1.287-3.259,2.506c-0.763,1.302-0.886,2.754-0.55,4.203c0.192,0.832,0.385,1.664,0.578,2.497
					c0.67,2.896,3.934,4.572,6.709,3.809c1.363-0.375,2.545-1.287,3.259-2.506C227.652,276.003,227.775,274.551,227.439,273.102
					L227.439,273.102z"/>
			</g>
		</g>
	</g>
	<g>
		<g>
			<path style="fill:#FFFFFF;" d="M178.833,71.667c0,5.416,0,10.832,0,16.248c0,1.935,3,1.935,3,0c0-5.416,0-10.832,0-16.248
				C181.833,69.732,178.833,69.732,178.833,71.667L178.833,71.667z"/>
		</g>
	</g>
	<g>
		<g>
			<path style="fill:#FFFFFF;" d="M179,142.989c0,7.612,0,15.225,0,22.837c0,1.935,3,1.935,3,0c0-7.612,0-15.225,0-22.837
				C182,141.055,179,141.055,179,142.989L179,142.989z"/>
		</g>
	</g>
	<g>
		<g>
			<path style="fill:#FFFFFF;" d="M179,217.986c0,23.894,0,47.787,0,71.681c0,1.935,3,1.935,3,0c0-23.894,0-47.787,0-71.681
				C182,216.052,179,216.052,179,217.986L179,217.986z"/>
		</g>
	</g>
	<g>
		<g>
			<path style="fill:#FFFFFF;" d="M179,134c0,7.612,0,15.225,0,22.837c0,1.935,3,1.935,3,0c0-7.612,0-15.225,0-22.837
				C182,132.066,179,132.066,179,134L179,134z"/>
		</g>
	</g>
	<g>
		<g>
			<g>
				<path style="fill:#FFFFFF;" d="M131.908,91.809c45.177,15.063,78.67,55.181,84.833,102.525c0.82,6.301,10.83,6.381,10,0
					c-6.769-52.005-42.343-95.553-92.174-112.168C128.431,80.12,125.822,89.78,131.908,91.809L131.908,91.809z"/>
			</g>
		</g>
		<g>
			<g>
				<path style="fill:#FFFFFF;" d="M136.928,83.455c-0.805-0.287-1.611-0.573-2.417-0.859c-1.33-0.473-3.018-0.144-4.203,0.55
					c-1.219,0.714-2.131,1.896-2.506,3.26c-0.387,1.408-0.188,2.943,0.55,4.203c0.757,1.292,1.882,2.016,3.26,2.506
					c0.805,0.287,1.611,0.573,2.417,0.859c1.33,0.473,3.018,0.144,4.203-0.55c1.219-0.714,2.131-1.896,2.506-3.26
					c0.387-1.408,0.188-2.943-0.55-4.203C139.431,84.668,138.306,83.945,136.928,83.455L136.928,83.455z"/>
			</g>
		</g>
		<g>
			<g>
				<path style="fill:#FFFFFF;" d="M226.231,192.862c-0.192-0.832-0.385-1.664-0.578-2.497c-0.67-2.896-3.934-4.572-6.709-3.809
					c-1.363,0.375-2.545,1.287-3.259,2.506c-0.763,1.302-0.886,2.754-0.55,4.203c0.192,0.832,0.385,1.664,0.578,2.497
					c0.67,2.896,3.934,4.572,6.709,3.809c1.363-0.375,2.545-1.287,3.259-2.506C226.444,195.764,226.567,194.312,226.231,192.862
					L226.231,192.862z"/>
			</g>
		</g>
	</g>
</g>
<g id="Ebene_1">
</g>
</svg>
