<?xml version="1.0" encoding="iso-8859-1"?>
<!-- Generator: Adobe Illustrator 16.0.0, SVG Export Plug-In . SVG Version: 6.00 Build 0)  -->
<!DOCTYPE svg PUBLIC "-//W3C//DTD SVG 1.1//EN" "http://www.w3.org/Graphics/SVG/1.1/DTD/svg11.dtd">
<svg version="1.1" xmlns="http://www.w3.org/2000/svg" xmlns:xlink="http://www.w3.org/1999/xlink" x="0px" y="0px" width="361px"
	 height="361px" viewBox="0 0 361 361" style="enable-background:new 0 0 361 361;" xml:space="preserve">
<g id="fts_x5F_blade_x5F_arc_x5F_30">
	<g>
		<g>
			<g>
				<path style="fill:#FFFFFF;" d="M118.011,240.914c33.909-34.556,84.542-46.609,130.416-31.201
					c6.131,2.06,8.738-7.601,2.658-9.643c-49.134-16.504-103.884-3.18-140.145,33.773
					C106.422,238.447,113.489,245.522,118.011,240.914L118.011,240.914z"/>
			</g>
		</g>
		<g>
			<g>
				<path style="fill:#FFFFFF;" d="M113.153,232.266c-0.611,0.599-1.221,1.197-1.832,1.796c-2.122,2.081-2.086,5.627,0,7.713
					c2.117,2.117,5.591,2.08,7.713,0c0.611-0.599,1.221-1.197,1.832-1.796c2.122-2.081,2.086-5.627,0-7.713
					C118.749,230.148,115.274,230.186,113.153,232.266L113.153,232.266z"/>
			</g>
		</g>
		<g>
			<g>
				<path style="fill:#FFFFFF;" d="M250.85,200.313c-0.833-0.192-1.666-0.385-2.499-0.576c-1.45-0.335-2.9-0.214-4.203,0.55
					c-1.219,0.714-2.131,1.896-2.506,3.259c-0.764,2.773,0.912,6.041,3.809,6.709c0.833,0.192,1.666,0.385,2.499,0.576
					c1.45,0.335,2.9,0.214,4.203-0.55c1.219-0.714,2.131-1.896,2.506-3.259C255.422,204.249,253.746,200.981,250.85,200.313
					L250.85,200.313z"/>
			</g>
		</g>
	</g>
	<g>
		<g>
			<path style="fill:#FFFFFF;" d="M178.833,71.667c0,5.416,0,10.832,0,16.248c0,1.935,3,1.935,3,0c0-5.416,0-10.832,0-16.248
				C181.833,69.732,178.833,69.732,178.833,71.667L178.833,71.667z"/>
		</g>
	</g>
	<g>
		<g>
			<path style="fill:#FFFFFF;" d="M179,142.989c0,7.612,0,15.225,0,22.837c0,1.935,3,1.935,3,0c0-7.612,0-15.225,0-22.837
				C182,141.055,179,141.055,179,142.989L179,142.989z"/>
		</g>
	</g>
	<g>
		<g>
			<path style="fill:#FFFFFF;" d="M179,217.986c0,23.894,0,47.787,0,71.681c0,1.935,3,1.935,3,0c0-23.894,0-47.787,0-71.681
				C182,216.052,179,216.052,179,217.986L179,217.986z"/>
		</g>
	</g>
	<g>
		<g>
			<g>
				<path style="fill:#FFFFFF;" d="M116.802,160.677c33.909-34.556,84.542-46.61,130.416-31.202c6.131,2.06,8.738-7.601,2.658-9.643
					c-49.134-16.504-103.884-3.179-140.145,33.773C105.213,158.21,112.28,165.286,116.802,160.677L116.802,160.677z"/>
			</g>
		</g>
		<g>
			<g>
				<path style="fill:#FFFFFF;" d="M111.944,152.028c-0.611,0.599-1.221,1.197-1.832,1.796c-2.122,2.081-2.086,5.627,0,7.713
					c2.117,2.117,5.591,2.081,7.713,0c0.611-0.599,1.221-1.197,1.832-1.796c2.122-2.081,2.086-5.627,0-7.713
					C117.54,149.912,114.065,149.948,111.944,152.028L111.944,152.028z"/>
			</g>
		</g>
		<g>
			<g>
				<path style="fill:#FFFFFF;" d="M249.641,120.076c-0.833-0.192-1.666-0.384-2.499-0.576c-1.45-0.334-2.9-0.213-4.203,0.55
					c-1.219,0.714-2.131,1.896-2.506,3.26c-0.764,2.773,0.912,6.041,3.809,6.709c0.833,0.192,1.666,0.384,2.499,0.576
					c1.45,0.334,2.9,0.213,4.203-0.55c1.219-0.714,2.131-1.896,2.506-3.26C254.213,124.011,252.537,120.744,249.641,120.076
					L249.641,120.076z"/>
			</g>
		</g>
	</g>
	<g>
		<g>
			<path style="fill:#FFFFFF;" d="M179,134c0,7.612,0,15.225,0,22.837c0,1.935,3,1.935,3,0c0-7.612,0-15.225,0-22.837
				C182,132.066,179,132.066,179,134L179,134z"/>
		</g>
	</g>
</g>
<g id="Ebene_1">
</g>
</svg>
