<?xml version="1.0" encoding="iso-8859-1"?>
<!-- Generator: Adobe Illustrator 16.0.0, SVG Export Plug-In . SVG Version: 6.00 Build 0)  -->
<!DOCTYPE svg PUBLIC "-//W3C//DTD SVG 1.1//EN" "http://www.w3.org/Graphics/SVG/1.1/DTD/svg11.dtd">
<svg version="1.1" xmlns="http://www.w3.org/2000/svg" xmlns:xlink="http://www.w3.org/1999/xlink" x="0px" y="0px" width="361px"
	 height="361px" viewBox="0 0 361 361" style="enable-background:new 0 0 361 361;" xml:space="preserve">
<g id="fts_x5F_shutter_x5F_vert_x5F_blade_x5F_100">
	<g id="Fenster_m_Rahmen_14_">
		<path id="Rahmen_14_" style="fill:none;stroke:#FFFFFF;stroke-width:10;stroke-miterlimit:10;" d="M279.5,248.734
			c0,3.645-2.955,6.6-6.6,6.6H88.1c-3.646,0-6.6-2.955-6.6-6.6V129.934c0-3.645,2.955-6.6,6.6-6.6h184.8c3.645,0,6.6,2.956,6.6,6.6
			V248.734z"/>
		<g id="Hebel_14_">
			<g>
				<path style="fill:#FFFFFF;" d="M174.945,194.178c3.935,0,7.87,0,11.805,0c6.448,0,6.448-10,0-10c-3.935,0-7.87,0-11.805,0
					C168.497,184.178,168.497,194.178,174.945,194.178L174.945,194.178z"/>
			</g>
		</g>
		
			<line id="Mittelsteg_14_" style="fill:none;stroke:#FFFFFF;stroke-width:10;stroke-miterlimit:10;" x1="180.719" y1="123.645" x2="180.719" y2="252.064"/>
		<path id="Sturz_14_" style="fill:#FFFFFF;stroke:#FFFFFF;stroke-width:10;stroke-miterlimit:10;" d="M286.666,124.713
			c0,0.509-3.164,0.922-7.066,0.922H81.733c-3.903,0-7.066-0.414-7.066-0.922V108.12c0-0.509,3.164-0.922,7.066-0.922H279.6
			c3.902,0,7.066,0.414,7.066,0.922V124.713z"/>
	</g>
	<g>
		
			<line id="_x31_0_16_" style="fill:none;stroke:#FFFFFF;stroke-width:15;stroke-miterlimit:10;" x1="98.112" y1="254.882" x2="98.115" y2="120.381"/>
		
			<line id="_x32_0_16_" style="fill:none;stroke:#FFFFFF;stroke-width:15;stroke-miterlimit:10;" x1="116.497" y1="254.882" x2="116.5" y2="120.381"/>
		
			<line id="_x33_0_16_" style="fill:none;stroke:#FFFFFF;stroke-width:15;stroke-miterlimit:10;" x1="134.883" y1="254.882" x2="134.886" y2="120.381"/>
		
			<line id="_x34_0_16_" style="fill:none;stroke:#FFFFFF;stroke-width:15;stroke-miterlimit:10;" x1="153.268" y1="254.882" x2="153.271" y2="120.381"/>
		
			<line id="_x35_0_16_" style="fill:none;stroke:#FFFFFF;stroke-width:15;stroke-miterlimit:10;" x1="171.653" y1="254.882" x2="171.656" y2="120.381"/>
		
			<line id="_x36_0_16_" style="fill:none;stroke:#FFFFFF;stroke-width:15;stroke-miterlimit:10;" x1="190.039" y1="254.882" x2="190.042" y2="120.381"/>
		
			<line id="_x37_0_16_" style="fill:none;stroke:#FFFFFF;stroke-width:15;stroke-miterlimit:10;" x1="208.424" y1="254.882" x2="208.428" y2="120.381"/>
		
			<line id="_x38_0_16_" style="fill:none;stroke:#FFFFFF;stroke-width:15;stroke-miterlimit:10;" x1="226.81" y1="254.882" x2="226.813" y2="120.381"/>
		
			<line id="_x39_0_16_" style="fill:none;stroke:#FFFFFF;stroke-width:15;stroke-miterlimit:10;" x1="245.195" y1="254.882" x2="245.198" y2="120.381"/>
		
			<line id="_x31_00_16_" style="fill:none;stroke:#FFFFFF;stroke-width:15;stroke-miterlimit:10;" x1="263.58" y1="254.882" x2="263.584" y2="120.381"/>
	</g>
</g>
<g id="Ebene_1">
</g>
</svg>
