<?xml version="1.0" encoding="iso-8859-1"?>
<!-- Generator: Adobe Illustrator 16.0.0, SVG Export Plug-In . SVG Version: 6.00 Build 0)  -->
<!DOCTYPE svg PUBLIC "-//W3C//DTD SVG 1.1 Tiny//EN" "http://www.w3.org/Graphics/SVG/1.1/DTD/svg11-tiny.dtd">
<svg version="1.1" baseProfile="tiny" id="fts_x5F_window_x5F_roof__x5F_open_x5F_1"
	 xmlns="http://www.w3.org/2000/svg" xmlns:xlink="http://www.w3.org/1999/xlink" x="0px" y="0px" width="361px" height="361px"
	 viewBox="0 0 361 361" xml:space="preserve">
<g id="Fenster_gerade_1_" display="none">
	<path display="inline" fill="none" stroke="#FFFFFF" stroke-width="10" stroke-miterlimit="10" d="M245.308,267.18
		c0,3.911-3.156,7.083-7.049,7.083l-117.885,0.021c-3.894,0-7.05-3.171-7.05-7.083V129.7c0-3.911,3.156-7.083,7.05-7.083
		l117.885-0.021c3.893,0,7.049,3.172,7.049,7.083V267.18z"/>
	<g display="inline">
		<path fill="#FFFFFF" d="M173.315,263.559c0,2.213,0,4.426,0,6.639c0,2.726,2.274,5,5,5s5-2.274,5-5c0-2.213,0-4.426,0-6.639
			c0-2.726-2.274-5-5-5S173.315,260.833,173.315,263.559L173.315,263.559z"/>
	</g>
	<path display="inline" fill="none" stroke="#FFFFFF" stroke-width="10" stroke-miterlimit="10" d="M245.308,127.086
		c0,2.485-2.71,4.5-6.052,4.5l-119.88,0.021c-3.342,0-6.052-2.015-6.052-4.5v-9c0-2.485,2.71-4.5,6.052-4.5l119.88-0.021
		c3.342,0,6.052,2.015,6.052,4.5V127.086z"/>
	<path display="inline" fill="none" stroke="#FFFFFF" stroke-width="10" stroke-miterlimit="10" d="M258.489,280.733
		c0,4.685-3.782,8.485-8.446,8.485l-141.235,0.024c-4.665,0-8.446-3.799-8.446-8.485V106.021c0-4.685,3.782-8.486,8.446-8.486
		l141.235-0.024c4.664,0,8.446,3.801,8.446,8.486V280.733z"/>
</g>
<g>
	<path fill="none" stroke="#FFFFFF" stroke-width="10" stroke-miterlimit="10" d="M180.255,244.048
		c-3.019,3.636-8.403,6.586-12.024,6.586l-91.039,0.019c-3.621,0-4.107-2.949-1.087-6.586l103.161-121.862
		c3.019-3.636,8.404-6.585,12.024-6.585l84.343-0.019l-14.589,31.144L180.255,244.048z"/>
	<g>
		<path fill="#FFFFFF" d="M126.518,237.145c-1.708,2.058-3.417,4.116-5.126,6.173c-1.739,2.095-2.059,5.012,0,7.071
			c1.793,1.793,5.328,2.099,7.071,0c1.708-2.058,3.417-4.116,5.126-6.173c1.739-2.095,2.059-5.012,0-7.071
			C131.796,235.352,128.261,235.045,126.518,237.145L126.518,237.145z"/>
	</g>
</g>
<g>
	<g>
		<path fill="none" stroke="#FFFFFF" stroke-width="10" stroke-miterlimit="10" d="M205.124,267.244
			c-2.092,4.487-7.41,8.124-11.875,8.124l-116.093,0.024c-4.467,0-6.391-3.638-4.299-8.125l78.017-167.31
			c2.092-4.486,7.411-8.125,11.876-8.125l116.094-0.023c4.465,0,6.389,3.639,4.298,8.125l-4.507,9.667l-16.977,36.406
			L205.124,267.244z"/>
		<polygon fill="#FFFFFF" points="275.394,107.162 147.727,107.162 156.508,89.893 284.175,89.893 		"/>
	</g>
	<rect x="73.592" y="265.688" fill="#FFFFFF" width="127.619" height="6.44"/>
</g>
</svg>
