<?xml version="1.0" encoding="iso-8859-1"?>
<!-- Generator: Adobe Illustrator 16.0.0, SVG Export Plug-In . SVG Version: 6.00 Build 0)  -->
<!DOCTYPE svg PUBLIC "-//W3C//DTD SVG 1.1//EN" "http://www.w3.org/Graphics/SVG/1.1/DTD/svg11.dtd">
<svg version="1.1" xmlns="http://www.w3.org/2000/svg" xmlns:xlink="http://www.w3.org/1999/xlink" x="0px" y="0px" width="361px"
	 height="361px" viewBox="0 0 361 361" style="enable-background:new 0 0 361 361;" xml:space="preserve">
<g id="fts_x5F_sliding_x5F_gate_x5F_l_x5F_open">
	<g>
		<g>
			<path style="fill:#FFFFFF;" d="M252.149,165.846c0,3.491,2.831,6.321,6.321,6.321h12.116c3.491,0,6.321-2.831,6.321-6.321
				v-11.589c0-3.491-2.83-6.321-6.321-6.321h-12.116c-3.49,0-6.321,2.83-6.321,6.321V165.846z"/>
			<path style="fill:#FFFFFF;" d="M138.367,165.846c0,3.491,2.831,6.321,6.321,6.321h12.116c3.491,0,6.321-2.831,6.321-6.321
				v-11.589c0-3.491-2.83-6.321-6.321-6.321h-12.116c-3.491,0-6.321,2.83-6.321,6.321V165.846z"/>
			<path style="fill:#FFFFFF;" d="M141.791,104.002v-0.664l5.007-19.54c0.488-7.432,8.013-13.655,14.21-13.655h93.9
				c6.197,0,13.721,6.223,14.209,13.655l5.007,19.54v0.664c0,8.084-4.939,14.417-11.245,14.417H153.036
				C146.73,118.418,141.791,112.086,141.791,104.002z M263.57,104.593l-4.963-19.368v-0.665c0-1.655-2.627-3.735-3.699-3.881
				l-93.813-0.004c-1.159,0.149-3.787,2.229-3.787,3.885v0.665l-4.963,19.368c0.115,1.777,0.732,2.894,1.09,3.29H262.48
				C262.838,107.487,263.454,106.371,263.57,104.593z"/>
			<path style="fill:#FFFFFF;" d="M133.802,118.42c0-3.086,2.928-5.589,6.538-5.589h135.123c3.61,0,6.538,2.502,6.538,5.589v29.194
				c0,3.085-2.928,5.589-6.538,5.589H140.34c-3.61,0-6.538-2.503-6.538-5.589V118.42z M247.146,130.168
				c0,2.735,2.83,4.953,6.321,4.953h18.174c3.491,0,6.321-2.217,6.321-4.953v-5.16c0-2.735-2.83-4.953-6.321-4.953h-18.174
				c-3.491,0-6.321,2.218-6.321,4.953V130.168z M138.104,130.168c0,2.735,2.831,4.953,6.321,4.953h18.174
				c3.491,0,6.321-2.217,6.321-4.953v-5.16c0-2.735-2.831-4.953-6.321-4.953h-18.174c-3.491,0-6.321,2.218-6.321,4.953V130.168z
				 M180.509,135.406c0,5.319,2.83,9.633,6.321,9.633h42.668c3.491,0,6.322-4.313,6.322-9.633v-6.02c0-5.32-2.831-9.633-6.322-9.633
				H186.83c-3.491,0-6.321,4.313-6.321,9.633V135.406z"/>
		</g>
		<rect x="173.397" y="122.65" style="fill:#FFFFFF;" width="69.534" height="10.536"/>
		<rect x="172.344" y="136.346" style="fill:#FFFFFF;" width="69.534" height="10.536"/>
	</g>
	<g>
		<g>
			<path style="fill:#FFFFFF;" d="M83.166,179.472c0,35.047,0,70.094,0,105.141c0,9.686,15.003,9.771,15.003,0.107
				c0-35.047,0-70.094,0-105.14C98.168,169.894,83.166,169.809,83.166,179.472L83.166,179.472z"/>
		</g>
	</g>
	<g>
		<g>
			<path style="fill:#FFFFFF;" d="M88.667,291.834c49.292,0,98.583,0,147.874,0c16.986,0,33.973,0,50.959,0c1.935,0,1.935-3,0-3
				c-49.291,0-98.583,0-147.874,0c-16.986,0-33.973,0-50.959,0C86.732,288.834,86.732,291.834,88.667,291.834L88.667,291.834z"/>
		</g>
	</g>
	<g>
		<g>
			<path style="fill:#FFFFFF;" d="M118.417,192.198c0,29.552,0,59.103,0,88.654c0,6.448,10,6.448,10,0c0-29.552,0-59.103,0-88.654
				C128.417,185.75,118.417,185.75,118.417,192.198L118.417,192.198z"/>
		</g>
	</g>
	<g>
		<g>
			<path style="fill:#FFFFFF;" d="M94.5,192.293c0,29.552,0,59.104,0,88.655c0,6.448,10,6.448,10,0c0-29.552,0-59.104,0-88.655
				C104.5,185.845,94.5,185.845,94.5,192.293L94.5,192.293z"/>
		</g>
	</g>
	<g>
		<g>
			<path style="fill:#FFFFFF;" d="M70.583,192.293c0,29.552,0,59.104,0,88.655c0,6.448,10,6.448,10,0c0-29.552,0-59.104,0-88.655
				C80.583,185.845,70.583,185.845,70.583,192.293L70.583,192.293z"/>
		</g>
	</g>
	<g>
		<g>
			<path style="fill:#FFFFFF;" d="M123.417,275.853c-16.139,0-32.278,0-48.417,0c-6.449,0-6.449,10,0,10c16.139,0,32.278,0,48.417,0
				C129.866,285.853,129.866,275.853,123.417,275.853L123.417,275.853z"/>
		</g>
	</g>
	<g>
		<g>
			<path style="fill:#FFFFFF;" d="M123.417,186.525c-16.139,0-32.278,0-48.417,0c-6.449,0-6.449,10,0,10c16.139,0,32.278,0,48.417,0
				C129.866,196.525,129.866,186.525,123.417,186.525L123.417,186.525z"/>
		</g>
	</g>
	<g>
		<g>
			<path style="fill:#FFFFFF;" d="M282.5,191.525c0,31.797,0,63.595,0,95.392c0,6.448,10,6.448,10,0c0-31.797,0-63.595,0-95.392
				C292.5,185.077,282.5,185.077,282.5,191.525L282.5,191.525z"/>
		</g>
	</g>
</g>
<g id="Ebene_1">
</g>
</svg>
