<?xml version="1.0" encoding="iso-8859-1"?>
<!-- Generator: Adobe Illustrator 16.0.3, SVG Export Plug-In . SVG Version: 6.00 Build 0)  -->
<!DOCTYPE svg PUBLIC "-//W3C//DTD SVG 1.1//EN" "http://www.w3.org/Graphics/SVG/1.1/DTD/svg11.dtd">
<svg version="1.1" xmlns="http://www.w3.org/2000/svg" xmlns:xlink="http://www.w3.org/1999/xlink" x="0px" y="0px" width="361px"
	 height="361px" viewBox="0 0 361 361" style="enable-background:new 0 0 361 361;" xml:space="preserve">
<g id="fts_x5F_shutter_x5F_attention">
	<path style="fill:none;stroke:#FFFFFF;stroke-width:10;stroke-miterlimit:10;" d="M239.016,187.987c0,2.916-2.363,5.28-5.279,5.28
		H85.896c-2.917,0-5.28-2.364-5.28-5.28v-95.04c0-2.916,2.364-5.28,5.28-5.28h147.84c2.916,0,5.279,2.364,5.279,5.28V187.987z"/>
	<g>
		<g>
			<path style="fill:#FFFFFF;" d="M155.373,145.343c3.148,0,6.296,0,9.444,0c6.449,0,6.449-10,0-10c-3.148,0-6.296,0-9.444,0
				C148.924,135.343,148.924,145.343,155.373,145.343L155.373,145.343z"/>
		</g>
	</g>
	
		<line style="fill:none;stroke:#FFFFFF;stroke-width:10;stroke-miterlimit:10;" x1="159.992" y1="87.917" x2="159.992" y2="190.652"/>
	<path style="fill:#FFFFFF;stroke:#FFFFFF;stroke-width:10;stroke-miterlimit:10;" d="M244.749,88.771
		c0,0.407-2.53,0.738-5.653,0.738H80.803c-3.122,0-5.653-0.331-5.653-0.738V75.497c0-0.407,2.531-0.738,5.653-0.738h158.293
		c3.123,0,5.653,0.331,5.653,0.738V88.771z"/>
	<g>
		<g>
			<path style="fill:#FFFFFF;" d="M75.416,103.167c49.739,0,99.478,0.001,149.217,0.002c6.75,0,13.5,0,20.25,0c4.514,0,4.514-7,0-7
				c-49.739,0-99.478-0.001-149.216-0.002c-6.75,0-13.5,0-20.25,0C70.902,96.167,70.902,103.167,75.416,103.167L75.416,103.167z"/>
		</g>
	</g>
	<g>
		<g>
			<path style="fill:#FFFFFF;" d="M75.416,113.567c49.739,0,99.478,0.001,149.217,0.002c6.75,0,13.5,0,20.25,0c4.514,0,4.514-7,0-7
				c-49.739,0-99.478-0.001-149.216-0.002c-6.75,0-13.5,0-20.25,0C70.902,106.567,70.902,113.567,75.416,113.567L75.416,113.567z"/>
		</g>
	</g>
	<g>
		<g>
			<path style="fill:#FFFFFF;" d="M75.416,123.967c49.739,0,99.478,0.001,149.217,0.002c6.75,0,13.5,0,20.25,0c4.514,0,4.514-7,0-7
				c-49.739,0-99.478-0.001-149.216-0.002c-6.75,0-13.5,0-20.25,0C70.902,116.967,70.902,123.967,75.416,123.967L75.416,123.967z"/>
		</g>
	</g>
	<g>
		<g>
			<path style="fill:#FFFFFF;" d="M75.416,134.367c49.739,0,99.478,0.001,149.217,0.002c6.75,0,13.5,0,20.25,0c4.514,0,4.514-7,0-7
				c-49.739,0-99.478-0.001-149.216-0.002c-6.75,0-13.5,0-20.25,0C70.902,127.367,70.902,134.367,75.416,134.367L75.416,134.367z"/>
		</g>
	</g>
	<g>
		<g>
			<path style="fill:#FFFFFF;" d="M207.342,289.262c13.893-24.063,27.785-48.125,41.678-72.188c-2.878,0-5.757,0-8.635,0
				c13.893,24.063,27.786,48.126,41.679,72.188c1.439-2.508,2.878-5.016,4.317-7.523c-27.785,0-55.571,0-83.356,0
				c-6.448,0-6.448,10,0,10c27.785,0,55.571,0,83.356,0c3.806,0,6.211-4.243,4.317-7.523
				c-13.893-24.063-27.786-48.126-41.679-72.188c-1.873-3.244-6.762-3.244-8.635,0c-13.893,24.063-27.785,48.126-41.678,72.188
				C195.477,289.81,204.119,294.843,207.342,289.262z"/>
		</g>
	</g>
	<g>
		<path style="fill:#FFFFFF;" d="M249.471,270.164c0,1.462-0.474,2.589-1.42,3.387c-0.945,0.795-2.017,1.194-3.212,1.194
			c-1.194,0-2.265-0.399-3.211-1.194c-0.945-0.798-1.419-1.925-1.419-3.387c0-1.46,0.474-2.588,1.419-3.385
			c0.946-0.797,2.017-1.195,3.211-1.195c1.195,0,2.267,0.398,3.212,1.195C248.997,267.576,249.471,268.704,249.471,270.164z
			 M248.823,248.507c0,2.688-0.101,5.195-0.299,7.519c-0.199,2.323-0.466,4.68-0.796,7.069h-5.677
			c-0.332-2.39-0.605-4.746-0.821-7.069c-0.217-2.323-0.323-4.83-0.323-7.519v-8.911h7.916V248.507z"/>
	</g>
</g>
<g id="Ebene_1">
</g>
</svg>
