<?xml version="1.0" encoding="iso-8859-1"?>
<!-- Generator: Adobe Illustrator 16.0.0, SVG Export Plug-In . SVG Version: 6.00 Build 0)  -->
<!DOCTYPE svg PUBLIC "-//W3C//DTD SVG 1.1//EN" "http://www.w3.org/Graphics/SVG/1.1/DTD/svg11.dtd">
<svg version="1.1" xmlns="http://www.w3.org/2000/svg" xmlns:xlink="http://www.w3.org/1999/xlink" x="0px" y="0px" width="361px"
	 height="361px" viewBox="0 0 361 361" style="enable-background:new 0 0 361 361;" xml:space="preserve">
<g id="fts_x5F_window_x5F_2w_x5F_open_x5F_l">
	<g>
		<path style="fill:none;stroke:#FFFFFF;stroke-width:10;stroke-miterlimit:10;" d="M267.654,250.303
			c0,3.91-2.583,7.082-5.768,7.082l-161.89,0.021c-3.186,0-5.768-3.171-5.768-7.083v-127.5c0-3.911,2.582-7.083,5.768-7.083
			l161.89-0.021c3.185,0,5.768,3.172,5.768,7.083V250.303z"/>
		
			<line style="fill:none;stroke:#FFFFFF;stroke-width:10;stroke-miterlimit:10;" x1="180.941" y1="116.583" x2="180.941" y2="253.758"/>
		<path style="fill:none;stroke:#FFFFFF;stroke-width:10;stroke-miterlimit:10;" d="M267.654,120.208c0,2.485-2.218,4.5-4.952,4.5
			L99.18,124.729c-2.734,0-4.951-2.015-4.951-4.5v-9c0-2.485,2.217-4.5,4.951-4.5l163.522-0.021c2.734,0,4.952,2.015,4.952,4.5
			V120.208z"/>
	</g>
	<g>
		<path style="fill:none;stroke:#FFFFFF;stroke-width:10;stroke-miterlimit:10;" d="M94.229,252.104c0,3.217,1.833,6.3,4.096,6.884
			l48.892,21.691c2.262,0.585,4.096-1.551,4.096-4.768V153.897c0-3.217-1.833-6.299-4.096-6.884l-48.892-21.692
			c-2.262-0.584-4.096,1.551-4.096,4.768V252.104z"/>
		<g>
			<g>
				<path style="fill:#FFFFFF;" d="M152.196,210.446c-1.584-0.399-3.169-0.8-4.753-1.199c-2.641-0.666-5.417,0.824-6.15,3.492
					c-0.711,2.584,0.85,5.484,3.492,6.15c1.584,0.399,3.169,0.8,4.753,1.199c2.641,0.666,5.417-0.824,6.15-3.492
					C156.399,214.013,154.838,211.112,152.196,210.446L152.196,210.446z"/>
			</g>
		</g>
	</g>
	<g>
		<path style="fill:none;stroke:#FFFFFF;stroke-width:10;stroke-miterlimit:10;" d="M94.243,250.303c0,3.91,2.583,7.082,5.767,7.082
			l161.89,0.021c3.186,0,5.769-3.171,5.769-7.083v-127.5c0-3.911-2.583-7.083-5.769-7.083l-161.89-0.021
			c-3.185,0-5.767,3.172-5.767,7.083V250.303z"/>
		<g>
			<g>
				<path style="fill:#FFFFFF;" d="M186.113,181.584c-1.722,0-3.443,0-5.165,0c-2.726,0-5,2.274-5,5s2.274,5,5,5
					c1.722,0,3.443,0,5.165,0c2.726,0,5-2.274,5-5S188.839,181.584,186.113,181.584L186.113,181.584z"/>
			</g>
		</g>
		
			<line style="fill:none;stroke:#FFFFFF;stroke-width:10;stroke-miterlimit:10;" x1="180.956" y1="116.583" x2="180.956" y2="253.758"/>
		<path style="fill:none;stroke:#FFFFFF;stroke-width:10;stroke-miterlimit:10;" d="M94.243,120.208c0,2.485,2.217,4.5,4.952,4.5
			l163.521,0.021c2.735,0,4.953-2.015,4.953-4.5v-9c0-2.485-2.218-4.5-4.953-4.5l-163.521-0.021c-2.735,0-4.952,2.015-4.952,4.5
			V120.208z"/>
	</g>
</g>
<g id="Ebene_1">
</g>
</svg>
