<?xml version="1.0" encoding="iso-8859-1"?>
<!-- Generator: Adobe Illustrator 16.0.0, SVG Export Plug-In . SVG Version: 6.00 Build 0)  -->
<!DOCTYPE svg PUBLIC "-//W3C//DTD SVG 1.1 Tiny//EN" "http://www.w3.org/Graphics/SVG/1.1/DTD/svg11-tiny.dtd">
<svg version="1.1" baseProfile="tiny" id="fts_x5F_window_x5F_roof_x5F_shutter_x5F_40"
	 xmlns="http://www.w3.org/2000/svg" xmlns:xlink="http://www.w3.org/1999/xlink" x="0px" y="0px" width="361px" height="361px"
	 viewBox="0 0 361 361" xml:space="preserve">
<g id="Fenster_gerade_12_" display="none">
	<path display="inline" fill="none" stroke="#FFFFFF" stroke-width="10" stroke-miterlimit="10" d="M245.308,267.18
		c0,3.911-3.156,7.083-7.049,7.083l-117.885,0.021c-3.894,0-7.05-3.171-7.05-7.083V129.7c0-3.911,3.156-7.083,7.05-7.083
		l117.885-0.021c3.893,0,7.049,3.172,7.049,7.083V267.18z"/>
	<g display="inline">
		<path fill="#FFFFFF" d="M173.315,263.559c0,2.213,0,4.426,0,6.639c0,2.726,2.274,5,5,5s5-2.274,5-5c0-2.213,0-4.426,0-6.639
			c0-2.726-2.274-5-5-5S173.315,260.833,173.315,263.559L173.315,263.559z"/>
	</g>
	<path display="inline" fill="none" stroke="#FFFFFF" stroke-width="10" stroke-miterlimit="10" d="M245.308,127.086
		c0,2.485-2.71,4.5-6.052,4.5l-119.88,0.021c-3.342,0-6.052-2.015-6.052-4.5v-9c0-2.485,2.71-4.5,6.052-4.5l119.88-0.021
		c3.342,0,6.052,2.015,6.052,4.5V127.086z"/>
	<path display="inline" fill="none" stroke="#FFFFFF" stroke-width="10" stroke-miterlimit="10" d="M258.489,280.733
		c0,4.685-3.782,8.485-8.446,8.485l-141.235,0.024c-4.665,0-8.446-3.799-8.446-8.485V106.021c0-4.685,3.782-8.486,8.446-8.486
		l141.235-0.024c4.664,0,8.446,3.801,8.446,8.486V280.733z"/>
</g>
<g>
	<path fill="none" stroke="#FFFFFF" stroke-width="10" stroke-miterlimit="10" d="M199.449,249.07
		c-1.694,3.631-5.998,6.577-9.614,6.577l-90.915,0.019c-3.616,0-5.174-2.945-3.479-6.578l59.546-127.698
		c1.694-3.632,6-6.578,9.615-6.578l90.915-0.02c3.616,0,5.174,2.946,3.479,6.579L199.449,249.07z"/>
	<g>
		<path fill="#FFFFFF" d="M143.77,243.183c-0.958,2.055-1.917,4.11-2.876,6.165c-1.152,2.47-0.717,5.37,1.794,6.841
			c2.186,1.28,5.688,0.676,6.841-1.794c0.958-2.055,1.917-4.11,2.876-6.165c1.152-2.47,0.717-5.37-1.794-6.841
			C148.425,240.109,144.922,240.713,143.77,243.183L143.77,243.183z"/>
	</g>
</g>
<g>
	<g>
		<path fill="none" stroke="#FFFFFF" stroke-width="10" stroke-miterlimit="10" d="M205.226,267.016
			c-2.09,4.481-7.4,8.113-11.86,8.113L77.42,275.153c-4.461,0-6.383-3.633-4.293-8.115l77.917-167.094
			c2.089-4.48,7.4-8.115,11.861-8.115l115.945-0.023c4.459,0,6.381,3.634,4.292,8.115L205.226,267.016z"/>
		<polygon fill="#FFFFFF" points="275.406,107.139 147.903,107.139 156.672,89.893 284.175,89.893 		"/>
	</g>
	<rect x="73.863" y="265.461" fill="#FFFFFF" width="127.455" height="6.432"/>
</g>
<g id="lamellen_x5F_10_7_">
	<g>
		<path fill="#FFFFFF" d="M241.514,123.37c-25.041,0-50.082,0-75.123,0c-6.449,0-6.449,10,0,10c25.041,0,50.082,0,75.123,0
			C247.962,133.37,247.962,123.37,241.514,123.37L241.514,123.37z"/>
	</g>
	<g>
		<path fill="#FFFFFF" d="M235.598,135.96c-25.041,0-50.082,0-75.123,0c-6.449,0-6.449,10,0,10c25.041,0,50.082,0,75.123,0
			C242.046,145.96,242.046,135.96,235.598,135.96L235.598,135.96z"/>
	</g>
	<g>
		<path fill="#FFFFFF" d="M229.514,148.551c-25.041,0-50.082,0-75.123,0c-6.449,0-6.449,10,0,10c25.041,0,50.082,0,75.123,0
			C235.962,158.551,235.962,148.551,229.514,148.551L229.514,148.551z"/>
	</g>
	<g>
		<path fill="#FFFFFF" d="M223.514,161.143c-25.041,0-50.082,0-75.123,0c-6.449,0-6.449,10,0,10c25.041,0,50.082,0,75.123,0
			C229.962,171.143,229.962,161.143,223.514,161.143L223.514,161.143z"/>
	</g>
	<g display="none">
		<path display="inline" fill="#FFFFFF" d="M218.116,173.733c-25.041,0-50.082,0-75.123,0c-6.449,0-6.449,10,0,10
			c25.041,0,50.082,0,75.123,0C224.565,183.733,224.565,173.733,218.116,173.733L218.116,173.733z"/>
	</g>
	<g display="none">
		<path display="inline" fill="#FFFFFF" d="M212.2,186.324c-25.041,0-50.082,0-75.123,0c-6.449,0-6.449,10,0,10
			c25.041,0,50.082,0,75.123,0C218.649,196.324,218.649,186.324,212.2,186.324L212.2,186.324z"/>
	</g>
	<g display="none">
		<path display="inline" fill="#FFFFFF" d="M206.116,198.915c-25.041,0-50.082,0-75.123,0c-6.449,0-6.449,10,0,10
			c25.041,0,50.082,0,75.123,0C212.565,208.915,212.565,198.915,206.116,198.915L206.116,198.915z"/>
	</g>
	<g display="none">
		<path display="inline" fill="#FFFFFF" d="M200.116,211.506c-25.041,0-50.082,0-75.123,0c-6.449,0-6.449,10,0,10
			c25.041,0,50.082,0,75.123,0C206.565,221.506,206.565,211.506,200.116,211.506L200.116,211.506z"/>
	</g>
	<g display="none">
		<path display="inline" fill="#FFFFFF" d="M193.952,224.097c-25.041,0-50.082,0-75.123,0c-6.449,0-6.449,10,0,10
			c25.041,0,50.082,0,75.123,0C200.401,234.097,200.401,224.097,193.952,224.097L193.952,224.097z"/>
	</g>
	<g display="none">
		<path display="inline" fill="#FFFFFF" d="M188.036,236.688c-25.041,0-50.082,0-75.123,0c-6.449,0-6.449,10,0,10
			c25.041,0,50.082,0,75.123,0C194.485,246.688,194.485,236.688,188.036,236.688L188.036,236.688z"/>
	</g>
</g>
</svg>
