<?xml version="1.0" encoding="iso-8859-1"?>
<!-- Generator: Adobe Illustrator 16.0.0, SVG Export Plug-In . SVG Version: 6.00 Build 0)  -->
<!DOCTYPE svg PUBLIC "-//W3C//DTD SVG 1.1//EN" "http://www.w3.org/Graphics/SVG/1.1/DTD/svg11.dtd">
<svg version="1.1" xmlns="http://www.w3.org/2000/svg" xmlns:xlink="http://www.w3.org/1999/xlink" x="0px" y="0px" width="361px"
	 height="361px" viewBox="0 0 361 361" style="enable-background:new 0 0 361 361;" xml:space="preserve">
<g id="fts_x5F_blade_x5F_s">
	<g>
		<g>
			<g>
				<path style="fill:#FFFFFF;" d="M178.833,70.667c0,14.222,0,28.445,0,42.667c0,1.935,3,1.935,3,0c0-14.222,0-28.445,0-42.667
					C181.833,68.732,178.833,68.732,178.833,70.667L178.833,70.667z"/>
			</g>
		</g>
		<g>
			<g>
				<path style="fill:#FFFFFF;" d="M179,154c0,16.938,0,33.876,0,50.814c0,1.935,3,1.935,3,0c0-16.938,0-33.876,0-50.814
					C182,152.066,179,152.066,179,154L179,154z"/>
			</g>
		</g>
		<g>
			<g>
				<path style="fill:#FFFFFF;" d="M179,247.334c0,14.111,0,28.222,0,42.333c0,1.935,3,1.935,3,0c0-14.111,0-28.222,0-42.333
					C182,245.399,179,245.399,179,247.334L179,247.334z"/>
			</g>
		</g>
	</g>
	<g style="display:none;">
		<g style="display:inline;">
			<g>
				<path style="fill:#FFFFFF;" d="M210.117,134.19c0,9.159,0,18.318,0,27.477c0,1.935,3,1.935,3,0c0-9.159,0-18.318,0-27.477
					C213.117,132.256,210.117,132.256,210.117,134.19L210.117,134.19z"/>
			</g>
		</g>
		<g style="display:inline;">
			<g>
				<path style="fill:#FFFFFF;" d="M210.236,198c0,10.444,0,20.89,0,31.334c0,1.935,3,1.935,3,0c0-10.444,0-20.89,0-31.334
					C213.236,196.065,210.236,196.065,210.236,198L210.236,198z"/>
			</g>
		</g>
		<g style="display:inline;">
			<g>
				<path style="fill:#FFFFFF;" d="M210.236,262c0,9.171,0,18.341,0,27.512c0,1.935,3,1.935,3,0c0-9.171,0-18.341,0-27.512
					C213.236,260.065,210.236,260.065,210.236,262L210.236,262z"/>
			</g>
		</g>
	</g>
	<g>
		<g>
			<g>
				<path style="fill:#FFFFFF;" d="M79.428,288.951c13.341-14.04,26.402-28.536,42.876-39.002
					c9.174-5.828,19.155-10.057,29.564-13.117c13.046-3.837,26.421-4.83,39.799-6.824c20.312-3.029,40.403-9.875,57.429-21.516
					c9.379-6.412,17.227-14.275,24.508-22.923c0.856-1.018,1.709-2.07,2.72-2.941c-0.98,0.845-2.405,1.392-4.663,0.308
					c-1.793-0.86-2.119-3.923-1.267,0.045c2.118,9.867,2.515,28.887,15.976,29.893c6.437,0.48,6.39-9.522,0-10
					c-6.313-0.472-2.304-39.26-17.117-27.316c-2.262,1.823-4.006,4.5-5.888,6.688c-3.554,4.13-7.383,8.001-11.496,11.575
					c-13.656,11.867-30.619,19.211-48.022,23.596c-13.099,3.301-26.552,3.958-39.809,6.316c-11.68,2.078-22.998,5.626-33.791,10.539
					c-23.289,10.601-40.58,29.393-57.889,47.609C67.918,286.552,74.979,293.635,79.428,288.951L79.428,288.951z"/>
			</g>
		</g>
		<g>
			<g>
				<path style="fill:#FFFFFF;" d="M75.977,279.559c-0.945,0.945-1.89,1.89-2.835,2.835c-2.102,2.102-2.102,5.611,0,7.713
					c2.101,2.102,5.612,2.102,7.713,0c0.945-0.945,1.89-1.89,2.835-2.835c2.102-2.102,2.102-5.611,0-7.713
					C81.588,277.457,78.078,277.457,75.977,279.559L75.977,279.559z"/>
			</g>
		</g>
		<g>
			<g>
				<path style="fill:#FFFFFF;" d="M286.369,204.673c-1.336-0.029-2.672-0.059-4.008-0.089c-2.29-0.051-4.2,1.949-4.2,4.2
					c0,2.328,1.912,4.149,4.2,4.2c1.336,0.029,2.672,0.059,4.008,0.089c2.29,0.051,4.2-1.949,4.2-4.2
					C290.569,206.545,288.657,204.724,286.369,204.673L286.369,204.673z"/>
			</g>
		</g>
	</g>
	<g>
		<g>
			<g>
				<path style="fill:#FFFFFF;" d="M80.369,194.788c13.341-14.039,26.402-28.535,42.876-39.001
					c9.174-5.829,19.155-10.057,29.564-13.118c13.046-3.837,26.421-4.83,39.799-6.824c20.312-3.029,40.403-9.875,57.429-21.516
					c9.379-6.412,17.227-14.275,24.508-22.923c0.856-1.017,1.709-2.071,2.72-2.942c-0.98,0.845-2.405,1.393-4.663,0.309
					c-1.793-0.861-2.119-3.923-1.267,0.045c2.118,9.866,2.514,28.887,15.975,29.893c6.437,0.481,6.39-9.522,0-10
					c-6.312-0.472-2.303-39.26-17.116-27.317c-2.262,1.823-4.006,4.5-5.888,6.688c-3.554,4.131-7.383,8.001-11.496,11.576
					c-13.656,11.867-30.619,19.211-48.022,23.596c-13.099,3.3-26.552,3.957-39.809,6.316c-11.68,2.079-22.998,5.626-33.791,10.539
					c-23.288,10.601-40.58,29.393-57.889,47.609C68.858,192.389,75.918,199.472,80.369,194.788L80.369,194.788z"/>
			</g>
		</g>
		<g>
			<g>
				<path style="fill:#FFFFFF;" d="M76.917,185.396c-0.945,0.945-1.89,1.89-2.835,2.835c-2.102,2.102-2.102,5.611,0,7.713
					c2.101,2.102,5.612,2.102,7.713,0c0.945-0.945,1.89-1.89,2.835-2.835c2.102-2.102,2.102-5.611,0-7.713
					C82.529,183.294,79.018,183.294,76.917,185.396L76.917,185.396z"/>
			</g>
		</g>
		<g>
			<g>
				<path style="fill:#FFFFFF;" d="M287.309,110.511c-1.336-0.03-2.672-0.06-4.008-0.089c-2.29-0.051-4.2,1.949-4.2,4.2
					c0,2.328,1.912,4.149,4.2,4.2c1.336,0.03,2.672,0.06,4.008,0.089c2.29,0.051,4.2-1.949,4.2-4.2
					C291.509,112.383,289.597,110.562,287.309,110.511L287.309,110.511z"/>
			</g>
		</g>
	</g>
</g>
<g id="Ebene_1">
</g>
</svg>
