<?xml version="1.0" encoding="iso-8859-1"?>
<!-- Generator: Adobe Illustrator 16.0.3, SVG Export Plug-In . SVG Version: 6.00 Build 0)  -->
<!DOCTYPE svg PUBLIC "-//W3C//DTD SVG 1.1//EN" "http://www.w3.org/Graphics/SVG/1.1/DTD/svg11.dtd">
<svg version="1.1" xmlns="http://www.w3.org/2000/svg" xmlns:xlink="http://www.w3.org/1999/xlink" x="0px" y="0px" width="361px"
	 height="361px" viewBox="0 0 361 361" style="enable-background:new 0 0 361 361;" xml:space="preserve">
<g id="fts_x5F_blade_x5F_arc_x5F_-60">
	<g>
		<g>
			<g>
				<path style="fill:#FFFFFF;" d="M139.821,165.92c43.325,21.552,70.715,65.853,70.224,114.304c-0.065,6.451,9.935,6.445,10,0
					c0.524-51.746-28.82-99.879-75.177-122.939C139.114,154.423,134.047,163.048,139.821,165.92L139.821,165.92z"/>
			</g>
		</g>
		<g>
			<g>
				<path style="fill:#FFFFFF;" d="M147.078,158.917c-0.758-0.396-1.516-0.793-2.273-1.189c-1.321-0.691-2.74-0.952-4.203-0.55
					c-1.363,0.375-2.545,1.287-3.26,2.506c-1.449,2.474-0.675,6.085,1.957,7.462c0.758,0.396,1.516,0.793,2.273,1.189
					c1.321,0.691,2.74,0.952,4.203,0.55c1.363-0.375,2.545-1.287,3.26-2.506C150.483,163.906,149.709,160.294,147.078,158.917
					L147.078,158.917z"/>
			</g>
		</g>
		<g>
			<g>
				<path style="fill:#FFFFFF;" d="M219.744,280.094c-0.075-0.851-0.15-1.702-0.226-2.553c-0.132-1.493-0.507-2.766-1.598-3.856
					c-1.019-1.019-2.416-1.598-3.856-1.598s-2.838,0.579-3.856,1.598c-0.944,0.944-1.719,2.48-1.598,3.856
					c0.075,0.851,0.15,1.702,0.226,2.553c0.132,1.493,0.507,2.766,1.598,3.856c1.019,1.019,2.416,1.598,3.856,1.598
					s2.838-0.579,3.856-1.598C219.091,283.006,219.865,281.47,219.744,280.094L219.744,280.094z"/>
			</g>
		</g>
	</g>
	<g>
		<g>
			<path style="fill:#FFFFFF;" d="M178.833,71.667c0,5.416,0,10.832,0,16.248c0,1.935,3,1.935,3,0c0-5.416,0-10.832,0-16.248
				C181.833,69.732,178.833,69.732,178.833,71.667L178.833,71.667z"/>
		</g>
	</g>
	<g>
		<g>
			<path style="fill:#FFFFFF;" d="M179,142.989c0,7.612,0,15.225,0,22.837c0,1.935,3,1.935,3,0c0-7.612,0-15.225,0-22.837
				C182,141.055,179,141.055,179,142.989L179,142.989z"/>
		</g>
	</g>
	<g>
		<g>
			<path style="fill:#FFFFFF;" d="M179,217.986c0,23.894,0,47.787,0,71.681c0,1.935,3,1.935,3,0c0-23.894,0-47.787,0-71.681
				C182,216.052,179,216.052,179,217.986L179,217.986z"/>
		</g>
	</g>
	<g>
		<g>
			<path style="fill:#FFFFFF;" d="M179,134c0,7.612,0,15.225,0,22.837c0,1.935,3,1.935,3,0c0-7.612,0-15.225,0-22.837
				C182,132.066,179,132.066,179,134L179,134z"/>
		</g>
	</g>
	<g>
		<g>
			<g>
				<path style="fill:#FFFFFF;" d="M138.613,85.68c43.325,21.55,70.716,65.852,70.225,114.302c-0.065,6.451,9.935,6.445,10,0
					c0.524-51.745-28.822-99.88-75.178-122.937C137.905,74.183,132.838,82.808,138.613,85.68L138.613,85.68z"/>
			</g>
		</g>
		<g>
			<g>
				<path style="fill:#FFFFFF;" d="M145.869,78.676c-0.758-0.396-1.516-0.792-2.273-1.188c-1.322-0.69-2.739-0.953-4.203-0.55
					c-1.363,0.375-2.545,1.287-3.26,2.506c-1.448,2.472-0.676,6.087,1.957,7.462c0.758,0.396,1.516,0.792,2.273,1.188
					c1.322,0.69,2.739,0.953,4.203,0.55c1.363-0.375,2.545-1.287,3.26-2.506C149.273,83.666,148.501,80.051,145.869,78.676
					L145.869,78.676z"/>
			</g>
		</g>
		<g>
			<g>
				<path style="fill:#FFFFFF;" d="M218.536,199.854c-0.075-0.851-0.149-1.702-0.225-2.553c-0.132-1.493-0.507-2.766-1.598-3.856
					c-1.019-1.019-2.416-1.598-3.856-1.598s-2.838,0.579-3.856,1.598c-0.945,0.944-1.719,2.48-1.598,3.856
					c0.075,0.851,0.149,1.702,0.225,2.553c0.132,1.493,0.507,2.766,1.598,3.856c1.019,1.019,2.416,1.598,3.856,1.598
					s2.838-0.579,3.856-1.598C217.884,202.766,218.657,201.229,218.536,199.854L218.536,199.854z"/>
			</g>
		</g>
	</g>
</g>
<g id="Ebene_1">
</g>
</svg>
