<?xml version="1.0" encoding="iso-8859-1"?>
<!-- Generator: Adobe Illustrator 16.0.0, SVG Export Plug-In . SVG Version: 6.00 Build 0)  -->
<!DOCTYPE svg PUBLIC "-//W3C//DTD SVG 1.1 Tiny//EN" "http://www.w3.org/Graphics/SVG/1.1/DTD/svg11-tiny.dtd">
<svg version="1.1" baseProfile="tiny" id="fts_x5F_blade_x5F_arc_x5F_sun"
	 xmlns="http://www.w3.org/2000/svg" xmlns:xlink="http://www.w3.org/1999/xlink" x="0px" y="0px" width="361px" height="361px"
	 viewBox="0 0 361 361" xml:space="preserve">
<g>
	<g>
		<path fill="#FFFFFF" d="M205.954,136.583c0,10.128,0,20.257,0,30.386c0,1.935,3,1.935,3,0c0-10.128,0-20.257,0-30.386
			C208.954,134.648,205.954,134.648,205.954,136.583L205.954,136.583z"/>
	</g>
	<g>
		<path fill="#FFFFFF" d="M206.072,195.929c0,12.063,0,24.125,0,36.188c0,1.935,3,1.935,3,0c0-12.063,0-24.125,0-36.188
			C209.072,193.995,206.072,193.995,206.072,195.929L206.072,195.929z"/>
	</g>
	<g>
		<path fill="#FFFFFF" d="M206.072,262.397c0,10.049,0,20.098,0,30.147c0,1.935,3,1.935,3,0c0-10.049,0-20.098,0-30.147
			C209.072,260.463,206.072,260.463,206.072,262.397L206.072,262.397z"/>
	</g>
</g>
<g display="none">
	<g display="inline">
		<path fill="#FFFFFF" d="M207.6,137.068c0,9.159,0,18.318,0,27.477c0,1.935,3,1.935,3,0c0-9.159,0-18.318,0-27.477
			C210.6,135.134,207.6,135.134,207.6,137.068L207.6,137.068z"/>
	</g>
	<g display="inline">
		<path fill="#FFFFFF" d="M207.718,200.878c0,10.444,0,20.889,0,31.333c0,1.935,3,1.935,3,0c0-10.444,0-20.889,0-31.333
			C210.718,198.944,207.718,198.944,207.718,200.878L207.718,200.878z"/>
	</g>
	<g display="inline">
		<path fill="#FFFFFF" d="M207.718,264.878c0,9.17,0,18.341,0,27.511c0,1.935,3,1.935,3,0c0-9.17,0-18.341,0-27.511
			C210.718,262.944,207.718,262.944,207.718,264.878L207.718,264.878z"/>
	</g>
</g>
<g>
	<g>
		<path fill="#FFFFFF" d="M137.611,224.409c37.446-38.94,93.957-53.037,145.315-36.294c6.149,2.004,8.761-7.653,2.658-9.643
			c-54.61-17.803-115.264-2.502-155.045,38.866C126.072,221.985,133.134,229.064,137.611,224.409L137.611,224.409z"/>
	</g>
	<g>
		<path fill="#FFFFFF" d="M134.407,218.974c-0.673,0.673-1.346,1.346-2.02,2.019c-1.348,1.349-1.348,3.602,0,4.95
			c1.349,1.348,3.602,1.348,4.95,0c0.673-0.673,1.346-1.346,2.02-2.019c1.348-1.349,1.348-3.602,0-4.95
			C138.009,217.626,135.756,217.626,134.407,218.974L134.407,218.974z"/>
	</g>
	<g>
		<path fill="#FFFFFF" d="M284.798,182.68c-0.929-0.205-1.858-0.411-2.788-0.616c-1.861-0.411-3.781,0.536-4.306,2.444
			c-0.486,1.767,0.582,3.894,2.444,4.306c0.929,0.205,1.858,0.411,2.788,0.616c1.861,0.411,3.781-0.536,4.306-2.444
			C287.729,185.219,286.661,183.092,284.798,182.68L284.798,182.68z"/>
	</g>
</g>
<g>
	<g>
		<path fill="#FFFFFF" d="M137.611,291.35c37.446-38.94,93.957-53.037,145.315-36.294c6.149,2.004,8.761-7.653,2.658-9.643
			c-54.61-17.802-115.264-2.502-155.045,38.866C126.072,288.925,133.134,296.005,137.611,291.35L137.611,291.35z"/>
	</g>
	<g>
		<path fill="#FFFFFF" d="M134.407,285.915c-0.673,0.673-1.346,1.346-2.02,2.018c-1.349,1.348-1.348,3.602,0,4.95
			c1.349,1.349,3.601,1.348,4.95,0c0.673-0.673,1.346-1.346,2.02-2.018c1.349-1.348,1.348-3.602,0-4.95
			C138.008,284.566,135.756,284.567,134.407,285.915L134.407,285.915z"/>
	</g>
	<g>
		<path fill="#FFFFFF" d="M284.798,249.62c-0.929-0.205-1.858-0.411-2.788-0.616c-1.861-0.411-3.781,0.536-4.306,2.444
			c-0.486,1.767,0.582,3.894,2.444,4.306c0.929,0.205,1.858,0.411,2.788,0.616c1.861,0.411,3.781-0.536,4.306-2.444
			C287.729,252.159,286.661,250.032,284.798,249.62L284.798,249.62z"/>
	</g>
</g>
<g id="sonne_1_">
	<path fill="none" stroke="#FFFFFF" stroke-width="10" stroke-miterlimit="10" d="M88.189,121.48c0,2.245,1.82,4.064,4.064,4.064
		h23.371c2.245,0,4.064-1.82,4.064-4.064V98.109c0-2.245-1.82-4.064-4.064-4.064H92.254c-2.245,0-4.064,1.82-4.064,4.064V121.48z"/>
	<g>
		<path fill="#FFFFFF" d="M135.279,73.634c-2.406,2.407-4.813,4.813-7.219,7.219c-1.926,1.926-1.926,5.145,0,7.071
			s5.145,1.926,7.071,0c2.406-2.407,4.813-4.813,7.219-7.219c1.926-1.926,1.926-5.145,0-7.071S137.205,71.708,135.279,73.634
			L135.279,73.634z"/>
	</g>
	<g>
		<path fill="#FFFFFF" d="M173.189,104.545c-11.167,0-22.333,0-33.5,0c-6.449,0-6.449,10,0,10c11.167,0,22.333,0,33.5,0
			C179.638,114.545,179.638,104.545,173.189,104.545L173.189,104.545z"/>
	</g>
	<g>
		<path fill="#FFFFFF" d="M75.851,146.205c1.99-1.99,3.979-3.979,5.969-5.969c1.926-1.926,1.926-5.145,0-7.071s-5.145-1.926-7.071,0
			c-1.99,1.99-3.979,3.979-5.969,5.969c-1.926,1.926-1.926,5.145,0,7.071S73.924,148.131,75.851,146.205L75.851,146.205z"/>
	</g>
	<g>
		<path fill="#FFFFFF" d="M109.439,178.295c0-11.167,0-22.333,0-33.5c0-6.449-10-6.449-10,0c0,11.167,0,22.333,0,33.5
			C99.439,184.744,109.439,184.744,109.439,178.295L109.439,178.295z"/>
	</g>
	<g>
		<path fill="#FFFFFF" d="M157.819,156.854c-7.896-7.896-15.792-15.792-23.688-23.688c-4.564-4.563-11.635,2.507-7.071,7.071
			c7.896,7.896,15.792,15.792,23.688,23.688C155.312,168.488,162.383,161.417,157.819,156.854L157.819,156.854z"/>
	</g>
</g>
</svg>
