<?xml version="1.0" encoding="iso-8859-1"?>
<!-- Generator: Adobe Illustrator 16.0.0, SVG Export Plug-In . SVG Version: 6.00 Build 0)  -->
<!DOCTYPE svg PUBLIC "-//W3C//DTD SVG 1.1//EN" "http://www.w3.org/Graphics/SVG/1.1/DTD/svg11.dtd">
<svg version="1.1" xmlns="http://www.w3.org/2000/svg" xmlns:xlink="http://www.w3.org/1999/xlink" x="0px" y="0px" width="361px"
	 height="361px" viewBox="0 0 361 361" style="enable-background:new 0 0 361 361;" xml:space="preserve">
<g id="fts_x5F_blade_x5F_arc_x5F_close_x5F_100">
	<g>
		<g>
			<g>
				<g>
					<path style="fill:#FFFFFF;" d="M226.09,156.527c-3.911-30.169,8.995-59.912,34.463-76.854
						c5.341-3.553,0.339-12.218-5.047-8.635c-28.182,18.749-43.785,51.782-39.416,85.489
						C216.907,162.829,226.917,162.909,226.09,156.527L226.09,156.527z"/>
				</g>
			</g>
			<g>
				<g>
					<path style="fill:#FFFFFF;" d="M216,154.751c0.062,0.545,0.124,1.089,0.186,1.634c0.065,0.483,0.13,0.967,0.195,1.45
						c0.259,0.924,0.727,1.727,1.402,2.407c1.019,1.019,2.416,1.598,3.856,1.598s2.838-0.579,3.856-1.598
						c0.924-0.924,1.752-2.5,1.598-3.856c-0.062-0.545-0.124-1.089-0.186-1.634c-0.065-0.483-0.13-0.967-0.195-1.45
						c-0.259-0.924-0.727-1.727-1.402-2.407c-1.019-1.019-2.416-1.598-3.856-1.598s-2.838,0.579-3.856,1.598
						C216.674,151.818,215.846,153.395,216,154.751L216,154.751z"/>
				</g>
			</g>
			<g>
				<g>
					<path style="fill:#FFFFFF;" d="M254.377,71.946c-0.426,0.345-0.853,0.691-1.278,1.037c-1.064,0.863-1.598,2.542-1.598,3.856
						c0,1.441,0.579,2.838,1.598,3.856c1.019,1.019,2.416,1.598,3.856,1.598c0.483-0.065,0.967-0.13,1.45-0.195
						c0.924-0.259,1.726-0.727,2.406-1.403c0.426-0.345,0.853-0.691,1.278-1.037c1.064-0.863,1.598-2.542,1.598-3.856
						c0-1.441-0.579-2.838-1.598-3.856c-1.019-1.019-2.416-1.598-3.856-1.598c-0.483,0.065-0.967,0.13-1.45,0.195
						C255.859,70.803,255.058,71.27,254.377,71.946L254.377,71.946z"/>
				</g>
			</g>
		</g>
		<g>
			<g>
				<g>
					<path style="fill:#FFFFFF;" d="M226.09,221.097c-3.911-30.169,8.996-59.911,34.463-76.854
						c5.341-3.553,0.339-12.218-5.047-8.635c-28.182,18.749-43.785,51.781-39.416,85.489
						C216.907,227.398,226.917,227.479,226.09,221.097L226.09,221.097z"/>
				</g>
			</g>
			<g>
				<g>
					<path style="fill:#FFFFFF;" d="M216,219.321c0.062,0.545,0.124,1.089,0.186,1.634c0.065,0.483,0.13,0.967,0.195,1.45
						c0.259,0.924,0.727,1.726,1.402,2.406c1.019,1.019,2.416,1.598,3.856,1.598s2.838-0.579,3.856-1.598
						c0.924-0.924,1.752-2.501,1.598-3.856c-0.062-0.545-0.124-1.089-0.186-1.634c-0.065-0.483-0.13-0.967-0.195-1.45
						c-0.259-0.924-0.727-1.726-1.402-2.406c-1.019-1.019-2.416-1.598-3.856-1.598s-2.838,0.579-3.856,1.598
						C216.674,216.389,215.846,217.966,216,219.321L216,219.321z"/>
				</g>
			</g>
			<g>
				<g>
					<path style="fill:#FFFFFF;" d="M254.377,136.517c-0.426,0.345-0.853,0.69-1.278,1.036c-1.064,0.862-1.598,2.542-1.598,3.856
						c0,1.441,0.579,2.838,1.598,3.856c1.019,1.019,2.416,1.598,3.856,1.598c0.483-0.065,0.967-0.13,1.45-0.195
						c0.924-0.259,1.726-0.727,2.406-1.403c0.426-0.345,0.853-0.69,1.278-1.036c1.064-0.862,1.598-2.542,1.598-3.856
						c0-1.441-0.579-2.838-1.598-3.856c-1.019-1.019-2.416-1.598-3.856-1.598c-0.483,0.065-0.967,0.13-1.45,0.195
						C255.859,135.373,255.058,135.84,254.377,136.517L254.377,136.517z"/>
				</g>
			</g>
		</g>
		<g>
			<g>
				<g>
					<path style="fill:#FFFFFF;" d="M226.09,285.667c-3.91-30.169,8.995-59.911,34.463-76.854c5.341-3.553,0.339-12.218-5.047-8.635
						c-28.182,18.749-43.785,51.781-39.416,85.489C216.907,291.969,226.917,292.049,226.09,285.667L226.09,285.667z"/>
				</g>
			</g>
			<g>
				<g>
					<path style="fill:#FFFFFF;" d="M216,283.891c0.062,0.545,0.124,1.09,0.186,1.635c0.065,0.483,0.13,0.967,0.195,1.45
						c0.259,0.924,0.727,1.726,1.402,2.406c1.019,1.019,2.416,1.598,3.856,1.598s2.838-0.579,3.856-1.598
						c0.924-0.924,1.752-2.501,1.598-3.856c-0.062-0.545-0.124-1.09-0.186-1.635c-0.065-0.483-0.13-0.967-0.195-1.45
						c-0.259-0.924-0.727-1.726-1.402-2.406c-1.019-1.019-2.416-1.598-3.856-1.598s-2.838,0.579-3.856,1.598
						C216.674,280.958,215.846,282.535,216,283.891L216,283.891z"/>
				</g>
			</g>
			<g>
				<g>
					<path style="fill:#FFFFFF;" d="M254.377,201.087c-0.426,0.346-0.853,0.69-1.278,1.036c-1.064,0.862-1.598,2.543-1.598,3.856
						c0,1.44,0.579,2.838,1.598,3.856s2.416,1.598,3.856,1.598c0.483-0.065,0.967-0.13,1.45-0.195
						c0.924-0.259,1.726-0.727,2.406-1.402c0.426-0.346,0.853-0.69,1.278-1.036c1.064-0.862,1.598-2.543,1.598-3.856
						c0-1.44-0.579-2.838-1.598-3.856s-2.416-1.598-3.856-1.598c-0.483,0.065-0.967,0.13-1.45,0.195
						C255.859,199.943,255.058,200.411,254.377,201.087L254.377,201.087z"/>
				</g>
			</g>
		</g>
	</g>
	<g>
		<g>
			<g>
				<path style="fill:#FFFFFF;" d="M231.869,119.812c0,9.137,0,18.273,0,27.41c0,1.935,3,1.935,3,0c0-9.137,0-18.273,0-27.41
					C234.869,117.877,231.869,117.877,231.869,119.812L231.869,119.812z"/>
			</g>
		</g>
		<g>
			<g>
				<path style="fill:#FFFFFF;" d="M231.869,188.307c0,7.873,0,15.746,0,23.619c0,1.935,3,1.935,3,0c0-7.873,0-15.746,0-23.619
					C234.869,186.372,231.869,186.372,231.869,188.307L231.869,188.307z"/>
			</g>
		</g>
		<g>
			<g>
				<path style="fill:#FFFFFF;" d="M231.869,255.063c0,11.384,0,22.767,0,34.15c0,1.935,3,1.935,3,0c0-11.384,0-22.767,0-34.15
					C234.869,253.128,231.869,253.128,231.869,255.063L231.869,255.063z"/>
			</g>
		</g>
		<g>
			<g>
				<path style="fill:#FFFFFF;" d="M231.869,71.183c0,3.454,0,6.908,0,10.361c0,1.935,3,1.935,3,0c0-3.454,0-6.908,0-10.361
					C234.869,69.248,231.869,69.248,231.869,71.183L231.869,71.183z"/>
			</g>
		</g>
	</g>
	<g id="sonne_5_">
		<path style="fill:none;stroke:#FFFFFF;stroke-width:10;stroke-miterlimit:10;" d="M90.708,118.603c0,2.245,1.82,4.064,4.064,4.064
			h23.371c2.245,0,4.064-1.82,4.064-4.064V95.231c0-2.245-1.82-4.064-4.064-4.064H94.772c-2.245,0-4.064,1.82-4.064,4.064V118.603z"
			/>
		<g>
			<g>
				<path style="fill:#FFFFFF;" d="M137.797,70.756c-2.406,2.407-4.813,4.813-7.219,7.219c-1.926,1.926-1.926,5.145,0,7.071
					s5.145,1.926,7.071,0c2.406-2.407,4.813-4.813,7.219-7.219c1.926-1.926,1.926-5.145,0-7.071S139.723,68.83,137.797,70.756
					L137.797,70.756z"/>
			</g>
		</g>
		<g>
			<g>
				<path style="fill:#FFFFFF;" d="M175.708,101.667c-11.167,0-22.333,0-33.5,0c-6.449,0-6.449,10,0,10c11.167,0,22.333,0,33.5,0
					C182.156,111.667,182.156,101.667,175.708,101.667L175.708,101.667z"/>
			</g>
		</g>
		<g>
			<g>
				<path style="fill:#FFFFFF;" d="M78.369,143.327c1.99-1.99,3.979-3.979,5.969-5.969c1.926-1.926,1.926-5.145,0-7.071
					s-5.145-1.926-7.071,0c-1.99,1.99-3.979,3.979-5.969,5.969c-1.926,1.926-1.926,5.145,0,7.071S76.442,145.253,78.369,143.327
					L78.369,143.327z"/>
			</g>
		</g>
		<g>
			<g>
				<path style="fill:#FFFFFF;" d="M111.958,175.417c0-11.167,0-22.333,0-33.5c0-6.449-10-6.449-10,0c0,11.167,0,22.333,0,33.5
					C101.958,181.865,111.958,181.865,111.958,175.417L111.958,175.417z"/>
			</g>
		</g>
		<g>
			<g>
				<path style="fill:#FFFFFF;" d="M160.337,153.976c-7.896-7.896-15.792-15.792-23.688-23.688
					c-4.564-4.563-11.635,2.507-7.071,7.071c7.896,7.896,15.792,15.792,23.688,23.688C157.83,165.61,164.901,158.54,160.337,153.976
					L160.337,153.976z"/>
			</g>
		</g>
	</g>
</g>
<g id="Ebene_1">
</g>
</svg>
