<?xml version="1.0" encoding="iso-8859-1"?>
<!-- Generator: Adobe Illustrator 16.0.0, SVG Export Plug-In . SVG Version: 6.00 Build 0)  -->
<!DOCTYPE svg PUBLIC "-//W3C//DTD SVG 1.1//EN" "http://www.w3.org/Graphics/SVG/1.1/DTD/svg11.dtd">
<svg version="1.1" xmlns="http://www.w3.org/2000/svg" xmlns:xlink="http://www.w3.org/1999/xlink" x="0px" y="0px" width="361px"
	 height="361px" viewBox="0 0 361 361" style="enable-background:new 0 0 361 361;" xml:space="preserve">
<g id="fts_x5F_window_x5F_2w_x5F_open">
	<path style="fill:none;stroke:#FFFFFF;stroke-width:10;stroke-miterlimit:10;" d="M286.833,252.104c0,3.217-2.241,6.3-5.007,6.884
		L209.84,280.68c-2.765,0.585-5.006-1.551-5.006-4.768V153.897c0-3.217,2.241-6.299,5.006-6.884l71.986-21.692
		c2.766-0.584,5.007,1.551,5.007,4.768V252.104z"/>
	<g>
		<g>
			<path style="fill:#FFFFFF;" d="M206.707,220.089c1.938-0.399,3.874-0.8,5.812-1.199c2.67-0.551,4.179-3.654,3.492-6.15
				c-0.758-2.754-3.483-4.043-6.15-3.492c-1.938,0.399-3.874,0.8-5.812,1.199c-2.67,0.551-4.179,3.654-3.492,6.15
				C201.314,219.351,204.04,220.64,206.707,220.089L206.707,220.089z"/>
		</g>
	</g>
	<g>
		<path style="fill:none;stroke:#FFFFFF;stroke-width:10;stroke-miterlimit:10;" d="M286.816,250.303
			c0,3.91-3.156,7.082-7.049,7.082l-197.886,0.021c-3.894,0-7.05-3.171-7.05-7.083v-127.5c0-3.911,3.156-7.083,7.05-7.083
			l197.886-0.021c3.893,0,7.049,3.172,7.049,7.083V250.303z"/>
		<g>
			<g>
				<path style="fill:#FFFFFF;" d="M174.52,191.584c2.104,0,4.208,0,6.313,0c2.726,0,5-2.274,5-5s-2.273-5-5-5
					c-2.104,0-4.208,0-6.313,0c-2.726,0-5,2.274-5,5S171.794,191.584,174.52,191.584L174.52,191.584z"/>
			</g>
		</g>
		
			<line style="fill:none;stroke:#FFFFFF;stroke-width:10;stroke-miterlimit:10;" x1="180.824" y1="116.583" x2="180.824" y2="253.758"/>
		<path style="fill:none;stroke:#FFFFFF;stroke-width:10;stroke-miterlimit:10;" d="M286.816,120.208c0,2.485-2.71,4.5-6.053,4.5
			l-199.879,0.021c-3.342,0-6.052-2.015-6.052-4.5v-9c0-2.485,2.71-4.5,6.052-4.5l199.879-0.021c3.343,0,6.053,2.015,6.053,4.5
			V120.208z"/>
	</g>
</g>
<g id="Ebene_1">
</g>
</svg>
