<?xml version="1.0" encoding="iso-8859-1"?>
<!-- Generator: Adobe Illustrator 16.0.0, SVG Export Plug-In . SVG Version: 6.00 Build 0)  -->
<!DOCTYPE svg PUBLIC "-//W3C//DTD SVG 1.1//EN" "http://www.w3.org/Graphics/SVG/1.1/DTD/svg11.dtd">
<svg version="1.1" xmlns="http://www.w3.org/2000/svg" xmlns:xlink="http://www.w3.org/1999/xlink" x="0px" y="0px" width="361px"
	 height="361px" viewBox="0 0 361 361" style="enable-background:new 0 0 361 361;" xml:space="preserve">
<g id="fts_x5F_blade_x5F_arc">
	<g>
		<g>
			<g>
				<path style="fill:#FFFFFF;" d="M178.833,70.667c0,14.222,0,28.445,0,42.667c0,1.935,3,1.935,3,0c0-14.222,0-28.445,0-42.667
					C181.833,68.732,178.833,68.732,178.833,70.667L178.833,70.667z"/>
			</g>
		</g>
		<g>
			<g>
				<path style="fill:#FFFFFF;" d="M179,154c0,16.938,0,33.876,0,50.814c0,1.935,3,1.935,3,0c0-16.938,0-33.876,0-50.814
					C182,152.066,179,152.066,179,154L179,154z"/>
			</g>
		</g>
		<g>
			<g>
				<path style="fill:#FFFFFF;" d="M179,247.334c0,14.111,0,28.222,0,42.333c0,1.935,3,1.935,3,0c0-14.111,0-28.222,0-42.333
					C182,245.399,179,245.399,179,247.334L179,247.334z"/>
			</g>
		</g>
	</g>
	<g style="display:none;">
		<g style="display:inline;">
			<g>
				<path style="fill:#FFFFFF;" d="M210.117,134.19c0,9.159,0,18.318,0,27.477c0,1.935,3,1.935,3,0c0-9.159,0-18.318,0-27.477
					C213.117,132.256,210.117,132.256,210.117,134.19L210.117,134.19z"/>
			</g>
		</g>
		<g style="display:inline;">
			<g>
				<path style="fill:#FFFFFF;" d="M210.236,198c0,10.444,0,20.89,0,31.334c0,1.935,3,1.935,3,0c0-10.444,0-20.89,0-31.334
					C213.236,196.065,210.236,196.065,210.236,198L210.236,198z"/>
			</g>
		</g>
		<g style="display:inline;">
			<g>
				<path style="fill:#FFFFFF;" d="M210.236,262c0,9.171,0,18.341,0,27.512c0,1.935,3,1.935,3,0c0-9.171,0-18.341,0-27.512
					C213.236,260.065,210.236,260.065,210.236,262L210.236,262z"/>
			</g>
		</g>
	</g>
	<g>
		<g>
			<g>
				<path style="fill:#FFFFFF;" d="M79.428,195.371c52.889-55.17,133.386-75.281,206.016-51.484
					c6.146,2.014,8.758-7.644,2.658-9.643c-75.875-24.86-160.528-3.542-215.746,54.057
					C67.896,192.953,74.958,200.034,79.428,195.371L79.428,195.371z"/>
			</g>
		</g>
		<g>
			<g>
				<path style="fill:#FFFFFF;" d="M75.977,185.979c-0.945,0.944-1.89,1.89-2.835,2.834c-2.102,2.101-2.101,5.612,0,7.713
					c2.102,2.102,5.611,2.101,7.713,0c0.945-0.944,1.89-1.89,2.835-2.834c2.102-2.101,2.101-5.612,0-7.713
					C81.588,183.878,78.078,183.879,75.977,185.979L75.977,185.979z"/>
			</g>
		</g>
		<g>
			<g>
				<path style="fill:#FFFFFF;" d="M287.679,134.875c-1.305-0.288-2.609-0.576-3.914-0.864c-2.9-0.64-5.892,0.835-6.709,3.81
					c-0.758,2.753,0.905,6.068,3.809,6.709c1.305,0.288,2.609,0.576,3.914,0.864c2.9,0.64,5.892-0.835,6.709-3.81
					C292.245,138.831,290.582,135.516,287.679,134.875L287.679,134.875z"/>
			</g>
		</g>
	</g>
	<g>
		<g>
			<g>
				<path style="fill:#FFFFFF;" d="M79.428,289.367c52.89-55.17,133.386-75.28,206.016-51.483c6.146,2.014,8.758-7.645,2.658-9.643
					c-75.874-24.86-160.528-3.543-215.746,54.056C67.896,286.949,74.958,294.03,79.428,289.367L79.428,289.367z"/>
			</g>
		</g>
		<g>
			<g>
				<path style="fill:#FFFFFF;" d="M75.977,279.976c-0.945,0.945-1.89,1.89-2.835,2.835c-2.102,2.102-2.102,5.611,0,7.713
					c2.101,2.102,5.612,2.102,7.713,0c0.945-0.945,1.89-1.89,2.835-2.835c2.102-2.102,2.102-5.611,0-7.713
					C81.588,277.874,78.078,277.874,75.977,279.976L75.977,279.976z"/>
			</g>
		</g>
		<g>
			<g>
				<path style="fill:#FFFFFF;" d="M287.679,228.872c-1.305-0.288-2.609-0.576-3.914-0.863c-2.901-0.641-5.892,0.834-6.709,3.809
					c-0.758,2.753,0.905,6.069,3.809,6.709c1.305,0.288,2.609,0.576,3.914,0.863c2.901,0.641,5.892-0.834,6.709-3.809
					C292.245,232.828,290.582,229.512,287.679,228.872L287.679,228.872z"/>
			</g>
		</g>
	</g>
</g>
<g id="Ebene_1">
</g>
</svg>
