<?xml version="1.0" encoding="iso-8859-1"?>
<!-- Generator: Adobe Illustrator 16.0.0, SVG Export Plug-In . SVG Version: 6.00 Build 0)  -->
<!DOCTYPE svg PUBLIC "-//W3C//DTD SVG 1.1//EN" "http://www.w3.org/Graphics/SVG/1.1/DTD/svg11.dtd">
<svg version="1.1" xmlns="http://www.w3.org/2000/svg" xmlns:xlink="http://www.w3.org/1999/xlink" x="0px" y="0px" width="361px"
	 height="361px" viewBox="0 0 361 361" style="enable-background:new 0 0 361 361;" xml:space="preserve">
<g id="fts_x5F_blade_x5F_s_x5F_20">
	<g>
		<g>
			<path style="fill:#FFFFFF;" d="M178.833,70.667c0,14.222,0,28.445,0,42.667c0,1.935,3,1.935,3,0c0-14.222,0-28.445,0-42.667
				C181.833,68.732,178.833,68.732,178.833,70.667L178.833,70.667z"/>
		</g>
	</g>
	<g>
		<g>
			<path style="fill:#FFFFFF;" d="M179,154.082c0,13.55,0,27.1,0,40.651c0,1.935,3,1.935,3,0c0-13.551,0-27.101,0-40.651
				C182,152.147,179,152.147,179,154.082L179,154.082z"/>
		</g>
	</g>
	<g>
		<g>
			<path style="fill:#FFFFFF;" d="M179,237.334c0,17.444,0,34.889,0,52.333c0,1.935,3,1.935,3,0c0-17.444,0-34.889,0-52.333
				C182,235.399,179,235.399,179,237.334L179,237.334z"/>
		</g>
	</g>
	<g style="display:none;">
		<g style="display:inline;">
			<g>
				<path style="fill:#FFFFFF;" d="M210.117,134.19c0,9.159,0,18.318,0,27.477c0,1.935,3,1.935,3,0c0-9.159,0-18.318,0-27.477
					C213.117,132.256,210.117,132.256,210.117,134.19L210.117,134.19z"/>
			</g>
		</g>
		<g style="display:inline;">
			<g>
				<path style="fill:#FFFFFF;" d="M210.236,198c0,10.444,0,20.89,0,31.334c0,1.935,3,1.935,3,0c0-10.444,0-20.89,0-31.334
					C213.236,196.065,210.236,196.065,210.236,198L210.236,198z"/>
			</g>
		</g>
		<g style="display:inline;">
			<g>
				<path style="fill:#FFFFFF;" d="M210.236,262c0,9.171,0,18.341,0,27.512c0,1.935,3,1.935,3,0c0-9.171,0-18.341,0-27.512
					C213.236,260.065,210.236,260.065,210.236,262L210.236,262z"/>
			</g>
		</g>
	</g>
	<g>
		<g>
			<g>
				<path style="fill:#FFFFFF;" d="M117.218,240.145c12.143-10.364,24.044-20.656,39.57-25.5c10.064-3.141,20.356-3.442,30.803-3.61
					c9.773-0.158,19.632-1.618,28.961-4.55c10.986-3.452,20.874-9.408,29.231-17.287c0.975-0.918,1.92-1.868,2.908-2.772
					c1.044-0.956-0.838,0.496,0.105-0.101c0.803-0.42,0.134-0.254-2.008,0.497c-4.889,0.592-4.737-5.212-4.266-2.912
					c1.474,7.196-0.75,20.044,8.984,22.244c6.28,1.42,8.947-8.221,2.658-9.643c0.367,0.7,0.344,0.646-0.07-0.165
					c-0.449-1.173-0.643-2.533-0.802-3.77c-0.346-2.674-0.494-5.378-0.74-8.063c-0.258-2.808-0.436-5.195-2.963-6.912
					c-3.162-2.149-6.439,0.289-8.698,2.43c-7.962,7.552-16.461,13.325-26.999,16.81c-19.852,6.564-41.045,2.318-61.015,8.55
					c-16.684,5.206-29.698,16.557-42.732,27.683C105.234,237.267,112.343,244.306,117.218,240.145L117.218,240.145z"/>
			</g>
		</g>
		<g>
			<g>
				<path style="fill:#FFFFFF;" d="M112.47,231.741c-0.665,0.538-1.33,1.077-1.995,1.615c-1.064,0.861-1.598,2.543-1.598,3.856
					c0,1.44,0.579,2.838,1.598,3.856c1.018,1.019,2.416,1.598,3.856,1.598c0.483-0.065,0.967-0.13,1.45-0.195
					c0.924-0.259,1.727-0.727,2.407-1.402c0.665-0.538,1.33-1.077,1.995-1.615c1.064-0.861,1.598-2.543,1.598-3.856
					c0-1.44-0.579-2.838-1.598-3.856c-1.018-1.019-2.416-1.598-3.856-1.598c-0.483,0.065-0.967,0.13-1.45,0.195
					C113.952,230.598,113.15,231.065,112.47,231.741L112.47,231.741z"/>
			</g>
		</g>
		<g>
			<g>
				<path style="fill:#FFFFFF;" d="M252.77,197.769c-0.849-0.108-1.696-0.217-2.545-0.325c-1.035-0.132-2.268,0.528-2.97,1.23
					c-0.784,0.784-1.23,1.86-1.23,2.97s0.446,2.186,1.23,2.97c0.283,0.219,0.566,0.438,0.85,0.657c0.655,0.38,1.362,0.57,2.12,0.573
					c0.849,0.108,1.696,0.217,2.545,0.325c1.035,0.132,2.268-0.528,2.97-1.23c0.784-0.784,1.23-1.86,1.23-2.97
					s-0.446-2.186-1.23-2.97c-0.283-0.219-0.566-0.438-0.85-0.657C254.234,197.962,253.527,197.771,252.77,197.769L252.77,197.769z"
					/>
			</g>
		</g>
	</g>
	<g>
		<g>
			<g>
				<path style="fill:#FFFFFF;" d="M116.968,168.616c12.144-10.364,24.045-20.655,39.571-25.5
					c10.064-3.141,20.356-3.443,30.803-3.611c9.773-0.158,19.632-1.618,28.961-4.549c10.985-3.453,20.873-9.409,29.23-17.287
					c0.975-0.919,1.92-1.869,2.908-2.773c1.044-0.956-0.839,0.497,0.104-0.1c0.804-0.42,0.135-0.254-2.007,0.497
					c-4.889,0.59-4.737-5.212-4.266-2.912c1.474,7.194-0.749,20.047,8.985,22.243c6.28,1.417,8.948-8.224,2.658-9.643
					c0.367,0.702,0.344,0.647-0.07-0.163c-0.449-1.172-0.643-2.533-0.803-3.769c-0.346-2.674-0.493-5.379-0.74-8.063
					c-0.258-2.808-0.436-5.195-2.963-6.913c-3.162-2.149-6.44,0.289-8.698,2.43c-7.962,7.552-16.461,13.325-26.998,16.81
					c-19.852,6.564-41.045,2.32-61.015,8.551c-16.684,5.206-29.698,16.556-42.733,27.681
					C104.984,165.738,112.093,172.777,116.968,168.616L116.968,168.616z"/>
			</g>
		</g>
		<g>
			<g>
				<path style="fill:#FFFFFF;" d="M112.219,160.213c-0.664,0.538-1.328,1.075-1.992,1.613c-1.064,0.862-1.598,2.543-1.598,3.856
					c0,1.441,0.579,2.838,1.598,3.856c1.018,1.019,2.416,1.598,3.856,1.598c0.483-0.065,0.967-0.13,1.45-0.195
					c0.924-0.259,1.727-0.727,2.407-1.403c0.664-0.538,1.328-1.075,1.992-1.613c1.064-0.862,1.598-2.543,1.598-3.856
					c0-1.441-0.579-2.838-1.598-3.856c-1.018-1.019-2.416-1.598-3.856-1.598c-0.483,0.065-0.967,0.13-1.45,0.195
					C113.702,159.07,112.899,159.537,112.219,160.213L112.219,160.213z"/>
			</g>
		</g>
		<g>
			<g>
				<path style="fill:#FFFFFF;" d="M252.521,126.239c-0.849-0.107-1.696-0.215-2.545-0.323c-1.036-0.131-2.267,0.527-2.97,1.23
					c-0.784,0.784-1.23,1.86-1.23,2.97s0.446,2.186,1.23,2.97c0.283,0.219,0.566,0.438,0.85,0.657
					c0.655,0.38,1.362,0.571,2.12,0.574c0.849,0.107,1.696,0.215,2.545,0.323c1.036,0.131,2.267-0.527,2.97-1.23
					c0.784-0.784,1.23-1.86,1.23-2.97s-0.446-2.186-1.23-2.97c-0.283-0.219-0.566-0.438-0.85-0.657
					C253.986,126.433,253.279,126.242,252.521,126.239L252.521,126.239z"/>
			</g>
		</g>
	</g>
</g>
<g id="Ebene_1">
</g>
</svg>
