<?xml version="1.0" encoding="iso-8859-1"?>
<!-- Generator: Adobe Illustrator 16.0.0, SVG Export Plug-In . SVG Version: 6.00 Build 0)  -->
<!DOCTYPE svg PUBLIC "-//W3C//DTD SVG 1.1 Tiny//EN" "http://www.w3.org/Graphics/SVG/1.1/DTD/svg11-tiny.dtd">
<svg version="1.1" baseProfile="tiny" id="fts_x5F_shutter_x5F_up"
	 xmlns="http://www.w3.org/2000/svg" xmlns:xlink="http://www.w3.org/1999/xlink" x="0px" y="0px" width="361px" height="361px"
	 viewBox="0 0 361 361" xml:space="preserve">
<path fill="none" stroke="#FFFFFF" stroke-width="10" stroke-miterlimit="10" d="M236.334,190.865c0,2.916-2.364,5.28-5.28,5.28
	H83.214c-2.917,0-5.28-2.364-5.28-5.28v-95.04c0-2.916,2.364-5.28,5.28-5.28h147.84c2.916,0,5.28,2.364,5.28,5.28V190.865z"/>
<g>
	<path fill="#FFFFFF" d="M152.69,148.221c3.148,0,6.296,0,9.444,0c6.449,0,6.449-10,0-10c-3.148,0-6.296,0-9.444,0
		C146.242,138.221,146.242,148.221,152.69,148.221L152.69,148.221z"/>
</g>
<line fill="none" stroke="#FFFFFF" stroke-width="10" stroke-miterlimit="10" x1="157.31" y1="90.794" x2="157.31" y2="193.53"/>
<path fill="#FFFFFF" stroke="#FFFFFF" stroke-width="10" stroke-miterlimit="10" d="M242.067,91.649
	c0,0.407-2.531,0.738-5.653,0.738H78.121c-3.122,0-5.653-0.331-5.653-0.738V78.374c0-0.407,2.531-0.738,5.653-0.738h158.293
	c3.122,0,5.653,0.331,5.653,0.738V91.649z"/>
<g>
	<path fill="#FFFFFF" d="M72.734,106.044c49.739,0,99.478,0.001,149.216,0.002c6.75,0,13.5,0,20.25,0c4.514,0,4.514-7,0-7
		c-49.739,0-99.478-0.001-149.216-0.002c-6.75,0-13.5,0-20.25,0C68.22,99.044,68.22,106.044,72.734,106.044L72.734,106.044z"/>
</g>
<g>
	<path fill="#FFFFFF" d="M72.734,116.444c49.739,0,99.478,0.001,149.216,0.002c6.75,0,13.5,0,20.25,0c4.514,0,4.514-7,0-7
		c-49.739,0-99.478-0.001-149.216-0.002c-6.75,0-13.5,0-20.25,0C68.22,109.444,68.22,116.444,72.734,116.444L72.734,116.444z"/>
</g>
<g>
	<path fill="#FFFFFF" d="M72.734,126.844c49.739,0,99.478,0.001,149.216,0.002c6.75,0,13.5,0,20.25,0c4.514,0,4.514-7,0-7
		c-49.739,0-99.478-0.001-149.216-0.002c-6.75,0-13.5,0-20.25,0C68.22,119.844,68.22,126.844,72.734,126.844L72.734,126.844z"/>
</g>
<g>
	<path fill="#FFFFFF" d="M72.734,137.244c49.739,0,99.478,0.001,149.216,0.002c6.75,0,13.5,0,20.25,0c4.514,0,4.514-7,0-7
		c-49.739,0-99.478-0.001-149.216-0.002c-6.75,0-13.5,0-20.25,0C68.22,130.244,68.22,137.244,72.734,137.244L72.734,137.244z"/>
</g>
<g>
	<path fill="#FFFFFF" d="M72.795,147.521c49.739,0,99.478,0.001,149.216,0.002c6.75,0,13.5,0,20.25,0c4.514,0,4.514-7,0-7
		c-49.739,0-99.478-0.001-149.216-0.002c-6.75,0-13.5,0-20.25,0C68.281,140.521,68.281,147.521,72.795,147.521L72.795,147.521z"/>
</g>
<g>
	<path fill="#FFFFFF" d="M72.795,157.921c49.739,0,99.478,0.001,149.216,0.002c6.75,0,13.5,0,20.25,0c4.514,0,4.514-7,0-7
		c-49.739,0-99.478-0.001-149.216-0.002c-6.75,0-13.5,0-20.25,0C68.281,150.921,68.281,157.921,72.795,157.921L72.795,157.921z"/>
</g>
<g>
	<path fill="#FFFFFF" d="M72.795,168.321c49.739,0,99.478,0.001,149.216,0.002c6.75,0,13.5,0,20.25,0c4.514,0,4.514-7,0-7
		c-49.739,0-99.478-0.001-149.216-0.002c-6.75,0-13.5,0-20.25,0C68.281,161.321,68.281,168.321,72.795,168.321L72.795,168.321z"/>
</g>
<g>
	<path fill="#FFFFFF" d="M72.795,178.721c49.739,0,99.478,0.001,149.216,0.002c6.75,0,13.5,0,20.25,0c4.514,0,4.514-7,0-7
		c-49.739,0-99.478-0.001-149.216-0.002c-6.75,0-13.5,0-20.25,0C68.281,171.721,68.281,178.721,72.795,178.721L72.795,178.721z"/>
</g>
<path fill="none" stroke="#FFFFFF" stroke-width="10" stroke-miterlimit="10" d="M269.47,272.683c1.464,0,2.651,0.371,2.651,0.828
	v14.345c0,0.457-1.188,0.827-2.651,0.827h-51.698c-1.464,0-2.65-0.37-2.65-0.827v-14.345c0-0.457,1.187-0.828,2.65-0.828H269.47z"/>
<g>
	<path fill="#FFFFFF" d="M208.157,274.853c13.375-17.5,26.75-35,40.126-52.5c-2.878,0-5.756,0-8.635,0
		c13.375,17.5,26.75,35,40.125,52.5c1.439-2.508,2.878-5.016,4.317-7.523c-26.75,0-53.5,0-80.251,0c-6.449,0-6.449,10,0,10
		c26.75,0,53.5,0,80.251,0c3.435,0,6.707-4.396,4.317-7.523c-13.375-17.5-26.75-35-40.125-52.5c-2.429-3.178-6.206-3.178-8.635,0
		c-13.375,17.5-26.75,35-40.126,52.5C195.604,274.931,204.297,279.902,208.157,274.853z"/>
</g>
</svg>
