<?xml version="1.0" encoding="iso-8859-1"?>
<!-- Generator: Adobe Illustrator 16.0.0, SVG Export Plug-In . SVG Version: 6.00 Build 0)  -->
<!DOCTYPE svg PUBLIC "-//W3C//DTD SVG 1.1//EN" "http://www.w3.org/Graphics/SVG/1.1/DTD/svg11.dtd">
<svg version="1.1" xmlns="http://www.w3.org/2000/svg" xmlns:xlink="http://www.w3.org/1999/xlink" x="0px" y="0px" width="361px"
	 height="361px" viewBox="0 0 361 361" style="enable-background:new 0 0 361 361;" xml:space="preserve">
<g id="fts_x5F_blade_x5F_s_x5F_10">
	<g>
		<g>
			<path style="fill:#FFFFFF;" d="M178.833,70.667c0,14.222,0,28.445,0,42.667c0,1.935,3,1.935,3,0c0-14.222,0-28.445,0-42.667
				C181.833,68.732,178.833,68.732,178.833,70.667L178.833,70.667z"/>
		</g>
	</g>
	<g>
		<g>
			<path style="fill:#FFFFFF;" d="M179,154.082c0,13.55,0,27.1,0,40.651c0,1.935,3,1.935,3,0c0-13.551,0-27.101,0-40.651
				C182,152.147,179,152.147,179,154.082L179,154.082z"/>
		</g>
	</g>
	<g>
		<g>
			<path style="fill:#FFFFFF;" d="M179,237.334c0,17.444,0,34.889,0,52.333c0,1.935,3,1.935,3,0c0-17.444,0-34.889,0-52.333
				C182,235.399,179,235.399,179,237.334L179,237.334z"/>
		</g>
	</g>
	<g style="display:none;">
		<g style="display:inline;">
			<g>
				<path style="fill:#FFFFFF;" d="M210.117,134.19c0,9.159,0,18.318,0,27.477c0,1.935,3,1.935,3,0c0-9.159,0-18.318,0-27.477
					C213.117,132.256,210.117,132.256,210.117,134.19L210.117,134.19z"/>
			</g>
		</g>
		<g style="display:inline;">
			<g>
				<path style="fill:#FFFFFF;" d="M210.236,198c0,10.444,0,20.89,0,31.334c0,1.935,3,1.935,3,0c0-10.444,0-20.89,0-31.334
					C213.236,196.065,210.236,196.065,210.236,198L210.236,198z"/>
			</g>
		</g>
		<g style="display:inline;">
			<g>
				<path style="fill:#FFFFFF;" d="M210.236,262c0,9.171,0,18.341,0,27.512c0,1.935,3,1.935,3,0c0-9.171,0-18.341,0-27.512
					C213.236,260.065,210.236,260.065,210.236,262L210.236,262z"/>
			</g>
		</g>
	</g>
	<g>
		<g>
			<g>
				<path style="fill:#FFFFFF;" d="M113.418,232.246c13.883-9.184,27.337-18.144,44.042-21.077
					c10.745-1.888,21.478-0.416,32.212,0.575c9.31,0.86,18.699,0.366,27.881-1.361c11.026-2.073,21.372-6.839,30.338-13.524
					c0.99-0.738,1.961-1.507,2.987-2.196c1.068-0.718-0.129-0.043-0.121-0.045c-2.961,0.138-4.787-0.879-5.478-3.052
					c-0.367-1.281-0.122-1.317-0.163,0.971c-0.14,7.65-2.234,18.896,6.865,22.158c6.085,2.183,8.682-7.482,2.658-9.643
					c0.792,0.767,0.926,0.576,0.401-0.571c-0.299-1.2-0.165-2.63-0.173-3.851c-0.018-2.696,0.165-5.399,0.248-8.094
					c0.063-2.054,0.125-4.691-1.636-6.175c-3.02-2.544-6.13-1.498-8.948,0.593c-8.759,6.497-17.729,11.192-28.487,13.552
					c-20.306,4.455-40.783-2.197-61.244,1.02c-17.442,2.743-32.025,12.557-46.431,22.086
					C103.02,227.151,108.023,235.815,113.418,232.246L113.418,232.246z"/>
			</g>
		</g>
		<g>
			<g>
				<path style="fill:#FFFFFF;" d="M110.889,222.537c-0.725,0.453-1.45,0.907-2.176,1.361c-2.515,1.573-3.493,4.839-1.957,7.462
					c1.468,2.505,4.94,3.534,7.462,1.956c0.725-0.453,1.45-0.907,2.176-1.361c2.515-1.573,3.493-4.839,1.957-7.462
					C116.883,221.988,113.411,220.959,110.889,222.537L110.889,222.537z"/>
			</g>
		</g>
		<g>
			<g>
				<path style="fill:#FFFFFF;" d="M254.283,206.449c-0.828-0.211-1.657-0.423-2.486-0.634c-2.217-0.565-4.551,0.696-5.166,2.934
					c-0.599,2.174,0.716,4.601,2.934,5.166c0.828,0.212,1.657,0.423,2.486,0.634c2.217,0.565,4.551-0.696,5.166-2.934
					C257.815,209.441,256.501,207.015,254.283,206.449L254.283,206.449z"/>
			</g>
		</g>
	</g>
	<g>
		<g>
			<g>
				<path style="fill:#FFFFFF;" d="M113.167,160.718c13.884-9.183,27.339-18.143,44.044-21.076
					c10.745-1.887,21.479-0.416,32.213,0.576c9.31,0.86,18.699,0.365,27.881-1.362c11.025-2.074,21.37-6.84,30.336-13.525
					c0.99-0.739,1.961-1.507,2.987-2.196c1.067-0.717-0.13-0.043-0.121-0.045c-2.961,0.139-4.787-0.878-5.478-3.051
					c-0.368-1.281-0.122-1.318-0.163,0.972c-0.138,7.649-2.233,18.895,6.866,22.156c6.086,2.182,8.682-7.483,2.658-9.643
					c0.792,0.768,0.926,0.577,0.401-0.57c-0.298-1.2-0.165-2.629-0.173-3.85c-0.018-2.696,0.165-5.399,0.247-8.093
					c0.063-2.055,0.125-4.692-1.636-6.176c-3.019-2.544-6.13-1.499-8.948,0.592c-8.76,6.497-17.728,11.192-28.486,13.553
					c-20.306,4.456-40.782-2.196-61.244,1.021c-17.442,2.743-32.026,12.556-46.433,22.084
					C102.769,155.623,107.771,164.287,113.167,160.718L113.167,160.718z"/>
			</g>
		</g>
		<g>
			<g>
				<path style="fill:#FFFFFF;" d="M110.637,151.01c-0.724,0.453-1.449,0.906-2.173,1.359c-2.516,1.573-3.493,4.84-1.957,7.462
					c1.468,2.506,4.939,3.534,7.462,1.957c0.724-0.453,1.449-0.906,2.173-1.359c2.516-1.573,3.493-4.84,1.957-7.462
					C116.631,150.461,113.16,149.433,110.637,151.01L110.637,151.01z"/>
			</g>
		</g>
		<g>
			<g>
				<path style="fill:#FFFFFF;" d="M254.034,134.919c-0.828-0.21-1.657-0.421-2.486-0.631c-2.217-0.563-4.551,0.695-5.166,2.933
					c-0.598,2.173,0.715,4.604,2.934,5.167c0.828,0.21,1.657,0.421,2.486,0.631c2.217,0.563,4.551-0.695,5.166-2.933
					C257.565,137.912,256.253,135.482,254.034,134.919L254.034,134.919z"/>
			</g>
		</g>
	</g>
</g>
<g id="Ebene_1">
</g>
</svg>
