<?xml version="1.0" encoding="iso-8859-1"?>
<!-- Generator: Adobe Illustrator 16.0.3, SVG Export Plug-In . SVG Version: 6.00 Build 0)  -->
<!DOCTYPE svg PUBLIC "-//W3C//DTD SVG 1.1//EN" "http://www.w3.org/Graphics/SVG/1.1/DTD/svg11.dtd">
<svg version="1.1" xmlns="http://www.w3.org/2000/svg" xmlns:xlink="http://www.w3.org/1999/xlink" x="0px" y="0px" width="361px"
	 height="361px" viewBox="0 0 361 361" style="enable-background:new 0 0 361 361;" xml:space="preserve">
<g id="fts_x5F_blade_x5F_arc_x5F_-10">
	<g>
		<g>
			<g>
				<path style="fill:#FFFFFF;" d="M114.305,203.668c47.097-11.333,96.357,5.511,127.076,42.851c4.1,4.984,11.133-2.134,7.07-7.07
					c-32.965-40.071-86.479-57.533-136.805-45.423C105.378,195.533,108.038,205.176,114.305,203.668L114.305,203.668z"/>
			</g>
		</g>
		<g>
			<g>
				<path style="fill:#FFFFFF;" d="M114.342,193.865c-0.835,0.184-1.67,0.367-2.505,0.551c-2.904,0.638-4.566,3.958-3.81,6.709
					c0.375,1.363,1.287,2.545,2.506,3.259c1.313,0.77,2.744,0.871,4.203,0.55c0.835-0.184,1.67-0.367,2.505-0.551
					c2.904-0.638,4.566-3.958,3.81-6.709c-0.375-1.363-1.287-2.545-2.506-3.259C117.232,193.646,115.801,193.544,114.342,193.865
					L114.342,193.865z"/>
			</g>
		</g>
		<g>
			<g>
				<path style="fill:#FFFFFF;" d="M248.11,239.515c-0.604-0.604-1.21-1.208-1.814-1.812c-2.103-2.1-5.61-2.103-7.713,0
					c-2.101,2.1-2.104,5.613,0,7.713c0.604,0.604,1.21,1.208,1.814,1.812c2.103,2.1,5.61,2.103,7.713,0
					C250.211,245.128,250.214,241.614,248.11,239.515L248.11,239.515z"/>
			</g>
		</g>
	</g>
	<g>
		<g>
			<path style="fill:#FFFFFF;" d="M178.833,71.667c0,5.416,0,10.832,0,16.248c0,1.935,3,1.935,3,0c0-5.416,0-10.832,0-16.248
				C181.833,69.732,178.833,69.732,178.833,71.667L178.833,71.667z"/>
		</g>
	</g>
	<g>
		<g>
			<path style="fill:#FFFFFF;" d="M179,142.989c0,7.612,0,15.225,0,22.837c0,1.935,3,1.935,3,0c0-7.612,0-15.225,0-22.837
				C182,141.055,179,141.055,179,142.989L179,142.989z"/>
		</g>
	</g>
	<g>
		<g>
			<path style="fill:#FFFFFF;" d="M179,217.986c0,23.894,0,47.787,0,71.681c0,1.935,3,1.935,3,0c0-23.894,0-47.787,0-71.681
				C182,216.052,179,216.052,179,217.986L179,217.986z"/>
		</g>
	</g>
	<g>
		<g>
			<path style="fill:#FFFFFF;" d="M179,134c0,7.612,0,15.225,0,22.837c0,1.935,3,1.935,3,0c0-7.612,0-15.225,0-22.837
				C182,132.066,179,132.066,179,134L179,134z"/>
		</g>
	</g>
	<g>
		<g>
			<g>
				<path style="fill:#FFFFFF;" d="M113.096,123.43c47.097-11.333,96.357,5.511,127.076,42.851c4.1,4.984,11.133-2.134,7.07-7.071
					c-32.965-40.071-86.479-57.532-136.804-45.422C104.17,115.295,106.829,124.938,113.096,123.43L113.096,123.43z"/>
			</g>
		</g>
		<g>
			<g>
				<path style="fill:#FFFFFF;" d="M113.134,113.626c-0.835,0.184-1.671,0.367-2.506,0.551c-2.904,0.638-4.566,3.958-3.81,6.709
					c0.375,1.363,1.287,2.545,2.506,3.26c1.313,0.769,2.744,0.871,4.203,0.55c0.835-0.184,1.671-0.367,2.506-0.551
					c2.904-0.638,4.566-3.958,3.81-6.709c-0.375-1.363-1.287-2.545-2.506-3.26C116.023,113.407,114.593,113.306,113.134,113.626
					L113.134,113.626z"/>
			</g>
		</g>
		<g>
			<g>
				<path style="fill:#FFFFFF;" d="M246.901,159.276c-0.604-0.604-1.209-1.208-1.813-1.812c-2.103-2.1-5.611-2.102-7.713,0
					c-2.101,2.1-2.103,5.613,0,7.713c0.604,0.604,1.209,1.208,1.813,1.812c2.103,2.1,5.611,2.102,7.713,0
					C249.002,164.889,249.004,161.376,246.901,159.276L246.901,159.276z"/>
			</g>
		</g>
	</g>
</g>
<g id="Ebene_1">
</g>
</svg>
