<?xml version="1.0" encoding="iso-8859-1"?>
<!-- Generator: Adobe Illustrator 16.0.0, SVG Export Plug-In . SVG Version: 6.00 Build 0)  -->
<!DOCTYPE svg PUBLIC "-//W3C//DTD SVG 1.1//EN" "http://www.w3.org/Graphics/SVG/1.1/DTD/svg11.dtd">
<svg version="1.1" xmlns="http://www.w3.org/2000/svg" xmlns:xlink="http://www.w3.org/1999/xlink" x="0px" y="0px" width="361px"
	 height="361px" viewBox="0 0 361 361" style="enable-background:new 0 0 361 361;" xml:space="preserve">
<g id="fts_x5F_blade_x5F_z_x5F_60">
	<g>
		<g>
			<path style="fill:#FFFFFF;" d="M178.833,70.667c0,19.833,0,39.667,0,59.5c0,1.935,3,1.935,3,0c0-19.833,0-39.667,0-59.5
				C181.833,68.732,178.833,68.732,178.833,70.667L178.833,70.667z"/>
		</g>
	</g>
	<g>
		<g>
			<path style="fill:#FFFFFF;" d="M179,159.082c0,13.55,0,27.1,0,40.651c0,1.935,3,1.935,3,0c0-13.551,0-27.101,0-40.651
				C182,157.147,179,157.147,179,159.082L179,159.082z"/>
		</g>
	</g>
	<g>
		<g>
			<path style="fill:#FFFFFF;" d="M179,230.667c0,19.667,0,39.333,0,59c0,1.935,3,1.935,3,0c0-19.667,0-39.333,0-59
				C182,228.732,179,228.732,179,230.667L179,230.667z"/>
		</g>
	</g>
	<g style="display:none;">
		<g style="display:inline;">
			<g>
				<path style="fill:#FFFFFF;" d="M210.117,134.19c0,9.159,0,18.318,0,27.477c0,1.935,3,1.935,3,0c0-9.159,0-18.318,0-27.477
					C213.117,132.256,210.117,132.256,210.117,134.19L210.117,134.19z"/>
			</g>
		</g>
		<g style="display:inline;">
			<g>
				<path style="fill:#FFFFFF;" d="M210.236,198c0,10.444,0,20.89,0,31.334c0,1.935,3,1.935,3,0c0-10.444,0-20.89,0-31.334
					C213.236,196.065,210.236,196.065,210.236,198L210.236,198z"/>
			</g>
		</g>
		<g style="display:inline;">
			<g>
				<path style="fill:#FFFFFF;" d="M210.236,262c0,9.171,0,18.341,0,27.512c0,1.935,3,1.935,3,0c0-9.171,0-18.341,0-27.512
					C213.236,260.065,210.236,260.065,210.236,262L210.236,262z"/>
			</g>
		</g>
	</g>
	<g>
		<g>
			<g>
				<g>
					<path style="fill:#FFFFFF;" d="M171.235,153.906c7.02-1.158,14.04-2.315,21.059-3.474c6.352-1.047,3.647-10.683-2.658-9.643
						c-7.02,1.158-14.04,2.315-21.059,3.474C162.226,145.311,164.929,154.947,171.235,153.906L171.235,153.906z"/>
				</g>
			</g>
			<g>
				<g>
					<path style="fill:#FFFFFF;" d="M195.135,149.052c16.401-15.474,32.803-30.948,49.203-46.422
						c4.699-4.434-2.385-11.492-7.07-7.071c-16.401,15.474-32.803,30.948-49.203,46.422
						C183.365,146.415,190.449,153.473,195.135,149.052L195.135,149.052z"/>
				</g>
			</g>
			<g>
				<g>
					<path style="fill:#FFFFFF;" d="M124.238,199.039c16.401-15.473,32.802-30.946,49.203-46.418
						c4.699-4.434-2.385-11.492-7.071-7.071c-16.401,15.473-32.802,30.946-49.203,46.419
						C112.468,196.401,119.552,203.46,124.238,199.039L124.238,199.039z"/>
				</g>
			</g>
		</g>
		<g>
			<g>
				<path style="fill:#FFFFFF;" d="M119.708,190.428c-0.635,0.573-1.269,1.147-1.903,1.721c-2.206,1.994-2.022,5.691,0,7.713
					c1.018,1.019,2.416,1.598,3.856,1.598c1.502,0,2.763-0.609,3.856-1.598c0.635-0.573,1.269-1.147,1.903-1.721
					c2.206-1.994,2.022-5.691,0-7.713c-1.018-1.019-2.416-1.598-3.856-1.598C122.063,188.83,120.802,189.439,119.708,190.428
					L119.708,190.428z"/>
			</g>
		</g>
		<g>
			<g>
				<path style="fill:#FFFFFF;" d="M237.026,95.706c-0.617,0.591-1.234,1.183-1.852,1.774c-2.146,2.057-2.068,5.645,0,7.713
					c2.135,2.135,5.568,2.056,7.713,0c0.617-0.591,1.234-1.183,1.852-1.774c2.146-2.057,2.068-5.645,0-7.713
					C242.604,93.571,239.171,93.65,237.026,95.706L237.026,95.706z"/>
			</g>
		</g>
	</g>
	<g>
		<g>
			<g>
				<g>
					<path style="fill:#FFFFFF;" d="M170.874,220.524c7.02-1.157,14.039-2.315,21.058-3.473c6.352-1.047,3.648-10.683-2.658-9.643
						c-7.02,1.157-14.039,2.315-21.058,3.473C161.864,211.929,164.567,221.564,170.874,220.524L170.874,220.524z"/>
				</g>
			</g>
			<g>
				<g>
					<path style="fill:#FFFFFF;" d="M194.772,215.668c16.401-15.473,32.803-30.946,49.204-46.42
						c4.699-4.434-2.385-11.492-7.07-7.071c-16.401,15.474-32.803,30.947-49.204,46.421
						C183.003,213.03,190.087,220.089,194.772,215.668L194.772,215.668z"/>
				</g>
			</g>
			<g>
				<g>
					<path style="fill:#FFFFFF;" d="M123.876,265.658c16.401-15.473,32.803-30.946,49.204-46.42
						c4.699-4.433-2.385-11.491-7.071-7.07c-16.401,15.473-32.803,30.946-49.204,46.42
						C112.105,263.021,119.19,270.079,123.876,265.658L123.876,265.658z"/>
				</g>
			</g>
		</g>
		<g>
			<g>
				<path style="fill:#FFFFFF;" d="M119.346,257.048c-0.634,0.573-1.269,1.146-1.903,1.719c-2.207,1.993-2.021,5.691,0,7.713
					c1.018,1.019,2.416,1.598,3.856,1.598c1.502,0,2.763-0.609,3.856-1.598c0.634-0.573,1.269-1.146,1.903-1.719
					c2.207-1.993,2.021-5.691,0-7.713c-1.018-1.019-2.416-1.598-3.856-1.598C121.7,255.45,120.44,256.06,119.346,257.048
					L119.346,257.048z"/>
			</g>
		</g>
		<g>
			<g>
				<path style="fill:#FFFFFF;" d="M236.667,162.324c-0.618,0.592-1.237,1.184-1.855,1.775c-2.147,2.055-2.066,5.646,0,7.713
					c2.136,2.136,5.566,2.054,7.713,0c0.618-0.592,1.237-1.184,1.855-1.775c2.147-2.055,2.066-5.646,0-7.713
					C242.244,160.188,238.813,160.27,236.667,162.324L236.667,162.324z"/>
			</g>
		</g>
	</g>
</g>
<g id="Ebene_1">
</g>
</svg>
