<?xml version="1.0" encoding="iso-8859-1"?>
<!-- Generator: Adobe Illustrator 16.0.0, SVG Export Plug-In . SVG Version: 6.00 Build 0)  -->
<!DOCTYPE svg PUBLIC "-//W3C//DTD SVG 1.1 Tiny//EN" "http://www.w3.org/Graphics/SVG/1.1/DTD/svg11-tiny.dtd">
<svg version="1.1" baseProfile="tiny" id="fts_x5F_window_x5F_louvre"
	 xmlns="http://www.w3.org/2000/svg" xmlns:xlink="http://www.w3.org/1999/xlink" x="0px" y="0px" width="361px" height="361px"
	 viewBox="0 0 361 361" xml:space="preserve">
<path fill="none" stroke="#FFFFFF" stroke-width="10" stroke-miterlimit="10" d="M236.179,77.942c3.52,0,6.374,3.156,6.374,7.049
	l0.019,197.885c0,3.894-2.854,7.05-6.374,7.05H121.446c-3.52,0-6.375-3.156-6.375-7.05l-0.019-197.885
	c0-3.893,2.855-7.049,6.375-7.049H236.179z"/>
<g>
	<path fill="#FFFFFF" d="M229.036,87.384c5.15,0.533,4.115,5.367,4.117,8.465c0.003,4.028,0.005,8.057,0.008,12.085
		c0.002,4.111,1.572,11.923-5.129,11.923c-10.946,0-21.892,0-32.837,0c-15.838,0-31.676,0-47.514,0c-5.257,0-10.514,0-15.771,0
		c-3.56,0-8.028-0.059-8.032-5.166c-0.004-6.537-0.008-13.073-0.013-19.61c-0.001-2.977-0.895-7.178,4.111-7.697
		c0.583-0.061,1.205,0,1.79,0c10.689,0,21.379,0,32.069,0C184.234,87.384,206.635,87.384,229.036,87.384c1.935,0,1.935-3,0-3
		c-24.557,0-49.113,0-73.67,0c-9.113,0-18.226,0-27.338,0c-6.587,0-7.167,5.69-7.164,10.697c0.004,6.827,0.009,13.654,0.013,20.481
		c0.006,9.624,13.029,7.295,19.337,7.295c15.09,0,30.179,0,45.269,0c13.076,0,26.151,0,39.227,0c2.844,0,6.632,0.504,8.914-1.549
		c4.103-3.69,2.538-11.287,2.535-16.227c-0.004-7.049,2.802-19.669-7.123-20.697C227.112,84.185,227.131,87.187,229.036,87.384z"/>
</g>
<g>
	<path fill="#FFFFFF" d="M229.036,208.314c5.15,0.534,4.115,5.368,4.117,8.465c0.003,4.028,0.005,8.056,0.008,12.084
		c0.002,4.111,1.572,11.923-5.129,11.923c-10.946,0-21.892,0-32.837,0c-15.838,0-31.676,0-47.514,0c-5.257,0-10.514,0-15.771,0
		c-3.56,0-8.028-0.059-8.032-5.166c-0.004-6.536-0.008-13.073-0.013-19.609c-0.001-2.977-0.895-7.178,4.111-7.697
		c0.583-0.061,1.205,0,1.79,0c10.689,0,21.379,0,32.069,0C184.234,208.314,206.635,208.314,229.036,208.314c1.935,0,1.935-3,0-3
		c-24.557,0-49.113,0-73.67,0c-9.113,0-18.226,0-27.338,0c-6.587,0-7.167,5.691-7.164,10.697c0.004,6.827,0.009,13.654,0.013,20.48
		c0.006,9.624,13.029,7.295,19.337,7.295c15.09,0,30.179,0,45.269,0c13.076,0,26.151,0,39.227,0c2.843,0,6.632,0.504,8.914-1.548
		c4.103-3.689,2.538-11.288,2.535-16.228c-0.004-7.049,2.802-19.668-7.123-20.697C227.112,205.115,227.131,208.117,229.036,208.314z
		"/>
</g>
<g>
	<path fill="#FFFFFF" d="M229.036,168.004c5.15,0.534,4.115,5.367,4.117,8.465c0.003,4.028,0.005,8.057,0.008,12.085
		c0.002,4.111,1.572,11.923-5.129,11.923c-10.946,0-21.892,0-32.837,0c-15.838,0-31.676,0-47.514,0c-5.257,0-10.514,0-15.771,0
		c-3.56,0-8.028-0.059-8.032-5.166c-0.004-6.537-0.008-13.073-0.013-19.61c-0.001-2.977-0.895-7.179,4.111-7.697
		c0.583-0.061,1.205,0,1.79,0c10.689,0,21.379,0,32.069,0C184.234,168.004,206.635,168.004,229.036,168.004c1.935,0,1.935-3,0-3
		c-24.557,0-49.113,0-73.67,0c-9.113,0-18.226,0-27.338,0c-6.587,0-7.167,5.691-7.164,10.697c0.004,6.827,0.009,13.654,0.013,20.481
		c0.006,9.623,13.029,7.294,19.337,7.294c15.09,0,30.179,0,45.269,0c13.076,0,26.151,0,39.227,0c2.844,0,6.632,0.504,8.914-1.548
		c4.103-3.69,2.538-11.288,2.535-16.228c-0.004-7.049,2.802-19.668-7.123-20.697C227.112,164.805,227.131,167.807,229.036,168.004z"
		/>
</g>
<g>
	<path fill="#FFFFFF" d="M229.036,127.694c5.15,0.534,4.115,5.368,4.117,8.465c0.003,4.028,0.005,8.057,0.008,12.085
		c0.002,4.111,1.572,11.923-5.129,11.923c-10.946,0-21.892,0-32.837,0c-15.838,0-31.676,0-47.514,0c-5.257,0-10.514,0-15.771,0
		c-3.56,0-8.028-0.059-8.032-5.166c-0.004-6.537-0.008-13.073-0.013-19.61c-0.001-2.977-0.895-7.179,4.111-7.698
		c0.583-0.061,1.205,0,1.79,0c10.689,0,21.379,0,32.069,0C184.234,127.694,206.635,127.694,229.036,127.694c1.935,0,1.935-3,0-3
		c-24.557,0-49.113,0-73.67,0c-9.113,0-18.226,0-27.338,0c-6.587,0-7.167,5.691-7.164,10.698c0.004,6.827,0.009,13.654,0.013,20.481
		c0.006,9.623,13.029,7.294,19.337,7.294c15.09,0,30.179,0,45.269,0c13.076,0,26.151,0,39.227,0c2.844,0,6.632,0.504,8.914-1.548
		c4.103-3.69,2.538-11.288,2.535-16.228c-0.004-7.049,2.802-19.669-7.123-20.697C227.112,124.495,227.131,127.497,229.036,127.694z"
		/>
</g>
<g>
	<path fill="#FFFFFF" d="M229.036,248.625c5.15,0.533,4.115,5.368,4.117,8.465c0.003,4.028,0.005,8.056,0.008,12.084
		c0.002,4.111,1.572,11.923-5.129,11.923c-10.946,0-21.892,0-32.837,0c-15.838,0-31.676,0-47.514,0c-5.257,0-10.514,0-15.771,0
		c-3.56,0-8.028-0.059-8.032-5.166c-0.004-6.536-0.008-13.073-0.013-19.609c-0.001-2.977-0.895-7.179,4.111-7.697
		c0.583-0.061,1.205,0,1.79,0c10.689,0,21.379,0,32.069,0C184.234,248.625,206.635,248.625,229.036,248.625c1.935,0,1.935-3,0-3
		c-24.557,0-49.113,0-73.67,0c-9.113,0-18.226,0-27.338,0c-6.587,0-7.167,5.691-7.164,10.697c0.004,6.827,0.009,13.654,0.013,20.48
		c0.006,9.624,13.029,7.295,19.337,7.295c15.09,0,30.179,0,45.269,0c13.076,0,26.151,0,39.227,0c2.844,0,6.632,0.504,8.914-1.549
		c4.103-3.69,2.538-11.287,2.535-16.227c-0.004-7.049,2.802-19.669-7.123-20.697C227.112,245.426,227.131,248.428,229.036,248.625z"
		/>
</g>
</svg>
