<?xml version="1.0" encoding="iso-8859-1"?>
<!-- Generator: Adobe Illustrator 16.0.0, SVG Export Plug-In . SVG Version: 6.00 Build 0)  -->
<!DOCTYPE svg PUBLIC "-//W3C//DTD SVG 1.1//EN" "http://www.w3.org/Graphics/SVG/1.1/DTD/svg11.dtd">
<svg version="1.1" xmlns="http://www.w3.org/2000/svg" xmlns:xlink="http://www.w3.org/1999/xlink" x="0px" y="0px" width="361px"
	 height="361px" viewBox="0 0 361 361" style="enable-background:new 0 0 361 361;" xml:space="preserve">
<g id="fts_x5F_blade_x5F_arc_x5F_sun">
	<g>
		<g>
			<g>
				<path style="fill:#FFFFFF;" d="M208.472,133.705c0,10.128,0,20.257,0,30.386c0,1.935,3,1.935,3,0c0-10.128,0-20.257,0-30.386
					C211.472,131.771,208.472,131.771,208.472,133.705L208.472,133.705z"/>
			</g>
		</g>
		<g>
			<g>
				<path style="fill:#FFFFFF;" d="M208.59,193.051c0,12.063,0,24.126,0,36.188c0,1.935,3,1.935,3,0c0-12.063,0-24.126,0-36.188
					C211.59,191.116,208.59,191.116,208.59,193.051L208.59,193.051z"/>
			</g>
		</g>
		<g>
			<g>
				<path style="fill:#FFFFFF;" d="M208.59,259.52c0,10.049,0,20.099,0,30.147c0,1.935,3,1.935,3,0c0-10.049,0-20.099,0-30.147
					C211.59,257.585,208.59,257.585,208.59,259.52L208.59,259.52z"/>
			</g>
		</g>
	</g>
	<g style="display:none;">
		<g style="display:inline;">
			<g>
				<path style="fill:#FFFFFF;" d="M210.117,134.19c0,9.159,0,18.318,0,27.477c0,1.935,3,1.935,3,0c0-9.159,0-18.318,0-27.477
					C213.117,132.256,210.117,132.256,210.117,134.19L210.117,134.19z"/>
			</g>
		</g>
		<g style="display:inline;">
			<g>
				<path style="fill:#FFFFFF;" d="M210.236,198c0,10.444,0,20.89,0,31.334c0,1.935,3,1.935,3,0c0-10.444,0-20.89,0-31.334
					C213.236,196.065,210.236,196.065,210.236,198L210.236,198z"/>
			</g>
		</g>
		<g style="display:inline;">
			<g>
				<path style="fill:#FFFFFF;" d="M210.236,262c0,9.171,0,18.341,0,27.512c0,1.935,3,1.935,3,0c0-9.171,0-18.341,0-27.512
					C213.236,260.065,210.236,260.065,210.236,262L210.236,262z"/>
			</g>
		</g>
	</g>
	<g>
		<g>
			<g>
				<path style="fill:#FFFFFF;" d="M140.129,221.531c37.446-38.939,93.957-53.037,145.315-36.294
					c6.148,2.004,8.762-7.653,2.658-9.643c-54.609-17.803-115.263-2.502-155.044,38.867
					C128.59,219.107,135.652,226.188,140.129,221.531L140.129,221.531z"/>
			</g>
		</g>
		<g>
			<g>
				<path style="fill:#FFFFFF;" d="M136.925,216.097c-0.673,0.673-1.346,1.346-2.02,2.019c-1.349,1.348-1.348,3.602,0,4.949
					c1.349,1.349,3.601,1.349,4.95,0c0.673-0.673,1.346-1.346,2.02-2.019c1.349-1.348,1.348-3.602,0-4.949
					C140.526,214.748,138.274,214.748,136.925,216.097L136.925,216.097z"/>
			</g>
		</g>
		<g>
			<g>
				<path style="fill:#FFFFFF;" d="M287.316,179.803c-0.93-0.206-1.859-0.411-2.788-0.616c-1.861-0.411-3.78,0.536-4.306,2.444
					c-0.486,1.768,0.581,3.894,2.444,4.306c0.93,0.205,1.859,0.411,2.788,0.616c1.861,0.411,3.78-0.536,4.306-2.444
					C290.247,182.341,289.18,180.214,287.316,179.803L287.316,179.803z"/>
			</g>
		</g>
	</g>
	<g>
		<g>
			<g>
				<path style="fill:#FFFFFF;" d="M140.129,288.471c37.446-38.939,93.957-53.036,145.315-36.294
					c6.148,2.005,8.762-7.653,2.658-9.643c-54.609-17.802-115.263-2.502-155.044,38.866
					C128.59,286.047,135.652,293.127,140.129,288.471L140.129,288.471z"/>
			</g>
		</g>
		<g>
			<g>
				<path style="fill:#FFFFFF;" d="M136.925,283.037c-0.673,0.673-1.346,1.346-2.02,2.019c-1.349,1.348-1.348,3.602,0,4.949
					c1.349,1.349,3.601,1.349,4.95,0c0.673-0.673,1.346-1.346,2.02-2.019c1.349-1.348,1.348-3.602,0-4.949
					C140.526,281.688,138.274,281.688,136.925,283.037L136.925,283.037z"/>
			</g>
		</g>
		<g>
			<g>
				<path style="fill:#FFFFFF;" d="M287.316,246.742c-0.93-0.205-1.859-0.41-2.788-0.615c-1.861-0.411-3.78,0.536-4.306,2.444
					c-0.486,1.767,0.581,3.895,2.444,4.306c0.93,0.205,1.859,0.41,2.788,0.615c1.861,0.411,3.78-0.536,4.306-2.444
					C290.247,249.281,289.18,247.153,287.316,246.742L287.316,246.742z"/>
			</g>
		</g>
	</g>
	<g id="sonne_1_">
		<path style="fill:none;stroke:#FFFFFF;stroke-width:10;stroke-miterlimit:10;" d="M90.708,118.603c0,2.245,1.82,4.064,4.064,4.064
			h23.371c2.245,0,4.064-1.82,4.064-4.064V95.231c0-2.245-1.82-4.064-4.064-4.064H94.772c-2.245,0-4.064,1.82-4.064,4.064V118.603z"
			/>
		<g>
			<g>
				<path style="fill:#FFFFFF;" d="M137.797,70.756c-2.406,2.407-4.813,4.813-7.219,7.219c-1.926,1.926-1.926,5.145,0,7.071
					s5.145,1.926,7.071,0c2.406-2.407,4.813-4.813,7.219-7.219c1.926-1.926,1.926-5.145,0-7.071S139.723,68.83,137.797,70.756
					L137.797,70.756z"/>
			</g>
		</g>
		<g>
			<g>
				<path style="fill:#FFFFFF;" d="M175.708,101.667c-11.167,0-22.333,0-33.5,0c-6.449,0-6.449,10,0,10c11.167,0,22.333,0,33.5,0
					C182.156,111.667,182.156,101.667,175.708,101.667L175.708,101.667z"/>
			</g>
		</g>
		<g>
			<g>
				<path style="fill:#FFFFFF;" d="M78.369,143.327c1.99-1.99,3.979-3.979,5.969-5.969c1.926-1.926,1.926-5.145,0-7.071
					s-5.145-1.926-7.071,0c-1.99,1.99-3.979,3.979-5.969,5.969c-1.926,1.926-1.926,5.145,0,7.071S76.442,145.253,78.369,143.327
					L78.369,143.327z"/>
			</g>
		</g>
		<g>
			<g>
				<path style="fill:#FFFFFF;" d="M111.958,175.417c0-11.167,0-22.333,0-33.5c0-6.449-10-6.449-10,0c0,11.167,0,22.333,0,33.5
					C101.958,181.865,111.958,181.865,111.958,175.417L111.958,175.417z"/>
			</g>
		</g>
		<g>
			<g>
				<path style="fill:#FFFFFF;" d="M160.337,153.976c-7.896-7.896-15.792-15.792-23.688-23.688
					c-4.564-4.563-11.635,2.507-7.071,7.071c7.896,7.896,15.792,15.792,23.688,23.688C157.83,165.61,164.901,158.54,160.337,153.976
					L160.337,153.976z"/>
			</g>
		</g>
	</g>
</g>
<g id="Ebene_1">
</g>
</svg>
