<?xml version="1.0" encoding="iso-8859-1"?>
<!-- Generator: Adobe Illustrator 16.0.0, SVG Export Plug-In . SVG Version: 6.00 Build 0)  -->
<!DOCTYPE svg PUBLIC "-//W3C//DTD SVG 1.1//EN" "http://www.w3.org/Graphics/SVG/1.1/DTD/svg11.dtd">
<svg version="1.1" xmlns="http://www.w3.org/2000/svg" xmlns:xlink="http://www.w3.org/1999/xlink" x="0px" y="0px" width="361px"
	 height="361px" viewBox="0 0 361 361" style="enable-background:new 0 0 361 361;" xml:space="preserve">
<g id="fts_x5F_blade_x5F_z_x5F_automatic">
	<g style="display:none;">
		<g style="display:inline;">
			<g>
				<path style="fill:#FFFFFF;" d="M210.117,134.19c0,9.159,0,18.318,0,27.477c0,1.935,3,1.935,3,0c0-9.159,0-18.318,0-27.477
					C213.117,132.256,210.117,132.256,210.117,134.19L210.117,134.19z"/>
			</g>
		</g>
		<g style="display:inline;">
			<g>
				<path style="fill:#FFFFFF;" d="M210.236,198c0,10.444,0,20.89,0,31.334c0,1.935,3,1.935,3,0c0-10.444,0-20.89,0-31.334
					C213.236,196.065,210.236,196.065,210.236,198L210.236,198z"/>
			</g>
		</g>
		<g style="display:inline;">
			<g>
				<path style="fill:#FFFFFF;" d="M210.236,262c0,9.171,0,18.341,0,27.512c0,1.935,3,1.935,3,0c0-9.171,0-18.341,0-27.512
					C213.236,260.065,210.236,260.065,210.236,262L210.236,262z"/>
			</g>
		</g>
	</g>
	<g id="Auto_3_">
		<g>
			<g>
				<path style="fill:#FFFFFF;" d="M200.979,251.601c0.305-0.863,1.399-0.69,0.22-0.69c-0.886,0-1.772,0-2.658,0
					c-2.224,0-4.447,0-6.671,0c-1.612,0-3.224,0-4.835,0c0.675,0,0.727,2.813,0.727-0.152c0-6.96,0-13.92,0-20.88
					c0,1.73-1.801,1.565-0.344,1.565c0.886,0,1.772,0,2.658,0c2.224,0,4.447,0,6.671,0c1.612,0,3.224,0,4.835,0
					c-0.676,0-0.728-2.812-0.728,0.153c0,6.979,0,13.956,0,20.935c0,4.514,7,4.514,7,0c0-3.947,0-7.894,0-11.841
					c0-3.929,0.873-8.965-0.459-12.746c-1.726-4.9-9.635-3.501-13.582-3.501c-4.821,0-10.949-1.163-12.927,4.449
					c-1.243,3.526-0.125,9.113-0.125,12.771c0,3.929-0.874,8.965,0.459,12.746c1.728,4.899,9.635,3.5,13.583,3.5
					c4.82,0,10.949,1.163,12.926-4.448C209.232,249.192,202.468,247.373,200.979,251.601z"/>
			</g>
		</g>
		<g>
			<g>
				<path style="fill:#FFFFFF;" d="M228.744,250.921c0.03-0.118,1.505-0.011-0.291-0.011c-1.007,0-2.013,0-3.019,0
					c-2.799,0-5.599,0-8.397,0c-0.746,0-1.492,0-2.238,0c-0.824,0,0.727,1.54,0.727,0.58c0-1.552,0-3.104,0-4.654
					c0-8.618,0-17.235,0-25.854c0,1.122-1.779,0.902,0.167,0.902c1.007,0,2.013,0,3.019,0c2.799,0,5.599,0,8.397,0
					c0.746,0,1.492,0,2.238,0c0.825,0-0.728-1.543-0.728-0.582c0,1.552,0,3.104,0,4.654c0,8.632,0,17.263,0,25.895
					c0,4.514,7,4.514,7,0c0-10.092,0-20.185,0-30.276c0-6.839-6.078-6.69-11.107-6.69c-5.524,0-14.057-1.839-15.861,5.126
					c-1.084,4.185-0.125,9.661-0.125,13.929c0,5.76,0,11.52,0,17.278c0,6.84,6.077,6.692,11.108,6.692
					c5.524,0,14.059,1.839,15.86-5.128C236.625,248.408,229.874,246.554,228.744,250.921z"/>
			</g>
		</g>
		<g>
			<g>
				<path style="fill:#FFFFFF;" d="M256.541,250.897c0.752-0.02,0.897-0.027,0.438-0.024c-0.494,0-0.989,0-1.483,0
					c-1.394,0-2.787,0-4.181,0c-2.727,0-5.453,0-8.179,0c-1.307,0,0.188,1.18,0.188,0.676c0-0.533,0-1.066,0-1.6
					c0-2.448,0-4.897,0-7.346c0-10.631,0-21.262,0-31.893c0,1.262-1.304,0.923,0.921,0.923c1.394,0,2.787,0,4.181,0
					c2.852,0,5.702,0,8.554,0c0.538,0-0.563-1.589-0.563-0.463c0,0.619,0,1.238,0,1.857c0,2.578,0,5.155,0,7.733
					c0,10.355,0,20.711,0,31.066c0,4.514,7,4.514,7,0c0-12.374,0-24.748,0-37.122c0-4.864-0.438-10.072-6.813-10.072
					c-3.34,0-6.68,0-10.02,0c-2.863,0-6.234-0.463-8.469,1.771c-3.13,3.13-1.792,10.446-1.792,14.357c0,7.827,0,15.654,0,23.481
					c0,3.888-1.321,12.229,4.17,13.305c5.382,1.055,11.334,0.325,16.803,0.325c3.073,0,5.396-2.232,5.995-5.114
					C264.207,248.354,257.46,246.479,256.541,250.897z"/>
			</g>
		</g>
		<g>
			<g>
				<path style="fill:#FFFFFF;" d="M284.27,250.944c0.054-0.189,1.332-0.108,0.112-0.108c-0.608,0-1.218,0-1.826,0
					c-1.815,0-3.631,0-5.445,0c-1.727,0-3.453,0-5.181,0c-2.368,0-0.879-0.033-0.879,0.823c0-4.883,0-9.765,0-14.647
					c0-12.933,0-25.865,0-38.798c0,0.488-1.608,0.822,0.266,0.822c1.608,0,3.217,0,4.826,0c1.874,0,3.748,0,5.622,0
					c0.705,0,1.409,0,2.114,0c1.849,0,0.266,0.243,0.266-1.014c0,4.355,0,8.71,0,13.065c0,13.398,0,26.798,0,40.196
					c0,0.197,0,0.394,0,0.591c0,4.514,7,4.514,7,0c0-12.081,0-24.162,0-36.243c0-5.597,0-11.193,0-16.791
					c0-7.299-6.788-6.805-12.092-6.805c-5.071,0-15.002-1.641-15.002,6.178c0,4.883,0,9.765,0,14.647c0,12.933,0,25.865,0,38.798
					c0,6.496,6.559,6.177,11.146,6.177c5.5,0,13.9,1.79,15.823-5.03C292.247,248.452,285.492,246.606,284.27,250.944z"/>
			</g>
		</g>
		<g>
			<path style="fill:#FFFFFF;" d="M201.839,291.514l-1.593-6.266h-9.061l-1.539,6.266h-7.029c1.611-5.345,3.24-10.215,4.889-14.611
				c1.646-4.396,3.24-8.566,4.777-12.51h7.359c1.609,3.973,3.212,8.187,4.805,12.641c1.593,4.455,3.139,9.282,4.641,14.48H201.839z
				 M195.798,269.65c-0.366,1.023-0.706,1.994-1.017,2.914s-0.604,1.826-0.878,2.717s-0.531,1.789-0.769,2.693
				c-0.238,0.906-0.467,1.841-0.688,2.805h6.646c-0.22-0.964-0.439-1.898-0.659-2.805c-0.219-0.904-0.467-1.803-0.741-2.693
				s-0.567-1.797-0.878-2.717C196.502,271.645,196.164,270.674,195.798,269.65z"/>
			<path style="fill:#FFFFFF;" d="M223.201,292.084c-2.196,0-4.036-0.241-5.52-0.723c-1.482-0.482-2.662-1.176-3.541-2.082
				c-0.879-0.904-1.502-2-1.867-3.285c-0.367-1.285-0.55-2.717-0.55-4.295v-17.307h6.81v16.957c0,1.139,0.073,2.096,0.22,2.869
				c0.146,0.774,0.394,1.396,0.741,1.862c0.348,0.468,0.832,0.804,1.455,1.008s1.41,0.307,2.361,0.307
				c0.952,0,1.739-0.103,2.362-0.307c0.622-0.204,1.116-0.548,1.482-1.03c0.366-0.481,0.622-1.109,0.769-1.883
				c0.146-0.774,0.221-1.731,0.221-2.871v-16.912h6.754v17.307c0,1.578-0.184,3.01-0.549,4.295
				c-0.366,1.285-1.008,2.381-1.922,3.285c-0.916,0.906-2.124,1.6-3.625,2.082C227.301,291.843,225.434,292.084,223.201,292.084z"/>
			<path style="fill:#FFFFFF;" d="M263.126,264.393v4.469h-8.951v22.652h-6.81v-22.652h-8.951v-4.469H263.126z"/>
			<path style="fill:#FFFFFF;" d="M265.982,277.932c0-4.674,1.078-8.2,3.239-10.582c2.16-2.38,5.163-3.57,9.007-3.57
				c3.99,0,7.029,1.19,9.116,3.57c2.087,2.382,3.13,5.908,3.13,10.582s-1.063,8.201-3.186,10.581
				c-2.123,2.382-5.125,3.571-9.006,3.571c-3.99,0-7.039-1.189-9.144-3.571C267.033,286.133,265.982,282.605,265.982,277.932z
				 M272.846,277.932c0,1.314,0.064,2.549,0.193,3.702c0.127,1.154,0.384,2.154,0.769,3.001c0.384,0.848,0.924,1.52,1.62,2.016
				c0.695,0.498,1.629,0.745,2.801,0.745c1.135,0,2.059-0.247,2.773-0.745c0.713-0.496,1.263-1.176,1.646-2.037
				c0.385-0.861,0.641-1.862,0.77-3.002c0.128-1.139,0.192-2.365,0.192-3.68s-0.064-2.549-0.192-3.703
				c-0.129-1.152-0.385-2.153-0.77-3.001c-0.384-0.847-0.924-1.519-1.619-2.015c-0.696-0.497-1.63-0.746-2.801-0.746
				c-1.172,0-2.105,0.249-2.801,0.746c-0.696,0.496-1.236,1.176-1.62,2.037c-0.385,0.861-0.642,1.861-0.769,3.001
				C272.91,275.391,272.846,276.617,272.846,277.932z"/>
		</g>
	</g>
	<g>
		<g>
			<g>
				<g>
					<path style="fill:#FFFFFF;" d="M138.002,71.779c0,8.574,0,17.148,0,25.723c0,1.935,3,1.935,3,0c0-8.574,0-17.148,0-25.723
						C141.002,69.845,138.002,69.845,138.002,71.779L138.002,71.779z"/>
				</g>
			</g>
			<g>
				<g>
					<path style="fill:#FFFFFF;" d="M138.103,122.018c0,10.211,0,20.422,0,30.634c0,1.935,3,1.935,3,0c0-10.211,0-20.422,0-30.634
						C141.103,120.083,138.103,120.083,138.103,122.018L138.103,122.018z"/>
				</g>
			</g>
			<g>
				<g>
					<path style="fill:#FFFFFF;" d="M138.103,178.285c0,8.507,0,17.015,0,25.521c0,1.935,3,1.935,3,0c0-8.507,0-17.015,0-25.521
						C141.103,176.351,138.103,176.351,138.103,178.285L138.103,178.285z"/>
				</g>
			</g>
		</g>
		<g>
			<g>
				<g>
					<g>
						<path style="fill:#FFFFFF;" d="M128.498,114.307c6.701,0.068,13.401,0.137,20.102,0.205c6.451,0.066,6.445-9.934,0-10
							c-6.701-0.068-13.401-0.137-20.102-0.205C122.047,104.241,122.053,114.241,128.498,114.307L128.498,114.307z"/>
					</g>
				</g>
				<g>
					<g>
						<path style="fill:#FFFFFF;" d="M151.729,113.842c17.735-11.688,35.471-23.375,53.205-35.063
							c5.358-3.531,0.355-12.195-5.047-8.635c-17.735,11.688-35.47,23.375-53.205,35.063
							C141.323,108.738,146.327,117.402,151.729,113.842L151.729,113.842z"/>
					</g>
				</g>
				<g>
					<g>
						<path style="fill:#FFFFFF;" d="M77.817,148.688c17.735-11.688,35.47-23.375,53.205-35.063
							c5.358-3.531,0.355-12.195-5.047-8.635c-17.735,11.688-35.47,23.375-53.205,35.063
							C67.412,143.584,72.415,152.248,77.817,148.688L77.817,148.688z"/>
					</g>
				</g>
			</g>
			<g>
				<g>
					<path style="fill:#FFFFFF;" d="M75.572,142.176c-0.682,0.429-1.363,0.857-2.045,1.286c-1.612,1.013-2.243,3.103-1.255,4.789
						c0.94,1.605,3.172,2.272,4.789,1.255c0.682-0.429,1.364-0.857,2.045-1.286c1.612-1.013,2.243-3.103,1.255-4.789
						C79.421,141.826,77.189,141.159,75.572,142.176L75.572,142.176z"/>
				</g>
			</g>
			<g>
				<g>
					<path style="fill:#FFFFFF;" d="M202.343,72.736c-0.669,0.448-1.339,0.896-2.008,1.344c-1.582,1.059-2.264,3.067-1.256,4.789
						c0.92,1.57,3.201,2.318,4.789,1.255c0.669-0.448,1.339-0.896,2.008-1.344c1.582-1.059,2.264-3.067,1.256-4.789
						C206.212,72.422,203.931,71.674,202.343,72.736L202.343,72.736z"/>
				</g>
			</g>
		</g>
		<g>
			<g>
				<g>
					<g>
						<path style="fill:#FFFFFF;" d="M128.399,170.766c6.701,0.068,13.401,0.137,20.102,0.205c6.451,0.066,6.445-9.934,0-10
							c-6.701-0.068-13.401-0.137-20.102-0.205C121.948,160.7,121.954,170.7,128.399,170.766L128.399,170.766z"/>
					</g>
				</g>
				<g>
					<g>
						<path style="fill:#FFFFFF;" d="M151.63,170.3c17.735-11.688,35.47-23.375,53.204-35.063c5.358-3.531,0.355-12.195-5.047-8.635
							c-17.734,11.688-35.47,23.375-53.204,35.063C141.225,165.196,146.228,173.86,151.63,170.3L151.63,170.3z"/>
					</g>
				</g>
				<g>
					<g>
						<path style="fill:#FFFFFF;" d="M77.718,205.146c17.735-11.688,35.47-23.375,53.205-35.063
							c5.358-3.531,0.355-12.195-5.047-8.635c-17.735,11.688-35.47,23.375-53.205,35.063
							C67.313,200.042,72.316,208.705,77.718,205.146L77.718,205.146z"/>
					</g>
				</g>
			</g>
			<g>
				<g>
					<path style="fill:#FFFFFF;" d="M75.474,198.634c-0.682,0.429-1.364,0.857-2.046,1.286c-1.612,1.014-2.243,3.103-1.255,4.789
						c0.94,1.605,3.172,2.271,4.789,1.256c0.682-0.429,1.364-0.857,2.046-1.286c1.612-1.014,2.243-3.103,1.255-4.789
						C79.322,198.284,77.09,197.618,75.474,198.634L75.474,198.634z"/>
				</g>
			</g>
			<g>
				<g>
					<path style="fill:#FFFFFF;" d="M202.244,129.195c-0.67,0.448-1.339,0.896-2.009,1.343c-1.582,1.058-2.264,3.067-1.256,4.789
						c0.92,1.57,3.201,2.317,4.789,1.255c0.67-0.448,1.339-0.896,2.009-1.343c1.582-1.058,2.264-3.067,1.256-4.789
						C206.113,128.88,203.832,128.133,202.244,129.195L202.244,129.195z"/>
				</g>
			</g>
		</g>
	</g>
</g>
<g id="Ebene_1">
</g>
</svg>
