<?xml version="1.0" encoding="iso-8859-1"?>
<!-- Generator: Adobe Illustrator 16.0.0, SVG Export Plug-In . SVG Version: 6.00 Build 0)  -->
<!DOCTYPE svg PUBLIC "-//W3C//DTD SVG 1.1 Tiny//EN" "http://www.w3.org/Graphics/SVG/1.1/DTD/svg11-tiny.dtd">
<svg version="1.1" baseProfile="tiny" id="fts_x5F_window_x5F_louvre_x5F_open"
	 xmlns="http://www.w3.org/2000/svg" xmlns:xlink="http://www.w3.org/1999/xlink" x="0px" y="0px" width="361px" height="361px"
	 viewBox="0 0 361 361" xml:space="preserve">
<path fill="#FFFFFF" d="M247.553,84.992c0-6.644-5.103-12.049-11.374-12.049H121.428c-6.272,0-11.375,5.405-11.375,12.05
	l0.019,197.885c0,6.644,5.103,12.05,11.375,12.05h114.751c6.271,0,11.374-5.406,11.374-12.05L247.553,84.992z M243.385,154.208
	c1.658,2.258,0.438,4.089-2.725,4.089h-3.101l0.002,28.298l5.823,7.923c1.658,2.258,0.438,4.089-2.725,4.089h-3.097l0.002,28.303
	l5.819,7.918c1.658,2.259,0.438,4.09-2.725,4.09h-3.094l0.003,28.308l5.815,7.913c1.658,2.258,0.438,4.089-2.725,4.089h-3.09
	l0,3.649c0,1.173-0.726,2.05-1.374,2.05H121.446c-0.649,0-1.375-0.876-1.375-2.05l-0.002-19.686l-6.325-8.607
	c-1.657-2.258-0.436-4.089,2.725-4.089h3.599l-0.003-27.62l-6.321-8.602c-1.657-2.258-0.436-4.089,2.725-4.089h3.595l-0.002-27.625
	l-6.317-8.596c-1.657-2.258-0.436-4.089,2.725-4.089h3.591l-0.002-27.63l-6.313-8.591c-1.657-2.258-0.436-4.089,2.725-4.089h3.587
	l-0.002-27.635l-6.31-8.586c-1.657-2.258-0.436-4.089,2.725-4.089h3.583l0-4.262c0-1.173,0.726-2.049,1.375-2.049h114.751
	c0.648,0,1.374,0.876,1.374,2.05l0.002,20.972l5.831,7.934c1.658,2.258,0.438,4.089-2.725,4.089h-3.105l0.003,28.292
	L243.385,154.208z"/>
<g>
	<path fill="#FFFFFF" d="M219.302,90.058c7.907,0.613,12.232,9.876,16.43,15.589c1.809,2.461,3.618,4.923,5.427,7.385
		c0.926,1.259,0.308,2.759-1.36,2.759c-10.318,0-20.637,0-30.956,0c-15.993,0-31.987,0-47.98,0c-5.799,0-11.599,0-17.398,0
		c-3.824,0-7.388,0.352-10.972-1.327c-2.478-1.161-3.972-3.889-5.525-6.002c-2.212-3.011-4.425-6.021-6.637-9.032
		c-0.92-1.252-8.584-9.372-3.316-9.372c10.257,0,20.515,0,30.772,0C171.626,90.058,195.464,90.058,219.302,90.058
		c1.935,0,1.935-3,0-3c-24.452,0-48.903,0-73.355,0c-9.804,0-19.607,0-29.411,0c-5.395,0-6.115,3.925-3.373,7.656
		c4.166,5.668,8.331,11.337,12.497,17.005c5.895,8.021,13.545,7.072,22.391,7.072c14.77,0,29.54,0,44.31,0
		c13.801,0,27.602,0,41.402,0c2.685,0,5.392,0.13,8.064-0.146c7.22-0.746,1.108-8.236-0.806-10.841
		c-5.565-7.573-11.22-19.932-21.718-20.747C217.372,86.908,217.386,89.909,219.302,90.058z"/>
</g>
<g>
	<path fill="#FFFFFF" d="M219.302,130.368c7.907,0.613,12.232,9.877,16.43,15.589c1.809,2.462,3.618,4.923,5.427,7.385
		c0.926,1.259,0.308,2.759-1.36,2.759c-10.318,0-20.637,0-30.956,0c-15.993,0-31.987,0-47.98,0c-5.799,0-11.599,0-17.398,0
		c-3.824,0-7.388,0.352-10.972-1.327c-2.479-1.161-3.972-3.889-5.525-6.002c-2.212-3.011-4.425-6.021-6.637-9.032
		c-0.92-1.252-8.584-9.372-3.316-9.372c10.257,0,20.515,0,30.772,0C171.626,130.368,195.464,130.368,219.302,130.368
		c1.935,0,1.935-3,0-3c-24.452,0-48.903,0-73.355,0c-9.804,0-19.607,0-29.411,0c-5.395,0-6.115,3.925-3.373,7.656
		c4.166,5.668,8.331,11.337,12.497,17.006c5.895,8.021,13.545,7.072,22.391,7.072c14.77,0,29.54,0,44.31,0
		c13.801,0,27.602,0,41.402,0c2.685,0,5.392,0.13,8.064-0.146c7.22-0.746,1.108-8.236-0.806-10.841
		c-5.565-7.572-11.22-19.932-21.718-20.747C217.372,127.218,217.386,130.219,219.302,130.368z"/>
</g>
<g>
	<path fill="#FFFFFF" d="M219.302,170.678c7.907,0.613,12.232,9.876,16.43,15.589c1.809,2.461,3.618,4.923,5.427,7.385
		c0.926,1.259,0.308,2.759-1.36,2.759c-10.318,0-20.637,0-30.956,0c-15.993,0-31.987,0-47.98,0c-5.799,0-11.599,0-17.398,0
		c-3.824,0-7.388,0.352-10.972-1.327c-2.478-1.161-3.972-3.889-5.525-6.002c-2.212-3.011-4.425-6.021-6.637-9.032
		c-0.92-1.252-8.584-9.372-3.316-9.372c10.257,0,20.515,0,30.772,0C171.626,170.678,195.464,170.678,219.302,170.678
		c1.935,0,1.935-3,0-3c-24.452,0-48.903,0-73.355,0c-9.804,0-19.607,0-29.411,0c-5.395,0-6.115,3.925-3.373,7.656
		c4.166,5.668,8.331,11.337,12.497,17.005c5.895,8.021,13.545,7.072,22.391,7.072c14.77,0,29.54,0,44.31,0
		c13.801,0,27.602,0,41.402,0c2.685,0,5.392,0.13,8.064-0.146c7.22-0.746,1.108-8.236-0.806-10.841
		c-5.565-7.573-11.22-19.932-21.718-20.747C217.372,167.528,217.386,170.53,219.302,170.678z"/>
</g>
<g>
	<path fill="#FFFFFF" d="M219.302,210.989c7.906,0.613,12.232,9.876,16.43,15.589c1.809,2.461,3.618,4.923,5.427,7.385
		c0.926,1.259,0.308,2.76-1.36,2.76c-10.318,0-20.637,0-30.956,0c-15.993,0-31.987,0-47.98,0c-5.799,0-11.599,0-17.398,0
		c-3.824,0-7.388,0.352-10.972-1.327c-2.478-1.161-3.972-3.889-5.525-6.003c-2.212-3.01-4.425-6.021-6.637-9.031
		c-0.92-1.252-8.584-9.372-3.316-9.372c10.257,0,20.515,0,30.772,0C171.626,210.989,195.464,210.989,219.302,210.989
		c1.935,0,1.935-3,0-3c-24.452,0-48.903,0-73.355,0c-9.804,0-19.607,0-29.411,0c-5.395,0-6.115,3.925-3.373,7.656
		c4.166,5.668,8.331,11.337,12.497,17.005c5.896,8.022,13.544,7.073,22.391,7.073c14.77,0,29.54,0,44.31,0
		c13.801,0,27.602,0,41.402,0c2.685,0,5.392,0.13,8.064-0.146c7.22-0.746,1.108-8.237-0.806-10.841
		c-5.565-7.572-11.22-19.932-21.718-20.746C217.372,207.839,217.386,210.84,219.302,210.989z"/>
</g>
<g>
	<path fill="#FFFFFF" d="M219.302,251.299c7.907,0.613,12.232,9.876,16.43,15.589c1.809,2.461,3.618,4.923,5.427,7.385
		c0.926,1.259,0.308,2.759-1.36,2.759c-10.318,0-20.637,0-30.956,0c-15.993,0-31.987,0-47.98,0c-5.799,0-11.599,0-17.398,0
		c-3.824,0-7.388,0.352-10.972-1.327c-2.478-1.161-3.972-3.889-5.525-6.002c-2.212-3.011-4.425-6.021-6.637-9.032
		c-0.92-1.252-8.584-9.372-3.316-9.372c10.257,0,20.515,0,30.772,0C171.626,251.299,195.464,251.299,219.302,251.299
		c1.935,0,1.935-3,0-3c-24.452,0-48.903,0-73.355,0c-9.804,0-19.607,0-29.411,0c-5.395,0-6.115,3.925-3.373,7.656
		c4.166,5.668,8.331,11.337,12.497,17.005c5.895,8.021,13.545,7.072,22.391,7.072c14.77,0,29.54,0,44.31,0
		c13.801,0,27.602,0,41.402,0c2.685,0,5.392,0.13,8.064-0.146c7.22-0.746,1.108-8.236-0.806-10.841
		c-5.565-7.573-11.22-19.932-21.718-20.747C217.372,248.149,217.386,251.15,219.302,251.299z"/>
</g>
<path display="none" fill="none" stroke="#FFFFFF" stroke-width="10" stroke-miterlimit="10" d="M300.683,76.192
	c3.52,0,6.374,3.156,6.374,7.049l0.019,197.885c0,3.894-2.854,7.05-6.374,7.05H185.95c-3.52,0-6.375-3.156-6.375-7.05
	l-0.019-197.885c0-3.893,2.855-7.049,6.375-7.049H300.683z"/>
<g>
	<path fill="#FFFFFF" d="M237.551,98.711c0,49.973,0,99.946,0,149.919c0,10.693,0,21.387,0,32.081c0,6.449,10,6.449,10,0
		c0-49.973,0-99.946,0-149.919c0-10.693,0-21.387,0-32.081C247.551,92.263,237.551,92.263,237.551,98.711L237.551,98.711z"/>
</g>
</svg>
