<?xml version="1.0" encoding="iso-8859-1"?>
<!-- Generator: Adobe Illustrator 16.0.0, SVG Export Plug-In . SVG Version: 6.00 Build 0)  -->
<!DOCTYPE svg PUBLIC "-//W3C//DTD SVG 1.1//EN" "http://www.w3.org/Graphics/SVG/1.1/DTD/svg11.dtd">
<svg version="1.1" xmlns="http://www.w3.org/2000/svg" xmlns:xlink="http://www.w3.org/1999/xlink" x="0px" y="0px" width="361px"
	 height="361px" viewBox="0 0 361 361" style="enable-background:new 0 0 361 361;" xml:space="preserve">
<g id="fts_x5F_blade_x5F_arc_x5F_100">
	<g>
		<g>
			<g>
				<path style="fill:#FFFFFF;" d="M163.008,284.815c-9.523-46.67,8.519-95.655,46.417-124.671
					c5.046-3.863,0.075-12.556-5.047-8.635c-41.688,31.917-61.523,84.461-51.013,135.964
					C154.654,293.79,164.292,291.109,163.008,284.815L163.008,284.815z"/>
			</g>
		</g>
		<g>
			<g>
				<path style="fill:#FFFFFF;" d="M153.302,284.792c0.155,0.841,0.31,1.682,0.465,2.523c0.246,1.333,1.375,2.596,2.506,3.259
					c1.26,0.738,2.795,0.938,4.203,0.55c1.363-0.375,2.545-1.287,3.26-2.506c0.789-1.348,0.824-2.712,0.55-4.203
					c-0.155-0.841-0.31-1.682-0.465-2.523c-0.246-1.333-1.375-2.596-2.506-3.259c-1.26-0.738-2.795-0.938-4.203-0.55
					c-1.363,0.375-2.545,1.287-3.26,2.506C153.063,281.937,153.028,283.301,153.302,284.792L153.302,284.792z"/>
			</g>
		</g>
		<g>
			<g>
				<path style="fill:#FFFFFF;" d="M203.411,152.646c-0.625,0.583-1.251,1.166-1.876,1.75c-2.175,2.027-2.047,5.667,0,7.713
					c2.156,2.156,5.54,2.026,7.713,0c0.625-0.583,1.251-1.166,1.876-1.75c2.175-2.027,2.047-5.667,0-7.713
					C208.968,150.49,205.584,150.62,203.411,152.646L203.411,152.646z"/>
			</g>
		</g>
	</g>
	<g>
		<g>
			<g>
				<path style="fill:#FFFFFF;" d="M161.799,204.577c-9.523-46.669,8.519-95.654,46.417-124.67
					c5.046-3.863,0.075-12.556-5.047-8.635c-41.688,31.917-61.523,84.46-51.013,135.963
					C153.445,213.552,163.083,210.871,161.799,204.577L161.799,204.577z"/>
			</g>
		</g>
		<g>
			<g>
				<path style="fill:#FFFFFF;" d="M152.093,204.555c0.155,0.841,0.31,1.682,0.465,2.522c0.246,1.333,1.375,2.596,2.506,3.259
					c1.26,0.738,2.795,0.938,4.203,0.55c1.363-0.375,2.545-1.287,3.26-2.506c0.789-1.348,0.824-2.712,0.55-4.203
					c-0.155-0.841-0.31-1.682-0.465-2.522c-0.246-1.333-1.375-2.596-2.506-3.259c-1.26-0.738-2.795-0.938-4.203-0.55
					c-1.363,0.375-2.545,1.287-3.26,2.506C151.854,201.699,151.819,203.063,152.093,204.555L152.093,204.555z"/>
			</g>
		</g>
		<g>
			<g>
				<path style="fill:#FFFFFF;" d="M202.202,72.409c-0.625,0.583-1.251,1.166-1.876,1.75c-2.175,2.027-2.047,5.667,0,7.713
					c2.156,2.156,5.54,2.026,7.713,0c0.625-0.583,1.251-1.166,1.876-1.75c2.175-2.027,2.047-5.667,0-7.713
					C207.759,70.252,204.375,70.382,202.202,72.409L202.202,72.409z"/>
			</g>
		</g>
	</g>
	<g>
		<g>
			<path style="fill:#FFFFFF;" d="M178.833,71.667c0,5.416,0,10.832,0,16.248c0,1.935,3,1.935,3,0c0-5.416,0-10.832,0-16.248
				C181.833,69.732,178.833,69.732,178.833,71.667L178.833,71.667z"/>
		</g>
	</g>
	<g>
		<g>
			<path style="fill:#FFFFFF;" d="M179,142.989c0,7.612,0,15.225,0,22.837c0,1.935,3,1.935,3,0c0-7.612,0-15.225,0-22.837
				C182,141.055,179,141.055,179,142.989L179,142.989z"/>
		</g>
	</g>
	<g>
		<g>
			<path style="fill:#FFFFFF;" d="M179,217.986c0,23.894,0,47.787,0,71.681c0,1.935,3,1.935,3,0c0-23.894,0-47.787,0-71.681
				C182,216.052,179,216.052,179,217.986L179,217.986z"/>
		</g>
	</g>
	<g>
		<g>
			<path style="fill:#FFFFFF;" d="M179,134c0,7.612,0,15.225,0,22.837c0,1.935,3,1.935,3,0c0-7.612,0-15.225,0-22.837
				C182,132.066,179,132.066,179,134L179,134z"/>
		</g>
	</g>
</g>
<g id="Ebene_1">
</g>
</svg>
