<?xml version="1.0" encoding="iso-8859-1"?>
<!-- Generator: Adobe Illustrator 16.0.0, SVG Export Plug-In . SVG Version: 6.00 Build 0)  -->
<!DOCTYPE svg PUBLIC "-//W3C//DTD SVG 1.1 Tiny//EN" "http://www.w3.org/Graphics/SVG/1.1/DTD/svg11-tiny.dtd">
<svg version="1.1" baseProfile="tiny" id="fts_x5F_blade_x5F_arc_x5F_close_x5F_100"
	 xmlns="http://www.w3.org/2000/svg" xmlns:xlink="http://www.w3.org/1999/xlink" x="0px" y="0px" width="361px" height="361px"
	 viewBox="0 0 361 361" xml:space="preserve">
<g>
	<g>
		<g>
			<path fill="#FFFFFF" d="M223.571,159.405c-3.911-30.169,8.996-59.912,34.463-76.854c5.341-3.553,0.339-12.218-5.047-8.635
				c-28.182,18.749-43.786,51.782-39.417,85.489C214.388,165.707,224.398,165.787,223.571,159.405L223.571,159.405z"/>
		</g>
		<g>
			<path fill="#FFFFFF" d="M213.482,157.629c0.062,0.545,0.124,1.089,0.186,1.634c0.065,0.483,0.13,0.967,0.195,1.45
				c0.259,0.924,0.727,1.727,1.403,2.407c1.018,1.019,2.416,1.598,3.856,1.598s2.838-0.579,3.856-1.598
				c0.924-0.924,1.751-2.5,1.598-3.856c-0.062-0.545-0.124-1.089-0.186-1.634c-0.065-0.483-0.13-0.967-0.195-1.45
				c-0.259-0.924-0.727-1.727-1.403-2.407c-1.018-1.019-2.416-1.598-3.856-1.598s-2.838,0.579-3.856,1.598
				C214.156,154.696,213.328,156.273,213.482,157.629L213.482,157.629z"/>
		</g>
		<g>
			<path fill="#FFFFFF" d="M251.859,74.824c-0.426,0.345-0.852,0.691-1.278,1.037c-1.064,0.863-1.598,2.542-1.598,3.856
				c0,1.441,0.579,2.838,1.598,3.856c1.018,1.019,2.416,1.598,3.856,1.598c0.483-0.065,0.967-0.13,1.45-0.195
				c0.924-0.259,1.727-0.727,2.407-1.403c0.426-0.345,0.852-0.691,1.278-1.037c1.064-0.863,1.598-2.542,1.598-3.856
				c0-1.441-0.579-2.838-1.598-3.856c-1.018-1.019-2.416-1.598-3.856-1.598c-0.483,0.065-0.967,0.13-1.45,0.195
				C253.341,73.681,252.539,74.148,251.859,74.824L251.859,74.824z"/>
		</g>
	</g>
	<g>
		<g>
			<path fill="#FFFFFF" d="M223.571,223.975c-3.911-30.169,8.996-59.911,34.463-76.854c5.341-3.553,0.339-12.218-5.047-8.635
				c-28.181,18.749-43.786,51.782-39.417,85.489C214.388,230.277,224.398,230.356,223.571,223.975L223.571,223.975z"/>
		</g>
		<g>
			<path fill="#FFFFFF" d="M213.482,222.199c0.062,0.544,0.124,1.089,0.186,1.634c0.065,0.483,0.13,0.967,0.195,1.45
				c0.259,0.924,0.727,1.727,1.403,2.407c1.018,1.019,2.416,1.598,3.856,1.598s2.838-0.579,3.856-1.598
				c0.924-0.924,1.751-2.5,1.598-3.856c-0.062-0.544-0.124-1.089-0.186-1.634c-0.065-0.483-0.13-0.967-0.195-1.45
				c-0.259-0.924-0.727-1.727-1.403-2.407c-1.018-1.019-2.416-1.598-3.856-1.598s-2.838,0.579-3.856,1.598
				C214.156,219.267,213.328,220.843,213.482,222.199L213.482,222.199z"/>
		</g>
		<g>
			<path fill="#FFFFFF" d="M251.859,139.395c-0.426,0.345-0.852,0.69-1.278,1.036c-1.064,0.862-1.598,2.542-1.598,3.856
				c0,1.441,0.579,2.838,1.598,3.856c1.018,1.019,2.416,1.598,3.856,1.598c0.483-0.065,0.967-0.13,1.45-0.195
				c0.924-0.259,1.727-0.727,2.407-1.403c0.426-0.345,0.852-0.69,1.278-1.036c1.064-0.862,1.598-2.542,1.598-3.856
				c0-1.441-0.579-2.838-1.598-3.856c-1.018-1.019-2.416-1.598-3.856-1.598c-0.483,0.065-0.967,0.13-1.45,0.195
				C253.341,138.251,252.539,138.718,251.859,139.395L251.859,139.395z"/>
		</g>
	</g>
	<g>
		<g>
			<path fill="#FFFFFF" d="M223.571,288.545c-3.911-30.169,8.996-59.912,34.463-76.854c5.341-3.553,0.339-12.218-5.047-8.635
				c-28.182,18.749-43.786,51.782-39.417,85.489C214.388,294.847,224.398,294.927,223.571,288.545L223.571,288.545z"/>
		</g>
		<g>
			<path fill="#FFFFFF" d="M213.482,286.769c0.062,0.545,0.124,1.089,0.186,1.634c0.065,0.483,0.13,0.967,0.195,1.45
				c0.259,0.924,0.727,1.727,1.403,2.407c1.018,1.019,2.416,1.598,3.856,1.598s2.838-0.579,3.856-1.598
				c0.924-0.924,1.751-2.5,1.598-3.856c-0.062-0.545-0.124-1.089-0.186-1.634c-0.065-0.483-0.13-0.967-0.195-1.45
				c-0.259-0.924-0.727-1.727-1.403-2.407c-1.018-1.019-2.416-1.598-3.856-1.598s-2.838,0.579-3.856,1.598
				C214.156,283.836,213.328,285.413,213.482,286.769L213.482,286.769z"/>
		</g>
		<g>
			<path fill="#FFFFFF" d="M251.859,203.964c-0.426,0.345-0.852,0.691-1.278,1.037c-1.064,0.863-1.598,2.542-1.598,3.856
				c0,1.441,0.579,2.838,1.598,3.856c1.018,1.019,2.416,1.598,3.856,1.598c0.483-0.065,0.967-0.13,1.45-0.195
				c0.924-0.259,1.727-0.727,2.407-1.403c0.426-0.345,0.852-0.691,1.278-1.037c1.064-0.863,1.598-2.542,1.598-3.856
				c0-1.441-0.579-2.838-1.598-3.856c-1.018-1.019-2.416-1.598-3.856-1.598c-0.483,0.065-0.967,0.13-1.45,0.195
				C253.341,202.821,252.539,203.288,251.859,203.964L251.859,203.964z"/>
		</g>
	</g>
</g>
<g>
	<g>
		<path fill="#FFFFFF" d="M229.351,122.69c0,9.137,0,18.273,0,27.41c0,1.935,3,1.935,3,0c0-9.137,0-18.273,0-27.41
			C232.351,120.755,229.351,120.755,229.351,122.69L229.351,122.69z"/>
	</g>
	<g>
		<path fill="#FFFFFF" d="M229.351,191.184c0,7.874,0,15.747,0,23.62c0,1.935,3,1.935,3,0c0-7.874,0-15.747,0-23.62
			C232.351,189.25,229.351,189.25,229.351,191.184L229.351,191.184z"/>
	</g>
	<g>
		<path fill="#FFFFFF" d="M229.351,257.94c0,11.383,0,22.767,0,34.15c0,1.935,3,1.935,3,0c0-11.383,0-22.767,0-34.15
			C232.351,256.006,229.351,256.006,229.351,257.94L229.351,257.94z"/>
	</g>
	<g>
		<path fill="#FFFFFF" d="M229.351,74.061c0,3.454,0,6.908,0,10.361c0,1.935,3,1.935,3,0c0-3.454,0-6.908,0-10.361
			C232.351,72.126,229.351,72.126,229.351,74.061L229.351,74.061z"/>
	</g>
</g>
<g id="sonne_5_">
	<path fill="none" stroke="#FFFFFF" stroke-width="10" stroke-miterlimit="10" d="M88.189,121.48c0,2.245,1.82,4.064,4.064,4.064
		h23.371c2.245,0,4.064-1.82,4.064-4.064V98.109c0-2.245-1.82-4.064-4.064-4.064H92.254c-2.245,0-4.064,1.82-4.064,4.064V121.48z"/>
	<g>
		<path fill="#FFFFFF" d="M135.279,73.634c-2.406,2.407-4.813,4.813-7.219,7.219c-1.926,1.926-1.926,5.145,0,7.071
			s5.145,1.926,7.071,0c2.406-2.407,4.813-4.813,7.219-7.219c1.926-1.926,1.926-5.145,0-7.071S137.205,71.708,135.279,73.634
			L135.279,73.634z"/>
	</g>
	<g>
		<path fill="#FFFFFF" d="M173.189,104.545c-11.167,0-22.333,0-33.5,0c-6.449,0-6.449,10,0,10c11.167,0,22.333,0,33.5,0
			C179.638,114.545,179.638,104.545,173.189,104.545L173.189,104.545z"/>
	</g>
	<g>
		<path fill="#FFFFFF" d="M75.851,146.205c1.99-1.99,3.979-3.979,5.969-5.969c1.926-1.926,1.926-5.145,0-7.071s-5.145-1.926-7.071,0
			c-1.99,1.99-3.979,3.979-5.969,5.969c-1.926,1.926-1.926,5.145,0,7.071S73.924,148.131,75.851,146.205L75.851,146.205z"/>
	</g>
	<g>
		<path fill="#FFFFFF" d="M109.439,178.295c0-11.167,0-22.333,0-33.5c0-6.449-10-6.449-10,0c0,11.167,0,22.333,0,33.5
			C99.439,184.744,109.439,184.744,109.439,178.295L109.439,178.295z"/>
	</g>
	<g>
		<path fill="#FFFFFF" d="M157.819,156.854c-7.896-7.896-15.792-15.792-23.688-23.688c-4.564-4.563-11.635,2.507-7.071,7.071
			c7.896,7.896,15.792,15.792,23.688,23.688C155.312,168.488,162.383,161.417,157.819,156.854L157.819,156.854z"/>
	</g>
</g>
</svg>
