<?xml version="1.0" encoding="iso-8859-1"?>
<!-- Generator: Adobe Illustrator 16.0.0, SVG Export Plug-In . SVG Version: 6.00 Build 0)  -->
<!DOCTYPE svg PUBLIC "-//W3C//DTD SVG 1.1 Tiny//EN" "http://www.w3.org/Graphics/SVG/1.1/DTD/svg11-tiny.dtd">
<svg version="1.1" baseProfile="tiny" id="fts_x5F_blade_x5F_arc_x5F_close_x5F_00"
	 xmlns="http://www.w3.org/2000/svg" xmlns:xlink="http://www.w3.org/1999/xlink" x="0px" y="0px" width="361px" height="361px"
	 viewBox="0 0 361 361" xml:space="preserve">
<g>
	<g>
		<g>
			<path fill="#FFFFFF" d="M193.176,133.074c22.391-20.788,54.209-26.62,82.668-15.784c6.037,2.299,8.623-7.372,2.658-9.643
				c-31.779-12.101-67.569-4.695-92.397,18.355C181.37,130.399,188.458,137.455,193.176,133.074L193.176,133.074z"/>
		</g>
		<g>
			<path fill="#FFFFFF" d="M187.441,124.948c-0.408,0.366-0.815,0.733-1.223,1.1c-2.211,1.989-2.018,5.695,0,7.713
				c1.018,1.019,2.416,1.598,3.856,1.598c1.505,0,2.76-0.611,3.856-1.598c0.408-0.366,0.815-0.733,1.223-1.1
				c2.211-1.989,2.018-5.695,0-7.713c-1.018-1.019-2.416-1.598-3.856-1.598C189.792,123.351,188.538,123.961,187.441,124.948
				L187.441,124.948z"/>
		</g>
		<g>
			<path fill="#FFFFFF" d="M278.377,107.636c-0.528-0.146-1.057-0.292-1.585-0.438c-2.864-0.791-5.921,0.947-6.709,3.81
				c-0.789,2.867,0.945,5.918,3.81,6.709c0.528,0.146,1.057,0.292,1.585,0.438c2.864,0.791,5.921-0.947,6.709-3.81
				C282.975,111.478,281.241,108.427,278.377,107.636L278.377,107.636z"/>
		</g>
	</g>
	<g>
		<g>
			<path fill="#FFFFFF" d="M193.176,197.924c22.391-20.788,54.209-26.62,82.668-15.784c6.037,2.299,8.623-7.372,2.658-9.643
				c-31.779-12.101-67.569-4.695-92.397,18.355C181.37,195.249,188.458,202.305,193.176,197.924L193.176,197.924z"/>
		</g>
		<g>
			<path fill="#FFFFFF" d="M187.441,189.799c-0.408,0.366-0.815,0.733-1.223,1.1c-2.211,1.989-2.018,5.695,0,7.713
				c1.018,1.019,2.416,1.598,3.856,1.598c1.505,0,2.76-0.611,3.856-1.598c0.408-0.366,0.815-0.733,1.223-1.1
				c2.211-1.989,2.018-5.695,0-7.713c-1.018-1.019-2.416-1.598-3.856-1.598C189.792,188.201,188.538,188.812,187.441,189.799
				L187.441,189.799z"/>
		</g>
		<g>
			<path fill="#FFFFFF" d="M278.377,172.487c-0.528-0.146-1.057-0.292-1.585-0.438c-2.864-0.792-5.922,0.948-6.709,3.81
				c-0.789,2.868,0.946,5.917,3.81,6.709c0.528,0.146,1.057,0.292,1.585,0.438c2.864,0.792,5.922-0.948,6.709-3.81
				C282.975,176.328,281.241,173.279,278.377,172.487L278.377,172.487z"/>
		</g>
	</g>
	<g>
		<g>
			<path fill="#FFFFFF" d="M193.176,262.775c22.391-20.788,54.209-26.62,82.668-15.784c6.037,2.299,8.623-7.372,2.658-9.643
				c-31.779-12.101-67.569-4.695-92.397,18.355C181.37,260.1,188.458,267.155,193.176,262.775L193.176,262.775z"/>
		</g>
		<g>
			<path fill="#FFFFFF" d="M187.441,254.649c-0.408,0.366-0.815,0.733-1.223,1.1c-2.211,1.989-2.018,5.695,0,7.713
				c1.018,1.019,2.416,1.598,3.856,1.598c1.505,0,2.76-0.611,3.856-1.598c0.408-0.366,0.815-0.733,1.223-1.1
				c2.211-1.989,2.018-5.695,0-7.713c-1.018-1.019-2.416-1.598-3.856-1.598C189.792,253.051,188.538,253.662,187.441,254.649
				L187.441,254.649z"/>
		</g>
		<g>
			<path fill="#FFFFFF" d="M278.377,237.337c-0.528-0.146-1.057-0.292-1.585-0.438c-2.864-0.791-5.921,0.947-6.709,3.81
				c-0.789,2.867,0.945,5.918,3.81,6.709c0.528,0.146,1.057,0.292,1.585,0.438c2.864,0.791,5.921-0.947,6.709-3.81
				C282.975,241.179,281.241,238.128,278.377,237.337L278.377,237.337z"/>
		</g>
	</g>
</g>
<g>
	<path fill="#FFFFFF" d="M229.482,74.611c0,6.291,0,12.582,0,18.873c0,1.935,3,1.935,3,0c0-6.291,0-12.582,0-18.873
		C232.482,72.676,229.482,72.676,229.482,74.611L229.482,74.611z"/>
</g>
<g>
	<path fill="#FFFFFF" d="M229.482,121.668c0,13.178,0,26.355,0,39.533c0,1.935,3,1.935,3,0c0-13.178,0-26.355,0-39.533
		C232.482,119.734,229.482,119.734,229.482,121.668L229.482,121.668z"/>
</g>
<g>
	<path fill="#FFFFFF" d="M229.482,187.163c0,12.77,0,25.541,0,38.311c0,1.935,3,1.935,3,0c0-12.77,0-25.541,0-38.311
		C232.482,185.229,229.482,185.229,229.482,187.163L229.482,187.163z"/>
</g>
<g>
	<path fill="#FFFFFF" d="M229.482,251.182c0,13.636,0,27.272,0,40.908c0,1.935,3,1.935,3,0c0-13.636,0-27.272,0-40.908
		C232.482,249.248,229.482,249.248,229.482,251.182L229.482,251.182z"/>
</g>
<g id="sonne_6_">
	<path fill="none" stroke="#FFFFFF" stroke-width="10" stroke-miterlimit="10" d="M88.189,121.48c0,2.245,1.82,4.064,4.064,4.064
		h23.371c2.245,0,4.064-1.82,4.064-4.064V98.109c0-2.245-1.82-4.064-4.064-4.064H92.254c-2.245,0-4.064,1.82-4.064,4.064V121.48z"/>
	<g>
		<path fill="#FFFFFF" d="M135.279,73.634c-2.406,2.407-4.813,4.813-7.219,7.219c-1.926,1.926-1.926,5.145,0,7.071
			s5.145,1.926,7.071,0c2.406-2.407,4.813-4.813,7.219-7.219c1.926-1.926,1.926-5.145,0-7.071S137.205,71.708,135.279,73.634
			L135.279,73.634z"/>
	</g>
	<g>
		<path fill="#FFFFFF" d="M173.189,104.545c-11.167,0-22.333,0-33.5,0c-6.449,0-6.449,10,0,10c11.167,0,22.333,0,33.5,0
			C179.638,114.545,179.638,104.545,173.189,104.545L173.189,104.545z"/>
	</g>
	<g>
		<path fill="#FFFFFF" d="M75.851,146.205c1.99-1.99,3.979-3.979,5.969-5.969c1.926-1.926,1.926-5.145,0-7.071s-5.145-1.926-7.071,0
			c-1.99,1.99-3.979,3.979-5.969,5.969c-1.926,1.926-1.926,5.145,0,7.071S73.924,148.131,75.851,146.205L75.851,146.205z"/>
	</g>
	<g>
		<path fill="#FFFFFF" d="M109.439,178.295c0-11.167,0-22.333,0-33.5c0-6.449-10-6.449-10,0c0,11.167,0,22.333,0,33.5
			C99.439,184.744,109.439,184.744,109.439,178.295L109.439,178.295z"/>
	</g>
	<g>
		<path fill="#FFFFFF" d="M157.819,156.854c-7.896-7.896-15.792-15.792-23.688-23.688c-4.564-4.563-11.635,2.507-7.071,7.071
			c7.896,7.896,15.792,15.792,23.688,23.688C155.312,168.488,162.383,161.417,157.819,156.854L157.819,156.854z"/>
	</g>
</g>
</svg>
