<?xml version="1.0" encoding="iso-8859-1"?>
<!-- Generator: Adobe Illustrator 16.0.3, SVG Export Plug-In . SVG Version: 6.00 Build 0)  -->
<!DOCTYPE svg PUBLIC "-//W3C//DTD SVG 1.1//EN" "http://www.w3.org/Graphics/SVG/1.1/DTD/svg11.dtd">
<svg version="1.1" xmlns="http://www.w3.org/2000/svg" xmlns:xlink="http://www.w3.org/1999/xlink" x="0px" y="0px" width="361px"
	 height="361px" viewBox="0 0 361 361" style="enable-background:new 0 0 361 361;" xml:space="preserve">
<g id="fts_x5F_entrance_x5F_boom_open">
	<g>
		<g>
			<path style="fill:#FFFFFF;" d="M273.833,288.834c-49.291,0-98.583,0-147.874,0c-16.987,0-33.973,0-50.959,0c-1.935,0-1.935,3,0,3
				c49.292,0,98.583,0,147.875,0c16.986,0,33.973,0,50.959,0C275.768,291.834,275.768,288.834,273.833,288.834L273.833,288.834z"/>
		</g>
	</g>
	<g>
		<g>
			<g>
				<g>
					<path style="fill:#FFFFFF;" d="M243.004,77.28c0,48.227,0,96.453,0,144.68c0,1.835,0,3.67,0,5.506
						c0,9.686,15.004,9.771,15.004,0.107c0-48.226,0-96.453,0-144.679c0-1.835,0-3.671,0-5.506
						C258.008,67.702,243.004,67.616,243.004,77.28L243.004,77.28z"/>
				</g>
			</g>
		</g>
		<path style="fill:#FFFFFF;" d="M261.631,240.395c0,1.656-1.344,3-3,3h-16.25c-1.656,0-3-1.344-3-3v-25.75c0-1.656,1.344-3,3-3
			h16.25c1.656,0,3,1.344,3,3V240.395z"/>
	</g>
	<g>
		<g>
			<path style="fill:#FFFFFF;" d="M70,204.457c0,27.486,0,54.974,0,82.46c0,6.448,10,6.448,10,0c0-27.486,0-54.974,0-82.46
				C80,198.009,70,198.009,70,204.457L70,204.457z"/>
		</g>
	</g>
	<path style="fill:none;stroke:#FFFFFF;stroke-width:7;stroke-miterlimit:10;" d="M275.791,284.295c0,2.193-2.122,3.973-4.738,3.973
		h-37.507c-2.615,0-4.737-1.779-4.737-3.973V208.43c0-2.192,2.122-3.973,4.737-3.973h37.507c2.616,0,4.738,1.78,4.738,3.973V284.295
		z"/>
	<g style="display:none;">
		<g style="display:inline;">
			<g>
				<g>
					<path style="fill:#FFFFFF;" d="M100.104,235.021c48.227,0,96.453,0,144.681,0c1.835,0,3.67,0,5.506,0
						c9.686,0,9.771-15.004,0.107-15.004c-48.227,0-96.453,0-144.68,0c-1.835,0-3.671,0-5.506,0
						C90.525,220.018,90.44,235.021,100.104,235.021L100.104,235.021z"/>
				</g>
			</g>
		</g>
		<path style="display:inline;fill:#FFFFFF;" d="M263.219,216.395c1.656,0,3,1.344,3,3v16.25c0,1.656-1.344,3-3,3h-25.75
			c-1.657,0-3-1.344-3-3v-16.25c0-1.656,1.343-3,3-3H263.219z"/>
	</g>
</g>
<g id="Ebene_1">
</g>
</svg>
