<?xml version="1.0" encoding="iso-8859-1"?>
<!-- Generator: Adobe Illustrator 16.0.0, SVG Export Plug-In . SVG Version: 6.00 Build 0)  -->
<!DOCTYPE svg PUBLIC "-//W3C//DTD SVG 1.1 Tiny//EN" "http://www.w3.org/Graphics/SVG/1.1/DTD/svg11-tiny.dtd">
<svg version="1.1" baseProfile="tiny" id="fts_x5F_shutter_x5F_10"
	 xmlns="http://www.w3.org/2000/svg" xmlns:xlink="http://www.w3.org/1999/xlink" x="0px" y="0px" width="361px" height="361px"
	 viewBox="0 0 361 361" xml:space="preserve">
<path fill="none" stroke="#FFFFFF" stroke-width="10" stroke-miterlimit="10" d="M276.981,251.612c0,3.645-2.955,6.6-6.6,6.6h-184.8
	c-3.646,0-6.6-2.955-6.6-6.6v-118.8c0-3.645,2.955-6.6,6.6-6.6h184.8c3.645,0,6.6,2.956,6.6,6.6V251.612z"/>
<g>
	<path fill="#FFFFFF" d="M172.427,197.056c3.935,0,7.87,0,11.805,0c6.449,0,6.449-10,0-10c-3.935,0-7.87,0-11.805,0
		C165.979,187.056,165.979,197.056,172.427,197.056L172.427,197.056z"/>
</g>
<line fill="none" stroke="#FFFFFF" stroke-width="10" stroke-miterlimit="10" x1="178.201" y1="126.523" x2="178.201" y2="254.942"/>
<path fill="#FFFFFF" stroke="#FFFFFF" stroke-width="10" stroke-miterlimit="10" d="M284.148,127.591
	c0,0.509-3.164,0.922-7.066,0.922H79.215c-3.903,0-7.066-0.414-7.066-0.922v-16.594c0-0.509,3.164-0.922,7.066-0.922h197.867
	c3.903,0,7.066,0.414,7.066,0.922V127.591z"/>
<g>
	<path fill="#FFFFFF" d="M72.481,146.21c48.659,0,97.318,0.001,145.977,0.002c21.952,0,43.905,0,65.857,0.001c6.449,0,6.449-10,0-10
		c-48.659,0-97.318-0.001-145.977-0.002c-21.952,0-43.905,0-65.857-0.001C66.033,136.21,66.033,146.21,72.481,146.21L72.481,146.21z
		"/>
</g>
</svg>
