<?xml version="1.0" encoding="iso-8859-1"?>
<!-- Generator: Adobe Illustrator 16.0.3, SVG Export Plug-In . SVG Version: 6.00 Build 0)  -->
<!DOCTYPE svg PUBLIC "-//W3C//DTD SVG 1.1//EN" "http://www.w3.org/Graphics/SVG/1.1/DTD/svg11.dtd">
<svg version="1.1" xmlns="http://www.w3.org/2000/svg" xmlns:xlink="http://www.w3.org/1999/xlink" x="0px" y="0px" width="361px"
	 height="361px" viewBox="0 0 361 361" style="enable-background:new 0 0 361 361;" xml:space="preserve">
<g id="fts_x5F_blade_x5F_arc_x5F_-20">
	<g>
		<g>
			<g>
				<path style="fill:#FFFFFF;" d="M116.449,194.863c48.133-4.675,94.923,18.231,120.196,59.594
					c3.355,5.492,12.007,0.472,8.635-5.047c-26.977-44.149-77.259-69.556-128.831-64.547
					C110.091,185.48,110.031,195.486,116.449,194.863L116.449,194.863z"/>
			</g>
		</g>
		<g>
			<g>
				<path style="fill:#FFFFFF;" d="M119.2,185.076c-0.853,0.065-1.705,0.131-2.558,0.196c-1.487,0.114-2.775,0.516-3.856,1.598
					c-1.019,1.019-1.598,2.416-1.598,3.856s0.579,2.838,1.598,3.856c0.954,0.954,2.472,1.704,3.856,1.598
					c0.853-0.065,1.705-0.131,2.558-0.196c1.487-0.114,2.775-0.516,3.856-1.598c1.019-1.019,1.598-2.416,1.598-3.856
					s-0.579-2.838-1.598-3.856C122.103,185.72,120.585,184.97,119.2,185.076L119.2,185.076z"/>
			</g>
		</g>
		<g>
			<g>
				<path style="fill:#FFFFFF;" d="M244.963,249.472c-0.515-0.682-1.029-1.363-1.545-2.046c-0.284-0.368-0.568-0.735-0.853-1.104
					c-0.681-0.676-1.482-1.144-2.406-1.402c-1.408-0.388-2.943-0.188-4.203,0.55c-1.219,0.714-2.131,1.896-2.506,3.259
					c-0.351,1.271-0.284,3.1,0.55,4.203c0.515,0.682,1.029,1.363,1.545,2.046c0.284,0.368,0.568,0.735,0.853,1.104
					c0.681,0.676,1.482,1.144,2.406,1.402c1.408,0.388,2.943,0.188,4.203-0.55c1.219-0.714,2.131-1.896,2.506-3.259
					C245.863,252.403,245.797,250.575,244.963,249.472L244.963,249.472z"/>
			</g>
		</g>
	</g>
	<g>
		<g>
			<path style="fill:#FFFFFF;" d="M178.833,71.667c0,5.416,0,10.832,0,16.248c0,1.935,3,1.935,3,0c0-5.416,0-10.832,0-16.248
				C181.833,69.732,178.833,69.732,178.833,71.667L178.833,71.667z"/>
		</g>
	</g>
	<g>
		<g>
			<path style="fill:#FFFFFF;" d="M179,142.989c0,7.612,0,15.225,0,22.837c0,1.935,3,1.935,3,0c0-7.612,0-15.225,0-22.837
				C182,141.055,179,141.055,179,142.989L179,142.989z"/>
		</g>
	</g>
	<g>
		<g>
			<path style="fill:#FFFFFF;" d="M179,217.986c0,23.894,0,47.787,0,71.681c0,1.935,3,1.935,3,0c0-23.894,0-47.787,0-71.681
				C182,216.052,179,216.052,179,217.986L179,217.986z"/>
		</g>
	</g>
	<g>
		<g>
			<path style="fill:#FFFFFF;" d="M179,134c0,7.612,0,15.225,0,22.837c0,1.935,3,1.935,3,0c0-7.612,0-15.225,0-22.837
				C182,132.066,179,132.066,179,134L179,134z"/>
		</g>
	</g>
	<g>
		<g>
			<g>
				<path style="fill:#FFFFFF;" d="M115.241,114.625c48.133-4.676,94.923,18.231,120.196,59.593
					c3.355,5.492,12.007,0.472,8.635-5.047c-26.977-44.148-77.26-69.556-128.831-64.546
					C108.883,105.243,108.823,115.249,115.241,114.625L115.241,114.625z"/>
			</g>
		</g>
		<g>
			<g>
				<path style="fill:#FFFFFF;" d="M117.991,104.837c-0.853,0.066-1.705,0.132-2.558,0.197c-1.487,0.115-2.774,0.516-3.856,1.598
					c-1.019,1.018-1.598,2.416-1.598,3.856s0.579,2.838,1.598,3.856c0.954,0.954,2.472,1.705,3.856,1.598
					c0.853-0.066,1.705-0.132,2.558-0.197c1.487-0.115,2.774-0.516,3.856-1.598c1.019-1.018,1.598-2.416,1.598-3.856
					s-0.579-2.838-1.598-3.856C120.894,105.48,119.376,104.73,117.991,104.837L117.991,104.837z"/>
			</g>
		</g>
		<g>
			<g>
				<path style="fill:#FFFFFF;" d="M243.754,169.233c-0.515-0.682-1.029-1.364-1.544-2.047c-0.284-0.368-0.568-0.736-0.853-1.104
					c-0.681-0.676-1.482-1.144-2.406-1.403c-1.408-0.387-2.943-0.188-4.203,0.55c-1.219,0.714-2.131,1.896-2.506,3.26
					c-0.351,1.271-0.283,3.099,0.55,4.203c0.515,0.682,1.029,1.364,1.544,2.047c0.284,0.368,0.568,0.736,0.853,1.104
					c0.681,0.676,1.482,1.144,2.406,1.403c1.408,0.387,2.943,0.188,4.203-0.55c1.219-0.714,2.131-1.896,2.506-3.26
					C244.654,172.165,244.587,170.337,243.754,169.233L243.754,169.233z"/>
			</g>
		</g>
	</g>
</g>
<g id="Ebene_1">
</g>
</svg>
