<?xml version="1.0" encoding="iso-8859-1"?>
<!-- Generator: Adobe Illustrator 16.0.0, SVG Export Plug-In . SVG Version: 6.00 Build 0)  -->
<!DOCTYPE svg PUBLIC "-//W3C//DTD SVG 1.1//EN" "http://www.w3.org/Graphics/SVG/1.1/DTD/svg11.dtd">
<svg version="1.1" xmlns="http://www.w3.org/2000/svg" xmlns:xlink="http://www.w3.org/1999/xlink" x="0px" y="0px" width="361px"
	 height="361px" viewBox="0 0 361 361" style="enable-background:new 0 0 361 361;" xml:space="preserve">
<g id="fts_x5F_blade_x5F_z_x5F_70">
	<g>
		<g>
			<path style="fill:#FFFFFF;" d="M178.833,70.667c0,19.833,0,39.667,0,59.5c0,1.935,3,1.935,3,0c0-19.833,0-39.667,0-59.5
				C181.833,68.732,178.833,68.732,178.833,70.667L178.833,70.667z"/>
		</g>
	</g>
	<g>
		<g>
			<path style="fill:#FFFFFF;" d="M179,159.082c0,13.55,0,27.1,0,40.651c0,1.935,3,1.935,3,0c0-13.551,0-27.101,0-40.651
				C182,157.147,179,157.147,179,159.082L179,159.082z"/>
		</g>
	</g>
	<g>
		<g>
			<path style="fill:#FFFFFF;" d="M179,230.667c0,19.667,0,39.333,0,59c0,1.935,3,1.935,3,0c0-19.667,0-39.333,0-59
				C182,228.732,179,228.732,179,230.667L179,230.667z"/>
		</g>
	</g>
	<g style="display:none;">
		<g style="display:inline;">
			<g>
				<path style="fill:#FFFFFF;" d="M210.117,134.19c0,9.159,0,18.318,0,27.477c0,1.935,3,1.935,3,0c0-9.159,0-18.318,0-27.477
					C213.117,132.256,210.117,132.256,210.117,134.19L210.117,134.19z"/>
			</g>
		</g>
		<g style="display:inline;">
			<g>
				<path style="fill:#FFFFFF;" d="M210.236,198c0,10.444,0,20.89,0,31.334c0,1.935,3,1.935,3,0c0-10.444,0-20.89,0-31.334
					C213.236,196.065,210.236,196.065,210.236,198L210.236,198z"/>
			</g>
		</g>
		<g style="display:inline;">
			<g>
				<path style="fill:#FFFFFF;" d="M210.236,262c0,9.171,0,18.341,0,27.512c0,1.935,3,1.935,3,0c0-9.171,0-18.341,0-27.512
					C213.236,260.065,210.236,260.065,210.236,262L210.236,262z"/>
			</g>
		</g>
	</g>
	<g>
		<g>
			<g>
				<g>
					<path style="fill:#FFFFFF;" d="M171.563,155.407c6.79-2.123,13.58-4.247,20.37-6.37c6.133-1.918,3.514-11.573-2.658-9.643
						c-6.79,2.123-13.58,4.247-20.37,6.37C162.771,147.682,165.391,157.337,171.563,155.407L171.563,155.407z"/>
				</g>
			</g>
			<g>
				<g>
					<path style="fill:#FFFFFF;" d="M194.754,147.568c14.089-17.606,28.177-35.212,42.265-52.817
						c3.986-4.982-3.041-12.106-7.07-7.071c-14.089,17.606-28.177,35.212-42.265,52.817
						C183.697,145.479,190.725,152.604,194.754,147.568L194.754,147.568z"/>
				</g>
			</g>
			<g>
				<g>
					<path style="fill:#FFFFFF;" d="M131.505,206.936c14.088-17.604,28.176-35.209,42.264-52.814
						c3.986-4.982-3.042-12.106-7.071-7.071c-14.088,17.605-28.176,35.21-42.264,52.815
						C120.448,204.847,127.476,211.971,131.505,206.936L131.505,206.936z"/>
				</g>
			</g>
		</g>
		<g>
			<g>
				<path style="fill:#FFFFFF;" d="M126.778,197.938c-0.549,0.656-1.097,1.313-1.646,1.969c-0.961,1.15-1.598,2.309-1.598,3.856
					c0,1.44,0.579,2.838,1.598,3.856c1.018,1.019,2.416,1.598,3.856,1.598c1.332,0,2.972-0.539,3.856-1.598
					c0.549-0.656,1.097-1.313,1.646-1.969c0.961-1.15,1.598-2.309,1.598-3.856c0-1.44-0.579-2.838-1.598-3.856
					c-1.018-1.019-2.416-1.598-3.856-1.598C129.303,196.341,127.663,196.88,126.778,197.938L126.778,197.938z"/>
			</g>
		</g>
		<g>
			<g>
				<path style="fill:#FFFFFF;" d="M229.772,87.811c-0.529,0.671-1.059,1.343-1.588,2.015c-0.284,0.368-0.568,0.736-0.853,1.104
					c-0.494,0.851-0.742,1.769-0.745,2.753c0,1.441,0.579,2.838,1.598,3.856c1.019,1.019,2.416,1.598,3.856,1.598
					c1.297,0,3.015-0.529,3.856-1.598c0.529-0.671,1.059-1.343,1.588-2.015c0.284-0.368,0.568-0.736,0.853-1.104
					c0.494-0.851,0.742-1.769,0.745-2.753c0-1.441-0.579-2.838-1.598-3.856c-1.019-1.019-2.416-1.598-3.856-1.598
					C232.332,86.213,230.614,86.742,229.772,87.811L229.772,87.811z"/>
			</g>
		</g>
	</g>
	<g>
		<g>
			<g>
				<g>
					<path style="fill:#FFFFFF;" d="M171.202,222.024c6.79-2.123,13.58-4.246,20.37-6.369c6.134-1.918,3.514-11.572-2.658-9.643
						c-6.79,2.123-13.58,4.246-20.37,6.369C162.41,214.3,165.03,223.954,171.202,222.024L171.202,222.024z"/>
				</g>
			</g>
			<g>
				<g>
					<path style="fill:#FFFFFF;" d="M194.393,214.185c14.089-17.605,28.178-35.21,42.266-52.816
						c3.986-4.982-3.041-12.106-7.07-7.071c-14.089,17.605-28.178,35.211-42.266,52.817
						C183.336,212.096,190.363,219.22,194.393,214.185L194.393,214.185z"/>
				</g>
			</g>
			<g>
				<g>
					<path style="fill:#FFFFFF;" d="M131.144,273.555c14.088-17.605,28.176-35.211,42.265-52.816
						c3.986-4.981-3.042-12.105-7.071-7.07c-14.088,17.605-28.176,35.211-42.265,52.816
						C120.086,271.466,127.114,278.59,131.144,273.555L131.144,273.555z"/>
				</g>
			</g>
		</g>
		<g>
			<g>
				<path style="fill:#FFFFFF;" d="M126.417,264.558c-0.548,0.655-1.097,1.312-1.645,1.967c-0.961,1.149-1.598,2.309-1.598,3.856
					c0,1.44,0.579,2.838,1.598,3.856c1.018,1.019,2.416,1.598,3.856,1.598c1.333,0,2.971-0.539,3.856-1.598
					c0.548-0.655,1.097-1.312,1.645-1.967c0.961-1.149,1.598-2.309,1.598-3.856c0-1.44-0.579-2.838-1.598-3.856
					c-1.018-1.019-2.416-1.598-3.856-1.598C128.94,262.96,127.302,263.499,126.417,264.558L126.417,264.558z"/>
			</g>
		</g>
		<g>
			<g>
				<path style="fill:#FFFFFF;" d="M229.412,154.429c-0.529,0.672-1.06,1.344-1.589,2.016c-0.284,0.368-0.568,0.736-0.853,1.104
					c-0.494,0.851-0.742,1.769-0.745,2.753c0,1.441,0.579,2.838,1.598,3.856c1.019,1.019,2.416,1.598,3.856,1.598
					c1.298,0,3.015-0.529,3.856-1.598c0.529-0.672,1.06-1.344,1.589-2.016c0.284-0.368,0.568-0.736,0.853-1.104
					c0.494-0.851,0.742-1.769,0.745-2.753c0-1.441-0.579-2.838-1.598-3.856c-1.019-1.019-2.416-1.598-3.856-1.598
					C231.971,152.831,230.254,153.36,229.412,154.429L229.412,154.429z"/>
			</g>
		</g>
	</g>
</g>
<g id="Ebene_1">
</g>
</svg>
