<?xml version="1.0" encoding="iso-8859-1"?>
<!-- Generator: Adobe Illustrator 16.0.0, SVG Export Plug-In . SVG Version: 6.00 Build 0)  -->
<!DOCTYPE svg PUBLIC "-//W3C//DTD SVG 1.1//EN" "http://www.w3.org/Graphics/SVG/1.1/DTD/svg11.dtd">
<svg version="1.1" xmlns="http://www.w3.org/2000/svg" xmlns:xlink="http://www.w3.org/1999/xlink" x="0px" y="0px" width="361px"
	 height="361px" viewBox="0 0 361 361" style="enable-background:new 0 0 361 361;" xml:space="preserve">
<g id="fts_x5F_window_x5F_louvre_x5F_open">
	<path style="fill:#FFFFFF;" d="M250.07,82.114c0-6.644-5.102-12.049-11.373-12.049H123.946c-6.272,0-11.375,5.405-11.375,12.05
		l0.019,197.885c0,6.644,5.103,12.05,11.375,12.05h114.75c6.271,0,11.375-5.406,11.375-12.051L250.07,82.114z M245.903,151.33
		c1.657,2.258,0.438,4.089-2.725,4.089h-3.101l0.002,28.298l5.823,7.924c1.657,2.258,0.438,4.089-2.725,4.089h-3.097l0.002,28.303
		l5.819,7.918c1.657,2.259,0.438,4.09-2.725,4.09h-3.094l0.003,28.308l5.815,7.913c1.657,2.259,0.438,4.089-2.725,4.089h-3.09
		l0.001,3.649c0,1.173-0.727,2.05-1.375,2.05h-114.75c-0.649,0-1.375-0.877-1.375-2.051l-0.002-19.686l-6.325-8.607
		c-1.657-2.258-0.436-4.088,2.725-4.088h3.599l-0.003-27.62l-6.321-8.602c-1.657-2.258-0.436-4.089,2.725-4.089h3.595l-0.002-27.625
		l-6.317-8.596c-1.657-2.258-0.436-4.089,2.725-4.089h3.591l-0.002-27.63l-6.313-8.591c-1.657-2.258-0.436-4.089,2.725-4.089h3.587
		l-0.002-27.635l-6.31-8.586c-1.657-2.258-0.436-4.089,2.725-4.089h3.583l0-4.262c0-1.173,0.726-2.049,1.375-2.049h114.751
		c0.648,0,1.373,0.876,1.373,2.05l0.002,20.972l5.831,7.934c1.657,2.258,0.438,4.089-2.725,4.089h-3.104l0.002,28.292
		L245.903,151.33z"/>
	<g>
		<g>
			<path style="fill:#FFFFFF;" d="M221.82,87.18c7.905,0.613,12.231,9.877,16.429,15.589c1.81,2.461,3.619,4.923,5.428,7.385
				c0.926,1.259,0.308,2.759-1.359,2.759c-10.319,0-20.638,0-30.956,0c-15.993,0-31.987,0-47.98,0c-5.799,0-11.599,0-17.398,0
				c-3.824,0-7.388,0.352-10.972-1.327c-2.478-1.161-3.972-3.889-5.525-6.002c-2.212-3.011-4.425-6.021-6.637-9.032
				c-0.92-1.252-8.584-9.372-3.316-9.372c10.257,0,20.515,0,30.772,0C174.144,87.18,197.982,87.18,221.82,87.18c1.935,0,1.935-3,0-3
				c-24.452,0-48.904,0-73.355,0c-9.804,0-19.608,0-29.412,0c-5.395,0-6.115,3.925-3.373,7.656
				c4.166,5.668,8.331,11.337,12.497,17.005c5.895,8.021,13.545,7.072,22.391,7.072c14.77,0,29.54,0,44.309,0
				c13.801,0,27.603,0,41.403,0c2.685,0,5.392,0.13,8.063-0.146c7.221-0.746,1.108-8.237-0.806-10.841
				c-5.564-7.572-11.221-19.932-21.718-20.747C219.89,84.03,219.904,87.031,221.82,87.18z"/>
		</g>
	</g>
	<g>
		<g>
			<path style="fill:#FFFFFF;" d="M221.82,127.49c7.905,0.613,12.231,9.877,16.429,15.589c1.81,2.462,3.619,4.923,5.428,7.385
				c0.926,1.259,0.308,2.759-1.359,2.759c-10.319,0-20.638,0-30.956,0c-15.993,0-31.987,0-47.98,0c-5.799,0-11.599,0-17.398,0
				c-3.824,0-7.388,0.352-10.972-1.327c-2.479-1.161-3.972-3.889-5.525-6.002c-2.212-3.011-4.425-6.021-6.637-9.032
				c-0.92-1.252-8.584-9.372-3.316-9.372c10.257,0,20.515,0,30.772,0C174.144,127.49,197.982,127.49,221.82,127.49
				c1.935,0,1.935-3,0-3c-24.452,0-48.904,0-73.355,0c-9.804,0-19.608,0-29.412,0c-5.395,0-6.115,3.925-3.373,7.656
				c4.166,5.668,8.331,11.337,12.497,17.006c5.895,8.021,13.545,7.072,22.391,7.072c14.77,0,29.54,0,44.309,0
				c13.801,0,27.603,0,41.403,0c2.685,0,5.392,0.13,8.063-0.146c7.22-0.746,1.108-8.236-0.806-10.841
				c-5.564-7.572-11.22-19.932-21.718-20.747C219.89,124.34,219.904,127.341,221.82,127.49z"/>
		</g>
	</g>
	<g>
		<g>
			<path style="fill:#FFFFFF;" d="M221.82,167.8c7.905,0.613,12.231,9.877,16.429,15.589c1.81,2.462,3.619,4.923,5.428,7.385
				c0.926,1.259,0.308,2.759-1.359,2.759c-10.319,0-20.638,0-30.956,0c-15.993,0-31.987,0-47.98,0c-5.799,0-11.599,0-17.398,0
				c-3.823,0-7.388,0.352-10.972-1.326c-2.478-1.161-3.972-3.89-5.525-6.003c-2.212-3.011-4.425-6.021-6.637-9.032
				c-0.92-1.252-8.584-9.372-3.316-9.372c10.257,0,20.515,0,30.772,0C174.144,167.8,197.982,167.8,221.82,167.8c1.935,0,1.935-3,0-3
				c-24.452,0-48.904,0-73.355,0c-9.804,0-19.608,0-29.412,0c-5.395,0-6.115,3.925-3.373,7.656
				c4.166,5.668,8.331,11.337,12.497,17.006c5.895,8.021,13.545,7.071,22.391,7.071c14.77,0,29.54,0,44.309,0
				c13.801,0,27.603,0,41.403,0c2.685,0,5.392,0.13,8.063-0.146c7.221-0.744,1.108-8.236-0.806-10.84
				c-5.564-7.572-11.221-19.932-21.718-20.747C219.89,164.65,219.904,167.652,221.82,167.8z"/>
		</g>
	</g>
	<g>
		<g>
			<path style="fill:#FFFFFF;" d="M221.82,208.111c7.906,0.613,12.231,9.876,16.429,15.588c1.81,2.462,3.619,4.923,5.428,7.385
				c0.926,1.26,0.308,2.76-1.359,2.76c-10.319,0-20.638,0-30.956,0c-15.993,0-31.987,0-47.98,0c-5.799,0-11.599,0-17.398,0
				c-3.823,0-7.388,0.352-10.972-1.326c-2.478-1.161-3.972-3.891-5.525-6.004c-2.212-3.011-4.425-6.021-6.637-9.031
				c-0.92-1.253-8.583-9.371-3.316-9.371c10.257,0,20.515,0,30.772,0C174.144,208.111,197.982,208.111,221.82,208.111
				c1.935,0,1.935-3,0-3c-24.452,0-48.904,0-73.355,0c-9.804,0-19.608,0-29.412,0c-5.394,0-6.115,3.924-3.373,7.654
				c4.166,5.669,8.331,11.337,12.497,17.006c5.896,8.021,13.544,7.072,22.391,7.072c14.77,0,29.54,0,44.309,0
				c13.801,0,27.603,0,41.403,0c2.685,0,5.392,0.13,8.063-0.146c7.221-0.744,1.108-8.236-0.806-10.841
				c-5.565-7.572-11.22-19.931-21.718-20.745C219.89,204.962,219.904,207.963,221.82,208.111z"/>
		</g>
	</g>
	<g>
		<g>
			<path style="fill:#FFFFFF;" d="M221.82,248.421c7.905,0.613,12.231,9.877,16.429,15.589c1.81,2.462,3.619,4.923,5.428,7.385
				c0.926,1.26,0.308,2.76-1.359,2.76c-10.319,0-20.638,0-30.956,0c-15.993,0-31.987,0-47.98,0c-5.799,0-11.599,0-17.398,0
				c-3.824,0-7.388,0.352-10.972-1.327c-2.478-1.161-3.972-3.89-5.525-6.003c-2.212-3.011-4.425-6.021-6.637-9.031
				c-0.92-1.252-8.584-9.372-3.316-9.372c10.257,0,20.515,0,30.772,0C174.144,248.421,197.982,248.421,221.82,248.421
				c1.935,0,1.935-3,0-3c-24.452,0-48.904,0-73.355,0c-9.804,0-19.608,0-29.412,0c-5.395,0-6.115,3.925-3.373,7.655
				c4.166,5.669,8.331,11.337,12.497,17.006c5.896,8.021,13.544,7.072,22.391,7.072c14.77,0,29.54,0,44.309,0
				c13.801,0,27.603,0,41.403,0c2.685,0,5.392,0.13,8.063-0.146c7.221-0.745,1.108-8.236-0.806-10.841
				c-5.564-7.571-11.221-19.932-21.718-20.746C219.89,245.271,219.904,248.272,221.82,248.421z"/>
		</g>
	</g>
	<path style="display:none;fill:none;stroke:#FFFFFF;stroke-width:10;stroke-miterlimit:10;" d="M303.201,73.314
		c3.52,0,6.373,3.156,6.373,7.049l0.02,197.885c0,3.894-2.854,7.05-6.375,7.05h-114.75c-3.52,0-6.375-3.156-6.375-7.05
		l-0.019-197.885c0-3.893,2.854-7.049,6.374-7.049H303.201z"/>
	<g>
		<g>
			<path style="fill:#FFFFFF;" d="M240.068,95.833c0,49.782,0,99.564,0,149.346c0,10.885,0,21.77,0,32.654c0,6.448,10,6.448,10,0
				c0-49.782,0-99.564,0-149.346c0-10.885,0-21.77,0-32.655C250.068,89.385,240.068,89.385,240.068,95.833L240.068,95.833z"/>
		</g>
	</g>
</g>
<g id="Ebene_1">
</g>
</svg>
