<?xml version="1.0" encoding="iso-8859-1"?>
<!-- Generator: Adobe Illustrator 16.0.0, SVG Export Plug-In . SVG Version: 6.00 Build 0)  -->
<!DOCTYPE svg PUBLIC "-//W3C//DTD SVG 1.1 Tiny//EN" "http://www.w3.org/Graphics/SVG/1.1/DTD/svg11-tiny.dtd">
<svg version="1.1" baseProfile="tiny" id="fts_x5F_light_x5F_dome_x5F_open"
	 xmlns="http://www.w3.org/2000/svg" xmlns:xlink="http://www.w3.org/1999/xlink" x="0px" y="0px" width="361px" height="361px"
	 viewBox="0 0 361 361" xml:space="preserve">
<g id="Fenster_gerade_5_" display="none">
	<path display="inline" fill="none" stroke="#FFFFFF" stroke-width="10" stroke-miterlimit="10" d="M245.308,267.18
		c0,3.911-3.156,7.083-7.049,7.083l-117.885,0.021c-3.894,0-7.05-3.171-7.05-7.083V129.7c0-3.911,3.156-7.083,7.05-7.083
		l117.885-0.021c3.893,0,7.049,3.172,7.049,7.083V267.18z"/>
	<g display="inline">
		<path fill="#FFFFFF" d="M173.315,263.559c0,2.213,0,4.426,0,6.639c0,2.726,2.274,5,5,5s5-2.274,5-5c0-2.213,0-4.426,0-6.639
			c0-2.726-2.274-5-5-5S173.315,260.833,173.315,263.559L173.315,263.559z"/>
	</g>
	<path display="inline" fill="none" stroke="#FFFFFF" stroke-width="10" stroke-miterlimit="10" d="M245.308,127.086
		c0,2.485-2.71,4.5-6.052,4.5l-119.88,0.021c-3.342,0-6.052-2.015-6.052-4.5v-9c0-2.485,2.71-4.5,6.052-4.5l119.88-0.021
		c3.342,0,6.052,2.015,6.052,4.5V127.086z"/>
	<path display="inline" fill="none" stroke="#FFFFFF" stroke-width="10" stroke-miterlimit="10" d="M258.489,280.733
		c0,4.685-3.782,8.485-8.446,8.485l-141.235,0.024c-4.665,0-8.446-3.799-8.446-8.485V106.021c0-4.685,3.782-8.486,8.446-8.486
		l141.235-0.024c4.664,0,8.446,3.801,8.446,8.486V280.733z"/>
</g>
<g>
	<path fill="#FFFFFF" d="M269.037,236.633c-0.293,2.183-2.15,1.357-4.161,1.357c-3.821,0-7.642,0-11.463,0
		c-12.94,0-25.881,0-38.822,0c-31.557,0-63.114,0-94.671,0c-9.748,0-19.496,0-29.244,0c-1.427,0-2.853,0-4.279,0
		c0.086,0-0.48,2.148,0.388-0.459c0.509-1.531,0.996-3.07,1.475-4.611c1.537-4.938,2.902-9.929,4.029-14.977
		c2.141-9.593,1.791-19.449,2.423-29.212c0.078-1.202,0.668-15.391,1.394-15.391c6.885,0,13.769,0,20.653,0
		c30.674,0,61.348,0,92.021,0c12.812,0,25.624,0,38.436,0c3.374,0,6.748,0,10.121,0c2.897,0,2.082,0.822,2.325,3.951
		c0.864,11.125,0.59,22.509,1.88,33.565c1.131,9.691,4.186,19.285,7.494,28.436c2.175,6.016,11.841,3.421,9.643-2.658
		c-2.521-6.971-4.672-14.113-6.29-21.347c-2.064-9.235-1.426-19.17-2.048-28.591c-0.415-6.283,0.595-16.923-4.947-21.205
		c-2.81-2.171-5.849-2.151-9.138-2.151c-25.218,0-50.436,0-75.654,0c-26.535,0-53.07,0-79.606,0c-1.694,0-3.388,0-5.082,0
		c-9.776,0-10.057,9.94-10.609,17.087c-0.749,9.683-0.544,19.552-1.606,29.185c-0.961,8.721-3.97,17.485-6.73,25.779
		c-2.137,6.419,3.241,12.599,9.779,12.599c2.178,0,4.355,0,6.533,0c10.785,0,21.569,0,32.354,0c31.768,0,63.537,0,95.305,0
		c12.286,0,24.572,0,36.858,0c7.614,0,19.47,1.807,20.882-8.699C279.527,232.989,269.893,230.268,269.037,236.633z"/>
</g>
<g>
	<g>
		<path fill="#FFFFFF" d="M246.239,78.405c-5.569-9.664-23.518-5.22-31.871-3.41c-22.898,4.96-44.921,15.052-65.496,26.012
			c-19.14,10.196-38.009,22.13-53.8,37.109c-5.977,5.669-17.959,17.029-13.473,26.497c0.828,1.748,3.414,0.224,2.591-1.514
			c-1.79-3.776,0.995-8.303,2.997-11.393c3.659-5.647,8.734-10.424,13.714-14.883c14.792-13.245,32.07-23.831,49.486-33.226
			c18.831-10.158,38.734-18.895,59.444-24.416c7.101-1.893,14.423-3.345,21.791-3.437c3.987-0.05,9.777,0.271,12.026,4.175
			C244.614,81.595,247.207,80.085,246.239,78.405L246.239,78.405z"/>
	</g>
	<g>
		<g>
			<path fill="#FFFFFF" d="M84.481,172.065c44.133-23.065,88.265-46.131,132.398-69.197c11.128-5.816,22.255-11.632,33.383-17.448
				c5.717-2.988,0.661-11.618-5.047-8.635c-44.133,23.065-88.265,46.131-132.398,69.197c-11.128,5.816-22.255,11.632-33.383,17.448
				C73.718,166.418,78.774,175.048,84.481,172.065L84.481,172.065z"/>
		</g>
		<g>
			<path fill="#FFFFFF" d="M77.137,169.077c0.839,4.085,1.679,8.17,2.519,12.254c0.549,2.671,3.656,4.179,6.15,3.492
				c2.755-0.758,4.041-3.483,3.492-6.15c-0.839-4.085-1.679-8.17-2.519-12.254c-0.549-2.671-3.656-4.179-6.15-3.492
				C77.874,163.684,76.588,166.41,77.137,169.077L77.137,169.077z"/>
		</g>
		<g>
			<path fill="#FFFFFF" d="M244.204,84.639c2.875,3.021,5.749,6.042,8.624,9.063c4.453,4.68,11.513-2.402,7.071-7.071
				c-2.875-3.021-5.749-6.042-8.624-9.063C246.822,72.888,239.762,79.97,244.204,84.639L244.204,84.639z"/>
		</g>
	</g>
</g>
<g>
	<path fill="#FFFFFF" d="M77.869,226.38c-0.09,4.467-1.548,13.803-7.554,14.112c-4.491,0.231-4.513,7.232,0,7
		c10.441-0.537,14.375-12.263,14.554-21.112C84.96,221.864,77.96,221.873,77.869,226.38L77.869,226.38z"/>
</g>
<g>
	<path fill="#FFFFFF" d="M271.099,226.561c0.179,8.849,4.113,20.574,14.554,21.111c4.513,0.232,4.491-6.769,0-7
		c-6.005-0.309-7.464-9.645-7.554-14.111C278.008,222.053,271.007,222.044,271.099,226.561L271.099,226.561z"/>
</g>
<g>
	<path fill="#FFFFFF" d="M81.369,229.88c49.65,0,99.299,0,148.949,0c14.76,0,29.521,0,44.281,0c4.514,0,4.514-7,0-7
		c-49.65,0-99.299,0-148.949,0c-14.76,0-29.521,0-44.281,0C76.855,222.88,76.855,229.88,81.369,229.88L81.369,229.88z"/>
</g>
<g>
	<path fill="#FFFFFF" d="M70.315,249c48.286,0,96.572,0,144.858,0c23.494,0,46.987,0,70.48,0c4.514,0,4.514-7,0-7
		c-48.286,0-96.572,0-144.858,0c-23.494,0-46.987,0-70.48,0C65.801,242,65.801,249,70.315,249L70.315,249z"/>
</g>
<g>
	<path fill="#FFFFFF" d="M243.245,88.478c1.835,25.148,3.67,50.297,5.505,75.445c0.14,1.917,3.141,1.931,3,0
		c-1.835-25.148-3.67-50.297-5.505-75.445C246.105,86.561,243.104,86.547,243.245,88.478L243.245,88.478z"/>
</g>
</svg>
