<?xml version="1.0" encoding="iso-8859-1"?>
<!-- Generator: Adobe Illustrator 16.0.0, SVG Export Plug-In . SVG Version: 6.00 Build 0)  -->
<!DOCTYPE svg PUBLIC "-//W3C//DTD SVG 1.1 Tiny//EN" "http://www.w3.org/Graphics/SVG/1.1/DTD/svg11-tiny.dtd">
<svg version="1.1" baseProfile="tiny" id="fts_x5F_sliding_x5F_gate"
	 xmlns="http://www.w3.org/2000/svg" xmlns:xlink="http://www.w3.org/1999/xlink" x="0px" y="0px" width="361px" height="361px"
	 viewBox="0 0 361 361" xml:space="preserve">
<g>
	<g>
		<path fill="#FFFFFF" d="M107.833,168.724c0,3.491-2.831,6.321-6.322,6.321H89.395c-3.491,0-6.321-2.831-6.321-6.321v-11.589
			c0-3.491,2.831-6.321,6.321-6.321h12.116c3.491,0,6.322,2.83,6.322,6.321V168.724z"/>
		<path fill="#FFFFFF" d="M221.615,168.724c0,3.491-2.831,6.321-6.321,6.321h-12.116c-3.491,0-6.321-2.831-6.321-6.321v-11.589
			c0-3.491,2.83-6.321,6.321-6.321h12.116c3.491,0,6.321,2.83,6.321,6.321V168.724z"/>
		<path fill="#FFFFFF" d="M206.946,121.296H97.104c-6.306,0-11.246-6.332-11.246-14.417v-0.664l5.007-19.54
			c0.488-7.432,8.012-13.655,14.209-13.655h93.9c6.197,0,13.722,6.223,14.21,13.655l5.007,19.54v0.664
			C218.191,114.964,213.251,121.296,206.946,121.296z M97.502,110.761h109.045c0.358-0.396,0.975-1.512,1.09-3.29l-4.963-19.368
			v-0.665c0-1.656-2.627-3.736-3.787-3.885l-93.813,0.004c-1.072,0.146-3.699,2.226-3.699,3.881v0.665l-4.963,19.368
			C96.528,109.249,97.144,110.365,97.502,110.761z"/>
		<path fill="#FFFFFF" d="M226.18,150.492c0,3.085-2.928,5.589-6.538,5.589H84.519c-3.61,0-6.538-2.503-6.538-5.589v-29.194
			c0-3.086,2.928-5.589,6.538-5.589h135.123c3.61,0,6.538,2.502,6.538,5.589V150.492z M112.836,127.886
			c0-2.735-2.83-4.953-6.321-4.953H88.342c-3.492,0-6.322,2.218-6.322,4.953v5.16c0,2.735,2.83,4.953,6.322,4.953h18.173
			c3.491,0,6.321-2.217,6.321-4.953V127.886z M221.878,127.886c0-2.735-2.831-4.953-6.321-4.953h-18.174
			c-3.491,0-6.321,2.218-6.321,4.953v5.16c0,2.735,2.831,4.953,6.321,4.953h18.174c3.491,0,6.321-2.217,6.321-4.953V127.886z
			 M179.473,132.264c0-5.32-2.83-9.633-6.321-9.633h-42.669c-3.491,0-6.321,4.313-6.321,9.633v6.02c0,5.319,2.831,9.633,6.321,9.633
			h42.669c3.491,0,6.321-4.313,6.321-9.633V132.264z"/>
	</g>
	<rect x="117.051" y="125.528" fill="#FFFFFF" width="69.534" height="10.536"/>
	<rect x="118.104" y="139.224" fill="#FFFFFF" width="69.534" height="10.536"/>
</g>
<g>
	<path fill="#FFFFFF" d="M261.813,182.35c0,35.047,0,70.094,0,105.141c0,9.687,15.003,9.772,15.003,0.108
		c0-35.047,0-70.094,0-105.141C276.817,172.772,261.813,172.687,261.813,182.35L261.813,182.35z"/>
</g>
<g>
	<path fill="#FFFFFF" d="M271.315,291.711c-49.292,0-98.583,0-147.874,0c-16.987,0-33.973,0-50.959,0c-1.935,0-1.935,3,0,3
		c49.292,0,98.583,0,147.874,0c16.987,0,33.973,0,50.959,0C273.25,294.711,273.25,291.711,271.315,291.711L271.315,291.711z"/>
</g>
<g>
	<g>
		<path fill="#FFFFFF" d="M111.565,195.076c0,29.551,0,59.103,0,88.654c0,6.449,10,6.449,10,0c0-29.551,0-59.103,0-88.654
			C121.565,188.627,111.565,188.627,111.565,195.076L111.565,195.076z"/>
	</g>
	<g>
		<path fill="#FFFFFF" d="M135.481,195.171c0,29.552,0,59.103,0,88.655c0,6.449,10,6.449,10,0c0-29.552,0-59.103,0-88.655
			C145.481,188.723,135.481,188.723,135.481,195.171L135.481,195.171z"/>
	</g>
	<g>
		<path fill="#FFFFFF" d="M159.398,195.171c0,29.552,0,59.103,0,88.655c0,6.449,10,6.449,10,0c0-29.552,0-59.103,0-88.655
			C169.398,188.723,159.398,188.723,159.398,195.171L159.398,195.171z"/>
	</g>
	<g>
		<path fill="#FFFFFF" d="M207.232,195.171c0,29.552,0,59.103,0,88.655c0,6.449,10,6.449,10,0c0-29.552,0-59.103,0-88.655
			C217.232,188.723,207.232,188.723,207.232,195.171L207.232,195.171z"/>
	</g>
	<g>
		<path fill="#FFFFFF" d="M231.148,195.076c0,29.551,0,59.103,0,88.654c0,6.449,10,6.449,10,0c0-29.551,0-59.103,0-88.654
			C241.148,188.627,231.148,188.627,231.148,195.076L231.148,195.076z"/>
	</g>
	<g>
		<path fill="#FFFFFF" d="M255.065,195.171c0,29.552,0,59.103,0,88.655c0,6.449,10,6.449,10,0c0-29.552,0-59.103,0-88.655
			C265.065,188.723,255.065,188.723,255.065,195.171L255.065,195.171z"/>
	</g>
	<g>
		<path fill="#FFFFFF" d="M278.982,195.171c0,29.552,0,59.103,0,88.655c0,6.449,10,6.449,10,0c0-29.552,0-59.103,0-88.655
			C288.982,188.723,278.982,188.723,278.982,195.171L278.982,195.171z"/>
	</g>
	<g>
		<path fill="#FFFFFF" d="M116.565,288.73c49.658,0,99.315,0,148.973,0c6.148,0,12.296,0,18.444,0c6.449,0,6.449-10,0-10
			c-49.658,0-99.315,0-148.973,0c-6.148,0-12.296,0-18.444,0C110.116,278.73,110.116,288.73,116.565,288.73L116.565,288.73z"/>
	</g>
	<g>
		<path fill="#FFFFFF" d="M116.565,199.403c49.658,0,99.315,0,148.973,0c6.148,0,12.296,0,18.444,0c6.449,0,6.449-10,0-10
			c-49.658,0-99.315,0-148.973,0c-6.148,0-12.296,0-18.444,0C110.116,189.403,110.116,199.403,116.565,199.403L116.565,199.403z"/>
	</g>
	<g>
		<path fill="#FFFFFF" d="M183.315,195.171c0,29.552,0,59.103,0,88.655c0,6.449,10,6.449,10,0c0-29.552,0-59.103,0-88.655
			C193.315,188.723,183.315,188.723,183.315,195.171L183.315,195.171z"/>
	</g>
</g>
<g>
	<path fill="#FFFFFF" d="M67.481,194.403c0,31.797,0,63.594,0,95.392c0,6.449,10,6.449,10,0c0-31.797,0-63.594,0-95.392
		C77.481,187.955,67.481,187.955,67.481,194.403L67.481,194.403z"/>
</g>
</svg>
