<?xml version="1.0" encoding="iso-8859-1"?>
<!-- Generator: Adobe Illustrator 16.0.0, SVG Export Plug-In . SVG Version: 6.00 Build 0)  -->
<!DOCTYPE svg PUBLIC "-//W3C//DTD SVG 1.1//EN" "http://www.w3.org/Graphics/SVG/1.1/DTD/svg11.dtd">
<svg version="1.1" xmlns="http://www.w3.org/2000/svg" xmlns:xlink="http://www.w3.org/1999/xlink" x="0px" y="0px" width="361px"
	 height="361px" viewBox="0 0 361 361" style="enable-background:new 0 0 361 361;" xml:space="preserve">
<g id="fts_x5F_blade_x5F_arc_x5F_20">
	<g>
		<g>
			<g>
				<path style="fill:#FFFFFF;" d="M114.947,232.094c38.286-29.409,90.092-35.009,133.438-13.344
					c5.75,2.874,10.816-5.751,5.047-8.635c-46.316-23.149-102.354-18.287-143.531,13.344
					C104.862,227.329,109.833,236.023,114.947,232.094L114.947,232.094z"/>
			</g>
		</g>
		<g>
			<g>
				<path style="fill:#FFFFFF;" d="M112.355,222.175c-0.688,0.508-1.376,1.016-2.064,1.523c-0.368,0.284-0.736,0.568-1.104,0.853
					c-0.676,0.681-1.144,1.482-1.403,2.406c-0.387,1.408-0.188,2.943,0.55,4.203c0.714,1.219,1.896,2.131,3.26,2.506
					c1.284,0.354,3.084,0.275,4.203-0.55c0.688-0.508,1.376-1.016,2.064-1.523c0.368-0.284,0.736-0.568,1.104-0.853
					c0.676-0.681,1.144-1.482,1.403-2.406c0.387-1.408,0.188-2.943-0.55-4.203c-0.714-1.219-1.896-2.131-3.26-2.506
					C115.274,221.271,113.474,221.35,112.355,222.175L112.355,222.175z"/>
			</g>
		</g>
		<g>
			<g>
				<path style="fill:#FFFFFF;" d="M251.911,209.798c-0.798-0.307-1.596-0.612-2.394-0.918c-1.303-0.5-3.044-0.13-4.203,0.55
					c-1.219,0.714-2.131,1.896-2.506,3.259c-0.388,1.408-0.188,2.943,0.55,4.203c0.771,1.316,1.88,1.978,3.259,2.506
					c0.798,0.307,1.596,0.612,2.394,0.918c1.303,0.5,3.044,0.13,4.203-0.55c1.219-0.714,2.131-1.896,2.506-3.259
					c0.388-1.408,0.188-2.943-0.55-4.203C254.399,210.987,253.29,210.326,251.911,209.798L251.911,209.798z"/>
			</g>
		</g>
	</g>
	<g>
		<g>
			<path style="fill:#FFFFFF;" d="M178.833,71.667c0,5.416,0,10.832,0,16.248c0,1.935,3,1.935,3,0c0-5.416,0-10.832,0-16.248
				C181.833,69.732,178.833,69.732,178.833,71.667L178.833,71.667z"/>
		</g>
	</g>
	<g>
		<g>
			<path style="fill:#FFFFFF;" d="M179,142.989c0,7.612,0,15.225,0,22.837c0,1.935,3,1.935,3,0c0-7.612,0-15.225,0-22.837
				C182,141.055,179,141.055,179,142.989L179,142.989z"/>
		</g>
	</g>
	<g>
		<g>
			<path style="fill:#FFFFFF;" d="M179,217.986c0,23.894,0,47.787,0,71.681c0,1.935,3,1.935,3,0c0-23.894,0-47.787,0-71.681
				C182,216.052,179,216.052,179,217.986L179,217.986z"/>
		</g>
	</g>
	<g>
		<g>
			<g>
				<path style="fill:#FFFFFF;" d="M113.738,151.856c38.286-29.409,90.092-35.008,133.438-13.344
					c5.75,2.874,10.816-5.751,5.047-8.635c-46.316-23.15-102.354-18.287-143.531,13.344
					C103.653,147.092,108.624,155.786,113.738,151.856L113.738,151.856z"/>
			</g>
		</g>
		<g>
			<g>
				<path style="fill:#FFFFFF;" d="M111.146,141.937c-0.688,0.508-1.376,1.016-2.064,1.523c-0.368,0.284-0.736,0.569-1.104,0.853
					c-0.676,0.68-1.144,1.482-1.403,2.407c-0.387,1.408-0.188,2.943,0.55,4.203c0.714,1.219,1.896,2.131,3.26,2.506
					c1.284,0.353,3.084,0.275,4.203-0.55c0.688-0.508,1.376-1.016,2.064-1.523c0.368-0.284,0.736-0.569,1.104-0.853
					c0.676-0.68,1.144-1.482,1.403-2.407c0.387-1.408,0.188-2.943-0.55-4.203c-0.714-1.219-1.896-2.131-3.26-2.506
					C114.065,141.034,112.265,141.112,111.146,141.937L111.146,141.937z"/>
			</g>
		</g>
		<g>
			<g>
				<path style="fill:#FFFFFF;" d="M250.702,129.56c-0.798-0.306-1.596-0.612-2.394-0.918c-1.303-0.5-3.044-0.129-4.203,0.55
					c-1.219,0.714-2.131,1.896-2.506,3.26c-0.388,1.408-0.188,2.943,0.55,4.203c0.771,1.316,1.88,1.977,3.259,2.506
					c0.798,0.306,1.596,0.612,2.394,0.918c1.303,0.5,3.044,0.129,4.203-0.55c1.219-0.714,2.131-1.896,2.506-3.26
					c0.388-1.408,0.188-2.943-0.55-4.203C253.19,130.75,252.081,130.089,250.702,129.56L250.702,129.56z"/>
			</g>
		</g>
	</g>
	<g>
		<g>
			<path style="fill:#FFFFFF;" d="M179,134c0,7.612,0,15.225,0,22.837c0,1.935,3,1.935,3,0c0-7.612,0-15.225,0-22.837
				C182,132.066,179,132.066,179,134L179,134z"/>
		</g>
	</g>
</g>
<g id="Ebene_1">
</g>
</svg>
