<?xml version="1.0" encoding="iso-8859-1"?>
<!-- Generator: Adobe Illustrator 16.0.0, SVG Export Plug-In . SVG Version: 6.00 Build 0)  -->
<!DOCTYPE svg PUBLIC "-//W3C//DTD SVG 1.1//EN" "http://www.w3.org/Graphics/SVG/1.1/DTD/svg11.dtd">
<svg version="1.1" xmlns="http://www.w3.org/2000/svg" xmlns:xlink="http://www.w3.org/1999/xlink" x="0px" y="0px" width="361px"
	 height="361px" viewBox="0 0 361 361" style="enable-background:new 0 0 361 361;" xml:space="preserve">
<g id="fts_x5F_blade_x5F_s_x5F_90">
	<g>
		<g>
			<path style="fill:#FFFFFF;" d="M178.833,70.667c0,14.222,0,28.445,0,42.667c0,1.935,3,1.935,3,0c0-14.222,0-28.445,0-42.667
				C181.833,68.732,178.833,68.732,178.833,70.667L178.833,70.667z"/>
		</g>
	</g>
	<g>
		<g>
			<path style="fill:#FFFFFF;" d="M179,154.082c0,13.55,0,27.1,0,40.651c0,1.935,3,1.935,3,0c0-13.551,0-27.101,0-40.651
				C182,152.147,179,152.147,179,154.082L179,154.082z"/>
		</g>
	</g>
	<g>
		<g>
			<path style="fill:#FFFFFF;" d="M179,237.334c0,17.444,0,34.889,0,52.333c0,1.935,3,1.935,3,0c0-17.444,0-34.889,0-52.333
				C182,235.399,179,235.399,179,237.334L179,237.334z"/>
		</g>
	</g>
	<g style="display:none;">
		<g style="display:inline;">
			<g>
				<path style="fill:#FFFFFF;" d="M210.117,134.19c0,9.159,0,18.318,0,27.477c0,1.935,3,1.935,3,0c0-9.159,0-18.318,0-27.477
					C213.117,132.256,210.117,132.256,210.117,134.19L210.117,134.19z"/>
			</g>
		</g>
		<g style="display:inline;">
			<g>
				<path style="fill:#FFFFFF;" d="M210.236,198c0,10.444,0,20.89,0,31.334c0,1.935,3,1.935,3,0c0-10.444,0-20.89,0-31.334
					C213.236,196.065,210.236,196.065,210.236,198L210.236,198z"/>
			</g>
		</g>
		<g style="display:inline;">
			<g>
				<path style="fill:#FFFFFF;" d="M210.236,262c0,9.171,0,18.341,0,27.512c0,1.935,3,1.935,3,0c0-9.171,0-18.341,0-27.512
					C213.236,260.065,210.236,260.065,210.236,262L210.236,262z"/>
			</g>
		</g>
	</g>
	<g>
		<g>
			<g>
				<path style="fill:#FFFFFF;" d="M162.055,283.365c0.141-15.577-0.022-31.234,6.188-45.85
					c7.906-18.606,24.37-31.499,32.804-49.888c5.016-10.935,7.389-22.756,6.903-34.768c-0.056-1.371-0.157-2.739-0.186-4.111
					c-0.01-0.479,0.202-1.812-0.1,0.009c-1.008,6.08-9.145,0.541-4.528,3.781c5.495,3.857,13.998,12.11,21.113,6.979
					c5.178-3.734,0.194-12.415-5.047-8.635c-1.281,0.924-8.072-4.84-9.544-5.915c-2.367-1.729-4.559-3.677-7.676-2.973
					c-3.723,0.841-4.317,4.715-4.182,7.883c0.487,11.429-0.738,22.083-5.39,32.703c-8.484,19.368-25.911,32.646-33.862,52.385
					c-6.256,15.529-6.347,31.919-6.496,48.399C151.996,289.816,161.997,289.811,162.055,283.365L162.055,283.365z"/>
			</g>
		</g>
		<g>
			<g>
				<path style="fill:#FFFFFF;" d="M152.571,280.708c-0.029,0.855-0.059,1.71-0.089,2.565c-0.103,2.973,2.559,5.454,5.454,5.454
					c3.051,0,5.351-2.483,5.454-5.454c0.029-0.855,0.059-1.71,0.089-2.565c0.103-2.973-2.559-5.454-5.454-5.454
					C154.975,275.254,152.674,277.737,152.571,280.708L152.571,280.708z"/>
			</g>
		</g>
		<g>
			<g>
				<path style="fill:#FFFFFF;" d="M219.192,152.699c-0.639,0.569-1.276,1.139-1.915,1.708c-1.709,1.524-1.549,4.391,0,5.939
					c0.784,0.784,1.86,1.23,2.97,1.23c1.162,0,2.12-0.473,2.97-1.23c0.639-0.569,1.276-1.139,1.915-1.708
					c1.709-1.524,1.549-4.391,0-5.939c-0.784-0.784-1.86-1.23-2.97-1.23C221,151.468,220.042,151.941,219.192,152.699
					L219.192,152.699z"/>
			</g>
		</g>
	</g>
	<g>
		<g>
			<g>
				<path style="fill:#FFFFFF;" d="M161.805,211.836c0.142-15.577-0.021-31.234,6.189-45.849
					c7.907-18.606,24.371-31.499,32.804-49.888c5.016-10.935,7.389-22.756,6.903-34.769c-0.055-1.371-0.157-2.74-0.186-4.111
					c-0.009-0.479,0.203-1.812-0.099,0.009c-1.009,6.08-9.145,0.541-4.528,3.781c5.494,3.857,13.996,12.112,21.11,6.98
					c5.178-3.734,0.194-12.415-5.047-8.635c-1.28,0.923-8.069-4.841-9.541-5.916c-2.366-1.728-4.559-3.677-7.676-2.972
					c-3.723,0.842-4.317,4.714-4.183,7.883c0.487,11.429-0.737,22.083-5.39,32.703c-8.483,19.369-25.91,32.646-33.862,52.385
					c-6.256,15.529-6.347,31.918-6.497,48.399C151.747,218.287,161.747,218.281,161.805,211.836L161.805,211.836z"/>
			</g>
		</g>
		<g>
			<g>
				<path style="fill:#FFFFFF;" d="M152.325,209.18c-0.03,0.854-0.061,1.708-0.091,2.563c-0.105,2.973,2.561,5.454,5.454,5.454
					c3.053,0,5.349-2.483,5.454-5.454c0.03-0.854,0.061-1.708,0.091-2.563c0.105-2.973-2.561-5.454-5.454-5.454
					C154.726,203.726,152.43,206.209,152.325,209.18L152.325,209.18z"/>
			</g>
		</g>
		<g>
			<g>
				<path style="fill:#FFFFFF;" d="M218.944,81.171c-0.638,0.568-1.276,1.137-1.914,1.706c-1.71,1.524-1.549,4.391,0,5.939
					c0.784,0.784,1.86,1.23,2.97,1.23c1.163,0,2.12-0.473,2.97-1.23c0.638-0.568,1.276-1.137,1.914-1.706
					c1.71-1.524,1.549-4.391,0-5.939c-0.784-0.784-1.86-1.23-2.97-1.23C220.751,79.94,219.794,80.413,218.944,81.171L218.944,81.171
					z"/>
			</g>
		</g>
	</g>
</g>
<g id="Ebene_1">
</g>
</svg>
