<?xml version="1.0" encoding="iso-8859-1"?>
<!-- Generator: Adobe Illustrator 16.0.0, SVG Export Plug-In . SVG Version: 6.00 Build 0)  -->
<!DOCTYPE svg PUBLIC "-//W3C//DTD SVG 1.1//EN" "http://www.w3.org/Graphics/SVG/1.1/DTD/svg11.dtd">
<svg version="1.1" xmlns="http://www.w3.org/2000/svg" xmlns:xlink="http://www.w3.org/1999/xlink" x="0px" y="0px" width="361px"
	 height="361px" viewBox="0 0 361 361" style="enable-background:new 0 0 361 361;" xml:space="preserve">
<g id="fts_x5F_blade_x5F_z_x5F_80">
	<g>
		<g>
			<path style="fill:#FFFFFF;" d="M178.833,70.667c0,19.833,0,39.667,0,59.5c0,1.935,3,1.935,3,0c0-19.833,0-39.667,0-59.5
				C181.833,68.732,178.833,68.732,178.833,70.667L178.833,70.667z"/>
		</g>
	</g>
	<g>
		<g>
			<path style="fill:#FFFFFF;" d="M179,159.082c0,13.55,0,27.1,0,40.651c0,1.935,3,1.935,3,0c0-13.551,0-27.101,0-40.651
				C182,157.147,179,157.147,179,159.082L179,159.082z"/>
		</g>
	</g>
	<g>
		<g>
			<path style="fill:#FFFFFF;" d="M179,230.667c0,19.667,0,39.333,0,59c0,1.935,3,1.935,3,0c0-19.667,0-39.333,0-59
				C182,228.732,179,228.732,179,230.667L179,230.667z"/>
		</g>
	</g>
	<g style="display:none;">
		<g style="display:inline;">
			<g>
				<path style="fill:#FFFFFF;" d="M210.117,134.19c0,9.159,0,18.318,0,27.477c0,1.935,3,1.935,3,0c0-9.159,0-18.318,0-27.477
					C213.117,132.256,210.117,132.256,210.117,134.19L210.117,134.19z"/>
			</g>
		</g>
		<g style="display:inline;">
			<g>
				<path style="fill:#FFFFFF;" d="M210.236,198c0,10.444,0,20.89,0,31.334c0,1.935,3,1.935,3,0c0-10.444,0-20.89,0-31.334
					C213.236,196.065,210.236,196.065,210.236,198L210.236,198z"/>
			</g>
		</g>
		<g style="display:inline;">
			<g>
				<path style="fill:#FFFFFF;" d="M210.236,262c0,9.171,0,18.341,0,27.512c0,1.935,3,1.935,3,0c0-9.171,0-18.341,0-27.512
					C213.236,260.065,210.236,260.065,210.236,262L210.236,262z"/>
			</g>
		</g>
	</g>
	<g>
		<g>
			<g>
				<g>
					<path style="fill:#FFFFFF;" d="M173.3,156.345c6.429-3.047,12.856-6.095,19.285-9.143c5.824-2.761,0.746-11.381-5.047-8.635
						c-6.429,3.047-12.857,6.095-19.285,9.143C162.428,150.471,167.506,159.091,173.3,156.345L173.3,156.345z"/>
				</g>
			</g>
			<g>
				<g>
					<path style="fill:#FFFFFF;" d="M194.963,145.141c11.501-19.395,23.002-38.79,34.503-58.185c3.297-5.56-5.35-10.587-8.635-5.047
						c-11.501,19.395-23.002,38.79-34.503,58.185C183.031,145.654,191.678,150.681,194.963,145.141L194.963,145.141z"/>
				</g>
			</g>
			<g>
				<g>
					<path style="fill:#FFFFFF;" d="M140.591,212.734c11.501-19.395,23.001-38.789,34.502-58.184
						c3.297-5.56-5.35-10.587-8.635-5.047c-11.501,19.395-23.001,38.789-34.502,58.184
						C128.66,213.247,137.306,218.274,140.591,212.734L140.591,212.734z"/>
				</g>
			</g>
		</g>
		<g>
			<g>
				<path style="fill:#FFFFFF;" d="M133.98,205.496c-0.452,0.727-0.904,1.453-1.356,2.179c-1.572,2.526-0.553,5.992,1.957,7.462
					c2.619,1.534,5.895,0.563,7.462-1.956c0.452-0.727,0.904-1.453,1.356-2.179c1.572-2.526,0.553-5.992-1.957-7.462
					C138.824,202.006,135.548,202.978,133.98,205.496L133.98,205.496z"/>
			</g>
		</g>
		<g>
			<g>
				<path style="fill:#FFFFFF;" d="M220.646,82.106c-0.431,0.739-0.861,1.478-1.292,2.216c-1.498,2.569-0.608,5.96,1.956,7.462
					c2.563,1.501,5.967,0.607,7.462-1.957c0.431-0.739,0.861-1.478,1.292-2.216c1.499-2.569,0.608-5.96-1.956-7.462
					C225.545,78.649,222.141,79.542,220.646,82.106L220.646,82.106z"/>
			</g>
		</g>
	</g>
	<g>
		<g>
			<g>
				<g>
					<path style="fill:#FFFFFF;" d="M172.938,222.962c6.429-3.048,12.857-6.095,19.286-9.143c5.824-2.761,0.747-11.381-5.047-8.635
						c-6.429,3.048-12.857,6.095-19.286,9.143C162.066,217.088,167.145,225.708,172.938,222.962L172.938,222.962z"/>
				</g>
			</g>
			<g>
				<g>
					<path style="fill:#FFFFFF;" d="M194.601,211.758c11.501-19.395,23.003-38.789,34.504-58.184
						c3.297-5.56-5.35-10.587-8.635-5.047c-11.501,19.395-23.003,38.79-34.504,58.184
						C182.669,212.271,191.315,217.298,194.601,211.758L194.601,211.758z"/>
				</g>
			</g>
			<g>
				<g>
					<path style="fill:#FFFFFF;" d="M140.229,279.352c11.501-19.395,23.001-38.789,34.502-58.184
						c3.297-5.56-5.35-10.587-8.635-5.047c-11.501,19.395-23.001,38.789-34.502,58.184
						C128.298,279.864,136.944,284.892,140.229,279.352L140.229,279.352z"/>
				</g>
			</g>
		</g>
		<g>
			<g>
				<path style="fill:#FFFFFF;" d="M133.618,272.116c-0.452,0.726-0.903,1.451-1.355,2.176c-1.573,2.525-0.552,5.992,1.957,7.462
					c2.62,1.535,5.894,0.563,7.462-1.956c0.452-0.726,0.903-1.451,1.355-2.176c1.573-2.525,0.552-5.992-1.957-7.462
					C138.461,268.625,135.187,269.598,133.618,272.116L133.618,272.116z"/>
			</g>
		</g>
		<g>
			<g>
				<path style="fill:#FFFFFF;" d="M220.285,148.724c-0.432,0.739-0.862,1.478-1.293,2.217c-1.499,2.569-0.608,5.96,1.956,7.462
					c2.563,1.501,5.967,0.607,7.462-1.957c0.432-0.739,0.862-1.478,1.293-2.217c1.499-2.569,0.608-5.96-1.956-7.462
					C225.185,145.267,221.78,146.161,220.285,148.724L220.285,148.724z"/>
			</g>
		</g>
	</g>
</g>
<g id="Ebene_1">
</g>
</svg>
