<?xml version="1.0" encoding="iso-8859-1"?>
<!-- Generator: Adobe Illustrator 16.0.0, SVG Export Plug-In . SVG Version: 6.00 Build 0)  -->
<!DOCTYPE svg PUBLIC "-//W3C//DTD SVG 1.1//EN" "http://www.w3.org/Graphics/SVG/1.1/DTD/svg11.dtd">
<svg version="1.1" xmlns="http://www.w3.org/2000/svg" xmlns:xlink="http://www.w3.org/1999/xlink" x="0px" y="0px" width="361px"
	 height="361px" viewBox="0 0 361 361" style="enable-background:new 0 0 361 361;" xml:space="preserve">
<g id="fts_x5F_window_x5F_1w_x5F_unlocked">
	<path style="fill:none;stroke:#FFFFFF;stroke-width:10;stroke-miterlimit:10;" d="M267.826,263.303c0,3.91-3.156,7.082-7.05,7.082
		l-157.885,0.021c-3.894,0-7.05-3.171-7.05-7.083v-157.5c0-3.911,3.156-7.083,7.05-7.083l157.885-0.021
		c3.894,0,7.05,3.172,7.05,7.083V263.303z"/>
	<g>
		<g>
			<path style="fill:#FFFFFF;" d="M258.5,185.584c2.213,0,4.426,0,6.639,0c2.726,0,5-2.274,5-5s-2.274-5-5-5
				c-2.213,0-4.426,0-6.639,0c-2.726,0-5,2.274-5,5S255.774,185.584,258.5,185.584L258.5,185.584z"/>
		</g>
	</g>
	<path style="fill:none;stroke:#FFFFFF;stroke-width:10;stroke-miterlimit:10;" d="M267.826,103.208c0,2.485-2.711,4.5-6.053,4.5
		l-159.88,0.021c-3.342,0-6.052-2.015-6.052-4.5v-9c0-2.485,2.71-4.5,6.052-4.5l159.88-0.021c3.342,0,6.053,2.015,6.053,4.5V103.208
		z"/>
	<path style="display:none;fill:none;stroke:#FFFFFF;stroke-width:10;stroke-miterlimit:10;" d="M264.732,265.178
		c0.584,2.887-1.629,5.228-4.942,5.228H102.457c-3.313,0-6.474-2.341-7.058-5.228L74.24,130.633
		c-0.584-2.887,1.628-5.228,4.942-5.228h157.333c3.313,0,6.474,2.34,7.058,5.228L264.732,265.178z"/>
	<g>
		<g>
			<g>
				<path style="fill:#FFFFFF;" d="M157.837,181.58c-0.14,0.484-1.605,0.325-0.063,0.325c0.84,0,1.68,0,2.52,0
					c3.167,0,6.333,0,9.499,0c7.917,0,15.834,0,23.751,0c2.875,0,5.749,0,8.624,0c0.84,0,1.68,0,2.52,0
					c1.737,0-0.188-0.016-0.188-1.127c0,5.568,0,11.136,0,16.704c0,6.942,0,13.884,0,20.826c0,0.599,0,1.196,0,1.795
					c0-0.755,1.869-1.127,0.459-1.127c-2.203,0-4.406,0-6.609,0c-13.525,0-27.05,0-40.575,0c-1.76,0,0.188,0.84,0.188,0.969
					c0-1.072,0-2.145,0-3.217c0-4.442,0-8.886,0-13.329c0-7.583,0-15.167,0-22.75c0-4.514-7-4.514-7,0c0,12.217,0,24.434,0,36.651
					c0,4.629,1.24,8.676,6.813,8.676c5.86,0,11.721,0,17.582,0c7.665,0,15.329,0,22.994,0c3.784,0,11.276,1.221,12.697-3.681
					c1.34-4.626,0.453-10.308,0.453-15.054c0-7.492,0-14.984,0-22.477c0-4.524-0.189-9.86-6.315-9.86c-5.707,0-11.414,0-17.121,0
					c-7.984,0-15.967,0-23.951,0c-4.912,0-11.284-1.196-13.025,4.813C149.828,184.064,156.583,185.907,157.837,181.58z"/>
			</g>
		</g>
		<g>
			<g>
				<path style="fill:#FFFFFF;" d="M155.117,215.92c9.023,0,18.046,0,27.07,0c4.514,0,4.514-7,0-7c-9.023,0-18.046,0-27.07,0
					C150.603,208.92,150.603,215.92,155.117,215.92L155.117,215.92z"/>
			</g>
		</g>
		<g>
			<g>
				<path style="fill:#FFFFFF;" d="M156.386,205.075c8.6,0,17.201,0,25.801,0c4.514,0,4.514-7,0-7c-8.6,0-17.201,0-25.801,0
					C151.872,198.075,151.872,205.075,156.386,205.075L156.386,205.075z"/>
			</g>
		</g>
		<g>
			<g>
				<path style="fill:#FFFFFF;" d="M156.386,194.23c8.6,0,17.201,0,25.801,0c4.514,0,4.514-7,0-7c-8.6,0-17.201,0-25.801,0
					C151.872,187.23,151.872,194.23,156.386,194.23L156.386,194.23z"/>
			</g>
		</g>
		<g>
			<g>
				<path style="fill:#FFFFFF;" d="M176.327,153.513c1.945-1.945,3.89-3.89,5.834-5.834c0.973-0.972,1.944-1.945,2.917-2.917
					c0.569-0.569-0.287,0.337-0.536,0.416c0.831-0.265,1.717-0.396,2.572-0.551c1.824-0.331,3.704-0.425,5.555-0.442
					c1.95-0.018-2.724-2.365-0.573-0.215c2.294,2.294,4.589,4.589,6.884,6.884c2.294,2.294,4.589,4.589,6.883,6.884
					c2.175,2.174-0.286-2.576-0.215-0.573c0.066,1.843-0.158,3.738-0.441,5.555c-0.136,0.868-0.334,1.721-0.552,2.572
					c0.062-0.24,0.99-1.11,0.416-0.536c-0.972,0.972-1.944,1.945-2.916,2.917c-1.945,1.945-3.89,3.89-5.834,5.834
					c-4.563,4.564,2.507,11.635,7.07,7.071c2.532-2.532,5.064-5.065,7.597-7.597c2.891-2.891,3.658-5.901,4.196-9.935
					c0.487-3.65,1.418-8.711-1.493-11.622c-2.547-2.547-5.094-5.094-7.641-7.641s-5.093-5.094-7.64-7.641
					c-2.911-2.911-7.973-1.979-11.623-1.492c-4.033,0.538-7.043,1.305-9.935,4.196c-2.532,2.532-5.065,5.064-7.597,7.597
					C164.692,151.005,171.763,158.077,176.327,153.513L176.327,153.513z"/>
			</g>
		</g>
	</g>
</g>
<g id="Ebene_1">
</g>
</svg>
