<?xml version="1.0" encoding="iso-8859-1"?>
<!-- Generator: Adobe Illustrator 16.0.0, SVG Export Plug-In . SVG Version: 6.00 Build 0)  -->
<!DOCTYPE svg PUBLIC "-//W3C//DTD SVG 1.1//EN" "http://www.w3.org/Graphics/SVG/1.1/DTD/svg11.dtd">
<svg version="1.1" xmlns="http://www.w3.org/2000/svg" xmlns:xlink="http://www.w3.org/1999/xlink" x="0px" y="0px" width="361px"
	 height="361px" viewBox="0 0 361 361" style="enable-background:new 0 0 361 361;" xml:space="preserve">
<g id="fts_x5F_light_x5F_dome_x5F_open">
	<g id="Fenster_gerade_5_" style="display:none;">
		<path style="display:inline;fill:none;stroke:#FFFFFF;stroke-width:10;stroke-miterlimit:10;" d="M247.826,264.303
			c0,3.91-3.156,7.082-7.05,7.082l-117.885,0.021c-3.894,0-7.05-3.171-7.05-7.083v-137.5c0-3.911,3.156-7.083,7.05-7.083
			l117.885-0.021c3.894,0,7.05,3.172,7.05,7.083V264.303z"/>
		<g style="display:inline;">
			<g>
				<path style="fill:#FFFFFF;" d="M175.833,260.681c0,2.213,0,4.427,0,6.64c0,2.726,2.274,5,5,5s5-2.274,5-5
					c0-2.213,0-4.427,0-6.64c0-2.726-2.274-5-5-5S175.833,257.955,175.833,260.681L175.833,260.681z"/>
			</g>
		</g>
		<path style="display:inline;fill:none;stroke:#FFFFFF;stroke-width:10;stroke-miterlimit:10;" d="M247.826,124.208
			c0,2.485-2.711,4.5-6.053,4.5l-119.88,0.021c-3.342,0-6.052-2.015-6.052-4.5v-9c0-2.485,2.71-4.5,6.052-4.5l119.88-0.021
			c3.342,0,6.053,2.015,6.053,4.5V124.208z"/>
		<path style="display:inline;fill:none;stroke:#FFFFFF;stroke-width:10;stroke-miterlimit:10;" d="M261.008,277.855
			c0,4.685-3.782,8.484-8.446,8.484l-141.235,0.025c-4.665,0-8.446-3.8-8.446-8.486V103.144c0-4.685,3.782-8.486,8.446-8.486
			l141.235-0.024c4.664,0,8.446,3.801,8.446,8.486V277.855z"/>
	</g>
	<g>
		<g>
			<path style="fill:#FFFFFF;" d="M271.556,233.755c-0.294,2.184-2.15,1.357-4.162,1.357c-3.82,0-7.642,0-11.462,0
				c-12.941,0-25.882,0-38.822,0c-31.557,0-63.114,0-94.671,0c-9.748,0-19.496,0-29.244,0c-1.097,0-3.254,0.435-4.293-0.004
				c0.332,0.141-0.453,2.111,0.401-0.456c0.509-1.531,0.996-3.07,1.475-4.611c1.537-4.938,2.902-9.93,4.029-14.977
				c2.141-9.594,1.791-19.449,2.423-29.212c0.078-1.202,0.668-15.391,1.394-15.391c6.885,0,13.769,0,20.653,0
				c30.674,0,61.348,0,92.021,0c12.812,0,25.624,0,38.437,0c3.373,0,6.747,0,10.12,0c2.653,0,2.034,0.234,2.266,3.18
				c0.893,11.381,0.62,23.025,1.939,34.337c1.131,9.69,4.186,19.284,7.495,28.435c2.175,6.016,11.841,3.421,9.643-2.658
				c-2.521-6.971-4.673-14.112-6.29-21.346c-2.065-9.235-1.427-19.171-2.049-28.591c-0.415-6.283,0.596-16.924-4.946-21.206
				c-2.81-2.171-5.849-2.151-9.138-2.151c-25.219,0-50.437,0-75.654,0c-26.536,0-53.071,0-79.606,0c-1.694,0-3.388,0-5.082,0
				c-9.776,0-10.057,9.94-10.609,17.087c-0.749,9.683-0.544,19.552-1.606,29.185c-0.961,8.721-3.97,17.484-6.73,25.778
				c-2.137,6.419,3.241,12.6,9.779,12.6c2.178,0,4.355,0,6.533,0c10.785,0,21.569,0,32.354,0c31.768,0,63.537,0,95.304,0
				c12.286,0,24.572,0,36.858,0c7.614,0,19.471,1.807,20.883-8.699C282.045,230.11,272.411,227.389,271.556,233.755z"/>
		</g>
	</g>
	<g>
		<g>
			<g>
				<path style="fill:#FFFFFF;" d="M248.757,75.527c-5.568-9.665-23.518-5.22-31.87-3.41c-22.898,4.96-44.921,15.052-65.496,26.012
					c-19.14,10.196-38.009,22.13-53.8,37.109c-5.977,5.669-17.959,17.029-13.473,26.497c0.828,1.748,3.414,0.224,2.591-1.514
					c-1.79-3.776,0.995-8.303,2.997-11.393c3.659-5.647,8.734-10.424,13.714-14.883c14.792-13.245,32.07-23.831,49.486-33.226
					c18.831-10.158,38.734-18.895,59.444-24.416c7.101-1.893,14.422-3.345,21.791-3.437c3.986-0.05,9.777,0.271,12.026,4.175
					C247.132,78.717,249.725,77.207,248.757,75.527L248.757,75.527z"/>
			</g>
		</g>
		<g>
			<g>
				<g>
					<path style="fill:#FFFFFF;" d="M87,169.187c44.133-23.065,88.266-46.131,132.398-69.197
						c11.128-5.816,22.256-11.632,33.384-17.448c5.717-2.988,0.661-11.618-5.047-8.635c-44.133,23.065-88.266,46.131-132.398,69.197
						c-11.128,5.816-22.256,11.632-33.384,17.448C76.236,163.54,81.292,172.17,87,169.187L87,169.187z"/>
				</g>
			</g>
			<g>
				<g>
					<path style="fill:#FFFFFF;" d="M79.655,166.199c0.839,4.085,1.679,8.17,2.519,12.254c0.549,2.671,3.656,4.179,6.15,3.492
						c2.755-0.758,4.041-3.483,3.492-6.15c-0.839-4.085-1.679-8.17-2.519-12.254c-0.549-2.671-3.656-4.179-6.15-3.492
						C80.392,160.806,79.106,163.532,79.655,166.199L79.655,166.199z"/>
				</g>
			</g>
			<g>
				<g>
					<path style="fill:#FFFFFF;" d="M246.723,81.761c2.874,3.021,5.748,6.042,8.623,9.063c4.452,4.68,11.513-2.402,7.07-7.071
						c-2.874-3.021-5.748-6.042-8.623-9.063C249.341,70.01,242.28,77.092,246.723,81.761L246.723,81.761z"/>
				</g>
			</g>
		</g>
	</g>
	<g>
		<g>
			<path style="fill:#FFFFFF;" d="M80.387,223.502c-0.09,4.467-1.548,13.804-7.554,14.112c-4.491,0.231-4.513,7.232,0,7
				c10.441-0.537,14.375-12.264,14.554-21.112C87.479,218.985,80.479,218.994,80.387,223.502L80.387,223.502z"/>
		</g>
	</g>
	<g>
		<g>
			<path style="fill:#FFFFFF;" d="M273.617,223.683c0.18,8.849,4.113,20.574,14.555,21.111c4.514,0.232,4.491-6.769,0-7
				c-6.006-0.309-7.464-9.644-7.555-14.111C280.525,219.175,273.525,219.166,273.617,223.683L273.617,223.683z"/>
		</g>
	</g>
	<g>
		<g>
			<path style="fill:#FFFFFF;" d="M83.887,227.002c49.65,0,99.299,0,148.95,0c14.76,0,29.521,0,44.28,0c4.514,0,4.514-7,0-7
				c-49.649,0-99.299,0-148.949,0c-14.76,0-29.521,0-44.281,0C79.373,220.002,79.373,227.002,83.887,227.002L83.887,227.002z"/>
		</g>
	</g>
	<g>
		<g>
			<path style="fill:#FFFFFF;" d="M72.833,246.122c48.286,0,96.572,0,144.858,0c23.493,0,46.987,0,70.48,0c4.514,0,4.514-7,0-7
				c-48.286,0-96.572,0-144.858,0c-23.494,0-46.987,0-70.48,0C68.319,239.122,68.319,246.122,72.833,246.122L72.833,246.122z"/>
		</g>
	</g>
	<g>
		<g>
			<path style="fill:#FFFFFF;" d="M245.764,85.6c1.835,25.148,3.669,50.297,5.504,75.445c0.14,1.917,3.141,1.931,3,0
				c-1.835-25.148-3.669-50.297-5.504-75.445C248.624,83.683,245.623,83.669,245.764,85.6L245.764,85.6z"/>
		</g>
	</g>
</g>
<g id="Ebene_1">
</g>
</svg>
