<?xml version="1.0" encoding="iso-8859-1"?>
<!-- Generator: Adobe Illustrator 16.0.0, SVG Export Plug-In . SVG Version: 6.00 Build 0)  -->
<!DOCTYPE svg PUBLIC "-//W3C//DTD SVG 1.1//EN" "http://www.w3.org/Graphics/SVG/1.1/DTD/svg11.dtd">
<svg version="1.1" xmlns="http://www.w3.org/2000/svg" xmlns:xlink="http://www.w3.org/1999/xlink" x="0px" y="0px" width="361px"
	 height="361px" viewBox="0 0 361 361" style="enable-background:new 0 0 361 361;" xml:space="preserve">
<g id="fts_x5F_window_x5F_1w_x5F_locked">
	<path style="fill:none;stroke:#FFFFFF;stroke-width:10;stroke-miterlimit:10;" d="M267.826,263.303c0,3.91-3.156,7.082-7.05,7.082
		l-157.885,0.021c-3.894,0-7.05-3.171-7.05-7.083v-157.5c0-3.911,3.156-7.083,7.05-7.083l157.885-0.021
		c3.894,0,7.05,3.172,7.05,7.083V263.303z"/>
	<g>
		<g>
			<path style="fill:#FFFFFF;" d="M258.5,185.584c2.213,0,4.426,0,6.639,0c2.726,0,5-2.274,5-5s-2.274-5-5-5
				c-2.213,0-4.426,0-6.639,0c-2.726,0-5,2.274-5,5S255.774,185.584,258.5,185.584L258.5,185.584z"/>
		</g>
	</g>
	<path style="fill:none;stroke:#FFFFFF;stroke-width:10;stroke-miterlimit:10;" d="M267.826,103.208c0,2.485-2.711,4.5-6.053,4.5
		l-159.88,0.021c-3.342,0-6.052-2.015-6.052-4.5v-9c0-2.485,2.71-4.5,6.052-4.5l159.88-0.021c3.342,0,6.053,2.015,6.053,4.5V103.208
		z"/>
	<path style="display:none;fill:none;stroke:#FFFFFF;stroke-width:10;stroke-miterlimit:10;" d="M264.732,265.178
		c0.584,2.887-1.629,5.228-4.942,5.228H102.457c-3.313,0-6.474-2.341-7.058-5.228L74.24,130.633
		c-0.584-2.887,1.628-5.228,4.942-5.228h157.333c3.313,0,6.474,2.34,7.058,5.228L264.732,265.178z"/>
	<g>
		<g>
			<g>
				<path style="fill:#FFFFFF;" d="M157.837,181.579c-0.141,0.485-1.605,0.326-0.063,0.326c0.84,0,1.68,0,2.52,0
					c3.167,0,6.333,0,9.499,0c7.917,0,15.834,0,23.751,0c2.875,0,5.749,0,8.624,0c0.84,0,1.68,0,2.52,0
					c1.737,0-0.188-0.016-0.188-1.127c0,5.568,0,11.136,0,16.704c0,6.942,0,13.885,0,20.827c0,0.599,0,1.196,0,1.795
					c0-0.755,1.869-1.127,0.459-1.127c-2.203,0-4.406,0-6.609,0c-13.525,0-27.05,0-40.575,0c-1.76,0,0.188,0.84,0.188,0.969
					c0-1.072,0-2.145,0-3.217c0-4.442,0-8.886,0-13.329c0-7.583,0-15.167,0-22.75c0-4.514-7-4.514-7,0c0,12.217,0,24.434,0,36.652
					c0,4.629,1.24,8.676,6.813,8.676c5.86,0,11.721,0,17.582,0c7.665,0,15.329,0,22.994,0c3.784,0,11.276,1.221,12.697-3.681
					c1.34-4.626,0.453-10.308,0.453-15.054c0-7.492,0-14.984,0-22.477c0-4.525-0.19-9.86-6.315-9.86c-5.707,0-11.414,0-17.121,0
					c-7.984,0-15.967,0-23.951,0c-4.912,0-11.284-1.196-13.025,4.813C149.828,184.064,156.583,185.906,157.837,181.579z"/>
			</g>
		</g>
		<g>
			<g>
				<path style="fill:#FFFFFF;" d="M155.117,215.92c9.023,0,18.046,0,27.07,0c4.514,0,4.514-7,0-7c-9.023,0-18.046,0-27.07,0
					C150.603,208.92,150.603,215.92,155.117,215.92L155.117,215.92z"/>
			</g>
		</g>
		<g>
			<g>
				<path style="fill:#FFFFFF;" d="M156.386,205.075c8.6,0,17.201,0,25.801,0c4.514,0,4.514-7,0-7c-8.6,0-17.201,0-25.801,0
					C151.872,198.075,151.872,205.075,156.386,205.075L156.386,205.075z"/>
			</g>
		</g>
		<g>
			<g>
				<path style="fill:#FFFFFF;" d="M156.386,194.23c8.6,0,17.201,0,25.801,0c4.514,0,4.514-7,0-7c-8.6,0-17.201,0-25.801,0
					C151.872,187.23,151.872,194.23,156.386,194.23L156.386,194.23z"/>
			</g>
		</g>
		<g>
			<g>
				<path style="fill:#FFFFFF;" d="M166.682,176.463c0-2.75,0-5.501,0-8.251c0-1.375,0-2.75,0-4.125
					c0-0.812,0.027,0.449-0.117,0.728c0.4-0.775,0.934-1.494,1.429-2.208c1.069-1.544,2.333-2.958,3.647-4.295
					c1.367-1.392-3.599,0.254-0.558,0.254c3.245,0,6.49,0,9.735,0c3.246,0,6.491,0,9.736,0c3.074,0-2.024-1.619-0.558-0.254
					c1.367,1.273,2.548,2.791,3.646,4.295c0.519,0.709,0.981,1.453,1.43,2.208c-0.155-0.261-0.117-1.545-0.117-0.728
					c0,1.375,0,2.75,0,4.125c0,2.75,0,5.501,0,8.251c0,6.448,10,6.448,10,0c0-3.581,0-7.163,0-10.744
					c0-3.993-1.492-6.647-3.911-9.811c-2.267-2.966-5.234-7.344-9.42-7.344c-3.603,0-7.204,0-10.806,0s-7.204,0-10.806,0
					c-4.185,0-7.152,4.378-9.42,7.344c-2.418,3.163-3.911,5.818-3.911,9.811c0,3.581,0,7.163,0,10.744
					C156.682,182.911,166.682,182.911,166.682,176.463L166.682,176.463z"/>
			</g>
		</g>
	</g>
</g>
<g id="Ebene_1">
</g>
</svg>
