<?xml version="1.0" encoding="iso-8859-1"?>
<!-- Generator: Adobe Illustrator 16.0.3, SVG Export Plug-In . SVG Version: 6.00 Build 0)  -->
<!DOCTYPE svg PUBLIC "-//W3C//DTD SVG 1.1//EN" "http://www.w3.org/Graphics/SVG/1.1/DTD/svg11.dtd">
<svg version="1.1" xmlns="http://www.w3.org/2000/svg" xmlns:xlink="http://www.w3.org/1999/xlink" x="0px" y="0px" width="361px"
	 height="361px" viewBox="0 0 361 361" style="enable-background:new 0 0 361 361;" xml:space="preserve">
<g id="fts_x5F_sunblind_x5F_volant">
	<g>
		<g>
			<g>
				<path style="fill:#FFFFFF;" d="M225.543,106.203c19.433,19.434,38.866,38.867,58.3,58.301c4.563,4.563,11.635-2.507,7.07-7.071
					c-19.433-19.434-38.866-38.867-58.3-58.301C228.05,94.568,220.979,101.639,225.543,106.203L225.543,106.203z"/>
			</g>
		</g>
		<g>
			<g>
				<path style="fill:#FFFFFF;" d="M195.359,106.203c19.434,19.434,38.867,38.867,58.302,58.301
					c4.563,4.563,11.635-2.507,7.07-7.071c-19.434-19.434-38.867-38.867-58.302-58.301
					C197.866,94.568,190.795,101.639,195.359,106.203L195.359,106.203z"/>
			</g>
		</g>
		<g>
			<g>
				<path style="fill:#FFFFFF;" d="M165.693,106.203c19.434,19.434,38.868,38.867,58.301,58.301
					c4.563,4.563,11.635-2.507,7.07-7.071c-19.434-19.434-38.867-38.867-58.3-58.301C168.2,94.568,161.129,101.639,165.693,106.203
					L165.693,106.203z"/>
			</g>
		</g>
		<g>
			<g>
				<path style="fill:#FFFFFF;" d="M135.511,106.203c19.434,19.434,38.868,38.867,58.302,58.301
					c4.563,4.563,11.635-2.507,7.07-7.071c-19.434-19.434-38.867-38.867-58.301-58.301
					C138.018,94.568,130.947,101.639,135.511,106.203L135.511,106.203z"/>
			</g>
		</g>
		<g>
			<g>
				<path style="fill:#FFFFFF;" d="M102.749,106.203c19.434,19.434,38.867,38.867,58.301,58.301
					c4.564,4.563,11.635-2.507,7.071-7.071c-19.434-19.434-38.867-38.867-58.301-58.301
					C105.256,94.568,98.185,101.639,102.749,106.203L102.749,106.203z"/>
			</g>
		</g>
		<g>
			<g>
				<path style="fill:#FFFFFF;" d="M71.566,106.203c19.434,19.434,38.867,38.867,58.301,58.301
					c4.564,4.563,11.635-2.507,7.071-7.071c-19.434-19.434-38.867-38.867-58.301-58.301
					C74.074,94.568,67.003,101.639,71.566,106.203L71.566,106.203z"/>
			</g>
		</g>
	</g>
	<g>
		<g>
			<g>
				<path style="fill:#FFFFFF;" d="M282.378,161.484c0,15.894,0,31.787,0,47.68c0,6.448,10,6.448,10,0c0-15.894,0-31.787,0-47.68
					C292.378,155.035,282.378,155.035,282.378,161.484L282.378,161.484z"/>
			</g>
		</g>
		<g>
			<g>
				<path style="fill:#FFFFFF;" d="M252.196,161.484c0,15.894,0,31.787,0,47.68c0,6.448,10,6.448,10,0c0-15.894,0-31.787,0-47.68
					C262.196,155.035,252.196,155.035,252.196,161.484L252.196,161.484z"/>
			</g>
		</g>
		<g>
			<g>
				<path style="fill:#FFFFFF;" d="M222.529,161.484c0,15.894,0,31.787,0,47.68c0,6.448,10,6.448,10,0c0-15.894,0-31.787,0-47.68
					C232.529,155.035,222.529,155.035,222.529,161.484L222.529,161.484z"/>
			</g>
		</g>
		<g>
			<g>
				<path style="fill:#FFFFFF;" d="M192.348,161.484c0,15.894,0,31.787,0,47.68c0,6.448,10,6.448,10,0c0-15.894,0-31.787,0-47.68
					C202.348,155.035,192.348,155.035,192.348,161.484L192.348,161.484z"/>
			</g>
		</g>
		<g>
			<g>
				<path style="fill:#FFFFFF;" d="M159.585,161.484c0,15.894,0,31.787,0,47.68c0,6.448,10,6.448,10,0c0-15.894,0-31.787,0-47.68
					C169.585,155.035,159.585,155.035,159.585,161.484L159.585,161.484z"/>
			</g>
		</g>
		<g>
			<g>
				<path style="fill:#FFFFFF;" d="M128.403,161.484c0,15.894,0,31.787,0,47.68c0,6.448,10,6.448,10,0c0-15.894,0-31.787,0-47.68
					C138.403,155.035,128.403,155.035,128.403,161.484L128.403,161.484z"/>
			</g>
		</g>
	</g>
	<g id="fenster_x5F_ganz_2_" style="display:none;">
		<path style="display:inline;fill:none;stroke:#FFFFFF;stroke-width:10;stroke-miterlimit:10;" d="M263.998,258.555
			c0,3.445-2.78,6.241-6.213,6.241l-174.406,0.019c-3.432,0-6.213-2.794-6.213-6.242V146.199c0-3.445,2.781-6.243,6.213-6.243
			l174.406-0.017c3.433,0,6.213,2.795,6.213,6.242V258.555z"/>
		<g style="display:inline;">
			<g>
				<path style="fill:#FFFFFF;" d="M165.025,199.396c3.705,0,7.409,0,11.113,0c6.448,0,6.448-10,0-10c-3.705,0-7.409,0-11.113,0
					C158.577,189.396,158.577,199.396,165.025,199.396L165.025,199.396z"/>
			</g>
		</g>
		
			<line style="display:inline;fill:none;stroke:#FFFFFF;stroke-width:10;stroke-miterlimit:10;" x1="170.582" y1="140.7" x2="170.582" y2="261.6"/>
	</g>
	<g id="fenster_1_">
		<path style="fill:none;stroke:#FFFFFF;stroke-width:10;stroke-miterlimit:10;" d="M263.998,215.006v43.549
			c0,3.445-2.78,6.241-6.213,6.241l-174.406,0.019c-3.432,0-6.213-2.794-6.213-6.242V146.199c0-3.445,2.781-6.243,6.213-6.243
			l29.121-0.003"/>
		
			<line style="fill:none;stroke:#FFFFFF;stroke-width:10;stroke-miterlimit:10;" x1="170.582" y1="215.336" x2="170.582" y2="261.6"/>
	</g>
</g>
<g id="Ebene_1">
</g>
</svg>
