<?xml version="1.0" encoding="iso-8859-1"?>
<!-- Generator: Adobe Illustrator 16.0.0, SVG Export Plug-In . SVG Version: 6.00 Build 0)  -->
<!DOCTYPE svg PUBLIC "-//W3C//DTD SVG 1.1//EN" "http://www.w3.org/Graphics/SVG/1.1/DTD/svg11.dtd">
<svg version="1.1" xmlns="http://www.w3.org/2000/svg" xmlns:xlink="http://www.w3.org/1999/xlink" x="0px" y="0px" width="361px"
	 height="361px" viewBox="0 0 361 361" style="enable-background:new 0 0 361 361;" xml:space="preserve">
<g id="fts_x5F_blade_x5F_s_x5F_80">
	<g>
		<g>
			<path style="fill:#FFFFFF;" d="M178.833,70.667c0,14.222,0,28.445,0,42.667c0,1.935,3,1.935,3,0c0-14.222,0-28.445,0-42.667
				C181.833,68.732,178.833,68.732,178.833,70.667L178.833,70.667z"/>
		</g>
	</g>
	<g>
		<g>
			<path style="fill:#FFFFFF;" d="M179,154.082c0,13.55,0,27.1,0,40.651c0,1.935,3,1.935,3,0c0-13.551,0-27.101,0-40.651
				C182,152.147,179,152.147,179,154.082L179,154.082z"/>
		</g>
	</g>
	<g>
		<g>
			<path style="fill:#FFFFFF;" d="M179,237.334c0,17.444,0,34.889,0,52.333c0,1.935,3,1.935,3,0c0-17.444,0-34.889,0-52.333
				C182,235.399,179,235.399,179,237.334L179,237.334z"/>
		</g>
	</g>
	<g style="display:none;">
		<g style="display:inline;">
			<g>
				<path style="fill:#FFFFFF;" d="M210.117,134.19c0,9.159,0,18.318,0,27.477c0,1.935,3,1.935,3,0c0-9.159,0-18.318,0-27.477
					C213.117,132.256,210.117,132.256,210.117,134.19L210.117,134.19z"/>
			</g>
		</g>
		<g style="display:inline;">
			<g>
				<path style="fill:#FFFFFF;" d="M210.236,198c0,10.444,0,20.89,0,31.334c0,1.935,3,1.935,3,0c0-10.444,0-20.89,0-31.334
					C213.236,196.065,210.236,196.065,210.236,198L210.236,198z"/>
			</g>
		</g>
		<g style="display:inline;">
			<g>
				<path style="fill:#FFFFFF;" d="M210.236,262c0,9.171,0,18.341,0,27.512c0,1.935,3,1.935,3,0c0-9.171,0-18.341,0-27.512
					C213.236,260.065,210.236,260.065,210.236,262L210.236,262z"/>
			</g>
		</g>
	</g>
	<g>
		<g>
			<g>
				<path style="fill:#FFFFFF;" d="M153.912,278.904c2.05-15.537,4.058-30.853,12.031-44.651
					c5.146-8.904,12.377-16.17,19.937-23.027c7.231-6.56,13.582-14.18,18.703-22.491c6.323-10.263,9.807-21.809,10.787-33.771
					c0.112-1.367,0.178-2.738,0.316-4.103c-0.153,1.501-0.048,0.4,0.062,0.028c-0.815,2.326-2.643,3.314-5.481,2.964
					c-0.963-0.159-3.106-2.272-0.177,0.373c5.517,4.98,12.842,14.238,21.153,9.667c5.651-3.107,0.606-11.744-5.047-8.635
					c0.437-0.24-2.116-1.783-2.736-2.301c-2.188-1.827-4.21-3.867-6.3-5.803c-1.55-1.436-3.46-3.369-5.811-3.133
					c-4.528,0.454-5.457,4.122-5.764,7.964c-0.912,11.435-3.73,21.735-9.638,31.701c-5.625,9.489-13.441,16.939-21.433,24.397
					c-7.33,6.84-13.737,14.791-18.591,23.57c-8.058,14.572-9.872,31.033-12.012,47.249
					C143.07,285.283,153.081,285.202,153.912,278.904L153.912,278.904z"/>
			</g>
		</g>
		<g>
			<g>
				<path style="fill:#FFFFFF;" d="M144.941,274.935c-0.134,0.845-0.268,1.689-0.401,2.533c-0.065,0.483-0.13,0.967-0.195,1.45
					c0.003,0.984,0.251,1.902,0.745,2.753c0.714,1.219,1.896,2.131,3.26,2.506c1.408,0.388,2.943,0.188,4.203-0.55
					c1.106-0.647,2.297-1.937,2.506-3.259c0.134-0.845,0.268-1.689,0.401-2.533c0.065-0.483,0.13-0.967,0.195-1.45
					c-0.003-0.984-0.251-1.902-0.745-2.753c-0.714-1.219-1.896-2.131-3.26-2.506c-1.408-0.388-2.943-0.188-4.203,0.55
					C146.341,272.323,145.15,273.612,144.941,274.935L144.941,274.935z"/>
			</g>
		</g>
		<g>
			<g>
				<path style="fill:#FFFFFF;" d="M226.976,156.468c-0.702,0.487-1.405,0.974-2.108,1.461c-0.926,0.642-1.623,1.394-1.93,2.51
					c-0.299,1.084-0.145,2.267,0.423,3.236c1.09,1.861,3.862,2.813,5.747,1.507c0.702-0.487,1.405-0.974,2.108-1.461
					c0.926-0.642,1.623-1.394,1.93-2.51c0.299-1.084,0.145-2.267-0.423-3.236C231.633,156.114,228.86,155.162,226.976,156.468
					L226.976,156.468z"/>
			</g>
		</g>
	</g>
	<g>
		<g>
			<g>
				<path style="fill:#FFFFFF;" d="M153.662,207.374c2.051-15.537,4.059-30.852,12.033-44.65
					c5.146-8.904,12.377-16.169,19.937-23.027c7.231-6.56,13.582-14.18,18.702-22.491c6.324-10.264,9.807-21.809,10.787-33.77
					c0.111-1.367,0.177-2.738,0.316-4.104c-0.153,1.501-0.049,0.4,0.062,0.029c-0.815,2.326-2.643,3.314-5.482,2.964
					c-0.961-0.159-3.106-2.272-0.176,0.373c5.519,4.98,12.842,14.236,21.154,9.666c5.651-3.107,0.606-11.743-5.047-8.635
					c0.437-0.24-2.116-1.782-2.736-2.3c-2.188-1.827-4.21-3.867-6.3-5.802c-1.551-1.436-3.461-3.369-5.812-3.133
					c-4.528,0.454-5.458,4.122-5.764,7.964c-0.912,11.435-3.73,21.734-9.638,31.7c-5.624,9.49-13.44,16.939-21.432,24.397
					c-7.33,6.84-13.737,14.792-18.592,23.57c-8.058,14.572-9.872,31.033-12.013,47.248
					C142.82,213.753,152.831,213.672,153.662,207.374L153.662,207.374z"/>
			</g>
		</g>
		<g>
			<g>
				<path style="fill:#FFFFFF;" d="M144.692,203.406c-0.134,0.845-0.268,1.689-0.401,2.533c-0.065,0.483-0.13,0.967-0.195,1.45
					c0.003,0.984,0.251,1.902,0.745,2.753c0.714,1.219,1.896,2.131,3.26,2.506c1.408,0.388,2.943,0.188,4.203-0.55
					c1.106-0.647,2.297-1.937,2.506-3.259c0.134-0.845,0.268-1.689,0.401-2.533c0.065-0.483,0.13-0.967,0.195-1.45
					c-0.003-0.984-0.251-1.902-0.745-2.753c-0.714-1.219-1.896-2.131-3.26-2.506c-1.408-0.388-2.943-0.188-4.203,0.55
					C146.092,200.795,144.901,202.084,144.692,203.406L144.692,203.406z"/>
			</g>
		</g>
		<g>
			<g>
				<path style="fill:#FFFFFF;" d="M226.729,84.939c-0.702,0.487-1.405,0.974-2.108,1.461c-0.926,0.642-1.623,1.394-1.93,2.51
					c-0.299,1.084-0.145,2.267,0.423,3.236c1.09,1.861,3.862,2.813,5.747,1.507c0.702-0.487,1.405-0.974,2.108-1.461
					c0.926-0.642,1.623-1.394,1.93-2.51c0.299-1.084,0.145-2.267-0.423-3.236C231.386,84.585,228.613,83.633,226.729,84.939
					L226.729,84.939z"/>
			</g>
		</g>
	</g>
</g>
<g id="Ebene_1">
</g>
</svg>
