<?xml version="1.0" encoding="iso-8859-1"?>
<!-- Generator: Adobe Illustrator 16.0.3, SVG Export Plug-In . SVG Version: 6.00 Build 0)  -->
<!DOCTYPE svg PUBLIC "-//W3C//DTD SVG 1.1//EN" "http://www.w3.org/Graphics/SVG/1.1/DTD/svg11.dtd">
<svg version="1.1" xmlns="http://www.w3.org/2000/svg" xmlns:xlink="http://www.w3.org/1999/xlink" x="0px" y="0px" width="361px"
	 height="361px" viewBox="0 0 361 361" style="enable-background:new 0 0 361 361;" xml:space="preserve">
<g id="fts_x5F_blade_x5F_arc_x5F_-40">
	<g>
		<g>
			<g>
				<path style="fill:#FFFFFF;" d="M126.071,178.726c47.59,8.767,86.208,43.759,99.088,90.494c1.711,6.209,11.359,3.569,9.643-2.658
					c-13.739-49.85-55.172-88.103-106.073-97.479C122.426,167.922,119.734,177.559,126.071,178.726L126.071,178.726z"/>
			</g>
		</g>
		<g>
			<g>
				<path style="fill:#FFFFFF;" d="M131.311,170.044c-0.837-0.172-1.675-0.344-2.513-0.517c-1.472-0.303-2.876-0.227-4.203,0.55
					c-1.219,0.714-2.131,1.896-2.506,3.26c-0.387,1.408-0.188,2.943,0.55,4.203c0.675,1.152,1.918,2.23,3.26,2.506
					c0.837,0.172,1.675,0.344,2.513,0.517c1.472,0.303,2.876,0.227,4.203-0.55c1.219-0.714,2.131-1.896,2.506-3.26
					c0.387-1.408,0.188-2.943-0.55-4.203C133.895,171.398,132.652,170.32,131.311,170.044L131.311,170.044z"/>
			</g>
		</g>
		<g>
			<g>
				<path style="fill:#FFFFFF;" d="M234.478,266.524c-0.307-0.797-0.613-1.595-0.92-2.393c-0.53-1.38-1.188-2.487-2.506-3.259
					c-1.26-0.738-2.795-0.938-4.203-0.55c-1.363,0.375-2.545,1.287-3.259,2.506c-0.679,1.158-1.051,2.901-0.55,4.203
					c0.307,0.797,0.613,1.595,0.92,2.393c0.53,1.38,1.188,2.487,2.506,3.259c1.26,0.738,2.795,0.938,4.203,0.55
					c1.363-0.375,2.545-1.287,3.259-2.506C234.606,269.569,234.979,267.826,234.478,266.524L234.478,266.524z"/>
			</g>
		</g>
	</g>
	<g>
		<g>
			<path style="fill:#FFFFFF;" d="M178.833,71.667c0,5.416,0,10.832,0,16.248c0,1.935,3,1.935,3,0c0-5.416,0-10.832,0-16.248
				C181.833,69.732,178.833,69.732,178.833,71.667L178.833,71.667z"/>
		</g>
	</g>
	<g>
		<g>
			<path style="fill:#FFFFFF;" d="M179,142.989c0,7.612,0,15.225,0,22.837c0,1.935,3,1.935,3,0c0-7.612,0-15.225,0-22.837
				C182,141.055,179,141.055,179,142.989L179,142.989z"/>
		</g>
	</g>
	<g>
		<g>
			<path style="fill:#FFFFFF;" d="M179,217.986c0,23.894,0,47.787,0,71.681c0,1.935,3,1.935,3,0c0-23.894,0-47.787,0-71.681
				C182,216.052,179,216.052,179,217.986L179,217.986z"/>
		</g>
	</g>
	<g>
		<g>
			<path style="fill:#FFFFFF;" d="M179,134c0,7.612,0,15.225,0,22.837c0,1.935,3,1.935,3,0c0-7.612,0-15.225,0-22.837
				C182,132.066,179,132.066,179,134L179,134z"/>
		</g>
	</g>
	<g>
		<g>
			<g>
				<path style="fill:#FFFFFF;" d="M124.863,98.485c47.589,8.766,86.207,43.76,99.089,90.493c1.711,6.209,11.359,3.569,9.643-2.658
					c-13.74-49.848-55.173-88.102-106.074-97.478C121.218,87.682,118.526,97.318,124.863,98.485L124.863,98.485z"/>
			</g>
		</g>
		<g>
			<g>
				<path style="fill:#FFFFFF;" d="M130.102,89.803c-0.837-0.172-1.675-0.344-2.513-0.516c-1.472-0.302-2.875-0.228-4.203,0.55
					c-1.219,0.714-2.131,1.896-2.506,3.26c-0.387,1.408-0.188,2.943,0.55,4.203c0.675,1.152,1.918,2.231,3.26,2.506
					c0.837,0.172,1.675,0.344,2.513,0.516c1.472,0.302,2.875,0.228,4.203-0.55c1.219-0.714,2.131-1.896,2.506-3.26
					c0.387-1.408,0.188-2.943-0.55-4.203C132.686,91.157,131.443,90.079,130.102,89.803L130.102,89.803z"/>
			</g>
		</g>
		<g>
			<g>
				<path style="fill:#FFFFFF;" d="M233.27,186.284c-0.307-0.797-0.613-1.595-0.92-2.393c-0.53-1.38-1.188-2.487-2.506-3.259
					c-1.26-0.738-2.795-0.937-4.203-0.55c-1.363,0.375-2.545,1.288-3.259,2.506c-0.679,1.158-1.051,2.901-0.55,4.203
					c0.307,0.797,0.613,1.595,0.92,2.393c0.53,1.38,1.188,2.487,2.506,3.259c1.26,0.738,2.795,0.938,4.203,0.55
					c1.363-0.375,2.545-1.287,3.259-2.506C233.398,189.329,233.771,187.586,233.27,186.284L233.27,186.284z"/>
			</g>
		</g>
	</g>
</g>
<g id="Ebene_1">
</g>
</svg>
