<?xml version="1.0" encoding="iso-8859-1"?>
<!-- Generator: Adobe Illustrator 16.0.0, SVG Export Plug-In . SVG Version: 6.00 Build 0)  -->
<!DOCTYPE svg PUBLIC "-//W3C//DTD SVG 1.1//EN" "http://www.w3.org/Graphics/SVG/1.1/DTD/svg11.dtd">
<svg version="1.1" xmlns="http://www.w3.org/2000/svg" xmlns:xlink="http://www.w3.org/1999/xlink" x="0px" y="0px" width="361px"
	 height="361px" viewBox="0 0 361 361" style="enable-background:new 0 0 361 361;" xml:space="preserve">
<g id="fts_x5F_blade_x5F_z_x5F_40">
	<g>
		<g>
			<path style="fill:#FFFFFF;" d="M178.833,70.667c0,19.833,0,39.667,0,59.5c0,1.935,3,1.935,3,0c0-19.833,0-39.667,0-59.5
				C181.833,68.732,178.833,68.732,178.833,70.667L178.833,70.667z"/>
		</g>
	</g>
	<g>
		<g>
			<path style="fill:#FFFFFF;" d="M179,159.082c0,13.55,0,27.1,0,40.651c0,1.935,3,1.935,3,0c0-13.551,0-27.101,0-40.651
				C182,157.147,179,157.147,179,159.082L179,159.082z"/>
		</g>
	</g>
	<g>
		<g>
			<path style="fill:#FFFFFF;" d="M179,230.667c0,19.667,0,39.333,0,59c0,1.935,3,1.935,3,0c0-19.667,0-39.333,0-59
				C182,228.732,179,228.732,179,230.667L179,230.667z"/>
		</g>
	</g>
	<g style="display:none;">
		<g style="display:inline;">
			<g>
				<path style="fill:#FFFFFF;" d="M210.117,134.19c0,9.159,0,18.318,0,27.477c0,1.935,3,1.935,3,0c0-9.159,0-18.318,0-27.477
					C213.117,132.256,210.117,132.256,210.117,134.19L210.117,134.19z"/>
			</g>
		</g>
		<g style="display:inline;">
			<g>
				<path style="fill:#FFFFFF;" d="M210.236,198c0,10.444,0,20.89,0,31.334c0,1.935,3,1.935,3,0c0-10.444,0-20.89,0-31.334
					C213.236,196.065,210.236,196.065,210.236,198L210.236,198z"/>
			</g>
		</g>
		<g style="display:inline;">
			<g>
				<path style="fill:#FFFFFF;" d="M210.236,262c0,9.171,0,18.341,0,27.512c0,1.935,3,1.935,3,0c0-9.171,0-18.341,0-27.512
					C213.236,260.065,210.236,260.065,210.236,262L210.236,262z"/>
			</g>
		</g>
	</g>
	<g>
		<g>
			<g>
				<g>
					<path style="fill:#FFFFFF;" d="M169.913,151.026c7.067,0.822,14.134,1.643,21.2,2.465c6.398,0.744,6.327-9.265,0-10
						c-7.066-0.822-14.133-1.643-21.2-2.465C163.515,140.282,163.586,150.291,169.913,151.026L169.913,151.026z"/>
				</g>
			</g>
			<g>
				<g>
					<path style="fill:#FFFFFF;" d="M194.273,152.893c20.031-10.354,40.063-20.708,60.093-31.063
						c5.73-2.962,0.672-11.591-5.047-8.635c-20.031,10.354-40.062,20.708-60.093,31.063
						C183.496,147.22,188.555,155.849,194.273,152.893L194.273,152.893z"/>
				</g>
			</g>
			<g>
				<g>
					<path style="fill:#FFFFFF;" d="M112.345,181.4c20.031-10.352,40.062-20.705,60.092-31.057c5.73-2.962,0.672-11.59-5.047-8.635
						c-20.031,10.353-40.062,20.705-60.092,31.058C101.567,175.728,106.626,184.356,112.345,181.4L112.345,181.4z"/>
				</g>
			</g>
		</g>
		<g>
			<g>
				<path style="fill:#FFFFFF;" d="M110.156,171.991c-0.768,0.376-1.536,0.753-2.305,1.129c-1.224,0.6-2.155,1.981-2.506,3.26
					c-0.387,1.408-0.188,2.943,0.55,4.203c0.714,1.219,1.896,2.131,3.26,2.506c1.494,0.411,2.848,0.113,4.203-0.55
					c0.768-0.376,1.536-0.753,2.305-1.129c1.224-0.6,2.155-1.981,2.506-3.26c0.387-1.408,0.188-2.943-0.55-4.203
					c-0.714-1.219-1.896-2.131-3.26-2.506C112.865,171.031,111.511,171.328,110.156,171.991L110.156,171.991z"/>
			</g>
		</g>
		<g>
			<g>
				<path style="fill:#FFFFFF;" d="M249.038,113.276c-0.756,0.398-1.513,0.796-2.27,1.194c-2.628,1.383-3.408,4.984-1.956,7.462
					c0.714,1.219,1.896,2.131,3.259,2.506c1.461,0.402,2.885,0.144,4.203-0.55c0.756-0.398,1.513-0.796,2.27-1.194
					c2.628-1.383,3.408-4.984,1.956-7.462c-0.714-1.219-1.896-2.131-3.259-2.506C251.78,112.325,250.356,112.583,249.038,113.276
					L249.038,113.276z"/>
			</g>
		</g>
	</g>
	<g>
		<g>
			<g>
				<g>
					<path style="fill:#FFFFFF;" d="M169.551,217.643c7.066,0.822,14.133,1.645,21.2,2.467c6.398,0.744,6.326-9.264,0-10
						c-7.066-0.822-14.133-1.645-21.2-2.467C163.153,206.898,163.225,216.906,169.551,217.643L169.551,217.643z"/>
				</g>
			</g>
			<g>
				<g>
					<path style="fill:#FFFFFF;" d="M193.911,219.509c20.032-10.354,40.063-20.707,60.095-31.061
						c5.73-2.962,0.672-11.591-5.047-8.635c-20.031,10.354-40.063,20.707-60.095,31.061
						C183.134,213.836,188.192,222.465,193.911,219.509L193.911,219.509z"/>
				</g>
			</g>
			<g>
				<g>
					<path style="fill:#FFFFFF;" d="M111.981,248.021c20.031-10.354,40.063-20.707,60.093-31.061
						c5.73-2.962,0.672-11.591-5.047-8.635c-20.031,10.354-40.063,20.707-60.093,31.061
						C101.204,242.348,106.263,250.977,111.981,248.021L111.981,248.021z"/>
				</g>
			</g>
		</g>
		<g>
			<g>
				<path style="fill:#FFFFFF;" d="M109.792,238.611c-0.768,0.375-1.535,0.751-2.303,1.127c-1.224,0.599-2.155,1.981-2.506,3.259
					c-0.387,1.408-0.188,2.943,0.55,4.203c0.714,1.219,1.896,2.131,3.26,2.506c1.494,0.411,2.848,0.113,4.203-0.55
					c0.768-0.375,1.535-0.751,2.303-1.127c1.224-0.599,2.155-1.981,2.506-3.259c0.387-1.408,0.188-2.943-0.55-4.203
					c-0.714-1.219-1.896-2.131-3.26-2.506C112.501,237.65,111.147,237.948,109.792,238.611L109.792,238.611z"/>
			</g>
		</g>
		<g>
			<g>
				<path style="fill:#FFFFFF;" d="M248.678,179.894c-0.757,0.398-1.515,0.797-2.272,1.196c-2.628,1.382-3.407,4.984-1.956,7.462
					c0.714,1.219,1.896,2.131,3.259,2.506c1.461,0.402,2.885,0.145,4.203-0.55c0.757-0.398,1.515-0.797,2.272-1.195
					c2.628-1.382,3.407-4.984,1.956-7.462c-0.714-1.219-1.896-2.131-3.259-2.506C251.42,178.942,249.996,179.201,248.678,179.894
					L248.678,179.894z"/>
			</g>
		</g>
	</g>
</g>
<g id="Ebene_1">
</g>
</svg>
