<?xml version="1.0" encoding="iso-8859-1"?>
<!-- Generator: Adobe Illustrator 16.0.0, SVG Export Plug-In . SVG Version: 6.00 Build 0)  -->
<!DOCTYPE svg PUBLIC "-//W3C//DTD SVG 1.1//EN" "http://www.w3.org/Graphics/SVG/1.1/DTD/svg11.dtd">
<svg version="1.1" xmlns="http://www.w3.org/2000/svg" xmlns:xlink="http://www.w3.org/1999/xlink" x="0px" y="0px" width="361px"
	 height="361px" viewBox="0 0 361 361" style="enable-background:new 0 0 361 361;" xml:space="preserve">
<g id="fts_x5F_blade_x5F_s_x5F_40">
	<g>
		<g>
			<path style="fill:#FFFFFF;" d="M178.833,70.667c0,14.222,0,28.445,0,42.667c0,1.935,3,1.935,3,0c0-14.222,0-28.445,0-42.667
				C181.833,68.732,178.833,68.732,178.833,70.667L178.833,70.667z"/>
		</g>
	</g>
	<g>
		<g>
			<path style="fill:#FFFFFF;" d="M179,154.082c0,13.55,0,27.1,0,40.651c0,1.935,3,1.935,3,0c0-13.551,0-27.101,0-40.651
				C182,152.147,179,152.147,179,154.082L179,154.082z"/>
		</g>
	</g>
	<g>
		<g>
			<path style="fill:#FFFFFF;" d="M179,237.334c0,17.444,0,34.889,0,52.333c0,1.935,3,1.935,3,0c0-17.444,0-34.889,0-52.333
				C182,235.399,179,235.399,179,237.334L179,237.334z"/>
		</g>
	</g>
	<g style="display:none;">
		<g style="display:inline;">
			<g>
				<path style="fill:#FFFFFF;" d="M210.117,134.19c0,9.159,0,18.318,0,27.477c0,1.935,3,1.935,3,0c0-9.159,0-18.318,0-27.477
					C213.117,132.256,210.117,132.256,210.117,134.19L210.117,134.19z"/>
			</g>
		</g>
		<g style="display:inline;">
			<g>
				<path style="fill:#FFFFFF;" d="M210.236,198c0,10.444,0,20.89,0,31.334c0,1.935,3,1.935,3,0c0-10.444,0-20.89,0-31.334
					C213.236,196.065,210.236,196.065,210.236,198L210.236,198z"/>
			</g>
		</g>
		<g style="display:inline;">
			<g>
				<path style="fill:#FFFFFF;" d="M210.236,262c0,9.171,0,18.341,0,27.512c0,1.935,3,1.935,3,0c0-9.171,0-18.341,0-27.512
					C213.236,260.065,210.236,260.065,210.236,262L210.236,262z"/>
			</g>
		</g>
	</g>
	<g>
		<g>
			<g>
				<path style="fill:#FFFFFF;" d="M126.51,255.533c9.095-12.741,17.989-25.401,31.501-33.843
					c8.673-5.419,18.36-8.492,28.208-10.976c9.623-2.426,19.012-6.189,27.558-11.241c10.095-5.969,18.514-14.238,24.882-24.048
					c0.766-1.179,1.489-2.384,2.254-3.563c0.742-1.146,0.08-0.179,0.132-0.239c-1.188,1.383-5.554,0.816-6.628-1.019
					c-0.566-1.399-0.471-1.096,0.286,0.909c0.604,1.668,1.157,3.356,1.732,5.034c0.804,2.344,1.72,4.635,2.75,6.888
					c1.771,3.873,5.124,6.742,9.497,6.681c6.443-0.091,6.452-10.091,0-10c-0.073,0.001-1.652-3.591-2.052-4.661
					c-1.028-2.756-1.911-5.568-2.914-8.334c-0.763-2.105-1.938-3.506-4.095-4.3c-3.659-1.347-6.277,2.292-7.912,4.885
					c-6,9.518-13.302,17.216-22.98,23.134c-17.709,10.828-39.155,11.84-56.849,22.894c-14.545,9.088-24.227,23.055-34.004,36.754
					C114.12,255.747,122.799,260.733,126.51,255.533L126.51,255.533z"/>
			</g>
		</g>
		<g>
			<g>
				<path style="fill:#FFFFFF;" d="M119.806,248.637c-0.515,0.683-1.03,1.365-1.546,2.048c-0.833,1.104-0.899,2.932-0.55,4.203
					c0.375,1.363,1.287,2.545,2.506,3.259c1.26,0.738,2.795,0.938,4.203,0.55c0.435-0.183,0.869-0.366,1.303-0.55
					c0.819-0.484,1.472-1.137,1.957-1.956c0.515-0.683,1.03-1.365,1.546-2.048c0.833-1.104,0.899-2.932,0.55-4.203
					c-0.375-1.363-1.287-2.545-2.506-3.259c-1.26-0.738-2.795-0.938-4.203-0.55c-0.435,0.183-0.869,0.366-1.303,0.55
					C120.943,247.165,120.291,247.817,119.806,248.637L119.806,248.637z"/>
			</g>
		</g>
		<g>
			<g>
				<path style="fill:#FFFFFF;" d="M248.771,181.55c-0.851,0.101-1.7,0.2-2.551,0.3c-1.16,0.137-2.111,0.372-2.97,1.23
					c-0.784,0.784-1.23,1.86-1.23,2.97s0.446,2.186,1.23,2.97c0.709,0.709,1.928,1.353,2.97,1.23c0.851-0.101,1.7-0.2,2.551-0.3
					c1.16-0.137,2.111-0.372,2.97-1.23c0.784-0.784,1.23-1.86,1.23-2.97s-0.446-2.186-1.23-2.97
					C251.032,182.071,249.813,181.428,248.771,181.55L248.771,181.55z"/>
			</g>
		</g>
	</g>
	<g>
		<g>
			<g>
				<path style="fill:#FFFFFF;" d="M126.263,184.004c9.096-12.741,17.99-25.401,31.502-33.842
					c8.673-5.418,18.361-8.492,28.209-10.976c9.623-2.426,19.011-6.19,27.556-11.243c10.094-5.968,18.512-14.238,24.881-24.047
					c0.765-1.179,1.489-2.384,2.253-3.563c0.742-1.146,0.081-0.179,0.133-0.239c-1.189,1.382-5.553,0.816-6.628-1.019
					c-0.566-1.399-0.471-1.096,0.286,0.909c0.604,1.668,1.158,3.356,1.733,5.034c0.804,2.345,1.72,4.635,2.75,6.888
					c1.771,3.873,5.124,6.742,9.496,6.68c6.443-0.091,6.452-10.091,0-10c-0.072,0.001-1.651-3.59-2.051-4.661
					c-1.029-2.756-1.912-5.568-2.915-8.334c-0.763-2.104-1.938-3.506-4.095-4.3c-3.66-1.346-6.277,2.291-7.913,4.886
					c-5.999,9.516-13.301,17.214-22.979,23.132c-17.709,10.83-39.154,11.842-56.849,22.896
					c-14.545,9.087-24.226,23.054-34.005,36.752C113.873,184.218,122.551,189.203,126.263,184.004L126.263,184.004z"/>
			</g>
		</g>
		<g>
			<g>
				<path style="fill:#FFFFFF;" d="M119.555,177.108c-0.514,0.683-1.028,1.365-1.543,2.047c-0.833,1.104-0.9,2.931-0.55,4.203
					c0.375,1.363,1.287,2.545,2.506,3.259c1.26,0.738,2.795,0.938,4.203,0.55c0.435-0.183,0.869-0.366,1.303-0.55
					c0.819-0.484,1.472-1.137,1.957-1.956c0.514-0.683,1.028-1.365,1.543-2.047c0.833-1.104,0.9-2.931,0.55-4.203
					c-0.375-1.363-1.287-2.545-2.506-3.26c-1.26-0.738-2.795-0.937-4.203-0.55c-0.435,0.183-0.869,0.367-1.303,0.55
					C120.692,175.637,120.04,176.289,119.555,177.108L119.555,177.108z"/>
			</g>
		</g>
		<g>
			<g>
				<path style="fill:#FFFFFF;" d="M248.522,110.021c-0.85,0.101-1.699,0.201-2.549,0.302c-1.16,0.138-2.111,0.372-2.97,1.23
					c-0.784,0.784-1.23,1.86-1.23,2.97s0.446,2.186,1.23,2.97c0.708,0.708,1.929,1.354,2.97,1.23
					c0.85-0.101,1.699-0.201,2.549-0.302c1.16-0.138,2.111-0.372,2.97-1.23c0.784-0.784,1.23-1.86,1.23-2.97s-0.446-2.186-1.23-2.97
					C250.784,110.543,249.563,109.898,248.522,110.021L248.522,110.021z"/>
			</g>
		</g>
	</g>
</g>
<g id="Ebene_1">
</g>
</svg>
