<?xml version="1.0" encoding="iso-8859-1"?>
<!-- Generator: Adobe Illustrator 16.0.0, SVG Export Plug-In . SVG Version: 6.00 Build 0)  -->
<!DOCTYPE svg PUBLIC "-//W3C//DTD SVG 1.1//EN" "http://www.w3.org/Graphics/SVG/1.1/DTD/svg11.dtd">
<svg version="1.1" xmlns="http://www.w3.org/2000/svg" xmlns:xlink="http://www.w3.org/1999/xlink" x="0px" y="0px" width="361px"
	 height="361px" viewBox="0 0 361 361" style="enable-background:new 0 0 361 361;" xml:space="preserve">
<g id="fts_x5F_shutter_x5F_locked">
	<path style="fill:none;stroke:#FFFFFF;stroke-width:10;stroke-miterlimit:10;" d="M239.016,187.987c0,2.916-2.363,5.28-5.279,5.28
		H85.896c-2.917,0-5.28-2.364-5.28-5.28v-95.04c0-2.916,2.364-5.28,5.28-5.28h147.84c2.916,0,5.279,2.364,5.279,5.28V187.987z"/>
	<g>
		<g>
			<path style="fill:#FFFFFF;" d="M155.373,145.343c3.148,0,6.296,0,9.444,0c6.449,0,6.449-10,0-10c-3.148,0-6.296,0-9.444,0
				C148.924,135.343,148.924,145.343,155.373,145.343L155.373,145.343z"/>
		</g>
	</g>
	
		<line style="fill:none;stroke:#FFFFFF;stroke-width:10;stroke-miterlimit:10;" x1="159.992" y1="87.916" x2="159.992" y2="190.652"/>
	<path style="fill:#FFFFFF;stroke:#FFFFFF;stroke-width:10;stroke-miterlimit:10;" d="M244.749,88.771
		c0,0.407-2.53,0.738-5.653,0.738H80.803c-3.122,0-5.653-0.331-5.653-0.738V75.496c0-0.407,2.531-0.738,5.653-0.738h158.293
		c3.123,0,5.653,0.331,5.653,0.738V88.771z"/>
	<g>
		<g>
			<path style="fill:#FFFFFF;" d="M75.416,103.166c49.739,0,99.478,0.001,149.217,0.002c6.75,0,13.5,0,20.25,0c4.514,0,4.514-7,0-7
				c-49.739,0-99.478-0.001-149.216-0.002c-6.75,0-13.5,0-20.25,0C70.902,96.166,70.902,103.166,75.416,103.166L75.416,103.166z"/>
		</g>
	</g>
	<g>
		<g>
			<path style="fill:#FFFFFF;" d="M75.416,113.566c49.739,0,99.478,0.001,149.217,0.002c6.75,0,13.5,0,20.25,0c4.514,0,4.514-7,0-7
				c-49.739,0-99.478-0.001-149.216-0.002c-6.75,0-13.5,0-20.25,0C70.902,106.566,70.902,113.566,75.416,113.566L75.416,113.566z"/>
		</g>
	</g>
	<g>
		<g>
			<path style="fill:#FFFFFF;" d="M75.416,123.966c49.739,0,99.478,0.001,149.217,0.002c6.75,0,13.5,0,20.25,0c4.514,0,4.514-7,0-7
				c-49.739,0-99.478-0.001-149.216-0.002c-6.75,0-13.5,0-20.25,0C70.902,116.966,70.902,123.966,75.416,123.966L75.416,123.966z"/>
		</g>
	</g>
	<g>
		<g>
			<path style="fill:#FFFFFF;" d="M75.416,134.366c49.739,0,99.478,0.001,149.217,0.002c6.75,0,13.5,0,20.25,0c4.514,0,4.514-7,0-7
				c-49.739,0-99.478-0.001-149.216-0.002c-6.75,0-13.5,0-20.25,0C70.902,127.366,70.902,134.366,75.416,134.366L75.416,134.366z"/>
		</g>
	</g>
	<g>
		<g>
			<g>
				<path style="fill:#FFFFFF;" d="M228.408,242.704c-0.04,0.186-1.233,0.097,0.114,0.097c0.782,0,1.564,0,2.347,0
					c3.001,0,6.002,0,9.003,0c7.98,0,15.96,0,23.939,0c5.58,0,11.159,0,16.738,0c1.303,0-0.011-1.841-0.011,0.341
					c0,2.741,0,5.481,0,8.223c0,7.865,0,15.73,0,23.597c0,2.742,0,5.484,0,8.227c0,0.65,0,1.301,0,1.951
					c0,0.366,1.5-0.765,0.263-0.765c-13.357,0-26.714,0-40.071,0c-4.223,0-8.446,0-12.669,0c-0.954,0,0.472,0.857,0.472,0.908
					c0-0.55,0-1.1,0-1.649c0-2.607,0-5.215,0-7.823c0-11.345,0-22.69,0-34.036c0-4.514-7-4.514-7,0c0,12.393,0,24.785,0,37.179
					c0,4.736-0.992,11.126,5.218,12.297c3.892,0.733,8.352,0.125,12.282,0.125c13.741,0,27.482,0,41.224,0
					c4.933,0,7.282-3.076,7.282-7.741c0-6.682,0-13.364,0-20.046c0-7.271,0-14.542,0-21.813c0-7.948-11.705-5.973-16.681-5.973
					c-10.328,0-20.657,0-30.986,0c-5.358,0-16.649-2.188-18.214,5.042C220.706,245.244,227.454,247.115,228.408,242.704z"/>
			</g>
		</g>
		<g>
			<g>
				<path style="fill:#FFFFFF;" d="M225.754,280.29c9.945,0,19.891,0,29.836,0c4.514,0,4.514-7,0-7c-9.945,0-19.891,0-29.836,0
					C221.24,273.29,221.24,280.29,225.754,280.29L225.754,280.29z"/>
			</g>
		</g>
		<g>
			<g>
				<path style="fill:#FFFFFF;" d="M227.153,268.338c9.479,0,18.958,0,28.437,0c4.514,0,4.514-7,0-7c-9.479,0-18.958,0-28.437,0
					C222.64,261.338,222.64,268.338,227.153,268.338L227.153,268.338z"/>
			</g>
		</g>
		<g>
			<g>
				<path style="fill:#FFFFFF;" d="M227.153,256.385c9.479,0,18.958,0,28.437,0c4.514,0,4.514-7,0-7c-9.479,0-18.958,0-28.437,0
					C222.64,249.385,222.64,256.385,227.153,256.385L227.153,256.385z"/>
			</g>
		</g>
		<g>
			<g>
				<path style="fill:#FFFFFF;" d="M237.99,237.16c0-2.97,0-5.939,0-8.909c0-1.471,0-2.941,0-4.412c0-0.49,0.177-1.372-0.111,0.243
					c0.052-0.29,1.08-1.658,1.419-2.156c1.134-1.667,2.466-3.193,3.841-4.662c1.651-1.763,1.529-0.34-1.156-0.34
					c0.386,0,0.772,0,1.159,0c3.482,0,6.965,0,10.448,0c3.645,0,7.289,0,10.935,0c2.531,0,1.084,0.608-0.652-0.763
					c1.689,1.334,3.106,3.212,4.389,4.92c0.676,0.9,1.913,4.278,1.913,2.13c0,1.378,0,2.756,0,4.134c0,3.271,0,6.544,0,9.815
					c0,6.448,10,6.448,10,0c0-3.823,0-7.647,0-11.471c0-4.287-1.326-7.053-3.926-10.518c-2.385-3.178-5.732-8.248-10.219-8.248
					c-3.818,0-7.637,0-11.455,0c-4.063,0-8.127,0-12.191,0c-4.339,0-7.269,4.146-9.686,7.236c-2.672,3.417-4.707,6.408-4.707,10.812
					c0,4.063,0,8.126,0,12.188C227.99,243.608,237.99,243.608,237.99,237.16L237.99,237.16z"/>
			</g>
		</g>
	</g>
</g>
<g id="Ebene_1">
</g>
</svg>
