<?xml version="1.0" encoding="iso-8859-1"?>
<!-- Generator: Adobe Illustrator 16.0.0, SVG Export Plug-In . SVG Version: 6.00 Build 0)  -->
<!DOCTYPE svg PUBLIC "-//W3C//DTD SVG 1.1 Tiny//EN" "http://www.w3.org/Graphics/SVG/1.1/DTD/svg11-tiny.dtd">
<svg version="1.1" baseProfile="tiny" id="fts_x5F_blade_x5F_arc"
	 xmlns="http://www.w3.org/2000/svg" xmlns:xlink="http://www.w3.org/1999/xlink" x="0px" y="0px" width="361px" height="361px"
	 viewBox="0 0 361 361" xml:space="preserve">
<g>
	<g>
		<path fill="#FFFFFF" d="M176.315,73.545c0,14.222,0,28.445,0,42.667c0,1.935,3,1.935,3,0c0-14.222,0-28.445,0-42.667
			C179.315,71.61,176.315,71.61,176.315,73.545L176.315,73.545z"/>
	</g>
	<g>
		<path fill="#FFFFFF" d="M176.482,156.878c0,16.938,0,33.876,0,50.814c0,1.935,3,1.935,3,0c0-16.938,0-33.876,0-50.814
			C179.482,154.944,176.482,154.944,176.482,156.878L176.482,156.878z"/>
	</g>
	<g>
		<path fill="#FFFFFF" d="M176.482,250.212c0,14.111,0,28.222,0,42.333c0,1.935,3,1.935,3,0c0-14.111,0-28.222,0-42.333
			C179.482,248.278,176.482,248.278,176.482,250.212L176.482,250.212z"/>
	</g>
</g>
<g display="none">
	<g display="inline">
		<path fill="#FFFFFF" d="M207.6,137.068c0,9.159,0,18.318,0,27.477c0,1.935,3,1.935,3,0c0-9.159,0-18.318,0-27.477
			C210.6,135.134,207.6,135.134,207.6,137.068L207.6,137.068z"/>
	</g>
	<g display="inline">
		<path fill="#FFFFFF" d="M207.718,200.878c0,10.444,0,20.889,0,31.333c0,1.935,3,1.935,3,0c0-10.444,0-20.889,0-31.333
			C210.718,198.944,207.718,198.944,207.718,200.878L207.718,200.878z"/>
	</g>
	<g display="inline">
		<path fill="#FFFFFF" d="M207.718,264.878c0,9.17,0,18.341,0,27.511c0,1.935,3,1.935,3,0c0-9.17,0-18.341,0-27.511
			C210.718,262.944,207.718,262.944,207.718,264.878L207.718,264.878z"/>
	</g>
</g>
<g>
	<g>
		<path fill="#FFFFFF" d="M76.91,198.249c52.89-55.17,133.386-75.281,206.017-51.484c6.146,2.014,8.758-7.645,2.658-9.643
			c-75.875-24.86-160.529-3.542-215.746,54.056C65.378,195.831,72.44,202.912,76.91,198.249L76.91,198.249z"/>
	</g>
	<g>
		<path fill="#FFFFFF" d="M73.458,188.857c-0.945,0.945-1.89,1.89-2.835,2.834c-2.102,2.101-2.101,5.612,0,7.713
			c2.101,2.102,5.612,2.101,7.713,0c0.945-0.945,1.89-1.89,2.835-2.834c2.102-2.101,2.101-5.612,0-7.713
			C79.07,186.755,75.56,186.756,73.458,188.857L73.458,188.857z"/>
	</g>
	<g>
		<path fill="#FFFFFF" d="M285.161,137.753c-1.305-0.288-2.609-0.576-3.914-0.864c-2.9-0.64-5.891,0.835-6.709,3.81
			c-0.757,2.753,0.906,6.068,3.81,6.709c1.305,0.288,2.609,0.576,3.914,0.864c2.9,0.64,5.891-0.835,6.709-3.81
			C289.728,141.709,288.064,138.394,285.161,137.753L285.161,137.753z"/>
	</g>
</g>
<g>
	<g>
		<path fill="#FFFFFF" d="M76.91,292.246c52.89-55.17,133.386-75.281,206.017-51.484c6.146,2.014,8.758-7.645,2.658-9.643
			c-75.875-24.86-160.529-3.542-215.746,54.056C65.378,289.828,72.44,296.909,76.91,292.246L76.91,292.246z"/>
	</g>
	<g>
		<path fill="#FFFFFF" d="M73.458,282.854c-0.945,0.945-1.89,1.89-2.835,2.834c-2.102,2.101-2.101,5.612,0,7.713
			c2.101,2.102,5.612,2.101,7.713,0c0.945-0.945,1.89-1.89,2.835-2.834c2.102-2.101,2.101-5.612,0-7.713
			C79.07,280.752,75.56,280.753,73.458,282.854L73.458,282.854z"/>
	</g>
	<g>
		<path fill="#FFFFFF" d="M285.161,231.75c-1.305-0.288-2.609-0.576-3.914-0.864c-2.9-0.64-5.891,0.835-6.709,3.81
			c-0.757,2.753,0.906,6.068,3.81,6.709c1.305,0.288,2.609,0.576,3.914,0.864c2.9,0.64,5.891-0.835,6.709-3.81
			C289.728,235.706,288.064,232.391,285.161,231.75L285.161,231.75z"/>
	</g>
</g>
</svg>
