<?xml version="1.0" encoding="iso-8859-1"?>
<!-- Generator: Adobe Illustrator 16.0.0, SVG Export Plug-In . SVG Version: 6.00 Build 0)  -->
<!DOCTYPE svg PUBLIC "-//W3C//DTD SVG 1.1//EN" "http://www.w3.org/Graphics/SVG/1.1/DTD/svg11.dtd">
<svg version="1.1" xmlns="http://www.w3.org/2000/svg" xmlns:xlink="http://www.w3.org/1999/xlink" x="0px" y="0px" width="361px"
	 height="361px" viewBox="0 0 361 361" style="enable-background:new 0 0 361 361;" xml:space="preserve">
<g id="fts_x5F_door_x5F_opener_x5F_key">
	<path style="fill:none;stroke:#FFFFFF;stroke-width:10;stroke-miterlimit:10;" d="M179.831,280.912
		c0,3.406-2.712,6.168-6.058,6.168h-92.89c-3.346,0-6.058-2.762-6.058-6.168V80.816c0-3.406,2.712-6.167,6.058-6.167h92.89
		c3.346,0,6.058,2.761,6.058,6.167V280.912z"/>
	<g>
		<g>
			<path style="fill:#FFFFFF;" d="M76.824,185.667c3.333,0,6.667,0,10,0c6.449,0,6.449-10,0-10c-3.333,0-6.667,0-10,0
				C70.375,175.667,70.375,185.667,76.824,185.667L76.824,185.667z"/>
		</g>
	</g>
	<path style="fill:none;stroke:#FFFFFF;stroke-width:10;stroke-miterlimit:10;" d="M178.158,280c0-3.313-2.687-6-6-6H80.824
		c-3.313,0-6,2.687-6,6v0.667c0,3.313,2.687,6,6,6h91.333c3.313,0,6-2.687,6-6V280z"/>
	<g id="Schluessel1_3_">
		<g>
			<g>
				<path style="fill:#FFFFFF;" d="M254.389,110.318c-7.379,0-14.758,0-22.137,0c-7.795,0-16.231,2.496-16.231,12.023
					c0,8.125,0,16.249,0,24.374c0,7.528-0.88,15.762,7.746,18.766c-0.367-0.482-0.734-0.964-1.102-1.446c0,14.873,0,29.746,0,44.619
					c0,9.033,0,18.065,0,27.098c0,2.283,0,4.565,0,6.849c0,2.148,1.539,4.012,2.531,5.852c0.248,0.461,0.78,0.743,1.295,0.743
					c2.591,0,4.018,0.21,6.113-1.231c1.799-1.238,5.44-2.755,6.575-4.692c1.099-1.875,0.205-6.115,0.205-8.199
					c0-2.045-0.31-0.884,0.484-2.397c0.656-1.253,1.313-2.505,1.969-3.758c0.619-1.182,0.733-5.24,0-6.37
					c-0.747-1.153-1.495-2.307-2.242-3.46c-0.839-1.294-0.678,1.456-0.189,0.371c0.314-0.699,0.629-1.398,0.943-2.098
					c0.673-1.495,3.22-5.042,2.374-6.792c-1.181-2.446-2.362-4.893-3.544-7.339c-0.078,0.605-0.156,1.212-0.234,1.817
					c2.138-2.147,7.527-5.6,7.527-8.857c0-1.921,0.633-4.926-0.274-6.694c-1.158-2.258-2.316-4.515-3.475-6.771
					c-0.078,0.605-0.156,1.212-0.234,1.817c1.88-1.984,5.679-4.482,5.78-7.404c0.158-4.564,0.316-9.128,0.475-13.692
					c-0.5,0.5-1,1-1.5,1.5c7.345,0,14.887,1.76,18.438-6.47c1.888-4.375,0.84-10.817,0.84-15.403
					C266.521,132.05,270.608,111.299,254.389,110.318c-1.934-0.117-1.922,2.884,0,3c7.905,0.479,9.133,6.8,9.133,13.125
					c0,5.542,0,11.084,0,16.627c0,3.671,0,7.341,0,11.012c0,1.875-0.597,3.451-1.519,5.037c-2.216,3.812-5.614,2.823-9.114,2.823
					c-1.882,0-3.763,0-5.645,0c-0.839,0-1.472,0.683-1.5,1.5c-0.137,3.93-0.272,7.86-0.409,11.791
					c-0.026,0.766-0.053,1.532-0.079,2.297c-0.004,0.118,0.793-1.11-0.403,0.152c-1.494,1.578-2.989,3.156-4.484,4.735
					c-0.484,0.512-0.552,1.2-0.234,1.817c0.996,1.943,1.993,3.886,2.99,5.828c0.534,1.041,0.349,3,0.349,5.399
					c0,1.852,0.299,0.479,0.135,0.644c-0.859,0.864-1.719,1.728-2.578,2.592c-1.402,1.408-2.804,2.816-4.205,4.226
					c-0.504,0.506-0.531,1.202-0.234,1.817c1.161,2.405,2.322,4.811,3.484,7.216c-0.479-0.989,0.242-1.797-0.42-0.326
					c-0.363,0.807-0.726,1.614-1.089,2.421c-0.658,1.464-1.317,2.928-1.976,4.393c-0.391,0.866-0.059,1.425,0.415,2.154
					c0.469,0.724,2.038,3.405,2.038,2.912c0,4.244-0.102,4.476-2.118,8.322c-1.072,2.047-0.54,4.785-0.54,7.026
					c0,0.853,0,1.705,0,2.558c0,1.546-0.296,0.516,0.633-0.124c-1.485,1.022-2.971,2.044-4.456,3.066
					c-0.645,0.442-3.048,1.834-2.493,1.834c-0.858,0-1.717,0-2.575,0c-1.719,0,0.56,1.236-0.07,0.068
					c-0.409-0.759-0.817-1.518-1.227-2.276c-0.262-0.486-0.531-1.819-0.531-0.625c0-0.331,0-0.663,0-0.994c0-25.37,0-50.74,0-76.111
					c0-0.741,0-1.481,0-2.222c0-0.701-0.465-1.225-1.102-1.446c-7.459-2.598-5.543-13.147-5.543-19.517c0-6.754,0-13.508,0-20.263
					c0-10.009,9.448-9.49,16.524-9.49c6.281,0,12.563,0,18.844,0C256.323,113.318,256.323,110.318,254.389,110.318z"/>
			</g>
		</g>
		<g>
			<g>
				<path style="fill:#FFFFFF;" d="M227.867,165.439c0,27.418,0,54.836,0,82.254c0,1.935,3,1.935,3,0c0-27.418,0-54.836,0-82.254
					C230.867,163.504,227.867,163.504,227.867,165.439L227.867,165.439z"/>
			</g>
		</g>
		<g>
			<g>
				<path style="fill:#FFFFFF;" d="M235.006,131.282c-0.525,4.612-8.381,3.996-8.381-0.587c0-1.687,0-3.373,0-5.059
					c0-4.542,8.381-4.05,8.381,0.587C235.006,127.91,235.006,129.596,235.006,131.282c0,1.935,3,1.935,3,0
					c0-3.639,0.686-7.368-2.285-10.049c-4.227-3.815-11.458-1.191-12.096,4.404c-0.392,3.441-0.431,7.598,2.285,10.049
					c4.227,3.815,11.458,1.191,12.096-4.404C238.225,129.362,235.223,129.383,235.006,131.282z"/>
			</g>
		</g>
	</g>
</g>
<g id="Ebene_1">
</g>
</svg>
