<?xml version="1.0" encoding="iso-8859-1"?>
<!-- Generator: Adobe Illustrator 16.0.3, SVG Export Plug-In . SVG Version: 6.00 Build 0)  -->
<!DOCTYPE svg PUBLIC "-//W3C//DTD SVG 1.1//EN" "http://www.w3.org/Graphics/SVG/1.1/DTD/svg11.dtd">
<svg version="1.1" xmlns="http://www.w3.org/2000/svg" xmlns:xlink="http://www.w3.org/1999/xlink" x="0px" y="0px" width="361px"
	 height="361px" viewBox="0 0 361 361" style="enable-background:new 0 0 361 361;" xml:space="preserve">
<g id="fts_x5F_blade_x5F_arc_x5F_-30">
	<g>
		<g>
			<g>
				<path style="fill:#FFFFFF;" d="M121.346,186.499c48.41,2.065,91.136,31.962,110.346,76.318c2.557,5.904,11.17,0.807,8.635-5.047
					c-20.608-47.585-67.325-79.067-118.981-81.271C114.896,176.224,114.922,186.225,121.346,186.499L121.346,186.499z"/>
			</g>
		</g>
		<g>
			<g>
				<path style="fill:#FFFFFF;" d="M123.978,177.088c-0.854-0.054-1.707-0.107-2.56-0.161c-2.97-0.187-5.454,2.623-5.454,5.454
					c0,1.44,0.579,2.838,1.598,3.856c1.07,1.07,2.377,1.505,3.856,1.598c0.854,0.054,1.707,0.107,2.56,0.161
					c2.97,0.187,5.454-2.622,5.454-5.454c0-1.44-0.579-2.838-1.598-3.856C126.764,177.615,125.457,177.181,123.978,177.088
					L123.978,177.088z"/>
			</g>
		</g>
		<g>
			<g>
				<path style="fill:#FFFFFF;" d="M239.976,257.73c-0.415-0.747-0.83-1.494-1.245-2.241c-1.441-2.595-4.939-3.434-7.462-1.956
					c-2.604,1.525-3.4,4.862-1.956,7.462c0.415,0.747,0.83,1.494,1.245,2.241c1.441,2.595,4.939,3.434,7.462,1.956
					C240.624,263.667,241.42,260.33,239.976,257.73L239.976,257.73z"/>
			</g>
		</g>
	</g>
	<g>
		<g>
			<path style="fill:#FFFFFF;" d="M178.833,71.667c0,5.416,0,10.832,0,16.248c0,1.935,3,1.935,3,0c0-5.416,0-10.832,0-16.248
				C181.833,69.732,178.833,69.732,178.833,71.667L178.833,71.667z"/>
		</g>
	</g>
	<g>
		<g>
			<path style="fill:#FFFFFF;" d="M179,142.989c0,7.612,0,15.225,0,22.837c0,1.935,3,1.935,3,0c0-7.612,0-15.225,0-22.837
				C182,141.055,179,141.055,179,142.989L179,142.989z"/>
		</g>
	</g>
	<g>
		<g>
			<path style="fill:#FFFFFF;" d="M179,217.986c0,23.894,0,47.787,0,71.681c0,1.935,3,1.935,3,0c0-23.894,0-47.787,0-71.681
				C182,216.052,179,216.052,179,217.986L179,217.986z"/>
		</g>
	</g>
	<g>
		<g>
			<path style="fill:#FFFFFF;" d="M179,134c0,7.612,0,15.225,0,22.837c0,1.935,3,1.935,3,0c0-7.612,0-15.225,0-22.837
				C182,132.066,179,132.066,179,134L179,134z"/>
		</g>
	</g>
	<g>
		<g>
			<g>
				<path style="fill:#FFFFFF;" d="M120.138,106.26c48.409,2.064,91.135,31.961,110.345,76.317c2.557,5.904,11.17,0.807,8.635-5.047
					c-20.608-47.584-67.325-79.067-118.98-81.271C113.688,95.985,113.714,105.986,120.138,106.26L120.138,106.26z"/>
			</g>
		</g>
		<g>
			<g>
				<path style="fill:#FFFFFF;" d="M122.769,96.848c-0.854-0.053-1.707-0.106-2.56-0.16c-2.97-0.186-5.454,2.622-5.454,5.454
					c0,1.441,0.579,2.838,1.598,3.856c1.07,1.07,2.377,1.505,3.856,1.598c0.854,0.053,1.707,0.106,2.56,0.16
					c2.97,0.186,5.454-2.622,5.454-5.454c0-1.441-0.579-2.838-1.598-3.856C125.555,97.375,124.248,96.94,122.769,96.848
					L122.769,96.848z"/>
			</g>
		</g>
		<g>
			<g>
				<path style="fill:#FFFFFF;" d="M238.767,177.491c-0.414-0.747-0.828-1.494-1.243-2.241c-1.439-2.596-4.941-3.433-7.462-1.957
					c-2.605,1.526-3.398,4.862-1.956,7.462c0.414,0.747,0.828,1.494,1.243,2.241c1.439,2.596,4.941,3.433,7.462,1.956
					C239.416,183.427,240.209,180.092,238.767,177.491L238.767,177.491z"/>
			</g>
		</g>
	</g>
</g>
<g id="Ebene_1">
</g>
</svg>
