<?xml version="1.0" encoding="iso-8859-1"?>
<!-- Generator: Adobe Illustrator 24.0.1, SVG Export Plug-In . SVG Version: 6.00 Build 0)  -->
<svg version="1.1" xmlns="http://www.w3.org/2000/svg" xmlns:xlink="http://www.w3.org/1999/xlink" x="0px" y="0px"
	 viewBox="0 0 361 361" style="enable-background:new 0 0 361 361;" xml:space="preserve">
<g id="fts_x5F_garage">
	<g>
		<g>
			<g>
				<path style="fill:#FFFFFF;" d="M80.833,130.424c0,39.567,0,79.135,0,118.702c0,5.627,0,11.254,0,16.882c0,6.435,10,6.445,10,0
					c0-39.567,0-79.135,0-118.702c0-5.627,0-11.254,0-16.882C90.833,123.989,80.833,123.978,80.833,130.424L80.833,130.424z"/>
			</g>
		</g>
		<g>
			<g>
				<path style="fill:#FFFFFF;" d="M270.833,130.424c0,39.567,0,79.135,0,118.702c0,5.627,0,11.254,0,16.882c0,6.435,10,6.445,10,0
					c0-39.567,0-79.135,0-118.702c0-5.627,0-11.254,0-16.882C280.833,123.989,270.833,123.978,270.833,130.424L270.833,130.424z"/>
			</g>
		</g>
		<path style="fill:none;stroke:#FFFFFF;stroke-width:10;" d="M286.833,117.595c0,3.172-2.572,5.745-5.745,5.745H81.287
			c-3.173,0-5.745-2.573-5.745-5.745v-9.575c0-3.173,2.572-5.745,5.745-5.745h199.801c3.173,0,5.745,2.572,5.745,5.745V117.595z"/>
	</g>
	<g>
		<g>
			<path style="fill:#FFFFFF;" d="M272.459,131.748c-0.154,0.761,0.378,0.193-0.997,0.43c-1.171,0.202-2.558,0-3.745,0
				c-4.737,0-9.475,0-14.212,0c-15.178,0-30.357,0-45.535,0c-33.481,0-66.963,0-100.444,0c-4.584,0-9.169,0-13.753,0
				c-1.25,0-2.502-0.022-3.752,0c-1.421,0.025-0.753-0.096-0.686,0.045c-0.235-0.494-0.002-5.153-0.246-4.865
				c-0.112,0.132-0.297,0.339,0.148,0.153c0.666-0.278,2.062,0,2.775,0c4.054,0,8.108,0,12.162,0c32.662,0,65.324,0,97.986,0
				c15.894,0,31.789,0,47.683,0c5.172,0,10.344,0,15.515,0c1.645,0,5.714-0.787,7.219,0c0.588,0.307-0.481-0.873-0.243,0.215
				c0.33,1.51,0,3.401,0,4.951c0,4.504,7,4.512,7,0c0-5.855,0.008-11.83-7.354-12.167c-3.275-0.15-6.593,0-9.871,0
				c-14.745,0-29.491,0-44.236,0c-36.246,0-72.492,0-108.738,0c-5.061,0-10.123,0-15.184,0c-2.21,0-5.07-0.401-7.216,0.361
				c-7.47,2.652-5.907,17.639,2.163,18.306c2.296,0.19,4.689,0,6.99,0c32.801,0,65.601,0,98.402,0c17.578,0,35.156,0,52.734,0
				c8.434,0,17.134,0.622,25.552,0c3.445-0.255,5.932-2.102,6.632-5.57C280.097,129.21,273.351,127.328,272.459,131.748z"/>
		</g>
	</g>
	<path style="fill:#FFFFFF;" d="M256.035,203.468c0-1.851-1.232-3.365-2.737-3.365H242.49c-0.571,0-1.102,0.22-1.542,0.592
		c-5.13-10.354-12.02-21.699-18.142-23.158c-16.635-3.967-28.724-3.98-41.573-3.98c-0.085,0-0.17,0-0.256,0c-0.084,0-0.17,0-0.254,0
		c-12.76,0-25.739,0.013-41.162,3.98c-6.087,1.566-12.969,12.878-18.104,23.191c-0.447-0.39-0.988-0.624-1.574-0.624h-10.808
		c-1.505,0-2.737,1.514-2.737,3.365c0,0-0.828,3.464,2.858,5.34c3.347,1.704,5.5,2.809,6.941,3.5
		c-0.898,2.113-1.573,3.786-1.985,4.829c-0.203,0.371-0.362,0.764-0.459,1.176l0,0.001h0c-0.08,0.339-0.123,0.689-0.123,1.048
		v23.333v11.201v10.688c0,3.297,2.673,5.97,5.97,5.97h11.442c3.297,0,5.97-2.673,5.97-5.97v-5.41h88.464v5.41
		c0,3.297,2.673,5.97,5.97,5.97h11.442c3.297,0,5.97-2.673,5.97-5.97v-10.688v-11.201v-23.333c0-0.359-0.043-0.709-0.123-1.048h0
		l0-0.001c-0.095-0.404-0.249-0.788-0.446-1.152c-0.409-1.042-1.082-2.727-1.981-4.858c1.441-0.692,3.59-1.795,6.929-3.495
		C256.862,206.931,256.035,203.468,256.035,203.468z M148.668,236.01h-22.276c-3.103,0-5.641-2.025-5.641-4.5v-6.619
		c0-2.475,2.523-4.775,3.922-5.334c2.798-1.12,2.649-2.627,22.72,4.001c7.597,2.509,6.917,7.953,6.917,7.953
		C154.309,233.985,151.77,236.01,148.668,236.01z M206.45,250.121c0,2.189-1.791,3.98-3.98,3.98h-42.571
		c-2.189,0-3.98-1.791-3.98-3.98l-2.388-9.141c0-2.189,1.791-3.98,3.98-3.98h47.346c2.189,0,3.98,1.791,3.98,3.98L206.45,250.121z
		 M241.086,231.51c0,2.475-2.538,4.5-5.641,4.5h-22.276c-3.103,0-5.641-2.025-5.641-4.5c0,0-0.68-5.444,6.917-7.953
		c20.071-6.627,19.921-5.121,22.719-4.001c1.398,0.559,3.922,2.86,3.922,5.334V231.51z M128.364,202.496
		c8.474-16.64,12.905-18.206,12.933-18.215c14.619-3.76,27.23-3.76,39.427-3.76h0.254h0.256c12.375,0,24.064,0,39.934,3.784
		c0.044,0.014,4.453,1.558,12.838,18.081c1.587,3.127,3.027,6.226,4.24,8.964H124.154
		C125.36,208.646,126.789,205.59,128.364,202.496z"/>
</g>
<g id="Ebene_1">
</g>
</svg>
