<?xml version="1.0" encoding="iso-8859-1"?>
<!-- Generator: Adobe Illustrator 16.0.0, SVG Export Plug-In . SVG Version: 6.00 Build 0)  -->
<!DOCTYPE svg PUBLIC "-//W3C//DTD SVG 1.1 Tiny//EN" "http://www.w3.org/Graphics/SVG/1.1/DTD/svg11-tiny.dtd">
<svg version="1.1" baseProfile="tiny" id="fts_x5F_door"
	 xmlns="http://www.w3.org/2000/svg" xmlns:xlink="http://www.w3.org/1999/xlink" x="0px" y="0px" width="361px" height="361px"
	 viewBox="0 0 361 361" xml:space="preserve">
<path fill="none" stroke="#FFFFFF" stroke-width="10" stroke-miterlimit="10" d="M230.318,283.79c0,3.407-2.712,6.167-6.058,6.167
	h-92.89c-3.346,0-6.058-2.761-6.058-6.167V83.694c0-3.406,2.712-6.167,6.058-6.167h92.89c3.346,0,6.058,2.761,6.058,6.167V283.79z"
	/>
<g>
	<path fill="#FFFFFF" d="M127.312,188.545c3.333,0,6.667,0,10,0c6.449,0,6.449-10,0-10c-3.333,0-6.667,0-10,0
		C120.863,178.545,120.863,188.545,127.312,188.545L127.312,188.545z"/>
</g>
<path fill="none" stroke="#FFFFFF" stroke-width="10" stroke-miterlimit="10" d="M228.645,282.878c0-3.314-2.687-6-6-6h-91.333
	c-3.313,0-6,2.686-6,6v0.667c0,3.313,2.687,6,6,6h91.333c3.313,0,6-2.687,6-6V282.878z"/>
</svg>
