<?xml version="1.0" encoding="iso-8859-1"?>
<!-- Generator: Adobe Illustrator 16.0.3, SVG Export Plug-In . SVG Version: 6.00 Build 0)  -->
<!DOCTYPE svg PUBLIC "-//W3C//DTD SVG 1.1//EN" "http://www.w3.org/Graphics/SVG/1.1/DTD/svg11.dtd">
<svg version="1.1" xmlns="http://www.w3.org/2000/svg" xmlns:xlink="http://www.w3.org/1999/xlink" x="0px" y="0px" width="361px"
	 height="361px" viewBox="0 0 361 361" style="enable-background:new 0 0 361 361;" xml:space="preserve">
<g id="fts_x5F_sunblind_x5F_closed">
	<g>
		<g>
			<g>
				<path style="fill:#FFFFFF;" d="M235.543,106.203c2.722,2.722,5.444,5.444,8.167,8.167c1.926,1.926,5.145,1.926,7.07,0
					c1.927-1.926,1.927-5.145,0-7.071c-2.722-2.722-5.444-5.444-8.167-8.167c-1.926-1.926-5.145-1.926-7.07,0
					C233.616,101.058,233.616,104.276,235.543,106.203L235.543,106.203z"/>
			</g>
		</g>
		<g>
			<g>
				<path style="fill:#FFFFFF;" d="M205.361,106.203c2.722,2.722,5.443,5.444,8.166,8.167c1.926,1.926,5.145,1.926,7.07,0
					c1.927-1.926,1.927-5.145,0-7.071c-2.722-2.722-5.443-5.444-8.166-8.167c-1.926-1.926-5.145-1.926-7.07,0
					C203.435,101.058,203.435,104.276,205.361,106.203L205.361,106.203z"/>
			</g>
		</g>
		<g>
			<g>
				<path style="fill:#FFFFFF;" d="M175.694,106.203c2.723,2.722,5.445,5.444,8.167,8.167c1.926,1.926,5.145,1.926,7.07,0
					c1.927-1.926,1.927-5.145,0-7.071c-2.722-2.722-5.444-5.444-8.167-8.167c-1.926-1.926-5.145-1.926-7.071,0
					S173.768,104.276,175.694,106.203L175.694,106.203z"/>
			</g>
		</g>
		<g>
			<g>
				<path style="fill:#FFFFFF;" d="M145.512,106.203c2.722,2.722,5.444,5.444,8.167,8.167c1.926,1.926,5.145,1.926,7.071,0
					s1.926-5.145,0-7.071c-2.722-2.722-5.444-5.444-8.167-8.167c-1.926-1.926-5.145-1.926-7.071,0S143.585,104.276,145.512,106.203
					L145.512,106.203z"/>
			</g>
		</g>
		<g>
			<g>
				<path style="fill:#FFFFFF;" d="M112.75,106.203c2.722,2.722,5.444,5.444,8.167,8.167c1.926,1.926,5.145,1.926,7.071,0
					s1.926-5.145,0-7.071c-2.722-2.722-5.444-5.444-8.167-8.167c-1.926-1.926-5.145-1.926-7.071,0S110.823,104.276,112.75,106.203
					L112.75,106.203z"/>
			</g>
		</g>
		<g>
			<g>
				<path style="fill:#FFFFFF;" d="M81.567,106.203c2.667,2.667,5.333,5.333,8,8c4.564,4.563,11.635-2.507,7.071-7.071
					c-2.667-2.667-5.333-5.333-8-8C84.075,94.568,77.004,101.639,81.567,106.203L81.567,106.203z"/>
			</g>
		</g>
	</g>
	<g>
		<g>
			<g>
				<path style="fill:#FFFFFF;" d="M242.375,111.48c0,4.644,0,9.287,0,13.93c0,6.449,10,6.449,10,0c0-4.644,0-9.287,0-13.93
					C252.375,105.031,242.375,105.031,242.375,111.48L242.375,111.48z"/>
			</g>
		</g>
		<g>
			<g>
				<path style="fill:#FFFFFF;" d="M212.193,111.48c0,4.644,0,9.287,0,13.93c0,6.449,10,6.449,10,0c0-4.644,0-9.287,0-13.93
					C222.193,105.031,212.193,105.031,212.193,111.48L212.193,111.48z"/>
			</g>
		</g>
		<g>
			<g>
				<path style="fill:#FFFFFF;" d="M182.526,111.48c0,4.644,0,9.287,0,13.93c0,6.449,10,6.449,10,0c0-4.644,0-9.287,0-13.93
					C192.526,105.031,182.526,105.031,182.526,111.48L182.526,111.48z"/>
			</g>
		</g>
		<g>
			<g>
				<path style="fill:#FFFFFF;" d="M152.344,111.48c0,4.644,0,9.287,0,13.93c0,6.449,10,6.449,10,0c0-4.644,0-9.287,0-13.93
					C162.344,105.031,152.344,105.031,152.344,111.48L152.344,111.48z"/>
			</g>
		</g>
		<g>
			<g>
				<path style="fill:#FFFFFF;" d="M119.582,111.48c0,4.644,0,9.287,0,13.93c0,6.449,10,6.449,10,0c0-4.644,0-9.287,0-13.93
					C129.582,105.031,119.582,105.031,119.582,111.48L119.582,111.48z"/>
			</g>
		</g>
		<g>
			<g>
				<path style="fill:#FFFFFF;" d="M88.4,111.48c0,4.644,0,9.287,0,13.93c0,6.449,10,6.449,10,0c0-4.644,0-9.287,0-13.93
					C98.4,105.031,88.4,105.031,88.4,111.48L88.4,111.48z"/>
			</g>
		</g>
	</g>
	<g id="fenster_x5F_ganz">
		<path style="fill:none;stroke:#FFFFFF;stroke-width:10;stroke-miterlimit:10;" d="M263.998,258.555
			c0,3.445-2.78,6.241-6.213,6.241l-174.406,0.019c-3.432,0-6.213-2.794-6.213-6.242V146.199c0-3.445,2.781-6.243,6.213-6.243
			l174.406-0.017c3.433,0,6.213,2.795,6.213,6.242V258.555z"/>
		<g>
			<g>
				<path style="fill:#FFFFFF;" d="M165.025,199.396c3.705,0,7.409,0,11.113,0c6.448,0,6.448-10,0-10c-3.705,0-7.409,0-11.113,0
					C158.577,189.396,158.577,199.396,165.025,199.396L165.025,199.396z"/>
			</g>
		</g>
		<line style="fill:none;stroke:#FFFFFF;stroke-width:10;stroke-miterlimit:10;" x1="170.582" y1="140.7" x2="170.582" y2="261.6"/>
	</g>
</g>
<g id="Ebene_1">
</g>
</svg>
