<?xml version="1.0" encoding="iso-8859-1"?>
<!-- Generator: Adobe Illustrator 16.0.3, SVG Export Plug-In . SVG Version: 6.00 Build 0)  -->
<!DOCTYPE svg PUBLIC "-//W3C//DTD SVG 1.1//EN" "http://www.w3.org/Graphics/SVG/1.1/DTD/svg11.dtd">
<svg version="1.1" xmlns="http://www.w3.org/2000/svg" xmlns:xlink="http://www.w3.org/1999/xlink" x="0px" y="0px" width="361px"
	 height="361px" viewBox="0 0 361 361" style="enable-background:new 0 0 361 361;" xml:space="preserve">
<g id="fts_x5F_blade_x5F_arc_x5F_-70">
	<g>
		<g>
			<g>
				<path style="fill:#FFFFFF;" d="M148.428,161.458c39.274,26.947,60.301,74.759,53.186,121.938
					c-0.951,6.306,8.684,9.018,9.643,2.658c7.829-51.913-14.455-103.504-57.782-133.231
					C148.142,149.164,143.147,157.834,148.428,161.458L148.428,161.458z"/>
			</g>
		</g>
		<g>
			<g>
				<path style="fill:#FFFFFF;" d="M155.383,154.71c-0.695-0.498-1.39-0.995-2.085-1.493c-1.138-0.814-2.902-0.908-4.203-0.55
					c-1.363,0.375-2.545,1.287-3.26,2.506c-0.738,1.26-0.937,2.795-0.55,4.203c0.403,1.466,1.309,2.402,2.506,3.26
					c0.695,0.498,1.39,0.995,2.085,1.493c1.138,0.814,2.902,0.908,4.203,0.55c1.363-0.375,2.545-1.287,3.26-2.506
					c0.738-1.26,0.937-2.795,0.55-4.203C157.486,156.503,156.581,155.567,155.383,154.71L155.383,154.71z"/>
			</g>
		</g>
		<g>
			<g>
				<path style="fill:#FFFFFF;" d="M211.16,284.49c0.044-0.853,0.088-1.706,0.132-2.559c0.153-2.972-2.597-5.454-5.454-5.454
					c-1.44,0-2.838,0.579-3.856,1.598c-1.062,1.061-1.521,2.383-1.598,3.856c-0.044,0.853-0.088,1.706-0.132,2.559
					c-0.153,2.972,2.597,5.454,5.454,5.454c1.44,0,2.838-0.579,3.856-1.598C210.624,287.286,211.084,285.964,211.16,284.49
					L211.16,284.49z"/>
			</g>
		</g>
	</g>
	<g>
		<g>
			<path style="fill:#FFFFFF;" d="M178.833,71.667c0,5.416,0,10.832,0,16.248c0,1.935,3,1.935,3,0c0-5.416,0-10.832,0-16.248
				C181.833,69.732,178.833,69.732,178.833,71.667L178.833,71.667z"/>
		</g>
	</g>
	<g>
		<g>
			<path style="fill:#FFFFFF;" d="M179,142.989c0,7.612,0,15.225,0,22.837c0,1.935,3,1.935,3,0c0-7.612,0-15.225,0-22.837
				C182,141.055,179,141.055,179,142.989L179,142.989z"/>
		</g>
	</g>
	<g>
		<g>
			<path style="fill:#FFFFFF;" d="M179,217.986c0,23.894,0,47.787,0,71.681c0,1.935,3,1.935,3,0c0-23.894,0-47.787,0-71.681
				C182,216.052,179,216.052,179,217.986L179,217.986z"/>
		</g>
	</g>
	<g>
		<g>
			<path style="fill:#FFFFFF;" d="M179,134c0,7.612,0,15.225,0,22.837c0,1.935,3,1.935,3,0c0-7.612,0-15.225,0-22.837
				C182,132.066,179,132.066,179,134L179,134z"/>
		</g>
	</g>
	<g>
		<g>
			<g>
				<path style="fill:#FFFFFF;" d="M147.219,81.217c39.276,26.945,60.301,74.759,53.188,121.938
					c-0.951,6.306,8.684,9.018,9.643,2.658c7.827-51.913-14.456-103.506-57.784-133.231
					C146.933,68.924,141.938,77.594,147.219,81.217L147.219,81.217z"/>
			</g>
		</g>
		<g>
			<g>
				<path style="fill:#FFFFFF;" d="M154.175,74.47c-0.695-0.497-1.391-0.995-2.085-1.492c-1.138-0.814-2.902-0.908-4.203-0.55
					c-1.363,0.375-2.545,1.287-3.26,2.506c-0.738,1.26-0.937,2.795-0.55,4.203c0.403,1.466,1.309,2.403,2.506,3.26
					c0.695,0.497,1.391,0.995,2.085,1.492c1.138,0.814,2.902,0.908,4.203,0.55c1.363-0.375,2.545-1.287,3.26-2.506
					c0.738-1.26,0.937-2.795,0.55-4.203C156.278,76.264,155.372,75.327,154.175,74.47L154.175,74.47z"/>
			</g>
		</g>
		<g>
			<g>
				<path style="fill:#FFFFFF;" d="M209.952,204.252c0.044-0.853,0.088-1.706,0.132-2.559c0.153-2.972-2.597-5.454-5.454-5.454
					c-1.44,0-2.838,0.579-3.856,1.598c-1.062,1.061-1.521,2.383-1.598,3.856c-0.044,0.853-0.088,1.706-0.132,2.559
					c-0.153,2.972,2.597,5.454,5.454,5.454c1.44,0,2.838-0.579,3.856-1.598C209.416,207.048,209.876,205.726,209.952,204.252
					L209.952,204.252z"/>
			</g>
		</g>
	</g>
</g>
<g id="Ebene_1">
</g>
</svg>
