<?xml version="1.0" encoding="iso-8859-1"?>
<!-- Generator: Adobe Illustrator 16.0.0, SVG Export Plug-In . SVG Version: 6.00 Build 0)  -->
<!DOCTYPE svg PUBLIC "-//W3C//DTD SVG 1.1//EN" "http://www.w3.org/Graphics/SVG/1.1/DTD/svg11.dtd">
<svg version="1.1" xmlns="http://www.w3.org/2000/svg" xmlns:xlink="http://www.w3.org/1999/xlink" x="0px" y="0px" width="361px"
	 height="361px" viewBox="0 0 361 361" style="enable-background:new 0 0 361 361;" xml:space="preserve">
<g id="fts_x5F_blade_x5F_z_x5F_30">
	<g>
		<g>
			<path style="fill:#FFFFFF;" d="M178.833,70.667c0,19.833,0,39.667,0,59.5c0,1.935,3,1.935,3,0c0-19.833,0-39.667,0-59.5
				C181.833,68.732,178.833,68.732,178.833,70.667L178.833,70.667z"/>
		</g>
	</g>
	<g>
		<g>
			<path style="fill:#FFFFFF;" d="M179,159.082c0,13.55,0,27.1,0,40.651c0,1.935,3,1.935,3,0c0-13.551,0-27.101,0-40.651
				C182,157.147,179,157.147,179,159.082L179,159.082z"/>
		</g>
	</g>
	<g>
		<g>
			<path style="fill:#FFFFFF;" d="M179,230.667c0,19.667,0,39.333,0,59c0,1.935,3,1.935,3,0c0-19.667,0-39.333,0-59
				C182,228.732,179,228.732,179,230.667L179,230.667z"/>
		</g>
	</g>
	<g style="display:none;">
		<g style="display:inline;">
			<g>
				<path style="fill:#FFFFFF;" d="M210.117,134.19c0,9.159,0,18.318,0,27.477c0,1.935,3,1.935,3,0c0-9.159,0-18.318,0-27.477
					C213.117,132.256,210.117,132.256,210.117,134.19L210.117,134.19z"/>
			</g>
		</g>
		<g style="display:inline;">
			<g>
				<path style="fill:#FFFFFF;" d="M210.236,198c0,10.444,0,20.89,0,31.334c0,1.935,3,1.935,3,0c0-10.444,0-20.89,0-31.334
					C213.236,196.065,210.236,196.065,210.236,198L210.236,198z"/>
			</g>
		</g>
		<g style="display:inline;">
			<g>
				<path style="fill:#FFFFFF;" d="M210.236,262c0,9.171,0,18.341,0,27.512c0,1.935,3,1.935,3,0c0-9.171,0-18.341,0-27.512
					C213.236,260.065,210.236,260.065,210.236,262L210.236,262z"/>
			</g>
		</g>
	</g>
	<g>
		<g>
			<g>
				<g>
					<path style="fill:#FFFFFF;" d="M168.919,149.344c6.883,1.797,13.767,3.594,20.65,5.391c6.246,1.63,8.894-8.015,2.658-9.643
						c-6.884-1.797-13.767-3.594-20.65-5.391C165.332,138.071,162.684,147.717,168.919,149.344L168.919,149.344z"/>
				</g>
			</g>
			<g>
				<g>
					<path style="fill:#FFFFFF;" d="M192.847,154.908c21.277-7.465,42.554-14.931,63.831-22.396
						c6.043-2.12,3.443-11.783-2.658-9.643c-21.277,7.465-42.554,14.931-63.831,22.396
						C184.146,147.385,186.745,157.048,192.847,154.908L192.847,154.908z"/>
				</g>
			</g>
			<g>
				<g>
					<path style="fill:#FFFFFF;" d="M107.748,171.736c21.277-7.464,42.553-14.928,63.83-22.392c6.043-2.12,3.443-11.783-2.658-9.643
						c-21.277,7.464-42.553,14.928-63.83,22.392C99.046,164.213,101.646,173.876,107.748,171.736L107.748,171.736z"/>
				</g>
			</g>
		</g>
		<g>
			<g>
				<path style="fill:#FFFFFF;" d="M108.08,161.706c-0.813,0.266-1.626,0.531-2.439,0.797c-1.374,0.449-2.518,1.24-3.26,2.506
					c-0.738,1.26-0.937,2.795-0.55,4.203c0.76,2.764,3.883,4.733,6.709,3.81c0.813-0.266,1.626-0.531,2.439-0.797
					c1.374-0.449,2.518-1.24,3.26-2.506c0.738-1.26,0.937-2.795,0.55-4.203C114.029,162.752,110.906,160.783,108.08,161.706
					L108.08,161.706z"/>
			</g>
		</g>
		<g>
			<g>
				<path style="fill:#FFFFFF;" d="M253.781,122.891c-0.804,0.289-1.608,0.578-2.413,0.867c-1.378,0.495-2.5,1.211-3.259,2.506
					c-0.738,1.26-0.938,2.795-0.55,4.203c0.375,1.363,1.287,2.545,2.506,3.26c1.182,0.692,2.877,1.026,4.203,0.55
					c0.804-0.289,1.608-0.578,2.413-0.867c1.378-0.495,2.5-1.211,3.259-2.506c0.738-1.26,0.938-2.795,0.55-4.203
					c-0.375-1.363-1.287-2.545-2.506-3.26C256.803,122.749,255.107,122.414,253.781,122.891L253.781,122.891z"/>
			</g>
		</g>
	</g>
	<g>
		<g>
			<g>
				<g>
					<path style="fill:#FFFFFF;" d="M168.558,215.96c6.883,1.798,13.767,3.596,20.65,5.394c6.245,1.632,8.894-8.015,2.658-9.643
						c-6.884-1.798-13.767-3.596-20.65-5.394C164.97,204.686,162.323,214.332,168.558,215.96L168.558,215.96z"/>
				</g>
			</g>
			<g>
				<g>
					<path style="fill:#FFFFFF;" d="M192.485,221.522c21.277-7.465,42.555-14.93,63.832-22.395c6.043-2.12,3.443-11.783-2.658-9.643
						c-21.277,7.465-42.555,14.93-63.832,22.395C183.784,214,186.384,223.663,192.485,221.522L192.485,221.522z"/>
				</g>
			</g>
			<g>
				<g>
					<path style="fill:#FFFFFF;" d="M107.384,238.354c21.277-7.465,42.555-14.93,63.832-22.395c6.043-2.12,3.443-11.783-2.658-9.643
						c-21.277,7.465-42.555,14.93-63.832,22.395C98.683,230.832,101.283,240.495,107.384,238.354L107.384,238.354z"/>
				</g>
			</g>
		</g>
		<g>
			<g>
				<path style="fill:#FFFFFF;" d="M107.716,228.325c-0.813,0.266-1.625,0.531-2.438,0.797c-1.374,0.449-2.518,1.239-3.26,2.506
					c-0.738,1.26-0.937,2.795-0.55,4.203c0.76,2.763,3.883,4.733,6.709,3.809c0.813-0.266,1.625-0.531,2.438-0.797
					c1.374-0.449,2.518-1.239,3.26-2.506c0.738-1.26,0.937-2.795,0.55-4.203C113.665,229.371,110.542,227.4,107.716,228.325
					L107.716,228.325z"/>
			</g>
		</g>
		<g>
			<g>
				<path style="fill:#FFFFFF;" d="M253.421,189.509c-0.805,0.289-1.61,0.579-2.416,0.869c-1.378,0.495-2.5,1.21-3.259,2.506
					c-0.738,1.26-0.938,2.795-0.55,4.203c0.375,1.363,1.287,2.545,2.506,3.259c1.181,0.692,2.877,1.027,4.203,0.55
					c0.805-0.289,1.61-0.579,2.416-0.869c1.378-0.495,2.5-1.21,3.259-2.506c0.738-1.26,0.938-2.795,0.55-4.203
					c-0.375-1.363-1.287-2.545-2.506-3.259C256.443,189.366,254.747,189.031,253.421,189.509L253.421,189.509z"/>
			</g>
		</g>
	</g>
</g>
<g id="Ebene_1">
</g>
</svg>
