<?xml version="1.0" encoding="iso-8859-1"?>
<!-- Generator: Adobe Illustrator 16.0.0, SVG Export Plug-In . SVG Version: 6.00 Build 0)  -->
<!DOCTYPE svg PUBLIC "-//W3C//DTD SVG 1.1//EN" "http://www.w3.org/Graphics/SVG/1.1/DTD/svg11.dtd">
<svg version="1.1" xmlns="http://www.w3.org/2000/svg" xmlns:xlink="http://www.w3.org/1999/xlink" x="0px" y="0px" width="361px"
	 height="361px" viewBox="0 0 361 361" style="enable-background:new 0 0 361 361;" xml:space="preserve">
<g id="fts_x5F_blade_x5F_arc_x5F_close_x5F_00">
	<g>
		<g>
			<g>
				<g>
					<path style="fill:#FFFFFF;" d="M195.693,130.196c22.393-20.788,54.21-26.62,82.669-15.784c6.037,2.299,8.623-7.372,2.658-9.643
						c-31.779-12.101-67.569-4.695-92.397,18.355C183.888,127.521,190.976,134.577,195.693,130.196L195.693,130.196z"/>
				</g>
			</g>
			<g>
				<g>
					<path style="fill:#FFFFFF;" d="M189.959,122.07c-0.407,0.366-0.815,0.733-1.223,1.1c-2.211,1.989-2.019,5.695,0,7.713
						c1.019,1.019,2.416,1.598,3.856,1.598c1.505,0,2.76-0.611,3.856-1.598c0.407-0.366,0.815-0.733,1.223-1.1
						c2.211-1.989,2.019-5.695,0-7.713c-1.019-1.019-2.416-1.598-3.856-1.598C192.311,120.473,191.056,121.083,189.959,122.07
						L189.959,122.07z"/>
				</g>
			</g>
			<g>
				<g>
					<path style="fill:#FFFFFF;" d="M280.896,104.758c-0.529-0.146-1.058-0.292-1.586-0.438c-2.864-0.791-5.922,0.947-6.709,3.81
						c-0.789,2.867,0.945,5.918,3.809,6.709c0.529,0.146,1.058,0.292,1.586,0.438c2.864,0.791,5.922-0.947,6.709-3.81
						C285.493,108.6,283.759,105.549,280.896,104.758L280.896,104.758z"/>
				</g>
			</g>
		</g>
		<g>
			<g>
				<g>
					<path style="fill:#FFFFFF;" d="M195.693,195.046c22.393-20.788,54.21-26.619,82.669-15.783
						c6.037,2.299,8.623-7.372,2.658-9.643c-31.779-12.1-67.569-4.695-92.397,18.355
						C183.888,192.371,190.976,199.427,195.693,195.046L195.693,195.046z"/>
				</g>
			</g>
			<g>
				<g>
					<path style="fill:#FFFFFF;" d="M189.959,186.921c-0.407,0.366-0.815,0.733-1.223,1.1c-2.211,1.988-2.019,5.695,0,7.713
						c1.019,1.019,2.416,1.598,3.856,1.598c1.505,0,2.76-0.611,3.856-1.598c0.407-0.366,0.815-0.733,1.223-1.1
						c2.211-1.988,2.019-5.695,0-7.713c-1.019-1.019-2.416-1.598-3.856-1.598C192.311,185.323,191.056,185.935,189.959,186.921
						L189.959,186.921z"/>
				</g>
			</g>
			<g>
				<g>
					<path style="fill:#FFFFFF;" d="M280.896,169.609c-0.529-0.146-1.058-0.292-1.586-0.438c-2.864-0.792-5.922,0.947-6.709,3.81
						c-0.789,2.868,0.945,5.917,3.809,6.709c0.529,0.146,1.058,0.292,1.586,0.438c2.864,0.792,5.922-0.947,6.709-3.81
						C285.493,173.45,283.759,170.401,280.896,169.609L280.896,169.609z"/>
				</g>
			</g>
		</g>
		<g>
			<g>
				<g>
					<path style="fill:#FFFFFF;" d="M195.693,259.896c22.393-20.787,54.21-26.619,82.669-15.783
						c6.037,2.299,8.623-7.372,2.658-9.643c-31.779-12.1-67.569-4.695-92.397,18.355
						C183.888,257.222,190.976,264.277,195.693,259.896L195.693,259.896z"/>
				</g>
			</g>
			<g>
				<g>
					<path style="fill:#FFFFFF;" d="M189.959,251.771c-0.407,0.366-0.815,0.733-1.223,1.1c-2.211,1.988-2.019,5.695,0,7.713
						c1.019,1.019,2.416,1.598,3.856,1.598c1.505,0,2.76-0.611,3.856-1.598c0.407-0.366,0.815-0.733,1.223-1.1
						c2.211-1.988,2.019-5.695,0-7.713c-1.019-1.019-2.416-1.598-3.856-1.598C192.311,250.173,191.056,250.784,189.959,251.771
						L189.959,251.771z"/>
				</g>
			</g>
			<g>
				<g>
					<path style="fill:#FFFFFF;" d="M280.896,234.46c-0.529-0.146-1.058-0.293-1.586-0.438c-2.864-0.792-5.922,0.947-6.709,3.809
						c-0.789,2.868,0.945,5.918,3.809,6.709c0.529,0.146,1.058,0.293,1.586,0.438c2.864,0.792,5.922-0.947,6.709-3.809
						C285.493,238.301,283.759,235.251,280.896,234.46L280.896,234.46z"/>
				</g>
			</g>
		</g>
	</g>
	<g>
		<g>
			<path style="fill:#FFFFFF;" d="M232,71.733c0,6.291,0,12.582,0,18.873c0,1.935,3,1.935,3,0c0-6.291,0-12.582,0-18.873
				C235,69.798,232,69.798,232,71.733L232,71.733z"/>
		</g>
	</g>
	<g>
		<g>
			<path style="fill:#FFFFFF;" d="M232,118.791c0,13.178,0,26.355,0,39.533c0,1.935,3,1.935,3,0c0-13.178,0-26.355,0-39.533
				C235,116.856,232,116.856,232,118.791L232,118.791z"/>
		</g>
	</g>
	<g>
		<g>
			<path style="fill:#FFFFFF;" d="M232,184.285c0,12.771,0,25.54,0,38.311c0,1.935,3,1.935,3,0c0-12.771,0-25.54,0-38.311
				C235,182.351,232,182.351,232,184.285L232,184.285z"/>
		</g>
	</g>
	<g>
		<g>
			<path style="fill:#FFFFFF;" d="M232,248.305c0,13.636,0,27.272,0,40.908c0,1.935,3,1.935,3,0c0-13.636,0-27.272,0-40.908
				C235,246.37,232,246.37,232,248.305L232,248.305z"/>
		</g>
	</g>
	<g id="sonne_6_">
		<path style="fill:none;stroke:#FFFFFF;stroke-width:10;stroke-miterlimit:10;" d="M90.708,118.603c0,2.245,1.82,4.064,4.064,4.064
			h23.371c2.245,0,4.064-1.82,4.064-4.064V95.231c0-2.245-1.82-4.064-4.064-4.064H94.772c-2.245,0-4.064,1.82-4.064,4.064V118.603z"
			/>
		<g>
			<g>
				<path style="fill:#FFFFFF;" d="M137.797,70.756c-2.406,2.407-4.813,4.813-7.219,7.219c-1.926,1.926-1.926,5.145,0,7.071
					s5.145,1.926,7.071,0c2.406-2.407,4.813-4.813,7.219-7.219c1.926-1.926,1.926-5.145,0-7.071S139.723,68.83,137.797,70.756
					L137.797,70.756z"/>
			</g>
		</g>
		<g>
			<g>
				<path style="fill:#FFFFFF;" d="M175.708,101.667c-11.167,0-22.333,0-33.5,0c-6.449,0-6.449,10,0,10c11.167,0,22.333,0,33.5,0
					C182.156,111.667,182.156,101.667,175.708,101.667L175.708,101.667z"/>
			</g>
		</g>
		<g>
			<g>
				<path style="fill:#FFFFFF;" d="M78.369,143.327c1.99-1.99,3.979-3.979,5.969-5.969c1.926-1.926,1.926-5.145,0-7.071
					s-5.145-1.926-7.071,0c-1.99,1.99-3.979,3.979-5.969,5.969c-1.926,1.926-1.926,5.145,0,7.071S76.442,145.253,78.369,143.327
					L78.369,143.327z"/>
			</g>
		</g>
		<g>
			<g>
				<path style="fill:#FFFFFF;" d="M111.958,175.417c0-11.167,0-22.333,0-33.5c0-6.449-10-6.449-10,0c0,11.167,0,22.333,0,33.5
					C101.958,181.865,111.958,181.865,111.958,175.417L111.958,175.417z"/>
			</g>
		</g>
		<g>
			<g>
				<path style="fill:#FFFFFF;" d="M160.337,153.976c-7.896-7.896-15.792-15.792-23.688-23.688
					c-4.564-4.563-11.635,2.507-7.071,7.071c7.896,7.896,15.792,15.792,23.688,23.688C157.83,165.61,164.901,158.54,160.337,153.976
					L160.337,153.976z"/>
			</g>
		</g>
	</g>
</g>
<g id="Ebene_1">
</g>
</svg>
