<?xml version="1.0" encoding="iso-8859-1"?>
<!-- Generator: Adobe Illustrator 16.0.0, SVG Export Plug-In . SVG Version: 6.00 Build 0)  -->
<!DOCTYPE svg PUBLIC "-//W3C//DTD SVG 1.1//EN" "http://www.w3.org/Graphics/SVG/1.1/DTD/svg11.dtd">
<svg version="1.1" xmlns="http://www.w3.org/2000/svg" xmlns:xlink="http://www.w3.org/1999/xlink" x="0px" y="0px" width="361px"
	 height="361px" viewBox="0 0 361 361" style="enable-background:new 0 0 361 361;" xml:space="preserve">
<g id="fts_x5F_window_x5F_louvre">
	<path style="fill:none;stroke:#FFFFFF;stroke-width:10;stroke-miterlimit:10;" d="M238.697,75.064c3.52,0,6.373,3.156,6.373,7.049
		l0.02,197.885c0,3.894-2.854,7.05-6.375,7.05h-114.75c-3.52,0-6.375-3.156-6.375-7.05l-0.019-197.885
		c0-3.893,2.855-7.049,6.375-7.049H238.697z"/>
	<g>
		<g>
			<path style="fill:#FFFFFF;" d="M231.554,84.506c5.15,0.533,4.115,5.367,4.117,8.465c0.003,4.028,0.005,8.057,0.008,12.085
				c0.002,4.111,1.571,11.923-5.129,11.923c-10.946,0-21.893,0-32.838,0c-15.838,0-31.676,0-47.514,0c-5.257,0-10.514,0-15.771,0
				c-3.56,0-8.028-0.059-8.032-5.166c-0.004-6.537-0.008-13.073-0.013-19.61c-0.001-2.977-0.895-7.178,4.111-7.697
				c0.583-0.061,1.205,0,1.79,0c10.689,0,21.379,0,32.069,0C186.753,84.506,209.153,84.506,231.554,84.506c1.935,0,1.935-3,0-3
				c-24.557,0-49.113,0-73.67,0c-9.113,0-18.226,0-27.338,0c-6.587,0-7.167,5.69-7.164,10.697
				c0.004,6.827,0.009,13.654,0.013,20.481c0.006,9.624,13.029,7.295,19.337,7.295c15.09,0,30.179,0,45.27,0
				c13.075,0,26.15,0,39.226,0c2.844,0,6.633,0.504,8.914-1.549c4.103-3.69,2.538-11.287,2.535-16.227
				c-0.005-7.049,2.803-19.669-7.123-20.697C229.63,81.307,229.649,84.309,231.554,84.506z"/>
		</g>
	</g>
	<g>
		<g>
			<path style="fill:#FFFFFF;" d="M231.554,205.437c5.15,0.533,4.115,5.368,4.117,8.465c0.003,4.028,0.005,8.057,0.008,12.085
				c0.002,4.11,1.571,11.923-5.129,11.923c-10.946,0-21.893,0-32.838,0c-15.838,0-31.676,0-47.514,0c-5.257,0-10.514,0-15.771,0
				c-3.56,0-8.028-0.06-8.032-5.166c-0.004-6.536-0.008-13.073-0.013-19.609c-0.001-2.977-0.895-7.179,4.111-7.697
				c0.583-0.061,1.205,0,1.79,0c10.689,0,21.379,0,32.069,0C186.753,205.437,209.153,205.437,231.554,205.437c1.935,0,1.935-3,0-3
				c-24.557,0-49.113,0-73.67,0c-9.113,0-18.226,0-27.338,0c-6.587,0-7.167,5.691-7.164,10.697
				c0.004,6.827,0.009,13.653,0.013,20.48c0.006,9.624,13.029,7.295,19.337,7.295c15.09,0,30.179,0,45.27,0
				c13.075,0,26.15,0,39.226,0c2.844,0,6.633,0.504,8.914-1.548c4.103-3.69,2.538-11.288,2.535-16.228
				c-0.005-7.049,2.802-19.669-7.123-20.697C229.63,202.237,229.649,205.239,231.554,205.437z"/>
		</g>
	</g>
	<g>
		<g>
			<path style="fill:#FFFFFF;" d="M231.554,165.126c5.15,0.534,4.115,5.368,4.117,8.465c0.003,4.028,0.005,8.057,0.008,12.085
				c0.002,4.11,1.571,11.923-5.129,11.923c-10.946,0-21.893,0-32.838,0c-15.838,0-31.676,0-47.514,0c-5.257,0-10.514,0-15.771,0
				c-3.56,0-8.028-0.06-8.032-5.166c-0.004-6.537-0.008-13.073-0.013-19.61c-0.001-2.977-0.895-7.179,4.111-7.697
				c0.583-0.061,1.205,0,1.79,0c10.689,0,21.379,0,32.069,0C186.753,165.126,209.153,165.126,231.554,165.126c1.935,0,1.935-3,0-3
				c-24.557,0-49.113,0-73.67,0c-9.113,0-18.226,0-27.338,0c-6.587,0-7.167,5.691-7.164,10.697
				c0.004,6.827,0.009,13.654,0.013,20.481c0.006,9.624,13.029,7.295,19.337,7.295c15.09,0,30.179,0,45.27,0
				c13.075,0,26.15,0,39.226,0c2.844,0,6.633,0.504,8.914-1.549c4.103-3.69,2.538-11.287,2.535-16.228
				c-0.005-7.049,2.803-19.669-7.123-20.697C229.63,161.927,229.649,164.929,231.554,165.126z"/>
		</g>
	</g>
	<g>
		<g>
			<path style="fill:#FFFFFF;" d="M231.554,124.816c5.15,0.534,4.115,5.368,4.117,8.465c0.003,4.028,0.005,8.057,0.008,12.085
				c0.002,4.111,1.571,11.923-5.129,11.923c-10.946,0-21.893,0-32.838,0c-15.838,0-31.676,0-47.514,0c-5.257,0-10.514,0-15.771,0
				c-3.56,0-8.028-0.059-8.032-5.166c-0.004-6.537-0.008-13.073-0.013-19.61c-0.001-2.977-0.895-7.179,4.111-7.698
				c0.583-0.061,1.205,0,1.79,0c10.689,0,21.379,0,32.069,0C186.753,124.816,209.153,124.816,231.554,124.816c1.935,0,1.935-3,0-3
				c-24.557,0-49.113,0-73.67,0c-9.113,0-18.226,0-27.338,0c-6.587,0-7.167,5.691-7.164,10.698
				c0.004,6.827,0.009,13.654,0.013,20.481c0.006,9.623,13.029,7.294,19.337,7.294c15.09,0,30.179,0,45.27,0
				c13.075,0,26.15,0,39.226,0c2.844,0,6.633,0.504,8.914-1.548c4.103-3.69,2.538-11.288,2.535-16.228
				c-0.005-7.049,2.803-19.669-7.123-20.697C229.63,121.617,229.649,124.619,231.554,124.816z"/>
		</g>
	</g>
	<g>
		<g>
			<path style="fill:#FFFFFF;" d="M231.554,245.747c5.15,0.533,4.115,5.368,4.117,8.465c0.003,4.028,0.005,8.057,0.008,12.085
				c0.002,4.11,1.571,11.923-5.129,11.923c-10.946,0-21.893,0-32.838,0c-15.838,0-31.676,0-47.514,0c-5.257,0-10.514,0-15.771,0
				c-3.56,0-8.028-0.06-8.032-5.166c-0.004-6.536-0.008-13.073-0.013-19.609c-0.001-2.977-0.895-7.179,4.111-7.697
				c0.583-0.061,1.205,0,1.79,0c10.689,0,21.379,0,32.069,0C186.753,245.747,209.153,245.747,231.554,245.747c1.935,0,1.935-3,0-3
				c-24.557,0-49.113,0-73.67,0c-9.113,0-18.226,0-27.338,0c-6.587,0-7.167,5.691-7.164,10.697
				c0.004,6.827,0.009,13.653,0.013,20.48c0.006,9.624,13.029,7.295,19.337,7.295c15.09,0,30.179,0,45.27,0
				c13.075,0,26.15,0,39.226,0c2.844,0,6.633,0.504,8.914-1.549c4.103-3.69,2.538-11.287,2.535-16.227
				c-0.005-7.049,2.802-19.669-7.123-20.697C229.63,242.548,229.649,245.55,231.554,245.747z"/>
		</g>
	</g>
</g>
<g id="Ebene_1">
</g>
</svg>
