<?xml version="1.0" encoding="iso-8859-1"?>
<!-- Generator: Adobe Illustrator 16.0.0, SVG Export Plug-In . SVG Version: 6.00 Build 0)  -->
<!DOCTYPE svg PUBLIC "-//W3C//DTD SVG 1.1//EN" "http://www.w3.org/Graphics/SVG/1.1/DTD/svg11.dtd">
<svg version="1.1" xmlns="http://www.w3.org/2000/svg" xmlns:xlink="http://www.w3.org/1999/xlink" x="0px" y="0px" width="361px"
	 height="361px" viewBox="0 0 361 361" style="enable-background:new 0 0 361 361;" xml:space="preserve">
<g id="fts_x5F_blade_x5F_z_x5F_100">
	<g>
		<g>
			<path style="fill:#FFFFFF;" d="M178.833,70.667c0,19.833,0,39.667,0,59.5c0,1.935,3,1.935,3,0c0-19.833,0-39.667,0-59.5
				C181.833,68.732,178.833,68.732,178.833,70.667L178.833,70.667z"/>
		</g>
	</g>
	<g>
		<g>
			<path style="fill:#FFFFFF;" d="M179,159.082c0,13.55,0,27.1,0,40.651c0,1.935,3,1.935,3,0c0-13.551,0-27.101,0-40.651
				C182,157.147,179,157.147,179,159.082L179,159.082z"/>
		</g>
	</g>
	<g>
		<g>
			<path style="fill:#FFFFFF;" d="M179,230.667c0,19.667,0,39.333,0,59c0,1.935,3,1.935,3,0c0-19.667,0-39.333,0-59
				C182,228.732,179,228.732,179,230.667L179,230.667z"/>
		</g>
	</g>
	<g style="display:none;">
		<g style="display:inline;">
			<g>
				<path style="fill:#FFFFFF;" d="M210.117,134.19c0,9.159,0,18.318,0,27.477c0,1.935,3,1.935,3,0c0-9.159,0-18.318,0-27.477
					C213.117,132.256,210.117,132.256,210.117,134.19L210.117,134.19z"/>
			</g>
		</g>
		<g style="display:inline;">
			<g>
				<path style="fill:#FFFFFF;" d="M210.236,198c0,10.444,0,20.89,0,31.334c0,1.935,3,1.935,3,0c0-10.444,0-20.89,0-31.334
					C213.236,196.065,210.236,196.065,210.236,198L210.236,198z"/>
			</g>
		</g>
		<g style="display:inline;">
			<g>
				<path style="fill:#FFFFFF;" d="M210.236,262c0,9.171,0,18.341,0,27.512c0,1.935,3,1.935,3,0c0-9.171,0-18.341,0-27.512
					C213.236,260.065,210.236,260.065,210.236,262L210.236,262z"/>
			</g>
		</g>
	</g>
	<g>
		<g>
			<g>
				<g>
					<path style="fill:#FFFFFF;" d="M175.987,158.159c5.339-4.701,10.678-9.402,16.017-14.104c4.85-4.27-2.251-11.314-7.07-7.071
						c-5.339,4.701-10.679,9.402-16.018,14.104C164.067,155.357,171.167,162.402,175.987,158.159L175.987,158.159z"/>
				</g>
			</g>
			<g>
				<g>
					<path style="fill:#FFFFFF;" d="M193.777,141.429c5.709-21.813,11.419-43.626,17.128-65.44c1.635-6.245-8.011-8.892-9.643-2.658
						c-5.709,21.813-11.419,43.626-17.128,65.44C182.5,145.016,192.146,147.663,193.777,141.429L193.777,141.429z"/>
				</g>
			</g>
			<g>
				<g>
					<path style="fill:#FFFFFF;" d="M160.144,221.392c5.71-21.813,11.419-43.626,17.129-65.439c1.635-6.245-8.011-8.892-9.643-2.658
						c-5.71,21.813-11.419,43.626-17.129,65.439C148.866,224.979,158.512,227.625,160.144,221.392L160.144,221.392z"/>
				</g>
			</g>
		</g>
		<g>
			<g>
				<path style="fill:#FFFFFF;" d="M151.844,216.062c-0.234,0.822-0.468,1.645-0.703,2.467c-0.814,2.858,0.964,5.927,3.81,6.709
					c2.885,0.794,5.895-0.951,6.709-3.809c0.234-0.822,0.468-1.645,0.703-2.467c0.814-2.858-0.964-5.927-3.81-6.709
					C155.668,211.459,152.658,213.204,151.844,216.062L151.844,216.062z"/>
			</g>
		</g>
		<g>
			<g>
				<path style="fill:#FFFFFF;" d="M201.143,73.563c-0.211,0.829-0.422,1.658-0.632,2.487c-0.732,2.879,0.902,5.909,3.809,6.709
					c2.822,0.776,5.978-0.929,6.709-3.81c0.211-0.829,0.422-1.658,0.632-2.487c0.732-2.879-0.902-5.909-3.809-6.709
					C205.029,68.977,201.874,70.683,201.143,73.563L201.143,73.563z"/>
			</g>
		</g>
	</g>
	<g>
		<g>
			<g>
				<g>
					<path style="fill:#FFFFFF;" d="M175.625,224.775c5.339-4.701,10.679-9.402,16.018-14.104c4.85-4.27-2.251-11.314-7.07-7.07
						c-5.34,4.701-10.679,9.402-16.019,14.104C163.705,221.975,170.806,229.02,175.625,224.775L175.625,224.775z"/>
				</g>
			</g>
			<g>
				<g>
					<path style="fill:#FFFFFF;" d="M193.415,208.047c5.71-21.813,11.419-43.626,17.129-65.44c1.635-6.245-8.011-8.892-9.643-2.658
						c-5.71,21.813-11.419,43.626-17.129,65.44C182.138,211.634,191.783,214.281,193.415,208.047L193.415,208.047z"/>
				</g>
			</g>
			<g>
				<g>
					<path style="fill:#FFFFFF;" d="M159.782,288.009c5.71-21.813,11.419-43.626,17.129-65.439c1.635-6.245-8.011-8.892-9.643-2.658
						c-5.71,21.813-11.419,43.626-17.129,65.439C148.504,291.596,158.15,294.242,159.782,288.009L159.782,288.009z"/>
				</g>
			</g>
		</g>
		<g>
			<g>
				<path style="fill:#FFFFFF;" d="M151.482,282.68c-0.234,0.822-0.468,1.645-0.703,2.467c-0.814,2.858,0.964,5.927,3.81,6.709
					c2.885,0.794,5.895-0.951,6.709-3.809c0.234-0.822,0.468-1.645,0.703-2.467c0.814-2.858-0.964-5.927-3.81-6.709
					C155.307,278.077,152.296,279.822,151.482,282.68L151.482,282.68z"/>
			</g>
		</g>
		<g>
			<g>
				<path style="fill:#FFFFFF;" d="M200.78,140.181c-0.211,0.829-0.422,1.658-0.632,2.487c-0.732,2.879,0.902,5.909,3.809,6.709
					c2.822,0.776,5.978-0.929,6.709-3.81c0.211-0.829,0.422-1.658,0.632-2.487c0.732-2.879-0.902-5.909-3.809-6.709
					C204.667,135.595,201.512,137.3,200.78,140.181L200.78,140.181z"/>
			</g>
		</g>
	</g>
</g>
<g id="Ebene_1">
</g>
</svg>
