<?xml version="1.0" encoding="iso-8859-1"?>
<!-- Generator: Adobe Illustrator 24.0.1, SVG Export Plug-In . SVG Version: 6.00 Build 0)  -->
<svg version="1.1" xmlns="http://www.w3.org/2000/svg" xmlns:xlink="http://www.w3.org/1999/xlink" x="0px" y="0px"
	 viewBox="0 0 361 361" style="enable-background:new 0 0 361 361;" xml:space="preserve">
<g id="fts_x5F_sliding_x5F_gate_x5F_closed">
	<g>
		<g>
			<path style="fill:#FFFFFF;" d="M264.331,179.483c0,30.649,0,61.299,0,91.948c0,4.397,0,8.795,0,13.192
				c0,9.664,15.003,9.767,15.003,0.108c0-30.649,0-61.299,0-91.948c0-4.397,0-8.795,0-13.192
				C279.335,169.927,264.331,169.824,264.331,179.483L264.331,179.483z"/>
		</g>
	</g>
	<g>
		<g>
			<path style="fill:#FFFFFF;" d="M273.833,288.844c-1.77,0-3.54,0-5.309,0c-4.817,0-9.634,0-14.45,0c-7.16,0-14.319,0-21.479,0
				c-8.66,0-17.32,0-25.98,0c-9.567,0-19.134,0-28.701,0c-9.616,0-19.232,0-28.848,0c-8.966,0-17.932,0-26.898,0
				c-7.577,0-15.155,0-22.732,0c-5.45,0-10.9,0-16.349,0c-2.58,0-5.171-0.066-7.75,0c-0.111,0.003-0.223,0-0.335,0
				c-1.93,0-1.934,3,0,3c1.77,0,3.54,0,5.309,0c4.817,0,9.634,0,14.45,0c7.16,0,14.319,0,21.479,0c8.66,0,17.32,0,25.98,0
				c9.567,0,19.134,0,28.701,0c9.616,0,19.232,0,28.848,0c8.966,0,17.932,0,26.898,0c7.577,0,15.155,0,22.732,0
				c5.45,0,10.9,0,16.349,0c2.58,0,5.171,0.066,7.75,0c0.111-0.003,0.223,0,0.335,0
				C275.763,291.844,275.767,288.844,273.833,288.844L273.833,288.844z"/>
		</g>
	</g>
	<g>
		<g>
			<g>
				<path style="fill:#FFFFFF;" d="M83.083,192.208c0,25.834,0,51.668,0,77.502c0,3.717,0,7.435,0,11.152c0,6.435,10,6.445,10,0
					c0-25.834,0-51.668,0-77.502c0-3.717,0-7.435,0-11.152C93.083,185.774,83.083,185.763,83.083,192.208L83.083,192.208z"/>
			</g>
		</g>
		<g>
			<g>
				<path style="fill:#FFFFFF;" d="M106.999,192.304c0,25.834,0,51.669,0,77.503c0,3.717,0,7.435,0,11.152c0,6.435,10,6.445,10,0
					c0-25.834,0-51.669,0-77.503c0-3.717,0-7.435,0-11.152C116.999,185.869,106.999,185.859,106.999,192.304L106.999,192.304z"/>
			</g>
		</g>
		<g>
			<g>
				<path style="fill:#FFFFFF;" d="M130.917,192.304c0,25.834,0,51.669,0,77.503c0,3.717,0,7.435,0,11.152c0,6.435,10,6.445,10,0
					c0-25.834,0-51.669,0-77.503c0-3.717,0-7.435,0-11.152C140.917,185.869,130.917,185.859,130.917,192.304L130.917,192.304z"/>
			</g>
		</g>
		<g>
			<g>
				<path style="fill:#FFFFFF;" d="M178.75,192.304c0,25.834,0,51.669,0,77.503c0,3.717,0,7.435,0,11.152c0,6.435,10,6.445,10,0
					c0-25.834,0-51.669,0-77.503c0-3.717,0-7.435,0-11.152C188.75,185.869,178.75,185.859,178.75,192.304L178.75,192.304z"/>
			</g>
		</g>
		<g>
			<g>
				<path style="fill:#FFFFFF;" d="M202.666,192.208c0,25.834,0,51.668,0,77.502c0,3.717,0,7.435,0,11.152c0,6.435,10,6.445,10,0
					c0-25.834,0-51.668,0-77.502c0-3.717,0-7.435,0-11.152C212.666,185.774,202.666,185.763,202.666,192.208L202.666,192.208z"/>
			</g>
		</g>
		<g>
			<g>
				<path style="fill:#FFFFFF;" d="M226.583,192.304c0,25.834,0,51.669,0,77.503c0,3.717,0,7.435,0,11.152c0,6.435,10,6.445,10,0
					c0-25.834,0-51.669,0-77.503c0-3.717,0-7.435,0-11.152C236.583,185.869,226.583,185.859,226.583,192.304L226.583,192.304z"/>
			</g>
		</g>
		<g>
			<g>
				<path style="fill:#FFFFFF;" d="M250.5,192.304c0,25.834,0,51.669,0,77.503c0,3.717,0,7.435,0,11.152c0,6.435,10,6.445,10,0
					c0-25.834,0-51.669,0-77.503c0-3.717,0-7.435,0-11.152C260.5,185.869,250.5,185.859,250.5,192.304L250.5,192.304z"/>
			</g>
		</g>
		<g>
			<g>
				<path style="fill:#FFFFFF;" d="M88.083,285.863c48.991,0,97.982,0,146.973,0c6.815,0,13.629,0,20.444,0c6.435,0,6.445-10,0-10
					c-48.991,0-97.982,0-146.973,0c-6.815,0-13.629,0-20.444,0C81.648,275.863,81.638,285.863,88.083,285.863L88.083,285.863z"/>
			</g>
		</g>
		<g>
			<g>
				<path style="fill:#FFFFFF;" d="M88.083,196.536c48.991,0,97.982,0,146.973,0c6.815,0,13.629,0,20.444,0c6.435,0,6.445-10,0-10
					c-48.991,0-97.982,0-146.973,0c-6.815,0-13.629,0-20.444,0C81.648,186.536,81.638,196.536,88.083,196.536L88.083,196.536z"/>
			</g>
		</g>
		<g>
			<g>
				<path style="fill:#FFFFFF;" d="M154.833,192.304c0,25.834,0,51.669,0,77.503c0,3.717,0,7.435,0,11.152c0,6.435,10,6.445,10,0
					c0-25.834,0-51.669,0-77.503c0-3.717,0-7.435,0-11.152C164.833,185.869,154.833,185.859,154.833,192.304L154.833,192.304z"/>
			</g>
		</g>
	</g>
	<g>
		<g>
			<path style="fill:#FFFFFF;" d="M69.999,191.536c0,27.784,0,55.569,0,83.353c0,4.013,0,8.026,0,12.038c0,6.435,10,6.445,10,0
				c0-27.784,0-55.569,0-83.353c0-4.013,0-8.026,0-12.038C79.999,185.101,69.999,185.09,69.999,191.536L69.999,191.536z"/>
		</g>
	</g>
	<path style="fill:#FFFFFF;" d="M234.061,102.109c0-1.965-1.308-3.573-2.906-3.573h-11.474c-0.607,0-1.17,0.233-1.637,0.628
		c-5.446-10.992-12.761-23.037-19.26-24.586c-17.66-4.211-30.495-4.225-44.136-4.225c-0.091,0-0.181,0-0.271,0
		c-0.089,0-0.18,0-0.269,0c-13.547,0-27.326,0.014-43.7,4.225c-6.463,1.662-13.769,13.672-19.22,24.621
		c-0.474-0.414-1.049-0.663-1.671-0.663H78.042c-1.598,0-2.906,1.608-2.906,3.573c0,0-0.879,3.677,3.035,5.669
		c3.554,1.809,5.839,2.982,7.369,3.716c-0.953,2.243-1.67,4.019-2.108,5.126c-0.215,0.394-0.384,0.811-0.487,1.249l0,0.001h0
		c-0.085,0.36-0.13,0.732-0.13,1.113v24.771v11.891v11.347c0,3.5,2.838,6.338,6.338,6.338h12.147c3.5,0,6.338-2.838,6.338-6.338
		v-5.743h93.918v5.743c0,3.5,2.838,6.338,6.338,6.338h12.147c3.5,0,6.338-2.838,6.338-6.338v-11.347v-11.891v-24.771
		c0-0.381-0.046-0.753-0.131-1.113h0l0-0.001c-0.101-0.428-0.265-0.836-0.473-1.223c-0.434-1.106-1.149-2.895-2.103-5.157
		c1.53-0.734,3.812-1.905,7.357-3.71C234.94,105.787,234.061,102.109,234.061,102.109z M120.074,136.658h-23.65
		c-3.294,0-5.989-2.15-5.989-4.777v-7.027c0-2.627,2.679-5.07,4.163-5.664c2.971-1.189,2.812-2.788,24.12,4.247
		c8.066,2.663,7.344,8.443,7.344,8.443C126.063,134.508,123.368,136.658,120.074,136.658z M181.418,151.64
		c0,2.324-1.901,4.225-4.225,4.225h-45.195c-2.324,0-4.225-1.901-4.225-4.225l-2.535-9.704c0-2.324,1.901-4.225,4.225-4.225h50.266
		c2.324,0,4.225,1.901,4.225,4.225L181.418,151.64z M218.19,131.881c0,2.627-2.695,4.777-5.989,4.777h-23.65
		c-3.294,0-5.989-2.15-5.989-4.777c0,0-0.722-5.78,7.344-8.443c21.309-7.036,21.15-5.436,24.12-4.247
		c1.484,0.594,4.164,3.036,4.164,5.664V131.881z M98.518,101.078c8.996-17.666,13.7-19.328,13.731-19.338
		c15.52-3.992,28.909-3.992,41.858-3.992h0.269h0.271c13.138,0,25.548,0,42.396,4.017c0.046,0.014,4.728,1.654,13.63,19.196
		c1.685,3.32,3.214,6.61,4.501,9.516H94.048C95.328,107.608,96.845,104.363,98.518,101.078z"/>
</g>
<g id="Ebene_1">
</g>
</svg>
