<?xml version="1.0" encoding="iso-8859-1"?>
<!-- Generator: Adobe Illustrator 16.0.0, SVG Export Plug-In . SVG Version: 6.00 Build 0)  -->
<!DOCTYPE svg PUBLIC "-//W3C//DTD SVG 1.1//EN" "http://www.w3.org/Graphics/SVG/1.1/DTD/svg11.dtd">
<svg version="1.1" xmlns="http://www.w3.org/2000/svg" xmlns:xlink="http://www.w3.org/1999/xlink" x="0px" y="0px" width="361px"
	 height="361px" viewBox="0 0 361 361" style="enable-background:new 0 0 361 361;" xml:space="preserve">
<g id="fts_x5F_blade_x5F_arc_x5F_10">
	<g>
		<g>
			<g>
				<path style="fill:#FFFFFF;" d="M113.759,222.327c42.149-23.864,94.099-21.374,133.948,6.06
					c5.327,3.667,10.321-5.004,5.047-8.635c-42.733-29.419-98.977-31.575-144.042-6.06
					C103.102,216.869,108.14,225.509,113.759,222.327L113.759,222.327z"/>
			</g>
		</g>
		<g>
			<g>
				<path style="fill:#FFFFFF;" d="M111.266,212.791c-0.752,0.406-1.504,0.813-2.256,1.221c-2.611,1.413-3.421,4.961-1.957,7.462
					c1.538,2.625,4.847,3.371,7.462,1.956c0.752-0.406,1.504-0.813,2.256-1.221c2.611-1.413,3.421-4.961,1.957-7.462
					C117.19,212.122,113.881,211.376,111.266,212.791L111.266,212.791z"/>
			</g>
		</g>
		<g>
			<g>
				<path style="fill:#FFFFFF;" d="M252.453,219.916c-0.748-0.414-1.496-0.828-2.243-1.242c-2.602-1.441-5.936-0.65-7.462,1.956
					c-1.477,2.52-0.641,6.024,1.956,7.462c0.748,0.414,1.496,0.828,2.243,1.242c2.602,1.441,5.936,0.65,7.462-1.956
					C255.886,224.858,255.05,221.354,252.453,219.916L252.453,219.916z"/>
			</g>
		</g>
	</g>
	<g>
		<g>
			<path style="fill:#FFFFFF;" d="M178.833,71.667c0,5.416,0,10.832,0,16.248c0,1.935,3,1.935,3,0c0-5.416,0-10.832,0-16.248
				C181.833,69.732,178.833,69.732,178.833,71.667L178.833,71.667z"/>
		</g>
	</g>
	<g>
		<g>
			<path style="fill:#FFFFFF;" d="M179,142.989c0,7.612,0,15.225,0,22.837c0,1.935,3,1.935,3,0c0-7.612,0-15.225,0-22.837
				C182,141.055,179,141.055,179,142.989L179,142.989z"/>
		</g>
	</g>
	<g>
		<g>
			<path style="fill:#FFFFFF;" d="M179,217.986c0,23.894,0,47.787,0,71.681c0,1.935,3,1.935,3,0c0-23.894,0-47.787,0-71.681
				C182,216.052,179,216.052,179,217.986L179,217.986z"/>
		</g>
	</g>
	<g>
		<g>
			<g>
				<path style="fill:#FFFFFF;" d="M112.55,142.09c42.149-23.865,94.099-21.375,133.948,6.06c5.327,3.667,10.321-5.004,5.047-8.635
					c-42.733-29.419-98.977-31.576-144.042-6.06C101.893,136.631,106.931,145.271,112.55,142.09L112.55,142.09z"/>
			</g>
		</g>
		<g>
			<g>
				<path style="fill:#FFFFFF;" d="M110.057,132.553c-0.752,0.407-1.504,0.814-2.256,1.221c-2.611,1.413-3.421,4.962-1.957,7.462
					c1.538,2.625,4.847,3.372,7.462,1.957c0.752-0.407,1.504-0.814,2.256-1.221c2.611-1.413,3.421-4.962,1.957-7.462
					C115.981,131.884,112.672,131.138,110.057,132.553L110.057,132.553z"/>
			</g>
		</g>
		<g>
			<g>
				<path style="fill:#FFFFFF;" d="M251.244,139.678c-0.748-0.414-1.496-0.828-2.243-1.242c-2.602-1.44-5.936-0.65-7.462,1.957
					c-1.477,2.52-0.641,6.024,1.956,7.462c0.748,0.414,1.496,0.828,2.243,1.242c2.602,1.44,5.936,0.65,7.462-1.957
					C254.677,144.621,253.841,141.117,251.244,139.678L251.244,139.678z"/>
			</g>
		</g>
	</g>
	<g>
		<g>
			<path style="fill:#FFFFFF;" d="M179,134c0,7.612,0,15.225,0,22.837c0,1.935,3,1.935,3,0c0-7.612,0-15.225,0-22.837
				C182,132.066,179,132.066,179,134L179,134z"/>
		</g>
	</g>
</g>
<g id="Ebene_1">
</g>
</svg>
