<?xml version="1.0" encoding="iso-8859-1"?>
<!-- Generator: Adobe Illustrator 24.0.1, SVG Export Plug-In . SVG Version: 6.00 Build 0)  -->
<svg version="1.1" xmlns="http://www.w3.org/2000/svg" xmlns:xlink="http://www.w3.org/1999/xlink" x="0px" y="0px"
	 viewBox="0 0 361 361" style="enable-background:new 0 0 361 361;" xml:space="preserve">
<g id="fts_x5F_garage_x5F_motorbike">
	<g>
		<g>
			<g>
				<path style="fill:#FFFFFF;" d="M80.833,130.424c0,39.567,0,79.135,0,118.702c0,5.627,0,11.254,0,16.882c0,6.435,10,6.445,10,0
					c0-39.567,0-79.135,0-118.702c0-5.627,0-11.254,0-16.882C90.833,123.989,80.833,123.978,80.833,130.424L80.833,130.424z"/>
			</g>
		</g>
		<g>
			<g>
				<path style="fill:#FFFFFF;" d="M270.833,130.424c0,39.567,0,79.135,0,118.702c0,5.627,0,11.254,0,16.882c0,6.435,10,6.445,10,0
					c0-39.567,0-79.135,0-118.702c0-5.627,0-11.254,0-16.882C280.833,123.989,270.833,123.978,270.833,130.424L270.833,130.424z"/>
			</g>
		</g>
		<path style="fill:none;stroke:#FFFFFF;stroke-width:10;" d="M286.833,117.595c0,3.172-2.572,5.745-5.745,5.745H81.287
			c-3.173,0-5.745-2.573-5.745-5.745v-9.575c0-3.173,2.572-5.745,5.745-5.745h199.801c3.173,0,5.745,2.572,5.745,5.745V117.595z"/>
	</g>
	<g>
		<g>
			<path style="fill:#FFFFFF;" d="M272.459,131.748c-0.154,0.761,0.378,0.193-0.997,0.43c-1.171,0.202-2.558,0-3.745,0
				c-4.737,0-9.475,0-14.212,0c-15.178,0-30.357,0-45.535,0c-33.481,0-66.963,0-100.444,0c-4.584,0-9.169,0-13.753,0
				c-1.25,0-2.502-0.022-3.752,0c-1.421,0.025-0.753-0.096-0.686,0.045c-0.235-0.494-0.002-5.153-0.246-4.865
				c-0.112,0.132-0.297,0.339,0.148,0.153c0.666-0.278,2.062,0,2.775,0c4.054,0,8.108,0,12.162,0c32.662,0,65.324,0,97.986,0
				c15.894,0,31.789,0,47.683,0c5.172,0,10.344,0,15.515,0c1.645,0,5.714-0.787,7.219,0c0.588,0.307-0.481-0.873-0.243,0.215
				c0.33,1.51,0,3.401,0,4.951c0,4.504,7,4.512,7,0c0-5.855,0.008-11.83-7.354-12.167c-3.275-0.15-6.593,0-9.871,0
				c-14.745,0-29.491,0-44.236,0c-36.246,0-72.492,0-108.738,0c-5.061,0-10.123,0-15.184,0c-2.21,0-5.07-0.401-7.216,0.361
				c-7.47,2.652-5.907,17.639,2.163,18.306c2.296,0.19,4.689,0,6.99,0c32.801,0,65.601,0,98.402,0c17.578,0,35.156,0,52.734,0
				c8.434,0,17.134,0.622,25.552,0c3.445-0.255,5.932-2.102,6.632-5.57C280.097,129.21,273.351,127.328,272.459,131.748z"/>
		</g>
	</g>
	<g>
		<g>
			<path style="fill:#FFFFFF;" d="M142.833,260.215c0,3.313-2.686,6-6,6h-4.5c-3.313,0-6-2.687-6-6v-33c0-3.313,2.687-6,6-6h4.5
				c3.314,0,6,2.687,6,6V260.215z"/>
		</g>
		
			<line style="fill:none;stroke:#FFFFFF;stroke-width:3;stroke-linecap:round;stroke-miterlimit:10;" x1="145.961" y1="243.715" x2="145.961" y2="219.779"/>
		
			<line style="fill:none;stroke:#FFFFFF;stroke-width:3;stroke-linecap:round;stroke-miterlimit:10;" x1="123.493" y1="242.439" x2="123.493" y2="219.779"/>
		<path style="fill:none;stroke:#FFFFFF;stroke-width:3;stroke-linecap:round;stroke-miterlimit:10;" d="M138.598,192.325
			c2.981-0.639,11.122-5,11.122-5c1.657,0,3,1.343,3,3l1,5.234c0,1.657-1.343,3-3,3l-12.122,2c-1.657,0-3-1.343-3-3v-1.234
			C135.598,194.668,136.978,192.672,138.598,192.325z"/>
		<path style="fill:none;stroke:#FFFFFF;stroke-width:3;stroke-linecap:round;stroke-miterlimit:10;" d="M130.568,192.325
			c-2.981-0.639-11.122-5-11.122-5c-1.657,0-3,1.343-3,3l-1,5.234c0,1.657,1.343,3,3,3l12.122,2c1.657,0,3-1.343,3-3v-1.234
			C133.568,194.668,132.188,192.672,130.568,192.325z"/>
		
			<line style="fill:none;stroke:#FFFFFF;stroke-width:3;stroke-linecap:round;stroke-miterlimit:10;" x1="105.096" y1="193.259" x2="114.07" y2="194.698"/>
		<path style="fill:none;stroke:#FFFFFF;stroke-width:3;stroke-linecap:round;stroke-miterlimit:10;" d="M151.583,202.47
			c-1.593,4.224-1.527,10.523-6.622,12.36c-5.105,1.841-15.352,1.822-20.468,0c-5.149-1.833-5.274-8.108-6.91-12.36"/>
		
			<line style="fill:none;stroke:#FFFFFF;stroke-width:3;stroke-linecap:round;stroke-miterlimit:10;" x1="164.07" y1="193.259" x2="155.096" y2="194.698"/>
		
			<polygon style="fill:none;stroke:#FFFFFF;stroke-width:3;stroke-linecap:round;stroke-linejoin:round;stroke-miterlimit:10;" points="
			166.073,183.712 165.115,185.962 160.152,187.293 156.307,185.073 160.152,182.852 163.998,180.632 		"/>
		
			<polygon style="fill:none;stroke:#FFFFFF;stroke-width:3;stroke-linecap:round;stroke-linejoin:round;stroke-miterlimit:10;" points="
			103.196,183.712 104.153,185.962 109.116,187.293 112.962,185.073 109.116,182.852 105.27,180.632 		"/>
		
			<line style="fill:none;stroke:#FFFFFF;stroke-width:3;stroke-linecap:round;stroke-miterlimit:10;" x1="127.354" y1="187.268" x2="141.812" y2="187.268"/>
	</g>
	<g>
		<g>
			<path style="fill:#FFFFFF;" d="M234.713,260.215c0,3.313-2.687,6-6,6h-4.5c-3.314,0-6-2.687-6-6v-33c0-3.313,2.686-6,6-6h4.5
				c3.313,0,6,2.687,6,6V260.215z"/>
		</g>
		
			<line style="fill:none;stroke:#FFFFFF;stroke-width:3;stroke-linecap:round;stroke-miterlimit:10;" x1="237.84" y1="243.715" x2="237.84" y2="219.779"/>
		
			<line style="fill:none;stroke:#FFFFFF;stroke-width:3;stroke-linecap:round;stroke-miterlimit:10;" x1="215.372" y1="242.439" x2="215.372" y2="219.779"/>
		<path style="fill:none;stroke:#FFFFFF;stroke-width:3;stroke-linecap:round;stroke-miterlimit:10;" d="M230.477,192.325
			c2.981-0.639,11.122-5,11.122-5c1.657,0,3,1.343,3,3l1,5.234c0,1.657-1.343,3-3,3l-12.122,2c-1.657,0-3-1.343-3-3v-1.234
			C227.477,194.668,228.857,192.672,230.477,192.325z"/>
		<path style="fill:none;stroke:#FFFFFF;stroke-width:3;stroke-linecap:round;stroke-miterlimit:10;" d="M222.448,192.325
			c-2.981-0.639-11.122-5-11.122-5c-1.657,0-3,1.343-3,3l-1,5.234c0,1.657,1.343,3,3,3l12.122,2c1.657,0,3-1.343,3-3v-1.234
			C225.448,194.668,224.068,192.672,222.448,192.325z"/>
		
			<line style="fill:none;stroke:#FFFFFF;stroke-width:3;stroke-linecap:round;stroke-miterlimit:10;" x1="196.975" y1="193.259" x2="205.95" y2="194.698"/>
		<path style="fill:none;stroke:#FFFFFF;stroke-width:3;stroke-linecap:round;stroke-miterlimit:10;" d="M243.463,202.47
			c-1.593,4.224-1.527,10.523-6.622,12.36c-5.105,1.841-15.352,1.822-20.468,0c-5.149-1.833-5.274-8.108-6.91-12.36"/>
		
			<line style="fill:none;stroke:#FFFFFF;stroke-width:3;stroke-linecap:round;stroke-miterlimit:10;" x1="255.95" y1="193.259" x2="246.975" y2="194.698"/>
		
			<polygon style="fill:none;stroke:#FFFFFF;stroke-width:3;stroke-linecap:round;stroke-linejoin:round;stroke-miterlimit:10;" points="
			257.952,183.712 256.995,185.962 252.032,187.293 248.186,185.073 252.032,182.852 255.878,180.632 		"/>
		
			<polygon style="fill:none;stroke:#FFFFFF;stroke-width:3;stroke-linecap:round;stroke-linejoin:round;stroke-miterlimit:10;" points="
			195.075,183.712 196.033,185.962 200.996,187.293 204.841,185.073 200.996,182.852 197.15,180.632 		"/>
		
			<line style="fill:none;stroke:#FFFFFF;stroke-width:3;stroke-linecap:round;stroke-miterlimit:10;" x1="219.234" y1="187.268" x2="233.691" y2="187.268"/>
	</g>
</g>
<g id="Ebene_1">
</g>
</svg>
