<?xml version="1.0" encoding="iso-8859-1"?>
<!-- Generator: Adobe Illustrator 16.0.0, SVG Export Plug-In . SVG Version: 6.00 Build 0)  -->
<!DOCTYPE svg PUBLIC "-//W3C//DTD SVG 1.1//EN" "http://www.w3.org/Graphics/SVG/1.1/DTD/svg11.dtd">
<svg version="1.1" xmlns="http://www.w3.org/2000/svg" xmlns:xlink="http://www.w3.org/1999/xlink" x="0px" y="0px" width="361px"
	 height="361px" viewBox="0 0 361 361" style="enable-background:new 0 0 361 361;" xml:space="preserve">
<g id="fts_x5F_door_x5F_unlocked">
	<path style="fill:none;stroke:#FFFFFF;stroke-width:10;stroke-miterlimit:10;" d="M232.836,280.912
		c0,3.406-2.713,6.168-6.059,6.168h-92.89c-3.346,0-6.058-2.762-6.058-6.168V80.816c0-3.406,2.712-6.167,6.058-6.167h92.89
		c3.346,0,6.059,2.761,6.059,6.167V280.912z"/>
	<path style="fill:none;stroke:#FFFFFF;stroke-width:10;stroke-miterlimit:10;" d="M231.163,280c0-3.313-2.687-6-6-6H133.83
		c-3.313,0-6,2.687-6,6v0.667c0,3.313,2.687,6,6,6h91.333c3.313,0,6-2.687,6-6V280z"/>
	<g>
		<g>
			<path style="fill:#FFFFFF;" d="M127.83,185.667c3.861,0,7.723,0,11.584,0c6.449,0,6.449-10,0-10c-3.861,0-7.723,0-11.584,0
				C121.381,175.667,121.381,185.667,127.83,185.667L127.83,185.667z"/>
		</g>
	</g>
	<g>
		<g>
			<g>
				<path style="fill:#FFFFFF;" d="M158.837,183.58c-0.14,0.484-1.605,0.325-0.063,0.325c0.84,0,1.68,0,2.52,0
					c3.167,0,6.333,0,9.499,0c7.917,0,15.834,0,23.751,0c2.875,0,5.749,0,8.624,0c0.84,0,1.68,0,2.52,0
					c1.737,0-0.188-0.016-0.188-1.127c0,5.568,0,11.136,0,16.704c0,6.942,0,13.884,0,20.826c0,0.599,0,1.196,0,1.795
					c0-0.755,1.869-1.127,0.459-1.127c-2.203,0-4.406,0-6.609,0c-13.525,0-27.05,0-40.575,0c-1.76,0,0.188,0.84,0.188,0.969
					c0-1.072,0-2.145,0-3.217c0-4.442,0-8.886,0-13.329c0-7.583,0-15.167,0-22.75c0-4.514-7-4.514-7,0c0,12.217,0,24.434,0,36.651
					c0,4.629,1.24,8.676,6.813,8.676c5.86,0,11.721,0,17.582,0c7.665,0,15.329,0,22.994,0c3.784,0,11.276,1.221,12.697-3.681
					c1.34-4.626,0.453-10.308,0.453-15.054c0-7.492,0-14.984,0-22.477c0-4.524-0.189-9.86-6.315-9.86c-5.707,0-11.414,0-17.121,0
					c-7.984,0-15.967,0-23.951,0c-4.912,0-11.284-1.196-13.025,4.813C150.828,186.064,157.583,187.907,158.837,183.58z"/>
			</g>
		</g>
		<g>
			<g>
				<path style="fill:#FFFFFF;" d="M156.117,217.92c9.023,0,18.046,0,27.07,0c4.514,0,4.514-7,0-7c-9.023,0-18.046,0-27.07,0
					C151.603,210.92,151.603,217.92,156.117,217.92L156.117,217.92z"/>
			</g>
		</g>
		<g>
			<g>
				<path style="fill:#FFFFFF;" d="M157.386,207.075c8.6,0,17.201,0,25.801,0c4.514,0,4.514-7,0-7c-8.6,0-17.201,0-25.801,0
					C152.872,200.075,152.872,207.075,157.386,207.075L157.386,207.075z"/>
			</g>
		</g>
		<g>
			<g>
				<path style="fill:#FFFFFF;" d="M157.386,196.23c8.6,0,17.201,0,25.801,0c4.514,0,4.514-7,0-7c-8.6,0-17.201,0-25.801,0
					C152.872,189.23,152.872,196.23,157.386,196.23L157.386,196.23z"/>
			</g>
		</g>
		<g>
			<g>
				<path style="fill:#FFFFFF;" d="M177.327,155.513c1.945-1.945,3.889-3.89,5.834-5.834c0.973-0.972,1.944-1.945,2.917-2.917
					c0.569-0.569-0.287,0.337-0.536,0.416c0.831-0.265,1.717-0.396,2.572-0.551c1.824-0.331,3.704-0.425,5.555-0.442
					c1.95-0.018-2.724-2.365-0.573-0.215c2.294,2.294,4.589,4.589,6.884,6.884c2.294,2.294,4.589,4.589,6.883,6.884
					c2.175,2.174-0.286-2.576-0.215-0.573c0.066,1.843-0.158,3.738-0.441,5.555c-0.136,0.868-0.334,1.721-0.552,2.572
					c0.062-0.24,0.99-1.11,0.416-0.536c-0.972,0.972-1.944,1.945-2.916,2.917c-1.945,1.945-3.89,3.89-5.834,5.834
					c-4.563,4.564,2.507,11.635,7.07,7.071c2.532-2.532,5.064-5.064,7.597-7.597c2.891-2.891,3.658-5.901,4.196-9.935
					c0.487-3.65,1.418-8.711-1.493-11.622c-2.547-2.547-5.094-5.094-7.641-7.641s-5.093-5.094-7.64-7.641
					c-2.911-2.911-7.973-1.979-11.623-1.492c-4.033,0.538-7.043,1.305-9.935,4.196c-2.532,2.532-5.065,5.064-7.597,7.597
					C165.692,153.005,172.763,160.077,177.327,155.513L177.327,155.513z"/>
			</g>
		</g>
	</g>
	<g style="display:none;">
		<g style="display:inline;">
			<g>
				<path style="fill:#FFFFFF;" d="M158.837,183.579c-0.141,0.485-1.605,0.326-0.063,0.326c0.84,0,1.68,0,2.52,0
					c3.167,0,6.333,0,9.499,0c7.917,0,15.834,0,23.751,0c2.875,0,5.749,0,8.624,0c0.84,0,1.68,0,2.52,0
					c1.737,0-0.188-0.016-0.188-1.128c0,5.568,0,11.136,0,16.704c0,6.942,0,13.885,0,20.827c0,0.599,0,1.196,0,1.795
					c0-0.755,1.869-1.127,0.459-1.127c-2.203,0-4.406,0-6.609,0c-13.525,0-27.05,0-40.575,0c-1.76,0,0.188,0.84,0.188,0.969
					c0-1.072,0-2.145,0-3.217c0-4.442,0-8.886,0-13.329c0-7.584,0-15.167,0-22.751c0-4.514-7-4.514-7,0c0,12.217,0,24.435,0,36.651
					c0,4.63,1.24,8.677,6.813,8.677c5.86,0,11.721,0,17.582,0c7.665,0,15.329,0,22.994,0c3.784,0,11.276,1.221,12.697-3.681
					c1.34-4.626,0.453-10.308,0.453-15.054c0-7.492,0-14.984,0-22.477c0-4.525-0.19-9.86-6.315-9.86c-5.707,0-11.414,0-17.121,0
					c-7.984,0-15.967,0-23.951,0c-4.912,0-11.283-1.196-13.025,4.813C150.827,186.063,157.583,187.905,158.837,183.579z"/>
			</g>
		</g>
		<g style="display:inline;">
			<g>
				<path style="fill:#FFFFFF;" d="M156.117,217.92c9.023,0,18.046,0,27.07,0c4.514,0,4.514-7,0-7c-9.023,0-18.046,0-27.07,0
					C151.603,210.92,151.603,217.92,156.117,217.92L156.117,217.92z"/>
			</g>
		</g>
		<g style="display:inline;">
			<g>
				<path style="fill:#FFFFFF;" d="M157.386,207.075c8.6,0,17.201,0,25.801,0c4.514,0,4.514-7,0-7c-8.6,0-17.201,0-25.801,0
					C152.872,200.075,152.872,207.075,157.386,207.075L157.386,207.075z"/>
			</g>
		</g>
		<g style="display:inline;">
			<g>
				<path style="fill:#FFFFFF;" d="M157.386,196.23c8.6,0,17.201,0,25.801,0c4.514,0,4.514-7,0-7c-8.6,0-17.201,0-25.801,0
					C152.872,189.23,152.872,196.23,157.386,196.23L157.386,196.23z"/>
			</g>
		</g>
		<g style="display:inline;">
			<g>
				<path style="fill:#FFFFFF;" d="M167.682,178.463c0-2.75,0-5.501,0-8.251c0-1.375,0-2.75,0-4.125
					c0-0.812,0.027,0.449-0.117,0.728c0.4-0.775,0.934-1.494,1.429-2.208c1.069-1.544,2.333-2.958,3.647-4.295
					c1.367-1.392-3.599,0.254-0.558,0.254c3.245,0,6.49,0,9.735,0c3.246,0,6.491,0,9.736,0c3.074,0-2.024-1.619-0.558-0.254
					c1.367,1.273,2.548,2.791,3.646,4.295c0.519,0.709,0.981,1.453,1.43,2.208c-0.155-0.261-0.117-1.545-0.117-0.728
					c0,1.375,0,2.75,0,4.125c0,2.75,0,5.501,0,8.251c0,6.448,10,6.448,10,0c0-3.581,0-7.163,0-10.744
					c0-3.993-1.492-6.647-3.911-9.811c-2.267-2.966-5.234-7.344-9.42-7.344c-3.603,0-7.204,0-10.807,0c-3.602,0-7.204,0-10.806,0
					c-4.185,0-7.152,4.378-9.42,7.344c-2.418,3.163-3.911,5.818-3.911,9.811c0,3.581,0,7.163,0,10.744
					C157.682,184.911,167.682,184.911,167.682,178.463L167.682,178.463z"/>
			</g>
		</g>
	</g>
</g>
<g id="Ebene_1">
</g>
</svg>
