<?xml version="1.0" encoding="iso-8859-1"?>
<!-- Generator: Adobe Illustrator 16.0.0, SVG Export Plug-In . SVG Version: 6.00 Build 0)  -->
<!DOCTYPE svg PUBLIC "-//W3C//DTD SVG 1.1//EN" "http://www.w3.org/Graphics/SVG/1.1/DTD/svg11.dtd">
<svg version="1.1" xmlns="http://www.w3.org/2000/svg" xmlns:xlink="http://www.w3.org/1999/xlink" x="0px" y="0px" width="361px"
	 height="361px" viewBox="0 0 361 361" style="enable-background:new 0 0 361 361;" xml:space="preserve">
<g id="fts_x5F_shutter_x5F_vert_x5F_down">
	<path style="fill:none;stroke:#FFFFFF;stroke-width:10;stroke-miterlimit:10;" d="M220.978,233.758
		c-1.464,0-2.651-0.37-2.651-0.826v-14.346c0-0.457,1.188-0.828,2.651-0.828h51.698c1.464,0,2.65,0.371,2.65,0.828v14.346
		c0,0.456-1.187,0.826-2.65,0.826H220.978z"/>
	<g>
		<g>
			<path style="fill:#FFFFFF;" d="M282.291,231.59c-13.375,17.5-26.751,35-40.126,52.5c2.878,0,5.757,0,8.635,0
				c-13.375-17.5-26.75-35-40.125-52.5c-1.439,2.508-2.878,5.016-4.317,7.523c26.75,0,53.501,0,80.251,0c6.448,0,6.448-10,0-10
				c-26.75,0-53.501,0-80.251,0c-3.436,0-6.707,4.396-4.317,7.523c13.375,17.5,26.75,35,40.125,52.5
				c2.429,3.178,6.206,3.178,8.635,0c13.375-17.5,26.751-35,40.126-52.5C294.844,231.512,286.15,226.54,282.291,231.59z"/>
		</g>
	</g>
	<g id="Fenster_m_Rahmen_26_">
		<path id="Rahmen_26_" style="fill:none;stroke:#FFFFFF;stroke-width:10;stroke-miterlimit:10;" d="M238.147,187.992
			c0,2.906-2.355,5.261-5.261,5.261H85.562c-2.906,0-5.261-2.354-5.261-5.261V93.284c0-2.906,2.355-5.262,5.261-5.262h147.325
			c2.905,0,5.261,2.356,5.261,5.262V187.992z"/>
		<g id="Hebel_27_">
			<g>
				<path style="fill:#FFFFFF;" d="M154.796,145.514c3.137,0,6.274,0,9.412,0c6.449,0,6.449-10,0-10c-3.137,0-6.274,0-9.412,0
					C148.347,135.514,148.347,145.514,154.796,145.514L154.796,145.514z"/>
			</g>
		</g>
		
			<line id="Mittelsteg_26_" style="fill:none;stroke:#FFFFFF;stroke-width:10;stroke-miterlimit:10;" x1="159.399" y1="88.27" x2="159.399" y2="190.646"/>
		<path id="Sturz_26_" style="fill:#FFFFFF;stroke:#FFFFFF;stroke-width:10;stroke-miterlimit:10;" d="M243.861,89.121
			c0,0.406-2.522,0.736-5.634,0.736H80.486c-3.111,0-5.633-0.33-5.633-0.736V75.893c0-0.405,2.522-0.735,5.633-0.735h157.742
			c3.111,0,5.634,0.33,5.634,0.735V89.121z"/>
	</g>
	<g id="_x31_0_35_">
		<g>
			<path style="fill:#FFFFFF;" d="M96.941,193.292c0-35.875,0.001-71.75,0.001-107.625c0-4.514-7-4.514-7,0
				c0,35.875-0.001,71.75-0.001,107.625C89.941,197.806,96.941,197.806,96.941,193.292L96.941,193.292z"/>
		</g>
	</g>
	<g id="_x32_0_33_">
		<g>
			<path style="fill:#FFFFFF;" d="M111.597,193.292c0.001-35.875,0.001-71.75,0.002-107.625c0-4.514-7-4.514-7,0
				c-0.001,35.875-0.001,71.75-0.002,107.625C104.597,197.806,111.597,197.806,111.597,193.292L111.597,193.292z"/>
		</g>
	</g>
</g>
<g id="Ebene_1">
</g>
</svg>
