<?xml version="1.0" encoding="iso-8859-1"?>
<!-- Generator: Adobe Illustrator 16.0.0, SVG Export Plug-In . SVG Version: 6.00 Build 0)  -->
<!DOCTYPE svg PUBLIC "-//W3C//DTD SVG 1.1 Tiny//EN" "http://www.w3.org/Graphics/SVG/1.1/DTD/svg11-tiny.dtd">
<svg version="1.1" baseProfile="tiny" id="fts_x5F_garage_x5F_door_x5F_50"
	 xmlns="http://www.w3.org/2000/svg" xmlns:xlink="http://www.w3.org/1999/xlink" x="0px" y="0px" width="361px" height="361px"
	 viewBox="0 0 361 361" xml:space="preserve">
<g display="none">
	<g display="inline">
		<path fill="#FFFFFF" d="M136.315,263.045c0,3.313-2.687,6-6,6h-11.5c-3.313,0-6-2.687-6-6v-11c0-3.313,2.687-6,6-6h11.5
			c3.313,0,6,2.687,6,6V263.045z"/>
		<path fill="#FFFFFF" d="M244.315,263.045c0,3.313-2.687,6-6,6h-11.5c-3.313,0-6-2.687-6-6v-11c0-3.313,2.687-6,6-6h11.5
			c3.313,0,6,2.687,6,6V263.045z"/>
		<path fill="#FFFFFF" d="M230.391,218.028h-104.26c-5.985,0-10.674-6.011-10.674-13.684v-0.63l4.752-18.546
			c0.463-7.055,7.605-12.961,13.487-12.961h89.128c5.882,0,13.024,5.906,13.488,12.961l4.752,18.546v0.63
			C241.065,212.018,236.376,218.028,230.391,218.028z M126.51,208.028h103.503c0.34-0.376,0.925-1.436,1.034-3.123l-4.71-18.383
			v-0.63c0-1.572-2.494-3.546-3.594-3.688l-89.045,0.003c-1.018,0.139-3.511,2.113-3.511,3.684v0.63l-4.71,18.383
			C125.585,206.593,126.17,207.652,126.51,208.028z"/>
		<path fill="#FFFFFF" d="M248.648,245.74c0,2.929-2.779,5.305-6.206,5.305H114.187c-3.427,0-6.206-2.376-6.206-5.305V218.03
			c0-2.93,2.779-5.306,6.206-5.306h128.256c3.427,0,6.206,2.376,6.206,5.306V245.74z M141.065,224.283c0-2.596-2.687-4.702-6-4.702
			h-17.25c-3.313,0-6,2.105-6,4.702v4.897c0,2.597,2.687,4.701,6,4.701h17.25c3.313,0,6-2.104,6-4.701V224.283z M244.565,224.283
			c0-2.596-2.687-4.702-6-4.702h-17.25c-3.313,0-6,2.105-6,4.702v4.897c0,2.597,2.687,4.701,6,4.701h17.25c3.313,0,6-2.104,6-4.701
			V224.283z M204.315,228.438c0-5.049-2.687-9.143-6-9.143h-40.5c-3.313,0-6,4.094-6,9.143v5.714c0,5.049,2.687,9.143,6,9.143h40.5
			c3.313,0,6-4.094,6-9.143V228.438z"/>
	</g>
	<rect x="145.065" y="222.045" display="inline" fill="#FFFFFF" width="66" height="10"/>
	<rect x="146.065" y="235.045" display="inline" fill="#FFFFFF" width="66" height="10"/>
</g>
<g>
	<g>
		<path fill="#FFFFFF" d="M78.315,133.295c0,45.143,0,90.286,0,135.429c0,0.051,0,0.103,0,0.154c0,6.449,10,6.449,10,0
			c0-45.143,0-90.286,0-135.429c0-0.051,0-0.103,0-0.154C88.315,126.846,78.315,126.846,78.315,133.295L78.315,133.295z"/>
	</g>
	<g>
		<path fill="#FFFFFF" d="M268.315,133.295c0,45.143,0,90.286,0,135.429c0,0.051,0,0.103,0,0.154c0,6.449,10,6.449,10,0
			c0-45.143,0-90.286,0-135.429c0-0.051,0-0.103,0-0.154C278.315,126.846,268.315,126.846,268.315,133.295L268.315,133.295z"/>
	</g>
	<path fill="none" stroke="#FFFFFF" stroke-width="10" d="M284.315,120.466c0,3.172-2.572,5.745-5.745,5.745H78.769
		c-3.173,0-5.745-2.573-5.745-5.745v-9.575c0-3.173,2.572-5.745,5.745-5.745H278.57c3.173,0,5.745,2.572,5.745,5.745V120.466z"/>
</g>
<g>
	<path fill="#FFFFFF" d="M269.94,148.614c-0.331,1.659,0.979,1.431-0.638,1.431c-1.081,0-2.162,0-3.242,0c-3.891,0-7.782,0-11.673,0
		c-13.011,0-26.021,0-39.032,0c-31.623,0-63.245,0-94.868,0c-9.86,0-19.72,0-29.581,0c-1.528,0-3.056,0-4.583,0
		c0.961,0,0.493-8.058,0.493-9.021c0,1.101-2.788,1.354-0.385,1.354c0.246,0,0.493,0,0.739,0c21.497,0,42.994,0,64.491,0
		c28.161,0,56.322,0,84.484,0c9.243,0,18.486,0,27.729,0c1.956,0,3.912,0,5.868,0c0.153,0,0.306,0,0.459,0
		c2.402,0-0.385-0.253-0.385-1.354c0,2.84,0,5.68,0,8.521c0,4.514,7,4.514,7,0c0-6.1,1.498-14.167-6.529-14.167
		c-1.636,0-3.273,0-4.909,0c-10.012,0-20.023,0-30.035,0c-31.663,0-63.326,0-94.989,0c-18.335,0-37.028-0.342-55.206-0.342
		c-3.878,0-5.333,3.766-5.333,7.014c0,2.901-0.889,7.795,0.713,10.445c2.053,3.393,4.457,4.55,8.032,4.55c8.586,0,17.172,0,25.758,0
		c51.848,0,103.695,0,155.542,0c3.443,0,6.207-3.441,6.83-6.569C277.569,146.067,270.822,144.189,269.94,148.614z"/>
</g>
<g>
	<path fill="#FFFFFF" d="M269.94,163.034c-0.331,1.659,0.979,1.431-0.638,1.431c-1.081,0-2.162,0-3.242,0c-3.891,0-7.782,0-11.673,0
		c-13.011,0-26.021,0-39.032,0c-31.623,0-63.245,0-94.868,0c-9.86,0-19.72,0-29.581,0c-1.528,0-3.056,0-4.583,0
		c0.961,0,0.493-8.058,0.493-9.021c0,1.101-2.788,1.354-0.385,1.354c0.246,0,0.493,0,0.739,0c21.497,0,42.994,0,64.491,0
		c28.161,0,56.322,0,84.484,0c9.243,0,18.486,0,27.729,0c1.956,0,3.912,0,5.868,0c0.153,0,0.306,0,0.459,0
		c2.402,0-0.385-0.253-0.385-1.354c0,2.84,0,5.68,0,8.521c0,4.514,7,4.514,7,0c0-6.1,1.498-14.167-6.529-14.167
		c-1.636,0-3.273,0-4.909,0c-10.012,0-20.023,0-30.035,0c-31.663,0-63.326,0-94.989,0c-18.335,0-37.028-0.342-55.206-0.342
		c-3.878,0-5.333,3.766-5.333,7.014c0,2.901-0.889,7.795,0.713,10.445c2.053,3.393,4.457,4.55,8.032,4.55c8.586,0,17.172,0,25.758,0
		c51.848,0,103.695,0,155.542,0c3.443,0,6.207-3.441,6.83-6.569C277.569,160.487,270.822,158.609,269.94,163.034z"/>
</g>
<g>
	<path fill="#FFFFFF" d="M269.94,177.7c-0.331,1.659,0.979,1.431-0.638,1.431c-1.081,0-2.162,0-3.242,0c-3.891,0-7.782,0-11.673,0
		c-13.011,0-26.021,0-39.032,0c-31.623,0-63.245,0-94.868,0c-9.86,0-19.72,0-29.581,0c-1.528,0-3.056,0-4.583,0
		c0.961,0,0.493-8.058,0.493-9.021c0,1.101-2.788,1.354-0.385,1.354c0.246,0,0.493,0,0.739,0c21.497,0,42.994,0,64.491,0
		c28.161,0,56.322,0,84.484,0c9.243,0,18.486,0,27.729,0c1.956,0,3.912,0,5.868,0c0.153,0,0.306,0,0.459,0
		c2.402,0-0.385-0.253-0.385-1.354c0,2.84,0,5.68,0,8.521c0,4.514,7,4.514,7,0c0-6.1,1.498-14.167-6.529-14.167
		c-1.636,0-3.273,0-4.909,0c-10.012,0-20.023,0-30.035,0c-31.663,0-63.326,0-94.989,0c-18.335,0-37.028-0.342-55.206-0.342
		c-3.878,0-5.333,3.766-5.333,7.014c0,2.901-0.889,7.795,0.713,10.445c2.053,3.393,4.457,4.55,8.032,4.55c8.586,0,17.172,0,25.758,0
		c51.848,0,103.695,0,155.542,0c3.443,0,6.207-3.441,6.83-6.569C277.569,175.153,270.822,173.275,269.94,177.7z"/>
</g>
<g>
	<path fill="#FFFFFF" d="M269.94,192.285c-0.331,1.659,0.979,1.431-0.638,1.431c-1.081,0-2.162,0-3.242,0c-3.891,0-7.782,0-11.673,0
		c-13.011,0-26.021,0-39.032,0c-31.623,0-63.245,0-94.868,0c-9.86,0-19.72,0-29.581,0c-1.528,0-3.056,0-4.583,0
		c0.962,0,0.493-7.787,0.493-8.687c0-0.75-2.847,1.02-0.435,1.02c0.214,0,0.428,0,0.642,0c21.226,0,42.452,0,63.677,0
		c28.481,0,56.963,0,85.444,0c9.243,0,18.486,0,27.729,0c1.996,0,3.992,0,5.988,0c0.13,0,0.26,0,0.39,0
		c2.412,0-0.435-1.77-0.435-1.02c0,2.729,0,5.458,0,8.187c0,4.514,7,4.514,7,0c0-6.063,1.501-14.167-6.507-14.167
		c-1.528,0-3.056,0-4.583,0c-9.86,0-19.721,0-29.581,0c-31.623,0-63.246,0-94.868,0c-13.011,0-26.021,0-39.032,0
		c-4.852,0-11.54,1.139-16.166-0.217c-7.404-2.171-6.933,11.325-6.138,15.315c0.833,4.18,4.159,6.569,8.158,6.569
		c8.25,0,16.5,0,24.75,0c52.253,0,104.506,0,156.76,0c3.565,0,6.419-3.245,7.082-6.569
		C277.569,189.738,270.822,187.86,269.94,192.285z"/>
</g>
<g>
	<path fill="#FFFFFF" d="M83.315,142.378c49.793,0,99.586,0,149.379,0c13.54,0,27.081,0,40.621,0c4.514,0,4.514-7,0-7
		c-49.793,0-99.586,0-149.379,0c-13.54,0-27.081,0-40.621,0C78.801,135.378,78.801,142.378,83.315,142.378L83.315,142.378z"/>
</g>
<g>
	<path fill="#FFFFFF" d="M235.69,162.131c3.583,0,7.167,0,10.75,0c1.935,0,1.935-3,0-3c-3.583,0-7.167,0-10.75,0
		C233.755,159.131,233.755,162.131,235.69,162.131L235.69,162.131z"/>
</g>
<g>
	<path fill="#FFFFFF" d="M248.69,164.034c-0.122,0.605,0.261,0.431-1.003,0.431c-1.164,0-2.329,0-3.493,0c-3.464,0-6.927,0-10.391,0
		c-1.267,0-2.534,0-3.8,0c-1.433,0-1.438-0.24-1.438,0.354c0-2.792,0-5.583,0-8.375c0,0.547-0.461,0.354,0.878,0.354
		c1.454,0,2.907,0,4.36,0c3.464,0,6.927,0,10.391,0c1.164,0,2.329,0,3.493,0c0.381,0,0.761,0,1.142,0
		c0.268,0-0.264-0.816-0.264,0.052c0,2.705,0,5.41,0,8.114c0,4.514,7,4.514,7,0c0-3.056,1.122-8.878-0.714-11.601
		c-2.525-3.745-5.826-3.566-9.835-3.566c-4.792,0-9.584,0-14.376,0c-4.146,0-7.991,0.818-8.95,5.569
		c-0.712,3.527-0.476,8.17,0.236,11.695c0.888,4.398,5.984,4.402,9.42,4.402c4.813,0,9.625,0,14.438,0
		c4.333,0,8.618-0.428,9.656-5.569C256.33,161.488,249.583,159.611,248.69,164.034z"/>
</g>
</svg>
