<?xml version="1.0" encoding="iso-8859-1"?>
<!-- Generator: Adobe Illustrator 16.0.3, SVG Export Plug-In . SVG Version: 6.00 Build 0)  -->
<!DOCTYPE svg PUBLIC "-//W3C//DTD SVG 1.1//EN" "http://www.w3.org/Graphics/SVG/1.1/DTD/svg11.dtd">
<svg version="1.1" xmlns="http://www.w3.org/2000/svg" xmlns:xlink="http://www.w3.org/1999/xlink" x="0px" y="0px" width="361px"
	 height="361px" viewBox="0 0 361 361" style="enable-background:new 0 0 361 361;" xml:space="preserve">
<g id="info_x5F_catastrophe">
	<g>
		<g>
			<path style="fill:#FFFFFF;" d="M281.925,249.004c-0.342,18.986-15.55,33.18-34.32,33.18c-9.337,0-18.675,0-28.013,0
				c-30.347,0-60.694,0-91.042,0c-8.184,0-17.058,0.82-25.016-1.369c-15.888-4.37-23.714-19.333-23.714-34.795
				c0-26.909,0-53.819,0-80.729c0-13.615,0-27.229,0-40.844c0-10.273-0.431-19.791,5.211-29.055
				c5.893-9.674,16.849-15.114,27.968-15.314c1.871-0.034,3.746,0,5.616,0c11.979,0,23.958,0,35.937,0c28.915,0,57.83,0,86.744,0
				c2.433,0,4.864,0,7.296,0c9.681,0,18.399,4.112,24.961,11.134c8.247,8.827,8.372,19.867,8.372,31.017
				C281.925,164.487,281.925,206.745,281.925,249.004c0,6.448,10,6.448,10,0c0-45.198,0-90.396,0-135.594
				c0-21.053-15.566-39.372-36.331-42.758c-7.709-1.257-15.98-0.575-23.75-0.575c-30.449,0-60.899,0-91.349,0
				c-8.909,0-17.818,0-26.727,0c-19.12,0-35.489,11.814-41.823,29.782c-2.978,8.448-2.125,18.167-2.125,27.007
				c0,14.114,0,28.228,0,42.341c0,25.989,0,51.978,0,77.967c0,17.023,8.354,32.409,23.696,40.363
				c9.574,4.963,19.733,4.646,30.099,4.646c29.683,0,59.365,0,89.047,0c10.924,0,21.847,0,32.771,0
				c15.513,0,28.886-5.525,38.442-18.108c5.408-7.121,7.891-16.237,8.05-25.071C292.041,242.552,282.041,242.563,281.925,249.004z"
				/>
		</g>
	</g>
	<g style="display:none;">
		<g style="display:inline;">
			<g>
				<path style="fill:#FFFFFF;" d="M167.933,99.449c32.198,24.419,64.395,48.839,96.592,73.258c0.841-3.106,1.683-6.211,2.523-9.317
					c-32.124,0-64.248,0-96.372,0c-6.449,0-6.449,10,0,10c32.124,0,64.248,0,96.372,0c5.402,0,6.252-6.489,2.523-9.317
					c-32.197-24.419-64.395-48.839-96.592-73.258C167.838,86.915,162.866,95.605,167.933,99.449L167.933,99.449z"/>
			</g>
		</g>
		<g style="display:inline;">
			<polygon style="fill:#FFFFFF;" points="266.874,168.39 170.758,95.132 74.641,168.39 			"/>
			<g>
				<path style="fill:#FFFFFF;" d="M269.397,164.072c-32.038-24.419-64.077-48.838-96.116-73.258c-1.253-0.956-3.793-0.956-5.047,0
					c-32.039,24.419-64.078,48.838-96.117,73.258c-3.717,2.833-2.888,9.317,2.523,9.317c49.589,0,99.179,0,148.768,0
					c14.488,0,28.977,0,43.465,0c6.448,0,6.448-10,0-10c-49.59,0-99.179,0-148.769,0c-14.488,0-28.976,0-43.464,0
					c0.841,3.106,1.683,6.211,2.523,9.317c32.039-24.419,64.078-48.838,96.117-73.258c-1.682,0-3.365,0-5.047,0
					c32.039,24.419,64.077,48.838,96.116,73.258C269.481,176.618,274.454,167.926,269.397,164.072z"/>
			</g>
		</g>
		<g style="display:inline;">
			<g>
				<path style="fill:#FFFFFF;" d="M245.224,281.346c-0.004,0.027,2.145,0.071-0.01,0.071c-1.281,0-2.563,0-3.846,0
					c-4.527,0-9.056,0-13.583,0c-14.386,0-28.772,0-43.158,0c-27.751,0-55.502,0-83.253,0c-2.069,0-4.139,0-6.208,0
					c1.469,0,1.304,2.244,1.304,0.103c0-1.541,0-3.082,0-4.623c0-13.185,0-26.368,0-39.553c0-15.601,0-31.201,0-46.803
					c0-4.931,0-9.861,0-14.792c0-1.064,0-2.129,0-3.194c0-1.184-2.304,0.835-0.836,0.835c49.168,0,98.336,0,147.505,0
					c0.866,0,1.733,0,2.601,0c1.634,0-0.694-0.902-0.694-1.069c0,2.544,0,5.088,0,7.632c0,12.503,0,25.006,0,37.509
					c0,21.737,0,43.475,0,65.212c0,6.448,10,6.448,10,0c0-24.005,0-48.01,0-72.015c0-11.882,0-23.764,0-35.646
					c0-4.378-0.738-10.353-6.145-11.255c-2.313-0.386-4.444-0.37-6.782-0.37c-48.938,0-97.877,0-146.815,0
					c-10.97,0-8.833,13.557-8.833,20.754c0,14.752,0,29.505,0,44.258c0,14.511,0,29.021,0,43.532c0,7.242-1.794,19.482,9.037,19.482
					c49.102,0,98.204,0,147.306,0c5.343,0,11.029-0.842,12.054-7.413C255.85,277.697,246.215,274.989,245.224,281.346z"/>
			</g>
		</g>
		
			<rect id="Haus_x5F_Block_3_" x="103.513" y="179.441" style="display:inline;fill:#FFFFFF;stroke:#FFFFFF;stroke-width:7;stroke-linejoin:round;stroke-miterlimit:10;" width="134.665" height="95.624"/>
	</g>
	<polygon style="display:none;" points="-25.533,298.66 -123.709,288.832 -130.833,263.334 -118.722,239.012 -127.833,225.334 
		-115.048,202.313 -118.979,187.739 -112.715,179.013 -96.833,153.334 -103.833,131.334 -112.5,126 -106.144,113.37 
		-100.134,53.342 -1.958,63.17 	"/>
	<g>
		<g>
			<path style="fill:#FFFFFF;" d="M181.97,240.412c-18.051,1.256-36.102,2.512-54.153,3.768c-1.151,0.08-2.301,0.16-3.451,0.24
				c-0.074-1.061-0.148-2.121-0.221-3.182c-0.646-9.277-1.291-18.555-1.936-27.832c-0.764-10.978-1.527-21.955-2.291-32.933
				c-0.241-3.47-0.483-6.939-0.724-10.41c-0.039-0.553-0.077-1.105-0.116-1.66c25.258-1.757,50.516-3.514,75.774-5.271l3.756-7.137
				l-6.003-15.138l-6.36-3.329l3.855-9.199l0.236-7.816c-7.083-4.658-14.166-9.318-21.25-13.977
				c-0.239-0.158-0.537-0.265-0.859-0.327c-1.532-0.628-2.878,0.13-3.609,1.378c-21.044,18.483-42.088,36.966-63.133,55.45
				c-2.477,2.175-1.576,6.698,2.232,6.433c2.77-0.193,5.54-0.386,8.31-0.579c-0.059,2.645,0.394,5.478,0.54,7.567
				c0.722,10.38,1.444,20.761,2.166,31.142c0.71,10.211,1.42,20.422,2.131,30.633c0.354,5.096-0.308,13.797,7.313,13.268
				c20.082-1.397,40.165-2.795,60.248-4.191L181.97,240.412z"/>
			<path style="fill:#FFFFFF;" d="M180.116,235.033l7.332-17.709l-7.082-9.178l7.87-16.826l-3.479-10.063l3.98-6.447l5.162-9.809
				l-69.741,4.852c-1.36,0.094-2.386,1.274-2.292,2.633l4.681,67.289c0.094,1.36,1.274,2.386,2.634,2.291l52.146-3.627
				L180.116,235.033z"/>
		</g>
		<g>
			<path style="fill:#FFFFFF;" d="M262.591,168.97c-0.106-0.291-0.253-0.566-0.438-0.818c-0.132-0.189-0.277-0.373-0.446-0.543
				c-7.407-7.44-14.813-14.881-22.222-22.321c-6.655-6.718-13.312-13.436-19.968-20.154l-1.836,7.55l-5.673,8.204l5.533,4.571
				l2.744,16.053l-5.168,6.228c9.071,1.267,18.143,2.534,27.213,3.8c0.444,0.063,0.889,0.124,1.332,0.186
				c-0.213,1.529-0.426,3.057-0.641,4.585c-1.219,8.735-2.439,17.469-3.659,26.204c-2.08,14.893-4.16,29.785-6.24,44.678
				c-0.856-0.119-1.712-0.239-2.569-0.358c-3.162-0.442-6.325-0.884-9.488-1.326c-10.051-1.403-20.1-2.808-30.149-4.21
				c-1.452-0.203-2.903-0.406-4.355-0.609l0.978,7.26c14.35,2.004,28.699,4.008,43.049,6.012c3.679,0.514,7.664,0.48,9.078-3.816
				c0.152-0.322,0.264-0.687,0.321-1.097c2.343-16.77,4.685-33.54,7.026-50.31c1.16-8.3,2.318-16.6,3.479-24.901
				c0.051-0.365,0.096-0.748,0.131-1.139c2.452,0.342,4.904,0.685,7.356,1.027c0.903,0.524,1.838,0.467,2.636,0.043
				C262.591,173.189,263.352,170.886,262.591,168.97z"/>
			<path style="fill:#FFFFFF;" d="M238.615,172.836l-24.85-3.47l-7.08,8.533l-5.228,5.485l1.323,10.564l-11.178,14.835l5.031,10.444
				l-10.834,15.81l0.48,3.579l42.321,5.912c1.351,0.188,2.598-0.754,2.786-2.104l9.33-66.803
				C240.908,174.273,239.966,173.025,238.615,172.836z"/>
		</g>
	</g>
</g>
<g id="Ebene_1">
</g>
</svg>
