<?xml version="1.0" encoding="iso-8859-1"?>
<!-- Generator: Adobe Illustrator 16.0.3, SVG Export Plug-In . SVG Version: 6.00 Build 0)  -->
<!DOCTYPE svg PUBLIC "-//W3C//DTD SVG 1.1//EN" "http://www.w3.org/Graphics/SVG/1.1/DTD/svg11.dtd">
<svg version="1.1" xmlns="http://www.w3.org/2000/svg" xmlns:xlink="http://www.w3.org/1999/xlink" x="0px" y="0px" width="361px"
	 height="361px" viewBox="0 0 361 361" style="enable-background:new 0 0 361 361;" xml:space="preserve">
<g id="info_x5F_bug">
	<g>
		<g>
			<path style="fill:#FFFFFF;" d="M281.925,249.004c-0.342,18.986-15.55,33.18-34.32,33.18c-9.337,0-18.675,0-28.013,0
				c-30.347,0-60.694,0-91.042,0c-8.184,0-17.058,0.82-25.016-1.369c-15.888-4.37-23.714-19.333-23.714-34.795
				c0-26.909,0-53.819,0-80.729c0-13.615,0-27.229,0-40.844c0-10.273-0.431-19.791,5.211-29.055
				c5.893-9.674,16.849-15.114,27.968-15.314c1.871-0.034,3.746,0,5.616,0c11.979,0,23.958,0,35.937,0c28.915,0,57.83,0,86.744,0
				c2.433,0,4.864,0,7.296,0c9.681,0,18.399,4.112,24.961,11.134c8.247,8.827,8.372,19.867,8.372,31.017
				C281.925,164.487,281.925,206.745,281.925,249.004c0,6.448,10,6.448,10,0c0-45.198,0-90.396,0-135.594
				c0-21.053-15.566-39.372-36.331-42.758c-7.709-1.257-15.98-0.575-23.75-0.575c-30.449,0-60.899,0-91.349,0
				c-8.909,0-17.818,0-26.727,0c-19.12,0-35.489,11.814-41.823,29.782c-2.978,8.448-2.125,18.167-2.125,27.007
				c0,14.114,0,28.228,0,42.341c0,25.989,0,51.978,0,77.967c0,17.023,8.354,32.409,23.696,40.363
				c9.574,4.963,19.733,4.646,30.099,4.646c29.683,0,59.365,0,89.047,0c10.924,0,21.847,0,32.771,0
				c15.513,0,28.886-5.525,38.442-18.108c5.408-7.121,7.891-16.237,8.05-25.071C292.041,242.552,282.041,242.563,281.925,249.004z"
				/>
		</g>
	</g>
	<g>
		<g>
			<path style="fill:#FFFFFF;" d="M215.91,229.376c0,3.909-15.768,19.677-19.678,19.677h-31.148
				c-3.91,0-19.677-15.768-19.677-19.677v-63.994c0-3.909,6.919-10.828,10.829-10.828h48.846c3.909,0,10.828,6.919,10.828,10.828
				V229.376z"/>
			<g>
				<path style="fill:#FFFFFF;" d="M212.16,229.376c-0.176,1.642-4.288,5.527-5.736,7.074c-2.897,3.095-6.065,6.178-9.678,8.43
					c-2.736,1.705-10.867,0.423-14.599,0.423c-5.688,0-11.375,0-17.063,0c-1.468,0-5.672-4.424-7.075-5.736
					c-3.095-2.897-6.178-6.065-8.429-9.677c-1.087-1.743-0.423-6.479-0.423-9.056c0-7.485,0-14.971,0-22.455
					c0-7.666,0-15.332,0-22.998c0-2.98-0.999-7.904,0.239-10.733c2.565-5.864,6.764-6.344,12.047-6.344c6.735,0,13.47,0,20.205,0
					c6.48,0,12.961,0,19.44,0c1.322,0,2.645,0,3.967,0c2.318,0,7.104,4.858,7.104,7.16
					C212.16,186.768,212.16,208.072,212.16,229.376c0,4.837,7.5,4.837,7.5,0c0-11.332,0-22.664,0-33.996c0-7.384,0-14.767,0-22.151
					c0-3.613,0.632-8.036-0.857-11.44c-2.638-6.029-8.625-10.985-15.31-10.985c-6.297,0-12.593,0-18.89,0
					c-7.501,0-15.003,0-22.504,0c-5.586,0-9.275,0.079-14.015,3.784c-4.712,3.683-6.427,8.367-6.427,13.997
					c0,6.313,0,12.626,0,18.94c0,13.531,0,27.062,0,40.593c0,5.21,3.859,9.184,7.19,12.843c3.717,4.083,10.259,11.843,16.402,11.843
					c6.288,0,12.575,0,18.863,0c4.53,0,11.039,1.218,15.306-0.861c4.71-2.295,8.727-6.462,12.31-10.188
					c3.212-3.341,7.414-7.542,7.933-12.378C220.176,224.569,212.67,224.619,212.16,229.376z"/>
			</g>
		</g>
		<g>
			<g>
				<g>
					<path style="fill:#FFFFFF;" d="M116.865,187.14c5.781,0,11.562,0,17.343,0c6.449,0,6.449-10,0-10c-5.781,0-11.562,0-17.343,0
						C110.417,177.14,110.417,187.14,116.865,187.14L116.865,187.14z"/>
				</g>
			</g>
			<g>
				<g>
					<path style="fill:#FFFFFF;" d="M104.288,195.129c5.006-2.891,10.012-5.78,15.018-8.671c5.582-3.223,0.548-11.865-5.047-8.635
						c-5.006,2.89-10.012,5.78-15.018,8.671C93.659,189.717,98.693,198.359,104.288,195.129L104.288,195.129z"/>
				</g>
			</g>
		</g>
		<g>
			<g>
				<g>
					<path style="fill:#FFFFFF;" d="M116.865,225.149c5.781,0,11.562,0,17.343,0c6.449,0,6.449-10,0-10c-5.781,0-11.562,0-17.343,0
						C110.417,215.149,110.417,225.149,116.865,225.149L116.865,225.149z"/>
				</g>
			</g>
			<g>
				<g>
					<path style="fill:#FFFFFF;" d="M107.917,236.01c4.087-4.087,8.175-8.175,12.263-12.263c4.563-4.563-2.507-11.635-7.071-7.07
						c-4.087,4.087-8.175,8.175-12.263,12.263C96.282,233.503,103.353,240.574,107.917,236.01L107.917,236.01z"/>
				</g>
			</g>
		</g>
		<g>
			<g>
				<g>
					<path style="fill:#FFFFFF;" d="M121.917,145.158c5.006,2.891,10.012,5.781,15.019,8.672c5.595,3.23,10.628-5.412,5.047-8.635
						c-5.006-2.891-10.012-5.781-15.019-8.672C121.369,133.293,116.335,141.936,121.917,145.158L121.917,145.158z"/>
				</g>
			</g>
			<g>
				<g>
					<path style="fill:#FFFFFF;" d="M111.379,128.305c2.891,5.006,5.781,10.013,8.671,15.019c3.223,5.582,11.865,0.548,8.635-5.047
						c-2.891-5.006-5.781-10.013-8.671-15.019C116.792,117.676,108.149,122.71,111.379,128.305L111.379,128.305z"/>
				</g>
			</g>
		</g>
		<g>
			<g>
				<g>
					<path style="fill:#FFFFFF;" d="M244.135,177.139c-5.781,0-11.562,0-17.343,0c-6.448,0-6.448,10,0,10c5.781,0,11.562,0,17.343,0
						C250.583,187.139,250.583,177.139,244.135,177.139L244.135,177.139z"/>
				</g>
			</g>
			<g>
				<g>
					<path style="fill:#FFFFFF;" d="M261.76,186.492c-5.006-2.89-10.013-5.78-15.02-8.67c-5.595-3.23-10.629,5.413-5.047,8.635
						c5.006,2.89,10.013,5.78,15.02,8.67C262.308,198.356,267.342,189.714,261.76,186.492L261.76,186.492z"/>
				</g>
			</g>
		</g>
		<g>
			<g>
				<g>
					<path style="fill:#FFFFFF;" d="M244.135,215.147c-5.781,0-11.562,0-17.343,0c-6.448,0-6.448,10,0,10c5.781,0,11.562,0,17.343,0
						C250.583,225.147,250.583,215.147,244.135,215.147L244.135,215.147z"/>
				</g>
			</g>
			<g>
				<g>
					<path style="fill:#FFFFFF;" d="M260.154,228.939c-4.087-4.088-8.175-8.176-12.263-12.264c-4.563-4.564-11.634,2.507-7.07,7.07
						c4.087,4.088,8.175,8.176,12.263,12.264C257.647,240.574,264.718,233.503,260.154,228.939L260.154,228.939z"/>
				</g>
			</g>
		</g>
		<g>
			<g>
				<g>
					<path style="fill:#FFFFFF;" d="M234.037,136.523c-5.007,2.89-10.014,5.781-15.02,8.671c-5.582,3.222-0.548,11.865,5.047,8.635
						c5.007-2.89,10.014-5.781,15.02-8.671C244.666,141.936,239.632,133.293,234.037,136.523L234.037,136.523z"/>
				</g>
			</g>
			<g>
				<g>
					<path style="fill:#FFFFFF;" d="M240.985,123.257c-2.891,5.006-5.781,10.012-8.672,15.019c-3.23,5.595,5.412,10.628,8.635,5.047
						c2.891-5.006,5.781-10.012,8.672-15.019C252.851,122.709,244.208,117.676,240.985,123.257L240.985,123.257z"/>
				</g>
			</g>
		</g>
		<g>
			<g>
				<path style="fill:#FFFFFF;" d="M204.104,144.029h-46.89v-13.571c0-3.324,10.214-6.018,13.538-6.018h19.815
					c3.322,0,13.537,2.693,13.537,6.018V144.029z"/>
				<g>
					<path style="fill:#FFFFFF;" d="M204.104,140.279c-15.63,0-31.26,0-46.89,0c1.25,1.25,2.5,2.5,3.75,3.75c0-2.423,0-4.847,0-7.27
						c0-1.67,0-3.341,0-5.012c0-0.4,0-0.8,0-1.2c0,1.364-0.031,0.65,1.208-0.044c5.548-3.112,12.413-2.313,18.488-2.313
						c6.143,0,11.584-0.326,17.444,1.825c0.854,0.314,1.79,0.808,2.488,1.405c-0.437-0.374-0.238-1.401-0.238-0.21
						c0,1.53,0,3.06,0,4.589c0,2.744,0,5.487,0,8.23c0,4.836,7.5,4.836,7.5,0c0-5.649,2.141-15.321-3.331-19.024
						c-7.159-4.845-15.675-4.315-23.863-4.315c-8.113,0-15.751-0.321-23.123,3.813c-6.335,3.553-4.073,13.497-4.073,19.526
						c0,2.044,1.706,3.75,3.75,3.75c15.63,0,31.26,0,46.89,0C208.94,147.779,208.94,140.279,204.104,140.279z"/>
				</g>
			</g>
			<g>
				<line style="fill:#FFFFFF;" x1="166.213" y1="116.207" x2="172.063" y2="121.973"/>
				<g>
					<path style="fill:#FFFFFF;" d="M162.677,119.743c1.95,1.922,3.9,3.844,5.85,5.766c1.94,1.912,5.134,1.937,7.071,0
						c1.916-1.916,1.94-5.159,0-7.071c-1.95-1.922-3.9-3.844-5.85-5.766c-1.94-1.912-5.134-1.937-7.071,0
						C160.761,114.587,160.737,117.83,162.677,119.743L162.677,119.743z"/>
				</g>
			</g>
			<g>
				<line style="fill:#FFFFFF;" x1="194.797" y1="116.207" x2="188.947" y2="121.973"/>
				<g>
					<path style="fill:#FFFFFF;" d="M191.262,112.671c-1.95,1.922-3.9,3.844-5.85,5.766c-1.94,1.913-1.916,5.155,0,7.071
						c1.937,1.937,5.131,1.912,7.07,0c1.95-1.922,3.9-3.844,5.85-5.766c1.94-1.913,1.916-5.155,0-7.071
						C196.396,110.735,193.201,110.759,191.262,112.671L191.262,112.671z"/>
				</g>
			</g>
		</g>
	</g>
</g>
<g id="Ebene_1">
</g>
</svg>
