<?xml version="1.0" encoding="iso-8859-1"?>
<!-- Generator: Adobe Illustrator 16.0.3, SVG Export Plug-In . SVG Version: 6.00 Build 0)  -->
<!DOCTYPE svg PUBLIC "-//W3C//DTD SVG 1.1//EN" "http://www.w3.org/Graphics/SVG/1.1/DTD/svg11.dtd">
<svg version="1.1" xmlns="http://www.w3.org/2000/svg" xmlns:xlink="http://www.w3.org/1999/xlink" x="0px" y="0px" width="361px"
	 height="361px" viewBox="0 0 361 361" style="enable-background:new 0 0 361 361;" xml:space="preserve">
<g id="info_x5F_attention">
	<g>
		<g>
			<path style="fill:#FFFFFF;" d="M281.925,249.004c-0.342,18.986-15.55,33.18-34.32,33.18c-9.337,0-18.675,0-28.013,0
				c-30.347,0-60.694,0-91.042,0c-8.184,0-17.058,0.82-25.016-1.369c-15.888-4.37-23.714-19.333-23.714-34.795
				c0-26.909,0-53.819,0-80.729c0-13.615,0-27.229,0-40.844c0-10.273-0.431-19.791,5.211-29.055
				c5.893-9.674,16.849-15.114,27.968-15.314c1.871-0.034,3.746,0,5.616,0c11.979,0,23.958,0,35.937,0c28.915,0,57.83,0,86.744,0
				c2.433,0,4.864,0,7.296,0c9.681,0,18.399,4.112,24.961,11.134c8.247,8.827,8.372,19.867,8.372,31.017
				C281.925,164.487,281.925,206.745,281.925,249.004c0,6.448,10,6.448,10,0c0-45.198,0-90.396,0-135.594
				c0-21.053-15.566-39.372-36.331-42.758c-7.709-1.257-15.98-0.575-23.75-0.575c-30.449,0-60.899,0-91.349,0
				c-8.909,0-17.818,0-26.727,0c-19.12,0-35.489,11.814-41.823,29.782c-2.978,8.448-2.125,18.167-2.125,27.007
				c0,14.114,0,28.228,0,42.341c0,25.989,0,51.978,0,77.967c0,17.023,8.354,32.409,23.696,40.363
				c9.574,4.963,19.733,4.646,30.099,4.646c29.683,0,59.365,0,89.047,0c10.924,0,21.847,0,32.771,0
				c15.513,0,28.886-5.525,38.442-18.108c5.408-7.121,7.891-16.237,8.05-25.071C292.041,242.552,282.041,242.563,281.925,249.004z"
				/>
		</g>
	</g>
	<g>
		<path style="fill:#FFFFFF;" d="M192.404,213.887c0,3.814-1.236,6.76-3.705,8.84c-2.471,2.08-5.266,3.119-8.386,3.119
			c-3.12,0-5.915-1.039-8.385-3.119c-2.47-2.08-3.705-5.025-3.705-8.84c0-3.813,1.235-6.76,3.705-8.84
			c2.47-2.08,5.265-3.121,8.385-3.121c3.12,0,5.915,1.041,8.386,3.121C191.168,207.127,192.404,210.074,192.404,213.887z
			 M190.714,157.336c0,7.02-0.261,13.564-0.78,19.63c-0.52,6.067-1.215,12.219-2.08,18.459h-14.82
			c-0.867-6.24-1.583-12.393-2.145-18.459c-0.565-6.065-0.845-12.61-0.845-19.63v-23.27h20.67V157.336z"/>
	</g>
</g>
<g id="Ebene_1">
</g>
</svg>
