<?xml version="1.0" encoding="iso-8859-1"?>
<!-- Generator: Adobe Illustrator 16.0.3, SVG Export Plug-In . SVG Version: 6.00 Build 0)  -->
<!DOCTYPE svg PUBLIC "-//W3C//DTD SVG 1.1//EN" "http://www.w3.org/Graphics/SVG/1.1/DTD/svg11.dtd">
<svg version="1.1" xmlns="http://www.w3.org/2000/svg" xmlns:xlink="http://www.w3.org/1999/xlink" x="0px" y="0px" width="361px"
	 height="361px" viewBox="0 0 361 361" style="enable-background:new 0 0 361 361;" xml:space="preserve">
<g id="info_x5F_ok">
	<g>
		<g>
			<path style="fill:#FFFFFF;" d="M281.925,249.004c-0.342,18.986-15.55,33.18-34.32,33.18c-9.337,0-18.675,0-28.013,0
				c-30.347,0-60.694,0-91.042,0c-8.184,0-17.058,0.82-25.016-1.369c-15.888-4.37-23.714-19.333-23.714-34.795
				c0-26.909,0-53.819,0-80.729c0-13.615,0-27.229,0-40.844c0-10.273-0.431-19.791,5.211-29.055
				c5.893-9.674,16.849-15.114,27.968-15.314c1.871-0.034,3.746,0,5.616,0c11.979,0,23.958,0,35.937,0c28.915,0,57.83,0,86.744,0
				c2.433,0,4.864,0,7.296,0c9.681,0,18.399,4.112,24.961,11.134c8.247,8.827,8.372,19.867,8.372,31.017
				C281.925,164.487,281.925,206.745,281.925,249.004c0,6.448,10,6.448,10,0c0-45.198,0-90.396,0-135.594
				c0-21.053-15.566-39.372-36.331-42.758c-7.709-1.257-15.98-0.575-23.75-0.575c-30.449,0-60.899,0-91.349,0
				c-8.909,0-17.818,0-26.727,0c-19.12,0-35.489,11.814-41.823,29.782c-2.978,8.448-2.125,18.167-2.125,27.007
				c0,14.114,0,28.228,0,42.341c0,25.989,0,51.978,0,77.967c0,17.023,8.354,32.409,23.696,40.363
				c9.574,4.963,19.733,4.646,30.099,4.646c29.683,0,59.365,0,89.047,0c10.924,0,21.847,0,32.771,0
				c15.513,0,28.886-5.525,38.442-18.108c5.408-7.121,7.891-16.237,8.05-25.071C292.041,242.552,282.041,242.563,281.925,249.004z"
				/>
		</g>
	</g>
	<g>
		<path style="fill:#FFFFFF;" d="M96.978,179.948c0-7.526,1.12-14.165,3.361-19.918c2.24-5.75,5.285-10.55,9.134-14.398
			c3.848-3.848,8.329-6.743,13.448-8.69c5.116-1.945,10.55-2.918,16.302-2.918c5.665,0,11.015,0.973,16.048,2.918
			c5.031,1.947,9.452,4.842,13.257,8.69c3.807,3.849,6.829,8.648,9.072,14.398c2.239,5.753,3.361,12.392,3.361,19.918
			c0,7.528-1.122,14.167-3.361,19.917c-2.243,5.752-5.265,10.552-9.072,14.398c-3.805,3.85-8.226,6.746-13.257,8.691
			c-5.033,1.944-10.383,2.918-16.048,2.918c-5.752,0-11.186-0.974-16.302-2.918c-5.119-1.945-9.6-4.842-13.448-8.691
			c-3.849-3.847-6.894-8.646-9.134-14.398C98.098,194.115,96.978,187.477,96.978,179.948z M109.917,179.948
			c0,5.328,0.676,10.171,2.03,14.526c1.352,4.355,3.276,8.056,5.772,11.1c2.494,3.045,5.538,5.393,9.135,7.041
			c3.593,1.648,7.631,2.474,12.116,2.474c4.481,0,8.499-0.825,12.051-2.474s6.575-3.996,9.071-7.041
			c2.494-3.044,4.418-6.744,5.772-11.1c1.352-4.355,2.03-9.198,2.03-14.526c0-5.329-0.678-10.169-2.03-14.526
			c-1.354-4.355-3.279-8.056-5.772-11.1c-2.496-3.045-5.519-5.392-9.071-7.042c-3.552-1.649-7.57-2.474-12.051-2.474
			c-4.485,0-8.522,0.825-12.116,2.474c-3.597,1.649-6.641,3.997-9.135,7.042c-2.496,3.044-4.42,6.745-5.772,11.1
			C110.594,169.779,109.917,174.62,109.917,179.948z"/>
		<path style="fill:#FFFFFF;" d="M264.31,136.053c-2.622,2.876-5.581,6.07-8.88,9.579c-3.299,3.51-6.745,7.104-10.34,10.784
			c-3.596,3.679-7.167,7.294-10.719,10.846c-3.553,3.552-6.895,6.851-10.023,9.895c3.636,2.538,7.485,5.667,11.545,9.388
			c4.061,3.723,8.033,7.697,11.926,11.926c3.889,4.229,7.548,8.543,10.973,12.939c3.426,4.398,6.279,8.586,8.564,12.56h-14.463
			c-2.537-3.974-5.455-7.971-8.754-11.989c-3.299-4.016-6.787-7.865-10.467-11.545c-3.679-3.678-7.4-7.082-11.162-10.212
			c-3.766-3.128-7.422-5.792-10.975-7.993v41.739h-12.306v-87.917h12.306v38.82c2.959-2.791,6.216-5.941,9.769-9.451
			c3.552-3.509,7.061-7.041,10.529-10.593c3.468-3.552,6.743-6.955,9.832-10.212c3.087-3.255,5.687-6.109,7.802-8.563H264.31z"/>
	</g>
</g>
<g id="Ebene_1">
</g>
</svg>
