<?xml version="1.0" encoding="iso-8859-1"?>
<!-- Generator: Adobe Illustrator 16.0.3, SVG Export Plug-In . SVG Version: 6.00 Build 0)  -->
<!DOCTYPE svg PUBLIC "-//W3C//DTD SVG 1.1//EN" "http://www.w3.org/Graphics/SVG/1.1/DTD/svg11.dtd">
<svg version="1.1" xmlns="http://www.w3.org/2000/svg" xmlns:xlink="http://www.w3.org/1999/xlink" x="0px" y="0px" width="361px"
	 height="361px" viewBox="0 0 361 361" style="enable-background:new 0 0 361 361;" xml:space="preserve">
<g id="info_x5F_warning">
	<g>
		<g>
			<path style="fill:#FFFFFF;" d="M281.925,249.004c-0.342,18.986-15.55,33.18-34.32,33.18c-9.337,0-18.675,0-28.013,0
				c-30.347,0-60.694,0-91.042,0c-8.184,0-17.058,0.82-25.016-1.369c-15.888-4.37-23.714-19.333-23.714-34.795
				c0-26.909,0-53.819,0-80.729c0-13.615,0-27.229,0-40.844c0-10.273-0.431-19.791,5.211-29.055
				c5.893-9.674,16.849-15.114,27.968-15.314c1.871-0.034,3.746,0,5.616,0c11.979,0,23.958,0,35.937,0c28.915,0,57.83,0,86.744,0
				c2.433,0,4.864,0,7.296,0c9.681,0,18.399,4.112,24.961,11.134c8.247,8.827,8.372,19.867,8.372,31.017
				C281.925,164.487,281.925,206.745,281.925,249.004c0,6.448,10,6.448,10,0c0-45.198,0-90.396,0-135.594
				c0-21.053-15.566-39.372-36.331-42.758c-7.709-1.257-15.98-0.575-23.75-0.575c-30.449,0-60.899,0-91.349,0
				c-8.909,0-17.818,0-26.727,0c-19.12,0-35.489,11.814-41.823,29.782c-2.978,8.448-2.125,18.167-2.125,27.007
				c0,14.114,0,28.228,0,42.341c0,25.989,0,51.978,0,77.967c0,17.023,8.354,32.409,23.696,40.363
				c9.574,4.963,19.733,4.646,30.099,4.646c29.683,0,59.365,0,89.047,0c10.924,0,21.847,0,32.771,0
				c15.513,0,28.886-5.525,38.442-18.108c5.408-7.121,7.891-16.237,8.05-25.071C292.041,242.552,282.041,242.563,281.925,249.004z"
				/>
		</g>
	</g>
	<g>
		<path style="fill:#FFFFFF;" d="M190.396,217.321c0,3.161-1.023,5.601-3.069,7.323c-2.047,1.723-4.362,2.585-6.947,2.585
			c-2.584,0-4.899-0.862-6.945-2.585c-2.047-1.723-3.069-4.162-3.069-7.323c0-3.158,1.022-5.6,3.069-7.322
			c2.046-1.724,4.361-2.585,6.945-2.585c2.585,0,4.9,0.861,6.947,2.585C189.372,211.722,190.396,214.163,190.396,217.321z
			 M188.995,170.476c0,5.815-0.216,11.237-0.646,16.261c-0.431,5.026-1.006,10.123-1.723,15.293h-12.277
			c-0.718-5.17-1.311-10.267-1.776-15.293c-0.468-5.023-0.7-10.445-0.7-16.261v-19.276h17.123V170.476z"/>
	</g>
	<g>
		<g>
			<path style="fill:#FFFFFF;" d="M112.111,246.235c24.153-41.834,48.306-83.669,72.459-125.503c0.92-1.592,1.839-3.184,2.758-4.776
				c-4.321,0.016-8.643,0.032-12.965,0.048c24.153,41.834,48.306,83.669,72.458,125.503c0.92,1.592,1.839,3.185,2.758,4.776
				c2.175-3.767,4.35-7.533,6.523-11.3c-48.306,0-96.611,0-144.917,0c-1.838,0-3.676,0-5.515,0c-9.687,0-9.772,15.004-0.108,15.004
				c48.306,0,96.612,0,144.917,0c1.839,0,3.677,0,5.516,0c5.736,0,9.392-6.332,6.523-11.3
				c-24.153-41.834-48.306-83.668-72.458-125.503c-0.92-1.592-1.839-3.184-2.758-4.776c-2.828-4.898-10.158-4.814-12.965,0.048
				c-24.153,41.834-48.306,83.669-72.459,125.503c-0.919,1.593-1.838,3.185-2.757,4.776
				C94.28,247.119,107.271,254.619,112.111,246.235z"/>
		</g>
	</g>
</g>
<g id="Ebene_1">
</g>
</svg>
