<?xml version="1.0" encoding="iso-8859-1"?>
<!-- Generator: Adobe Illustrator 16.0.0, SVG Export Plug-In . SVG Version: 6.00 Build 0)  -->
<!DOCTYPE svg PUBLIC "-//W3C//DTD SVG 1.1//EN" "http://www.w3.org/Graphics/SVG/1.1/DTD/svg11.dtd">
<svg version="1.1" xmlns="http://www.w3.org/2000/svg" xmlns:xlink="http://www.w3.org/1999/xlink" x="0px" y="0px" width="361px"
	 height="361px" viewBox="0 0 361 361" style="enable-background:new 0 0 361 361;" xml:space="preserve">
<g id="it_x5F_av_x5F_receiver">
	<path style="fill:none;stroke:#FFFFFF;stroke-width:10;stroke-miterlimit:10;" d="M287.333,218.667c0,3.313-2.687,6-6,6h-201
		c-3.313,0-6-2.687-6-6v-77.5c0-3.313,2.687-6,6-6h201c3.313,0,6,2.687,6,6V218.667z"/>
	<path style="fill:#FFFFFF;" d="M140.962,189.807c0,2.242-1.818,4.061-4.062,4.061l0,0c-2.244,0-4.062-1.818-4.062-4.061l0,0
		c0-2.244,1.818-4.063,4.062-4.063l0,0C139.144,185.744,140.962,187.563,140.962,189.807L140.962,189.807z"/>
	<path style="fill:#FFFFFF;" d="M112.393,189.807c0,2.242-1.818,4.061-4.062,4.061l0,0c-2.244,0-4.062-1.818-4.062-4.061l0,0
		c0-2.244,1.818-4.063,4.062-4.063l0,0C110.575,185.744,112.393,187.563,112.393,189.807L112.393,189.807z"/>
	<g>
		<g>
			<path style="fill:#FFFFFF;" d="M91,161.5c3.111,0,6.222,0,9.333,0c6.449,0,6.449-10,0-10c-3.111,0-6.222,0-9.333,0
				C84.551,151.5,84.551,161.5,91,161.5L91,161.5z"/>
		</g>
	</g>
	<path style="fill:#FFFFFF;" d="M160.782,189.807c0,2.242-1.818,4.061-4.062,4.061l0,0c-2.244,0-4.062-1.818-4.062-4.061l0,0
		c0-2.244,1.818-4.063,4.062-4.063l0,0C158.964,185.744,160.782,187.563,160.782,189.807L160.782,189.807z"/>
	<path style="fill:#FFFFFF;" d="M180.601,189.807c0,2.242-1.818,4.061-4.062,4.061l0,0c-2.244,0-4.062-1.818-4.062-4.061l0,0
		c0-2.244,1.818-4.063,4.062-4.063l0,0C178.783,185.744,180.601,187.563,180.601,189.807L180.601,189.807z"/>
	<path style="fill:#FFFFFF;" d="M200.42,189.807c0,2.242-1.818,4.061-4.063,4.061l0,0c-2.243,0-4.062-1.818-4.062-4.061l0,0
		c0-2.244,1.818-4.063,4.062-4.063l0,0C198.602,185.744,200.42,187.563,200.42,189.807L200.42,189.807z"/>
	<path style="fill:#FFFFFF;" d="M220.238,189.807c0,2.242-1.818,4.061-4.062,4.061l0,0c-2.243,0-4.062-1.818-4.062-4.061l0,0
		c0-2.244,1.818-4.063,4.062-4.063l0,0C218.42,185.744,220.238,187.563,220.238,189.807L220.238,189.807z"/>
	<g>
		<g>
			<path style="fill:#FFFFFF;" d="M268.333,168.917c-0.75,15.778-23.75,15.778-24.5,0c-0.328-6.906,5.828-11.945,12.25-12.25
				C262.989,156.339,268.027,162.495,268.333,168.917c0.092,1.926,3.092,1.935,3,0c-0.408-8.596-6.654-14.841-15.25-15.25
				c-8.583-0.408-14.871,7.269-15.25,15.25c-0.408,8.583,7.269,14.871,15.25,15.25c8.583,0.408,14.871-7.269,15.25-15.25
				C271.425,166.982,268.425,166.991,268.333,168.917z"/>
		</g>
	</g>
	<g>
		<g>
			<path style="fill:#FFFFFF;" d="M94.833,207.979c-0.122,2.259-3.378,2.259-3.5,0C91.211,205.719,94.712,205.731,94.833,207.979
				c0.104,1.924,3.104,1.934,3,0c-0.145-2.684-2.066-4.605-4.75-4.75c-2.678-0.145-4.617,2.283-4.75,4.75
				c-0.144,2.678,2.283,4.617,4.75,4.75c2.678,0.145,4.617-2.283,4.75-4.75C97.937,206.045,94.937,206.055,94.833,207.979z"/>
		</g>
	</g>
	<g>
		<g>
			<path style="fill:#FFFFFF;" d="M242.333,207.98c-0.122,2.259-3.378,2.259-3.5,0C238.711,205.721,242.212,205.733,242.333,207.98
				c0.104,1.924,3.104,1.934,3,0c-0.145-2.684-2.066-4.605-4.75-4.75c-2.678-0.145-4.617,2.283-4.75,4.75
				c-0.145,2.678,2.283,4.617,4.75,4.75c2.678,0.145,4.617-2.283,4.75-4.75C245.438,206.047,242.437,206.057,242.333,207.98z"/>
		</g>
	</g>
	<g>
		<g>
			<path style="fill:#FFFFFF;" d="M253.333,207.98c-0.122,2.259-3.378,2.259-3.5,0C249.711,205.721,253.212,205.733,253.333,207.98
				c0.104,1.924,3.104,1.934,3,0c-0.145-2.684-2.066-4.605-4.75-4.75c-2.678-0.145-4.617,2.283-4.75,4.75
				c-0.145,2.678,2.283,4.617,4.75,4.75c2.678,0.145,4.617-2.283,4.75-4.75C256.438,206.047,253.437,206.057,253.333,207.98z"/>
		</g>
	</g>
	<g>
		<g>
			<path style="fill:#FFFFFF;" d="M264.833,207.98c-0.122,2.259-3.378,2.259-3.5,0C261.211,205.721,264.712,205.733,264.833,207.98
				c0.104,1.924,3.104,1.934,3,0c-0.145-2.684-2.066-4.605-4.75-4.75c-2.678-0.145-4.617,2.283-4.75,4.75
				c-0.145,2.678,2.283,4.617,4.75,4.75c2.678,0.145,4.617-2.283,4.75-4.75C267.938,206.047,264.937,206.057,264.833,207.98z"/>
		</g>
	</g>
	
		<line style="fill:none;stroke:#FFFFFF;stroke-width:3;stroke-linecap:round;stroke-miterlimit:10;" x1="165.432" y1="179.867" x2="173.932" y2="179.867"/>
	
		<line style="fill:none;stroke:#FFFFFF;stroke-width:3;stroke-linecap:round;stroke-miterlimit:10;" x1="179.732" y1="179.867" x2="188.232" y2="179.867"/>
	
		<line style="fill:none;stroke:#FFFFFF;stroke-width:3;stroke-linecap:round;stroke-miterlimit:10;" x1="194.032" y1="179.867" x2="202.532" y2="179.867"/>
	
		<line style="fill:none;stroke:#FFFFFF;stroke-width:3;stroke-linecap:round;stroke-miterlimit:10;" x1="151.132" y1="179.867" x2="159.632" y2="179.867"/>
	
		<line style="fill:none;stroke:#FFFFFF;stroke-width:3;stroke-linecap:round;stroke-miterlimit:10;" x1="136.832" y1="179.867" x2="145.332" y2="179.867"/>
	
		<line style="fill:none;stroke:#FFFFFF;stroke-width:3;stroke-linecap:round;stroke-miterlimit:10;" x1="208.332" y1="179.867" x2="216.832" y2="179.867"/>
	<path style="fill:#FFFFFF;" d="M216.217,151.797h-80.603c-3.931,0-7.117,3.846-7.117,8.586v7.635c0,4.741,3.186,8.586,7.117,8.586
		h80.603c3.929,0,7.116-3.845,7.116-8.586v-7.635C223.333,155.643,220.146,151.797,216.217,151.797z M141.833,165.167h-5.5
		c-0.829,0-1.5-0.671-1.5-1.5s0.671-1.5,1.5-1.5h5.5c0.829,0,1.5,0.671,1.5,1.5S142.662,165.167,141.833,165.167z M147.833,170.5h-3
		c-0.829,0-1.5-0.671-1.5-1.5s0.671-1.5,1.5-1.5h3c0.829,0,1.5,0.671,1.5,1.5S148.662,170.5,147.833,170.5z M148.833,160.167h-9.499
		c-0.829,0-1.5-0.671-1.5-1.5s0.671-1.5,1.5-1.5h9.499c0.829,0,1.5,0.671,1.5,1.5S149.662,160.167,148.833,160.167z
		 M161.833,164.167c0-0.829,0.671-1.5,1.5-1.5h6.5c0.829,0,1.5,0.671,1.5,1.5s-0.671,1.5-1.5,1.5h-6.5
		C162.504,165.667,161.833,164.996,161.833,164.167z M171.833,170.5h-3c-0.829,0-1.5-0.671-1.5-1.5s0.671-1.5,1.5-1.5h3
		c0.829,0,1.5,0.671,1.5,1.5S172.662,170.5,171.833,170.5z M175.333,160.167h-5.5c-0.829,0-1.5-0.671-1.5-1.5s0.671-1.5,1.5-1.5h5.5
		c0.829,0,1.5,0.671,1.5,1.5S176.162,160.167,175.333,160.167z M197.333,165.667h-3.499c-0.828,0-1.5-0.671-1.5-1.5
		s0.672-1.5,1.5-1.5h3.499c0.829,0,1.5,0.671,1.5,1.5S198.162,165.667,197.333,165.667z M197.333,158.667c0-0.829,0.671-1.5,1.5-1.5
		h6.5c0.829,0,1.5,0.671,1.5,1.5s-0.671,1.5-1.5,1.5h-6.5C198.004,160.167,197.333,159.496,197.333,158.667z M210.833,170.5h-6.5
		c-0.829,0-1.5-0.671-1.5-1.5s0.671-1.5,1.5-1.5h6.5c0.829,0,1.5,0.671,1.5,1.5S211.662,170.5,210.833,170.5z M215.333,165.667h-6.5
		c-0.829,0-1.5-0.671-1.5-1.5s0.671-1.5,1.5-1.5h6.5c0.829,0,1.5,0.671,1.5,1.5S216.162,165.667,215.333,165.667z"/>
</g>
<g id="Ebene_1">
</g>
</svg>
