<?xml version="1.0" encoding="iso-8859-1"?>
<!-- Generator: Adobe Illustrator 16.0.0, SVG Export Plug-In . SVG Version: 6.00 Build 0)  -->
<!DOCTYPE svg PUBLIC "-//W3C//DTD SVG 1.1//EN" "http://www.w3.org/Graphics/SVG/1.1/DTD/svg11.dtd">
<svg version="1.1" xmlns="http://www.w3.org/2000/svg" xmlns:xlink="http://www.w3.org/1999/xlink" x="0px" y="0px" width="361px"
	 height="361px" viewBox="0 0 361 361" style="enable-background:new 0 0 361 361;" xml:space="preserve">
<g id="it_x5F_fax">
	<path style="fill:none;stroke:#FFFFFF;stroke-width:10;stroke-miterlimit:10;" d="M287.279,278.221c0,4.894-4.315,8.86-9.637,8.86
		H84.889c-5.321,0-9.637-3.967-9.637-8.86v-89.695c0-4.89,4.316-8.858,9.637-8.858h192.753c5.321,0,9.637,3.969,9.637,8.858V278.221
		z"/>
	<path style="fill:none;stroke:#FFFFFF;stroke-width:10;stroke-miterlimit:10;" d="M262.846,213.503
		c-12.85-2.627-27.935-3.782-40.704-4.797c-7.599-0.603-34.618-0.676-40.696-0.684v-0.001c0,0-0.215,0-0.612,0s-0.612,0-0.612,0
		v0.001c-6.079,0.008-33.097,0.081-40.696,0.684c-12.77,1.015-27.854,2.17-40.704,4.797c-2.574,0.525-4.801,1.78-4.801,3.976v32
		c0,2.197,2.149,3.977,4.801,3.977h36.016c10.479-1.011,7.722-13.344,12.961-17.814c1.777-1.516,5.998-1.371,8.549-1.371
		c5.647,0,18.819,0,23.599,0c1.115,0,1.775,0,1.775,0c4.779,0,17.951,0,23.598,0c2.553,0,6.772-0.145,8.55,1.371
		c5.239,4.471,2.481,16.804,12.962,17.814h36.016c2.652,0,4.801-1.779,4.801-3.977v-32
		C267.646,215.283,265.42,214.028,262.846,213.503z"/>
	<g>
		<g>
			<path style="fill:#FFFFFF;" d="M242.197,76.973c-1.341-9.976-16.774-7.13-23.751-7.13c-15.404,0-30.809,0-46.212,0
				c-13.222,0-26.443,0-39.665,0c-2.662,0-5.928-0.417-8.434,0.641c-4.703,1.985-5.082,6.258-5.082,10.615
				c0,27.74,0,55.481,0,83.222c0,7.023-2.131,19.847,8.496,19.847c9.812,0,19.624,0,29.436,0c25.658,0,51.315,0,76.973,0
				c10.656,0,8.364-13.569,8.364-20.529c0-15.182,0-30.364,0-45.546c0-13.396,0-26.792,0-40.188c0-4.514-7-4.514-7,0
				c0,24.639,0,49.277,0,73.916c0,1.895,1.229,25.348-1.109,25.348c-8.755,0-17.509,0-26.263,0c-26.623,0-53.246,0-79.869,0
				c-2.539,0-2.027-2.317-2.027-4.254c0-5.08,0-10.159,0-15.239c0-15.764,0-31.527,0-47.291c0-10.614,0-21.228,0-31.841
				c0-3.447,17.456-1.699,19.907-1.699c28.194,0,56.389,0,84.582,0c2.169,0,4.536-0.746,4.904,1.991
				C236.046,83.29,242.79,81.385,242.197,76.973z"/>
		</g>
	</g>
	<g>
		<g>
			<path style="fill:#FFFFFF;" d="M140.205,101.118c26.989,0,53.978,0,80.967,0c4.514,0,4.514-7,0-7c-26.989,0-53.978,0-80.967,0
				C135.691,94.118,135.691,101.118,140.205,101.118L140.205,101.118z"/>
		</g>
	</g>
	<g>
		<g>
			<path style="fill:#FFFFFF;" d="M140.205,140.152c26.989,0,53.978,0,80.967,0c4.514,0,4.514-7,0-7c-26.989,0-53.978,0-80.967,0
				C135.691,133.152,135.691,140.152,140.205,140.152L140.205,140.152z"/>
		</g>
	</g>
	<g>
		<g>
			<path style="fill:#FFFFFF;" d="M140.205,120.634c26.989,0,53.978,0,80.967,0c4.514,0,4.514-7,0-7c-26.989,0-53.978,0-80.967,0
				C135.691,113.634,135.691,120.634,140.205,120.634L140.205,120.634z"/>
		</g>
	</g>
	<g>
		<g>
			<path style="fill:#FFFFFF;" d="M140.205,159.668c26.989,0,53.978,0,80.967,0c4.514,0,4.514-7,0-7c-26.989,0-53.978,0-80.967,0
				C135.691,152.668,135.691,159.668,140.205,159.668L140.205,159.668z"/>
		</g>
	</g>
</g>
<g id="Ebene_1">
</g>
</svg>
