<?xml version="1.0" encoding="iso-8859-1"?>
<!-- Generator: Adobe Illustrator 16.0.0, SVG Export Plug-In . SVG Version: 6.00 Build 0)  -->
<!DOCTYPE svg PUBLIC "-//W3C//DTD SVG 1.1//EN" "http://www.w3.org/Graphics/SVG/1.1/DTD/svg11.dtd">
<svg version="1.1" xmlns="http://www.w3.org/2000/svg" xmlns:xlink="http://www.w3.org/1999/xlink" x="0px" y="0px" width="361px"
	 height="361px" viewBox="0 0 361 361" style="enable-background:new 0 0 361 361;" xml:space="preserve">
<g id="it_x5F_media_x5F_player">
	<path style="fill:none;stroke:#FFFFFF;stroke-width:10;stroke-miterlimit:10;" d="M287.333,207.667c0,3.313-2.687,6-6,6h-201
		c-3.313,0-6-2.687-6-6v-53.5c0-3.313,2.687-6,6-6h201c3.313,0,6,2.687,6,6V207.667z"/>
	
		<line style="fill:none;stroke:#FFFFFF;stroke-width:10;stroke-linecap:round;stroke-miterlimit:10;" x1="74.333" y1="180.167" x2="107.833" y2="180.167"/>
	
		<line style="fill:none;stroke:#FFFFFF;stroke-width:10;stroke-linecap:round;stroke-miterlimit:10;" x1="122.333" y1="180.167" x2="133.333" y2="180.167"/>
	<path style="fill:#FFFFFF;" d="M260.049,168.8v-0.05H190.73v0.045c-5.928,0.454-10.616,5.413-10.616,11.455
		c0,6.342,5.159,11.5,11.5,11.5c0.326,0,0.646-0.022,0.967-0.049h65.52c0.318,0.026,0.639,0.049,0.965,0.049
		s0.647-0.022,0.967-0.049h0.016V191.7c5.883-0.501,10.518-5.44,10.518-11.45C270.566,174.241,265.932,169.301,260.049,168.8z
		 M258.5,184.332c-2.393,0-4.332-1.939-4.332-4.333c0-2.394,1.939-4.333,4.332-4.333c2.395,0,4.334,1.94,4.334,4.333
		C262.834,182.393,260.895,184.332,258.5,184.332z"/>
</g>
<g id="Ebene_1">
</g>
</svg>
