<?xml version="1.0" encoding="iso-8859-1"?>
<!-- Generator: Adobe Illustrator 16.0.0, SVG Export Plug-In . SVG Version: 6.00 Build 0)  -->
<!DOCTYPE svg PUBLIC "-//W3C//DTD SVG 1.1 Tiny//EN" "http://www.w3.org/Graphics/SVG/1.1/DTD/svg11-tiny.dtd">
<svg version="1.1" baseProfile="tiny" id="it_x5F_net"
	 xmlns="http://www.w3.org/2000/svg" xmlns:xlink="http://www.w3.org/1999/xlink" x="0px" y="0px" width="361px" height="361px"
	 viewBox="0 0 361 361" xml:space="preserve">
<path fill="#FFFFFF" stroke="#FFFFFF" stroke-width="10" stroke-miterlimit="10" d="M161.648,284.562
	c0,2.569,2.083,4.651,4.651,4.651h24.031c2.569,0,4.651-2.083,4.651-4.651v-24.031c0-2.569-2.082-4.651-4.651-4.651H166.3
	c-2.569,0-4.651,2.082-4.651,4.651V284.562z"/>
<path fill="none" stroke="#FFFFFF" stroke-width="10" stroke-miterlimit="10" d="M250.982,174.229c0,2.569,2.083,4.651,4.651,4.651
	h24.031c2.569,0,4.651-2.083,4.651-4.651v-24.031c0-2.569-2.082-4.651-4.651-4.651h-24.031c-2.569,0-4.651,2.082-4.651,4.651
	V174.229z"/>
<path fill="none" stroke="#FFFFFF" stroke-width="10" stroke-miterlimit="10" d="M71.982,174.229c0,2.569,2.083,4.651,4.651,4.651
	h24.031c2.569,0,4.651-2.083,4.651-4.651v-24.031c0-2.569-2.082-4.651-4.651-4.651H76.633c-2.569,0-4.651,2.082-4.651,4.651V174.229
	z"/>
<path fill="none" stroke="#FFFFFF" stroke-width="10" stroke-miterlimit="10" d="M161.315,118.896c0,2.569,2.083,4.651,4.651,4.651
	h24.031c2.569,0,4.651-2.083,4.651-4.651V94.864c0-2.569-2.082-4.651-4.651-4.651h-24.031c-2.569,0-4.651,2.082-4.651,4.651V118.896
	z"/>
<line fill="none" stroke="#FFFFFF" stroke-width="10" stroke-miterlimit="10" x1="177.983" y1="253.546" x2="177.983" y2="123.879"/>
<line fill="none" stroke="#FFFFFF" stroke-width="10" stroke-miterlimit="10" x1="160.316" y1="254.879" x2="85.316" y2="179.879"/>
<line fill="none" stroke="#FFFFFF" stroke-width="10" stroke-miterlimit="10" x1="195.316" y1="254.879" x2="270.316" y2="179.879"/>
</svg>
