<?xml version="1.0" encoding="iso-8859-1"?>
<!-- Generator: Adobe Illustrator 16.0.0, SVG Export Plug-In . SVG Version: 6.00 Build 0)  -->
<!DOCTYPE svg PUBLIC "-//W3C//DTD SVG 1.1//EN" "http://www.w3.org/Graphics/SVG/1.1/DTD/svg11.dtd">
<svg version="1.1" xmlns="http://www.w3.org/2000/svg" xmlns:xlink="http://www.w3.org/1999/xlink" x="0px" y="0px" width="361px"
	 height="361px" viewBox="0 0 361 361" style="enable-background:new 0 0 361 361;" xml:space="preserve">
<g id="it_x5F_nas">
	<g>
		<g>
			<path style="fill:#FFFFFF;" d="M187.127,278.996c-0.322,4.009-5.436,3.051-8.227,3.051c-5.601,0-11.202,0-16.803,0
				c-15.916,0-31.831,0-47.747,0c-10.387,0-20.774,0-31.161,0c-5.295,0-3.631-8.994-3.631-12.464c0-56.074,0-112.148,0-168.222
				c0-5.936,0-11.872,0-17.808c0-3.669,3.632-3.219,6.112-3.219c4.956,0,9.912,0,14.868,0c27.267,0,54.534,0,81.8,0
				c6.08,0,4.789,5.765,4.789,10.294c0,10.512,0,21.024,0,31.537c0,31.724,0,63.448,0,95.172
				C187.127,237.891,187.127,258.443,187.127,278.996c0,6.448,10,6.448,10,0c0-49.47,0-98.939,0-148.409c0-11.79,0-23.58,0-35.37
				c0-6.088,1.104-13.716-2.229-19.111c-5.143-8.325-19.751-5.772-27.977-5.772c-15.626,0-31.253,0-46.879,0
				c-11.799,0-23.598,0-35.397,0c-5.983,0-11.517,2.083-14.015,8.022c-1.1,2.616-1.073,5.148-1.073,7.88c0,23.092,0,46.184,0,69.276
				c0,31.098,0,62.195,0,93.293c0,8.929,0,17.857,0,26.786c0,1.945-0.182,4.141,0.284,6.04c1.696,6.921,7.411,10.415,14.228,10.415
				c20.858,0,41.715,0,62.573,0c10.253,0,20.506,0,30.76,0c2.169,0,4.338,0,6.508,0c7.582,0,12.639-5.854,13.217-13.051
				C197.644,272.563,187.64,272.613,187.127,278.996z"/>
		</g>
	</g>
	<g>
		<g>
			<path style="fill:#FFFFFF;" d="M173.441,174.714c-0.386,3.825-7.999,2.5-10.467,2.5c-6.957,0-13.915,0-20.872,0
				c-14.169,0-28.338,0-42.506,0c-1.255,0-2.511,0-3.766,0c-3.209,0-2.772-3.244-2.772-5.372c0-2.804-1.97-18.008,2.569-18.008
				c10.892,0,21.784,0,32.676,0c12.867,0,25.733,0,38.6,0c3.355,0,6.538-0.429,6.538,4.049
				C173.441,163.493,173.441,169.104,173.441,174.714c0,4.514,7,4.514,7,0c0-9.403,3.629-27.88-10.562-27.88
				c-12.541,0-25.081,0-37.622,0c-12.032,0-24.063,0-36.095,0c-6.551,0-10.104,4.908-10.104,11.049c0,3.517,0,7.034,0,10.55
				c0,2.54-0.527,5.927,0.247,8.421c2.58,8.313,10.317,7.36,17.22,7.36c10.239,0,20.478,0,30.716,0c9.989,0,19.979,0,29.968,0
				c7.344,0,15.269,0.045,16.231-9.5C180.894,170.223,173.89,170.267,173.441,174.714z"/>
		</g>
	</g>
	<g>
		<g>
			<path style="fill:#FFFFFF;" d="M173.775,131.047c-0.386,3.825-7.999,2.5-10.467,2.5c-6.957,0-13.915,0-20.872,0
				c-14.169,0-28.337,0-42.506,0c-1.255,0-2.511,0-3.766,0c-3.209,0-2.772-3.244-2.772-5.372c0-2.804-1.97-18.008,2.569-18.008
				c10.892,0,21.784,0,32.676,0c12.867,0,25.733,0,38.6,0c3.355,0,6.538-0.429,6.538,4.049
				C173.775,119.827,173.775,125.437,173.775,131.047c0,4.514,7,4.514,7,0c0-9.403,3.628-27.88-10.562-27.88
				c-12.541,0-25.082,0-37.622,0c-12.032,0-24.063,0-36.095,0c-6.551,0-10.104,4.908-10.104,11.049c0,3.517,0,7.034,0,10.55
				c0,2.54-0.527,5.927,0.247,8.421c2.58,8.313,10.317,7.36,17.22,7.36c10.239,0,20.478,0,30.716,0c9.989,0,19.979,0,29.968,0
				c7.344,0,15.269,0.045,16.231-9.5C181.228,126.557,174.223,126.601,173.775,131.047z"/>
		</g>
	</g>
	<g>
		<g>
			<path style="fill:#FFFFFF;" d="M173.441,218.857c-0.386,3.825-7.999,2.5-10.467,2.5c-6.957,0-13.915,0-20.872,0
				c-14.169,0-28.338,0-42.506,0c-1.255,0-2.511,0-3.766,0c-3.209,0-2.772-3.244-2.772-5.372c0-2.804-1.97-18.009,2.569-18.009
				c10.892,0,21.784,0,32.676,0c12.867,0,25.733,0,38.6,0c3.355,0,6.538-0.43,6.538,4.049
				C173.441,207.636,173.441,213.247,173.441,218.857c0,4.514,7,4.514,7,0c0-9.402,3.629-27.881-10.562-27.881
				c-12.541,0-25.081,0-37.622,0c-12.032,0-24.063,0-36.095,0c-6.551,0-10.104,4.908-10.104,11.049c0,3.517,0,7.034,0,10.551
				c0,2.539-0.527,5.927,0.247,8.421c2.58,8.313,10.317,7.36,17.22,7.36c10.239,0,20.478,0,30.716,0c9.989,0,19.979,0,29.968,0
				c7.344,0,15.269,0.045,16.231-9.5C180.894,214.367,173.89,214.41,173.441,218.857z"/>
		</g>
	</g>
	<g>
		<g>
			<path style="fill:#FFFFFF;" d="M175.441,91c-0.174,3.224-4.826,3.224-5,0C170.268,87.774,175.269,87.792,175.441,91
				c0.104,1.924,3.104,1.934,3,0c-0.167-3.108-2.392-5.333-5.5-5.5c-3.102-0.167-5.346,2.643-5.5,5.5
				c-0.167,3.102,2.643,5.346,5.5,5.5c3.102,0.167,5.346-2.643,5.5-5.5C178.545,89.066,175.545,89.077,175.441,91z"/>
		</g>
	</g>
	<g>
		<g>
			<path style="fill:#FFFFFF;" d="M91.4,275c27.619,0,55.238,0,82.856,0c6.449,0,6.449-10,0-10c-27.619,0-55.238,0-82.856,0
				C84.952,265,84.952,275,91.4,275L91.4,275z"/>
		</g>
	</g>
	<g>
		<g>
			<path style="fill:#FFFFFF;" d="M91.4,262.072c27.619,0,55.238,0,82.856,0c6.449,0,6.449-10,0-10c-27.619,0-55.238,0-82.856,0
				C84.952,252.072,84.952,262.072,91.4,262.072L91.4,262.072z"/>
		</g>
	</g>
	<g>
		<g>
			<path style="fill:#FFFFFF;" d="M91.4,249.145c27.619,0,55.238,0,82.856,0c6.449,0,6.449-10,0-10c-27.619,0-55.238,0-82.856,0
				C84.952,239.145,84.952,249.145,91.4,249.145L91.4,249.145z"/>
		</g>
	</g>
	<g>
		<g>
			<path style="fill:#FFFFFF;" d="M206.992,251.783c27.248,0,54.496,0,81.744,0c4.514,0,4.514-7,0-7c-27.248,0-54.496,0-81.744,0
				C202.479,244.783,202.479,251.783,206.992,251.783L206.992,251.783z"/>
		</g>
	</g>
	<g>
		<g>
			<path style="fill:#FFFFFF;" d="M244.469,236.539c0,3.661,0,7.323,0,10.984c0,4.514,7,4.514,7,0c0-3.661,0-7.323,0-10.984
				C251.469,232.025,244.469,232.025,244.469,236.539L244.469,236.539z"/>
		</g>
	</g>
	<g>
		<g>
			<path style="fill:#FFFFFF;" d="M271.662,249.283c0,3.662,0,7.323,0,10.985c0,4.514,7,4.514,7,0c0-3.662,0-7.323,0-10.985
				C278.662,244.77,271.662,244.77,271.662,249.283L271.662,249.283z"/>
		</g>
	</g>
	<g>
		<g>
			<path style="fill:#FFFFFF;" d="M217.328,249.283c0,3.662,0,7.323,0,10.985c0,4.514,7,4.514,7,0c0-3.662,0-7.323,0-10.985
				C224.328,244.77,217.328,244.77,217.328,249.283L217.328,249.283z"/>
		</g>
	</g>
	<g>
		<g>
			<path style="fill:#FFFFFF;" d="M227.736,281.7c-0.021,0.128,1.651,0.134,0.433,0.134c-0.52,0-1.039,0-1.559,0
				c-1.623,0-3.247,0-4.87,0c-2.923,0-5.847,0-8.77,0c1.242,0,1.129,1.926,1.129,0.611c0-0.52,0-1.039,0-1.559
				c0-1.623,0-3.246,0-4.869c0-2.924,0-5.847,0-8.77c0,1.24-1.928,1.127-0.613,1.127c0.52,0,1.039,0,1.559,0c1.623,0,3.247,0,4.87,0
				c2.923,0,5.847,0,8.77,0c-1.24,0-1.127-1.926-1.127-0.611c0,0.52,0,1.039,0,1.559c0,1.928,0,3.854,0,5.782
				c0,2.642,0,5.283,0,7.925c0,6.448,10,6.448,10,0c0-7.509,2.954-22.794-7.476-24.476c-4.138-0.667-8.621-0.179-12.797-0.179
				c-5.656,0-11.887,0.53-13.007,7.476c-0.667,4.138-0.179,8.62-0.179,12.796c0,5.656,0.53,11.888,7.474,13.009
				c4.138,0.668,8.621,0.179,12.797,0.179c5.657,0,11.889-0.53,13.009-7.476C238.396,278.052,228.761,275.347,227.736,281.7z"/>
		</g>
	</g>
	<g>
		<g>
			<path style="fill:#FFFFFF;" d="M282.069,281.7c-0.021,0.128,1.654,0.134,0.435,0.134c-0.52,0-1.039,0-1.559,0
				c-1.624,0-3.247,0-4.87,0c-2.924,0-5.847,0-8.771,0c1.241,0,1.128,1.926,1.128,0.611c0-0.52,0-1.039,0-1.559
				c0-1.623,0-3.246,0-4.869c0-2.924,0-5.847,0-8.77c0,1.24-1.927,1.127-0.612,1.127c0.52,0,1.039,0,1.559,0c1.624,0,3.247,0,4.87,0
				c2.924,0,5.847,0,8.771,0c-1.242,0-1.129-1.926-1.129-0.611c0,0.52,0,1.039,0,1.559c0,1.928,0,3.854,0,5.782
				c0,2.642,0,5.283,0,7.925c0,6.448,10,6.448,10,0c0-7.508,2.954-22.793-7.474-24.476c-4.138-0.668-8.621-0.179-12.798-0.179
				c-5.656,0-11.888,0.53-13.008,7.476c-0.667,4.138-0.179,8.62-0.179,12.796c0,5.656,0.53,11.888,7.475,13.009
				c4.138,0.668,8.621,0.179,12.798,0.179c5.656,0,11.887-0.53,13.007-7.476C292.729,278.052,283.094,275.347,282.069,281.7z"/>
		</g>
	</g>
	<g>
		<g>
			<path style="fill:#FFFFFF;" d="M254.877,227.159c-0.021,0.127,1.651,0.133,0.433,0.133c-0.52,0-1.039,0-1.559,0
				c-1.623,0-3.247,0-4.87,0c-2.923,0-5.847,0-8.77,0c1.242,0,1.129,1.927,1.129,0.612c0-0.52,0-1.039,0-1.559
				c0-1.623,0-3.246,0-4.869c0-2.924,0-5.847,0-8.77c0,1.24-1.928,1.127-0.613,1.127c0.52,0,1.039,0,1.559,0c1.623,0,3.247,0,4.87,0
				c2.923,0,5.847,0,8.77,0c-1.24,0-1.127-1.926-1.127-0.611c0,0.52,0,1.039,0,1.559c0,1.928,0,3.854,0,5.782
				c0,2.642,0,5.283,0,7.925c0,6.448,10,6.448,10,0c0-7.509,2.954-22.793-7.476-24.476c-4.138-0.668-8.621-0.179-12.797-0.179
				c-5.656,0-11.887,0.53-13.007,7.476c-0.667,4.138-0.179,8.62-0.179,12.796c0,5.656,0.53,11.888,7.474,13.008
				c4.138,0.668,8.621,0.179,12.797,0.179c5.656,0,11.888-0.53,13.009-7.475C265.537,223.511,255.902,220.806,254.877,227.159z"/>
		</g>
	</g>
</g>
<g id="Ebene_1">
</g>
</svg>
