<?xml version="1.0" encoding="iso-8859-1"?>
<!-- Generator: Adobe Illustrator 16.0.0, SVG Export Plug-In . SVG Version: 6.00 Build 0)  -->
<!DOCTYPE svg PUBLIC "-//W3C//DTD SVG 1.1//EN" "http://www.w3.org/Graphics/SVG/1.1/DTD/svg11.dtd">
<svg version="1.1" xmlns="http://www.w3.org/2000/svg" xmlns:xlink="http://www.w3.org/1999/xlink" x="0px" y="0px" width="361px"
	 height="361px" viewBox="0 0 361 361" style="enable-background:new 0 0 361 361;" xml:space="preserve">
<g id="it_x5F_network">
	<g>
		<g>
			<path style="fill:#FFFFFF;" d="M75.333,184.667c48.697,0,97.394,0,146.091,0c21.97,0,43.939,0,65.909,0c6.448,0,6.448-10,0-10
				c-48.697,0-97.395,0-146.091,0c-21.97,0-43.939,0-65.909,0C68.884,174.667,68.884,184.667,75.333,184.667L75.333,184.667z"/>
		</g>
	</g>
	<g>
		<g>
			<path style="fill:#FFFFFF;" d="M185.833,175.167c0-8.167,0-16.333,0-24.5c0-6.449-10-6.449-10,0c0,8.167,0,16.333,0,24.5
				C175.833,181.615,185.833,181.615,185.833,175.167L185.833,175.167z"/>
		</g>
	</g>
	<g>
		<g>
			<path style="fill:#FFFFFF;" d="M255.833,210.667c0-8.833,0-17.667,0-26.5c0-6.449-10-6.449-10,0c0,8.833,0,17.667,0,26.5
				C245.833,217.115,255.833,217.115,255.833,210.667L255.833,210.667z"/>
		</g>
	</g>
	<g>
		<g>
			<path style="fill:#FFFFFF;" d="M114.833,210.417c0-8.75,0-17.5,0-26.25c0-6.449-10-6.449-10,0c0,8.75,0,17.5,0,26.25
				C104.833,216.865,114.833,216.865,114.833,210.417L114.833,210.417z"/>
		</g>
	</g>
	<path style="fill:none;stroke:#FFFFFF;stroke-width:10;stroke-miterlimit:10;" d="M140.083,270.167c0,3.313-2.687,6-6,6h-49
		c-3.313,0-6-2.687-6-6v-49c0-3.313,2.687-6,6-6h49c3.313,0,6,2.687,6,6V270.167z"/>
	<path style="fill:none;stroke:#FFFFFF;stroke-width:10;stroke-miterlimit:10;" d="M282.083,270.167c0,3.313-2.687,6-6,6h-49
		c-3.313,0-6-2.687-6-6v-49c0-3.313,2.687-6,6-6h49c3.313,0,6,2.687,6,6V270.167z"/>
	<path style="fill:none;stroke:#FFFFFF;stroke-width:10;stroke-miterlimit:10;" d="M211.083,140.167c0,3.313-2.687,6-6,6h-49
		c-3.313,0-6-2.687-6-6v-49c0-3.313,2.687-6,6-6h49c3.313,0,6,2.687,6,6V140.167z"/>
</g>
<g id="Ebene_1">
</g>
</svg>
