<?xml version="1.0" encoding="iso-8859-1"?>
<!-- Generator: Adobe Illustrator 16.0.0, SVG Export Plug-In . SVG Version: 6.00 Build 0)  -->
<!DOCTYPE svg PUBLIC "-//W3C//DTD SVG 1.1//EN" "http://www.w3.org/Graphics/SVG/1.1/DTD/svg11.dtd">
<svg version="1.1" xmlns="http://www.w3.org/2000/svg" xmlns:xlink="http://www.w3.org/1999/xlink" x="0px" y="0px" width="361px"
	 height="361px" viewBox="0 0 361 361" style="enable-background:new 0 0 361 361;" xml:space="preserve">
<g id="it_x5F_pc">
	<path style="fill:none;stroke:#FFFFFF;stroke-width:10;" d="M203.833,251.27c0,2.98-2.687,5.397-6,5.397h-109
		c-3.313,0-6-2.417-6-5.397v-78.706c0-2.98,2.687-5.397,6-5.397h109c3.313,0,6,2.417,6,5.397V251.27z"/>
	<g>
		<g>
			<path style="fill:#FFFFFF;" d="M109.333,274.167c21.5,0,43,0,64.5,0c6.449,0,6.449-10,0-10c-21.5,0-43,0-64.5,0
				C102.884,264.167,102.884,274.167,109.333,274.167L109.333,274.167z"/>
		</g>
	</g>
	<path style="fill:none;stroke:#FFFFFF;stroke-width:10;" d="M158.833,262.917c0,2.347-1.903,4.25-4.25,4.25h-26.5
		c-2.347,0-4.25-1.903-4.25-4.25l0,0c0-2.347,1.903-4.25,4.25-4.25h26.5C156.93,258.667,158.833,260.57,158.833,262.917
		L158.833,262.917z"/>
	<path style="fill:none;stroke:#FFFFFF;stroke-width:10;" d="M287.333,262.167c0,3.313-2.687,6-6,6h-55.5c-3.313,0-6-2.687-6-6v-162
		c0-3.313,2.687-6,6-6h55.5c3.313,0,6,2.687,6,6V262.167z"/>
	<g>
		<g>
			<path style="fill:#FFFFFF;" d="M232.833,115.167c14,0,28,0,42,0c6.448,0,6.448-10,0-10c-14,0-28,0-42,0
				C226.385,105.167,226.385,115.167,232.833,115.167L232.833,115.167z"/>
		</g>
	</g>
	<g>
		<g>
			<path style="fill:#FFFFFF;" d="M232.833,138.167c14,0,28,0,42,0c6.448,0,6.448-10,0-10c-14,0-28,0-42,0
				C226.385,128.167,226.385,138.167,232.833,138.167L232.833,138.167z"/>
		</g>
	</g>
	<path style="fill:#FFFFFF;" d="M257.333,200.887c0,1.535-1.245,2.78-2.78,2.78h-3.939c-1.535,0-2.78-1.245-2.78-2.78v-3.939
		c0-1.535,1.245-2.78,2.78-2.78h3.939c1.535,0,2.78,1.245,2.78,2.78V200.887z"/>
	<path style="fill:#FFFFFF;" d="M280.043,254.551c0,3.93-3.188,7.116-7.117,7.116h-39.139c-3.931,0-7.117-3.187-7.117-7.116v-36.768
		c0-3.93,3.187-7.116,7.117-7.116h39.139c3.93,0,7.117,3.187,7.117,7.116V254.551z"/>
</g>
<g id="Ebene_1">
</g>
</svg>
