<?xml version="1.0" encoding="iso-8859-1"?>
<!-- Generator: Adobe Illustrator 16.0.0, SVG Export Plug-In . SVG Version: 6.00 Build 0)  -->
<!DOCTYPE svg PUBLIC "-//W3C//DTD SVG 1.1//EN" "http://www.w3.org/Graphics/SVG/1.1/DTD/svg11.dtd">
<svg version="1.1" xmlns="http://www.w3.org/2000/svg" xmlns:xlink="http://www.w3.org/1999/xlink" x="0px" y="0px" width="361px"
	 height="361px" viewBox="0 0 361 361" style="enable-background:new 0 0 361 361;" xml:space="preserve">
<g id="it_x5F_router">
	<path style="fill:none;stroke:#FFFFFF;stroke-width:10;" d="M284.333,232.167c0,3.313-2.687,6-6,6h-195c-3.313,0-6-2.687-6-6v-23
		c0-3.313,2.687-6,6-6h195c3.313,0,6,2.687,6,6V232.167z"/>
	<g>
		<g>
			<path style="fill:#FFFFFF;" d="M90.833,248.667c10,0,20,0,30,0c6.449,0,6.449-10,0-10c-10,0-20,0-30,0
				C84.384,238.667,84.384,248.667,90.833,248.667L90.833,248.667z"/>
		</g>
	</g>
	<g>
		<g>
			<path style="fill:#FFFFFF;" d="M239.833,248.667c10,0,20,0,30,0c6.448,0,6.448-10,0-10c-10,0-20,0-30,0
				C233.385,238.667,233.385,248.667,239.833,248.667L239.833,248.667z"/>
		</g>
	</g>
	<g>
		<g>
			<path style="fill:#FFFFFF;" d="M88.012,107.996c6.667,30.333,13.333,60.667,20,91c1.384,6.298,11.024,3.626,9.643-2.658
				c-6.667-30.333-13.333-60.667-20-91C96.271,99.041,86.63,101.711,88.012,107.996L88.012,107.996z"/>
		</g>
	</g>
	<path style="fill:#FFFFFF;" d="M120.854,198.36c0.615,2.798-1.51,5.642-4.746,6.354l-3.418,0.751
		c-3.236,0.712-6.358-0.979-6.974-3.775l-6.96-31.657c-0.615-2.797,1.51-5.641,4.746-6.353l3.418-0.751
		c3.236-0.711,6.358,0.979,6.974,3.776L120.854,198.36z"/>
	<g>
		<g>
			<path style="fill:#FFFFFF;" d="M265.139,105.338c-6.667,30.333-13.333,60.667-20,91c-1.382,6.284,8.259,8.956,9.643,2.658
				c6.667-30.333,13.333-60.667,20-91C276.162,101.711,266.522,99.041,265.139,105.338L265.139,105.338z"/>
		</g>
	</g>
	<path style="fill:#FFFFFF;" d="M241.939,198.36c-0.615,2.798,1.51,5.642,4.746,6.354l3.418,0.751
		c3.236,0.712,6.359-0.979,6.975-3.775l6.96-31.657c0.614-2.797-1.51-5.641-4.746-6.353l-3.419-0.751
		c-3.236-0.711-6.357,0.979-6.973,3.776L241.939,198.36z"/>
	<g>
		<g>
			<path style="fill:#FFFFFF;" d="M105.083,225.167c1.5,0,3,0,4.5,0c2.726,0,5-2.274,5-5s-2.274-5-5-5c-1.5,0-3,0-4.5,0
				c-2.726,0-5,2.274-5,5S102.357,225.167,105.083,225.167L105.083,225.167z"/>
		</g>
	</g>
	<g>
		<g>
			<path style="fill:#FFFFFF;" d="M197.083,226.167c1.5,0,3,0,4.5,0c2.726,0,5-2.274,5-5s-2.274-5-5-5c-1.5,0-3,0-4.5,0
				c-2.726,0-5,2.274-5,5S194.357,226.167,197.083,226.167L197.083,226.167z"/>
		</g>
	</g>
	<g>
		<g>
			<path style="fill:#FFFFFF;" d="M216.083,226.167c1.5,0,3,0,4.5,0c2.726,0,5-2.274,5-5s-2.274-5-5-5c-1.5,0-3,0-4.5,0
				c-2.726,0-5,2.274-5,5S213.357,226.167,216.083,226.167L216.083,226.167z"/>
		</g>
	</g>
	<g>
		<g>
			<path style="fill:#FFFFFF;" d="M236.083,226.167c1.5,0,3,0,4.5,0c2.726,0,5-2.274,5-5s-2.274-5-5-5c-1.5,0-3,0-4.5,0
				c-2.726,0-5,2.274-5,5S233.357,226.167,236.083,226.167L236.083,226.167z"/>
		</g>
	</g>
	<g>
		<g>
			<path style="fill:#FFFFFF;" d="M256.083,226.167c1.5,0,3,0,4.5,0c2.726,0,5-2.274,5-5s-2.274-5-5-5c-1.5,0-3,0-4.5,0
				c-2.726,0-5,2.274-5,5S253.357,226.167,256.083,226.167L256.083,226.167z"/>
		</g>
	</g>
</g>
<g id="Ebene_1">
</g>
</svg>
