<?xml version="1.0" encoding="iso-8859-1"?>
<!-- Generator: Adobe Illustrator 16.0.0, SVG Export Plug-In . SVG Version: 6.00 Build 0)  -->
<!DOCTYPE svg PUBLIC "-//W3C//DTD SVG 1.1 Tiny//EN" "http://www.w3.org/Graphics/SVG/1.1/DTD/svg11-tiny.dtd">
<svg version="1.1" baseProfile="tiny" id="it_x5F_remote"
	 xmlns="http://www.w3.org/2000/svg" xmlns:xlink="http://www.w3.org/1999/xlink" x="0px" y="0px" width="361px" height="361px"
	 viewBox="0 0 361 361" xml:space="preserve">
<g>
	<path fill="#FFFFFF" d="M134.469,109.927c-16.754,0.424-29.773,13.444-30.196,30.198c-0.114,4.517,6.886,4.506,7,0
		c0.326-12.901,10.295-22.871,23.196-23.198C138.975,116.813,138.986,109.813,134.469,109.927L134.469,109.927z"/>
</g>
<g>
	<path fill="#FFFFFF" d="M134.713,91.784c-26.806,0.409-48.234,21.836-48.643,48.642c-0.069,4.517,6.931,4.51,7,0
		c0.351-22.979,18.664-41.292,41.643-41.642C139.223,98.715,139.229,91.715,134.713,91.784L134.713,91.784z"/>
</g>
<g>
	<path fill="#FFFFFF" d="M134.838,73.922c-36.539,0.399-66.105,29.963-66.504,66.502c-0.049,4.516,6.951,4.511,7,0
		c0.357-32.726,26.779-59.145,59.504-59.502C139.349,80.873,139.354,73.873,134.838,73.922L134.838,73.922z"/>
</g>
<g id="fernbedienung_x5F_orig" display="none">
	<g display="inline">
		<path fill="#FFFFFF" d="M236.05,296.229c-0.348,1.739-9.019,0.783-10.925,0.787c-7.784,0.017-15.567,0.033-23.351,0.05
			c-7.113,0.015-14.225,0.031-21.338,0.046c-1.768,0.004-3.535,0.008-5.303,0.012c-0.809,0.001-0.569,0.366-0.571-0.307
			c-0.038-21.593-0.076-43.187-0.115-64.78c-0.053-29.703-0.105-59.406-0.158-89.109c-0.007-3.941-0.014-7.882-0.021-11.823
			c-0.001-0.926-0.026-3.705,0.001-3.705c12.365-0.026,24.729-0.053,37.094-0.08c6.709-0.015,13.419-0.029,20.129-0.043
			c1.965-0.004,4.13-0.853,4.132,0.726c0.014,7.817,0.028,15.635,0.042,23.452c0.055,30.941,0.11,61.883,0.165,92.825
			c0.031,17.626,0.063,35.253,0.094,52.879c0.008,4.514,7.008,4.515,7,0c-0.088-49.739-0.176-99.478-0.264-149.217
			c-0.012-6.859-0.024-13.719-0.037-20.578c-0.009-5.003-4.08-7.102-8.455-7.093c-5.697,0.012-11.394,0.024-17.091,0.037
			c-13.792,0.03-27.583,0.06-41.375,0.089c-8.909,0.019-8.441,7.215-8.43,13.713c0.094,52.882,0.188,105.763,0.281,158.645
			c0.009,4.795-0.188,10.023,5.91,11.245c5.839,1.169,12.816,0.099,18.726,0.086c10.714-0.023,21.428-0.046,32.142-0.069
			c6.02-0.013,16.863,2.092,18.467-5.927C243.682,293.683,236.936,291.805,236.05,296.229z"/>
	</g>
	<g display="inline">
		<path fill="#FFFFFF" d="M201.214,148.146c2.573-0.004,5.145-0.009,7.718-0.014c4.514-0.008,4.515-7.008,0-7
			c-2.573,0.004-5.145,0.009-7.718,0.014C196.7,141.154,196.699,148.154,201.214,148.146L201.214,148.146z"/>
	</g>
	<g display="inline">
		<path fill="#FFFFFF" d="M218.679,148.116c2.573-0.004,5.146-0.009,7.719-0.014c4.514-0.008,4.515-7.008,0-7
			c-2.573,0.004-5.146,0.009-7.719,0.014C214.165,141.124,214.164,148.124,218.679,148.116L218.679,148.116z"/>
	</g>
	<g display="inline">
		<path fill="#FFFFFF" d="M183.593,148.178c2.573-0.005,5.145-0.009,7.718-0.014c4.514-0.008,4.515-7.008,0-7
			c-2.573,0.005-5.145,0.009-7.718,0.014C179.08,141.187,179.079,148.187,183.593,148.178L183.593,148.178z"/>
	</g>
	<g display="inline">
		<path fill="#FFFFFF" d="M200.972,160.622c2.573-0.004,5.146-0.009,7.719-0.014c4.514-0.008,4.515-7.008,0-7
			c-2.573,0.004-5.146,0.009-7.719,0.014C196.458,153.629,196.457,160.629,200.972,160.622L200.972,160.622z"/>
	</g>
	<g display="inline">
		<path fill="#FFFFFF" d="M218.437,160.59c2.573-0.004,5.146-0.009,7.719-0.014c4.514-0.008,4.515-7.008,0-7
			c-2.573,0.004-5.146,0.009-7.719,0.014C213.923,153.598,213.922,160.598,218.437,160.59L218.437,160.59z"/>
	</g>
	<g display="inline">
		<path fill="#FFFFFF" d="M183.351,160.653c2.573-0.005,5.146-0.009,7.719-0.014c4.514-0.008,4.515-7.008,0-7
			c-2.573,0.005-5.146,0.009-7.719,0.014C178.837,153.661,178.836,160.661,183.351,160.653L183.351,160.653z"/>
	</g>
	<g display="inline">
		<path fill="#FFFFFF" d="M213.458,137.528c2.924-0.005,5.847-0.011,8.771-0.016c4.514-0.008,4.515-7.008,0-7
			c-2.924,0.005-5.847,0.011-8.771,0.016C208.945,130.537,208.944,137.537,213.458,137.528L213.458,137.528z"/>
	</g>
	<g display="inline">
		<path fill="#FFFFFF" d="M182.315,176.933c3.029-0.005,6.058-0.011,9.087-0.017c4.514-0.008,4.515-7.008,0-7
			c-3.029,0.005-6.058,0.011-9.087,0.017C177.801,169.941,177.8,176.941,182.315,176.933L182.315,176.933z"/>
	</g>
	<g display="inline">
		<path fill="#FFFFFF" d="M201.707,221.549c2.572-0.004,5.145-0.009,7.717-0.014c4.514-0.008,4.515-7.008,0-7
			c-2.572,0.004-5.145,0.009-7.717,0.014C197.193,214.557,197.192,221.557,201.707,221.549L201.707,221.549z"/>
	</g>
	<g display="inline">
		<path fill="#FFFFFF" d="M219.171,221.519c2.573-0.004,5.146-0.009,7.719-0.014c4.514-0.008,4.515-7.008,0-7
			c-2.573,0.004-5.146,0.009-7.719,0.014C214.658,214.526,214.657,221.526,219.171,221.519L219.171,221.519z"/>
	</g>
	<g display="inline">
		<path fill="#FFFFFF" d="M184.086,221.581c2.573-0.005,5.146-0.009,7.719-0.014c4.514-0.008,4.515-7.008,0-7
			c-2.573,0.005-5.146,0.009-7.719,0.014C179.572,214.589,179.571,221.589,184.086,221.581L184.086,221.581z"/>
	</g>
	<g display="inline">
		<path fill="#FFFFFF" d="M201.468,236.025c2.573-0.005,5.146-0.009,7.719-0.014c4.514-0.008,4.515-7.008,0-7
			c-2.573,0.005-5.146,0.009-7.719,0.014C196.954,229.033,196.953,236.033,201.468,236.025L201.468,236.025z"/>
	</g>
	<g display="inline">
		<path fill="#FFFFFF" d="M218.933,235.993c2.573-0.004,5.146-0.009,7.719-0.013c4.514-0.008,4.515-7.008,0-7
			c-2.573,0.004-5.146,0.009-7.719,0.013C214.419,229.001,214.418,236.001,218.933,235.993L218.933,235.993z"/>
	</g>
	<g display="inline">
		<path fill="#FFFFFF" d="M183.848,236.055c2.573-0.004,5.146-0.009,7.719-0.013c4.514-0.008,4.515-7.008,0-7
			c-2.573,0.004-5.146,0.009-7.719,0.013C179.334,229.063,179.333,236.063,183.848,236.055L183.848,236.055z"/>
	</g>
	<g display="inline">
		<path fill="#FFFFFF" d="M201.573,251.05c2.573-0.004,5.146-0.009,7.719-0.013c4.514-0.008,4.515-7.008,0-7
			c-2.573,0.004-5.146,0.009-7.719,0.013C197.059,244.058,197.058,251.058,201.573,251.05L201.573,251.05z"/>
	</g>
	<g display="inline">
		<path fill="#FFFFFF" d="M219.037,251.018c2.573-0.004,5.146-0.009,7.719-0.013c4.514-0.008,4.515-7.008,0-7
			c-2.573,0.004-5.146,0.009-7.719,0.013C214.523,244.026,214.522,251.026,219.037,251.018L219.037,251.018z"/>
	</g>
	<g display="inline">
		<path fill="#FFFFFF" d="M183.952,251.081c2.573-0.005,5.146-0.009,7.718-0.014c4.514-0.008,4.515-7.008,0-7
			c-2.573,0.005-5.146,0.009-7.718,0.014C179.438,244.089,179.438,251.089,183.952,251.081L183.952,251.081z"/>
	</g>
	<g display="inline">
		<path fill="#FFFFFF" d="M220.51,210.717c1.901-0.003,3.801-0.007,5.702-0.01c1.908-0.003,3.5-1.589,3.5-3.5
			c0-1.905-1.592-3.503-3.5-3.5c-1.901,0.003-3.801,0.007-5.702,0.01c-1.908,0.003-3.5,1.589-3.5,3.5
			C217.01,209.122,218.602,210.72,220.51,210.717L220.51,210.717z"/>
	</g>
	<g display="inline">
		<path fill="#FFFFFF" d="M185.316,278.73c0.664-0.001,1.329-0.002,1.993-0.004c1.908-0.004,3.5-1.589,3.5-3.5
			c0-1.905-1.592-3.504-3.5-3.5c-0.664,0.001-1.329,0.002-1.993,0.004c-1.908,0.004-3.5,1.589-3.5,3.5
			C181.816,277.136,183.409,278.734,185.316,278.73L185.316,278.73z"/>
	</g>
	<g display="inline">
		<path fill="#FFFFFF" d="M197.781,278.7c0.664-0.001,1.329-0.002,1.993-0.004c1.908-0.004,3.5-1.589,3.5-3.5
			c0-1.905-1.592-3.504-3.5-3.5c-0.664,0.001-1.329,0.002-1.993,0.004c-1.908,0.004-3.5,1.589-3.5,3.5
			C194.281,277.105,195.873,278.704,197.781,278.7L197.781,278.7z"/>
	</g>
	<g display="inline">
		<path fill="#FFFFFF" d="M210.409,278.671c0.664-0.001,1.328-0.002,1.992-0.003c1.908-0.003,3.5-1.59,3.5-3.5
			c0-1.905-1.592-3.503-3.5-3.5c-0.664,0.001-1.328,0.002-1.992,0.003c-1.908,0.003-3.5,1.589-3.5,3.5
			C206.909,277.077,208.501,278.675,210.409,278.671L210.409,278.671z"/>
	</g>
	<g display="inline">
		<path fill="#FFFFFF" d="M222.948,278.638c0.664-0.001,1.329-0.002,1.993-0.003c1.908-0.003,3.5-1.59,3.5-3.5
			c0-1.905-1.592-3.503-3.5-3.5c-0.664,0.001-1.329,0.002-1.993,0.003c-1.908,0.003-3.5,1.589-3.5,3.5
			C219.448,277.043,221.04,278.642,222.948,278.638L222.948,278.638z"/>
	</g>
	<g display="inline">
		<path fill="#FFFFFF" d="M201.213,266.222c2.573-0.005,5.146-0.009,7.718-0.014c4.514-0.008,4.515-7.008,0-7
			c-2.573,0.005-5.146,0.009-7.718,0.014C196.7,259.23,196.699,266.23,201.213,266.222L201.213,266.222z"/>
	</g>
	<g display="inline">
		<path fill="#FFFFFF" d="M198.091,179.933c2.053-0.59,4.239-1.32,6.381-1.427c2.046-0.103,4.43,0.86,6.381,1.427
			c-0.349-0.349-0.698-0.698-1.047-1.047c-0.187-0.764,0.026-0.716-0.2-0.124c-0.161,0.423-0.353,0.834-0.537,1.248
			c-0.477,1.074-0.983,2.136-1.512,3.185c-0.142,0.282-0.293,0.558-0.453,0.831c0.398-0.679,1.664-0.562,0.729-0.562
			c-1.03,0-2.061,0-3.091,0c-0.989,0-1.979,0-2.968,0c-0.296,0-0.593,0-0.889,0c-0.081,0,1.3,1.211,0.678,0.069
			c-0.539-0.99-1.003-2.025-1.474-3.049c-0.206-0.449-0.404-0.902-0.601-1.355c-0.29-0.667-0.122-1.175-0.35-0.243
			c0.46-1.879-2.432-2.676-2.893-0.798c-0.463,1.89,1.745,5.021,2.551,6.621c1.159,2.299,3.102,1.755,5.405,1.755
			c2.072,0,4.629,0.677,5.769-1.417c0.881-1.619,3.202-5.021,2.727-6.959c-0.125-0.509-0.554-0.904-1.047-1.047
			c-2.323-0.676-4.751-1.417-7.179-1.535c-2.33-0.113-4.963,0.898-7.179,1.535C195.437,177.574,196.227,180.469,198.091,179.933z"/>
	</g>
	<g display="inline">
		<path fill="#FFFFFF" d="M210.853,202.038c-2.053,0.59-4.239,1.32-6.381,1.427c-2.046,0.103-4.43-0.86-6.381-1.427
			c0.349,0.349,0.698,0.698,1.047,1.047c0.187,0.764-0.026,0.716,0.2,0.124c0.162-0.423,0.353-0.834,0.537-1.248
			c0.477-1.074,0.983-2.136,1.512-3.185c0.142-0.282,0.293-0.558,0.453-0.831c-0.398,0.679-1.664,0.562-0.729,0.562
			c1.03,0,2.061,0,3.091,0c0.989,0,1.979,0,2.968,0c0.296,0,0.593,0,0.889,0c0.081,0-1.3-1.211-0.678-0.069
			c0.539,0.99,1.003,2.025,1.474,3.049c0.206,0.449,0.404,0.902,0.601,1.355c0.29,0.667,0.122,1.175,0.35,0.243
			c-0.46,1.879,2.432,2.676,2.893,0.798c0.463-1.89-1.745-5.021-2.551-6.621c-1.159-2.299-3.102-1.755-5.405-1.755
			c-2.072,0-4.629-0.677-5.769,1.417c-0.881,1.619-3.202,5.021-2.727,6.959c0.125,0.509,0.554,0.904,1.047,1.047
			c2.323,0.676,4.751,1.417,7.179,1.535c2.33,0.113,4.963-0.898,7.179-1.535C213.507,204.397,212.717,201.502,210.853,202.038z"/>
	</g>
	<g display="inline">
		<path fill="#FFFFFF" d="M192.42,197.159c-0.59-2.053-1.32-4.239-1.428-6.381c-0.103-2.046,0.86-4.43,1.428-6.381
			c-0.349,0.349-0.698,0.698-1.047,1.047c-0.764,0.187-0.716-0.026-0.124,0.2c0.423,0.161,0.834,0.353,1.248,0.537
			c1.074,0.477,2.136,0.983,3.185,1.512c0.282,0.142,0.558,0.293,0.831,0.453c-0.679-0.399-0.562-1.665-0.562-0.729
			c0,1.03,0,2.061,0,3.091c0,0.99,0,1.979,0,2.969c0,0.296,0,0.592,0,0.889c0,0.082,1.211-1.3,0.069-0.678
			c-0.99,0.539-2.025,1.003-3.049,1.474c-0.449,0.206-0.902,0.404-1.355,0.601c-0.667,0.29-1.175,0.122-0.243,0.35
			c-1.879-0.46-2.676,2.432-0.798,2.893c1.89,0.463,5.021-1.745,6.621-2.551c2.299-1.159,1.755-3.102,1.755-5.405
			c0-2.072,0.677-4.63-1.417-5.77c-1.619-0.881-5.021-3.202-6.959-2.727c-0.509,0.125-0.904,0.554-1.047,1.047
			c-0.676,2.323-1.417,4.751-1.535,7.179c-0.114,2.33,0.898,4.964,1.535,7.179C190.061,199.813,192.956,199.023,192.42,197.159z"/>
	</g>
	<g display="inline">
		<path fill="#FFFFFF" d="M216.524,184.396c0.589,2.053,1.319,4.239,1.427,6.381c0.103,2.046-0.859,4.43-1.427,6.381
			c0.349-0.349,0.698-0.698,1.047-1.047c0.764-0.187,0.716,0.026,0.124-0.2c-0.423-0.161-0.834-0.353-1.248-0.537
			c-1.074-0.477-2.136-0.983-3.186-1.512c-0.282-0.142-0.558-0.293-0.831-0.453c0.679,0.399,0.562,1.665,0.562,0.729
			c0-1.03,0-2.061,0-3.091c0-0.99,0-1.979,0-2.969c0-0.296,0-0.592,0-0.889c0-0.081-1.211,1.3-0.069,0.678
			c0.99-0.539,2.025-1.003,3.049-1.474c0.449-0.206,0.902-0.404,1.355-0.601c0.667-0.29,1.175-0.122,0.243-0.35
			c1.879,0.46,2.676-2.432,0.798-2.893c-1.89-0.463-5.022,1.745-6.622,2.551c-2.299,1.159-1.755,3.102-1.755,5.405
			c0,2.072-0.677,4.63,1.417,5.77c1.619,0.881,5.021,3.202,6.96,2.727c0.509-0.125,0.904-0.554,1.047-1.047
			c0.675-2.323,1.416-4.751,1.534-7.179c0.113-2.33-0.898-4.964-1.534-7.179C218.884,181.743,215.989,182.533,216.524,184.396z"/>
	</g>
	<g display="inline">
		<path fill="#FFFFFF" d="M217.908,176.941c3.029-0.005,6.058-0.011,9.087-0.017c4.514-0.008,4.515-7.008,0-7
			c-3.029,0.005-6.058,0.011-9.087,0.017C213.394,169.95,213.393,176.95,217.908,176.941L217.908,176.941z"/>
	</g>
</g>
<g id="fernbedienung">
	<g>
		<path fill="#FFFFFF" d="M282.938,241.887c1.082,1.623-5.593,6.829-6.919,8.161c-5.408,5.432-10.816,10.863-16.224,16.294
			c-1.482,1.489-21.521,21.725-21.629,21.618c-14.137-14.087-28.275-28.175-42.412-42.262
			c-21.862-21.785-43.725-43.57-65.586-65.355c-5.504-5.484-11.008-10.969-16.511-16.453c-1.321-1.316,0.57-2.012,1.806-3.253
			c4.507-4.527,9.015-9.053,13.522-13.58c9.449-9.49,18.897-18.979,28.346-28.469c1.233-1.238,1.216-0.488,2.462,0.753
			c2.374,2.366,4.749,4.732,7.123,7.098c20.319,20.247,40.638,40.494,60.956,60.74c18.538,18.473,37.076,36.945,55.614,55.417
			c3.2,3.188,8.15-1.761,4.95-4.95c-35.339-35.214-70.679-70.428-106.018-105.642c-6.004-5.983-12.009-11.967-18.014-17.95
			c-2.949-2.938-6.524-4.451-10.441-1.84c-2.867,1.911-5.248,5.106-7.656,7.524c-10.64,10.686-21.28,21.372-31.92,32.058
			c-2.646,2.658-5.658,5.171-7.738,8.315c-2.288,3.458,0.382,7.06,2.786,9.455c37.558,37.425,75.116,74.851,112.673,112.276
			c3.62,3.606,7.24,7.213,10.859,10.82c6.362,6.34,12.361-1.869,16.611-6.137c8.902-8.94,17.804-17.881,26.706-26.821
			c3.417-3.432,6.835-6.865,10.253-10.297c3.135-3.149,5.356-6.687,2.445-11.052C286.491,234.619,280.425,238.12,282.938,241.887z"
			/>
	</g>
	<g>
		<path fill="#FFFFFF" d="M148.126,158.507c1.889-1.896,3.778-3.792,5.668-5.688c1.346-1.351,1.35-3.6,0-4.95
			c-1.347-1.347-3.604-1.351-4.95,0c-1.889,1.896-3.778,3.792-5.668,5.688c-1.346,1.351-1.35,3.6,0,4.95
			C144.523,159.854,146.78,159.858,148.126,158.507L148.126,158.507z"/>
	</g>
	<g>
		<path fill="#FFFFFF" d="M160.952,145.637c1.89-1.896,3.779-3.793,5.669-5.689c1.346-1.351,1.35-3.6,0-4.95
			c-1.347-1.346-3.604-1.351-4.95,0c-1.89,1.896-3.779,3.793-5.669,5.689c-1.346,1.351-1.35,3.6,0,4.95
			C157.348,146.983,159.605,146.988,160.952,145.637L160.952,145.637z"/>
	</g>
	<g>
		<path fill="#FFFFFF" d="M135.187,171.494c1.889-1.896,3.778-3.792,5.667-5.688c1.346-1.351,1.35-3.6,0-4.95
			c-1.347-1.346-3.604-1.351-4.95,0c-1.889,1.896-3.778,3.792-5.667,5.688c-1.346,1.351-1.35,3.6,0,4.95
			C131.583,172.84,133.84,172.844,135.187,171.494L135.187,171.494z"/>
	</g>
	<g>
		<path fill="#FFFFFF" d="M157.125,167.863c1.89-1.896,3.779-3.792,5.669-5.688c1.346-1.351,1.35-3.6,0-4.95
			c-1.347-1.347-3.604-1.351-4.95,0c-1.89,1.896-3.779,3.792-5.669,5.688c-1.346,1.351-1.35,3.6,0,4.95
			C153.522,169.21,155.779,169.214,157.125,167.863L157.125,167.863z"/>
	</g>
	<g>
		<path fill="#FFFFFF" d="M169.951,154.993c1.889-1.896,3.779-3.792,5.668-5.688c1.346-1.351,1.35-3.6,0-4.95
			c-1.347-1.346-3.604-1.351-4.95,0c-1.889,1.896-3.779,3.792-5.668,5.688c-1.346,1.351-1.35,3.6,0,4.95
			C166.347,156.339,168.604,156.343,169.951,154.993L169.951,154.993z"/>
	</g>
	<g>
		<path fill="#FFFFFF" d="M144.186,180.849c1.889-1.896,3.778-3.793,5.668-5.689c1.346-1.351,1.35-3.6,0-4.95
			c-1.347-1.346-3.604-1.351-4.95,0c-1.889,1.896-3.778,3.793-5.668,5.689c-1.346,1.351-1.35,3.6,0,4.95
			C140.582,182.195,142.839,182.199,144.186,180.849L144.186,180.849z"/>
	</g>
	<g>
		<path fill="#FFFFFF" d="M149.322,141.688c2.146-2.155,4.293-4.31,6.44-6.465c3.188-3.201-1.761-8.151-4.95-4.95
			c-2.146,2.155-4.293,4.31-6.44,6.465C141.184,139.939,146.133,144.889,149.322,141.688L149.322,141.688z"/>
	</g>
	<g>
		<path fill="#FFFFFF" d="M155.4,193.588c2.224-2.233,4.449-4.465,6.673-6.698c3.188-3.2-1.761-8.151-4.95-4.95
			c-2.224,2.233-4.449,4.465-6.673,6.698C147.262,191.838,152.21,196.789,155.4,193.588L155.4,193.588z"/>
	</g>
	<g>
		<path fill="#FFFFFF" d="M202.489,212.145c1.889-1.896,3.778-3.792,5.667-5.688c1.346-1.351,1.35-3.6,0-4.95
			c-1.347-1.346-3.604-1.351-4.95,0c-1.889,1.896-3.778,3.792-5.667,5.688c-1.346,1.351-1.35,3.6,0,4.95
			C198.885,213.491,201.143,213.496,202.489,212.145L202.489,212.145z"/>
	</g>
	<g>
		<path fill="#FFFFFF" d="M215.314,199.274c1.889-1.896,3.778-3.792,5.668-5.688c1.346-1.351,1.35-3.6,0-4.95
			c-1.347-1.346-3.604-1.351-4.95,0c-1.889,1.896-3.778,3.792-5.668,5.688c-1.346,1.351-1.35,3.6,0,4.95
			C211.711,200.621,213.968,200.625,215.314,199.274L215.314,199.274z"/>
	</g>
	<g>
		<path fill="#FFFFFF" d="M189.549,225.131c1.889-1.896,3.779-3.793,5.668-5.689c1.346-1.351,1.35-3.6,0-4.95
			c-1.347-1.346-3.604-1.351-4.95,0c-1.889,1.896-3.779,3.793-5.668,5.689c-1.346,1.351-1.35,3.6,0,4.95
			C185.945,226.478,188.203,226.482,189.549,225.131L189.549,225.131z"/>
	</g>
	<g>
		<path fill="#FFFFFF" d="M212.962,222.97c1.889-1.896,3.778-3.793,5.667-5.689c1.346-1.351,1.35-3.6,0-4.95
			c-1.347-1.346-3.604-1.351-4.95,0c-1.889,1.896-3.778,3.793-5.667,5.689c-1.346,1.351-1.35,3.6,0,4.95
			C209.359,224.316,211.616,224.32,212.962,222.97L212.962,222.97z"/>
	</g>
	<g>
		<path fill="#FFFFFF" d="M225.787,210.098c1.89-1.896,3.779-3.792,5.669-5.688c1.346-1.351,1.35-3.6,0-4.95
			c-1.347-1.347-3.604-1.351-4.95,0c-1.89,1.896-3.779,3.792-5.669,5.688c-1.346,1.351-1.35,3.6,0,4.95
			C222.184,211.445,224.44,211.449,225.787,210.098L225.787,210.098z"/>
	</g>
	<g>
		<path fill="#FFFFFF" d="M200.021,235.956c1.89-1.896,3.779-3.793,5.669-5.689c1.346-1.351,1.35-3.6,0-4.95
			c-1.347-1.346-3.604-1.351-4.95,0c-1.89,1.896-3.779,3.793-5.669,5.689c-1.346,1.351-1.35,3.6,0,4.95
			C196.418,237.302,198.675,237.306,200.021,235.956L200.021,235.956z"/>
	</g>
	<g>
		<path fill="#FFFFFF" d="M224.092,233.946c1.89-1.896,3.779-3.792,5.669-5.688c1.346-1.351,1.35-3.6,0-4.95
			c-1.347-1.347-3.604-1.351-4.95,0c-1.89,1.896-3.779,3.792-5.669,5.688c-1.346,1.351-1.35,3.6,0,4.95
			C220.489,235.292,222.746,235.296,224.092,233.946L224.092,233.946z"/>
	</g>
	<g>
		<path fill="#FFFFFF" d="M236.917,221.075c1.89-1.896,3.779-3.792,5.669-5.688c1.346-1.351,1.35-3.6,0-4.95
			c-1.347-1.347-3.604-1.351-4.95,0c-1.89,1.896-3.779,3.792-5.669,5.688c-1.346,1.351-1.35,3.6,0,4.95
			C233.314,222.421,235.571,222.425,236.917,221.075L236.917,221.075z"/>
	</g>
	<g>
		<path fill="#FFFFFF" d="M211.153,246.933c1.889-1.896,3.778-3.793,5.667-5.689c1.346-1.351,1.35-3.6,0-4.95
			c-1.347-1.346-3.604-1.351-4.95,0c-1.889,1.896-3.778,3.793-5.667,5.689c-1.346,1.351-1.35,3.6,0,4.95
			C207.55,248.279,209.807,248.284,211.153,246.933L211.153,246.933z"/>
	</g>
	<g>
		<path fill="#FFFFFF" d="M208.353,190.342c1.396-1.401,2.791-2.801,4.187-4.202c1.346-1.351,1.35-3.6,0-4.95
			c-1.347-1.346-3.604-1.351-4.95,0c-1.396,1.401-2.791,2.801-4.187,4.202c-1.346,1.351-1.35,3.6,0,4.95
			C204.749,191.688,207.006,191.693,208.353,190.342L208.353,190.342z"/>
	</g>
	<g>
		<path fill="#FFFFFF" d="M232.497,266.269c0.487-0.49,0.975-0.979,1.463-1.468c1.346-1.351,1.35-3.6,0-4.95
			c-1.347-1.346-3.604-1.351-4.95,0c-0.487,0.49-0.975,0.979-1.463,1.468c-1.346,1.351-1.35,3.6,0,4.95
			C228.893,267.615,231.15,267.619,232.497,266.269L232.497,266.269z"/>
	</g>
	<g>
		<path fill="#FFFFFF" d="M241.644,257.077c0.488-0.49,0.976-0.979,1.463-1.469c1.346-1.351,1.35-3.6,0-4.95
			c-1.347-1.346-3.604-1.351-4.95,0c-0.488,0.49-0.976,0.979-1.463,1.469c-1.346,1.351-1.35,3.6,0,4.95
			C238.04,258.423,240.297,258.427,241.644,257.077L241.644,257.077z"/>
	</g>
	<g>
		<path fill="#FFFFFF" d="M250.914,247.765c0.487-0.489,0.975-0.979,1.462-1.467c1.346-1.351,1.35-3.6,0-4.95
			c-1.347-1.347-3.604-1.351-4.95,0c-0.487,0.489-0.975,0.979-1.462,1.467c-1.346,1.351-1.35,3.6,0,4.95
			C247.311,249.112,249.567,249.116,250.914,247.765L250.914,247.765z"/>
	</g>
	<g>
		<path fill="#FFFFFF" d="M260.113,238.518c0.488-0.49,0.976-0.979,1.463-1.469c1.346-1.351,1.35-3.6,0-4.95
			c-1.347-1.346-3.604-1.351-4.95,0c-0.488,0.49-0.976,0.979-1.463,1.469c-1.346,1.351-1.35,3.6,0,4.95
			C256.51,239.864,258.767,239.868,260.113,238.518L260.113,238.518z"/>
	</g>
	<g>
		<path fill="#FFFFFF" d="M234.99,245.373c1.889-1.896,3.778-3.793,5.667-5.689c1.346-1.351,1.35-3.6,0-4.95
			c-1.347-1.346-3.604-1.351-4.95,0c-1.889,1.896-3.778,3.793-5.667,5.689c-1.346,1.351-1.35,3.6,0,4.95
			C231.386,246.719,233.644,246.723,234.99,245.373L234.99,245.373z"/>
	</g>
	<g>
		<path fill="#FFFFFF" d="M169.25,184.276c1.079-1.951,2.153-4.122,3.664-5.774c1.451-1.586,3.905-2.638,5.774-3.665
			c-0.504,0-1.009,0-1.514,0c-0.56-0.27-0.53-0.636-0.259-0.053c0.211,0.456,0.38,0.933,0.561,1.401
			c0.44,1.14,0.85,2.292,1.235,3.452c0.119,0.358,0.229,0.719,0.318,1.085c-0.218-0.896,0.793-1.664-0.013-0.858
			c-0.79,0.79-1.579,1.58-2.369,2.369c-0.719,0.719-1.438,1.438-2.157,2.157c-0.199,0.198-0.397,0.397-0.596,0.595
			c0.797-0.797,1.779-0.189,0.499-0.58c-1.134-0.345-2.248-0.765-3.358-1.179c-0.538-0.201-1.072-0.411-1.605-0.626
			c-0.688-0.278-0.516-0.539-0.18,0.159c-0.839-1.743-3.425-0.221-2.591,1.514c0.597,1.24,3.346,1.763,4.482,2.18
			c1.217,0.447,3.699,1.828,4.875,0.653c1.364-1.364,2.728-2.728,4.092-4.092c1.109-1.109,2.175-1.836,1.697-3.534
			c-0.568-2.015-1.346-4.021-2.181-5.94c-0.788-1.812-1.988-1.564-3.485-0.715c-2,1.135-4.364,2.3-5.831,4.122
			c-1.428,1.772-2.549,3.827-3.648,5.813C165.722,184.457,168.313,185.969,169.25,184.276z"/>
	</g>
	<g>
		<path fill="#FFFFFF" d="M195.025,191.176c-1.08,1.95-2.154,4.121-3.664,5.773c-1.45,1.586-3.905,2.638-5.774,3.665
			c0.505,0,1.01,0,1.515,0c0.559,0.269,0.53,0.637,0.259,0.053c-0.211-0.456-0.38-0.934-0.561-1.401
			c-0.44-1.14-0.85-2.292-1.234-3.453c-0.119-0.358-0.229-0.718-0.318-1.085c0.217,0.896-0.793,1.664,0.013,0.858
			c0.79-0.79,1.579-1.58,2.369-2.369c0.719-0.719,1.438-1.438,2.157-2.157c0.199-0.198,0.397-0.397,0.596-0.595
			c-0.797,0.797-1.78,0.189-0.499,0.58c1.134,0.345,2.248,0.765,3.358,1.179c0.538,0.201,1.073,0.411,1.605,0.626
			c0.69,0.279,0.514,0.539,0.18-0.159c0.835,1.745,3.422,0.222,2.591-1.514c-0.594-1.24-3.348-1.765-4.482-2.181
			c-1.217-0.446-3.699-1.828-4.875-0.653c-1.364,1.364-2.728,2.728-4.091,4.092c-1.109,1.109-2.175,1.836-1.697,3.534
			c0.567,2.015,1.345,4.021,2.18,5.94c0.788,1.812,1.989,1.565,3.485,0.715c2-1.135,4.364-2.301,5.831-4.122
			c1.428-1.772,2.549-3.826,3.648-5.813C198.554,190.996,195.962,189.483,195.025,191.176z"/>
	</g>
	<g>
		<path fill="#FFFFFF" d="M177.8,201.196c-1.951-1.079-4.123-2.153-5.775-3.664c-1.586-1.451-2.638-3.905-3.664-5.773
			c0,0.504,0,1.009,0,1.514c-0.269,0.559-0.637,0.53-0.053,0.259c0.456-0.211,0.933-0.38,1.401-0.561
			c1.14-0.44,2.292-0.85,3.452-1.234c0.358-0.119,0.719-0.229,1.085-0.318c-0.895,0.218-1.664-0.793-0.857,0.012
			c0.79,0.79,1.579,1.579,2.369,2.369c0.719,0.719,1.438,1.438,2.157,2.157c0.199,0.199,0.397,0.397,0.596,0.596
			c-0.797-0.797-0.19-1.779-0.58-0.498c-0.345,1.134-0.765,2.248-1.179,3.358c-0.2,0.538-0.411,1.072-0.626,1.604
			c-0.279,0.691-0.537,0.511,0.159,0.18c-1.746,0.832-0.223,3.417,1.515,2.591c1.239-0.59,1.765-3.35,2.18-4.481
			c0.447-1.217,1.829-3.7,0.653-4.875c-1.364-1.364-2.729-2.728-4.092-4.091c-1.11-1.109-1.836-2.175-3.535-1.696
			c-2.015,0.568-4.021,1.345-5.939,2.18c-1.812,0.788-1.564,1.989-0.715,3.485c1.135,2,2.3,4.363,4.121,5.831
			c1.772,1.428,3.827,2.549,5.813,3.647C177.98,204.723,179.493,202.132,177.8,201.196z"/>
	</g>
	<g>
		<path fill="#FFFFFF" d="M186.17,173.949c1.951,1.08,4.12,2.155,5.773,3.665c1.586,1.45,2.638,3.906,3.664,5.774
			c0-0.504,0-1.009,0-1.514c0.267-0.558,0.638-0.531,0.053-0.259c-0.456,0.211-0.933,0.38-1.401,0.561
			c-1.14,0.44-2.292,0.85-3.453,1.235c-0.358,0.119-0.719,0.229-1.085,0.318c0.896-0.218,1.664,0.793,0.857-0.013
			c-0.79-0.79-1.579-1.58-2.369-2.369c-0.719-0.719-1.438-1.438-2.158-2.158c-0.198-0.198-0.397-0.397-0.595-0.596
			c0.797,0.797,0.19,1.779,0.58,0.499c0.346-1.134,0.765-2.248,1.179-3.358c0.201-0.539,0.411-1.073,0.626-1.605
			c0.278-0.689,0.539-0.516-0.158-0.181c1.743-0.838,0.221-3.424-1.515-2.591c-1.24,0.596-1.764,3.347-2.18,4.482
			c-0.447,1.217-1.829,3.699-0.654,4.875c1.364,1.364,2.728,2.728,4.092,4.092c1.109,1.109,1.836,2.175,3.535,1.697
			c2.015-0.568,4.021-1.346,5.939-2.181c1.811-0.789,1.564-1.989,0.715-3.485c-1.135-2-2.3-4.365-4.122-5.832
			c-1.772-1.427-3.826-2.549-5.811-3.649C185.991,170.421,184.478,173.012,186.17,173.949z"/>
	</g>
	<g>
		<path fill="#FFFFFF" d="M181.59,167.41c2.224-2.233,4.448-4.465,6.673-6.698c3.188-3.201-1.761-8.151-4.95-4.95
			c-2.224,2.233-4.448,4.465-6.673,6.698C173.452,165.66,178.401,170.611,181.59,167.41L181.59,167.41z"/>
	</g>
</g>
</svg>
