<?xml version="1.0" encoding="iso-8859-1"?>
<!-- Generator: Adobe Illustrator 16.0.0, SVG Export Plug-In . SVG Version: 6.00 Build 0)  -->
<!DOCTYPE svg PUBLIC "-//W3C//DTD SVG 1.1 Tiny//EN" "http://www.w3.org/Graphics/SVG/1.1/DTD/svg11-tiny.dtd">
<svg version="1.1" baseProfile="tiny" id="it_x5F_router"
	 xmlns="http://www.w3.org/2000/svg" xmlns:xlink="http://www.w3.org/1999/xlink" x="0px" y="0px" width="361px" height="361px"
	 viewBox="0 0 361 361" xml:space="preserve">
<path fill="none" stroke="#FFFFFF" stroke-width="10" d="M281.815,235.045c0,3.313-2.687,6-6,6h-195c-3.313,0-6-2.687-6-6v-23
	c0-3.313,2.687-6,6-6h195c3.313,0,6,2.687,6,6V235.045z"/>
<g>
	<path fill="#FFFFFF" d="M88.315,251.545c10,0,20,0,30,0c6.449,0,6.449-10,0-10c-10,0-20,0-30,0
		C81.866,241.545,81.866,251.545,88.315,251.545L88.315,251.545z"/>
</g>
<g>
	<path fill="#FFFFFF" d="M237.315,251.545c10,0,20,0,30,0c6.449,0,6.449-10,0-10c-10,0-20,0-30,0
		C230.866,241.545,230.866,251.545,237.315,251.545L237.315,251.545z"/>
</g>
<g>
	<path fill="#FFFFFF" d="M85.494,110.874c6.667,30.333,13.333,60.667,20,91c1.384,6.297,11.024,3.626,9.643-2.658
		c-6.667-30.333-13.333-60.667-20-91C93.752,101.918,84.112,104.589,85.494,110.874L85.494,110.874z"/>
</g>
<path fill="#FFFFFF" d="M118.335,201.238c0.615,2.797-1.51,5.642-4.746,6.354l-3.418,0.751c-3.236,0.711-6.358-0.979-6.974-3.776
	l-6.96-31.656c-0.615-2.797,1.51-5.641,4.746-6.353l3.418-0.751c3.236-0.711,6.358,0.979,6.974,3.776L118.335,201.238z"/>
<g>
	<path fill="#FFFFFF" d="M262.621,108.216c-6.667,30.333-13.333,60.667-20,91c-1.381,6.285,8.259,8.956,9.643,2.658
		c6.667-30.333,13.333-60.667,20-91C273.645,104.589,264.004,101.918,262.621,108.216L262.621,108.216z"/>
</g>
<path fill="#FFFFFF" d="M239.421,201.238c-0.615,2.797,1.51,5.642,4.746,6.354l3.418,0.751c3.236,0.711,6.358-0.979,6.974-3.776
	l6.96-31.656c0.615-2.797-1.51-5.641-4.746-6.353l-3.418-0.751c-3.236-0.711-6.358,0.979-6.974,3.776L239.421,201.238z"/>
<g>
	<path fill="#FFFFFF" d="M102.565,228.045c1.5,0,3,0,4.5,0c2.726,0,5-2.274,5-5s-2.274-5-5-5c-1.5,0-3,0-4.5,0c-2.726,0-5,2.274-5,5
		S99.839,228.045,102.565,228.045L102.565,228.045z"/>
</g>
<g>
	<path fill="#FFFFFF" d="M194.565,229.045c1.5,0,3,0,4.5,0c2.726,0,5-2.274,5-5s-2.274-5-5-5c-1.5,0-3,0-4.5,0c-2.726,0-5,2.274-5,5
		S191.839,229.045,194.565,229.045L194.565,229.045z"/>
</g>
<g>
	<path fill="#FFFFFF" d="M213.565,229.045c1.5,0,3,0,4.5,0c2.726,0,5-2.274,5-5s-2.274-5-5-5c-1.5,0-3,0-4.5,0c-2.726,0-5,2.274-5,5
		S210.839,229.045,213.565,229.045L213.565,229.045z"/>
</g>
<g>
	<path fill="#FFFFFF" d="M233.565,229.045c1.5,0,3,0,4.5,0c2.726,0,5-2.274,5-5s-2.274-5-5-5c-1.5,0-3,0-4.5,0c-2.726,0-5,2.274-5,5
		S230.839,229.045,233.565,229.045L233.565,229.045z"/>
</g>
<g>
	<path fill="#FFFFFF" d="M253.565,229.045c1.5,0,3,0,4.5,0c2.726,0,5-2.274,5-5s-2.274-5-5-5c-1.5,0-3,0-4.5,0c-2.726,0-5,2.274-5,5
		S250.839,229.045,253.565,229.045L253.565,229.045z"/>
</g>
</svg>
