<?xml version="1.0" encoding="iso-8859-1"?>
<!-- Generator: Adobe Illustrator 16.0.0, SVG Export Plug-In . SVG Version: 6.00 Build 0)  -->
<!DOCTYPE svg PUBLIC "-//W3C//DTD SVG 1.1//EN" "http://www.w3.org/Graphics/SVG/1.1/DTD/svg11.dtd">
<svg version="1.1" xmlns="http://www.w3.org/2000/svg" xmlns:xlink="http://www.w3.org/1999/xlink" x="0px" y="0px" width="361px"
	 height="361px" viewBox="0 0 361 361" style="enable-background:new 0 0 361 361;" xml:space="preserve">
<g id="it_x5F_server">
	<path style="fill:none;stroke:#FFFFFF;stroke-width:10;stroke-miterlimit:10;" d="M287.333,218.667c0,3.313-2.687,6-6,6h-201
		c-3.313,0-6-2.687-6-6v-77.5c0-3.313,2.687-6,6-6h201c3.313,0,6,2.687,6,6V218.667z"/>
	<g>
		<g>
			<path style="fill:#FFFFFF;" d="M87.642,154.243c0.084,17.263,0.169,34.525,0.254,51.788c0.032,6.447,10.032,6.45,10,0
				c-0.084-17.263-0.169-34.525-0.254-51.788C97.61,147.796,87.61,147.793,87.642,154.243L87.642,154.243z"/>
		</g>
	</g>
	<g>
		<g>
			<path style="fill:#FFFFFF;" d="M263.642,154.243c0.085,17.263,0.169,34.525,0.254,51.788c0.031,6.447,10.031,6.45,10,0
				c-0.085-17.263-0.169-34.525-0.254-51.788C273.61,147.796,263.61,147.793,263.642,154.243L263.642,154.243z"/>
		</g>
	</g>
	<path style="fill:#FFFFFF;" d="M165.241,203.877c0,2.243-1.818,4.062-4.062,4.062l0,0c-2.244,0-4.062-1.818-4.062-4.062l0,0
		c0-2.244,1.818-4.063,4.062-4.063l0,0C163.422,199.814,165.241,201.633,165.241,203.877L165.241,203.877z"/>
	<path style="fill:#FFFFFF;" d="M165.241,190.877c0,2.243-1.818,4.062-4.062,4.062l0,0c-2.244,0-4.062-1.818-4.062-4.062l0,0
		c0-2.244,1.818-4.063,4.062-4.063l0,0C163.422,186.814,165.241,188.633,165.241,190.877L165.241,190.877z"/>
	<path style="fill:none;stroke:#FFFFFF;stroke-width:5;stroke-miterlimit:10;" d="M165.037,177.323c0,2.241-1.817,4.059-4.059,4.059
		h-0.641c-2.241,0-4.059-1.817-4.059-4.059v-3.561c0-2.241,1.817-4.059,4.059-4.059h0.641c2.241,0,4.059,1.817,4.059,4.059V177.323z
		"/>
	<path style="fill:#FFFFFF;" d="M257.833,170.579c0,4.466-3.003,8.088-6.704,8.088h-65.927c-3.703,0-6.705-3.623-6.705-8.088v-7.192
		c0-4.466,3.001-8.088,6.705-8.088h65.927c3.701,0,6.704,3.623,6.704,8.088V170.579z"/>
	<g>
		<g>
			<path style="fill:#FFFFFF;" d="M183.5,194c23.444,0,46.889,0,70.333,0c6.448,0,6.448-10,0-10c-23.444,0-46.889,0-70.333,0
				C177.051,184,177.051,194,183.5,194L183.5,194z"/>
		</g>
	</g>
	<g>
		<g>
			<path style="fill:#FFFFFF;" d="M183.5,206c23.444,0,46.889,0,70.333,0c6.448,0,6.448-10,0-10c-23.444,0-46.889,0-70.333,0
				C177.051,196,177.051,206,183.5,206L183.5,206z"/>
		</g>
	</g>
</g>
<g id="Ebene_1">
</g>
</svg>
