<?xml version="1.0" encoding="iso-8859-1"?>
<!-- Generator: Adobe Illustrator 16.0.0, SVG Export Plug-In . SVG Version: 6.00 Build 0)  -->
<!DOCTYPE svg PUBLIC "-//W3C//DTD SVG 1.1 Tiny//EN" "http://www.w3.org/Graphics/SVG/1.1/DTD/svg11-tiny.dtd">
<svg version="1.1" baseProfile="tiny" id="it_x5F_satellite_x5F_dish_x5F_heating"
	 xmlns="http://www.w3.org/2000/svg" xmlns:xlink="http://www.w3.org/1999/xlink" x="0px" y="0px" width="361px" height="361px"
	 viewBox="0 0 361 361" xml:space="preserve">
<g id="LNB_x5F_Arm">
	<g>
		<path fill="#FFFFFF" d="M230.153,286.394c-37.676-22.906-75.352-45.812-113.027-68.717c-5.525-3.359-10.547,5.291-5.047,8.635
			c37.676,22.906,75.352,45.812,113.027,68.717C230.632,298.388,235.654,289.738,230.153,286.394L230.153,286.394z"/>
	</g>
	<path fill="#FFFFFF" d="M97.524,239.214c-2.37,0.125-4.392-1.694-4.516-4.063l-1.743-33.035c-0.125-2.369,1.694-4.391,4.063-4.516
		l5.797-0.306c2.369-0.125,4.391,1.694,4.515,4.063l1.743,33.036c0.124,2.369-1.695,4.39-4.064,4.515L97.524,239.214z"/>
	<path fill="#FFFFFF" d="M126.797,209.255c0.104,1.974-1.413,3.659-3.386,3.763l-18.071,0.953c-1.974,0.104-3.659-1.412-3.764-3.385
		l-0.254-4.832c-0.105-1.973,1.412-3.658,3.385-3.761l18.073-0.953c1.974-0.104,3.658,1.411,3.762,3.384L126.797,209.255z"/>
	<path fill="#FFFFFF" d="M111.513,229.661c-1.726,0.092-3.221-1.659-3.339-3.91l-1.088-20.608c-0.119-2.25,1.184-4.15,2.908-4.241
		l4.223-0.223c1.726-0.092,3.222,1.661,3.34,3.912l1.086,20.609c0.119,2.251-1.184,4.149-2.909,4.239L111.513,229.661z"/>
</g>
<g id="Schuessel">
	<path fill="#FFFFFF" d="M224.963,178.355c-5.576,26.788-10.442,54.362-10.332,81.816c0.044,11.076,0.339,34.441,15.611,35.989
		c14.385,1.458,23.058-20.793,27.322-30.916c10.841-25.73,17.41-53.3,22.927-80.591c5.116-25.304,9.449-51.426,9.14-77.322
		c-0.13-10.913-0.713-33.241-15.597-34.75c-13.649-1.384-22.061,18.85-26.314,28.548
		C236.949,125.691,230.484,152.199,224.963,178.355c-1.328,6.291,8.311,8.966,9.643,2.658c5.582-26.44,11.98-53.546,23.266-78.224
		c3.082-6.739,6.646-14.084,12.378-18.99c2.946-2.522,4.23-1.583,6.087,2.001c3.416,6.594,3.224,15.583,3.31,22.771
		c0.147,12.353-1.098,24.728-2.655,36.966c-3.837,30.167-10.428,60.297-19.228,89.398c-4.48,14.814-9.535,30.131-17.963,43.238
		c-1.836,2.855-5.023,6.882-7.515,7.807c-1.073,0.398-1.582,0.231-1.81,0.12c-1.175-0.575-1.647-1.446-2.535-3.158
		c-2.227-4.298-2.631-9.811-2.999-14.543c-0.598-7.699-0.317-15.468,0.157-23.165c1.331-21.604,5.101-43.058,9.506-64.221
		C235.916,174.722,226.276,172.044,224.963,178.355z"/>
</g>
<g id="Heizung">
	<g>
		<path fill="#FFFFFF" d="M72.066,183.545c21.5,0,43,0,64.5,0c6.449,0,6.449-10,0-10c-21.5,0-43,0-64.5,0
			C65.618,173.545,65.618,183.545,72.066,183.545L72.066,183.545z"/>
	</g>
	<g>
		<path fill="#FFFFFF" d="M104.441,157.476c1.5-4.667,3-9.334,4.5-14c1.385-4.311-5.375-6.141-6.75-1.861c-1.5,4.667-3,9.334-4.5,14
			C96.306,159.925,103.066,161.755,104.441,157.476L104.441,157.476z"/>
	</g>
	<g>
		<path fill="#FFFFFF" d="M108.441,139.114c-1.333-5.833-2.667-11.666-4-17.5c-1.006-4.399-7.754-2.533-6.75,1.861
			c1.333,5.833,2.667,11.666,4,17.5C102.697,145.375,109.446,143.509,108.441,139.114L108.441,139.114z"/>
	</g>
	<g>
		<path fill="#FFFFFF" d="M104.441,123.476c1.5-4.667,3-9.334,4.5-14c1.385-4.311-5.375-6.141-6.75-1.861c-1.5,4.667-3,9.334-4.5,14
			C96.306,125.925,103.066,127.755,104.441,123.476L104.441,123.476z"/>
	</g>
	<g>
		<path fill="#FFFFFF" d="M108.441,105.114c-1.333-5.833-2.667-11.666-4-17.5c-1.006-4.399-7.754-2.533-6.75,1.861
			c1.333,5.833,2.667,11.666,4,17.5C102.697,111.375,109.446,109.509,108.441,105.114L108.441,105.114z"/>
	</g>
	<g>
		<path fill="#FFFFFF" d="M104.395,89.476c1.333-4.148,2.667-8.296,4-12.444c1.385-4.31-5.375-6.141-6.75-1.861
			c-1.333,4.148-2.667,8.296-4,12.444C96.26,91.924,103.02,93.755,104.395,89.476L104.395,89.476z"/>
	</g>
	<g>
		<path fill="#FFFFFF" d="M128.941,164.614c-1.5-4.666-3-9.333-4.5-14c-1.375-4.279-8.135-2.449-6.75,1.861
			c1.5,4.666,3,9.333,4.5,14C123.567,170.755,130.327,168.925,128.941,164.614L128.941,164.614z"/>
	</g>
	<g>
		<path fill="#FFFFFF" d="M124.941,149.976c1.333-5.834,2.667-11.667,4-17.5c1.004-4.395-5.744-6.261-6.75-1.861
			c-1.333,5.834-2.667,11.667-4,17.5C117.187,152.509,123.936,154.375,124.941,149.976L124.941,149.976z"/>
	</g>
	<g>
		<path fill="#FFFFFF" d="M128.941,130.614c-1.5-4.666-3-9.333-4.5-14c-1.375-4.279-8.135-2.449-6.75,1.861
			c1.5,4.666,3,9.333,4.5,14C123.567,136.755,130.327,134.925,128.941,130.614L128.941,130.614z"/>
	</g>
	<g>
		<path fill="#FFFFFF" d="M124.941,115.976c1.333-5.834,2.667-11.667,4-17.5c1.004-4.395-5.744-6.261-6.75-1.861
			c-1.333,5.834-2.667,11.667-4,17.5C117.187,118.509,123.936,120.375,124.941,115.976L124.941,115.976z"/>
	</g>
	<g>
		<path fill="#FFFFFF" d="M128.941,96.614c-1.5-4.666-3-9.333-4.5-14c-1.375-4.279-8.135-2.449-6.75,1.861c1.5,4.666,3,9.333,4.5,14
			C123.567,102.755,130.327,100.925,128.941,96.614L128.941,96.614z"/>
	</g>
	<g>
		<path fill="#FFFFFF" d="M85.441,166.778c1.5-4.667,3-9.334,4.5-14c1.385-4.311-5.375-6.141-6.75-1.861c-1.5,4.667-3,9.334-4.5,14
			C77.306,169.228,84.066,171.058,85.441,166.778L85.441,166.778z"/>
	</g>
	<g>
		<path fill="#FFFFFF" d="M89.441,148.417c-1.333-5.833-2.667-11.666-4-17.5c-1.006-4.399-7.754-2.533-6.75,1.861
			c1.333,5.833,2.667,11.666,4,17.5C83.697,154.678,90.446,152.812,89.441,148.417L89.441,148.417z"/>
	</g>
	<g>
		<path fill="#FFFFFF" d="M85.441,132.778c1.5-4.667,3-9.334,4.5-14c1.385-4.311-5.375-6.141-6.75-1.861c-1.5,4.667-3,9.334-4.5,14
			C77.306,135.228,84.066,137.058,85.441,132.778L85.441,132.778z"/>
	</g>
	<g>
		<path fill="#FFFFFF" d="M89.441,114.417c-1.333-5.833-2.667-11.666-4-17.5c-1.006-4.399-7.754-2.533-6.75,1.861
			c1.333,5.833,2.667,11.666,4,17.5C83.697,120.678,90.446,118.812,89.441,114.417L89.441,114.417z"/>
	</g>
	<g>
		<path fill="#FFFFFF" d="M85.441,98.778c1.5-4.667,3-9.334,4.5-14c1.385-4.311-5.375-6.141-6.75-1.861c-1.5,4.667-3,9.334-4.5,14
			C77.306,101.228,84.066,103.058,85.441,98.778L85.441,98.778z"/>
	</g>
</g>
</svg>
