<?xml version="1.0" encoding="iso-8859-1"?>
<!-- Generator: Adobe Illustrator 16.0.0, SVG Export Plug-In . SVG Version: 6.00 Build 0)  -->
<!DOCTYPE svg PUBLIC "-//W3C//DTD SVG 1.1 Tiny//EN" "http://www.w3.org/Graphics/SVG/1.1/DTD/svg11-tiny.dtd">
<svg version="1.1" baseProfile="tiny" id="it_x5F_server"
	 xmlns="http://www.w3.org/2000/svg" xmlns:xlink="http://www.w3.org/1999/xlink" x="0px" y="0px" width="361px" height="361px"
	 viewBox="0 0 361 361" xml:space="preserve">
<path fill="none" stroke="#FFFFFF" stroke-width="10" stroke-miterlimit="10" d="M284.815,221.545c0,3.313-2.687,6-6,6h-201
	c-3.313,0-6-2.687-6-6v-77.5c0-3.313,2.687-6,6-6h201c3.313,0,6,2.687,6,6V221.545z"/>
<g>
	<path fill="#FFFFFF" d="M85.124,157.121c0.084,17.263,0.169,34.525,0.254,51.788c0.032,6.447,10.032,6.45,10,0
		c-0.084-17.263-0.169-34.525-0.254-51.788C95.092,150.674,85.092,150.671,85.124,157.121L85.124,157.121z"/>
</g>
<g>
	<path fill="#FFFFFF" d="M261.124,157.121c0.084,17.263,0.169,34.525,0.254,51.788c0.032,6.447,10.032,6.45,10,0
		c-0.084-17.263-0.169-34.525-0.254-51.788C271.092,150.674,261.092,150.671,261.124,157.121L261.124,157.121z"/>
</g>
<path fill="#FFFFFF" d="M162.723,206.755c0,2.243-1.818,4.062-4.062,4.062l0,0c-2.244,0-4.062-1.818-4.062-4.062l0,0
	c0-2.244,1.818-4.062,4.062-4.062l0,0C160.904,202.693,162.723,204.511,162.723,206.755L162.723,206.755z"/>
<path fill="#FFFFFF" d="M162.723,193.755c0,2.243-1.818,4.062-4.062,4.062l0,0c-2.244,0-4.062-1.818-4.062-4.062l0,0
	c0-2.244,1.818-4.062,4.062-4.062l0,0C160.904,189.693,162.723,191.511,162.723,193.755L162.723,193.755z"/>
<path fill="none" stroke="#FFFFFF" stroke-width="5" stroke-miterlimit="10" d="M162.519,180.201c0,2.241-1.817,4.059-4.059,4.059
	h-0.641c-2.241,0-4.059-1.817-4.059-4.059v-3.561c0-2.241,1.817-4.059,4.059-4.059h0.641c2.241,0,4.059,1.817,4.059,4.059V180.201z"
	/>
<path fill="#FFFFFF" d="M255.315,173.457c0,4.466-3.002,8.088-6.704,8.088h-65.927c-3.703,0-6.705-3.623-6.705-8.088v-7.192
	c0-4.466,3.001-8.088,6.705-8.088h65.927c3.702,0,6.704,3.623,6.704,8.088V173.457z"/>
<g>
	<path fill="#FFFFFF" d="M180.982,196.878c23.444,0,46.889,0,70.333,0c6.449,0,6.449-10,0-10c-23.444,0-46.889,0-70.333,0
		C174.533,186.878,174.533,196.878,180.982,196.878L180.982,196.878z"/>
</g>
<g>
	<path fill="#FFFFFF" d="M180.982,208.878c23.444,0,46.889,0,70.333,0c6.449,0,6.449-10,0-10c-23.444,0-46.889,0-70.333,0
		C174.533,198.878,174.533,208.878,180.982,208.878L180.982,208.878z"/>
</g>
</svg>
