<?xml version="1.0" encoding="iso-8859-1"?>
<!-- Generator: Adobe Illustrator 16.0.0, SVG Export Plug-In . SVG Version: 6.00 Build 0)  -->
<!DOCTYPE svg PUBLIC "-//W3C//DTD SVG 1.1//EN" "http://www.w3.org/Graphics/SVG/1.1/DTD/svg11.dtd">
<svg version="1.1" xmlns="http://www.w3.org/2000/svg" xmlns:xlink="http://www.w3.org/1999/xlink" x="0px" y="0px" width="361px"
	 height="361px" viewBox="0 0 361 361" style="enable-background:new 0 0 361 361;" xml:space="preserve">
<g id="it_x5F_smartphone">
	<path style="fill:none;stroke:#FFFFFF;stroke-width:10;stroke-miterlimit:10;" d="M238.031,279.639
		c0,3.514-2.621,6.361-5.854,6.361H127.484c-3.232,0-5.853-2.848-5.853-6.361V81.696c0-3.513,2.621-6.362,5.853-6.362h104.693
		c3.232,0,5.854,2.849,5.854,6.362V279.639z"/>
	<path style="fill:#FFFFFF;stroke:#FFFFFF;stroke-width:10;stroke-miterlimit:10;" d="M236.832,105c0,3.313-2.418,6-5.4,6h-102
		c-2.982,0-5.4-2.687-5.4-6V81.667c0-3.313,2.417-6,5.4-6h102c2.982,0,5.4,2.687,5.4,6V105z M209.231,92.334
		c0-3.313-2.418-6-5.399-6h-45.601c-2.982,0-5.4,2.687-5.4,6V95c0,3.313,2.418,6,5.4,6h45.601c2.981,0,5.399-2.687,5.399-6V92.334z"
		/>
	<path style="fill:#FFFFFF;" d="M232.737,248.078H126.149c-3.117,0-5.643,2.807-5.643,6.27v24.383c0,3.463,2.526,6.27,5.643,6.27
		h106.588c3.116,0,5.643-2.807,5.643-6.27v-24.383C238.38,250.885,235.854,248.078,232.737,248.078z M187.75,270.607
		c0,1.426-1.156,2.582-2.583,2.582H176.5c-1.426,0-2.583-1.156-2.583-2.582v-8.668c0-1.426,1.156-2.582,2.583-2.582h8.667
		c1.427,0,2.583,1.156,2.583,2.582V270.607z"/>
</g>
<g id="Ebene_1">
</g>
</svg>
