<?xml version="1.0" encoding="iso-8859-1"?>
<!-- Generator: Adobe Illustrator 16.0.0, SVG Export Plug-In . SVG Version: 6.00 Build 0)  -->
<!DOCTYPE svg PUBLIC "-//W3C//DTD SVG 1.1 Tiny//EN" "http://www.w3.org/Graphics/SVG/1.1/DTD/svg11-tiny.dtd">
<svg version="1.1" baseProfile="tiny" id="it_x5F_television"
	 xmlns="http://www.w3.org/2000/svg" xmlns:xlink="http://www.w3.org/1999/xlink" x="0px" y="0px" width="361px" height="361px"
	 viewBox="0 0 361 361" xml:space="preserve">
<path fill="none" stroke="#FFFFFF" stroke-width="10" stroke-miterlimit="10" d="M284.815,234.457c0,3.733-3.026,6.759-6.758,6.759
	H79.815c-3.732,0-6.758-3.026-6.758-6.759V108.303c0-3.732,3.026-6.758,6.758-6.758h198.242c3.732,0,6.758,3.026,6.758,6.758
	V234.457z"/>
<path fill="#FFFFFF" stroke="#FFFFFF" stroke-width="10" stroke-miterlimit="10" d="M283.815,234.302
	c0,1.791-2.746,3.243-6.131,3.243H79.446c-3.386,0-6.131-1.452-6.131-3.243v-3.514c0-1.791,2.746-3.243,6.131-3.243h198.237
	c3.386,0,6.131,1.452,6.131,3.243V234.302z"/>
<path fill="#FFFFFF" stroke="#FFFFFF" stroke-width="10" stroke-miterlimit="10" d="M184.315,259.545c0,3.313-2.687,6-6,6h-0.5
	c-3.313,0-6-2.687-6-6v-19c0-3.313,2.687-6,6-6h0.5c3.313,0,6,2.687,6,6V259.545z"/>
<g>
	<path fill="#FFFFFF" d="M108.815,271.045c46.194,0,92.387,0,138.581,0c0.306,0,0.613,0,0.919,0c6.449,0,6.449-10,0-10
		c-46.194,0-92.387,0-138.581,0c-0.306,0-0.613,0-0.919,0C102.366,261.045,102.366,271.045,108.815,271.045L108.815,271.045z"/>
</g>
</svg>
