<?xml version="1.0" encoding="iso-8859-1"?>
<!-- Generator: Adobe Illustrator 16.0.0, SVG Export Plug-In . SVG Version: 6.00 Build 0)  -->
<!DOCTYPE svg PUBLIC "-//W3C//DTD SVG 1.1//EN" "http://www.w3.org/Graphics/SVG/1.1/DTD/svg11.dtd">
<svg version="1.1" xmlns="http://www.w3.org/2000/svg" xmlns:xlink="http://www.w3.org/1999/xlink" x="0px" y="0px" width="361px"
	 height="361px" viewBox="0 0 361 361" style="enable-background:new 0 0 361 361;" xml:space="preserve">
<g id="it_x5F_ups">
	<path style="fill:none;stroke:#FFFFFF;stroke-width:10;" d="M193.688,281.167c0,3.313-2.688,6-6,6H81.182c-3.313,0-6-2.687-6-6
		v-162c0-3.313,2.687-6,6-6h106.505c3.313,0,6,2.687,6,6V281.167z"/>
	<g>
		<g>
			<path style="fill:#FFFFFF;" d="M93.373,135.667c27.333,0,54.667,0,82,0c6.448,0,6.448-10,0-10c-27.333,0-54.667,0-82,0
				C86.924,125.667,86.924,135.667,93.373,135.667L93.373,135.667z"/>
		</g>
	</g>
	<g>
		<g>
			<path style="fill:#FFFFFF;" d="M93.373,152.667c27.333,0,54.667,0,82,0c6.448,0,6.448-10,0-10c-27.333,0-54.667,0-82,0
				C86.924,142.667,86.924,152.667,93.373,152.667L93.373,152.667z"/>
		</g>
	</g>
	<g>
		<g>
			<path style="fill:#FFFFFF;" d="M93.373,169.667c27.333,0,54.667,0,82,0c6.448,0,6.448-10,0-10c-27.333,0-54.667,0-82,0
				C86.924,159.667,86.924,169.667,93.373,169.667L93.373,169.667z"/>
		</g>
	</g>
	<path style="display:none;fill:#FFFFFF;" d="M172.93,186.169h-6.597v-2.47c0-1.535-1.245-2.78-2.78-2.78h-5.939
		c-1.535,0-2.78,1.245-2.78,2.78v2.47h-41.005v-2.47c0-1.535-1.245-2.78-2.78-2.78h-5.939c-1.535,0-2.78,1.245-2.78,2.78v2.47
		h-6.542c-3.93,0-7.116,3.187-7.116,7.116v73.771c0,3.93,3.186,7.116,7.116,7.116h77.144c3.93,0,7.116-3.187,7.116-7.116v-73.771
		C180.046,189.355,176.86,186.169,172.93,186.169z M115.33,205.408c-4.167,0-8.333,0-12.5,0c-4.514,0-4.514-7,0-7
		c4.167,0,8.333,0,12.5,0C119.844,198.408,119.844,205.408,115.33,205.408z M166.333,205.408c-0.917,0-1.833,0-2.75,0
		c0,0.916,0,1.834,0,2.75c0,4.514-7,4.514-7,0c0-0.916,0-1.834,0-2.75c-0.917,0-1.833,0-2.75,0c-4.514,0-4.514-7,0-7
		c0.917,0,1.833,0,2.75,0c0-0.916,0-1.834,0-2.75c0-4.514,7-4.514,7,0c0,0.916,0,1.834,0,2.75c0.917,0,1.833,0,2.75,0
		C170.847,198.408,170.847,205.408,166.333,205.408z"/>
	<g>
		<path style="fill:none;stroke:#FFFFFF;stroke-width:10;stroke-linejoin:round;" d="M264.533,265.292c0,11.708,0,21.2,0,21.2
			c-14.294,0-28.4-9.492-28.4-21.2s14.106-21.2,28.4-21.2C264.533,244.092,264.533,253.584,264.533,265.292z"/>
		<g>
			
				<line style="fill:none;stroke:#FFFFFF;stroke-width:10;stroke-linecap:round;stroke-linejoin:round;" x1="286.533" y1="251.092" x2="264.533" y2="251.092"/>
			
				<line style="fill:none;stroke:#FFFFFF;stroke-width:10;stroke-linecap:round;stroke-linejoin:round;" x1="286.533" y1="279.492" x2="264.533" y2="279.492"/>
		</g>
	</g>
	<path style="fill:none;stroke:#FFFFFF;stroke-width:10;stroke-linejoin:round;" d="M193.333,179.167c0,0,24.065,1.558,21.5,24
		c-2,17.5-5.5,22-7.5,37.5c-2.758,21.374,17.709,24,27,24"/>
	<path style="fill:#FFFFFF;" d="M173.007,186.104h-6.597v-2.47c0-1.535-1.245-2.78-2.78-2.78h-5.939c-1.535,0-2.78,1.245-2.78,2.78
		v2.47h-41.005v-2.47c0-1.535-1.245-2.78-2.78-2.78h-5.939c-1.535,0-2.78,1.245-2.78,2.78v2.47h-6.542
		c-3.93,0-7.116,3.187-7.116,7.116v73.771c0,3.93,3.186,7.116,7.116,7.116h77.144c3.93,0,7.116-3.187,7.116-7.116v-73.771
		C180.123,189.291,176.937,186.104,173.007,186.104z M149.178,202.304l-6.9,22.388l4.202,3.995c1.393,1.324,1.457,3.524,0.143,4.928
		l-21.031,22.468c-0.681,0.727-1.613,1.107-2.557,1.107c-0.601,0-1.207-0.154-1.755-0.473c-1.41-0.817-2.068-2.5-1.588-4.058
		l6.9-22.388l-4.202-3.995c-1.393-1.324-1.457-3.524-0.143-4.928l21.031-22.468c1.114-1.189,2.903-1.453,4.312-0.635
		C148.999,199.063,149.658,200.746,149.178,202.304z"/>
</g>
<g id="Ebene_1">
</g>
</svg>
