<?xml version="1.0" encoding="iso-8859-1"?>
<!-- Generator: Adobe Illustrator 16.0.0, SVG Export Plug-In . SVG Version: 6.00 Build 0)  -->
<!DOCTYPE svg PUBLIC "-//W3C//DTD SVG 1.1//EN" "http://www.w3.org/Graphics/SVG/1.1/DTD/svg11.dtd">
<svg version="1.1" xmlns="http://www.w3.org/2000/svg" xmlns:xlink="http://www.w3.org/1999/xlink" x="0px" y="0px" width="361px"
	 height="361px" viewBox="0 0 361 361" style="enable-background:new 0 0 361 361;" xml:space="preserve">
<g id="it_x5F_wifi">
	<path style="fill:none;stroke:#FFFFFF;stroke-width:10;stroke-miterlimit:10;" d="M192.592,163.529
		c0,2.285-1.854,4.138-4.139,4.138h-14.482c-2.285,0-4.138-1.853-4.138-4.138v-11.725c0-2.285,1.853-4.138,4.138-4.138h14.482
		c2.285,0,4.139,1.853,4.139,4.138V163.529z"/>
	<g>
		<g>
			<path style="fill:#FFFFFF;" d="M145.797,135.247c-11.839,12.518-11.839,31.323,0,43.841c4.439,4.693,11.499-2.39,7.071-7.071
				c-8.05-8.511-8.05-21.188,0-29.698C157.296,137.637,150.236,130.553,145.797,135.247L145.797,135.247z"/>
		</g>
	</g>
	<g>
		<g>
			<path style="fill:#FFFFFF;" d="M131.547,116.758c-22.069,22.682-22.069,58.635,0,81.317c4.503,4.629,11.568-2.448,7.071-7.07
				c-18.266-18.773-18.266-48.403,0-67.175C143.116,119.207,136.051,112.13,131.547,116.758L131.547,116.758z"/>
		</g>
	</g>
	<g>
		<g>
			<path style="fill:#FFFFFF;" d="M115.548,103.381c-30.082,30.681-30.082,80.015,0,110.695c4.521,4.61,11.587-2.465,7.071-7.07
				c-26.273-26.797-26.274-69.757,0-96.554C127.135,105.846,120.068,98.771,115.548,103.381L115.548,103.381z"/>
		</g>
	</g>
	<g>
		<g>
			<path style="fill:#FFFFFF;" d="M98.548,90.381c-17.888,18.174-27.934,42.342-28.125,67.848
				c-0.19,25.358,10.435,49.875,28.125,67.848c4.529,4.602,11.597-2.473,7.071-7.07c-33.089-33.619-33.09-87.936,0-121.554
				C110.145,92.854,103.077,85.78,98.548,90.381L98.548,90.381z"/>
		</g>
	</g>
	<g>
		<g>
			<path style="fill:#FFFFFF;" d="M209.888,142.318c8.049,8.511,8.049,21.188,0,29.698c-4.428,4.681,2.632,11.764,7.07,7.071
				c11.84-12.518,11.84-31.323,0-43.841C212.52,130.553,205.46,137.637,209.888,142.318L209.888,142.318z"/>
		</g>
	</g>
	<g>
		<g>
			<path style="fill:#FFFFFF;" d="M224.138,123.83c18.265,18.772,18.265,48.402,0,67.175c-4.498,4.622,2.567,11.699,7.07,7.07
				c22.069-22.682,22.069-58.635,0-81.317C226.705,112.13,219.64,119.207,224.138,123.83L224.138,123.83z"/>
		</g>
	</g>
	<g>
		<g>
			<path style="fill:#FFFFFF;" d="M240.137,110.452c26.274,26.797,26.273,69.756,0,96.554c-4.517,4.605,2.551,11.681,7.07,7.07
				c30.082-30.681,30.083-80.014,0-110.695C242.687,98.771,235.62,105.846,240.137,110.452L240.137,110.452z"/>
		</g>
	</g>
	<g>
		<g>
			<path style="fill:#FFFFFF;" d="M257.137,97.452c33.09,33.618,33.09,87.935,0,121.554c-4.525,4.598,2.542,11.672,7.07,7.07
				c17.889-18.174,27.935-42.342,28.126-67.848c0.189-25.359-10.435-49.875-28.126-67.848
				C259.679,85.78,252.61,92.854,257.137,97.452L257.137,97.452z"/>
		</g>
	</g>
	<g>
		<g>
			<path style="fill:#FFFFFF;" d="M175.833,174.167c0,37.833,0,75.667,0,113.5c0,6.448,10,6.448,10,0c0-37.833,0-75.667,0-113.5
				C185.833,167.718,175.833,167.718,175.833,174.167L175.833,174.167z"/>
		</g>
	</g>
</g>
<g id="Ebene_1">
</g>
</svg>
