<?xml version="1.0" encoding="iso-8859-1"?>
<!-- Generator: Adobe Illustrator 16.0.0, SVG Export Plug-In . SVG Version: 6.00 Build 0)  -->
<!DOCTYPE svg PUBLIC "-//W3C//DTD SVG 1.1//EN" "http://www.w3.org/Graphics/SVG/1.1/DTD/svg11.dtd">
<svg version="1.1" xmlns="http://www.w3.org/2000/svg" xmlns:xlink="http://www.w3.org/1999/xlink" x="0px" y="0px" width="361px"
	 height="361px" viewBox="0 0 361 361" style="enable-background:new 0 0 361 361;" xml:space="preserve">
<g id="light_x5F_bollard_x5F_1">
	<g>
		<g>
			<path style="fill:#FFFFFF;" d="M84.09,162.513c8.917,1.522,17.833,3.045,26.749,4.567c4.414,0.754,6.304-5.991,1.861-6.75
				c-8.917-1.522-17.833-3.045-26.749-4.567C81.537,155.009,79.647,161.754,84.09,162.513L84.09,162.513z"/>
		</g>
	</g>
	<g>
		<g>
			<path style="fill:#FFFFFF;" d="M84.364,172.128c8.917,1.522,17.833,3.045,26.749,4.567c4.414,0.753,6.304-5.991,1.861-6.75
				c-8.917-1.522-17.833-3.045-26.749-4.567C81.812,164.625,79.921,171.37,84.364,172.128L84.364,172.128z"/>
		</g>
	</g>
	<g>
		<g>
			<path style="fill:#FFFFFF;" d="M84.364,181.47c8.917,1.522,17.833,3.045,26.749,4.567c4.414,0.754,6.304-5.991,1.861-6.75
				c-8.917-1.522-17.833-3.045-26.749-4.567C81.812,173.966,79.921,180.711,84.364,181.47L84.364,181.47z"/>
		</g>
	</g>
	<g>
		<g>
			<path style="fill:#FFFFFF;" d="M90.058,191.441c5.004,0.854,10.008,1.708,15.012,2.563c4.414,0.754,6.304-5.991,1.861-6.75
				c-5.004-0.854-10.008-1.708-15.012-2.563C87.505,183.938,85.615,190.683,90.058,191.441L90.058,191.441z"/>
		</g>
	</g>
	<path style="fill:none;stroke:#FFFFFF;stroke-width:10;stroke-miterlimit:10;" d="M121.034,136.573
		c0,7.544-6.116,13.66-13.66,13.66H89.16c-7.544,0-13.66-6.116-13.66-13.66V88.004c0-7.544,6.116-13.66,13.66-13.66h18.213
		c7.544,0,13.66,6.116,13.66,13.66V136.573z"/>
	<g>
		<g>
			<path style="fill:#FFFFFF;" d="M211.088,267.842c19.113,0,38.227,0,57.34,0c4.514,0,4.514-7,0-7c-19.113,0-38.227,0-57.34,0
				C206.574,260.842,206.574,267.842,211.088,267.842L211.088,267.842z"/>
		</g>
	</g>
	<g>
		<g>
			<path style="fill:#FFFFFF;" d="M268.983,262.985c0-46.345,0-92.69,0-139.035c0-14.833-17.258-11.821-27.245-11.821
				c-9.667,0-31.206-3.934-31.206,11.171c0,23.704,0,47.407,0,71.111c0,22.857,0,45.716,0,68.574c0,6.448,10,6.448,10,0
				c0-46.345,0-92.69,0-139.035c0-2.854,3.66-1.821,5.776-1.821c7.647,0,15.296,0,22.943,0c1.249,0,9.731-1.045,9.731,1.052
				c0,2.618,0,5.235,0,7.853c0,28.931,0,57.862,0,86.792c0,15.053,0,30.106,0,45.159
				C258.983,269.434,268.983,269.434,268.983,262.985L268.983,262.985z"/>
		</g>
	</g>
	<g>
		<g>
			<path style="fill:#FFFFFF;" d="M126.772,275.786c2.083,0,4.166,0,6.249,0c1.908,0,3.5-1.592,3.5-3.5s-1.592-3.5-3.5-3.5
				c-2.083,0-4.166,0-6.249,0c-1.908,0-3.5,1.592-3.5,3.5S124.865,275.786,126.772,275.786L126.772,275.786z"/>
		</g>
	</g>
	<g>
		<g>
			<path style="fill:#FFFFFF;" d="M171.567,268.584c-3.876,0-7.752,0-11.628,0c-4.514,0-4.514,7,0,7c3.876,0,7.752,0,11.628,0
				C176.082,275.584,176.082,268.584,171.567,268.584L171.567,268.584z"/>
		</g>
	</g>
	<g>
		<g>
			<path style="fill:#FFFFFF;" d="M283.391,281.786c1.531,0,3.063,0,4.595,0c1.908,0,3.5-1.592,3.5-3.5s-1.592-3.5-3.5-3.5
				c-1.531,0-3.063,0-4.595,0c-1.908,0-3.5,1.592-3.5,3.5S281.482,281.786,283.391,281.786L283.391,281.786z"/>
		</g>
	</g>
	<g>
		<g>
			<path style="fill:#FFFFFF;" d="M256.666,291.786c5.333,0,10.667,0,16,0c4.514,0,4.514-7,0-7c-5.333,0-10.667,0-16,0
				C252.152,284.786,252.152,291.786,256.666,291.786L256.666,291.786z"/>
		</g>
	</g>
	<g>
		<g>
			<path style="fill:#FFFFFF;" d="M276.25,288.786c2,0,4,0,6,0c1.908,0,3.5-1.592,3.5-3.5s-1.592-3.5-3.5-3.5c-2,0-4,0-6,0
				c-1.908,0-3.5,1.592-3.5,3.5S274.342,288.786,276.25,288.786L276.25,288.786z"/>
		</g>
	</g>
	<g>
		<g>
			<path style="fill:#FFFFFF;" d="M286.584,291.786c0.667,0,1.333,0,2,0c1.908,0,3.5-1.592,3.5-3.5s-1.592-3.5-3.5-3.5
				c-0.667,0-1.333,0-2,0c-1.908,0-3.5,1.592-3.5,3.5S284.676,291.786,286.584,291.786L286.584,291.786z"/>
		</g>
	</g>
	<g>
		<g>
			<path style="fill:#FFFFFF;" d="M287.833,269.953c-0.222,0-0.443,0-0.665,0c-1.908,0-3.5,1.592-3.5,3.5s1.592,3.5,3.5,3.5
				c0.222,0,0.443,0,0.665,0c1.908,0,3.5-1.592,3.5-3.5S289.741,269.953,287.833,269.953L287.833,269.953z"/>
		</g>
	</g>
	<g>
		<g>
			<path style="fill:#FFFFFF;" d="M73.75,282.89c2.337,0,4.673,0,7.01,0c4.514,0,4.514-7,0-7c-2.337,0-4.673,0-7.01,0
				C69.235,275.89,69.235,282.89,73.75,282.89L73.75,282.89z"/>
		</g>
	</g>
	<g>
		<g>
			<path style="fill:#FFFFFF;" d="M100.271,279.89c2.581,0,5.161,0,7.741,0c4.514,0,4.514-7,0-7c-2.581,0-5.161,0-7.741,0
				C95.756,272.89,95.756,279.89,100.271,279.89L100.271,279.89z"/>
		</g>
	</g>
	<g>
		<g>
			<path style="fill:#FFFFFF;" d="M122.069,291.786c2,0,4,0,6,0c1.908,0,3.5-1.592,3.5-3.5s-1.592-3.5-3.5-3.5c-2,0-4,0-6,0
				c-1.908,0-3.5,1.592-3.5,3.5S120.161,291.786,122.069,291.786L122.069,291.786z"/>
		</g>
	</g>
	<g>
		<g>
			<path style="fill:#FFFFFF;" d="M246.238,284.278c-3,0-6.001,0-9.001,0c-4.514,0-4.514,7,0,7c3,0,6.001,0,9.001,0
				C250.752,291.278,250.752,284.278,246.238,284.278L246.238,284.278z"/>
		</g>
	</g>
	<g>
		<g>
			<path style="fill:#FFFFFF;" d="M76.8,276.953c0.694,0,1.389,0,2.083,0c1.908,0,3.5-1.592,3.5-3.5s-1.592-3.5-3.5-3.5
				c-0.694,0-1.389,0-2.083,0c-1.908,0-3.5,1.592-3.5,3.5S74.892,276.953,76.8,276.953L76.8,276.953z"/>
		</g>
	</g>
	<g>
		<g>
			<path style="fill:#FFFFFF;" d="M93.584,276.277c-0.667,0-1.333,0-2,0c-1.908,0-3.5,1.592-3.5,3.5s1.592,3.5,3.5,3.5
				c0.667,0,1.333,0,2,0c1.908,0,3.5-1.592,3.5-3.5S95.492,276.277,93.584,276.277L93.584,276.277z"/>
		</g>
	</g>
	<g>
		<g>
			<path style="fill:#FFFFFF;" d="M196.164,284.786c-2,0-4,0-6,0c-1.908,0-3.5,1.592-3.5,3.5s1.592,3.5,3.5,3.5c2,0,4,0,6,0
				c1.908,0,3.5-1.592,3.5-3.5S198.072,284.786,196.164,284.786L196.164,284.786z"/>
		</g>
	</g>
	<g>
		<g>
			<path style="fill:#FFFFFF;" d="M205.916,291.821c5.333,0,10.667,0,16,0c4.514,0,4.514-7,0-7c-5.333,0-10.667,0-16,0
				C201.402,284.821,201.402,291.821,205.916,291.821L205.916,291.821z"/>
		</g>
	</g>
	<g>
		<g>
			<path style="fill:#FFFFFF;" d="M215.209,288.036c0.667,0,1.333,0,2,0c1.908,0,3.5-1.592,3.5-3.5s-1.592-3.5-3.5-3.5
				c-0.667,0-1.333,0-2,0c-1.908,0-3.5,1.592-3.5,3.5S213.301,288.036,215.209,288.036L215.209,288.036z"/>
		</g>
	</g>
	<g>
		<g>
			<path style="fill:#FFFFFF;" d="M135.882,271.917c-3,0-6,0-9,0c-4.514,0-4.514,7,0,7c3,0,6,0,9,0
				C140.396,278.917,140.396,271.917,135.882,271.917L135.882,271.917z"/>
		</g>
	</g>
	<g>
		<g>
			<path style="fill:#FFFFFF;" d="M152.402,271.786c-2,0-4,0-6,0c-1.908,0-3.5,1.592-3.5,3.5s1.592,3.5,3.5,3.5c2,0,4,0,6,0
				c1.908,0,3.5-1.592,3.5-3.5S154.31,271.786,152.402,271.786L152.402,271.786z"/>
		</g>
	</g>
	<g>
		<g>
			<path style="fill:#FFFFFF;" d="M141.872,269.786c-0.694,0-1.388,0-2.083,0c-1.908,0-3.5,1.592-3.5,3.5s1.592,3.5,3.5,3.5
				c0.694,0,1.388,0,2.083,0c1.908,0,3.5-1.592,3.5-3.5S143.78,269.786,141.872,269.786L141.872,269.786z"/>
		</g>
	</g>
	<g>
		<g>
			<path style="fill:#FFFFFF;" d="M144.902,291.786c2,0,4,0,6,0c1.908,0,3.5-1.592,3.5-3.5s-1.592-3.5-3.5-3.5c-2,0-4,0-6,0
				c-1.908,0-3.5,1.592-3.5,3.5S142.995,291.786,144.902,291.786L144.902,291.786z"/>
		</g>
	</g>
	<g>
		<g>
			<path style="fill:#FFFFFF;" d="M85.819,291.619c5.083,0,10.167,0,15.25,0c4.514,0,4.514-7,0-7c-5.083,0-10.167,0-15.25,0
				C81.305,284.619,81.305,291.619,85.819,291.619L85.819,291.619z"/>
		</g>
	</g>
	<g>
		<g>
			<path style="fill:#FFFFFF;" d="M178.251,276.584c3,0,6.001,0,9.001,0c4.514,0,4.514-7,0-7c-3,0-6.001,0-9.001,0
				C173.737,269.584,173.737,276.584,178.251,276.584L178.251,276.584z"/>
		</g>
	</g>
	<g>
		<g>
			<path style="fill:#FFFFFF;" d="M159.584,291.821c5.333,0,10.667,0,16,0c4.514,0,4.514-7,0-7c-5.333,0-10.667,0-16,0
				C155.07,284.821,155.07,291.821,159.584,291.821L159.584,291.821z"/>
		</g>
	</g>
	<g>
		<g>
			<path style="fill:#FFFFFF;" d="M154.902,283.786c2,0,4,0,6,0c1.908,0,3.5-1.592,3.5-3.5s-1.592-3.5-3.5-3.5c-2,0-4,0-6,0
				c-1.908,0-3.5,1.592-3.5,3.5S152.995,283.786,154.902,283.786L154.902,283.786z"/>
		</g>
	</g>
	<g>
		<g>
			<path style="fill:#FFFFFF;" d="M173.251,287.584c0.667,0,1.333,0,2,0c1.908,0,3.5-1.592,3.5-3.5s-1.592-3.5-3.5-3.5
				c-0.667,0-1.333,0-2,0c-1.908,0-3.5,1.592-3.5,3.5S171.344,287.584,173.251,287.584L173.251,287.584z"/>
		</g>
	</g>
	<g>
		<g>
			<path style="fill:#FFFFFF;" d="M213.432,269.786c-4.063,0-8.128,0-12.191,0c-4.514,0-4.514,7,0,7c4.063,0,8.128,0,12.191,0
				C217.945,276.786,217.945,269.786,213.432,269.786L213.432,269.786z"/>
		</g>
	</g>
	<g>
		<g>
			<path style="fill:#FFFFFF;" d="M192.001,278.584c-2,0-4,0-6,0c-1.908,0-3.5,1.592-3.5,3.5s1.592,3.5,3.5,3.5c2,0,4,0,6,0
				c1.908,0,3.5-1.592,3.5-3.5S193.909,278.584,192.001,278.584L192.001,278.584z"/>
		</g>
	</g>
	<g>
		<g>
			<path style="fill:#FFFFFF;" d="M146.902,279.786c5.333,0,10.667,0,16,0c4.514,0,4.514-7,0-7c-5.333,0-10.667,0-16,0
				C142.388,272.786,142.388,279.786,146.902,279.786L146.902,279.786z"/>
		</g>
	</g>
	<g>
		<g>
			<path style="fill:#FFFFFF;" d="M118.012,275.203c-3,0-6,0-9,0c-4.514,0-4.514,7,0,7c3,0,6,0,9,0
				C122.526,282.203,122.526,275.203,118.012,275.203L118.012,275.203z"/>
		</g>
	</g>
	<g>
		<g>
			<path style="fill:#FFFFFF;" d="M100.754,269.167c-2.083,0-4.166,0-6.249,0c-1.908,0-3.5,1.592-3.5,3.5s1.592,3.5,3.5,3.5
				c2.083,0,4.166,0,6.249,0c1.908,0,3.5-1.592,3.5-3.5S102.662,269.167,100.754,269.167L100.754,269.167z"/>
		</g>
	</g>
	<g>
		<g>
			<path style="fill:#FFFFFF;" d="M87.26,281.036c-1.833,0-3.667,0-5.5,0c-1.908,0-3.5,1.592-3.5,3.5s1.592,3.5,3.5,3.5
				c1.833,0,3.667,0,5.5,0c1.908,0,3.5-1.592,3.5-3.5S89.168,281.036,87.26,281.036L87.26,281.036z"/>
		</g>
	</g>
	<g>
		<g>
			<path style="fill:#FFFFFF;" d="M143.083,281.917c-0.667,0-1.333,0-2,0c-1.908,0-3.5,1.592-3.5,3.5s1.592,3.5,3.5,3.5
				c0.667,0,1.333,0,2,0c1.908,0,3.5-1.592,3.5-3.5S144.991,281.917,143.083,281.917L143.083,281.917z"/>
		</g>
	</g>
	<g>
		<g>
			<path style="fill:#FFFFFF;" d="M146.833,271.723c-0.667,0-1.333,0-2,0c-1.908,0-3.5,1.592-3.5,3.5s1.592,3.5,3.5,3.5
				c0.667,0,1.333,0,2,0c1.908,0,3.5-1.592,3.5-3.5S148.741,271.723,146.833,271.723L146.833,271.723z"/>
		</g>
	</g>
	<g>
		<g>
			<path style="fill:#FFFFFF;" d="M105.261,291.619c1.833,0,3.667,0,5.5,0c1.908,0,3.5-1.592,3.5-3.5s-1.592-3.5-3.5-3.5
				c-1.833,0-3.667,0-5.5,0c-1.908,0-3.5,1.592-3.5,3.5S103.354,291.619,105.261,291.619L105.261,291.619z"/>
		</g>
	</g>
	<g>
		<g>
			<path style="fill:#FFFFFF;" d="M73.332,290.667c0.667,0,1.333,0,2,0c1.908,0,3.5-1.592,3.5-3.5s-1.592-3.5-3.5-3.5
				c-0.667,0-1.333,0-2,0c-1.908,0-3.5,1.592-3.5,3.5S71.424,290.667,73.332,290.667L73.332,290.667z"/>
		</g>
	</g>
	<g>
		<g>
			<path style="fill:#FFFFFF;" d="M92.583,281.953c0.667,0,1.333,0,2,0c1.908,0,3.5-1.592,3.5-3.5s-1.592-3.5-3.5-3.5
				c-0.667,0-1.333,0-2,0c-1.908,0-3.5,1.592-3.5,3.5S90.675,281.953,92.583,281.953L92.583,281.953z"/>
		</g>
	</g>
	<g>
		<g>
			<path style="fill:#FFFFFF;" d="M103.833,279.89c4.514,0,4.514-7,0-7S99.319,279.89,103.833,279.89L103.833,279.89z"/>
		</g>
	</g>
	<g>
		<g>
			<path style="fill:#FFFFFF;" d="M207.5,275.89c-3.722,0-7.444,0-11.166,0c-4.514,0-4.514,7,0,7c3.722,0,7.444,0,11.166,0
				C212.014,282.89,212.014,275.89,207.5,275.89L207.5,275.89z"/>
		</g>
	</g>
	<g>
		<g>
			<path style="fill:#FFFFFF;" d="M140.46,280.584c-3.722,0-7.444,0-11.166,0c-4.514,0-4.514,7,0,7c3.722,0,7.444,0,11.166,0
				C144.975,287.584,144.975,280.584,140.46,280.584L140.46,280.584z"/>
		</g>
	</g>
	<g>
		<g>
			<path style="fill:#FFFFFF;" d="M71.332,270.643c48.132,0,96.264,0,144.396,0c24.868,0,49.736,0,74.604,0c1.935,0,1.935-3,0-3
				c-48.132,0-96.265,0-144.396,0c-24.868,0-49.736,0-74.604,0C69.397,267.643,69.397,270.643,71.332,270.643L71.332,270.643z"/>
		</g>
	</g>
	<g>
		<g>
			<path style="fill:#FFFFFF;" d="M284.211,272.723c-3,0-6,0-9,0c-4.514,0-4.514,7,0,7c3,0,6,0,9,0
				C288.725,279.723,288.725,272.723,284.211,272.723L284.211,272.723z"/>
		</g>
	</g>
	<g>
		<g>
			<path style="fill:#FFFFFF;" d="M255.289,278.65c-2,0-4,0-6,0c-1.908,0-3.5,1.592-3.5,3.5s1.592,3.5,3.5,3.5c2,0,4,0,6,0
				c1.908,0,3.5-1.592,3.5-3.5S257.197,278.65,255.289,278.65L255.289,278.65z"/>
		</g>
	</g>
	<g>
		<g>
			<path style="fill:#FFFFFF;" d="M231.783,275.584c2,0,4,0,6,0c1.908,0,3.5-1.592,3.5-3.5s-1.592-3.5-3.5-3.5c-2,0-4,0-6,0
				c-1.908,0-3.5,1.592-3.5,3.5S229.875,275.584,231.783,275.584L231.783,275.584z"/>
		</g>
	</g>
	<g>
		<g>
			<path style="fill:#FFFFFF;" d="M222.116,289.804c5.333,0,10.667,0,16,0c4.514,0,4.514-7,0-7c-5.333,0-10.667,0-16,0
				C217.603,282.804,217.603,289.804,222.116,289.804L222.116,289.804z"/>
		</g>
	</g>
	<g>
		<g>
			<path style="fill:#FFFFFF;" d="M217.435,281.769c2,0,4,0,6,0c1.908,0,3.5-1.592,3.5-3.5s-1.592-3.5-3.5-3.5c-2,0-4,0-6,0
				c-1.908,0-3.5,1.592-3.5,3.5S215.526,281.769,217.435,281.769L217.435,281.769z"/>
		</g>
	</g>
	<g>
		<g>
			<path style="fill:#FFFFFF;" d="M235.783,285.566c0.667,0,1.333,0,2,0c1.908,0,3.5-1.592,3.5-3.5s-1.592-3.5-3.5-3.5
				c-0.667,0-1.333,0-2,0c-1.908,0-3.5,1.592-3.5,3.5S233.875,285.566,235.783,285.566L235.783,285.566z"/>
		</g>
	</g>
	<g>
		<g>
			<path style="fill:#FFFFFF;" d="M251.125,272.449c-2,0-4,0-6,0c-1.908,0-3.5,1.592-3.5,3.5s1.592,3.5,3.5,3.5c2,0,4,0,6,0
				c1.908,0,3.5-1.592,3.5-3.5S253.033,272.449,251.125,272.449L251.125,272.449z"/>
		</g>
	</g>
	<g>
		<g>
			<path style="fill:#FFFFFF;" d="M181.833,275.89c-0.667,0-1.333,0-2,0c-1.908,0-3.5,1.592-3.5,3.5s1.592,3.5,3.5,3.5
				c0.667,0,1.333,0,2,0c1.908,0,3.5-1.592,3.5-3.5S183.741,275.89,181.833,275.89L181.833,275.89z"/>
		</g>
	</g>
	<g>
		<g>
			<path style="fill:#FFFFFF;" d="M268.175,271.723c-3.722,0-7.444,0-11.166,0c-4.514,0-4.514,7,0,7c3.722,0,7.444,0,11.166,0
				C272.688,278.723,272.688,271.723,268.175,271.723L268.175,271.723z"/>
		</g>
	</g>
	<g>
		<g>
			<g>
				<g>
					<path style="fill:#FFFFFF;" d="M211.451,132.291c18.871,0,37.742,0,56.613,0c1.935,0,1.935-3,0-3c-18.871,0-37.742,0-56.613,0
						C209.517,129.291,209.517,132.291,211.451,132.291L211.451,132.291z"/>
				</g>
			</g>
			<g>
				<g>
					<path style="fill:#FFFFFF;" d="M207.139,136.525c1.791-1.558,3.582-3.116,5.373-4.674c1.462-1.272-0.669-3.385-2.121-2.121
						c-1.791,1.558-3.582,3.116-5.373,4.674C203.556,135.676,205.687,137.789,207.139,136.525L207.139,136.525z"/>
				</g>
			</g>
			<g>
				<g>
					<path style="fill:#FFFFFF;" d="M267.004,131.851c1.791,1.558,3.583,3.116,5.374,4.674c1.452,1.263,3.584-0.85,2.121-2.121
						c-1.791-1.558-3.583-3.116-5.374-4.674C267.673,128.467,265.541,130.58,267.004,131.851L267.004,131.851z"/>
				</g>
			</g>
		</g>
		<g>
			<g>
				<path style="fill:#FFFFFF;" d="M206.078,136.964c22.453,0,44.907,0,67.36,0c1.935,0,1.935-3,0-3c-22.453,0-44.907,0-67.36,0
					C204.144,133.964,204.144,136.964,206.078,136.964L206.078,136.964z"/>
			</g>
		</g>
	</g>
	<g>
		<g>
			<g>
				<g>
					<path style="fill:#FFFFFF;" d="M211.451,141.894c18.871,0,37.742,0,56.613,0c1.935,0,1.935-3,0-3c-18.871,0-37.742,0-56.613,0
						C209.517,138.894,209.517,141.894,211.451,141.894L211.451,141.894z"/>
				</g>
			</g>
			<g>
				<g>
					<path style="fill:#FFFFFF;" d="M207.139,146.128c1.791-1.558,3.582-3.116,5.373-4.674c1.462-1.272-0.669-3.385-2.121-2.121
						c-1.791,1.558-3.582,3.116-5.373,4.674C203.556,145.279,205.687,147.392,207.139,146.128L207.139,146.128z"/>
				</g>
			</g>
			<g>
				<g>
					<path style="fill:#FFFFFF;" d="M267.004,141.454c1.791,1.558,3.583,3.116,5.374,4.674c1.452,1.263,3.584-0.85,2.121-2.121
						c-1.791-1.558-3.583-3.116-5.374-4.674C267.673,138.07,265.541,140.183,267.004,141.454L267.004,141.454z"/>
				</g>
			</g>
		</g>
		<g>
			<g>
				<path style="fill:#FFFFFF;" d="M206.078,146.567c22.453,0,44.907,0,67.36,0c1.935,0,1.935-3,0-3c-22.453,0-44.907,0-67.36,0
					C204.144,143.567,204.144,146.567,206.078,146.567L206.078,146.567z"/>
			</g>
		</g>
	</g>
	<g>
		<g>
			<g>
				<g>
					<path style="fill:#FFFFFF;" d="M211.451,151.496c18.871,0,37.742,0,56.613,0c1.935,0,1.935-3,0-3c-18.871,0-37.742,0-56.613,0
						C209.517,148.496,209.517,151.496,211.451,151.496L211.451,151.496z"/>
				</g>
			</g>
			<g>
				<g>
					<path style="fill:#FFFFFF;" d="M207.139,155.73c1.791-1.558,3.582-3.116,5.373-4.674c1.462-1.272-0.669-3.385-2.121-2.121
						c-1.791,1.558-3.582,3.116-5.373,4.674C203.556,154.881,205.687,156.994,207.139,155.73L207.139,155.73z"/>
				</g>
			</g>
			<g>
				<g>
					<path style="fill:#FFFFFF;" d="M267.004,151.057c1.791,1.558,3.583,3.116,5.374,4.674c1.452,1.263,3.584-0.85,2.121-2.121
						c-1.791-1.558-3.583-3.116-5.374-4.674C267.673,147.672,265.541,149.785,267.004,151.057L267.004,151.057z"/>
				</g>
			</g>
		</g>
		<g>
			<g>
				<path style="fill:#FFFFFF;" d="M206.078,156.17c22.453,0,44.907,0,67.36,0c1.935,0,1.935-3,0-3c-22.453,0-44.907,0-67.36,0
					C204.144,153.17,204.144,156.17,206.078,156.17L206.078,156.17z"/>
			</g>
		</g>
	</g>
	<g>
		<g>
			<g>
				<g>
					<path style="fill:#FFFFFF;" d="M211.451,161.099c18.871,0,37.742,0,56.613,0c1.935,0,1.935-3,0-3c-18.871,0-37.742,0-56.613,0
						C209.517,158.099,209.517,161.099,211.451,161.099L211.451,161.099z"/>
				</g>
			</g>
			<g>
				<g>
					<path style="fill:#FFFFFF;" d="M207.139,165.333c1.791-1.558,3.582-3.116,5.373-4.674c1.462-1.272-0.669-3.385-2.121-2.121
						c-1.791,1.558-3.582,3.116-5.373,4.674C203.556,164.484,205.687,166.597,207.139,165.333L207.139,165.333z"/>
				</g>
			</g>
			<g>
				<g>
					<path style="fill:#FFFFFF;" d="M267.004,160.66c1.791,1.558,3.583,3.116,5.374,4.674c1.452,1.263,3.584-0.85,2.121-2.121
						c-1.791-1.558-3.583-3.116-5.374-4.674C267.673,157.275,265.541,159.388,267.004,160.66L267.004,160.66z"/>
				</g>
			</g>
		</g>
		<g>
			<g>
				<path style="fill:#FFFFFF;" d="M206.078,165.773c22.453,0,44.907,0,67.36,0c1.935,0,1.935-3,0-3c-22.453,0-44.907,0-67.36,0
					C204.144,162.773,204.144,165.773,206.078,165.773L206.078,165.773z"/>
			</g>
		</g>
	</g>
	<g>
		<g>
			<g>
				<g>
					<path style="fill:#FFFFFF;" d="M211.451,170.702c18.871,0,37.742,0,56.613,0c1.935,0,1.935-3,0-3c-18.871,0-37.742,0-56.613,0
						C209.517,167.702,209.517,170.702,211.451,170.702L211.451,170.702z"/>
				</g>
			</g>
			<g>
				<g>
					<path style="fill:#FFFFFF;" d="M207.139,174.937c1.791-1.558,3.582-3.116,5.373-4.674c1.462-1.272-0.669-3.385-2.121-2.121
						c-1.791,1.558-3.582,3.116-5.373,4.674C203.556,174.087,205.687,176.2,207.139,174.937L207.139,174.937z"/>
				</g>
			</g>
			<g>
				<g>
					<path style="fill:#FFFFFF;" d="M267.004,170.263c1.791,1.558,3.583,3.116,5.374,4.674c1.452,1.263,3.584-0.85,2.121-2.121
						c-1.791-1.558-3.583-3.116-5.374-4.674C267.673,166.878,265.541,168.991,267.004,170.263L267.004,170.263z"/>
				</g>
			</g>
		</g>
		<g>
			<g>
				<path style="fill:#FFFFFF;" d="M206.078,175.376c22.453,0,44.907,0,67.36,0c1.935,0,1.935-3,0-3c-22.453,0-44.907,0-67.36,0
					C204.144,172.376,204.144,175.376,206.078,175.376L206.078,175.376z"/>
			</g>
		</g>
	</g>
</g>
<g id="Ebene_1">
</g>
</svg>
