<?xml version="1.0" encoding="iso-8859-1"?>
<!-- Generator: Adobe Illustrator 16.0.0, SVG Export Plug-In . SVG Version: 6.00 Build 0)  -->
<!DOCTYPE svg PUBLIC "-//W3C//DTD SVG 1.1//EN" "http://www.w3.org/Graphics/SVG/1.1/DTD/svg11.dtd">
<svg version="1.1" xmlns="http://www.w3.org/2000/svg" xmlns:xlink="http://www.w3.org/1999/xlink" x="0px" y="0px" width="361px"
	 height="361px" viewBox="0 0 361 361" style="enable-background:new 0 0 361 361;" xml:space="preserve">
<g id="light_x5F_wire_x5F_system_x5F_2">
	<g>
		<g>
			<path style="fill:#FFFFFF;" d="M83.84,163.013c8.917,1.522,17.833,3.045,26.749,4.567c4.414,0.754,6.304-5.991,1.861-6.75
				c-8.917-1.522-17.833-3.045-26.749-4.567C81.287,155.509,79.397,162.254,83.84,163.013L83.84,163.013z"/>
		</g>
	</g>
	<g>
		<g>
			<path style="fill:#FFFFFF;" d="M84.114,172.628c8.917,1.522,17.833,3.045,26.749,4.567c4.414,0.753,6.304-5.991,1.861-6.75
				c-8.917-1.522-17.833-3.045-26.749-4.567C81.562,165.125,79.671,171.87,84.114,172.628L84.114,172.628z"/>
		</g>
	</g>
	<g>
		<g>
			<path style="fill:#FFFFFF;" d="M84.114,181.97c8.917,1.522,17.833,3.045,26.749,4.567c4.414,0.754,6.304-5.991,1.861-6.75
				c-8.917-1.522-17.833-3.045-26.749-4.567C81.562,174.466,79.671,181.211,84.114,181.97L84.114,181.97z"/>
		</g>
	</g>
	<g>
		<g>
			<path style="fill:#FFFFFF;" d="M89.808,191.941c5.004,0.854,10.008,1.708,15.012,2.563c4.414,0.754,6.304-5.991,1.861-6.75
				c-5.004-0.854-10.008-1.708-15.012-2.563C87.255,184.438,85.365,191.183,89.808,191.941L89.808,191.941z"/>
		</g>
	</g>
	<path style="fill:none;stroke:#FFFFFF;stroke-width:10;stroke-miterlimit:10;" d="M120.784,137.073
		c0,7.544-6.116,13.66-13.66,13.66H88.91c-7.544,0-13.66-6.116-13.66-13.66V88.504c0-7.544,6.116-13.66,13.66-13.66h18.213
		c7.544,0,13.66,6.116,13.66,13.66V137.073z"/>
	<path style="fill:none;stroke:#FFFFFF;stroke-width:10;stroke-miterlimit:10;" d="M254.602,203.584"/>
	<path style="fill:none;stroke:#FFFFFF;stroke-width:10;stroke-miterlimit:10;" d="M237.102,149.738"/>
	<g>
		<g>
			<g>
				<path style="fill:#FFFFFF;" d="M250.126,269.964c4.98,2.323,9.962,4.646,14.943,6.969c1.741,0.813,3.266-1.773,1.514-2.59
					c-4.98-2.323-9.962-4.646-14.943-6.969C249.898,266.562,248.374,269.147,250.126,269.964L250.126,269.964z"/>
			</g>
		</g>
		<g>
			<g>
				<path style="fill:#FFFFFF;" d="M213.41,252.843c5.315,2.479,10.631,4.957,15.946,7.436c1.741,0.813,3.266-1.773,1.514-2.59
					c-5.315-2.479-10.631-4.957-15.946-7.436C213.183,249.44,211.658,252.026,213.41,252.843L213.41,252.843z"/>
			</g>
		</g>
		<g>
			<g>
				<g>
					<path style="fill:#FFFFFF;" d="M245.543,282.598c-7.245-3.378-14.49-6.756-21.735-10.135c-4.064-1.895-7.621,4.139-3.533,6.045
						c7.245,3.378,14.49,6.756,21.735,10.135C246.074,290.537,249.631,284.504,245.543,282.598L245.543,282.598z"/>
				</g>
			</g>
			<path style="fill:#FFFFFF;" d="M235.531,262.235c-2.916-1.359-6.229-0.432-7.396,2.074l-3.896,8.354
				c-1.168,2.506,0.25,5.64,3.166,6.999l9.311,4.342c2.916,1.36,6.228,0.431,7.396-2.074l3.895-8.354
				c1.169-2.506-0.248-5.64-3.164-6.999L235.531,262.235z"/>
			<g>
				<g>
					<path style="fill:#FFFFFF;" d="M248.507,258.463c-2.705-1.261-5.411-2.522-8.116-3.784c-1.729-0.806-3.759-0.502-4.789,1.256
						c-0.896,1.53-0.473,3.982,1.256,4.789c2.705,1.261,5.411,2.522,8.116,3.784c1.729,0.806,3.759,0.502,4.789-1.256
						C250.658,261.722,250.235,259.27,248.507,258.463L248.507,258.463z"/>
				</g>
			</g>
		</g>
	</g>
	<g>
		<g>
			<g>
				<path style="fill:#FFFFFF;" d="M250.427,182.297c4.98,2.323,9.962,4.646,14.943,6.969c1.741,0.813,3.266-1.773,1.514-2.59
					c-4.98-2.323-9.962-4.646-14.943-6.969C250.199,178.895,248.675,181.48,250.427,182.297L250.427,182.297z"/>
			</g>
		</g>
		<g>
			<g>
				<path style="fill:#FFFFFF;" d="M213.711,165.177c5.315,2.479,10.631,4.957,15.946,7.436c1.741,0.812,3.266-1.773,1.514-2.591
					c-5.315-2.479-10.631-4.957-15.946-7.436C213.483,161.774,211.959,164.36,213.711,165.177L213.711,165.177z"/>
			</g>
		</g>
		<g>
			<g>
				<g>
					<path style="fill:#FFFFFF;" d="M245.844,194.932c-7.245-3.378-14.49-6.757-21.735-10.136c-4.064-1.895-7.621,4.138-3.533,6.045
						c7.245,3.378,14.49,6.757,21.735,10.136C246.375,202.871,249.932,196.839,245.844,194.932L245.844,194.932z"/>
				</g>
			</g>
			<path style="fill:#FFFFFF;" d="M235.832,174.569c-2.916-1.36-6.229-0.432-7.396,2.074l-3.896,8.354
				c-1.168,2.506,0.25,5.64,3.166,7l9.311,4.342c2.916,1.359,6.228,0.431,7.396-2.075l3.895-8.354c1.169-2.506-0.248-5.64-3.164-7
				L235.832,174.569z"/>
			<g>
				<g>
					<path style="fill:#FFFFFF;" d="M248.808,170.797c-2.705-1.262-5.411-2.523-8.116-3.785c-1.729-0.807-3.759-0.502-4.789,1.255
						c-0.896,1.53-0.473,3.982,1.256,4.789c2.705,1.262,5.411,2.523,8.116,3.785c1.729,0.807,3.759,0.502,4.789-1.255
						C250.959,174.056,250.536,171.604,248.808,170.797L248.808,170.797z"/>
				</g>
			</g>
		</g>
	</g>
	<g>
		<g>
			<path style="fill:#FFFFFF;" d="M250.87,96.703c4.98,2.323,9.962,4.646,14.943,6.969c1.741,0.812,3.266-1.773,1.514-2.591
				c-4.98-2.323-9.962-4.646-14.943-6.969C250.643,93.3,249.118,95.885,250.87,96.703L250.87,96.703z"/>
		</g>
	</g>
	<g>
		<g>
			<path style="fill:#FFFFFF;" d="M214.154,79.582c5.315,2.479,10.631,4.957,15.946,7.436c1.741,0.812,3.266-1.773,1.514-2.591
				c-5.315-2.479-10.631-4.957-15.946-7.436C213.927,76.179,212.402,78.765,214.154,79.582L214.154,79.582z"/>
		</g>
	</g>
	<g>
		<g>
			<g>
				<path style="fill:#FFFFFF;" d="M246.287,109.337c-7.245-3.378-14.49-6.757-21.735-10.135c-4.064-1.896-7.621,4.138-3.533,6.044
					c7.245,3.378,14.49,6.757,21.735,10.135C246.818,117.276,250.375,111.243,246.287,109.337L246.287,109.337z"/>
			</g>
		</g>
		<path style="fill:#FFFFFF;" d="M236.275,88.974c-2.916-1.36-6.229-0.432-7.396,2.074l-3.896,8.354
			c-1.169,2.506,0.249,5.64,3.165,7l9.311,4.341c2.916,1.36,6.229,0.431,7.396-2.074l3.896-8.354
			c1.168-2.505-0.249-5.639-3.165-6.999L236.275,88.974z"/>
		<g>
			<g>
				<path style="fill:#FFFFFF;" d="M249.251,85.202c-2.705-1.262-5.41-2.523-8.115-3.785c-1.729-0.807-3.759-0.502-4.789,1.255
					c-0.896,1.53-0.473,3.982,1.256,4.789c2.705,1.262,5.41,2.523,8.115,3.785c1.729,0.807,3.759,0.502,4.789-1.255
					C251.402,88.46,250.979,86.008,249.251,85.202L249.251,85.202z"/>
			</g>
		</g>
	</g>
	<g>
		<g>
			<path style="fill:#FFFFFF;" d="M265.873,71.667c0,48.104,0,96.208,0,144.312c0,24.854,0,49.707,0,74.561c0,1.935,3,1.935,3,0
				c0-48.104,0-96.208,0-144.312c0-24.854,0-49.707,0-74.561C268.873,69.732,265.873,69.732,265.873,71.667L265.873,71.667z"/>
		</g>
	</g>
	<g>
		<g>
			<path style="fill:#FFFFFF;" d="M212.873,71.064c0,48.104,0,96.208,0,144.311c0,24.854,0,49.707,0,74.561c0,1.935,3,1.935,3,0
				c0-48.104,0-96.207,0-144.311c0-24.854,0-49.707,0-74.561C215.873,69.129,212.873,69.129,212.873,71.064L212.873,71.064z"/>
		</g>
	</g>
</g>
<g id="Ebene_1">
</g>
</svg>
