<?xml version="1.0" encoding="iso-8859-1"?>
<!-- Generator: Adobe Illustrator 16.0.0, SVG Export Plug-In . SVG Version: 6.00 Build 0)  -->
<!DOCTYPE svg PUBLIC "-//W3C//DTD SVG 1.1 Tiny//EN" "http://www.w3.org/Graphics/SVG/1.1/DTD/svg11-tiny.dtd">
<svg version="1.1" baseProfile="tiny" id="light_x5F_stairs"
	 xmlns="http://www.w3.org/2000/svg" xmlns:xlink="http://www.w3.org/1999/xlink" x="0px" y="0px" width="361px" height="361px"
	 viewBox="0 0 361 361" xml:space="preserve">
<g>
	<g>
		<path fill="#FFFFFF" d="M74.594,294.047c13.25,0,26.499,0,39.748,0c9.687,0,9.772-15.004,0.108-15.004c-13.25,0-26.499,0-39.748,0
			C65.016,279.043,64.931,294.047,74.594,294.047L74.594,294.047z"/>
	</g>
	<g>
		<path fill="#FFFFFF" d="M108.245,272.047c13.249,0,26.498,0,39.747,0c9.687,0,9.772-15.003,0.108-15.003
			c-13.249,0-26.498,0-39.747,0C98.667,257.043,98.582,272.047,108.245,272.047L108.245,272.047z"/>
	</g>
	<g>
		<path fill="#FFFFFF" d="M141.895,250.046c13.25,0,26.499,0,39.748,0c9.687,0,9.772-15.003,0.108-15.003
			c-13.25,0-26.499,0-39.748,0C132.317,235.043,132.231,250.046,141.895,250.046L141.895,250.046z"/>
	</g>
	<g>
		<path fill="#FFFFFF" d="M175.546,228.046c13.25,0,26.499,0,39.748,0c9.687,0,9.772-15.003,0.108-15.003
			c-13.25,0-26.499,0-39.748,0C165.968,213.043,165.882,228.046,175.546,228.046L175.546,228.046z"/>
	</g>
	<g>
		<path fill="#FFFFFF" d="M209.196,206.046c13.249,0,26.498,0,39.747,0c9.687,0,9.772-15.003,0.108-15.003
			c-13.249,0-26.498,0-39.747,0C199.618,191.043,199.533,206.046,209.196,206.046L209.196,206.046z"/>
	</g>
	<g>
		<path fill="#FFFFFF" d="M242.847,184.046c13.25,0,26.499,0,39.748,0c9.687,0,9.772-15.003,0.108-15.003
			c-13.25,0-26.499,0-39.748,0C233.269,169.043,233.183,184.046,242.847,184.046L242.847,184.046z"/>
	</g>
</g>
<g>
	<path fill="#FFFFFF" d="M81.572,165.391c8.917,1.522,17.833,3.045,26.749,4.567c4.414,0.754,6.304-5.991,1.861-6.75
		c-8.917-1.522-17.833-3.045-26.749-4.567C79.019,157.887,77.129,164.632,81.572,165.391L81.572,165.391z"/>
</g>
<g>
	<path fill="#FFFFFF" d="M81.846,175.006c8.917,1.522,17.833,3.045,26.749,4.567c4.414,0.753,6.304-5.991,1.861-6.75
		c-8.917-1.522-17.833-3.045-26.749-4.567C79.293,167.503,77.403,174.248,81.846,175.006L81.846,175.006z"/>
</g>
<g>
	<path fill="#FFFFFF" d="M81.846,184.348c8.917,1.522,17.833,3.045,26.749,4.567c4.414,0.754,6.304-5.991,1.861-6.75
		c-8.917-1.522-17.833-3.045-26.749-4.567C79.293,176.844,77.403,183.589,81.846,184.348L81.846,184.348z"/>
</g>
<g>
	<path fill="#FFFFFF" d="M87.54,194.319c5.004,0.854,10.008,1.709,15.012,2.563c4.414,0.754,6.304-5.991,1.861-6.75
		c-5.004-0.854-10.008-1.709-15.012-2.563C84.987,186.815,83.097,193.56,87.54,194.319L87.54,194.319z"/>
</g>
<path fill="none" stroke="#FFFFFF" stroke-width="10" stroke-miterlimit="10" d="M118.516,139.451c0,7.544-6.116,13.66-13.66,13.66
	H86.642c-7.544,0-13.66-6.116-13.66-13.66V90.882c0-7.544,6.116-13.66,13.66-13.66h18.213c7.544,0,13.66,6.116,13.66,13.66V139.451z
	"/>
</svg>
