<?xml version="1.0" encoding="iso-8859-1"?>
<!-- Generator: Adobe Illustrator 16.0.0, SVG Export Plug-In . SVG Version: 6.00 Build 0)  -->
<!DOCTYPE svg PUBLIC "-//W3C//DTD SVG 1.1//EN" "http://www.w3.org/Graphics/SVG/1.1/DTD/svg11.dtd">
<svg version="1.1" xmlns="http://www.w3.org/2000/svg" xmlns:xlink="http://www.w3.org/1999/xlink" x="0px" y="0px" width="361px"
	 height="361px" viewBox="0 0 361 361" style="enable-background:new 0 0 361 361;" xml:space="preserve">
<g id="light_x5F_showcase">
	<g>
		<g>
			<path style="fill:#FFFFFF;" d="M84.09,162.514c8.917,1.522,17.833,3.045,26.749,4.567c4.414,0.754,6.304-5.991,1.861-6.75
				c-8.917-1.522-17.833-3.045-26.749-4.567C81.537,155.01,79.647,161.755,84.09,162.514L84.09,162.514z"/>
		</g>
	</g>
	<g>
		<g>
			<path style="fill:#FFFFFF;" d="M84.364,172.129c8.917,1.522,17.833,3.045,26.749,4.567c4.414,0.753,6.304-5.991,1.861-6.75
				c-8.917-1.522-17.833-3.045-26.749-4.567C81.812,164.626,79.921,171.371,84.364,172.129L84.364,172.129z"/>
		</g>
	</g>
	<g>
		<g>
			<path style="fill:#FFFFFF;" d="M84.364,181.471c8.917,1.522,17.833,3.045,26.749,4.567c4.414,0.754,6.304-5.991,1.861-6.75
				c-8.917-1.522-17.833-3.045-26.749-4.567C81.812,173.967,79.921,180.712,84.364,181.471L84.364,181.471z"/>
		</g>
	</g>
	<g>
		<g>
			<path style="fill:#FFFFFF;" d="M90.058,191.442c5.004,0.854,10.008,1.709,15.012,2.563c4.414,0.754,6.304-5.991,1.861-6.75
				c-5.004-0.854-10.008-1.709-15.012-2.563C87.505,183.938,85.615,190.684,90.058,191.442L90.058,191.442z"/>
		</g>
	</g>
	<path style="fill:none;stroke:#FFFFFF;stroke-width:10;stroke-miterlimit:10;" d="M121.034,136.574
		c0,7.544-6.116,13.66-13.66,13.66H89.16c-7.544,0-13.66-6.116-13.66-13.66V88.005c0-7.544,6.116-13.66,13.66-13.66h18.213
		c7.544,0,13.66,6.116,13.66,13.66V136.574z"/>
	<g>
		<g>
			<path style="fill:#FFFFFF;" d="M247.813,188.07c7.113-6.749,14.227-13.498,21.34-20.247c1.406-1.334-0.719-3.452-2.121-2.121
				c-7.113,6.749-14.227,13.498-21.34,20.247C244.285,187.283,246.41,189.401,247.813,188.07L247.813,188.07z"/>
		</g>
	</g>
	<g>
		<g>
			<path style="fill:#FFFFFF;" d="M241.381,203.024c13.17-12.495,26.34-24.99,39.51-37.485c1.406-1.334-0.719-3.452-2.121-2.121
				c-13.17,12.495-26.34,24.99-39.51,37.485C237.854,202.237,239.979,204.355,241.381,203.024L241.381,203.024z"/>
		</g>
	</g>
	<g>
		<g>
			<path style="fill:#FFFFFF;" d="M251.613,203.056c7.711-7.315,15.421-14.632,23.132-21.947c1.406-1.334-0.719-3.452-2.121-2.122
				c-7.711,7.316-15.421,14.631-23.132,21.948C248.086,202.269,250.211,204.387,251.613,203.056L251.613,203.056z"/>
		</g>
	</g>
	<g id="Vitrine_1_">
		<g>
			<g>
				<path style="fill:#FFFFFF;" d="M284.833,276.249c-0.377,3.27-6.531,2.169-8.354,2.169c-5.59,0-11.18,0-16.771,0
					c-15.89,0-31.78,0-47.671,0c-12.357,0-24.715,0-37.073,0c-1.668,0-6.131,0.758-6.131-2.336c0-1.833,0-3.665,0-5.498
					c0-55.487,0-110.974,0-166.461c0-7.79,0-15.58,0-23.37c0-5.953,9.523-3.835,13.402-3.835c29.303,0,58.605,0,87.909,0
					c3.423,0,14.688-2.203,14.688,3.451c0,7.461,0,14.923,0,22.385c0,30.279,0,60.559,0,90.838
					C284.833,221.145,284.833,248.696,284.833,276.249c0,4.514,7,4.514,7,0c0-49.466,0-98.932,0-148.397c0-11.986,0-23.973,0-35.959
					c0-4.37,1.508-13.034-1.054-17.064c-4.695-7.386-17.324-4.91-24.82-4.91c-15.363,0-30.726,0-46.089,0
					c-13.714,0-27.428,0-41.143,0c-7.324,0-16.895-0.489-16.895,9.829c0,20.263,0,40.526,0,60.789c0,31.818,0,63.636,0,95.455
					c0,10.74,0,21.479,0,32.219c0,6.868-0.884,17.209,9.181,17.209c20.927,0,41.855,0,62.782,0c12.753,0,25.505,0,38.258,0
					c7.985,0,18.529,1.683,19.779-9.169C292.349,271.77,285.344,271.819,284.833,276.249z"/>
			</g>
		</g>
		<g>
			<g>
				<path style="fill:#FFFFFF;" d="M172.583,291.418c4.333,0,8.667,0,13,0c6.448,0,6.448-10,0-10c-4.333,0-8.667,0-13,0
					C166.134,281.418,166.134,291.418,172.583,291.418L172.583,291.418z"/>
			</g>
		</g>
		<g>
			<g>
				<path style="fill:#FFFFFF;" d="M269.333,291.418c4.333,0,8.667,0,13,0c6.448,0,6.448-10,0-10c-4.333,0-8.667,0-13,0
					C262.885,281.418,262.885,291.418,269.333,291.418L269.333,291.418z"/>
			</g>
		</g>
		
			<line style="fill:none;stroke:#FFFFFF;stroke-width:3;stroke-miterlimit:10;" x1="230.833" y1="76.001" x2="230.833" y2="281.918"/>
		<g>
			<g>
				<path style="fill:#FFFFFF;" d="M165.333,144.168c41,0,82,0,123,0c1.935,0,1.935-3,0-3c-41,0-82,0-123,0
					C163.398,141.168,163.398,144.168,165.333,144.168L165.333,144.168z"/>
			</g>
		</g>
		
			<line style="fill:none;stroke:#FFFFFF;stroke-width:3;stroke-linecap:round;stroke-miterlimit:10;" x1="227.5" y1="159.139" x2="227.5" y2="170.168"/>
		
			<line style="fill:none;stroke:#FFFFFF;stroke-width:3;stroke-linecap:round;stroke-miterlimit:10;" x1="234.166" y1="159.139" x2="234.166" y2="170.168"/>
	</g>
	<g>
		<g>
			<path style="fill:#FFFFFF;" d="M165.333,218.168c41,0,82,0,123,0c1.935,0,1.935-3,0-3c-41,0-82,0-123,0
				C163.398,215.168,163.398,218.168,165.333,218.168L165.333,218.168z"/>
		</g>
	</g>
	<g>
		<g>
			<path style="fill:#FFFFFF;" d="M208.101,107.936c-7.113,6.749-14.227,13.498-21.34,20.247c-1.406,1.334,0.719,3.452,2.121,2.121
				c7.113-6.749,14.227-13.498,21.34-20.247C211.628,108.723,209.503,106.605,208.101,107.936L208.101,107.936z"/>
		</g>
	</g>
	<g>
		<g>
			<path style="fill:#FFFFFF;" d="M219.532,87.98c-13.17,12.495-26.339,24.99-39.509,37.485c-1.406,1.334,0.719,3.452,2.121,2.121
				c13.17-12.495,26.339-24.99,39.509-37.485C223.06,88.768,220.935,86.65,219.532,87.98L219.532,87.98z"/>
		</g>
	</g>
	<g>
		<g>
			<path style="fill:#FFFFFF;" d="M209.301,87.95c-7.711,7.315-15.422,14.631-23.133,21.947c-1.406,1.334,0.719,3.452,2.121,2.121
				c7.711-7.315,15.422-14.631,23.133-21.947C212.828,88.737,210.703,86.619,209.301,87.95L209.301,87.95z"/>
		</g>
	</g>
</g>
<g id="Ebene_1">
</g>
</svg>
