<?xml version="1.0" encoding="iso-8859-1"?>
<!-- Generator: Adobe Illustrator 16.0.0, SVG Export Plug-In . SVG Version: 6.00 Build 0)  -->
<!DOCTYPE svg PUBLIC "-//W3C//DTD SVG 1.1 Tiny//EN" "http://www.w3.org/Graphics/SVG/1.1/DTD/svg11-tiny.dtd">
<svg version="1.1" baseProfile="tiny" id="light_x5F_wall_x5F_2"
	 xmlns="http://www.w3.org/2000/svg" xmlns:xlink="http://www.w3.org/1999/xlink" x="0px" y="0px" width="361px" height="361px"
	 viewBox="0 0 361 361" xml:space="preserve">
<g>
	<path fill="#FFFFFF" d="M81.322,165.891c8.917,1.522,17.833,3.045,26.749,4.567c4.414,0.754,6.304-5.991,1.861-6.75
		c-8.917-1.522-17.833-3.045-26.749-4.567C78.769,158.387,76.879,165.132,81.322,165.891L81.322,165.891z"/>
</g>
<g>
	<path fill="#FFFFFF" d="M81.596,175.506c8.917,1.522,17.833,3.045,26.749,4.567c4.414,0.753,6.304-5.991,1.861-6.75
		c-8.917-1.522-17.833-3.045-26.749-4.567C79.043,168.003,77.153,174.748,81.596,175.506L81.596,175.506z"/>
</g>
<g>
	<path fill="#FFFFFF" d="M81.596,184.848c8.917,1.522,17.833,3.045,26.749,4.567c4.414,0.754,6.304-5.991,1.861-6.75
		c-8.917-1.522-17.833-3.045-26.749-4.567C79.043,177.344,77.153,184.089,81.596,184.848L81.596,184.848z"/>
</g>
<g>
	<path fill="#FFFFFF" d="M87.29,194.819c5.004,0.854,10.008,1.709,15.012,2.563c4.414,0.754,6.304-5.991,1.861-6.75
		c-5.004-0.854-10.008-1.709-15.012-2.563C84.737,187.315,82.847,194.06,87.29,194.819L87.29,194.819z"/>
</g>
<path fill="none" stroke="#FFFFFF" stroke-width="10" stroke-miterlimit="10" d="M118.266,139.951c0,7.544-6.116,13.66-13.66,13.66
	H86.392c-7.544,0-13.66-6.116-13.66-13.66V91.382c0-7.544,6.116-13.66,13.66-13.66h18.213c7.544,0,13.66,6.116,13.66,13.66V139.951z
	"/>
<g>
	<path fill="#FFFFFF" d="M258.951,235.011c-0.507,8.792-12.327,6.533-18.275,6.533c-2.843,0-5.686,0-8.528,0
		c-5.218,0-6.031-3.814-6.969-7.912c-2.011-8.781-4.021-17.562-6.032-26.343c-5.662-24.727-11.324-49.453-16.985-74.179
		c-0.593-2.588,4.563-5.315,6.803-5.315c1.87,0,3.741,0,5.611,0c7.628,0,15.256,0,22.885,0c4.976,0,9.952,0,14.928,0
		c5.849,0,6.562,5.23,6.562,9.644c0,27.768,0,55.536,0,83.304C258.951,225.499,258.951,230.255,258.951,235.011
		c0,6.449,10,6.449,10,0c0-24.465,0-48.93,0-73.395c0-9.079,0-18.158,0-27.237c0-9.203-7.679-16.584-16.794-16.584
		c-5.537,0-11.074,0-16.611,0c-7.431,0-14.862,0-22.294,0c-6.79,0-13.37,0.72-17.722,6.795c-6.011,8.394-1.115,19.462,0.949,28.473
		c6.179,26.987,12.358,53.974,18.538,80.96c0.871,3.803,1.145,7.341,3.568,10.724c4.286,5.984,10.76,6.796,17.501,6.796
		c5.423,0,10.847,0,16.27,0c9.392,0,16.075-7.524,16.595-16.533C269.323,228.565,259.321,228.602,258.951,235.011z"/>
</g>
<g>
	<path fill="#FFFFFF" d="M274.48,79.491c0,48.807,0,97.613,0,146.42c0,20.61,0,41.22,0,61.83c0,9.687,15.004,9.772,15.004,0.108
		c0-48.807,0-97.613,0-146.42c0-20.61,0-41.22,0-61.83C289.484,69.913,274.48,69.828,274.48,79.491L274.48,79.491z"/>
</g>
<g>
	<path fill="#FFFFFF" d="M248.306,77.716c0,6.393,0,12.786,0,19.179c0,4.514,7,4.514,7,0c0-6.393,0-12.786,0-19.179
		C255.306,73.202,248.306,73.202,248.306,77.716L248.306,77.716z"/>
</g>
<g>
	<path fill="#FFFFFF" d="M223.721,77.788c0.779,6.346,1.558,12.691,2.337,19.037c0.543,4.42,7.549,4.474,7,0
		c-0.779-6.346-1.558-12.691-2.337-19.037C230.178,73.367,223.172,73.314,223.721,77.788L223.721,77.788z"/>
</g>
<g>
	<path fill="#FFFFFF" d="M198.636,78.452c1.869,6.114,3.738,12.228,5.607,18.341c1.316,4.304,8.073,2.467,6.75-1.861
		c-1.869-6.114-3.738-12.228-5.607-18.341C204.07,72.287,197.313,74.123,198.636,78.452L198.636,78.452z"/>
</g>
<g>
	<path fill="#FFFFFF" d="M255.644,291.562c0-6.393,0-12.786,0-19.179c0-4.514-7-4.514-7,0c0,6.393,0,12.786,0,19.179
		C248.644,296.076,255.644,296.076,255.644,291.562L255.644,291.562z"/>
</g>
<g>
	<path fill="#FFFFFF" d="M231.059,291.491c0.779-6.346,1.558-12.691,2.337-19.037c0.549-4.474-6.457-4.42-7,0
		c-0.779,6.346-1.558,12.691-2.337,19.037C223.509,295.964,230.516,295.911,231.059,291.491L231.059,291.491z"/>
</g>
<g>
	<path fill="#FFFFFF" d="M268.315,154.611c0,19.47,0,38.939,0,58.409c0,4.514,7,4.514,7,0c0-19.47,0-38.939,0-58.409
		C275.315,150.097,268.315,150.097,268.315,154.611L268.315,154.611z"/>
</g>
</svg>
