<?xml version="1.0" encoding="iso-8859-1"?>
<!-- Generator: Adobe Illustrator 16.0.0, SVG Export Plug-In . SVG Version: 6.00 Build 0)  -->
<!DOCTYPE svg PUBLIC "-//W3C//DTD SVG 1.1//EN" "http://www.w3.org/Graphics/SVG/1.1/DTD/svg11.dtd">
<svg version="1.1" xmlns="http://www.w3.org/2000/svg" xmlns:xlink="http://www.w3.org/1999/xlink" x="0px" y="0px" width="361px"
	 height="361px" viewBox="0 0 361 361" style="enable-background:new 0 0 361 361;" xml:space="preserve">
<g id="light_x5F_bar_x5F_table">
	<g>
		<g>
			<path style="fill:#FFFFFF;" d="M84.09,163.513c8.917,1.522,17.833,3.045,26.749,4.567c4.414,0.754,6.304-5.991,1.861-6.75
				c-8.917-1.522-17.833-3.045-26.749-4.567C81.537,156.009,79.647,162.754,84.09,163.513L84.09,163.513z"/>
		</g>
	</g>
	<g>
		<g>
			<path style="fill:#FFFFFF;" d="M84.364,173.128c8.917,1.522,17.833,3.045,26.749,4.567c4.414,0.753,6.304-5.991,1.861-6.75
				c-8.917-1.522-17.833-3.045-26.749-4.567C81.812,165.625,79.921,172.37,84.364,173.128L84.364,173.128z"/>
		</g>
	</g>
	<g>
		<g>
			<path style="fill:#FFFFFF;" d="M84.364,182.47c8.917,1.522,17.833,3.045,26.749,4.567c4.414,0.754,6.304-5.991,1.861-6.75
				c-8.917-1.522-17.833-3.045-26.749-4.567C81.812,174.966,79.921,181.711,84.364,182.47L84.364,182.47z"/>
		</g>
	</g>
	<g>
		<g>
			<path style="fill:#FFFFFF;" d="M90.058,192.441c5.004,0.854,10.008,1.708,15.012,2.563c4.414,0.754,6.304-5.991,1.861-6.75
				c-5.004-0.854-10.008-1.708-15.012-2.563C87.505,184.938,85.615,191.683,90.058,192.441L90.058,192.441z"/>
		</g>
	</g>
	<path style="fill:none;stroke:#FFFFFF;stroke-width:10;stroke-miterlimit:10;" d="M121.034,137.573
		c0,7.544-6.116,13.66-13.66,13.66H89.16c-7.544,0-13.66-6.116-13.66-13.66V89.004c0-7.544,6.116-13.66,13.66-13.66h18.213
		c7.544,0,13.66,6.116,13.66,13.66V137.573z"/>
	<g>
		<g>
			<g>
				<path style="fill:#FFFFFF;" d="M250.629,75.485c0,10.625,0,21.251,0,31.877c0,4.514,7,4.514,7,0c0-10.625,0-21.251,0-31.877
					C257.629,70.971,250.629,70.971,250.629,75.485L250.629,75.485z"/>
			</g>
		</g>
		<g>
			<g>
				<path style="fill:#FFFFFF;" d="M232.19,125.396c8.025-5.127,16.051-10.255,24.076-15.383c-1.178,0-2.355,0-3.533,0
					c8.024,5.128,16.05,10.255,24.074,15.383c0.589-2.174,1.178-4.348,1.767-6.522c-16.05,0-32.101,0-48.15,0c-4.514,0-4.514,7,0,7
					c16.05,0,32.101,0,48.15,0c3.579,0,4.648-4.681,1.767-6.522c-8.024-5.128-16.05-10.255-24.074-15.383
					c-1.013-0.647-2.521-0.647-3.533,0c-8.025,5.127-16.051,10.255-24.076,15.383C224.867,121.774,228.374,127.834,232.19,125.396z"
					/>
			</g>
		</g>
		<path style="fill:#FFFFFF;stroke:#FFFFFF;stroke-miterlimit:10;" d="M266.119,75.485c0,2.661-2.158,4.817-4.818,4.817h-13.604
			c-2.66,0-4.817-2.157-4.817-4.817l0,0c0-2.661,2.157-4.818,4.817-4.818h13.604C263.961,70.667,266.119,72.824,266.119,75.485
			L266.119,75.485z"/>
	</g>
	<g>
		<g>
			<path style="fill:#FFFFFF;" d="M231.634,178.261c15.207,0,30.415,0,45.623,0c9.686,0,9.771-15.003,0.107-15.003
				c-15.207,0-30.415,0-45.623,0C222.056,163.258,221.97,178.261,231.634,178.261L231.634,178.261z"/>
		</g>
	</g>
	<g>
		<g>
			<g>
				<path style="fill:#FFFFFF;" d="M240.867,292.641c9.088,0,18.176,0,27.264,0c6.448,0,6.448-10,0-10c-9.088,0-18.176,0-27.264,0
					C234.419,282.641,234.419,292.641,240.867,292.641L240.867,292.641z"/>
			</g>
		</g>
		<g>
			<g>
				<path style="fill:#FFFFFF;" d="M263.131,173.155c0,38.22,0,76.44,0,114.66c0,6.448,10,6.448,10,0c0-38.22,0-76.439,0-114.66
					C273.131,166.706,263.131,166.706,263.131,173.155L263.131,173.155z"/>
			</g>
		</g>
		<g>
			<g>
				<path style="fill:#FFFFFF;" d="M235.867,173.155c0,38.092,0,76.185,0,114.278c0,6.448,10,6.448,10,0
					c0-38.093,0-76.186,0-114.278C245.867,166.706,235.867,166.706,235.867,173.155L235.867,173.155z"/>
			</g>
		</g>
	</g>
	<g>
		<g>
			<path style="fill:#FFFFFF;" d="M187.833,288.167c0-23.367,0-46.733,0-70.101c0-4.514-7-4.514-7,0c0,23.367,0,46.733,0,70.101
				C180.833,292.681,187.833,292.681,187.833,288.167L187.833,288.167z"/>
		</g>
	</g>
	<g>
		<g>
			<path style="fill:#FFFFFF;" d="M209.833,288.167c0-23.367,0-46.733,0-70.101c0-4.514-7-4.514-7,0c0,23.367,0,46.733,0,70.101
				C202.833,292.681,209.833,292.681,209.833,288.167L209.833,288.167z"/>
		</g>
	</g>
	<g>
		<g>
			<path style="fill:#FFFFFF;" d="M184.279,221.568c7.333,0,14.666,0,22,0c9.686,0,9.771-15.004,0.107-15.004
				c-7.333,0-14.666,0-22,0C174.701,206.564,174.615,221.568,184.279,221.568L184.279,221.568z"/>
		</g>
	</g>
	<g>
		<g>
			<path style="fill:#FFFFFF;" d="M184.333,273.667c7.333,0,14.667,0,22,0c4.514,0,4.514-7,0-7c-7.333,0-14.667,0-22,0
				C179.819,266.667,179.819,273.667,184.333,273.667L184.333,273.667z"/>
		</g>
	</g>
	<g>
		<g>
			<path style="fill:#FFFFFF;" d="M184.333,231.312c7.333,0,14.667,0,22,0c4.514,0,4.514-7,0-7c-7.333,0-14.667,0-22,0
				C179.819,224.312,179.819,231.312,184.333,231.312L184.333,231.312z"/>
		</g>
	</g>
</g>
<g id="Ebene_1">
</g>
</svg>
