<?xml version="1.0" encoding="iso-8859-1"?>
<!-- Generator: Adobe Illustrator 16.0.0, SVG Export Plug-In . SVG Version: 6.00 Build 0)  -->
<!DOCTYPE svg PUBLIC "-//W3C//DTD SVG 1.1 Tiny//EN" "http://www.w3.org/Graphics/SVG/1.1/DTD/svg11-tiny.dtd">
<svg version="1.1" baseProfile="tiny" id="light_x5F_light_x5F_dim_x5F_50"
	 xmlns="http://www.w3.org/2000/svg" xmlns:xlink="http://www.w3.org/1999/xlink" x="0px" y="0px" width="361px" height="361px"
	 viewBox="0 0 361 361" xml:space="preserve">
<g>
	<path fill="#FFFFFF" d="M158.671,250.934c12.286,2.098,24.573,4.196,36.859,6.294c6.306,1.077,9.005-8.559,2.658-9.643
		c-12.286-2.098-24.573-4.196-36.859-6.294C155.024,240.214,152.324,249.85,158.671,250.934L158.671,250.934z"/>
</g>
<g>
	<path fill="#FFFFFF" d="M159.05,264.184c12.286,2.098,24.572,4.196,36.859,6.294c6.306,1.077,9.005-8.559,2.658-9.643
		c-12.286-2.098-24.572-4.196-36.859-6.294C155.403,253.465,152.703,263.101,159.05,264.184L159.05,264.184z"/>
</g>
<g>
	<path fill="#FFFFFF" d="M159.05,277.056c12.286,2.098,24.572,4.196,36.859,6.294c6.306,1.077,9.005-8.559,2.658-9.643
		c-12.286-2.098-24.572-4.196-36.859-6.294C155.403,266.336,152.703,275.972,159.05,277.056L159.05,277.056z"/>
</g>
<g>
	<path fill="#FFFFFF" d="M166.896,290.797c6.895,1.177,13.79,2.354,20.685,3.532c6.306,1.077,9.005-8.559,2.658-9.643
		c-6.895-1.177-13.79-2.354-20.685-3.532C163.248,280.078,160.548,289.713,166.896,290.797L166.896,290.797z"/>
</g>
<g>
	<path fill="#FFFFFF" d="M204.625,215.02c-0.34,9.681-8.009,13.823-16.691,13.823c-7.014,0-14.027,0-21.04,0
		c-8.105,0-15.012-5.458-15.012-13.997c0-4.135,0-8.27,0-12.405c0-15.172,0-30.345,0-45.517c0-3.714-0.417-7.771,0.237-11.456
		c1.636-9.222,9.999-11.199,17.885-11.199c5.5,0,11,0,16.5,0c5.019,0,9.564,0.06,13.622,3.612c6.16,5.392,4.5,15.457,4.5,22.791
		C204.625,178.788,204.625,196.904,204.625,215.02c0,6.449,10,6.449,10,0c0-22.303,0-44.605,0-66.908
		c0-10.783-7.241-19.668-17.282-22.934c-6.056-1.969-13.838-0.909-20.08-0.909c-6.753,0-14.117-0.791-20.507,1.785
		c-8.985,3.62-14.875,12.547-14.875,22.212c0,22.245,0,44.489,0,66.734c0,10.43,6.662,18.749,16.059,22.535
		c5.704,2.298,13.314,1.307,19.323,1.307c6.218,0,12.671,0.497,18.821-0.594c11.007-1.953,18.168-12.63,18.541-23.229
		C214.853,208.568,204.852,208.59,204.625,215.02z"/>
</g>
<g>
	<path fill="#FFFFFF" d="M86.607,145.211c9.638,0,19.275,0,28.913,0c6.449,0,6.449-10,0-10c-9.638,0-19.275,0-28.913,0
		C80.159,135.211,80.159,145.211,86.607,145.211L86.607,145.211z"/>
</g>
<g>
	<path fill="#FFFFFF" d="M101.335,89.406c6.815,6.814,13.63,13.629,20.444,20.444c4.564,4.563,11.635-2.507,7.071-7.071
		c-6.815-6.814-13.63-13.629-20.444-20.444C103.842,77.771,96.771,84.842,101.335,89.406L101.335,89.406z"/>
</g>
<g>
	<path fill="#FFFFFF" d="M86.607,186.25c9.638,0,19.275,0,28.913,0c6.449,0,6.449-10,0-10c-9.638,0-19.275,0-28.913,0
		C80.159,176.25,80.159,186.25,86.607,186.25L86.607,186.25z"/>
</g>
<g>
	<path fill="#FFFFFF" d="M152.315,77.58c0,6.393,0,12.786,0,19.179c0,6.449,10,6.449,10,0c0-6.393,0-12.786,0-19.179
		C162.315,71.131,152.315,71.131,152.315,77.58L152.315,77.58z"/>
</g>
<g>
	<path fill="#FFFFFF" d="M86.607,227.288c9.638,0,19.275,0,28.913,0c6.449,0,6.449-10,0-10c-9.638,0-19.275,0-28.913,0
		C80.159,217.288,80.159,227.288,86.607,227.288L86.607,227.288z"/>
</g>
<g>
	<g>
		<path fill="#FFFFFF" d="M197.438,87.208c0,3.197,0,6.393,0,9.59c0,1.935,3,1.935,3,0c0-3.197,0-6.393,0-9.59
			C200.438,85.273,197.438,85.273,197.438,87.208L197.438,87.208z"/>
	</g>
	<g>
		<path fill="#FFFFFF" d="M101.122,141.711c4.819,0,9.638,0,14.457,0c1.935,0,1.935-3,0-3c-4.819,0-9.638,0-14.457,0
			C99.187,138.711,99.187,141.711,101.122,141.711L101.122,141.711z"/>
	</g>
	<g>
		<path fill="#FFFFFF" d="M115.795,98.858c2.839,2.839,5.678,5.678,8.517,8.517c1.369,1.369,3.49-0.752,2.121-2.121
			c-2.839-2.839-5.678-5.678-8.517-8.517C116.547,95.368,114.426,97.489,115.795,98.858L115.795,98.858z"/>
	</g>
	<g>
		<path fill="#FFFFFF" d="M239.868,95.698c-3.186,3.185-6.371,6.37-9.556,9.556c-1.369,1.369,0.752,3.49,2.121,2.121
			c3.186-3.185,6.371-6.37,9.556-9.556C243.358,96.45,241.237,94.329,239.868,95.698L239.868,95.698z"/>
	</g>
	<g>
		<path fill="#FFFFFF" d="M101.122,182.75c4.819,0,9.638,0,14.457,0c1.935,0,1.935-3,0-3c-4.819,0-9.638,0-14.457,0
			C99.187,179.75,99.187,182.75,101.122,182.75L101.122,182.75z"/>
	</g>
	<g>
		<path fill="#FFFFFF" d="M241.555,141.506c4.819,0,9.638,0,14.457,0c1.935,0,1.935-3,0-3c-4.819,0-9.638,0-14.457,0
			C239.621,138.506,239.621,141.506,241.555,141.506L241.555,141.506z"/>
	</g>
	<g>
		<path fill="#FFFFFF" d="M241.555,182.544c4.819,0,9.638,0,14.457,0c1.935,0,1.935-3,0-3c-4.819,0-9.638,0-14.457,0
			C239.621,179.544,239.621,182.544,241.555,182.544L241.555,182.544z"/>
	</g>
	<g>
		<path fill="#FFFFFF" d="M155.873,87.169c0,3.197,0,6.393,0,9.59c0,1.935,3,1.935,3,0c0-3.197,0-6.393,0-9.59
			C158.873,85.234,155.873,85.234,155.873,87.169L155.873,87.169z"/>
	</g>
	<g>
		<path fill="#FFFFFF" d="M101.122,223.788c4.819,0,9.638,0,14.457,0c1.935,0,1.935-3,0-3c-4.819,0-9.638,0-14.457,0
			C99.187,220.788,99.187,223.788,101.122,223.788L101.122,223.788z"/>
	</g>
	<g>
		<path fill="#FFFFFF" d="M241.555,223.583c4.819,0,9.638,0,14.457,0c1.935,0,1.935-3,0-3c-4.819,0-9.638,0-14.457,0
			C239.621,220.583,239.621,223.583,241.555,223.583L241.555,223.583z"/>
	</g>
</g>
<path display="none" fill="#FFFFFF" d="M196.86,211.496c0,4.697-4.031,8.504-9.003,8.504h-18.853c-4.973,0-9.003-3.807-9.003-8.504
	v-60.492c0-4.697,4.031-8.504,9.003-8.504h18.853c4.973,0,9.003,3.807,9.003,8.504V211.496z"/>
</svg>
