<?xml version="1.0" encoding="iso-8859-1"?>
<!-- Generator: Adobe Illustrator 16.0.0, SVG Export Plug-In . SVG Version: 6.00 Build 0)  -->
<!DOCTYPE svg PUBLIC "-//W3C//DTD SVG 1.1//EN" "http://www.w3.org/Graphics/SVG/1.1/DTD/svg11.dtd">
<svg version="1.1" xmlns="http://www.w3.org/2000/svg" xmlns:xlink="http://www.w3.org/1999/xlink" x="0px" y="0px" width="361px"
	 height="361px" viewBox="0 0 361 361" style="enable-background:new 0 0 361 361;" xml:space="preserve">
<g id="light_x5F_stairs">
	<g>
		<g>
			<g>
				<path style="fill:#FFFFFF;" d="M77.112,291.169c13.25,0,26.499,0,39.748,0c9.687,0,9.772-15.004,0.108-15.004
					c-13.25,0-26.499,0-39.748,0C67.534,276.165,67.449,291.169,77.112,291.169L77.112,291.169z"/>
			</g>
		</g>
		<g>
			<g>
				<path style="fill:#FFFFFF;" d="M110.763,269.169c13.249,0,26.498,0,39.747,0c9.687,0,9.772-15.004,0.108-15.004
					c-13.249,0-26.498,0-39.747,0C101.185,254.165,101.1,269.169,110.763,269.169L110.763,269.169z"/>
			</g>
		</g>
		<g>
			<g>
				<path style="fill:#FFFFFF;" d="M144.413,247.169c13.25,0,26.499,0,39.748,0c9.686,0,9.771-15.004,0.107-15.004
					c-13.249,0-26.498,0-39.747,0C134.835,232.165,134.75,247.169,144.413,247.169L144.413,247.169z"/>
			</g>
		</g>
		<g>
			<g>
				<path style="fill:#FFFFFF;" d="M178.064,225.169c13.25,0,26.499,0,39.748,0c9.686,0,9.771-15.004,0.107-15.004
					c-13.249,0-26.498,0-39.747,0C168.486,210.165,168.4,225.169,178.064,225.169L178.064,225.169z"/>
			</g>
		</g>
		<g>
			<g>
				<path style="fill:#FFFFFF;" d="M211.715,203.169c13.249,0,26.498,0,39.747,0c9.686,0,9.771-15.004,0.107-15.004
					c-13.249,0-26.498,0-39.747,0C202.137,188.165,202.051,203.169,211.715,203.169L211.715,203.169z"/>
			</g>
		</g>
		<g>
			<g>
				<path style="fill:#FFFFFF;" d="M245.365,181.169c13.249,0,26.498,0,39.747,0c9.686,0,9.771-15.003,0.107-15.003
					c-13.249,0-26.498,0-39.747,0C235.787,166.166,235.701,181.169,245.365,181.169L245.365,181.169z"/>
			</g>
		</g>
	</g>
	<g>
		<g>
			<path style="fill:#FFFFFF;" d="M84.09,162.513c8.917,1.522,17.833,3.045,26.749,4.567c4.414,0.754,6.304-5.991,1.861-6.75
				c-8.917-1.522-17.833-3.045-26.749-4.567C81.537,155.009,79.647,161.754,84.09,162.513L84.09,162.513z"/>
		</g>
	</g>
	<g>
		<g>
			<path style="fill:#FFFFFF;" d="M84.364,172.128c8.917,1.522,17.833,3.045,26.749,4.567c4.414,0.753,6.304-5.991,1.861-6.75
				c-8.917-1.522-17.833-3.045-26.749-4.567C81.812,164.625,79.921,171.37,84.364,172.128L84.364,172.128z"/>
		</g>
	</g>
	<g>
		<g>
			<path style="fill:#FFFFFF;" d="M84.364,181.47c8.917,1.522,17.833,3.045,26.749,4.567c4.414,0.754,6.304-5.991,1.861-6.75
				c-8.917-1.522-17.833-3.045-26.749-4.567C81.812,173.966,79.921,180.711,84.364,181.47L84.364,181.47z"/>
		</g>
	</g>
	<g>
		<g>
			<path style="fill:#FFFFFF;" d="M90.058,191.441c5.004,0.854,10.008,1.708,15.012,2.563c4.414,0.754,6.304-5.991,1.861-6.75
				c-5.004-0.854-10.008-1.708-15.012-2.563C87.505,183.938,85.615,190.683,90.058,191.441L90.058,191.441z"/>
		</g>
	</g>
	<path style="fill:none;stroke:#FFFFFF;stroke-width:10;stroke-miterlimit:10;" d="M121.034,136.573
		c0,7.544-6.116,13.66-13.66,13.66H89.16c-7.544,0-13.66-6.116-13.66-13.66V88.004c0-7.544,6.116-13.66,13.66-13.66h18.213
		c7.544,0,13.66,6.116,13.66,13.66V136.573z"/>
</g>
<g id="Ebene_1">
</g>
</svg>
