<?xml version="1.0" encoding="iso-8859-1"?>
<!-- Generator: Adobe Illustrator 16.0.0, SVG Export Plug-In . SVG Version: 6.00 Build 0)  -->
<!DOCTYPE svg PUBLIC "-//W3C//DTD SVG 1.1//EN" "http://www.w3.org/Graphics/SVG/1.1/DTD/svg11.dtd">
<svg version="1.1" xmlns="http://www.w3.org/2000/svg" xmlns:xlink="http://www.w3.org/1999/xlink" x="0px" y="0px" width="361px"
	 height="361px" viewBox="0 0 361 361" style="enable-background:new 0 0 361 361;" xml:space="preserve">
<g id="light_x5F_pendant_x5F_light_x5F_round">
	<g>
		<g>
			<g>
				<path style="fill:#FFFFFF;" d="M84.09,163.513c8.917,1.522,17.833,3.045,26.749,4.567c4.414,0.754,6.304-5.991,1.861-6.75
					c-8.917-1.522-17.833-3.045-26.749-4.567C81.537,156.009,79.647,162.754,84.09,163.513L84.09,163.513z"/>
			</g>
		</g>
		<g>
			<g>
				<path style="fill:#FFFFFF;" d="M84.364,173.128c8.917,1.522,17.833,3.045,26.749,4.567c4.414,0.753,6.304-5.991,1.861-6.75
					c-8.917-1.522-17.833-3.045-26.749-4.567C81.812,165.625,79.921,172.37,84.364,173.128L84.364,173.128z"/>
			</g>
		</g>
		<g>
			<g>
				<path style="fill:#FFFFFF;" d="M84.364,182.47c8.917,1.522,17.833,3.045,26.749,4.567c4.414,0.754,6.304-5.991,1.861-6.75
					c-8.917-1.522-17.833-3.045-26.749-4.567C81.812,174.966,79.921,181.711,84.364,182.47L84.364,182.47z"/>
			</g>
		</g>
		<g>
			<g>
				<path style="fill:#FFFFFF;" d="M90.058,192.441c5.004,0.854,10.008,1.708,15.012,2.563c4.414,0.754,6.304-5.991,1.861-6.75
					c-5.004-0.854-10.008-1.708-15.012-2.563C87.505,184.938,85.615,191.683,90.058,192.441L90.058,192.441z"/>
			</g>
		</g>
		<path style="fill:none;stroke:#FFFFFF;stroke-width:10;stroke-miterlimit:10;" d="M121.034,137.573
			c0,7.544-6.116,13.66-13.66,13.66H89.16c-7.544,0-13.66-6.116-13.66-13.66V89.004c0-7.544,6.116-13.66,13.66-13.66h18.213
			c7.544,0,13.66,6.116,13.66,13.66V137.573z"/>
	</g>
	<path style="fill:#FFFFFF;stroke:#FFFFFF;stroke-miterlimit:10;" d="M243.441,75.164c0,2.852-2.313,5.164-5.164,5.164h-14.58
		c-2.852,0-5.163-2.312-5.163-5.164l0,0c0-2.852,2.312-5.164,5.163-5.164h14.58C241.129,70,243.441,72.313,243.441,75.164
		L243.441,75.164z"/>
	<g>
		<g>
			<path style="fill:#FFFFFF;" d="M225.987,82.44c0,30.928,0,61.856,0,92.784c0,6.448,10,6.448,10,0c0-30.928,0-61.856,0-92.784
				C235.987,75.992,225.987,75.992,225.987,82.44L225.987,82.44z"/>
		</g>
	</g>
	<g>
		<g>
			<path style="fill:#FFFFFF;" d="M170.266,230.945c0.276,22.491,12.527,43.001,32.358,53.698
				c19.919,10.745,44.972,8.802,63.375-4.104c18.406-12.909,28.124-35.592,25.11-57.809c-3.023-22.286-18.209-40.494-38.938-48.686
				c-18.415-7.277-40.155-3.941-56.196,7.308C179.833,192.674,170.506,211.352,170.266,230.945c-0.079,6.451,9.921,6.444,10,0
				c0.28-22.813,15.298-42.589,37.238-48.909c22.038-6.348,45.637,3.956,57.28,23.31c11.847,19.691,7.886,45.278-7.931,61.465
				c-16.046,16.421-41.786,19.151-61.467,7.932c-15.636-8.915-24.902-26.002-25.121-43.797
				C180.187,224.501,170.187,224.494,170.266,230.945z"/>
		</g>
	</g>
	<g>
		<g>
			<path style="fill:#FFFFFF;" d="M223.485,152.587c0,6.127,0,12.254,0,18.381c0,9.687,15.004,9.772,15.004,0.108
				c0-6.127,0-12.254,0-18.381C238.489,143.009,223.485,142.923,223.485,152.587L223.485,152.587z"/>
		</g>
	</g>
</g>
<g id="Ebene_1">
</g>
</svg>
