<?xml version="1.0" encoding="iso-8859-1"?>
<!-- Generator: Adobe Illustrator 16.0.0, SVG Export Plug-In . SVG Version: 6.00 Build 0)  -->
<!DOCTYPE svg PUBLIC "-//W3C//DTD SVG 1.1//EN" "http://www.w3.org/Graphics/SVG/1.1/DTD/svg11.dtd">
<svg version="1.1" xmlns="http://www.w3.org/2000/svg" xmlns:xlink="http://www.w3.org/1999/xlink" x="0px" y="0px" width="361px"
	 height="361px" viewBox="0 0 361 361" style="enable-background:new 0 0 361 361;" xml:space="preserve">
<g id="light_x5F_wall_x5F_3">
	<g>
		<g>
			<path style="fill:#FFFFFF;" d="M83.84,163.013c8.917,1.522,17.833,3.045,26.749,4.567c4.414,0.754,6.304-5.991,1.861-6.75
				c-8.917-1.522-17.833-3.045-26.749-4.567C81.287,155.509,79.397,162.254,83.84,163.013L83.84,163.013z"/>
		</g>
	</g>
	<g>
		<g>
			<path style="fill:#FFFFFF;" d="M84.114,172.628c8.917,1.522,17.833,3.045,26.749,4.567c4.414,0.753,6.304-5.991,1.861-6.75
				c-8.917-1.522-17.833-3.045-26.749-4.567C81.562,165.125,79.671,171.87,84.114,172.628L84.114,172.628z"/>
		</g>
	</g>
	<g>
		<g>
			<path style="fill:#FFFFFF;" d="M84.114,181.97c8.917,1.522,17.833,3.045,26.749,4.567c4.414,0.754,6.304-5.991,1.861-6.75
				c-8.917-1.522-17.833-3.045-26.749-4.567C81.562,174.466,79.671,181.211,84.114,181.97L84.114,181.97z"/>
		</g>
	</g>
	<g>
		<g>
			<path style="fill:#FFFFFF;" d="M89.808,191.941c5.004,0.854,10.008,1.708,15.012,2.563c4.414,0.754,6.304-5.991,1.861-6.75
				c-5.004-0.854-10.008-1.708-15.012-2.563C87.255,184.438,85.365,191.183,89.808,191.941L89.808,191.941z"/>
		</g>
	</g>
	<path style="fill:none;stroke:#FFFFFF;stroke-width:10;stroke-miterlimit:10;" d="M120.784,137.073
		c0,7.544-6.116,13.66-13.66,13.66H88.91c-7.544,0-13.66-6.116-13.66-13.66V88.504c0-7.544,6.116-13.66,13.66-13.66h18.213
		c7.544,0,13.66,6.116,13.66,13.66V137.073z"/>
	<g>
		<g>
			<path style="fill:#FFFFFF;" d="M276.998,76.613c0,48.807,0,97.613,0,146.42c0,20.61,0,41.22,0,61.83
				c0,9.686,15.004,9.771,15.004,0.107c0-48.807,0-97.613,0-146.419c0-20.61,0-41.22,0-61.83
				C292.002,67.035,276.998,66.95,276.998,76.613L276.998,76.613z"/>
		</g>
	</g>
	<g>
		<g>
			<path style="fill:#FFFFFF;" d="M269.333,203.667c0,15.158,0,30.317,0,45.476c0,6.448,10,6.448,10,0c0-15.158,0-30.317,0-45.476
				C279.333,197.219,269.333,197.219,269.333,203.667L269.333,203.667z"/>
		</g>
	</g>
	<path style="fill:none;stroke:#FFFFFF;stroke-width:10;stroke-miterlimit:10;" d="M253.833,193.105
		c0,8.843-8.528,16.011-19.05,16.011h-25.4c-10.521,0-19.05-7.168-19.05-16.011v-56.928c0-8.842,8.528-16.011,19.05-16.011h25.4
		c10.521,0,19.05,7.169,19.05,16.011V193.105z"/>
	<g>
		<g>
			<path style="fill:#FFFFFF;" d="M215.779,233.169c18.666,0,37.333,0,56,0c9.686,0,9.771-15.004,0.107-15.004
				c-18.666,0-37.333,0-56,0C206.201,218.165,206.115,233.169,215.779,233.169L215.779,233.169z"/>
		</g>
	</g>
	<g>
		<g>
			<path style="fill:#FFFFFF;" d="M214.811,211.613c0,3.159,0,6.319,0,9.479c0,4.085,3.342,7.528,7.448,7.556
				c4.065,0.026,7.556-3.361,7.556-7.448c0-3.159,0-6.319,0-9.479c0-4.086-3.342-7.528-7.448-7.556
				C218.301,204.139,214.811,207.527,214.811,211.613L214.811,211.613z"/>
		</g>
	</g>
</g>
<g id="Ebene_1">
</g>
</svg>
