<?xml version="1.0" encoding="iso-8859-1"?>
<!-- Generator: Adobe Illustrator 16.0.0, SVG Export Plug-In . SVG Version: 6.00 Build 0)  -->
<!DOCTYPE svg PUBLIC "-//W3C//DTD SVG 1.1//EN" "http://www.w3.org/Graphics/SVG/1.1/DTD/svg11.dtd">
<svg version="1.1" xmlns="http://www.w3.org/2000/svg" xmlns:xlink="http://www.w3.org/1999/xlink" x="0px" y="0px" width="361px"
	 height="361px" viewBox="0 0 361 361" style="enable-background:new 0 0 361 361;" xml:space="preserve">
<g id="light_x5F_bedside">
	<g>
		<g>
			<path style="fill:#FFFFFF;" d="M84.09,163.513c8.917,1.522,17.833,3.045,26.749,4.567c4.414,0.754,6.304-5.991,1.861-6.75
				c-8.917-1.522-17.833-3.045-26.749-4.567C81.537,156.009,79.647,162.754,84.09,163.513L84.09,163.513z"/>
		</g>
	</g>
	<g>
		<g>
			<path style="fill:#FFFFFF;" d="M84.364,173.128c8.917,1.522,17.833,3.045,26.749,4.567c4.414,0.753,6.304-5.991,1.861-6.75
				c-8.917-1.522-17.833-3.045-26.749-4.567C81.812,165.625,79.921,172.37,84.364,173.128L84.364,173.128z"/>
		</g>
	</g>
	<g>
		<g>
			<path style="fill:#FFFFFF;" d="M84.364,182.47c8.917,1.522,17.833,3.045,26.749,4.567c4.414,0.754,6.304-5.991,1.861-6.75
				c-8.917-1.522-17.833-3.045-26.749-4.567C81.812,174.966,79.921,181.711,84.364,182.47L84.364,182.47z"/>
		</g>
	</g>
	<g>
		<g>
			<path style="fill:#FFFFFF;" d="M90.058,192.441c5.004,0.854,10.008,1.708,15.012,2.563c4.414,0.754,6.304-5.991,1.861-6.75
				c-5.004-0.854-10.008-1.708-15.012-2.563C87.505,184.938,85.615,191.683,90.058,192.441L90.058,192.441z"/>
		</g>
	</g>
	<path style="fill:none;stroke:#FFFFFF;stroke-width:10;stroke-miterlimit:10;" d="M121.034,137.573
		c0,7.544-6.116,13.66-13.66,13.66H89.16c-7.544,0-13.66-6.116-13.66-13.66V89.004c0-7.544,6.116-13.66,13.66-13.66h18.213
		c7.544,0,13.66,6.116,13.66,13.66V137.573z"/>
	<g>
		<g>
			<path style="fill:#FFFFFF;" d="M281.833,274.667c-0.528,9.817-15.991,7-22.516,7c-14.885,0-29.77,0-44.654,0
				c-15.081,0-30.162,0-45.243,0c-4.546,0-9.091,0-13.637,0c-3.962,0-8.084-0.034-9.85-4.536c-1.739-4.433-0.433-11.32-0.433-15.914
				c0-7.232,0-14.465,0-21.698c0-4.916,1.647-9.521,7.518-9.521c3.099,0,6.197,0,9.295,0c29.577,0,59.154,0,88.731,0
				c6.178,0,12.355,0,18.532,0c4.472,0,9.779-0.675,11.824,4.536c0.78,1.991,0.433,4.678,0.433,6.77c0,4.348,0,8.695,0,13.043
				C281.833,261.12,281.833,267.894,281.833,274.667c0,6.448,10,6.448,10,0c0-12.035,0-24.069,0-36.104
				c0-8.606-4.544-15.758-13.097-18.109c-2.713-0.746-5.935-0.455-8.731-0.455c-28.399,0-56.798,0-85.196,0
				c-10.272,0-20.544,0-30.816,0c-6.063,0-12.016,2.094-15.495,7.39c-3.567,5.43-2.998,11.502-2.998,17.664
				c0,7.721,0,15.441,0,23.162c0,6.733-0.004,12.431,4.556,18.029c5.96,7.317,18.245,5.424,26.602,5.424c25.289,0,50.578,0,75.867,0
				c9.297,0,18.595,0,27.892,0c1.473,0,2.944,0,4.417,0c9.608,0,16.504-7.781,17-17C292.18,268.22,282.179,268.254,281.833,274.667z
				"/>
		</g>
	</g>
	<g>
		<g>
			<g>
				<path style="fill:#FFFFFF;" d="M175.637,119.266c7.768-7.853,15.686-16.238,24.711-22.65c5.321-3.781,12.288-5.624,18.396-7.686
					c4.541-1.533,9.116-2.977,13.715-4.327c-1.317-0.536-2.636-1.072-3.953-1.608c1.886,3.77,3.679,7.585,5.425,11.421
					c2.553,5.604,5.922,11.911,6.701,18.106c1.36,10.809-0.087,22.386-1,33.2c1.477-1.125,2.954-2.25,4.431-3.375
					c-23.324-9.644-46.647-19.287-69.971-28.931c-4.172-1.725-5.971,5.051-1.861,6.75c23.324,9.644,46.647,19.287,69.971,28.931
					c2.272,0.939,4.261-1.363,4.431-3.375c0.936-11.083,2.306-22.825,0.912-33.902c-0.823-6.542-3.986-12.853-6.619-18.822
					c-2.013-4.562-4.145-9.078-6.374-13.537c-0.688-1.373-2.525-2.027-3.953-1.608c-10.962,3.218-23.481,6.169-33.205,12.329
					c-9.944,6.299-18.468,15.807-26.707,24.134C167.511,117.527,172.459,122.479,175.637,119.266z"/>
			</g>
		</g>
		<g>
			<g>
				<path style="fill:#FFFFFF;" d="M253.248,210.724c8.791-36.369,17.583-72.737,26.374-109.106
					c1.515-6.266-8.128-8.925-9.643-2.658c-8.791,36.369-17.583,72.737-26.374,109.106
					C242.091,214.332,251.733,216.99,253.248,210.724L253.248,210.724z"/>
			</g>
		</g>
		<g>
			<g>
				<path style="fill:#FFFFFF;" d="M277.196,95.853c-14.47-7.275-28.938-14.549-43.408-21.824c-5.745-2.888-10.81,5.737-5.047,8.635
					c14.47,7.275,28.938,14.549,43.408,21.824C277.895,107.375,282.959,98.75,277.196,95.853L277.196,95.853z"/>
			</g>
		</g>
		<g>
			<g>
				<path style="fill:#FFFFFF;" d="M196.166,220.061c22.778,0,45.556,0,68.334,0c6.448,0,6.448-10,0-10c-22.778,0-45.556,0-68.334,0
					C189.718,210.061,189.718,220.061,196.166,220.061L196.166,220.061z"/>
			</g>
		</g>
		<g>
			<g>
				<path style="fill:#FFFFFF;" d="M201.093,215.061c19.556,0,39.111,0,58.667,0c6.448,0,6.448-10,0-10c-19.556,0-39.111,0-58.667,0
					C194.645,205.061,194.645,215.061,201.093,215.061L201.093,215.061z"/>
			</g>
		</g>
		<g>
			<g>
				<path style="fill:#FFFFFF;" d="M204.833,206.395c0,1.778,0,3.556,0,5.334c0,2.726,2.274,5,5,5s5-2.274,5-5
					c0-1.778,0-3.556,0-5.334c0-2.726-2.274-5-5-5S204.833,203.669,204.833,206.395L204.833,206.395z"/>
			</g>
		</g>
		<g>
			<g>
				<path style="fill:#FFFFFF;" d="M241.626,84.812c-4.792-2.3-9.585-4.601-14.378-6.901c-5.784-2.776-10.859,5.845-5.047,8.635
					c4.793,2.3,9.585,4.601,14.378,6.901C242.363,96.223,247.438,87.602,241.626,84.812L241.626,84.812z"/>
			</g>
		</g>
	</g>
</g>
<g id="Ebene_1">
</g>
</svg>
