<?xml version="1.0" encoding="iso-8859-1"?>
<!-- Generator: Adobe Illustrator 16.0.0, SVG Export Plug-In . SVG Version: 6.00 Build 0)  -->
<!DOCTYPE svg PUBLIC "-//W3C//DTD SVG 1.1//EN" "http://www.w3.org/Graphics/SVG/1.1/DTD/svg11.dtd">
<svg version="1.1" xmlns="http://www.w3.org/2000/svg" xmlns:xlink="http://www.w3.org/1999/xlink" x="0px" y="0px" width="361px"
	 height="361px" viewBox="0 0 361 361" style="enable-background:new 0 0 361 361;" xml:space="preserve">
<g id="light_x5F_mirrored_x5F_wardrobe">
	<g>
		<g>
			<path style="fill:#FFFFFF;" d="M84.09,162.513c8.917,1.522,17.833,3.045,26.749,4.567c4.414,0.754,6.304-5.991,1.861-6.75
				c-8.917-1.522-17.833-3.045-26.749-4.567C81.537,155.009,79.647,161.754,84.09,162.513L84.09,162.513z"/>
		</g>
	</g>
	<g>
		<g>
			<path style="fill:#FFFFFF;" d="M84.364,172.128c8.917,1.522,17.833,3.045,26.749,4.567c4.414,0.753,6.304-5.991,1.861-6.75
				c-8.917-1.522-17.833-3.045-26.749-4.567C81.812,164.625,79.921,171.37,84.364,172.128L84.364,172.128z"/>
		</g>
	</g>
	<g>
		<g>
			<path style="fill:#FFFFFF;" d="M84.364,181.47c8.917,1.522,17.833,3.045,26.749,4.567c4.414,0.754,6.304-5.991,1.861-6.75
				c-8.917-1.522-17.833-3.045-26.749-4.567C81.812,173.966,79.921,180.711,84.364,181.47L84.364,181.47z"/>
		</g>
	</g>
	<g>
		<g>
			<path style="fill:#FFFFFF;" d="M90.058,191.441c5.004,0.854,10.008,1.708,15.012,2.563c4.414,0.754,6.304-5.991,1.861-6.75
				c-5.004-0.854-10.008-1.708-15.012-2.563C87.505,183.938,85.615,190.683,90.058,191.441L90.058,191.441z"/>
		</g>
	</g>
	<path style="fill:none;stroke:#FFFFFF;stroke-width:10;stroke-miterlimit:10;" d="M121.034,136.573
		c0,7.544-6.116,13.66-13.66,13.66H89.16c-7.544,0-13.66-6.116-13.66-13.66V88.004c0-7.544,6.116-13.66,13.66-13.66h18.213
		c7.544,0,13.66,6.116,13.66,13.66V136.573z"/>
	<g>
		<g>
			<path style="fill:#FFFFFF;" d="M288.664,278.417c-22.441,0-44.883,0-67.324,0c-14.937,0-29.873,0-44.809,0
				c-4.572,0-9.144,0-13.716,0c-1.605,0-5.981,0.729-5.981-2.283c0-50.891,0-101.782,0-152.673c0-9.491,0-18.982,0-28.473
				c0-1.727-0.746-5.735,2.169-6.071c1.895-0.218,3.944,0,5.847,0c28.562,0,57.123,0,85.685,0c12.71,0,25.42,0,38.13,0
				c4.514,0,4.514-7,0-7c-22.441,0-44.883,0-67.324,0c-14.937,0-29.873,0-44.809,0c-4.572,0-9.144,0-13.716,0
				c-3.285,0-6.17-0.155-9.125,1.723c-5.496,3.494-3.857,13.328-3.857,18.848c0,12.004,0,24.008,0,36.012
				c0,31.851,0,63.701,0,95.551c0,11.229,0,22.457,0,33.686c0,6.941-1.058,17.68,9.18,17.68c22.77,0,45.54,0,68.31,0
				c20.447,0,40.895,0,61.342,0C293.178,285.417,293.178,278.417,288.664,278.417L288.664,278.417z"/>
		</g>
	</g>
	<g>
		<g>
			<path style="fill:#FFFFFF;" d="M160.583,291.417c4.333,0,8.667,0,13,0c6.449,0,6.449-10,0-10c-4.333,0-8.667,0-13,0
				C154.134,281.417,154.134,291.417,160.583,291.417L160.583,291.417z"/>
		</g>
	</g>
	<g>
		<g>
			<path style="fill:#FFFFFF;" d="M252.449,239.294c9.361-8.565,18.722-17.131,28.083-25.696c1.431-1.309-0.697-3.424-2.121-2.121
				c-9.361,8.565-18.722,17.131-28.083,25.696C248.897,238.481,251.025,240.597,252.449,239.294L252.449,239.294z"/>
		</g>
	</g>
	<g>
		<g>
			<path style="fill:#FFFFFF;" d="M249.045,254.516c14.08-13.359,28.161-26.718,42.241-40.077c1.406-1.334-0.719-3.452-2.121-2.121
				c-14.08,13.359-28.161,26.718-42.241,40.077C245.518,253.729,247.643,255.847,249.045,254.516L249.045,254.516z"/>
		</g>
	</g>
	<g>
		<g>
			<path style="fill:#FFFFFF;" d="M258.272,258.313c9.786-9.285,19.572-18.57,29.358-27.855c1.406-1.334-0.719-3.452-2.121-2.121
				c-9.786,9.285-19.572,18.57-29.358,27.855C254.745,257.525,256.87,259.644,258.272,258.313L258.272,258.313z"/>
		</g>
	</g>
	<g>
		<g>
			<path style="fill:#FFFFFF;" d="M290.369,274.167c-11.51,0-23.019,0-34.528,0c-6.902,0-13.804,0-20.706,0
				c-3.181,0-9.096,0.871-9.096-4.653c0-21.515,0-43.029,0-64.545c0-30.062,0-60.123,0-90.185c0-5.813,0-11.626,0-17.44
				c0-5.894,10.854-4.177,13.757-4.177c7.656,0,15.313,0,22.97,0c9.201,0,18.402,0,27.604,0c1.935,0,1.935-3,0-3
				c-11.51,0-23.019,0-34.528,0c-6.902,0-13.804,0-20.706,0c-4.473,0-8.553-0.425-11.314,3.919
				c-1.104,1.735-0.781,4.479-0.781,6.472c0,3.728,0,7.456,0,11.184c0,13.058,0,26.116,0,39.174c0,31.135,0,62.27,0,93.405
				c0,8.139,0,16.277,0,24.416c0,10.139,10.407,8.431,17.517,8.431c16.604,0,33.209,0,49.813,0
				C292.304,277.167,292.304,274.167,290.369,274.167L290.369,274.167z"/>
		</g>
	</g>
	<g>
		<g>
			<path style="fill:#FFFFFF;" d="M243.526,76.844c11.167,0,22.333,0,33.5,0c4.514,0,4.514-7,0-7c-11.167,0-22.333,0-33.5,0
				C239.013,69.844,239.013,76.844,243.526,76.844L243.526,76.844z"/>
		</g>
	</g>
	<g>
		<g>
			<path style="fill:#FFFFFF;" d="M260.276,83.981c-0.161-7.275-5.318-12.001-12.5-12.137c-1.936-0.037-1.933,2.963,0,3
				c5.523,0.104,9.375,3.506,9.5,9.137C257.319,85.913,260.319,85.917,260.276,83.981L260.276,83.981z"/>
		</g>
	</g>
	<g>
		<g>
			<path style="fill:#FFFFFF;" d="M244.092,126.326c7.015-6.655,14.028-13.31,21.043-19.965c1.406-1.334-0.719-3.452-2.121-2.121
				c-7.015,6.655-14.028,13.31-21.043,19.965C240.564,125.539,242.689,127.656,244.092,126.326L244.092,126.326z"/>
		</g>
	</g>
	<g>
		<g>
			<path style="fill:#FFFFFF;" d="M244.669,140.153c10.94-10.38,21.881-20.76,32.821-31.14c1.406-1.334-0.719-3.452-2.121-2.121
				c-10.94,10.38-21.881,20.76-32.821,31.14C241.142,139.366,243.267,141.484,244.669,140.153L244.669,140.153z"/>
		</g>
	</g>
	<g>
		<g>
			<path style="fill:#FFFFFF;" d="M257.84,140.103c7.604-7.214,15.207-14.428,22.811-21.643c1.406-1.334-0.719-3.452-2.121-2.121
				c-7.604,7.214-15.207,14.428-22.811,21.643C254.313,139.315,256.438,141.433,257.84,140.103L257.84,140.103z"/>
		</g>
	</g>
	<g>
		<g>
			<path style="fill:#FFFFFF;" d="M205.333,173.095c0,5.179,0,10.358,0,15.538c0,4.514,7,4.514,7,0c0-5.18,0-10.359,0-15.538
				C212.333,168.581,205.333,168.581,205.333,173.095L205.333,173.095z"/>
		</g>
	</g>
	<g>
		<g>
			<path style="fill:#FFFFFF;" d="M214.498,88.667c0,49.662,0,99.325,0,148.987c0,14.004,0,28.009,0,42.013c0,4.514,7,4.514,7,0
				c0-49.662,0-99.325,0-148.987c0-14.004,0-28.008,0-42.013C221.498,84.153,214.498,84.153,214.498,88.667L214.498,88.667z"/>
		</g>
	</g>
</g>
<g id="Ebene_1">
</g>
</svg>
