<?xml version="1.0" encoding="iso-8859-1"?>
<!-- Generator: Adobe Illustrator 16.0.0, SVG Export Plug-In . SVG Version: 6.00 Build 0)  -->
<!DOCTYPE svg PUBLIC "-//W3C//DTD SVG 1.1 Tiny//EN" "http://www.w3.org/Graphics/SVG/1.1/DTD/svg11-tiny.dtd">
<svg version="1.1" baseProfile="tiny" id="light_x5F_wire_x5F_system_x5F_1"
	 xmlns="http://www.w3.org/2000/svg" xmlns:xlink="http://www.w3.org/1999/xlink" x="0px" y="0px" width="361px" height="361px"
	 viewBox="0 0 361 361" xml:space="preserve">
<g>
	<path fill="#FFFFFF" d="M81.322,263.3c8.917,1.522,17.833,3.045,26.749,4.567c4.414,0.754,6.304-5.991,1.861-6.75
		c-8.917-1.522-17.833-3.045-26.749-4.567C78.769,255.796,76.879,262.542,81.322,263.3L81.322,263.3z"/>
</g>
<g>
	<path fill="#FFFFFF" d="M81.596,272.916c8.917,1.522,17.833,3.045,26.749,4.567c4.414,0.753,6.304-5.991,1.861-6.75
		c-8.917-1.522-17.833-3.045-26.749-4.567C79.043,265.413,77.153,272.157,81.596,272.916L81.596,272.916z"/>
</g>
<g>
	<path fill="#FFFFFF" d="M81.596,282.257c8.917,1.522,17.833,3.045,26.749,4.567c4.414,0.754,6.304-5.991,1.861-6.75
		c-8.917-1.522-17.833-3.045-26.749-4.567C79.043,274.753,77.153,281.499,81.596,282.257L81.596,282.257z"/>
</g>
<g>
	<path fill="#FFFFFF" d="M87.29,292.229c5.004,0.854,10.008,1.709,15.012,2.563c4.414,0.754,6.304-5.991,1.861-6.75
		c-5.004-0.854-10.008-1.709-15.012-2.563C84.737,284.725,82.847,291.47,87.29,292.229L87.29,292.229z"/>
</g>
<path fill="none" stroke="#FFFFFF" stroke-width="10" stroke-miterlimit="10" d="M118.266,237.361c0,7.544-6.116,13.66-13.66,13.66
	H86.392c-7.544,0-13.66-6.116-13.66-13.66v-48.569c0-7.544,6.116-13.66,13.66-13.66h18.213c7.544,0,13.66,6.116,13.66,13.66V237.361
	z"/>
<path fill="none" stroke="#FFFFFF" stroke-width="10" stroke-miterlimit="10" d="M156.292,88.422"/>
<path fill="none" stroke="#FFFFFF" stroke-width="10" stroke-miterlimit="10" d="M210.138,105.922"/>
<g>
	<path fill="#FFFFFF" d="M69.804,75.723c29.626,1.827,59.275,3.517,88.94,4.571c33.959,1.207,67.973-1.146,101.871-3.017
		c8.996-0.497,17.991-1.008,26.983-1.554c1.922-0.117,1.933-3.117,0-3c-29.534,1.792-59.09,3.439-88.66,4.511
		c-33.96,1.23-67.917-1.017-101.817-2.914c-9.107-0.51-18.213-1.035-27.317-1.597C67.871,72.604,67.882,75.604,69.804,75.723
		L69.804,75.723z"/>
</g>
<g>
	<path fill="#FFFFFF" d="M69.463,130.546c29.411,1.722,58.844,3.303,88.29,4.278c33.979,1.126,67.98-1.27,101.892-3.233
		c9.356-0.542,18.711-1.1,28.063-1.694c1.921-0.122,1.933-3.123,0-3c-29.59,1.88-59.202,3.615-88.83,4.774
		c-33.814,1.323-67.632-0.795-101.396-2.577c-9.34-0.493-18.68-1.002-28.018-1.549C67.53,127.433,67.541,130.434,69.463,130.546
		L69.463,130.546z"/>
</g>
<g>
	<g>
		<path fill="#FFFFFF" d="M92.503,91.384c-2.323-4.981-4.646-9.963-6.969-14.944c-0.817-1.752-3.403-0.228-2.591,1.514
			c2.323,4.981,4.646,9.963,6.969,14.944C90.729,94.65,93.315,93.125,92.503,91.384L92.503,91.384z"/>
	</g>
	<g>
		<path fill="#FFFFFF" d="M109.624,128.099c-2.479-5.315-4.957-10.63-7.436-15.945c-0.817-1.752-3.403-0.228-2.591,1.514
			c2.479,5.315,4.957,10.631,7.436,15.946C107.85,131.365,110.436,129.841,109.624,128.099L109.624,128.099z"/>
	</g>
	<g>
		<g>
			<path fill="#FFFFFF" d="M71.234,101.013c3.378,7.245,6.757,14.49,10.135,21.735c1.906,4.088,7.939,0.531,6.044-3.533
				c-3.378-7.245-6.757-14.49-10.135-21.735C75.372,93.392,69.338,96.949,71.234,101.013L71.234,101.013z"/>
		</g>
		<path fill="#FFFFFF" d="M97.641,107.492c1.36,2.917,0.432,6.229-2.074,7.397l-8.354,3.896c-2.506,1.168-5.64-0.25-7-3.166
			l-4.341-9.311c-1.36-2.917-0.431-6.228,2.074-7.396l8.354-3.896c2.505-1.168,5.639,0.249,6.999,3.165L97.641,107.492z"/>
		<g>
			<path fill="#FFFFFF" d="M95.369,98.049c1.261,2.706,2.523,5.411,3.785,8.117c0.806,1.729,3.258,2.152,4.789,1.255
				c1.758-1.029,2.062-3.06,1.255-4.789c-1.261-2.706-2.523-5.411-3.785-8.117c-0.806-1.729-3.258-2.152-4.789-1.255
				C94.866,94.29,94.562,96.32,95.369,98.049L95.369,98.049z"/>
		</g>
	</g>
</g>
<g>
	<g>
		<path fill="#FFFFFF" d="M196.169,94.083c-2.323-4.981-4.646-9.963-6.969-14.944c-0.817-1.752-3.403-0.228-2.591,1.514
			c2.323,4.981,4.646,9.963,6.969,14.944C194.396,97.349,196.981,95.825,196.169,94.083L196.169,94.083z"/>
	</g>
	<g>
		<path fill="#FFFFFF" d="M213.29,130.798c-2.479-5.315-4.957-10.63-7.436-15.945c-0.817-1.752-3.403-0.228-2.591,1.514
			c2.479,5.315,4.957,10.631,7.436,15.946C211.517,134.064,214.102,132.54,213.29,130.798L213.29,130.798z"/>
	</g>
	<g>
		<g>
			<path fill="#FFFFFF" d="M174.9,103.712c3.378,7.245,6.757,14.49,10.135,21.735c1.906,4.088,7.939,0.531,6.044-3.533
				c-3.378-7.245-6.757-14.49-10.135-21.735C179.038,96.091,173.005,99.648,174.9,103.712L174.9,103.712z"/>
		</g>
		<path fill="#FFFFFF" d="M201.307,110.191c1.36,2.917,0.432,6.229-2.074,7.397l-8.354,3.896c-2.506,1.168-5.64-0.25-7-3.166
			l-4.342-9.311c-1.36-2.917-0.431-6.228,2.075-7.396l8.354-3.896c2.506-1.168,5.64,0.249,7,3.165L201.307,110.191z"/>
		<g>
			<path fill="#FFFFFF" d="M199.035,100.748c1.261,2.706,2.523,5.411,3.785,8.117c0.806,1.729,3.258,2.152,4.789,1.255
				c1.758-1.029,2.062-3.06,1.255-4.789c-1.261-2.706-2.523-5.411-3.785-8.117c-0.806-1.729-3.258-2.152-4.789-1.255
				C198.533,96.989,198.229,99.019,199.035,100.748L199.035,100.748z"/>
		</g>
	</g>
</g>
<g>
	<path fill="#FFFFFF" d="M265.765,90.639c-2.323-4.981-4.646-9.962-6.969-14.943c-0.817-1.752-3.403-0.228-2.591,1.514
		c2.323,4.981,4.646,9.963,6.969,14.944C263.991,93.905,266.577,92.381,265.765,90.639L265.765,90.639z"/>
</g>
<g>
	<path fill="#FFFFFF" d="M282.885,127.354c-2.479-5.315-4.957-10.63-7.436-15.945c-0.817-1.752-3.403-0.228-2.591,1.514
		c2.479,5.315,4.957,10.631,7.436,15.946C281.112,130.621,283.697,129.097,282.885,127.354L282.885,127.354z"/>
</g>
<g>
	<g>
		<path fill="#FFFFFF" d="M244.496,100.269c3.378,7.245,6.757,14.49,10.135,21.735c1.906,4.088,7.939,0.531,6.044-3.533
			c-3.378-7.245-6.757-14.49-10.135-21.735C248.633,92.647,242.6,96.205,244.496,100.269L244.496,100.269z"/>
	</g>
	<path fill="#FFFFFF" d="M270.902,106.748c1.36,2.916,0.432,6.228-2.074,7.396l-8.354,3.896c-2.506,1.168-5.64-0.249-7-3.166
		l-4.341-9.311c-1.36-2.916-0.431-6.228,2.074-7.396l8.354-3.896c2.505-1.168,5.639,0.249,6.999,3.165L270.902,106.748z"/>
	<g>
		<path fill="#FFFFFF" d="M268.63,97.305c1.261,2.705,2.523,5.411,3.785,8.116c0.806,1.729,3.258,2.152,4.789,1.255
			c1.758-1.029,2.062-3.06,1.255-4.789c-1.261-2.705-2.523-5.411-3.785-8.116c-0.806-1.729-3.258-2.152-4.789-1.255
			C268.128,93.545,267.824,95.576,268.63,97.305L268.63,97.305z"/>
	</g>
</g>
</svg>
