<?xml version="1.0" encoding="iso-8859-1"?>
<!-- Generator: Adobe Illustrator 16.0.3, SVG Export Plug-In . SVG Version: 6.00 Build 0)  -->
<!DOCTYPE svg PUBLIC "-//W3C//DTD SVG 1.1//EN" "http://www.w3.org/Graphics/SVG/1.1/DTD/svg11.dtd">
<svg version="1.1" xmlns="http://www.w3.org/2000/svg" xmlns:xlink="http://www.w3.org/1999/xlink" x="0px" y="0px" width="361px"
	 height="361px" viewBox="0 0 361 361" style="enable-background:new 0 0 361 361;" xml:space="preserve">
<g id="light_x5F_table_x5F_lamp">
	<g>
		<g>
			<path style="fill:#FFFFFF;" d="M84.09,163.513c8.917,1.522,17.833,3.045,26.749,4.567c4.414,0.754,6.304-5.991,1.861-6.75
				c-8.917-1.522-17.833-3.045-26.749-4.567C81.537,156.009,79.647,162.754,84.09,163.513L84.09,163.513z"/>
		</g>
	</g>
	<g>
		<g>
			<path style="fill:#FFFFFF;" d="M84.364,173.128c8.917,1.522,17.833,3.045,26.749,4.567c4.414,0.753,6.304-5.991,1.861-6.75
				c-8.917-1.522-17.833-3.045-26.749-4.567C81.812,165.625,79.921,172.37,84.364,173.128L84.364,173.128z"/>
		</g>
	</g>
	<g>
		<g>
			<path style="fill:#FFFFFF;" d="M84.364,182.47c8.917,1.522,17.833,3.045,26.749,4.567c4.414,0.754,6.304-5.991,1.861-6.75
				c-8.917-1.522-17.833-3.045-26.749-4.567C81.812,174.966,79.921,181.711,84.364,182.47L84.364,182.47z"/>
		</g>
	</g>
	<g>
		<g>
			<path style="fill:#FFFFFF;" d="M90.058,192.441c5.004,0.854,10.008,1.708,15.012,2.563c4.414,0.754,6.304-5.991,1.861-6.75
				c-5.004-0.854-10.008-1.708-15.012-2.563C87.505,184.938,85.615,191.683,90.058,192.441L90.058,192.441z"/>
		</g>
	</g>
	<path style="fill:none;stroke:#FFFFFF;stroke-width:10;stroke-miterlimit:10;" d="M121.034,137.573
		c0,7.544-6.116,13.66-13.66,13.66H89.16c-7.544,0-13.66-6.116-13.66-13.66V89.004c0-7.544,6.116-13.66,13.66-13.66h18.213
		c7.544,0,13.66,6.116,13.66,13.66V137.573z"/>
	<g>
		<path style="fill:#FFFFFF;" d="M258.442,286.504c0-2.852-2.312-5.164-5.163-5.164h-44.584c-2.851,0-5.162,2.313-5.162,5.164l0,0
			c0,2.852,2.312,5.164,5.162,5.164h44.584C256.131,291.668,258.442,289.355,258.442,286.504L258.442,286.504z"/>
		<g>
			<g>
				<path style="fill:#FFFFFF;" d="M235.987,285.667c0-33.074,0-66.149,0-99.224c0-6.449-10-6.449-10,0c0,33.074,0,66.149,0,99.224
					C225.987,292.115,235.987,292.115,235.987,285.667L235.987,285.667z"/>
			</g>
		</g>
		<g>
			<g>
				<path style="fill:#FFFFFF;" d="M180.268,186.443c-0.499-27.938,23.394-50.441,50.72-50.776
					c26.973-0.331,51.699,23.345,50.72,50.776c1.667-1.667,3.333-3.333,5-5c-37.146,0-74.293,0-111.439,0c-6.449,0-6.449,10,0,10
					c37.146,0,74.293,0,111.439,0c2.799,0,4.902-2.277,5-5c1.192-33.38-28.512-60.381-60.72-60.776
					c-32.673-0.401-61.305,27.989-60.72,60.776C170.383,192.885,180.383,192.896,180.268,186.443z"/>
			</g>
		</g>
	</g>
</g>
<g id="Ebene_1">
</g>
</svg>
