<?xml version="1.0" encoding="iso-8859-1"?>
<!-- Generator: Adobe Illustrator 16.0.0, SVG Export Plug-In . SVG Version: 6.00 Build 0)  -->
<!DOCTYPE svg PUBLIC "-//W3C//DTD SVG 1.1//EN" "http://www.w3.org/Graphics/SVG/1.1/DTD/svg11.dtd">
<svg version="1.1" xmlns="http://www.w3.org/2000/svg" xmlns:xlink="http://www.w3.org/1999/xlink" x="0px" y="0px" width="361px"
	 height="361px" viewBox="0 0 361 361" style="enable-background:new 0 0 361 361;" xml:space="preserve">
<g id="light_x5F_indoor">
	<g>
		<g>
			<g>
				<path style="fill:#FFFFFF;" d="M83.84,162.833c8.917,1.522,17.833,3.045,26.749,4.567c4.414,0.754,6.304-5.991,1.861-6.75
					c-8.917-1.522-17.833-3.045-26.749-4.567C81.287,155.329,79.397,162.074,83.84,162.833L83.84,162.833z"/>
			</g>
		</g>
		<g>
			<g>
				<path style="fill:#FFFFFF;" d="M84.114,172.449c8.917,1.522,17.833,3.045,26.749,4.567c4.414,0.753,6.304-5.991,1.861-6.75
					c-8.917-1.522-17.833-3.045-26.749-4.567C81.562,164.945,79.671,171.69,84.114,172.449L84.114,172.449z"/>
			</g>
		</g>
		<g>
			<g>
				<path style="fill:#FFFFFF;" d="M84.114,181.79c8.917,1.522,17.833,3.045,26.749,4.567c4.414,0.754,6.304-5.991,1.861-6.75
					c-8.917-1.522-17.833-3.045-26.749-4.567C81.562,174.286,79.671,181.031,84.114,181.79L84.114,181.79z"/>
			</g>
		</g>
		<g>
			<g>
				<path style="fill:#FFFFFF;" d="M89.808,191.762c5.004,0.854,10.008,1.708,15.012,2.563c4.414,0.754,6.304-5.991,1.861-6.75
					c-5.004-0.854-10.008-1.708-15.012-2.563C87.255,184.258,85.365,191.003,89.808,191.762L89.808,191.762z"/>
			</g>
		</g>
		<path style="fill:none;stroke:#FFFFFF;stroke-width:10;stroke-miterlimit:10;" d="M120.784,136.894
			c0,7.544-6.116,13.66-13.66,13.66H88.91c-7.544,0-13.66-6.116-13.66-13.66V88.324c0-7.544,6.116-13.66,13.66-13.66h18.213
			c7.544,0,13.66,6.116,13.66,13.66V136.894z"/>
	</g>
	<g>
		<g>
			<g>
				<polygon style="fill:#FFFFFF;" points="208.512,190.181 208.33,130.034 287.635,190.181 				"/>
				<g>
					<path style="fill:#FFFFFF;" d="M213.512,190.181c-0.061-20.049-0.121-40.098-0.182-60.146
						c-2.508,1.439-5.016,2.878-7.523,4.317c26.435,20.049,52.869,40.098,79.305,60.146c0.841-3.105,1.683-6.212,2.523-9.317
						c-26.374,0-52.749,0-79.123,0c-6.448,0-6.448,10,0,10c26.374,0,52.749,0,79.123,0c5.402,0,6.252-6.489,2.523-9.317
						c-26.435-20.049-52.869-40.098-79.305-60.146c-3.125-2.371-7.534,0.868-7.523,4.317c0.061,20.049,0.121,40.098,0.182,60.146
						C203.531,196.628,213.531,196.63,213.512,190.181z"/>
				</g>
			</g>
			<g>
				<polygon style="fill:#FFFFFF;" points="208.148,190.181 208.33,130.035 129.025,190.181 				"/>
				<g>
					<path style="fill:#FFFFFF;" d="M213.148,190.181c0.061-20.049,0.121-40.097,0.182-60.146c0.011-3.45-4.397-6.688-7.523-4.317
						c-26.435,20.049-52.87,40.097-79.305,60.146c-3.729,2.828-2.879,9.317,2.523,9.317c26.375,0,52.749,0,79.124,0
						c6.448,0,6.448-10,0-10c-26.375,0-52.749,0-79.124,0c0.841,3.105,1.683,6.212,2.523,9.317
						c26.435-20.049,52.871-40.097,79.305-60.146c-2.508-1.439-5.016-2.878-7.523-4.317c-0.061,20.049-0.121,40.097-0.182,60.146
						C203.129,196.63,213.129,196.628,213.148,190.181z"/>
				</g>
			</g>
		</g>
		<path style="fill:none;stroke:#FFFFFF;stroke-width:10;stroke-miterlimit:10;" d="M273.674,281.814c0,2.91-2.916,5.27-6.513,5.27
			H149.993c-3.597,0-6.512-2.359-6.512-5.27v-96.072c0-2.908,130.193-2.908,130.193,0V281.814z"/>
	</g>
</g>
<g id="Ebene_1">
</g>
</svg>
