<?xml version="1.0" encoding="iso-8859-1"?>
<!-- Generator: Adobe Illustrator 16.0.0, SVG Export Plug-In . SVG Version: 6.00 Build 0)  -->
<!DOCTYPE svg PUBLIC "-//W3C//DTD SVG 1.1//EN" "http://www.w3.org/Graphics/SVG/1.1/DTD/svg11.dtd">
<svg version="1.1" xmlns="http://www.w3.org/2000/svg" xmlns:xlink="http://www.w3.org/1999/xlink" x="0px" y="0px" width="361px"
	 height="361px" viewBox="0 0 361 361" style="enable-background:new 0 0 361 361;" xml:space="preserve">
<g id="light_x5F_pendant_x5F_light">
	<g>
		<g>
			<g>
				<path style="fill:#FFFFFF;" d="M84.09,163.513c8.917,1.522,17.833,3.045,26.749,4.567c4.414,0.754,6.304-5.991,1.861-6.75
					c-8.917-1.522-17.833-3.045-26.749-4.567C81.537,156.009,79.647,162.754,84.09,163.513L84.09,163.513z"/>
			</g>
		</g>
		<g>
			<g>
				<path style="fill:#FFFFFF;" d="M84.364,173.128c8.917,1.522,17.833,3.045,26.749,4.567c4.414,0.753,6.304-5.991,1.861-6.75
					c-8.917-1.522-17.833-3.045-26.749-4.567C81.812,165.625,79.921,172.37,84.364,173.128L84.364,173.128z"/>
			</g>
		</g>
		<g>
			<g>
				<path style="fill:#FFFFFF;" d="M84.364,182.47c8.917,1.522,17.833,3.045,26.749,4.567c4.414,0.754,6.304-5.991,1.861-6.75
					c-8.917-1.522-17.833-3.045-26.749-4.567C81.812,174.966,79.921,181.711,84.364,182.47L84.364,182.47z"/>
			</g>
		</g>
		<g>
			<g>
				<path style="fill:#FFFFFF;" d="M90.058,192.441c5.004,0.854,10.008,1.708,15.012,2.563c4.414,0.754,6.304-5.991,1.861-6.75
					c-5.004-0.854-10.008-1.708-15.012-2.563C87.505,184.938,85.615,191.683,90.058,192.441L90.058,192.441z"/>
			</g>
		</g>
		<path style="fill:none;stroke:#FFFFFF;stroke-width:10;stroke-miterlimit:10;" d="M121.034,137.573
			c0,7.544-6.116,13.66-13.66,13.66H89.16c-7.544,0-13.66-6.116-13.66-13.66V89.004c0-7.544,6.116-13.66,13.66-13.66h18.213
			c7.544,0,13.66,6.116,13.66,13.66V137.573z"/>
	</g>
	<g>
		<path style="fill:#FFFFFF;stroke:#FFFFFF;stroke-miterlimit:10;" d="M205.223,75.259c0,2.904-2.354,5.259-5.258,5.259h-14.85
			c-2.904,0-5.259-2.354-5.259-5.259l0,0c0-2.904,2.354-5.259,5.259-5.259h14.85C202.869,70,205.223,72.355,205.223,75.259
			L205.223,75.259z"/>
		<g>
			<g>
				<g>
					<path style="fill:#FFFFFF;" d="M186.959,82.67c0,41.852,0,83.704,0,125.556c0,6.448,10,6.448,10,0c0-41.852,0-83.704,0-125.556
						C196.959,76.221,186.959,76.221,186.959,82.67L186.959,82.67z"/>
				</g>
			</g>
			<g>
				<g>
					<path style="fill:#FFFFFF;" d="M99.654,271.673c31.61-20.196,63.219-40.393,94.829-60.589c-1.683,0-3.364,0-5.047,0
						c31.608,20.196,63.217,40.393,94.826,60.589c0.841-3.105,1.683-6.212,2.523-9.317c-49.702,0-99.405,0-149.108,0
						c-13.516,0-27.031,0-40.547,0c-6.449,0-6.449,10,0,10c49.703,0,99.405,0,149.108,0c13.516,0,27.031,0,40.547,0
						c5.113,0,6.642-6.687,2.523-9.317c-31.608-20.196-63.217-40.393-94.826-60.589c-1.445-0.924-3.602-0.924-5.047,0
						c-31.61,20.196-63.219,40.393-94.829,60.589C89.192,266.498,94.202,275.156,99.654,271.673z"/>
				</g>
			</g>
			<g>
				<g>
					<path style="fill:#FFFFFF;" d="M209.895,272.537c-0.213,5.349-3.209,11.862-9.436,11.862c-2.833,0-5.667,0-8.5,0
						c-2.834,0-5.668,0-8.501,0c-6.227,0-9.223-6.514-9.436-11.862c-0.179-4.498-7.18-4.516-7,0
						c0.289,7.246,3.603,14.756,10.698,17.664c4.412,1.808,9.568,1.198,14.239,1.198c4.67,0,9.826,0.609,14.238-1.198
						c7.094-2.908,10.409-10.418,10.697-17.664C217.074,268.021,210.073,268.039,209.895,272.537L209.895,272.537z"/>
				</g>
			</g>
		</g>
	</g>
</g>
<g id="Ebene_1">
</g>
</svg>
