<?xml version="1.0" encoding="iso-8859-1"?>
<!-- Generator: Adobe Illustrator 16.0.0, SVG Export Plug-In . SVG Version: 6.00 Build 0)  -->
<!DOCTYPE svg PUBLIC "-//W3C//DTD SVG 1.1 Tiny//EN" "http://www.w3.org/Graphics/SVG/1.1/DTD/svg11-tiny.dtd">
<svg version="1.1" baseProfile="tiny" id="light_x5F_mirror"
	 xmlns="http://www.w3.org/2000/svg" xmlns:xlink="http://www.w3.org/1999/xlink" x="0px" y="0px" width="361px" height="361px"
	 viewBox="0 0 361 361" xml:space="preserve">
<g>
	<path fill="#FFFFFF" d="M81.572,165.391c8.917,1.522,17.833,3.045,26.749,4.567c4.414,0.754,6.304-5.991,1.861-6.75
		c-8.917-1.522-17.833-3.045-26.749-4.567C79.019,157.887,77.129,164.632,81.572,165.391L81.572,165.391z"/>
</g>
<g>
	<path fill="#FFFFFF" d="M81.846,175.006c8.917,1.522,17.833,3.045,26.749,4.567c4.414,0.753,6.304-5.991,1.861-6.75
		c-8.917-1.522-17.833-3.045-26.749-4.567C79.293,167.503,77.403,174.248,81.846,175.006L81.846,175.006z"/>
</g>
<g>
	<path fill="#FFFFFF" d="M81.846,184.348c8.917,1.522,17.833,3.045,26.749,4.567c4.414,0.754,6.304-5.991,1.861-6.75
		c-8.917-1.522-17.833-3.045-26.749-4.567C79.293,176.844,77.403,183.589,81.846,184.348L81.846,184.348z"/>
</g>
<g>
	<path fill="#FFFFFF" d="M87.54,194.319c5.004,0.854,10.008,1.709,15.012,2.563c4.414,0.754,6.304-5.991,1.861-6.75
		c-5.004-0.854-10.008-1.709-15.012-2.563C84.987,186.815,83.097,193.56,87.54,194.319L87.54,194.319z"/>
</g>
<path fill="none" stroke="#FFFFFF" stroke-width="10" stroke-miterlimit="10" d="M118.516,139.451c0,7.544-6.116,13.66-13.66,13.66
	H86.642c-7.544,0-13.66-6.116-13.66-13.66V90.882c0-7.544,6.116-13.66,13.66-13.66h18.213c7.544,0,13.66,6.116,13.66,13.66V139.451z
	"/>
<g>
	<path fill="#FFFFFF" d="M166.984,240.182c-5.447-0.627-4.169-7.514-4.169-10.775c0-5.884,0-11.768,0-17.651c0-16,0-32,0-48
		c0-10.266,0-20.532,0-30.797c0-4.905,4.284-4.777,7.287-4.777c4.649,0,9.299,0,13.949,0c29.442,0,58.884,0,88.326,0
		c3.121,0,6.241,0,9.362,0c5.232,0,4.575,5.009,4.575,7.991c0,12.699,0,25.397,0,38.096c0,15.429,0,30.858,0,46.287
		c0,4.752,2.782,19.625-5.507,19.625c-26.684,0-53.368,0-80.052,0C189.499,240.182,178.242,240.182,166.984,240.182
		c-1.935,0-1.935,3,0,3c23.65,0,47.301,0,70.951,0c12.881,0,25.763,0,38.645,0c2.084,0,5.22,0.527,7.264-0.203
		c4.511-1.612,5.471-5.06,5.471-9.321c0-27.604,0-55.207,0-82.811c0-5.023,0-10.047,0-15.071c0-3.228,0.306-7.127-2.866-9.144
		c-2.727-1.733-5.497-1.45-8.565-1.45c-5.02,0-10.04,0-15.06,0c-29.255,0-58.511,0-87.766,0c-6.491,0-15.243-1.056-15.243,8.165
		c0,10.757,0,21.515,0,32.272c0,17.299,0,34.599,0,51.898c0,5.268,0,10.537,0,15.805c0,4.993,1.384,9.194,7.169,9.86
		C168.904,243.403,168.883,240.4,166.984,240.182z"/>
</g>
<g>
	<path fill="#FFFFFF" d="M173.065,119.045c11.167,0,22.333,0,33.5,0c4.514,0,4.514-7,0-7c-11.167,0-22.333,0-33.5,0
		C168.551,112.045,168.551,119.045,173.065,119.045L173.065,119.045z"/>
</g>
<g>
	<path fill="#FFFFFF" d="M189.815,126.182c-0.161-7.275-5.319-12.001-12.5-12.137c-1.936-0.037-1.932,2.963,0,3
		c5.524,0.104,9.375,3.506,9.5,9.137C186.858,128.114,189.858,128.118,189.815,126.182L189.815,126.182z"/>
</g>
<g>
	<path fill="#FFFFFF" d="M239.065,118.863c11.167,0,22.333,0,33.5,0c4.514,0,4.514-7,0-7c-11.167,0-22.333,0-33.5,0
		C234.551,111.863,234.551,118.863,239.065,118.863L239.065,118.863z"/>
</g>
<g>
	<path fill="#FFFFFF" d="M262.815,126c-0.161-7.275-5.319-12.001-12.5-12.137c-1.936-0.037-1.932,2.963,0,3
		c5.524,0.104,9.375,3.506,9.5,9.137C259.858,127.932,262.858,127.936,262.815,126L262.815,126z"/>
</g>
<g>
	<path fill="#FFFFFF" d="M224.577,203.95c12.015-11.399,24.03-22.798,36.044-34.198c1.406-1.334-0.719-3.452-2.121-2.121
		c-12.015,11.399-24.03,22.798-36.044,34.198C221.049,203.163,223.174,205.281,224.577,203.95L224.577,203.95z"/>
</g>
<g>
	<path fill="#FFFFFF" d="M213.715,229.208c22.245-21.104,44.489-42.209,66.733-63.314c1.406-1.334-0.719-3.452-2.121-2.121
		c-22.245,21.104-44.489,42.209-66.733,63.314C210.188,228.421,212.313,230.539,213.715,229.208L213.715,229.208z"/>
</g>
<g>
	<path fill="#FFFFFF" d="M230.997,229.26c13.024-12.356,26.048-24.713,39.072-37.07c1.406-1.334-0.719-3.452-2.121-2.121
		c-13.024,12.356-26.048,24.713-39.072,37.07C227.469,228.473,229.594,230.591,230.997,229.26L230.997,229.26z"/>
</g>
</svg>
