<?xml version="1.0" encoding="iso-8859-1"?>
<!-- Generator: Adobe Illustrator 16.0.0, SVG Export Plug-In . SVG Version: 6.00 Build 0)  -->
<!DOCTYPE svg PUBLIC "-//W3C//DTD SVG 1.1//EN" "http://www.w3.org/Graphics/SVG/1.1/DTD/svg11.dtd">
<svg version="1.1" xmlns="http://www.w3.org/2000/svg" xmlns:xlink="http://www.w3.org/1999/xlink" x="0px" y="0px" width="361px"
	 height="361px" viewBox="0 0 361 361" style="enable-background:new 0 0 361 361;" xml:space="preserve">
<g id="light_x5F_wall_x5F_1">
	<g>
		<g>
			<path style="fill:#FFFFFF;" d="M83.84,163.013c8.917,1.522,17.833,3.045,26.749,4.567c4.414,0.754,6.304-5.991,1.861-6.75
				c-8.917-1.522-17.833-3.045-26.749-4.567C81.287,155.509,79.397,162.254,83.84,163.013L83.84,163.013z"/>
		</g>
	</g>
	<g>
		<g>
			<path style="fill:#FFFFFF;" d="M84.114,172.628c8.917,1.522,17.833,3.045,26.749,4.567c4.414,0.753,6.304-5.991,1.861-6.75
				c-8.917-1.522-17.833-3.045-26.749-4.567C81.562,165.125,79.671,171.87,84.114,172.628L84.114,172.628z"/>
		</g>
	</g>
	<g>
		<g>
			<path style="fill:#FFFFFF;" d="M84.114,181.97c8.917,1.522,17.833,3.045,26.749,4.567c4.414,0.754,6.304-5.991,1.861-6.75
				c-8.917-1.522-17.833-3.045-26.749-4.567C81.562,174.466,79.671,181.211,84.114,181.97L84.114,181.97z"/>
		</g>
	</g>
	<g>
		<g>
			<path style="fill:#FFFFFF;" d="M89.808,191.941c5.004,0.854,10.008,1.708,15.012,2.563c4.414,0.754,6.304-5.991,1.861-6.75
				c-5.004-0.854-10.008-1.708-15.012-2.563C87.255,184.438,85.365,191.183,89.808,191.941L89.808,191.941z"/>
		</g>
	</g>
	<path style="fill:none;stroke:#FFFFFF;stroke-width:10;stroke-miterlimit:10;" d="M120.784,137.073
		c0,7.544-6.116,13.66-13.66,13.66H88.91c-7.544,0-13.66-6.116-13.66-13.66V88.504c0-7.544,6.116-13.66,13.66-13.66h18.213
		c7.544,0,13.66,6.116,13.66,13.66V137.073z"/>
	<g>
		<g>
			<path style="fill:#FFFFFF;" d="M261.469,232.133c-0.507,8.793-12.326,6.533-18.274,6.533c-2.843,0-5.686,0-8.528,0
				c-5.218,0-6.031-3.814-6.97-7.912c-2.01-8.781-4.021-17.562-6.031-26.343c-5.662-24.727-11.323-49.453-16.985-74.179
				c-0.592-2.588,4.563-5.315,6.803-5.315c1.871,0,3.741,0,5.611,0c7.629,0,15.257,0,22.886,0c4.976,0,9.952,0,14.929,0
				c5.849,0,6.561,5.23,6.561,9.644c0,27.768,0,55.536,0,83.304C261.469,222.621,261.469,227.377,261.469,232.133
				c0,6.448,10,6.448,10,0c0-24.465,0-48.93,0-73.395c0-9.079,0-18.158,0-27.237c0-9.203-7.678-16.584-16.793-16.584
				c-5.537,0-11.074,0-16.611,0c-7.431,0-14.862,0-22.294,0c-6.79,0-13.37,0.72-17.722,6.795
				c-6.011,8.394-1.115,19.462,0.948,28.473c6.18,26.987,12.358,53.974,18.538,80.961c0.87,3.802,1.146,7.34,3.568,10.724
				c4.286,5.983,10.76,6.796,17.501,6.796c5.424,0,10.847,0,16.271,0c9.392,0,16.074-7.524,16.594-16.533
				C271.841,225.688,261.839,225.724,261.469,232.133z"/>
		</g>
	</g>
	<g>
		<g>
			<path style="fill:#FFFFFF;" d="M276.998,76.613c0,48.807,0,97.613,0,146.42c0,20.61,0,41.22,0,61.83
				c0,9.686,15.004,9.771,15.004,0.107c0-48.807,0-97.613,0-146.419c0-20.61,0-41.22,0-61.83
				C292.002,67.035,276.998,66.95,276.998,76.613L276.998,76.613z"/>
		</g>
	</g>
	<g>
		<g>
			<path style="fill:#FFFFFF;" d="M250.824,74.838c0,6.393,0,12.786,0,19.179c0,4.514,7,4.514,7,0c0-6.393,0-12.786,0-19.179
				C257.824,70.324,250.824,70.324,250.824,74.838L250.824,74.838z"/>
		</g>
	</g>
	<g>
		<g>
			<path style="fill:#FFFFFF;" d="M226.239,74.91c0.779,6.346,1.558,12.691,2.337,19.037c0.543,4.42,7.549,4.474,7,0
				c-0.779-6.346-1.558-12.691-2.337-19.037C232.696,70.489,225.69,70.436,226.239,74.91L226.239,74.91z"/>
		</g>
	</g>
	<g>
		<g>
			<path style="fill:#FFFFFF;" d="M201.154,75.574c1.869,6.114,3.738,12.228,5.607,18.341c1.315,4.304,8.073,2.467,6.75-1.861
				c-1.869-6.114-3.738-12.228-5.607-18.341C206.589,69.409,199.831,71.245,201.154,75.574L201.154,75.574z"/>
		</g>
	</g>
	<g>
		<g>
			<path style="fill:#FFFFFF;" d="M270.833,151.733c0,19.47,0,38.939,0,58.409c0,4.514,7,4.514,7,0c0-19.47,0-38.939,0-58.409
				C277.833,147.219,270.833,147.219,270.833,151.733L270.833,151.733z"/>
		</g>
	</g>
</g>
<g id="Ebene_1">
</g>
</svg>
