<?xml version="1.0" encoding="iso-8859-1"?>
<!-- Generator: Adobe Illustrator 16.0.0, SVG Export Plug-In . SVG Version: 6.00 Build 0)  -->
<!DOCTYPE svg PUBLIC "-//W3C//DTD SVG 1.1 Tiny//EN" "http://www.w3.org/Graphics/SVG/1.1/DTD/svg11-tiny.dtd">
<svg version="1.1" baseProfile="tiny" id="light_x5F_control"
	 xmlns="http://www.w3.org/2000/svg" xmlns:xlink="http://www.w3.org/1999/xlink" x="0px" y="0px" width="361px" height="361px"
	 viewBox="0 0 361 361" xml:space="preserve">
<g>
	<path fill="#FFFFFF" d="M160.064,258.188c10.315,1.761,20.629,3.523,30.944,5.284c4.414,0.754,6.304-5.991,1.861-6.75
		c-10.315-1.761-20.629-3.523-30.944-5.284C157.512,250.684,155.622,257.429,160.064,258.188L160.064,258.188z"/>
</g>
<g>
	<path fill="#FFFFFF" d="M160.382,269.311c10.315,1.762,20.629,3.523,30.944,5.285c4.414,0.754,6.304-5.991,1.861-6.75
		c-10.315-1.762-20.629-3.523-30.944-5.285C157.83,261.807,155.939,268.552,160.382,269.311L160.382,269.311z"/>
</g>
<g>
	<path fill="#FFFFFF" d="M160.382,280.118c10.315,1.761,20.629,3.522,30.944,5.284c4.414,0.754,6.304-5.991,1.861-6.75
		c-10.315-1.761-20.629-3.522-30.944-5.284C157.83,272.614,155.939,279.359,160.382,280.118L160.382,280.118z"/>
</g>
<g>
	<path fill="#FFFFFF" d="M166.969,291.652c5.789,0.989,11.577,1.977,17.366,2.966c4.414,0.754,6.304-5.991,1.861-6.75
		c-5.789-0.989-11.577-1.977-17.366-2.966C164.416,284.148,162.526,290.894,166.969,291.652L166.969,291.652z"/>
</g>
<path fill="none" stroke="#FFFFFF" stroke-width="10" stroke-miterlimit="10" d="M202.656,228.71
	c0,8.728-7.075,15.802-15.802,15.802h-21.07c-8.728,0-15.802-7.074-15.802-15.802v-56.186c0-8.727,7.075-15.802,15.802-15.802h21.07
	c8.728,0,15.802,7.075,15.802,15.802V228.71z"/>
<g>
	<g>
		<path fill="#FFFFFF" d="M77.355,163.962c15.77-35.481,45.484-61.806,82.354-73.811c39.982-13.018,84.019-7.971,122.167,8.59
			c5.852,2.541,10.949-6.073,5.047-8.635c-40.863-17.74-86.938-23.159-129.873-9.598c-39.155,12.367-71.634,40.84-88.33,78.406
			C66.125,164.753,74.74,169.846,77.355,163.962L77.355,163.962z"/>
	</g>
	<g>
		<path fill="#FFFFFF" d="M76.52,165.007c26.971-26.788,63.205-41.83,101.209-42.087c38.527-0.261,75.738,15.62,103.047,42.59
			c4.591,4.533,11.665-2.535,7.071-7.071c-29.012-28.651-67.952-45.045-108.745-45.515c-40.924-0.472-80.708,16.263-109.654,45.012
			C64.868,162.484,71.941,169.554,76.52,165.007L76.52,165.007z"/>
	</g>
	<g>
		<path fill="#FFFFFF" d="M279.4,95.32c0,22.218,0,44.436,0,66.654c0,6.449,10,6.449,10,0c0-22.218,0-44.436,0-66.654
			C289.4,88.871,279.4,88.871,279.4,95.32L279.4,95.32z"/>
	</g>
	<g>
		<path fill="#FFFFFF" d="M85.099,197.568c-4.742,0-9.484,0-14.227,0c1.167,1.167,2.333,2.333,3.5,3.5c0-7.452,0-14.904,0-22.356
			c-1.167,1.167-2.333,2.333-3.5,3.5c4.742,0,9.484,0,14.227,0c-1.167-1.167-2.333-2.333-3.5-3.5c0,7.452,0,14.904,0,22.356
			c0,4.514,7,4.514,7,0c0-7.452,0-14.904,0-22.356c0-1.908-1.592-3.5-3.5-3.5c-4.742,0-9.484,0-14.227,0c-1.908,0-3.5,1.592-3.5,3.5
			c0,7.452,0,14.904,0,22.356c0,1.908,1.592,3.5,3.5,3.5c4.742,0,9.484,0,14.227,0C89.613,204.568,89.613,197.568,85.099,197.568z"
			/>
	</g>
	<g>
		<path fill="#FFFFFF" d="M286.481,198.331c-4.742,0-9.484,0-14.227,0c1.167,1.167,2.333,2.333,3.5,3.5c0-7.452,0-14.904,0-22.356
			c-1.167,1.167-2.333,2.333-3.5,3.5c4.742,0,9.484,0,14.227,0c-1.167-1.167-2.333-2.333-3.5-3.5c0,7.452,0,14.904,0,22.356
			c0,4.514,7,4.514,7,0c0-7.452,0-14.904,0-22.356c0-1.908-1.592-3.5-3.5-3.5c-4.742,0-9.484,0-14.227,0c-1.908,0-3.5,1.592-3.5,3.5
			c0,7.452,0,14.904,0,22.356c0,1.908,1.592,3.5,3.5,3.5c4.742,0,9.484,0,14.227,0C290.996,205.331,290.996,198.331,286.481,198.331
			z"/>
	</g>
	<g>
		<path fill="#FFFFFF" d="M263.617,198.331c-4.742,0-9.484,0-14.227,0c1.167,1.167,2.333,2.333,3.5,3.5c0-7.452,0-14.904,0-22.356
			c-1.167,1.167-2.333,2.333-3.5,3.5c4.742,0,9.484,0,14.227,0c-1.167-1.167-2.333-2.333-3.5-3.5c0,7.452,0,14.904,0,22.356
			c0,4.514,7,4.514,7,0c0-7.452,0-14.904,0-22.356c0-1.908-1.592-3.5-3.5-3.5c-4.742,0-9.484,0-14.227,0c-1.908,0-3.5,1.592-3.5,3.5
			c0,7.452,0,14.904,0,22.356c0,1.908,1.592,3.5,3.5,3.5c4.742,0,9.484,0,14.227,0C268.131,205.331,268.131,198.331,263.617,198.331
			z"/>
	</g>
	<g>
		<path fill="#FFFFFF" d="M237.252,179.156c0,7.685,0,15.37,0,23.055c0,4.514,7,4.514,7,0c0-7.685,0-15.37,0-23.055
			C244.252,174.642,237.252,174.642,237.252,179.156L237.252,179.156z"/>
	</g>
</g>
</svg>
