<?xml version="1.0" encoding="iso-8859-1"?>
<!-- Generator: Adobe Illustrator 16.0.0, SVG Export Plug-In . SVG Version: 6.00 Build 0)  -->
<!DOCTYPE svg PUBLIC "-//W3C//DTD SVG 1.1//EN" "http://www.w3.org/Graphics/SVG/1.1/DTD/svg11.dtd">
<svg version="1.1" xmlns="http://www.w3.org/2000/svg" xmlns:xlink="http://www.w3.org/1999/xlink" x="0px" y="0px" width="361px"
	 height="361px" viewBox="0 0 361 361" style="enable-background:new 0 0 361 361;" xml:space="preserve">
<g id="light_x5F_ball">
	<g id="Lampe_1_">
		<g>
			<g>
				<path style="fill:#FFFFFF;" d="M84.09,163.192c8.917,1.522,17.833,3.045,26.749,4.567c4.414,0.754,6.304-5.991,1.861-6.75
					c-8.917-1.522-17.833-3.045-26.749-4.567C81.537,155.688,79.647,162.434,84.09,163.192L84.09,163.192z"/>
			</g>
		</g>
		<g>
			<g>
				<path style="fill:#FFFFFF;" d="M84.364,172.808c8.917,1.522,17.833,3.045,26.749,4.567c4.414,0.753,6.304-5.991,1.861-6.75
					c-8.917-1.522-17.833-3.045-26.749-4.567C81.812,165.305,79.921,172.049,84.364,172.808L84.364,172.808z"/>
			</g>
		</g>
		<g>
			<g>
				<path style="fill:#FFFFFF;" d="M84.364,182.149c8.917,1.522,17.833,3.045,26.749,4.567c4.414,0.754,6.304-5.991,1.861-6.75
					c-8.917-1.522-17.833-3.045-26.749-4.567C81.812,174.646,79.921,181.391,84.364,182.149L84.364,182.149z"/>
			</g>
		</g>
		<g>
			<g>
				<path style="fill:#FFFFFF;" d="M90.058,192.121c5.004,0.854,10.008,1.708,15.012,2.563c4.414,0.754,6.304-5.991,1.861-6.75
					c-5.004-0.854-10.008-1.708-15.012-2.563C87.505,184.617,85.615,191.362,90.058,192.121L90.058,192.121z"/>
			</g>
		</g>
		<path style="fill:none;stroke:#FFFFFF;stroke-width:10;stroke-miterlimit:10;" d="M121.034,137.253
			c0,7.544-6.116,13.66-13.66,13.66H89.16c-7.544,0-13.66-6.116-13.66-13.66V88.684c0-7.544,6.116-13.66,13.66-13.66h18.213
			c7.544,0,13.66,6.116,13.66,13.66V137.253z"/>
	</g>
	<g>
		<g>
			<path style="fill:#FFFFFF;" d="M168.893,288.545c-0.02-5.125,0.217-10.825-1.594-15.723c-0.973-2.631-2.989-4.216-5.054-5.97
				c-1.465-1.244-3.598,0.867-2.121,2.121c1.629,1.384,3.272,2.575,4.234,4.538c2.108,4.299,1.517,10.428,1.535,15.033
				C165.9,290.479,168.9,290.479,168.893,288.545L168.893,288.545z"/>
		</g>
	</g>
	<g>
		<g>
			<path style="fill:#FFFFFF;" d="M172.67,288.545c-0.036-5.23-0.001-11.152-2.715-15.825c-1.753-3.019-5.125-4.441-8.014-6.102
				c-1.68-0.966-3.19,1.626-1.514,2.59c2.291,1.317,4.983,2.389,6.624,4.556c2.958,3.906,2.587,10.19,2.619,14.781
				C169.684,290.479,172.684,290.48,172.67,288.545L172.67,288.545z"/>
		</g>
	</g>
	<g>
		<g>
			<path style="fill:#FFFFFF;" d="M162.473,288.545c-0.036-4.574-0.104-9.742-2.396-13.856c-0.511-0.918-1.248-1.708-2.087-2.331
				c-0.271-0.202-0.552-0.386-0.839-0.565c-0.454-0.284-0.164-0.271-0.107,0.244c-0.21-1.901-3.212-1.922-3,0
				c0.185,1.679,1.386,2.013,2.504,2.993c3.315,2.908,2.895,9.652,2.924,13.516C159.488,290.479,162.488,290.48,162.473,288.545
				L162.473,288.545z"/>
		</g>
	</g>
	<g>
		<g>
			<path style="fill:#FFFFFF;" d="M166.196,288.146c-0.736-3.918-1.092-9.078-3.52-12.443c-1.476-2.046-4.21-3.063-6.072-4.728
				c-1.438-1.285-3.566,0.829-2.121,2.121c1.686,1.507,3.858,2.468,5.469,4.003c0.829,0.789,1.144,2.08,1.461,3.132
				c0.855,2.838,1.343,5.805,1.889,8.712C163.661,290.844,166.552,290.037,166.196,288.146L166.196,288.146z"/>
		</g>
	</g>
	<g>
		<g>
			<path style="fill:#FFFFFF;" d="M175.477,288.615c0.021-2.716-0.24-6.994,1.815-9.176c0.762-0.808,1.883-1.09,2.046-2.566
				c0.212-1.922-2.79-1.901-3,0c0.084-0.76,0.521-0.832-0.329-0.242c-0.666,0.462-1.171,1.022-1.631,1.687
				c-1.941,2.806-1.876,7.07-1.901,10.298C172.461,290.551,175.461,290.549,175.477,288.615L175.477,288.615z"/>
		</g>
	</g>
	<g>
		<g>
			<path style="fill:#FFFFFF;" d="M172.736,289.014c0.432-2.299,0.563-6.168,2.139-8.091c0.975-1.188,2.844-1.935,4.023-2.989
				c1.445-1.291-0.684-3.406-2.121-2.121c-1.273,1.138-3.067,1.822-4.152,3.146c-1.973,2.406-2.235,6.35-2.782,9.259
				C169.488,290.107,172.379,290.914,172.736,289.014L172.736,289.014z"/>
		</g>
	</g>
	<g>
		<g>
			<path style="fill:#FFFFFF;" d="M279.462,289.773c0.046-5.764-0.075-12.483,3.205-17.507c1.552-2.376,4.419-3.707,6.554-5.483
				c1.489-1.238-0.646-3.349-2.121-2.121c-2.626,2.185-5.456,3.691-7.373,6.627c-3.366,5.155-3.218,12.625-3.265,18.484
				C276.446,291.709,279.446,291.707,279.462,289.773L279.462,289.773z"/>
		</g>
	</g>
	<g>
		<g>
			<path style="fill:#FFFFFF;" d="M274.955,289.773c0.064-5.908,0.193-12.94,4.63-17.421c2.494-2.52,6.303-3.618,9.332-5.335
				c1.683-0.953,0.172-3.545-1.514-2.59c-3.78,2.143-7.964,3.493-10.91,6.844c-4.273,4.861-4.472,12.419-4.538,18.502
				C271.935,291.709,274.935,291.707,274.955,289.773L274.955,289.773z"/>
		</g>
	</g>
	<g>
		<g>
			<path style="fill:#FFFFFF;" d="M287.367,289.585c0.023-3.34-0.328-8.565,2.068-11.333c0.863-0.998,2.064-1.301,2.225-2.885
				c0.194-1.925-2.808-1.905-3,0c0.064-0.64,0.216-0.522-0.449-0.02c-0.715,0.54-1.271,1.17-1.753,1.929
				c-2.179,3.43-2.063,8.441-2.091,12.309C284.354,291.521,287.354,291.519,287.367,289.585L287.367,289.585z"/>
		</g>
	</g>
	<g>
		<g>
			<path style="fill:#FFFFFF;" d="M284.326,289.983c0.537-3.111,0.706-7.322,2.514-10.05c0.916-1.383,3.174-2.331,4.381-3.506
				c1.389-1.352-0.734-3.471-2.121-2.121c-1.446,1.407-3.492,2.31-4.708,3.923c-2.169,2.881-2.374,7.572-2.958,10.957
				C281.107,291.078,283.998,291.888,284.326,289.983L284.326,289.983z"/>
		</g>
	</g>
	<g>
		<g>
			<path style="fill:#FFFFFF;" d="M268.391,289.668c-0.018-4.886,0.936-12.605-3.615-15.791c-1.589-1.113-3.086,1.489-1.514,2.59
				c0.731,0.513,0.728,0.179,1.078,1.129c1.356,3.684,1.036,8.235,1.051,12.072C265.397,291.603,268.397,291.603,268.391,289.668
				L268.391,289.668z"/>
		</g>
	</g>
	<g>
		<g>
			<path style="fill:#FFFFFF;" d="M272.901,289.27c-0.601-3.473-0.854-7.927-2.872-10.969c-1.174-1.768-3.442-2.725-4.95-4.189
				c-1.388-1.349-3.511,0.771-2.121,2.121c1.353,1.314,3.128,2.18,4.418,3.516c0.647,0.67,0.868,1.812,1.106,2.669
				c0.693,2.5,1.085,5.098,1.526,7.649C270.338,291.971,273.229,291.161,272.901,289.27L272.901,289.27z"/>
		</g>
	</g>
	<g>
		<g>
			<path style="fill:#FFFFFF;" d="M152.855,289.043c-0.019-4.901,0.207-10.354-1.525-15.037c-0.934-2.526-2.861-4.049-4.845-5.732
				c-1.465-1.244-3.598,0.867-2.121,2.121c1.552,1.317,3.117,2.451,4.034,4.321c2.007,4.094,1.44,9.942,1.457,14.327
				C149.862,290.978,152.862,290.978,152.855,289.043L152.855,289.043z"/>
		</g>
	</g>
	<g>
		<g>
			<path style="fill:#FFFFFF;" d="M156.464,289.043c-0.035-5.009-0.004-10.677-2.604-15.151c-1.682-2.895-4.909-4.26-7.679-5.853
				c-1.68-0.967-3.19,1.626-1.514,2.59c2.176,1.252,4.745,2.27,6.304,4.328c2.819,3.722,2.462,9.712,2.493,14.086
				C153.478,290.977,156.478,290.979,156.464,289.043L156.464,289.043z"/>
		</g>
	</g>
	<g>
		<g>
			<path style="fill:#FFFFFF;" d="M146.646,289.043c-0.03-4.254-0.074-8.968-2.033-12.859c-0.398-0.792-0.997-1.524-1.68-2.086
				c-0.683-0.562-0.89-1.02-0.819-0.309c-0.19-1.906-3.192-1.925-3,0c0.151,1.512,1.202,1.914,2.163,2.847
				c2.817,2.734,2.344,8.948,2.369,12.407C143.66,290.977,146.66,290.979,146.646,289.043L146.646,289.043z"/>
		</g>
	</g>
	<g>
		<g>
			<path style="fill:#FFFFFF;" d="M149.745,288.645c-0.62-3.65-0.87-8.313-2.963-11.524c-1.2-1.842-3.558-2.859-5.107-4.392
				c-1.376-1.361-3.498,0.759-2.121,2.121c1.396,1.382,3.233,2.294,4.565,3.699c0.679,0.716,0.908,1.933,1.156,2.844
				c0.717,2.632,1.121,5.363,1.577,8.049C147.176,291.346,150.066,290.536,149.745,288.645L149.745,288.645z"/>
		</g>
	</g>
	<g>
		<g>
			<path style="fill:#FFFFFF;" d="M70.833,292.085c48.132,0,96.264,0,144.396,0c24.868,0,49.736,0,74.604,0c1.935,0,1.935-3,0-3
				c-48.132,0-96.264,0-144.396,0c-24.868,0-49.736,0-74.604,0C68.898,289.085,68.898,292.085,70.833,292.085L70.833,292.085z"/>
		</g>
	</g>
	<g>
		<g>
			<path style="fill:#FFFFFF;" d="M130.428,289.942c-0.017-4.345,0.182-9.18-1.354-13.331c-0.837-2.265-2.546-3.632-4.325-5.143
				c-1.465-1.244-3.598,0.867-2.121,2.121c1.359,1.154,2.734,2.146,3.537,3.783c1.756,3.583,1.249,8.734,1.263,12.569
				C127.436,291.877,130.436,291.877,130.428,289.942L130.428,289.942z"/>
		</g>
	</g>
	<g>
		<g>
			<path style="fill:#FFFFFF;" d="M133.617,289.942c-0.031-4.458-0.011-9.492-2.324-13.474c-1.503-2.587-4.371-3.81-6.847-5.234
				c-1.68-0.967-3.19,1.626-1.515,2.59c1.89,1.088,4.153,1.975,5.507,3.762c2.471,3.264,2.152,8.523,2.178,12.356
				C130.631,291.876,133.631,291.878,133.617,289.942L133.617,289.942z"/>
		</g>
	</g>
	<g>
		<g>
			<path style="fill:#FFFFFF;" d="M125.618,289.942c-0.022-3.117-0.074-6.536-1.508-9.386c-0.299-0.594-0.751-1.151-1.265-1.573
				c-0.223-0.184-0.458-0.354-0.695-0.519c-0.083-0.058,0.196,0.19,0.237,0.604c-0.19-1.906-3.192-1.925-3,0
				c0.124,1.241,1.126,1.808,1.668,2.333c1.875,1.82,1.546,6.204,1.563,8.541C122.631,291.876,125.631,291.878,125.618,289.942
				L125.618,289.942z"/>
		</g>
	</g>
	<g>
		<g>
			<path style="fill:#FFFFFF;" d="M127.811,289.544c-0.449-2.644-0.641-5.994-2.156-8.319c-0.886-1.358-2.566-2.088-3.708-3.217
				c-1.376-1.361-3.498,0.759-2.121,2.121c0.996,0.985,2.399,1.734,3.254,2.637c0.357,0.376,0.559,1.269,0.713,1.837
				c0.512,1.877,0.799,3.824,1.125,5.738C125.242,292.245,128.132,291.436,127.811,289.544L127.811,289.544z"/>
		</g>
	</g>
	<g>
		<g>
			<path style="fill:#FFFFFF;" d="M137.985,290.002c0.017-2.221-0.198-5.814,1.464-7.578c0.564-0.599,1.648-0.999,1.795-2.333
				c0.212-1.922-2.79-1.901-3,0c0.081-0.729,0.663-0.978-0.162-0.405c-0.598,0.415-1.047,0.91-1.46,1.508
				c-1.662,2.402-1.615,6.043-1.637,8.809C134.97,291.938,137.97,291.936,137.985,290.002L137.985,290.002z"/>
		</g>
	</g>
	<g>
		<g>
			<path style="fill:#FFFFFF;" d="M135.664,290.4c0.354-1.881,0.528-5.24,1.745-6.725c0.694-0.847,2.415-1.647,3.396-2.524
				c1.445-1.292-0.684-3.406-2.121-2.121c-1.077,0.962-2.586,1.537-3.504,2.656c-1.7,2.072-1.936,5.406-2.408,7.917
				C132.416,291.494,135.307,292.301,135.664,290.4L135.664,290.4z"/>
		</g>
	</g>
	<g>
		<g>
			<circle style="fill:#FFFFFF;" cx="219.838" cy="229.505" r="54"/>
			<g>
				<path style="fill:#FFFFFF;" d="M268.838,229.505c-0.29,22.925-15.896,42.369-38.134,47.796
					c-22.396,5.465-45.2-6.737-55.224-26.908c-10.127-20.38-3.236-46.189,14.572-59.843c18.164-13.926,44.188-13.054,61.589,1.659
					C262.625,201.496,268.657,215.225,268.838,229.505c0.082,6.443,10.082,6.451,10,0c-0.284-22.463-12.886-42.965-33.065-52.992
					c-20.204-10.041-45.289-7.136-62.809,6.975c-17.769,14.31-25.391,37.374-20.564,59.542
					c4.713,21.649,22.661,38.729,43.914,43.914c36.785,8.977,72.055-20.308,72.524-57.438
					C278.92,223.054,268.92,223.062,268.838,229.505z"/>
			</g>
		</g>
		<g>
			<g>
				<path style="fill:#FFFFFF;" d="M200.9,288.547c12.625,0,25.25,0,37.875,0c4.514,0,4.514-7,0-7c-12.625,0-25.25,0-37.875,0
					C196.387,281.547,196.387,288.547,200.9,288.547L200.9,288.547z"/>
			</g>
		</g>
	</g>
</g>
<g id="Ebene_1">
</g>
</svg>
