<?xml version="1.0" encoding="iso-8859-1"?>
<!-- Generator: Adobe Illustrator 16.0.0, SVG Export Plug-In . SVG Version: 6.00 Build 0)  -->
<!DOCTYPE svg PUBLIC "-//W3C//DTD SVG 1.1//EN" "http://www.w3.org/Graphics/SVG/1.1/DTD/svg11.dtd">
<svg version="1.1" xmlns="http://www.w3.org/2000/svg" xmlns:xlink="http://www.w3.org/1999/xlink" x="0px" y="0px" width="361px"
	 height="361px" viewBox="0 0 361 361" style="enable-background:new 0 0 361 361;" xml:space="preserve">
<g id="light_x5F_indoor_x5F_og_x5F_1">
	<g>
		<g>
			<g>
				<path style="fill:#FFFFFF;" d="M83.84,162.833c8.917,1.522,17.833,3.045,26.749,4.567c4.414,0.754,6.304-5.991,1.861-6.75
					c-8.917-1.522-17.833-3.045-26.749-4.567C81.287,155.329,79.397,162.074,83.84,162.833L83.84,162.833z"/>
			</g>
		</g>
		<g>
			<g>
				<path style="fill:#FFFFFF;" d="M84.114,172.449c8.917,1.522,17.833,3.045,26.749,4.567c4.414,0.753,6.304-5.991,1.861-6.75
					c-8.917-1.522-17.833-3.045-26.749-4.567C81.562,164.945,79.671,171.69,84.114,172.449L84.114,172.449z"/>
			</g>
		</g>
		<g>
			<g>
				<path style="fill:#FFFFFF;" d="M84.114,181.79c8.917,1.522,17.833,3.045,26.749,4.567c4.414,0.754,6.304-5.991,1.861-6.75
					c-8.917-1.522-17.833-3.045-26.749-4.567C81.562,174.286,79.671,181.031,84.114,181.79L84.114,181.79z"/>
			</g>
		</g>
		<g>
			<g>
				<path style="fill:#FFFFFF;" d="M89.808,191.762c5.004,0.854,10.008,1.708,15.012,2.563c4.414,0.754,6.304-5.991,1.861-6.75
					c-5.004-0.854-10.008-1.708-15.012-2.563C87.255,184.258,85.365,191.003,89.808,191.762L89.808,191.762z"/>
			</g>
		</g>
		<path style="fill:none;stroke:#FFFFFF;stroke-width:10;stroke-miterlimit:10;" d="M120.784,136.894
			c0,7.544-6.116,13.66-13.66,13.66H88.91c-7.544,0-13.66-6.116-13.66-13.66V88.324c0-7.544,6.116-13.66,13.66-13.66h18.213
			c7.544,0,13.66,6.116,13.66,13.66V136.894z"/>
	</g>
	<g>
		<g>
			<g>
				<polygon style="fill:#FFFFFF;" points="208.512,190.181 208.33,130.034 287.635,190.181 				"/>
				<g>
					<path style="fill:#FFFFFF;" d="M213.512,190.181c-0.061-20.049-0.121-40.098-0.182-60.146
						c-2.508,1.439-5.016,2.878-7.523,4.317c26.435,20.049,52.869,40.098,79.305,60.146c0.841-3.105,1.683-6.212,2.523-9.317
						c-26.374,0-52.749,0-79.123,0c-6.448,0-6.448,10,0,10c26.374,0,52.749,0,79.123,0c5.402,0,6.252-6.489,2.523-9.317
						c-26.435-20.049-52.869-40.098-79.305-60.146c-3.125-2.371-7.534,0.868-7.523,4.317c0.061,20.049,0.121,40.098,0.182,60.146
						C203.531,196.628,213.531,196.63,213.512,190.181z"/>
				</g>
			</g>
			<g>
				<polygon style="fill:#FFFFFF;" points="208.148,190.181 208.33,130.035 129.025,190.181 				"/>
				<g>
					<path style="fill:#FFFFFF;" d="M213.148,190.181c0.061-20.049,0.121-40.097,0.182-60.146c0.011-3.45-4.397-6.688-7.523-4.317
						c-26.435,20.049-52.87,40.097-79.305,60.146c-3.729,2.828-2.879,9.317,2.523,9.317c26.375,0,52.749,0,79.124,0
						c6.448,0,6.448-10,0-10c-26.375,0-52.749,0-79.124,0c0.841,3.105,1.683,6.212,2.523,9.317
						c26.435-20.049,52.871-40.097,79.305-60.146c-2.508-1.439-5.016-2.878-7.523-4.317c-0.061,20.049-0.121,40.097-0.182,60.146
						C203.129,196.63,213.129,196.628,213.148,190.181z"/>
				</g>
			</g>
		</g>
		<path style="fill:none;stroke:#FFFFFF;stroke-width:10;stroke-miterlimit:10;" d="M273.674,281.814c0,2.91-2.916,5.27-6.513,5.27
			H149.993c-3.597,0-6.512-2.359-6.512-5.27v-96.072c0-2.908,130.193-2.908,130.193,0V281.814z"/>
	</g>
	<path style="fill:#FFFFFF;" d="M166.109,248.862v-20.76c-1.12,0.8-2.4,1.511-3.84,2.13c-1.44,0.621-2.661,1.109-3.66,1.471
		l-2.4-6.121c0.96-0.359,2-0.818,3.12-1.379c1.119-0.561,2.24-1.18,3.36-1.861c1.12-0.68,2.18-1.398,3.18-2.159
		c1-0.76,1.86-1.54,2.58-2.341h5.04v31.021h7.38v6.12h-22.56v-6.12H166.109z"/>
	<path style="fill:#FFFFFF;" d="M198.729,250.242c0,1.761-0.54,3.101-1.62,4.02c-1.08,0.92-2.32,1.381-3.72,1.381
		c-0.72,0-1.401-0.12-2.04-0.36c-0.641-0.239-1.211-0.589-1.71-1.05c-0.501-0.459-0.899-1.02-1.2-1.68
		c-0.3-0.66-0.449-1.43-0.449-2.311c0-0.84,0.149-1.59,0.449-2.25c0.301-0.66,0.699-1.209,1.2-1.65
		c0.499-0.439,1.069-0.779,1.71-1.02c0.639-0.24,1.32-0.359,2.04-0.359c1.399,0,2.64,0.46,3.72,1.379
		C198.189,247.264,198.729,248.563,198.729,250.242z"/>
	<path style="fill:#FFFFFF;" d="M204.949,236.383c0-6.4,1.18-11.23,3.541-14.49c2.359-3.26,5.639-4.891,9.84-4.891
		c4.359,0,7.68,1.631,9.959,4.891c2.281,3.26,3.42,8.09,3.42,14.49s-1.16,11.23-3.479,14.49c-2.32,3.26-5.601,4.889-9.84,4.889
		c-4.36,0-7.69-1.629-9.99-4.889S204.949,242.783,204.949,236.383z M212.449,236.383c0,1.8,0.07,3.49,0.211,5.07
		c0.139,1.58,0.42,2.949,0.84,4.109s1.01,2.08,1.77,2.76c0.76,0.681,1.779,1.02,3.061,1.02c1.238,0,2.25-0.339,3.029-1.02
		c0.78-0.68,1.381-1.609,1.801-2.79c0.42-1.179,0.699-2.55,0.84-4.11c0.139-1.56,0.209-3.239,0.209-5.039
		c0-1.801-0.07-3.49-0.209-5.07c-0.141-1.58-0.42-2.949-0.84-4.109s-1.012-2.08-1.771-2.761c-0.761-0.68-1.78-1.021-3.06-1.021
		c-1.281,0-2.301,0.341-3.061,1.021c-0.76,0.681-1.35,1.61-1.77,2.79s-0.701,2.55-0.84,4.109
		C212.52,232.902,212.449,234.582,212.449,236.383z"/>
	<path style="fill:#FFFFFF;" d="M252.05,223.422c-1.761,0-3.24,0.321-4.44,0.961c-1.199,0.641-2.189,1.529-2.97,2.67
		c-0.78,1.14-1.341,2.5-1.681,4.08s-0.51,3.33-0.51,5.25c0,4.439,0.699,7.709,2.101,9.81c1.399,2.101,3.459,3.149,6.18,3.149
		c0.44,0,0.92-0.02,1.44-0.06c0.52-0.039,0.999-0.099,1.439-0.18v-13.56h7.381v18.539c-0.881,0.32-2.25,0.682-4.111,1.08
		c-1.859,0.4-4.109,0.6-6.75,0.6c-2.32,0-4.409-0.41-6.27-1.229c-1.859-0.819-3.449-2.04-4.77-3.659
		c-1.32-1.621-2.34-3.641-3.061-6.061c-0.72-2.42-1.08-5.229-1.08-8.43c0-3.16,0.42-5.949,1.26-8.371
		c0.841-2.419,1.98-4.449,3.42-6.09c1.441-1.639,3.141-2.869,5.101-3.689c1.96-0.819,4.06-1.23,6.3-1.23
		c1.44,0,2.73,0.111,3.87,0.33c1.14,0.221,2.13,0.471,2.97,0.75c0.84,0.281,1.53,0.58,2.07,0.9s0.949,0.561,1.23,0.721l-1.92,5.879
		c-0.881-0.559-1.961-1.059-3.24-1.5C254.729,223.643,253.409,223.422,252.05,223.422z"/>
</g>
<g id="Ebene_1">
</g>
</svg>
