<?xml version="1.0" encoding="iso-8859-1"?>
<!-- Generator: Adobe Illustrator 16.0.0, SVG Export Plug-In . SVG Version: 6.00 Build 0)  -->
<!DOCTYPE svg PUBLIC "-//W3C//DTD SVG 1.1//EN" "http://www.w3.org/Graphics/SVG/1.1/DTD/svg11.dtd">
<svg version="1.1" xmlns="http://www.w3.org/2000/svg" xmlns:xlink="http://www.w3.org/1999/xlink" x="0px" y="0px" width="361px"
	 height="361px" viewBox="0 0 361 361" style="enable-background:new 0 0 361 361;" xml:space="preserve">
<g id="light_x5F_party">
	<g>
		<g>
			<path style="fill:#FFFFFF;" d="M83.84,163.013c8.917,1.522,17.833,3.045,26.749,4.567c4.414,0.754,6.304-5.991,1.861-6.75
				c-8.917-1.522-17.833-3.045-26.749-4.567C81.287,155.509,79.397,162.254,83.84,163.013L83.84,163.013z"/>
		</g>
	</g>
	<g>
		<g>
			<path style="fill:#FFFFFF;" d="M84.114,172.628c8.917,1.522,17.833,3.045,26.749,4.567c4.414,0.753,6.304-5.991,1.861-6.75
				c-8.917-1.522-17.833-3.045-26.749-4.567C81.562,165.125,79.671,171.87,84.114,172.628L84.114,172.628z"/>
		</g>
	</g>
	<g>
		<g>
			<path style="fill:#FFFFFF;" d="M84.114,181.97c8.917,1.522,17.833,3.045,26.749,4.567c4.414,0.754,6.304-5.991,1.861-6.75
				c-8.917-1.522-17.833-3.045-26.749-4.567C81.562,174.466,79.671,181.211,84.114,181.97L84.114,181.97z"/>
		</g>
	</g>
	<g>
		<g>
			<path style="fill:#FFFFFF;" d="M89.808,191.941c5.004,0.854,10.008,1.708,15.012,2.563c4.414,0.754,6.304-5.991,1.861-6.75
				c-5.004-0.854-10.008-1.708-15.012-2.563C87.255,184.438,85.365,191.183,89.808,191.941L89.808,191.941z"/>
		</g>
	</g>
	<path style="fill:none;stroke:#FFFFFF;stroke-width:10;stroke-miterlimit:10;" d="M120.784,137.073
		c0,7.544-6.116,13.66-13.66,13.66H88.91c-7.544,0-13.66-6.116-13.66-13.66V88.504c0-7.544,6.116-13.66,13.66-13.66h18.213
		c7.544,0,13.66,6.116,13.66,13.66V137.073z"/>
	<g>
		<g>
			<path style="fill:#FFFFFF;" d="M231.697,144.214c11.679-1.09,23.357-2.179,35.036-3.269c-1.439-0.826-2.878-1.651-4.317-2.477
				c6.697,9.658,13.395,19.316,20.092,28.974c2.28-2.28,4.561-4.561,6.841-6.841c-18.376-8.568-36.752-17.137-55.128-25.705
				c-5.806-2.707-10.888,5.912-5.047,8.635c18.376,8.568,36.752,17.137,55.128,25.705c4.102,1.913,9.975-2.321,6.841-6.841
				c-6.697-9.658-13.395-19.316-20.092-28.974c-0.951-1.372-2.511-2.645-4.317-2.477c-11.679,1.09-23.357,2.179-35.036,3.269
				C225.333,134.808,225.275,144.813,231.697,144.214z"/>
		</g>
	</g>
	<g>
		<g>
			<path style="fill:#FFFFFF;" d="M253.923,151.469c-3.442,6.865-6.886,13.73-10.328,20.595c-2.882,5.747,5.743,10.813,8.635,5.047
				c3.442-6.865,6.886-13.73,10.328-20.595C265.439,150.769,256.814,145.704,253.923,151.469L253.923,151.469z"/>
		</g>
	</g>
	<g>
		<g>
			<path style="fill:#FFFFFF;" d="M186.274,144.43c9.54,27.234,19.08,54.468,28.62,81.702c2.117,6.045,11.78,3.444,9.643-2.658
				c-9.54-27.234-19.08-54.468-28.62-81.702C193.8,135.727,184.137,138.327,186.274,144.43L186.274,144.43z"/>
		</g>
	</g>
	<g>
		<g>
			<path style="fill:#FFFFFF;" d="M263.627,132.059c-4.642,3.395-9.283,6.79-13.925,10.185c-2.195,1.605-3.278,4.307-1.794,6.841
				c1.271,2.17,4.637,3.406,6.841,1.794c4.642-3.395,9.283-6.79,13.925-10.185c2.195-1.605,3.278-4.307,1.794-6.841
				C269.196,131.682,265.831,130.446,263.627,132.059L263.627,132.059z"/>
		</g>
	</g>
	<g>
		<g>
			<path style="fill:#FFFFFF;" d="M273.148,155.762c-0.235-5.19-0.472-10.38-0.707-15.57c-0.292-6.421-10.293-6.45-10,0
				c0.235,5.19,0.472,10.38,0.707,15.57C263.44,162.183,273.441,162.211,273.148,155.762L273.148,155.762z"/>
		</g>
	</g>
	<g>
		<g>
			<path style="fill:#FFFFFF;" d="M221.899,233.765c-11.851-20.524-23.7-41.05-35.551-61.574c-1.439,2.508-2.878,5.016-4.317,7.523
				c23.7,0,47.401,0,71.102,0c-1.439-2.508-2.878-5.016-4.317-7.523c-11.851,20.524-23.7,41.05-35.551,61.574
				c-3.23,5.595,5.412,10.628,8.635,5.047c11.851-20.524,23.7-41.05,35.551-61.574c1.894-3.28-0.512-7.523-4.317-7.523
				c-23.7,0-47.401,0-71.102,0c-3.805,0-6.211,4.243-4.317,7.523c11.851,20.524,23.7,41.05,35.551,61.574
				C216.487,244.393,225.13,239.359,221.899,233.765z"/>
		</g>
	</g>
	<g>
		<g>
			<path style="fill:#FFFFFF;" d="M253.151,281.67c-23.7,0-47.4,0.001-71.101,0.001c0.443,3.273,0.886,6.548,1.329,9.821
				c5.87-1.124,11.741-2.248,17.611-3.372c3.912-0.75,7.824-1.499,11.736-2.248c1.418-0.271,2.835-0.543,4.253-0.814
				c2.063-0.395,2.145,0.287-1.001-0.304c11.947,2.246,23.896,4.491,35.843,6.737c6.302,1.185,8.991-8.452,2.658-9.643
				c-11.959-2.248-23.919-4.496-35.878-6.744c-2.259-0.425-4.881,0.426-7.104,0.852c-4.063,0.777-8.125,1.556-12.188,2.334
				c-6.196,1.187-12.393,2.373-18.589,3.56c-5.654,1.083-4.188,9.821,1.329,9.821c23.7,0,47.4-0.001,71.101-0.001
				C259.6,291.67,259.6,281.67,253.151,281.67z"/>
		</g>
	</g>
	<g>
		<g>
			<path style="fill:#FFFFFF;" d="M212.501,234.107c0,14.587,0,29.173,0,43.76c0,6.448,10,6.448,10,0c0-14.587,0-29.173,0-43.76
				C222.501,227.659,212.501,227.659,212.501,234.107L212.501,234.107z"/>
		</g>
	</g>
	<g>
		<g>
			<path style="fill:#FFFFFF;" d="M193.106,136.699c-11.75-9.029-23.5-18.059-35.25-27.088c-5.114-3.93-10.084,4.764-5.047,8.635
				c11.75,9.029,23.5,18.059,35.25,27.088C193.174,149.264,198.144,140.57,193.106,136.699L193.106,136.699z"/>
		</g>
	</g>
</g>
<g id="Ebene_1">
</g>
</svg>
