<?xml version="1.0" encoding="iso-8859-1"?>
<!-- Generator: Adobe Illustrator 16.0.0, SVG Export Plug-In . SVG Version: 6.00 Build 0)  -->
<!DOCTYPE svg PUBLIC "-//W3C//DTD SVG 1.1 Tiny//EN" "http://www.w3.org/Graphics/SVG/1.1/DTD/svg11-tiny.dtd">
<svg version="1.1" baseProfile="tiny" id="light_x5F_uplight"
	 xmlns="http://www.w3.org/2000/svg" xmlns:xlink="http://www.w3.org/1999/xlink" x="0px" y="0px" width="361px" height="361px"
	 viewBox="0 0 361 361" xml:space="preserve">
<g>
	<path fill="#FFFFFF" d="M81.572,165.391c8.917,1.522,17.833,3.045,26.749,4.567c4.414,0.754,6.304-5.991,1.861-6.75
		c-8.917-1.522-17.833-3.045-26.749-4.567C79.019,157.887,77.129,164.632,81.572,165.391L81.572,165.391z"/>
</g>
<g>
	<path fill="#FFFFFF" d="M81.846,175.006c8.917,1.522,17.833,3.045,26.749,4.567c4.414,0.753,6.304-5.991,1.861-6.75
		c-8.917-1.522-17.833-3.045-26.749-4.567C79.293,167.503,77.403,174.248,81.846,175.006L81.846,175.006z"/>
</g>
<g>
	<path fill="#FFFFFF" d="M81.846,184.348c8.917,1.522,17.833,3.045,26.749,4.567c4.414,0.754,6.304-5.991,1.861-6.75
		c-8.917-1.522-17.833-3.045-26.749-4.567C79.293,176.844,77.403,183.589,81.846,184.348L81.846,184.348z"/>
</g>
<g>
	<path fill="#FFFFFF" d="M87.54,194.319c5.004,0.854,10.008,1.709,15.012,2.563c4.414,0.754,6.304-5.991,1.861-6.75
		c-5.004-0.854-10.008-1.709-15.012-2.563C84.987,186.815,83.097,193.56,87.54,194.319L87.54,194.319z"/>
</g>
<path fill="none" stroke="#FFFFFF" stroke-width="10" stroke-miterlimit="10" d="M118.516,139.451c0,7.544-6.116,13.66-13.66,13.66
	H86.642c-7.544,0-13.66-6.116-13.66-13.66V90.882c0-7.544,6.116-13.66,13.66-13.66h18.213c7.544,0,13.66,6.116,13.66,13.66V139.451z
	"/>
<g>
	<g>
		<path fill="#FFFFFF" d="M269.152,198.39c-2.334,15.419-4.668,30.839-7.003,46.258c-0.668,4.415,6.076,6.313,6.75,1.861
			c2.334-15.419,4.668-30.839,7.003-46.258C276.57,195.837,269.826,193.939,269.152,198.39L269.152,198.39z"/>
	</g>
	<g>
		<path fill="#FFFFFF" d="M238.145,193.507c0,15.674,0,31.348,0,47.022c0,4.514,7,4.514,7,0c0-15.674,0-31.348,0-47.022
			C245.145,188.993,238.145,188.993,238.145,193.507L238.145,193.507z"/>
	</g>
	<g>
		<path fill="#FFFFFF" d="M207.383,200.252c2.337,15.419,4.675,30.838,7.012,46.257c0.675,4.451,7.419,2.553,6.75-1.861
			c-2.337-15.419-4.675-30.838-7.012-46.257C213.458,193.939,206.714,195.837,207.383,200.252L207.383,200.252z"/>
	</g>
</g>
<g>
	<g>
		<path fill="#FFFFFF" d="M212.761,270.507c19.114,0,38.227,0,57.341,0c4.514,0,4.514-7,0-7c-19.114,0-38.227,0-57.341,0
			C208.247,263.507,208.247,270.507,212.761,270.507L212.761,270.507z"/>
	</g>
	<g>
		<path fill="#FFFFFF" d="M262.157,268.363c0,2.961,1.741,12.356-3.05,12.356c-5.892,0-11.784,0-17.676,0
			c-5.774,0-11.549,0-17.324,0c-5.227,0-3.401-8.981-3.401-12.356c0-4.514-7-4.514-7,0c0,6.805-1.651,18.104,7.907,19.205
			c6.483,0.747,13.304,0.151,19.819,0.151c6.169,0,12.339,0,18.508,0c10.685,0,9.217-12.159,9.217-19.356
			C269.157,263.849,262.157,263.849,262.157,268.363L262.157,268.363z"/>
	</g>
</g>
<g>
	<path fill="#FFFFFF" d="M123.254,278.664c2.083,0,4.166,0,6.249,0c1.908,0,3.5-1.592,3.5-3.5s-1.592-3.5-3.5-3.5
		c-2.083,0-4.166,0-6.249,0c-1.908,0-3.5,1.592-3.5,3.5S121.347,278.664,123.254,278.664L123.254,278.664z"/>
</g>
<g>
	<path fill="#FFFFFF" d="M168.049,271.462c-3.876,0-7.752,0-11.628,0c-4.514,0-4.514,7,0,7c3.876,0,7.752,0,11.628,0
		C172.563,278.462,172.563,271.462,168.049,271.462L168.049,271.462z"/>
</g>
<g>
	<path fill="#FFFFFF" d="M279.873,284.664c1.531,0,3.063,0,4.594,0c1.908,0,3.5-1.592,3.5-3.5s-1.592-3.5-3.5-3.5
		c-1.531,0-3.063,0-4.594,0c-1.908,0-3.5,1.592-3.5,3.5S277.965,284.664,279.873,284.664L279.873,284.664z"/>
</g>
<g>
	<path fill="#FFFFFF" d="M253.148,294.664c5.333,0,10.667,0,16,0c4.514,0,4.514-7,0-7c-5.333,0-10.667,0-16,0
		C248.634,287.664,248.634,294.664,253.148,294.664L253.148,294.664z"/>
</g>
<g>
	<path fill="#FFFFFF" d="M272.732,291.664c2,0,4,0,6,0c1.908,0,3.5-1.592,3.5-3.5c0-1.908-1.592-3.5-3.5-3.5c-2,0-4,0-6,0
		c-1.908,0-3.5,1.592-3.5,3.5C269.232,290.072,270.825,291.664,272.732,291.664L272.732,291.664z"/>
</g>
<g>
	<path fill="#FFFFFF" d="M283.066,294.664c0.667,0,1.333,0,2,0c1.908,0,3.5-1.592,3.5-3.5s-1.592-3.5-3.5-3.5c-0.667,0-1.333,0-2,0
		c-1.908,0-3.5,1.592-3.5,3.5S281.158,294.664,283.066,294.664L283.066,294.664z"/>
</g>
<g>
	<path fill="#FFFFFF" d="M284.315,272.831c-0.222,0-0.444,0-0.666,0c-1.908,0-3.5,1.592-3.5,3.5s1.592,3.5,3.5,3.5
		c0.222,0,0.444,0,0.666,0c1.908,0,3.5-1.592,3.5-3.5S286.223,272.831,284.315,272.831L284.315,272.831z"/>
</g>
<g>
	<path fill="#FFFFFF" d="M70.231,285.768c2.337,0,4.673,0,7.01,0c4.514,0,4.514-7,0-7c-2.337,0-4.673,0-7.01,0
		C65.717,278.768,65.717,285.768,70.231,285.768L70.231,285.768z"/>
</g>
<g>
	<path fill="#FFFFFF" d="M96.752,282.768c2.581,0,5.161,0,7.741,0c4.514,0,4.514-7,0-7c-2.581,0-5.161,0-7.741,0
		C92.238,275.768,92.238,282.768,96.752,282.768L96.752,282.768z"/>
</g>
<g>
	<path fill="#FFFFFF" d="M118.551,294.664c2,0,4,0,6,0c1.908,0,3.5-1.592,3.5-3.5s-1.592-3.5-3.5-3.5c-2,0-4,0-6,0
		c-1.908,0-3.5,1.592-3.5,3.5S116.643,294.664,118.551,294.664L118.551,294.664z"/>
</g>
<g>
	<path fill="#FFFFFF" d="M242.72,287.156c-3,0-6,0-9,0c-4.514,0-4.514,7,0,7c3,0,6,0,9,0
		C247.234,294.156,247.234,287.156,242.72,287.156L242.72,287.156z"/>
</g>
<g>
	<path fill="#FFFFFF" d="M73.282,279.831c0.694,0,1.389,0,2.083,0c1.908,0,3.5-1.592,3.5-3.5s-1.592-3.5-3.5-3.5
		c-0.694,0-1.389,0-2.083,0c-1.908,0-3.5,1.592-3.5,3.5S71.374,279.831,73.282,279.831L73.282,279.831z"/>
</g>
<g>
	<path fill="#FFFFFF" d="M90.066,279.156c-0.667,0-1.333,0-2,0c-1.908,0-3.5,1.592-3.5,3.5s1.592,3.5,3.5,3.5c0.667,0,1.333,0,2,0
		c1.908,0,3.5-1.592,3.5-3.5S91.974,279.156,90.066,279.156L90.066,279.156z"/>
</g>
<g>
	<path fill="#FFFFFF" d="M192.646,287.664c-2,0-4,0-6,0c-1.908,0-3.5,1.592-3.5,3.5s1.592,3.5,3.5,3.5c2,0,4,0,6,0
		c1.908,0,3.5-1.592,3.5-3.5S194.554,287.664,192.646,287.664L192.646,287.664z"/>
</g>
<g>
	<path fill="#FFFFFF" d="M202.398,294.699c5.333,0,10.667,0,16,0c4.514,0,4.514-7,0-7c-5.333,0-10.667,0-16,0
		C197.884,287.699,197.884,294.699,202.398,294.699L202.398,294.699z"/>
</g>
<g>
	<path fill="#FFFFFF" d="M211.691,290.914c0.667,0,1.333,0,2,0c1.908,0,3.5-1.593,3.5-3.5c0-1.908-1.592-3.5-3.5-3.5
		c-0.667,0-1.333,0-2,0c-1.908,0-3.5,1.592-3.5,3.5C208.191,289.321,209.783,290.914,211.691,290.914L211.691,290.914z"/>
</g>
<g>
	<path fill="#FFFFFF" d="M132.364,274.795c-3,0-6,0-9,0c-4.514,0-4.514,7,0,7c3,0,6,0,9,0
		C136.878,281.795,136.878,274.795,132.364,274.795L132.364,274.795z"/>
</g>
<g>
	<path fill="#FFFFFF" d="M148.884,274.664c-2,0-4,0-6,0c-1.908,0-3.5,1.592-3.5,3.5s1.592,3.5,3.5,3.5c2,0,4,0,6,0
		c1.908,0,3.5-1.592,3.5-3.5S150.792,274.664,148.884,274.664L148.884,274.664z"/>
</g>
<g>
	<path fill="#FFFFFF" d="M138.354,272.664c-0.694,0-1.388,0-2.083,0c-1.908,0-3.5,1.592-3.5,3.5s1.592,3.5,3.5,3.5
		c0.694,0,1.388,0,2.083,0c1.908,0,3.5-1.592,3.5-3.5S140.262,272.664,138.354,272.664L138.354,272.664z"/>
</g>
<g>
	<path fill="#FFFFFF" d="M141.384,294.664c2,0,4,0,6,0c1.908,0,3.5-1.592,3.5-3.5s-1.592-3.5-3.5-3.5c-2,0-4,0-6,0
		c-1.908,0-3.5,1.592-3.5,3.5S139.477,294.664,141.384,294.664L141.384,294.664z"/>
</g>
<g>
	<path fill="#FFFFFF" d="M82.301,294.497c5.083,0,10.167,0,15.25,0c4.514,0,4.514-7,0-7c-5.083,0-10.167,0-15.25,0
		C77.787,287.497,77.787,294.497,82.301,294.497L82.301,294.497z"/>
</g>
<g>
	<path fill="#FFFFFF" d="M174.733,279.462c3,0,6,0,9,0c4.514,0,4.514-7,0-7c-3,0-6,0-9,0
		C170.219,272.462,170.219,279.462,174.733,279.462L174.733,279.462z"/>
</g>
<g>
	<path fill="#FFFFFF" d="M156.066,294.699c5.333,0,10.667,0,16,0c4.514,0,4.514-7,0-7c-5.333,0-10.667,0-16,0
		C151.552,287.699,151.552,294.699,156.066,294.699L156.066,294.699z"/>
</g>
<g>
	<path fill="#FFFFFF" d="M151.384,286.664c2,0,4,0,6,0c1.908,0,3.5-1.592,3.5-3.5s-1.592-3.5-3.5-3.5c-2,0-4,0-6,0
		c-1.908,0-3.5,1.592-3.5,3.5S149.477,286.664,151.384,286.664L151.384,286.664z"/>
</g>
<g>
	<path fill="#FFFFFF" d="M169.733,290.462c0.667,0,1.333,0,2,0c1.908,0,3.5-1.593,3.5-3.5c0-1.908-1.592-3.5-3.5-3.5
		c-0.667,0-1.333,0-2,0c-1.908,0-3.5,1.592-3.5,3.5C166.233,288.869,167.826,290.462,169.733,290.462L169.733,290.462z"/>
</g>
<g>
	<path fill="#FFFFFF" d="M209.914,272.664c-4.064,0-8.128,0-12.192,0c-4.514,0-4.514,7,0,7c4.064,0,8.128,0,12.192,0
		C214.428,279.664,214.428,272.664,209.914,272.664L209.914,272.664z"/>
</g>
<g>
	<path fill="#FFFFFF" d="M188.483,281.462c-2,0-4,0-6,0c-1.908,0-3.5,1.592-3.5,3.5c0,1.907,1.592,3.5,3.5,3.5c2,0,4,0,6,0
		c1.908,0,3.5-1.593,3.5-3.5C191.983,283.054,190.391,281.462,188.483,281.462L188.483,281.462z"/>
</g>
<g>
	<path fill="#FFFFFF" d="M143.384,282.664c5.333,0,10.667,0,16,0c4.514,0,4.514-7,0-7c-5.333,0-10.667,0-16,0
		C138.87,275.664,138.87,282.664,143.384,282.664L143.384,282.664z"/>
</g>
<g>
	<path fill="#FFFFFF" d="M114.494,278.081c-3,0-6,0-9,0c-4.514,0-4.514,7,0,7c3,0,6,0,9,0
		C119.008,285.081,119.008,278.081,114.494,278.081L114.494,278.081z"/>
</g>
<g>
	<path fill="#FFFFFF" d="M97.236,272.045c-2.083,0-4.166,0-6.249,0c-1.908,0-3.5,1.592-3.5,3.5s1.592,3.5,3.5,3.5
		c2.083,0,4.166,0,6.249,0c1.908,0,3.5-1.592,3.5-3.5S99.144,272.045,97.236,272.045L97.236,272.045z"/>
</g>
<g>
	<path fill="#FFFFFF" d="M83.742,283.914c-1.833,0-3.667,0-5.5,0c-1.908,0-3.5,1.592-3.5,3.5c0,1.907,1.592,3.5,3.5,3.5
		c1.833,0,3.667,0,5.5,0c1.908,0,3.5-1.593,3.5-3.5C87.242,285.506,85.65,283.914,83.742,283.914L83.742,283.914z"/>
</g>
<g>
	<path fill="#FFFFFF" d="M139.565,284.795c-0.667,0-1.333,0-2,0c-1.908,0-3.5,1.592-3.5,3.5c0,1.908,1.592,3.5,3.5,3.5
		c0.667,0,1.333,0,2,0c1.908,0,3.5-1.592,3.5-3.5C143.065,286.387,141.473,284.795,139.565,284.795L139.565,284.795z"/>
</g>
<g>
	<path fill="#FFFFFF" d="M143.315,274.601c-0.667,0-1.333,0-2,0c-1.908,0-3.5,1.592-3.5,3.5s1.592,3.5,3.5,3.5c0.667,0,1.333,0,2,0
		c1.908,0,3.5-1.592,3.5-3.5S145.223,274.601,143.315,274.601L143.315,274.601z"/>
</g>
<g>
	<path fill="#FFFFFF" d="M101.743,294.497c1.833,0,3.667,0,5.5,0c1.908,0,3.5-1.593,3.5-3.5s-1.592-3.5-3.5-3.5
		c-1.833,0-3.667,0-5.5,0c-1.908,0-3.5,1.593-3.5,3.5S99.835,294.497,101.743,294.497L101.743,294.497z"/>
</g>
<g>
	<path fill="#FFFFFF" d="M69.814,293.545c0.667,0,1.333,0,2,0c1.908,0,3.5-1.592,3.5-3.5s-1.592-3.5-3.5-3.5c-0.667,0-1.333,0-2,0
		c-1.908,0-3.5,1.592-3.5,3.5S67.906,293.545,69.814,293.545L69.814,293.545z"/>
</g>
<g>
	<path fill="#FFFFFF" d="M89.064,284.831c0.667,0,1.333,0,2,0c1.908,0,3.5-1.592,3.5-3.5s-1.592-3.5-3.5-3.5c-0.667,0-1.333,0-2,0
		c-1.908,0-3.5,1.592-3.5,3.5S87.157,284.831,89.064,284.831L89.064,284.831z"/>
</g>
<g>
	<path fill="#FFFFFF" d="M100.315,282.768c4.514,0,4.514-7,0-7S95.801,282.768,100.315,282.768L100.315,282.768z"/>
</g>
<g>
	<path fill="#FFFFFF" d="M203.981,278.768c-3.722,0-7.444,0-11.166,0c-4.514,0-4.514,7,0,7c3.722,0,7.444,0,11.166,0
		C208.496,285.768,208.496,278.768,203.981,278.768L203.981,278.768z"/>
</g>
<g>
	<path fill="#FFFFFF" d="M136.942,283.462c-3.722,0-7.444,0-11.166,0c-4.514,0-4.514,7,0,7c3.722,0,7.444,0,11.166,0
		C141.457,290.462,141.457,283.462,136.942,283.462L136.942,283.462z"/>
</g>
<g>
	<path fill="#FFFFFF" d="M67.814,273.521c47.21,0,94.421,0,141.631,0c0.839,0,1.677,0,2.516,0c1.935,0,1.935-3,0-3
		c-47.21,0-94.421,0-141.631,0c-0.839,0-1.677,0-2.516,0C65.879,270.521,65.879,273.521,67.814,273.521L67.814,273.521z"/>
</g>
<g>
	<path fill="#FFFFFF" d="M269.517,273.521c5.784,0,11.568,0,17.352,0c1.935,0,1.935-3,0-3c-5.784,0-11.568,0-17.352,0
		C267.582,270.521,267.582,273.521,269.517,273.521L269.517,273.521z"/>
</g>
<g>
	<path fill="#FFFFFF" d="M280.693,275.601c-3,0-6,0-9,0c-4.514,0-4.514,7,0,7c3,0,6,0,9,0
		C285.207,282.601,285.207,275.601,280.693,275.601L280.693,275.601z"/>
</g>
</svg>
