<?xml version="1.0" encoding="iso-8859-1"?>
<!-- Generator: Adobe Illustrator 16.0.0, SVG Export Plug-In . SVG Version: 6.00 Build 0)  -->
<!DOCTYPE svg PUBLIC "-//W3C//DTD SVG 1.1//EN" "http://www.w3.org/Graphics/SVG/1.1/DTD/svg11.dtd">
<svg version="1.1" xmlns="http://www.w3.org/2000/svg" xmlns:xlink="http://www.w3.org/1999/xlink" x="0px" y="0px" width="361px"
	 height="361px" viewBox="0 0 361 361" style="enable-background:new 0 0 361 361;" xml:space="preserve">
<g id="light_x5F_plant">
	<g>
		<g>
			<g>
				<path style="fill:#FFFFFF;" d="M84.09,163.513c8.917,1.522,17.833,3.045,26.749,4.567c4.414,0.754,6.304-5.991,1.861-6.75
					c-8.917-1.522-17.833-3.045-26.749-4.567C81.537,156.009,79.647,162.754,84.09,163.513L84.09,163.513z"/>
			</g>
		</g>
		<g>
			<g>
				<path style="fill:#FFFFFF;" d="M84.364,173.128c8.917,1.522,17.833,3.045,26.749,4.567c4.414,0.753,6.304-5.991,1.861-6.75
					c-8.917-1.522-17.833-3.045-26.749-4.567C81.812,165.625,79.921,172.37,84.364,173.128L84.364,173.128z"/>
			</g>
		</g>
		<g>
			<g>
				<path style="fill:#FFFFFF;" d="M84.364,182.47c8.917,1.522,17.833,3.045,26.749,4.567c4.414,0.754,6.304-5.991,1.861-6.75
					c-8.917-1.522-17.833-3.045-26.749-4.567C81.812,174.966,79.921,181.711,84.364,182.47L84.364,182.47z"/>
			</g>
		</g>
		<g>
			<g>
				<path style="fill:#FFFFFF;" d="M90.058,192.441c5.004,0.854,10.008,1.708,15.012,2.563c4.414,0.754,6.304-5.991,1.861-6.75
					c-5.004-0.854-10.008-1.708-15.012-2.563C87.505,184.938,85.615,191.683,90.058,192.441L90.058,192.441z"/>
			</g>
		</g>
		<path style="fill:none;stroke:#FFFFFF;stroke-width:10;stroke-miterlimit:10;" d="M121.034,137.573
			c0,7.544-6.116,13.66-13.66,13.66H89.16c-7.544,0-13.66-6.116-13.66-13.66V89.004c0-7.544,6.116-13.66,13.66-13.66h18.213
			c7.544,0,13.66,6.116,13.66,13.66V137.573z"/>
	</g>
	<g id="Gras">
		<g>
			<g>
				<path style="fill:#FFFFFF;" d="M200.362,290.525c-0.023-10.17,0.575-21.824-3.268-31.49c-1.93-4.853-5.807-7.762-9.65-11.04
					c-1.463-1.248-3.596,0.864-2.121,2.121c3.611,3.081,7.298,5.742,9.112,10.306c3.641,9.155,2.904,20.479,2.927,30.104
					C197.367,292.46,200.367,292.46,200.362,290.525L200.362,290.525z"/>
			</g>
		</g>
		<g>
			<g>
				<path style="fill:#FFFFFF;" d="M207.955,290.525c-0.042-10.173,0.157-22.225-5.374-31.238c-3.49-5.688-9.904-8.324-15.44-11.526
					c-1.678-0.971-3.188,1.622-1.514,2.59c4.923,2.849,10.562,5.123,13.986,9.883c5.889,8.186,5.303,20.782,5.342,30.292
					C204.963,292.46,207.963,292.46,207.955,290.525L207.955,290.525z"/>
			</g>
		</g>
		<g>
			<g>
				<path style="fill:#FFFFFF;" d="M187.458,290.525c-0.053-8.972-0.021-19.793-4.991-27.704c-0.975-1.552-2.273-2.817-3.752-3.88
					c-0.439-0.315-2.111-0.993-2.168-1.598c-0.18-1.909-3.182-1.927-3,0c0.267,2.838,3.278,3.63,5.065,5.407
					c6.461,6.426,5.798,19.599,5.846,27.774C184.47,292.459,187.47,292.461,187.458,290.525L187.458,290.525z"/>
			</g>
		</g>
		<g>
			<g>
				<path style="fill:#FFFFFF;" d="M194.997,290.127c-1.431-7.634-2.04-18.403-7.068-24.835c-2.973-3.803-8.238-5.787-11.821-9.009
					c-1.434-1.29-3.563,0.825-2.121,2.121c3.443,3.097,8.138,5.022,11.276,8.345c1.73,1.831,2.44,4.607,3.126,6.949
					c1.647,5.628,2.637,11.472,3.716,17.226C192.461,292.824,195.352,292.018,194.997,290.127L194.997,290.127z"/>
			</g>
		</g>
		<g>
			<g>
				<path style="fill:#FFFFFF;" d="M213.596,290.667c0.046-5.955-0.378-14.77,4.093-19.514c1.385-1.47,3.415-1.8,3.669-4.09
					c0.213-1.921-2.789-1.9-3,0c0.013-0.11-3.593,2.868-4.147,3.67c-3.746,5.416-3.565,13.716-3.614,19.934
					C210.581,292.603,213.581,292.601,213.596,290.667L213.596,290.667z"/>
			</g>
		</g>
		<g>
			<g>
				<path style="fill:#FFFFFF;" d="M208.141,291.065c0.94-5,1.277-12.771,4.689-16.931c2.008-2.449,5.695-3.872,8.088-6.011
					c1.445-1.292-0.684-3.406-2.121-2.121c-2.549,2.277-6.179,3.681-8.347,6.325c-3.742,4.563-4.171,12.454-5.202,17.94
					C204.893,292.158,207.783,292.966,208.141,291.065L208.141,291.065z"/>
			</g>
		</g>
		<g>
			<g>
				<path style="fill:#FFFFFF;" d="M274.051,290.667c0.048-9.742-0.126-21.342,5.427-29.844c2.745-4.203,7.565-6.453,11.313-9.608
					c1.482-1.247-0.651-3.358-2.121-2.121c-4.248,3.576-9.03,6.002-12.15,10.778c-5.628,8.616-5.42,20.985-5.469,30.795
					C271.041,292.602,274.041,292.602,274.051,290.667L274.051,290.667z"/>
			</g>
		</g>
		<g>
			<g>
				<path style="fill:#FFFFFF;" d="M266.459,290.667c0.065-9.873,0.352-21.82,7.521-29.497c4.379-4.688,11.067-6.602,16.507-9.721
					c1.678-0.962,0.167-3.554-1.514-2.59c-5.998,3.438-12.788,5.558-17.62,10.73c-7.459,7.986-7.826,20.855-7.895,31.077
					C263.446,292.603,266.446,292.601,266.459,290.667L266.459,290.667z"/>
			</g>
		</g>
		<g>
			<g>
				<path style="fill:#FFFFFF;" d="M283.998,290.351c0.043-5.978-0.479-14.893,3.784-19.817c1.292-1.492,3.223-1.916,3.448-4.134
					c0.195-1.924-2.807-1.905-3,0c-0.036,0.352-3.382,2.997-3.851,3.734c-3.566,5.616-3.337,13.895-3.382,20.217
					C280.984,292.286,283.984,292.284,283.998,290.351L283.998,290.351z"/>
			</g>
		</g>
		<g>
			<g>
				<path style="fill:#FFFFFF;" d="M278.912,290.749c0.922-5.341,1.235-12.494,4.337-17.175c1.621-2.447,5.418-4.047,7.542-6.114
					c1.389-1.351-0.734-3.471-2.121-2.121c-2.351,2.287-5.799,3.783-7.771,6.401c-3.599,4.779-3.911,12.6-4.88,18.212
					C275.693,291.844,278.584,292.653,278.912,290.749L278.912,290.749z"/>
			</g>
		</g>
		<g>
			<g>
				<path style="fill:#FFFFFF;" d="M258.771,290.49c-0.028-7.675,1.654-20.66-5.583-25.713c-1.591-1.11-3.088,1.491-1.514,2.59
					c1.162,0.812,1.732,1.005,2.289,2.515c2.315,6.281,1.783,14.061,1.808,20.608C255.778,292.425,258.778,292.425,258.771,290.49
					L258.771,290.49z"/>
			</g>
		</g>
		<g>
			<g>
				<path style="fill:#FFFFFF;" d="M266.405,290.092c-0.995-5.754-1.389-13.189-4.735-18.232c-1.903-2.868-5.729-4.469-8.178-6.848
					c-1.388-1.349-3.511,0.771-2.121,2.121c2.28,2.216,5.266,3.666,7.442,5.921c1.23,1.273,1.672,3.308,2.128,4.949
					c1.168,4.212,1.827,8.586,2.571,12.886C263.842,292.793,266.732,291.983,266.405,290.092L266.405,290.092z"/>
			</g>
		</g>
	</g>
	<g id="Busch">
		<path style="fill:#FFFFFF;" d="M291.833,183.344c0,2.648-2.046,4.794-4.571,4.794h-61.505c-2.525,0-4.571-2.146-4.571-4.794
			v-31.765c0-2.648,2.046-4.794,4.571-4.794h61.505c2.525,0,4.571,2.146,4.571,4.794V183.344z"/>
		<path style="fill:#FFFFFF;" d="M283.186,153.585c0,2.087-1.691,3.779-3.779,3.779h-47.078c-2.088,0-3.779-1.692-3.779-3.779
			V132.33c0-2.087,1.691-3.779,3.779-3.779h47.078c2.088,0,3.779,1.692,3.779,3.779V153.585z"/>
		<path style="fill:#FFFFFF;" d="M255.658,158.392c0,1.716-1.846,3.107-4.121,3.107h-39.322c-2.274,0-4.12-1.392-4.12-3.107v-37.683
			c0-1.715,1.846-3.107,4.12-3.107h39.322c2.275,0,4.121,1.392,4.121,3.107V158.392z"/>
		<path style="fill:#FFFFFF;" d="M270.696,149.741c0,3.708-3.007,6.714-6.714,6.714h-11.051c-3.707,0-6.713-3.006-6.713-6.714
			V128.06c0-3.708,3.006-6.714,6.713-6.714h11.051c3.707,0,6.714,3.006,6.714,6.714V149.741z"/>
		<path style="fill:#FFFFFF;" d="M231.391,186.459c0,3.708-3.006,6.715-6.713,6.715h-17.625c-3.708,0-6.714-3.007-6.714-6.715
			v-17.624c0-3.708,3.006-6.714,6.714-6.714h17.625c3.707,0,6.713,3.006,6.713,6.714V186.459z"/>
		<path style="fill:#FFFFFF;" d="M232.826,159.514c0,3.708-4.068,6.714-9.088,6.714h-15.524c-5.019,0-9.088-3.006-9.088-6.714
			v-25.458c0-3.708,4.069-6.714,9.088-6.714h15.524c5.02,0,9.088,3.006,9.088,6.714V159.514z"/>
		<path style="fill:#FFFFFF;" d="M208.729,203.066c0,3.708-3.006,6.715-6.714,6.715h-11.19c-3.707,0-6.714-3.007-6.714-6.715
			v-45.133c0-3.708,3.007-6.714,6.714-6.714h11.19c3.708,0,6.714,3.006,6.714,6.714V203.066z"/>
		<path style="fill:#FFFFFF;" d="M259.49,194.288c0,2.757-2.236,4.993-4.994,4.993h-58.535c-2.758,0-4.994-2.236-4.994-4.993v-6.659
			c0-2.757,2.236-4.992,4.994-4.992h58.535c2.758,0,4.994,2.235,4.994,4.992V194.288z"/>
		<path style="fill:#FFFFFF;" d="M227.895,206.741c0,2.936-2.38,5.315-5.315,5.315H209.15c-2.936,0-5.314-2.38-5.314-5.315l0,0
			c0-2.936,2.379-5.315,5.314-5.315h13.429C225.515,201.426,227.895,203.806,227.895,206.741L227.895,206.741z"/>
		<path style="fill:#FFFFFF;" d="M269.98,197.271c0,2.758-2.236,4.994-4.993,4.994h-58.536c-2.758,0-4.994-2.236-4.994-4.994v-6.658
			c0-2.758,2.236-4.993,4.994-4.993h58.536c2.757,0,4.993,2.235,4.993,4.993V197.271z"/>
		<path style="fill:#FFFFFF;" d="M285.811,208.636c0,1.609-1.731,2.915-3.867,2.915h-25.701c-2.135,0-3.865-1.306-3.865-2.915
			v-35.354c0-1.609,1.73-2.916,3.865-2.916h25.701c2.136,0,3.867,1.306,3.867,2.916V208.636z"/>
		<path style="fill:#FFFFFF;" d="M275.908,220.998c0,3.203-2.336,5.8-5.217,5.8h-48.295c-2.881,0-5.216-2.597-5.216-5.8v-7.734
			c0-3.203,2.335-5.8,5.216-5.8h48.295c2.881,0,5.217,2.597,5.217,5.8V220.998z"/>
		<g>
			<line style="fill:#FFFFFF;" x1="225.229" y1="200.571" x2="236.525" y2="247.621"/>
			<g>
				<path style="fill:#FFFFFF;" d="M220.407,201.9c3.766,15.684,7.531,31.366,11.297,47.05c1.505,6.269,11.147,3.609,9.643-2.658
					c-3.766-15.684-7.531-31.366-11.297-47.05C228.545,192.974,218.902,195.633,220.407,201.9L220.407,201.9z"/>
			</g>
		</g>
		<g>
			<line style="fill:#FFFFFF;" x1="237.564" y1="234.802" x2="254.871" y2="217.598"/>
			<g>
				<path style="fill:#FFFFFF;" d="M241.1,238.337c5.77-5.734,11.538-11.469,17.307-17.204c4.578-4.551-2.494-11.62-7.07-7.07
					c-5.77,5.734-11.538,11.469-17.307,17.204C229.451,235.817,236.523,242.887,241.1,238.337L241.1,238.337z"/>
			</g>
		</g>
		<g>
			<line style="fill:#FFFFFF;" x1="263.505" y1="213.922" x2="249.516" y2="259.216"/>
			<g>
				<path style="fill:#FFFFFF;" d="M258.684,212.593c-4.663,15.098-9.326,30.196-13.989,45.294c-1.908,6.179,7.746,8.8,9.643,2.658
					c4.663-15.098,9.326-30.196,13.989-45.294C270.234,209.072,260.58,206.451,258.684,212.593L258.684,212.593z"/>
			</g>
		</g>
		<g>
			<line style="fill:#FFFFFF;" x1="238.525" y1="286.564" x2="236.525" y2="249.621"/>
			<g>
				<path style="fill:#FFFFFF;" d="M243.525,286.564c-0.667-12.314-1.333-24.629-2-36.943c-0.348-6.413-10.349-6.446-10,0
					c0.667,12.314,1.333,24.629,2,36.943C233.873,292.978,243.874,293.011,243.525,286.564L243.525,286.564z"/>
			</g>
		</g>
		<g>
			<line style="fill:#FFFFFF;" x1="246.55" y1="286.564" x2="249.053" y2="258.096"/>
			<g>
				<path style="fill:#FFFFFF;" d="M251.55,286.564c0.834-9.489,1.669-18.979,2.503-28.469c0.565-6.427-9.439-6.372-10,0
					c-0.834,9.489-1.669,18.979-2.503,28.469C240.984,292.991,250.989,292.937,251.55,286.564L251.55,286.564z"/>
			</g>
		</g>
		<path style="fill:#FFFFFF;" d="M210.053,226.18c0,4.346-3.682,7.869-8.223,7.869h-21.585c-4.541,0-8.223-3.523-8.223-7.869
			v-20.654c0-4.346,3.682-7.869,8.223-7.869h21.585c4.541,0,8.223,3.523,8.223,7.869V226.18z"/>
		<path style="fill:#FFFFFF;" d="M183.911,223.865c0,3.307-2.681,5.986-5.987,5.986h-9.979c-3.306,0-5.987-2.68-5.987-5.986v-40.247
			c0-3.307,2.681-5.987,5.987-5.987h9.979c3.306,0,5.987,2.68,5.987,5.987V223.865z"/>
		<path style="fill:#FFFFFF;" d="M231.174,235.163c0,2.757-1.931,4.993-4.311,4.993h-50.531c-2.381,0-4.311-2.236-4.311-4.993
			v-6.659c0-2.757,1.93-4.992,4.311-4.992h50.531c2.38,0,4.311,2.235,4.311,4.992V235.163z"/>
		<path style="fill:#FFFFFF;" d="M215.865,240.156c0,2.936-2.38,5.315-5.315,5.315h-13.429c-2.936,0-5.314-2.38-5.314-5.315l0,0
			c0-2.936,2.379-5.315,5.314-5.315h13.429C213.485,234.841,215.865,237.221,215.865,240.156L215.865,240.156z"/>
		<path style="fill:#FFFFFF;" d="M203.074,187.796c0,3.708-3.006,6.714-6.714,6.714h-17.625c-3.708,0-6.714-3.006-6.714-6.714
			v-17.625c0-3.708,3.006-6.714,6.714-6.714h17.625c3.708,0,6.714,3.006,6.714,6.714V187.796z"/>
		<g>
			<line style="fill:#FFFFFF;" x1="192.632" y1="211.575" x2="218.41" y2="253.367"/>
			<g>
				<path style="fill:#FFFFFF;" d="M188.314,214.099c8.593,13.931,17.186,27.861,25.778,41.792c3.378,5.477,12.03,0.458,8.635-5.047
					c-8.593-13.931-17.186-27.861-25.778-41.792C193.571,203.575,184.919,208.594,188.314,214.099L188.314,214.099z"/>
			</g>
		</g>
		<g>
			<line style="fill:#FFFFFF;" x1="223.586" y1="286.797" x2="218.41" y2="253.367"/>
			<g>
				<path style="fill:#FFFFFF;" d="M228.407,285.468c-1.726-11.144-3.45-22.286-5.176-33.43c-0.984-6.357-10.619-3.648-9.643,2.658
					c1.726,11.144,3.45,22.286,5.176,33.43C219.749,294.483,229.384,291.774,228.407,285.468L228.407,285.468z"/>
			</g>
		</g>
	</g>
	<g>
		<g>
			<path style="fill:#FFFFFF;" d="M164.107,290.566c-0.023-7.185,0.333-15.226-2.234-22.087c-1.349-3.607-4.16-5.766-6.993-8.175
				c-1.464-1.245-3.597,0.866-2.121,2.121c2.375,2.021,4.765,3.762,6.136,6.648c2.956,6.228,2.19,14.841,2.212,21.492
				C161.114,292.501,164.114,292.501,164.107,290.566L164.107,290.566z"/>
		</g>
	</g>
	<g>
		<g>
			<path style="fill:#FFFFFF;" d="M169.455,290.566c-0.042-7.27,0.051-15.66-3.792-22.137c-2.453-4.134-7.105-6.065-11.086-8.359
				c-1.679-0.968-3.189,1.625-1.514,2.59c3.37,1.942,7.248,3.508,9.634,6.721c4.196,5.65,3.718,14.574,3.757,21.186
				C166.466,292.5,169.466,292.502,169.455,290.566L169.455,290.566z"/>
		</g>
	</g>
	<g>
		<g>
			<path style="fill:#FFFFFF;" d="M157.716,290.566c-0.035-5.027-0.074-10.624-2.391-15.228c-0.466-0.926-1.163-1.776-1.961-2.434
				c-0.477-0.392-1.122-1.144-1.065-0.575c-0.19-1.906-3.192-1.925-3,0c0.169,1.693,1.411,2.137,2.5,3.195
				c3.438,3.337,2.888,10.811,2.917,15.041C154.729,292.5,157.729,292.502,157.716,290.566L157.716,290.566z"/>
		</g>
	</g>
	<g>
		<g>
			<path style="fill:#FFFFFF;" d="M161.432,290.168c-0.736-4.337-1.026-9.893-3.514-13.708c-1.415-2.171-4.233-3.384-6.06-5.19
				c-1.376-1.361-3.498,0.759-2.121,2.121c1.67,1.652,3.865,2.741,5.458,4.421c0.853,0.899,1.146,2.383,1.458,3.529
				c0.858,3.147,1.341,6.413,1.886,9.624C158.863,292.869,161.753,292.06,161.432,290.168L161.432,290.168z"/>
		</g>
	</g>
	<g>
		<g>
			<path style="fill:#FFFFFF;" d="M173.426,290.667c0.031-4.05-0.298-10.191,2.752-13.428c1.092-1.158,2.511-1.366,2.713-3.193
				c0.212-1.922-2.79-1.901-3,0c0.081-0.731-0.027-0.323-0.775,0.196c-0.848,0.588-1.5,1.319-2.084,2.164
				c-2.684,3.88-2.571,9.803-2.606,14.261C170.411,292.603,173.411,292.601,173.426,290.667L173.426,290.667z"/>
		</g>
	</g>
	<g>
		<g>
			<path style="fill:#FFFFFF;" d="M169.569,291.065c0.641-3.411,0.855-8.882,3.188-11.727c1.409-1.718,4.016-2.731,5.695-4.232
				c1.445-1.292-0.684-3.406-2.121-2.121c-1.798,1.606-4.347,2.587-5.877,4.454c-2.701,3.294-3.031,8.859-3.777,12.829
				C166.321,292.158,169.212,292.966,169.569,291.065L169.569,291.065z"/>
		</g>
	</g>
</g>
<g id="Ebene_1">
</g>
</svg>
