<?xml version="1.0" encoding="iso-8859-1"?>
<!-- Generator: Adobe Illustrator 16.0.0, SVG Export Plug-In . SVG Version: 6.00 Build 0)  -->
<!DOCTYPE svg PUBLIC "-//W3C//DTD SVG 1.1//EN" "http://www.w3.org/Graphics/SVG/1.1/DTD/svg11.dtd">
<svg version="1.1" xmlns="http://www.w3.org/2000/svg" xmlns:xlink="http://www.w3.org/1999/xlink" x="0px" y="0px" width="361px"
	 height="361px" viewBox="0 0 361 361" style="enable-background:new 0 0 361 361;" xml:space="preserve">
<g id="light_x5F_control">
	<g>
		<g>
			<path style="fill:#FFFFFF;" d="M162.583,255.31c10.315,1.762,20.629,3.522,30.944,5.284c4.414,0.754,6.304-5.991,1.861-6.75
				c-10.314-1.762-20.629-3.522-30.944-5.284C160.03,247.806,158.14,254.551,162.583,255.31L162.583,255.31z"/>
		</g>
	</g>
	<g>
		<g>
			<path style="fill:#FFFFFF;" d="M162.9,266.434c10.315,1.762,20.63,3.522,30.944,5.284c4.414,0.754,6.304-5.991,1.861-6.75
				c-10.315-1.762-20.63-3.522-30.944-5.284C160.348,258.93,158.458,265.675,162.9,266.434L162.9,266.434z"/>
		</g>
	</g>
	<g>
		<g>
			<path style="fill:#FFFFFF;" d="M162.9,277.24c10.315,1.761,20.63,3.522,30.944,5.283c4.414,0.754,6.304-5.991,1.861-6.75
				c-10.315-1.761-20.63-3.522-30.944-5.283C160.348,269.736,158.458,276.481,162.9,277.24L162.9,277.24z"/>
		</g>
	</g>
	<g>
		<g>
			<path style="fill:#FFFFFF;" d="M169.487,288.774c5.789,0.988,11.578,1.978,17.366,2.966c4.414,0.754,6.304-5.991,1.861-6.75
				c-5.789-0.988-11.577-1.978-17.366-2.966C166.934,281.271,165.044,288.016,169.487,288.774L169.487,288.774z"/>
		</g>
	</g>
	<path style="fill:none;stroke:#FFFFFF;stroke-width:10;stroke-miterlimit:10;" d="M205.174,225.832
		c0,8.729-7.074,15.803-15.802,15.803h-21.07c-8.728,0-15.802-7.074-15.802-15.803v-56.186c0-8.727,7.075-15.802,15.802-15.802
		h21.07c8.728,0,15.802,7.075,15.802,15.802V225.832z"/>
	<g>
		<g>
			<path style="fill:#FFFFFF;" d="M79.873,161.084c15.77-35.481,45.484-61.806,82.354-73.811
				c39.982-13.018,84.019-7.971,122.167,8.59c5.852,2.541,10.949-6.073,5.047-8.635c-40.863-17.74-86.938-23.159-129.873-9.598
				c-39.156,12.367-71.634,40.84-88.331,78.406C68.644,161.875,77.258,166.968,79.873,161.084L79.873,161.084z"/>
		</g>
	</g>
	<g>
		<g>
			<path style="fill:#FFFFFF;" d="M79.038,162.129c26.971-26.788,63.205-41.83,101.209-42.087
				c38.527-0.261,75.737,15.62,103.048,42.59c4.59,4.533,11.664-2.535,7.07-7.071c-29.012-28.651-67.952-45.045-108.745-45.515
				c-40.924-0.472-80.707,16.263-109.654,45.012C67.386,159.606,74.459,166.676,79.038,162.129L79.038,162.129z"/>
		</g>
	</g>
	<g>
		<g>
			<path style="fill:#FFFFFF;" d="M281.918,92.442c0,22.218,0,44.436,0,66.654c0,6.449,10,6.449,10,0c0-22.218,0-44.436,0-66.654
				C291.918,85.993,281.918,85.993,281.918,92.442L281.918,92.442z"/>
		</g>
	</g>
	<path style="fill:#FFFFFF;" d="M231.636,179.343c0.812-0.336,1.659-0.72,2.541-1.155c0.882-0.434,1.743-0.91,2.583-1.428
		c0.84-0.518,1.645-1.063,2.415-1.638c0.771-0.574,1.463-1.183,2.079-1.827h4.367V202.4h-6.258v-20.957
		c-0.84,0.561-1.777,1.07-2.813,1.533c-1.036,0.461-2.044,0.86-3.024,1.196L231.636,179.343z"/>
	<path style="fill:#FFFFFF;" d="M268.979,187.785c0,4.9-0.932,8.659-2.794,11.277c-1.861,2.617-4.43,3.926-7.706,3.926
		s-5.845-1.309-7.707-3.926c-1.862-2.618-2.793-6.377-2.793-11.277c0-2.436,0.245-4.592,0.735-6.469
		c0.488-1.875,1.196-3.458,2.121-4.746c0.924-1.288,2.029-2.268,3.317-2.94s2.729-1.008,4.326-1.008
		c3.276,0,5.845,1.309,7.706,3.927C268.048,179.168,268.979,182.913,268.979,187.785z M262.596,187.785
		c0-1.456-0.07-2.779-0.211-3.969c-0.141-1.19-0.363-2.219-0.672-3.087c-0.309-0.868-0.729-1.54-1.26-2.016
		c-0.532-0.476-1.19-0.714-1.974-0.714c-0.784,0-1.436,0.238-1.953,0.714c-0.519,0.477-0.938,1.148-1.261,2.016
		c-0.322,0.869-0.553,1.897-0.692,3.087c-0.141,1.189-0.21,2.513-0.21,3.969s0.069,2.786,0.21,3.99
		c0.14,1.203,0.37,2.24,0.692,3.107c0.322,0.868,0.742,1.541,1.261,2.016c0.518,0.477,1.169,0.715,1.953,0.715
		c0.783,0,1.441-0.238,1.974-0.715c0.531-0.475,0.951-1.147,1.26-2.016c0.309-0.867,0.531-1.904,0.672-3.107
		C262.525,190.571,262.596,189.241,262.596,187.785z"/>
	<path style="fill:#FFFFFF;" d="M291.836,187.785c0,4.9-0.932,8.659-2.794,11.277c-1.862,2.617-4.431,3.926-7.706,3.926
		c-3.277,0-5.846-1.309-7.707-3.926c-1.863-2.618-2.793-6.377-2.793-11.277c0-2.436,0.244-4.592,0.734-6.469
		c0.489-1.875,1.197-3.458,2.121-4.746c0.924-1.288,2.029-2.268,3.318-2.94c1.287-0.672,2.729-1.008,4.326-1.008
		c3.275,0,5.844,1.309,7.706,3.927C290.904,179.168,291.836,182.913,291.836,187.785z M285.451,187.785
		c0-1.456-0.07-2.779-0.21-3.969c-0.141-1.19-0.364-2.219-0.672-3.087c-0.309-0.868-0.729-1.54-1.261-2.016
		c-0.531-0.476-1.189-0.714-1.973-0.714c-0.785,0-1.436,0.238-1.953,0.714c-0.52,0.477-0.939,1.148-1.261,2.016
		c-0.322,0.869-0.554,1.897-0.692,3.087c-0.141,1.189-0.211,2.513-0.211,3.969s0.07,2.786,0.211,3.99
		c0.139,1.203,0.37,2.24,0.692,3.107c0.321,0.868,0.741,1.541,1.261,2.016c0.518,0.477,1.168,0.715,1.953,0.715
		c0.783,0,1.441-0.238,1.973-0.715c0.532-0.475,0.952-1.147,1.261-2.016c0.308-0.867,0.531-1.904,0.672-3.107
		C285.381,190.571,285.451,189.241,285.451,187.785z"/>
	<path style="fill:#FFFFFF;" d="M91.004,186.99c0,4.9-0.932,8.66-2.793,11.277c-1.862,2.619-4.431,3.928-7.707,3.928
		c-3.276,0-5.845-1.309-7.707-3.928c-1.863-2.617-2.793-6.377-2.793-11.277c0-2.436,0.245-4.592,0.735-6.467
		c0.489-1.875,1.197-3.458,2.121-4.746c0.924-1.288,2.03-2.268,3.318-2.94c1.288-0.672,2.73-1.008,4.326-1.008
		c3.276,0,5.844,1.309,7.707,3.927C90.072,178.375,91.004,182.119,91.004,186.99z M84.62,186.99c0-1.455-0.07-2.777-0.21-3.969
		c-0.141-1.189-0.364-2.218-0.672-3.086c-0.309-0.868-0.729-1.54-1.26-2.016c-0.532-0.476-1.19-0.714-1.974-0.714
		c-0.785,0-1.436,0.238-1.953,0.714c-0.519,0.477-0.938,1.148-1.26,2.016c-0.322,0.868-0.553,1.897-0.693,3.086
		c-0.141,1.191-0.21,2.514-0.21,3.969c0,1.457,0.069,2.787,0.21,3.99c0.14,1.205,0.371,2.24,0.693,3.108
		c0.322,0.868,0.742,1.54,1.26,2.017c0.518,0.477,1.168,0.713,1.953,0.713c0.783,0,1.441-0.236,1.974-0.713
		c0.532-0.477,0.952-1.148,1.26-2.017c0.308-0.868,0.531-1.903,0.672-3.108C84.549,189.777,84.62,188.447,84.62,186.99z"/>
</g>
<g id="Ebene_1">
</g>
</svg>
