<?xml version="1.0" encoding="iso-8859-1"?>
<!-- Generator: Adobe Illustrator 16.0.0, SVG Export Plug-In . SVG Version: 6.00 Build 0)  -->
<!DOCTYPE svg PUBLIC "-//W3C//DTD SVG 1.1 Tiny//EN" "http://www.w3.org/Graphics/SVG/1.1/DTD/svg11-tiny.dtd">
<svg version="1.1" baseProfile="tiny" id="light_x5F_office"
	 xmlns="http://www.w3.org/2000/svg" xmlns:xlink="http://www.w3.org/1999/xlink" x="0px" y="0px" width="361px" height="361px"
	 viewBox="0 0 361 361" xml:space="preserve">
<g id="Stuhl_1_">
	<g>
		<path fill="#FFFFFF" d="M223.922,234.799c17.579,0,35.157,0,52.735,0c6.449,0,6.449-10,0-10c-17.579,0-35.157,0-52.735,0
			C217.474,224.799,217.474,234.799,223.922,234.799L223.922,234.799z"/>
	</g>
	<g>
		<path fill="#FFFFFF" d="M246.445,229.799c0,13.902,0,27.804,0,41.706c0,6.449,10,6.449,10,0c0-13.902,0-27.804,0-41.706
			C256.445,223.35,246.445,223.35,246.445,229.799L246.445,229.799z"/>
	</g>
	<g>
		<path fill="#FFFFFF" d="M251.618,268.903c-10.236,3.67-20.473,7.34-30.71,11.01c-4.216,1.512-2.399,8.277,1.861,6.75
			c10.236-3.67,20.473-7.34,30.71-11.01C257.695,274.142,255.878,267.376,251.618,268.903L251.618,268.903z"/>
	</g>
	<g>
		<path fill="#FFFFFF" d="M250.514,275.653c10.237,3.67,20.474,7.34,30.71,11.01c4.26,1.527,6.078-5.238,1.861-6.75
			c-10.237-3.67-20.474-7.34-30.71-11.01C248.115,267.376,246.298,274.142,250.514,275.653L250.514,275.653z"/>
	</g>
	<g>
		<path fill="#FFFFFF" d="M275.542,147.475c-2.044,16.071-4.088,32.142-6.133,48.213c-0.812,6.385,9.198,6.307,10,0
			c2.044-16.071,4.088-32.142,6.133-48.213C286.354,141.09,276.344,141.168,275.542,147.475L275.542,147.475z"/>
	</g>
	<g>
		<path fill="#FFFFFF" d="M269.409,197.405c0.75,6.612,1.499,13.225,2.249,19.837c0.718,6.332,10.726,6.402,10,0
			c-0.75-6.612-1.499-13.225-2.249-19.837C278.691,191.073,268.684,191.003,269.409,197.405L269.409,197.405z"/>
	</g>
	<g>
		<path fill="#FFFFFF" d="M276.001,119.698c1.075,5.025,2.151,10.05,3.227,15.075c1.349,6.305,10.989,3.63,9.643-2.658
			c-1.075-5.025-2.151-10.05-3.227-15.075C284.294,110.735,274.655,113.41,276.001,119.698L276.001,119.698z"/>
	</g>
	<g>
		<path fill="#FFFFFF" d="M233.785,207.8c10.613,0,21.226,0,31.839,0c4.514,0,4.514-7,0-7c-10.613,0-21.226,0-31.839,0
			C229.271,200.8,229.271,207.8,233.785,207.8L233.785,207.8z"/>
	</g>
	<g>
		<path fill="#FFFFFF" d="M254.933,204.882c0.213,8.24,0.426,16.48,0.639,24.72c0.05,1.931,3.05,1.936,3,0
			c-0.213-8.24-0.426-16.48-0.639-24.72C257.883,202.952,254.883,202.947,254.933,204.882L254.933,204.882z"/>
	</g>
	<g>
		<path fill="#FFFFFF" d="M221.936,287.545c-0.57,0-1.139,0-1.709,0c-1.908,0-3.5,1.592-3.5,3.5s1.592,3.5,3.5,3.5
			c0.57,0,1.139,0,1.709,0c1.908,0,3.5-1.592,3.5-3.5S223.843,287.545,221.936,287.545L221.936,287.545z"/>
	</g>
	<g>
		<path fill="#FFFFFF" d="M283.009,287.545c-0.57,0-1.139,0-1.709,0c-1.908,0-3.5,1.592-3.5,3.5s1.592,3.5,3.5,3.5
			c0.57,0,1.139,0,1.709,0c1.908,0,3.5-1.592,3.5-3.5S284.917,287.545,283.009,287.545L283.009,287.545z"/>
	</g>
</g>
<g>
	<g>
		<path fill="#FFFFFF" d="M123.475,210.788c28.502,0,57.004,0,85.506,0c6.449,0,6.449-10,0-10c-28.502,0-57.004,0-85.506,0
			C117.026,200.788,117.026,210.788,123.475,210.788L123.475,210.788z"/>
	</g>
	<g>
		<path fill="#FFFFFF" d="M145.985,208.388c0,26.377,0,52.753,0,79.13c0,6.449,10,6.449,10,0c0-26.377,0-52.753,0-79.13
			C155.985,201.939,145.985,201.939,145.985,208.388L145.985,208.388z"/>
	</g>
	<g>
		<path fill="#FFFFFF" d="M123.327,208.388c0,26.377,0,52.753,0,79.13c0,6.449,10,6.449,10,0c0-26.377,0-52.753,0-79.13
			C133.327,201.939,123.327,201.939,123.327,208.388L123.327,208.388z"/>
	</g>
	<g>
		<path fill="#FFFFFF" d="M123.475,294.712c18.522,0,37.044,0,55.566,0c6.449,0,6.449-10,0-10c-18.522,0-37.044,0-55.566,0
			C117.026,284.712,117.026,294.712,123.475,294.712L123.475,294.712z"/>
	</g>
</g>
<g>
	<g>
		<path fill="#FFFFFF" d="M81.572,165.391c8.917,1.522,17.833,3.045,26.749,4.567c4.414,0.754,6.304-5.991,1.861-6.75
			c-8.917-1.522-17.833-3.045-26.749-4.567C79.019,157.887,77.129,164.632,81.572,165.391L81.572,165.391z"/>
	</g>
	<g>
		<path fill="#FFFFFF" d="M81.846,175.006c8.917,1.522,17.833,3.045,26.749,4.567c4.414,0.753,6.304-5.991,1.861-6.75
			c-8.917-1.522-17.833-3.045-26.749-4.567C79.293,167.503,77.403,174.248,81.846,175.006L81.846,175.006z"/>
	</g>
	<g>
		<path fill="#FFFFFF" d="M81.846,184.348c8.917,1.522,17.833,3.045,26.749,4.567c4.414,0.754,6.304-5.991,1.861-6.75
			c-8.917-1.522-17.833-3.045-26.749-4.567C79.293,176.844,77.403,183.589,81.846,184.348L81.846,184.348z"/>
	</g>
	<g>
		<path fill="#FFFFFF" d="M87.54,194.319c5.004,0.854,10.008,1.709,15.012,2.563c4.414,0.754,6.304-5.991,1.861-6.75
			c-5.004-0.854-10.008-1.709-15.012-2.563C84.987,186.815,83.097,193.56,87.54,194.319L87.54,194.319z"/>
	</g>
	<path fill="none" stroke="#FFFFFF" stroke-width="10" stroke-miterlimit="10" d="M118.516,139.451c0,7.544-6.116,13.66-13.66,13.66
		H86.642c-7.544,0-13.66-6.116-13.66-13.66V90.882c0-7.544,6.116-13.66,13.66-13.66h18.213c7.544,0,13.66,6.116,13.66,13.66V139.451
		z"/>
</g>
</svg>
