<?xml version="1.0" encoding="iso-8859-1"?>
<!-- Generator: Adobe Illustrator 16.0.0, SVG Export Plug-In . SVG Version: 6.00 Build 0)  -->
<!DOCTYPE svg PUBLIC "-//W3C//DTD SVG 1.1//EN" "http://www.w3.org/Graphics/SVG/1.1/DTD/svg11.dtd">
<svg version="1.1" xmlns="http://www.w3.org/2000/svg" xmlns:xlink="http://www.w3.org/1999/xlink" x="0px" y="0px" width="361px"
	 height="361px" viewBox="0 0 361 361" style="enable-background:new 0 0 361 361;" xml:space="preserve">
<g id="light_x5F_painting">
	<g>
		<g>
			<path style="fill:#FFFFFF;" d="M84.09,162.513c8.917,1.522,17.833,3.045,26.749,4.567c4.414,0.754,6.304-5.991,1.861-6.75
				c-8.917-1.522-17.833-3.045-26.749-4.567C81.537,155.009,79.647,161.754,84.09,162.513L84.09,162.513z"/>
		</g>
	</g>
	<g>
		<g>
			<path style="fill:#FFFFFF;" d="M84.364,172.128c8.917,1.522,17.833,3.045,26.749,4.567c4.414,0.753,6.304-5.991,1.861-6.75
				c-8.917-1.522-17.833-3.045-26.749-4.567C81.812,164.625,79.921,171.37,84.364,172.128L84.364,172.128z"/>
		</g>
	</g>
	<g>
		<g>
			<path style="fill:#FFFFFF;" d="M84.364,181.47c8.917,1.522,17.833,3.045,26.749,4.567c4.414,0.754,6.304-5.991,1.861-6.75
				c-8.917-1.522-17.833-3.045-26.749-4.567C81.812,173.966,79.921,180.711,84.364,181.47L84.364,181.47z"/>
		</g>
	</g>
	<g>
		<g>
			<path style="fill:#FFFFFF;" d="M90.058,191.441c5.004,0.854,10.008,1.708,15.012,2.563c4.414,0.754,6.304-5.991,1.861-6.75
				c-5.004-0.854-10.008-1.708-15.012-2.563C87.505,183.938,85.615,190.683,90.058,191.441L90.058,191.441z"/>
		</g>
	</g>
	<path style="fill:none;stroke:#FFFFFF;stroke-width:10;stroke-miterlimit:10;" d="M121.034,136.573
		c0,7.544-6.116,13.66-13.66,13.66H89.16c-7.544,0-13.66-6.116-13.66-13.66V88.004c0-7.544,6.116-13.66,13.66-13.66h18.213
		c7.544,0,13.66,6.116,13.66,13.66V136.573z"/>
	<g>
		<g>
			<path style="fill:#FFFFFF;" d="M169.429,231.167c-5.582-0.59-4.145-7.524-4.145-10.874c0-6.278,0-12.557,0-18.835
				c0-15.944,0-31.889,0-47.834c0-5.535,0-11.069,0-16.604c0-3.04-0.791-7.853,4.554-7.853c9.38,0,18.76,0,28.14,0
				c27.773,0,55.547,0,83.32,0c2.894,0,6.938,0.363,6.938,4.543c0,4.031,0,8.061,0,12.092c0,15.416,0,30.832,0,46.248
				c0,11.449,0,22.898,0,34.348c0,7.387-15.869,4.77-19.865,4.77c-29.504,0-59.008,0-88.511,0
				C176.382,231.167,172.906,231.167,169.429,231.167c-1.935,0-1.935,3,0,3c23.735,0,47.47,0,71.206,0c12.77,0,25.538,0,38.308,0
				c2.682,0,5.452,0.265,8.029-0.58c4.125-1.352,4.264-5.506,4.264-9.042c0-27.579,0-55.158,0-82.737
				c0-6.774,1.316-15.641-8.263-15.641c-10.336,0-20.671,0-31.007,0c-26.979,0-53.96,0-80.94,0c-4.496,0-8.126,1.778-8.742,6.676
				c-0.314,2.504,0,5.251,0,7.768c0,14.517,0,29.034,0,43.551c0,11.454,0,22.909,0,34.364c0,6.354-1.509,14.727,7.145,15.641
				C171.352,234.37,171.333,231.368,169.429,231.167z"/>
		</g>
	</g>
	<g>
		<g>
			<path style="fill:#FFFFFF;" d="M176.068,187.147c8.729-6.228,17.459-12.457,26.188-18.685c1.561-1.113,0.064-3.717-1.514-2.591
				c-8.729,6.229-17.46,12.457-26.189,18.686C172.994,185.671,174.49,188.274,176.068,187.147L176.068,187.147z"/>
		</g>
	</g>
	<g>
		<g>
			<path style="fill:#FFFFFF;" d="M174.954,225.605c-5.186-0.636-3.601-8.48-3.601-11.629c0-6.782,0-13.564,0-20.347
				c0-15.29,0-30.579,0-45.869c0-3.434,0-6.867,0-10.3c0-4.301,6.939-3.294,9.202-3.294c13.414,0,26.827,0,40.24,0
				c15.051,0,30.102,0,45.152,0c3.875,0,7.75,0,11.625,0c4.545,0,4.596,3.702,4.596,6.813c0,26.455,0,52.91,0,79.365
				c0,7.106-8.944,5.26-13.622,5.26c-11.939,0-23.88,0-35.819,0C213.469,225.605,194.211,225.605,174.954,225.605
				c-1.935,0-1.935,3,0,3c24.381,0,48.762,0,73.143,0c10.008,0,20.015,0,30.021,0c9.642,0,7.049-13.236,7.049-19.456
				c0-15.582,0-31.164,0-46.746c0-6.319,0-12.639,0-18.958c0-3.105,0.428-6.354-0.901-9.229c-1.58-3.417-6.023-3.049-9.122-3.049
				c-5.021,0-10.043,0-15.064,0c-15.706,0-31.411,0-47.117,0c-11.885,0-23.77,0-35.655,0c-4.125,0-8.186,0.896-8.901,5.757
				c-0.392,2.659-0.054,5.579-0.054,8.255c0,25.676,0,51.352,0,77.027c0,3.937,3.046,5.964,6.601,6.399
				C176.871,228.841,176.848,225.838,174.954,225.605z"/>
		</g>
	</g>
	<g>
		<g>
			<path style="fill:#FFFFFF;" d="M200.439,168.228c5.944,6,11.889,12,17.833,18c1.363,1.376,3.483-0.746,2.121-2.121
				c-5.944-6-11.889-12-17.833-18C201.197,164.73,199.077,166.853,200.439,168.228L200.439,168.228z"/>
		</g>
	</g>
	<g>
		<g>
			<path style="fill:#FFFFFF;" d="M220.394,186.228c6-4.944,12-9.889,18-14.833c1.494-1.231-0.641-3.341-2.121-2.121
				c-6,4.944-12,9.889-18,14.833C216.778,185.338,218.913,187.447,220.394,186.228L220.394,186.228z"/>
		</g>
	</g>
	<g>
		<g>
			<path style="fill:#FFFFFF;" d="M236.038,171.091c4,7.167,8,14.333,12,21.5c0.942,1.689,3.534,0.177,2.59-1.514
				c-4-7.167-8-14.334-12-21.501C237.686,167.887,235.094,169.399,236.038,171.091L236.038,171.091z"/>
		</g>
	</g>
	<g>
		<g>
			<path style="fill:#FFFFFF;" d="M250.628,192.591c4.334-6.611,8.667-13.222,13-19.833c1.064-1.624-1.534-3.125-2.59-1.515
				c-4.334,6.611-8.667,13.223-13,19.834C246.974,192.7,249.572,194.201,250.628,192.591L250.628,192.591z"/>
		</g>
	</g>
	<g>
		<g>
			<path style="fill:#FFFFFF;" d="M261.272,173.061c4.333,5.355,8.667,10.71,13,16.066c1.217,1.505,3.326-0.632,2.121-2.121
				c-4.333-5.355-8.667-10.711-13-16.066C262.177,169.436,260.067,171.572,261.272,173.061L261.272,173.061z"/>
		</g>
	</g>
	<g>
		<g>
			<path style="fill:#FFFFFF;" d="M244.333,168.667c4.556,0,9.111,0,13.667,0c1.935,0,1.935-3,0-3c-4.556,0-9.111,0-13.667,0
				C242.398,165.667,242.398,168.667,244.333,168.667L244.333,168.667z"/>
		</g>
	</g>
	<g>
		<g>
			<path style="fill:#FFFFFF;" d="M251.166,162.921c8.306,0,16.611,0,24.917,0c1.935,0,1.935-3,0-3c-8.306,0-16.611,0-24.917,0
				C249.231,159.921,249.231,162.921,251.166,162.921L251.166,162.921z"/>
		</g>
	</g>
	<g>
		<g>
			<path style="fill:#FFFFFF;" d="M243.333,157.833c8.111-0.056,16.222-0.111,24.333-0.167c1.934-0.013,1.936-3.013,0-3
				c-8.111,0.056-16.222,0.111-24.333,0.167C241.399,154.847,241.397,157.847,243.333,157.833L243.333,157.833z"/>
		</g>
	</g>
	<g>
		<g>
			<path style="fill:#FFFFFF;" d="M248.5,154c10.167,0,20.333,0,30.5,0c1.935,0,1.935-3,0-3c-10.167,0-20.333,0-30.5,0
				C246.565,151,246.565,154,248.5,154L248.5,154z"/>
		</g>
	</g>
	<g>
		<g>
			<path style="fill:#FFFFFF;" d="M211.477,159.773c-1.361-1.5-2.722-3-4.083-4.5c-1.303-1.436-3.418,0.692-2.121,2.121
				c1.361,1.5,2.722,3,4.083,4.5C210.658,163.33,212.773,161.202,211.477,159.773L211.477,159.773z"/>
		</g>
	</g>
	<g>
		<g>
			<path style="fill:#FFFFFF;" d="M223.934,156.969c0.211-1.868,0.422-3.736,0.633-5.604c0.092-0.814-0.752-1.5-1.5-1.5
				c-0.887,0-1.408,0.688-1.5,1.5c-0.211,1.868-0.422,3.736-0.633,5.604c-0.092,0.814,0.752,1.5,1.5,1.5
				C223.32,158.469,223.842,157.781,223.934,156.969L223.934,156.969z"/>
		</g>
	</g>
	<g>
		<g>
			<path style="fill:#FFFFFF;" d="M234.257,164.129c1.556-0.667,3.111-1.333,4.666-2c0.752-0.323,0.913-1.414,0.538-2.053
				c-0.45-0.77-1.301-0.86-2.052-0.538c-1.556,0.667-3.111,1.333-4.666,2c-0.752,0.323-0.913,1.414-0.538,2.053
				C232.655,164.36,233.506,164.451,234.257,164.129L234.257,164.129z"/>
		</g>
	</g>
	<g>
		<g>
			<path style="fill:#FFFFFF;" d="M209.875,173.52c0.711-12.964,19.789-12.964,20.5,0c0.105,1.924,3.106,1.934,3,0
				c-0.923-16.82-25.577-16.82-26.5,0C206.769,175.454,209.77,175.443,209.875,173.52L209.875,173.52z"/>
		</g>
	</g>
	<g>
		<g>
			<path style="fill:#FFFFFF;" d="M183.833,205.334c3.389,0,6.778,0,10.167,0c1.935,0,1.935-3,0-3c-3.389,0-6.778,0-10.167,0
				C181.898,202.334,181.898,205.334,183.833,205.334L183.833,205.334z"/>
		</g>
	</g>
	<g>
		<g>
			<path style="fill:#FFFFFF;" d="M183.833,209.834c9.111,0,18.222,0,27.333,0c1.935,0,1.935-3,0-3c-9.111,0-18.222,0-27.333,0
				C181.898,206.834,181.898,209.834,183.833,209.834L183.833,209.834z"/>
		</g>
	</g>
	<g>
		<g>
			<path style="fill:#FFFFFF;" d="M191.833,214.834c4.833,0,9.667,0,14.5,0c1.935,0,1.935-3,0-3c-4.833,0-9.667,0-14.5,0
				C189.898,211.834,189.898,214.834,191.833,214.834L191.833,214.834z"/>
		</g>
	</g>
	<g>
		<g>
			<path style="fill:#FFFFFF;" d="M215.333,217c3.809,0,7.618,0,11.427,0c1.935,0,1.935-3,0-3c-3.809,0-7.618,0-11.427,0
				C213.398,214,213.398,217,215.333,217L215.333,217z"/>
		</g>
	</g>
	<g>
		<g>
			<path style="fill:#FFFFFF;" d="M200.333,221.334c3.611,0,7.222,0,10.833,0c1.935,0,1.935-3,0-3c-3.611,0-7.222,0-10.833,0
				C198.398,218.334,198.398,221.334,200.333,221.334L200.333,221.334z"/>
		</g>
	</g>
	<g>
		<g>
			<path style="fill:#FFFFFF;" d="M174.554,198.074c2.24,1.275,4.465,1.198,6.999,1.013c4.048-0.296,7.281,0.719,11.092,1.872
				c7.413,2.244,14.091-0.603,21.453-0.846c4.484-0.147,7.53,2.801,11.249,4.728c3.661,1.896,8.384,3.099,8.844,7.735
				c0.119,1.204,0.298,2.391,0.377,3.598c0.241,3.698-5.499,4.327-7.891,4.573c-1.925,0.198-7.512,1.126-9.223,0.134
				c-1.677-0.973-3.187,1.62-1.514,2.59c2.151,1.248,5.263,0.458,7.616,0.368c4.258-0.162,8.417-0.379,11.963-3.025
				c4.18-3.12,2.069-12.242-1.561-14.869c-4.013-2.905-9.211-5.031-13.53-7.534c-3.297-1.91-7.533-1.358-11.119-0.875
				c-6.251,0.842-11.11,1.972-17.381,0.073c-2.073-0.628-4.138-1.534-6.336-1.617c-2.944-0.111-6.835,1.024-9.524-0.507
				C174.384,194.525,172.874,197.117,174.554,198.074L174.554,198.074z"/>
		</g>
	</g>
	<g>
		<g>
			<g>
				<path style="fill:#FFFFFF;" d="M164.938,77c11.167,0,22.333,0,33.5,0c4.514,0,4.514-7,0-7c-11.166,0-22.333,0-33.5,0
					C160.424,70,160.424,77,164.938,77L164.938,77z"/>
			</g>
		</g>
		<g>
			<g>
				<path style="fill:#FFFFFF;" d="M188.554,76.441c-0.376,2.33-5.204,1.395-6.721,1.395c-2.096,0-4.192,0-6.289,0
					c-1.398,0-0.409-1.992,0.363-1.992c0.368,0,0.736,0,1.104,0c1.385,0,2.77,0,4.155,0c1.565,0,6.999-1.006,7.387,1.395
					c0.308,1.906,3.198,1.094,2.893-0.798c-0.773-4.795-6.773-3.597-10.279-3.597c-3.232,0-9.667-1.036-9.667,3.996
					s6.435,3.996,9.667,3.996c3.506,0,9.506,1.198,10.279-3.597C191.752,75.347,188.861,74.535,188.554,76.441z"/>
			</g>
		</g>
		<g>
			<g>
				<path style="fill:#FFFFFF;" d="M179.333,89.669c0,6.222,0,12.444,0,18.667c0,1.935,3,1.935,3,0c0-6.222,0-12.444,0-18.667
					C182.333,87.735,179.333,87.735,179.333,89.669L179.333,89.669z"/>
			</g>
		</g>
		<g>
			<g>
				<path style="fill:#FFFFFF;" d="M187.229,90.398c1.765,5.778,3.528,11.556,5.293,17.333c0.563,1.845,3.459,1.058,2.893-0.798
					c-1.765-5.778-3.528-11.556-5.293-17.333C189.559,87.756,186.663,88.543,187.229,90.398L187.229,90.398z"/>
			</g>
		</g>
		<g>
			<g>
				<path style="fill:#FFFFFF;" d="M171.554,89.601c-1.764,5.778-3.528,11.556-5.292,17.333c-0.566,1.855,2.33,2.643,2.893,0.798
					c1.764-5.778,3.528-11.556,5.292-17.333C175.013,88.543,172.117,87.756,171.554,89.601L171.554,89.601z"/>
			</g>
		</g>
	</g>
	<g>
		<g>
			<g>
				<path style="fill:#FFFFFF;" d="M254.771,77.082c11.167,0,22.333,0,33.5,0c4.514,0,4.514-7,0-7c-11.167,0-22.333,0-33.5,0
					C250.258,70.082,250.258,77.082,254.771,77.082L254.771,77.082z"/>
			</g>
		</g>
		<g>
			<g>
				<path style="fill:#FFFFFF;" d="M278.388,76.522c-0.376,2.33-5.204,1.395-6.721,1.395c-2.096,0-4.192,0-6.289,0
					c-1.397,0-0.408-1.992,0.364-1.992c0.367,0,0.735,0,1.104,0c1.385,0,2.77,0,4.155,0c1.566,0,6.999-1.006,7.387,1.395
					c0.308,1.906,3.198,1.094,2.893-0.798c-0.773-4.795-6.773-3.597-10.279-3.597c-3.232,0-9.667-1.036-9.667,3.996
					s6.435,3.996,9.667,3.996c3.506,0,9.506,1.198,10.279-3.597C281.586,75.428,278.695,74.617,278.388,76.522z"/>
			</g>
		</g>
		<g>
			<g>
				<path style="fill:#FFFFFF;" d="M269.166,89.751c0,6.222,0,12.444,0,18.667c0,1.935,3,1.935,3,0c0-6.222,0-12.444,0-18.667
					C272.166,87.816,269.166,87.816,269.166,89.751L269.166,89.751z"/>
			</g>
		</g>
		<g>
			<g>
				<path style="fill:#FFFFFF;" d="M277.063,90.48c1.764,5.778,3.528,11.556,5.292,17.333c0.563,1.845,3.459,1.058,2.893-0.798
					c-1.764-5.778-3.528-11.556-5.292-17.333C279.393,87.837,276.497,88.625,277.063,90.48L277.063,90.48z"/>
			</g>
		</g>
		<g>
			<g>
				<path style="fill:#FFFFFF;" d="M261.388,89.682c-1.765,5.778-3.528,11.556-5.293,17.333c-0.566,1.855,2.329,2.643,2.893,0.798
					c1.765-5.778,3.528-11.556,5.293-17.333C264.847,88.625,261.951,87.837,261.388,89.682L261.388,89.682z"/>
			</g>
		</g>
	</g>
</g>
<g id="Ebene_1">
</g>
</svg>
