<?xml version="1.0" encoding="iso-8859-1"?>
<!-- Generator: Adobe Illustrator 16.0.0, SVG Export Plug-In . SVG Version: 6.00 Build 0)  -->
<!DOCTYPE svg PUBLIC "-//W3C//DTD SVG 1.1//EN" "http://www.w3.org/Graphics/SVG/1.1/DTD/svg11.dtd">
<svg version="1.1" xmlns="http://www.w3.org/2000/svg" xmlns:xlink="http://www.w3.org/1999/xlink" x="0px" y="0px" width="361px"
	 height="361px" viewBox="0 0 361 361" style="enable-background:new 0 0 361 361;" xml:space="preserve">
<g id="light_x5F_starlit_x5F_sky">
	<g>
		<g>
			<path style="fill:#FFFFFF;" d="M84.09,162.513c8.917,1.522,17.833,3.045,26.749,4.567c4.414,0.754,6.304-5.991,1.861-6.75
				c-8.917-1.522-17.833-3.045-26.749-4.567C81.537,155.009,79.647,161.754,84.09,162.513L84.09,162.513z"/>
		</g>
	</g>
	<g>
		<g>
			<path style="fill:#FFFFFF;" d="M84.364,172.128c8.917,1.522,17.833,3.045,26.749,4.567c4.414,0.753,6.304-5.991,1.861-6.75
				c-8.917-1.522-17.833-3.045-26.749-4.567C81.812,164.625,79.921,171.37,84.364,172.128L84.364,172.128z"/>
		</g>
	</g>
	<g>
		<g>
			<path style="fill:#FFFFFF;" d="M84.364,181.47c8.917,1.522,17.833,3.045,26.749,4.567c4.414,0.754,6.304-5.991,1.861-6.75
				c-8.917-1.522-17.833-3.045-26.749-4.567C81.812,173.966,79.921,180.711,84.364,181.47L84.364,181.47z"/>
		</g>
	</g>
	<g>
		<g>
			<path style="fill:#FFFFFF;" d="M90.058,191.441c5.004,0.854,10.008,1.708,15.012,2.563c4.414,0.754,6.304-5.991,1.861-6.75
				c-5.004-0.854-10.008-1.708-15.012-2.563C87.505,183.938,85.615,190.683,90.058,191.441L90.058,191.441z"/>
		</g>
	</g>
	<path style="fill:none;stroke:#FFFFFF;stroke-width:10;stroke-miterlimit:10;" d="M121.034,136.573
		c0,7.544-6.116,13.66-13.66,13.66H89.16c-7.544,0-13.66-6.116-13.66-13.66V88.004c0-7.544,6.116-13.66,13.66-13.66h18.213
		c7.544,0,13.66,6.116,13.66,13.66V136.573z"/>
	<path style="fill:#FFFFFF;" d="M197.521,111.733c0,1.104-0.896,2-2,2h-1c-1.104,0-2-0.896-2-2v-1c0-1.104,0.896-2,2-2h1
		c1.104,0,2,0.896,2,2V111.733z"/>
	<path style="fill:#FFFFFF;" d="M240.931,188.215c0,1.104-0.896,2-2,2h-1c-1.104,0-2-0.896-2-2v-1c0-1.104,0.896-2,2-2h1
		c1.104,0,2,0.896,2,2V188.215z"/>
	<path style="fill:#FFFFFF;" d="M210.521,163.605c0,1.529-1.239,2.769-2.769,2.769h-1.385c-1.529,0-2.769-1.24-2.769-2.769v-1.384
		c0-1.529,1.239-2.769,2.769-2.769h1.385c1.529,0,2.769,1.24,2.769,2.769V163.605z"/>
	<path style="fill:#FFFFFF;" d="M263.563,137.684c0,1.529-1.24,2.769-2.77,2.769h-1.385c-1.528,0-2.768-1.24-2.768-2.769v-1.384
		c0-1.529,1.239-2.769,2.768-2.769h1.385c1.529,0,2.77,1.24,2.77,2.769V137.684z"/>
	<path style="fill:#FFFFFF;" d="M230.565,104.467c0,1.508-1.224,2.731-2.731,2.731h-1.365c-1.508,0-2.73-1.223-2.73-2.731v-1.366
		c0-1.508,1.223-2.731,2.73-2.731h1.365c1.508,0,2.731,1.223,2.731,2.731V104.467z"/>
	<path style="fill:#FFFFFF;" d="M288.102,185.715c0,1.104-0.896,2-2,2h-1c-1.105,0-2-0.896-2-2v-1c0-1.104,0.895-2,2-2h1
		c1.104,0,2,0.896,2,2V185.715z"/>
	<path style="fill:#FFFFFF;" d="M215.521,72.993c0,1.104-0.896,2-2,2h-1c-1.104,0-2-0.896-2-2v-1c0-1.104,0.896-2,2-2h1
		c1.104,0,2,0.896,2,2V72.993z"/>
	<path style="fill:#FFFFFF;" d="M275.021,155.474c0,1.104-0.896,2-2,2h-1c-1.104,0-2-0.896-2-2v-1c0-1.104,0.896-2,2-2h1
		c1.104,0,2,0.896,2,2V155.474z"/>
	<path style="fill:#FFFFFF;" d="M257.594,125.455c0,0.89-0.722,1.611-1.611,1.611h-0.806c-0.89,0-1.61-0.721-1.61-1.611v-0.806
		c0-0.89,0.721-1.611,1.61-1.611h0.806c0.89,0,1.611,0.721,1.611,1.611V125.455z"/>
	<path style="fill:#FFFFFF;" d="M237.521,144.993c0,1.104-0.896,2-2,2h-1c-1.104,0-2-0.896-2-2v-1c0-1.104,0.896-2,2-2h1
		c1.104,0,2,0.896,2,2V144.993z"/>
	<path style="fill:#FFFFFF;" d="M257.521,214.992c0,1.105-0.896,2-2,2h-1c-1.104,0-2-0.895-2-2v-1c0-1.104,0.896-2,2-2h1
		c1.104,0,2,0.896,2,2V214.992z"/>
	<path style="fill:#FFFFFF;" d="M197.521,144.993c0,1.104-0.896,2-2,2h-1c-1.104,0-2-0.896-2-2v-1c0-1.104,0.896-2,2-2h1
		c1.104,0,2,0.896,2,2V144.993z"/>
	<path style="fill:#FFFFFF;" d="M257.521,164.993c0,1.104-0.896,2-2,2h-1c-1.104,0-2-0.896-2-2v-1c0-1.104,0.896-2,2-2h1
		c1.104,0,2,0.896,2,2V164.993z"/>
	<path style="fill:#FFFFFF;" d="M257.521,84.993c0,1.104-0.896,2-2,2h-1c-1.104,0-2-0.896-2-2v-1c0-1.104,0.896-2,2-2h1
		c1.104,0,2,0.896,2,2V84.993z"/>
	<path style="fill:#FFFFFF;" d="M287.361,104.653c0,1.204-0.977,2.181-2.18,2.181h-1.092c-1.203,0-2.181-0.977-2.181-2.181v-1.091
		c0-1.204,0.978-2.181,2.181-2.181h1.092c1.203,0,2.18,0.977,2.18,2.181V104.653z"/>
	<path style="fill:#FFFFFF;" d="M186.201,114.275c0,0.772-0.626,1.398-1.398,1.398h-0.699c-0.772,0-1.398-0.626-1.398-1.398v-0.7
		c0-0.772,0.626-1.398,1.398-1.398h0.699c0.772,0,1.398,0.626,1.398,1.398V114.275z"/>
	<path style="fill:#FFFFFF;" d="M212.386,235.927c0-0.826,0.67-1.496,1.497-1.496h0.748c0.826,0,1.496,0.67,1.496,1.496v0.748
		c0,0.827-0.67,1.497-1.496,1.497h-0.748c-0.827,0-1.497-0.67-1.497-1.497V235.927z"/>
	<path style="fill:#FFFFFF;" d="M263.931,260.857c0-1.528,1.239-2.768,2.769-2.768h1.385c1.529,0,2.769,1.239,2.769,2.768v1.385
		c0,1.529-1.239,2.77-2.769,2.77h-1.385c-1.529,0-2.769-1.24-2.769-2.77V260.857z"/>
	<path style="fill:#FFFFFF;" d="M204.431,247.6c0-1.974,1.601-3.574,3.573-3.574h1.787c1.973,0,3.573,1.601,3.573,3.574v1.786
		c0,1.974-1.601,3.573-3.573,3.573h-1.787c-1.973,0-3.573-1.6-3.573-3.573V247.6z"/>
	<path style="fill:#FFFFFF;" d="M186.35,227.024c0-1.104,0.896-2,2-2h1c1.105,0,2,0.896,2,2v1c0,1.104-0.895,2-2,2h-1
		c-1.104,0-2-0.896-2-2V227.024z"/>
	<path style="fill:#FFFFFF;" d="M199.431,268.989c0-1.104,0.896-2,2-2h1c1.104,0,2,0.896,2,2v1c0,1.104-0.896,2-2,2h-1
		c-1.104,0-2-0.896-2-2V268.989z"/>
	<path style="fill:#FFFFFF;" d="M236.931,279.471c0-1.104,0.896-2,2-2h1c1.104,0,2,0.896,2,2v1c0,1.104-0.896,2-2,2h-1
		c-1.104,0-2-0.896-2-2V279.471z"/>
	<path style="fill:#FFFFFF;" d="M216.931,209.471c0-1.104,0.896-2,2-2h1c1.104,0,2,0.896,2,2v1c0,1.104-0.896,2-2,2h-1
		c-1.104,0-2-0.896-2-2V209.471z"/>
	<path style="fill:#FFFFFF;" d="M235.931,260.471c0-1.104,0.896-2,2-2h1c1.104,0,2,0.896,2,2v1c0,1.104-0.896,2-2,2h-1
		c-1.104,0-2-0.896-2-2V260.471z"/>
	<path style="fill:#FFFFFF;" d="M272.757,206.916c0.86,0,1.558,0.697,1.558,1.559v0.779c0,0.859-0.697,1.558-1.558,1.558h-0.779
		c-0.86,0-1.558-0.698-1.558-1.558v-0.779c0-0.861,0.697-1.559,1.558-1.559H272.757z"/>
	<path style="fill:#FFFFFF;" d="M263.68,245.989c0.797,0,1.445,0.647,1.445,1.445v0.723c0,0.798-0.648,1.445-1.445,1.445h-0.723
		c-0.799,0-1.445-0.647-1.445-1.445v-0.723c0-0.798,0.646-1.445,1.445-1.445H263.68z"/>
	<path style="fill:#FFFFFF;" d="M283.021,224.498c1.104,0,2,0.896,2,2v1c0,1.105-0.896,2-2,2h-1c-1.104,0-2-0.895-2-2v-1
		c0-1.104,0.896-2,2-2H283.021z"/>
	<path style="fill:#FFFFFF;" d="M174.319,281.572c0.826,0,1.496,0.67,1.496,1.496v0.748c0,0.826-0.67,1.496-1.496,1.496h-0.748
		c-0.826,0-1.496-0.67-1.496-1.496v-0.748c0-0.826,0.67-1.496,1.496-1.496H174.319z"/>
	<path style="fill:#FFFFFF;" d="M153.871,271.746c1.973,0,3.573,1.601,3.573,3.574v1.787c0,1.973-1.601,3.572-3.573,3.572h-1.787
		c-1.974,0-3.573-1.6-3.573-3.572v-1.787c0-1.974,1.6-3.574,3.573-3.574H153.871z"/>
	<path style="fill:#FFFFFF;" d="M151.511,253.666c1.104,0,2,0.896,2,2v1c0,1.104-0.896,2-2,2h-1c-1.104,0-2-0.896-2-2v-1
		c0-1.104,0.896-2,2-2H151.511z"/>
	<path style="fill:#FFFFFF;" d="M286.361,288.213c0-1.104,0.896-2,2-2h1c1.105,0,2,0.896,2,2v1c0,1.105-0.895,2-2,2h-1
		c-1.104,0-2-0.895-2-2V288.213z"/>
	<path style="fill:#FFFFFF;" d="M283.361,269.213c0-1.104,0.896-2,2-2h1c1.105,0,2,0.896,2,2v1c0,1.105-0.895,2-2,2h-1
		c-1.104,0-2-0.895-2-2V269.213z"/>
</g>
<g id="Ebene_1">
</g>
</svg>
