<?xml version="1.0" encoding="iso-8859-1"?>
<!-- Generator: Adobe Illustrator 16.0.0, SVG Export Plug-In . SVG Version: 6.00 Build 0)  -->
<!DOCTYPE svg PUBLIC "-//W3C//DTD SVG 1.1//EN" "http://www.w3.org/Graphics/SVG/1.1/DTD/svg11.dtd">
<svg version="1.1" xmlns="http://www.w3.org/2000/svg" xmlns:xlink="http://www.w3.org/1999/xlink" x="0px" y="0px" width="361px"
	 height="361px" viewBox="0 0 361 361" style="enable-background:new 0 0 361 361;" xml:space="preserve">
<g id="light_x5F_pool">
	<path style="fill:none;stroke:#FFFFFF;" d="M182.665,229.421"/>
	<g>
		<g>
			<g>
				<path style="fill:#FFFFFF;" d="M159.571,264.279c0-17.629,0-35.258,0-52.888c0-3.898-0.705-8.889-4.832-10.631
					c-4.455-1.88-9.223-1.332-13.986-1.332s-9.532-0.548-13.986,1.332c-5.846,2.468-4.832,10.534-4.832,15.559
					c0,6.448,10,6.448,10,0c0-1.663,0-3.326,0-4.99c0-1.949-0.6-1.9,0.76-1.9c4.235,0,8.471,0,12.706,0c1.383,0,2.766,0,4.149,0
					c0.274,0,0.021-0.478,0.021,0.333c0,2.739,0,5.479,0,8.22c0,15.433,0,30.865,0,46.298
					C149.571,270.728,159.571,270.728,159.571,264.279L159.571,264.279z"/>
			</g>
		</g>
		<g>
			<g>
				<path style="fill:#FFFFFF;" d="M179.931,240.55c0-17.63,0-35.259,0-52.888c0-4.455-1.124-7.766-4.832-10.63
					c-3.198-2.47-10.293-1.332-13.986-1.332s-10.789-1.138-13.986,1.332c-5.399,4.171-4.832,9.386-4.832,15.558
					c0,6.448,10,6.448,10,0c0-2.188-1.011-6.89,0.76-6.89c4.236,0,8.471,0,12.707,0c1.383,0,2.767,0,4.15,0
					c0.238,0,0.02-0.322,0.02,0.577c0,2.912,0,5.825,0,8.738c0,15.178,0,30.356,0,45.534
					C169.931,246.998,179.931,246.998,179.931,240.55L179.931,240.55z"/>
			</g>
		</g>
	</g>
	<g>
		<g>
			<path style="fill:#FFFFFF;" d="M118.299,266.426c13.275-18.959,26.551-37.918,39.826-56.878c2.29-3.27,5.582-4.39,9.37-4.39
				c1.036,0,5.591-0.679,3.359,2.51c-0.161,0.23-0.322,0.46-0.483,0.689c-2.285,3.265-4.57,6.528-6.856,9.792
				c-8.81,12.582-17.621,25.164-26.431,37.746c-7.087,10.122-14.175,20.244-21.263,30.366c-1.112,1.589,1.49,3.086,2.591,1.514
				c14.254-20.357,28.509-40.715,42.764-61.072c3.218-4.596,6.437-9.192,9.654-13.788c1.551-2.215,4.533-5.362,3.735-8.263
				c-1.552-5.643-14.007-1.827-16.584,0.609c-2.679,2.533-4.622,5.88-6.725,8.883c-11.85,16.922-23.699,33.845-35.548,50.768
				C114.596,266.501,117.198,267.998,118.299,266.426L118.299,266.426z"/>
		</g>
	</g>
	<g>
		<g>
			<path style="fill:#FFFFFF;" d="M192.009,286.204c-6.155-1.182-11.592-0.991-17.706,0.211c-5.065,0.995-10.115,2.526-15.298,2.708
				c-4.735,0.166-9.68-1.53-14.307-2.506c-6.443-1.359-12.191-1.662-18.696-0.413c-1.898,0.364-1.092,3.256,0.798,2.893
				c11.419-2.192,21.014,2.633,32.205,3.026c4.268,0.15,8.801-1.212,12.937-2.146c6.619-1.494,12.526-2.176,19.27-0.881
				C193.102,289.46,193.908,286.568,192.009,286.204L192.009,286.204z"/>
			<path style="fill:#FFFFFF;" d="M176.311,289.089c11.418-2.192,21.014,2.633,32.206,3.026c4.268,0.15,8.801-1.212,12.937-2.146
				c6.619-1.494,12.525-2.176,19.27-0.881c1.89,0.363,2.696-2.528,0.797-2.893c-6.154-1.182-11.592-0.991-17.706,0.211
				c-5.064,0.995-10.115,2.525-15.297,2.708c-4.735,0.166-9.682-1.53-14.309-2.506c-6.443-1.359-12.19-1.662-18.695-0.413
				C173.615,286.561,174.421,289.452,176.311,289.089L176.311,289.089z"/>
			<path style="fill:#FFFFFF;" d="M225.644,289.08c11.418-2.194,21.016,2.633,32.206,3.025c4.268,0.149,8.803-1.209,12.938-2.144
				c6.618-1.496,12.524-2.178,19.269-0.882c1.89,0.363,2.696-2.528,0.797-2.893c-6.155-1.183-11.592-0.992-17.705,0.211
				c-5.065,0.996-10.115,2.525-15.298,2.707c-4.735,0.166-9.682-1.527-14.309-2.505c-6.443-1.36-12.19-1.663-18.694-0.413
				C222.947,286.552,223.754,289.443,225.644,289.08L225.644,289.08z"/>
		</g>
	</g>
	<g>
		<g>
			<path style="fill:#FFFFFF;" d="M203.899,272.331c-6.155-1.182-11.593-0.991-17.706,0.212c-5.065,0.996-10.115,2.525-15.297,2.707
				c-4.735,0.166-9.682-1.528-14.309-2.505c-6.443-1.36-12.19-1.663-18.695-0.414c-1.898,0.364-1.092,3.256,0.798,2.893
				c11.418-2.191,21.015,2.634,32.206,3.026c4.267,0.149,8.801-1.21,12.936-2.144c6.619-1.496,12.525-2.178,19.271-0.883
				C204.992,275.587,205.799,272.695,203.899,272.331L203.899,272.331z"/>
			<path style="fill:#FFFFFF;" d="M188.201,275.217c11.419-2.192,21.016,2.632,32.206,3.025c4.268,0.15,8.801-1.211,12.936-2.145
				c6.619-1.494,12.526-2.176,19.271-0.881c1.89,0.363,2.696-2.528,0.797-2.893c-6.155-1.182-11.593-0.991-17.706,0.211
				c-5.065,0.995-10.115,2.525-15.297,2.707c-4.735,0.166-9.681-1.529-14.309-2.505c-6.443-1.359-12.19-1.662-18.694-0.413
				C185.505,272.688,186.312,275.58,188.201,275.217L188.201,275.217z"/>
			<path style="fill:#FFFFFF;" d="M237.533,275.208c8.975-1.723,16.881,0.56,25.595,2.192c9.541,1.786,17.98-1.56,27.326-2.814
				c1.888-0.254,1.913-3.257,0-3c-3.959,0.531-7.812,1.475-11.712,2.297c-6.033,1.273-10.964,1.393-17.015,0.202
				c-8.582-1.688-16.188-3.46-24.991-1.77C234.837,272.68,235.644,275.571,237.533,275.208L237.533,275.208z"/>
		</g>
	</g>
	<g>
		<g>
			<path style="fill:#FFFFFF;" d="M210.715,258.561c-7.106-1.364-13.294-0.763-20.305,0.757c-6.6,1.431-12.797,2.898-19.545,1.242
				c-1.879-0.461-2.676,2.432-0.798,2.893c6.853,1.682,13.217,0.546,19.97-0.979c6.824-1.541,12.914-2.357,19.881-1.021
				C211.808,261.816,212.614,258.925,210.715,258.561L210.715,258.561z"/>
			<path style="fill:#FFFFFF;" d="M195.016,261.444c11.419-2.192,21.016,2.633,32.206,3.026c4.268,0.15,8.802-1.211,12.937-2.145
				c6.619-1.495,12.525-2.177,19.27-0.882c1.89,0.363,2.696-2.528,0.797-2.893c-6.155-1.182-11.592-0.991-17.705,0.211
				c-5.065,0.996-10.115,2.526-15.298,2.708c-4.735,0.166-9.682-1.529-14.309-2.506c-6.443-1.359-12.19-1.662-18.694-0.413
				C192.319,258.916,193.126,261.808,195.016,261.444L195.016,261.444z"/>
			<path style="fill:#FFFFFF;" d="M244.35,261.437c8.209-1.576,15.426,0.141,23.396,1.771c8.263,1.688,14.996,0.595,23.107-1.491
				c1.873-0.481,1.078-3.375-0.797-2.893c-3.475,0.893-6.977,1.692-10.51,2.315c-4.551,0.803-9.156-0.407-13.601-1.371
				c-7.716-1.672-14.525-2.734-22.393-1.224C241.653,258.908,242.46,261.8,244.35,261.437L244.35,261.437z"/>
		</g>
	</g>
	<g>
		<g>
			<path style="fill:#FFFFFF;" d="M248.273,214.148c-6.154-1.181-11.593-0.99-17.706,0.212c-5.065,0.995-10.115,2.526-15.298,2.708
				c-4.735,0.166-9.681-1.53-14.308-2.506c-6.443-1.359-12.191-1.661-18.695-0.414c-1.899,0.364-1.093,3.255,0.797,2.893
				c11.42-2.189,21.015,2.634,32.206,3.027c4.269,0.15,8.802-1.212,12.938-2.146c6.618-1.494,12.525-2.175,19.27-0.882
				C249.366,217.403,250.173,214.513,248.273,214.148L248.273,214.148z"/>
			<path style="fill:#FFFFFF;" d="M232.574,217.034c10.147-1.947,19.089,1.317,28.996,2.737c9.199,1.318,18.181-3.354,27.318-3.674
				c1.929-0.067,1.936-3.068,0-3c-9.752,0.343-18.942,5.025-28.772,3.438c-9.751-1.576-18.326-4.315-28.339-2.394
				C229.878,214.506,230.685,217.397,232.574,217.034L232.574,217.034z"/>
			<path style="fill:#FFFFFF;" d="M281.908,217.024c2.741-0.539,5.319-0.948,8.1-0.937c1.935,0.008,1.935-2.992,0-3
				c-3.04-0.013-5.906,0.456-8.896,1.044C279.214,214.505,280.02,217.396,281.908,217.024L281.908,217.024z"/>
		</g>
	</g>
	<g>
		<g>
			<path style="fill:#FFFFFF;" d="M236.592,228.173c-8.113-1.558-15.185-0.339-23.126,1.383c-9.103,1.974-17.039,0.971-26.165-0.4
				c-1.892-0.284-2.705,2.606-0.797,2.893c7.485,1.125,15.007,2.632,22.547,1.412c9.167-1.482,17.303-4.207,26.744-2.395
				C237.685,231.429,238.491,228.537,236.592,228.173L236.592,228.173z"/>
			<path style="fill:#FFFFFF;" d="M220.893,231.058c11.419-2.191,21.016,2.632,32.207,3.025c4.268,0.15,8.801-1.211,12.936-2.145
				c6.618-1.494,12.525-2.176,19.27-0.881c1.89,0.363,2.696-2.528,0.797-2.893c-6.154-1.182-11.592-0.991-17.705,0.211
				c-5.065,0.995-10.115,2.525-15.297,2.707c-4.735,0.166-9.681-1.529-14.308-2.505c-6.444-1.359-12.192-1.662-18.696-0.413
				C218.196,228.529,219.003,231.421,220.893,231.058L220.893,231.058z"/>
			<path style="fill:#FFFFFF;" d="M270.226,231.05c6.9-1.335,12.985-0.564,19.755,0.99c1.883,0.433,2.683-2.46,0.797-2.893
				c-7.321-1.682-13.905-2.431-21.349-0.99C267.53,228.524,268.336,231.415,270.226,231.05L270.226,231.05z"/>
		</g>
	</g>
	<g>
		<g>
			<path style="fill:#FFFFFF;" d="M225.639,243.036c-7.301-1.401-13.672-0.713-20.864,0.882c-6.775,1.503-12.89,2.616-19.784,0.962
				c-1.88-0.451-2.678,2.441-0.797,2.893c13.854,3.325,26.733-4.515,40.648-1.844C226.731,246.292,227.538,243.4,225.639,243.036
				L225.639,243.036z"/>
			<path style="fill:#FFFFFF;" d="M209.939,245.921c11.419-2.191,21.016,2.633,32.207,3.026c4.268,0.15,8.801-1.211,12.936-2.145
				c6.619-1.495,12.526-2.177,19.271-0.882c1.89,0.363,2.696-2.528,0.797-2.893c-6.155-1.182-11.594-0.991-17.708,0.211
				c-5.064,0.996-10.114,2.526-15.296,2.708c-4.735,0.166-9.682-1.529-14.309-2.506c-6.443-1.359-12.191-1.662-18.695-0.413
				C207.243,243.393,208.05,246.284,209.939,245.921L209.939,245.921z"/>
			<path style="fill:#FFFFFF;" d="M259.271,245.912c6.314-1.211,11.758-0.713,17.978,0.599c4.385,0.925,8.699,2.258,13.205,2.444
				c1.936,0.08,1.928-2.92,0-3c-4.838-0.2-9.546-1.758-14.271-2.724c-6.093-1.245-11.575-1.388-17.708-0.212
				C256.575,243.384,257.382,246.274,259.271,245.912L259.271,245.912z"/>
		</g>
	</g>
	<g>
		<g>
			<g>
				<path style="fill:#FFFFFF;" d="M83.84,163.013c8.917,1.522,17.833,3.045,26.749,4.567c4.414,0.754,6.304-5.991,1.861-6.75
					c-8.917-1.522-17.833-3.045-26.749-4.567C81.287,155.509,79.397,162.254,83.84,163.013L83.84,163.013z"/>
			</g>
		</g>
		<g>
			<g>
				<path style="fill:#FFFFFF;" d="M84.114,172.628c8.917,1.522,17.833,3.045,26.749,4.567c4.414,0.753,6.304-5.991,1.861-6.75
					c-8.917-1.522-17.833-3.045-26.749-4.567C81.562,165.125,79.671,171.87,84.114,172.628L84.114,172.628z"/>
			</g>
		</g>
		<g>
			<g>
				<path style="fill:#FFFFFF;" d="M84.114,181.97c8.917,1.522,17.833,3.045,26.749,4.567c4.414,0.754,6.304-5.991,1.861-6.75
					c-8.917-1.522-17.833-3.045-26.749-4.567C81.562,174.466,79.671,181.211,84.114,181.97L84.114,181.97z"/>
			</g>
		</g>
		<g>
			<g>
				<path style="fill:#FFFFFF;" d="M89.808,191.941c5.004,0.854,10.008,1.708,15.012,2.563c4.414,0.754,6.304-5.991,1.861-6.75
					c-5.004-0.854-10.008-1.708-15.012-2.563C87.255,184.438,85.365,191.183,89.808,191.941L89.808,191.941z"/>
			</g>
		</g>
		<path style="fill:none;stroke:#FFFFFF;stroke-width:10;stroke-miterlimit:10;" d="M120.784,137.073
			c0,7.544-6.116,13.66-13.66,13.66H88.91c-7.544,0-13.66-6.116-13.66-13.66V88.504c0-7.544,6.116-13.66,13.66-13.66h18.213
			c7.544,0,13.66,6.116,13.66,13.66V137.073z"/>
	</g>
</g>
<g id="Ebene_1">
</g>
</svg>
