<?xml version="1.0" encoding="iso-8859-1"?>
<!-- Generator: Adobe Illustrator 16.0.0, SVG Export Plug-In . SVG Version: 6.00 Build 0)  -->
<!DOCTYPE svg PUBLIC "-//W3C//DTD SVG 1.1 Tiny//EN" "http://www.w3.org/Graphics/SVG/1.1/DTD/svg11-tiny.dtd">
<svg version="1.1" baseProfile="tiny" id="light_x5F_pendant_x5F_light"
	 xmlns="http://www.w3.org/2000/svg" xmlns:xlink="http://www.w3.org/1999/xlink" x="0px" y="0px" width="361px" height="361px"
	 viewBox="0 0 361 361" xml:space="preserve">
<g>
	<g>
		<path fill="#FFFFFF" d="M81.572,166.391c8.917,1.522,17.833,3.045,26.749,4.567c4.414,0.754,6.304-5.991,1.861-6.75
			c-8.917-1.522-17.833-3.045-26.749-4.567C79.019,158.887,77.129,165.632,81.572,166.391L81.572,166.391z"/>
	</g>
	<g>
		<path fill="#FFFFFF" d="M81.846,176.006c8.917,1.522,17.833,3.045,26.749,4.567c4.414,0.753,6.304-5.991,1.861-6.75
			c-8.917-1.522-17.833-3.045-26.749-4.567C79.293,168.503,77.403,175.248,81.846,176.006L81.846,176.006z"/>
	</g>
	<g>
		<path fill="#FFFFFF" d="M81.846,185.348c8.917,1.522,17.833,3.045,26.749,4.567c4.414,0.754,6.304-5.991,1.861-6.75
			c-8.917-1.522-17.833-3.045-26.749-4.567C79.293,177.844,77.403,184.589,81.846,185.348L81.846,185.348z"/>
	</g>
	<g>
		<path fill="#FFFFFF" d="M87.54,195.319c5.004,0.854,10.008,1.709,15.012,2.563c4.414,0.754,6.304-5.991,1.861-6.75
			c-5.004-0.854-10.008-1.709-15.012-2.563C84.987,187.815,83.097,194.56,87.54,195.319L87.54,195.319z"/>
	</g>
	<path fill="none" stroke="#FFFFFF" stroke-width="10" stroke-miterlimit="10" d="M118.516,140.451c0,7.544-6.116,13.66-13.66,13.66
		H86.642c-7.544,0-13.66-6.116-13.66-13.66V91.882c0-7.544,6.116-13.66,13.66-13.66h18.213c7.544,0,13.66,6.116,13.66,13.66V140.451
		z"/>
</g>
<g>
	<path fill="#FFFFFF" stroke="#FFFFFF" stroke-miterlimit="10" d="M202.705,78.137c0,2.904-2.354,5.259-5.259,5.259h-14.849
		c-2.904,0-5.259-2.354-5.259-5.259l0,0c0-2.904,2.355-5.259,5.259-5.259h14.849C200.351,72.878,202.705,75.233,202.705,78.137
		L202.705,78.137z"/>
	<g>
		<g>
			<path fill="#FFFFFF" d="M184.44,85.548c0,41.852,0,83.704,0,125.556c0,6.449,10,6.449,10,0c0-41.852,0-83.704,0-125.556
				C194.44,79.099,184.44,79.099,184.44,85.548L184.44,85.548z"/>
		</g>
		<g>
			<path fill="#FFFFFF" d="M97.136,274.551c31.609-20.196,63.219-40.393,94.828-60.589c-1.682,0-3.365,0-5.047,0
				c31.609,20.196,63.218,40.393,94.827,60.589c0.841-3.106,1.682-6.211,2.523-9.317c-49.703,0-99.406,0-149.108,0
				c-13.516,0-27.031,0-40.547,0c-6.449,0-6.449,10,0,10c49.703,0,99.406,0,149.108,0c13.516,0,27.031,0,40.547,0
				c5.113,0,6.641-6.687,2.523-9.317c-31.609-20.196-63.218-40.393-94.827-60.589c-1.446-0.924-3.601-0.924-5.047,0
				c-31.609,20.196-63.219,40.393-94.828,60.589C86.674,269.376,91.684,278.035,97.136,274.551z"/>
		</g>
		<g>
			<path fill="#FFFFFF" d="M207.376,275.416c-0.213,5.348-3.209,11.862-9.436,11.862c-2.833,0-5.667,0-8.5,0s-5.667,0-8.5,0
				c-6.227,0-9.223-6.513-9.436-11.862c-0.179-4.498-7.18-4.516-7,0c0.289,7.247,3.603,14.756,10.698,17.663
				c4.412,1.808,9.568,1.199,14.239,1.199c4.67,0,9.826,0.609,14.238-1.199c7.094-2.908,10.409-10.417,10.698-17.663
				C214.556,270.9,207.556,270.917,207.376,275.416L207.376,275.416z"/>
		</g>
	</g>
</g>
</svg>
