<?xml version="1.0" encoding="iso-8859-1"?>
<!-- Generator: Adobe Illustrator 16.0.0, SVG Export Plug-In . SVG Version: 6.00 Build 0)  -->
<!DOCTYPE svg PUBLIC "-//W3C//DTD SVG 1.1//EN" "http://www.w3.org/Graphics/SVG/1.1/DTD/svg11.dtd">
<svg version="1.1" xmlns="http://www.w3.org/2000/svg" xmlns:xlink="http://www.w3.org/1999/xlink" x="0px" y="0px" width="361px"
	 height="361px" viewBox="0 0 361 361" style="enable-background:new 0 0 361 361;" xml:space="preserve">
<g id="light_x5F_disco_x5F_ball">
	<g>
		<circle style="fill:none;stroke:#FFFFFF;stroke-width:3;stroke-miterlimit:10;" cx="180.984" cy="179.941" r="55.721"/>
		<path style="fill:#FFFFFF;" d="M198.667,83c0,2.761-2.239,5-5,5h-26.333c-2.761,0-5-2.239-5-5v-8.333c0-2.761,2.239-5,5-5h26.333
			c2.761,0,5,2.239,5,5V83z"/>
		<path style="fill:#FFFFFF;" d="M180.983,125.22c2.019,0,4.009,0.113,5.972,0.322c0.955-1.258,1.528-2.823,1.528-4.524V109
			c0-2.218-0.969-4.206-2.5-5.579V75.996h-10v27.426c-1.531,1.374-2.5,3.361-2.5,5.579v12.017c0,1.702,0.573,3.266,1.529,4.524
			C176.975,125.333,178.965,125.22,180.983,125.22z"/>
	</g>
	<g>
		
			<polygon style="fill:none;stroke:#FFFFFF;stroke-width:3;stroke-linecap:round;stroke-linejoin:round;stroke-miterlimit:10;" points="
			138.031,202.223 129.896,202.223 129.53,193.556 138.031,193.556 		"/>
		
			<rect x="138.031" y="193.556" style="fill:none;stroke:#FFFFFF;stroke-width:3;stroke-linecap:round;stroke-linejoin:round;stroke-miterlimit:10;" width="8.667" height="8.667"/>
		
			<rect x="146.698" y="193.556" style="fill:none;stroke:#FFFFFF;stroke-width:3;stroke-linecap:round;stroke-linejoin:round;stroke-miterlimit:10;" width="8.667" height="8.667"/>
		
			<rect x="155.697" y="193.556" style="fill:none;stroke:#FFFFFF;stroke-width:3;stroke-linecap:round;stroke-linejoin:round;stroke-miterlimit:10;" width="8.667" height="8.667"/>
		
			<rect x="164.364" y="193.556" style="fill:none;stroke:#FFFFFF;stroke-width:3;stroke-linecap:round;stroke-linejoin:round;stroke-miterlimit:10;" width="8.667" height="8.667"/>
		
			<rect x="173.031" y="193.556" style="fill:none;stroke:#FFFFFF;stroke-width:3;stroke-linecap:round;stroke-linejoin:round;stroke-miterlimit:10;" width="8.667" height="8.667"/>
		
			<rect x="181.698" y="193.556" style="fill:none;stroke:#FFFFFF;stroke-width:3;stroke-linecap:round;stroke-linejoin:round;stroke-miterlimit:10;" width="8.667" height="8.667"/>
		
			<rect x="190.365" y="193.556" style="fill:none;stroke:#FFFFFF;stroke-width:3;stroke-linecap:round;stroke-linejoin:round;stroke-miterlimit:10;" width="8.667" height="8.667"/>
		
			<rect x="199.032" y="193.556" style="fill:none;stroke:#FFFFFF;stroke-width:3;stroke-linecap:round;stroke-linejoin:round;stroke-miterlimit:10;" width="8.667" height="8.667"/>
		
			<rect x="207.699" y="193.556" style="fill:none;stroke:#FFFFFF;stroke-width:3;stroke-linecap:round;stroke-linejoin:round;stroke-miterlimit:10;" width="8.667" height="8.667"/>
		
			<rect x="216.366" y="193.556" style="fill:none;stroke:#FFFFFF;stroke-width:3;stroke-linecap:round;stroke-linejoin:round;stroke-miterlimit:10;" width="8.667" height="8.667"/>
		
			<polygon style="fill:none;stroke:#FFFFFF;stroke-width:3;stroke-linecap:round;stroke-linejoin:round;stroke-miterlimit:10;" points="
			232.07,202.223 225.033,202.223 225.033,193.556 233.7,193.556 		"/>
		
			<polygon style="fill:none;stroke:#FFFFFF;stroke-width:3;stroke-linecap:round;stroke-linejoin:round;stroke-miterlimit:10;" points="
			134.626,193.556 126.938,193.556 125.959,184.889 134.626,184.889 		"/>
		
			<rect x="134.626" y="184.889" style="fill:none;stroke:#FFFFFF;stroke-width:3;stroke-linecap:round;stroke-linejoin:round;stroke-miterlimit:10;" width="8.667" height="8.667"/>
		
			<rect x="143.293" y="184.889" style="fill:none;stroke:#FFFFFF;stroke-width:3;stroke-linecap:round;stroke-linejoin:round;stroke-miterlimit:10;" width="8.667" height="8.667"/>
		
			<rect x="152.292" y="184.889" style="fill:none;stroke:#FFFFFF;stroke-width:3;stroke-linecap:round;stroke-linejoin:round;stroke-miterlimit:10;" width="8.667" height="8.667"/>
		
			<rect x="160.959" y="184.889" style="fill:none;stroke:#FFFFFF;stroke-width:3;stroke-linecap:round;stroke-linejoin:round;stroke-miterlimit:10;" width="8.667" height="8.667"/>
		
			<rect x="169.626" y="184.889" style="fill:none;stroke:#FFFFFF;stroke-width:3;stroke-linecap:round;stroke-linejoin:round;stroke-miterlimit:10;" width="8.667" height="8.667"/>
		
			<rect x="178.293" y="184.889" style="fill:none;stroke:#FFFFFF;stroke-width:3;stroke-linecap:round;stroke-linejoin:round;stroke-miterlimit:10;" width="8.667" height="8.667"/>
		
			<rect x="186.96" y="184.889" style="fill:none;stroke:#FFFFFF;stroke-width:3;stroke-linecap:round;stroke-linejoin:round;stroke-miterlimit:10;" width="8.667" height="8.667"/>
		
			<rect x="195.627" y="184.889" style="fill:none;stroke:#FFFFFF;stroke-width:3;stroke-linecap:round;stroke-linejoin:round;stroke-miterlimit:10;" width="8.667" height="8.667"/>
		
			<rect x="204.294" y="184.889" style="fill:none;stroke:#FFFFFF;stroke-width:3;stroke-linecap:round;stroke-linejoin:round;stroke-miterlimit:10;" width="8.667" height="8.667"/>
		
			<rect x="212.961" y="184.889" style="fill:none;stroke:#FFFFFF;stroke-width:3;stroke-linecap:round;stroke-linejoin:round;stroke-miterlimit:10;" width="8.667" height="8.667"/>
		
			<rect x="221.628" y="184.889" style="fill:none;stroke:#FFFFFF;stroke-width:3;stroke-linecap:round;stroke-linejoin:round;stroke-miterlimit:10;" width="8.667" height="8.667"/>
		
			<rect x="129.53" y="176.222" style="fill:none;stroke:#FFFFFF;stroke-width:3;stroke-linecap:round;stroke-linejoin:round;stroke-miterlimit:10;" width="8.667" height="8.667"/>
		
			<rect x="138.197" y="176.222" style="fill:none;stroke:#FFFFFF;stroke-width:3;stroke-linecap:round;stroke-linejoin:round;stroke-miterlimit:10;" width="8.667" height="8.667"/>
		
			<rect x="146.864" y="176.222" style="fill:none;stroke:#FFFFFF;stroke-width:3;stroke-linecap:round;stroke-linejoin:round;stroke-miterlimit:10;" width="8.667" height="8.667"/>
		
			<rect x="155.863" y="176.222" style="fill:none;stroke:#FFFFFF;stroke-width:3;stroke-linecap:round;stroke-linejoin:round;stroke-miterlimit:10;" width="8.667" height="8.667"/>
		
			<rect x="164.53" y="176.222" style="fill:none;stroke:#FFFFFF;stroke-width:3;stroke-linecap:round;stroke-linejoin:round;stroke-miterlimit:10;" width="8.667" height="8.667"/>
		
			<rect x="173.197" y="176.222" style="fill:none;stroke:#FFFFFF;stroke-width:3;stroke-linecap:round;stroke-linejoin:round;stroke-miterlimit:10;" width="8.667" height="8.667"/>
		
			<rect x="181.864" y="176.222" style="fill:none;stroke:#FFFFFF;stroke-width:3;stroke-linecap:round;stroke-linejoin:round;stroke-miterlimit:10;" width="8.667" height="8.667"/>
		
			<rect x="190.531" y="176.222" style="fill:none;stroke:#FFFFFF;stroke-width:3;stroke-linecap:round;stroke-linejoin:round;stroke-miterlimit:10;" width="8.667" height="8.667"/>
		
			<rect x="199.198" y="176.222" style="fill:none;stroke:#FFFFFF;stroke-width:3;stroke-linecap:round;stroke-linejoin:round;stroke-miterlimit:10;" width="8.667" height="8.667"/>
		
			<rect x="207.865" y="176.222" style="fill:none;stroke:#FFFFFF;stroke-width:3;stroke-linecap:round;stroke-linejoin:round;stroke-miterlimit:10;" width="8.667" height="8.667"/>
		
			<rect x="216.532" y="176.222" style="fill:none;stroke:#FFFFFF;stroke-width:3;stroke-linecap:round;stroke-linejoin:round;stroke-miterlimit:10;" width="8.667" height="8.667"/>
		
			<polygon style="fill:none;stroke:#FFFFFF;stroke-width:3;stroke-linecap:round;stroke-linejoin:round;stroke-miterlimit:10;" points="
			234.25,184.889 225.199,184.889 225.199,176.222 234.291,176.222 		"/>
		
			<rect x="133.708" y="167.555" style="fill:none;stroke:#FFFFFF;stroke-width:3;stroke-linecap:round;stroke-linejoin:round;stroke-miterlimit:10;" width="8.667" height="8.667"/>
		
			<rect x="142.375" y="167.555" style="fill:none;stroke:#FFFFFF;stroke-width:3;stroke-linecap:round;stroke-linejoin:round;stroke-miterlimit:10;" width="8.667" height="8.667"/>
		
			<rect x="151.042" y="167.555" style="fill:none;stroke:#FFFFFF;stroke-width:3;stroke-linecap:round;stroke-linejoin:round;stroke-miterlimit:10;" width="8.667" height="8.667"/>
		
			<rect x="160.042" y="167.555" style="fill:none;stroke:#FFFFFF;stroke-width:3;stroke-linecap:round;stroke-linejoin:round;stroke-miterlimit:10;" width="8.667" height="8.667"/>
		
			<rect x="168.708" y="167.555" style="fill:none;stroke:#FFFFFF;stroke-width:3;stroke-linecap:round;stroke-linejoin:round;stroke-miterlimit:10;" width="8.667" height="8.667"/>
		
			<rect x="177.375" y="167.555" style="fill:none;stroke:#FFFFFF;stroke-width:3;stroke-linecap:round;stroke-linejoin:round;stroke-miterlimit:10;" width="8.667" height="8.667"/>
		
			<rect x="186.043" y="167.555" style="fill:none;stroke:#FFFFFF;stroke-width:3;stroke-linecap:round;stroke-linejoin:round;stroke-miterlimit:10;" width="8.666" height="8.667"/>
		
			<rect x="194.709" y="167.555" style="fill:none;stroke:#FFFFFF;stroke-width:3;stroke-linecap:round;stroke-linejoin:round;stroke-miterlimit:10;" width="8.668" height="8.667"/>
		
			<rect x="203.377" y="167.555" style="fill:none;stroke:#FFFFFF;stroke-width:3;stroke-linecap:round;stroke-linejoin:round;stroke-miterlimit:10;" width="8.666" height="8.667"/>
		
			<rect x="212.043" y="167.555" style="fill:none;stroke:#FFFFFF;stroke-width:3;stroke-linecap:round;stroke-linejoin:round;stroke-miterlimit:10;" width="8.668" height="8.667"/>
		
			<rect x="220.711" y="167.555" style="fill:none;stroke:#FFFFFF;stroke-width:3;stroke-linecap:round;stroke-linejoin:round;stroke-miterlimit:10;" width="8.666" height="8.667"/>
		
			<polygon style="fill:none;stroke:#FFFFFF;stroke-width:3;stroke-linecap:round;stroke-linejoin:round;stroke-miterlimit:10;" points="
			236.582,176.222 229.377,176.222 229.377,167.555 235.322,167.555 		"/>
		
			<rect x="130.303" y="158.888" style="fill:none;stroke:#FFFFFF;stroke-width:3;stroke-linecap:round;stroke-linejoin:round;stroke-miterlimit:10;" width="8.667" height="8.667"/>
		
			<rect x="138.97" y="158.888" style="fill:none;stroke:#FFFFFF;stroke-width:3;stroke-linecap:round;stroke-linejoin:round;stroke-miterlimit:10;" width="8.667" height="8.667"/>
		
			<rect x="147.637" y="158.888" style="fill:none;stroke:#FFFFFF;stroke-width:3;stroke-linecap:round;stroke-linejoin:round;stroke-miterlimit:10;" width="8.667" height="8.667"/>
		
			<rect x="156.636" y="158.888" style="fill:#FFFFFF;stroke:#FFFFFF;stroke-width:3;stroke-linecap:round;stroke-linejoin:round;stroke-miterlimit:10;" width="8.667" height="8.667"/>
		
			<rect x="165.303" y="158.888" style="fill:none;stroke:#FFFFFF;stroke-width:3;stroke-linecap:round;stroke-linejoin:round;stroke-miterlimit:10;" width="8.667" height="8.667"/>
		
			<rect x="173.97" y="158.888" style="fill:none;stroke:#FFFFFF;stroke-width:3;stroke-linecap:round;stroke-linejoin:round;stroke-miterlimit:10;" width="8.667" height="8.667"/>
		
			<rect x="182.637" y="158.888" style="fill:none;stroke:#FFFFFF;stroke-width:3;stroke-linecap:round;stroke-linejoin:round;stroke-miterlimit:10;" width="8.668" height="8.667"/>
		
			<rect x="191.305" y="158.888" style="fill:none;stroke:#FFFFFF;stroke-width:3;stroke-linecap:round;stroke-linejoin:round;stroke-miterlimit:10;" width="8.666" height="8.667"/>
		
			<rect x="199.971" y="158.888" style="fill:none;stroke:#FFFFFF;stroke-width:3;stroke-linecap:round;stroke-linejoin:round;stroke-miterlimit:10;" width="8.668" height="8.667"/>
		
			<rect x="208.639" y="158.888" style="fill:none;stroke:#FFFFFF;stroke-width:3;stroke-linecap:round;stroke-linejoin:round;stroke-miterlimit:10;" width="8.666" height="8.667"/>
		
			<rect x="217.305" y="158.888" style="fill:none;stroke:#FFFFFF;stroke-width:3;stroke-linecap:round;stroke-linejoin:round;stroke-miterlimit:10;" width="8.668" height="8.667"/>
		
			<polygon style="fill:none;stroke:#FFFFFF;stroke-width:3;stroke-linecap:round;stroke-linejoin:round;stroke-miterlimit:10;" points="
			234.639,167.555 225.973,167.555 225.973,158.888 232.59,158.888 		"/>
		
			<rect x="133.875" y="151.333" style="fill:none;stroke:#FFFFFF;stroke-width:2.8008;stroke-linecap:round;stroke-linejoin:round;stroke-miterlimit:10;" width="8.667" height="7.554"/>
		
			<rect x="142.542" y="151.333" style="fill:none;stroke:#FFFFFF;stroke-width:2.8008;stroke-linecap:round;stroke-linejoin:round;stroke-miterlimit:10;" width="8.667" height="7.554"/>
		
			<rect x="151.208" y="151.333" style="fill:none;stroke:#FFFFFF;stroke-width:2.8008;stroke-linecap:round;stroke-linejoin:round;stroke-miterlimit:10;" width="8.667" height="7.554"/>
		
			<rect x="160.208" y="151.333" style="fill:none;stroke:#FFFFFF;stroke-width:2.8008;stroke-linecap:round;stroke-linejoin:round;stroke-miterlimit:10;" width="8.667" height="7.554"/>
		
			<rect x="168.875" y="151.333" style="fill:none;stroke:#FFFFFF;stroke-width:2.8008;stroke-linecap:round;stroke-linejoin:round;stroke-miterlimit:10;" width="8.667" height="7.554"/>
		
			<rect x="177.542" y="151.333" style="fill:none;stroke:#FFFFFF;stroke-width:2.8008;stroke-linecap:round;stroke-linejoin:round;stroke-miterlimit:10;" width="8.667" height="7.554"/>
		
			<rect x="186.209" y="151.333" style="fill:none;stroke:#FFFFFF;stroke-width:2.8008;stroke-linecap:round;stroke-linejoin:round;stroke-miterlimit:10;" width="8.666" height="7.554"/>
		
			<rect x="194.875" y="151.333" style="fill:#FFFFFF;stroke:#FFFFFF;stroke-width:2.8008;stroke-linecap:round;stroke-linejoin:round;stroke-miterlimit:10;" width="8.668" height="7.554"/>
		
			<rect x="203.543" y="151.333" style="fill:none;stroke:#FFFFFF;stroke-width:2.8008;stroke-linecap:round;stroke-linejoin:round;stroke-miterlimit:10;" width="8.666" height="7.554"/>
		
			<rect x="212.209" y="151.333" style="fill:none;stroke:#FFFFFF;stroke-width:2.8008;stroke-linecap:round;stroke-linejoin:round;stroke-miterlimit:10;" width="8.668" height="7.554"/>
		
			<polygon style="fill:none;stroke:#FFFFFF;stroke-width:2.8008;stroke-linecap:round;stroke-linejoin:round;stroke-miterlimit:10;" points="
			230.041,158.888 220.877,158.888 220.877,151.333 228.811,151.333 		"/>
		
			<polygon style="fill:none;stroke:#FFFFFF;stroke-width:3;stroke-linecap:round;stroke-linejoin:round;stroke-miterlimit:10;" points="
			133.554,176.222 125.623,176.222 126.644,167.555 133.554,167.555 		"/>
		
			<rect x="139.136" y="144.5" style="fill:none;stroke:#FFFFFF;stroke-width:2.6637;stroke-linecap:round;stroke-linejoin:round;stroke-miterlimit:10;" width="8.667" height="6.833"/>
		
			<rect x="147.803" y="144.5" style="fill:none;stroke:#FFFFFF;stroke-width:2.6637;stroke-linecap:round;stroke-linejoin:round;stroke-miterlimit:10;" width="8.667" height="6.833"/>
		
			<rect x="156.802" y="144.5" style="fill:none;stroke:#FFFFFF;stroke-width:2.6637;stroke-linecap:round;stroke-linejoin:round;stroke-miterlimit:10;" width="8.667" height="6.833"/>
		
			<rect x="165.469" y="144.5" style="fill:none;stroke:#FFFFFF;stroke-width:2.6637;stroke-linecap:round;stroke-linejoin:round;stroke-miterlimit:10;" width="8.667" height="6.833"/>
		
			<rect x="174.136" y="144.5" style="fill:none;stroke:#FFFFFF;stroke-width:2.6637;stroke-linecap:round;stroke-linejoin:round;stroke-miterlimit:10;" width="8.667" height="6.833"/>
		
			<rect x="182.803" y="144.5" style="fill:none;stroke:#FFFFFF;stroke-width:2.6637;stroke-linecap:round;stroke-linejoin:round;stroke-miterlimit:10;" width="8.668" height="6.833"/>
		
			<rect x="191.471" y="144.5" style="fill:none;stroke:#FFFFFF;stroke-width:2.6637;stroke-linecap:round;stroke-linejoin:round;stroke-miterlimit:10;" width="8.666" height="6.833"/>
		
			<rect x="200.137" y="144.5" style="fill:none;stroke:#FFFFFF;stroke-width:2.6637;stroke-linecap:round;stroke-linejoin:round;stroke-miterlimit:10;" width="8.668" height="6.833"/>
		
			<rect x="208.805" y="144.5" style="fill:none;stroke:#FFFFFF;stroke-width:2.6637;stroke-linecap:round;stroke-linejoin:round;stroke-miterlimit:10;" width="8.666" height="6.833"/>
		
			<polygon style="fill:none;stroke:#FFFFFF;stroke-width:2.6637;stroke-linecap:round;stroke-linejoin:round;stroke-miterlimit:10;" points="
			228.811,151.333 217.471,151.333 217.471,144.5 223.983,144.5 		"/>
		
			<rect x="143.636" y="139" style="fill:none;stroke:#FFFFFF;stroke-width:2.3898;stroke-linecap:round;stroke-linejoin:round;stroke-miterlimit:10;" width="8.667" height="5.5"/>
		
			<rect x="152.303" y="139" style="fill:none;stroke:#FFFFFF;stroke-width:2.3898;stroke-linecap:round;stroke-linejoin:round;stroke-miterlimit:10;" width="8.667" height="5.5"/>
		
			<rect x="161.302" y="139" style="fill:none;stroke:#FFFFFF;stroke-width:2.3898;stroke-linecap:round;stroke-linejoin:round;stroke-miterlimit:10;" width="8.667" height="5.5"/>
		
			<rect x="169.969" y="139" style="fill:none;stroke:#FFFFFF;stroke-width:2.3898;stroke-linecap:round;stroke-linejoin:round;stroke-miterlimit:10;" width="8.667" height="5.5"/>
		
			<rect x="178.636" y="139" style="fill:#FFFFFF;stroke:#FFFFFF;stroke-width:2.3898;stroke-linecap:round;stroke-linejoin:round;stroke-miterlimit:10;" width="8.667" height="5.5"/>
		
			<rect x="187.303" y="139" style="fill:none;stroke:#FFFFFF;stroke-width:2.3898;stroke-linecap:round;stroke-linejoin:round;stroke-miterlimit:10;" width="8.667" height="5.5"/>
		
			<rect x="195.97" y="139" style="fill:none;stroke:#FFFFFF;stroke-width:2.3898;stroke-linecap:round;stroke-linejoin:round;stroke-miterlimit:10;" width="8.667" height="5.5"/>
		
			<rect x="204.637" y="139" style="fill:none;stroke:#FFFFFF;stroke-width:2.3898;stroke-linecap:round;stroke-linejoin:round;stroke-miterlimit:10;" width="8.667" height="5.5"/>
		
			<polygon style="fill:none;stroke:#FFFFFF;stroke-width:2.3898;stroke-linecap:round;stroke-linejoin:round;stroke-miterlimit:10;" points="
			223.583,144.5 213.304,144.5 213.304,139 219.208,139 		"/>
		
			<polygon style="fill:none;stroke:#FFFFFF;stroke-width:2.3898;stroke-linecap:round;stroke-linejoin:round;stroke-miterlimit:10;" points="
			156.802,139 148.135,139 149.873,133.5 156.802,133.5 		"/>
		
			<rect x="156.802" y="133.5" style="fill:none;stroke:#FFFFFF;stroke-width:2.3898;stroke-linecap:round;stroke-linejoin:round;stroke-miterlimit:10;" width="8.667" height="5.5"/>
		
			<rect x="165.801" y="133.5" style="fill:none;stroke:#FFFFFF;stroke-width:2.3898;stroke-linecap:round;stroke-linejoin:round;stroke-miterlimit:10;" width="8.667" height="5.5"/>
		
			<rect x="174.468" y="133.5" style="fill:none;stroke:#FFFFFF;stroke-width:2.3898;stroke-linecap:round;stroke-linejoin:round;stroke-miterlimit:10;" width="8.667" height="5.5"/>
		
			<rect x="183.135" y="133.5" style="fill:none;stroke:#FFFFFF;stroke-width:2.3898;stroke-linecap:round;stroke-linejoin:round;stroke-miterlimit:10;" width="8.668" height="5.5"/>
		
			<rect x="191.803" y="133.5" style="fill:none;stroke:#FFFFFF;stroke-width:2.3898;stroke-linecap:round;stroke-linejoin:round;stroke-miterlimit:10;" width="8.666" height="5.5"/>
		
			<rect x="200.469" y="133.5" style="fill:none;stroke:#FFFFFF;stroke-width:2.3898;stroke-linecap:round;stroke-linejoin:round;stroke-miterlimit:10;" width="8.668" height="5.5"/>
		
			<polygon style="fill:none;stroke:#FFFFFF;stroke-width:2.0381;stroke-linecap:round;stroke-linejoin:round;stroke-miterlimit:10;" points="
			161.302,133.5 152.635,133.5 156.802,129.5 161.302,129.5 		"/>
		
			<rect x="161.302" y="129.5" style="fill:none;stroke:#FFFFFF;stroke-width:2.0381;stroke-linecap:round;stroke-linejoin:round;stroke-miterlimit:10;" width="8.667" height="4"/>
		
			<rect x="170.301" y="129.5" style="fill:none;stroke:#FFFFFF;stroke-width:2.0381;stroke-linecap:round;stroke-linejoin:round;stroke-miterlimit:10;" width="8.667" height="4"/>
		
			<rect x="178.968" y="129.5" style="fill:none;stroke:#FFFFFF;stroke-width:2.0381;stroke-linecap:round;stroke-linejoin:round;stroke-miterlimit:10;" width="8.667" height="4"/>
		
			<rect x="187.635" y="129.5" style="fill:none;stroke:#FFFFFF;stroke-width:2.0381;stroke-linecap:round;stroke-linejoin:round;stroke-miterlimit:10;" width="8.667" height="4"/>
		
			<rect x="196.302" y="129.5" style="fill:none;stroke:#FFFFFF;stroke-width:2.0381;stroke-linecap:round;stroke-linejoin:round;stroke-miterlimit:10;" width="8.667" height="4"/>
		
			<rect x="183.301" y="125.542" style="fill:none;stroke:#FFFFFF;stroke-width:2.0381;stroke-linecap:round;stroke-linejoin:round;stroke-miterlimit:10;" width="8.668" height="4"/>
		
			<rect x="174.468" y="125.542" style="fill:none;stroke:#FFFFFF;stroke-width:2.0381;stroke-linecap:round;stroke-linejoin:round;stroke-miterlimit:10;" width="8.667" height="4"/>
		
			<polygon style="fill:none;stroke:#FFFFFF;stroke-width:2.0381;stroke-linecap:round;stroke-linejoin:round;stroke-miterlimit:10;" points="
			174.302,129.542 165.635,129.542 166.79,125.542 174.302,125.542 		"/>
		
			<polygon style="fill:none;stroke:#FFFFFF;stroke-width:2.8008;stroke-linecap:round;stroke-linejoin:round;stroke-miterlimit:10;" points="
			220.762,202.223 229.429,202.223 228.052,209.777 220.762,209.777 		"/>
		
			<rect x="212.095" y="202.223" style="fill:none;stroke:#FFFFFF;stroke-width:2.8008;stroke-linecap:round;stroke-linejoin:round;stroke-miterlimit:10;" width="8.667" height="7.555"/>
		
			<rect x="203.428" y="202.223" style="fill:none;stroke:#FFFFFF;stroke-width:2.8008;stroke-linecap:round;stroke-linejoin:round;stroke-miterlimit:10;" width="8.667" height="7.555"/>
		
			<rect x="194.429" y="202.223" style="fill:none;stroke:#FFFFFF;stroke-width:2.8008;stroke-linecap:round;stroke-linejoin:round;stroke-miterlimit:10;" width="8.667" height="7.555"/>
		
			<rect x="185.762" y="202.223" style="fill:none;stroke:#FFFFFF;stroke-width:2.8008;stroke-linecap:round;stroke-linejoin:round;stroke-miterlimit:10;" width="8.667" height="7.555"/>
		
			<rect x="177.095" y="202.223" style="fill:none;stroke:#FFFFFF;stroke-width:2.8008;stroke-linecap:round;stroke-linejoin:round;stroke-miterlimit:10;" width="8.667" height="7.555"/>
		
			<rect x="168.428" y="202.223" style="fill:none;stroke:#FFFFFF;stroke-width:2.8008;stroke-linecap:round;stroke-linejoin:round;stroke-miterlimit:10;" width="8.667" height="7.555"/>
		
			<rect x="159.761" y="202.223" style="fill:none;stroke:#FFFFFF;stroke-width:2.8008;stroke-linecap:round;stroke-linejoin:round;stroke-miterlimit:10;" width="8.667" height="7.555"/>
		
			<rect x="151.094" y="202.223" style="fill:none;stroke:#FFFFFF;stroke-width:2.8008;stroke-linecap:round;stroke-linejoin:round;stroke-miterlimit:10;" width="8.667" height="7.555"/>
		
			<rect x="142.427" y="202.223" style="fill:none;stroke:#FFFFFF;stroke-width:2.8008;stroke-linecap:round;stroke-linejoin:round;stroke-miterlimit:10;" width="8.667" height="7.555"/>
		
			<rect x="133.76" y="202.223" style="fill:none;stroke:#FFFFFF;stroke-width:2.8008;stroke-linecap:round;stroke-linejoin:round;stroke-miterlimit:10;" width="8.667" height="7.555"/>
		
			<polygon style="fill:none;stroke:#FFFFFF;stroke-width:2.6637;stroke-linecap:round;stroke-linejoin:round;stroke-miterlimit:10;" points="
			215.5,209.777 224.167,209.777 222.939,216.609 215.5,216.609 		"/>
		
			<rect x="206.833" y="209.777" style="fill:none;stroke:#FFFFFF;stroke-width:2.6637;stroke-linecap:round;stroke-linejoin:round;stroke-miterlimit:10;" width="8.667" height="6.832"/>
		
			<rect x="197.834" y="209.777" style="fill:none;stroke:#FFFFFF;stroke-width:2.6637;stroke-linecap:round;stroke-linejoin:round;stroke-miterlimit:10;" width="8.667" height="6.832"/>
		
			<rect x="189.167" y="209.777" style="fill:none;stroke:#FFFFFF;stroke-width:2.6637;stroke-linecap:round;stroke-linejoin:round;stroke-miterlimit:10;" width="8.667" height="6.832"/>
		
			<rect x="180.5" y="209.777" style="fill:none;stroke:#FFFFFF;stroke-width:2.6637;stroke-linecap:round;stroke-linejoin:round;stroke-miterlimit:10;" width="8.667" height="6.832"/>
		
			<rect x="171.833" y="209.777" style="fill:none;stroke:#FFFFFF;stroke-width:2.6637;stroke-linecap:round;stroke-linejoin:round;stroke-miterlimit:10;" width="8.667" height="6.832"/>
		
			<rect x="163.166" y="209.777" style="fill:none;stroke:#FFFFFF;stroke-width:2.6637;stroke-linecap:round;stroke-linejoin:round;stroke-miterlimit:10;" width="8.667" height="6.832"/>
		
			<rect x="154.499" y="209.777" style="fill:none;stroke:#FFFFFF;stroke-width:2.6637;stroke-linecap:round;stroke-linejoin:round;stroke-miterlimit:10;" width="8.667" height="6.832"/>
		
			<rect x="145.832" y="209.777" style="fill:#FFFFFF;stroke:#FFFFFF;stroke-width:2.6637;stroke-linecap:round;stroke-linejoin:round;stroke-miterlimit:10;" width="8.667" height="6.832"/>
		
			<polygon style="fill:none;stroke:#FFFFFF;stroke-width:2.6637;stroke-linecap:round;stroke-linejoin:round;stroke-miterlimit:10;" points="
			134.957,209.777 145.832,209.777 145.832,216.609 139.027,216.609 		"/>
		
			<polygon style="fill:none;stroke:#FFFFFF;stroke-width:2.3898;stroke-linecap:round;stroke-linejoin:round;stroke-miterlimit:10;" points="
			211,216.609 219.668,216.609 217.666,222.109 211,222.109 		"/>
		
			<rect x="202.334" y="216.609" style="fill:none;stroke:#FFFFFF;stroke-width:2.3898;stroke-linecap:round;stroke-linejoin:round;stroke-miterlimit:10;" width="8.666" height="5.5"/>
		
			<rect x="193.334" y="216.609" style="fill:none;stroke:#FFFFFF;stroke-width:2.3898;stroke-linecap:round;stroke-linejoin:round;stroke-miterlimit:10;" width="8.668" height="5.5"/>
		
			<rect x="184.668" y="216.609" style="fill:none;stroke:#FFFFFF;stroke-width:2.3898;stroke-linecap:round;stroke-linejoin:round;stroke-miterlimit:10;" width="8.666" height="5.5"/>
		
			<rect x="176" y="216.609" style="fill:none;stroke:#FFFFFF;stroke-width:2.3898;stroke-linecap:round;stroke-linejoin:round;stroke-miterlimit:10;" width="8.667" height="5.5"/>
		
			<rect x="167.333" y="216.609" style="fill:none;stroke:#FFFFFF;stroke-width:2.3898;stroke-linecap:round;stroke-linejoin:round;stroke-miterlimit:10;" width="8.667" height="5.5"/>
		
			<rect x="158.667" y="216.609" style="fill:none;stroke:#FFFFFF;stroke-width:2.3898;stroke-linecap:round;stroke-linejoin:round;stroke-miterlimit:10;" width="8.667" height="5.5"/>
		
			<rect x="150" y="216.609" style="fill:none;stroke:#FFFFFF;stroke-width:2.3898;stroke-linecap:round;stroke-linejoin:round;stroke-miterlimit:10;" width="8.667" height="5.5"/>
		
			<polygon style="fill:none;stroke:#FFFFFF;stroke-width:2.3898;stroke-linecap:round;stroke-linejoin:round;stroke-miterlimit:10;" points="
			139.915,216.779 150,216.609 150,222.109 143.832,221.862 		"/>
		
			<rect x="197.834" y="222.109" style="fill:none;stroke:#FFFFFF;stroke-width:2.3898;stroke-linecap:round;stroke-linejoin:round;stroke-miterlimit:10;" width="8.667" height="5.5"/>
		
			<rect x="188.835" y="222.109" style="fill:none;stroke:#FFFFFF;stroke-width:2.3898;stroke-linecap:round;stroke-linejoin:round;stroke-miterlimit:10;" width="8.667" height="5.5"/>
		
			<rect x="180.168" y="222.109" style="fill:none;stroke:#FFFFFF;stroke-width:2.3898;stroke-linecap:round;stroke-linejoin:round;stroke-miterlimit:10;" width="8.667" height="5.5"/>
		
			<rect x="171.501" y="222.109" style="fill:none;stroke:#FFFFFF;stroke-width:2.3898;stroke-linecap:round;stroke-linejoin:round;stroke-miterlimit:10;" width="8.667" height="5.5"/>
		
			<rect x="162.834" y="222.109" style="fill:#FFFFFF;stroke:#FFFFFF;stroke-width:2.3898;stroke-linecap:round;stroke-linejoin:round;stroke-miterlimit:10;" width="8.667" height="5.5"/>
		
			<rect x="154.167" y="222.109" style="fill:none;stroke:#FFFFFF;stroke-width:2.3898;stroke-linecap:round;stroke-linejoin:round;stroke-miterlimit:10;" width="8.667" height="5.5"/>
		
			<rect x="193.334" y="227.609" style="fill:none;stroke:#FFFFFF;stroke-width:2.0381;stroke-linecap:round;stroke-linejoin:round;stroke-miterlimit:10;" width="8.668" height="4"/>
		
			<rect x="184.336" y="227.609" style="fill:#FFFFFF;stroke:#FFFFFF;stroke-width:2.0381;stroke-linecap:round;stroke-linejoin:round;stroke-miterlimit:10;" width="8.666" height="4"/>
		
			<rect x="175.668" y="227.609" style="fill:none;stroke:#FFFFFF;stroke-width:2.0381;stroke-linecap:round;stroke-linejoin:round;stroke-miterlimit:10;" width="8.667" height="4"/>
		
			<rect x="167.001" y="227.609" style="fill:none;stroke:#FFFFFF;stroke-width:2.0381;stroke-linecap:round;stroke-linejoin:round;stroke-miterlimit:10;" width="8.667" height="4"/>
		
			<polygon style="fill:none;stroke:#FFFFFF;stroke-width:2.0381;stroke-linecap:round;stroke-linejoin:round;stroke-miterlimit:10;" points="
			158.334,227.609 167.001,227.609 167.001,231.609 158.5,231.279 		"/>
		
			<polygon style="fill:none;stroke:#FFFFFF;stroke-width:2.0381;stroke-linecap:round;stroke-linejoin:round;stroke-miterlimit:10;" points="
			171.335,231.568 180.002,231.568 180.002,235.568 171.335,235.072 		"/>
		
			<rect x="180.168" y="231.568" style="fill:none;stroke:#FFFFFF;stroke-width:2.0381;stroke-linecap:round;stroke-linejoin:round;stroke-miterlimit:10;" width="8.667" height="4"/>
	</g>
</g>
<g id="Ebene_1">
</g>
</svg>
