<?xml version="1.0" encoding="iso-8859-1"?>
<!-- Generator: Adobe Illustrator 16.0.0, SVG Export Plug-In . SVG Version: 6.00 Build 0)  -->
<!DOCTYPE svg PUBLIC "-//W3C//DTD SVG 1.1//EN" "http://www.w3.org/Graphics/SVG/1.1/DTD/svg11.dtd">
<svg version="1.1" xmlns="http://www.w3.org/2000/svg" xmlns:xlink="http://www.w3.org/1999/xlink" x="0px" y="0px" width="361px"
	 height="361px" viewBox="0 0 361 361" style="enable-background:new 0 0 361 361;" xml:space="preserve">
<g id="light_x5F_dressing_x5F_room">
	<g>
		<g>
			<path style="fill:#FFFFFF;" d="M203.268,183.674c5.324-4.228,5.694,5.563,5.846,8.319c0.24,4.383,0.472,8.767,0.695,13.15
				c0.236,4.644,0.461,9.287,0.643,13.933c0.091,2.341,1.258,7.287-0.715,8.35c0.752,0.432,1.505,0.863,2.257,1.295
				c-0.147-4.766-0.313-9.529-0.474-14.295c-0.08-2.377-0.921-8.32-0.378-9.719c-0.982-0.133-1.964-0.266-2.946-0.398
				c0.416,6.912,0.388,13.877,0.567,20.799c0.099,3.794,0.197,7.588,0.294,11.382c0.02,0.743,0.039,1.486,0.058,2.229
				c0.048,1.883,0.493,1.399-1.214,1.72c-0.871,0.163-1.742,0.327-2.613,0.49c-1.9,0.356-1.094,3.247,0.797,2.893
				c3.706-0.695,6.146-0.613,6.03-5.103c-0.083-3.256-0.167-6.513-0.252-9.769c-0.212-8.2-0.175-16.453-0.667-24.642
				c-0.105-1.753-2.338-1.963-2.946-0.398c-0.931,2.393,0.149,6.914,0.233,9.406c0.173,5.135,0.352,10.27,0.511,15.404
				c0.036,1.156,1.241,1.842,2.257,1.295c3.722-2.004,2.359-6.348,2.234-10.022c-0.237-6.982-0.624-13.96-0.991-20.936
				c-0.229-4.344-0.244-8.755-0.899-13.059c-0.89-5.833-5.987-7.988-10.447-4.446C199.632,182.756,201.77,184.863,203.268,183.674
				L203.268,183.674z"/>
		</g>
	</g>
	<g>
		<g>
			<path style="fill:#FFFFFF;" d="M212.184,192.674c-0.137-4.428-4.182-7.868-8.523-7.979c-1.936-0.049-1.931,2.951,0,3
				c2.673,0.068,5.438,2.219,5.523,4.979C209.243,194.604,212.243,194.609,212.184,192.674L212.184,192.674z"/>
		</g>
	</g>
	<g>
		<g>
			<path style="fill:#FFFFFF;" d="M285.273,280.704c-0.442,4.87-5.613,4.02-9.019,4.02c-5.077,0-10.154,0-15.232,0
				c-15.509,0-31.019,0-46.528,0c-14.189,0-28.38,0-42.569,0c-4.806,0-15.262,2.019-15.262-5.112c0-52.657,0-105.314,0-157.971
				c0-10.76,0-21.521,0-32.281c0-4.608-1.54-12.385,5.176-12.385c26.094,0,52.188,0,78.281,0c12.185,0,24.368,0,36.553,0
				c3.114,0,8.601-0.756,8.601,4.027c0,1.411,0,2.822,0,4.233c0,23.951,0,47.902,0,71.854
				C285.273,198.294,285.273,239.499,285.273,280.704c0,4.514,7,4.514,7,0c0-49.311,0-98.622,0-147.933c0-17.259,0-34.518,0-51.776
				c0-12.786-14.32-11.021-22.878-11.021c-14.316,0-28.632,0-42.947,0c-15.433,0-30.865,0-46.297,0c-4.962,0-9.925,0-14.888,0
				c-2.924,0-6.199-0.322-8.909,0.948c-7.956,3.73-6.691,12.111-6.691,19.32c0,11.018,0,22.036,0,33.054
				c0,52.207,0,104.415,0,156.622c0,5.678,3.725,11.151,9.746,11.685c2.378,0.21,4.771,0.121,7.157,0.121
				c12.708,0,25.416,0,38.124,0c25.314,0,50.628,0,75.942,0c6.603,0,11.062-4.624,11.642-11.02
				C292.682,276.207,285.678,276.247,285.273,280.704z"/>
		</g>
	</g>
	<g>
		<g>
			<path style="fill:#FFFFFF;" d="M177.032,156.859c0,33.27,0,66.54,0,99.809c0,4.514,7,4.514,7,0c0-33.27,0-66.539,0-99.809
				C184.031,152.345,177.032,152.345,177.032,156.859L177.032,156.859z"/>
		</g>
	</g>
	<g>
		<g>
			<path style="fill:#FFFFFF;" d="M219.965,73.475c0,48.348,0,96.695,0,145.043c0,23.235,0,46.471,0,69.706c0,4.514,7,4.514,7,0
				c0-48.348,0-96.695,0-145.042c0-23.236,0-46.471,0-69.707C226.965,68.96,219.965,68.96,219.965,73.475L219.965,73.475z"/>
		</g>
	</g>
	<g>
		<g>
			<path style="fill:#FFFFFF;" d="M153.163,160.359c23.434,0,46.869,0,70.302,0c4.514,0,4.514-7,0-7c-23.434,0-46.868,0-70.302,0
				C148.648,153.359,148.648,160.359,153.163,160.359L153.163,160.359z"/>
		</g>
	</g>
	<g>
		<g>
			<path style="fill:#FFFFFF;" d="M153.163,260.833c23.434,0,46.869,0,70.302,0c4.514,0,4.514-7,0-7c-23.434,0-46.868,0-70.302,0
				C148.648,253.833,148.648,260.833,153.163,260.833L153.163,260.833z"/>
		</g>
	</g>
	<g>
		<g>
			<path style="fill:#FFFFFF;" d="M223.465,222.879c20.789,0,41.579,0,62.368,0c4.514,0,4.514-7,0-7c-20.789,0-41.579,0-62.368,0
				C218.951,215.879,218.951,222.879,223.465,222.879L223.465,222.879z"/>
		</g>
	</g>
	<g>
		<g>
			<path style="fill:#FFFFFF;" d="M180.833,173.886c14.211,0,28.421,0,42.632,0c1.935,0,1.935-3,0-3c-14.211,0-28.421,0-42.632,0
				C178.898,170.886,178.898,173.886,180.833,173.886L180.833,173.886z"/>
		</g>
	</g>
	<g>
		<g>
			<path style="fill:#FFFFFF;" d="M224.377,146.917c21.466,0,42.931,0,64.396,0c4.514,0,4.514-7,0-7c-21.466,0-42.931,0-64.396,0
				C219.863,139.917,219.863,146.917,224.377,146.917L224.377,146.917z"/>
		</g>
	</g>
	<g>
		<g>
			<path style="fill:#FFFFFF;" d="M224.377,108.294c21.466,0,42.931,0,64.396,0c4.514,0,4.514-7,0-7c-21.466,0-42.931,0-64.396,0
				C219.863,101.294,219.863,108.294,224.377,108.294L224.377,108.294z"/>
		</g>
	</g>
	<g>
		<g>
			<path style="fill:#FFFFFF;" d="M170.856,244.409c-0.02,0.538-0.253,1.562-0.003,1.562c-0.292,0-0.584,0-0.877,0
				c-1.25,0-2.5,0-3.75,0c-1.19,0-2.38,0-3.57,0c-0.227,0-0.454,0-0.682,0c0.404,0,0.089-1.58,0.089-2.143
				c0-1.158,0.531-1.199,1.509-1.199c1.148,0,2.296,0,3.443,0c1.054,0,2.107,0,3.161,0
				C171.171,242.629,170.856,243.573,170.856,244.409c0,1.935,3,1.935,3,0c0-1.707-0.007-3.921-1.971-4.571
				c-1.333-0.441-3.036-0.209-4.413-0.209c-3.186,0-8.411-0.861-8.411,3.801c0,1.602-0.063,5.113,2.203,5.446
				c1.474,0.217,3.009,0.095,4.495,0.095c1.728,0,3.456,0,5.184,0c2.402,0,2.844-2.711,2.912-4.562
				C173.927,242.474,170.927,242.48,170.856,244.409z"/>
		</g>
	</g>
	<g>
		<g>
			<path style="fill:#FFFFFF;" d="M162.387,235.785c0.02-0.538,0.253-1.563,0.003-1.563c0.292,0,0.584,0,0.877,0
				c1.25,0,2.5,0,3.75,0c1.19,0,2.38,0,3.57,0c0.227,0,0.454,0,0.682,0c-0.404,0-0.089,1.581-0.089,2.143
				c0,1.158-0.531,1.199-1.509,1.199c-1.148,0-2.296,0-3.443,0c-1.054,0-2.107,0-3.161,0
				C162.072,237.564,162.387,236.621,162.387,235.785c0-1.935-3-1.935-3,0c0,1.707,0.007,3.92,1.971,4.57
				c1.333,0.441,3.036,0.209,4.412,0.209c3.186,0,8.411,0.861,8.411-3.801c0-1.602,0.063-5.113-2.203-5.446
				c-1.474-0.217-3.009-0.095-4.495-0.095c-1.728,0-3.456,0-5.184,0c-2.402,0-2.843,2.712-2.911,4.563
				C159.316,237.721,162.316,237.714,162.387,235.785z"/>
		</g>
	</g>
	<g>
		<g>
			<path style="fill:#FFFFFF;" d="M162.711,249.893c0.066-1.264-0.091-0.957,1.205-0.957c1.142,0,2.284,0,3.426,0
				c1.094,0,2.189,0,3.283,0c1.32,0,0.88,0.279,0.88,1.647c0,0.772-3.959,0.442-4.491,0.442c-1.068,0-2.137,0-3.205,0
				C162.829,251.025,162.711,250.968,162.711,249.893c0-1.935-3-1.935-3,0c0,1.956,0.472,3.949,2.794,4.105
				c1.495,0.102,3.013,0.027,4.509,0.027c3.26,0,7.491,0.578,7.491-3.892c0-1.825-0.63-4.198-2.88-4.198c-1.428,0-2.855,0-4.283,0
				c-1.573,0-3.146,0-4.719,0c-2.192,0-2.817,2.158-2.912,3.957C159.61,251.827,162.61,251.817,162.711,249.893z"/>
		</g>
	</g>
	<g>
		<g>
			<path style="fill:#FFFFFF;" d="M162.387,228.535c0.066-1.265-0.093-0.958,1.205-0.958c1.142,0,2.284,0,3.426,0
				c1.094,0,2.188,0,3.283,0c1.32,0,0.88,0.279,0.88,1.647c0,0.772-3.959,0.442-4.491,0.442c-1.068,0-2.137,0-3.205,0
				C162.505,229.667,162.387,229.609,162.387,228.535c0-1.935-3-1.935-3,0c0,1.955,0.472,3.949,2.793,4.104
				c1.495,0.101,3.013,0.027,4.509,0.027c3.259,0,7.491,0.579,7.491-3.891c0-1.825-0.63-4.199-2.88-4.199c-1.428,0-2.855,0-4.283,0
				c-1.573,0-3.146,0-4.719,0c-2.192,0-2.817,2.159-2.911,3.958C159.286,230.47,162.286,230.46,162.387,228.535z"/>
		</g>
	</g>
	<g>
		<g>
			<path style="fill:#FFFFFF;" d="M279.576,197.512c-0.428,4.832-6.022,3.849-9.214,3.849c-4.726,0-9.451,0-14.177,0
				s-9.451,0-14.177,0c-3.225,0-9.214,0.996-9.214-4.165c0-4.932,7.21-3.915,10.832-3.915c4.146,0,8.29,0,12.436,0
				c4.649,0,9.299,0,13.947,0C273.784,193.28,279.576,192.328,279.576,197.512c0,1.935,3,1.935,3,0c0-6.477-4.304-7.231-10.11-7.231
				c-5.136,0-10.272,0-15.408,0c-4.819,0-9.638,0-14.456,0s-12.807-0.319-12.807,6.218c0,5.514,3.194,7.862,8.466,7.862
				c5.646,0,11.293,0,16.939,0c6.024,0,12.049,0,18.073,0c4.942,0,8.811-1.281,9.303-6.849
				C282.747,195.584,279.745,195.601,279.576,197.512z"/>
		</g>
	</g>
	<g>
		<g>
			<path style="fill:#FFFFFF;" d="M234.166,182.445c0.427-4.832,6.021-3.848,9.212-3.848c4.726,0,9.451,0,14.177,0s9.451,0,14.177,0
				c3.225,0,9.214-0.997,9.214,4.165c0,4.932-7.21,3.914-10.832,3.914c-4.146,0-8.29,0-12.436,0c-4.648,0-9.298,0-13.946,0
				C239.957,186.676,234.166,187.629,234.166,182.445c0-1.935-3-1.935-3,0c0,6.477,4.303,7.23,10.109,7.23
				c5.136,0,10.271,0,15.408,0c4.818,0,9.637,0,14.455,0s12.807,0.32,12.807-6.217c0-5.515-3.193-7.862-8.466-7.862
				c-5.646,0-11.293,0-16.939,0c-6.024,0-12.049,0-18.073,0c-4.942,0-8.809,1.281-9.301,6.848
				C230.996,184.373,233.997,184.356,234.166,182.445z"/>
		</g>
	</g>
	<g>
		<g>
			<path style="fill:#FFFFFF;" d="M232.795,207.092c0.463-3.65,6.678-2.792,9.214-2.792c4.726,0,9.451,0,14.177,0s9.451,0,14.177,0
				c2.661,0,9.214-0.886,9.214,3.214c0,3.656-8.035,2.677-10.832,2.677c-4.146,0-8.29,0-12.436,0c-4.649,0-9.299,0-13.947,0
				C239.057,210.19,232.795,211.377,232.795,207.092c0-1.935-3-1.935-3,0c0,6.072,5.206,6.099,10.238,6.099
				c5.094,0,10.188,0,15.28,0c4.805,0,9.608,0,14.412,0c4.616,0,12.851,0.693,12.851-5.677c0-5.19-4.554-6.214-8.858-6.214
				c-5.516,0-11.031,0-16.547,0c-5.86,0-11.72,0-17.58,0c-4.533,0-9.113,0.408-9.796,5.792
				C229.552,209.008,232.555,208.984,232.795,207.092z"/>
		</g>
	</g>
	<g>
		<g>
			<path style="fill:#FFFFFF;" d="M232.795,169.78c0.463-3.65,6.678-2.792,9.214-2.792c4.726,0,9.451,0,14.177,0s9.451,0,14.177,0
				c2.661,0,9.214-0.886,9.214,3.214c0,3.657-8.035,2.678-10.832,2.678c-4.146,0-8.29,0-12.436,0c-4.649,0-9.299,0-13.947,0
				C239.057,172.88,232.795,174.066,232.795,169.78c0-1.935-3-1.935-3,0c0,6.072,5.206,6.1,10.238,6.1c5.094,0,10.188,0,15.28,0
				c4.805,0,9.608,0,14.412,0c4.616,0,12.851,0.692,12.851-5.678c0-5.19-4.554-6.214-8.858-6.214c-5.516,0-11.031,0-16.547,0
				c-5.86,0-11.72,0-17.58,0c-4.533,0-9.113,0.409-9.796,5.792C229.552,171.696,232.555,171.672,232.795,169.78z"/>
		</g>
	</g>
	<g>
		<g>
			<path style="fill:#FFFFFF;" d="M211.771,274.799c-0.493,5.509-6.955,4.326-10.813,4.326c-1.66,0-3.201,0.158-4.778-0.591
				c-2.428-1.152-2.143-4.063-2.143-6.241c0-5.508,7.275-4.326,10.812-4.326c1.66,0,3.202-0.158,4.779,0.591
				C212.057,269.71,211.771,272.62,211.771,274.799c0,1.935,3,1.935,3,0c0-6.848-3.186-9.832-9.922-9.832
				c-5.993,0-13.106-0.535-13.812,7.326c-0.616,6.877,3.613,9.832,9.921,9.832c5.994,0,13.108,0.536,13.813-7.326
				C214.944,272.871,211.942,272.888,211.771,274.799z"/>
		</g>
	</g>
	<g>
		<g>
			<path style="fill:#FFFFFF;" d="M193.639,185.373c4.007-4.852,7.203,1.721,7.408,5.618c0.217,4.116,0.426,8.233,0.63,12.352
				c0.26,5.235,0.507,10.471,0.723,15.708c0.099,2.409,1.541,10.585-0.602,11.801c0.752,0.432,1.505,0.863,2.257,1.295
				c-0.251-8.575-0.697-17.157-0.8-25.736c-0.367,0.482-0.734,0.965-1.101,1.447c0.001-0.001,0.002-0.001,0.003-0.001
				c-0.634-0.482-1.267-0.965-1.899-1.446c0.4,7.066,0.376,14.18,0.551,21.254c0.103,4.13,0.203,8.26,0.304,12.39
				c0.021,0.88,0.043,1.759,0.064,2.638c0.05,2.04,0.557,1.537-1.214,1.887c-0.872,0.172-1.744,0.345-2.615,0.517
				c-1.897,0.374-1.092,3.266,0.797,2.893c3.908-0.771,6.144-0.733,6.029-5.403c-0.082-3.375-0.164-6.749-0.247-10.123
				c-0.213-8.671-0.179-17.391-0.669-26.051c-0.057-1.002-0.911-1.667-1.898-1.446c-0.001,0-0.002,0-0.003,0
				c-0.642,0.144-1.109,0.806-1.102,1.446c0.103,8.579,0.549,17.161,0.8,25.736c0.033,1.138,1.248,1.867,2.257,1.295
				c4.093-2.321,2.317-8.265,2.169-12.32c-0.273-7.472-0.658-14.939-1.035-22.406c-0.188-3.737,0.479-9.368-1.444-12.821
				c-2.833-5.085-7.096-7.955-11.483-2.642C190.296,184.731,192.405,186.866,193.639,185.373L193.639,185.373z"/>
		</g>
	</g>
	<g>
		<g>
			<g>
				<path style="fill:#FFFFFF;" d="M207.564,181.167c0.641,0.182,0.2-0.212,0.063-0.791c-0.232-0.992-0.277-2.033-0.348-3.046
					c-0.144-2.061-0.117-4.139-0.025-6.201c-1,0-2,0-3,0c0,0.208,0,0.417,0,0.625c0,1.944,2.905,1.921,3,0
					c0.02-0.405,0.001-2.694,0.758-2.897c-0.633-0.482-1.266-0.964-1.898-1.446c0,0.012,0,0.025,0,0.037
					c0,0.687,0.462,1.243,1.102,1.446c0.839,0.267,0.677,3.303,0.626,4.013c-0.139,1.931,2.862,1.918,3,0
					c0.167-2.321-0.189-6.068-2.829-6.906c0.367,0.482,0.734,0.964,1.102,1.446c0-0.012,0-0.025,0-0.037
					c0-0.979-0.957-1.7-1.898-1.446c-2.476,0.665-2.854,3.608-2.961,5.79c1,0,2,0,3,0c0-0.208,0-0.417,0-0.625
					c0-1.943-2.914-1.923-3,0c-0.121,2.717-1.221,11.873,2.513,12.931C208.633,184.588,209.423,181.693,207.564,181.167
					L207.564,181.167z"/>
			</g>
		</g>
	</g>
	<g>
		<g>
			<path style="fill:#FFFFFF;" d="M182.982,183.847c-0.173-0.096-0.347-0.191-0.521-0.288c-0.482-0.366-0.964-0.733-1.446-1.101
				c1.627,4.071,1.677,7.6,1.836,11.957c0.257,7.027,0.513,14.056,0.758,21.083c0.155,4.43,0.33,8.858,0.49,13.288
				c0.059,1.605,1.593,13.343,0.095,14.114c0.684,0.179,1.368,0.358,2.052,0.538c-0.555-1.085-0.3-5.392-0.37-7.16
				c-0.194-4.888-0.315-9.779-0.438-14.669c-0.11-4.357-0.205-8.715-0.32-13.072c-0.033-1.224,0.426-4.214-0.896-4.985
				c-0.763-0.445-2.053-0.08-2.203,0.896c-0.778,5.048,0.11,10.783,0.228,15.865c0.026,1.154,1.388,18.757-1.046,18.387
				c-1.892-0.288-2.705,2.603-0.798,2.893c7.271,1.107,5.135-9.052,5.029-13.428c-0.118-4.895-0.232-9.789-0.34-14.685
				c-0.051-2.336-0.423-6.664-0.181-8.234c-0.734,0.299-1.469,0.598-2.203,0.896c-1.229-0.718-0.701-1.22-0.637,0.805
				c0.053,1.665,0.091,3.33,0.132,4.994c0.11,4.505,0.214,9.01,0.333,13.514c0.115,4.357,0.241,8.714,0.434,13.067
				c0.084,1.897-0.213,4.672,0.687,6.43c0.386,0.756,1.358,0.896,2.052,0.538c3.222-1.658,1.648-8.958,1.565-11.625
				c-0.163-5.222-0.394-10.441-0.57-15.662c-0.258-7.607-0.538-15.214-0.816-22.82c-0.18-4.933-0.143-9.131-1.979-13.723
				c-0.277-0.693-0.71-1.009-1.446-1.101c-0.094-0.012-0.188-0.023-0.282-0.036c-0.47-0.059-1.1,0.319-1.295,0.743
				c-0.164,0.355-0.328,0.711-0.492,1.066C179.587,184.077,182.173,185.602,182.982,183.847L182.982,183.847z"/>
		</g>
	</g>
	<g>
		<g>
			<path style="fill:#FFFFFF;" d="M187.766,184.207c1.121-2.029,1.916,3.77,1.951,4.854c0.082,2.553,0.165,5.106,0.246,7.659
				c0.231,7.192,0.461,14.385,0.683,21.577c0.138,4.473,0.5,8.852,0.931,13.306c0.18,1.86,2.548,14.434,1.038,15.317
				c0.684,0.179,1.368,0.358,2.052,0.538c-0.516-1.063-0.43-5.056-0.551-6.805c-0.332-4.774-0.598-9.554-0.866-14.332
				c-0.259-4.588-0.505-9.175-0.772-13.762c-0.11-1.889,0.138-4.367-0.479-6.191c-0.359-1.061-1.667-1.482-2.507-0.661
				c-0.961,0.938-0.458,3.459-0.44,4.595c0.072,4.658,0.171,9.316,0.266,13.975c0.093,4.545,0.188,9.089,0.286,13.634
				c0.028,1.354,0.058,2.708,0.087,4.063c0.004,0.192,0.009,0.384,0.013,0.576c1.158,1.139,1.168,1.638,0.026,1.497
				c-0.959,0.074-1.89-0.076-2.792-0.451c-1.839-0.617-2.621,2.28-0.797,2.893c4.225,1.418,6.659,0.516,6.56-4.086
				c-0.075-3.426-0.147-6.852-0.22-10.277c-0.116-5.5-0.229-11-0.334-16.501c-0.038-1.972-0.073-3.943-0.104-5.916
				c-0.009-0.616-0.017-1.233-0.023-1.851c-0.011-1.136,0.293-0.71-0.405-0.028c-0.836-0.221-1.672-0.441-2.507-0.662
				c0.477,1.409,0.343,4.883,0.455,6.829c0.274,4.746,0.528,9.492,0.797,14.238c0.263,4.629,0.531,9.258,0.861,13.882
				c0.147,2.066-0.074,4.937,0.858,6.856c0.356,0.735,1.388,0.927,2.052,0.538c1.579-0.924,1.737-2.781,1.643-4.419
				c-0.222-3.834-0.638-7.662-1.002-11.484c-0.625-6.564-1.051-13.01-1.257-19.603c-0.259-8.314-0.526-16.629-0.795-24.943
				c-0.07-2.163-0.008-4.451-0.994-6.43c-1.628-3.269-4.994-2.751-6.547,0.062C184.239,184.388,186.83,185.9,187.766,184.207
				L187.766,184.207z"/>
		</g>
	</g>
	<g>
		<g>
			<path style="fill:#FFFFFF;" d="M198.524,181.167c0.641,0.182,0.2-0.212,0.063-0.791c-0.233-0.992-0.278-2.033-0.349-3.046
				c-0.144-2.061-0.117-4.139-0.024-6.201c-1,0-2,0-3,0c0,0.208,0,0.417,0,0.625c0,1.944,2.905,1.921,3,0
				c0.02-0.405,0.001-2.694,0.758-2.897c-0.633-0.482-1.266-0.964-1.898-1.446c0,0.012,0,0.025,0,0.037
				c0,0.687,0.462,1.243,1.102,1.446c0.839,0.267,0.677,3.303,0.625,4.013c-0.14,1.931,2.861,1.918,3,0
				c0.168-2.32-0.188-6.068-2.828-6.906c0.367,0.482,0.734,0.964,1.102,1.446c0-0.012,0-0.025,0-0.037
				c0-0.979-0.957-1.7-1.898-1.446c-2.476,0.665-2.854,3.608-2.961,5.79c1,0,2,0,3,0c0-0.208,0-0.417,0-0.625
				c0-1.943-2.914-1.923-3,0c-0.122,2.717-1.222,11.873,2.513,12.931C199.593,184.588,200.383,181.693,198.524,181.167
				L198.524,181.167z"/>
		</g>
	</g>
	<g>
		<g>
			<g>
				<path style="fill:#FFFFFF;" d="M187.592,181.167c0.641,0.181,0.199-0.212,0.063-0.791c-0.233-0.992-0.278-2.033-0.349-3.046
					c-0.144-2.061-0.117-4.139-0.025-6.201c-1,0-2,0-3,0c0,0.208,0,0.417,0,0.625c0,1.944,2.905,1.921,3,0
					c0.02-0.406,0.001-2.694,0.759-2.897c-0.633-0.482-1.266-0.964-1.898-1.446c0,0.012,0,0.025,0,0.037
					c0,0.687,0.462,1.243,1.102,1.446c0.838,0.266,0.677,3.304,0.626,4.013c-0.139,1.932,2.862,1.918,3,0
					c0.166-2.32-0.189-6.067-2.829-6.906c0.367,0.482,0.734,0.964,1.102,1.446c0-0.012,0-0.025,0-0.037
					c0-0.98-0.957-1.699-1.898-1.446c-2.476,0.665-2.854,3.607-2.962,5.79c1,0,2,0,3,0c0-0.208,0-0.417,0-0.625
					c0-1.943-2.914-1.923-3,0c-0.121,2.717-1.221,11.874,2.514,12.931C188.66,184.588,189.45,181.693,187.592,181.167
					L187.592,181.167z"/>
			</g>
		</g>
		<g>
			<g>
				<path style="fill:#FFFFFF;" d="M185.646,184.711c-0.081,0.354-0.776,0.828-0.581,0.775c0.306-0.082,0.136-0.04,0.369-0.065
					c0.458-0.05,0.92-0.059,1.38-0.062s0.92,0.021,1.379,0.062c0.545,0.049-0.227-0.049,0.238,0.036
					c0.083,0.017,0.166,0.037,0.247,0.061c-0.346-0.132-0.579-0.4-0.697-0.807c0.433,1.886,3.325,1.086,2.893-0.797
					c-0.373-1.627-2.788-1.547-4.06-1.555c-1.27-0.008-3.689-0.061-4.061,1.555C182.321,185.797,185.214,186.597,185.646,184.711
					L185.646,184.711z"/>
			</g>
		</g>
	</g>
	<g>
		<g>
			<path style="fill:#FFFFFF;" d="M214.256,145.711c-0.517,4.172-14.47,2.282-16.682,2.282c-2.251,0-16.683,1.871-16.683-2.653
				c0-3.354,14.762-2.181,17.187-2.181c3.172,0,6.345,0,9.517,0C210.047,143.159,214.256,142.361,214.256,145.711
				c0,1.935,3,1.935,3,0c0-8.055-12.703-5.553-18.185-5.553c-4.288,0-21.18-2.313-21.18,4.491c0,9.042,12.646,6.343,18.69,6.343
				c4.61,0,9.221,0,13.831,0c3.798,0,6.349-1.28,6.844-5.282C217.493,143.794,214.49,143.817,214.256,145.711z"/>
		</g>
	</g>
	<g>
		<g>
			<path style="fill:#FFFFFF;" d="M181.893,135.058c0.516-4.172,14.47-2.282,16.682-2.282c2.252,0,16.684-1.871,16.684,2.654
				c0,3.353-14.763,2.18-17.188,2.18c-3.172,0-6.344,0-9.516,0C186.103,137.61,181.893,138.408,181.893,135.058c0-1.935-3-1.935-3,0
				c0,8.054,12.705,5.552,18.186,5.552c4.287,0,21.18,2.313,21.18-4.49c0-9.043-12.645-6.344-18.689-6.344c-4.61,0-9.221,0-13.831,0
				c-3.798,0-6.35,1.28-6.845,5.282C178.655,136.975,181.657,136.952,181.893,135.058z"/>
		</g>
	</g>
	<g>
		<g>
			<path style="fill:#FFFFFF;" d="M181.839,126.501c0.697-3.72,14.66-1.933,16.735-1.933c1.607,0,16.684-1.598,16.684,2.109
				c0,1.838-15.925,1.177-17.188,1.177c-3.172,0-6.344,0-9.516,0c-2.008,0-6.662,0.806-6.662-1.752c0-1.935-3-1.935-3,0
				c0,7.244,14.374,4.752,19.178,4.752c3.492,0,20.188,1.961,20.188-3.602c0-8.154-12.289-5.685-17.7-5.685
				c-4.615,0-9.231,0-13.847,0c-3.385,0-7.015,0.134-7.765,4.135C178.591,127.594,181.482,128.401,181.839,126.501z"/>
		</g>
	</g>
	<g>
		<g>
			<path style="fill:#FFFFFF;" d="M233.311,116.417c0.176-2.593,1.061-2.077,2.802-2.077c1.816,0,3.632,0,5.447,0
				c1.74,0,3.48,0,5.222,0c2.017,0,2.285,0.897,2.285,3.081c0,2.075-7.801,1.328-8.762,1.328
				C237.846,118.749,233.311,119.784,233.311,116.417c0-1.935-3-1.935-3,0c0,6.347,5.188,5.332,9.994,5.332
				c3.773,0,11.762,1.398,11.762-4.328c0-2.484-0.308-5.589-3.297-6.027c-2.09-0.307-4.365-0.054-6.471-0.054
				c-2.699,0-5.398,0-8.098,0c-2.933,0-3.724,2.612-3.891,5.077C230.18,118.349,233.181,118.336,233.311,116.417z"/>
		</g>
	</g>
	<g>
		<g>
			<path style="fill:#FFFFFF;" d="M248.551,126.492c-0.175,2.594-1.061,2.077-2.802,2.077c-1.816,0-3.632,0-5.447,0
				c-1.74,0-3.48,0-5.222,0c-2.017,0-2.285-0.897-2.285-3.081c0-2.074,7.801-1.328,8.761-1.328
				C244.014,124.16,248.551,123.125,248.551,126.492c0,1.935,3,1.935,3,0c0-6.346-5.19-5.332-9.995-5.332
				c-3.771,0-11.761-1.397-11.761,4.328c0,2.484,0.307,5.589,3.297,6.027c2.09,0.307,4.365,0.054,6.471,0.054
				c2.699,0,5.398,0,8.098,0c2.934,0,3.725-2.612,3.891-5.077C251.682,124.56,248.681,124.572,248.551,126.492z"/>
		</g>
	</g>
	<g>
		<g>
			<path style="fill:#FFFFFF;" d="M248.551,134.962c-0.256,2.501-6.552,1.371-8.249,1.371c-2.45,0-7.507,1.293-7.507-2.177
				c0-1.235,7.351-0.77,8.026-0.77C242.512,133.386,248.551,132.454,248.551,134.962c0,1.935,3,1.935,3,0
				c0-5.759-5.825-4.576-9.995-4.576c-3.321,0-11.761-1.416-11.761,3.77c0,6.225,5.174,5.177,9.768,5.177
				c4.5,0,11.367,1.698,11.988-4.371C251.748,133.038,248.746,133.057,248.551,134.962z"/>
		</g>
	</g>
	<g>
		<g>
			<path style="fill:#FFFFFF;" d="M259.571,117.815c0.175-2.593,1.063-2.077,2.803-2.077c1.815,0,3.631,0,5.446,0
				c1.74,0,3.48,0,5.221,0c2.017,0,2.286,0.898,2.286,3.081c0,2.076-7.801,1.329-8.762,1.328
				C264.105,120.147,259.571,121.183,259.571,117.815c0-1.935-3-1.935-3,0c0,6.347,5.188,5.333,9.994,5.333
				c3.772,0,11.762,1.398,11.762-4.328c0-2.484-0.308-5.589-3.298-6.027c-2.09-0.307-4.364-0.054-6.47-0.054
				c-2.699,0-5.397,0-8.097,0c-2.934,0-3.725,2.611-3.892,5.077C256.44,119.747,259.441,119.734,259.571,117.815z"/>
		</g>
	</g>
	<g>
		<g>
			<path style="fill:#FFFFFF;" d="M274.811,126.521c-0.175,2.594-1.061,2.077-2.802,2.077c-1.815,0-3.632,0-5.447,0
				c-1.74,0-3.48,0-5.221,0c-2.018,0-2.285-0.898-2.285-3.082c0-2.075,7.8-1.328,8.761-1.328
				C270.275,124.188,274.811,123.152,274.811,126.521c0,1.935,3,1.935,3,0c0-6.347-5.188-5.333-9.994-5.333
				c-3.772,0-11.761-1.397-11.761,4.328c0,2.484,0.307,5.59,3.297,6.028c2.09,0.307,4.364,0.054,6.47,0.054c2.699,0,5.398,0,8.098,0
				c2.934,0,3.725-2.612,3.891-5.077C277.941,124.588,274.94,124.601,274.811,126.521z"/>
		</g>
	</g>
	<g>
		<g>
			<path style="fill:#FFFFFF;" d="M274.811,134.991c-0.256,2.5-6.553,1.37-8.249,1.37c-2.449,0-7.506,1.293-7.506-2.176
				c0-1.235,7.35-0.77,8.025-0.77C268.772,133.415,274.811,132.481,274.811,134.991c0,1.935,3,1.935,3,0
				c0-5.759-5.824-4.576-9.994-4.576c-3.322,0-11.761-1.416-11.761,3.77c0,6.224,5.174,5.176,9.767,5.176
				c4.5,0,11.368,1.698,11.988-4.37C278.008,133.066,275.006,133.085,274.811,134.991z"/>
		</g>
	</g>
	<g>
		<g>
			<path style="fill:#FFFFFF;" d="M161.709,128.191c0.106-2.234,0.271-2.077,2.074-2.077c1.712,0,3.425,0,5.138,0
				c1.367,0,2.734,0,4.101,0c1.714,0,1.265,1.811,1.265,3.221c0,1.91-5.859,1.188-7.022,1.188c-1.392,0-2.783,0-4.174,0
				C161.526,130.523,161.709,129.502,161.709,128.191c0-1.935-3-1.935-3,0c0,2.27,0.143,4.258,2.492,5.176
				c1.476,0.578,3.942,0.156,5.458,0.156c3.604,0,10.627,1.24,10.627-4.188c0-1.831,0.05-5.722-2.506-6.104
				c-1.918-0.287-3.926-0.116-5.86-0.116c-2.242,0-4.483,0-6.725,0c-2.795,0-3.379,2.822-3.486,5.077
				C158.617,130.126,161.618,130.117,161.709,128.191z"/>
		</g>
	</g>
	<g>
		<g>
			<path style="fill:#FFFFFF;" d="M173.858,138.267c-0.106,2.234-0.271,2.077-2.073,2.077c-1.712,0-3.425,0-5.138,0
				c-1.367,0-2.734,0-4.101,0c-1.715,0-1.265-1.812-1.265-3.222c0-1.908,5.86-1.188,7.021-1.188c1.392,0,2.783,0,4.174,0
				C174.042,135.934,173.858,136.956,173.858,138.267c0,1.935,3,1.935,3,0c0-2.27-0.143-4.257-2.492-5.176
				c-1.477-0.578-3.941-0.156-5.458-0.156c-3.603,0-10.627-1.24-10.627,4.188c0,1.831-0.051,5.723,2.506,6.105
				c1.918,0.287,3.926,0.116,5.86,0.116c2.242,0,4.484,0,6.726,0c2.795,0,3.378-2.823,3.486-5.077
				C176.951,136.332,173.95,136.341,173.858,138.267z"/>
		</g>
	</g>
	<g>
		<g>
			<path style="fill:#FFFFFF;" d="M173.858,146.736c-0.125,1.794-0.739,1.37-2.073,1.37c-1.508,0-3.016,0-4.524,0
				c-1.445,0-2.891,0-4.336,0c-1.574,0-1.644-0.479-1.644-2.176c0-1.262,6.47-0.77,7.021-0.77c1.313,0,2.625,0,3.938,0
				C173.479,145.161,173.858,145.479,173.858,146.736c0,1.935,3,1.935,3,0c0-5.387-4.508-4.576-8.556-4.576
				c-3.249,0-10.021-1.146-10.021,3.77c0,2.151,0.359,4.759,2.924,5.122c1.766,0.25,3.664,0.054,5.442,0.054
				c4.279,0,9.809,1.385,10.211-4.37C176.993,144.805,173.993,144.818,173.858,146.736z"/>
		</g>
	</g>
	<g>
		<g>
			<g>
				<path style="fill:#FFFFFF;" d="M258.423,282.586c-0.141-3.219-0.282-6.438-0.423-9.657c-0.084-1.927-3.085-1.935-3,0
					c0.141,3.219,0.282,6.438,0.423,9.657C255.507,284.513,258.508,284.521,258.423,282.586L258.423,282.586z"/>
			</g>
		</g>
		<g>
			<g>
				<path style="fill:#FFFFFF;" d="M256.854,266.601c-0.017,2.035,0.256,4.476-1.625,5.763c-1.289,0.882-2.414,1.176-3.356,2.479
					c-1.056,1.461-1.534,3.472-2.295,5.085c-1.23,2.609-3.059,2.482-5.617,2.294c-1.931-0.143-1.917,2.858,0,3
					c2.437,0.18,4.442,0.403,6.408-1.195c1.883-1.532,2.586-4.475,3.524-6.6c0.912-2.064,3.311-2.247,4.604-4.03
					c1.41-1.943,1.339-4.5,1.357-6.796C259.869,264.665,256.869,264.667,256.854,266.601L256.854,266.601z"/>
			</g>
		</g>
		<g>
			<g>
				<path style="fill:#FFFFFF;" d="M256.904,266.574c-1.479,4.097-1.727-2.674-4.635-0.849c-2.048,1.287-3.001,4.429-4.061,6.461
					c-0.869,1.669-1.813,3.321-3.041,4.755c-0.927,1.083-2.227,1.558-2.801,2.935c-0.758,1.818-1.135,5.944,1.991,5.292
					c1.894-0.395,1.091-3.286-0.797-2.893c-0.096,0.02-0.191,0.04-0.287,0.06c0.486,0.129,0.974,0.257,1.46,0.386
					c-0.771-0.653,3.791-5.204,4.344-6.029c1.544-2.307,2.62-4.893,3.969-7.311c0.192-0.345,0.398-0.694,0.654-0.997
					c-0.398-0.008-0.797-0.016-1.195-0.023c0.104,0.438,0.225,0.872,0.362,1.302c0.294,0.999,1.092,1.979,2.123,2.263
					c2.659,0.731,4.12-2.654,4.806-4.554C260.455,265.547,257.556,264.769,256.904,266.574L256.904,266.574z"/>
			</g>
		</g>
		<g>
			<g>
				<path style="fill:#FFFFFF;" d="M258.423,282.586c0.361-4.056,0.724-8.111,1.085-12.167c0.172-1.928-2.83-1.911-3,0
					c-0.361,4.056-0.724,8.111-1.085,12.167C255.251,284.514,258.252,284.497,258.423,282.586L258.423,282.586z"/>
			</g>
		</g>
	</g>
	<g>
		<g>
			<g>
				<path style="fill:#FFFFFF;" d="M244.408,282.13c-0.142-3.219-0.282-6.438-0.424-9.657c-0.085-1.927-3.085-1.935-3,0
					c0.142,3.219,0.282,6.438,0.424,9.657C241.493,284.057,244.493,284.064,244.408,282.13L244.408,282.13z"/>
			</g>
		</g>
		<g>
			<g>
				<path style="fill:#FFFFFF;" d="M242.838,266.145c-0.017,2.035,0.256,4.477-1.624,5.763c-1.29,0.883-2.415,1.177-3.356,2.479
					c-1.056,1.461-1.534,3.472-2.296,5.085c-1.23,2.609-3.059,2.481-5.617,2.293c-1.931-0.143-1.917,2.858,0,3
					c2.437,0.18,4.442,0.404,6.408-1.195c1.882-1.531,2.586-4.474,3.525-6.599c0.912-2.063,3.31-2.247,4.603-4.03
					c1.41-1.943,1.339-4.5,1.357-6.796C245.854,264.209,242.854,264.211,242.838,266.145L242.838,266.145z"/>
			</g>
		</g>
		<g>
			<g>
				<path style="fill:#FFFFFF;" d="M242.889,266.118c-1.478,4.095-1.729-2.675-4.635-0.849c-2.048,1.287-3.001,4.428-4.061,6.461
					c-0.869,1.669-1.814,3.321-3.041,4.755c-0.927,1.082-2.227,1.557-2.801,2.934c-0.757,1.814-1.135,5.949,1.991,5.292
					c1.894-0.397,1.09-3.289-0.797-2.893c-0.096,0.02-0.191,0.04-0.287,0.061c0.486,0.128,0.974,0.257,1.46,0.386
					c-0.771-0.653,3.791-5.204,4.344-6.03c1.544-2.306,2.62-4.892,3.969-7.31c0.192-0.346,0.398-0.694,0.654-0.997
					c-0.398-0.008-0.797-0.017-1.195-0.024c0.104,0.438,0.225,0.873,0.362,1.302c0.293,1,1.092,1.979,2.123,2.264
					c2.659,0.73,4.12-2.653,4.806-4.554C246.439,265.091,243.54,264.313,242.889,266.118L242.889,266.118z"/>
			</g>
		</g>
		<g>
			<g>
				<path style="fill:#FFFFFF;" d="M244.408,282.13c0.361-4.056,0.724-8.111,1.085-12.167c0.172-1.928-2.829-1.911-3,0
					c-0.361,4.056-0.724,8.111-1.085,12.167C241.236,284.058,244.238,284.041,244.408,282.13L244.408,282.13z"/>
			</g>
		</g>
	</g>
	<g>
		<g>
			<g>
				<path style="fill:#FFFFFF;" d="M280.138,281.095c-0.063-3.885-0.124-7.77-0.187-11.654c-0.031-1.933-3.031-1.936-3,0
					c0.063,3.885,0.124,7.77,0.187,11.654C277.169,283.027,280.169,283.03,280.138,281.095L280.138,281.095z"/>
			</g>
		</g>
		<g>
			<g>
				<path style="fill:#FFFFFF;" d="M278.32,248.52c-0.029,6.481-0.206,13.096-1.27,19.499c-0.32,1.928-3.06,13.092-3.583,12.999
					c-1.891-0.337-2.699,2.554-0.797,2.893c6.276,1.119,4.948-8.483,6.537-12.39c2.741-6.741,2.08-15.864,2.112-23.001
					C281.329,246.585,278.329,246.585,278.32,248.52L278.32,248.52z"/>
			</g>
		</g>
		<g>
			<g>
				<path style="fill:#FFFFFF;" d="M280.219,247.073c-2.125-0.398-4.389-0.312-4.671,2.341c-0.422,3.963-0.284,8.008-0.668,11.992
					c-0.443,4.6-1.008,9.303-2.37,13.734c-0.8,2.605-1.907,4.906-1.166,7.766c0.202,0.784,1.068,1.272,1.845,1.048
					c0.051-0.015,0.102-0.029,0.151-0.044c1.855-0.536,1.065-3.432-0.797-2.893c-0.051,0.015-0.102,0.029-0.152,0.044
					c0.615,0.349,1.23,0.698,1.846,1.048c-0.566-2.188,0.456-4.191,1.166-6.171c1.06-2.951,1.425-6.22,1.858-9.307
					c0.402-2.865,0.688-5.745,0.921-8.629c0.105-1.319-0.192-8.306,1.24-8.037C281.313,250.32,282.119,247.43,280.219,247.073
					L280.219,247.073z"/>
			</g>
		</g>
		<g>
			<g>
				<path style="fill:#FFFFFF;" d="M280.138,281.866c0.159-5.152,0.317-10.304,0.477-15.456c0.06-1.936-2.94-1.93-3,0
					c-0.159,5.152-0.317,10.304-0.477,15.456C277.078,283.802,280.078,283.796,280.138,281.866L280.138,281.866z"/>
			</g>
		</g>
	</g>
	<g>
		<g>
			<g>
				<path style="fill:#FFFFFF;" d="M270.383,280.313c-0.073-3.886-0.147-7.771-0.221-11.656c-0.036-1.933-3.037-1.936-3,0
					c0.073,3.886,0.147,7.771,0.221,11.656C267.419,282.246,270.42,282.249,270.383,280.313L270.383,280.313z"/>
			</g>
		</g>
		<g>
			<g>
				<path style="fill:#FFFFFF;" d="M268.787,247.737c-0.034,6.479-0.261,13.13-1.518,19.499c-0.345,1.749-1.335,3.102-1.781,4.804
					c-0.461,1.757-0.67,8.563-2.82,8.196c-1.892-0.322-2.701,2.568-0.797,2.893c7.224,1.229,4.484-8.134,7.268-12.031
					c1.623-2.273,1.585-6.255,1.885-8.917c0.54-4.785,0.738-9.63,0.764-14.443C271.797,245.803,268.797,245.804,268.787,247.737
					L268.787,247.737z"/>
			</g>
		</g>
		<g>
			<g>
				<path style="fill:#FFFFFF;" d="M270.686,246.291c-7.556-1.228-5.311,8.017-5.851,13.162c-0.498,4.743-1.218,9.565-2.672,14.12
					c-0.921,2.887-2.673,5.298-1.673,8.552c0.246,0.8,1.033,1.244,1.846,1.048c0.06-0.015,0.12-0.029,0.18-0.044
					c1.88-0.454,1.083-3.348-0.797-2.893c-0.061,0.015-0.12,0.029-0.181,0.044c0.615,0.349,1.23,0.698,1.845,1.047
					c-0.714-2.323,0.647-4.145,1.387-6.17c1.098-3.008,1.682-6.158,2.207-9.309c0.477-2.858,0.807-5.744,1.083-8.629
					c0.158-1.656-0.452-8.406,1.829-8.036C271.78,249.491,272.592,246.601,270.686,246.291L270.686,246.291z"/>
			</g>
		</g>
		<g>
			<g>
				<path style="fill:#FFFFFF;" d="M270.383,281.085c0.188-5.152,0.378-10.305,0.566-15.457c0.071-1.936-2.93-1.929-3,0
					c-0.188,5.152-0.378,10.305-0.566,15.457C267.312,283.021,270.313,283.014,270.383,281.085L270.383,281.085z"/>
			</g>
		</g>
	</g>
	<g>
		<g>
			<g>
				<path style="fill:#FFFFFF;" d="M184.455,282.362c-0.063-1.359-0.124-2.72-0.187-4.079c-0.088-1.927-3.089-1.935-3,0
					c0.063,1.359,0.124,2.72,0.187,4.079C181.543,284.289,184.544,284.297,184.455,282.362L184.455,282.362z"/>
			</g>
		</g>
		<g>
			<g>
				<path style="fill:#FFFFFF;" d="M182.637,270.96c-0.035,2.151-0.233,4.628-1.306,6.538c-0.338,0.604-1.092,0.95-1.457,1.634
					c-0.715,1.343-0.703,2.339-2.488,2.211c-1.931-0.139-1.918,2.862,0,3c1.481,0.106,2.607,0.07,3.679-1.052
					c1.002-1.049,1.236-2.519,2.134-3.404c2.147-2.118,2.392-6.087,2.438-8.927C185.668,269.024,182.668,269.027,182.637,270.96
					L182.637,270.96z"/>
			</g>
		</g>
		<g>
			<g>
				<path style="fill:#FFFFFF;" d="M184.137,269.46c-1.352-0.096-3.049-0.332-3.959,0.914c-0.704,0.963-0.43,2.597-0.675,3.727
					c-0.402,1.862-1.083,3.917-2.38,5.351c-1.002,1.106-2.148,2.057-1.5,3.775c0.253,0.672,0.724,1.047,1.446,1.102
					c0.064,0.005,0.127,0.01,0.191,0.015c1.931,0.147,1.916-2.854,0-3c-0.063-0.005-0.127-0.01-0.191-0.015
					c0.482,0.367,0.964,0.734,1.447,1.102c-0.097-0.258,1.657-2.022,1.88-2.365c0.699-1.072,1.147-2.352,1.553-3.556
					c0.367-1.084,0.637-2.234,0.751-3.374c0.046-0.457,0.046-0.907,0.056-1.366c-0.656,0.547-0.648,0.752,0.023,0.614
					c0.453,0.012,0.905,0.038,1.357,0.077C186.068,272.596,186.055,269.595,184.137,269.46L184.137,269.46z"/>
			</g>
		</g>
		<g>
			<g>
				<path style="fill:#FFFFFF;" d="M184.455,282.633c0.159-1.804,0.317-3.607,0.477-5.411c0.17-1.928-2.832-1.911-3,0
					c-0.159,1.804-0.317,3.607-0.477,5.411C181.285,284.561,184.287,284.544,184.455,282.633L184.455,282.633z"/>
			</g>
		</g>
	</g>
	<g>
		<g>
			<g>
				<path style="fill:#FFFFFF;" d="M174.7,282.089c-0.074-1.359-0.147-2.72-0.221-4.079c-0.104-1.924-3.104-1.934-3,0
					c0.074,1.359,0.147,2.72,0.221,4.079C171.804,284.013,174.804,284.022,174.7,282.089L174.7,282.089z"/>
			</g>
		</g>
		<g>
			<g>
				<path style="fill:#FFFFFF;" d="M173.104,270.687c-0.034,1.748-0.156,5.8-1.953,6.74c-0.716,0.374-1.142,1.03-1.521,1.717
					c-0.243,0.44-0.455,0.896-0.701,1.335c-0.497,0.889-1.481,0.643-2.343,0.591c-1.933-0.117-1.922,2.884,0,3
					c1.631,0.099,2.817,0.089,4.104-0.981c1.152-0.958,1.443-2.512,2.602-3.475c2.36-1.961,2.758-6.07,2.813-8.927
					C176.142,268.751,173.142,268.755,173.104,270.687L173.104,270.687z"/>
			</g>
		</g>
		<g>
			<g>
				<path style="fill:#FFFFFF;" d="M174.604,269.187c-1.397-0.085-3.25-0.384-4.341,0.732c-0.876,0.896-0.575,2.644-0.858,3.782
					c-0.475,1.913-1.399,4.342-3.047,5.552c-1.399,1.028-2.232,2.298-1.446,4.059c0.218,0.489,0.805,0.712,1.295,0.743
					c0.076,0.005,0.151,0.01,0.227,0.015c1.933,0.124,1.92-2.876,0-3c-0.076-0.005-0.151-0.01-0.227-0.015
					c0.432,0.248,0.864,0.495,1.295,0.743c0.256,0.574,2.194-1.699,2.329-1.892c0.85-1.209,1.455-2.518,1.985-3.893
					c0.439-1.141,0.705-2.326,0.845-3.537c0.136-1.188,0.083-0.416-0.423-0.349c0.768-0.102,1.599,0.012,2.366,0.059
					C176.538,272.304,176.526,269.304,174.604,269.187L174.604,269.187z"/>
			</g>
		</g>
		<g>
			<g>
				<path style="fill:#FFFFFF;" d="M174.7,282.358c0.189-1.803,0.378-3.606,0.567-5.409c0.202-1.923-2.8-1.904-3,0
					c-0.189,1.803-0.378,3.606-0.567,5.409C171.498,284.281,174.5,284.263,174.7,282.358L174.7,282.358z"/>
			</g>
		</g>
	</g>
	<g>
		<g>
			<path style="fill:#FFFFFF;" d="M213.816,116.499c-0.517,4.171-14.472,2.282-16.683,2.282c-2.252,0-16.682,1.871-16.682-2.653
				c0-3.354,14.762-2.181,17.187-2.181c3.172,0,6.345,0,9.517,0C209.607,113.946,213.816,113.148,213.816,116.499
				c0,1.935,3,1.935,3,0c0-8.055-12.703-5.553-18.185-5.553c-4.288,0-21.18-2.313-21.18,4.491c0,9.042,12.644,6.343,18.688,6.343
				c4.61,0,9.221,0,13.831,0c3.798,0,6.351-1.279,6.846-5.282C217.054,114.582,214.051,114.605,213.816,116.499z"/>
		</g>
	</g>
	<g>
		<g>
			<path style="fill:#FFFFFF;" d="M181.452,105.846c0.517-4.172,14.472-2.282,16.683-2.282c2.253,0,16.683-1.871,16.683,2.654
				c0,3.353-14.762,2.18-17.186,2.18c-3.173,0-6.345,0-9.517,0C185.663,108.397,181.452,109.196,181.452,105.846
				c0-1.935-3-1.935-3,0c0,8.054,12.705,5.552,18.187,5.552c4.287,0,21.179,2.313,21.179-4.49c0-9.043-12.643-6.344-18.688-6.344
				c-4.61,0-9.221,0-13.831,0c-3.798,0-6.351,1.28-6.846,5.282C178.215,107.763,181.218,107.74,181.452,105.846z"/>
		</g>
	</g>
	<g>
		<g>
			<path style="fill:#FFFFFF;" d="M181.398,97.289c0.697-3.72,14.662-1.933,16.736-1.933c1.608,0,16.683-1.598,16.683,2.109
				c0,1.839-15.924,1.177-17.186,1.177c-3.173,0-6.345,0-9.517,0c-2.008,0-6.663,0.806-6.663-1.752c0-1.935-3-1.935-3,0
				c0,7.244,14.374,4.752,19.18,4.752c3.492,0,20.186,1.961,20.186-3.602c0-8.154-12.288-5.685-17.698-5.685
				c-4.616,0-9.232,0-13.848,0c-3.385,0-7.016,0.134-7.766,4.135C178.151,98.381,181.042,99.188,181.398,97.289z"/>
		</g>
	</g>
	<g>
		<g>
			<g>
				<path style="fill:#FFFFFF;" d="M84.09,162.94c8.917,1.522,17.833,3.045,26.749,4.567c4.414,0.753,6.304-5.991,1.861-6.75
					c-8.917-1.522-17.833-3.045-26.749-4.567C81.537,155.437,79.647,162.181,84.09,162.94L84.09,162.94z"/>
			</g>
		</g>
		<g>
			<g>
				<path style="fill:#FFFFFF;" d="M84.364,172.556c8.917,1.522,17.833,3.045,26.749,4.567c4.414,0.754,6.304-5.991,1.861-6.75
					c-8.917-1.522-17.833-3.045-26.749-4.567C81.812,165.052,79.921,171.797,84.364,172.556L84.364,172.556z"/>
			</g>
		</g>
		<g>
			<g>
				<path style="fill:#FFFFFF;" d="M84.364,181.896c8.917,1.523,17.833,3.046,26.749,4.568c4.414,0.754,6.304-5.991,1.861-6.75
					c-8.917-1.522-17.833-3.045-26.749-4.568C81.812,174.393,79.921,181.139,84.364,181.896L84.364,181.896z"/>
			</g>
		</g>
		<g>
			<g>
				<path style="fill:#FFFFFF;" d="M90.058,191.868c5.004,0.854,10.008,1.709,15.012,2.563c4.414,0.754,6.304-5.991,1.861-6.75
					c-5.004-0.854-10.008-1.709-15.012-2.563C87.505,184.364,85.615,191.109,90.058,191.868L90.058,191.868z"/>
			</g>
		</g>
		<path style="fill:none;stroke:#FFFFFF;stroke-width:10;stroke-miterlimit:10;" d="M121.034,137c0,7.544-6.116,13.66-13.66,13.66
			H89.16c-7.544,0-13.66-6.116-13.66-13.66V88.431c0-7.544,6.116-13.66,13.66-13.66h18.213c7.544,0,13.66,6.116,13.66,13.66V137z"/>
	</g>
</g>
<g id="Ebene_1">
</g>
</svg>
