<?xml version="1.0" encoding="iso-8859-1"?>
<!-- Generator: Adobe Illustrator 24.0.1, SVG Export Plug-In . SVG Version: 6.00 Build 0)  -->
<svg version="1.1" xmlns="http://www.w3.org/2000/svg" xmlns:xlink="http://www.w3.org/1999/xlink" x="0px" y="0px"
	 viewBox="0 0 361 361" style="enable-background:new 0 0 361 361;" xml:space="preserve">
<g id="light_x5F_floor_x5F_lamp_x5F_2">
	<g>
		<g>
			<path style="fill:#FFFFFF;" d="M84.09,162.513c8.916,1.522,17.833,3.045,26.749,4.567c4.406,0.752,6.299-5.992,1.861-6.75
				c-8.916-1.522-17.833-3.045-26.749-4.567C81.545,155.01,79.652,161.755,84.09,162.513L84.09,162.513z"/>
		</g>
	</g>
	<g>
		<g>
			<path style="fill:#FFFFFF;" d="M84.364,172.128c8.916,1.522,17.833,3.045,26.749,4.567c4.406,0.752,6.299-5.992,1.861-6.75
				c-8.916-1.522-17.833-3.045-26.749-4.567C81.819,164.626,79.926,171.37,84.364,172.128L84.364,172.128z"/>
		</g>
	</g>
	<g>
		<g>
			<path style="fill:#FFFFFF;" d="M84.364,181.47c8.916,1.522,17.833,3.045,26.749,4.567c4.406,0.752,6.299-5.992,1.861-6.75
				c-8.916-1.522-17.833-3.045-26.749-4.567C81.819,173.967,79.926,180.712,84.364,181.47L84.364,181.47z"/>
		</g>
	</g>
	<g>
		<g>
			<path style="fill:#FFFFFF;" d="M90.058,191.441c5.004,0.855,10.008,1.709,15.012,2.564c4.406,0.752,6.299-5.992,1.861-6.75
				c-5.004-0.855-10.008-1.709-15.012-2.564C87.513,183.938,85.619,190.683,90.058,191.441L90.058,191.441z"/>
		</g>
	</g>
	<path style="fill:none;stroke:#FFFFFF;stroke-width:10;stroke-miterlimit:10;" d="M121.034,136.573
		c0,7.544-6.116,13.66-13.66,13.66H89.16c-7.544,0-13.66-6.116-13.66-13.66V88.004c0-7.544,6.116-13.66,13.66-13.66h18.213
		c7.545,0,13.66,6.116,13.66,13.66V136.573z"/>
	<g>
		<g>
			<path style="fill:#FFFFFF;" d="M217.746,291.476c12.75,0,25.5,0,38.25,0c6.435,0,6.445-10,0-10c-12.75,0-25.5,0-38.25,0
				C211.311,281.476,211.3,291.476,217.746,291.476L217.746,291.476z"/>
		</g>
	</g>
	<g>
		<g>
			<path style="fill:#FFFFFF;" d="M231.871,145.433c0,40.656,0,81.312,0,121.969c0,5.755,0,11.51,0,17.265c0,6.435,10,6.445,10,0
				c0-40.656,0-81.312,0-121.969c0-5.755,0-11.51,0-17.265C241.871,138.998,231.871,138.988,231.871,145.433L231.871,145.433z"/>
		</g>
	</g>
	<path style="fill:none;stroke:#FFFFFF;stroke-width:10;stroke-miterlimit:10;" d="M281.852,145.433H191.89
		c-2.889,0-5.23-2.342-5.23-5.23l10.461-60.071c0-2.889,2.342-5.23,5.23-5.23h69.041c2.889,0,5.23,2.342,5.23,5.23l10.461,60.071
		C287.082,143.091,284.74,145.433,281.852,145.433z"/>
</g>
<g id="Ebene_1">
</g>
</svg>
