<?xml version="1.0" encoding="iso-8859-1"?>
<!-- Generator: Adobe Illustrator 24.0.1, SVG Export Plug-In . SVG Version: 6.00 Build 0)  -->
<svg version="1.1" xmlns="http://www.w3.org/2000/svg" xmlns:xlink="http://www.w3.org/1999/xlink" x="0px" y="0px"
	 viewBox="0 0 361 361" style="enable-background:new 0 0 361 361;" xml:space="preserve">
<g id="light_x5F_wall_x5F_4">
	<g>
		<g>
			<path style="fill:#FFFFFF;" d="M83.84,163.023c8.916,1.522,17.833,3.045,26.749,4.567c4.406,0.752,6.299-5.992,1.861-6.75
				c-8.916-1.522-17.833-3.045-26.749-4.567C81.295,155.521,79.402,162.265,83.84,163.023L83.84,163.023z"/>
		</g>
	</g>
	<g>
		<g>
			<path style="fill:#FFFFFF;" d="M84.114,172.639c8.916,1.522,17.833,3.045,26.749,4.567c4.406,0.752,6.299-5.992,1.861-6.75
				c-8.916-1.522-17.833-3.045-26.749-4.567C81.569,165.136,79.676,171.881,84.114,172.639L84.114,172.639z"/>
		</g>
	</g>
	<g>
		<g>
			<path style="fill:#FFFFFF;" d="M84.114,181.98c8.916,1.522,17.833,3.045,26.749,4.567c4.406,0.752,6.299-5.992,1.861-6.75
				c-8.916-1.522-17.833-3.045-26.749-4.567C81.569,174.478,79.676,181.222,84.114,181.98L84.114,181.98z"/>
		</g>
	</g>
	<g>
		<g>
			<path style="fill:#FFFFFF;" d="M89.808,191.951c5.004,0.855,10.008,1.709,15.012,2.564c4.406,0.752,6.299-5.992,1.861-6.75
				c-5.004-0.855-10.008-1.709-15.012-2.564C87.263,184.449,85.369,191.193,89.808,191.951L89.808,191.951z"/>
		</g>
	</g>
	<path style="fill:none;stroke:#FFFFFF;stroke-width:10;stroke-miterlimit:10;" d="M120.784,137.083
		c0,7.544-6.116,13.66-13.66,13.66H88.91c-7.544,0-13.66-6.116-13.66-13.66V88.514c0-7.544,6.116-13.66,13.66-13.66h18.213
		c7.545,0,13.66,6.116,13.66,13.66V137.083z"/>
	<g>
		<g>
			<path style="fill:#FFFFFF;" d="M271.469,108.397c-0.567-9.828-7.774-16.361-17.469-16.533c-6.325-0.113-12.719-0.191-19.04,0
				c-9.528,0.287-15.335,6.388-16.897,15.217c-0.415,2.348-1.071,4.678-1.603,7c-6.098,26.633-12.197,53.267-18.295,79.9
				c-2.081,9.09-6.27,19.01,1.51,26.79c4.719,4.719,10.613,4.842,16.74,4.842c7.055,0,14.109,0,21.164,0
				c12.648,0,32.224,2.679,33.813-15.187c0.685-7.708,0.078-15.701,0.078-23.427C271.469,160.798,271.469,134.597,271.469,108.397
				c0-6.435-10-6.445-10,0c0,19.747,0,39.495,0,59.242c0,11.568,0,23.136,0,34.704c0,2.179,0.182,4.447,0,6.622
				c-0.469,5.593-4.614,6.648-9.23,6.648c-12.156,0-24.312,0-36.469,0c-4.07,0-10.531,0.038-11.113-5.216
				c-0.173-1.559,0.917-4.003,1.259-5.497c5.51-24.063,11.02-48.125,16.529-72.188c1.747-7.628,3.897-15.278,5.263-22.986
				c0.802-4.526,2.131-7.574,7.252-7.862c3.051-0.172,6.167,0,9.223,0c5.842,0,16.79-2.077,17.286,6.533
				C261.838,114.794,271.841,114.836,271.469,108.397z"/>
		</g>
	</g>
	<g>
		<g>
			<path style="fill:#FFFFFF;" d="M276.998,76.624c0,23.417,0,46.834,0,70.251c0,37.366,0,74.733,0,112.099
				c0,8.633,0,17.266,0,25.899c0,9.664,15.003,9.767,15.003,0.108c0-23.417,0-46.834,0-70.251c0-37.366,0-74.733,0-112.099
				c0-8.633,0-17.266,0-25.899C292.002,67.068,276.998,66.965,276.998,76.624L276.998,76.624z"/>
		</g>
	</g>
	<g>
		<g>
			<path style="fill:#FFFFFF;" d="M257.824,269.686c0-6.393,0-12.786,0-19.179c0-4.504-7-4.512-7,0c0,6.393,0,12.786,0,19.179
				C250.824,274.19,257.824,274.197,257.824,269.686L257.824,269.686z"/>
		</g>
	</g>
	<g>
		<g>
			<path style="fill:#FFFFFF;" d="M233.239,269.614c0.779-6.346,1.558-12.691,2.337-19.037c0.548-4.461-6.457-4.421-7,0
				c-0.779,6.346-1.558,12.691-2.337,19.037C225.692,274.075,232.696,274.035,233.239,269.614L233.239,269.614z"/>
		</g>
	</g>
	<g>
		<g>
			<path style="fill:#FFFFFF;" d="M207.904,270.197c1.869-6.114,3.738-12.228,5.607-18.341c1.32-4.318-5.435-6.163-6.75-1.861
				c-1.869,6.114-3.738,12.228-5.607,18.341C199.834,272.654,206.589,274.5,207.904,270.197L207.904,270.197z"/>
		</g>
	</g>
	<g>
		<g>
			<path style="fill:#FFFFFF;" d="M270.833,129.533c0,19.47,0,38.939,0,58.409c0,4.504,7,4.512,7,0c0-19.47,0-38.939,0-58.409
				C277.833,125.029,270.833,125.022,270.833,129.533L270.833,129.533z"/>
		</g>
	</g>
</g>
<g id="Ebene_1">
</g>
</svg>
