<?xml version="1.0" encoding="iso-8859-1"?>
<!-- Generator: Adobe Illustrator 16.0.0, SVG Export Plug-In . SVG Version: 6.00 Build 0)  -->
<!DOCTYPE svg PUBLIC "-//W3C//DTD SVG 1.1//EN" "http://www.w3.org/Graphics/SVG/1.1/DTD/svg11.dtd">
<svg version="1.1" xmlns="http://www.w3.org/2000/svg" xmlns:xlink="http://www.w3.org/1999/xlink" x="0px" y="0px" width="361px"
	 height="361px" viewBox="0 0 361 361" style="enable-background:new 0 0 361 361;" xml:space="preserve">
<g id="light_x5F_waterfall">
	<g>
		<g>
			<g>
				<path style="fill:#FFFFFF;" d="M201.089,203.144c1.59,4.425,3.181,8.85,4.771,13.275c1.515,4.215,8.28,2.397,6.75-1.861
					c-1.59-4.425-3.181-8.85-4.771-13.275C206.324,197.067,199.559,198.885,201.089,203.144L201.089,203.144z"/>
			</g>
		</g>
		<g>
			<g>
				<path style="fill:#FFFFFF;" d="M183.759,177.809c4.226,5.984,8.451,11.97,12.677,17.954c2.581,3.655,8.655,0.164,6.045-3.533
					c-4.226-5.984-8.451-11.969-12.677-17.954C187.223,170.62,181.148,174.111,183.759,177.809L183.759,177.809z"/>
			</g>
		</g>
		<g>
			<g>
				<path style="fill:#FFFFFF;" d="M212.857,245.389c0,5.258,0,10.516,0,15.773c0,4.514,7,4.514,7,0c0-5.258,0-10.516,0-15.773
					C219.857,240.875,212.857,240.875,212.857,245.389L212.857,245.389z"/>
			</g>
		</g>
		<g>
			<g>
				<path style="fill:#FFFFFF;" d="M219.793,287.213c-0.098-4.542-0.194-9.085-0.292-13.627c-0.097-4.508-7.097-4.517-7,0
					c0.098,4.542,0.194,9.085,0.292,13.627C212.89,291.721,219.89,291.729,219.793,287.213L219.793,287.213z"/>
			</g>
		</g>
		<g>
			<g>
				<path style="fill:#FFFFFF;" d="M208.53,223.95c0.905,4.834,1.811,9.669,2.716,14.504c0.83,4.434,7.576,2.55,6.75-1.861
					c-0.905-4.834-1.811-9.669-2.716-14.504C214.45,217.655,207.704,219.539,208.53,223.95L208.53,223.95z"/>
			</g>
		</g>
		<g>
			<g>
				<path style="fill:#FFFFFF;" d="M221.172,205.243c1.59,4.425,3.181,8.85,4.771,13.275c1.515,4.215,8.28,2.397,6.75-1.861
					c-1.59-4.425-3.181-8.85-4.771-13.275C226.407,199.167,219.642,200.984,221.172,205.243L221.172,205.243z"/>
			</g>
		</g>
		<g>
			<g>
				<path style="fill:#FFFFFF;" d="M202.464,177.809c5.322,7.321,10.645,14.643,15.967,21.964c2.627,3.612,8.704,0.125,6.045-3.533
					c-5.322-7.321-10.645-14.643-15.967-21.964C205.882,170.663,199.805,174.15,202.464,177.809L202.464,177.809z"/>
			</g>
		</g>
		<g>
			<g>
				<path style="fill:#FFFFFF;" d="M232.229,252.734c0.072,3.964,0.145,7.929,0.217,11.893c0.082,4.509,7.082,4.517,7,0
					c-0.072-3.964-0.145-7.929-0.217-11.893C239.146,248.226,232.146,248.218,232.229,252.734L232.229,252.734z"/>
			</g>
		</g>
		<g>
			<g>
				<path style="fill:#FFFFFF;" d="M239.631,281.662c0.069-2.575,0.14-5.151,0.209-7.727c0.122-4.517-6.878-4.505-7,0
					c-0.069,2.575-0.14,5.151-0.209,7.727C232.509,286.179,239.509,286.167,239.631,281.662L239.631,281.662z"/>
			</g>
		</g>
		<g>
			<g>
				<path style="fill:#FFFFFF;" d="M228.586,229.53c0.905,4.834,1.81,9.668,2.715,14.503c0.83,4.434,7.576,2.55,6.75-1.861
					c-0.905-4.834-1.81-9.668-2.715-14.503C234.506,223.235,227.76,225.119,228.586,229.53L228.586,229.53z"/>
			</g>
		</g>
		<g>
			<g>
				<path style="fill:#FFFFFF;" d="M240.096,208.926c1.57,3.415,3.141,6.831,4.711,10.246c0.797,1.733,3.266,2.147,4.789,1.256
					c1.765-1.034,2.053-3.056,1.256-4.789c-1.57-3.415-3.141-6.831-4.711-10.246c-0.797-1.733-3.266-2.147-4.789-1.256
					C239.587,205.171,239.299,207.192,240.096,208.926L240.096,208.926z"/>
			</g>
		</g>
		<g>
			<g>
				<path style="fill:#FFFFFF;" d="M222.76,177.809c4.699,7.946,9.398,15.894,14.097,23.84c2.295,3.881,8.348,0.361,6.045-3.533
					c-4.699-7.946-9.398-15.894-14.097-23.84C226.51,170.394,220.457,173.914,222.76,177.809L222.76,177.809z"/>
			</g>
		</g>
		<g>
			<g>
				<path style="fill:#FFFFFF;" d="M251.538,250.001c0.101,3.748,0.201,7.497,0.302,11.245c0.121,4.505,7.121,4.517,7,0
					c-0.101-3.748-0.201-7.497-0.302-11.245C258.417,245.496,251.417,245.484,251.538,250.001L251.538,250.001z"/>
			</g>
		</g>
		<g>
			<g>
				<path style="fill:#FFFFFF;" d="M258.731,281.689c0.011-2.466,0.021-4.933,0.032-7.398c0.02-4.515-6.98-4.513-7,0
					c-0.011,2.466-0.021,4.933-0.032,7.398C251.712,286.204,258.712,286.202,258.731,281.689L258.731,281.689z"/>
			</g>
		</g>
		<g>
			<g>
				<path style="fill:#FFFFFF;" d="M247.359,228.51c0.905,4.834,1.811,9.668,2.716,14.503c0.83,4.434,7.576,2.55,6.75-1.861
					c-0.905-4.834-1.811-9.668-2.716-14.503C253.279,222.215,246.533,224.099,247.359,228.51L247.359,228.51z"/>
			</g>
		</g>
		<g>
			<g>
				<path style="fill:#FFFFFF;" d="M211.131,204.192c1.59,4.426,3.18,8.852,4.77,13.277c1.515,4.215,8.28,2.397,6.75-1.861
					c-1.59-4.426-3.18-8.852-4.77-13.277C216.366,198.116,209.601,199.934,211.131,204.192L211.131,204.192z"/>
			</g>
		</g>
		<g>
			<g>
				<path style="fill:#FFFFFF;" d="M193.112,177.809c4.819,6.606,9.639,13.212,14.458,19.818c2.632,3.607,8.71,0.12,6.045-3.533
					c-4.819-6.606-9.639-13.212-14.458-19.818C196.525,170.668,190.447,174.155,193.112,177.809L193.112,177.809z"/>
			</g>
		</g>
		<g>
			<g>
				<path style="fill:#FFFFFF;" d="M222.282,248.008c0.36,6.257,0.721,12.515,1.081,18.771c0.259,4.486,7.26,4.512,7,0
					c-0.36-6.257-0.721-12.515-1.081-18.771C229.023,243.521,222.022,243.496,222.282,248.008L222.282,248.008z"/>
			</g>
		</g>
		<g>
			<g>
				<path style="fill:#FFFFFF;" d="M230.454,284.118c-0.002-2.943-0.003-5.886-0.005-8.829c-0.003-4.514-7.003-4.515-7,0
					c0.002,2.943,0.003,5.886,0.005,8.829C223.457,288.632,230.457,288.633,230.454,284.118L230.454,284.118z"/>
			</g>
		</g>
		<g>
			<g>
				<path style="fill:#FFFFFF;" d="M219.199,225.203c0.629,3.357,1.258,6.715,1.887,10.073c0.352,1.876,2.584,2.918,4.306,2.444
					c1.952-0.537,2.795-2.432,2.444-4.306c-0.629-3.357-1.258-6.715-1.887-10.073c-0.352-1.876-2.584-2.918-4.306-2.444
					C219.691,221.435,218.849,223.329,219.199,225.203L219.199,225.203z"/>
			</g>
		</g>
		<g>
			<g>
				<path style="fill:#FFFFFF;" d="M228.616,202.978c2.042,4.835,4.084,9.669,6.125,14.504c0.743,1.759,3.305,2.125,4.789,1.256
					c1.803-1.056,1.998-3.031,1.256-4.789c-2.042-4.835-4.084-9.669-6.125-14.504c-0.743-1.759-3.305-2.125-4.789-1.256
					C228.069,199.244,227.874,201.22,228.616,202.978L228.616,202.978z"/>
			</g>
		</g>
		<g>
			<g>
				<path style="fill:#FFFFFF;" d="M213.124,177.809c3.883,6.053,7.766,12.105,11.647,18.158c2.429,3.785,8.49,0.279,6.045-3.533
					c-3.883-6.053-7.766-12.105-11.647-18.158C216.74,170.49,210.679,173.997,213.124,177.809L213.124,177.809z"/>
			</g>
		</g>
		<g>
			<g>
				<path style="fill:#FFFFFF;" d="M241.244,249.293c0.243,4.813,0.486,9.626,0.729,14.439c0.227,4.491,7.228,4.514,7,0
					c-0.243-4.813-0.486-9.626-0.729-14.439C248.018,244.802,241.016,244.779,241.244,249.293L241.244,249.293z"/>
			</g>
		</g>
		<g>
			<g>
				<path style="fill:#FFFFFF;" d="M249.354,285.126c0.057-2.941,0.113-5.884,0.17-8.825c0.087-4.517-6.913-4.508-7,0
					c-0.057,2.941-0.113,5.884-0.17,8.825C242.267,289.643,249.267,289.634,249.354,285.126L249.354,285.126z"/>
			</g>
		</g>
		<g>
			<g>
				<path style="fill:#FFFFFF;" d="M237.51,226.192c0.866,4.417,1.733,8.834,2.6,13.252c0.868,4.427,7.615,2.548,6.75-1.861
					c-0.866-4.417-1.733-8.834-2.6-13.252C243.392,219.904,236.645,221.783,237.51,226.192L237.51,226.192z"/>
			</g>
		</g>
		<g>
			<g>
				<path style="fill:#FFFFFF;" d="M247.321,205.231c2.074,4.379,4.148,8.757,6.223,13.136c1.932,4.077,7.966,0.522,6.045-3.533
					c-2.074-4.379-4.148-8.757-6.223-13.136C251.435,197.621,245.4,201.176,247.321,205.231L247.321,205.231z"/>
			</g>
		</g>
		<g>
			<g>
				<path style="fill:#FFFFFF;" d="M231.005,177.809c4.419,6.604,8.838,13.208,13.256,19.813c2.496,3.73,8.563,0.23,6.045-3.533
					c-4.419-6.604-8.838-13.208-13.256-19.813C234.554,170.545,228.487,174.045,231.005,177.809L231.005,177.809z"/>
			</g>
		</g>
		<g>
			<g>
				<path style="fill:#FFFFFF;" d="M260.678,253.901c0.188,2.775,0.375,5.552,0.563,8.327c0.129,1.902,1.495,3.5,3.5,3.5
					c1.811,0,3.629-1.595,3.5-3.5c-0.188-2.775-0.375-5.552-0.563-8.327c-0.129-1.902-1.495-3.5-3.5-3.5
					C262.367,250.401,260.549,251.996,260.678,253.901L260.678,253.901z"/>
			</g>
		</g>
		<g>
			<g>
				<path style="fill:#FFFFFF;" d="M268.252,283.369c-0.083-4.534-0.165-9.069-0.248-13.604c-0.082-4.509-7.082-4.517-7,0
					c0.083,4.534,0.165,9.069,0.248,13.604C261.334,287.878,268.334,287.886,268.252,283.369L268.252,283.369z"/>
			</g>
		</g>
		<g>
			<g>
				<path style="fill:#FFFFFF;" d="M255.409,228.236c1.063,5.908,2.124,11.816,3.187,17.725c0.798,4.438,7.543,2.552,6.75-1.861
					c-1.063-5.908-2.124-11.816-3.187-17.725C261.361,221.938,254.616,223.823,255.409,228.236L255.409,228.236z"/>
			</g>
		</g>
		<g>
			<g>
				<path style="fill:#FFFFFF;" d="M259.413,209.241c1.59,4.425,3.181,8.85,4.771,13.275c1.515,4.215,8.28,2.397,6.75-1.861
					c-1.59-4.425-3.181-8.85-4.771-13.275C264.648,203.165,257.883,204.982,259.413,209.241L259.413,209.241z"/>
			</g>
		</g>
		<g>
			<g>
				<path style="fill:#FFFFFF;" d="M241.234,177.809c4.891,7.844,9.781,15.688,14.672,23.532c2.382,3.82,8.44,0.31,6.045-3.533
					c-4.891-7.844-9.781-15.688-14.672-23.532C244.897,170.455,238.839,173.966,241.234,177.809L241.234,177.809z"/>
			</g>
		</g>
		<g>
			<g>
				<path style="fill:#FFFFFF;" d="M269.773,248.58c0.188,4.866,0.374,9.733,0.562,14.6c0.173,4.499,7.174,4.516,7,0
					c-0.188-4.866-0.374-9.733-0.562-14.6C276.601,244.081,269.6,244.064,269.773,248.58L269.773,248.58z"/>
			</g>
		</g>
		<g>
			<g>
				<path style="fill:#FFFFFF;" d="M278.377,285.684c-0.105-5.026-0.211-10.054-0.316-15.08c-0.095-4.508-7.095-4.517-7,0
					c0.105,5.026,0.211,10.054,0.316,15.08C271.472,290.191,278.472,290.2,278.377,285.684L278.377,285.684z"/>
			</g>
		</g>
		<g>
			<g>
				<path style="fill:#FFFFFF;" d="M265.801,230.997c0.689,3.176,1.379,6.352,2.068,9.528c0.957,4.41,7.705,2.539,6.75-1.861
					c-0.689-3.176-1.379-6.352-2.068-9.528C271.594,224.726,264.846,226.597,265.801,230.997L265.801,230.997z"/>
			</g>
		</g>
	</g>
	<g>
		<g>
			<path style="fill:#FFFFFF;" d="M281.18,146.855c-5.09,0-10.18,0-15.27,0c-2.835,0-7.598-0.748-10.107,0.945
				c-3.461,2.334-4.527,5.269-4.506,9.258c0.034,6.43,0.069,12.86,0.104,19.29c-0.01-1.714,2.982-1.436-0.515-1.436
				c-2.415,0-4.831,0-7.246,0c-15.28,0-30.56,0-45.839,0c-4.31,0-8.62,0-12.93,0c-1.224,0,1.354,2.652,1.362,1.164
				c0.006-1.135,0.012-2.27,0.019-3.405c0.021-3.978,0.042-7.956,0.063-11.933c0.013-2.232,0.298-4.663-0.148-6.872
				c-1.058-5.239-5.271-7.01-10.14-7.01c-6.041,0-12.082,0-18.123,0c-8.237,0-11.854,6.205-11.854,13.615c0,7.26,0,14.521,0,21.781
				c0,7.118,2.277,14.916,11.059,14.916c2.173,0,4.346,0,6.518,0c12.766,0,25.532,0,38.298,0c25.101,0,50.201,0,75.302,0
				c1.992,0,4.575,0.297,6.502-0.302c7.567-2.349,8.501-8.544,8.501-15.341c0-6.81,0-13.62,0-20.43
				C292.229,153.644,289.447,147.688,281.18,146.855c-6.415-0.647-6.353,9.359,0,10c2.366,0.239,1.049,14.799,1.049,16.63
				c0,1.514,1.165,13.682-1.144,13.682c-8.053,0-16.104,0-24.157,0c-29.672,0-59.345,0-89.017,0c-3.326,0-6.653,0-9.979,0
				c-3.187,0-1.882-5.9-1.882-8.073c0-6.834,0-13.668,0-20.503c0-3.374,11.625-1.736,14.227-1.736c2.527,0,5.054,0,7.58,0
				c-1.861,0-1.503-2.885-1.521,0.203c-0.01,1.825-0.02,3.651-0.029,5.476c-0.029,5.455-1.97,15.599,2.367,19.936
				c3.231,3.231,8.484,2.442,12.641,2.442c7.018,0,14.036,0,21.054,0c10.183,0,20.366,0,30.549,0c6.627,0,16.544,1.719,18.307-7.009
				c0.678-3.355,0.147-7.174,0.129-10.565c-0.021-4.029-0.043-8.057-0.064-12.086c0.011,1.939-2.809,1.603,0.097,1.603
				c1.207,0,2.414,0,3.621,0c1.42,0,2.841,0,4.262,0c3.971,0,7.942,0,11.913,0C287.628,156.855,287.628,146.855,281.18,146.855z"/>
		</g>
	</g>
	<g>
		<g>
			<path style="fill:#FFFFFF;" d="M204.879,286.606c-10.07-1.823-18.513,1.989-28.383,2.364c-4.259,0.162-8.743-1.348-12.925-2.165
				c-5.302-1.035-10.121-1.166-15.458-0.199c-1.901,0.345-1.093,3.235,0.798,2.893c9.701-1.757,18.052,2.109,27.584,2.472
				c3.726,0.142,7.681-1.014,11.302-1.785c5.591-1.19,10.604-1.715,16.284-0.687C205.973,289.842,206.781,286.95,204.879,286.606
				L204.879,286.606z"/>
			<path style="fill:#FFFFFF;" d="M191.404,289.493c9.701-1.759,18.053,2.108,27.586,2.471c3.726,0.142,7.68-1.014,11.301-1.785
				c5.591-1.19,10.603-1.716,16.283-0.686c1.891,0.343,2.699-2.548,0.797-2.893c-10.069-1.826-18.512,1.988-28.381,2.363
				c-4.26,0.162-8.743-1.348-12.926-2.165c-5.303-1.035-10.121-1.166-15.457-0.198C188.705,286.945,189.514,289.836,191.404,289.493
				L191.404,289.493z"/>
			<path style="fill:#FFFFFF;" d="M233.745,289.485c9.701-1.759,18.054,2.109,27.586,2.472c3.725,0.142,7.681-1.013,11.301-1.784
				c5.591-1.192,10.603-1.718,16.284-0.688c1.891,0.343,2.699-2.548,0.797-2.893c-10.07-1.826-18.512,1.989-28.382,2.364
				c-4.26,0.162-8.744-1.347-12.926-2.165c-5.303-1.036-10.121-1.167-15.457-0.199C231.046,286.938,231.854,289.828,233.745,289.485
				L233.745,289.485z"/>
		</g>
	</g>
	<g>
		<g>
			<path style="fill:#FFFFFF;" d="M209.252,281.769c-5.497-0.928-10.517-0.832-15.993,0.093c-4.839,0.818-9.652,2.109-14.576,2.271
				c-4.488,0.147-9.139-1.279-13.551-2.09c-5.821-1.069-11.16-1.264-17.019-0.274c-1.904,0.321-1.094,3.212,0.798,2.893
				c10.398-1.755,19.532,2.135,29.771,2.472c3.979,0.131,8.186-0.998,12.07-1.768c6.059-1.201,11.565-1.739,17.702-0.704
				C210.347,284.98,211.157,282.09,209.252,281.769L209.252,281.769z"/>
			<path style="fill:#FFFFFF;" d="M194.726,284.655c10.399-1.757,19.532,2.135,29.771,2.472c3.979,0.131,8.186-0.999,12.068-1.769
				c6.06-1.201,11.567-1.74,17.704-0.703c1.892,0.319,2.702-2.571,0.797-2.893c-5.498-0.93-10.518-0.833-15.994,0.092
				c-4.839,0.818-9.652,2.11-14.575,2.272c-4.488,0.147-9.139-1.28-13.551-2.091c-5.821-1.069-11.16-1.264-17.018-0.273
				C192.023,282.084,192.834,284.975,194.726,284.655L194.726,284.655z"/>
			<path style="fill:#FFFFFF;" d="M240.375,284.647c8.021-1.354,15.297,0.381,23.139,1.705c8.971,1.516,16.974-1.139,25.801-2.201
				c1.896-0.229,1.918-3.23,0-3c-3.775,0.454-7.474,1.256-11.209,1.941c-5.63,1.034-10.288,0.996-15.917,0
				c-7.729-1.367-14.73-2.668-22.61-1.338C237.673,282.076,238.483,284.967,240.375,284.647L240.375,284.647z"/>
		</g>
	</g>
	<g>
		<g>
			<path style="fill:#FFFFFF;" d="M148.513,278.039c2.927,0.026,5.867,0.323,8.762,0.751c1.892,0.279,2.706-2.61,0.798-2.893
				c-3.161-0.467-6.362-0.83-9.56-0.858C146.578,275.021,146.579,278.021,148.513,278.039L148.513,278.039z"/>
			<path style="fill:#FFFFFF;" d="M149.719,278.031c10.028,0.25,19.813,3.994,29.888,2.941c10.466-1.094,20.22-3.734,30.846-2.189
				c1.892,0.275,2.706-2.615,0.797-2.893c-10.524-1.53-20.142,0.609-30.5,1.947c-10.487,1.354-20.596-2.546-31.031-2.807
				C147.783,274.983,147.788,277.983,149.719,278.031L149.719,278.031z"/>
		</g>
	</g>
	<g>
		<g>
			<path style="fill:#FFFFFF;" d="M280.092,280.051c3.107-0.912,6.012-0.943,9.223-0.752c1.934,0.115,1.922-2.885,0-3
				c-3.478-0.208-6.656-0.128-10.02,0.859C277.442,277.702,278.231,280.597,280.092,280.051L280.092,280.051z"/>
		</g>
	</g>
	<g>
		<g>
			<path style="fill:#FFFFFF;" d="M187.588,179.542c20.693,0,41.387,0,62.08,0c4.514,0,4.514-7,0-7c-20.693,0-41.387,0-62.08,0
				C183.074,172.542,183.074,179.542,187.588,179.542L187.588,179.542z"/>
		</g>
	</g>
	<g>
		<g>
			<path style="fill:#FFFFFF;" d="M84.067,163.013c8.917,1.522,17.833,3.045,26.749,4.567c4.414,0.754,6.304-5.991,1.861-6.75
				c-8.917-1.522-17.833-3.045-26.749-4.567C81.515,155.509,79.625,162.254,84.067,163.013L84.067,163.013z"/>
		</g>
	</g>
	<g>
		<g>
			<path style="fill:#FFFFFF;" d="M84.342,172.628c8.917,1.522,17.833,3.045,26.749,4.567c4.414,0.753,6.304-5.991,1.861-6.75
				c-8.917-1.522-17.833-3.045-26.749-4.567C81.789,165.125,79.899,171.87,84.342,172.628L84.342,172.628z"/>
		</g>
	</g>
	<g>
		<g>
			<path style="fill:#FFFFFF;" d="M84.342,181.97c8.917,1.522,17.833,3.045,26.749,4.567c4.414,0.754,6.304-5.991,1.861-6.75
				c-8.917-1.522-17.833-3.045-26.749-4.567C81.789,174.466,79.899,181.211,84.342,181.97L84.342,181.97z"/>
		</g>
	</g>
	<g>
		<g>
			<path style="fill:#FFFFFF;" d="M90.035,191.941c5.004,0.854,10.008,1.708,15.012,2.563c4.414,0.754,6.304-5.991,1.861-6.75
				c-5.004-0.854-10.008-1.708-15.012-2.563C87.482,184.438,85.592,191.183,90.035,191.941L90.035,191.941z"/>
		</g>
	</g>
	<path style="fill:none;stroke:#FFFFFF;stroke-width:10;stroke-miterlimit:10;" d="M121.011,137.073
		c0,7.544-6.116,13.66-13.66,13.66H89.138c-7.544,0-13.66-6.116-13.66-13.66V88.504c0-7.544,6.116-13.66,13.66-13.66h18.213
		c7.544,0,13.66,6.116,13.66,13.66V137.073z"/>
</g>
<g id="Ebene_1">
</g>
</svg>
