<?xml version="1.0" encoding="iso-8859-1"?>
<!-- Generator: Adobe Illustrator 16.0.0, SVG Export Plug-In . SVG Version: 6.00 Build 0)  -->
<!DOCTYPE svg PUBLIC "-//W3C//DTD SVG 1.1//EN" "http://www.w3.org/Graphics/SVG/1.1/DTD/svg11.dtd">
<svg version="1.1" xmlns="http://www.w3.org/2000/svg" xmlns:xlink="http://www.w3.org/1999/xlink" x="0px" y="0px" width="361px"
	 height="361px" viewBox="0 0 361 361" style="enable-background:new 0 0 361 361;" xml:space="preserve">
<g id="light_x5F_ceiling_x5F_light">
	<g>
		<g>
			<path style="fill:#FFFFFF;" d="M83.84,260.422c8.917,1.522,17.833,3.046,26.749,4.568c4.414,0.754,6.304-5.991,1.861-6.75
				c-8.917-1.522-17.833-3.046-26.749-4.568C81.287,252.918,79.397,259.663,83.84,260.422L83.84,260.422z"/>
		</g>
	</g>
	<g>
		<g>
			<path style="fill:#FFFFFF;" d="M84.114,270.038c8.917,1.522,17.833,3.045,26.749,4.567c4.414,0.754,6.304-5.991,1.861-6.75
				c-8.917-1.522-17.833-3.045-26.749-4.567C81.562,262.534,79.671,269.279,84.114,270.038L84.114,270.038z"/>
		</g>
	</g>
	<g>
		<g>
			<path style="fill:#FFFFFF;" d="M84.114,279.379c8.917,1.522,17.833,3.046,26.749,4.568c4.414,0.754,6.304-5.991,1.861-6.75
				c-8.917-1.522-17.833-3.046-26.749-4.568C81.562,271.875,79.671,278.62,84.114,279.379L84.114,279.379z"/>
		</g>
	</g>
	<g>
		<g>
			<path style="fill:#FFFFFF;" d="M89.808,289.351c5.004,0.854,10.008,1.709,15.012,2.563c4.414,0.754,6.304-5.991,1.861-6.75
				c-5.004-0.854-10.008-1.709-15.012-2.563C87.255,281.847,85.365,288.592,89.808,289.351L89.808,289.351z"/>
		</g>
	</g>
	<path style="fill:none;stroke:#FFFFFF;stroke-width:10;stroke-miterlimit:10;" d="M120.784,234.482
		c0,7.545-6.116,13.66-13.66,13.66H88.91c-7.544,0-13.66-6.115-13.66-13.66v-48.568c0-7.544,6.116-13.661,13.66-13.661h18.213
		c7.544,0,13.66,6.116,13.66,13.661V234.482z"/>
	<g>
		<g>
			<path style="fill:#FFFFFF;" d="M266.396,88.193c-0.261,8.709-10.961,14.113-17.844,16.986
				c-13.303,5.553-28.053,7.303-42.354,7.39c-14.382,0.087-28.948-2.072-42.355-7.39c-6.899-2.736-17.585-8.369-17.844-16.986
				c-0.193-6.434-10.193-6.452-10,0c0.357,11.917,10.543,19.753,20.408,24.55c15.283,7.433,32.975,9.723,49.791,9.825
				c16.939,0.103,34.347-2.688,49.79-9.825c9.906-4.579,20.055-12.788,20.407-24.55C276.59,81.741,266.589,81.76,266.396,88.193
				L266.396,88.193z"/>
			<path style="fill:#FFFFFF;" d="M141,93.193c43.465,0,86.931,0,130.396,0c6.448,0,6.448-10,0-10c-43.465,0-86.931,0-130.396,0
				C134.552,83.193,134.552,93.193,141,93.193L141,93.193z"/>
		</g>
	</g>
	<g>
		<g>
			<path style="fill:#FFFFFF;" d="M252.625,82.909c-0.406,3.027-6.055,1.785-8.369,1.785c-6.392,0-12.783,0-19.175,0
				c-15.743,0-31.487,0-47.23,0c-4.934,0-9.867,0-14.8,0c-0.762,0-1.523,0-2.285,0c-1.436,0-1.49-7.86,0.043-7.86
				c9.762,0,19.524,0,29.287,0c14.816,0,29.634,0,44.451,0c4.815,0,9.631,0,14.446,0c0.865,0,1.73,0,2.596,0
				c1.67,0,0.911,5.921,0.911,7.006c0,4.514,7,4.514,7,0c0-5.866,0.164-14.006-7.982-14.006c-3.236,0-6.473,0-9.71,0
				c-15.001,0-30.002,0-45.003,0c-11.643,0-23.286,0-34.928,0c-6.195,0-8.979,4.203-8.979,10.02c0,5.92,1.266,11.84,8.542,11.84
				c17.726,0,35.451,0,53.176,0c9.686,0,19.371,0,29.057,0c5.955,0,14.612,1.201,15.704-6.923
				C259.968,80.358,253.224,78.453,252.625,82.909z"/>
		</g>
	</g>
	<g>
		<g>
			<g>
				<path style="fill:#FFFFFF;" d="M251.506,154.076c-2.328-7.63-4.656-15.261-6.984-22.891c-1.313-4.305-8.071-2.468-6.75,1.861
					c2.328,7.63,4.656,15.261,6.984,22.891C246.069,160.242,252.827,158.405,251.506,154.076L251.506,154.076z"/>
			</g>
		</g>
		<g>
			<g>
				<path style="fill:#FFFFFF;" d="M209.697,158.223c0-7.829,0-15.658,0-23.487c0-4.514-7-4.514-7,0c0,7.829,0,15.658,0,23.487
					C202.697,162.737,209.697,162.737,209.697,158.223L209.697,158.223z"/>
			</g>
		</g>
		<g>
			<g>
				<path style="fill:#FFFFFF;" d="M167.632,155.937c2.332-7.63,4.664-15.26,6.996-22.889c1.323-4.329-5.435-6.165-6.75-1.861
					c-2.332,7.63-4.664,15.26-6.996,22.889C159.56,158.404,166.317,160.24,167.632,155.937L167.632,155.937z"/>
			</g>
		</g>
		<g>
			<g>
				<path style="fill:#FFFFFF;" d="M126.803,143.619c5.192-6.784,10.385-13.568,15.577-20.352c2.745-3.586-3.34-7.066-6.044-3.533
					c-5.192,6.784-10.385,13.568-15.577,20.352C118.014,143.671,124.099,147.151,126.803,143.619L126.803,143.619z"/>
			</g>
		</g>
		<g>
			<g>
				<path style="fill:#FFFFFF;" d="M291.64,140.084c-5.195-6.783-10.39-13.565-15.584-20.348c-2.705-3.532-8.79-0.052-6.045,3.533
					c5.195,6.783,10.39,13.565,15.584,20.348C288.3,147.149,294.385,143.669,291.64,140.084L291.64,140.084z"/>
			</g>
		</g>
	</g>
</g>
<g id="Ebene_1">
</g>
</svg>
