<?xml version="1.0" encoding="iso-8859-1"?>
<!-- Generator: Adobe Illustrator 16.0.0, SVG Export Plug-In . SVG Version: 6.00 Build 0)  -->
<!DOCTYPE svg PUBLIC "-//W3C//DTD SVG 1.1 Tiny//EN" "http://www.w3.org/Graphics/SVG/1.1/DTD/svg11-tiny.dtd">
<svg version="1.1" baseProfile="tiny" id="light_x5F_party"
	 xmlns="http://www.w3.org/2000/svg" xmlns:xlink="http://www.w3.org/1999/xlink" x="0px" y="0px" width="361px" height="361px"
	 viewBox="0 0 361 361" xml:space="preserve">
<g>
	<path fill="#FFFFFF" d="M81.322,165.891c8.917,1.522,17.833,3.045,26.749,4.567c4.414,0.754,6.304-5.991,1.861-6.75
		c-8.917-1.522-17.833-3.045-26.749-4.567C78.769,158.387,76.879,165.132,81.322,165.891L81.322,165.891z"/>
</g>
<g>
	<path fill="#FFFFFF" d="M81.596,175.506c8.917,1.522,17.833,3.045,26.749,4.567c4.414,0.753,6.304-5.991,1.861-6.75
		c-8.917-1.522-17.833-3.045-26.749-4.567C79.043,168.003,77.153,174.748,81.596,175.506L81.596,175.506z"/>
</g>
<g>
	<path fill="#FFFFFF" d="M81.596,184.848c8.917,1.522,17.833,3.045,26.749,4.567c4.414,0.754,6.304-5.991,1.861-6.75
		c-8.917-1.522-17.833-3.045-26.749-4.567C79.043,177.344,77.153,184.089,81.596,184.848L81.596,184.848z"/>
</g>
<g>
	<path fill="#FFFFFF" d="M87.29,194.819c5.004,0.854,10.008,1.709,15.012,2.563c4.414,0.754,6.304-5.991,1.861-6.75
		c-5.004-0.854-10.008-1.709-15.012-2.563C84.737,187.315,82.847,194.06,87.29,194.819L87.29,194.819z"/>
</g>
<path fill="none" stroke="#FFFFFF" stroke-width="10" stroke-miterlimit="10" d="M118.266,139.951c0,7.544-6.116,13.66-13.66,13.66
	H86.392c-7.544,0-13.66-6.116-13.66-13.66V91.382c0-7.544,6.116-13.66,13.66-13.66h18.213c7.544,0,13.66,6.116,13.66,13.66V139.951z
	"/>
<g>
	<path fill="#FFFFFF" d="M229.179,147.092c11.679-1.09,23.358-2.179,35.037-3.269c-1.439-0.826-2.878-1.651-4.317-2.477
		c6.697,9.658,13.395,19.316,20.092,28.974c2.28-2.28,4.561-4.561,6.841-6.841c-18.376-8.568-36.752-17.137-55.128-25.705
		c-5.806-2.707-10.887,5.912-5.047,8.635c18.376,8.568,36.752,17.137,55.128,25.705c4.102,1.913,9.975-2.321,6.841-6.841
		c-6.697-9.658-13.395-19.316-20.092-28.974c-0.951-1.372-2.511-2.645-4.317-2.477c-11.679,1.09-23.358,2.179-35.037,3.269
		C222.814,137.686,222.757,147.691,229.179,147.092z"/>
</g>
<g>
	<path fill="#FFFFFF" d="M251.404,154.347c-3.443,6.865-6.885,13.73-10.328,20.595c-2.882,5.747,5.744,10.813,8.635,5.047
		c3.443-6.865,6.885-13.73,10.328-20.595C262.921,153.647,254.295,148.582,251.404,154.347L251.404,154.347z"/>
</g>
<g>
	<path fill="#FFFFFF" d="M183.757,147.308c9.54,27.234,19.08,54.468,28.62,81.702c2.117,6.044,11.78,3.444,9.643-2.658
		c-9.54-27.234-19.08-54.468-28.62-81.702C191.282,138.605,181.619,141.205,183.757,147.308L183.757,147.308z"/>
</g>
<g>
	<path fill="#FFFFFF" d="M261.109,134.937c-4.642,3.395-9.283,6.79-13.925,10.185c-2.195,1.605-3.278,4.307-1.794,6.841
		c1.271,2.17,4.636,3.406,6.841,1.794c4.642-3.395,9.283-6.79,13.925-10.185c2.195-1.605,3.278-4.307,1.794-6.841
		C266.678,134.56,263.313,133.324,261.109,134.937L261.109,134.937z"/>
</g>
<g>
	<path fill="#FFFFFF" d="M270.63,158.64c-0.235-5.19-0.471-10.38-0.706-15.57c-0.291-6.421-10.292-6.45-10,0
		c0.235,5.19,0.471,10.38,0.706,15.57C260.921,165.061,270.922,165.089,270.63,158.64L270.63,158.64z"/>
</g>
<g>
	<path fill="#FFFFFF" d="M219.382,236.643c-11.851-20.525-23.701-41.05-35.551-61.574c-1.439,2.508-2.878,5.016-4.317,7.523
		c23.701,0,47.401,0,71.102,0c-1.439-2.508-2.878-5.016-4.317-7.523c-11.85,20.524-23.7,41.049-35.55,61.574
		c-3.23,5.595,5.413,10.628,8.635,5.047c11.85-20.524,23.7-41.049,35.55-61.574c1.894-3.28-0.512-7.523-4.317-7.523
		c-23.701,0-47.401,0-71.102,0c-3.805,0-6.211,4.243-4.317,7.523c11.851,20.525,23.701,41.05,35.551,61.574
		C213.97,247.271,222.612,242.237,219.382,236.643z"/>
</g>
<g>
	<path fill="#FFFFFF" d="M250.633,284.548c-23.7,0-47.4,0-71.1,0c0.443,3.274,0.886,6.548,1.329,9.821
		c5.871-1.124,11.741-2.248,17.611-3.373c3.912-0.749,7.824-1.498,11.736-2.248c1.417-0.271,2.835-0.543,4.252-0.814
		c2.063-0.395,2.145,0.288-1.001-0.304c11.947,2.246,23.895,4.492,35.843,6.738c6.301,1.185,8.991-8.452,2.658-9.643
		c-11.959-2.249-23.918-4.497-35.878-6.745c-2.258-0.425-4.88,0.425-7.104,0.851c-4.063,0.778-8.125,1.556-12.188,2.334
		c-6.196,1.187-12.393,2.374-18.589,3.56c-5.654,1.083-4.188,9.821,1.329,9.821c23.7,0,47.4,0,71.1,0
		C257.082,294.548,257.082,284.548,250.633,284.548z"/>
</g>
<g>
	<path fill="#FFFFFF" d="M209.983,236.986c0,14.586,0,29.173,0,43.76c0,6.449,10,6.449,10,0c0-14.586,0-29.173,0-43.76
		C219.983,230.537,209.983,230.537,209.983,236.986L209.983,236.986z"/>
</g>
<g>
	<path fill="#FFFFFF" d="M190.588,139.577c-11.75-9.029-23.5-18.059-35.25-27.088c-5.114-3.93-10.084,4.764-5.047,8.635
		c11.75,9.029,23.5,18.059,35.25,27.088C190.656,152.142,195.626,143.448,190.588,139.577L190.588,139.577z"/>
</g>
</svg>
