<?xml version="1.0" encoding="iso-8859-1"?>
<!-- Generator: Adobe Illustrator 16.0.0, SVG Export Plug-In . SVG Version: 6.00 Build 0)  -->
<!DOCTYPE svg PUBLIC "-//W3C//DTD SVG 1.1//EN" "http://www.w3.org/Graphics/SVG/1.1/DTD/svg11.dtd">
<svg version="1.1" xmlns="http://www.w3.org/2000/svg" xmlns:xlink="http://www.w3.org/1999/xlink" x="0px" y="0px" width="361px"
	 height="361px" viewBox="0 0 361 361" style="enable-background:new 0 0 361 361;" xml:space="preserve">
<g id="light_x5F_window">
	<g>
		<g>
			<g>
				<path style="fill:#FFFFFF;" d="M84.09,162.513c8.917,1.522,17.833,3.045,26.749,4.567c4.414,0.754,6.304-5.991,1.861-6.75
					c-8.917-1.522-17.833-3.045-26.749-4.567C81.537,155.009,79.647,161.754,84.09,162.513L84.09,162.513z"/>
			</g>
		</g>
		<g>
			<g>
				<path style="fill:#FFFFFF;" d="M84.364,172.128c8.917,1.522,17.833,3.045,26.749,4.567c4.414,0.753,6.304-5.991,1.861-6.75
					c-8.917-1.522-17.833-3.045-26.749-4.567C81.812,164.625,79.921,171.37,84.364,172.128L84.364,172.128z"/>
			</g>
		</g>
		<g>
			<g>
				<path style="fill:#FFFFFF;" d="M84.364,181.47c8.917,1.522,17.833,3.045,26.749,4.567c4.414,0.754,6.304-5.991,1.861-6.75
					c-8.917-1.522-17.833-3.045-26.749-4.567C81.812,173.966,79.921,180.711,84.364,181.47L84.364,181.47z"/>
			</g>
		</g>
		<g>
			<g>
				<path style="fill:#FFFFFF;" d="M90.058,191.441c5.004,0.854,10.008,1.708,15.012,2.563c4.414,0.754,6.304-5.991,1.861-6.75
					c-5.004-0.854-10.008-1.708-15.012-2.563C87.505,183.938,85.615,190.683,90.058,191.441L90.058,191.441z"/>
			</g>
		</g>
		<path style="fill:none;stroke:#FFFFFF;stroke-width:10;stroke-miterlimit:10;" d="M121.034,136.573
			c0,7.544-6.116,13.66-13.66,13.66H89.16c-7.544,0-13.66-6.116-13.66-13.66V88.004c0-7.544,6.116-13.66,13.66-13.66h18.213
			c7.544,0,13.66,6.116,13.66,13.66V136.573z"/>
	</g>
	<g style="display:none;">
		<path style="display:inline;fill:#FFFFFF;" d="M156.801,282.51v9.157H111.34v-75.551h10.575v66.394H156.801z"/>
		<path style="display:inline;fill:#FFFFFF;" d="M167.921,291.667v-75.551h46.116v9.049h-35.541v22.458h31.615v8.83h-31.615v26.165
			h38.266v9.049H167.921z"/>
		<path style="display:inline;fill:#FFFFFF;" d="M292.203,253.837c0,6.542-1.019,12.229-3.053,17.062
			c-2.035,4.834-4.905,8.831-8.612,11.992c-3.706,3.162-8.141,5.524-13.3,7.086c-5.162,1.564-10.831,2.345-17.008,2.345
			c-3.053,0-6.415-0.128-10.084-0.382c-3.671-0.256-6.996-0.744-9.976-1.472v-73.261c2.979-0.727,6.305-1.217,9.976-1.473
			c3.669-0.254,7.031-0.381,10.084-0.381c6.177,0,11.846,0.781,17.008,2.344c5.159,1.563,9.594,3.925,13.3,7.086
			c3.707,3.162,6.577,7.16,8.612,11.992C291.185,241.609,292.203,247.296,292.203,253.837z M251.104,283.055
			c10.029,0,17.514-2.563,22.457-7.686c4.941-5.125,7.414-12.301,7.414-21.532c0-9.229-2.473-16.407-7.414-21.531
			c-4.943-5.124-12.428-7.687-22.457-7.687c-2.981,0-5.288,0.038-6.924,0.109c-1.635,0.074-2.779,0.146-3.434,0.219v57.78
			c0.654,0.073,1.799,0.146,3.434,0.218C245.815,283.019,248.122,283.055,251.104,283.055z"/>
	</g>
	<g style="display:none;">
		<g style="display:inline;">
			<g>
				<path style="fill:#FFFFFF;" d="M221.833,71.042c0,48.049,0,96.098,0,144.146c0,25.118,0,50.235,0,75.354c0,1.935,3,1.935,3,0
					c0-48.049,0-96.098,0-144.146c0-25.118,0-50.236,0-75.354C224.833,69.107,221.833,69.107,221.833,71.042L221.833,71.042z"/>
			</g>
		</g>
		<g style="display:inline;">
			<g>
				<path style="fill:#FFFFFF;" d="M248.333,71.042c0,48.049,0,96.098,0,144.146c0,25.118,0,50.235,0,75.354c0,1.935,3,1.935,3,0
					c0-48.049,0-96.098,0-144.146c0-25.118,0-50.236,0-75.354C251.333,69.107,248.333,69.107,248.333,71.042L248.333,71.042z"/>
			</g>
		</g>
		<g style="display:inline;">
			<g>
				<g>
					<path style="fill:#FFFFFF;" d="M241.501,85.839c-0.055,0.263,0.692,0.24,0.142,0.24c-0.354,0-0.707,0-1.061,0
						c-1.025,0-2.051,0-3.076,0c-2.053,0-4.104,0-6.157,0c-0.554,0,0.196-0.02,0.196,0.124c0-0.256,0-0.513,0-0.77
						c0-0.985,0-1.97,0-2.955c0-1.919,0-3.838,0-5.758c0,0.144-0.75,0.124-0.196,0.124c0.354,0,0.707,0,1.061,0
						c1.025,0,2.051,0,3.076,0c2.053,0,4.104,0,6.157,0c0.553,0-0.195,0.02-0.195-0.124c0,0.256,0,0.513,0,0.77
						c0,1.153,0,2.307,0,3.461c0,1.762,0,3.525,0,5.288c0,1.935,3,1.935,3,0c0-2.409,0-4.818,0-7.227
						c0-1.915,0.237-5.167-2.568-5.167c-2.457,0-4.914,0-7.371,0c-2.37,0-5.28-0.567-5.909,2.442
						c-0.466,2.229-0.054,4.903-0.054,7.167c0,1.971-0.403,5.626,2.567,5.626c2.457,0,4.914,0,7.371,0
						c2.371,0,5.28,0.567,5.91-2.442C244.789,84.75,241.897,83.946,241.501,85.839z"/>
				</g>
			</g>
			<g>
				<g>
					<g>
						<path style="fill:#FFFFFF;" d="M231.121,87.816c0,0.509,0,1.017,0,1.526c0,1.935,3,1.935,3,0c0-0.509,0-1.017,0-1.526
							C234.121,85.881,231.121,85.881,231.121,87.816L231.121,87.816z"/>
					</g>
				</g>
				<g>
					<g>
						<path style="fill:#FFFFFF;" d="M238.871,87.816c0,0.509,0,1.017,0,1.526c0,1.935,3,1.935,3,0c0-0.509,0-1.017,0-1.526
							C241.871,85.881,238.871,85.881,238.871,87.816L238.871,87.816z"/>
					</g>
				</g>
			</g>
			<g>
				<g>
					<g>
						<path style="fill:#FFFFFF;" d="M231.121,73.818c0,0.509,0,1.017,0,1.526c0,1.935,3,1.935,3,0c0-0.509,0-1.017,0-1.526
							C234.121,71.883,231.121,71.883,231.121,73.818L231.121,73.818z"/>
					</g>
				</g>
				<g>
					<g>
						<path style="fill:#FFFFFF;" d="M238.871,73.818c0,0.509,0,1.017,0,1.526c0,1.935,3,1.935,3,0c0-0.509,0-1.017,0-1.526
							C241.871,71.883,238.871,71.883,238.871,73.818L238.871,73.818z"/>
					</g>
				</g>
			</g>
		</g>
		<g style="display:inline;">
			<g>
				<g>
					<path style="fill:#FFFFFF;" d="M241.501,125.535c-0.055,0.263,0.692,0.24,0.142,0.24c-0.354,0-0.707,0-1.061,0
						c-1.025,0-2.051,0-3.076,0c-2.053,0-4.104,0-6.157,0c-0.554,0,0.196-0.02,0.196,0.124c0-0.256,0-0.513,0-0.77
						c0-0.985,0-1.97,0-2.955c0-1.919,0-3.838,0-5.758c0,0.144-0.75,0.124-0.196,0.124c0.354,0,0.707,0,1.061,0
						c1.025,0,2.051,0,3.076,0c2.053,0,4.104,0,6.157,0c0.553,0-0.195,0.02-0.195-0.124c0,0.256,0,0.513,0,0.77
						c0,1.153,0,2.307,0,3.461c0,1.762,0,3.525,0,5.288c0,1.935,3,1.935,3,0c0-2.409,0-4.818,0-7.227
						c0-1.915,0.237-5.167-2.568-5.167c-2.457,0-4.914,0-7.371,0c-2.37,0-5.28-0.567-5.909,2.442
						c-0.466,2.229-0.054,4.903-0.054,7.167c0,1.971-0.403,5.626,2.567,5.626c2.457,0,4.914,0,7.371,0
						c2.371,0,5.28,0.567,5.91-2.442C244.789,124.445,241.897,123.642,241.501,125.535z"/>
				</g>
			</g>
			<g>
				<g>
					<g>
						<path style="fill:#FFFFFF;" d="M231.121,127.512c0,0.509,0,1.017,0,1.526c0,1.935,3,1.935,3,0c0-0.509,0-1.017,0-1.526
							C234.121,125.577,231.121,125.577,231.121,127.512L231.121,127.512z"/>
					</g>
				</g>
				<g>
					<g>
						<path style="fill:#FFFFFF;" d="M238.871,127.512c0,0.509,0,1.017,0,1.526c0,1.935,3,1.935,3,0c0-0.509,0-1.017,0-1.526
							C241.871,125.577,238.871,125.577,238.871,127.512L238.871,127.512z"/>
					</g>
				</g>
			</g>
			<g>
				<g>
					<g>
						<path style="fill:#FFFFFF;" d="M231.121,113.514c0,0.509,0,1.017,0,1.526c0,1.935,3,1.935,3,0c0-0.509,0-1.017,0-1.526
							C234.121,111.579,231.121,111.579,231.121,113.514L231.121,113.514z"/>
					</g>
				</g>
				<g>
					<g>
						<path style="fill:#FFFFFF;" d="M238.871,113.514c0,0.509,0,1.017,0,1.526c0,1.935,3,1.935,3,0c0-0.509,0-1.017,0-1.526
							C241.871,111.579,238.871,111.579,238.871,113.514L238.871,113.514z"/>
					</g>
				</g>
			</g>
		</g>
		<g style="display:inline;">
			<g>
				<g>
					<path style="fill:#FFFFFF;" d="M241.501,165.231c-0.055,0.263,0.692,0.24,0.142,0.24c-0.354,0-0.707,0-1.061,0
						c-1.025,0-2.051,0-3.076,0c-2.053,0-4.104,0-6.157,0c-0.554,0,0.196-0.02,0.196,0.124c0-0.256,0-0.513,0-0.77
						c0-0.985,0-1.97,0-2.955c0-1.919,0-3.838,0-5.758c0,0.144-0.75,0.124-0.196,0.124c0.354,0,0.707,0,1.061,0
						c1.025,0,2.051,0,3.076,0c2.053,0,4.104,0,6.157,0c0.553,0-0.195,0.02-0.195-0.124c0,0.256,0,0.513,0,0.77
						c0,1.153,0,2.307,0,3.461c0,1.762,0,3.525,0,5.288c0,1.935,3,1.935,3,0c0-2.409,0-4.818,0-7.227
						c0-1.915,0.237-5.167-2.568-5.167c-2.457,0-4.914,0-7.371,0c-2.37,0-5.28-0.567-5.909,2.442
						c-0.466,2.229-0.054,4.903-0.054,7.167c0,1.971-0.403,5.626,2.567,5.626c2.457,0,4.914,0,7.371,0
						c2.371,0,5.28,0.567,5.91-2.442C244.789,164.141,241.897,163.338,241.501,165.231z"/>
				</g>
			</g>
			<g>
				<g>
					<g>
						<path style="fill:#FFFFFF;" d="M231.121,167.208c0,0.509,0,1.017,0,1.526c0,1.935,3,1.935,3,0c0-0.509,0-1.017,0-1.526
							C234.121,165.273,231.121,165.273,231.121,167.208L231.121,167.208z"/>
					</g>
				</g>
				<g>
					<g>
						<path style="fill:#FFFFFF;" d="M238.871,167.208c0,0.509,0,1.017,0,1.526c0,1.935,3,1.935,3,0c0-0.509,0-1.017,0-1.526
							C241.871,165.273,238.871,165.273,238.871,167.208L238.871,167.208z"/>
					</g>
				</g>
			</g>
			<g>
				<g>
					<g>
						<path style="fill:#FFFFFF;" d="M231.121,153.209c0,0.509,0,1.017,0,1.526c0,1.935,3,1.935,3,0c0-0.509,0-1.017,0-1.526
							C234.121,151.275,231.121,151.275,231.121,153.209L231.121,153.209z"/>
					</g>
				</g>
				<g>
					<g>
						<path style="fill:#FFFFFF;" d="M238.871,153.209c0,0.509,0,1.017,0,1.526c0,1.935,3,1.935,3,0c0-0.509,0-1.017,0-1.526
							C241.871,151.275,238.871,151.275,238.871,153.209L238.871,153.209z"/>
					</g>
				</g>
			</g>
		</g>
		<g style="display:inline;">
			<g>
				<g>
					<path style="fill:#FFFFFF;" d="M241.501,204.927c-0.055,0.262,0.692,0.239,0.142,0.239c-0.354,0-0.707,0-1.061,0
						c-1.025,0-2.051,0-3.076,0c-2.053,0-4.104,0-6.157,0c-0.554,0,0.196-0.02,0.196,0.123c0-0.256,0-0.513,0-0.769
						c0-0.985,0-1.971,0-2.955c0-1.92,0-3.839,0-5.758c0,0.143-0.75,0.123-0.196,0.123c0.354,0,0.707,0,1.061,0
						c1.025,0,2.051,0,3.076,0c2.053,0,4.104,0,6.157,0c0.553,0-0.195,0.02-0.195-0.123c0,0.256,0,0.513,0,0.769
						c0,1.154,0,2.308,0,3.461c0,1.763,0,3.525,0,5.288c0,1.935,3,1.935,3,0c0-2.409,0-4.818,0-7.228
						c0-1.915,0.237-5.167-2.568-5.167c-2.457,0-4.914,0-7.371,0c-2.37,0-5.28-0.567-5.909,2.442
						c-0.466,2.228-0.054,4.902-0.054,7.167c0,1.971-0.403,5.626,2.567,5.626c2.457,0,4.914,0,7.371,0
						c2.371,0,5.28,0.567,5.91-2.442C244.789,203.837,241.897,203.033,241.501,204.927z"/>
				</g>
			</g>
			<g>
				<g>
					<g>
						<path style="fill:#FFFFFF;" d="M231.121,206.902c0,0.509,0,1.018,0,1.526c0,1.935,3,1.935,3,0c0-0.509,0-1.018,0-1.526
							C234.121,204.968,231.121,204.968,231.121,206.902L231.121,206.902z"/>
					</g>
				</g>
				<g>
					<g>
						<path style="fill:#FFFFFF;" d="M238.871,206.902c0,0.509,0,1.018,0,1.526c0,1.935,3,1.935,3,0c0-0.509,0-1.018,0-1.526
							C241.871,204.968,238.871,204.968,238.871,206.902L238.871,206.902z"/>
					</g>
				</g>
			</g>
			<g>
				<g>
					<g>
						<path style="fill:#FFFFFF;" d="M231.121,192.904c0,0.509,0,1.018,0,1.526c0,1.935,3,1.935,3,0c0-0.509,0-1.018,0-1.526
							C234.121,190.97,231.121,190.97,231.121,192.904L231.121,192.904z"/>
					</g>
				</g>
				<g>
					<g>
						<path style="fill:#FFFFFF;" d="M238.871,192.904c0,0.509,0,1.018,0,1.526c0,1.935,3,1.935,3,0c0-0.509,0-1.018,0-1.526
							C241.871,190.97,238.871,190.97,238.871,192.904L238.871,192.904z"/>
					</g>
				</g>
			</g>
		</g>
		<g style="display:inline;">
			<g>
				<g>
					<path style="fill:#FFFFFF;" d="M241.501,244.623c-0.055,0.261,0.692,0.238,0.142,0.238c-0.354,0-0.707,0-1.061,0
						c-1.025,0-2.051,0-3.076,0c-2.053,0-4.104,0-6.157,0c-0.554,0,0.196-0.02,0.196,0.124c0-0.256,0-0.513,0-0.77
						c0-0.984,0-1.97,0-2.955c0-1.919,0-3.839,0-5.758c0,0.144-0.75,0.124-0.196,0.124c0.354,0,0.707,0,1.061,0
						c1.025,0,2.051,0,3.076,0c2.053,0,4.104,0,6.157,0c0.553,0-0.195,0.02-0.195-0.124c0,0.256,0,0.513,0,0.77
						c0,1.153,0,2.307,0,3.461c0,1.763,0,3.525,0,5.288c0,1.935,3,1.935,3,0c0-2.409,0-4.818,0-7.228
						c0-1.916,0.237-5.167-2.568-5.167c-2.457,0-4.914,0-7.371,0c-2.37,0-5.28-0.567-5.909,2.441
						c-0.466,2.229-0.054,4.903-0.054,7.168c0,1.971-0.403,5.625,2.567,5.625c2.457,0,4.914,0,7.371,0c2.37,0,5.28,0.567,5.91-2.441
						C244.789,243.533,241.897,242.729,241.501,244.623z"/>
				</g>
			</g>
			<g>
				<g>
					<g>
						<path style="fill:#FFFFFF;" d="M231.121,246.599c0,0.509,0,1.018,0,1.526c0,1.935,3,1.935,3,0c0-0.509,0-1.018,0-1.526
							C234.121,244.664,231.121,244.664,231.121,246.599L231.121,246.599z"/>
					</g>
				</g>
				<g>
					<g>
						<path style="fill:#FFFFFF;" d="M238.871,246.599c0,0.509,0,1.018,0,1.526c0,1.935,3,1.935,3,0c0-0.509,0-1.018,0-1.526
							C241.871,244.664,238.871,244.664,238.871,246.599L238.871,246.599z"/>
					</g>
				</g>
			</g>
			<g>
				<g>
					<g>
						<path style="fill:#FFFFFF;" d="M231.121,232.601c0,0.509,0,1.018,0,1.526c0,1.935,3,1.935,3,0c0-0.509,0-1.018,0-1.526
							C234.121,230.666,231.121,230.666,231.121,232.601L231.121,232.601z"/>
					</g>
				</g>
				<g>
					<g>
						<path style="fill:#FFFFFF;" d="M238.871,232.601c0,0.509,0,1.018,0,1.526c0,1.935,3,1.935,3,0c0-0.509,0-1.018,0-1.526
							C241.871,230.666,238.871,230.666,238.871,232.601L238.871,232.601z"/>
					</g>
				</g>
			</g>
		</g>
		<g style="display:inline;">
			<g>
				<g>
					<path style="fill:#FFFFFF;" d="M241.501,284.318c-0.055,0.262,0.692,0.239,0.142,0.239c-0.354,0-0.707,0-1.061,0
						c-1.025,0-2.051,0-3.076,0c-2.053,0-4.104,0-6.157,0c-0.554,0,0.196-0.02,0.196,0.123c0-0.256,0-0.513,0-0.769
						c0-0.985,0-1.971,0-2.955c0-1.92,0-3.839,0-5.758c0,0.143-0.75,0.123-0.196,0.123c0.354,0,0.707,0,1.061,0
						c1.025,0,2.051,0,3.076,0c2.053,0,4.104,0,6.157,0c0.553,0-0.195,0.02-0.195-0.123c0,0.256,0,0.513,0,0.769
						c0,1.154,0,2.308,0,3.461c0,1.763,0,3.525,0,5.288c0,1.935,3,1.935,3,0c0-2.409,0-4.818,0-7.228
						c0-1.915,0.237-5.167-2.568-5.167c-2.457,0-4.914,0-7.371,0c-2.37,0-5.28-0.567-5.909,2.442
						c-0.466,2.228-0.054,4.902-0.054,7.167c0,1.971-0.403,5.626,2.567,5.626c2.457,0,4.914,0,7.371,0
						c2.371,0,5.28,0.567,5.91-2.442C244.789,283.229,241.897,282.425,241.501,284.318z"/>
				</g>
			</g>
			<g>
				<g>
					<g>
						<path style="fill:#FFFFFF;" d="M231.121,286.295c0,0.509,0,1.017,0,1.525c0,1.935,3,1.935,3,0c0-0.509,0-1.017,0-1.525
							C234.121,284.36,231.121,284.36,231.121,286.295L231.121,286.295z"/>
					</g>
				</g>
				<g>
					<g>
						<path style="fill:#FFFFFF;" d="M238.871,286.295c0,0.509,0,1.017,0,1.525c0,1.935,3,1.935,3,0c0-0.509,0-1.017,0-1.525
							C241.871,284.36,238.871,284.36,238.871,286.295L238.871,286.295z"/>
					</g>
				</g>
			</g>
			<g>
				<g>
					<g>
						<path style="fill:#FFFFFF;" d="M231.121,272.297c0,0.509,0,1.017,0,1.525c0,1.935,3,1.935,3,0c0-0.509,0-1.017,0-1.525
							C234.121,270.362,231.121,270.362,231.121,272.297L231.121,272.297z"/>
					</g>
				</g>
				<g>
					<g>
						<path style="fill:#FFFFFF;" d="M238.871,272.297c0,0.509,0,1.017,0,1.525c0,1.935,3,1.935,3,0c0-0.509,0-1.017,0-1.525
							C241.871,270.362,238.871,270.362,238.871,272.297L238.871,272.297z"/>
					</g>
				</g>
			</g>
		</g>
		<g style="display:inline;">
			<g>
				<path style="fill:#FFFFFF;" d="M233.832,103.167c1.776,0,3.552,0,5.328,0c1.935,0,1.935-3,0-3c-1.776,0-3.552,0-5.328,0
					C231.897,100.167,231.897,103.167,233.832,103.167L233.832,103.167z"/>
			</g>
		</g>
		<g style="display:inline;">
			<g>
				<path style="fill:#FFFFFF;" d="M233.832,183.456c1.776,0,3.552,0,5.328,0c1.935,0,1.935-3,0-3c-1.776,0-3.552,0-5.328,0
					C231.897,180.456,231.897,183.456,233.832,183.456L233.832,183.456z"/>
			</g>
		</g>
		<g style="display:inline;">
			<g>
				<path style="fill:#FFFFFF;" d="M233.832,262.834c1.776,0,3.552,0,5.328,0c1.935,0,1.935-3,0-3c-1.776,0-3.552,0-5.328,0
					C231.897,259.834,231.897,262.834,233.832,262.834L233.832,262.834z"/>
			</g>
		</g>
	</g>
	<g style="display:none;">
		<g style="display:inline;">
			<g>
				<path style="fill:#FFFFFF;" d="M208.066,120.018c-3.514,0-7.028,0-10.542,0c-1.935,0-1.935,3,0,3c3.514,0,7.028,0,10.542,0
					C210.001,123.018,210.001,120.018,208.066,120.018L208.066,120.018z"/>
			</g>
		</g>
		<g style="display:inline;">
			<g>
				<path style="fill:#FFFFFF;" d="M207.461,123.934c-2.484,2.118-4.969,4.235-7.453,6.354c-1.475,1.257,0.658,3.369,2.121,2.121
					c2.484-2.118,4.969-4.235,7.453-6.354C211.057,124.798,208.924,122.686,207.461,123.934L207.461,123.934z"/>
			</g>
		</g>
		<g style="display:inline;">
			<g>
				<path style="fill:#FFFFFF;" d="M209.582,116.63c-2.484-2.118-4.969-4.236-7.453-6.354c-1.463-1.248-3.596,0.864-2.121,2.121
					c2.484,2.118,4.969,4.236,7.453,6.354C208.924,119.999,211.057,117.887,209.582,116.63L209.582,116.63z"/>
			</g>
		</g>
		<g style="display:inline;">
			<g>
				<path style="fill:#FFFFFF;" d="M208.066,80.147c-3.514,0-7.028,0-10.542,0c-1.935,0-1.935,3,0,3c3.514,0,7.028,0,10.542,0
					C210.001,83.147,210.001,80.147,208.066,80.147L208.066,80.147z"/>
			</g>
		</g>
		<g style="display:inline;">
			<g>
				<path style="fill:#FFFFFF;" d="M207.461,84.063c-2.484,2.118-4.969,4.235-7.453,6.354c-1.475,1.257,0.658,3.369,2.121,2.121
					c2.484-2.118,4.969-4.235,7.453-6.354C211.057,84.928,208.924,82.816,207.461,84.063L207.461,84.063z"/>
			</g>
		</g>
		<g style="display:inline;">
			<g>
				<path style="fill:#FFFFFF;" d="M209.582,76.76c-2.484-2.118-4.969-4.236-7.453-6.354c-1.463-1.248-3.596,0.864-2.121,2.121
					c2.484,2.118,4.969,4.236,7.453,6.354C208.924,80.129,211.057,78.017,209.582,76.76L209.582,76.76z"/>
			</g>
		</g>
		<g style="display:inline;">
			<g>
				<path style="fill:#FFFFFF;" d="M207.838,198.999c-3.514,0-7.027,0-10.541,0c-1.935,0-1.935,3,0,3c3.514,0,7.027,0,10.541,0
					C209.772,201.999,209.772,198.999,207.838,198.999L207.838,198.999z"/>
			</g>
		</g>
		<g style="display:inline;">
			<g>
				<path style="fill:#FFFFFF;" d="M207.233,202.915c-2.484,2.118-4.97,4.235-7.454,6.354c-1.475,1.257,0.658,3.368,2.121,2.121
					c2.484-2.118,4.97-4.235,7.454-6.354C210.829,203.779,208.696,201.668,207.233,202.915L207.233,202.915z"/>
			</g>
		</g>
		<g style="display:inline;">
			<g>
				<path style="fill:#FFFFFF;" d="M209.354,195.611c-2.484-2.118-4.97-4.235-7.454-6.354c-1.463-1.247-3.596,0.864-2.121,2.121
					c2.484,2.118,4.97,4.235,7.454,6.354C208.696,198.979,210.829,196.868,209.354,195.611L209.354,195.611z"/>
			</g>
		</g>
		<g style="display:inline;">
			<g>
				<path style="fill:#FFFFFF;" d="M207.838,161.129c-3.514,0-7.027,0-10.541,0c-1.935,0-1.935,3,0,3c3.514,0,7.027,0,10.541,0
					C209.772,164.129,209.772,161.129,207.838,161.129L207.838,161.129z"/>
			</g>
		</g>
		<g style="display:inline;">
			<g>
				<path style="fill:#FFFFFF;" d="M207.233,165.045c-2.484,2.118-4.97,4.235-7.454,6.354c-1.475,1.257,0.658,3.368,2.121,2.121
					c2.484-2.118,4.97-4.235,7.454-6.354C210.829,165.909,208.696,163.798,207.233,165.045L207.233,165.045z"/>
			</g>
		</g>
		<g style="display:inline;">
			<g>
				<path style="fill:#FFFFFF;" d="M209.354,157.742c-2.484-2.118-4.97-4.236-7.454-6.354c-1.463-1.248-3.596,0.864-2.121,2.121
					c2.484,2.118,4.97,4.236,7.454,6.354C208.696,161.11,210.829,158.999,209.354,157.742L209.354,157.742z"/>
			</g>
		</g>
		<g style="display:inline;">
			<g>
				<path style="fill:#FFFFFF;" d="M207.838,278.371c-3.514,0-7.027,0-10.541,0c-1.935,0-1.935,3,0,3c3.514,0,7.027,0,10.541,0
					C209.772,281.371,209.772,278.371,207.838,278.371L207.838,278.371z"/>
			</g>
		</g>
		<g style="display:inline;">
			<g>
				<path style="fill:#FFFFFF;" d="M207.233,282.287c-2.484,2.118-4.97,4.235-7.454,6.354c-1.475,1.257,0.658,3.368,2.121,2.121
					c2.484-2.118,4.97-4.235,7.454-6.354C210.829,283.151,208.696,281.04,207.233,282.287L207.233,282.287z"/>
			</g>
		</g>
		<g style="display:inline;">
			<g>
				<path style="fill:#FFFFFF;" d="M209.354,274.984c-2.484-2.118-4.97-4.235-7.454-6.354c-1.463-1.247-3.596,0.864-2.121,2.121
					c2.484,2.118,4.97,4.235,7.454,6.354C208.696,278.353,210.829,276.241,209.354,274.984L209.354,274.984z"/>
			</g>
		</g>
		<g style="display:inline;">
			<g>
				<path style="fill:#FFFFFF;" d="M207.838,238.501c-3.514,0-7.027,0-10.541,0c-1.935,0-1.935,3,0,3c3.514,0,7.027,0,10.541,0
					C209.772,241.501,209.772,238.501,207.838,238.501L207.838,238.501z"/>
			</g>
		</g>
		<g style="display:inline;">
			<g>
				<path style="fill:#FFFFFF;" d="M207.233,242.417c-2.484,2.118-4.97,4.235-7.454,6.354c-1.475,1.257,0.658,3.368,2.121,2.121
					c2.484-2.118,4.97-4.235,7.454-6.354C210.829,243.281,208.696,241.17,207.233,242.417L207.233,242.417z"/>
			</g>
		</g>
		<g style="display:inline;">
			<g>
				<path style="fill:#FFFFFF;" d="M209.354,235.113c-2.484-2.118-4.97-4.235-7.454-6.354c-1.463-1.247-3.596,0.864-2.121,2.121
					c2.484,2.118,4.97,4.235,7.454,6.354C208.696,238.481,210.829,236.37,209.354,235.113L209.354,235.113z"/>
			</g>
		</g>
	</g>
	<g>
		<path style="fill:none;stroke:#FFFFFF;stroke-width:10;stroke-miterlimit:10;" d="M286.903,282.17c0,2.664-2.15,4.825-4.804,4.825
			l-134.833,0.015c-2.653,0-4.804-2.162-4.804-4.826v-86.877c0-2.664,2.15-4.826,4.804-4.826l134.833-0.014
			c2.653,0,4.804,2.162,4.804,4.826V282.17z"/>
		<g>
			<g>
				<path style="fill:#FFFFFF;" d="M210.387,243.754c2.864,0,5.728,0,8.592,0c2.726,0,5-2.274,5-5s-2.274-5-5-5
					c-2.864,0-5.728,0-8.592,0c-2.726,0-5,2.274-5,5S207.661,243.754,210.387,243.754L210.387,243.754z"/>
			</g>
		</g>
		
			<line style="fill:none;stroke:#FFFFFF;stroke-width:10;stroke-miterlimit:10;" x1="214.683" y1="191.057" x2="214.683" y2="284.523"/>
		<path style="fill:none;stroke:#FFFFFF;stroke-width:10;stroke-miterlimit:10;" d="M286.903,193.526
			c0,1.694-1.847,3.066-4.124,3.066l-136.193,0.015c-2.277,0-4.124-1.373-4.124-3.066v-6.133c0-1.694,1.847-3.066,4.124-3.066
			l136.193-0.015c2.277,0,4.124,1.373,4.124,3.066V193.526z"/>
	</g>
</g>
<g id="Ebene_1">
</g>
</svg>
