<?xml version="1.0" encoding="iso-8859-1"?>
<!-- Generator: Adobe Illustrator 16.0.0, SVG Export Plug-In . SVG Version: 6.00 Build 0)  -->
<!DOCTYPE svg PUBLIC "-//W3C//DTD SVG 1.1//EN" "http://www.w3.org/Graphics/SVG/1.1/DTD/svg11.dtd">
<svg version="1.1" xmlns="http://www.w3.org/2000/svg" xmlns:xlink="http://www.w3.org/1999/xlink" x="0px" y="0px" width="361px"
	 height="361px" viewBox="0 0 361 361" style="enable-background:new 0 0 361 361;" xml:space="preserve">
<g id="measure_x5F_radioactivity">
	<g style="display:none;">
		<path style="display:inline;fill:#FFFFFF;" d="M203.159,181.207c0.117,7.787-3.872,15.406-11.096,19.577l44.399,76.903
			c35.687-20.604,55.604-58.031,55.518-96.48H203.159z"/>
		<path style="display:inline;fill:#FFFFFF;" d="M169.804,162.392c6.687-3.996,15.279-4.351,22.503-0.18l44.4-76.902
			c-35.687-20.604-78.059-19.139-111.313,0.16L169.804,162.392z"/>
		<path style="display:inline;fill:#FFFFFF;" d="M170.04,200.029c-6.804-3.793-11.407-11.056-11.408-19.398l-88.799,0.001
			c0,41.206,22.455,77.168,55.796,96.319L170.04,200.029z"/>
	</g>
	<g>
		<path style="fill:#FFFFFF;stroke:#FFFFFF;stroke-width:10;stroke-linecap:round;stroke-linejoin:round;stroke-miterlimit:10;" d="
			M198.803,180.29c0.094,6.289-3.127,12.441-8.961,15.809l35.854,62.099c28.816-16.638,44.898-46.86,44.83-77.908H198.803z"/>
		<path style="fill:#FFFFFF;stroke:#FFFFFF;stroke-width:10;stroke-linecap:round;stroke-linejoin:round;stroke-miterlimit:10;" d="
			M171.867,165.097c5.399-3.227,12.338-3.513,18.171-0.146l35.854-62.098c-28.817-16.638-63.033-15.455-89.887,0.129
			L171.867,165.097z"/>
		<path style="fill:#FFFFFF;stroke:#FFFFFF;stroke-width:10;stroke-linecap:round;stroke-linejoin:round;stroke-miterlimit:10;" d="
			M172.058,196.072c-5.494-3.063-9.211-8.928-9.212-15.664l-71.705,0c0,33.274,18.133,62.314,45.056,77.777L172.058,196.072z"/>
	</g>
	<circle style="fill:none;stroke:#FFFFFF;stroke-width:9.8486;stroke-miterlimit:10;" cx="180.708" cy="181.031" r="105.871"/>
</g>
<g id="Ebene_1">
</g>
</svg>
