<?xml version="1.0" encoding="iso-8859-1"?>
<!-- Generator: Adobe Illustrator 16.0.0, SVG Export Plug-In . SVG Version: 6.00 Build 0)  -->
<!DOCTYPE svg PUBLIC "-//W3C//DTD SVG 1.1//EN" "http://www.w3.org/Graphics/SVG/1.1/DTD/svg11.dtd">
<svg version="1.1" xmlns="http://www.w3.org/2000/svg" xmlns:xlink="http://www.w3.org/1999/xlink" x="0px" y="0px" width="361px"
	 height="361px" viewBox="0 0 361 361" style="enable-background:new 0 0 361 361;" xml:space="preserve">
<g id="measure_x5F_pH_x5F_value">
	<g>
		<g>
			<path style="fill:#FFFFFF;" d="M74.588,281.875c14.183,0,28.366,0,42.549,0c6.449,0,6.449-10,0-10c-14.183,0-28.366,0-42.549,0
				C68.14,271.875,68.14,281.875,74.588,281.875L74.588,281.875z"/>
		</g>
	</g>
	<g>
		<g>
			<path style="fill:#FFFFFF;" d="M74.588,268.359c8.304,0,16.607,0,24.911,0c6.449,0,6.449-10,0-10c-8.304,0-16.607,0-24.911,0
				C68.14,258.359,68.14,268.359,74.588,268.359L74.588,268.359z"/>
		</g>
	</g>
	<g>
		<g>
			<path style="fill:#FFFFFF;" d="M74.588,241.33c8.304,0,16.607,0,24.911,0c6.449,0,6.449-10,0-10c-8.304,0-16.607,0-24.911,0
				C68.14,231.33,68.14,241.33,74.588,241.33L74.588,241.33z"/>
		</g>
	</g>
	<g>
		<g>
			<path style="fill:#FFFFFF;" d="M74.588,227.815c8.304,0,16.607,0,24.911,0c6.449,0,6.449-10,0-10c-8.304,0-16.607,0-24.911,0
				C68.14,217.815,68.14,227.815,74.588,227.815L74.588,227.815z"/>
		</g>
	</g>
	<g>
		<g>
			<path style="fill:#FFFFFF;" d="M74.588,214.301c8.304,0,16.607,0,24.911,0c6.449,0,6.449-10,0-10c-8.304,0-16.607,0-24.911,0
				C68.14,204.301,68.14,214.301,74.588,214.301L74.588,214.301z"/>
		</g>
	</g>
	<g>
		<g>
			<path style="fill:#FFFFFF;" d="M74.588,200.785c8.304,0,16.607,0,24.911,0c6.449,0,6.449-10,0-10c-8.304,0-16.607,0-24.911,0
				C68.14,190.785,68.14,200.785,74.588,200.785L74.588,200.785z"/>
		</g>
	</g>
	<g>
		<g>
			<path style="fill:#FFFFFF;" d="M74.588,187.271c14.183,0,28.366,0,42.549,0c6.449,0,6.449-10,0-10c-14.183,0-28.366,0-42.549,0
				C68.14,177.271,68.14,187.271,74.588,187.271L74.588,187.271z"/>
		</g>
	</g>
	<g>
		<g>
			<path style="fill:#FFFFFF;" d="M74.588,173.756c8.304,0,16.607,0,24.911,0c6.449,0,6.449-10,0-10c-8.304,0-16.607,0-24.911,0
				C68.14,163.756,68.14,173.756,74.588,173.756L74.588,173.756z"/>
		</g>
	</g>
	<g>
		<g>
			<path style="fill:#FFFFFF;" d="M74.588,146.726c8.304,0,16.607,0,24.911,0c6.449,0,6.449-10,0-10c-8.304,0-16.607,0-24.911,0
				C68.14,136.726,68.14,146.726,74.588,146.726L74.588,146.726z"/>
		</g>
	</g>
	<g>
		<path style="fill:#FFFFFF;" d="M241.396,259.492c0,2.928-0.359,5.592-1.08,7.992c-0.719,2.4-1.775,4.463-3.168,6.191
			s-3.12,3.072-5.184,4.031c-2.064,0.961-4.44,1.441-7.128,1.441c-1.488,0-2.88-0.145-4.176-0.433s-2.545-0.695-3.744-1.224v14.256
			h-10.728v-49.896c0.959-0.287,2.063-0.563,3.312-0.828c1.247-0.264,2.556-0.491,3.924-0.684c1.368-0.191,2.76-0.348,4.177-0.469
			c1.414-0.119,2.771-0.18,4.067-0.18c3.12,0,5.903,0.469,8.353,1.404c2.447,0.936,4.511,2.257,6.191,3.96
			c1.68,1.704,2.963,3.78,3.852,6.228C240.953,253.732,241.396,256.468,241.396,259.492z M230.453,259.779
			c0-3.312-0.745-5.963-2.232-7.955c-1.488-1.992-3.696-2.988-6.623-2.988c-0.961,0-1.85,0.035-2.664,0.107
			c-0.817,0.072-1.489,0.156-2.017,0.252v19.369c0.671,0.432,1.548,0.791,2.628,1.079s2.172,0.433,3.275,0.433
			C227.908,270.076,230.453,266.645,230.453,259.779z"/>
		<path style="fill:#FFFFFF;" d="M280.492,228.531h11.232v49.896h-11.232V257.26h-18.863v21.168h-11.232v-49.896h11.232v19.08
			h18.863V228.531z"/>
	</g>
	<g>
		<g>
			<path style="fill:#FFFFFF;" d="M74.588,160.241c8.304,0,16.607,0,24.911,0c6.449,0,6.449-10,0-10c-8.304,0-16.607,0-24.911,0
				C68.14,150.241,68.14,160.241,74.588,160.241L74.588,160.241z"/>
		</g>
	</g>
	<g>
		<g>
			<path style="fill:#FFFFFF;" d="M74.588,133.211c8.304,0,16.607,0,24.911,0c6.449,0,6.449-10,0-10c-8.304,0-16.607,0-24.911,0
				C68.14,123.211,68.14,133.211,74.588,133.211L74.588,133.211z"/>
		</g>
	</g>
	<g>
		<g>
			<path style="fill:#FFFFFF;" d="M74.588,119.697c8.304,0,16.607,0,24.911,0c6.449,0,6.449-10,0-10c-8.304,0-16.607,0-24.911,0
				C68.14,109.697,68.14,119.697,74.588,119.697L74.588,119.697z"/>
		</g>
	</g>
	<g>
		<g>
			<path style="fill:#FFFFFF;" d="M74.588,106.182c8.304,0,16.607,0,24.911,0c6.449,0,6.449-10,0-10c-8.304,0-16.607,0-24.911,0
				C68.14,96.182,68.14,106.182,74.588,106.182L74.588,106.182z"/>
		</g>
	</g>
	<g>
		<g>
			<path style="fill:#FFFFFF;" d="M74.588,92.667c14.183,0,28.366,0,42.549,0c6.449,0,6.449-10,0-10c-14.183,0-28.366,0-42.549,0
				C68.14,82.667,68.14,92.667,74.588,92.667L74.588,92.667z"/>
		</g>
	</g>
	<g>
		<path style="fill:#FFFFFF;" d="M162.052,274.963c0,5.601-1.064,9.896-3.192,12.889c-2.128,2.992-5.064,4.487-8.808,4.487
			c-3.744,0-6.68-1.495-8.808-4.487c-2.129-2.992-3.192-7.288-3.192-12.889c0-2.783,0.28-5.248,0.84-7.393
			c0.56-2.143,1.368-3.951,2.424-5.424c1.056-1.471,2.32-2.592,3.792-3.359c1.472-0.768,3.12-1.152,4.944-1.152
			c3.744,0,6.68,1.496,8.808,4.488C160.988,265.115,162.052,269.395,162.052,274.963z M154.756,274.963
			c0-1.664-0.08-3.176-0.24-4.536c-0.161-1.359-0.417-2.536-0.768-3.528c-0.353-0.99-0.833-1.759-1.44-2.303
			c-0.608-0.545-1.361-0.816-2.256-0.816c-0.896,0-1.64,0.271-2.232,0.816c-0.592,0.544-1.072,1.313-1.44,2.303
			c-0.368,0.992-0.632,2.169-0.792,3.528c-0.161,1.36-0.24,2.872-0.24,4.536s0.079,3.185,0.24,4.561
			c0.16,1.376,0.424,2.561,0.792,3.552c0.368,0.992,0.848,1.761,1.44,2.304c0.592,0.545,1.336,0.816,2.232,0.816
			c0.896,0,1.648-0.271,2.256-0.816c0.607-0.543,1.087-1.312,1.44-2.304c0.352-0.991,0.607-2.176,0.768-3.552
			C154.676,278.147,154.756,276.627,154.756,274.963z"/>
	</g>
	<g>
		<path style="fill:#FFFFFF;" d="M143.236,204.463c0.192-2.336,0.592-4.768,1.2-7.297c0.607-2.527,1.352-5.008,2.232-7.439
			c0.88-2.432,1.864-4.729,2.952-6.889c1.087-2.16,2.191-4.023,3.312-5.591h-14.448v-6.096h23.28v5.184
			c-1.025,1.121-2.153,2.672-3.384,4.656c-1.232,1.984-2.4,4.232-3.504,6.744c-1.104,2.513-2.064,5.208-2.88,8.088
			c-0.816,2.881-1.32,5.76-1.512,8.641H143.236z"/>
	</g>
	<g>
		<path style="fill:#FFFFFF;" d="M126.148,76.1c0.928-0.384,1.896-0.823,2.904-1.32c1.008-0.496,1.992-1.04,2.952-1.632
			c0.96-0.591,1.88-1.215,2.76-1.872c0.88-0.656,1.672-1.352,2.376-2.088h4.992v33.264h-7.152V78.5
			c-0.96,0.641-2.032,1.224-3.216,1.752c-1.184,0.528-2.336,0.984-3.456,1.368L126.148,76.1z"/>
		<path style="fill:#FFFFFF;" d="M172.372,69.188v19.968h3.552v5.856h-3.552v7.44h-7.008v-7.44h-14.352V89.78
			c0.704-1.408,1.584-3,2.64-4.776c1.056-1.776,2.232-3.6,3.528-5.472s2.664-3.704,4.104-5.496c1.44-1.792,2.88-3.408,4.32-4.848
			H172.372z M165.364,77.924c-1.248,1.632-2.576,3.408-3.984,5.328c-1.409,1.92-2.592,3.888-3.552,5.904h7.536V77.924z"/>
	</g>
	<g>
		<g>
			<path style="fill:#FFFFFF;" d="M74.588,254.845c8.304,0,16.607,0,24.911,0c6.449,0,6.449-10,0-10c-8.304,0-16.607,0-24.911,0
				C68.14,244.845,68.14,254.845,74.588,254.845L74.588,254.845z"/>
		</g>
	</g>
</g>
<g id="Ebene_1">
</g>
</svg>
