<?xml version="1.0" encoding="iso-8859-1"?>
<!-- Generator: Adobe Illustrator 16.0.0, SVG Export Plug-In . SVG Version: 6.00 Build 0)  -->
<!DOCTYPE svg PUBLIC "-//W3C//DTD SVG 1.1//EN" "http://www.w3.org/Graphics/SVG/1.1/DTD/svg11.dtd">
<svg version="1.1" xmlns="http://www.w3.org/2000/svg" xmlns:xlink="http://www.w3.org/1999/xlink" x="0px" y="0px" width="361px"
	 height="361px" viewBox="0 0 361 361" style="enable-background:new 0 0 361 361;" xml:space="preserve">
<g id="measure_x5F_globe_x5F_lat">
	<g>
		<g>
			<path style="fill:#FFFFFF;" d="M255.471,179.156c-0.224-22.359-10.269-43.517-27.807-57.476
				c-17.77-14.144-41.127-18.929-63.151-13.795c-21.312,4.968-39.504,20.395-48.832,40.024c-9.771,20.563-8.952,44.61,1.147,64.85
				c15.095,30.25,50.4,45.225,82.822,37.667C232.319,242.812,255.14,212.22,255.471,179.156c0.064-6.451-9.936-6.445-10,0
				c-0.226,22.584-12.017,43.133-31.396,54.734c-19.541,11.698-44.408,11.22-63.987,0c-19.492-11.169-31.173-32.477-31.396-54.734
				c-0.225-22.458,12.305-43.306,31.396-54.734c19.541-11.698,44.408-11.22,63.987,0c19.491,11.169,31.173,32.477,31.396,54.734
				C245.535,185.602,255.535,185.607,255.471,179.156z"/>
		</g>
	</g>
	<g>
		<g>
			<g>
				<g>
					<g>
						<path style="fill:#FFFFFF;" d="M162.313,111.843c-1.603-4.561-3.207-9.122-4.81-13.683c-1.486-4.229-8.251-2.409-6.75,1.861
							c1.603,4.561,3.207,9.122,4.81,13.683C157.05,117.934,163.814,116.113,162.313,111.843L162.313,111.843z"/>
					</g>
				</g>
				<g>
					<g>
						<path style="fill:#FFFFFF;" d="M212.904,255.767c-1.304-3.707-2.606-7.414-3.91-11.121c-1.487-4.229-8.251-2.409-6.75,1.861
							c1.304,3.707,2.606,7.414,3.91,11.121C207.642,261.856,214.405,260.037,212.904,255.767L212.904,255.767z"/>
					</g>
				</g>
			</g>
			<g>
				<g>
					<path style="fill:#FFFFFF;" d="M152.653,95.552c-43.006,15.686-67.527,61.579-56.1,106.037
						c11.427,44.458,56.716,71.999,101.361,64.33c4.593-0.789,9.088-2.067,13.486-3.591c4.238-1.468,2.416-8.231-1.861-6.75
						c-42.091,14.575-88.816-7.081-104.15-49.126c-15.264-41.852,7.598-89.003,49.126-104.15
						C158.72,100.768,156.904,94.001,152.653,95.552L152.653,95.552z"/>
				</g>
			</g>
		</g>
		<g>
			<g>
				<path style="fill:#FFFFFF;" d="M167.224,262.434c0,7.571,0,15.142,0,22.713c0,4.514,7,4.514,7,0c0-7.571,0-15.142,0-22.713
					C174.224,257.92,167.224,257.92,167.224,262.434L167.224,262.434z"/>
			</g>
		</g>
		<g>
			<g>
				<path style="fill:#FFFFFF;" d="M139.769,292.165c20.245,0,40.49,0,60.735,0c6.448,0,6.448-10,0-10c-20.245,0-40.49,0-60.735,0
					C133.32,282.165,133.32,292.165,139.769,292.165L139.769,292.165z"/>
			</g>
		</g>
	</g>
	<g id="lat_5_">
		<g>
			<path style="fill:#FFFFFF;" d="M111.041,184.684c-10.917,6.005-22.089,12.462-31.075,21.215c-3.47,3.38-8.112,8.891-5.452,14.003
				c2.052,3.944,7.903,4.703,11.775,5.129c8.498,0.934,17.289-0.3,25.685-1.565c28.033-4.227,55.521-13.053,82.018-22.91
				c24.855-9.248,49.585-19.991,72.156-34.01c6.868-4.265,13.747-8.968,19.365-14.83c2.853-2.976,5.807-6.854,5.17-11.207
				c-0.807-5.52-8.702-6.551-12.974-6.98c-12.638-1.27-25.99,1.492-38.303,4.008c-1.896,0.387-1.091,3.278,0.797,2.893
				c12.516-2.557,25.703-5.086,38.532-3.797c6.176,0.621,11.367,3.382,7.359,9.636c-4.06,6.335-11.284,10.984-17.396,15.07
				c-9.654,6.455-19.98,11.913-30.387,17.041c-27.594,13.598-56.719,24.394-86.266,32.89c-12.576,3.615-25.329,6.694-38.234,8.88
				c-9.012,1.526-18.375,2.714-27.523,1.881c-6.298-0.574-12.201-3.091-7.69-9.959c3.2-4.874,8.495-8.644,13.131-11.995
				c6.604-4.774,13.693-8.88,20.825-12.803C114.25,186.341,112.737,183.75,111.041,184.684L111.041,184.684z"/>
		</g>
	</g>
</g>
<g id="Ebene_1">
</g>
</svg>
