<?xml version="1.0" encoding="iso-8859-1"?>
<!-- Generator: Adobe Illustrator 16.0.0, SVG Export Plug-In . SVG Version: 6.00 Build 0)  -->
<!DOCTYPE svg PUBLIC "-//W3C//DTD SVG 1.1 Tiny//EN" "http://www.w3.org/Graphics/SVG/1.1/DTD/svg11-tiny.dtd">
<svg version="1.1" baseProfile="tiny" id="measure_x5F_photovoltaic_x5F_inst"
	 xmlns="http://www.w3.org/2000/svg" xmlns:xlink="http://www.w3.org/1999/xlink" x="0px" y="0px" width="361px" height="361px"
	 viewBox="0 0 361 361" xml:space="preserve">
<g>
	<polygon fill="#FFFFFF" points="107.717,177.862 71.694,212.694 83.953,164.107 	"/>
	<g>
		<path fill="#FFFFFF" d="M105.125,175.27c-12.008,11.611-24.015,23.221-36.023,34.832c2.042,1.189,4.085,2.378,6.127,3.567
			c4.086-16.196,8.173-32.391,12.259-48.587c-1.795,0.73-3.59,1.46-5.385,2.191c7.921,4.585,15.842,9.17,23.764,13.755
			c4.1,2.373,7.79-3.964,3.7-6.331c-7.921-4.585-15.842-9.17-23.764-13.755c-2.016-1.167-4.802-0.121-5.385,2.191
			c-4.086,16.196-8.173,32.391-12.259,48.587c-0.9,3.57,3.467,6.139,6.127,3.567c12.008-11.611,24.015-23.221,36.023-34.832
			C113.713,177.163,108.523,171.983,105.125,175.27z"/>
	</g>
</g>
<g>
	<path fill="#FFFFFF" d="M165.951,289.821c-0.094-31.259-0.189-62.518-0.283-93.776c-2.508,1.439-5.016,2.878-7.523,4.317
		c38.969,29.555,77.939,59.11,116.909,88.666c2.246,1.703,4.492,3.407,6.738,5.11c0.841-3.106,1.682-6.211,2.523-9.317
		c-41.121,0-82.243,0-123.364,0c-6.449,0-6.449,10,0,10c41.121,0,82.243,0,123.364,0c5.402,0,6.252-6.489,2.523-9.317
		c-38.969-29.555-77.939-59.11-116.909-88.666c-2.246-1.703-4.492-3.407-6.738-5.11c-3.125-2.371-7.534,0.868-7.523,4.317
		c0.094,31.259,0.189,62.518,0.283,93.776C155.971,296.269,165.971,296.271,165.951,289.821z"/>
</g>
<g>
	<path fill="#FFFFFF" d="M183.583,201.408c27.914,21.531,55.829,43.063,83.743,64.594c5.106,3.939,10.076-4.756,5.047-8.635
		c-27.914-21.531-55.829-43.063-83.743-64.594C183.523,188.834,178.554,197.529,183.583,201.408L183.583,201.408z"/>
</g>
<path fill="none" stroke="#FFFFFF" stroke-width="10" stroke-miterlimit="10" d="M267.245,126.362c0,2.466-1.999,4.466-4.466,4.466
	h-25.682c-2.467,0-4.466-2-4.466-4.466V100.68c0-2.467,2-4.466,4.466-4.466h25.682c2.467,0,4.466,2,4.466,4.466V126.362z"/>
<g>
	<path fill="#FFFFFF" d="M208.078,81.206c2.645,2.644,5.289,5.289,7.933,7.933c1.926,1.926,5.145,1.926,7.071,0s1.926-5.145,0-7.071
		c-2.645-2.644-5.289-5.289-7.933-7.933c-1.926-1.926-5.145-1.926-7.071,0S206.152,79.279,208.078,81.206L208.078,81.206z"/>
</g>
<g>
	<path fill="#FFFFFF" d="M173.84,118.247c12.271,0,24.542,0,36.813,0c6.449,0,6.449-10,0-10c-12.271,0-24.542,0-36.813,0
		C167.391,108.247,167.391,118.247,173.84,118.247L173.84,118.247z"/>
</g>
<g>
	<path fill="#FFFFFF" d="M288.226,146.111c-2.187-2.187-4.374-4.373-6.561-6.56c-1.927-1.926-5.145-1.926-7.071,0
		c-1.926,1.926-1.926,5.145,0,7.071c2.187,2.187,4.374,4.373,6.561,6.56c1.927,1.926,5.145,1.926,7.071,0
		C290.152,151.256,290.152,148.037,288.226,146.111L288.226,146.111z"/>
</g>
<g>
	<path fill="#FFFFFF" d="M254.388,188.795c0-12.271,0-24.542,0-36.813c0-6.449-10-6.449-10,0c0,12.271,0,24.542,0,36.813
		C244.388,195.244,254.388,195.244,254.388,188.795L254.388,188.795z"/>
</g>
<g>
	<path fill="#FFFFFF" d="M198.151,172.654c8.677-8.677,17.354-17.354,26.031-26.031c4.563-4.564-2.507-11.635-7.071-7.071
		c-8.677,8.677-17.354,17.354-26.031,26.031C186.516,170.147,193.587,177.218,198.151,172.654L198.151,172.654z"/>
</g>
<g>
	<path fill="#FFFFFF" d="M106.816,76.92c-9.947,17.159-19.893,34.318-29.84,51.477c-4.855,8.376,8.136,15.875,12.99,7.5
		c9.947-17.159,19.893-34.318,29.84-51.477C124.662,76.043,111.67,68.545,106.816,76.92L106.816,76.92z"/>
</g>
<g>
	<path fill="#FFFFFF" d="M81.491,139.381c10.483,1.972,20.966,3.944,31.449,5.916c9.458,1.779,13.464-12.682,3.961-14.47
		c-10.483-1.972-20.966-3.944-31.449-5.916C75.994,123.132,71.987,137.594,81.491,139.381L81.491,139.381z"/>
</g>
<g>
	<path fill="#FFFFFF" d="M108.425,134.312c-9.947,17.159-19.893,34.317-29.84,51.476c-4.855,8.376,8.136,15.875,12.99,7.5
		c9.947-17.159,19.893-34.317,29.84-51.476C126.271,133.436,113.279,125.937,108.425,134.312L108.425,134.312z"/>
</g>
</svg>
