<?xml version="1.0" encoding="iso-8859-1"?>
<!-- Generator: Adobe Illustrator 16.0.0, SVG Export Plug-In . SVG Version: 6.00 Build 0)  -->
<!DOCTYPE svg PUBLIC "-//W3C//DTD SVG 1.1//EN" "http://www.w3.org/Graphics/SVG/1.1/DTD/svg11.dtd">
<svg version="1.1" xmlns="http://www.w3.org/2000/svg" xmlns:xlink="http://www.w3.org/1999/xlink" x="0px" y="0px" width="361px"
	 height="361px" viewBox="0 0 361 361" style="enable-background:new 0 0 361 361;" xml:space="preserve">
<g id="measure_x5F_battery_x5F_25">
	<g>
		<path style="fill:none;stroke:#FFFFFF;stroke-width:10;" d="M236.141,280.167c0,3.313-2.688,6-6,6h-95.5c-3.313,0-6-2.687-6-6
			v-180c0-3.313,2.687-6,6-6h95.5c3.313,0,6,2.687,6,6V280.167z"/>
		<path style="fill:none;stroke:#FFFFFF;stroke-width:10;" d="M163.64,94.667v-14c0-3.313,2.687-6,6-6h25.5c3.313,0,6,2.687,6,6v14"
			/>
	</g>
	<g style="display:none;">
		<path style="display:inline;fill:none;stroke:#FFFFFF;stroke-width:10;" d="M221.141,266.334c0,3.313-2.688,6-6,6h-65.5
			c-3.313,0-6-2.688-6-6v-6c0-3.314,2.687-6,6-6l65.5-20c3.313,0,6,2.686,6,6V266.334z"/>
		<path style="display:inline;fill:none;stroke:#FFFFFF;stroke-width:10;" d="M221.141,166.667c0,3.313-2.688,6-6,6l-65.5,20
			c-3.313,0-6-2.687-6-6v-20c0-3.313,2.687-6,6-6l65.5-20c3.313,0,6,2.687,6,6V166.667z"/>
		<path style="display:inline;fill:none;stroke:#FFFFFF;stroke-width:10;" d="M221.141,120c0,3.313-2.688,6-6,6l-65.5,20
			c-3.313,0-6-2.687-6-6v-26c0-3.313,2.687-6,6-6h65.5c3.313,0,6,2.687,6,6V120z"/>
		<path style="display:inline;fill:none;stroke:#FFFFFF;stroke-width:10;" d="M221.141,213.667c0,3.313-2.688,6-6,6l-65.5,20
			c-3.313,0-6-2.687-6-6v-20c0-3.313,2.687-6,6-6l65.5-20c3.313,0,6,2.687,6,6V213.667z"/>
	</g>
	<path style="fill:#FFFFFF;stroke:#FFFFFF;stroke-width:3;" d="M221.141,266.334c0,3.313-2.688,6-6,6h-65.5c-3.313,0-6-2.688-6-6v-6
		c0-3.314,2.687-6,6-6l65.5-20c3.313,0,6,2.686,6,6V266.334z"/>
	<path style="display:none;fill:#FFFFFF;stroke:#FFFFFF;stroke-width:3;" d="M221.141,166.667c0,3.313-2.688,6-6,6l-65.5,20
		c-3.313,0-6-2.687-6-6v-20c0-3.313,2.687-6,6-6l65.5-20c3.313,0,6,2.687,6,6V166.667z"/>
	<path style="display:none;fill:#FFFFFF;stroke:#FFFFFF;stroke-width:3;" d="M221.141,120c0,3.313-2.688,6-6,6l-65.5,20
		c-3.313,0-6-2.687-6-6v-26c0-3.313,2.687-6,6-6h65.5c3.313,0,6,2.687,6,6V120z"/>
	<path style="display:none;fill:#FFFFFF;stroke:#FFFFFF;stroke-width:3;" d="M221.141,213.667c0,3.313-2.688,6-6,6l-65.5,20
		c-3.313,0-6-2.687-6-6v-20c0-3.313,2.687-6,6-6l65.5-20c3.313,0,6,2.687,6,6V213.667z"/>
</g>
<g id="Ebene_1">
</g>
</svg>
