<?xml version="1.0" encoding="iso-8859-1"?>
<!-- Generator: Adobe Illustrator 16.0.0, SVG Export Plug-In . SVG Version: 6.00 Build 0)  -->
<!DOCTYPE svg PUBLIC "-//W3C//DTD SVG 1.1//EN" "http://www.w3.org/Graphics/SVG/1.1/DTD/svg11.dtd">
<svg version="1.1" xmlns="http://www.w3.org/2000/svg" xmlns:xlink="http://www.w3.org/1999/xlink" x="0px" y="0px" width="361px"
	 height="361px" viewBox="0 0 361 361" style="enable-background:new 0 0 361 361;" xml:space="preserve">
<g id="measure_x5F_cistern_x5F_30">
	<g>
		<g>
			<path style="fill:#FFFFFF;" d="M113.105,274.169c45.282,0,90.564,0,135.845,0c0.052,0,0.104,0,0.155,0
				c9.686,0,9.771-15.004,0.107-15.004c-45.281,0-90.563,0-135.845,0c-0.052,0-0.104,0-0.155,0
				C103.527,259.165,103.441,274.169,113.105,274.169L113.105,274.169z"/>
		</g>
	</g>
	<g>
		<g>
			<path style="fill:#FFFFFF;" d="M106.105,257.058c48.286,0,96.571,0,144.856,0c1.715,0,3.43,0,5.145,0
				c9.686,0,9.771-15.004,0.107-15.004c-48.285,0-96.57,0-144.855,0c-1.715,0-3.43,0-5.144,0
				C96.527,242.054,96.441,257.058,106.105,257.058L106.105,257.058z"/>
		</g>
	</g>
	<g>
		<g>
			<path style="fill:#FFFFFF;" d="M103.105,239.947c49.026,0,98.051,0,147.077,0c2.975,0,5.949,0,8.924,0
				c9.686,0,9.771-15.004,0.107-15.004c-49.025,0-98.051,0-147.076,0c-2.975,0-5.949,0-8.923,0
				C93.527,224.943,93.441,239.947,103.105,239.947L103.105,239.947z"/>
		</g>
	</g>
	<g style="display:none;">
		<g style="display:inline;">
			<path style="fill:#FFFFFF;" d="M101.105,222.836c49.383,0,98.765,0,148.148,0c3.951,0,7.901,0,11.853,0
				c9.686,0,9.771-15.004,0.107-15.004c-49.383,0-98.765,0-148.148,0c-3.951,0-7.901,0-11.852,0
				C91.527,207.832,91.441,222.836,101.105,222.836L101.105,222.836z"/>
		</g>
	</g>
	<g style="display:none;">
		<g style="display:inline;">
			<path style="fill:#FFFFFF;" d="M100.105,205.725c49.526,0,99.051,0,148.578,0c4.474,0,8.948,0,13.423,0
				c9.686,0,9.771-15.004,0.107-15.004c-49.525,0-99.051,0-148.577,0c-4.475,0-8.949,0-13.423,0
				C90.527,190.721,90.441,205.725,100.105,205.725L100.105,205.725z"/>
		</g>
	</g>
	<g style="display:none;">
		<g style="display:inline;">
			<path style="fill:#FFFFFF;" d="M100.105,188.613c49.526,0,99.051,0,148.578,0c4.474,0,8.948,0,13.423,0
				c9.686,0,9.771-15.003,0.107-15.003c-49.525,0-99.051,0-148.577,0c-4.475,0-8.949,0-13.423,0
				C90.527,173.61,90.441,188.613,100.105,188.613L100.105,188.613z"/>
		</g>
	</g>
	<g style="display:none;">
		<g style="display:inline;">
			<path style="fill:#FFFFFF;" d="M101.105,171.502c49.383,0,98.765,0,148.148,0c3.951,0,7.901,0,11.853,0
				c9.686,0,9.771-15.003,0.107-15.003c-49.383,0-98.765,0-148.148,0c-3.951,0-7.901,0-11.852,0
				C91.527,156.499,91.441,171.502,101.105,171.502L101.105,171.502z"/>
		</g>
	</g>
	<g style="display:none;">
		<g style="display:inline;">
			<path style="fill:#FFFFFF;" d="M103.105,154.391c49.026,0,98.051,0,147.077,0c2.975,0,5.949,0,8.924,0
				c9.686,0,9.771-15.003,0.107-15.003c-49.025,0-98.051,0-147.076,0c-2.975,0-5.949,0-8.923,0
				C93.527,139.388,93.441,154.391,103.105,154.391L103.105,154.391z"/>
		</g>
	</g>
	<g style="display:none;">
		<g style="display:inline;">
			<path style="fill:#FFFFFF;" d="M106.105,137.28c48.286,0,96.571,0,144.856,0c1.715,0,3.43,0,5.145,0
				c9.686,0,9.771-15.003,0.107-15.003c-48.285,0-96.57,0-144.855,0c-1.715,0-3.43,0-5.144,0
				C96.527,122.277,96.441,137.28,106.105,137.28L106.105,137.28z"/>
		</g>
	</g>
	<g style="display:none;">
		<g style="display:inline;">
			<path style="fill:#FFFFFF;" d="M113.105,120.168c45.282,0,90.564,0,135.845,0c0.052,0,0.104,0,0.155,0
				c9.686,0,9.771-15.003,0.107-15.003c-45.281,0-90.563,0-135.845,0c-0.052,0-0.104,0-0.155,0
				C103.527,105.166,103.441,120.168,113.105,120.168L113.105,120.168z"/>
		</g>
	</g>
	<g>
		<g>
			<g>
				<path style="fill:#FFFFFF;" d="M115.233,292.111c8.833,0,17.667,0,26.5,0c6.449,0,6.449-10,0-10c-8.833,0-17.667,0-26.5,0
					C108.784,282.111,108.784,292.111,115.233,292.111L115.233,292.111z"/>
			</g>
		</g>
		<g>
			<g>
				<path style="fill:#FFFFFF;" d="M221.232,292.111c8.725,0,17.449,0,26.174,0c6.448,0,6.448-10,0-10c-8.725,0-17.449,0-26.174,0
					C214.784,282.111,214.784,292.111,221.232,292.111L221.232,292.111z"/>
			</g>
		</g>
		<g>
			<g>
				<path style="fill:#FFFFFF;" d="M168.233,292.111c8.833,0,17.667,0,26.5,0c6.448,0,6.448-10,0-10c-8.833,0-17.667,0-26.5,0
					C161.784,282.111,161.784,292.111,168.233,292.111L168.233,292.111z"/>
			</g>
		</g>
		<g>
			<path style="fill:none;stroke:#FFFFFF;stroke-width:10;" d="M178.145,98.111v-17c0-3.313,2.687-6,6-6h40.5c3.313,0,6,2.687,6,6
				v17"/>
			<g>
				<g>
					<path style="fill:#FFFFFF;" d="M251.5,93.111c-20.755,0.981-41.794,0-62.567,0c-25.983,0-51.966,0-77.948,0
						c-4.723,0-8.183,1.357-11.675,4.824c-5.718,5.675-8.637,14.218-10.979,21.711c-8.1,25.925-9.213,54.59-8.395,81.526
						c0.719,23.675,2.942,49.668,13.204,71.384c2.88,6.094,8.143,14.056,15.657,14.056c2.199,0,4.398,0,6.597,0
						c28.425,0,56.851,0,85.276,0c13.268,0,26.535,0,39.803,0c5.984,0,13.473,1.146,18.6-2.594
						c10.732-7.825,14.23-24.521,16.817-36.644c4.806-22.513,5.873-45.931,5.172-68.878c-0.615-20.17-2.747-40.941-8.835-60.263
						C269.201,108.63,263.591,93.571,251.5,93.111c-6.451-0.245-6.428,9.756,0,10c1.062,0.041,2.424,1.084,3.912,2.763
						c2.369,2.671,3.939,6.339,5.254,9.614c4.218,10.508,6.313,21.904,7.933,33.06c4.229,29.118,3.86,59.833-0.968,88.846
						c-1.709,10.269-4.002,20.907-8.518,30.351c-1.33,2.78-2.903,5.448-5.129,7.599c-1.123,1.085-1.772,1.269-2.808,1.269
						c-7.038,0-14.077,0-21.115,0c-30.799,0-61.597,0-92.395,0c-9.22,0-18.439,0-27.659,0c-3.872,0-6.281-5.299-7.81-8.246
						c-4.709-9.082-6.808-19.706-8.605-29.682c-5.188-28.789-5.081-59.101-1.471-88.066c1.428-11.457,3.749-22.993,7.724-33.854
						c1.087-2.97,4.919-13.653,9.197-13.653c23.307,0,46.614,0,69.921,0c16.786,0,33.571,0,50.356,0c7.363,0,14.822,0.348,22.179,0
						C257.92,102.808,257.949,92.806,251.5,93.111z"/>
				</g>
			</g>
			<g>
				<g>
					<path style="fill:#FFFFFF;" d="M174.188,79.667c20.138,0,40.275,0,60.413,0c6.448,0,6.448-10,0-10c-20.138,0-40.275,0-60.413,0
						C167.74,69.667,167.74,79.667,174.188,79.667L174.188,79.667z"/>
				</g>
			</g>
		</g>
	</g>
</g>
<g id="Ebene_1">
</g>
</svg>
