<?xml version="1.0" encoding="iso-8859-1"?>
<!-- Generator: Adobe Illustrator 16.0.0, SVG Export Plug-In . SVG Version: 6.00 Build 0)  -->
<!DOCTYPE svg PUBLIC "-//W3C//DTD SVG 1.1//EN" "http://www.w3.org/Graphics/SVG/1.1/DTD/svg11.dtd">
<svg version="1.1" xmlns="http://www.w3.org/2000/svg" xmlns:xlink="http://www.w3.org/1999/xlink" x="0px" y="0px" width="361px"
	 height="361px" viewBox="0 0 361 361" style="enable-background:new 0 0 361 361;" xml:space="preserve">
<g id="measure_x5F_globe_x5F_long">
	<g>
		<g>
			<path style="fill:#FFFFFF;" d="M255.471,179.156c-0.224-22.359-10.269-43.517-27.807-57.476
				c-17.77-14.144-41.127-18.929-63.151-13.795c-21.312,4.968-39.504,20.395-48.832,40.024c-9.771,20.563-8.952,44.61,1.147,64.85
				c15.095,30.25,50.4,45.225,82.822,37.667C232.319,242.812,255.14,212.22,255.471,179.156c0.064-6.451-9.936-6.445-10,0
				c-0.226,22.584-12.017,43.133-31.396,54.734c-19.541,11.698-44.408,11.22-63.987,0c-19.492-11.169-31.173-32.477-31.396-54.734
				c-0.225-22.458,12.305-43.306,31.396-54.734c19.541-11.698,44.408-11.22,63.987,0c19.491,11.169,31.173,32.477,31.396,54.734
				C245.535,185.602,255.535,185.607,255.471,179.156z"/>
		</g>
	</g>
	<g>
		<g>
			<g>
				<g>
					<g>
						<path style="fill:#FFFFFF;" d="M162.313,111.843c-1.603-4.561-3.207-9.122-4.81-13.683c-1.486-4.229-8.251-2.409-6.75,1.861
							c1.603,4.561,3.207,9.122,4.81,13.683C157.05,117.934,163.814,116.113,162.313,111.843L162.313,111.843z"/>
					</g>
				</g>
				<g>
					<g>
						<path style="fill:#FFFFFF;" d="M212.904,255.767c-1.304-3.707-2.606-7.414-3.91-11.121c-1.487-4.229-8.251-2.409-6.75,1.861
							c1.304,3.707,2.606,7.414,3.91,11.121C207.642,261.856,214.405,260.037,212.904,255.767L212.904,255.767z"/>
					</g>
				</g>
			</g>
			<g>
				<g>
					<path style="fill:#FFFFFF;" d="M152.653,95.552c-43.006,15.686-67.527,61.579-56.1,106.037
						c11.427,44.458,56.716,71.999,101.361,64.33c4.593-0.789,9.088-2.067,13.486-3.591c4.238-1.468,2.416-8.231-1.861-6.75
						c-42.091,14.575-88.816-7.081-104.15-49.126c-15.264-41.852,7.598-89.003,49.126-104.15
						C158.72,100.768,156.904,94.001,152.653,95.552L152.653,95.552z"/>
				</g>
			</g>
		</g>
		<g>
			<g>
				<path style="fill:#FFFFFF;" d="M167.224,262.434c0,7.571,0,15.142,0,22.713c0,4.514,7,4.514,7,0c0-7.571,0-15.142,0-22.713
					C174.224,257.92,167.224,257.92,167.224,262.434L167.224,262.434z"/>
			</g>
		</g>
		<g>
			<g>
				<path style="fill:#FFFFFF;" d="M139.769,292.165c20.245,0,40.49,0,60.735,0c6.448,0,6.448-10,0-10c-20.245,0-40.49,0-60.735,0
					C133.32,282.165,133.32,292.165,139.769,292.165L139.769,292.165z"/>
			</g>
		</g>
	</g>
	<g id="long_2_">
		<g>
			<path style="fill:#FFFFFF;" d="M175.773,107.103c-5.974-10.661-12.42-21.797-21.369-30.288c-3.31-3.14-8.945-7.144-13.41-3.789
				c-3.764,2.828-4.286,8.636-4.602,12.932c-0.654,8.884,0.691,17.964,2.12,26.709c4.631,28.36,13.659,56.135,23.83,82.937
				c9.247,24.363,19.921,48.667,33.984,70.676c4.161,6.513,8.77,13.104,14.586,18.26c2.852,2.528,6.875,5.276,10.868,3.999
				c5.577-1.783,6.11-10.088,6.383-14.813c0.724-12.537-1.891-25.479-4.443-37.676c-0.396-1.894-3.288-1.09-2.893,0.797
				c2.658,12.706,5.225,25.992,4.188,39.035c-0.457,5.749-2.695,12.476-9.238,8.585c-6.283-3.736-10.916-10.859-14.915-16.745
				c-6.446-9.487-11.879-19.669-16.984-29.924c-13.683-27.486-24.517-56.535-33.104-85.993c-3.7-12.693-6.859-25.564-9.141-38.589
				c-1.612-9.2-2.869-18.718-2.18-28.074c0.432-5.867,2.443-13.125,9.509-8.831c4.561,2.771,8.123,7.572,11.27,11.761
				c4.862,6.473,8.999,13.495,12.951,20.546C174.128,110.304,176.72,108.792,175.773,107.103L175.773,107.103z"/>
		</g>
	</g>
</g>
<g id="Ebene_1">
</g>
</svg>
