<?xml version="1.0" encoding="iso-8859-1"?>
<!-- Generator: Adobe Illustrator 16.0.0, SVG Export Plug-In . SVG Version: 6.00 Build 0)  -->
<!DOCTYPE svg PUBLIC "-//W3C//DTD SVG 1.1//EN" "http://www.w3.org/Graphics/SVG/1.1/DTD/svg11.dtd">
<svg version="1.1" xmlns="http://www.w3.org/2000/svg" xmlns:xlink="http://www.w3.org/1999/xlink" x="0px" y="0px" width="361px"
	 height="361px" viewBox="0 0 361 361" style="enable-background:new 0 0 361 361;" xml:space="preserve">
<g id="measure_x5F_globe">
	<g>
		<g>
			<path style="fill:#FFFFFF;" d="M255.471,179.156c-0.224-22.359-10.269-43.517-27.807-57.476
				c-17.77-14.144-41.127-18.929-63.151-13.795c-21.312,4.968-39.504,20.395-48.832,40.024c-9.771,20.563-8.952,44.61,1.147,64.85
				c15.095,30.25,50.4,45.225,82.822,37.667C232.319,242.812,255.14,212.22,255.471,179.156c0.064-6.451-9.936-6.445-10,0
				c-0.226,22.584-12.017,43.133-31.396,54.734c-19.541,11.698-44.408,11.22-63.987,0c-19.492-11.169-31.173-32.477-31.396-54.734
				c-0.225-22.458,12.305-43.306,31.396-54.734c19.541-11.698,44.408-11.22,63.987,0c19.491,11.169,31.173,32.477,31.396,54.734
				C245.535,185.602,255.535,185.607,255.471,179.156z"/>
		</g>
	</g>
	<g>
		<g>
			<g>
				<g>
					<g>
						<path style="fill:#FFFFFF;" d="M162.313,111.843c-1.603-4.561-3.207-9.122-4.81-13.683c-1.486-4.229-8.251-2.409-6.75,1.861
							c1.603,4.561,3.207,9.122,4.81,13.683C157.05,117.934,163.814,116.113,162.313,111.843L162.313,111.843z"/>
					</g>
				</g>
				<g>
					<g>
						<path style="fill:#FFFFFF;" d="M212.904,255.767c-1.304-3.707-2.606-7.414-3.91-11.121c-1.487-4.229-8.251-2.409-6.75,1.861
							c1.304,3.707,2.606,7.414,3.91,11.121C207.642,261.856,214.405,260.037,212.904,255.767L212.904,255.767z"/>
					</g>
				</g>
			</g>
			<g>
				<g>
					<path style="fill:#FFFFFF;" d="M152.653,95.552c-43.006,15.686-67.527,61.579-56.1,106.037
						c11.427,44.458,56.716,71.999,101.361,64.33c4.593-0.789,9.088-2.067,13.486-3.591c4.238-1.468,2.416-8.231-1.861-6.75
						c-42.091,14.575-88.816-7.081-104.15-49.126c-15.264-41.852,7.598-89.003,49.126-104.15
						C158.72,100.768,156.904,94.001,152.653,95.552L152.653,95.552z"/>
				</g>
			</g>
		</g>
		<g>
			<g>
				<path style="fill:#FFFFFF;" d="M167.224,262.434c0,7.571,0,15.142,0,22.713c0,4.514,7,4.514,7,0c0-7.571,0-15.142,0-22.713
					C174.224,257.92,167.224,257.92,167.224,262.434L167.224,262.434z"/>
			</g>
		</g>
		<g>
			<g>
				<path style="fill:#FFFFFF;" d="M139.769,292.165c20.245,0,40.49,0,60.735,0c6.448,0,6.448-10,0-10c-20.245,0-40.49,0-60.735,0
					C133.32,282.165,133.32,292.165,139.769,292.165L139.769,292.165z"/>
			</g>
		</g>
	</g>
	<g id="lat_x5F_back_1_" style="display:none;">
		<g style="display:inline;">
			<path style="fill:#FFFFFF;" d="M293.856,138.845c-5.471-13.148-27.703-9.103-38.434-7.627
				c-27.474,3.777-54.364,12.068-80.382,21.453c-25.859,9.328-51.537,20.264-75.183,34.372c-7.639,4.559-15.204,9.596-21.69,15.72
				c-3.894,3.676-7.924,8.532-7.974,14.168c-0.128,14.52,24.025,12.091,32.747,11.216c26.365-2.644,52.345-10.423,77.318-18.956
				c26.987-9.221,53.672-20.268,78.57-34.236c8.494-4.766,16.763-10.017,24.282-16.227c4.459-3.682,9.256-8.317,10.84-14.071
				C294.464,142.792,294.445,140.686,293.856,138.845c-1.956-6.118-11.612-3.501-9.643,2.658c0.403,1.262,0.255-0.26,0.094,0.495
				c-0.216,1.01-0.199,0.799-0.921,2.014c-1.493,2.511-3.822,4.551-5.981,6.475c-7.058,6.29-15.439,11.186-23.624,15.833
				c-25.2,14.307-52.416,25.206-79.821,34.465c-24.265,8.198-49.845,15.844-75.514,17.756c-5.56,0.414-13.608,0.942-17.999-1.632
				c-0.433-0.254-0.3-0.034-0.244-0.299c0.291-1.363,1.874-3.478,3.391-5.12c10.315-11.177,25.449-18.597,38.763-25.434
				c21.897-11.244,44.892-20.359,68.193-28.232c20.754-7.012,42.049-13.009,63.715-16.413c7.088-1.114,14.322-1.813,21.503-1.513
				c2.239,0.093,4.398,0.395,6.551,1.021c1.115,0.324,0.82,0.24,1.744,0.782c0.375,0.22,0.388,0.374,0.15-0.197
				C286.653,147.367,296.334,144.798,293.856,138.845z"/>
		</g>
	</g>
	<g id="long_x5F_back" style="display:none;">
		<g style="display:inline;">
			<path style="fill:#FFFFFF;" d="M141.793,68.713c-13.148,5.47-9.103,27.704-7.627,38.433
				c3.777,27.473,12.068,54.365,21.453,80.382c9.329,25.859,20.264,51.537,34.373,75.183c4.558,7.639,9.595,15.203,15.719,21.689
				c3.677,3.894,8.532,7.925,14.168,7.975c14.52,0.129,12.091-24.026,11.217-32.747c-2.645-26.364-10.423-52.345-18.956-77.317
				c-9.221-26.987-20.268-53.672-34.236-78.57c-4.766-8.494-10.017-16.763-16.227-24.282c-3.682-4.458-8.317-9.256-14.071-10.839
				C145.74,68.105,143.634,68.124,141.793,68.713c-6.118,1.956-3.501,11.612,2.658,9.643c1.261-0.403-0.26-0.255,0.495-0.094
				c1.01,0.215,0.799,0.199,2.014,0.921c2.511,1.493,4.551,3.822,6.475,5.981c6.29,7.058,11.186,15.439,15.833,23.624
				c14.307,25.2,25.206,52.416,34.466,79.821c8.198,24.265,15.843,49.845,17.755,75.514c0.415,5.561,0.943,13.608-1.632,17.999
				c-0.254,0.433-0.033,0.3-0.298,0.243c-1.364-0.291-3.478-1.874-5.121-3.391c-11.176-10.314-18.597-25.448-25.434-38.763
				c-11.244-21.896-20.359-44.892-28.232-68.193c-7.013-20.753-13.009-42.048-16.414-63.715c-1.114-7.088-1.813-14.322-1.513-21.503
				c0.093-2.239,0.395-4.398,1.021-6.551c0.324-1.115,0.24-0.82,0.782-1.744c0.22-0.375,0.374-0.387-0.197-0.15
				C150.315,75.916,147.746,66.236,141.793,68.713z"/>
		</g>
	</g>
</g>
<g id="Ebene_1">
</g>
</svg>
