<?xml version="1.0" encoding="iso-8859-1"?>
<!-- Generator: Adobe Illustrator 16.0.0, SVG Export Plug-In . SVG Version: 6.00 Build 0)  -->
<!DOCTYPE svg PUBLIC "-//W3C//DTD SVG 1.1//EN" "http://www.w3.org/Graphics/SVG/1.1/DTD/svg11.dtd">
<svg version="1.1" xmlns="http://www.w3.org/2000/svg" xmlns:xlink="http://www.w3.org/1999/xlink" x="0px" y="0px" width="361px"
	 height="361px" viewBox="0 0 361 361" style="enable-background:new 0 0 361 361;" xml:space="preserve">
<g id="message_x5F_notice">
	<g>
		<g>
			<g>
				<path style="fill:#FFFFFF;" d="M110.832,115.333c45.846,0,91.691,0,137.537,0c0.154,0,0.309,0,0.463,0c6.448,0,6.448-10,0-10
					c-45.846,0-91.691,0-137.537,0c-0.154,0-0.309,0-0.463,0C104.383,105.333,104.383,115.333,110.832,115.333L110.832,115.333z"/>
			</g>
		</g>
		<g>
			<g>
				<path style="fill:#FFFFFF;" d="M110.832,138.445c45.846,0,91.691,0,137.537,0c0.154,0,0.309,0,0.463,0c6.448,0,6.448-10,0-10
					c-45.846,0-91.691,0-137.537,0c-0.154,0-0.309,0-0.463,0C104.383,128.445,104.383,138.445,110.832,138.445L110.832,138.445z"/>
			</g>
		</g>
		<g>
			<g>
				<path style="fill:#FFFFFF;" d="M110.832,161.556c45.846,0,91.691,0,137.537,0c0.154,0,0.309,0,0.463,0c6.448,0,6.448-10,0-10
					c-45.846,0-91.691,0-137.537,0c-0.154,0-0.309,0-0.463,0C104.383,151.556,104.383,161.556,110.832,161.556L110.832,161.556z"/>
			</g>
		</g>
		<g>
			<g>
				<path style="fill:#FFFFFF;" d="M110.832,184.667c23,0,46,0,69,0c6.448,0,6.448-10,0-10c-23,0-46,0-69,0
					C104.383,174.667,104.383,184.667,110.832,184.667L110.832,184.667z"/>
			</g>
		</g>
	</g>
	<g>
		<g>
			<path style="fill:#FFFFFF;" d="M260.742,70.103c-49.377,0-98.754,0-148.131,0c-7.991,0-16.426-0.756-23.975,2.324
				c-10.101,4.122-17.324,13.512-18.742,24.32c-0.46,3.504-0.315,7.06-0.315,10.588c0,26.499,0,52.998,0,79.496
				c0,17.464,13.074,31.397,30.677,31.856c7.887,0.206,15.807,0,23.695,0c22.947,0,45.893,0,68.84,0
				c-1.179-0.488-2.357-0.977-3.535-1.465c20.53,24.182,41.062,48.362,61.593,72.543c3.618,4.263,9.017-0.485,8.356-4.864
				c-3.644-24.181-7.286-48.362-10.93-72.543c-1.607,2.109-3.214,4.22-4.821,6.329c5.737,0,11.475,0,17.212,0
				c10.761,0,20.23-5.629,26.121-14.466c6.291-9.438,4.632-22.364,4.632-33.157c0-15.791,0-31.582,0-47.373
				c0-9.932,1.291-21.087-1.039-30.856C287.155,79.308,274.188,70.454,260.742,70.103c-6.452-0.168-6.437,9.832,0,10
				c11.505,0.3,20.378,9.173,20.678,20.678c0.072,2.769,0,5.549,0,8.318c0,14.906,0,29.813,0,44.719c0,11.22,0,22.44,0,33.66
				c0,8.574-4.854,16.442-12.912,19.731c-6.562,2.678-15.045,1.479-21.969,1.479c-1.027,0-2.056,0-3.084,0
				c-3.542,0-5.297,3.173-4.821,6.329c3.644,24.181,7.286,48.362,10.93,72.543c2.785-1.621,5.571-3.243,8.356-4.864
				c-16.078-18.937-32.156-37.873-48.234-56.811c-3.559-4.191-7.117-8.383-10.676-12.574c-1.803-2.122-3.287-4.623-6.443-4.623
				c-10.273,0-20.547,0-30.821,0c-15.614,0-31.228,0-46.842,0c-11.15,0-23.759,1.799-31.35-8.451
				c-6.138-8.287-3.974-21.955-3.974-31.658c0-15.837,0-31.675,0-47.512c0-9.829-1.982-22.658,3.266-31.45
				c5.839-9.782,16.318-9.513,26.092-9.513c28.33,0,56.66,0,84.99,0c22.271,0,44.543,0,66.814,0
				C267.19,80.103,267.19,70.103,260.742,70.103z"/>
		</g>
	</g>
</g>
<g id="Ebene_1">
</g>
</svg>
