<?xml version="1.0" encoding="iso-8859-1"?>
<!-- Generator: Adobe Illustrator 16.0.0, SVG Export Plug-In . SVG Version: 6.00 Build 0)  -->
<!DOCTYPE svg PUBLIC "-//W3C//DTD SVG 1.1 Tiny//EN" "http://www.w3.org/Graphics/SVG/1.1/DTD/svg11-tiny.dtd">
<svg version="1.1" baseProfile="tiny" id="message_x5F_socket_x5F_ch_x5F_on_x5F_off"
	 xmlns="http://www.w3.org/2000/svg" xmlns:xlink="http://www.w3.org/1999/xlink" x="0px" y="0px" width="361px" height="361px"
	 viewBox="0 0 361 361" xml:space="preserve">
<path fill="none" stroke="#FFFFFF" stroke-width="10" stroke-miterlimit="10" d="M209.593,286.139c0,2.024-1.788,3.665-3.992,3.665
	H76.317c-2.204,0-3.992-1.64-3.992-3.665V156.2c0-2.024,1.788-3.664,3.992-3.664h129.284c2.204,0,3.992,1.64,3.992,3.664V286.139z"
	/>
<path fill="none" stroke="#FFFFFF" stroke-width="10" stroke-miterlimit="10" d="M123.13,223.193c0,0.079-0.07,0.144-0.156,0.144
	h-5.057c-0.086,0-0.156-0.064-0.156-0.144v-5.083c0-0.079,0.07-0.143,0.156-0.143h5.057c0.086,0,0.156,0.064,0.156,0.143V223.193z"
	/>
<path fill="none" stroke="#FFFFFF" stroke-width="10" stroke-miterlimit="10" d="M164.531,223.193c0,0.079-0.07,0.144-0.156,0.144
	h-5.057c-0.086,0-0.156-0.064-0.156-0.144v-5.083c0-0.079,0.07-0.143,0.156-0.143h5.057c0.086,0,0.156,0.064,0.156,0.143V223.193z"
	/>
<path fill="none" stroke="#FFFFFF" stroke-width="10" stroke-miterlimit="10" d="M143.672,233.865c0,0.079-0.07,0.143-0.156,0.143
	h-5.058c-0.086,0-0.156-0.064-0.156-0.143v-5.083c0-0.079,0.07-0.144,0.156-0.144h5.058c0.086,0,0.156,0.064,0.156,0.144V233.865z"
	/>
<g>
	<path fill="#FFFFFF" d="M170.735,241.593c-17.228,0-34.455,0-51.682,0c-2.642,0-5.283,0-7.924,0c-0.208,0,1.832,0.825,0.98,0.15
		c-1.772-1.406-3.365-3.059-4.954-4.664c-6.201-6.26-12.024-12.927-17.75-19.622c0,2.357,0,4.714,0,7.071
		c3.056-3.652,6.17-7.255,9.316-10.829c4.018-4.564,9.296-11.167,13.569-14.115c0.88-0.607-1.887,0.242-1.311,0.242
		c0.495,0,0.989,0,1.483,0c2.197,0,4.394,0,6.59,0c7.235,0,14.471,0,21.707,0c6.993,0,13.987,0,20.98,0c2.313,0,4.626,0,6.939,0
		c0.571,0,1.141,0,1.711,0c1.182,0-2.144-0.842-1.162-0.238c4.07,2.503,9.188,9.267,12.908,13.497
		c3.382,3.845,6.709,7.741,9.977,11.683c0-2.357,0-4.714,0-7.071c-3.372,3.905-6.81,7.754-10.291,11.562
		c-2.64,2.889-5.323,5.739-8.09,8.506c-1.099,1.099-2.228,2.167-3.389,3.2c-0.994,0.884-1.444,0.877-0.938,0.805
		c-6.362,0.917-3.646,10.552,2.658,9.643c2.44-0.352,4.672-2.742,6.393-4.316c2.939-2.687,5.661-5.622,8.375-8.532
		c4.209-4.513,8.319-9.125,12.353-13.797c1.91-2.212,1.839-4.853,0-7.071c-3.484-4.201-7.04-8.344-10.645-12.442
		c-4.345-4.939-8.89-10.997-14.575-14.493c-2.86-1.759-7.649-0.936-10.796-0.936c-7.47,0-14.94,0-22.41,0s-14.94,0-22.41,0
		c-3.431,0-7.625-0.663-10.796,0.934c-5.681,2.859-10.452,9.745-14.575,14.368c-3.614,4.051-7.161,8.166-10.645,12.329
		c-1.855,2.218-1.894,4.857,0,7.071c5.922,6.924,11.967,13.784,18.38,20.259c2.552,2.577,6.083,6.805,10.07,6.805
		c2.078,0,4.157,0,6.235,0c17.905,0,35.811,0,53.716,0C177.184,251.593,177.184,241.593,170.735,241.593z"/>
</g>
<g id="ein_x5F_aus_2_">
	<g>
		<path fill="#FFFFFF" d="M282.857,128.418c-0.513,8.886-9.127,7.96-15.471,7.96c-7.75,0-15.501,0-23.252,0
			c-5.376,0-13.058,1.416-16.638-3.583c-2.708-3.781-1.306-11.851-1.306-16.128c0-7.665,0-15.33,0-22.995
			c0-5.901-0.268-13.961,8.084-13.961c12.595,0,25.189,0,37.784,0c5.227,0,10.798,1.603,10.798,8.085c0,3.875,0,7.75,0,11.626
			C282.857,109.087,282.857,118.753,282.857,128.418c0,4.514,7,4.514,7,0c0-12.253,0-24.505,0-36.758
			c0-6.784-1.089-12.417-7.05-16.687c-4.412-3.16-11.093-2.262-16.219-2.262c-7.768,0-15.535,0-23.303,0
			c-5.455,0-10.815-0.524-15.941,1.643c-6.807,2.878-8.153,10.219-8.153,16.71c0,7.289,0,14.578,0,21.867
			c0,7.144-1.202,15.564,1.643,22.293c3.744,8.856,13.781,8.154,21.626,8.154c9.483,0,18.966,0,28.449,0
			c3.009,0,5.848,0.074,8.784-0.793c6.275-1.854,9.809-7.985,10.165-14.167C290.118,123.907,283.116,123.932,282.857,128.418z"/>
	</g>
	<g>
		<path fill="#FFFFFF" d="M251.201,89.504c0,12.361,0,24.722,0,37.083c0,4.514,7,4.514,7,0c0-12.361,0-24.722,0-37.083
			C258.201,84.99,251.201,84.99,251.201,89.504L251.201,89.504z"/>
	</g>
</g>
</svg>
