<?xml version="1.0" encoding="iso-8859-1"?>
<!-- Generator: Adobe Illustrator 16.0.0, SVG Export Plug-In . SVG Version: 6.00 Build 0)  -->
<!DOCTYPE svg PUBLIC "-//W3C//DTD SVG 1.1//EN" "http://www.w3.org/Graphics/SVG/1.1/DTD/svg11.dtd">
<svg version="1.1" xmlns="http://www.w3.org/2000/svg" xmlns:xlink="http://www.w3.org/1999/xlink" x="0px" y="0px" width="361px"
	 height="361px" viewBox="0 0 361 361" style="enable-background:new 0 0 361 361;" xml:space="preserve">
<g id="message_x5F_medicine">
	<path style="fill:none;stroke:#FFFFFF;stroke-width:10;stroke-miterlimit:10;" d="M286.658,258.416
		c0,3.453-2.799,6.251-6.251,6.251H81.777c-3.452,0-6.25-2.798-6.25-6.251V133.405c0-3.453,2.799-6.25,6.25-6.25h198.63
		c3.452,0,6.251,2.798,6.251,6.25V258.416z"/>
	<path style="fill:none;stroke:#FFFFFF;stroke-width:10;stroke-miterlimit:10;" d="M208.703,122.334
		c0,2.393-1.939,4.333-4.334,4.333h-46.703c-2.393,0-4.333-1.94-4.333-4.333v-21.667c0-2.393,1.94-4.333,4.333-4.333h46.703
		c2.395,0,4.334,1.94,4.334,4.333V122.334z"/>
	<path style="fill:#FFFFFF;stroke:#FFFFFF;stroke-width:10;stroke-miterlimit:10;" d="M177.405,202.639h-38.15
		c-1.864,0-3.375-1.461-3.375-3.26v-7.244c0-1.8,1.511-3.26,3.375-3.26h38.15"/>
	<path style="fill:none;stroke:#FFFFFF;stroke-width:10;stroke-miterlimit:10;" d="M173.003,202.639"/>
	<path style="fill:#FFFFFF;stroke:#FFFFFF;stroke-width:10;stroke-miterlimit:10;" d="M182.811,188.875h39.514
		c1.865,0,3.379,1.46,3.379,3.26v7.244c0,1.799-1.514,3.26-3.379,3.26h-39.655"/>
	<path style="fill:none;stroke:#FFFFFF;stroke-width:10;stroke-miterlimit:10;" d="M186.768,188.875"/>
	<path style="fill:none;stroke:#FFFFFF;stroke-width:10;stroke-miterlimit:10;" d="M173.003,188.875"/>
	<path style="fill:#FFFFFF;stroke:#FFFFFF;stroke-width:10;stroke-miterlimit:10;" d="M186.869,202.469v35.675
		c0,1.801-1.46,3.26-3.26,3.26h-7.244c-1.8,0-3.259-1.459-3.124-3.214v-35.675"/>
	<path style="fill:#FFFFFF;stroke:#FFFFFF;stroke-width:10;stroke-miterlimit:10;" d="M173.242,188.977v-35.675
		c0-1.8,1.46-3.26,3.259-3.26h7.245c1.799,0,3.259,1.459,3.259,3.26v35.675"/>
	<path style="fill:#FFFFFF;stroke:#FFFFFF;stroke-width:10;stroke-miterlimit:10;" d="M187.083,202.167c0,3.313-2.687,6-6,6h-0.5
		c-3.313,0-6-2.687-6-6v-9.75c0-3.313,2.687-6,6-6h0.5c3.313,0,6,2.687,6,6V202.167z"/>
</g>
<g id="Ebene_1">
</g>
</svg>
