<?xml version="1.0" encoding="iso-8859-1"?>
<!-- Generator: Adobe Illustrator 16.0.3, SVG Export Plug-In . SVG Version: 6.00 Build 0)  -->
<!DOCTYPE svg PUBLIC "-//W3C//DTD SVG 1.1//EN" "http://www.w3.org/Graphics/SVG/1.1/DTD/svg11.dtd">
<svg version="1.1" xmlns="http://www.w3.org/2000/svg" xmlns:xlink="http://www.w3.org/1999/xlink" x="0px" y="0px" width="361px"
	 height="361px" viewBox="0 0 361 361" style="enable-background:new 0 0 361 361;" xml:space="preserve">
<g id="message_x5F_attention">
	<g>
		<g>
			<path style="fill:#FFFFFF;" d="M83.527,273.486c24.396-42.254,48.791-84.509,73.187-126.763
				c10.162-17.602,20.325-35.204,30.487-52.806c-4.321,0.016-8.643,0.032-12.965,0.048c24.396,42.254,48.791,84.509,73.188,126.763
				c10.162,17.603,20.325,35.204,30.487,52.807c2.175-3.767,4.35-7.533,6.523-11.3c-48.791,0-97.582,0-146.374,0
				c-20.325,0-40.65,0-60.975,0c-9.687,0-9.772,15.004-0.108,15.004c48.792,0,97.583,0,146.374,0c20.325,0,40.65,0,60.976,0
				c5.736,0,9.392-6.332,6.523-11.3c-24.396-42.254-48.791-84.509-73.188-126.763c-10.162-17.602-20.325-35.204-30.487-52.806
				c-2.828-4.898-10.158-4.814-12.965,0.048c-24.396,42.254-48.791,84.509-73.187,126.764
				c-10.162,17.602-20.325,35.204-30.487,52.806C65.696,274.37,78.687,281.87,83.527,273.486z"/>
		</g>
	</g>
	<g>
		<path style="fill:#FFFFFF;" d="M192.566,228.51c0,3.635-1.178,6.441-3.531,8.422s-5.016,2.973-7.988,2.973
			c-2.972,0-5.634-0.992-7.988-2.973s-3.529-4.787-3.529-8.422c0-3.631,1.176-6.439,3.529-8.42c2.354-1.982,5.016-2.973,7.988-2.973
			c2.973,0,5.635,0.99,7.988,2.973C191.389,222.07,192.566,224.879,192.566,228.51z M190.955,174.637
			c0,6.689-0.248,12.923-0.744,18.701c-0.494,5.779-1.156,11.641-1.98,17.586h-14.119c-0.825-5.945-1.507-11.807-2.043-17.586
			c-0.538-5.777-0.806-12.012-0.806-18.701v-22.168h19.692V174.637z"/>
	</g>
</g>
<g id="Ebene_1">
</g>
</svg>
