<?xml version="1.0" encoding="iso-8859-1"?>
<!-- Generator: Adobe Illustrator 16.0.0, SVG Export Plug-In . SVG Version: 6.00 Build 0)  -->
<!DOCTYPE svg PUBLIC "-//W3C//DTD SVG 1.1//EN" "http://www.w3.org/Graphics/SVG/1.1/DTD/svg11.dtd">
<svg version="1.1" xmlns="http://www.w3.org/2000/svg" xmlns:xlink="http://www.w3.org/1999/xlink" x="0px" y="0px" width="361px"
	 height="361px" viewBox="0 0 361 361" style="enable-background:new 0 0 361 361;" xml:space="preserve">
<g id="message_x5F_socket_x5F_ch">
	<path style="fill:none;stroke:#FFFFFF;stroke-width:10;stroke-miterlimit:10;" d="M286.982,281.264c0,3.127-2.763,5.662-6.17,5.662
		h-199.8c-3.407,0-6.169-2.535-6.169-5.662V80.448c0-3.127,2.762-5.662,6.169-5.662h199.8c3.407,0,6.17,2.535,6.17,5.662V281.264z"
		/>
	<path style="fill:none;stroke:#FFFFFF;stroke-width:10;stroke-miterlimit:10;" d="M152.083,184.767
		c0,0.144-0.127,0.261-0.284,0.261h-9.195c-0.157,0-0.284-0.117-0.284-0.261v-9.243c0-0.144,0.127-0.26,0.284-0.26h9.195
		c0.157,0,0.284,0.117,0.284,0.26V184.767z"/>
	<path style="fill:none;stroke:#FFFFFF;stroke-width:10;stroke-miterlimit:10;" d="M220.083,184.767
		c0,0.144-0.128,0.261-0.284,0.261h-9.195c-0.156,0-0.283-0.117-0.283-0.261v-9.243c0-0.144,0.127-0.26,0.283-0.26h9.195
		c0.156,0,0.284,0.117,0.284,0.26V184.767z"/>
	<path style="fill:none;stroke:#FFFFFF;stroke-width:10;stroke-miterlimit:10;" d="M185.794,204.17c0,0.144-0.128,0.26-0.284,0.26
		h-9.195c-0.157,0-0.284-0.116-0.284-0.26v-9.242c0-0.145,0.127-0.261,0.284-0.261h9.195c0.156,0,0.284,0.116,0.284,0.261V204.17z"
		/>
	<g>
		<g>
			<path style="fill:#FFFFFF;" d="M226.93,215.146c-24.954,0-49.909,0-74.863,0c-5.053,0-10.105,0-15.158,0
				c-0.858,0-1.716,0-2.573,0c0.432,0,2.222,0.822,0.92,0.032c-0.788-0.478-1.219-0.881-2.331-1.854
				c-11.105-9.72-20.728-21.422-30.389-32.538c-1.08-1.242-2.156-2.486-3.226-3.737c0,2.357,0,4.714,0,7.071
				c7.863-9.4,15.909-18.67,24.257-27.643c3.656-3.93,8.357-9.531,12.32-11.72c-1.32,0.729-2.166,0.39-0.239,0.39
				c1.8,0,3.601,0,5.401,0c27.494,0,54.987,0,82.48,0c1.017,0,2.033,0,3.05,0c0.588,0,0.521,0.181-0.573-0.104
				c-1.794-0.467,0.832,0.744,0.391,0.393c4.874,3.882,9.068,8.764,13.254,13.35c7.636,8.369,15.019,16.985,22.248,25.707
				c0-2.357,0-4.714,0-7.071c-5.275,6.111-10.655,12.135-16.106,18.089c-4.201,4.591-8.465,9.129-12.888,13.507
				c-1.63,1.612-3.298,3.187-5.027,4.691c-0.842,0.732-0.734,0.66-1.549,1.23C225.01,215.862,225.584,215.277,226.93,215.146
				c-6.356,0.625-6.417,10.631,0,10c4.101-0.403,7.207-3.571,10.104-6.237c4.569-4.208,8.821-8.772,13.051-13.316
				c6.43-6.908,12.719-13.957,18.885-21.101c1.91-2.213,1.84-4.852,0-7.071c-7.861-9.485-15.906-18.839-24.257-27.897
				c-4.222-4.58-8.541-9.527-13.737-13.04c-2.404-1.625-5.13-1.337-7.863-1.337c-27.535,0-55.07,0-82.605,0
				c-2.438,0-5.837-0.553-8.205,0.345c-5.464,2.072-9.933,7.727-13.843,11.829c-9.111,9.557-17.749,19.602-26.22,29.729
				c-1.855,2.218-1.894,4.856,0,7.071c7.999,9.354,16.179,18.577,24.676,27.482c4.13,4.329,8.446,9.27,13.615,12.406
				c2.44,1.48,5.288,1.138,8.008,1.138c27.563,0,55.125,0,82.688,0c1.901,0,3.804,0,5.705,0
				C233.378,225.146,233.378,215.146,226.93,215.146z"/>
		</g>
	</g>
</g>
<g id="Ebene_1">
</g>
</svg>
