<?xml version="1.0" encoding="iso-8859-1"?>
<!-- Generator: Adobe Illustrator 16.0.0, SVG Export Plug-In . SVG Version: 6.00 Build 0)  -->
<!DOCTYPE svg PUBLIC "-//W3C//DTD SVG 1.1//EN" "http://www.w3.org/Graphics/SVG/1.1/DTD/svg11.dtd">
<svg version="1.1" xmlns="http://www.w3.org/2000/svg" xmlns:xlink="http://www.w3.org/1999/xlink" x="0px" y="0px" width="361px"
	 height="361px" viewBox="0 0 361 361" style="enable-background:new 0 0 361 361;" xml:space="preserve">
<g id="message_x5F_presence_x5F_geo_x5F_inactive">
	<g style="display:none;">
		<g style="display:inline;">
			<circle style="fill:#FFFFFF;" cx="236.5" cy="156.564" r="28.836"/>
			<path style="fill:#FFFFFF;" d="M236.501,186.084c-16.276,0-29.52-13.244-29.52-29.52s13.243-29.52,29.52-29.52
				s29.517,13.244,29.517,29.52S252.777,186.084,236.501,186.084z M236.501,128.41c-15.524,0-28.154,12.63-28.154,28.154
				c0,15.522,12.63,28.154,28.154,28.154c15.523,0,28.151-12.632,28.151-28.154C264.652,141.041,252.024,128.41,236.501,128.41z"/>
		</g>
		<path style="display:inline;fill:#FFFFFF;" d="M267.465,277.459c0,7.895-6.398,14.291-14.292,14.291h-33.349
			c-7.893,0-14.291-6.396-14.291-14.291v-71.745c0-7.894,6.398-14.291,14.291-14.291h33.349c7.894,0,14.292,6.397,14.292,14.291
			V277.459z"/>
		<path style="display:inline;fill:#FFFFFF;" d="M273.764,204.122c0,16.776,0,62.553,0,79.331c0,11.443,17.746,11.443,17.746,0
			c0-16.778,0-62.555,0-79.331C291.51,192.678,273.764,192.678,273.764,204.122L273.764,204.122z"/>
		<path style="display:inline;fill:#FFFFFF;" d="M181.49,204.12c0,16.778,0,62.554,0,79.331c0,11.443,17.746,11.443,17.746,0
			c0-16.777,0-62.553,0-79.331C199.236,192.677,181.49,192.677,181.49,204.12L181.49,204.12z"/>
	</g>
	<g>
		<path style="fill:#FFFFFF;" d="M170.879,81.501L116.002,70.24c-3.137-0.644-6.237,1.504-6.911,4.788L87.8,178.783
			c-0.674,3.284,1.33,6.479,4.466,7.123l54.877,11.262c3.137,0.644,6.237-1.504,6.911-4.788l21.291-103.754
			C176.02,85.34,174.016,82.145,170.879,81.501z M152.206,174.769c-0.05-0.013-0.101-0.029-0.152-0.04l-55.618-11.413l14.252-69.449
			c0.439,0.235,0.915,0.415,1.423,0.52l53.465,10.971c0.285,0.06,0.57,0.086,0.854,0.098L152.206,174.769z M153.864,90.027
			l-0.287,1.398c-0.069,0.335-0.279,0.472-0.317,0.48l-23.888-4.899c-0.045-0.029-0.185-0.237-0.116-0.573l0.286-1.397
			c0.067-0.325,0.265-0.463,0.326-0.479l23.878,4.897C153.794,89.483,153.934,89.691,153.864,90.027z M118.798,180.211l0.933-4.544
			c0.153-0.747,0.884-1.229,1.631-1.076l4.543,0.932c0.748,0.153,1.229,0.885,1.076,1.632l-0.933,4.544
			c-0.153,0.746-0.883,1.229-1.631,1.074l-4.543-0.932C119.127,181.688,118.645,180.958,118.798,180.211z"/>
		<g>
			<circle style="fill:none;stroke:#FFFFFF;stroke-width:3;stroke-miterlimit:10;" cx="131.292" cy="135.421" r="23.976"/>
			
				<ellipse style="fill:none;stroke:#FFFFFF;stroke-width:3;stroke-miterlimit:10;" cx="131.292" cy="135.421" rx="11.856" ry="23.976"/>
			
				<line style="fill:none;stroke:#FFFFFF;stroke-width:3;stroke-miterlimit:10;" x1="107.053" y1="136.036" x2="155.708" y2="136.036"/>
		</g>
	</g>
	<g>
		<path style="fill:none;stroke:#FFFFFF;stroke-width:3;stroke-miterlimit:10;" d="M266.212,276.662
			c0,7.662-6.244,13.87-13.945,13.87H220.73c-7.701,0-13.943-6.208-13.943-13.87v-69.627c0-7.66,6.242-13.868,13.943-13.868h31.536
			c7.701,0,13.945,6.208,13.945,13.868V276.662z"/>
		<path style="fill:none;stroke:#FFFFFF;stroke-width:3;stroke-miterlimit:10;" d="M274.745,204.99c0,16.305,0,60.795,0,77.101
			c0,11.123,15.609,11.123,15.609,0c0-16.306,0-60.796,0-77.101C290.354,193.867,274.745,193.867,274.745,204.99L274.745,204.99z"/>
		<path style="fill:none;stroke:#FFFFFF;stroke-width:3;stroke-miterlimit:10;" d="M182.473,204.99c0,16.305,0,60.795,0,77.101
			c0,11.123,15.607,11.123,15.607,0c0-16.306,0-60.796,0-77.101C198.08,193.867,182.473,193.867,182.473,204.99L182.473,204.99z"/>
		<circle style="fill:none;stroke:#FFFFFF;stroke-width:3;stroke-miterlimit:10;" cx="236.5" cy="156.564" r="28"/>
	</g>
</g>
<g id="Ebene_1">
</g>
</svg>
