<?xml version="1.0" encoding="iso-8859-1"?>
<!-- Generator: Adobe Illustrator 16.0.0, SVG Export Plug-In . SVG Version: 6.00 Build 0)  -->
<!DOCTYPE svg PUBLIC "-//W3C//DTD SVG 1.1//EN" "http://www.w3.org/Graphics/SVG/1.1/DTD/svg11.dtd">
<svg version="1.1" xmlns="http://www.w3.org/2000/svg" xmlns:xlink="http://www.w3.org/1999/xlink" x="0px" y="0px" width="361px"
	 height="361px" viewBox="0 0 361 361" style="enable-background:new 0 0 361 361;" xml:space="preserve">
<g id="message_x5F_light_x5F_intensity">
	<g>
		<path style="fill:none;stroke:#FFFFFF;stroke-width:10;stroke-miterlimit:10;" d="M203.844,150.36
			c0,7.845-6.361,14.206-14.206,14.206h-18.275c-7.845,0-14.206-6.36-14.206-14.206v-17.363c0-7.846,6.36-14.206,14.206-14.206
			h18.275c7.845,0,14.206,6.36,14.206,14.206V150.36z"/>
		<g>
			<g>
				<g>
					<path style="fill:#FFFFFF;" d="M247.376,136.679c-7.764,0-15.526,0-23.29,0c-6.448,0-6.448,10,0,10c7.764,0,15.526,0,23.29,0
						C253.824,146.679,253.824,136.679,247.376,136.679L247.376,136.679z"/>
				</g>
			</g>
			<g>
				<g>
					<path style="fill:#FFFFFF;" d="M185.5,98.093c0-7.764,0-15.527,0-23.291c0-6.449-10-6.449-10,0c0,7.764,0,15.527,0,23.291
						C175.5,104.542,185.5,104.542,185.5,98.093L185.5,98.093z"/>
				</g>
			</g>
			<g>
				<g>
					<path style="fill:#FFFFFF;" d="M148.086,102.192c-5.49-5.489-10.979-10.979-16.469-16.469
						c-4.564-4.563-11.635,2.507-7.071,7.071c5.49,5.489,10.979,10.979,16.469,16.469
						C145.579,113.827,152.649,106.756,148.086,102.192L148.086,102.192z"/>
				</g>
			</g>
			<g>
				<g>
					<path style="fill:#FFFFFF;" d="M219.985,109.264c5.49-5.49,10.979-10.979,16.469-16.469c4.564-4.564-2.507-11.635-7.07-7.071
						c-5.49,5.49-10.979,10.979-16.469,16.469C208.351,106.757,215.422,113.828,219.985,109.264L219.985,109.264z"/>
				</g>
			</g>
			<g>
				<g>
					<path style="fill:#FFFFFF;" d="M185.5,208.555c0-7.764,0-15.527,0-23.291c0-6.449-10-6.449-10,0c0,7.764,0,15.527,0,23.291
						C175.5,215.003,185.5,215.003,185.5,208.555L185.5,208.555z"/>
				</g>
			</g>
			<g>
				<g>
					<path style="fill:#FFFFFF;" d="M113.625,146.678c7.764,0,15.527,0,23.291,0c6.449,0,6.449-10,0-10c-7.764,0-15.527,0-23.291,0
						C107.176,136.678,107.176,146.678,113.625,146.678L113.625,146.678z"/>
				</g>
			</g>
			<g>
				<g>
					<path style="fill:#FFFFFF;" d="M212.915,181.164c5.489,5.489,10.979,10.979,16.469,16.469c4.563,4.564,11.635-2.507,7.07-7.07
						c-5.489-5.49-10.979-10.98-16.469-16.47C215.422,169.529,208.351,176.6,212.915,181.164L212.915,181.164z"/>
				</g>
			</g>
			<g>
				<g>
					<path style="fill:#FFFFFF;" d="M141.015,174.092c-5.489,5.49-10.979,10.979-16.469,16.469
						c-4.563,4.563,2.507,11.635,7.071,7.07c5.489-5.489,10.979-10.979,16.469-16.469
						C152.649,176.6,145.579,169.529,141.015,174.092L141.015,174.092z"/>
				</g>
			</g>
		</g>
	</g>
	<g>
		<g>
			<g>
				<path style="fill:#FFFFFF;" d="M77.857,288.5c-6.658-0.767-4.169-15.326-4.169-19.04c0-6.644,0-13.286,0-19.93
					c0-7.123,11.418-5.03,15.395-5.03c26.883,0,53.766,0,80.648,0c30.165,0,60.33,0,90.495,0c7.767,0,15.533,0,23.299,0
					c3.083,0,6.163,1.649,6.163,5.393c0,6.848,0,13.694,0,20.541c0,3.016,2.263,18.066-4.176,18.066c-1.359,0-2.719,0-4.079,0
					c-8.959,0-17.918,0-26.876,0c-30.909,0-61.818,0-92.727,0C133.839,288.5,105.848,288.5,77.857,288.5c-1.935,0-1.935,3,0,3
					c48.865,0,97.729,0,146.594,0c20.057,0,40.113,0,60.17,0c11.22,0,8.066-15.738,8.066-23.021c0-6.417,0-12.834,0-19.251
					c0-4.408-3.102-7.728-7.571-7.728c-51.141,0-102.28,0-153.421,0c-17.646,0-35.293,0-52.94,0
					c-10.323,0-8.067,12.199-8.067,19.155c0,6.819,0,13.64,0,20.46c0,5.201,1.076,9.684,7.169,10.385
					C79.777,291.721,79.756,288.719,77.857,288.5z"/>
			</g>
		</g>
		<g>
			<g>
				<g>
					<path style="fill:#FFFFFF;" d="M79.927,254.027c0,8.304,0,16.606,0,24.91c0,6.448,10,6.448,10,0c0-8.304,0-16.606,0-24.91
						C89.927,247.579,79.927,247.579,79.927,254.027L79.927,254.027z"/>
				</g>
			</g>
			<g>
				<g>
					<path style="fill:#FFFFFF;" d="M94.667,254.027c0,8.304,0,16.606,0,24.91c0,6.448,10,6.448,10,0c0-8.304,0-16.606,0-24.91
						C104.667,247.579,94.667,247.579,94.667,254.027L94.667,254.027z"/>
				</g>
			</g>
			<g>
				<g>
					<path style="fill:#FFFFFF;" d="M109.405,254.027c0,8.304,0,16.606,0,24.91c0,6.448,10,6.448,10,0c0-8.304,0-16.606,0-24.91
						C119.405,247.579,109.405,247.579,109.405,254.027L109.405,254.027z"/>
				</g>
			</g>
			<g>
				<g>
					<path style="fill:#FFFFFF;" d="M124.145,254.027c0,8.304,0,16.606,0,24.91c0,6.448,10,6.448,10,0c0-8.304,0-16.606,0-24.91
						C134.145,247.579,124.145,247.579,124.145,254.027L124.145,254.027z"/>
				</g>
			</g>
			<g>
				<g>
					<path style="fill:#FFFFFF;" d="M138.884,254.027c0,8.304,0,16.606,0,24.91c0,6.448,10,6.448,10,0c0-8.304,0-16.606,0-24.91
						C148.884,247.579,138.884,247.579,138.884,254.027L138.884,254.027z"/>
				</g>
			</g>
			<g>
				<g>
					<path style="fill:#FFFFFF;" d="M153.623,254.027c0,8.304,0,16.606,0,24.91c0,6.448,10,6.448,10,0c0-8.304,0-16.606,0-24.91
						C163.623,247.579,153.623,247.579,153.623,254.027L153.623,254.027z"/>
				</g>
			</g>
			<g>
				<g>
					<path style="fill:#FFFFFF;" d="M168.362,254.027c0,8.304,0,16.606,0,24.91c0,6.448,10,6.448,10,0c0-8.304,0-16.606,0-24.91
						C178.362,247.579,168.362,247.579,168.362,254.027L168.362,254.027z"/>
				</g>
			</g>
			<g>
				<g>
					<path style="fill:#FFFFFF;" d="M183.102,254.027c0,8.304,0,16.606,0,24.91c0,6.448,10,6.448,10,0c0-8.304,0-16.606,0-24.91
						C193.102,247.579,183.102,247.579,183.102,254.027L183.102,254.027z"/>
				</g>
			</g>
			<g>
				<g>
					<path style="fill:#FFFFFF;" d="M197.84,254.027c0,8.304,0,16.606,0,24.91c0,6.448,10,6.448,10,0c0-8.304,0-16.606,0-24.91
						C207.84,247.579,197.84,247.579,197.84,254.027L197.84,254.027z"/>
				</g>
			</g>
		</g>
	</g>
</g>
<g id="Ebene_1">
</g>
</svg>
