<?xml version="1.0" encoding="iso-8859-1"?>
<!-- Generator: Adobe Illustrator 16.0.0, SVG Export Plug-In . SVG Version: 6.00 Build 0)  -->
<!DOCTYPE svg PUBLIC "-//W3C//DTD SVG 1.1//EN" "http://www.w3.org/Graphics/SVG/1.1/DTD/svg11.dtd">
<svg version="1.1" xmlns="http://www.w3.org/2000/svg" xmlns:xlink="http://www.w3.org/1999/xlink" x="0px" y="0px" width="361px"
	 height="361px" viewBox="0 0 361 361" style="enable-background:new 0 0 361 361;" xml:space="preserve">
<g id="message_x5F_tendency_x5F_upward">
	<path style="fill:none;stroke:#FFFFFF;stroke-width:10;stroke-miterlimit:10;" d="M206.318,102.999
		c-1.514-1.514-3.123-2.357-3.596-1.886l-14.827,14.828c-0.472,0.472,0.372,2.083,1.886,3.596l53.437,53.438
		c1.513,1.513,3.123,2.357,3.596,1.884l14.827-14.828c0.473-0.472-0.371-2.082-1.885-3.595L206.318,102.999z"/>
	<g>
		<g>
			<path style="fill:#FFFFFF;" d="M279.525,170.471c4.263-31.914,8.526-63.828,12.789-95.742c0.329-2.463-2.537-5.329-5-5
				c-31.914,4.264-63.828,8.527-95.742,12.791c-4.077,0.545-6.935,5.137-3.535,8.536c27.65,27.65,55.302,55.301,82.953,82.952
				c4.563,4.563,11.635-2.507,7.07-7.071c-27.65-27.65-55.302-55.301-82.953-82.952c-1.178,2.845-2.356,5.69-3.535,8.536
				c31.914-4.264,63.828-8.527,95.742-12.791c-1.667-1.667-3.333-3.333-5-5c-4.263,31.914-8.526,63.828-12.789,95.742
				C268.674,176.848,278.685,176.766,279.525,170.471z"/>
		</g>
	</g>
	<path style="display:none;fill:none;stroke:#FFFFFF;stroke-width:10;stroke-miterlimit:10;" d="M286.083,248.445
		c0,20.924-16.966,37.89-37.89,37.89h-134.72c-20.927,0-37.89-16.966-37.89-37.89V113.724c0-20.926,16.963-37.89,37.89-37.89h134.72
		c20.924,0,37.89,16.964,37.89,37.89V248.445z"/>
	<g>
		<g>
			<path style="fill:#FFFFFF;" d="M70.688,185.333c0,33.778,0,67.556,0,101.334c0,6.448,10,6.448,10,0c0-33.778,0-67.556,0-101.334
				C80.688,178.884,70.688,178.884,70.688,185.333L70.688,185.333z"/>
		</g>
	</g>
	<g>
		<g>
			<path style="fill:#FFFFFF;" d="M285.835,281.667c-48.661,0-97.322,0-145.983,0c-21.388,0-42.776,0-64.164,0
				c-6.449,0-6.449,10,0,10c48.661,0,97.322,0,145.983,0c21.388,0,42.776,0,64.164,0
				C292.283,291.667,292.283,281.667,285.835,281.667L285.835,281.667z"/>
		</g>
	</g>
	<g>
		<g>
			<path style="fill:#FFFFFF;" d="M81.184,248.683c20.486-10.118,40.973-20.235,61.459-30.354c5.782-2.855,0.713-11.479-5.047-8.635
				c-20.486,10.118-40.973,20.235-61.459,30.354C70.355,242.903,75.424,251.527,81.184,248.683L81.184,248.683z"/>
		</g>
	</g>
	<g>
		<g>
			<path style="fill:#FFFFFF;" d="M138.971,217.508c11.805,7.319,23.609,14.639,35.414,21.958c5.497,3.408,10.514-5.245,5.047-8.635
				c-11.805-7.319-23.609-14.639-35.414-21.958C138.521,205.465,133.504,214.118,138.971,217.508L138.971,217.508z"/>
		</g>
	</g>
	<g>
		<g>
			<path style="fill:#FFFFFF;" d="M191.8,223.944c3.305,8.843,6.61,17.687,9.915,26.529c2.236,5.983,11.905,3.395,9.643-2.658
				c-3.305-8.843-6.61-17.687-9.915-26.529C199.206,215.303,189.537,217.892,191.8,223.944L191.8,223.944z"/>
		</g>
	</g>
	<g>
		<g>
			<path style="fill:#FFFFFF;" d="M209.06,253.462c14.466-10.674,28.931-21.349,43.396-32.022c5.129-3.784,0.149-12.47-5.047-8.635
				c-14.465,10.674-28.931,21.349-43.396,32.022C198.884,248.611,203.863,257.297,209.06,253.462L209.06,253.462z"/>
		</g>
	</g>
	<g>
		<g>
			<path style="fill:#FFFFFF;" d="M179.432,239.466c6.571-4.178,13.142-8.355,19.712-12.533c5.424-3.448,0.412-12.105-5.047-8.635
				c-6.571,4.178-13.142,8.355-19.712,12.533C168.961,234.279,173.973,242.937,179.432,239.466L179.432,239.466z"/>
		</g>
	</g>
	<g>
		<g>
			<path style="fill:#FFFFFF;" d="M248.603,221.943c12.016,2.849,24.032,5.696,36.048,8.545c6.271,1.486,8.932-8.155,2.658-9.643
				c-12.016-2.849-24.032-5.696-36.048-8.545C244.99,210.814,242.329,220.456,248.603,221.943L248.603,221.943z"/>
		</g>
	</g>
</g>
<g id="Ebene_1">
</g>
</svg>
