<?xml version="1.0" encoding="iso-8859-1"?>
<!-- Generator: Adobe Illustrator 16.0.0, SVG Export Plug-In . SVG Version: 6.00 Build 0)  -->
<!DOCTYPE svg PUBLIC "-//W3C//DTD SVG 1.1//EN" "http://www.w3.org/Graphics/SVG/1.1/DTD/svg11.dtd">
<svg version="1.1" xmlns="http://www.w3.org/2000/svg" xmlns:xlink="http://www.w3.org/1999/xlink" x="0px" y="0px" width="361px"
	 height="361px" viewBox="0 0 361 361" style="enable-background:new 0 0 361 361;" xml:space="preserve">
<g id="message_x5F_socket_x5F_ch_x5F_3">
	<path style="fill:none;stroke:#FFFFFF;stroke-width:10;stroke-miterlimit:10;" d="M286.982,281.264c0,3.127-2.763,5.662-6.17,5.662
		h-199.8c-3.407,0-6.169-2.535-6.169-5.662V80.448c0-3.127,2.762-5.662,6.169-5.662h199.8c3.407,0,6.17,2.535,6.17,5.662V281.264z"
		/>
	<g>
		<path style="fill:none;stroke:#FFFFFF;stroke-width:10;stroke-miterlimit:10;" d="M159.779,130.438
			c0,0.049-0.043,0.089-0.097,0.089h-3.126c-0.054,0-0.097-0.04-0.097-0.089v-3.143c0-0.048,0.043-0.088,0.097-0.088h3.126
			c0.054,0,0.097,0.04,0.097,0.088V130.438z"/>
		<path style="fill:none;stroke:#FFFFFF;stroke-width:10;stroke-miterlimit:10;" d="M206.02,130.438
			c0,0.049-0.044,0.089-0.097,0.089h-3.126c-0.054,0-0.098-0.04-0.098-0.089v-3.143c0-0.048,0.044-0.088,0.098-0.088h3.126
			c0.053,0,0.097,0.04,0.097,0.088V130.438z"/>
		<path style="fill:none;stroke:#FFFFFF;stroke-width:10;stroke-miterlimit:10;" d="M182.703,143.632
			c0,0.049-0.044,0.089-0.098,0.089h-3.125c-0.053,0-0.097-0.04-0.097-0.089v-3.142c0-0.049,0.043-0.088,0.097-0.088h3.125
			c0.054,0,0.098,0.04,0.098,0.088V143.632z"/>
		<g>
			<g>
				<path style="fill:#FFFFFF;" d="M212.334,151.067c-18.144,0-36.287,0-54.431,0c-2.749,0-5.497,0-8.246,0
					c0.404,0,1.913,0.92,0.626-0.132c-1.769-1.447-3.378-3.102-4.983-4.724c-6.5-6.569-12.61-13.561-18.615-20.583
					c0,2.357,0,4.714,0,7.071c3.236-3.867,6.534-7.683,9.867-11.467c4.217-4.788,9.769-11.756,14.286-14.819
					c0.912-0.618-2.271,0.252-1.18,0.252c0.541,0,1.081,0,1.622,0c2.448,0,4.896,0,7.343,0c7.569,0,15.139,0,22.708,0
					c7.238,0,14.476,0,21.714,0c2.317,0,4.634,0,6.951,0c0.611,0,1.223,0,1.834,0c1.536,0-1.909-0.792-1.024-0.264
					c0.179,0.106,1.152,0.948,1.943,1.685c1.181,1.101,2.303,2.266,3.423,3.429c2.95,3.064,5.773,6.252,8.58,9.448
					c3.466,3.947,6.878,7.944,10.231,11.988c0-2.357,0-4.714,0-7.071c-3.557,4.119-7.184,8.178-10.855,12.195
					c-2.878,3.147-5.802,6.255-8.829,9.259c-1.092,1.083-2.214,2.135-3.369,3.151c-1.005,0.884-1.409,0.826-0.924,0.759
					c-6.364,0.887-3.646,10.521,2.658,9.643c2.424-0.338,4.653-2.699,6.371-4.253c3.196-2.892,6.142-6.077,9.078-9.228
					c4.409-4.729,8.716-9.561,12.94-14.455c1.91-2.212,1.84-4.853,0-7.071c-7.782-9.387-15.654-20.303-25.499-27.613
					c-2.823-2.097-6.234-1.602-9.55-1.602c-6.908,0-13.816,0-20.725,0c-12.254,0-24.508,0-36.763,0
					c-5.026,0-9.482,6.012-12.58,9.281c-5.266,5.558-10.272,11.369-15.23,17.201c-0.7,0.824-1.399,1.65-2.093,2.479
					c-1.855,2.218-1.894,4.857,0,7.071c6.201,7.25,12.531,14.433,19.243,21.216c2.636,2.665,6.347,7.15,10.475,7.15
					c2.184,0,4.368,0,6.552,0c18.816,0,37.633,0,56.45,0C218.782,161.067,218.782,151.067,212.334,151.067z"/>
			</g>
		</g>
	</g>
	<g>
		<path style="fill:none;stroke:#FFFFFF;stroke-width:10;stroke-miterlimit:10;" d="M147.628,224.635
			c0.042-0.023,0.099-0.007,0.125,0.039l1.563,2.708c0.027,0.046,0.014,0.104-0.029,0.128l-2.721,1.571
			c-0.042,0.024-0.098,0.007-0.125-0.04l-1.563-2.707c-0.027-0.046-0.014-0.104,0.028-0.127L147.628,224.635z"/>
		<path style="fill:none;stroke:#FFFFFF;stroke-width:10;stroke-miterlimit:10;" d="M124.508,184.59
			c0.042-0.024,0.099-0.006,0.125,0.039l1.563,2.708c0.027,0.046,0.014,0.104-0.028,0.128l-2.722,1.571
			c-0.042,0.024-0.098,0.007-0.125-0.04l-1.563-2.707c-0.026-0.045-0.014-0.104,0.028-0.128L124.508,184.59z"/>
		<path style="fill:none;stroke:#FFFFFF;stroke-width:10;stroke-miterlimit:10;" d="M147.593,198.186
			c0.042-0.025,0.099-0.006,0.125,0.039l1.563,2.707c0.027,0.047,0.014,0.104-0.029,0.129l-2.721,1.57
			c-0.042,0.025-0.099,0.008-0.125-0.039l-1.563-2.707c-0.027-0.046-0.014-0.104,0.028-0.129L147.593,198.186z"/>
		<g>
			<g>
				<path style="fill:#FFFFFF;" d="M139.229,168.83c9.072,15.713,18.144,31.426,27.215,47.139c1.375,2.38,2.749,4.761,4.123,7.141
					c-0.214-0.37-0.181-2.07-0.432-0.535c-0.368,2.256-0.997,4.477-1.599,6.678c-2.439,8.914-5.439,17.701-8.517,26.413
					c2.05-1.164,4.1-2.328,6.15-3.492c-4.967-0.869-9.921-1.817-14.864-2.812c-6.232-1.254-15.129-2.599-19.965-4.943
					c-0.998-0.484,1.288,1.778,0.749,0.845c-0.27-0.468-0.541-0.937-0.811-1.404c-1.224-2.12-2.448-4.239-3.671-6.359
					c-3.785-6.556-7.569-13.111-11.354-19.666c-3.619-6.269-7.238-12.536-10.857-18.805c-1.159-2.007-2.317-4.014-3.476-6.021
					c-0.305-0.529-0.611-1.059-0.917-1.588c-0.767-1.328,0.281,2.059,0.296,1.016c0.015-1.015,1.121-5.001,1.738-7.142
					c1.179-4.087,2.528-8.126,3.892-12.154c1.685-4.976,3.441-9.929,5.267-14.855c-2.05,1.164-4.1,2.328-6.15,3.492
					c5.345,1.021,10.674,2.132,15.988,3.303c4.165,0.918,8.318,1.897,12.434,3.017c1.484,0.404,2.956,0.849,4.414,1.342
					c1.253,0.423,1.411,0.764,1.129,0.402c3.962,5.082,10.986-2.05,7.071-7.071c-1.51-1.937-4.644-2.695-6.858-3.408
					c-4.103-1.322-8.333-2.28-12.53-3.249c-6.3-1.454-12.637-2.767-18.988-3.979c-2.861-0.546-5.144,0.777-6.15,3.492
					c-4.247,11.457-9.761,23.745-11.173,35.95c-0.403,3.485,1.747,6.205,3.4,9.068c3.454,5.982,6.908,11.966,10.362,17.948
					c6.127,10.612,12.254,21.226,18.381,31.839c2.499,4.327,9.928,5.18,14.28,6.221c7.446,1.781,14.981,3.212,22.511,4.589
					c1.064,0.195,2.129,0.387,3.194,0.573c2.838,0.496,5.175-0.732,6.15-3.492c3.179-8.996,6.234-18.069,8.752-27.273
					c0.997-3.644,3.027-9.108,0.95-12.705c-1.092-1.892-2.184-3.783-3.276-5.675c-9.408-16.296-18.816-32.591-28.225-48.887
					C144.642,158.201,135.999,163.235,139.229,168.83z"/>
			</g>
		</g>
	</g>
	<g>
		<path style="fill:none;stroke:#FFFFFF;stroke-width:10;stroke-miterlimit:10;" d="M214.174,224.635
			c-0.043-0.023-0.1-0.007-0.126,0.039l-1.563,2.708c-0.026,0.046-0.014,0.104,0.029,0.128l2.721,1.571
			c0.043,0.024,0.099,0.007,0.125-0.04l1.563-2.707c0.026-0.046,0.014-0.104-0.028-0.127L214.174,224.635z"/>
		<path style="fill:none;stroke:#FFFFFF;stroke-width:10;stroke-miterlimit:10;" d="M237.293,184.59
			c-0.042-0.024-0.099-0.006-0.125,0.039l-1.563,2.708c-0.027,0.046-0.014,0.104,0.027,0.128l2.723,1.571
			c0.041,0.024,0.098,0.007,0.125-0.04l1.563-2.707c0.026-0.045,0.014-0.104-0.028-0.128L237.293,184.59z"/>
		<path style="fill:none;stroke:#FFFFFF;stroke-width:10;stroke-miterlimit:10;" d="M214.209,198.186
			c-0.043-0.025-0.1-0.006-0.126,0.039l-1.563,2.707c-0.026,0.047-0.014,0.104,0.029,0.129l2.721,1.57
			c0.043,0.025,0.099,0.008,0.125-0.039l1.563-2.707c0.027-0.046,0.015-0.104-0.027-0.129L214.209,198.186z"/>
		<g>
			<g>
				<path style="fill:#FFFFFF;" d="M213.938,163.783c-9.408,16.296-18.816,32.591-28.225,48.887
					c-1.092,1.892-2.185,3.783-3.276,5.675c-2.085,3.612-0.027,9.044,0.95,12.705c2.459,9.214,5.576,18.285,8.753,27.273
					c0.976,2.76,3.313,3.988,6.15,3.492c12.148-2.125,25.468-3.65,36.843-8.582c3.027-1.312,4.473-5.105,6.014-7.775
					c3.519-6.094,7.037-12.188,10.556-18.282c5.98-10.358,11.961-20.717,17.941-31.075c2.564-4.442-0.703-11.759-2.038-16.13
					c-2.198-7.199-4.713-14.306-7.275-21.383c-0.357-0.988-0.718-1.976-1.083-2.961c-1.006-2.715-3.289-4.039-6.15-3.492
					c-6.016,1.148-12.013,2.405-17.987,3.751c-4.298,0.968-8.589,1.997-12.812,3.254c-2.407,0.717-5.947,1.538-7.578,3.631
					c-3.914,5.021,3.109,12.153,7.07,7.071c-0.27,0.346-0.19,0.085,0.539-0.192c1.364-0.519,2.776-0.918,4.179-1.322
					c4.044-1.165,8.156-2.101,12.261-3.025c5.641-1.271,11.307-2.441,16.986-3.526c-2.05-1.164-4.101-2.328-6.15-3.492
					c1.711,4.616,3.349,9.259,4.946,13.915c1.289,3.759,2.528,7.535,3.688,11.335c0.506,1.656,0.979,3.322,1.422,4.996
					c0.186,0.699,0.352,1.403,0.514,2.108c0.047,0.2,0.416,2.419,0.298,1.392c0.197,1.706,0.471-0.865,0.485-0.89
					c-0.234,0.406-0.469,0.812-0.703,1.217c-1.163,2.016-2.327,4.031-3.491,6.047c-3.738,6.476-7.478,12.952-11.216,19.428
					c-3.661,6.341-7.323,12.683-10.984,19.024c-1.212,2.099-2.423,4.197-3.635,6.296c-0.34,0.589-0.68,1.177-1.02,1.766
					c-0.771,1.336,0.304-0.301,0.866-0.677c-4.037,2.703-13.641,3.758-19.289,4.918c-5.269,1.082-10.557,2.086-15.854,3.013
					c2.05,1.164,4.101,2.328,6.15,3.492c-2.979-8.432-5.818-16.931-8.271-25.531c-0.656-2.299-1.261-4.614-1.735-6.959
					c-0.396-1.957,0.132-1.232-0.613,0.058c1.398-2.422,2.796-4.843,4.193-7.264c9.072-15.713,18.144-31.426,27.216-47.139
					C225.803,163.235,217.16,158.201,213.938,163.783z"/>
			</g>
		</g>
	</g>
</g>
<g id="Ebene_1">
</g>
</svg>
