<?xml version="1.0" encoding="iso-8859-1"?>
<!-- Generator: Adobe Illustrator 16.0.3, SVG Export Plug-In . SVG Version: 6.00 Build 0)  -->
<!DOCTYPE svg PUBLIC "-//W3C//DTD SVG 1.1//EN" "http://www.w3.org/Graphics/SVG/1.1/DTD/svg11.dtd">
<svg version="1.1" xmlns="http://www.w3.org/2000/svg" xmlns:xlink="http://www.w3.org/1999/xlink" x="0px" y="0px" width="361px"
	 height="361px" viewBox="0 0 361 361" style="enable-background:new 0 0 361 361;" xml:space="preserve">
<g id="message_x5F_street_x5F_sweeper">
	<g>
		<circle style="fill:#FFFFFF;" cx="165.322" cy="258.605" r="33.186"/>
		<path style="fill:#FFFFFF;" d="M115.789,107.815c0-3.228-2.619-5.847-5.848-5.847H70.713v100.114h39.228
			c3.229,0,5.848-2.617,5.848-5.846V107.815z"/>
		<path style="fill:#FFFFFF;" d="M70.713,226.039v32.566h57.283c0.001-20.662,16.75-37.411,37.412-37.411
			c20.626,0,37.351,16.691,37.409,37.306c7.124-0.541,9.017-3.393,9.017-11.923c0,0,0-39.946,0-63.216
			c0-0.531-0.128-1.721-0.287-2.617h-0.016c0.03-0.961-0.179-1.941-0.688-2.838l-26.662-46.774
			c-0.824-1.445-2.219-2.342-3.737-2.617c-0.497-0.129-1.008-0.221-1.545-0.221h-52.984c-3.386,0-6.131,2.746-6.131,6.131v45.218
			c0,0.377,0.046,0.743,0.111,1.102h-0.125v-0.049l-0.225,46.246L70.713,226.039z M127.909,141.34c0-2.909,2.359-5.27,5.27-5.27
			h45.542c0.461,0,0.901,0.08,1.327,0.19c1.306,0.236,2.503,1.007,3.211,2.249l17.155,30.095l-0.018,0
			c0.422,0.746,0.885,1.559,1.379,2.428c2.207,3.879-0.581,6.704-3.874,6.704c-16.899,0-64.723,0-64.723,0
			c-2.823,0-5.107-2.227-5.244-5.014l-0.026,0.001v-0.257v-8.137V141.34z"/>
		<path style="fill:#FFFFFF;" d="M115.623,211.148c0-3.228-2.619-5.847-5.848-5.847H70.546v17.114h39.228
			c3.229,0,5.848-2.617,5.848-5.847V211.148z"/>
	</g>
	<g>
		<g>
			<path style="fill:#FFFFFF;" d="M256.863,265.647c9.663,8.331,19.326,16.661,28.99,24.991c3.4,2.932,8.374-1.997,4.949-4.949
				c-9.663-8.331-19.326-16.661-28.99-24.991C258.412,257.767,253.438,262.695,256.863,265.647L256.863,265.647z"/>
		</g>
	</g>
	<g>
		<g>
			<path style="fill:#FFFFFF;" d="M251.889,268.16c6.021,7.322,12.042,14.645,18.063,21.966c2.869,3.489,7.792-1.493,4.949-4.949
				c-6.021-7.322-12.042-14.645-18.063-21.966C253.969,259.722,249.046,264.704,251.889,268.16L251.889,268.16z"/>
		</g>
	</g>
	<g>
		<g>
			<path style="fill:#FFFFFF;" d="M247.383,266.981c2.036,7.078,4.073,14.156,6.109,21.234c1.246,4.33,8.001,2.486,6.75-1.861
				c-2.036-7.078-4.073-14.156-6.109-21.234C252.887,260.79,246.132,262.634,247.383,266.981L247.383,266.981z"/>
		</g>
	</g>
	<g>
		<g>
			<path style="fill:#FFFFFF;" d="M234.523,260.698c-9.664,8.33-19.327,16.66-28.99,24.991c-3.425,2.952,1.549,7.881,4.949,4.949
				c9.664-8.33,19.327-16.66,28.99-24.991C242.897,262.695,237.924,257.767,234.523,260.698L234.523,260.698z"/>
		</g>
	</g>
	<g>
		<g>
			<path style="fill:#FFFFFF;" d="M239.498,263.211c-6.021,7.321-12.043,14.644-18.063,21.966c-2.843,3.456,2.08,8.438,4.949,4.949
				c6.021-7.321,12.043-14.644,18.063-21.966C247.29,264.704,242.367,259.722,239.498,263.211L239.498,263.211z"/>
		</g>
	</g>
	<g>
		<g>
			<path style="fill:#FFFFFF;" d="M242.203,265.12c-2.036,7.078-4.073,14.156-6.109,21.234c-1.251,4.348,5.504,6.191,6.75,1.861
				c2.036-7.078,4.073-14.156,6.109-21.234C250.204,262.634,243.449,260.79,242.203,265.12L242.203,265.12z"/>
		</g>
	</g>
	<path style="fill:#FFFFFF;" d="M261.583,263.895c0,2.222-1.801,4.022-4.022,4.022h-18.352c-2.221,0-4.021-1.801-4.021-4.022v-2.765
		c0-2.222,1.801-4.022,4.021-4.022h18.352c2.222,0,4.022,1.801,4.022,4.022V263.895z"/>
	<path style="fill:#FFFFFF;" d="M213.268,220.814c2.222,0,4.022,1.801,4.022,4.021v28.352c0,2.222-1.801,4.022-4.022,4.022h-2.765
		c-2.222,0-4.022-1.801-4.022-4.022v-28.352c0-2.221,1.801-4.021,4.022-4.021H213.268z"/>
	<g>
		<g>
			<path style="fill:#FFFFFF;" d="M212.314,236.8c15.713,6.083,31.426,12.166,47.139,18.249c4.216,1.632,6.024-5.139,1.861-6.75
				c-15.713-6.083-31.426-12.166-47.139-18.249C209.96,228.418,208.151,235.188,212.314,236.8L212.314,236.8z"/>
		</g>
	</g>
	<g>
		<g>
			<path style="fill:#FFFFFF;" d="M235.583,258.167c8.25,0,16.5,0,24.75,0c6.448,0,6.448-10,0-10c-8.25,0-16.5,0-24.75,0
				C229.135,248.167,229.135,258.167,235.583,258.167L235.583,258.167z"/>
		</g>
	</g>
	<g>
		<g>
			<path style="fill:#FFFFFF;" d="M215.247,247.129c7.867,3.046,15.734,6.092,23.601,9.138c4.216,1.632,6.023-5.139,1.861-6.75
				c-7.867-3.046-15.734-6.092-23.601-9.138C212.893,238.747,211.085,245.518,215.247,247.129L215.247,247.129z"/>
		</g>
	</g>
</g>
<g id="Ebene_1">
</g>
</svg>
