<?xml version="1.0" encoding="iso-8859-1"?>
<!-- Generator: Adobe Illustrator 16.0.0, SVG Export Plug-In . SVG Version: 6.00 Build 0)  -->
<!DOCTYPE svg PUBLIC "-//W3C//DTD SVG 1.1//EN" "http://www.w3.org/Graphics/SVG/1.1/DTD/svg11.dtd">
<svg version="1.1" xmlns="http://www.w3.org/2000/svg" xmlns:xlink="http://www.w3.org/1999/xlink" x="0px" y="0px" width="361px"
	 height="361px" viewBox="0 0 361 361" style="enable-background:new 0 0 361 361;" xml:space="preserve">
<g id="message_x5F_socket">
	<path style="fill:none;stroke:#FFFFFF;stroke-width:10;stroke-miterlimit:10;" d="M286.982,281.264c0,3.127-2.763,5.662-6.17,5.662
		h-199.8c-3.407,0-6.169-2.535-6.169-5.662V80.448c0-3.127,2.762-5.662,6.169-5.662h199.8c3.407,0,6.17,2.535,6.17,5.662V281.264z"
		/>
	<path style="fill:none;stroke:#FFFFFF;stroke-width:10;stroke-miterlimit:10;" d="M247.982,243.383
		c0,1.957-1.729,3.543-3.861,3.543H119.085c-2.132,0-3.86-1.586-3.86-3.543V117.711c0-1.957,1.728-3.543,3.86-3.543h125.036
		c2.133,0,3.861,1.586,3.861,3.543V243.383z"/>
	<path style="fill:none;stroke:#FFFFFF;stroke-width:10;stroke-miterlimit:10;" d="M155.083,185.767
		c0,0.144-0.127,0.261-0.284,0.261h-9.195c-0.157,0-0.284-0.117-0.284-0.261v-9.243c0-0.144,0.127-0.26,0.284-0.26h9.195
		c0.157,0,0.284,0.117,0.284,0.26V185.767z"/>
	<path style="fill:none;stroke:#FFFFFF;stroke-width:10;stroke-miterlimit:10;" d="M184.669,246.133
		c0,0.055-0.108,0.101-0.243,0.101h-7.863c-0.134,0-0.243-0.046-0.243-0.101v-3.564c0-0.056,0.109-0.102,0.243-0.102h7.863
		c0.135,0,0.243,0.046,0.243,0.102V246.133z"/>
	<g>
		<polygon style="fill:#FFFFFF;" points="117.747,139.808 117.618,116.193 141.232,116.322 		"/>
		<g>
			<path style="fill:#FFFFFF;" d="M122.747,139.808c-0.043-7.872-0.085-15.743-0.128-23.614c-1.667,1.667-3.333,3.333-5,5
				c7.872,0.043,15.743,0.085,23.614,0.128c-1.179-2.845-2.357-5.69-3.536-8.536c-7.829,7.829-15.657,15.657-23.486,23.486
				c-4.563,4.564,2.507,11.635,7.071,7.071c7.829-7.829,15.657-15.657,23.486-23.486c3.098-3.098,0.816-8.512-3.536-8.536
				c-7.872-0.043-15.743-0.085-23.614-0.128c-2.714-0.015-5.015,2.286-5,5c0.043,7.872,0.085,15.743,0.128,23.614
				C112.782,146.254,122.782,146.258,122.747,139.808z"/>
		</g>
	</g>
	<g>
		<polygon style="fill:#FFFFFF;" points="222.875,116.322 246.489,116.193 246.361,139.808 		"/>
		<g>
			<path style="fill:#FFFFFF;" d="M222.875,121.322c7.871-0.043,15.743-0.085,23.614-0.128c-1.667-1.667-3.333-3.333-5-5
				c-0.043,7.872-0.085,15.743-0.128,23.614c2.845-1.179,5.69-2.357,8.535-3.536c-7.828-7.829-15.657-15.657-23.486-23.486
				c-4.563-4.563-11.635,2.507-7.07,7.071c7.828,7.829,15.657,15.657,23.486,23.486c3.098,3.098,8.512,0.816,8.535-3.536
				c0.043-7.872,0.085-15.743,0.128-23.614c0.015-2.714-2.285-5.015-5-5c-7.871,0.043-15.743,0.085-23.614,0.128
				C216.428,111.357,216.425,121.357,222.875,121.322z"/>
		</g>
	</g>
	<g>
		<polygon style="fill:#FFFFFF;" points="245.361,221.45 245.489,245.064 221.875,244.936 		"/>
		<g>
			<path style="fill:#FFFFFF;" d="M240.361,221.45c0.043,7.871,0.085,15.743,0.128,23.614c1.667-1.667,3.333-3.333,5-5
				c-7.871-0.043-15.743-0.086-23.614-0.129c1.179,2.845,2.357,5.69,3.535,8.535c7.829-7.828,15.658-15.656,23.486-23.485
				c4.564-4.563-2.507-11.634-7.07-7.07c-7.829,7.828-15.658,15.656-23.486,23.485c-3.099,3.098-0.816,8.512,3.535,8.535
				c7.871,0.043,15.743,0.086,23.614,0.129c2.715,0.015,5.015-2.285,5-5c-0.043-7.871-0.085-15.743-0.128-23.614
				C250.326,215.003,240.326,215,240.361,221.45z"/>
		</g>
	</g>
	<g>
		<polygon style="fill:#FFFFFF;" points="141.231,244.936 117.617,245.064 117.746,221.449 		"/>
		<g>
			<path style="fill:#FFFFFF;" d="M141.231,239.936c-7.872,0.043-15.743,0.086-23.614,0.129c1.667,1.667,3.333,3.333,5,5
				c0.043-7.872,0.085-15.743,0.128-23.615c-2.845,1.179-5.69,2.357-8.536,3.535c7.829,7.829,15.657,15.658,23.486,23.486
				c4.564,4.564,11.635-2.507,7.071-7.07c-7.829-7.829-15.657-15.658-23.486-23.486c-3.098-3.099-8.512-0.816-8.536,3.535
				c-0.043,7.872-0.085,15.743-0.128,23.615c-0.015,2.715,2.286,5.015,5,5c7.872-0.043,15.743-0.086,23.614-0.129
				C147.678,249.9,147.682,239.9,141.231,239.936z"/>
		</g>
	</g>
	<path style="fill:none;stroke:#FFFFFF;stroke-width:10;stroke-miterlimit:10;" d="M217.083,185.767
		c0,0.144-0.128,0.261-0.284,0.261h-9.195c-0.156,0-0.283-0.117-0.283-0.261v-9.243c0-0.144,0.127-0.26,0.283-0.26h9.195
		c0.156,0,0.284,0.117,0.284,0.26V185.767z"/>
	<path style="fill:none;stroke:#FFFFFF;stroke-width:10;stroke-miterlimit:10;" d="M185.002,118.133
		c0,0.055-0.108,0.101-0.242,0.101h-7.864c-0.134,0-0.243-0.045-0.243-0.101v-3.565c0-0.055,0.109-0.101,0.243-0.101h7.864
		c0.134,0,0.242,0.045,0.242,0.101V118.133z"/>
</g>
<g id="Ebene_1">
</g>
</svg>
