<?xml version="1.0" encoding="iso-8859-1"?>
<!-- Generator: Adobe Illustrator 16.0.3, SVG Export Plug-In . SVG Version: 6.00 Build 0)  -->
<!DOCTYPE svg PUBLIC "-//W3C//DTD SVG 1.1//EN" "http://www.w3.org/Graphics/SVG/1.1/DTD/svg11.dtd">
<svg version="1.1" xmlns="http://www.w3.org/2000/svg" xmlns:xlink="http://www.w3.org/1999/xlink" x="0px" y="0px" width="361px"
	 height="361px" viewBox="0 0 361 361" style="enable-background:new 0 0 361 361;" xml:space="preserve">
<g id="message_x5F_bug">
	<g style="display:none;">
		<g style="display:inline;">
			<g>
				<path style="fill:#FFFFFF;" d="M276.033,227.524c-0.264,21.84-14.327,41.07-35.273,47.551
					c-20.997,6.497-44.063-2.393-55.993-20.611c-12.03-18.37-9.941-43.151,4.399-59.6c14.372-16.485,38.711-21.485,58.468-12.16
					C264.969,190.887,275.804,208.495,276.033,227.524c0.117,9.678,15.12,9.774,15.004,0.107
					c-0.285-23.601-12.93-45.152-33.556-56.708c-20.663-11.576-46.938-10.132-66.614,2.754
					c-19.622,12.85-30.717,36.129-28.741,59.425c1.966,23.186,16.774,44.003,38.044,53.442c20.025,8.888,43.533,6.932,61.856-5.067
					c18.09-11.847,28.75-32.366,29.01-53.847C291.154,217.94,276.15,217.866,276.033,227.524z"/>
			</g>
		</g>
		<g style="display:inline;">
			<g>
				<path style="fill:#FFFFFF;" d="M191.411,273.221c26.912-26.912,53.824-53.824,80.737-80.736
					c6.835-6.835-3.813-17.403-10.666-10.551c-26.912,26.912-53.824,53.824-80.737,80.736
					C173.91,269.505,184.558,280.073,191.411,273.221L191.411,273.221z"/>
			</g>
		</g>
	</g>
	<g>
		<g>
			<path style="fill:#FFFFFF;" d="M222.964,241.684c0.088-1.064-0.6,0.752-1.104,1.549c-0.907,1.433-1.987,2.739-3.076,4.034
				c-3.032,3.61-6.405,6.945-9.901,10.103c-2.038,1.84-5.177,4.615-7.243,5.46c-1.103,0.451,0.763,0.091-0.395,0.091
				c-0.958,0-1.916,0-2.875,0c-12.684,0-25.367,0-38.051,0c0.37,0,0.288,0.04-0.44-0.352c-1.323-0.711-2.561-1.629-3.735-2.56
				c-3.649-2.891-6.989-6.19-10.177-9.574c-2.456-2.607-4.833-5.338-6.656-8.434c-0.637-1.082-0.351,0.289-0.351-1.523
				c0-12.155,0-24.312,0-36.467c0-14.19,0-28.38,0-42.57c0-4.315-0.202-6.229,2.934-9.814c3.905-4.466,6.49-4.705,11.704-4.705
				c14.833,0,29.667,0,44.501,0c4.908,0,9.816,0,14.726,0c3.727,0,10.14,6.041,10.14,9.818
				C222.964,185.054,222.964,213.369,222.964,241.684c0,6.448,10,6.448,10,0c0-24.954,0-49.908,0-74.862c0-3.441,0-6.883,0-10.324
				c0-7.931-8.465-16.35-15.537-18.819c-3.6-1.257-7.843-0.757-11.591-0.757c-7.295,0-14.591,0-21.887,0
				c-11.824,0-23.647,0-35.471,0c-8.46,0-16.506,9.076-19.076,16.438c-0.993,2.846-0.442,6.765-0.442,9.695
				c0,26.028,0,52.056,0,78.084c0,4.23,2.741,7.757,5.251,10.925c4.563,5.76,9.846,11.042,15.605,15.605
				c3.421,2.71,6.926,5.251,11.438,5.251c5.42,0,10.84,0,16.26,0c6.323,0,12.647,0,18.971,0c3.88,0,7.055,0.194,10.605-1.717
				c6.038-3.248,11.289-8.764,15.938-13.698c3.998-4.243,9.427-9.685,9.936-15.821C233.497,235.253,223.493,235.305,222.964,241.684
				z"/>
		</g>
	</g>
	<g>
		<g>
			<g>
				<path style="fill:#FFFFFF;" d="M95.958,188.338c7.708,0,15.416,0,23.123,0c6.449,0,6.449-10,0-10c-7.708,0-15.416,0-23.123,0
					C89.509,178.338,89.509,188.338,95.958,188.338L95.958,188.338z"/>
			</g>
		</g>
		<g>
			<g>
				<path style="fill:#FFFFFF;" d="M78.346,199.218c6.675-3.854,13.35-7.708,20.024-11.562c5.582-3.223,0.548-11.865-5.047-8.635
					c-6.675,3.854-13.35,7.708-20.024,11.562C67.717,193.806,72.751,202.448,78.346,199.218L78.346,199.218z"/>
			</g>
		</g>
	</g>
	<g>
		<g>
			<g>
				<path style="fill:#FFFFFF;" d="M95.958,239.019c7.708,0,15.416,0,23.123,0c6.449,0,6.449-10,0-10c-7.708,0-15.416,0-23.123,0
					C89.509,229.019,89.509,239.019,95.958,239.019L95.958,239.019z"/>
			</g>
		</g>
		<g>
			<g>
				<path style="fill:#FFFFFF;" d="M82.847,253.987c5.45-5.449,10.9-10.899,16.351-16.35c4.563-4.563-2.507-11.634-7.071-7.07
					c-5.45,5.449-10.9,10.899-16.351,16.35C71.212,251.48,78.283,258.551,82.847,253.987L82.847,253.987z"/>
			</g>
		</g>
	</g>
	<g>
		<g>
			<g>
				<path style="fill:#FFFFFF;" d="M103.533,132.592c6.675,3.854,13.35,7.708,20.025,11.561c5.595,3.23,10.628-5.413,5.047-8.635
					c-6.675-3.854-13.35-7.708-20.025-11.561C102.985,120.727,97.952,129.37,103.533,132.592L103.533,132.592z"/>
			</g>
		</g>
		<g>
			<g>
				<path style="fill:#FFFFFF;" d="M90.082,110.717c3.854,6.675,7.708,13.35,11.562,20.025c3.223,5.582,11.865,0.548,8.635-5.047
					c-3.854-6.675-7.708-13.35-11.562-20.025C95.494,100.089,86.852,105.123,90.082,110.717L90.082,110.717z"/>
			</g>
		</g>
	</g>
	<g>
		<g>
			<g>
				<path style="fill:#FFFFFF;" d="M265.649,178.337c-7.708,0-15.415,0-23.123,0c-6.448,0-6.448,10,0,10c7.708,0,15.415,0,23.123,0
					C272.098,188.337,272.098,178.337,265.649,178.337L265.649,178.337z"/>
			</g>
		</g>
		<g>
			<g>
				<path style="fill:#FFFFFF;" d="M288.309,190.581c-6.675-3.854-13.35-7.707-20.025-11.561c-5.595-3.23-10.629,5.413-5.047,8.635
					c6.675,3.854,13.35,7.707,20.025,11.561C288.856,202.446,293.891,193.803,288.309,190.581L288.309,190.581z"/>
			</g>
		</g>
	</g>
	<g>
		<g>
			<g>
				<path style="fill:#FFFFFF;" d="M265.649,229.017c-7.708,0-15.415,0-23.123,0c-6.448,0-6.448,10,0,10c7.708,0,15.415,0,23.123,0
					C272.098,239.017,272.098,229.017,265.649,229.017L265.649,229.017z"/>
			</g>
		</g>
		<g>
			<g>
				<path style="fill:#FFFFFF;" d="M285.83,246.916c-5.449-5.451-10.899-10.901-16.35-16.352c-4.563-4.564-11.634,2.507-7.07,7.07
					c5.449,5.451,10.899,10.901,16.35,16.352C283.323,258.551,290.394,251.479,285.83,246.916L285.83,246.916z"/>
			</g>
		</g>
	</g>
	<g>
		<g>
			<g>
				<path style="fill:#FFFFFF;" d="M253.027,123.956c-6.676,3.854-13.351,7.708-20.025,11.561
					c-5.581,3.222-0.548,11.865,5.047,8.635c6.676-3.854,13.351-7.708,20.025-11.561
					C263.655,129.368,258.622,120.726,253.027,123.956L253.027,123.956z"/>
			</g>
		</g>
		<g>
			<g>
				<path style="fill:#FFFFFF;" d="M262.89,105.668c-3.854,6.675-7.708,13.35-11.562,20.025c-3.23,5.595,5.412,10.628,8.635,5.047
					c3.854-6.675,7.708-13.35,11.562-20.025C274.755,105.121,266.112,100.087,262.89,105.668L262.89,105.668z"/>
			</g>
		</g>
	</g>
	<g>
		<g>
			<g>
				<path style="fill:#FFFFFF;" d="M212.222,122.889c-20.84,0-41.68,0-62.521,0c1.667,1.667,3.333,3.333,5,5
					c0-3.658,0-7.315,0-10.974c0-2.04,0-4.08,0-6.12c0-0.325,0.11-1.775-0.096-0.272c-0.131,0.955,1.195-0.392,1.926-0.782
					c7.452-3.976,16.333-2.971,24.431-2.971c8.415,0,16.582-0.747,24.43,2.971c0.505,0.239,2.354,1.837,1.927,0.782
					c-0.413-1.016-0.097-0.423-0.097,0.272c0,2.04,0,4.08,0,6.12c0,3.658,0,7.316,0,10.974c0,6.449,10,6.449,10,0
					c0-4.563,0-9.126,0-13.689c0-5.275-0.354-8.754-5.053-12.106c-8.893-6.345-20.931-5.323-31.207-5.323
					c-10.813,0-21.532-0.583-31.208,5.323c-4.854,2.962-5.053,7.072-5.053,12.106c0,4.563,0,9.126,0,13.689c0,2.726,2.274,5,5,5
					c20.84,0,41.681,0,62.521,0C218.67,132.889,218.67,122.889,212.222,122.889z"/>
			</g>
		</g>
		<g>
			<g>
				<path style="fill:#FFFFFF;" d="M158.219,94.963c2.6,2.563,5.2,5.125,7.799,7.688c1.94,1.912,5.134,1.937,7.071,0
					c1.916-1.916,1.94-5.159,0-7.071c-2.6-2.563-5.2-5.125-7.799-7.688c-1.94-1.912-5.134-1.937-7.071,0
					C156.303,89.808,156.278,93.051,158.219,94.963L158.219,94.963z"/>
			</g>
		</g>
		<g>
			<g>
				<path style="fill:#FFFFFF;" d="M196.33,87.892c-2.6,2.563-5.199,5.125-7.799,7.688c-1.94,1.913-1.916,5.155,0,7.071
					c1.937,1.937,5.131,1.912,7.07,0c2.6-2.563,5.199-5.125,7.799-7.688c1.94-1.913,1.916-5.155,0-7.071
					C201.464,85.956,198.27,85.98,196.33,87.892L196.33,87.892z"/>
			</g>
		</g>
	</g>
</g>
<g id="Ebene_1">
</g>
</svg>
