<?xml version="1.0" encoding="iso-8859-1"?>
<!-- Generator: Adobe Illustrator 16.0.0, SVG Export Plug-In . SVG Version: 6.00 Build 0)  -->
<!DOCTYPE svg PUBLIC "-//W3C//DTD SVG 1.1//EN" "http://www.w3.org/Graphics/SVG/1.1/DTD/svg11.dtd">
<svg version="1.1" xmlns="http://www.w3.org/2000/svg" xmlns:xlink="http://www.w3.org/1999/xlink" x="0px" y="0px" width="361px"
	 height="361px" viewBox="0 0 361 361" style="enable-background:new 0 0 361 361;" xml:space="preserve">
<g id="message_x5F_ok">
	<g>
		<g>
			<path style="fill:#FFFFFF;" d="M146.817,288.209c25.825-37.403,51.649-74.807,77.474-112.209
				c22.049-31.934,44.097-63.869,66.146-95.803c5.504-7.972-7.529-15.41-12.99-7.5c-25.824,37.403-51.649,74.806-77.474,112.209
				c-22.048,31.935-44.097,63.868-66.146,95.803C128.323,288.681,141.356,296.119,146.817,288.209L146.817,288.209z"/>
		</g>
	</g>
	<g>
		<g>
			<path style="fill:#FFFFFF;" d="M144.072,277.964c-20.748-14.89-41.497-29.778-62.245-44.668
				c-3.326-2.387-8.353-0.532-10.245,2.745c-2.194,3.8-0.573,7.864,2.745,10.245c20.748,14.89,41.497,29.778,62.245,44.668
				c3.326,2.387,8.353,0.532,10.245-2.745C149.012,284.409,147.391,280.345,144.072,277.964L144.072,277.964z"/>
		</g>
	</g>
</g>
<g id="Ebene_1">
</g>
</svg>
