<?xml version="1.0" encoding="iso-8859-1"?>
<!-- Generator: Adobe Illustrator 16.0.0, SVG Export Plug-In . SVG Version: 6.00 Build 0)  -->
<!DOCTYPE svg PUBLIC "-//W3C//DTD SVG 1.1 Tiny//EN" "http://www.w3.org/Graphics/SVG/1.1/DTD/svg11-tiny.dtd">
<svg version="1.1" baseProfile="tiny" id="message_x5F_attention"
	 xmlns="http://www.w3.org/2000/svg" xmlns:xlink="http://www.w3.org/1999/xlink" x="0px" y="0px" width="361px" height="361px"
	 viewBox="0 0 361 361" xml:space="preserve">
<g>
	<path fill="#FFFFFF" d="M81.009,276.365c24.396-42.254,48.791-84.509,73.187-126.764c10.162-17.602,20.325-35.204,30.487-52.806
		c-4.321,0.016-8.643,0.032-12.965,0.048c24.396,42.254,48.792,84.509,73.187,126.763c10.163,17.602,20.325,35.205,30.488,52.807
		c2.175-3.767,4.349-7.533,6.524-11.299c-48.792,0-97.583,0-146.374,0c-20.325,0-40.65,0-60.975,0
		c-9.687,0-9.772,15.003-0.108,15.003c48.792,0,97.583,0,146.374,0c20.325,0,40.65,0,60.975,0c5.736,0,9.392-6.331,6.524-11.299
		c-24.396-42.254-48.792-84.509-73.187-126.763c-10.163-17.602-20.325-35.205-30.488-52.807c-2.828-4.898-10.158-4.814-12.965,0.048
		c-24.396,42.254-48.791,84.509-73.187,126.764c-10.162,17.602-20.325,35.204-30.487,52.806
		C63.178,277.249,76.168,284.749,81.009,276.365z"/>
</g>
<g>
	<path fill="#FFFFFF" d="M170.813,145.491c0,21.25,0,42.5,0,63.75c0,9.687,15.003,9.772,15.003,0.108c0-21.25,0-42.5,0-63.75
		C185.816,135.913,170.813,135.827,170.813,145.491L170.813,145.491z"/>
</g>
<g>
	<path fill="#FFFFFF" d="M170.813,237.991c0,2.417,0,4.833,0,7.25c0,4.086,3.341,7.529,7.447,7.556
		c4.065,0.027,7.556-3.361,7.556-7.447c0-2.417,0-4.833,0-7.25c0-4.086-3.341-7.529-7.447-7.556
		C174.304,230.516,170.813,233.905,170.813,237.991L170.813,237.991z"/>
</g>
</svg>
