<?xml version="1.0" encoding="iso-8859-1"?>
<!-- Generator: Adobe Illustrator 16.0.0, SVG Export Plug-In . SVG Version: 6.00 Build 0)  -->
<!DOCTYPE svg PUBLIC "-//W3C//DTD SVG 1.1 Tiny//EN" "http://www.w3.org/Graphics/SVG/1.1/DTD/svg11-tiny.dtd">
<svg version="1.1" baseProfile="tiny" id="message_x5F_garbage"
	 xmlns="http://www.w3.org/2000/svg" xmlns:xlink="http://www.w3.org/1999/xlink" x="0px" y="0px" width="361px" height="361px"
	 viewBox="0 0 361 361" xml:space="preserve">
<g>
	<path fill="#FFFFFF" d="M224.036,279.965c-24.972,0-49.943,0-74.915,0c-4.93,0-9.86,0-14.79,0c-0.76,0-1.521,0-2.281,0
		c4.163,0,6.204,2.735,6.996,5.223c-0.043-0.136-0.072-0.276-0.104-0.415c-0.118-0.518-0.194-1.047-0.274-1.572
		c-0.326-2.137,0.006,0.155-0.06-0.37c-0.108-0.87-0.206-1.74-0.303-2.611c-0.27-2.434-0.508-4.871-0.741-7.309
		c-0.609-6.371-1.147-12.748-1.675-19.126c-2.489-30.083-4.63-60.195-6.738-90.307c-0.272-3.883-0.542-7.766-0.81-11.649
		c-0.05-0.725-0.1-1.449-0.149-2.173c-0.206-3.006-6.271,0.724-3.41,0.724c10.267,0,20.534,0,30.801,0c25.352,0,50.705,0,76.057,0
		c0.243,0-3.671-3.741-3.86-0.974c-0.01,0.149-0.021,0.299-0.031,0.449c-0.071,1.042-0.143,2.083-0.215,3.125
		c-0.299,4.334-0.602,8.668-0.905,13.002c-1.017,14.498-2.058,28.994-3.13,43.488c-1.256,16.981-2.543,33.962-3.989,50.929
		c-0.518,6.077-1.054,12.154-1.691,18.219c-0.115,1.099-0.238,2.196-0.366,3.293c-0.082,0.702-0.526,3.915-0.105,0.961
		c-0.081,0.565-0.171,1.128-0.281,1.688c-0.399,2.033,1.237-2.007,1.609-2.378c1.131-0.656,2.261-1.313,3.392-1.969
		c-0.009,0.003-0.019,0.006-0.027,0.009c-9.086,3.146-5.267,17.656,3.882,14.489c8.209-2.842,7.016-16.8,7.666-23.775
		c1.351-14.481,2.463-28.986,3.572-43.488c1.946-25.456,3.766-50.922,5.518-76.393c0.43-6.254-1.953-13.882-8.809-15.411
		c-2.662-0.594-5.629-0.267-8.324-0.267c-13.513,0-27.026,0-40.539,0c-15.289,0-30.577,0-45.865,0c-4.348,0-8.695,0-13.042,0
		c-7.365,0-12.379,4.915-12.831,12.513c-0.408,6.86,0.777,14.041,1.258,20.876c1.048,14.891,2.121,29.779,3.229,44.666
		c1.166,15.661,2.361,31.319,3.695,46.966c0.792,9.294,1.169,18.91,2.967,28.083c1.43,7.294,8.73,6.487,14.326,6.487
		c10.407,0,20.814,0,31.221,0c17.988,0,35.976,0,53.964,0C233.614,294.968,233.7,279.965,224.036,279.965z"/>
</g>
<path fill="none" stroke="#FFFFFF" stroke-width="8.1506" stroke-miterlimit="10" d="M202.259,96.481
	c0.36,1.789-1.004,3.572-3.05,3.983l-39.894,8.028c-2.043,0.411-3.993-0.706-4.353-2.494l-3.259-16.196
	c-0.36-1.788,1.005-3.572,3.049-3.983l39.894-8.028c2.044-0.411,3.993,0.706,4.353,2.494L202.259,96.481z"/>
<path fill="none" stroke="#FFFFFF" stroke-width="10" stroke-miterlimit="10" d="M170.485,205.516"/>
<path fill="none" stroke="#FFFFFF" stroke-width="10" stroke-miterlimit="10" d="M184.249,191.753"/>
<path fill="none" stroke="#FFFFFF" stroke-width="10" stroke-miterlimit="10" d="M170.485,191.753"/>
<g>
	<path fill="#FFFFFF" d="M121.905,121.831c38.926-8.156,77.852-16.312,116.777-24.468c9.662-2.024,5.653-16.783-3.957-14.77
		c-38.926,8.156-77.852,16.312-116.777,24.468C108.286,109.085,112.295,123.844,121.905,121.831L121.905,121.831z"/>
</g>
<g>
	<path fill="#FFFFFF" d="M170.428,165.379c0.111,33.709,0.222,67.418,0.333,101.127c0.032,9.685,15.035,9.773,15.003,0.108
		c-0.111-33.709-0.222-67.418-0.333-101.127C185.399,155.803,170.396,155.715,170.428,165.379L170.428,165.379z"/>
</g>
<g>
	<path fill="#FFFFFF" d="M201.147,165.379c-1.055,33.709-2.11,67.418-3.165,101.127c-0.304,9.694,14.701,9.75,15.003,0.108
		c1.055-33.709,2.11-67.418,3.165-101.127C216.454,155.794,201.449,155.738,201.147,165.379L201.147,165.379z"/>
</g>
<g>
	<path fill="#FFFFFF" d="M140.147,165.379c1.131,33.709,2.262,67.418,3.393,101.127c0.324,9.658,15.328,9.774,15.003,0.108
		c-1.131-33.709-2.262-67.418-3.393-101.127C154.826,155.83,139.822,155.714,140.147,165.379L140.147,165.379z"/>
</g>
</svg>
