<?xml version="1.0" encoding="iso-8859-1"?>
<!-- Generator: Adobe Illustrator 24.0.1, SVG Export Plug-In . SVG Version: 6.00 Build 0)  -->
<svg version="1.1" xmlns="http://www.w3.org/2000/svg" xmlns:xlink="http://www.w3.org/1999/xlink" x="0px" y="0px"
	 viewBox="0 0 361 361" style="enable-background:new 0 0 361 361;" xml:space="preserve">
<g id="message_x5F_manual">
	<path style="fill:none;stroke:#FFFFFF;stroke-width:10;stroke-miterlimit:10;" d="M286.981,265.605c0,3.313-2.718,6-6.071,6H81.156
		c-3.353,0-6.071-2.687-6.071-6V94.988c0-3.313,2.718-6,6.071-6H280.91c3.353,0,6.071,2.687,6.071,6V265.605z"/>
	<g>
		<g>
			<g>
				<path style="fill:#FFFFFF;" d="M95.428,171.169c23.511,0,47.022,0,70.533,0c4.504,0,4.512-7,0-7c-23.511,0-47.022,0-70.533,0
					C90.924,164.169,90.917,171.169,95.428,171.169L95.428,171.169z"/>
			</g>
		</g>
		<g>
			<g>
				<path style="fill:#FFFFFF;" d="M95.428,195.743c23.511,0,47.022,0,70.533,0c4.504,0,4.512-7,0-7c-23.511,0-47.022,0-70.533,0
					C90.924,188.743,90.917,195.743,95.428,195.743L95.428,195.743z"/>
			</g>
		</g>
		<g>
			<g>
				<path style="fill:#FFFFFF;" d="M95.428,220.318c23.511,0,47.022,0,70.533,0c4.504,0,4.512-7,0-7c-23.511,0-47.022,0-70.533,0
					C90.924,213.318,90.917,220.318,95.428,220.318L95.428,220.318z"/>
			</g>
		</g>
		<g>
			<g>
				<path style="fill:#FFFFFF;" d="M95.428,244.892c23.511,0,47.022,0,70.533,0c4.504,0,4.512-7,0-7c-23.511,0-47.022,0-70.533,0
					C90.924,237.892,90.917,244.892,95.428,244.892L95.428,244.892z"/>
			</g>
		</g>
		<g>
			<g>
				<path style="fill:#FFFFFF;" d="M95.428,122.02c23.511,0,47.022,0,70.533,0c4.504,0,4.512-7,0-7c-23.511,0-47.022,0-70.533,0
					C90.924,115.02,90.917,122.02,95.428,122.02L95.428,122.02z"/>
			</g>
		</g>
		<g>
			<g>
				<path style="fill:#FFFFFF;" d="M95.428,146.594c23.511,0,47.022,0,70.533,0c4.504,0,4.512-7,0-7c-23.511,0-47.022,0-70.533,0
					C90.924,139.594,90.917,146.594,95.428,146.594L95.428,146.594z"/>
			</g>
		</g>
	</g>
	<g>
		<g>
			<g>
				<path style="fill:#FFFFFF;" d="M195.705,171.169c23.511,0,47.022,0,70.533,0c4.504,0,4.512-7,0-7c-23.511,0-47.022,0-70.533,0
					C191.201,164.169,191.193,171.169,195.705,171.169L195.705,171.169z"/>
			</g>
		</g>
		<g>
			<g>
				<path style="fill:#FFFFFF;" d="M195.705,195.743c23.511,0,47.022,0,70.533,0c4.504,0,4.512-7,0-7c-23.511,0-47.022,0-70.533,0
					C191.201,188.743,191.193,195.743,195.705,195.743L195.705,195.743z"/>
			</g>
		</g>
		<g>
			<g>
				<path style="fill:#FFFFFF;" d="M195.705,220.318c23.511,0,47.022,0,70.533,0c4.504,0,4.512-7,0-7c-23.511,0-47.022,0-70.533,0
					C191.201,213.318,191.193,220.318,195.705,220.318L195.705,220.318z"/>
			</g>
		</g>
		<g>
			<g>
				<path style="fill:#FFFFFF;" d="M195.705,244.892c11.255,0,22.511,0,33.766,0c4.504,0,4.512-7,0-7c-11.255,0-22.511,0-33.766,0
					C191.201,237.892,191.193,244.892,195.705,244.892L195.705,244.892z"/>
			</g>
		</g>
		<g>
			<g>
				<path style="fill:#FFFFFF;" d="M195.705,122.02c23.511,0,47.022,0,70.533,0c4.504,0,4.512-7,0-7c-23.511,0-47.022,0-70.533,0
					C191.201,115.02,191.193,122.02,195.705,122.02L195.705,122.02z"/>
			</g>
		</g>
		<g>
			<g>
				<path style="fill:#FFFFFF;" d="M195.705,146.594c23.511,0,47.022,0,70.533,0c4.504,0,4.512-7,0-7c-23.511,0-47.022,0-70.533,0
					C191.201,139.594,191.193,146.594,195.705,146.594L195.705,146.594z"/>
			</g>
		</g>
	</g>
	<g>
		<g>
			<path style="fill:#FFFFFF;" d="M192.024,271.605c-0.402,4.948-7.836,3.504-11.191,3.504c-3.355,0-10.789,1.444-11.191-3.504
				c-0.518-6.37-10.523-6.425-10,0c0.521,6.404,4.275,11.79,10.8,13.214c3.305,0.721,7.045,0.29,10.391,0.29
				c3.349,0,7.085,0.431,10.391-0.29c6.531-1.424,10.279-6.804,10.8-13.214C202.546,265.19,192.544,265.225,192.024,271.605
				L192.024,271.605z"/>
		</g>
	</g>
	<g>
		<g>
			<path style="fill:#FFFFFF;" d="M179.167,101.254c0.011,5.245,0.022,10.49,0.033,15.736c0.026,12.507,0.053,25.014,0.079,37.521
				c0.032,15.202,0.064,30.404,0.097,45.606c0.028,13.064,0.055,26.128,0.083,39.193c0.013,6.347-0.168,12.729,0.04,19.074
				c0.003,0.092,0,0.184,0.001,0.275c0.004,1.93,3.004,1.934,3,0c-0.011-5.245-0.022-10.49-0.033-15.736
				c-0.026-12.507-0.053-25.014-0.079-37.521c-0.032-15.202-0.064-30.404-0.097-45.606c-0.028-13.064-0.055-26.128-0.083-39.193
				c-0.013-6.347,0.168-12.729-0.04-19.074c-0.003-0.092,0-0.184-0.001-0.275C182.163,99.324,179.163,99.32,179.167,101.254
				L179.167,101.254z"/>
		</g>
	</g>
</g>
<g id="Ebene_1">
</g>
</svg>
