<?xml version="1.0" encoding="iso-8859-1"?>
<!-- Generator: Adobe Illustrator 16.0.0, SVG Export Plug-In . SVG Version: 6.00 Build 0)  -->
<!DOCTYPE svg PUBLIC "-//W3C//DTD SVG 1.1//EN" "http://www.w3.org/Graphics/SVG/1.1/DTD/svg11.dtd">
<svg version="1.1" xmlns="http://www.w3.org/2000/svg" xmlns:xlink="http://www.w3.org/1999/xlink" x="0px" y="0px" width="361px"
	 height="361px" viewBox="0 0 361 361" style="enable-background:new 0 0 361 361;" xml:space="preserve">
<g id="message_x5F_postbox">
	<path style="fill:none;stroke:#FFFFFF;stroke-width:10;stroke-miterlimit:10;" d="M282.436,281.116
		c0,3.314-2.688,6.001-6.001,6.001H85.75c-3.314,0-6-2.687-6-6.001V170.705c0-3.314,2.687-6,6-6h190.685
		c3.313,0,6.001,2.686,6.001,6V281.116z"/>
	<path style="fill:none;stroke:#FFFFFF;stroke-width:10;stroke-miterlimit:10;" d="M286.398,157.721c0,3.453-2.799,6.25-6.251,6.25
		H81.518c-3.452,0-6.25-2.798-6.25-6.25v-6.012c0-3.453,2.799-6.25,6.25-6.25h198.63c3.452,0,6.251,2.798,6.251,6.25V157.721z"/>
	<g>
		<g>
			<path style="fill:#FFFFFF;" d="M186.391,196.28c-0.208,3.463-2.295,4.113-5.169,4.113c-3.025,0-5.481-0.285-5.71-4.113
				c-0.209-3.481,2.52-4.113,5.169-4.113C183.705,192.167,186.161,192.452,186.391,196.28c0.115,1.922,3.116,1.934,3,0
				c-0.135-2.251-0.86-4.666-2.833-6.004c-1.696-1.15-3.38-1.109-5.336-1.109c-1.895,0-3.554-0.094-5.313,0.727
				c-2.356,1.099-3.256,4.03-3.397,6.387c-0.13,2.163,1.023,4.777,2.833,6.004c1.697,1.15,3.38,1.109,5.336,1.109
				c1.895,0,3.554,0.094,5.313-0.727c2.356-1.099,3.256-4.03,3.397-6.387C189.507,194.347,186.506,194.358,186.391,196.28z"/>
		</g>
	</g>
</g>
<g id="Ebene_1">
</g>
</svg>
