<?xml version="1.0" encoding="iso-8859-1"?>
<!-- Generator: Adobe Illustrator 16.0.0, SVG Export Plug-In . SVG Version: 6.00 Build 0)  -->
<!DOCTYPE svg PUBLIC "-//W3C//DTD SVG 1.1 Tiny//EN" "http://www.w3.org/Graphics/SVG/1.1/DTD/svg11-tiny.dtd">
<svg version="1.1" baseProfile="tiny" id="message_x5F_service"
	 xmlns="http://www.w3.org/2000/svg" xmlns:xlink="http://www.w3.org/1999/xlink" x="0px" y="0px" width="361px" height="361px"
	 viewBox="0 0 361 361" xml:space="preserve">
<path fill="none" stroke="#FFFFFF" stroke-width="10" stroke-miterlimit="10" d="M155.974,201.441c0-2.918-2.366-5.284-5.284-5.284
	H136.6c-2.918,0-5.284,2.366-5.284,5.284v82.487c0,2.918,2.366,5.284,5.284,5.284h14.09c2.918,0,5.284-2.366,5.284-5.284V201.441z"
	/>
<g>
	<path fill="#FFFFFF" d="M137.983,98.545c0,31.222,0,62.445,0,93.667c0,6.449,10,6.449,10,0c0-31.222,0-62.445,0-93.667
		C147.983,92.096,137.983,92.096,137.983,98.545L137.983,98.545z"/>
</g>
<path fill="#FFFFFF" d="M150.724,100.278c0,3.829-3.104,6.934-6.933,6.934h-1.541c-3.829,0-6.934-3.104-6.934-6.934v-20.8
	c0-3.829,3.104-6.934,6.934-6.934h1.541c3.829,0,6.933,3.104,6.933,6.934V100.278z"/>
<path fill="#FFFFFF" stroke="#FFFFFF" stroke-width="10" stroke-miterlimit="10" d="M222.191,147.259
	c-2.343,2.343-6.143,2.343-8.485,0l-28.991-28.991c-2.343-2.343-2.343-6.142,0-8.485l6.364-6.364c2.343-2.343,6.142-2.343,8.485,0
	l28.991,28.991c2.343,2.343,2.343,6.143,0,8.485L222.191,147.259z"/>
<g>
	<path fill="#FFFFFF" d="M214.177,73.72c-10.685,10.686-21.37,21.371-32.056,32.056c-4.563,4.564,2.507,11.635,7.071,7.071
		c10.685-10.686,21.37-21.371,32.056-32.056C225.812,76.228,218.741,69.157,214.177,73.72L214.177,73.72z"/>
</g>
<g>
	<path fill="#FFFFFF" d="M249.81,113.041c-9.127,9.128-18.255,18.256-27.383,27.384c-4.563,4.564,2.507,11.635,7.071,7.071
		c9.127-9.128,18.255-18.256,27.383-27.384C261.445,115.548,254.374,108.477,249.81,113.041L249.81,113.041z"/>
</g>
<path fill="none" stroke="#FFFFFF" stroke-width="10" stroke-miterlimit="10" d="M229.835,282.321c0,3.657-1.988,6.622-4.44,6.622
	H211.09c-2.453,0-4.44-2.965-4.44-6.622V142.168c0-3.658,1.988-6.622,4.44-6.622h14.305c2.452,0,4.44,2.964,4.44,6.622V282.321z"/>
<path fill="none" stroke="#FFFFFF" stroke-width="10" stroke-miterlimit="10" d="M227.364,275.403c0-3.786-3.071-6.857-6.858-6.857
	h-5.333c-3.786,0-6.857,3.071-6.857,6.857v4.953c0,3.786,3.071,6.857,6.857,6.857h5.333c3.787,0,6.858-3.071,6.858-6.857V275.403z"
	/>
<line fill="none" stroke="#FFFFFF" stroke-width="10" stroke-miterlimit="10" x1="207.315" y1="149.795" x2="227.315" y2="149.795"/>
</svg>
