<?xml version="1.0" encoding="iso-8859-1"?>
<!-- Generator: Adobe Illustrator 16.0.3, SVG Export Plug-In . SVG Version: 6.00 Build 0)  -->
<!DOCTYPE svg PUBLIC "-//W3C//DTD SVG 1.1//EN" "http://www.w3.org/Graphics/SVG/1.1/DTD/svg11.dtd">
<svg version="1.1" xmlns="http://www.w3.org/2000/svg" xmlns:xlink="http://www.w3.org/1999/xlink" x="0px" y="0px" width="361px"
	 height="361px" viewBox="0 0 361 361" style="enable-background:new 0 0 361 361;" xml:space="preserve">
<g id="message_x5F_garbage_x5F_2">
	<path style="fill:none;stroke:#FFFFFF;stroke-width:10;stroke-miterlimit:10;" d="M173.003,202.639"/>
	<path style="fill:none;stroke:#FFFFFF;stroke-width:10;stroke-miterlimit:10;" d="M186.768,188.875"/>
	<path style="fill:none;stroke:#FFFFFF;stroke-width:10;stroke-miterlimit:10;" d="M173.003,188.875"/>
	<g>
		<g>
			<path style="fill:#FFFFFF;" d="M237.149,259.838c-1.521,4.418-3.748,8.552-6.193,12.521c-1.356,2.203-2.891,4.25-4.626,6.166
				c-0.695,0.768-1.473,1.533-2.305,2.154c-0.719,0.537-2.603,0.908-0.87,0.908c-3.39,0-6.78,0-10.171,0
				c-15.357,0-30.714,0-46.072,0c-6.287,0-12.574,0-18.861,0c-1.519,0-3.037,0-4.555,0c-0.253,0-0.507,0-0.76,0
				c2.737,0,1.51,0.175,0.118-0.582c-1.002-0.545-1.966-1.149-2.917-1.777c-3.567-2.355-6.23-6.035-8.632-9.488
				c-4.24-6.096-7.561-12.35-9.472-19.546c-3.642-13.713-1.681-28.693,0.427-42.486c1.368-8.947,2.4-18.219,5.308-26.82
				c2.631-7.784,7.193-14.925,12.03-21.506c6.283-8.547,13.956-15.964,21.875-22.97c4.691-4.15,8.335-9.974,11.928-15.053
				c2.261-3.197,4.975-5.948,3.743-10.074c-2.451-8.206-4.902-16.412-7.353-24.618c-3.046,1.284-6.092,2.568-9.139,3.853
				c3.944,5.835,7.889,11.669,11.833,17.504c2.16,3.195,8.386,3.455,9.139-1.194c0.944-5.834,1.889-11.669,2.834-17.504
				c-1.607,1.224-3.215,2.447-4.822,3.671c1.611,0,3.222,0,4.833,0c-1.607-1.224-3.214-2.447-4.821-3.671
				c1.167,3.269,2.333,6.538,3.5,9.807c1.008,2.824,4.512,4.95,7.345,2.988c3.656-2.531,7.313-5.062,10.968-7.593
				c0.766-0.529,1.53-1.059,2.296-1.589c2.239-1.551-2.471,0.058-1.025,0.058c2.079,0,4.159,0,6.238,0
				c-1.179-2.845-2.357-5.69-3.535-8.536c-7.356,8.463-14.712,16.926-22.067,25.39c-3.364,3.869,0.051,9.785,1.931,13.594
				c4.598,9.317,12.11,15.79,18.756,23.495c13.05,15.131,23.393,33.265,28.205,52.676c2.622,10.575,4.507,21.378,5.647,32.212
				C238.859,240.87,239.872,251.005,237.149,259.838c-1.905,6.18,7.749,8.801,9.643,2.658c4.161-13.496,1.57-29.242-0.449-42.881
				c-2.267-15.296-5.537-30.587-12.172-44.627c-6.026-12.755-14.287-25.191-23.629-35.789c-6.989-7.929-16.919-15.898-18.917-27.027
				c-0.429,1.622-0.857,3.243-1.286,4.865c7.39-8.501,14.778-17.003,22.167-25.504c2.778-3.196,1.055-8.536-3.535-8.536
				c-4.223,0-7.716-0.454-11.272,2.008c-4.084,2.827-8.167,5.654-12.251,8.481c2.448,0.996,4.896,1.992,7.345,2.988
				c-1.167-3.269-2.333-6.538-3.5-9.807c-0.756-2.119-2.471-3.671-4.821-3.671c-1.611,0-3.223,0-4.833,0
				c-2.041,0-4.471,1.508-4.821,3.671c-0.945,5.834-1.889,11.669-2.833,17.504c3.046-0.398,6.092-0.796,9.139-1.194
				c-3.944-5.835-7.889-11.669-11.833-17.504c-3.069-4.54-10.832-1.816-9.139,3.853c2.556,8.557,5.111,17.114,7.667,25.67
				c0.168-1.284,0.336-2.568,0.504-3.853c-4.125,6.189-8.351,12.948-13.782,18.076c-4.199,3.965-8.525,7.719-12.514,11.915
				c-7.374,7.756-13.992,16.376-19.11,25.787c-6.22,11.436-7.981,23.695-10.021,36.38c-2.206,13.725-4.036,27.781-2.159,41.653
				c1.814,13.415,7.724,24.752,16.01,35.32c3.382,4.313,10.426,11.313,16.378,11.313c3.997,0,7.994,0,11.991,0
				c18.818,0,37.635,0,56.454,0c4.308,0,9.606,0.842,13.811-0.428c5.56-1.68,9.556-7.027,12.75-11.532
				c3.678-5.186,6.6-11.126,8.666-17.132C248.896,256.382,239.234,253.778,237.149,259.838z"/>
		</g>
	</g>
	<g>
		<g id="Zuluft_9_">
			<g>
				<g>
					<path style="fill:#FFFFFF;" d="M183.626,193.745c6.236,2.601,12.473,5.2,18.709,7.801c1.001,0.418,1.788-0.601,1.898-1.446
						c0.872-6.7,1.743-13.4,2.615-20.101c0.153-1.176-1.371-1.806-2.257-1.295c-7.108,4.1-14.217,8.2-21.324,12.3
						c-1.675,0.966-0.165,3.559,1.514,2.59c7.108-4.1,14.217-8.199,21.324-12.3c-0.752-0.432-1.505-0.863-2.257-1.295
						c-0.872,6.7-1.743,13.4-2.615,20.101c0.633-0.482,1.266-0.964,1.898-1.446c-6.236-2.601-12.473-5.2-18.709-7.801
						C182.638,190.108,181.867,193.012,183.626,193.745z"/>
				</g>
			</g>
		</g>
		<path style="fill:none;stroke:#FFFFFF;stroke-width:3;stroke-miterlimit:10;" d="M192.221,166.681
			c1.688,0.453,2.529,2.572,3.067,3.505l5.835,10.115c0.537,0.932,0.218,2.125-0.715,2.664l-11.769,6.787
			c-0.933,0.538-2.126,0.218-2.663-0.715l-11.803-19.946c-0.538-0.933,0.7-2.744,1.876-2.356L192.221,166.681z"/>
		<path style="fill:none;stroke:#FFFFFF;stroke-width:3;stroke-miterlimit:10;" d="M178.188,184.039
			c0.47,1.682-0.924,3.486-1.453,4.425l-5.731,10.175c-0.528,0.938-1.717,1.27-2.656,0.741l-11.837-6.667
			c-0.938-0.529-1.27-1.719-0.742-2.656l11.149-20.319c0.529-0.938,2.718-0.796,2.984,0.414L178.188,184.039z"/>
	</g>
	<g>
		<g id="Zuluft_10_">
			<g>
				<g>
					<path style="fill:#FFFFFF;" d="M199.267,224.432c-5.366,4.106-10.731,8.213-16.097,12.32c-0.952,0.729-0.955,1.861,0,2.59
						c5.371,4.1,10.742,8.198,16.114,12.297c0.938,0.716,2.258-0.264,2.257-1.295c-0.006-8.206-0.012-16.411-0.018-24.617
						c-0.001-1.935-3.001-1.935-3,0c0.006,8.206,0.012,16.411,0.018,24.617c0.752-0.432,1.505-0.863,2.257-1.295
						c-5.371-4.1-10.742-8.198-16.114-12.297c0,0.863,0,1.727,0,2.59c5.366-4.106,10.731-8.213,16.097-12.32
						C202.295,225.863,200.803,223.255,199.267,224.432z"/>
				</g>
			</g>
		</g>
		<path style="fill:none;stroke:#FFFFFF;stroke-width:3;stroke-miterlimit:10;" d="M218.133,245.613
			c-1.234,1.236-3.491,0.908-4.568,0.908l-11.677,0.01c-1.076,0-1.95-0.872-1.951-1.949l-0.01-13.586
			c-0.001-1.076,0.872-1.95,1.948-1.951l23.176-0.275c1.076,0,2.027,1.977,1.105,2.803L218.133,245.613z"/>
		<path style="fill:none;stroke:#FFFFFF;stroke-width:3;stroke-miterlimit:10;" d="M209.096,224.523
			c-1.693-0.433-2.561-2.541-3.11-3.468l-5.957-10.044c-0.55-0.926-0.243-2.121,0.683-2.672l11.685-6.93
			c0.926-0.549,2.122-0.244,2.672,0.682l12.045,19.801c0.55,0.927-0.667,2.753-1.847,2.379L209.096,224.523z"/>
	</g>
	<g>
		<g id="Zuluft_11_">
			<g>
				<g>
					<path style="fill:#FFFFFF;" d="M164.274,222.945c-0.868-6.701-1.735-13.401-2.603-20.103c-0.11-0.847-0.898-1.863-1.899-1.446
						c-6.238,2.597-12.476,5.193-18.714,7.79c-1.131,0.471-1.592,2.028-0.358,2.741c7.105,4.104,14.211,8.209,21.316,12.313
						c1.679,0.97,3.188-1.623,1.515-2.59c-7.106-4.104-14.211-8.209-21.317-12.313c-0.119,0.914-0.239,1.827-0.358,2.741
						c6.238-2.597,12.476-5.193,18.714-7.79c-0.633-0.482-1.266-0.964-1.899-1.446c0.868,6.701,1.735,13.401,2.603,20.103
						C161.519,224.836,164.522,224.86,164.274,222.945z"/>
				</g>
			</g>
		</g>
		<path style="fill:none;stroke:#FFFFFF;stroke-width:3;stroke-miterlimit:10;" d="M136.491,228.661
			c-0.452-1.688,0.962-3.478,1.501-4.409l5.841-10.111c0.538-0.932,1.731-1.252,2.664-0.713l11.764,6.795
			c0.932,0.538,1.252,1.73,0.713,2.663l-11.368,20.198c-0.539,0.932-2.726,0.766-2.979-0.447L136.491,228.661z"/>
		<path style="fill:none;stroke:#FFFFFF;stroke-width:3;stroke-miterlimit:10;" d="M159.541,230.398
			c1.222-1.248,3.482-0.943,4.559-0.955l11.676-0.127c1.077-0.012,1.959,0.853,1.971,1.93l0.147,13.584
			c0.011,1.077-0.853,1.959-1.929,1.971l-23.171,0.51c-1.077,0.012-2.049-1.955-1.134-2.791L159.541,230.398z"/>
	</g>
	<path style="fill:#FFFFFF;" d="M196.93,118.271c0,2.612-2.117,4.729-4.729,4.729h-26.122c-2.611,0-4.729-2.118-4.729-4.729v-3.153
		c0-2.612,2.118-4.729,4.729-4.729H192.2c2.612,0,4.729,2.118,4.729,4.729V118.271z"/>
</g>
<g id="Ebene_1">
</g>
</svg>
