<?xml version="1.0" encoding="iso-8859-1"?>
<!-- Generator: Adobe Illustrator 16.0.0, SVG Export Plug-In . SVG Version: 6.00 Build 0)  -->
<!DOCTYPE svg PUBLIC "-//W3C//DTD SVG 1.1//EN" "http://www.w3.org/Graphics/SVG/1.1/DTD/svg11.dtd">
<svg version="1.1" xmlns="http://www.w3.org/2000/svg" xmlns:xlink="http://www.w3.org/1999/xlink" x="0px" y="0px" width="361px"
	 height="361px" viewBox="0 0 361 361" style="enable-background:new 0 0 361 361;" xml:space="preserve">
<g id="message_x5F_postbox_x5F_mail">
	<path style="fill:none;stroke:#FFFFFF;stroke-width:10;stroke-miterlimit:10;" d="M282.436,281.116
		c0,3.314-2.688,6.001-6.001,6.001H85.75c-3.314,0-6-2.687-6-6.001V170.705c0-3.314,2.687-6,6-6h190.685
		c3.313,0,6.001,2.686,6.001,6V281.116z"/>
	<g>
		<g>
			<g>
				<path style="fill:#FFFFFF;" d="M124.828,151.971c-11.729,0-23.457,0-35.186,0c-1.773,0-9.375,1.245-9.375-1.667
					c0-6.379,0-12.759,0-19.138c0-3.145-1.305-7.707,2.76-7.707c5.801,0,11.601,0,17.401,0c11.241,0,22.481,0,33.722,0
					c6.449,0,6.449-10,0-10c-12.188,0-24.375,0-36.563,0c-5.227,0-10.453,0-15.679,0c-7.846,0-11.642,6.282-11.642,13.361
					c0,7.065,0,14.13,0,21.196c0,7.141,3.298,13.956,11.519,13.956c13.053,0,26.106,0,39.159,0c1.294,0,2.589,0,3.883,0
					C131.276,161.971,131.276,151.971,124.828,151.971L124.828,151.971z"/>
			</g>
		</g>
		<g>
			<g>
				<path style="fill:#FFFFFF;" d="M237.096,123.458c12.41,0,24.821,0,37.231,0c1.852,0,3.702,0,5.554,0
					c2.037,0,1.518,2.624,1.518,3.956c0,7.065,0,14.13,0,21.196c0,4.19-2.522,3.361-6.034,3.361c-6.806,0-13.611,0-20.417,0
					c-12.596,0-25.192,0-37.788,0c-0.109,0-0.218,0-0.327,0c-6.448,0-6.448,10,0,10c11.385,0,22.77,0,34.154,0
					c7.309,0,14.616,0,21.924,0c4.566,0,9.098,0.507,13.256-1.75c6.576-3.568,5.232-12.469,5.232-18.657
					c0-5.978,0.474-12.161-0.127-18.115c-0.827-8.208-8.184-9.991-14.984-9.991c-7.369,0-14.738,0-22.107,0
					c-5.695,0-11.39,0-17.084,0C230.647,113.458,230.647,123.458,237.096,123.458L237.096,123.458z"/>
			</g>
		</g>
	</g>
	<g>
		<g>
			<path style="fill:#FFFFFF;" d="M186.391,196.28c-0.208,3.463-2.295,4.113-5.169,4.113c-3.025,0-5.481-0.285-5.71-4.113
				c-0.209-3.481,2.52-4.113,5.169-4.113C183.705,192.167,186.161,192.452,186.391,196.28c0.115,1.922,3.116,1.934,3,0
				c-0.135-2.251-0.86-4.666-2.833-6.004c-1.696-1.15-3.38-1.109-5.336-1.109c-1.895,0-3.554-0.094-5.313,0.727
				c-2.356,1.099-3.256,4.03-3.397,6.387c-0.13,2.163,1.023,4.777,2.833,6.004c1.697,1.15,3.38,1.109,5.336,1.109
				c1.895,0,3.554,0.094,5.313-0.727c2.356-1.099,3.256-4.03,3.397-6.387C189.507,194.347,186.506,194.358,186.391,196.28z"/>
		</g>
	</g>
	<g>
		<path style="fill:none;stroke:#FFFFFF;stroke-width:10;stroke-miterlimit:10;" d="M132.27,164.706l-18.166-29.403
			c-0.928-1.502-0.449-3.482,1.071-4.421l90.567-55.955c1.52-0.939,3.505-0.483,4.433,1.02l34.907,56.5
			c0.928,1.502,0.449,3.481-1.071,4.421l-46.302,28.606"/>
		<g>
			<g>
				<path style="fill:#FFFFFF;" d="M203.42,71.96c-9.766,19.207-19.531,38.414-29.297,57.621c1.439-0.826,2.878-1.651,4.317-2.477
					c-21.547,0.139-43.093,0.277-64.64,0.416c0.841,3.106,1.683,6.211,2.523,9.317c31.313-19.346,62.625-38.691,93.937-58.037
					c5.474-3.382,0.455-12.034-5.047-8.635c-31.313,19.346-62.625,38.691-93.937,58.037c-4.169,2.576-2.551,9.35,2.523,9.317
					c21.547-0.139,43.093-0.277,64.64-0.416c1.684-0.011,3.529-0.926,4.317-2.477c9.766-19.207,19.531-38.414,29.297-57.621
					C214.971,71.273,206.344,66.21,203.42,71.96z"/>
			</g>
		</g>
	</g>
</g>
<g id="Ebene_1">
</g>
</svg>
