<?xml version="1.0" encoding="iso-8859-1"?>
<!-- Generator: Adobe Illustrator 16.0.0, SVG Export Plug-In . SVG Version: 6.00 Build 0)  -->
<!DOCTYPE svg PUBLIC "-//W3C//DTD SVG 1.1//EN" "http://www.w3.org/Graphics/SVG/1.1/DTD/svg11.dtd">
<svg version="1.1" xmlns="http://www.w3.org/2000/svg" xmlns:xlink="http://www.w3.org/1999/xlink" x="0px" y="0px" width="361px"
	 height="361px" viewBox="0 0 361 361" style="enable-background:new 0 0 361 361;" xml:space="preserve">
<g id="message_x5F_garbage_x5F_4">
	<circle style="fill:none;stroke:#FFFFFF;stroke-width:10;stroke-miterlimit:10;" cx="140.589" cy="267.667" r="19"/>
	<path style="fill:none;stroke:#FFFFFF;stroke-width:10;stroke-miterlimit:10;" d="M136.499,94.8c0,0,1.333,115.117,2.273,140.405
		c0.02,0.52,1.042,0.961,1.567,0.961c17.535,0,31.75,14.215,31.75,31.75c0,7.076-0.952,18.922,3.77,18.888
		c18.807-0.137,52.641,0,52.641,0c2.761,0,5-2.239,5-5l5-187.004H136.499z"/>
	<circle style="fill:none;stroke:#FFFFFF;stroke-width:9;stroke-miterlimit:10;" cx="111.749" cy="80.667" r="1.417"/>
	
		<line style="fill:none;stroke:#FFFFFF;stroke-width:10;stroke-linecap:round;stroke-miterlimit:10;" x1="111.749" y1="80.667" x2="244.082" y2="80.667"/>
	
		<line style="fill:none;stroke:#FFFFFF;stroke-width:10;stroke-linecap:round;stroke-miterlimit:10;" x1="223.75" y1="75" x2="140.673" y2="75"/>
	
		<line style="fill:none;stroke:#FFFFFF;stroke-width:10;stroke-linecap:round;stroke-miterlimit:10;" x1="131.832" y1="91.417" x2="243.833" y2="91.417"/>
	
		<line style="fill:none;stroke:#FFFFFF;stroke-width:10;stroke-linecap:round;stroke-miterlimit:10;" x1="111.749" y1="80.667" x2="136.678" y2="109.669"/>
</g>
<g id="Ebene_1">
</g>
</svg>
