<?xml version="1.0" encoding="iso-8859-1"?>
<!-- Generator: Adobe Illustrator 16.0.0, SVG Export Plug-In . SVG Version: 6.00 Build 0)  -->
<!DOCTYPE svg PUBLIC "-//W3C//DTD SVG 1.1//EN" "http://www.w3.org/Graphics/SVG/1.1/DTD/svg11.dtd">
<svg version="1.1" xmlns="http://www.w3.org/2000/svg" xmlns:xlink="http://www.w3.org/1999/xlink" x="0px" y="0px" width="361px"
	 height="361px" viewBox="0 0 361 361" style="enable-background:new 0 0 361 361;" xml:space="preserve">
<g id="message_x5F_garbage">
	<g>
		<g>
			<path style="fill:#FFFFFF;" d="M226.554,277.086c-24.971,0-49.942,0-74.914,0c-4.93,0-9.86,0-14.79,0c-0.76,0-1.521,0-2.281,0
				c4.163,0,6.204,2.735,6.996,5.223c-0.043-0.136-0.072-0.276-0.104-0.415c-0.118-0.518-0.194-1.046-0.274-1.571
				c-0.326-2.138,0.006,0.155-0.06-0.37c-0.108-0.869-0.206-1.74-0.303-2.61c-0.27-2.434-0.508-4.871-0.741-7.31
				c-0.609-6.37-1.147-12.748-1.675-19.125c-2.489-30.083-4.63-60.195-6.738-90.307c-0.272-3.883-0.542-7.766-0.81-11.649
				c-0.05-0.725-0.1-1.449-0.149-2.173c-0.206-3.006-6.271,0.724-3.41,0.724c10.267,0,20.534,0,30.801,0c25.352,0,50.705,0,76.057,0
				c0.243,0-3.672-3.741-3.86-0.974c-0.011,0.149-0.021,0.299-0.031,0.449c-0.071,1.042-0.143,2.083-0.215,3.125
				c-0.299,4.334-0.602,8.668-0.905,13.001c-1.017,14.498-2.058,28.994-3.13,43.488c-1.256,16.981-2.542,33.962-3.988,50.929
				c-0.519,6.077-1.055,12.153-1.691,18.22c-0.115,1.098-0.237,2.195-0.366,3.292c-0.082,0.702-0.525,3.915-0.105,0.961
				c-0.08,0.565-0.171,1.129-0.28,1.689c-0.398,2.032,1.236-2.008,1.609-2.379c1.13-0.656,2.261-1.313,3.391-1.969
				c-0.009,0.003-0.018,0.006-0.027,0.01c-9.086,3.145-5.267,17.655,3.883,14.488c8.209-2.841,7.016-16.8,7.666-23.774
				c1.35-14.481,2.463-28.986,3.571-43.488c1.946-25.456,3.766-50.922,5.518-76.393c0.43-6.254-1.952-13.882-8.809-15.411
				c-2.662-0.594-5.629-0.267-8.324-0.267c-13.513,0-27.026,0-40.539,0c-15.289,0-30.577,0-45.865,0c-4.348,0-8.695,0-13.042,0
				c-7.365,0-12.379,4.915-12.831,12.513c-0.408,6.86,0.777,14.041,1.258,20.876c1.048,14.891,2.121,29.779,3.229,44.666
				c1.166,15.66,2.361,31.319,3.695,46.966c0.792,9.294,1.169,18.91,2.967,28.083c1.43,7.294,8.73,6.487,14.326,6.487
				c10.407,0,20.814,0,31.221,0c17.988,0,35.976,0,53.964,0C236.132,292.09,236.218,277.086,226.554,277.086z"/>
		</g>
	</g>
	<path style="fill:none;stroke:#FFFFFF;stroke-width:8.1506;stroke-miterlimit:10;" d="M204.777,93.603
		c0.36,1.789-1.004,3.572-3.05,3.983l-39.894,8.028c-2.043,0.411-3.993-0.706-4.353-2.494l-3.259-16.196
		c-0.36-1.788,1.005-3.572,3.049-3.983l39.894-8.028c2.043-0.411,3.992,0.706,4.353,2.494L204.777,93.603z"/>
	<path style="fill:none;stroke:#FFFFFF;stroke-width:10;stroke-miterlimit:10;" d="M173.003,202.639"/>
	<path style="fill:none;stroke:#FFFFFF;stroke-width:10;stroke-miterlimit:10;" d="M186.768,188.875"/>
	<path style="fill:none;stroke:#FFFFFF;stroke-width:10;stroke-miterlimit:10;" d="M173.003,188.875"/>
	<g>
		<g>
			<path style="fill:#FFFFFF;" d="M124.423,118.953c38.926-8.156,77.852-16.312,116.776-24.468
				c9.662-2.024,5.653-16.783-3.957-14.77c-38.926,8.156-77.851,16.312-116.776,24.468
				C110.804,106.208,114.813,120.966,124.423,118.953L124.423,118.953z"/>
		</g>
	</g>
	<g>
		<g>
			<path style="fill:#FFFFFF;" d="M172.946,162.501c0.111,33.709,0.222,67.418,0.333,101.128c0.032,9.685,15.035,9.772,15.003,0.107
				c-0.111-33.709-0.223-67.418-0.333-101.127C187.917,152.925,172.914,152.837,172.946,162.501L172.946,162.501z"/>
		</g>
	</g>
	<g>
		<g>
			<path style="fill:#FFFFFF;" d="M203.664,162.501c-1.055,33.709-2.109,67.418-3.164,101.128
				c-0.303,9.693,14.702,9.75,15.004,0.107c1.055-33.709,2.109-67.418,3.164-101.127
				C218.971,152.916,203.966,152.86,203.664,162.501L203.664,162.501z"/>
		</g>
	</g>
	<g>
		<g>
			<path style="fill:#FFFFFF;" d="M142.665,162.501c1.131,33.709,2.262,67.418,3.393,101.128c0.324,9.657,15.328,9.773,15.003,0.107
				c-1.131-33.709-2.262-67.418-3.393-101.127C157.344,152.952,142.34,152.836,142.665,162.501L142.665,162.501z"/>
		</g>
	</g>
</g>
<g id="Ebene_1">
</g>
</svg>
