<?xml version="1.0" encoding="iso-8859-1"?>
<!-- Generator: Adobe Illustrator 16.0.0, SVG Export Plug-In . SVG Version: 6.00 Build 0)  -->
<!DOCTYPE svg PUBLIC "-//W3C//DTD SVG 1.1//EN" "http://www.w3.org/Graphics/SVG/1.1/DTD/svg11.dtd">
<svg version="1.1" xmlns="http://www.w3.org/2000/svg" xmlns:xlink="http://www.w3.org/1999/xlink" x="0px" y="0px" width="361px"
	 height="361px" viewBox="0 0 361 361" style="enable-background:new 0 0 361 361;" xml:space="preserve">
<g id="message_x5F_bell_x5F_door_x5F_disabled">
	<g>
		<g>
			<g>
				<path style="fill:#FFFFFF;" d="M276.033,227.524c-0.264,21.84-14.327,41.07-35.273,47.551
					c-20.997,6.497-44.063-2.393-55.993-20.611c-12.03-18.37-9.941-43.151,4.399-59.6c14.372-16.485,38.711-21.485,58.468-12.16
					C264.969,190.887,275.804,208.495,276.033,227.524c0.117,9.678,15.12,9.774,15.004,0.107
					c-0.285-23.601-12.93-45.152-33.556-56.708c-20.663-11.576-46.938-10.132-66.614,2.754
					c-19.622,12.85-30.717,36.129-28.741,59.425c1.966,23.186,16.774,44.003,38.044,53.442c20.025,8.888,43.533,6.932,61.856-5.067
					c18.09-11.847,28.75-32.366,29.01-53.847C291.154,217.94,276.15,217.866,276.033,227.524z"/>
			</g>
		</g>
		<g>
			<g>
				<path style="fill:#FFFFFF;" d="M191.411,273.221c26.912-26.912,53.824-53.824,80.737-80.736
					c6.835-6.835-3.813-17.403-10.666-10.551c-26.912,26.912-53.824,53.824-80.737,80.736
					C173.91,269.505,184.558,280.073,191.411,273.221L191.411,273.221z"/>
			</g>
		</g>
	</g>
	<g style="display:none;">
		<g style="display:inline;">
			<g>
				<path style="fill:#FFFFFF;" d="M276.033,227.524c-0.264,21.84-14.327,41.07-35.273,47.551
					c-20.997,6.497-44.063-2.393-55.993-20.611c-12.03-18.37-9.941-43.151,4.399-59.6c14.372-16.485,38.711-21.485,58.468-12.16
					C264.969,190.887,275.804,208.495,276.033,227.524c0.117,9.678,15.12,9.774,15.004,0.107
					c-0.285-23.601-12.93-45.152-33.556-56.708c-20.663-11.576-46.938-10.132-66.614,2.754
					c-19.622,12.85-30.717,36.129-28.741,59.425c1.966,23.186,16.774,44.003,38.044,53.442c20.025,8.888,43.533,6.932,61.856-5.067
					c18.09-11.847,28.75-32.366,29.01-53.847C291.154,217.94,276.15,217.866,276.033,227.524z"/>
			</g>
		</g>
		<g style="display:inline;">
			<g>
				<path style="fill:#FFFFFF;" d="M191.411,273.221c26.912-26.912,53.824-53.824,80.737-80.736
					c6.835-6.835-3.813-17.403-10.666-10.551c-26.912,26.912-53.824,53.824-80.737,80.736
					C173.91,269.505,184.558,280.073,191.411,273.221L191.411,273.221z"/>
			</g>
		</g>
	</g>
	<g>
		<g>
			<path style="fill:#FFFFFF;" d="M106.147,125.746c-24.31,24.903-24.31,64.6,0,89.502c3.158,3.234,8.104-1.719,4.95-4.949
				c-21.646-22.174-21.646-57.429,0-79.603C114.251,127.465,109.305,122.512,106.147,125.746L106.147,125.746z"/>
		</g>
	</g>
	<g>
		<g>
			<path style="fill:#FFFFFF;" d="M94.006,114.561c-30.503,31.089-30.501,81.123,0.001,112.211c3.166,3.227,8.112-1.727,4.95-4.949
				c-27.838-28.372-27.839-73.939-0.001-102.312C102.119,116.287,97.172,111.334,94.006,114.561L94.006,114.561z"/>
		</g>
	</g>
	<g>
		<g>
			<path style="fill:#FFFFFF;" d="M271.92,188.337c6.111-22.287,0.022-45.71-16.093-62.253c-3.154-3.238-8.1,1.716-4.949,4.95
				c14.395,14.776,19.746,35.551,14.292,55.441C263.975,190.837,270.728,192.685,271.92,188.337L271.92,188.337z"/>
		</g>
	</g>
	<g>
		<g>
			<path style="fill:#FFFFFF;" d="M283.183,205.479c14.458-30.599,8.509-66.715-15.215-90.919c-3.163-3.228-8.11,1.725-4.949,4.95
				c21.391,21.824,27.216,54.719,14.119,82.436C275.221,206.004,281.255,209.559,283.183,205.479L283.183,205.479z"/>
		</g>
	</g>
	<g>
		<g>
			<path style="fill:#FFFFFF;" d="M171.583,203.578c-5.626,0-20.29,2.836-20.061-5.738c0.193-7.236,3.955-15.095,6.399-21.786
				c2.641-7.227,5.437-14.542,6.459-22.211c0.677-5.079,3.232-9.919,5.996-14.16c1.973-3.028,2.672-3.024,6.208-3.024
				c2.887,0,9.745-1.176,11.716,0.612c3.671,3.332,5.979,9.166,7.399,13.79c0.883,2.87,1.05,5.973,1.74,8.901
				c1.116,4.733,2.828,9.335,4.479,13.901c1.522,4.21,8.289,2.394,6.75-1.861c-1.855-5.13-3.623-10.269-4.876-15.584
				c-0.812-3.439-1.08-6.749-2.321-10.079c-2.083-5.586-5.322-12.832-10.753-15.918c-3.298-1.875-8.661-0.76-12.265-0.76
				c-3.387,0-6.879-0.583-9.735,1.553c-5.198,3.886-8.215,11.134-10.25,17.085c-1.153,3.373-1.336,7.046-2.196,10.505
				c-1.17,4.705-2.878,9.281-4.532,13.832c-1.679,4.621-3.379,9.228-4.823,13.929c-1.267,4.124-2.971,9.334-2.311,13.693
				c1.989,13.144,17.38,10.321,26.975,10.321C176.097,210.578,176.097,203.578,171.583,203.578L171.583,203.578z"/>
		</g>
	</g>
	<path style="fill:none;stroke:#FFFFFF;stroke-width:10;stroke-miterlimit:10;" d="M232.578,282.916
		c-0.74,2.555-3.063,4.418-5.812,4.418h-92.89c-3.346,0-6.058-2.76-6.058-6.167V81.071c0-3.406,2.712-6.167,6.058-6.167h92.89
		c3.346,0,6.058,2.761,6.058,6.167v92.096"/>
	<g>
		<g>
			<path style="fill:#FFFFFF;" d="M129.818,185.922c3.333,0,6.667,0,10,0c6.449,0,6.449-10,0-10c-3.333,0-6.667,0-10,0
				C123.37,175.922,123.37,185.922,129.818,185.922L129.818,185.922z"/>
		</g>
	</g>
	<path style="fill:none;stroke:#FFFFFF;stroke-width:10;stroke-miterlimit:10;" d="M191.083,274.256h-57.265c-3.313,0-6,2.686-6,6
		v0.666c0,3.313,2.687,6,6,6h72.014h19.32c3.313,0,6-2.687,6-6"/>
	<g>
		<g>
			<path style="fill:#FFFFFF;" d="M129.822,186.332c3.338,0,6.676,0,10.014,0c4.514,0,4.514-7,0-7c-3.338,0-6.676,0-10.014,0
				C125.308,179.332,125.308,186.332,129.822,186.332L129.822,186.332z"/>
		</g>
	</g>
</g>
<g id="Ebene_1">
</g>
</svg>
