<?xml version="1.0" encoding="iso-8859-1"?>
<!-- Generator: Adobe Illustrator 16.0.0, SVG Export Plug-In . SVG Version: 6.00 Build 0)  -->
<!DOCTYPE svg PUBLIC "-//W3C//DTD SVG 1.1 Tiny//EN" "http://www.w3.org/Graphics/SVG/1.1/DTD/svg11-tiny.dtd">
<svg version="1.1" baseProfile="tiny" id="message_x5F_mail_x5F_open"
	 xmlns="http://www.w3.org/2000/svg" xmlns:xlink="http://www.w3.org/1999/xlink" x="0px" y="0px" width="361px" height="361px"
	 viewBox="0 0 361 361" xml:space="preserve">
<path fill="none" stroke="#FFFFFF" stroke-width="10" stroke-miterlimit="10" d="M284.463,269.483c0,3.313-2.718,6-6.071,6H78.638
	c-3.353,0-6.071-2.687-6.071-6V144.866c0-3.313,2.718-6,6.071-6h199.754c3.353,0,6.071,2.687,6.071,6V269.483z"/>
<g>
	<path fill="#FFFFFF" d="M284.539,135.895c-34.531-21.028-69.063-42.057-103.594-63.085c-1.499-0.913-3.548-0.913-5.047,0
		c-34.532,21.028-69.064,42.057-103.596,63.085c-4.217,2.568-2.516,9.317,2.523,9.317c48.95,0,97.9,0,146.85,0
		c20.113,0,40.226,0,60.339,0c6.449,0,6.449-10,0-10c-48.95,0-97.9,0-146.85,0c-20.113,0-40.226,0-60.339,0
		c0.841,3.106,1.683,6.211,2.523,9.317c34.532-21.028,69.064-42.057,103.596-63.085c-1.682,0-3.365,0-5.047,0
		c34.531,21.028,69.063,42.057,103.594,63.085C285.016,147.893,290.037,139.242,284.539,135.895z"/>
</g>
<g>
	<polygon fill="#FFFFFF" points="282.016,140.127 178.422,203.212 74.826,140.127 	"/>
	<g>
		<path fill="#FFFFFF" d="M279.492,135.81c-34.531,21.028-69.063,42.057-103.594,63.085c1.682,0,3.365,0,5.047,0
			c-34.532-21.028-69.063-42.057-103.596-63.085c-0.841,3.106-1.682,6.211-2.523,9.317c48.95,0,97.9,0,146.85,0
			c20.113,0,40.226,0,60.339,0c6.449,0,6.449-10,0-10c-48.95,0-97.9,0-146.85,0c-20.113,0-40.226,0-60.339,0
			c-5.039,0-6.741,6.75-2.523,9.317c34.532,21.028,69.063,42.057,103.596,63.085c1.499,0.913,3.548,0.913,5.047,0
			c34.531-21.028,69.063-42.057,103.594-63.085C290.037,141.097,285.016,132.446,279.492,135.81z"/>
	</g>
</g>
</svg>
