<?xml version="1.0" encoding="iso-8859-1"?>
<!-- Generator: Adobe Illustrator 16.0.0, SVG Export Plug-In . SVG Version: 6.00 Build 0)  -->
<!DOCTYPE svg PUBLIC "-//W3C//DTD SVG 1.1//EN" "http://www.w3.org/Graphics/SVG/1.1/DTD/svg11.dtd">
<svg version="1.1" xmlns="http://www.w3.org/2000/svg" xmlns:xlink="http://www.w3.org/1999/xlink" x="0px" y="0px" width="361px"
	 height="361px" viewBox="0 0 361 361" style="enable-background:new 0 0 361 361;" xml:space="preserve">
<g id="message_x5F_mail_x5F_open">
	<path style="fill:none;stroke:#FFFFFF;stroke-width:10;stroke-miterlimit:10;" d="M286.98,266.605c0,3.313-2.717,6-6.07,6H81.156
		c-3.353,0-6.071-2.688-6.071-6V141.988c0-3.313,2.718-6,6.071-6H280.91c3.354,0,6.07,2.687,6.07,6V266.605z"/>
	<g>
		<g>
			<path style="fill:#FFFFFF;" d="M287.057,133.017c-34.531-21.028-69.063-42.057-103.593-63.085c-1.499-0.913-3.548-0.913-5.047,0
				c-34.532,21.028-69.064,42.057-103.596,63.085c-4.217,2.568-2.516,9.317,2.523,9.317c48.95,0,97.9,0,146.849,0
				c20.113,0,40.227,0,60.34,0c6.448,0,6.448-10,0-10c-48.95,0-97.899,0-146.85,0c-20.113,0-40.226,0-60.339,0
				c0.841,3.106,1.683,6.211,2.523,9.317c34.532-21.028,69.064-42.057,103.596-63.085c-1.683,0-3.365,0-5.047,0
				c34.531,21.028,69.062,42.057,103.593,63.085C287.533,145.015,292.555,136.364,287.057,133.017z"/>
		</g>
	</g>
	<g>
		<polygon style="fill:#FFFFFF;" points="284.533,137.249 180.94,200.334 77.344,137.249 		"/>
		<g>
			<path style="fill:#FFFFFF;" d="M282.01,132.932c-34.531,21.028-69.063,42.057-103.593,63.085c1.682,0,3.365,0,5.047,0
				c-34.532-21.028-69.064-42.057-103.596-63.085c-0.841,3.106-1.682,6.211-2.523,9.317c48.95,0,97.9,0,146.849,0
				c20.113,0,40.227,0,60.34,0c6.448,0,6.448-10,0-10c-48.95,0-97.899,0-146.85,0c-20.113,0-40.226,0-60.339,0
				c-5.039,0-6.741,6.75-2.523,9.317c34.532,21.028,69.063,42.057,103.596,63.085c1.499,0.913,3.548,0.913,5.047,0
				c34.53-21.028,69.062-42.057,103.593-63.085C292.555,138.219,287.533,129.568,282.01,132.932z"/>
		</g>
	</g>
</g>
<g id="Ebene_1">
</g>
</svg>
