<?xml version="1.0" encoding="iso-8859-1"?>
<!-- Generator: Adobe Illustrator 16.0.0, SVG Export Plug-In . SVG Version: 6.00 Build 0)  -->
<!DOCTYPE svg PUBLIC "-//W3C//DTD SVG 1.1//EN" "http://www.w3.org/Graphics/SVG/1.1/DTD/svg11.dtd">
<svg version="1.1" xmlns="http://www.w3.org/2000/svg" xmlns:xlink="http://www.w3.org/1999/xlink" x="0px" y="0px" width="361px"
	 height="361px" viewBox="0 0 361 361" style="enable-background:new 0 0 361 361;" xml:space="preserve">
<g id="message_x5F_service">
	<path style="fill:none;stroke:#FFFFFF;stroke-width:10;stroke-miterlimit:10;" d="M158.492,198.563
		c0-2.918-2.366-5.283-5.284-5.283h-14.09c-2.918,0-5.284,2.365-5.284,5.283v82.488c0,2.918,2.366,5.283,5.284,5.283h14.09
		c2.918,0,5.284-2.365,5.284-5.283V198.563z"/>
	<g>
		<g>
			<path style="fill:#FFFFFF;" d="M140.501,95.667c0,31.222,0,62.445,0,93.667c0,6.448,10,6.448,10,0c0-31.222,0-62.445,0-93.667
				C150.501,89.218,140.501,89.218,140.501,95.667L140.501,95.667z"/>
		</g>
	</g>
	<path style="fill:#FFFFFF;" d="M153.242,97.4c0,3.829-3.104,6.934-6.933,6.934h-1.541c-3.829,0-6.934-3.104-6.934-6.934v-20.8
		c0-3.829,3.104-6.934,6.934-6.934h1.541c3.829,0,6.933,3.104,6.933,6.934V97.4z"/>
	<path style="fill:#FFFFFF;stroke:#FFFFFF;stroke-width:10;stroke-miterlimit:10;" d="M224.709,144.381
		c-2.344,2.343-6.143,2.343-8.485,0l-28.991-28.991c-2.344-2.343-2.344-6.142,0-8.485l6.363-6.364c2.344-2.343,6.143-2.343,8.486,0
		l28.99,28.991c2.344,2.343,2.344,6.143,0,8.485L224.709,144.381z"/>
	<g>
		<g>
			<path style="fill:#FFFFFF;" d="M216.695,70.842c-10.686,10.686-21.37,21.371-32.055,32.056c-4.564,4.564,2.507,11.635,7.07,7.071
				c10.686-10.686,21.37-21.371,32.055-32.056C228.33,73.35,221.259,66.279,216.695,70.842L216.695,70.842z"/>
		</g>
	</g>
	<g>
		<g>
			<path style="fill:#FFFFFF;" d="M252.328,110.163c-9.128,9.128-18.256,18.256-27.383,27.384c-4.564,4.564,2.507,11.635,7.07,7.071
				c9.128-9.128,18.256-18.256,27.383-27.384C263.963,112.67,256.892,105.599,252.328,110.163L252.328,110.163z"/>
		</g>
	</g>
	<path style="fill:none;stroke:#FFFFFF;stroke-width:10;stroke-miterlimit:10;" d="M232.354,279.443c0,3.656-1.988,6.621-4.44,6.621
		h-14.306c-2.452,0-4.439-2.965-4.439-6.621V139.29c0-3.658,1.987-6.622,4.439-6.622h14.306c2.452,0,4.44,2.964,4.44,6.622V279.443z
		"/>
	<path style="fill:none;stroke:#FFFFFF;stroke-width:10;stroke-miterlimit:10;" d="M229.883,272.525
		c0-3.787-3.071-6.857-6.858-6.857h-5.333c-3.786,0-6.857,3.07-6.857,6.857v4.952c0,3.786,3.071,6.856,6.857,6.856h5.333
		c3.787,0,6.858-3.07,6.858-6.856V272.525z"/>
	
		<line style="fill:none;stroke:#FFFFFF;stroke-width:10;stroke-miterlimit:10;" x1="209.833" y1="146.917" x2="229.833" y2="146.917"/>
</g>
<g id="Ebene_1">
</g>
</svg>
