<?xml version="1.0" encoding="iso-8859-1"?>
<!-- Generator: Adobe Illustrator 16.0.0, SVG Export Plug-In . SVG Version: 6.00 Build 0)  -->
<!DOCTYPE svg PUBLIC "-//W3C//DTD SVG 1.1 Tiny//EN" "http://www.w3.org/Graphics/SVG/1.1/DTD/svg11-tiny.dtd">
<svg version="1.1" baseProfile="tiny" id="message_x5F_socket_x5F_ch"
	 xmlns="http://www.w3.org/2000/svg" xmlns:xlink="http://www.w3.org/1999/xlink" x="0px" y="0px" width="361px" height="361px"
	 viewBox="0 0 361 361" xml:space="preserve">
<path fill="none" stroke="#FFFFFF" stroke-width="10" stroke-miterlimit="10" d="M284.464,284.141c0,3.127-2.762,5.663-6.169,5.663
	H78.494c-3.407,0-6.169-2.535-6.169-5.663V83.326c0-3.127,2.762-5.662,6.169-5.662h199.801c3.407,0,6.169,2.535,6.169,5.662V284.141
	z"/>
<path fill="none" stroke="#FFFFFF" stroke-width="10" stroke-miterlimit="10" d="M149.565,187.645c0,0.144-0.127,0.26-0.284,0.26
	h-9.195c-0.157,0-0.284-0.117-0.284-0.26v-9.243c0-0.144,0.127-0.26,0.284-0.26h9.195c0.157,0,0.284,0.117,0.284,0.26V187.645z"/>
<path fill="none" stroke="#FFFFFF" stroke-width="10" stroke-miterlimit="10" d="M217.565,187.645c0,0.144-0.127,0.26-0.284,0.26
	h-9.195c-0.157,0-0.284-0.117-0.284-0.26v-9.243c0-0.144,0.127-0.26,0.284-0.26h9.195c0.157,0,0.284,0.117,0.284,0.26V187.645z"/>
<path fill="none" stroke="#FFFFFF" stroke-width="10" stroke-miterlimit="10" d="M183.276,207.048c0,0.144-0.127,0.26-0.284,0.26
	h-9.195c-0.157,0-0.284-0.117-0.284-0.26v-9.243c0-0.144,0.127-0.26,0.284-0.26h9.195c0.157,0,0.284,0.117,0.284,0.26V207.048z"/>
<g>
	<path fill="#FFFFFF" d="M224.411,218.023c-24.954,0-49.908,0-74.863,0c-5.052,0-10.105,0-15.158,0c-0.858,0-1.716,0-2.573,0
		c0.432,0,2.222,0.823,0.92,0.033c-0.788-0.478-1.219-0.882-2.331-1.855c-11.105-9.719-20.728-21.421-30.389-32.538
		c-1.08-1.242-2.156-2.486-3.226-3.737c0,2.357,0,4.714,0,7.071c7.863-9.4,15.909-18.67,24.257-27.643
		c3.656-3.93,8.357-9.531,12.32-11.72c-1.32,0.729-2.166,0.39-0.239,0.39c1.8,0,3.601,0,5.401,0c27.494,0,54.987,0,82.48,0
		c1.017,0,2.033,0,3.049,0c0.589,0,0.521,0.181-0.572-0.104c-1.794-0.467,0.832,0.744,0.391,0.393
		c4.874,3.882,9.068,8.764,13.253,13.35c7.636,8.369,15.018,16.985,22.248,25.707c0-2.357,0-4.714,0-7.071
		c-5.275,6.111-10.655,12.134-16.105,18.089c-4.202,4.59-8.465,9.129-12.889,13.507c-1.629,1.612-3.297,3.187-5.027,4.691
		c-0.842,0.732-0.734,0.66-1.548,1.231C222.491,218.74,223.065,218.156,224.411,218.023c-6.356,0.625-6.417,10.631,0,10
		c4.1-0.403,7.208-3.571,10.104-6.238c4.569-4.208,8.822-8.772,13.051-13.315c6.43-6.908,12.718-13.957,18.885-21.101
		c1.91-2.213,1.839-4.852,0-7.071c-7.862-9.485-15.907-18.839-24.257-27.897c-4.221-4.58-8.541-9.527-13.737-13.04
		c-2.404-1.625-5.13-1.337-7.863-1.337c-27.535,0-55.07,0-82.604,0c-2.438,0-5.837-0.553-8.205,0.345
		c-5.464,2.072-9.933,7.727-13.843,11.829c-9.111,9.557-17.749,19.602-26.22,29.729c-1.855,2.218-1.894,4.856,0,7.071
		c7.999,9.354,16.179,18.578,24.676,27.482c4.13,4.329,8.446,9.27,13.615,12.406c2.44,1.481,5.288,1.138,8.008,1.138
		c27.562,0,55.125,0,82.687,0c1.901,0,3.803,0,5.705,0C230.86,228.023,230.86,218.023,224.411,218.023z"/>
</g>
</svg>
