<?xml version="1.0" encoding="iso-8859-1"?>
<!-- Generator: Adobe Illustrator 16.0.0, SVG Export Plug-In . SVG Version: 6.00 Build 0)  -->
<!DOCTYPE svg PUBLIC "-//W3C//DTD SVG 1.1//EN" "http://www.w3.org/Graphics/SVG/1.1/DTD/svg11.dtd">
<svg version="1.1" xmlns="http://www.w3.org/2000/svg" xmlns:xlink="http://www.w3.org/1999/xlink" x="0px" y="0px" width="361px"
	 height="361px" viewBox="0 0 361 361" style="enable-background:new 0 0 361 361;" xml:space="preserve">
<g id="phone_x5F_call">
	<path style="fill:none;stroke:#FFFFFF;stroke-width:10;stroke-miterlimit:10;" d="M74.622,99.285
		c3.311,15.667,9.358,33.123,14.437,47.916c3.022,8.803,16.089,39.094,19.039,45.906h-0.002c0,0,0.104,0.241,0.298,0.686
		c0.193,0.445,0.298,0.686,0.298,0.686h0.002c2.967,6.803,16.196,37.024,20.569,45.241c7.35,13.806,15.985,30.136,25.18,43.246
		c1.842,2.627,4.33,4.511,6.79,3.442l35.834-15.572c2.459-1.069,3.406-4.342,2.116-7.313l-17.526-40.331
		c-6.233-11.243-18.702-2.153-26.258-5.846c-2.563-1.253-4.453-6.05-5.695-8.907c-2.748-6.323-9.158-21.073-11.484-26.426
		c-0.542-1.249-0.864-1.988-0.864-1.988c-2.326-5.353-8.736-20.103-11.484-26.426c-1.241-2.857-3.458-7.513-2.626-10.24
		c2.457-8.043,17.61-10.957,13.643-23.185l-17.526-40.332c-1.291-2.97-4.331-4.51-6.79-3.442L76.738,91.973
		C74.278,93.042,73.958,96.146,74.622,99.285z"/>
</g>
<g id="Ebene_1">
</g>
</svg>
