<?xml version="1.0" encoding="iso-8859-1"?>
<!-- Generator: Adobe Illustrator 16.0.0, SVG Export Plug-In . SVG Version: 6.00 Build 0)  -->
<!DOCTYPE svg PUBLIC "-//W3C//DTD SVG 1.1//EN" "http://www.w3.org/Graphics/SVG/1.1/DTD/svg11.dtd">
<svg version="1.1" xmlns="http://www.w3.org/2000/svg" xmlns:xlink="http://www.w3.org/1999/xlink" x="0px" y="0px" width="361px"
	 height="361px" viewBox="0 0 361 361" style="enable-background:new 0 0 361 361;" xml:space="preserve">
<g id="phone_x5F_ring_x5F_in">
	<path style="fill:none;stroke:#FFFFFF;stroke-width:10;stroke-miterlimit:10;" d="M287.304,99.285
		c-3.312,15.667-9.358,33.123-14.437,47.916c-3.022,8.803-16.09,39.094-19.039,45.906h0.002c0,0-0.104,0.241-0.298,0.686
		c-0.193,0.445-0.298,0.686-0.298,0.686h-0.002c-2.967,6.803-16.196,37.024-20.569,45.241c-7.35,13.806-15.985,30.136-25.18,43.246
		c-1.842,2.627-4.33,4.511-6.79,3.442l-35.834-15.572c-2.459-1.069-3.407-4.342-2.116-7.313l17.526-40.331
		c6.232-11.243,18.701-2.153,26.258-5.846c2.563-1.253,4.453-6.05,5.695-8.907c2.748-6.323,9.157-21.073,11.483-26.426
		c0.542-1.249,0.864-1.988,0.864-1.988c2.325-5.353,8.735-20.103,11.483-26.426c1.241-2.857,3.458-7.513,2.626-10.24
		c-2.457-8.043-17.609-10.957-13.643-23.185l17.526-40.332c1.29-2.97,4.331-4.51,6.79-3.442l35.834,15.572
		C287.647,93.042,287.968,96.146,287.304,99.285z"/>
	<g>
		<g>
			<path style="fill:#FFFFFF;" d="M125.576,218.484c-14.317,14.938-14.316,37.935,0,52.873c3.128,3.265,8.072-1.691,4.95-4.949
				c-11.66-12.167-11.661-30.808,0-42.975C133.648,220.176,128.705,215.22,125.576,218.484L125.576,218.484z"/>
		</g>
	</g>
	<g>
		<g>
			<path style="fill:#FFFFFF;" d="M107.305,209.85c-19.491,20.094-19.49,51.74,0,71.835c3.147,3.245,8.093-1.709,4.95-4.949
				c-16.829-17.351-16.83-44.586,0-61.937C115.397,211.559,110.452,206.604,107.305,209.85L107.305,209.85z"/>
		</g>
	</g>
	<g>
		<g>
			<path style="fill:#FFFFFF;" d="M88.388,201.459c-23.892,24.484-23.891,63.486,0,87.971c3.157,3.235,8.103-1.718,4.95-4.949
				c-21.229-21.755-21.229-56.317,0-78.072C96.491,203.177,91.545,198.224,88.388,201.459L88.388,201.459z"/>
		</g>
	</g>
	<g>
		<g>
			<path style="fill:#FFFFFF;" d="M107.492,177.005c24.414,3.261,48.828,6.522,73.242,9.784c2.463,0.329,5.329-2.537,5-5
				c-3.262-24.414-6.523-48.829-9.784-73.243c-0.544-4.077-5.137-6.935-8.536-3.536c-21.153,21.153-42.306,42.306-63.458,63.459
				c-4.563,4.564,2.507,11.635,7.071,7.071c21.153-21.153,42.306-42.306,63.458-63.459c-2.845-1.179-5.69-2.357-8.536-3.536
				c3.261,24.414,6.522,48.829,9.784,73.243c1.667-1.667,3.333-3.333,5-5c-24.414-3.261-48.828-6.522-73.242-9.784
				C101.115,166.154,101.197,176.165,107.492,177.005z"/>
		</g>
	</g>
	<g>
		<g>
			<path style="fill:#FFFFFF;" d="M92.778,78.791c2.384-1.722,7.425,5.326,8.945,6.847c2.685,2.685,5.37,5.371,8.056,8.056
				c0.938,0.938-13.751,14.678-15.408,16.334c-0.938,0.938-14.678-13.752-16.334-15.408C77.1,93.683,91.82,79.911,93.486,78.244
				c3.194-3.195-1.755-8.145-4.95-4.95c-3.611,3.612-7.223,7.224-10.835,10.836c-4.033,4.033-9.613,8.586-5.203,14.689
				c3.078,4.26,7.678,7.839,11.383,11.544c4.034,4.034,8.585,9.611,14.69,5.203c4.26-3.076,7.84-7.678,11.544-11.383
				c4.034-4.034,9.611-8.584,5.202-14.689c-3.076-4.26-7.678-7.839-11.383-11.544c-4.034-4.034-8.585-9.612-14.69-5.203
				C85.622,75.363,89.111,81.439,92.778,78.791z"/>
		</g>
	</g>
	<g>
		<g>
			<path style="fill:#FFFFFF;" d="M128.293,114.306c2.384-1.722,7.424,5.326,8.945,6.847c2.685,2.685,5.371,5.371,8.056,8.056
				c0.937,0.937-13.751,14.678-15.407,16.334c-0.937,0.938-14.679-13.752-16.335-15.408c-0.937-0.937,13.784-14.709,15.45-16.375
				c3.194-3.195-1.755-8.145-4.95-4.95c-3.612,3.612-7.224,7.224-10.835,10.836c-4.033,4.033-9.612,8.585-5.203,14.689
				c3.077,4.26,7.678,7.839,11.383,11.544c4.034,4.034,8.584,9.61,14.69,5.203c4.26-3.075,7.84-7.679,11.543-11.384
				c4.033-4.034,9.611-8.585,5.203-14.689c-3.076-4.26-7.678-7.839-11.382-11.544c-4.034-4.034-8.585-9.612-14.69-5.203
				C121.138,110.878,124.626,116.955,128.293,114.306z"/>
		</g>
	</g>
</g>
<g id="Ebene_1">
</g>
</svg>
