<?xml version="1.0" encoding="iso-8859-1"?>
<!-- Generator: Adobe Illustrator 16.0.0, SVG Export Plug-In . SVG Version: 6.00 Build 0)  -->
<!DOCTYPE svg PUBLIC "-//W3C//DTD SVG 1.1//EN" "http://www.w3.org/Graphics/SVG/1.1/DTD/svg11.dtd">
<svg version="1.1" xmlns="http://www.w3.org/2000/svg" xmlns:xlink="http://www.w3.org/1999/xlink" x="0px" y="0px" width="361px"
	 height="361px" viewBox="0 0 361 361" style="enable-background:new 0 0 361 361;" xml:space="preserve">
<g id="phone_x5F_missed_x5F_in">
	<path style="fill:none;stroke:#FFFFFF;stroke-width:10;stroke-miterlimit:10;" d="M280.971,237.693
		c-15.689-3.207-34.107-4.618-49.699-5.856c-9.279-0.736-42.269-0.825-49.691-0.835V231c0,0-0.262,0-0.747,0.001
		C180.348,231,180.085,231,180.085,231v0.002c-7.422,0.01-40.412,0.099-49.69,0.835c-15.592,1.238-34.01,2.649-49.7,5.856
		c-3.143,0.643-5.862,2.174-5.862,4.855v39.072c0,2.682,2.625,4.855,5.862,4.855h43.976c12.796-1.235,9.428-16.295,15.826-21.753
		c2.17-1.851,7.323-1.673,10.438-1.673c6.895,0,22.978,0,28.814,0c1.361,0,2.167,0,2.167,0c5.837,0,21.92,0,28.814,0
		c3.115,0,8.269-0.178,10.438,1.673c6.397,5.458,3.03,20.518,15.826,21.753h43.976c3.238,0,5.862-2.174,5.862-4.855v-39.072
		C286.833,239.867,284.113,238.336,280.971,237.693z"/>
	<g>
		<g>
			<path style="fill:#FFFFFF;" d="M148.295,79.499c-24.414-3.261-48.828-6.522-73.242-9.784c-2.463-0.329-5.329,2.537-5,5
				c3.261,24.414,6.522,48.829,9.784,73.243c0.544,4.077,5.137,6.935,8.536,3.536c21.153-21.153,42.306-42.306,63.458-63.459
				c4.563-4.564-2.507-11.635-7.071-7.071c-21.153,21.153-42.306,42.306-63.458,63.459c2.845,1.179,5.69,2.357,8.536,3.536
				c-3.261-24.414-6.522-48.829-9.784-73.243c-1.667,1.667-3.333,3.333-5,5c24.414,3.261,48.828,6.522,73.242,9.784
				C154.672,90.351,154.59,80.34,148.295,79.499z"/>
		</g>
	</g>
	<g>
		<g>
			<path style="fill:#FFFFFF;" d="M212.671,196.644c1.722,2.385-5.324,7.424-6.846,8.945c-2.685,2.686-5.37,5.371-8.055,8.057
				c-0.938,0.938-14.68-13.752-16.336-15.408c-0.938-0.938,13.752-14.677,15.408-16.333c0.938-0.938,14.709,13.78,16.376,15.447
				c3.194,3.195,8.145-1.755,4.949-4.949c-3.611-3.612-7.223-7.224-10.835-10.835c-4.032-4.033-8.587-9.613-14.689-5.202
				c-4.26,3.078-7.839,7.677-11.545,11.382c-4.033,4.033-9.612,8.585-5.203,14.689c3.077,4.26,7.678,7.84,11.383,11.545
				c4.034,4.034,8.585,9.61,14.69,5.203c4.26-3.076,7.839-7.68,11.543-11.384c4.035-4.035,9.609-8.584,5.203-14.69
				C216.101,189.487,210.024,192.976,212.671,196.644z"/>
		</g>
	</g>
	<g>
		<g>
			<path style="fill:#FFFFFF;" d="M248.027,161.289c1.723,2.385-5.325,7.425-6.846,8.946c-2.686,2.685-5.371,5.37-8.056,8.056
				c-0.939,0.939-14.679-13.751-16.335-15.408c-0.938-0.938,13.75-14.678,15.405-16.334c0.939-0.939,14.711,13.782,16.379,15.45
				c3.194,3.194,8.144-1.755,4.949-4.95c-3.611-3.612-7.224-7.224-10.835-10.835c-4.036-4.036-8.584-9.609-14.692-5.203
				c-4.26,3.073-7.84,7.679-11.543,11.383c-4.032,4.033-9.612,8.587-5.202,14.69c3.079,4.259,7.678,7.839,11.383,11.544
				c4.033,4.034,8.585,9.611,14.69,5.203c4.26-3.076,7.84-7.678,11.544-11.383c4.034-4.034,9.611-8.585,5.203-14.69
				C251.456,154.133,245.38,157.622,248.027,161.289z"/>
		</g>
	</g>
	<g>
		<g>
			<path style="fill:#FFFFFF;" d="M269.147,142.429c-2.384,1.723-7.425-5.326-8.945-6.846c-2.686-2.685-5.37-5.371-8.056-8.056
				c-0.938-0.938,13.751-14.678,15.407-16.334c0.938-0.938,14.678,13.751,16.334,15.408c0.938,0.938-13.782,14.709-15.448,16.375
				c-3.194,3.195,1.755,8.145,4.949,4.95c3.612-3.612,7.224-7.224,10.835-10.836c4.033-4.033,9.613-8.587,5.203-14.689
				c-3.079-4.259-7.678-7.839-11.383-11.544c-4.033-4.034-8.585-9.612-14.689-5.202c-4.26,3.077-7.839,7.678-11.544,11.383
				c-4.033,4.033-9.613,8.586-5.203,14.69c3.078,4.259,7.679,7.839,11.383,11.544c4.033,4.033,8.587,9.613,14.69,5.202
				C276.302,145.856,272.813,139.779,269.147,142.429z"/>
		</g>
	</g>
	<g>
		<g>
			<path style="fill:#FFFFFF;" d="M163.009,177.713c-2.384,1.722-7.425-5.326-8.945-6.847c-2.685-2.685-5.37-5.371-8.056-8.056
				c-0.938-0.938,13.751-14.678,15.408-16.334c0.938-0.938,14.678,13.752,16.334,15.408c0.937,0.937-13.783,14.709-15.45,16.375
				c-3.194,3.195,1.755,8.145,4.95,4.95c3.611-3.612,7.223-7.224,10.835-10.835c4.033-4.033,9.613-8.586,5.203-14.689
				c-3.078-4.259-7.678-7.839-11.383-11.544c-4.034-4.034-8.585-9.611-14.69-5.203c-4.26,3.076-7.84,7.678-11.544,11.383
				c-4.034,4.034-9.611,8.584-5.202,14.689c3.076,4.26,7.678,7.839,11.383,11.544c4.034,4.033,8.585,9.611,14.69,5.203
				C170.165,181.142,166.676,175.065,163.009,177.713z"/>
		</g>
	</g>
	<g>
		<g>
			<path style="fill:#FFFFFF;" d="M127.494,142.198c-2.384,1.722-7.424-5.326-8.945-6.847c-2.685-2.685-5.371-5.371-8.056-8.056
				c-0.937-0.937,13.751-14.678,15.407-16.334c0.937-0.937,14.679,13.752,16.335,15.408c0.937,0.937-13.784,14.709-15.45,16.375
				c-3.194,3.195,1.755,8.145,4.95,4.95c3.612-3.612,7.224-7.224,10.835-10.836c4.033-4.033,9.612-8.585,5.203-14.689
				c-3.077-4.26-7.678-7.839-11.383-11.544c-4.034-4.034-8.584-9.61-14.69-5.203c-4.26,3.075-7.84,7.679-11.543,11.384
				c-4.033,4.034-9.611,8.585-5.203,14.689c3.076,4.26,7.678,7.839,11.382,11.544c4.034,4.034,8.585,9.612,14.69,5.203
				C134.649,145.626,131.161,139.549,127.494,142.198z"/>
		</g>
	</g>
</g>
<g id="Ebene_1">
</g>
</svg>
