<?xml version="1.0" encoding="iso-8859-1"?>
<!-- Generator: Adobe Illustrator 16.0.0, SVG Export Plug-In . SVG Version: 6.00 Build 0)  -->
<!DOCTYPE svg PUBLIC "-//W3C//DTD SVG 1.1//EN" "http://www.w3.org/Graphics/SVG/1.1/DTD/svg11.dtd">
<svg version="1.1" xmlns="http://www.w3.org/2000/svg" xmlns:xlink="http://www.w3.org/1999/xlink" x="0px" y="0px" width="361px"
	 height="361px" viewBox="0 0 361 361" style="enable-background:new 0 0 361 361;" xml:space="preserve">
<g id="phone_x5F_ring_x5F_out">
	<path style="fill:none;stroke:#FFFFFF;stroke-width:10;stroke-miterlimit:10;" d="M74.622,99.285
		c3.311,15.667,9.358,33.123,14.437,47.916c3.022,8.803,16.089,39.094,19.039,45.906h-0.002c0,0,0.104,0.241,0.298,0.686
		c0.193,0.445,0.298,0.686,0.298,0.686h0.002c2.967,6.803,16.196,37.024,20.569,45.241c7.35,13.806,15.985,30.136,25.18,43.246
		c1.842,2.627,4.33,4.511,6.79,3.442l35.834-15.572c2.459-1.069,3.406-4.342,2.116-7.313l-17.526-40.331
		c-6.233-11.243-18.702-2.153-26.258-5.846c-2.563-1.253-4.453-6.05-5.695-8.907c-2.748-6.323-9.158-21.073-11.484-26.426
		c-0.542-1.249-0.864-1.988-0.864-1.988c-2.326-5.353-8.736-20.103-11.484-26.426c-1.241-2.857-3.458-7.513-2.626-10.24
		c2.457-8.043,17.61-10.957,13.643-23.185l-17.526-40.332c-1.291-2.97-4.331-4.51-6.79-3.442L76.738,91.973
		C74.278,93.042,73.958,96.146,74.622,99.285z"/>
	<g>
		<g>
			<path style="fill:#FFFFFF;" d="M231.4,223.434c11.66,12.167,11.659,30.808,0,42.975c-3.122,3.258,1.821,8.214,4.949,4.949
				c14.316-14.938,14.316-37.935,0-52.873C233.222,215.22,228.278,220.176,231.4,223.434L231.4,223.434z"/>
		</g>
	</g>
	<g>
		<g>
			<path style="fill:#FFFFFF;" d="M249.672,214.799c16.828,17.351,16.828,44.586,0,61.937c-3.143,3.24,1.802,8.194,4.949,4.949
				c19.49-20.095,19.491-51.741,0-71.835C251.474,206.604,246.529,211.559,249.672,214.799L249.672,214.799z"/>
		</g>
	</g>
	<g>
		<g>
			<path style="fill:#FFFFFF;" d="M268.588,206.408c21.229,21.755,21.229,56.317,0,78.072c-3.153,3.231,1.793,8.185,4.949,4.949
				c23.892-24.484,23.893-63.487,0-87.971C270.381,198.224,265.435,203.177,268.588,206.408L268.588,206.408z"/>
		</g>
	</g>
	<g>
		<g>
			<path style="fill:#FFFFFF;" d="M214.363,89.353c24.414-3.261,48.828-6.522,73.242-9.784c-1.667-1.667-3.333-3.333-5-5
				c-3.262,24.414-6.522,48.829-9.784,73.243c2.845-1.179,5.69-2.357,8.535-3.536c-21.152-21.153-42.305-42.306-63.458-63.459
				c-4.563-4.563-11.635,2.507-7.07,7.071c21.152,21.153,42.305,42.306,63.458,63.459c3.398,3.399,7.99,0.542,8.535-3.536
				c3.262-24.414,6.522-48.829,9.784-73.243c0.329-2.463-2.537-5.329-5-5c-24.414,3.261-48.828,6.522-73.242,9.784
				C208.068,80.194,207.986,90.205,214.363,89.353z"/>
		</g>
	</g>
	<g>
		<g>
			<path style="fill:#FFFFFF;" d="M196.116,183.611c5.806,4.195,10.148-0.661,14.051-4.563c3.824-3.825,7.649-7.65,11.474-11.475
				c5.481-5.481-0.122-10.866-4.015-14.759c-3.825-3.825-7.65-7.65-11.476-11.476c-5.481-5.481-10.866,0.124-14.759,4.017
				c-3.825,3.825-7.65,7.65-11.476,11.475c-5.48,5.481,0.125,10.866,4.017,14.759c3.825,3.825,7.65,7.65,11.476,11.475
				c3.194,3.194,8.145-1.756,4.949-4.95c-5.149-5.149-10.3-10.299-15.449-15.449c-0.938-0.938,13.751-14.678,15.407-16.334
				c0.938-0.938,14.679,13.752,16.335,15.408c0.937,0.937-6.678,7.603-7.353,8.278c-1.574,1.574-7.215,9.308-9.648,7.55
				C195.982,174.918,192.494,180.995,196.116,183.611z"/>
		</g>
	</g>
	<g>
		<g>
			<path style="fill:#FFFFFF;" d="M231.631,148.096c5.807,4.194,10.148-0.662,14.051-4.563c3.825-3.825,7.649-7.65,11.475-11.475
				c5.481-5.481-0.124-10.866-4.016-14.758c-3.825-3.825-7.65-7.65-11.476-11.476c-5.48-5.481-10.866,0.125-14.759,4.017
				c-3.825,3.825-7.649,7.65-11.475,11.475c-5.481,5.481,0.123,10.866,4.016,14.759c3.825,3.825,7.65,7.65,11.476,11.475
				c3.194,3.194,8.144-1.755,4.949-4.95c-5.149-5.149-10.3-10.299-15.449-15.449c-0.938-0.938,13.751-14.678,15.407-16.334
				c0.938-0.938,14.679,13.752,16.335,15.409c0.937,0.937-6.677,7.602-7.352,8.277c-1.574,1.574-7.216,9.308-9.649,7.55
				C231.497,139.403,228.009,145.48,231.631,148.096z"/>
		</g>
	</g>
</g>
<g id="Ebene_1">
</g>
</svg>
