<?xml version="1.0" encoding="iso-8859-1"?>
<!-- Generator: Adobe Illustrator 16.0.0, SVG Export Plug-In . SVG Version: 6.00 Build 0)  -->
<!DOCTYPE svg PUBLIC "-//W3C//DTD SVG 1.1 Tiny//EN" "http://www.w3.org/Graphics/SVG/1.1/DTD/svg11-tiny.dtd">
<svg version="1.1" baseProfile="tiny" id="phone_x5F_ring"
	 xmlns="http://www.w3.org/2000/svg" xmlns:xlink="http://www.w3.org/1999/xlink" x="0px" y="0px" width="361px" height="361px"
	 viewBox="0 0 361 361" xml:space="preserve">
<path fill="none" stroke="#FFFFFF" stroke-width="10" stroke-miterlimit="10" d="M72.104,102.163
	c3.311,15.667,9.358,33.123,14.437,47.916c3.022,8.803,16.089,39.094,19.039,45.906l-0.002,0.001c0,0,0.104,0.241,0.298,0.686
	s0.298,0.686,0.298,0.686l0.002-0.001c2.967,6.804,16.196,37.025,20.569,45.242c7.35,13.806,15.985,30.136,25.18,43.246
	c1.842,2.627,4.33,4.511,6.79,3.442l35.834-15.572c2.459-1.069,3.407-4.342,2.116-7.313l-17.526-40.331
	c-6.233-11.244-18.702-2.153-26.258-5.846c-2.563-1.252-4.453-6.05-5.695-8.907c-2.748-6.324-9.158-21.074-11.484-26.427
	c-0.542-1.248-0.864-1.987-0.864-1.987c-2.326-5.353-8.736-20.103-11.484-26.426c-1.241-2.857-3.458-7.513-2.626-10.24
	c2.457-8.043,17.61-10.957,13.643-23.185l-17.526-40.332c-1.291-2.97-4.331-4.51-6.79-3.442L74.22,94.851
	C71.76,95.92,71.44,99.024,72.104,102.163z"/>
<g>
	<path fill="#FFFFFF" d="M203.033,115.576c24.401,24.919,24.401,64.764,0,89.683c-4.513,4.609,2.554,11.685,7.071,7.071
		c28.208-28.807,28.208-75.018,0-103.825C205.587,103.891,198.521,110.967,203.033,115.576L203.033,115.576z"/>
</g>
<g>
	<path fill="#FFFFFF" d="M223.883,98.143c34.838,35.368,34.838,92.598,0,127.966c-4.527,4.596,2.541,11.671,7.071,7.071
		c18.573-18.856,29.074-43.902,29.452-70.37c0.383-26.785-10.756-52.759-29.452-71.739
		C226.423,86.472,219.355,93.547,223.883,98.143L223.883,98.143z"/>
</g>
<g>
	<path fill="#FFFFFF" d="M246.037,81.202c21.035,21.292,32.932,49.652,33.276,79.588c0.348,30.28-12.083,59.505-33.276,80.957
		c-4.534,4.59,2.534,11.664,7.071,7.071c22.87-23.15,35.831-54.115,36.205-86.66c0.378-32.863-13.208-64.75-36.205-88.027
		C248.571,69.539,241.502,76.612,246.037,81.202L246.037,81.202z"/>
</g>
</svg>
