<?xml version="1.0" encoding="iso-8859-1"?>
<!-- Generator: Adobe Illustrator 16.0.0, SVG Export Plug-In . SVG Version: 6.00 Build 0)  -->
<!DOCTYPE svg PUBLIC "-//W3C//DTD SVG 1.1//EN" "http://www.w3.org/Graphics/SVG/1.1/DTD/svg11.dtd">
<svg version="1.1" xmlns="http://www.w3.org/2000/svg" xmlns:xlink="http://www.w3.org/1999/xlink" x="0px" y="0px" width="361px"
	 height="361px" viewBox="0 0 361 361" style="enable-background:new 0 0 361 361;" xml:space="preserve">
<g id="phone_x5F_remote_x5F_trans_x5F_disabled">
	<g>
		<g>
			<path style="fill:#FFFFFF;" d="M214.363,89.353c24.414-3.261,48.828-6.522,73.242-9.784c-1.667-1.667-3.333-3.333-5-5
				c-3.262,24.414-6.522,48.829-9.784,73.243c2.845-1.179,5.69-2.357,8.535-3.536c-21.152-21.153-42.305-42.306-63.458-63.459
				c-4.563-4.563-11.635,2.507-7.07,7.071c21.152,21.153,42.305,42.306,63.458,63.459c3.398,3.399,7.99,0.542,8.535-3.536
				c3.262-24.414,6.522-48.829,9.784-73.243c0.329-2.463-2.537-5.329-5-5c-24.414,3.261-48.828,6.522-73.242,9.784
				C208.068,80.194,207.986,90.205,214.363,89.353z"/>
		</g>
	</g>
	<g>
		<g>
			<path style="fill:#FFFFFF;" d="M231.631,148.096c5.807,4.194,10.148-0.662,14.051-4.563c3.825-3.825,7.649-7.65,11.475-11.475
				c5.481-5.481-0.124-10.866-4.016-14.758c-3.825-3.825-7.65-7.65-11.476-11.476c-5.48-5.481-10.866,0.125-14.759,4.017
				c-3.825,3.825-7.649,7.65-11.475,11.475c-5.481,5.481,0.123,10.866,4.016,14.759c3.825,3.825,7.65,7.65,11.476,11.475
				c3.194,3.194,8.144-1.755,4.949-4.95c-5.149-5.149-10.3-10.299-15.449-15.449c-0.938-0.938,13.751-14.678,15.407-16.334
				c0.938-0.938,14.679,13.752,16.335,15.409c0.937,0.937-6.677,7.602-7.352,8.277c-1.574,1.574-7.216,9.308-9.649,7.55
				C231.497,139.403,228.009,145.48,231.631,148.096z"/>
		</g>
	</g>
	<path style="fill:none;stroke:#FFFFFF;stroke-width:10;stroke-miterlimit:10;" d="M170.428,227.26c0-3.387,0.312-6.698,0.877-9.922
		c-5.506,0.002-11.53,2.147-15.907,0.009c-2.563-1.253-4.453-6.05-5.695-8.907c-2.748-6.323-9.158-21.073-11.484-26.426
		c-0.542-1.249-0.864-1.988-0.864-1.988c-2.326-5.353-8.736-20.103-11.484-26.426c-1.241-2.857-3.458-7.513-2.626-10.24
		c2.457-8.043,17.61-10.957,13.643-23.185l-17.526-40.332c-1.291-2.97-4.331-4.51-6.79-3.442L76.738,91.973
		c-2.46,1.069-2.78,4.173-2.116,7.312c3.311,15.667,9.358,33.123,14.437,47.916c3.022,8.803,16.089,39.094,19.039,45.906h-0.002
		c0,0,0.104,0.241,0.298,0.686c0.193,0.445,0.298,0.686,0.298,0.686h0.002c2.967,6.803,16.196,37.024,20.569,45.241
		c7.35,13.806,15.985,30.136,25.18,43.246c1.842,2.627,4.33,4.511,6.79,3.442l31.668-13.762
		C179.245,262.215,170.428,245.771,170.428,227.26z"/>
	<g>
		<g>
			<path style="fill:#FFFFFF;" d="M198.349,182.312c4.574-2.862,9.328-5.039,14.5-6.59c2.017-0.605,3.758-3.114,5.168-4.524
				c3.86-3.86,8.874-9.117,3.583-14.408c-3.377-3.377-6.754-6.754-10.131-10.132c-2.979-2.98-7.273-8.954-12.247-7.37
				c-4.299,1.369-7.414,5.653-10.507,8.745c-3.409,3.41-7.281,6.649-10.114,10.57c-3.634,5.03,2.268,9.923,5.408,13.063
				c3.366,3.366,6.732,6.732,10.099,10.099c3.194,3.194,8.144-1.755,4.949-4.95c-4.716-4.716-9.431-9.432-14.146-14.148
				c-0.943-0.943,13.501-14.432,15.087-16.017c1.583-1.583,13.91,12.346,15.736,14.172c2.368,2.369-2.855,5.616-4.609,7.369
				c-1.774,1.775-2.424,1.456-4.986,2.396c-3.978,1.458-7.738,3.439-11.322,5.681C190.999,178.655,194.51,184.713,198.349,182.312z"
				/>
		</g>
	</g>
	<g>
		<g>
			<g>
				<path style="fill:#FFFFFF;" d="M277.104,227.206c-0.264,21.841-14.328,41.07-35.274,47.551
					c-20.997,6.497-44.063-2.393-55.993-20.611c-12.03-18.37-9.941-43.151,4.399-59.6c14.372-16.485,38.711-21.485,58.468-12.16
					C266.038,190.568,276.874,208.176,277.104,227.206c0.117,9.678,15.12,9.774,15.004,0.107
					c-0.285-23.601-12.931-45.153-33.557-56.708c-20.663-11.576-46.938-10.132-66.615,2.754
					c-19.622,12.85-30.715,36.129-28.74,59.425c1.966,23.186,16.774,44.003,38.043,53.442c20.026,8.888,43.534,6.932,61.857-5.067
					c18.091-11.847,28.751-32.366,29.011-53.847C292.225,217.622,277.221,217.548,277.104,227.206z"/>
			</g>
		</g>
		<g>
			<g>
				<path style="fill:#FFFFFF;" d="M192.481,272.902c26.912-26.912,53.824-53.824,80.735-80.736
					c6.836-6.835-3.813-17.403-10.665-10.551c-26.912,26.912-53.824,53.824-80.736,80.736
					C174.98,269.187,185.629,279.755,192.481,272.902L192.481,272.902z"/>
			</g>
		</g>
	</g>
</g>
<g id="Ebene_1">
</g>
</svg>
