<?xml version="1.0" encoding="iso-8859-1"?>
<!-- Generator: Adobe Illustrator 16.0.0, SVG Export Plug-In . SVG Version: 6.00 Build 0)  -->
<!DOCTYPE svg PUBLIC "-//W3C//DTD SVG 1.1 Tiny//EN" "http://www.w3.org/Graphics/SVG/1.1/DTD/svg11-tiny.dtd">
<svg version="1.1" baseProfile="tiny" id="phone_x5F_call_x5F_end"
	 xmlns="http://www.w3.org/2000/svg" xmlns:xlink="http://www.w3.org/1999/xlink" x="0px" y="0px" width="361px" height="361px"
	 viewBox="0 0 361 361" xml:space="preserve">
<path fill="none" stroke="#FFFFFF" stroke-width="10" stroke-miterlimit="10" d="M278.453,179.572
	c-15.689-3.208-34.108-4.619-49.7-5.857c-9.278-0.736-42.268-0.825-49.69-0.834v-0.002c0,0-0.263,0-0.748,0
	c-0.485,0-0.748,0-0.748,0v0.002c-7.422,0.01-40.412,0.098-49.69,0.834c-15.592,1.238-34.01,2.649-49.7,5.857
	c-3.143,0.642-5.862,2.173-5.862,4.855v39.072c0,2.682,2.625,4.855,5.862,4.855h43.976c12.796-1.235,9.428-16.294,15.826-21.752
	c2.17-1.851,7.323-1.673,10.438-1.673c6.895,0,22.978,0,28.814,0c1.361,0,2.167,0,2.167,0c5.836,0,21.919,0,28.814,0
	c3.115,0,8.269-0.178,10.438,1.673c6.398,5.458,3.03,20.518,15.826,21.752h43.976c3.238,0,5.862-2.174,5.862-4.855v-39.072
	C284.315,181.745,281.596,180.214,278.453,179.572z"/>
<g>
	<path fill="#FFFFFF" d="M72.315,153.545c48.697,0,97.394,0,146.091,0c21.97,0,43.939,0,65.909,0c6.449,0,6.449-10,0-10
		c-48.697,0-97.394,0-146.091,0c-21.97,0-43.939,0-65.909,0C65.866,143.545,65.866,153.545,72.315,153.545L72.315,153.545z"/>
</g>
</svg>
