<?xml version="1.0" encoding="iso-8859-1"?>
<!-- Generator: Adobe Illustrator 16.0.0, SVG Export Plug-In . SVG Version: 6.00 Build 0)  -->
<!DOCTYPE svg PUBLIC "-//W3C//DTD SVG 1.1 Tiny//EN" "http://www.w3.org/Graphics/SVG/1.1/DTD/svg11-tiny.dtd">
<svg version="1.1" baseProfile="tiny" id="phone_x5F_ring_x5F_in"
	 xmlns="http://www.w3.org/2000/svg" xmlns:xlink="http://www.w3.org/1999/xlink" x="0px" y="0px" width="361px" height="361px"
	 viewBox="0 0 361 361" xml:space="preserve">
<path fill="none" stroke="#FFFFFF" stroke-width="10" stroke-miterlimit="10" d="M284.786,102.163
	c-3.311,15.667-9.358,33.123-14.437,47.916c-3.022,8.803-16.089,39.094-19.039,45.906l0.002,0.001c0,0-0.104,0.241-0.298,0.686
	s-0.298,0.686-0.298,0.686l-0.002-0.001c-2.967,6.804-16.196,37.025-20.569,45.242c-7.35,13.806-15.985,30.136-25.18,43.246
	c-1.842,2.627-4.33,4.511-6.79,3.442l-35.834-15.572c-2.459-1.069-3.407-4.342-2.116-7.313l17.526-40.331
	c6.233-11.244,18.702-2.153,26.258-5.846c2.563-1.252,4.453-6.05,5.695-8.907c2.748-6.324,9.158-21.074,11.484-26.427
	c0.542-1.248,0.864-1.987,0.864-1.987c2.326-5.353,8.736-20.103,11.484-26.426c1.241-2.857,3.458-7.513,2.626-10.24
	c-2.457-8.043-17.61-10.957-13.643-23.185l17.526-40.332c1.291-2.97,4.331-4.51,6.79-3.442l35.834,15.572
	C285.129,95.92,285.45,99.024,284.786,102.163z"/>
<g>
	<path fill="#FFFFFF" d="M123.058,221.362c-14.317,14.938-14.316,37.935,0,52.874c3.128,3.264,8.072-1.692,4.95-4.95
		c-11.661-12.167-11.661-30.807,0-42.973C131.13,223.054,126.187,218.098,123.058,221.362L123.058,221.362z"/>
</g>
<g>
	<path fill="#FFFFFF" d="M104.787,212.727c-19.491,20.094-19.49,51.741,0,71.836c3.147,3.245,8.093-1.71,4.95-4.95
		c-16.829-17.35-16.83-44.586,0-61.936C112.879,214.437,107.934,209.482,104.787,212.727L104.787,212.727z"/>
</g>
<g>
	<path fill="#FFFFFF" d="M85.87,204.336c-23.892,24.485-23.891,63.487,0,87.973c3.157,3.235,8.103-1.719,4.95-4.95
		c-21.229-21.755-21.229-56.317,0-78.072C93.973,206.055,89.027,201.101,85.87,204.336L85.87,204.336z"/>
</g>
<g>
	<path fill="#FFFFFF" d="M104.974,179.883c24.414,3.261,48.828,6.522,73.242,9.784c2.463,0.329,5.329-2.537,5-5
		c-3.261-24.414-6.522-48.829-9.784-73.243c-0.544-4.077-5.137-6.935-8.536-3.536c-21.153,21.153-42.306,42.306-63.458,63.459
		c-4.563,4.564,2.507,11.635,7.071,7.071c21.153-21.153,42.306-42.306,63.458-63.459c-2.845-1.179-5.69-2.357-8.536-3.536
		c3.261,24.414,6.522,48.829,9.784,73.243c1.667-1.667,3.333-3.333,5-5c-24.414-3.261-48.828-6.522-73.242-9.784
		C98.597,169.032,98.679,179.042,104.974,179.883z"/>
</g>
<g>
	<path fill="#FFFFFF" d="M90.26,81.669c2.384-1.722,7.425,5.326,8.945,6.847c2.685,2.685,5.37,5.371,8.056,8.056
		c0.938,0.938-13.751,14.678-15.408,16.334c-0.938,0.938-14.678-13.752-16.334-15.408c-0.937-0.937,13.783-14.709,15.45-16.375
		c3.194-3.195-1.755-8.145-4.95-4.95c-3.611,3.612-7.223,7.224-10.835,10.836c-4.033,4.033-9.613,8.586-5.203,14.689
		c3.078,4.26,7.678,7.839,11.383,11.544c4.034,4.034,8.585,9.611,14.69,5.203c4.26-3.076,7.84-7.678,11.544-11.383
		c4.034-4.034,9.611-8.584,5.202-14.689c-3.076-4.26-7.678-7.839-11.383-11.544c-4.034-4.034-8.585-9.612-14.69-5.203
		C83.104,78.241,86.593,84.317,90.26,81.669z"/>
</g>
<g>
	<path fill="#FFFFFF" d="M125.775,117.184c2.384-1.722,7.424,5.326,8.945,6.847c2.685,2.685,5.371,5.371,8.056,8.056
		c0.937,0.937-13.751,14.678-15.407,16.334c-0.937,0.938-14.679-13.752-16.335-15.408c-0.937-0.937,13.784-14.709,15.45-16.375
		c3.194-3.195-1.755-8.145-4.95-4.95c-3.612,3.612-7.224,7.224-10.835,10.836c-4.033,4.033-9.612,8.585-5.203,14.689
		c3.077,4.26,7.678,7.839,11.383,11.544c4.034,4.034,8.584,9.61,14.69,5.203c4.26-3.075,7.84-7.679,11.543-11.384
		c4.033-4.034,9.611-8.585,5.203-14.689c-3.076-4.26-7.678-7.839-11.382-11.544c-4.034-4.034-8.585-9.612-14.69-5.203
		C118.62,113.756,122.108,119.833,125.775,117.184z"/>
</g>
</svg>
