<?xml version="1.0" encoding="iso-8859-1"?>
<!-- Generator: Adobe Illustrator 16.0.0, SVG Export Plug-In . SVG Version: 6.00 Build 0)  -->
<!DOCTYPE svg PUBLIC "-//W3C//DTD SVG 1.1 Tiny//EN" "http://www.w3.org/Graphics/SVG/1.1/DTD/svg11-tiny.dtd">
<svg version="1.1" baseProfile="tiny" id="phone_x5F_missed_x5F_in"
	 xmlns="http://www.w3.org/2000/svg" xmlns:xlink="http://www.w3.org/1999/xlink" x="0px" y="0px" width="361px" height="361px"
	 viewBox="0 0 361 361" xml:space="preserve">
<path fill="none" stroke="#FFFFFF" stroke-width="10" stroke-miterlimit="10" d="M278.453,240.572
	c-15.689-3.208-34.108-4.619-49.7-5.857c-9.278-0.736-42.268-0.825-49.69-0.834v-0.002c0,0-0.263,0-0.748,0
	c-0.485,0-0.748,0-0.748,0v0.002c-7.422,0.01-40.412,0.098-49.69,0.834c-15.592,1.238-34.01,2.649-49.7,5.857
	c-3.143,0.642-5.862,2.173-5.862,4.855v39.072c0,2.682,2.625,4.855,5.862,4.855h43.976c12.796-1.235,9.428-16.294,15.826-21.752
	c2.17-1.851,7.323-1.673,10.438-1.673c6.895,0,22.978,0,28.814,0c1.361,0,2.167,0,2.167,0c5.836,0,21.919,0,28.814,0
	c3.115,0,8.269-0.178,10.438,1.673c6.398,5.458,3.03,20.518,15.826,21.752h43.976c3.238,0,5.862-2.174,5.862-4.855v-39.072
	C284.315,242.745,281.596,241.214,278.453,240.572z"/>
<g>
	<path fill="#FFFFFF" d="M145.777,82.377c-24.414-3.261-48.828-6.522-73.242-9.784c-2.463-0.329-5.329,2.537-5,5
		c3.261,24.414,6.522,48.829,9.784,73.243c0.544,4.077,5.137,6.935,8.536,3.536c21.153-21.153,42.306-42.306,63.458-63.459
		c4.563-4.564-2.507-11.635-7.071-7.071c-21.153,21.153-42.306,42.306-63.458,63.459c2.845,1.179,5.69,2.357,8.536,3.536
		c-3.261-24.414-6.522-48.829-9.784-73.243c-1.667,1.667-3.333,3.333-5,5c24.414,3.261,48.828,6.522,73.242,9.784
		C152.154,93.229,152.072,83.218,145.777,82.377z"/>
</g>
<g>
	<path fill="#FFFFFF" d="M210.153,199.522c1.722,2.384-5.326,7.424-6.846,8.945c-2.685,2.685-5.371,5.37-8.056,8.056
		c-0.938,0.938-14.679-13.751-16.335-15.408c-0.938-0.938,13.752-14.677,15.409-16.333c0.938-0.938,14.708,13.782,16.375,15.449
		c3.195,3.194,8.145-1.755,4.95-4.95c-3.612-3.611-7.224-7.223-10.835-10.835c-4.033-4.033-8.586-9.613-14.689-5.202
		c-4.259,3.078-7.839,7.677-11.544,11.382c-4.034,4.033-9.612,8.585-5.203,14.689c3.077,4.26,7.679,7.839,11.383,11.544
		c4.034,4.033,8.585,9.612,14.69,5.203c4.26-3.077,7.839-7.678,11.543-11.383c4.034-4.034,9.611-8.585,5.203-14.69
		C213.582,192.366,207.505,195.854,210.153,199.522z"/>
</g>
<g>
	<path fill="#FFFFFF" d="M245.51,164.167c1.722,2.385-5.326,7.425-6.847,8.946c-2.686,2.685-5.371,5.37-8.056,8.056
		c-0.938,0.938-14.678-13.751-16.334-15.408c-0.938-0.938,13.75-14.678,15.406-16.334c0.939-0.939,14.71,13.782,16.377,15.45
		c3.195,3.194,8.145-1.755,4.95-4.95c-3.612-3.612-7.224-7.224-10.836-10.835c-4.035-4.035-8.584-9.609-14.691-5.203
		c-4.26,3.074-7.839,7.679-11.543,11.383c-4.033,4.033-9.613,8.587-5.202,14.69c3.078,4.259,7.677,7.839,11.382,11.544
		c4.033,4.034,8.585,9.612,14.69,5.203c4.26-3.077,7.839-7.678,11.544-11.383c4.034-4.034,9.611-8.585,5.203-14.69
		C248.938,157.011,242.861,160.5,245.51,164.167z"/>
</g>
<g>
	<path fill="#FFFFFF" d="M266.629,145.307c-2.384,1.723-7.424-5.326-8.945-6.846c-2.685-2.685-5.371-5.371-8.056-8.056
		c-0.938-0.938,13.751-14.678,15.407-16.334c0.938-0.938,14.677,13.751,16.334,15.408c0.938,0.938-13.782,14.708-15.449,16.375
		c-3.194,3.195,1.755,8.145,4.95,4.95c3.612-3.612,7.224-7.224,10.835-10.836c4.033-4.033,9.613-8.586,5.202-14.689
		c-3.079-4.259-7.677-7.839-11.382-11.544c-4.033-4.034-8.585-9.611-14.69-5.202c-4.26,3.077-7.839,7.678-11.543,11.383
		c-4.033,4.033-9.612,8.586-5.203,14.69c3.077,4.26,7.678,7.839,11.382,11.544c4.033,4.033,8.586,9.613,14.69,5.202
		C273.784,148.733,270.295,142.657,266.629,145.307z"/>
</g>
<g>
	<path fill="#FFFFFF" d="M160.491,180.591c-2.384,1.722-7.425-5.326-8.945-6.847c-2.685-2.685-5.37-5.371-8.056-8.056
		c-0.938-0.938,13.751-14.678,15.408-16.334c0.938-0.938,14.678,13.752,16.334,15.408c0.937,0.937-13.783,14.709-15.45,16.375
		c-3.194,3.195,1.755,8.145,4.95,4.95c3.611-3.612,7.223-7.224,10.835-10.836c4.033-4.033,9.613-8.586,5.203-14.689
		c-3.078-4.26-7.678-7.839-11.383-11.544c-4.034-4.034-8.585-9.611-14.69-5.203c-4.26,3.076-7.84,7.678-11.544,11.383
		c-4.034,4.034-9.611,8.584-5.202,14.689c3.076,4.26,7.678,7.839,11.383,11.544c4.034,4.034,8.585,9.612,14.69,5.203
		C167.647,184.019,164.158,177.943,160.491,180.591z"/>
</g>
<g>
	<path fill="#FFFFFF" d="M124.976,145.076c-2.384,1.722-7.424-5.326-8.945-6.847c-2.685-2.685-5.371-5.371-8.056-8.056
		c-0.937-0.937,13.751-14.678,15.407-16.334c0.937-0.937,14.679,13.752,16.335,15.408c0.937,0.937-13.784,14.709-15.45,16.375
		c-3.194,3.195,1.755,8.145,4.95,4.95c3.612-3.612,7.224-7.224,10.835-10.836c4.033-4.033,9.612-8.585,5.203-14.689
		c-3.077-4.26-7.678-7.839-11.383-11.544c-4.034-4.034-8.584-9.61-14.69-5.203c-4.26,3.075-7.84,7.679-11.543,11.384
		c-4.033,4.034-9.611,8.585-5.203,14.689c3.076,4.26,7.678,7.839,11.382,11.544c4.034,4.034,8.585,9.612,14.69,5.203
		C132.131,148.504,128.643,142.427,124.976,145.076z"/>
</g>
</svg>
