<?xml version="1.0" encoding="iso-8859-1"?>
<!-- Generator: Adobe Illustrator 16.0.0, SVG Export Plug-In . SVG Version: 6.00 Build 0)  -->
<!DOCTYPE svg PUBLIC "-//W3C//DTD SVG 1.1//EN" "http://www.w3.org/Graphics/SVG/1.1/DTD/svg11.dtd">
<svg version="1.1" xmlns="http://www.w3.org/2000/svg" xmlns:xlink="http://www.w3.org/1999/xlink" x="0px" y="0px" width="361px"
	 height="361px" viewBox="0 0 361 361" style="enable-background:new 0 0 361 361;" xml:space="preserve">
<g id="phone_x5F_ring">
	<path style="fill:none;stroke:#FFFFFF;stroke-width:10;stroke-miterlimit:10;" d="M74.622,99.285
		c3.311,15.667,9.358,33.123,14.437,47.916c3.022,8.803,16.089,39.094,19.039,45.906h-0.002c0,0,0.104,0.241,0.298,0.686
		c0.193,0.445,0.298,0.686,0.298,0.686h0.002c2.967,6.803,16.196,37.024,20.569,45.241c7.35,13.806,15.985,30.136,25.18,43.246
		c1.842,2.627,4.33,4.511,6.79,3.442l35.834-15.572c2.459-1.069,3.406-4.342,2.116-7.313l-17.526-40.331
		c-6.233-11.243-18.702-2.153-26.258-5.846c-2.563-1.253-4.453-6.05-5.695-8.907c-2.748-6.323-9.158-21.073-11.484-26.426
		c-0.542-1.249-0.864-1.988-0.864-1.988c-2.326-5.353-8.736-20.103-11.484-26.426c-1.241-2.857-3.458-7.513-2.626-10.24
		c2.457-8.043,17.61-10.957,13.643-23.185l-17.526-40.332c-1.291-2.97-4.331-4.51-6.79-3.442L76.738,91.973
		C74.278,93.042,73.958,96.146,74.622,99.285z"/>
	<g>
		<g>
			<path style="fill:#FFFFFF;" d="M205.552,112.698c24.4,24.919,24.4,64.764,0,89.683c-4.514,4.608,2.553,11.685,7.07,7.07
				c28.209-28.807,28.209-75.018,0-103.825C208.104,101.013,201.038,108.089,205.552,112.698L205.552,112.698z"/>
		</g>
	</g>
	<g>
		<g>
			<path style="fill:#FFFFFF;" d="M226.401,95.265c34.838,35.368,34.837,92.598,0,127.967c-4.527,4.596,2.54,11.67,7.07,7.07
				c18.573-18.856,29.074-43.901,29.452-70.37c0.382-26.785-10.756-52.759-29.452-71.739
				C228.941,83.594,221.874,90.669,226.401,95.265L226.401,95.265z"/>
		</g>
	</g>
	<g>
		<g>
			<path style="fill:#FFFFFF;" d="M248.555,78.324c21.035,21.292,32.933,49.652,33.276,79.588
				c0.348,30.28-12.084,59.505-33.276,80.957c-4.535,4.59,2.533,11.663,7.07,7.07c22.871-23.149,35.832-54.114,36.206-86.659
				c0.378-32.863-13.209-64.75-36.206-88.027C251.088,66.661,244.02,73.734,248.555,78.324L248.555,78.324z"/>
		</g>
	</g>
</g>
<g id="Ebene_1">
</g>
</svg>
