<?xml version="1.0" encoding="iso-8859-1"?>
<!-- Generator: Adobe Illustrator 16.0.0, SVG Export Plug-In . SVG Version: 6.00 Build 0)  -->
<!DOCTYPE svg PUBLIC "-//W3C//DTD SVG 1.1//EN" "http://www.w3.org/Graphics/SVG/1.1/DTD/svg11.dtd">
<svg version="1.1" xmlns="http://www.w3.org/2000/svg" xmlns:xlink="http://www.w3.org/1999/xlink" x="0px" y="0px" width="361px"
	 height="361px" viewBox="0 0 361 361" style="enable-background:new 0 0 361 361;" xml:space="preserve">
<g id="phone_x5F_dial">
	<path style="fill:none;stroke:#FFFFFF;stroke-width:10;stroke-miterlimit:10;" d="M74.622,99.285
		c3.311,15.667,9.358,33.123,14.437,47.916c3.022,8.803,16.089,39.094,19.039,45.906h-0.002c0,0,0.104,0.241,0.298,0.686
		c0.193,0.445,0.298,0.686,0.298,0.686h0.002c2.967,6.803,16.196,37.024,20.569,45.241c7.35,13.806,15.985,30.136,25.18,43.246
		c1.842,2.627,4.33,4.511,6.79,3.442l35.834-15.572c2.459-1.069,3.406-4.342,2.116-7.313l-17.526-40.331
		c-6.233-11.243-18.702-2.153-26.258-5.846c-2.563-1.253-4.453-6.05-5.695-8.907c-2.748-6.323-9.158-21.073-11.484-26.426
		c-0.542-1.249-0.864-1.988-0.864-1.988c-2.326-5.353-8.736-20.103-11.484-26.426c-1.241-2.857-3.458-7.513-2.626-10.24
		c2.457-8.043,17.61-10.957,13.643-23.185l-17.526-40.332c-1.291-2.97-4.331-4.51-6.79-3.442L76.738,91.973
		C74.278,93.042,73.958,96.146,74.622,99.285z"/>
	<g>
		<g>
			<path style="fill:#FFFFFF;" d="M205.662,82.633c1.291-0.498,2.549-1.139,3.773-1.921c1.225-0.782,2.346-1.762,3.365-2.941h2.244
				v23.562h-3.162V82.158c-0.271,0.25-0.605,0.51-1.002,0.782s-0.828,0.533-1.293,0.782s-0.951,0.487-1.461,0.714
				s-1.004,0.419-1.479,0.578L205.662,82.633z"/>
			<path style="fill:#FFFFFF;" d="M250.303,83.79c0,0.816-0.164,1.604-0.493,2.363c-0.329,0.76-0.765,1.508-1.309,2.244
				c-0.544,0.737-1.156,1.462-1.836,2.176c-0.681,0.714-1.36,1.411-2.04,2.091c-0.386,0.386-0.833,0.839-1.344,1.36
				c-0.51,0.522-0.991,1.066-1.444,1.632c-0.454,0.567-0.833,1.111-1.14,1.632c-0.306,0.521-0.459,0.975-0.459,1.36h10.847v2.686
				h-14.28c-0.023-0.136-0.033-0.272-0.033-0.408c0-0.136,0-0.26,0-0.374c0-1.065,0.175-2.057,0.526-2.975
				c0.351-0.918,0.81-1.785,1.377-2.601c0.566-0.816,1.201-1.586,1.903-2.312c0.703-0.725,1.395-1.428,2.074-2.108
				c0.566-0.544,1.105-1.083,1.615-1.615c0.51-0.532,0.963-1.065,1.36-1.598c0.396-0.532,0.714-1.082,0.952-1.649
				c0.238-0.566,0.357-1.167,0.357-1.802c0-0.68-0.108-1.258-0.324-1.734c-0.215-0.476-0.504-0.873-0.867-1.19
				c-0.362-0.317-0.787-0.549-1.274-0.697c-0.487-0.147-1.003-0.221-1.547-0.221c-0.657,0-1.258,0.091-1.802,0.272
				c-0.545,0.182-1.031,0.391-1.463,0.629c-0.43,0.238-0.793,0.487-1.088,0.748s-0.521,0.459-0.68,0.595l-1.564-2.244
				c0.205-0.226,0.511-0.504,0.918-0.833c0.408-0.328,0.896-0.64,1.463-0.935s1.201-0.544,1.904-0.748
				c0.701-0.204,1.461-0.306,2.277-0.306c2.471,0,4.324,0.573,5.559,1.717C249.686,80.089,250.303,81.704,250.303,83.79z"/>
			<path style="fill:#FFFFFF;" d="M274.034,99.021c2.017,0,3.462-0.396,4.335-1.19c0.872-0.793,1.309-1.858,1.309-3.196
				c0-0.861-0.182-1.586-0.543-2.176c-0.363-0.589-0.84-1.059-1.429-1.411c-0.59-0.351-1.274-0.6-2.058-0.748
				c-0.781-0.147-1.58-0.221-2.396-0.221h-0.816v-2.584h1.123c0.566,0,1.15-0.057,1.75-0.17c0.601-0.113,1.15-0.317,1.649-0.612
				c0.499-0.294,0.906-0.697,1.224-1.207c0.317-0.51,0.477-1.15,0.477-1.921c0-0.634-0.113-1.178-0.34-1.632
				c-0.227-0.453-0.527-0.827-0.901-1.122c-0.374-0.294-0.805-0.504-1.292-0.629c-0.488-0.125-1.003-0.187-1.547-0.187
				c-1.088,0-2.012,0.159-2.771,0.476s-1.399,0.646-1.92,0.986l-1.225-2.414c0.271-0.181,0.617-0.379,1.037-0.595
				c0.419-0.215,0.889-0.413,1.41-0.595c0.521-0.181,1.083-0.334,1.684-0.459c0.601-0.125,1.229-0.187,1.887-0.187
				c1.246,0,2.324,0.153,3.23,0.459s1.654,0.737,2.244,1.292c0.589,0.556,1.031,1.213,1.326,1.972
				c0.294,0.759,0.441,1.581,0.441,2.465c0,1.224-0.352,2.272-1.054,3.145c-0.703,0.873-1.553,1.536-2.55,1.989
				c0.611,0.182,1.201,0.442,1.768,0.782s1.06,0.771,1.479,1.292c0.42,0.521,0.76,1.122,1.021,1.802
				c0.261,0.68,0.392,1.44,0.392,2.278c0,1.02-0.176,1.967-0.527,2.839c-0.352,0.873-0.896,1.626-1.633,2.261
				s-1.66,1.133-2.771,1.496s-2.425,0.544-3.944,0.544c-0.59,0-1.195-0.045-1.818-0.136c-0.624-0.091-1.207-0.204-1.751-0.34
				c-0.544-0.136-1.021-0.272-1.429-0.408c-0.407-0.136-0.702-0.249-0.883-0.34l0.611-2.754c0.385,0.182,1.025,0.419,1.921,0.714
				C271.648,98.875,272.742,99.021,274.034,99.021z"/>
			<path style="fill:#FFFFFF;" d="M203.859,127.173c0.431-0.997,1.02-2.159,1.768-3.485s1.593-2.691,2.533-4.097
				c0.94-1.405,1.949-2.788,3.026-4.148c1.076-1.36,2.159-2.584,3.247-3.672h3.025v14.96h2.789v2.584h-2.789v6.018h-3.06v-6.018
				h-10.54V127.173z M214.399,115.512c-0.68,0.726-1.366,1.536-2.058,2.431c-0.691,0.896-1.365,1.831-2.022,2.805
				s-1.274,1.972-1.853,2.992c-0.578,1.02-1.094,2.018-1.547,2.992h7.479V115.512z"/>
			<path style="fill:#FFFFFF;" d="M241.191,120.85c3.422,0.136,5.933,0.884,7.53,2.244c1.599,1.36,2.397,3.208,2.397,5.542
				c0,1.043-0.176,2.006-0.527,2.89c-0.352,0.884-0.884,1.644-1.598,2.278c-0.715,0.635-1.615,1.133-2.703,1.496
				s-2.381,0.544-3.876,0.544c-0.59,0-1.19-0.045-1.802-0.136c-0.612-0.091-1.18-0.204-1.701-0.34
				c-0.521-0.136-0.985-0.272-1.393-0.408c-0.408-0.136-0.703-0.249-0.885-0.34l0.611-2.754c0.386,0.182,1.015,0.419,1.888,0.714
				c0.872,0.295,1.943,0.442,3.213,0.442c1.021,0,1.876-0.113,2.567-0.34s1.252-0.532,1.683-0.918
				c0.431-0.385,0.742-0.833,0.935-1.343c0.193-0.51,0.289-1.048,0.289-1.615c0-0.861-0.146-1.626-0.441-2.295
				c-0.295-0.668-0.816-1.229-1.564-1.683c-0.748-0.453-1.745-0.799-2.992-1.037c-1.246-0.238-2.821-0.357-4.726-0.357
				c0.136-1.11,0.243-2.153,0.323-3.128c0.079-0.975,0.152-1.926,0.221-2.856c0.068-0.929,0.125-1.853,0.17-2.771
				c0.045-0.918,0.09-1.887,0.137-2.907h11.355v2.686h-8.602c-0.023,0.34-0.057,0.799-0.103,1.377s-0.091,1.179-0.136,1.802
				c-0.046,0.624-0.091,1.229-0.137,1.819C241.281,120.045,241.236,120.509,241.191,120.85z"/>
			<path style="fill:#FFFFFF;" d="M268.492,125.881c0-2.289,0.316-4.312,0.952-6.069c0.634-1.756,1.535-3.235,2.702-4.437
				c1.168-1.201,2.584-2.113,4.25-2.737s3.542-0.946,5.627-0.969l0.238,2.652c-1.338,0.023-2.556,0.17-3.654,0.442
				c-1.1,0.272-2.08,0.703-2.941,1.292s-1.587,1.354-2.176,2.295c-0.59,0.941-1.031,2.103-1.326,3.485
				c0.59-0.272,1.252-0.498,1.989-0.68c0.736-0.181,1.501-0.272,2.295-0.272c1.337,0,2.47,0.204,3.399,0.612
				c0.93,0.408,1.689,0.947,2.278,1.615c0.589,0.669,1.015,1.44,1.274,2.312c0.262,0.873,0.392,1.785,0.392,2.737
				c0,0.861-0.147,1.746-0.442,2.652c-0.295,0.907-0.742,1.734-1.342,2.482c-0.602,0.748-1.367,1.36-2.296,1.836
				c-0.93,0.476-2.028,0.714-3.298,0.714c-2.584,0-4.551-0.884-5.898-2.652C269.166,131.423,268.492,128.987,268.492,125.881z
				 M276.107,123.467c-0.793,0-1.529,0.074-2.209,0.221c-0.68,0.148-1.36,0.369-2.041,0.663c-0.021,0.25-0.039,0.504-0.051,0.765
				s-0.017,0.516-0.017,0.765c0,0.998,0.067,1.938,0.204,2.822c0.136,0.884,0.379,1.661,0.73,2.329s0.822,1.202,1.412,1.598
				c0.588,0.397,1.336,0.595,2.243,0.595c0.748,0,1.382-0.158,1.904-0.476c0.521-0.317,0.952-0.725,1.292-1.224
				c0.34-0.498,0.583-1.037,0.73-1.615c0.147-0.578,0.222-1.139,0.222-1.683c0-1.541-0.369-2.72-1.104-3.536
				C278.686,123.875,277.581,123.467,276.107,123.467z"/>
			<path style="fill:#FFFFFF;" d="M208.041,169.333c0.137-1.813,0.459-3.723,0.97-5.729c0.51-2.006,1.139-3.955,1.887-5.848
				c0.748-1.892,1.569-3.649,2.465-5.27c0.896-1.62,1.773-2.941,2.636-3.961h-11.459v-2.754h14.994v2.618
				c-0.748,0.861-1.575,2.046-2.482,3.553c-0.906,1.508-1.762,3.196-2.566,5.066c-0.805,1.87-1.496,3.865-2.074,5.984
				c-0.578,2.12-0.935,4.233-1.07,6.341H208.041z"/>
			<path style="fill:#FFFFFF;" d="M251.73,163.213c0,0.952-0.164,1.831-0.492,2.635c-0.329,0.805-0.816,1.507-1.463,2.108
				c-0.646,0.601-1.456,1.065-2.431,1.394c-0.975,0.328-2.097,0.493-3.366,0.493c-1.474,0-2.703-0.209-3.688-0.629
				c-0.986-0.419-1.774-0.946-2.363-1.581c-0.59-0.634-1.009-1.331-1.258-2.091c-0.25-0.759-0.374-1.479-0.374-2.159
				c0-0.657,0.107-1.286,0.322-1.887c0.216-0.601,0.499-1.162,0.851-1.683c0.351-0.521,0.759-0.991,1.224-1.411
				c0.465-0.419,0.957-0.787,1.479-1.105c-2.222-1.269-3.332-3.139-3.332-5.61c0-0.861,0.17-1.683,0.51-2.465
				c0.341-0.782,0.821-1.467,1.445-2.057c0.623-0.589,1.377-1.06,2.261-1.411c0.885-0.351,1.87-0.527,2.958-0.527
				c1.269,0,2.357,0.193,3.265,0.578c0.906,0.386,1.648,0.878,2.227,1.479s0.997,1.264,1.258,1.989
				c0.26,0.726,0.391,1.428,0.391,2.108c0,0.658-0.096,1.275-0.289,1.853c-0.192,0.578-0.453,1.117-0.781,1.615
				c-0.329,0.499-0.703,0.941-1.122,1.326c-0.42,0.386-0.856,0.726-1.31,1.02C250.325,158.465,251.686,160.471,251.73,163.213z
				 M239.49,163.417c0,0.408,0.074,0.833,0.222,1.275s0.401,0.85,0.765,1.224s0.828,0.686,1.395,0.935
				c0.566,0.25,1.279,0.374,2.142,0.374c0.771,0,1.445-0.113,2.022-0.34c0.578-0.226,1.049-0.515,1.412-0.867
				c0.361-0.351,0.634-0.753,0.815-1.207c0.181-0.453,0.272-0.918,0.272-1.394c0-0.725-0.137-1.36-0.408-1.904
				s-0.663-1.02-1.174-1.428c-0.51-0.408-1.121-0.753-1.836-1.037c-0.713-0.283-1.523-0.527-2.43-0.731
				c-1.021,0.567-1.809,1.27-2.363,2.108C239.768,161.264,239.49,162.262,239.49,163.417z M247.99,151.348
				c0-0.34-0.073-0.714-0.221-1.122c-0.147-0.408-0.379-0.788-0.697-1.139c-0.317-0.351-0.725-0.646-1.224-0.884
				c-0.499-0.238-1.11-0.357-1.836-0.357s-1.343,0.113-1.853,0.34s-0.924,0.516-1.241,0.867s-0.55,0.737-0.697,1.156
				c-0.147,0.42-0.221,0.833-0.221,1.241c0,0.499,0.091,0.998,0.272,1.496c0.181,0.499,0.464,0.964,0.85,1.394
				c0.385,0.431,0.889,0.816,1.513,1.156c0.623,0.34,1.365,0.612,2.228,0.816c0.951-0.566,1.711-1.229,2.277-1.989
				C247.707,153.563,247.99,152.571,247.99,151.348z"/>
			<path style="fill:#FFFFFF;" d="M283.385,155.189c0,4.67-1.162,8.2-3.486,10.591c-2.323,2.392-5.773,3.598-10.353,3.621
				l-0.102-2.652c1.428,0,2.714-0.136,3.858-0.408s2.147-0.708,3.01-1.309c0.861-0.601,1.58-1.377,2.158-2.329
				c0.578-0.952,1.004-2.119,1.275-3.502c-0.59,0.272-1.258,0.493-2.006,0.663c-0.748,0.17-1.52,0.255-2.313,0.255
				c-1.338,0-2.471-0.198-3.399-0.595c-0.93-0.396-1.688-0.929-2.278-1.598c-0.59-0.668-1.015-1.439-1.275-2.312
				c-0.26-0.872-0.391-1.785-0.391-2.737c0-0.838,0.147-1.711,0.441-2.618c0.295-0.906,0.742-1.734,1.344-2.482
				c0.6-0.748,1.365-1.36,2.295-1.836s2.028-0.714,3.298-0.714c1.292,0,2.431,0.227,3.417,0.68s1.813,1.111,2.482,1.972
				c0.668,0.862,1.173,1.91,1.513,3.145C283.214,152.26,283.385,153.648,283.385,155.189z M275.768,157.536
				c0.793,0,1.541-0.073,2.244-0.221c0.703-0.147,1.383-0.368,2.041-0.663c0.021-0.249,0.033-0.493,0.033-0.731
				c0-0.238,0-0.481,0-0.731c0-0.974-0.068-1.909-0.203-2.805c-0.137-0.895-0.381-1.677-0.732-2.346
				c-0.352-0.668-0.821-1.201-1.41-1.598c-0.59-0.396-1.338-0.595-2.244-0.595c-0.748,0-1.383,0.159-1.904,0.476
				c-0.521,0.318-0.951,0.72-1.291,1.207c-0.341,0.488-0.584,1.02-0.731,1.598s-0.222,1.139-0.222,1.683
				c0,1.542,0.369,2.715,1.105,3.519C273.189,157.133,274.295,157.536,275.768,157.536z"/>
			<path style="fill:#FFFFFF;" d="M212.189,180.043c0,0.952-0.085,1.865-0.255,2.737c-0.17,0.873-0.346,1.774-0.526,2.703
				c0.815-0.453,1.619-0.896,2.413-1.325c0.794-0.432,1.654-0.805,2.584-1.123l0.204-0.068l0.952,2.857l-0.272,0.102
				c-0.906,0.34-1.813,0.561-2.72,0.662c-0.907,0.103-1.836,0.188-2.788,0.256c0.748,0.635,1.451,1.252,2.108,1.853
				s1.269,1.298,1.836,2.091l0.17,0.238l-2.481,1.734l-0.137-0.204c-0.544-0.816-1.015-1.626-1.41-2.431
				c-0.397-0.805-0.8-1.638-1.207-2.5c-0.408,0.862-0.812,1.695-1.207,2.5c-0.397,0.805-0.867,1.614-1.412,2.431l-0.136,0.204
				l-2.481-1.734l0.17-0.238c0.566-0.793,1.178-1.49,1.836-2.091c0.656-0.601,1.359-1.218,2.107-1.853
				c-0.951-0.068-1.881-0.153-2.787-0.256c-0.907-0.102-1.814-0.322-2.721-0.662l-0.271-0.102l0.951-2.857l0.205,0.068
				c0.929,0.318,1.789,0.691,2.584,1.123c0.793,0.43,1.598,0.872,2.414,1.325c-0.182-0.929-0.357-1.83-0.527-2.703
				c-0.17-0.872-0.256-1.785-0.256-2.737v-0.272h3.061V180.043z"/>
			<path style="fill:#FFFFFF;" d="M233.27,191.535c0-3.943,0.696-6.98,2.09-9.111c1.395-2.131,3.326-3.196,5.797-3.196
				s4.404,1.065,5.797,3.196c1.395,2.131,2.092,5.168,2.092,9.111c0,3.944-0.697,6.982-2.092,9.112
				c-1.393,2.131-3.326,3.196-5.797,3.196s-4.402-1.065-5.797-3.196C233.966,198.518,233.27,195.479,233.27,191.535z
				 M245.713,191.535c0-1.291-0.074-2.516-0.221-3.672c-0.148-1.156-0.396-2.164-0.748-3.025s-0.822-1.547-1.411-2.058
				c-0.59-0.51-1.315-0.765-2.177-0.765s-1.586,0.255-2.176,0.765c-0.59,0.511-1.06,1.196-1.41,2.058
				c-0.352,0.861-0.602,1.869-0.748,3.025c-0.148,1.156-0.221,2.381-0.221,3.672c0,1.293,0.072,2.516,0.221,3.672
				c0.146,1.156,0.396,2.166,0.748,3.026c0.351,0.862,0.82,1.547,1.41,2.058c0.59,0.51,1.314,0.765,2.176,0.765
				s1.587-0.255,2.177-0.765c0.589-0.511,1.06-1.195,1.411-2.058c0.352-0.86,0.6-1.87,0.748-3.026
				C245.639,194.051,245.713,192.828,245.713,191.535z"/>
			<path style="fill:#FFFFFF;" d="M273.15,185.994h5.508l1.189-6.223h2.856l-1.19,6.223h2.992v2.516h-3.502l-1.156,6.086h4.658
				v2.516h-5.134l-1.19,6.223h-2.855l1.189-6.223h-5.508l-1.189,6.223h-2.856l1.19-6.223h-2.992v-2.516h3.468l1.156-6.086h-4.624
				v-2.516h5.134l1.19-6.223h2.855L273.15,185.994z M271.484,194.596h5.508l1.189-6.086h-5.508L271.484,194.596z"/>
		</g>
		<g>
			<g>
				<path style="fill:#FFFFFF;" d="M289.366,202.999c-0.629,5.338-8.792,3.87-11.919,3.87c-6.699,0-13.398,0-20.098,0
					c-15.17,0-30.34,0-45.509,0c-3.261,0-6.521,0-9.782,0c-5.006,0-4.059-5.882-4.059-8.593c0-12.063,0-24.127,0-36.19
					c0-27.392,0-54.784,0-82.175c0-2.952,0.174-6.744,4.739-6.744c4.22,0,8.438,0,12.658,0c15.523,0,31.048,0,46.571,0
					c6.095,0,12.189,0,18.285,0c2.829,0,9.112-0.987,9.112,4.13c0,8.511,0,17.022,0,25.533c0,29.802,0,59.604,0,89.407
					C289.366,195.824,289.366,199.411,289.366,202.999c0,1.935,3,1.935,3,0c0-22.824,0-45.649,0-68.473c0-14.537,0-29.075,0-43.612
					c0-6.427,2.38-17.858-5.338-20.552c-2.543-0.888-6.389-0.195-8.979-0.195c-6.586,0-13.173,0-19.76,0
					c-15.257,0-30.514,0-45.771,0c-6.494,0-17.518-1.91-17.518,7.7c0,9.444,0,18.888,0,28.332c0,29.429,0,58.858,0,88.287
					c0,6.241-1.324,15.384,7.739,15.384c11.669,0,23.338,0,35.006,0c12.367,0,24.735,0,37.103,0c6.396,0,16.48,1.937,17.519-6.87
					C292.593,201.08,289.59,201.102,289.366,202.999z"/>
			</g>
		</g>
		<g>
			<g>
				<path style="fill:#FFFFFF;" d="M196.5,107.833c31.455,0,62.911,0,94.366,0c1.935,0,1.935-3,0-3c-31.455,0-62.911,0-94.366,0
					C194.565,104.833,194.565,107.833,196.5,107.833L196.5,107.833z"/>
			</g>
		</g>
		<g>
			<g>
				<path style="fill:#FFFFFF;" d="M196.5,141.518c31.111,0,62.222,0,93.333,0c1.935,0,1.935-3,0-3c-31.111,0-62.222,0-93.333,0
					C194.565,138.518,194.565,141.518,196.5,141.518L196.5,141.518z"/>
			</g>
		</g>
		<g>
			<g>
				<path style="fill:#FFFFFF;" d="M196.5,177.167c31.455,0,62.911,0,94.366,0c1.935,0,1.935-3,0-3c-31.455,0-62.911,0-94.366,0
					C194.565,174.167,194.565,177.167,196.5,177.167L196.5,177.167z"/>
			</g>
		</g>
		<g>
			<g>
				<path style="fill:#FFFFFF;" d="M225.583,71.667c0,45.454,0,90.907,0,136.361c0,0.113,0,0.228,0,0.341c0,1.935,3,1.935,3,0
					c0-45.454,0-90.907,0-136.361c0-0.114,0-0.228,0-0.341C228.583,69.732,225.583,69.732,225.583,71.667L225.583,71.667z"/>
			</g>
		</g>
		<g>
			<g>
				<path style="fill:#FFFFFF;" d="M259.333,71.667c0,45.454,0,90.907,0,136.361c0,0.113,0,0.228,0,0.341c0,1.935,3,1.935,3,0
					c0-45.454,0-90.907,0-136.361c0-0.114,0-0.228,0-0.341C262.333,69.732,259.333,69.732,259.333,71.667L259.333,71.667z"/>
			</g>
		</g>
	</g>
</g>
<g id="Ebene_1">
</g>
</svg>
