<svg xmlns="http://www.w3.org/2000/svg" viewBox="20 20 321 321">
<path fill="none" stroke="#fff" stroke-width="10" d="M199.1,70.7c0,1.6-1.3,2.8-2.8,2.8h-70.9c-1.6,0-2.8-1.3-2.8-2.8V57.5c0-1.6,1.3-2.8,2.8-2.8h70.9
	c1.6,0,2.8,1.3,2.8,2.8V70.7z"/>
<g fill="#fff">
	<path d="M185.1,111.9c-14.1,13.5-35.8,13.5-49.9,0c-1.4-1.3-3.5,0.8-2.1,2.1c15.3,14.7,38.9,14.7,54.1,0
		C188.6,112.7,186.5,110.6,185.1,111.9z"/>
	<path d="M268.2,224.8c-28.4,28.1-66.5,44.1-106.5,44.4c-40.3,0.4-79.3-16.2-107.8-44.4c-1.4-1.4-3.5,0.8-2.1,2.1
		c28.9,28.7,67.8,44.9,108.6,45.3c41.1,0.4,80.9-16.5,110-45.3C271.7,225.6,269.5,223.5,268.2,224.8L268.2,224.8z"/>
	<path d="M185.6,73.6c-0.3,13.7-11,24.4-24.8,24.8s-24.4-11.5-24.8-24.8c-0.1-4.5-7.1-4.5-7,0c0.4,17.6,14.2,31.3,31.8,31.8
		c17.6,0.4,31.3-14.8,31.8-31.8C192.7,69.1,185.7,69.1,185.6,73.6z"/>
	<path d="M173.5,77.8c-0.2,7.4-3.5,17.9-12.5,18.3c-1.9,0.1-1.9,3.1,0,3c10.7-0.5,15.3-12.1,15.5-21.3
		C176.6,75.9,173.6,75.9,173.5,77.8z"/>
	<path d="M144.8,77.8c0.2,9.6,5.3,20.9,16.2,21.3c1.9,0.1,1.9-2.9,0-3c-9.2-0.4-13-10.5-13.2-18.3C147.8,75.9,144.8,75.9,144.8,77.8
		z"/>
	<path d="M159.3,77.8c0,6.6,0,13.2,0,19.8c0,1.9,3,1.9,3,0c0-6.6,0-13.2,0-19.8C162.3,75.9,159.3,75.9,159.3,77.8z"/>
	<path d="M132.9,112.2c-27,37.4-53.9,74.9-80.9,112.3c-0.1,0.2-0.3,0.4-0.4,0.6c-1.1,1.6,1.5,3.1,2.6,1.5
		c27-37.4,53.9-74.9,80.9-112.3c0.1-0.2,0.3-0.4,0.4-0.6C136.6,112.2,134,110.7,132.9,112.2z"/>
	<path d="M185.1,114.1c10.1,12.9,20.2,25.8,30.3,38.6c1.2,1.5,3.3-0.6,2.1-2.1c-10.1-12.9-20.2-25.8-30.3-38.6
		C186,110.4,183.9,112.6,185.1,114.1L185.1,114.1z"/>
	<path d="M259.3,215.6c3.5,4.5,5.3,6.8,8.8,11.3c1.2,1.5,3.3-0.6,2.1-2.1c-3.5-4.5-5.3-6.8-8.8-11.3
		C260.3,212,258.2,214.1,259.3,215.6z"/>
</g>
<g fill="#fff">
	<path d="M200.7,119.2c5.7,5.7,11.4,11.4,17.1,17.1c3.6,3.5,9.1-2,5.5-5.5c-5.7-5.7-11.4-11.4-17.1-17.1
		C202.7,110.1,197.2,115.6,200.7,119.2z"/>
	<path d="M164.1,171.6c15.2,0,30.3,0,45.5,0c5,0,5-7.8,0-7.8c-15.2,0-30.3,0-45.5,0C159.1,163.8,159.1,171.6,164.1,171.6z"/>
	<path d="M313.1,219.2c-5.8-5.8-11.5-11.5-17.3-17.3c-3.5-3.6-9.1,2-5.5,5.5c5.8,5.8,11.5,11.5,17.3,17.3
		C311.1,228.2,316.6,222.7,313.1,219.2z"/>
	<path d="M261.4,261.1c0-15.2,0-30.3,0-45.5c0-5-7.8-5-7.8,0c0,15.2,0,30.3,0,45.5C253.6,266.2,261.4,266.2,261.4,261.1z"/>
	<path d="M192.5,239.6c10.7-10.7,21.5-21.5,32.2-32.2c3.5-3.5-2-9.1-5.5-5.5c-10.7,10.7-21.5,21.5-32.2,32.2
		C183.5,237.6,189,243.1,192.5,239.6z"/>
	<path d="M164.1,171.6c15.2,0,30.3,0,45.5,0c5,0,5-7.8,0-7.8c-15.2,0-30.3,0-45.5,0C159.1,163.8,159.1,171.6,164.1,171.6z"/>
	<path d="M261.4,261.1c0-15.2,0-30.3,0-45.5c0-5-7.8-5-7.8,0c0,15.2,0,30.3,0,45.5C253.6,266.2,261.4,266.2,261.4,261.1z"/>
	<path d="M192.5,239.6c10.7-10.7,21.5-21.5,32.2-32.2c3.5-3.5-2-9.1-5.5-5.5c-10.7,10.7-21.5,21.5-32.2,32.2
		C183.5,237.6,189,243.1,192.5,239.6z"/>
	<path d="M196.2,147.2c4.3,1.8,8.5,3.5,12.8,5.3c2,0.8,4.3-0.9,4.8-2.7c0.6-2.2-0.8-4-2.7-4.8c-4.3-1.8-8.5-3.5-12.8-5.3
		c-2-0.8-4.3,0.9-4.8,2.7C192.9,144.7,194.2,146.4,196.2,147.2z"/>
	<path d="M198.7,198.1c4.3-1.8,8.5-3.5,12.8-5.3c2-0.8,3.3-2.5,2.7-4.8c-0.5-1.9-2.8-3.5-4.8-2.7c-4.3,1.8-8.5,3.5-12.8,5.3
		c-2,0.8-3.3,2.5-2.7,4.8C194.4,197.2,196.7,198.9,198.7,198.1z"/>
	<path d="M236.6,228.7c1.8-4.3,3.5-8.5,5.3-12.8c0.8-2-0.9-4.3-2.7-4.8c-2.2-0.6-4,0.8-4.8,2.7c-1.8,4.3-3.5,8.5-5.3,12.8
		c-0.8,2,0.9,4.3,2.7,4.8C234.1,232,235.8,230.6,236.6,228.7z"/>
	<path d="M285.5,226.6c-1.8-4.3-3.5-8.5-5.3-12.8c-0.8-2-2.5-3.3-4.8-2.7c-1.9,0.5-3.5,2.8-2.7,4.8c1.8,4.3,3.5,8.5,5.3,12.8
		c0.8,2,2.5,3.3,4.8,2.7C284.6,230.9,286.3,228.6,285.5,226.6z"/>
	<path d="M229.2,117.3c1,2.4,2,4.7,2.9,7.1c0.8,2,2.5,3.3,4.8,2.7c1.9-0.5,3.5-2.8,2.7-4.8c-1-2.4-2-4.7-2.9-7.1
		c-0.8-2-2.5-3.3-4.8-2.7C230,113.1,228.4,115.4,229.2,117.3z"/>
	<path d="M311.9,186.8c-2.5-1-4.9-2-7.4-3.1c-2-0.8-4.3,0.9-4.8,2.7c-0.6,2.2,0.8,4,2.7,4.8c2.5,1,4.9,2,7.4,3.1
		c2,0.8,4.3-0.9,4.8-2.7C315.2,189.3,313.8,187.6,311.9,186.8z"/>
</g>
<path fill="none" stroke="#fff" stroke-width="10" d="M289.7,179.1c0,10.3-8.4,18.7-18.7,18.7h-24c-10.3,0-18.7-8.4-18.7-18.7v-22.8c0-10.3,8.4-18.7,18.7-18.7h24
	c10.3,0,18.7,8.4,18.7,18.7V179.1z"/>
</svg>
