<svg version="1.0" id="Layer_1" xmlns="http://www.w3.org/2000/svg" xmlns:xlink="http://www.w3.org/1999/xlink" x="0px" y="0px"
	 viewBox="0 0 321 321" enable-background="new 0 0 321 321" xml:space="preserve">
<path fill="none" stroke="#fff" stroke-width="10" d="M199.1,70.7c0,1.6-1.3,2.8-2.8,2.8h-70.9c-1.6,0-2.8-1.3-2.8-2.8V57.5
	c0-1.6,1.3-2.8,2.8-2.8h70.9c1.6,0,2.8,1.3,2.8,2.8V70.7z"/>
<g fill="#fff">
	<path d="M185.1,111.9c-14.1,13.5-35.8,13.5-49.9,0c-1.4-1.3-3.5,0.8-2.1,2.1c15.3,14.7,38.9,14.7,54.1,0
		C188.6,112.7,186.5,110.6,185.1,111.9z"/>
	<path d="M268.2,224.8c-28.4,28.1-66.5,44.1-106.5,44.4c-40.3,0.4-79.3-16.2-107.8-44.4c-1.4-1.4-3.5,0.8-2.1,2.1
		c28.9,28.7,67.8,44.9,108.6,45.3c41.1,0.4,80.9-16.5,110-45.3C271.7,225.6,269.5,223.5,268.2,224.8L268.2,224.8z"/>
	<path d="M185.6,73.6c-0.3,13.7-11,24.4-24.8,24.8S136.4,86.9,136,73.6c-0.1-4.5-7.1-4.5-7,0c0.4,17.6,14.2,31.3,31.8,31.8
		c17.6,0.4,31.3-14.8,31.8-31.8C192.7,69.1,185.7,69.1,185.6,73.6z"/>
	<path d="M173.5,77.8c-0.2,7.4-3.5,17.9-12.5,18.3c-1.9,0.1-1.9,3.1,0,3c10.7-0.5,15.3-12.1,15.5-21.3
		C176.6,75.9,173.6,75.9,173.5,77.8z"/>
	<path d="M144.8,77.8c0.2,9.6,5.3,20.9,16.2,21.3c1.9,0.1,1.9-2.9,0-3c-9.2-0.4-13-10.5-13.2-18.3C147.8,75.9,144.8,75.9,144.8,77.8
		z"/>
	<path d="M159.3,77.8c0,6.6,0,13.2,0,19.8c0,1.9,3,1.9,3,0c0-6.6,0-13.2,0-19.8C162.3,75.9,159.3,75.9,159.3,77.8z"/>
	<path d="M132.9,112.2c-27,37.4-53.9,74.9-80.9,112.3c-0.1,0.2-0.3,0.4-0.4,0.6c-1.1,1.6,1.5,3.1,2.6,1.5
		c27-37.4,53.9-74.9,80.9-112.3c0.1-0.2,0.3-0.4,0.4-0.6C136.6,112.2,134,110.7,132.9,112.2z"/>
	<path d="M184.9,113.8c27.5,37.3,54.9,74.7,82.4,112c0.2,0.3,0.4,0.6,0.7,0.9c1.1,1.5,3.7,0,2.6-1.5c-27.5-37.3-54.9-74.7-82.4-112
		c-0.2-0.3-0.4-0.6-0.7-0.9C186.3,110.7,183.7,112.2,184.9,113.8z"/>
</g>
<g fill="#fff">
	<path d="M124.1,240.8c12.5,0,25.1,0,37.6,0c3.5,0,3.5-5.6,0-5.6c-12.5,0-25.1,0-37.6,0C120.5,235.2,120.5,240.8,124.1,240.8z"/>
	<path d="M125.8,225.7c11.9,0,23.9,0,35.8,0c3.5,0,3.5-5.6,0-5.6c-11.9,0-23.9,0-35.8,0C122.3,220.2,122.3,225.7,125.8,225.7z"/>
	<path d="M125.8,210.7c11.9,0,23.9,0,35.8,0c3.5,0,3.5-5.6,0-5.6c-11.9,0-23.9,0-35.8,0C122.3,205.1,122.3,210.7,125.8,210.7z"/>
	<path fill="none" stroke="#fff" stroke-width="10" d="M123.2,193.9c0-1.7,1.5-3.1,3.4-3.1h67.7c1.9,0,3.4,1.4,3.4,3.1v55
		c0,1.7-1.5,3.1-3.4,3.1h-67.7c-1.9,0-3.4-1.4-3.4-3.1V193.9z"/>
	<path d="M137,186.7c0-3.4,0-6.8,0-10.1c0-2.1,0-4.3,0-6.4c0-0.7,0-1.3,0-2c0-1.3-0.2,0.5,0-0.1c-0.3,1,0.7-1.2,0.9-1.6
		c0.6-1,1.3-2,2-2.9c1.5-2,3.1-4,4.9-5.8c0.3-0.4,0.7-0.7,1.1-1c1-0.9-0.6,0.4,0.2-0.2c0.7-0.5-2.1,0.3-1.3,0.3c1.1,0,2.2,0,3.4,0
		c8.8,0,17.5,0,26.3,0c1,0,2,0,3,0c0.8,0-2-0.7-1.2-0.3c-1-0.6,0.1,0.1,0.3,0.2c0.5,0.4,1,0.9,1.4,1.4c1.6,1.7,3.1,3.5,4.5,5.4
		c0.7,0.9,1.4,1.9,2,2.9c0.3,0.4,0.5,0.8,0.8,1.3c0.1,0.2,0.3,0.5,0.4,0.7c-0.2-0.6-0.3-0.7-0.1-0.2c-0.3-1-0.1-0.8-0.1-0.2
		c0,0.7,0,1.3,0,2c0,2.1,0,4.3,0,6.4c0,3.4,0,6.8,0,10.1c0,5.8,9,5.9,9,0.1c0-3.4,0-6.8,0-10.1s0.6-7.1-0.2-10.3
		c-1-4.5-5.1-8.8-7.9-12.1c-2.2-2.6-5.1-6.2-8.9-6.2c-8,0-16,0-24,0c-2.9,0-5.7,0-8.6,0c-4.1,0-7.3,4.4-9.6,7.3
		c-2.3,2.8-4.6,5.7-6.2,8.9c-1,2.1-1,3.9-1,6.1c0,5.5,0,11,0,16.5C128,192.4,137,192.5,137,186.7L137,186.7z"/>
</g>
</svg>
