<svg xmlns="http://www.w3.org/2000/svg" viewBox="0 0 321 321">
<path fill="none" stroke="#fff" stroke-width="10" d="M199.1,70.7c0,1.6-1.3,2.8-2.8,2.8h-70.9c-1.6,0-2.8-1.3-2.8-2.8V57.5c0-1.6,1.3-2.8,2.8-2.8h70.9
	c1.6,0,2.8,1.3,2.8,2.8V70.7z"/>
<g fill="#fff">
	<path d="M185.1,111.9c-14.1,13.5-35.8,13.5-49.9,0c-1.4-1.3-3.5,0.8-2.1,2.1c15.3,14.7,38.9,14.7,54.1,0
		C188.6,112.7,186.5,110.6,185.1,111.9z"/>
	<path d="M268.2,224.8c-28.4,28.1-66.5,44.1-106.5,44.4c-40.3,0.4-79.3-16.2-107.8-44.4c-1.4-1.4-3.5,0.8-2.1,2.1
		c28.9,28.7,67.8,44.9,108.6,45.3c41.1,0.4,80.9-16.5,110-45.3C271.7,225.6,269.5,223.5,268.2,224.8L268.2,224.8z"/>
	<path d="M185.6,73.6c-0.3,13.7-11,24.4-24.8,24.8s-24.4-11.5-24.8-24.8c-0.1-4.5-7.1-4.5-7,0c0.4,17.6,14.2,31.3,31.8,31.8
		c17.6,0.4,31.3-14.8,31.8-31.8C192.7,69.1,185.7,69.1,185.6,73.6z"/>
	<path d="M173.5,77.8c-0.2,7.4-3.5,17.9-12.5,18.3c-1.9,0.1-1.9,3.1,0,3c10.7-0.5,15.3-12.1,15.5-21.3
		C176.6,75.9,173.6,75.9,173.5,77.8z"/>
	<path d="M144.8,77.8c0.2,9.6,5.3,20.9,16.2,21.3c1.9,0.1,1.9-2.9,0-3c-9.2-0.4-13-10.5-13.2-18.3C147.8,75.9,144.8,75.9,144.8,77.8
		z"/>
	<path d="M159.3,77.8c0,6.6,0,13.2,0,19.8c0,1.9,3,1.9,3,0c0-6.6,0-13.2,0-19.8C162.3,75.9,159.3,75.9,159.3,77.8z"/>
	<path d="M132.9,112.2c-27,37.4-53.9,74.9-80.9,112.3c-0.1,0.2-0.3,0.4-0.4,0.6c-1.1,1.6,1.5,3.1,2.6,1.5
		c27-37.4,53.9-74.9,80.9-112.3c0.1-0.2,0.3-0.4,0.4-0.6C136.6,112.2,134,110.7,132.9,112.2z"/>
	<path d="M184.9,113.8c27.5,37.3,54.9,74.7,82.4,112c0.2,0.3,0.4,0.6,0.7,0.9c1.1,1.5,3.7,0,2.6-1.5c-27.5-37.3-54.9-74.7-82.4-112
		c-0.2-0.3-0.4-0.6-0.7-0.9C186.3,110.7,183.7,112.2,184.9,113.8z"/>
</g>
<g>
	<g>
		<line fill="none" stroke="#fff" stroke-width="5" x1="221.6" y1="100.3" x2="280.4" y2="183"/>
		<g>
			<polygon fill="#fff" points="265.6,188 299.5,209.6 290,170.8"/>
		</g>
	</g>
</g>
<line fill="none" stroke="#fff" stroke-width="5" x1="196.9" y1="125.1" x2="176.5" y2="138"/>
<line fill="none" stroke="#fff" stroke-width="5" x1="207.1" y1="142.5" x2="186.7" y2="155.4"/>
<line fill="none" stroke="#fff" stroke-width="5" x1="219" y1="159.9" x2="198.6" y2="172.8"/>
<line fill="none" stroke="#fff" stroke-width="5" x1="232.1" y1="177.2" x2="211.7" y2="190.2"/>
<line fill="none" stroke="#fff" stroke-width="5" x1="244.1" y1="194" x2="223.7" y2="207"/>
<line fill="none" stroke="#fff" stroke-width="5" x1="257.6" y1="211.5" x2="237.2" y2="224.4"/>
</svg>
