<svg xmlns="http://www.w3.org/2000/svg" viewBox="20 20 321 321">
<path fill="none" stroke="#fff" stroke-width="10" d="M179.1,50.7c0,1.6-1.3,2.8-2.8,2.8h-70.9c-1.6,0-2.8-1.3-2.8-2.8V37.5c0-1.6,1.3-2.8,2.8-2.8h70.9
	c1.6,0,2.8,1.3,2.8,2.8V50.7z"/>
<g fill="#fff">
	<path d="M165.1,91.9c-14.1,13.5-35.8,13.5-49.9,0c-1.4-1.3-3.5,0.8-2.1,2.1c15.3,14.7,38.9,14.7,54.1,0
		C168.6,92.7,166.5,90.6,165.1,91.9z"/>
	<path d="M248.2,204.8c-28.4,28.1-66.5,44.1-106.5,44.4c-40.3,0.4-79.3-16.2-107.8-44.4c-1.4-1.4-3.5,0.8-2.1,2.1
		c28.9,28.7,67.8,44.9,108.6,45.3c41.1,0.4,80.9-16.5,110-45.3C251.7,205.6,249.5,203.5,248.2,204.8L248.2,204.8z"/>
	<path d="M165.6,53.6c-0.3,13.7-11,24.4-24.8,24.8S116.4,66.9,116,53.6c-0.1-4.5-7.1-4.5-7,0c0.4,17.6,14.2,31.3,31.8,31.8
		c17.6,0.4,31.3-14.8,31.8-31.8C172.7,49.1,165.7,49.1,165.6,53.6z"/>
	<path d="M153.5,57.8c-0.2,7.4-3.5,17.9-12.5,18.3c-1.9,0.1-1.9,3.1,0,3c10.7-0.5,15.3-12.1,15.5-21.3
		C156.6,55.9,153.6,55.9,153.5,57.8z"/>
	<path d="M124.8,57.8c0.2,9.6,5.3,20.9,16.2,21.3c1.9,0.1,1.9-2.9,0-3c-9.2-0.4-13-10.5-13.2-18.3C127.8,55.9,124.8,55.9,124.8,57.8
		z"/>
	<path d="M139.3,57.8c0,6.6,0,13.2,0,19.8c0,1.9,3,1.9,3,0c0-6.6,0-13.2,0-19.8C142.3,55.9,139.3,55.9,139.3,57.8z"/>
	<path d="M112.9,92.2C85.9,129.6,59,167.1,32,204.5c-0.1,0.2-0.3,0.4-0.4,0.6c-1.1,1.6,1.5,3.1,2.6,1.5
		c27-37.4,53.9-74.9,80.9-112.3c0.1-0.2,0.3-0.4,0.4-0.6C116.6,92.2,114,90.7,112.9,92.2z"/>
	<path d="M165.1,94.1c10.1,12.9,14.6,19,24.7,31.8c1.2,1.5,3.3-0.6,2.1-2.1c-10.1-12.9-14.6-19-24.7-31.8
		C166,90.4,163.9,92.6,165.1,94.1L165.1,94.1z"/>
	<path d="M239.3,195.6c3.5,4.5,5.3,6.8,8.8,11.3c1.2,1.5,3.3-0.6,2.1-2.1c-3.5-4.5-5.3-6.8-8.8-11.3
		C240.3,192,238.2,194.1,239.3,195.6z"/>
</g>
<g fill="#fff">
	<path d="M209.3,213.7c-8.7-11.2-17.5-22.3-26.2-33.6c-1.9-2.5-5.4,1-3.5,3.5c8.7,11.2,17.5,22.3,26.2,33.6
		C207.8,219.8,211.3,216.2,209.3,213.7L209.3,213.7z"/>
	<path d="M135.9,148.6c18.8-26,56.8-30.8,81.5-10.4c25,20.6,26.9,58.7,5,82.3c-20,21.4-54.3,23.1-76.8,4.6
		C122.7,206.2,119.1,172.6,135.9,148.6c3.9-5.6-5.3-10.8-9.2-5.3c-19.1,27.3-14.7,65.5,10,88c25,22.7,63.6,22.3,89,0.5
		c25.4-21.7,29.7-60.8,11-88.1c-19.1-28-56.8-36.6-86.6-21.3c-9.4,4.9-17.3,12.2-23.4,20.7c-1.7,2.4-0.3,5.8,1.9,7.2
		C131.4,152.1,134.2,150.9,135.9,148.6L135.9,148.6z"/>
	<path d="M125,183.9c5.6,0,11.2,0,16.8,0c4.2,0,4.2-5,0-5c-5.6,0-11.2,0-16.8,0C120.9,179,120.9,183.9,125,183.9z"/>
	<path d="M220.6,183.9c5.7,0,11.5,0,17.1,0c4.3,0,4.3-5,0-5c-5.7,0-11.5,0-17.1,0C216.1,179,216.1,183.9,220.6,183.9z"/>
	<path d="M179.1,125.9c0,5.5,0,10.9,0,16.4c0,4.3,5,4.3,5,0c0-5.5,0-10.9,0-16.4C184,121.6,179.1,121.6,179.1,125.9z"/>
	<path d="M179.1,221.2c0,5.3,0,10.8,0,16.1c0,4.2,5,4.2,5,0c0-5.3,0-10.8,0-16.1C184,217.1,179.1,217.1,179.1,221.2z"/>
	<path d="M178.9,180.9c1-1.3,2.3-2.1,3.8-1.2c1.3,0.6,1.6,2.4,1,3.6c-0.6,1.3-2.4,1.6-3.6,1c-1.6-0.9-1.5-2.7-0.6-4
		c2.5-3.8-3.7-7.3-6-3.6c-2.6,4.1-1.9,9.8,2.1,12.8c4.1,3.2,10.3,2.8,13.5-1.4c3.2-4.1,2.8-10.3-1.4-13.5
		c-4.1-3.2-10.3-2.8-13.5,1.4c-1.2,1.5-1.5,3.5,0,5C175.1,182.1,177.7,182.4,178.9,180.9L178.9,180.9z"/>
</g>
</svg>
