<?xml version="1.0" encoding="iso-8859-1"?>
<!-- Generator: Adobe Illustrator 16.0.0, SVG Export Plug-In . SVG Version: 6.00 Build 0)  -->
<!DOCTYPE svg PUBLIC "-//W3C//DTD SVG 1.1//EN" "http://www.w3.org/Graphics/SVG/1.1/DTD/svg11.dtd">
<svg version="1.1" xmlns="http://www.w3.org/2000/svg" xmlns:xlink="http://www.w3.org/1999/xlink" x="0px" y="0px" width="361px"
	 height="361px" viewBox="0 0 361 361" style="enable-background:new 0 0 361 361;" xml:space="preserve">
<g id="sani_x5F_irrigation_x5F_pop_x5F_up_x5F_on">
	<g>
		<g>
			<g>
				<path style="fill:#FFFFFF;" d="M98.979,232.93c-0.053-10.6-0.604-22.099-6.002-31.521c-4.411-7.697-12.525-10.787-21.04-10.921
					c-1.936-0.03-1.933,2.97,0,3c8.132,0.128,14.804,3.073,18.936,10.285c4.887,8.53,5.059,19.622,5.106,29.156
					C95.989,234.864,98.989,234.864,98.979,232.93L98.979,232.93z"/>
			</g>
		</g>
		<g>
			<g>
				<path style="fill:#FFFFFF;" d="M104.937,232.93c-0.093-10.772-1.663-22.707-8.624-31.402
					c-6.079-7.594-14.81-10.899-24.376-11.039c-1.936-0.028-1.933,2.972,0,3c9.027,0.132,17.165,3.315,22.65,10.706
					c6.011,8.099,7.265,18.968,7.349,28.735C101.953,234.863,104.953,234.865,104.937,232.93L104.937,232.93z"/>
			</g>
		</g>
		<g>
			<g>
				<path style="fill:#FFFFFF;" d="M84.647,232.93c-0.024-7.925,0.431-16.981-2.604-24.5c-1.533-3.8-4.59-6.072-7.628-8.62
					c-1.472-1.234-3.605,0.877-2.121,2.121c2.799,2.348,5.679,4.379,7.094,7.886c2.827,7.004,2.236,15.741,2.259,23.113
					C81.653,234.864,84.653,234.864,84.647,232.93L84.647,232.93z"/>
			</g>
		</g>
		<g>
			<g>
				<path style="fill:#FFFFFF;" d="M90.604,232.93c-0.042-7.947,0.069-17.213-4.22-24.259c-2.749-4.516-7.876-6.597-12.273-9.096
					c-1.684-0.958-3.195,1.635-1.514,2.59c3.779,2.148,8.141,3.872,10.817,7.459c4.64,6.219,4.15,16.014,4.189,23.306
					C87.615,234.863,90.615,234.865,90.604,232.93L90.604,232.93z"/>
			</g>
		</g>
		<g>
			<g>
				<path style="fill:#FFFFFF;" d="M112.917,232.93c0.05-6.54-0.401-16.33,4.692-21.428c1.484-1.485,3.606-1.838,3.871-4.225
					c0.212-1.922-2.79-1.901-3,0c-0.015,0.139-4.115,3.34-4.735,4.269c-3.933,5.886-3.775,14.67-3.827,21.384
					C109.901,234.865,112.901,234.863,112.917,232.93L112.917,232.93z"/>
			</g>
		</g>
		<g>
			<g>
				<path style="fill:#FFFFFF;" d="M106.905,233.328c1.042-5.464,1.44-13.927,5.206-18.45c2.228-2.677,6.283-4.207,8.929-6.54
					c1.454-1.281-0.676-3.396-2.121-2.121c-2.81,2.477-6.803,3.985-9.2,6.865c-4.088,4.912-4.575,13.519-5.706,19.449
					C103.652,234.421,106.543,235.228,106.905,233.328L106.905,233.328z"/>
			</g>
		</g>
		<g>
			<g>
				<path style="fill:#FFFFFF;" d="M127.184,232.93c0.019-4.713-0.159-9.765,1.319-14.303c0.749-2.298,2.769-3.637,4.538-5.107
					c1.49-1.237-0.645-3.348-2.121-2.121c-1.997,1.658-3.902,3.126-4.968,5.57c-2.1,4.813-1.747,10.855-1.767,15.961
					C124.176,234.864,127.176,234.864,127.184,232.93L127.184,232.93z"/>
			</g>
		</g>
		<g>
			<g>
				<path style="fill:#FFFFFF;" d="M123.354,232.93c0.033-4.656-0.121-10.046,2.341-14.192c1.476-2.486,4.643-3.633,7.042-4.983
					c1.686-0.948,0.174-3.54-1.514-2.59c-2.77,1.559-5.949,2.865-7.802,5.592c-3.114,4.584-3.03,10.874-3.067,16.174
					C120.34,234.865,123.34,234.863,123.354,232.93L123.354,232.93z"/>
			</g>
		</g>
		<g>
			<g>
				<path style="fill:#FFFFFF;" d="M139.437,232.912c0.049-6.599-0.401-16.325,4.525-21.601c1.479-1.584,3.773-1.983,4.037-4.438
					c0.207-1.923-2.795-1.902-3,0c-0.014,0.133-3.935,3.174-4.574,4.095c-4.139,5.953-3.938,15.099-3.988,21.944
					C136.423,234.848,139.423,234.846,139.437,232.912L139.437,232.912z"/>
			</g>
		</g>
		<g>
			<g>
				<path style="fill:#FFFFFF;" d="M133.426,233.311c1.042-5.548,1.42-14.122,5.206-18.738c2.219-2.705,6.288-4.275,8.929-6.639
					c1.444-1.293-0.685-3.407-2.121-2.121c-2.806,2.511-6.811,4.057-9.2,6.97c-4.108,5.01-4.575,13.71-5.706,19.731
					C130.178,234.404,133.069,235.211,133.426,233.311L133.426,233.311z"/>
			</g>
		</g>
		<g>
			<g>
				<path style="fill:#FFFFFF;" d="M161.787,233.021c0.055-6.33-0.009-14.162,4.267-19.34c2.204-2.669,5.687-3.981,8.471-5.922
					c1.575-1.097,0.078-3.699-1.514-2.59c-3.325,2.315-7.266,3.863-9.745,7.218c-4.268,5.774-4.418,13.766-4.479,20.634
					C158.77,234.957,161.77,234.955,161.787,233.021L161.787,233.021z"/>
			</g>
		</g>
		<g>
			<g>
				<path style="fill:#FFFFFF;" d="M155.83,233.021c0.08-6.736,0.557-14.27,5.905-19.054c3.49-3.122,8.634-4.235,12.79-6.208
					c1.747-0.829,0.224-3.415-1.514-2.59c-4.775,2.266-9.969,3.608-13.987,7.203c-5.587,5-6.111,13.718-6.194,20.648
					C152.807,234.957,155.807,234.955,155.83,233.021L155.83,233.021z"/>
			</g>
		</g>
		<g>
			<g>
				<path style="fill:#FFFFFF;" d="M169.592,232.773c0.033-4.581-0.399-11.539,2.875-15.321c1.091-1.261,2.609-1.587,2.801-3.473
					c0.196-1.924-2.806-1.905-3,0c0.056-0.554-2.553,2.101-2.977,2.768c-2.832,4.458-2.663,11.005-2.698,16.026
					C166.579,234.709,169.579,234.707,169.592,232.773L169.592,232.773z"/>
			</g>
		</g>
		<g>
			<g>
				<path style="fill:#FFFFFF;" d="M165.59,233.172c0.718-4.159,0.955-9.753,3.371-13.398c1.249-1.885,4.229-3.139,5.868-4.733
					c1.388-1.352-0.735-3.471-2.121-2.121c-1.872,1.821-4.577,3.003-6.148,5.09c-2.841,3.772-3.097,9.935-3.862,14.366
					C162.371,234.267,165.261,235.076,165.59,233.172L165.59,233.172z"/>
			</g>
		</g>
		<g>
			<g>
				<path style="fill:#FFFFFF;" d="M149.796,232.885c-0.023-6.19,1.277-16.4-4.54-20.456c-1.591-1.11-3.089,1.492-1.515,2.59
					c0.888,0.619,1.206,0.58,1.647,1.779c1.808,4.904,1.388,10.975,1.407,16.087C146.804,234.819,149.804,234.819,149.796,232.885
					L149.796,232.885z"/>
			</g>
		</g>
		<g>
			<g>
				<path style="fill:#FFFFFF;" d="M155.776,232.486c-0.786-4.545-1.104-10.401-3.748-14.385c-1.517-2.284-4.518-3.544-6.468-5.438
					c-1.388-1.349-3.511,0.771-2.121,2.121c1.789,1.738,4.133,2.878,5.84,4.646c0.921,0.954,1.246,2.514,1.586,3.741
					c0.917,3.305,1.434,6.737,2.018,10.111C153.212,235.188,156.103,234.378,155.776,232.486L155.776,232.486z"/>
			</g>
		</g>
		<g>
			<g>
				<path style="fill:#FFFFFF;" d="M217.033,232.87c0.093-13.517,2.484-28.794,18.923-29.106c1.933-0.037,1.936-3.037,0-3
					c-6.797,0.129-12.677,2.247-16.761,7.867c-4.85,6.672-5.108,16.36-5.162,24.239C214.02,234.806,217.02,234.804,217.033,232.87
					L217.033,232.87z"/>
			</g>
		</g>
		<g>
			<g>
				<path style="fill:#FFFFFF;" d="M212.27,232.87c0.183-15.327,6.78-28.81,23.687-29.106c1.933-0.034,1.936-3.034,0-3
					c-7.428,0.13-14.286,2.372-19.37,7.969c-5.843,6.432-7.217,15.794-7.316,24.138C209.246,234.806,212.246,234.804,212.27,232.87
					L212.27,232.87z"/>
			</g>
		</g>
		<g>
			<g>
				<path style="fill:#FFFFFF;" d="M228.492,232.87c0.023-5.538-0.184-11.507,1.653-16.814c0.964-2.786,3.533-4.369,5.737-6.093
					c1.522-1.19-0.616-3.298-2.121-2.121c-2.438,1.906-4.783,3.581-6.122,6.47c-2.561,5.524-2.123,12.665-2.147,18.559
					C225.484,234.805,228.484,234.805,228.492,232.87L228.492,232.87z"/>
			</g>
		</g>
		<g>
			<g>
				<path style="fill:#FFFFFF;" d="M223.729,232.87c0.041-5.606-0.122-12.179,3.155-17.025c1.91-2.823,5.813-4.12,8.694-5.647
					c1.71-0.906,0.194-3.495-1.514-2.59c-3.598,1.906-7.226,3.415-9.771,6.724c-3.768,4.898-3.522,12.756-3.564,18.539
					C220.716,234.806,223.716,234.804,223.729,232.87L223.729,232.87z"/>
			</g>
		</g>
		<g>
			<g>
				<path style="fill:#FFFFFF;" d="M205.783,232.855c-0.042-5.27-0.116-11.256-2.793-15.982c-0.583-1.029-1.418-1.927-2.37-2.622
					c-0.597-0.437-1.328-1.254-1.253-0.583c-0.214-1.9-3.217-1.921-3,0c0.21,1.861,1.63,2.229,2.881,3.307
					c3.957,3.413,3.499,11.302,3.535,15.881C202.799,234.789,205.799,234.791,205.783,232.855L205.783,232.855z"/>
			</g>
		</g>
		<g>
			<g>
				<path style="fill:#FFFFFF;" d="M210.194,232.457c-0.868-4.544-1.276-10.76-4.269-14.577c-1.764-2.251-4.86-3.393-6.998-5.272
					c-1.446-1.272-3.576,0.841-2.121,2.121c2.021,1.778,4.705,2.897,6.581,4.772c2.942,2.938,3.198,10.006,3.914,13.753
					C207.664,235.153,210.556,234.347,210.194,232.457L210.194,232.457z"/>
			</g>
		</g>
		<g>
			<g>
				<path style="fill:#FFFFFF;" d="M245.492,232.87c-0.018-6.759,0.253-13.95-1.518-20.546c-0.827-3.083-2.809-5.275-4.82-7.641
					c-1.255-1.476-3.366,0.657-2.121,2.121c6.286,7.393,5.435,16.715,5.459,26.065C242.497,234.805,245.497,234.805,245.492,232.87
					L245.492,232.87z"/>
			</g>
		</g>
		<g>
			<g>
				<path style="fill:#FFFFFF;" d="M249.08,232.87c-0.032-6.804,0.104-14.199-2.598-20.586c-1.445-3.417-4.544-5.384-7.328-7.601
					c-1.496-1.192-3.635,0.916-2.121,2.121c2.45,1.951,5.046,3.588,6.578,6.41c3.037,5.59,2.439,13.552,2.469,19.655
					C246.089,234.805,249.089,234.805,249.08,232.87L249.08,232.87z"/>
			</g>
		</g>
		<g>
			<g>
				<path style="fill:#FFFFFF;" d="M256.414,232.87c0.052-5.847-0.181-14.319,4.561-18.698c1.521-1.405,3.699-1.59,4.002-3.969
					c0.243-1.916-2.76-1.893-3,0c0.036-0.284-4.062,2.745-4.596,3.494c-3.815,5.345-3.911,12.899-3.967,19.173
					C253.396,234.806,256.396,234.804,256.414,232.87L256.414,232.87z"/>
			</g>
		</g>
		<g>
			<g>
				<path style="fill:#FFFFFF;" d="M250.403,233.269c1.045-4.843,1.599-12.623,5.352-16.367c2.334-2.33,6.141-3.581,8.782-5.638
					c1.525-1.188-0.614-3.295-2.121-2.121c-2.886,2.246-6.903,3.477-9.339,6.228c-3.771,4.262-4.434,11.85-5.566,17.102
					C247.104,234.357,249.995,235.159,250.403,233.269L250.403,233.269z"/>
			</g>
		</g>
		<g>
			<g>
				<path style="fill:#FFFFFF;" d="M236.969,232.967c-0.03-3.625-0.118-7.754-2.045-10.964c-0.472-0.785-1.114-1.395-1.841-1.936
					c-0.222-0.165-0.466-0.302-0.705-0.44c-0.567-0.33-0.034-0.059,0.029,0.477c-0.226-1.896-3.229-1.919-3,0
					c0.179,1.498,1.156,1.737,2.175,2.566c2.651,2.157,2.362,7.33,2.387,10.297C233.985,234.9,236.985,234.902,236.969,232.967
					L236.969,232.967z"/>
			</g>
		</g>
		<g>
			<g>
				<path style="fill:#FFFFFF;" d="M240.089,232.568c-0.637-3.145-0.993-7.4-3.146-9.991c-1.283-1.544-3.44-2.262-4.976-3.534
					c-1.478-1.225-3.612,0.885-2.121,2.121c1.438,1.193,3.342,1.939,4.679,3.199c0.62,0.584,0.869,1.546,1.117,2.324
					c0.692,2.173,1.102,4.447,1.554,6.678C237.58,235.261,240.472,234.457,240.089,232.568L240.089,232.568z"/>
			</g>
		</g>
		<g>
			<g>
				<path style="fill:#FFFFFF;" d="M278.764,232.967c0.054-6.548,0.068-14.027,3.864-19.677c2.086-3.104,5.942-4.574,8.873-6.704
					c1.549-1.125,0.054-3.729-1.514-2.59c-3.234,2.351-7.075,3.948-9.536,7.229c-4.529,6.037-4.629,14.541-4.688,21.741
					C275.748,234.902,278.748,234.9,278.764,232.967L278.764,232.967z"/>
			</g>
		</g>
		<g>
			<g>
				<path style="fill:#FFFFFF;" d="M272.807,232.967c0.079-7.082,0.522-15.134,6.191-20.148c3.448-3.05,8.442-4.222,12.503-6.232
					c1.734-0.858,0.214-3.445-1.514-2.59c-4.89,2.42-10.275,3.854-14.258,7.772c-5.405,5.317-5.845,14.137-5.923,21.198
					C269.785,234.902,272.785,234.9,272.807,232.967L272.807,232.967z"/>
			</g>
		</g>
		<g>
			<g>
				<path style="fill:#FFFFFF;" d="M286.569,232.719c0.032-4.581-0.399-11.54,2.875-15.322c1.091-1.261,2.609-1.587,2.8-3.473
					c0.194-1.925-2.807-1.905-3,0c0.056-0.554-2.552,2.1-2.977,2.768c-2.832,4.458-2.662,11.006-2.698,16.027
					C283.556,234.654,286.556,234.652,286.569,232.719L286.569,232.719z"/>
			</g>
		</g>
		<g>
			<g>
				<path style="fill:#FFFFFF;" d="M282.567,233.117c0.718-4.16,0.954-9.753,3.37-13.399c1.248-1.885,4.229-3.139,5.867-4.733
					c1.389-1.352-0.734-3.471-2.121-2.121c-1.871,1.821-4.577,3.003-6.147,5.089c-2.841,3.773-3.097,9.936-3.861,14.368
					C279.349,234.212,282.239,235.021,282.567,233.117L282.567,233.117z"/>
			</g>
		</g>
		<g>
			<g>
				<path style="fill:#FFFFFF;" d="M266.773,232.828c-0.022-6.194,1.275-16.395-4.54-20.455c-1.59-1.111-3.088,1.491-1.514,2.59
					c0.888,0.62,1.205,0.581,1.647,1.779c1.808,4.905,1.388,10.975,1.406,16.086C263.78,234.763,266.78,234.763,266.773,232.828
					L266.773,232.828z"/>
			</g>
		</g>
		<g>
			<g>
				<path style="fill:#FFFFFF;" d="M272.753,232.43c-0.786-4.545-1.104-10.401-3.748-14.384c-1.517-2.285-4.518-3.544-6.468-5.438
					c-1.388-1.348-3.511,0.771-2.121,2.121c1.789,1.738,4.133,2.878,5.841,4.646c0.921,0.954,1.245,2.515,1.586,3.741
					c0.917,3.305,1.434,6.737,2.018,10.111C270.189,235.131,273.08,234.321,272.753,232.43L272.753,232.43z"/>
			</g>
		</g>
	</g>
	<g>
		<g>
			<path style="fill:#FFFFFF;" d="M179.837,267.654c-0.28,1.736-3.44,1.063-4.6,1.063c-2.062,0-4.123,0-6.184,0
				c-2.366,0-1.301-7.396-1.301-9.178c0-1.406,9.748-0.718,10.999-0.718c1.919,0,1.032,7.746,1.032,9.23c0,1.935,3,1.935,3,0
				c0-3.455,1.694-12.23-3.833-12.23c-2.757,0-5.514,0-8.271,0c-2.589,0-5.357,0.065-5.874,3.268
				c-0.382,2.368-0.054,5.005-0.054,7.399c0,2.459,0.605,5.229,3.709,5.229c2.798,0,5.597,0,8.395,0
				c2.589,0,5.356-0.064,5.873-3.267C183.035,266.56,180.144,265.748,179.837,267.654z"/>
		</g>
	</g>
	<g>
		<g>
			<path style="fill:#FFFFFF;" d="M177.32,143.292c-2.897-4.06-5.795-8.121-8.692-12.181c-2.598-3.64-8.672-0.15-6.044,3.533
				c2.897,4.061,5.795,8.121,8.692,12.181C173.874,150.466,179.949,146.976,177.32,143.292L177.32,143.292z"/>
		</g>
	</g>
	<g>
		<g>
			<path style="fill:#FFFFFF;" d="M143.468,135.638c-2.764-1.699-5.527-3.397-8.291-5.096c-3.857-2.371-7.371,3.686-3.533,6.044
				c2.764,1.699,5.527,3.397,8.291,5.096C143.792,144.053,147.306,137.997,143.468,135.638L143.468,135.638z"/>
		</g>
	</g>
	<g>
		<g>
			<path style="fill:#FFFFFF;" d="M175.754,173.831c-2.484-5.142-4.968-10.285-7.452-15.427c-1.963-4.064-7.998-0.512-6.044,3.533
				c2.484,5.142,4.968,10.285,7.452,15.427C171.673,181.428,177.708,177.876,175.754,173.831L175.754,173.831z"/>
		</g>
	</g>
	<g>
		<g>
			<path style="fill:#FFFFFF;" d="M185.115,174.561c-1.056-5.912-2.111-11.823-3.168-17.735c-0.792-4.438-7.538-2.552-6.75,1.861
				c1.056,5.912,2.112,11.823,3.167,17.735C179.158,180.861,185.903,178.974,185.115,174.561L185.115,174.561z"/>
		</g>
	</g>
	<g>
		<g>
			<path style="fill:#FFFFFF;" d="M123.367,126.012c-2.78-0.669-5.561-1.337-8.341-2.006c-4.388-1.055-6.249,5.694-1.861,6.75
				c2.78,0.669,5.561,1.337,8.341,2.006C125.894,133.817,127.755,127.068,123.367,126.012L123.367,126.012z"/>
		</g>
	</g>
	<g>
		<g>
			<path style="fill:#FFFFFF;" d="M159.772,147.737c-2.049-1.91-4.099-3.82-6.148-5.73c-1.395-1.299-3.566-1.384-4.95,0
				c-1.313,1.313-1.396,3.649,0,4.95c2.049,1.91,4.099,3.82,6.148,5.73c1.395,1.299,3.566,1.384,4.95,0
				C161.084,151.374,161.167,149.038,159.772,147.737L159.772,147.737z"/>
		</g>
	</g>
	<g>
		<g>
			<path style="fill:#FFFFFF;" d="M103.167,123.105c-1.334,0.089-2.668,0.178-4.002,0.267c-1.903,0.127-3.5,1.496-3.5,3.5
				c0,1.812,1.594,3.627,3.5,3.5c1.334-0.089,2.668-0.178,4.002-0.267c1.903-0.127,3.5-1.496,3.5-3.5
				C106.667,124.793,105.073,122.979,103.167,123.105L103.167,123.105z"/>
		</g>
	</g>
	<g>
		<g>
			<path style="fill:#FFFFFF;" d="M85.978,125.158c-0.694,0.198-1.389,0.397-2.084,0.595c-1.833,0.523-2.954,2.453-2.444,4.306
				c0.502,1.825,2.472,2.968,4.306,2.444c0.694-0.198,1.389-0.397,2.084-0.595c1.833-0.523,2.954-2.453,2.444-4.306
				C89.781,125.777,87.812,124.634,85.978,125.158L85.978,125.158z"/>
		</g>
	</g>
	<g>
		<g>
			<path style="fill:#FFFFFF;" d="M158.982,120.903c-2.345-1.772-4.69-3.545-7.036-5.317c-1.526-1.153-3.91-0.245-4.789,1.255
				c-1.05,1.793-0.263,3.641,1.255,4.789c2.345,1.772,4.69,3.545,7.036,5.317c1.526,1.153,3.91,0.245,4.789-1.255
				C161.288,123.898,160.501,122.05,158.982,120.903L158.982,120.903z"/>
		</g>
	</g>
	<g>
		<g>
			<path style="fill:#FFFFFF;" d="M140.111,109.572c-1.388-0.478-2.775-0.956-4.162-1.433c-1.805-0.622-3.824,0.693-4.306,2.444
				c-0.53,1.927,0.643,3.685,2.444,4.306c1.388,0.478,2.775,0.956,4.162,1.433c1.805,0.622,3.824-0.693,4.306-2.444
				C143.086,111.951,141.913,110.193,140.111,109.572L140.111,109.572z"/>
		</g>
	</g>
	<g>
		<g>
			<path style="fill:#FFFFFF;" d="M123.617,104.745c-0.8-0.145-1.6-0.289-2.399-0.434c-0.959-0.173-1.831-0.155-2.697,0.353
				c-0.782,0.458-1.368,1.217-1.608,2.091c-0.471,1.713,0.565,3.966,2.444,4.306c0.8,0.145,1.6,0.289,2.399,0.434
				c0.959,0.173,1.831,0.155,2.697-0.353c0.782-0.458,1.368-1.217,1.608-2.091C126.533,107.338,125.496,105.085,123.617,104.745
				L123.617,104.745z"/>
		</g>
	</g>
	<g>
		<g>
			<path style="fill:#FFFFFF;" d="M74.153,130.248c-0.627,0.343-1.255,0.686-1.882,1.028c-1.672,0.914-2.198,3.179-1.255,4.789
				c0.984,1.68,3.114,2.17,4.789,1.255c0.627-0.343,1.255-0.686,1.882-1.028c1.672-0.914,2.198-3.179,1.255-4.789
				C77.958,129.823,75.828,129.333,74.153,130.248L74.153,130.248z"/>
		</g>
	</g>
	<g>
		<g>
			<path style="fill:#FFFFFF;" d="M107.15,103.293c-0.763-0.047-1.526-0.094-2.289-0.141c-1.906-0.118-3.5,1.681-3.5,3.5
				c0,1.997,1.597,3.383,3.5,3.5c0.763,0.047,1.526,0.094,2.289,0.141c1.906,0.118,3.5-1.681,3.5-3.5
				C110.65,104.797,109.054,103.411,107.15,103.293L107.15,103.293z"/>
		</g>
	</g>
	<g>
		<g>
			<path style="fill:#FFFFFF;" d="M92.139,103.693c-0.764,0.005-1.528,0.011-2.292,0.017c-1.908,0.014-3.5,1.582-3.5,3.5
				c0,1.897,1.592,3.514,3.5,3.5c0.764-0.005,1.528-0.011,2.292-0.017c1.908-0.014,3.5-1.582,3.5-3.5
				C95.639,105.296,94.047,103.68,92.139,103.693L92.139,103.693z"/>
		</g>
	</g>
	<g>
		<g>
			<g>
				<path style="fill:#FFFFFF;" d="M248.532,290.949c5.333,0,10.667,0,16,0c4.514,0,4.514-7,0-7c-5.333,0-10.667,0-16,0
					C244.019,283.949,244.019,290.949,248.532,290.949L248.532,290.949z"/>
			</g>
		</g>
		<g>
			<g>
				<path style="fill:#FFFFFF;" d="M75.616,283.052c2.337,0,4.673,0,7.01,0c4.514,0,4.514-7,0-7c-2.337,0-4.673,0-7.01,0
					C71.102,276.052,71.102,283.052,75.616,283.052L75.616,283.052z"/>
			</g>
		</g>
		<g>
			<g>
				<path style="fill:#FFFFFF;" d="M102.137,282.052c2.581,0,5.161,0,7.741,0c4.514,0,4.514-7,0-7c-2.581,0-5.161,0-7.741,0
					C97.623,275.052,97.623,282.052,102.137,282.052L102.137,282.052z"/>
			</g>
		</g>
		<g>
			<g>
				<path style="fill:#FFFFFF;" d="M123.935,291.949c2,0,4,0,6,0c1.908,0,3.5-1.592,3.5-3.5s-1.592-3.5-3.5-3.5c-2,0-4,0-6,0
					c-1.908,0-3.5,1.592-3.5,3.5S122.027,291.949,123.935,291.949L123.935,291.949z"/>
			</g>
		</g>
		<g>
			<g>
				<path style="fill:#FFFFFF;" d="M275.935,282.079c-3,0-6.001,0-9.001,0c-4.514,0-4.514,7,0,7c3,0,6.001,0,9.001,0
					C280.448,289.079,280.448,282.079,275.935,282.079L275.935,282.079z"/>
			</g>
		</g>
		<g>
			<g>
				<path style="fill:#FFFFFF;" d="M95.451,276.439c-0.667,0-1.333,0-2,0c-1.908,0-3.5,1.592-3.5,3.5s1.592,3.5,3.5,3.5
					c0.667,0,1.333,0,2,0c1.908,0,3.5-1.592,3.5-3.5S97.358,276.439,95.451,276.439L95.451,276.439z"/>
			</g>
		</g>
		<g>
			<g>
				<path style="fill:#FFFFFF;" d="M198.031,284.949c-2,0-4,0-6,0c-1.908,0-3.5,1.592-3.5,3.5s1.592,3.5,3.5,3.5c2,0,4,0,6,0
					c1.908,0,3.5-1.592,3.5-3.5S199.939,284.949,198.031,284.949L198.031,284.949z"/>
			</g>
		</g>
		<g>
			<g>
				<path style="fill:#FFFFFF;" d="M207.783,291.982c5.333,0,10.667,0,16,0c4.514,0,4.514-7,0-7c-5.333,0-10.667,0-16,0
					C203.27,284.982,203.27,291.982,207.783,291.982L207.783,291.982z"/>
			</g>
		</g>
		<g>
			<g>
				<path style="fill:#FFFFFF;" d="M217.075,285.197c0.667,0,1.333,0,2,0c1.908,0,3.5-1.592,3.5-3.5s-1.592-3.5-3.5-3.5
					c-0.667,0-1.333,0-2,0c-1.908,0-3.5,1.592-3.5,3.5S215.167,285.197,217.075,285.197L217.075,285.197z"/>
			</g>
		</g>
		<g>
			<g>
				<path style="fill:#FFFFFF;" d="M235.699,277.746c-2,0-4,0-6,0c-1.908,0-3.5,1.592-3.5,3.5s1.592,3.5,3.5,3.5c2,0,4,0,6,0
					c1.908,0,3.5-1.592,3.5-3.5S237.607,277.746,235.699,277.746L235.699,277.746z"/>
			</g>
		</g>
		<g>
			<g>
				<path style="fill:#FFFFFF;" d="M137.748,274.079c-3,0-6,0-9,0c-4.514,0-4.514,7,0,7c3,0,6,0,9,0
					C142.262,281.079,142.262,274.079,137.748,274.079L137.748,274.079z"/>
			</g>
		</g>
		<g>
			<g>
				<path style="fill:#FFFFFF;" d="M154.269,273.948c-2,0-4,0-6,0c-1.908,0-3.5,1.592-3.5,3.5s1.592,3.5,3.5,3.5c2,0,4,0,6,0
					c1.908,0,3.5-1.592,3.5-3.5S156.176,273.948,154.269,273.948L154.269,273.948z"/>
			</g>
		</g>
		<g>
			<g>
				<path style="fill:#FFFFFF;" d="M146.769,291.949c2,0,4,0,6,0c1.908,0,3.5-1.592,3.5-3.5s-1.592-3.5-3.5-3.5c-2,0-4,0-6,0
					c-1.908,0-3.5,1.592-3.5,3.5S144.861,291.949,146.769,291.949L146.769,291.949z"/>
			</g>
		</g>
		<g>
			<g>
				<path style="fill:#FFFFFF;" d="M87.685,291.781c5.083,0,10.167,0,15.25,0c4.514,0,4.514-7,0-7c-5.083,0-10.167,0-15.25,0
					C83.171,284.781,83.171,291.781,87.685,291.781L87.685,291.781z"/>
			</g>
		</g>
		<g>
			<g>
				<path style="fill:#FFFFFF;" d="M170.618,284.853c3,0,6,0,9,0c4.514,0,4.514-7,0-7c-3,0-6,0-9,0
					C166.104,277.853,166.104,284.853,170.618,284.853L170.618,284.853z"/>
			</g>
		</g>
		<g>
			<g>
				<path style="fill:#FFFFFF;" d="M161.45,291.982c5.333,0,10.667,0,16,0c4.514,0,4.514-7,0-7c-5.333,0-10.667,0-16,0
					C156.936,284.982,156.936,291.982,161.45,291.982L161.45,291.982z"/>
			</g>
		</g>
		<g>
			<g>
				<path style="fill:#FFFFFF;" d="M156.769,283.948c2,0,4,0,6,0c1.908,0,3.5-1.592,3.5-3.5s-1.592-3.5-3.5-3.5c-2,0-4,0-6,0
					c-1.908,0-3.5,1.592-3.5,3.5S154.861,283.948,156.769,283.948L156.769,283.948z"/>
			</g>
		</g>
		<g>
			<g>
				<path style="fill:#FFFFFF;" d="M175.118,287.746c0.667,0,1.333,0,2,0c1.908,0,3.5-1.592,3.5-3.5s-1.592-3.5-3.5-3.5
					c-0.667,0-1.333,0-2,0c-1.908,0-3.5,1.592-3.5,3.5S173.21,287.746,175.118,287.746L175.118,287.746z"/>
			</g>
		</g>
		<g>
			<g>
				<path style="fill:#FFFFFF;" d="M193.867,278.746c-2,0-4,0-6,0c-1.908,0-3.5,1.592-3.5,3.5s1.592,3.5,3.5,3.5c2,0,4,0,6,0
					c1.908,0,3.5-1.592,3.5-3.5S195.775,278.746,193.867,278.746L193.867,278.746z"/>
			</g>
		</g>
		<g>
			<g>
				<path style="fill:#FFFFFF;" d="M148.769,281.948c5.333,0,10.667,0,16,0c4.514,0,4.514-7,0-7c-5.333,0-10.667,0-16,0
					C144.254,274.948,144.254,281.948,148.769,281.948L148.769,281.948z"/>
			</g>
		</g>
		<g>
			<g>
				<path style="fill:#FFFFFF;" d="M119.878,276.365c-3,0-6,0-9,0c-4.514,0-4.514,7,0,7c3,0,6,0,9,0
					C124.392,283.365,124.392,276.365,119.878,276.365L119.878,276.365z"/>
			</g>
		</g>
		<g>
			<g>
				<path style="fill:#FFFFFF;" d="M89.126,281.197c-1.833,0-3.667,0-5.5,0c-1.908,0-3.5,1.592-3.5,3.5s1.592,3.5,3.5,3.5
					c1.833,0,3.667,0,5.5,0c1.908,0,3.5-1.592,3.5-3.5S91.034,281.197,89.126,281.197L89.126,281.197z"/>
			</g>
		</g>
		<g>
			<g>
				<path style="fill:#FFFFFF;" d="M144.949,282.079c-0.667,0-1.333,0-2,0c-1.908,0-3.5,1.592-3.5,3.5s1.592,3.5,3.5,3.5
					c0.667,0,1.333,0,2,0c1.908,0,3.5-1.592,3.5-3.5S146.857,282.079,144.949,282.079L144.949,282.079z"/>
			</g>
		</g>
		<g>
			<g>
				<path style="fill:#FFFFFF;" d="M148.699,273.885c-0.667,0-1.333,0-2,0c-1.908,0-3.5,1.592-3.5,3.5s1.592,3.5,3.5,3.5
					c0.667,0,1.333,0,2,0c1.908,0,3.5-1.592,3.5-3.5S150.607,273.885,148.699,273.885L148.699,273.885z"/>
			</g>
		</g>
		<g>
			<g>
				<path style="fill:#FFFFFF;" d="M107.127,291.781c1.833,0,3.667,0,5.5,0c1.908,0,3.5-1.592,3.5-3.5s-1.592-3.5-3.5-3.5
					c-1.833,0-3.667,0-5.5,0c-1.908,0-3.5,1.592-3.5,3.5S105.22,291.781,107.127,291.781L107.127,291.781z"/>
			</g>
		</g>
		<g>
			<g>
				<path style="fill:#FFFFFF;" d="M73.41,291.781c0.667,0,1.333,0,2,0c1.908,0,3.5-1.592,3.5-3.5s-1.592-3.5-3.5-3.5
					c-0.667,0-1.333,0-2,0c-1.908,0-3.5,1.592-3.5,3.5S71.502,291.781,73.41,291.781L73.41,291.781z"/>
			</g>
		</g>
		<g>
			<g>
				<path style="fill:#FFFFFF;" d="M94.449,283.115c0.667,0,1.333,0,2,0c1.908,0,3.5-1.592,3.5-3.5s-1.592-3.5-3.5-3.5
					c-0.667,0-1.333,0-2,0c-1.908,0-3.5,1.592-3.5,3.5S92.541,283.115,94.449,283.115L94.449,283.115z"/>
			</g>
		</g>
		<g>
			<g>
				<path style="fill:#FFFFFF;" d="M105.699,275.052c-1.833,0-3.667,0-5.5,0c-1.908,0-3.5,1.592-3.5,3.5s1.592,3.5,3.5,3.5
					c1.833,0,3.667,0,5.5,0c1.908,0,3.5-1.592,3.5-3.5S107.607,275.052,105.699,275.052L105.699,275.052z"/>
			</g>
		</g>
		<g>
			<g>
				<path style="fill:#FFFFFF;" d="M252.7,282.454c0.667,0,1.333,0,2,0c1.908,0,3.5-1.592,3.5-3.5s-1.592-3.5-3.5-3.5
					c-0.667,0-1.333,0-2,0c-1.908,0-3.5,1.592-3.5,3.5S250.792,282.454,252.7,282.454L252.7,282.454z"/>
			</g>
		</g>
		<g>
			<g>
				<path style="fill:#FFFFFF;" d="M213.365,275.052c-3.722,0-7.444,0-11.166,0c-4.514,0-4.514,7,0,7c3.722,0,7.444,0,11.166,0
					C217.879,282.052,217.879,275.052,213.365,275.052L213.365,275.052z"/>
			</g>
		</g>
		<g>
			<g>
				<path style="fill:#FFFFFF;" d="M142.327,280.746c-3.722,0-7.444,0-11.166,0c-4.514,0-4.514,7,0,7c3.722,0,7.444,0,11.166,0
					C146.841,287.746,146.841,280.746,142.327,280.746L142.327,280.746z"/>
			</g>
		</g>
		<g>
			<g>
				<path style="fill:#FFFFFF;" d="M283.979,273.853c-5.083,0-10.167,0-15.25,0c-4.514,0-4.514,7,0,7c5.083,0,10.167,0,15.25,0
					C288.492,280.853,288.492,273.853,283.979,273.853L283.979,273.853z"/>
			</g>
		</g>
		<g>
			<g>
				<path style="fill:#FFFFFF;" d="M219.075,280.365c0.667,0,1.333,0,2,0c1.908,0,3.5-1.592,3.5-3.5s-1.592-3.5-3.5-3.5
					c-0.667,0-1.333,0-2,0c-1.908,0-3.5,1.592-3.5,3.5S217.167,280.365,219.075,280.365L219.075,280.365z"/>
			</g>
		</g>
		<g>
			<g>
				<path style="fill:#FFFFFF;" d="M261.699,284.948c0.667,0,1.333,0,2,0c1.908,0,3.5-1.592,3.5-3.5s-1.592-3.5-3.5-3.5
					c-0.667,0-1.333,0-2,0c-1.908,0-3.5,1.592-3.5,3.5S259.791,284.948,261.699,284.948L261.699,284.948z"/>
			</g>
		</g>
		<g>
			<g>
				<path style="fill:#FFFFFF;" d="M242.604,283.948c0.667,0,1.333,0,2,0c1.908,0,3.5-1.592,3.5-3.5s-1.592-3.5-3.5-3.5
					c-0.667,0-1.333,0-2,0c-1.908,0-3.5,1.592-3.5,3.5S240.695,283.948,242.604,283.948L242.604,283.948z"/>
			</g>
		</g>
		<g>
			<g>
				<path style="fill:#FFFFFF;" d="M76.41,274.079c-0.667,0-1.333,0-2,0c-1.908,0-3.5,1.592-3.5,3.5s1.592,3.5,3.5,3.5
					c0.667,0,1.333,0,2,0c1.908,0,3.5-1.592,3.5-3.5S78.318,274.079,76.41,274.079L76.41,274.079z"/>
			</g>
		</g>
		<g>
			<g>
				<path style="fill:#FFFFFF;" d="M234.699,291.982c0.667,0,1.333,0,2,0c1.908,0,3.5-1.592,3.5-3.5s-1.592-3.5-3.5-3.5
					c-0.667,0-1.333,0-2,0c-1.908,0-3.5,1.592-3.5,3.5S232.791,291.982,234.699,291.982L234.699,291.982z"/>
			</g>
		</g>
		<g>
			<g>
				<path style="fill:#FFFFFF;" d="M286.449,291.982c0.667,0,1.333,0,2,0c1.908,0,3.5-1.592,3.5-3.5s-1.592-3.5-3.5-3.5
					c-0.667,0-1.333,0-2,0c-1.908,0-3.5,1.592-3.5,3.5S284.541,291.982,286.449,291.982L286.449,291.982z"/>
			</g>
		</g>
		<g>
			<g>
				<path style="fill:#FFFFFF;" d="M277.949,285.746c3.458,0,6.917,0,10.375,0c4.514,0,4.514-7,0-7c-3.458,0-6.917,0-10.375,0
					C273.436,278.746,273.436,285.746,277.949,285.746L277.949,285.746z"/>
			</g>
		</g>
	</g>
	<g>
		<g>
			<g>
				<path style="fill:#FFFFFF;" d="M98.9,236.377c-3.206,0-6.413,0-9.619,0c-4.514,0-4.514,7,0,7c3.206,0,6.413,0,9.619,0
					C103.414,243.377,103.414,236.377,98.9,236.377L98.9,236.377z"/>
			</g>
		</g>
		<g>
			<g>
				<g>
					<path style="fill:#FFFFFF;" d="M79.745,256.129c0.652,0,1.304,0,1.956,0c1.908,0,3.5-1.592,3.5-3.5s-1.592-3.5-3.5-3.5
						c-0.652,0-1.304,0-1.956,0c-1.908,0-3.5,1.592-3.5,3.5S77.837,256.129,79.745,256.129L79.745,256.129z"/>
				</g>
			</g>
			<g>
				<g>
					<path style="fill:#FFFFFF;" d="M151.841,248.342c-0.652,0-1.304,0-1.957,0c-1.908,0-3.5,1.592-3.5,3.5s1.592,3.5,3.5,3.5
						c0.652,0,1.304,0,1.957,0c1.908,0,3.5-1.592,3.5-3.5S153.749,248.342,151.841,248.342L151.841,248.342z"/>
				</g>
			</g>
			<g>
				<g>
					<g>
						<path style="fill:#FFFFFF;" d="M96.293,251.871c4.972,0,9.944,0,14.917,0c4.514,0,4.514-7,0-7c-4.972,0-9.944,0-14.917,0
							C91.779,244.871,91.779,251.871,96.293,251.871L96.293,251.871z"/>
					</g>
				</g>
				<g>
					<g>
						<path style="fill:#FFFFFF;" d="M79.704,234.561c-1.957,0-3.913,0-5.869,0c-4.514,0-4.514,7,0,7c1.957,0,3.913,0,5.869,0
							C84.218,241.561,84.218,234.561,79.704,234.561L79.704,234.561z"/>
					</g>
				</g>
				<g>
					<g>
						<path style="fill:#FFFFFF;" d="M90.749,247.064c-1.793,0-3.587,0-5.38,0c-1.908,0-3.5,1.592-3.5,3.5s1.592,3.5,3.5,3.5
							c1.793,0,3.587,0,5.38,0c1.908,0,3.5-1.592,3.5-3.5S92.657,247.064,90.749,247.064L90.749,247.064z"/>
					</g>
				</g>
				<g>
					<g>
						<path style="fill:#FFFFFF;" d="M150.974,243.531c-5.217,0-10.434,0-15.651,0c-4.514,0-4.514,7,0,7c5.217,0,10.434,0,15.651,0
							C155.488,250.531,155.488,243.531,150.974,243.531L150.974,243.531z"/>
					</g>
				</g>
				<g>
					<g>
						<path style="fill:#FFFFFF;" d="M126.683,254.961c1.956,0,3.913,0,5.869,0c4.514,0,4.514-7,0-7c-1.956,0-3.913,0-5.869,0
							C122.169,247.961,122.169,254.961,126.683,254.961L126.683,254.961z"/>
					</g>
				</g>
				<g>
					<g>
						<path style="fill:#FFFFFF;" d="M166.229,244.612c-3.641,0-7.282,0-10.922,0c-4.514,0-4.514,7,0,7c3.641,0,7.282,0,10.922,0
							C170.744,251.612,170.744,244.612,166.229,244.612L166.229,244.612z"/>
					</g>
				</g>
				<g>
					<g>
						<path style="fill:#FFFFFF;" d="M122.51,243.518c-1.06,0-2.12,0-3.179,0c-1.908,0-3.5,1.592-3.5,3.5s1.592,3.5,3.5,3.5
							c1.06,0,2.12,0,3.179,0c1.908,0,3.5-1.592,3.5-3.5S124.417,243.518,122.51,243.518L122.51,243.518z"/>
					</g>
				</g>
				<g>
					<g>
						<path style="fill:#FFFFFF;" d="M102.244,248.342c-1.957,0-3.913,0-5.869,0c-4.514,0-4.514,7,0,7c1.957,0,3.913,0,5.869,0
							C106.758,255.342,106.758,248.342,102.244,248.342L102.244,248.342z"/>
					</g>
				</g>
				<g>
					<g>
						<path style="fill:#FFFFFF;" d="M82.923,242.936c-3.206,0-6.413,0-9.619,0c-4.514,0-4.514,7,0,7c3.206,0,6.413,0,9.619,0
							C87.437,249.936,87.437,242.936,82.923,242.936L82.923,242.936z"/>
					</g>
				</g>
				<g>
					<g>
						<path style="fill:#FFFFFF;" d="M94.933,245.816c0.652,0,1.304,0,1.956,0c1.908,0,3.5-1.592,3.5-3.5s-1.592-3.5-3.5-3.5
							c-0.652,0-1.304,0-1.956,0c-1.908,0-3.5,1.592-3.5,3.5S93.025,245.816,94.933,245.816L94.933,245.816z"/>
					</g>
				</g>
				<g>
					<g>
						<path style="fill:#FFFFFF;" d="M85.942,247.123c0.652,0,1.304,0,1.957,0c1.908,0,3.5-1.592,3.5-3.5s-1.592-3.5-3.5-3.5
							c-0.652,0-1.304,0-1.957,0c-1.908,0-3.5,1.592-3.5,3.5S84.035,247.123,85.942,247.123L85.942,247.123z"/>
					</g>
				</g>
				<g>
					<g>
						<path style="fill:#FFFFFF;" d="M114.969,235.787c-1.956,0-3.913,0-5.869,0c-4.514,0-4.514,7,0,7c1.956,0,3.913,0,5.869,0
							C119.483,242.787,119.483,235.787,114.969,235.787L114.969,235.787z"/>
					</g>
				</g>
				<g>
					<g>
						<path style="fill:#FFFFFF;" d="M170.022,237.787c-3.641,0-7.281,0-10.922,0c-4.514,0-4.514,7,0,7c3.641,0,7.281,0,10.922,0
							C174.537,244.787,174.537,237.787,170.022,237.787L170.022,237.787z"/>
					</g>
				</g>
				<g>
					<g>
						<path style="fill:#FFFFFF;" d="M133.187,234.162c-3.206,0-6.413,0-9.619,0c-4.514,0-4.514,7,0,7c3.206,0,6.413,0,9.619,0
							C137.701,241.162,137.701,234.162,133.187,234.162L133.187,234.162z"/>
					</g>
				</g>
				<g>
					<g>
						<path style="fill:#FFFFFF;" d="M130.199,247.043c0.652,0,1.304,0,1.956,0c1.908,0,3.5-1.592,3.5-3.5s-1.592-3.5-3.5-3.5
							c-0.652,0-1.304,0-1.956,0c-1.908,0-3.5,1.592-3.5,3.5S128.291,247.043,130.199,247.043L130.199,247.043z"/>
					</g>
				</g>
				<g>
					<g>
						<path style="fill:#FFFFFF;" d="M160.649,241.082c1.957,0,3.913,0,5.869,0c4.514,0,4.514-7,0-7c-1.957,0-3.913,0-5.869,0
							C156.135,234.082,156.135,241.082,160.649,241.082L160.649,241.082z"/>
					</g>
				</g>
				<g>
					<g>
						<path style="fill:#FFFFFF;" d="M144.387,242.707c3.206,0,6.413,0,9.619,0c4.514,0,4.514-7,0-7c-3.206,0-6.413,0-9.619,0
							C139.873,235.707,139.873,242.707,144.387,242.707L144.387,242.707z"/>
					</g>
				</g>
			</g>
		</g>
		<g>
			<g>
				<path style="fill:#FFFFFF;" d="M71.211,235.167c33.879,0,67.757,0,101.636,0c1.935,0,1.935-3,0-3c-33.879,0-67.757,0-101.636,0
					C69.277,232.167,69.277,235.167,71.211,235.167L71.211,235.167z"/>
			</g>
		</g>
	</g>
	<g>
		<g>
			<g>
				<g>
					<path style="fill:#FFFFFF;" d="M205.787,241.082c2.946,0,5.892,0,8.838,0c4.514,0,4.514-7,0-7c-2.946,0-5.892,0-8.838,0
						C201.273,234.082,201.273,241.082,205.787,241.082L205.787,241.082z"/>
				</g>
			</g>
			<g>
				<g>
					<path style="fill:#FFFFFF;" d="M222.422,245.716c4.991,0,9.983,0,14.975,0c4.514,0,4.514-7,0-7c-4.991,0-9.983,0-14.975,0
						C217.908,238.716,217.908,245.716,222.422,245.716L222.422,245.716z"/>
				</g>
			</g>
			<g>
				<g>
					<path style="fill:#FFFFFF;" d="M241,232.66c-1.8,0-3.601,0-5.4,0c-1.908,0-3.5,1.592-3.5,3.5s1.592,3.5,3.5,3.5
						c1.8,0,3.601,0,5.4,0c1.908,0,3.5-1.592,3.5-3.5S242.908,232.66,241,232.66L241,232.66z"/>
				</g>
			</g>
			<g>
				<g>
					<path style="fill:#FFFFFF;" d="M267.334,236.375c-5.236,0-10.474,0-15.71,0c-4.514,0-4.514,7,0,7c5.236,0,10.474,0,15.71,0
						C271.848,243.375,271.848,236.375,267.334,236.375L267.334,236.375z"/>
				</g>
			</g>
			<g>
				<g>
					<path style="fill:#FFFFFF;" d="M263.893,244.612c-0.655,0-1.31,0-1.965,0c-1.908,0-3.5,1.592-3.5,3.5s1.592,3.5,3.5,3.5
						c0.655,0,1.31,0,1.965,0c1.908,0,3.5-1.592,3.5-3.5S265.801,244.612,263.893,244.612L263.893,244.612z"/>
				</g>
			</g>
			<g>
				<g>
					<path style="fill:#FFFFFF;" d="M249.655,249.612c1.964,0,3.928,0,5.892,0c4.514,0,4.514-7,0-7c-1.964,0-3.928,0-5.892,0
						C245.142,242.612,245.142,249.612,249.655,249.612L249.655,249.612z"/>
				</g>
			</g>
			<g>
				<g>
					<path style="fill:#FFFFFF;" d="M246.482,246.097c-3.654,0-7.31,0-10.964,0c-4.514,0-4.514,7,0,7c3.654,0,7.31,0,10.964,0
						C250.996,253.097,250.996,246.097,246.482,246.097L246.482,246.097z"/>
				</g>
			</g>
			<g>
				<g>
					<path style="fill:#FFFFFF;" d="M248.739,237.362c-1.063,0-2.128,0-3.191,0c-1.908,0-3.5,1.592-3.5,3.5s1.592,3.5,3.5,3.5
						c1.063,0,2.128,0,3.191,0c1.908,0,3.5-1.592,3.5-3.5S250.647,237.362,248.739,237.362L248.739,237.362z"/>
				</g>
			</g>
			<g>
				<g>
					<path style="fill:#FFFFFF;" d="M227.087,242.993c-1.964,0-3.928,0-5.892,0c-4.514,0-4.514,7,0,7c1.964,0,3.928,0,5.892,0
						C231.601,249.993,231.601,242.993,227.087,242.993L227.087,242.993z"/>
				</g>
			</g>
			<g>
				<g>
					<path style="fill:#FFFFFF;" d="M220.075,239.66c0.654,0,1.31,0,1.964,0c1.908,0,3.5-1.592,3.5-3.5s-1.592-3.5-3.5-3.5
						c-0.654,0-1.31,0-1.964,0c-1.908,0-3.5,1.592-3.5,3.5S218.167,239.66,220.075,239.66L220.075,239.66z"/>
				</g>
			</g>
			<g>
				<g>
					<path style="fill:#FFFFFF;" d="M214.092,254.372c1.964,0,3.929,0,5.893,0c4.514,0,4.514-7,0-7c-1.964,0-3.929,0-5.893,0
						C209.578,247.372,209.578,254.372,214.092,254.372L214.092,254.372z"/>
				</g>
			</g>
			<g>
				<g>
					<path style="fill:#FFFFFF;" d="M280.753,242.787c2.946,0,5.892,0,8.838,0c4.514,0,4.514-7,0-7c-2.946,0-5.892,0-8.838,0
						C276.239,235.787,276.239,242.787,280.753,242.787L280.753,242.787z"/>
				</g>
			</g>
			<g>
				<g>
					<path style="fill:#FFFFFF;" d="M268.277,240.625c1.964,0,3.927,0,5.891,0c4.514,0,4.514-7,0-7c-1.964,0-3.927,0-5.891,0
						C263.764,233.625,263.764,240.625,268.277,240.625L268.277,240.625z"/>
				</g>
			</g>
			<g>
				<g>
					<path style="fill:#FFFFFF;" d="M274.635,254.033c0.654,0,1.31,0,1.964,0c1.908,0,3.5-1.592,3.5-3.5s-1.592-3.5-3.5-3.5
						c-0.654,0-1.31,0-1.964,0c-1.908,0-3.5,1.592-3.5,3.5S272.727,254.033,274.635,254.033L274.635,254.033z"/>
				</g>
			</g>
			<g>
				<g>
					<path style="fill:#FFFFFF;" d="M288.872,246.033c-1.964,0-3.928,0-5.892,0c-4.514,0-4.514,7,0,7c1.964,0,3.928,0,5.892,0
						C293.386,253.033,293.386,246.033,288.872,246.033L288.872,246.033z"/>
				</g>
			</g>
			<g>
				<g>
					<path style="fill:#FFFFFF;" d="M275.271,247.612c3.654,0,7.309,0,10.963,0c4.514,0,4.514-7,0-7c-3.654,0-7.309,0-10.963,0
						C270.758,240.612,270.758,247.612,275.271,247.612L275.271,247.612z"/>
				</g>
			</g>
			<g>
				<g>
					<path style="fill:#FFFFFF;" d="M268.975,256.097c0.655,0,1.31,0,1.965,0c1.908,0,3.5-1.592,3.5-3.5s-1.592-3.5-3.5-3.5
						c-0.655,0-1.31,0-1.965,0c-1.908,0-3.5,1.592-3.5,3.5S267.066,256.097,268.975,256.097L268.975,256.097z"/>
				</g>
			</g>
			<g>
				<g>
					<path style="fill:#FFFFFF;" d="M204.068,250.116c3.219,0,6.438,0,9.656,0c4.514,0,4.514-7,0-7c-3.219,0-6.438,0-9.656,0
						C199.555,243.116,199.555,250.116,204.068,250.116L204.068,250.116z"/>
				</g>
			</g>
		</g>
		<g>
			<g>
				<path style="fill:#FFFFFF;" d="M201.977,235.167c29.589,0,59.179,0,88.768,0c1.935,0,1.935-3,0-3c-29.589,0-59.179,0-88.768,0
					C200.042,232.167,200.042,235.167,201.977,235.167L201.977,235.167z"/>
			</g>
		</g>
	</g>
	<g>
		<g>
			<path style="fill:#FFFFFF;" d="M71.496,262.27c31.561,0,63.122,0,94.683,0c1.935,0,1.935-3,0-3c-31.561,0-63.122,0-94.683,0
				C69.561,259.27,69.561,262.27,71.496,262.27L71.496,262.27z"/>
		</g>
	</g>
	<g>
		<g>
			<path style="fill:#FFFFFF;" d="M209.417,262.27c27.01,0,54.021,0,81.03,0c1.935,0,1.935-3,0-3c-27.01,0-54.021,0-81.03,0
				C207.482,259.27,207.482,262.27,209.417,262.27L209.417,262.27z"/>
		</g>
	</g>
	<g>
		<g>
			<path style="fill:#FFFFFF;" d="M207.937,267.654c-0.28,1.734-3.442,1.063-4.601,1.063c-2.061,0-4.122,0-6.184,0
				c-2.366,0-1.301-7.395-1.301-9.177c0-1.406,9.747-0.718,10.998-0.718c1.921,0,1.033,7.746,1.033,9.23c0,1.935,3,1.935,3,0
				c0-3.456,1.694-12.23-3.833-12.23c-2.757,0-5.514,0-8.271,0c-2.59,0-5.357,0.065-5.874,3.268
				c-0.383,2.368-0.054,5.005-0.054,7.399c0,2.458,0.605,5.228,3.709,5.228c2.798,0,5.597,0,8.395,0
				c2.589,0,5.357-0.063,5.874-3.266C211.135,266.56,208.244,265.748,207.937,267.654z"/>
		</g>
	</g>
	<g>
		<g>
			<path style="fill:#FFFFFF;" d="M71.496,268.27c31.561,0,63.122,0,94.683,0c1.935,0,1.935-3,0-3c-31.561,0-63.122,0-94.683,0
				C69.561,265.27,69.561,268.27,71.496,268.27L71.496,268.27z"/>
		</g>
	</g>
	<g>
		<g>
			<path style="fill:#FFFFFF;" d="M209.417,268.27c27.01,0,54.021,0,81.03,0c1.935,0,1.935-3,0-3c-27.01,0-54.021,0-81.03,0
				C207.482,265.27,207.482,268.27,209.417,268.27L209.417,268.27z"/>
		</g>
	</g>
	<g>
		<g>
			<g>
				<path style="fill:#FFFFFF;" d="M186.626,268.242c-0.945-0.164-0.832,0.918-0.832-0.113c0-0.546,0-1.091,0-1.636
					c0-2.213,0-4.427,0-6.64c0-6.98,0-13.96,0-20.939c0-14.855,0-29.711,0-44.566c0-1.811,0-3.62,0-5.431c0-0.431,0-0.862,0-1.293
					c0,0.25,1.815,0.325,2.767,0.325c0.292,0,0.233-1.013,0.233-0.012c0,0.546,0,1.091,0,1.636c0,2.213,0,4.427,0,6.64
					c0,15.191,0,30.383,0,45.574c0,6.644,0,13.288,0,19.932c0,1.906,0,3.812,0,5.718c0,2.033-0.899,0.681-3.099,0.681
					c-4.514,0-4.514,7,0,7c5.702,0,10.099-1.675,10.099-7.968c0-4.897,0-9.794,0-14.691c0-15.729,0-31.457,0-47.187
					c0-5.232,0-10.466,0-15.698c0-5.722-3.002-8.624-8.974-8.624c-5.975,0-8.026,3.81-8.026,8.991c0,5.395,0,10.789,0,16.183
					c0,14.606,0,29.214,0,43.82c0,5.123,0,10.246,0,15.37c0,4.475,0.495,8.73,5.971,9.679
					C189.179,275.757,191.067,269.012,186.626,268.242z"/>
			</g>
		</g>
		<g>
			<g>
				<path style="fill:#FFFFFF;" d="M175.893,187.167c7.6,0,15.201,0,22.801,0c4.514,0,4.514-7,0-7c-7.601,0-15.201,0-22.801,0
					C171.379,180.167,171.379,187.167,175.893,187.167L175.893,187.167z"/>
			</g>
		</g>
	</g>
	<g>
		<g>
			<path style="fill:#FFFFFF;" d="M171.622,151.53c-3.392-4.316-6.783-8.632-10.174-12.949c-1.181-1.502-3.722-1.228-4.95,0
				c-1.468,1.469-1.177,3.451,0,4.95c3.392,4.316,6.783,8.632,10.174,12.949c1.181,1.502,3.722,1.228,4.95,0
				C173.09,155.011,172.799,153.029,171.622,151.53L171.622,151.53z"/>
		</g>
	</g>
	<g>
		<g>
			<path style="fill:#FFFFFF;" d="M179.493,174.471c-1.09-4.199-2.18-8.397-3.27-12.597c-1.133-4.366-7.885-2.512-6.75,1.861
				c1.09,4.199,2.18,8.397,3.27,12.597C173.876,180.698,180.628,178.844,179.493,174.471L179.493,174.471z"/>
		</g>
	</g>
	<g>
		<g>
			<path style="fill:#FFFFFF;" d="M152.118,129.573c-2.399-1.682-4.797-3.363-7.196-5.045c-1.565-1.097-3.884-0.288-4.789,1.255
				c-1.024,1.749-0.303,3.696,1.255,4.789c2.398,1.682,4.797,3.363,7.196,5.045c1.565,1.097,3.884,0.288,4.789-1.255
				C154.397,132.613,153.676,130.666,152.118,129.573L152.118,129.573z"/>
		</g>
	</g>
	<g>
		<g>
			<path style="fill:#FFFFFF;" d="M132.836,118.806c-1.419-0.453-2.838-0.906-4.257-1.359c-1.818-0.581-3.815,0.662-4.306,2.444
				c-0.521,1.896,0.629,3.726,2.444,4.306c1.419,0.453,2.838,0.906,4.257,1.359c1.818,0.581,3.815-0.662,4.306-2.444
				C135.802,121.216,134.651,119.386,132.836,118.806L132.836,118.806z"/>
		</g>
	</g>
	<g>
		<g>
			<path style="fill:#FFFFFF;" d="M115.966,114.227c-0.818-0.137-1.636-0.274-2.454-0.412c-0.966-0.162-1.823-0.16-2.697,0.353
				c-0.782,0.458-1.368,1.217-1.608,2.091c-0.249,0.904-0.121,1.889,0.353,2.697c0.419,0.716,1.24,1.466,2.091,1.608
				c0.818,0.137,1.636,0.274,2.454,0.412c0.966,0.162,1.823,0.16,2.697-0.353c0.782-0.458,1.368-1.217,1.608-2.091
				c0.249-0.904,0.121-1.889-0.353-2.697C117.638,115.12,116.817,114.37,115.966,114.227L115.966,114.227z"/>
		</g>
	</g>
	<g>
		<g>
			<path style="fill:#FFFFFF;" d="M99.145,112.702c-0.78,0.05-1.56,0.1-2.34,0.15c-1.903,0.122-3.5,1.5-3.5,3.5
				c0,1.815,1.594,3.622,3.5,3.5c0.78-0.05,1.56-0.1,2.34-0.15c1.903-0.122,3.5-1.5,3.5-3.5
				C102.645,114.386,101.051,112.58,99.145,112.702L99.145,112.702z"/>
		</g>
	</g>
	<g>
		<g>
			<path style="fill:#FFFFFF;" d="M82.804,114.992c-0.743,0.242-1.485,0.485-2.228,0.727c-1.812,0.591-2.968,2.401-2.444,4.306
				c0.488,1.773,2.492,3.036,4.306,2.444c0.743-0.242,1.485-0.485,2.228-0.727c1.812-0.591,2.968-2.401,2.444-4.306
				C86.622,115.663,84.618,114.4,82.804,114.992L82.804,114.992z"/>
		</g>
	</g>
</g>
<g id="Ebene_1">
</g>
</svg>
