<?xml version="1.0" encoding="iso-8859-1"?>
<!-- Generator: Adobe Illustrator 16.0.0, SVG Export Plug-In . SVG Version: 6.00 Build 0)  -->
<!DOCTYPE svg PUBLIC "-//W3C//DTD SVG 1.1//EN" "http://www.w3.org/Graphics/SVG/1.1/DTD/svg11.dtd">
<svg version="1.1" xmlns="http://www.w3.org/2000/svg" xmlns:xlink="http://www.w3.org/1999/xlink" x="0px" y="0px" width="361px"
	 height="361px" viewBox="0 0 361 361" style="enable-background:new 0 0 361 361;" xml:space="preserve">
<g id="sani_x5F_heating_x5F_manual_Kopie">
	<g>
		<g>
			<g>
				<path style="fill:#FFFFFF;" d="M166.338,203.984c0.678,0.195,0.358-4.745,0.358-5.707c0-5.183,0-10.365,0-15.547
					c0-15.465,0-30.929,0-46.394c0-14.742,0-29.484,0-44.227c0-4.28,0-8.56,0-12.839c0-0.857,0-1.715,0-2.572
					c0-0.748-1.917,0.096-0.76,0.096c1.964,0,3.929,0,5.893,0c2.566,0,0.583-1.057,0.583,0.464c0,1.277,0,2.555,0,3.832
					c0,4.858,0,9.715,0,14.573c0,15.221,0,30.441,0,45.662c0,15.041,0,30.081,0,45.121c0,4.632,0,9.264,0,13.896
					c0,1.074,0,2.148,0,3.223c0,0.202,0,0.404,0,0.606c0-0.208,1.961-0.312,0.761-0.312c-1.047,0-2.094,0-3.141,0
					c-1.542,0-3.083,0-4.625,0c-4.514,0-4.514,7,0,7c5.471,0,14.005,1.379,14.005-6.688c0-2.276,0-4.553,0-6.828
					c0-12.766,0-25.532,0-38.297c0-26.795,0-53.59,0-80.385c0-3.786-0.812-8.866-5.711-8.866c-5.472,0-14.005-1.378-14.005,6.69
					c0,7.666,0,15.332,0,22.998c0,30.135,0,60.269,0,90.404c0,5.548-2.347,18.8,4.781,20.849
					C168.825,211.984,170.668,205.229,166.338,203.984z"/>
			</g>
		</g>
		<g>
			<g>
				<path style="fill:#FFFFFF;" d="M90.93,204.302c0.677,0.194,0.358-4.748,0.358-5.708c0-5.183,0-10.364,0-15.547
					c0-15.464,0-30.929,0-46.393c0-14.743,0-29.485,0-44.227c0-4.28,0-8.56,0-12.839c0-0.857,0-1.715,0-2.572
					c0-0.748-1.917,0.096-0.76,0.096c1.964,0,3.929,0,5.893,0c2.565,0,0.584-1.057,0.584,0.464c0,1.277,0,2.555,0,3.832
					c0,4.857,0,9.715,0,14.572c0,15.221,0,30.441,0,45.662c0,15.04,0,30.081,0,45.121c0,4.632,0,9.264,0,13.896
					c0,1.074,0,2.148,0,3.223c0,0.202,0,0.404,0,0.606c0-0.207,1.96-0.311,0.76-0.311c-1.047,0-2.094,0-3.141,0
					c-1.542,0-3.083,0-4.625,0c-4.514,0-4.514,7,0,7c5.472,0,14.005,1.379,14.005-6.689c0-2.276,0-4.553,0-6.828
					c0-12.766,0-25.531,0-38.297c0-26.795,0-53.59,0-80.385c0-3.787-0.812-8.866-5.711-8.866c-5.472,0-14.005-1.378-14.005,6.69
					c0,7.666,0,15.332,0,22.998c0,30.135,0,60.269,0,90.403c0,5.548-2.346,18.802,4.781,20.85
					C93.417,212.302,95.26,205.546,90.93,204.302z"/>
			</g>
		</g>
		<g>
			<g>
				<path style="fill:#FFFFFF;" d="M128.951,204.302c0.677,0.194,0.358-4.748,0.358-5.708c0-5.183,0-10.364,0-15.547
					c0-15.464,0-30.929,0-46.393c0-14.743,0-29.485,0-44.227c0-4.28,0-8.56,0-12.839c0-0.857,0-1.715,0-2.572
					c0-0.748-1.917,0.096-0.76,0.096c1.964,0,3.929,0,5.893,0c2.565,0,0.584-1.057,0.584,0.464c0,1.277,0,2.555,0,3.832
					c0,4.857,0,9.715,0,14.572c0,15.221,0,30.441,0,45.662c0,15.04,0,30.081,0,45.121c0,4.632,0,9.264,0,13.896
					c0,1.074,0,2.148,0,3.223c0,0.202,0,0.404,0,0.606c0-0.207,1.96-0.311,0.76-0.311c-1.047,0-2.094,0-3.141,0
					c-1.541,0-3.083,0-4.624,0c-4.514,0-4.514,7,0,7c5.472,0,14.005,1.378,14.005-6.689c0-2.276,0-4.553,0-6.828
					c0-12.766,0-25.531,0-38.297c0-26.795,0-53.59,0-80.385c0-3.787-0.812-8.866-5.711-8.866c-5.472,0-14.005-1.378-14.005,6.69
					c0,7.666,0,15.332,0,22.998c0,30.135,0,60.269,0,90.403c0,5.548-2.346,18.801,4.781,20.85
					C131.438,212.302,133.281,205.547,128.951,204.302z"/>
			</g>
		</g>
		<g>
			<path style="fill:#FFFFFF;" d="M86.826,192.95c0,1.222-0.125,2.212-0.281,2.212H75.131c-0.155,0-0.281-0.99-0.281-2.212v-8.294
				c0-1.221,0.126-2.211,0.281-2.211h11.414c0.156,0,0.281,0.99,0.281,2.211V192.95z"/>
			<g>
				<path style="fill:#FFFFFF;" d="M83.326,192.95c-0.152,0.984-0.087,1.133,0.197,0.445c1.007-0.578,2.015-1.155,3.022-1.733
					c-3.805,0-7.609,0-11.414,0c1.007,0.578,2.015,1.155,3.022,1.733c0.55,0.874,0.197-0.823,0.197-1.308c0-1.012,0-2.024,0-3.036
					c0-1.063,0-2.128,0-3.191c0-0.352,0-0.702,0-1.054c0-0.553,0.361-1.48-0.197-0.595c-1.007,0.578-2.015,1.155-3.022,1.733
					c3.805,0,7.609,0,11.414,0c-1.007-0.578-2.015-1.155-3.022-1.733c-0.605-0.959-0.197,0.561-0.197,1.014c0,0.944,0,1.89,0,2.835
					C83.326,189.69,83.326,191.32,83.326,192.95c0,4.514,7,4.514,7,0c0-3.957,1.703-14.005-4.218-14.005c-2.865,0-5.73,0-8.596,0
					c-0.794,0-1.587,0-2.381,0c-3.222,0-3.718,3.242-3.781,5.711c-0.061,2.36,0,4.729,0,7.09c0,3.109,0.155,6.916,4.218,6.916
					c2.865,0,5.73,0,8.596,0c0.794,0,1.587,0,2.381,0c3.222,0,3.718-3.242,3.781-5.712C90.442,188.434,83.441,188.444,83.326,192.95
					z"/>
			</g>
		</g>
		<g>
			<path style="fill:#FFFFFF;" d="M125.224,192.74c0,1.221-0.255,2.211-0.568,2.211h-23.045c-0.314,0-0.568-0.99-0.568-2.211v-8.294
				c0-1.222,0.254-2.212,0.568-2.212h23.045c0.313,0,0.568,0.99,0.568,2.212V192.74z"/>
			<g>
				<path style="fill:#FFFFFF;" d="M121.724,192.74c-0.03,0.148-0.06,0.296-0.09,0.444c1.007-0.578,2.015-1.155,3.022-1.733
					c-7.682,0-15.363,0-23.045,0c1.007,0.578,2.015,1.155,3.022,1.733c-0.714-1.151-0.714-8.032,0-9.184
					c-1.007,0.578-2.015,1.155-3.022,1.733c7.682,0,15.363,0,23.045,0c-1.007-0.578-2.015-1.155-3.022-1.733
					C122.731,185.772,121.724,190.653,121.724,192.74c0,4.514,7,4.514,7,0c0-3.073,1.058-8.876-0.645-11.625
					c-1.947-3.144-5.324-2.381-8.563-2.381c-4.768,0-9.537,0-14.305,0c-4.505,0-7.105,0.411-7.669,5.712
					c-0.297,2.789-0.909,9.12,0.645,11.624c1.95,3.143,5.323,2.381,8.563,2.381c4.768,0,9.537,0,14.305,0
					c4.505,0,7.104-0.41,7.668-5.711C129.202,188.254,122.197,188.3,121.724,192.74z"/>
			</g>
		</g>
		<g>
			<path style="fill:#FFFFFF;" d="M163.139,192.846c0,1.221-0.254,2.211-0.568,2.211h-23.045c-0.314,0-0.568-0.99-0.568-2.211
				v-8.295c0-1.221,0.254-2.211,0.568-2.211h23.045c0.313,0,0.568,0.99,0.568,2.211V192.846z"/>
			<g>
				<path style="fill:#FFFFFF;" d="M159.639,192.846c-0.03,0.148-0.06,0.296-0.09,0.444c1.007-0.578,2.015-1.155,3.022-1.733
					c-7.682,0-15.363,0-23.045,0c1.007,0.578,2.015,1.155,3.022,1.733c-0.714-1.151-0.714-8.032,0-9.184
					c-1.007,0.578-2.015,1.155-3.022,1.733c7.682,0,15.363,0,23.045,0c-1.007-0.578-2.015-1.155-3.022-1.733
					C160.646,185.877,159.639,190.76,159.639,192.846c0,4.514,7,4.514,7,0c0-3.072,1.059-8.877-0.644-11.625
					c-1.949-3.143-5.324-2.381-8.563-2.381c-4.768,0-9.537,0-14.305,0c-4.504,0-7.104,0.411-7.669,5.711
					c-0.297,2.789-0.909,9.121,0.645,11.625c1.95,3.143,5.323,2.381,8.563,2.381c4.768,0,9.537,0,14.305,0
					c4.504,0,7.104-0.41,7.668-5.711C167.116,188.359,160.111,188.405,159.639,192.846z"/>
			</g>
		</g>
		<g>
			<path style="fill:#FFFFFF;" d="M175.734,184.129c0-1.221,0.117-2.211,0.261-2.211h10.608c0.145,0,0.262,0.99,0.262,2.211v8.294
				c0,1.221-0.117,2.212-0.262,2.212h-10.608c-0.145,0-0.261-0.991-0.261-2.212V184.129z"/>
			<g>
				<path style="fill:#FFFFFF;" d="M179.234,184.129c0.16-0.982,0.087-1.131-0.217-0.444c-1.007,0.578-2.015,1.155-3.022,1.733
					c3.536,0,7.072,0,10.608,0c-1.008-0.578-2.015-1.155-3.022-1.733c-0.553-0.943-0.216,0.851-0.216,1.307c0,1.012,0,2.024,0,3.036
					c0,1.063,0,2.128,0,3.191c0,0.522-0.269,2.477,0.216,1.649c1.008-0.578,2.015-1.155,3.022-1.733c-3.536,0-7.072,0-10.608,0
					c1.007,0.578,2.015,1.155,3.022,1.733c0.596,1.019,0.217-0.58,0.217-1.015c0-0.944,0-1.89,0-2.835
					C179.234,187.389,179.234,185.759,179.234,184.129c0-4.514-7-4.514-7,0c0,3.763-1.672,14.006,4.023,14.006
					c2.628,0,5.257,0,7.886,0c0.819,0,1.64,0,2.46,0c3.229,0,3.703-3.243,3.762-5.712c0.057-2.36,0-4.729,0-7.09
					c0-2.951-0.06-6.915-4.024-6.915c-2.628,0-5.257,0-7.885,0c-0.82,0-1.64,0-2.46,0c-3.229,0-3.703,3.242-3.761,5.711
					C172.127,188.646,179.127,188.635,179.234,184.129z"/>
			</g>
		</g>
		<g>
			<path style="fill:#FFFFFF;" d="M86.826,97.053c0,1.221-0.125,2.211-0.281,2.211H75.131c-0.155,0-0.281-0.99-0.281-2.211v-8.293
				c0-1.221,0.126-2.211,0.281-2.211h11.414c0.156,0,0.281,0.991,0.281,2.211V97.053z"/>
			<g>
				<path style="fill:#FFFFFF;" d="M83.326,97.053c-0.152,0.984-0.087,1.133,0.197,0.445c1.007-0.578,2.015-1.156,3.022-1.733
					c-3.805,0-7.609,0-11.414,0c1.007,0.578,2.015,1.156,3.022,1.733c0.551,0.874,0.197-0.823,0.197-1.307c0-1.012,0-2.024,0-3.036
					c0-1.064,0-2.128,0-3.192c0-0.351,0-0.702,0-1.053c0-0.553,0.361-1.482-0.197-0.596c-1.007,0.578-2.015,1.156-3.022,1.733
					c3.805,0,7.609,0,11.414,0c-1.007-0.578-2.015-1.156-3.022-1.733c-0.605-0.959-0.197,0.561-0.197,1.014c0,0.945,0,1.89,0,2.835
					C83.326,93.793,83.326,95.423,83.326,97.053c0,4.514,7,4.514,7,0c0-3.957,1.703-14.005-4.218-14.005c-2.865,0-5.73,0-8.596,0
					c-0.794,0-1.587,0-2.381,0c-3.222,0-3.718,3.242-3.781,5.711c-0.061,2.36,0,4.729,0,7.09c0,3.108,0.156,6.915,4.218,6.915
					c2.865,0,5.73,0,8.596,0c0.794,0,1.587,0,2.381,0c3.222,0,3.718-3.242,3.781-5.711C90.442,92.536,83.441,92.547,83.326,97.053z"
					/>
			</g>
		</g>
		<g>
			<path style="fill:#FFFFFF;" d="M125.224,96.842c0,1.221-0.255,2.211-0.568,2.211h-23.045c-0.314,0-0.568-0.991-0.568-2.211
				v-8.294c0-1.221,0.254-2.211,0.568-2.211h23.045c0.313,0,0.568,0.99,0.568,2.211V96.842z"/>
			<g>
				<path style="fill:#FFFFFF;" d="M121.724,96.842c-0.03,0.148-0.06,0.296-0.09,0.445c1.007-0.578,2.015-1.156,3.022-1.733
					c-7.682,0-15.363,0-23.045,0c1.007,0.578,2.015,1.156,3.022,1.733c-0.714-1.151-0.714-8.032,0-9.183
					c-1.007,0.578-2.015,1.156-3.022,1.733c7.682,0,15.363,0,23.045,0c-1.007-0.578-2.015-1.156-3.022-1.733
					C122.731,89.875,121.724,94.756,121.724,96.842c0,4.514,7,4.514,7,0c0-3.073,1.058-8.875-0.645-11.624
					c-1.948-3.144-5.324-2.381-8.563-2.381c-4.768,0-9.537,0-14.305,0c-4.504,0-7.104,0.411-7.669,5.711
					c-0.297,2.79-0.909,9.12,0.645,11.624c1.95,3.143,5.323,2.381,8.563,2.381c4.768,0,9.537,0,14.305,0
					c4.505,0,7.104-0.411,7.668-5.711C129.202,92.356,122.197,92.402,121.724,96.842z"/>
			</g>
		</g>
		<g>
			<path style="fill:#FFFFFF;" d="M163.139,96.947c0,1.221-0.254,2.211-0.568,2.211h-23.045c-0.314,0-0.568-0.99-0.568-2.211v-8.293
				c0-1.221,0.254-2.211,0.568-2.211h23.045c0.313,0,0.568,0.991,0.568,2.211V96.947z"/>
			<g>
				<path style="fill:#FFFFFF;" d="M159.639,96.947c-0.03,0.148-0.06,0.296-0.09,0.445c1.007-0.578,2.015-1.156,3.022-1.733
					c-7.682,0-15.363,0-23.045,0c1.007,0.578,2.015,1.156,3.022,1.733c-0.714-1.151-0.714-8.032,0-9.183
					c-1.007,0.578-2.015,1.156-3.022,1.733c7.682,0,15.363,0,23.045,0c-1.007-0.578-2.015-1.156-3.022-1.733
					C160.646,89.979,159.639,94.861,159.639,96.947c0,4.514,7,4.514,7,0c0-3.072,1.058-8.876-0.644-11.624
					c-1.948-3.144-5.324-2.381-8.563-2.381c-4.768,0-9.537,0-14.305,0c-4.505,0-7.104,0.411-7.669,5.711
					c-0.297,2.79-0.909,9.12,0.645,11.624c1.95,3.143,5.323,2.381,8.563,2.381c4.768,0,9.537,0,14.305,0
					c4.505,0,7.104-0.411,7.668-5.711C167.116,92.46,160.111,92.507,159.639,96.947z"/>
			</g>
		</g>
		<g>
			<g>
				<path style="fill:#FFFFFF;" d="M205.416,96.868c-0.152,0.984-0.087,1.132,0.196,0.445c1.008-0.578,2.015-1.156,3.022-1.733
					c-3.805,0-7.609,0-11.414,0c1.008,0.578,2.015,1.156,3.022,1.733c0.55,0.874,0.196-0.823,0.196-1.308c0-1.012,0-2.023,0-3.036
					c0-1.064,0-2.128,0-3.191c0-0.351,0-0.702,0-1.053c0-0.553,0.361-1.482-0.196-0.596c-1.008,0.578-2.015,1.156-3.022,1.733
					c3.805,0,7.609,0,11.414,0c-1.008-0.578-2.015-1.156-3.022-1.733c-0.604-0.96-0.196,0.562-0.196,1.014c0,0.945,0,1.89,0,2.835
					C205.416,93.608,205.416,95.238,205.416,96.868c0,4.514,7,4.514,7,0c0-3.957,1.703-14.005-4.218-14.005c-2.865,0-5.73,0-8.597,0
					c-0.793,0-1.587,0-2.381,0c-3.222,0-3.718,3.242-3.781,5.711c-0.061,2.36,0,4.729,0,7.09c0,3.109,0.155,6.916,4.218,6.916
					c2.865,0,5.73,0,8.597,0c0.793,0,1.587,0,2.381,0c3.222,0,3.718-3.242,3.781-5.711
					C212.532,92.352,205.532,92.363,205.416,96.868z"/>
			</g>
		</g>
		<g>
			<path style="fill:#FFFFFF;" d="M175.891,88.596c0-1.221,0.117-2.211,0.261-2.211h10.608c0.145,0,0.262,0.99,0.262,2.211v8.293
				c0,1.221-0.117,2.211-0.262,2.211h-10.608c-0.144,0-0.261-0.99-0.261-2.211V88.596z"/>
			<g>
				<path style="fill:#FFFFFF;" d="M179.391,88.596c0.16-0.982,0.087-1.131-0.217-0.445c-1.007,0.578-2.015,1.156-3.022,1.733
					c3.536,0,7.072,0,10.608,0c-1.008-0.578-2.015-1.156-3.022-1.733c-0.553-0.943-0.216,0.851-0.216,1.307c0,1.012,0,2.024,0,3.036
					c0,1.064,0,2.128,0,3.192c0,0.522-0.269,2.476,0.216,1.648c1.008-0.578,2.015-1.156,3.022-1.733c-3.536,0-7.072,0-10.608,0
					c1.007,0.578,2.015,1.156,3.022,1.733c0.596,1.02,0.217-0.58,0.217-1.014c0-0.945,0-1.89,0-2.835
					C179.391,91.856,179.391,90.226,179.391,88.596c0-4.514-7-4.514-7,0c0,3.763-1.672,14.005,4.023,14.005c2.628,0,5.257,0,7.886,0
					c0.819,0,1.64,0,2.46,0c3.229,0,3.703-3.243,3.762-5.711c0.057-2.36,0-4.729,0-7.09c0-2.951-0.059-6.915-4.024-6.915
					c-2.628,0-5.257,0-7.885,0c-0.82,0-1.64,0-2.46,0c-3.229,0-3.702,3.243-3.761,5.711
					C172.283,93.113,179.284,93.103,179.391,88.596z"/>
			</g>
		</g>
	</g>
	<g>
		<g>
			<g>
				<path style="fill:#FFFFFF;" d="M241.209,228.781c0-9.863,0-19.728,0-29.591c0-6.235,0-12.471,0-18.707c0-1.508,0-3.016,0-4.524
					c0-2.682,3.217-1.89,5.107-1.89c1.227,0,4.682-0.57,4.682,1.468c0,1.485,0,2.971,0,4.456c0,6.17,0,12.34,0,18.509
					c0,10.093,0,20.186,0,30.278c0,4.514,7,4.514,7,0c0-11.709,0-23.419,0-35.128c0-5.787,0-11.575,0-17.362
					c0-6.465-4.814-9.221-10.729-9.221c-6.253,0-13.061,1.091-13.061,9.102c0,5.413,0,10.825,0,16.238c0,12.124,0,24.248,0,36.372
					C234.209,233.295,241.209,233.295,241.209,228.781L241.209,228.781z"/>
			</g>
		</g>
		<g>
			<g>
				<path style="fill:#FFFFFF;" d="M225.525,258.786c0-11.049,0-22.098,0-33.146c0-7.303,0-14.605,0-21.908
					c0-4.86-0.456-10.208,0.396-14.969c0.453-2.528,5.455-1.294,7.729-1.294c2.686,0,0.558-0.051,0.558-1.076
					c0,0.527,0,1.055,0,1.582c0,6.102,0,12.203,0,18.305c0,11.967,0,23.935,0,35.901c0,4.514,7,4.514,7,0
					c0-11.967,0-23.935,0-35.901c0-6.102,0-12.203,0-18.305c0-6.744-4.604-7.506-10.361-7.506c-2.877,0-6.536-0.546-8.881,1.509
					c-3.924,3.44-3.435,9.771-3.441,14.491c-0.006,3.626,0,7.253,0,10.879c0,14.943,0,29.887,0,44.83c0,2.202,0,4.405,0,6.608
					C218.525,263.3,225.525,263.3,225.525,258.786L225.525,258.786z"/>
			</g>
		</g>
		<g>
			<g>
				<path style="fill:#FFFFFF;" d="M257.998,238.676c0-9.999,0-19.998,0-29.997c0-6.463,0-12.926,0-19.389c0-1.837,0-3.674,0-5.511
					c0-0.336,0-0.672,0-1.008c0,0.154-2.009,1.191-0.736,1.191c0.745,0,1.49,0,2.236,0c5.394,0,6.63,0.58,6.63,5.399
					c0,5.854,0,11.71,0,17.565c0,10.582,0,21.165,0,31.748c0,4.514,7,4.514,7,0c0-11.865,0-23.729,0-35.595
					c0-10.324,3.104-26.118-11.797-26.118c-5.754,0-10.333,0.781-10.333,7.505c0,6.102,0,12.203,0,18.305
					c0,11.968,0,23.935,0,35.902C250.998,243.189,257.998,243.189,257.998,238.676L257.998,238.676z"/>
			</g>
		</g>
		<g>
			<g>
				<path style="fill:#FFFFFF;" d="M273.128,245.041c0-12.389,0-24.778,0-37.167c0-2.504,0-5.008,0-7.513c0-0.521,0-1.044,0-1.566
					c0,0.328-2.026,1.174-0.602,1.174c1.11,0,2.221,0,3.331,0c3.463,0,2.633,5.412,2.633,8.106c0,26.102,0,52.204,0,78.306
					c0,0.504,0,1.007,0,1.511c0,4.514,7,4.514,7,0c0-24.825,0-49.65,0-74.476c0-2.882,0-5.763,0-8.645
					c0-3.092-0.473-6.735-2.594-9.144c-2.604-2.956-6.056-2.659-9.649-2.659c-6.614,0-7.119,4.728-7.119,9.918
					c0,7.315,0,14.632,0,21.948c0,6.735,0,13.471,0,20.206C266.128,249.555,273.128,249.555,273.128,245.041L273.128,245.041z"/>
			</g>
		</g>
		<g>
			<g>
				<path style="fill:#FFFFFF;" d="M213.063,288.069c-4.117-17.482-8.233-34.965-12.351-52.447
					c-0.767-3.257-1.659-4.886,2.256-6.144c1.46-0.469,5.136-2.104,5.776-0.108c0.5,1.554,0.999,3.106,1.498,4.66
					c2.779,8.649,5.559,17.299,8.338,25.948c1.375,4.279,8.135,2.449,6.75-1.861c-3.11-9.679-6.221-19.357-9.33-29.036
					c-1.87-5.819-5.817-8.194-12.049-7.223c-5.894,0.92-12.506,4.936-10.889,11.805c4.417,18.756,8.833,37.512,13.25,56.268
					C207.347,294.323,214.097,292.46,213.063,288.069L213.063,288.069z"/>
			</g>
		</g>
	</g>
</g>
<g id="Ebene_1">
</g>
</svg>
