<?xml version="1.0" encoding="iso-8859-1"?>
<!-- Generator: Adobe Illustrator 16.0.0, SVG Export Plug-In . SVG Version: 6.00 Build 0)  -->
<!DOCTYPE svg PUBLIC "-//W3C//DTD SVG 1.1 Tiny//EN" "http://www.w3.org/Graphics/SVG/1.1/DTD/svg11-tiny.dtd">
<svg version="1.1" baseProfile="tiny" id="sani_x5F_solar"
	 xmlns="http://www.w3.org/2000/svg" xmlns:xlink="http://www.w3.org/1999/xlink" x="0px" y="0px" width="361px" height="361px"
	 viewBox="0 0 361 361" xml:space="preserve">
<g>
	<path fill="#FFFFFF" d="M289.291,289.821c0.133-44.115,0.266-88.229,0.399-132.344c0.01-3.45-4.398-6.688-7.523-4.317
		c-38.352,29.086-76.704,58.173-115.055,87.26c-19.815,15.028-39.63,30.056-59.445,45.084c-3.729,2.828-2.879,9.317,2.523,9.317
		c49.822,0,99.645,0,149.466,0c8.211,0,16.423,0,24.634,0c6.449,0,6.449-10,0-10c-49.822,0-99.645,0-149.466,0
		c-8.211,0-16.423,0-24.634,0c0.841,3.106,1.683,6.211,2.523,9.317c38.352-29.086,76.704-58.173,115.055-87.26
		c19.815-15.028,39.63-30.056,59.445-45.084c-2.508-1.439-5.016-2.878-7.523-4.317c-0.133,44.115-0.266,88.229-0.399,132.344
		C279.271,296.271,289.271,296.269,289.291,289.821z"/>
</g>
<g>
	<path fill="#FFFFFF" d="M247.677,156.046c-38.135,29.415-76.27,58.83-114.405,88.245c-1.26,0.972-2.52,1.943-3.779,2.915
		c-5.029,3.879-0.06,12.574,5.047,8.635c38.135-29.415,76.27-58.83,114.405-88.245c1.26-0.972,2.52-1.943,3.779-2.915
		C257.752,160.802,252.783,152.107,247.677,156.046L247.677,156.046z"/>
</g>
<path fill="none" stroke="#FFFFFF" stroke-width="10" stroke-miterlimit="10" d="M90.26,126.362c0,2.466,2,4.466,4.466,4.466h25.682
	c2.467,0,4.466-2,4.466-4.466V100.68c0-2.467-2-4.466-4.466-4.466H94.726c-2.467,0-4.466,2-4.466,4.466V126.362z"/>
<g>
	<path fill="#FFFFFF" d="M142.355,74.134c-2.644,2.645-5.289,5.289-7.933,7.933c-1.926,1.926-1.926,5.145,0,7.071
		s5.145,1.926,7.071,0c2.644-2.645,5.289-5.289,7.933-7.933c1.926-1.926,1.926-5.145,0-7.071S144.282,72.208,142.355,74.134
		L142.355,74.134z"/>
</g>
<g>
	<path fill="#FFFFFF" d="M183.665,108.247c-12.271,0-24.542,0-36.813,0c-6.449,0-6.449,10,0,10c12.271,0,24.542,0,36.813,0
		C190.114,118.247,190.114,108.247,183.665,108.247L183.665,108.247z"/>
</g>
<g>
	<path fill="#FFFFFF" d="M76.351,153.182c2.187-2.187,4.373-4.373,6.56-6.56c1.926-1.926,1.926-5.145,0-7.071s-5.145-1.926-7.071,0
		c-2.187,2.187-4.373,4.373-6.56,6.56c-1.926,1.926-1.926,5.145,0,7.071S74.425,155.108,76.351,153.182L76.351,153.182z"/>
</g>
<g>
	<path fill="#FFFFFF" d="M113.117,188.795c0-12.271,0-24.542,0-36.813c0-6.449-10-6.449-10,0c0,12.271,0,24.542,0,36.813
		C103.117,195.244,113.117,195.244,113.117,188.795L113.117,188.795z"/>
</g>
<g>
	<path fill="#FFFFFF" d="M166.425,165.583c-8.677-8.677-17.354-17.354-26.031-26.031c-4.564-4.563-11.635,2.507-7.071,7.071
		c8.677,8.677,17.354,17.354,26.031,26.031C163.918,177.218,170.989,170.147,166.425,165.583L166.425,165.583z"/>
</g>
</svg>
