<?xml version="1.0" encoding="iso-8859-1"?>
<!-- Generator: Adobe Illustrator 16.0.0, SVG Export Plug-In . SVG Version: 6.00 Build 0)  -->
<!DOCTYPE svg PUBLIC "-//W3C//DTD SVG 1.1//EN" "http://www.w3.org/Graphics/SVG/1.1/DTD/svg11.dtd">
<svg version="1.1" xmlns="http://www.w3.org/2000/svg" xmlns:xlink="http://www.w3.org/1999/xlink" x="0px" y="0px" width="361px"
	 height="361px" viewBox="0 0 361 361" style="enable-background:new 0 0 361 361;" xml:space="preserve">
<g id="sani_x5F_solar_x5F_temp">
	<g>
		<g>
			<path style="fill:#FFFFFF;" d="M204.238,286.943c0.095-31.259,0.188-62.518,0.283-93.776c0.011-3.45-4.398-6.688-7.523-4.317
				c-38.97,29.556-77.939,59.11-116.908,88.666c-2.246,1.703-4.492,3.407-6.738,5.11c-3.729,2.828-2.879,9.317,2.523,9.317
				c41.121,0,82.242,0,123.363,0c6.448,0,6.448-10,0-10c-41.121,0-82.242,0-123.363,0c0.841,3.105,1.683,6.212,2.523,9.317
				c38.97-29.556,77.939-59.11,116.908-88.666c2.246-1.703,4.492-3.407,6.738-5.11c-2.508-1.439-5.016-2.878-7.523-4.317
				c-0.095,31.259-0.188,62.518-0.283,93.776C194.219,293.393,204.219,293.391,204.238,286.943z"/>
		</g>
	</g>
	<g>
		<g>
			<path style="fill:#FFFFFF;" d="M171.56,189.896c-27.915,21.531-55.829,43.063-83.743,64.594
				c-5.029,3.879-0.06,12.573,5.047,8.635c27.915-21.531,55.829-43.063,83.743-64.594
				C181.636,194.651,176.667,185.957,171.56,189.896L171.56,189.896z"/>
		</g>
	</g>
	<path style="fill:none;stroke:#FFFFFF;stroke-width:10;stroke-miterlimit:10;" d="M92.945,123.484c0,2.466,1.999,4.466,4.466,4.466
		h25.682c2.467,0,4.466-2,4.466-4.466V97.802c0-2.467-2-4.466-4.466-4.466H97.411c-2.467,0-4.466,2-4.466,4.466V123.484z"/>
	<g>
		<g>
			<path style="fill:#FFFFFF;" d="M145.041,71.256c-2.644,2.645-5.289,5.289-7.933,7.933c-1.926,1.926-1.926,5.145,0,7.071
				s5.145,1.926,7.071,0c2.644-2.645,5.289-5.289,7.933-7.933c1.926-1.926,1.926-5.145,0-7.071S146.967,69.33,145.041,71.256
				L145.041,71.256z"/>
		</g>
	</g>
	<g>
		<g>
			<path style="fill:#FFFFFF;" d="M186.35,105.369c-12.271,0-24.542,0-36.812,0c-6.449,0-6.449,10,0,10c12.271,0,24.542,0,36.812,0
				C192.798,115.369,192.798,105.369,186.35,105.369L186.35,105.369z"/>
		</g>
	</g>
	<g>
		<g>
			<path style="fill:#FFFFFF;" d="M79.036,150.304c2.187-2.187,4.374-4.373,6.561-6.56c1.926-1.926,1.926-5.145,0-7.071
				c-1.927-1.926-5.145-1.926-7.071,0c-2.187,2.187-4.374,4.373-6.561,6.56c-1.926,1.926-1.926,5.145,0,7.071
				C73.891,152.23,77.109,152.23,79.036,150.304L79.036,150.304z"/>
		</g>
	</g>
	<g>
		<g>
			<path style="fill:#FFFFFF;" d="M115.802,185.917c0-12.271,0-24.542,0-36.813c0-6.449-10-6.449-10,0c0,12.271,0,24.542,0,36.813
				C105.802,192.365,115.802,192.365,115.802,185.917L115.802,185.917z"/>
		</g>
	</g>
	<g>
		<g>
			<path style="fill:#FFFFFF;" d="M169.11,162.705c-8.677-8.677-17.354-17.354-26.031-26.031c-4.564-4.563-11.635,2.507-7.071,7.071
				c8.677,8.677,17.354,17.354,26.031,26.031C166.603,174.34,173.674,167.269,169.11,162.705L169.11,162.705z"/>
		</g>
	</g>
	<path style="fill:none;stroke:#FFFFFF;stroke-width:10;stroke-miterlimit:10;" d="M268.648,215.92c0,1.859-1.634,3.368-3.648,3.368
		h-13.379c-2.014,0-3.648-1.509-3.648-3.368v-93.397c0-1.861,1.635-3.369,3.648-3.369H265c2.015,0,3.648,1.508,3.648,3.369V215.92z"
		/>
	<path style="fill:#FFFFFF;stroke:#FFFFFF;stroke-width:10;stroke-miterlimit:10;" d="M274.121,244.018
		c0,2.016-1.28,3.649-2.859,3.649H245.36c-1.579,0-2.86-1.634-2.86-3.649v-21.08c0-2.015,1.281-3.648,2.86-3.648h25.901
		c1.579,0,2.859,1.634,2.859,3.648V244.018z"/>
	<g>
		<g>
			<path style="fill:#FFFFFF;" d="M276.555,131.451c3.648,0,7.297,0,10.945,0c6.448,0,6.448-10,0-10c-3.648,0-7.297,0-10.945,0
				C270.106,121.451,270.106,131.451,276.555,131.451L276.555,131.451z"/>
		</g>
	</g>
	<g>
		<g>
			<path style="fill:#FFFFFF;" d="M276.555,155.775c3.648,0,7.297,0,10.945,0c6.448,0,6.448-10,0-10c-3.648,0-7.297,0-10.945,0
				C270.106,145.775,270.106,155.775,276.555,155.775L276.555,155.775z"/>
		</g>
	</g>
	<g>
		<g>
			<path style="fill:#FFFFFF;" d="M276.555,180.708c3.648,0,7.297,0,10.945,0c6.448,0,6.448-10,0-10c-3.648,0-7.297,0-10.945,0
				C270.106,170.708,270.106,180.708,276.555,180.708L276.555,180.708z"/>
		</g>
	</g>
	<g>
		<g>
			<path style="fill:#FFFFFF;" d="M276.555,206.855c3.648,0,7.297,0,10.945,0c6.448,0,6.448-10,0-10c-3.648,0-7.297,0-10.945,0
				C270.106,196.855,270.106,206.855,276.555,206.855L276.555,206.855z"/>
		</g>
	</g>
	
		<rect x="247.973" y="185.894" style="fill:#FFFFFF;stroke:#FFFFFF;stroke-width:10;stroke-miterlimit:10;" width="20.676" height="42.922"/>
</g>
<g id="Ebene_1">
</g>
</svg>
