<?xml version="1.0" encoding="iso-8859-1"?>
<!-- Generator: Adobe Illustrator 16.0.0, SVG Export Plug-In . SVG Version: 6.00 Build 0)  -->
<!DOCTYPE svg PUBLIC "-//W3C//DTD SVG 1.1//EN" "http://www.w3.org/Graphics/SVG/1.1/DTD/svg11.dtd">
<svg version="1.1" xmlns="http://www.w3.org/2000/svg" xmlns:xlink="http://www.w3.org/1999/xlink" x="0px" y="0px" width="361px"
	 height="361px" viewBox="0 0 361 361" style="enable-background:new 0 0 361 361;" xml:space="preserve">
<g id="sani_x5F_sprinkling">
	<g>
		<g>
			<g>
				<path style="fill:#FFFFFF;" d="M98.979,289.912c-0.069-19.183-1.412-50.086-27.042-50.507c-1.936-0.032-1.933,2.969,0,3
					c23.526,0.386,23.979,30.271,24.042,47.507C95.986,291.847,98.986,291.847,98.979,289.912L98.979,289.912z"/>
			</g>
		</g>
		<g>
			<g>
				<path style="fill:#FFFFFF;" d="M104.937,289.912c-0.137-21.652-6.396-50.1-33-50.507c-1.936-0.029-1.933,2.971,0,3
					c24.768,0.379,29.874,27.679,30,47.507C101.949,291.846,104.949,291.848,104.937,289.912L104.937,289.912z"/>
			</g>
		</g>
		<g>
			<g>
				<path style="fill:#FFFFFF;" d="M84.647,289.912c-0.02-9.495,0.501-20.042-2.584-29.192c-1.448-4.295-4.544-7.124-7.648-10.244
					c-1.365-1.373-3.486,0.749-2.121,2.121c2.927,2.942,5.711,5.464,7.075,9.511c2.91,8.63,2.259,18.857,2.278,27.805
					C81.651,291.847,84.651,291.847,84.647,289.912L84.647,289.912z"/>
			</g>
		</g>
		<g>
			<g>
				<path style="fill:#FFFFFF;" d="M90.604,289.912c-0.037-9.505,0.256-20.587-4.408-29.23c-2.631-4.876-7.686-7.441-12.085-10.44
					c-1.603-1.093-3.102,1.508-1.514,2.59c4.054,2.764,8.439,5.002,11.009,9.365c4.614,7.835,3.964,19.02,3.998,27.716
					C87.612,291.847,90.612,291.847,90.604,289.912L90.604,289.912z"/>
			</g>
		</g>
		<g>
			<g>
				<path style="fill:#FFFFFF;" d="M112.917,289.912c0.042-7.714-0.653-18.977,4.436-25.553c1.432-1.851,3.908-2.56,4.127-5.154
					c0.163-1.929-2.839-1.913-3,0c-0.084,1.004-3.84,3.729-4.52,4.868c-4.347,7.282-3.998,17.748-4.042,25.839
					C109.906,291.848,112.906,291.846,112.917,289.912L112.917,289.912z"/>
			</g>
		</g>
		<g>
			<g>
				<path style="fill:#FFFFFF;" d="M106.905,290.311c1.093-6.873,1.367-16.049,5.186-22.155c1.954-3.125,6.399-5.191,8.948-7.89
					c1.328-1.405-0.79-3.53-2.121-2.121c-2.805,2.969-6.699,4.942-9.181,8.156c-1.353,1.753-1.976,4.122-2.543,6.214
					c-1.505,5.55-2.28,11.331-3.181,16.999C103.711,291.405,106.602,292.218,106.905,290.311L106.905,290.311z"/>
			</g>
		</g>
		<g>
			<g>
				<path style="fill:#FFFFFF;" d="M138.311,289.912c0.022-7.597-0.307-15.865,2.149-23.169c1.249-3.712,4.352-5.884,7.204-8.313
					c1.476-1.256-0.657-3.367-2.121-2.121c-2.96,2.52-5.959,4.772-7.511,8.468c-3.213,7.653-2.697,17.041-2.721,25.135
					C135.305,291.847,138.305,291.847,138.311,289.912L138.311,289.912z"/>
			</g>
		</g>
		<g>
			<g>
				<path style="fill:#FFFFFF;" d="M132.354,289.912c0.04-7.537-0.21-16.395,3.811-23.099c2.419-4.034,7.304-5.902,11.196-8.148
					c1.675-0.966,0.165-3.559-1.514-2.59c-4.34,2.504-8.849,4.513-11.894,8.655c-4.957,6.742-4.558,17.328-4.599,25.182
					C129.343,291.848,132.343,291.846,132.354,289.912L132.354,289.912z"/>
			</g>
		</g>
		<g>
			<g>
				<path style="fill:#FFFFFF;" d="M148.437,289.912c0.049-6.599-0.401-16.325,4.525-21.601c1.479-1.584,3.773-1.983,4.037-4.438
					c0.207-1.923-2.795-1.902-3,0c-0.014,0.133-3.935,3.174-4.574,4.095c-4.139,5.953-3.938,15.099-3.988,21.944
					C145.423,291.848,148.423,291.846,148.437,289.912L148.437,289.912z"/>
			</g>
		</g>
		<g>
			<g>
				<path style="fill:#FFFFFF;" d="M142.426,290.311c1.042-5.548,1.42-14.122,5.206-18.738c2.219-2.705,6.288-4.275,8.929-6.639
					c1.444-1.293-0.685-3.407-2.121-2.121c-2.806,2.511-6.811,4.057-9.2,6.97c-4.108,5.01-4.575,13.71-5.706,19.731
					C139.178,291.404,142.069,292.211,142.426,290.311L142.426,290.311z"/>
			</g>
		</g>
		<g>
			<g>
				<path style="fill:#FFFFFF;" d="M127.928,290.021c-0.04-5.097-0.108-10.867-2.662-15.452c-0.558-1.002-1.361-1.87-2.276-2.551
					c-0.647-0.48-1.229-1.219-1.152-0.519c-0.21-1.901-3.212-1.922-3,0c0.199,1.805,1.552,2.173,2.756,3.229
					c3.762,3.3,3.3,10.903,3.334,15.292C124.943,291.955,127.943,291.957,127.928,290.021L127.928,290.021z"/>
			</g>
		</g>
		<g>
			<g>
				<path style="fill:#FFFFFF;" d="M132.112,289.623c-0.823-4.38-1.216-10.154-3.93-13.916c-1.64-2.273-4.714-3.418-6.784-5.268
					c-1.437-1.285-3.566,0.829-2.121,2.121c1.893,1.691,4.327,2.768,6.136,4.491c0.954,0.909,1.321,2.383,1.687,3.595
					c0.96,3.184,1.506,6.512,2.12,9.773C129.576,292.32,132.467,291.514,132.112,289.623L132.112,289.623z"/>
			</g>
		</g>
		<g>
			<g>
				<path style="fill:#FFFFFF;" d="M170.787,290.021c0.047-7.559-0.078-16.375,4.069-23.036c2.11-3.39,5.992-5.196,8.972-7.692
					c1.485-1.243-0.648-3.354-2.121-2.121c-3.296,2.761-6.954,4.666-9.441,8.3c-4.63,6.764-4.43,16.777-4.479,24.55
					C167.775,291.957,170.775,291.955,170.787,290.021L170.787,290.021z"/>
			</g>
		</g>
		<g>
			<g>
				<path style="fill:#FFFFFF;" d="M164.83,290.021c0.066-7.716,0.262-16.977,5.863-22.974c3.381-3.621,8.623-5.12,12.832-7.521
					c1.68-0.958,0.169-3.55-1.514-2.59c-4.771,2.721-10.11,4.424-13.947,8.532c-5.891,6.308-6.166,16.484-6.234,24.552
					C161.813,291.957,164.813,291.955,164.83,290.021L164.83,290.021z"/>
			</g>
		</g>
		<g>
			<g>
				<path style="fill:#FFFFFF;" d="M178.592,289.773c0.033-4.581-0.399-11.539,2.875-15.321c1.091-1.261,2.609-1.587,2.801-3.473
					c0.195-1.924-2.807-1.905-3,0c0.057-0.554-2.553,2.101-2.977,2.768c-2.832,4.458-2.663,11.005-2.698,16.026
					C175.579,291.709,178.579,291.707,178.592,289.773L178.592,289.773z"/>
			</g>
		</g>
		<g>
			<g>
				<path style="fill:#FFFFFF;" d="M174.59,290.172c0.718-4.159,0.955-9.753,3.371-13.398c1.249-1.885,4.229-3.139,5.868-4.733
					c1.389-1.352-0.734-3.471-2.121-2.121c-1.872,1.821-4.577,3.003-6.148,5.09c-2.841,3.772-3.097,9.935-3.862,14.366
					C171.371,291.267,174.261,292.076,174.59,290.172L174.59,290.172z"/>
			</g>
		</g>
		<g>
			<g>
				<path style="fill:#FFFFFF;" d="M158.796,289.885c-0.023-6.19,1.277-16.4-4.54-20.456c-1.591-1.11-3.089,1.492-1.515,2.59
					c0.888,0.619,1.206,0.58,1.647,1.779c1.808,4.904,1.388,10.975,1.407,16.087C155.804,291.819,158.804,291.819,158.796,289.885
					L158.796,289.885z"/>
			</g>
		</g>
		<g>
			<g>
				<path style="fill:#FFFFFF;" d="M164.776,289.486c-0.786-4.545-1.104-10.401-3.748-14.385c-1.517-2.284-4.518-3.544-6.468-5.438
					c-1.388-1.349-3.511,0.771-2.121,2.121c1.789,1.738,4.133,2.878,5.84,4.646c0.921,0.954,1.246,2.514,1.586,3.741
					c0.917,3.305,1.434,6.737,2.018,10.111C162.212,292.188,165.103,291.378,164.776,289.486L164.776,289.486z"/>
			</g>
		</g>
	</g>
	<g>
		<g>
			<path style="fill:#FFFFFF;" d="M209.033,289.855c0.073-13.624,1.247-33.309,18.923-33.657c1.932-0.038,1.936-3.038,0-3
				c-19.637,0.387-21.839,21.122-21.923,36.657C206.022,291.791,209.022,291.789,209.033,289.855L209.033,289.855z"/>
		</g>
	</g>
	<g>
		<g>
			<path style="fill:#FFFFFF;" d="M204.27,289.855c0.15-15.613,5.234-33.313,23.687-33.657c1.933-0.036,1.936-3.036,0-3
				c-20.205,0.378-26.52,19.271-26.687,36.657C201.251,291.791,204.251,291.789,204.27,289.855L204.27,289.855z"/>
		</g>
	</g>
	<g>
		<g>
			<path style="fill:#FFFFFF;" d="M220.492,289.855c0.021-6.478-0.271-13.51,1.779-19.747c0.966-2.937,3.407-4.742,5.611-6.724
				c1.441-1.296-0.688-3.411-2.121-2.121c-2.473,2.224-4.952,4.24-6.16,7.454c-2.464,6.558-2.086,14.271-2.109,21.138
				C217.485,291.79,220.485,291.79,220.492,289.855L220.492,289.855z"/>
		</g>
	</g>
	<g>
		<g>
			<path style="fill:#FFFFFF;" d="M215.729,289.855c0.038-6.41-0.226-13.947,3.155-19.669c1.873-3.169,5.684-4.732,8.694-6.567
				c1.649-1.004,0.143-3.6-1.514-2.59c-3.63,2.211-7.346,4.009-9.771,7.644c-3.885,5.821-3.524,14.566-3.564,21.183
				C212.718,291.791,215.718,291.789,215.729,289.855L215.729,289.855z"/>
		</g>
	</g>
	<g>
		<g>
			<path style="fill:#FFFFFF;" d="M196.29,289.855c-0.046-8.288,0.015-17.745-3.784-25.366c-0.721-1.446-1.772-2.754-3.011-3.786
				c-0.384-0.321-1.722-1.008-1.768-1.553c-0.161-1.913-3.163-1.929-3,0c0.205,2.433,2.392,3.223,3.87,4.847
				c5.547,6.091,4.651,18.438,4.692,25.858C193.301,291.789,196.301,291.791,196.29,289.855L196.29,289.855z"/>
		</g>
	</g>
	<g>
		<g>
			<path style="fill:#FFFFFF;" d="M202.194,289.457c-1.145-7.194-1.491-16.48-5.488-22.872c-2.166-3.464-6.624-5.538-9.418-8.495
				c-1.331-1.409-3.448,0.717-2.121,2.121c2.583,2.733,6.443,4.611,8.712,7.548c1.383,1.79,1.911,4.193,2.453,6.335
				c1.342,5.301,2.111,10.768,2.97,16.16C199.604,292.161,202.495,291.349,202.194,289.457L202.194,289.457z"/>
		</g>
	</g>
	<g>
		<g>
			<path style="fill:#FFFFFF;" d="M243.123,289.855c-0.023-7.981,0.384-16.948-2.483-24.567c-1.5-3.986-4.617-6.368-7.749-9.034
				c-1.464-1.246-3.597,0.865-2.121,2.121c2.706,2.304,5.557,4.325,6.978,7.71c3.002,7.151,2.354,16.216,2.376,23.771
				C240.129,291.79,243.129,291.79,243.123,289.855L243.123,289.855z"/>
		</g>
	</g>
	<g>
		<g>
			<path style="fill:#FFFFFF;" d="M249.08,289.855c-0.043-8.061,0.08-17.441-4.22-24.611c-2.734-4.56-7.868-6.683-12.273-9.225
				c-1.679-0.969-3.188,1.624-1.514,2.59c3.792,2.188,8.147,3.947,10.817,7.579c4.659,6.338,4.15,16.267,4.189,23.667
				C246.09,291.789,249.09,291.791,249.08,289.855L249.08,289.855z"/>
		</g>
	</g>
	<g>
		<g>
			<path style="fill:#FFFFFF;" d="M256.414,289.855c0.049-6.599-0.401-16.324,4.525-21.6c1.479-1.584,3.773-1.982,4.037-4.438
				c0.207-1.923-2.796-1.902-3,0c-0.015,0.132-3.935,3.173-4.574,4.094c-4.139,5.952-3.938,15.098-3.988,21.943
				C253.399,291.791,256.399,291.789,256.414,289.855L256.414,289.855z"/>
		</g>
	</g>
	<g>
		<g>
			<path style="fill:#FFFFFF;" d="M250.403,290.254c1.042-5.547,1.42-14.121,5.205-18.737c2.219-2.705,6.288-4.274,8.929-6.638
				c1.444-1.293-0.685-3.407-2.121-2.121c-2.807,2.511-6.811,4.056-9.199,6.969c-4.108,5.009-4.575,13.709-5.706,19.73
				C247.155,291.348,250.047,292.154,250.403,290.254L250.403,290.254z"/>
		</g>
	</g>
	<g>
		<g>
			<path style="fill:#FFFFFF;" d="M235.904,289.967c-0.04-5.097-0.107-10.867-2.662-15.453c-0.558-1.001-1.36-1.87-2.276-2.551
				c-0.646-0.48-1.229-1.218-1.151-0.518c-0.21-1.901-3.213-1.922-3,0c0.199,1.805,1.552,2.172,2.756,3.229
				c3.763,3.301,3.3,10.904,3.334,15.293C232.919,291.9,235.919,291.902,235.904,289.967L235.904,289.967z"/>
		</g>
	</g>
	<g>
		<g>
			<path style="fill:#FFFFFF;" d="M240.089,289.568c-0.823-4.381-1.217-10.155-3.931-13.917c-1.64-2.273-4.714-3.417-6.783-5.267
				c-1.438-1.285-3.566,0.83-2.121,2.121c1.893,1.691,4.327,2.767,6.137,4.49c0.953,0.909,1.32,2.383,1.686,3.595
				c0.961,3.185,1.507,6.513,2.12,9.774C237.553,292.266,240.444,291.459,240.089,289.568L240.089,289.568z"/>
		</g>
	</g>
	<g>
		<g>
			<path style="fill:#FFFFFF;" d="M278.764,289.967c0.047-7.559-0.078-16.375,4.069-23.037c2.11-3.39,5.991-5.195,8.972-7.692
				c1.485-1.243-0.649-3.354-2.121-2.121c-3.296,2.761-6.953,4.666-9.441,8.3c-4.63,6.764-4.43,16.777-4.479,24.551
				C275.752,291.902,278.752,291.9,278.764,289.967L278.764,289.967z"/>
		</g>
	</g>
	<g>
		<g>
			<path style="fill:#FFFFFF;" d="M272.807,289.967c0.065-7.716,0.262-16.978,5.863-22.976c3.381-3.621,8.623-5.119,12.831-7.52
				c1.68-0.958,0.169-3.55-1.514-2.59c-4.771,2.72-10.11,4.424-13.946,8.531c-5.891,6.309-6.166,16.485-6.234,24.554
				C269.79,291.902,272.79,291.9,272.807,289.967L272.807,289.967z"/>
		</g>
	</g>
	<g>
		<g>
			<path style="fill:#FFFFFF;" d="M286.569,289.719c0.032-4.581-0.399-11.54,2.875-15.322c1.091-1.261,2.609-1.587,2.8-3.473
				c0.194-1.925-2.807-1.905-3,0c0.056-0.554-2.552,2.1-2.977,2.768c-2.832,4.458-2.662,11.006-2.698,16.027
				C283.556,291.654,286.556,291.652,286.569,289.719L286.569,289.719z"/>
		</g>
	</g>
	<g>
		<g>
			<path style="fill:#FFFFFF;" d="M282.567,290.117c0.718-4.16,0.954-9.753,3.37-13.399c1.248-1.885,4.229-3.139,5.867-4.733
				c1.389-1.352-0.734-3.471-2.121-2.121c-1.871,1.821-4.577,3.003-6.147,5.089c-2.841,3.773-3.097,9.936-3.861,14.368
				C279.349,291.212,282.239,292.021,282.567,290.117L282.567,290.117z"/>
		</g>
	</g>
	<g>
		<g>
			<path style="fill:#FFFFFF;" d="M266.773,289.828c-0.022-6.194,1.275-16.395-4.54-20.455c-1.59-1.111-3.088,1.491-1.514,2.59
				c0.888,0.62,1.205,0.581,1.647,1.779c1.808,4.905,1.388,10.975,1.406,16.086C263.78,291.763,266.78,291.763,266.773,289.828
				L266.773,289.828z"/>
		</g>
	</g>
	<g>
		<g>
			<path style="fill:#FFFFFF;" d="M272.753,289.43c-0.786-4.545-1.104-10.401-3.748-14.384c-1.517-2.285-4.518-3.544-6.468-5.438
				c-1.388-1.348-3.511,0.771-2.121,2.121c1.789,1.738,4.133,2.878,5.841,4.646c0.921,0.954,1.245,2.515,1.586,3.741
				c0.917,3.305,1.434,6.737,2.018,10.111C270.189,292.131,273.08,291.321,272.753,289.43L272.753,289.43z"/>
		</g>
	</g>
	<path style="fill:#FFFFFF;" d="M189.316,222.281c0,1.195-0.969,2.166-2.166,2.166h-10.699c-1.196,0-2.166-0.971-2.166-2.166v-8.564
		c0-1.195,0.97-2.165,2.166-2.165h10.699c1.197,0,2.166,0.97,2.166,2.165V222.281z"/>
	<g>
		<g>
			<path style="fill:#FFFFFF;" d="M194.698,133.979c2.587-3.537,5.175-7.073,7.763-10.61c1.129-1.543,0.263-3.899-1.256-4.789
				c-1.773-1.039-3.665-0.281-4.789,1.255c-2.587,3.537-5.175,7.073-7.763,10.61c-1.129,1.543-0.263,3.899,1.256,4.789
				C191.683,136.274,193.574,135.516,194.698,133.979L194.698,133.979z"/>
		</g>
	</g>
	<g>
		<g>
			<path style="fill:#FFFFFF;" d="M221.622,125.76c2.468-1.783,4.937-3.566,7.404-5.35c1.543-1.115,2.29-3.022,1.256-4.789
				c-0.895-1.526-3.239-2.375-4.789-1.255c-2.468,1.783-4.937,3.566-7.404,5.35c-1.543,1.115-2.29,3.022-1.256,4.789
				C217.728,126.031,220.072,126.879,221.622,125.76L221.622,125.76z"/>
		</g>
	</g>
	<g>
		<g>
			<path style="fill:#FFFFFF;" d="M194.084,163.492c3.092-6.483,6.185-12.966,9.277-19.449c1.933-4.052-4.102-7.606-6.045-3.533
				c-3.092,6.483-6.185,12.966-9.277,19.449C186.106,164.011,192.141,167.564,194.084,163.492L194.084,163.492z"/>
		</g>
	</g>
	<g>
		<g>
			<path style="fill:#FFFFFF;" d="M183.99,159.066c1.893-5.359,3.786-10.719,5.679-16.078c1.507-4.268-5.258-6.087-6.75-1.861
				c-1.893,5.359-3.786,10.719-5.679,16.078C175.733,161.473,182.498,163.292,183.99,159.066L183.99,159.066z"/>
		</g>
	</g>
	<g>
		<g>
			<path style="fill:#FFFFFF;" d="M238.104,116.202c2.529-0.773,5.059-1.546,7.588-2.319c4.304-1.315,2.468-8.073-1.861-6.75
				c-2.529,0.773-5.059,1.546-7.588,2.319C231.939,110.768,233.775,117.525,238.104,116.202L238.104,116.202z"/>
		</g>
	</g>
	<g>
		<g>
			<path style="fill:#FFFFFF;" d="M153.068,171.871c-4-3.374-8-6.747-12-10.121c-3.427-2.89-8.405,2.036-4.95,4.95
				c4,3.374,8,6.747,12,10.121C151.545,179.711,156.523,174.786,153.068,171.871L153.068,171.871z"/>
		</g>
	</g>
	<g>
		<g>
			<path style="fill:#FFFFFF;" d="M131.534,155.841c-2.487-0.893-4.975-1.787-7.461-2.68c-1.797-0.646-3.829,0.711-4.306,2.444
				c-0.535,1.946,0.651,3.662,2.444,4.306c2.487,0.893,4.975,1.787,7.461,2.68c1.797,0.646,3.829-0.711,4.306-2.444
				C134.513,158.201,133.327,156.485,131.534,155.841L131.534,155.841z"/>
		</g>
	</g>
	<g>
		<g>
			<path style="fill:#FFFFFF;" d="M111.501,151.93c-2.394-0.105-4.787-0.211-7.181-0.317c-1.907-0.084-3.5,1.656-3.5,3.5
				c0,1.972,1.595,3.416,3.5,3.5c2.394,0.105,4.787,0.211,7.181,0.317c1.907,0.084,3.5-1.656,3.5-3.5
				C115.001,153.458,113.407,152.014,111.501,151.93L111.501,151.93z"/>
		</g>
	</g>
	<g>
		<g>
			<path style="fill:#FFFFFF;" d="M94.318,152.083c-1.136,0.256-2.271,0.512-3.408,0.768c-1.861,0.419-2.932,2.533-2.444,4.306
				c0.523,1.902,2.446,2.863,4.306,2.444c1.136-0.256,2.271-0.512,3.408-0.768c1.861-0.419,2.932-2.533,2.444-4.306
				C98.101,152.625,96.178,151.664,94.318,152.083L94.318,152.083z"/>
		</g>
	</g>
	<g>
		<g>
			<path style="fill:#FFFFFF;" d="M147.036,178.768c-5.666-2.202-11.331-4.404-16.996-6.606c-4.214-1.638-6.021,5.133-1.861,6.75
				c5.666,2.202,11.331,4.404,16.996,6.606C149.388,187.155,151.195,180.384,147.036,178.768L147.036,178.768z"/>
		</g>
	</g>
	<g>
		<g>
			<path style="fill:#FFFFFF;" d="M119.191,169.387c-2.904-0.057-5.807-0.113-8.711-0.17c-4.517-0.088-4.508,6.912,0,7
				c2.904,0.057,5.807,0.113,8.711,0.17C123.708,176.475,123.699,169.475,119.191,169.387L119.191,169.387z"/>
		</g>
	</g>
	<g>
		<g>
			<path style="fill:#FFFFFF;" d="M98.472,170.69c-1.973,0.836-3.946,1.673-5.919,2.509c-1.758,0.745-2.126,3.303-1.255,4.789
				c1.055,1.801,3.032,2,4.789,1.255c1.973-0.836,3.946-1.673,5.919-2.509c1.758-0.745,2.126-3.303,1.255-4.789
				C102.206,170.145,100.229,169.946,98.472,170.69L98.472,170.69z"/>
		</g>
	</g>
	<g>
		<g>
			<path style="fill:#FFFFFF;" d="M208.178,136.88c2.012-1.745,4.023-3.489,6.035-5.233c1.442-1.251,1.277-3.673,0-4.95
				c-1.42-1.42-3.51-1.249-4.949,0c-2.012,1.745-4.023,3.489-6.035,5.233c-1.442,1.251-1.277,3.673,0,4.95
				C204.648,138.3,206.738,138.129,208.178,136.88L208.178,136.88z"/>
		</g>
	</g>
	<g>
		<g>
			<path style="fill:#FFFFFF;" d="M254.785,112.788c1.231,0.031,2.464,0.062,3.695,0.093c1.908,0.048,3.5-1.628,3.5-3.5
				c0-1.944-1.593-3.452-3.5-3.5c-1.231-0.031-2.464-0.062-3.695-0.093c-1.908-0.048-3.5,1.628-3.5,3.5
				C251.285,111.232,252.878,112.739,254.785,112.788L254.785,112.788z"/>
		</g>
	</g>
	<g>
		<g>
			<path style="fill:#FFFFFF;" d="M268.906,113.872c0.648,0.166,1.297,0.331,1.944,0.496c1.848,0.471,3.793-0.581,4.306-2.444
				c0.498-1.813-0.597-3.834-2.444-4.306c-0.648-0.166-1.297-0.331-1.944-0.496c-1.848-0.471-3.793,0.581-4.306,2.444
				C265.964,111.378,267.059,113.4,268.906,113.872L268.906,113.872z"/>
		</g>
	</g>
	<g>
		<g>
			<path style="fill:#FFFFFF;" d="M208.585,116.921c2.053-1.531,4.105-3.063,6.158-4.594c1.525-1.138,2.302-3.003,1.256-4.789
				c-0.884-1.507-3.256-2.399-4.789-1.255c-2.053,1.531-4.105,3.063-6.158,4.594c-1.525,1.138-2.302,3.003-1.256,4.789
				C204.68,117.173,207.052,118.064,208.585,116.921L208.585,116.921z"/>
		</g>
	</g>
	<g>
		<g>
			<path style="fill:#FFFFFF;" d="M223.536,107.791c1.214-0.413,2.428-0.825,3.643-1.237c1.805-0.613,2.973-2.384,2.444-4.306
				c-0.483-1.757-2.498-3.058-4.306-2.444c-1.214,0.413-2.428,0.825-3.643,1.237c-1.805,0.613-2.973,2.384-2.444,4.306
				C219.714,107.104,221.729,108.405,223.536,107.791L223.536,107.791z"/>
		</g>
	</g>
	<g>
		<g>
			<path style="fill:#FFFFFF;" d="M237.974,103.622c0.7-0.125,1.4-0.25,2.102-0.375c1.88-0.335,2.915-2.596,2.444-4.306
				c-0.24-0.875-0.826-1.633-1.608-2.091c-0.868-0.509-1.737-0.524-2.697-0.353c-0.7,0.125-1.4,0.25-2.102,0.375
				c-1.88,0.335-2.915,2.596-2.444,4.306c0.24,0.875,0.826,1.633,1.608,2.091C236.145,103.778,237.014,103.793,237.974,103.622
				L237.974,103.622z"/>
		</g>
	</g>
	<g>
		<g>
			<path style="fill:#FFFFFF;" d="M166.005,228.875c-0.919-0.159-0.832,0.889-0.832,0.022c0-0.555,0-1.109,0-1.664
				c0-1.839,0-3.677,0-5.515c0-5.515,0-11.029,0-16.544c0-5.34,0-10.68,0-16.02c0-1.619,0-3.238,0-4.858c0-0.395,0-0.79,0-1.186
				c0,0.803,2.011,0.473,2.766,0.473c0.28,0,0.234-0.981,0.234-0.147c0,0.555,0,1.109,0,1.664c0,1.839,0,3.677,0,5.515
				c0,5.846,0,11.69,0,17.535c0,5.237,0,10.476,0,15.713c0,1.503,0,3.005,0,4.508c0,0.312,0,0.623,0,0.935
				c0-1.021-2.394-0.556-3.099-0.556c-4.514,0-4.514,7,0,7c5.808,0,10.099-1.711,10.099-8.093c0-6.173,0-12.346,0-18.519
				c0-6.89,0-13.778,0-20.668c0-5.019,0.497-10.642-5.971-11.762c-5.69-0.985-11.029,1.315-11.029,7.588c0,5.973,0,11.944,0,17.916
				c0,7.217,0,14.434,0,21.65c0,5.019-0.497,10.643,5.971,11.762C168.558,236.389,170.446,229.644,166.005,228.875z"/>
		</g>
	</g>
	<g>
		<g>
			<path style="fill:#FFFFFF;" d="M262.955,181.255c-3.762,12.947,9.432,17.006,17.844,22.698c1.749,1.184,0.889,1.88,1.735,0.309
				c0.345-0.642,0.475-0.419-0.053-0.203c-1.141,0.469-2.375,0.725-3.576,0.98c-5.759,1.23-11.771,1.337-17.604,2.061
				c-5.488,0.682-11.011,1.572-15.942,4.214c-2.53,1.354-4.288,3.731-6.68,5.282c-2.339,1.518-4.986,1.967-7.723,1.994
				c-6.241,0.063-12.551-2.21-18.594-3.52c-8.646-1.873-17.405-2.604-26.207-1.54c-6.318,0.764-6.393,10.772,0,10
				c8.865-1.072,17.361-0.217,26.033,1.731c6.792,1.525,13.673,3.627,20.707,3.269c6.733-0.342,11.977-3.623,16.754-8.127
				c3.501-3.301,11.429-3.317,15.888-3.786c7.793-0.817,26.488,0.05,26.756-11.529c0.135-5.835-5.82-9.621-10.257-12.064
				c-3.375-1.859-10.864-4.201-9.438-9.11C274.401,177.706,264.751,175.075,262.955,181.255L262.955,181.255z"/>
		</g>
	</g>
	<g>
		<g>
			<path style="fill:#FFFFFF;" d="M154.452,185.273c1.717,1.14,3.434,2.28,5.15,3.421c1.591,1.057,3.867,0.318,4.789-1.256
				c1.006-1.718,0.331-3.735-1.255-4.789c-1.717-1.14-3.434-2.28-5.15-3.42c-1.591-1.057-3.867-0.319-4.789,1.255
				C152.19,182.202,152.866,184.22,154.452,185.273L154.452,185.273z"/>
		</g>
	</g>
	<g>
		<g>
			<path style="fill:#FFFFFF;" d="M174.545,185.017c1.759-2.727,3.519-5.454,5.277-8.181c2.456-3.806-3.607-7.312-6.044-3.533
				c-1.759,2.727-3.519,5.454-5.277,8.181C166.046,185.289,172.108,188.795,174.545,185.017L174.545,185.017z"/>
		</g>
	</g>
	<g>
		<g>
			<path style="fill:#FFFFFF;" d="M145.218,238.25c14.68,0,29.36,0,44.04,0c6.448,0,6.448-10,0-10c-14.68,0-29.36,0-44.04,0
				C138.77,228.25,138.77,238.25,145.218,238.25L145.218,238.25z"/>
		</g>
	</g>
	<g>
		<g>
			<path style="fill:#FFFFFF;" d="M279.15,118.274c0.648,0.166,1.297,0.331,1.944,0.496c1.848,0.471,3.793-0.581,4.306-2.444
				c0.498-1.813-0.597-3.834-2.444-4.306c-0.648-0.166-1.297-0.331-1.944-0.496c-1.848-0.471-3.793,0.581-4.306,2.444
				C276.208,115.781,277.303,117.802,279.15,118.274L279.15,118.274z"/>
		</g>
	</g>
	<g>
		<g>
			<path style="fill:#FFFFFF;" d="M250.648,102.659c0.664-0.08,1.329-0.159,1.993-0.238c0.968-0.116,1.759-0.309,2.475-1.025
				c0.653-0.654,1.025-1.551,1.025-2.475s-0.372-1.821-1.025-2.475c-0.59-0.589-1.607-1.128-2.475-1.025
				c-0.664,0.08-1.329,0.159-1.993,0.238c-0.968,0.116-1.759,0.309-2.475,1.025c-0.653,0.654-1.025,1.551-1.025,2.475
				s0.372,1.821,1.025,2.475C248.764,102.224,249.781,102.763,250.648,102.659L250.648,102.659z"/>
		</g>
	</g>
	<g>
		<g>
			<path style="fill:#FFFFFF;" d="M263.791,103.072c0.664-0.079,1.328-0.159,1.992-0.238c0.967-0.115,1.759-0.309,2.475-1.025
				c0.653-0.654,1.025-1.551,1.025-2.475s-0.372-1.821-1.025-2.475c-0.59-0.589-1.607-1.128-2.475-1.025
				c-0.664,0.079-1.328,0.159-1.992,0.238c-0.967,0.115-1.759,0.309-2.475,1.025c-0.653,0.654-1.025,1.551-1.025,2.475
				s0.372,1.821,1.025,2.475C261.906,102.637,262.924,103.176,263.791,103.072L263.791,103.072z"/>
		</g>
	</g>
	<g>
		<g>
			<path style="fill:#FFFFFF;" d="M79.965,156.777c-0.987,0.617-1.975,1.234-2.962,1.852c-1.614,1.009-2.241,3.105-1.255,4.789
				c0.942,1.608,3.169,2.268,4.789,1.255c0.987-0.617,1.975-1.234,2.962-1.852c1.614-1.009,2.241-3.105,1.255-4.789
				C83.812,156.424,81.584,155.764,79.965,156.777L79.965,156.777z"/>
		</g>
	</g>
	<g>
		<g>
			<path style="fill:#FFFFFF;" d="M83.155,177.603c-1.371,0.972-2.743,1.944-4.114,2.916c-1.553,1.101-2.284,3.034-1.255,4.789
				c0.9,1.537,3.229,2.361,4.789,1.256c1.371-0.973,2.742-1.944,4.114-2.916c1.553-1.102,2.284-3.034,1.255-4.789
				C87.043,177.321,84.714,176.498,83.155,177.603L83.155,177.603z"/>
		</g>
	</g>
	<g>
		<g>
			<path style="fill:#FFFFFF;" d="M71.915,190.279c-0.667,1.325-1.333,2.65-1.999,3.976c-0.857,1.705-0.466,3.78,1.255,4.789
				c1.567,0.918,3.933,0.447,4.789-1.256c0.667-1.325,1.333-2.65,1.999-3.976c0.857-1.705,0.466-3.78-1.255-4.789
				C75.136,188.105,72.771,188.576,71.915,190.279L71.915,190.279z"/>
		</g>
	</g>
</g>
<g id="Ebene_1">
</g>
</svg>
