<?xml version="1.0" encoding="iso-8859-1"?>
<!-- Generator: Adobe Illustrator 16.0.0, SVG Export Plug-In . SVG Version: 6.00 Build 0)  -->
<!DOCTYPE svg PUBLIC "-//W3C//DTD SVG 1.1//EN" "http://www.w3.org/Graphics/SVG/1.1/DTD/svg11.dtd">
<svg version="1.1" xmlns="http://www.w3.org/2000/svg" xmlns:xlink="http://www.w3.org/1999/xlink" x="0px" y="0px" width="361px"
	 height="361px" viewBox="0 0 361 361" style="enable-background:new 0 0 361 361;" xml:space="preserve">
<g id="sani_x5F_cooling_x5F_temp">
	<path style="fill:none;stroke:#FFFFFF;stroke-width:10;stroke-miterlimit:10;" d="M268.648,215.92c0,1.859-1.634,3.368-3.648,3.368
		h-13.379c-2.014,0-3.648-1.509-3.648-3.368v-93.397c0-1.861,1.635-3.369,3.648-3.369H265c2.015,0,3.648,1.508,3.648,3.369V215.92z"
		/>
	<path style="fill:#FFFFFF;stroke:#FFFFFF;stroke-width:10;stroke-miterlimit:10;" d="M274.121,244.019
		c0,2.015-1.28,3.648-2.859,3.648H245.36c-1.579,0-2.86-1.634-2.86-3.648v-21.081c0-2.015,1.281-3.648,2.86-3.648h25.901
		c1.579,0,2.859,1.634,2.859,3.648V244.019z"/>
	<g>
		<g>
			<path style="fill:#FFFFFF;" d="M276.555,131.451c3.648,0,7.297,0,10.945,0c6.448,0,6.448-10,0-10c-3.648,0-7.297,0-10.945,0
				C270.106,121.451,270.106,131.451,276.555,131.451L276.555,131.451z"/>
		</g>
	</g>
	<g>
		<g>
			<path style="fill:#FFFFFF;" d="M276.555,155.775c3.648,0,7.297,0,10.945,0c6.448,0,6.448-10,0-10c-3.648,0-7.297,0-10.945,0
				C270.106,145.775,270.106,155.775,276.555,155.775L276.555,155.775z"/>
		</g>
	</g>
	<g>
		<g>
			<path style="fill:#FFFFFF;" d="M276.555,180.708c3.648,0,7.297,0,10.945,0c6.448,0,6.448-10,0-10c-3.648,0-7.297,0-10.945,0
				C270.106,170.708,270.106,180.708,276.555,180.708L276.555,180.708z"/>
		</g>
	</g>
	<g>
		<g>
			<path style="fill:#FFFFFF;" d="M276.555,206.855c3.648,0,7.297,0,10.945,0c6.448,0,6.448-10,0-10c-3.648,0-7.297,0-10.945,0
				C270.106,196.855,270.106,206.855,276.555,206.855L276.555,206.855z"/>
		</g>
	</g>
	
		<rect x="247.973" y="185.894" style="fill:#FFFFFF;stroke:#FFFFFF;stroke-width:10;stroke-miterlimit:10;" width="20.676" height="42.922"/>
	<g>
		<g>
			<g>
				<g>
					<path style="fill:#FFFFFF;" d="M130.704,75.071c0,15.074,0,30.148,0,45.222c0,6.449,10,6.449,10,0c0-15.074,0-30.148,0-45.222
						C140.704,68.622,130.704,68.622,130.704,75.071L130.704,75.071z"/>
				</g>
			</g>
			<g>
				<g>
					<path style="fill:#FFFFFF;" d="M120.021,83.94c4.395,2.537,8.789,5.075,13.184,7.612c5.595,3.23,10.628-5.413,5.047-8.635
						c-4.395-2.537-8.789-5.075-13.184-7.612C119.473,72.075,114.439,80.718,120.021,83.94L120.021,83.94z"/>
				</g>
			</g>
			<g>
				<g>
					<path style="fill:#FFFFFF;" d="M146.189,75.306c-4.395,2.537-8.789,5.075-13.184,7.612c-5.582,3.223-0.548,11.865,5.047,8.635
						c4.395-2.537,8.789-5.075,13.184-7.612C156.817,80.718,151.784,72.075,146.189,75.306L146.189,75.306z"/>
				</g>
			</g>
		</g>
		<g>
			<g>
				<g>
					<path style="fill:#FFFFFF;" d="M93.86,101.478c13.054,7.537,26.108,15.074,39.163,22.611c5.595,3.23,10.628-5.412,5.047-8.635
						c-13.054-7.537-26.108-15.074-39.163-22.611C93.312,89.613,88.278,98.255,93.86,101.478L93.86,101.478z"/>
				</g>
			</g>
			<g>
				<g>
					<path style="fill:#FFFFFF;" d="M96.27,115.151c4.395-2.538,8.789-5.075,13.183-7.612c5.581-3.223,0.548-11.865-5.047-8.635
						c-4.395,2.538-8.789,5.075-13.183,7.612C85.642,109.739,90.675,118.381,96.27,115.151L96.27,115.151z"/>
				</g>
			</g>
			<g>
				<g>
					<path style="fill:#FFFFFF;" d="M101.831,88.17c0,5.075,0,10.149,0,15.224c0,6.449,10,6.449,10,0c0-5.075,0-10.149,0-15.224
						C111.831,81.722,101.831,81.722,101.831,88.17L101.831,88.17z"/>
				</g>
			</g>
		</g>
		<g>
			<g>
				<g>
					<path style="fill:#FFFFFF;" d="M99.006,146.669c13.055-7.537,26.109-15.074,39.164-22.611
						c5.582-3.222,0.548-11.865-5.047-8.635c-13.055,7.537-26.109,15.074-39.164,22.611C88.378,141.257,93.412,149.9,99.006,146.669
						L99.006,146.669z"/>
				</g>
			</g>
			<g>
				<g>
					<path style="fill:#FFFFFF;" d="M112.005,151.471c0-5.074,0-10.148,0-15.223c0-6.449-10-6.449-10,0c0,5.074,0,10.148,0,15.223
						C102.005,157.92,112.005,157.92,112.005,151.471L112.005,151.471z"/>
				</g>
			</g>
			<g>
				<g>
					<path style="fill:#FFFFFF;" d="M91.397,133.126c4.395,2.538,8.789,5.075,13.184,7.612c5.595,3.23,10.628-5.412,5.047-8.635
						c-4.395-2.538-8.789-5.075-13.184-7.612C90.849,121.261,85.815,129.903,91.397,133.126L91.397,133.126z"/>
				</g>
			</g>
		</g>
		<g>
			<g>
				<g>
					<path style="fill:#FFFFFF;" d="M140.653,165.126c0-15.074,0-30.148,0-45.222c0-6.449-10-6.449-10,0c0,15.074,0,30.148,0,45.222
						C130.653,171.575,140.653,171.575,140.653,165.126L140.653,165.126z"/>
				</g>
			</g>
			<g>
				<g>
					<path style="fill:#FFFFFF;" d="M151.336,156.256c-4.395-2.537-8.789-5.074-13.184-7.611c-5.595-3.23-10.628,5.413-5.047,8.635
						c4.395,2.537,8.789,5.074,13.184,7.611C151.884,168.121,156.917,159.478,151.336,156.256L151.336,156.256z"/>
				</g>
			</g>
			<g>
				<g>
					<path style="fill:#FFFFFF;" d="M125.167,164.891c4.395-2.537,8.789-5.074,13.183-7.611c5.582-3.222,0.548-11.865-5.047-8.635
						c-4.395,2.537-8.789,5.074-13.183,7.611C114.539,159.478,119.572,168.121,125.167,164.891L125.167,164.891z"/>
				</g>
			</g>
		</g>
		<g>
			<g>
				<g>
					<path style="fill:#FFFFFF;" d="M177.497,138.374c-13.055-7.537-26.109-15.074-39.164-22.611
						c-5.595-3.23-10.628,5.413-5.047,8.635c13.055,7.537,26.109,15.074,39.164,22.611
						C178.044,150.239,183.078,141.596,177.497,138.374L177.497,138.374z"/>
				</g>
			</g>
			<g>
				<g>
					<path style="fill:#FFFFFF;" d="M175.087,124.702c-4.395,2.537-8.79,5.075-13.184,7.612c-5.582,3.222-0.548,11.865,5.047,8.635
						c4.395-2.537,8.79-5.075,13.184-7.612C185.715,130.114,180.682,121.471,175.087,124.702L175.087,124.702z"/>
				</g>
			</g>
			<g>
				<g>
					<path style="fill:#FFFFFF;" d="M169.526,151.682c0-5.075,0-10.149,0-15.224c0-6.449-10-6.449-10,0c0,5.075,0,10.149,0,15.224
						C159.526,158.131,169.526,158.131,169.526,151.682L169.526,151.682z"/>
				</g>
			</g>
		</g>
		<g>
			<g>
				<g>
					<path style="fill:#FFFFFF;" d="M172.351,93.183c-13.055,7.537-26.109,15.075-39.164,22.612
						c-5.582,3.223-0.548,11.865,5.047,8.635c13.055-7.537,26.109-15.075,39.164-22.612
						C182.979,98.595,177.945,89.953,172.351,93.183L172.351,93.183z"/>
				</g>
			</g>
			<g>
				<g>
					<path style="fill:#FFFFFF;" d="M159.352,88.38c0,5.075,0,10.149,0,15.224c0,6.449,10,6.449,10,0c0-5.075,0-10.149,0-15.224
						C169.352,81.931,159.352,81.931,159.352,88.38L159.352,88.38z"/>
				</g>
			</g>
			<g>
				<g>
					<path style="fill:#FFFFFF;" d="M179.959,106.726c-4.395-2.537-8.789-5.075-13.184-7.612c-5.595-3.23-10.628,5.412-5.047,8.635
						c4.395,2.537,8.789,5.075,13.184,7.612C180.507,118.591,185.54,109.948,179.959,106.726L179.959,106.726z"/>
				</g>
			</g>
		</g>
	</g>
	<g>
		<g>
			<g>
				<path style="fill:#FFFFFF;" d="M71.672,186.5c5.103-1.521,10.277-2.848,15.505-3.858c7.1-1.372,13.251,0.714,19.897,3.136
					c9.258,3.375,18.697,8.882,28.688,9.268c5.96,0.23,12.572-2.904,18.003-5.008c3.237-1.254,6.416-2.644,9.662-3.878
					c6.432-2.446,12.845-4.821,19.784-3.72c5.62,0.893,11.192,2.437,16.642,4.061c1.858,0.554,2.646-2.342,0.797-2.893
					c-5.103-1.521-10.276-2.849-15.504-3.859c-6.542-1.264-11.919-0.128-18.195,1.966c-10.039,3.35-20.494,9.917-31.188,10.33
					c-6.14,0.237-13.21-3.3-18.796-5.531c-3.748-1.497-7.458-3.058-11.265-4.41c-6.148-2.185-11.703-3.586-18.185-2.557
					c-5.621,0.893-11.192,2.437-16.642,4.061C69.025,184.158,69.813,187.054,71.672,186.5L71.672,186.5z"/>
			</g>
		</g>
		<g>
			<g>
				<path style="fill:#FFFFFF;" d="M78.013,193.686c5.242-1.89,11.354-3.85,16.952-3.007c5.688,0.856,11.29,3.203,16.602,5.324
					c7.693,3.073,15.8,7.21,24.196,7.534c8.107,0.313,16.809-4.544,24.197-7.534c5.369-2.173,10.897-4.242,16.602-5.324
					c5.468-1.037,11.826,1.159,16.953,3.007c1.824,0.658,2.603-2.242,0.797-2.893c-4.979-1.795-10.248-3.147-15.554-3.32
					c-5.685-0.185-11.898,2.679-17.096,4.655c-8.287,3.153-16.927,8.063-25.898,8.409c-5.631,0.218-12.063-2.908-17.206-4.9
					c-2.914-1.128-5.777-2.38-8.691-3.509c-5.231-2.025-10.691-4.054-16.306-4.625c-5.32-0.541-11.404,1.509-16.345,3.29
					C75.41,191.443,76.188,194.344,78.013,193.686L78.013,193.686z"/>
			</g>
		</g>
		<g>
			<g>
				<path style="fill:#FFFFFF;" d="M78.11,176.756c5.242-1.89,11.354-3.85,16.953-3.007c5.688,0.856,11.289,3.203,16.601,5.324
					c7.694,3.073,15.801,7.21,24.196,7.535c8.108,0.313,16.809-4.544,24.197-7.535c5.369-2.173,10.897-4.243,16.602-5.324
					c5.468-1.037,11.826,1.159,16.952,3.007c1.824,0.658,2.603-2.242,0.797-2.893c-4.979-1.795-10.248-3.148-15.553-3.32
					c-5.685-0.185-11.899,2.679-17.096,4.656c-8.287,3.152-16.926,8.063-25.897,8.409c-5.632,0.218-12.064-2.909-17.207-4.9
					c-2.914-1.128-5.776-2.38-8.69-3.509c-5.231-2.026-10.691-4.055-16.305-4.625c-5.32-0.541-11.405,1.508-16.346,3.29
					C75.507,174.515,76.286,177.414,78.11,176.756L78.11,176.756z"/>
			</g>
		</g>
	</g>
</g>
<g id="Ebene_1">
</g>
</svg>
