<?xml version="1.0" encoding="iso-8859-1"?>
<!-- Generator: Adobe Illustrator 16.0.0, SVG Export Plug-In . SVG Version: 6.00 Build 0)  -->
<!DOCTYPE svg PUBLIC "-//W3C//DTD SVG 1.1 Tiny//EN" "http://www.w3.org/Graphics/SVG/1.1/DTD/svg11-tiny.dtd">
<svg version="1.1" baseProfile="tiny" id="sani_x5F_water_x5F_hot"
	 xmlns="http://www.w3.org/2000/svg" xmlns:xlink="http://www.w3.org/1999/xlink" x="0px" y="0px" width="361px" height="361px"
	 viewBox="0 0 361 361" xml:space="preserve">
<g>
	<g>
		<path fill="#FFFFFF" d="M103.106,141.157c1.048,5.987,6.926,6.448,11.827,6.448c6.118,0,12.235,0,18.353,0
			c14.375,0,28.749,0,43.123,0c4.26,0,11.159,0.092,12.123-5.417c1.146-6.548-0.081-14.251-8.413-14.251
			c-11.734,0-23.467,0-35.201,0c-9.668,0-19.337,0-29.005,0c-1.991,0-4.719-0.364-6.654,0.264c-6.168,2-6.277,6.456-6.277,12.026
			c0,4.514,7,4.514,7,0c0-1.988-0.946-5.29,1.847-5.29c1.538,0,3.076,0,4.613,0c6.558,0,13.115,0,19.673,0
			c13.879,0,27.759,0,41.638,0c0.845,0,1.69,0,2.535,0c2.52,0,2.463,5.669-0.461,5.669c-4.467,0-8.935,0-13.401,0
			c-15.2,0-30.399,0-45.599,0c-1.335,0-10.523,1.239-10.969-1.31C109.079,134.855,102.334,136.744,103.106,141.157z"/>
	</g>
	<g>
		<path fill="#FFFFFF" d="M123.68,144.432c0,4.467,0,8.935,0,13.402c0,4.514,7,4.514,7,0c0-4.467,0-8.935,0-13.402
			C130.68,139.917,123.68,139.917,123.68,144.432L123.68,144.432z"/>
	</g>
	<g>
		<path fill="#FFFFFF" d="M113.352,144.954c0,4.487,0,8.974,0,13.461c0,4.514,7,4.514,7,0c0-4.487,0-8.974,0-13.461
			C120.352,140.439,113.352,140.439,113.352,144.954L113.352,144.954z"/>
	</g>
	<g>
		<path fill="#FFFFFF" d="M199.317,191.863c0,7.491,0,14.982,0,22.473c0,3.38,0,6.761,0,10.141c0,1.092,1.225,0.045-0.162,0.045
			c-1.925,0-3.851,0-5.775,0c-4.352,0-8.703,0-13.054,0c-1.866,0-0.64,0.584-0.64,0.153c0-1.442,0-2.883,0-4.325
			c0-7.707,0-15.413,0-23.12c0-2.726-2.274-5-5-5c-9.177,0-18.355,0-27.532,0c-2.726,0-5,2.274-5,5c0,0.815,0,1.63,0,2.445
			c0,0.789,2.14,0.08,0.902,0.08c-1.356,0-2.712,0-4.069,0c-5.564,0-11.129,0-16.693,0c-5.343,0-10.687,0-16.03,0
			c-1.49,0-2.981,0-4.471,0c-1.596,0,0.608-0.062,0.641,0.204c-0.107-0.882,0-1.838,0-2.729c0-2.726-2.274-5-5-5
			c-5.456,0-10.911,0-16.366,0c-0.605,0-4.242,0.391-4.242-0.33c0-2.719,0-5.439,0-8.159c0-2.939,0-5.878,0-8.818
			c0-1.301,2.424-0.663,3.457-0.663c5.73,0,11.46,0,17.191,0c0-3.333,0-6.667,0-10c-0.013,0-0.026,0-0.04,0.001
			c1.667,1.667,3.333,3.333,5,5c0-1.115,0-2.229,0-3.344c0-1.785,0.31-1.344-1.256-1.344c1.266,0,2.532,0,3.798,0
			c5.773,0,11.546,0,17.319,0c5.773,0,11.546,0,17.319,0c1.266,0,2.532,0,3.798,0c-1.567,0-1.257-0.442-1.257,1.344
			c0,1.115,0,2.229,0,3.344c0,2.679,2.274,5.061,5,5c12.955-0.291,25.948-0.001,38.906-0.001c0.804,0,13.207-0.324,13.257,0.05
			c0.771,5.743,0,12.066,0,17.869c0,6.449,10,6.449,10,0c0-3.144,0-6.287,0-9.431c0-3.083,0.898-8.13-0.359-11.11
			c-3.483-8.256-10.587-7.378-18.013-7.378c-14.585,0-29.21-0.327-43.792,0.001c1.667,1.667,3.333,3.333,5,5
			c0-6.888-0.972-14.688-9.67-14.688c-6.73,0-13.459,0-20.189,0c-6.608,0-13.217,0-19.826,0c-8.85,0-10.035,7.483-10.035,14.688
			c0,2.675,2.274,5.067,5,5c0.013,0,0.026,0,0.04-0.001c6.436-0.159,6.458-10,0-10c-6.686,0-13.371,0-20.057,0
			c-11.02,0-10.591,10.576-10.591,18.488c0,7.818-0.948,19.481,10.295,19.481c6.771,0,13.542,0,20.313,0
			c-1.667-1.667-3.333-3.333-5-5c0,7.098,2.79,12.524,10.447,12.524c6.471,0,12.942,0,19.414,0c6.472,0,12.943,0,19.414,0
			c7.657,0,10.446-5.427,10.446-12.524c-1.667,1.667-3.333,3.333-5,5c9.177,0,18.355,0,27.532,0c-1.667-1.667-3.333-3.333-5-5
			c0,8.92,0,17.84,0,26.76c0,13.147,14.754,10.532,23.694,10.532c4.91,0,9.157,0.517,13.227-2.766
			c3.423-2.76,2.711-8.358,2.711-12.245c0-9.216,0-18.433,0-27.649C209.317,185.414,199.317,185.414,199.317,191.863
			L199.317,191.863z"/>
	</g>
</g>
<path fill="none" stroke="#FFFFFF" stroke-width="10" stroke-miterlimit="10" d="M266.13,218.797c0,1.86-1.634,3.369-3.648,3.369
	h-13.378c-2.015,0-3.649-1.508-3.649-3.369V125.4c0-1.861,1.634-3.369,3.649-3.369h13.378c2.015,0,3.648,1.508,3.648,3.369V218.797z
	"/>
<path fill="#FFFFFF" stroke="#FFFFFF" stroke-width="10" stroke-miterlimit="10" d="M271.603,246.896c0,2.015-1.28,3.649-2.86,3.649
	h-25.901c-1.58,0-2.86-1.634-2.86-3.649v-21.081c0-2.015,1.281-3.649,2.86-3.649h25.901c1.58,0,2.86,1.634,2.86,3.649V246.896z"/>
<g>
	<path fill="#FFFFFF" d="M274.036,134.329c3.648,0,7.297,0,10.946,0c6.449,0,6.449-10,0-10c-3.648,0-7.297,0-10.946,0
		C267.587,124.329,267.587,134.329,274.036,134.329L274.036,134.329z"/>
</g>
<g>
	<path fill="#FFFFFF" d="M274.036,158.653c3.648,0,7.297,0,10.946,0c6.449,0,6.449-10,0-10c-3.648,0-7.297,0-10.946,0
		C267.587,148.653,267.587,158.653,274.036,158.653L274.036,158.653z"/>
</g>
<g>
	<path fill="#FFFFFF" d="M274.036,183.585c3.648,0,7.297,0,10.946,0c6.449,0,6.449-10,0-10c-3.648,0-7.297,0-10.946,0
		C267.587,173.585,267.587,183.585,274.036,183.585L274.036,183.585z"/>
</g>
<g>
	<path fill="#FFFFFF" d="M274.036,209.734c3.648,0,7.297,0,10.946,0c6.449,0,6.449-10,0-10c-3.648,0-7.297,0-10.946,0
		C267.587,199.734,267.587,209.734,274.036,209.734L274.036,209.734z"/>
</g>
<rect x="245.454" y="147.295" fill="#FFFFFF" stroke="#FFFFFF" stroke-width="10" stroke-miterlimit="10" width="20.676" height="84.398"/>
</svg>
