<?xml version="1.0" encoding="iso-8859-1"?>
<!-- Generator: Adobe Illustrator 16.0.0, SVG Export Plug-In . SVG Version: 6.00 Build 0)  -->
<!DOCTYPE svg PUBLIC "-//W3C//DTD SVG 1.1 Tiny//EN" "http://www.w3.org/Graphics/SVG/1.1/DTD/svg11-tiny.dtd">
<svg version="1.1" baseProfile="tiny" id="sani_x5F_heating_x5F_manual"
	 xmlns="http://www.w3.org/2000/svg" xmlns:xlink="http://www.w3.org/1999/xlink" x="0px" y="0px" width="361px" height="361px"
	 viewBox="0 0 361 361" xml:space="preserve">
<g>
	<g>
		<path fill="#FFFFFF" d="M163.82,206.863c0.677,0.195,0.358-4.747,0.358-5.708c0-5.183,0-10.365,0-15.547
			c0-15.464,0-30.929,0-46.394c0-14.742,0-29.484,0-44.227c0-4.28,0-8.56,0-12.839c0-0.857,0-1.715,0-2.572
			c0-0.748-1.917,0.096-0.76,0.096c1.964,0,3.929,0,5.893,0c2.566,0,0.583-1.057,0.583,0.464c0,1.277,0,2.555,0,3.832
			c0,4.858,0,9.715,0,14.573c0,15.221,0,30.441,0,45.662c0,15.041,0,30.081,0,45.121c0,4.632,0,9.264,0,13.896
			c0,1.074,0,2.148,0,3.223c0,0.202,0,0.404,0,0.605c0-0.207,1.961-0.311,0.761-0.311c-1.047,0-2.094,0-3.141,0
			c-1.542,0-3.083,0-4.625,0c-4.514,0-4.514,7,0,7c5.472,0,14.005,1.378,14.005-6.689c0-2.276,0-4.552,0-6.828
			c0-12.766,0-25.531,0-38.297c0-26.795,0-53.59,0-80.385c0-3.786-0.812-8.866-5.711-8.866c-5.472,0-14.005-1.378-14.005,6.69
			c0,7.666,0,15.332,0,22.998c0,30.135,0,60.269,0,90.404c0,5.548-2.346,18.8,4.781,20.849
			C166.307,214.863,168.15,208.108,163.82,206.863z"/>
	</g>
	<g>
		<path fill="#FFFFFF" d="M88.412,207.18c0.677,0.195,0.358-4.748,0.358-5.708c0-5.182,0-10.365,0-15.547
			c0-15.464,0-30.929,0-46.393c0-14.743,0-29.485,0-44.227c0-4.28,0-8.56,0-12.839c0-0.857,0-1.715,0-2.572
			c0-0.748-1.917,0.096-0.76,0.096c1.964,0,3.929,0,5.893,0c2.565,0,0.584-1.057,0.584,0.464c0,1.277,0,2.555,0,3.832
			c0,4.857,0,9.715,0,14.572c0,15.221,0,30.441,0,45.662c0,15.04,0,30.081,0,45.121c0,4.632,0,9.264,0,13.896
			c0,1.074,0,2.149,0,3.223c0,0.202,0,0.404,0,0.605c0-0.207,1.96-0.31,0.76-0.31c-1.047,0-2.094,0-3.141,0
			c-1.542,0-3.083,0-4.625,0c-4.514,0-4.514,7,0,7c5.472,0,14.005,1.378,14.005-6.69c0-2.276,0-4.552,0-6.828
			c0-12.765,0-25.531,0-38.296c0-26.795,0-53.59,0-80.385c0-3.787-0.812-8.866-5.711-8.866c-5.472,0-14.005-1.378-14.005,6.69
			c0,7.666,0,15.332,0,22.998c0,30.135,0,60.269,0,90.404c0,5.547-2.346,18.8,4.781,20.849
			C90.898,215.18,92.742,208.424,88.412,207.18z"/>
	</g>
	<g>
		<path fill="#FFFFFF" d="M126.433,207.18c0.677,0.195,0.358-4.748,0.358-5.708c0-5.182,0-10.365,0-15.547
			c0-15.464,0-30.929,0-46.393c0-14.743,0-29.485,0-44.227c0-4.28,0-8.56,0-12.839c0-0.857,0-1.715,0-2.572
			c0-0.748-1.917,0.096-0.76,0.096c1.964,0,3.929,0,5.893,0c2.565,0,0.584-1.057,0.584,0.464c0,1.277,0,2.555,0,3.832
			c0,4.857,0,9.715,0,14.572c0,15.221,0,30.441,0,45.662c0,15.04,0,30.081,0,45.121c0,4.632,0,9.264,0,13.896
			c0,1.074,0,2.149,0,3.223c0,0.202,0,0.404,0,0.605c0-0.207,1.96-0.31,0.76-0.31c-1.047,0-2.094,0-3.141,0
			c-1.541,0-3.083,0-4.624,0c-4.514,0-4.514,7,0,7c5.472,0,14.005,1.378,14.005-6.69c0-2.276,0-4.552,0-6.828
			c0-12.765,0-25.531,0-38.296c0-26.795,0-53.59,0-80.385c0-3.787-0.812-8.866-5.711-8.866c-5.472,0-14.005-1.378-14.005,6.69
			c0,7.666,0,15.332,0,22.998c0,30.135,0,60.269,0,90.404c0,5.547-2.346,18.8,4.781,20.849
			C128.919,215.18,130.763,208.425,126.433,207.18z"/>
	</g>
	<g>
		<path fill="#FFFFFF" d="M84.308,195.828c0,1.221-0.125,2.212-0.281,2.212H72.613c-0.155,0-0.281-0.991-0.281-2.212v-8.293
			c0-1.221,0.126-2.211,0.281-2.211h11.414c0.156,0,0.281,0.991,0.281,2.211V195.828z"/>
		<g>
			<path fill="#FFFFFF" d="M80.808,195.828c-0.152,0.984-0.087,1.133,0.197,0.445c1.007-0.578,2.015-1.156,3.022-1.733
				c-3.805,0-7.609,0-11.414,0c1.007,0.578,2.015,1.156,3.022,1.733c0.55,0.874,0.197-0.824,0.197-1.308c0-1.012,0-2.024,0-3.036
				c0-1.064,0-2.128,0-3.192c0-0.351,0-0.702,0-1.053c0-0.553,0.361-1.482-0.197-0.596c-1.007,0.578-2.015,1.156-3.022,1.733
				c3.805,0,7.609,0,11.414,0c-1.007-0.578-2.015-1.156-3.022-1.733c-0.605-0.959-0.197,0.561-0.197,1.014c0,0.945,0,1.89,0,2.835
				C80.808,192.568,80.808,194.198,80.808,195.828c0,4.514,7,4.514,7,0c0-3.957,1.703-14.005-4.218-14.005c-2.865,0-5.73,0-8.596,0
				c-0.794,0-1.587,0-2.381,0c-3.222,0-3.718,3.242-3.781,5.711c-0.061,2.36,0,4.729,0,7.09c0,3.109,0.156,6.916,4.218,6.916
				c2.865,0,5.73,0,8.596,0c0.794,0,1.587,0,2.381,0c3.222,0,3.718-3.243,3.781-5.712C87.924,191.312,80.923,191.323,80.808,195.828
				z"/>
		</g>
	</g>
	<g>
		<path fill="#FFFFFF" d="M122.706,195.618c0,1.221-0.255,2.211-0.568,2.211H99.093c-0.314,0-0.568-0.991-0.568-2.211v-8.293
			c0-1.221,0.254-2.211,0.568-2.211h23.045c0.313,0,0.568,0.99,0.568,2.211V195.618z"/>
		<g>
			<path fill="#FFFFFF" d="M119.206,195.618c-0.03,0.148-0.06,0.296-0.09,0.445c1.007-0.578,2.015-1.156,3.022-1.733
				c-7.682,0-15.363,0-23.045,0c1.007,0.578,2.015,1.156,3.022,1.733c-0.714-1.151-0.714-8.032,0-9.183
				c-1.007,0.578-2.015,1.156-3.022,1.733c7.682,0,15.363,0,23.045,0c-1.007-0.578-2.015-1.156-3.022-1.733
				C120.213,188.65,119.206,193.531,119.206,195.618c0,4.514,7,4.514,7,0c0-3.073,1.058-8.875-0.645-11.624
				c-1.947-3.144-5.324-2.381-8.563-2.381c-4.768,0-9.537,0-14.305,0c-4.505,0-7.104,0.411-7.669,5.711
				c-0.297,2.79-0.909,9.119,0.645,11.624c1.95,3.143,5.323,2.381,8.563,2.381c4.768,0,9.537,0,14.305,0
				c4.505,0,7.104-0.411,7.668-5.711C126.684,191.131,119.679,191.177,119.206,195.618z"/>
		</g>
	</g>
	<g>
		<path fill="#FFFFFF" d="M160.621,195.723c0,1.221-0.254,2.211-0.568,2.211h-23.045c-0.314,0-0.568-0.99-0.568-2.211v-8.294
			c0-1.221,0.254-2.211,0.568-2.211h23.045c0.313,0,0.568,0.991,0.568,2.211V195.723z"/>
		<g>
			<path fill="#FFFFFF" d="M157.121,195.723c-0.03,0.148-0.06,0.296-0.09,0.444c1.007-0.578,2.015-1.156,3.022-1.733
				c-7.682,0-15.363,0-23.045,0c1.007,0.578,2.015,1.156,3.022,1.733c-0.714-1.151-0.714-8.032,0-9.183
				c-1.007,0.578-2.015,1.156-3.022,1.733c7.682,0,15.363,0,23.045,0c-1.007-0.578-2.015-1.156-3.022-1.733
				C158.128,188.755,157.121,193.637,157.121,195.723c0,4.514,7,4.514,7,0c0-3.072,1.059-8.876-0.644-11.624
				c-1.948-3.144-5.324-2.381-8.563-2.381c-4.768,0-9.537,0-14.305,0c-4.505,0-7.104,0.411-7.669,5.711
				c-0.297,2.789-0.909,9.12,0.645,11.624c1.95,3.143,5.323,2.381,8.563,2.381c4.768,0,9.537,0,14.305,0
				c4.504,0,7.104-0.411,7.668-5.711C164.598,191.237,157.593,191.283,157.121,195.723z"/>
		</g>
	</g>
	<g>
		<path fill="#FFFFFF" d="M173.216,187.007c0-1.221,0.117-2.211,0.261-2.211h10.608c0.144,0,0.261,0.99,0.261,2.211v8.294
			c0,1.221-0.117,2.211-0.261,2.211h-10.608c-0.145,0-0.261-0.991-0.261-2.211V187.007z"/>
		<g>
			<path fill="#FFFFFF" d="M176.716,187.007c0.16-0.982,0.087-1.13-0.217-0.444c-1.007,0.578-2.015,1.156-3.022,1.733
				c3.536,0,7.072,0,10.608,0c-1.007-0.578-2.015-1.156-3.022-1.733c-0.553-0.946-0.217,0.852-0.217,1.307c0,1.012,0,2.023,0,3.036
				c0,1.064,0,2.128,0,3.191c0,0.521-0.268,2.479,0.217,1.649c1.007-0.578,2.015-1.156,3.022-1.733c-3.536,0-7.072,0-10.608,0
				c1.007,0.578,2.015,1.156,3.022,1.733c0.596,1.019,0.217-0.58,0.217-1.014c0-0.945,0-1.89,0-2.835
				C176.716,190.267,176.716,188.637,176.716,187.007c0-4.514-7-4.514-7,0c0,3.763-1.672,14.005,4.023,14.005
				c2.628,0,5.257,0,7.886,0c0.82,0,1.64,0,2.46,0c3.229,0,3.702-3.243,3.761-5.711c0.057-2.36,0-4.729,0-7.09
				c0-2.951-0.059-6.915-4.023-6.915c-2.628,0-5.257,0-7.886,0c-0.82,0-1.64,0-2.46,0c-3.229,0-3.703,3.242-3.761,5.711
				C169.609,191.523,176.609,191.513,176.716,187.007z"/>
		</g>
	</g>
	<g>
		<path fill="#FFFFFF" d="M84.308,99.931c0,1.221-0.125,2.211-0.281,2.211H72.613c-0.155,0-0.281-0.99-0.281-2.211v-8.293
			c0-1.221,0.126-2.211,0.281-2.211h11.414c0.156,0,0.281,0.991,0.281,2.211V99.931z"/>
		<g>
			<path fill="#FFFFFF" d="M80.808,99.931c-0.152,0.984-0.087,1.133,0.197,0.445c1.007-0.578,2.015-1.156,3.022-1.733
				c-3.805,0-7.609,0-11.414,0c1.007,0.578,2.015,1.156,3.022,1.733c0.551,0.874,0.197-0.823,0.197-1.307c0-1.012,0-2.024,0-3.036
				c0-1.064,0-2.128,0-3.192c0-0.351,0-0.702,0-1.053c0-0.553,0.361-1.482-0.197-0.596c-1.007,0.578-2.015,1.156-3.022,1.733
				c3.805,0,7.609,0,11.414,0c-1.007-0.578-2.015-1.156-3.022-1.733c-0.605-0.959-0.197,0.561-0.197,1.014c0,0.945,0,1.89,0,2.835
				C80.808,96.671,80.808,98.301,80.808,99.931c0,4.514,7,4.514,7,0c0-3.957,1.703-14.005-4.218-14.005c-2.865,0-5.73,0-8.596,0
				c-0.794,0-1.587,0-2.381,0c-3.222,0-3.718,3.242-3.781,5.711c-0.061,2.36,0,4.729,0,7.09c0,3.108,0.156,6.915,4.218,6.915
				c2.865,0,5.73,0,8.596,0c0.794,0,1.587,0,2.381,0c3.222,0,3.718-3.242,3.781-5.711C87.924,95.414,80.923,95.425,80.808,99.931z"
				/>
		</g>
	</g>
	<g>
		<path fill="#FFFFFF" d="M122.706,99.72c0,1.221-0.255,2.211-0.568,2.211H99.093c-0.314,0-0.568-0.991-0.568-2.211v-8.294
			c0-1.221,0.254-2.211,0.568-2.211h23.045c0.313,0,0.568,0.99,0.568,2.211V99.72z"/>
		<g>
			<path fill="#FFFFFF" d="M119.206,99.72c-0.03,0.148-0.06,0.296-0.09,0.445c1.007-0.578,2.015-1.156,3.022-1.733
				c-7.682,0-15.363,0-23.045,0c1.007,0.578,2.015,1.156,3.022,1.733c-0.714-1.151-0.714-8.032,0-9.183
				c-1.007,0.578-2.015,1.156-3.022,1.733c7.682,0,15.363,0,23.045,0c-1.007-0.578-2.015-1.156-3.022-1.733
				C120.213,92.753,119.206,97.634,119.206,99.72c0,4.514,7,4.514,7,0c0-3.073,1.058-8.875-0.645-11.624
				c-1.948-3.144-5.324-2.381-8.563-2.381c-4.768,0-9.537,0-14.305,0c-4.504,0-7.104,0.411-7.669,5.711
				c-0.297,2.79-0.909,9.12,0.645,11.624c1.95,3.143,5.323,2.381,8.563,2.381c4.768,0,9.537,0,14.305,0
				c4.505,0,7.104-0.411,7.668-5.711C126.684,95.234,119.679,95.28,119.206,99.72z"/>
		</g>
	</g>
	<g>
		<path fill="#FFFFFF" d="M160.621,99.825c0,1.221-0.254,2.211-0.568,2.211h-23.045c-0.314,0-0.568-0.99-0.568-2.211v-8.293
			c0-1.221,0.254-2.211,0.568-2.211h23.045c0.313,0,0.568,0.991,0.568,2.211V99.825z"/>
		<g>
			<path fill="#FFFFFF" d="M157.121,99.825c-0.03,0.148-0.06,0.296-0.09,0.445c1.007-0.578,2.015-1.156,3.022-1.733
				c-7.682,0-15.363,0-23.045,0c1.007,0.578,2.015,1.156,3.022,1.733c-0.714-1.151-0.714-8.032,0-9.183
				c-1.007,0.578-2.015,1.156-3.022,1.733c7.682,0,15.363,0,23.045,0c-1.007-0.578-2.015-1.156-3.022-1.733
				C158.128,92.857,157.121,97.739,157.121,99.825c0,4.514,7,4.514,7,0c0-3.072,1.058-8.876-0.644-11.624
				c-1.948-3.144-5.324-2.381-8.563-2.381c-4.768,0-9.537,0-14.305,0c-4.505,0-7.104,0.411-7.669,5.711
				c-0.297,2.79-0.909,9.12,0.645,11.624c1.95,3.143,5.323,2.381,8.563,2.381c4.768,0,9.537,0,14.305,0
				c4.505,0,7.104-0.411,7.668-5.711C164.598,95.338,157.593,95.385,157.121,99.825z"/>
		</g>
	</g>
	<g>
		<path fill="#FFFFFF" d="M202.898,99.746c-0.152,0.984-0.087,1.132,0.197,0.445c1.007-0.578,2.015-1.156,3.022-1.733
			c-3.805,0-7.609,0-11.414,0c1.007,0.578,2.015,1.156,3.022,1.733c0.551,0.873,0.197-0.822,0.197-1.308c0-1.012,0-2.023,0-3.036
			c0-1.064,0-2.128,0-3.191c0-0.351,0-0.702,0-1.053c0-0.554,0.362-1.481-0.197-0.596c-1.007,0.578-2.015,1.156-3.022,1.733
			c3.805,0,7.609,0,11.414,0c-1.007-0.578-2.015-1.156-3.022-1.733c-0.604-0.96-0.197,0.562-0.197,1.014c0,0.945,0,1.89,0,2.835
			C202.898,96.486,202.898,98.116,202.898,99.746c0,4.514,7,4.514,7,0c0-3.957,1.703-14.005-4.218-14.005c-2.865,0-5.73,0-8.596,0
			c-0.794,0-1.587,0-2.381,0c-3.222,0-3.718,3.242-3.781,5.711c-0.061,2.36,0,4.729,0,7.09c0,3.109,0.155,6.916,4.218,6.916
			c2.865,0,5.73,0,8.596,0c0.794,0,1.587,0,2.381,0c3.222,0,3.718-3.242,3.781-5.711C210.014,95.229,203.014,95.241,202.898,99.746z
			"/>
	</g>
	<g>
		<path fill="#FFFFFF" d="M173.373,91.474c0-1.221,0.117-2.211,0.261-2.211h10.608c0.145,0,0.262,0.99,0.262,2.211v8.293
			c0,1.221-0.117,2.211-0.262,2.211h-10.608c-0.144,0-0.261-0.99-0.261-2.211V91.474z"/>
		<g>
			<path fill="#FFFFFF" d="M176.873,91.474c0.16-0.982,0.087-1.131-0.217-0.445c-1.007,0.578-2.015,1.156-3.022,1.733
				c3.536,0,7.072,0,10.608,0c-1.007-0.578-2.015-1.156-3.022-1.733c-0.553-0.943-0.216,0.851-0.216,1.307c0,1.012,0,2.024,0,3.036
				c0,1.064,0,2.128,0,3.192c0,0.522-0.269,2.476,0.216,1.648c1.007-0.578,2.015-1.156,3.022-1.733c-3.536,0-7.072,0-10.608,0
				c1.007,0.578,2.015,1.156,3.022,1.733c0.596,1.02,0.217-0.58,0.217-1.014c0-0.945,0-1.89,0-2.835
				C176.873,94.734,176.873,93.104,176.873,91.474c0-4.514-7-4.514-7,0c0,3.763-1.672,14.005,4.023,14.005c2.628,0,5.257,0,7.886,0
				c0.82,0,1.64,0,2.46,0c3.229,0,3.703-3.243,3.762-5.711c0.057-2.36,0-4.729,0-7.09c0-2.951-0.059-6.915-4.024-6.915
				c-2.628,0-5.257,0-7.886,0c-0.82,0-1.64,0-2.46,0c-3.229,0-3.702,3.243-3.761,5.711C169.765,95.991,176.766,95.98,176.873,91.474
				z"/>
		</g>
	</g>
</g>
<g>
	<g>
		<path fill="#FFFFFF" d="M238.69,231.659c0-9.864,0-19.728,0-29.591c0-6.236,0-12.471,0-18.707c0-1.508,0-3.016,0-4.524
			c0-2.682,3.218-1.89,5.108-1.89c1.226,0,4.682-0.57,4.682,1.468c0,1.485,0,2.971,0,4.456c0,6.17,0,12.339,0,18.509
			c0,10.093,0,20.186,0,30.278c0,4.514,7,4.514,7,0c0-11.709,0-23.418,0-35.128c0-5.788,0-11.575,0-17.362
			c0-6.465-4.814-9.221-10.729-9.221c-6.253,0-13.061,1.09-13.061,9.102c0,5.413,0,10.825,0,16.237c0,12.125,0,24.249,0,36.373
			C231.69,236.173,238.69,236.173,238.69,231.659L238.69,231.659z"/>
	</g>
	<g>
		<path fill="#FFFFFF" d="M223.007,261.664c0-11.049,0-22.097,0-33.146c0-7.303,0-14.605,0-21.908c0-4.86-0.456-10.208,0.397-14.969
			c0.453-2.528,5.455-1.294,7.73-1.294c2.686,0,0.557-0.051,0.557-1.077c0,0.527,0,1.055,0,1.582c0,6.102,0,12.204,0,18.305
			c0,11.967,0,23.935,0,35.902c0,4.514,7,4.514,7,0c0-11.967,0-23.935,0-35.902c0-6.102,0-12.203,0-18.305
			c0-6.743-4.604-7.505-10.361-7.505c-2.877,0-6.537-0.546-8.881,1.509c-3.925,3.44-3.435,9.771-3.442,14.491
			c-0.005,3.626,0,7.253,0,10.879c0,14.943,0,29.886,0,44.829c0,2.203,0,4.406,0,6.609
			C216.007,266.178,223.007,266.178,223.007,261.664L223.007,261.664z"/>
	</g>
	<g>
		<path fill="#FFFFFF" d="M255.48,241.553c0-9.999,0-19.998,0-29.997c0-6.463,0-12.926,0-19.389c0-1.836,0-3.673,0-5.51
			c0-0.336,0-0.672,0-1.008c0,0.154-2.009,1.192-0.737,1.192c0.746,0,1.491,0,2.237,0c5.394,0,6.63,0.58,6.63,5.399
			c0,5.855,0,11.71,0,17.565c0,10.583,0,21.166,0,31.748c0,4.514,7,4.514,7,0c0-11.865,0-23.729,0-35.595
			c0-10.324,3.104-26.117-11.797-26.117c-5.754,0-10.333,0.781-10.333,7.505c0,6.102,0,12.204,0,18.305c0,11.967,0,23.935,0,35.902
			C248.48,246.067,255.48,246.067,255.48,241.553L255.48,241.553z"/>
	</g>
	<g>
		<path fill="#FFFFFF" d="M270.61,247.918c0-12.389,0-24.778,0-37.167c0-2.504,0-5.008,0-7.512c0-0.522,0-1.044,0-1.567
			c0,0.328-2.027,1.174-0.602,1.174c1.11,0,2.221,0,3.332,0c3.462,0,2.632,5.412,2.632,8.106c0,26.102,0,52.204,0,78.306
			c0,0.503,0,1.007,0,1.511c0,4.514,7,4.514,7,0c0-24.825,0-49.65,0-74.476c0-2.881,0-5.763,0-8.645
			c0-3.091-0.473-6.735-2.594-9.143c-2.604-2.957-6.055-2.659-9.649-2.659c-6.614,0-7.119,4.728-7.119,9.917
			c0,7.316,0,14.632,0,21.949c0,6.735,0,13.47,0,20.206C263.61,252.433,270.61,252.433,270.61,247.918L270.61,247.918z"/>
	</g>
	<g>
		<path fill="#FFFFFF" d="M210.544,290.947c-4.117-17.482-8.233-34.964-12.35-52.447c-0.767-3.258-1.66-4.886,2.256-6.144
			c1.46-0.469,5.135-2.105,5.777-0.109c0.499,1.553,0.998,3.106,1.497,4.66c2.779,8.649,5.559,17.299,8.338,25.949
			c1.375,4.279,8.135,2.449,6.75-1.861c-3.11-9.678-6.22-19.357-9.33-29.036c-1.87-5.82-5.817-8.195-12.049-7.222
			c-5.893,0.919-12.506,4.934-10.889,11.804c4.417,18.756,8.833,37.512,13.25,56.268
			C204.829,297.201,211.578,295.338,210.544,290.947L210.544,290.947z"/>
	</g>
</g>
</svg>
