<?xml version="1.0" encoding="iso-8859-1"?>
<!-- Generator: Adobe Illustrator 16.0.0, SVG Export Plug-In . SVG Version: 6.00 Build 0)  -->
<!DOCTYPE svg PUBLIC "-//W3C//DTD SVG 1.1//EN" "http://www.w3.org/Graphics/SVG/1.1/DTD/svg11.dtd">
<svg version="1.1" xmlns="http://www.w3.org/2000/svg" xmlns:xlink="http://www.w3.org/1999/xlink" x="0px" y="0px" width="361px"
	 height="361px" viewBox="0 0 361 361" style="enable-background:new 0 0 361 361;" xml:space="preserve">
<g id="sani_x5F_irrigation">
	<g>
		<path style="fill:#FFFFFF;stroke:#FFFFFF;stroke-miterlimit:10;" d="M289.82,166.615c2.646,3.343,2.081,8.199-1.262,10.845
			l-32.286,25.558c-3.343,2.646-8.2,2.082-10.845-1.261l-47.322-59.78c-2.647-3.344-2.082-8.2,1.261-10.846l32.286-25.558
			c3.344-2.646,8.199-2.082,10.846,1.262L289.82,166.615z"/>
		<g>
			<g>
				<path style="fill:#FFFFFF;" d="M162.793,189.231c27.088,1.939,54.177,3.878,81.265,5.817c6.438,0.461,6.394-9.542,0-10
					c-27.088-1.939-54.177-3.878-81.265-5.817C156.355,178.771,156.4,188.773,162.793,189.231L162.793,189.231z"/>
			</g>
		</g>
		<g>
			<polygon style="fill:#FFFFFF;" points="145.615,168 159.633,184.029 145.152,199.639 			"/>
			<g>
				<path style="fill:#FFFFFF;" d="M142.08,171.535c4.673,5.343,9.345,10.687,14.018,16.029c0-2.356,0-4.714,0-7.071
					c-4.827,5.204-9.653,10.407-14.48,15.61c2.845,1.178,5.69,2.356,8.536,3.535c0.154-10.547,0.309-21.093,0.463-31.639
					c0.094-6.452-9.906-6.443-10,0c-0.154,10.546-0.309,21.092-0.463,31.639c-0.063,4.268,5.555,6.748,8.536,3.535
					c4.827-5.203,9.653-10.406,14.48-15.609c1.947-2.099,1.845-4.961,0-7.071c-4.673-5.343-9.345-10.687-14.018-16.03
					C144.898,159.601,137.854,166.703,142.08,171.535z"/>
			</g>
		</g>
		
			<ellipse transform="matrix(0.8558 -0.5172 0.5172 0.8558 -29.5093 154.2245)" style="fill:none;stroke:#FFFFFF;stroke-width:10;stroke-miterlimit:10;" cx="261.924" cy="130.052" rx="17.713" ry="21.222"/>
		<polygon style="fill:#FFFFFF;stroke:#FFFFFF;stroke-miterlimit:10;" points="207.401,186.51 221.662,161.199 236.753,186.373 		
			"/>
	</g>
	<g>
		<g>
			<path style="fill:#FFFFFF;" d="M132.422,176.711c-3.654,0.209-7.308,0.418-10.962,0.627c-4.487,0.257-4.512,7.258,0,7
				c3.654-0.209,7.308-0.418,10.962-0.627C136.909,183.454,136.934,176.453,132.422,176.711L132.422,176.711z"/>
		</g>
	</g>
	<g>
		<g>
			<path style="fill:#FFFFFF;" d="M95.066,181.209c-3.924,1.819-7.847,3.639-11.771,5.458c-4.092,1.897-0.534,7.931,3.533,6.045
				c3.923-1.819,7.847-3.639,11.771-5.458C102.691,185.356,99.133,179.324,95.066,181.209L95.066,181.209z"/>
		</g>
	</g>
	<g>
		<g>
			<path style="fill:#FFFFFF;" d="M77.856,195.063c-1.999,2.297-3.997,4.594-5.996,6.891c-1.251,1.438-1.418,3.531,0,4.949
				c1.279,1.278,3.697,1.44,4.95,0c1.999-2.297,3.997-4.594,5.996-6.891c1.251-1.438,1.418-3.531,0-4.949
				C81.527,193.784,79.109,193.622,77.856,195.063L77.856,195.063z"/>
		</g>
	</g>
	<g>
		<g>
			<path style="fill:#FFFFFF;" d="M132.35,166.699c-6.256,0-12.511,0-18.767,0c-4.514,0-4.514,7,0,7c6.256,0,12.511,0,18.767,0
				C136.864,173.699,136.864,166.699,132.35,166.699L132.35,166.699z"/>
		</g>
	</g>
	<g>
		<g>
			<path style="fill:#FFFFFF;" d="M99.066,169.395c-4.167,1.833-8.333,3.667-12.5,5.5c-4.124,1.814-0.558,7.844,3.533,6.044
				c4.167-1.833,8.333-3.667,12.5-5.5C106.723,173.625,103.157,167.595,99.066,169.395L99.066,169.395z"/>
		</g>
	</g>
	<g>
		<g>
			<path style="fill:#FFFFFF;" d="M77.858,179.379c-2.25,1.921-4.5,3.842-6.75,5.764c-1.452,1.239-1.269,3.681,0,4.949
				c1.428,1.428,3.5,1.238,4.95,0c2.25-1.921,4.5-3.842,6.75-5.764c1.452-1.239,1.269-3.681,0-4.95
				C81.38,177.952,79.308,178.142,77.858,179.379L77.858,179.379z"/>
		</g>
	</g>
	<g>
		<g>
			<path style="fill:#FFFFFF;" d="M132.419,187.444c-5.089,1.41-10.178,2.819-15.267,4.229c-4.344,1.203-2.497,7.957,1.861,6.75
				c5.089-1.41,10.178-2.819,15.267-4.229C138.625,192.991,136.778,186.237,132.419,187.444L132.419,187.444z"/>
		</g>
	</g>
	<g>
		<g>
			<path style="fill:#FFFFFF;" d="M106.713,198.763c-2.639,1.684-5.278,3.367-7.918,5.051c-3.792,2.42-0.285,8.48,3.533,6.045
				c2.639-1.684,5.278-3.367,7.918-5.051C114.039,202.388,110.531,196.327,106.713,198.763L106.713,198.763z"/>
		</g>
	</g>
	<g>
		<g>
			<path style="fill:#FFFFFF;" d="M87.858,212.192c-1.833,2.166-3.667,4.333-5.5,6.5c-1.231,1.455-1.432,3.518,0,4.949
				c1.265,1.265,3.716,1.458,4.95,0c1.833-2.166,3.667-4.333,5.5-6.5c1.231-1.455,1.432-3.518,0-4.949
				C91.543,210.928,89.092,210.734,87.858,212.192L87.858,212.192z"/>
		</g>
	</g>
	<g>
		<g>
			<path style="fill:#FFFFFF;" d="M72.561,227.15c-0.583,1.25-1.167,2.5-1.75,3.75c-0.807,1.729-0.502,3.76,1.255,4.789
				c1.53,0.896,3.982,0.473,4.789-1.256c0.583-1.25,1.167-2.5,1.75-3.75c0.807-1.729,0.502-3.76-1.255-4.789
				C75.819,224.998,73.368,225.422,72.561,227.15L72.561,227.15z"/>
		</g>
	</g>
	<g>
		<g>
			<path style="fill:#FFFFFF;" d="M132.625,199.014c-6.122,2.588-12.244,5.175-18.366,7.762c-4.146,1.752-0.573,7.78,3.533,6.045
				c6.122-2.588,12.244-5.175,18.366-7.762C140.303,203.307,136.731,197.278,132.625,199.014L132.625,199.014z"/>
		</g>
	</g>
	<g>
		<g>
			<path style="fill:#FFFFFF;" d="M105.629,211.192c-2.528,2.333-5.056,4.666-7.583,7c-3.323,3.067,1.639,8.006,4.95,4.949
				c2.528-2.333,5.056-4.666,7.583-7C113.902,213.074,108.94,208.136,105.629,211.192L105.629,211.192z"/>
		</g>
	</g>
	<g>
		<g>
			<path style="fill:#FFFFFF;" d="M90.561,226.15c-1.667,2.333-3.333,4.667-5,7c-1.111,1.556-0.277,3.891,1.255,4.789
				c1.76,1.03,3.682,0.293,4.789-1.256c1.667-2.333,3.333-4.667,5-7c1.111-1.556,0.277-3.891-1.255-4.789
				C93.59,223.864,91.667,224.602,90.561,226.15L90.561,226.15z"/>
		</g>
	</g>
	<g>
		<g>
			<path style="fill:#FFFFFF;" d="M79.022,241.067c-0.558,1.306-1.115,2.61-1.672,3.916c-0.388,0.909-0.627,1.701-0.353,2.697
				c0.241,0.875,0.826,1.633,1.608,2.092c1.489,0.872,4.039,0.5,4.789-1.256c0.558-1.306,1.115-2.61,1.672-3.916
				c0.388-0.909,0.627-1.701,0.353-2.697c-0.241-0.875-0.826-1.633-1.608-2.092C82.321,238.939,79.771,239.312,79.022,241.067
				L79.022,241.067z"/>
		</g>
	</g>
	<g>
		<g>
			<path style="fill:#FFFFFF;" d="M106.202,187.068c-2.907,1.161-5.815,2.321-8.723,3.482c-1.77,0.707-2.993,2.311-2.444,4.306
				c0.463,1.685,2.531,3.152,4.306,2.444c2.907-1.161,5.815-2.321,8.723-3.482c1.77-0.707,2.993-2.311,2.444-4.306
				C110.044,187.828,107.977,186.36,106.202,187.068L106.202,187.068z"/>
		</g>
	</g>
	<g>
		<g>
			<path style="fill:#FFFFFF;" d="M88.202,200.59c-2.206,1.785-4.412,3.571-6.618,5.357c-1.485,1.202-1.242,3.707,0,4.949
				c1.454,1.454,3.469,1.199,4.95,0c2.206-1.785,4.412-3.571,6.618-5.357c1.485-1.202,1.242-3.707,0-4.949
				C91.698,199.136,89.683,199.391,88.202,200.59L88.202,200.59z"/>
		</g>
	</g>
	<g>
		<g>
			<path style="fill:#FFFFFF;" d="M73.432,214.288c-0.807,1.119-1.613,2.238-2.42,3.357c-1.118,1.551-0.272,3.894,1.255,4.789
				c1.765,1.033,3.676,0.288,4.789-1.256c0.807-1.119,1.613-2.238,2.42-3.357c1.118-1.551,0.272-3.894-1.255-4.789
				C76.455,211.999,74.544,212.744,73.432,214.288L73.432,214.288z"/>
		</g>
	</g>
	<g>
		<g>
			<path style="fill:#FFFFFF;" d="M112.081,175.964c-2.604,0.551-5.209,1.102-7.814,1.653c-1.867,0.395-2.927,2.551-2.444,4.306
				c0.528,1.921,2.44,2.839,4.306,2.444c2.604-0.551,5.209-1.102,7.814-1.653c1.867-0.395,2.927-2.551,2.444-4.305
				C115.858,176.488,113.946,175.57,112.081,175.964L112.081,175.964z"/>
		</g>
	</g>
</g>
<g id="Ebene_1">
</g>
</svg>
