<?xml version="1.0" encoding="iso-8859-1"?>
<!-- Generator: Adobe Illustrator 16.0.0, SVG Export Plug-In . SVG Version: 6.00 Build 0)  -->
<!DOCTYPE svg PUBLIC "-//W3C//DTD SVG 1.1//EN" "http://www.w3.org/Graphics/SVG/1.1/DTD/svg11.dtd">
<svg version="1.1" xmlns="http://www.w3.org/2000/svg" xmlns:xlink="http://www.w3.org/1999/xlink" x="0px" y="0px" width="361px"
	 height="361px" viewBox="0 0 361 361" style="enable-background:new 0 0 361 361;" xml:space="preserve">
<g id="sani_x5F_well_x5F_pump">
	<path style="fill:#FFFFFF;" d="M182.444,87.792c0-2.219-1.64-4.017-3.663-4.017h-17.096c-2.023,0-3.664,1.798-3.664,4.017v8.704
		c0,2.218,1.64,4.017,3.664,4.017h17.096c2.023,0,3.663-1.799,3.663-4.017V87.792z"/>
	<path style="fill:#FFFFFF;" d="M185.291,81.407c0-2.42-1.203-4.383-2.686-4.383h-24.902c-1.482,0-2.684,1.963-2.684,4.383v1.218
		c0,2.421,1.202,4.384,2.684,4.384h24.902c1.482,0,2.686-1.963,2.686-4.384V81.407z"/>
	<path style="fill:#FFFFFF;" d="M207.156,96.615c7.406,0,13.414,6.018,13.414,13.44v56.671c0,7.422-6.008,13.44-13.414,13.44
		h-51.251c-7.408,0-13.414-6.018-13.414-13.44v-56.671c0-7.422,6.005-13.44,13.414-13.44H207.156z"/>
	<path style="fill:#FFFFFF;" d="M220.115,168.466c2.589,0,4.688,1.612,4.688,3.601v6.464c0,1.989-2.099,3.601-4.688,3.601h-78.012
		c-2.589,0-4.688-1.612-4.688-3.601v-6.464c0-1.988,2.099-3.601,4.688-3.601H220.115z"/>
	<g>
		<g>
			<g>
				<path style="fill:#FFFFFF;" d="M204.701,178.235c6.529,0.352,7.349,5.755,7.349,10.86c0,5.477,0,10.953,0,16.43
					c0,15.866,0,31.731,0,47.598c0,5.754,0,11.509,0,17.264c0,4.432,0.333,9.291-4.775,11.295c-3.99,1.565-10.094,0.451-14.22,0.451
					c-7.964,0-15.927,0-23.891,0c-4.507,0-9.814,0.761-14.22-0.451c-5.193-1.428-4.775-7.143-4.775-11.295
					c0-13.733,0-27.468,0-41.201c0-13.363,0-26.727,0-40.09c0-5.105,0.82-10.509,7.349-10.86c4.449-0.24,8.977,0,13.43,0
					C182.199,178.235,193.45,178.235,204.701,178.235c6.448,0,6.448-10,0-10c-12.414,0-24.828,0-37.242,0
					c-4.967,0-10.334-0.522-15.173,0.808c-7.73,2.125-12.117,9.854-12.117,17.457c0,26.504,0,53.008,0,79.512
					c0,2.919,0,5.838,0,8.757c0,9.622,8.067,17.364,17.594,17.364c13.126,0,26.251,0,39.377,0c5.727,0,11.029,0.372,16.316-2.369
					c6.204-3.215,8.593-10.151,8.593-16.685c0-12.308,0-24.614,0-36.921c0-13.934,0-27.868,0-41.803c0-2.88,0-5.76,0-8.64
					c0-9.858-7.838-16.968-17.349-17.48C198.254,167.888,198.288,177.89,204.701,178.235z"/>
			</g>
		</g>
	</g>
	<path style="fill:#FFFFFF;" d="M206.508,113.42c2.137,0,3.869-1.483,3.869-3.312V94.653c0-1.829-1.732-3.313-3.869-3.313h-8.387
		c-2.137,0-3.869,1.483-3.869,3.313v15.455c0,1.829,1.732,3.312,3.869,3.312H206.508z"/>
	<path style="fill:none;stroke:#FFFFFF;stroke-width:7;stroke-linecap:round;stroke-miterlimit:10;" d="M202.333,91.667
		c0-14.886,39.852-37.383,58.163,9.5c14.326,36.678,6.145,145.5,28.337,145.5"/>
</g>
<g id="Ebene_1">
</g>
</svg>
