<?xml version="1.0" encoding="iso-8859-1"?>
<!-- Generator: Adobe Illustrator 16.0.0, SVG Export Plug-In . SVG Version: 6.00 Build 0)  -->
<!DOCTYPE svg PUBLIC "-//W3C//DTD SVG 1.1 Tiny//EN" "http://www.w3.org/Graphics/SVG/1.1/DTD/svg11-tiny.dtd">
<svg version="1.1" baseProfile="tiny" id="sani_x5F_return_x5F_temp"
	 xmlns="http://www.w3.org/2000/svg" xmlns:xlink="http://www.w3.org/1999/xlink" x="0px" y="0px" width="361px" height="361px"
	 viewBox="0 0 361 361" xml:space="preserve">
<path fill="none" stroke="#FFFFFF" stroke-width="10" stroke-miterlimit="10" d="M266.13,218.797c0,1.86-1.634,3.369-3.648,3.369
	h-13.378c-2.015,0-3.649-1.508-3.649-3.369V125.4c0-1.861,1.634-3.369,3.649-3.369h13.378c2.015,0,3.648,1.508,3.648,3.369V218.797z
	"/>
<path fill="#FFFFFF" stroke="#FFFFFF" stroke-width="10" stroke-miterlimit="10" d="M271.603,246.896c0,2.015-1.28,3.649-2.86,3.649
	h-25.901c-1.58,0-2.86-1.634-2.86-3.649v-21.081c0-2.015,1.281-3.649,2.86-3.649h25.901c1.58,0,2.86,1.634,2.86,3.649V246.896z"/>
<g>
	<path fill="#FFFFFF" d="M274.036,134.329c3.648,0,7.297,0,10.946,0c6.449,0,6.449-10,0-10c-3.648,0-7.297,0-10.946,0
		C267.587,124.329,267.587,134.329,274.036,134.329L274.036,134.329z"/>
</g>
<g>
	<path fill="#FFFFFF" d="M274.036,158.653c3.648,0,7.297,0,10.946,0c6.449,0,6.449-10,0-10c-3.648,0-7.297,0-10.946,0
		C267.587,148.653,267.587,158.653,274.036,158.653L274.036,158.653z"/>
</g>
<g>
	<path fill="#FFFFFF" d="M274.036,183.585c3.648,0,7.297,0,10.946,0c6.449,0,6.449-10,0-10c-3.648,0-7.297,0-10.946,0
		C267.587,173.585,267.587,183.585,274.036,183.585L274.036,183.585z"/>
</g>
<g>
	<path fill="#FFFFFF" d="M274.036,209.734c3.648,0,7.297,0,10.946,0c6.449,0,6.449-10,0-10c-3.648,0-7.297,0-10.946,0
		C267.587,199.734,267.587,209.734,274.036,209.734L274.036,209.734z"/>
</g>
<rect x="245.454" y="201.295" fill="#FFFFFF" stroke="#FFFFFF" stroke-width="10" stroke-miterlimit="10" width="20.676" height="30.398"/>
<g>
	<path fill="#FFFFFF" d="M73.657,116.94c6.866-1.167,13.732-2.335,20.599-3.502c6.348-1.079,3.647-10.715-2.658-9.643
		c-6.866,1.167-13.732,2.335-20.599,3.502C64.651,108.377,67.351,118.013,73.657,116.94L73.657,116.94z"/>
</g>
<g>
	<path fill="#FFFFFF" d="M94.255,124.264c-6.872-1.169-13.745-2.338-20.617-3.506c-6.306-1.073-9.006,8.563-2.658,9.643
		c6.872,1.169,13.745,2.338,20.617,3.506C97.903,134.979,100.603,125.343,94.255,124.264L94.255,124.264z"/>
</g>
<g>
	<path fill="#FFFFFF" d="M94.255,138.226c-6.861-1.167-13.722-2.333-20.583-3.5c-6.306-1.072-9.006,8.563-2.658,9.643
		c6.861,1.167,13.722,2.333,20.583,3.5C97.903,148.94,100.603,139.305,94.255,138.226L94.255,138.226z"/>
</g>
<g>
	<path fill="#FFFFFF" d="M94.255,152.188c-6.868-1.168-13.736-2.336-20.604-3.504c-6.306-1.072-9.006,8.563-2.658,9.643
		c6.868,1.168,13.736,2.336,20.604,3.504C97.903,162.903,100.603,153.268,94.255,152.188L94.255,152.188z"/>
</g>
<g>
	<path fill="#FFFFFF" d="M94.255,166.15c-6.821-1.16-13.642-2.32-20.463-3.479c-6.306-1.072-9.006,8.563-2.658,9.643
		c6.821,1.16,13.642,2.32,20.463,3.479C97.903,176.865,100.603,167.229,94.255,166.15L94.255,166.15z"/>
</g>
<g>
	<path fill="#FFFFFF" d="M93.966,176.209c18.881,0,37.763,0,56.645,0c6.449,0,6.449-10,0-10c-18.881,0-37.763,0-56.645,0
		C87.518,166.209,87.518,176.209,93.966,176.209L93.966,176.209z"/>
</g>
<g>
	<path fill="#FFFFFF" d="M93.966,113.669c13.732,0,27.463,0,41.195,0c6.449,0,6.449-10,0-10c-13.732,0-27.463,0-41.195,0
		C87.518,103.669,87.518,113.669,93.966,113.669L93.966,113.669z"/>
</g>
<g>
	<path fill="#FFFFFF" d="M177.982,176.209c6.278,0,12.555,0,18.833,0c6.449,0,6.449-10,0-10c-6.278,0-12.555,0-18.833,0
		C171.533,166.209,171.533,176.209,177.982,176.209L177.982,176.209z"/>
</g>
<g>
	<path fill="#FFFFFF" d="M177.23,188.27c-8.758-6.694-17.516-13.388-26.274-20.082c0,2.015,0,4.029,0,6.044
		c8.758-6.694,17.516-13.388,26.274-20.082c-1.755-1.007-3.511-2.015-5.267-3.022c0,13.388,0,26.776,0,40.164c0,4.514,7,4.514,7,0
		c0-13.388,0-26.776,0-40.164c0-2.405-3.078-4.695-5.267-3.022c-8.758,6.694-17.516,13.388-26.274,20.082
		c-2.224,1.7-2.224,4.344,0,6.044c8.758,6.694,17.516,13.388,26.274,20.082C177.285,197.056,180.765,190.971,177.23,188.27z"/>
</g>
<path fill="none" stroke="#FFFFFF" stroke-width="10" stroke-miterlimit="10" d="M67.434,77.519h16.758
	c15.116,0,27.372,2.366,27.372,5.285v201.484c0,2.918-12.255,5.284-27.372,5.284H67.434"/>
</svg>
