<?xml version="1.0" encoding="iso-8859-1"?>
<!-- Generator: Adobe Illustrator 16.0.0, SVG Export Plug-In . SVG Version: 6.00 Build 0)  -->
<!DOCTYPE svg PUBLIC "-//W3C//DTD SVG 1.1 Tiny//EN" "http://www.w3.org/Graphics/SVG/1.1/DTD/svg11-tiny.dtd">
<svg version="1.1" baseProfile="tiny" id="sani_x5F_heating_x5F_temp"
	 xmlns="http://www.w3.org/2000/svg" xmlns:xlink="http://www.w3.org/1999/xlink" x="0px" y="0px" width="361px" height="361px"
	 viewBox="0 0 361 361" xml:space="preserve">
<g>
	<path fill="#FFFFFF" d="M163.82,246.863c0.677,0.195,0.358-4.747,0.358-5.708c0-5.183,0-10.365,0-15.547
		c0-15.464,0-30.929,0-46.394c0-14.742,0-29.484,0-44.227c0-4.28,0-8.56,0-12.839c0-0.857,0-1.715,0-2.572
		c0-0.748-1.917,0.096-0.76,0.096c1.964,0,3.929,0,5.893,0c2.566,0,0.583-1.057,0.583,0.464c0,1.277,0,2.555,0,3.832
		c0,4.858,0,9.715,0,14.573c0,15.221,0,30.441,0,45.662c0,15.041,0,30.081,0,45.121c0,4.632,0,9.264,0,13.896
		c0,1.074,0,2.148,0,3.223c0,0.202,0,0.404,0,0.605c0-0.207,1.961-0.311,0.761-0.311c-1.047,0-2.094,0-3.141,0
		c-1.542,0-3.083,0-4.625,0c-4.514,0-4.514,7,0,7c5.472,0,14.005,1.378,14.005-6.689c0-2.276,0-4.552,0-6.828
		c0-12.766,0-25.531,0-38.297c0-26.795,0-53.59,0-80.385c0-3.786-0.812-8.866-5.711-8.866c-5.472,0-14.005-1.378-14.005,6.69
		c0,7.666,0,15.332,0,22.998c0,30.135,0,60.269,0,90.404c0,5.548-2.346,18.8,4.781,20.849
		C166.307,254.863,168.15,248.108,163.82,246.863z"/>
</g>
<g>
	<path fill="#FFFFFF" d="M88.412,247.18c0.677,0.195,0.358-4.748,0.358-5.708c0-5.182,0-10.365,0-15.547c0-15.464,0-30.929,0-46.393
		c0-14.743,0-29.485,0-44.227c0-4.28,0-8.56,0-12.839c0-0.857,0-1.715,0-2.572c0-0.748-1.917,0.096-0.76,0.096
		c1.964,0,3.929,0,5.893,0c2.565,0,0.584-1.057,0.584,0.464c0,1.277,0,2.555,0,3.832c0,4.857,0,9.715,0,14.572
		c0,15.221,0,30.441,0,45.662c0,15.04,0,30.081,0,45.121c0,4.632,0,9.264,0,13.896c0,1.074,0,2.149,0,3.223c0,0.202,0,0.404,0,0.605
		c0-0.207,1.96-0.31,0.76-0.31c-1.047,0-2.094,0-3.141,0c-1.542,0-3.083,0-4.625,0c-4.514,0-4.514,7,0,7
		c5.472,0,14.005,1.378,14.005-6.69c0-2.276,0-4.552,0-6.828c0-12.765,0-25.531,0-38.296c0-26.795,0-53.59,0-80.385
		c0-3.787-0.812-8.866-5.711-8.866c-5.472,0-14.005-1.378-14.005,6.69c0,7.666,0,15.332,0,22.998c0,30.135,0,60.269,0,90.404
		c0,5.547-2.346,18.8,4.781,20.849C90.898,255.18,92.742,248.424,88.412,247.18z"/>
</g>
<g>
	<path fill="#FFFFFF" d="M126.433,247.18c0.677,0.195,0.358-4.748,0.358-5.708c0-5.182,0-10.365,0-15.547
		c0-15.464,0-30.929,0-46.393c0-14.743,0-29.485,0-44.227c0-4.28,0-8.56,0-12.839c0-0.857,0-1.715,0-2.572
		c0-0.748-1.917,0.096-0.76,0.096c1.964,0,3.929,0,5.893,0c2.565,0,0.584-1.057,0.584,0.464c0,1.277,0,2.555,0,3.832
		c0,4.857,0,9.715,0,14.572c0,15.221,0,30.441,0,45.662c0,15.04,0,30.081,0,45.121c0,4.632,0,9.264,0,13.896
		c0,1.074,0,2.149,0,3.223c0,0.202,0,0.404,0,0.605c0-0.207,1.96-0.31,0.76-0.31c-1.047,0-2.094,0-3.141,0c-1.541,0-3.083,0-4.624,0
		c-4.514,0-4.514,7,0,7c5.472,0,14.005,1.378,14.005-6.69c0-2.276,0-4.552,0-6.828c0-12.765,0-25.531,0-38.296
		c0-26.795,0-53.59,0-80.385c0-3.787-0.812-8.866-5.711-8.866c-5.472,0-14.005-1.378-14.005,6.69c0,7.666,0,15.332,0,22.998
		c0,30.135,0,60.269,0,90.404c0,5.547-2.346,18.8,4.781,20.849C128.919,255.18,130.763,248.425,126.433,247.18z"/>
</g>
<g>
	<path fill="#FFFFFF" d="M84.308,235.828c0,1.221-0.125,2.212-0.281,2.212H72.613c-0.155,0-0.281-0.991-0.281-2.212v-8.293
		c0-1.221,0.126-2.211,0.281-2.211h11.414c0.156,0,0.281,0.991,0.281,2.211V235.828z"/>
	<g>
		<path fill="#FFFFFF" d="M80.808,235.828c-0.152,0.984-0.087,1.133,0.197,0.445c1.007-0.578,2.015-1.156,3.022-1.733
			c-3.805,0-7.609,0-11.414,0c1.007,0.578,2.015,1.156,3.022,1.733c0.55,0.874,0.197-0.824,0.197-1.308c0-1.012,0-2.024,0-3.036
			c0-1.064,0-2.128,0-3.192c0-0.351,0-0.702,0-1.053c0-0.553,0.361-1.482-0.197-0.596c-1.007,0.578-2.015,1.156-3.022,1.733
			c3.805,0,7.609,0,11.414,0c-1.007-0.578-2.015-1.156-3.022-1.733c-0.605-0.959-0.197,0.561-0.197,1.014c0,0.945,0,1.89,0,2.835
			C80.808,232.568,80.808,234.198,80.808,235.828c0,4.514,7,4.514,7,0c0-3.957,1.703-14.005-4.218-14.005c-2.865,0-5.73,0-8.596,0
			c-0.794,0-1.587,0-2.381,0c-3.222,0-3.718,3.242-3.781,5.711c-0.061,2.36,0,4.729,0,7.09c0,3.109,0.156,6.916,4.218,6.916
			c2.865,0,5.73,0,8.596,0c0.794,0,1.587,0,2.381,0c3.222,0,3.718-3.243,3.781-5.712C87.924,231.312,80.923,231.323,80.808,235.828z
			"/>
	</g>
</g>
<g>
	<path fill="#FFFFFF" d="M122.706,235.618c0,1.221-0.255,2.211-0.568,2.211H99.093c-0.314,0-0.568-0.991-0.568-2.211v-8.293
		c0-1.221,0.254-2.211,0.568-2.211h23.045c0.313,0,0.568,0.99,0.568,2.211V235.618z"/>
	<g>
		<path fill="#FFFFFF" d="M119.206,235.618c-0.03,0.148-0.06,0.296-0.09,0.445c1.007-0.578,2.015-1.156,3.022-1.733
			c-7.682,0-15.363,0-23.045,0c1.007,0.578,2.015,1.156,3.022,1.733c-0.714-1.151-0.714-8.032,0-9.183
			c-1.007,0.578-2.015,1.156-3.022,1.733c7.682,0,15.363,0,23.045,0c-1.007-0.578-2.015-1.156-3.022-1.733
			C120.213,228.65,119.206,233.531,119.206,235.618c0,4.514,7,4.514,7,0c0-3.073,1.058-8.875-0.645-11.624
			c-1.947-3.144-5.324-2.381-8.563-2.381c-4.768,0-9.537,0-14.305,0c-4.505,0-7.104,0.411-7.669,5.711
			c-0.297,2.79-0.909,9.119,0.645,11.624c1.95,3.143,5.323,2.381,8.563,2.381c4.768,0,9.537,0,14.305,0
			c4.505,0,7.104-0.411,7.668-5.711C126.684,231.131,119.679,231.177,119.206,235.618z"/>
	</g>
</g>
<g>
	<path fill="#FFFFFF" d="M160.621,235.723c0,1.221-0.254,2.211-0.568,2.211h-23.045c-0.314,0-0.568-0.99-0.568-2.211v-8.294
		c0-1.221,0.254-2.211,0.568-2.211h23.045c0.313,0,0.568,0.991,0.568,2.211V235.723z"/>
	<g>
		<path fill="#FFFFFF" d="M157.121,235.723c-0.03,0.148-0.06,0.296-0.09,0.444c1.007-0.578,2.015-1.156,3.022-1.733
			c-7.682,0-15.363,0-23.045,0c1.007,0.578,2.015,1.156,3.022,1.733c-0.714-1.151-0.714-8.032,0-9.183
			c-1.007,0.578-2.015,1.156-3.022,1.733c7.682,0,15.363,0,23.045,0c-1.007-0.578-2.015-1.156-3.022-1.733
			C158.128,228.755,157.121,233.637,157.121,235.723c0,4.514,7,4.514,7,0c0-3.072,1.059-8.876-0.644-11.624
			c-1.948-3.144-5.324-2.381-8.563-2.381c-4.768,0-9.537,0-14.305,0c-4.505,0-7.104,0.411-7.669,5.711
			c-0.297,2.789-0.909,9.12,0.645,11.624c1.95,3.143,5.323,2.381,8.563,2.381c4.768,0,9.537,0,14.305,0
			c4.504,0,7.104-0.411,7.668-5.711C164.598,231.237,157.593,231.283,157.121,235.723z"/>
	</g>
</g>
<g>
	<path fill="#FFFFFF" d="M173.216,227.007c0-1.221,0.117-2.211,0.261-2.211h10.608c0.144,0,0.261,0.99,0.261,2.211v8.294
		c0,1.221-0.117,2.211-0.261,2.211h-10.608c-0.145,0-0.261-0.991-0.261-2.211V227.007z"/>
	<g>
		<path fill="#FFFFFF" d="M176.716,227.007c0.16-0.982,0.087-1.13-0.217-0.444c-1.007,0.578-2.015,1.156-3.022,1.733
			c3.536,0,7.072,0,10.608,0c-1.007-0.578-2.015-1.156-3.022-1.733c-0.553-0.946-0.217,0.852-0.217,1.307c0,1.012,0,2.023,0,3.036
			c0,1.064,0,2.128,0,3.191c0,0.521-0.268,2.479,0.217,1.649c1.007-0.578,2.015-1.156,3.022-1.733c-3.536,0-7.072,0-10.608,0
			c1.007,0.578,2.015,1.156,3.022,1.733c0.596,1.019,0.217-0.58,0.217-1.014c0-0.945,0-1.89,0-2.835
			C176.716,230.267,176.716,228.637,176.716,227.007c0-4.514-7-4.514-7,0c0,3.763-1.672,14.005,4.023,14.005
			c2.628,0,5.257,0,7.886,0c0.82,0,1.64,0,2.46,0c3.229,0,3.702-3.243,3.761-5.711c0.057-2.36,0-4.729,0-7.09
			c0-2.951-0.059-6.915-4.023-6.915c-2.628,0-5.257,0-7.886,0c-0.82,0-1.64,0-2.46,0c-3.229,0-3.703,3.242-3.761,5.711
			C169.609,231.523,176.609,231.513,176.716,227.007z"/>
	</g>
</g>
<g>
	<path fill="#FFFFFF" d="M84.308,139.931c0,1.221-0.125,2.211-0.281,2.211H72.613c-0.155,0-0.281-0.99-0.281-2.211v-8.293
		c0-1.221,0.126-2.211,0.281-2.211h11.414c0.156,0,0.281,0.991,0.281,2.211V139.931z"/>
	<g>
		<path fill="#FFFFFF" d="M80.808,139.931c-0.152,0.984-0.087,1.133,0.197,0.445c1.007-0.578,2.015-1.156,3.022-1.733
			c-3.805,0-7.609,0-11.414,0c1.007,0.578,2.015,1.156,3.022,1.733c0.551,0.874,0.197-0.823,0.197-1.307c0-1.012,0-2.024,0-3.036
			c0-1.064,0-2.128,0-3.192c0-0.351,0-0.702,0-1.053c0-0.553,0.361-1.482-0.197-0.596c-1.007,0.578-2.015,1.156-3.022,1.733
			c3.805,0,7.609,0,11.414,0c-1.007-0.578-2.015-1.156-3.022-1.733c-0.605-0.959-0.197,0.561-0.197,1.014c0,0.945,0,1.89,0,2.835
			C80.808,136.671,80.808,138.301,80.808,139.931c0,4.514,7,4.514,7,0c0-3.957,1.703-14.005-4.218-14.005c-2.865,0-5.73,0-8.596,0
			c-0.794,0-1.587,0-2.381,0c-3.222,0-3.718,3.242-3.781,5.711c-0.061,2.36,0,4.729,0,7.09c0,3.108,0.156,6.915,4.218,6.915
			c2.865,0,5.73,0,8.596,0c0.794,0,1.587,0,2.381,0c3.222,0,3.718-3.242,3.781-5.711C87.924,135.414,80.923,135.425,80.808,139.931z
			"/>
	</g>
</g>
<g>
	<path fill="#FFFFFF" d="M122.706,139.72c0,1.221-0.255,2.211-0.568,2.211H99.093c-0.314,0-0.568-0.991-0.568-2.211v-8.294
		c0-1.221,0.254-2.211,0.568-2.211h23.045c0.313,0,0.568,0.99,0.568,2.211V139.72z"/>
	<g>
		<path fill="#FFFFFF" d="M119.206,139.72c-0.03,0.148-0.06,0.296-0.09,0.445c1.007-0.578,2.015-1.156,3.022-1.733
			c-7.682,0-15.363,0-23.045,0c1.007,0.578,2.015,1.156,3.022,1.733c-0.714-1.151-0.714-8.032,0-9.183
			c-1.007,0.578-2.015,1.156-3.022,1.733c7.682,0,15.363,0,23.045,0c-1.007-0.578-2.015-1.156-3.022-1.733
			C120.213,132.753,119.206,137.634,119.206,139.72c0,4.514,7,4.514,7,0c0-3.073,1.058-8.875-0.645-11.624
			c-1.948-3.144-5.324-2.381-8.563-2.381c-4.768,0-9.537,0-14.305,0c-4.504,0-7.104,0.411-7.669,5.711
			c-0.297,2.79-0.909,9.12,0.645,11.624c1.95,3.143,5.323,2.381,8.563,2.381c4.768,0,9.537,0,14.305,0
			c4.505,0,7.104-0.411,7.668-5.711C126.684,135.234,119.679,135.28,119.206,139.72z"/>
	</g>
</g>
<g>
	<path fill="#FFFFFF" d="M160.621,139.825c0,1.221-0.254,2.211-0.568,2.211h-23.045c-0.314,0-0.568-0.99-0.568-2.211v-8.293
		c0-1.221,0.254-2.211,0.568-2.211h23.045c0.313,0,0.568,0.991,0.568,2.211V139.825z"/>
	<g>
		<path fill="#FFFFFF" d="M157.121,139.825c-0.03,0.148-0.06,0.296-0.09,0.445c1.007-0.578,2.015-1.156,3.022-1.733
			c-7.682,0-15.363,0-23.045,0c1.007,0.578,2.015,1.156,3.022,1.733c-0.714-1.151-0.714-8.032,0-9.183
			c-1.007,0.578-2.015,1.156-3.022,1.733c7.682,0,15.363,0,23.045,0c-1.007-0.578-2.015-1.156-3.022-1.733
			C158.128,132.857,157.121,137.739,157.121,139.825c0,4.514,7,4.514,7,0c0-3.072,1.058-8.876-0.644-11.624
			c-1.948-3.144-5.324-2.381-8.563-2.381c-4.768,0-9.537,0-14.305,0c-4.505,0-7.104,0.411-7.669,5.711
			c-0.297,2.79-0.909,9.12,0.645,11.624c1.95,3.143,5.323,2.381,8.563,2.381c4.768,0,9.537,0,14.305,0
			c4.505,0,7.104-0.411,7.668-5.711C164.598,135.338,157.593,135.385,157.121,139.825z"/>
	</g>
</g>
<g>
	<path fill="#FFFFFF" d="M202.898,139.746c-0.152,0.984-0.087,1.132,0.197,0.445c1.007-0.578,2.015-1.156,3.022-1.733
		c-3.805,0-7.609,0-11.414,0c1.007,0.578,2.015,1.156,3.022,1.733c0.551,0.873,0.197-0.822,0.197-1.308c0-1.012,0-2.023,0-3.036
		c0-1.064,0-2.128,0-3.191c0-0.351,0-0.702,0-1.053c0-0.554,0.362-1.481-0.197-0.596c-1.007,0.578-2.015,1.156-3.022,1.733
		c3.805,0,7.609,0,11.414,0c-1.007-0.578-2.015-1.156-3.022-1.733c-0.604-0.96-0.197,0.562-0.197,1.014c0,0.945,0,1.89,0,2.835
		C202.898,136.486,202.898,138.116,202.898,139.746c0,4.514,7,4.514,7,0c0-3.957,1.703-14.005-4.218-14.005c-2.865,0-5.73,0-8.596,0
		c-0.794,0-1.587,0-2.381,0c-3.222,0-3.718,3.242-3.781,5.711c-0.061,2.36,0,4.729,0,7.09c0,3.109,0.155,6.916,4.218,6.916
		c2.865,0,5.73,0,8.596,0c0.794,0,1.587,0,2.381,0c3.222,0,3.718-3.242,3.781-5.711
		C210.014,135.229,203.014,135.241,202.898,139.746z"/>
</g>
<g>
	<path fill="#FFFFFF" d="M173.373,131.474c0-1.221,0.117-2.211,0.261-2.211h10.608c0.145,0,0.262,0.99,0.262,2.211v8.293
		c0,1.221-0.117,2.211-0.262,2.211h-10.608c-0.144,0-0.261-0.99-0.261-2.211V131.474z"/>
	<g>
		<path fill="#FFFFFF" d="M176.873,131.474c0.16-0.982,0.087-1.131-0.217-0.445c-1.007,0.578-2.015,1.156-3.022,1.733
			c3.536,0,7.072,0,10.608,0c-1.007-0.578-2.015-1.156-3.022-1.733c-0.553-0.943-0.216,0.851-0.216,1.307c0,1.012,0,2.024,0,3.036
			c0,1.064,0,2.128,0,3.192c0,0.522-0.269,2.476,0.216,1.648c1.007-0.578,2.015-1.156,3.022-1.733c-3.536,0-7.072,0-10.608,0
			c1.007,0.578,2.015,1.156,3.022,1.733c0.596,1.02,0.217-0.58,0.217-1.014c0-0.945,0-1.89,0-2.835
			C176.873,134.734,176.873,133.104,176.873,131.474c0-4.514-7-4.514-7,0c0,3.763-1.672,14.005,4.023,14.005
			c2.628,0,5.257,0,7.886,0c0.82,0,1.64,0,2.46,0c3.229,0,3.703-3.243,3.762-5.711c0.057-2.36,0-4.729,0-7.09
			c0-2.951-0.059-6.915-4.024-6.915c-2.628,0-5.257,0-7.886,0c-0.82,0-1.64,0-2.46,0c-3.229,0-3.702,3.243-3.761,5.711
			C169.765,135.991,176.766,135.98,176.873,131.474z"/>
	</g>
</g>
<path fill="none" stroke="#FFFFFF" stroke-width="10" stroke-miterlimit="10" d="M266.13,218.797c0,1.86-1.634,3.369-3.648,3.369
	h-13.378c-2.015,0-3.649-1.508-3.649-3.369V125.4c0-1.861,1.634-3.369,3.649-3.369h13.378c2.015,0,3.648,1.508,3.648,3.369V218.797z
	"/>
<path fill="#FFFFFF" stroke="#FFFFFF" stroke-width="10" stroke-miterlimit="10" d="M271.603,246.896c0,2.015-1.28,3.648-2.86,3.648
	h-25.901c-1.58,0-2.86-1.634-2.86-3.648v-21.081c0-2.015,1.281-3.649,2.86-3.649h25.901c1.58,0,2.86,1.634,2.86,3.649V246.896z"/>
<g>
	<path fill="#FFFFFF" d="M274.036,134.329c3.648,0,7.297,0,10.946,0c6.449,0,6.449-10,0-10c-3.648,0-7.297,0-10.946,0
		C267.587,124.329,267.587,134.329,274.036,134.329L274.036,134.329z"/>
</g>
<g>
	<path fill="#FFFFFF" d="M274.036,158.653c3.648,0,7.297,0,10.946,0c6.449,0,6.449-10,0-10c-3.648,0-7.297,0-10.946,0
		C267.587,148.653,267.587,158.653,274.036,158.653L274.036,158.653z"/>
</g>
<g>
	<path fill="#FFFFFF" d="M274.036,183.585c3.648,0,7.297,0,10.946,0c6.449,0,6.449-10,0-10c-3.648,0-7.297,0-10.946,0
		C267.587,173.585,267.587,183.585,274.036,183.585L274.036,183.585z"/>
</g>
<g>
	<path fill="#FFFFFF" d="M274.036,209.734c3.648,0,7.297,0,10.946,0c6.449,0,6.449-10,0-10c-3.648,0-7.297,0-10.946,0
		C267.587,199.734,267.587,209.734,274.036,209.734L274.036,209.734z"/>
</g>
<rect x="245.454" y="188.771" fill="#FFFFFF" stroke="#FFFFFF" stroke-width="10" stroke-miterlimit="10" width="20.676" height="42.922"/>
</svg>
