<?xml version="1.0" encoding="iso-8859-1"?>
<!-- Generator: Adobe Illustrator 16.0.0, SVG Export Plug-In . SVG Version: 6.00 Build 0)  -->
<!DOCTYPE svg PUBLIC "-//W3C//DTD SVG 1.1//EN" "http://www.w3.org/Graphics/SVG/1.1/DTD/svg11.dtd">
<svg version="1.1" xmlns="http://www.w3.org/2000/svg" xmlns:xlink="http://www.w3.org/1999/xlink" x="0px" y="0px" width="361px"
	 height="361px" viewBox="0 0 361 361" style="enable-background:new 0 0 361 361;" xml:space="preserve">
<g id="sani_x5F_supply_x5F_temp">
	<path style="fill:none;stroke:#FFFFFF;stroke-width:10;stroke-miterlimit:10;" d="M268.648,215.92c0,1.859-1.634,3.368-3.648,3.368
		h-13.379c-2.014,0-3.648-1.509-3.648-3.368v-93.397c0-1.861,1.635-3.369,3.648-3.369H265c2.015,0,3.648,1.508,3.648,3.369V215.92z"
		/>
	<path style="fill:#FFFFFF;stroke:#FFFFFF;stroke-width:10;stroke-miterlimit:10;" d="M274.121,244.018
		c0,2.016-1.28,3.649-2.859,3.649H245.36c-1.579,0-2.86-1.634-2.86-3.649v-21.08c0-2.015,1.281-3.648,2.86-3.648h25.901
		c1.579,0,2.859,1.634,2.859,3.648V244.018z"/>
	<g>
		<g>
			<path style="fill:#FFFFFF;" d="M276.555,131.451c3.648,0,7.297,0,10.945,0c6.448,0,6.448-10,0-10c-3.648,0-7.297,0-10.945,0
				C270.106,121.451,270.106,131.451,276.555,131.451L276.555,131.451z"/>
		</g>
	</g>
	<g>
		<g>
			<path style="fill:#FFFFFF;" d="M276.555,155.775c3.648,0,7.297,0,10.945,0c6.448,0,6.448-10,0-10c-3.648,0-7.297,0-10.945,0
				C270.106,145.775,270.106,155.775,276.555,155.775L276.555,155.775z"/>
		</g>
	</g>
	<g>
		<g>
			<path style="fill:#FFFFFF;" d="M276.555,180.708c3.648,0,7.297,0,10.945,0c6.448,0,6.448-10,0-10c-3.648,0-7.297,0-10.945,0
				C270.106,170.708,270.106,180.708,276.555,180.708L276.555,180.708z"/>
		</g>
	</g>
	<g>
		<g>
			<path style="fill:#FFFFFF;" d="M276.555,206.855c3.648,0,7.297,0,10.945,0c6.448,0,6.448-10,0-10c-3.648,0-7.297,0-10.945,0
				C270.106,196.855,270.106,206.855,276.555,206.855L276.555,206.855z"/>
		</g>
	</g>
	
		<rect x="247.973" y="144.417" style="fill:#FFFFFF;stroke:#FFFFFF;stroke-width:10;stroke-miterlimit:10;" width="20.676" height="84.398"/>
	<g>
		<g>
			<path style="fill:#FFFFFF;" d="M76.175,114.063c6.866-1.167,13.732-2.335,20.599-3.502c6.348-1.079,3.647-10.715-2.658-9.643
				c-6.866,1.167-13.732,2.335-20.599,3.502C67.169,105.499,69.869,115.135,76.175,114.063L76.175,114.063z"/>
		</g>
	</g>
	<g>
		<g>
			<path style="fill:#FFFFFF;" d="M96.773,121.386c-6.872-1.169-13.745-2.338-20.617-3.506c-6.306-1.073-9.006,8.563-2.658,9.643
				c6.872,1.169,13.745,2.338,20.617,3.506C100.421,132.101,103.121,122.465,96.773,121.386L96.773,121.386z"/>
		</g>
	</g>
	<g>
		<g>
			<path style="fill:#FFFFFF;" d="M96.773,135.348c-6.861-1.167-13.722-2.333-20.583-3.5c-6.306-1.072-9.006,8.563-2.658,9.643
				c6.861,1.167,13.722,2.333,20.583,3.5C100.421,146.063,103.121,136.427,96.773,135.348L96.773,135.348z"/>
		</g>
	</g>
	<g>
		<g>
			<path style="fill:#FFFFFF;" d="M96.773,149.31c-6.868-1.168-13.736-2.336-20.604-3.504c-6.306-1.072-9.006,8.563-2.658,9.643
				c6.868,1.168,13.736,2.336,20.604,3.504C100.421,160.025,103.121,150.39,96.773,149.31L96.773,149.31z"/>
		</g>
	</g>
	<g>
		<g>
			<path style="fill:#FFFFFF;" d="M96.773,163.272c-6.821-1.16-13.642-2.32-20.463-3.479c-6.306-1.072-9.006,8.563-2.658,9.643
				c6.821,1.16,13.642,2.32,20.463,3.479C100.421,173.987,103.121,164.351,96.773,163.272L96.773,163.272z"/>
		</g>
	</g>
	<g>
		<g>
			<path style="fill:#FFFFFF;" d="M96.484,110.792c18.311,0,36.622,0,54.932,0c6.449,0,6.449-10,0-10c-18.311,0-36.622,0-54.932,0
				C90.036,100.792,90.036,110.792,96.484,110.792L96.484,110.792z"/>
		</g>
	</g>
	<g>
		<g>
			<path style="fill:#FFFFFF;" d="M96.484,173.332c13.732,0,27.463,0,41.195,0c6.449,0,6.449-10,0-10c-13.732,0-27.463,0-41.195,0
				C90.036,163.332,90.036,173.332,96.484,173.332L96.484,173.332z"/>
		</g>
	</g>
	<g>
		<g>
			<path style="fill:#FFFFFF;" d="M178.5,110.792c6.945,0,13.889,0,20.833,0c6.448,0,6.448-10,0-10c-6.944,0-13.889,0-20.833,0
				C172.051,100.792,172.051,110.792,178.5,110.792L178.5,110.792z"/>
		</g>
	</g>
	<g>
		<g>
			<path style="fill:#FFFFFF;" d="M151.362,88.731c8.758,6.694,17.517,13.388,26.274,20.082c0-2.015,0-4.029,0-6.044
				c-8.758,6.694-17.516,13.388-26.274,20.082c1.755,1.007,3.511,2.015,5.267,3.022c0-13.388,0-26.776,0-40.164c0-4.514-7-4.514-7,0
				c0,13.388,0,26.776,0,40.164c0,2.405,3.078,4.695,5.267,3.022c8.758-6.694,17.516-13.388,26.274-20.082
				c2.225-1.7,2.225-4.344,0-6.044c-8.758-6.694-17.517-13.388-26.274-20.082C151.308,79.945,147.828,86.03,151.362,88.731z"/>
		</g>
	</g>
	<path style="fill:none;stroke:#FFFFFF;stroke-width:10;stroke-miterlimit:10;" d="M69.952,74.641H86.71
		c15.116,0,27.372,2.366,27.372,5.285V281.41c0,2.918-12.255,5.283-27.372,5.283H69.952"/>
</g>
<g id="Ebene_1">
</g>
</svg>
