<?xml version="1.0" encoding="iso-8859-1"?>
<!-- Generator: Adobe Illustrator 16.0.0, SVG Export Plug-In . SVG Version: 6.00 Build 0)  -->
<!DOCTYPE svg PUBLIC "-//W3C//DTD SVG 1.1//EN" "http://www.w3.org/Graphics/SVG/1.1/DTD/svg11.dtd">
<svg version="1.1" xmlns="http://www.w3.org/2000/svg" xmlns:xlink="http://www.w3.org/1999/xlink" x="0px" y="0px" width="361px"
	 height="361px" viewBox="0 0 361 361" style="enable-background:new 0 0 361 361;" xml:space="preserve">
<g id="sani_x5F_cogeneration">
	<path style="fill:none;stroke:#FFFFFF;stroke-width:10;stroke-miterlimit:10;" d="M243.067,283.394
		c0,2.084-1.689,3.773-3.772,3.773H88.606c-2.084,0-3.773-1.689-3.773-3.773V109.578c0-2.083,1.689-3.773,3.773-3.773h150.688
		c2.083,0,3.772,1.689,3.772,3.773V283.394z"/>
	<g>
		<g>
			<path style="fill:#FFFFFF;" d="M152.458,218.112c-0.216,10.692-5.292,22.036-16.085,25.64
				c-10.628,3.549-21.84-4.04-26.421-13.276c-2.502-5.044-2.751-11.782-0.513-16.928c2.026-4.659,5.948-8.396,8.635-12.67
				c2.592-4.122,4.015-9.114,5.478-13.714c0.834-2.625,1.538-8.653,3.774-10.46c-1.135,0.3-2.271,0.6-3.406,0.9
				c-1.206-0.173-0.589-0.173,0.142,0.896c0.663,0.969,1.205,2.019,1.751,3.055c1.741,3.296,2.517,6.884,3.107,10.527
				c0.438,2.702,2.354,7.255,5.886,6.812c3.208-0.402,5-2.487,6.782-5.022c1.002-1.427,1.828-2.983,2.653-4.517
				c0.29-0.54,0.574-1.084,0.862-1.625c1.031-1.942,0.645-0.074-1.171,0.186c-1.135-0.3-2.271-0.601-3.406-0.9
				C148.75,195.396,152.277,206.503,152.458,218.112c0.07,4.51,7.07,4.517,7,0c-0.193-12.37-3.789-24.818-12.16-34.15
				c-6.272-6.992-8.644,1.666-11.754,6.376c-0.348,0.527-0.726,0.966-1.153,1.426c-0.496,0.533,2.368,1.948,1.771,0.414
				c-0.964-2.479-1.032-5.357-1.761-7.925c-1.219-4.292-3.449-9.083-6.642-12.282c-6.562-6.572-10.396,11.566-11.36,14.6
				c-1.621,5.098-3.5,9.775-6.635,14.137c-3.23,4.495-6.51,8.433-8.048,13.867c-3.001,10.604,1.885,22.339,9.827,29.384
				c7.448,6.606,18.319,9.339,27.829,6.164c9.906-3.308,16.306-12.761,18.919-22.444c0.835-3.095,1.104-6.376,1.168-9.566
				C159.55,213.596,152.549,213.604,152.458,218.112z"/>
		</g>
	</g>
	<g>
		<g>
			<path style="fill:#FFFFFF;" d="M140.483,229.71c-0.218,6.209-3.079,12.344-9.492,14.021c-6.259,1.638-12.127-4.226-13.627-9.675
				c-1.691-6.143,3.384-9.957,6.013-14.745c1.151-2.096,1.877-4.481,2.62-6.741c0.51-1.554,0.89-5.136,2.098-6.291
				c-1.135,0.301-2.271,0.601-3.406,0.9c-2.05-0.781-0.165,0.862,0.47,2.1c0.937,1.823,1.217,3.907,1.574,5.896
				c0.374,2.078,2.209,4.82,4.65,4.614c2.31-0.195,3.825-1.447,5.106-3.313c0.574-0.835,1.086-1.694,1.578-2.58
				c0.814-1.469,1.945-2.095,0.034-0.983c-1.414-0.183-2.828-0.365-4.242-0.548C138.458,217.105,140.317,223.189,140.483,229.71
				c0.115,4.506,7.115,4.517,7,0c-0.213-8.376-2.78-16.22-8.673-22.294c-1.095-1.129-2.896-1.329-4.242-0.548
				c-1.12,0.651-1.637,1.788-2.214,2.88c-0.346,0.652-0.708,1.295-1.081,1.933c-0.225,0.374-0.461,0.741-0.708,1.102
				c-1.257,1.114-0.285,1.291,2.917,0.531c-1.252-4.259-2.051-11.024-6.933-12.884c-1.155-0.439-2.564,0.096-3.406,0.9
				c-2.078,1.987-2.686,5.507-3.504,8.136c-1.346,4.325-3.027,7.777-5.783,11.372c-5.082,6.629-4.915,15.967,0.383,22.485
				c5,6.151,13.335,9.243,20.956,6.42c8.177-3.029,12.002-11.883,12.288-20.033C147.641,225.193,140.641,225.209,140.483,229.71z"/>
		</g>
	</g>
	<path style="fill:none;stroke:#FFFFFF;stroke-width:10;stroke-miterlimit:10;" d="M234.227,101.805c0,2.209-1.791,4-4,4h-95.894
		c-2.209,0-4-1.791-4-4V79.167c0-2.209,1.791-4,4-4h95.894c2.209,0,4,1.791,4,4V101.805z"/>
	<g>
		<g>
			<path style="fill:#FFFFFF;" d="M143.515,95.486c6.788,0,13.575,0,20.362,0c6.449,0,6.449-10,0-10c-6.788,0-13.575,0-20.362,0
				C137.066,85.486,137.066,95.486,143.515,95.486L143.515,95.486z"/>
		</g>
	</g>
	<g>
		<g>
			<path style="fill:#FFFFFF;" d="M177.599,95.486c1.312,0,2.623,0,3.935,0c2.726,0,5-2.274,5-5s-2.274-5-5-5
				c-1.312,0-2.623,0-3.935,0c-2.726,0-5,2.274-5,5S174.873,95.486,177.599,95.486L177.599,95.486z"/>
		</g>
	</g>
	<g>
		<path style="fill:#FFFFFF;" d="M203.494,127.621c0,0.833-0.676,1.508-1.508,1.508h-28.95c-0.833,0-1.508-0.675-1.508-1.508v-8.215
			c0-0.833,0.675-1.508,1.508-1.508h28.95c0.832,0,1.508,0.675,1.508,1.508V127.621z"/>
		<g>
			<g>
				<path style="fill:#FFFFFF;" d="M225.388,171.349c-0.477,5.908-8.924,4.332-12.985,4.332c-7.706,0-15.412,0-23.119,0
					c-6.9,0-13.801,0-20.701,0c-4.707,0-8.431-0.488-8.431-6.279c0-7.309,0-14.619,0-21.928c0-4.78-0.709-10.381,5.741-10.381
					c13.888,0,27.776,0,41.665,0c4.029,0,8.06,0,12.089,0c4.055,0,5.741,2.427,5.741,6.279
					C225.388,152.697,225.388,162.023,225.388,171.349c0,4.514,7,4.514,7,0c0-5.815,0-11.63,0-17.446
					c0-5.776,0.943-12.413-1.353-17.845c-2.427-5.743-8.845-5.966-14.078-5.966c-6.9,0-13.801,0-20.701,0c-7.707,0-15.413,0-23.12,0
					c-3.995,0-9.115-0.72-12.895,0.877c-7.237,3.059-7.09,9.906-7.09,16.504c0,7.31,0,14.619,0,21.928
					c0,7.883,4.627,13.28,12.741,13.28c7.797,0,15.594,0,23.391,0c9.036,0,18.072,0,27.109,0c1.554,0,3.108,0,4.663,0
					c6.516,0,10.838-5.208,11.332-11.333C232.751,166.847,225.748,166.882,225.388,171.349z"/>
			</g>
		</g>
		<path style="fill:#FFFFFF;" d="M245.887,167.235c0,3.135-2.542,5.678-5.678,5.678h-6.176c-3.137,0-5.679-2.543-5.679-5.678
			v-21.696c0-3.136,2.542-5.678,5.679-5.678h6.176c3.136,0,5.678,2.542,5.678,5.678V167.235z"/>
		<path style="fill:#FFFFFF;" d="M233.814,183.721c0,1.643-1.021,2.974-2.283,2.974h-4.1c-1.261,0-2.283-1.331-2.283-2.974v-53.917
			c0-1.642,1.022-2.973,2.283-2.973h4.1c1.262,0,2.283,1.332,2.283,2.973V183.721z"/>
		<g>
			<g>
				<path style="fill:#FFFFFF;" d="M229.359,145.442c-19.881,0-39.761,0-59.641,0c-1.935,0-1.935,3,0,3c19.88,0,39.76,0,59.641,0
					C231.294,148.442,231.294,145.442,229.359,145.442L229.359,145.442z"/>
			</g>
		</g>
		<g>
			<g>
				<path style="fill:#FFFFFF;" d="M229.359,151.803c-19.881,0-39.761,0-59.641,0c-1.935,0-1.935,3,0,3c19.88,0,39.76,0,59.641,0
					C231.294,154.803,231.294,151.803,229.359,151.803L229.359,151.803z"/>
			</g>
		</g>
		<g>
			<g>
				<path style="fill:#FFFFFF;" d="M229.359,158.164c-19.881,0-39.761,0-59.641,0c-1.935,0-1.935,3,0,3c19.88,0,39.76,0,59.641,0
					C231.294,161.164,231.294,158.164,229.359,158.164L229.359,158.164z"/>
			</g>
		</g>
		<g>
			<g>
				<path style="fill:#FFFFFF;" d="M229.359,164.526c-19.881,0-39.761,0-59.641,0c-1.935,0-1.935,3,0,3c19.88,0,39.76,0,59.641,0
					C231.294,167.526,231.294,164.526,229.359,164.526L229.359,164.526z"/>
			</g>
		</g>
		<g>
			<g>
				<path style="fill:#FFFFFF;" d="M227.852,139.08c-18.567,0-37.136,0-55.703,0c-1.935,0-1.935,3,0,3c18.567,0,37.136,0,55.703,0
					C229.786,142.08,229.786,139.08,227.852,139.08L227.852,139.08z"/>
			</g>
		</g>
		<g>
			<g>
				<path style="fill:#FFFFFF;" d="M227.852,170.888c-18.567,0-37.136,0-55.703,0c-1.935,0-1.935,3,0,3c18.567,0,37.136,0,55.703,0
					C229.786,173.888,229.786,170.888,227.852,170.888L227.852,170.888z"/>
			</g>
		</g>
	</g>
	<g>
		<g>
			<g>
				<path style="fill:#FFFFFF;" d="M175.457,228.63c16.842-2.864,33.683-5.728,50.524-8.592c6.348-1.079,3.647-10.715-2.658-9.643
					c-16.842,2.864-33.683,5.728-50.524,8.592C166.451,220.066,169.151,229.702,175.457,228.63L175.457,228.63z"/>
			</g>
		</g>
		<g>
			<g>
				<path style="fill:#FFFFFF;" d="M225.981,227.987c-16.842-2.864-33.683-5.728-50.524-8.592c-6.306-1.072-9.006,8.563-2.658,9.643
					c16.842,2.864,33.683,5.728,50.524,8.592C229.629,238.702,232.329,229.066,225.981,227.987L225.981,227.987z"/>
			</g>
		</g>
		<g>
			<g>
				<path style="fill:#FFFFFF;" d="M225.981,239.987c-16.842-2.864-33.683-5.728-50.524-8.592c-6.306-1.072-9.006,8.563-2.658,9.643
					c16.842,2.864,33.683,5.728,50.524,8.592C229.629,250.702,232.329,241.066,225.981,239.987L225.981,239.987z"/>
			</g>
		</g>
		<g>
			<g>
				<path style="fill:#FFFFFF;" d="M225.981,251.987c-16.842-2.864-33.683-5.728-50.524-8.592c-6.306-1.072-9.006,8.563-2.658,9.643
					c16.842,2.864,33.683,5.728,50.524,8.592C229.629,262.702,232.329,253.066,225.981,251.987L225.981,251.987z"/>
			</g>
		</g>
		<g>
			<g>
				<path style="fill:#FFFFFF;" d="M227.266,220.264c18,0,36,0,54,0c6.448,0,6.448-10,0-10c-18,0-36,0-54,0
					C220.817,210.264,220.817,220.264,227.266,220.264L227.266,220.264z"/>
			</g>
		</g>
		<g>
			<g>
				<path style="fill:#FFFFFF;" d="M227.266,262.014c18,0,36,0,54,0c6.448,0,6.448-10,0-10c-18,0-36,0-54,0
					C220.817,252.014,220.817,262.014,227.266,262.014L227.266,262.014z"/>
			</g>
		</g>
	</g>
	<g>
		<g>
			<polygon style="fill:#FFFFFF;" points="280.727,168.757 263.031,185.868 269.053,162 			"/>
			<g>
				<path style="fill:#FFFFFF;" d="M278.912,166.942c-5.898,5.704-11.797,11.407-17.695,17.111c1.43,0.832,2.859,1.664,4.289,2.497
					c2.007-7.957,4.015-15.913,6.021-23.869c-1.257,0.511-2.514,1.022-3.77,1.534c3.891,2.252,7.782,4.504,11.674,6.757
					c2.87,1.661,5.453-2.775,2.59-4.432c-3.891-2.252-7.782-4.504-11.674-6.757c-1.411-0.817-3.361-0.085-3.77,1.534
					c-2.007,7.956-4.015,15.912-6.021,23.868c-0.63,2.499,2.427,4.298,4.289,2.497c5.898-5.704,11.797-11.407,17.695-17.111
					C284.924,168.267,281.291,164.642,278.912,166.942z"/>
			</g>
		</g>
		<g>
			<g>
				<path style="fill:#FFFFFF;" d="M280.452,119.245c-4.886,8.43-9.771,16.859-14.658,25.288c-2.268,3.913,3.782,7.436,6.045,3.533
					c4.886-8.43,9.771-16.859,14.658-25.288C288.765,118.865,282.715,115.342,280.452,119.245L280.452,119.245z"/>
			</g>
		</g>
		<g>
			<g>
				<path style="fill:#FFFFFF;" d="M267.886,149.675c5.15,0.969,10.3,1.937,15.449,2.906c4.411,0.83,6.294-5.916,1.861-6.75
					c-5.15-0.969-10.3-1.937-15.449-2.906C265.336,142.095,263.453,148.841,267.886,149.675L267.886,149.675z"/>
			</g>
		</g>
		<g>
			<g>
				<path style="fill:#FFFFFF;" d="M281.243,147.439c-4.886,8.429-9.771,16.858-14.658,25.288c-2.268,3.913,3.782,7.436,6.045,3.533
					c4.886-8.429,9.771-16.858,14.658-25.288C289.556,147.059,283.506,143.536,281.243,147.439L281.243,147.439z"/>
			</g>
		</g>
	</g>
</g>
<g id="Ebene_1">
</g>
</svg>
