<?xml version="1.0" encoding="iso-8859-1"?>
<!-- Generator: Adobe Illustrator 16.0.0, SVG Export Plug-In . SVG Version: 6.00 Build 0)  -->
<!DOCTYPE svg PUBLIC "-//W3C//DTD SVG 1.1//EN" "http://www.w3.org/Graphics/SVG/1.1/DTD/svg11.dtd">
<svg version="1.1" xmlns="http://www.w3.org/2000/svg" xmlns:xlink="http://www.w3.org/1999/xlink" x="0px" y="0px" width="361px"
	 height="361px" viewBox="0 0 361 361" style="enable-background:new 0 0 361 361;" xml:space="preserve">
<g id="sani_x5F_floor_x5F_heating">
	<g>
		<g>
			<g>
				<g>
					<path style="fill:#FFFFFF;" d="M108.564,193.021c47.1,0,94.2,0,141.301,0c0.665,0,1.33,0,1.995,0c6.448,0,6.448-10,0-10
						c-47.101,0-94.201,0-141.301,0c-0.665,0-1.33,0-1.995,0C102.116,183.021,102.116,193.021,108.564,193.021L108.564,193.021z"/>
				</g>
			</g>
			<g>
				<g>
					<path style="fill:#FFFFFF;" d="M273.73,202.951c-0.33-11.312-9.446-19.552-20.57-19.848c-6.452-0.171-6.436,9.829,0,10
						c5.595,0.148,10.401,4.051,10.57,9.848C263.918,209.385,273.919,209.403,273.73,202.951L273.73,202.951z"/>
				</g>
			</g>
		</g>
		<g>
			<g>
				<g>
					<path style="fill:#FFFFFF;" d="M108.564,224.482c47.1,0,94.2,0,141.301,0c0.665,0,1.33,0,1.995,0c6.448,0,6.448-10,0-10
						c-47.101,0-94.201,0-141.301,0c-0.665,0-1.33,0-1.995,0C102.116,214.482,102.116,224.482,108.564,224.482L108.564,224.482z"/>
				</g>
			</g>
			<g>
				<g>
					<path style="fill:#FFFFFF;" d="M263.73,204.553c-0.169,5.797-4.976,9.699-10.57,9.848c-6.436,0.171-6.452,10.171,0,10
						c11.124-0.296,20.24-8.536,20.57-19.848C273.919,198.101,263.918,198.119,263.73,204.553L263.73,204.553z"/>
				</g>
			</g>
		</g>
		<g>
			<g>
				<g>
					<path style="fill:#FFFFFF;" d="M253.118,244.93c-47.101,0-94.201,0-141.301,0c-0.665,0-1.33,0-1.995,0c-6.449,0-6.449,10,0,10
						c47.1,0,94.2,0,141.301,0c0.665,0,1.33,0,1.995,0C259.566,254.93,259.566,244.93,253.118,244.93L253.118,244.93z"/>
				</g>
			</g>
			<g>
				<g>
					<path style="fill:#FFFFFF;" d="M87.952,234.998c0.331,11.312,9.446,19.553,20.57,19.849c6.453,0.171,6.436-9.829,0-10
						c-5.595-0.148-10.401-4.052-10.57-9.849C97.764,228.564,87.763,228.546,87.952,234.998L87.952,234.998z"/>
				</g>
			</g>
			<g>
				<g>
					<path style="fill:#FFFFFF;" d="M97.952,234.316c0.169-5.797,4.975-9.7,10.57-9.849c6.436-0.171,6.453-10.171,0-10
						c-11.125,0.296-20.24,8.537-20.57,19.849C87.763,240.769,97.764,240.75,97.952,234.316L97.952,234.316z"/>
				</g>
			</g>
		</g>
	</g>
	<path style="fill:none;stroke:#FFFFFF;stroke-width:10;stroke-miterlimit:10;" d="M286.861,266.941
		c0,3.578-2.719,6.479-6.072,6.479H81.406c-3.354,0-6.073-2.9-6.073-6.479v-98.796c0-3.578,2.719-6.479,6.073-6.479h199.383
		c3.354,0,6.072,2.9,6.072,6.479V266.941z"/>
	<path style="fill:none;stroke:#FFFFFF;stroke-width:10;stroke-miterlimit:10;" d="M125.444,123.525
		c1.113,0,2.015,0.282,2.015,0.628v10.905c0,0.348-0.902,0.629-2.015,0.629H86.146c-1.113,0-2.016-0.281-2.016-0.629v-10.905
		c0-0.346,0.903-0.628,2.016-0.628H125.444z"/>
	<g>
		<g>
			<path style="fill:#FFFFFF;" d="M79.872,125.78c10.167-13.302,20.334-26.605,30.501-39.908c-2.878,0-5.756,0-8.635,0
				c10.167,13.303,20.334,26.605,30.501,39.908c1.439-2.508,2.878-5.016,4.317-7.523c-20.334,0-40.668,0-61.003,0
				c-6.449,0-6.449,10,0,10c20.334,0,40.668,0,61.003,0c3.435,0,6.707-4.397,4.317-7.523
				c-10.167-13.303-20.334-26.605-30.501-39.908c-2.429-3.178-6.206-3.178-8.635,0c-10.167,13.302-20.334,26.605-30.501,39.908
				C67.32,125.858,76.013,130.83,79.872,125.78z"/>
		</g>
	</g>
	<path style="fill:none;stroke:#FFFFFF;stroke-width:10;stroke-miterlimit:10;" d="M200.443,123.525
		c1.113,0,2.016,0.282,2.016,0.628v10.905c0,0.348-0.902,0.629-2.016,0.629h-39.297c-1.113,0-2.016-0.281-2.016-0.629v-10.905
		c0-0.346,0.903-0.628,2.016-0.628H200.443z"/>
	<g>
		<g>
			<path style="fill:#FFFFFF;" d="M154.872,125.78c10.167-13.302,20.334-26.605,30.502-39.908c-2.878,0-5.756,0-8.635,0
				c10.167,13.303,20.334,26.605,30.501,39.908c1.439-2.508,2.878-5.016,4.317-7.523c-20.334,0-40.668,0-61.003,0
				c-6.449,0-6.449,10,0,10c20.334,0,40.669,0,61.003,0c3.436,0,6.707-4.397,4.317-7.523
				c-10.167-13.303-20.334-26.605-30.501-39.908c-2.429-3.178-6.206-3.178-8.635,0c-10.167,13.302-20.334,26.605-30.502,39.908
				C142.32,125.858,151.012,130.83,154.872,125.78z"/>
		</g>
	</g>
	<path style="fill:none;stroke:#FFFFFF;stroke-width:10;stroke-miterlimit:10;" d="M275.443,123.525
		c1.113,0,2.016,0.282,2.016,0.628v10.905c0,0.348-0.902,0.629-2.016,0.629h-39.297c-1.113,0-2.016-0.281-2.016-0.629v-10.905
		c0-0.346,0.902-0.628,2.016-0.628H275.443z"/>
	<g>
		<g>
			<path style="fill:#FFFFFF;" d="M229.872,125.78c10.167-13.302,20.335-26.605,30.502-39.908c-2.878,0-5.757,0-8.635,0
				c10.167,13.303,20.334,26.605,30.501,39.908c1.439-2.508,2.878-5.016,4.317-7.523c-20.334,0-40.669,0-61.003,0
				c-6.448,0-6.448,10,0,10c20.334,0,40.669,0,61.003,0c3.436,0,6.707-4.397,4.317-7.523
				c-10.167-13.303-20.334-26.605-30.501-39.908c-2.429-3.178-6.206-3.178-8.635,0c-10.167,13.302-20.335,26.605-30.502,39.908
				C217.319,125.858,226.013,130.83,229.872,125.78z"/>
		</g>
	</g>
</g>
<g id="Ebene_1">
</g>
</svg>
