<?xml version="1.0" encoding="iso-8859-1"?>
<!-- Generator: Adobe Illustrator 16.0.0, SVG Export Plug-In . SVG Version: 6.00 Build 0)  -->
<!DOCTYPE svg PUBLIC "-//W3C//DTD SVG 1.1//EN" "http://www.w3.org/Graphics/SVG/1.1/DTD/svg11.dtd">
<svg version="1.1" xmlns="http://www.w3.org/2000/svg" xmlns:xlink="http://www.w3.org/1999/xlink" x="0px" y="0px" width="361px"
	 height="361px" viewBox="0 0 361 361" style="enable-background:new 0 0 361 361;" xml:space="preserve">
<g id="sani_x5F_heating">
	<path style="fill:none;stroke:#FFFFFF;stroke-width:10;stroke-miterlimit:10;" d="M217.756,285.666
		c-1.926,0-3.489-2.225-3.489-4.969V79.069c0-2.744,1.563-4.969,3.489-4.969h13.088c1.928,0,3.49,2.225,3.49,4.969v201.628
		c0,2.744-1.563,4.969-3.49,4.969H217.756z"/>
	<path style="fill:none;stroke:#FFFFFF;stroke-width:10;stroke-miterlimit:10;" d="M98.756,286.166c-1.927,0-3.49-2.225-3.49-4.969
		V79.569c0-2.744,1.563-4.969,3.49-4.969h13.088c1.927,0,3.49,2.225,3.49,4.969v201.628c0,2.744-1.563,4.969-3.49,4.969H98.756z"/>
	<path style="fill:none;stroke:#FFFFFF;stroke-width:10;stroke-miterlimit:10;" d="M158.756,286.166c-1.927,0-3.49-2.225-3.49-4.969
		V79.569c0-2.744,1.563-4.969,3.49-4.969h13.088c1.927,0,3.49,2.225,3.49,4.969v201.628c0,2.744-1.563,4.969-3.49,4.969H158.756z"/>
	<path style="fill:#FFFFFF;stroke:#FFFFFF;stroke-width:10;stroke-miterlimit:10;" d="M93.75,262.928
		c0,1.926-0.199,3.489-0.444,3.489H75.294c-0.246,0-0.444-1.563-0.444-3.489V249.84c0-1.928,0.199-3.49,0.444-3.49h18.011
		c0.246,0,0.444,1.563,0.444,3.49V262.928z"/>
	<path style="fill:#FFFFFF;stroke:#FFFFFF;stroke-width:10;stroke-miterlimit:10;" d="M154.343,262.594
		c0,1.928-0.402,3.49-0.896,3.49H117.08c-0.495,0-0.896-1.563-0.896-3.49v-13.088c0-1.926,0.402-3.489,0.896-3.489h36.367
		c0.495,0,0.896,1.563,0.896,3.489V262.594z"/>
	<path style="fill:#FFFFFF;stroke:#FFFFFF;stroke-width:10;stroke-miterlimit:10;" d="M214.176,262.761
		c0,1.927-0.401,3.489-0.896,3.489h-36.366c-0.495,0-0.896-1.563-0.896-3.489v-13.088c0-1.927,0.402-3.489,0.896-3.489h36.366
		c0.495,0,0.896,1.563,0.896,3.489V262.761z"/>
	<path style="fill:#FFFFFF;stroke:#FFFFFF;stroke-width:10;stroke-miterlimit:10;" d="M234.053,249.006
		c0-1.926,0.185-3.489,0.412-3.489h16.741c0.228,0,0.413,1.563,0.413,3.489v13.088c0,1.928-0.186,3.49-0.413,3.49h-16.741
		c-0.228,0-0.412-1.563-0.412-3.49V249.006z"/>
	<path style="fill:#FFFFFF;stroke:#FFFFFF;stroke-width:10;stroke-miterlimit:10;" d="M93.75,111.594c0,1.927-0.199,3.49-0.444,3.49
		H75.294c-0.246,0-0.444-1.563-0.444-3.49V98.506c0-1.927,0.199-3.49,0.444-3.49h18.011c0.246,0,0.444,1.563,0.444,3.49V111.594z"/>
	<path style="fill:#FFFFFF;stroke:#FFFFFF;stroke-width:10;stroke-miterlimit:10;" d="M154.343,111.261
		c0,1.927-0.402,3.49-0.896,3.49H117.08c-0.495,0-0.896-1.563-0.896-3.49V98.173c0-1.927,0.402-3.49,0.896-3.49h36.367
		c0.495,0,0.896,1.563,0.896,3.49V111.261z"/>
	<path style="fill:#FFFFFF;stroke:#FFFFFF;stroke-width:10;stroke-miterlimit:10;" d="M214.176,111.427
		c0,1.927-0.401,3.49-0.896,3.49h-36.366c-0.495,0-0.896-1.563-0.896-3.49V98.339c0-1.927,0.402-3.49,0.896-3.49h36.366
		c0.495,0,0.896,1.563,0.896,3.49V111.427z"/>
	<path style="fill:none;stroke:#FFFFFF;stroke-width:10;stroke-miterlimit:10;" d="M286.416,111.302c0,1.927-0.199,3.49-0.444,3.49
		h-18.011c-0.246,0-0.444-1.563-0.444-3.49V98.214c0-1.927,0.198-3.49,0.444-3.49h18.011c0.245,0,0.444,1.563,0.444,3.49V111.302z"
		/>
	<path style="fill:#FFFFFF;stroke:#FFFFFF;stroke-width:10;stroke-miterlimit:10;" d="M234.301,98.248
		c0-1.927,0.184-3.49,0.412-3.49h16.74c0.229,0,0.413,1.563,0.413,3.49v13.088c0,1.927-0.185,3.49-0.413,3.49h-16.74
		c-0.229,0-0.412-1.563-0.412-3.49V98.248z"/>
</g>
<g id="Ebene_1">
</g>
</svg>
