<?xml version="1.0" encoding="iso-8859-1"?>
<!-- Generator: Adobe Illustrator 16.0.0, SVG Export Plug-In . SVG Version: 6.00 Build 0)  -->
<!DOCTYPE svg PUBLIC "-//W3C//DTD SVG 1.1 Tiny//EN" "http://www.w3.org/Graphics/SVG/1.1/DTD/svg11-tiny.dtd">
<svg version="1.1" baseProfile="tiny" id="sani_x5F_floor_x5F_heating"
	 xmlns="http://www.w3.org/2000/svg" xmlns:xlink="http://www.w3.org/1999/xlink" x="0px" y="0px" width="361px" height="361px"
	 viewBox="0 0 361 361" xml:space="preserve">
<g>
	<g>
		<g>
			<path fill="#FFFFFF" d="M106.046,195.898c47.1,0,94.201,0,141.301,0c0.665,0,1.33,0,1.995,0c6.449,0,6.449-10,0-10
				c-47.1,0-94.201,0-141.301,0c-0.665,0-1.33,0-1.995,0C99.598,185.898,99.598,195.898,106.046,195.898L106.046,195.898z"/>
		</g>
		<g>
			<path fill="#FFFFFF" d="M271.213,205.829c-0.331-11.311-9.446-19.553-20.57-19.848c-6.453-0.171-6.436,9.829,0,10
				c5.595,0.148,10.401,4.051,10.57,9.848C261.401,212.263,271.401,212.281,271.213,205.829L271.213,205.829z"/>
		</g>
	</g>
	<g>
		<g>
			<path fill="#FFFFFF" d="M106.046,227.361c47.1,0,94.201,0,141.301,0c0.665,0,1.33,0,1.995,0c6.449,0,6.449-10,0-10
				c-47.1,0-94.201,0-141.301,0c-0.665,0-1.33,0-1.995,0C99.598,217.361,99.598,227.361,106.046,227.361L106.046,227.361z"/>
		</g>
		<g>
			<path fill="#FFFFFF" d="M261.213,207.43c-0.169,5.797-4.976,9.7-10.57,9.849c-6.436,0.171-6.453,10.171,0,10
				c11.125-0.295,20.24-8.538,20.57-19.849C271.401,200.978,261.401,200.996,261.213,207.43L261.213,207.43z"/>
		</g>
	</g>
	<g>
		<g>
			<path fill="#FFFFFF" d="M250.6,247.807c-47.1,0-94.201,0-141.301,0c-0.665,0-1.33,0-1.995,0c-6.449,0-6.449,10,0,10
				c47.1,0,94.201,0,141.301,0c0.665,0,1.33,0,1.995,0C257.049,257.807,257.049,247.807,250.6,247.807L250.6,247.807z"/>
		</g>
		<g>
			<path fill="#FFFFFF" d="M85.434,237.876c0.331,11.311,9.446,19.553,20.57,19.848c6.453,0.171,6.436-9.829,0-10
				c-5.595-0.148-10.401-4.051-10.57-9.848C95.246,231.442,85.245,231.424,85.434,237.876L85.434,237.876z"/>
		</g>
		<g>
			<path fill="#FFFFFF" d="M95.434,237.194c0.169-5.797,4.976-9.7,10.57-9.848c6.436-0.171,6.453-10.171,0-10
				c-11.125,0.295-20.24,8.537-20.57,19.848C85.245,243.646,95.246,243.628,95.434,237.194L95.434,237.194z"/>
		</g>
	</g>
</g>
<path fill="none" stroke="#FFFFFF" stroke-width="10" stroke-miterlimit="10" d="M284.344,269.819c0,3.578-2.719,6.479-6.072,6.479
	H78.888c-3.354,0-6.073-2.9-6.073-6.479v-98.795c0-3.578,2.719-6.479,6.073-6.479h199.384c3.354,0,6.072,2.9,6.072,6.479V269.819z"
	/>
<path fill="none" stroke="#FFFFFF" stroke-width="10" stroke-miterlimit="10" d="M122.926,126.403c1.113,0,2.015,0.282,2.015,0.628
	v10.905c0,0.348-0.902,0.629-2.015,0.629H83.628c-1.113,0-2.016-0.281-2.016-0.629v-10.905c0-0.346,0.903-0.628,2.016-0.628H122.926
	z"/>
<g>
	<path fill="#FFFFFF" d="M77.354,128.658c10.167-13.302,20.334-26.605,30.501-39.908c-2.878,0-5.756,0-8.635,0
		c10.167,13.303,20.334,26.605,30.501,39.908c1.439-2.508,2.878-5.016,4.317-7.523c-20.334,0-40.668,0-61.003,0
		c-6.449,0-6.449,10,0,10c20.334,0,40.668,0,61.003,0c3.435,0,6.707-4.397,4.317-7.523c-10.167-13.303-20.334-26.605-30.501-39.908
		c-2.429-3.178-6.206-3.178-8.635,0c-10.167,13.302-20.334,26.605-30.501,39.908C64.802,128.736,73.495,133.708,77.354,128.658z"/>
</g>
<path fill="none" stroke="#FFFFFF" stroke-width="10" stroke-miterlimit="10" d="M197.926,126.403c1.113,0,2.015,0.282,2.015,0.628
	v10.905c0,0.348-0.902,0.629-2.015,0.629h-39.298c-1.113,0-2.016-0.281-2.016-0.629v-10.905c0-0.346,0.903-0.628,2.016-0.628
	H197.926z"/>
<g>
	<path fill="#FFFFFF" d="M152.354,128.658c10.167-13.302,20.334-26.605,30.501-39.908c-2.878,0-5.756,0-8.635,0
		c10.167,13.303,20.334,26.605,30.501,39.908c1.439-2.508,2.878-5.016,4.317-7.523c-20.334,0-40.668,0-61.003,0
		c-6.449,0-6.449,10,0,10c20.334,0,40.668,0,61.003,0c3.435,0,6.707-4.397,4.317-7.523c-10.167-13.303-20.334-26.605-30.501-39.908
		c-2.429-3.178-6.206-3.178-8.635,0c-10.167,13.302-20.334,26.605-30.501,39.908C139.802,128.736,148.495,133.708,152.354,128.658z"
		/>
</g>
<path fill="none" stroke="#FFFFFF" stroke-width="10" stroke-miterlimit="10" d="M272.926,126.403c1.113,0,2.015,0.282,2.015,0.628
	v10.905c0,0.348-0.902,0.629-2.015,0.629h-39.298c-1.113,0-2.016-0.281-2.016-0.629v-10.905c0-0.346,0.903-0.628,2.016-0.628
	H272.926z"/>
<g>
	<path fill="#FFFFFF" d="M227.354,128.658c10.167-13.302,20.334-26.605,30.501-39.908c-2.878,0-5.756,0-8.635,0
		c10.167,13.303,20.334,26.605,30.501,39.908c1.439-2.508,2.878-5.016,4.317-7.523c-20.334,0-40.668,0-61.003,0
		c-6.449,0-6.449,10,0,10c20.334,0,40.668,0,61.003,0c3.435,0,6.707-4.397,4.317-7.523c-10.167-13.303-20.334-26.605-30.501-39.908
		c-2.429-3.178-6.206-3.178-8.635,0c-10.167,13.302-20.334,26.605-30.501,39.908C214.802,128.736,223.495,133.708,227.354,128.658z"
		/>
</g>
</svg>
