<?xml version="1.0" encoding="iso-8859-1"?>
<!-- Generator: Adobe Illustrator 16.0.0, SVG Export Plug-In . SVG Version: 6.00 Build 0)  -->
<!DOCTYPE svg PUBLIC "-//W3C//DTD SVG 1.1//EN" "http://www.w3.org/Graphics/SVG/1.1/DTD/svg11.dtd">
<svg version="1.1" xmlns="http://www.w3.org/2000/svg" xmlns:xlink="http://www.w3.org/1999/xlink" x="0px" y="0px" width="361px"
	 height="361px" viewBox="0 0 361 361" style="enable-background:new 0 0 361 361;" xml:space="preserve">
<g id="sani_x5F_towel_x5F_rad">
	<g>
		<g>
			<path style="fill:#FFFFFF;" d="M111.832,76.863c0,48.807,0,97.614,0,146.421c0,20.331,0,40.663,0,60.995
				c0,9.686,15.003,9.771,15.003,0.107c0-48.807,0-97.613,0-146.42c0-20.332,0-40.664,0-60.995
				C126.834,67.285,111.832,67.199,111.832,76.863L111.832,76.863z"/>
		</g>
	</g>
	<g>
		
			<line style="fill:none;stroke:#FFFFFF;stroke-width:10;stroke-linecap:round;stroke-miterlimit:10;" x1="119.333" y1="81.332" x2="213.5" y2="81.332"/>
		
			<line style="fill:none;stroke:#FFFFFF;stroke-width:10;stroke-linecap:round;stroke-miterlimit:10;" x1="119.333" y1="97.832" x2="213.5" y2="97.832"/>
		
			<line style="fill:none;stroke:#FFFFFF;stroke-width:10;stroke-linecap:round;stroke-miterlimit:10;" x1="119.333" y1="114.332" x2="213.5" y2="114.332"/>
	</g>
	<g>
		
			<line style="fill:none;stroke:#FFFFFF;stroke-width:10;stroke-linecap:round;stroke-miterlimit:10;" x1="119.333" y1="235.666" x2="213.5" y2="235.666"/>
		
			<line style="fill:none;stroke:#FFFFFF;stroke-width:10;stroke-linecap:round;stroke-miterlimit:10;" x1="119.333" y1="252.166" x2="213.5" y2="252.166"/>
		
			<line style="fill:none;stroke:#FFFFFF;stroke-width:10;stroke-linecap:round;stroke-miterlimit:10;" x1="119.333" y1="268.666" x2="213.5" y2="268.666"/>
	</g>
	<g style="display:none;">
		
			<line style="display:inline;fill:none;stroke:#FFFFFF;stroke-width:10;stroke-linecap:round;stroke-miterlimit:10;" x1="119.333" y1="155.667" x2="213.5" y2="155.667"/>
		
			<line style="display:inline;fill:none;stroke:#FFFFFF;stroke-width:10;stroke-linecap:round;stroke-miterlimit:10;" x1="119.333" y1="172.167" x2="213.5" y2="172.167"/>
		
			<line style="display:inline;fill:none;stroke:#FFFFFF;stroke-width:10;stroke-linecap:round;stroke-miterlimit:10;" x1="119.333" y1="188.667" x2="213.5" y2="188.667"/>
		
			<line style="display:inline;fill:none;stroke:#FFFFFF;stroke-width:10;stroke-linecap:round;stroke-miterlimit:10;" x1="119.333" y1="205.917" x2="213.5" y2="205.917"/>
	</g>
	<g>
		<path style="fill:#FFFFFF;" d="M154.167,194.917h-34.833c-2.761,0-5,2.239-5,5s2.239,5,5,5h34.833V194.917z"/>
		<path style="fill:#FFFFFF;" d="M213.5,194.917h-6.667v10h6.667c2.762,0,5-2.239,5-5S216.262,194.917,213.5,194.917z"/>
	</g>
	<g>
		<path style="fill:#FFFFFF;" d="M154.167,177.667h-34.833c-2.761,0-5,2.239-5,5c0,2.761,2.239,5,5,5h34.833V177.667z"/>
		<path style="fill:#FFFFFF;" d="M213.5,177.667h-6.667v10h6.667c2.762,0,5-2.239,5-5C218.5,179.906,216.262,177.667,213.5,177.667z
			"/>
	</g>
	<g>
		<path style="fill:#FFFFFF;" d="M154.167,161.167h-34.833c-2.761,0-5,2.239-5,5s2.239,5,5,5h34.833V161.167z"/>
		<path style="fill:#FFFFFF;" d="M213.5,161.167h-6.667v10h6.667c2.762,0,5-2.239,5-5S216.262,161.167,213.5,161.167z"/>
	</g>
	<g>
		<path style="fill:#FFFFFF;" d="M154.167,146.501c0-0.704,0.266-1.339,0.69-1.834h-35.523c-2.761,0-5,2.239-5,5s2.239,5,5,5h34.833
			V146.501z"/>
		<path style="fill:#FFFFFF;" d="M213.5,144.667h-7.357c0.425,0.496,0.69,1.131,0.69,1.834v8.166h6.667c2.762,0,5-2.239,5-5
			S216.262,144.667,213.5,144.667z"/>
	</g>
	<path style="fill:none;stroke:#FFFFFF;stroke-width:3;stroke-linecap:round;stroke-miterlimit:10;" d="M206.833,222.499
		c0,1.565-1.269,2.835-2.835,2.835h-46.997c-1.565,0-2.834-1.27-2.834-2.835v-74.998c0-1.565,1.269-2.834,2.834-2.834h46.997
		c1.566,0,2.835,1.269,2.835,2.834V222.499z"/>
	
		<line style="fill:none;stroke:#FFFFFF;stroke-width:3;stroke-linecap:round;stroke-miterlimit:10;" x1="155.167" y1="215.042" x2="172.958" y2="215.042"/>
	
		<line style="fill:none;stroke:#FFFFFF;stroke-width:3;stroke-linecap:round;stroke-miterlimit:10;" x1="177.167" y1="215.042" x2="194.958" y2="215.042"/>
	
		<line style="fill:none;stroke:#FFFFFF;stroke-width:3;stroke-linecap:round;stroke-miterlimit:10;" x1="161.792" y1="212.042" x2="179.584" y2="212.042"/>
	
		<line style="fill:none;stroke:#FFFFFF;stroke-width:3;stroke-linecap:round;stroke-miterlimit:10;" x1="183.793" y1="212.042" x2="201.584" y2="212.042"/>
	
		<line style="fill:none;stroke:#FFFFFF;stroke-width:3;stroke-linecap:round;stroke-miterlimit:10;" x1="199.083" y1="215.042" x2="206.625" y2="215.042"/>
	
		<line style="fill:none;stroke:#FFFFFF;stroke-width:3;stroke-linecap:round;stroke-miterlimit:10;" x1="154.167" y1="212.042" x2="157.458" y2="212.042"/>
	
		<line style="fill:none;stroke:#FFFFFF;stroke-width:3;stroke-linecap:round;stroke-miterlimit:10;" x1="205.78" y1="212.042" x2="206.625" y2="212.042"/>
	
		<line style="fill:none;stroke:#FFFFFF;stroke-width:3;stroke-linecap:round;stroke-miterlimit:10;" x1="172.231" y1="218.042" x2="190.022" y2="218.042"/>
	
		<line style="fill:none;stroke:#FFFFFF;stroke-width:3;stroke-linecap:round;stroke-miterlimit:10;" x1="194.23" y1="218.042" x2="206.202" y2="218.042"/>
	
		<line style="fill:none;stroke:#FFFFFF;stroke-width:3;stroke-linecap:round;stroke-miterlimit:10;" x1="154.75" y1="218.042" x2="167.896" y2="218.042"/>
</g>
<g id="Ebene_1">
</g>
</svg>
