<?xml version="1.0" encoding="iso-8859-1"?>
<!-- Generator: Adobe Illustrator 16.0.0, SVG Export Plug-In . SVG Version: 6.00 Build 0)  -->
<!DOCTYPE svg PUBLIC "-//W3C//DTD SVG 1.1 Tiny//EN" "http://www.w3.org/Graphics/SVG/1.1/DTD/svg11-tiny.dtd">
<svg version="1.1" baseProfile="tiny" id="sani_x5F_boiler_x5F_temp"
	 xmlns="http://www.w3.org/2000/svg" xmlns:xlink="http://www.w3.org/1999/xlink" x="0px" y="0px" width="361px" height="361px"
	 viewBox="0 0 361 361" xml:space="preserve">
<g>
	<g>
		<path fill="#FFFFFF" d="M110.507,141.412c16.842-2.864,33.683-5.728,50.524-8.592c6.348-1.079,3.647-10.715-2.658-9.643
			c-16.842,2.864-33.683,5.728-50.524,8.592C101.501,132.849,104.201,142.484,110.507,141.412L110.507,141.412z"/>
	</g>
	<g>
		<path fill="#FFFFFF" d="M161.031,140.77c-16.841-2.864-33.683-5.728-50.524-8.592c-6.306-1.072-9.006,8.563-2.658,9.643
			c16.841,2.864,33.683,5.728,50.524,8.592C164.679,151.484,167.379,141.849,161.031,140.77L161.031,140.77z"/>
	</g>
	<g>
		<path fill="#FFFFFF" d="M161.031,152.77c-16.841-2.864-33.683-5.728-50.524-8.592c-6.306-1.072-9.006,8.563-2.658,9.643
			c16.841,2.864,33.683,5.728,50.524,8.592C164.679,163.484,167.379,153.849,161.031,152.77L161.031,152.77z"/>
	</g>
	<g>
		<path fill="#FFFFFF" d="M161.031,164.77c-16.841-2.864-33.683-5.728-50.524-8.592c-6.306-1.072-9.006,8.563-2.658,9.643
			c16.841,2.864,33.683,5.728,50.524,8.592C164.679,175.484,167.379,165.849,161.031,164.77L161.031,164.77z"/>
	</g>
	<g>
		<path fill="#FFFFFF" d="M162.315,133.045c18,0,36,0,54,0c6.449,0,6.449-10,0-10c-18,0-36,0-54,0
			C155.866,123.045,155.866,133.045,162.315,133.045L162.315,133.045z"/>
	</g>
	<g>
		<path fill="#FFFFFF" d="M162.315,174.795c18,0,36,0,54,0c6.449,0,6.449-10,0-10c-18,0-36,0-54,0
			C155.866,164.795,155.866,174.795,162.315,174.795L162.315,174.795z"/>
	</g>
</g>
<path fill="none" stroke="#FFFFFF" stroke-width="10" stroke-miterlimit="10" d="M266.13,218.797c0,1.86-1.634,3.369-3.648,3.369
	h-13.378c-2.015,0-3.649-1.508-3.649-3.369V125.4c0-1.861,1.634-3.369,3.649-3.369h13.378c2.015,0,3.648,1.508,3.648,3.369V218.797z
	"/>
<path fill="#FFFFFF" stroke="#FFFFFF" stroke-width="10" stroke-miterlimit="10" d="M271.603,246.896c0,2.015-1.28,3.649-2.86,3.649
	h-25.901c-1.58,0-2.86-1.634-2.86-3.649v-21.081c0-2.015,1.281-3.649,2.86-3.649h25.901c1.58,0,2.86,1.634,2.86,3.649V246.896z"/>
<g>
	<path fill="#FFFFFF" d="M274.036,134.329c3.648,0,7.297,0,10.946,0c6.449,0,6.449-10,0-10c-3.648,0-7.297,0-10.946,0
		C267.587,124.329,267.587,134.329,274.036,134.329L274.036,134.329z"/>
</g>
<g>
	<path fill="#FFFFFF" d="M274.036,158.653c3.648,0,7.297,0,10.946,0c6.449,0,6.449-10,0-10c-3.648,0-7.297,0-10.946,0
		C267.587,148.653,267.587,158.653,274.036,158.653L274.036,158.653z"/>
</g>
<g>
	<path fill="#FFFFFF" d="M274.036,183.585c3.648,0,7.297,0,10.946,0c6.449,0,6.449-10,0-10c-3.648,0-7.297,0-10.946,0
		C267.587,173.585,267.587,183.585,274.036,183.585L274.036,183.585z"/>
</g>
<g>
	<path fill="#FFFFFF" d="M274.036,209.734c3.648,0,7.297,0,10.946,0c6.449,0,6.449-10,0-10c-3.648,0-7.297,0-10.946,0
		C267.587,199.734,267.587,209.734,274.036,209.734L274.036,209.734z"/>
</g>
<rect x="245.454" y="188.771" fill="#FFFFFF" stroke="#FFFFFF" stroke-width="10" stroke-miterlimit="10" width="20.676" height="42.922"/>
<path fill="none" stroke="#FFFFFF" stroke-width="10" stroke-miterlimit="10" d="M201.549,286.271c0,2.084-1.689,3.773-3.773,3.773
	H76.088c-2.084,0-3.773-1.689-3.773-3.773V112.456c0-2.083,1.689-3.773,3.773-3.773h121.688c2.083,0,3.773,1.689,3.773,3.773
	V286.271z"/>
<path fill="none" stroke="#FFFFFF" stroke-width="10" stroke-miterlimit="10" d="M164.702,236.611
	c0,19.484-13.012,35.28-29.062,35.28c-16.052,0-32.35-13.601-31.667-33.073c0.41-11.661,7.34-16.117,12.464-24.625
	c5.328-8.848,8.781-27.77,11.562-29.359c0.704-0.402,7.111,8.177,8.546,18.5c2.483,17.843,12.267-6.938,12.87-6.334
	c1.956,1.955,4.721,4.935,6.234,7.34C161.279,213.289,164.702,224.433,164.702,236.611z"/>
<path fill="none" stroke="#FFFFFF" stroke-width="10" stroke-miterlimit="10" d="M150.572,250.295
	c0,11.503-7.682,20.828-17.157,20.828c-9.476,0-19.097-8.03-18.694-19.525c0.242-6.883,4.333-9.515,7.358-14.537
	c3.146-5.224,5.184-16.394,6.826-17.332c0.416-0.237,4.198,4.827,5.045,10.921c1.466,10.534,7.242-4.095,7.598-3.739
	c1.154,1.155,2.786,2.913,3.68,4.333C148.551,236.527,150.572,243.106,150.572,250.295z"/>
<path fill="none" stroke="#FFFFFF" stroke-width="10" stroke-miterlimit="10" d="M161.709,104.683c0,2.209-1.791,4-4,4H91.815
	c-2.209,0-4-1.791-4-4V82.045c0-2.209,1.791-4,4-4h65.894c2.209,0,4,1.791,4,4V104.683z"/>
<g>
	<path fill="#FFFFFF" d="M100.997,98.364c6.788,0,13.575,0,20.362,0c6.449,0,6.449-10,0-10c-6.788,0-13.575,0-20.362,0
		C94.548,88.364,94.548,98.364,100.997,98.364L100.997,98.364z"/>
</g>
<g>
	<path fill="#FFFFFF" d="M145.081,98.364c1.312,0,2.624,0,3.935,0c2.726,0,5-2.274,5-5s-2.274-5-5-5c-1.312,0-2.624,0-3.935,0
		c-2.726,0-5,2.274-5,5S142.355,98.364,145.081,98.364L145.081,98.364z"/>
</g>
</svg>
