<?xml version="1.0" encoding="iso-8859-1"?>
<!-- Generator: Adobe Illustrator 15.0.0, SVG Export Plug-In . SVG Version: 6.00 Build 0)  -->
<!DOCTYPE svg PUBLIC "-//W3C//DTD SVG 1.1 Tiny//EN" "http://www.w3.org/Graphics/SVG/1.1/DTD/svg11-tiny.dtd">
<svg version="1.1" baseProfile="tiny" id="sani_x5F_speicher_x5F_temp_x5F_gesamt"
	 xmlns="http://www.w3.org/2000/svg" xmlns:xlink="http://www.w3.org/1999/xlink" x="0px" y="0px" width="361px" height="361px"
	 viewBox="0 0 361 361" xml:space="preserve">
<path id="Speicher" fill="none" stroke="#FFFFFF" stroke-width="10" stroke-miterlimit="10" d="M177.084,281.383
	c0,2.918-12.255,5.284-27.372,5.284h-46.758c-15.116,0-27.372-2.366-27.372-5.284V79.898c0-2.918,12.256-5.285,27.372-5.285h46.758
	c15.116,0,27.372,2.366,27.372,5.285V281.383z"/>
<g id="WT_unten">
	<g>
		<path fill="#FFFFFF" d="M97.987,217.075c19.596-3.332,39.191-6.664,58.786-9.997c6.348-1.079,3.647-10.715-2.658-9.643
			c-19.596,3.332-39.191,6.664-58.786,9.997C88.981,208.512,91.682,218.147,97.987,217.075L97.987,217.075z"/>
	</g>
	<g>
		<path fill="#FFFFFF" d="M156.773,217.905c-19.595-3.333-39.19-6.665-58.786-9.997c-6.306-1.072-9.006,8.563-2.658,9.643
			c19.595,3.333,39.19,6.665,58.786,9.997C160.421,228.62,163.121,218.984,156.773,217.905L156.773,217.905z"/>
	</g>
	<g>
		<path fill="#FFFFFF" d="M156.773,231.867c-19.595-3.333-39.19-6.665-58.786-9.997c-6.306-1.072-9.006,8.563-2.658,9.643
			c19.595,3.333,39.19,6.665,58.786,9.997C160.421,242.582,163.121,232.947,156.773,231.867L156.773,231.867z"/>
	</g>
	<g>
		<path fill="#FFFFFF" d="M156.773,245.829c-19.595-3.332-39.19-6.664-58.786-9.996c-6.306-1.072-9.006,8.563-2.658,9.643
			c19.595,3.332,39.19,6.664,58.786,9.996C160.421,256.544,163.121,246.908,156.773,245.829L156.773,245.829z"/>
	</g>
	<g>
		<path fill="#FFFFFF" d="M156.773,259.792c-19.595-3.333-39.19-6.665-58.786-9.997c-6.306-1.072-9.006,8.563-2.658,9.643
			c19.595,3.333,39.19,6.665,58.786,9.997C160.421,270.507,163.121,260.872,156.773,259.792L156.773,259.792z"/>
	</g>
	<g>
		<path fill="#FFFFFF" d="M158.484,207.311c13.732,0,27.463,0,41.195,0c6.449,0,6.449-10,0-10c-13.732,0-27.463,0-41.195,0
			C152.036,197.311,152.036,207.311,158.484,207.311L158.484,207.311z"/>
	</g>
	<g>
		<path fill="#FFFFFF" d="M158.484,269.851c13.732,0,27.463,0,41.195,0c6.449,0,6.449-10,0-10c-13.732,0-27.463,0-41.195,0
			C152.036,259.851,152.036,269.851,158.484,269.851L158.484,269.851z"/>
	</g>
</g>
<g id="Thermometer">
	<path fill="none" stroke="#FFFFFF" stroke-width="10" stroke-miterlimit="10" d="M268.648,215.919c0,1.86-1.634,3.369-3.648,3.369
		h-13.378c-2.015,0-3.649-1.508-3.649-3.369v-93.397c0-1.861,1.634-3.369,3.649-3.369H265c2.015,0,3.648,1.508,3.648,3.369V215.919z
		"/>
	<path fill="#FFFFFF" stroke="#FFFFFF" stroke-width="10" stroke-miterlimit="10" d="M274.121,244.018
		c0,2.015-1.28,3.649-2.86,3.649H245.36c-1.58,0-2.86-1.634-2.86-3.649v-21.081c0-2.015,1.281-3.649,2.86-3.649h25.901
		c1.58,0,2.86,1.634,2.86,3.649V244.018z"/>
	<g>
		<path fill="#FFFFFF" d="M276.554,131.451c3.648,0,7.297,0,10.946,0c6.449,0,6.449-10,0-10c-3.648,0-7.297,0-10.946,0
			C270.105,121.451,270.105,131.451,276.554,131.451L276.554,131.451z"/>
	</g>
	<g>
		<path fill="#FFFFFF" d="M276.554,155.775c3.648,0,7.297,0,10.946,0c6.449,0,6.449-10,0-10c-3.648,0-7.297,0-10.946,0
			C270.105,145.775,270.105,155.775,276.554,155.775L276.554,155.775z"/>
	</g>
	<g>
		<path fill="#FFFFFF" d="M276.554,180.708c3.648,0,7.297,0,10.946,0c6.449,0,6.449-10,0-10c-3.648,0-7.297,0-10.946,0
			C270.105,170.708,270.105,180.708,276.554,180.708L276.554,180.708z"/>
	</g>
	<g>
		<path fill="#FFFFFF" d="M276.554,206.856c3.648,0,7.297,0,10.946,0c6.449,0,6.449-10,0-10c-3.648,0-7.297,0-10.946,0
			C270.105,196.856,270.105,206.856,276.554,206.856L276.554,206.856z"/>
	</g>
</g>
<rect id="Temperatur" x="247.972" y="185.894" fill="#FFFFFF" stroke="#FFFFFF" stroke-width="10" stroke-miterlimit="10" width="20.676" height="42.922"/>
<g id="WT_oben">
	<g>
		<path fill="#FFFFFF" d="M97.987,120.557c19.596-3.332,39.191-6.664,58.786-9.997c6.348-1.079,3.647-10.715-2.658-9.643
			c-19.596,3.332-39.191,6.664-58.786,9.997C88.981,111.993,91.682,121.629,97.987,120.557L97.987,120.557z"/>
	</g>
	<g>
		<path fill="#FFFFFF" d="M156.773,121.386c-19.595-3.333-39.19-6.665-58.786-9.998c-6.306-1.072-9.006,8.563-2.658,9.643
			c19.595,3.333,39.19,6.665,58.786,9.998C160.421,132.101,163.121,122.465,156.773,121.386L156.773,121.386z"/>
	</g>
	<g>
		<path fill="#FFFFFF" d="M156.773,135.348c-19.595-3.332-39.19-6.664-58.786-9.996c-6.306-1.072-9.006,8.563-2.658,9.643
			c19.595,3.332,39.19,6.664,58.786,9.996C160.421,146.063,163.121,136.427,156.773,135.348L156.773,135.348z"/>
	</g>
	<g>
		<path fill="#FFFFFF" d="M156.773,149.31c-19.595-3.333-39.19-6.665-58.786-9.997c-6.306-1.072-9.006,8.563-2.658,9.643
			c19.595,3.333,39.19,6.665,58.786,9.997C160.421,160.025,163.121,150.389,156.773,149.31L156.773,149.31z"/>
	</g>
	<g>
		<path fill="#FFFFFF" d="M156.773,163.272c-19.595-3.332-39.19-6.664-58.786-9.996c-6.306-1.072-9.006,8.563-2.658,9.643
			c19.595,3.332,39.19,6.664,58.786,9.996C160.421,173.987,163.121,164.351,156.773,163.272L156.773,163.272z"/>
	</g>
	<g>
		<path fill="#FFFFFF" d="M158.484,110.792c13.732,0,27.463,0,41.195,0c6.449,0,6.449-10,0-10c-13.732,0-27.463,0-41.195,0
			C152.036,100.792,152.036,110.792,158.484,110.792L158.484,110.792z"/>
	</g>
	<g>
		<path fill="#FFFFFF" d="M158.484,173.332c13.732,0,27.463,0,41.195,0c6.449,0,6.449-10,0-10c-13.732,0-27.463,0-41.195,0
			C152.036,163.332,152.036,173.332,158.484,173.332L158.484,173.332z"/>
	</g>
</g>
</svg>
