<?xml version="1.0" encoding="iso-8859-1"?>
<!-- Generator: Adobe Illustrator 16.0.0, SVG Export Plug-In . SVG Version: 6.00 Build 0)  -->
<!DOCTYPE svg PUBLIC "-//W3C//DTD SVG 1.1//EN" "http://www.w3.org/Graphics/SVG/1.1/DTD/svg11.dtd">
<svg version="1.1" xmlns="http://www.w3.org/2000/svg" xmlns:xlink="http://www.w3.org/1999/xlink" x="0px" y="0px" width="361px"
	 height="361px" viewBox="0 0 361 361" style="enable-background:new 0 0 361 361;" xml:space="preserve">
<g id="sani_x5F_water_x5F_cold">
	<g>
		<g>
			<g>
				<path style="fill:#FFFFFF;" d="M105.625,138.279c1.048,5.987,6.926,6.448,11.827,6.448c6.118,0,12.235,0,18.353,0
					c14.374,0,28.749,0,43.123,0c4.26,0,11.16,0.092,12.124-5.417c1.146-6.549-0.081-14.251-8.413-14.251
					c-11.734,0-23.468,0-35.202,0c-9.668,0-19.336,0-29.005,0c-1.991,0-4.719-0.364-6.654,0.264c-6.168,2-6.277,6.456-6.277,12.026
					c0,4.514,7,4.514,7,0c0-1.988-0.946-5.29,1.847-5.29c1.538,0,3.076,0,4.613,0c6.558,0,13.115,0,19.673,0
					c13.879,0,27.758,0,41.637,0c0.846,0,1.69,0,2.535,0c2.521,0,2.465,5.669-0.462,5.669c-4.467,0-8.934,0-13.401,0
					c-15.2,0-30.399,0-45.598,0c-1.335,0-10.523,1.239-10.969-1.31C111.597,131.978,104.852,133.866,105.625,138.279z"/>
			</g>
		</g>
		<g>
			<g>
				<path style="fill:#FFFFFF;" d="M126.198,141.554c0,4.467,0,8.935,0,13.402c0,4.514,7,4.514,7,0c0-4.467,0-8.935,0-13.402
					C133.198,137.04,126.198,137.04,126.198,141.554L126.198,141.554z"/>
			</g>
		</g>
		<g>
			<g>
				<path style="fill:#FFFFFF;" d="M115.87,142.076c0,4.487,0,8.974,0,13.461c0,4.514,7,4.514,7,0c0-4.487,0-8.974,0-13.461
					C122.87,137.562,115.87,137.562,115.87,142.076L115.87,142.076z"/>
			</g>
		</g>
		<g>
			<g>
				<path style="fill:#FFFFFF;" d="M201.835,188.984c0,7.491,0,14.982,0,22.474c0,3.381,0,6.761,0,10.142
					c0,1.092,1.225,0.045-0.162,0.045c-1.926,0-3.851,0-5.776,0c-4.351,0-8.701,0-13.053,0c-1.866,0-0.641,0.585-0.641,0.152
					c0-1.441,0-2.883,0-4.324c0-7.707,0-15.413,0-23.12c0-2.726-2.274-5-5-5c-9.177,0-18.355,0-27.532,0c-2.726,0-5,2.274-5,5
					c0,0.814,0,1.63,0,2.444c0,0.789,2.14,0.08,0.902,0.08c-1.356,0-2.712,0-4.069,0c-5.564,0-11.129,0-16.693,0
					c-5.343,0-10.687,0-16.03,0c-1.49,0-2.981,0-4.471,0c-1.596,0,0.608-0.062,0.641,0.204c-0.107-0.883,0-1.838,0-2.729
					c0-2.726-2.274-5-5-5c-5.456,0-10.911,0-16.366,0c-0.606,0-4.242,0.393-4.242-0.329c0-2.72,0-5.439,0-8.159
					c0-2.939,0-5.879,0-8.818c0-1.301,2.424-0.663,3.457-0.663c5.73,0,11.46,0,17.191,0c0-3.333,0-6.667,0-10
					c-0.013,0-0.026,0-0.04,0.001c1.667,1.667,3.333,3.333,5,5c0-1.115,0-2.229,0-3.344c0-1.785,0.31-1.344-1.256-1.344
					c1.266,0,2.532,0,3.798,0c5.773,0,11.546,0,17.319,0c5.773,0,11.546,0,17.319,0c1.266,0,2.532,0,3.798,0
					c-1.567,0-1.257-0.442-1.257,1.344c0,1.115,0,2.229,0,3.344c0,2.679,2.274,5.061,5,5c12.955-0.291,25.948-0.001,38.906-0.001
					c0.805,0,13.208-0.324,13.258,0.05c0.771,5.743,0,12.067,0,17.87c0,6.448,10,6.448,10,0c0-3.144,0-6.287,0-9.431
					c0-3.083,0.898-8.13-0.359-11.11c-3.483-8.255-10.587-7.378-18.013-7.378c-14.585,0-29.21-0.327-43.792,0.001
					c1.667,1.667,3.333,3.333,5,5c0-6.888-0.972-14.688-9.67-14.688c-6.73,0-13.459,0-20.189,0c-6.608,0-13.217,0-19.826,0
					c-8.85,0-10.035,7.483-10.035,14.688c0,2.675,2.274,5.067,5,5c0.013,0,0.026,0,0.04-0.001c6.436-0.159,6.458-10,0-10
					c-6.686,0-13.371,0-20.057,0c-11.02,0-10.591,10.576-10.591,18.488c0,7.818-0.948,19.481,10.295,19.481
					c6.771,0,13.542,0,20.313,0c-1.667-1.667-3.333-3.333-5-5c0,7.098,2.79,12.524,10.447,12.524c6.471,0,12.942,0,19.414,0
					c6.472,0,12.943,0,19.414,0c7.657,0,10.446-5.427,10.446-12.524c-1.667,1.667-3.333,3.333-5,5c9.177,0,18.355,0,27.532,0
					c-1.667-1.667-3.333-3.333-5-5c0,8.92,0,17.84,0,26.761c0,13.146,14.753,10.531,23.693,10.531c4.911,0,9.157,0.518,13.228-2.766
					c3.423-2.761,2.711-8.357,2.711-12.245c0-9.216,0-18.433,0-27.649C211.835,182.536,201.835,182.536,201.835,188.984
					L201.835,188.984z"/>
			</g>
		</g>
	</g>
	<path style="fill:none;stroke:#FFFFFF;stroke-width:10;stroke-miterlimit:10;" d="M268.648,215.92c0,1.859-1.634,3.368-3.648,3.368
		h-13.379c-2.014,0-3.648-1.509-3.648-3.368v-93.397c0-1.861,1.635-3.369,3.648-3.369H265c2.015,0,3.648,1.508,3.648,3.369V215.92z"
		/>
	<path style="fill:#FFFFFF;stroke:#FFFFFF;stroke-width:10;stroke-miterlimit:10;" d="M274.121,244.018
		c0,2.016-1.28,3.649-2.859,3.649H245.36c-1.579,0-2.86-1.634-2.86-3.649v-21.08c0-2.015,1.281-3.648,2.86-3.648h25.901
		c1.579,0,2.859,1.634,2.859,3.648V244.018z"/>
	<g>
		<g>
			<path style="fill:#FFFFFF;" d="M276.555,131.451c3.648,0,7.297,0,10.945,0c6.448,0,6.448-10,0-10c-3.648,0-7.297,0-10.945,0
				C270.106,121.451,270.106,131.451,276.555,131.451L276.555,131.451z"/>
		</g>
	</g>
	<g>
		<g>
			<path style="fill:#FFFFFF;" d="M276.555,155.775c3.648,0,7.297,0,10.945,0c6.448,0,6.448-10,0-10c-3.648,0-7.297,0-10.945,0
				C270.106,145.775,270.106,155.775,276.555,155.775L276.555,155.775z"/>
		</g>
	</g>
	<g>
		<g>
			<path style="fill:#FFFFFF;" d="M276.555,180.708c3.648,0,7.297,0,10.945,0c6.448,0,6.448-10,0-10c-3.648,0-7.297,0-10.945,0
				C270.106,170.708,270.106,180.708,276.555,180.708L276.555,180.708z"/>
		</g>
	</g>
	<g>
		<g>
			<path style="fill:#FFFFFF;" d="M276.555,206.855c3.648,0,7.297,0,10.945,0c6.448,0,6.448-10,0-10c-3.648,0-7.297,0-10.945,0
				C270.106,196.855,270.106,206.855,276.555,206.855L276.555,206.855z"/>
		</g>
	</g>
	
		<rect x="247.973" y="198.417" style="fill:#FFFFFF;stroke:#FFFFFF;stroke-width:10;stroke-miterlimit:10;" width="20.676" height="30.398"/>
</g>
<g id="Ebene_1">
</g>
</svg>
