<?xml version="1.0" encoding="iso-8859-1"?>
<!-- Generator: Adobe Illustrator 15.0.0, SVG Export Plug-In . SVG Version: 6.00 Build 0)  -->
<!DOCTYPE svg PUBLIC "-//W3C//DTD SVG 1.1 Tiny//EN" "http://www.w3.org/Graphics/SVG/1.1/DTD/svg11-tiny.dtd">
<svg version="1.1" baseProfile="tiny" id="sani_x5F_pumpe"
	 xmlns="http://www.w3.org/2000/svg" xmlns:xlink="http://www.w3.org/1999/xlink" x="0px" y="0px" width="361px" height="361px"
	 viewBox="0 0 361 361" xml:space="preserve">
<g id="Pumpe">
	<circle fill="none" stroke="#FFFFFF" stroke-width="10" stroke-miterlimit="10" cx="217.956" cy="169.014" r="69.333"/>
	<path fill="#FFFFFF" d="M242.953,97.48c0,4.168-3.379,7.546-7.546,7.546H200.19c-4.168,0-7.547-3.378-7.547-7.546V81.13
		c0-4.167,3.379-7.546,7.547-7.546h35.216c4.167,0,7.546,3.379,7.546,7.546V97.48z"/>
	<path fill="#FFFFFF" d="M242.953,258.47c0,4.168-3.379,7.546-7.546,7.546H200.19c-4.168,0-7.547-3.378-7.547-7.546v-16.351
		c0-4.167,3.379-7.546,7.547-7.546h35.216c4.167,0,7.546,3.379,7.546,7.546V258.47z"/>
	<path fill="#FFFFFF" d="M248.816,270.464c0,4.547-2.477,8.235-5.529,8.235h-51.297c-3.054,0-5.529-3.688-5.529-8.235v-2.288
		c0-4.548,2.476-8.235,5.529-8.235h51.297c3.053,0,5.529,3.687,5.529,8.235V270.464z"/>
	<path fill="none" stroke="#FFFFFF" stroke-width="10" stroke-miterlimit="10" d="M209.938,238.032H98.74
		c-4.219,0-7.64-3.42-7.64-7.64V108.16c0-4.22,3.42-7.64,7.64-7.64h111.198"/>
	<g>
		<path fill="#FFFFFF" d="M72.247,100.311c0,45.753,0,91.506,0,137.259c0,0.154,0,0.308,0,0.462c0,6.449,10,6.449,10,0
			c0-45.753,0-91.506,0-137.259c0-0.154,0-0.308,0-0.462C82.247,93.862,72.247,93.862,72.247,100.311L72.247,100.311z"/>
	</g>
</g>
<g id="Pfeil">
	<g>
		<path fill="#FFFFFF" d="M178.167,165.334c0.317-15.703,12.631-28.016,28.333-28.333c6.44-0.13,6.452-10.13,0-10
			c-21.189,0.428-37.905,17.144-38.333,38.333C168.036,171.786,178.037,171.774,178.167,165.334L178.167,165.334z"/>
	</g>
	<g>
		<path fill="#FFFFFF" d="M199.631,120.869c4.889,4.889,9.778,9.778,14.667,14.667c4.563,4.563,11.635-2.507,7.071-7.071
			c-4.889-4.889-9.778-9.778-14.667-14.667C202.139,109.234,195.067,116.305,199.631,120.869L199.631,120.869z"/>
	</g>
	<g>
		<path fill="#FFFFFF" d="M206.702,150.536c4.889-4.889,9.777-9.778,14.667-14.667c4.563-4.564-2.508-11.635-7.071-7.071
			c-4.889,4.889-9.777,9.778-14.667,14.667C195.067,148.029,202.139,155.1,206.702,150.536L206.702,150.536z"/>
	</g>
</g>
</svg>
