<?xml version="1.0" encoding="iso-8859-1"?>
<!-- Generator: Adobe Illustrator 16.0.0, SVG Export Plug-In . SVG Version: 6.00 Build 0)  -->
<!DOCTYPE svg PUBLIC "-//W3C//DTD SVG 1.1//EN" "http://www.w3.org/Graphics/SVG/1.1/DTD/svg11.dtd">
<svg version="1.1" xmlns="http://www.w3.org/2000/svg" xmlns:xlink="http://www.w3.org/1999/xlink" x="0px" y="0px" width="361px"
	 height="361px" viewBox="0 0 361 361" style="enable-background:new 0 0 361 361;" xml:space="preserve">
<g id="sani_x5F_water_x5F_softening_x5F_unit">
	<g>
		<g>
			<path style="fill:#FFFFFF;" d="M190.905,280.867c-0.242,2.105-22.325,0.8-24.181,0.8c-15.946,0-31.892,0-47.838,0
				c-11.744,0-23.489,0-35.233,0c-1.57,0-3.369,0.42-3.369-1.651c0-3.387,0-6.774,0-10.161c0-29.788,0-59.577,0-89.365
				c0-7.414,0-14.829,0-22.243c0-1.719,22.532-0.799,24.181-0.799c27.69,0,55.381,0,83.071,0c1.569,0,3.369-0.42,3.369,1.651
				c0,3.387,0,6.774,0,10.162c0,14.107,0,28.213,0,42.32C190.905,234.676,190.905,257.771,190.905,280.867c0,6.448,10,6.448,10,0
				c0-23.096,0-46.191,0-69.287c0-14.106,0-28.213,0-42.32c0-8.402,1.561-21.813-10.908-21.813c-24.961,0-49.923,0-74.885,0
				c-10.875,0-21.749,0-32.623,0c-6.311,0-12.205,3.883-12.205,10.81c0,2.214,0,4.428,0,6.643c0,29.032,0,58.064,0,87.097
				c0,9.398,0,18.797,0,28.195c0,12.087,11.294,11.475,19.821,11.475c21.991,0,43.981,0,65.972,0c9.236,0,18.472,0,27.708,0
				c1.965,0,3.93,0,5.895,0c6.53,0,10.519-4.657,11.227-10.8C201.643,274.468,191.634,274.538,190.905,280.867z"/>
		</g>
	</g>
	<g id="WT_1_" style="display:none;">
		<g style="display:inline;">
			<path style="fill:#FFFFFF;" d="M211.051,246.198c0-20.657,0-41.314,0-61.972c0-0.504-0.28-1.061-0.743-1.295
				c-4.953-2.514-9.906-5.027-14.859-7.54c-3.127-1.586-6.253-3.172-9.379-4.759c-1.176-0.596-3.084-2.099-4.491-2.099
				c-1.232,0-2.866,1.275-3.894,1.796c-3.325,1.687-6.65,3.375-9.976,5.062c-4.953,2.513-9.906,5.026-14.859,7.54
				c-0.463,0.234-0.743,0.791-0.743,1.295c0,20.657,0,41.314,0,61.972c0,0.504,0.28,1.061,0.743,1.295
				c4.953,2.514,9.906,5.026,14.859,7.54c3.126,1.586,6.252,3.172,9.378,4.758c1.175,0.597,3.083,2.1,4.491,2.1
				c1.231,0,2.866-1.275,3.894-1.796c3.325-1.688,6.65-3.375,9.977-5.062c4.953-2.514,9.906-5.026,14.859-7.54
				c1.726-0.875,0.207-3.463-1.514-2.59c-4.953,2.513-9.907,5.026-14.86,7.539c-3.126,1.586-6.252,3.173-9.379,4.759
				c-0.962,0.488-1.924,0.977-2.887,1.464c-1.683,0.854,0.776,0.485,0.354,0.271c-5.712-2.897-11.424-5.796-17.136-8.694
				c-2.816-1.429-5.633-2.857-8.45-4.287c-0.644-0.326-1.287-0.652-1.93-0.979c0.462,0.235,0.601,1.97,0.601,0.483
				c0-13.203,0-26.406,0-39.609c0-6.265,0-12.528,0-18.793c0-0.696,0-1.393,0-2.089c0-1.412,0.203,0.075-0.707,0.537
				c1.905-0.967,3.81-1.934,5.715-2.9c5.726-2.905,11.451-5.81,17.177-8.715c1.634-0.829,3.268-1.658,4.902-2.487
				c-0.079,0.041-2.051-0.417-0.822,0.208c0.862,0.437,1.725,0.875,2.586,1.312c5.599,2.84,11.197,5.681,16.796,8.522
				c2.279,1.156,4.56,2.313,6.839,3.47c2.112,1.072,0.459-1.347,0.459,0.055c0,20.411,0,40.821,0,61.231
				C208.051,248.133,211.051,248.133,211.051,246.198z"/>
		</g>
	</g>
	<g>
		<g>
			<path style="fill:#FFFFFF;" d="M182.754,147.448c-31.177,0-62.353,0-93.53,0c1.439,2.508,2.878,5.016,4.317,7.523
				c3.072-6.536,6.145-13.072,9.217-19.608c-1.439,0.826-2.878,1.651-4.317,2.477c25.031,0,50.063,0,75.094,0
				c-1.439-0.826-2.878-1.651-4.317-2.477c3.073,6.536,6.146,13.072,9.219,19.608c2.742,5.833,11.361,0.753,8.635-5.047
				c-3.073-6.536-6.146-13.072-9.219-19.608c-0.73-1.553-2.679-2.477-4.317-2.477c-25.031,0-50.063,0-75.094,0
				c-1.639,0-3.587,0.924-4.317,2.477c-3.072,6.536-6.145,13.072-9.217,19.608c-1.57,3.34,0.271,7.523,4.317,7.523
				c31.177,0,62.353,0,93.53,0C189.202,157.448,189.202,147.448,182.754,147.448z"/>
		</g>
	</g>
	<g>
		<g>
			<path style="fill:#FFFFFF;" d="M71.167,101.502c48.012,0,96.025,0,144.038,0c25.099,0,50.197,0,75.296,0c1.935,0,1.935-3,0-3
				c-48.013,0-96.025,0-144.037,0c-25.099,0-50.198,0-75.296,0C69.232,98.502,69.232,101.502,71.167,101.502L71.167,101.502z"/>
		</g>
	</g>
	<g>
		<g>
			<path style="fill:#FFFFFF;" d="M71.167,112.836c48.012,0,96.025,0,144.038,0c25.099,0,50.197,0,75.296,0c1.935,0,1.935-3,0-3
				c-48.013,0-96.025,0-144.037,0c-25.099,0-50.198,0-75.296,0C69.232,109.836,69.232,112.836,71.167,112.836L71.167,112.836z"/>
		</g>
	</g>
	<g>
		<g>
			<path style="fill:#FFFFFF;" d="M206.591,109.633c0,2.366-1.918,4.284-4.284,4.284h-33.023c-2.366,0-4.284-1.918-4.284-4.284
				v-7.616c0-2.366,1.918-4.284,4.284-4.284h33.023c2.366,0,4.284,1.918,4.284,4.284V109.633z"/>
		</g>
		<g>
			<g>
				<g>
					<path style="fill:#FFFFFF;" d="M171.264,100.126c3.236,3.236,6.473,6.473,9.709,9.709c2.886,2.886,7.748,2.839,10.608-0.057
						c2.881-2.918,2.834-7.716-0.058-10.608c-3.236-3.236-6.472-6.473-9.708-9.709c-2.886-2.886-7.749-2.839-10.608,0.057
						C168.326,92.436,168.372,97.234,171.264,100.126L171.264,100.126z"/>
				</g>
			</g>
			<g>
				<g>
					<g>
						<path style="fill:#FFFFFF;" d="M154.337,85.516c4.308-4.308,8.616-8.615,12.923-12.923c1.369-1.369-0.752-3.49-2.121-2.121
							c-4.308,4.308-8.616,8.615-12.923,12.923C150.847,84.764,152.968,86.885,154.337,85.516L154.337,85.516z"/>
					</g>
				</g>
				<g>
					<g>
						<path style="fill:#FFFFFF;" d="M158.854,82.06c4.567,4.566,9.134,9.133,13.7,13.7c3.195,3.194,8.145-1.755,4.95-4.95
							c-4.567-4.566-9.134-9.133-13.7-13.7C160.61,73.915,155.66,78.865,158.854,82.06L158.854,82.06z"/>
					</g>
				</g>
			</g>
		</g>
	</g>
	<g>
		<g>
			<g>
				<path style="fill:#FFFFFF;" d="M230.516,72.875c6.092,0,12.185,0,18.276,0c1.935,0,1.935-3,0-3c-6.092,0-12.185,0-18.276,0
					C228.581,69.875,228.581,72.875,230.516,72.875L230.516,72.875z"/>
			</g>
		</g>
		<g>
			<g>
				<path style="fill:#FFFFFF;" d="M232.152,95.446c0,0.75,0,1.5,0,2.25c0,4.086,3.342,7.529,7.448,7.556
					c4.065,0.027,7.556-3.361,7.556-7.447c0-0.75,0-1.5,0-2.25c0-4.086-3.342-7.529-7.448-7.556
					C235.643,87.972,232.152,91.36,232.152,95.446L232.152,95.446z"/>
			</g>
		</g>
		<g>
			<g>
				<path style="fill:#FFFFFF;" d="M236.154,73.625c0,6.458,0,12.917,0,19.375c0,4.514,7,4.514,7,0c0-6.458,0-12.917,0-19.375
					C243.154,69.111,236.154,69.111,236.154,73.625L236.154,73.625z"/>
			</g>
		</g>
		<g>
			<path style="fill:#FFFFFF;" d="M250.949,109.633c0,2.366-1.918,4.284-4.284,4.284h-14.022c-2.366,0-4.285-1.918-4.285-4.284
				v-7.616c0-2.366,1.919-4.284,4.285-4.284h14.022c2.366,0,4.284,1.918,4.284,4.284V109.633z"/>
		</g>
	</g>
	<g>
		<g>
			<g>
				<path style="fill:#FFFFFF;" d="M267.016,72.875c6.092,0,12.185,0,18.276,0c1.935,0,1.935-3,0-3c-6.092,0-12.185,0-18.276,0
					C265.081,69.875,265.081,72.875,267.016,72.875L267.016,72.875z"/>
			</g>
		</g>
		<g>
			<g>
				<path style="fill:#FFFFFF;" d="M268.652,95.446c0,0.75,0,1.5,0,2.25c0,4.086,3.342,7.529,7.448,7.556
					c4.065,0.027,7.556-3.361,7.556-7.447c0-0.75,0-1.5,0-2.25c0-4.086-3.342-7.529-7.448-7.556
					C272.143,87.972,268.652,91.36,268.652,95.446L268.652,95.446z"/>
			</g>
		</g>
		<g>
			<g>
				<path style="fill:#FFFFFF;" d="M272.654,73.625c0,6.458,0,12.917,0,19.375c0,4.514,7,4.514,7,0c0-6.458,0-12.917,0-19.375
					C279.654,69.111,272.654,69.111,272.654,73.625L272.654,73.625z"/>
			</g>
		</g>
		<g>
			<path style="fill:#FFFFFF;" d="M287.449,109.633c0,2.366-1.918,4.284-4.284,4.284h-14.022c-2.366,0-4.285-1.918-4.285-4.284
				v-7.616c0-2.366,1.919-4.284,4.285-4.284h14.022c2.366,0,4.284,1.918,4.284,4.284V109.633z"/>
		</g>
	</g>
	<g>
		<path style="fill:#FFFFFF;" d="M266.541,109.633c0,2.366-1.918,4.284-4.285,4.284h-8.022c-2.366,0-4.284-1.918-4.284-4.284v-7.616
			c0-2.366,1.918-4.284,4.284-4.284h8.022c2.367,0,4.285,1.918,4.285,4.284V109.633z"/>
	</g>
	<g>
		<g>
			<g>
				<path style="fill:#FFFFFF;" d="M235.5,113.662c-0.093,23.685-3.271,47.69-11.886,69.867
					c-4.581,11.791-13.715,31.121-28.709,31.467c-1.932,0.045-1.936,3.045,0,3c15.262-0.353,24.604-17.558,29.932-29.642
					c10.235-23.214,13.564-49.525,13.663-74.692C238.508,111.727,235.508,111.728,235.5,113.662L235.5,113.662z"/>
			</g>
		</g>
		<g>
			<g>
				<path style="fill:#FFFFFF;" d="M240.333,110.662c-0.083,26.404-3.043,53.76-13.493,78.256
					c-5.744,13.468-16.277,30.975-32.882,31.248c-1.933,0.032-1.936,3.032,0,3c17.05-0.28,28.025-16.677,34.485-30.521
					c11.773-25.23,14.803-54.468,14.89-81.983C243.339,108.727,240.339,108.728,240.333,110.662L240.333,110.662z"/>
			</g>
		</g>
	</g>
	<g>
		<g>
			<g>
				<path style="fill:#FFFFFF;" d="M272.583,112.167c-0.131,28.412-6.665,57.218-22.249,81.26
					c-12.346,19.048-31.924,34.501-55.429,34.74c-1.934,0.02-1.936,3.02,0,3c23.861-0.243,43.346-15.197,56.563-34.064
					c17.142-24.469,23.979-55.452,24.115-84.936C275.592,110.232,272.592,110.233,272.583,112.167L272.583,112.167z"/>
			</g>
		</g>
		<g>
			<g>
				<path style="fill:#FFFFFF;" d="M277.583,110.662c-0.122,30.072-6.59,60.814-23.21,86.26
					c-13.33,20.408-34.439,35.771-59.468,35.99c-1.934,0.017-1.936,3.017,0,3c61.752-0.543,85.473-74.657,85.678-125.25
					C280.591,108.727,277.591,108.728,277.583,110.662L277.583,110.662z"/>
			</g>
		</g>
	</g>
	<path style="fill:#FFFFFF;" d="M107.66,236.667c-2.145-3.808-4.464-7.567-6.96-11.28c-2.496-3.711-5.153-7.215-7.968-10.512v21.792
		h-7.392v-33.265h6.096c1.056,1.057,2.224,2.353,3.504,3.889c1.28,1.536,2.584,3.176,3.912,4.92c1.328,1.744,2.647,3.553,3.96,5.424
		c1.312,1.872,2.544,3.672,3.696,5.4v-19.633h7.44v33.265H107.66z"/>
	<path style="fill:#FFFFFF;" d="M129.219,210.747c2.112,0,3.872,0.239,5.28,0.72c1.408,0.48,2.536,1.168,3.384,2.064
		c0.847,0.896,1.447,1.984,1.8,3.264c0.352,1.28,0.528,2.705,0.528,4.271v14.881c-1.024,0.225-2.448,0.488-4.272,0.791
		c-1.824,0.305-4.032,0.457-6.624,0.457c-1.632,0-3.112-0.145-4.44-0.432c-1.328-0.289-2.472-0.76-3.432-1.416
		c-0.96-0.656-1.696-1.513-2.208-2.568c-0.513-1.057-0.768-2.353-0.768-3.889c0-1.471,0.295-2.719,0.888-3.744
		c0.592-1.023,1.384-1.84,2.376-2.447c0.992-0.607,2.128-1.048,3.408-1.32c1.279-0.271,2.608-0.408,3.984-0.408
		c0.928,0,1.752,0.041,2.472,0.12c0.72,0.081,1.303,0.185,1.752,0.312v-0.672c0-1.215-0.368-2.191-1.104-2.928
		c-0.736-0.735-2.016-1.104-3.84-1.104c-1.217,0-2.417,0.088-3.6,0.264c-1.185,0.176-2.208,0.425-3.072,0.744l-0.912-5.76
		c0.415-0.128,0.936-0.264,1.56-0.408s1.304-0.271,2.04-0.385c0.736-0.111,1.512-0.207,2.328-0.287S128.387,210.747,129.219,210.747
		z M129.795,231.675c0.704,0,1.375-0.016,2.016-0.048c0.64-0.031,1.152-0.08,1.536-0.145v-5.424
		c-0.288-0.063-0.72-0.127-1.296-0.191c-0.576-0.064-1.104-0.096-1.584-0.096c-0.672,0-1.304,0.04-1.896,0.119
		c-0.593,0.08-1.112,0.232-1.56,0.457c-0.449,0.224-0.8,0.527-1.056,0.911c-0.256,0.384-0.384,0.864-0.384,1.44
		c0,1.12,0.375,1.896,1.128,2.328C127.451,231.459,128.482,231.675,129.795,231.675z"/>
	<path style="fill:#FFFFFF;" d="M161.339,237.339c-5.408,0-9.528-1.503-12.36-4.512c-2.832-3.008-4.248-7.28-4.248-12.815
		c0-2.752,0.432-5.209,1.296-7.369c0.864-2.16,2.048-3.983,3.552-5.472c1.504-1.487,3.295-2.616,5.376-3.384
		c2.08-0.768,4.336-1.152,6.768-1.152c1.408,0,2.688,0.104,3.84,0.313s2.16,0.448,3.024,0.72c0.864,0.272,1.584,0.552,2.16,0.84
		s0.992,0.513,1.248,0.673l-2.16,6.047c-1.024-0.543-2.216-1.008-3.576-1.392c-1.361-0.384-2.904-0.576-4.632-0.576
		c-1.152,0-2.28,0.192-3.384,0.576s-2.081,1.001-2.928,1.849c-0.848,0.848-1.528,1.943-2.04,3.287
		c-0.512,1.344-0.768,2.977-0.768,4.896c0,1.535,0.168,2.969,0.504,4.296c0.336,1.328,0.879,2.472,1.632,3.433
		c0.751,0.959,1.735,1.72,2.952,2.279c1.216,0.561,2.688,0.84,4.416,0.84c1.087,0,2.064-0.063,2.928-0.191
		c0.864-0.128,1.632-0.28,2.304-0.457c0.672-0.175,1.264-0.375,1.776-0.6c0.512-0.223,0.976-0.432,1.392-0.624l2.064,6
		c-1.056,0.641-2.544,1.217-4.464,1.728C166.091,237.082,163.867,237.339,161.339,237.339z"/>
	<path style="fill:#FFFFFF;" d="M185.875,237.146c-2.081-0.031-3.769-0.256-5.064-0.672c-1.296-0.415-2.32-1-3.072-1.752
		c-0.752-0.751-1.265-1.663-1.536-2.736c-0.272-1.071-0.408-2.279-0.408-3.623V200.57l7.153-1.151v27.504
		c0,0.641,0.047,1.217,0.143,1.728c0.097,0.513,0.28,0.945,0.553,1.297c0.271,0.352,0.664,0.641,1.176,0.863
		c0.512,0.225,1.2,0.369,2.064,0.433L185.875,237.146z"/>
</g>
<g id="Ebene_1">
</g>
</svg>
