<?xml version="1.0" encoding="iso-8859-1"?>
<!-- Generator: Adobe Illustrator 16.0.0, SVG Export Plug-In . SVG Version: 6.00 Build 0)  -->
<!DOCTYPE svg PUBLIC "-//W3C//DTD SVG 1.1//EN" "http://www.w3.org/Graphics/SVG/1.1/DTD/svg11.dtd">
<svg version="1.1" xmlns="http://www.w3.org/2000/svg" xmlns:xlink="http://www.w3.org/1999/xlink" x="0px" y="0px" width="361px"
	 height="361px" viewBox="0 0 361 361" style="enable-background:new 0 0 361 361;" xml:space="preserve">
<g id="sani_x5F_pool_x5F_filter_x5F_pump">
	<g>
		<path style="fill:#FFFFFF;" d="M192.688,220.867c0-1.569,1.16-2.842,2.591-2.842h12.094c1.432,0,2.592,1.272,2.592,2.842v6.157
			c0,1.569-1.16,2.842-2.592,2.842h-12.094c-1.431,0-2.591-1.272-2.591-2.842V220.867z"/>
		<path style="fill:#FFFFFF;" d="M190.676,216.352c0-1.713,0.85-3.101,1.898-3.101h17.615c1.049,0,1.898,1.388,1.898,3.101v0.861
			c0,1.713-0.85,3.101-1.898,3.101h-17.615c-1.049,0-1.898-1.388-1.898-3.101V216.352z"/>
		<path style="fill:#FFFFFF;" d="M230.906,217.905c0,0.972,0.788,1.76,1.76,1.76h33.787c0.973,0,1.76-0.788,1.76-1.76v-9.587
			c0-0.974-0.787-1.761-1.76-1.761h-33.787c-0.972,0-1.76,0.787-1.76,1.761V217.905z"/>
		<path style="fill:#FFFFFF;" d="M185.605,267.305c0,4.574,3.709,8.284,8.284,8.284h17.665c4.574,0,8.283-3.71,8.283-8.284v-31.652
			c0-4.575-3.709-8.283-8.283-8.283H193.89c-4.575,0-8.284,3.708-8.284,8.283V267.305z"/>
		<path style="fill:#FFFFFF;" d="M213.397,283.379c0,1.917,1.193,3.471,2.665,3.471h4.785c1.473,0,2.665-1.554,2.665-3.471v-62.925
			c0-1.917-1.192-3.471-2.665-3.471h-4.785c-1.472,0-2.665,1.554-2.665,3.471V283.379z"/>
		<g>
			<path style="fill:#FFFFFF;" d="M222.85,268.939c0.26,4.833,4.26,5.441,8.039,5.441c4.053,0,8.107,0,12.16,0
				c11.744,0,8.292,0,20.035,0c4.26,0,8.52,0,12.779,0c3.281,0,6.877,0.246,8.359-3.536c1.16-2.952,0.334-7.472,0.334-10.524
				c0-5.896,0-11.789,0-17.686c0-3.336,0.563-7.264-0.334-10.524c-1.056-3.845-5.287-3.534-8.359-3.534c-10.166,0-11.393,0-21.559,0
				c-9.891,0-13.525,0-23.416,0c-3.779,0-7.779,0.607-8.039,5.439c-0.178,3.293,0,6.645,0,9.941
				C222.85,252.284,222.85,260.613,222.85,268.939c0,4.773-7.402,4.773-7.402,0c0-9.188,0-18.377,0-27.566
				c0-3.676-0.387-7.648,0.598-11.23c1.573-5.723,7.295-8.969,12.922-8.969c19.617,0,24.04,0,43.657,0c2.161,0,4.321,0,6.481,0
				c7.123,0,12.854,5.973,12.854,13.023c0,9.717,0,19.432,0,29.146c0,4.24,0.275,8.164-1.754,12.077
				c-2.378,4.592-7.514,6.36-12.35,6.36c-9.109,0-9.279,0-18.389,0c-10.314,0-14.371,0-24.686,0c-2.131,0-4.264,0-6.395,0
				c-7.298,0-12.561-5.801-12.939-12.842C215.19,264.168,222.594,264.192,222.85,268.939z"/>
			<path style="fill:#FFFFFF;" d="M218.598,237.863c23.202,0,31.207,0,54.41,0c3.341,0,3.341,5.183,0,5.183
				c-23.203,0-31.208,0-54.41,0C215.256,243.046,215.256,237.863,218.598,237.863L218.598,237.863z"/>
			<path style="fill:#FFFFFF;" d="M218.598,245.289c23.202,0,31.207,0,54.41,0c3.341,0,3.341,5.181,0,5.181
				c-23.203,0-31.208,0-54.41,0C215.256,250.47,215.256,245.289,218.598,245.289L218.598,245.289z"/>
			<path style="fill:#FFFFFF;" d="M218.598,252.713c23.202,0,31.207,0,54.41,0c3.341,0,3.341,5.18,0,5.18
				c-23.203,0-31.208,0-54.41,0C215.256,257.893,215.256,252.713,218.598,252.713L218.598,252.713z"/>
			<path style="fill:#FFFFFF;" d="M218.598,260.137c23.202,0,31.207,0,54.41,0c3.341,0,3.341,5.182,0,5.182
				c-23.203,0-31.208,0-54.41,0C215.256,265.318,215.256,260.137,218.598,260.137L218.598,260.137z"/>
			<path style="fill:#FFFFFF;" d="M220.357,230.439c21.67,0,28.143,0,49.813,0c3.341,0,3.341,5.182,0,5.182
				c-21.671,0-28.144,0-49.813,0C217.017,235.621,217.017,230.439,220.357,230.439L220.357,230.439z"/>
			<path style="fill:#FFFFFF;" d="M220.357,267.562c21.67,0,28.143,0,49.813,0c3.341,0,3.341,5.181,0,5.181
				c-21.671,0-28.144,0-49.813,0C217.017,272.742,217.017,267.562,220.357,267.562L220.357,267.562z"/>
		</g>
		<path style="fill:#FFFFFF;" d="M185.367,267.82c-1.583,0-2.865-1.098-2.865-2.451V253.93c0-1.354,1.282-2.451,2.865-2.451h6.207
			c1.582,0,2.863,1.098,2.863,2.451v11.439c0,1.354-1.281,2.451-2.863,2.451H185.367z"/>
		<path style="fill:#FFFFFF;" d="M221.731,289.771c0,1.047,0.849,1.896,1.896,1.896h30.502c1.048,0,1.896-0.849,1.896-1.896v-2.785
			c0-1.048-0.849-1.896-1.896-1.896h-30.502c-1.047,0-1.896,0.849-1.896,1.896V289.771z"/>
		<rect x="221.537" y="277.464" style="fill:#FFFFFF;" width="8.604" height="12.513"/>
	</g>
	<g>
		<g>
			<path style="fill:#FFFFFF;" d="M208.828,217.037c-0.041-26.4-0.834-54.427-9.685-79.589
				c-6.415-18.238-19.132-34.328-39.923-34.616c-9.692-0.135-9.765,14.869-0.108,15.003c14.581,0.202,22.237,13.183,26.673,26.837
				c7.478,23.021,8.002,48.282,8.039,72.257C193.84,226.615,208.843,226.701,208.828,217.037L208.828,217.037z"/>
		</g>
	</g>
	<g>
		<g>
			<g>
				<path style="fill:#FFFFFF;" d="M146.373,140.299c11.656,0.295,21.199,8.993,22.092,20.73c0.21,2.766,0.035,5.605,0.035,8.374
					c0,14.117,0,28.233,0,42.35c0,13.806,0,27.612,0,41.418c0,3.322,0.213,6.783-0.373,10.062
					c-1.862,10.43-11.415,17.989-21.876,17.989c-12.854,0-25.709,0-38.563,0c-7.403,0-13.942-1.105-19.579-6.48
					c-4.876-4.649-6.481-11.005-6.481-17.498c0-27.178,0-54.355,0-81.532c0-4.389,0-8.777,0-13.166
					c0-12.218,10.032-22.247,22.249-22.247C118.042,140.299,132.208,140.299,146.373,140.299c6.449,0,6.449-10,0-10
					c-12.464,0-24.928,0-37.393,0c-6.852,0-13.105,0.462-19.51,3.357c-10.306,4.659-16.328,15.173-17.703,25.995
					c-1.125,8.852-0.14,18.362-0.14,27.249c0,15.906,0,31.813,0,47.719c0,9.025-0.545,18.239,0.14,27.249
					c0.847,11.135,7.864,20.957,17.703,25.996c6.186,3.168,12.771,3.357,19.51,3.357c12.464,0,24.929,0,37.393,0
					c18.922,0,32.127-15.839,32.127-33.979c0-23.447,0-46.895,0-70.343c0-8.047,0-16.095,0-24.143
					c0-17.943-14.394-32.01-32.127-32.458C139.92,130.136,139.937,140.136,146.373,140.299z"/>
			</g>
		</g>
		<g>
			<g>
				<path style="fill:#FFFFFF;" d="M70.833,178.167c35.952,0,71.903,0,107.855,0c1.935,0,1.935-3,0-3c-35.952,0-71.903,0-107.855,0
					C68.898,175.167,68.898,178.167,70.833,178.167L70.833,178.167z"/>
			</g>
		</g>
		<g>
			<g>
				<path style="fill:#FFFFFF;" d="M71.136,246.286c35.952,0,71.904,0,107.855,0c1.935,0,1.935-3,0-3c-35.952,0-71.904,0-107.855,0
					C69.202,243.286,69.202,246.286,71.136,246.286L71.136,246.286z"/>
			</g>
		</g>
		<g>
			<path style="fill:#FFFFFF;" d="M141.881,131.255c0,3.313-2.687,6-6,6h-22.242c-3.313,0-6-2.687-6-6V93c0-3.313,2.687-6,6-6
				h22.242c3.313,0,6,2.687,6,6V131.255z"/>
			<path style="fill:#FFFFFF;" d="M160.333,115.014c0,2.386-1.934,4.32-4.32,4.32h-17.64c-2.386,0-4.32-1.934-4.32-4.32v-9.359
				c0-2.386,1.934-4.32,4.32-4.32h17.64c2.386,0,4.32,1.934,4.32,4.32V115.014z"/>
			<g>
				<g>
					<path style="fill:#FFFFFF;" d="M133.564,85.366c-0.436-5.821-5.68-9.02-10.647-10.975c-9.563-3.764-20.161-4.693-30.353-4.775
						c-4.516-0.036-4.512,6.964,0,7c7.542,0.061,14.999,0.706,22.336,2.514c2.524,0.622,11.395,2.644,11.664,6.236
						C126.899,89.839,133.901,89.872,133.564,85.366L133.564,85.366z"/>
				</g>
			</g>
			<path style="fill:#FFFFFF;" d="M129.025,89.179c0,2.209-1.791,4-4,4h-2c-2.209,0-4-1.791-4-4v-7.625c0-2.209,1.791-4,4-4h2
				c2.209,0,4,1.791,4,4V89.179z"/>
			<path style="fill:#FFFFFF;" d="M117.333,115.014c0,2.386-1.934,4.32-4.32,4.32h-17.64c-2.386,0-4.32-1.934-4.32-4.32v-9.359
				c0-2.386,1.934-4.32,4.32-4.32h17.64c2.386,0,4.32,1.934,4.32,4.32V115.014z"/>
			<path style="fill:#FFFFFF;" d="M147.829,121.744c0,3.778-3.351,6.84-7.484,6.84h-30.562c-4.133,0-7.484-3.062-7.484-6.84V98.924
				c0-3.778,3.351-6.84,7.484-6.84h30.562c4.133,0,7.484,3.062,7.484,6.84V121.744z"/>
		</g>
	</g>
</g>
<g id="Ebene_1">
</g>
</svg>
