<?xml version="1.0" encoding="iso-8859-1"?>
<!-- Generator: Adobe Illustrator 16.0.0, SVG Export Plug-In . SVG Version: 6.00 Build 0)  -->
<!DOCTYPE svg PUBLIC "-//W3C//DTD SVG 1.1 Tiny//EN" "http://www.w3.org/Graphics/SVG/1.1/DTD/svg11-tiny.dtd">
<svg version="1.1" baseProfile="tiny" id="sani_x5F_garden_x5F_pump"
	 xmlns="http://www.w3.org/2000/svg" xmlns:xlink="http://www.w3.org/1999/xlink" x="0px" y="0px" width="361px" height="361px"
	 viewBox="0 0 361 361" xml:space="preserve">
<path fill="#FFFFFF" d="M237.468,140.835c0-2.219-1.64-4.017-3.663-4.017h-17.096c-2.023,0-3.664,1.798-3.664,4.017v8.704
	c0,2.218,1.64,4.017,3.664,4.017h17.096c2.023,0,3.663-1.799,3.663-4.017V140.835z"/>
<path fill="#FFFFFF" d="M240.314,134.45c0-2.42-1.203-4.383-2.685-4.383h-24.902c-1.482,0-2.684,1.963-2.684,4.383v1.218
	c0,2.421,1.202,4.384,2.684,4.384h24.902c1.482,0,2.685-1.963,2.685-4.384V134.45z"/>
<path fill="#FFFFFF" d="M146.172,137.863c0,1.313-1.064,2.377-2.377,2.377H98.149c-1.313,0-2.377-1.064-2.377-2.377v-12.954
	c0-1.313,1.064-2.377,2.377-2.377h45.646c1.313,0,2.377,1.064,2.377,2.377V137.863z"/>
<g>
	<path fill="#FFFFFF" d="M181.212,206.81c-0.352,6.529-5.754,7.349-10.86,7.349c-5.477,0-10.954,0-16.43,0
		c-15.866,0-31.731,0-47.597,0c-5.755,0-11.51,0-17.265,0c-4.431,0-9.29,0.333-11.293-4.775c-1.565-3.99-0.451-10.094-0.451-14.22
		c0-7.964,0-15.927,0-23.891c0-4.507-0.76-9.814,0.451-14.22c1.428-5.193,7.142-4.775,11.293-4.775c13.734,0,27.468,0,41.202,0
		c13.363,0,26.727,0,40.09,0c5.105,0,10.509,0.82,10.86,7.349c0.24,4.449,0,8.977,0,13.43
		C181.212,184.308,181.212,195.559,181.212,206.81c0,6.449,10,6.449,10,0c0-12.414,0-24.828,0-37.242
		c0-4.967,0.522-10.334-0.808-15.173c-2.125-7.73-9.854-12.117-17.457-12.117c-26.504,0-53.008,0-79.512,0c-2.919,0-5.838,0-8.757,0
		c-9.623,0-17.363,8.068-17.363,17.594c0,13.126,0,26.251,0,39.377c0,5.727-0.372,11.029,2.369,16.316
		c3.215,6.204,10.151,8.593,16.685,8.593c12.307,0,24.613,0,36.92,0c13.935,0,27.869,0,41.803,0c2.88,0,5.76,0,8.639,0
		c9.859,0,16.969-7.838,17.481-17.349C191.559,200.363,181.557,200.397,181.212,206.81z"/>
</g>
<path fill="#FFFFFF" d="M279.835,204.599c0,6.18-5.011,11.192-11.191,11.192h-72.172c-6.18,0-11.191-5.012-11.191-11.192v-42.761
	c0-6.181,5.011-11.191,11.191-11.191h72.172c6.181,0,11.191,5.011,11.191,11.191V204.599z"/>
<path fill="#FFFFFF" d="M193.981,226.317c0,2.589-1.612,4.688-3.601,4.688h-6.464c-1.989,0-3.601-2.099-3.601-4.688v-85.011
	c0-2.589,1.612-4.688,3.601-4.688h6.464c1.988,0,3.601,2.099,3.601,4.688V226.317z"/>
<g>
	<path fill="#FFFFFF" d="M186.956,164.827c-31.346,0-62.692,0-94.038,0c-4.514,0-4.514,7,0,7c31.346,0,62.692,0,94.038,0
		C191.47,171.827,191.47,164.827,186.956,164.827L186.956,164.827z"/>
</g>
<g>
	<path fill="#FFFFFF" d="M186.956,174.857c-31.346,0-62.692,0-94.038,0c-4.514,0-4.514,7,0,7c31.346,0,62.692,0,94.038,0
		C191.47,181.857,191.47,174.857,186.956,174.857L186.956,174.857z"/>
</g>
<g>
	<path fill="#FFFFFF" d="M186.956,184.887c-31.346,0-62.692,0-94.038,0c-4.514,0-4.514,7,0,7c31.346,0,62.692,0,94.038,0
		C191.47,191.887,191.47,184.887,186.956,184.887L186.956,184.887z"/>
</g>
<g>
	<path fill="#FFFFFF" d="M186.956,194.917c-31.346,0-62.692,0-94.038,0c-4.514,0-4.514,7,0,7c31.346,0,62.692,0,94.038,0
		C191.47,201.917,191.47,194.917,186.956,194.917L186.956,194.917z"/>
</g>
<g>
	<path fill="#FFFFFF" d="M184.579,154.796c-29.276,0-58.552,0-87.829,0c-4.514,0-4.514,7,0,7c29.276,0,58.552,0,87.829,0
		C189.093,161.796,189.093,154.796,184.579,154.796L184.579,154.796z"/>
</g>
<g>
	<path fill="#FFFFFF" d="M184.579,204.947c-29.276,0-58.552,0-87.829,0c-4.514,0-4.514,7,0,7c29.276,0,58.552,0,87.829,0
		C189.093,211.947,189.093,204.947,184.579,204.947L184.579,204.947z"/>
</g>
<path fill="#FFFFFF" d="M284.989,205.298c2.137,0,3.87-1.483,3.87-3.312v-15.455c0-1.829-1.733-3.313-3.87-3.313h-8.386
	c-2.137,0-3.87,1.483-3.87,3.313v15.455c0,1.829,1.733,3.312,3.87,3.312H284.989z"/>
<path fill="#FFFFFF" d="M182.722,243.407c0,1.415-1.147,2.562-2.562,2.562h-53.284c-1.415,0-2.562-1.147-2.562-2.562v-12.217
	c0-1.415,1.146-2.561,2.562-2.561h53.284c1.415,0,2.562,1.146,2.562,2.561V243.407z"/>
<rect x="171.361" y="218.326" fill="#FFFFFF" width="11.623" height="25.358"/>
</svg>
