<?xml version="1.0" encoding="iso-8859-1"?>
<!-- Generator: Adobe Illustrator 16.0.0, SVG Export Plug-In . SVG Version: 6.00 Build 0)  -->
<!DOCTYPE svg PUBLIC "-//W3C//DTD SVG 1.1//EN" "http://www.w3.org/Graphics/SVG/1.1/DTD/svg11.dtd">
<svg version="1.1" xmlns="http://www.w3.org/2000/svg" xmlns:xlink="http://www.w3.org/1999/xlink" x="0px" y="0px" width="361px"
	 height="361px" viewBox="0 0 361 361" style="enable-background:new 0 0 361 361;" xml:space="preserve">
<g id="sani_x5F_central_x5F_vacuum_x5F_cleaner_x5F_filter">
	<path style="fill:none;stroke:#FFFFFF;stroke-width:10;stroke-linejoin:round;stroke-miterlimit:10;" d="M98.564,219.33
		c0,0,11.903,0.275,26.585,0.275h38.415c14.682,0,26.585-0.275,26.585-0.275V81.912c0-2.835-24.53-7.076-39.211-7.076
		c-11.353,0-1.809,0-13.162,0c-14.682,0-39.211,4.241-39.211,7.076V219.33z"/>
	<g>
		<g>
			<path style="fill:#FFFFFF;" d="M104.976,284.598c1.015,6.291,6.461,6.569,11.494,6.569c6.52,0,13.04,0,19.559,0
				c13.127,0,26.254,0,39.381,0c6.12,0,8.187-4.281,8.63-9.662c0.703-8.55,1.405-17.099,2.104-25.648
				c0.15-1.841,0.301-3.683,0.45-5.524c0.145-1.771,1.771-3.345,2.356-5.078c1.307-3.868,0.804-9.27,1.136-13.324
				c0.487-5.955,2.779-16.949-6.742-16.949c-24.368,0-48.735,0-73.102,0c-3.95,0-7.515-0.418-10.595,2.663
				c-2.2,2.199-1.757,5.33-1.532,8.091c0.386,4.74,0.772,9.48,1.161,14.221c0.132,1.616-0.043,3.752,0.484,5.299
				c0.591,1.731,2.229,3.311,2.375,5.078c0.367,4.463,0.73,8.927,1.094,13.39c0.542,6.648,1.082,13.297,1.622,19.945
				c0.362,4.467,7.365,4.502,7,0c-0.54-6.648-1.08-13.297-1.622-19.945c-0.341-4.196-0.684-8.392-1.028-12.588
				c-0.131-1.601-0.087-3.374-0.937-4.804c-1.407-2.367-1.764-3.639-1.988-6.375c-0.364-4.445-0.727-8.891-1.089-13.337
				c-0.096-1.182-1.126-4.638,0.748-4.638c4.247,0,8.493,0,12.739,0c15.496,0,30.992,0,46.488,0c5.314,0,10.629,0,15.944,0
				c0.369,0,2.824-0.339,2.75,0.577c-0.289,3.513-0.576,7.026-0.864,10.54c-0.265,3.239-0.529,6.479-0.793,9.719
				c-0.135,1.664-1.56,2.78-2.09,4.351c-0.436,1.291-0.469,2.617-0.579,3.967c-0.56,6.886-1.126,13.77-1.691,20.654
				c-0.083,1.019-0.297,12.379-1.557,12.379c-2.541,0-5.081,0-7.621,0c-11.512,0-23.023,0-34.535,0c-5.123,0-10.246,0-15.369,0
				c-1.883,0-6.623,1.098-7.031-1.431C111.008,278.289,104.264,280.183,104.976,284.598z"/>
		</g>
	</g>
	<g>
		<g>
			<path style="fill:#FFFFFF;" d="M190.148,125.503c-30.528,0-61.056,0-91.584,0c-1.935,0-1.935,3,0,3c30.528,0,61.056,0,91.584,0
				C192.083,128.503,192.083,125.503,190.148,125.503L190.148,125.503z"/>
		</g>
	</g>
	<g>
		<g>
			<path style="fill:#FFFFFF;" d="M190.148,97.17c-30.528,0-61.056,0-91.584,0c-1.935,0-1.935,3,0,3c30.528,0,61.056,0,91.584,0
				C192.083,100.17,192.083,97.17,190.148,97.17L190.148,97.17z"/>
		</g>
	</g>
	<g>
		<g>
			<path style="fill:#FFFFFF;" d="M70.44,138.934c1.32,8.185,10.646,6.569,16.714,6.569c5.854,0,14.91,0.874,14.91-7.648
				c0-11.395,0-22.79,0-34.185c0-9.062-10.883-7.5-16.838-7.5c-5.854,0-14.91-0.874-14.91,7.648c0,11.395,0,22.79,0,34.185
				c0,4.514,7,4.514,7,0c0-9.402,0-18.805,0-28.207c0-3.439-1.29-6.626,2.764-6.626c4.804,0,9.608,0,14.412,0
				c1.176,0,0.572,26.249,0.572,28.707c0,3.439,1.29,6.626-2.764,6.626c-2.57,0-14.626,1.566-15.109-1.431
				C76.473,132.625,69.729,134.519,70.44,138.934z"/>
		</g>
	</g>
	<g>
		<path style="fill:#FFFFFF;" d="M80.689,118.67c0,1.657,1.343,3,3,3h4c1.657,0,3-1.343,3-3v-8.333c0-1.657-1.343-3-3-3h-4
			c-1.657,0-3,1.343-3,3V118.67z"/>
	</g>
	<g>
		<g>
			<path style="fill:#FFFFFF;" d="M83.316,133.67c1.444,0,2.889,0,4.333,0c1.908,0,3.5-1.592,3.5-3.5c0-1.908-1.592-3.5-3.5-3.5
				c-1.444,0-2.889,0-4.333,0c-1.908,0-3.5,1.592-3.5,3.5C79.816,132.078,81.408,133.67,83.316,133.67L83.316,133.67z"/>
		</g>
	</g>
	<g>
		<g>
			<g>
				<path style="fill:#FFFFFF;" d="M197.9,211.563c-0.077,4.753-1.012,17.397-7.845,17.874c-1.919,0.134-1.932,3.135,0,3
					c9.067-0.632,10.733-14.026,10.845-20.874C200.932,209.628,197.932,209.631,197.9,211.563L197.9,211.563z"/>
			</g>
		</g>
		<path style="fill:#FFFFFF;" d="M187.148,211.854c0,1.657,1.344,3,3,3h6.688c1.656,0,3-1.343,3-3v-16.875c0-1.657-1.344-3-3-3
			h-6.688c-1.656,0-3,1.343-3,3V211.854z"/>
		<g>
			<g>
				<path style="fill:#FFFFFF;" d="M198.734,190.375c-0.557,7.098-1.113,14.195-1.67,21.293c-0.151,1.93,2.85,1.915,3,0
					c0.557-7.098,1.113-14.195,1.67-21.293C201.886,188.445,198.885,188.46,198.734,190.375L198.734,190.375z"/>
			</g>
		</g>
	</g>
	<g>
		<g>
			<g>
				<path style="fill:#FFFFFF;" d="M88.072,211.563c0.111,6.847,1.777,20.242,10.844,20.874c1.932,0.135,1.919-2.866,0-3
					c-6.833-0.477-7.767-13.121-7.844-17.874C91.041,209.631,88.041,209.628,88.072,211.563L88.072,211.563z"/>
			</g>
		</g>
		<path style="fill:#FFFFFF;" d="M101.824,211.854c0,1.657-1.343,3-3,3h-6.688c-1.657,0-3-1.343-3-3v-16.875c0-1.657,1.343-3,3-3
			h6.688c1.657,0,3,1.343,3,3V211.854z"/>
		<g>
			<g>
				<path style="fill:#FFFFFF;" d="M87.237,190.375c0.557,7.098,1.114,14.195,1.67,21.293c0.15,1.915,3.151,1.93,3,0
					c-0.557-7.098-1.114-14.195-1.67-21.293C90.087,188.46,87.086,188.445,87.237,190.375L87.237,190.375z"/>
			</g>
		</g>
	</g>
	<g>
		<g>
			<path style="fill:#FFFFFF;" d="M260.815,161.299c16.534-0.394,29.439-13.299,29.833-29.833c0.046-1.936-2.954-1.931-3,0
				c-0.354,14.891-11.941,26.479-26.833,26.833C258.884,158.345,258.88,161.345,260.815,161.299L260.815,161.299z"/>
		</g>
	</g>
	<g>
		<g>
			<path style="fill:#FFFFFF;" d="M260.815,147.299c8.792-0.237,15.596-7.042,15.833-15.833c0.052-1.936-2.948-1.931-3,0
				c-0.192,7.141-5.692,12.641-12.833,12.833C258.885,144.352,258.88,147.352,260.815,147.299L260.815,147.299z"/>
		</g>
	</g>
	<g>
		<g>
			<path style="fill:#FFFFFF;" d="M272.822,129.083c0.844,6.286,8.522,4.638,13.132,4.638c6.353,0,5.38-6.363,5.38-10.859
				c0-6.292-9.186-4.638-13.134-4.638C271.859,118.224,272.822,124.584,272.822,129.083c0,1.935,3,1.935,3,0
				c0-1.855-1.08-7.859,2.067-7.859c2.935,0,5.87,0,8.806,0c2.536,0,2.686,9.497-0.431,9.497c-1.844,0-10.058,1.224-10.442-1.638
				C275.568,127.195,272.565,127.17,272.822,129.083z"/>
		</g>
	</g>
	<g>
		<g>
			<path style="fill:#FFFFFF;" d="M290.648,131.463c0-20.099,0-40.197,0-60.296c0-1.935-3-1.935-3,0c0,20.099,0,40.197,0,60.296
				C287.648,133.397,290.648,133.397,290.648,131.463L290.648,131.463z"/>
		</g>
	</g>
	<g>
		<g>
			<path style="fill:#FFFFFF;" d="M276.482,131.463c0-20.099,0-40.197,0-60.296c0-1.935-3-1.935-3,0c0,20.099,0,40.197,0,60.296
				C273.482,133.397,276.482,133.397,276.482,131.463L276.482,131.463z"/>
		</g>
	</g>
	<g>
		<g>
			<path style="fill:#FFFFFF;" d="M261.076,161.946c5.942-0.798,4.239-9.187,4.239-13.39c0-6.096-6.676-5.068-10.859-5.068
				c-6.289,0-4.638,9.185-4.638,13.134c0,6.344,6.354,5.378,10.859,5.378c1.935,0,1.935-3,0-3c-1.872,0-7.859,1.077-7.859-2.068
				c0-2.935,0-5.871,0-8.806c0-2.305,4.175-1.638,5.329-1.638c1.687,0,4.168-0.471,4.168,2.068c0,2.528,1.32,10.046-2.036,10.497
				C258.369,159.31,259.186,162.201,261.076,161.946z"/>
		</g>
	</g>
	<g>
		<g>
			<path style="fill:#FFFFFF;" d="M262.484,144.161c-23.833,0-47.666,0-71.499,0c-1.935,0-1.935,3,0,3c23.833,0,47.666,0,71.499,0
				C264.419,147.161,264.419,144.161,262.484,144.161L262.484,144.161z"/>
		</g>
	</g>
	<g>
		<g>
			<path style="fill:#FFFFFF;" d="M262.484,158.328c-23.833,0-47.666,0-71.499,0c-1.935,0-1.935,3,0,3c23.833,0,47.666,0,71.499,0
				C264.419,161.328,264.419,158.328,262.484,158.328L262.484,158.328z"/>
		</g>
	</g>
	<g>
		<g>
			<path style="fill:#FFFFFF;" d="M222.566,209.707c21.334,0,42.667,0,64.001,0c6.448,0,6.448-10,0-10c-21.334,0-42.667,0-64.001,0
				C216.118,199.707,216.118,209.707,222.566,209.707L222.566,209.707z"/>
		</g>
	</g>
	<g>
		<g>
			<g>
				<path style="fill:#FFFFFF;" d="M223.4,205.128c0,27.18,0,54.358,0,81.538c0,1.935,3,1.935,3,0c0-27.18,0-54.358,0-81.538
					C226.4,203.193,223.4,203.193,223.4,205.128L223.4,205.128z"/>
			</g>
		</g>
		<g>
			<g>
				<path style="fill:#FFFFFF;" d="M228.795,205.128c0,27.18,0,54.358,0,81.538c0,1.935,3,1.935,3,0c0-27.18,0-54.358,0-81.538
					C231.795,203.193,228.795,203.193,228.795,205.128L228.795,205.128z"/>
			</g>
		</g>
		<g>
			<g>
				<path style="fill:#FFFFFF;" d="M234.189,205.128c0,27.18,0,54.358,0,81.538c0,1.935,3,1.935,3,0c0-27.18,0-54.358,0-81.538
					C237.189,203.193,234.189,203.193,234.189,205.128L234.189,205.128z"/>
			</g>
		</g>
		<g>
			<g>
				<path style="fill:#FFFFFF;" d="M239.582,205.128c0,27.18,0,54.358,0,81.538c0,1.935,3,1.935,3,0c0-27.18,0-54.358,0-81.538
					C242.582,203.193,239.582,203.193,239.582,205.128L239.582,205.128z"/>
			</g>
		</g>
		<g>
			<g>
				<path style="fill:#FFFFFF;" d="M244.977,205.128c0,27.18,0,54.358,0,81.538c0,1.935,3,1.935,3,0c0-27.18,0-54.358,0-81.538
					C247.977,203.193,244.977,203.193,244.977,205.128L244.977,205.128z"/>
			</g>
		</g>
		<g>
			<g>
				<path style="fill:#FFFFFF;" d="M250.371,205.129c0,27.18,0,54.358,0,81.538c0,1.935,3,1.935,3,0c0-27.18,0-54.358,0-81.538
					C253.371,203.194,250.371,203.194,250.371,205.129L250.371,205.129z"/>
			</g>
		</g>
		<g>
			<g>
				<path style="fill:#FFFFFF;" d="M255.764,205.129c0,27.179,0,54.358,0,81.537c0,1.935,3,1.935,3,0c0-27.179,0-54.358,0-81.537
					C258.764,203.194,255.764,203.194,255.764,205.129L255.764,205.129z"/>
			</g>
		</g>
		<g>
			<g>
				<path style="fill:#FFFFFF;" d="M261.158,205.128c0,27.18,0,54.358,0,81.538c0,1.935,3,1.935,3,0c0-27.18,0-54.358,0-81.538
					C264.158,203.193,261.158,203.193,261.158,205.128L261.158,205.128z"/>
			</g>
		</g>
		<g>
			<g>
				<path style="fill:#FFFFFF;" d="M266.553,205.129c0,27.179,0,54.358,0,81.537c0,1.935,3,1.935,3,0c0-27.179,0-54.358,0-81.537
					C269.553,203.194,266.553,203.194,266.553,205.129L266.553,205.129z"/>
			</g>
		</g>
		<g>
			<g>
				<path style="fill:#FFFFFF;" d="M271.945,205.128c0,27.18,0,54.358,0,81.538c0,1.935,3,1.935,3,0c0-27.18,0-54.358,0-81.538
					C274.945,203.193,271.945,203.193,271.945,205.128L271.945,205.128z"/>
			</g>
		</g>
		<g>
			<g>
				<path style="fill:#FFFFFF;" d="M277.34,205.129c0,27.179,0,54.358,0,81.537c0,1.935,3,1.935,3,0c0-27.179,0-54.358,0-81.537
					C280.34,203.194,277.34,203.194,277.34,205.129L277.34,205.129z"/>
			</g>
		</g>
		<g>
			<g>
				<path style="fill:#FFFFFF;" d="M282.734,205.128c0,27.18,0,54.358,0,81.538c0,1.935,3,1.935,3,0c0-27.18,0-54.358,0-81.538
					C285.734,203.193,282.734,203.193,282.734,205.128L282.734,205.128z"/>
			</g>
		</g>
	</g>
	<g>
		<g>
			<path style="fill:#FFFFFF;" d="M222.566,291.667c21.334,0,42.667,0,64.001,0c6.448,0,6.448-10,0-10c-21.334,0-42.667,0-64.001,0
				C216.118,281.667,216.118,291.667,222.566,291.667L222.566,291.667z"/>
		</g>
	</g>
</g>
<g id="Ebene_1">
</g>
</svg>
