<?xml version="1.0" encoding="iso-8859-1"?>
<!-- Generator: Adobe Illustrator 16.0.0, SVG Export Plug-In . SVG Version: 6.00 Build 0)  -->
<!DOCTYPE svg PUBLIC "-//W3C//DTD SVG 1.1//EN" "http://www.w3.org/Graphics/SVG/1.1/DTD/svg11.dtd">
<svg version="1.1" xmlns="http://www.w3.org/2000/svg" xmlns:xlink="http://www.w3.org/1999/xlink" x="0px" y="0px" width="361px"
	 height="361px" viewBox="0 0 361 361" style="enable-background:new 0 0 361 361;" xml:space="preserve">
<g id="sani_x5F_water_x5F_tap">
	<g>
		<g>
			<g>
				<path style="fill:#FFFFFF;" d="M142.113,112.044c1.535,11.694,16.755,9.071,25.261,9.071c15.403,0,30.807,0,46.21,0
					c11.97,0,23.94,0,35.91,0c5.5,0,10.365-1.476,12.604-7.018c0.999-2.472,0.272-6.358,0.272-8.943c0-4.886-3.979-7.953-8.36-8.997
					c-2.257-0.538-4.961-0.238-7.253-0.238c-4.752,0-9.504,0-14.256,0c-13.867,0-27.734,0-41.603,0c-11.208,0-22.417,0-33.626,0
					c-2.789,0-5.418-0.091-8.161,0.563C141.482,98.301,142.113,105.999,142.113,112.044c0,4.514,7,4.514,7,0
					c0-2.587-1.201-7.537,1.86-8.813c1.067-0.445,2.555-0.313,3.71-0.313c4.475,0,8.951,0,13.426,0c15.48,0,30.962,0,46.442,0
					c11.75,0,23.499,0,35.248,0c0.606,0,1.212,0,1.818,0c5.179,0,3.753,5.728,3.753,9.125c0,2.883-8.53,2.071-10.086,2.071
					c-18.451,0-36.902,0-55.354,0c-8.89,0-17.779,0-26.668,0c-1.833,0-13.708,1.302-14.15-2.071
					C148.534,107.635,141.526,107.579,142.113,112.044z"/>
			</g>
		</g>
		<g>
			<g>
				<path style="fill:#FFFFFF;" d="M171.841,118.083c0,6.417,0,12.833,0,19.25c0,4.514,7,4.514,7,0c0-6.417,0-12.833,0-19.25
					C178.841,113.569,171.841,113.569,171.841,118.083L171.841,118.083z"/>
			</g>
		</g>
		<g>
			<g>
				<path style="fill:#FFFFFF;" d="M157.007,118.833c0,6.444,0,12.889,0,19.333c0,4.514,7,4.514,7,0c0-6.444,0-12.889,0-19.333
					C164.007,114.319,157.007,114.319,157.007,118.833L157.007,118.833z"/>
			</g>
		</g>
		<g>
			<g>
				<path style="fill:#FFFFFF;" d="M281.131,186.209c0,10.871,0,21.742,0,32.613c0,4.891,0,9.78,0,14.67
					c0,3.258-8.427,1.805-10.479,1.805c-6.519,0-13.037,0-19.556,0c-3.735,0-2.524-4.631-2.524-7.445
					c0-11.312,0.001-22.623,0.001-33.935c0-2.726-2.274-5-5-5c-13.182,0-26.362,0-39.544,0c-2.726,0-5,2.274-5,5
					c0,1.062,0.585,5.808-0.723,5.808c-2.069,0-4.14,0-6.21,0c-7.925,0-15.849,0-23.773,0s-15.849,0-23.773,0
					c-1.996,0-3.991,0-5.987,0c-1.752,0-0.947-4.46-0.947-5.808c0-2.726-2.274-5-5-5c-11.908,0-23.815,0-35.723,0
					c-5.041,0-10.082,0-15.122,0c-4.286,0-2.479-12.064-2.479-14.592c0-2.423-1.817-15.579,2.354-15.579c4.783,0,9.566,0,14.349,0
					c12.226,0,24.452,0,36.678,0c0-3.333,0-6.667,0-10c-0.019,0-0.038,0-0.057,0c1.667,1.667,3.333,3.333,5,5
					c0-0.629-0.15-8.913,0.224-8.913c1.624,0,3.249,0,4.873,0c8.537,0,17.074,0,25.611,0c8.342,0,16.684,0,25.025,0
					c1.798,0,3.596,0,5.395,0c0.485,0,0.286,8.208,0.286,8.913c0,2.709,2.274,5.021,5,5c18.969-0.15,37.944,0,56.913,0
					c4.456,0,8.911,0,13.367,0c2.111,0,6.545-0.831,6.821,2.253c0.754,8.416,0,17.21,0,25.666c0,6.448,10,6.448,10,0
					c0-4.771,0-9.541,0-14.311c0-4.9,0.682-10.429-0.632-15.215c-2.896-10.547-16.419-8.393-24.636-8.393
					c-20.609,0-41.226-0.163-61.834,0c1.667,1.667,3.333,3.333,5,5c0-4.965,0.539-10.013-2.207-14.419
					c-2.256-3.621-6.088-4.494-10-4.494c-9.5,0-19,0-28.499,0c-9.366,0-18.731,0-28.097,0c-3.716,0-6.919,0.53-9.622,3.482
					c-3.778,4.128-2.988,10.284-2.988,15.431c0,2.708,2.274,5.023,5,5c0.019,0,0.038,0,0.057,0c6.446-0.055,6.451-10,0-10
					c-12.226,0-24.452,0-36.678,0c-4.783,0-9.566,0-14.349,0c-8.766,0-12.354,7.456-12.354,15.05c0,7.078,0,14.155,0,21.233
					c0,7.508,4.602,13.889,12.651,13.889c13.242,0,26.483,0,39.725,0c3.649,0,7.299,0,10.948,0c-1.667-1.667-3.333-3.333-5-5
					c0,5.893,0.501,10.88,5.654,14.584c2.141,1.539,5.34,1.224,7.858,1.224c9.065,0,18.13,0,27.195,0s18.13,0,27.194,0
					c2.264,0,4.523,0.16,6.664-0.72c6.331-2.604,6.848-9.146,6.848-15.088c-1.667,1.667-3.333,3.333-5,5c13.182,0,26.362,0,39.544,0
					c-1.667-1.667-3.333-3.333-5-5c0,12.189-0.001,24.379-0.001,36.567c0,7.563,2.575,13.914,11.11,14.813
					c5.581,0.587,11.535,0,17.143,0c5.054,0,13.422,1.465,18.098-1.184c6.195-3.511,6.208-9.383,6.208-15.545
					c0-13.698,0-27.396,0-41.094c0-0.422,0-0.844,0-1.266C291.131,179.76,281.131,179.76,281.131,186.209L281.131,186.209z"/>
			</g>
		</g>
	</g>
</g>
<g id="Ebene_1">
</g>
</svg>
