<?xml version="1.0" encoding="iso-8859-1"?>
<!-- Generator: Adobe Illustrator 16.0.0, SVG Export Plug-In . SVG Version: 6.00 Build 0)  -->
<!DOCTYPE svg PUBLIC "-//W3C//DTD SVG 1.1//EN" "http://www.w3.org/Graphics/SVG/1.1/DTD/svg11.dtd">
<svg version="1.1" xmlns="http://www.w3.org/2000/svg" xmlns:xlink="http://www.w3.org/1999/xlink" x="0px" y="0px" width="361px"
	 height="361px" viewBox="0 0 361 361" style="enable-background:new 0 0 361 361;" xml:space="preserve">
<g id="sani_x5F_cooling_x5F_manual">
	<g>
		<g>
			<g>
				<path style="fill:#FFFFFF;" d="M241.209,228.781c0-9.863,0-19.728,0-29.591c0-6.235,0-12.471,0-18.707c0-1.508,0-3.016,0-4.524
					c0-2.682,3.217-1.89,5.107-1.89c1.227,0,4.682-0.57,4.682,1.468c0,1.485,0,2.971,0,4.456c0,6.17,0,12.34,0,18.509
					c0,10.093,0,20.186,0,30.278c0,4.514,7,4.514,7,0c0-11.709,0-23.419,0-35.128c0-5.787,0-11.575,0-17.362
					c0-6.465-4.814-9.221-10.729-9.221c-6.253,0-13.061,1.091-13.061,9.102c0,5.413,0,10.825,0,16.238c0,12.124,0,24.248,0,36.372
					C234.209,233.295,241.209,233.295,241.209,228.781L241.209,228.781z"/>
			</g>
		</g>
		<g>
			<g>
				<path style="fill:#FFFFFF;" d="M225.525,258.786c0-11.049,0-22.098,0-33.146c0-7.303,0-14.605,0-21.908
					c0-4.86-0.456-10.208,0.396-14.969c0.453-2.528,5.455-1.294,7.729-1.294c2.686,0,0.558-0.051,0.558-1.076
					c0,0.527,0,1.055,0,1.582c0,6.102,0,12.203,0,18.305c0,11.967,0,23.935,0,35.901c0,4.514,7,4.514,7,0
					c0-11.967,0-23.935,0-35.901c0-6.102,0-12.203,0-18.305c0-6.744-4.604-7.506-10.361-7.506c-2.877,0-6.536-0.546-8.881,1.509
					c-3.924,3.44-3.435,9.771-3.441,14.491c-0.006,3.626,0,7.253,0,10.879c0,14.943,0,29.887,0,44.83c0,2.202,0,4.405,0,6.608
					C218.525,263.3,225.525,263.3,225.525,258.786L225.525,258.786z"/>
			</g>
		</g>
		<g>
			<g>
				<path style="fill:#FFFFFF;" d="M257.998,238.676c0-9.999,0-19.998,0-29.997c0-6.463,0-12.926,0-19.389c0-1.837,0-3.674,0-5.511
					c0-0.336,0-0.672,0-1.008c0,0.154-2.009,1.191-0.736,1.191c0.745,0,1.49,0,2.236,0c5.394,0,6.63,0.58,6.63,5.399
					c0,5.854,0,11.71,0,17.565c0,10.582,0,21.165,0,31.748c0,4.514,7,4.514,7,0c0-11.865,0-23.729,0-35.595
					c0-10.324,3.104-26.118-11.797-26.118c-5.754,0-10.333,0.781-10.333,7.505c0,6.102,0,12.203,0,18.305
					c0,11.968,0,23.935,0,35.902C250.998,243.189,257.998,243.189,257.998,238.676L257.998,238.676z"/>
			</g>
		</g>
		<g>
			<g>
				<path style="fill:#FFFFFF;" d="M273.128,245.041c0-12.389,0-24.778,0-37.167c0-2.504,0-5.008,0-7.513c0-0.521,0-1.044,0-1.566
					c0,0.328-2.026,1.174-0.602,1.174c1.11,0,2.221,0,3.331,0c3.463,0,2.633,5.412,2.633,8.106c0,26.102,0,52.204,0,78.306
					c0,0.504,0,1.007,0,1.511c0,4.514,7,4.514,7,0c0-24.825,0-49.65,0-74.476c0-2.882,0-5.763,0-8.645
					c0-3.092-0.473-6.735-2.594-9.144c-2.604-2.956-6.056-2.659-9.649-2.659c-6.614,0-7.119,4.728-7.119,9.918
					c0,7.315,0,14.632,0,21.948c0,6.735,0,13.471,0,20.206C266.128,249.555,273.128,249.555,273.128,245.041L273.128,245.041z"/>
			</g>
		</g>
		<g>
			<g>
				<path style="fill:#FFFFFF;" d="M213.063,288.069c-4.117-17.482-8.233-34.965-12.351-52.447
					c-0.767-3.257-1.659-4.886,2.256-6.144c1.46-0.469,5.136-2.104,5.776-0.108c0.5,1.554,0.999,3.106,1.498,4.66
					c2.779,8.649,5.559,17.299,8.338,25.948c1.375,4.279,8.135,2.449,6.75-1.861c-3.11-9.679-6.221-19.357-9.33-29.036
					c-1.87-5.819-5.817-8.194-12.049-7.223c-5.894,0.92-12.506,4.936-10.889,11.805c4.417,18.756,8.833,37.512,13.25,56.268
					C207.347,294.323,214.097,292.46,213.063,288.069L213.063,288.069z"/>
			</g>
		</g>
	</g>
	<g>
		<g>
			<g>
				<g>
					<path style="fill:#FFFFFF;" d="M130.606,75.071c0,15.074,0,30.148,0,45.222c0,6.449,10,6.449,10,0c0-15.074,0-30.148,0-45.222
						C140.606,68.622,130.606,68.622,130.606,75.071L130.606,75.071z"/>
				</g>
			</g>
			<g>
				<g>
					<path style="fill:#FFFFFF;" d="M119.923,83.94c4.395,2.537,8.789,5.075,13.184,7.612c5.595,3.23,10.628-5.413,5.047-8.635
						c-4.395-2.537-8.789-5.075-13.184-7.612C119.375,72.075,114.342,80.718,119.923,83.94L119.923,83.94z"/>
				</g>
			</g>
			<g>
				<g>
					<path style="fill:#FFFFFF;" d="M146.092,75.306c-4.395,2.537-8.789,5.075-13.184,7.612c-5.582,3.223-0.548,11.865,5.047,8.635
						c4.395-2.537,8.789-5.075,13.184-7.612C156.72,80.718,151.687,72.075,146.092,75.306L146.092,75.306z"/>
				</g>
			</g>
		</g>
		<g>
			<g>
				<g>
					<path style="fill:#FFFFFF;" d="M93.763,101.478c13.054,7.537,26.108,15.074,39.163,22.611c5.595,3.23,10.628-5.412,5.047-8.635
						c-13.054-7.537-26.108-15.074-39.163-22.611C93.215,89.613,88.181,98.255,93.763,101.478L93.763,101.478z"/>
				</g>
			</g>
			<g>
				<g>
					<path style="fill:#FFFFFF;" d="M96.173,115.151c4.395-2.538,8.789-5.075,13.183-7.612c5.581-3.223,0.548-11.865-5.047-8.635
						c-4.395,2.538-8.789,5.075-13.183,7.612C85.545,109.739,90.578,118.381,96.173,115.151L96.173,115.151z"/>
				</g>
			</g>
			<g>
				<g>
					<path style="fill:#FFFFFF;" d="M101.733,88.17c0,5.075,0,10.149,0,15.224c0,6.449,10,6.449,10,0c0-5.075,0-10.149,0-15.224
						C111.733,81.722,101.733,81.722,101.733,88.17L101.733,88.17z"/>
				</g>
			</g>
		</g>
		<g>
			<g>
				<g>
					<path style="fill:#FFFFFF;" d="M98.909,146.669c13.055-7.537,26.109-15.074,39.164-22.611
						c5.582-3.222,0.548-11.865-5.047-8.635c-13.055,7.537-26.109,15.074-39.164,22.611C88.281,141.257,93.314,149.9,98.909,146.669
						L98.909,146.669z"/>
				</g>
			</g>
			<g>
				<g>
					<path style="fill:#FFFFFF;" d="M111.908,151.471c0-5.074,0-10.148,0-15.223c0-6.449-10-6.449-10,0c0,5.074,0,10.148,0,15.223
						C101.908,157.92,111.908,157.92,111.908,151.471L111.908,151.471z"/>
				</g>
			</g>
			<g>
				<g>
					<path style="fill:#FFFFFF;" d="M91.3,133.126c4.395,2.538,8.789,5.075,13.184,7.612c5.595,3.23,10.628-5.412,5.047-8.635
						c-4.395-2.538-8.789-5.075-13.184-7.612C90.752,121.261,85.718,129.903,91.3,133.126L91.3,133.126z"/>
				</g>
			</g>
		</g>
		<g>
			<g>
				<g>
					<path style="fill:#FFFFFF;" d="M140.556,165.126c0-15.074,0-30.148,0-45.222c0-6.449-10-6.449-10,0c0,15.074,0,30.148,0,45.222
						C130.556,171.575,140.556,171.575,140.556,165.126L140.556,165.126z"/>
				</g>
			</g>
			<g>
				<g>
					<path style="fill:#FFFFFF;" d="M151.239,156.256c-4.395-2.537-8.789-5.074-13.184-7.611c-5.595-3.23-10.628,5.413-5.047,8.635
						c4.395,2.537,8.789,5.074,13.184,7.611C151.787,168.121,156.82,159.478,151.239,156.256L151.239,156.256z"/>
				</g>
			</g>
			<g>
				<g>
					<path style="fill:#FFFFFF;" d="M125.07,164.891c4.395-2.537,8.789-5.074,13.183-7.611c5.582-3.222,0.548-11.865-5.047-8.635
						c-4.395,2.537-8.789,5.074-13.183,7.611C114.442,159.478,119.475,168.121,125.07,164.891L125.07,164.891z"/>
				</g>
			</g>
		</g>
		<g>
			<g>
				<g>
					<path style="fill:#FFFFFF;" d="M177.399,138.374c-13.055-7.537-26.109-15.074-39.164-22.611
						c-5.595-3.23-10.628,5.413-5.047,8.635c13.055,7.537,26.109,15.074,39.164,22.611
						C177.947,150.239,182.98,141.596,177.399,138.374L177.399,138.374z"/>
				</g>
			</g>
			<g>
				<g>
					<path style="fill:#FFFFFF;" d="M174.99,124.702c-4.395,2.537-8.79,5.075-13.184,7.612c-5.582,3.222-0.548,11.865,5.047,8.635
						c4.395-2.537,8.79-5.075,13.184-7.612C185.618,130.114,180.584,121.471,174.99,124.702L174.99,124.702z"/>
				</g>
			</g>
			<g>
				<g>
					<path style="fill:#FFFFFF;" d="M169.429,151.682c0-5.075,0-10.149,0-15.224c0-6.449-10-6.449-10,0c0,5.075,0,10.149,0,15.224
						C159.429,158.131,169.429,158.131,169.429,151.682L169.429,151.682z"/>
				</g>
			</g>
		</g>
		<g>
			<g>
				<g>
					<path style="fill:#FFFFFF;" d="M172.253,93.183c-13.055,7.537-26.109,15.075-39.164,22.612
						c-5.582,3.223-0.548,11.865,5.047,8.635c13.055-7.537,26.109-15.075,39.164-22.612
						C182.882,98.595,177.848,89.953,172.253,93.183L172.253,93.183z"/>
				</g>
			</g>
			<g>
				<g>
					<path style="fill:#FFFFFF;" d="M159.254,88.38c0,5.075,0,10.149,0,15.224c0,6.449,10,6.449,10,0c0-5.075,0-10.149,0-15.224
						C169.254,81.931,159.254,81.931,159.254,88.38L159.254,88.38z"/>
				</g>
			</g>
			<g>
				<g>
					<path style="fill:#FFFFFF;" d="M179.862,106.726c-4.395-2.537-8.789-5.075-13.184-7.612c-5.595-3.23-10.628,5.412-5.047,8.635
						c4.395,2.537,8.789,5.075,13.184,7.612C180.41,118.591,185.443,109.948,179.862,106.726L179.862,106.726z"/>
				</g>
			</g>
		</g>
	</g>
	<g>
		<g>
			<g>
				<path style="fill:#FFFFFF;" d="M71.575,186.5c5.103-1.521,10.276-2.848,15.505-3.858c7.1-1.372,13.251,0.714,19.897,3.136
					c9.258,3.375,18.697,8.882,28.688,9.268c5.96,0.23,12.572-2.904,18.003-5.008c3.237-1.254,6.416-2.644,9.662-3.878
					c6.432-2.446,12.845-4.821,19.784-3.72c5.621,0.893,11.192,2.437,16.643,4.061c1.858,0.554,2.646-2.342,0.797-2.893
					c-5.103-1.521-10.276-2.849-15.505-3.859c-6.542-1.264-11.919-0.128-18.195,1.966c-10.039,3.35-20.494,9.917-31.188,10.33
					c-6.14,0.237-13.21-3.3-18.796-5.531c-3.748-1.497-7.458-3.058-11.265-4.41c-6.148-2.185-11.703-3.586-18.185-2.557
					c-5.621,0.893-11.192,2.437-16.642,4.061C68.928,184.158,69.716,187.054,71.575,186.5L71.575,186.5z"/>
			</g>
		</g>
		<g>
			<g>
				<path style="fill:#FFFFFF;" d="M77.916,193.686c5.242-1.89,11.354-3.85,16.952-3.007c5.688,0.856,11.29,3.203,16.602,5.324
					c7.693,3.073,15.8,7.21,24.196,7.534c8.107,0.313,16.809-4.544,24.197-7.534c5.369-2.173,10.897-4.242,16.602-5.324
					c5.468-1.037,11.826,1.159,16.952,3.007c1.824,0.658,2.603-2.242,0.797-2.893c-4.979-1.795-10.248-3.147-15.554-3.32
					c-5.685-0.185-11.898,2.679-17.096,4.655c-8.287,3.153-16.927,8.063-25.898,8.409c-5.631,0.218-12.063-2.908-17.206-4.9
					c-2.914-1.128-5.777-2.38-8.691-3.509c-5.231-2.025-10.691-4.054-16.306-4.625c-5.32-0.541-11.404,1.509-16.345,3.29
					C75.313,191.443,76.091,194.344,77.916,193.686L77.916,193.686z"/>
			</g>
		</g>
		<g>
			<g>
				<path style="fill:#FFFFFF;" d="M78.013,176.756c5.242-1.89,11.354-3.85,16.953-3.007c5.688,0.856,11.289,3.203,16.601,5.324
					c7.694,3.073,15.801,7.21,24.196,7.535c8.108,0.313,16.809-4.544,24.197-7.535c5.369-2.173,10.897-4.243,16.602-5.324
					c5.468-1.037,11.826,1.159,16.952,3.007c1.824,0.658,2.603-2.242,0.797-2.893c-4.979-1.795-10.248-3.148-15.554-3.32
					c-5.685-0.185-11.899,2.679-17.096,4.656c-8.287,3.152-16.926,8.063-25.897,8.409c-5.632,0.218-12.064-2.909-17.207-4.9
					c-2.914-1.128-5.776-2.38-8.69-3.509c-5.231-2.026-10.691-4.055-16.305-4.625c-5.32-0.541-11.405,1.508-16.346,3.29
					C75.41,174.515,76.188,177.414,78.013,176.756L78.013,176.756z"/>
			</g>
		</g>
	</g>
</g>
<g id="Ebene_1">
</g>
</svg>
