<?xml version="1.0" encoding="iso-8859-1"?>
<!-- Generator: Adobe Illustrator 16.0.0, SVG Export Plug-In . SVG Version: 6.00 Build 0)  -->
<!DOCTYPE svg PUBLIC "-//W3C//DTD SVG 1.1 Tiny//EN" "http://www.w3.org/Graphics/SVG/1.1/DTD/svg11-tiny.dtd">
<svg version="1.1" baseProfile="tiny" id="sani_x5F_domestic_x5F_waterworks"
	 xmlns="http://www.w3.org/2000/svg" xmlns:xlink="http://www.w3.org/1999/xlink" x="0px" y="0px" width="361px" height="361px"
	 viewBox="0 0 361 361" xml:space="preserve">
<g>
	<path fill="#FFFFFF" d="M219.938,88.516c0-1.837-1.358-3.327-3.033-3.327h-14.157c-1.675,0-3.033,1.489-3.033,3.327v7.207
		c0,1.837,1.358,3.326,3.033,3.326h14.157c1.675,0,3.033-1.489,3.033-3.326V88.516z"/>
	<path fill="#FFFFFF" d="M222.295,83.229c0-2.004-0.996-3.629-2.223-3.629h-20.62c-1.228,0-2.222,1.625-2.222,3.629v1.008
		c0,2.005,0.995,3.63,2.222,3.63h20.62c1.228,0,2.223-1.625,2.223-3.63V83.229z"/>
	<path fill="#FFFFFF" d="M144.343,86.055c0,1.087-0.881,1.969-1.968,1.969h-37.796c-1.087,0-1.968-0.882-1.968-1.969V75.329
		c0-1.088,0.881-1.969,1.968-1.969h37.796c1.087,0,1.968,0.881,1.968,1.969V86.055z"/>
	<path fill="#FFFFFF" d="M255.02,141.314c0,5.117-4.149,9.267-9.267,9.267h-59.76c-5.117,0-9.267-4.15-9.267-9.267v-35.407
		c0-5.118,4.149-9.267,9.267-9.267h59.76c5.118,0,9.267,4.149,9.267,9.267V141.314z"/>
	<path fill="#FFFFFF" d="M183.93,159.297c0,2.144-1.335,3.882-2.981,3.882h-5.352c-1.647,0-2.982-1.738-2.982-3.882V88.906
		c0-2.144,1.334-3.882,2.982-3.882h5.352c1.646,0,2.981,1.738,2.981,3.882V159.297z"/>
	<g>
		<path fill="#FFFFFF" d="M173.356,143.145c-0.291,5.406-4.765,6.085-8.993,6.085c-4.535,0-9.07,0-13.604,0
			c-13.137,0-26.275,0-39.412,0c-4.765,0-9.53,0-14.296,0c-3.669,0-7.692,0.276-9.351-3.954c-1.296-3.304-0.374-8.358-0.374-11.774
			c0-6.594,0-13.188,0-19.782c0-3.732-0.629-8.126,0.374-11.774c1.182-4.3,5.914-3.954,9.351-3.954c11.373,0,22.745,0,34.117,0
			c11.065,0,22.13,0,33.195,0c4.228,0,8.702,0.679,8.993,6.085c0.199,3.684,0,7.433,0,11.121
			C173.356,124.513,173.356,133.829,173.356,143.145c0,5.339,8.28,5.339,8.28,0c0-10.279,0-20.558,0-30.837
			c0-4.112,0.432-8.557-0.669-12.563c-1.76-6.401-8.159-10.033-14.455-10.033c-21.946,0-43.892,0-65.838,0c-2.417,0-4.834,0-7.251,0
			c-7.968,0-14.377,6.681-14.377,14.568c0,10.869,0,21.737,0,32.605c0,4.742-0.308,9.132,1.961,13.51
			c2.662,5.137,8.405,7.115,13.815,7.115c10.19,0,20.38,0,30.571,0c11.538,0,23.076,0,34.614,0c2.385,0,4.77,0,7.154,0
			c8.164,0,14.05-6.49,14.475-14.365C181.924,137.807,173.642,137.834,173.356,143.145z"/>
		<path fill="#FFFFFF" d="M178.113,108.381c-25.955,0-51.91,0-77.866,0c-3.737,0-3.737,5.796,0,5.796c25.956,0,51.911,0,77.866,0
			C181.851,114.178,181.851,108.381,178.113,108.381L178.113,108.381z"/>
		<path fill="#FFFFFF" d="M178.113,116.687c-25.955,0-51.91,0-77.866,0c-3.737,0-3.737,5.796,0,5.796c25.956,0,51.911,0,77.866,0
			C181.851,122.483,181.851,116.687,178.113,116.687L178.113,116.687z"/>
		<path fill="#FFFFFF" d="M178.113,124.992c-25.955,0-51.91,0-77.866,0c-3.737,0-3.737,5.796,0,5.796c25.956,0,51.911,0,77.866,0
			C181.851,130.788,181.851,124.992,178.113,124.992L178.113,124.992z"/>
		<path fill="#FFFFFF" d="M178.113,133.297c-25.955,0-51.91,0-77.866,0c-3.737,0-3.737,5.796,0,5.796c25.956,0,51.911,0,77.866,0
			C181.851,139.093,181.851,133.297,178.113,133.297L178.113,133.297z"/>
		<path fill="#FFFFFF" d="M176.145,100.076c-24.242,0-48.483,0-72.725,0c-3.738,0-3.738,5.796,0,5.796c24.242,0,48.482,0,72.725,0
			C179.882,105.872,179.882,100.076,176.145,100.076L176.145,100.076z"/>
		<path fill="#FFFFFF" d="M176.145,141.603c-24.242,0-48.483,0-72.725,0c-3.738,0-3.738,5.796,0,5.796c24.242,0,48.482,0,72.725,0
			C179.882,147.398,179.882,141.603,176.145,141.603L176.145,141.603z"/>
	</g>
	<path fill="#FFFFFF" d="M259.287,141.893c1.77,0,3.205-1.229,3.205-2.742v-12.797c0-1.515-1.435-2.743-3.205-2.743h-6.943
		c-1.77,0-3.205,1.228-3.205,2.743v12.797c0,1.514,1.435,2.742,3.205,2.742H259.287z"/>
	<path fill="#FFFFFF" d="M174.607,173.448c0,1.171-0.95,2.121-2.121,2.121h-44.121c-1.172,0-2.122-0.95-2.122-2.121v-10.117
		c0-1.171,0.95-2.121,2.122-2.121h44.121c1.171,0,2.121,0.949,2.121,2.121V173.448z"/>
	<rect x="165.2" y="152.68" fill="#FFFFFF" width="9.624" height="20.998"/>
</g>
<g>
	<g>
		<g>
			<path fill="#FFFFFF" d="M240.654,250.707c-0.295,11.656-8.993,21.199-20.73,22.092c-2.416,0.184-4.896,0.035-7.313,0.035
				c-12.872,0-25.743,0-38.615,0c-24.031,0-48.062,0-72.093,0c-10.83,0-19.418-7.67-21.799-17.989
				c-1.013-4.389-0.373-9.656-0.373-14.107c0-13.828,0-27.655,0-41.483c0-8.82,4.004-16.265,11.72-20.702
				c4.184-2.405,8.81-2.591,13.462-2.591c11.598,0,23.197,0,34.795,0c25.979,0,51.957,0,77.936,0c7.632,0,14.579,3.181,19.06,9.483
				c3.823,5.376,3.95,11.372,3.95,17.614c0,14.425,0,28.851,0,43.276C240.654,247.792,240.654,249.25,240.654,250.707
				c0,6.449,10,6.449,10,0c0-12.184,0-24.368,0-36.552c0-14.873,1.182-29.691-11.336-40.534c-9.237-8.001-20.268-7.659-31.557-7.659
				c-14.2,0-28.401,0-42.602,0c-15.271,0-30.541,0-45.812,0c-8.707,0-18.415-1.007-26.886,1.398
				c-10.705,3.04-18.717,12.12-21.698,22.62c-1.432,5.043-1.033,10.582-1.033,15.776c0,14.211,0,28.423,0,42.635
				c0,18.334,12.878,34.443,32.172,34.443c8.164,0,16.327,0,24.491,0c28.739,0,57.478,0,86.217,0c5.209,0,10.211,0.051,15.313-1.398
				c13.618-3.867,22.382-16.956,22.73-30.729C250.817,244.254,240.816,244.271,240.654,250.707z"/>
		</g>
		<g>
			<path fill="#FFFFFF" d="M110.677,294.251c7.72,0,15.439,0,23.159,0c6.449,0,6.449-10,0-10c-7.72,0-15.439,0-23.159,0
				C104.228,284.251,104.228,294.251,110.677,294.251L110.677,294.251z"/>
		</g>
		<g>
			<path fill="#FFFFFF" d="M193.071,294.545c7.719,0,15.439,0,23.158,0c6.449,0,6.449-10,0-10c-7.719,0-15.439,0-23.158,0
				C186.623,284.545,186.623,294.545,193.071,294.545L193.071,294.545z"/>
		</g>
		<path fill="#FFFFFF" d="M79.365,229.653c0,7.002-2.838,12.68-6.339,12.68l0,0c-3.501,0-6.34-5.677-6.34-12.68v-10.51
			c0-7.003,2.839-12.679,6.34-12.679l0,0c3.501,0,6.339,5.676,6.339,12.679V229.653z"/>
		<g>
			<path fill="#FFFFFF" d="M270.999,157.456c-0.038,15.057-0.587,30.458-5.069,44.945c-1.364,4.409-3.362,8.813-6.48,12.23
				c-2.784,3.051-5.866,4.255-9.913,4.335c-9.672,0.191-9.776,15.194-0.108,15.003c35.665-0.705,36.511-51.154,36.575-76.405
				C286.026,147.877,271.023,147.793,270.999,157.456L270.999,157.456z"/>
		</g>
		<path fill="#FFFFFF" d="M254.267,246.743c0,2.642-2.142,4.785-4.785,4.785l0,0c-2.642,0-4.785-2.143-4.785-4.785v-44.689
			c0-2.643,2.143-4.785,4.785-4.785l0,0c2.643,0,4.785,2.142,4.785,4.785V246.743z"/>
	</g>
	<g>
		<path fill="#FFFFFF" d="M286.002,152.671c-0.341-13.786-9.573-26.516-24.115-27.005c-9.693-0.327-9.748,14.679-0.108,15.003
			c6.037,0.204,9.084,6.432,9.219,11.894C271.238,162.23,286.241,162.339,286.002,152.671L286.002,152.671z"/>
	</g>
	<path fill="#FFFFFF" d="M278.235,165.457c-5.242,0-9.49-2.254-9.49-5.036v-8.445c0-2.781,4.249-5.035,9.49-5.035l0,0
		c5.241,0,9.49,2.254,9.49,5.035v8.445C287.725,163.202,283.477,165.457,278.235,165.457L278.235,165.457z"/>
</g>
</svg>
