<?xml version="1.0" encoding="iso-8859-1"?>
<!-- Generator: Adobe Illustrator 16.0.0, SVG Export Plug-In . SVG Version: 6.00 Build 0)  -->
<!DOCTYPE svg PUBLIC "-//W3C//DTD SVG 1.1//EN" "http://www.w3.org/Graphics/SVG/1.1/DTD/svg11.dtd">
<svg version="1.1" xmlns="http://www.w3.org/2000/svg" xmlns:xlink="http://www.w3.org/1999/xlink" x="0px" y="0px" width="361px"
	 height="361px" viewBox="0 0 361 361" style="enable-background:new 0 0 361 361;" xml:space="preserve">
<g id="sani_x5F_solar">
	<g>
		<g>
			<path style="fill:#FFFFFF;" d="M291.809,286.943c0.133-44.114,0.267-88.229,0.399-132.344c0.011-3.45-4.397-6.688-7.523-4.317
				c-38.352,29.086-76.703,58.173-115.055,87.26c-19.815,15.028-39.63,30.056-59.445,45.084c-3.729,2.828-2.879,9.317,2.523,9.317
				c49.822,0,99.645,0,149.467,0c8.211,0,16.423,0,24.634,0c6.448,0,6.448-10,0-10c-49.822,0-99.645,0-149.466,0
				c-8.211,0-16.423,0-24.634,0c0.841,3.105,1.683,6.212,2.523,9.317c38.352-29.087,76.703-58.173,115.056-87.26
				c19.814-15.028,39.63-30.056,59.444-45.084c-2.508-1.439-5.016-2.878-7.523-4.317c-0.133,44.114-0.267,88.229-0.399,132.344
				C281.789,293.393,291.789,293.391,291.809,286.943z"/>
		</g>
	</g>
	<g>
		<g>
			<path style="fill:#FFFFFF;" d="M250.195,153.168c-38.135,29.415-76.271,58.83-114.405,88.245c-1.26,0.972-2.52,1.943-3.779,2.915
				c-5.029,3.879-0.06,12.573,5.047,8.635c38.135-29.415,76.271-58.83,114.405-88.245c1.26-0.972,2.52-1.943,3.779-2.915
				C260.271,157.924,255.302,149.229,250.195,153.168L250.195,153.168z"/>
		</g>
	</g>
	<path style="fill:none;stroke:#FFFFFF;stroke-width:10;stroke-miterlimit:10;" d="M92.778,123.484c0,2.466,2,4.466,4.466,4.466
		h25.682c2.467,0,4.466-2,4.466-4.466V97.802c0-2.467-2-4.466-4.466-4.466H97.244c-2.467,0-4.466,2-4.466,4.466V123.484z"/>
	<g>
		<g>
			<path style="fill:#FFFFFF;" d="M144.874,71.256c-2.644,2.645-5.289,5.289-7.933,7.933c-1.926,1.926-1.926,5.145,0,7.071
				s5.145,1.926,7.071,0c2.644-2.645,5.289-5.289,7.933-7.933c1.926-1.926,1.926-5.145,0-7.071S146.8,69.33,144.874,71.256
				L144.874,71.256z"/>
		</g>
	</g>
	<g>
		<g>
			<path style="fill:#FFFFFF;" d="M186.184,105.369c-12.271,0-24.542,0-36.813,0c-6.449,0-6.449,10,0,10c12.271,0,24.542,0,36.813,0
				C192.632,115.369,192.632,105.369,186.184,105.369L186.184,105.369z"/>
		</g>
	</g>
	<g>
		<g>
			<path style="fill:#FFFFFF;" d="M78.869,150.304c2.187-2.187,4.373-4.373,6.56-6.56c1.926-1.926,1.926-5.145,0-7.071
				s-5.145-1.926-7.071,0c-2.187,2.187-4.373,4.373-6.56,6.56c-1.926,1.926-1.926,5.145,0,7.071S76.943,152.23,78.869,150.304
				L78.869,150.304z"/>
		</g>
	</g>
	<g>
		<g>
			<path style="fill:#FFFFFF;" d="M115.635,185.917c0-12.271,0-24.542,0-36.813c0-6.449-10-6.449-10,0c0,12.271,0,24.542,0,36.813
				C105.635,192.365,115.635,192.365,115.635,185.917L115.635,185.917z"/>
		</g>
	</g>
	<g>
		<g>
			<path style="fill:#FFFFFF;" d="M168.943,162.705c-8.677-8.677-17.354-17.354-26.031-26.031
				c-4.564-4.563-11.635,2.507-7.071,7.071c8.677,8.677,17.354,17.354,26.031,26.031
				C166.436,174.34,173.507,167.269,168.943,162.705L168.943,162.705z"/>
		</g>
	</g>
</g>
<g id="Ebene_1">
</g>
</svg>
