<?xml version="1.0" encoding="iso-8859-1"?>
<!-- Generator: Adobe Illustrator 16.0.0, SVG Export Plug-In . SVG Version: 6.00 Build 0)  -->
<!DOCTYPE svg PUBLIC "-//W3C//DTD SVG 1.1//EN" "http://www.w3.org/Graphics/SVG/1.1/DTD/svg11.dtd">
<svg version="1.1" xmlns="http://www.w3.org/2000/svg" xmlns:xlink="http://www.w3.org/1999/xlink" x="0px" y="0px" width="361px"
	 height="361px" viewBox="0 0 361 361" style="enable-background:new 0 0 361 361;" xml:space="preserve">
<g id="scene_x5F_stove">
	<g>
		<g>
			<path style="fill:#FFFFFF;" d="M232.125,206.247c-0.478,2.962-6.077,1.696-8.178,1.696c-6.092,0-12.183,0-18.273,0
				c-15.987,0-31.974,0-47.961,0c-9.095,0-18.189,0-27.284,0c-1.732,0-0.817-26.674-0.817-28.7c0-15.408,0-30.816,0-46.225
				c0-3.636,0-7.272,0-10.908c0-1.799,5.531-1.01,6.492-1.01c28.298,0,56.596,0,84.895,0c2.86,0,11.001-1.779,11.001,2.246
				c0,8.817,0,17.635,0,26.453c0,19.126,0,38.251,0,57.377c0,4.514,7,4.514,7,0c0-24.95,0-49.9,0-74.851
				c0-7.657,1.602-18.226-9.273-18.226c-11.396,0-22.79,0-34.186,0c-15.703,0-31.405,0-47.108,0c-4.979,0-9.959,0-14.938,0
				c-4.022,0-9.715,0.373-10.54,5.487c-1.521,9.429-0.342,19.76-0.342,29.271c0,15.485,0,30.971,0,46.456
				c0,7.399-2.13,19.628,8.784,19.628c10.924,0,21.848,0,32.771,0c15.807,0,31.613,0,47.419,0c5.246,0,10.493,0,15.739,0
				c3.62,0,8.379,0.375,10.373-3.48c0.639-1.234,0.953-1.977,1.176-3.354C239.587,203.693,232.843,201.8,232.125,206.247z"/>
		</g>
	</g>
	<path style="fill:none;stroke:#FFFFFF;stroke-width:10;stroke-miterlimit:10;" d="M252.334,278.443
		c0,4.727-3.808,8.557-8.504,8.557H117.837c-4.697,0-8.504-3.83-8.504-8.557V103.225c0-4.727,3.807-8.558,8.504-8.558H243.83
		c4.696,0,8.504,3.831,8.504,8.558V278.443z"/>
	<g>
		<g>
			<path style="fill:#FFFFFF;" d="M215.833,186.939c-0.22,9.557-4.267,18.828-12.979,23.47c-8.386,4.468-18.644,0.202-24.585-6.229
				c-7.159-7.748-6.807-18.934-0.818-27.062c4.849-6.582,7.624-12.74,10.051-20.54c0.447-1.439,0.901-2.875,1.381-4.304
				c0.238-0.707,0.502-1.405,0.789-2.094c0.787-1.864,0.578-0.088-0.735-1.137c3.059,2.442,4.473,7.862,5.331,11.43
				c0.677,2.81,1.352,9.766,6.025,7.045c3.037-1.769,4.652-6.232,6.257-9.159c0.45-0.696,0.147-0.495-0.908,0.603
				c0.704,0.735,1.385,1.492,2.041,2.271c1.884,2.162,3.164,4.822,4.368,7.397C214.713,174.325,215.724,180.707,215.833,186.939
				c0.034,1.933,3.034,1.936,3,0c-0.193-11.048-3.455-21.902-11.07-30.099c-3.679-3.96-5.732,3.813-7.44,6.339
				c-0.873,1.292-1.771,2.539-2.444,0.376c-0.868-2.792-1.088-5.689-2.096-8.479c-0.974-2.695-2.674-7.073-5.32-8.623
				c-3.898-2.284-7.214,13.645-7.824,15.446c-1.625,4.799-3.94,8.706-7.013,12.701c-2.824,3.671-5.343,7.658-5.685,12.414
				c-0.73,10.154,3.932,19.089,12.506,24.512c7.358,4.654,16.685,4.77,24.056,0.252c8.392-5.142,12.115-15.45,12.331-24.839
				C218.878,185.004,215.877,185.008,215.833,186.939z"/>
		</g>
	</g>
	<g>
		<g>
			<path style="fill:#FFFFFF;" d="M205.129,197.306c-0.267,6.816-3.982,13.846-11.499,14.279
				c-6.663,0.385-11.969-5.709-12.645-11.865c-0.612-5.581,4.195-9.02,6.323-13.619c1.356-2.933,1.666-8.633,3.965-10.891
				c-0.605,0.078-1.212,0.156-1.817,0.235c3.773,1.653,1.344,11.367,6.103,11.367c1.269,0,2.319-1.211,2.966-2.157
				c0.564-0.827,1.064-1.678,1.545-2.557c0.176-0.321,1.24-1.725,0.479-1.212c-0.605-0.079-1.212-0.157-1.817-0.235
				C203.149,185.252,204.952,191.009,205.129,197.306c0.054,1.931,3.055,1.936,3,0c-0.198-7.089-2.316-13.611-7.277-18.776
				c-0.444-0.462-1.271-0.602-1.817-0.235c-0.83,0.558-3.329,4.918-3.339,4.888c-0.911-2.858-1.358-8.854-4.726-10.329
				c-0.632-0.277-1.294-0.279-1.817,0.235c-1.501,1.474-1.946,4.09-2.544,6.01c-1.208,3.875-2.563,7.251-5.042,10.496
				c-4.189,5.479-5.037,12.822-0.523,18.525c4.006,5.063,10.319,7.634,16.635,5.782c7.016-2.058,10.192-9.975,10.451-16.596
				C208.205,195.37,205.204,195.378,205.129,197.306z"/>
		</g>
	</g>
	<g>
		<g>
			<path style="fill:#FFFFFF;" d="M174.751,203.894c-8.446,11.624-26.546,0.192-20.351-12.375c1.463-2.968,4.045-5.148,5.315-8.273
				c1.135-2.793,1.659-8.417,3.814-10.533c-0.606,0.078-1.212,0.156-1.817,0.235c4.18,1.827,1.503,9.93,5.366,12.078
				c2.812,1.563,3.632-0.848,5.931-1.295c1.898-0.369,1.092-3.261-0.798-2.893c-0.547,0.106-0.98,0.544-1.409,0.869
				c-2.462,1.872-3.032-2.009-3.355-3.686c-0.418-2.172-1.961-6.676-4.222-7.665c-0.632-0.276-1.293-0.28-1.817,0.235
				c-1.255,1.232-1.679,3.269-2.193,4.882c-1.065,3.343-1.994,6.672-3.92,9.644c-3.647,5.625-6.364,9.451-4.181,16.456
				c1.669,5.358,6.714,9.028,11.986,10.24c5.826,1.339,10.936-1.857,14.241-6.406C178.481,203.839,175.877,202.345,174.751,203.894
				L174.751,203.894z"/>
		</g>
	</g>
	<g>
		<g>
			<path style="fill:#FFFFFF;" d="M176.047,175.007c-6.147,0.545-8.474-7.004-10.08-11.66c-0.495-1.436-1.59-6.811-4.243-5.257
				c-1.586,0.929-2.577,3.287-3.358,4.81c-0.71,1.384-1.21,2.875-1.686,4.35c-0.105,0.325-1.386,5.715-1.444,5.666
				c-2.125-1.799-2.584-6.517-5.177-7.544c-0.475-0.188-1.122,0.033-1.459,0.386c-8.726,9.108-12.288,23.583-7.798,35.546
				c1.781,4.745,5.215,8.68,9.596,11.169c5.278,3,10.616,1.772,15.888-0.438c1.756-0.736,0.986-3.641-0.798-2.893
				c-6.835,2.867-12.595,2.819-18.055-2.726c-5.943-6.034-6.23-15.375-4.723-23.155c0.77-3.976,2.414-7.705,4.462-11.172
				c0.519-0.686,1.038-1.371,1.557-2.057c1.429-0.824,1.371-1.58-0.174-2.268c0.366,0.494,0.615,1.121,0.898,1.663
				c1.079,2.068,2.643,5.833,5.139,6.585c2.55,0.77,3.609-1.653,4.124-3.706c0.892-3.561,1.492-6.713,3.368-9.969
				c0.176-0.272,0.352-0.544,0.527-0.817c1.081-0.899,0.781-1.24-0.901-1.022c0.43,0.62,0.623,1.481,0.868,2.185
				c2.178,6.259,5.123,16.064,13.47,15.324C177.958,177.838,177.975,174.836,176.047,175.007L176.047,175.007z"/>
		</g>
	</g>
	<g>
		<g>
			<path style="fill:#FFFFFF;" d="M186.103,159.478c-3.252-4.815-4.974-10.216-6.677-15.726c-1.092-3.533-1.849-7.878-4.203-10.846
				c-1.604-2.022-3.575,0.816-4.417,1.986c-3.696,5.134-4.251,10.939-5.964,16.796c-0.831,2.838-4.593-4.464-5.204-5.612
				c-0.631-1.184-1.575-4.324-3.48-3.799c-1.853,0.51-3.744,3.752-4.865,5.178c-1.914,2.435-3.317,5.329-4.631,8.117
				c-2.82,5.985-3.967,12.458-4.079,19.033c-0.033,1.936,2.967,1.933,3,0c0.113-6.664,1.46-12.829,4.301-18.86
				c1.487-3.155,3.353-6.072,5.625-8.715c1.575-1.832,0.503-1.445,0.232-1.91c0.251,0.432,0.474,0.882,0.705,1.325
				c1.387,2.653,4.731,10.776,8.975,9.05c2.261-0.92,2.667-4.121,2.997-6.175c0.566-3.52,1.644-6.762,3.226-9.96
				c0.508-1.027,1.126-1.995,1.751-2.953c1.068-1.635-0.356-1.506,0.034-0.861c2.208,3.651,2.967,8.651,4.258,12.679
				c1.45,4.521,3.158,8.82,5.824,12.768C184.589,162.585,187.188,161.086,186.103,159.478L186.103,159.478z"/>
		</g>
	</g>
	<g>
		<g>
			<path style="fill:#FFFFFF;" d="M224,257.838c-1.247-15.46-19.737-12.004-30.567-12.004c-13.932,0-27.864,0-41.796,0
				c-6.528,0-13.265,3.265-13.858,10.624c-0.516,6.395-0.111,12.941-0.111,19.354c0,7.424,3.547,14.688,12.087,14.688
				c4.129,0,8.259,0,12.389,0c15.962,0,31.925,0,47.888,0c7.333,0,13.97-4.15,13.97-12.251C224,271.445,224,264.642,224,257.838
				c0-4.514-7-4.514-7,0c0,6.212,0,12.424,0,18.636c0,3.33-0.828,7.026-5.087,7.026c-1.391,0-2.781,0-4.172,0
				c-14.645,0-29.29,0-43.935,0c-4.603,0-9.205,0-13.807,0c-7.513,0-5.333-12.038-5.333-16.828c0-5.223-1.61-13.838,5.989-13.838
				c5.255,0,10.51,0,15.766,0c10.479,0,20.959,0,31.439,0c4.951,0,18.541-2.418,19.14,5.004
				C217.36,262.306,224.363,262.34,224,257.838z"/>
		</g>
	</g>
	<g>
		<g>
			<path style="fill:#FFFFFF;" d="M225.333,161.667c0,6.339,0,12.678,0,19.018c0,1.935,3,1.935,3,0c0-6.339,0-12.678,0-19.018
				C228.333,159.732,225.333,159.732,225.333,161.667L225.333,161.667z"/>
		</g>
	</g>
	<g>
		<g>
			<path style="fill:#FFFFFF;" d="M227.833,163.167c1.167,0,2.333,0,3.5,0c1.935,0,1.935-3,0-3c-1.167,0-2.333,0-3.5,0
				C225.898,160.167,225.898,163.167,227.833,163.167L227.833,163.167z"/>
		</g>
	</g>
	<path style="fill:#FFFFFF;" d="M200.559,92.166c0,1.565-1.282,2.834-2.863,2.834h-34.391c-1.581,0-2.862-1.269-2.862-2.834V72.168
		c0-1.565,1.282-2.834,2.862-2.834h34.391c1.581,0,2.863,1.269,2.863,2.834V92.166z"/>
</g>
<g id="Ebene_1">
</g>
</svg>
