<?xml version="1.0" encoding="iso-8859-1"?>
<!-- Generator: Adobe Illustrator 24.0.1, SVG Export Plug-In . SVG Version: 6.00 Build 0)  -->
<svg version="1.1" xmlns="http://www.w3.org/2000/svg" xmlns:xlink="http://www.w3.org/1999/xlink" x="0px" y="0px"
	 viewBox="0 0 361 361" style="enable-background:new 0 0 361 361;" xml:space="preserve">
<g id="scene_x5F_multicooker">
	<g id="buegeleisen_8_" style="display:none;">
		<g style="display:inline;">
			<g>
				<path style="fill:#FFFFFF;" d="M253.74,279.667c-0.245,2.436-23.253,1-25.962,1c-1.893,0-5.677,0.856-6.537-1.119
					c-0.515-1.183,0-3.726,0-4.99c0-20.189,0-40.378,0-60.567c0-8.992,0-17.984,0-26.976c0-1.953,0.238-4.079,0-6.022
					c-0.035-0.284,0.267-2.197-0.439-1.615c0.417-0.344,2.811,2.212,3.324,2.743c7.725,7.997,13.382,18.368,18.946,27.904
					c2.623,4.495,5.173,9.033,7.663,13.603c0.713,1.308,2.283,6.115,3.646,6.815c-1.292-0.663-0.482-3.9-0.641-0.732
					c-0.094,1.866,0,3.764,0,5.632c0,5.832,0,11.664,0,17.496C253.74,261.782,253.74,270.725,253.74,279.667c0,6.435,10,6.445,10,0
					c0-8.942,0-17.885,0-26.827c0-5.952,0-11.904,0-17.856c0-3.086,0.497-6.6-0.683-9.508c-3.125-7.705-8.182-15.134-12.389-22.267
					c-5.996-10.167-12.308-22.079-21.325-29.943c-4.814-4.198-11.109-4.981-15.613,0.511c-2.292,2.794-2.489,5.969-2.489,9.348
					c0,9.042,0,18.084,0,27.127c0,22.141,0,44.281,0,66.422c0,3.935,0.189,7.739,3.222,10.772c4.088,4.088,10.14,3.222,15.393,3.222
					c6.613,0,13.227,0,19.84,0c7.369,0,13.224-2.848,14.045-11C264.384,273.269,254.38,273.314,253.74,279.667z"/>
			</g>
		</g>
		<g style="display:inline;">
			<g>
				<path style="fill:#FFFFFF;" d="M281.832,233.333c0,17.778,0,35.556,0,53.334c0,6.435,10,6.445,10,0c0-17.778,0-35.556,0-53.334
					C291.832,226.898,281.832,226.887,281.832,233.333L281.832,233.333z"/>
			</g>
		</g>
		<g style="display:inline;">
			<g>
				<path style="fill:#FFFFFF;" d="M221.083,291.332c21.806,0,43.611,0,65.416,0.001c6.435,0,6.445-10,0-10
					c-21.805,0-43.611,0-65.416-0.001C214.648,281.332,214.638,291.332,221.083,291.332L221.083,291.332z"/>
			</g>
		</g>
		<g style="display:inline;">
			<g>
				<path style="fill:#FFFFFF;" d="M260.167,237.104c0,6.756,0,13.513,0,20.269c0,4.504,7,4.512,7,0c0-6.756,0-13.513,0-20.269
					C267.167,232.599,260.167,232.592,260.167,237.104L260.167,237.104z"/>
			</g>
		</g>
	</g>
	<g>
		<g>
			<path style="fill:#FFFFFF;" d="M254.621,139.618c-1.068-12.105-19.416-17.077-29.457-17.341
				c-2.213-0.058-4.217,1.598-4.821,3.671c-2.958,10.151-4.389,20.567-5.881,31.01c-0.719,5.03-1.477,10.057-2.502,15.035
				c-0.805,3.91-2.43,7.921-2.76,11.879c-0.616,7.384,0,15.06,0,22.473c1.667-1.667,3.333-3.333,5-5c-22.152,0-44.304,0-66.456,0
				c1.667,1.667,3.333,3.333,5,5c0-7.405,0.643-15.099,0-22.473c-0.319-3.659-1.948-7.353-2.802-10.94
				c-1.183-4.969-2.085-10-2.937-15.035c-1.823-10.765-3.512-21.514-6.814-31.949c-0.652-2.06-2.576-3.73-4.821-3.671
				c-6.496,0.171-13.086,2.228-18.909,5.017c-2.673,1.281-5.317,2.91-7.362,5.08c-0.946,1.004-1.687,2.091-2.26,3.329
				c-0.298,0.644-0.986,4.111-0.753,2.623c-0.617,3.951-1.42,7.881-2.129,11.816c-3.71,20.588-7.42,41.177-11.13,61.765
				c-3.336,18.514-6.673,37.028-10.009,55.541c-1.203,6.677-1.725,12.86,3.509,18.437c4.851,5.169,10.998,5.537,17.464,5.537
				c40.083,0,80.165,0,120.248,0c12.396,0,24.88,0.437,37.27,0c10.121-0.357,18.976-8.88,17.228-19.424
				c-0.859-5.179-1.863-10.338-2.794-15.504c-6.934-38.477-13.868-76.955-20.801-115.432c-0.167-0.925-0.333-1.85-0.5-2.774
				c-1.14-6.324-10.779-3.644-9.643,2.658c5.921,32.859,11.843,65.719,17.764,98.578c1.513,8.395,3.026,16.79,4.538,25.185
				c0.568,3.151,2.202,7.442,1.922,10.664c-0.524,6.021-7.358,6.049-11.92,6.049c-6.257,0-12.514,0-18.772,0
				c-40.436,0-80.872,0-121.308,0c-6.155,0-25.275,2.945-25.384-6.766c-0.052-4.629,1.797-9.974,2.615-14.512
				c1.646-9.131,3.291-18.263,4.937-27.394c3.819-21.194,7.638-42.388,11.458-63.581c1.325-7.354,2.65-14.707,3.976-22.061
				c0.831-4.611,0.542-7.398,3.938-9.59c4.71-3.04,11.187-5.094,16.807-5.242c-1.607-1.224-3.214-2.447-4.821-3.671
				c3.109,9.826,4.801,19.927,6.499,30.07c0.842,5.029,1.701,10.058,2.819,15.035c0.767,3.414,2.384,7.085,2.878,10.418
				c1.05,7.081,0,15.041,0,22.215c0,2.703,2.291,5,5,5c22.152,0,44.304,0,66.456,0c2.703,0,5-2.291,5-5
				c0-7.21-0.967-15.082,0-22.215c0.456-3.363,1.911-6.986,2.596-10.418c0.994-4.981,1.727-10.008,2.443-15.035
				c1.443-10.131,2.878-20.223,5.747-30.07c-1.607,1.224-3.214,2.447-4.821,3.671c3.812,0.1,7.686,1.238,11.237,2.565
				c1.921,0.718,3.843,1.556,5.57,2.676c0.745,0.483,1.492,0.947,2.1,1.608c0.362,0.392,0.642,1.549,0.549,0.492
				C245.182,145.979,255.188,146.038,254.621,139.618z"/>
		</g>
	</g>
	<g>
		<g>
			<path style="fill:#FFFFFF;" d="M243.613,104.227c-36.553,0-73.107,0-109.66,0c-5.207,0-10.414,0-15.62,0
				c0.825,0.342,1.65,0.683,2.475,1.025c-8.077-9.022-16.154-18.045-24.231-27.067c-0.825,1.992-1.65,3.983-2.475,5.975
				c19.622,0,39.244,0,58.866,0c31.098,0,62.196,0,93.294,0c7.194,0,14.389,0,21.583,0c-0.825-1.992-1.65-3.983-2.475-5.975
				c-8.077,9.022-16.154,18.045-24.231,27.067c-2.997,3.348,1.937,8.315,4.95,4.95c8.077-9.022,16.154-18.045,24.231-27.067
				c1.977-2.209,0.677-5.975-2.475-5.975c-19.622,0-39.244,0-58.866,0c-31.098,0-62.196,0-93.294,0c-7.194,0-14.389,0-21.583,0
				c-3.158,0-4.453,3.765-2.475,5.975c7.709,8.611,15.209,17.47,23.154,25.863c3.77,3.983,11.785,2.229,16.839,2.229
				c28.975,0,57.949,0,86.924,0c8.357,0,16.714,0,25.071,0C248.118,111.227,248.125,104.227,243.613,104.227z"/>
		</g>
	</g>
	<g>
		<g>
			<path style="fill:#FFFFFF;" d="M238.906,70.283c-21.118,0-42.235,0-63.353,0c-13.477,0-26.954,0-40.432,0
				c-5.419,0-10.895-0.266-16.298,0.205c-12.513,1.09-25.026,2.18-37.539,3.27c-4.417,0.385-4.578,7,0,7c22.284,0,44.568,0,66.853,0
				c35.358,0,70.716,0,106.073,0c8.194,0,16.388,0,24.583,0c4.57,0,4.424-6.615,0-7C265.497,72.599,252.202,71.441,238.906,70.283
				c-4.487-0.391-4.461,6.611,0,7c13.296,1.158,26.592,2.316,39.887,3.474c0-2.333,0-4.667,0-7c-22.284,0-44.568,0-66.853,0
				c-35.358,0-70.716,0-106.073,0c-8.194,0-16.388,0-24.583,0c0,2.333,0,4.667,0,7c16.676-1.452,33.297-3.474,50.04-3.474
				c27.689,0,55.378,0,83.067,0c8.171,0,16.343,0,24.514,0C243.41,77.283,243.418,70.283,238.906,70.283z"/>
		</g>
	</g>
	<g>
		<g>
			<path style="fill:#FFFFFF;" d="M140.371,127.277c0-5.884,0-11.769,0-17.653c0-6.435-10-6.445-10,0c0,5.884,0,11.769,0,17.653
				C130.371,133.712,140.371,133.722,140.371,127.277c0-5.884,0-11.769,0-17.653c0-6.435-10-6.445-10,0c0,5.884,0,11.769,0,17.653
				C130.371,133.712,140.371,133.722,140.371,127.277z"/>
		</g>
	</g>
	<g>
		<g>
			<path style="fill:#FFFFFF;" d="M230.165,127.277c0-5.85,0-11.7,0-17.55c0-6.435-10-6.445-10,0c0,5.85,0,11.7,0,17.55
				C220.165,133.712,230.165,133.723,230.165,127.277L230.165,127.277z"/>
		</g>
	</g>
	
		<line style="fill:none;stroke:#FFFFFF;stroke-width:15;stroke-linecap:round;stroke-miterlimit:10;" x1="180.973" y1="112.13" x2="180.973" y2="171.832"/>
	<path style="fill:none;stroke:#FFFFFF;stroke-width:3;stroke-miterlimit:10;" d="M217.476,271.725h-73.625
		c-2.676,0-4.846-2.17-4.846-4.846l0.423-31.55c0-2.677,2.17-4.846,4.846-4.846h72.779c2.676,0,4.846,2.17,4.846,4.846l0.423,31.55
		C222.323,269.556,220.153,271.725,217.476,271.725z"/>
	<circle style="fill:#FFFFFF;" cx="238.849" cy="250.066" r="10.005"/>
</g>
<g id="Ebene_1">
</g>
</svg>
