<?xml version="1.0" encoding="iso-8859-1"?>
<!-- Generator: Adobe Illustrator 16.0.3, SVG Export Plug-In . SVG Version: 6.00 Build 0)  -->
<!DOCTYPE svg PUBLIC "-//W3C//DTD SVG 1.1//EN" "http://www.w3.org/Graphics/SVG/1.1/DTD/svg11.dtd">
<svg version="1.1" xmlns="http://www.w3.org/2000/svg" xmlns:xlink="http://www.w3.org/1999/xlink" x="0px" y="0px" width="361px"
	 height="361px" viewBox="0 0 361 361" style="enable-background:new 0 0 361 361;" xml:space="preserve">
<g id="scene_x5F_gas_x5F_station">
	<path style="fill:none;stroke:#FFFFFF;stroke-miterlimit:10;" d="M90.237,285.182"/>
	<g>
		<g>
			<path style="fill:#FFFFFF;" d="M111.325,257.168v11.308c0,5.625,4.561,10.186,10.186,10.186h103.113
				c5.625,0,10.186-4.561,10.186-10.186v-11.308H111.325z"/>
		</g>
		<g>
			<path style="fill:#FFFFFF;" d="M234.81,259.168V81.289c0-6.067-4.562-10.985-10.187-10.985H121.511
				c-5.625,0-10.186,4.918-10.186,10.985v177.879H234.81z M129.39,90.89c0-2.568,2.081-4.65,4.649-4.65h78.057
				c2.567,0,4.65,2.082,4.65,4.65v47.072c0,2.568-2.083,4.65-4.65,4.65h-78.057c-2.568,0-4.649-2.082-4.649-4.649V90.89z"/>
		</g>
	</g>
	<g>
		<g>
			<path style="fill:#FFFFFF;" d="M223.338,285.398c-0.645,3.994-7.198,2.605-9.742,2.605c-6.281,0-12.563,0-18.845,0
				c-15.917,0-31.834,0-47.752,0c-5.689,0-11.379,0-17.068,0c-3.245,0-7.063,0.814-7.063-3.807c0-6.81,0-13.619,0-20.429
				c0-4.338,4.707-3.303,7.546-3.303c22.907,0,45.814,0,68.722,0c7.24,0,14.48,0,21.722,0c3.879,0,2.409,9.772,2.409,11.828
				c0,4.545,0,9.091,0,13.636c0,2.579,4,2.579,4,0c0-6.058,0-12.115,0-18.173c0-4.62,0.396-11.291-6.196-11.291
				c-9.685,0-19.37,0-29.055,0c-15.842,0-31.684,0-47.525,0c-5.296,0-10.593,0-15.889,0c-3.771,0-7.203-0.186-9.252,3.777
				c-0.837,1.618-0.481,4.204-0.481,5.951c0,3.958,0,7.917,0,11.875c0,4.845-1.362,13.935,6.074,13.935c8.814,0,17.627,0,26.441,0
				c15.917,0,31.835,0,47.752,0c5.689,0,11.379,0,17.068,0c2.559,0,6.814,0.622,8.809-1.372c1.283-1.283,1.893-2.372,2.183-4.171
				C227.603,283.938,223.748,282.856,223.338,285.398z"/>
		</g>
	</g>
	<g>
		<path style="fill:#FFFFFF;" d="M222.874,166.267c-2.25,0-4.074-1.824-4.074-4.074v-56.246c0-2.25,1.824-4.074,4.074-4.074h16.389
			c2.25,0,4.074,1.824,4.074,4.074v56.246c0,2.25-1.824,4.074-4.074,4.074H222.874z"/>
	</g>
	<g>
		<path style="fill:#FFFFFF;" d="M242.916,150.844c-1.202,0.495-2.578-0.078-3.074-1.28l-12.383-30.056
			c-0.495-1.203,0.077-2.579,1.28-3.074l8.757-3.608c1.203-0.496,2.579,0.078,3.074,1.28l12.384,30.056
			c0.495,1.203-0.078,2.579-1.28,3.074L242.916,150.844z"/>
	</g>
	<path style="fill:none;stroke:#FFFFFF;stroke-width:10;stroke-miterlimit:10;" d="M235.084,126.541
		c0,0,36.625,106.875,36.083,119.322l0,0c0,11.424-8.05,20.137-17.999,20.137s-18-9.244-18-20.667v0.53V139.916"/>
</g>
<g id="Ebene_1">
</g>
</svg>
