<?xml version="1.0" encoding="iso-8859-1"?>
<!-- Generator: Adobe Illustrator 16.0.0, SVG Export Plug-In . SVG Version: 6.00 Build 0)  -->
<!DOCTYPE svg PUBLIC "-//W3C//DTD SVG 1.1//EN" "http://www.w3.org/Graphics/SVG/1.1/DTD/svg11.dtd">
<svg version="1.1" xmlns="http://www.w3.org/2000/svg" xmlns:xlink="http://www.w3.org/1999/xlink" x="0px" y="0px" width="361px"
	 height="361px" viewBox="0 0 361 361" style="enable-background:new 0 0 361 361;" xml:space="preserve">
<g id="scene_x5F_cooking_x5F_alternat">
	<g>
		<g>
			<path style="fill:#FFFFFF;" d="M165.69,168.656c10.06,0,20.12,0,30.18,0c9.686,0,9.771-15.003,0.107-15.003
				c-10.06,0-20.12,0-30.179,0C156.112,153.653,156.026,168.656,165.69,168.656L165.69,168.656z"/>
		</g>
	</g>
	<g>
		<g>
			<g>
				<path style="fill:#FFFFFF;" d="M178.955,75.715c3.411,3.031,6.406,6.828,7.659,11.259c1.488,5.266-4.036,11.148-7.58,14.384
					c-3.122,2.851-5.805,6.183-7.817,9.904c-3.584,6.626-1.973,13.292,2.039,19.291c2.495,3.731,8.562,0.231,6.044-3.533
					c-2.646-3.958-4.132-7.697-2.038-12.225c1.292-2.792,3.384-5.19,5.525-7.361c2.416-2.45,4.768-4.784,6.832-7.576
					c7.535-10.192,2.982-21.365-5.714-29.094C180.543,67.777,175.574,72.71,178.955,75.715L178.955,75.715z"/>
			</g>
		</g>
		<g>
			<g>
				<path style="fill:#FFFFFF;" d="M212.678,82.333c3.14,2.797,6.478,6.677,6.781,11.029c0.286,4.098-3.941,8.5-6.781,11.031
					c-8.075,7.197-11.428,16.676-5.085,26.161c2.496,3.731,8.563,0.231,6.045-3.533c-4.32-6.459-2.221-11.327,2.77-16.512
					c2.237-2.325,4.466-4.479,6.398-7.107c6.687-9.092,2.532-19.149-5.179-26.02C214.27,74.391,209.301,79.324,212.678,82.333
					L212.678,82.333z"/>
			</g>
		</g>
		<g>
			<g>
				<path style="fill:#FFFFFF;" d="M143.373,82.333c3.14,2.797,6.478,6.677,6.782,11.029c0.286,4.098-3.942,8.5-6.782,11.031
					c-8.075,7.197-11.427,16.676-5.084,26.161c2.495,3.731,8.562,0.231,6.044-3.533c-4.319-6.459-2.22-11.327,2.771-16.512
					c2.238-2.325,4.466-4.479,6.398-7.107c6.687-9.092,2.532-19.149-5.178-26.02C144.964,74.391,139.996,79.324,143.373,82.333
					L143.373,82.333z"/>
			</g>
		</g>
	</g>
	<g>
		<g>
			<path style="fill:#FFFFFF;" d="M101.464,192.796c0.129-3.297,3.749-5.594,6.239-7.136c5.47-3.388,11.834-5.287,18-6.94
				c17.868-4.792,36.703-6.051,55.13-6.11c4.514-0.015,4.515-7.015,0-7c-20.745,0.066-42.048,1.714-61.987,7.788
				c-8.981,2.736-23.934,7.985-24.382,19.398C94.287,197.312,101.287,197.295,101.464,192.796L101.464,192.796z"/>
			<path style="fill:#FFFFFF;" d="M267.203,192.796c-0.451-11.491-15.411-16.546-24.383-19.398
				c-19.778-6.287-41.369-7.721-61.987-7.788c-4.515-0.015-4.513,6.985,0,7c18.507,0.06,37.159,1.491,55.131,6.11
				c5.944,1.527,11.836,3.497,17.217,6.481c2.719,1.509,6.884,4.065,7.022,7.595C260.38,197.295,267.381,197.312,267.203,192.796
				L267.203,192.796z"/>
		</g>
	</g>
	<g>
		<g>
			<path style="fill:#FFFFFF;" d="M282.591,208.188c-4.282,0-8.564,0-12.848,0c-4.085,0-7.528,3.342-7.556,7.448
				c-0.026,4.065,3.361,7.556,7.448,7.556c4.282,0,8.564,0,12.848,0c4.085,0,7.528-3.342,7.556-7.448
				C290.065,211.678,286.678,208.188,282.591,208.188L282.591,208.188z"/>
		</g>
	</g>
	<g>
		<g>
			<path style="fill:none;stroke:#FFFFFF;stroke-width:10;stroke-miterlimit:10;" d="M264.556,280.99
				c0,3.052-2.474,5.525-5.525,5.525H102.487c-3.051,0-5.525-2.474-5.525-5.525v-77.557c0-3.051,2.475-5.525,5.525-5.525H259.03
				c3.052,0,5.525,2.475,5.525,5.525V280.99z"/>
			<g>
				<g>
					<path style="fill:#FFFFFF;" d="M91.828,202.908c49.961,0,99.922,0,149.883,0c9.326,0,18.652,0,27.979,0c6.448,0,6.448-10,0-10
						c-49.961,0-99.922,0-149.883,0c-9.326,0-18.652,0-27.979,0C85.379,192.908,85.379,202.908,91.828,202.908L91.828,202.908z"/>
				</g>
			</g>
		</g>
		<g>
			<g>
				<path style="fill:#FFFFFF;" d="M91.882,208.188c-4.283,0-8.565,0-12.847,0c-4.086,0-7.529,3.342-7.556,7.448
					c-0.027,4.065,3.361,7.556,7.447,7.556c4.283,0,8.565,0,12.847,0c4.086,0,7.529-3.342,7.556-7.448
					C99.356,211.678,95.968,208.188,91.882,208.188L91.882,208.188z"/>
			</g>
		</g>
	</g>
</g>
<g id="Ebene_1">
</g>
</svg>
