<?xml version="1.0" encoding="iso-8859-1"?>
<!-- Generator: Adobe Illustrator 16.0.0, SVG Export Plug-In . SVG Version: 6.00 Build 0)  -->
<!DOCTYPE svg PUBLIC "-//W3C//DTD SVG 1.1//EN" "http://www.w3.org/Graphics/SVG/1.1/DTD/svg11.dtd">
<svg version="1.1" xmlns="http://www.w3.org/2000/svg" xmlns:xlink="http://www.w3.org/1999/xlink" x="0px" y="0px" width="361px"
	 height="361px" viewBox="0 0 361 361" style="enable-background:new 0 0 361 361;" xml:space="preserve">
<g id="scene_x5F_plant">
	<g>
		<g>
			<path style="fill:#FFFFFF;" d="M274.685,153.044c0.449-1.16-1.253,1.571-1.773,2.163c-1.863,2.121-4.017,4.057-6.254,5.773
				c-6.446,4.944-13.851,8.323-21.667,10.426c-8.954,2.409-18.991,3.291-28.204,1.991c-4.5-0.635-11.894-1.938-13.465-7.029
				c-1.493-4.837,6.21-9.057,9.41-10.797c7.992-4.346,17.546-6.125,26.533-6.721c7.897-0.523,15.951-0.068,23.729,1.382
				c3.035,0.566,6.205,1.291,9.047,2.529c0.96,0.418,1.858,0.95,2.728,1.53C275.813,154.987,274.383,154.266,274.685,153.044
				c-1.549,6.261,8.095,8.916,9.643,2.658c4.117-16.649-31.828-17.089-40.691-17.013c-11.534,0.099-22.896,2.4-33.461,7.031
				c-7.539,3.305-16.401,9.765-16.924,18.777c-1.251,21.6,32.262,20.08,45.548,18.27c11.494-1.567,22.481-5.748,31.957-12.453
				c5.191-3.673,11.197-8.487,13.571-14.611C286.662,149.681,276.989,147.099,274.685,153.044z"/>
		</g>
	</g>
	<g>
		<g>
			<path style="fill:#FFFFFF;" d="M184.859,192.657c0.01-12.113,18.134-19.117,27.21-22.521
				c20.972-7.867,43.845-10.605,66.104-11.221c6.436-0.178,6.452-10.179,0-10c-24.828,0.687-50.509,3.923-73.613,13.489
				c-12.584,5.21-29.689,14.491-29.701,30.253C174.855,199.106,184.855,199.105,184.859,192.657L184.859,192.657z"/>
		</g>
	</g>
	<g>
		<g>
			<path style="fill:#FFFFFF;" d="M94.047,122.732c-1.013,0.867,0.761-0.354,1.035-0.494c0.829-0.422,1.725-0.698,2.602-0.997
				c2.966-1.012,6.106-1.68,9.21-2.086c9.252-1.21,18.376,0.045,27.262,2.696c7.657,2.285,15.011,5.642,21.491,10.342
				c2.951,2.141,7.457,6.001,6.345,10.126c-1.143,4.243-10.018,4.137-13.123,4.143c-8.69,0.014-17.379-2.518-25.38-5.725
				c-7.069-2.833-13.806-6.789-20.003-11.188c-2.41-1.711-4.642-3.66-6.694-5.785c-0.679-0.703-1.237-1.426-1.758-2.246
				C94.358,120.455,94.869,121.797,94.047,122.732c4.238-4.823-2.807-11.924-7.071-7.071
				c-15.191,17.287,63.756,58.344,82.673,33.199c11.702-15.555-14.037-29.313-24.856-33.822
				c-11.516-4.798-24.026-7.098-36.477-6.036c-6.966,0.594-15.812,1.926-21.34,6.659C82.07,119.862,89.178,126.902,94.047,122.732z"
				/>
		</g>
	</g>
	<g>
		<g>
			<path style="fill:#FFFFFF;" d="M183.833,163.167c-0.366-13.523-14.683-21.794-25.331-27.098
				c-18.311-9.122-38.669-14.402-58.673-18.223c-6.3-1.204-8.988,8.434-2.658,9.643c17.319,3.309,34.676,7.756,50.912,14.734
				c6.456,2.774,13.012,6.035,18.546,10.415c3.225,2.552,7.084,6.113,7.204,10.53C174.007,169.603,184.008,169.62,183.833,163.167
				L183.833,163.167z"/>
		</g>
	</g>
	<g>
		<g>
			<path style="fill:#FFFFFF;" d="M189.11,77.558c3.649,4.807,2.158,13.581,0.697,18.775c-0.837,2.975-5.751,15.35-9.375,14.816
				c-3.812-0.562,1.27-15.521,2.12-17.406c1.572-3.487,3.631-6.888,5.986-9.902c0.96-1.229,2.037-2.353,3.16-3.432
				c2.067-1.987,1.166,0.512-1.806-1.839c4.999,3.955,12.127-3.072,7.07-7.071c-8.645-6.839-17.322,7.017-20.996,13.257
				c-5.263,8.938-10.894,24.848-2.531,33.635c8.413,8.839,18.832-3.697,22.445-10.549c3.388-6.423,5.216-13.567,5.316-20.813
				c0.062-4.464-0.634-10.805-3.452-14.518C193.899,67.446,185.208,72.419,189.11,77.558z"/>
		</g>
	</g>
	<g>
		<g>
			<path style="fill:#FFFFFF;" d="M174.167,119.334c0,28.667,0,57.333,0,86c0,6.448,10,6.448,10,0c0-28.667,0-57.333,0-86
				C184.166,112.886,174.167,112.886,174.167,119.334L174.167,119.334z"/>
		</g>
	</g>
	<g>
		<g>
			<path style="fill:#FFFFFF;" d="M219.353,221.405c-1.729,11.702-3.456,23.405-5.185,35.107
				c-0.929,6.296-1.858,12.592-2.788,18.888c-0.189,1.279-0.438,2.578-0.554,3.867c-0.215,2.397-2.534,2.066-4.229,2.066
				c-14.191,0-28.383,0-42.575,0c-3.932,0-7.863,0-11.794,0c-2.838,0-3.205-9.895-3.496-11.862
				c-2.366-16.022-4.731-32.044-7.097-48.066c-1.607,2.109-3.214,4.22-4.821,6.329c29.12,0,58.241,0,87.361,0c6.448,0,6.448-10,0-10
				c-29.12,0-58.241,0-87.361,0c-3.549,0-5.288,3.173-4.821,6.329c1.728,11.703,3.456,23.405,5.184,35.108
				c0.93,6.295,1.859,12.591,2.789,18.887c1.052,7.126,4.153,12.549,12.263,13.275c11.688,1.048,23.941,0,35.671,0
				c10.639,0,30.603,3.799,32.753-10.76c2.781-18.837,5.563-37.674,8.344-56.511C229.927,217.758,220.292,215.044,219.353,221.405z"
				/>
		</g>
	</g>
	<g>
		<g>
			<path style="fill:#FFFFFF;" d="M229.826,214.001c-0.354,4.384-6.026,3.333-9.076,3.333c-6.036,0-12.072,0-18.108,0
				c-15.924,0-31.847,0-47.77,0c-5.511,0-11.022,0-16.534,0c-1.164,0-2.327,0-3.491,0c-4.463,0-4.916-6.299-0.354-6.667
				c9.033-0.729,18.425,0,27.48,0c14.714,0,29.428,0,44.142,0c5.209,0,10.418,0,15.626,0
				C224.679,210.667,229.488,209.809,229.826,214.001c0.515,6.382,10.519,6.432,10,0c-0.65-8.065-6.376-13.334-14.456-13.334
				c-4.293,0-8.586,0-12.879,0c-15.587,0-31.174,0-46.761,0c-10.336,0-20.673,0-31.009,0c-10.678,0-15.782,10.615-11.948,19.688
				c2.421,5.729,8.886,6.979,14.369,6.979c19.372,0,38.743,0,58.115,0c8.828,0,17.656,0,26.484,0c1.565,0,3.13,0,4.694,0
				c7.691,0,12.806-6.084,13.391-13.333C240.345,207.569,230.341,207.619,229.826,214.001z"/>
		</g>
	</g>
</g>
<g id="Ebene_1">
</g>
</svg>
