<?xml version="1.0" encoding="iso-8859-1"?>
<!-- Generator: Adobe Illustrator 16.0.0, SVG Export Plug-In . SVG Version: 6.00 Build 0)  -->
<!DOCTYPE svg PUBLIC "-//W3C//DTD SVG 1.1//EN" "http://www.w3.org/Graphics/SVG/1.1/DTD/svg11.dtd">
<svg version="1.1" xmlns="http://www.w3.org/2000/svg" xmlns:xlink="http://www.w3.org/1999/xlink" x="0px" y="0px" width="361px"
	 height="361px" viewBox="0 0 361 361" style="enable-background:new 0 0 361 361;" xml:space="preserve">
<g id="scene_x5F_bumper_x5F_car">
	<path style="fill:none;stroke:#FFFFFF;stroke-miterlimit:10;" d="M44.239,121.792"/>
	<g style="display:none;">
		<g style="display:inline;">
			<g>
				<path style="fill:#FFFFFF;" d="M187.958,202.729c-3.132-5.025-8.472-2.211-13.063-0.98c-4.172,1.117-12.376,1.864-10.647,8.317
					c2.292,8.554,4.584,17.108,6.876,25.663c1.717,6.407,9.289,2.923,13.415,1.816c4.172-1.117,12.376-1.865,10.647-8.316
					c-2.292-8.555-4.585-17.109-6.877-25.664c-1.167-4.355-7.92-2.505-6.75,1.861c1.146,4.277,2.292,8.555,3.438,12.832
					c1.069,3.988,3.408,9.111,3.27,13.195c0.342-0.825,0.684-1.65,1.025-2.476c0.297-0.291,1.13-0.257,0.16,0.003
					c-0.804,0.215-1.607,0.431-2.41,0.646c-2.362,0.633-4.724,1.266-7.086,1.898c-1.539,0.412-3.077,0.824-4.615,1.236
					c2.246-0.602,2.827,2.207,2.34,0.388c-0.174-0.649-0.349-1.3-0.523-1.95c-1.247-4.653-2.494-9.307-3.741-13.961
					c-0.774-2.891-2.351-6.455-2.251-9.397c-0.342,0.825-0.684,1.65-1.025,2.475c-0.297,0.292-1.132,0.259-0.161-0.002
					c0.56-0.149,1.12-0.3,1.679-0.449c1.699-0.455,3.397-0.911,5.096-1.366s3.397-0.91,5.096-1.365
					c0.56-0.149,1.119-0.3,1.679-0.449c1.616-0.434-1.088,0.43-1.618-0.421C184.295,210.083,190.353,206.571,187.958,202.729z"/>
			</g>
		</g>
		<g style="display:inline;">
			<g>
				<path style="fill:#FFFFFF;" d="M182.625,185.592c-2.802,5.257,2.261,8.43,5.646,11.816c3.037,3.037,7.816,9.806,12.524,5.098
					c6.263-6.262,12.525-12.524,18.787-18.787c4.708-4.707-2.062-9.488-5.099-12.525s-7.816-9.805-12.523-5.098
					c-6.263,6.263-12.525,12.525-18.788,18.788c-3.195,3.194,1.755,8.144,4.949,4.949c3.132-3.131,6.263-6.263,9.395-9.394
					c2.935-2.935,6.195-7.519,9.828-9.456c-0.899,0.118-1.798,0.235-2.697,0.353c-0.38-0.106-0.792-0.873-0.072-0.152
					c0.41,0.41,0.819,0.82,1.229,1.229c1.243,1.244,2.486,2.487,3.73,3.73c1.243,1.243,2.486,2.487,3.729,3.73
					c0.41,0.41,0.82,0.819,1.229,1.229c0.721,0.72-0.046,0.308-0.151-0.071c0.117-0.899,0.234-1.798,0.353-2.697
					c-1.936,3.632-6.521,6.894-9.455,9.828c-2.935,2.935-6.195,7.519-9.828,9.455c0.898-0.117,1.798-0.235,2.697-0.353
					c0.378,0.105,0.792,0.873,0.071,0.152c-0.41-0.409-0.819-0.819-1.229-1.229c-1.243-1.243-2.486-2.486-3.73-3.73
					c-1.243-1.243-2.486-2.487-3.729-3.73c-0.41-0.409-0.82-0.819-1.229-1.229c-0.721-0.72,0.046-0.308,0.151,0.072
					c-0.117,0.898-0.234,1.798-0.353,2.696c0.203-0.38,0.406-0.761,0.609-1.142C190.792,185.144,184.75,181.607,182.625,185.592z"/>
			</g>
		</g>
		<g style="display:inline;">
			<g>
				<path style="fill:#FFFFFF;" d="M170.451,198.872c5.934-0.2,6.152-6.165,7.386-10.772c1.106-4.126,4.591-11.698-1.816-13.415
					c-8.555-2.292-17.109-4.584-25.664-6.877c-6.451-1.729-7.199,6.477-8.317,10.647c-1.106,4.126-4.591,11.699,1.816,13.416
					c8.555,2.292,17.109,4.584,25.664,6.876c4.367,1.17,6.217-5.583,1.861-6.75c-7.451-1.996-14.901-3.992-22.351-5.988
					c-1.089-0.292-2.177-0.583-3.266-0.875c1.805,0.483,0.681,3.931,1.333,1.496c0.245-0.915,0.49-1.83,0.735-2.745
					c0.638-2.379,1.275-4.758,1.913-7.137c0.245-0.915,0.49-1.83,0.735-2.745c0.298-1.11,0.641-0.827,0.125-0.3
					c-0.825,0.342-1.65,0.683-2.475,1.025c2.667-0.092,5.856,1.302,8.484,2.006c4.744,1.271,9.487,2.542,14.23,3.813
					c1.089,0.292,2.177,0.583,3.266,0.875c-1.805-0.483-0.681-3.932-1.333-1.497c-0.245,0.915-0.49,1.83-0.735,2.745
					c-0.638,2.379-1.275,4.759-1.913,7.138c-0.245,0.915-0.49,1.83-0.735,2.745c-0.297,1.108-0.642,0.828-0.125,0.301
					c0.825-0.342,1.65-0.684,2.475-1.025c-0.432,0.015-0.863,0.029-1.294,0.044C165.95,192.023,165.935,199.024,170.451,198.872z"/>
			</g>
		</g>
		<g style="display:inline;">
			<g>
				<path style="fill:#FFFFFF;" d="M178.21,199.799c0.731-2.727,1.462-5.454,2.192-8.182c-0.835,0.221-1.671,0.441-2.507,0.662
					c1.996,1.996,3.993,3.993,5.989,5.989c0.221-0.836,0.441-1.671,0.662-2.507c-2.728,0.73-5.455,1.462-8.182,2.192
					c-1.867,0.5-1.074,3.395,0.798,2.893c2.727-0.73,5.455-1.462,8.181-2.192c1.093-0.293,1.456-1.713,0.662-2.507
					c-1.996-1.996-3.993-3.993-5.989-5.989c-0.794-0.794-2.214-0.431-2.507,0.662c-0.731,2.727-1.462,5.454-2.192,8.182
					C174.816,200.873,177.71,201.666,178.21,199.799z"/>
			</g>
		</g>
	</g>
	<g>
		<g>
			<path style="fill:#FFFFFF;" d="M96.007,248.91c-2.399-0.215-4.559-2.644-5.934-4.43c-0.972-1.264-1.516-2.334-1.614-2.636
				c-1.256-3.889-1.448-7.944-1.119-11.994c0.805-9.894,9.759-17.592,16.553-23.875c7.433-6.874,15.602-13.327,24.693-17.864
				c1.54-0.769,3.142-1.335,4.801-1.787c1.453-0.396,2.89,0.263,0.945-0.595c2.335,1.029,4.239,3.061,6.117,4.788
				c9.625,8.858,18.324,18.861,26.829,28.784c1.768,2.063,5.22,1.461,7.644,1.442c3.417-0.025,6.834-0.032,10.251-0.038
				c8.771-0.018,17.541-0.008,26.312,0.004c11.282,0.016,22.565,0.041,33.848,0.078c2.727,0.009,4.999-2.281,5-5
				c0.006-11.691,0.013-23.383,0.019-35.074c-1.667,1.667-3.333,3.333-5,5c6.015-0.015,12.029-0.03,18.045-0.045
				c6.505-0.017,5.781,6.174,5.781,10.683c0,14.36,0,28.721,0,43.081c0,3.987,0.339,9.478-5.381,9.478c-2.127,0-4.254,0-6.38,0
				c-11.155,0-22.31,0-33.465,0C181.304,248.91,138.656,248.91,96.007,248.91c-6.449,0-6.449,10,0,10c49.826,0,99.652,0,149.478,0
				c6.146,0,12.291,0,18.436,0c8.444,0,15.257-7.021,15.257-15.404c0-4.893,0-9.786,0-14.679c0-12.586,0-25.172,0-37.757
				c0-8.781-7.145-15.423-15.781-15.401c-6.016,0.015-12.03,0.03-18.045,0.045c-2.727,0.007-4.999,2.27-5,5
				c-0.006,11.691-0.013,23.383-0.019,35.074c1.667-1.667,3.333-3.333,5-5c-24.826-0.081-49.676-0.396-74.5,0
				c1.179,0.488,2.357,0.977,3.536,1.465c-7.338-8.572-14.907-16.991-22.881-24.978c-3.592-3.598-7.709-8.243-12.452-10.332
				c-6.257-2.756-13.918,1.508-19.29,4.562c-7.95,4.521-15.202,10.466-21.993,16.552c-6.257,5.608-12.71,11.836-16.813,19.252
				c-7.61,13.755-4.234,39.872,15.068,41.601C102.433,259.485,102.377,249.48,96.007,248.91z"/>
		</g>
	</g>
	<g style="display:none;">
		<g style="display:inline;">
			<g>
				<path style="fill:#FFFFFF;" d="M109,278.834c1.903,0,3.806,0,5.709,0c1.935,0,1.935-3,0-3c-1.903,0-3.806,0-5.709,0
					C107.066,275.834,107.066,278.834,109,278.834L109,278.834z"/>
			</g>
		</g>
		<g style="display:inline;">
			<g>
				<path style="fill:#FFFFFF;" d="M120.651,278.834c1.903,0,3.806,0,5.709,0c1.935,0,1.935-3,0-3c-1.903,0-3.806,0-5.709,0
					C118.717,275.834,118.717,278.834,120.651,278.834L120.651,278.834z"/>
			</g>
		</g>
		<g style="display:inline;">
			<g>
				<path style="fill:#FFFFFF;" d="M132.302,278.834c1.903,0,3.806,0,5.709,0c1.935,0,1.935-3,0-3c-1.903,0-3.806,0-5.709,0
					C130.368,275.834,130.368,278.834,132.302,278.834L132.302,278.834z"/>
			</g>
		</g>
		<g style="display:inline;">
			<g>
				<path style="fill:#FFFFFF;" d="M143.953,278.834c1.903,0,3.806,0,5.709,0c1.935,0,1.935-3,0-3c-1.903,0-3.806,0-5.709,0
					C142.019,275.834,142.019,278.834,143.953,278.834L143.953,278.834z"/>
			</g>
		</g>
		<g style="display:inline;">
			<g>
				<path style="fill:#FFFFFF;" d="M155.604,278.834c1.903,0,3.806,0,5.709,0c1.935,0,1.935-3,0-3c-1.903,0-3.806,0-5.709,0
					C153.669,275.834,153.669,278.834,155.604,278.834L155.604,278.834z"/>
			</g>
		</g>
		<g style="display:inline;">
			<g>
				<path style="fill:#FFFFFF;" d="M167.255,278.834c1.903,0,3.806,0,5.709,0c1.935,0,1.935-3,0-3c-1.903,0-3.806,0-5.709,0
					C165.32,275.834,165.32,278.834,167.255,278.834L167.255,278.834z"/>
			</g>
		</g>
		<g style="display:inline;">
			<g>
				<path style="fill:#FFFFFF;" d="M178.906,278.834c1.903,0,3.806,0,5.709,0c1.935,0,1.935-3,0-3c-1.903,0-3.806,0-5.709,0
					C176.971,275.834,176.971,278.834,178.906,278.834L178.906,278.834z"/>
			</g>
		</g>
		<g style="display:inline;">
			<g>
				<path style="fill:#FFFFFF;" d="M190.557,278.834c1.903,0,3.806,0,5.709,0c1.935,0,1.935-3,0-3c-1.903,0-3.806,0-5.709,0
					C188.622,275.834,188.622,278.834,190.557,278.834L190.557,278.834z"/>
			</g>
		</g>
		<g style="display:inline;">
			<g>
				<path style="fill:#FFFFFF;" d="M202.208,278.834c1.903,0,3.806,0,5.709,0c1.935,0,1.935-3,0-3c-1.903,0-3.806,0-5.709,0
					C200.273,275.834,200.273,278.834,202.208,278.834L202.208,278.834z"/>
			</g>
		</g>
		<g style="display:inline;">
			<g>
				<path style="fill:#FFFFFF;" d="M213.859,278.834c1.903,0,3.806,0,5.709,0c1.935,0,1.935-3,0-3c-1.903,0-3.806,0-5.709,0
					C211.925,275.834,211.925,278.834,213.859,278.834L213.859,278.834z"/>
			</g>
		</g>
		<g style="display:inline;">
			<g>
				<path style="fill:#FFFFFF;" d="M225.51,278.834c1.903,0,3.806,0,5.709,0c1.935,0,1.935-3,0-3c-1.903,0-3.806,0-5.709,0
					C223.575,275.834,223.575,278.834,225.51,278.834L225.51,278.834z"/>
			</g>
		</g>
		<g style="display:inline;">
			<g>
				<path style="fill:#FFFFFF;" d="M237.16,278.834c1.903,0,3.806,0,5.709,0c1.935,0,1.935-3,0-3c-1.903,0-3.806,0-5.709,0
					C235.226,275.834,235.226,278.834,237.16,278.834L237.16,278.834z"/>
			</g>
		</g>
		<g style="display:inline;">
			<g>
				<path style="fill:#FFFFFF;" d="M248.812,278.834c1.903,0,3.806,0,5.709,0c1.935,0,1.935-3,0-3c-1.903,0-3.806,0-5.709,0
					C246.877,275.834,246.877,278.834,248.812,278.834L248.812,278.834z"/>
			</g>
		</g>
		<g style="display:inline;">
			<g>
				<path style="fill:#FFFFFF;" d="M260.463,278.834c1.903,0,3.806,0,5.709,0c1.935,0,1.935-3,0-3c-1.903,0-3.806,0-5.709,0
					C258.528,275.834,258.528,278.834,260.463,278.834L260.463,278.834z"/>
			</g>
		</g>
		<g style="display:inline;">
			<g>
				<path style="fill:#FFFFFF;" d="M272.113,278.834c1.903,0,3.806,0,5.709,0c1.935,0,1.935-3,0-3c-1.903,0-3.806,0-5.709,0
					C270.179,275.834,270.179,278.834,272.113,278.834L272.113,278.834z"/>
			</g>
		</g>
		<g style="display:inline;">
			<g>
				<path style="fill:#FFFFFF;" d="M283.764,278.834c1.903,0,3.806,0,5.709,0c1.935,0,1.935-3,0-3c-1.903,0-3.806,0-5.709,0
					C281.829,275.834,281.829,278.834,283.764,278.834L283.764,278.834z"/>
			</g>
		</g>
		<g style="display:inline;">
			<g>
				<g>
					<g>
						<path style="fill:#FFFFFF;" d="M107.683,160.834c1.903,0,3.806,0,5.709,0c1.935,0,1.935-3,0-3c-1.903,0-3.806,0-5.709,0
							C105.749,157.834,105.749,160.834,107.683,160.834L107.683,160.834z"/>
					</g>
				</g>
				<g>
					<g>
						<path style="fill:#FFFFFF;" d="M119.334,160.834c1.903,0,3.806,0,5.709,0c1.935,0,1.935-3,0-3c-1.903,0-3.806,0-5.709,0
							C117.399,157.834,117.399,160.834,119.334,160.834L119.334,160.834z"/>
					</g>
				</g>
				<g>
					<g>
						<path style="fill:#FFFFFF;" d="M130.985,160.834c1.903,0,3.806,0,5.709,0c1.935,0,1.935-3,0-3c-1.903,0-3.806,0-5.709,0
							C129.05,157.834,129.05,160.834,130.985,160.834L130.985,160.834z"/>
					</g>
				</g>
				<g>
					<g>
						<path style="fill:#FFFFFF;" d="M142.636,160.834c1.903,0,3.806,0,5.709,0c1.935,0,1.935-3,0-3c-1.903,0-3.806,0-5.709,0
							C140.701,157.834,140.701,160.834,142.636,160.834L142.636,160.834z"/>
					</g>
				</g>
				<g>
					<g>
						<path style="fill:#FFFFFF;" d="M154.287,160.834c1.903,0,3.806,0,5.709,0c1.935,0,1.935-3,0-3c-1.903,0-3.806,0-5.709,0
							C152.352,157.834,152.352,160.834,154.287,160.834L154.287,160.834z"/>
					</g>
				</g>
				<g>
					<g>
						<path style="fill:#FFFFFF;" d="M165.938,160.834c1.903,0,3.806,0,5.709,0c1.935,0,1.935-3,0-3c-1.903,0-3.806,0-5.709,0
							C164.003,157.834,164.003,160.834,165.938,160.834L165.938,160.834z"/>
					</g>
				</g>
				<g>
					<g>
						<path style="fill:#FFFFFF;" d="M177.588,160.834c1.903,0,3.806,0,5.708,0c1.935,0,1.935-3,0-3c-1.902,0-3.806,0-5.708,0
							C175.654,157.834,175.654,160.834,177.588,160.834L177.588,160.834z"/>
					</g>
				</g>
				<g>
					<g>
						<path style="fill:#FFFFFF;" d="M189.239,160.834c1.903,0,3.806,0,5.709,0c1.935,0,1.935-3,0-3c-1.903,0-3.806,0-5.709,0
							C187.305,157.834,187.305,160.834,189.239,160.834L189.239,160.834z"/>
					</g>
				</g>
				<g>
					<g>
						<path style="fill:#FFFFFF;" d="M200.891,160.834c1.903,0,3.806,0,5.709,0c1.935,0,1.935-3,0-3c-1.903,0-3.806,0-5.709,0
							C198.956,157.834,198.956,160.834,200.891,160.834L200.891,160.834z"/>
					</g>
				</g>
				<g>
					<g>
						<path style="fill:#FFFFFF;" d="M212.541,160.834c1.903,0,3.806,0,5.709,0c1.935,0,1.935-3,0-3c-1.903,0-3.806,0-5.709,0
							C210.606,157.834,210.606,160.834,212.541,160.834L212.541,160.834z"/>
					</g>
				</g>
				<g>
					<g>
						<path style="fill:#FFFFFF;" d="M224.192,160.834c1.903,0,3.806,0,5.709,0c1.935,0,1.935-3,0-3c-1.903,0-3.806,0-5.709,0
							C222.258,157.834,222.258,160.834,224.192,160.834L224.192,160.834z"/>
					</g>
				</g>
				<g>
					<g>
						<path style="fill:#FFFFFF;" d="M235.844,160.834c1.903,0,3.806,0,5.709,0c1.935,0,1.935-3,0-3c-1.903,0-3.806,0-5.709,0
							C233.909,157.834,233.909,160.834,235.844,160.834L235.844,160.834z"/>
					</g>
				</g>
				<g>
					<g>
						<path style="fill:#FFFFFF;" d="M247.494,160.834c1.903,0,3.806,0,5.709,0c1.935,0,1.935-3,0-3c-1.903,0-3.806,0-5.709,0
							C245.56,157.834,245.56,160.834,247.494,160.834L247.494,160.834z"/>
					</g>
				</g>
			</g>
			<g>
				<g>
					<g>
						<path style="fill:#FFFFFF;" d="M107.648,245.167c1.903,0,3.806,0,5.709,0c1.935,0,1.935-3,0-3c-1.903,0-3.806,0-5.709,0
							C105.713,242.167,105.713,245.167,107.648,245.167L107.648,245.167z"/>
					</g>
				</g>
				<g>
					<g>
						<path style="fill:#FFFFFF;" d="M119.299,245.167c1.903,0,3.806,0,5.709,0c1.935,0,1.935-3,0-3c-1.903,0-3.806,0-5.709,0
							C117.364,242.167,117.364,245.167,119.299,245.167L119.299,245.167z"/>
					</g>
				</g>
				<g>
					<g>
						<path style="fill:#FFFFFF;" d="M130.95,245.167c1.903,0,3.806,0,5.709,0c1.935,0,1.935-3,0-3c-1.903,0-3.806,0-5.709,0
							C129.015,242.167,129.015,245.167,130.95,245.167L130.95,245.167z"/>
					</g>
				</g>
				<g>
					<g>
						<path style="fill:#FFFFFF;" d="M142.601,245.167c1.903,0,3.806,0,5.709,0c1.935,0,1.935-3,0-3c-1.903,0-3.806,0-5.709,0
							C140.666,242.167,140.666,245.167,142.601,245.167L142.601,245.167z"/>
					</g>
				</g>
				<g>
					<g>
						<path style="fill:#FFFFFF;" d="M154.251,245.167c1.903,0,3.806,0,5.709,0c1.935,0,1.935-3,0-3c-1.903,0-3.806,0-5.709,0
							C152.317,242.167,152.317,245.167,154.251,245.167L154.251,245.167z"/>
					</g>
				</g>
				<g>
					<g>
						<path style="fill:#FFFFFF;" d="M165.902,245.167c1.903,0,3.806,0,5.709,0c1.935,0,1.935-3,0-3c-1.903,0-3.806,0-5.709,0
							C163.968,242.167,163.968,245.167,165.902,245.167L165.902,245.167z"/>
					</g>
				</g>
				<g>
					<g>
						<path style="fill:#FFFFFF;" d="M177.553,245.167c1.903,0,3.806,0,5.708,0c1.935,0,1.935-3,0-3c-1.902,0-3.806,0-5.708,0
							C175.619,242.167,175.619,245.167,177.553,245.167L177.553,245.167z"/>
					</g>
				</g>
				<g>
					<g>
						<path style="fill:#FFFFFF;" d="M189.204,245.167c1.903,0,3.806,0,5.709,0c1.935,0,1.935-3,0-3c-1.903,0-3.806,0-5.709,0
							C187.27,242.167,187.27,245.167,189.204,245.167L189.204,245.167z"/>
					</g>
				</g>
				<g>
					<g>
						<path style="fill:#FFFFFF;" d="M200.855,245.167c1.903,0,3.806,0,5.709,0c1.935,0,1.935-3,0-3c-1.903,0-3.806,0-5.709,0
							C198.921,242.167,198.921,245.167,200.855,245.167L200.855,245.167z"/>
					</g>
				</g>
				<g>
					<g>
						<path style="fill:#FFFFFF;" d="M212.506,245.167c1.903,0,3.806,0,5.709,0c1.935,0,1.935-3,0-3c-1.903,0-3.806,0-5.709,0
							C210.571,242.167,210.571,245.167,212.506,245.167L212.506,245.167z"/>
					</g>
				</g>
				<g>
					<g>
						<path style="fill:#FFFFFF;" d="M224.157,245.167c1.903,0,3.806,0,5.709,0c1.935,0,1.935-3,0-3c-1.903,0-3.806,0-5.709,0
							C222.223,242.167,222.223,245.167,224.157,245.167L224.157,245.167z"/>
					</g>
				</g>
				<g>
					<g>
						<path style="fill:#FFFFFF;" d="M235.809,245.167c1.903,0,3.806,0,5.709,0c1.935,0,1.935-3,0-3c-1.903,0-3.806,0-5.709,0
							C233.874,242.167,233.874,245.167,235.809,245.167L235.809,245.167z"/>
					</g>
				</g>
				<g>
					<g>
						<path style="fill:#FFFFFF;" d="M247.459,245.167c1.903,0,3.806,0,5.709,0c1.935,0,1.935-3,0-3c-1.903,0-3.806,0-5.709,0
							C245.524,242.167,245.524,245.167,247.459,245.167L247.459,245.167z"/>
					</g>
				</g>
			</g>
			<g>
				<g>
					<g>
						<path style="fill:#FFFFFF;" d="M256.963,239.346c0-1.903,0-3.806,0-5.709c0-1.935-3-1.935-3,0c0,1.903,0,3.806,0,5.709
							C253.963,241.28,256.963,241.28,256.963,239.346L256.963,239.346z"/>
					</g>
				</g>
				<g>
					<g>
						<path style="fill:#FFFFFF;" d="M256.963,227.694c0-1.903,0-3.806,0-5.709c0-1.935-3-1.935-3,0c0,1.903,0,3.806,0,5.709
							C253.963,229.629,256.963,229.629,256.963,227.694L256.963,227.694z"/>
					</g>
				</g>
				<g>
					<g>
						<path style="fill:#FFFFFF;" d="M256.963,216.044c0-1.903,0-3.806,0-5.709c0-1.935-3-1.935-3,0c0,1.903,0,3.806,0,5.709
							C253.963,217.979,256.963,217.979,256.963,216.044L256.963,216.044z"/>
					</g>
				</g>
				<g>
					<g>
						<path style="fill:#FFFFFF;" d="M256.963,204.393c0-1.903,0-3.806,0-5.709c0-1.935-3-1.935-3,0c0,1.903,0,3.806,0,5.709
							C253.963,206.327,256.963,206.327,256.963,204.393L256.963,204.393z"/>
					</g>
				</g>
				<g>
					<g>
						<path style="fill:#FFFFFF;" d="M256.963,192.742c0-1.903,0-3.806,0-5.709c0-1.935-3-1.935-3,0c0,1.903,0,3.806,0,5.709
							C253.963,194.677,256.963,194.677,256.963,192.742L256.963,192.742z"/>
					</g>
				</g>
				<g>
					<g>
						<path style="fill:#FFFFFF;" d="M256.963,181.091c0-1.903,0-3.806,0-5.708c0-1.935-3-1.935-3,0c0,1.903,0,3.806,0,5.708
							C253.963,183.025,256.963,183.025,256.963,181.091L256.963,181.091z"/>
					</g>
				</g>
				<g>
					<g>
						<path style="fill:#FFFFFF;" d="M256.963,169.44c0-1.903,0-3.806,0-5.709c0-1.935-3-1.935-3,0c0,1.903,0,3.806,0,5.709
							C253.963,171.375,256.963,171.375,256.963,169.44L256.963,169.44z"/>
					</g>
				</g>
			</g>
			<g>
				<g>
					<g>
						<path style="fill:#FFFFFF;" d="M106,238.84c0-1.903,0-3.806,0-5.709c0-1.935-3-1.935-3,0c0,1.903,0,3.806,0,5.709
							C103,240.774,106,240.774,106,238.84L106,238.84z"/>
					</g>
				</g>
				<g>
					<g>
						<path style="fill:#FFFFFF;" d="M106,227.189c0-1.903,0-3.806,0-5.709c0-1.935-3-1.935-3,0c0,1.903,0,3.806,0,5.709
							C103,229.124,106,229.124,106,227.189L106,227.189z"/>
					</g>
				</g>
				<g>
					<g>
						<path style="fill:#FFFFFF;" d="M106,215.538c0-1.903,0-3.806,0-5.709c0-1.935-3-1.935-3,0c0,1.903,0,3.806,0,5.709
							C103,217.473,106,217.473,106,215.538L106,215.538z"/>
					</g>
				</g>
				<g>
					<g>
						<path style="fill:#FFFFFF;" d="M106,203.888c0-1.903,0-3.806,0-5.709c0-1.935-3-1.935-3,0c0,1.903,0,3.806,0,5.709
							C103,205.822,106,205.822,106,203.888L106,203.888z"/>
					</g>
				</g>
				<g>
					<g>
						<path style="fill:#FFFFFF;" d="M106,192.236c0-1.903,0-3.806,0-5.709c0-1.935-3-1.935-3,0c0,1.903,0,3.806,0,5.709
							C103,194.171,106,194.171,106,192.236L106,192.236z"/>
					</g>
				</g>
				<g>
					<g>
						<path style="fill:#FFFFFF;" d="M106,180.586c0-1.903,0-3.806,0-5.709c0-1.935-3-1.935-3,0c0,1.903,0,3.806,0,5.709
							C103,182.521,106,182.521,106,180.586L106,180.586z"/>
					</g>
				</g>
				<g>
					<g>
						<path style="fill:#FFFFFF;" d="M106,168.935c0-1.903,0-3.806,0-5.709c0-1.935-3-1.935-3,0c0,1.903,0,3.806,0,5.709
							C103,170.87,106,170.87,106,168.935L106,168.935z"/>
					</g>
				</g>
			</g>
		</g>
	</g>
	<g>
		<g>
			<path style="fill:#FFFFFF;" d="M277.265,278.52c0.589-2.914,6.646-2.688,3.527-2.688c-0.994,0-1.988,0-2.981,0
				c-3.605,0-7.211,0-10.816,0c-12.289,0-24.579,0-36.869,0c-32.106,0-64.213,0-96.32,0c-17.783,0-35.566,0-53.349,0
				c2.518,0,4.586,7.053,4.586,4.083c0-0.843,0-1.686,0-2.528c0-0.941,0-1.884,0-2.825c0-3.936,0.268,3.274-4.714,3.274
				c0.417,0,0.834,0,1.251,0c2.648,0,5.297,0,7.946,0c10.979,0,21.959,0,32.938,0c52.687,0,105.375,0,158.062,0
				c0.354,0,0.707,0,1.061,0c-2.519,0-4.588-7.051-4.588-4.082c0,0.843,0,1.686,0,2.528c0,1.388,0,2.775,0,4.164
				c0,9.686,15.004,9.771,15.004,0.107c0-7.478-0.043-17.722-10.387-17.722c-1.702,0-3.404,0-5.107,0c-9.635,0-19.27,0-28.903,0
				c-31.401,0-62.802,0-94.203,0c-23.215,0-46.431,0-69.647,0c-2.253,0-4.169,0.025-6.423,0.48
				c-9.846,1.988-9.66,21.002-2.71,25.687c4.707,3.173,12.936,1.837,18.288,1.837c56.835,0,113.671,0,170.506,0
				c8.505,0,26.007,3.1,28.32-8.355C293.644,273.031,279.18,269.037,277.265,278.52z"/>
		</g>
	</g>
	
		<line style="fill:none;stroke:#FFFFFF;stroke-width:7;stroke-linecap:round;stroke-miterlimit:10;" x1="263.833" y1="75.73" x2="263.833" y2="181.667"/>
	<g>
		<g>
			<path style="fill:#FFFFFF;" d="M148.452,181.203c5.48,5.479,10.96,10.96,16.44,16.439c4.564,4.564,11.635-2.507,7.071-7.07
				c-5.48-5.48-10.96-10.96-16.44-16.44C150.959,169.568,143.889,176.64,148.452,181.203L148.452,181.203z"/>
		</g>
	</g>
	<g>
		<g>
			<path style="fill:#FFFFFF;" d="M239.391,203.165c-9.751,0-19.502,0-29.254,0c-9.686,0-9.771,15.004-0.107,15.004
				c9.751,0,19.502,0,29.254,0C248.969,218.169,249.055,203.165,239.391,203.165L239.391,203.165z"/>
		</g>
	</g>
	<path style="fill:none;stroke:#FFFFFF;stroke-width:3;stroke-linecap:round;stroke-miterlimit:10;" d="M289.166,71.667
		c0,2.211-12.447,9.167-24.896,2"/>
</g>
<g id="Ebene_1">
</g>
</svg>
