<?xml version="1.0" encoding="iso-8859-1"?>
<!-- Generator: Adobe Illustrator 16.0.0, SVG Export Plug-In . SVG Version: 6.00 Build 0)  -->
<!DOCTYPE svg PUBLIC "-//W3C//DTD SVG 1.1//EN" "http://www.w3.org/Graphics/SVG/1.1/DTD/svg11.dtd">
<svg version="1.1" xmlns="http://www.w3.org/2000/svg" xmlns:xlink="http://www.w3.org/1999/xlink" x="0px" y="0px" width="361px"
	 height="361px" viewBox="0 0 361 361" style="enable-background:new 0 0 361 361;" xml:space="preserve">
<g id="scene_x5F_ironing">
	<path style="fill:none;stroke:#FFFFFF;stroke-miterlimit:10;" d="M61.167,131.568"/>
	<line style="fill:none;stroke:#FFFFFF;stroke-miterlimit:10;" x1="70.45" y1="221.759" x2="70.45" y2="221.759"/>
	<g>
		<g>
			<g>
				<path style="fill:#FFFFFF;" d="M193.424,166.049c-16.768,0-33.536,0-50.303,0c-6.449,0-6.449,10,0,10
					c16.768,0,33.536,0,50.303,0C199.872,176.049,199.872,166.049,193.424,166.049L193.424,166.049z"/>
			</g>
		</g>
		<g>
			<g>
				<path style="fill:#FFFFFF;" d="M289.958,227.722c-15.585-30.276-41.564-55.341-77.317-55.341c-27.818,0-55.638,0-83.457,0
					c-8.756,0-17.512,0-26.268,0c1.607,2.11,3.214,4.219,4.821,6.329c3.271-15.693,6.542-31.387,9.813-47.081
					c-1.607,1.224-3.214,2.447-4.821,3.671c24.226-0.059,48.452-0.118,72.677-0.177c5.326-0.013,10.991-0.885,12.818-6.972
					c2.293-7.637,1.152-17.899-6.833-21.252c-2.609-1.096-7.099-0.319-9.78-0.313c-6.598,0.016-13.195,0.032-19.792,0.048
					c-15.414,0.038-30.827,0.075-46.24,0.112c-3.656,0.009-7.312,0.018-10.968,0.027c-0.077,0-0.154,0-0.231,0
					c3.558-0.009-1.173-0.134-1.58-0.182c-2.338-0.271-4.822,1.364-6.532,2.72c-1.768,1.403-2.967,4-3.417,6.157
					c-5.182,24.865-10.365,49.73-15.547,74.595c-2.278,10.931-4.557,21.862-6.835,32.793c-1.248,5.985-0.377,12.585,5.919,15.352
					c7.227,3.176,14.694,2.976,22.425,2.711c18.323-0.627,36.764-0.03,55.094-0.03c29.829,0,59.657,0,89.485,0
					c10.017,0,20.033,0,30.05,0c7.452,0,20.209-0.721,17.02-11.974c-1.756-6.194-11.405-3.559-9.643,2.658
					c-0.493-1.738,0.961-0.685-0.553-0.685c-0.2,0-0.401,0-0.602,0c-0.984,0-1.969,0-2.954,0c-3.759,0-7.518,0-11.276,0
					c-12.891,0-25.782,0-38.673,0c-31.437,0-62.874,0-94.311,0c-9.497,0-18.995,0-28.492,0c-4.353,0-25.291,1.559-24.226-3.554
					c5.006-24.02,10.012-48.04,15.019-72.059c2.407-11.547,4.813-23.095,7.22-34.643c0.181-0.869,0.362-1.739,0.543-2.608
					c0.427-2.049,0.563-1.249,1.988-1.252c3.46-0.008,6.92-0.017,10.379-0.025c15.331-0.038,30.662-0.075,45.993-0.112
					c6.711-0.017,13.422-0.033,20.133-0.049c1.932-0.004,3.863-0.009,5.796-0.014c1.391-0.003,1.955-0.475,2.086,0.838
					c0.155,1.561,0.006,3.212,0.008,4.779c0.002,0.892-0.056,2.923-0.093,2.923c-1.8,0.004-3.601,0.009-5.401,0.013
					c-8.708,0.021-17.417,0.042-26.125,0.063c-14.85,0.037-29.7,0.073-44.55,0.109c-2.117,0.005-4.371,1.509-4.821,3.671
					c-3.271,15.693-6.542,31.387-9.813,47.081c-0.657,3.152,1.416,6.329,4.821,6.329c23.864,0,47.728,0,71.592,0
					c12.34,0,24.681,0,37.021,0c10.652,0,21.234,1.972,30.777,6.943c17.63,9.184,30.116,26.153,39.018,43.444
					C284.275,238.504,292.904,233.444,289.958,227.722z"/>
			</g>
		</g>
		<g>
			<g>
				<path style="fill:#FFFFFF;" d="M90.021,251.667c49.503,0,99.007,0,148.511,0c16.267,0,32.534,0,48.801,0c6.448,0,6.448-10,0-10
					c-49.504,0-99.007,0-148.511,0c-16.267,0-32.534,0-48.801,0C83.572,241.667,83.572,251.667,90.021,251.667L90.021,251.667z"/>
			</g>
		</g>
	</g>
</g>
<g id="Ebene_1">
</g>
</svg>
