<?xml version="1.0" encoding="iso-8859-1"?>
<!-- Generator: Adobe Illustrator 16.0.0, SVG Export Plug-In . SVG Version: 6.00 Build 0)  -->
<!DOCTYPE svg PUBLIC "-//W3C//DTD SVG 1.1 Tiny//EN" "http://www.w3.org/Graphics/SVG/1.1/DTD/svg11-tiny.dtd">
<svg version="1.1" baseProfile="tiny" id="scene_x5F_dressing_x5F_room"
	 xmlns="http://www.w3.org/2000/svg" xmlns:xlink="http://www.w3.org/1999/xlink" x="0px" y="0px" width="361px" height="361px"
	 viewBox="0 0 361 361" xml:space="preserve">
<g>
	<path fill="#FFFFFF" d="M200.75,186.552c5.324-4.228,5.694,5.563,5.845,8.32c0.24,4.383,0.472,8.766,0.695,13.15
		c0.237,4.643,0.461,9.286,0.643,13.932c0.091,2.341,1.258,7.287-0.714,8.35c0.752,0.432,1.504,0.864,2.257,1.295
		c-0.148-4.765-0.313-9.53-0.473-14.295c-0.081-2.382-0.92-8.316-0.378-9.72c-0.982-0.133-1.964-0.266-2.946-0.398
		c0.416,6.913,0.388,13.877,0.568,20.799c0.099,3.794,0.197,7.588,0.294,11.382c0.019,0.743,0.038,1.486,0.057,2.229
		c0.048,1.883,0.492,1.4-1.214,1.72c-0.872,0.164-1.743,0.327-2.614,0.491c-1.9,0.356-1.093,3.248,0.798,2.893
		c3.705-0.695,6.146-0.614,6.031-5.103c-0.083-3.256-0.167-6.513-0.251-9.769c-0.212-8.201-0.175-16.453-0.668-24.642
		c-0.105-1.75-2.341-1.966-2.946-0.399c-0.927,2.401,0.149,6.909,0.233,9.408c0.173,5.135,0.352,10.269,0.511,15.404
		c0.036,1.156,1.241,1.843,2.257,1.295c3.722-2.006,2.359-6.348,2.234-10.024c-0.237-6.981-0.625-13.959-0.992-20.935
		c-0.229-4.343-0.244-8.754-0.9-13.059c-0.889-5.833-5.986-7.988-10.446-4.446C197.114,185.633,199.251,187.741,200.75,186.552
		L200.75,186.552z"/>
</g>
<g>
	<path fill="#FFFFFF" d="M209.665,195.551c-0.137-4.428-4.181-7.868-8.522-7.978c-1.936-0.049-1.931,2.951,0,3
		c2.673,0.068,5.437,2.219,5.522,4.978C206.725,197.481,209.725,197.487,209.665,195.551L209.665,195.551z"/>
</g>
<g>
	<path fill="#FFFFFF" d="M282.755,283.582c-0.557,6.132-13.232,4.02-17.246,4.02c-11.962,0-23.924,0-35.886,0
		c-32.043,0-64.086,0-96.129,0c-18.376,0-36.753,0-55.129,0c-6.099,0-4.22-11.427-4.22-15.152c0-11.515,0-23.029,0-34.544
		c0-51.237,0-102.474,0-153.71c0-6.025,9.963-4.342,13.791-4.342c11.118,0,22.237,0,33.355,0c31.899,0,63.798,0,95.698,0
		c20.29,0,40.58,0,60.869,0c6.354,0,4.898,7.672,4.898,11.958c0,10.63,0,21.259,0,31.889c0,52.873,0,105.746,0,158.619
		C282.755,282.739,282.755,283.161,282.755,283.582c0,4.514,7,4.514,7,0c0-49.311,0-98.622,0-147.933c0-17.259,0-34.518,0-51.776
		c0-11.111-10.745-11.021-18.613-11.021c-10.472,0-20.943,0-31.416,0c-53.276,0-106.553,0-159.829,0
		c-8.205,0-12.753,5.455-12.753,13.322c0,8.177,0,16.355,0,24.532c0,30.63,0,61.261,0,91.892c0,25.009,0,50.018,0,75.027
		c0,7.665,0.881,16.976,11.22,16.976c5.643,0,11.286,0,16.929,0c56.739,0,113.478,0,170.216,0c9.454,0,23.048,2.178,24.246-11.02
		C290.164,279.085,283.16,279.125,282.755,283.582z"/>
</g>
<g>
	<path fill="#FFFFFF" d="M102.514,76.353c0,48.348,0,96.695,0,145.042c0,23.236,0,46.471,0,69.707c0,4.514,7,4.514,7,0
		c0-48.348,0-96.695,0-145.042c0-23.236,0-46.471,0-69.707C109.514,71.838,102.514,71.838,102.514,76.353L102.514,76.353z"/>
</g>
<g>
	<path fill="#FFFFFF" d="M217.447,76.353c0,48.348,0,96.695,0,145.042c0,23.236,0,46.471,0,69.707c0,4.514,7,4.514,7,0
		c0-48.348,0-96.695,0-145.042c0-23.236,0-46.471,0-69.707C224.447,71.838,217.447,71.838,217.447,76.353L217.447,76.353z"/>
</g>
<g>
	<path fill="#FFFFFF" d="M106.014,163.237c38.311,0,76.622,0,114.933,0c4.514,0,4.514-7,0-7c-38.311,0-76.622,0-114.933,0
		C101.5,156.237,101.5,163.237,106.014,163.237L106.014,163.237z"/>
</g>
<g>
	<path fill="#FFFFFF" d="M106.014,263.711c38.311,0,76.622,0,114.933,0c4.514,0,4.514-7,0-7c-38.311,0-76.622,0-114.933,0
		C101.5,256.711,101.5,263.711,106.014,263.711L106.014,263.711z"/>
</g>
<g>
	<path fill="#FFFFFF" d="M72.014,245.757c11.333,0,22.667,0,34,0c4.514,0,4.514-7,0-7c-11.333,0-22.667,0-34,0
		C67.5,238.757,67.5,245.757,72.014,245.757L72.014,245.757z"/>
</g>
<g>
	<path fill="#FFFFFF" d="M220.947,225.757c20.79,0,41.579,0,62.368,0c4.514,0,4.514-7,0-7c-20.79,0-41.579,0-62.368,0
		C216.433,218.757,216.433,225.757,220.947,225.757L220.947,225.757z"/>
</g>
<g>
	<path fill="#FFFFFF" d="M106.014,176.764c38.311,0,76.622,0,114.933,0c1.935,0,1.935-3,0-3c-38.311,0-76.622,0-114.933,0
		C104.079,173.764,104.079,176.764,106.014,176.764L106.014,176.764z"/>
</g>
<g>
	<path fill="#FFFFFF" d="M74.088,149.795c9.951,0,19.901,0,29.852,0c4.514,0,4.514-7,0-7c-9.951,0-19.901,0-29.852,0
		C69.574,142.795,69.574,149.795,74.088,149.795L74.088,149.795z"/>
</g>
<g>
	<path fill="#FFFFFF" d="M74.088,111.172c9.951,0,19.901,0,29.852,0c4.514,0,4.514-7,0-7c-9.951,0-19.901,0-29.852,0
		C69.574,104.172,69.574,111.172,74.088,111.172L74.088,111.172z"/>
</g>
<g>
	<path fill="#FFFFFF" d="M221.859,149.795c21.465,0,42.931,0,64.396,0c4.514,0,4.514-7,0-7c-21.465,0-42.931,0-64.396,0
		C217.345,142.795,217.345,149.795,221.859,149.795L221.859,149.795z"/>
</g>
<g>
	<path fill="#FFFFFF" d="M221.859,111.172c21.465,0,42.931,0,64.396,0c4.514,0,4.514-7,0-7c-21.465,0-42.931,0-64.396,0
		C217.345,104.172,217.345,111.172,221.859,111.172L221.859,111.172z"/>
</g>
<g>
	<path fill="#FFFFFF" d="M96.154,227.502c-0.292,2.808-7.23,1.561-9.083,1.561c-2.637,0-8.276,1.398-8.276-2.421
		c0-1.461,8.039-0.921,8.841-0.921C89.49,225.722,96.154,224.707,96.154,227.502c0,1.935,3,1.935,3,0
		c0-6.096-6.322-4.781-10.721-4.781c-3.475,0-12.638-1.537-12.638,3.921c0,6.602,5.618,5.421,10.474,5.421
		c4.742,0,12.218,1.851,12.886-4.561C99.354,225.579,96.352,225.598,96.154,227.502z"/>
</g>
<g>
	<path fill="#FFFFFF" d="M79.355,218.878c0.292-2.81,7.229-1.562,9.083-1.562c2.637,0,8.276-1.398,8.276,2.421
		c0,1.461-8.039,0.921-8.841,0.921C86.019,220.658,79.355,221.673,79.355,218.878c0-1.935-3-1.935-3,0
		c0,6.095,6.322,4.78,10.72,4.78c3.475,0,12.639,1.537,12.639-3.921c0-6.602-5.618-5.421-10.474-5.421
		c-4.743,0-12.218-1.852-12.885,4.562C76.155,220.801,79.157,220.782,79.355,218.878z"/>
</g>
<g>
	<path fill="#FFFFFF" d="M79.915,232.986c0.25-1.925,7.139-0.957,8.277-0.957c1.204,0,8.827-1.015,9.083,0.957
		c0.219,1.686-6.868,1.133-8.05,1.133C88.039,234.119,79.915,234.9,79.915,232.986c0-1.935-3-1.935-3,0
		c0,5.523,6.882,4.133,10.721,4.133c3.371,0,12.639,1.556,12.639-3.667c0-5.956-7.263-4.422-11.276-4.422
		c-4.145,0-11.353-1.671-12.083,3.957C76.667,234.9,79.67,234.876,79.915,232.986z"/>
</g>
<g>
	<path fill="#FFFFFF" d="M79.355,211.628c0.25-1.926,7.138-0.958,8.276-0.958c1.205,0,8.827-1.016,9.083,0.958
		c0.218,1.685-6.868,1.132-8.05,1.132C87.479,212.76,79.355,213.542,79.355,211.628c0-1.935-3-1.935-3,0
		c0,5.523,6.882,4.132,10.72,4.132c3.371,0,12.639,1.556,12.639-3.667c0-5.957-7.262-4.423-11.276-4.423
		c-4.146,0-11.353-1.671-12.083,3.958C76.107,213.542,79.11,213.519,79.355,211.628z"/>
</g>
<g>
	<path fill="#FFFFFF" d="M277.058,200.39c-0.427,4.832-6.021,3.849-9.213,3.849c-4.726,0-9.451,0-14.177,0s-9.451,0-14.177,0
		c-3.225,0-9.213,0.997-9.213-4.166c0-4.932,7.209-3.915,10.832-3.915c4.145,0,8.29,0,12.435,0c4.649,0,9.299,0,13.948,0
		C271.267,196.158,277.058,195.206,277.058,200.39c0,1.935,3,1.935,3,0c0-6.477-4.303-7.231-10.109-7.231
		c-5.137,0-10.273,0-15.409,0c-4.819,0-9.637,0-14.456,0s-12.806-0.319-12.806,6.218c0,5.514,3.193,7.862,8.465,7.862
		c5.646,0,11.293,0,16.939,0c6.025,0,12.049,0,18.074,0c4.942,0,8.81-1.281,9.302-6.849
		C280.228,198.462,277.227,198.479,277.058,200.39z"/>
</g>
<g>
	<path fill="#FFFFFF" d="M231.647,185.324c0.427-4.833,6.021-3.849,9.213-3.849c4.726,0,9.451,0,14.177,0s9.451,0,14.177,0
		c3.225,0,9.214-0.997,9.214,4.166c0,4.931-7.21,3.914-10.833,3.914c-4.145,0-8.29,0-12.435,0c-4.649,0-9.298,0-13.948,0
		C237.439,189.554,231.647,190.507,231.647,185.324c0-1.935-3-1.935-3,0c0,6.477,4.304,7.23,10.109,7.23c5.136,0,10.272,0,15.409,0
		c4.818,0,9.637,0,14.456,0s12.807,0.32,12.807-6.217c0-5.514-3.194-7.862-8.466-7.862c-5.646,0-11.293,0-16.939,0
		c-6.025,0-12.049,0-18.074,0c-4.942,0-8.809,1.281-9.301,6.849C228.477,187.251,231.479,187.235,231.647,185.324z"/>
</g>
<g>
	<path fill="#FFFFFF" d="M230.277,209.97c0.463-3.65,6.678-2.792,9.213-2.792c4.726,0,9.451,0,14.177,0s9.451,0,14.177,0
		c2.662,0,9.213-0.886,9.213,3.214c0,3.656-8.035,2.677-10.832,2.677c-4.145,0-8.29,0-12.435,0c-4.649,0-9.298,0-13.948,0
		C236.539,213.068,230.277,214.255,230.277,209.97c0-1.935-3-1.935-3,0c0,6.072,5.207,6.099,10.238,6.099c5.094,0,10.187,0,15.281,0
		c4.804,0,9.608,0,14.412,0c4.615,0,12.85,0.693,12.85-5.677c0-5.19-4.553-6.214-8.858-6.214c-5.516,0-11.031,0-16.546,0
		c-5.86,0-11.721,0-17.581,0c-4.533,0-9.112,0.408-9.795,5.792C227.035,211.885,230.038,211.862,230.277,209.97z"/>
</g>
<g>
	<path fill="#FFFFFF" d="M230.277,172.658c0.463-3.65,6.678-2.792,9.213-2.792c4.726,0,9.451,0,14.177,0s9.451,0,14.177,0
		c2.662,0,9.213-0.886,9.213,3.214c0,3.657-8.035,2.678-10.832,2.678c-4.145,0-8.29,0-12.435,0c-4.649,0-9.298,0-13.948,0
		C236.539,175.758,230.277,176.944,230.277,172.658c0-1.935-3-1.935-3,0c0,6.072,5.206,6.1,10.238,6.1c5.094,0,10.187,0,15.281,0
		c4.804,0,9.608,0,14.412,0c4.616,0,12.85,0.692,12.85-5.678c0-5.19-4.553-6.214-8.858-6.214c-5.516,0-11.031,0-16.546,0
		c-5.86,0-11.721,0-17.581,0c-4.533,0-9.112,0.409-9.795,5.792C227.035,174.574,230.038,174.55,230.277,172.658z"/>
</g>
<g>
	<path fill="#FFFFFF" d="M184.363,277.677c-0.494,5.508-6.956,4.325-10.813,4.325c-1.66,0-3.201,0.158-4.778-0.59
		c-2.428-1.153-2.143-4.062-2.143-6.241c0-5.508,7.276-4.326,10.813-4.326c1.66,0,3.202-0.158,4.779,0.591
		C184.648,272.589,184.363,275.498,184.363,277.677c0,1.935,3,1.935,3,0c0-6.848-3.185-9.832-9.921-9.832
		c-5.994,0-13.107-0.536-13.813,7.326c-0.617,6.877,3.614,9.832,9.921,9.832c5.994,0,13.108,0.536,13.813-7.325
		C187.536,275.75,184.535,275.767,184.363,277.677z"/>
</g>
<g>
	<path fill="#FFFFFF" d="M209.253,277.677c-0.494,5.508-6.956,4.325-10.813,4.325c-1.66,0-3.202,0.158-4.778-0.59
		c-2.428-1.153-2.143-4.063-2.143-6.241c0-5.508,7.276-4.326,10.812-4.326c1.66,0,3.202-0.158,4.779,0.591
		C209.539,272.589,209.253,275.499,209.253,277.677c0,1.935,3,1.935,3,0c0-6.848-3.185-9.832-9.921-9.832
		c-5.993,0-13.107-0.536-13.812,7.326c-0.617,6.877,3.614,9.832,9.921,9.832c5.993,0,13.108,0.536,13.813-7.325
		C212.426,275.75,209.425,275.767,209.253,277.677z"/>
</g>
<g>
	<path fill="#FFFFFF" d="M156.631,146.529c-0.577,2.755-4.642,3.159-6.944,3.979c-4.185,1.492-8.679,1.949-13.086,2.141
		c-6.55,0.286-13.177-0.86-18.743-3.701c-4.368-2.229,0.325-5.592,2.512-6.194c0.542-0.149,1.092-0.462,1.617-0.657
		c4.994-1.859,10.434-2.279,15.714-2.292c2.915-0.007,18.875,1.488,18.875,7.123c0,1.935,3,1.935,3,0
		c0-8.376-16.396-9.957-21.875-10.123c-5.966-0.181-24.438,0.648-24.438,9.768c0,1.714,0.779,3.29,2.177,4.308
		c1.286,0.937,3.4,1.323,3.884,1.684c3.278,2.446,8.124,2.738,12.025,3.019c6.657,0.479,13.938-0.169,20.216-2.582
		c3.106-1.193,7.121-1.68,7.958-5.675C159.919,145.439,157.027,144.636,156.631,146.529z"/>
</g>
<g>
	<path fill="#FFFFFF" d="M156.631,130.794c-1.069,3.965-15.401,5.025-18.286,5.21c-4.955,0.318-10.149,0.139-14.957-1.18
		c-1.619-0.444-2.275-1.234-3.417-1.378c-8.175-1.03-1.528-4.95,0.757-5.922c0.163-0.069,1.457-0.49,1.962-0.643
		c4.847-1.471,9.978-1.794,15.012-1.805c2.166-0.005,18.875,1.136,18.875,6.116c0,1.935,3,1.935,3,0
		c0-7.375-15.345-8.8-20.159-9.071c-6.35-0.356-13.228,0.294-19.259,2.431c-3.14,1.113-6.895,1.811-6.895,6.035
		c0,4.421,4.003,4.4,6.236,5.85c3.701,2.405,9.186,2.469,13.39,2.634c6.187,0.243,12.779-0.343,18.677-2.344
		c3.07-1.042,6.948-1.388,7.958-5.136C160.028,129.722,157.134,128.929,156.631,130.794z"/>
</g>
<g>
	<g>
		<path fill="#FFFFFF" d="M136.712,184.045c0.641,0.182,0.2-0.212,0.063-0.791c-0.233-0.992-0.278-2.033-0.348-3.046
			c-0.143-2.061-0.117-4.139-0.024-6.201c-1,0-2,0-3,0c0,0.208,0,0.417,0,0.625c0,1.944,2.905,1.921,3,0
			c0.02-0.405,0.001-2.694,0.758-2.897c-0.633-0.482-1.266-0.964-1.899-1.446c0,0.012,0,0.025,0,0.037
			c0,0.687,0.461,1.243,1.101,1.446c0.838,0.266,0.676,3.304,0.625,4.013c-0.14,1.931,2.861,1.918,3,0
			c0.167-2.32-0.188-6.068-2.827-6.906c0.367,0.482,0.734,0.964,1.101,1.446c0-0.012,0-0.025,0-0.037
			c0-0.979-0.957-1.699-1.899-1.446c-2.475,0.665-2.853,3.608-2.96,5.79c1,0,2,0,3,0c0-0.208,0-0.417,0-0.625
			c0-1.943-2.914-1.923-3,0c-0.122,2.717-1.222,11.873,2.511,12.931C137.78,187.466,138.57,184.571,136.712,184.045L136.712,184.045
			z"/>
	</g>
	<g>
		<path fill="#FFFFFF" d="M134.769,187.589c-0.081,0.354-0.776,0.828-0.581,0.775c0.306-0.082,0.135-0.041,0.369-0.066
			c0.458-0.049,0.919-0.059,1.379-0.062c0.46-0.002,0.92,0.021,1.379,0.062c0.545,0.049-0.227-0.049,0.238,0.037
			c0.083,0.017,0.166,0.037,0.248,0.061c-0.347-0.132-0.579-0.401-0.698-0.807c0.433,1.885,3.325,1.085,2.893-0.798
			c-0.374-1.626-2.788-1.546-4.06-1.554c-1.27-0.008-3.689-0.061-4.06,1.554C131.443,188.674,134.335,189.474,134.769,187.589
			L134.769,187.589z"/>
	</g>
</g>
<g>
	<g>
		<path fill="#FFFFFF" d="M124.059,184.045c0.64,0.181,0.199-0.212,0.063-0.791c-0.233-0.992-0.277-2.033-0.348-3.046
			c-0.143-2.061-0.116-4.139-0.024-6.201c-1,0-2,0-3,0c0,0.208,0,0.417,0,0.625c0,1.944,2.905,1.921,3,0
			c0.02-0.404,0.001-2.694,0.757-2.897c-0.633-0.482-1.266-0.964-1.899-1.446c0,0.012,0,0.025,0,0.037
			c0,0.687,0.461,1.244,1.101,1.446c0.839,0.267,0.678,3.303,0.626,4.013c-0.139,1.931,2.862,1.918,3,0
			c0.167-2.321-0.189-6.068-2.829-6.906c0.367,0.482,0.734,0.964,1.101,1.446c0-0.012,0-0.025,0-0.037
			c0-0.979-0.957-1.7-1.899-1.446c-2.475,0.665-2.852,3.608-2.959,5.79c1,0,2,0,3,0c0-0.208,0-0.417,0-0.625
			c0-1.943-2.914-1.923-3,0c-0.122,2.717-1.223,11.874,2.511,12.931C125.126,187.466,125.917,184.571,124.059,184.045
			L124.059,184.045z"/>
	</g>
	<g>
		<path fill="#FFFFFF" d="M122.114,187.589c-0.081,0.354-0.776,0.828-0.581,0.775c0.306-0.082,0.135-0.041,0.369-0.066
			c0.458-0.049,0.919-0.059,1.379-0.062c0.46-0.002,0.92,0.021,1.379,0.062c0.545,0.049-0.227-0.049,0.238,0.037
			c0.083,0.017,0.166,0.037,0.248,0.061c-0.347-0.132-0.579-0.401-0.698-0.807c0.433,1.885,3.325,1.085,2.893-0.798
			c-0.374-1.626-2.788-1.546-4.06-1.554c-1.269-0.008-3.688-0.06-4.06,1.554C118.789,188.674,121.681,189.474,122.114,187.589
			L122.114,187.589z"/>
	</g>
</g>
<g>
	<g>
		<path fill="#FFFFFF" d="M116.008,184.045c0.64,0.181,0.199-0.212,0.063-0.791c-0.233-0.992-0.277-2.033-0.348-3.046
			c-0.143-2.061-0.116-4.139-0.024-6.201c-1,0-2,0-3,0c0,0.208,0,0.417,0,0.625c0,1.944,2.905,1.921,3,0
			c0.02-0.404,0.001-2.694,0.757-2.897c-0.633-0.482-1.266-0.964-1.899-1.446c0,0.012,0,0.025,0,0.037
			c0,0.687,0.461,1.244,1.101,1.446c0.84,0.267,0.677,3.303,0.626,4.013c-0.14,1.931,2.861,1.918,3,0
			c0.168-2.321-0.188-6.068-2.828-6.906c0.367,0.482,0.734,0.964,1.101,1.446c0-0.012,0-0.025,0-0.037
			c0-0.979-0.957-1.7-1.899-1.446c-2.474,0.666-2.852,3.608-2.959,5.79c1,0,2,0,3,0c0-0.208,0-0.417,0-0.625
			c0-1.943-2.914-1.923-3,0c-0.122,2.717-1.223,11.874,2.511,12.931C117.076,187.466,117.867,184.571,116.008,184.045
			L116.008,184.045z"/>
	</g>
	<g>
		<path fill="#FFFFFF" d="M114.064,187.589c-0.081,0.354-0.776,0.828-0.581,0.775c0.306-0.082,0.135-0.041,0.369-0.066
			c0.458-0.049,0.919-0.059,1.379-0.062c0.46-0.002,0.92,0.021,1.379,0.062c0.545,0.049-0.227-0.049,0.238,0.037
			c0.083,0.017,0.166,0.037,0.248,0.061c-0.347-0.132-0.579-0.401-0.698-0.807c0.433,1.885,3.325,1.085,2.893-0.798
			c-0.374-1.626-2.788-1.546-4.06-1.554c-1.27-0.008-3.689-0.061-4.06,1.554C110.739,188.674,113.631,189.474,114.064,187.589
			L114.064,187.589z"/>
	</g>
</g>
<g>
	<path fill="#FFFFFF" d="M191.121,188.25c4.008-4.852,7.203,1.721,7.408,5.619c0.217,4.117,0.426,8.234,0.63,12.352
		c0.26,5.235,0.507,10.471,0.722,15.708c0.099,2.409,1.541,10.584-0.602,11.799c0.752,0.432,1.505,0.864,2.257,1.295
		c-0.251-8.575-0.697-17.157-0.8-25.735c-0.367,0.482-0.734,0.964-1.102,1.446c0.001,0,0.002,0,0.002,0
		c-0.632-0.482-1.265-0.964-1.898-1.447c0.4,7.066,0.377,14.18,0.552,21.254c0.102,4.13,0.203,8.26,0.304,12.39
		c0.021,0.879,0.042,1.758,0.064,2.638c0.05,2.04,0.555,1.537-1.215,1.887c-0.872,0.172-1.743,0.345-2.615,0.517
		c-1.897,0.375-1.092,3.266,0.798,2.893c3.907-0.772,6.143-0.744,6.029-5.405c-0.082-3.374-0.165-6.748-0.248-10.122
		c-0.213-8.671-0.18-17.391-0.67-26.051c-0.057-1.011-0.91-1.654-1.898-1.446c-0.001,0-0.002,0-0.003,0
		c-0.642,0.135-1.109,0.812-1.101,1.447c0.103,8.578,0.549,17.16,0.8,25.735c0.033,1.138,1.249,1.868,2.257,1.295
		c4.092-2.322,2.316-8.264,2.168-12.32c-0.273-7.472-0.658-14.939-1.035-22.406c-0.188-3.737,0.479-9.369-1.444-12.821
		c-2.833-5.085-7.096-7.956-11.484-2.643C187.777,187.608,189.888,189.744,191.121,188.25L191.121,188.25z"/>
</g>
<g>
	<g>
		<path fill="#FFFFFF" d="M152.842,186.533c-2.143-2.736-5.121-2.219-7.516-0.054c-1.513,1.367-1.415,4.055-1.506,5.907
			c-0.388,7.844-0.771,15.688-1.146,23.532c-0.292,6.144-0.612,12.287-0.901,18.431c-0.165,3.489-2.487,13.085,2.069,14.826
			c0.653,0.25,1.339-0.171,1.694-0.689c0.959-1.398,0.702-4.16,0.808-5.745c0.286-4.258,0.433-8.527,0.591-12.791
			c0.169-4.566,0.31-9.133,0.458-13.7c0.057-1.761,0.116-3.522,0.183-5.283c0.021-0.556,0.046-1.113,0.074-1.669
			c0.068-1.342,0.261-0.021-0.654,0.376c-0.735-0.299-1.469-0.598-2.204-0.896c0.256,1.237-0.142,5.336-0.199,7.34
			c-0.148,5.193-0.315,10.386-0.482,15.579c-0.171,5.31-2.262,14.705,6.107,13.429c1.907-0.291,1.094-3.181-0.798-2.893
			c-3.545,0.541-2.541-3.444-2.467-5.699c0.128-3.892,0.253-7.784,0.375-11.676c0.164-5.229,1.428-11.712,0.356-16.878
			c-0.215-1.04-1.377-1.255-2.203-0.896c-1.242,0.539-0.888,3.409-0.927,4.414c-0.163,4.23-0.28,8.461-0.42,12.692
			c-0.164,4.939-0.339,9.879-0.581,14.816c-0.091,1.872,0.175,6.821-0.609,7.965c0.565-0.23,1.129-0.46,1.694-0.689
			c-1.221-0.467,0.118-11.625,0.181-12.954c0.195-4.147,0.43-8.293,0.62-12.441c0.304-6.638,0.631-13.274,0.956-19.911
			c0.125-2.544,0.25-5.088,0.375-7.632c0.025-0.521,0.051-1.042,0.077-1.563c0.028-0.562,0.57-7.342,3.871-3.127
			C151.913,190.176,154.02,188.037,152.842,186.533L152.842,186.533z"/>
	</g>
	<g>
		<path fill="#FFFFFF" d="M148.4,188.655c3.276-4.186,3.834,2.411,3.861,2.969c0.029,0.573,0.057,1.146,0.085,1.72
			c0.125,2.544,0.25,5.088,0.375,7.633c0.326,6.637,0.649,13.273,0.958,19.911c0.192,4.147,0.42,8.293,0.62,12.441
			c0.063,1.327,1.4,12.487,0.18,12.953c0.565,0.229,1.129,0.459,1.694,0.689c-0.68-0.992-0.478-5.466-0.568-7.161
			c-0.261-4.886-0.424-9.778-0.59-14.669c-0.147-4.357-0.275-8.715-0.431-13.071c-0.038-1.05,0.377-4.41-0.948-4.985
			c-0.826-0.358-1.988-0.143-2.203,0.896c-1.071,5.167,0.193,11.649,0.357,16.878c0.122,3.892,0.248,7.784,0.375,11.676
			c0.074,2.255,1.079,6.239-2.467,5.699c-1.892-0.289-2.705,2.602-0.798,2.893c8.369,1.277,6.279-8.119,6.107-13.429
			c-0.158-4.894-0.313-9.789-0.457-14.684c-0.067-2.279-0.538-6.727-0.225-8.235c-0.734,0.299-1.469,0.598-2.204,0.896
			c-1.16-0.503-0.692-1.367-0.6,0.805c0.071,1.664,0.123,3.329,0.177,4.994c0.149,4.504,0.288,9.009,0.449,13.514
			c0.155,4.357,0.324,8.715,0.582,13.067c0.104,1.74-0.204,4.892,0.852,6.43c0.355,0.518,1.042,0.939,1.694,0.689
			c4.402-1.68,2.269-10.411,2.117-13.803c-0.275-6.127-0.608-12.252-0.897-18.378c-0.381-8.057-0.778-16.113-1.176-24.169
			c-0.1-2.021-0.008-4.357-1.292-6.04c-2.063-2.703-5.679-2.895-7.75-0.25C145.102,188.038,147.209,190.177,148.4,188.655
			L148.4,188.655z"/>
	</g>
</g>
<g>
	<g>
		<path fill="#FFFFFF" d="M205.047,184.045c0.64,0.181,0.199-0.212,0.063-0.791c-0.233-0.992-0.278-2.033-0.349-3.046
			c-0.143-2.061-0.117-4.139-0.025-6.201c-1,0-2,0-3,0c0,0.208,0,0.417,0,0.625c0,1.944,2.905,1.921,3,0
			c0.02-0.405,0.001-2.694,0.758-2.897c-0.633-0.482-1.266-0.964-1.899-1.446c0,0.012,0,0.025,0,0.037
			c0,0.687,0.461,1.244,1.101,1.446c0.839,0.267,0.677,3.303,0.626,4.013c-0.14,1.931,2.861,1.918,3,0
			c0.167-2.321-0.188-6.068-2.828-6.906c0.367,0.482,0.734,0.964,1.101,1.446c0-0.012,0-0.025,0-0.037
			c0-0.979-0.957-1.7-1.899-1.446c-2.475,0.665-2.853,3.608-2.96,5.79c1,0,2,0,3,0c0-0.208,0-0.417,0-0.625c0-1.943-2.914-1.923-3,0
			c-0.121,2.717-1.221,11.874,2.513,12.931C206.115,187.466,206.906,184.571,205.047,184.045L205.047,184.045z"/>
	</g>
</g>
<g>
	<path fill="#FFFFFF" d="M173.369,187.407c0.951-1.373,3.913-0.536,5.157-0.211c1.802,0.471,1.529,2.499,1.582,3.931
		c0.076,2.055,0.151,4.111,0.226,6.167c0.257,7.027,0.512,14.055,0.758,21.083c0.155,4.43,0.329,8.858,0.49,13.288
		c0.058,1.604,1.591,13.345,0.093,14.113c0.685,0.18,1.369,0.359,2.053,0.538c-0.555-1.084-0.3-5.391-0.371-7.16
		c-0.194-4.888-0.315-9.779-0.439-14.669c-0.11-4.357-0.205-8.715-0.32-13.072c-0.033-1.224,0.426-4.214-0.895-4.985
		c-0.763-0.445-2.053-0.08-2.204,0.896c-0.778,5.048,0.111,10.783,0.229,15.865c0.026,1.154,1.387,18.758-1.046,18.387
		c-1.892-0.289-2.705,2.602-0.798,2.893c7.271,1.108,5.134-9.053,5.029-13.428c-0.118-4.895-0.232-9.789-0.34-14.684
		c-0.051-2.336-0.423-6.665-0.181-8.235c-0.734,0.299-1.469,0.598-2.204,0.896c-1.228-0.717-0.701-1.219-0.636,0.805
		c0.053,1.665,0.091,3.33,0.132,4.994c0.11,4.505,0.214,9.009,0.333,13.514c0.115,4.356,0.241,8.713,0.433,13.067
		c0.084,1.897-0.212,4.671,0.686,6.43c0.387,0.756,1.358,0.895,2.053,0.538c1.587-0.815,1.742-2.656,1.742-4.228
		c-0.001-3.822-0.18-7.648-0.314-11.466c-0.243-6.933-0.508-13.865-0.756-20.798c-0.25-6.987-0.504-13.974-0.762-20.96
		c-0.122-3.302-0.59-5.382-3.777-6.613c-2.727-1.053-6.766-0.977-8.545,1.589C169.673,187.487,172.275,188.985,173.369,187.407
		L173.369,187.407z"/>
</g>
<g>
	<path fill="#FFFFFF" d="M185.248,187.085c1.122-2.031,1.916,3.77,1.951,4.854c0.083,2.553,0.165,5.106,0.247,7.659
		c0.231,7.192,0.46,14.385,0.681,21.577c0.138,4.473,0.5,8.851,0.932,13.306c0.18,1.859,2.547,14.434,1.037,15.316
		c0.685,0.18,1.369,0.359,2.053,0.539c-0.516-1.063-0.43-5.055-0.551-6.805c-0.332-4.774-0.597-9.554-0.866-14.332
		c-0.258-4.587-0.505-9.175-0.772-13.761c-0.11-1.889,0.137-4.366-0.48-6.191c-0.358-1.061-1.667-1.483-2.507-0.662
		c-0.96,0.938-0.458,3.46-0.44,4.596c0.072,4.658,0.171,9.316,0.266,13.974c0.092,4.545,0.188,9.089,0.286,13.634
		c0.029,1.354,0.058,2.708,0.087,4.063c0.004,0.192,0.008,0.384,0.013,0.576c1.159,1.139,1.167,1.638,0.027,1.497
		c-0.959,0.074-1.89-0.076-2.792-0.451c-1.839-0.618-2.622,2.28-0.798,2.893c4.225,1.419,6.66,0.514,6.559-4.086
		c-0.074-3.426-0.147-6.851-0.22-10.277c-0.116-5.5-0.229-11-0.334-16.501c-0.037-1.972-0.073-3.944-0.104-5.916
		c-0.01-0.617-0.018-1.234-0.024-1.851c-0.011-1.136,0.292-0.711-0.406-0.029c-0.835-0.221-1.671-0.441-2.507-0.662
		c0.477,1.41,0.343,4.882,0.456,6.829c0.274,4.746,0.528,9.492,0.797,14.238c0.262,4.628,0.531,9.257,0.861,13.882
		c0.147,2.067-0.074,4.936,0.857,6.856c0.357,0.736,1.388,0.927,2.053,0.539c1.579-0.923,1.737-2.782,1.643-4.419
		c-0.222-3.834-0.638-7.662-1.002-11.484c-0.625-6.564-1.051-13.01-1.257-19.603c-0.259-8.315-0.526-16.629-0.795-24.944
		c-0.07-2.164-0.009-4.45-0.993-6.431c-1.626-3.271-4.997-2.747-6.549,0.063C181.721,187.266,184.312,188.778,185.248,187.085
		L185.248,187.085z"/>
</g>
<g>
	<path fill="#FFFFFF" d="M165.926,188.25c3.759-3.408,5.543,2.219,5.721,4.573c0.154,2.031,0.307,4.062,0.459,6.092
		c0.479,6.372,0.955,12.744,1.416,19.117c0.631,8.716,1.535,17.438,1.791,26.175c0.026,0.899,0.878,3.875,0.458,1.84
		c-0.319-1.543-0.419-3.144-0.562-4.71c-0.461-5.068-0.714-10.157-0.982-15.238c-0.246-4.676-0.454-9.354-0.709-14.029
		c-0.072-1.319,0.325-4.644-1.414-5.136c-0.81-0.229-1.6,0.273-1.845,1.048c-0.456,1.44-0.026,3.449,0.032,4.91
		c0.172,4.328,0.384,8.654,0.592,12.98c0.182,3.773,0.37,7.546,0.559,11.319c0.202,4.006,0.061,5.609-5.223,4.989
		c-1.919-0.225-1.897,2.777,0,3c4.278,0.502,7.913-0.357,8.377-4.939c0.277-2.731-0.293-5.808-0.429-8.542
		c-0.243-4.895-0.479-9.789-0.7-14.685c-0.099-2.189-0.825-6.628-0.316-8.235c-0.615,0.349-1.23,0.699-1.845,1.048
		c-1.231-0.349-1.063-1.786-0.938-0.183c0.063,0.808,0.104,1.617,0.15,2.426c0.142,2.509,0.258,5.02,0.382,7.53
		c0.305,6.195,0.612,12.391,1.057,18.577c0.215,2.99-0.108,7.519,1.44,10.236c0.955,1.676,2.915,0.393,3.888-0.479
		c1.311-1.175,1.057-2.77,1.009-4.39c-0.348-11.901-1.64-23.853-2.521-35.726c-0.401-5.398-0.807-10.796-1.216-16.194
		c-0.408-5.384-6.12-9.695-10.751-5.495C162.369,187.431,164.497,189.546,165.926,188.25L165.926,188.25z"/>
</g>
<g>
	<path fill="#FFFFFF" d="M156.176,188.679c3.203-3.147,8.25-1.369,8.589,3.103c0.132,1.75,0.265,3.499,0.396,5.249
		c0.475,6.295,0.945,12.592,1.404,18.888c0.671,9.201,1.574,18.407,1.925,27.626c0.027,0.724,0.037,1.448,0.019,2.172
		c-0.008,0.335,0.85,1.985,0.531,0.68c-0.401-1.64-0.481-3.384-0.633-5.059c-0.461-5.068-0.714-10.157-0.982-15.238
		c-0.246-4.676-0.454-9.354-0.71-14.029c-0.072-1.318,0.325-4.645-1.415-5.136c-0.81-0.229-1.599,0.273-1.845,1.048
		c-0.457,1.439-0.026,3.45,0.032,4.91c0.173,4.328,0.385,8.654,0.593,12.98c0.182,3.773,0.369,7.546,0.559,11.319
		c0.202,4.006,0.06,5.609-5.223,4.989c-1.919-0.225-1.897,2.777,0,3c4.277,0.502,7.913-0.357,8.377-4.939
		c0.277-2.731-0.293-5.808-0.429-8.542c-0.243-4.895-0.479-9.789-0.701-14.685c-0.099-2.188-0.827-6.629-0.316-8.235
		c-0.615,0.349-1.23,0.699-1.845,1.048c-1.232-0.348-1.063-1.786-0.939-0.183c0.063,0.808,0.105,1.617,0.151,2.426
		c0.142,2.509,0.259,5.02,0.382,7.53c0.319,6.471,0.635,12.944,1.119,19.406c0.177,2.36-0.258,7.933,1.688,9.782
		c1.289,1.225,3.727-0.375,4.3-1.674c0.662-1.501,0.294-3.512,0.224-5.093c-0.565-12.573-1.782-25.159-2.719-37.709
		c-0.372-4.979,0.014-10.917-1.541-15.725c-1.77-5.473-9.598-5.483-13.112-2.029C152.673,187.915,154.795,190.035,156.176,188.679
		L156.176,188.679z"/>
</g>
<g>
	<path fill="#FFFFFF" d="M196.007,184.045c0.64,0.181,0.199-0.212,0.063-0.791c-0.233-0.992-0.278-2.033-0.348-3.046
		c-0.144-2.061-0.117-4.139-0.024-6.201c-1,0-2,0-3,0c0,0.208,0,0.417,0,0.625c0,1.944,2.905,1.921,3,0
		c0.02-0.404,0.001-2.694,0.758-2.897c-0.633-0.482-1.266-0.964-1.899-1.446c0,0.012,0,0.025,0,0.037
		c0,0.687,0.461,1.243,1.101,1.446c0.839,0.267,0.677,3.303,0.626,4.013c-0.14,1.931,2.861,1.918,3,0
		c0.167-2.321-0.188-6.068-2.828-6.906c0.367,0.482,0.734,0.964,1.101,1.446c0-0.012,0-0.025,0-0.037c0-0.979-0.957-1.7-1.899-1.446
		c-2.475,0.665-2.853,3.608-2.96,5.79c1,0,2,0,3,0c0-0.208,0-0.417,0-0.625c0-1.943-2.914-1.923-3,0
		c-0.122,2.717-1.222,11.873,2.512,12.931C197.074,187.466,197.865,184.571,196.007,184.045L196.007,184.045z"/>
</g>
<g>
	<g>
		<path fill="#FFFFFF" d="M185.074,184.045c0.64,0.181,0.199-0.212,0.063-0.791c-0.233-0.992-0.278-2.033-0.349-3.046
			c-0.144-2.061-0.117-4.139-0.025-6.201c-1,0-2,0-3,0c0,0.208,0,0.417,0,0.625c0,1.944,2.905,1.921,3,0
			c0.02-0.405,0.001-2.694,0.759-2.897c-0.633-0.482-1.266-0.964-1.899-1.446c0,0.012,0,0.025,0,0.037
			c0,0.687,0.461,1.243,1.101,1.446c0.838,0.267,0.677,3.303,0.626,4.013c-0.139,1.931,2.862,1.918,3,0
			c0.167-2.32-0.189-6.067-2.828-6.906c0.367,0.482,0.734,0.964,1.101,1.446c0-0.012,0-0.025,0-0.037
			c0-0.979-0.957-1.699-1.899-1.446c-2.475,0.665-2.854,3.608-2.961,5.79c1,0,2,0,3,0c0-0.208,0-0.417,0-0.625
			c0-1.943-2.914-1.923-3,0c-0.122,2.717-1.221,11.873,2.512,12.931C186.141,187.466,186.932,184.571,185.074,184.045
			L185.074,184.045z"/>
	</g>
	<g>
		<path fill="#FFFFFF" d="M183.128,187.589c-0.081,0.354-0.776,0.828-0.581,0.775c0.306-0.082,0.135-0.041,0.369-0.066
			c0.457-0.049,0.919-0.059,1.379-0.062c0.46-0.002,0.921,0.021,1.379,0.062c0.545,0.049-0.226-0.049,0.239,0.037
			c0.083,0.017,0.166,0.037,0.248,0.061c-0.347-0.132-0.579-0.401-0.698-0.807c0.433,1.885,3.326,1.085,2.893-0.798
			c-0.374-1.626-2.788-1.546-4.06-1.554c-1.269-0.008-3.689-0.061-4.06,1.554C179.803,188.674,182.695,189.474,183.128,187.589
			L183.128,187.589z"/>
	</g>
</g>
<g>
	<g>
		<path fill="#FFFFFF" d="M177.603,183.174c0.61,0.163,0.222-0.046,0.063-0.686c-0.231-0.926-0.279-1.901-0.349-2.849
			c-0.144-1.943-0.117-3.902-0.024-5.846c-1,0-2,0-3,0c0,0.197,0,0.393,0,0.59c0,1.946,2.9,1.92,3,0
			c0.022-0.429,0.004-2.458,0.759-2.649c-0.633-0.482-1.266-0.964-1.899-1.446c0,0.012,0,0.023,0,0.035
			c0,0.679,0.46,1.254,1.101,1.446c0.817,0.245,0.667,3.155,0.625,3.699c-0.148,1.931,2.853,1.916,3,0
			c0.173-2.264-0.256-5.822-2.828-6.591c0.367,0.482,0.734,0.964,1.101,1.446c0-0.012,0-0.023,0-0.035
			c0-0.99-0.956-1.685-1.899-1.446c-2.415,0.611-2.85,3.412-2.961,5.542c1,0,2,0,3,0c0-0.197,0-0.393,0-0.59
			c0-1.944-2.909-1.922-3,0c-0.125,2.626-1.138,11.299,2.513,12.273C178.677,186.566,179.47,183.672,177.603,183.174
			L177.603,183.174z"/>
	</g>
</g>
<g>
	<g>
		<path fill="#FFFFFF" d="M168.185,184.045c0.64,0.181,0.199-0.212,0.063-0.791c-0.233-0.992-0.278-2.033-0.348-3.046
			c-0.143-2.061-0.116-4.139-0.024-6.201c-1,0-2,0-3,0c0,0.208,0,0.417,0,0.625c0,1.944,2.905,1.921,3,0
			c0.02-0.405,0.001-2.694,0.758-2.897c-0.633-0.482-1.266-0.964-1.899-1.446c0,0.012,0,0.025,0,0.037
			c0,0.687,0.461,1.243,1.101,1.446c0.839,0.267,0.676,3.303,0.625,4.013c-0.14,1.931,2.861,1.917,3,0
			c0.168-2.32-0.188-6.067-2.827-6.906c0.367,0.482,0.734,0.964,1.101,1.446c0-0.012,0-0.025,0-0.037
			c0-0.979-0.957-1.699-1.899-1.446c-2.475,0.665-2.853,3.608-2.96,5.79c1,0,2,0,3,0c0-0.208,0-0.417,0-0.625
			c0-1.943-2.914-1.923-3,0c-0.122,2.717-1.223,11.874,2.512,12.931C169.252,187.465,170.043,184.571,168.185,184.045
			L168.185,184.045z"/>
	</g>
</g>
<g>
	<g>
		<path fill="#FFFFFF" d="M159.804,183.675c0.628,0.173,0.208-0.142,0.063-0.746c-0.232-0.964-0.278-1.977-0.349-2.962
			c-0.143-2.011-0.117-4.039-0.024-6.051c-1,0-2,0-3,0c0,0.204,0,0.408,0,0.611c0,1.945,2.903,1.921,3,0
			c0.021-0.413,0.002-2.594,0.758-2.792c-0.633-0.482-1.266-0.964-1.899-1.446c0,0.012,0,0.024,0,0.037
			c0,0.683,0.461,1.248,1.101,1.446c0.837,0.259,0.678,3.185,0.626,3.878c-0.143,1.931,2.858,1.917,3,0
			c0.169-2.293-0.218-5.963-2.829-6.771c0.367,0.482,0.734,0.964,1.101,1.446c0-0.012,0-0.024,0-0.037
			c0-0.984-0.957-1.693-1.899-1.446c-2.45,0.642-2.851,3.525-2.96,5.685c1,0,2,0,3,0c0-0.204,0-0.408,0-0.611
			c0-1.943-2.912-1.923-3,0c-0.123,2.678-1.187,11.631,2.512,12.652C160.874,187.084,161.666,184.189,159.804,183.675
			L159.804,183.675z"/>
	</g>
</g>
<g>
	<g>
		<path fill="#FFFFFF" d="M149.945,184.045c0.64,0.181,0.199-0.212,0.063-0.791c-0.233-0.992-0.278-2.033-0.348-3.046
			c-0.144-2.061-0.117-4.139-0.025-6.201c-1,0-2,0-3,0c0,0.208,0,0.417,0,0.625c0,1.944,2.905,1.921,3,0
			c0.02-0.406,0-2.694,0.759-2.897c-0.633-0.482-1.266-0.964-1.899-1.446c0,0.012,0,0.025,0,0.037c0,0.687,0.461,1.243,1.101,1.446
			c0.839,0.267,0.676,3.304,0.625,4.013c-0.14,1.931,2.861,1.918,3,0c0.168-2.32-0.188-6.068-2.827-6.906
			c0.367,0.482,0.734,0.964,1.101,1.446c0-0.012,0-0.025,0-0.037c0-0.98-0.957-1.699-1.899-1.446
			c-2.476,0.665-2.854,3.608-2.961,5.79c1,0,2,0,3,0c0-0.208,0-0.417,0-0.625c0-1.943-2.914-1.923-3,0
			c-0.121,2.717-1.222,11.874,2.512,12.931C151.012,187.466,151.803,184.571,149.945,184.045L149.945,184.045z"/>
	</g>
</g>
<g>
	<path fill="#FFFFFF" d="M210.63,148.19c-0.506,3.517-6.241,2.681-8.371,2.681c-3.935,0-7.87,0-11.805,0
		c-2.875,0-19.132,2.183-19.132-3.343c0-2.291,17.592-1.491,19.329-1.491c3.796,0,7.593,0,11.389,0c2.699,0,8.537-0.949,8.537,2.553
		c0,1.935,3,1.935,3,0c0-5.311-4.315-5.553-8.819-5.553c-4.377,0-8.755,0-13.133,0c-3.982,0-23.302-2.223-23.302,4.12
		c0,4.432,2.263,6.715,6.794,6.715c4.455,0,8.91,0,13.365,0c5.448,0,10.896,0,16.344,0c3.844,0,8.028-0.229,8.698-4.883
		C213.794,147.097,210.904,146.282,210.63,148.19z"/>
</g>
<g>
	<path fill="#FFFFFF" d="M172.431,138.335c0.506-3.517,6.241-2.681,8.372-2.681c3.935,0,7.87,0,11.805,0
		c2.876,0,19.132-2.184,19.132,3.344c0,2.289-17.593,1.49-19.329,1.49c-3.796,0-7.592,0-11.389,0c-2.699,0-8.538,0.949-8.538-2.552
		c0-1.935-3-1.935-3,0c0,5.312,4.316,5.552,8.821,5.552c4.377,0,8.755,0,13.132,0c3.981,0,23.302,2.223,23.302-4.118
		c0-4.433-2.263-6.716-6.794-6.716c-4.455,0-8.91,0-13.365,0c-5.448,0-10.896,0-16.345,0c-3.844,0-8.028,0.229-8.698,4.883
		C169.266,139.429,172.156,140.244,172.431,138.335z"/>
</g>
<g>
	<path fill="#FFFFFF" d="M172.431,129.379c0.665-3.71,16.794-1.933,19.186-1.933c6.027,0,12.81-0.9,18.775,0.246
		c4.892,0.94-1.261,2.844-1.495,2.873c-1.13,0.139-2.284,0.138-3.42,0.162c-0.992,0.021-1.986,0.005-2.979,0.005
		c-3.362,0-6.725,0-10.087,0c-1.896,0-19.927,1.094-19.927-1.752c0-1.935-3-1.935-3,0c0,5.019,5.035,4.752,8.965,4.752
		c4.33,0,8.659,0,12.988,0c4.387,0,23.302,2.354,23.302-4.177c0-7.798-16.39-5.109-21.144-5.109c-5.12,0-10.24,0-15.36,0
		c-3.463,0-7.939-0.096-8.698,4.135C169.199,130.473,172.09,131.281,172.431,129.379z"/>
</g>
<g>
	<path fill="#FFFFFF" d="M230.793,119.295c0.175-2.593,1.061-2.077,2.802-2.077c1.815,0,3.631,0,5.447,0c1.74,0,3.48,0,5.221,0
		c2.017,0,2.285,0.897,2.285,3.081c0,2.076-7.8,1.328-8.761,1.328C235.328,121.626,230.793,122.662,230.793,119.295
		c0-1.935-3-1.935-3,0c0,6.347,5.188,5.332,9.994,5.332c3.773,0,11.761,1.398,11.761-4.328c0-2.484-0.307-5.588-3.296-6.027
		c-2.09-0.307-4.365-0.054-6.471-0.054c-2.699,0-5.398,0-8.097,0c-2.934,0-3.725,2.612-3.891,5.077
		C227.663,121.227,230.663,121.214,230.793,119.295z"/>
</g>
<g>
	<path fill="#FFFFFF" d="M246.032,129.37c-0.175,2.594-1.061,2.077-2.802,2.077c-1.815,0-3.631,0-5.446,0c-1.74,0-3.48,0-5.221,0
		c-2.018,0-2.286-0.897-2.286-3.081c0-2.074,7.8-1.328,8.761-1.328C241.497,127.038,246.032,126.002,246.032,129.37
		c0,1.935,3,1.935,3,0c0-6.346-5.189-5.332-9.994-5.332c-3.772,0-11.761-1.397-11.761,4.328c0,2.484,0.307,5.589,3.296,6.027
		c2.09,0.307,4.365,0.054,6.471,0.054c2.699,0,5.398,0,8.097,0c2.934,0,3.724-2.612,3.891-5.077
		C249.163,127.438,246.162,127.45,246.032,129.37z"/>
</g>
<g>
	<path fill="#FFFFFF" d="M246.032,137.84c-0.256,2.501-6.552,1.371-8.249,1.371c-2.45,0-7.506,1.293-7.506-2.177
		c0-1.235,7.35-0.77,8.026-0.77C239.994,136.264,246.032,135.332,246.032,137.84c0,1.935,3,1.935,3,0
		c0-5.758-5.824-4.576-9.994-4.576c-3.322,0-11.761-1.416-11.761,3.77c0,6.225,5.174,5.177,9.767,5.177
		c4.5,0,11.367,1.698,11.988-4.371C249.229,135.916,246.227,135.935,246.032,137.84z"/>
</g>
<g>
	<path fill="#FFFFFF" d="M257.053,120.693c0.175-2.593,1.062-2.077,2.803-2.077c1.815,0,3.631,0,5.446,0c1.74,0,3.48,0,5.221,0
		c2.017,0,2.286,0.897,2.286,3.081c0,2.076-7.801,1.329-8.762,1.328C261.587,123.025,257.053,124.061,257.053,120.693
		c0-1.935-3-1.935-3,0c0,6.347,5.188,5.333,9.994,5.333c3.772,0,11.762,1.398,11.762-4.328c0-2.484-0.308-5.589-3.297-6.027
		c-2.09-0.307-4.365-0.054-6.471-0.054c-2.699,0-5.398,0-8.097,0c-2.934,0-3.725,2.611-3.891,5.077
		C253.923,122.625,256.923,122.612,257.053,120.693z"/>
</g>
<g>
	<path fill="#FFFFFF" d="M272.292,129.398c-0.175,2.594-1.06,2.077-2.802,2.077c-1.815,0-3.631,0-5.447,0c-1.74,0-3.48,0-5.22,0
		c-2.018,0-2.286-0.898-2.286-3.082c0-2.075,7.8-1.328,8.761-1.328C267.758,127.066,272.292,126.03,272.292,129.398
		c0,1.935,3,1.935,3,0c0-6.347-5.188-5.333-9.994-5.333c-3.772,0-11.761-1.397-11.761,4.328c0,2.484,0.307,5.59,3.296,6.028
		c2.09,0.307,4.365,0.054,6.471,0.054c2.699,0,5.398,0,8.097,0c2.934,0,3.724-2.612,3.89-5.077
		C275.422,127.466,272.421,127.479,272.292,129.398z"/>
</g>
<g>
	<path fill="#FFFFFF" d="M272.292,137.869c-0.255,2.5-6.552,1.37-8.249,1.37c-2.449,0-7.506,1.293-7.506-2.176
		c0-1.235,7.35-0.77,8.026-0.77C266.254,136.292,272.292,135.359,272.292,137.869c0,1.935,3,1.935,3,0
		c0-5.759-5.823-4.576-9.994-4.576c-3.322,0-11.761-1.416-11.761,3.77c0,6.224,5.174,5.176,9.767,5.176
		c4.499,0,11.367,1.698,11.987-4.37C275.489,135.944,272.487,135.963,272.292,137.869z"/>
</g>
<g>
	<path fill="#FFFFFF" d="M82.989,118.782c0.106-2.234,0.271-2.077,2.074-2.077c1.712,0,3.425,0,5.138,0c1.367,0,2.734,0,4.101,0
		c1.714,0,1.265,1.811,1.265,3.221c0,1.91-5.859,1.188-7.022,1.188c-1.392,0-2.783,0-4.174,0
		C82.806,121.114,82.989,120.092,82.989,118.782c0-1.935-3-1.935-3,0c0,2.27,0.143,4.258,2.492,5.176
		c1.476,0.578,3.942,0.156,5.458,0.156c3.604,0,10.627,1.24,10.627-4.188c0-1.831,0.05-5.722-2.506-6.104
		c-1.918-0.287-3.926-0.116-5.86-0.116c-2.242,0-4.483,0-6.725,0c-2.795,0-3.379,2.822-3.486,5.077
		C79.897,120.716,82.897,120.708,82.989,118.782z"/>
</g>
<g>
	<path fill="#FFFFFF" d="M95.138,128.857c-0.106,2.234-0.271,2.077-2.073,2.077c-1.712,0-3.425,0-5.138,0c-1.367,0-2.734,0-4.101,0
		c-1.715,0-1.265-1.812-1.265-3.222c0-1.908,5.86-1.188,7.021-1.188c1.392,0,2.783,0,4.174,0
		C95.321,126.524,95.138,127.546,95.138,128.857c0,1.935,3,1.935,3,0c0-2.27-0.143-4.257-2.492-5.176
		c-1.477-0.578-3.941-0.156-5.458-0.156c-3.603,0-10.627-1.24-10.627,4.188c0,1.831-0.051,5.723,2.506,6.105
		c1.918,0.287,3.926,0.116,5.86,0.116c2.242,0,4.484,0,6.726,0c2.795,0,3.378-2.823,3.486-5.077
		C98.23,126.922,95.23,126.931,95.138,128.857z"/>
</g>
<g>
	<path fill="#FFFFFF" d="M95.138,137.327c-0.125,1.794-0.739,1.37-2.073,1.37c-1.508,0-3.016,0-4.524,0c-1.445,0-2.891,0-4.336,0
		c-1.574,0-1.644-0.479-1.644-2.176c0-1.262,6.47-0.77,7.021-0.77c1.313,0,2.625,0,3.938,0
		C94.759,135.751,95.138,136.069,95.138,137.327c0,1.935,3,1.935,3,0c0-5.387-4.508-4.576-8.556-4.576
		c-3.249,0-10.021-1.146-10.021,3.77c0,2.151,0.359,4.759,2.924,5.122c1.766,0.25,3.664,0.054,5.442,0.054
		c4.279,0,9.809,1.385,10.211-4.37C98.273,135.395,95.272,135.408,95.138,137.327z"/>
</g>
<g>
	<g>
		<path fill="#FFFFFF" d="M255.905,285.464c-0.141-3.219-0.282-6.438-0.422-9.657c-0.084-1.926-3.084-1.935-3,0
			c0.141,3.219,0.282,6.438,0.422,9.657C252.989,287.391,255.989,287.398,255.905,285.464L255.905,285.464z"/>
	</g>
	<g>
		<path fill="#FFFFFF" d="M254.335,269.479c-0.017,2.035,0.256,4.477-1.625,5.763c-1.29,0.882-2.415,1.177-3.356,2.479
			c-1.056,1.461-1.534,3.472-2.295,5.085c-1.23,2.609-3.059,2.482-5.617,2.294c-1.931-0.143-1.917,2.857,0,3
			c2.437,0.18,4.441,0.403,6.408-1.195c1.883-1.531,2.586-4.475,3.525-6.6c0.912-2.064,3.31-2.246,4.603-4.029
			c1.41-1.945,1.339-4.501,1.357-6.797C257.351,267.543,254.351,267.545,254.335,269.479L254.335,269.479z"/>
	</g>
	<g>
		<path fill="#FFFFFF" d="M254.386,269.452c-1.478,4.096-1.727-2.673-4.634-0.848c-2.048,1.286-3.001,4.428-4.061,6.461
			c-0.87,1.668-1.814,3.321-3.042,4.754c-0.927,1.083-2.227,1.558-2.801,2.935c-0.757,1.816-1.135,5.945,1.992,5.291
			c1.893-0.396,1.09-3.287-0.798-2.893c-0.095,0.021-0.191,0.041-0.287,0.061c0.487,0.129,0.973,0.257,1.459,0.386
			c-0.771-0.653,3.791-5.204,4.344-6.03c1.544-2.306,2.621-4.892,3.969-7.31c0.192-0.345,0.398-0.694,0.655-0.997
			c-0.398-0.008-0.797-0.016-1.196-0.024c0.104,0.438,0.226,0.873,0.363,1.302c0.293,0.999,1.092,1.979,2.123,2.263
			c2.659,0.731,4.12-2.654,4.805-4.553C257.937,268.425,255.038,267.646,254.386,269.452L254.386,269.452z"/>
	</g>
	<g>
		<path fill="#FFFFFF" d="M255.905,285.464c0.362-4.056,0.723-8.111,1.085-12.167c0.172-1.928-2.83-1.911-3,0
			c-0.362,4.056-0.723,8.111-1.085,12.167C252.733,287.392,255.734,287.375,255.905,285.464L255.905,285.464z"/>
	</g>
</g>
<g>
	<g>
		<path fill="#FFFFFF" d="M241.89,285.008c-0.141-3.219-0.282-6.438-0.423-9.657c-0.084-1.927-3.085-1.935-3,0
			c0.141,3.219,0.282,6.438,0.423,9.657C238.975,286.934,241.975,286.942,241.89,285.008L241.89,285.008z"/>
	</g>
	<g>
		<path fill="#FFFFFF" d="M240.32,269.022c-0.017,2.035,0.255,4.476-1.625,5.763c-1.29,0.882-2.415,1.176-3.356,2.48
			c-1.056,1.461-1.534,3.471-2.295,5.084c-1.231,2.609-3.059,2.482-5.618,2.293c-1.931-0.143-1.917,2.857,0,3
			c2.437,0.181,4.442,0.404,6.408-1.195c1.883-1.531,2.586-4.474,3.526-6.599c0.912-2.063,3.31-2.247,4.603-4.03
			c1.41-1.944,1.339-4.5,1.357-6.796C243.336,267.087,240.336,267.089,240.32,269.022L240.32,269.022z"/>
	</g>
	<g>
		<path fill="#FFFFFF" d="M240.371,268.996c-1.477,4.095-1.728-2.673-4.634-0.848c-2.048,1.286-3.001,4.428-4.061,6.461
			c-0.87,1.669-1.814,3.321-3.041,4.755c-0.927,1.082-2.227,1.557-2.801,2.934c-0.757,1.816-1.135,5.947,1.992,5.292
			c1.893-0.397,1.09-3.288-0.798-2.893c-0.095,0.021-0.191,0.04-0.287,0.06c0.487,0.129,0.973,0.258,1.459,0.387
			c-0.771-0.653,3.791-5.205,4.344-6.029c1.544-2.307,2.621-4.893,3.969-7.311c0.193-0.345,0.398-0.694,0.655-0.997
			c-0.398-0.008-0.797-0.016-1.195-0.024c0.104,0.438,0.226,0.873,0.363,1.302c0.293,1,1.092,1.979,2.123,2.263
			c2.659,0.731,4.12-2.653,4.805-4.553C243.921,267.969,241.021,267.19,240.371,268.996L240.371,268.996z"/>
	</g>
	<g>
		<path fill="#FFFFFF" d="M241.89,285.008c0.362-4.057,0.723-8.111,1.085-12.167c0.172-1.928-2.83-1.911-3,0
			c-0.362,4.056-0.723,8.111-1.085,12.167C238.718,286.936,241.72,286.918,241.89,285.008L241.89,285.008z"/>
	</g>
</g>
<g>
	<g>
		<path fill="#FFFFFF" d="M277.62,283.973c-0.062-3.885-0.125-7.77-0.187-11.654c-0.031-1.934-3.031-1.936-3,0
			c0.062,3.885,0.125,7.77,0.187,11.654C274.65,285.904,277.65,285.908,277.62,283.973L277.62,283.973z"/>
	</g>
	<g>
		<path fill="#FFFFFF" d="M275.802,251.397c-0.029,6.481-0.206,13.096-1.27,19.5c-0.32,1.928-3.06,13.092-3.583,12.999
			c-1.892-0.337-2.7,2.554-0.798,2.893c6.277,1.119,4.949-8.483,6.538-12.39c2.742-6.741,2.081-15.865,2.112-23.001
			C278.811,249.462,275.811,249.463,275.802,251.397L275.802,251.397z"/>
	</g>
	<g>
		<path fill="#FFFFFF" d="M277.701,249.951c-2.125-0.398-4.389-0.311-4.672,2.341c-0.422,3.963-0.284,8.007-0.667,11.992
			c-0.443,4.6-1.008,9.303-2.37,13.734c-0.8,2.604-1.908,4.906-1.167,7.766c0.204,0.784,1.069,1.272,1.845,1.048
			c0.051-0.015,0.102-0.029,0.152-0.044c1.855-0.535,1.065-3.431-0.798-2.893c-0.05,0.015-0.101,0.029-0.152,0.044
			c0.615,0.349,1.23,0.698,1.845,1.048c-0.567-2.188,0.456-4.191,1.167-6.171c1.06-2.951,1.425-6.22,1.858-9.307
			c0.402-2.865,0.688-5.745,0.92-8.629c0.106-1.319-0.192-8.306,1.24-8.038C278.794,253.198,279.601,250.307,277.701,249.951
			L277.701,249.951z"/>
	</g>
	<g>
		<path fill="#FFFFFF" d="M277.62,284.744c0.159-5.152,0.318-10.305,0.477-15.456c0.06-1.936-2.94-1.93-3,0
			c-0.159,5.151-0.318,10.304-0.477,15.456C274.56,286.68,277.56,286.674,277.62,284.744L277.62,284.744z"/>
	</g>
</g>
<g>
	<g>
		<path fill="#FFFFFF" d="M267.865,283.191c-0.074-3.886-0.147-7.771-0.221-11.656c-0.037-1.932-3.037-1.936-3,0
			c0.074,3.885,0.147,7.771,0.221,11.656C264.901,285.123,267.901,285.127,267.865,283.191L267.865,283.191z"/>
	</g>
	<g>
		<path fill="#FFFFFF" d="M266.27,250.615c-0.034,6.479-0.261,13.13-1.518,19.499c-0.345,1.749-1.335,3.102-1.781,4.804
			c-0.461,1.758-0.669,8.562-2.82,8.196c-1.892-0.321-2.702,2.569-0.798,2.893c7.225,1.229,4.484-8.134,7.268-12.031
			c1.624-2.273,1.585-6.255,1.886-8.918c0.54-4.785,0.738-9.629,0.764-14.442C269.28,248.68,266.28,248.681,266.27,250.615
			L266.27,250.615z"/>
	</g>
	<g>
		<path fill="#FFFFFF" d="M268.168,249.169c-7.557-1.227-5.311,8.016-5.852,13.162c-0.498,4.743-1.218,9.565-2.672,14.12
			c-0.921,2.887-2.674,5.299-1.672,8.552c0.246,0.8,1.032,1.244,1.845,1.048c0.06-0.015,0.12-0.029,0.181-0.044
			c1.88-0.454,1.083-3.347-0.798-2.893c-0.06,0.015-0.12,0.029-0.181,0.044c0.615,0.349,1.23,0.698,1.845,1.047
			c-0.715-2.322,0.646-4.145,1.386-6.17c1.098-3.008,1.682-6.158,2.207-9.309c0.477-2.858,0.808-5.745,1.083-8.629
			c0.158-1.657-0.452-8.406,1.83-8.036C269.263,252.369,270.074,249.479,268.168,249.169L268.168,249.169z"/>
	</g>
	<g>
		<path fill="#FFFFFF" d="M267.865,283.963c0.189-5.152,0.378-10.305,0.567-15.457c0.071-1.936-2.929-1.928-3,0
			c-0.189,5.152-0.378,10.305-0.567,15.457C264.794,285.898,267.794,285.891,267.865,283.963L267.865,283.963z"/>
	</g>
</g>
<g>
	<g>
		<path fill="#FFFFFF" d="M97.493,285.072c-0.062-1.359-0.124-2.719-0.186-4.079c-0.088-1.927-3.088-1.935-3,0
			c0.062,1.36,0.124,2.72,0.186,4.079C94.581,286.998,97.581,287.008,97.493,285.072L97.493,285.072z"/>
	</g>
	<g>
		<path fill="#FFFFFF" d="M95.675,273.67c-0.035,2.15-0.234,4.627-1.306,6.537c-0.339,0.604-1.093,0.951-1.457,1.635
			c-0.715,1.343-0.704,2.34-2.488,2.211c-1.931-0.139-1.918,2.862,0,3c1.481,0.106,2.607,0.07,3.679-1.051
			c1.002-1.05,1.236-2.52,2.134-3.405c2.147-2.118,2.392-6.087,2.438-8.927C98.707,271.734,95.707,271.736,95.675,273.67
			L95.675,273.67z"/>
	</g>
	<g>
		<path fill="#FFFFFF" d="M97.175,272.17c-1.352-0.096-3.048-0.331-3.959,0.914c-0.704,0.963-0.431,2.598-0.675,3.727
			c-0.402,1.862-1.083,3.918-2.38,5.351c-1.002,1.106-2.148,2.058-1.5,3.776c0.253,0.671,0.724,1.045,1.446,1.101
			c0.064,0.005,0.127,0.01,0.191,0.015c1.931,0.147,1.916-2.854,0-3c-0.063-0.005-0.127-0.01-0.191-0.015
			c0.482,0.367,0.964,0.734,1.447,1.101c-0.097-0.256,1.657-2.021,1.88-2.364c0.699-1.071,1.146-2.351,1.554-3.555
			c0.366-1.084,0.636-2.235,0.751-3.376c0.046-0.456,0.045-0.906,0.055-1.365c-0.656,0.547-0.648,0.752,0.023,0.614
			c0.454,0.012,0.906,0.038,1.358,0.077C99.107,275.305,99.094,272.305,97.175,272.17L97.175,272.17z"/>
	</g>
	<g>
		<path fill="#FFFFFF" d="M97.493,285.343c0.159-1.804,0.318-3.606,0.477-5.411c0.17-1.928-2.832-1.911-3,0
			c-0.159,1.805-0.318,3.607-0.477,5.411C94.323,287.271,97.324,287.254,97.493,285.343L97.493,285.343z"/>
	</g>
</g>
<g>
	<g>
		<path fill="#FFFFFF" d="M87.738,284.799c-0.074-1.359-0.147-2.719-0.221-4.079c-0.104-1.924-3.104-1.935-3,0
			c0.074,1.36,0.147,2.72,0.221,4.079C84.842,286.723,87.842,286.732,87.738,284.799L87.738,284.799z"/>
	</g>
	<g>
		<path fill="#FFFFFF" d="M86.143,273.396c-0.034,1.748-0.156,5.799-1.954,6.74c-0.715,0.374-1.141,1.029-1.521,1.717
			c-0.243,0.439-0.455,0.896-0.701,1.334c-0.497,0.889-1.481,0.644-2.343,0.592c-1.933-0.117-1.922,2.883,0,3
			c1.631,0.098,2.816,0.088,4.104-0.982c1.152-0.957,1.443-2.511,2.602-3.474c2.36-1.961,2.758-6.071,2.813-8.927
			C89.18,271.461,86.18,271.464,86.143,273.396L86.143,273.396z"/>
	</g>
	<g>
		<path fill="#FFFFFF" d="M87.643,271.896c-1.397-0.085-3.25-0.383-4.341,0.732c-0.876,0.896-0.575,2.645-0.858,3.783
			c-0.475,1.912-1.399,4.341-3.047,5.551c-1.399,1.027-2.233,2.297-1.446,4.059c0.218,0.489,0.805,0.712,1.295,0.743
			c0.076,0.005,0.151,0.009,0.227,0.015c1.933,0.122,1.921-2.879,0-3c-0.076-0.006-0.151-0.01-0.227-0.015
			c0.432,0.247,0.864,0.495,1.295,0.743c0.256,0.573,2.194-1.699,2.329-1.892c0.85-1.209,1.455-2.518,1.985-3.893
			c0.44-1.141,0.705-2.326,0.845-3.537c0.136-1.188,0.083-0.416-0.423-0.349c0.768-0.102,1.599,0.012,2.366,0.059
			C89.576,275.014,89.564,272.012,87.643,271.896L87.643,271.896z"/>
	</g>
	<g>
		<path fill="#FFFFFF" d="M87.738,285.068c0.189-1.803,0.378-3.605,0.567-5.409c0.202-1.923-2.8-1.903-3,0
			c-0.189,1.804-0.378,3.606-0.567,5.409C84.536,286.992,87.538,286.973,87.738,285.068L87.738,285.068z"/>
	</g>
</g>
<g>
	<path fill="#FFFFFF" d="M210.119,118.978c-0.506,3.517-6.241,2.681-8.371,2.681c-3.935,0-7.87,0-11.805,0
		c-2.875,0-19.132,2.183-19.132-3.343c0-2.291,17.592-1.491,19.329-1.491c3.796,0,7.593,0,11.389,0c2.699,0,8.537-0.949,8.537,2.553
		c0,1.935,3,1.935,3,0c0-5.311-4.315-5.553-8.819-5.553c-4.377,0-8.755,0-13.133,0c-3.982,0-23.302-2.223-23.302,4.12
		c0,4.432,2.263,6.715,6.794,6.715c4.455,0,8.91,0,13.365,0c5.448,0,10.896,0,16.344,0c3.844,0,8.028-0.229,8.698-4.883
		C213.284,117.884,210.394,117.069,210.119,118.978z"/>
</g>
<g>
	<path fill="#FFFFFF" d="M171.92,109.123c0.506-3.517,6.241-2.681,8.372-2.681c3.935,0,7.87,0,11.805,0
		c2.876,0,19.132-2.184,19.132,3.344c0,2.289-17.593,1.49-19.329,1.49c-3.796,0-7.592,0-11.389,0c-2.699,0-8.538,0.949-8.538-2.552
		c0-1.935-3-1.935-3,0c0,5.312,4.316,5.552,8.821,5.552c4.377,0,8.755,0,13.132,0c3.981,0,23.302,2.223,23.302-4.118
		c0-4.433-2.263-6.716-6.794-6.716c-4.455,0-8.91,0-13.365,0c-5.448,0-10.896,0-16.345,0c-3.844,0-8.028,0.229-8.698,4.883
		C168.755,110.216,171.646,111.031,171.92,109.123z"/>
</g>
<g>
	<path fill="#FFFFFF" d="M171.92,100.167c0.665-3.71,16.794-1.933,19.186-1.933c6.027,0,12.81-0.9,18.775,0.246
		c4.892,0.94-1.261,2.844-1.495,2.873c-1.13,0.139-2.284,0.138-3.42,0.162c-0.992,0.021-1.986,0.005-2.979,0.005
		c-3.362,0-6.725,0-10.087,0c-1.896,0-19.927,1.094-19.927-1.752c0-1.935-3-1.935-3,0c0,5.019,5.035,4.752,8.965,4.752
		c4.33,0,8.659,0,12.988,0c4.387,0,23.302,2.354,23.302-4.177c0-7.798-16.39-5.109-21.144-5.109c-5.12,0-10.24,0-15.36,0
		c-3.463,0-7.939-0.096-8.698,4.135C168.688,101.26,171.579,102.068,171.92,100.167z"/>
</g>
<g>
	<path fill="#FFFFFF" d="M71.595,189.571c11.333,0,22.667,0,34,0c4.514,0,4.514-7,0-7c-11.333,0-22.667,0-34,0
		C67.081,182.571,67.081,189.571,71.595,189.571L71.595,189.571z"/>
</g>
</svg>
