<?xml version="1.0" encoding="iso-8859-1"?>
<!-- Generator: Adobe Illustrator 16.0.0, SVG Export Plug-In . SVG Version: 6.00 Build 0)  -->
<!DOCTYPE svg PUBLIC "-//W3C//DTD SVG 1.1//EN" "http://www.w3.org/Graphics/SVG/1.1/DTD/svg11.dtd">
<svg version="1.1" xmlns="http://www.w3.org/2000/svg" xmlns:xlink="http://www.w3.org/1999/xlink" x="0px" y="0px" width="361px"
	 height="361px" viewBox="0 0 361 361" style="enable-background:new 0 0 361 361;" xml:space="preserve">
<g id="scene_x5F_scene">
	<g>
		<g>
			<path style="fill:#FFFFFF;" d="M268.5,280c-0.23,2.29-14.844,1-16.432,1c-13.176,0-26.353,0-39.529,0
				c-30.983,0-61.967,0-92.951,0c-8.058,0-16.116,0-24.175,0c-1.59,0-2.247-0.405-2.247-2.09c0-3.65,0-7.301,0-10.951
				c0-29.623,0-59.246,0-88.869c0-1.914-1.453-17.09,1.367-17.09c6.941,0,13.882,0,20.823,0c30.504,0,61.008,0,91.512,0
				c20.17,0,40.34,0,60.51,0c2.364,0,1.121,17.56,1.121,19.281c0,15.397,0,30.795,0,46.192C268.5,244.982,268.5,262.491,268.5,280
				c0,6.448,10,6.448,10,0c0-23.464,0-46.928,0-70.392c0-13.234,0-26.468,0-39.702c0-2.298,0-4.596,0-6.895
				c0-6.541-5.52-11.011-11.744-11.011c-51.773,0-103.547,0-155.321,0c-5.753,0-11.507,0-17.26,0
				c-12.867,0-11.008,14.455-11.008,23.041c0,29.623,0,59.246,0,88.869c0,6.982-2.431,21.284,5.122,25.383
				c5.493,2.98,13.547,1.707,19.559,1.707c29.124,0,58.247,0,87.371,0c18.337,0,36.675,0,55.013,0c10.112,0,26.842,3.156,28.269-11
				C279.146,273.585,269.141,273.647,268.5,280z"/>
		</g>
	</g>
	<g>
		<g>
			<g>
				<path style="fill:#FFFFFF;" d="M274.563,146.775c-2.323,5.038-14.145-1.235-17.662-2.39
					c-12.154-3.991-24.308-7.981-36.462-11.972c-30.034-9.861-60.069-19.723-90.104-29.584c-9.521-3.126-19.041-6.251-28.561-9.377
					c-1.557-0.511-3.114-1.022-4.671-1.534c-3.229-1.061,0-7.578,0.601-9.407c0.659-2.006,1.722-3.871,4.287-3.029
					c19.651,6.452,39.302,12.904,58.953,19.356c27.074,8.889,54.147,17.779,81.222,26.668c8.915,2.927,17.83,5.854,26.745,8.781
					c1.989,0.653,3.979,1.307,5.969,1.959c4.095,1.345,0.188,8.758-0.669,11.364c-1.412,4.301,5.349,6.129,6.75,1.861
					c2.25-6.853,5.902-15.414-2.838-19.443c-1.459-0.672-3.057-1.082-4.578-1.582c-9.084-2.982-18.168-5.965-27.252-8.948
					c-29.914-9.822-59.828-19.644-89.742-29.466c-17.708-5.814-35.417-11.628-53.125-17.442
					c-9.408-3.089-12.164,7.121-14.319,13.684c-1.859,5.662,1.335,10.816,6.781,12.604c6.848,2.249,13.697,4.498,20.545,6.746
					c50.384,16.543,100.769,33.086,151.153,49.629c5.207,1.71,10.546,0.421,13.021-4.946
					C282.483,146.238,276.451,142.68,274.563,146.775z"/>
			</g>
		</g>
		<polygon style="fill:#FFFFFF;stroke:#FFFFFF;stroke-miterlimit:10;" points="107.453,95.137 95.543,91.226 109.527,82.134 
			121.437,86.045 		"/>
		<polygon style="fill:#FFFFFF;stroke:#FFFFFF;stroke-miterlimit:10;" points="132.789,103.455 120.879,99.544 134.863,90.453 
			146.772,94.364 		"/>
		<polygon style="fill:#FFFFFF;stroke:#FFFFFF;stroke-miterlimit:10;" points="157.388,111.882 145.478,107.972 159.461,98.88 
			171.372,102.791 		"/>
		<polygon style="fill:#FFFFFF;stroke:#FFFFFF;stroke-miterlimit:10;" points="182.827,119.885 170.917,115.974 184.9,106.883 
			196.811,110.793 		"/>
		<polygon style="fill:#FFFFFF;stroke:#FFFFFF;stroke-miterlimit:10;" points="207.424,127.785 195.514,123.875 209.497,114.783 
			221.407,118.694 		"/>
		<polygon style="fill:#FFFFFF;stroke:#FFFFFF;stroke-miterlimit:10;" points="232.97,135.998 221.06,132.087 235.043,122.996 
			246.953,126.906 		"/>
		<polygon style="fill:#FFFFFF;stroke:#FFFFFF;stroke-miterlimit:10;" points="260.629,145.254 248.719,141.344 262.702,132.252 
			274.612,136.163 		"/>
	</g>
	<g>
		<g>
			<path style="fill:#FFFFFF;" d="M271,173.084c-0.367,3.325-4.354,2.5-6.358,2.5c-3.957,0-7.914,0-11.871,0
				c-13.274,0-26.548,0-39.821,0c-31.123,0-62.246,0-93.369,0c-8.216,0-16.431,0-24.647,0c-4.86,0-3.683-6.351-3.683-9.707
				c0-4.043,2.808-3.626,5.42-3.626c24.661,0,49.321,0,73.982,0c24.006,0,48.012,0,72.018,0c7.212,0,14.423,0,21.634,0
				c1.394,0,2.787,0,4.181,0C272.334,162.25,271,170.978,271,173.084c0,4.514,7,4.514,7,0c0-6.56,1.056-16.594-7.929-17.675
				c-1.81-0.218-3.606-0.159-5.43-0.159c-9.901,0-19.803,0-29.704,0c-31.605,0-63.21,0-94.815,0c-12.069,0-24.139,0-36.208,0
				c-7.415,0-16.363-1.64-19.388,7.194c-0.944,2.757-0.277,6.671-0.277,9.513c0,4.117,1.626,8.338,5.789,9.891
				c2.307,0.861,4.529,0.735,6.931,0.735c9.58,0,19.16,0,28.74,0c31.539,0,63.079,0,94.618,0c12.326,0,24.651,0,36.977,0
				c6.807,0,15.517,1.668,19.634-5.095c0.804-1.319,0.898-2.92,1.063-4.405C278.495,168.6,271.489,168.648,271,173.084z"/>
		</g>
	</g>
	<polygon style="fill:#FFFFFF;stroke:#FFFFFF;stroke-miterlimit:10;" points="99.949,175.417 87.413,175.417 97.863,162.417 
		110.398,162.417 	"/>
	<polygon style="fill:#FFFFFF;stroke:#FFFFFF;stroke-miterlimit:10;" points="126.615,175.417 114.08,175.417 124.529,162.417 
		137.065,162.417 	"/>
	<polygon style="fill:#FFFFFF;stroke:#FFFFFF;stroke-miterlimit:10;" points="152.615,175.75 140.08,175.75 150.529,162.75 
		163.065,162.75 	"/>
	<polygon style="fill:#FFFFFF;stroke:#FFFFFF;stroke-miterlimit:10;" points="179.282,175.417 166.746,175.417 177.196,162.417 
		189.731,162.417 	"/>
	<polygon style="fill:#FFFFFF;stroke:#FFFFFF;stroke-miterlimit:10;" points="205.115,175.25 192.58,175.25 203.029,162.25 
		215.564,162.25 	"/>
	<polygon style="fill:#FFFFFF;stroke:#FFFFFF;stroke-miterlimit:10;" points="231.948,175.084 219.412,175.084 229.862,162.084 
		242.398,162.084 	"/>
	<polygon style="fill:#FFFFFF;stroke:#FFFFFF;stroke-miterlimit:10;" points="261.115,175.25 248.579,175.25 259.029,162.25 
		271.564,162.25 	"/>
</g>
<g id="Ebene_1">
</g>
</svg>
