<?xml version="1.0" encoding="iso-8859-1"?>
<!-- Generator: Adobe Illustrator 16.0.0, SVG Export Plug-In . SVG Version: 6.00 Build 0)  -->
<!DOCTYPE svg PUBLIC "-//W3C//DTD SVG 1.1//EN" "http://www.w3.org/Graphics/SVG/1.1/DTD/svg11.dtd">
<svg version="1.1" xmlns="http://www.w3.org/2000/svg" xmlns:xlink="http://www.w3.org/1999/xlink" x="0px" y="0px" width="361px"
	 height="361px" viewBox="0 0 361 361" style="enable-background:new 0 0 361 361;" xml:space="preserve">
<g id="scene_x5F_power_x5F_grid">
	<path style="fill:none;stroke:#FFFFFF;" d="M180.958,214.833"/>
	<g>
		<g>
			<path style="fill:#FFFFFF;" d="M153.5,286.666c4.741-48.567,9.482-97.135,14.224-145.703c0.259-2.654,0.518-5.309,0.777-7.964
				c0.626-6.418-9.379-6.357-10,0c-4.741,48.568-9.482,97.135-14.224,145.703c-0.259,2.654-0.518,5.31-0.777,7.964
				C142.874,293.084,152.879,293.023,153.5,286.666L153.5,286.666z"/>
		</g>
	</g>
	<g>
		<g>
			<path style="fill:#FFFFFF;" d="M218.834,286.667c-4.425-48.567-8.851-97.136-13.275-145.703
				c-0.242-2.654-0.483-5.309-0.726-7.964c-0.58-6.367-10.585-6.424-10,0c4.425,48.567,8.851,97.136,13.275,145.703
				c0.242,2.654,0.483,5.31,0.726,7.964C209.414,293.034,219.419,293.091,218.834,286.667L218.834,286.667z"/>
		</g>
	</g>
	<g>
		<g>
			<path style="fill:#FFFFFF;" d="M175.679,73.338c-5.667,19.444-11.333,38.888-16.999,58.333c-1.809,6.206,7.842,8.836,9.643,2.658
				c5.667-19.444,11.333-38.888,16.999-58.333C187.13,69.791,177.479,67.16,175.679,73.338L175.679,73.338z"/>
		</g>
	</g>
	<g>
		<g>
			<path style="fill:#FFFFFF;" d="M175.679,75.996c6.444,19.444,12.889,38.889,19.333,58.333c2.019,6.09,11.678,3.48,9.643-2.658
				c-6.444-19.444-12.889-38.889-19.333-58.333C183.303,67.248,173.644,69.857,175.679,75.996L175.679,75.996z"/>
		</g>
	</g>
	<g>
		<g>
			<g>
				<path style="fill:#FFFFFF;" d="M151.555,279.199c20.222-7.651,40.445-15.303,60.667-22.954c4.18-1.581,2.369-8.351-1.861-6.75
					c-20.223,7.651-40.445,15.303-60.667,22.954C145.514,274.03,147.325,280.8,151.555,279.199L151.555,279.199z"/>
			</g>
		</g>
		<g>
			<g>
				<path style="fill:#FFFFFF;" d="M212.223,272.449c-20.223-7.651-40.445-15.303-60.667-22.954c-4.23-1.601-6.041,5.169-1.861,6.75
					c20.223,7.651,40.445,15.303,60.667,22.954C214.592,280.8,216.402,274.03,212.223,272.449L212.223,272.449z"/>
			</g>
		</g>
	</g>
	<g>
		<g>
			<g>
				<path style="fill:#FFFFFF;" d="M159.434,235.199c14.969-5.664,29.938-11.327,44.908-16.991c4.18-1.581,2.369-8.351-1.861-6.75
					c-14.969,5.664-29.938,11.327-44.908,16.991C153.393,230.03,155.204,236.8,159.434,235.199L159.434,235.199z"/>
			</g>
		</g>
		<g>
			<g>
				<path style="fill:#FFFFFF;" d="M204.342,228.449c-14.97-5.664-29.938-11.327-44.908-16.991c-4.23-1.601-6.041,5.169-1.861,6.75
					c14.969,5.664,29.939,11.327,44.908,16.991C206.711,236.8,208.521,230.03,204.342,228.449L204.342,228.449z"/>
			</g>
		</g>
	</g>
	<g>
		<g>
			<path style="fill:#FFFFFF;" d="M164.172,114.178c-17.889,5-35.777,10-53.666,15c-6.202,1.733-3.564,11.382,2.658,9.643
				c17.889-5,35.777-10,53.666-15C173.032,122.087,170.394,112.438,164.172,114.178L164.172,114.178z"/>
		</g>
	</g>
	<g>
		<g>
			<path style="fill:#FFFFFF;" d="M195.583,123.82c17.889,5,35.777,10,53.666,15c6.223,1.739,8.859-7.909,2.658-9.643
				c-17.889-5-35.777-10-53.666-15C192.019,112.438,189.382,122.087,195.583,123.82L195.583,123.82z"/>
		</g>
	</g>
	<g>
		<g>
			<path style="fill:#FFFFFF;" d="M155.464,164.055c-17.889,5-35.777,10-53.666,15c-6.202,1.733-3.564,11.382,2.658,9.643
				c17.889-5,35.777-10,53.666-15C164.324,171.964,161.687,162.316,155.464,164.055L155.464,164.055z"/>
		</g>
	</g>
	<g>
		<g>
			<path style="fill:#FFFFFF;" d="M202.878,173.698c17.889,5,35.777,10,53.666,15c6.223,1.739,8.859-7.909,2.658-9.643
				c-17.889-5-35.777-10-53.666-15C199.313,162.316,196.677,171.964,202.878,173.698L202.878,173.698z"/>
		</g>
	</g>
	<path style="fill:none;stroke:#FFFFFF;" d="M180.958,172.881"/>
	<g>
		<g>
			<g>
				<path style="fill:#FFFFFF;" d="M161.68,192.398c13.472-5.098,26.944-10.195,40.417-15.293c4.18-1.582,2.369-8.351-1.861-6.75
					c-13.472,5.098-26.944,10.195-40.417,15.293C155.639,187.229,157.45,193.999,161.68,192.398L161.68,192.398z"/>
			</g>
		</g>
		<g>
			<g>
				<path style="fill:#FFFFFF;" d="M202.097,185.648c-13.473-5.098-26.945-10.195-40.417-15.293c-4.23-1.601-6.041,5.168-1.861,6.75
					c13.473,5.098,26.945,10.195,40.417,15.293C204.466,193.999,206.276,187.229,202.097,185.648L202.097,185.648z"/>
			</g>
		</g>
	</g>
	<g>
		<path style="fill:none;stroke:#FFFFFF;" d="M184.8,140.124"/>
		<g>
			<g>
				<g>
					<path style="fill:#FFFFFF;" d="M165.048,156.243c11.227-4.248,22.453-8.496,33.681-12.744c4.18-1.582,2.369-8.351-1.861-6.75
						c-11.227,4.248-22.454,8.496-33.681,12.744C159.007,151.074,160.818,157.843,165.048,156.243L165.048,156.243z"/>
				</g>
			</g>
			<g>
				<g>
					<path style="fill:#FFFFFF;" d="M198.729,149.493c-11.228-4.248-22.454-8.496-33.681-12.744c-4.23-1.601-6.041,5.168-1.861,6.75
						c11.227,4.248,22.454,8.496,33.681,12.744C201.098,157.843,202.908,151.074,198.729,149.493L198.729,149.493z"/>
				</g>
			</g>
		</g>
	</g>
	<g>
		<g>
			<g>
				<path style="fill:#FFFFFF;" d="M101.461,208.508c1.778,0,3.556,0,5.333,0c1.908,0,3.5-1.592,3.5-3.5s-1.592-3.5-3.5-3.5
					c-1.778,0-3.556,0-5.333,0c-1.908,0-3.5,1.592-3.5,3.5S99.553,208.508,101.461,208.508L101.461,208.508z"/>
			</g>
		</g>
		<g>
			<g>
				<path style="fill:#FFFFFF;" d="M101.461,199.167c1.778,0,3.556,0,5.333,0c1.908,0,3.5-1.592,3.5-3.5s-1.592-3.5-3.5-3.5
					c-1.778,0-3.556,0-5.333,0c-1.908,0-3.5,1.592-3.5,3.5S99.553,199.167,101.461,199.167L101.461,199.167z"/>
			</g>
		</g>
	</g>
	<g>
		<g>
			<g>
				<path style="fill:#FFFFFF;" d="M254.873,208.508c1.777,0,3.556,0,5.333,0c1.908,0,3.5-1.592,3.5-3.5s-1.592-3.5-3.5-3.5
					c-1.777,0-3.556,0-5.333,0c-1.908,0-3.5,1.592-3.5,3.5S252.965,208.508,254.873,208.508L254.873,208.508z"/>
			</g>
		</g>
		<g>
			<g>
				<path style="fill:#FFFFFF;" d="M254.873,199.167c1.777,0,3.556,0,5.333,0c1.908,0,3.5-1.592,3.5-3.5s-1.592-3.5-3.5-3.5
					c-1.777,0-3.556,0-5.333,0c-1.908,0-3.5,1.592-3.5,3.5S252.965,199.167,254.873,199.167L254.873,199.167z"/>
			</g>
		</g>
	</g>
	<g>
		<g>
			<g>
				<path style="fill:#FFFFFF;" d="M107.127,158.708c1.778,0,3.556,0,5.333,0c1.908,0,3.5-1.592,3.5-3.5s-1.592-3.5-3.5-3.5
					c-1.778,0-3.556,0-5.333,0c-1.908,0-3.5,1.592-3.5,3.5S105.22,158.708,107.127,158.708L107.127,158.708z"/>
			</g>
		</g>
		<g>
			<g>
				<path style="fill:#FFFFFF;" d="M107.127,149.368c1.778,0,3.556,0,5.333,0c1.908,0,3.5-1.592,3.5-3.5s-1.592-3.5-3.5-3.5
					c-1.778,0-3.556,0-5.333,0c-1.908,0-3.5,1.592-3.5,3.5S105.22,149.368,107.127,149.368L107.127,149.368z"/>
			</g>
		</g>
	</g>
	<g>
		<g>
			<g>
				<path style="fill:#FFFFFF;" d="M248.539,158.708c1.778,0,3.556,0,5.334,0c1.908,0,3.5-1.592,3.5-3.5s-1.592-3.5-3.5-3.5
					c-1.778,0-3.556,0-5.334,0c-1.908,0-3.5,1.592-3.5,3.5S246.631,158.708,248.539,158.708L248.539,158.708z"/>
			</g>
		</g>
		<g>
			<g>
				<path style="fill:#FFFFFF;" d="M248.539,149.368c1.778,0,3.556,0,5.334,0c1.908,0,3.5-1.592,3.5-3.5s-1.592-3.5-3.5-3.5
					c-1.778,0-3.556,0-5.334,0c-1.908,0-3.5,1.592-3.5,3.5S246.631,149.368,248.539,149.368L248.539,149.368z"/>
			</g>
		</g>
	</g>
</g>
<g id="Ebene_1">
</g>
</svg>
