<?xml version="1.0" encoding="iso-8859-1"?>
<!-- Generator: Adobe Illustrator 16.0.0, SVG Export Plug-In . SVG Version: 6.00 Build 0)  -->
<!DOCTYPE svg PUBLIC "-//W3C//DTD SVG 1.1//EN" "http://www.w3.org/Graphics/SVG/1.1/DTD/svg11.dtd">
<svg version="1.1" xmlns="http://www.w3.org/2000/svg" xmlns:xlink="http://www.w3.org/1999/xlink" x="0px" y="0px" width="361px"
	 height="361px" viewBox="0 0 361 361" style="enable-background:new 0 0 361 361;" xml:space="preserve">
<g id="scene_x5F_massage_x5F_jet">
	<circle style="fill:#FFFFFF;stroke:#FFFFFF;" cx="244.923" cy="130.845" r="21.125"/>
	<path style="fill:#FFFFFF;" d="M250.637,175.363c-1.865-4.405-0.903-9.024,2.148-10.316l2.302-0.975
		c3.052-1.292,7.038,1.232,8.903,5.637l26.879,63.477c1.865,4.405,0.903,9.024-2.148,10.315l-2.302,0.975
		c-3.052,1.293-7.037-1.231-8.903-5.637L250.637,175.363z"/>
	<g>
		<g>
			<path style="fill:#FFFFFF;" d="M149.633,226.322c-13.959,14.823-27.918,29.646-41.878,44.471
				c-9.924,10.538,6.021,26.422,15.998,15.826c13.959-14.823,27.918-29.646,41.878-44.471
				C175.555,231.61,159.61,215.728,149.633,226.322L149.633,226.322z"/>
		</g>
	</g>
	<g>
		<g>
			<path style="fill:#FFFFFF;" d="M164.376,228.61c-7.014,14.701-14.028,29.401-21.042,44.103
				c-2.638,5.529-1.502,12.123,4.118,15.368c4.997,2.885,12.725,1.421,15.368-4.118c7.014-14.701,14.028-29.401,21.042-44.103
				c2.638-5.529,1.501-12.123-4.118-15.368C174.748,221.607,167.019,223.071,164.376,228.61L164.376,228.61z"/>
		</g>
	</g>
	<path style="fill:#FFFFFF;" d="M255.063,159.71c-9.543-5.51-23.457-2.5-28.687,7.687c-7.922,15.43-15.842,30.859-23.764,46.288
		c-0.018,0.034-1.963,4.019-4.1,8.397c-15.284,0.104-34.846,0.18-40.142,0.354c-13.173,0.436-13.328,22.941-0.147,22.506
		c11.587-0.383,64.021,0.498,75.608,0.115c6.919-13.479,21.997-43.182,28.917-56.66C267.974,178.222,265.338,165.642,255.063,159.71
		z"/>
	<rect x="199" y="237.667" style="fill:none;" width="41.166" height="11.5"/>
	<g>
		<g>
			<path style="fill:#FFFFFF;" d="M286.833,249.338c-32.143,0-64.286,0-96.429,0c-6.448,0-6.448,10,0,10c32.143,0,64.286,0,96.429,0
				C293.281,259.338,293.281,249.338,286.833,249.338L286.833,249.338z"/>
		</g>
	</g>
	<g>
		<g>
			<path style="fill:#FFFFFF;" d="M154.598,176.641c-7.797-1.508-14.692-1.216-22.432,0.328c-6.313,1.26-12.635,3.181-19.098,3.373
				c-6.003,0.178-12.223-1.927-18.084-3.165c-8.076-1.705-15.292-2.114-23.445-0.537c-1.898,0.367-1.092,3.258,0.798,2.893
				c8.264-1.599,15.422-0.855,23.56,0.902c5.65,1.219,11.371,2.735,17.172,2.907c5.47,0.162,11.213-1.575,16.519-2.763
				c8.33-1.865,15.742-2.685,24.213-1.046C155.69,179.899,156.496,177.008,154.598,176.641L154.598,176.641z"/>
			<path style="fill:#FFFFFF;" d="M134.794,179.523c8.263-1.599,15.422-0.855,23.56,0.901c5.65,1.219,11.37,2.735,17.172,2.907
				c5.47,0.162,11.211-1.575,16.517-2.763c8.33-1.864,15.743-2.684,24.215-1.045c1.89,0.366,2.695-2.525,0.797-2.893
				c-7.797-1.508-14.692-1.216-22.432,0.328c-6.313,1.259-12.635,3.181-19.097,3.373c-6.003,0.178-12.223-1.927-18.084-3.164
				c-8.076-1.705-15.292-2.114-23.445-0.536C132.098,176.998,132.904,179.889,134.794,179.523L134.794,179.523z"/>
			<path style="fill:#FFFFFF;" d="M197.026,179.513c3.395-0.666,6.859-1.157,10.321-1.197c1.934-0.023,1.936-3.023,0-3
				c-3.721,0.044-7.47,0.588-11.118,1.305C194.332,176.993,195.137,179.884,197.026,179.513L197.026,179.513z"/>
		</g>
	</g>
	<g>
		<g>
			<path style="fill:#FFFFFF;" d="M290.606,176.63c-6.436-2.031-13.232-1.266-19.737,0c-1.898,0.369-1.093,3.26,0.797,2.893
				c5.993-1.166,12.214-1.871,18.144,0C291.659,180.106,292.445,177.209,290.606,176.63L290.606,176.63z"/>
		</g>
	</g>
	<g>
		<g>
			<g>
				<path style="fill:#FFFFFF;" d="M81.72,206.936c-0.532,2.634-8.387,2.931-8.387,0.173c0-2.062,0-4.124,0-6.186
					c0-4.955,0-9.91,0-14.865c0-2.372,8.333-2.413,8.333,0.168c0,2.062,0,4.124,0,6.186c0,4.975,0,9.948,0,14.923
					c0,1.935,3,1.935,3,0c0-6.945,0-13.892,0-20.837c0-6.948-13.026-7.106-14.28-0.896c-0.545,2.697-0.054,5.927-0.054,8.66
					c0,4.191,0,8.384,0,12.575c0,6.948,13.026,7.105,14.28,0.896C84.994,205.844,82.103,205.04,81.72,206.936z"/>
			</g>
		</g>
		<g>
			<g>
				<g>
					<g>
						<path style="fill:#FFFFFF;" d="M85.323,197.584c2.111,0,4.222,0,6.333,0c1.935,0,1.935-3,0-3c-2.111,0-4.222,0-6.333,0
							C83.388,194.584,83.388,197.584,85.323,197.584L85.323,197.584z"/>
					</g>
				</g>
				<g>
					<g>
						<path style="fill:#FFFFFF;" d="M95.583,197.584c1.938,0,3.875,0,5.813,0c1.935,0,1.935-3,0-3c-1.938,0-3.875,0-5.813,0
							C93.649,194.584,93.649,197.584,95.583,197.584L95.583,197.584z"/>
					</g>
				</g>
				<g>
					<g>
						<path style="fill:#FFFFFF;" d="M105.844,197.584c1.764,0,3.528,0,5.292,0c1.935,0,1.935-3,0-3c-1.764,0-3.528,0-5.292,0
							C103.909,194.584,103.909,197.584,105.844,197.584L105.844,197.584z"/>
					</g>
				</g>
				<g>
					<g>
						<path style="fill:#FFFFFF;" d="M116.104,197.584c1.591,0,3.182,0,4.773,0c1.935,0,1.935-3,0-3c-1.591,0-3.182,0-4.773,0
							C114.169,194.584,114.169,197.584,116.104,197.584L116.104,197.584z"/>
					</g>
				</g>
				<g>
					<g>
						<path style="fill:#FFFFFF;" d="M126.364,197.584c1.417,0,2.835,0,4.252,0c1.935,0,1.935-3,0-3c-1.417,0-2.835,0-4.252,0
							C124.43,194.584,124.43,197.584,126.364,197.584L126.364,197.584z"/>
					</g>
				</g>
				<g>
					<g>
						<path style="fill:#FFFFFF;" d="M136.625,197.584c1.244,0,2.488,0,3.731,0c1.935,0,1.935-3,0-3c-1.244,0-2.488,0-3.731,0
							C134.69,194.584,134.69,197.584,136.625,197.584L136.625,197.584z"/>
					</g>
				</g>
				<g>
					<g>
						<path style="fill:#FFFFFF;" d="M146.885,197.584c1.07,0,2.141,0,3.211,0c1.935,0,1.935-3,0-3c-1.07,0-2.141,0-3.211,0
							C144.951,194.584,144.951,197.584,146.885,197.584L146.885,197.584z"/>
					</g>
				</g>
				<g>
					<g>
						<path style="fill:#FFFFFF;" d="M157.146,197.584c0.897,0,1.794,0,2.692,0c0.818,0,1.5-0.683,1.5-1.5s-0.682-1.5-1.5-1.5
							c-0.897,0-1.794,0-2.692,0c-0.818,0-1.5,0.683-1.5,1.5S156.328,197.584,157.146,197.584L157.146,197.584z"/>
					</g>
				</g>
				<g>
					<g>
						<path style="fill:#FFFFFF;" d="M167.406,197.584c0.724,0,1.447,0,2.171,0c1.935,0,1.935-3,0-3c-0.724,0-1.447,0-2.171,0
							C165.472,194.584,165.472,197.584,167.406,197.584L167.406,197.584z"/>
					</g>
				</g>
			</g>
			<g>
				<g>
					<path style="fill:#FFFFFF;" d="M83.158,194.234c1.529-0.106,3.057-0.214,4.586-0.32c1.918-0.134,1.932-3.135,0-3
						c-1.529,0.106-3.057,0.214-4.586,0.32C81.24,191.368,81.227,194.369,83.158,194.234L83.158,194.234z"/>
				</g>
			</g>
			<g>
				<g>
					<path style="fill:#FFFFFF;" d="M91.661,193.641c1.933-0.136,3.866-0.271,5.799-0.406c1.918-0.135,1.932-3.136,0-3
						c-1.933,0.136-3.866,0.271-5.799,0.406C89.743,190.775,89.729,193.776,91.661,193.641L91.661,193.641z"/>
				</g>
			</g>
			<g>
				<g>
					<path style="fill:#FFFFFF;" d="M101.896,192.924c1.76-0.123,3.52-0.245,5.28-0.368c1.919-0.134,1.932-3.135,0-3
						c-1.76,0.123-3.52,0.245-5.28,0.368C99.978,190.058,99.965,193.059,101.896,192.924L101.896,192.924z"/>
				</g>
			</g>
			<g>
				<g>
					<path style="fill:#FFFFFF;" d="M112.132,192.209c1.587-0.111,3.174-0.223,4.761-0.334c1.918-0.135,1.932-3.136,0-3
						c-1.587,0.111-3.174,0.223-4.761,0.334C110.214,189.344,110.201,192.345,112.132,192.209L112.132,192.209z"/>
				</g>
			</g>
			<g>
				<g>
					<path style="fill:#FFFFFF;" d="M122.368,191.493c1.414-0.099,2.828-0.198,4.242-0.297c1.918-0.134,1.932-3.135,0-3
						c-1.414,0.099-2.828,0.198-4.242,0.297C120.449,188.627,120.436,191.628,122.368,191.493L122.368,191.493z"/>
				</g>
			</g>
			<g>
				<g>
					<path style="fill:#FFFFFF;" d="M132.603,190.777c1.241-0.087,2.482-0.173,3.723-0.26c0.815-0.057,1.5-0.64,1.5-1.5
						c0-0.774-0.684-1.557-1.5-1.5c-1.241,0.087-2.482,0.173-3.723,0.26c-0.815,0.057-1.5,0.64-1.5,1.5
						C131.103,190.052,131.787,190.834,132.603,190.777L132.603,190.777z"/>
				</g>
			</g>
			<g>
				<g>
					<path style="fill:#FFFFFF;" d="M142.839,190.062c1.068-0.075,2.135-0.149,3.203-0.225c0.815-0.058,1.5-0.639,1.5-1.5
						c0-0.774-0.684-1.558-1.5-1.5c-1.068,0.075-2.135,0.149-3.203,0.225c-0.815,0.058-1.5,0.639-1.5,1.5
						C141.339,189.336,142.022,190.119,142.839,190.062L142.839,190.062z"/>
				</g>
			</g>
			<g>
				<g>
					<path style="fill:#FFFFFF;" d="M153.074,189.346c0.895-0.063,1.79-0.125,2.684-0.188c0.815-0.057,1.5-0.64,1.5-1.5
						c0-0.774-0.684-1.557-1.5-1.5c-0.895,0.063-1.79,0.125-2.684,0.188c-0.815,0.057-1.5,0.64-1.5,1.5
						C151.574,188.62,152.258,189.402,153.074,189.346L153.074,189.346z"/>
				</g>
			</g>
			<g>
				<g>
					<path style="fill:#FFFFFF;" d="M163.31,188.63c0.722-0.051,1.443-0.101,2.165-0.151c0.815-0.057,1.5-0.64,1.5-1.5
						c0-0.774-0.684-1.557-1.5-1.5c-0.722,0.051-1.443,0.101-2.165,0.151c-0.815,0.057-1.5,0.64-1.5,1.5
						C161.81,187.904,162.493,188.687,163.31,188.63L163.31,188.63z"/>
				</g>
			</g>
			<g>
				<g>
					<path style="fill:#FFFFFF;" d="M83.158,200.725c1.528,0.106,3.057,0.214,4.585,0.32c1.932,0.135,1.918-2.866,0-3
						c-1.528-0.106-3.057-0.214-4.585-0.32C81.227,197.59,81.24,200.591,83.158,200.725L83.158,200.725z"/>
				</g>
			</g>
			<g>
				<g>
					<path style="fill:#FFFFFF;" d="M91.661,201.319c1.933,0.135,3.866,0.271,5.799,0.405c1.932,0.135,1.918-2.866,0-3
						c-1.933-0.135-3.866-0.271-5.799-0.405C89.729,198.185,89.743,201.186,91.661,201.319L91.661,201.319z"/>
				</g>
			</g>
			<g>
				<g>
					<path style="fill:#FFFFFF;" d="M101.896,202.035c1.76,0.123,3.52,0.245,5.28,0.368c1.932,0.135,1.919-2.866,0-3
						c-1.76-0.123-3.52-0.245-5.28-0.368C99.965,198.9,99.978,201.901,101.896,202.035L101.896,202.035z"/>
				</g>
			</g>
			<g>
				<g>
					<path style="fill:#FFFFFF;" d="M112.132,202.751c1.587,0.111,3.174,0.222,4.761,0.333c1.932,0.135,1.918-2.866,0-3
						c-1.587-0.111-3.174-0.222-4.761-0.333C110.2,199.616,110.213,202.617,112.132,202.751L112.132,202.751z"/>
				</g>
			</g>
			<g>
				<g>
					<path style="fill:#FFFFFF;" d="M122.367,203.467c1.414,0.099,2.828,0.197,4.242,0.296c1.932,0.135,1.919-2.866,0-3
						c-1.414-0.099-2.828-0.197-4.242-0.296C120.436,200.332,120.448,203.333,122.367,203.467L122.367,203.467z"/>
				</g>
			</g>
			<g>
				<g>
					<path style="fill:#FFFFFF;" d="M132.603,204.182c1.241,0.087,2.482,0.173,3.723,0.26c0.816,0.057,1.5-0.726,1.5-1.5
						c0-0.86-0.685-1.443-1.5-1.5c-1.241-0.087-2.482-0.173-3.723-0.26c-0.816-0.057-1.5,0.726-1.5,1.5
						C131.103,203.542,131.787,204.125,132.603,204.182L132.603,204.182z"/>
				</g>
			</g>
			<g>
				<g>
					<path style="fill:#FFFFFF;" d="M142.838,204.897c1.068,0.075,2.136,0.149,3.204,0.225c0.816,0.058,1.5-0.726,1.5-1.5
						c0-0.861-0.685-1.442-1.5-1.5c-1.068-0.075-2.136-0.149-3.204-0.225c-0.816-0.058-1.5,0.726-1.5,1.5
						C141.338,204.259,142.022,204.84,142.838,204.897L142.838,204.897z"/>
				</g>
			</g>
			<g>
				<g>
					<path style="fill:#FFFFFF;" d="M153.074,205.613c0.895,0.063,1.79,0.125,2.685,0.188c0.816,0.057,1.5-0.726,1.5-1.5
						c0-0.86-0.685-1.443-1.5-1.5c-0.895-0.063-1.79-0.125-2.685-0.188c-0.816-0.057-1.5,0.726-1.5,1.5
						C151.574,204.974,152.258,205.557,153.074,205.613L153.074,205.613z"/>
				</g>
			</g>
			<g>
				<g>
					<path style="fill:#FFFFFF;" d="M163.309,206.329c0.722,0.051,1.444,0.101,2.166,0.151c0.816,0.057,1.5-0.726,1.5-1.5
						c0-0.86-0.685-1.443-1.5-1.5c-0.722-0.051-1.444-0.101-2.166-0.151c-0.816-0.057-1.5,0.726-1.5,1.5
						C161.809,205.689,162.494,206.272,163.309,206.329L163.309,206.329z"/>
				</g>
			</g>
		</g>
	</g>
	<g>
		<g>
			<path style="fill:#FFFFFF;" d="M81.824,272.406c-0.532,2.634-8.387,2.931-8.387,0.173c0-2.062,0-4.124,0-6.186
				c0-4.955,0-9.91,0-14.865c0-2.372,8.333-2.413,8.333,0.168c0,2.062,0,4.124,0,6.186c0,4.975,0,9.948,0,14.923
				c0,1.935,3,1.935,3,0c0-6.945,0-13.892,0-20.837c0-6.948-13.026-7.105-14.28-0.896c-0.545,2.697-0.054,5.927-0.054,8.66
				c0,4.191,0,8.384,0,12.575c0,6.948,13.026,7.105,14.28,0.896C85.098,271.314,82.207,270.511,81.824,272.406z"/>
		</g>
	</g>
	<g>
		<g>
			<g>
				<g>
					<path style="fill:#FFFFFF;" d="M85.427,263.054c2.111,0,4.222,0,6.333,0c1.935,0,1.935-3,0-3c-2.111,0-4.222,0-6.333,0
						C83.492,260.054,83.492,263.054,85.427,263.054L85.427,263.054z"/>
				</g>
			</g>
			<g>
				<g>
					<path style="fill:#FFFFFF;" d="M95.688,263.054c1.938,0,3.875,0,5.813,0c1.935,0,1.935-3,0-3c-1.938,0-3.875,0-5.813,0
						C93.753,260.054,93.753,263.054,95.688,263.054L95.688,263.054z"/>
				</g>
			</g>
			<g>
				<g>
					<path style="fill:#FFFFFF;" d="M105.948,263.054c1.764,0,3.528,0,5.292,0c1.935,0,1.935-3,0-3c-1.764,0-3.528,0-5.292,0
						C104.013,260.054,104.013,263.054,105.948,263.054L105.948,263.054z"/>
				</g>
			</g>
			<g>
				<g>
					<path style="fill:#FFFFFF;" d="M116.208,263.054c1.591,0,3.182,0,4.773,0c1.935,0,1.935-3,0-3c-1.591,0-3.182,0-4.773,0
						C114.273,260.054,114.273,263.054,116.208,263.054L116.208,263.054z"/>
				</g>
			</g>
			<g>
				<g>
					<path style="fill:#FFFFFF;" d="M126.468,263.054c1.417,0,2.835,0,4.252,0c1.935,0,1.935-3,0-3c-1.417,0-2.835,0-4.252,0
						C124.534,260.054,124.534,263.054,126.468,263.054L126.468,263.054z"/>
				</g>
			</g>
			<g>
				<g>
					<path style="fill:#FFFFFF;" d="M136.729,263.054c1.244,0,2.488,0,3.731,0c1.935,0,1.935-3,0-3c-1.244,0-2.488,0-3.731,0
						C134.794,260.054,134.794,263.054,136.729,263.054L136.729,263.054z"/>
				</g>
			</g>
			<g>
				<g>
					<path style="fill:#FFFFFF;" d="M146.989,263.054c1.07,0,2.141,0,3.211,0c1.935,0,1.935-3,0-3c-1.07,0-2.141,0-3.211,0
						C145.055,260.054,145.055,263.054,146.989,263.054L146.989,263.054z"/>
				</g>
			</g>
			<g>
				<g>
					<path style="fill:#FFFFFF;" d="M157.25,263.054c0.897,0,1.794,0,2.692,0c0.818,0,1.5-0.683,1.5-1.5s-0.682-1.5-1.5-1.5
						c-0.897,0-1.794,0-2.692,0c-0.818,0-1.5,0.683-1.5,1.5S156.432,263.054,157.25,263.054L157.25,263.054z"/>
				</g>
			</g>
			<g>
				<g>
					<path style="fill:#FFFFFF;" d="M167.51,263.054c0.724,0,1.447,0,2.171,0c1.935,0,1.935-3,0-3c-0.724,0-1.447,0-2.171,0
						C165.576,260.054,165.576,263.054,167.51,263.054L167.51,263.054z"/>
				</g>
			</g>
		</g>
		<g>
			<g>
				<path style="fill:#FFFFFF;" d="M83.833,259.665c1.338-0.094,2.677-0.187,4.015-0.28c1.918-0.134,1.932-3.135,0-3
					c-1.338,0.094-2.677,0.187-4.015,0.28C81.914,256.799,81.901,259.8,83.833,259.665L83.833,259.665z"/>
			</g>
		</g>
		<g>
			<g>
				<path style="fill:#FFFFFF;" d="M91.765,259.111c1.933-0.136,3.866-0.271,5.799-0.406c1.918-0.135,1.932-3.136,0-3
					c-1.933,0.136-3.866,0.271-5.799,0.406C89.847,256.246,89.833,259.247,91.765,259.111L91.765,259.111z"/>
			</g>
		</g>
		<g>
			<g>
				<path style="fill:#FFFFFF;" d="M102,258.395c1.76-0.123,3.52-0.246,5.28-0.369c1.918-0.134,1.932-3.135,0-3
					c-1.76,0.123-3.52,0.246-5.28,0.369C100.082,255.528,100.069,258.529,102,258.395L102,258.395z"/>
			</g>
		</g>
		<g>
			<g>
				<path style="fill:#FFFFFF;" d="M112.236,257.68c1.587-0.111,3.174-0.223,4.761-0.334c1.918-0.135,1.932-3.136,0-3
					c-1.587,0.111-3.174,0.223-4.761,0.334C110.318,254.814,110.305,257.815,112.236,257.68L112.236,257.68z"/>
			</g>
		</g>
		<g>
			<g>
				<path style="fill:#FFFFFF;" d="M122.472,256.963c1.414-0.099,2.828-0.198,4.242-0.297c1.918-0.135,1.932-3.135,0-3
					c-1.414,0.099-2.828,0.198-4.242,0.297C120.553,254.098,120.54,257.098,122.472,256.963L122.472,256.963z"/>
			</g>
		</g>
		<g>
			<g>
				<path style="fill:#FFFFFF;" d="M83.83,266.234c1.339,0.094,2.679,0.188,4.018,0.281c1.932,0.135,1.918-2.865,0-3
					c-1.339-0.094-2.679-0.188-4.018-0.281C81.898,263.1,81.911,266.1,83.83,266.234L83.83,266.234z"/>
			</g>
		</g>
		<g>
			<g>
				<path style="fill:#FFFFFF;" d="M91.765,266.789c1.933,0.135,3.866,0.271,5.799,0.405c1.932,0.135,1.918-2.866,0-3
					c-1.933-0.135-3.866-0.271-5.799-0.405C89.833,263.654,89.847,266.655,91.765,266.789L91.765,266.789z"/>
			</g>
		</g>
		<g>
			<g>
				<path style="fill:#FFFFFF;" d="M102,267.505c1.76,0.123,3.52,0.245,5.28,0.368c1.932,0.135,1.919-2.866,0-3
					c-1.76-0.123-3.52-0.245-5.28-0.368C100.069,264.37,100.082,267.371,102,267.505L102,267.505z"/>
			</g>
		</g>
		<g>
			<g>
				<path style="fill:#FFFFFF;" d="M112.236,268.221c1.587,0.111,3.174,0.222,4.761,0.333c1.932,0.135,1.918-2.866,0-3
					c-1.587-0.111-3.174-0.222-4.761-0.333C110.304,265.086,110.317,268.087,112.236,268.221L112.236,268.221z"/>
			</g>
		</g>
		<g>
			<g>
				<path style="fill:#FFFFFF;" d="M142.942,270.367c1.068,0.075,2.136,0.149,3.204,0.225c0.816,0.058,1.5-0.726,1.5-1.5
					c0-0.861-0.685-1.442-1.5-1.5c-1.068-0.075-2.136-0.149-3.204-0.225c-0.816-0.058-1.5,0.726-1.5,1.5
					C141.442,269.729,142.126,270.31,142.942,270.367L142.942,270.367z"/>
			</g>
		</g>
		<g>
			<g>
				<path style="fill:#FFFFFF;" d="M163.413,271.799c0.722,0.051,1.444,0.102,2.166,0.152c0.816,0.058,1.5-0.726,1.5-1.5
					c0-0.861-0.685-1.442-1.5-1.5c-0.722-0.051-1.444-0.102-2.166-0.152c-0.816-0.058-1.5,0.726-1.5,1.5
					C161.913,271.16,162.598,271.741,163.413,271.799L163.413,271.799z"/>
			</g>
		</g>
	</g>
</g>
<g id="Ebene_1">
</g>
</svg>
