<?xml version="1.0" encoding="iso-8859-1"?>
<!-- Generator: Adobe Illustrator 16.0.0, SVG Export Plug-In . SVG Version: 6.00 Build 0)  -->
<!DOCTYPE svg PUBLIC "-//W3C//DTD SVG 1.1 Tiny//EN" "http://www.w3.org/Graphics/SVG/1.1/DTD/svg11-tiny.dtd">
<svg version="1.1" baseProfile="tiny" id="scene_x5F_drink"
	 xmlns="http://www.w3.org/2000/svg" xmlns:xlink="http://www.w3.org/1999/xlink" x="0px" y="0px" width="361px" height="361px"
	 viewBox="0 0 361 361" xml:space="preserve">
<g>
	<g>
		<path fill="#FFFFFF" d="M215.797,79.671c-15.712,46.928-31.423,93.856-47.135,140.784c-1.475,4.406-2.95,8.812-4.425,13.217
			c-3.081,9.203,11.415,13.086,14.47,3.961c15.712-46.928,31.423-93.856,47.135-140.784c1.475-4.406,2.95-8.812,4.425-13.217
			C233.348,74.43,218.853,70.546,215.797,79.671L215.797,79.671z"/>
	</g>
	<g>
		<path fill="#FFFFFF" d="M219.974,86.895c16.026,10.233,32.053,20.466,48.079,30.699c8.169,5.216,15.634-7.797,7.5-12.99
			C259.526,94.37,243.5,84.137,227.474,73.904C219.305,68.688,211.84,81.701,219.974,86.895L219.974,86.895z"/>
	</g>
</g>
<g>
	<path fill="#FFFFFF" d="M115.482,263.546c0.453,7.968,5.067,14.192,12.78,16.504c2.472,0.741,5.394,0.496,7.961,0.496
		c9.903,0,19.807,0,29.71,0c10.065,0,20.13,0,30.196,0c2.357,0,4.806,0.154,7.137-0.259c8.404-1.491,13.642-8.458,14.112-16.741
		c0.366-6.446-9.636-6.41-10,0c-0.46,8.103-8.467,7-14.175,7c-8.759,0-17.518,0-26.277,0c-8.871,0-17.742,0-26.614,0
		c-5.815,0-14.359,1.307-14.832-7C125.118,257.136,115.116,257.101,115.482,263.546L115.482,263.546z"/>
</g>
<g>
	<path fill="#FFFFFF" d="M208.921,237.368c0.178,4.001-6.11,4-8.518,4.497c-3.954,0.816-7.908,1.632-11.862,2.448
		c-5.963,1.23-6.355-12.63-7.161-16.536c-0.886-4.292,17.835-6.095,20.416-6.628c5.97-1.232,6.369,12.7,7.178,16.618
		c0.391,1.894,3.282,1.09,2.893-0.798c-0.902-4.374-1.805-8.749-2.708-13.123c-0.792-3.843-2.919-6.672-7.298-5.768
		c-5.1,1.052-10.2,2.104-15.299,3.157c-4.117,0.85-8.381,1.551-8.145,6.858c0.198,4.435,1.865,9.177,2.761,13.521
		c0.793,3.843,2.919,6.672,7.298,5.769c5.1-1.053,10.2-2.105,15.299-3.157c4.117-0.85,8.38-1.551,8.145-6.858
		C211.836,235.441,208.835,235.433,208.921,237.368z"/>
</g>
<g>
	<path fill="#FFFFFF" d="M128.593,264.916c-3.74-1.245-1.306-7.761-0.907-10.196c0.628-3.833,1.257-7.667,1.885-11.5
		c0.925-5.642,14.1-1.182,17.8-0.576c4.574,0.75-0.497,18.761-0.978,21.696C145.468,269.981,132.294,265.522,128.593,264.916
		c-1.892-0.31-2.703,2.581-0.798,2.893c4.614,0.756,9.227,1.512,13.84,2.268c3.914,0.642,6.968-0.775,7.65-4.939
		c0.863-5.266,1.727-10.533,2.589-15.799c0.677-4.127,1.121-7.98-3.707-9.586c-4.262-1.418-9.404-1.542-13.84-2.269
		c-3.914-0.642-6.968,0.775-7.65,4.939c-0.863,5.266-1.727,10.533-2.589,15.799c-0.677,4.127-1.121,7.979,3.707,9.587
		C129.636,268.421,130.418,265.523,128.593,264.916z"/>
</g>
<g>
	<path fill="#FFFFFF" d="M199.751,261.959c0.4,3.904-5.948,4.326-8.33,4.969c-3.674,0.992-7.347,1.984-11.021,2.976
		c-5.845,1.579-6.939-11.346-8.005-15.294c-1.097-4.064,17.268-7.053,19.873-7.756c5.172-1.396,6.622,12.114,7.537,15.504
		c0.504,1.866,3.398,1.073,2.893-0.798c-1.441-5.338-2.374-19.99-10.832-17.706c-4.839,1.307-9.678,2.614-14.516,3.92
		c-3.949,1.066-8.457,1.936-7.922,7.156c0.414,4.042,2.18,8.271,3.238,12.189c0.978,3.622,2.811,7.222,7.355,5.995
		c4.937-1.333,9.873-2.667,14.81-4c3.949-1.066,8.456-1.936,7.921-7.156C202.556,260.054,199.554,260.035,199.751,261.959z"/>
</g>
<g>
	<path fill="#FFFFFF" d="M151.473,265.704c-3.656-1.318-1.06-7.871-0.611-10.24c0.722-3.817,1.444-7.634,2.167-11.451
		c1.051-5.556,14.193-0.782,17.834-0.094c4.483,0.848-1.011,18.816-1.555,21.691C168.256,271.166,155.114,266.392,151.473,265.704
		c-1.891-0.358-2.697,2.533-0.798,2.893c4.594,0.869,9.187,1.738,13.78,2.607c3.904,0.738,6.967-0.687,7.745-4.796
		c0.992-5.244,1.984-10.487,2.976-15.731c0.78-4.122,1.272-7.924-3.516-9.65c-4.225-1.523-9.363-1.771-13.78-2.607
		c-3.904-0.738-6.967,0.687-7.745,4.796c-0.992,5.244-1.984,10.487-2.976,15.731c-0.78,4.123-1.272,7.924,3.516,9.65
		C152.5,269.254,153.278,266.354,151.473,265.704z"/>
</g>
<g>
	<path fill="#FFFFFF" d="M153.56,224.045c-0.473-3.296,5.715-4.212,7.738-4.929c3.129-1.108,6.258-2.216,9.387-3.325
		c4.785-1.695,6.879,10.309,8.018,13.525c1.269,3.582-14.777,7.422-17.125,8.254C156.793,239.266,154.699,227.262,153.56,224.045
		c-0.641-1.81-3.54-1.031-2.893,0.798c1.691,4.775,3.67,18.468,11.309,15.762c4.371-1.548,8.742-3.097,13.113-4.645
		c3.868-1.37,7.21-2.531,6.506-7.441c-0.546-3.811-2.815-7.948-4.102-11.582c-1.156-3.266-3.546-5.477-7.207-4.18
		c-4.371,1.548-8.742,3.097-13.113,4.645c-3.868,1.37-7.21,2.531-6.506,7.441C150.94,226.752,153.831,225.937,153.56,224.045z"/>
</g>
<g>
	<path fill="#FFFFFF" d="M125.255,228.719c-3.156-2.687,1.583-7.863,2.93-10.079c1.934-3.181,3.867-6.362,5.8-9.542
		c3.157-5.193,13.477,3.814,16.954,5.928c3.769,2.291-7.542,17.095-8.962,19.431c-3.16,5.199-13.538-3.852-17.025-5.972
		c-1.658-1.007-3.165,1.587-1.515,2.591c3.817,2.32,7.633,4.64,11.45,6.959c3.316,2.016,6.903,2.502,9.223-1.313
		c2.705-4.45,5.41-8.899,8.114-13.349c2.163-3.558,4.632-7.232,0.604-10.66c-3.38-2.877-7.962-4.89-11.753-7.194
		c-3.315-2.016-6.904-2.502-9.223,1.313c-2.705,4.45-5.409,8.899-8.114,13.349c-2.162,3.558-4.631,7.231-0.604,10.66
		C124.598,232.087,126.731,229.975,125.255,228.719z"/>
</g>
<g>
	<path fill="#FFFFFF" d="M207.558,283.238c-0.239,1.78-0.39,1.329-1.992,1.329c-2.061,0-4.121,0-6.181,0c-6.745,0-13.489,0-20.234,0
		c-15.134,0-30.268,0-45.401,0c-3.084,0-6.168,0-9.252,0c-0.033,0-0.016-4.462-0.016-4.716c0-11.001,0-22.002,0-33.003
		c0-30.709,0-61.419,0-92.129c0-6.712,0-13.425,0-20.137c0-0.073,25.66-0.035,27.283-0.035c15.227,0,30.455,0,45.682,0
		c3.29,0,6.58,0,9.869,0c0.137,0,0.063,4.051,0.063,4.345c0,26.865,0,53.731,0,80.597c0,21.693,0,43.386,0,65.079
		c0,6.449,10,6.449,10,0c0-48.174,0-96.348,0-144.521c0-1.831,0-3.661,0-5.491c0-6.993-6.095-10.009-12.145-10.009
		c-12.936,0-25.871,0-38.806,0c-13.147,0-26.295,0-39.442,0c-6.138,0-12.503,2.754-12.503,10c0,1.7,0,3.401,0,5.101
		c0,48.304,0,96.607,0,144.911c0,10.557,10.648,10.009,17.994,10.009c10.654,0,21.309,0,31.962,0c11.003,0,22.005,0,33.008,0
		c7.424,0,18.389,1.484,19.753-8.671C218.047,279.594,208.413,276.873,207.558,283.238z"/>
</g>
<g>
	<path fill="#FFFFFF" d="M124.941,178.545c28.521,0,57.041,0,85.562,0c1.935,0,1.935-3,0-3c-28.521,0-57.041,0-85.562,0
		C123.006,175.545,123.006,178.545,124.941,178.545L124.941,178.545z"/>
</g>
</svg>
