<?xml version="1.0" encoding="iso-8859-1"?>
<!-- Generator: Adobe Illustrator 16.0.0, SVG Export Plug-In . SVG Version: 6.00 Build 0)  -->
<!DOCTYPE svg PUBLIC "-//W3C//DTD SVG 1.1 Tiny//EN" "http://www.w3.org/Graphics/SVG/1.1/DTD/svg11-tiny.dtd">
<svg version="1.1" baseProfile="tiny" id="scene_x5F_office"
	 xmlns="http://www.w3.org/2000/svg" xmlns:xlink="http://www.w3.org/1999/xlink" x="0px" y="0px" width="361px" height="361px"
	 viewBox="0 0 361 361" xml:space="preserve">
<g id="PC">
	<path fill="#FFFFFF" d="M106.99,156.048c0.373,1.846-0.822,3.645-2.668,4.017l-5.894,1.188c-1.846,0.372-3.645-0.823-4.017-2.669
		l-16.33-80.981c-0.373-1.846,0.822-3.645,2.669-4.017l5.894-1.188c1.846-0.372,3.645,0.823,4.017,2.669L106.99,156.048z"/>
	<g>
		<path fill="#FFFFFF" d="M86.94,122.709c-3.111,18.739-6.222,37.479-9.333,56.218c-0.733,4.415,6.012,6.307,6.75,1.861
			c3.111-18.739,6.222-37.479,9.333-56.218C94.423,120.156,87.678,118.264,86.94,122.709L86.94,122.709z"/>
	</g>
	<g>
		<path fill="#FFFFFF" d="M76.315,185.358c11,0,22,0,33,0c4.514,0,4.514-7,0-7c-11,0-22,0-33,0
			C71.801,178.358,71.801,185.358,76.315,185.358L76.315,185.358z"/>
	</g>
</g>
<g id="Tastatur">
	<g>
		<path fill="#FFFFFF" d="M133.318,174.243c13.952,2.354,27.903,4.708,41.855,7.062c1.892,0.319,2.702-2.571,0.798-2.893
			c-13.952-2.354-27.903-4.708-41.855-7.062C132.224,171.031,131.414,173.921,133.318,174.243L133.318,174.243z"/>
	</g>
	<g>
		<path fill="#FFFFFF" d="M134.159,172.947c1.808,0.305,3.616,0.61,5.423,0.915c1.892,0.319,2.702-2.571,0.798-2.893
			c-1.808-0.305-3.616-0.61-5.423-0.915C133.064,169.735,132.254,172.626,134.159,172.947L134.159,172.947z"/>
	</g>
	<g>
		<path fill="#FFFFFF" d="M143.93,174.596c1.728,0.292,3.456,0.583,5.184,0.875c1.892,0.319,2.702-2.571,0.798-2.893
			c-1.728-0.292-3.456-0.583-5.184-0.875C142.835,171.384,142.025,174.275,143.93,174.596L143.93,174.596z"/>
	</g>
	<g>
		<path fill="#FFFFFF" d="M152.316,176.011c1.808,0.305,3.616,0.61,5.423,0.915c1.892,0.319,2.702-2.571,0.798-2.893
			c-1.808-0.305-3.616-0.61-5.423-0.915C151.222,172.799,150.412,175.689,152.316,176.011L152.316,176.011z"/>
	</g>
	<g>
		<path fill="#FFFFFF" d="M160.986,177.474c1.698,0.287,3.396,0.573,5.094,0.859c1.892,0.319,2.702-2.571,0.798-2.893
			c-1.698-0.287-3.396-0.573-5.094-0.859C159.892,174.262,159.082,177.152,160.986,177.474L160.986,177.474z"/>
	</g>
	<g>
		<path fill="#FFFFFF" d="M169.41,178.895c1.753,0.296,3.506,0.592,5.259,0.888c1.892,0.319,2.702-2.571,0.798-2.893
			c-1.753-0.296-3.506-0.592-5.259-0.888C168.316,175.683,167.506,178.573,169.41,178.895L169.41,178.895z"/>
	</g>
	<g>
		<path fill="#FFFFFF" d="M135.217,174.59c-0.106,1.83-0.213,3.661-0.319,5.491c-0.112,1.934,2.888,1.923,3,0
			c0.106-1.83,0.213-3.661,0.319-5.491C138.33,172.657,135.329,172.667,135.217,174.59L135.217,174.59z"/>
	</g>
</g>
<g id="Stuhl">
	<g>
		<path fill="#FFFFFF" d="M213.94,224.631c20.497,0,40.994,0,61.49,0c6.449,0,6.449-10,0-10c-20.497,0-40.994,0-61.49,0
			C207.492,214.631,207.492,224.631,213.94,224.631L213.94,224.631z"/>
	</g>
	<g>
		<path fill="#FFFFFF" d="M241.032,219.631c0,16.21,0,32.419,0,48.629c0,6.449,10,6.449,10,0c0-16.21,0-32.419,0-48.629
			C251.032,213.182,241.032,213.182,241.032,219.631L241.032,219.631z"/>
	</g>
	<g>
		<path fill="#FFFFFF" d="M246.388,265.788c-11.936,4.279-23.872,8.559-35.809,12.838c-4.216,1.512-2.399,8.277,1.861,6.75
			c11.936-4.279,23.872-8.559,35.809-12.838C252.466,271.026,250.648,264.26,246.388,265.788L246.388,265.788z"/>
	</g>
	<g>
		<path fill="#FFFFFF" d="M245.101,272.538c11.937,4.279,23.873,8.559,35.809,12.838c4.26,1.527,6.078-5.238,1.861-6.75
			c-11.937-4.279-23.873-8.559-35.809-12.838C242.702,264.26,240.885,271.026,245.101,272.538L245.101,272.538z"/>
	</g>
	<g>
		<path fill="#FFFFFF" d="M274.96,123.64c-2.384,18.739-4.768,37.479-7.151,56.218c-0.812,6.385,9.198,6.307,10,0
			c2.384-18.739,4.768-37.479,7.151-56.218C285.772,117.255,275.762,117.333,274.96,123.64L274.96,123.64z"/>
	</g>
	<g>
		<path fill="#FFFFFF" d="M267.809,181.859c0.874,7.71,1.748,15.42,2.622,23.13c0.718,6.332,10.726,6.402,10,0
			c-0.874-7.71-1.748-15.42-2.622-23.13C277.091,175.527,267.083,175.457,267.809,181.859L267.809,181.859z"/>
	</g>
	<g>
		<path fill="#FFFFFF" d="M275.465,91.031c1.254,5.859,2.508,11.719,3.762,17.578c1.349,6.305,10.989,3.63,9.643-2.658
			c-1.254-5.859-2.508-11.719-3.762-17.578C283.759,82.068,274.119,84.743,275.465,91.031L275.465,91.031z"/>
	</g>
	<g>
		<path fill="#FFFFFF" d="M225.44,193.399c12.375,0,24.75,0,37.125,0c4.514,0,4.514-7,0-7c-12.375,0-24.75,0-37.125,0
			C220.926,186.399,220.926,193.399,225.44,193.399L225.44,193.399z"/>
	</g>
	<g>
		<path fill="#FFFFFF" d="M250.349,190.578c0.248,9.608,0.497,19.216,0.745,28.824c0.05,1.931,3.05,1.936,3,0
			c-0.248-9.608-0.497-19.216-0.745-28.824C253.299,188.647,250.299,188.642,250.349,190.578L250.349,190.578z"/>
	</g>
	<g>
		<path fill="#FFFFFF" d="M211.624,287.545c-0.664,0-1.328,0-1.992,0c-1.908,0-3.5,1.592-3.5,3.5s1.592,3.5,3.5,3.5
			c0.664,0,1.328,0,1.992,0c1.908,0,3.5-1.592,3.5-3.5S213.531,287.545,211.624,287.545L211.624,287.545z"/>
	</g>
	<g>
		<path fill="#FFFFFF" d="M282.836,287.545c-0.664,0-1.328,0-1.992,0c-1.908,0-3.5,1.592-3.5,3.5s1.592,3.5,3.5,3.5
			c0.664,0,1.328,0,1.992,0c1.908,0,3.5-1.592,3.5-3.5S284.744,287.545,282.836,287.545L282.836,287.545z"/>
	</g>
</g>
<g>
	<g>
		<path fill="#FFFFFF" d="M72.648,191.001c35.222,0,70.444,0,105.667,0c6.449,0,6.449-10,0-10c-35.222,0-70.444,0-105.667,0
			C66.2,181.001,66.2,191.001,72.648,191.001L72.648,191.001z"/>
	</g>
	<g>
		<path fill="#FFFFFF" d="M101.645,189.213c0,32.596,0,65.192,0,97.788c0,6.449,10,6.449,10,0c0-32.596,0-65.192,0-97.788
			C111.645,182.765,101.645,182.765,101.645,189.213L101.645,189.213z"/>
	</g>
	<g>
		<path fill="#FFFFFF" d="M73.645,189.213c0,32.596,0,65.192,0,97.788c0,6.449,10,6.449,10,0c0-32.596,0-65.192,0-97.788
			C83.645,182.765,73.645,182.765,73.645,189.213L73.645,189.213z"/>
	</g>
	<g>
		<path fill="#FFFFFF" d="M72.648,294.712c22.889,0,45.778,0,68.667,0c6.449,0,6.449-10,0-10c-22.889,0-45.778,0-68.667,0
			C66.2,284.712,66.2,294.712,72.648,294.712L72.648,294.712z"/>
	</g>
</g>
</svg>
