<?xml version="1.0" encoding="iso-8859-1"?>
<!-- Generator: Adobe Illustrator 24.0.1, SVG Export Plug-In . SVG Version: 6.00 Build 0)  -->
<svg version="1.1" xmlns="http://www.w3.org/2000/svg" xmlns:xlink="http://www.w3.org/1999/xlink" x="0px" y="0px"
	 viewBox="0 0 361 361" style="enable-background:new 0 0 361 361;" xml:space="preserve">
<g id="scene_x5F_sream_x5F_course">
	<g>
		<g>
			<path style="fill:#FFFFFF;" d="M216.044,141.231c1.531,0,3.063,0,4.594,0c1.831,0,3.585-1.61,3.5-3.5
				c-0.085-1.896-1.538-3.5-3.5-3.5c-1.531,0-3.063,0-4.594,0c-1.831,0-3.585,1.61-3.5,3.5
				C212.629,139.627,214.082,141.231,216.044,141.231L216.044,141.231z"/>
		</g>
	</g>
	<g>
		<g>
			<path style="fill:#FFFFFF;" d="M80.958,222.77c5.333,0,10.667,0,16,0c4.504,0,4.512-7,0-7c-5.333,0-10.667,0-16,0
				C76.454,215.77,76.446,222.77,80.958,222.77L80.958,222.77z"/>
		</g>
	</g>
	<g>
		<g>
			<path style="fill:#FFFFFF;" d="M138.487,115.231c2,0,4,0,6,0c1.891,0,3.5-1.609,3.5-3.5c0-1.898-1.602-3.5-3.5-3.5c-2,0-4,0-6,0
				c-1.891,0-3.5,1.609-3.5,3.5C134.987,113.629,136.589,115.231,138.487,115.231L138.487,115.231z"/>
		</g>
	</g>
	<g>
		<g>
			<path style="fill:#FFFFFF;" d="M226.958,146.872c0.667,0,1.333,0,2,0c0.897,0,1.84-0.39,2.475-1.025
				c0.607-0.607,1.064-1.603,1.025-2.475c-0.085-1.896-1.538-3.5-3.5-3.5c-0.667,0-1.333,0-2,0c-0.897,0-1.84,0.39-2.475,1.025
				c-0.607,0.607-1.064,1.603-1.025,2.475C223.543,145.268,224.996,146.872,226.958,146.872L226.958,146.872z"/>
		</g>
	</g>
	<g>
		<g>
			<path style="fill:#FFFFFF;" d="M154.487,120.216c-2,0-4,0-6,0c-1.891,0-3.5,1.609-3.5,3.5c0,1.898,1.602,3.5,3.5,3.5c2,0,4,0,6,0
				c1.891,0,3.5-1.609,3.5-3.5C157.987,121.818,156.386,120.216,154.487,120.216L154.487,120.216z"/>
		</g>
	</g>
	<g>
		<g>
			<path style="fill:#FFFFFF;" d="M100.012,192.271c-3.875,0-7.75,0-11.625,0c-4.504,0-4.512,7,0,7c3.875,0,7.75,0,11.625,0
				C104.516,199.271,104.523,192.271,100.012,192.271L100.012,192.271z"/>
		</g>
	</g>
	<g>
		<g>
			<path style="fill:#FFFFFF;" d="M95.012,202.271c-2.208,0-4.417,0-6.625,0c-4.504,0-4.512,7,0,7c2.208,0,4.417,0,6.625,0
				C99.516,209.271,99.524,202.271,95.012,202.271L95.012,202.271z"/>
		</g>
	</g>
	<g>
		<g>
			<path style="fill:#FFFFFF;" d="M83.244,204.271c-2,0-4,0-6,0c-1.891,0-3.5,1.609-3.5,3.5c0,1.898,1.602,3.5,3.5,3.5c2,0,4,0,6,0
				c1.891,0,3.5-1.609,3.5-3.5C86.744,205.872,85.142,204.271,83.244,204.271L83.244,204.271z"/>
		</g>
	</g>
	<g>
		<g>
			<path style="fill:#FFFFFF;" d="M94.387,185.957c-2,0-4,0-6,0c-1.891,0-3.5,1.609-3.5,3.5c0,1.898,1.602,3.5,3.5,3.5c2,0,4,0,6,0
				c1.891,0,3.5-1.609,3.5-3.5C97.887,187.559,96.286,185.957,94.387,185.957L94.387,185.957z"/>
		</g>
	</g>
	<g>
		<g>
			<path style="fill:#FFFFFF;" d="M218.674,179.869c-0.222,0-0.444,0-0.666,0c-0.482-0.018-0.931,0.082-1.348,0.301
				c-0.434,0.141-0.809,0.382-1.126,0.724c-0.341,0.317-0.583,0.692-0.724,1.126c-0.219,0.417-0.32,0.867-0.301,1.348
				c0.042,0.31,0.083,0.62,0.125,0.93c0.166,0.593,0.466,1.108,0.9,1.544c0.236,0.182,0.472,0.365,0.708,0.547
				c0.546,0.317,1.135,0.476,1.767,0.478c0.222,0,0.444,0,0.666,0c0.482,0.018,0.931-0.082,1.348-0.301
				c0.434-0.141,0.809-0.382,1.126-0.724c0.341-0.317,0.583-0.692,0.724-1.126c0.219-0.417,0.32-0.867,0.301-1.348
				c-0.042-0.31-0.083-0.62-0.125-0.93c-0.166-0.593-0.466-1.108-0.9-1.544c-0.236-0.182-0.472-0.365-0.708-0.547
				C219.895,180.03,219.306,179.871,218.674,179.869L218.674,179.869z"/>
		</g>
	</g>
	<g>
		<g>
			<path style="fill:#FFFFFF;" d="M75.119,163.047c2.337,0,4.673,0,7.01,0c4.504,0,4.512-7,0-7c-2.337,0-4.673,0-7.01,0
				C70.615,156.047,70.608,163.047,75.119,163.047L75.119,163.047z"/>
		</g>
	</g>
	<g>
		<g>
			<path style="fill:#FFFFFF;" d="M78.187,184.94c2.58,0,5.161,0,7.741,0c4.504,0,4.512-7,0-7c-2.58,0-5.161,0-7.741,0
				C73.683,177.94,73.676,184.94,78.187,184.94L78.187,184.94z"/>
		</g>
	</g>
	<g>
		<g>
			<path style="fill:#FFFFFF;" d="M142.987,184.763c2,0,4,0,6,0c1.891,0,3.5-1.609,3.5-3.5c0-1.898-1.602-3.5-3.5-3.5c-2,0-4,0-6,0
				c-1.891,0-3.5,1.609-3.5,3.5C139.487,183.161,141.089,184.763,142.987,184.763L142.987,184.763z"/>
		</g>
	</g>
	<g>
		<g>
			<path style="fill:#FFFFFF;" d="M205.116,130.556c-3,0-6,0-9,0c-4.504,0-4.512,7,0,7c3,0,6,0,9,0
				C209.62,137.556,209.627,130.556,205.116,130.556L205.116,130.556z"/>
		</g>
	</g>
	<g>
		<g>
			<path style="fill:#FFFFFF;" d="M150.402,112.784c-5.333,0-10.667,0-16,0c-4.504,0-4.512,7,0,7c5.333,0,10.667,0,16,0
				C154.906,119.784,154.913,112.784,150.402,112.784L150.402,112.784z"/>
		</g>
	</g>
	<g>
		<g>
			<path style="fill:#FFFFFF;" d="M81.244,123.736c-2,0-4,0-6,0c-1.891,0-3.5,1.609-3.5,3.5c0,1.898,1.602,3.5,3.5,3.5c2,0,4,0,6,0
				c1.891,0,3.5-1.609,3.5-3.5C84.744,125.337,83.142,123.736,81.244,123.736L81.244,123.736z"/>
		</g>
	</g>
	<g>
		<g>
			<path style="fill:#FFFFFF;" d="M77.952,147.111c0.667,0,1.333,0,2,0c0.897,0,1.84-0.39,2.475-1.025
				c0.607-0.607,1.064-1.603,1.025-2.475c-0.085-1.896-1.538-3.5-3.5-3.5c-0.667,0-1.333,0-2,0c-0.897,0-1.84,0.39-2.475,1.025
				c-0.607,0.607-1.064,1.603-1.025,2.475C74.537,145.507,75.99,147.111,77.952,147.111L77.952,147.111z"/>
		</g>
	</g>
	<g>
		<g>
			<path style="fill:#FFFFFF;" d="M94.954,159.435c-0.667,0-1.333,0-2,0c-0.897,0-1.84,0.39-2.475,1.025
				c-0.607,0.607-1.064,1.603-1.025,2.475c0.085,1.896,1.538,3.5,3.5,3.5c0.667,0,1.333,0,2,0c0.897,0,1.84-0.39,2.475-1.025
				c0.607-0.607,1.064-1.603,1.025-2.475C98.369,161.039,96.916,159.435,94.954,159.435L94.954,159.435z"/>
		</g>
	</g>
	<g>
		<g>
			<path style="fill:#FFFFFF;" d="M228.958,161.376c-2,0-4,0-6,0c-1.891,0-3.5,1.609-3.5,3.5c0,1.898,1.602,3.5,3.5,3.5c2,0,4,0,6,0
				c1.891,0,3.5-1.609,3.5-3.5C232.458,162.978,230.856,161.376,228.958,161.376L228.958,161.376z"/>
		</g>
	</g>
	<g>
		<g>
			<path style="fill:#FFFFFF;" d="M89.203,138.047c-1.833,0-3.667,0-5.5,0c-1.831,0-3.585,1.61-3.5,3.5
				c0.085,1.896,1.538,3.5,3.5,3.5c1.833,0,3.667,0,5.5,0c1.831,0,3.585-1.61,3.5-3.5C92.618,139.651,91.165,138.047,89.203,138.047
				L89.203,138.047z"/>
		</g>
	</g>
	<g>
		<g>
			<path style="fill:#FFFFFF;" d="M238.71,168.411c5.333,0,10.667,0,16,0c4.504,0,4.512-7,0-7c-5.333,0-10.667,0-16,0
				C234.206,161.411,234.198,168.411,238.71,168.411L238.71,168.411z"/>
		</g>
	</g>
	<g>
		<g>
			<path style="fill:#FFFFFF;" d="M185.711,140.456c2,0,4,0,6,0c1.891,0,3.5-1.609,3.5-3.5c0-1.898-1.602-3.5-3.5-3.5c-2,0-4,0-6,0
				c-1.891,0-3.5,1.609-3.5,3.5C182.211,138.854,183.813,140.456,185.711,140.456L185.711,140.456z"/>
		</g>
	</g>
	<g>
		<g>
			<path style="fill:#FFFFFF;" d="M248.003,164.626c0.667,0,1.333,0,2,0c0.897,0,1.84-0.39,2.475-1.025
				c0.607-0.607,1.064-1.603,1.025-2.475c-0.085-1.896-1.538-3.5-3.5-3.5c-0.667,0-1.333,0-2,0c-0.897,0-1.84,0.39-2.475,1.025
				c-0.607,0.607-1.064,1.603-1.025,2.475C244.588,163.022,246.04,164.626,248.003,164.626L248.003,164.626z"/>
		</g>
	</g>
	<g>
		<g>
			<path style="fill:#FFFFFF;" d="M199.898,124.862c-2,0-4,0-6,0c-1.891,0-3.5,1.609-3.5,3.5c0,1.898,1.602,3.5,3.5,3.5c2,0,4,0,6,0
				c1.891,0,3.5-1.609,3.5-3.5C203.398,126.463,201.797,124.862,199.898,124.862L199.898,124.862z"/>
		</g>
	</g>
	<g>
		<g>
			<path style="fill:#FFFFFF;" d="M141.252,156.074c-3,0-6,0-9.001,0c-4.504,0-4.512,7,0,7c3,0,6,0,9.001,0
				C145.756,163.074,145.763,156.074,141.252,156.074L141.252,156.074z"/>
		</g>
	</g>
	<g>
		<g>
			<path style="fill:#FFFFFF;" d="M145.987,184.957c-2,0-4,0-6,0c-1.891,0-3.5,1.609-3.5,3.5c0,1.898,1.602,3.5,3.5,3.5c2,0,4,0,6,0
				c1.891,0,3.5-1.609,3.5-3.5C149.487,186.559,147.886,184.957,145.987,184.957L145.987,184.957z"/>
		</g>
	</g>
	<g>
		<g>
			<path style="fill:#FFFFFF;" d="M138.487,204.957c2,0,4,0,6,0c1.891,0,3.5-1.609,3.5-3.5c0-1.898-1.602-3.5-3.5-3.5c-2,0-4,0-6,0
				c-1.891,0-3.5,1.609-3.5,3.5C134.987,203.355,136.589,204.957,138.487,204.957L138.487,204.957z"/>
		</g>
	</g>
	<g>
		<g>
			<path style="fill:#FFFFFF;" d="M87.189,174.777c5.083,0,10.167,0,15.25,0c4.504,0,4.512-7,0-7c-5.083,0-10.167,0-15.25,0
				C82.684,167.777,82.677,174.777,87.189,174.777L87.189,174.777z"/>
		</g>
	</g>
	<g>
		<g>
			<path style="fill:#FFFFFF;" d="M216.044,153.174c3,0,6,0,9.001,0c4.504,0,4.512-7,0-7c-3,0-6,0-9.001,0
				C211.54,146.174,211.533,153.174,216.044,153.174L216.044,153.174z"/>
		</g>
	</g>
	<g>
		<g>
			<path style="fill:#FFFFFF;" d="M128.487,227.245c5.333,0,10.667,0,16,0c4.504,0,4.512-7,0-7c-5.333,0-10.667,0-16,0
				C123.983,220.245,123.976,227.245,128.487,227.245L128.487,227.245z"/>
		</g>
	</g>
	<g>
		<g>
			<path style="fill:#FFFFFF;" d="M148.487,196.957c2,0,4,0,6,0c1.891,0,3.5-1.609,3.5-3.5c0-1.898-1.602-3.5-3.5-3.5c-2,0-4,0-6,0
				c-1.891,0-3.5,1.609-3.5,3.5C144.987,195.355,146.589,196.957,148.487,196.957L148.487,196.957z"/>
		</g>
	</g>
	<g>
		<g>
			<path style="fill:#FFFFFF;" d="M229.752,182.245c0.667,0,1.333,0,2,0c0.897,0,1.84-0.39,2.475-1.025
				c0.607-0.607,1.064-1.603,1.025-2.475c-0.085-1.896-1.538-3.5-3.5-3.5c-0.667,0-1.333,0-2,0c-0.897,0-1.84,0.39-2.475,1.025
				c-0.607,0.607-1.064,1.603-1.025,2.475C226.337,180.641,227.789,182.245,229.752,182.245L229.752,182.245z"/>
		</g>
	</g>
	<g>
		<g>
			<path style="fill:#FFFFFF;" d="M105.441,209.334c-3.903,0-7.805,0-11.708,0c-4.504,0-4.512,7,0,7c3.902,0,7.805,0,11.708,0
				C109.945,216.334,109.953,209.334,105.441,209.334L105.441,209.334z"/>
		</g>
	</g>
	<g>
		<g>
			<path style="fill:#FFFFFF;" d="M229.794,155.174c-2,0-4,0-6,0c-1.891,0-3.5,1.609-3.5,3.5c0,1.898,1.602,3.5,3.5,3.5c2,0,4,0,6,0
				c1.891,0,3.5-1.609,3.5-3.5C233.294,156.776,231.693,155.174,229.794,155.174L229.794,155.174z"/>
		</g>
	</g>
	<g>
		<g>
			<path style="fill:#FFFFFF;" d="M140.487,192.957c5.333,0,10.667,0,16,0c4.504,0,4.512-7,0-7c-5.333,0-10.667,0-16,0
				C135.983,185.957,135.976,192.957,140.487,192.957L140.487,192.957z"/>
		</g>
	</g>
	<g>
		<g>
			<path style="fill:#FFFFFF;" d="M123.381,159.36c-3,0-6,0-9.001,0c-4.504,0-4.512,7,0,7c3,0,6,0,9.001,0
				C127.886,166.36,127.893,159.36,123.381,159.36L123.381,159.36z"/>
		</g>
	</g>
	<g>
		<g>
			<path style="fill:#FFFFFF;" d="M88.63,161.193c-1.833,0-3.667,0-5.5,0c-1.831,0-3.585,1.61-3.5,3.5
				c0.085,1.896,1.538,3.5,3.5,3.5c1.833,0,3.667,0,5.5,0c1.831,0,3.585-1.61,3.5-3.5C92.045,162.797,90.592,161.193,88.63,161.193
				L88.63,161.193z"/>
		</g>
	</g>
	<g>
		<g>
			<path style="fill:#FFFFFF;" d="M148.453,166.074c-0.667,0-1.333,0-2,0c-0.897,0-1.84,0.39-2.475,1.025
				c-0.607,0.607-1.064,1.603-1.025,2.475c0.085,1.896,1.538,3.5,3.5,3.5c0.667,0,1.333,0,2,0c0.897,0,1.84-0.39,2.475-1.025
				c0.607-0.607,1.064-1.603,1.025-2.475C151.868,167.678,150.415,166.074,148.453,166.074L148.453,166.074z"/>
		</g>
	</g>
	<g>
		<g>
			<path style="fill:#FFFFFF;" d="M140.418,184.894c-0.667,0-1.333,0-2,0c-0.897,0-1.84,0.39-2.475,1.025
				c-0.607,0.607-1.064,1.603-1.025,2.475c0.085,1.896,1.538,3.5,3.5,3.5c0.667,0,1.333,0,2,0c0.897,0,1.84-0.39,2.475-1.025
				c0.607-0.607,1.064-1.603,1.025-2.475C143.833,186.497,142.38,184.894,140.418,184.894L140.418,184.894z"/>
		</g>
	</g>
	<g>
		<g>
			<path style="fill:#FFFFFF;" d="M102.688,175.944c1.833,0,3.667,0,5.5,0c1.831,0,3.585-1.61,3.5-3.5
				c-0.085-1.896-1.538-3.5-3.5-3.5c-1.834,0-3.667,0-5.5,0c-1.831,0-3.585,1.61-3.5,3.5
				C99.273,174.34,100.726,175.944,102.688,175.944L102.688,175.944z"/>
		</g>
	</g>
	<g>
		<g>
			<path style="fill:#FFFFFF;" d="M74.702,170.824c0.667,0,1.333,0,2,0c0.897,0,1.84-0.39,2.475-1.025
				c0.607-0.607,1.064-1.603,1.025-2.475c-0.085-1.896-1.538-3.5-3.5-3.5c-0.667,0-1.333,0-2,0c-0.897,0-1.84,0.39-2.475,1.025
				c-0.607,0.607-1.064,1.603-1.025,2.475C71.287,169.221,72.74,170.824,74.702,170.824L74.702,170.824z"/>
		</g>
	</g>
	<g>
		<g>
			<path style="fill:#FFFFFF;" d="M93.952,165.111c0.667,0,1.333,0,2,0c0.897,0,1.84-0.39,2.475-1.025
				c0.607-0.607,1.064-1.603,1.025-2.475c-0.085-1.896-1.538-3.5-3.5-3.5c-0.667,0-1.333,0-2,0c-0.897,0-1.84,0.39-2.475,1.025
				c-0.607,0.607-1.064,1.603-1.025,2.475C90.537,163.507,91.99,165.111,93.952,165.111L93.952,165.111z"/>
		</g>
	</g>
	<g>
		<g>
			<path style="fill:#FFFFFF;" d="M109.203,162.047c-1.833,0-3.667,0-5.5,0c-1.831,0-3.585,1.61-3.5,3.5
				c0.085,1.896,1.538,3.5,3.5,3.5c1.833,0,3.667,0,5.5,0c1.831,0,3.585-1.61,3.5-3.5
				C112.618,163.651,111.165,162.047,109.203,162.047L109.203,162.047z"/>
		</g>
	</g>
	<g>
		<g>
			<path style="fill:#FFFFFF;" d="M208.712,141.231c0.667,0,1.333,0,2,0c0.897,0,1.84-0.39,2.475-1.025
				c0.607-0.607,1.064-1.603,1.025-2.475c-0.085-1.896-1.538-3.5-3.5-3.5c-0.667,0-1.333,0-2,0c-0.897,0-1.84,0.39-2.475,1.025
				c-0.607,0.607-1.064,1.603-1.025,2.475C205.297,139.627,206.75,141.231,208.712,141.231L208.712,141.231z"/>
		</g>
	</g>
	<g>
		<g>
			<path style="fill:#FFFFFF;" d="M249.293,149.48c-3.722,0-7.444,0-11.166,0c-4.504,0-4.512,7,0,7c3.722,0,7.444,0,11.166,0
				C253.797,156.48,253.805,149.48,249.293,149.48L249.293,149.48z"/>
		</g>
	</g>
	<g>
		<g>
			<path style="fill:#FFFFFF;" d="M84.535,130.111c-3.278,0-6.556,0-9.834,0c-4.504,0-4.512,7,0,7c3.278,0,6.556,0,9.834,0
				C89.039,137.111,89.047,130.111,84.535,130.111L84.535,130.111z"/>
		</g>
	</g>
	<g>
		<g>
			<path style="fill:#FFFFFF;" d="M146.835,161.074c-3.722,0-7.444,0-11.166,0c-4.504,0-4.512,7,0,7c3.722,0,7.444,0,11.166,0
				C151.339,168.074,151.346,161.074,146.835,161.074L146.835,161.074z"/>
		</g>
	</g>
	<g>
		<g>
			<path style="fill:#FFFFFF;" d="M276.357,181.545c-0.009-7.179-0.282-14.656-2.407-21.57c-1.449-4.715-4.023-9.388-8.532-11.772
				c-2.505-1.325-5.311-1.843-8.126-1.86c-1.931-0.012-1.933,2.988,0,3c4.161,0.025,8.006,1.461,10.581,4.843
				c3.174,4.169,4.26,9.796,4.855,14.878c0.485,4.141,0.624,8.315,0.63,12.482C273.36,183.475,276.36,183.478,276.357,181.545
				L276.357,181.545z"/>
		</g>
	</g>
	<g>
		<g>
			<path style="fill:#FFFFFF;" d="M280.455,181.545c-0.027-11.72-2.136-27.799-14.28-33.336c-2.801-1.277-5.81-1.85-8.883-1.867
				c-1.931-0.011-1.933,2.989,0,3c4.685,0.026,9.094,1.606,12.389,5.006c3.836,3.959,5.698,9.445,6.722,14.752
				c0.79,4.097,1.043,8.278,1.053,12.445C277.459,183.475,280.459,183.478,280.455,181.545L280.455,181.545z"/>
		</g>
	</g>
	<g>
		<g>
			<path style="fill:#FFFFFF;" d="M266.501,181.545c-0.004-5.797,0.06-11.779-1.074-17.493c-0.536-2.7-1.549-5.169-3.391-7.236
				c-0.852-0.956-1.809-1.813-2.709-2.723c-1.36-1.375-3.481,0.747-2.121,2.121c0.775,0.784,1.589,1.53,2.347,2.331
				c0.163,0.172,0.323,0.346,0.479,0.525c0.093,0.107,0.516,0.637,0.325,0.383c0.309,0.411,0.589,0.842,0.835,1.293
				c0.342,0.627,0.417,0.819,0.616,1.375c0.25,0.702,0.444,1.423,0.606,2.15c0.432,1.94,0.629,3.922,0.772,5.902
				c0.272,3.783,0.314,7.582,0.316,11.373C263.502,183.475,266.502,183.478,266.501,181.545L266.501,181.545z"/>
		</g>
	</g>
	<g>
		<g>
			<path style="fill:#FFFFFF;" d="M270.598,181.545c-0.008-5.767,0.032-12.036-1.874-17.562c-1.068-3.096-2.905-5.472-5.551-7.372
				c-1.349-0.968-2.781-1.814-4.15-2.753c-1.596-1.095-3.098,1.503-1.514,2.59c2.259,1.551,4.524,2.686,6.244,4.619
				c0.714,0.802,1.467,2.082,1.91,3.248c0.726,1.91,1.121,3.953,1.379,5.974c0.476,3.726,0.55,7.504,0.555,11.256
				C267.601,183.475,270.601,183.478,270.598,181.545L270.598,181.545z"/>
		</g>
	</g>
	<g>
		<g>
			<path style="fill:#FFFFFF;" d="M285.943,181.545c0.008-4.995,0.026-10.926,1.915-15.45c0.129-0.308,0.498-1.038,0.787-1.481
				c0.062-0.095,0.129-0.186,0.192-0.28c0.204-0.305-0.189,0.211,0.038-0.054c0.14-0.163,0.277-0.325,0.428-0.478
				c0.124-0.126,0.257-0.241,0.386-0.361c0.063-0.058,0.133-0.108,0.197-0.165c0.244-0.216-0.238,0.177-0.067,0.05
				c0.302-0.225,0.616-0.443,0.904-0.686c0.686-0.577,1.062-1.312,1.108-2.212c0.1-1.93-2.901-1.924-3,0
				c-0.013,0.246,0.108-0.432-0.009-0.02c-0.013,0.047,0.18-0.376-0.008-0.035c0.232-0.421,0.187-0.169,0.006-0.042
				c-0.188,0.132-0.359,0.29-0.008,0.026c-0.601,0.451-1.219,0.886-1.737,1.434c-2.127,2.256-2.915,5.531-3.386,8.5
				c-0.59,3.72-0.74,7.492-0.746,11.254C282.939,183.475,285.939,183.478,285.943,181.545L285.943,181.545z"/>
		</g>
	</g>
	<g>
		<g>
			<path style="fill:#FFFFFF;" d="M281.792,181.943c0.481-3.043,0.966-6.089,1.592-9.106c0.341-1.645,0.709-3.304,1.319-4.873
				c0.088-0.225-0.099,0.193,0.074-0.17c0.053-0.111,0.104-0.222,0.161-0.331c0.109-0.212,0.233-0.413,0.356-0.618
				c0.052-0.087,0.116-0.167,0.173-0.251c0.026-0.038-0.212,0.233-0.004,0.009c0.145-0.156,0.282-0.315,0.437-0.462
				c0.134-0.127,0.277-0.242,0.415-0.363c0.233-0.204-0.06,0.042-0.018,0.01c0.089-0.067,0.178-0.134,0.268-0.199
				c0.379-0.273,0.761-0.541,1.137-0.819c1.333-0.984,2.559-2.07,3.689-3.282c1.315-1.411-0.802-3.537-2.121-2.121
				c-0.556,0.597-1.132,1.175-1.742,1.718c-0.246,0.219-0.497,0.431-0.751,0.64c-0.107,0.088-0.217,0.174-0.326,0.26
				c0.297-0.233-0.115,0.086-0.179,0.133c-0.798,0.586-1.644,1.128-2.379,1.795c-1.957,1.776-2.615,4.576-3.171,7.05
				c-0.755,3.364-1.286,6.779-1.824,10.183c-0.128,0.806,0.207,1.604,1.048,1.845C280.658,183.195,281.666,182.742,281.792,181.943
				L281.792,181.943z"/>
		</g>
	</g>
	<g>
		<g>
			<path style="fill:#FFFFFF;" d="M121.495,197.76c0.005-6.801-0.131-13.928,1.411-20.6c0.738-3.191,1.863-5.526,4.135-7.649
				c1.216-1.136,2.543-2.149,3.806-3.232c1.468-1.259-0.662-3.373-2.121-2.121c-2.299,1.972-4.778,3.747-6.423,6.346
				c-2.406,3.801-2.945,8.618-3.328,12.992c-0.415,4.74-0.477,9.509-0.481,14.264C118.493,199.691,121.493,199.694,121.495,197.76
				L121.495,197.76z"/>
		</g>
	</g>
	<g>
		<g>
			<path style="fill:#FFFFFF;" d="M115.537,197.76c0.009-6.736-0.026-14.121,2.487-20.496c1.361-3.452,3.663-5.667,6.724-7.498
				c1.901-1.137,3.882-2.137,5.796-3.252c1.667-0.971,0.159-3.565-1.514-2.59c-3.369,1.963-7.087,3.563-9.92,6.312
				c-3.532,3.427-4.965,8.313-5.682,13.049c-0.724,4.788-0.885,9.64-0.891,14.476C112.534,199.691,115.534,199.694,115.537,197.76
				L115.537,197.76z"/>
		</g>
	</g>
	<g>
		<g>
			<path style="fill:#FFFFFF;" d="M131.62,197.76c0.008-4.106,0.141-8.256,0.833-12.311c0.392-2.299,0.957-4.737,1.964-6.754
				c0.308-0.618,0.862-1.52,1.146-1.883c0.177-0.226,0.765-0.833,1.148-1.18c0.092-0.083,0.191-0.158,0.287-0.236
				c-0.239,0.192-0.103,0.074,0.045-0.028c0.175-0.122,0.35-0.243,0.529-0.359c0.319-0.208,0.65-0.398,0.962-0.616
				c0.956-0.667,1.578-1.47,1.65-2.67c0.116-1.928-2.885-1.922-3,0c-0.018,0.297,0.128-0.213,0.019-0.126
				c-0.009,0.007-0.06,0.188-0.057,0.195c-0.037-0.088,0.19-0.409,0.045-0.139c-0.139,0.26,0.039-0.039,0.076-0.087
				c-0.077,0.101-0.193,0.216-0.301,0.285c0.444-0.283,0.015-0.016-0.15,0.087c-0.827,0.516-1.644,1.048-2.373,1.701
				c-2.91,2.607-4.103,6.755-4.785,10.458c-0.829,4.499-1.03,9.098-1.038,13.664C128.617,199.691,131.617,199.694,131.62,197.76
				L131.62,197.76z"/>
		</g>
	</g>
	<g>
		<g>
			<path style="fill:#FFFFFF;" d="M125.609,198.159c0.705-3.779,1.416-7.565,2.333-11.3c0.476-1.939,1.073-4.196,1.844-5.777
				c0.622-1.274,0.909-1.677,1.947-2.542c0.17-0.141-0.23,0.16,0.097-0.072c0.098-0.069,0.195-0.139,0.294-0.206
				c0.25-0.171,0.507-0.333,0.765-0.493c0.536-0.333,1.081-0.652,1.616-0.986c1.867-1.168,3.61-2.518,5.238-4
				c1.431-1.303-0.696-3.419-2.121-2.121c-1.407,1.281-2.849,2.405-4.458,3.422c-1.088,0.688-2.223,1.303-3.243,2.093
				c-2.69,2.083-3.716,5.469-4.554,8.633c-1.094,4.132-1.868,8.352-2.651,12.551C122.365,199.249,125.255,200.057,125.609,198.159
				L125.609,198.159z"/>
		</g>
	</g>
	<g>
		<g>
			<path style="fill:#FFFFFF;" d="M111.111,197.871c-0.009-4.765-0.146-9.954-2.118-14.384c-0.817-1.836-2.069-3.17-3.742-4.241
				c-0.113-0.072-0.231-0.172-0.351-0.23c-0.25-0.119,0.283,0.233,0.121,0.096c-0.036-0.031-0.105-0.075-0.129-0.118
				c-0.155-0.275,0.222,0.383,0.031,0.026c0.011,0.021,0.147,0.44,0.079,0.169c-0.068-0.272,0.037,0.459,0.019,0.159
				c-0.116-1.918-3.117-1.932-3,0c0.052,0.867,0.43,1.541,1.111,2.065c0.244,0.188,0.498,0.352,0.758,0.517
				c0.117,0.075,0.235,0.148,0.35,0.226c0.163,0.11,0.512,0.398,0.153,0.095c0.309,0.26,0.6,0.525,0.872,0.825
				c0.078,0.086,0.15,0.178,0.223,0.269c-0.173-0.213-0.092-0.135,0.017,0.035c0.151,0.234,0.306,0.463,0.442,0.705
				c0.146,0.26,0.277,0.527,0.403,0.797c0.036,0.078,0.071,0.158,0.105,0.237c-0.108-0.254-0.016-0.032,0.003,0.017
				c0.078,0.203,0.154,0.406,0.224,0.612c0.29,0.846,0.509,1.715,0.687,2.591c0.634,3.125,0.736,6.351,0.742,9.53
				C108.115,199.801,111.115,199.804,111.111,197.871L111.111,197.871z"/>
		</g>
	</g>
	<g>
		<g>
			<path style="fill:#FFFFFF;" d="M115.295,197.472c-0.512-2.744-1.026-5.494-1.7-8.204c-0.38-1.529-0.814-3.059-1.495-4.485
				c-0.884-1.85-2.373-2.858-4.062-3.896c-1.425-0.875-2.252-1.503-3.456-2.598c-1.425-1.297-3.553,0.818-2.121,2.121
				c1.757,1.599,3.715,2.814,5.696,4.097c0.255,0.165-0.059-0.052-0.034-0.031c0.066,0.057,0.136,0.108,0.201,0.167
				c0.15,0.137,0.291,0.279,0.432,0.425c0.064,0.066,0.119,0.141,0.179,0.21c0.012,0.013-0.168-0.265-0.011-0.007
				c0.126,0.207,0.264,0.405,0.38,0.618c0.117,0.214,0.22,0.433,0.321,0.655c0.112,0.246,0.002,0.004-0.016-0.04
				c0.03,0.075,0.062,0.15,0.09,0.226c0.06,0.162,0.122,0.323,0.179,0.486c0.265,0.752,0.483,1.52,0.684,2.292
				c0.753,2.887,1.295,5.831,1.842,8.762C112.756,200.165,115.648,199.362,115.295,197.472L115.295,197.472z"/>
		</g>
	</g>
	<g>
		<g>
			<path style="fill:#FFFFFF;" d="M109.808,155.505c0.002-5.457-0.279-11.245,0.704-16.615c0.123-0.674,0.276-1.345,0.494-1.995
				c0.048-0.143,0.099-0.285,0.153-0.426c0.106-0.277-0.084,0.169,0.037-0.089c0.111-0.238,0.23-0.471,0.365-0.696
				c0.068-0.113,0.389-0.573,0.296-0.453c-0.071,0.092,0.265-0.303,0.38-0.423c0.326-0.338,0.685-0.639,1.051-0.931
				c-0.265,0.211,0.374-0.279,0.515-0.382c0.252-0.185,0.506-0.368,0.759-0.554c0.671-0.492,1.333-0.996,1.979-1.519
				c1.501-1.215-0.633-3.326-2.121-2.121c-1.584,1.282-3.93,2.615-5.25,4.557c-1.854,2.728-1.958,6.543-2.136,9.707
				c-0.223,3.974-0.226,7.961-0.228,11.941C106.807,157.436,109.807,157.439,109.808,155.505L109.808,155.505z"/>
		</g>
	</g>
	<g>
		<g>
			<path style="fill:#FFFFFF;" d="M104.428,155.505c0.004-3.501,0.057-7.016,0.414-10.502c0.208-2.034,0.533-4.103,1.258-6.024
				c0.452-1.196,1.066-2.143,2.033-3.018c0.344-0.311,0.212-0.199,0.476-0.384c0.277-0.194,0.561-0.377,0.852-0.549
				c0.578-0.342,1.181-0.643,1.787-0.933c1.672-0.8,3.365-1.546,4.992-2.439c1.693-0.93,0.181-3.521-1.514-2.59
				c-2.784,1.529-5.995,2.506-8.461,4.558c-2.878,2.395-3.758,6.239-4.231,9.781c-0.535,4.005-0.599,8.064-0.604,12.1
				C101.426,157.436,104.426,157.439,104.428,155.505L104.428,155.505z"/>
		</g>
	</g>
	<g>
		<g>
			<path style="fill:#FFFFFF;" d="M116.856,155.294c0.005-2.483,0.074-5.012,0.48-7.454c0.138-0.826,0.31-1.648,0.545-2.453
				c0.092-0.317,0.194-0.631,0.308-0.94c0.02-0.055,0.196-0.496,0.12-0.316c-0.072,0.169,0.112-0.242,0.148-0.317
				c0.208-0.426,0.457-0.815,0.724-1.204c0.035-0.051-0.231,0.255-0.022,0.035c0.065-0.068,0.124-0.144,0.188-0.213
				c0.118-0.127,0.245-0.243,0.37-0.362c0.055-0.052,0.131-0.096,0.18-0.153c0.143-0.166-0.328,0.223-0.106,0.081
				c0.12-0.077,0.234-0.167,0.352-0.246c0.182-0.122,0.37-0.235,0.549-0.362c0.759-0.537,1.231-1.189,1.288-2.144
				c0.114-1.929-2.886-1.922-3,0c-0.013,0.214,0.117-0.467,0-0.113c-0.033,0.1,0.215-0.44,0.084-0.216
				c-0.131,0.224,0.207-0.265,0.134-0.164c-0.043,0.06-0.108,0.116-0.166,0.161c0.129-0.1,0.302-0.209,0.018-0.026
				c-0.539,0.347-1.075,0.707-1.546,1.144c-1.815,1.685-2.575,4.297-3,6.653c-0.512,2.837-0.644,5.732-0.649,8.61
				C113.853,157.224,116.853,157.227,116.856,155.294L116.856,155.294z"/>
		</g>
	</g>
	<g>
		<g>
			<path style="fill:#FFFFFF;" d="M113.237,155.692c0.42-2.321,0.844-4.645,1.39-6.94c0.174-0.73,0.36-1.457,0.584-2.174
				c0.082-0.263,0.169-0.525,0.265-0.784c0.048-0.131,0.1-0.261,0.151-0.391c-0.118,0.298-0.035,0.076,0.04-0.079
				c0.175-0.361,0.38-0.687,0.599-1.022c-0.237,0.362-0.028,0.041,0.113-0.106c0.119-0.124,0.253-0.229,0.375-0.348
				c0.208-0.203-0.114,0.081-0.078,0.057c0.063-0.042,0.121-0.091,0.184-0.133c0.149-0.101,0.298-0.201,0.45-0.299
				c0.324-0.207,0.654-0.406,0.977-0.614c1.162-0.748,2.248-1.61,3.256-2.554c1.412-1.323-0.713-3.441-2.121-2.121
				c-0.257,0.241-0.517,0.477-0.784,0.707c-0.113,0.097-0.227,0.193-0.342,0.287c-0.067,0.055-0.44,0.35-0.31,0.25
				c0.16-0.123-0.152,0.112-0.198,0.146c-0.109,0.08-0.22,0.159-0.331,0.237c-0.202,0.141-0.406,0.278-0.612,0.412
				c-0.706,0.458-1.432,0.874-2.088,1.405c-1.664,1.344-2.309,3.528-2.822,5.52c-0.657,2.552-1.12,5.155-1.59,7.746
				c-0.144,0.796,0.217,1.617,1.048,1.845C112.119,156.94,113.092,156.494,113.237,155.692L113.237,155.692z"/>
		</g>
	</g>
	<g>
		<g>
			<path style="fill:#FFFFFF;" d="M98.98,155.388c-0.004-4.333,0.022-8.874-0.977-13.12c-0.358-1.524-0.954-3.27-2.375-4.124
				c-0.262-0.157-0.571-0.235-0.82-0.412c-0.66-0.471-1.67-0.116-2.052,0.538c-0.441,0.754-0.123,1.58,0.538,2.052
				c0.2,0.143,0.443,0.207,0.658,0.321c0.068,0.036,0.133,0.085,0.203,0.117c0.306,0.139-0.204-0.244-0.063-0.052
				c0.049,0.067,0.14,0.147,0.204,0.202c0.282,0.248-0.152-0.288,0.016,0.022c0.069,0.127,0.153,0.246,0.221,0.374
				c0.036,0.068,0.065,0.14,0.103,0.206c0.168,0.297-0.082-0.245-0.006-0.025c0.15,0.435,0.302,0.862,0.416,1.309
				c0.378,1.487,0.497,2.601,0.627,4.056c0.254,2.836,0.306,5.69,0.308,8.536C95.982,157.318,98.982,157.322,98.98,155.388
				L98.98,155.388z"/>
		</g>
	</g>
	<g>
		<g>
			<path style="fill:#FFFFFF;" d="M104.374,154.989c-0.44-2.423-0.882-4.852-1.461-7.247c-0.331-1.367-0.712-2.725-1.307-4.004
				c-0.767-1.649-2.08-2.565-3.567-3.504c-0.457-0.289-0.901-0.594-1.34-0.911c-0.334-0.241,0.075,0.071-0.198-0.15
				c-0.146-0.119-0.293-0.236-0.437-0.357c-0.326-0.274-0.642-0.559-0.953-0.849c-1.409-1.318-3.535,0.799-2.121,2.121
				c1.514,1.417,3.216,2.514,4.938,3.646c0.195,0.128-0.275-0.257-0.072-0.054c0.053,0.053,0.118,0.096,0.172,0.148
				c0.128,0.122,0.25,0.247,0.371,0.375c0.298,0.316-0.122-0.222,0.111,0.144c0.114,0.18,0.227,0.358,0.327,0.546
				c0.1,0.189,0.189,0.383,0.276,0.578c-0.178-0.4,0.011,0.037,0.042,0.122c0.052,0.143,0.105,0.285,0.154,0.429
				c0.228,0.665,0.415,1.343,0.588,2.024c0.648,2.552,1.113,5.151,1.583,7.74c0.145,0.798,1.114,1.249,1.845,1.048
				C104.166,156.604,104.52,155.789,104.374,154.989L104.374,154.989z"/>
		</g>
	</g>
	<g>
		<g>
			<path style="fill:#FFFFFF;" d="M246.203,178.765c2.58,0,5.161,0,7.741,0c4.504,0,4.512-7,0-7c-2.58,0-5.161,0-7.741,0
				C241.699,171.765,241.692,178.765,246.203,178.765L246.203,178.765z"/>
		</g>
	</g>
	<g>
		<g>
			<path style="fill:#FFFFFF;" d="M268.002,190.662c2,0,4,0,6,0c1.891,0,3.5-1.609,3.5-3.5c0-1.898-1.602-3.5-3.5-3.5c-2,0-4,0-6,0
				c-1.891,0-3.5,1.609-3.5,3.5C264.502,189.06,266.103,190.662,268.002,190.662L268.002,190.662z"/>
		</g>
	</g>
	<g>
		<g>
			<path style="fill:#FFFFFF;" d="M264.502,155.111c-3,0-6,0-9,0c-4.504,0-4.512,7,0,7c3,0,6,0,9,0
				C269.006,162.111,269.013,155.111,264.502,155.111L264.502,155.111z"/>
		</g>
	</g>
	<g>
		<g>
			<path style="fill:#FFFFFF;" d="M269.002,206.103c-2,0-4,0-6,0c-1.891,0-3.5,1.609-3.5,3.5c0,1.898,1.602,3.5,3.5,3.5c2,0,4,0,6,0
				c1.891,0,3.5-1.609,3.5-3.5C272.502,207.705,270.9,206.103,269.002,206.103L269.002,206.103z"/>
		</g>
	</g>
	<g>
		<g>
			<path style="fill:#FFFFFF;" d="M234.605,196.957c2,0,4,0,6,0c1.891,0,3.5-1.609,3.5-3.5c0-1.898-1.602-3.5-3.5-3.5c-2,0-4,0-6,0
				c-1.891,0-3.5,1.609-3.5,3.5C231.105,195.355,232.707,196.957,234.605,196.957L234.605,196.957z"/>
		</g>
	</g>
	<g>
		<g>
			<path style="fill:#FFFFFF;" d="M210.419,177.72c5.083,0,10.167,0,15.25,0c4.504,0,4.512-7,0-7c-5.083,0-10.167,0-15.25,0
				C205.915,170.72,205.908,177.72,210.419,177.72L210.419,177.72z"/>
		</g>
	</g>
	<g>
		<g>
			<path style="fill:#FFFFFF;" d="M274.314,219.552c2,0,4,0,6,0c1.891,0,3.5-1.609,3.5-3.5c0-1.898-1.602-3.5-3.5-3.5c-2,0-4,0-6,0
				c-1.891,0-3.5,1.609-3.5,3.5C270.814,217.95,272.416,219.552,274.314,219.552L274.314,219.552z"/>
		</g>
	</g>
	<g>
		<g>
			<path style="fill:#FFFFFF;" d="M252.002,206.843c5.333,0,10.667,0,16,0c4.504,0,4.512-7,0-7c-5.333,0-10.667,0-16,0
				C247.497,199.843,247.49,206.843,252.002,206.843L252.002,206.843z"/>
		</g>
	</g>
	<g>
		<g>
			<path style="fill:#FFFFFF;" d="M260.755,175.245c-3,0-6,0-9,0c-4.504,0-4.512,7,0,7c3,0,6,0,9,0
				C265.259,182.245,265.267,175.245,260.755,175.245L260.755,175.245z"/>
		</g>
	</g>
	<g>
		<g>
			<path style="fill:#FFFFFF;" d="M246.409,198.805c-0.667,0-1.333,0-2,0c-0.897,0-1.84,0.39-2.475,1.025
				c-0.607,0.607-1.064,1.603-1.025,2.475c0.085,1.896,1.538,3.5,3.5,3.5c0.667,0,1.333,0,2,0c0.897,0,1.84-0.39,2.475-1.025
				c0.607-0.607,1.064-1.603,1.025-2.475C249.824,200.409,248.371,198.805,246.409,198.805L246.409,198.805z"/>
		</g>
	</g>
	<g>
		<g>
			<path style="fill:#FFFFFF;" d="M257.694,196.765c-0.667,0-1.333,0-2,0c-0.897,0-1.84,0.39-2.475,1.025
				c-0.607,0.607-1.064,1.603-1.025,2.475c0.085,1.896,1.538,3.5,3.5,3.5c0.667,0,1.333,0,2,0c0.897,0,1.84-0.39,2.475-1.025
				c0.607-0.607,1.064-1.603,1.025-2.475C261.11,198.369,259.657,196.765,257.694,196.765L257.694,196.765z"/>
		</g>
	</g>
	<g>
		<g>
			<path style="fill:#FFFFFF;" d="M251.194,190.495c1.833,0,3.667,0,5.5,0c1.831,0,3.585-1.61,3.5-3.5
				c-0.085-1.896-1.538-3.5-3.5-3.5c-1.833,0-3.667,0-5.5,0c-1.831,0-3.585,1.61-3.5,3.5
				C247.779,188.891,249.232,190.495,251.194,190.495L251.194,190.495z"/>
		</g>
	</g>
	<g>
		<g>
			<path style="fill:#FFFFFF;" d="M249.766,171.765c-1.833,0-3.667,0-5.5,0c-1.831,0-3.585,1.61-3.5,3.5
				c0.085,1.896,1.538,3.5,3.5,3.5c1.833,0,3.667,0,5.5,0c1.831,0,3.585-1.61,3.5-3.5
				C253.181,173.369,251.728,171.765,249.766,171.765L249.766,171.765z"/>
		</g>
	</g>
	<g>
		<g>
			<path style="fill:#FFFFFF;" d="M278.478,191.752c-3.722,0-7.444,0-11.166,0c-4.504,0-4.512,7,0,7c3.722,0,7.444,0,11.166,0
				C282.982,198.752,282.99,191.752,278.478,191.752L278.478,191.752z"/>
		</g>
	</g>
	<g>
		<g>
			<path style="fill:#FFFFFF;" d="M165.15,237.802c2.58,0,5.161,0,7.741,0c4.504,0,4.512-7,0-7c-2.58,0-5.161,0-7.741,0
				C160.646,230.802,160.639,237.802,165.15,237.802L165.15,237.802z"/>
		</g>
	</g>
	<g>
		<g>
			<path style="fill:#FFFFFF;" d="M186.949,249.699c2,0,4,0,6,0c1.891,0,3.5-1.609,3.5-3.5c0-1.898-1.602-3.5-3.5-3.5c-2,0-4,0-6,0
				c-1.891,0-3.5,1.609-3.5,3.5C183.449,248.097,185.05,249.699,186.949,249.699L186.949,249.699z"/>
		</g>
	</g>
	<g>
		<g>
			<path style="fill:#FFFFFF;" d="M123.866,199.843c-3,0-6,0-9.001,0c-4.504,0-4.512,7,0,7c3,0,6,0,9.001,0
				C128.37,206.843,128.378,199.843,123.866,199.843L123.866,199.843z"/>
		</g>
	</g>
	<g>
		<g>
			<path style="fill:#FFFFFF;" d="M128.602,228.725c-2,0-4,0-6,0c-1.891,0-3.5,1.609-3.5,3.5c0,1.898,1.602,3.5,3.5,3.5c2,0,4,0,6,0
				c1.891,0,3.5-1.609,3.5-3.5C132.102,230.327,130.5,228.725,128.602,228.725L128.602,228.725z"/>
		</g>
	</g>
	<g>
		<g>
			<path style="fill:#FFFFFF;" d="M121.102,248.725c2,0,4,0,6,0c1.891,0,3.5-1.609,3.5-3.5c0-1.898-1.602-3.5-3.5-3.5c-2,0-4,0-6,0
				c-1.891,0-3.5,1.609-3.5,3.5C117.602,247.124,119.204,248.725,121.102,248.725L121.102,248.725z"/>
		</g>
	</g>
	<g>
		<g>
			<path style="fill:#FFFFFF;" d="M150.699,249.532c5.083,0,10.167,0,15.25,0c4.504,0,4.512-7,0-7c-5.083,0-10.167,0-15.25,0
				C146.194,242.532,146.187,249.532,150.699,249.532L150.699,249.532z"/>
		</g>
	</g>
	<g>
		<g>
			<path style="fill:#FFFFFF;" d="M131.102,240.725c2,0,4,0,6,0c1.891,0,3.5-1.609,3.5-3.5c0-1.898-1.602-3.5-3.5-3.5c-2,0-4,0-6,0
				c-1.891,0-3.5,1.609-3.5,3.5C127.602,239.124,129.204,240.725,131.102,240.725L131.102,240.725z"/>
		</g>
	</g>
	<g>
		<g>
			<path style="fill:#FFFFFF;" d="M123.102,236.725c5.333,0,10.667,0,16,0c4.504,0,4.512-7,0-7c-5.333,0-10.667,0-16,0
				C118.598,229.725,118.59,236.725,123.102,236.725L123.102,236.725z"/>
		</g>
	</g>
	<g>
		<g>
			<path style="fill:#FFFFFF;" d="M182.891,233.115c-3,0-6,0-9,0c-4.504,0-4.512,7,0,7c3,0,6,0,9,0
				C187.396,240.115,187.403,233.115,182.891,233.115L182.891,233.115z"/>
		</g>
	</g>
	<g>
		<g>
			<path style="fill:#FFFFFF;" d="M138.067,209.843c-0.667,0-1.333,0-2,0c-0.897,0-1.84,0.39-2.475,1.025
				c-0.607,0.607-1.064,1.603-1.025,2.475c0.085,1.896,1.538,3.5,3.5,3.5c0.667,0,1.333,0,2,0c0.897,0,1.84-0.39,2.475-1.025
				c0.607-0.607,1.064-1.603,1.025-2.475C141.482,211.446,140.029,209.843,138.067,209.843L138.067,209.843z"/>
		</g>
	</g>
	<g>
		<g>
			<path style="fill:#FFFFFF;" d="M117.814,219.726c-0.667,0-1.333,0-2,0c-0.897,0-1.84,0.39-2.475,1.025
				c-0.607,0.607-1.064,1.603-1.025,2.475c0.085,1.896,1.538,3.5,3.5,3.5c0.667,0,1.333,0,2,0c0.897,0,1.84-0.39,2.475-1.025
				c0.607-0.607,1.064-1.603,1.025-2.475C121.229,221.329,119.776,219.726,117.814,219.726L117.814,219.726z"/>
		</g>
	</g>
	<g>
		<g>
			<path style="fill:#FFFFFF;" d="M170.141,249.532c1.833,0,3.667,0,5.5,0c1.831,0,3.585-1.61,3.5-3.5
				c-0.085-1.896-1.538-3.5-3.5-3.5c-1.833,0-3.667,0-5.5,0c-1.831,0-3.585,1.61-3.5,3.5
				C166.726,247.928,168.179,249.532,170.141,249.532L170.141,249.532z"/>
		</g>
	</g>
	<g>
		<g>
			<path style="fill:#FFFFFF;" d="M168.713,230.802c-1.833,0-3.667,0-5.501,0c-1.831,0-3.585,1.61-3.5,3.5
				c0.085,1.896,1.538,3.5,3.5,3.5c1.834,0,3.667,0,5.501,0c1.831,0,3.585-1.61,3.5-3.5
				C172.128,232.406,170.675,230.802,168.713,230.802L168.713,230.802z"/>
		</g>
	</g>
	<g>
		<g>
			<path style="fill:#FFFFFF;" d="M134.445,207.51c-3.722,0-7.444,0-11.166,0c-4.504,0-4.512,7,0,7c3.722,0,7.444,0,11.166,0
				C138.949,214.51,138.956,207.51,134.445,207.51L134.445,207.51z"/>
		</g>
	</g>
	<path style="fill:none;stroke:#FFFFFF;stroke-width:3;stroke-linecap:round;stroke-miterlimit:10;" d="M109.618,140.361
		c2.766,1.44,5.923,2.573,9.263,3.643c10.175,3.258,22.049,5.925,29.742,14.856c19.149,22.232,9.87,38.112,26.043,53.352
		c29.003,27.331,50.879,33.987,50.879,33.987"/>
	<path style="fill:none;stroke:#FFFFFF;stroke-width:3;stroke-linecap:round;stroke-miterlimit:10;" d="M76.45,111.731
		c0,0,16.224,10.183,26.253,23.149c0.313,0.405,0.645,0.792,0.994,1.164"/>
	<path style="display:none;fill:none;stroke:#FFFFFF;stroke-width:3;stroke-linecap:round;stroke-miterlimit:10;" d="M76.45,151.731
		c0,0,16.224,10.183,26.253,23.149c8.957,11.581,33.177,9.185,45.92,23.98c19.149,22.232,9.87,38.112,26.043,53.352
		c29.003,27.331,50.879,33.987,50.879,33.987"/>
	<path style="fill:none;stroke:#FFFFFF;stroke-width:3;stroke-linecap:round;stroke-miterlimit:10;" d="M116.131,109.263
		c0,0,10.591,6.335,20.62,19.301c8.957,11.581,30.628,2.925,43.371,17.72c19.149,22.232,19.249,33.016,35.421,48.255
		c29.003,27.331,68.121,34.468,68.121,34.468"/>
	<g>
		<g>
			<path style="fill:#FFFFFF;" d="M95.803,249.211c-0.016-5.094-0.393-10.847-3.302-15.228c-1.903-2.866-4.714-4.618-7.81-5.968
				c-1.705-0.744-3.421-1.412-5.142-2.303c-1.712-0.886-3.231,1.701-1.514,2.59c2.766,1.432,5.587,2.255,8.269,3.862
				c2.818,1.688,4.584,4.343,5.477,7.613c0.838,3.067,1.011,6.268,1.021,9.433C92.809,251.141,95.809,251.145,95.803,249.211
				L95.803,249.211z"/>
		</g>
	</g>
	<g>
		<g>
			<path style="fill:#FFFFFF;" d="M102.657,249.211c-0.022-5.414-0.876-11.223-4.667-15.368c-2.944-3.22-7.18-4.739-11.252-5.963
				c-2.521-0.758-5.063-1.443-7.547-2.318c-1.825-0.643-2.609,2.255-0.798,2.893c7.075,2.492,16.685,3.317,19.807,11.327
				c1.168,2.996,1.443,6.242,1.456,9.43C99.665,251.141,102.665,251.145,102.657,249.211L102.657,249.211z"/>
		</g>
	</g>
	<g>
		<g>
			<path style="fill:#FFFFFF;" d="M86.823,249.038c-0.01-3.468-0.268-7.494-2.288-10.464c-1.085-1.596-2.517-2.529-4.265-3.251
				c-0.302-0.125,0.189,0.088,0.109,0.047c-0.055-0.028-0.114-0.048-0.17-0.076c-0.101-0.051-0.201-0.117-0.303-0.163
				c-0.267-0.12,0.325,0.318,0.076,0.041c0.246,0.274,0.176,0.145,0.291,0.501c-0.048-0.15-0.033-0.336,0.019,0.237
				c-0.073-0.807-0.637-1.5-1.5-1.5c-0.755,0-1.574,0.688-1.5,1.5c0.079,0.868,0.525,1.519,1.298,1.923
				c0.311,0.163,0.645,0.285,0.969,0.419c0.329,0.136-0.354-0.163,0.067,0.03c0.156,0.071,0.311,0.142,0.463,0.221
				c0.318,0.164,0.598,0.401,0.911,0.563c0.038,0.02-0.274-0.235-0.048-0.035c0.075,0.067,0.153,0.13,0.227,0.198
				c0.179,0.164,0.343,0.341,0.507,0.521c0.076,0.084,0.297,0.393,0.041,0.037c0.072,0.1,0.146,0.199,0.216,0.301
				c0.16,0.235,0.306,0.48,0.44,0.731c0.069,0.128,0.134,0.258,0.196,0.39c0.033,0.068,0.063,0.138,0.095,0.207
				c0.093,0.195-0.094-0.239-0.013-0.033c0.133,0.338,0.256,0.678,0.362,1.025c0.673,2.199,0.791,4.307,0.797,6.631
				C83.828,250.968,86.828,250.971,86.823,249.038L86.823,249.038z"/>
		</g>
	</g>
	<g>
		<g>
			<path style="fill:#FFFFFF;" d="M91.312,248.639c-0.552-1.958-1.11-3.924-1.828-5.829c-0.431-1.145-0.899-2.327-1.625-3.322
				c-1.19-1.629-2.807-2.274-4.618-3.009c-0.14-0.057-0.279-0.115-0.419-0.172c0.343,0.14,0.009,0.004-0.133-0.059
				c-0.313-0.137-0.623-0.279-0.93-0.428c-0.755-0.366-1.49-0.772-2.209-1.205c-1.658-0.998-3.168,1.595-1.514,2.59
				c1.111,0.669,2.262,1.261,3.455,1.769c0.522,0.222,1.047,0.435,1.573,0.646c0.168,0.068,0.73,0.311,0.273,0.107
				c0.18,0.08,0.362,0.157,0.539,0.243c0.316,0.154,0.599,0.34,0.895,0.526c0.255,0.16-0.226-0.213-0.074-0.057
				c0.06,0.062,0.134,0.115,0.197,0.174c0.144,0.135,0.267,0.286,0.403,0.428c0.223,0.233-0.158-0.242-0.028-0.04
				c0.057,0.088,0.123,0.172,0.181,0.259c0.137,0.206,0.262,0.42,0.38,0.638c0.12,0.221,0.231,0.446,0.336,0.674
				c0.062,0.135,0.122,0.271,0.181,0.407c-0.151-0.343,0.073,0.185,0.103,0.26c0.794,2.016,1.382,4.114,1.97,6.196
				C88.943,251.291,91.838,250.503,91.312,248.639L91.312,248.639z"/>
		</g>
	</g>
	<g>
		<g>
			<path style="fill:#FFFFFF;" d="M109.598,249.115c0.003-2.108,0.063-4.223,0.308-6.319c0.042-0.356,0.052-0.442,0.129-0.913
				c0.059-0.357,0.125-0.713,0.202-1.066c0.118-0.542,0.26-1.08,0.445-1.603c0.036-0.103,0.079-0.203,0.114-0.307
				c0.084-0.252-0.143,0.289,0-0.001c0.091-0.185,0.176-0.371,0.278-0.55c0.082-0.144,0.193-0.277,0.27-0.422
				c0.097-0.183-0.269,0.283-0.07,0.09c0.053-0.051,0.097-0.114,0.147-0.168c0.085-0.091,0.199-0.167,0.277-0.262
				c0.108-0.132-0.345,0.213-0.138,0.106c0.051-0.027,0.096-0.069,0.146-0.098c0.089-0.051,0.181-0.097,0.269-0.149
				c0.267-0.158-0.398,0.128-0.048,0.022c0.441-0.134,0.874-0.254,1.295-0.447c0.736-0.338,0.918-1.402,0.538-2.052
				c-0.442-0.756-1.313-0.877-2.052-0.538c0.443-0.203,0.208-0.088-0.075-0.007c-0.168,0.048-0.338,0.093-0.503,0.152
				c-0.651,0.233-1.219,0.557-1.72,1.04c-1.557,1.503-2.054,3.932-2.349,5.98c-0.358,2.49-0.461,4.999-0.465,7.513
				C106.596,251.045,109.596,251.048,109.598,249.115L109.598,249.115z"/>
		</g>
	</g>
	<g>
		<g>
			<path style="fill:#FFFFFF;" d="M102.603,249.513c0.545-1.93,1.098-3.865,1.794-5.747c0.122-0.329,0.248-0.656,0.383-0.98
				c-0.125,0.301,0.04-0.085,0.082-0.177c0.059-0.13,0.12-0.26,0.184-0.389c0.221-0.449,0.479-0.865,0.756-1.281
				c0.173-0.26-0.194,0.2-0.024,0.031c0.068-0.067,0.126-0.148,0.191-0.219c0.133-0.143,0.282-0.266,0.421-0.402
				c0.216-0.212-0.257,0.156-0.07,0.051c0.075-0.042,0.143-0.102,0.215-0.149c0.156-0.103,0.318-0.196,0.484-0.284
				c0.152-0.08,0.307-0.154,0.463-0.226c0.087-0.04,0.176-0.076,0.263-0.116c-0.29,0.134-0.182,0.075,0.023-0.008
				c0.42-0.17,0.842-0.335,1.261-0.508c1.451-0.598,2.851-1.276,4.197-2.085c1.653-0.993,0.147-3.588-1.514-2.59
				c-0.666,0.4-1.345,0.778-2.042,1.123c-0.273,0.135-0.549,0.266-0.827,0.392c-0.128,0.058-0.256,0.114-0.384,0.17
				c-0.37,0.163,0.149-0.057-0.14,0.061c-0.91,0.371-1.849,0.701-2.724,1.149c-1.98,1.014-2.996,2.9-3.799,4.888
				c-0.851,2.107-1.466,4.312-2.083,6.496C99.185,250.577,102.078,251.371,102.603,249.513L102.603,249.513z"/>
		</g>
	</g>
	<g>
		<g>
			<path style="fill:#FFFFFF;" d="M174.064,131.609c-0.016-5.094-0.393-10.847-3.302-15.228c-1.903-2.866-4.714-4.618-7.81-5.968
				c-1.705-0.744-3.421-1.412-5.142-2.303c-1.712-0.886-3.231,1.701-1.514,2.59c2.766,1.432,5.587,2.255,8.269,3.862
				c2.818,1.688,4.584,4.343,5.477,7.613c0.838,3.067,1.011,6.268,1.021,9.433C171.07,133.539,174.07,133.543,174.064,131.609
				L174.064,131.609z"/>
		</g>
	</g>
	<g>
		<g>
			<path style="fill:#FFFFFF;" d="M180.918,131.609c-0.022-5.414-0.876-11.223-4.667-15.368c-2.944-3.22-7.18-4.739-11.252-5.963
				c-2.521-0.758-5.063-1.443-7.547-2.318c-1.825-0.643-2.609,2.255-0.798,2.893c7.075,2.492,16.685,3.317,19.807,11.327
				c1.168,2.996,1.443,6.242,1.456,9.43C177.926,133.539,180.926,133.543,180.918,131.609L180.918,131.609z"/>
		</g>
	</g>
	<g>
		<g>
			<path style="fill:#FFFFFF;" d="M165.084,131.436c-0.01-3.468-0.268-7.494-2.288-10.464c-1.085-1.596-2.517-2.529-4.265-3.251
				c-0.302-0.125,0.189,0.088,0.109,0.047c-0.055-0.028-0.114-0.048-0.17-0.076c-0.101-0.051-0.201-0.117-0.303-0.163
				c-0.267-0.12,0.325,0.318,0.076,0.041c0.246,0.274,0.176,0.145,0.291,0.501c-0.048-0.15-0.033-0.336,0.019,0.237
				c-0.073-0.807-0.637-1.5-1.5-1.5c-0.755,0-1.574,0.688-1.5,1.5c0.079,0.868,0.525,1.519,1.298,1.923
				c0.311,0.163,0.645,0.285,0.969,0.419c0.329,0.136-0.354-0.163,0.067,0.03c0.156,0.071,0.311,0.142,0.463,0.221
				c0.318,0.164,0.598,0.401,0.911,0.563c0.038,0.02-0.274-0.235-0.048-0.035c0.075,0.067,0.153,0.13,0.227,0.198
				c0.179,0.164,0.343,0.341,0.507,0.521c0.076,0.084,0.297,0.393,0.041,0.037c0.072,0.1,0.146,0.199,0.216,0.301
				c0.16,0.235,0.306,0.48,0.44,0.731c0.069,0.128,0.134,0.258,0.196,0.39c0.033,0.068,0.063,0.138,0.095,0.207
				c0.093,0.195-0.094-0.239-0.013-0.033c0.133,0.338,0.256,0.678,0.362,1.025c0.673,2.199,0.791,4.307,0.797,6.631
				C162.089,133.366,165.089,133.369,165.084,131.436L165.084,131.436z"/>
		</g>
	</g>
	<g>
		<g>
			<path style="fill:#FFFFFF;" d="M169.573,131.037c-0.552-1.958-1.11-3.924-1.828-5.829c-0.431-1.145-0.899-2.327-1.625-3.322
				c-1.19-1.629-2.807-2.274-4.618-3.009c-0.14-0.057-0.279-0.115-0.419-0.172c0.343,0.14,0.009,0.004-0.133-0.059
				c-0.313-0.137-0.623-0.279-0.93-0.428c-0.755-0.366-1.49-0.772-2.209-1.205c-1.658-0.998-3.168,1.595-1.514,2.59
				c1.111,0.669,2.262,1.261,3.455,1.769c0.522,0.222,1.047,0.435,1.573,0.646c0.168,0.068,0.73,0.311,0.273,0.107
				c0.18,0.08,0.362,0.157,0.539,0.243c0.316,0.154,0.599,0.34,0.895,0.526c0.255,0.16-0.226-0.213-0.074-0.057
				c0.06,0.062,0.134,0.115,0.197,0.174c0.144,0.135,0.267,0.286,0.403,0.428c0.223,0.233-0.158-0.242-0.028-0.04
				c0.057,0.088,0.123,0.172,0.181,0.259c0.137,0.206,0.262,0.42,0.38,0.638c0.12,0.221,0.231,0.446,0.336,0.674
				c0.062,0.135,0.122,0.271,0.181,0.407c-0.151-0.343,0.073,0.185,0.103,0.26c0.794,2.016,1.382,4.114,1.97,6.196
				C167.204,133.69,170.099,132.901,169.573,131.037L169.573,131.037z"/>
		</g>
	</g>
	<g>
		<g>
			<path style="fill:#FFFFFF;" d="M187.859,131.513c0.003-2.108,0.063-4.223,0.308-6.319c0.042-0.356,0.052-0.442,0.129-0.913
				c0.059-0.357,0.125-0.713,0.202-1.066c0.118-0.542,0.26-1.08,0.445-1.603c0.036-0.103,0.079-0.203,0.114-0.307
				c0.084-0.252-0.143,0.289,0-0.001c0.091-0.185,0.176-0.371,0.278-0.55c0.082-0.144,0.193-0.277,0.27-0.422
				c0.097-0.183-0.269,0.283-0.07,0.09c0.053-0.051,0.097-0.114,0.147-0.168c0.085-0.091,0.199-0.167,0.277-0.262
				c0.108-0.132-0.345,0.213-0.138,0.106c0.051-0.027,0.096-0.069,0.146-0.098c0.089-0.051,0.181-0.097,0.269-0.149
				c0.267-0.158-0.398,0.128-0.048,0.022c0.441-0.134,0.874-0.254,1.295-0.447c0.736-0.338,0.918-1.402,0.538-2.052
				c-0.442-0.756-1.313-0.877-2.052-0.538c0.443-0.203,0.208-0.088-0.075-0.007c-0.168,0.048-0.338,0.093-0.503,0.152
				c-0.651,0.233-1.219,0.557-1.72,1.04c-1.557,1.503-2.054,3.932-2.349,5.98c-0.358,2.49-0.461,4.999-0.465,7.513
				C184.857,133.443,187.857,133.446,187.859,131.513L187.859,131.513z"/>
		</g>
	</g>
	<g>
		<g>
			<path style="fill:#FFFFFF;" d="M180.864,131.911c0.545-1.93,1.098-3.865,1.794-5.747c0.122-0.329,0.248-0.656,0.383-0.98
				c-0.125,0.301,0.04-0.085,0.082-0.177c0.059-0.13,0.12-0.26,0.184-0.389c0.221-0.449,0.479-0.865,0.756-1.281
				c0.173-0.26-0.194,0.2-0.024,0.031c0.068-0.067,0.126-0.148,0.191-0.219c0.133-0.143,0.282-0.266,0.421-0.402
				c0.216-0.212-0.257,0.156-0.07,0.051c0.075-0.042,0.143-0.102,0.215-0.149c0.156-0.103,0.318-0.196,0.484-0.284
				c0.152-0.08,0.307-0.154,0.463-0.226c0.087-0.04,0.176-0.076,0.263-0.116c-0.29,0.134-0.182,0.075,0.023-0.008
				c0.42-0.17,0.842-0.335,1.261-0.508c1.451-0.598,2.851-1.276,4.197-2.085c1.653-0.993,0.147-3.588-1.514-2.59
				c-0.666,0.4-1.345,0.778-2.042,1.123c-0.273,0.135-0.549,0.266-0.827,0.392c-0.128,0.058-0.256,0.114-0.384,0.17
				c-0.37,0.163,0.149-0.057-0.14,0.061c-0.91,0.371-1.849,0.701-2.724,1.149c-1.98,1.014-2.996,2.9-3.799,4.888
				c-0.851,2.107-1.466,4.312-2.083,6.496C177.446,132.975,180.339,133.769,180.864,131.911L180.864,131.911z"/>
		</g>
	</g>
	<g>
		<g>
			<path style="fill:#FFFFFF;" d="M209.721,167.994c-0.016-5.094-0.393-10.847-3.302-15.228c-1.903-2.866-4.714-4.618-7.81-5.968
				c-1.705-0.744-3.421-1.412-5.142-2.303c-1.712-0.886-3.231,1.701-1.514,2.59c2.766,1.432,5.587,2.255,8.269,3.862
				c2.818,1.688,4.584,4.343,5.477,7.613c0.838,3.067,1.011,6.268,1.021,9.433C206.727,169.925,209.727,169.928,209.721,167.994
				L209.721,167.994z"/>
		</g>
	</g>
	<g>
		<g>
			<path style="fill:#FFFFFF;" d="M216.575,167.994c-0.022-5.414-0.876-11.223-4.667-15.368c-2.944-3.22-7.18-4.739-11.252-5.963
				c-2.521-0.758-5.063-1.443-7.547-2.318c-1.825-0.643-2.609,2.255-0.798,2.893c7.075,2.492,16.685,3.317,19.807,11.327
				c1.168,2.996,1.443,6.242,1.456,9.43C213.583,169.924,216.583,169.928,216.575,167.994L216.575,167.994z"/>
		</g>
	</g>
	<g>
		<g>
			<path style="fill:#FFFFFF;" d="M202.741,167.821c-0.01-3.468-0.268-7.494-2.288-10.464c-1.085-1.596-2.517-2.529-4.265-3.251
				c-0.302-0.125,0.189,0.088,0.109,0.047c-0.055-0.028-0.114-0.048-0.17-0.076c-0.101-0.051-0.201-0.117-0.303-0.163
				c-0.267-0.12,0.325,0.318,0.076,0.041c0.246,0.274,0.176,0.145,0.291,0.501c-0.048-0.15-0.033-0.336,0.019,0.237
				c-0.073-0.807-0.637-1.5-1.5-1.5c-0.755,0-1.574,0.688-1.5,1.5c0.079,0.868,0.525,1.519,1.298,1.923
				c0.311,0.163,0.645,0.285,0.969,0.419c0.329,0.136-0.354-0.163,0.067,0.03c0.156,0.071,0.311,0.142,0.463,0.221
				c0.318,0.164,0.598,0.401,0.911,0.563c0.038,0.02-0.274-0.235-0.048-0.035c0.075,0.067,0.153,0.13,0.227,0.198
				c0.179,0.164,0.343,0.341,0.507,0.521c0.076,0.084,0.297,0.393,0.041,0.037c0.072,0.1,0.146,0.199,0.216,0.301
				c0.16,0.235,0.306,0.48,0.44,0.731c0.069,0.128,0.134,0.258,0.196,0.39c0.033,0.068,0.063,0.138,0.095,0.207
				c0.093,0.195-0.094-0.239-0.013-0.033c0.133,0.338,0.256,0.678,0.362,1.025c0.673,2.199,0.791,4.307,0.797,6.631
				C199.746,169.751,202.746,169.755,202.741,167.821L202.741,167.821z"/>
		</g>
	</g>
	<g>
		<g>
			<path style="fill:#FFFFFF;" d="M207.231,167.422c-0.552-1.958-1.11-3.924-1.828-5.829c-0.431-1.145-0.899-2.327-1.625-3.322
				c-1.19-1.629-2.807-2.274-4.618-3.009c-0.14-0.057-0.279-0.115-0.419-0.172c0.343,0.14,0.009,0.004-0.133-0.059
				c-0.313-0.137-0.623-0.279-0.93-0.428c-0.755-0.366-1.49-0.772-2.209-1.205c-1.658-0.998-3.168,1.595-1.514,2.59
				c1.111,0.669,2.262,1.261,3.455,1.769c0.522,0.222,1.047,0.435,1.573,0.646c0.168,0.068,0.73,0.311,0.273,0.107
				c0.18,0.08,0.362,0.157,0.539,0.243c0.316,0.154,0.599,0.34,0.895,0.526c0.255,0.16-0.226-0.213-0.074-0.057
				c0.06,0.062,0.134,0.115,0.197,0.174c0.144,0.135,0.267,0.286,0.403,0.428c0.223,0.233-0.158-0.242-0.028-0.04
				c0.057,0.088,0.123,0.172,0.181,0.259c0.137,0.206,0.262,0.42,0.38,0.638c0.12,0.221,0.231,0.446,0.336,0.674
				c0.062,0.135,0.122,0.271,0.181,0.407c-0.151-0.343,0.073,0.185,0.103,0.26c0.794,2.016,1.382,4.114,1.97,6.196
				C204.861,170.075,207.756,169.287,207.231,167.422L207.231,167.422z"/>
		</g>
	</g>
	<g>
		<g>
			<path style="fill:#FFFFFF;" d="M166.071,227.879c0.006-2.114,0.11-4.029,0.626-6.022c0.092-0.354,0.195-0.704,0.315-1.05
				c0.055-0.158,0.115-0.314,0.174-0.471c0.017-0.046,0.119-0.285,0.038-0.097c-0.086,0.198,0.047-0.099,0.065-0.138
				c0.251-0.52,0.539-1.003,0.876-1.472c-0.179,0.249-0.079,0.097,0.041-0.037c0.074-0.082,0.147-0.166,0.224-0.246
				c0.153-0.159,0.316-0.305,0.481-0.45c0.197-0.173,0.116-0.063-0.048,0.032c0.079-0.045,0.151-0.11,0.226-0.162
				c0.161-0.11,0.328-0.212,0.499-0.308c0.276-0.154,0.57-0.265,0.849-0.41c-0.423,0.22-0.151,0.065,0.049-0.019
				c0.22-0.092,0.442-0.179,0.658-0.28c0.843-0.396,1.372-1.057,1.457-1.999c0.073-0.808-0.742-1.5-1.5-1.5
				c-0.872,0-1.427,0.69-1.5,1.5c0.053-0.58,0.07-0.402,0.028-0.263c-0.039,0.13,0.209-0.428,0.095-0.238
				c-0.068,0.113,0.308-0.357,0.15-0.196c-0.175,0.178,0.242-0.14,0.167-0.119c-0.162,0.045-0.395,0.2-0.546,0.283
				c0.445-0.246,0.173-0.074-0.027,0.01c-0.239,0.1-0.479,0.199-0.716,0.304c-0.308,0.137-0.61,0.288-0.898,0.464
				c-2.08,1.266-3.304,3.424-3.957,5.718c-0.658,2.312-0.819,4.771-0.826,7.164C163.065,229.81,166.065,229.812,166.071,227.879
				L166.071,227.879z"/>
		</g>
	</g>
	<g>
		<g>
			<path style="fill:#FFFFFF;" d="M161.474,228.278c0.534-1.893,1.075-3.791,1.757-5.637c0.119-0.323,0.244-0.643,0.375-0.961
				c-0.125,0.303,0.032-0.069,0.077-0.167c0.058-0.128,0.118-0.255,0.18-0.381c0.217-0.441,0.47-0.848,0.74-1.257
				c0.171-0.258-0.197,0.205-0.028,0.036c0.066-0.066,0.123-0.145,0.187-0.214c0.13-0.14,0.276-0.26,0.412-0.394
				c0.214-0.211-0.26,0.16-0.075,0.054c0.073-0.042,0.14-0.1,0.21-0.146c0.153-0.101,0.312-0.192,0.473-0.278
				c0.148-0.079,0.3-0.152,0.453-0.221c0.085-0.039,0.172-0.074,0.257-0.114c0.19-0.088-0.374,0.151,0.015-0.005
				c0.412-0.165,0.824-0.329,1.235-0.498c1.423-0.587,2.797-1.253,4.116-2.047c1.652-0.995,0.146-3.59-1.514-2.59
				c-0.652,0.393-1.317,0.763-1.999,1.102c-0.268,0.133-0.537,0.261-0.809,0.384c-0.125,0.057-0.25,0.112-0.376,0.167
				c-0.06,0.026-0.121,0.052-0.181,0.078c-0.253,0.111,0.222-0.091,0.051-0.022c-0.894,0.36-1.816,0.689-2.674,1.13
				c-1.948,0.999-2.945,2.856-3.734,4.812c-0.833,2.067-1.435,4.23-2.039,6.372C158.056,229.342,160.95,230.136,161.474,228.278
				L161.474,228.278z"/>
		</g>
	</g>
	<g>
		<g>
			<path style="fill:#FFFFFF;" d="M157.085,227.879c0.008-4.995,0.026-10.926,1.915-15.45c0.129-0.308,0.498-1.038,0.787-1.481
				c0.062-0.095,0.129-0.186,0.192-0.28c0.204-0.305-0.189,0.211,0.038-0.054c0.14-0.163,0.277-0.325,0.428-0.478
				c0.124-0.126,0.257-0.241,0.386-0.361c0.063-0.058,0.133-0.108,0.197-0.165c0.244-0.216-0.238,0.177-0.067,0.05
				c0.302-0.225,0.616-0.443,0.904-0.686c0.686-0.577,1.062-1.312,1.108-2.212c0.1-1.93-2.901-1.924-3,0
				c-0.013,0.246,0.108-0.432-0.009-0.02c-0.013,0.047,0.18-0.376-0.008-0.035c0.232-0.421,0.187-0.169,0.006-0.042
				c-0.188,0.132-0.359,0.29-0.008,0.026c-0.601,0.451-1.219,0.886-1.737,1.434c-2.127,2.256-2.915,5.531-3.386,8.5
				c-0.59,3.72-0.74,7.492-0.746,11.254C154.081,229.81,157.081,229.813,157.085,227.879L157.085,227.879z"/>
		</g>
	</g>
	<g>
		<g>
			<path style="fill:#FFFFFF;" d="M152.934,228.278c0.481-3.043,0.966-6.089,1.592-9.106c0.341-1.644,0.709-3.304,1.319-4.873
				c0.088-0.225-0.099,0.193,0.074-0.17c0.053-0.111,0.104-0.222,0.161-0.331c0.109-0.212,0.233-0.413,0.356-0.618
				c0.052-0.087,0.116-0.167,0.173-0.251c0.026-0.038-0.212,0.233-0.004,0.009c0.145-0.156,0.282-0.315,0.437-0.462
				c0.133-0.127,0.277-0.242,0.415-0.363c0.233-0.204-0.06,0.042-0.018,0.01c0.089-0.067,0.178-0.134,0.268-0.199
				c0.379-0.273,0.761-0.541,1.137-0.819c1.333-0.984,2.559-2.07,3.689-3.282c1.315-1.411-0.802-3.537-2.121-2.121
				c-0.556,0.597-1.132,1.175-1.742,1.718c-0.246,0.219-0.497,0.431-0.751,0.64c-0.107,0.088-0.217,0.174-0.326,0.26
				c0.297-0.233-0.115,0.086-0.179,0.133c-0.798,0.586-1.644,1.128-2.379,1.795c-1.957,1.776-2.615,4.576-3.171,7.05
				c-0.755,3.364-1.286,6.779-1.824,10.183c-0.128,0.806,0.207,1.604,1.048,1.845C151.8,229.53,152.808,229.077,152.934,228.278
				L152.934,228.278z"/>
		</g>
	</g>
</g>
<g id="Ebene_1">
</g>
</svg>
