<?xml version="1.0" encoding="iso-8859-1"?>
<!-- Generator: Adobe Illustrator 16.0.0, SVG Export Plug-In . SVG Version: 6.00 Build 0)  -->
<!DOCTYPE svg PUBLIC "-//W3C//DTD SVG 1.1//EN" "http://www.w3.org/Graphics/SVG/1.1/DTD/svg11.dtd">
<svg version="1.1" xmlns="http://www.w3.org/2000/svg" xmlns:xlink="http://www.w3.org/1999/xlink" x="0px" y="0px" width="361px"
	 height="361px" viewBox="0 0 361 361" style="enable-background:new 0 0 361 361;" xml:space="preserve">
<g id="scene_x5F_drink_x5F_hot">
	<path style="fill:none;stroke:#FFFFFF;stroke-width:10;stroke-linecap:round;stroke-linejoin:round;stroke-miterlimit:10;" d="
		M272.996,272.707c0,0,2.404,13.639-31.641,13.639H120.144c-34.045,0-31.641-13.639-31.641-13.639H272.996z"/>
	<g>
		<path style="fill:none;stroke:#FFFFFF;stroke-width:10;stroke-miterlimit:10;" d="M245.996,215.58
			c0,23.896-19.371,43.268-43.266,43.268h-42.96c-23.896,0-43.267-19.371-43.267-43.268v-60.7c0-23.896,1.63-20.526,25.525-20.526
			h78.442c23.896,0,25.525-3.37,25.525,20.526V215.58z"/>
		<path style="fill:none;stroke:#FFFFFF;stroke-width:10;stroke-miterlimit:10;" d="M269.793,153.854
			c9.225,0,16.703,7.479,16.703,16.704v16.585c0,9.226-7.479,16.704-16.703,16.704h-13.434c-9.226,0-9.855-0.629-9.855-9.854
			v-30.285c0-9.225,0.63-9.854,9.855-9.854H269.793z"/>
	</g>
	<g>
		<g>
			<g>
				<path style="fill:#FFFFFF;" d="M179.544,75.839c1.895,2.446,4.407,7.631,3.654,11.845c-0.576,3.226-2.905,6.644-4.298,8.514
					c-5.397,7.25-6.539,15.034-2.762,23.27c1.879,4.099,7.911,0.539,6.044-3.533c-4.394-9.582,3.132-14.991,6.502-22.698
					c3.454-7.898,0.865-15.821-4.19-22.348C181.733,67.324,176.817,72.317,179.544,75.839L179.544,75.839z"/>
			</g>
		</g>
		<g>
			<g>
				<path style="fill:#FFFFFF;" d="M197.711,80.413c2.019,2.612,3.624,5.677,3.855,9.013c0.147,2.128-1.021,4.361-1.983,6.165
					c-0.216,0.404-2.271,3.363-1.426,2.273c-5.181,6.686-6.464,13.814-2.964,21.605c1.848,4.111,7.879,0.549,6.045-3.533
					c-3.664-8.154,2.55-12.696,5.548-19.142c3.165-6.806,1.446-14.119-3.03-19.914C201.038,73.362,194.951,76.84,197.711,80.413
					L197.711,80.413z"/>
			</g>
		</g>
		<g>
			<g>
				<path style="fill:#FFFFFF;" d="M159.253,80.413c2.018,2.612,3.623,5.677,3.854,9.013c0.147,2.128-1.021,4.361-1.983,6.165
					c-0.215,0.404-2.27,3.363-1.425,2.273c-5.181,6.686-6.464,13.813-2.965,21.605c1.846,4.112,7.877,0.549,6.044-3.533
					c-3.661-8.154,2.552-12.696,5.55-19.142c3.165-6.806,1.446-14.119-3.031-19.914C162.58,73.362,156.493,76.84,159.253,80.413
					L159.253,80.413z"/>
			</g>
		</g>
	</g>
</g>
<g id="Ebene_1">
</g>
</svg>
