<?xml version="1.0" encoding="iso-8859-1"?>
<!-- Generator: Adobe Illustrator 16.0.0, SVG Export Plug-In . SVG Version: 6.00 Build 0)  -->
<!DOCTYPE svg PUBLIC "-//W3C//DTD SVG 1.1 Tiny//EN" "http://www.w3.org/Graphics/SVG/1.1/DTD/svg11-tiny.dtd">
<svg version="1.1" baseProfile="tiny" id="scene_x5F_sauna"
	 xmlns="http://www.w3.org/2000/svg" xmlns:xlink="http://www.w3.org/1999/xlink" x="0px" y="0px" width="361px" height="361px"
	 viewBox="0 0 361 361" xml:space="preserve">
<circle fill="#FFFFFF" stroke="#FFFFFF" cx="242.405" cy="133.723" r="21.125"/>
<path fill="#FFFFFF" d="M248.119,178.241c-1.866-4.405-0.904-9.024,2.147-10.316l2.302-0.975c3.051-1.292,7.038,1.232,8.903,5.637
	l26.879,63.477c1.866,4.405,0.904,9.024-2.147,10.316l-2.302,0.975c-3.051,1.292-7.037-1.232-8.903-5.637L248.119,178.241z"/>
<g>
	<path fill="#FFFFFF" d="M147.115,229.2c-13.959,14.824-27.918,29.647-41.878,44.471c-9.924,10.539,6.021,26.422,15.998,15.827
		c13.959-14.824,27.918-29.647,41.878-44.471C173.037,234.488,157.092,218.605,147.115,229.2L147.115,229.2z"/>
</g>
<g>
	<path fill="#FFFFFF" d="M161.858,231.488c-7.014,14.701-14.028,29.402-21.042,44.103c-2.638,5.529-1.502,12.124,4.118,15.368
		c4.997,2.885,12.725,1.421,15.368-4.118c7.014-14.701,14.028-29.402,21.042-44.103c2.638-5.529,1.502-12.124-4.118-15.368
		C172.229,224.486,164.501,225.949,161.858,231.488L161.858,231.488z"/>
</g>
<g>
	<path fill="#FFFFFF" d="M242.264,272.378c-16.094,0-32.188,0-48.282,0c0.5,0.5,1,1,1.5,1.5c-1.17-9.324-2.339-18.648-3.509-27.972
		c-0.126-1.004-0.916-1.733-1.508-2.516c-1.834-2.422-3.667-4.845-5.501-7.267c-3.063-4.046-6.125-8.092-9.188-12.138
		c-0.299,0.735-0.598,1.469-0.896,2.204c6.646-2.235,13.14-4.833,19.908-6.703c4.568-1.263,5.488-0.989,9.644,0.581
		c9.491,3.585,18.981,7.171,28.473,10.757c1.491,0.563,2.981,1.126,4.473,1.69c0.417,0.158,0.835,0.315,1.253,0.473
		c0.93,0.352-0.352-0.052-0.277,0.194c1.473,4.834,2.075,9.866,2.169,14.892c0.161,8.6,0.197,17.203,0.241,25.804
		c0.01,1.934,3.01,1.935,3,0c-0.046-9.075-0.082-18.152-0.269-27.225c-0.106-5.176-1.069-10.397-2.576-15.343
		c-0.499-1.636-4.597-2.388-5.889-2.876c-9.933-3.753-19.867-7.506-29.8-11.258c-3.405-1.287-4.744-2.057-8.376-1.289
		c-7.827,1.656-15.217,4.869-22.771,7.41c-0.825,0.277-1.516,1.385-0.896,2.204c2.665,3.52,5.329,7.039,7.993,10.559
		c1.832,2.42,3.664,4.839,5.495,7.259c0.604,0.797,1.207,1.595,1.811,2.392c0.617,0.815,0.588,1,0.504,0.327
		c1.165,9.28,2.329,18.561,3.493,27.841c0.102,0.811,0.605,1.5,1.5,1.5c16.094,0,32.188,0,48.282,0
		C244.198,275.378,244.198,272.378,242.264,272.378z"/>
</g>
<path fill="#FFFFFF" d="M252.545,162.588c-9.543-5.51-23.457-2.5-28.687,7.687c-7.921,15.429-15.842,30.859-23.764,46.288
	c-0.039,0.076-0.068,0.154-0.105,0.23l39.483,14.917c6.919-13.479,13.839-26.957,20.759-40.435
	C265.456,181.1,262.82,168.52,252.545,162.588z"/>
<path fill="#FFFFFF" d="M173.127,224.744c-8.147,0.269-9.126,0.301-17.273,0.57c-13.173,0.435-13.328,22.94-0.147,22.505
	c11.587-0.383,23.174-0.766,34.761-1.148L173.127,224.744z"/>
<g>
	<path fill="#FFFFFF" d="M192.079,252.045c-1.332,0-2.665,0-3.997,0c-6.449,0-6.449,10,0,10c1.481,0,2.963,0,4.445,0
		L192.079,252.045z"/>
	<path fill="#FFFFFF" d="M284.727,252.045c-14.107,0-28.215,0-42.322,0v10c14.107,0,28.215,0,42.322,0
		C291.176,262.045,291.176,252.045,284.727,252.045z"/>
</g>
<rect x="196.482" y="240.545" fill="none" width="41.167" height="11.5"/>
<g>
	<g>
		<path fill="#FFFFFF" d="M72.315,218.545c21.5,0,43,0,64.5,0c6.449,0,6.449-10,0-10c-21.5,0-43,0-64.5,0
			C65.866,208.545,65.866,218.545,72.315,218.545L72.315,218.545z"/>
	</g>
	<g id="Dampf">
		<g>
			<path fill="#FFFFFF" d="M104.69,191.476c1.5-4.667,3-9.333,4.5-14c1.385-4.31-5.375-6.141-6.75-1.861c-1.5,4.667-3,9.333-4.5,14
				C96.555,193.924,103.314,195.755,104.69,191.476L104.69,191.476z"/>
		</g>
		<g>
			<path fill="#FFFFFF" d="M108.69,173.114c-1.333-5.833-2.667-11.667-4-17.5c-1.006-4.4-7.754-2.534-6.75,1.861
				c1.333,5.833,2.667,11.667,4,17.5C102.946,179.375,109.694,177.509,108.69,173.114L108.69,173.114z"/>
		</g>
		<g>
			<path fill="#FFFFFF" d="M104.69,157.476c1.5-4.667,3-9.333,4.5-14c1.385-4.31-5.375-6.141-6.75-1.861c-1.5,4.667-3,9.333-4.5,14
				C96.555,159.924,103.314,161.755,104.69,157.476L104.69,157.476z"/>
		</g>
		<g>
			<path fill="#FFFFFF" d="M108.69,139.114c-1.333-5.833-2.667-11.667-4-17.5c-1.006-4.4-7.754-2.534-6.75,1.861
				c1.333,5.833,2.667,11.667,4,17.5C102.946,145.375,109.694,143.509,108.69,139.114L108.69,139.114z"/>
		</g>
		<g>
			<path fill="#FFFFFF" d="M104.69,123.476c1.5-4.667,3-9.333,4.5-14c1.385-4.31-5.375-6.141-6.75-1.861c-1.5,4.667-3,9.333-4.5,14
				C96.555,125.924,103.314,127.755,104.69,123.476L104.69,123.476z"/>
		</g>
		<g>
			<path fill="#FFFFFF" d="M129.19,199.614c-1.5-4.667-3-9.333-4.5-14c-1.375-4.279-8.135-2.449-6.75,1.861
				c1.5,4.667,3,9.333,4.5,14C123.815,205.755,130.575,203.924,129.19,199.614L129.19,199.614z"/>
		</g>
		<g>
			<path fill="#FFFFFF" d="M125.19,184.976c1.333-5.833,2.667-11.667,4-17.5c1.004-4.395-5.744-6.261-6.75-1.861
				c-1.333,5.833-2.667,11.667-4,17.5C117.436,187.509,124.184,189.375,125.19,184.976L125.19,184.976z"/>
		</g>
		<g>
			<path fill="#FFFFFF" d="M129.19,165.614c-1.5-4.667-3-9.333-4.5-14c-1.375-4.279-8.135-2.449-6.75,1.861
				c1.5,4.667,3,9.333,4.5,14C123.815,171.755,130.575,169.924,129.19,165.614L129.19,165.614z"/>
		</g>
		<g>
			<path fill="#FFFFFF" d="M125.19,150.976c1.333-5.833,2.667-11.667,4-17.5c1.004-4.395-5.744-6.261-6.75-1.861
				c-1.333,5.833-2.667,11.667-4,17.5C117.436,153.509,124.184,155.375,125.19,150.976L125.19,150.976z"/>
		</g>
		<g>
			<path fill="#FFFFFF" d="M129.19,131.614c-1.5-4.667-3-9.333-4.5-14c-1.375-4.279-8.135-2.449-6.75,1.861
				c1.5,4.667,3,9.333,4.5,14C123.815,137.755,130.575,135.924,129.19,131.614L129.19,131.614z"/>
		</g>
		<g>
			<path fill="#FFFFFF" d="M85.69,201.779c1.5-4.667,3-9.333,4.5-14c1.385-4.31-5.375-6.141-6.75-1.861c-1.5,4.667-3,9.333-4.5,14
				C77.555,204.228,84.314,206.058,85.69,201.779L85.69,201.779z"/>
		</g>
		<g>
			<path fill="#FFFFFF" d="M89.69,183.417c-1.333-5.833-2.667-11.667-4-17.5c-1.006-4.4-7.754-2.534-6.75,1.861
				c1.333,5.833,2.667,11.667,4,17.5C83.946,189.679,90.694,187.813,89.69,183.417L89.69,183.417z"/>
		</g>
		<g>
			<path fill="#FFFFFF" d="M85.69,167.779c1.5-4.667,3-9.333,4.5-14c1.385-4.31-5.375-6.141-6.75-1.861c-1.5,4.667-3,9.333-4.5,14
				C77.555,170.228,84.314,172.058,85.69,167.779L85.69,167.779z"/>
		</g>
		<g>
			<path fill="#FFFFFF" d="M89.69,149.417c-1.333-5.833-2.667-11.667-4-17.5c-1.006-4.4-7.754-2.534-6.75,1.861
				c1.333,5.833,2.667,11.667,4,17.5C83.946,155.679,90.694,153.813,89.69,149.417L89.69,149.417z"/>
		</g>
		<g>
			<path fill="#FFFFFF" d="M85.69,133.779c1.5-4.667,3-9.333,4.5-14c1.385-4.31-5.375-6.141-6.75-1.861c-1.5,4.667-3,9.333-4.5,14
				C77.555,136.228,84.314,138.058,85.69,133.779L85.69,133.779z"/>
		</g>
	</g>
</g>
</svg>
