<?xml version="1.0" encoding="iso-8859-1"?>
<!-- Generator: Adobe Illustrator 16.0.0, SVG Export Plug-In . SVG Version: 6.00 Build 0)  -->
<!DOCTYPE svg PUBLIC "-//W3C//DTD SVG 1.1//EN" "http://www.w3.org/Graphics/SVG/1.1/DTD/svg11.dtd">
<svg version="1.1" xmlns="http://www.w3.org/2000/svg" xmlns:xlink="http://www.w3.org/1999/xlink" x="0px" y="0px" width="361px"
	 height="361px" viewBox="0 0 361 361" style="enable-background:new 0 0 361 361;" xml:space="preserve">
<g id="scene_x5F_swimming">
	<g>
		<g>
			<path style="fill:#FFFFFF;" d="M88.162,213.988c5.833-1.333,11.667-2.667,17.5-4c6.286-1.437,3.62-11.078-2.658-9.643
				c-5.833,1.333-11.667,2.667-17.5,4C79.218,205.782,81.884,215.424,88.162,213.988L88.162,213.988z"/>
		</g>
	</g>
	<g>
		<g>
			<path style="fill:#FFFFFF;" d="M103.004,209.988c4.667,1.5,9.333,3,14,4.5c6.157,1.979,8.772-7.678,2.658-9.643
				c-4.667-1.5-9.333-3-14-4.5C99.505,198.366,96.89,208.023,103.004,209.988L103.004,209.988z"/>
		</g>
	</g>
	<g>
		<g>
			<path style="fill:#FFFFFF;" d="M129.162,214.988c5.833-1.333,11.667-2.667,17.5-4c6.286-1.437,3.62-11.078-2.658-9.643
				c-5.833,1.333-11.667,2.667-17.5,4C120.218,206.782,122.884,216.424,129.162,214.988L129.162,214.988z"/>
		</g>
	</g>
	<g>
		<g>
			<path style="fill:#FFFFFF;" d="M144.004,210.988c4.667,1.5,9.333,3,14,4.5c6.157,1.979,8.772-7.678,2.658-9.643
				c-4.667-1.5-9.333-3-14-4.5C140.505,199.366,137.89,209.023,144.004,210.988L144.004,210.988z"/>
		</g>
	</g>
	<g>
		<g>
			<path style="fill:#FFFFFF;" d="M170.162,215.988c5.833-1.333,11.667-2.667,17.5-4c6.286-1.437,3.62-11.078-2.658-9.643
				c-5.833,1.333-11.667,2.667-17.5,4C161.218,207.782,163.884,217.424,170.162,215.988L170.162,215.988z"/>
		</g>
	</g>
	<g>
		<g>
			<path style="fill:#FFFFFF;" d="M185.004,211.988c4.667,1.5,9.333,3,14,4.5c6.157,1.979,8.771-7.678,2.658-9.643
				c-4.667-1.5-9.333-3-14-4.5C181.505,200.366,178.89,210.023,185.004,211.988L185.004,211.988z"/>
		</g>
	</g>
	<g>
		<g>
			<path style="fill:#FFFFFF;" d="M211.162,215.988c5.833-1.333,11.667-2.667,17.5-4c6.286-1.437,3.62-11.078-2.658-9.643
				c-5.833,1.333-11.667,2.667-17.5,4C202.218,207.782,204.884,217.424,211.162,215.988L211.162,215.988z"/>
		</g>
	</g>
	<g>
		<g>
			<path style="fill:#FFFFFF;" d="M226.004,211.988c4.667,1.5,9.333,3,14,4.5c6.157,1.979,8.771-7.678,2.658-9.643
				c-4.667-1.5-9.333-3-14-4.5C222.505,200.366,219.891,210.023,226.004,211.988L226.004,211.988z"/>
		</g>
	</g>
	<g>
		<g>
			<path style="fill:#FFFFFF;" d="M251.162,215.988c5.833-1.333,11.667-2.667,17.5-4c6.286-1.437,3.62-11.078-2.658-9.643
				c-5.833,1.333-11.667,2.667-17.5,4C242.218,207.782,244.884,217.424,251.162,215.988L251.162,215.988z"/>
		</g>
	</g>
	<g>
		<g>
			<path style="fill:#FFFFFF;" d="M266.004,211.988c4.667,1.5,9.333,3,14,4.5c6.157,1.979,8.771-7.678,2.658-9.643
				c-4.667-1.5-9.333-3-14-4.5C262.505,200.366,259.891,210.023,266.004,211.988L266.004,211.988z"/>
		</g>
	</g>
	<g>
		<g>
			<path style="fill:#FFFFFF;" d="M76.162,233.988c5.833-1.333,11.667-2.667,17.5-4c6.286-1.437,3.62-11.078-2.658-9.643
				c-5.833,1.333-11.667,2.667-17.5,4C67.218,225.782,69.884,235.424,76.162,233.988L76.162,233.988z"/>
		</g>
	</g>
	<g>
		<g>
			<path style="fill:#FFFFFF;" d="M91.004,229.988c4.667,1.5,9.333,3,14,4.5c6.157,1.979,8.772-7.678,2.658-9.643
				c-4.667-1.5-9.333-3-14-4.5C87.505,218.366,84.89,228.023,91.004,229.988L91.004,229.988z"/>
		</g>
	</g>
	<g>
		<g>
			<path style="fill:#FFFFFF;" d="M117.162,234.988c5.833-1.333,11.667-2.667,17.5-4c6.286-1.437,3.62-11.078-2.658-9.643
				c-5.833,1.333-11.667,2.667-17.5,4C108.218,226.782,110.884,236.424,117.162,234.988L117.162,234.988z"/>
		</g>
	</g>
	<g>
		<g>
			<path style="fill:#FFFFFF;" d="M132.004,230.988c4.667,1.5,9.333,3,14,4.5c6.157,1.979,8.772-7.678,2.658-9.643
				c-4.667-1.5-9.333-3-14-4.5C128.505,219.366,125.89,229.023,132.004,230.988L132.004,230.988z"/>
		</g>
	</g>
	<g>
		<g>
			<path style="fill:#FFFFFF;" d="M158.162,235.988c5.833-1.333,11.667-2.667,17.5-4c6.286-1.437,3.62-11.078-2.658-9.643
				c-5.833,1.333-11.667,2.667-17.5,4C149.218,227.782,151.884,237.424,158.162,235.988L158.162,235.988z"/>
		</g>
	</g>
	<g>
		<g>
			<path style="fill:#FFFFFF;" d="M173.004,231.988c4.667,1.5,9.333,3,14,4.5c6.157,1.979,8.771-7.678,2.658-9.643
				c-4.667-1.5-9.333-3-14-4.5C169.505,220.366,166.89,230.023,173.004,231.988L173.004,231.988z"/>
		</g>
	</g>
	<g>
		<g>
			<path style="fill:#FFFFFF;" d="M199.162,235.988c5.833-1.333,11.667-2.667,17.5-4c6.286-1.437,3.62-11.078-2.658-9.643
				c-5.833,1.333-11.667,2.667-17.5,4C190.218,227.782,192.884,237.424,199.162,235.988L199.162,235.988z"/>
		</g>
	</g>
	<g>
		<g>
			<path style="fill:#FFFFFF;" d="M214.004,231.988c4.667,1.5,9.333,3,14,4.5c6.157,1.979,8.771-7.678,2.658-9.643
				c-4.667-1.5-9.333-3-14-4.5C210.505,220.366,207.891,230.023,214.004,231.988L214.004,231.988z"/>
		</g>
	</g>
	<g>
		<g>
			<path style="fill:#FFFFFF;" d="M239.162,235.988c5.833-1.333,11.667-2.667,17.5-4c6.286-1.437,3.62-11.078-2.658-9.643
				c-5.833,1.333-11.667,2.667-17.5,4C230.218,227.782,232.884,237.424,239.162,235.988L239.162,235.988z"/>
		</g>
	</g>
	<g>
		<g>
			<path style="fill:#FFFFFF;" d="M254.004,231.988c4.667,1.5,9.333,3,14,4.5c6.157,1.979,8.771-7.678,2.658-9.643
				c-4.667-1.5-9.333-3-14-4.5C250.505,220.366,247.891,230.023,254.004,231.988L254.004,231.988z"/>
		</g>
	</g>
	<g>
		<polygon style="fill:#FFFFFF;" points="138.5,188.667 177.667,156.667 216.833,188.667 		"/>
		<g>
			<path style="fill:#FFFFFF;" d="M142.036,192.202c13.055-10.666,26.111-21.333,39.167-32c-2.357,0-4.714,0-7.071,0
				c13.056,10.667,26.111,21.333,39.167,32c1.178-2.845,2.356-5.69,3.535-8.535c-26.111,0-52.222,0-78.333,0c-6.449,0-6.449,10,0,10
				c26.111,0,52.222,0,78.333,0c4.045,0,7.046-5.667,3.535-8.535c-13.055-10.667-26.11-21.333-39.166-32
				c-2.278-1.861-4.793-1.861-7.071,0c-13.055,10.667-26.111,21.333-39.167,32C129.967,189.214,137.087,196.246,142.036,192.202z"/>
		</g>
	</g>
	<circle style="fill:#FFFFFF;stroke:#FFFFFF;" cx="213.958" cy="150.542" r="21.125"/>
	<path style="fill:#FFFFFF;" d="M163.078,137.01c3.97-1.681,8.236-0.57,9.528,2.481l0.975,2.302
		c1.292,3.051-0.879,6.888-4.849,8.569l-57.204,24.223c-3.97,1.681-8.236,0.57-9.528-2.481l-0.975-2.302
		c-1.292-3.051,0.879-6.888,4.849-8.569L163.078,137.01z"/>
	<path style="fill:#FFFFFF;" d="M160.539,148.248c-0.509-0.938,1.437-2.982,4.348-4.564l2.196-1.194
		c2.911-1.583,5.685-2.105,6.194-1.167l7.349,13.515c0.51,0.938-1.437,2.982-4.348,4.564l-2.196,1.194
		c-2.911,1.583-5.685,2.105-6.194,1.167L160.539,148.248z"/>
</g>
<g id="Ebene_1">
</g>
</svg>
