<?xml version="1.0" encoding="iso-8859-1"?>
<!-- Generator: Adobe Illustrator 16.0.0, SVG Export Plug-In . SVG Version: 6.00 Build 0)  -->
<!DOCTYPE svg PUBLIC "-//W3C//DTD SVG 1.1//EN" "http://www.w3.org/Graphics/SVG/1.1/DTD/svg11.dtd">
<svg version="1.1" xmlns="http://www.w3.org/2000/svg" xmlns:xlink="http://www.w3.org/1999/xlink" x="0px" y="0px" width="361px"
	 height="361px" viewBox="0 0 361 361" style="enable-background:new 0 0 361 361;" xml:space="preserve">
<g id="scene_x5F_summerhouse">
	<path style="fill:#FFFFFF;" d="M114.333,287.297c0,2.413-1.42,4.37-3.172,4.37h-8.989c-1.752,0-3.172-1.957-3.172-4.37v-81.26
		c0-2.413,1.42-4.37,3.172-4.37h8.989c1.752,0,3.172,1.957,3.172,4.37V287.297z"/>
	<g>
		<g>
			<path style="fill:#FFFFFF;" d="M113.035,241.702c7.611-9.277,15.222-18.555,22.833-27.833c4.054-4.941-2.978-12.06-7.071-7.07
				c-7.611,9.277-15.222,18.555-22.833,27.833C101.91,239.573,108.942,246.691,113.035,241.702L113.035,241.702z"/>
		</g>
	</g>
	<path style="fill:#FFFFFF;" d="M162.972,192.25c0,2.578-1.991,4.667-4.449,4.667H98.657c-2.458,0-4.449-2.089-4.449-4.667v-30.917
		c0-2.577,1.991-4.667,4.449-4.667h59.866c2.458,0,4.449,2.089,4.449,4.667V192.25z"/>
	<path style="fill:#FFFFFF;" d="M155.244,169.515c0,2.155-1.747,3.902-3.901,3.902h-48.608c-2.155,0-3.902-1.747-3.902-3.902
		v-21.946c0-2.155,1.747-3.902,3.902-3.902h48.608c2.154,0,3.901,1.747,3.901,3.902V169.515z"/>
	<path style="fill:#FFFFFF;" d="M127.711,164.616c0,1.438-1.547,2.605-3.456,2.605H91.288c-1.908,0-3.455-1.167-3.455-2.605v-31.593
		c0-1.438,1.547-2.605,3.455-2.605h32.968c1.908,0,3.456,1.167,3.456,2.605V164.616z"/>
	<path style="fill:#FFFFFF;" d="M144.083,153.667c0,3.313-2.687,6-6,6h-9.875c-3.313,0-6-2.687-6-6v-19.375c0-3.313,2.687-6,6-6
		h9.875c3.313,0,6,2.687,6,6V153.667z"/>
	<path style="fill:#FFFFFF;" d="M108.958,195.417c0,3.313-2.687,6-6,6h-15.75c-3.313,0-6-2.687-6-6v-15.75c0-3.313,2.687-6,6-6
		h15.75c3.313,0,6,2.687,6,6V195.417z"/>
	<path style="fill:#FFFFFF;" d="M101.583,163.667c0,3.313-3.471,6-7.753,6H80.586c-4.282,0-7.753-2.687-7.753-6v-22.75
		c0-3.313,3.471-6,7.753-6H93.83c4.282,0,7.753,2.687,7.753,6V163.667z"/>
	<path style="fill:#FFFFFF;" d="M91.833,191.667c0,3.313-2.687,6-6,6h-10c-3.313,0-6-2.687-6-6v-40.333c0-3.313,2.687-6,6-6h10
		c3.313,0,6,2.687,6,6V191.667z"/>
	<path style="fill:#FFFFFF;" d="M155.167,206c0,3.314-2.687,6-6,6H78.833c-3.313,0-6-2.686-6-6v-8c0-3.313,2.687-6,6-6h70.333
		c3.313,0,6,2.688,6,6V206z"/>
	<path style="fill:#FFFFFF;" d="M108.083,211.667c0,2.624-2.126,4.75-4.75,4.75h-12c-2.624,0-4.75-2.126-4.75-4.75l0,0
		c0-2.624,2.126-4.75,4.75-4.75h12C105.957,206.917,108.083,209.043,108.083,211.667L108.083,211.667z"/>
	<g id="Vogel">
		<g>
			<g>
				<path style="fill:#FFFFFF;" d="M256.068,121.328c3.133-3.946,6.266-7.892,9.398-11.837c1.693-2.132,2.091-4.98,0-7.071
					c-1.761-1.761-5.373-2.138-7.07,0c-3.133,3.946-6.266,7.892-9.398,11.837c-1.693,2.132-2.091,4.98,0,7.071
					C250.759,123.089,254.371,123.465,256.068,121.328L256.068,121.328z"/>
			</g>
		</g>
		<g>
			<g>
				<path style="fill:#FFFFFF;" d="M262.323,109.611c5.013-0.507,10.025-1.015,15.038-1.522c2.711-0.274,5-2.067,5-5
					c0-2.518-2.283-5.275-5-5c-5.013,0.507-10.025,1.015-15.038,1.522c-2.711,0.274-5,2.067-5,5
					C257.323,107.128,259.606,109.886,262.323,109.611L262.323,109.611z"/>
			</g>
		</g>
		<g>
			<g>
				<path style="fill:#FFFFFF;" d="M253.261,113.425c-4.906-1.145-9.813-2.289-14.72-3.434c-6.274-1.464-8.938,8.178-2.658,9.643
					c4.906,1.145,9.813,2.289,14.72,3.434C256.877,124.531,259.54,114.889,253.261,113.425L253.261,113.425z"/>
			</g>
		</g>
		<g>
			<g>
				<path style="fill:#FFFFFF;" d="M232.95,109.941c-4.26,2.691-8.519,5.382-12.778,8.073c-5.435,3.434-0.422,12.09,5.047,8.635
					c4.26-2.691,8.52-5.382,12.778-8.073C243.432,115.143,238.419,106.486,232.95,109.941L232.95,109.941z"/>
			</g>
		</g>
	</g>
	<g>
		<polygon style="fill:#FFFFFF;" points="214.284,208.967 194.107,163.966 286.828,208.967 		"/>
		<g>
			<path style="fill:#FFFFFF;" d="M218.602,206.443c-6.726-15-13.451-30-20.177-45c-2.28,2.28-4.561,4.561-6.841,6.841
				c30.906,15,61.813,30,92.721,45c0.841-3.105,1.683-6.212,2.523-9.317c-24.182,0-48.362,0-72.544,0c-6.448,0-6.448,10,0,10
				c24.182,0,48.362,0,72.544,0c4.744,0,7.137-7.078,2.523-9.317c-30.906-15-61.813-30-92.721-45
				c-4.71-2.286-8.903,2.241-6.841,6.841c6.726,15,13.451,30,20.177,45C212.602,217.366,221.217,212.275,218.602,206.443z"/>
		</g>
	</g>
	<g>
		<g>
			<path style="fill:#FFFFFF;" d="M277.053,281.368c-0.599,4.104-8.698,3.265-12.126,3.265c-5.653,0-11.307,0-16.96,0
				c-15.967,0-31.935,0-47.901,0c-9.342,0-18.684,0-28.026,0c-1.762,0-7.112-0.305-7.112-2.955c0-1.701,0-3.401,0-5.103
				c0-6.589,0-13.178,0-19.768c0-14.454,0-28.909,0-43.364c0-1.403,0-2.807,0-4.21c0-2.478,5.711-2.767,7.271-2.767
				c3.237,0,6.475,0,9.712,0c27.972,0,55.943,0,83.914,0c4.021,0,11.103-0.855,11.103,4.355c0,7.822,0,15.646,0,23.469
				c0,16.002,0,32.005,0,48.008c0,4.514,7,4.514,7,0c0-23.825,0-47.651,0-71.477c0-11.267-11.88-11.355-20.497-11.355
				c-14.002,0-28.003,0-42.004,0c-14.155,0-28.311,0-42.465,0c-8.444,0-21.034-0.289-21.034,11.015c0,23.934,0,47.866,0,71.8
				c0,10.615,15.384,9.352,22.751,9.352c12.917,0,25.833,0,38.75,0c13.291,0,26.582,0,39.873,0c7.631,0,23.006,1.828,24.5-8.403
				C284.447,278.815,277.703,276.915,277.053,281.368z"/>
		</g>
	</g>
	<g>
		<polygon style="fill:#FFFFFF;" points="213.668,208.967 193.846,163.966 141.124,208.967 		"/>
		<g>
			<path style="fill:#FFFFFF;" d="M217.985,206.443c-6.607-15-13.215-30-19.822-45c-1.395-3.165-5.653-2.89-7.853-1.012
				c-17.574,15-35.148,30-52.722,45.001c-3.422,2.921-0.575,8.535,3.536,8.535c24.181,0,48.362,0,72.544,0c6.448,0,6.448-10,0-10
				c-24.182,0-48.363,0-72.544,0c1.179,2.845,2.357,5.69,3.536,8.535c17.574-15,35.147-30,52.721-45
				c-2.617-0.337-5.235-0.675-7.853-1.012c6.607,15,13.215,30,19.822,45C211.945,217.381,220.56,212.286,217.985,206.443z"/>
		</g>
	</g>
	<g id="Fenster">
		<g>
			<g>
				<path style="fill:#FFFFFF;" d="M264.981,245.844c-0.699,2.749-12.253,1.261-14.069,1.261c-6.037,0-12.074,0-18.111,0
					c-1.072,0-3.734,0.353-3.734-1.323c0-2.474,0-4.946,0-7.419c0-5.172,0-10.343,0-15.514c0-1.857,29.226-0.915,32.127-0.915
					c1.072,0,3.734-0.353,3.734,1.322c0,2.474,0,4.946,0,7.419c0,5.189,0,10.378,0,15.567c0,1.935,3,1.935,3,0
					c0-6.072,0-12.146,0-18.218c0-4.16,0.692-9.091-5.074-9.091c-6.591,0-13.182,0-19.771,0c-4.473,0-11.266-1.315-15.401,0.896
					c-1.723,0.921-1.614,3.064-1.614,4.702c0,3.653,0,7.308,0,10.962c0,2.914-1.89,13.601,2.919,14.371
					c5.195,0.832,10.8,0.239,16.041,0.239c6.091,0,12.181,0,18.271,0c2.329,0,4.016-1.26,4.576-3.464
					C268.352,244.765,265.458,243.97,264.981,245.844z"/>
			</g>
		</g>
		<g>
			<g>
				<path style="fill:#FFFFFF;" d="M245.496,220.434c0,9.391,0,18.78,0,28.171c0,1.935,3,1.935,3,0c0-9.391,0-18.78,0-28.171
					C248.496,218.499,245.496,218.499,245.496,220.434L245.496,220.434z"/>
			</g>
		</g>
		<g>
			<g>
				<path style="fill:#FFFFFF;" d="M227.566,236.02c12.954,0,25.907,0,38.861,0c1.935,0,1.935-3,0-3c-12.954,0-25.907,0-38.861,0
					C225.632,233.02,225.632,236.02,227.566,236.02L227.566,236.02z"/>
			</g>
		</g>
	</g>
	<g id="Tuer">
		<g>
			<g>
				<path style="fill:#FFFFFF;" d="M200.642,283.483c-0.569,2.819-5.884,1.733-7.771,1.733c-4.027,0-8.056,0-12.083,0
					c-1.36,0-5.2,0.683-5.2-1.677c0-1.74,0-3.479,0-5.22c0-14.739,0-29.479,0-44.219c0-1.767-1.372-10.997,1.825-10.997
					c6.667,0,13.333,0,20,0c4.648,0,3.176,5.442,3.176,8.837c0,7.406,0,14.813,0,22.219c0,9.907,0,19.814,0,29.722
					c0,1.935,3,1.935,3,0c0-11.552,0-23.103,0-34.654c0-6.795,0-13.59,0-20.385c0-3.313,0.589-8.738-4.335-8.738
					c-6.155,0-12.311,0-18.465,0c-3.911,0-8.2-0.054-8.2,5.093c0,13.215,0,26.43,0,39.645c0,5.226,0,10.451,0,15.678
					c0,3.34-0.211,6.806,3.936,7.644c4.773,0.964,10.581,0.054,15.432,0.054c4.046,0,10.507,1.375,11.579-3.937
					C203.916,282.392,201.024,281.588,200.642,283.483z"/>
			</g>
		</g>
		<g>
			<g>
				<path style="fill:#FFFFFF;" d="M195.566,252.217c1.11,0,2.222,0,3.332,0c1.935,0,1.935-3,0-3c-1.11,0-2.222,0-3.332,0
					C193.632,249.217,193.632,252.217,195.566,252.217L195.566,252.217z"/>
			</g>
		</g>
		<g>
			<g>
				<g>
					<path style="fill:#FFFFFF;" d="M196.484,241.487c-0.375,1.362-14.26,0.382-16.32,0.382c-0.865,0-0.42-12.865-0.42-14.664
						c0-0.071,14.959-0.036,16.49-0.036c0.396,0,0.196,13.149,0.196,14.717c0,1.935,3,1.935,3,0c0-3.562,0-7.123,0-10.686
						c0-2.446,0.707-7.031-3.057-7.031c-3.782,0-7.564,0-11.348,0c-2.86,0-7.25-0.976-8.229,2.586
						c-0.835,3.037-0.054,7.254-0.054,10.38c0,2.451-0.901,7.734,3.008,7.734c3.798,0,7.597,0,11.395,0
						c2.86,0,7.251,0.976,8.229-2.585C199.891,240.416,196.996,239.624,196.484,241.487z"/>
				</g>
			</g>
			<g>
				<g>
					<path style="fill:#FFFFFF;" d="M186.588,225.669c0,5.9,0,11.8,0,17.7c0,1.935,3,1.935,3,0c0-5.9,0-11.8,0-17.7
						C189.588,223.734,186.588,223.734,186.588,225.669L186.588,225.669z"/>
				</g>
			</g>
			<g>
				<g>
					<path style="fill:#FFFFFF;" d="M178.244,236.02c6.563,0,13.124,0,19.687,0c1.935,0,1.935-3,0-3c-6.563,0-13.124,0-19.687,0
						C176.31,233.02,176.31,236.02,178.244,236.02L178.244,236.02z"/>
				</g>
			</g>
		</g>
	</g>
	<g>
		<g>
			<path style="fill:#FFFFFF;" d="M90.176,290.086c0.022-7.596-0.307-15.865,2.149-23.168c1.249-3.713,4.352-5.884,7.204-8.313
				c1.475-1.256-0.657-3.367-2.121-2.121c-2.96,2.52-5.959,4.772-7.511,8.467c-3.213,7.654-2.697,17.041-2.721,25.135
				C87.17,292.021,90.17,292.021,90.176,290.086L90.176,290.086z"/>
		</g>
	</g>
	<g>
		<g>
			<path style="fill:#FFFFFF;" d="M84.219,290.086c0.04-7.536-0.21-16.394,3.811-23.098c2.419-4.034,7.304-5.902,11.196-8.148
				c1.675-0.966,0.165-3.559-1.514-2.59c-4.34,2.504-8.849,4.513-11.894,8.654c-4.957,6.743-4.558,17.329-4.599,25.182
				C81.208,292.021,84.208,292.02,84.219,290.086L84.219,290.086z"/>
		</g>
	</g>
	<g>
		<g>
			<path style="fill:#FFFFFF;" d="M100.302,290.086c0.049-6.599-0.401-16.324,4.525-21.6c1.479-1.584,3.773-1.983,4.037-4.438
				c0.207-1.923-2.795-1.902-3,0c-0.014,0.132-3.935,3.174-4.574,4.094c-4.139,5.953-3.938,15.099-3.988,21.944
				C97.288,292.021,100.288,292.02,100.302,290.086L100.302,290.086z"/>
		</g>
	</g>
	<g>
		<g>
			<path style="fill:#FFFFFF;" d="M94.291,290.484c1.042-5.547,1.42-14.121,5.206-18.737c2.219-2.706,6.288-4.275,8.929-6.639
				c1.444-1.293-0.685-3.407-2.121-2.121c-2.806,2.511-6.811,4.057-9.2,6.969c-4.108,5.01-4.575,13.71-5.706,19.731
				C91.043,291.578,93.934,292.385,94.291,290.484L94.291,290.484z"/>
		</g>
	</g>
	<g>
		<g>
			<path style="fill:#FFFFFF;" d="M79.793,290.197c-0.04-5.097-0.108-10.867-2.662-15.453c-0.558-1.001-1.361-1.87-2.276-2.551
				c-0.647-0.48-1.229-1.218-1.152-0.518c-0.21-1.901-3.212-1.922-3,0c0.199,1.805,1.552,2.173,2.756,3.229
				c3.762,3.3,3.3,10.904,3.334,15.293C76.808,292.131,79.808,292.133,79.793,290.197L79.793,290.197z"/>
		</g>
	</g>
	<g>
		<g>
			<path style="fill:#FFFFFF;" d="M83.977,289.799c-0.823-4.381-1.216-10.155-3.93-13.918c-1.64-2.272-4.714-3.416-6.784-5.266
				c-1.438-1.285-3.566,0.83-2.121,2.121c1.893,1.691,4.327,2.767,6.136,4.49c0.954,0.908,1.321,2.383,1.687,3.595
				c0.96,3.184,1.506,6.512,2.12,9.774C81.441,292.496,84.333,291.689,83.977,289.799L83.977,289.799z"/>
		</g>
	</g>
	<g>
		<g>
			<path style="fill:#FFFFFF;" d="M132.652,290.197c0.047-7.56-0.078-16.376,4.069-23.037c2.11-3.391,5.992-5.197,8.972-7.693
				c1.485-1.243-0.649-3.354-2.121-2.121c-3.296,2.761-6.954,4.666-9.441,8.3c-4.63,6.765-4.43,16.778-4.479,24.552
				C129.64,292.133,132.64,292.131,132.652,290.197L132.652,290.197z"/>
		</g>
	</g>
	<g>
		<g>
			<path style="fill:#FFFFFF;" d="M126.695,290.197c0.066-7.716,0.262-16.978,5.863-22.976c3.381-3.621,8.623-5.12,12.832-7.521
				c1.68-0.958,0.169-3.55-1.514-2.59c-4.771,2.721-10.11,4.424-13.947,8.532c-5.891,6.309-6.166,16.485-6.234,24.554
				C123.678,292.133,126.678,292.131,126.695,290.197L126.695,290.197z"/>
		</g>
	</g>
	<g>
		<g>
			<path style="fill:#FFFFFF;" d="M140.458,289.949c0.033-4.581-0.399-11.54,2.875-15.322c1.091-1.261,2.609-1.587,2.801-3.473
				c0.196-1.924-2.806-1.905-3,0c0.056-0.554-2.553,2.101-2.977,2.768c-2.832,4.458-2.663,11.006-2.698,16.027
				C137.444,291.885,140.444,291.883,140.458,289.949L140.458,289.949z"/>
		</g>
	</g>
	<g>
		<g>
			<path style="fill:#FFFFFF;" d="M136.455,290.348c0.718-4.16,0.955-9.754,3.371-13.4c1.249-1.884,4.229-3.138,5.868-4.732
				c1.388-1.352-0.735-3.471-2.121-2.121c-1.872,1.821-4.577,3.003-6.148,5.089c-2.841,3.773-3.097,9.936-3.862,14.368
				C133.236,291.442,136.126,292.252,136.455,290.348L136.455,290.348z"/>
		</g>
	</g>
	<g>
		<g>
			<path style="fill:#FFFFFF;" d="M120.662,290.059c-0.023-6.194,1.276-16.395-4.54-20.455c-1.591-1.111-3.088,1.491-1.515,2.59
				c0.888,0.62,1.206,0.581,1.647,1.779c1.808,4.905,1.388,10.975,1.407,16.086C117.669,291.993,120.669,291.993,120.662,290.059
				L120.662,290.059z"/>
		</g>
	</g>
	<g>
		<g>
			<path style="fill:#FFFFFF;" d="M126.641,289.66c-0.786-4.545-1.104-10.401-3.748-14.384c-1.517-2.285-4.518-3.544-6.468-5.438
				c-1.388-1.348-3.511,0.771-2.121,2.121c1.789,1.738,4.133,2.878,5.84,4.646c0.921,0.954,1.246,2.515,1.586,3.741
				c0.917,3.305,1.434,6.737,2.018,10.111C124.078,292.361,126.968,291.552,126.641,289.66L126.641,289.66z"/>
		</g>
	</g>
</g>
<g id="Ebene_1">
</g>
</svg>
