<?xml version="1.0" encoding="iso-8859-1"?>
<!-- Generator: Adobe Illustrator 16.0.0, SVG Export Plug-In . SVG Version: 6.00 Build 0)  -->
<!DOCTYPE svg PUBLIC "-//W3C//DTD SVG 1.1 Tiny//EN" "http://www.w3.org/Graphics/SVG/1.1/DTD/svg11-tiny.dtd">
<svg version="1.1" baseProfile="tiny" id="scene_x5F_toilet"
	 xmlns="http://www.w3.org/2000/svg" xmlns:xlink="http://www.w3.org/1999/xlink" x="0px" y="0px" width="361px" height="361px"
	 viewBox="0 0 361 361" xml:space="preserve">
<path fill="#FFFFFF" stroke="#FFFFFF" stroke-width="10" stroke-miterlimit="10" d="M270.503,177.93c0,4.083-3.31,7.393-7.394,7.393
	h-73.237c-4.083,0-7.394-3.311-7.394-7.393v-46.766c0-4.083,3.311-7.393,7.394-7.393h73.237c4.083,0,7.394,3.311,7.394,7.393V177.93
	z"/>
<line fill="none" stroke="#FFFFFF" stroke-width="10" stroke-miterlimit="10" x1="169.855" y1="154.928" x2="283.668" y2="154.928"/>
<g>
	<path fill="#FFFFFF" d="M165.621,146.047c0,5.667,0,11.333,0,17c0,6.449,10,6.449,10,0c0-5.667,0-11.333,0-17
		C175.621,139.598,165.621,139.598,165.621,146.047L165.621,146.047z"/>
</g>
<g>
	<path fill="#FFFFFF" d="M175.598,104.637c36.023,0,72.047,0,108.07,0c6.449,0,6.449-10,0-10c-36.023,0-72.047,0-108.07,0
		C169.149,94.637,169.149,104.637,175.598,104.637L175.598,104.637z"/>
</g>
<g>
	<g>
		<path fill="#FFFFFF" d="M95.815,100.045c0,49.662,0,99.324,0,148.986c0,13.504,0,27.009,0,40.514c0,6.449,10,6.449,10,0
			c0-49.662,0-99.324,0-148.986c0-13.504,0-27.009,0-40.514C105.815,93.596,95.815,93.596,95.815,100.045L95.815,100.045z"/>
	</g>
	<g>
		<path fill="#FFFFFF" d="M73.958,224.848c18.048,0,36.097,0,54.145,0c4.514,0,4.514-7,0-7c-18.048,0-36.097,0-54.145,0
			C69.443,217.848,69.443,224.848,73.958,224.848L73.958,224.848z"/>
	</g>
	<g>
		<path fill="#FFFFFF" d="M71.394,242.265c19.757,0,39.515,0,59.272,0c4.514,0,4.514-7,0-7c-19.757,0-39.515,0-59.272,0
			C66.88,235.265,66.88,242.265,71.394,242.265L71.394,242.265z"/>
	</g>
	<g>
		<path fill="#FFFFFF" d="M71.394,250.973c19.757,0,39.515,0,59.272,0c4.514,0,4.514-7,0-7c-19.757,0-39.515,0-59.272,0
			C66.88,243.973,66.88,250.973,71.394,250.973L71.394,250.973z"/>
	</g>
	<g>
		<path fill="#FFFFFF" d="M71.914,259.682c19.411,0,38.821,0,58.232,0c4.514,0,4.514-7,0-7c-19.411,0-38.821,0-58.232,0
			C67.4,252.682,67.4,259.682,71.914,259.682L71.914,259.682z"/>
	</g>
	<g>
		<path fill="#FFFFFF" d="M74.648,268.39c17.588,0,35.175,0,52.763,0c4.514,0,4.514-7,0-7c-17.588,0-35.175,0-52.763,0
			C70.134,261.39,70.134,268.39,74.648,268.39L74.648,268.39z"/>
	</g>
	<g>
		<path fill="#FFFFFF" d="M83.503,285.807c11.685,0,23.37,0,35.055,0c4.514,0,4.514-7,0-7c-11.685,0-23.37,0-35.055,0
			C78.989,278.807,78.989,285.807,83.503,285.807L83.503,285.807z"/>
	</g>
	<path fill="#FFFFFF" d="M108.155,124.212c0,2.196-1.78,3.976-3.977,3.976h-7.245c-2.196,0-3.976-1.78-3.976-3.976V76.831
		c0-2.196,1.78-3.976,3.976-3.976h7.245c2.196,0,3.977,1.78,3.977,3.976V124.212z"/>
	<g>
		<path fill="#FFFFFF" d="M71.394,233.557c19.757,0,39.515,0,59.272,0c4.514,0,4.514-7,0-7c-19.757,0-39.515,0-59.272,0
			C66.88,226.557,66.88,233.557,71.394,233.557L71.394,233.557z"/>
	</g>
	<g>
		<path fill="#FFFFFF" d="M78.102,277.099c15.286,0,30.571,0,45.857,0c4.514,0,4.514-7,0-7c-15.286,0-30.571,0-45.857,0
			C73.587,270.099,73.587,277.099,78.102,277.099L78.102,277.099z"/>
	</g>
	<g>
		<path fill="#FFFFFF" d="M91.85,294.515c6.12,0,12.24,0,18.36,0c4.514,0,4.514-7,0-7c-6.12,0-12.24,0-18.36,0
			C87.336,287.515,87.336,294.515,91.85,294.515L91.85,294.515z"/>
	</g>
</g>
<g>
	<path fill="#FFFFFF" d="M278.668,99.637c0,18.43,0,36.861,0,55.291c0,6.449,10,6.449,10,0c0-18.43,0-36.861,0-55.291
		C288.668,93.188,278.668,93.188,278.668,99.637L278.668,99.637z"/>
</g>
</svg>
