<?xml version="1.0" encoding="iso-8859-1"?>
<!-- Generator: Adobe Illustrator 16.0.0, SVG Export Plug-In . SVG Version: 6.00 Build 0)  -->
<!DOCTYPE svg PUBLIC "-//W3C//DTD SVG 1.1//EN" "http://www.w3.org/Graphics/SVG/1.1/DTD/svg11.dtd">
<svg version="1.1" xmlns="http://www.w3.org/2000/svg" xmlns:xlink="http://www.w3.org/1999/xlink" x="0px" y="0px" width="361px"
	 height="361px" viewBox="0 0 361 361" style="enable-background:new 0 0 361 361;" xml:space="preserve">
<g id="scene_x5F_cockle_x5F_stove">
	<g>
		<g>
			<path style="fill:#FFFFFF;" d="M167.869,263.474c-0.131,0.651-0.608,0.416-2.121,0.416c-2.473,0-4.946,0-7.419,0
				c-7.459,0-14.918,0-22.377,0c-12.547,0-25.094,0-37.641,0c-0.924,0-0.138,0.925-0.138-0.513c0-2.17,0-4.34,0-6.509
				c0-7.441,0-14.882,0-22.323s0-14.882,0-22.323c0-2.068,0-4.136,0-6.204c0-1.694-0.68-0.817,0.138-0.817
				c23.098,0,46.196,0,69.294,0c1.014,0,0.139-0.911,0.139,0.246c0,1.816,0,3.634,0,5.45c0,6.889,0,13.778,0,20.667
				c0,10.947,0,21.894,0,32.841c0,4.514,7,4.514,7,0c0-11.605,0-23.21,0-34.815c0-6.826,0-13.653,0-20.479
				c0-4.612-0.036-10.909-6.486-10.909c-23.316,0-46.631,0-69.947,0c-4.983,0-7.138,3.681-7.138,8.157c0,5.819,0,11.638,0,17.457
				c0,13.276,0,26.553,0,39.829c0,10.469,16.975,7.246,23.617,7.246c15.203,0,30.405,0,45.607,0c5.25,0,12.833,1.323,14.222-5.555
				C175.509,260.928,168.762,259.051,167.869,263.474z"/>
		</g>
	</g>
	<g>
		<g>
			<path style="fill:#FFFFFF;" d="M157.027,250.236c-0.414,13.042-12.742,22.755-24.115,13.186
				c-5.144-4.327-6.56-12.086-3.271-17.884c2.445-4.309,5.423-7.538,7.113-12.312c0.699-1.975,1.279-3.993,1.912-5.99
				c0.321-1.016,0.661-2.02,1.121-2.982c-0.414-0.001-0.829-0.002-1.243-0.002c0.507,0.646,0.955,1.332,1.344,2.056
				c1.431,2.425,1.984,5.108,2.463,7.835c0.177,1.006,0.659,2.28,1.536,2.879c1.551,1.06,3.034,0.127,4.143-1.092
				c0.887-0.974,1.542-2.182,2.183-3.321c0.369-0.655,1.687-2.443,0.964-2.083c-0.606-0.078-1.212-0.156-1.818-0.234
				C154.651,235.739,156.836,242.736,157.027,250.236c0.049,1.931,3.049,1.936,3,0c-0.211-8.291-2.707-16.055-8.546-22.066
				c-0.492-0.506-1.216-0.535-1.818-0.234c-0.961,0.479-4.187,6.397-4.04,6.599c-0.924-1.267-0.896-4.002-1.31-5.486
				c-0.41-1.476-1.14-2.901-1.835-4.255c-0.655-1.275-1.607-2.926-3.017-3.461c-0.5-0.19-1.094,0.044-1.459,0.386
				c-1.763,1.646-2.265,4.819-2.945,7.003c-1.546,4.968-3.377,9.083-6.553,13.227c-4.901,6.395-4.947,15.577,0.534,21.759
				c4.675,5.273,12.604,8.661,19.486,5.669c7.652-3.326,11.25-11.133,11.503-19.139
				C160.089,248.301,157.088,248.307,157.027,250.236z"/>
		</g>
	</g>
	<g>
		<g>
			<path style="fill:#FFFFFF;" d="M149.534,257.494c-0.253,4.563-2.501,9.129-7.599,9.545c-6.02,0.491-10.059-6.784-7.534-11.825
				c1.062-2.121,2.8-3.724,3.751-5.953c0.829-1.943,1.049-5.327,2.452-6.917c-0.606,0.078-1.212,0.156-1.818,0.234
				c2.392,1.583,0.869,8.091,4.649,7.984c2.321-0.065,2.592-3.19,3.873-4.409c-0.707,0-1.414,0-2.121,0
				C148.197,249.362,149.36,253.146,149.534,257.494c0.077,1.928,3.077,1.936,3,0c-0.206-5.14-1.67-9.671-5.226-13.462
				c-0.569-0.607-1.544-0.55-2.121,0c-0.345,0.328-0.541,0.767-0.761,1.181c-0.215,0.412-0.439,0.818-0.673,1.22
				c-0.5,0.748-0.529,0.83-0.088,0.245c-0.459-2.243-1.314-5.332-3.365-6.689c-0.533-0.353-1.394-0.247-1.818,0.234
				c-1.07,1.212-1.425,2.897-1.897,4.406c-0.97,3.104-2.175,5.509-4.126,8.093c-2.808,3.718-2.529,9.533,0.613,13.012
				c7.943,8.795,18.872,2.403,19.462-8.239C152.642,255.561,149.641,255.57,149.534,257.494z"/>
		</g>
	</g>
	<g>
		<g>
			<path style="fill:#FFFFFF;" d="M128.332,261.878c-6.844,8.97-18.326-1.943-11.986-10.34c1.042-1.38,1.937-2.752,2.537-4.385
				c0.668-1.816,1.008-5.093,2.3-6.558c-0.606,0.078-1.212,0.156-1.817,0.234c2.768,1.832,0.968,6.837,3.938,8.577
				c1.785,1.045,2.853-0.404,4.317-0.983c1.777-0.703,1.003-3.604-0.798-2.893c-0.313,0.124-0.545,0.239-0.816,0.443
				c-1.778,1.343-1.788-1.16-2.102-2.606c-0.382-1.759-1.481-4.106-3.026-5.128c-0.533-0.353-1.393-0.247-1.817,0.234
				c-2.474,2.803-2.468,7.41-4.569,10.569c-2.715,4.083-4.275,6.979-2.586,11.98c2.972,8.804,13.99,8.953,19.016,2.367
				C132.097,261.854,129.489,260.361,128.332,261.878L128.332,261.878z"/>
		</g>
	</g>
	<g>
		<g>
			<path style="fill:#FFFFFF;" d="M129.627,241.435c-6.288,0.384-5.163-8.392-8.313-11.581c-0.494-0.501-1.214-0.541-1.817-0.234
				c-3.02,1.531-4.006,7.134-4.524,9.977c0.041-0.223-2.149-4.117-3.059-4.738c-0.542-0.369-1.38-0.229-1.818,0.234
				c-6.249,6.593-8.708,16.749-5.553,25.372c2.977,8.136,10.75,10.933,18.371,7.773c1.76-0.729,0.989-3.634-0.798-2.893
				c-7.014,2.908-12.546,0.152-15.144-6.946c-2.571-7.027,0.304-15.972,5.246-21.186c-0.606,0.078-1.212,0.156-1.818,0.234
				c-0.535-0.365,1.105,2.374,1.5,3.021c0.708,1.163,1.57,2.188,2.878,2.639c4.096,1.411,3.801-9.664,6.233-10.898
				c-0.605-0.078-1.211-0.156-1.817-0.234c1.734,1.757,2.229,6.18,3.539,8.437c1.491,2.57,3.895,4.207,6.896,4.023
				C131.549,244.317,131.561,241.316,129.627,241.435L129.627,241.435z"/>
		</g>
	</g>
	<g>
		<g>
			<path style="fill:#FFFFFF;" d="M137.055,230.787c-2.452-3.632-3.668-7.772-4.943-11.926c-0.666-2.166-1.179-5.299-2.935-6.922
				c-0.38-0.352-0.944-0.558-1.459-0.386c-4.057,1.356-5.515,9.489-6.096,12.871c-0.481,2.804-2.223-1.42-2.85-2.563
				c-0.487-0.889-1.016-2.697-2.032-3.171c-0.609-0.284-1.321-0.284-1.818,0.234c-5.974,6.234-8.963,14.079-9.171,22.677
				c-0.047,1.936,2.953,1.932,3,0c0.188-7.809,2.864-14.891,8.292-20.556c-0.606,0.078-1.212,0.156-1.818,0.234
				c-0.645-0.3,0.886,1.967,1.313,2.747c0.746,1.36,1.597,2.668,2.683,3.78c1.587,1.623,3.913,1.137,4.758-0.94
				c1.27-3.12,1.389-6.438,2.876-9.561c0.483-1.015,1.107-2.017,1.819-2.887c-1.403-0.346-1.677,0.011-0.821,1.07
				c0.234,0.628,0.453,1.262,0.656,1.901c1.698,5.112,2.9,10.387,5.953,14.908C135.541,233.895,138.141,232.396,137.055,230.787
				L137.055,230.787z"/>
		</g>
	</g>
	<g>
		<g>
			<path style="fill:#FFFFFF;" d="M163.678,232.547c0,4.438,0,8.875,0,13.313c0,1.935,3,1.935,3,0c0-4.438,0-8.875,0-13.313
				C166.678,230.612,163.678,230.612,163.678,232.547L163.678,232.547z"/>
		</g>
	</g>
	<g>
		<g>
			<path style="fill:#FFFFFF;" d="M165.877,234.047c0.817,0,1.633,0,2.45,0c1.935,0,1.935-3,0-3c-0.817,0-1.633,0-2.45,0
				C163.943,231.047,163.943,234.047,165.877,234.047L165.877,234.047z"/>
		</g>
	</g>
	<g>
		<g>
			<path style="fill:#FFFFFF;" d="M278.012,283.003c0.201-1,3.174-0.836,1.062-0.836c-0.99,0-1.98,0-2.971,0
				c-3.593,0-7.186,0-10.778,0c-12.256,0-24.511,0-36.767,0c-32.093,0-64.186,0-96.279,0c-18.018,0-36.035,0-54.052,0
				c1.833,0,2.106,3.477,2.106,1.537c0-0.866,0-1.732,0-2.599c0-3.345,0-6.688,0-10.033c0-11.803,0-23.606,0-35.409
				c0-52.369,0-104.738,0-157.107c0-0.35,0-0.699,0-1.048c0,2.496-3.729,2.159-0.465,2.159c1.426,0,2.851,0,4.276,0
				c6.063,0,12.125,0,18.188,0c-1.439-0.826-2.878-1.651-4.317-2.477c3.153,4.204,6.306,8.408,9.458,12.611
				c1.792,2.39,3.585,4.78,5.377,7.17c2.436,3.249,5.652,2.695,9.287,2.695c5.823,0,11.646,0,17.468,0c1.285,0,2.57,0,3.855,0
				c1.912,0-1.551-0.576,0.968,0.34c0.883,0.321,1.766,0.642,2.648,0.963c0.903,0.329,1.738,1.154,0.254,0.032
				c0.439,0.332,0.878,0.664,1.317,0.997c10.924,8.267,21.848,16.533,32.771,24.8c0.707,0.535,1.414,1.07,2.12,1.604
				c1.542,1.167-0.307,0.383-0.979-1.112c1.361,3.025,2.723,6.05,4.084,9.076c0.738,1.641-0.324-3.695-0.302-0.119
				c0.013,2.044,0.026,4.088,0.039,6.132c0.095,15,0.189,30,0.285,45c0.041,6.592,0.083,13.183,0.125,19.774
				c0.02,3.091-0.75,7.792,1.643,10.186c1.994,1.995,4.303,5.327,7.413,5.327c0.942,0,1.885,0,2.827,0c5.364,0,10.729,0,16.094,0
				c15.711,0,31.422,0,47.132,0c5.905,0,11.811,0,17.716,0c1.627,0-1.784-3.361-1.784-1.842c0,0.807,0,1.613,0,2.42
				c0,3.737,0,7.475,0,11.212c0,16.625,0,33.25,0,49.875c0,6.448,10,6.448,10,0c0-11.303,0-22.605,0-33.908
				c0-7.365,0-14.73,0-22.095c0-3.912,0.783-8.95-1.513-12.355c-2.63-3.901-7.355-3.307-11.41-3.307c-6.073,0-12.146,0-18.22,0
				c-15.587,0-31.175,0-46.763,0c-4.698,0-9.396,0-14.095,0c1.179,0.488,2.357,0.977,3.535,1.465c-1.333-1.334-2.666-2.667-3.999-4
				c0.488,1.178,0.977,2.356,1.465,3.535c-0.155-24.534-0.311-49.067-0.466-73.602c-0.05-7.924-2.526-16.322-9.061-21.267
				c-10.967-8.299-21.934-16.599-32.901-24.898c-4.44-3.36-9.362-4.234-14.8-4.234c-7.424,0-14.849,0-22.274,0
				c1.439,0.826,2.878,1.651,4.317,2.477c-3.445-4.594-6.891-9.188-10.336-13.781c-1.443-1.925-2.887-3.85-4.331-5.774
				c-1.961-2.615-3.951-2.921-6.918-2.921c-6.897,0-13.795,0-20.693,0c-5.108,0-9.039,3.118-9.039,8.462c0,19.564,0,39.128,0,58.693
				c0,49.168,0,98.336,0,147.503c0,9.362,10.829,7.842,17.005,7.842c10.947,0,21.893,0,32.84,0c31.87,0,63.739,0,95.608,0
				c15.949,0,31.897,0,47.847,0c6.838,0,22.146,2.788,24.021-6.506C288.925,279.365,279.286,276.684,278.012,283.003z"/>
		</g>
	</g>
	<g>
		<g>
			<path style="fill:#FFFFFF;" d="M194.833,216.7c30.667,0,61.333,0,92,0c6.448,0,6.448-10,0-10c-30.667,0-61.333,0-92,0
				C188.385,206.7,188.385,216.7,194.833,216.7L194.833,216.7z"/>
		</g>
	</g>
	<g>
		<g>
			<path style="fill:#FFFFFF;" d="M138.661,131.867c-0.508,3.945-6.193,2.634-8.775,2.634c-2.908,0-5.816,0-8.724,0
				c-3.343,0-1.867-15.692-1.867-17.7c0-4.652,14.515-2.634,17.499-2.634C140.137,114.167,138.661,129.859,138.661,131.867
				c0,1.935,3,1.935,3,0c0-4.062,0-8.123,0-12.184c0-3.34-0.16-8.516-4.798-8.516c-4.069,0-8.139,0-12.208,0
				c-4.429,0-7.688,0.424-8.359,5.634c-0.505,3.923,0,8.229,0,12.184c0,3.34,0.161,8.516,4.799,8.516c4.069,0,8.139,0,12.208,0
				c4.429,0,7.688-0.424,8.358-5.634C141.908,129.952,138.904,129.976,138.661,131.867z"/>
		</g>
	</g>
	<g>
		<g>
			<path style="fill:#FFFFFF;" d="M165.285,147.2c-0.508,3.945-6.193,2.634-8.775,2.634c-2.908,0-5.816,0-8.724,0
				c-3.343,0-1.867-15.692-1.867-17.7c0-4.652,14.515-2.634,17.499-2.634C166.761,129.5,165.285,145.192,165.285,147.2
				c0,1.935,3,1.935,3,0c0-4.062,0-8.123,0-12.184c0-3.34-0.16-8.516-4.798-8.516c-4.069,0-8.139,0-12.208,0
				c-4.429,0-7.688,0.424-8.359,5.634c-0.505,3.923,0,8.229,0,12.184c0,3.34,0.161,8.516,4.799,8.516c4.069,0,8.139,0,12.208,0
				c4.429,0,7.688-0.424,8.358-5.634C168.532,145.285,165.528,145.309,165.285,147.2z"/>
		</g>
	</g>
	<g>
		<g>
			<path style="fill:#FFFFFF;" d="M135.461,170.534c-0.508,3.945-6.193,2.634-8.775,2.634c-2.908,0-5.816,0-8.724,0
				c-3.343,0-1.867-15.692-1.867-17.7c0-4.652,14.515-2.634,17.499-2.634C136.937,152.834,135.461,168.526,135.461,170.534
				c0,1.935,3,1.935,3,0c0-4.062,0-8.123,0-12.184c0-3.34-0.16-8.516-4.798-8.516c-4.069,0-8.139,0-12.208,0
				c-4.429,0-7.688,0.424-8.359,5.634c-0.505,3.923,0,8.229,0,12.184c0,3.34,0.161,8.516,4.799,8.516c4.069,0,8.139,0,12.208,0
				c4.429,0,7.688-0.424,8.358-5.634C138.708,168.619,135.704,168.643,135.461,170.534z"/>
		</g>
	</g>
</g>
<g id="Ebene_1">
</g>
</svg>
