<?xml version="1.0" encoding="iso-8859-1"?>
<!-- Generator: Adobe Illustrator 16.0.0, SVG Export Plug-In . SVG Version: 6.00 Build 0)  -->
<!DOCTYPE svg PUBLIC "-//W3C//DTD SVG 1.1//EN" "http://www.w3.org/Graphics/SVG/1.1/DTD/svg11.dtd">
<svg version="1.1" xmlns="http://www.w3.org/2000/svg" xmlns:xlink="http://www.w3.org/1999/xlink" x="0px" y="0px" width="361px"
	 height="361px" viewBox="0 0 361 361" style="enable-background:new 0 0 361 361;" xml:space="preserve">
<g id="scene_x5F_making_x5F_love_x5F_clean">
	<g style="display:none;">
		<path style="display:inline;fill:#FFFFFF;" d="M279.65,156.122c4.379-6.813,7.414-17.16,7.414-25.893
			c0-19.543-15.843-35.385-35.386-35.385c-19.542,0-35.386,15.842-35.386,35.385c0,0.007,0.001,0.015,0.001,0.022h-0.001
			c0-0.007,0-0.015,0-0.022c0-19.543-15.842-35.385-35.385-35.385c-19.542,0-35.385,15.842-35.385,35.385
			c0,8.855,3.164,19.264,7.636,26.15c13.686,21.073,53.237,76.002,63.134,76.002C225.396,232.381,266.018,177.331,279.65,156.122z"
			/>
		<g style="display:inline;">
			<path style="fill:#FFFFFF;" d="M283.968,158.645c7.452-12.163,10.473-27.981,5.855-41.68
				c-4.104-12.177-14.118-21.253-26.135-25.303c-24.658-8.311-53.572,12.083-52.395,38.588c1.667-1.667,3.333-3.333,5-5h-0.001
				c1.667,1.667,3.333,3.333,5,5c0-22.782-19.257-40.814-41.774-40.38c-23.708,0.457-40.924,22.269-38.71,45.164
				c1.958,20.244,16.705,37.114,28.285,52.939c10.821,14.787,21.895,30.309,35.406,42.8c4.845,4.479,10.45,8.653,16.981,4.971
				c7.535-4.248,13.568-12.225,19.068-18.679C256.23,198.666,270.861,178.961,283.968,158.645c3.507-5.437-5.152-10.445-8.635-5.047
				c-9.932,15.394-20.88,30.21-32.217,44.592c-5.658,7.178-11.48,14.258-17.756,20.907c-2.156,2.284-4.398,4.494-6.801,6.52
				c-0.588,0.495-1.295,0.984-2.126,1.491c-0.197,0.121-1.492,0.689-0.271,0.207c-1.203,0.476,0.155,0.079,0.843,0.182
				c-0.929-0.138-0.107,0.146-1.464-0.655c-0.937-0.554-1.536-1.036-2.346-1.709c-2.771-2.302-5.273-4.936-7.725-7.567
				c-6.406-6.878-12.294-14.264-18.033-21.701c-6.204-8.04-12.193-16.247-18.054-24.54c-4.888-6.917-10.24-13.881-14.144-21.417
				c-9.657-18.641-3.8-42.658,17.589-48.979c19.052-5.63,38.462,9.824,38.462,29.322c0,2.726,2.274,5,5,5h0.001
				c2.634,0,5.121-2.275,5-5c-0.926-20.834,20.992-34.485,39.736-28.945c9.292,2.746,16.527,10.538,19.572,19.572
				c3.599,10.677,0.453,23.38-5.27,32.721C271.954,159.113,280.605,164.132,283.968,158.645z"/>
		</g>
	</g>
	<g style="display:none;">
		<g style="display:inline;">
			<path style="fill:#FFFFFF;" d="M213.196,213.312c7.452-12.162,10.473-27.981,5.855-41.68
				c-4.104-12.177-14.117-21.252-26.134-25.303c-25.093-8.458-52.969,12.184-52.395,38.588c1.667-1.667,3.333-3.333,5-5h0
				c1.667,1.667,3.333,3.333,5,5c0-22.782-19.257-40.814-41.775-40.38c-23.708,0.457-40.924,22.269-38.71,45.164
				c1.958,20.244,16.704,37.114,28.285,52.938c10.822,14.788,21.896,30.31,35.406,42.801c4.844,4.479,10.451,8.653,16.982,4.971
				c7.535-4.248,13.567-12.226,19.068-18.679C185.46,253.333,200.09,233.628,213.196,213.312c3.507-5.437-5.152-10.444-8.635-5.047
				c-9.931,15.394-20.879,30.211-32.215,44.593c-5.659,7.178-11.48,14.258-17.756,20.907c-2.156,2.284-4.398,4.494-6.801,6.52
				c-0.587,0.495-1.294,0.984-2.125,1.491c-0.197,0.121-1.492,0.689-0.27,0.207c-1.204,0.476,0.155,0.079,0.843,0.182
				c-0.929-0.138-0.108,0.146-1.464-0.655c-0.937-0.554-1.537-1.036-2.346-1.709c-2.771-2.302-5.273-4.936-7.725-7.567
				c-6.406-6.879-12.294-14.265-18.033-21.701c-6.204-8.04-12.193-16.247-18.054-24.54c-4.888-6.917-10.24-13.882-14.144-21.417
				c-9.657-18.641-3.8-42.658,17.589-48.979c19.052-5.63,38.463,9.824,38.463,29.322c0,2.726,2.274,5,5,5h0c2.681,0,5.059-2.274,5-5
				c-0.452-20.767,20.647-34.587,39.736-28.945c9.292,2.746,16.526,10.538,19.571,19.572c3.599,10.676,0.454,23.38-5.27,32.721
				C201.183,213.779,209.834,218.799,213.196,213.312z"/>
		</g>
	</g>
	<g>
		<path style="fill:#FFFFFF;" d="M251.679,94.843c-19.542,0-35.386,15.842-35.386,35.385c0,0.007,0.001,0.015,0.001,0.022h-0.001
			c0-0.007,0-0.015,0-0.022c0-19.543-15.842-35.385-35.385-35.385c-19.542,0-35.385,15.842-35.385,35.385
			c0,8.855,3.164,19.264,7.636,26.15c0.75,1.154,1.581,2.416,2.477,3.759c6.422-6.555,15.37-10.627,25.272-10.627
			c19.543,0,35.385,15.842,35.385,35.385c0,8.733-3.034,19.08-7.414,25.894c-1.856,2.889-4.217,6.409-6.927,10.328
			c6.324,6.829,11.53,11.265,14.341,11.265c9.104,0,49.725-55.05,63.357-76.259c4.379-6.813,7.414-17.16,7.414-25.893
			C287.064,110.686,271.222,94.843,251.679,94.843z"/>
		<g>
			<path style="fill:#FFFFFF;" d="M251.679,89.843c-21.247,0.41-41.375,18.117-40.385,40.407c1.667-1.667,3.333-3.333,5-5h-0.001
				c1.667,1.667,3.333,3.333,5,5c0-27.512-27.788-46.882-53.648-38.166c-12.574,4.238-21.962,14.83-25.679,27.407
				c-4.382,14.829,1.148,30.822,9.353,43.168c1.785,2.686,5.45,3.361,7.853,1.012c13.445-13.147,35.514-11.753,46.578,3.693
				c5.073,7.083,6.342,15.729,4.978,24.192c-1.682,10.425-7.241,18.542-13.093,27.034c-1.292,1.875-0.674,4.507,0.782,6.059
				c4.515,4.813,12.88,15.28,20.747,12.172c5.252-2.074,9.447-6.657,13.267-10.654c12.823-13.417,23.99-28.577,34.909-43.545
				c11.638-15.953,24.311-31.692,24.725-52.396C292.511,107.931,273.317,90.26,251.679,89.843c-6.452-0.125-6.44,9.876,0,10
				c19.826,0.382,32.9,17.946,29.819,37.049c-2.477,15.358-13.888,28.437-22.793,40.684c-9.297,12.787-18.922,25.405-29.416,37.24
				c-3.393,3.825-7.297,8.227-11.147,11.146c-0.666,0.505-1.37,0.955-2.098,1.366c-0.118,0.066-0.707,0.105,0.249,0.052
				c-0.708,0.04-2.853-2.052-3.391-2.5c-2.664-2.214-5.049-4.778-7.415-7.3c0.261,2.02,0.521,4.039,0.782,6.059
				c7.431-10.783,13.055-20.785,14.749-33.999c1.42-11.064-2.251-21.73-8.964-30.413c-14.663-18.969-43.474-18.741-59.954-2.626
				c2.618,0.337,5.235,0.675,7.853,1.012c-6.417-9.657-11.023-21.038-8.956-32.858c1.787-10.219,8.834-18.24,18.059-22.553
				c19.603-9.167,42.236,7.295,42.236,28.048c0,2.726,2.274,5,5,5h0.001c2.634,0,5.121-2.275,5-5
				c-0.747-16.815,14.356-30.098,30.385-30.407C258.119,99.719,258.131,89.719,251.679,89.843z"/>
		</g>
	</g>
	<g>
		<g>
			<path style="fill:#FFFFFF;" d="M213.197,213.593c7.452-12.162,10.473-27.981,5.855-41.68
				c-4.104-12.177-14.118-21.252-26.135-25.303c-25.092-8.458-52.968,12.184-52.394,38.588c1.667-1.667,3.333-3.333,5-5h0
				c1.667,1.667,3.333,3.333,5,5c0-22.782-19.257-40.814-41.775-40.38c-23.708,0.457-40.924,22.269-38.71,45.164
				c1.958,20.244,16.704,37.114,28.285,52.938c10.822,14.788,21.896,30.31,35.406,42.801c4.844,4.479,10.451,8.653,16.982,4.971
				c7.535-4.248,13.568-12.226,19.068-18.679C185.461,253.614,200.091,233.909,213.197,213.593
				c3.507-5.437-5.152-10.444-8.635-5.047c-9.931,15.394-20.879,30.211-32.216,44.593c-5.658,7.178-11.48,14.258-17.756,20.907
				c-2.156,2.284-4.398,4.494-6.801,6.52c-0.587,0.495-1.294,0.984-2.125,1.491c-0.197,0.121-1.492,0.689-0.27,0.207
				c-1.204,0.476,0.155,0.079,0.843,0.182c-0.929-0.138-0.108,0.146-1.464-0.655c-0.937-0.554-1.537-1.036-2.346-1.709
				c-2.771-2.302-5.273-4.936-7.725-7.567c-6.406-6.879-12.294-14.265-18.033-21.701c-6.204-8.04-12.193-16.247-18.054-24.54
				c-4.888-6.917-10.24-13.882-14.144-21.417c-9.657-18.641-3.8-42.658,17.589-48.979c19.052-5.63,38.463,9.824,38.463,29.322
				c0,2.726,2.274,5,5,5h0c2.681,0,5.059-2.274,5-5c-0.452-20.767,20.647-34.587,39.736-28.945
				c9.293,2.746,16.527,10.538,19.572,19.572c3.599,10.676,0.454,23.38-5.27,32.721C201.184,214.061,209.835,219.08,213.197,213.593
				z"/>
		</g>
	</g>
</g>
<g id="Ebene_1">
</g>
</svg>
