<?xml version="1.0" encoding="iso-8859-1"?>
<!-- Generator: Adobe Illustrator 16.0.0, SVG Export Plug-In . SVG Version: 6.00 Build 0)  -->
<!DOCTYPE svg PUBLIC "-//W3C//DTD SVG 1.1 Tiny//EN" "http://www.w3.org/Graphics/SVG/1.1/DTD/svg11-tiny.dtd">
<svg version="1.1" baseProfile="tiny" id="scene_x5F_x-mas"
	 xmlns="http://www.w3.org/2000/svg" xmlns:xlink="http://www.w3.org/1999/xlink" x="0px" y="0px" width="361px" height="361px"
	 viewBox="0 0 361 361" xml:space="preserve">
<g>
	<path fill="#FFFFFF" d="M136.288,160.318c15.5-26.847,31.001-53.695,46.502-80.542c-2.878,0-5.756,0-8.635,0
		c15.5,26.848,31.001,53.695,46.501,80.542c1.439-2.508,2.878-5.016,4.317-7.523c-31.001,0-62.002,0-93.003,0
		c-6.449,0-6.449,10,0,10c31.001,0,62.002,0,93.003,0c3.805,0,6.211-4.243,4.317-7.523c-15.5-26.848-31.001-53.695-46.501-80.542
		c-1.873-3.244-6.762-3.244-8.635,0c-15.5,26.847-31.001,53.695-46.502,80.542C124.422,160.866,133.065,165.9,136.288,160.318z"/>
</g>
<path fill="none" stroke="#FFFFFF" stroke-width="10" stroke-miterlimit="10" d="M191.367,283.382c0,3.127-2.915,5.663-6.51,5.663
	h-14.646c-3.595,0-6.51-2.536-6.51-5.663v-8.023c0-3.127,2.915-5.663,6.51-5.663h14.646c3.595,0,6.51,2.536,6.51,5.663V283.382z"/>
<g>
	<path fill="#FFFFFF" d="M114.382,220.068c11.485-19.892,22.97-39.784,34.455-59.677c-1.439,0.826-2.878,1.651-4.317,2.477
		c22.634,0.009,45.268,0.018,67.902,0.027c-1.439-0.826-2.878-1.651-4.317-2.477c11.48,19.883,22.96,39.767,34.44,59.65
		c1.439-2.508,2.878-5.016,4.317-7.523c-45.485,0-90.971,0-136.456,0c-0.114,0-0.228,0-0.341,0c-6.449,0-6.449,10,0,10
		c45.485,0,90.971,0,136.456,0c0.114,0,0.228,0,0.341,0c3.805,0,6.211-4.243,4.317-7.523
		c-11.431-19.797-22.861-39.595-34.292-59.392c-1.994-3.454-6.124-2.735-9.496-2.736c-6.676-0.002-13.352-0.005-20.028-0.008
		c-13.671-0.005-27.343-0.011-41.015-0.017c-0.61,0-1.22,0-1.83,0c-1.754,0-3.438,0.954-4.317,2.477
		c-11.485,19.892-22.97,39.784-34.455,59.677C102.517,220.616,111.16,225.65,114.382,220.068z"/>
</g>
<g>
	<path fill="#FFFFFF" d="M96.007,272.285c10.047-17.402,20.095-34.805,30.142-52.208c-1.439,0.826-2.878,1.651-4.317,2.477
		c37.093,0.006,74.187,0.013,111.28,0.02c-1.439-0.826-2.878-1.651-4.317-2.477c10.044,17.396,20.088,34.792,30.132,52.188
		c1.439-2.508,2.878-5.016,4.317-7.523c-49.814,0-99.628,0-149.442,0c-7.371,0-14.741,0-22.112,0c-6.449,0-6.449,10,0,10
		c49.814,0,99.628,0,149.442,0c7.371,0,14.741,0,22.112,0c3.805,0,6.211-4.243,4.317-7.523
		c-5.765-9.984-11.529-19.968-17.294-29.953c-3.457-5.988-6.914-11.975-10.371-17.963c-1.686-2.919-3.088-6.749-7.078-6.749
		c-25.454-0.004-50.908-0.009-76.361-0.014c-11.542-0.002-23.083-0.004-34.625-0.006c-1.754,0-3.438,0.953-4.317,2.477
		c-10.047,17.402-20.095,34.805-30.142,52.208C84.142,272.833,92.785,277.867,96.007,272.285z"/>
</g>
</svg>
