<?xml version="1.0" encoding="iso-8859-1"?>
<!-- Generator: Adobe Illustrator 16.0.0, SVG Export Plug-In . SVG Version: 6.00 Build 0)  -->
<!DOCTYPE svg PUBLIC "-//W3C//DTD SVG 1.1//EN" "http://www.w3.org/Graphics/SVG/1.1/DTD/svg11.dtd">
<svg version="1.1" xmlns="http://www.w3.org/2000/svg" xmlns:xlink="http://www.w3.org/1999/xlink" x="0px" y="0px" width="361px"
	 height="361px" viewBox="0 0 361 361" style="enable-background:new 0 0 361 361;" xml:space="preserve">
<g id="scene_x5F_cinema">
	<g style="display:none;">
		<g style="display:inline;">
			<g>
				<g>
					<path style="fill:#FFFFFF;" d="M169.25,137.016c-0.502,3.735-5.599,2.752-7.889,2.752c-2.592,0-3.899-2.023-3.899-4.34
						c0-4.167,0-8.334,0-12.502c0-3.742,5.509-2.824,7.889-2.824c3.466,0,3.899,2.201,3.899,4.965
						C169.25,129.05,169.25,133.033,169.25,137.016c0,1.935,3,1.935,3,0c0-2.945,0-5.89,0-8.834c0-2.505,0.64-6.386-1.02-8.534
						c-3.502-4.534-16.768-4.148-16.768,3.207c0,2.945,0,5.89,0,8.834c0,2.522-0.65,6.372,1.02,8.534
						c2.465,3.19,6.255,2.545,9.869,2.545c3.868,0,6.375-1.849,6.899-5.752C172.506,135.104,169.503,135.128,169.25,137.016z"/>
				</g>
			</g>
			<g>
				<g>
					<path style="fill:#FFFFFF;" d="M164.998,118.603c0,7.555,0,15.11,0,22.666c0,1.935,3,1.935,3,0c0-7.555,0-15.11,0-22.666
						C167.998,116.668,164.998,116.668,164.998,118.603L164.998,118.603z"/>
				</g>
			</g>
		</g>
		<g style="display:inline;">
			<g>
				<g>
					<path style="fill:#FFFFFF;" d="M85.534,160.258c2.411,0,4.822,0,7.232,0c2.726,0,5-2.274,5-5s-2.274-5-5-5
						c-2.411,0-4.822,0-7.232,0c-2.726,0-5,2.274-5,5S82.808,160.258,85.534,160.258L85.534,160.258z"/>
				</g>
			</g>
			<g>
				<g>
					<path style="fill:#FFFFFF;" d="M135.705,160.258c2.411,0,4.822,0,7.232,0c2.726,0,5-2.274,5-5s-2.274-5-5-5
						c-2.411,0-4.822,0-7.232,0c-2.726,0-5,2.274-5,5S132.979,160.258,135.705,160.258L135.705,160.258z"/>
				</g>
			</g>
			<g>
				<g>
					<path style="fill:#FFFFFF;" d="M152.483,146.509c-0.419,3.636-9.264,2.169-11.192,2.169c-7.258,0-14.517,0-21.775,0
						c-13.097,0-26.195,0-39.292,0c-5.127,0-3.576-7.036-3.576-10.419c0-5.94,0-11.881,0-17.822c0-3.556,9.651-2.169,11.192-2.169
						c7.258,0,14.517,0,21.775,0c13.097,0,26.195,0,39.292,0c5.127,0,3.576,7.036,3.576,10.419
						C152.483,134.627,152.483,140.568,152.483,146.509c0,4.514,7,4.514,7,0c0-5.941,0-11.882,0-17.822
						c0-5.833,1.252-14.217-5.746-16.718c-3.42-1.222-7.546-0.701-11.116-0.701c-7.048,0-14.096,0-21.145,0
						c-13.529,0-27.058,0-40.586,0c-5.635,0-11.244,2.681-11.244,9.217c0,6.226,0,12.452,0,18.678c0,3.297-0.828,8.646,1.054,11.605
						c2.357,3.708,5.672,4.91,9.841,4.91c9.037,0,18.074,0,27.111,0c11.212,0,22.425,0,33.638,0c7.707,0,17.007,1.125,18.192-9.169
						C159.999,142.029,152.993,142.079,152.483,146.509z"/>
				</g>
			</g>
			<g>
				<g>
					<path style="fill:#FFFFFF;" d="M82.081,129.108c10.816,0,21.632,0,32.449,0c1.935,0,1.935-3,0-3c-10.816,0-21.632,0-32.449,0
						C80.146,126.108,80.146,129.108,82.081,129.108L82.081,129.108z"/>
				</g>
			</g>
			<g>
				<g>
					<path style="fill:#FFFFFF;" d="M82.081,124.178c10.816,0,21.632,0,32.449,0c1.935,0,1.935-3,0-3c-10.816,0-21.632,0-32.449,0
						C80.146,121.178,80.146,124.178,82.081,124.178L82.081,124.178z"/>
				</g>
			</g>
			<g>
				<g>
					<path style="fill:#FFFFFF;" d="M82.081,134.038c10.816,0,21.632,0,32.449,0c1.935,0,1.935-3,0-3c-10.816,0-21.632,0-32.449,0
						C80.146,131.038,80.146,134.038,82.081,134.038L82.081,134.038z"/>
				</g>
			</g>
		</g>
	</g>
	<g>
		<g>
			<path style="fill:#FFFFFF;" d="M268.551,261.68c0.493,4.288,2.939,8.121,7.579,8.655c3.017,0.348,7.827,0.826,10.504-0.876
				c3.729-2.372,4.699-5.741,4.699-9.818c0-9.195,0-18.392,0-27.587c0-31.239,0-62.478,0-93.716c0-10.417,0-20.833,0-31.25
				c0-1.83,0.367-4.504-0.265-6.271c-1.401-3.921-4.402-6.649-8.753-6.649c-3.544,0-7.989-0.581-10.757,2.188
				c-4.705,4.706-3.008,14.104-3.008,20.17c0,13.276,0,26.553,0,39.83C268.551,191.464,268.551,226.571,268.551,261.68
				c0,4.514,7,4.514,7,0c0-49.14,0-98.279,0-147.419c0-3.243,0-6.486,0-9.73c0-4.418,8.782-4.652,8.782-1.562
				c0,6.196,0,12.393,0,18.589c0,30.471,0,60.943,0,91.414c0,12.47,0,24.939,0,37.408c0,3.168,0,6.335,0,9.503
				c0,0.574,0,1.148,0,1.723c0,2.81-8.461,2.868-8.782,0.074C275.041,257.25,268.035,257.2,268.551,261.68z"/>
		</g>
	</g>
	<g>
		<g>
			<path style="fill:#FFFFFF;" d="M189.354,144.903c17.043-7.407,34.086-14.814,51.129-22.222c1.771-0.77,0.241-3.354-1.514-2.591
				c-17.043,7.407-34.086,14.814-51.129,22.222C186.07,143.082,187.6,145.666,189.354,144.903L189.354,144.903z"/>
		</g>
	</g>
	<g>
		<g>
			<path style="fill:#FFFFFF;" d="M186.537,164.084c14.71,12.722,29.419,25.443,44.129,38.165c1.455,1.259,3.587-0.854,2.121-2.121
				c-14.71-12.722-29.419-25.443-44.129-38.165C187.203,160.704,185.071,162.816,186.537,164.084L186.537,164.084z"/>
		</g>
	</g>
	<g>
		<g>
			<g>
				<g>
					<path style="fill:#FFFFFF;" d="M170.625,158.667c-1.012,3.739-5.343,2.294-7.682,1.987c-2.866-0.377-4.164-2.527-3.81-5.218
						c0.538-4.087,1.075-8.174,1.612-12.261c0.449-3.414,5.852-1.9,7.638-1.666c2.866,0.376,4.164,2.527,3.81,5.218
						c-0.541,4.113-1.082,8.226-1.623,12.339c-0.251,1.914,2.751,1.89,3,0c0.406-3.091,0.813-6.183,1.219-9.274
						c0.401-3.049,1.213-5.861-0.42-8.667c-1.586-2.726-5.78-2.589-8.472-2.942c-3.841-0.505-6.976,0.403-8.089,4.516
						c-0.75,2.773-0.783,5.942-1.156,8.785c-0.429,3.262-1.444,6.552,0.304,9.555c1.586,2.726,5.78,2.589,8.472,2.943
						c3.841,0.505,6.976-0.403,8.089-4.516C174.024,157.595,171.13,156.802,170.625,158.667z"/>
				</g>
			</g>
			<g>
				<g>
					<path style="fill:#FFFFFF;" d="M168.757,140.255c-0.985,7.491-1.97,14.981-2.955,22.472c-0.251,1.914,2.751,1.89,3,0
						c0.985-7.491,1.97-14.981,2.955-22.472C172.008,138.341,169.005,138.366,168.757,140.255L168.757,140.255z"/>
				</g>
			</g>
		</g>
		<g>
			<g>
				<g>
					<path style="fill:#FFFFFF;" d="M85.205,171.043c2.39,0.314,4.781,0.628,7.171,0.943c2.709,0.356,5-2.544,5-5
						c0-2.995-2.298-4.645-5-5c-2.39-0.314-4.781-0.628-7.171-0.943c-2.709-0.356-5,2.544-5,5
						C80.205,169.038,82.503,170.688,85.205,171.043L85.205,171.043z"/>
				</g>
			</g>
			<g>
				<g>
					<path style="fill:#FFFFFF;" d="M134.948,177.583c2.39,0.314,4.781,0.628,7.171,0.943c2.709,0.356,5-2.544,5-5
						c0-2.995-2.298-4.645-5-5c-2.39-0.314-4.781-0.628-7.171-0.943c-2.709-0.356-5,2.544-5,5
						C129.948,175.578,132.247,177.229,134.948,177.583L134.948,177.583z"/>
				</g>
			</g>
			<g>
				<g>
					<path style="fill:#FFFFFF;" d="M152.819,165.623c-0.994,3.968-8.416,1.599-11.261,1.224c-7.095-0.933-14.19-1.866-21.285-2.798
						c-13.205-1.736-26.41-3.473-39.616-5.209c-4.81-0.633-2.594-6.881-2.135-10.369c0.812-6.173,1.624-12.345,2.435-18.518
						c0.474-3.602,29.886,2.123,32.427,2.457c13.206,1.736,26.411,3.473,39.616,5.209c4.81,0.633,2.593,6.882,2.135,10.369
						c-0.814,6.188-1.627,12.377-2.441,18.566c-0.587,4.466,6.42,4.409,7,0c0.774-5.89,1.549-11.78,2.324-17.67
						c0.839-6.384,2.855-13.587-4.271-17.243c-2.896-1.486-7.524-1.386-10.662-1.799c-6.988-0.918-13.976-1.837-20.964-2.756
						c-13.414-1.764-26.827-3.527-40.241-5.291c-5.802-0.763-11.083,1.783-11.922,8.159c-0.812,6.173-1.624,12.345-2.435,18.518
						c-0.467,3.553-1.828,8.171-0.234,11.597c1.808,3.885,5.089,5.209,9.053,5.73c8.744,1.149,17.487,2.299,26.23,3.449
						c11.208,1.474,22.417,2.948,33.625,4.421c7.275,0.957,16.915,3.629,19.372-6.184
						C160.666,163.104,153.915,161.246,152.819,165.623z"/>
				</g>
			</g>
			<g>
				<g>
					<path style="fill:#FFFFFF;" d="M85.386,139.679c10.724,1.41,21.448,2.82,32.172,4.23c1.914,0.251,1.89-2.751,0-3
						c-10.724-1.41-21.448-2.82-32.172-4.23C83.472,136.427,83.497,139.43,85.386,139.679L85.386,139.679z"/>
				</g>
			</g>
			<g>
				<g>
					<path style="fill:#FFFFFF;" d="M86.029,134.791c10.724,1.41,21.448,2.82,32.172,4.23c1.914,0.251,1.89-2.751,0-3
						c-10.724-1.41-21.448-2.82-32.172-4.23C84.115,131.539,84.139,134.542,86.029,134.791L86.029,134.791z"/>
				</g>
			</g>
			<g>
				<g>
					<path style="fill:#FFFFFF;" d="M84.744,144.567c10.724,1.41,21.448,2.82,32.171,4.23c1.914,0.251,1.89-2.751,0-3
						c-10.724-1.41-21.448-2.82-32.171-4.23C82.83,141.315,82.854,144.318,84.744,144.567L84.744,144.567z"/>
				</g>
			</g>
		</g>
	</g>
	<g>
		<g>
			<path style="fill:#FFFFFF;" d="M106.701,99.272c0,9.74,0,19.479,0,29.219c0,4.514,7,4.514,7,0c0-9.74,0-19.479,0-29.219
				C113.701,94.758,106.701,94.758,106.701,99.272L106.701,99.272z"/>
		</g>
	</g>
	<g>
		<g>
			<path style="fill:#FFFFFF;" d="M99.628,100.772c7.048,0,14.097,0,21.145,0c4.514,0,4.514-7,0-7c-7.048,0-14.097,0-21.145,0
				C95.114,93.772,95.114,100.772,99.628,100.772L99.628,100.772z"/>
		</g>
	</g>
	<g>
		<g>
			<path style="fill:#FFFFFF;" d="M80.833,172.136c21.583,2.854,43.167,5.708,64.75,8.562c1.914,0.253,1.889-2.75,0-3
				c-21.583-2.854-43.167-5.708-64.75-8.562C78.919,168.883,78.944,171.886,80.833,172.136L80.833,172.136z"/>
		</g>
	</g>
	<g style="display:none;">
		<g style="display:inline;">
			<g>
				<path style="fill:#FFFFFF;" d="M129.49,281.517c-0.55,3.766-7.373,2.65-10.127,2.65c-4.999,0-9.998,0-14.997,0
					c-1.422,0-10.002,0.852-10.002-1.826c0-3.9,0-7.801,0-11.701c0-3.433,22.676-1.825,24.999-1.825
					c1.421,0,10.002-0.851,10.002,1.825c0,3.936,0,7.872,0,11.808c0,4.514,7,4.514,7,0c0-4.403,1.216-10.755-0.653-14.877
					c-2.748-6.063-9.115-5.756-14.718-5.756c-6.576,0-13.153,0-19.729,0c-5.76,0-12.746,0.734-13.776,7.788
					c-0.375,2.57-0.125,5.287-0.125,7.876c0,2.505-0.411,5.585,0.653,7.932c2.748,6.063,9.114,5.757,14.718,5.757
					c6.576,0,13.153,0,19.729,0c5.76,0,12.747-0.735,13.777-7.789C136.885,278.964,130.141,277.063,129.49,281.517z"/>
			</g>
		</g>
		<g style="display:inline;">
			<g>
				<path style="fill:#FFFFFF;" d="M148.914,248.667c-1.847,0-3.693,0-5.54,0c1.167,1.167,2.333,2.333,3.5,3.5
					c0-9.989,3.187-31.565-12.662-30.301c-12.141,0.969-24.283,1.938-36.424,2.907c1.125,0.856,2.25,1.713,3.375,2.569
					c-2.028-12.241-4.057-24.482-6.085-36.724c-0.794-4.794-0.864-10.131-4.134-13.962c-4-4.688-19.009-2.472-20.273,4.178
					c-0.76,3.999,0.427,8.385,0.916,12.378c0.952,7.777,1.904,15.554,2.856,23.331c0.744,6.075,1.487,12.149,2.23,18.224
					c0.631,5.155-0.18,10.777-0.18,16.025c0,5.447-0.43,10.225,3.368,14.653c2.797,3.261,7.15,3.368,11.064,3.368
					c11.046,0,22.092,0,33.139,0c7.563,0,14.807,0.353,22.29,0.353c5.604,0,11.729-1.551,11.729-8.399
					C158.083,254.089,156.537,249.22,148.914,248.667c-4.506-0.327-4.475,6.676,0,7c3.276,0.237,3.312,6.5-0.126,6.5
					c-3.206,0-6.413,0-9.619,0c-4.108,0-8.356-0.353-12.518-0.353c-12.851,0-25.701,0-38.552,0c-6.873,0-4.606-13.104-4.606-17.446
					c0-5.085,0.204-9.406-0.41-14.424c-1.749-14.289-3.499-28.579-5.248-42.868c-0.161-1.315-0.322-2.632-0.483-3.947
					c-0.145-1.183,7.377-2.167,8.358-1.722c1.27,0.576,1.427,3.89,1.616,5.029c0.472,2.85,0.944,5.699,1.417,8.548
					c1.89,11.406,3.78,22.813,5.67,34.22c0.237,1.429,1.957,2.683,3.375,2.569c11.097-0.886,22.193-1.771,33.29-2.657
					c1.42-0.113,2.841-0.227,4.262-0.34c4.016-0.32,4.535,4.675,4.535,7.577c0,5.271,0,10.542,0,15.813c0,1.908,1.592,3.5,3.5,3.5
					c1.847,0,3.693,0,5.54,0C153.428,255.667,153.428,248.667,148.914,248.667z"/>
			</g>
		</g>
		<g style="display:inline;">
			<g>
				<path style="fill:#FFFFFF;" d="M100.788,226.773c13.582-1.091,27.164-2.183,40.746-3.273c4.468-0.359,4.502-7.361,0-7
					c-13.582,1.091-27.164,2.183-40.746,3.273C96.32,220.133,96.285,227.135,100.788,226.773L100.788,226.773z"/>
			</g>
		</g>
	</g>
</g>
<g id="Ebene_1">
</g>
</svg>
