<?xml version="1.0" encoding="iso-8859-1"?>
<!-- Generator: Adobe Illustrator 16.0.0, SVG Export Plug-In . SVG Version: 6.00 Build 0)  -->
<!DOCTYPE svg PUBLIC "-//W3C//DTD SVG 1.1//EN" "http://www.w3.org/Graphics/SVG/1.1/DTD/svg11.dtd">
<svg version="1.1" xmlns="http://www.w3.org/2000/svg" xmlns:xlink="http://www.w3.org/1999/xlink" x="0px" y="0px" width="361px"
	 height="361px" viewBox="0 0 361 361" style="enable-background:new 0 0 361 361;" xml:space="preserve">
<g id="scene_x5F_gaming_x5F_3">
	<g style="display:none;">
		<g style="display:inline;">
			<g>
				<path style="fill:#FFFFFF;" d="M245.586,240.789c-0.405,4.518-5.74,3.539-8.888,3.539c-4.967,0-9.934,0-14.9,0
					c-2.628,0-5.255,0-7.882,0c-5.081,0-3.537-8.916-3.537-12.084c0-4.515,6.011-3.537,8.887-3.537c4.967,0,9.934,0,14.9,0
					c2.628,0,5.255,0,7.882,0C247.13,228.707,245.586,237.62,245.586,240.789c0,4.514,7,4.514,7,0
					c0-5.829,0.965-11.909-3.528-16.402c-3.683-3.681-10.178-2.68-14.892-2.68c-6.085,0-12.171,0-18.256,0
					c-6.785,0-11.889,3.364-12.531,10.537c-0.5,5.574-0.65,12.224,3.528,16.403c3.681,3.682,10.177,2.681,14.891,2.681
					c6.085,0,12.171,0,18.256,0c6.785,0,11.89-3.366,12.532-10.539C252.989,236.291,245.985,236.33,245.586,240.789z"/>
			</g>
		</g>
		<path style="display:inline;fill:#FFFFFF;stroke:#FFFFFF;stroke-miterlimit:10;" d="M218.189,221.896
			c0,2.742-2.225,4.965-4.967,4.965l0,0c-2.742,0-4.965-2.223-4.965-4.965v-8c0-2.742,2.223-4.965,4.965-4.965l0,0
			c2.742,0,4.967,2.223,4.967,4.965V221.896z"/>
		<g style="display:inline;">
			<g>
				<path style="fill:#FFFFFF;" d="M273.172,241.205c-0.504,4.511-11.476,2.846-14.37,2.846c-2.118,0-6.216,0.435-6.216-2.888
					c0-1.212,0-2.425,0-3.637c0-8.888,0-17.775,0-26.663c0-4.42,11.894-2.846,14.369-2.846c2.117,0,6.217-0.435,6.217,2.888
					c0,1.212,0,2.425,0,3.637C273.172,223.43,273.172,232.317,273.172,241.205c0,4.514,7,4.514,7,0
					c0-10.395,1.012-21.293-0.143-31.621c-1.016-9.075-10.898-8.566-17.633-8.566c-7.623,0-15.75,0.354-16.811,9.846
					c-0.551,4.924,0,10.222,0,15.171c0,5.42-0.46,11.056,0.143,16.45c1.015,9.075,10.898,8.566,17.632,8.566
					c7.624,0,15.751-0.354,16.812-9.846C280.673,236.723,273.668,236.771,273.172,241.205z"/>
			</g>
		</g>
		<g style="display:inline;">
			<g>
				<path style="fill:#FFFFFF;" d="M247.154,207.189c13.609,0,27.219,0,40.828,0c4.514,0,4.514-7,0-7c-13.609,0-27.219,0-40.828,0
					C242.641,200.189,242.641,207.189,247.154,207.189L247.154,207.189z"/>
			</g>
		</g>
		<g style="display:inline;">
			<g>
				<path style="fill:#FFFFFF;" d="M211.98,251.328c19.448,0,38.897,0,58.346,0c4.514,0,4.514-7,0-7c-19.448,0-38.897,0-58.346,0
					C207.467,244.328,207.467,251.328,211.98,251.328L211.98,251.328z"/>
			</g>
		</g>
		<g style="display:inline;">
			<g>
				<path style="fill:#FFFFFF;" d="M217.447,257.758c-0.446,8.295-12.415,8.294-12.861,0
					C204.14,249.461,217.003,249.505,217.447,257.758c0.242,4.489,7.243,4.513,7,0c-0.409-7.591-5.839-13.021-13.43-13.43
					c-7.575-0.408-13.056,6.451-13.432,13.43c-0.408,7.576,6.453,13.056,13.432,13.432c7.575,0.408,13.054-6.454,13.43-13.432
					C224.69,253.245,217.688,253.269,217.447,257.758z"/>
			</g>
		</g>
		<g style="display:inline;">
			<g>
				<path style="fill:#FFFFFF;" d="M270.137,257.758c-0.446,8.295-12.416,8.294-12.862,0
					C256.828,249.461,269.692,249.505,270.137,257.758c0.242,4.489,7.243,4.513,7,0c-0.409-7.592-5.84-13.021-13.431-13.43
					c-7.575-0.408-13.056,6.452-13.432,13.43c-0.408,7.576,6.453,13.056,13.432,13.432c7.576,0.408,13.055-6.453,13.431-13.432
					C277.38,253.245,270.378,253.269,270.137,257.758z"/>
			</g>
		</g>
		<g style="display:inline;">
			<g>
				<path style="fill:#FFFFFF;" d="M243.932,257.758c-0.446,8.294-12.417,8.295-12.863,0
					C230.622,249.461,243.487,249.506,243.932,257.758c0.242,4.489,7.243,4.513,7,0c-0.409-7.592-5.841-13.021-13.432-13.43
					c-7.575-0.408-13.056,6.452-13.432,13.43c-0.408,7.576,6.453,13.056,13.432,13.432c7.575,0.408,13.056-6.453,13.432-13.432
					C251.175,253.245,244.174,253.269,243.932,257.758z"/>
			</g>
		</g>
	</g>
	<g style="display:none;">
		<g style="display:inline;">
			<path style="fill:#FFFFFF;" d="M155.601,185.574c-0.335,15.337-12.33,27.33-27.667,27.666
				c-15.336,0.336-27.342-12.835-27.667-27.666c-0.335-15.336,12.835-27.342,27.667-27.667
				C143.271,157.572,155.277,170.743,155.601,185.574c0.099,4.507,7.099,4.517,7,0c-0.419-19.18-15.487-34.247-34.667-34.667
				c-19.178-0.419-34.261,16.118-34.667,34.667c-0.419,19.179,16.118,34.261,34.667,34.666c19.178,0.42,34.261-16.117,34.667-34.666
				C162.7,181.058,155.7,181.067,155.601,185.574z"/>
		</g>
	</g>
	<g>
		<g>
			<path style="fill:#FFFFFF;" d="M164.333,176.159c-0.653,13.749-20.68,13.749-21.333,0
				C142.346,162.399,163.682,162.464,164.333,176.159c0.213,4.494,7.214,4.514,7,0c-0.473-9.947-7.719-17.194-17.667-17.667
				c-9.932-0.472-17.228,8.43-17.667,17.667c-0.472,9.931,8.43,17.227,17.667,17.667c9.931,0.472,17.228-8.43,17.667-17.667
				C171.547,171.645,164.546,171.665,164.333,176.159z"/>
		</g>
	</g>
	<g>
		<g>
			<g>
				<circle style="fill:#FFFFFF;" cx="227.6" cy="144.785" r="6.267"/>
			</g>
			<g>
				<circle style="fill:#FFFFFF;" cx="255.066" cy="144.785" r="6.267"/>
			</g>
		</g>
		<g>
			<g>
				<circle style="fill:#FFFFFF;" cx="241.333" cy="131.052" r="6.267"/>
			</g>
			<g>
				<circle style="fill:#FFFFFF;" cx="241.333" cy="158.518" r="6.267"/>
			</g>
		</g>
	</g>
	<g>
		<g>
			<path style="fill:#FFFFFF;" d="M217.666,176.158c-0.653,13.748-20.679,13.748-21.332,0
				C195.68,162.399,217.016,162.464,217.666,176.158c0.214,4.494,7.215,4.514,7,0c-0.473-9.947-7.719-17.194-17.666-17.667
				c-9.932-0.472-17.227,8.43-17.666,17.667c-0.472,9.932,8.43,17.227,17.666,17.666c9.932,0.472,17.227-8.43,17.666-17.666
				C224.881,171.644,217.88,171.665,217.666,176.158z"/>
		</g>
	</g>
	<g>
		<g>
			<g>
				<path style="fill:#FFFFFF;" d="M292.154,219.137c-1.243-15.509-3.531-30.956-6.334-46.255
					c-2.646-14.443-5.606-29.239-11.091-42.914c-4.887-12.186-13.388-24.984-27.472-26.094c-12.36-0.974-28.89-1.578-36.06,10.608
					c1.439-0.826,2.878-1.651,4.317-2.477c-22.682,0-45.364,0-68.046,0c1.439,0.826,2.878,1.651,4.317,2.477
					c-5.26-8.94-15.461-10.811-25.076-10.898c-9.263-0.084-18.587-0.164-25.734,6.54c-13.77,12.914-17.912,34.225-21.649,51.793
					c-2.415,11.353-4.323,22.815-5.918,34.31c-1.458,10.501-3,21.208-2.877,31.829c0.099,8.66,2.127,17.944,9.055,23.739
					c6.954,5.816,16.865,7.669,25.563,5.651c14.373-3.333,19.086-16.527,24.42-28.415c4.221-9.405,8.442-18.811,12.663-28.217
					c-2.878,0-5.756,0-8.635,0c8.374,13.426,32.502,13.595,41.855,1.337c-1.439,0.825-2.878,1.651-4.317,2.477
					c6.904,0,13.807,0,20.711,0c-1.439-0.825-2.878-1.651-4.317-2.477c9.353,12.257,33.482,12.09,41.855-1.337
					c-2.878,0-5.757,0-8.635,0c3.346,7.455,6.691,14.911,10.037,22.366c3.723,8.294,6.835,18.167,12.546,25.224
					c8.98,11.096,24.951,12.305,36.857,5.671C292.509,247.212,293.036,231.508,292.154,219.137c-0.456-6.394-10.459-6.438-10,0
					c0.686,9.618,1.535,23.034-9.209,27.422c-5.132,2.096-10.579,2.449-15.693,0.108c-6.35-2.905-8.738-8.276-11.42-14.254
					c-5.482-12.215-10.965-24.431-16.446-36.646c-1.616-3.602-6.828-2.897-8.635,0c-3.563,5.713-12.811,5.831-18.593,4.494
					c-1.619-0.375-3.044-1.008-4.466-1.852c-1.358-0.806-1.968-2.307-3.321-3.1c-3.072-1.8-8.597-0.683-11.975-0.683
					c-3.861,0-8.81-0.861-12.589,0.179c-1.83,0.503-2.711,2.06-4.015,3.269c-1.036,0.961-2.621,1.468-3.931,1.898
					c-5.847,1.921-15.976,1.651-19.629-4.206c-1.807-2.896-7.019-3.602-8.635,0c-5.015,11.176-10.03,22.352-15.045,33.527
					c-3.158,7.037-5.499,13.564-12.82,17.372c-6.648,3.459-17.349,1.538-21.809-4.734c-5.443-7.655-3.445-19.565-2.613-28.236
					c1.047-10.92,2.647-21.785,4.502-32.595c1.907-11.117,4.179-22.188,7.09-33.087c2.077-7.779,4.364-15.674,8.856-22.434
					c2.672-4.021,5.229-8.406,9.606-10.75c3.511-1.88,9.25-1.118,13.154-1.221c4.512-0.12,8.941,0.089,13.262,1.48
					c4.133,1.33,5.437,6.917,9.841,6.917c11.298,0,22.597,0,33.896,0c11.319,0,22.64,0,33.959,0c4.104,0,5.893-5.461,9.727-6.917
					c4.51-1.712,9.58-1.578,14.321-1.452c3.844,0.103,8.527-0.39,12.095,1.193c4.821,2.14,7.717,7.908,10.483,12.07
					c3.079,4.634,4.742,10.167,6.358,15.435c2.511,8.185,4.392,16.567,6.114,24.947c3.515,17.094,6.184,34.454,7.579,51.854
					C282.666,225.52,292.67,225.569,292.154,219.137z"/>
			</g>
		</g>
		<path style="fill:none;stroke:#FFFFFF;stroke-width:3;stroke-miterlimit:10;" d="M216.515,143.27c0,1.693-1.373,3.066-3.066,3.066
			h-64.23c-1.693,0-3.066-1.373-3.066-3.066v-23.852c0-1.694,1.373-3.067,3.066-3.067h64.23c1.693,0,3.066,1.373,3.066,3.067V143.27
			z"/>
	</g>
	<g>
		<g>
			<g>
				<circle style="fill:#FFFFFF;" cx="105.6" cy="144.785" r="6.267"/>
			</g>
			<g>
				<circle style="fill:#FFFFFF;" cx="133.066" cy="144.785" r="6.267"/>
			</g>
		</g>
		<g>
			<g>
				<circle style="fill:#FFFFFF;" cx="119.334" cy="131.052" r="6.267"/>
			</g>
			<g>
				<circle style="fill:#FFFFFF;" cx="119.334" cy="158.518" r="6.267"/>
			</g>
		</g>
	</g>
</g>
<g id="Ebene_1">
</g>
</svg>
