<?xml version="1.0" encoding="iso-8859-1"?>
<!-- Generator: Adobe Illustrator 16.0.0, SVG Export Plug-In . SVG Version: 6.00 Build 0)  -->
<!DOCTYPE svg PUBLIC "-//W3C//DTD SVG 1.1 Tiny//EN" "http://www.w3.org/Graphics/SVG/1.1/DTD/svg11-tiny.dtd">
<svg version="1.1" baseProfile="tiny" id="scene_x5F_childs_x5F_room"
	 xmlns="http://www.w3.org/2000/svg" xmlns:xlink="http://www.w3.org/1999/xlink" x="0px" y="0px" width="361px" height="361px"
	 viewBox="0 0 361 361" xml:space="preserve">
<g display="none">
	<g display="inline">
		<path fill="#FFFFFF" d="M243.067,243.667c-0.405,4.517-5.74,3.538-8.887,3.538c-4.967,0-9.934,0-14.9,0c-2.627,0-5.254,0-7.881,0
			c-5.083,0-3.538-8.915-3.538-12.083c0-4.516,6.011-3.538,8.888-3.538c4.967,0,9.934,0,14.9,0c2.627,0,5.254,0,7.881,0
			C244.611,231.584,243.067,240.5,243.067,243.667c0,4.514,7,4.514,7,0c0-5.83,0.965-11.909-3.528-16.403
			c-3.681-3.681-10.177-2.68-14.891-2.68c-6.085,0-12.171,0-18.256,0c-6.785,0-11.889,3.365-12.532,10.538
			c-0.5,5.574-0.65,12.224,3.529,16.403c3.681,3.681,10.177,2.68,14.891,2.68c6.085,0,12.171,0,18.256,0
			c6.785,0,11.888-3.365,12.531-10.538C250.471,239.17,243.467,239.209,243.067,243.667z"/>
	</g>
	<path display="inline" fill="#FFFFFF" stroke="#FFFFFF" stroke-miterlimit="10" d="M215.671,224.774
		c0,2.742-2.224,4.965-4.966,4.965l0,0c-2.742,0-4.965-2.223-4.965-4.965v-8c0-2.742,2.223-4.965,4.965-4.965l0,0
		c2.742,0,4.966,2.223,4.966,4.965V224.774z"/>
	<g display="inline">
		<path fill="#FFFFFF" d="M270.653,244.083c-0.504,4.511-11.475,2.846-14.37,2.846c-2.118,0-6.216,0.434-6.216-2.889
			c0-1.212,0-2.424,0-3.636c0-8.888,0-17.776,0-26.664c0-4.421,11.894-2.846,14.37-2.846c2.118,0,6.216-0.434,6.216,2.889
			c0,1.212,0,2.424,0,3.636C270.653,226.307,270.653,235.195,270.653,244.083c0,4.514,7,4.514,7,0
			c0-10.395,1.012-21.292-0.143-31.621c-1.015-9.076-10.898-8.567-17.632-8.567c-7.624,0-15.75,0.355-16.811,9.846
			c-0.55,4.924,0,10.222,0,15.171c0,5.419-0.46,11.056,0.143,16.45c1.015,9.076,10.898,8.567,17.632,8.567
			c7.624,0,15.75-0.355,16.811-9.846C278.154,239.601,271.149,239.649,270.653,244.083z"/>
	</g>
	<g display="inline">
		<path fill="#FFFFFF" d="M244.636,210.067c13.609,0,27.218,0,40.828,0c4.514,0,4.514-7,0-7c-13.609,0-27.218,0-40.828,0
			C240.122,203.067,240.122,210.067,244.636,210.067L244.636,210.067z"/>
	</g>
	<g display="inline">
		<path fill="#FFFFFF" d="M209.462,254.206c19.449,0,38.897,0,58.346,0c4.514,0,4.514-7,0-7c-19.449,0-38.897,0-58.346,0
			C204.948,247.206,204.948,254.206,209.462,254.206L209.462,254.206z"/>
	</g>
	<g display="inline">
		<path fill="#FFFFFF" d="M214.93,260.636c-0.447,8.294-12.416,8.294-12.862,0C201.621,252.338,214.485,252.383,214.93,260.636
			c0.242,4.489,7.243,4.513,7,0c-0.409-7.591-5.839-13.022-13.431-13.431c-7.575-0.408-13.056,6.453-13.432,13.431
			c-0.408,7.576,6.454,13.056,13.432,13.432c7.575,0.408,13.055-6.454,13.431-13.432
			C222.173,256.124,215.171,256.147,214.93,260.636z"/>
	</g>
	<g display="inline">
		<path fill="#FFFFFF" d="M267.619,260.636c-0.447,8.294-12.416,8.294-12.863,0C254.31,252.338,267.175,252.383,267.619,260.636
			c0.242,4.489,7.243,4.513,7,0c-0.409-7.591-5.84-13.022-13.431-13.431c-7.575-0.408-13.056,6.453-13.432,13.431
			c-0.408,7.576,6.454,13.056,13.432,13.432c7.575,0.408,13.055-6.454,13.431-13.432
			C274.862,256.124,267.861,256.147,267.619,260.636z"/>
	</g>
	<g display="inline">
		<path fill="#FFFFFF" d="M241.413,260.636c-0.447,8.294-12.416,8.294-12.863,0C228.104,252.338,240.969,252.383,241.413,260.636
			c0.242,4.489,7.243,4.513,7,0c-0.409-7.591-5.84-13.022-13.431-13.431c-7.575-0.408-13.056,6.453-13.432,13.431
			c-0.408,7.576,6.454,13.056,13.432,13.432c7.575,0.408,13.055-6.454,13.431-13.432
			C248.656,256.124,241.655,256.147,241.413,260.636z"/>
	</g>
</g>
<g display="none">
	<path display="inline" fill="#FFFFFF" d="M153.083,188.452c-0.335,15.337-12.33,27.331-27.667,27.667
		c-15.336,0.335-27.342-12.835-27.667-27.667c-0.335-15.336,12.835-27.342,27.667-27.667
		C140.753,160.45,152.759,173.621,153.083,188.452c0.099,4.507,7.099,4.517,7,0c-0.419-19.18-15.487-34.247-34.667-34.667
		c-19.178-0.419-34.261,16.118-34.667,34.667c-0.419,19.178,16.118,34.261,34.667,34.667c19.178,0.419,34.261-16.118,34.667-34.667
		C160.182,183.936,153.182,183.945,153.083,188.452z"/>
</g>
<g>
	<g>
		<path fill="#FFFFFF" d="M162.108,259.641c-22.028-4.718-44.056-9.437-66.083-14.155c-5.01-1.073-6.699,2.217-7.611,6.475
			c-1.14,5.32-2.278,10.64-3.418,15.96c-1.525,7.116,5.93,7.86,10.894,8.924c5.286,1.132,12.971,4.571,16.173-1.699
			c-0.565,0.23-1.129,0.46-1.694,0.689c8.333,1.785,16.665,3.569,24.998,5.354c-0.367-0.482-0.734-0.964-1.101-1.446
			c0.337,6.657,6.875,6.794,12.026,7.897c3.859,0.827,11.335,3.941,14.293-0.29c2.421-3.462,2.658-9.101,3.541-13.224
			C165.174,269.223,168.395,262.086,162.108,259.641c-1.806-0.703-2.58,2.199-0.798,2.893c3.922,1.525-1.191,15.987-1.965,19.602
			c-1.274,5.949-6.268,3.896-10.386,3.014c-2.952-0.632-11.462-0.807-11.695-5.405c-0.032-0.641-0.43-1.303-1.101-1.446
			c-8.333-1.785-16.665-3.569-24.998-5.354c-0.633-0.136-1.378,0.07-1.694,0.689c-2.4,4.7-13.362,0.196-16.938-0.57
			c-3.414-0.731-4.919-3.064-4.135-6.726c0.337-1.573,0.674-3.147,1.011-4.721c0.442-2.064,1.422-14.178,5.099-13.39
			c2.786,0.597,5.573,1.193,8.359,1.791c19.481,4.172,38.961,8.345,58.442,12.518C163.197,262.938,164,260.045,162.108,259.641z"/>
	</g>
	<g>
		<g>
			<path fill="#FFFFFF" d="M118.89,269.204c1.078,0.231,2.155,0.461,3.232,0.692c0.799,0.171,1.619-0.226,1.845-1.047
				c0.208-0.753-0.248-1.674-1.047-1.845c-1.078-0.231-2.155-0.461-3.232-0.692c-0.799-0.171-1.619,0.226-1.845,1.047
				C117.635,268.112,118.09,269.033,118.89,269.204L118.89,269.204z"/>
		</g>
		<g>
			<path fill="#FFFFFF" d="M126.898,270.918c1.078,0.231,2.155,0.462,3.232,0.692c0.799,0.171,1.619-0.226,1.845-1.047
				c0.208-0.753-0.248-1.674-1.047-1.845c-1.078-0.231-2.155-0.462-3.232-0.692c-0.799-0.171-1.619,0.226-1.845,1.047
				C125.644,269.827,126.099,270.747,126.898,270.918L126.898,270.918z"/>
		</g>
	</g>
	<g>
		<g>
			<path fill="#FFFFFF" d="M142.906,267.319c0.106-0.324,0.405-0.398,0.682-0.339c-0.097-0.021-0.194-0.042-0.291-0.063
				c-0.298-0.064-0.597-0.129-0.895-0.193c-0.194-0.042-0.562-0.229-0.257,0.024c0.227,0.188,0.087,0.808,0.18,0.376
				c0.026-0.12,0.052-0.239,0.078-0.359c-0.071,0.33-0.428,0.393-0.683,0.338c0.097,0.021,0.194,0.042,0.292,0.063
				c0.298,0.064,0.597,0.128,0.895,0.192c0.196,0.042,0.56,0.229,0.256-0.024c-0.226-0.188-0.087-0.807-0.18-0.375
				C142.957,267.08,142.931,267.2,142.906,267.319c-0.404,1.887,2.488,2.689,2.893,0.798c0.167-0.779,0.328-1.548-0.077-2.296
				c-0.406-0.751-1.091-1.154-1.904-1.329c-0.438-0.094-0.876-0.188-1.315-0.283c-1.364-0.293-2.568,0.455-2.993,1.76
				c-0.544,1.67,0.229,3.247,1.98,3.624c0.438,0.095,0.877,0.189,1.315,0.284c1.363,0.294,2.567-0.457,2.994-1.759
				C146.402,266.273,143.505,265.489,142.906,267.319z"/>
		</g>
		<g>
			<path fill="#FFFFFF" d="M152.662,269.414c0.105-0.323,0.405-0.398,0.681-0.339c-0.097-0.021-0.194-0.042-0.291-0.063
				c-0.298-0.064-0.597-0.128-0.895-0.192c-0.195-0.042-0.561-0.229-0.256,0.024c0.227,0.188,0.087,0.808,0.18,0.376
				c0.025-0.12,0.051-0.24,0.077-0.359c-0.071,0.332-0.427,0.393-0.682,0.338c0.097,0.021,0.194,0.042,0.292,0.063
				c0.298,0.064,0.597,0.128,0.895,0.192c0.196,0.042,0.56,0.229,0.256-0.024c-0.226-0.189-0.088-0.808-0.18-0.376
				C152.712,269.175,152.687,269.294,152.662,269.414c-0.403,1.887,2.489,2.689,2.893,0.798c0.167-0.779,0.328-1.549-0.077-2.296
				c-0.406-0.751-1.091-1.154-1.904-1.329c-0.438-0.094-0.876-0.188-1.315-0.283c-1.365-0.293-2.566,0.457-2.994,1.76
				c-0.547,1.668,0.233,3.249,1.98,3.625c0.438,0.094,0.877,0.188,1.315,0.283c1.365,0.294,2.567-0.455,2.995-1.759
				C156.159,268.368,153.261,267.584,152.662,269.414z"/>
		</g>
		<g>
			<path fill="#FFFFFF" d="M143.174,275.694c0.106-0.324,0.406-0.397,0.683-0.338c-0.097-0.021-0.194-0.042-0.292-0.063
				c-0.298-0.064-0.597-0.128-0.896-0.193c-0.197-0.042-0.561-0.229-0.256,0.024c0.227,0.189,0.086,0.808,0.18,0.376
				c0.026-0.12,0.052-0.24,0.078-0.359c-0.071,0.331-0.428,0.393-0.683,0.338c0.097,0.021,0.194,0.042,0.292,0.063
				c0.298,0.064,0.597,0.129,0.895,0.193c0.194,0.042,0.563,0.229,0.256-0.025c-0.227-0.188-0.087-0.807-0.18-0.375
				C143.226,275.455,143.2,275.575,143.174,275.694c-0.404,1.887,2.487,2.689,2.893,0.798c0.167-0.779,0.329-1.549-0.076-2.296
				c-0.407-0.752-1.092-1.153-1.904-1.329c-0.438-0.094-0.876-0.189-1.315-0.284c-1.363-0.294-2.568,0.457-2.993,1.76
				c-0.544,1.668,0.228,3.248,1.979,3.625c0.438,0.095,0.877,0.189,1.316,0.283c1.364,0.293,2.567-0.457,2.993-1.76
				C146.67,274.648,143.772,273.864,143.174,275.694z"/>
		</g>
		<g>
			<path fill="#FFFFFF" d="M152.931,277.79c0.106-0.324,0.405-0.398,0.682-0.338c-0.097-0.021-0.194-0.042-0.292-0.063
				c-0.298-0.064-0.597-0.128-0.895-0.192c-0.197-0.042-0.561-0.229-0.257,0.024c0.227,0.189,0.088,0.807,0.181,0.375
				c0.026-0.12,0.052-0.239,0.077-0.359c-0.071,0.331-0.427,0.393-0.681,0.338c0.097,0.021,0.194,0.042,0.291,0.063
				c0.298,0.064,0.596,0.128,0.894,0.192c0.195,0.042,0.561,0.229,0.257-0.024c-0.227-0.188-0.087-0.807-0.18-0.375
				C152.982,277.55,152.956,277.67,152.931,277.79c-0.404,1.887,2.487,2.689,2.893,0.798c0.167-0.779,0.329-1.549-0.076-2.296
				c-0.407-0.751-1.092-1.154-1.904-1.329c-0.438-0.094-0.876-0.188-1.314-0.283c-1.365-0.294-2.567,0.456-2.995,1.76
				c-0.546,1.668,0.231,3.249,1.979,3.625c0.438,0.094,0.877,0.188,1.315,0.283c1.365,0.293,2.566-0.457,2.994-1.76
				C156.429,276.744,153.532,275.961,152.931,277.79z"/>
		</g>
	</g>
	<g>
		<path fill="#FFFFFF" d="M130.125,253.439c1.968-9.372-5.103-16.925-13.707-19.306c-1.868-0.517-2.66,2.377-0.798,2.893
			c6.926,1.917,13.237,7.876,11.612,15.616C126.836,254.529,129.728,255.332,130.125,253.439L130.125,253.439z"/>
	</g>
	<g>
		<path fill="#FFFFFF" d="M108.315,259.61c-0.854-0.183-1.708-0.366-2.562-0.548c0.349,0.615,0.698,1.23,1.047,1.845
			c0.637-2.971,1.176-6.115-2.629-6.928c-3.833-0.818-4.707,1.943-5.37,5.036c0.615-0.349,1.23-0.698,1.845-1.047
			c-2.971-0.636-6.114-1.175-6.927,2.629c-0.819,3.833,1.943,4.708,5.036,5.37c-0.349-0.615-0.698-1.23-1.047-1.845
			c-0.638,2.972-1.175,6.112,2.629,6.928c3.832,0.821,4.708-1.943,5.371-5.035c-0.615,0.349-1.23,0.698-1.845,1.047
			c2.228,0.477,4.972,1.375,6.417-1.091C111.712,263.527,110.964,260.642,108.315,259.61c-1.805-0.703-2.58,2.198-0.798,2.893
			c0.748,0.292,0.451,2.375-0.438,2.185c-0.806-0.173-1.612-0.345-2.418-0.518c-0.763-0.163-1.667,0.215-1.845,1.047
			c-0.212,0.991-0.178,3.262-1.681,2.939c-1.626-0.349-0.786-2.06-0.534-3.237c0.164-0.762-0.215-1.667-1.047-1.845
			c-0.992-0.212-3.262-0.176-2.941-1.68c0.347-1.625,2.06-0.786,3.236-0.535c0.763,0.163,1.667-0.215,1.845-1.047
			c0.213-0.991,0.178-3.262,1.68-2.941c1.626,0.347,0.787,2.06,0.535,3.237c-0.164,0.762,0.215,1.667,1.047,1.845
			c0.854,0.183,1.708,0.366,2.562,0.548C109.404,262.906,110.207,260.015,108.315,259.61z"/>
	</g>
</g>
<g id="Schiff_x5F_orig" display="none">
	<path display="inline" fill="#FFFFFF" d="M209.938,280.966c1.675,2.152,2.474,2.659,4.432,2.659h35.971
		c0.517,0,2.733,0.303,4.06-0.834l23.34-17.28c1.923-1.378,1.479-4.313-2.509-4.313h-75.044c-3.545,0-4.505,2.122-3.094,4.096
		L209.938,280.966z"/>
	<g display="inline">
		<path fill="#FFFFFF" d="M240.701,259.022c11.504,0,23.008,0,34.512,0c1.054,0,1.98-1.307,1.295-2.257
			c-11.504-15.954-23.008-31.908-34.512-47.862c-0.833-1.154-2.795-0.837-2.795,0.757c0,15.954,0,31.908,0,47.862
			c0,1.935,3,1.935,3,0c0-15.954,0-31.908,0-47.862c-0.932,0.252-1.863,0.505-2.795,0.757
			c11.504,15.954,23.008,31.908,34.512,47.862c0.432-0.752,0.864-1.505,1.295-2.257c-11.504,0-23.008,0-34.512,0
			C238.767,256.022,238.767,259.022,240.701,259.022z"/>
	</g>
	<g display="inline">
		<path fill="#FFFFFF" d="M231.33,207.038c0,17.234,0,34.469,0,51.703c0,4.514,7,4.514,7,0c0-17.234,0-34.469,0-51.703
			C238.33,202.523,231.33,202.523,231.33,207.038L231.33,207.038z"/>
	</g>
	<g display="inline">
		<path fill="#FFFFFF" d="M228.955,256.022c-6.592,0-13.184,0-19.776,0c0.482,0.633,0.964,1.266,1.446,1.899
			c6.592-15.954,13.184-31.908,19.776-47.862c-0.982-0.133-1.964-0.266-2.946-0.399c0,15.954,0,31.908,0,47.862c0,1.935,3,1.935,3,0
			c0-15.954,0-31.908,0-47.862c0-1.816-2.335-1.879-2.946-0.399c-6.592,15.954-13.184,31.908-19.776,47.862
			c-0.381,0.921,0.563,1.899,1.446,1.899c6.592,0,13.184,0,19.776,0C230.89,259.022,230.89,256.022,228.955,256.022z"/>
	</g>
</g>
<g id="Schiff_1_">
	<path fill="#FFFFFF" d="M222.632,292.341c1.894,1.963,2.742,2.382,4.688,2.174l35.768-3.813c0.514-0.055,2.75,0.011,3.949-1.26
		l21.377-19.657c1.766-1.574,1.014-4.445-2.952-4.022l-74.621,7.956c-3.525,0.376-4.255,2.588-2.642,4.401L222.632,292.341z"/>
	<g>
		<path fill="#FFFFFF" d="M250.736,267.268c11.439-1.22,22.878-2.439,34.317-3.659c1.299-0.139,1.988-1.527,1.061-2.561
			c-13.13-14.645-26.261-29.289-39.391-43.934c-0.827-0.923-2.7-0.245-2.561,1.061c1.691,15.864,3.383,31.728,5.074,47.592
			c0.203,1.903,3.205,1.923,3,0c-1.691-15.864-3.383-31.728-5.074-47.592c-0.854,0.354-1.707,0.707-2.561,1.061
			c13.13,14.645,26.261,29.289,39.391,43.934c0.354-0.854,0.707-1.707,1.061-2.561c-11.439,1.22-22.878,2.439-34.317,3.659
			C248.833,264.47,248.813,267.473,250.736,267.268z"/>
	</g>
	<g>
		<path fill="#FFFFFF" d="M236.045,216.19c1.827,17.137,3.654,34.274,5.481,51.412c0.474,4.44,7.479,4.486,7,0
			c-1.827-17.137-3.654-34.274-5.481-51.412C242.572,211.75,235.567,211.704,236.045,216.19L236.045,216.19z"/>
	</g>
	<g>
		<path fill="#FFFFFF" d="M239.056,265.513c-6.555,0.699-13.109,1.398-19.664,2.097c0.482,0.633,0.964,1.266,1.446,1.899
			c4.863-16.563,9.727-33.126,14.59-49.689c-0.982-0.133-1.964-0.266-2.946-0.399c1.691,15.864,3.383,31.729,5.074,47.593
			c0.203,1.903,3.205,1.923,3,0c-1.691-15.864-3.383-31.729-5.074-47.593c-0.173-1.624-2.442-2.115-2.946-0.399
			c-4.863,16.563-9.727,33.126-14.59,49.689c-0.254,0.864,0.471,2.003,1.446,1.899c6.555-0.699,13.109-1.398,19.664-2.097
			C240.959,268.31,240.979,265.308,239.056,265.513z"/>
	</g>
</g>
<g>
	<path fill="#FFFFFF" stroke="#FFFFFF" stroke-width="10" stroke-miterlimit="10" d="M76.315,195.021
		c0,1.366,1.813,2.473,4.048,2.473H210.36c2.235,0,4.048-1.107,4.048-2.473v-14.43c0-1.367-1.813-2.473-4.048-2.473H80.363
		c-2.235,0-4.048,1.106-4.048,2.473V195.021z"/>
	<path fill="#FFFFFF" stroke="#FFFFFF" stroke-width="10" stroke-miterlimit="10" d="M121.412,176.154
		c0,2.288,1.85,4.144,4.131,4.144h76.073c2.28,0,4.13-1.855,4.13-4.144v-18.299c0-2.289-1.85-4.143-4.13-4.143h-76.073
		c-2.281,0-4.131,1.854-4.131,4.143V176.154z"/>
	<g>
		<path fill="#FFFFFF" d="M210.408,144.206c0,23.732,0,47.465,0,71.197c0,6.449,10,6.449,10,0c0-23.732,0-47.465,0-71.197
			C220.408,137.757,210.408,137.757,210.408,144.206L210.408,144.206z"/>
	</g>
	<g>
		<path fill="#FFFFFF" d="M67.315,137.68c0,26.163,0,52.326,0,78.488c0,6.449,10,6.449,10,0c0-26.163,0-52.326,0-78.488
			C77.315,131.231,67.315,131.231,67.315,137.68L67.315,137.68z"/>
	</g>
	<path fill="#FFFFFF" stroke="#FFFFFF" stroke-width="10" stroke-miterlimit="10" d="M81.802,170.192c0,0.775,0.59,1.403,1.32,1.403
		h24.316c0.729,0,1.32-0.628,1.32-1.403v-6.197c0-0.775-0.591-1.403-1.32-1.403H83.122c-0.729,0-1.32,0.628-1.32,1.403V170.192z"/>
</g>
<g>
	<g>
		<path fill="#FFFFFF" d="M192.442,80.17c31.303,0,62.605,0,93.908,0c4.514,0,4.514-7,0-7c-31.303,0-62.605,0-93.908,0
			C187.928,73.17,187.928,80.17,192.442,80.17L192.442,80.17z"/>
	</g>
	
		<line fill="none" stroke="#FFFFFF" stroke-width="7" stroke-miterlimit="10" x1="277.752" y1="155.668" x2="192.442" y2="155.668"/>
	<line fill="none" stroke="#FFFFFF" stroke-width="7" stroke-miterlimit="10" x1="239.527" y1="89.858" x2="239.527" y2="153.712"/>
	<g>
		<path fill="#FFFFFF" d="M236.648,115.711c2.206,0,4.412,0,6.618,0c4.514,0,4.514-7,0-7c-2.206,0-4.412,0-6.618,0
			C232.134,108.711,232.134,115.711,236.648,115.711L236.648,115.711z"/>
	</g>
	<g>
		<path fill="#FFFFFF" d="M274.958,78.753c-0.378,4.219-9.253,5.84-12.325,6.591c-7.511,1.837-15.365,2.27-23.069,2.325
			c-7.734,0.055-15.516-0.649-23.069-2.325c-3.068-0.681-11.951-2.42-12.325-6.591c-0.5,0.5-1,1-1.5,1.5
			c24.597-0.054,49.19-0.057,73.787,0c1.935,0.004,1.935-2.996,0-3c-24.597-0.057-49.19-0.054-73.787,0
			c-0.762,0.001-1.573,0.683-1.5,1.5c0.42,4.694,5.694,6.696,9.526,8.072c9.063,3.256,19.341,3.776,28.868,3.844
			c9.637,0.069,19.665-0.845,28.868-3.844c3.844-1.253,9.113-3.458,9.526-8.072C278.13,76.826,275.128,76.843,274.958,78.753z"/>
	</g>
	<g>
		<path fill="#FFFFFF" d="M190.883,80.438c1.757,0.079,9.381-0.473,10.078,0.658c1.299,2.105,1.088,5.601,1.235,7.963
			c0.218,3.496,0.219,7.008,0.225,10.509c0.015,8.345,0.217,16.748-1.239,24.993c-0.92,5.215-3.456,16.95-10.3,17.424
			c0.5,0.5,1,1,1.5,1.5c-0.068-21.517-0.071-43.03,0-64.546c0.006-1.935-2.994-1.934-3,0c-0.071,21.517-0.068,43.029,0,64.546
			c0.002,0.775,0.682,1.557,1.5,1.5c6.842-0.475,9.932-8.157,11.756-13.766c3.301-10.148,2.767-21.125,2.782-31.651
			c0.006-4.623-0.05-9.255-0.484-13.86c-0.2-2.114-0.336-5.169-1.869-6.833c-2.276-2.471-9.146-1.3-12.186-1.437
			C188.948,77.352,188.957,80.352,190.883,80.438z"/>
	</g>
	<g>
		<path fill="#FFFFFF" d="M287.945,77.166c-3.04,0.136-9.909-1.035-12.186,1.437c-1.552,1.685-1.623,4.702-1.869,6.833
			c-0.529,4.583-0.476,9.254-0.484,13.86c-0.019,10.652-0.228,21.327,2.782,31.651c1.641,5.626,5.036,13.3,11.756,13.766
			c0.818,0.057,1.498-0.725,1.5-1.5c0.068-21.517,0.071-43.03,0-64.546c-0.006-1.934-3.006-1.935-3,0
			c0.071,21.517,0.068,43.029,0,64.546c0.5-0.5,1-1,1.5-1.5c-6.938-0.481-9.241-12.208-10.3-17.424
			c-1.657-8.161-1.227-16.706-1.239-24.993c-0.008-5.594-0.893-13.227,1.46-18.472c0.449-1.002,8.503-0.587,10.078-0.658
			C289.872,80.079,289.88,77.079,287.945,77.166z"/>
	</g>
	<g>
		<path fill="#FFFFFF" d="M287.945,186.867c-3.097-0.139-6.195-0.278-9.292-0.417c-0.721-0.032-1.51,0.037-2.216-0.105
			c-0.172-0.035-0.009-5.141-0.005-5.512c0.091-7.663,0.302-15.096,2.245-22.562c1.125-4.327,3.762-12.569,9.268-12.951
			c-0.5-0.5-1-1-1.5-1.5c0.047,14.85,0.134,29.697,0,44.546c-0.018,1.936,2.982,1.934,3,0c0.134-14.849,0.047-29.697,0-44.546
			c-0.002-0.775-0.682-1.557-1.5-1.5c-5.353,0.372-8.547,5.406-10.378,9.958c-3.69,9.176-4.025,18.797-4.135,28.555
			c-0.03,2.635-0.984,8.171,2.935,8.524c3.833,0.346,7.731,0.337,11.578,0.51C289.88,189.954,289.872,186.954,287.945,186.867z"/>
	</g>
	<g>
		<path fill="#FFFFFF" d="M190.883,189.985c3.846-0.173,7.745-0.164,11.578-0.51c3.918-0.353,2.966-5.889,2.935-8.524
			c-0.116-9.76-0.443-19.376-4.135-28.555c-1.831-4.551-5.025-9.586-10.378-9.958c-0.818-0.057-1.498,0.725-1.5,1.5
			c-0.047,14.85-0.134,29.697,0,44.546c0.018,1.934,3.018,1.936,3,0c-0.134-14.849-0.047-29.697,0-44.546c-0.5,0.5-1,1-1.5,1.5
			c5.598,0.388,8.008,8.628,9.268,12.951c2.144,7.354,2.16,14.978,2.245,22.562c0.02,1.766,0.198,3.647-0.103,5.399
			c-0.048,0.281-1.595,0.194-2.118,0.218c-3.097,0.139-6.195,0.278-9.292,0.417C188.957,187.071,188.948,190.072,190.883,189.985z"
			/>
	</g>
</g>
</svg>
