<?xml version="1.0" encoding="iso-8859-1"?>
<!-- Generator: Adobe Illustrator 16.0.0, SVG Export Plug-In . SVG Version: 6.00 Build 0)  -->
<!DOCTYPE svg PUBLIC "-//W3C//DTD SVG 1.1//EN" "http://www.w3.org/Graphics/SVG/1.1/DTD/svg11.dtd">
<svg version="1.1" xmlns="http://www.w3.org/2000/svg" xmlns:xlink="http://www.w3.org/1999/xlink" x="0px" y="0px" width="361px"
	 height="361px" viewBox="0 0 361 361" style="enable-background:new 0 0 361 361;" xml:space="preserve">
<g id="scene_x5F_terrace">
	<g>
		<g>
			<path style="fill:#FFFFFF;" d="M127.412,146.07c46.192-18.91,92.385-37.821,138.577-56.731c7.613-3.117,15.227-6.233,22.84-9.35
				c5.884-2.409,3.312-12.086-2.658-9.643c-46.192,18.91-92.385,37.821-138.578,56.731c-7.613,3.117-15.226,6.233-22.839,9.35
				C118.87,138.836,121.442,148.514,127.412,146.07L127.412,146.07z"/>
		</g>
	</g>
	<path style="fill:#FFFFFF;" d="M277.166,285.667c0,3.313-2.686,6-6,6H143.5c-3.313,0-6-2.687-6-6V274c0-3.313,2.687-6,6-6h127.667
		c3.314,0,6,2.687,6,6V285.667z"/>
	<g>
		<g>
			<path style="fill:#FFFFFF;" d="M238.669,212.901c-1.882,9.514-3.765,19.026-5.646,28.54c-1.246,6.298,8.392,8.981,9.643,2.658
				c1.882-9.514,3.765-19.026,5.646-28.54C249.558,209.262,239.92,206.578,238.669,212.901L238.669,212.901z"/>
		</g>
	</g>
	<g>
		<g>
			<path style="fill:#FFFFFF;" d="M232.166,244c-0.111,8.111-0.222,16.223-0.333,24.334c-0.088,6.452,9.912,6.443,10,0
				c0.111-8.111,0.222-16.223,0.333-24.334C242.254,237.548,232.254,237.557,232.166,244L232.166,244z"/>
		</g>
	</g>
	<g>
		<g>
			<path style="fill:#FFFFFF;" d="M237.166,239.334c-9.667,0-19.333,0-29,0c-6.448,0-6.448,10,0,10c9.667,0,19.333,0,29,0
				C243.614,249.334,243.614,239.334,237.166,239.334L237.166,239.334z"/>
		</g>
	</g>
	<g>
		<g>
			<path style="fill:#FFFFFF;" d="M205.248,246.528c-0.931,7.436-1.862,14.872-2.793,22.308c-0.8,6.388,9.21,6.311,10,0
				c0.931-7.436,1.862-14.872,2.793-22.308C216.048,240.141,206.038,240.218,205.248,246.528L205.248,246.528z"/>
		</g>
	</g>
	<g>
		<g>
			<path style="fill:#FFFFFF;" d="M154.5,237c0,9.889,0,19.778,0,29.667c0,6.448,10,6.448,10,0c0-9.889,0-19.778,0-29.667
				C164.5,230.552,154.5,230.552,154.5,237L154.5,237z"/>
		</g>
	</g>
	<g>
		<g>
			<path style="fill:#FFFFFF;" d="M140.833,236.667c18.333,0,36.667,0,55,0c6.448,0,6.448-10,0-10c-18.333,0-36.667,0-55,0
				C134.384,226.667,134.384,236.667,140.833,236.667L140.833,236.667z"/>
		</g>
	</g>
	<g>
		<g>
			<path style="fill:#FFFFFF;" d="M165.5,281.334c-30.333,0-60.667,0-91,0c-6.449,0-6.449,10,0,10c30.333,0,60.667,0,91,0
				C171.949,291.334,171.949,281.334,165.5,281.334L165.5,281.334z"/>
		</g>
	</g>
	<g>
		<g>
			<path style="fill:#FFFFFF;" d="M172.5,236c0,9.889,0,19.778,0,29.667c0,6.448,10,6.448,10,0c0-9.889,0-19.778,0-29.667
				C182.5,229.552,172.5,229.552,172.5,236L172.5,236z"/>
		</g>
	</g>
	<line style="fill:none;stroke:#FFFFFF;stroke-width:10;" x1="269.166" y1="86.797" x2="269.166" y2="271.334"/>
</g>
<g id="Ebene_1">
</g>
</svg>
