<?xml version="1.0" encoding="iso-8859-1"?>
<!-- Generator: Adobe Illustrator 16.0.0, SVG Export Plug-In . SVG Version: 6.00 Build 0)  -->
<!DOCTYPE svg PUBLIC "-//W3C//DTD SVG 1.1//EN" "http://www.w3.org/Graphics/SVG/1.1/DTD/svg11.dtd">
<svg version="1.1" xmlns="http://www.w3.org/2000/svg" xmlns:xlink="http://www.w3.org/1999/xlink" x="0px" y="0px" width="361px"
	 height="361px" viewBox="0 0 361 361" style="enable-background:new 0 0 361 361;" xml:space="preserve">
<g id="scene_x5F_making_x5F_love">
	<circle style="fill:#FFFFFF;" cx="139.385" cy="102.309" r="19.638"/>
	<g>
		<g>
			<path style="fill:#FFFFFF;" d="M90.382,179.54c12.926,10.368,25.853,20.735,38.779,31.102c3.182,2.552,7.51,3.08,10.608-0.058
				c2.647-2.681,3.14-8.044-0.057-10.608c-12.926-10.367-25.853-20.734-38.779-31.101c-3.182-2.552-7.51-3.081-10.608,0.057
				C87.677,171.612,87.185,176.976,90.382,179.54L90.382,179.54z"/>
		</g>
	</g>
	<g>
		<g>
			<path style="fill:#FFFFFF;" d="M112.723,137.985c-7.93,10.643-15.86,21.285-23.79,31.927c-2.447,3.284-0.484,8.38,2.745,10.245
				c3.847,2.221,7.805,0.53,10.245-2.745c7.93-10.643,15.86-21.285,23.79-31.927c2.447-3.284,0.484-8.38-2.745-10.245
				C119.121,133.019,115.163,134.71,112.723,137.985L112.723,137.985z"/>
		</g>
	</g>
	<g>
		<g>
			<path style="fill:#FFFFFF;" d="M222.258,224.969c2.62,13.964,5.24,27.928,7.86,41.893c1.785,9.515,16.261,5.562,14.488-3.883
				c-2.62-13.964-5.24-27.928-7.86-41.893C234.961,211.571,220.485,215.524,222.258,224.969L222.258,224.969z"/>
		</g>
	</g>
	<g>
		<g>
			<path style="fill:#FFFFFF;" d="M237.309,273.959c15.43,1.11,30.859,2.221,46.29,3.331c9.674,0.696,9.693-14.313,0.107-15.004
				c-15.43-1.11-30.859-2.221-46.29-3.331C227.742,258.259,227.723,273.269,237.309,273.959L237.309,273.959z"/>
		</g>
	</g>
	<circle style="fill:#FFFFFF;" cx="258.627" cy="212.219" r="18.259"/>
	
		<ellipse transform="matrix(0.9671 0.2544 -0.2544 0.9671 67.7656 -44.817)" style="fill:#FFFFFF;" cx="207.154" cy="239.586" rx="9.313" ry="13.177"/>
	<g>
		<g>
			<path style="fill:#FFFFFF;" d="M118.961,209.49c6.252,19.788,12.503,39.576,18.755,59.365
				c4.357,13.792,26.109,8.027,21.733-5.824c-6.252-19.788-12.503-39.576-18.755-59.365
				C136.337,189.874,114.585,195.639,118.961,209.49L118.961,209.49z"/>
		</g>
	</g>
	<g>
		<g>
			<path style="fill:#FFFFFF;" d="M104.36,277.041c14.547-0.225,29.094-0.448,43.641-0.672c14.514-0.224,14.663-22.729,0.162-22.506
				c-14.547,0.225-29.094,0.448-43.641,0.672C90.008,254.759,89.859,277.264,104.36,277.041L104.36,277.041z"/>
		</g>
	</g>
	<g>
		<g>
			<path style="fill:#FFFFFF;" d="M119.841,243.956c15.634-8.922,31.267-17.845,46.9-26.768
				c12.592-7.187,1.223-26.608-11.393-19.408c-15.634,8.922-31.267,17.845-46.9,26.768
				C95.856,231.734,107.226,251.156,119.841,243.956L119.841,243.956z"/>
		</g>
	</g>
	<path style="fill:#FFFFFF;" d="M127.79,126.164c-10.424,0-18.874,8.45-18.874,18.874v62.83l0,0c0,10.424,8.45,18.873,18.874,18.873
		c10.423,0,18.872-8.449,18.873-18.873l0,0v-62.83C146.662,134.614,138.212,126.164,127.79,126.164z"/>
	<path style="fill:#FFFFFF;" d="M141.889,206.636c-2.411,9.421,3.677,19.116,13.596,21.655l59.794,15.304l0,0
		c9.92,2.538,19.916-3.04,22.327-12.46c2.41-9.421-3.677-19.116-13.595-21.656l0,0l-59.795-15.303
		C154.297,191.637,144.301,197.216,141.889,206.636z"/>
	<g>
		<g>
			<path style="fill:#FFFFFF;" d="M74.509,222.802c10.949,7.48,21.899,14.962,32.848,22.443c5.067,3.462,12.477,0.889,15.368-4.118
				c3.239-5.609,0.941-11.912-4.118-15.368c-10.949-7.48-21.899-14.962-32.848-22.443c-5.067-3.462-12.477-0.889-15.368,4.118
				C67.152,213.043,69.45,219.346,74.509,222.802L74.509,222.802z"/>
		</g>
	</g>
</g>
<g id="Ebene_1">
</g>
</svg>
