<?xml version="1.0" encoding="iso-8859-1"?>
<!-- Generator: Adobe Illustrator 16.0.0, SVG Export Plug-In . SVG Version: 6.00 Build 0)  -->
<!DOCTYPE svg PUBLIC "-//W3C//DTD SVG 1.1 Tiny//EN" "http://www.w3.org/Graphics/SVG/1.1/DTD/svg11-tiny.dtd">
<svg version="1.1" baseProfile="tiny" id="scene_x5F_day"
	 xmlns="http://www.w3.org/2000/svg" xmlns:xlink="http://www.w3.org/1999/xlink" x="0px" y="0px" width="361px" height="361px"
	 viewBox="0 0 361 361" xml:space="preserve">
<g>
	<path fill="#FFFFFF" d="M154.62,73.872c-4.521,4.521-9.042,9.043-13.564,13.564c-4.563,4.564,2.507,11.635,7.071,7.071
		c4.521-4.521,9.042-9.043,13.564-13.564C166.255,76.379,159.184,69.308,154.62,73.872L154.62,73.872z"/>
</g>
<g>
	<path fill="#FFFFFF" d="M189.313,113.017c-12.006,0-24.012,0-36.018,0c-6.449,0-6.449,10,0,10c12.006,0,24.012,0,36.018,0
		C195.761,123.017,195.761,113.017,189.313,113.017L189.313,113.017z"/>
</g>
<g>
	<path fill="#FFFFFF" d="M77.129,164.43c4.56-4.56,9.12-9.12,13.681-13.68c4.563-4.563-2.507-11.635-7.071-7.071
		c-4.56,4.56-9.12,9.12-13.681,13.68C65.494,161.922,72.565,168.993,77.129,164.43L77.129,164.43z"/>
</g>
<g>
	<path fill="#FFFFFF" d="M120.396,191.934c0-12.006,0-24.012,0-36.018c0-6.449-10-6.449-10,0c0,12.006,0,24.012,0,36.018
		C110.396,198.383,120.396,198.383,120.396,191.934L120.396,191.934z"/>
</g>
<g>
	<path fill="#FFFFFF" d="M172.521,169.147c-8.49-8.489-16.979-16.979-25.469-25.469c-4.564-4.563-11.635,2.507-7.071,7.071
		c8.49,8.489,16.979,16.979,25.469,25.469C170.014,180.782,177.084,173.711,172.521,169.147L172.521,169.147z"/>
</g>
<g>
	<path fill="#FFFFFF" d="M189.313,113.017c-12.006,0-24.012,0-36.018,0c-6.449,0-6.449,10,0,10c12.006,0,24.012,0,36.018,0
		C195.761,123.017,195.761,113.017,189.313,113.017L189.313,113.017z"/>
</g>
<g>
	<path fill="#FFFFFF" d="M120.396,191.934c0-12.006,0-24.012,0-36.018c0-6.449-10-6.449-10,0c0,12.006,0,24.012,0,36.018
		C110.396,198.383,120.396,198.383,120.396,191.934L120.396,191.934z"/>
</g>
<g>
	<path fill="#FFFFFF" d="M172.521,169.147c-8.49-8.489-16.979-16.979-25.469-25.469c-4.564-4.563-11.635,2.507-7.071,7.071
		c8.49,8.489,16.979,16.979,25.469,25.469C170.014,180.782,177.084,173.711,172.521,169.147L172.521,169.147z"/>
</g>
<g>
	<path fill="#FFFFFF" d="M161.756,94.019c-3.38,1.4-6.761,2.8-10.141,4.201c-2.516,1.042-4.283,3.275-3.492,6.15
		c0.655,2.382,3.627,4.537,6.15,3.492c3.38-1.4,6.761-2.8,10.141-4.201c2.516-1.042,4.283-3.275,3.492-6.15
		C167.251,95.129,164.279,92.974,161.756,94.019L161.756,94.019z"/>
</g>
<g>
	<path fill="#FFFFFF" d="M164.106,134.23c-3.38-1.4-6.761-2.8-10.142-4.2c-2.523-1.045-5.495,1.11-6.15,3.492
		c-0.791,2.875,0.976,5.108,3.492,6.15c3.38,1.4,6.761,2.8,10.142,4.2c2.523,1.045,5.495-1.11,6.15-3.492
		C168.39,137.505,166.623,135.272,164.106,134.23L164.106,134.23z"/>
</g>
<g>
	<path fill="#FFFFFF" d="M139.698,164.084c-1.4-3.381-2.8-6.761-4.201-10.142c-1.042-2.516-3.275-4.283-6.15-3.492
		c-2.382,0.655-4.537,3.627-3.492,6.15c1.4,3.381,2.8,6.761,4.201,10.142c1.042,2.516,3.275,4.283,6.15,3.492
		C138.588,169.58,140.743,166.607,139.698,164.084L139.698,164.084z"/>
</g>
<g>
	<path fill="#FFFFFF" d="M101.025,166.743c1.4-3.38,2.801-6.761,4.201-10.142c1.045-2.523-1.11-5.495-3.492-6.15
		c-2.875-0.791-5.108,0.976-6.15,3.492c-1.4,3.38-2.801,6.761-4.201,10.142c-1.045,2.523,1.11,5.495,3.492,6.15
		C97.75,171.026,99.983,169.259,101.025,166.743L101.025,166.743z"/>
</g>
<g>
	<path fill="#FFFFFF" d="M130.026,75.987c-0.775,1.87-1.55,3.741-2.325,5.611c-1.045,2.522,1.11,5.495,3.492,6.15
		c2.875,0.791,5.108-0.976,6.15-3.492c0.775-1.87,1.55-3.741,2.325-5.611c1.045-2.522-1.11-5.495-3.492-6.15
		C133.301,71.704,131.068,73.471,130.026,75.987L130.026,75.987z"/>
</g>
<g>
	<path fill="#FFFFFF" d="M74.531,140.867c1.953-0.809,3.906-1.617,5.859-2.426c2.516-1.042,4.283-3.275,3.492-6.15
		c-0.655-2.383-3.627-4.537-6.15-3.492c-1.953,0.809-3.906,1.617-5.859,2.426c-2.516,1.042-4.283,3.275-3.492,6.15
		C69.036,139.758,72.008,141.912,74.531,140.867L74.531,140.867z"/>
</g>
<path fill="none" stroke="#FFFFFF" stroke-width="10" stroke-miterlimit="10" d="M89.888,127.046
	c0,8.159,6.614,14.774,14.773,14.774h19.005c8.16,0,14.774-6.615,14.774-14.774v-18.057c0-8.159-6.614-14.774-14.774-14.774h-19.005
	c-8.159,0-14.773,6.615-14.773,14.774V127.046z"/>
<g>
	<g>
		<path fill="#FFFFFF" d="M117.143,257.127c4.432-5.582,8.864-11.164,13.296-16.745c1.693-2.132,2.091-4.98,0-7.071
			c-1.762-1.761-5.374-2.138-7.071,0c-4.432,5.582-8.864,11.164-13.296,16.745c-1.693,2.132-2.091,4.98,0,7.071
			C111.833,258.889,115.445,259.265,117.143,257.127L117.143,257.127z"/>
	</g>
	<g>
		<path fill="#FFFFFF" d="M127.457,240.945c7.091-0.718,14.182-1.435,21.273-2.153c6.352-0.643,6.415-10.649,0-10
			c-7.091,0.718-14.182,1.435-21.273,2.153C121.104,231.588,121.042,241.594,127.457,240.945L127.457,240.945z"/>
	</g>
	<g>
		<path fill="#FFFFFF" d="M114.084,249.413c-6.94-1.619-13.881-3.238-20.822-4.857c-6.274-1.464-8.937,8.178-2.658,9.643
			c6.94,1.619,13.881,3.238,20.822,4.857C117.7,260.52,120.363,250.878,114.084,249.413L114.084,249.413z"/>
	</g>
	<g>
		<path fill="#FFFFFF" d="M87.95,245.276c-6.026,3.807-12.051,7.614-18.077,11.421c-5.435,3.434-0.422,12.09,5.047,8.635
			c6.026-3.807,12.051-7.614,18.077-11.421C98.432,250.477,93.419,241.82,87.95,245.276L87.95,245.276z"/>
	</g>
	<g>
		<path fill="#FFFFFF" d="M176.04,266.281c3.668-3.2,7.337-6.4,11.006-9.6c2.055-1.792,1.828-5.243,0-7.071
			c-2.024-2.024-5.019-1.79-7.071,0c-3.668,3.2-7.337,6.4-11.006,9.6c-2.055,1.792-1.828,5.243,0,7.071
			C170.993,268.305,173.988,268.07,176.04,266.281L176.04,266.281z"/>
	</g>
	<g>
		<path fill="#FFFFFF" d="M182.978,257.604c4.726,1.167,9.452,2.333,14.178,3.5c6.261,1.546,8.917-8.098,2.658-9.643
			c-4.726-1.167-9.452-2.333-14.178-3.5C179.375,246.415,176.719,256.059,182.978,257.604L182.978,257.604z"/>
	</g>
	<g>
		<path fill="#FFFFFF" d="M174.376,258.754c-4.461-1.948-8.922-3.895-13.384-5.843c-2.498-1.09-5.345-0.76-6.841,1.794
			c-1.254,2.142-0.706,5.75,1.794,6.841c4.461,1.948,8.922,3.895,13.384,5.843c2.498,1.09,5.345,0.76,6.841-1.794
			C177.425,263.453,176.876,259.845,174.376,258.754L174.376,258.754z"/>
	</g>
	<g>
		<path fill="#FFFFFF" d="M155.437,253.392c-3.883,2.936-7.767,5.872-11.649,8.808c-2.169,1.64-3.294,4.279-1.794,6.841
			c1.255,2.143,4.661,3.442,6.841,1.794c3.883-2.936,7.767-5.872,11.649-8.808c2.169-1.64,3.294-4.279,1.794-6.841
			C161.023,253.043,157.617,251.744,155.437,253.392L155.437,253.392z"/>
	</g>
</g>
<g>
	<path fill="#FFFFFF" stroke="#FFFFFF" stroke-width="10" stroke-miterlimit="10" d="M247.585,224.488
		c0,1.96-1.982,3.549-4.43,3.549h-34.331c-2.446,0-4.43-1.589-4.43-3.549v-25.731c0-1.96,1.983-3.549,4.43-3.549h34.331
		c2.448,0,4.43,1.589,4.43,3.549V224.488z"/>
	<path fill="#FFFFFF" stroke="#FFFFFF" stroke-width="10" stroke-miterlimit="10" d="M184.738,209.55
		c0,3.257,2.641,5.897,5.897,5.897h27.519c3.257,0,5.897-2.64,5.897-5.897v-16.708c0-3.256-2.64-5.897-5.897-5.897h-27.519
		c-3.256,0-5.897,2.641-5.897,5.897V209.55z"/>
	<path fill="#FFFFFF" stroke="#FFFFFF" stroke-width="10" stroke-miterlimit="10" d="M172.944,209.55
		c0-3.256,2.641-5.897,5.897-5.897h33.907c3.257,0,5.897,2.641,5.897,5.897v9.337c0,3.256-2.64,5.897-5.897,5.897h-33.907
		c-3.256,0-5.897-2.641-5.897-5.897V209.55z"/>
	<path fill="#FFFFFF" stroke="#FFFFFF" stroke-width="10" stroke-miterlimit="10" d="M262.752,211.312
		c0-3.256-2.641-5.897-5.897-5.897h-33.907c-3.257,0-5.897,2.641-5.897,5.897v9.337c0,3.256,2.64,5.897,5.897,5.897h33.907
		c3.256,0,5.897-2.641,5.897-5.897V211.312z"/>
</g>
<g>
	<path fill="#FFFFFF" stroke="#FFFFFF" stroke-width="10" stroke-miterlimit="10" d="M284.806,155.282
		c0-2.647-2.089-4.794-4.664-4.794h-26.82c-2.576,0-4.664,2.147-4.664,4.794v7.592c0,2.647,2.088,4.794,4.664,4.794h26.82
		c2.575,0,4.664-2.147,4.664-4.794V155.282z"/>
	<path fill="#FFFFFF" stroke="#FFFFFF" stroke-width="10" stroke-miterlimit="10" d="M238.647,158.308
		c0,2.081,2.089,3.767,4.665,3.767h21.767c2.576,0,4.664-1.687,4.664-3.767v-10.674c0-2.08-2.088-3.767-4.664-3.767h-21.767
		c-2.576,0-4.665,1.687-4.665,3.767V158.308z"/>
	<path fill="#FFFFFF" stroke="#FFFFFF" stroke-width="10" stroke-miterlimit="10" d="M260.083,154.287
		c0-2.208-1.742-3.998-3.89-3.998H233.83c-2.148,0-3.89,1.791-3.89,3.998v6.331c0,2.208,1.741,3.999,3.89,3.999h22.364
		c2.148,0,3.89-1.791,3.89-3.999V154.287z"/>
</g>
</svg>
