<?xml version="1.0" encoding="iso-8859-1"?>
<!-- Generator: Adobe Illustrator 16.0.0, SVG Export Plug-In . SVG Version: 6.00 Build 0)  -->
<!DOCTYPE svg PUBLIC "-//W3C//DTD SVG 1.1 Tiny//EN" "http://www.w3.org/Graphics/SVG/1.1/DTD/svg11-tiny.dtd">
<svg version="1.1" baseProfile="tiny" id="scene_x5F_cubby"
	 xmlns="http://www.w3.org/2000/svg" xmlns:xlink="http://www.w3.org/1999/xlink" x="0px" y="0px" width="361px" height="361px"
	 viewBox="0 0 361 361" xml:space="preserve">
<g>
	<g>
		<path fill="#FFFFFF" d="M174.96,84.571c0,48.866,0,97.731,0,146.597c0,20.079,0,40.157,0,60.236c0,4.514,7,4.514,7,0
			c0-48.866,0-97.731,0-146.597c0-20.079,0-40.157,0-60.236C181.96,80.057,174.96,80.057,174.96,84.571L174.96,84.571z"/>
	</g>
	<g>
		<path fill="#FFFFFF" d="M256.815,84.571c0,48.866,0,97.731,0,146.597c0,20.079,0,40.157,0,60.236c0,4.514,7,4.514,7,0
			c0-48.866,0-97.731,0-146.597c0-20.079,0-40.157,0-60.236C263.815,80.057,256.815,80.057,256.815,84.571L256.815,84.571z"/>
	</g>
	<g>
		<path fill="#FFFFFF" d="M256.847,87.227c-25.833,0-51.667,0-77.5,0c-4.514,0-4.514,7,0,7c25.833,0,51.667,0,77.5,0
			C261.361,94.227,261.361,87.227,256.847,87.227L256.847,87.227z"/>
	</g>
	<g>
		<path fill="#FFFFFF" d="M256.847,142.046c-25.833,0-51.667,0-77.5,0c-4.514,0-4.514,7,0,7c25.833,0,51.667,0,77.5,0
			C261.361,149.046,261.361,142.046,256.847,142.046L256.847,142.046z"/>
	</g>
	<g>
		<path fill="#FFFFFF" d="M256.847,196.865c-25.833,0-51.667,0-77.5,0c-4.514,0-4.514,7,0,7c25.833,0,51.667,0,77.5,0
			C261.361,203.865,261.361,196.865,256.847,196.865L256.847,196.865z"/>
	</g>
</g>
<g>
	<path fill="#FFFFFF" d="M202.128,193.331c-5.408-0.552-3.994-6.055-3.994-9.52c0-3.89,0-7.779,0-11.669
		c0-6.128,8.2-4.684,12.235-4.684c12.781,0,25.562,0,38.343,0c5.193,0,4.103,4.735,4.103,7.704c0,4.033,0,8.066,0,12.099
		c0,2.904,0.398,6.07-4.421,6.07c-2.107,0-4.214,0-6.321,0c-13.172,0-26.344,0-39.517,0
		C202.413,193.331,202.271,193.331,202.128,193.331c-1.935,0-1.935,3,0,3c12.285,0,24.57,0,36.855,0
		c3.52,0,10.091,1.149,13.368-0.775c5.375-3.156,3.464-11.35,3.464-16.646c0-4.916,1.635-13.57-5.533-14.303
		c-4.568-0.466-9.274-0.149-13.859-0.149c-7.875,0-15.749,0-23.623,0c-4.39,0-9.59-0.74-13.843,0.624
		c-5.929,1.901-3.822,12.314-3.822,16.798c0,6.418-1.453,13.589,6.994,14.452C204.052,196.527,204.033,193.525,202.128,193.331z"/>
</g>
<g>
	<path fill="#FFFFFF" d="M239.815,137.252c0,2.801-2.271,5.072-5.071,5.072h-9.509c-2.801,0-5.072-2.271-5.072-5.072v-12.52
		c0-2.801,2.271-5.072,5.072-5.072h9.509c2.801,0,5.071,2.271,5.071,5.072V137.252z"/>
	<path fill="#FFFFFF" d="M206.296,137.201c0,2.801-2.271,5.072-5.072,5.072h-9.509c-2.801,0-5.072-2.271-5.072-5.072V124.68
		c0-2.801,2.271-5.071,5.072-5.071h9.509c2.801,0,5.072,2.271,5.072,5.071V137.201z"/>
	<path fill="#FFFFFF" d="M200.547,116.424c-1.98-1.98-1.98-5.192,0-7.172l6.724-6.724c1.98-1.98,5.191-1.98,7.172,0l8.854,8.853
		c1.98,1.98,1.98,5.192,0,7.173l-6.724,6.724c-1.98,1.98-5.192,1.98-7.173,0L200.547,116.424z"/>
</g>
<g>
	<g>
		<path fill="#FFFFFF" d="M105.265,101.323c0,49.706,0,99.412,0,149.118c0,5.769,0,11.539,0,17.308c0,4.514,7,4.514,7,0
			c0-49.706,0-99.412,0-149.118c0-5.769,0-11.539,0-17.308C112.265,96.809,105.265,96.809,105.265,101.323L105.265,101.323z"/>
	</g>
	<g>
		<path fill="#FFFFFF" d="M82.148,273.645c17.708,0,35.417,0,53.125,0c6.449,0,6.449-10,0-10c-17.708,0-35.417,0-53.125,0
			C75.7,263.645,75.7,273.645,82.148,273.645L82.148,273.645z"/>
	</g>
	<g>
		<path fill="#FFFFFF" d="M84.758,272.912c-0.299,6.701-0.599,13.402-0.898,20.103c-0.086,1.935,2.914,1.927,3,0
			c0.299-6.701,0.599-13.402,0.898-20.103C87.844,270.977,84.844,270.985,84.758,272.912L84.758,272.912z"/>
	</g>
	<g>
		<path fill="#FFFFFF" d="M94.6,272.912c0,6.701,0,13.402,0,20.103c0,1.935,3,1.935,3,0c0-6.701,0-13.402,0-20.103
			C97.6,270.978,94.6,270.978,94.6,272.912L94.6,272.912z"/>
	</g>
	<g>
		<path fill="#FFFFFF" d="M89.679,272.912c0,6.701,0,13.402,0,20.103c0,1.935,3,1.935,3,0c0-6.701,0-13.402,0-20.103
			C92.679,270.978,89.679,270.978,89.679,272.912L89.679,272.912z"/>
	</g>
	<g>
		<path fill="#FFFFFF" d="M99.521,272.912c0,6.701,0,13.402,0,20.103c0,1.935,3,1.935,3,0c0-6.701,0-13.402,0-20.103
			C102.521,270.978,99.521,270.978,99.521,272.912L99.521,272.912z"/>
	</g>
	<g>
		<path fill="#FFFFFF" d="M104.441,272.912c0,6.701,0,13.402,0,20.103c0,1.935,3,1.935,3,0c0-6.701,0-13.402,0-20.103
			C107.441,270.978,104.441,270.978,104.441,272.912L104.441,272.912z"/>
	</g>
	<g>
		<path fill="#FFFFFF" d="M114.244,272.912c0,6.701,0,13.402,0,20.103c0,1.935,3,1.935,3,0c0-6.701,0-13.402,0-20.103
			C117.244,270.978,114.244,270.978,114.244,272.912L114.244,272.912z"/>
	</g>
	<g>
		<path fill="#FFFFFF" d="M109.321,272.912c0,6.701,0,13.402,0,20.103c0,1.935,3,1.935,3,0c0-6.701,0-13.402,0-20.103
			C112.321,270.978,109.321,270.978,109.321,272.912L109.321,272.912z"/>
	</g>
	<g>
		<path fill="#FFFFFF" d="M119.164,272.912c0,6.701,0,13.402,0,20.103c0,1.935,3,1.935,3,0c0-6.701,0-13.402,0-20.103
			C122.164,270.978,119.164,270.978,119.164,272.912L119.164,272.912z"/>
	</g>
	<g>
		<path fill="#FFFFFF" d="M129.006,272.912c0.299,6.701,0.599,13.402,0.898,20.103c0.086,1.927,3.086,1.935,3,0
			c-0.299-6.701-0.599-13.402-0.898-20.103C131.92,270.985,128.92,270.977,129.006,272.912L129.006,272.912z"/>
	</g>
	<g>
		<path fill="#FFFFFF" d="M124.085,272.912c0,6.701,0,13.402,0,20.103c0,1.935,3,1.935,3,0c0-6.701,0-13.402,0-20.103
			C127.085,270.978,124.085,270.978,124.085,272.912L124.085,272.912z"/>
	</g>
	<g>
		<path fill="#FFFFFF" d="M133.773,272.996c0.865,6.645,1.729,13.29,2.594,19.935c0.246,1.891,3.249,1.915,3,0
			c-0.865-6.645-1.729-13.29-2.594-19.935C136.527,271.105,133.524,271.082,133.773,272.996L133.773,272.996z"/>
	</g>
	<g>
		<path fill="#FFFFFF" d="M79.858,272.996c-0.865,6.645-1.729,13.29-2.594,19.935c-0.249,1.915,2.754,1.891,3,0
			c0.865-6.645,1.729-13.29,2.594-19.935C83.107,271.082,80.104,271.105,79.858,272.996L79.858,272.996z"/>
	</g>
</g>
<g>
	<g>
		<path fill="#FFFFFF" d="M233.686,288.442c0.155-0.571,1.925-0.362-0.116-0.362c-1.138,0-2.275,0-3.413,0c-3.86,0-7.72,0-11.58,0
			c-5.741,0-11.482,0-17.224,0c1.399,0,1.293,2.225,1.214,0.306c-0.037-0.905-0.074-1.809-0.111-2.713
			c-0.137-3.346-0.274-6.692-0.412-10.039c-0.319-7.791-0.638-15.582-0.957-23.373c-0.093-2.261-0.186-4.521-0.278-6.783
			c-0.079-1.919,0.202,0.307-1.299,0.307c0.675,0,1.351,0,2.026,0c7.159,0,14.319,0,21.478,0c3.311,0,6.622,0,9.933,0
			c0.969,0,1.938,0,2.907,0c1.762,0-0.465-1.062-0.466-1.039c-0.223,5.436-0.446,10.872-0.668,16.307
			c-0.387,9.439-0.774,18.879-1.161,28.318c-0.185,4.516,6.816,4.498,7,0c0.507-12.37,1.014-24.74,1.521-37.111
			c0.155-3.772,1.815-11.655-3.344-13.05c-4.869-1.316-10.74-0.426-15.721-0.426c-7.159,0-14.319,0-21.478,0
			c-4.864,0-7.906,2.33-7.698,7.424c0.554,13.512,1.107,27.024,1.661,40.536c0.154,3.772,0.896,8.334,5.814,8.334
			c3.809,0,7.619,0,11.428,0c5.805,0,11.609,0,17.414,0c4.319,0,8.867,0.445,10.279-4.777
			C241.616,285.939,234.863,284.09,233.686,288.442z"/>
	</g>
	<g>
		<path fill="#FFFFFF" d="M194.373,252.146c0.567-8.055,1.134-16.11,1.701-24.166c0.43-6.114,2.454-10.627,8.83-12.857
			c3.924-1.373,9.31-0.541,13.362-0.541c3.954,0,8.141-0.391,12.07,0.215c7.171,1.106,9.679,6.903,10.121,13.183
			c0.567,8.055,1.134,16.11,1.701,24.166c0.135,1.918,3.136,1.932,3,0c-0.633-9-1.267-18.001-1.9-27.001
			c-0.404-5.736-4.037-10.537-9.565-12.47c-4.874-1.705-10.343-1.092-15.427-1.092c-4.648,0-9.611-0.499-14.159,0.648
			c-6.096,1.537-10.401,6.781-10.833,12.914c-0.633,9-1.267,18.001-1.9,27.001C191.237,254.078,194.238,254.064,194.373,252.146
			L194.373,252.146z"/>
	</g>
</g>
<g>
	<path fill="#FFFFFF" d="M167.625,222.495c-4.52,22.401-9.04,44.801-13.56,67.202c-0.889,4.407,5.857,6.284,6.75,1.861
		c4.52-22.401,9.04-44.801,13.56-67.202C175.264,219.949,168.517,218.072,167.625,222.495L167.625,222.495z"/>
</g>
</svg>
