<?xml version="1.0" encoding="iso-8859-1"?>
<!-- Generator: Adobe Illustrator 16.0.0, SVG Export Plug-In . SVG Version: 6.00 Build 0)  -->
<!DOCTYPE svg PUBLIC "-//W3C//DTD SVG 1.1 Tiny//EN" "http://www.w3.org/Graphics/SVG/1.1/DTD/svg11-tiny.dtd">
<svg version="1.1" baseProfile="tiny" id="scene_x5F_party"
	 xmlns="http://www.w3.org/2000/svg" xmlns:xlink="http://www.w3.org/1999/xlink" x="0px" y="0px" width="361px" height="361px"
	 viewBox="0 0 361 361" xml:space="preserve">
<g>
	<path fill="#FFFFFF" d="M195.477,106.519c14.793-1.38,29.587-2.76,44.38-4.14c-1.007-0.578-2.015-1.156-3.022-1.733
		c8.483,12.233,16.966,24.467,25.45,36.7c1.596-1.596,3.192-3.192,4.789-4.789c-23.277-10.854-46.554-21.707-69.83-32.56
		c-4.064-1.895-7.622,4.138-3.533,6.044c23.277,10.854,46.554,21.707,69.83,32.56c2.871,1.339,6.982-1.625,4.789-4.789
		c-8.483-12.233-16.966-24.467-25.45-36.7c-0.666-0.96-1.757-1.852-3.022-1.733c-14.793,1.38-29.587,2.76-44.38,4.14
		C191.022,99.934,190.981,106.938,195.477,106.519z"/>
</g>
<g>
	<path fill="#FFFFFF" d="M226.077,119.972c-4.361,8.696-8.722,17.392-13.082,26.087c-2.018,4.023,4.021,7.569,6.044,3.533
		c4.361-8.696,8.722-17.392,13.082-26.087C234.139,119.482,228.101,115.937,226.077,119.972L226.077,119.972z"/>
</g>
<g>
	<path fill="#FFFFFF" d="M139.229,109.271c12.083,34.497,24.167,68.993,36.251,103.489c2.117,6.044,11.78,3.444,9.643-2.658
		c-12.083-34.497-24.167-68.993-36.251-103.489C146.754,100.569,137.091,103.169,139.229,109.271L139.229,109.271z"/>
</g>
<g>
	<path fill="#FFFFFF" d="M237.352,96.402c-5.879,4.3-11.759,8.601-17.639,12.901c-3.604,2.635-0.117,8.714,3.533,6.044
		c5.879-4.3,11.759-8.601,17.639-12.901C244.489,99.811,241.002,93.732,237.352,96.402L237.352,96.402z"/>
</g>
<g>
	<path fill="#FFFFFF" d="M245.15,123.98c-0.299-6.574-0.597-13.148-0.896-19.723c-0.204-4.495-7.205-4.515-7,0
		c0.299,6.574,0.597,13.148,0.896,19.723C238.354,128.475,245.355,128.495,245.15,123.98L245.15,123.98z"/>
</g>
<g>
	<path fill="#FFFFFF" d="M181.917,223.458c-15.01-25.999-30.021-51.997-45.031-77.995c-1.439,2.508-2.878,5.016-4.317,7.523
		c30.021,0,60.041,0,90.062,0c-1.439-2.508-2.878-5.016-4.317-7.523c-15.01,25.998-30.02,51.996-45.03,77.995
		c-3.23,5.595,5.413,10.628,8.635,5.047c15.01-25.998,30.02-51.996,45.03-77.995c1.894-3.28-0.512-7.523-4.317-7.523
		c-30.021,0-60.041,0-90.062,0c-3.805,0-6.211,4.243-4.317,7.523c15.01,25.999,30.021,51.997,45.031,77.995
		C176.504,234.086,185.147,229.052,181.917,223.458z"/>
</g>
<g>
	<path fill="#FFFFFF" d="M222.654,284.798c-30.021,0-60.041,0-90.061,0c0.443,3.274,0.886,6.548,1.329,9.821
		c7.274-1.393,14.548-2.786,21.822-4.18c5.089-0.975,10.179-1.949,15.268-2.924c1.815-0.348,3.63-0.695,5.445-1.043
		c2.249-0.431,2.904,0.257-0.552-0.393c15.14,2.846,30.28,5.693,45.419,8.539c6.301,1.185,8.991-8.452,2.658-9.643
		c-15.149-2.848-30.298-5.696-45.447-8.544c-2.522-0.475-5.594,0.563-8.067,1.036c-5.148,0.986-10.296,1.972-15.445,2.958
		c-7.92,1.517-15.84,3.034-23.761,4.551c-5.654,1.083-4.188,9.821,1.329,9.821c30.021,0,60.041,0,90.061,0
		C229.103,294.798,229.103,284.798,222.654,284.798z"/>
</g>
<g>
	<path fill="#FFFFFF" d="M172.497,223.218c0,18.477,0,36.954,0,55.43c0,6.449,10,6.449,10,0c0-18.477,0-36.954,0-55.43
		C182.497,216.77,172.497,216.77,172.497,223.218L172.497,223.218z"/>
</g>
<g>
	<path fill="#FFFFFF" d="M144.655,101.843c-21.229-6.524-42.459-13.048-63.688-19.571c-6.181-1.899-8.803,7.754-2.658,9.643
		c21.229,6.524,42.459,13.048,63.688,19.571C148.178,113.385,150.8,103.731,144.655,101.843L144.655,101.843z"/>
</g>
</svg>
