<?xml version="1.0" encoding="iso-8859-1"?>
<!-- Generator: Adobe Illustrator 16.0.0, SVG Export Plug-In . SVG Version: 6.00 Build 0)  -->
<!DOCTYPE svg PUBLIC "-//W3C//DTD SVG 1.1//EN" "http://www.w3.org/Graphics/SVG/1.1/DTD/svg11.dtd">
<svg version="1.1" xmlns="http://www.w3.org/2000/svg" xmlns:xlink="http://www.w3.org/1999/xlink" x="0px" y="0px" width="361px"
	 height="361px" viewBox="0 0 361 361" style="enable-background:new 0 0 361 361;" xml:space="preserve">
<g id="scene_x5F_3d_x5F_printer">
	<g style="display:none;">
		<g style="display:inline;">
			<g>
				<path style="fill:#FFFFFF;" d="M112.641,180.659c0.331,0,0.662,0,0.993,0c1.935,0,1.935-3,0-3c-0.331,0-0.662,0-0.993,0
					C110.707,177.659,110.707,180.659,112.641,180.659L112.641,180.659z"/>
			</g>
		</g>
	</g>
	<g style="display:none;">
		<g style="display:inline;">
			<g>
				<path style="fill:#FFFFFF;" d="M107.137,168.236c1.886,0,3.773,0,5.659,0c1.935,0,1.935-3,0-3c-1.886,0-3.773,0-5.659,0
					C105.202,165.236,105.202,168.236,107.137,168.236L107.137,168.236z"/>
			</g>
		</g>
	</g>
	<g style="display:none;">
		<g style="display:inline;">
			<g>
				<path style="fill:#FFFFFF;" d="M140.058,155.813c48.251,0,96.502,0,144.753,0c1.714,0,3.427,0,5.141,0c1.935,0,1.935-3,0-3
					c-48.251,0-96.502,0-144.753,0c-1.714,0-3.427,0-5.141,0C138.123,152.813,138.123,155.813,140.058,155.813L140.058,155.813z"/>
			</g>
		</g>
		<g style="display:inline;">
			<g>
				<path style="fill:#FFFFFF;" d="M96.218,155.813c5.298,0,10.596,0,15.894,0c1.935,0,1.935-3,0-3c-5.298,0-10.596,0-15.894,0
					C94.283,152.813,94.283,155.813,96.218,155.813L96.218,155.813z"/>
			</g>
		</g>
		<g style="display:inline;">
			<g>
				<path style="fill:#FFFFFF;" d="M122.935,156.184c1.378,0,2.756,0,4.134,0c1.935,0,1.935-3,0-3c-1.378,0-2.756,0-4.134,0
					C121,153.184,121,156.184,122.935,156.184L122.935,156.184z"/>
			</g>
		</g>
	</g>
	<path style="fill:none;stroke:#FFFFFF;stroke-width:10;" d="M286.273,276.177c0,5.708-4.627,10.336-10.336,10.336H85.062
		c-5.709,0-10.336-4.628-10.336-10.336v-12.84c0-5.708,4.627-10.337,10.336-10.337h190.875c5.709,0,10.336,4.629,10.336,10.337
		V276.177z"/>
	
		<line style="fill:none;stroke:#FFFFFF;stroke-width:10;stroke-linecap:round;" x1="112.833" y1="228.334" x2="248.166" y2="228.334"/>
	<path style="fill:none;stroke:#FFFFFF;stroke-width:10;stroke-linecap:round;" d="M180.5,154.667
		c0-53.247,18.451-79.333,41.666-79.333c16.582,0,27.959,11.043,32,20.137"/>
	<path style="fill:none;stroke:#FFFFFF;stroke-width:10;stroke-linecap:round;" d="M200.5,189.667c0,2.761-2.238,5-5,5h-30
		c-2.761,0-5-2.239-5-5v-30c0-2.761,2.239-5,5-5h30c2.762,0,5,2.239,5,5V189.667z"/>
	<line style="fill:none;stroke:#FFFFFF;stroke-width:10;stroke-linecap:round;" x1="160.5" y1="183.334" x2="200.5" y2="183.334"/>
	<line style="fill:none;stroke:#FFFFFF;stroke-width:10;stroke-linecap:round;" x1="160.5" y1="168.667" x2="200.5" y2="168.667"/>
	<line style="fill:none;stroke:#FFFFFF;stroke-width:10;stroke-linecap:round;" x1="180.5" y1="194.667" x2="180.5" y2="202"/>
	<path style="fill:none;stroke:#FFFFFF;stroke-width:3;stroke-linecap:round;" d="M223.166,274c0,2.762-2.239,5-5,5h-75.003
		c-2.761,0-5-2.238-5-5v-8c0-2.761,2.239-5,5-5h75.003c2.761,0,5,2.239,5,5V274z"/>
	<path style="fill:#FFFFFF;" d="M275.991,90.47H85.116c-8.457,0-15.336,6.88-15.336,15.336v132.852
		c0,8.456,6.88,15.336,15.336,15.336h190.875c8.456,0,15.337-6.88,15.337-15.336V105.807C291.328,97.35,284.447,90.47,275.991,90.47
		z M271.25,232.016c0,2.648-2.154,4.803-4.803,4.803H94.66c-2.648,0-4.803-2.154-4.803-4.803V112.449
		c0-2.648,2.154-4.803,4.803-4.803h171.788c2.648,0,4.803,2.154,4.803,4.803V232.016z"/>
</g>
<g id="Ebene_1">
</g>
</svg>
