<?xml version="1.0" encoding="iso-8859-1"?>
<!-- Generator: Adobe Illustrator 16.0.0, SVG Export Plug-In . SVG Version: 6.00 Build 0)  -->
<!DOCTYPE svg PUBLIC "-//W3C//DTD SVG 1.1 Tiny//EN" "http://www.w3.org/Graphics/SVG/1.1/DTD/svg11-tiny.dtd">
<svg version="1.1" baseProfile="tiny" id="scene_x5F_baby"
	 xmlns="http://www.w3.org/2000/svg" xmlns:xlink="http://www.w3.org/1999/xlink" x="0px" y="0px" width="361px" height="361px"
	 viewBox="0 0 361 361" xml:space="preserve">
<g display="none">
	<g display="inline">
		<path fill="#FFFFFF" d="M243.067,243.667c-0.405,4.517-5.74,3.538-8.887,3.538c-4.967,0-9.934,0-14.9,0c-2.627,0-5.254,0-7.881,0
			c-5.083,0-3.538-8.915-3.538-12.083c0-4.516,6.011-3.538,8.888-3.538c4.967,0,9.934,0,14.9,0c2.627,0,5.254,0,7.881,0
			C244.611,231.584,243.067,240.5,243.067,243.667c0,4.514,7,4.514,7,0c0-5.83,0.965-11.909-3.528-16.403
			c-3.681-3.681-10.177-2.68-14.891-2.68c-6.085,0-12.171,0-18.256,0c-6.785,0-11.889,3.365-12.532,10.538
			c-0.5,5.574-0.65,12.224,3.529,16.403c3.681,3.681,10.177,2.68,14.891,2.68c6.085,0,12.171,0,18.256,0
			c6.785,0,11.888-3.365,12.531-10.538C250.471,239.17,243.467,239.209,243.067,243.667z"/>
	</g>
	<path display="inline" fill="#FFFFFF" stroke="#FFFFFF" stroke-miterlimit="10" d="M215.671,224.774
		c0,2.742-2.224,4.965-4.966,4.965l0,0c-2.742,0-4.965-2.223-4.965-4.965v-8c0-2.742,2.223-4.965,4.965-4.965l0,0
		c2.742,0,4.966,2.223,4.966,4.965V224.774z"/>
	<g display="inline">
		<path fill="#FFFFFF" d="M270.653,244.083c-0.504,4.511-11.475,2.846-14.37,2.846c-2.118,0-6.216,0.434-6.216-2.889
			c0-1.212,0-2.424,0-3.636c0-8.888,0-17.776,0-26.664c0-4.421,11.894-2.846,14.37-2.846c2.118,0,6.216-0.434,6.216,2.889
			c0,1.212,0,2.424,0,3.636C270.653,226.307,270.653,235.195,270.653,244.083c0,4.514,7,4.514,7,0
			c0-10.395,1.012-21.292-0.143-31.621c-1.015-9.076-10.898-8.567-17.632-8.567c-7.624,0-15.75,0.355-16.811,9.846
			c-0.55,4.924,0,10.222,0,15.171c0,5.419-0.46,11.056,0.143,16.45c1.015,9.076,10.898,8.567,17.632,8.567
			c7.624,0,15.75-0.355,16.811-9.846C278.154,239.601,271.149,239.649,270.653,244.083z"/>
	</g>
	<g display="inline">
		<path fill="#FFFFFF" d="M244.636,210.067c13.609,0,27.218,0,40.828,0c4.514,0,4.514-7,0-7c-13.609,0-27.218,0-40.828,0
			C240.122,203.067,240.122,210.067,244.636,210.067L244.636,210.067z"/>
	</g>
	<g display="inline">
		<path fill="#FFFFFF" d="M209.462,254.206c19.449,0,38.897,0,58.346,0c4.514,0,4.514-7,0-7c-19.449,0-38.897,0-58.346,0
			C204.948,247.206,204.948,254.206,209.462,254.206L209.462,254.206z"/>
	</g>
	<g display="inline">
		<path fill="#FFFFFF" d="M214.93,260.636c-0.447,8.294-12.416,8.294-12.862,0C201.621,252.338,214.485,252.383,214.93,260.636
			c0.242,4.489,7.243,4.513,7,0c-0.409-7.591-5.839-13.022-13.431-13.431c-7.575-0.408-13.056,6.453-13.432,13.431
			c-0.408,7.576,6.454,13.056,13.432,13.432c7.575,0.408,13.055-6.454,13.431-13.432
			C222.173,256.124,215.171,256.147,214.93,260.636z"/>
	</g>
	<g display="inline">
		<path fill="#FFFFFF" d="M267.619,260.636c-0.447,8.294-12.416,8.294-12.863,0C254.31,252.338,267.175,252.383,267.619,260.636
			c0.242,4.489,7.243,4.513,7,0c-0.409-7.591-5.84-13.022-13.431-13.431c-7.575-0.408-13.056,6.453-13.432,13.431
			c-0.408,7.576,6.454,13.056,13.432,13.432c7.575,0.408,13.055-6.454,13.431-13.432
			C274.862,256.124,267.861,256.147,267.619,260.636z"/>
	</g>
	<g display="inline">
		<path fill="#FFFFFF" d="M241.413,260.636c-0.447,8.294-12.416,8.294-12.863,0C228.104,252.338,240.969,252.383,241.413,260.636
			c0.242,4.489,7.243,4.513,7,0c-0.409-7.591-5.84-13.022-13.431-13.431c-7.575-0.408-13.056,6.453-13.432,13.431
			c-0.408,7.576,6.454,13.056,13.432,13.432c7.575,0.408,13.055-6.454,13.431-13.432
			C248.656,256.124,241.655,256.147,241.413,260.636z"/>
	</g>
</g>
<g display="none">
	<path display="inline" fill="#FFFFFF" d="M153.083,188.452c-0.335,15.337-12.33,27.331-27.667,27.667
		c-15.336,0.335-27.342-12.835-27.667-27.667c-0.335-15.336,12.835-27.342,27.667-27.667
		C140.753,160.45,152.759,173.621,153.083,188.452c0.099,4.507,7.099,4.517,7,0c-0.419-19.18-15.487-34.247-34.667-34.667
		c-19.178-0.419-34.261,16.118-34.667,34.667c-0.419,19.178,16.118,34.261,34.667,34.667c19.178,0.419,34.261-16.118,34.667-34.667
		C160.182,183.936,153.182,183.945,153.083,188.452z"/>
</g>
<g id="Schiff_x5F_orig_1_" display="none">
	<path display="inline" fill="#FFFFFF" d="M209.938,280.966c1.675,2.152,2.474,2.659,4.432,2.659h35.971
		c0.517,0,2.733,0.303,4.06-0.834l23.34-17.28c1.923-1.378,1.479-4.313-2.509-4.313h-75.044c-3.545,0-4.505,2.122-3.094,4.096
		L209.938,280.966z"/>
	<g display="inline">
		<path fill="#FFFFFF" d="M240.701,259.022c11.504,0,23.008,0,34.512,0c1.054,0,1.98-1.307,1.295-2.257
			c-11.504-15.954-23.008-31.908-34.512-47.862c-0.833-1.154-2.795-0.837-2.795,0.757c0,15.954,0,31.908,0,47.862
			c0,1.935,3,1.935,3,0c0-15.954,0-31.908,0-47.862c-0.932,0.252-1.863,0.505-2.795,0.757
			c11.504,15.954,23.008,31.908,34.512,47.862c0.432-0.752,0.864-1.505,1.295-2.257c-11.504,0-23.008,0-34.512,0
			C238.767,256.022,238.767,259.022,240.701,259.022z"/>
	</g>
	<g display="inline">
		<path fill="#FFFFFF" d="M231.33,207.038c0,17.234,0,34.469,0,51.703c0,4.514,7,4.514,7,0c0-17.234,0-34.469,0-51.703
			C238.33,202.523,231.33,202.523,231.33,207.038L231.33,207.038z"/>
	</g>
	<g display="inline">
		<path fill="#FFFFFF" d="M228.955,256.022c-6.592,0-13.184,0-19.776,0c0.482,0.633,0.964,1.266,1.446,1.899
			c6.592-15.954,13.184-31.908,19.776-47.862c-0.982-0.133-1.964-0.266-2.946-0.399c0,15.954,0,31.908,0,47.862c0,1.935,3,1.935,3,0
			c0-15.954,0-31.908,0-47.862c0-1.816-2.335-1.879-2.946-0.399c-6.592,15.954-13.184,31.908-19.776,47.862
			c-0.381,0.921,0.563,1.899,1.446,1.899c6.592,0,13.184,0,19.776,0C230.89,259.022,230.89,256.022,228.955,256.022z"/>
	</g>
</g>
<g display="none">
	<path display="inline" fill="#FFFFFF" stroke="#FFFFFF" stroke-width="10" stroke-miterlimit="10" d="M72.315,253.308
		c0,0.311,1.494,0.563,3.336,0.563h82.42c1.842,0,3.336-0.252,3.336-0.563v-3.287c0-0.311-1.494-0.563-3.336-0.563h-82.42
		c-1.842,0-3.336,0.252-3.336,0.563V253.308z"/>
	<g display="inline">
		<path fill="#FFFFFF" d="M157.408,201.416c0,26.163,0,52.326,0,78.488c0,6.449,10,6.449,10,0c0-26.163,0-52.326,0-78.488
			C167.408,194.967,157.408,194.967,157.408,201.416L157.408,201.416z"/>
	</g>
	<g display="inline">
		<path fill="#FFFFFF" d="M67.315,234.495c0,15.137,0,30.273,0,45.41c0,6.449,10,6.449,10,0c0-15.137,0-30.273,0-45.41
			C77.315,228.046,67.315,228.046,67.315,234.495L67.315,234.495z"/>
	</g>
</g>
<g>
	<g>
		<path fill="#FFFFFF" d="M192.442,80.17c31.303,0,62.605,0,93.908,0c4.514,0,4.514-7,0-7c-31.303,0-62.605,0-93.908,0
			C187.928,73.17,187.928,80.17,192.442,80.17L192.442,80.17z"/>
	</g>
	
		<line fill="none" stroke="#FFFFFF" stroke-width="7" stroke-miterlimit="10" x1="277.752" y1="155.668" x2="200.894" y2="155.668"/>
	<line fill="none" stroke="#FFFFFF" stroke-width="7" stroke-miterlimit="10" x1="239.527" y1="89.858" x2="239.527" y2="153.712"/>
	<g>
		<path fill="#FFFFFF" d="M236.648,115.711c2.206,0,4.412,0,6.618,0c4.514,0,4.514-7,0-7c-2.206,0-4.412,0-6.618,0
			C232.134,108.711,232.134,115.711,236.648,115.711L236.648,115.711z"/>
	</g>
	<g>
		<path fill="#FFFFFF" d="M274.958,78.753c-0.378,4.219-9.253,5.84-12.325,6.591c-7.511,1.837-15.365,2.27-23.069,2.325
			c-7.734,0.055-15.516-0.649-23.069-2.325c-3.068-0.681-11.951-2.42-12.325-6.591c-0.5,0.5-1,1-1.5,1.5
			c24.597-0.054,49.19-0.057,73.787,0c1.935,0.004,1.935-2.996,0-3c-24.597-0.057-49.19-0.054-73.787,0
			c-0.762,0.001-1.573,0.683-1.5,1.5c0.42,4.694,5.694,6.696,9.526,8.072c9.063,3.256,19.341,3.776,28.868,3.844
			c9.637,0.069,19.665-0.845,28.868-3.844c3.844-1.253,9.113-3.458,9.526-8.072C278.13,76.826,275.128,76.843,274.958,78.753z"/>
	</g>
	<g>
		<path fill="#FFFFFF" d="M190.883,80.438c1.757,0.079,9.381-0.473,10.078,0.658c1.299,2.105,1.088,5.601,1.235,7.963
			c0.218,3.496,0.219,7.008,0.225,10.509c0.015,8.345,0.217,16.748-1.239,24.993c-0.92,5.215-3.456,16.95-10.3,17.424
			c0.5,0.5,1,1,1.5,1.5c-0.068-21.517-0.071-43.03,0-64.546c0.006-1.935-2.994-1.934-3,0c-0.071,21.517-0.068,43.029,0,64.546
			c0.002,0.775,0.682,1.557,1.5,1.5c6.842-0.475,9.932-8.157,11.756-13.766c3.301-10.148,2.767-21.125,2.782-31.651
			c0.006-4.623-0.05-9.255-0.484-13.86c-0.2-2.114-0.336-5.169-1.869-6.833c-2.276-2.471-9.146-1.3-12.186-1.437
			C188.948,77.352,188.957,80.352,190.883,80.438z"/>
	</g>
	<g>
		<path fill="#FFFFFF" d="M287.945,77.166c-3.04,0.136-9.909-1.035-12.186,1.437c-1.552,1.685-1.623,4.702-1.869,6.833
			c-0.529,4.583-0.476,9.254-0.484,13.86c-0.019,10.652-0.228,21.327,2.782,31.651c1.641,5.626,5.036,13.3,11.756,13.766
			c0.818,0.057,1.498-0.725,1.5-1.5c0.068-21.517,0.071-43.03,0-64.546c-0.006-1.934-3.006-1.935-3,0
			c0.071,21.517,0.068,43.029,0,64.546c0.5-0.5,1-1,1.5-1.5c-6.938-0.481-9.241-12.208-10.3-17.424
			c-1.657-8.161-1.227-16.706-1.239-24.993c-0.008-5.594-0.893-13.227,1.46-18.472c0.449-1.002,8.503-0.587,10.078-0.658
			C289.872,80.079,289.88,77.079,287.945,77.166z"/>
	</g>
	<g>
		<path fill="#FFFFFF" d="M287.945,186.867c-3.097-0.139-6.195-0.278-9.292-0.417c-0.721-0.032-1.51,0.037-2.216-0.105
			c-0.172-0.035-0.009-5.141-0.005-5.512c0.091-7.663,0.302-15.096,2.245-22.562c1.125-4.327,3.762-12.569,9.268-12.951
			c-0.5-0.5-1-1-1.5-1.5c0.047,14.85,0.134,29.697,0,44.546c-0.018,1.936,2.982,1.934,3,0c0.134-14.849,0.047-29.697,0-44.546
			c-0.002-0.775-0.682-1.557-1.5-1.5c-5.353,0.372-8.547,5.406-10.378,9.958c-3.69,9.176-4.025,18.797-4.135,28.555
			c-0.03,2.635-0.984,8.171,2.935,8.524c3.833,0.346,7.731,0.337,11.578,0.51C289.88,189.954,289.872,186.954,287.945,186.867z"/>
	</g>
	<g>
		<path fill="#FFFFFF" d="M190.883,189.985c3.846-0.173,7.745-0.164,11.578-0.51c3.918-0.353,2.966-5.889,2.935-8.524
			c-0.116-9.76-0.443-19.376-4.135-28.555c-1.831-4.551-5.025-9.586-10.378-9.958c-0.818-0.057-1.498,0.725-1.5,1.5
			c-0.047,14.85-0.134,29.697,0,44.546c0.018,1.934,3.018,1.936,3,0c-0.134-14.849-0.047-29.697,0-44.546c-0.5,0.5-1,1-1.5,1.5
			c5.598,0.388,8.008,8.628,9.268,12.951c2.144,7.354,2.16,14.978,2.245,22.562c0.02,1.766,0.198,3.647-0.103,5.399
			c-0.048,0.281-1.595,0.194-2.118,0.218c-3.097,0.139-6.195,0.278-9.292,0.417C188.957,187.071,188.948,190.072,190.883,189.985z"
			/>
	</g>
</g>
<g>
	<g>
		<g>
			<path fill="#FFFFFF" d="M112.452,238.446h55.765c7.66,0,9.268,3.363,9.268,6.185v3.654c0,2.821-1.608,6.185-9.268,6.185H95.549"
				/>
		</g>
		<path fill="#FFFFFF" d="M167.479,190.593c0,29.087,0,58.175,0,87.262c0,7.17,11.118,7.17,11.118,0c0-29.087,0-58.175,0-87.262
			C178.596,183.423,167.479,183.423,167.479,190.593L167.479,190.593z"/>
		<path fill="#FFFFFF" d="M67.315,259.11c0,6.248,0,12.496,0,18.744c0,7.17,11.118,7.17,11.118,0c0-6.711,0-13.423,0-20.134"/>
	</g>
	<g>
		<path fill="#FFFFFF" d="M69.271,144.609c12.409,0.156,24.817,0.313,37.226,0.469c2.698,0.034,8.805-1.091,9.65,1.245
			c2.246,6.207,1.451,14.158,1.378,20.621c-0.193,17.223-0.83,34.676-1.916,51.866c-0.688,10.881-4.405,21.545-12.655,28.945
			c-7.179,6.438-17.091,8.858-26.428,9.839c-2.474,0.26-4.965,0.33-7.45,0.387c0.5,0.5,1,1,1.5,1.5
			c0-38.791,0.084-77.581,0.195-116.372c0.005-1.935-2.995-1.935-3,0c-0.111,38.791-0.195,77.581-0.195,116.372
			c0,0.804,0.682,1.519,1.5,1.5c18.265-0.417,36.699-5.684,45.074-23.406c4.218-8.926,4.491-18.646,4.708-28.313
			c0.182-8.111,0.719-16.216,1.088-24.32c0.41-9.013,0.767-18.047,0.531-27.069c-0.104-4.015,0.397-11.416-2.652-14.661
			c-1.875-1.996-6.647-1.075-9.008-1.105c-7.734-0.097-15.468-0.195-23.202-0.292c-5.448-0.069-10.896-0.137-16.343-0.206
			C67.335,141.585,67.338,144.585,69.271,144.609z"/>
	</g>
	<g>
		<path fill="#FFFFFF" d="M118.053,197.264c0,14.414,0,28.827,0,43.241c0,1.935,3,1.935,3,0c0-14.414,0-28.827,0-43.241
			C121.053,195.329,118.053,195.329,118.053,197.264L118.053,197.264z"/>
	</g>
	<g>
		<path fill="#FFFFFF" d="M135.224,197.264c0,14.414,0,28.827,0,43.241c0,1.935,3,1.935,3,0c0-14.414,0-28.827,0-43.241
			C138.224,195.329,135.224,195.329,135.224,197.264L135.224,197.264z"/>
	</g>
	<g>
		<path fill="#FFFFFF" d="M152.395,197.264c0,14.414,0,28.827,0,43.241c0,1.935,3,1.935,3,0c0-14.414,0-28.827,0-43.241
			C155.395,195.329,152.395,195.329,152.395,197.264L152.395,197.264z"/>
	</g>
	<g>
		<path fill="#FFFFFF" d="M160.98,197.264c0,14.414,0,28.827,0,43.241c0,1.935,3,1.935,3,0c0-14.414,0-28.827,0-43.241
			C163.98,195.329,160.98,195.329,160.98,197.264L160.98,197.264z"/>
	</g>
	<g>
		<path fill="#FFFFFF" d="M126.639,197.264c0,14.414,0,28.827,0,43.241c0,1.935,3,1.935,3,0c0-14.414,0-28.827,0-43.241
			C129.639,195.329,126.639,195.329,126.639,197.264L126.639,197.264z"/>
	</g>
	<g>
		<path fill="#FFFFFF" d="M143.81,197.264c0,14.414,0,28.827,0,43.241c0,1.935,3,1.935,3,0c0-14.414,0-28.827,0-43.241
			C146.81,195.329,143.81,195.329,143.81,197.264L143.81,197.264z"/>
	</g>
	<g>
		<path fill="#FFFFFF" d="M119.553,198.764c16.188,0,32.376,0,48.564,0c1.935,0,1.935-3,0-3c-16.188,0-32.376,0-48.564,0
			C117.618,195.764,117.618,198.764,119.553,198.764L119.553,198.764z"/>
	</g>
	<g>
		<path fill="#FFFFFF" d="M72.874,294.295c6.449,0,6.449-10,0-10S66.425,294.295,72.874,294.295L72.874,294.295z"/>
	</g>
	<g>
		<path fill="#FFFFFF" d="M173.037,294.295c6.449,0,6.449-10,0-10S166.588,294.295,173.037,294.295L173.037,294.295z"/>
	</g>
	<path fill="#FFFFFF" d="M77.043,241.667c0,2.303-1.866,4.169-4.169,4.169l0,0c-2.303,0-4.169-1.866-4.169-4.169l0,0
		c0-2.303,1.866-4.169,4.169-4.169l0,0C75.177,237.498,77.043,239.365,77.043,241.667L77.043,241.667z"/>
	<path fill="#FFFFFF" d="M82.602,180.385c0,2.303-1.867,4.169-4.169,4.169l0,0c-2.303,0-4.169-1.867-4.169-4.169l0,0
		c0-2.303,1.866-4.169,4.169-4.169l0,0C80.735,176.216,82.602,178.083,82.602,180.385L82.602,180.385z"/>
	<path fill="#FFFFFF" d="M118.991,155.491c0,2.303-1.867,4.169-4.169,4.169l0,0c-2.303,0-4.169-1.867-4.169-4.169l0,0
		c0-2.303,1.866-4.169,4.169-4.169l0,0C117.124,151.322,118.991,153.188,118.991,155.491L118.991,155.491z"/>
	<path fill="#FFFFFF" d="M85.382,163.83c0,2.303-1.867,4.169-4.169,4.169l0,0c-2.303,0-4.169-1.867-4.169-4.169l0,0
		c0-2.303,1.866-4.169,4.169-4.169l0,0C83.516,159.661,85.382,161.527,85.382,163.83L85.382,163.83z"/>
	<path fill="#FFFFFF" d="M78.433,149.667c0,2.303-1.867,4.169-4.169,4.169l0,0c-2.303,0-4.169-1.867-4.169-4.169l0,0
		c0-2.303,1.866-4.169,4.169-4.169l0,0C76.566,145.499,78.433,147.365,78.433,149.667L78.433,149.667z"/>
	<path fill="#FFFFFF" d="M102.401,147.278c0,2.303-1.867,4.169-4.169,4.169l0,0c-2.303,0-4.169-1.867-4.169-4.169l0,0
		c0-2.303,1.866-4.169,4.169-4.169l0,0C100.535,143.109,102.401,144.976,102.401,147.278L102.401,147.278z"/>
	<path fill="#FFFFFF" d="M108.059,213.943c0,2.303-1.867,4.169-4.169,4.169l0,0c-2.303,0-4.169-1.867-4.169-4.169l0,0
		c0-2.303,1.866-4.169,4.169-4.169l0,0C106.192,209.774,108.059,211.641,108.059,213.943L108.059,213.943z"/>
	<path fill="#FFFFFF" d="M114.821,171.916c0,2.303-1.866,4.169-4.169,4.169l0,0c-2.303,0-4.169-1.866-4.169-4.169l0,0
		c0-2.303,1.866-4.169,4.169-4.169l0,0C112.955,167.747,114.821,169.613,114.821,171.916L114.821,171.916z"/>
	<path fill="#FFFFFF" d="M87.048,252.507c0,2.303-1.866,4.169-4.169,4.169l0,0c-2.303,0-4.169-1.866-4.169-4.169l0,0
		c0-2.303,1.867-4.169,4.169-4.169l0,0C85.182,248.338,87.048,250.205,87.048,252.507L87.048,252.507z"/>
	<path fill="#FFFFFF" d="M81.213,193.556c0,2.303-1.867,4.169-4.169,4.169l0,0c-2.303,0-4.169-1.867-4.169-4.169l0,0
		c0-2.303,1.866-4.169,4.169-4.169l0,0C79.346,189.387,81.213,191.253,81.213,193.556L81.213,193.556z"/>
	<path fill="#FFFFFF" d="M97.979,242.047c2.093-0.961,4.568-0.043,5.529,2.05l0,0c0.96,2.093,0.042,4.568-2.05,5.529l0,0
		c-2.092,0.959-4.567,0.042-5.528-2.05l0,0C94.969,245.482,95.887,243.007,97.979,242.047L97.979,242.047z"/>
	<path fill="#FFFFFF" d="M108.911,227.594c2.093-0.96,4.568-0.043,5.529,2.05l0,0c0.96,2.093,0.042,4.568-2.05,5.529l0,0
		c-2.093,0.959-4.568,0.043-5.529-2.05l0,0C105.901,231.03,106.819,228.555,108.911,227.594L108.911,227.594z"/>
	<path fill="#FFFFFF" d="M89.216,225.32c1.967,1.197,2.592,3.761,1.396,5.729l0,0c-1.197,1.967-3.761,2.592-5.729,1.396l0,0
		c-1.967-1.197-2.593-3.762-1.396-5.729l0,0C84.683,224.748,87.248,224.123,89.216,225.32L89.216,225.32z"/>
	<path fill="#FFFFFF" d="M75.041,206.211c1.967,1.197,2.592,3.761,1.396,5.729l0,0c-1.196,1.968-3.761,2.593-5.729,1.396l0,0
		c-1.968-1.196-2.592-3.761-1.396-5.728l0,0C70.509,205.639,73.073,205.015,75.041,206.211L75.041,206.211z"/>
	<path fill="#FFFFFF" d="M108.648,185.823c1.967,1.196,2.592,3.762,1.396,5.729l0,0c-1.197,1.968-3.761,2.592-5.728,1.396l0,0
		c-1.968-1.197-2.592-3.761-1.396-5.729l0,0C104.117,185.251,106.681,184.627,108.648,185.823L108.648,185.823z"/>
	<path fill="#FFFFFF" d="M96.229,168.354c1.968,1.197,2.592,3.761,1.396,5.729l0,0c-1.196,1.968-3.761,2.592-5.729,1.396l0,0
		c-1.967-1.197-2.592-3.761-1.396-5.729l0,0C91.697,167.782,94.261,167.158,96.229,168.354L96.229,168.354z"/>
	<path fill="#FFFFFF" d="M95.334,197.872c1.968,1.196,2.593,3.761,1.396,5.728l0,0c-1.196,1.968-3.76,2.592-5.729,1.396l0,0
		c-1.968-1.197-2.592-3.761-1.395-5.729l0,0C90.803,197.299,93.367,196.675,95.334,197.872L95.334,197.872z"/>
</g>
</svg>
