<?xml version="1.0" encoding="iso-8859-1"?>
<!-- Generator: Adobe Illustrator 16.0.0, SVG Export Plug-In . SVG Version: 6.00 Build 0)  -->
<!DOCTYPE svg PUBLIC "-//W3C//DTD SVG 1.1//EN" "http://www.w3.org/Graphics/SVG/1.1/DTD/svg11.dtd">
<svg version="1.1" xmlns="http://www.w3.org/2000/svg" xmlns:xlink="http://www.w3.org/1999/xlink" x="0px" y="0px" width="361px"
	 height="361px" viewBox="0 0 361 361" style="enable-background:new 0 0 361 361;" xml:space="preserve">
<g id="scene_x5F_horse">
	<g style="display:none;">
		<g style="display:inline;">
			<g>
				<path style="fill:#FFFFFF;" d="M245.586,240.789c-0.405,4.518-5.74,3.539-8.888,3.539c-4.967,0-9.934,0-14.9,0
					c-2.628,0-5.255,0-7.882,0c-5.081,0-3.537-8.916-3.537-12.084c0-4.515,6.011-3.537,8.887-3.537c4.967,0,9.934,0,14.9,0
					c2.628,0,5.255,0,7.882,0C247.13,228.707,245.586,237.62,245.586,240.789c0,4.514,7,4.514,7,0
					c0-5.829,0.965-11.909-3.528-16.402c-3.683-3.681-10.178-2.68-14.892-2.68c-6.085,0-12.171,0-18.256,0
					c-6.785,0-11.889,3.364-12.531,10.537c-0.5,5.574-0.65,12.224,3.528,16.403c3.681,3.682,10.177,2.681,14.891,2.681
					c6.085,0,12.171,0,18.256,0c6.785,0,11.89-3.366,12.532-10.539C252.989,236.291,245.985,236.33,245.586,240.789z"/>
			</g>
		</g>
		<path style="display:inline;fill:#FFFFFF;stroke:#FFFFFF;stroke-miterlimit:10;" d="M218.189,221.896
			c0,2.742-2.225,4.965-4.967,4.965l0,0c-2.742,0-4.965-2.223-4.965-4.965v-8c0-2.742,2.223-4.965,4.965-4.965l0,0
			c2.742,0,4.967,2.223,4.967,4.965V221.896z"/>
		<g style="display:inline;">
			<g>
				<path style="fill:#FFFFFF;" d="M273.172,241.205c-0.504,4.511-11.476,2.846-14.37,2.846c-2.118,0-6.216,0.435-6.216-2.888
					c0-1.212,0-2.425,0-3.637c0-8.888,0-17.775,0-26.663c0-4.42,11.894-2.846,14.369-2.846c2.117,0,6.217-0.435,6.217,2.888
					c0,1.212,0,2.425,0,3.637C273.172,223.43,273.172,232.317,273.172,241.205c0,4.514,7,4.514,7,0
					c0-10.395,1.012-21.293-0.143-31.621c-1.016-9.075-10.898-8.566-17.633-8.566c-7.623,0-15.75,0.354-16.811,9.846
					c-0.551,4.924,0,10.222,0,15.171c0,5.42-0.46,11.056,0.143,16.45c1.015,9.075,10.898,8.566,17.632,8.566
					c7.624,0,15.751-0.354,16.812-9.846C280.673,236.723,273.668,236.771,273.172,241.205z"/>
			</g>
		</g>
		<g style="display:inline;">
			<g>
				<path style="fill:#FFFFFF;" d="M247.154,207.189c13.609,0,27.219,0,40.828,0c4.514,0,4.514-7,0-7c-13.609,0-27.219,0-40.828,0
					C242.641,200.189,242.641,207.189,247.154,207.189L247.154,207.189z"/>
			</g>
		</g>
		<g style="display:inline;">
			<g>
				<path style="fill:#FFFFFF;" d="M211.98,251.328c19.448,0,38.897,0,58.346,0c4.514,0,4.514-7,0-7c-19.448,0-38.897,0-58.346,0
					C207.467,244.328,207.467,251.328,211.98,251.328L211.98,251.328z"/>
			</g>
		</g>
		<g style="display:inline;">
			<g>
				<path style="fill:#FFFFFF;" d="M217.447,257.758c-0.446,8.295-12.415,8.294-12.861,0
					C204.14,249.461,217.003,249.505,217.447,257.758c0.242,4.489,7.243,4.513,7,0c-0.409-7.591-5.839-13.021-13.43-13.43
					c-7.575-0.408-13.056,6.451-13.432,13.43c-0.408,7.576,6.453,13.056,13.432,13.432c7.575,0.408,13.054-6.454,13.43-13.432
					C224.69,253.245,217.688,253.269,217.447,257.758z"/>
			</g>
		</g>
		<g style="display:inline;">
			<g>
				<path style="fill:#FFFFFF;" d="M270.137,257.758c-0.446,8.295-12.416,8.294-12.862,0
					C256.828,249.461,269.692,249.505,270.137,257.758c0.242,4.489,7.243,4.513,7,0c-0.409-7.592-5.84-13.021-13.431-13.43
					c-7.575-0.408-13.056,6.452-13.432,13.43c-0.408,7.576,6.453,13.056,13.432,13.432c7.576,0.408,13.055-6.453,13.431-13.432
					C277.38,253.245,270.378,253.269,270.137,257.758z"/>
			</g>
		</g>
		<g style="display:inline;">
			<g>
				<path style="fill:#FFFFFF;" d="M243.932,257.758c-0.446,8.294-12.417,8.295-12.863,0
					C230.622,249.461,243.487,249.506,243.932,257.758c0.242,4.489,7.243,4.513,7,0c-0.409-7.592-5.841-13.021-13.432-13.43
					c-7.575-0.408-13.056,6.452-13.432,13.43c-0.408,7.576,6.453,13.056,13.432,13.432c7.575,0.408,13.056-6.453,13.432-13.432
					C251.175,253.245,244.174,253.269,243.932,257.758z"/>
			</g>
		</g>
	</g>
	<g style="display:none;">
		<g style="display:inline;">
			<path style="fill:#FFFFFF;" d="M155.601,185.574c-0.335,15.337-12.33,27.33-27.667,27.666
				c-15.336,0.336-27.342-12.835-27.667-27.666c-0.335-15.336,12.835-27.342,27.667-27.667
				C143.271,157.572,155.277,170.743,155.601,185.574c0.099,4.507,7.099,4.517,7,0c-0.419-19.18-15.487-34.247-34.667-34.667
				c-19.178-0.419-34.261,16.118-34.667,34.667c-0.419,19.179,16.118,34.261,34.667,34.666c19.178,0.42,34.261-16.117,34.667-34.666
				C162.7,181.058,155.7,181.067,155.601,185.574z"/>
		</g>
	</g>
	<g id="Schiff_x5F_orig_3_" style="display:none;">
		<path style="display:inline;fill:#FFFFFF;" d="M212.456,278.088c1.675,2.152,2.474,2.659,4.432,2.659h35.971
			c0.517,0,2.733,0.303,4.06-0.835l23.341-17.279c1.923-1.378,1.479-4.313-2.509-4.313h-75.044c-3.545,0-4.505,2.122-3.094,4.096
			L212.456,278.088z"/>
		<g style="display:inline;">
			<g>
				<path style="fill:#FFFFFF;" d="M243.219,256.145c11.504,0,23.008,0,34.512,0c1.055,0,1.98-1.307,1.295-2.257
					c-11.504-15.955-23.008-31.909-34.512-47.863c-0.832-1.154-2.795-0.837-2.795,0.757c0,15.954,0,31.909,0,47.863
					c0,1.935,3,1.935,3,0c0-15.954,0-31.909,0-47.863c-0.932,0.252-1.863,0.505-2.795,0.757
					c11.504,15.955,23.008,31.909,34.512,47.863c0.432-0.752,0.863-1.505,1.295-2.257c-11.504,0-23.008,0-34.512,0
					C241.284,253.145,241.284,256.145,243.219,256.145z"/>
			</g>
		</g>
		<g style="display:inline;">
			<g>
				<path style="fill:#FFFFFF;" d="M233.848,204.16c0,17.234,0,34.469,0,51.703c0,4.514,7,4.514,7,0c0-17.234,0-34.469,0-51.703
					C240.848,199.646,233.848,199.646,233.848,204.16L233.848,204.16z"/>
			</g>
		</g>
		<g style="display:inline;">
			<g>
				<path style="fill:#FFFFFF;" d="M231.473,253.145c-6.592,0-13.184,0-19.775,0c0.482,0.633,0.964,1.266,1.446,1.898
					c6.592-15.954,13.184-31.908,19.775-47.863c-0.982-0.133-1.964-0.266-2.946-0.398c0,15.954,0,31.909,0,47.863
					c0,1.935,3,1.935,3,0c0-15.954,0-31.909,0-47.863c0-1.816-2.335-1.879-2.946-0.398c-6.592,15.954-13.184,31.908-19.775,47.863
					c-0.381,0.921,0.563,1.898,1.446,1.898c6.592,0,13.184,0,19.775,0C233.407,256.145,233.407,253.145,231.473,253.145z"/>
			</g>
		</g>
	</g>
	<g>
		<g>
			<path style="fill:#FFFFFF;" d="M285.5,266.667c-0.116-45.653-8.443-92.89-30.66-133.231
				c-15.468-28.085-41.4-55.481-75.674-55.769c-4.793-0.04-7.073,7.049-2.523,9.317c0.223,0.111,0.446,0.223,0.67,0.334
				c0.841-3.106,1.682-6.211,2.523-9.317c-4.435-0.074-7.55-0.442-10.579-3.56c-3.206-3.299-7.268-4.332-11.754-4.44
				c-2.726-0.066-5,2.324-5,5c0,4.415-0.124,9.804-3.024,13.448c-2.004,2.519-5.383,2.108-8.147,3.303
				c-7.579,3.274-14.651,7.973-20.415,13.895c-7.875,8.092-9.696,19.642-15.482,29.137c-5.527,9.069-12.668,17.031-19.923,24.735
				c-4.806,5.104-10.513,10.091-14.091,16.194c-1.23,2.099-1.888,4.633-1.199,7.022c1.17,4.054-0.056-2.307-0.056-0.735
				c0,1.148,0.261,2.323,0.466,3.447c0.498,2.728,2.012,5.419,3.437,7.753c3.078,5.042,15.256,20.157,22.299,14.002
				c8.22-7.183,19.252-11.633,29.539-14.879c7.453-2.352,14.852-2.417,22.467-3.749c8.09-1.416,16.015-4.684,22.623-9.566
				c13.212-9.761,19.002-25.298,19.172-41.341c-3.105,0.841-6.212,1.683-9.317,2.523c2.148,2.854,2.321,7.099,2.612,10.557
				c0.512,6.075,0.41,12.208,0.259,18.295c-0.301,12.086-0.941,24.247-1.829,36.305c-0.841,11.421-3.765,22.581-5.944,33.79
				c-2.965,15.247-4.396,30.666-4.45,46.195c-0.022,6.449,9.978,6.447,10,0c0.053-15.476,1.548-30.695,4.55-45.871
				c2.317-11.719,5.049-23.318,5.929-35.266c0.923-12.54,1.542-25.189,1.804-37.758c0.13-6.262,0.076-12.556-0.62-18.786
				c-0.466-4.166-1.072-9.051-3.676-12.509c-2.844-3.777-9.26-2.844-9.317,2.523c-0.104,9.746-2.395,19.492-8.641,27.202
				c-6.17,7.614-15.104,11.745-24.496,13.803c-4.659,1.021-9.404,0.946-14.104,1.657c-5.102,0.772-10.088,2.388-14.931,4.123
				c-10.194,3.649-20.492,8.508-28.7,15.681c1.622-0.429,3.243-0.857,4.865-1.286c-6.103-1.727-12.335-10.27-13.887-16.057
				c-0.338-1.261-0.192-2.381-0.792-3.646c0.316,1.809,0.464,2.267,0.443,1.373c-0.01,1.51,0.348-0.277-0.097,0.67
				c0.81-1.727,2.159-3.19,3.398-4.61c10.289-11.784,21.56-22.37,30.124-35.603c2.447-3.781,4.553-7.767,6.374-11.883
				c1.791-4.049,2.685-8.568,5.023-12.321c4.024-6.459,10.986-11.005,17.59-14.469c1.036-0.543,2.095-1.042,3.159-1.526
				c1.063-0.484-0.543,0.192,0.625-0.268c2.53-0.994,6.146-1.086,8.958-3.566c6.173-5.442,7.421-14.141,7.421-21.938
				c-1.667,1.667-3.333,3.333-5,5c3.681,0.089,4.197,1.316,6.79,3.56c4.318,3.738,10.044,4.349,15.544,4.44
				c4.812,0.08,7.05-7.061,2.523-9.317c-0.223-0.111-0.446-0.223-0.67-0.334c-0.841,3.106-1.682,6.211-2.523,9.317
				c31.244,0.262,53.771,26.724,67.667,51.957c21.094,38.301,28.557,83.78,28.667,127.043
				C275.517,273.115,285.517,273.116,285.5,266.667L285.5,266.667z"/>
		</g>
	</g>
	<g>
		<g>
			<path style="fill:#FFFFFF;" d="M144.167,126.667c6.449,0,6.449-10,0-10S137.718,126.667,144.167,126.667L144.167,126.667z"/>
		</g>
	</g>
</g>
<g id="Ebene_1">
</g>
</svg>
