<?xml version="1.0" encoding="iso-8859-1"?>
<!-- Generator: Adobe Illustrator 16.0.0, SVG Export Plug-In . SVG Version: 6.00 Build 0)  -->
<!DOCTYPE svg PUBLIC "-//W3C//DTD SVG 1.1//EN" "http://www.w3.org/Graphics/SVG/1.1/DTD/svg11.dtd">
<svg version="1.1" xmlns="http://www.w3.org/2000/svg" xmlns:xlink="http://www.w3.org/1999/xlink" x="0px" y="0px" width="361px"
	 height="361px" viewBox="0 0 361 361" style="enable-background:new 0 0 361 361;" xml:space="preserve">
<g id="scene_x5F_sleeping">
	<path style="fill:#FFFFFF;stroke:#FFFFFF;stroke-width:10;stroke-miterlimit:10;" d="M286.833,262.73
		c0,1.622-2.595,2.937-5.795,2.937H80.628c-3.2,0-5.795-1.314-5.795-2.937v-17.127c0-1.622,2.595-2.937,5.795-2.937h200.41
		c3.2,0,5.795,1.314,5.795,2.937V262.73z"/>
	<path style="fill:#FFFFFF;stroke:#FFFFFF;stroke-width:10;stroke-miterlimit:10;" d="M214.112,239.09
		c0,3.152-2.901,5.709-6.478,5.709H88.337c-3.577,0-6.478-2.557-6.478-5.709v-25.214c0-3.153,2.901-5.709,6.478-5.709h119.298
		c3.576,0,6.478,2.556,6.478,5.709V239.09z"/>
	<path style="fill:#FFFFFF;stroke:#FFFFFF;stroke-width:10;stroke-miterlimit:10;" d="M234.833,241.709
		c0,3.393,2.751,6.143,6.143,6.143h30.715c3.392,0,6.143-2.75,6.143-6.143V225.84c0-3.393-2.751-6.143-6.143-6.143h-30.715
		c-3.392,0-6.143,2.75-6.143,6.143V241.709z"/>
	<g>
		<g>
			<path style="fill:#FFFFFF;" d="M69.833,222.391c0,21.512,0,43.022,0,64.534c0,6.448,10,6.448,10,0c0-21.512,0-43.022,0-64.534
				C79.833,215.942,69.833,215.942,69.833,222.391L69.833,222.391z"/>
		</g>
	</g>
	<g>
		<g>
			<path style="fill:#FFFFFF;" d="M281.833,194.667c0,31.056,0,62.111,0,93.167c0,6.448,10,6.448,10,0c0-31.056,0-62.111,0-93.167
				C291.833,188.219,281.833,188.219,281.833,194.667L281.833,194.667z"/>
		</g>
	</g>
	<g>
		<g>
			<g>
				<path style="fill:#FFFFFF;" d="M82.807,140.606c-10.909-19.745-4.202-44.221,15.175-55.727c3.876-2.302,0.358-8.354-3.533-6.044
					c-22.684,13.468-30.433,42.232-17.686,65.304C78.945,148.091,84.991,144.561,82.807,140.606L82.807,140.606z"/>
			</g>
		</g>
		<g>
			<g>
				<path style="fill:#FFFFFF;" d="M138.438,155.619c-19.745,10.908-44.222,4.201-55.727-15.176
					c-2.302-3.876-8.354-0.358-6.044,3.533c13.469,22.684,42.232,30.433,65.304,17.687
					C145.922,159.48,142.392,153.435,138.438,155.619L138.438,155.619z"/>
			</g>
		</g>
		<g>
			<g>
				<path style="fill:#FFFFFF;" d="M93.93,133.25c-4.229-7.669-5.632-16.662-5.551-25.329c0.078-8.201,2.05-18.465,9.583-23.097
					c3.837-2.359,0.324-8.416-3.533-6.044c-18.052,11.099-15.396,41.949-6.543,58.003C90.065,140.737,96.111,137.206,93.93,133.25
					L93.93,133.25z"/>
			</g>
		</g>
		<g>
			<g>
				<path style="fill:#FFFFFF;" d="M138.438,155.619c-7.882,4.158-17.544,0.053-24.635-3.91
					c-7.846-4.385-15.253-10.78-19.883-18.548c-2.308-3.873-8.361-0.354-6.044,3.533c9.407,15.783,35.112,34.983,54.095,24.969
					C145.965,159.556,142.427,153.515,138.438,155.619L138.438,155.619z"/>
			</g>
		</g>
	</g>
	<path style="fill:#FFFFFF;stroke:#FFFFFF;stroke-miterlimit:10;" d="M120.306,95.711c0,0.822-0.667,1.49-1.49,1.49l0,0
		c-0.823,0-1.489-0.667-1.489-1.49l0,0c0-0.824,0.666-1.49,1.489-1.49l0,0C119.638,94.221,120.306,94.887,120.306,95.711
		L120.306,95.711z"/>
	<path style="fill:#FFFFFF;stroke:#FFFFFF;stroke-miterlimit:10;" d="M131.956,73.358c0,1.571-1.274,2.845-2.845,2.845l0,0
		c-1.571,0-2.845-1.274-2.845-2.845l0,0c0-1.572,1.273-2.845,2.845-2.845l0,0C130.682,70.514,131.956,71.787,131.956,73.358
		L131.956,73.358z"/>
	<path style="fill:#FFFFFF;stroke:#FFFFFF;stroke-miterlimit:10;" d="M144.374,97.252c0,1.368-1.109,2.478-2.477,2.478h-0.826
		c-1.367,0-2.477-1.109-2.477-2.478v-0.826c0-1.368,1.109-2.477,2.477-2.477h0.826c1.368,0,2.477,1.109,2.477,2.477V97.252z"/>
	<path style="fill:#FFFFFF;stroke:#FFFFFF;stroke-width:10;stroke-miterlimit:10;" d="M188.582,139.097
		c0,2.388-1.736,4.323-3.881,4.323h-30.066c-2.142,0-3.88-1.936-3.88-4.323v-31.342c0-2.387,1.738-4.323,3.88-4.323h30.066
		c2.145,0,3.881,1.936,3.881,4.323V139.097z"/>
	<path style="fill:#FFFFFF;stroke:#FFFFFF;stroke-width:10;stroke-miterlimit:10;" d="M131.661,128.29
		c0,2.387,1.937,4.323,4.324,4.323h20.174c2.387,0,4.323-1.936,4.323-4.323v-12.25c0-2.387-1.936-4.323-4.323-4.323h-20.174
		c-2.387,0-4.324,1.936-4.324,4.323V128.29z"/>
	<path style="fill:#FFFFFF;stroke:#FFFFFF;stroke-width:10;stroke-miterlimit:10;" d="M123.015,128.29
		c0-2.388,1.936-4.324,4.323-4.324h24.858c2.387,0,4.323,1.936,4.323,4.324v6.844c0,2.387-1.936,4.323-4.323,4.323h-24.858
		c-2.387,0-4.323-1.936-4.323-4.323V128.29z"/>
	<path style="fill:#FFFFFF;stroke:#FFFFFF;stroke-width:10;stroke-miterlimit:10;" d="M174.171,135.134
		c0,2.387,1.936,4.323,4.324,4.323h20.173c2.389,0,4.324-1.936,4.324-4.323v-12.25c0-2.387-1.936-4.323-4.324-4.323h-20.173
		c-2.388,0-4.324,1.936-4.324,4.323V135.134z"/>
</g>
<g id="Ebene_1">
</g>
</svg>
