<?xml version="1.0" encoding="iso-8859-1"?>
<!-- Generator: Adobe Illustrator 16.0.0, SVG Export Plug-In . SVG Version: 6.00 Build 0)  -->
<!DOCTYPE svg PUBLIC "-//W3C//DTD SVG 1.1//EN" "http://www.w3.org/Graphics/SVG/1.1/DTD/svg11.dtd">
<svg version="1.1" xmlns="http://www.w3.org/2000/svg" xmlns:xlink="http://www.w3.org/1999/xlink" x="0px" y="0px" width="361px"
	 height="361px" viewBox="0 0 361 361" style="enable-background:new 0 0 361 361;" xml:space="preserve">
<g id="scene_x5F_sauna">
	<circle style="fill:#FFFFFF;stroke:#FFFFFF;" cx="244.923" cy="130.845" r="21.125"/>
	<path style="fill:#FFFFFF;" d="M250.637,175.363c-1.865-4.405-0.903-9.024,2.148-10.316l2.302-0.975
		c3.052-1.292,7.038,1.232,8.903,5.637l26.879,63.477c1.865,4.405,0.903,9.024-2.148,10.315l-2.302,0.975
		c-3.052,1.293-7.037-1.231-8.903-5.637L250.637,175.363z"/>
	<g>
		<g>
			<path style="fill:#FFFFFF;" d="M149.633,226.322c-13.959,14.823-27.918,29.646-41.878,44.471
				c-9.924,10.538,6.021,26.422,15.998,15.826c13.959-14.823,27.918-29.646,41.878-44.471
				C175.555,231.61,159.61,215.728,149.633,226.322L149.633,226.322z"/>
		</g>
	</g>
	<g>
		<g>
			<path style="fill:#FFFFFF;" d="M164.376,228.61c-7.014,14.701-14.028,29.401-21.042,44.103
				c-2.638,5.529-1.502,12.123,4.118,15.368c4.997,2.885,12.725,1.421,15.368-4.118c7.014-14.701,14.028-29.401,21.042-44.103
				c2.638-5.529,1.501-12.123-4.118-15.368C174.748,221.607,167.019,223.071,164.376,228.61L164.376,228.61z"/>
		</g>
	</g>
	<g>
		<g>
			<path style="fill:#FFFFFF;" d="M244.781,269.5c-16.094,0-32.188,0-48.281,0c0.5,0.5,1,1,1.5,1.5
				c-1.17-9.324-2.34-18.647-3.509-27.972c-0.126-1.004-0.915-1.733-1.508-2.516c-1.834-2.423-3.667-4.845-5.501-7.267
				c-3.063-4.046-6.125-8.092-9.188-12.138c-0.299,0.734-0.598,1.469-0.896,2.203c6.646-2.234,13.14-4.832,19.908-6.702
				c4.568-1.263,5.487-0.989,9.644,0.581c9.491,3.586,18.982,7.172,28.473,10.757c1.491,0.563,2.982,1.127,4.473,1.69
				c0.418,0.157,0.836,0.315,1.254,0.474c0.93,0.351-0.353-0.052-0.277,0.193c1.474,4.834,2.075,9.866,2.169,14.892
				c0.161,8.6,0.196,17.203,0.24,25.804c0.01,1.934,3.01,1.935,3,0c-0.046-9.074-0.081-18.151-0.268-27.224
				c-0.106-5.176-1.068-10.397-2.576-15.343c-0.499-1.637-4.596-2.389-5.889-2.877c-9.934-3.753-19.867-7.506-29.801-11.259
				c-3.405-1.287-4.744-2.058-8.377-1.288c-7.826,1.655-15.216,4.869-22.771,7.409c-0.825,0.277-1.516,1.385-0.896,2.203
				c2.665,3.52,5.329,7.04,7.993,10.56c1.832,2.42,3.663,4.839,5.495,7.259c0.604,0.798,1.207,1.595,1.811,2.393
				c0.617,0.814,0.589,1,0.505,0.326c1.164,9.28,2.328,18.561,3.492,27.841c0.102,0.812,0.605,1.5,1.5,1.5
				c16.094,0,32.188,0,48.281,0C246.716,272.5,246.716,269.5,244.781,269.5z"/>
		</g>
	</g>
	<path style="fill:#FFFFFF;" d="M255.063,159.71c-9.543-5.51-23.457-2.5-28.687,7.687c-7.922,15.43-15.842,30.859-23.764,46.288
		c-0.039,0.075-0.068,0.154-0.105,0.23l39.483,14.917c6.919-13.479,13.839-26.957,20.759-40.436
		C267.974,178.222,265.338,165.642,255.063,159.71z"/>
	<path style="fill:#FFFFFF;" d="M175.646,221.865c-8.147,0.27-9.126,0.302-17.273,0.57c-13.173,0.436-13.328,22.941-0.147,22.506
		c11.587-0.383,23.174-0.766,34.761-1.148L175.646,221.865z"/>
	<g>
		<path style="fill:#FFFFFF;" d="M194.597,249.167c-1.332,0-2.665,0-3.997,0c-6.448,0-6.448,10,0,10c1.482,0,2.964,0,4.445,0
			L194.597,249.167z"/>
		<path style="fill:#FFFFFF;" d="M287.245,249.167c-14.107,0-28.215,0-42.322,0v10c14.107,0,28.215,0,42.322,0
			C293.693,259.167,293.693,249.167,287.245,249.167z"/>
	</g>
	<rect x="199" y="237.667" style="fill:none;" width="41.166" height="11.5"/>
	<g>
		<g>
			<g>
				<path style="fill:#FFFFFF;" d="M74.833,215.667c21.5,0,43,0,64.5,0c6.449,0,6.449-10,0-10c-21.5,0-43,0-64.5,0
					C68.384,205.667,68.384,215.667,74.833,215.667L74.833,215.667z"/>
			</g>
		</g>
		<g id="Dampf">
			<g>
				<g>
					<path style="fill:#FFFFFF;" d="M107.208,188.598c1.5-4.667,3-9.333,4.5-14c1.385-4.31-5.375-6.141-6.75-1.861
						c-1.5,4.667-3,9.334-4.5,14C99.073,191.047,105.833,192.877,107.208,188.598L107.208,188.598z"/>
				</g>
			</g>
			<g>
				<g>
					<path style="fill:#FFFFFF;" d="M111.208,170.236c-1.333-5.833-2.667-11.667-4-17.5c-1.006-4.4-7.754-2.534-6.75,1.861
						c1.333,5.833,2.667,11.667,4,17.5C105.464,176.498,112.212,174.631,111.208,170.236L111.208,170.236z"/>
				</g>
			</g>
			<g>
				<g>
					<path style="fill:#FFFFFF;" d="M107.208,154.598c1.5-4.667,3-9.333,4.5-14c1.385-4.31-5.375-6.141-6.75-1.861
						c-1.5,4.667-3,9.333-4.5,14C99.073,157.046,105.833,158.877,107.208,154.598L107.208,154.598z"/>
				</g>
			</g>
			<g>
				<g>
					<path style="fill:#FFFFFF;" d="M111.208,136.236c-1.333-5.833-2.667-11.667-4-17.5c-1.006-4.4-7.754-2.534-6.75,1.861
						c1.333,5.833,2.667,11.667,4,17.5C105.464,142.498,112.212,140.631,111.208,136.236L111.208,136.236z"/>
				</g>
			</g>
			<g>
				<g>
					<path style="fill:#FFFFFF;" d="M107.208,120.598c1.5-4.667,3-9.333,4.5-14c1.385-4.31-5.375-6.141-6.75-1.861
						c-1.5,4.667-3,9.333-4.5,14C99.073,123.046,105.833,124.877,107.208,120.598L107.208,120.598z"/>
				</g>
			</g>
			<g>
				<g>
					<path style="fill:#FFFFFF;" d="M131.708,196.736c-1.5-4.666-3-9.333-4.5-14c-1.375-4.279-8.135-2.449-6.75,1.861
						c1.5,4.666,3,9.333,4.5,14C126.333,202.877,133.093,201.047,131.708,196.736L131.708,196.736z"/>
				</g>
			</g>
			<g>
				<g>
					<path style="fill:#FFFFFF;" d="M127.708,182.098c1.333-5.833,2.667-11.667,4-17.5c1.004-4.395-5.744-6.261-6.75-1.861
						c-1.333,5.833-2.667,11.667-4,17.5C119.954,184.631,126.702,186.497,127.708,182.098L127.708,182.098z"/>
				</g>
			</g>
			<g>
				<g>
					<path style="fill:#FFFFFF;" d="M131.708,162.736c-1.5-4.667-3-9.333-4.5-14c-1.375-4.279-8.135-2.449-6.75,1.861
						c1.5,4.667,3,9.333,4.5,14C126.333,168.877,133.093,167.046,131.708,162.736L131.708,162.736z"/>
				</g>
			</g>
			<g>
				<g>
					<path style="fill:#FFFFFF;" d="M127.708,148.098c1.333-5.833,2.667-11.667,4-17.5c1.004-4.395-5.744-6.261-6.75-1.861
						c-1.333,5.833-2.667,11.667-4,17.5C119.954,150.631,126.702,152.498,127.708,148.098L127.708,148.098z"/>
				</g>
			</g>
			<g>
				<g>
					<path style="fill:#FFFFFF;" d="M131.708,128.736c-1.5-4.667-3-9.333-4.5-14c-1.375-4.279-8.135-2.449-6.75,1.861
						c1.5,4.667,3,9.333,4.5,14C126.333,134.877,133.093,133.046,131.708,128.736L131.708,128.736z"/>
				</g>
			</g>
			<g>
				<g>
					<path style="fill:#FFFFFF;" d="M88.208,198.901c1.5-4.667,3-9.334,4.5-14c1.385-4.31-5.375-6.141-6.75-1.861
						c-1.5,4.667-3,9.334-4.5,14C80.073,201.351,86.833,203.181,88.208,198.901L88.208,198.901z"/>
				</g>
			</g>
			<g>
				<g>
					<path style="fill:#FFFFFF;" d="M92.208,180.54c-1.333-5.833-2.667-11.667-4-17.5c-1.006-4.4-7.754-2.534-6.75,1.861
						c1.333,5.833,2.667,11.667,4,17.5C86.464,186.801,93.212,184.935,92.208,180.54L92.208,180.54z"/>
				</g>
			</g>
			<g>
				<g>
					<path style="fill:#FFFFFF;" d="M88.208,164.901c1.5-4.667,3-9.333,4.5-14c1.385-4.31-5.375-6.141-6.75-1.861
						c-1.5,4.667-3,9.333-4.5,14C80.073,167.35,86.833,169.18,88.208,164.901L88.208,164.901z"/>
				</g>
			</g>
			<g>
				<g>
					<path style="fill:#FFFFFF;" d="M92.208,146.54c-1.333-5.833-2.667-11.667-4-17.5c-1.006-4.4-7.754-2.534-6.75,1.861
						c1.333,5.833,2.667,11.667,4,17.5C86.464,152.801,93.212,150.935,92.208,146.54L92.208,146.54z"/>
				</g>
			</g>
			<g>
				<g>
					<path style="fill:#FFFFFF;" d="M88.208,130.901c1.5-4.667,3-9.333,4.5-14c1.385-4.31-5.375-6.141-6.75-1.861
						c-1.5,4.667-3,9.333-4.5,14C80.073,133.35,86.833,135.18,88.208,130.901L88.208,130.901z"/>
				</g>
			</g>
		</g>
	</g>
</g>
<g id="Ebene_1">
</g>
</svg>
