<?xml version="1.0" encoding="iso-8859-1"?>
<!-- Generator: Adobe Illustrator 16.0.0, SVG Export Plug-In . SVG Version: 6.00 Build 0)  -->
<!DOCTYPE svg PUBLIC "-//W3C//DTD SVG 1.1//EN" "http://www.w3.org/Graphics/SVG/1.1/DTD/svg11.dtd">
<svg version="1.1" xmlns="http://www.w3.org/2000/svg" xmlns:xlink="http://www.w3.org/1999/xlink" x="0px" y="0px" width="361px"
	 height="361px" viewBox="0 0 361 361" style="enable-background:new 0 0 361 361;" xml:space="preserve">
<g id="scene_x5F_power_x5F_inverter">
	<g>
		<g>
			<path style="fill:#FFFFFF;" d="M244.634,276.27c-0.344,5.112-4.735,5-8.462,5c-4.469,0-8.938,0-13.407,0
				c-14.876,0-29.753,0-44.63,0c-22.829,0-45.657,0-68.485,0c-7.031,0-5.01-12.21-5.01-16.578c0-11.863,0-23.728,0-35.591
				c0-31.929,0-63.857,0-95.785c0-11.985,0-23.97,0-35.955c0-4.765-2.116-16.613,5-17.091c7.017-0.472,14.229,0,21.257,0
				c15.414,0,30.827,0,46.24,0c14.975,0,29.95,0,44.925,0c4.584,0,9.168,0,13.751,0c3.44,0,7.21-0.458,8.644,3.671
				c0.511,1.47,0.179,3.61,0.179,5.113c0,3.672,0,7.345,0,11.018c0,12.567,0,25.134,0,37.7
				C244.634,183.937,244.634,230.104,244.634,276.27c0,6.448,10,6.448,10,0c0-49.662,0-99.325,0-148.987c0-11.103,0-22.206,0-33.308
				c0-8.608,0.678-17.589-8.584-22.237c-3.248-1.63-6.741-1.468-10.238-1.468c-4.583,0-9.167,0-13.751,0c-14.975,0-29.95,0-44.925,0
				c-22.499,0-44.998,0-67.497,0c-8.408,0-15,7.068-15,15.335c0,2.086,0,4.172,0,6.258c0,10.424,0,20.848,0,31.272
				c0,50.987,0,101.975,0,152.962c0,8.241,6.745,15.172,15.041,15.172c2.249,0,4.498,0,6.746,0c12.671,0,25.342,0,38.014,0
				c27.358,0,54.717,0,82.076,0c9.491,0,17.415-4.55,18.118-15C255.067,269.829,245.064,269.871,244.634,276.27z"/>
		</g>
	</g>
	<g>
		<g>
			<path style="fill:#FFFFFF;" d="M219.638,134.667c-0.393,5.836-6.272,5-10.382,5c-6.332,0-12.665,0-18.997,0
				c-15.328,0-30.655,0-45.982,0c-3.208,0-6.415,0-9.623,0c-6.989,0-5.017-11.224-5.017-15.56c0-6.422,0-12.845,0-19.268
				c0-5.626,5.493-5.172,9.362-5.172c22,0,44,0,65.999,0c5.786,0,14.64-1.802,14.64,6.458
				C219.638,115.639,219.638,125.153,219.638,134.667c0,6.449,10,6.449,10,0c0-5.83,0-11.66,0-17.49
				c0-5.732,1.203-13.603-1.469-18.926c-5.74-11.44-21.076-8.584-31.658-8.584c-15.683,0-31.367,0-47.051,0
				c-11.009,0-28.667-2.166-29.731,13.643c-0.398,5.916-0.091,11.929-0.091,17.854c0,5.893-1.008,13.044,0.964,18.724
				c4.395,12.653,20.901,9.778,31.315,9.778c15.698,0,31.395,0,47.093,0c11.257,0,27.335,2.477,30.357-12.314
				c0.149-0.889,0.239-1.785,0.27-2.686C230.071,128.227,220.068,128.269,219.638,134.667z"/>
		</g>
	</g>
	<g>
		<g>
			<path style="fill:#FFFFFF;" d="M199.43,268.08c1.967-3.412,6.178-5.177,9.874-3.371c3.098,1.515,4.478,5.22,7.849,6.758
				c6.649,3.032,14.725-0.466,18.217-6.519c2.26-3.917-3.79-7.44-6.045-3.533c-2.148,3.725-7.388,5.673-10.988,2.617
				c-2.614-2.219-3.925-5.182-7.489-6.284c-6.723-2.078-13.936,0.683-17.462,6.799C191.127,268.465,197.176,271.988,199.43,268.08
				L199.43,268.08z"/>
		</g>
	</g>
	<g>
		<g>
			<path style="fill:#FFFFFF;" d="M175.758,270.693c20.035-20.034,40.069-40.068,60.103-60.104c3.195-3.194-1.755-8.145-4.949-4.949
				c-20.035,20.034-40.069,40.068-60.104,60.104C167.614,268.938,172.563,273.889,175.758,270.693L175.758,270.693z"/>
		</g>
	</g>
	<g>
		<g>
			<g>
				<g>
					<path style="fill:#FFFFFF;" d="M172.752,210.667c10.861,0,21.722,0,32.583,0c4.514,0,4.514-7,0-7c-10.861,0-21.723,0-32.583,0
						C168.238,203.667,168.238,210.667,172.752,210.667L172.752,210.667z"/>
				</g>
			</g>
			<g>
				<g>
					<path style="fill:#FFFFFF;" d="M172.753,219.667c3.694,0,7.389,0,11.083,0c4.514,0,4.514-7,0-7c-3.694,0-7.389,0-11.083,0
						C168.239,212.667,168.239,219.667,172.753,219.667L172.753,219.667z"/>
				</g>
			</g>
		</g>
		<g>
			<g>
				<path style="fill:#FFFFFF;" d="M194.251,219.667c3.694,0,7.39,0,11.084,0c4.514,0,4.514-7,0-7c-3.694,0-7.39,0-11.084,0
					C189.737,212.667,189.737,219.667,194.251,219.667L194.251,219.667z"/>
			</g>
		</g>
	</g>
	<g>
		<g>
			<path style="fill:#FFFFFF;" d="M250.585,232.667c4.333,0,8.667,0,13,0c6.448,0,6.448-10,0-10c-4.333,0-8.667,0-13,0
				C244.137,222.667,244.137,232.667,250.585,232.667L250.585,232.667z"/>
		</g>
	</g>
	<g>
		<g>
			<path style="fill:#FFFFFF;" d="M250.585,246.167c4.333,0,8.667,0,13,0c6.448,0,6.448-10,0-10c-4.333,0-8.667,0-13,0
				C244.137,236.167,244.137,246.167,250.585,246.167L250.585,246.167z"/>
		</g>
	</g>
	<g>
		<g>
			<path style="fill:#FFFFFF;" d="M250.585,264.667c4.333,0,8.667,0,13,0c6.448,0,6.448-10,0-10c-4.333,0-8.667,0-13,0
				C244.137,254.667,244.137,264.667,250.585,264.667L250.585,264.667z"/>
		</g>
	</g>
	<g>
		<g>
			<path style="fill:#FFFFFF;" d="M250.585,278.167c4.333,0,8.667,0,13,0c6.448,0,6.448-10,0-10c-4.333,0-8.667,0-13,0
				C244.137,268.167,244.137,278.167,250.585,278.167L250.585,278.167z"/>
		</g>
	</g>
</g>
<g id="Ebene_1">
</g>
</svg>
