<?xml version="1.0" encoding="iso-8859-1"?>
<!-- Generator: Adobe Illustrator 16.0.0, SVG Export Plug-In . SVG Version: 6.00 Build 0)  -->
<!DOCTYPE svg PUBLIC "-//W3C//DTD SVG 1.1//EN" "http://www.w3.org/Graphics/SVG/1.1/DTD/svg11.dtd">
<svg version="1.1" xmlns="http://www.w3.org/2000/svg" xmlns:xlink="http://www.w3.org/1999/xlink" x="0px" y="0px" width="361px"
	 height="361px" viewBox="0 0 361 361" style="enable-background:new 0 0 361 361;" xml:space="preserve">
<g id="scene_x5F_drink">
	<g>
		<g>
			<g>
				<path style="fill:#FFFFFF;" d="M218.315,76.793c-15.711,46.928-31.423,93.856-47.135,140.785
					c-1.475,4.405-2.95,8.812-4.425,13.217c-3.081,9.202,11.415,13.087,14.47,3.961c15.712-46.928,31.424-93.856,47.135-140.784
					c1.476-4.406,2.95-8.812,4.426-13.217C235.867,71.552,221.371,67.668,218.315,76.793L218.315,76.793z"/>
			</g>
		</g>
		<g>
			<g>
				<path style="fill:#FFFFFF;" d="M222.492,84.017c16.026,10.233,32.052,20.466,48.078,30.699c8.169,5.216,15.634-7.797,7.5-12.99
					c-16.026-10.233-32.052-20.466-48.078-30.699C221.823,65.81,214.358,78.823,222.492,84.017L222.492,84.017z"/>
			</g>
		</g>
	</g>
	<g>
		<g>
			<path style="fill:#FFFFFF;" d="M118,260.668c0.453,7.968,5.067,14.191,12.78,16.505c2.473,0.741,5.394,0.495,7.961,0.495
				c9.903,0,19.807,0,29.71,0c10.065,0,20.13,0,30.196,0c2.357,0,4.806,0.154,7.138-0.26c8.403-1.49,13.641-8.457,14.111-16.74
				c0.366-6.445-9.636-6.41-10,0c-0.46,8.104-8.466,7-14.175,7c-8.759,0-17.518,0-26.276,0c-8.871,0-17.742,0-26.614,0
				c-5.815,0-14.359,1.307-14.832-7C127.636,254.258,117.634,254.223,118,260.668L118,260.668z"/>
		</g>
	</g>
	<g>
		<g>
			<path style="fill:#FFFFFF;" d="M211.439,234.49c0.177,4-6.111,3.999-8.518,4.496c-3.954,0.815-7.908,1.632-11.862,2.447
				c-5.962,1.23-6.354-12.63-7.16-16.535c-0.887-4.292,17.835-6.095,20.416-6.627c5.971-1.232,6.369,12.698,7.178,16.617
				c0.391,1.895,3.282,1.091,2.893-0.797c-0.902-4.375-1.805-8.749-2.707-13.123c-0.793-3.843-2.92-6.672-7.299-5.769
				c-5.101,1.053-10.2,2.104-15.3,3.157c-4.117,0.849-8.379,1.551-8.145,6.857c0.196,4.435,1.865,9.178,2.762,13.521
				c0.793,3.843,2.919,6.672,7.298,5.769c5.101-1.053,10.2-2.105,15.3-3.157c4.117-0.85,8.379-1.551,8.145-6.857
				C214.354,232.563,211.354,232.556,211.439,234.49z"/>
		</g>
	</g>
	<g>
		<g>
			<path style="fill:#FFFFFF;" d="M131.111,262.038c-3.74-1.246-1.306-7.761-0.907-10.196c0.628-3.834,1.257-7.667,1.885-11.5
				c0.925-5.642,14.1-1.183,17.8-0.576c4.574,0.75-0.497,18.762-0.978,21.695C147.986,267.103,134.812,262.645,131.111,262.038
				c-1.892-0.31-2.703,2.581-0.798,2.893c4.614,0.756,9.227,1.512,13.84,2.268c3.914,0.641,6.968-0.774,7.65-4.939
				c0.863-5.267,1.727-10.533,2.589-15.799c0.677-4.127,1.121-7.98-3.707-9.587c-4.262-1.419-9.404-1.541-13.84-2.269
				c-3.914-0.641-6.968,0.774-7.65,4.939c-0.863,5.267-1.727,10.533-2.589,15.799c-0.677,4.128-1.121,7.979,3.707,9.588
				C132.154,265.544,132.937,262.646,131.111,262.038z"/>
		</g>
	</g>
	<g>
		<g>
			<path style="fill:#FFFFFF;" d="M202.27,259.081c0.399,3.903-5.948,4.325-8.331,4.969c-3.673,0.992-7.347,1.984-11.021,2.977
				c-5.844,1.578-6.939-11.347-8.005-15.294c-1.097-4.064,17.268-7.053,19.874-7.757c5.173-1.396,6.621,12.114,7.537,15.504
				c0.504,1.866,3.397,1.073,2.893-0.797c-1.441-5.338-2.373-19.99-10.832-17.706c-4.839,1.307-9.678,2.613-14.517,3.92
				c-3.949,1.066-8.457,1.936-7.922,7.156c0.414,4.043,2.18,8.271,3.238,12.188c0.978,3.622,2.81,7.223,7.355,5.995
				c4.937-1.333,9.873-2.666,14.81-3.999c3.949-1.066,8.455-1.937,7.922-7.156C205.075,257.176,202.073,257.157,202.27,259.081z"/>
		</g>
	</g>
	<g>
		<g>
			<path style="fill:#FFFFFF;" d="M153.991,262.825c-3.656-1.317-1.059-7.87-0.611-10.239c0.722-3.817,1.444-7.634,2.167-11.451
				c1.051-5.557,14.193-0.782,17.834-0.094c4.483,0.849-1.011,18.816-1.555,21.691C170.774,268.288,157.631,263.514,153.991,262.825
				c-1.891-0.357-2.697,2.533-0.798,2.893c4.594,0.869,9.187,1.738,13.78,2.607c3.903,0.739,6.967-0.687,7.745-4.796
				c0.992-5.243,1.984-10.487,2.976-15.73c0.78-4.122,1.272-7.926-3.516-9.65c-4.226-1.522-9.363-1.771-13.78-2.607
				c-3.904-0.739-6.967,0.688-7.745,4.797c-0.992,5.243-1.984,10.487-2.976,15.73c-0.78,4.122-1.272,7.925,3.516,9.649
				C155.018,266.375,155.797,263.476,153.991,262.825z"/>
		</g>
	</g>
	<g>
		<g>
			<path style="fill:#FFFFFF;" d="M156.078,221.168c-0.473-3.297,5.715-4.213,7.738-4.93c3.129-1.108,6.258-2.217,9.387-3.325
				c4.784-1.694,6.879,10.31,8.018,13.525c1.269,3.582-14.777,7.423-17.125,8.255C159.311,236.388,157.217,224.385,156.078,221.168
				c-0.641-1.811-3.54-1.031-2.893,0.797c1.691,4.775,3.67,18.468,11.309,15.763c4.371-1.549,8.742-3.097,13.113-4.646
				c3.868-1.37,7.21-2.53,6.506-7.44c-0.546-3.812-2.815-7.948-4.102-11.582c-1.156-3.266-3.546-5.478-7.207-4.181
				c-4.371,1.549-8.742,3.097-13.113,4.646c-3.868,1.37-7.21,2.53-6.506,7.44C153.458,223.874,156.349,223.059,156.078,221.168z"/>
		</g>
	</g>
	<g>
		<g>
			<path style="fill:#FFFFFF;" d="M127.773,225.842c-3.156-2.688,1.583-7.862,2.93-10.08c1.934-3.181,3.867-6.361,5.8-9.542
				c3.156-5.192,13.478,3.815,16.954,5.929c3.769,2.29-7.542,17.094-8.962,19.43c-3.161,5.199-13.537-3.851-17.025-5.971
				c-1.658-1.008-3.164,1.587-1.514,2.59c3.816,2.32,7.633,4.641,11.45,6.96c3.315,2.016,6.904,2.502,9.223-1.313
				c2.705-4.45,5.41-8.899,8.114-13.35c2.163-3.558,4.632-7.231,0.604-10.659c-3.381-2.877-7.962-4.891-11.753-7.194
				c-3.315-2.016-6.904-2.503-9.223,1.312c-2.705,4.45-5.409,8.899-8.114,13.35c-2.163,3.558-4.631,7.231-0.604,10.66
				C127.116,229.21,129.249,227.098,127.773,225.842z"/>
		</g>
	</g>
	<g>
		<g>
			<path style="fill:#FFFFFF;" d="M209.896,281.689c-0.081,0.6-27.405,0-29.18,0c-15.032,0-30.063,0-45.096,0
				c-2.874,0-5.748,0-8.621,0c0,0,0-4.847,0-5.102c0-11.166,0-22.332,0-33.498c0-30.65,0-61.3,0-91.95c0-6.488,0-12.975,0-19.462
				c0-0.018,26.574-0.009,28.228-0.009c15.134,0,30.267,0,45.401,0c3.084,0,6.168,0,9.252,0c0.033,0,0.016,4.462,0.016,4.716
				c0,27.071,0,54.142,0,81.213C209.896,238.961,209.896,260.325,209.896,281.689c0,6.448,10,6.448,10,0
				c0-48.174,0-96.348,0-144.521c0-1.831,0-3.661,0-5.491c0-6.993-6.095-10.009-12.146-10.009c-12.935,0-25.87,0-38.805,0
				c-13.147,0-26.295,0-39.442,0c-6.138,0-12.503,2.754-12.503,10c0,1.7,0,3.401,0,5.101c0,48.304,0,96.607,0,144.911
				c0,10.558,10.648,10.009,17.994,10.009c10.986,0,21.971,0,32.957,0c10.893,0,21.786,0,32.678,0c8.367,0,17.788,1.01,19.268-10
				C220.753,275.313,210.742,275.396,209.896,281.689z"/>
		</g>
	</g>
	<g>
		<g>
			<path style="fill:#FFFFFF;" d="M127.459,175.667c28.521,0,57.041,0,85.562,0c1.935,0,1.935-3,0-3c-28.521,0-57.041,0-85.562,0
				C125.524,172.667,125.524,175.667,127.459,175.667L127.459,175.667z"/>
		</g>
	</g>
</g>
<g id="Ebene_1">
</g>
</svg>
