<?xml version="1.0" encoding="iso-8859-1"?>
<!-- Generator: Adobe Illustrator 16.0.0, SVG Export Plug-In . SVG Version: 6.00 Build 0)  -->
<!DOCTYPE svg PUBLIC "-//W3C//DTD SVG 1.1//EN" "http://www.w3.org/Graphics/SVG/1.1/DTD/svg11.dtd">
<svg version="1.1" xmlns="http://www.w3.org/2000/svg" xmlns:xlink="http://www.w3.org/1999/xlink" x="0px" y="0px" width="361px"
	 height="361px" viewBox="0 0 361 361" style="enable-background:new 0 0 361 361;" xml:space="preserve">
<g id="scene_x5F_fountain">
	<g>
		<g>
			<path style="fill:#FFFFFF;" d="M178.789,210.172c0,8.928,0,17.856,0,26.784c0,1.935,3,1.935,3,0c0-8.928,0-17.856,0-26.784
				C181.789,208.237,178.789,208.237,178.789,210.172L178.789,210.172z"/>
		</g>
	</g>
	<g>
		<g>
			<g>
				<path style="fill:#FFFFFF;" d="M200.788,210.117c0.956-3.101,1.913-6.201,2.869-9.303c0.572-1.854-2.324-2.64-2.893-0.797
					c-0.956,3.101-1.913,6.201-2.869,9.303C197.323,211.174,200.22,211.96,200.788,210.117L200.788,210.117z"/>
			</g>
		</g>
		<g>
			<g>
				<path style="fill:#FFFFFF;" d="M194.3,237.05c0.972-5.563,1.944-11.128,2.916-16.692c0.331-1.892-2.561-2.7-2.893-0.797
					c-0.972,5.563-1.944,11.128-2.916,16.692C191.076,238.145,193.968,238.953,194.3,237.05L194.3,237.05z"/>
			</g>
		</g>
		<g>
			<g>
				<path style="fill:#FFFFFF;" d="M215.235,192.905c0.603,0.184,1.205,0.367,1.808,0.551c0.781,0.238,1.633-0.275,1.845-1.048
					c0.222-0.804-0.266-1.606-1.048-1.845c-0.603-0.184-1.205-0.367-1.808-0.551c-0.781-0.238-1.633,0.275-1.845,1.048
					C213.966,191.864,214.453,192.667,215.235,192.905L215.235,192.905z"/>
			</g>
		</g>
		<g>
			<g>
				<path style="fill:#FFFFFF;" d="M221.428,199.222c0.303,0.471,0.606,0.94,0.91,1.41c0.442,0.686,1.323,0.966,2.052,0.538
					c0.682-0.399,0.982-1.364,0.538-2.052c-0.303-0.471-0.606-0.94-0.91-1.41c-0.442-0.686-1.323-0.966-2.052-0.538
					C221.284,197.569,220.983,198.534,221.428,199.222L221.428,199.222z"/>
			</g>
		</g>
		<g>
			<g>
				<path style="fill:#FFFFFF;" d="M208.053,194.36c0.546-0.43,1.091-0.86,1.637-1.29c0.644-0.507,0.527-1.595,0-2.121
					c-0.629-0.629-1.479-0.506-2.121,0c-0.546,0.43-1.091,0.86-1.637,1.29c-0.644,0.507-0.527,1.595,0,2.121
					C206.561,194.989,207.411,194.866,208.053,194.36L208.053,194.36z"/>
			</g>
		</g>
	</g>
	<g>
		<g>
			<g>
				<path style="fill:#FFFFFF;" d="M163.104,209.32c-0.956-3.102-1.912-6.202-2.869-9.303c-0.568-1.843-3.464-1.057-2.893,0.797
					c0.956,3.102,1.912,6.202,2.869,9.303C160.779,211.96,163.675,211.174,163.104,209.32L163.104,209.32z"/>
			</g>
		</g>
		<g>
			<g>
				<path style="fill:#FFFFFF;" d="M169.592,236.253c-0.972-5.564-1.943-11.129-2.915-16.692c-0.332-1.903-3.223-1.095-2.893,0.797
					c0.972,5.564,1.943,11.129,2.915,16.692C167.032,238.953,169.923,238.145,169.592,236.253L169.592,236.253z"/>
			</g>
		</g>
		<g>
			<g>
				<path style="fill:#FFFFFF;" d="M144.967,190.013c-0.603,0.184-1.205,0.367-1.808,0.551c-0.781,0.238-1.269,1.041-1.047,1.845
					c0.212,0.772,1.063,1.286,1.845,1.048c0.603-0.184,1.205-0.367,1.808-0.551c0.781-0.238,1.269-1.041,1.047-1.845
					C146.6,190.288,145.75,189.774,144.967,190.013L144.967,190.013z"/>
			</g>
		</g>
		<g>
			<g>
				<path style="fill:#FFFFFF;" d="M136.981,197.708c-0.303,0.47-0.606,0.939-0.91,1.41c-0.443,0.688-0.144,1.652,0.539,2.052
					c0.729,0.427,1.61,0.147,2.052-0.538c0.303-0.47,0.606-0.939,0.91-1.41c0.443-0.688,0.144-1.652-0.538-2.052
					C138.305,196.743,137.424,197.022,136.981,197.708L136.981,197.708z"/>
			</g>
		</g>
		<g>
			<g>
				<path style="fill:#FFFFFF;" d="M155.068,192.239c-0.545-0.43-1.091-0.86-1.637-1.29c-0.642-0.506-1.493-0.629-2.121,0
					c-0.527,0.526-0.644,1.614,0,2.121c0.545,0.43,1.091,0.86,1.637,1.29c0.642,0.506,1.493,0.629,2.121,0
					C155.595,193.834,155.711,192.746,155.068,192.239L155.068,192.239z"/>
			</g>
		</g>
	</g>
	<g>
		<g>
			<g>
				<path style="fill:#FFFFFF;" d="M192.184,172.827c0.401-3.199,0.802-6.398,1.203-9.598c0.24-1.916-2.763-1.893-3,0
					c-0.401,3.199-0.802,6.398-1.203,9.598C188.943,174.743,191.946,174.72,192.184,172.827L192.184,172.827z"/>
			</g>
		</g>
		<g>
			<g>
				<path style="fill:#FFFFFF;" d="M189.462,200.609c0.407-5.74,0.815-11.479,1.223-17.22c0.137-1.932-2.864-1.918-3,0
					c-0.407,5.74-0.815,11.479-1.223,17.22C186.325,202.541,189.326,202.527,189.462,200.609L189.462,200.609z"/>
			</g>
		</g>
		<g>
			<g>
				<path style="fill:#FFFFFF;" d="M196.759,155.285c0.252,0.189,0.505,0.379,0.758,0.568c0.655,0.492,1.675,0.106,2.052-0.538
					c0.449-0.767,0.115-1.563-0.538-2.053c-0.252-0.189-0.505-0.379-0.758-0.568c-0.655-0.492-1.675-0.106-2.052,0.538
					C195.771,153.999,196.105,154.795,196.759,155.285L196.759,155.285z"/>
			</g>
		</g>
		<g>
			<g>
				<path style="fill:#FFFFFF;" d="M199.042,161.616c0.128,0.485,0.255,0.97,0.383,1.456c0.208,0.79,1.063,1.262,1.845,1.047
					c0.795-0.218,1.256-1.055,1.048-1.845c-0.128-0.485-0.255-0.97-0.383-1.456c-0.208-0.79-1.063-1.262-1.845-1.047
					C199.295,159.989,198.834,160.826,199.042,161.616L199.042,161.616z"/>
			</g>
		</g>
		<g>
			<g>
				<path style="fill:#FFFFFF;" d="M195.187,156.646c0.229-0.443,0.458-0.887,0.687-1.33c0.375-0.727,0.194-1.624-0.538-2.053
					c-0.677-0.396-1.678-0.188-2.052,0.538c-0.229,0.443-0.458,0.887-0.687,1.33c-0.375,0.727-0.194,1.624,0.538,2.053
					C193.812,157.58,194.813,157.371,195.187,156.646L195.187,156.646z"/>
			</g>
		</g>
	</g>
	<g>
		<g>
			<g>
				<path style="fill:#FFFFFF;" d="M171.396,172.827c-0.401-3.199-0.802-6.398-1.204-9.598c-0.237-1.893-3.24-1.916-3,0
					c0.401,3.199,0.802,6.398,1.204,9.598C168.633,174.72,171.636,174.743,171.396,172.827L171.396,172.827z"/>
			</g>
		</g>
		<g>
			<g>
				<path style="fill:#FFFFFF;" d="M174.116,200.609c-0.407-5.74-0.815-11.479-1.222-17.22c-0.136-1.918-3.137-1.932-3,0
					c0.407,5.74,0.815,11.479,1.222,17.22C171.252,202.527,174.253,202.541,174.116,200.609L174.116,200.609z"/>
			</g>
		</g>
		<g>
			<g>
				<path style="fill:#FFFFFF;" d="M162.306,152.694c-0.253,0.189-0.505,0.379-0.758,0.568c-0.652,0.49-0.987,1.286-0.538,2.053
					c0.378,0.645,1.397,1.03,2.053,0.538c0.252-0.189,0.505-0.379,0.757-0.568c0.653-0.49,0.987-1.286,0.539-2.053
					C163.98,152.588,162.961,152.203,162.306,152.694L162.306,152.694z"/>
			</g>
		</g>
		<g>
			<g>
				<path style="fill:#FFFFFF;" d="M158.644,160.818c-0.127,0.485-0.255,0.971-0.382,1.456c-0.208,0.791,0.253,1.627,1.047,1.845
					c0.781,0.215,1.638-0.257,1.845-1.047c0.127-0.485,0.255-0.971,0.382-1.456c0.208-0.791-0.253-1.627-1.047-1.845
					C159.708,159.556,158.851,160.028,158.644,160.818L158.644,160.818z"/>
			</g>
		</g>
		<g>
			<g>
				<path style="fill:#FFFFFF;" d="M167.982,155.131c-0.229-0.443-0.458-0.887-0.686-1.33c-0.375-0.726-1.375-0.935-2.053-0.538
					c-0.732,0.429-0.913,1.326-0.538,2.053c0.229,0.443,0.458,0.887,0.686,1.33c0.375,0.726,1.375,0.935,2.052,0.538
					C168.176,156.754,168.356,155.858,167.982,155.131L167.982,155.131z"/>
			</g>
		</g>
	</g>
	<g>
		<g>
			<path style="fill:#FFFFFF;" d="M229.046,265.534c0-9.653-6.253-14.177-15.311-14.177c-7.208,0-14.417,0-21.625,0
				c1.167,1.167,2.333,2.333,3.5,3.5c-1.591-16.558-28.549-16.558-30.14,0c1.167-1.167,2.333-2.333,3.5-3.5
				c-6.687,0-13.373,0-20.06,0c-8.934,0-14.833,4.883-14.833,14.177c0,4.514,7,4.514,7,0c0-8.223,6.745-7.177,12.724-7.177
				c5.056,0,10.112,0,15.168,0c2.046,0,3.317-1.602,3.5-3.5c0.701-7.293,15.438-7.293,16.14,0c0.183,1.898,1.454,3.5,3.5,3.5
				c5.244,0,10.488,0,15.733,0c6.239,0,14.202-1.55,14.202,7.177C222.046,270.048,229.046,270.048,229.046,265.534L229.046,265.534z
				"/>
		</g>
	</g>
	<g>
		<g>
			<path style="fill:#FFFFFF;" d="M283.455,282.063c1.531,0,3.063,0,4.594,0c1.908,0,3.5-1.592,3.5-3.5s-1.592-3.5-3.5-3.5
				c-1.531,0-3.063,0-4.594,0c-1.908,0-3.5,1.592-3.5,3.5S281.547,282.063,283.455,282.063L283.455,282.063z"/>
		</g>
	</g>
	<g>
		<g>
			<path style="fill:#FFFFFF;" d="M256.729,292.063c5.333,0,10.667,0,16,0c4.514,0,4.514-7,0-7c-5.333,0-10.667,0-16,0
				C252.216,285.063,252.216,292.063,256.729,292.063L256.729,292.063z"/>
		</g>
	</g>
	<g>
		<g>
			<path style="fill:#FFFFFF;" d="M268.314,286.063c2,0,4,0,6,0c1.908,0,3.5-1.592,3.5-3.5s-1.592-3.5-3.5-3.5c-2,0-4,0-6,0
				c-1.908,0-3.5,1.592-3.5,3.5S266.406,286.063,268.314,286.063L268.314,286.063z"/>
		</g>
	</g>
	<g>
		<g>
			<path style="fill:#FFFFFF;" d="M286.647,292.063c0.667,0,1.333,0,2,0c1.908,0,3.5-1.592,3.5-3.5s-1.592-3.5-3.5-3.5
				c-0.667,0-1.333,0-2,0c-1.908,0-3.5,1.592-3.5,3.5S284.739,292.063,286.647,292.063L286.647,292.063z"/>
		</g>
	</g>
	<g>
		<g>
			<path style="fill:#FFFFFF;" d="M267.729,271.751c-2,0-4,0-6,0c-1.908,0-3.5,1.592-3.5,3.5s1.592,3.5,3.5,3.5c2,0,4,0,6,0
				c1.908,0,3.5-1.592,3.5-3.5S269.638,271.751,267.729,271.751L267.729,271.751z"/>
		</g>
	</g>
	<g>
		<g>
			<path style="fill:#FFFFFF;" d="M288.896,258.23c-3.875,0-7.749,0-11.624,0c-4.514,0-4.514,7,0,7c3.875,0,7.749,0,11.624,0
				C293.41,265.23,293.41,258.23,288.896,258.23L288.896,258.23z"/>
		</g>
	</g>
	<g>
		<g>
			<path style="fill:#FFFFFF;" d="M284.897,266.23c-2.208,0-4.417,0-6.625,0c-4.514,0-4.514,7,0,7c2.208,0,4.417,0,6.625,0
				C289.411,273.23,289.411,266.23,284.897,266.23L284.897,266.23z"/>
		</g>
	</g>
	<g>
		<g>
			<path style="fill:#FFFFFF;" d="M288.23,252.23c-2,0-4,0-6,0c-1.908,0-3.5,1.592-3.5,3.5s1.592,3.5,3.5,3.5c2,0,4,0,6,0
				c1.908,0,3.5-1.592,3.5-3.5S290.139,252.23,288.23,252.23L288.23,252.23z"/>
		</g>
	</g>
	<g>
		<g>
			<path style="fill:#FFFFFF;" d="M284.272,249.917c-2,0-4,0-6,0c-1.908,0-3.5,1.592-3.5,3.5s1.592,3.5,3.5,3.5c2,0,4,0,6,0
				c1.908,0,3.5-1.592,3.5-3.5S286.181,249.917,284.272,249.917L284.272,249.917z"/>
		</g>
	</g>
	<g>
		<g>
			<path style="fill:#FFFFFF;" d="M287.896,270.23c-0.222,0-0.444,0-0.666,0c-1.908,0-3.5,1.592-3.5,3.5s1.592,3.5,3.5,3.5
				c0.222,0,0.444,0,0.666,0c1.908,0,3.5-1.592,3.5-3.5S289.805,270.23,287.896,270.23L287.896,270.23z"/>
		</g>
	</g>
	<g>
		<g>
			<path style="fill:#FFFFFF;" d="M73.813,283.167c2.337,0,4.673,0,7.01,0c4.514,0,4.514-7,0-7c-2.337,0-4.673,0-7.01,0
				C69.299,276.167,69.299,283.167,73.813,283.167L73.813,283.167z"/>
		</g>
	</g>
	<g>
		<g>
			<path style="fill:#FFFFFF;" d="M100.334,280.167c2.581,0,5.161,0,7.741,0c4.514,0,4.514-7,0-7c-2.581,0-5.161,0-7.741,0
				C95.82,273.167,95.82,280.167,100.334,280.167L100.334,280.167z"/>
		</g>
	</g>
	<g>
		<g>
			<path style="fill:#FFFFFF;" d="M122.132,292.063c2,0,4,0,6,0c1.908,0,3.5-1.592,3.5-3.5s-1.592-3.5-3.5-3.5c-2,0-4,0-6,0
				c-1.908,0-3.5,1.592-3.5,3.5S120.225,292.063,122.132,292.063L122.132,292.063z"/>
		</g>
	</g>
	<g>
		<g>
			<path style="fill:#FFFFFF;" d="M246.301,284.555c-3,0-6,0-9,0c-4.514,0-4.514,7,0,7c3,0,6,0,9,0
				C250.814,291.555,250.814,284.555,246.301,284.555L246.301,284.555z"/>
		</g>
	</g>
	<g>
		<g>
			<path style="fill:#FFFFFF;" d="M259.301,275.555c-5.333,0-10.667,0-16,0c-4.514,0-4.514,7,0,7c5.333,0,10.667,0,16,0
				C263.814,282.555,263.814,275.555,259.301,275.555L259.301,275.555z"/>
		</g>
	</g>
	<g>
		<g>
			<path style="fill:#FFFFFF;" d="M79.938,249.855c-2,0-4,0-6,0c-1.908,0-3.5,1.592-3.5,3.5s1.592,3.5,3.5,3.5c2,0,4,0,6,0
				c1.908,0,3.5-1.592,3.5-3.5S81.845,249.855,79.938,249.855L79.938,249.855z"/>
		</g>
	</g>
	<g>
		<g>
			<path style="fill:#FFFFFF;" d="M76.646,273.23c0.667,0,1.333,0,2,0c1.908,0,3.5-1.592,3.5-3.5s-1.592-3.5-3.5-3.5
				c-0.667,0-1.333,0-2,0c-1.908,0-3.5,1.592-3.5,3.5S74.738,273.23,76.646,273.23L76.646,273.23z"/>
		</g>
	</g>
	<g>
		<g>
			<path style="fill:#FFFFFF;" d="M93.648,276.555c-0.667,0-1.333,0-2,0c-1.908,0-3.5,1.592-3.5,3.5s1.592,3.5,3.5,3.5
				c0.667,0,1.333,0,2,0c1.908,0,3.5-1.592,3.5-3.5S95.556,276.555,93.648,276.555L93.648,276.555z"/>
		</g>
	</g>
	<g>
		<g>
			<path style="fill:#FFFFFF;" d="M196.229,285.063c-2,0-4,0-6,0c-1.908,0-3.5,1.592-3.5,3.5s1.592,3.5,3.5,3.5c2,0,4,0,6,0
				c1.908,0,3.5-1.592,3.5-3.5S198.137,285.063,196.229,285.063L196.229,285.063z"/>
		</g>
	</g>
	<g>
		<g>
			<path style="fill:#FFFFFF;" d="M87.896,264.167c-1.833,0-3.667,0-5.5,0c-1.908,0-3.5,1.592-3.5,3.5s1.592,3.5,3.5,3.5
				c1.833,0,3.667,0,5.5,0c1.908,0,3.5-1.592,3.5-3.5S89.804,264.167,87.896,264.167L87.896,264.167z"/>
		</g>
	</g>
	<g>
		<g>
			<path style="fill:#FFFFFF;" d="M205.98,292.098c5.333,0,10.667,0,16,0c4.514,0,4.514-7,0-7c-5.333,0-10.667,0-16,0
				C201.467,285.098,201.467,292.098,205.98,292.098L205.98,292.098z"/>
		</g>
	</g>
	<g>
		<g>
			<path style="fill:#FFFFFF;" d="M221.439,278.007c2,0,4,0,6,0c1.908,0,3.5-1.592,3.5-3.5s-1.592-3.5-3.5-3.5c-2,0-4,0-6,0
				c-1.908,0-3.5,1.592-3.5,3.5S219.531,278.007,221.439,278.007L221.439,278.007z"/>
		</g>
	</g>
	<g>
		<g>
			<path style="fill:#FFFFFF;" d="M215.272,288.313c0.667,0,1.333,0,2,0c1.908,0,3.5-1.592,3.5-3.5s-1.592-3.5-3.5-3.5
				c-0.667,0-1.333,0-2,0c-1.908,0-3.5,1.592-3.5,3.5S213.364,288.313,215.272,288.313L215.272,288.313z"/>
		</g>
	</g>
	<g>
		<g>
			<path style="fill:#FFFFFF;" d="M233.896,278.861c-2,0-4,0-6,0c-1.908,0-3.5,1.592-3.5,3.5s1.592,3.5,3.5,3.5c2,0,4,0,6,0
				c1.908,0,3.5-1.592,3.5-3.5S235.805,278.861,233.896,278.861L233.896,278.861z"/>
		</g>
	</g>
	<g>
		<g>
			<path style="fill:#FFFFFF;" d="M135.945,272.194c-3,0-6,0-9,0c-4.514,0-4.514,7,0,7c3,0,6,0,9,0
				C140.459,279.194,140.459,272.194,135.945,272.194L135.945,272.194z"/>
		</g>
	</g>
	<g>
		<g>
			<path style="fill:#FFFFFF;" d="M152.466,272.063c-2,0-4,0-6,0c-1.908,0-3.5,1.592-3.5,3.5s1.592,3.5,3.5,3.5c2,0,4,0,6,0
				c1.908,0,3.5-1.592,3.5-3.5S154.374,272.063,152.466,272.063L152.466,272.063z"/>
		</g>
	</g>
	<g>
		<g>
			<path style="fill:#FFFFFF;" d="M144.966,292.063c2,0,4,0,6,0c1.908,0,3.5-1.592,3.5-3.5s-1.592-3.5-3.5-3.5c-2,0-4,0-6,0
				c-1.908,0-3.5,1.592-3.5,3.5S143.058,292.063,144.966,292.063L144.966,292.063z"/>
		</g>
	</g>
	<g>
		<g>
			<path style="fill:#FFFFFF;" d="M85.882,291.896c5.083,0,10.167,0,15.25,0c4.514,0,4.514-7,0-7c-5.083,0-10.167,0-15.25,0
				C81.368,284.896,81.368,291.896,85.882,291.896L85.882,291.896z"/>
		</g>
	</g>
	<g>
		<g>
			<path style="fill:#FFFFFF;" d="M178.314,276.861c3,0,6,0,9,0c4.514,0,4.514-7,0-7c-3,0-6,0-9,0
				C173.8,269.861,173.8,276.861,178.314,276.861L178.314,276.861z"/>
		</g>
	</g>
	<g>
		<g>
			<path style="fill:#FFFFFF;" d="M159.647,292.098c5.333,0,10.667,0,16,0c4.514,0,4.514-7,0-7c-5.333,0-10.667,0-16,0
				C155.133,285.098,155.133,292.098,159.647,292.098L159.647,292.098z"/>
		</g>
	</g>
	<g>
		<g>
			<path style="fill:#FFFFFF;" d="M154.966,284.063c2,0,4,0,6,0c1.908,0,3.5-1.592,3.5-3.5s-1.592-3.5-3.5-3.5c-2,0-4,0-6,0
				c-1.908,0-3.5,1.592-3.5,3.5S153.058,284.063,154.966,284.063L154.966,284.063z"/>
		</g>
	</g>
	<g>
		<g>
			<path style="fill:#FFFFFF;" d="M173.315,287.861c0.667,0,1.333,0,2,0c1.908,0,3.5-1.592,3.5-3.5s-1.592-3.5-3.5-3.5
				c-0.667,0-1.333,0-2,0c-1.908,0-3.5,1.592-3.5,3.5S171.407,287.861,173.315,287.861L173.315,287.861z"/>
		</g>
	</g>
	<g>
		<g>
			<path style="fill:#FFFFFF;" d="M210.729,268.063c-3.902,0-7.805,0-11.707,0c-4.514,0-4.514,7,0,7c3.902,0,7.805,0,11.707,0
				C215.242,275.063,215.242,268.063,210.729,268.063L210.729,268.063z"/>
		</g>
	</g>
	<g>
		<g>
			<path style="fill:#FFFFFF;" d="M192.064,278.861c-2,0-4,0-6,0c-1.908,0-3.5,1.592-3.5,3.5s1.592,3.5,3.5,3.5c2,0,4,0,6,0
				c1.908,0,3.5-1.592,3.5-3.5S193.973,278.861,192.064,278.861L192.064,278.861z"/>
		</g>
	</g>
	<g>
		<g>
			<path style="fill:#FFFFFF;" d="M146.966,280.063c5.333,0,10.667,0,16,0c4.514,0,4.514-7,0-7c-5.333,0-10.667,0-16,0
				C142.452,273.063,142.452,280.063,146.966,280.063L146.966,280.063z"/>
		</g>
	</g>
	<g>
		<g>
			<path style="fill:#FFFFFF;" d="M118.075,275.48c-3,0-6,0-9,0c-4.514,0-4.514,7,0,7c3,0,6,0,9,0
				C122.589,282.48,122.589,275.48,118.075,275.48L118.075,275.48z"/>
		</g>
	</g>
	<g>
		<g>
			<path style="fill:#FFFFFF;" d="M87.324,281.313c-1.833,0-3.667,0-5.5,0c-1.908,0-3.5,1.592-3.5,3.5s1.592,3.5,3.5,3.5
				c1.833,0,3.667,0,5.5,0c1.908,0,3.5-1.592,3.5-3.5S89.231,281.313,87.324,281.313L87.324,281.313z"/>
		</g>
	</g>
	<g>
		<g>
			<path style="fill:#FFFFFF;" d="M143.146,282.194c-0.667,0-1.333,0-2,0c-1.908,0-3.5,1.592-3.5,3.5s1.592,3.5,3.5,3.5
				c0.667,0,1.333,0,2,0c1.908,0,3.5-1.592,3.5-3.5S145.054,282.194,143.146,282.194L143.146,282.194z"/>
		</g>
	</g>
	<g>
		<g>
			<path style="fill:#FFFFFF;" d="M146.896,272c-0.667,0-1.333,0-2,0c-1.908,0-3.5,1.592-3.5,3.5s1.592,3.5,3.5,3.5
				c0.667,0,1.333,0,2,0c1.908,0,3.5-1.592,3.5-3.5S148.804,272,146.896,272L146.896,272z"/>
		</g>
	</g>
	<g>
		<g>
			<path style="fill:#FFFFFF;" d="M105.325,291.896c1.833,0,3.667,0,5.5,0c1.908,0,3.5-1.592,3.5-3.5s-1.592-3.5-3.5-3.5
				c-1.833,0-3.667,0-5.5,0c-1.908,0-3.5,1.592-3.5,3.5S103.417,291.896,105.325,291.896L105.325,291.896z"/>
		</g>
	</g>
	<g>
		<g>
			<path style="fill:#FFFFFF;" d="M73.396,290.944c0.667,0,1.333,0,2,0c1.908,0,3.5-1.592,3.5-3.5s-1.592-3.5-3.5-3.5
				c-0.667,0-1.333,0-2,0c-1.908,0-3.5,1.592-3.5,3.5S71.488,290.944,73.396,290.944L73.396,290.944z"/>
		</g>
	</g>
	<g>
		<g>
			<path style="fill:#FFFFFF;" d="M92.646,282.23c0.667,0,1.333,0,2,0c1.908,0,3.5-1.592,3.5-3.5s-1.592-3.5-3.5-3.5
				c-0.667,0-1.333,0-2,0c-1.908,0-3.5,1.592-3.5,3.5S90.738,282.23,92.646,282.23L92.646,282.23z"/>
		</g>
	</g>
	<g>
		<g>
			<path style="fill:#FFFFFF;" d="M103.896,273.167c-1.833,0-3.667,0-5.5,0c-1.908,0-3.5,1.592-3.5,3.5s1.592,3.5,3.5,3.5
				c1.833,0,3.667,0,5.5,0c1.908,0,3.5-1.592,3.5-3.5S105.804,273.167,103.896,273.167L103.896,273.167z"/>
		</g>
	</g>
	<g>
		<g>
			<path style="fill:#FFFFFF;" d="M250.897,283.569c0.667,0,1.333,0,2,0c1.908,0,3.5-1.592,3.5-3.5s-1.592-3.5-3.5-3.5
				c-0.667,0-1.333,0-2,0c-1.908,0-3.5,1.592-3.5,3.5S248.989,283.569,250.897,283.569L250.897,283.569z"/>
		</g>
	</g>
	<g>
		<g>
			<path style="fill:#FFFFFF;" d="M211.563,273.167c-3.722,0-7.444,0-11.166,0c-4.514,0-4.514,7,0,7c3.722,0,7.444,0,11.166,0
				C216.076,280.167,216.076,273.167,211.563,273.167L211.563,273.167z"/>
		</g>
	</g>
	<g>
		<g>
			<path style="fill:#FFFFFF;" d="M83.229,256.23c-3.278,0-6.556,0-9.833,0c-4.514,0-4.514,7,0,7c3.278,0,6.556,0,9.833,0
				C87.743,263.23,87.743,256.23,83.229,256.23L83.229,256.23z"/>
		</g>
	</g>
	<g>
		<g>
			<path style="fill:#FFFFFF;" d="M140.524,280.861c-3.722,0-7.444,0-11.166,0c-4.514,0-4.514,7,0,7c3.722,0,7.444,0,11.166,0
				C145.038,287.861,145.038,280.861,140.524,280.861L140.524,280.861z"/>
		</g>
	</g>
	<g>
		<g>
			<path style="fill:#FFFFFF;" d="M75.144,248.144c2.85,0,5.7,0,8.549,0c3.976,0,3.399,3.918,3.399,6.736
				c0,3.426-0.244,6.886,0.581,10.236c1.391,5.648,6.975,8.643,12.317,9.074c5.793,0.468,11.818,0,17.624,0
				c30.265,0,60.529,0,90.794,0c16.634,0,33.268,0,49.901,0c7.359,0,14.298-2.036,16.33-10.289
				c0.989-4.017,0.282-8.749,0.282-12.858c0-4.494,9.189-2.899,11.948-2.899c6.448,0,6.448-10,0-10
				c-7.83,0-15.643-0.896-20.384,6.746c-1.838,2.961-1.564,6.654-1.564,9.99c0,2.802,1.237,8.977-2.898,9.311
				c-5.793,0.468-11.817,0-17.623,0c-30.266,0-60.53,0-90.795,0c-16.634,0-33.267,0-49.901,0c-1.195,0-2.39,0-3.585,0
				c-4.411,0-3.028-7.41-3.028-10.154c0-6.264-1.546-12.13-7.877-14.807c-4.266-1.804-9.535-1.086-14.071-1.086
				C68.695,238.144,68.695,248.144,75.144,248.144L75.144,248.144z"/>
		</g>
	</g>
	<g>
		<g>
			<path style="fill:#FFFFFF;" d="M178.537,155.006c0,6.307,0,12.613,0,18.92c0,1.935,3,1.935,3,0c0-6.307,0-12.613,0-18.92
				C181.537,153.072,178.537,153.072,178.537,155.006L178.537,155.006z"/>
		</g>
	</g>
	<g>
		<g>
			<path style="fill:#FFFFFF;" d="M187.886,129.024c0.325-2.26,0.649-4.52,0.975-6.78c0.272-1.892-2.618-2.707-2.893-0.798
				c-0.325,2.26-0.649,4.52-0.975,6.78C184.721,130.118,187.611,130.933,187.886,129.024L187.886,129.024z"/>
		</g>
	</g>
	<g>
		<g>
			<path style="fill:#FFFFFF;" d="M185.735,148.251c0.33-4.055,0.661-8.11,0.991-12.165c0.157-1.93-2.844-1.914-3,0
				c-0.33,4.055-0.661,8.11-0.991,12.165C182.578,150.181,185.579,150.165,185.735,148.251L185.735,148.251z"/>
		</g>
	</g>
	<g>
		<g>
			<path style="fill:#FFFFFF;" d="M191.218,116.613c0.204,0.134,0.408,0.268,0.613,0.402c0.685,0.448,1.655,0.14,2.052-0.539
				c0.43-0.732,0.145-1.605-0.538-2.052c-0.204-0.134-0.408-0.268-0.613-0.402c-0.685-0.448-1.655-0.14-2.052,0.538
				C190.25,115.293,190.535,116.166,191.218,116.613L191.218,116.613z"/>
		</g>
	</g>
	<g>
		<g>
			<path style="fill:#FFFFFF;" d="M192.937,120.823c0.104,0.343,0.206,0.686,0.31,1.028c0.235,0.782,1.043,1.268,1.845,1.047
				c0.774-0.213,1.283-1.063,1.048-1.845c-0.104-0.343-0.206-0.686-0.31-1.028c-0.235-0.782-1.043-1.268-1.845-1.047
				C193.21,119.19,192.701,120.04,192.937,120.823L192.937,120.823z"/>
		</g>
	</g>
	<g>
		<g>
			<path style="fill:#FFFFFF;" d="M190.334,117.416c0.186-0.313,0.371-0.626,0.556-0.939c0.987-1.669-1.606-3.177-2.59-1.514
				c-0.186,0.313-0.371,0.626-0.556,0.939C186.757,117.571,189.351,119.08,190.334,117.416L190.334,117.416z"/>
		</g>
	</g>
	<g>
		<g>
			<path style="fill:#FFFFFF;" d="M175.083,128.227c-0.325-2.26-0.649-4.52-0.975-6.78c-0.274-1.909-3.165-1.094-2.893,0.798
				c0.325,2.26,0.649,4.52,0.975,6.78C172.464,130.933,175.354,130.118,175.083,128.227L175.083,128.227z"/>
		</g>
	</g>
	<g>
		<g>
			<path style="fill:#FFFFFF;" d="M177.341,148.251c-0.33-4.055-0.66-8.11-0.99-12.165c-0.156-1.914-3.157-1.93-3,0
				c0.33,4.055,0.66,8.11,0.99,12.165C174.497,150.165,177.498,150.181,177.341,148.251L177.341,148.251z"/>
		</g>
	</g>
	<g>
		<g>
			<path style="fill:#FFFFFF;" d="M167.345,114.022c-0.205,0.134-0.409,0.268-0.614,0.402c-0.683,0.447-0.967,1.32-0.538,2.052
				c0.397,0.678,1.368,0.987,2.053,0.539c0.204-0.134,0.409-0.268,0.613-0.402c0.683-0.447,0.967-1.32,0.539-2.053
				C169,113.883,168.029,113.574,167.345,114.022L167.345,114.022z"/>
		</g>
	</g>
	<g>
		<g>
			<path style="fill:#FFFFFF;" d="M164.247,120.025c-0.104,0.343-0.207,0.686-0.31,1.028c-0.236,0.783,0.274,1.632,1.047,1.845
				c0.803,0.221,1.61-0.265,1.845-1.047c0.104-0.343,0.207-0.686,0.31-1.028c0.236-0.783-0.274-1.632-1.047-1.845
				C165.29,118.757,164.482,119.243,164.247,120.025L164.247,120.025z"/>
		</g>
	</g>
	<g>
		<g>
			<path style="fill:#FFFFFF;" d="M172.333,115.902c-0.186-0.313-0.371-0.626-0.556-0.939c-0.984-1.663-3.579-0.155-2.591,1.514
				c0.186,0.313,0.371,0.626,0.556,0.939C170.727,119.079,173.32,117.571,172.333,115.902L172.333,115.902z"/>
		</g>
	</g>
	<g>
		<g>
			<path style="fill:#FFFFFF;" d="M95.5,249.834c49.899,0,99.798,0,149.698,0c7.177,0,14.354,0,21.532,0c1.935,0,1.935-3,0-3
				c-49.899,0-99.798,0-149.697,0c-7.178,0-14.355,0-21.533,0C93.565,246.834,93.565,249.834,95.5,249.834L95.5,249.834z"/>
		</g>
	</g>
</g>
<g id="Ebene_1">
</g>
</svg>
