<?xml version="1.0" encoding="iso-8859-1"?>
<!-- Generator: Adobe Illustrator 16.0.0, SVG Export Plug-In . SVG Version: 6.00 Build 0)  -->
<!DOCTYPE svg PUBLIC "-//W3C//DTD SVG 1.1 Tiny//EN" "http://www.w3.org/Graphics/SVG/1.1/DTD/svg11-tiny.dtd">
<svg version="1.1" baseProfile="tiny" id="scene_x5F_bathroom"
	 xmlns="http://www.w3.org/2000/svg" xmlns:xlink="http://www.w3.org/1999/xlink" x="0px" y="0px" width="361px" height="361px"
	 viewBox="0 0 361 361" xml:space="preserve">
<g>
	<g>
		<path fill="#FFFFFF" d="M255.35,179.244c9.385,2.515,18.771,5.03,28.156,7.544c6.237,1.671,8.881-7.975,2.658-9.643
			c-9.385-2.515-18.771-5.03-28.156-7.544C251.771,167.93,249.126,177.576,255.35,179.244L255.35,179.244z"/>
	</g>
	<g>
		<path fill="#FFFFFF" d="M251.817,173.245c-0.833,3.107-1.665,6.214-2.497,9.321c-1.671,6.237,7.976,8.881,9.643,2.658
			c0.833-3.107,1.665-6.214,2.497-9.321C263.131,169.666,253.484,167.022,251.817,173.245L251.817,173.245z"/>
	</g>
	<g>
		<path fill="#FFFFFF" d="M237.608,186.083c9.741,2.61,19.481,5.22,29.223,7.83c6.237,1.671,8.881-7.975,2.658-9.643
			c-9.741-2.61-19.481-5.22-29.223-7.83C234.029,174.769,231.385,184.416,237.608,186.083L237.608,186.083z"/>
	</g>
	<g>
		<path fill="#FFFFFF" d="M234.021,180.35c-0.396,1.477-0.792,2.954-1.188,4.431c-0.705,2.631,0.853,5.424,3.492,6.15
			c2.613,0.719,5.445-0.861,6.15-3.492c0.396-1.477,0.792-2.954,1.188-4.431c0.705-2.631-0.853-5.424-3.492-6.15
			C237.559,176.139,234.727,177.719,234.021,180.35L234.021,180.35z"/>
	</g>
	<g>
		<path fill="#FFFFFF" d="M263.244,188.451c-0.396,1.477-0.792,2.954-1.188,4.432c-0.705,2.631,0.853,5.424,3.492,6.15
			c2.613,0.719,5.445-0.861,6.15-3.492c0.396-1.477,0.792-2.954,1.188-4.432c0.705-2.631-0.853-5.424-3.492-6.15
			C266.781,184.24,263.949,185.819,263.244,188.451L263.244,188.451z"/>
	</g>
	<g>
		<path fill="#FFFFFF" d="M249.863,206.463c-0.892,3.331-1.785,6.661-2.677,9.992c-1.17,4.367,5.583,6.217,6.75,1.861
			c0.892-3.331,1.785-6.661,2.677-9.992C257.783,203.958,251.03,202.107,249.863,206.463L249.863,206.463z"/>
	</g>
	<g>
		<path fill="#FFFFFF" d="M239.596,203.837c-0.681,2.541-1.361,5.082-2.042,7.622c-1.17,4.367,5.583,6.217,6.75,1.861
			c0.681-2.541,1.361-5.082,2.042-7.622C247.516,201.332,240.763,199.481,239.596,203.837L239.596,203.837z"/>
	</g>
	<g>
		<path fill="#FFFFFF" d="M235.348,218.994c-1.232,4.601-2.464,9.202-3.697,13.803c-1.169,4.367,5.583,6.217,6.75,1.861
			c1.232-4.601,2.464-9.202,3.697-13.803C243.268,216.489,236.515,214.638,235.348,218.994L235.348,218.994z"/>
	</g>
	<g>
		<path fill="#FFFFFF" d="M245.535,223.637c-1.261,4.708-2.522,9.415-3.783,14.122c-1.169,4.367,5.583,6.217,6.75,1.861
			c1.261-4.708,2.522-9.415,3.783-14.122C253.454,221.132,246.702,219.281,245.535,223.637L245.535,223.637z"/>
	</g>
	<g>
		<path fill="#FFFFFF" d="M257.214,215.063c-0.925,3.456-1.851,6.912-2.776,10.367c-1.169,4.367,5.583,6.217,6.75,1.861
			c0.925-3.456,1.851-6.912,2.776-10.367C265.134,212.557,258.381,210.707,257.214,215.063L257.214,215.063z"/>
	</g>
	<g>
		<path fill="#FFFFFF" d="M251.923,234.633c-0.279,1.042-0.558,2.084-0.837,3.126c-0.493,1.842,0.597,3.797,2.444,4.306
			c1.83,0.503,3.812-0.603,4.306-2.444c0.279-1.042,0.558-2.084,0.837-3.126c0.493-1.842-0.597-3.797-2.444-4.306
			C254.399,231.686,252.417,232.791,251.923,234.633L251.923,234.633z"/>
	</g>
	<g>
		<path fill="#FFFFFF" d="M228.9,206.253c-0.926,3.456-1.852,6.911-2.777,10.366c-1.17,4.367,5.583,6.217,6.75,1.861
			c0.926-3.456,1.852-6.911,2.777-10.366C236.82,203.748,230.067,201.897,228.9,206.253L228.9,206.253z"/>
	</g>
	<g>
		<path fill="#FFFFFF" d="M223.628,225.753c-1.066,3.98-2.132,7.959-3.199,11.939c-1.17,4.367,5.583,6.217,6.75,1.861
			c1.066-3.98,2.132-7.959,3.199-11.939C231.548,223.248,224.795,221.397,223.628,225.753L223.628,225.753z"/>
	</g>
	<g>
		<path fill="#FFFFFF" d="M252.977,195.345c-0.4,1.495-0.801,2.99-1.201,4.484c-0.493,1.842,0.597,3.797,2.444,4.306
			c1.829,0.503,3.813-0.603,4.306-2.444c0.4-1.495,0.801-2.99,1.201-4.484c0.493-1.842-0.597-3.797-2.444-4.306
			C255.454,192.397,253.47,193.503,252.977,195.345L252.977,195.345z"/>
	</g>
	<g>
		<path fill="#FFFFFF" d="M243.003,192.038c-0.4,1.495-0.8,2.989-1.201,4.484c-0.493,1.842,0.597,3.797,2.444,4.306
			c1.829,0.503,3.813-0.603,4.306-2.444c0.4-1.495,0.8-2.989,1.201-4.484c0.493-1.842-0.597-3.797-2.444-4.306
			C245.48,189.091,243.497,190.196,243.003,192.038L243.003,192.038z"/>
	</g>
	<g>
		<path fill="#FFFFFF" d="M260.017,205.131c-0.244,0.912-0.488,1.823-0.732,2.734c-0.493,1.842,0.597,3.797,2.444,4.306
			c1.829,0.503,3.813-0.603,4.306-2.444c0.244-0.912,0.488-1.823,0.732-2.734c0.493-1.842-0.597-3.797-2.444-4.306
			C262.494,202.184,260.51,203.29,260.017,205.131L260.017,205.131z"/>
	</g>
	<g>
		<path fill="#FFFFFF" d="M232.017,196.337c-0.244,0.911-0.488,1.822-0.731,2.733c-0.493,1.842,0.597,3.797,2.444,4.306
			c1.829,0.503,3.813-0.603,4.306-2.444c0.244-0.911,0.488-1.822,0.731-2.733c0.493-1.842-0.597-3.797-2.444-4.306
			C234.494,193.39,232.51,194.495,232.017,196.337L232.017,196.337z"/>
	</g>
	<g>
		<path fill="#FFFFFF" d="M162.769,294.545c2.905,0,5.811,0,8.716,0c2.726,0,5-2.274,5-5s-2.274-5-5-5c-2.905,0-5.811,0-8.716,0
			c-2.726,0-5,2.274-5,5S160.043,294.545,162.769,294.545L162.769,294.545z"/>
	</g>
	<g>
		<path fill="#FFFFFF" d="M260.476,294.545c2.905,0,5.811,0,8.716,0c2.726,0,5-2.274,5-5s-2.274-5-5-5c-2.905,0-5.811,0-8.716,0
			c-2.726,0-5,2.274-5,5S257.75,294.545,260.476,294.545L260.476,294.545z"/>
	</g>
	<g>
		<path fill="#FFFFFF" d="M275.197,280.417c-0.833,2.459,0.473,0.458,0.552,0.458c-0.297,0-0.593,0-0.89,0c-1.428,0-2.856,0-4.285,0
			c-5.197,0-10.394,0-15.591,0c-15.563,0-31.125,0-46.688,0c-13.925,0-27.85,0-41.775,0c-3.15,0-6.3,0-9.45,0
			c-0.172,0-0.345,0-0.517,0c1.32,0,1.715,1.4,0.804-0.51c-0.254-0.531-0.457-0.829-0.652-1.279
			c-0.905-2.082-1.81-4.163-2.715-6.245c-3.662-8.423-7.325-16.847-10.987-25.27c0.168,1.284,0.336,2.568,0.504,3.853
			c0.091-0.57-1.26-0.458,0.61-0.458c1.405,0,2.809,0,4.214,0c4.903,0,9.806,0,14.708,0c15.075,0,30.149,0,45.223,0
			c24.005,0,48.01,0,72.015,0c0.601,0-0.037-3.695-0.531-0.447c-0.543,3.568-1.086,7.136-1.629,10.704
			C277.145,267.622,276.171,274.02,275.197,280.417c-0.959,6.306,8.675,9.017,9.643,2.658c0.828-5.437,1.655-10.873,2.482-16.31
			c0.815-5.354,2.513-11.231,2.513-16.67c0-11.428-14.511-9.129-21.941-9.129c-30.077,0-60.154,0-90.231,0
			c-10.645,0-21.289,0-31.934,0c-3.873,0-8.508,0.147-10.57,4.167c-3.024,5.895,0.981,11.561,3.379,17.075
			c2.905,6.682,5.81,13.363,8.715,20.045c1.992,4.58,4.133,8.622,9.817,8.622c9.268,0,18.536,0,27.804,0c21.191,0,42.382,0,63.574,0
			c7.375,0,14.75,0,22.125,0c6.583,0,11.712-0.259,14.266-7.799C286.915,276.951,277.254,274.344,275.197,280.417z"/>
	</g>
	<g>
		<path fill="#FFFFFF" d="M279.835,183.587c0,22.169,0,44.338,0,66.508c0,6.449,10,6.449,10,0c0-22.169,0-44.338,0-66.508
			C289.835,177.139,279.835,177.139,279.835,183.587L279.835,183.587z"/>
	</g>
</g>
<g>
	<path fill="#FFFFFF" d="M80.719,162.969c0.584,8.473,6.323,11,13.859,11c7.264,0,14.527,0,21.791,0c5.256,0,10.512,0,15.769,0
		c7.547,0,12.535-5.66,16.767-11.147c7.24-9.388,26.225-46.853,2.511-46.853c-13.26,0-26.521,0-39.781,0c-6.102,0-12.205,0-18.307,0
		c-7.258,0-12.609,3.125-12.609,11.037C80.719,138.993,80.719,150.981,80.719,162.969c0,6.449,10,6.449,10,0
		c0-11.812,0-23.625,0-35.437c0-0.666-0.03-1.335,0.101-1.992c-0.239,1.199,0.055,0.428,1.19,0.428c1.735,0,3.47,0,5.205,0
		c7.074,0,14.147,0,21.221,0c7.776,0,15.552,0,23.329,0c1.09,0,11.643-1.109,11.304,1.337c-1.463,10.57-5.728,20.601-11.901,29.259
		c-2.596,3.641-5.734,7.404-10.475,7.404c-7.741,0-15.481,0-23.222,0c-3.905,0-7.81,0-11.715,0c-1.559,0-4.922,0.659-5.037-1
		C90.278,156.572,80.275,156.529,80.719,162.969z"/>
</g>
<g>
	<path fill="#FFFFFF" d="M85.719,114.094c24.458,0,48.917,0,73.375,0c6.449,0,6.449-10,0-10c-24.458,0-48.917,0-73.375,0
		C79.271,104.094,79.271,114.094,85.719,114.094L85.719,114.094z"/>
</g>
<g>
	<path fill="#FFFFFF" d="M242.505,114.767c0,2.413-1.956,4.369-4.369,4.369h-43.278c-2.413,0-4.369-1.956-4.369-4.369V87.132
		c0-2.413,1.957-4.37,4.369-4.37h43.278c2.413,0,4.369,1.957,4.369,4.37V114.767z"/>
	<g>
		<path fill="#FFFFFF" d="M186.662,104.674c20.619,0,41.238,0,61.857,0c4.514,0,4.514-7,0-7c-20.619,0-41.238,0-61.857,0
			C182.147,97.674,182.147,104.674,186.662,104.674L186.662,104.674z"/>
	</g>
	<g>
		<path fill="#FFFFFF" d="M181.627,95.926c0,3.349,0,6.697,0,10.046c0,4.514,7,4.514,7,0c0-3.349,0-6.697,0-10.046
			C188.627,91.412,181.627,91.412,181.627,95.926L181.627,95.926z"/>
	</g>
	<g>
		<path fill="#FFFFFF" d="M187.015,79.729c20.501,0,41.002,0,61.504,0c4.514,0,4.514-7,0-7c-20.501,0-41.002,0-61.504,0
			C182.5,72.729,182.5,79.729,187.015,79.729L187.015,79.729z"/>
	</g>
	<g>
		<path fill="#FFFFFF" d="M252.019,101.174c0-8.315,0-16.63,0-24.946c0-4.514-7-4.514-7,0c0,8.315,0,16.63,0,24.946
			C245.019,105.688,252.019,105.688,252.019,101.174L252.019,101.174z"/>
	</g>
</g>
<g>
	<path fill="#FFFFFF" d="M77.815,200.001c0-40.319,0-80.637,0-120.956c0-6.449-10-6.449-10,0c0,40.319,0,80.637,0,120.956
		C67.815,206.45,77.815,206.45,77.815,200.001L77.815,200.001z"/>
</g>
</svg>
