<?xml version="1.0" encoding="iso-8859-1"?>
<!-- Generator: Adobe Illustrator 16.0.0, SVG Export Plug-In . SVG Version: 6.00 Build 0)  -->
<!DOCTYPE svg PUBLIC "-//W3C//DTD SVG 1.1//EN" "http://www.w3.org/Graphics/SVG/1.1/DTD/svg11.dtd">
<svg version="1.1" xmlns="http://www.w3.org/2000/svg" xmlns:xlink="http://www.w3.org/1999/xlink" x="0px" y="0px" width="361px"
	 height="361px" viewBox="0 0 361 361" style="enable-background:new 0 0 361 361;" xml:space="preserve">
<g id="scene_x5F_corridor">
	<g>
		<g>
			<path style="fill:#FFFFFF;" d="M113.064,229.134c0-12.637-0.434-132.479,0.435-132.479c12.264,0,24.527,0,36.79,0
				c6.393,0,12.787,0,19.18,0c2.6,0,3.275-0.333,3.275,2.285c0,26.165,0,52.33,0,78.494c0,17.233,0,34.466,0,51.7
				c0,4.514,7,4.514,7,0c0-22.177,0-44.353,0-66.529c0-15.152,0-30.304,0-45.456c0-6.771,0.94-14.29-0.125-21.008
				c-1.015-6.404-6.627-6.485-11.685-6.485c-6.857,0-13.715,0-20.572,0c-7.799,0-15.598,0-23.396,0
				c-3.722,0-7.792-0.481-11.485,0.125c-8.884,1.458-6.417,14.739-6.417,21.153c0,14.247,0,28.494,0,42.741
				c0,25.153,0,50.306,0,75.459C106.064,233.647,113.064,233.647,113.064,229.134L113.064,229.134z"/>
		</g>
	</g>
	<g>
		<g>
			<path style="fill:#FFFFFF;" d="M168.834,165.098c2.117,0,4.233,0,6.35,0c4.514,0,4.514-7,0-7c-2.117,0-4.233,0-6.35,0
				C164.32,158.098,164.32,165.098,168.834,165.098L168.834,165.098z"/>
		</g>
	</g>
	<g>
		<g>
			<path style="fill:#FFFFFF;" d="M71,233.504c48.049,0,96.099,0,144.148,0c25.117,0,50.235,0,75.354,0c1.935,0,1.935-3,0-3
				c-48.049,0-96.099,0-144.147,0c-25.118,0-50.236,0-75.354,0C69.065,230.504,69.065,233.504,71,233.504L71,233.504z"/>
		</g>
	</g>
	<g>
		<g>
			<path style="fill:#FFFFFF;" d="M176.245,227.171c38.196,0,76.392,0,114.587,0c1.935,0,1.935-3,0-3c-38.195,0-76.392,0-114.587,0
				C174.31,224.171,174.31,227.171,176.245,227.171L176.245,227.171z"/>
		</g>
	</g>
	<g>
		<g>
			<path style="fill:#FFFFFF;" d="M71,227.171c13.278,0,26.557,0,39.835,0c1.935,0,1.935-3,0-3c-13.278,0-26.557,0-39.835,0
				C69.065,224.171,69.065,227.171,71,227.171L71,227.171z"/>
		</g>
	</g>
	<g>
		<g>
			<path style="fill:#FFFFFF;" d="M103.333,252.667c36.556,0,73.112,0,109.668,0c1.935,0,1.935-3,0-3c-36.556,0-73.112,0-109.668,0
				C101.398,249.667,101.398,252.667,103.333,252.667L103.333,252.667z"/>
		</g>
	</g>
	<g>
		<g>
			<path style="fill:#FFFFFF;" d="M111,291.834c38.723,0,77.446,0,116.168,0c1.935,0,1.935-3,0-3c-38.723,0-77.446,0-116.168,0
				C109.065,288.834,109.065,291.834,111,291.834L111,291.834z"/>
		</g>
	</g>
	<g>
		<g>
			<path style="fill:#FFFFFF;" d="M90.167,257.02c3.167,0,6.333,0,9.5,0c1.935,0,1.935-3,0-3c-3.167,0-6.333,0-9.5,0
				C88.232,254.02,88.232,257.02,90.167,257.02L90.167,257.02z"/>
		</g>
	</g>
	<g>
		<g>
			<path style="fill:#FFFFFF;" d="M90.167,252.667c3.167,0,6.333,0,9.5,0c1.935,0,1.935-3,0-3c-3.167,0-6.333,0-9.5,0
				C88.232,249.667,88.232,252.667,90.167,252.667L90.167,252.667z"/>
		</g>
	</g>
	<g>
		<g>
			<path style="fill:#FFFFFF;" d="M92.167,265.723c3.167,0,6.333,0,9.5,0c1.935,0,1.935-3,0-3c-3.167,0-6.333,0-9.5,0
				C90.232,262.723,90.232,265.723,92.167,265.723L92.167,265.723z"/>
		</g>
	</g>
	<g>
		<g>
			<path style="fill:#FFFFFF;" d="M92.167,261.371c3.167,0,6.333,0,9.5,0c1.935,0,1.935-3,0-3c-3.167,0-6.333,0-9.5,0
				C90.232,258.371,90.232,261.371,92.167,261.371L92.167,261.371z"/>
		</g>
	</g>
	<g>
		<g>
			<path style="fill:#FFFFFF;" d="M92.167,274.426c3.167,0,6.333,0,9.5,0c1.935,0,1.935-3,0-3c-3.167,0-6.333,0-9.5,0
				C90.232,271.426,90.232,274.426,92.167,274.426L92.167,274.426z"/>
		</g>
	</g>
	<g>
		<g>
			<path style="fill:#FFFFFF;" d="M93.167,270.074c3.167,0,6.333,0,9.5,0c1.935,0,1.935-3,0-3c-3.167,0-6.333,0-9.5,0
				C91.232,267.074,91.232,270.074,93.167,270.074L93.167,270.074z"/>
		</g>
	</g>
	<g>
		<g>
			<path style="fill:#FFFFFF;" d="M95.167,283.13c3.167,0,6.333,0,9.5,0c1.935,0,1.935-3,0-3c-3.167,0-6.333,0-9.5,0
				C93.232,280.13,93.232,283.13,95.167,283.13L95.167,283.13z"/>
		</g>
	</g>
	<g>
		<g>
			<path style="fill:#FFFFFF;" d="M93.167,278.777c3.167,0,6.333,0,9.5,0c1.935,0,1.935-3,0-3c-3.167,0-6.333,0-9.5,0
				C91.232,275.777,91.232,278.777,93.167,278.777L93.167,278.777z"/>
		</g>
	</g>
	<g>
		<g>
			<path style="fill:#FFFFFF;" d="M97.167,291.834c3.167,0,6.333,0,9.5,0c1.935,0,1.935-3,0-3c-3.167,0-6.333,0-9.5,0
				C95.232,288.834,95.232,291.834,97.167,291.834L97.167,291.834z"/>
		</g>
	</g>
	<g>
		<g>
			<path style="fill:#FFFFFF;" d="M96.167,287.481c3.167,0,6.333,0,9.5,0c1.935,0,1.935-3,0-3c-3.167,0-6.333,0-9.5,0
				C94.232,284.481,94.232,287.481,96.167,287.481L96.167,287.481z"/>
		</g>
	</g>
	<g>
		<g>
			<path style="fill:#FFFFFF;" d="M219.333,257.02c3.167,0,6.333,0,9.5,0c1.935,0,1.935-3,0-3c-3.167,0-6.333,0-9.5,0
				C217.398,254.02,217.398,257.02,219.333,257.02L219.333,257.02z"/>
		</g>
	</g>
	<g>
		<g>
			<path style="fill:#FFFFFF;" d="M217.333,252.667c3.167,0,6.333,0,9.5,0c1.935,0,1.935-3,0-3c-3.167,0-6.333,0-9.5,0
				C215.398,249.667,215.398,252.667,217.333,252.667L217.333,252.667z"/>
		</g>
	</g>
	<g>
		<g>
			<path style="fill:#FFFFFF;" d="M223.333,265.723c3.167,0,6.333,0,9.5,0c1.935,0,1.935-3,0-3c-3.167,0-6.333,0-9.5,0
				C221.398,262.723,221.398,265.723,223.333,265.723L223.333,265.723z"/>
		</g>
	</g>
	<g>
		<g>
			<path style="fill:#FFFFFF;" d="M222.333,261.371c3.167,0,6.333,0,9.5,0c1.935,0,1.935-3,0-3c-3.167,0-6.333,0-9.5,0
				C220.398,258.371,220.398,261.371,222.333,261.371L222.333,261.371z"/>
		</g>
	</g>
	<g>
		<g>
			<path style="fill:#FFFFFF;" d="M226.333,274.426c3.167,0,6.333,0,9.5,0c1.935,0,1.935-3,0-3c-3.167,0-6.333,0-9.5,0
				C224.398,271.426,224.398,274.426,226.333,274.426L226.333,274.426z"/>
		</g>
	</g>
	<g>
		<g>
			<path style="fill:#FFFFFF;" d="M224.333,270.074c3.167,0,6.333,0,9.5,0c1.935,0,1.935-3,0-3c-3.167,0-6.333,0-9.5,0
				C222.398,267.074,222.398,270.074,224.333,270.074L224.333,270.074z"/>
		</g>
	</g>
	<g>
		<g>
			<path style="fill:#FFFFFF;" d="M229.333,283.13c3.167,0,6.333,0,9.5,0c1.935,0,1.935-3,0-3c-3.167,0-6.333,0-9.5,0
				C227.398,280.13,227.398,283.13,229.333,283.13L229.333,283.13z"/>
		</g>
	</g>
	<g>
		<g>
			<path style="fill:#FFFFFF;" d="M227.333,278.777c3.167,0,6.333,0,9.5,0c1.935,0,1.935-3,0-3c-3.167,0-6.333,0-9.5,0
				C225.398,275.777,225.398,278.777,227.333,278.777L227.333,278.777z"/>
		</g>
	</g>
	<g>
		<g>
			<path style="fill:#FFFFFF;" d="M231.333,291.834c3.167,0,6.333,0,9.5,0c1.935,0,1.935-3,0-3c-3.167,0-6.333,0-9.5,0
				C229.398,288.834,229.398,291.834,231.333,291.834L231.333,291.834z"/>
		</g>
	</g>
	<g>
		<g>
			<path style="fill:#FFFFFF;" d="M230.333,287.481c3.167,0,6.333,0,9.5,0c1.935,0,1.935-3,0-3c-3.167,0-6.333,0-9.5,0
				C228.398,284.481,228.398,287.481,230.333,287.481L230.333,287.481z"/>
		</g>
	</g>
	<g>
		<g>
			<path style="fill:#FFFFFF;" d="M70.749,72.503c48.049,0,96.098,0,144.147,0c25.118,0,50.235,0,75.354,0c1.935,0,1.935-3,0-3
				c-48.049,0-96.099,0-144.147,0c-25.118,0-50.236,0-75.354,0C68.814,69.503,68.814,72.503,70.749,72.503L70.749,72.503z"/>
		</g>
	</g>
	<g>
		<g>
			<path style="fill:#FFFFFF;" d="M280.242,172.681c-0.798,3.23-12.674,1.486-15.162,1.486c-7.697,0-15.395,0-23.091,0
				c-3.864,0-6.698,0.997-6.698-3.482c0-6.068,0-12.137,0-18.206c0-13.111,0-26.223,0-39.333c0-3.302,8.498-1.828,10.608-1.828
				c7.894,0,15.787,0,23.681,0c2.858,0,10.608-1.728,10.608,2.384c0,6.435,0,12.87,0,19.304c0,13.358,0,26.716,0,40.074
				c0,1.935,3,1.935,3,0c0-11.428,0-22.856,0-34.285c0-6.98,0-13.96,0-20.94c0-3.642,0.919-8.185-3.463-9.483
				c-3.907-1.159-9.689-0.054-13.71-0.054c-7.768,0-15.535,0-23.303,0c-3.371,0-10.422-1.245-10.422,4.087c0,3.668,0,7.337,0,11.006
				c0,11.507,0,23.014,0,34.521c0,4.106,0,8.213,0,12.32c0,2.117-0.385,5.721,2.271,6.508c2.595,0.769,5.469,0.407,8.151,0.407
				c5.837,0,11.675,0,17.513,0c5.271,0,10.54,0,15.811,0c3.264,0,6.139,0.2,7.099-3.688
				C283.599,171.6,280.706,170.803,280.242,172.681z"/>
		</g>
	</g>
	<g>
		<g>
			<path style="fill:#FFFFFF;" d="M270.127,154.237c1.332,4.257,2.665,8.514,3.997,12.771c0.575,1.84,3.472,1.054,2.893-0.798
				c-1.332-4.257-2.665-8.514-3.997-12.771C272.443,151.6,269.547,152.386,270.127,154.237L270.127,154.237z"/>
		</g>
	</g>
	<g>
		<g>
			<path style="fill:#FFFFFF;" d="M237.029,158.328c3.124-3.434,6.249-6.869,9.373-10.303c1.299-1.427-0.816-3.555-2.121-2.121
				c-3.124,3.434-6.249,6.869-9.373,10.303C233.609,157.634,235.725,159.762,237.029,158.328L237.029,158.328z"/>
		</g>
	</g>
	<g>
		<g>
			<path style="fill:#FFFFFF;" d="M251.742,150.764c1.203,2.555,2.407,5.109,3.611,7.664c0.824,1.749,3.41,0.225,2.59-1.515
				c-1.203-2.555-2.407-5.109-3.611-7.664C253.508,147.5,250.922,149.024,251.742,150.764L251.742,150.764z"/>
		</g>
	</g>
	<g>
		<g>
			<path style="fill:#FFFFFF;" d="M257.564,162.686c2.198-3.353,4.396-6.706,6.593-10.059c1.064-1.624-1.534-3.125-2.59-1.515
				c-2.198,3.354-4.396,6.706-6.593,10.06C253.91,162.795,256.509,164.296,257.564,162.686L257.564,162.686z"/>
		</g>
	</g>
	<g>
		<g>
			<path style="fill:#FFFFFF;" d="M263.742,147.154c2.198,2.716,4.396,5.432,6.594,8.148c1.218,1.504,3.326-0.632,2.121-2.121
				c-2.198-2.716-4.396-5.432-6.594-8.148C264.646,143.529,262.537,145.665,263.742,147.154L263.742,147.154z"/>
		</g>
	</g>
	<g>
		<g>
			<path style="fill:#FFFFFF;" d="M240.776,150.179c2.396-1.596,4.791-3.192,7.187-4.789c1.602-1.067,0.102-3.667-1.514-2.591
				c-2.396,1.596-4.791,3.192-7.187,4.789C237.661,148.656,239.161,151.255,240.776,150.179L240.776,150.179z"/>
		</g>
	</g>
	<g>
		<g>
			<path style="fill:#FFFFFF;" d="M249.856,125.348c3.14-0.535,6.279-1.069,9.419-1.604c1.904-0.324,1.095-3.215-0.797-2.893
				c-3.14,0.535-6.279,1.069-9.419,1.604C247.155,122.779,247.965,125.67,249.856,125.348L249.856,125.348z"/>
		</g>
	</g>
	<g>
		<g>
			<path style="fill:#FFFFFF;" d="M258.859,122.86c2.163,1.223,4.327,2.447,6.491,3.67c1.687,0.953,3.197-1.639,1.514-2.591
				c-2.163-1.223-4.327-2.447-6.491-3.67C258.688,119.316,257.176,121.908,258.859,122.86L258.859,122.86z"/>
		</g>
	</g>
	<g>
		<g>
			<path style="fill:#FFFFFF;" d="M264.586,129.394c-0.039,1.012-0.078,2.024-0.117,3.036c-0.031,0.817,0.706,1.5,1.5,1.5
				c0.842,0,1.469-0.683,1.5-1.5c0.039-1.012,0.078-2.024,0.117-3.036c0.031-0.817-0.706-1.5-1.5-1.5
				C265.244,127.894,264.617,128.577,264.586,129.394L264.586,129.394z"/>
		</g>
	</g>
	<g>
		<g>
			<path style="fill:#FFFFFF;" d="M235.498,159.232c1.719,0,3.438,0,5.156,0c1.935,0,1.935-3,0-3c-1.719,0-3.438,0-5.156,0
				C233.563,156.232,233.563,159.232,235.498,159.232L235.498,159.232z"/>
		</g>
	</g>
	<g>
		<g>
			<path style="fill:#FFFFFF;" d="M235.942,160.438c4.373,1.494,8.746,2.988,13.119,4.482c1.836,0.627,2.617-2.271,0.797-2.893
				c-4.373-1.494-8.746-2.988-13.119-4.482C234.903,156.918,234.122,159.816,235.942,160.438L235.942,160.438z"/>
		</g>
	</g>
	<g>
		<g>
			<path style="fill:#FFFFFF;" d="M235.969,170.809c2.451,0,4.902,0,7.354,0c1.935,0,1.935-3,0-3c-2.451,0-4.902,0-7.354,0
				C234.034,167.809,234.034,170.809,235.969,170.809L235.969,170.809z"/>
		</g>
	</g>
	<g>
		<g>
			<path style="fill:#FFFFFF;" d="M251.945,166.368c1.932,0,3.863,0,5.795,0c1.935,0,1.935-3,0-3c-1.932,0-3.863,0-5.795,0
				C250.011,163.368,250.011,166.368,251.945,166.368L251.945,166.368z"/>
		</g>
	</g>
	<g>
		<g>
			<path style="fill:#FFFFFF;" d="M241.711,170.809c1.832,0,3.663,0,5.495,0c1.935,0,1.935-3,0-3c-1.832,0-3.663,0-5.495,0
				C239.776,167.809,239.776,170.809,241.711,170.809L241.711,170.809z"/>
		</g>
	</g>
	<g>
		<g>
			<path style="fill:#FFFFFF;" d="M263.303,137.773c-0.468,4.245-11.971,4.099-11.971-0.258c0-3.289,0-6.578,0-9.866
				c0-4.167,11.971-4.164,11.971,0.258C263.303,131.196,263.303,134.484,263.303,137.773c0,1.935,3,1.935,3,0
				c0-4.797,1.599-12.166-3.019-15.236c-2.099-1.396-6.243-0.637-8.581-0.637c-3.673,0-5.971,2.108-6.371,5.749
				c-0.29,2.637,0,5.464,0,8.117c0,2.982,0.331,5.332,3.019,7.119c2.099,1.396,6.243,0.637,8.581,0.637
				c3.673,0,5.97-2.108,6.371-5.748C266.515,135.852,263.512,135.872,263.303,137.773z"/>
		</g>
	</g>
	<g>
		<g>
			<path style="fill:#FFFFFF;" d="M252.533,141.361c0.657,0.261,1.315,0.522,1.974,0.783c0.761,0.302,1.646-0.324,1.845-1.047
				c0.235-0.854-0.288-1.544-1.048-1.845c-0.657-0.261-1.315-0.522-1.974-0.783c-0.761-0.302-1.646,0.324-1.845,1.047
				C251.25,140.37,251.773,141.06,252.533,141.361L252.533,141.361z"/>
		</g>
	</g>
	<g>
		<g>
			<path style="fill:#FFFFFF;" d="M237.622,117.384c13.678,0,27.354,0,41.032,0c1.935,0,1.935-3,0-3c-13.678,0-27.354,0-41.032,0
				C235.688,114.384,235.688,117.384,237.622,117.384L237.622,117.384z"/>
		</g>
	</g>
	<g>
		<g>
			<path style="fill:#FFFFFF;" d="M239.044,121.854c2.721,0,5.441,0,8.162,0c1.935,0,1.935-3,0-3c-2.721,0-5.441,0-8.162,0
				C237.109,118.854,237.109,121.854,239.044,121.854L239.044,121.854z"/>
		</g>
	</g>
	<g>
		<g>
			<path style="fill:#FFFFFF;" d="M270.326,121.854c1.761,0,3.521,0,5.281,0c1.935,0,1.935-3,0-3c-1.761,0-3.521,0-5.281,0
				C268.392,118.854,268.392,121.854,270.326,121.854L270.326,121.854z"/>
		</g>
	</g>
	<g>
		<g>
			<path style="fill:#FFFFFF;" d="M238.445,129.369c2.024,0,4.048,0,6.072,0c1.935,0,1.935-3,0-3c-2.024,0-4.048,0-6.072,0
				C236.511,126.369,236.511,129.369,238.445,129.369L238.445,129.369z"/>
		</g>
	</g>
	<g>
		<g>
			<path style="fill:#FFFFFF;" d="M272.256,130.894c2.031,0,4.063,0,6.094,0c1.935,0,1.935-3,0-3c-2.031,0-4.063,0-6.094,0
				C270.321,127.894,270.321,130.894,272.256,130.894L272.256,130.894z"/>
		</g>
	</g>
	<g>
		<g>
			<path style="fill:#FFFFFF;" d="M238.701,135.667c2.396,0,4.791,0,7.187,0c1.935,0,1.935-3,0-3c-2.396,0-4.791,0-7.187,0
				C236.767,132.667,236.767,135.667,238.701,135.667L238.701,135.667z"/>
		</g>
	</g>
	<g>
		<g>
			<path style="fill:#FFFFFF;" d="M238.813,141.807c2.184,0,4.367,0,6.551,0c1.935,0,1.935-3,0-3c-2.184,0-4.367,0-6.551,0
				C236.878,138.807,236.878,141.807,238.813,141.807L238.813,141.807z"/>
		</g>
	</g>
	<g>
		<g>
			<path style="fill:#FFFFFF;" d="M269.941,141.415c2.42,0,4.84,0,7.26,0c1.935,0,1.935-3,0-3c-2.42,0-4.84,0-7.26,0
				C268.007,138.415,268.007,141.415,269.941,141.415L269.941,141.415z"/>
		</g>
	</g>
	<g>
		<g>
			<path style="fill:#FFFFFF;" d="M272.219,135.667c1.243,0,2.487,0,3.73,0c1.935,0,1.935-3,0-3c-1.243,0-2.487,0-3.73,0
				C270.284,132.667,270.284,135.667,272.219,135.667L272.219,135.667z"/>
		</g>
	</g>
	<g>
		<g>
			<path style="fill:#FFFFFF;" d="M272.561,148.464c1.016,0,2.031,0,3.047,0c1.935,0,1.935-3,0-3c-1.016,0-2.031,0-3.047,0
				C270.626,145.464,270.626,148.464,272.561,148.464L272.561,148.464z"/>
		</g>
	</g>
	<g>
		<g>
			<path style="fill:#FFFFFF;" d="M283.005,176.714c-0.668,3.627-11.731,1.832-14.206,1.832c-7.947,0-15.895,0-23.842,0
				c-1.534,0-13.273,1.362-13.273-1.508c0-3.807,0-7.613,0-11.419c0-15.252,0-30.504,0-45.756c0-3.806,0-7.612,0-11.419
				c0-2.866,11.741-1.506,13.273-1.506c11.126,0,22.251,0,33.377,0c2.28,0,4.617-0.419,4.617,2.588c0,3.445,0,6.891,0,10.336
				c0,19.083,0,38.167,0,57.25c0,1.935,3,1.935,3,0c0-22.815,0-45.631,0-68.447c0-4.481-3.73-4.728-7.097-4.728
				c-6.849,0-13.697,0-20.546,0c-7.15,0-14.301,0-21.451,0c-3.39,0-8.174-0.374-8.174,4.506c0,22.736,0,45.472,0,68.208
				c0,3.958,2.892,4.894,6.17,4.894c6.498,0,12.997,0,19.495,0c7.186,0,14.37,0,21.555,0c3.887,0,9.063,1.023,9.994-4.034
				C286.246,175.621,283.354,174.813,283.005,176.714z"/>
		</g>
	</g>
</g>
<g id="Ebene_1">
</g>
</svg>
