<?xml version="1.0" encoding="iso-8859-1"?>
<!-- Generator: Adobe Illustrator 24.0.1, SVG Export Plug-In . SVG Version: 6.00 Build 0)  -->
<svg version="1.1" xmlns="http://www.w3.org/2000/svg" xmlns:xlink="http://www.w3.org/1999/xlink" x="0px" y="0px"
	 viewBox="0 0 361 361" style="enable-background:new 0 0 361 361;" xml:space="preserve">
<g id="scene_x5F_solar_x5F_panel">
	<path style="fill:none;stroke:#FFFFFF;stroke-width:10;stroke-miterlimit:10;" d="M269.763,123.484
		c0,2.466-1.999,4.466-4.466,4.466h-25.682c-2.467,0-4.466-2-4.466-4.466V97.802c0-2.467,1.999-4.466,4.466-4.466h25.682
		c2.467,0,4.466,2,4.466,4.466V123.484z"/>
	<g>
		<g>
			<path style="fill:#FFFFFF;" d="M210.596,78.328c2.644,2.644,5.289,5.289,7.933,7.933c1.852,1.852,5.244,1.99,7.071,0
				c1.832-1.996,1.976-5.095,0-7.071c-2.644-2.644-5.289-5.289-7.933-7.933c-1.852-1.852-5.244-1.99-7.071,0
				C208.764,73.252,208.62,76.351,210.596,78.328L210.596,78.328z"/>
		</g>
	</g>
	<g>
		<g>
			<path style="fill:#FFFFFF;" d="M176.358,115.369c12.271,0,24.542,0,36.813,0c6.435,0,6.445-10,0-10c-12.271,0-24.542,0-36.813,0
				C169.923,105.369,169.913,115.369,176.358,115.369L176.358,115.369z"/>
		</g>
	</g>
	<g>
		<g>
			<path style="fill:#FFFFFF;" d="M290.744,143.233c-2.187-2.187-4.374-4.373-6.561-6.56c-1.852-1.852-5.244-1.99-7.071,0
				c-1.832,1.996-1.976,5.095,0,7.071c2.187,2.187,4.374,4.373,6.56,6.56c1.852,1.852,5.244,1.99,7.071,0
				C292.576,148.308,292.72,145.209,290.744,143.233L290.744,143.233z"/>
		</g>
	</g>
	<g>
		<g>
			<path style="fill:#FFFFFF;" d="M256.906,185.917c0-12.271,0-24.542,0-36.813c0-6.435-10-6.445-10,0c0,12.271,0,24.542,0,36.813
				C246.906,192.352,256.906,192.362,256.906,185.917L256.906,185.917z"/>
		</g>
	</g>
	<g>
		<g>
			<path style="fill:#FFFFFF;" d="M200.669,169.776c8.677-8.677,17.354-17.354,26.031-26.031c4.556-4.556-2.513-11.629-7.071-7.071
				c-8.677,8.677-17.354,17.354-26.031,26.031C189.041,167.262,196.111,174.335,200.669,169.776L200.669,169.776z"/>
		</g>
	</g>
	<path style="fill:#FFFFFF;" d="M279.333,279.167v-96.904H83.524v96.904H279.333z M232.003,190.259c0-0.398,0.158-0.779,0.439-1.061
		l3.623-3.623c0.281-0.281,0.663-0.439,1.061-0.439h34.037c0.398,0,0.779,0.158,1.061,0.439l3.623,3.623
		c0.281,0.281,0.439,0.663,0.439,1.061v34.037c0,0.398-0.158,0.779-0.439,1.061l-3.623,3.623c-0.281,0.281-0.663,0.439-1.061,0.439
		h-34.037c-0.398,0-0.779-0.158-1.061-0.439l-3.623-3.623c-0.281-0.281-0.439-0.663-0.439-1.061V190.259z M232.003,237.134
		c0-0.398,0.158-0.779,0.439-1.061l3.623-3.623c0.281-0.281,0.663-0.439,1.061-0.439h34.037c0.398,0,0.779,0.158,1.061,0.439
		l3.623,3.623c0.281,0.281,0.439,0.663,0.439,1.061v34.037c0,0.398-0.158,0.779-0.439,1.061l-3.623,3.623
		c-0.281,0.281-0.663,0.439-1.061,0.439h-34.037c-0.398,0-0.779-0.158-1.061-0.439l-3.623-3.623
		c-0.281-0.281-0.439-0.663-0.439-1.061V237.134z M183.699,190.259c0-0.398,0.158-0.779,0.439-1.061l3.623-3.623
		c0.281-0.281,0.663-0.439,1.061-0.439h34.037c0.398,0,0.779,0.158,1.061,0.439l3.623,3.623c0.281,0.281,0.439,0.663,0.439,1.061
		v34.037c0,0.398-0.158,0.779-0.439,1.061l-3.623,3.623c-0.281,0.281-0.663,0.439-1.061,0.439h-34.037
		c-0.398,0-0.779-0.158-1.061-0.439l-3.623-3.623c-0.281-0.281-0.439-0.663-0.439-1.061V190.259z M183.699,237.134
		c0-0.398,0.158-0.779,0.439-1.061l3.623-3.623c0.281-0.281,0.663-0.439,1.061-0.439h34.037c0.398,0,0.779,0.158,1.061,0.439
		l3.623,3.623c0.281,0.281,0.439,0.663,0.439,1.061v34.037c0,0.398-0.158,0.779-0.439,1.061l-3.623,3.623
		c-0.281,0.281-0.663,0.439-1.061,0.439h-34.037c-0.398,0-0.779-0.158-1.061-0.439l-3.623-3.623
		c-0.281-0.281-0.439-0.663-0.439-1.061V237.134z M135.395,190.259c0-0.398,0.158-0.779,0.439-1.061l3.623-3.623
		c0.281-0.281,0.663-0.439,1.061-0.439h34.037c0.398,0,0.779,0.158,1.061,0.439l3.623,3.623c0.281,0.281,0.439,0.663,0.439,1.061
		v34.037c0,0.398-0.158,0.779-0.439,1.061l-3.623,3.623c-0.281,0.281-0.663,0.439-1.061,0.439h-34.037
		c-0.398,0-0.779-0.158-1.061-0.439l-3.623-3.623c-0.281-0.281-0.439-0.663-0.439-1.061V190.259z M135.395,237.134
		c0-0.398,0.158-0.779,0.439-1.061l3.623-3.623c0.281-0.281,0.663-0.439,1.061-0.439h34.037c0.398,0,0.779,0.158,1.061,0.439
		l3.623,3.623c0.281,0.281,0.439,0.663,0.439,1.061v34.037c0,0.398-0.158,0.779-0.439,1.061l-3.623,3.623
		c-0.281,0.281-0.663,0.439-1.061,0.439h-34.037c-0.398,0-0.779-0.158-1.061-0.439l-3.623-3.623
		c-0.281-0.281-0.439-0.663-0.439-1.061V237.134z M87.091,190.259c0-0.398,0.158-0.779,0.439-1.061l3.623-3.623
		c0.281-0.281,0.663-0.439,1.061-0.439h34.037c0.398,0,0.779,0.158,1.061,0.439l3.623,3.623c0.281,0.281,0.439,0.663,0.439,1.061
		v34.037c0,0.398-0.158,0.779-0.439,1.061l-3.623,3.623c-0.281,0.281-0.663,0.439-1.061,0.439H92.214
		c-0.398,0-0.779-0.158-1.061-0.439l-3.623-3.623c-0.281-0.281-0.439-0.663-0.439-1.061V190.259z M87.091,237.134
		c0-0.398,0.158-0.779,0.439-1.061l3.623-3.623c0.281-0.281,0.663-0.439,1.061-0.439h34.037c0.398,0,0.779,0.158,1.061,0.439
		l3.623,3.623c0.281,0.281,0.439,0.663,0.439,1.061v34.037c0,0.398-0.158,0.779-0.439,1.061l-3.623,3.623
		c-0.281,0.281-0.663,0.439-1.061,0.439H92.214c-0.398,0-0.779-0.158-1.061-0.439l-3.623-3.623
		c-0.281-0.281-0.439-0.663-0.439-1.061V237.134z"/>
	
		<line style="fill:none;stroke:#FFFFFF;stroke-width:3;stroke-linejoin:round;stroke-miterlimit:10;" x1="85.684" y1="195.901" x2="277.939" y2="195.901"/>
	
		<line style="fill:none;stroke:#FFFFFF;stroke-width:3;stroke-linejoin:round;stroke-miterlimit:10;" x1="85.706" y1="218.954" x2="277.961" y2="218.954"/>
	
		<line style="fill:none;stroke:#FFFFFF;stroke-width:3;stroke-linejoin:round;stroke-miterlimit:10;" x1="85.695" y1="242.625" x2="277.95" y2="242.625"/>
	
		<line style="fill:none;stroke:#FFFFFF;stroke-width:3;stroke-linejoin:round;stroke-miterlimit:10;" x1="85.716" y1="265.679" x2="277.972" y2="265.679"/>
	<path style="fill:none;stroke:#FFFFFF;stroke-width:7;stroke-linejoin:round;stroke-miterlimit:10;" d="M284.208,288.135H77.812
		c-1.657,0-3-1.343-3-3V177.071c0-1.657,1.343-3,3-3h206.396c1.657,0,3,1.343,3,3v108.064
		C287.208,286.792,285.865,288.135,284.208,288.135z"/>
</g>
<g id="Ebene_1">
</g>
</svg>
