<?xml version="1.0" encoding="iso-8859-1"?>
<!-- Generator: Adobe Illustrator 16.0.3, SVG Export Plug-In . SVG Version: 6.00 Build 0)  -->
<!DOCTYPE svg PUBLIC "-//W3C//DTD SVG 1.1//EN" "http://www.w3.org/Graphics/SVG/1.1/DTD/svg11.dtd">
<svg version="1.1" xmlns="http://www.w3.org/2000/svg" xmlns:xlink="http://www.w3.org/1999/xlink" x="0px" y="0px" width="361px"
	 height="361px" viewBox="0 0 361 361" style="enable-background:new 0 0 361 361;" xml:space="preserve">
<g id="scene_x5F_beer">
	<g>
		<g>
			<path style="fill:#FFFFFF;" d="M100.745,256.662c0.448,9.573,6.797,17.816,16.559,19.239c2.61,0.381,5.28,0.245,7.911,0.245
				c11.99,0,23.98,0,35.971,0c11.814,0,23.628,0,35.442,0c2.37,0,4.742,0.048,7.11-0.066c10.358-0.5,17.43-9.605,17.889-19.418
				c0.302-6.449-9.699-6.42-10,0c-0.492,10.514-10.498,9.484-17.956,9.484c-10.828,0-21.657,0-32.485,0c-10.611,0-21.223,0-31.834,0
				c-7.574,0-18.102,1.271-18.605-9.484C110.444,250.242,100.443,250.213,100.745,256.662L100.745,256.662z"/>
		</g>
	</g>
	<g>
		<g>
			<path style="fill:#FFFFFF;" d="M211.947,280.7c-0.247,2.454-23.109,0.989-25.266,0.989c-16.029,0-32.059,0-48.087,0
				c-8.975,0-17.95,0-26.924,0c-2.087,0-1.002-14.093-1.002-15.43c0-53.859,0-107.719,0-161.579c0-0.989-0.595-4.52,0.989-4.679
				c2.43-0.245,5.011,0,7.448,0c14.234,0,28.468,0,42.702,0c14.084,0,28.167,0,42.251,0c1.624,0,6.176-0.884,7.599,0.29
				c0.837,0.69,0.29,3.874,0.29,4.707c0,53.943,0,107.887,0,161.831C211.947,271.453,211.947,276.076,211.947,280.7
				c0,6.448,10,6.448,10,0c0-49.911,0-99.823,0-149.735c0-9.054,0-18.108,0-27.162c0-3.117-0.127-5.775-1.705-8.684
				c-2.556-4.708-7.797-5.117-12.474-5.117c-27.885,0-55.771,0-83.657,0c-8.683,0-23.444-1.973-23.444,11.055
				c0,5.997,0,11.993,0,17.989c0,29.888,0,59.776,0,89.664c0,23.314,0,46.629,0,69.942c0,4.041,0.759,7.789,4.105,10.55
				c3.352,2.766,7.304,2.487,11.316,2.487c13.244,0,26.487,0,39.73,0c14.228,0,28.456,0,42.684,0c9.417,0,22.14,1.947,23.444-10.989
				C222.594,274.285,212.588,274.348,211.947,280.7z"/>
		</g>
	</g>
	<g>
		<g>
			<path style="fill:#FFFFFF;" d="M109.938,126.833c34.165,0,68.329,0,102.493,0c1.935,0,1.935-3,0-3c-34.165,0-68.329,0-102.493,0
				C108.004,123.833,108.004,126.833,109.938,126.833L109.938,126.833z"/>
		</g>
	</g>
	<g>
		<g>
			<path style="fill:#FFFFFF;" d="M221.109,145.233c5.4-1.192,10.802-2.383,16.202-3.575c3.59-0.792,7.181-1.584,10.771-2.376
				c1.234-0.272,2.47-0.545,3.705-0.817c1.531-0.338,2.116,0.207,0.429-0.088c4.007,0.7,3.293,5.125,3.293,8.097
				c0,5.606,0,11.213,0,16.82c0,15.904,0,31.808,0,47.711c0,5.994,0,11.988,0,17.982c0,2.604,0.684,6.479-1.181,8.56
				c-1.357,1.515-3.755,1.123-5.579,1.123c-3.617,0-7.235,0-10.853,0c-6.226,0-12.45,0-18.675,0c-9.686,0-9.771,15.004-0.107,15.004
				c11.204,0,22.555,0.568,33.739-0.077c10.115-0.583,17.659-9.392,17.659-19.311c0-3.747,0-7.495,0-11.242
				c0-26.609,0-53.219,0-79.828c0-13.613-11.56-21.677-24.251-18.877c-9.678,2.135-19.356,4.271-29.035,6.405
				C207.77,132.831,211.693,147.311,221.109,145.233L221.109,145.233z"/>
		</g>
	</g>
	<path style="fill:#FFFFFF;stroke:#FFFFFF;stroke-miterlimit:10;" d="M212.023,90.667c-0.472-4.071-3.926-7.233-8.123-7.233h-6.804
		c-1.441-1.27-3.327-2.045-5.398-2.045h-9.546c-0.527,0-1.04,0.054-1.539,0.149c-0.275-4.269-3.815-7.649-8.154-7.649h-20.306
		c-4.038,0-7.384,2.927-8.052,6.773c-1.155-0.623-2.836-0.659-6.813-0.977h-18.543c-4.605,0.036-7.723,4.163-7.798,10.983h-1.007
		v34.665h102.493V90.667H212.023z"/>
</g>
<g id="Ebene_1">
</g>
</svg>
