<?xml version="1.0" encoding="iso-8859-1"?>
<!-- Generator: Adobe Illustrator 16.0.3, SVG Export Plug-In . SVG Version: 6.00 Build 0)  -->
<!DOCTYPE svg PUBLIC "-//W3C//DTD SVG 1.1//EN" "http://www.w3.org/Graphics/SVG/1.1/DTD/svg11.dtd">
<svg version="1.1" xmlns="http://www.w3.org/2000/svg" xmlns:xlink="http://www.w3.org/1999/xlink" x="0px" y="0px" width="361px"
	 height="361px" viewBox="0 0 361 361" style="enable-background:new 0 0 361 361;" xml:space="preserve">
<g id="scene_x5F_fitness_x5F_2">
	<g>
		<g>
			<path style="fill:#FFFFFF;" d="M74.833,185.5c48.502,0,97.004,0,145.505,0c22.165,0,44.33,0,66.495,0c6.448,0,6.448-10,0-10
				c-48.502,0-97.004,0-145.506,0c-22.165,0-44.33,0-66.495,0C68.385,175.5,68.385,185.5,74.833,185.5L74.833,185.5z"/>
		</g>
	</g>
	<path style="fill:#FFFFFF;" d="M108.096,139.806c-5.26,0-9.524,4.265-9.524,9.524v62.674c0,5.261,4.265,9.525,9.524,9.525h14.834
		c5.258,0,9.523-4.265,9.523-9.525V149.33c0-5.259-4.265-9.524-9.523-9.524H108.096z"/>
	<path style="fill:#FFFFFF;" d="M83.35,159.542c-4.329,0-7.838,3.51-7.838,7.837v26.576c0,4.328,3.509,7.838,7.838,7.838h6.206
		c4.328,0,7.837-3.51,7.837-7.838v-26.576c0-4.328-3.51-7.837-7.837-7.837H83.35z"/>
	<path style="fill:#FFFFFF;" d="M254.25,221.529c5.26,0,9.523-4.266,9.523-9.524V149.33c0-5.26-4.264-9.524-9.523-9.524h-14.834
		c-5.259,0-9.523,4.264-9.523,9.524v62.675c0,5.259,4.265,9.524,9.523,9.524H254.25z"/>
	<path style="fill:#FFFFFF;" d="M278.996,201.793c4.328,0,7.838-3.51,7.838-7.838V167.38c0-4.329-3.51-7.838-7.838-7.838h-6.207
		c-4.327,0-7.837,3.509-7.837,7.838v26.575c0,4.328,3.51,7.838,7.837,7.838H278.996z"/>
</g>
<g id="Ebene_1">
</g>
</svg>
