<?xml version="1.0" encoding="iso-8859-1"?>
<!-- Generator: Adobe Illustrator 16.0.0, SVG Export Plug-In . SVG Version: 6.00 Build 0)  -->
<!DOCTYPE svg PUBLIC "-//W3C//DTD SVG 1.1//EN" "http://www.w3.org/Graphics/SVG/1.1/DTD/svg11.dtd">
<svg version="1.1" xmlns="http://www.w3.org/2000/svg" xmlns:xlink="http://www.w3.org/1999/xlink" x="0px" y="0px" width="361px"
	 height="361px" viewBox="0 0 361 361" style="enable-background:new 0 0 361 361;" xml:space="preserve">
<g id="scene_x5F_gaming">
	<g style="display:none;">
		<g style="display:inline;">
			<g>
				<path style="fill:#FFFFFF;" d="M245.586,240.789c-0.405,4.518-5.74,3.539-8.888,3.539c-4.967,0-9.934,0-14.9,0
					c-2.628,0-5.255,0-7.882,0c-5.081,0-3.537-8.916-3.537-12.084c0-4.515,6.011-3.537,8.887-3.537c4.967,0,9.934,0,14.9,0
					c2.628,0,5.255,0,7.882,0C247.13,228.707,245.586,237.62,245.586,240.789c0,4.514,7,4.514,7,0
					c0-5.829,0.965-11.909-3.528-16.402c-3.683-3.681-10.178-2.68-14.892-2.68c-6.085,0-12.171,0-18.256,0
					c-6.785,0-11.889,3.364-12.531,10.537c-0.5,5.574-0.65,12.224,3.528,16.403c3.681,3.682,10.177,2.681,14.891,2.681
					c6.085,0,12.171,0,18.256,0c6.785,0,11.89-3.366,12.532-10.539C252.989,236.291,245.985,236.33,245.586,240.789z"/>
			</g>
		</g>
		<path style="display:inline;fill:#FFFFFF;stroke:#FFFFFF;stroke-miterlimit:10;" d="M218.189,221.896
			c0,2.742-2.225,4.965-4.967,4.965l0,0c-2.742,0-4.965-2.223-4.965-4.965v-8c0-2.742,2.223-4.965,4.965-4.965l0,0
			c2.742,0,4.967,2.223,4.967,4.965V221.896z"/>
		<g style="display:inline;">
			<g>
				<path style="fill:#FFFFFF;" d="M273.172,241.205c-0.504,4.511-11.476,2.846-14.37,2.846c-2.118,0-6.216,0.435-6.216-2.888
					c0-1.212,0-2.425,0-3.637c0-8.888,0-17.775,0-26.663c0-4.42,11.894-2.846,14.369-2.846c2.117,0,6.217-0.435,6.217,2.888
					c0,1.212,0,2.425,0,3.637C273.172,223.43,273.172,232.317,273.172,241.205c0,4.514,7,4.514,7,0
					c0-10.395,1.012-21.293-0.143-31.621c-1.016-9.075-10.898-8.566-17.633-8.566c-7.623,0-15.75,0.354-16.811,9.846
					c-0.551,4.924,0,10.222,0,15.171c0,5.42-0.46,11.056,0.143,16.45c1.015,9.075,10.898,8.566,17.632,8.566
					c7.624,0,15.751-0.354,16.812-9.846C280.673,236.723,273.668,236.771,273.172,241.205z"/>
			</g>
		</g>
		<g style="display:inline;">
			<g>
				<path style="fill:#FFFFFF;" d="M247.154,207.189c13.609,0,27.219,0,40.828,0c4.514,0,4.514-7,0-7c-13.609,0-27.219,0-40.828,0
					C242.641,200.189,242.641,207.189,247.154,207.189L247.154,207.189z"/>
			</g>
		</g>
		<g style="display:inline;">
			<g>
				<path style="fill:#FFFFFF;" d="M211.98,251.328c19.448,0,38.897,0,58.346,0c4.514,0,4.514-7,0-7c-19.448,0-38.897,0-58.346,0
					C207.467,244.328,207.467,251.328,211.98,251.328L211.98,251.328z"/>
			</g>
		</g>
		<g style="display:inline;">
			<g>
				<path style="fill:#FFFFFF;" d="M217.447,257.758c-0.446,8.295-12.415,8.294-12.861,0
					C204.14,249.461,217.003,249.505,217.447,257.758c0.242,4.489,7.243,4.513,7,0c-0.409-7.591-5.839-13.021-13.43-13.43
					c-7.575-0.408-13.056,6.451-13.432,13.43c-0.408,7.576,6.453,13.056,13.432,13.432c7.575,0.408,13.054-6.454,13.43-13.432
					C224.69,253.245,217.688,253.269,217.447,257.758z"/>
			</g>
		</g>
		<g style="display:inline;">
			<g>
				<path style="fill:#FFFFFF;" d="M270.137,257.758c-0.446,8.295-12.416,8.294-12.862,0
					C256.828,249.461,269.692,249.505,270.137,257.758c0.242,4.489,7.243,4.513,7,0c-0.409-7.592-5.84-13.021-13.431-13.43
					c-7.575-0.408-13.056,6.452-13.432,13.43c-0.408,7.576,6.453,13.056,13.432,13.432c7.576,0.408,13.055-6.453,13.431-13.432
					C277.38,253.245,270.378,253.269,270.137,257.758z"/>
			</g>
		</g>
		<g style="display:inline;">
			<g>
				<path style="fill:#FFFFFF;" d="M243.932,257.758c-0.446,8.294-12.417,8.295-12.863,0
					C230.622,249.461,243.487,249.506,243.932,257.758c0.242,4.489,7.243,4.513,7,0c-0.409-7.592-5.841-13.021-13.432-13.43
					c-7.575-0.408-13.056,6.452-13.432,13.43c-0.408,7.576,6.453,13.056,13.432,13.432c7.575,0.408,13.056-6.453,13.432-13.432
					C251.175,253.245,244.174,253.269,243.932,257.758z"/>
			</g>
		</g>
	</g>
	<g style="display:none;">
		<g style="display:inline;">
			<path style="fill:#FFFFFF;" d="M155.601,185.574c-0.335,15.337-12.33,27.33-27.667,27.666
				c-15.336,0.336-27.342-12.835-27.667-27.666c-0.335-15.336,12.835-27.342,27.667-27.667
				C143.271,157.572,155.277,170.743,155.601,185.574c0.099,4.507,7.099,4.517,7,0c-0.419-19.18-15.487-34.247-34.667-34.667
				c-19.178-0.419-34.261,16.118-34.667,34.667c-0.419,19.179,16.118,34.261,34.667,34.666c19.178,0.42,34.261-16.117,34.667-34.666
				C162.7,181.058,155.7,181.067,155.601,185.574z"/>
		</g>
	</g>
	<g>
		<g>
			<path style="fill:#FFFFFF;" d="M277.239,156.167c-49.609,0-99.219,0-148.829,0c-11.307,0-22.614,0-33.92,0
				c-7.807,0-16.79-1.12-21.871,6.403c-3.608,5.342-2.786,11.859-2.786,17.982c0,7.391,0,14.783,0,22.174c0,4.656,0,9.312,0,13.968
				c0,7.108-0.888,14.652,3.923,20.559c4.574,5.615,10.773,6.683,17.529,6.683c7.246,0,14.492,0,21.739,0
				c13.458,0,33.93,3.2,36.988-14.958c-1.607,1.224-3.214,2.447-4.821,3.671c23.929,0,47.857,0,71.786,0
				c-1.607-1.224-3.214-2.447-4.821-3.671c3.058,18.158,23.53,14.958,36.988,14.958c7.246,0,14.492,0,21.738,0
				c7.07,0,14.074-1.245,18.311-7.694c3.99-6.074,3.142-13.23,3.142-20.15c0-4.663,0-9.325,0-13.988c0-7.473,0-14.946,0-22.419
				c0-6.182,0.857-13.098-3.567-18.125C285.69,158.063,281.825,156.476,277.239,156.167c-6.44-0.433-6.398,9.569,0,10
				c6.488,0.437,5.095,8.187,5.095,12.674c0,6.787,0,13.573,0,20.36c0,8.813,0,17.625,0,26.438c0,6.778-5.402,8.297-10.895,8.297
				c-6.112,0-12.226,0-18.338,0c-6.39,0-12.778,0-19.168,0c-5.793,0-10.95-0.58-12.136-7.616c-0.364-2.163-2.77-3.671-4.821-3.671
				c-23.929,0-47.857,0-71.786,0c-2.051,0-4.457,1.508-4.821,3.671c-1.356,8.054-7.822,7.616-14.131,7.616
				c-7.675,0-15.351,0-23.026,0c-5.173,0-10.346,0-15.52,0c-9.189,0-7.86-10.264-7.86-16.486c0-11.697,0-23.394,0-35.091
				c0-4.568-1.858-14.065,3.741-16.009c1.47-0.511,3.61-0.182,5.113-0.182c54.582,0,109.163,0,163.744,0c8.27,0,16.539,0,24.809,0
				C283.688,166.167,283.688,156.167,277.239,156.167z"/>
		</g>
	</g>
	<g>
		<g>
			<g>
				<path style="fill:#FFFFFF;" d="M164.688,207.93c3.094,0,6.187,0,9.281,0c4.514,0,4.514-7,0-7c-3.094,0-6.187,0-9.281,0
					C160.174,200.93,160.174,207.93,164.688,207.93L164.688,207.93z"/>
			</g>
		</g>
		<g>
			<g>
				<path style="fill:#FFFFFF;" d="M187.688,207.93c3.094,0,6.188,0,9.281,0c4.514,0,4.514-7,0-7c-3.094,0-6.188,0-9.281,0
					C183.174,200.93,183.174,207.93,187.688,207.93L187.688,207.93z"/>
			</g>
		</g>
	</g>
	<g>
		<g>
			<g>
				<path style="fill:#FFFFFF;" d="M229.981,189.58c0.105-1.005,1.377-0.867-0.113-0.869c-0.856-0.001-1.714-0.002-2.57-0.003
					c-0.287,0-0.575,0-0.862-0.001c-0.564,0-0.258-0.11,0.199,0.253c0.415,0.33,0.227,0.951,0.227-0.058
					c0.001-0.344,0.001-0.688,0.001-1.032c-0.001,1.002-1.439,0.869,0.112,0.871c0.857,0,1.714,0.001,2.571,0.002
					c0.287,0,0.575,0,0.862,0.001c0.565,0,0.257,0.11-0.199-0.252c-0.415-0.331-0.227-0.953-0.227,0.057
					C229.981,188.893,229.981,189.236,229.981,189.58c-0.003,4.515,6.997,4.514,7,0c0.001-2.062-0.066-3.982-1.489-5.648
					c-1.461-1.709-3.469-2.187-5.617-2.188c-1.26-0.001-2.519-0.002-3.778-0.003c-3.604-0.003-5.882,2.783-6.234,6.13
					c-0.486,4.619,2.523,7.833,7.106,7.838c1.259,0.001,2.519,0.003,3.777,0.004c3.604,0.004,5.883-2.785,6.235-6.132
					c0.2-1.901-1.743-3.5-3.5-3.5C231.423,186.08,230.181,187.684,229.981,189.58z"/>
			</g>
		</g>
		<g>
			<g>
				<path style="fill:#FFFFFF;" d="M258,189.596c0.106-1.006,1.378-0.867-0.112-0.869c-0.857-0.001-1.714-0.002-2.571-0.003
					c-0.287,0-0.574,0-0.862-0.001c-0.565,0-0.257-0.11,0.199,0.253c0.415,0.33,0.227,0.951,0.227-0.058
					c0.001-0.344,0.001-0.688,0.001-1.032c-0.001,1.002-1.439,0.869,0.112,0.87c0.857,0,1.714,0.001,2.571,0.001
					c0.287,0,0.574,0.001,0.862,0.001c0.566,0,0.255,0.11-0.2-0.251c-0.415-0.331-0.227-0.95-0.227,0.058
					C258,188.908,258,189.252,258,189.596c0,4.514,7,4.514,7,0c0-2.062-0.066-3.982-1.49-5.648c-1.46-1.71-3.468-2.188-5.616-2.19
					c-1.26,0-2.519-0.001-3.778-0.002c-3.605-0.002-5.88,2.784-6.234,6.131c-0.489,4.619,2.525,7.833,7.106,7.838
					c1.26,0.001,2.519,0.003,3.778,0.004c3.605,0.004,5.881-2.786,6.234-6.132c0.201-1.901-1.744-3.5-3.5-3.5
					C259.44,186.096,258.2,187.699,258,189.596z"/>
			</g>
		</g>
		<g>
			<g>
				<path style="fill:#FFFFFF;" d="M235.646,212.42c0.105-1.005,1.378-0.867-0.112-0.869c-0.856-0.001-1.714-0.002-2.57-0.003
					c-0.287,0-0.575,0-0.862-0.001c-0.564,0-0.257-0.11,0.198,0.252c0.416,0.331,0.228,0.95,0.228-0.058
					c0.001-0.344,0.001-0.688,0.001-1.031c-0.001,1.002-1.439,0.868,0.112,0.87c0.856,0,1.714,0.001,2.57,0.002
					c0.287,0,0.575,0,0.862,0.001c0.564,0,0.257,0.11-0.199-0.253c-0.415-0.33-0.227-0.949-0.227,0.059
					C235.646,211.732,235.646,212.076,235.646,212.42c-0.003,4.515,6.997,4.514,7,0c0.001-2.062-0.065-3.983-1.489-5.649
					c-1.46-1.709-3.469-2.187-5.617-2.188c-1.259-0.001-2.519-0.002-3.777-0.003c-3.605-0.003-5.88,2.784-6.234,6.131
					c-0.488,4.619,2.525,7.833,7.106,7.838c1.259,0.001,2.519,0.003,3.777,0.004c3.604,0.004,5.882-2.786,6.234-6.132
					c0.2-1.901-1.743-3.5-3.5-3.5C237.087,208.92,235.845,210.523,235.646,212.42z"/>
			</g>
		</g>
		<g>
			<g>
				<path style="fill:#FFFFFF;" d="M263.664,212.436c0.105-1.006,1.378-0.868-0.112-0.87c-0.857,0-1.714-0.001-2.571-0.002
					c-0.287,0-0.574,0-0.862-0.001c-0.565,0-0.256-0.11,0.199,0.252c0.415,0.33,0.227,0.952,0.228-0.058
					c0-0.344,0.001-0.688,0.001-1.031c-0.001,1.001-1.439,0.867,0.112,0.869c0.857,0.001,1.714,0.002,2.571,0.003
					c0.287,0,0.575,0,0.862,0.001c0.565,0,0.257,0.11-0.199-0.253c-0.415-0.33-0.227-0.95-0.228,0.059
					C263.665,211.748,263.664,212.092,263.664,212.436c-0.005,4.515,6.995,4.514,7,0c0.002-2.062-0.064-3.983-1.488-5.649
					c-1.461-1.709-3.469-2.187-5.617-2.188c-1.26-0.001-2.519-0.003-3.778-0.004c-3.604-0.004-5.882,2.787-6.234,6.132
					c-0.486,4.617,2.522,7.834,7.105,7.838c1.26,0.001,2.519,0.002,3.778,0.003c3.604,0.003,5.882-2.783,6.234-6.131
					c0.2-1.901-1.743-3.5-3.5-3.5C265.105,208.936,263.863,210.539,263.664,212.436z"/>
			</g>
		</g>
	</g>
	<g>
		<g>
			<path style="fill:#FFFFFF;" d="M73.11,73.321c1.618,31.434,33.114,48.865,61.863,48.163c4.506-0.11,4.517-7.11,0-7
				c-24.677,0.603-53.444-13.589-54.863-41.163C79.879,68.83,72.878,68.808,73.11,73.321L73.11,73.321z"/>
		</g>
	</g>
	<g>
		<g>
			<path style="fill:#FFFFFF;" d="M185.314,158.5c0.37-26.311-24.37-42.884-48.527-44c-4.515-0.208-4.494,6.792,0,7
				c20.386,0.941,41.841,14.638,41.527,37C178.251,163.016,185.251,163.01,185.314,158.5L185.314,158.5z"/>
		</g>
	</g>
	<g>
		<g>
			<path style="fill:#FFFFFF;" d="M129.523,189.219c-2.451,0-4.902,0-7.354,0c1.167,1.167,2.333,2.333,3.5,3.5
				c0-2.874,0.179-5.797-0.15-8.653c-0.606-5.266-5.331-7.87-10.191-7.87c-5.3,0-9.173,1.685-11.051,6.939
				c-0.984,2.753-0.275,6.726-0.275,9.584c1.167-1.167,2.333-2.333,3.5-3.5c-2.874,0-5.796-0.18-8.653,0.149
				c-5.266,0.606-7.87,5.331-7.87,10.19c0,5.3,1.685,9.174,6.939,11.052c2.753,0.983,6.726,0.274,9.584,0.274
				c-1.167-1.167-2.333-2.333-3.5-3.5c0,2.874-0.179,5.797,0.15,8.653c0.606,5.266,5.331,7.87,10.191,7.87
				c5.3,0,9.173-1.686,11.051-6.939c0.984-2.753,0.275-6.726,0.275-9.584c-1.167,1.167-2.333,2.333-3.5,3.5
				c5.952,0,11.822,0.827,15.469-4.91c1.388-2.183,1.663-7.345,0.779-9.817C136.883,191.862,134.015,189.736,129.523,189.219
				c-4.48-0.516-4.43,6.49,0,7c3.506,0.403,2.877,7.666-0.545,7.666c-2.27,0-4.539,0-6.809,0c-1.908,0-3.5,1.592-3.5,3.5
				c0,3.082,1.396,9.523-3.341,9.523c-5.684,0-4.326-5.422-4.326-9.523c0-1.908-1.592-3.5-3.5-3.5c-3.083,0-9.523,1.396-9.523-3.341
				c0-5.683,5.422-4.325,9.523-4.325c1.908,0,3.5-1.592,3.5-3.5c0-3.082-1.396-9.523,3.341-9.523c5.684,0,4.326,5.422,4.326,9.523
				c0,1.908,1.592,3.5,3.5,3.5c2.451,0,4.902,0,7.354,0C134.037,196.219,134.037,189.219,129.523,189.219z"/>
		</g>
	</g>
</g>
<g id="Ebene_1">
</g>
</svg>
