<?xml version="1.0" encoding="iso-8859-1"?>
<!-- Generator: Adobe Illustrator 16.0.0, SVG Export Plug-In . SVG Version: 6.00 Build 0)  -->
<!DOCTYPE svg PUBLIC "-//W3C//DTD SVG 1.1//EN" "http://www.w3.org/Graphics/SVG/1.1/DTD/svg11.dtd">
<svg version="1.1" xmlns="http://www.w3.org/2000/svg" xmlns:xlink="http://www.w3.org/1999/xlink" x="0px" y="0px" width="361px"
	 height="361px" viewBox="0 0 361 361" style="enable-background:new 0 0 361 361;" xml:space="preserve">
<g id="scene_x5F_deckchair">
	<g style="display:none;">
		<g style="display:inline;">
			<g>
				<path style="fill:#FFFFFF;" d="M120.65,193.144c-13.083-19.083-26.167-38.167-39.25-57.25
					c-3.622-5.282-12.292-0.288-8.635,5.047c13.083,19.083,26.167,38.167,39.25,57.25
					C115.637,203.473,124.308,198.478,120.65,193.144L120.65,193.144z"/>
			</g>
		</g>
		<g style="display:inline;">
			<g>
				<path style="fill:#FFFFFF;" d="M115.358,193.192c-10.333,10.666-20.667,21.333-31,32c-3.141,3.242,1.805,8.196,4.95,4.949
					c10.333-10.666,20.667-21.333,31-32C123.449,194.899,118.503,189.945,115.358,193.192L115.358,193.192z"/>
			</g>
		</g>
		<g style="display:inline;">
			<g>
				<path style="fill:#FFFFFF;" d="M262.561,197.434c6.917,10.667,13.834,21.333,20.75,32c2.446,3.771,8.509,0.267,6.045-3.533
					c-6.917-10.667-13.834-21.333-20.75-32C266.159,190.129,260.097,193.634,262.561,197.434L262.561,197.434z"/>
			</g>
		</g>
		<g style="display:inline;">
			<g>
				<path style="fill:#FFFFFF;" d="M117.833,200.667c49.805,0,99.609,0,149.414,0c6.362,0,12.724,0,19.086,0c6.448,0,6.448-10,0-10
					c-49.805,0-99.609,0-149.415,0c-6.362,0-12.724,0-19.085,0C111.384,190.667,111.384,200.667,117.833,200.667L117.833,200.667z"
					/>
			</g>
		</g>
	</g>
	<g style="display:none;">
		<g style="display:inline;">
			<g>
				<path style="fill:#FFFFFF;" d="M125.259,182.9c-11.551-16.849-23.103-33.698-34.654-50.547
					c-2.535-3.697-8.604-0.201-6.044,3.533c11.551,16.849,23.103,33.698,34.654,50.547C121.75,190.131,127.82,186.635,125.259,182.9
					L125.259,182.9z"/>
			</g>
		</g>
		<g style="display:inline;">
			<g>
				<path style="fill:#FFFFFF;" d="M123.562,188.167c49.235,0,98.47,0,147.705,0c3.938,0,7.878,0,11.816,0c4.514,0,4.514-7,0-7
					c-49.235,0-98.47,0-147.705,0c-3.939,0-7.877,0-11.816,0C119.048,181.167,119.048,188.167,123.562,188.167L123.562,188.167z"/>
			</g>
		</g>
	</g>
	<g>
		<g>
			<g>
				<path style="fill:#FFFFFF;" d="M120.65,193.144c-13.083-19.083-26.167-38.167-39.25-57.25
					c-3.622-5.282-12.292-0.288-8.635,5.047c13.083,19.083,26.167,38.167,39.25,57.25
					C115.637,203.473,124.308,198.478,120.65,193.144L120.65,193.144z"/>
			</g>
		</g>
		<g>
			<g>
				<path style="fill:#FFFFFF;" d="M115.358,193.192c-10.333,10.666-20.667,21.333-31,32c-3.141,3.242,1.805,8.196,4.95,4.949
					c10.333-10.666,20.667-21.333,31-32C123.449,194.899,118.503,189.945,115.358,193.192L115.358,193.192z"/>
			</g>
		</g>
		<g>
			<g>
				<path style="fill:#FFFFFF;" d="M262.561,197.434c6.917,10.667,13.834,21.333,20.75,32c2.446,3.771,8.509,0.267,6.045-3.533
					c-6.917-10.667-13.834-21.333-20.75-32C266.159,190.129,260.097,193.634,262.561,197.434L262.561,197.434z"/>
			</g>
		</g>
		<path style="fill:#FFFFFF;" d="M191.796,200.667c31.513,0,63.024,0,94.537,0c6.448,0,6.448-10,0-10c-31.513,0-63.024,0-94.537,0
			V200.667L191.796,200.667z"/>
		<path style="fill:#FFFFFF;" d="M117.833,200.667c8.083,0,15.052,0,23.136,0l-2.546-10c-8.083,0-12.506,0-20.59,0
			C111.384,190.667,111.384,200.667,117.833,200.667L117.833,200.667z"/>
	</g>
	<g>
		<g>
			<g>
				<path style="fill:#FFFFFF;" d="M125.259,182.9c-11.551-16.849-23.103-33.698-34.654-50.547
					c-2.535-3.697-8.604-0.201-6.044,3.533c11.551,16.849,23.103,33.698,34.654,50.547C121.75,190.131,127.82,186.635,125.259,182.9
					L125.259,182.9z"/>
			</g>
		</g>
		<path style="fill:#FFFFFF;" d="M188.796,188.167c31.429,0,62.858,0,94.287,0c4.515,0,4.515-7,0-7c-31.429,0-62.858,0-94.287,0
			V188.167L188.796,188.167z"/>
		<path style="fill:#FFFFFF;" d="M123.562,188.167c4.674,0,18.695,0,14.021,0c-0.458,0-3.06-7-3.06-7c-4.674,0-6.287,0-10.961,0
			C119.048,181.167,119.048,188.167,123.562,188.167L123.562,188.167z"/>
	</g>
	<g>
		<g>
			<path style="fill:#FFFFFF;" d="M192.857,221.238c-16.094,0-32.188,0-48.282,0c0.5,0.5,1,1,1.5,1.5
				c-1.065-8.489-2.13-16.979-3.195-25.469c-0.811-6.464-4.919-12.417-7.724-18.232c-0.432,0.752-0.864,1.504-1.295,2.257
				c7.396-0.78,15.644-2.307,23.099-1.74c10.057,0.764,20.113,1.528,30.169,2.292c-0.482-0.367-0.964-0.734-1.446-1.101
				c1.608,4.558,3.68,8.94,5.091,13.571c0.77,2.53,0.455,5.459,0.485,8.067c0.078,6.784,0.093,13.57,0.099,20.355
				c0.002,1.935,3.002,1.935,3,0c-0.006-6.785-0.028-13.571-0.099-20.355c-0.027-2.642,0.145-5.4-0.368-8.006
				c-0.98-4.979-3.634-9.666-5.315-14.43c-0.237-0.674-0.735-1.047-1.446-1.101c-9.831-0.747-19.661-1.494-29.491-2.241
				c-7.761-0.589-16.054,0.875-23.777,1.689c-1.167,0.123-1.82,1.169-1.295,2.257c1.691,3.506,3.382,7.011,5.072,10.517
				c0.698,1.446,1.396,2.894,2.094,4.341c-0.626-1.298,0.137,1.771,0.226,2.48c1.039,8.283,2.078,16.566,3.117,24.85
				c0.102,0.812,0.605,1.5,1.5,1.5c16.094,0,32.188,0,48.282,0C194.792,224.238,194.792,221.238,192.857,221.238z"/>
		</g>
	</g>
</g>
<g id="Ebene_1">
</g>
</svg>
