<?xml version="1.0" encoding="iso-8859-1"?>
<!-- Generator: Adobe Illustrator 24.0.1, SVG Export Plug-In . SVG Version: 6.00 Build 0)  -->
<svg version="1.1" xmlns="http://www.w3.org/2000/svg" xmlns:xlink="http://www.w3.org/1999/xlink" x="0px" y="0px"
	 viewBox="0 0 361 361" style="enable-background:new 0 0 361 361;" xml:space="preserve">
<g id="scene_x5F_firewood">
	<g>
		<g>
			<path style="fill:#FFFFFF;" d="M85.978,79.693c0,23.346,0,46.693,0,70.039c0,37.037,0,74.074,0,111.11c0,8.561,0,17.122,0,25.683
				c0,6.435,10,6.445,10,0c0-23.346,0-46.693,0-70.039c0-37.037,0-74.074,0-111.11c0-8.561,0-17.122,0-25.683
				C95.978,73.258,85.978,73.248,85.978,79.693L85.978,79.693z"/>
		</g>
	</g>
	<g>
		<g>
			<path style="fill:#FFFFFF;" d="M257.833,79.693c0,23.346,0,46.693,0,70.039c0,37.037,0,74.074,0,111.11
				c0,8.561,0,17.122,0,25.683c0,6.435,10,6.445,10,0c0-23.346,0-46.693,0-70.039c0-37.037,0-74.074,0-111.11
				c0-8.561,0-17.122,0-25.683C267.833,73.258,257.833,73.248,257.833,79.693L257.833,79.693z"/>
		</g>
	</g>
	<g>
		<g>
			<path style="fill:#FFFFFF;" d="M262.833,80.849c-19.17,0-38.341,0-57.511,0c-30.767,0-61.533,0-92.3,0
				c-7.052,0-14.105,0-21.157,0c-6.435,0-6.445,10,0,10c19.17,0,38.341,0,57.511,0c30.767,0,61.533,0,92.3,0
				c7.052,0,14.105,0,21.157,0C269.268,90.849,269.278,80.849,262.833,80.849L262.833,80.849z"/>
		</g>
	</g>
	<g>
		<path style="fill:none;stroke:#FFFFFF;stroke-width:3;stroke-linejoin:round;stroke-miterlimit:10;" d="M145.456,273.449
			c7.31,0.273,13.497,7.792,13.497,12.447l0,4.448l-30.06-0.766l0-4.352c0-3.889,6.546-12.075,10.26-12.148
			C141.695,273.028,142.915,273.354,145.456,273.449z"/>
		<path style="fill:none;stroke:#FFFFFF;stroke-width:3;stroke-linejoin:round;stroke-miterlimit:10;" d="M144.91,279.395
			c4.703,0.175,8.683,5.013,8.683,8.007l0,2.861l-19.338-0.493l0-2.8c0-2.502,4.211-7.768,6.601-7.815
			C142.49,279.124,143.275,279.334,144.91,279.395z"/>
		<path style="fill:none;stroke:#FFFFFF;stroke-width:3;stroke-linejoin:round;stroke-miterlimit:10;" d="M143.153,284.303
			c2.129,0.079,3.93,2.269,3.93,3.624l0,1.295l-8.753-0.223l0-1.267c0-1.132,1.906-3.516,2.987-3.537
			C142.058,284.181,142.413,284.276,143.153,284.303z"/>
	</g>
	<g>
		<path style="fill:none;stroke:#FFFFFF;stroke-width:3;stroke-linejoin:round;stroke-miterlimit:10;" d="M175.018,290.144
			c-6.346-0.245-11.717-7.015-11.717-11.206l0-4.004l26.095,0.69l0,3.918c0,3.501-5.682,10.871-8.907,10.937
			C178.283,290.523,177.224,290.229,175.018,290.144z"/>
		<path style="fill:none;stroke:#FFFFFF;stroke-width:3;stroke-linejoin:round;stroke-miterlimit:10;" d="M175.493,284.791
			c-4.082-0.158-7.538-4.513-7.538-7.209l0-2.576l16.788,0.444l0,2.521c0,2.252-3.656,6.993-5.73,7.036
			C177.593,285.035,176.912,284.846,175.493,284.791z"/>
		<path style="fill:none;stroke:#FFFFFF;stroke-width:3;stroke-linejoin:round;stroke-miterlimit:10;" d="M177.018,280.372
			c-1.848-0.071-3.412-2.043-3.412-3.263l0-1.166l7.598,0.201l0,1.141c0,1.019-1.655,3.165-2.593,3.184
			C177.968,280.482,177.66,280.396,177.018,280.372z"/>
	</g>
	<g>
		<path style="fill:none;stroke:#FFFFFF;stroke-width:3;stroke-linejoin:round;stroke-miterlimit:10;" d="M145.456,273.449
			c7.31,0.273,13.497,7.792,13.497,12.447l0,4.448l-30.06-0.766l0-4.352c0-3.889,6.546-12.075,10.26-12.148
			C141.695,273.028,142.915,273.354,145.456,273.449z"/>
		<path style="fill:none;stroke:#FFFFFF;stroke-width:3;stroke-linejoin:round;stroke-miterlimit:10;" d="M144.91,279.395
			c4.703,0.175,8.683,5.013,8.683,8.007l0,2.861l-19.338-0.493l0-2.8c0-2.502,4.211-7.768,6.601-7.815
			C142.49,279.124,143.275,279.334,144.91,279.395z"/>
		<path style="fill:none;stroke:#FFFFFF;stroke-width:3;stroke-linejoin:round;stroke-miterlimit:10;" d="M143.153,284.303
			c2.129,0.079,3.93,2.269,3.93,3.624l0,1.295l-8.753-0.223l0-1.267c0-1.132,1.906-3.516,2.987-3.537
			C142.058,284.181,142.413,284.276,143.153,284.303z"/>
	</g>
	<g>
		<path style="fill:none;stroke:#FFFFFF;stroke-width:3;stroke-linejoin:round;stroke-miterlimit:10;" d="M102.175,284.085
			c-5.03-5.311-4.186-15.012-0.929-18.336l3.113-3.177l20.934,21.586l-3.046,3.109c-2.722,2.778-13.126,4.043-15.83,1.495
			C104.566,287.019,103.923,285.931,102.175,284.085z"/>
		<path style="fill:none;stroke:#FFFFFF;stroke-width:3;stroke-linejoin:round;stroke-miterlimit:10;" d="M106.727,280.221
			c-3.236-3.417-2.693-9.657-0.597-11.796l2.003-2.044l13.467,13.887l-1.959,2c-1.751,1.787-8.444,2.601-10.184,0.962
			C108.265,282.108,107.852,281.409,106.727,280.221z"/>
		<path style="fill:none;stroke:#FFFFFF;stroke-width:3;stroke-linejoin:round;stroke-miterlimit:10;" d="M111.417,277.945
			c-1.465-1.546-1.219-4.371-0.27-5.339l0.906-0.925l6.095,6.285l-0.887,0.905c-0.793,0.809-3.822,1.177-4.609,0.435
			C112.113,278.799,111.926,278.482,111.417,277.945z"/>
	</g>
	<g>
		
			<ellipse style="fill:none;stroke:#FFFFFF;stroke-width:3;stroke-linejoin:round;stroke-miterlimit:10;" cx="127.569" cy="258.662" rx="14.851" ry="13.633"/>
		
			<ellipse style="fill:none;stroke:#FFFFFF;stroke-width:3;stroke-linejoin:round;stroke-miterlimit:10;" cx="126.76" cy="258.534" rx="8.42" ry="7.73"/>
		
			<ellipse style="fill:none;stroke:#FFFFFF;stroke-width:3;stroke-linejoin:round;stroke-miterlimit:10;" cx="126.996" cy="258.534" rx="3.116" ry="2.861"/>
	</g>
	<g>
		<path style="fill:none;stroke:#FFFFFF;stroke-width:3;stroke-linejoin:round;stroke-miterlimit:10;" d="M161.223,261.093
			c2.768,4.186,1.044,10.641-1.552,12.5l-2.481,1.776l-11.579-17.074l2.427-1.738c2.169-1.553,9.35-1.171,10.874,0.871
			C159.956,258.827,160.261,259.638,161.223,261.093z"/>
		<path style="fill:none;stroke:#FFFFFF;stroke-width:3;stroke-linejoin:round;stroke-miterlimit:10;" d="M156.753,263.018
			c1.619,2.449,0.611,6.225-0.908,7.313l-1.452,1.039l-6.774-9.989l1.42-1.017c1.269-0.909,5.47-0.685,6.362,0.51
			C156.012,261.692,156.191,262.166,156.753,263.018z"/>
	</g>
	<g>
		<path style="fill:none;stroke:#FFFFFF;stroke-width:3;stroke-linejoin:round;stroke-miterlimit:10;" d="M182.423,252.737
			c4.314,4.661,3.324,13.245,0.361,16.209l-2.832,2.831l-18.811-16.293c0,0,2.441-4.548,3.617-5.418
			c2.814-2.083,11.705-3.669,14.031-1.435C180.383,250.16,180.924,251.117,182.423,252.737z"/>
		<path style="fill:none;stroke:#FFFFFF;stroke-width:3;stroke-linejoin:round;stroke-miterlimit:10;" d="M178.302,256.186
			c2.775,2.998,2.139,8.521,0.232,10.427l-1.952,2.244l-12.973-11.236l3.328-3.154c1.593-1.593,7.53-2.36,9.027-0.923
			C176.99,254.529,177.338,255.144,178.302,256.186z"/>
		<path style="fill:none;stroke:#FFFFFF;stroke-width:3;stroke-linejoin:round;stroke-miterlimit:10;" d="M174.099,258.233
			c1.256,1.357,0.968,3.857,0.105,4.72l-1.818,1.912l-6.15-5.202l2.719-2.207c0.721-0.721,3.408-1.068,4.086-0.418
			C173.505,257.483,173.663,257.761,174.099,258.233z"/>
	</g>
	<g>
		<path style="fill:none;stroke:#FFFFFF;stroke-width:3;stroke-linejoin:round;stroke-miterlimit:10;" d="M239.583,242.369
			c0.263-7.31,7.774-13.507,12.429-13.514l4.448-0.006l-0.726,30.061l-4.352,0.006c-3.889,0.005-12.083-6.53-12.161-10.244
			C239.167,246.131,239.492,244.91,239.583,242.369z"/>
		<path style="fill:none;stroke:#FFFFFF;stroke-width:3;stroke-linejoin:round;stroke-miterlimit:10;" d="M245.53,242.908
			c0.169-4.703,5.001-8.69,7.996-8.694l2.861-0.004l-0.467,19.339l-2.8,0.004c-2.502,0.003-7.773-4.201-7.824-6.59
			C245.262,245.328,245.471,244.543,245.53,242.908z"/>
		<path style="fill:none;stroke:#FFFFFF;stroke-width:3;stroke-linejoin:round;stroke-miterlimit:10;" d="M250.441,244.658
			c0.077-2.129,2.264-3.933,3.619-3.935l1.295-0.002l-0.211,8.753l-1.267,0.002c-1.132,0.002-3.518-1.901-3.541-2.983
			C250.319,245.753,250.414,245.398,250.441,244.658z"/>
	</g>
	<g>
		<path style="fill:none;stroke:#FFFFFF;stroke-width:3;stroke-linejoin:round;stroke-miterlimit:10;" d="M256.238,212.785
			c-0.237,6.346-6.999,11.726-11.19,11.732l-4.004,0.005l0.655-26.096l3.918-0.006c3.501-0.005,10.878,5.668,10.949,8.892
			C256.613,209.519,256.321,210.579,256.238,212.785z"/>
		<path style="fill:none;stroke:#FFFFFF;stroke-width:3;stroke-linejoin:round;stroke-miterlimit:10;" d="M250.885,212.318
			c-0.152,4.083-4.503,7.544-7.199,7.547l-2.576,0.003l0.421-16.788l2.521-0.004c2.252-0.003,6.998,3.646,7.044,5.72
			C251.126,210.217,250.938,210.898,250.885,212.318z"/>
		<path style="fill:none;stroke:#FFFFFF;stroke-width:3;stroke-linejoin:round;stroke-miterlimit:10;" d="M246.464,210.799
			c-0.069,1.848-2.038,3.414-3.258,3.416l-1.166,0.002l0.191-7.598l1.141-0.002c1.019-0.001,3.167,1.65,3.188,2.589
			C246.573,209.848,246.488,210.156,246.464,210.799z"/>
	</g>
	<g>
		<path style="fill:none;stroke:#FFFFFF;stroke-width:3;stroke-linejoin:round;stroke-miterlimit:10;" d="M239.583,242.369
			c0.263-7.31,7.774-13.507,12.429-13.514l4.448-0.006l-0.726,30.061l-4.352,0.006c-3.889,0.005-12.083-6.53-12.161-10.244
			C239.167,246.131,239.492,244.91,239.583,242.369z"/>
		<path style="fill:none;stroke:#FFFFFF;stroke-width:3;stroke-linejoin:round;stroke-miterlimit:10;" d="M245.53,242.908
			c0.169-4.703,5.001-8.69,7.996-8.694l2.861-0.004l-0.467,19.339l-2.8,0.004c-2.502,0.003-7.773-4.201-7.824-6.59
			C245.262,245.328,245.471,244.543,245.53,242.908z"/>
		<path style="fill:none;stroke:#FFFFFF;stroke-width:3;stroke-linejoin:round;stroke-miterlimit:10;" d="M250.441,244.658
			c0.077-2.129,2.264-3.933,3.619-3.935l1.295-0.002l-0.211,8.753l-1.267,0.002c-1.132,0.002-3.518-1.901-3.541-2.983
			C250.319,245.753,250.414,245.398,250.441,244.658z"/>
	</g>
	<g>
		<path style="fill:none;stroke:#FFFFFF;stroke-width:3;stroke-linejoin:round;stroke-miterlimit:10;" d="M250.277,285.637
			c-5.304,5.038-15.006,4.206-18.335,0.953l-3.181-3.109l21.558-20.963l3.113,3.041c2.781,2.718,4.06,13.121,1.517,15.828
			C253.208,283.241,252.121,283.886,250.277,285.637z"/>
		<path style="fill:none;stroke:#FFFFFF;stroke-width:3;stroke-linejoin:round;stroke-miterlimit:10;" d="M246.407,281.09
			c-3.412,3.241-9.654,2.706-11.796,0.613l-2.046-2l13.869-13.486l2.002,1.957c1.789,1.749,2.612,8.441,0.976,10.183
			C248.292,279.549,247.593,279.963,246.407,281.09z"/>
		<path style="fill:none;stroke:#FFFFFF;stroke-width:3;stroke-linejoin:round;stroke-miterlimit:10;" d="M244.125,276.403
			c-1.544,1.467-4.369,1.225-5.339,0.278l-0.926-0.905l6.277-6.104l0.906,0.886c0.81,0.791,1.182,3.82,0.442,4.609
			C244.978,275.705,244.661,275.893,244.125,276.403z"/>
	</g>
	<g>
		
			<ellipse transform="matrix(1 -0.0013 0.0013 1 -0.3469 0.3029)" style="fill:none;stroke:#FFFFFF;stroke-width:3;stroke-linejoin:round;stroke-miterlimit:10;" cx="226.236" cy="259.397" rx="12.216" ry="12.974"/>
		
			<ellipse transform="matrix(1 -0.0013 0.0013 1 -0.3478 0.3028)" style="fill:none;stroke:#FFFFFF;stroke-width:3;stroke-linejoin:round;stroke-miterlimit:10;" cx="226.121" cy="260.104" rx="6.926" ry="7.356"/>
		
			<ellipse transform="matrix(1 -0.0013 0.0013 1 -0.3476 0.3028)" style="fill:none;stroke:#FFFFFF;stroke-width:3;stroke-linejoin:round;stroke-miterlimit:10;" cx="226.121" cy="259.898" rx="2.563" ry="2.722"/>
	</g>
	<g>
		<path style="fill:none;stroke:#FFFFFF;stroke-width:3;stroke-linejoin:round;stroke-miterlimit:10;" d="M226.206,228.619
			c4.183-2.773,10.639-1.058,12.502,1.535l1.78,2.479l-17.058,11.602l-1.742-2.425c-1.556-2.167-1.184-9.348,0.857-10.875
			C223.942,229.889,224.752,229.583,226.206,228.619z"/>
		<path style="fill:none;stroke:#FFFFFF;stroke-width:3;stroke-linejoin:round;stroke-miterlimit:10;" d="M228.137,233.086
			c2.447-1.623,6.225-0.619,7.314,0.898l1.041,1.45l-9.98,6.788l-1.019-1.419c-0.91-1.268-0.693-5.469,0.501-6.363
			C226.812,233.829,227.286,233.65,228.137,233.086z"/>
	</g>
	<g>
		<path style="fill:none;stroke:#FFFFFF;stroke-width:3;stroke-linejoin:round;stroke-miterlimit:10;" d="M213.049,212.692
			c4.655-4.32,13.241-3.342,16.208-0.383l2.835,2.828l-16.267,18.833c0,0-4.551-2.435-5.423-3.609
			c-2.087-2.811-3.684-11.7-1.454-14.029C210.474,214.736,211.431,214.194,213.049,212.692z"/>
		<path style="fill:none;stroke:#FFFFFF;stroke-width:3;stroke-linejoin:round;stroke-miterlimit:10;" d="M216.504,216.809
			c2.995-2.779,8.518-2.15,10.427-0.246l2.247,1.949l-11.219,12.988l-3.158-3.324c-1.595-1.591-2.37-7.527-0.936-9.026
			C214.848,218.124,215.463,217.775,216.504,216.809z"/>
		<path style="fill:none;stroke:#FFFFFF;stroke-width:3;stroke-linejoin:round;stroke-miterlimit:10;" d="M218.556,221.009
			c1.355-1.258,3.855-0.973,4.719-0.111l1.914,1.816l-5.194,6.157l-2.21-2.716c-0.722-0.72-1.073-3.407-0.423-4.085
			C217.806,221.604,218.085,221.446,218.556,221.009z"/>
	</g>
	<g>
		<path style="fill:none;stroke:#FFFFFF;stroke-width:3;stroke-linejoin:round;stroke-miterlimit:10;" d="M146.57,232.557
			c5.92,4.298,6.87,13.988,4.278,17.855l-0.452,0.675l-26.565-14.358l2.423-3.615c2.166-3.23,12.161-6.383,15.287-4.375
			C143.681,230.112,144.512,231.063,146.57,232.557z"/>
		<path style="fill:none;stroke:#FFFFFF;stroke-width:3;stroke-linejoin:round;stroke-miterlimit:10;" d="M142.805,237.191
			c3.808,2.765,4.877,9.04,3.209,11.527l-17.446-9.429l1.166-1.74c1.393-2.078,7.824-4.106,9.835-2.815
			C140.946,235.618,141.481,236.23,142.805,237.191z"/>
		<path style="fill:none;stroke:#FFFFFF;stroke-width:3;stroke-linejoin:round;stroke-miterlimit:10;" d="M138.612,240.289
			c1.724,1.251,1.99,5.504,1.99,5.504l-8.431-4.557l0.526-0.784c0.631-0.941,3.541-1.859,4.451-1.274
			C137.771,239.577,138.013,239.854,138.612,240.289z"/>
	</g>
	<g>
		<path style="fill:none;stroke:#FFFFFF;stroke-width:3;stroke-linejoin:round;stroke-miterlimit:10;" d="M244.302,194.24
			c-6.46,2.424-14.72-2.167-16.504-6.409l-1.705-4.053l26.427-10.292l1.668,3.966c1.491,3.544-1.063,13.397-4.264,14.822
			C247.734,193.248,246.548,193.397,244.302,194.24z"/>
		<path style="fill:none;stroke:#FFFFFF;stroke-width:3;stroke-linejoin:round;stroke-miterlimit:10;" d="M242.499,188.621
			c-4.156,1.56-9.47-1.394-10.618-4.123l-1.097-2.608l17.001-6.621l1.073,2.551c0.959,2.28-0.684,8.619-2.743,9.536
			C244.706,187.983,243.943,188.079,242.499,188.621z"/>
		<path style="fill:none;stroke:#FFFFFF;stroke-width:3;stroke-linejoin:round;stroke-miterlimit:10;" d="M242.145,183.505
			c-1.881,0.706-4.286-0.631-4.806-1.866l-0.496-1.18l7.695-2.997l0.486,1.155c0.434,1.032-0.309,3.901-1.242,4.316
			C243.144,183.217,242.798,183.26,242.145,183.505z"/>
	</g>
	<g>
		<path style="fill:none;stroke:#FFFFFF;stroke-width:3;stroke-linejoin:round;stroke-miterlimit:10;" d="M166.139,227.038
			c6.835-2.606,15.469,1.897,17.288,6.182l1.738,4.094l-27.969,11.043l-1.701-4.006c-1.52-3.58,1.306-13.672,4.696-15.191
			C162.512,228.12,163.763,227.944,166.139,227.038z"/>
		<path style="fill:none;stroke:#FFFFFF;stroke-width:3;stroke-linejoin:round;stroke-miterlimit:10;" d="M167.959,232.724
			c4.397-1.677,9.951,1.221,11.122,3.977l1.118,2.634l-17.993,7.105l-1.094-2.577c-0.978-2.303,0.84-8.796,3.021-9.773
			C165.626,233.421,166.431,233.307,167.959,232.724z"/>
		<path style="fill:none;stroke:#FFFFFF;stroke-width:3;stroke-linejoin:round;stroke-miterlimit:10;" d="M168.261,237.929
			c1.99-0.759,4.504,0.552,5.034,1.8l0.506,1.192l-8.144,3.216l-0.495-1.166c-0.443-1.042,0.38-3.981,1.367-4.423
			C167.204,238.244,167.569,238.193,168.261,237.929z"/>
	</g>
	<g>
		<path style="fill:none;stroke:#FFFFFF;stroke-width:3;stroke-linejoin:round;stroke-miterlimit:10;" d="M200.674,285.58
			c-6.866-4.866-7.741-16.58-4.589-21.43l3.012-4.635l28.474,19.639l-2.947,4.535c-2.634,4.053-14.49,8.48-18.122,6.228
			C204.017,288.377,203.061,287.272,200.674,285.58z"/>
		<path style="fill:none;stroke:#FFFFFF;stroke-width:3;stroke-linejoin:round;stroke-miterlimit:10;" d="M205.228,279.727
			c-4.417-3.13-4.98-10.666-2.952-13.787l1.938-2.982l18.318,12.635l-1.896,2.918c-1.694,2.607-9.322,5.455-11.659,4.007
			C207.378,281.526,206.763,280.815,205.228,279.727z"/>
		<path style="fill:none;stroke:#FFFFFF;stroke-width:3;stroke-linejoin:round;stroke-miterlimit:10;" d="M210.246,275.713
			c-1.999-1.417-2.254-4.828-1.336-6.24l0.877-1.35l8.291,5.718l-0.858,1.321c-0.767,1.18-4.219,2.469-5.277,1.814
			C211.22,276.527,210.941,276.205,210.246,275.713z"/>
	</g>
	<g>
		
			<ellipse style="fill:none;stroke:#FFFFFF;stroke-width:3;stroke-linejoin:round;stroke-miterlimit:10;" cx="200.925" cy="243.883" rx="14.851" ry="13.633"/>
		
			<ellipse style="fill:none;stroke:#FFFFFF;stroke-width:3;stroke-linejoin:round;stroke-miterlimit:10;" cx="200.116" cy="243.755" rx="8.42" ry="7.73"/>
		
			<ellipse style="fill:none;stroke:#FFFFFF;stroke-width:3;stroke-linejoin:round;stroke-miterlimit:10;" cx="200.351" cy="243.755" rx="3.116" ry="2.861"/>
	</g>
	<g>
		<path style="fill:none;stroke:#FFFFFF;stroke-width:3;stroke-linejoin:round;stroke-miterlimit:10;" d="M231.465,196.497
			c4.793,1.487,7.547,7.574,6.715,10.657l-0.795,2.946l-19.773-5.881l0.778-2.883c0.695-2.576,6.494-6.827,8.967-6.212
			C229.049,195.546,229.799,195.98,231.465,196.497z"/>
		<path style="fill:none;stroke:#FFFFFF;stroke-width:3;stroke-linejoin:round;stroke-miterlimit:10;" d="M229.225,200.817
			c2.804,0.87,4.415,4.431,3.928,6.235l-0.465,1.724l-11.569-3.441l0.455-1.686c0.407-1.507,3.799-3.994,5.246-3.634
			C227.811,200.26,228.25,200.514,229.225,200.817z"/>
	</g>
	<g>
		<path style="fill:none;stroke:#FFFFFF;stroke-width:3;stroke-linejoin:round;stroke-miterlimit:10;" d="M191.071,228.642
			c-6.241,1.174-12.985-4.229-13.918-8.315l-0.892-3.904l23.802-7.265c0,0,2.553,4.486,2.665,5.944
			c0.267,3.491-3.118,11.863-6.247,12.646C194.339,228.284,193.24,228.233,191.071,228.642z"/>
		<path style="fill:none;stroke:#FFFFFF;stroke-width:3;stroke-linejoin:round;stroke-miterlimit:10;" d="M190.341,223.317
			c-4.015,0.755-8.353-2.721-8.954-5.349l-0.863-2.846l16.415-5.01l0.901,4.495c0.502,2.196-2.006,7.632-4.019,8.135
			C192.444,223.087,191.737,223.055,190.341,223.317z"/>
		<path style="fill:none;stroke:#FFFFFF;stroke-width:3;stroke-linejoin:round;stroke-miterlimit:10;" d="M190.844,218.67
			c-1.817,0.342-3.781-1.231-4.053-2.421l-0.652-2.557l7.676-2.441l0.422,3.476c0.227,0.994-0.908,3.454-1.819,3.682
			C191.795,218.565,191.475,218.551,190.844,218.67z"/>
	</g>
</g>
<g id="Ebene_1">
</g>
</svg>
