<?xml version="1.0" encoding="iso-8859-1"?>
<!-- Generator: Adobe Illustrator 16.0.0, SVG Export Plug-In . SVG Version: 6.00 Build 0)  -->
<!DOCTYPE svg PUBLIC "-//W3C//DTD SVG 1.1//EN" "http://www.w3.org/Graphics/SVG/1.1/DTD/svg11.dtd">
<svg version="1.1" xmlns="http://www.w3.org/2000/svg" xmlns:xlink="http://www.w3.org/1999/xlink" x="0px" y="0px" width="361px"
	 height="361px" viewBox="0 0 361 361" style="enable-background:new 0 0 361 361;" xml:space="preserve">
<g id="scene_x5F_dump_x5F_truck">
	<path style="fill:#FFFFFF;" d="M102.458,200.533h0.047C102.488,200.473,102.472,200.493,102.458,200.533z"/>
	<g>
		<path style="fill:#FFFFFF;" d="M277.784,185.571h-0.012c0.022-0.716-0.134-1.446-0.513-2.114l-19.861-34.842
			c-0.613-1.077-1.652-1.744-2.783-1.949c-0.369-0.097-0.75-0.165-1.15-0.165h-19.467c-2.521,0-4.566,2.045-4.566,4.567v28.683
			c0,0.281-18.18,31.232-18.18,31.232h-66.519c6.976,5.049,11.524,13.243,11.551,22.508l59.264,0.078
			c0.001-15.392,12.478-27.867,27.868-27.867c15.364,0,27.822,12.434,27.865,27.789c5.307-0.404,6.717-2.527,6.717-8.882
			c0,0,0-19.755,0-37.089C277.998,187.125,277.902,186.238,277.784,185.571z M265.787,181.497c-12.588,0-28.211,0-28.211,0
			c-2.103,0-3.805-1.658-3.905-3.735l-0.02,0v-0.191v-6.062v-17.125c0-2.167,1.757-3.926,3.925-3.926h13.923
			c0.344,0,0.671,0.06,0.988,0.142c0.973,0.176,1.865,0.75,2.393,1.675l12.778,22.417h-0.013c0.314,0.556,0.659,1.161,1.026,1.809
			C270.316,179.393,268.24,181.497,265.787,181.497z"/>
		<path style="fill:#FFFFFF;" d="M93.771,212.271c-0.938,1.188-0.782,2.646-0.782,2.646l-0.091,15c0,0-0.064,1.475,0.56,2.332
			c0.833,1.146,2.375,1.318,2.375,1.318h4.717c0-9.297,4.556-17.523,11.552-22.586l-15.77,0.047
			C96.333,211.029,94.721,211.067,93.771,212.271z"/>
	</g>
	<g>
		<g>
			<path style="fill:#FFFFFF;" d="M103.133,233.736c0.464,13.783,10.937,24.255,24.72,24.72c13.774,0.464,24.279-11.636,24.72-24.72
				c0.464-13.774-11.635-24.279-24.72-24.72C114.078,208.553,103.574,220.651,103.133,233.736c-0.217,6.452,9.783,6.431,10,0
				c0.277-8.238,6.481-14.442,14.72-14.72c8.235-0.277,14.456,6.898,14.72,14.72c0.277,8.234-6.899,14.456-14.72,14.72
				c-8.235,0.277-14.456-6.898-14.72-14.72C112.917,227.306,102.916,227.284,103.133,233.736z"/>
		</g>
	</g>
	<g>
		<g>
			<path style="fill:#FFFFFF;" d="M205.833,194.331c-36.111,0-72.222,0-108.333,0c1.607,1.224,3.214,2.447,4.821,3.671
				c-7.333-22.778-14.667-45.556-22-68.333c-1.607,2.11-3.214,4.219-4.821,6.329c49.797,0,99.595,0,149.393,0
				c12.313,0,24.627,0,36.94,0c-0.443-3.274-0.886-6.547-1.329-9.821c-13.667,3.333-27.333,6.667-41,10.001
				c-2.168,0.529-3.649,2.645-3.671,4.821c-0.109,10.982-0.22,21.965-0.329,32.948c-0.02,1.907,1.005-2.493,0.589-1.788
				c-0.396,0.671-0.794,1.341-1.19,2.012c-1.686,2.851-3.371,5.701-5.057,8.551c-2.777,4.695-5.554,9.391-8.33,14.086
				c-3.29,5.563,5.355,10.592,8.635,5.047c2.776-4.695,5.553-9.39,8.33-14.085c2.09-3.534,6.976-9.019,7.02-13.388
				c0.11-11.127,0.222-22.255,0.333-33.383c-1.224,1.607-2.447,3.214-3.671,4.821c13.667-3.333,27.333-6.667,41-10.001
				c5.546-1.353,4.269-9.821-1.329-9.821c-49.798,0-99.595,0-149.393,0c-12.314,0-24.627,0-36.941,0
				c-3.145,0-5.826,3.21-4.821,6.329c7.333,22.778,14.667,45.556,22,68.333c0.686,2.131,2.524,3.671,4.821,3.671
				c36.111,0,72.222,0,108.333,0C212.281,204.331,212.281,194.331,205.833,194.331z"/>
		</g>
	</g>
	<g>
		<g>
			<path style="fill:#FFFFFF;" d="M218.798,233.736c0.465,13.782,10.938,24.254,24.72,24.719
				c13.773,0.464,24.279-11.635,24.72-24.719c0.464-13.775-11.635-24.28-24.72-24.721
				C229.742,208.552,219.238,220.651,218.798,233.736c-0.218,6.452,9.783,6.431,10,0c0.277-8.239,6.48-14.443,14.72-14.721
				c8.235-0.277,14.456,6.899,14.72,14.721c0.277,8.234-6.899,14.455-14.72,14.719c-8.234,0.277-14.456-6.898-14.72-14.719
				C228.581,227.306,218.58,227.284,218.798,233.736z"/>
		</g>
	</g>
	<g>
		<g>
			<path style="fill:#FFFFFF;" d="M102.833,148.831c27.778,0,55.555,0,83.333,0c4.514,0,4.514-7,0-7c-27.778,0-55.555,0-83.333,0
				C98.319,141.831,98.319,148.831,102.833,148.831L102.833,148.831z"/>
		</g>
	</g>
	<g>
		<g>
			<path style="fill:#FFFFFF;" d="M281.5,190.667c0,12.444,0,24.889,0,37.333c0,6.448,10,6.448,10,0c0-12.444,0-24.889,0-37.333
				C291.5,184.219,281.5,184.219,281.5,190.667L281.5,190.667z"/>
		</g>
	</g>
</g>
<g id="Ebene_1">
</g>
</svg>
