<?xml version="1.0" encoding="iso-8859-1"?>
<!-- Generator: Adobe Illustrator 16.0.0, SVG Export Plug-In . SVG Version: 6.00 Build 0)  -->
<!DOCTYPE svg PUBLIC "-//W3C//DTD SVG 1.1 Tiny//EN" "http://www.w3.org/Graphics/SVG/1.1/DTD/svg11-tiny.dtd">
<svg version="1.1" baseProfile="tiny" id="scene_x5F_microwave_x5F_oven"
	 xmlns="http://www.w3.org/2000/svg" xmlns:xlink="http://www.w3.org/1999/xlink" x="0px" y="0px" width="361px" height="361px"
	 viewBox="0 0 361 361" xml:space="preserve">
<g>
	<path fill="#FFFFFF" d="M238.406,260.866c0-48.647,0-97.294,0-145.942c0-2.517,0-5.034,0-7.551c0-6.449-10-6.449-10,0
		c0,48.647,0,97.294,0,145.942c0,2.517,0,5.034,0,7.551C228.406,267.315,238.406,267.315,238.406,260.866L238.406,260.866z"/>
</g>
<g>
	<path fill="#FFFFFF" d="M82.432,255.866c-7.91-0.532-5.186-16.387-5.186-21.503c0-14.593,0-29.187,0-43.779
		c0-24.468,0-48.935,0-73.403c0-7.307,8.537-5.8,13.447-5.8c10.969,0,21.938,0,32.908,0c31.835,0,63.67,0,95.506,0
		c18.101,0,36.202,0,54.303,0c7.789,0,5.193,16.191,5.193,20.83c0,14.487,0,28.975,0,43.462c0,24.744,0,49.488,0,74.232
		c0,7.356-8.011,5.961-13.014,5.961c-10.835,0-21.67,0-32.506,0c-50.208,0-100.416,0-150.623,0
		C82.451,255.866,82.441,255.866,82.432,255.866c-6.449,0-6.449,10,0,10c49.658,0,99.317,0,148.975,0c11.102,0,22.204,0,33.306,0
		c8.689,0,17.717,0.648,22.407-8.698c3.187-6.351,1.483-16.717,1.483-23.49c0-14.695,0-29.391,0-44.086c0-24.185,0-48.369,0-72.553
		c0-8.85-6.593-15.08-15.186-15.658c-1.352-0.091-2.741,0-4.095,0c-9.405,0-18.81,0-28.215,0c-52.567,0-105.134,0-157.701,0
		c-6.304,0-11.797,2.96-14.676,8.697c-1.622,3.232-1.483,6.694-1.483,10.172c0,11.157,0,22.313,0,33.47c0,29.31,0,58.62,0,87.929
		c0,2.853,0,5.706,0,8.559c0,8.85,6.592,15.08,15.186,15.658C88.873,266.3,88.831,256.297,82.432,255.866z"/>
</g>
<g id="buegeleisen_5_" display="none">
	<g display="inline">
		<path fill="#FFFFFF" d="M251.222,282.545c-0.229,2.271-14.502,1-16.25,1c-1.748,0-16.021,1.272-16.25-1
			c-0.854-8.468,0-17.463,0-25.962c0-15.986,0-31.973,0-47.959c0-6.067,0-12.133,0-18.2c0-1.625-0.882-6.161,0.293-7.585
			c0.074-0.09-1.234-0.999,0.46,0.139c-0.136-0.091,1.264,1.149,1.655,1.534c1.772,1.746,3.345,3.713,4.838,5.699
			c4.051,5.388,7.639,11.13,11.136,16.887c5.16,8.495,10.022,17.187,14.636,25.99c0.456,0.871-0.519-3.93-0.519-1.035
			c0,1.707,0,3.413,0,5.119c0,5.852,0,11.704,0,17.555C251.222,263.999,251.222,273.272,251.222,282.545c0,6.449,10,6.449,10,0
			c0-12.158,0-24.316,0-36.474c0-4.99,0-9.98,0-14.97c0-3.185-2.927-6.989-4.371-9.642c-7.63-14.025-15.565-28.286-25.677-40.7
			c-3.882-4.765-9.652-10.675-16.311-7.061c-5.069,2.752-6.141,7.44-6.141,12.654c0,27.693,0,55.386,0,83.08
			c0,8.863-2.157,24.112,11.168,24.112c6.34,0,12.68,0,19.02,0c5.583,0,13.565,1.337,18.202-2.489
			c2.727-2.25,3.764-5.079,4.109-8.511C261.868,276.13,251.862,276.192,251.222,282.545z"/>
	</g>
	<g display="inline">
		<path fill="#FFFFFF" d="M279.314,236.21c0,17.778,0,35.556,0,53.334c0,6.449,10,6.449,10,0c0-17.778,0-35.556,0-53.334
			C289.314,229.762,279.314,229.762,279.314,236.21L279.314,236.21z"/>
	</g>
	<g display="inline">
		<path fill="#FFFFFF" d="M218.565,294.21c21.806,0,43.611,0,65.417,0c6.449,0,6.449-10,0-10c-21.806,0-43.611,0-65.417,0
			C212.116,284.21,212.116,294.21,218.565,294.21L218.565,294.21z"/>
	</g>
	<g display="inline">
		<path fill="#FFFFFF" d="M257.648,239.981c0,6.756,0,13.513,0,20.269c0,4.514,7,4.514,7,0c0-6.756,0-13.513,0-20.269
			C264.648,235.467,257.648,235.467,257.648,239.981L257.648,239.981z"/>
	</g>
</g>
<path fill="none" stroke="#FFFFFF" stroke-miterlimit="10" d="M41.721,124.67"/>
<g>
	<path fill="#FFFFFF" d="M89.192,233.284c1.156,8.606,13.987,5.972,20.149,5.972c14.897,0,29.795,0,44.692,0
		c14.565,0,29.13,0,43.695,0c5.24,0,18.162,2.305,18.162-6.09c0-25.467,0-50.935,0-76.402c0-5.712,0-11.424,0-17.137
		c0-2.172,0.634-6.483-0.815-8.359c-2.306-2.985-4.923-2.958-8.263-2.958c-4.633,0-9.267,0-13.9,0c-29.338,0-58.677,0-88.015,0
		c-5.614,0-15.705-1.823-15.705,6.606c0,10.582,0,21.164,0,31.746C89.192,188.87,89.192,211.077,89.192,233.284c0,1.935,3,1.935,3,0
		c0-24.641,0-49.283,0-73.924c0-6.067,0-12.133,0-18.2c0-2.455-1.192-9.85,2.982-9.85c8.009,0,16.019,0,24.027,0
		c28.541,0,57.082,0,85.622,0c2.377,0,8.066-0.901,8.066,3.09c0,3.019,0,6.037,0,9.056c0,14.604,0,29.208,0,43.813
		c0,13.557,0,27.114,0,40.67c0,2.147,1.014,8.317-3.074,8.317c-2.647,0-5.295,0-7.942,0c-29.152,0-58.305,0-87.457,0
		c-4.72,0-9.439,0-14.159,0c-2.405,0-7.536,0.98-8.066-2.972C91.939,231.396,88.936,231.372,89.192,233.284z"/>
</g>
<g>
	<path fill="#FFFFFF" d="M233.406,245.211c16.732,0,33.465,0,50.197,0c6.449,0,6.449-10,0-10c-16.732,0-33.465,0-50.197,0
		C226.957,235.211,226.957,245.211,233.406,245.211L233.406,245.211z"/>
</g>
<g>
	<path fill="#FFFFFF" d="M261.504,174.378c3.307,0,6.613,0,9.92,0c1.935,0,1.935-3,0-3c-3.307,0-6.613,0-9.92,0
		C259.57,171.378,259.57,174.378,261.504,174.378L261.504,174.378z"/>
</g>
<g>
	<path fill="#FFFFFF" d="M244.21,174.378c3.307,0,6.613,0,9.92,0c1.935,0,1.935-3,0-3c-3.307,0-6.613,0-9.92,0
		C242.275,171.378,242.275,174.378,244.21,174.378L244.21,174.378z"/>
</g>
<g>
	<path fill="#FFFFFF" d="M261.504,181.489c3.307,0,6.613,0,9.92,0c1.935,0,1.935-3,0-3c-3.307,0-6.613,0-9.92,0
		C259.57,178.489,259.57,181.489,261.504,181.489L261.504,181.489z"/>
</g>
<g>
	<path fill="#FFFFFF" d="M244.21,181.489c3.307,0,6.613,0,9.92,0c1.935,0,1.935-3,0-3c-3.307,0-6.613,0-9.92,0
		C242.275,178.489,242.275,181.489,244.21,181.489L244.21,181.489z"/>
</g>
<g>
	<path fill="#FFFFFF" d="M244.21,215.045c3.307,0,6.613,0,9.92,0c1.935,0,1.935-3,0-3c-3.307,0-6.613,0-9.92,0
		C242.275,212.045,242.275,215.045,244.21,215.045L244.21,215.045z"/>
</g>
<g>
	<path fill="#FFFFFF" d="M244.21,195.711c3.307,0,6.613,0,9.92,0c1.935,0,1.935-3,0-3c-3.307,0-6.613,0-9.92,0
		C242.275,192.711,242.275,195.711,244.21,195.711L244.21,195.711z"/>
</g>
<g>
	<path fill="#FFFFFF" d="M261.504,215.045c3.307,0,6.613,0,9.92,0c1.935,0,1.935-3,0-3c-3.307,0-6.613,0-9.92,0
		C259.57,212.045,259.57,215.045,261.504,215.045L261.504,215.045z"/>
</g>
<g>
	<path fill="#FFFFFF" d="M270.542,156.682c-0.529,1.277-5.974,0.515-7.24,0.515c-4.338,0-8.677,0-13.015,0
		c-2.709,0-3.835,0.777-3.835-2.135c0-3.603,0-7.205,0-10.808c0-0.425,18.51-0.209,20.202-0.209c3.368,0,3.835-0.601,3.835,2.907
		c0,3.376,0,6.753,0,10.129c0,1.935,3,1.935,3,0c0-4.045,0-8.09,0-12.136c0-3.587-2.582-3.9-5.466-3.9c-5.382,0-10.764,0-16.146,0
		c-3.34,0-6.882-0.878-8.372,2.717c-0.533,1.286-0.054,3.606-0.054,4.947c0,2.529,0,5.059,0,7.587c0,3.587,2.582,3.901,5.466,3.901
		c5.382,0,10.764,0,16.146,0c3.34,0,6.883,0.878,8.372-2.717C274.175,155.692,271.271,154.921,270.542,156.682z"/>
</g>
<g>
	<path fill="#FFFFFF" d="M193.249,161.881c-5.305,4.071-11.537,7.063-18.079,8.424c-8.644,1.798-17.885-3.119-24.705-7.995
		c-4.123-2.948-8.392-5.585-13.148-7.421c-10.072-3.888-19.329-2.857-29.017,1.641c-4.091,1.899-0.533,7.932,3.533,6.044
		c10.576-4.911,19.97-3.479,29.821,2.226c3.964,2.296,7.471,5.21,11.499,7.429c7.909,4.356,16.45,6.372,25.365,4.518
		c6.463-1.345,13.042-4.814,18.264-8.821C200.311,165.217,196.831,159.132,193.249,161.881L193.249,161.881z"/>
</g>
<g>
	<path fill="#FFFFFF" d="M193.249,181.063c-5.305,4.071-11.537,7.063-18.079,8.424c-8.644,1.798-17.885-3.119-24.705-7.995
		c-4.123-2.948-8.392-5.585-13.148-7.421c-10.072-3.888-19.329-2.857-29.017,1.641c-4.091,1.899-0.533,7.932,3.533,6.044
		c10.576-4.911,19.97-3.479,29.821,2.226c3.964,2.296,7.471,5.21,11.499,7.429c7.909,4.356,16.45,6.372,25.365,4.518
		c6.463-1.345,13.042-4.814,18.264-8.821C200.311,184.399,196.831,178.313,193.249,181.063L193.249,181.063z"/>
</g>
<g>
	<path fill="#FFFFFF" d="M193.249,199.469c-5.305,4.071-11.537,7.063-18.079,8.424c-8.644,1.798-17.885-3.119-24.705-7.995
		c-4.123-2.948-8.392-5.585-13.148-7.421c-10.072-3.888-19.329-2.857-29.017,1.641c-4.091,1.899-0.533,7.932,3.533,6.044
		c10.576-4.911,19.97-3.479,29.821,2.226c3.964,2.296,7.471,5.21,11.499,7.429c7.909,4.356,16.45,6.372,25.365,4.518
		c6.463-1.345,13.042-4.814,18.264-8.821C200.311,202.805,196.831,196.72,193.249,199.469L193.249,199.469z"/>
</g>
</svg>
