<?xml version="1.0" encoding="iso-8859-1"?>
<!-- Generator: Adobe Illustrator 16.0.0, SVG Export Plug-In . SVG Version: 6.00 Build 0)  -->
<!DOCTYPE svg PUBLIC "-//W3C//DTD SVG 1.1//EN" "http://www.w3.org/Graphics/SVG/1.1/DTD/svg11.dtd">
<svg version="1.1" xmlns="http://www.w3.org/2000/svg" xmlns:xlink="http://www.w3.org/1999/xlink" x="0px" y="0px" width="361px"
	 height="361px" viewBox="0 0 361 361" style="enable-background:new 0 0 361 361;" xml:space="preserve">
<g id="scene_x5F_princess">
	<g style="display:none;">
		<g style="display:inline;">
			<g>
				<path style="fill:#FFFFFF;" d="M245.586,240.789c-0.405,4.518-5.74,3.539-8.888,3.539c-4.967,0-9.934,0-14.9,0
					c-2.628,0-5.255,0-7.882,0c-5.081,0-3.537-8.916-3.537-12.084c0-4.515,6.011-3.537,8.887-3.537c4.967,0,9.934,0,14.9,0
					c2.628,0,5.255,0,7.882,0C247.13,228.707,245.586,237.62,245.586,240.789c0,4.514,7,4.514,7,0
					c0-5.829,0.965-11.909-3.528-16.402c-3.683-3.681-10.178-2.68-14.892-2.68c-6.085,0-12.171,0-18.256,0
					c-6.785,0-11.889,3.364-12.531,10.537c-0.5,5.574-0.65,12.224,3.528,16.403c3.681,3.682,10.177,2.681,14.891,2.681
					c6.085,0,12.171,0,18.256,0c6.785,0,11.89-3.366,12.532-10.539C252.989,236.291,245.985,236.33,245.586,240.789z"/>
			</g>
		</g>
		<path style="display:inline;fill:#FFFFFF;stroke:#FFFFFF;stroke-miterlimit:10;" d="M218.189,221.896
			c0,2.742-2.225,4.965-4.967,4.965l0,0c-2.742,0-4.965-2.223-4.965-4.965v-8c0-2.742,2.223-4.965,4.965-4.965l0,0
			c2.742,0,4.967,2.223,4.967,4.965V221.896z"/>
		<g style="display:inline;">
			<g>
				<path style="fill:#FFFFFF;" d="M273.172,241.205c-0.504,4.511-11.476,2.846-14.37,2.846c-2.118,0-6.216,0.435-6.216-2.888
					c0-1.212,0-2.425,0-3.637c0-8.888,0-17.775,0-26.663c0-4.42,11.894-2.846,14.369-2.846c2.117,0,6.217-0.435,6.217,2.888
					c0,1.212,0,2.425,0,3.637C273.172,223.43,273.172,232.317,273.172,241.205c0,4.514,7,4.514,7,0
					c0-10.395,1.012-21.293-0.143-31.621c-1.016-9.075-10.898-8.566-17.633-8.566c-7.623,0-15.75,0.354-16.811,9.846
					c-0.551,4.924,0,10.222,0,15.171c0,5.42-0.46,11.056,0.143,16.45c1.015,9.075,10.898,8.566,17.632,8.566
					c7.624,0,15.751-0.354,16.812-9.846C280.673,236.723,273.668,236.771,273.172,241.205z"/>
			</g>
		</g>
		<g style="display:inline;">
			<g>
				<path style="fill:#FFFFFF;" d="M247.154,207.189c13.609,0,27.219,0,40.828,0c4.514,0,4.514-7,0-7c-13.609,0-27.219,0-40.828,0
					C242.641,200.189,242.641,207.189,247.154,207.189L247.154,207.189z"/>
			</g>
		</g>
		<g style="display:inline;">
			<g>
				<path style="fill:#FFFFFF;" d="M211.98,251.328c19.448,0,38.897,0,58.346,0c4.514,0,4.514-7,0-7c-19.448,0-38.897,0-58.346,0
					C207.467,244.328,207.467,251.328,211.98,251.328L211.98,251.328z"/>
			</g>
		</g>
		<g style="display:inline;">
			<g>
				<path style="fill:#FFFFFF;" d="M217.447,257.758c-0.446,8.295-12.415,8.294-12.861,0
					C204.14,249.461,217.003,249.505,217.447,257.758c0.242,4.489,7.243,4.513,7,0c-0.409-7.591-5.839-13.021-13.43-13.43
					c-7.575-0.408-13.056,6.451-13.432,13.43c-0.408,7.576,6.453,13.056,13.432,13.432c7.575,0.408,13.054-6.454,13.43-13.432
					C224.69,253.245,217.688,253.269,217.447,257.758z"/>
			</g>
		</g>
		<g style="display:inline;">
			<g>
				<path style="fill:#FFFFFF;" d="M270.137,257.758c-0.446,8.295-12.416,8.294-12.862,0
					C256.828,249.461,269.692,249.505,270.137,257.758c0.242,4.489,7.243,4.513,7,0c-0.409-7.592-5.84-13.021-13.431-13.43
					c-7.575-0.408-13.056,6.452-13.432,13.43c-0.408,7.576,6.453,13.056,13.432,13.432c7.576,0.408,13.055-6.453,13.431-13.432
					C277.38,253.245,270.378,253.269,270.137,257.758z"/>
			</g>
		</g>
		<g style="display:inline;">
			<g>
				<path style="fill:#FFFFFF;" d="M243.932,257.758c-0.446,8.294-12.417,8.295-12.863,0
					C230.622,249.461,243.487,249.506,243.932,257.758c0.242,4.489,7.243,4.513,7,0c-0.409-7.592-5.841-13.021-13.432-13.43
					c-7.575-0.408-13.056,6.452-13.432,13.43c-0.408,7.576,6.453,13.056,13.432,13.432c7.575,0.408,13.056-6.453,13.432-13.432
					C251.175,253.245,244.174,253.269,243.932,257.758z"/>
			</g>
		</g>
	</g>
	<g style="display:none;">
		<g style="display:inline;">
			<path style="fill:#FFFFFF;" d="M155.601,185.574c-0.335,15.337-12.33,27.33-27.667,27.666
				c-15.336,0.336-27.342-12.835-27.667-27.666c-0.335-15.336,12.835-27.342,27.667-27.667
				C143.271,157.572,155.277,170.743,155.601,185.574c0.099,4.507,7.099,4.517,7,0c-0.419-19.18-15.487-34.247-34.667-34.667
				c-19.178-0.419-34.261,16.118-34.667,34.667c-0.419,19.179,16.118,34.261,34.667,34.666c19.178,0.42,34.261-16.117,34.667-34.666
				C162.7,181.058,155.7,181.067,155.601,185.574z"/>
		</g>
	</g>
	<g id="Schiff_x5F_orig_5_" style="display:none;">
		<path style="display:inline;fill:#FFFFFF;" d="M212.456,278.088c1.675,2.152,2.474,2.659,4.432,2.659h35.971
			c0.517,0,2.733,0.303,4.06-0.835l23.341-17.279c1.923-1.378,1.479-4.313-2.509-4.313h-75.044c-3.545,0-4.505,2.122-3.094,4.096
			L212.456,278.088z"/>
		<g style="display:inline;">
			<g>
				<path style="fill:#FFFFFF;" d="M243.219,256.145c11.504,0,23.008,0,34.512,0c1.055,0,1.98-1.307,1.295-2.257
					c-11.504-15.955-23.008-31.909-34.512-47.863c-0.832-1.154-2.795-0.837-2.795,0.757c0,15.954,0,31.909,0,47.863
					c0,1.935,3,1.935,3,0c0-15.954,0-31.909,0-47.863c-0.932,0.252-1.863,0.505-2.795,0.757
					c11.504,15.955,23.008,31.909,34.512,47.863c0.432-0.752,0.863-1.505,1.295-2.257c-11.504,0-23.008,0-34.512,0
					C241.284,253.145,241.284,256.145,243.219,256.145z"/>
			</g>
		</g>
		<g style="display:inline;">
			<g>
				<path style="fill:#FFFFFF;" d="M233.848,204.16c0,17.234,0,34.469,0,51.703c0,4.514,7,4.514,7,0c0-17.234,0-34.469,0-51.703
					C240.848,199.646,233.848,199.646,233.848,204.16L233.848,204.16z"/>
			</g>
		</g>
		<g style="display:inline;">
			<g>
				<path style="fill:#FFFFFF;" d="M231.473,253.145c-6.592,0-13.184,0-19.775,0c0.482,0.633,0.964,1.266,1.446,1.898
					c6.592-15.954,13.184-31.908,19.775-47.863c-0.982-0.133-1.964-0.266-2.946-0.398c0,15.954,0,31.909,0,47.863
					c0,1.935,3,1.935,3,0c0-15.954,0-31.909,0-47.863c0-1.816-2.335-1.879-2.946-0.398c-6.592,15.954-13.184,31.908-19.775,47.863
					c-0.381,0.921,0.563,1.898,1.446,1.898c6.592,0,13.184,0,19.775,0C233.407,256.145,233.407,253.145,231.473,253.145z"/>
			</g>
		</g>
	</g>
	<g>
		<g>
			<path style="fill:#FFFFFF;" d="M157.499,204c6.449,0,6.449-10,0-10S151.05,204,157.499,204L157.499,204z"/>
		</g>
	</g>
	<g>
		<g>
			<path style="fill:#FFFFFF;" d="M133.168,152.333c0.78,17.896,22.997,23.622,37.5,23.833c0-3.333,0-6.667,0-10
				c-0.056,0-0.111,0-0.167,0c-6.449,0-6.449,10,0,10c21,0,41.999,0,62.999,0c-1.667-1.667-3.333-3.333-5-5
				c0,33.396,3.143,71.25-21.524,97.646c-12.714,13.604-31.32,16.267-46.623,5.396c-18.926-13.445-26.064-40.525-27.347-62.369
				c-0.13-2.213-0.158-4.431-0.173-6.646c-0.042-6.446-10.042-6.45-10,0c0.157,24.178,6.349,49.056,22.008,67.965
				c11.779,14.224,30.287,21.622,48.343,16.187c20.373-6.133,32.845-26.643,39.319-45.594c6.087-17.814,5.997-36.287,5.997-54.828
				c0-5.919,0-11.837,0-17.756c0-2.726-2.274-5-5-5c-21,0-41.999,0-62.999,0c-6.449,0-6.449,10,0,10c0.056,0,0.111,0,0.167,0
				c6.453,0,6.443-9.906,0-10c-8.12-0.119-27.008-2.548-27.5-13.833C142.889,145.91,132.888,145.883,133.168,152.333
				L133.168,152.333z"/>
		</g>
	</g>
	<g>
		<g>
			<path style="fill:#FFFFFF;" d="M204.494,204.002c6.448,0,6.448-10,0-10S198.046,204.002,204.494,204.002L204.494,204.002z"/>
		</g>
	</g>
	<g style="display:none;">
		<g style="display:inline;">
			<path style="fill:#FFFFFF;" d="M217.5,271.334c23.312,0,46.624,0,69.936,0c2.719,0,5.009-2.274,5-5
				c-0.152-48.104-12.381-99.161-44.114-136.517c-12.239-14.408-28.157-26.036-46.434-31.337
				c-16.91-4.904-35.367-3.286-51.427,3.711c-26.22,11.424-45.041,35.225-57.532,60.25c-15.979,32.013-22.65,68.309-22.763,103.893
				c-0.009,2.726,2.281,5,5,5c23.444,0,46.889,0,70.333,0c6.449,0,6.449-10,0-10c-23.444,0-46.889,0-70.333,0
				c1.667,1.667,3.333,3.333,5,5c0.15-47.428,12.374-99.631,46.094-134.836c12.55-13.103,28.943-23.29,47.23-25.425
				c17.605-2.055,34.505,3.357,48.914,13.342c20.093,13.925,34.064,36.159,43.327,58.367c11.654,27.941,16.608,58.388,16.704,88.553
				c1.667-1.667,3.333-3.333,5-5c-23.312,0-46.624,0-69.936,0C211.052,261.334,211.052,271.334,217.5,271.334L217.5,271.334z"/>
		</g>
	</g>
	<g style="display:none;">
		<g style="display:inline;">
			<path style="fill:#FFFFFF;" d="M181,115.624c11.778,0,23.556,0,35.334,0c2.261,0,4.183-1.532,4.821-3.671
				c3.222-10.791,6.444-21.583,9.666-32.374c1.243-4.164-3.63-7.952-7.345-5.646c-9.334,5.792-18.667,11.583-28,17.375
				c2.02,0.261,4.039,0.521,6.059,0.782c-3.067-3.628-6.136-7.256-9.204-10.884c-2.498-2.953-6.915-10.831-11.457-10.831
				c-4.399,0-8.427,7.2-10.859,10.076c-3.281,3.88-6.562,7.759-9.843,11.639c2.02-0.26,4.04-0.521,6.059-0.782
				c-9.333-5.792-18.667-11.583-28-17.375c-3.715-2.305-8.588,1.482-7.345,5.646c3.222,10.792,6.444,21.583,9.666,32.374
				c0.638,2.139,2.561,3.671,4.821,3.671c11.778,0,23.556,0,35.333,0c6.449,0,6.449-10,0-10c-11.778,0-23.556,0-35.333,0
				c1.607,1.224,3.214,2.447,4.821,3.671c-3.222-10.792-6.444-21.583-9.666-32.374c-2.448,1.882-4.896,3.764-7.345,5.646
				c9.333,5.792,18.667,11.583,28,17.375c1.785,1.107,4.651,0.883,6.059-0.782c5.708-6.75,11.417-13.5,17.125-20.25
				c-1.178,0.488-2.356,0.976-3.535,1.464c0.014,0,0.028,0,0.042,0c-1.179-0.488-2.357-0.976-3.536-1.464
				c5.709,6.75,11.417,13.5,17.126,20.25c1.407,1.665,4.273,1.889,6.059,0.782c9.334-5.792,18.667-11.583,28-17.375
				c-2.448-1.882-4.896-3.764-7.345-5.646c-3.222,10.791-6.444,21.583-9.666,32.374c1.607-1.224,3.214-2.447,4.821-3.671
				c-11.778,0-23.556,0-35.334,0C174.551,105.624,174.551,115.624,181,115.624L181,115.624z"/>
		</g>
	</g>
	<g>
		<g>
			<path style="fill:#FFFFFF;" d="M181,115.624c11.778,0,23.556,0,35.334,0c2.261,0,4.183-1.532,4.821-3.671
				c3.222-10.791,6.444-21.583,9.666-32.374c1.243-4.164-3.63-7.952-7.345-5.646c-9.334,5.792-18.667,11.583-28,17.375
				c2.02,0.261,4.039,0.521,6.059,0.782c-3.067-3.628-6.136-7.256-9.204-10.884c-2.498-2.953-6.915-10.831-11.457-10.831
				c-4.399,0-8.427,7.2-10.859,10.076c-3.281,3.88-6.562,7.759-9.843,11.639c2.02-0.26,4.04-0.521,6.059-0.782
				c-9.333-5.792-18.667-11.583-28-17.375c-3.715-2.305-8.588,1.482-7.345,5.646c3.222,10.792,6.444,21.583,9.666,32.374
				c0.638,2.139,2.561,3.671,4.821,3.671c11.778,0,23.556,0,35.333,0c6.449,0,6.449-10,0-10c-11.778,0-23.556,0-35.333,0
				c1.607,1.224,3.214,2.447,4.821,3.671c-3.222-10.792-6.444-21.583-9.666-32.374c-2.448,1.882-4.896,3.764-7.345,5.646
				c9.333,5.792,18.667,11.583,28,17.375c1.785,1.107,4.651,0.883,6.059-0.782c5.708-6.75,11.417-13.5,17.125-20.25
				c-1.178,0.488-2.356,0.976-3.535,1.464c0.014,0,0.028,0,0.042,0c-1.179-0.488-2.357-0.976-3.536-1.464
				c5.709,6.75,11.417,13.5,17.126,20.25c1.407,1.665,4.273,1.889,6.059,0.782c9.334-5.792,18.667-11.583,28-17.375
				c-2.448-1.882-4.896-3.764-7.345-5.646c-3.222,10.791-6.444,21.583-9.666,32.374c1.607-1.224,3.214-2.447,4.821-3.671
				c-11.778,0-23.556,0-35.334,0C174.551,105.624,174.551,115.624,181,115.624L181,115.624z"/>
		</g>
	</g>
	<g>
		<path style="fill:#FFFFFF;" d="M145.5,261.334c-21.756,0-43.512,0-65.269,0c0.972-46.064,13.49-95.864,46.029-129.836
			c5.844-6.102,12.53-11.555,19.844-15.874c-0.243,0-0.487,0-0.73,0c-2.261,0-4.183-1.532-4.821-3.671
			c-0.393-1.316-0.786-2.632-1.179-3.947c-20.527,12.643-35.791,33.09-46.445,54.435c-15.979,32.013-22.65,68.309-22.763,103.893
			c-0.009,2.726,2.281,5,5,5c23.444,0,46.889,0,70.333,0C151.948,271.334,151.948,261.334,145.5,261.334z"/>
		<path style="fill:#FFFFFF;" d="M248.322,129.817c-7.379-8.685-16.101-16.347-25.862-22.234c-0.435,1.457-0.87,2.914-1.306,4.371
			c-0.631,2.116-2.521,3.633-4.752,3.665c2.043,1.179,4.047,2.441,6.002,3.796c20.094,13.925,34.064,36.159,43.327,58.367
			c11.011,26.398,16.035,55.032,16.638,83.553c-21.623,0-43.246,0-64.869,0c-6.449,0-6.449,10,0,10c23.312,0,46.624,0,69.936,0
			c2.72,0,5.01-2.274,5-5C292.283,218.23,280.055,167.173,248.322,129.817z"/>
	</g>
</g>
<g id="Ebene_1">
</g>
</svg>
