<?xml version="1.0" encoding="iso-8859-1"?>
<!-- Generator: Adobe Illustrator 16.0.0, SVG Export Plug-In . SVG Version: 6.00 Build 0)  -->
<!DOCTYPE svg PUBLIC "-//W3C//DTD SVG 1.1//EN" "http://www.w3.org/Graphics/SVG/1.1/DTD/svg11.dtd">
<svg version="1.1" xmlns="http://www.w3.org/2000/svg" xmlns:xlink="http://www.w3.org/1999/xlink" x="0px" y="0px" width="361px"
	 height="361px" viewBox="0 0 361 361" style="enable-background:new 0 0 361 361;" xml:space="preserve">
<g id="scene_x5F_pool">
	<g>
		<g>
			<path style="fill:#FFFFFF;" d="M243.971,251.167c0-32.833,0-65.667,0-98.5c0-6.449-10-6.449-10,0c0,32.833,0,65.667,0,98.5
				C233.971,257.615,243.971,257.615,243.971,251.167L243.971,251.167z"/>
		</g>
	</g>
	<g>
		<g>
			<path style="fill:#FFFFFF;" d="M238.971,157.667c13.954,0,27.908,0,41.862,0c6.448,0,6.448-10,0-10c-13.954,0-27.908,0-41.862,0
				C232.522,147.667,232.522,157.667,238.971,157.667L238.971,157.667z"/>
		</g>
	</g>
	<g>
		<g>
			<path style="fill:#FFFFFF;" d="M275.833,152.667c0,6.361,0,12.723,0,19.084c0,6.449,10,6.449,10,0c0-6.361,0-12.723,0-19.084
				C285.833,146.218,275.833,146.218,275.833,152.667L275.833,152.667z"/>
		</g>
	</g>
	<g>
		<g>
			<path style="fill:#FFFFFF;" d="M100.162,228.988c5.833-1.333,11.667-2.667,17.5-4c6.286-1.437,3.62-11.078-2.658-9.643
				c-5.833,1.333-11.667,2.667-17.5,4C91.218,220.782,93.884,230.424,100.162,228.988L100.162,228.988z"/>
		</g>
	</g>
	<g>
		<g>
			<path style="fill:#FFFFFF;" d="M115.004,224.988c4.667,1.5,9.333,3,14,4.5c6.157,1.979,8.772-7.678,2.658-9.643
				c-4.667-1.5-9.333-3-14-4.5C111.505,213.366,108.89,223.023,115.004,224.988L115.004,224.988z"/>
		</g>
	</g>
	<g>
		<g>
			<path style="fill:#FFFFFF;" d="M141.162,229.988c5.833-1.333,11.667-2.667,17.5-4c6.286-1.437,3.62-11.078-2.658-9.643
				c-5.833,1.333-11.667,2.667-17.5,4C132.218,221.782,134.884,231.424,141.162,229.988L141.162,229.988z"/>
		</g>
	</g>
	<g>
		<g>
			<path style="fill:#FFFFFF;" d="M156.004,225.988c4.667,1.5,9.333,3,14,4.5c6.157,1.979,8.772-7.678,2.658-9.643
				c-4.667-1.5-9.333-3-14-4.5C152.505,214.366,149.89,224.023,156.004,225.988L156.004,225.988z"/>
		</g>
	</g>
	<g>
		<g>
			<path style="fill:#FFFFFF;" d="M182.162,230.988c5.833-1.333,11.667-2.667,17.5-4c6.286-1.437,3.62-11.078-2.658-9.643
				c-5.833,1.333-11.667,2.667-17.5,4C173.218,222.782,175.884,232.424,182.162,230.988L182.162,230.988z"/>
		</g>
	</g>
	<g>
		<g>
			<path style="fill:#FFFFFF;" d="M77.162,249.988c5.833-1.333,11.667-2.667,17.5-4c6.286-1.437,3.62-11.078-2.658-9.643
				c-5.833,1.333-11.667,2.667-17.5,4C68.218,241.782,70.884,251.424,77.162,249.988L77.162,249.988z"/>
		</g>
	</g>
	<g>
		<g>
			<path style="fill:#FFFFFF;" d="M92.004,245.988c4.667,1.5,9.333,3,14,4.5c6.157,1.979,8.772-7.678,2.658-9.643
				c-4.667-1.5-9.333-3-14-4.5C88.505,234.366,85.89,244.023,92.004,245.988L92.004,245.988z"/>
		</g>
	</g>
	<g>
		<g>
			<path style="fill:#FFFFFF;" d="M118.162,250.988c5.833-1.333,11.667-2.667,17.5-4c6.286-1.437,3.62-11.078-2.658-9.643
				c-5.833,1.333-11.667,2.667-17.5,4C109.218,242.782,111.884,252.424,118.162,250.988L118.162,250.988z"/>
		</g>
	</g>
	<g>
		<g>
			<path style="fill:#FFFFFF;" d="M133.004,246.988c4.667,1.5,9.333,3,14,4.5c6.157,1.979,8.772-7.678,2.658-9.643
				c-4.667-1.5-9.333-3-14-4.5C129.505,235.366,126.89,245.023,133.004,246.988L133.004,246.988z"/>
		</g>
	</g>
	<g>
		<g>
			<path style="fill:#FFFFFF;" d="M159.162,251.988c5.833-1.333,11.667-2.667,17.5-4c6.286-1.437,3.62-11.078-2.658-9.643
				c-5.833,1.333-11.667,2.667-17.5,4C150.218,243.782,152.884,253.424,159.162,251.988L159.162,251.988z"/>
		</g>
	</g>
	<g>
		<g>
			<path style="fill:#FFFFFF;" d="M174.004,247.988c4.667,1.5,9.333,3,14,4.5c6.157,1.979,8.771-7.678,2.658-9.643
				c-4.667-1.5-9.333-3-14-4.5C170.505,236.366,167.89,246.023,174.004,247.988L174.004,247.988z"/>
		</g>
	</g>
	<g>
		<g>
			<path style="fill:#FFFFFF;" d="M200.162,251.988c5.833-1.333,11.667-2.667,17.5-4c6.286-1.437,3.62-11.078-2.658-9.643
				c-5.833,1.333-11.667,2.667-17.5,4C191.218,243.782,193.884,253.424,200.162,251.988L200.162,251.988z"/>
		</g>
	</g>
	<g>
		<g>
			<path style="fill:#FFFFFF;" d="M102.162,269.988c5.833-1.333,11.667-2.667,17.5-4c6.286-1.437,3.62-11.078-2.658-9.643
				c-5.833,1.333-11.667,2.667-17.5,4C93.218,261.782,95.884,271.424,102.162,269.988L102.162,269.988z"/>
		</g>
	</g>
	<g>
		<g>
			<path style="fill:#FFFFFF;" d="M117.004,265.988c4.667,1.5,9.333,3,14,4.5c6.157,1.979,8.772-7.678,2.658-9.643
				c-4.667-1.5-9.333-3-14-4.5C113.505,254.366,110.89,264.023,117.004,265.988L117.004,265.988z"/>
		</g>
	</g>
	<g>
		<g>
			<path style="fill:#FFFFFF;" d="M143.162,270.988c5.833-1.333,11.667-2.667,17.5-4c6.286-1.437,3.62-11.078-2.658-9.643
				c-5.833,1.333-11.667,2.667-17.5,4C134.218,262.782,136.884,272.424,143.162,270.988L143.162,270.988z"/>
		</g>
	</g>
	<g>
		<g>
			<path style="fill:#FFFFFF;" d="M158.004,266.988c4.667,1.5,9.333,3,14,4.5c6.157,1.979,8.772-7.678,2.658-9.643
				c-4.667-1.5-9.333-3-14-4.5C154.505,255.366,151.89,265.023,158.004,266.988L158.004,266.988z"/>
		</g>
	</g>
	<g>
		<g>
			<path style="fill:#FFFFFF;" d="M184.162,271.988c5.833-1.333,11.667-2.667,17.5-4c6.286-1.437,3.62-11.078-2.658-9.643
				c-5.833,1.333-11.667,2.667-17.5,4C175.218,263.782,177.884,273.424,184.162,271.988L184.162,271.988z"/>
		</g>
	</g>
	<g>
		<g>
			<path style="fill:#FFFFFF;" d="M199.004,267.988c4.667,1.5,9.333,3,14,4.5c6.157,1.979,8.771-7.678,2.658-9.643
				c-4.667-1.5-9.333-3-14-4.5C195.505,256.366,192.891,266.023,199.004,267.988L199.004,267.988z"/>
		</g>
	</g>
	<g>
		<g>
			<path style="fill:#FFFFFF;" d="M225.162,271.988c5.833-1.333,11.667-2.667,17.5-4c6.286-1.437,3.62-11.078-2.658-9.643
				c-5.833,1.333-11.667,2.667-17.5,4C216.218,263.782,218.884,273.424,225.162,271.988L225.162,271.988z"/>
		</g>
	</g>
	<g>
		<g>
			<path style="fill:#FFFFFF;" d="M240.004,267.988c4.667,1.5,9.333,3,14,4.5c6.157,1.979,8.771-7.678,2.658-9.643
				c-4.667-1.5-9.333-3-14-4.5C236.505,256.366,233.891,266.023,240.004,267.988L240.004,267.988z"/>
		</g>
	</g>
	<g>
		<g>
			<path style="fill:#FFFFFF;" d="M218.971,230.167c0-32.833,0-65.667,0-98.5c0-6.449-10-6.449-10,0c0,32.833,0,65.667,0,98.5
				C208.971,236.615,218.971,236.615,218.971,230.167L218.971,230.167z"/>
		</g>
	</g>
	<g>
		<g>
			<path style="fill:#FFFFFF;" d="M213.971,136.667c13.954,0,27.908,0,41.862,0c6.448,0,6.448-10,0-10c-13.954,0-27.908,0-41.862,0
				C207.522,126.667,207.522,136.667,213.971,136.667L213.971,136.667z"/>
		</g>
	</g>
	<g>
		<g>
			<path style="fill:#FFFFFF;" d="M250.833,131.667c0,6.361,0,12.723,0,19.084c0,6.449,10,6.449,10,0c0-6.361,0-12.723,0-19.084
				C260.833,125.218,250.833,125.218,250.833,131.667L250.833,131.667z"/>
		</g>
	</g>
	<g>
		<g>
			<path style="fill:#FFFFFF;" d="M74.833,204.917c40.917,0,81.833,0,122.75,0c6.448,0,6.448-10,0-10c-40.917,0-81.833,0-122.75,0
				C68.384,194.917,68.384,204.917,74.833,204.917L74.833,204.917z"/>
		</g>
	</g>
	<g>
		<g>
			<path style="fill:#FFFFFF;" d="M74.833,291.917c48.697,0,97.394,0,146.091,0c21.97,0,43.939,0,65.909,0c6.448,0,6.448-10,0-10
				c-48.697,0-97.395,0-146.091,0c-21.97,0-43.939,0-65.909,0C68.384,281.917,68.384,291.917,74.833,291.917L74.833,291.917z"/>
		</g>
	</g>
</g>
<g id="Ebene_1">
</g>
</svg>
