<?xml version="1.0" encoding="iso-8859-1"?>
<!-- Generator: Adobe Illustrator 16.0.0, SVG Export Plug-In . SVG Version: 6.00 Build 0)  -->
<!DOCTYPE svg PUBLIC "-//W3C//DTD SVG 1.1 Tiny//EN" "http://www.w3.org/Graphics/SVG/1.1/DTD/svg11-tiny.dtd">
<svg version="1.1" baseProfile="tiny" id="scene_x5F_pool"
	 xmlns="http://www.w3.org/2000/svg" xmlns:xlink="http://www.w3.org/1999/xlink" x="0px" y="0px" width="361px" height="361px"
	 viewBox="0 0 361 361" xml:space="preserve">
<g>
	<path fill="#FFFFFF" d="M241.452,254.045c0-32.833,0-65.667,0-98.5c0-6.449-10-6.449-10,0c0,32.833,0,65.667,0,98.5
		C231.452,260.494,241.452,260.494,241.452,254.045L241.452,254.045z"/>
</g>
<g>
	<path fill="#FFFFFF" d="M236.452,160.545c13.954,0,27.909,0,41.863,0c6.449,0,6.449-10,0-10c-13.954,0-27.909,0-41.863,0
		C230.003,150.545,230.003,160.545,236.452,160.545L236.452,160.545z"/>
</g>
<g>
	<path fill="#FFFFFF" d="M273.315,155.545c0,6.361,0,12.723,0,19.084c0,6.449,10,6.449,10,0c0-6.361,0-12.723,0-19.084
		C283.315,149.096,273.315,149.096,273.315,155.545L273.315,155.545z"/>
</g>
<g>
	<path fill="#FFFFFF" d="M97.644,231.866c5.833-1.333,11.667-2.667,17.5-4c6.286-1.437,3.62-11.078-2.658-9.643
		c-5.833,1.333-11.667,2.667-17.5,4C88.7,223.66,91.366,233.301,97.644,231.866L97.644,231.866z"/>
</g>
<g>
	<path fill="#FFFFFF" d="M112.486,227.866c4.667,1.5,9.333,3,14,4.5c6.157,1.979,8.772-7.678,2.658-9.643c-4.667-1.5-9.333-3-14-4.5
		C108.987,216.245,106.372,225.901,112.486,227.866L112.486,227.866z"/>
</g>
<g>
	<path fill="#FFFFFF" d="M138.644,232.866c5.833-1.333,11.667-2.667,17.5-4c6.286-1.437,3.62-11.078-2.658-9.643
		c-5.833,1.333-11.667,2.667-17.5,4C129.7,224.66,132.366,234.301,138.644,232.866L138.644,232.866z"/>
</g>
<g>
	<path fill="#FFFFFF" d="M153.486,228.866c4.667,1.5,9.333,3,14,4.5c6.157,1.979,8.772-7.678,2.658-9.643c-4.667-1.5-9.333-3-14-4.5
		C149.987,217.245,147.372,226.901,153.486,228.866L153.486,228.866z"/>
</g>
<g>
	<path fill="#FFFFFF" d="M179.644,233.866c5.833-1.333,11.667-2.667,17.5-4c6.286-1.437,3.62-11.078-2.658-9.643
		c-5.833,1.333-11.667,2.667-17.5,4C170.7,225.66,173.366,235.301,179.644,233.866L179.644,233.866z"/>
</g>
<g>
	<path fill="#FFFFFF" d="M74.644,252.866c5.833-1.333,11.667-2.667,17.5-4c6.286-1.437,3.62-11.078-2.658-9.643
		c-5.833,1.333-11.667,2.667-17.5,4C65.7,244.66,68.366,254.301,74.644,252.866L74.644,252.866z"/>
</g>
<g>
	<path fill="#FFFFFF" d="M89.486,248.866c4.667,1.5,9.333,3,14,4.5c6.157,1.979,8.772-7.678,2.658-9.643c-4.667-1.5-9.333-3-14-4.5
		C85.987,237.245,83.372,246.901,89.486,248.866L89.486,248.866z"/>
</g>
<g>
	<path fill="#FFFFFF" d="M115.644,253.866c5.833-1.333,11.667-2.667,17.5-4c6.286-1.437,3.62-11.078-2.658-9.643
		c-5.833,1.333-11.667,2.667-17.5,4C106.7,245.66,109.366,255.301,115.644,253.866L115.644,253.866z"/>
</g>
<g>
	<path fill="#FFFFFF" d="M130.486,249.866c4.667,1.5,9.333,3,14,4.5c6.157,1.979,8.772-7.678,2.658-9.643c-4.667-1.5-9.333-3-14-4.5
		C126.987,238.245,124.372,247.901,130.486,249.866L130.486,249.866z"/>
</g>
<g>
	<path fill="#FFFFFF" d="M156.644,254.866c5.833-1.333,11.667-2.667,17.5-4c6.286-1.437,3.62-11.078-2.658-9.643
		c-5.833,1.333-11.667,2.667-17.5,4C147.7,246.66,150.366,256.301,156.644,254.866L156.644,254.866z"/>
</g>
<g>
	<path fill="#FFFFFF" d="M171.486,250.866c4.667,1.5,9.333,3,14,4.5c6.157,1.979,8.772-7.678,2.658-9.643c-4.667-1.5-9.333-3-14-4.5
		C167.987,239.245,165.372,248.901,171.486,250.866L171.486,250.866z"/>
</g>
<g>
	<path fill="#FFFFFF" d="M197.644,254.866c5.833-1.333,11.667-2.667,17.5-4c6.286-1.437,3.62-11.078-2.658-9.643
		c-5.833,1.333-11.667,2.667-17.5,4C188.7,246.66,191.366,256.301,197.644,254.866L197.644,254.866z"/>
</g>
<g>
	<path fill="#FFFFFF" d="M99.644,272.866c5.833-1.333,11.667-2.667,17.5-4c6.286-1.437,3.62-11.078-2.658-9.643
		c-5.833,1.333-11.667,2.667-17.5,4C90.7,264.66,93.366,274.301,99.644,272.866L99.644,272.866z"/>
</g>
<g>
	<path fill="#FFFFFF" d="M114.486,268.866c4.667,1.5,9.333,3,14,4.5c6.157,1.979,8.772-7.678,2.658-9.643c-4.667-1.5-9.333-3-14-4.5
		C110.987,257.245,108.372,266.901,114.486,268.866L114.486,268.866z"/>
</g>
<g>
	<path fill="#FFFFFF" d="M140.644,273.866c5.833-1.333,11.667-2.667,17.5-4c6.286-1.437,3.62-11.078-2.658-9.643
		c-5.833,1.333-11.667,2.667-17.5,4C131.7,265.66,134.366,275.301,140.644,273.866L140.644,273.866z"/>
</g>
<g>
	<path fill="#FFFFFF" d="M155.486,269.866c4.667,1.5,9.333,3,14,4.5c6.157,1.979,8.772-7.678,2.658-9.643c-4.667-1.5-9.333-3-14-4.5
		C151.987,258.245,149.372,267.901,155.486,269.866L155.486,269.866z"/>
</g>
<g>
	<path fill="#FFFFFF" d="M181.644,274.866c5.833-1.333,11.667-2.667,17.5-4c6.286-1.437,3.62-11.078-2.658-9.643
		c-5.833,1.333-11.667,2.667-17.5,4C172.7,266.66,175.366,276.301,181.644,274.866L181.644,274.866z"/>
</g>
<g>
	<path fill="#FFFFFF" d="M196.486,270.866c4.667,1.5,9.333,3,14,4.5c6.157,1.979,8.772-7.678,2.658-9.643c-4.667-1.5-9.333-3-14-4.5
		C192.987,259.245,190.372,268.901,196.486,270.866L196.486,270.866z"/>
</g>
<g>
	<path fill="#FFFFFF" d="M222.644,274.866c5.833-1.333,11.667-2.667,17.5-4c6.286-1.437,3.62-11.078-2.658-9.643
		c-5.833,1.333-11.667,2.667-17.5,4C213.7,266.66,216.366,276.301,222.644,274.866L222.644,274.866z"/>
</g>
<g>
	<path fill="#FFFFFF" d="M237.486,270.866c4.667,1.5,9.333,3,14,4.5c6.157,1.979,8.772-7.678,2.658-9.643c-4.667-1.5-9.333-3-14-4.5
		C233.987,259.245,231.372,268.901,237.486,270.866L237.486,270.866z"/>
</g>
<g>
	<path fill="#FFFFFF" d="M216.452,233.045c0-32.833,0-65.667,0-98.5c0-6.449-10-6.449-10,0c0,32.833,0,65.667,0,98.5
		C206.452,239.494,216.452,239.494,216.452,233.045L216.452,233.045z"/>
</g>
<g>
	<path fill="#FFFFFF" d="M211.452,139.545c13.954,0,27.909,0,41.863,0c6.449,0,6.449-10,0-10c-13.954,0-27.909,0-41.863,0
		C205.003,129.545,205.003,139.545,211.452,139.545L211.452,139.545z"/>
</g>
<g>
	<path fill="#FFFFFF" d="M248.315,134.545c0,6.361,0,12.723,0,19.084c0,6.449,10,6.449,10,0c0-6.361,0-12.723,0-19.084
		C258.315,128.096,248.315,128.096,248.315,134.545L248.315,134.545z"/>
</g>
<g>
	<path fill="#FFFFFF" d="M72.315,207.795c40.917,0,81.833,0,122.75,0c6.449,0,6.449-10,0-10c-40.917,0-81.833,0-122.75,0
		C65.866,197.795,65.866,207.795,72.315,207.795L72.315,207.795z"/>
</g>
<g>
	<path fill="#FFFFFF" d="M72.315,294.795c48.697,0,97.394,0,146.091,0c21.97,0,43.939,0,65.909,0c6.449,0,6.449-10,0-10
		c-48.697,0-97.394,0-146.091,0c-21.97,0-43.939,0-65.909,0C65.866,284.795,65.866,294.795,72.315,294.795L72.315,294.795z"/>
</g>
</svg>
