<?xml version="1.0" encoding="iso-8859-1"?>
<!-- Generator: Adobe Illustrator 16.0.0, SVG Export Plug-In . SVG Version: 6.00 Build 0)  -->
<!DOCTYPE svg PUBLIC "-//W3C//DTD SVG 1.1//EN" "http://www.w3.org/Graphics/SVG/1.1/DTD/svg11.dtd">
<svg version="1.1" xmlns="http://www.w3.org/2000/svg" xmlns:xlink="http://www.w3.org/1999/xlink" x="0px" y="0px" width="361px"
	 height="361px" viewBox="0 0 361 361" style="enable-background:new 0 0 361 361;" xml:space="preserve">
<g id="scene_x5F_minion">
	<g>
		<g>
			<path style="fill:#FFFFFF;" d="M245.634,133.61c-0.729-22.705-12.773-43.201-32.338-54.786
				c-19.725-11.68-44.818-11.124-64.589-0.003c-19.687,11.073-31.619,32.451-32.342,54.771c-0.242,7.472-0.033,14.983-0.033,22.458
				c0,29.335,0,58.671,0,88.006c0,2.871,0,5.742,0,8.613c0,9.144,6.244,16.769,15.057,18.898c3.245,0.783,6.991,0.432,10.302,0.432
				c6.18,0,12.36,0,18.54,0c15.863,0,31.726,0,47.589,0c9.462,0,23.017,2.191,30.829-4.329c8.528-7.118,7.017-17.975,7.017-27.848
				c0-14.583,0-29.166,0-43.749C245.666,175.344,246.704,154.318,245.634,133.61c-0.332-6.416-10.333-6.448-10,0
				c0.385,7.443,0.032,14.99,0.032,22.44c0,15.651,0,31.301,0,46.953c0,13.685,0,27.369,0,41.054
				c0,7.856,0.934,17.943-10.188,17.943c-26.738,0-53.477,0-80.216,0c-8.177,0-18.931,1.222-18.931-10.348
				c0-10.224,0-20.447,0-30.672c0-27.796,0-55.591,0-83.387c0-15.644,4.903-29.997,15.975-41.344
				c16.085-16.485,41.815-20.514,62.443-10.658c18.481,8.83,30.231,27.704,30.884,48.019
				C235.841,140.042,245.841,140.063,245.634,133.61z"/>
		</g>
	</g>
	<g style="display:none;">
		<g style="display:inline;">
			<path style="fill:#FFFFFF;" d="M198.332,177c-0.978,12.266-32.688,12.267-33.666,0c-0.5,0.5-1,1-1.5,1.5
				c12.222,0,24.444,0,36.666,0c1.935,0,1.935-3,0-3c-12.222,0-24.444,0-36.666,0c-0.769,0-1.565,0.684-1.5,1.5
				c1.3,16.326,38.365,16.326,39.666,0C201.485,175.071,198.484,175.085,198.332,177z"/>
		</g>
	</g>
	<g>
		<g>
			<g>
				<path style="fill:#FFFFFF;" d="M174.504,280.167c-7.889,0-15.778,0-23.667,0c0.482,0.367,0.964,0.734,1.446,1.102
					c-1.667-5-3.333-10-5-15c-0.482,0.633-0.964,1.266-1.446,1.898c11.222,0,22.445,0,33.667,0
					c-0.482-0.633-0.964-1.266-1.446-1.898c-1.667,5-3.333,10-5,15c-0.614,1.84,2.284,2.623,2.893,0.797c1.667-5,3.333-10,5-15
					c0.312-0.934-0.51-1.898-1.446-1.898c-11.222,0-22.445,0-33.667,0c-0.936,0-1.758,0.965-1.446,1.898c1.667,5,3.333,10,5,15
					c0.212,0.639,0.752,1.102,1.446,1.102c7.889,0,15.778,0,23.667,0C176.438,283.167,176.438,280.167,174.504,280.167z"/>
			</g>
		</g>
		<g>
			<g>
				<path style="fill:#FFFFFF;" d="M153.837,283.594c6.222,0,12.445,0,18.667,0c-0.5-0.5-1-1-1.5-1.5
					c0.333,2.604,0.667,5.208,1,7.813c0.5-0.5,1-1,1.5-1.5c-8.222,0-16.445,0-24.667,0c0.432,0.752,0.863,1.505,1.295,2.257
					c1.667-2.604,3.333-5.208,5-7.813c1.046-1.635-1.551-3.138-2.591-1.514c-1.667,2.604-3.333,5.208-5,7.813
					c-0.621,0.97,0.193,2.257,1.295,2.257c8.222,0,16.445,0,24.667,0c0.739,0,1.604-0.687,1.5-1.5c-0.333-2.604-0.667-5.208-1-7.813
					c-0.104-0.811-0.604-1.5-1.5-1.5c-6.222,0-12.445,0-18.667,0C151.902,280.594,151.902,283.594,153.837,283.594z"/>
			</g>
		</g>
		<g>
			<g>
				<path style="fill:#FFFFFF;" d="M185.837,283.5c7.889,0,15.778,0,23.667,0c0.694,0,1.233-0.463,1.446-1.102
					c1.667-5,3.333-10,5-15c0.312-0.934-0.511-1.898-1.446-1.898c-11.223,0-22.444,0-33.667,0c-0.936,0-1.758,0.965-1.446,1.898
					c1.667,5,3.333,10,5,15c0.608,1.826,3.506,1.043,2.893-0.797c-1.667-5-3.333-10-5-15c-0.482,0.633-0.964,1.266-1.446,1.898
					c11.223,0,22.444,0,33.667,0c-0.482-0.633-0.964-1.266-1.446-1.898c-1.667,5-3.333,10-5,15c0.482-0.367,0.964-0.734,1.446-1.102
					c-7.889,0-15.778,0-23.667,0C183.902,280.5,183.902,283.5,185.837,283.5z"/>
			</g>
		</g>
		<g>
			<g>
				<path style="fill:#FFFFFF;" d="M206.504,280.927c-6.223,0-12.444,0-18.667,0c-0.896,0-1.396,0.689-1.5,1.5
					c-0.333,2.604-0.667,5.208-1,7.813c-0.104,0.813,0.761,1.5,1.5,1.5c8.223,0,16.444,0,24.667,0c1.102,0,1.916-1.286,1.295-2.257
					c-1.666-2.604-3.333-5.209-5-7.813c-1.039-1.624-3.637-0.121-2.59,1.514c1.666,2.604,3.333,5.209,5,7.813
					c0.432-0.752,0.863-1.505,1.295-2.257c-8.223,0-16.444,0-24.667,0c0.5,0.5,1,1,1.5,1.5c0.333-2.604,0.667-5.208,1-7.813
					c-0.5,0.5-1,1-1.5,1.5c6.223,0,12.444,0,18.667,0C208.438,283.927,208.438,280.927,206.504,280.927z"/>
			</g>
		</g>
	</g>
	<g>
		<g>
			<g>
				<path style="fill:#FFFFFF;" d="M160.433,204.109c-12.264-11.361-24.528-22.723-36.792-34.084
					c-3.306-3.062-8.268,1.876-4.95,4.95c12.264,11.361,24.528,22.722,36.792,34.083
					C158.789,212.121,163.751,207.183,160.433,204.109L160.433,204.109z"/>
			</g>
		</g>
		<g>
			<g>
				<path style="fill:#FFFFFF;" d="M240.504,228.332c-10.393-0.02-20.785-0.048-31.178-0.019c-2.089,0.007-2.365,0.545-2.746-1.451
					c-0.534-2.797-0.201-5.891-0.032-8.707c0.287-4.766,0.852-9.536,1.569-14.257c0.145-0.946-0.385-1.898-1.446-1.898
					c-8.833,0-17.667,0-26.5,0c-1.935,0-1.935,3,0,3c0.333,0,0.666,0,0.999,0c1.935,0,1.935-3,0-3c-8.833,0-17.667,0-26.5,0
					c-1.062,0-1.59,0.952-1.446,1.898c0.67,4.408,1.162,8.849,1.503,13.294c0.223,2.91,0.343,5.84,0.139,8.754
					c-0.19,2.724-0.393,2.376-2.851,2.367c-10.393-0.037-20.786-0.001-31.179,0.019c-1.935,0.004-1.935,3.004,0,3
					c11.271-0.021,22.564-0.238,33.833,0.002c6.804,0.145,2.049-24.269,1.446-28.232c-0.482,0.633-0.964,1.266-1.446,1.898
					c8.833,0,17.667,0,26.5,0c1.935,0,1.935-3,0-3c-0.333,0-0.666,0-0.999,0c-1.935,0-1.935,3,0,3c8.833,0,17.667,0,26.5,0
					c-0.482-0.633-0.964-1.266-1.446-1.898c-0.603,3.964-5.357,28.377,1.446,28.232c11.269-0.24,22.562-0.023,33.833-0.002
					C242.438,231.336,242.438,228.336,240.504,228.332L240.504,228.332z"/>
			</g>
		</g>
		<g>
			<g>
				<path style="fill:#FFFFFF;" d="M205.857,209.059c12.265-11.361,24.528-22.722,36.792-34.083c3.318-3.074-1.644-8.012-4.949-4.95
					c-12.265,11.361-24.528,22.723-36.792,34.084C197.59,207.183,202.552,212.121,205.857,209.059L205.857,209.059z"/>
			</g>
		</g>
	</g>
	<g>
		<g>
			<g>
				<path style="fill:#FFFFFF;" d="M121.166,182c-11.79,0.363-19.398,10.676-24.04,20.424c-7.604,15.968-9.86,34.409-9.96,51.91
					c-0.037,6.45,9.963,6.446,10,0c0.084-14.698,1.936-29.368,7.062-43.207c2.587-6.986,8.074-18.854,16.938-19.127
					C127.599,191.802,127.618,181.802,121.166,182L121.166,182z"/>
			</g>
		</g>
		<g>
			<g>
				<g>
					<path style="fill:#FFFFFF;" d="M86.984,253.439c-3.091,4.699-10.096,15.541-4.263,20.74c4.796,4.276,11.894-2.771,7.071-7.07
						c0.516,0.564,0.792,1.207,0.827,1.927c0.025-0.558,0.024-0.651-0.003-0.282c0.165-0.939,0.507-1.851,0.831-2.744
						c0.966-2.666,2.623-5.169,4.172-7.523C99.175,253.081,90.511,248.077,86.984,253.439L86.984,253.439z"/>
				</g>
			</g>
			<g>
				<g>
					<path style="fill:#FFFFFF;" d="M88.004,252.519c-4.377,6.995-3.437,15.716,3.316,20.714c2.196,1.625,5.575,0.366,6.841-1.794
						c1.49-2.544,0.392-5.223-1.794-6.841c-2.214-1.639-0.854-5.233,0.272-7.032C100.071,252.082,91.416,247.066,88.004,252.519
						L88.004,252.519z"/>
				</g>
			</g>
			<g>
				<g>
					<path style="fill:#FFFFFF;" d="M87.5,253.713c-1.101,2.745,1.133,5.483,2.952,7.24c2.606,2.517,5.663,4.642,8.654,6.668
						c2.259,1.531,5.533,0.439,6.841-1.794c1.447-2.47,0.458-5.315-1.794-6.841c-1.842-1.248-3.558-2.469-5.189-3.825
						c-0.7-0.582-1.372-1.196-2.013-1.843c-0.236-0.237-0.966-1.176-0.03,0.067c-0.043-0.064-0.086-0.129-0.128-0.193
						c0.511,0.983,0.627,2.043,0.35,3.179c1.016-2.534-1.087-5.489-3.492-6.15C90.799,249.436,88.514,251.186,87.5,253.713
						L87.5,253.713z"/>
				</g>
			</g>
		</g>
		<g>
			<g>
				<path style="fill:#FFFFFF;" d="M84.397,251.579c-0.377,3.689-0.754,7.379-1.13,11.068c-0.416,4.071,3.652,7.53,7.447,7.556
					c4.382,0.029,7.141-3.385,7.556-7.448c0.377-3.689,0.754-7.379,1.13-11.068c0.416-4.071-3.652-7.53-7.447-7.556
					C87.57,244.102,84.812,247.516,84.397,251.579L84.397,251.579z"/>
			</g>
		</g>
	</g>
	<g>
		<g>
			<g>
				<g>
					<path style="fill:#FFFFFF;" d="M282.025,135.901c-0.539,2.767-1.235,5.474-2.202,8.124c-0.331,0.909-0.803,1.761-1.296,2.591
						c-0.366,0.545-0.412,0.619-0.139,0.223c-0.866,1.013,1.147-0.627,1.789-0.59c-6.445-0.374-6.409,9.628,0,10
						c7.793,0.452,10.421-12.203,11.49-17.689C292.896,132.261,283.258,129.575,282.025,135.901L282.025,135.901z"/>
				</g>
			</g>
			<g>
				<g>
					<path style="fill:#FFFFFF;" d="M282.042,152.664c3.501-6.081,2.573-14.158-1.607-19.684c-1.641-2.169-4.278-3.295-6.841-1.794
						c-2.143,1.255-3.442,4.662-1.794,6.841c2.025,2.677,3.424,6.436,1.607,9.59C270.184,153.216,278.826,158.25,282.042,152.664
						L282.042,152.664z"/>
				</g>
			</g>
			<g>
				<g>
					<path style="fill:#FFFFFF;" d="M282.803,152.12c1.046-2.889-1.181-5.542-3.157-7.326c-2.646-2.388-5.663-4.422-8.657-6.342
						c-2.297-1.473-5.507-0.483-6.841,1.794c-1.42,2.424-0.496,5.373,1.794,6.841c1.846,1.184,4.025,2.647,5.486,3.812
						c0.614,0.49,1.205,1.008,1.777,1.546c0.255,0.24,0.491,0.497,0.724,0.757c-0.153-0.197-0.306-0.395-0.459-0.592
						c0.666,1.147,0.563,0.098-0.31-3.149c-0.929,2.564,1.021,5.471,3.492,6.15C279.437,156.378,281.876,154.681,282.803,152.12
						L282.803,152.12z"/>
				</g>
			</g>
		</g>
		<g>
			<g>
				<path style="fill:#FFFFFF;" d="M236.651,192.611c5.545,7.812,12.945,15.524,22.795,17.224
					c9.247,1.596,17.821-3.498,21.331-11.949c6.653-16.017,2.104-34.365,7.407-50.642c2.004-6.149-7.654-8.762-9.643-2.658
					c-4.234,12.995-2.673,27.421-4.769,40.81c-0.853,5.453-1.877,11.826-7.557,14.102c-8.395,3.363-16.659-5.916-20.931-11.933
					C241.587,182.354,232.909,187.34,236.651,192.611L236.651,192.611z"/>
			</g>
		</g>
		<g>
			<g>
				<path style="fill:#FFFFFF;" d="M272.406,147.218c0.062,3.708,0.122,7.416,0.183,11.124c0.067,4.085,3.292,7.528,7.448,7.556
					c4.014,0.027,7.622-3.361,7.556-7.447c-0.062-3.708-0.122-7.416-0.183-11.124c-0.067-4.085-3.292-7.528-7.448-7.556
					C275.948,139.744,272.34,143.131,272.406,147.218L272.406,147.218z"/>
			</g>
		</g>
	</g>
	<g style="display:none;">
		<g style="display:inline;">
			<g>
				<path style="fill:#FFFFFF;" d="M175.194,134.147c-0.298,10.31-8.178,18.191-18.488,18.489
					c-10.308,0.298-18.204-8.627-18.489-18.489c-0.298-10.308,8.627-18.203,18.489-18.488
					C167.013,115.361,174.909,124.286,175.194,134.147c0.186,6.434,10.187,6.452,10,0c-0.457-15.832-12.657-28.031-28.488-28.488
					c-15.827-0.458-28.052,13.344-28.489,28.488c-0.458,15.827,13.345,28.052,28.489,28.489
					c15.827,0.457,28.051-13.346,28.488-28.489C185.381,127.695,175.38,127.713,175.194,134.147z"/>
			</g>
		</g>
		<g style="display:inline;">
			<g>
				<path style="fill:#FFFFFF;" d="M223.781,134.148c-0.298,10.311-8.179,18.19-18.489,18.488
					c-10.308,0.298-18.203-8.627-18.488-18.488c-0.298-10.308,8.626-18.204,18.488-18.489
					C215.601,115.361,223.496,124.286,223.781,134.148c0.186,6.434,10.187,6.452,10,0c-0.457-15.833-12.656-28.032-28.489-28.489
					c-15.827-0.457-28.051,13.346-28.488,28.489c-0.457,15.826,13.345,28.051,28.488,28.488
					c15.827,0.458,28.052-13.344,28.489-28.488C233.968,127.696,223.967,127.714,223.781,134.148z"/>
			</g>
		</g>
		<g style="display:inline;">
			<g>
				<path style="fill:#FFFFFF;" d="M131.5,128.48c-5.111,0-10.223,0-15.334,0c-6.449,0-6.449,10,0,10c5.111,0,10.223,0,15.334,0
					C137.948,138.48,137.948,128.48,131.5,128.48L131.5,128.48z"/>
			</g>
		</g>
		<g style="display:inline;">
			<g>
				<path style="fill:#FFFFFF;" d="M245.832,128.48c-5.444,0-10.89,0-16.334,0c-6.448,0-6.448,10,0,10c5.444,0,10.89,0,16.334,0
					C252.28,138.48,252.28,128.48,245.832,128.48L245.832,128.48z"/>
			</g>
		</g>
		<path style="display:inline;fill:#FFFFFF;" d="M151.886,126.201c-9.687,0-9.772,15.003-0.108,15.003
			C161.464,141.204,161.55,126.201,151.886,126.201z M151.832,137.796c-5.279,0-5.279-8.187,0-8.187
			C157.111,129.609,157.111,137.796,151.832,137.796z"/>
		<path style="display:inline;fill:#FFFFFF;" d="M200.887,126.201c-9.688,0-9.772,15.003-0.109,15.003
			C210.465,141.204,210.55,126.201,200.887,126.201z M200.832,137.796c-5.279,0-5.279-8.187,0-8.187
			S206.111,137.796,200.832,137.796z"/>
	</g>
	<g>
		<g>
			<path style="fill:#FFFFFF;" d="M199.979,175.085c-11.043,10.463-27.124,10.462-38.167,0c-1.403-1.33-3.528,0.788-2.121,2.121
				c12.285,11.64,30.124,11.641,42.409,0C203.507,175.873,201.382,173.755,199.979,175.085L199.979,175.085z"/>
		</g>
	</g>
	<g>
		<g>
			<g>
				<g>
					<path style="fill:#FFFFFF;" d="M178.635,133.448c-0.353,13.958-11.167,24.772-25.125,25.125
						c-13.956,0.353-24.786-11.7-25.125-25.125c-0.353-13.956,11.7-24.786,25.125-25.125
						C167.466,107.97,178.296,120.023,178.635,133.448c0.049,1.931,3.049,1.936,3,0c-0.395-15.604-12.521-27.73-28.125-28.125
						c-15.602-0.395-27.746,13.113-28.125,28.125c-0.395,15.602,13.113,27.746,28.125,28.125
						c15.602,0.395,27.746-13.113,28.125-28.125C181.685,131.513,178.684,131.517,178.635,133.448z"/>
				</g>
			</g>
			<path style="fill:#FFFFFF;" d="M153.51,115.261c-10.044,0-18.188,8.143-18.188,18.188c0,10.044,8.144,18.188,18.188,18.188
				c10.044,0,18.188-8.144,18.188-18.188C171.698,123.403,163.555,115.261,153.51,115.261z M146.729,138.542
				c-4.177,0-7.563-3.386-7.563-7.563s3.386-7.563,7.563-7.563s7.563,3.386,7.563,7.563S150.906,138.542,146.729,138.542z"/>
		</g>
		<g>
			<g>
				<g>
					<path style="fill:#FFFFFF;" d="M233.302,133.448c-0.353,13.958-11.167,24.772-25.125,25.125
						c-13.956,0.353-24.785-11.7-25.125-25.125c-0.353-13.956,11.7-24.786,25.125-25.125
						C222.133,107.97,232.962,120.023,233.302,133.448c0.049,1.931,3.049,1.936,3,0c-0.395-15.604-12.521-27.73-28.125-28.125
						c-15.602-0.395-27.746,13.113-28.125,28.125c-0.395,15.602,13.113,27.746,28.125,28.125
						c15.602,0.395,27.745-13.113,28.125-28.125C236.351,131.513,233.351,131.517,233.302,133.448z"/>
				</g>
			</g>
			<path style="fill:#FFFFFF;" d="M208.177,115.261c-10.044,0-18.188,8.143-18.188,18.188c0,10.044,8.144,18.188,18.188,18.188
				s18.188-8.144,18.188-18.188C226.364,123.403,218.221,115.261,208.177,115.261z M201.396,138.542
				c-4.177,0-7.563-3.386-7.563-7.563s3.386-7.563,7.563-7.563s7.563,3.386,7.563,7.563S205.572,138.542,201.396,138.542z"/>
		</g>
		<g>
			<path style="fill:#FFFFFF;" d="M116.834,138.084c6.778,0,10.332,0,10.332,0v-10c0,0-3.554,0-10.332,0
				C110.385,128.084,110.385,138.084,116.834,138.084L116.834,138.084z"/>
			<path style="fill:#FFFFFF;" d="M244.829,138.083c-6.778,0-10.332,0-10.332,0v-10c0,0,3.554,0,10.332,0
				C251.277,128.083,251.277,138.083,244.829,138.083L244.829,138.083z"/>
		</g>
	</g>
</g>
<g id="Ebene_1">
</g>
</svg>
