<?xml version="1.0" encoding="iso-8859-1"?>
<!-- Generator: Adobe Illustrator 16.0.0, SVG Export Plug-In . SVG Version: 6.00 Build 0)  -->
<!DOCTYPE svg PUBLIC "-//W3C//DTD SVG 1.1//EN" "http://www.w3.org/Graphics/SVG/1.1/DTD/svg11.dtd">
<svg version="1.1" xmlns="http://www.w3.org/2000/svg" xmlns:xlink="http://www.w3.org/1999/xlink" x="0px" y="0px" width="361px"
	 height="361px" viewBox="0 0 361 361" style="enable-background:new 0 0 361 361;" xml:space="preserve">
<g id="scene_x5F_kitchen_x5F_hood">
	<g>
		<g>
			<path style="fill:none;stroke:#FFFFFF;stroke-width:10;stroke-miterlimit:10;" d="M286.414,219.2
				c0,2.333-1.893,4.225-4.227,4.225H79.479c-2.333,0-4.226-1.892-4.226-4.225v-17.308c0-2.334,1.892-4.226,4.226-4.226h202.708
				c2.334,0,4.227,1.892,4.227,4.226V219.2z"/>
		</g>
	</g>
	<g>
		<g>
			<path style="fill:none;stroke:#FFFFFF;stroke-width:10;stroke-linecap:round;stroke-linejoin:round;stroke-miterlimit:10;" d="
				M123.466,197.836c-1.367,0.001-2.474-1.107-2.474-2.475l40-40.695V76.642c0-1.367,1.107-2.475,2.474-2.475h34.735
				c1.365,0,2.475,1.108,2.475,2.475v78.025l40,40.695c0,1.367-1.109,2.476-2.475,2.476L123.466,197.836z"/>
		</g>
	</g>
	<g>
		<g>
			<g>
				<path style="fill:#FFFFFF;" d="M178.542,247.595c2.721,2.433,5.624,5.767,5.923,9.545c0.283,3.571-3.563,7.44-6.024,9.635
					c-7.311,6.518-10.124,15.108-4.485,23.659c2.473,3.75,8.538,0.247,6.044-3.533c-3.938-5.971-1.563-10.408,3.107-14.914
					c2.209-2.132,4.173-4.353,5.854-6.938c5.182-7.964,0.94-16.675-5.47-22.403C180.139,239.647,175.17,244.581,178.542,247.595
					L178.542,247.595z"/>
			</g>
		</g>
		<g>
			<g>
				<path style="fill:#FFFFFF;" d="M204.981,252.782c2.311,2.069,4.821,4.898,5.095,8.112c0.258,3.025-3.122,6.353-5.198,8.206
					c-6.568,5.865-9.062,13.666-4.002,21.333c2.475,3.749,8.539,0.247,6.045-3.533c-3.338-5.058-1.337-8.73,2.62-12.584
					c1.874-1.824,3.552-3.699,5.038-5.868c4.961-7.241,1.28-15.307-4.648-20.615C206.579,244.831,201.611,249.766,204.981,252.782
					L204.981,252.782z"/>
			</g>
		</g>
		<g>
			<g>
				<path style="fill:#FFFFFF;" d="M150.648,252.782c2.311,2.069,4.821,4.898,5.095,8.112c0.258,3.025-3.123,6.353-5.198,8.206
					c-6.569,5.865-9.061,13.666-4.001,21.333c2.474,3.749,8.539,0.247,6.044-3.533c-3.337-5.058-1.337-8.73,2.62-12.584
					c1.874-1.824,3.552-3.699,5.038-5.868c4.962-7.241,1.28-15.307-4.647-20.615C152.247,244.831,147.279,249.766,150.648,252.782
					L150.648,252.782z"/>
			</g>
		</g>
	</g>
	<g>
		<g>
			<path style="fill:#FFFFFF;" d="M167.07,214.046c4.632,0,9.264,0,13.896,0c4.514,0,4.514-7,0-7c-4.632,0-9.264,0-13.896,0
				C162.556,207.046,162.556,214.046,167.07,214.046L167.07,214.046z"/>
		</g>
	</g>
	<g>
		<g>
			<path style="fill:#FFFFFF;" d="M199.833,214.046c0.834,0,1.669,0,2.503,0c1.908,0,3.5-1.592,3.5-3.5s-1.592-3.5-3.5-3.5
				c-0.834,0-1.669,0-2.503,0c-1.908,0-3.5,1.592-3.5,3.5S197.925,214.046,199.833,214.046L199.833,214.046z"/>
		</g>
	</g>
	<g>
		<g>
			<path style="fill:#FFFFFF;" d="M212.333,214.046c0.748,0,1.495,0,2.243,0c1.908,0,3.5-1.592,3.5-3.5s-1.592-3.5-3.5-3.5
				c-0.748,0-1.495,0-2.243,0c-1.908,0-3.5,1.592-3.5,3.5S210.425,214.046,212.333,214.046L212.333,214.046z"/>
		</g>
	</g>
</g>
<g id="Ebene_1">
</g>
</svg>
