<?xml version="1.0" encoding="iso-8859-1"?>
<!-- Generator: Adobe Illustrator 16.0.0, SVG Export Plug-In . SVG Version: 6.00 Build 0)  -->
<!DOCTYPE svg PUBLIC "-//W3C//DTD SVG 1.1//EN" "http://www.w3.org/Graphics/SVG/1.1/DTD/svg11.dtd">
<svg version="1.1" xmlns="http://www.w3.org/2000/svg" xmlns:xlink="http://www.w3.org/1999/xlink" x="0px" y="0px" width="361px"
	 height="361px" viewBox="0 0 361 361" style="enable-background:new 0 0 361 361;" xml:space="preserve">
<g id="scene_x5F_clothes_x5F_dryer">
	<g>
		<g>
			<path style="fill:#FFFFFF;" d="M257.686,115.265c-48.647,0-97.294,0-145.942,0c-2.517,0-5.034,0-7.551,0c-6.449,0-6.449,10,0,10
				c48.647,0,97.294,0,145.942,0c2.517,0,5.034,0,7.551,0C264.134,125.265,264.134,115.265,257.686,115.265L257.686,115.265z"/>
		</g>
	</g>
	<g>
		<g>
			<path style="fill:#FFFFFF;" d="M252.686,276.238c-0.532,7.91-16.387,5.186-21.503,5.186c-14.594,0-29.187,0-43.779,0
				c-24.468,0-48.936,0-73.403,0c-7.307,0-5.8-8.537-5.8-13.446c0-10.97,0-21.938,0-32.908c0-31.835,0-63.67,0-95.506
				c0-18.101,0-36.202,0-54.303c0-7.789,16.191-5.193,20.83-5.193c14.487,0,28.975,0,43.462,0c24.744,0,49.488,0,74.232,0
				c7.356,0,5.961,8.011,5.961,13.014c0,10.835,0,21.67,0,32.506c0,50.208,0,100.416,0,150.624
				C252.686,276.22,252.686,276.229,252.686,276.238c0,6.448,10,6.448,10,0c0-49.658,0-99.317,0-148.975c0-11.102,0-22.204,0-33.306
				c0-8.689,0.648-17.717-8.697-22.407c-6.351-3.187-16.718-1.483-23.49-1.483c-14.695,0-29.392,0-44.087,0
				c-24.185,0-48.369,0-72.553,0c-8.85,0-15.08,6.593-15.658,15.186c-0.091,1.352,0,2.741,0,4.095c0,9.405,0,18.81,0,28.215
				c0,52.567,0,105.133,0,157.701c0,6.304,2.96,11.797,8.697,14.676c3.232,1.622,6.694,1.483,10.172,1.483
				c11.157,0,22.313,0,33.47,0c29.31,0,58.62,0,87.93,0c2.853,0,5.705,0,8.559,0c8.85,0,15.079-6.593,15.657-15.186
				C263.119,269.798,253.116,269.84,252.686,276.238z"/>
		</g>
	</g>
	<g>
		<g>
			<path style="fill:#FFFFFF;" d="M169.634,102.167c8.715,0,17.43,0,26.146,0c9.686,0,9.771-15.003,0.107-15.003
				c-8.715,0-17.43,0-26.145,0C160.056,87.165,159.97,102.167,169.634,102.167L169.634,102.167z"/>
		</g>
	</g>
	<g id="buegeleisen_3_" style="display:none;">
		<g style="display:inline;">
			<g>
				<path style="fill:#FFFFFF;" d="M253.74,279.667c-0.229,2.271-14.503,0.999-16.25,0.999c-1.748,0.001-16.021,1.273-16.25-0.999
					c-0.854-8.468,0-17.463,0-25.963c0-15.986,0-31.973,0-47.959c0-6.066,0-12.134,0-18.2c0-1.625-0.883-6.16,0.293-7.585
					c0.074-0.089-1.234-0.999,0.46,0.139c-0.136-0.091,1.265,1.149,1.655,1.534c1.773,1.746,3.346,3.713,4.839,5.699
					c4.051,5.388,7.639,11.131,11.136,16.887c5.16,8.495,10.021,17.187,14.636,25.99c0.456,0.871-0.519-3.93-0.519-1.035
					c0,1.706,0,3.413,0,5.119c0,5.852,0,11.703,0,17.555C253.74,261.121,253.74,270.394,253.74,279.667c0,6.448,10,6.448,10,0
					c0-12.158,0-24.315,0-36.474c0-4.989,0-9.979,0-14.97c0-3.185-2.927-6.989-4.371-9.643c-7.63-14.024-15.564-28.286-25.678-40.7
					c-3.882-4.765-9.651-10.675-16.31-7.061c-5.069,2.752-6.142,7.44-6.142,12.654c0,27.693,0,55.387,0,83.08
					c0,8.863-2.157,24.112,11.168,24.112c6.34,0,12.68,0,19.021-0.001c5.582,0,13.565,1.337,18.202-2.488
					c2.727-2.25,3.764-5.079,4.109-8.511C264.387,273.252,254.381,273.314,253.74,279.667z"/>
			</g>
		</g>
		<g style="display:inline;">
			<g>
				<path style="fill:#FFFFFF;" d="M281.832,233.332c0,17.778,0,35.557,0,53.335c0,6.448,10,6.448,10,0c0-17.778,0-35.557,0-53.335
					C291.832,226.884,281.832,226.884,281.832,233.332L281.832,233.332z"/>
			</g>
		</g>
		<g style="display:inline;">
			<g>
				<path style="fill:#FFFFFF;" d="M221.083,291.332c21.806,0,43.611,0.001,65.417,0.001c6.448,0,6.448-10,0-10
					c-21.806,0-43.611-0.001-65.417-0.001C214.635,281.332,214.635,291.332,221.083,291.332L221.083,291.332z"/>
			</g>
		</g>
		<g style="display:inline;">
			<g>
				<path style="fill:#FFFFFF;" d="M260.166,237.104c0,6.757,0,13.513,0,20.27c0,4.514,7,4.514,7,0c0-6.757,0-13.513,0-20.27
					C267.166,232.59,260.166,232.59,260.166,237.104L260.166,237.104z"/>
			</g>
		</g>
	</g>
	<path style="fill:none;stroke:#FFFFFF;stroke-miterlimit:10;" d="M44.239,121.792"/>
	<g>
		<g>
			<path style="fill:#FFFFFF;" d="M238.213,97.59c1.543,0,3.086,0,4.629,0c2.726,0,5-2.274,5-5s-2.274-5-5-5
				c-1.543,0-3.086,0-4.629,0c-2.726,0-5,2.274-5,5S235.487,97.59,238.213,97.59L238.213,97.59z"/>
		</g>
	</g>
	<g>
		<g>
			<path style="fill:#FFFFFF;" d="M134.728,110.667c3.307,0,6.613,0,9.92,0c1.935,0,1.935-3,0-3c-3.307,0-6.613,0-9.92,0
				C132.793,107.667,132.793,110.667,134.728,110.667L134.728,110.667z"/>
		</g>
	</g>
	<g>
		<g>
			<path style="fill:#FFFFFF;" d="M160.644,110.667c3.307,0,6.613,0,9.92,0c1.935,0,1.935-3,0-3c-3.307,0-6.613,0-9.92,0
				C158.709,107.667,158.709,110.667,160.644,110.667L160.644,110.667z"/>
		</g>
	</g>
	<g>
		<g>
			<path style="fill:#FFFFFF;" d="M186.561,110.667c3.307,0,6.613,0,9.92,0c1.935,0,1.935-3,0-3c-3.307,0-6.613,0-9.92,0
				C184.626,107.667,184.626,110.667,186.561,110.667L186.561,110.667z"/>
		</g>
	</g>
	<g>
		<g>
			<path style="fill:#FFFFFF;" d="M212.477,110.667c3.307,0,6.613,0,9.92,0c1.935,0,1.935-3,0-3c-3.307,0-6.613,0-9.92,0
				C210.542,107.667,210.542,110.667,212.477,110.667L212.477,110.667z"/>
		</g>
	</g>
	<g>
		<g>
			<path style="fill:#FFFFFF;" d="M134.728,99.304c3.307,0,6.613,0,9.92,0c1.935,0,1.935-3,0-3c-3.307,0-6.613,0-9.92,0
				C132.793,96.304,132.793,99.304,134.728,99.304L134.728,99.304z"/>
		</g>
	</g>
	<g>
		<g>
			<path style="fill:#FFFFFF;" d="M230.162,243.507c-0.085,0.741-23.723,0.144-25.269,0.144c-15.931,0-31.862,0-47.792,0
				c-1.546,0-25.183,0.598-25.268-0.144c-0.979-8.496,0-17.682,0-26.219c0-5.285-0.204-71.621,0.197-71.621
				c25.154,0,50.308,0,75.462,0c1.33,0,22.67-0.175,22.67,0.158c0,8.735,0,17.47,0,26.206
				C230.162,195.855,230.162,219.682,230.162,243.507c0,6.448,10,6.448,10,0c0-24.707,0-49.414,0-74.121c0-5.888,0-11.777,0-17.665
				c0-3.106,0.359-6.532-0.701-9.501c-3.381-9.458-19.36-6.553-27.057-6.553c-26.533,0-53.066,0-79.599,0
				c-12.081,0-10.973,11.627-10.973,20.05c0,14.805,0,29.61,0,44.415c0,13.113,0,26.227,0,39.339c0,4.361-0.021,8.174,3.392,11.585
				c2.992,2.991,7.34,2.595,11.185,2.595c27.93,0,55.86,0,83.791,0c8.465,0,18.652,1.227,19.962-10.144
				C240.899,237.107,230.891,237.178,230.162,243.507z"/>
		</g>
	</g>
</g>
<g id="Ebene_1">
</g>
</svg>
