<?xml version="1.0" encoding="iso-8859-1"?>
<!-- Generator: Adobe Illustrator 16.0.0, SVG Export Plug-In . SVG Version: 6.00 Build 0)  -->
<!DOCTYPE svg PUBLIC "-//W3C//DTD SVG 1.1//EN" "http://www.w3.org/Graphics/SVG/1.1/DTD/svg11.dtd">
<svg version="1.1" xmlns="http://www.w3.org/2000/svg" xmlns:xlink="http://www.w3.org/1999/xlink" x="0px" y="0px" width="361px"
	 height="361px" viewBox="0 0 361 361" style="enable-background:new 0 0 361 361;" xml:space="preserve">
<g id="scene_x5F_teens_x5F_room">
	<g style="display:none;">
		<g style="display:inline;">
			<g>
				<path style="fill:#FFFFFF;" d="M245.586,240.789c-0.405,4.518-5.74,3.539-8.888,3.539c-4.967,0-9.934,0-14.9,0
					c-2.628,0-5.255,0-7.882,0c-5.081,0-3.537-8.916-3.537-12.084c0-4.515,6.011-3.537,8.887-3.537c4.967,0,9.934,0,14.9,0
					c2.628,0,5.255,0,7.882,0C247.13,228.707,245.586,237.62,245.586,240.789c0,4.514,7,4.514,7,0
					c0-5.829,0.965-11.909-3.528-16.402c-3.683-3.681-10.178-2.68-14.892-2.68c-6.085,0-12.171,0-18.256,0
					c-6.785,0-11.889,3.364-12.531,10.537c-0.5,5.574-0.65,12.224,3.528,16.403c3.681,3.682,10.177,2.681,14.891,2.681
					c6.085,0,12.171,0,18.256,0c6.785,0,11.89-3.366,12.532-10.539C252.989,236.291,245.985,236.33,245.586,240.789z"/>
			</g>
		</g>
		<path style="display:inline;fill:#FFFFFF;stroke:#FFFFFF;stroke-miterlimit:10;" d="M218.189,221.896
			c0,2.742-2.225,4.965-4.967,4.965l0,0c-2.742,0-4.965-2.223-4.965-4.965v-8c0-2.742,2.223-4.965,4.965-4.965l0,0
			c2.742,0,4.967,2.223,4.967,4.965V221.896z"/>
		<g style="display:inline;">
			<g>
				<path style="fill:#FFFFFF;" d="M273.172,241.205c-0.504,4.511-11.476,2.846-14.37,2.846c-2.118,0-6.216,0.435-6.216-2.888
					c0-1.212,0-2.425,0-3.637c0-8.888,0-17.775,0-26.663c0-4.42,11.894-2.846,14.369-2.846c2.117,0,6.217-0.435,6.217,2.888
					c0,1.212,0,2.425,0,3.637C273.172,223.43,273.172,232.317,273.172,241.205c0,4.514,7,4.514,7,0
					c0-10.395,1.012-21.293-0.143-31.621c-1.016-9.075-10.898-8.566-17.633-8.566c-7.623,0-15.75,0.354-16.811,9.846
					c-0.551,4.924,0,10.222,0,15.171c0,5.42-0.46,11.056,0.143,16.45c1.015,9.075,10.898,8.566,17.632,8.566
					c7.624,0,15.751-0.354,16.812-9.846C280.673,236.723,273.668,236.771,273.172,241.205z"/>
			</g>
		</g>
		<g style="display:inline;">
			<g>
				<path style="fill:#FFFFFF;" d="M247.154,207.189c13.609,0,27.219,0,40.828,0c4.514,0,4.514-7,0-7c-13.609,0-27.219,0-40.828,0
					C242.641,200.189,242.641,207.189,247.154,207.189L247.154,207.189z"/>
			</g>
		</g>
		<g style="display:inline;">
			<g>
				<path style="fill:#FFFFFF;" d="M211.98,251.328c19.448,0,38.897,0,58.346,0c4.514,0,4.514-7,0-7c-19.448,0-38.897,0-58.346,0
					C207.467,244.328,207.467,251.328,211.98,251.328L211.98,251.328z"/>
			</g>
		</g>
		<g style="display:inline;">
			<g>
				<path style="fill:#FFFFFF;" d="M217.447,257.758c-0.446,8.295-12.415,8.294-12.861,0
					C204.14,249.461,217.003,249.505,217.447,257.758c0.242,4.489,7.243,4.513,7,0c-0.409-7.591-5.839-13.021-13.43-13.43
					c-7.575-0.408-13.056,6.451-13.432,13.43c-0.408,7.576,6.453,13.056,13.432,13.432c7.575,0.408,13.054-6.454,13.43-13.432
					C224.69,253.245,217.688,253.269,217.447,257.758z"/>
			</g>
		</g>
		<g style="display:inline;">
			<g>
				<path style="fill:#FFFFFF;" d="M270.137,257.758c-0.446,8.295-12.416,8.294-12.862,0
					C256.828,249.461,269.692,249.505,270.137,257.758c0.242,4.489,7.243,4.513,7,0c-0.409-7.592-5.84-13.021-13.431-13.43
					c-7.575-0.408-13.056,6.452-13.432,13.43c-0.408,7.576,6.453,13.056,13.432,13.432c7.576,0.408,13.055-6.453,13.431-13.432
					C277.38,253.245,270.378,253.269,270.137,257.758z"/>
			</g>
		</g>
		<g style="display:inline;">
			<g>
				<path style="fill:#FFFFFF;" d="M243.932,257.758c-0.446,8.294-12.417,8.295-12.863,0
					C230.622,249.461,243.487,249.506,243.932,257.758c0.242,4.489,7.243,4.513,7,0c-0.409-7.592-5.841-13.021-13.432-13.43
					c-7.575-0.408-13.056,6.452-13.432,13.43c-0.408,7.576,6.453,13.056,13.432,13.432c7.575,0.408,13.056-6.453,13.432-13.432
					C251.175,253.245,244.174,253.269,243.932,257.758z"/>
			</g>
		</g>
	</g>
	<g style="display:none;">
		<g style="display:inline;">
			<path style="fill:#FFFFFF;" d="M155.601,185.574c-0.335,15.337-12.33,27.33-27.667,27.666
				c-15.336,0.336-27.342-12.835-27.667-27.666c-0.335-15.336,12.835-27.342,27.667-27.667
				C143.271,157.572,155.277,170.743,155.601,185.574c0.099,4.507,7.099,4.517,7,0c-0.419-19.18-15.487-34.247-34.667-34.667
				c-19.178-0.419-34.261,16.118-34.667,34.667c-0.419,19.179,16.118,34.261,34.667,34.666c19.178,0.42,34.261-16.117,34.667-34.666
				C162.7,181.058,155.7,181.067,155.601,185.574z"/>
		</g>
	</g>
	<g id="Schiff_x5F_orig_2_" style="display:none;">
		<path style="display:inline;fill:#FFFFFF;" d="M212.456,278.088c1.675,2.152,2.474,2.659,4.432,2.659h35.971
			c0.517,0,2.733,0.303,4.06-0.835l23.341-17.279c1.923-1.378,1.479-4.313-2.509-4.313h-75.044c-3.545,0-4.505,2.122-3.094,4.096
			L212.456,278.088z"/>
		<g style="display:inline;">
			<g>
				<path style="fill:#FFFFFF;" d="M243.219,256.145c11.504,0,23.008,0,34.512,0c1.055,0,1.98-1.307,1.295-2.257
					c-11.504-15.955-23.008-31.909-34.512-47.863c-0.832-1.154-2.795-0.837-2.795,0.757c0,15.954,0,31.909,0,47.863
					c0,1.935,3,1.935,3,0c0-15.954,0-31.909,0-47.863c-0.932,0.252-1.863,0.505-2.795,0.757
					c11.504,15.955,23.008,31.909,34.512,47.863c0.432-0.752,0.863-1.505,1.295-2.257c-11.504,0-23.008,0-34.512,0
					C241.284,253.145,241.284,256.145,243.219,256.145z"/>
			</g>
		</g>
		<g style="display:inline;">
			<g>
				<path style="fill:#FFFFFF;" d="M233.848,204.16c0,17.234,0,34.469,0,51.703c0,4.514,7,4.514,7,0c0-17.234,0-34.469,0-51.703
					C240.848,199.646,233.848,199.646,233.848,204.16L233.848,204.16z"/>
			</g>
		</g>
		<g style="display:inline;">
			<g>
				<path style="fill:#FFFFFF;" d="M231.473,253.145c-6.592,0-13.184,0-19.775,0c0.482,0.633,0.964,1.266,1.446,1.898
					c6.592-15.954,13.184-31.908,19.775-47.863c-0.982-0.133-1.964-0.266-2.946-0.398c0,15.954,0,31.909,0,47.863
					c0,1.935,3,1.935,3,0c0-15.954,0-31.909,0-47.863c0-1.816-2.335-1.879-2.946-0.398c-6.592,15.954-13.184,31.908-19.775,47.863
					c-0.381,0.921,0.563,1.898,1.446,1.898c6.592,0,13.184,0,19.775,0C233.407,256.145,233.407,253.145,231.473,253.145z"/>
			</g>
		</g>
	</g>
	<g>
		<path style="fill:#FFFFFF;stroke:#FFFFFF;stroke-width:10;stroke-miterlimit:10;" d="M78.833,189.143
			c0,1.366,1.813,2.474,4.048,2.474h129.997c2.235,0,4.048-1.107,4.048-2.474v-14.429c0-1.367-1.813-2.473-4.048-2.473H82.881
			c-2.235,0-4.048,1.106-4.048,2.473V189.143z"/>
		<path style="fill:#FFFFFF;stroke:#FFFFFF;stroke-width:10;stroke-miterlimit:10;" d="M123.93,170.276
			c0,2.288,1.85,4.144,4.131,4.144h76.074c2.279,0,4.13-1.855,4.13-4.144v-18.299c0-2.289-1.851-4.143-4.13-4.143h-76.074
			c-2.281,0-4.131,1.854-4.131,4.143V170.276z"/>
		<g>
			<g>
				<path style="fill:#FFFFFF;" d="M212.926,148.54c0,17.231,0,34.463,0,51.694c0,6.448,10,6.448,10,0c0-17.231,0-34.463,0-51.694
					C222.926,142.091,212.926,142.091,212.926,148.54L212.926,148.54z"/>
			</g>
		</g>
		<g>
			<g>
				<path style="fill:#FFFFFF;" d="M69.833,143.802c0,18.996,0,37.993,0,56.989c0,6.448,10,6.448,10,0c0-18.996,0-37.993,0-56.989
					C79.833,137.354,69.833,137.354,69.833,143.802L69.833,143.802z"/>
			</g>
		</g>
		<path style="fill:#FFFFFF;stroke:#FFFFFF;stroke-width:10;stroke-miterlimit:10;" d="M84.32,164.314
			c0,0.775,0.59,1.403,1.32,1.403h24.316c0.729,0,1.32-0.628,1.32-1.403v-6.197c0-0.775-0.591-1.403-1.32-1.403H85.64
			c-0.729,0-1.32,0.628-1.32,1.403V164.314z"/>
	</g>
	<g>
		<g>
			<g>
				<path style="fill:#FFFFFF;" d="M194.96,77.292c31.303,0,62.605,0,93.908,0c4.514,0,4.514-7,0-7c-31.303,0-62.605,0-93.908,0
					C190.446,70.292,190.446,77.292,194.96,77.292L194.96,77.292z"/>
			</g>
		</g>
		
			<line style="fill:none;stroke:#FFFFFF;stroke-width:7;stroke-miterlimit:10;" x1="280.271" y1="152.791" x2="194.96" y2="152.791"/>
		
			<line style="fill:none;stroke:#FFFFFF;stroke-width:7;stroke-miterlimit:10;" x1="242.045" y1="73.792" x2="242.045" y2="150.834"/>
		<g>
			<g>
				<path style="fill:#FFFFFF;" d="M239.166,112.833c2.206,0,4.413,0,6.619,0c4.514,0,4.514-7,0-7c-2.206,0-4.413,0-6.619,0
					C234.652,105.833,234.652,112.833,239.166,112.833L239.166,112.833z"/>
			</g>
		</g>
		<g>
			<g>
				<g>
					<path style="fill:#FFFFFF;" d="M289.083,74.417c0,39.5,0,79,0,118.5c0,1.935,3,1.935,3,0c0-39.5,0-79,0-118.5
						C292.083,72.482,289.083,72.482,289.083,74.417L289.083,74.417z"/>
				</g>
			</g>
			<g>
				<g>
					<path style="fill:#FFFFFF;" d="M283.333,76.417c0,37.417,0,74.833,0,112.25c0,1.935,3,1.935,3,0c0-37.417,0-74.833,0-112.25
						C286.333,74.482,283.333,74.482,283.333,76.417L283.333,76.417z"/>
				</g>
			</g>
			<g>
				<g>
					<path style="fill:#FFFFFF;" d="M277.333,75.167c0,37.417,0,74.833,0,112.25c0,1.935,3,1.935,3,0c0-37.417,0-74.833,0-112.25
						C280.333,73.232,277.333,73.232,277.333,75.167L277.333,75.167z"/>
				</g>
			</g>
		</g>
		<g>
			<g>
				<g>
					<path style="fill:#FFFFFF;" d="M191.833,74.417c0,39.5,0,79,0,118.5c0,1.935,3,1.935,3,0c0-39.5,0-79,0-118.5
						C194.833,72.482,191.833,72.482,191.833,74.417L191.833,74.417z"/>
				</g>
			</g>
			<g>
				<g>
					<path style="fill:#FFFFFF;" d="M197.583,76.417c0,37.417,0,74.833,0,112.25c0,1.935,3,1.935,3,0c0-37.417,0-74.833,0-112.25
						C200.583,74.482,197.583,74.482,197.583,76.417L197.583,76.417z"/>
				</g>
			</g>
			<g>
				<g>
					<path style="fill:#FFFFFF;" d="M203.583,75.167c0,37.417,0,74.833,0,112.25c0,1.935,3,1.935,3,0c0-37.417,0-74.833,0-112.25
						C206.583,73.232,203.583,73.232,203.583,75.167L203.583,75.167z"/>
				</g>
			</g>
		</g>
	</g>
	<g>
		<path style="fill:none;stroke:#FFFFFF;stroke-width:3.3165;stroke-miterlimit:10;" d="M131.637,274.611
			c0.422,1.086-0.045,2.281-1.044,2.67l-32.36,12.586c-0.999,0.389-2.151-0.177-2.574-1.262l-23.796-61.185
			c-0.422-1.085,0.045-2.28,1.044-2.67l32.36-12.586c0.999-0.389,2.151,0.177,2.573,1.263L131.637,274.611z"/>
		<path style="fill:#FFFFFF;stroke:#FFFFFF;stroke-width:2.8541;stroke-miterlimit:10;" d="M109.356,218.424
			c0.295,0.759-0.213,1.664-1.135,2.022l-31.527,12.263c-0.922,0.357-1.908,0.034-2.203-0.724l-2.078-5.342
			c-0.295-0.759,0.213-1.664,1.135-2.022l31.527-12.262c0.922-0.359,1.909-0.035,2.204,0.724L109.356,218.424z M99.616,218.633
			c-0.398-1.023-1.468-1.563-2.39-1.205l-14.094,5.482c-0.922,0.358-1.347,1.479-0.948,2.504l0.32,0.824
			c0.399,1.023,1.469,1.563,2.391,1.205l14.094-5.482c0.922-0.357,1.347-1.479,0.949-2.504L99.616,218.633z"/>
		<path style="fill:#FFFFFF;" d="M127.455,268.703L94.51,281.518c-0.964,0.375-1.502,1.302-1.203,2.07l2.106,5.417
			c0.299,0.769,1.323,1.09,2.287,0.715l32.946-12.813c0.963-0.374,1.5-1.303,1.202-2.072l-2.106-5.415
			C129.441,268.648,128.418,268.329,127.455,268.703z M115.798,279.893c0.171,0.441-0.047,0.938-0.488,1.109l-2.679,1.041
			c-0.44,0.172-0.938-0.047-1.109-0.487l-1.042-2.679c-0.172-0.441,0.047-0.938,0.487-1.109l2.679-1.042
			c0.441-0.172,0.938,0.047,1.109,0.487L115.798,279.893z"/>
	</g>
	<g>
		<path style="fill:none;stroke:#FFFFFF;stroke-width:2.905;stroke-miterlimit:10;" d="M254.209,288.363
			c0,0.963-0.78,1.742-1.742,1.742h-48.391c-0.963,0-1.743-0.779-1.743-1.742V265.85c0-0.963,0.78-1.744,1.743-1.744h48.391
			c0.962,0,1.742,0.781,1.742,1.744V288.363z"/>
		<path style="fill:#FFFFFF;" d="M216.689,279.979c0,0.652-0.529,1.18-1.181,1.18l0,0c-0.651,0-1.18-0.527-1.18-1.18l0,0
			c0-0.651,0.528-1.18,1.18-1.18l0,0C216.16,278.799,216.689,279.327,216.689,279.979L216.689,279.979z"/>
		<g>
			<g>
				<path style="fill:#FFFFFF;" d="M209.176,271.803c0.903,0,1.808,0,2.711,0c1.935,0,1.935-3,0-3c-0.903,0-1.808,0-2.711,0
					C207.241,268.803,207.241,271.803,209.176,271.803L209.176,271.803z"/>
			</g>
		</g>
		<path style="fill:#FFFFFF;" d="M222.447,279.979c0,0.652-0.529,1.18-1.181,1.18l0,0c-0.651,0-1.18-0.527-1.18-1.18l0,0
			c0-0.651,0.528-1.18,1.18-1.18l0,0C221.918,278.799,222.447,279.327,222.447,279.979L222.447,279.979z"/>
		<path style="fill:#FFFFFF;" d="M228.204,279.979c0,0.652-0.528,1.18-1.181,1.18l0,0c-0.65,0-1.18-0.527-1.18-1.18l0,0
			c0-0.651,0.529-1.18,1.18-1.18l0,0C227.676,278.799,228.204,279.327,228.204,279.979L228.204,279.979z"/>
		<path style="fill:#FFFFFF;" d="M233.961,279.979c0,0.652-0.527,1.18-1.18,1.18l0,0c-0.651,0-1.18-0.527-1.18-1.18l0,0
			c0-0.651,0.528-1.18,1.18-1.18l0,0C233.434,278.799,233.961,279.327,233.961,279.979L233.961,279.979z"/>
		<path style="fill:#FFFFFF;" d="M239.719,279.979c0,0.652-0.527,1.18-1.18,1.18l0,0c-0.652,0-1.18-0.527-1.18-1.18l0,0
			c0-0.651,0.527-1.18,1.18-1.18l0,0C239.191,278.799,239.719,279.327,239.719,279.979L239.719,279.979z"/>
		<g>
			<g>
				<path style="fill:#FFFFFF;" d="M247.625,273.91c-0.173,3.217-4.815,3.217-4.988,0
					C242.464,270.691,247.452,270.709,247.625,273.91c0.104,1.924,3.104,1.934,3,0c-0.167-3.105-2.389-5.327-5.494-5.494
					c-3.099-0.167-5.341,2.64-5.494,5.494c-0.167,3.099,2.64,5.341,5.494,5.494c3.099,0.167,5.341-2.64,5.494-5.494
					C250.729,271.977,247.729,271.986,247.625,273.91z"/>
			</g>
		</g>
		<g>
			<g>
				<path style="fill:#FFFFFF;" d="M209.225,284.258c0.048-0.716,1.064-0.716,1.112,0
					C210.385,284.975,209.272,284.97,209.225,284.258c0.055,0.815,0.641,1.5,1.5,1.5c0.776,0,1.555-0.684,1.5-1.5
					c-0.094-1.394-1.05-2.35-2.443-2.443c-1.389-0.094-2.36,1.19-2.444,2.443c-0.094,1.389,1.191,2.36,2.444,2.444
					c1.389,0.094,2.359-1.191,2.443-2.444c0.055-0.816-0.724-1.5-1.5-1.5C209.865,282.758,209.279,283.442,209.225,284.258z"/>
			</g>
		</g>
	</g>
	<g>
		<path style="fill:none;stroke:#FFFFFF;stroke-width:2.905;stroke-miterlimit:10;" d="M168.089,290.105
			c-0.963,0-1.743-0.779-1.743-1.742v-38.391c0-0.963,0.78-1.742,1.743-1.742h27.514c0.963,0,1.743,0.779,1.743,1.742v38.391
			c0,0.963-0.78,1.742-1.743,1.742H168.089z"/>
		<g>
			<g>
				<g>
					<path style="fill:#FFFFFF;" d="M191.533,274.106c-0.672,12.485-18.703,12.485-19.375,0c-0.295-5.48,4.638-9.416,9.688-9.688
						C187.326,264.124,191.262,269.057,191.533,274.106c0.104,1.924,3.104,1.934,3,0c-0.88-16.341-24.495-16.341-25.375,0
						c-0.386,7.167,6.087,12.332,12.688,12.688c7.167,0.386,12.332-6.087,12.688-12.688
						C194.638,272.173,191.637,272.183,191.533,274.106z"/>
				</g>
			</g>
			<circle style="fill:#FFFFFF;stroke:#FFFFFF;stroke-width:0.9575;stroke-miterlimit:10;" cx="181.846" cy="274.106" r="3.688"/>
			<g>
				<g>
					<path style="fill:#FFFFFF;" d="M182.842,255.758c-0.069,1.288-1.924,1.288-1.993,0
						C180.779,254.468,182.772,254.477,182.842,255.758c0.104,1.924,3.104,1.934,3,0c-0.122-2.257-1.739-3.874-3.996-3.996
						c-2.252-0.121-3.885,1.921-3.997,3.996c-0.121,2.253,1.921,3.885,3.997,3.996c2.252,0.121,3.885-1.921,3.996-3.996
						C185.946,253.824,182.945,253.834,182.842,255.758z"/>
				</g>
			</g>
		</g>
	</g>
	<g>
		<path style="fill:none;stroke:#FFFFFF;stroke-width:2.905;stroke-miterlimit:10;" d="M260.964,290.105
			c-0.963,0-1.743-0.779-1.743-1.742v-38.391c0-0.963,0.78-1.742,1.743-1.742h27.514c0.963,0,1.743,0.779,1.743,1.742v38.391
			c0,0.963-0.78,1.742-1.743,1.742H260.964z"/>
		<g>
			<g>
				<g>
					<path style="fill:#FFFFFF;" d="M284.408,274.106c-0.672,12.485-18.703,12.485-19.375,0c-0.295-5.48,4.638-9.416,9.688-9.688
						C280.201,264.124,284.137,269.057,284.408,274.106c0.104,1.924,3.104,1.934,3,0c-0.88-16.341-24.495-16.341-25.375,0
						c-0.386,7.167,6.087,12.332,12.688,12.688c7.167,0.386,12.332-6.087,12.688-12.688
						C287.513,272.173,284.512,272.183,284.408,274.106z"/>
				</g>
			</g>
			<circle style="fill:#FFFFFF;stroke:#FFFFFF;stroke-width:0.9575;stroke-miterlimit:10;" cx="274.721" cy="274.106" r="3.688"/>
			<g>
				<g>
					<path style="fill:#FFFFFF;" d="M275.717,255.758c-0.069,1.288-1.924,1.288-1.993,0
						C273.654,254.468,275.647,254.477,275.717,255.758c0.104,1.924,3.104,1.934,3,0c-0.122-2.257-1.739-3.874-3.996-3.996
						c-2.253-0.121-3.886,1.921-3.997,3.996c-0.121,2.253,1.922,3.885,3.997,3.996c2.252,0.121,3.885-1.921,3.996-3.996
						C278.821,253.824,275.82,253.834,275.717,255.758z"/>
				</g>
			</g>
		</g>
	</g>
</g>
<g id="Ebene_1">
</g>
</svg>
