<?xml version="1.0" encoding="iso-8859-1"?>
<!-- Generator: Adobe Illustrator 16.0.0, SVG Export Plug-In . SVG Version: 6.00 Build 0)  -->
<!DOCTYPE svg PUBLIC "-//W3C//DTD SVG 1.1//EN" "http://www.w3.org/Graphics/SVG/1.1/DTD/svg11.dtd">
<svg version="1.1" xmlns="http://www.w3.org/2000/svg" xmlns:xlink="http://www.w3.org/1999/xlink" x="0px" y="0px" width="361px"
	 height="361px" viewBox="0 0 361 361" style="enable-background:new 0 0 361 361;" xml:space="preserve">
<g id="scene_x5F_aquarium">
	<g style="display:none;">
		<g style="display:inline;">
			<g>
				<path style="fill:#FFFFFF;" d="M112.641,180.659c0.331,0,0.662,0,0.993,0c1.935,0,1.935-3,0-3c-0.331,0-0.662,0-0.993,0
					C110.707,177.659,110.707,180.659,112.641,180.659L112.641,180.659z"/>
			</g>
		</g>
	</g>
	<g style="display:none;">
		<g style="display:inline;">
			<g>
				<path style="fill:#FFFFFF;" d="M107.137,168.236c1.886,0,3.773,0,5.659,0c1.935,0,1.935-3,0-3c-1.886,0-3.773,0-5.659,0
					C105.202,165.236,105.202,168.236,107.137,168.236L107.137,168.236z"/>
			</g>
		</g>
	</g>
	<g style="display:none;">
		<g style="display:inline;">
			<g>
				<path style="fill:#FFFFFF;" d="M140.058,155.813c48.251,0,96.502,0,144.753,0c1.714,0,3.427,0,5.141,0c1.935,0,1.935-3,0-3
					c-48.251,0-96.502,0-144.753,0c-1.714,0-3.427,0-5.141,0C138.123,152.813,138.123,155.813,140.058,155.813L140.058,155.813z"/>
			</g>
		</g>
		<g style="display:inline;">
			<g>
				<path style="fill:#FFFFFF;" d="M96.218,155.813c5.298,0,10.596,0,15.894,0c1.935,0,1.935-3,0-3c-5.298,0-10.596,0-15.894,0
					C94.283,152.813,94.283,155.813,96.218,155.813L96.218,155.813z"/>
			</g>
		</g>
		<g style="display:inline;">
			<g>
				<path style="fill:#FFFFFF;" d="M122.935,156.184c1.378,0,2.756,0,4.134,0c1.935,0,1.935-3,0-3c-1.378,0-2.756,0-4.134,0
					C121,153.184,121,156.184,122.935,156.184L122.935,156.184z"/>
			</g>
		</g>
	</g>
	<g>
		<g>
			<g>
				<path style="fill:#FFFFFF;" d="M103.236,160.427c3.213,1.219,6.427,2.438,9.641,3.656c1.203,0.456,1.658,0.387,2.828-0.288
					c3.246-1.872,6.892-3.082,10.447-4.211c7.825-2.487,15.488-2.982,23.583-1.612c5.844,0.99,17.903,4.038,18.45,11.517
					c0.502,6.873-12.141,10.096-16.835,11.193c-8.551,1.998-16.824,1.186-25.144-1.275c-3.267-0.966-6.458-2.214-9.518-3.707
					c-1.149-0.561-1.988-1.423-3.274-0.936c-3.393,1.287-6.785,2.573-10.177,3.86c0.633,0.482,1.266,0.964,1.899,1.446
					c0-7.03,0-14.06,0-21.09c0-1.935-3-1.935-3,0c0,7.03,0,14.06,0,21.09c0,0.906,0.972,1.798,1.899,1.447
					c1.608-0.61,3.216-1.22,4.825-1.83c1.183-0.449,2.366-0.897,3.549-1.346c0.987-0.374,1.83-0.543,1.858-0.527
					c6.382,3.653,14.381,6.018,21.653,6.802c10.045,1.083,34.25-1.234,35.265-15.127c0.396-5.416-5.894-9.176-9.958-11.123
					c-7.593-3.637-17.004-4.899-25.325-4.002c-7.163,0.772-14.354,3.195-20.802,6.361c-1.323,0.65-0.275,0.901-1.424,0.466
					c-1.308-0.496-2.616-0.992-3.924-1.488c-1.905-0.723-3.811-1.445-5.716-2.167C102.222,156.847,101.446,159.749,103.236,160.427z
					"/>
			</g>
		</g>
		<g>
			<g>
				<path style="fill:#FFFFFF;" d="M149.235,163.631c0.156,1.352,0.928,2.415,2.354,2.579c0.57,0.066,1.154,0.029,1.727,0.029
					c0.56,0,1.119,0,1.679,0c1.535,0,2.446-1.204,2.608-2.608c0.154-1.334-1.159-2.44-2.354-2.578
					c-0.57-0.066-1.154-0.029-1.727-0.029c-0.56,0-1.119,0-1.679,0C150.308,161.024,149.396,162.228,149.235,163.631
					c-0.094,0.814,0.753,1.5,1.5,1.5c0.889,0,1.406-0.688,1.5-1.5c-0.056,0.481-0.702,0.393-0.01,0.393c0.363,0,0.727,0,1.091,0
					c0.382,0,0.765,0,1.147,0c0.128,0,0.257,0,0.385,0c0.398,0-0.196,0.036-0.245-0.393c-0.053-0.458,0.755-0.392,0.01-0.392
					c-0.363,0-0.727,0-1.091,0c-0.382,0-0.765,0-1.147,0c-0.128,0-0.257,0-0.385,0c-0.399,0,0.196-0.036,0.246,0.392
					c-0.093-0.812-0.612-1.5-1.5-1.5C149.988,162.131,149.141,162.817,149.235,163.631z"/>
			</g>
		</g>
		<g>
			<g>
				<path style="fill:#FFFFFF;" d="M148.111,154.489c-2.641-2.19-4.231-4.066-7.631-4.365c-3.986-0.351-7.972-0.702-11.958-1.053
					c-1.324-0.117-1.96,1.708-1.061,2.561c1.904,1.807,4.28,5.418,7.097,5.418c4.164,0,8.329,0,12.493,0c1.935,0,1.935-3,0-3
					c-3.688,0-7.377,0-11.065,0c-0.669,0-1.338,0-2.007,0c0.537,0,1.101,0.675-0.068-0.434c-1.442-1.368-2.885-2.737-4.328-4.105
					c-0.354,0.854-0.707,1.707-1.061,2.561c3.601,0.317,7.201,0.634,10.802,0.951c0.829,0.073,1.657,0.146,2.485,0.219
					c1.522,0.134-0.613-0.606,0-0.098c1.394,1.156,2.787,2.312,4.181,3.468C147.467,157.835,149.602,155.725,148.111,154.489z"/>
			</g>
		</g>
		<g>
			<g>
				<path style="fill:#FFFFFF;" d="M142.916,182.328c-1.032,0.958-2.063,1.915-3.095,2.873c-1.064,0.988,1.135-0.045,0.245,0.042
					c-0.579,0.058-1.158,0.114-1.737,0.172c-3.012,0.296-6.023,0.593-9.035,0.89c0.354,0.854,0.707,1.707,1.061,2.561
					c0.948-1.006,1.895-2.013,2.843-3.019c0.423-0.449,0.846-0.898,1.269-1.348c-0.48,0.51-1.43,0.39-0.653,0.39
					c0.322,0,0.645,0,0.967,0c3.065,0,6.13,0,9.196,0c1.935,0,1.935-3,0-3c-3.3,0-6.6,0-9.899,0c-2.436,0-4.307,3.224-5.843,4.855
					c-0.82,0.87-0.319,2.696,1.061,2.561c3.158-0.312,6.317-0.622,9.475-0.934c0.895-0.088,2.053-0.009,2.75-0.655
					c1.173-1.089,2.345-2.178,3.518-3.267C146.457,183.131,144.331,181.014,142.916,182.328z"/>
			</g>
		</g>
	</g>
	<g>
		<g>
			<path style="fill:#FFFFFF;" d="M288.766,247.966c-0.696,6.926-13.408,4.702-17.979,4.702c-11.826,0-23.652,0-35.479,0
				c-32.024,0-64.049,0-96.073,0c-20.124,0-40.248,0-60.371,0c-7.623,0-5.586-11.042-5.586-16.002c0-13.704,0-27.407,0-41.11
				c0-26.591,0-53.182,0-79.772c0-3.255,0.303-7.102,4.994-7.102c1.942,0,3.883,0,5.825,0c9.833,0,19.667,0,29.5,0
				c55.248,0,110.496,0,165.743,0c1.562,0,3.122,0,4.684,0c5.257,0,4.741,5.037,4.741,8.399c0,11.195,0,22.391,0,33.586
				c0,29.412,0,58.824,0,88.236C288.766,241.925,288.766,244.945,288.766,247.966c0,1.935,3,1.935,3,0c0-44.848,0-89.695,0-134.542
				c0-8.518-8.758-7.742-14.578-7.742c-10.102,0-20.204,0-30.306,0c-31.482,0-62.964,0-94.446,0c-23.456,0-46.912,0-70.368,0
				c-5.923,0-11.79,1.135-11.79,8.66c0,9.203,0,18.407,0,27.61c0,30.326,0,60.653,0,90.979c0,5.965-2.073,16.903,3.166,21.239
				c3.494,2.891,11.716,1.498,15.796,1.498c56.93,0,113.86,0,170.791,0c6.648,0,13.296,0,19.944,0c5.585,0,11.081-0.652,11.79-7.702
				C291.959,246.041,288.957,246.06,288.766,247.966z"/>
		</g>
	</g>
	<g>
		<g>
			<g>
				<g>
					<path style="fill:#FFFFFF;" d="M100.14,247.922c1.501-8.044,2.739-16.821,6.43-24.231c1.79-3.593,4.821-5.469,8.007-7.673
						c1.579-1.093,0.081-3.694-1.515-2.59c-3.251,2.249-6.332,4.212-8.467,7.642c-4.652,7.472-5.774,17.625-7.347,26.056
						C96.894,249.016,99.785,249.822,100.14,247.922L100.14,247.922z"/>
				</g>
			</g>
			<g>
				<g>
					<path style="fill:#FFFFFF;" d="M95.753,241.725c1.272-6.691,2.49-14.734,7.138-20.06c2.833-3.246,7.448-4.12,11.327-5.496
						c1.81-0.642,1.03-3.541-0.798-2.893c-4.3,1.525-8.746,2.581-12.172,5.773c-5.635,5.249-7.039,14.784-8.387,21.878
						C92.501,242.817,95.392,243.624,95.753,241.725L95.753,241.725z"/>
				</g>
			</g>
			<g>
				<g>
					<path style="fill:#FFFFFF;" d="M84.27,238.709c-0.036-4.676-0.104-9.962-2.447-14.168c-0.521-0.935-1.27-1.74-2.125-2.375
						c-0.278-0.206-0.565-0.395-0.859-0.578c-0.456-0.286-0.184-0.293-0.127,0.219c-0.209-1.901-3.212-1.922-3,0
						c0.188,1.704,1.418,2.044,2.553,3.04c3.403,2.984,2.974,9.896,3.004,13.862C81.285,240.643,84.285,240.645,84.27,238.709
						L84.27,238.709z"/>
				</g>
			</g>
			<g>
				<g>
					<path style="fill:#FFFFFF;" d="M88.084,238.311c-0.753-4.009-1.117-9.289-3.6-12.731c-1.508-2.09-4.309-3.133-6.211-4.833
						c-1.438-1.285-3.566,0.829-2.121,2.121c1.727,1.543,3.95,2.526,5.6,4.099c0.853,0.813,1.179,2.14,1.505,3.223
						c0.876,2.905,1.375,5.942,1.935,8.919C85.548,241.008,88.439,240.201,88.084,238.311L88.084,238.311z"/>
				</g>
			</g>
			<g>
				<g>
					<path style="fill:#FFFFFF;" d="M90.744,242.223c-0.021-6.788,0.338-14.309-1.911-20.839c-1.065-3.092-3.336-5.133-5.603-7.354
						c-1.382-1.355-3.504,0.765-2.121,2.121c2.081,2.041,4.055,3.779,5.032,6.615c2.071,6.014,1.583,13.213,1.602,19.457
						C87.75,244.157,90.75,244.157,90.744,242.223L90.744,242.223z"/>
				</g>
			</g>
			<g>
				<g>
					<path style="fill:#FFFFFF;" d="M93.646,244.842c-0.03-7.15,0.325-15.489-2.602-22.223c-1.667-3.836-4.696-5.998-7.813-8.59
						c-1.476-1.228-3.61,0.883-2.121,2.121c2.517,2.094,5.197,3.862,6.801,6.804c3.389,6.217,2.707,15.101,2.735,21.888
						C90.654,246.776,93.654,246.776,93.646,244.842L93.646,244.842z"/>
				</g>
			</g>
		</g>
		<g>
			<g>
				<g>
					<path style="fill:#FFFFFF;" d="M249.266,252.802c5.253,0,10.507,0,15.76,0c4.514,0,4.514-7,0-7c-5.253,0-10.507,0-15.76,0
						C244.752,245.802,244.752,252.802,249.266,252.802L249.266,252.802z"/>
				</g>
			</g>
			<g>
				<g>
					<path style="fill:#FFFFFF;" d="M78.949,249.023c2.302,0,4.603,0,6.905,0c4.514,0,4.514-7,0-7c-2.302,0-4.603,0-6.905,0
						C74.435,242.023,74.435,249.023,78.949,249.023L78.949,249.023z"/>
				</g>
			</g>
			<g>
				<g>
					<path style="fill:#FFFFFF;" d="M105.071,246.068c2.542,0,5.083,0,7.625,0c4.514,0,4.514-7,0-7c-2.542,0-5.083,0-7.625,0
						C100.557,239.068,100.557,246.068,105.071,246.068L105.071,246.068z"/>
				</g>
			</g>
			<g>
				<g>
					<path style="fill:#FFFFFF;" d="M126.542,253.787c1.97,0,3.94,0,5.91,0c4.514,0,4.514-7,0-7c-1.97,0-3.94,0-5.91,0
						C122.028,246.787,122.028,253.787,126.542,253.787L126.542,253.787z"/>
				</g>
			</g>
			<g>
				<g>
					<path style="fill:#FFFFFF;" d="M276.256,243.961c-2.955,0-5.91,0-8.865,0c-4.514,0-4.514,7,0,7c2.955,0,5.91,0,8.865,0
						C280.77,250.961,280.77,243.961,276.256,243.961L276.256,243.961z"/>
				</g>
			</g>
			<g>
				<g>
					<path style="fill:#FFFFFF;" d="M81.739,243.236c0.657,0,1.313,0,1.97,0c1.908,0,3.5-1.592,3.5-3.5s-1.592-3.5-3.5-3.5
						c-0.657,0-1.313,0-1.97,0c-1.908,0-3.5,1.592-3.5,3.5S79.832,243.236,81.739,243.236L81.739,243.236z"/>
				</g>
			</g>
			<g>
				<g>
					<path style="fill:#FFFFFF;" d="M98.486,242.406c-0.657,0-1.313,0-1.97,0c-1.908,0-3.5,1.592-3.5,3.5s1.592,3.5,3.5,3.5
						c0.657,0,1.313,0,1.97,0c1.908,0,3.5-1.592,3.5-3.5S100.394,242.406,98.486,242.406L98.486,242.406z"/>
				</g>
			</g>
			<g>
				<g>
					<path style="fill:#FFFFFF;" d="M199.523,246.787c-1.97,0-3.94,0-5.91,0c-4.514,0-4.514,7,0,7c1.97,0,3.94,0,5.91,0
						C204.037,253.787,204.037,246.787,199.523,246.787L199.523,246.787z"/>
				</g>
			</g>
			<g>
				<g>
					<path style="fill:#FFFFFF;" d="M209.129,253.82c5.253,0,10.507,0,15.76,0c4.514,0,4.514-7,0-7c-5.253,0-10.507,0-15.76,0
						C204.615,246.82,204.615,253.82,209.129,253.82L209.129,253.82z"/>
				</g>
			</g>
			<g>
				<g>
					<path style="fill:#FFFFFF;" d="M218.281,250.093c0.657,0,1.313,0,1.971,0c1.908,0,3.5-1.592,3.5-3.5s-1.592-3.5-3.5-3.5
						c-0.657,0-1.313,0-1.971,0c-1.908,0-3.5,1.592-3.5,3.5S216.373,250.093,218.281,250.093L218.281,250.093z"/>
				</g>
			</g>
			<g>
				<g>
					<path style="fill:#FFFFFF;" d="M236.627,244.678c-1.97,0-3.94,0-5.91,0c-4.514,0-4.514,7,0,7c1.97,0,3.94,0,5.91,0
						C241.141,251.678,241.141,244.678,236.627,244.678L236.627,244.678z"/>
				</g>
			</g>
			<g>
				<g>
					<path style="fill:#FFFFFF;" d="M140.147,238.111c-2.955,0-5.91,0-8.865,0c-4.514,0-4.514,7,0,7c2.955,0,5.91,0,8.865,0
						C144.661,245.111,144.661,238.111,140.147,238.111L140.147,238.111z"/>
				</g>
			</g>
			<g>
				<g>
					<path style="fill:#FFFFFF;" d="M156.419,237.982c-1.97,0-3.94,0-5.91,0c-4.514,0-4.514,7,0,7c1.97,0,3.94,0,5.91,0
						C160.934,244.982,160.934,237.982,156.419,237.982L156.419,237.982z"/>
				</g>
			</g>
			<g>
				<g>
					<path style="fill:#FFFFFF;" d="M143.286,236.072c-0.657,0-1.313,0-1.97,0c-1.908,0-3.5,1.592-3.5,3.5s1.592,3.5,3.5,3.5
						c0.657,0,1.313,0,1.97,0c1.908,0,3.5-1.592,3.5-3.5S145.194,236.072,143.286,236.072L143.286,236.072z"/>
				</g>
			</g>
			<g>
				<g>
					<path style="fill:#FFFFFF;" d="M149.032,253.787c1.97,0,3.94,0,5.91,0c4.514,0,4.514-7,0-7c-1.97,0-3.94,0-5.91,0
						C144.518,246.787,144.518,253.787,149.032,253.787L149.032,253.787z"/>
				</g>
			</g>
			<g>
				<g>
					<path style="fill:#FFFFFF;" d="M90.837,253.622c5.007,0,10.014,0,15.021,0c4.514,0,4.514-7,0-7c-5.007,0-10.014,0-15.021,0
						C86.323,246.622,86.323,253.622,90.837,253.622L90.837,253.622z"/>
				</g>
			</g>
			<g>
				<g>
					<path style="fill:#FFFFFF;" d="M181.879,246.813c2.955,0,5.91,0,8.865,0c4.514,0,4.514-7,0-7c-2.955,0-5.91,0-8.865,0
						C177.365,239.813,177.365,246.813,181.879,246.813L181.879,246.813z"/>
				</g>
			</g>
			<g>
				<g>
					<path style="fill:#FFFFFF;" d="M163.493,253.82c5.253,0,10.506,0,15.759,0c4.514,0,4.514-7,0-7c-5.253,0-10.506,0-15.759,0
						C158.979,246.82,158.979,253.82,163.493,253.82L163.493,253.82z"/>
				</g>
			</g>
			<g>
				<g>
					<path style="fill:#FFFFFF;" d="M158.882,249.906c1.97,0,3.94,0,5.91,0c4.514,0,4.514-7,0-7c-1.97,0-3.94,0-5.91,0
						C154.368,242.906,154.368,249.906,158.882,249.906L158.882,249.906z"/>
				</g>
			</g>
			<g>
				<g>
					<path style="fill:#FFFFFF;" d="M176.955,249.647c0.657,0,1.313,0,1.97,0c1.908,0,3.5-1.592,3.5-3.5s-1.592-3.5-3.5-3.5
						c-0.657,0-1.313,0-1.97,0c-1.908,0-3.5,1.592-3.5,3.5S175.047,249.647,176.955,249.647L176.955,249.647z"/>
				</g>
			</g>
			<g>
				<g>
					<path style="fill:#FFFFFF;" d="M195.423,244.678c-1.97,0-3.94,0-5.91,0c-4.514,0-4.514,7,0,7c1.97,0,3.94,0,5.91,0
						C199.937,251.678,199.937,244.678,195.423,244.678L195.423,244.678z"/>
				</g>
			</g>
			<g>
				<g>
					<path style="fill:#FFFFFF;" d="M151.002,245.967c5.253,0,10.506,0,15.76,0c4.514,0,4.514-7,0-7c-5.253,0-10.506,0-15.76,0
						C146.488,238.967,146.488,245.967,151.002,245.967L151.002,245.967z"/>
				</g>
			</g>
			<g>
				<g>
					<path style="fill:#FFFFFF;" d="M122.546,241.348c-2.955,0-5.91,0-8.865,0c-4.514,0-4.514,7,0,7c2.955,0,5.91,0,8.865,0
						C127.06,248.348,127.06,241.348,122.546,241.348L122.546,241.348z"/>
				</g>
			</g>
			<g>
				<g>
					<path style="fill:#FFFFFF;" d="M92.256,243.093c-1.806,0-3.612,0-5.417,0c-1.908,0-3.5,1.592-3.5,3.5s1.592,3.5,3.5,3.5
						c1.806,0,3.612,0,5.417,0c1.908,0,3.5-1.592,3.5-3.5S94.164,243.093,92.256,243.093L92.256,243.093z"/>
				</g>
			</g>
			<g>
				<g>
					<path style="fill:#FFFFFF;" d="M147.24,243.961c-0.657,0-1.313,0-1.97,0c-1.908,0-3.5,1.592-3.5,3.5s1.592,3.5,3.5,3.5
						c0.657,0,1.313,0,1.97,0c1.908,0,3.5-1.592,3.5-3.5S149.148,243.961,147.24,243.961L147.24,243.961z"/>
				</g>
			</g>
			<g>
				<g>
					<path style="fill:#FFFFFF;" d="M150.934,237.92c-0.657,0-1.313,0-1.97,0c-1.908,0-3.5,1.592-3.5,3.5s1.592,3.5,3.5,3.5
						c0.657,0,1.313,0,1.97,0c1.908,0,3.5-1.592,3.5-3.5S152.841,237.92,150.934,237.92L150.934,237.92z"/>
				</g>
			</g>
			<g>
				<g>
					<path style="fill:#FFFFFF;" d="M109.987,253.622c1.806,0,3.612,0,5.418,0c1.908,0,3.5-1.592,3.5-3.5s-1.592-3.5-3.5-3.5
						c-1.806,0-3.612,0-5.418,0c-1.908,0-3.5,1.592-3.5,3.5S108.079,253.622,109.987,253.622L109.987,253.622z"/>
				</g>
			</g>
			<g>
				<g>
					<path style="fill:#FFFFFF;" d="M76.776,253.622c0.657,0,1.313,0,1.97,0c1.908,0,3.5-1.592,3.5-3.5s-1.592-3.5-3.5-3.5
						c-0.657,0-1.313,0-1.97,0c-1.908,0-3.5,1.592-3.5,3.5S74.869,253.622,76.776,253.622L76.776,253.622z"/>
				</g>
			</g>
			<g>
				<g>
					<path style="fill:#FFFFFF;" d="M97.499,248.102c0.657,0,1.313,0,1.97,0c1.908,0,3.5-1.592,3.5-3.5s-1.592-3.5-3.5-3.5
						c-0.657,0-1.313,0-1.97,0c-1.908,0-3.5,1.592-3.5,3.5S95.591,248.102,97.499,248.102L97.499,248.102z"/>
				</g>
			</g>
			<g>
				<g>
					<path style="fill:#FFFFFF;" d="M108.58,239.068c-1.806,0-3.612,0-5.418,0c-1.908,0-3.5,1.592-3.5,3.5s1.592,3.5,3.5,3.5
						c1.806,0,3.612,0,5.418,0c1.908,0,3.5-1.592,3.5-3.5S110.488,239.068,108.58,239.068L108.58,239.068z"/>
				</g>
			</g>
			<g>
				<g>
					<path style="fill:#FFFFFF;" d="M253.371,249.42c0.657,0,1.313,0,1.971,0c1.908,0,3.5-1.592,3.5-3.5s-1.592-3.5-3.5-3.5
						c-0.657,0-1.313,0-1.971,0c-1.908,0-3.5,1.592-3.5,3.5S251.463,249.42,253.371,249.42L253.371,249.42z"/>
				</g>
			</g>
			<g>
				<g>
					<path style="fill:#FFFFFF;" d="M214.628,239.068c-3.666,0-7.332,0-10.998,0c-4.514,0-4.514,7,0,7c3.666,0,7.332,0,10.998,0
						C219.142,246.068,219.142,239.068,214.628,239.068L214.628,239.068z"/>
				</g>
			</g>
			<g>
				<g>
					<path style="fill:#FFFFFF;" d="M144.657,242.647c-3.666,0-7.333,0-10.999,0c-4.514,0-4.514,7,0,7c3.666,0,7.333,0,10.999,0
						C149.171,249.647,149.171,242.647,144.657,242.647L144.657,242.647z"/>
				</g>
			</g>
			<g>
				<g>
					<path style="fill:#FFFFFF;" d="M179.524,246.709c2,0,4,0,6,0c1.908,0,3.5-1.592,3.5-3.5s-1.592-3.5-3.5-3.5c-2,0-4,0-6,0
						c-1.908,0-3.5,1.592-3.5,3.5S177.616,246.709,179.524,246.709L179.524,246.709z"/>
				</g>
			</g>
			<g>
				<g>
					<path style="fill:#FFFFFF;" d="M175.586,220.834c-0.667,0-1.333,0-2,0c-1.908,0-3.5,1.592-3.5,3.5s1.592,3.5,3.5,3.5
						c0.667,0,1.333,0,2,0c1.908,0,3.5-1.592,3.5-3.5S177.494,220.834,175.586,220.834L175.586,220.834z"/>
				</g>
			</g>
			<g>
				<g>
					<path style="fill:#FFFFFF;" d="M171.565,234.397c1.833,0,3.667,0,5.5,0c1.908,0,3.5-1.592,3.5-3.5s-1.592-3.5-3.5-3.5
						c-1.833,0-3.667,0-5.5,0c-1.908,0-3.5,1.592-3.5,3.5S169.657,234.397,171.565,234.397L171.565,234.397z"/>
				</g>
			</g>
			<g>
				<g>
					<path style="fill:#FFFFFF;" d="M158.563,229.541c-3,0-6,0-9,0c-4.514,0-4.514,7,0,7c3,0,6,0,9,0
						C163.077,236.541,163.077,229.541,158.563,229.541L158.563,229.541z"/>
				</g>
			</g>
			<g>
				<g>
					<path style="fill:#FFFFFF;" d="M170.514,242.909c-3.366,0-6.731,0-10.097,0c-4.514,0-4.514,7,0,7c3.366,0,6.731,0,10.097,0
						C175.028,249.909,175.028,242.909,170.514,242.909L170.514,242.909z"/>
				</g>
			</g>
			<g>
				<g>
					<path style="fill:#FFFFFF;" d="M161.75,235.672c-0.667,0-1.333,0-2,0c-1.908,0-3.5,1.592-3.5,3.5s1.592,3.5,3.5,3.5
						c0.667,0,1.333,0,2,0c1.908,0,3.5-1.592,3.5-3.5S163.657,235.672,161.75,235.672L161.75,235.672z"/>
				</g>
			</g>
			<g>
				<g>
					<path style="fill:#FFFFFF;" d="M147.25,243.672c2,0,4,0,6,0c1.908,0,3.5-1.592,3.5-3.5s-1.592-3.5-3.5-3.5c-2,0-4,0-6,0
						c-1.908,0-3.5,1.592-3.5,3.5S145.342,243.672,147.25,243.672L147.25,243.672z"/>
				</g>
			</g>
			<g>
				<g>
					<path style="fill:#FFFFFF;" d="M169.347,221.466c-3.722,0-7.444,0-11.166,0c-4.514,0-4.514,7,0,7c3.722,0,7.444,0,11.166,0
						C173.861,228.466,173.861,221.466,169.347,221.466L169.347,221.466z"/>
				</g>
			</g>
			<g>
				<g>
					<path style="fill:#FFFFFF;" d="M170.356,223.828c1.083,0,2.167,0,3.25,0c1.908,0,3.5-1.592,3.5-3.5s-1.592-3.5-3.5-3.5
						c-1.083,0-2.167,0-3.25,0c-1.908,0-3.5,1.592-3.5,3.5S168.449,223.828,170.356,223.828L170.356,223.828z"/>
				</g>
			</g>
			<g>
				<g>
					<path style="fill:#FFFFFF;" d="M171.315,242.453c3.278,0,6.555,0,9.833,0c4.514,0,4.514-7,0-7c-3.278,0-6.555,0-9.833,0
						C166.801,235.453,166.801,242.453,171.315,242.453L171.315,242.453z"/>
				</g>
			</g>
			<g>
				<g>
					<path style="fill:#FFFFFF;" d="M192.629,244.92c0.657,0,1.313,0,1.971,0c1.908,0,3.5-1.592,3.5-3.5s-1.592-3.5-3.5-3.5
						c-0.657,0-1.313,0-1.971,0c-1.908,0-3.5,1.592-3.5,3.5S190.721,244.92,192.629,244.92L192.629,244.92z"/>
				</g>
			</g>
			<g>
				<g>
					<path style="fill:#FFFFFF;" d="M220.252,248.348c0.656,0,1.313,0,1.97,0c1.908,0,3.5-1.592,3.5-3.5s-1.592-3.5-3.5-3.5
						c-0.656,0-1.313,0-1.97,0c-1.908,0-3.5,1.592-3.5,3.5S218.344,248.348,220.252,248.348L220.252,248.348z"/>
				</g>
			</g>
			<g>
				<g>
					<path style="fill:#FFFFFF;" d="M262.235,250.893c0.656,0,1.313,0,1.97,0c1.908,0,3.5-1.592,3.5-3.5s-1.592-3.5-3.5-3.5
						c-0.656,0-1.313,0-1.97,0c-1.908,0-3.5,1.592-3.5,3.5S260.327,250.893,262.235,250.893L262.235,250.893z"/>
				</g>
			</g>
			<g>
				<g>
					<path style="fill:#FFFFFF;" d="M243.426,250.893c0.657,0,1.313,0,1.971,0c1.908,0,3.5-1.592,3.5-3.5s-1.592-3.5-3.5-3.5
						c-0.657,0-1.313,0-1.971,0c-1.908,0-3.5,1.592-3.5,3.5S241.518,250.893,243.426,250.893L243.426,250.893z"/>
				</g>
			</g>
			<g>
				<g>
					<path style="fill:#FFFFFF;" d="M78.977,240.099c-0.657,0-1.313,0-1.97,0c-1.908,0-3.5,1.592-3.5,3.5s1.592,3.5,3.5,3.5
						c0.657,0,1.313,0,1.97,0c1.908,0,3.5-1.592,3.5-3.5S80.884,240.099,78.977,240.099L78.977,240.099z"/>
				</g>
			</g>
			<g>
				<g>
					<path style="fill:#FFFFFF;" d="M235.642,253.82c0.656,0,1.313,0,1.97,0c1.908,0,3.5-1.592,3.5-3.5s-1.592-3.5-3.5-3.5
						c-0.656,0-1.313,0-1.97,0c-1.908,0-3.5,1.592-3.5,3.5S233.733,253.82,235.642,253.82L235.642,253.82z"/>
				</g>
			</g>
			<g>
				<g>
					<path style="fill:#FFFFFF;" d="M280.613,253.82c0.656,0,1.313,0,1.97,0c1.908,0,3.5-1.592,3.5-3.5s-1.592-3.5-3.5-3.5
						c-0.656,0-1.313,0-1.97,0c-1.908,0-3.5,1.592-3.5,3.5S278.705,253.82,280.613,253.82L280.613,253.82z"/>
				</g>
			</g>
			<g>
				<g>
					<path style="fill:#FFFFFF;" d="M278.24,247.678c3.406,0,6.813,0,10.22,0c4.514,0,4.514-7,0-7c-3.406,0-6.813,0-10.22,0
						C273.727,240.678,273.727,247.678,278.24,247.678L278.24,247.678z"/>
				</g>
			</g>
		</g>
		<g>
			<g>
				<g>
					<path style="fill:#FFFFFF;" d="M258.486,244.781c0.041-18.201,1.041-36.575,4.806-54.423
						c1.881-8.918,5.863-28.303,17.828-28.721c1.929-0.067,1.936-3.068,0-3c-12.171,0.425-16.866,16.024-19.441,25.563
						c-5.273,19.531-6.147,40.46-6.192,60.58C255.482,246.716,258.482,246.716,258.486,244.781L258.486,244.781z"/>
				</g>
			</g>
			<g>
				<g>
					<path style="fill:#FFFFFF;" d="M254.431,234.729c0.06-16.473,1.363-33.155,6.113-49.001
						c2.878-9.602,8.689-23.762,20.576-24.091c1.931-0.053,1.936-3.054,0-3c-11.287,0.312-17.537,10.891-21.345,20.219
						c-7.079,17.346-8.278,37.367-8.345,55.873C251.424,236.664,254.424,236.664,254.431,234.729L254.431,234.729z"/>
				</g>
			</g>
			<g>
				<g>
					<g>
						<path style="fill:#FFFFFF;" d="M250.154,246.863c-0.023-11.965-0.321-23.968-1.805-35.852
							c-0.729-5.851-1.456-13.031-5.025-17.976c-1.121-1.553-3.725-0.058-2.59,1.514c3.725,5.16,4.227,12.997,4.93,19.077
							c1.273,11.013,1.469,22.161,1.49,33.236C247.158,248.798,250.158,248.798,250.154,246.863L250.154,246.863z"/>
					</g>
				</g>
				<g>
					<g>
						<path style="fill:#FFFFFF;" d="M254.261,249.918c-0.044-12.21-0.759-24.434-2.935-36.463
							c-1.238-6.847-2.932-15.691-8.236-20.723c-1.402-1.33-3.527,0.787-2.121,2.121c4.924,4.67,6.237,13.063,7.464,19.399
							c2.267,11.702,2.785,23.772,2.828,35.665C251.268,251.853,254.268,251.853,254.261,249.918L254.261,249.918z"/>
					</g>
				</g>
			</g>
			<g>
				<g>
					<path style="fill:#FFFFFF;" d="M244.374,244.928c-0.036-4.676-0.104-9.962-2.447-14.169c-0.521-0.935-1.271-1.739-2.125-2.374
						c-0.277-0.207-0.565-0.395-0.858-0.579c-0.456-0.285-0.184-0.292-0.127,0.22c-0.21-1.901-3.212-1.922-3,0
						c0.188,1.703,1.418,2.043,2.554,3.039c3.402,2.984,2.973,9.897,3.004,13.863C241.389,246.861,244.389,246.863,244.374,244.928
						L244.374,244.928z"/>
				</g>
			</g>
			<g>
				<g>
					<path style="fill:#FFFFFF;" d="M248.188,244.529c-0.754-4.009-1.117-9.289-3.601-12.732c-1.508-2.09-4.309-3.133-6.211-4.832
						c-1.438-1.284-3.566,0.83-2.121,2.121c1.727,1.543,3.95,2.525,5.6,4.098c0.854,0.813,1.179,2.14,1.506,3.223
						c0.876,2.906,1.375,5.943,1.935,8.92C245.653,247.227,248.544,246.42,248.188,244.529L248.188,244.529z"/>
				</g>
			</g>
		</g>
	</g>
	<g>
		<g>
			<path style="fill:#FFFFFF;" d="M71.778,137.167c7.833,0.842,15.132,0.929,22.988,0.254c9.597-0.823,19.122,1.253,28.71,0.499
				c4.373-0.344,8.676-0.897,13.066-0.618c4.406,0.28,8.79,0.865,13.209,0.865c10.385,0,20.787,0.221,31.16-0.336
				c9.936-0.534,19.595-0.567,29.533-0.047c9.914,0.52,19.669-0.921,29.535-0.525c5.065,0.204,10.118,0.661,15.185,0.865
				c4.805,0.193,9.592-0.528,14.376-0.87c6.855-0.49,13.854-0.087,20.726-0.087c1.935,0,1.935-3,0-3
				c-6.499,0-13.009-0.118-19.506,0.023c-4.834,0.105-9.615,1.018-14.459,0.965c-5.443-0.059-10.886-0.63-16.321-0.896
				c-9.361-0.459-18.656,1.063-28.063,0.601c-10.437-0.513-20.571-0.609-31.006-0.029c-9.957,0.554-19.943,0.336-29.911,0.336
				c-4.434,0-8.816-0.419-13.232-0.774c-4.813-0.387-9.495,0.111-14.292,0.528c-9.146,0.794-18.247-1.27-27.398-0.605
				c-8.326,0.604-15.992,0.745-24.3-0.148C69.855,133.96,69.875,136.962,71.778,137.167L71.778,137.167z"/>
		</g>
	</g>
	<g>
		<g>
			<g>
				<path style="fill:#FFFFFF;" d="M184.47,190.691c2.485,1.7,4.971,3.399,7.457,5.099c0.427,0.292,1.084,0.265,1.514,0
					c2.87-1.765,5.628-3.464,8.873-4.478c4.226-1.319,9.283-0.372,13.47,0.609c3.525,0.827,7.584,2.4,9.746,5.471
					c2.206,3.133-1.756,6.357-4.061,7.689c-5.945,3.435-15.062,3.04-21.554,1.589c-2.81-0.629-4.147-2.708-6.422-4.179
					c-0.422-0.273-1.094-0.287-1.514,0c-2.504,1.706-5.007,3.413-7.51,5.12c0.752,0.432,1.505,0.863,2.257,1.295
					c0-6.504,0-13.007,0-19.511c0-1.935-3-1.935-3,0c0,6.504,0,13.007,0,19.511c0,1.077,1.297,1.95,2.257,1.295
					c1.252-0.854,2.504-1.706,3.755-2.56c0.756-0.516,1.511-1.03,2.267-1.545c1.671-1.14,1.096-0.29,0.396-0.743
					c1.922,1.243,3.073,2.871,5.296,3.775c4.994,2.033,11.758,1.633,16.935,1.043c4.458-0.507,10.207-2.263,12.833-6.265
					c6.517-9.932-8.764-15.066-16.012-15.83c-6.638-0.7-11.82,0.438-17.512,3.878c-1.281,0.774-0.694,1.11-0.913,0.962
					c-0.841-0.575-1.681-1.15-2.521-1.725c-1.508-1.031-3.015-2.062-4.522-3.092C184.382,187.006,182.883,189.607,184.47,190.691z"
					/>
			</g>
		</g>
		<g>
			<g>
				<path style="fill:#FFFFFF;" d="M211.477,196.104c0.141,1.218,0.837,2.12,2.106,2.267c0.404,0.047,0.818,0.021,1.226,0.021
					c0.397,0,0.794,0,1.191,0c1.347,0,2.145-1.056,2.287-2.287c0.139-1.202-1.046-2.143-2.107-2.265
					c-0.404-0.046-0.818-0.021-1.226-0.021c-0.397,0-0.794,0-1.191,0C212.416,193.818,211.619,194.872,211.477,196.104
					c-0.094,0.814,0.754,1.5,1.5,1.5c0.889,0,1.406-0.688,1.5-1.5c-0.091,0.782-1.166,0.715-0.442,0.715c0.258,0,0.516,0,0.774,0
					c0.271,0,0.543,0,0.814,0c0.091,0,0.182,0,0.272,0c0.49,0-0.522,0.028-0.608-0.715c-0.088-0.76,1.203-0.713,0.441-0.713
					c-0.258,0-0.516,0-0.774,0c-0.271,0-0.543,0-0.814,0c-0.091,0-0.182,0-0.272,0c-0.49,0,0.524-0.028,0.609,0.713
					c-0.094-0.813-0.611-1.5-1.5-1.5C212.229,194.604,211.383,195.289,211.477,196.104z"/>
			</g>
		</g>
		<g>
			<g>
				<path style="fill:#FFFFFF;" d="M217.336,188.476c-2.438-4.608-5.481-9.921-9.87-12.905c-1.982-1.348-5.657-1.35-5.78,1.782
					c-0.081,2.081,0.866,4,0.896,6.057c0.027,1.807-0.396,3.674-0.821,5.424c-0.229,0.943,0.449,1.898,1.446,1.898
					c4.278,0,8.556,0,12.834,0c1.935,0,1.935-3,0-3c-4.278,0-8.556,0-12.834,0c0.482,0.633,0.964,1.266,1.446,1.898
					c0.636-2.615,1.225-5.479,0.742-8.159c-0.11-0.617-0.906-3.818-0.822-3.827c0.991-0.109,2.055,0.999,2.701,1.602
					c3.134,2.928,5.478,6.975,7.472,10.743C215.65,191.7,218.24,190.184,217.336,188.476z"/>
			</g>
		</g>
		<g>
			<g>
				<path style="fill:#FFFFFF;" d="M213.548,209.729c-0.916,2.54-1.966,5.084-3.4,7.377c-1.371,2.191-5.573,1.564-7.846,1.469
					c0.482,0.633,0.964,1.266,1.446,1.898c0.605-3.315,1.21-6.631,1.815-9.947c-0.482,0.367-0.964,0.734-1.446,1.102
					c3.626,0,7.251,0,10.877,0c1.935,0,1.935-3,0-3c-3.626,0-7.251,0-10.877,0c-0.622,0-1.328,0.453-1.446,1.102
					c-0.605,3.315-1.21,6.631-1.815,9.947c-0.179,0.979,0.412,1.854,1.446,1.898c2.881,0.122,7.186,0.534,9.431-1.637
					c2.384-2.306,3.606-6.356,4.708-9.412C217.099,208.701,214.198,207.923,213.548,209.729z"/>
			</g>
		</g>
	</g>
	<g>
		<g>
			<path style="fill:#FFFFFF;" d="M76.217,152.542c1.654-0.111,3.308-0.222,4.962-0.333c1.919-0.129,1.932-3.13,0-3
				c-1.654,0.111-3.308,0.222-4.962,0.333C74.298,149.671,74.285,152.672,76.217,152.542L76.217,152.542z"/>
		</g>
	</g>
	<g>
		<g>
			<path style="fill:#FFFFFF;" d="M262.235,158.882c1.453,0.111,2.906,0.222,4.359,0.333c1.931,0.147,1.916-2.854,0-3
				c-1.453-0.111-2.906-0.222-4.359-0.333C260.305,155.735,260.319,158.736,262.235,158.882L262.235,158.882z"/>
		</g>
	</g>
	<g>
		<g>
			<path style="fill:#FFFFFF;" d="M112.437,230.156c0.989,0,1.979,0,2.968,0c1.935,0,1.935-3,0-3c-0.989,0-1.979,0-2.968,0
				C110.502,227.156,110.502,230.156,112.437,230.156L112.437,230.156z"/>
		</g>
	</g>
	<g>
		<g>
			<path style="fill:#FFFFFF;" d="M112.467,234.837c2.184-0.197,4.368-0.394,6.552-0.591c1.911-0.172,1.927-3.174,0-3
				c-2.184,0.197-4.368,0.394-6.552,0.591C110.556,232.009,110.54,235.011,112.467,234.837L112.467,234.837z"/>
		</g>
	</g>
	<g>
		<g>
			<path style="fill:#FFFFFF;" d="M228.228,142.639c1.654-0.111,3.308-0.222,4.962-0.333c1.92-0.129,1.933-3.13,0-3
				c-1.654,0.111-3.308,0.222-4.962,0.333C226.308,139.768,226.295,142.769,228.228,142.639L228.228,142.639z"/>
		</g>
	</g>
	<g>
		<g>
			<path style="fill:#FFFFFF;" d="M85.025,205.1c2.122-0.019,4.243-0.037,6.365-0.056c1.934-0.017,1.935-3.017,0-3
				c-2.122,0.019-4.243,0.037-6.365,0.056C83.092,202.116,83.09,205.116,85.025,205.1L85.025,205.1z"/>
		</g>
	</g>
</g>
<g id="Ebene_1">
</g>
</svg>
