<?xml version="1.0" encoding="iso-8859-1"?>
<!-- Generator: Adobe Illustrator 16.0.0, SVG Export Plug-In . SVG Version: 6.00 Build 0)  -->
<!DOCTYPE svg PUBLIC "-//W3C//DTD SVG 1.1 Tiny//EN" "http://www.w3.org/Graphics/SVG/1.1/DTD/svg11-tiny.dtd">
<svg version="1.1" baseProfile="tiny" id="scene_x5F_toilet_x5F_alternat"
	 xmlns="http://www.w3.org/2000/svg" xmlns:xlink="http://www.w3.org/1999/xlink" x="0px" y="0px" width="361px" height="361px"
	 viewBox="0 0 361 361" xml:space="preserve">
<g>
	<path fill="#FFFFFF" d="M248.231,218.259c-5.518,5.141-11.689,9.531-17.12,14.801c-5.176,5.022-10.656,12.339-11.796,19.672
		c-1.402,9.018,0.885,18.287-0.621,27.225c0.024-0.141-0.79,2.587-0.297,1.502c0.612-1.346,5.647-1.613,2.598-1.588
		c-2.207,0.019-4.413,0.033-6.62,0.048c-6.121,0.04-12.241,0.068-18.362,0.09c-6.428,0.023-12.855,0.034-19.283,0.034
		c-3.188,0-6.376-0.004-9.565-0.012c-1.536-0.004-3.072-0.01-4.608-0.016c-0.992-0.004-1.985-0.009-2.977-0.014
		c2.382,0.138,3.951,1.089,4.704,2.853c-1.912-5.982,1.039-15.432-0.7-22.607c-2.614-10.79-16.84-10.136-25.41-10.197
		c-3.298-0.023-6.598,0.043-9.895,0.158c-2.553,0.088,3.816,7.138,3.856,3.402c0.021-2.002,0.038-4.004,0.052-6.006
		c0.032-4.613,0.048-9.228-0.008-13.84c-0.01-0.857-0.031-1.713-0.056-2.569c0.113,3.964-5.164,4.157-3.102,4.058
		c2.41-0.116,4.849,0.104,7.26,0.138c4.78,0.067,10.152-0.455,13.851-3.806c3.431-3.108,4.338-8.013,4.363-12.435
		c0.052-9.284-3.774-18.629-7.315-27.036c-1.091-2.592-2.237-5.159-3.466-7.688c-0.16-0.33-0.782-1.735-0.177-0.149
		c-0.463-1.215-0.062-0.554-0.154,0.003c-0.084,0.507-1.985,0.981-0.587,0.959c23.673-0.377,47.382,0,71.057,0
		c13.529,0,27.059,0,40.589,0c0.761,0,2.379,0.425,1.238-0.097c-0.833-0.381-1.086-2.963-0.9-1.757
		c0.265,1.721-0.215-1.821-0.008-0.112c0.234,1.93,0.373,3.87,0.477,5.811C255.77,198.776,255.272,210.801,248.231,218.259
		c-6.626,7.017,4.004,17.605,10.665,10.551c12.138-12.855,12.904-32.891,10.345-49.489c-0.975-6.319-8.919-9.085-14.421-9.085
		c-4.015,0-8.03,0-12.045,0c-29.397,0-58.795,0-88.192,0c-10.238,0-25.279-1.533-26.073,12.84
		c-0.308,5.572,3.385,10.976,5.329,15.676c2.668,6.454,6.85,16.491,5.49,22.495c-0.301,1.328,2.316-1.159,0.347-0.959
		c-2.185,0.223-4.419,0.09-6.608,0.021c-5.295-0.167-10.592-0.148-13.959,4.659c-2.67,3.811-1.915,8.638-1.898,13.029
		c0.019,4.74-0.019,9.48-0.064,14.219c-0.041,4.36,0.691,8.469,4.621,11.118c3.237,2.182,6.57,1.854,10.22,1.774
		c4.271-0.093,8.545-0.08,12.814,0.113c1.683,0.076,3.508,0.218,4.6,0.421c1.618,0.3,0.444,0.457-0.305-1.51
		c0.688,1.808,0.049-0.883,0.166,0.878c0.467,7.041-0.854,13.945,0.357,20.981c1.804,10.471,12.575,9.037,20.586,9.052
		c10.596,0.02,21.192-0.007,31.788-0.053c4.493-0.019,8.985-0.044,13.478-0.074c4.011-0.026,8.381,0.491,11.965-1.662
		c6.79-4.08,6.642-14.208,6.545-21.088c-0.048-3.454-0.264-6.897-0.243-10.352c0.012-2.071,0.058-4.14,0.219-6.205
		c-0.079,1.011,1.031-2.742,0.212-0.955c5.087-11.099,15.534-17.278,24.726-25.843C265.976,222.214,255.304,211.669,248.231,218.259
		z"/>
</g>
<g>
	<path fill="#FFFFFF" d="M137.148,167.692c42.704,0,85.408,0,128.112,0c9.687,0,9.772-15.003,0.108-15.003
		c-42.704,0-85.408,0-128.112,0C127.57,152.689,127.485,167.692,137.148,167.692L137.148,167.692z"/>
</g>
<g>
	<path fill="#FFFFFF" d="M82.604,172.494c-0.656,13.18,4.778,23.668,17.394,28.329c12.228,4.518,27.029,2.413,39.764,2.366
		c9.685-0.035,9.773-15.039,0.108-15.003c-10.208,0.037-20.886,1.18-31-0.564c-9.025-1.557-11.721-5.797-11.262-15.019
		C98.089,162.913,83.082,162.874,82.604,172.494L82.604,172.494z"/>
</g>
<g>
	<path fill="#FFFFFF" d="M103.867,163.443c-0.195,1.695-16.442,0.669-18.138,0.669c-2.865,0-8.415,1.604-8.415-2.222
		c0-12.688,0-25.376,0-38.064c0-12.915,0-25.829,0-38.743c0-3.7,3.085-2.538,6.238-2.538c7.608,0,15.216,0,22.824,0
		c0.685,0,5.338-0.653,5.49,0.669c0.391,3.396,0,7.067,0,10.481c0,2.339,0,4.679,0,7.018c0,1.024,0,2.047,0,3.071
		c0,1.272-0.677,2.78,0.355,1.59c-1.068,1.231-3.307,1.822-4.567,2.965c-1.844,1.671-2.977,3.729-3.522,6.147
		c-0.857,3.805-0.32,8.264-0.33,12.137c-0.013,5.37-0.007,10.74,0.002,16.11C103.817,149.637,103.837,156.54,103.867,163.443
		c0.028,6.447,10.028,6.45,10,0c-0.064-14.754-0.142-29.51-0.03-44.264c0.007-0.966-0.349-2.823,0.542-3.475
		c1.411-1.031,3.02-1.656,4.371-2.8c3.442-2.915,3.117-7.019,3.117-11.113c0-4.53,0-9.06,0-13.59c0-3.138,0.504-7.231-1.259-10.005
		c-4.147-6.523-10.752-5.653-17.437-5.653c-7.449,0-14.897,0-22.346,0c-6.748,0-13.51,2.874-13.51,10.815c0,3.585,0,7.17,0,10.754
		c0,21.979,0,43.958,0,65.936c0,2.757-0.28,5.989,1.259,8.41c3.559,5.597,8.669,5.652,14.526,5.652c5.949,0,11.897,0,17.847,0
		c7.041,0,12.069-3.27,12.921-10.669C114.604,157.043,104.596,157.115,103.867,163.443z"/>
</g>
</svg>
