<?xml version="1.0" encoding="iso-8859-1"?>
<!-- Generator: Adobe Illustrator 16.0.0, SVG Export Plug-In . SVG Version: 6.00 Build 0)  -->
<!DOCTYPE svg PUBLIC "-//W3C//DTD SVG 1.1//EN" "http://www.w3.org/Graphics/SVG/1.1/DTD/svg11.dtd">
<svg version="1.1" xmlns="http://www.w3.org/2000/svg" xmlns:xlink="http://www.w3.org/1999/xlink" x="0px" y="0px" width="361px"
	 height="361px" viewBox="0 0 361 361" style="enable-background:new 0 0 361 361;" xml:space="preserve">
<g id="scene_x5F_visit_x5F_guests">
	<path style="fill:none;stroke:#FFFFFF;stroke-width:10;stroke-miterlimit:10;" d="M286.658,258.416
		c0,3.453-2.799,6.251-6.251,6.251H81.777c-3.452,0-6.25-2.798-6.25-6.251V133.405c0-3.453,2.799-6.25,6.25-6.25h198.63
		c3.452,0,6.251,2.798,6.251,6.25V258.416z"/>
	<path style="fill:none;stroke:#FFFFFF;stroke-width:10;stroke-miterlimit:10;" d="M208.703,124.038
		c0,1.721-1.939,3.117-4.334,3.117h-46.703c-2.393,0-4.333-1.396-4.333-3.117v-15.587c0-1.721,1.94-3.117,4.333-3.117h46.703
		c2.395,0,4.334,1.396,4.334,3.117V124.038z"/>
	<path style="fill:none;stroke:#FFFFFF;stroke-width:10;stroke-miterlimit:10;" d="M173.003,202.639"/>
	<path style="fill:none;stroke:#FFFFFF;stroke-width:10;stroke-miterlimit:10;" d="M186.768,188.875"/>
	<path style="fill:none;stroke:#FFFFFF;stroke-width:10;stroke-miterlimit:10;" d="M173.003,188.875"/>
	<g>
		<g>
			<path style="fill:#FFFFFF;" d="M97.332,130.613c0,43.111,0,86.222,0,129.333c0,9.686,15.003,9.771,15.003,0.107
				c0-43.11,0-86.222,0-129.333C112.334,121.035,97.332,120.949,97.332,130.613L97.332,130.613z"/>
		</g>
	</g>
	<g>
		<g>
			<path style="fill:#FFFFFF;" d="M250.331,129.613c0,43.111,0,86.222,0,129.333c0,9.686,15.004,9.771,15.004,0.107
				c0-43.11,0-86.222,0-129.333C265.335,120.035,250.331,119.949,250.331,129.613L250.331,129.613z"/>
		</g>
	</g>
	<g>
		<g>
			<path style="fill:#FFFFFF;" d="M166.37,168.792c1.396,5.828-6.33,6.635-10.308,7.951c-5.478,1.813-10.955,3.625-16.433,5.437
				c-1.923,0.637-3.665,1.374-5.566-0.112c-1.562-1.222-2.04-4.216-2.619-5.968c-1.544-4.668-3.089-9.336-4.633-14.005
				c-1.875-5.667,6.705-6.759,10.308-7.951c5.478-1.812,10.955-3.624,16.433-5.437c1.923-0.636,3.665-1.374,5.566,0.113
				c1.562,1.221,2.04,4.215,2.619,5.967C163.281,159.456,164.826,164.124,166.37,168.792c1.411,4.264,8.172,2.437,6.75-1.861
				c-3.305-9.989-6.019-30.072-20.952-25.131c-6.721,2.224-13.443,4.447-20.164,6.671c-6.616,2.189-12.946,4.814-12.388,13.216
				c0.403,6.072,3.897,12.703,5.791,18.426c2.19,6.619,7.383,11.696,14.844,9.228c6.453-2.135,12.907-4.27,19.36-6.405
				c5.935-1.963,13.145-3.558,13.912-11.108c0.176-1.733,0.001-3.211-0.402-4.896C172.068,162.542,165.318,164.404,166.37,168.792z"
				/>
		</g>
	</g>
</g>
<g id="Ebene_1">
</g>
</svg>
