<?xml version="1.0" encoding="iso-8859-1"?>
<!-- Generator: Adobe Illustrator 16.0.0, SVG Export Plug-In . SVG Version: 6.00 Build 0)  -->
<!DOCTYPE svg PUBLIC "-//W3C//DTD SVG 1.1//EN" "http://www.w3.org/Graphics/SVG/1.1/DTD/svg11.dtd">
<svg version="1.1" xmlns="http://www.w3.org/2000/svg" xmlns:xlink="http://www.w3.org/1999/xlink" x="0px" y="0px" width="361px"
	 height="361px" viewBox="0 0 361 361" style="enable-background:new 0 0 361 361;" xml:space="preserve">
<g id="scene_x5F_bathroom">
	<g>
		<g>
			<g>
				<path style="fill:#FFFFFF;" d="M257.868,176.366c9.386,2.515,18.771,5.03,28.156,7.544c6.237,1.672,8.881-7.975,2.658-9.643
					c-9.386-2.515-18.771-5.03-28.156-7.544C254.289,165.052,251.646,174.698,257.868,176.366L257.868,176.366z"/>
			</g>
		</g>
		<g>
			<g>
				<path style="fill:#FFFFFF;" d="M254.335,170.367c-0.832,3.107-1.665,6.214-2.497,9.321c-1.671,6.237,7.976,8.881,9.643,2.658
					c0.832-3.107,1.665-6.214,2.497-9.321C265.648,166.788,256.002,164.144,254.335,170.367L254.335,170.367z"/>
			</g>
		</g>
		<g>
			<g>
				<path style="fill:#FFFFFF;" d="M240.126,183.205c9.741,2.61,19.481,5.22,29.223,7.83c6.237,1.672,8.881-7.976,2.658-9.643
					c-9.741-2.61-19.481-5.22-29.223-7.83C236.547,171.891,233.903,181.538,240.126,183.205L240.126,183.205z"/>
			</g>
		</g>
		<g>
			<g>
				<path style="fill:#FFFFFF;" d="M236.54,177.472c-0.396,1.477-0.792,2.954-1.188,4.431c-0.705,2.631,0.853,5.425,3.492,6.15
					c2.613,0.719,5.445-0.861,6.15-3.492c0.396-1.477,0.792-2.954,1.188-4.431c0.705-2.631-0.853-5.424-3.492-6.15
					C240.077,173.261,237.245,174.841,236.54,177.472L236.54,177.472z"/>
			</g>
		</g>
		<g>
			<g>
				<path style="fill:#FFFFFF;" d="M265.763,185.573c-0.396,1.478-0.792,2.954-1.188,4.432c-0.705,2.631,0.853,5.425,3.492,6.15
					c2.613,0.719,5.445-0.861,6.15-3.492c0.396-1.478,0.792-2.954,1.188-4.432c0.705-2.631-0.853-5.425-3.492-6.15
					C269.3,181.362,266.468,182.942,265.763,185.573L265.763,185.573z"/>
			</g>
		</g>
		<g>
			<g>
				<path style="fill:#FFFFFF;" d="M252.381,203.585c-0.893,3.331-1.784,6.662-2.677,9.992c-1.17,4.366,5.583,6.217,6.75,1.861
					c0.893-3.331,1.784-6.662,2.677-9.992C260.301,201.08,253.548,199.229,252.381,203.585L252.381,203.585z"/>
			</g>
		</g>
		<g>
			<g>
				<path style="fill:#FFFFFF;" d="M242.114,200.96c-0.681,2.541-1.361,5.081-2.042,7.621c-1.17,4.366,5.583,6.217,6.75,1.861
					c0.681-2.541,1.361-5.081,2.042-7.621C250.034,198.455,243.281,196.604,242.114,200.96L242.114,200.96z"/>
			</g>
		</g>
		<g>
			<g>
				<path style="fill:#FFFFFF;" d="M237.866,216.116c-1.232,4.602-2.464,9.202-3.696,13.803c-1.169,4.366,5.583,6.218,6.75,1.861
					c1.232-4.602,2.464-9.202,3.696-13.803C245.785,213.611,239.033,211.76,237.866,216.116L237.866,216.116z"/>
			</g>
		</g>
		<g>
			<g>
				<path style="fill:#FFFFFF;" d="M248.053,220.759c-1.261,4.708-2.522,9.415-3.783,14.122c-1.17,4.366,5.583,6.217,6.75,1.861
					c1.261-4.708,2.522-9.415,3.783-14.122C255.973,218.254,249.22,216.403,248.053,220.759L248.053,220.759z"/>
			</g>
		</g>
		<g>
			<g>
				<path style="fill:#FFFFFF;" d="M259.732,212.185c-0.926,3.456-1.851,6.912-2.776,10.367c-1.169,4.366,5.583,6.218,6.75,1.861
					c0.926-3.456,1.851-6.912,2.776-10.367C267.651,209.68,260.899,207.828,259.732,212.185L259.732,212.185z"/>
			</g>
		</g>
		<g>
			<g>
				<path style="fill:#FFFFFF;" d="M254.441,231.755c-0.279,1.042-0.559,2.084-0.838,3.126c-0.493,1.842,0.597,3.798,2.444,4.306
					c1.829,0.503,3.812-0.603,4.306-2.444c0.279-1.042,0.559-2.084,0.838-3.126c0.493-1.842-0.597-3.798-2.444-4.306
					C256.918,228.808,254.936,229.913,254.441,231.755L254.441,231.755z"/>
			</g>
		</g>
		<g>
			<g>
				<path style="fill:#FFFFFF;" d="M231.418,203.376c-0.926,3.455-1.852,6.91-2.777,10.365c-1.17,4.366,5.583,6.217,6.75,1.861
					c0.926-3.455,1.852-6.91,2.777-10.365C239.338,200.871,232.585,199.021,231.418,203.376L231.418,203.376z"/>
			</g>
		</g>
		<g>
			<g>
				<path style="fill:#FFFFFF;" d="M226.146,222.875c-1.066,3.979-2.133,7.959-3.199,11.938c-1.17,4.366,5.583,6.217,6.75,1.861
					c1.066-3.979,2.133-7.959,3.199-11.938C234.066,220.37,227.313,218.52,226.146,222.875L226.146,222.875z"/>
			</g>
		</g>
		<g>
			<g>
				<path style="fill:#FFFFFF;" d="M255.495,192.467c-0.4,1.495-0.801,2.99-1.201,4.484c-0.493,1.842,0.597,3.798,2.444,4.306
					c1.829,0.503,3.813-0.603,4.306-2.444c0.4-1.495,0.801-2.99,1.201-4.484c0.493-1.842-0.597-3.798-2.444-4.306
					C257.972,189.52,255.988,190.625,255.495,192.467L255.495,192.467z"/>
			</g>
		</g>
		<g>
			<g>
				<path style="fill:#FFFFFF;" d="M245.521,189.16c-0.4,1.495-0.801,2.989-1.201,4.483c-0.493,1.842,0.597,3.798,2.444,4.306
					c1.829,0.503,3.813-0.603,4.306-2.444c0.4-1.495,0.801-2.989,1.201-4.483c0.493-1.842-0.597-3.798-2.444-4.306
					C247.998,186.213,246.015,187.318,245.521,189.16L245.521,189.16z"/>
			</g>
		</g>
		<g>
			<g>
				<path style="fill:#FFFFFF;" d="M262.535,202.253c-0.244,0.912-0.488,1.823-0.732,2.734c-0.493,1.842,0.597,3.798,2.444,4.306
					c1.829,0.503,3.813-0.603,4.306-2.444c0.244-0.912,0.488-1.823,0.732-2.734c0.493-1.842-0.597-3.798-2.444-4.306
					C265.012,199.306,263.028,200.411,262.535,202.253L262.535,202.253z"/>
			</g>
		</g>
		<g>
			<g>
				<path style="fill:#FFFFFF;" d="M234.535,193.459c-0.244,0.911-0.487,1.822-0.731,2.733c-0.493,1.842,0.597,3.797,2.444,4.306
					c1.829,0.503,3.813-0.603,4.306-2.444c0.244-0.911,0.487-1.822,0.731-2.733c0.493-1.842-0.597-3.797-2.444-4.306
					C237.012,190.512,235.028,191.617,234.535,193.459L234.535,193.459z"/>
			</g>
		</g>
		<g>
			<g>
				<path style="fill:#FFFFFF;" d="M165.287,291.667c2.905,0,5.811,0,8.716,0c2.726,0,5-2.274,5-5s-2.274-5-5-5
					c-2.905,0-5.811,0-8.716,0c-2.726,0-5,2.274-5,5S162.562,291.667,165.287,291.667L165.287,291.667z"/>
			</g>
		</g>
		<g>
			<g>
				<path style="fill:#FFFFFF;" d="M262.994,291.667c2.905,0,5.81,0,8.715,0c2.726,0,5-2.274,5-5s-2.274-5-5-5
					c-2.905,0-5.81,0-8.715,0c-2.726,0-5,2.274-5,5S260.269,291.667,262.994,291.667L262.994,291.667z"/>
			</g>
		</g>
		<g>
			<g>
				<path style="fill:#FFFFFF;" d="M277.716,277.54c-0.833,2.459,0.473,0.457,0.552,0.457c-0.297,0-0.594,0-0.891,0
					c-1.429,0-2.856,0-4.285,0c-5.196,0-10.394,0-15.591,0c-15.563,0-31.125,0-46.688,0c-13.925,0-27.85,0-41.775,0
					c-3.15,0-6.3,0-9.45,0c-0.172,0-0.345,0-0.517,0c1.32,0,1.716,1.4,0.804-0.51c-0.254-0.531-0.457-0.829-0.652-1.278
					c-0.905-2.082-1.81-4.164-2.715-6.245c-3.662-8.424-7.325-16.848-10.987-25.271c0.168,1.284,0.336,2.568,0.504,3.853
					c0.091-0.57-1.26-0.458,0.61-0.458c1.405,0,2.809,0,4.214,0c4.903,0,9.805,0,14.708,0c15.074,0,30.149,0,45.223,0
					c24.005,0,48.009,0,72.014,0c0.602,0-0.035-3.694-0.529-0.447c-0.543,3.568-1.086,7.137-1.629,10.705
					C279.663,264.744,278.689,271.142,277.716,277.54c-0.96,6.306,8.675,9.017,9.643,2.658c0.827-5.437,1.654-10.874,2.482-16.311
					c0.814-5.354,2.513-11.231,2.513-16.671c0-11.428-14.512-9.129-21.941-9.129c-30.077,0-60.154,0-90.231,0
					c-10.645,0-21.289,0-31.934,0c-3.873,0-8.508,0.147-10.57,4.167c-3.024,5.896,0.981,11.562,3.379,17.075
					c2.905,6.682,5.81,13.363,8.715,20.046c1.992,4.58,4.133,8.621,9.817,8.621c9.268,0,18.536,0,27.804,0
					c21.191,0,42.383,0,63.574,0c7.375,0,14.75,0,22.125,0c6.583,0,11.712-0.259,14.267-7.799
					C289.434,274.073,279.773,271.467,277.716,277.54z"/>
			</g>
		</g>
		<g>
			<g>
				<path style="fill:#FFFFFF;" d="M282.354,180.709c0,22.169,0,44.338,0,66.507c0,6.448,10,6.448,10,0c0-22.169,0-44.338,0-66.507
					C292.354,174.261,282.354,174.261,282.354,180.709L282.354,180.709z"/>
			</g>
		</g>
	</g>
	<g>
		<g>
			<path style="fill:#FFFFFF;" d="M83.237,160.091c0.584,8.473,6.323,11,13.859,11c7.264,0,14.527,0,21.791,0
				c5.256,0,10.512,0,15.769,0c7.547,0,12.535-5.66,16.767-11.147c7.24-9.388,26.225-46.853,2.511-46.853
				c-13.26,0-26.521,0-39.781,0c-6.102,0-12.205,0-18.307,0c-7.258,0-12.609,3.125-12.609,11.037
				C83.237,136.115,83.237,148.103,83.237,160.091c0,6.449,10,6.449,10,0c0-11.812,0-23.625,0-35.437
				c0-0.666-0.03-1.335,0.101-1.992c-0.239,1.199,0.055,0.428,1.19,0.428c1.735,0,3.47,0,5.205,0c7.074,0,14.147,0,21.221,0
				c7.776,0,15.552,0,23.329,0c1.09,0,11.643-1.109,11.304,1.337c-1.463,10.57-5.728,20.601-11.901,29.259
				c-2.596,3.641-5.734,7.404-10.475,7.404c-7.741,0-15.481,0-23.222,0c-3.905,0-7.81,0-11.715,0c-1.559,0-4.922,0.659-5.037-1
				C92.796,153.694,82.793,153.651,83.237,160.091z"/>
		</g>
	</g>
	<g>
		<g>
			<path style="fill:#FFFFFF;" d="M88.237,111.216c24.458,0,48.917,0,73.375,0c6.449,0,6.449-10,0-10c-24.458,0-48.917,0-73.375,0
				C81.789,101.216,81.789,111.216,88.237,111.216L88.237,111.216z"/>
		</g>
	</g>
	<g>
		<path style="fill:#FFFFFF;" d="M245.023,111.889c0,2.413-1.956,4.369-4.369,4.369h-43.277c-2.412,0-4.369-1.956-4.369-4.369
			V84.254c0-2.413,1.957-4.37,4.369-4.37h43.277c2.413,0,4.369,1.957,4.369,4.37V111.889z"/>
		<g>
			<g>
				<path style="fill:#FFFFFF;" d="M189.18,101.796c20.619,0,41.238,0,61.857,0c4.514,0,4.514-7,0-7c-20.619,0-41.238,0-61.857,0
					C184.666,94.796,184.666,101.796,189.18,101.796L189.18,101.796z"/>
			</g>
		</g>
		<g>
			<g>
				<path style="fill:#FFFFFF;" d="M184.145,93.048c0,3.349,0,6.697,0,10.046c0,4.514,7,4.514,7,0c0-3.349,0-6.697,0-10.046
					C191.145,88.534,184.145,88.534,184.145,93.048L184.145,93.048z"/>
			</g>
		</g>
		<g>
			<g>
				<path style="fill:#FFFFFF;" d="M189.533,76.851c20.501,0,41.003,0,61.504,0c4.514,0,4.514-7,0-7c-20.501,0-41.003,0-61.504,0
					C185.02,69.851,185.02,76.851,189.533,76.851L189.533,76.851z"/>
			</g>
		</g>
		<g>
			<g>
				<path style="fill:#FFFFFF;" d="M254.537,98.296c0-8.315,0-16.63,0-24.946c0-4.514-7-4.514-7,0c0,8.315,0,16.63,0,24.946
					C247.537,102.811,254.537,102.811,254.537,98.296L254.537,98.296z"/>
			</g>
		</g>
	</g>
	<g>
		<g>
			<path style="fill:#FFFFFF;" d="M80.333,197.123c0-40.319,0-80.637,0-120.956c0-6.449-10-6.449-10,0c0,40.319,0,80.637,0,120.956
				C70.333,203.571,80.333,203.571,80.333,197.123L80.333,197.123z"/>
		</g>
	</g>
</g>
<g id="Ebene_1">
</g>
</svg>
