<?xml version="1.0" encoding="iso-8859-1"?>
<!-- Generator: Adobe Illustrator 16.0.0, SVG Export Plug-In . SVG Version: 6.00 Build 0)  -->
<!DOCTYPE svg PUBLIC "-//W3C//DTD SVG 1.1//EN" "http://www.w3.org/Graphics/SVG/1.1/DTD/svg11.dtd">
<svg version="1.1" xmlns="http://www.w3.org/2000/svg" xmlns:xlink="http://www.w3.org/1999/xlink" x="0px" y="0px" width="361px"
	 height="361px" viewBox="0 0 361 361" style="enable-background:new 0 0 361 361;" xml:space="preserve">
<g id="scene_x5F_dinner">
	<g>
		<g>
			<path style="fill:#FFFFFF;" d="M244.501,132.699c0,47.103,0,94.206,0,141.308c0,0.665,0,1.33,0,1.995c0,6.448,10,6.448,10,0
				c0-47.103,0-94.205,0-141.308c0-0.665,0-1.33,0-1.995C254.501,126.25,244.501,126.25,244.501,132.699L244.501,132.699z"/>
		</g>
	</g>
	<g>
		<g>
			<path style="fill:#FFFFFF;" d="M281.501,179.001c0,32.333,0,64.667,0,97c0,6.448,10,6.448,10,0c0-32.334,0-64.667,0-97
				C291.501,172.553,281.501,172.553,281.501,179.001L281.501,179.001z"/>
		</g>
	</g>
	<g>
		<g>
			<path style="fill:#FFFFFF;" d="M257.168,132.35c0,12.32,0,24.639,0,36.959c0,6.449,10,6.449,10,0c0-12.32,0-24.639,0-36.959
				C267.168,125.901,257.168,125.901,257.168,132.35L257.168,132.35z"/>
		</g>
	</g>
	<g>
		<g>
			<path style="fill:#FFFFFF;" d="M231.5,132.001c0,12.32,0,24.639,0,36.959c0,6.449,10,6.449,10,0c0-12.32,0-24.639,0-36.959
				C241.5,125.552,231.5,125.552,231.5,132.001L231.5,132.001z"/>
		</g>
	</g>
	<path style="fill:#FFFFFF;stroke:#FFFFFF;stroke-miterlimit:10;" d="M273.168,189.668c0,3.313,2.686,6,6,6h6c3.313,0,6-2.687,6-6
		v-55.333c0-3.313-2.687-6-6-6h-6c-3.314,0-6,2.687-6,6V189.668z"/>
	<g>
		<g>
			<path style="fill:#FFFFFF;" d="M236.501,175.335c8.333,0,16.667,0,25,0c6.448,0,6.448-10,0-10c-8.333,0-16.667,0-25,0
				C230.053,165.335,230.053,175.335,236.501,175.335L236.501,175.335z"/>
		</g>
	</g>
	<path style="fill:none;stroke:#FFFFFF;stroke-width:10;stroke-miterlimit:10;" d="M117.167,104.466
		c0,2.246-1.821,4.067-4.067,4.067H87.568c-2.246,0-4.067-1.821-4.067-4.067V91.362c0-2.246,1.821-4.067,4.067-4.067H113.1
		c2.246,0,4.067,1.821,4.067,4.067V104.466z"/>
	<g>
		<g>
			<path style="fill:#FFFFFF;" d="M119.167,103.001c31.667,0,63.333,0,95,0c6.448,0,6.448-10,0-10c-31.667,0-63.333,0-95,0
				C112.719,93.001,112.719,103.001,119.167,103.001L119.167,103.001z"/>
		</g>
	</g>
	<path style="fill:none;stroke:#FFFFFF;stroke-width:10;stroke-miterlimit:10;" d="M220.496,227.567
		c0,26.94-21.839,48.78-48.779,48.78h-48.434c-26.94,0-48.78-21.84-48.78-48.78v-48.434c0-26.94,21.839-48.78,48.78-48.78h48.434
		c26.94,0,48.779,21.839,48.779,48.78V227.567z"/>
	<g>
		<g>
			<path style="fill:#FFFFFF;" d="M187.246,218.697c-0.297,12.455-8.725,22.376-20.838,25.003
				c-5.938,1.288-12.901,0.396-18.908,0.396c-6.169,0-12.791,0.631-18.908-0.396c-12.163-2.042-20.552-12.989-20.838-25.003
				c-0.137-5.747,0-11.515,0-17.264c0-6.628-0.595-13.495,1.434-19.888c3.285-10.35,13.792-16.942,24.348-16.942
				c6.563,0,13.126,0,19.689,0c5.796,0,11.475-0.345,17.081,1.434c10.283,3.264,16.694,13.531,16.942,23.966
				C187.474,199.557,187.246,209.141,187.246,218.697c0,4.514,7,4.514,7,0c0-5.755,0-11.509,0-17.264
				c0-6.379,0.428-12.902-0.933-19.175c-2.191-10.102-10.282-18.958-19.9-22.51c-6.599-2.438-13.298-2.145-20.189-2.145
				c-16.113,0-32.948-2.084-44.742,11.416c-10.476,11.992-7.729,29.727-7.729,44.439c0,11.563,2.269,21.918,11.416,29.909
				c8.598,7.511,18.918,7.729,29.607,7.729c9.068,0,18.885,1.004,27.815-0.933c14.585-3.164,24.311-17.023,24.655-31.467
				C194.354,214.181,187.354,214.191,187.246,218.697z"/>
		</g>
	</g>
</g>
<g id="Ebene_1">
</g>
</svg>
