<?xml version="1.0" encoding="iso-8859-1"?>
<!-- Generator: Adobe Illustrator 16.0.0, SVG Export Plug-In . SVG Version: 6.00 Build 0)  -->
<!DOCTYPE svg PUBLIC "-//W3C//DTD SVG 1.1 Tiny//EN" "http://www.w3.org/Graphics/SVG/1.1/DTD/svg11-tiny.dtd">
<svg version="1.1" baseProfile="tiny" id="scene_x5F_washing_x5F_machine"
	 xmlns="http://www.w3.org/2000/svg" xmlns:xlink="http://www.w3.org/1999/xlink" x="0px" y="0px" width="361px" height="361px"
	 viewBox="0 0 361 361" xml:space="preserve">
<g>
	<path fill="#FFFFFF" d="M255.167,118.143c-48.647,0-97.294,0-145.942,0c-2.517,0-5.034,0-7.551,0c-6.449,0-6.449,10,0,10
		c48.647,0,97.294,0,145.942,0c2.517,0,5.034,0,7.551,0C261.616,128.143,261.616,118.143,255.167,118.143L255.167,118.143z"/>
</g>
<g>
	<path fill="#FFFFFF" d="M250.167,279.116c-0.532,7.91-16.387,5.186-21.503,5.186c-14.593,0-29.187,0-43.779,0
		c-24.468,0-48.935,0-73.403,0c-7.307,0-5.8-8.537-5.8-13.447c0-10.969,0-21.938,0-32.908c0-31.835,0-63.67,0-95.506
		c0-18.101,0-36.202,0-54.303c0-7.789,16.191-5.193,20.83-5.193c14.487,0,28.975,0,43.462,0c24.744,0,49.488,0,74.232,0
		c7.356,0,5.961,8.011,5.961,13.014c0,10.835,0,21.67,0,32.506c0,50.208,0,100.416,0,150.623
		C250.167,279.098,250.167,279.107,250.167,279.116c0,6.449,10,6.449,10,0c0-49.658,0-99.317,0-148.975c0-11.102,0-22.204,0-33.306
		c0-8.689,0.648-17.717-8.698-22.407c-6.351-3.187-16.717-1.483-23.49-1.483c-14.695,0-29.391,0-44.086,0
		c-24.185,0-48.369,0-72.553,0c-8.85,0-15.08,6.593-15.658,15.186c-0.091,1.352,0,2.741,0,4.095c0,9.405,0,18.81,0,28.215
		c0,52.567,0,105.134,0,157.701c0,6.304,2.96,11.797,8.697,14.676c3.232,1.622,6.694,1.483,10.172,1.483c11.157,0,22.313,0,33.47,0
		c29.31,0,58.62,0,87.929,0c2.853,0,5.706,0,8.559,0c8.85,0,15.08-6.592,15.658-15.186
		C260.601,272.676,250.598,272.718,250.167,279.116z"/>
</g>
<g>
	<path fill="#FFFFFF" d="M177.116,105.045c8.715,0,17.43,0,26.145,0c9.687,0,9.772-15.003,0.108-15.003c-8.715,0-17.43,0-26.145,0
		C167.538,90.042,167.452,105.045,177.116,105.045L177.116,105.045z"/>
</g>
<g>
	<path fill="#FFFFFF" d="M230.669,199.296c-0.277,22.931-15.13,43.014-37.078,49.805c-22.01,6.81-46.144-2.655-58.622-21.709
		c-12.626-19.279-10.27-45.251,4.743-62.47c15.105-17.325,40.663-22.333,61.349-12.569
		C219.174,160.902,230.43,179.451,230.669,199.296c0.078,6.444,10.078,6.452,10,0c-0.274-22.65-12.434-43.288-32.218-54.372
		c-19.888-11.141-45.075-9.664-63.99,2.723c-18.917,12.388-29.361,34.817-27.461,57.216c1.888,22.265,16.351,42.082,36.697,51.111
		c19.19,8.517,41.735,6.434,59.242-5.031c17.346-11.359,27.481-31.078,27.729-51.648
		C240.748,192.845,230.748,192.853,230.669,199.296z"/>
</g>
<g>
	<path fill="#FFFFFF" d="M214.116,199.296c-0.344,19.568-15.848,35.071-35.416,35.415c-19.569,0.344-35.08-16.366-35.416-35.415
		c-0.344-19.569,16.366-35.081,35.416-35.416C198.27,163.536,213.781,180.248,214.116,199.296c0.08,4.509,7.08,4.517,7,0
		c-0.395-22.435-17.369-40.354-39.636-42.318c-21.876-1.93-42.145,15.286-44.809,36.813c-2.749,22.219,12.294,42.902,34.251,47.195
		c21.897,4.282,43.208-10.088,48.905-31.277c0.906-3.372,1.227-6.934,1.288-10.413C221.196,194.78,214.196,194.788,214.116,199.296z
		"/>
</g>
<g id="buegeleisen_2_" display="none">
	<g display="inline">
		<path fill="#FFFFFF" d="M251.222,282.545c-0.229,2.271-14.502,1-16.25,1c-1.748,0-16.021,1.272-16.25-1
			c-0.854-8.468,0-17.463,0-25.962c0-15.986,0-31.973,0-47.959c0-6.067,0-12.133,0-18.2c0-1.625-0.882-6.161,0.293-7.585
			c0.074-0.09-1.234-0.999,0.46,0.139c-0.136-0.091,1.264,1.149,1.655,1.534c1.772,1.746,3.345,3.713,4.838,5.699
			c4.051,5.388,7.639,11.13,11.136,16.887c5.16,8.495,10.022,17.187,14.636,25.99c0.456,0.871-0.519-3.93-0.519-1.035
			c0,1.707,0,3.413,0,5.119c0,5.852,0,11.704,0,17.555C251.222,263.999,251.222,273.272,251.222,282.545c0,6.449,10,6.449,10,0
			c0-12.158,0-24.316,0-36.474c0-4.99,0-9.98,0-14.97c0-3.185-2.927-6.989-4.371-9.642c-7.63-14.025-15.565-28.286-25.677-40.7
			c-3.882-4.765-9.652-10.675-16.311-7.061c-5.069,2.752-6.141,7.44-6.141,12.654c0,27.693,0,55.386,0,83.08
			c0,8.863-2.157,24.112,11.168,24.112c6.34,0,12.68,0,19.02,0c5.583,0,13.565,1.337,18.202-2.489
			c2.727-2.25,3.764-5.079,4.109-8.511C261.868,276.13,251.862,276.192,251.222,282.545z"/>
	</g>
	<g display="inline">
		<path fill="#FFFFFF" d="M279.314,236.21c0,17.778,0,35.556,0,53.334c0,6.449,10,6.449,10,0c0-17.778,0-35.556,0-53.334
			C289.314,229.762,279.314,229.762,279.314,236.21L279.314,236.21z"/>
	</g>
	<g display="inline">
		<path fill="#FFFFFF" d="M218.565,294.21c21.806,0,43.611,0,65.417,0c6.449,0,6.449-10,0-10c-21.806,0-43.611,0-65.417,0
			C212.116,284.21,212.116,294.21,218.565,294.21L218.565,294.21z"/>
	</g>
	<g display="inline">
		<path fill="#FFFFFF" d="M257.648,239.981c0,6.756,0,13.513,0,20.269c0,4.514,7,4.514,7,0c0-6.756,0-13.513,0-20.269
			C264.648,235.467,257.648,235.467,257.648,239.981L257.648,239.981z"/>
	</g>
</g>
<path fill="none" stroke="#FFFFFF" stroke-miterlimit="10" d="M41.721,124.67"/>
<g>
	<path fill="#FFFFFF" d="M153.674,77.945c0,15.066,0,30.131,0,45.197c0,6.449,10,6.449,10,0c0-15.066,0-30.131,0-45.197
		C163.674,71.497,153.674,71.497,153.674,77.945L153.674,77.945z"/>
</g>
<g>
	<path fill="#FFFFFF" d="M235.695,100.468c1.543,0,3.086,0,4.629,0c2.726,0,5-2.274,5-5s-2.274-5-5-5c-1.543,0-3.086,0-4.629,0
		c-2.726,0-5,2.274-5,5S232.969,100.468,235.695,100.468L235.695,100.468z"/>
</g>
<g>
	<path fill="#FFFFFF" d="M232.918,179.851c0,12.963,0,25.927,0,38.89c0,6.449,10,6.449,10,0c0-12.963,0-25.927,0-38.89
		C242.918,173.402,232.918,173.402,232.918,179.851L232.918,179.851z"/>
</g>
<g>
	<path fill="#FFFFFF" d="M172.21,113.545c3.307,0,6.613,0,9.92,0c1.935,0,1.935-3,0-3c-3.307,0-6.613,0-9.92,0
		C170.275,110.545,170.275,113.545,172.21,113.545L172.21,113.545z"/>
</g>
<g>
	<path fill="#FFFFFF" d="M188.126,113.545c3.307,0,6.613,0,9.92,0c1.935,0,1.935-3,0-3c-3.307,0-6.613,0-9.92,0
		C186.191,110.545,186.191,113.545,188.126,113.545L188.126,113.545z"/>
</g>
<g>
	<path fill="#FFFFFF" d="M204.042,113.545c3.307,0,6.613,0,9.92,0c1.935,0,1.935-3,0-3c-3.307,0-6.613,0-9.92,0
		C202.107,110.545,202.107,113.545,204.042,113.545L204.042,113.545z"/>
</g>
<g>
	<path fill="#FFFFFF" d="M219.958,113.545c3.307,0,6.613,0,9.92,0c1.935,0,1.935-3,0-3c-3.307,0-6.613,0-9.92,0
		C218.023,110.545,218.023,113.545,219.958,113.545L219.958,113.545z"/>
</g>
<g>
	<path fill="#FFFFFF" d="M136.315,272.375c-0.642,5.574-8.164,4.169-11.5,4.169s-10.858,1.405-11.5-4.169
		c-0.585-5.081,0-10.541,0-15.661c0-5.545,8.613-4.169,11.5-4.169c3.336,0,10.858-1.405,11.5,4.169
		C136.9,261.795,136.315,267.255,136.315,272.375c0,1.935,3,1.935,3,0c0-4.405,0-8.81,0-13.214c0-4.014-0.937-8.899-5.87-9.467
		c-4.606-0.531-9.401-0.15-14.033-0.15c-4.906,0-8.491,1.91-9.097,7.169c-0.493,4.284,0,8.902,0,13.214
		c0,4.014,0.937,8.899,5.87,9.467c4.606,0.531,9.401,0.15,14.033,0.15c4.906,0,8.491-1.91,9.097-7.169
		C139.536,270.456,136.534,270.477,136.315,272.375z"/>
</g>
</svg>
