<?xml version="1.0" encoding="iso-8859-1"?>
<!-- Generator: Adobe Illustrator 16.0.0, SVG Export Plug-In . SVG Version: 6.00 Build 0)  -->
<!DOCTYPE svg PUBLIC "-//W3C//DTD SVG 1.1//EN" "http://www.w3.org/Graphics/SVG/1.1/DTD/svg11.dtd">
<svg version="1.1" xmlns="http://www.w3.org/2000/svg" xmlns:xlink="http://www.w3.org/1999/xlink" x="0px" y="0px" width="361px"
	 height="361px" viewBox="0 0 361 361" style="enable-background:new 0 0 361 361;" xml:space="preserve">
<g id="scene_x5F_kitchen_x5F_sink">
	<g>
		<g>
			<g>
				<path style="fill:#FFFFFF;" d="M218.163,148.309c17.768,0,35.536,0,53.304,0c1.935,0,1.935-3,0-3c-17.768,0-35.536,0-53.304,0
					C216.229,145.309,216.229,148.309,218.163,148.309L218.163,148.309z"/>
			</g>
		</g>
		<g>
			<g>
				<path style="fill:#FFFFFF;" d="M208.441,158.184c21.009,0,42.017,0,63.025,0c1.935,0,1.935-3,0-3c-21.009,0-42.017,0-63.025,0
					C206.507,155.184,206.507,158.184,208.441,158.184L208.441,158.184z"/>
			</g>
		</g>
		<g>
			<g>
				<path style="fill:#FFFFFF;" d="M197.753,168.059c24.571,0,49.143,0,73.714,0c1.935,0,1.935-3,0-3c-24.571,0-49.143,0-73.714,0
					C195.818,165.059,195.818,168.059,197.753,168.059L197.753,168.059z"/>
			</g>
		</g>
		<g>
			<g>
				<path style="fill:#FFFFFF;" d="M197.753,177.935c24.571,0,49.143,0,73.714,0c1.935,0,1.935-3,0-3c-24.571,0-49.143,0-73.714,0
					C195.818,174.935,195.818,177.935,197.753,177.935L197.753,177.935z"/>
			</g>
		</g>
		<g>
			<g>
				<path style="fill:#FFFFFF;" d="M197.753,187.81c24.571,0,49.143,0,73.714,0c1.935,0,1.935-3,0-3c-24.571,0-49.143,0-73.714,0
					C195.818,184.81,195.818,187.81,197.753,187.81L197.753,187.81z"/>
			</g>
		</g>
		<g>
			<g>
				<path style="fill:#FFFFFF;" d="M197.753,197.685c24.571,0,49.143,0,73.714,0c1.935,0,1.935-3,0-3c-24.571,0-49.143,0-73.714,0
					C195.818,194.685,195.818,197.685,197.753,197.685L197.753,197.685z"/>
			</g>
		</g>
		<g>
			<g>
				<path style="fill:#FFFFFF;" d="M197.753,207.56c24.571,0,49.143,0,73.714,0c1.935,0,1.935-3,0-3c-24.571,0-49.143,0-73.714,0
					C195.818,204.56,195.818,207.56,197.753,207.56L197.753,207.56z"/>
			</g>
		</g>
		<g>
			<g>
				<path style="fill:#FFFFFF;" d="M197.753,217.436c24.571,0,49.143,0,73.714,0c1.935,0,1.935-3,0-3c-24.571,0-49.143,0-73.714,0
					C195.818,214.436,195.818,217.436,197.753,217.436L197.753,217.436z"/>
			</g>
		</g>
	</g>
	<path style="fill:#FFFFFF;" d="M280.5,241.5h-200c-6.065,0-11-4.935-11-11v-100c0-6.065,4.935-11,11-11h200c6.065,0,11,4.935,11,11
		v100C291.5,236.565,286.565,241.5,280.5,241.5z M80.5,129.5c-0.551,0-1,0.449-1,1v100c0,0.551,0.449,1,1,1h200c0.551,0,1-0.449,1-1
		v-100c0-0.551-0.449-1-1-1H80.5z"/>
	<g>
		<g>
			<g>
				<path style="fill:#FFFFFF;" d="M144.638,156.499c-0.378,7.024-10.521,7.024-10.899,0
					C133.36,149.47,144.262,149.506,144.638,156.499c0.104,1.924,3.104,1.934,3,0c-0.257-4.78-3.669-8.193-8.45-8.45
					c-4.77-0.257-8.213,4.057-8.45,8.45c-0.257,4.77,4.057,8.213,8.45,8.449c4.77,0.257,8.213-4.057,8.45-8.449
					C147.742,154.564,144.742,154.575,144.638,156.499z"/>
			</g>
		</g>
		<g>
			<g>
				<g>
					<path style="fill:#FFFFFF;" d="M203.741,136.549c4.116,0.222,4.116,6.163,0,6.385
						C199.622,143.155,199.645,136.77,203.741,136.549c1.924-0.104,1.934-3.104,0-3c-3.501,0.188-6.004,2.692-6.192,6.193
						c-0.188,3.493,2.976,6.019,6.192,6.192c3.492,0.188,6.02-2.975,6.192-6.192c0.188-3.493-2.975-6.02-6.192-6.193
						C201.808,133.445,201.817,136.445,203.741,136.549z"/>
				</g>
			</g>
			<g>
				<g>
					<path style="fill:#FFFFFF;" d="M205.38,144.484c-0.137-3.123-0.273-6.245-0.41-9.367c-0.084-1.927-3.085-1.935-3,0
						c0.137,3.123,0.273,6.245,0.41,9.367C202.464,146.411,205.465,146.419,205.38,144.484L205.38,144.484z"/>
				</g>
			</g>
		</g>
		<g>
			<g>
				<g>
					<path style="fill:#FFFFFF;" d="M193.852,141.269c0.002-0.03,0.005-0.061,0.008-0.091c0.166-1.928-0.89-4.067-2.227-5.387
						c-1.383-1.365-3.277-2.156-5.222-2.169c-2.007-0.014-3.976,0.797-5.387,2.226c-0.387,0.508-0.774,1.017-1.162,1.525
						c-0.656,1.145-0.991,2.376-1.006,3.696c-0.003,0.03-0.005,0.061-0.008,0.091c-0.166,1.928,0.89,4.067,2.226,5.387
						c1.383,1.365,3.277,2.156,5.222,2.169c2.007,0.014,3.976-0.797,5.387-2.226c0.387-0.508,0.774-1.017,1.162-1.525
						C193.5,143.82,193.836,142.588,193.852,141.269L193.852,141.269z"/>
				</g>
			</g>
			<g>
				<g>
					<path style="fill:#FFFFFF;" d="M185.381,167.483c-3.718-0.751-1.898-12.482-1.898-15.02c0-2.881,0-5.763,0-8.644
						c0-2.973,0.438-4.354,3.966-4.354c3.342,0,1.786,14.06,1.786,15.945c0,2.763,0,5.526,0,8.289c0,2.919-1.212,3.729-4.252,3.729
						c-1.935,0-1.935,3,0,3c3.148,0,7.252-0.264,7.252-4.5c0-3.184,0-6.367,0-9.55c0-4.395,0-8.79,0-13.184
						c0-3.19-0.431-5.935-4.102-6.676c-8.971-1.812-7.65,7.244-7.65,13.045c0,4.712,0,9.424,0,14.136
						c0,3.19,0.431,5.935,4.102,6.676C186.473,170.758,187.276,167.866,185.381,167.483z"/>
				</g>
			</g>
			<path style="fill:#FFFFFF;" d="M172.638,160.837l-3.5,3.5c0,4.395,0,8.79,0,13.184c0,10.717,0,21.434,0,32.15
				c-0.456,8.456-7.644,9.002-14.086,9.002c-7.036,0-14.072,0-21.108,0c-7.678,0-15.356,0-23.034,0
				c-4.283,0-9.733,0.805-13.66-1.229c-5.453-2.825-4.458-9.681-4.458-14.758c0-7.396,0-14.791,0-22.187c0-7.395,0-14.791,0-22.186
				c0-5.474-0.863-11.262,4.458-14.758c3.126-2.054,8.667-1.229,12.214-1.229c7.167,0,14.333,0,21.5,0c6.93,0,13.859,0,20.789,0
				c4.109,0,9.164-0.72,12.925,1.229c4.371,2.265,4.534,6.914,4.483,11.208l6.437-6.437c-0.719-3.619-2.307-6.876-5.604-9.563
				c-4.415-3.596-9.642-3.437-14.943-3.437c-7.036,0-14.072,0-21.108,0c-7.678,0-15.356,0-23.034,0
				c-4.233,0-8.539-0.269-12.729,0.414c-15.363,2.502-12.39,22.096-12.39,33.122c0,13.345,0,26.688,0,40.032
				c0,8.278,5.413,15.229,13.709,16.58c3.931,0.641,8.21,0.199,12.166,0.199c14.654,0,29.308,0,43.962,0
				c2.76,0,5.381,0.032,8.12-0.414c7.459-1.215,12.013-8.595,12.39-15.588c0-11.701,0-23.401,0-35.102c0-5.744,0-11.488,0-17.233
				L172.638,160.837z"/>
			<g>
				<g>
					<path style="fill:#FFFFFF;" d="M180.922,149.432c-5.343,5.343-10.687,10.686-16.029,16.029
						c-4.113,4.113-8.226,8.226-12.339,12.338c-0.865,0.865-1.729,1.729-2.594,2.594c-1.912,1.912-3.668-1.639-2.421-2.886
						c0.336-0.336,0.673-0.673,1.01-1.009c7.103-7.103,14.206-14.207,21.309-21.31c3.864-3.864,7.729-7.729,11.594-11.593
						c1.396-1.396,4.902-6.603,7.344-4.159c1.368,1.37,3.489-0.751,2.121-2.121c-3.08-3.083-5.918-1.51-8.452,1.025
						c-3.997,3.996-7.993,7.993-11.989,11.989c-8.353,8.352-16.705,16.705-25.057,25.057c-3.876,3.875,0.28,9.115,4.979,8.202
						c1.237-0.24,2.548-1.938,3.391-2.78c2.327-2.327,4.654-4.654,6.981-6.981c7.424-7.425,14.849-14.85,22.274-22.274
						C184.412,150.184,182.291,148.063,180.922,149.432L180.922,149.432z"/>
				</g>
			</g>
		</g>
	</g>
</g>
<g id="Ebene_1">
</g>
</svg>
