<?xml version="1.0" encoding="iso-8859-1"?>
<!-- Generator: Adobe Illustrator 16.0.0, SVG Export Plug-In . SVG Version: 6.00 Build 0)  -->
<!DOCTYPE svg PUBLIC "-//W3C//DTD SVG 1.1//EN" "http://www.w3.org/Graphics/SVG/1.1/DTD/svg11.dtd">
<svg version="1.1" xmlns="http://www.w3.org/2000/svg" xmlns:xlink="http://www.w3.org/1999/xlink" x="0px" y="0px" width="361px"
	 height="361px" viewBox="0 0 361 361" style="enable-background:new 0 0 361 361;" xml:space="preserve">
<g id="scene_x5F_office">
	<g id="PC">
		<g>
			<path style="fill:#FFFFFF;" d="M109.508,153.17c0.373,1.846-0.822,3.645-2.668,4.017l-5.894,1.188
				c-1.846,0.372-3.645-0.823-4.017-2.669l-16.33-80.981c-0.373-1.846,0.822-3.645,2.669-4.017l5.894-1.188
				c1.846-0.372,3.645,0.823,4.017,2.669L109.508,153.17z"/>
		</g>
		<g>
			<g>
				<path style="fill:#FFFFFF;" d="M89.458,119.832c-3.111,18.739-6.222,37.479-9.333,56.218c-0.733,4.415,6.012,6.306,6.75,1.861
					c3.111-18.739,6.222-37.479,9.333-56.218C96.941,117.278,90.196,115.386,89.458,119.832L89.458,119.832z"/>
			</g>
		</g>
		<g>
			<g>
				<path style="fill:#FFFFFF;" d="M78.833,182.48c11,0,22,0,33,0c4.514,0,4.514-7,0-7c-11,0-22,0-33,0
					C74.319,175.48,74.319,182.48,78.833,182.48L78.833,182.48z"/>
			</g>
		</g>
	</g>
	<g id="Tastatur">
		<g>
			<g>
				<path style="fill:#FFFFFF;" d="M135.836,171.365c13.952,2.354,27.903,4.708,41.855,7.062c1.892,0.319,2.702-2.571,0.798-2.893
					c-13.952-2.354-27.903-4.708-41.855-7.062C134.742,168.153,133.932,171.043,135.836,171.365L135.836,171.365z"/>
			</g>
		</g>
		<g>
			<g>
				<path style="fill:#FFFFFF;" d="M136.677,170.069c1.808,0.305,3.616,0.61,5.423,0.915c1.892,0.319,2.702-2.571,0.798-2.893
					c-1.808-0.305-3.616-0.61-5.423-0.915C135.583,166.857,134.772,169.748,136.677,170.069L136.677,170.069z"/>
			</g>
		</g>
		<g>
			<g>
				<path style="fill:#FFFFFF;" d="M146.448,171.718c1.728,0.292,3.456,0.583,5.184,0.875c1.892,0.319,2.702-2.571,0.798-2.893
					c-1.728-0.292-3.456-0.583-5.184-0.875C145.354,168.506,144.543,171.397,146.448,171.718L146.448,171.718z"/>
			</g>
		</g>
		<g>
			<g>
				<path style="fill:#FFFFFF;" d="M154.834,173.133c1.808,0.305,3.616,0.61,5.423,0.915c1.892,0.319,2.702-2.571,0.798-2.893
					c-1.808-0.305-3.616-0.61-5.423-0.915C153.74,169.921,152.93,172.812,154.834,173.133L154.834,173.133z"/>
			</g>
		</g>
		<g>
			<g>
				<path style="fill:#FFFFFF;" d="M163.504,174.596c1.698,0.287,3.396,0.573,5.094,0.859c1.892,0.319,2.702-2.571,0.798-2.893
					c-1.698-0.287-3.396-0.573-5.094-0.859C162.41,171.384,161.6,174.274,163.504,174.596L163.504,174.596z"/>
			</g>
		</g>
		<g>
			<g>
				<path style="fill:#FFFFFF;" d="M171.928,176.017c1.753,0.296,3.506,0.592,5.259,0.888c1.892,0.319,2.702-2.571,0.798-2.893
					c-1.753-0.296-3.506-0.592-5.259-0.888C170.834,172.805,170.024,175.695,171.928,176.017L171.928,176.017z"/>
			</g>
		</g>
		<g>
			<g>
				<path style="fill:#FFFFFF;" d="M137.735,171.712c-0.106,1.83-0.213,3.661-0.319,5.491c-0.112,1.934,2.888,1.923,3,0
					c0.106-1.83,0.213-3.661,0.319-5.491C140.848,169.779,137.847,169.79,137.735,171.712L137.735,171.712z"/>
			</g>
		</g>
	</g>
	<g id="Stuhl">
		<g>
			<g>
				<path style="fill:#FFFFFF;" d="M216.459,221.753c20.497,0,40.993,0,61.49,0c6.448,0,6.448-10,0-10c-20.497,0-40.993,0-61.49,0
					C210.011,211.753,210.011,221.753,216.459,221.753L216.459,221.753z"/>
			</g>
		</g>
		<g>
			<g>
				<path style="fill:#FFFFFF;" d="M243.55,216.753c0,16.21,0,32.42,0,48.63c0,6.448,10,6.448,10,0c0-16.21,0-32.42,0-48.63
					C253.55,210.305,243.55,210.305,243.55,216.753L243.55,216.753z"/>
			</g>
		</g>
		<g>
			<g>
				<path style="fill:#FFFFFF;" d="M248.906,262.91c-11.936,4.279-23.872,8.559-35.809,12.838c-4.216,1.512-2.398,8.277,1.861,6.75
					c11.936-4.279,23.872-8.559,35.809-12.838C254.983,268.148,253.166,261.383,248.906,262.91L248.906,262.91z"/>
			</g>
		</g>
		<g>
			<g>
				<path style="fill:#FFFFFF;" d="M247.619,269.66c11.937,4.279,23.873,8.559,35.809,12.838c4.26,1.527,6.077-5.238,1.861-6.75
					c-11.937-4.279-23.873-8.559-35.809-12.838C245.221,261.383,243.403,268.148,247.619,269.66L247.619,269.66z"/>
			</g>
		</g>
		<g>
			<g>
				<path style="fill:#FFFFFF;" d="M277.479,120.762c-2.384,18.739-4.769,37.479-7.152,56.218c-0.813,6.385,9.197,6.307,10,0
					c2.384-18.739,4.769-37.479,7.152-56.218C288.291,114.377,278.281,114.456,277.479,120.762L277.479,120.762z"/>
			</g>
		</g>
		<g>
			<g>
				<path style="fill:#FFFFFF;" d="M270.326,178.981c0.874,7.71,1.749,15.42,2.623,23.13c0.718,6.332,10.726,6.401,10,0
					c-0.874-7.71-1.749-15.42-2.623-23.13C279.608,172.649,269.601,172.579,270.326,178.981L270.326,178.981z"/>
			</g>
		</g>
		<g>
			<g>
				<path style="fill:#FFFFFF;" d="M277.983,88.153c1.254,5.859,2.508,11.719,3.762,17.578c1.349,6.305,10.988,3.63,9.643-2.658
					c-1.254-5.859-2.508-11.719-3.762-17.578C286.277,79.19,276.638,81.865,277.983,88.153L277.983,88.153z"/>
			</g>
		</g>
		<g>
			<g>
				<path style="fill:#FFFFFF;" d="M227.958,190.521c12.375,0,24.75,0,37.125,0c4.514,0,4.514-7,0-7c-12.375,0-24.75,0-37.125,0
					C223.444,183.521,223.444,190.521,227.958,190.521L227.958,190.521z"/>
			</g>
		</g>
		<g>
			<g>
				<path style="fill:#FFFFFF;" d="M252.867,187.699c0.248,9.608,0.496,19.216,0.744,28.824c0.05,1.931,3.05,1.936,3,0
					c-0.248-9.608-0.496-19.216-0.744-28.824C255.817,185.769,252.817,185.764,252.867,187.699L252.867,187.699z"/>
			</g>
		</g>
		<g>
			<g>
				<path style="fill:#FFFFFF;" d="M214.142,284.667c-0.664,0-1.328,0-1.992,0c-1.908,0-3.5,1.592-3.5,3.5s1.592,3.5,3.5,3.5
					c0.664,0,1.328,0,1.992,0c1.908,0,3.5-1.592,3.5-3.5S216.05,284.667,214.142,284.667L214.142,284.667z"/>
			</g>
		</g>
		<g>
			<g>
				<path style="fill:#FFFFFF;" d="M285.354,284.667c-0.664,0-1.328,0-1.992,0c-1.908,0-3.5,1.592-3.5,3.5s1.592,3.5,3.5,3.5
					c0.664,0,1.328,0,1.992,0c1.908,0,3.5-1.592,3.5-3.5S287.263,284.667,285.354,284.667L285.354,284.667z"/>
			</g>
		</g>
	</g>
	<g>
		<g>
			<g>
				<path style="fill:#FFFFFF;" d="M75.167,188.123c35.222,0,70.444,0,105.667,0c6.448,0,6.448-10,0-10
					c-35.222,0-70.444,0-105.667,0C68.718,178.123,68.718,188.123,75.167,188.123L75.167,188.123z"/>
			</g>
		</g>
		<g>
			<g>
				<path style="fill:#FFFFFF;" d="M104.163,186.336c0,32.596,0,65.191,0,97.787c0,6.448,10,6.448,10,0c0-32.596,0-65.191,0-97.787
					C114.163,179.887,104.163,179.887,104.163,186.336L104.163,186.336z"/>
			</g>
		</g>
		<g>
			<g>
				<path style="fill:#FFFFFF;" d="M76.163,186.336c0,32.596,0,65.191,0,97.787c0,6.448,10,6.448,10,0c0-32.596,0-65.191,0-97.787
					C86.163,179.887,76.163,179.887,76.163,186.336L76.163,186.336z"/>
			</g>
		</g>
		<g>
			<g>
				<path style="fill:#FFFFFF;" d="M75.167,291.834c22.889,0,45.778,0,68.667,0c6.449,0,6.449-10,0-10c-22.889,0-45.778,0-68.667,0
					C68.718,281.834,68.718,291.834,75.167,291.834L75.167,291.834z"/>
			</g>
		</g>
	</g>
</g>
<g id="Ebene_1">
</g>
</svg>
