<?xml version="1.0" encoding="iso-8859-1"?>
<!-- Generator: Adobe Illustrator 16.0.0, SVG Export Plug-In . SVG Version: 6.00 Build 0)  -->
<!DOCTYPE svg PUBLIC "-//W3C//DTD SVG 1.1//EN" "http://www.w3.org/Graphics/SVG/1.1/DTD/svg11.dtd">
<svg version="1.1" xmlns="http://www.w3.org/2000/svg" xmlns:xlink="http://www.w3.org/1999/xlink" x="0px" y="0px" width="361px"
	 height="361px" viewBox="0 0 361 361" style="enable-background:new 0 0 361 361;" xml:space="preserve">
<g id="scene_x5F_keyboard">
	<g id="Schluessel3">
		<g>
			<g>
				<path style="fill:#FFFFFF;" d="M215.253,142.695c5.888-1.038,11.775-2.075,17.664-3.113c8.45-1.489,8.609,11.82,9.553,17.179
					c1.52,8.639,3.04,17.278,4.56,25.917c0.423,2.401,0.845,4.802,1.268,7.202c1.103,6.268-4.445,7.697-9.154,8.525
					c-0.814,0.143-1.239,1.112-1.048,1.845c2.546,9.781,3.639,20.138,5.389,30.083c2.493,14.171,4.986,28.343,7.48,42.515
					c1.009,5.733,1.58,11.199-6.121,12.554c-4.692,0.825-10.679,1.687-11.81-4.741c-0.198-1.125-0.396-2.251-0.594-3.376
					c-2.408-13.686-4.815-27.371-7.224-41.057c-1.893-10.758-4.635-21.714-5.655-32.597c-0.097-1.03-0.879-1.626-1.898-1.446
					c-1.582,0.278-3.164,0.558-4.746,0.836c-1.903,0.335-1.094,3.226,0.797,2.893c1.582-0.278,3.164-0.558,4.746-0.836
					c-0.633-0.482-1.266-0.964-1.898-1.446c0.927,9.884,3.371,19.797,5.089,29.564c2.519,14.314,5.037,28.629,7.556,42.943
					c0.677,3.848,0.935,7.372,3.672,10.433c4.299,4.808,15.121,2.504,19.343-1.271c3.511-3.141,2.596-7.799,1.887-11.828
					c-1.01-5.74-2.021-11.481-3.03-17.222c-2.154-12.247-4.31-24.493-6.464-36.74c-1.169-6.64-1.925-13.525-3.625-20.057
					c-0.349,0.614-0.698,1.229-1.048,1.845c4.224-0.742,8.811-1.528,10.626-6.059c1.222-3.047,0.697-5.739,0.158-8.805
					c-1.735-9.862-3.471-19.725-5.205-29.587c-1.034-5.876-0.947-16.796-7.615-19.469c-3.881-1.556-7.827-0.33-11.777,0.367
					c-3.89,0.686-7.78,1.371-11.67,2.057C212.553,140.138,213.362,143.028,215.253,142.695L215.253,142.695z"/>
			</g>
		</g>
		<g>
			<g>
				<path style="fill:#FFFFFF;" d="M233.373,213.984c1.547,8.795,3.095,17.59,4.642,26.385c0.335,1.903,3.226,1.095,2.893-0.797
					c-1.547-8.795-3.095-17.59-4.642-26.385C235.931,211.284,233.04,212.093,233.373,213.984L233.373,213.984z"/>
			</g>
		</g>
		<g>
			<g>
				<path style="fill:#FFFFFF;" d="M229.099,219.986c2.205,12.534,4.41,25.067,6.615,37.601c0.335,1.903,3.226,1.095,2.893-0.797
					c-2.205-12.534-4.41-25.067-6.615-37.601C231.656,217.286,228.766,218.096,229.099,219.986L229.099,219.986z"/>
			</g>
		</g>
		<g>
			<g>
				<path style="fill:#FFFFFF;" d="M222.837,218.188c0.544,2.346,2.715,3.98,5.138,3.688c2.541-0.307,4.396-2.644,4.087-5.191
					c-0.308-2.54-2.644-4.396-5.191-4.087c-2.54,0.308-4.395,2.645-4.087,5.192c0.229,1.896,3.231,1.918,3,0
					c-0.116-0.966,0.154-1.82,1.146-2.167c0.899-0.314,1.812,0.275,2.106,1.121c0.771,2.209-2.756,3.021-3.307,0.647
					C225.293,215.506,222.4,216.306,222.837,218.188z"/>
			</g>
		</g>
		<g>
			<g>
				<path style="fill:#FFFFFF;" d="M235.205,244.896c0.591,2.547,2.932,4.301,5.56,3.983c2.746-0.332,4.714-2.877,4.383-5.613
					c-0.332-2.746-2.877-4.715-5.614-4.384c-2.746,0.332-4.714,2.879-4.382,5.615c0.229,1.896,3.232,1.918,3,0
					c-0.141-1.156,0.229-2.171,1.403-2.581c1.094-0.382,2.201,0.345,2.559,1.371c0.931,2.668-3.352,3.674-4.016,0.812
					C237.66,242.215,234.769,243.015,235.205,244.896z"/>
			</g>
		</g>
		<g>
			<g>
				<path style="fill:#FFFFFF;" d="M231.589,261.92c0.591,2.547,2.931,4.302,5.56,3.984c2.746-0.332,4.715-2.877,4.384-5.614
					c-0.332-2.746-2.878-4.714-5.614-4.383c-2.746,0.332-4.714,2.878-4.383,5.614c0.229,1.896,3.231,1.918,3,0
					c-0.14-1.156,0.229-2.171,1.404-2.58c1.093-0.382,2.201,0.345,2.559,1.37c0.932,2.669-3.353,3.675-4.017,0.812
					C234.045,259.238,231.152,260.038,231.589,261.92z"/>
			</g>
		</g>
		<g>
			<g>
				<path style="fill:#FFFFFF;" d="M237.766,276.522c0.422,1.822,2.149,3.148,4.039,2.919c2.005-0.243,3.567-2.038,3.318-4.094
					c-0.243-2.006-2.038-3.565-4.094-3.317c-2.005,0.242-3.566,2.039-3.317,4.094c0.099,0.812,0.607,1.5,1.5,1.5
					c0.743,0,1.599-0.687,1.5-1.5c-0.057-0.468-0.035-0.913,0.479-1.092c0.395-0.138,0.798,0.094,0.931,0.476
					c0.353,1.011-1.206,1.325-1.463,0.218C240.222,273.841,237.329,274.641,237.766,276.522z"/>
			</g>
		</g>
		<g>
			<g>
				<path style="fill:#FFFFFF;" d="M236.944,264.584c0.559,3.176,1.118,6.352,1.677,9.526c0.335,1.903,3.226,1.095,2.893-0.797
					c-0.559-3.176-1.118-6.352-1.677-9.526C239.502,261.884,236.611,262.693,236.944,264.584L236.944,264.584z"/>
			</g>
		</g>
		<g>
			<g>
				<path style="fill:#FFFFFF;" d="M240.144,279.759c0.414,2.355,0.828,4.71,1.242,7.064c0.335,1.903,3.226,1.095,2.893-0.797
					c-0.414-2.355-0.828-4.71-1.242-7.064C242.701,277.059,239.811,277.867,240.144,279.759L240.144,279.759z"/>
			</g>
		</g>
		<g>
			<g>
				<path style="fill:#FFFFFF;" d="M239.319,247.778c2.241,12.742,4.483,25.484,6.725,38.226c0.335,1.903,3.226,1.094,2.893-0.797
					c-2.241-12.742-4.483-25.484-6.725-38.226C241.877,245.078,238.986,245.887,239.319,247.778L239.319,247.778z"/>
			</g>
		</g>
	</g>
	<g id="Schluessel2">
		<g>
			<g>
				<path style="fill:#FFFFFF;" d="M228.77,142.563c-6.766-1.382-13.532-2.764-20.298-4.146c-6.491-1.326-13.884-1.392-15.56,6.817
					c-1.565,7.663-3.13,15.325-4.694,22.988c-1.446,7.081-1.379,14.261,7.396,16.042c-0.35-0.615-0.699-1.23-1.048-1.845
					c-1.186,3.563-1.632,6.409-0.375,9.851c0.408,1.117,0.816,2.234,1.225,3.352c0.675,1.849,1.334-0.904-0.017,0.512
					c-1.461,1.532-2.922,3.063-4.383,4.596c-0.354,0.372-0.559,0.952-0.386,1.459c0.585,1.718,1.169,3.436,1.754,5.153
					c0.368,1.081,0.735,2.162,1.104,3.242c0.568,1.67,1.284-1.151-0.153,0.541c-1.859,2.19-5.521,5.815-4.372,9.222
					c0.628,1.861,1.256,3.723,1.884,5.583c0.244,0.723,0.288,2.135,0.599,1.319c-0.456,1.199-0.912,2.397-1.367,3.597
					c-1.668,4.386,0.585,7.819,3.313,11.401c0.499,0.656,1.275,0.98,2.052,0.538c2.925-1.664,7.457-4.151,7.607-7.942
					c0.045-1.125,0.09-2.249,0.134-3.374c0.021-0.513,0.041-1.025,0.062-1.538c0.054-1.367-0.87,0.928-0.021-0.023
					c1.599-1.794,3.198-3.587,4.797-5.38c2.313-2.595,0.986-6.682,0.119-9.472c-0.611-1.969,0.039-1.832-0.952-0.728
					c0.748-0.833,1.495-1.667,2.242-2.5c1.428-1.592,2.854-3.184,4.282-4.775c0.337-0.376,0.576-0.951,0.386-1.459
					c-0.743-1.982-1.487-3.964-2.23-5.946c-0.685-1.825-0.841,0.403-0.412-0.054c0.957-1.021,1.913-2.041,2.87-3.061
					c2.615-2.791,3.04-5.286,3.624-9.131c-0.615,0.35-1.23,0.699-1.845,1.048c5.25,1.072,12.026,0.986,13.886-5.43
					c1.208-4.168,1.852-8.54,2.719-12.788C234.451,161.703,240.981,146.099,228.77,142.563c-1.862-0.54-2.651,2.355-0.797,2.893
					c6.044,1.75,5.366,6.733,4.408,11.422c-0.854,4.186-1.71,8.372-2.564,12.558c-0.715,3.498-1.429,6.995-2.144,10.493
					c-1.19,5.831-5.655,6.675-10.771,5.63c-0.725-0.148-1.716,0.201-1.845,1.048c-0.131,0.86-0.323,1.711-0.498,2.564
					c-0.16,0.783-1.038,3.836-0.494,3.257c-1.706,1.819-3.412,3.639-5.117,5.458c-0.344,0.366-0.573,0.959-0.386,1.459
					c0.743,1.982,1.487,3.964,2.23,5.946c0.699,1.864,1.313-0.932,0.111,0.408c-0.982,1.095-1.965,2.19-2.946,3.286
					c-0.938,1.045-2.966,2.545-3.36,3.979c-0.459,1.667,1.169,4.561,1.655,6.126c0.179,0.574,0.163-0.036-0.133,1.411
					c-0.112,0.55-0.225,1.1-0.337,1.649c-0.279,1.363,0.533-0.21-0.171,0.579c-1.634,1.832-3.268,3.665-4.901,5.497
					c-1.112,1.247-0.572,4.413-0.633,5.922c-0.115,2.91-3.823,4.725-6.148,6.048c0.684,0.179,1.368,0.358,2.052,0.538
					c-1.096-1.439-4.432-5.352-3.726-7.211c0.663-1.744,2.197-4.157,2.197-6.037c0-1.876-1.347-4.229-1.938-5.981
					c-0.449-1.332-0.719-3.946-0.105-4.668c1.306-1.538,2.612-3.077,3.918-4.615c1.066-1.255-0.306-3.491-0.736-4.758
					c-0.503-1.476-1.005-2.952-1.508-4.428c-0.135-0.396-0.27-0.792-0.404-1.188c-0.368-1.082-1.044,1.531-0.156,0.601
					c1.604-1.681,3.206-3.362,4.81-5.043c0.349-0.365,0.568-0.959,0.386-1.459c-2.058-5.634-3.146-7.055-1.259-12.729
					c0.245-0.737-0.275-1.688-1.048-1.845c-8.979-1.823-5.705-10.367-4.447-16.527c1.261-6.174,2.521-12.348,3.782-18.522
					c1.747-8.554,10.355-5.334,16.17-4.146c5.353,1.093,10.705,2.187,16.058,3.279C229.86,145.841,230.665,142.95,228.77,142.563z"
					/>
			</g>
		</g>
		<g>
			<g>
				<path style="fill:#FFFFFF;" d="M217.242,149.303c4.01,1.232,2.246,8.12-1.865,7.28c-1.613-0.33-3.227-0.659-4.84-0.988
					c-4.084-0.834-2.25-8.121,1.866-7.28C214.016,148.645,215.629,148.974,217.242,149.303c1.888,0.386,2.692-2.506,0.797-2.893
					c-3.27-0.668-6.876-2.122-9.891-0.063c-4.442,3.033-3.544,10.562,1.592,12.141c3.043,0.936,7.102,1.969,9.892,0.063
					c4.441-3.033,3.542-10.563-1.593-12.141C216.186,145.841,215.398,148.737,217.242,149.303z"/>
			</g>
		</g>
	</g>
	<g id="Schluessel1">
		<g>
			<g>
				<path style="fill:#FFFFFF;" d="M119.057,145.987c-7.379,0-14.758,0-22.137,0c-7.795,0-16.231,2.496-16.231,12.022
					c0,8.125,0,16.25,0,24.375c0,7.528-0.879,15.761,7.746,18.766c-0.367-0.482-0.734-0.964-1.101-1.446c0,14.873,0,29.745,0,44.618
					c0,9.032,0,18.064,0,27.097c0,2.283,0,4.565,0,6.849c0,2.148,1.539,4.012,2.53,5.852c0.249,0.461,0.781,0.743,1.295,0.743
					c2.591,0,4.018,0.21,6.113-1.231c1.799-1.237,5.441-2.754,6.576-4.691c1.098-1.875,0.205-6.115,0.205-8.198
					c0-2.045-0.309-0.884,0.484-2.397c0.656-1.253,1.313-2.505,1.969-3.758c0.619-1.182,0.732-5.24,0-6.371
					c-0.748-1.153-1.495-2.308-2.243-3.461c-0.839-1.294-0.678,1.456-0.189,0.371c0.314-0.699,0.629-1.398,0.943-2.097
					c0.673-1.496,3.219-5.042,2.375-6.792c-1.181-2.447-2.362-4.894-3.543-7.34c-0.079,0.605-0.157,1.212-0.235,1.817
					c2.137-2.147,7.527-5.6,7.527-8.856c0-1.921,0.633-4.926-0.274-6.694c-1.158-2.257-2.316-4.514-3.474-6.771
					c-0.079,0.605-0.157,1.212-0.235,1.817c1.88-1.985,5.679-4.483,5.781-7.405c0.158-4.564,0.316-9.128,0.475-13.692
					c-0.5,0.5-1,1-1.5,1.5c7.345,0,14.886,1.76,18.437-6.47c1.888-4.374,0.839-10.816,0.839-15.402
					C131.188,167.72,135.275,146.969,119.057,145.987c-1.933-0.117-1.922,2.884,0,3c7.904,0.479,9.132,6.8,9.132,13.125
					c0,5.542,0,11.085,0,16.628c0,3.67,0,7.341,0,11.012c0,1.875-0.597,3.45-1.519,5.036c-2.216,3.812-5.614,2.823-9.113,2.823
					c-1.881,0-3.763,0-5.645,0c-0.839,0-1.472,0.683-1.5,1.5c-0.136,3.93-0.272,7.86-0.409,11.79
					c-0.026,0.767-0.053,1.532-0.08,2.298c-0.004,0.118,0.793-1.11-0.403,0.152c-1.495,1.579-2.99,3.157-4.485,4.736
					c-0.485,0.512-0.551,1.2-0.235,1.817c0.997,1.942,1.994,3.885,2.99,5.827c0.534,1.041,0.349,3,0.349,5.399
					c0,1.852,0.299,0.479,0.135,0.644c-0.859,0.864-1.719,1.728-2.578,2.591c-1.401,1.408-2.803,2.817-4.205,4.226
					c-0.504,0.506-0.532,1.202-0.235,1.817c1.162,2.405,2.323,4.812,3.484,7.217c-0.478-0.989,0.243-1.797-0.419-0.326
					c-0.363,0.807-0.726,1.613-1.088,2.42c-0.659,1.464-1.317,2.929-1.976,4.393c-0.39,0.866-0.058,1.425,0.416,2.155
					c0.468,0.723,2.038,3.405,2.038,2.912c0,4.245-0.102,4.477-2.118,8.323c-1.072,2.047-0.54,4.785-0.54,7.025
					c0,0.853,0,1.705,0,2.558c0,1.546-0.296,0.516,0.633-0.124c-1.486,1.021-2.972,2.044-4.457,3.065
					c-0.644,0.443-3.047,1.834-2.493,1.834c-0.858,0-1.717,0-2.576,0c-1.718,0,0.56,1.236-0.07,0.068
					c-0.409-0.759-0.817-1.518-1.226-2.276c-0.262-0.486-0.531-1.819-0.531-0.625c0-0.331,0-0.663,0-0.994
					c0-25.37,0-50.739,0-76.109c0-0.74,0-1.481,0-2.222c0-0.701-0.465-1.225-1.101-1.446c-7.459-2.599-5.543-13.146-5.543-19.517
					c0-6.754,0-13.509,0-20.264c0-10.009,9.448-9.489,16.523-9.489c6.282,0,12.563,0,18.845,0
					C120.991,148.987,120.991,145.987,119.057,145.987z"/>
			</g>
		</g>
		<g>
			<g>
				<path style="fill:#FFFFFF;" d="M92.535,201.107c0,27.418,0,54.836,0,82.254c0,1.935,3,1.935,3,0c0-27.418,0-54.836,0-82.254
					C95.535,199.173,92.535,199.173,92.535,201.107L92.535,201.107z"/>
			</g>
		</g>
		<g>
			<g>
				<path style="fill:#FFFFFF;" d="M102.173,165.913c-0.689,6.048-10.88,5.31-10.88-0.716c0-2.057,0-4.113,0-6.17
					c0-5.978,10.88-5.366,10.88,0.716C102.173,161.799,102.173,163.856,102.173,165.913c0,1.935,3,1.935,3,0
					c0-4.344,0.852-8.827-2.69-12.024c-4.928-4.449-13.445-1.401-14.19,5.138c-0.468,4.106-0.553,9.097,2.69,12.024
					c4.928,4.449,13.445,1.402,14.19-5.138C105.392,163.992,102.39,164.013,102.173,165.913z"/>
			</g>
		</g>
	</g>
	<g id="Schluessel3_1_" style="display:none;">
		<g style="display:inline;">
			<g>
				<path style="fill:#FFFFFF;" d="M209.813,24.589c-9.193,0-18.387,0-27.58,0c-4.794,0-8.8,1.466-10.807,6.214
					c-1.091,2.581-0.613,6.133-0.613,8.862c0,11.383,0,22.767,0,34.15c0,3.052-0.273,6.217,0.461,9.201
					c1.499,6.087,7.823,6.573,12.884,6.573c-0.5-0.5-1-1-1.5-1.5c-0.826,10.07-0.096,20.466-0.096,30.561
					c0,14.389,0,28.778,0,43.167c0,3.567-0.523,7.802,1.983,10.724c3.832,4.468,14.584,5.779,19.302,1.731
					c3.731-3.201,3.715-7.053,3.715-11.469c0-5.977,0-11.953,0-17.929c0-12.135,0-24.27,0-36.404c0-6.743,0.446-13.654-0.094-20.382
					c-0.5,0.5-1,1-1.5,1.5c6.67,0,13.344-1.874,13.344-9.946c0-6.355,0-12.711,0-19.066c0-7.784,0-15.569,0-23.354
					C219.313,30.797,217.211,25.186,209.813,24.589c-1.93-0.156-1.915,2.846,0,3c7.366,0.594,6.5,7.539,6.5,12.773
					c0,6.408,0,12.815,0,19.223c0,5.79,0,11.58,0,17.37c0,1.035,0,2.07,0,3.105c0,6.16-5.8,6.529-10.344,6.529
					c-0.768,0-1.565,0.684-1.5,1.5c0.81,10.075,0.094,20.462,0.094,30.561c0,14.389,0,28.778,0,43.167
					c0,5.759-0.201,11.438-8.056,11.438c-4.685,0-10.944-0.048-10.944-6.567c0-1.143,0-2.285,0-3.428c0-13.896,0-27.791,0-41.687
					c0-11.059-0.809-22.454,0.096-33.485c0.067-0.816-0.733-1.5-1.5-1.5c-5.291,0-10.345-0.962-10.345-7.483
					c0-3.355,0-6.709,0-10.064c0-9.792,0-19.584,0-29.376c0-2.723-0.406-5.908,0.688-8.496c1.892-4.478,7.894-3.581,11.775-3.581
					c7.846,0,15.69,0,23.536,0C211.747,27.589,211.747,24.589,209.813,24.589z"/>
			</g>
		</g>
		<g style="display:inline;">
			<g>
				<path style="fill:#FFFFFF;" d="M188.146,46.401c-0.371,4.136-5.204,5.463-7.609,2.061c-0.727-1.028-0.558-2.668-0.558-3.869
					c0-2.286,0-4.573,0-6.859c0-4.322,5.364-5.238,7.609-2.061c0.727,1.028,0.558,2.668,0.558,3.869
					C188.146,41.828,188.146,44.115,188.146,46.401c0,1.935,3,1.935,3,0c0-4.108,0.986-9.479-1.518-13.021
					c-4.116-5.822-12.107-1.697-12.649,4.354c-0.347,3.873-0.823,9.709,1.518,13.021c4.115,5.821,12.107,1.697,12.649-4.354
					C191.319,44.473,188.317,44.49,188.146,46.401z"/>
			</g>
		</g>
		<g style="display:inline;">
			<g>
				<path style="fill:#FFFFFF;" d="M189.688,100.797c0,8.93,0,17.86,0,26.79c0,1.935,3,1.935,3,0c0-8.93,0-17.86,0-26.79
					C192.688,98.863,189.688,98.863,189.688,100.797L189.688,100.797z"/>
			</g>
		</g>
		<g style="display:inline;">
			<g>
				<path style="fill:#FFFFFF;" d="M194.938,105.967c0,12.726,0,25.453,0,38.179c0,1.935,3,1.935,3,0c0-12.726,0-25.453,0-38.179
					C197.938,104.032,194.938,104.032,194.938,105.967L194.938,105.967z"/>
			</g>
		</g>
		<g style="display:inline;">
			<g>
				<path style="fill:#FFFFFF;" d="M200.793,103.11c-0.117,2.178-3.258,2.178-3.375,0
					C197.301,100.931,200.676,100.943,200.793,103.11c0.104,1.924,3.104,1.934,3,0c-0.143-2.648-2.039-4.545-4.688-4.688
					c-2.643-0.143-4.557,2.253-4.688,4.688c-0.143,2.642,2.254,4.556,4.688,4.688c2.643,0.143,4.557-2.253,4.688-4.688
					C203.897,101.176,200.896,101.186,200.793,103.11z"/>
			</g>
		</g>
		<g style="display:inline;">
			<g>
				<path style="fill:#FFFFFF;" d="M193.24,131.558c-0.143,2.647-3.961,2.647-4.104,0
					C188.994,128.909,193.099,128.923,193.24,131.558c0.104,1.924,3.104,1.934,3,0c-0.153-2.855-2.197-4.898-5.052-5.052
					c-2.849-0.153-4.91,2.428-5.052,5.052c-0.153,2.848,2.428,4.911,5.052,5.052c2.849,0.153,4.91-2.428,5.052-5.052
					C196.345,129.624,193.344,129.634,193.24,131.558z"/>
			</g>
		</g>
		<g style="display:inline;">
			<g>
				<path style="fill:#FFFFFF;" d="M199.751,147.698c-0.143,2.647-3.962,2.647-4.104,0
					C195.504,145.048,199.609,145.063,199.751,147.698c0.104,1.924,3.104,1.934,3,0c-0.153-2.854-2.197-4.898-5.052-5.052
					c-2.849-0.153-4.911,2.428-5.053,5.052c-0.153,2.849,2.429,4.911,5.053,5.052c2.848,0.153,4.91-2.428,5.052-5.052
					C202.855,145.764,199.854,145.774,199.751,147.698z"/>
			</g>
		</g>
		<g style="display:inline;">
			<g>
				<path style="fill:#FFFFFF;" d="M196.199,163.15c-0.052,0.958-1.428,0.958-1.479,0
					C194.668,162.19,196.147,162.197,196.199,163.15c0.104,1.924,3.104,1.934,3,0c-0.114-2.112-1.628-3.626-3.74-3.74
					c-2.107-0.113-3.635,1.799-3.739,3.74c-0.113,2.107,1.799,3.635,3.739,3.739c2.106,0.114,3.636-1.798,3.74-3.739
					C199.304,161.216,196.303,161.226,196.199,163.15z"/>
			</g>
		</g>
		<g style="display:inline;">
			<g>
				<path style="fill:#FFFFFF;" d="M194.938,151.25c0,3.224,0,6.449,0,9.673c0,1.935,3,1.935,3,0c0-3.224,0-6.449,0-9.673
					C197.938,149.315,194.938,149.315,194.938,151.25L194.938,151.25z"/>
			</g>
		</g>
		<g style="display:inline;">
			<g>
				<path style="fill:#FFFFFF;" d="M194.418,166.75c0,2.391,0,4.782,0,7.173c0,1.935,3,1.935,3,0c0-2.391,0-4.782,0-7.173
					C197.418,164.815,194.418,164.815,194.418,166.75L194.418,166.75z"/>
			</g>
		</g>
		<g style="display:inline;">
			<g>
				<path style="fill:#FFFFFF;" d="M189.688,135.11c0,12.938,0,25.875,0,38.813c0,1.935,3,1.935,3,0c0-12.938,0-25.875,0-38.813
					C192.688,133.175,189.688,133.175,189.688,135.11L189.688,135.11z"/>
			</g>
		</g>
	</g>
	<g id="Schluessel2_1_" style="display:none;">
		<g style="display:inline;">
			<g>
				<path style="fill:#FFFFFF;" d="M126.464,60.003c-6.906,0-13.812,0-20.717,0c-6.677,0-13.783,1.537-13.783,9.897
					c0,7.821,0,15.641,0,23.462c0,2.557-0.154,5.07,0.461,7.568c1.125,4.571,5.863,6.573,10.098,6.573c-0.5-0.5-1-1-1.5-1.5
					c-0.448,3.76-0.284,6.561,1.65,9.702c0.624,1.013,1.247,2.026,1.87,3.039c1.038,1.685,1.039-1.158,0,0.498
					c-1.125,1.793-2.25,3.586-3.375,5.379c-0.282,0.45-0.264,1.062,0,1.514c0.917,1.566,1.833,3.132,2.75,4.698
					c0.577,0.986,1.153,1.971,1.73,2.957c0.892,1.523,0.936-1.382-0.128,0.553c-1.412,2.569-4.182,6.772-2.352,9.917
					c1.125,1.934,2.25,3.867,3.375,5.801c0.954,1.64,0.505-0.27,0.37,0.556c-0.227,1.388-0.454,2.777-0.68,4.165
					c-0.7,4.289,2.629,7.373,5.67,10.032c0.647,0.566,1.474,0.566,2.121,0c2.586-2.262,6.401-5.551,5.782-9.346
					c-0.181-1.111-0.362-2.222-0.544-3.332c-0.083-0.506-0.165-1.013-0.248-1.519c-0.223-1.364-0.603,1.117,0.041,0.009
					c1.208-2.077,2.417-4.154,3.625-6.23c1.737-2.986-0.478-6.787-1.865-9.311c-1.037-1.887-0.292-1.712-0.992-0.516
					c0.565-0.966,1.131-1.932,1.696-2.898c1.08-1.845,2.16-3.69,3.24-5.536c0.264-0.452,0.282-1.063,0-1.514
					c-1.125-1.793-2.25-3.586-3.375-5.379c-1.055-1.681-0.674,0.598-0.329,0.037c0.733-1.191,1.466-2.382,2.199-3.573
					c1.996-3.242,1.88-5.845,1.684-9.702c-0.5,0.5-1,1-1.5,1.5c5.425,0,11.883-1.541,12.421-8.202
					c0.349-4.326,0.104-8.737,0.104-13.074C135.964,77.41,139.231,61.033,126.464,60.003c-1.93-0.156-1.915,2.846,0,3
					c6.265,0.505,6.5,5.669,6.5,10.407c0,4.272,0,8.545,0,12.817c0,3.57,0,7.14,0,10.709c0,6.048-4.336,7.566-9.525,7.566
					c-0.786,0-1.542,0.683-1.5,1.5c0.044,0.87,0.025,1.741,0.025,2.612c0,0.864-0.287,3.931,0.126,3.259
					c-1.307,2.124-2.614,4.248-3.921,6.371c-0.272,0.443-0.277,1.072,0,1.515c1.125,1.793,2.25,3.586,3.375,5.379
					c1.067,1.7,1.014-1.182,0.105,0.371c-0.743,1.27-1.486,2.54-2.229,3.809c-0.653,1.116-2.807,3.525-2.401,5.001
					c0.534,1.943,2.099,3.902,3.067,5.663c-0.421-0.767-0.121,1.433-0.121,1.897c0,1.773,0.348,0.62-0.42,1.94
					c-1.093,1.878-2.946,4.051-3.526,6.159c-0.479,1.74,0.613,4.554,0.896,6.286c0.354,2.167-3.47,5.08-5.01,6.428
					c0.707,0,1.414,0,2.121,0c-1.228-1.074-5.357-4.302-5.086-5.962c0.333-2.042,1.025-4.281,1.025-6.352
					c0-1.819-2.301-4.36-3.168-5.85c-0.725-1.247-1.379-3.77-0.953-4.545c0.972-1.768,1.944-3.537,2.916-5.305
					c0.753-1.372-1.139-3.459-1.76-4.521c-0.788-1.346-1.575-2.691-2.363-4.037c-0.211-0.361-0.423-0.722-0.634-1.083
					c-0.581-0.992-0.626,1.71,0.053,0.626c1.235-1.968,2.469-3.936,3.704-5.903c0.277-0.443,0.272-1.071,0-1.515
					c-3.142-5.104-4.443-6.308-3.736-12.242c0.097-0.814-0.756-1.5-1.5-1.5c-9.099,0-7.56-9.191-7.56-15.401
					c0-6.301,0-12.603,0-18.905c0-8.661,9.26-7.194,15.111-7.194c5.463,0,10.926,0,16.389,0
					C128.399,63.003,128.399,60.003,126.464,60.003z"/>
			</g>
		</g>
		<g style="display:inline;">
			<g>
				<path style="fill:#FFFFFF;" d="M116.721,68.92c4.195,0.407,3.598,7.5-0.573,7.5c-1.646,0-3.293,0-4.939,0
					c-4.132,0-3.645-7.5,0.573-7.5C113.428,68.92,115.074,68.92,116.721,68.92c1.935,0,1.935-3,0-3c-3.387,0-7.085-0.68-9.663,1.977
					c-3.823,3.941-1.129,11.011,4.15,11.523c3.22,0.313,7.275,0.484,9.663-1.977c3.823-3.941,1.129-11.011-4.15-11.523
					C114.795,65.733,114.813,68.735,116.721,68.92z"/>
			</g>
		</g>
	</g>
	<g id="Schluessel1_1_" style="display:none;">
		<g style="display:inline;">
			<g>
				<path style="fill:#FFFFFF;" d="M286.826,38.253c-7.379,0-14.758,0-22.137,0c-7.795,0-16.231,2.496-16.231,12.022
					c0,8.125,0,16.25,0,24.374c0,7.528-0.88,15.762,7.746,18.766c-0.367-0.482-0.734-0.964-1.102-1.446c0,14.873,0,29.746,0,44.619
					c0,9.032,0,18.064,0,27.097c0,2.283,0,4.566,0,6.849c0,2.148,1.538,4.012,2.53,5.852c0.248,0.461,0.781,0.743,1.295,0.743
					c2.592,0,4.018,0.21,6.113-1.232c1.799-1.237,5.441-2.754,6.576-4.691c1.099-1.875,0.205-6.116,0.205-8.199
					c0-2.045-0.31-0.884,0.484-2.398c0.656-1.252,1.313-2.505,1.969-3.757c0.619-1.182,0.733-5.24,0-6.371
					c-0.747-1.153-1.495-2.307-2.242-3.46c-0.839-1.294-0.678,1.457-0.19,0.371c0.315-0.699,0.63-1.398,0.944-2.097
					c0.672-1.496,3.218-5.042,2.373-6.792c-1.181-2.446-2.361-4.893-3.543-7.339c-0.078,0.605-0.156,1.211-0.234,1.817
					c2.138-2.147,7.527-5.6,7.527-8.856c0-1.921,0.633-4.927-0.274-6.695c-1.158-2.257-2.317-4.514-3.476-6.771
					c-0.078,0.605-0.156,1.211-0.234,1.817c1.881-1.985,5.68-4.482,5.781-7.404c0.158-4.564,0.316-9.128,0.475-13.692
					c-0.5,0.5-1,1-1.5,1.5c7.345,0,14.886,1.759,18.438-6.47c1.887-4.375,0.839-10.817,0.839-15.403
					C298.958,59.985,303.045,39.234,286.826,38.253c-1.934-0.117-1.922,2.884,0,3c7.904,0.479,9.132,6.8,9.132,13.125
					c0,5.542,0,11.085,0,16.627c0,3.671,0,7.341,0,11.012c0,1.875-0.597,3.451-1.519,5.037c-2.216,3.812-5.613,2.824-9.113,2.824
					c-1.882,0-3.763,0-5.645,0c-0.839,0-1.472,0.683-1.5,1.5c-0.137,3.93-0.272,7.86-0.409,11.791
					c-0.026,0.766-0.053,1.532-0.079,2.297c-0.004,0.118,0.793-1.11-0.403,0.152c-1.495,1.578-2.99,3.157-4.485,4.735
					c-0.484,0.511-0.552,1.2-0.234,1.817c0.997,1.943,1.994,3.885,2.991,5.828c0.534,1.041,0.349,3,0.349,5.399
					c0,1.852,0.299,0.479,0.135,0.645c-0.859,0.863-1.719,1.727-2.578,2.591c-1.402,1.408-2.804,2.817-4.205,4.226
					c-0.504,0.506-0.531,1.203-0.234,1.817c1.161,2.405,2.322,4.811,3.483,7.216c-0.478-0.989,0.242-1.797-0.42-0.326
					c-0.362,0.807-0.726,1.614-1.088,2.42c-0.659,1.464-1.317,2.928-1.976,4.393c-0.391,0.867-0.059,1.424,0.415,2.155
					c0.469,0.723,2.038,3.405,2.038,2.912c0,4.245-0.102,4.477-2.118,8.324c-1.072,2.046-0.54,4.785-0.54,7.025
					c0,0.853,0,1.705,0,2.557c0,1.546-0.296,0.516,0.633-0.124c-1.485,1.022-2.971,2.044-4.457,3.066
					c-0.644,0.443-3.048,1.834-2.493,1.834c-0.858,0-1.717,0-2.575,0c-1.719,0,0.56,1.237-0.07,0.068
					c-0.408-0.759-0.817-1.518-1.226-2.276c-0.263-0.486-0.531-1.819-0.531-0.625c0-0.332,0-0.663,0-0.994c0-25.37,0-50.74,0-76.11
					c0-0.741,0-1.481,0-2.222c0-0.701-0.465-1.225-1.102-1.446c-7.459-2.598-5.543-13.147-5.543-19.517c0-6.754,0-13.509,0-20.263
					c0-10.009,9.448-9.489,16.524-9.489c6.281,0,12.563,0,18.844,0C288.761,41.253,288.761,38.253,286.826,38.253z"/>
			</g>
		</g>
		<g style="display:inline;">
			<g>
				<path style="fill:#FFFFFF;" d="M260.305,93.374c0,27.418,0,54.836,0,82.254c0,1.935,3,1.935,3,0c0-27.418,0-54.836,0-82.254
					C263.305,91.439,260.305,91.439,260.305,93.374L260.305,93.374z"/>
			</g>
		</g>
		<g style="display:inline;">
			<g>
				<path style="fill:#FFFFFF;" d="M269.943,58.179c-0.689,6.048-10.881,5.31-10.881-0.716c0-2.057,0-4.113,0-6.17
					c0-5.978,10.881-5.366,10.881,0.716C269.943,54.065,269.943,56.122,269.943,58.179c0,1.935,3,1.935,3,0
					c0-4.344,0.852-8.827-2.69-12.024c-4.929-4.449-13.445-1.402-14.19,5.138c-0.468,4.106-0.553,9.097,2.69,12.024
					c4.929,4.449,13.445,1.402,14.19-5.138C273.162,56.258,270.16,56.279,269.943,58.179z"/>
			</g>
		</g>
	</g>
	<polygon style="fill:#FFFFFF;" points="194.973,188.167 129.688,188.167 129.688,178.167 189.341,178.167 192.5,180.667 
		194.973,183.792 	"/>
	<path style="fill:#FFFFFF;" d="M83.479,177.376c-4.339-2.751-3.645-7.257-3.645-11.65c0-6.161,0-12.322,0-18.482
		c0-15.552,0-31.104,0-46.656c0-6.524-2.616-20.867,7.391-20.867c6.85,0,13.699,0,20.549,0c54.355,0,108.711,0,163.067,0
		c1.701,0,3.523-0.161,5.211,0.135c5.824,1.022,5.449,6.886,5.449,11.302c0,13.917,0,27.833,0,41.75c0,12.301,0,24.603,0,36.904
		c0,5.696-3.504,8.354-8.975,8.354c-7.167,0-14.334,0-21.502,0c-0.914,0-1.829,0-2.744,0c-3.145,0-0.682,2.501-0.759,4.938
		c-0.082,2.561-0.063,5.073,0.759,5.063c6.013-0.079,12.025,0,18.039,0c7.482,0,14.228,0.479,20.251-4.945
		c7.558-6.806,4.931-22.553,4.931-31.579c0-15.693,0-31.386,0-47.08c0-10.139,2.545-24.748-6.908-31.549
		c-6.049-4.351-14.057-3.293-21.118-3.293c-11.831,0-23.663,0-35.493,0c-31.834,0-63.667,0-95.499,0c-11.707,0-23.414,0-35.121,0
		c-7.22,0-15.825-1.152-21.63,4.075c-8.344,7.513-5.896,21.479-5.896,31.602c0,15.697,0,31.394,0,47.091
		c0,11.543-2.732,26.339,8.598,33.522c1.194,0.757,3.063,1.668,4.11,1.447c0,0-0.392-3.242,0.292-4.625
		c0.594-1.201,0.37-1.639,0.458-2.667C83.324,179.792,83.286,177.254,83.479,177.376L83.479,177.376z"/>
	<g>
		<g>
			<path style="fill:#FFFFFF;" d="M120.573,108.338c-12.222,5.43-24.444,10.859-36.667,16.289
				c-5.883,2.614-0.791,11.229,5.047,8.635c12.222-5.43,24.444-10.859,36.667-16.289
				C131.503,114.359,126.411,105.744,120.573,108.338L120.573,108.338z"/>
		</g>
	</g>
	<g>
		<g>
			<path style="fill:#FFFFFF;" d="M179.582,108.338c-12.223,5.43-24.445,10.859-36.667,16.289
				c-5.883,2.614-0.791,11.229,5.047,8.635c12.223-5.43,24.445-10.859,36.667-16.289
				C190.513,114.359,185.42,105.744,179.582,108.338L179.582,108.338z"/>
		</g>
	</g>
	<g>
		<g>
			<path style="fill:#FFFFFF;" d="M238.59,108.338c-12.223,5.43-24.444,10.859-36.666,16.289c-5.884,2.614-0.791,11.229,5.047,8.635
				c12.223-5.43,24.444-10.859,36.666-16.289C249.521,114.359,244.428,105.744,238.59,108.338L238.59,108.338z"/>
		</g>
	</g>
	<g>
		<g>
			<path style="fill:#FFFFFF;" d="M92.366,147.26c-1.239-5.281-1.413-10.586-0.937-15.973c0.265-2.997,3.188-17.017,7.667-10.105
				c3.121,4.816,3.153,11.825,3.057,17.327c-0.034,1.978-1.501,18.392-6.745,15.212c-1.659-1.005-3.166,1.589-1.515,2.591
				c6.026,3.653,9.026-4.574,10.17-9.085c2.182-8.605,1.839-19.594-2.377-27.559c-2.607-4.926-7.3-4.226-10.038,0
				c-4.978,7.684-4.155,19.948-2.175,28.39C89.915,149.94,92.808,149.142,92.366,147.26L92.366,147.26z"/>
		</g>
	</g>
	<g>
		<g>
			<path style="fill:#FFFFFF;" d="M210.016,139.04c-1.135-5.232-0.761-10.743,1.35-15.687c2.533-5.937,8.033-6.75,11.525-1.188
				c3.087,4.917,3.034,11.726,1.895,17.185c-1.073,5.138-6.101,12.948-11.57,6.755c-1.283-1.453-3.396,0.677-2.121,2.121
				c4.372,4.95,10.001,3.536,13.709-1.324c5.177-6.783,4.443-17.684,1.294-25.063c-2.175-5.098-8.421-9.312-13.438-5.077
				c-6.386,5.391-7.195,15.424-5.536,23.075C207.533,141.728,210.425,140.926,210.016,139.04L210.016,139.04z"/>
		</g>
	</g>
</g>
<g id="Ebene_1">
</g>
</svg>
