<?xml version="1.0" encoding="iso-8859-1"?>
<!-- Generator: Adobe Illustrator 24.0.1, SVG Export Plug-In . SVG Version: 6.00 Build 0)  -->
<svg version="1.1" xmlns="http://www.w3.org/2000/svg" xmlns:xlink="http://www.w3.org/1999/xlink" x="0px" y="0px"
	 viewBox="0 0 361 361" style="enable-background:new 0 0 361 361;" xml:space="preserve">
<g id="scene_x5F_robo_x5F_vac_x5F_cleaner_x5F_attention">
	<g>
		<g>
			<path style="fill:#FFFFFF;" d="M76.354,128.934c10.008-17.833,20.016-35.667,30.024-53.5c-2.015,0-4.03,0-6.044,0
				c10.008,17.833,20.016,35.667,30.024,53.5c1.007-1.756,2.015-3.511,3.022-5.267c-20.016,0-40.032,0-60.048,0
				c-4.504,0-4.512,7,0,7c20.016,0,40.032,0,60.048,0c2.688,0,4.315-2.963,3.022-5.267c-10.008-17.833-20.016-35.667-30.024-53.5
				c-1.276-2.274-4.768-2.274-6.044,0c-10.008,17.833-20.016,35.667-30.024,53.5C68.102,129.334,74.146,132.867,76.354,128.934z"/>
		</g>
	</g>
	<g>
		<path style="fill:#FFFFFF;" d="M106.79,114.884c0,1.083-0.341,1.919-1.022,2.509c-0.682,0.59-1.453,0.885-2.313,0.885
			c-0.861,0-1.632-0.295-2.313-0.885c-0.682-0.59-1.021-1.426-1.021-2.509c0-1.082,0.34-1.918,1.021-2.509
			c0.682-0.59,1.453-0.885,2.313-0.885c0.86,0,1.632,0.295,2.313,0.885C106.449,112.965,106.79,113.802,106.79,114.884z
			 M106.324,98.833c0,1.993-0.072,3.851-0.216,5.571c-0.143,1.722-0.334,3.469-0.574,5.24h-4.088
			c-0.24-1.771-0.437-3.518-0.592-5.24c-0.156-1.721-0.233-3.579-0.233-5.571v-6.604h5.703V98.833z"/>
	</g>
	<path style="fill:#FFFFFF;" d="M180.816,193.854c0.158-0.518,1.522-0.391,0.307-0.391c-0.605,0-1.21,0-1.817,0
		c-2.438,0-4.876,0-7.313,0c-7.513,0-15.027,0-22.54,0c-14.283,0-28.566,0-42.85,0c-0.947,0-1.894,0-2.841,0
		c1.205,0,1.054,2.219,1.054,0.493c0-0.733,0-1.467,0-2.199c0-2.285,0-4.569,0-6.854c0-0.733,0-1.466,0-2.2
		c0-1.726,0.151,0.493-1.054,0.493c0.28,0,0.561,0,0.843,0c1.868,0,3.736,0,5.605,0c15.42,0,30.838,0,46.256,0
		c7.478,0,14.955,0,22.434,0c0.74,0,1.482,0,2.223,0c1.468,0-0.436-2.132-0.436-0.493c0,4.041,0,8.081,0,12.122
		c0,4.714,7.308,4.714,7.308,0c0-4.945,2.079-15.098-3.088-18.124c-2.809-1.646-7.826-0.813-10.867-0.813
		c-15.646,0-31.292,0-46.937,0c-6.371,0-12.741,0-19.111,0c-4.26,0-10.484-0.098-10.484,5.947c0,4.945-2.08,15.099,3.088,18.126
		c2.809,1.645,7.826,0.812,10.868,0.812c15.325,0,30.65,0,45.975,0c6.519,0,13.037,0,19.556,0c4.532,0,9.223,0.435,10.871-4.975
		C189.241,191.275,182.186,189.358,180.816,193.854z"/>
	<path style="fill:#FFFFFF;" d="M253.207,196.237c0,10.101-8.186,18.289-18.289,18.289c-10.101,0-18.288-8.188-18.288-18.289
		H253.207z"/>
	<g>
		<g>
			<path style="fill:#FFFFFF;" d="M281.892,195.65c-0.13,1.132-23.206,0.332-24.741,0.332c-18.56,0-37.12,0-55.681,0
				c-19.881,0-39.761,0-59.642,0c-11.442,0-23.338,0.945-34.749,0c-0.646-0.053-1.531,0.272-1.96-0.332
				c-0.59-0.831,0.732-5.513,0.858-6.463c1.253-9.436,2.506-18.872,3.76-28.309c0.156-1.173-0.045-4.927,1.051-5.705
				c0.328-0.233,1.551,0.024,1.938,0c4.524-0.28,9.157,0,13.689,0c37.656,0,75.312,0,112.968,0c12.352,0,24.827-0.511,37.17,0
				c0.364,0.015,1.63-0.228,1.938,0c1.051,0.779,0.657,4.542,0.746,5.705c0.72,9.436,1.441,18.872,2.161,28.309
				C281.563,191.342,281.728,193.496,281.892,195.65c0.487,6.376,10.491,6.429,10,0c-0.598-7.837-1.197-15.675-1.795-23.512
				c-0.35-4.583-0.7-9.166-1.05-13.749c-0.282-3.699-0.449-7.346-3.269-10.166c-3.52-3.52-8.148-3.048-12.646-3.048
				c-6.453,0-12.907,0-19.36,0c-40.608,0-81.215,0-121.823,0c-5.797,0-11.594,0-17.391,0c-5.835,0-12.04,0.935-13.787,7.78
				c-1.959,7.674-2.141,16.27-3.182,24.104c-0.644,4.848-1.288,9.696-1.931,14.543c-0.452,3.405-0.933,6.209,1.001,9.413
				c3.086,5.112,8.283,4.969,13.372,4.969c5.907,0,11.815,0,17.722,0c19.925,0,39.851,0,59.776,0c20.96,0,41.92,0,62.88,0
				c10.287,0,20.755,0.564,31.032,0c6.133-0.336,9.771-4.431,10.451-10.332C292.627,189.269,282.621,189.321,281.892,195.65z"/>
		</g>
	</g>
	<g>
		<g>
			<path style="fill:#FFFFFF;" d="M109.543,209.44c7.228,0,14.456,0,21.684,0c4.504,0,4.512-7,0-7c-7.228,0-14.456,0-21.684,0
				C105.039,202.44,105.032,209.44,109.543,209.44L109.543,209.44z"/>
		</g>
	</g>
	<g>
		<g>
			<path style="fill:#FFFFFF;" d="M110.906,207.485c0.005-0.155-0.093,0.207,0.02,0.002c-0.05,0.091-0.093,0.202-0.162,0.28
				c-0.155,0.174,0.144-0.136-0.102,0.11c-0.434,0.434-0.686,0.599-1.339,0.958c-1.629,0.897-3.459,1.426-5.248,1.896
				c-5.924,1.555-12.091,2.21-18.187,2.632c-4.401,0.305-8.812,0.437-13.224,0.443c-1.93,0.002-1.934,3.002,0,3
				c7.979-0.009,15.975-0.421,23.877-1.561c4.817-0.695,10.333-1.452,14.597-3.99c1.395-0.831,2.714-2.037,2.767-3.769
				C113.965,205.554,110.965,205.556,110.906,207.485L110.906,207.485z"/>
		</g>
	</g>
	<g>
		<g>
			<path style="fill:#FFFFFF;" d="M110.161,207.158c0.011,0.096,0.011,0.189,0.014,0.286c0.007,0.27,0.062-0.281-0.007-0.011
				c-0.043,0.168-0.115,0.239,0.003,0.037c-0.079,0.135-0.143,0.275-0.235,0.402c-0.016,0.021-0.146,0.183-0.379,0.414
				c-0.199,0.197-0.506,0.456-0.629,0.55c-1.5,1.145-3.289,1.965-5.021,2.689c-5.676,2.376-11.752,3.88-17.755,5.157
				c-4.356,0.926-8.747,1.68-13.156,2.305c-1.904,0.27-1.094,3.161,0.798,2.893c7.834-1.11,15.651-2.596,23.25-4.822
				c4.702-1.378,10.012-2.914,13.91-6.024c1.147-0.915,2.381-2.285,2.206-3.876C112.952,205.259,109.95,205.238,110.161,207.158
				L110.161,207.158z"/>
		</g>
	</g>
	<g>
		<g>
			<path style="fill:#FFFFFF;" d="M110.898,207.181c0.069,0.273-0.018-0.307,0.007-0.024c0.017,0.192-0.016,0.23,0.027-0.004
				c-0.019,0.1-0.035,0.214-0.076,0.308c-0.083,0.191,0.124-0.182-0.079,0.179c-0.319,0.568-0.48,0.749-1.01,1.275
				c-1.332,1.322-2.949,2.344-4.556,3.296c-5.249,3.109-10.971,5.437-16.691,7.516c-4.157,1.511-8.371,2.858-12.621,4.082
				c-1.852,0.533-1.064,3.429,0.798,2.893c7.626-2.197,15.165-4.778,22.412-8.028c4.463-2.001,9.596-4.257,13.02-7.882
				c1.117-1.182,2.092-2.717,1.662-4.408C113.315,204.514,110.421,205.307,110.898,207.181L110.898,207.181z"/>
		</g>
	</g>
	<g>
		<g>
			<path style="fill:#FFFFFF;" d="M122.028,208.539c0.32-0.017-0.022-0.066-0.214-0.141c-0.204-0.08-0.003,0.04,0.055,0.071
				c-0.203-0.11-0.094-0.16-0.009,0.055c-0.13-0.327,0.08,0.349,0.102,0.464c0.046,0.234,0.048,0.347,0.063,0.703
				c0.075,1.79-0.223,3.594-0.565,5.344c-1.16,5.94-3.14,11.727-5.307,17.365c-0.693,1.803,2.206,2.584,2.893,0.798
				c0.963-2.506,10.917-28.081,2.981-27.658C120.108,205.641,120.096,208.642,122.028,208.539L122.028,208.539z"/>
		</g>
	</g>
	<g>
		<g>
			<path style="fill:#FFFFFF;" d="M124.129,210.068c-0.262,0.045-0.118-0.104-0.358-0.065c0.248-0.04,0.09,0.315,0.037,0.004
				c0.008,0.049,0.128,0.119,0.155,0.166c-0.194-0.328,0.184,0.408,0.155,0.339c0.022,0.053,0.16,0.519,0.208,0.708
				c0.4,1.597,0.382,3.307,0.34,4.941c-0.142,5.553-1.186,11.081-2.438,16.478c-0.436,1.879,2.456,2.68,2.893,0.798
				c1.434-6.181,2.705-12.665,2.55-19.042c-0.065-2.653-0.455-7.887-4.339-7.22C121.432,207.501,122.237,210.392,124.129,210.068
				L124.129,210.068z"/>
		</g>
	</g>
	<g>
		<g>
			<path style="fill:#FFFFFF;" d="M125.095,211.774c0.43-0.123-0.101,0.027-0.016-0.044c0.051-0.043,0.196,0.108,0.06-0.019
				c0.388,0.362,0.438,0.423,0.744,1.005c0.697,1.32,1.008,2.998,1.261,4.5c0.87,5.153,0.724,10.518,0.366,15.71
				c-0.133,1.927,2.868,1.919,3,0c0.406-5.888,0.528-12.022-0.725-17.826c-0.543-2.516-1.968-7.221-5.488-6.218
				C122.444,209.409,123.232,212.305,125.095,211.774L125.095,211.774z"/>
		</g>
	</g>
	<g>
		<g>
			<path style="fill:#FFFFFF;" d="M132.259,208.964c3.626-0.661,7.56,0.448,10.869,1.881c4.026,1.743,7.715,4.29,10.687,7.522
				c1.31,1.424,3.427-0.701,2.121-2.121c-3.3-3.589-7.45-6.38-11.935-8.265c-3.925-1.649-8.287-2.684-12.539-1.909
				C129.565,206.416,130.368,209.308,132.259,208.964L132.259,208.964z"/>
		</g>
	</g>
	<g>
		<g>
			<path style="fill:#FFFFFF;" d="M131.96,209.29c4.283-0.929,9.109,0.16,13.267,1.207c5.745,1.447,11.328,3.577,16.563,6.351
				c1.705,0.903,3.223-1.685,1.514-2.59c-5.568-2.95-11.534-5.242-17.654-6.746c-4.608-1.133-9.766-2.138-14.488-1.114
				C129.276,206.806,130.074,209.699,131.96,209.29L131.96,209.29z"/>
		</g>
	</g>
	<g>
		<g>
			<path style="fill:#FFFFFF;" d="M131.196,209.194c1.973-0.502,4.073-0.477,6.094-0.417c3.101,0.092,6.198,0.425,9.266,0.874
				c7.508,1.098,14.937,2.815,22.195,5.024c1.851,0.563,2.642-2.332,0.798-2.893c-7.507-2.284-15.199-4.05-22.973-5.135
				c-5.162-0.72-11.027-1.657-16.177-0.346C128.529,206.777,129.321,209.671,131.196,209.194L131.196,209.194z"/>
		</g>
	</g>
	<g>
		<g>
			<path style="fill:#FFFFFF;" d="M102.321,182.489c1.62,0,3.24,0,4.86,0c4.408,0,8.816,0,13.224,0c6.485,0,12.97,0,19.454,0
				c7.948,0,15.896,0,23.844,0c8.708,0,17.416,0,26.124,0c8.791,0,17.581,0,26.372,0c8.196,0,16.392,0,24.588,0
				c6.896,0,13.792,0,20.687,0c4.986,0,9.972,0,14.958,0c2.36,0,4.73,0.066,7.089,0c0.101-0.003,0.203,0,0.305,0c1.93,0,1.934-3,0-3
				c-1.62,0-3.24,0-4.86,0c-4.408,0-8.816,0-13.224,0c-6.485,0-12.97,0-19.454,0c-7.948,0-15.896,0-23.844,0
				c-8.708,0-17.416,0-26.124,0c-8.791,0-17.581,0-26.372,0c-8.196,0-16.392,0-24.588,0c-6.896,0-13.792,0-20.687,0
				c-4.986,0-9.972,0-14.958,0c-2.36,0-4.73-0.066-7.089,0c-0.101,0.003-0.203,0-0.305,0
				C100.391,179.489,100.388,182.489,102.321,182.489L102.321,182.489z"/>
		</g>
	</g>
	<g>
		<g>
			<path style="fill:#FFFFFF;" d="M124.638,150.016c19.102,0,38.205,0,57.307,0c4.504,0,4.512-7,0-7c-19.102,0-38.205,0-57.307,0
				C120.134,143.016,120.127,150.016,124.638,150.016L124.638,150.016z"/>
		</g>
	</g>
</g>
<g id="Ebene_1">
</g>
</svg>
