<?xml version="1.0" encoding="iso-8859-1"?>
<!-- Generator: Adobe Illustrator 24.0.1, SVG Export Plug-In . SVG Version: 6.00 Build 0)  -->
<svg version="1.1" xmlns="http://www.w3.org/2000/svg" xmlns:xlink="http://www.w3.org/1999/xlink" x="0px" y="0px"
	 viewBox="0 0 361 361" style="enable-background:new 0 0 361 361;" xml:space="preserve">
<g id="scene_x5F_wallbox">
	<g>
		<g>
			<path style="fill:#FFFFFF;" d="M219.498,216.269c-0.461,6.854-10.536,5-15.189,5c-9.831,0-19.661,0-29.492,0
				c-21.168,0-42.336,0-63.504,0c-4.735,0-11.237,1.181-11.81-5.357c-0.431-4.906,0-10.047,0-14.967c0-22.16,0-44.32,0-66.48
				c0-16.079-0.702-32.334,0-48.401c0.275-6.304,5.5-5.795,10.118-5.795c8.7,0,17.4,0,26.101,0c22.23,0,44.46,0,66.69,0
				c3.797,0,11.788-1.494,15.116,1.074c3.3,2.546,1.97,10.139,1.97,13.723c0,39.374,0,78.749,0,118.123
				C219.498,214.215,219.498,215.242,219.498,216.269c0,6.435,10,6.445,10,0c0-38.669,0-77.339,0-116.008
				c0-4.959,0.214-9.972,0-14.927c-0.334-7.732-5.757-14.201-13.643-14.974c-1.657-0.162-3.337-0.091-4.998-0.091
				c-21.578,0-43.157,0-64.735,0c-10.677,0-21.355,0-32.032,0c-6.741,0-14.33-1.015-19.713,3.971
				c-5.588,5.176-4.874,12.139-4.874,18.964c0,9.372,0,18.743,0,28.115c0,24.386,0,48.771,0,73.157c0,6.796-0.082,13.598,0,20.394
				c0.114,9.4,6.235,16.21,15.848,16.399c19.2,0.378,38.444,0,57.647,0c17.103,0,34.398,0.761,51.488,0
				c8.56-0.381,14.446-6.584,15.012-15C229.93,209.845,219.928,209.872,219.498,216.269z"/>
		</g>
	</g>
	<g>
		<g>
			<path style="fill:#FFFFFF;" d="M195.75,204.491c4.485-31.298,8.97-62.596,13.455-93.895c0.639-4.463,1.279-8.925,1.918-13.388
				c0.631-4.406-6.112-6.31-6.75-1.861c-4.485,31.298-8.97,62.596-13.455,93.895c-0.639,4.463-1.279,8.925-1.918,13.388
				C188.369,207.036,195.113,208.94,195.75,204.491L195.75,204.491z"/>
		</g>
	</g>
	<g>
		<g>
			<path style="fill:#FFFFFF;" d="M129.115,202.63c-4.485-31.298-8.97-62.596-13.455-93.895c-0.639-4.463-1.279-8.925-1.918-13.388
				c-0.636-4.442-7.382-2.552-6.75,1.861c4.485,31.298,8.97,62.596,13.455,93.895c0.639,4.463,1.279,8.925,1.918,13.388
				C123.002,208.933,129.748,207.044,129.115,202.63L129.115,202.63z"/>
		</g>
	</g>
	<path style="fill:none;stroke:#FFFFFF;stroke-width:10;" d="M159.5,226.269c0,59.847,14.12,60.435,58.679,60.435
		c35.844,0,54.25-29.186,47.25-83.444c-2.446-18.957-3.46-22.676-3.46-22.676"/>
	<g id="ein_x5F_aus_5_">
		<path style="fill:none;stroke:#FFFFFF;stroke-width:7;stroke-miterlimit:10;" d="M175.75,197.53c0,3.165-2.566,5.73-5.73,5.73
			h-20.373c-3.165,0-5.73-2.566-5.73-5.73v-20.373c0-3.165,2.565-5.73,5.73-5.73h20.373c3.165,0,5.73,2.565,5.73,5.73V197.53z"/>
		
			<line style="fill:none;stroke:#FFFFFF;stroke-width:7;stroke-linecap:round;stroke-miterlimit:10;" x1="159.921" y1="182.539" x2="159.921" y2="193.614"/>
	</g>
	<polygon style="fill:none;stroke:#FFFFFF;stroke-width:10;stroke-linecap:round;stroke-linejoin:round;" points="252.054,180.584 
		238.429,139.114 224.498,132.986 224.498,93.858 255.315,111.246 271.161,180.584 	"/>
</g>
<g id="Ebene_1">
</g>
</svg>
