<?xml version="1.0" encoding="iso-8859-1"?>
<!-- Generator: Adobe Illustrator 16.0.0, SVG Export Plug-In . SVG Version: 6.00 Build 0)  -->
<!DOCTYPE svg PUBLIC "-//W3C//DTD SVG 1.1//EN" "http://www.w3.org/Graphics/SVG/1.1/DTD/svg11.dtd">
<svg version="1.1" xmlns="http://www.w3.org/2000/svg" xmlns:xlink="http://www.w3.org/1999/xlink" x="0px" y="0px" width="361px"
	 height="361px" viewBox="0 0 361 361" style="enable-background:new 0 0 361 361;" xml:space="preserve">
<g id="scene_x5F_party">
	<g>
		<g>
			<path style="fill:#FFFFFF;" d="M197.995,103.641c14.793-1.38,29.587-2.76,44.38-4.14c-1.008-0.578-2.015-1.156-3.022-1.733
				c8.483,12.233,16.967,24.467,25.45,36.7c1.597-1.596,3.192-3.192,4.789-4.789c-23.276-10.854-46.554-21.707-69.83-32.56
				c-4.064-1.895-7.621,4.138-3.533,6.044c23.276,10.854,46.554,21.707,69.83,32.56c2.871,1.339,6.982-1.625,4.789-4.789
				c-8.483-12.233-16.967-24.467-25.45-36.7c-0.666-0.96-1.758-1.852-3.022-1.733c-14.793,1.38-29.587,2.76-44.38,4.14
				C193.54,97.056,193.5,104.06,197.995,103.641z"/>
		</g>
	</g>
	<g>
		<g>
			<path style="fill:#FFFFFF;" d="M228.595,117.094c-4.36,8.696-8.721,17.392-13.082,26.087c-2.017,4.023,4.021,7.569,6.045,3.533
				c4.36-8.696,8.721-17.392,13.082-26.087C236.656,116.604,230.619,113.059,228.595,117.094L228.595,117.094z"/>
		</g>
	</g>
	<g>
		<g>
			<path style="fill:#FFFFFF;" d="M141.747,106.394c12.083,34.497,24.167,68.993,36.251,103.489
				c2.117,6.045,11.78,3.444,9.643-2.658c-12.083-34.497-24.167-68.993-36.251-103.489
				C149.272,97.691,139.609,100.291,141.747,106.394L141.747,106.394z"/>
		</g>
	</g>
	<g>
		<g>
			<path style="fill:#FFFFFF;" d="M239.87,93.524c-5.88,4.3-11.759,8.601-17.639,12.901c-3.604,2.635-0.117,8.714,3.533,6.044
				c5.88-4.3,11.759-8.601,17.639-12.901C247.007,96.933,243.521,90.854,239.87,93.524L239.87,93.524z"/>
		</g>
	</g>
	<g>
		<g>
			<path style="fill:#FFFFFF;" d="M247.668,121.102c-0.299-6.574-0.598-13.148-0.896-19.723c-0.204-4.495-7.205-4.515-7,0
				c0.299,6.574,0.598,13.148,0.896,19.723C240.872,125.597,247.873,125.617,247.668,121.102L247.668,121.102z"/>
		</g>
	</g>
	<g>
		<g>
			<path style="fill:#FFFFFF;" d="M184.435,220.58c-15.01-25.998-30.021-51.997-45.031-77.995c-1.439,2.508-2.878,5.016-4.317,7.523
				c30.021,0,60.041,0,90.062,0c-1.439-2.508-2.878-5.016-4.317-7.523c-15.01,25.998-30.021,51.997-45.03,77.995
				c-3.23,5.595,5.412,10.628,8.635,5.047c15.01-25.998,30.021-51.997,45.03-77.995c1.894-3.28-0.512-7.523-4.317-7.523
				c-30.021,0-60.041,0-90.062,0c-3.805,0-6.211,4.243-4.317,7.523c15.01,25.999,30.021,51.997,45.031,77.995
				C179.022,231.208,187.665,226.175,184.435,220.58z"/>
		</g>
	</g>
	<g>
		<g>
			<path style="fill:#FFFFFF;" d="M225.172,281.92c-30.021,0-60.041,0.001-90.061,0.001c0.443,3.273,0.886,6.548,1.329,9.821
				c7.274-1.394,14.548-2.786,21.822-4.18c5.089-0.975,10.179-1.949,15.268-2.924c1.815-0.348,3.63-0.695,5.445-1.043
				c2.25-0.431,2.905,0.257-0.552-0.394c15.14,2.847,30.28,5.693,45.419,8.539c6.302,1.185,8.991-8.452,2.658-9.643
				c-15.148-2.848-30.298-5.696-45.446-8.544c-2.523-0.475-5.595,0.563-8.067,1.036c-5.148,0.985-10.296,1.972-15.445,2.958
				c-7.92,1.517-15.84,3.033-23.761,4.551c-5.654,1.083-4.188,9.821,1.329,9.821c30.021,0,60.041-0.001,90.061-0.001
				C231.62,291.92,231.62,281.92,225.172,281.92z"/>
		</g>
	</g>
	<g>
		<g>
			<path style="fill:#FFFFFF;" d="M175.015,220.34c0,18.477,0,36.954,0,55.431c0,6.448,10,6.448,10,0c0-18.477,0-36.954,0-55.431
				C185.015,213.892,175.015,213.892,175.015,220.34L175.015,220.34z"/>
		</g>
	</g>
	<g>
		<g>
			<path style="fill:#FFFFFF;" d="M147.173,98.965c-21.229-6.524-42.459-13.048-63.688-19.571c-6.181-1.899-8.803,7.754-2.658,9.643
				c21.229,6.524,42.459,13.048,63.688,19.571C150.696,110.507,153.318,100.853,147.173,98.965L147.173,98.965z"/>
		</g>
	</g>
</g>
<g id="Ebene_1">
</g>
</svg>
