<?xml version="1.0" encoding="iso-8859-1"?>
<!-- Generator: Adobe Illustrator 16.0.0, SVG Export Plug-In . SVG Version: 6.00 Build 0)  -->
<!DOCTYPE svg PUBLIC "-//W3C//DTD SVG 1.1//EN" "http://www.w3.org/Graphics/SVG/1.1/DTD/svg11.dtd">
<svg version="1.1" xmlns="http://www.w3.org/2000/svg" xmlns:xlink="http://www.w3.org/1999/xlink" x="0px" y="0px" width="361px"
	 height="361px" viewBox="0 0 361 361" style="enable-background:new 0 0 361 361;" xml:space="preserve">
<g id="secur_x5F_alarm">
	<path style="fill:none;stroke:#FFFFFF;stroke-width:10;stroke-miterlimit:10;" d="M275.5,280.563c0,3.188-2.584,5.771-5.771,5.771
		h-95.534c-3.187,0-5.771-2.584-5.771-5.771V174.771c0-3.187,2.584-5.771,5.771-5.771h95.534c3.187,0,5.771,2.584,5.771,5.771
		V280.563z"/>
	<g>
		<g>
			<path style="fill:#FFFFFF;" d="M259.833,266.5c-25.556,0-51.111,0-76.667,0c-4.514,0-4.514,7,0,7c25.556,0,51.111,0,76.667,0
				C264.347,273.5,264.347,266.5,259.833,266.5L259.833,266.5z"/>
		</g>
	</g>
	<g>
		<g>
			<path style="fill:#FFFFFF;" d="M259.833,253.5c-25.556,0-51.111,0-76.667,0c-4.514,0-4.514,7,0,7c25.556,0,51.111,0,76.667,0
				C264.347,260.5,264.347,253.5,259.833,253.5L259.833,253.5z"/>
		</g>
	</g>
	<g>
		<g>
			<path style="fill:#FFFFFF;" d="M259.833,239.5c-25.556,0-51.111,0-76.667,0c-4.514,0-4.514,7,0,7c25.556,0,51.111,0,76.667,0
				C264.347,246.5,264.347,239.5,259.833,239.5L259.833,239.5z"/>
		</g>
	</g>
	<g>
		<g>
			<path style="fill:#FFFFFF;" d="M259.833,226.5c-25.556,0-51.111,0-76.667,0c-4.514,0-4.514,7,0,7c25.556,0,51.111,0,76.667,0
				C264.347,233.5,264.347,226.5,259.833,226.5L259.833,226.5z"/>
		</g>
	</g>
	<g>
		<g>
			<path style="fill:#FFFFFF;" d="M259.833,213.5c-25.556,0-51.111,0-76.667,0c-4.514,0-4.514,7,0,7c25.556,0,51.111,0,76.667,0
				C264.347,220.5,264.347,213.5,259.833,213.5L259.833,213.5z"/>
		</g>
	</g>
	<g>
		<g>
			<path style="fill:#FFFFFF;" d="M259.833,199.5c-25.556,0-51.111,0-76.667,0c-4.514,0-4.514,7,0,7c25.556,0,51.111,0,76.667,0
				C264.347,206.5,264.347,199.5,259.833,199.5L259.833,199.5z"/>
		</g>
	</g>
	<path style="fill:none;stroke:#FFFFFF;stroke-width:10;stroke-miterlimit:10;" d="M257.166,162.908
		c0,3.364-2.373,6.092-5.299,6.092H191.8c-2.927,0-5.3-2.728-5.3-6.092l5.3-59.571c0-3.364,2.373-6.092,5.3-6.092h49.467
		c2.928,0,5.301,2.728,5.301,6.092L257.166,162.908z"/>
	
		<line style="fill:none;stroke:#FFFFFF;stroke-width:10;stroke-miterlimit:10;" x1="190.166" y1="154.667" x2="254.166" y2="154.667"/>
	<g>
		<g>
			<path style="fill:#FFFFFF;" d="M131.036,173.991c-23.279,23.884-23.279,61.865,0,85.749c4.507,4.625,11.573-2.452,7.071-7.07
				c-19.474-19.98-19.474-51.628,0-71.607C142.609,176.444,135.543,169.367,131.036,173.991L131.036,173.991z"/>
		</g>
	</g>
	<g>
		<g>
			<path style="fill:#FFFFFF;" d="M115.581,158.317c-31.769,32.364-31.77,84.515-0.001,116.879c4.523,4.608,11.59-2.467,7.071-7.07
				c-27.96-28.484-27.959-74.254,0.001-102.738C127.17,160.785,120.104,153.709,115.581,158.317L115.581,158.317z"/>
		</g>
	</g>
	<g>
		<g>
			<path style="fill:#FFFFFF;" d="M99.813,143.792c-19.296,19.582-30.146,45.687-30.337,73.185
				c-0.19,27.35,11.239,53.803,30.337,73.184c4.532,4.599,11.6-2.476,7.071-7.07c-36-36.533-36-95.694,0-132.227
				C111.413,146.268,104.345,139.193,99.813,143.792L99.813,143.792z"/>
		</g>
	</g>
</g>
<g id="Ebene_1">
</g>
</svg>
