<?xml version="1.0" encoding="iso-8859-1"?>
<!-- Generator: Adobe Illustrator 16.0.0, SVG Export Plug-In . SVG Version: 6.00 Build 0)  -->
<!DOCTYPE svg PUBLIC "-//W3C//DTD SVG 1.1//EN" "http://www.w3.org/Graphics/SVG/1.1/DTD/svg11.dtd">
<svg version="1.1" xmlns="http://www.w3.org/2000/svg" xmlns:xlink="http://www.w3.org/1999/xlink" x="0px" y="0px" width="361px"
	 height="361px" viewBox="0 0 361 361" style="enable-background:new 0 0 361 361;" xml:space="preserve">
<g id="secur_x5F_encoding">
	<g>
		<path style="fill-rule:evenodd;clip-rule:evenodd;fill:#FFFFFF;" d="M135.611,77.889c0,19.185,0,38.371,0,57.556
			c-19.185,0-38.371,0-57.556,0c0-19.185,0-38.371,0-57.556C97.24,77.889,116.426,77.889,135.611,77.889z M86.277,86.111
			c0,13.704,0,27.408,0,41.111c13.704,0,27.408,0,41.111,0c0-13.704,0-27.408,0-41.111C113.685,86.111,99.981,86.111,86.277,86.111z
			"/>
		<path style="fill-rule:evenodd;clip-rule:evenodd;fill:#FFFFFF;" d="M168.5,77.889c2.741,0,5.481,0,8.222,0
			c0,2.741,0,5.481,0,8.222c-2.741,0-5.481,0-8.222,0C168.5,83.371,168.5,80.63,168.5,77.889z"/>
		<path style="fill-rule:evenodd;clip-rule:evenodd;fill:#FFFFFF;" d="M184.944,77.889c8.222,0,16.444,0,24.667,0
			c0,5.481,0,10.963,0,16.444c-2.741,0-5.482,0-8.223,0c0-2.741,0-5.481,0-8.222c-5.481,0-10.963,0-16.444,0
			C184.944,83.371,184.944,80.63,184.944,77.889z"/>
		<path style="fill-rule:evenodd;clip-rule:evenodd;fill:#FFFFFF;" d="M283.611,77.889c0,19.185,0,38.371,0,57.556
			c-19.186,0-38.371,0-57.557,0c0-19.185,0-38.371,0-57.556C245.24,77.889,264.426,77.889,283.611,77.889z M234.277,86.111
			c0,13.704,0,27.408,0,41.111c13.703,0,27.408,0,41.111,0c0-13.704,0-27.408,0-41.111C261.686,86.111,247.98,86.111,234.277,86.111
			z"/>
		<path style="fill-rule:evenodd;clip-rule:evenodd;fill:#FFFFFF;" d="M94.5,94.333c8.222,0,16.445,0,24.667,0
			c0,8.222,0,16.445,0,24.667c-8.222,0-16.445,0-24.667,0C94.5,110.778,94.5,102.556,94.5,94.333z"/>
		<path style="fill-rule:evenodd;clip-rule:evenodd;fill:#FFFFFF;" d="M184.944,94.333c2.741,0,5.481,0,8.222,0
			c0,2.741,0,5.481,0,8.222c-2.74,0-5.48,0-8.222,0C184.944,99.815,184.944,97.074,184.944,94.333z"/>
		<path style="fill-rule:evenodd;clip-rule:evenodd;fill:#FFFFFF;" d="M242.5,94.333c8.222,0,16.444,0,24.666,0
			c0,8.222,0,16.445,0,24.667c-8.222,0-16.444,0-24.666,0C242.5,110.778,242.5,102.556,242.5,94.333z"/>
		<path style="fill-rule:evenodd;clip-rule:evenodd;fill:#FFFFFF;" d="M250.722,143.667c2.741,0,5.481,0,8.223,0
			c0,2.741,0,5.481,0,8.222c-2.741,0-5.481,0-8.223,0C250.722,149.148,250.722,146.408,250.722,143.667z"/>
		<path style="fill-rule:evenodd;clip-rule:evenodd;fill:#FFFFFF;" d="M242.5,184.778c2.74,0,5.48,0,8.222,0
			c0,2.741,0,5.481,0,8.222c-2.741,0-5.481,0-8.222,0C242.5,190.26,242.5,187.52,242.5,184.778z"/>
		<path style="fill-rule:evenodd;clip-rule:evenodd;fill:#FFFFFF;" d="M78.055,209.445c5.481,0,10.963,0,16.444,0
			c0,2.74,0,5.48,0,8.222c-5.481,0-10.963,0-16.444,0C78.055,214.926,78.055,212.186,78.055,209.445z"/>
		<path style="fill-rule:evenodd;clip-rule:evenodd;fill:#FFFFFF;" d="M135.611,225.889c0,19.186,0,38.371,0,57.557
			c-19.185,0-38.371,0-57.556,0c0-19.186,0-38.371,0-57.557C97.24,225.889,116.426,225.889,135.611,225.889z M86.277,234.111
			c0,13.703,0,27.408,0,41.111c13.704,0,27.408,0,41.111,0c0-13.703,0-27.408,0-41.111
			C113.685,234.111,99.981,234.111,86.277,234.111z"/>
		<path style="fill-rule:evenodd;clip-rule:evenodd;fill:#FFFFFF;" d="M168.5,225.889c2.741,0,5.481,0,8.222,0
			c0,2.741,0,5.482,0,8.223c-2.741,0-5.481,0-8.222,0C168.5,231.371,168.5,228.63,168.5,225.889z"/>
		<path style="fill-rule:evenodd;clip-rule:evenodd;fill:#FFFFFF;" d="M226.055,225.889c2.741,0,5.482,0,8.223,0
			c0,2.741,0,5.482,0,8.223c-2.74,0-5.481,0-8.223,0C226.055,231.371,226.055,228.63,226.055,225.889z"/>
		<path style="fill-rule:evenodd;clip-rule:evenodd;fill:#FFFFFF;" d="M94.5,242.334c8.222,0,16.445,0,24.667,0
			c0,8.222,0,16.444,0,24.666c-8.222,0-16.445,0-24.667,0C94.5,258.778,94.5,250.556,94.5,242.334z"/>
		<path style="fill-rule:evenodd;clip-rule:evenodd;fill:#FFFFFF;" d="M275.389,275.223c2.74,0,5.481,0,8.223,0
			c0,2.74,0,5.481,0,8.223c-2.741,0-5.482,0-8.223,0C275.389,280.704,275.389,277.963,275.389,275.223z"/>
		<path style="fill-rule:evenodd;clip-rule:evenodd;fill:#FFFFFF;" d="M184.944,119c-10.621,0-21.241,0-31.861,0
			c-2.387,6.177-0.351,16.779-1.028,24.667c-2.741,0-5.481,0-8.222,0c0-8.222,0-16.444,0-24.667c2.741,0,5.481,0,8.222,0
			c0-2.398,0-4.796,0-7.195c-0.765-2.318-5.765-0.402-8.222-1.027c0-2.741,0-5.482,0-8.223c2.741,0,5.481,0,8.222,0
			c0-8.222,0-16.444,0-24.667c2.741,0,5.481,0,8.222,0c0,5.139,0,10.278,0,15.417c3.449,2.375,11.288,0.36,16.444,1.028
			c0,5.139,0,10.278,0,15.417c0.766,2.318,5.765,0.402,8.223,1.028C184.944,113.519,184.944,116.26,184.944,119
			c5.481,0,10.963,0,16.444,0c0-5.481,0-10.963,0-16.445c2.74,0,5.481,0,8.223,0c0,2.741,0,5.482,0,8.223c2.74,0,5.48,0,8.222,0
			c0,13.361,0,26.722,0,40.083c0.442,2.298,5.065,0.417,7.194,1.028c2.318-0.765,0.402-5.765,1.027-8.222c5.482,0,10.963,0,16.445,0
			c0,5.139,0,10.278,0,15.417c3.449,2.375,11.287,0.36,16.444,1.028c0,5.481,0,10.963,0,16.444c-8.223,0-16.444,0-24.667,0
			c0,10.62,0,21.241,0,31.861c3.109,2.372,10.602,0.362,15.417,1.028c2.317-0.766,0.401-5.766,1.027-8.223c2.741,0,5.481,0,8.223,0
			c0,5.481,0,10.963,0,16.444c-2.741,0-5.481,0-8.223,0c0,5.139,0,10.278,0,15.417c0.766,2.318,5.765,0.401,8.223,1.027
			c0,5.139,0,10.277,0,15.417c0.442,2.298,5.065,0.416,7.194,1.027c2.318-0.765,0.402-5.765,1.027-8.222c5.482,0,10.963,0,16.445,0
			c0,2.74,0,5.48,0,8.222c-2.741,0-5.482,0-8.223,0c0,2.398,0,4.796,0,7.194c0.766,2.318,5.765,0.402,8.223,1.028
			c0,2.741,0,5.481,0,8.222c-8.223,0-16.445,0-24.667,0c0,5.482,0,10.963,0,16.445c-2.741,0-5.481,0-8.223,0
			c0-8.223,0-16.445,0-24.667c2.741,0,5.481,0,8.223,0c0-2.741,0-5.481,0-8.223c-10.964,0-21.927,0-32.89,0c0,7.88,0,15.759,0,23.64
			c0.766,2.317,5.766,0.401,8.223,1.027c0,2.74,0,5.481,0,8.223c-2.74,0-5.481,0-8.223,0c0-2.741,0-5.482,0-8.223
			c-2.397,0-4.796,0-7.193,0c-2.318,0.766-0.402,5.765-1.028,8.223c-2.741,0-5.481,0-8.222,0c0-5.482,0-10.963,0-16.445
			c2.74,0,5.48,0,8.222,0c0-5.48,0-10.963,0-16.444c-5.481,0-10.963,0-16.444,0c0,5.481,0,10.964,0,16.444
			c-5.139,0-10.277,0-15.417,0c-2.298,0.443-0.416,5.065-1.027,7.195c0.765,2.317,5.765,0.401,8.222,1.027c0,2.74,0,5.481,0,8.223
			c-2.74,0-5.48,0-8.222,0c0-2.398,0-4.797,0-7.195c-0.766-2.318-5.765-0.401-8.223-1.027c0-2.74,0-5.481,0-8.223
			c2.741,0,5.481,0,8.223,0c0-2.74,0-5.48,0-8.222c2.741,0,5.481,0,8.222,0c0-2.741,0-5.481,0-8.223c2.741,0,5.482,0,8.223,0
			c0-2.741,0-5.481,0-8.222c-7.88,0-15.76,0-23.639,0c-2.318,0.766-0.402,5.765-1.028,8.222c-2.398,0-4.796,0-7.194,0
			c-2.318,0.766-0.402,5.765-1.028,8.223c-2.741,0-5.481,0-8.222,0c0-5.481,0-10.964,0-16.444c5.139,0,10.278,0,15.417,0
			c2.318-0.766,0.402-5.766,1.027-8.223c2.741,0,5.481,0,8.223,0c0-2.74,0-5.481,0-8.223c5.481,0,10.963,0,16.444,0
			c0,2.741,0,5.482,0,8.223c2.74,0,5.481,0,8.223,0c0-2.398,0-4.797,0-7.194c-0.766-2.317-5.766-0.401-8.223-1.028
			c0-2.74,0-5.48,0-8.222c-5.481,0-10.963,0-16.444,0c0-2.741,0-5.481,0-8.222c7.88,0,15.759,0,23.639,0
			c2.317-0.766,0.401-5.766,1.028-8.223c2.74,0,5.48,0,8.222,0c0-2.398,0-4.797,0-7.194c-0.442-2.298-5.065-0.417-7.194-1.028
			c-2.318,0.766-0.402,5.766-1.027,8.223c-2.741,0-5.482,0-8.223,0c0-2.74,0-5.481,0-8.223c-10.621,0-21.241,0-31.861,0
			c-2.318,0.766-0.402,5.766-1.028,8.223c-2.741,0-5.481,0-8.222,0c0,2.398,0,4.797,0,7.194c0.443,2.298,5.065,0.417,7.194,1.028
			c2.318-0.766,0.402-5.766,1.028-8.223c2.741,0,5.481,0,8.222,0c0,5.481,0,10.963,0,16.444c-2.398,0-4.796,0-7.194,0
			c-2.318,0.765-0.402,5.765-1.028,8.222c-2.741,0-5.481,0-8.222,0c0,5.482,0,10.963,0,16.445c-2.741,0-5.481,0-8.222,0
			c0-5.139,0-10.278,0-15.417c-0.765-2.317-5.765-0.401-8.222-1.028c0-5.139,0-10.277,0-15.416
			c-0.443-2.299-5.065-0.416-7.194-1.027c-2.318,0.765-0.402,5.764-1.028,8.222c-2.741,0-5.481,0-8.222,0c0-2.741,0-5.481,0-8.222
			c2.741,0,5.481,0,8.222,0c0-2.741,0-5.482,0-8.223c-7.88,0-15.759,0-23.639,0c-2.298,0.442-0.416,5.064-1.027,7.194
			c0.765,2.317,5.765,0.401,8.222,1.028c0,2.74,0,5.48,0,8.222c-2.741,0-5.481,0-8.222,0c0-2.741,0-5.481,0-8.222
			c-2.741,0-5.482,0-8.223,0c0-5.482,0-10.963,0-16.445c5.139,0,10.278,0,15.417,0c2.318-0.766,0.402-5.765,1.028-8.222
			c2.398,0,4.796,0,7.194,0c2.318-0.766,0.402-5.765,1.028-8.223c2.741,0,5.481,0,8.222,0c0,2.741,0,5.481,0,8.223
			c-2.741,0-5.481,0-8.222,0c0,2.741,0,5.481,0,8.222c2.398,0,4.796,0,7.194,0c2.318-0.766,0.402-5.765,1.028-8.222
			c2.398,0,4.796,0,7.194,0c2.318-0.766,0.402-5.765,1.028-8.223c2.741,0,5.481,0,8.222,0c0,2.741,0,5.481,0,8.223
			c-2.741,0-5.481,0-8.222,0c0,5.481,0,10.963,0,16.444c5.139,0,10.278,0,15.417,0c2.298-0.443,0.417-5.065,1.028-7.194
			c-0.765-2.318-5.765-0.401-8.222-1.028c0-2.74,0-5.48,0-8.222c2.741,0,5.481,0,8.222,0c0-2.741,0-5.482,0-8.223
			c2.741,0,5.481,0,8.222,0c0-5.481,0-10.963,0-16.444c10.963,0,21.926,0,32.889,0c0-8.222,0-16.444,0-24.667
			c2.74,0,5.481,0,8.223,0c0-5.139,0-10.278,0-15.417c-0.766-2.318-5.766-0.402-8.223-1.028c0,5.481,0,10.963,0,16.444
			c-2.74,0-5.481,0-8.223,0c0,5.481,0,10.963,0,16.444c-2.74,0-5.48,0-8.222,0c0-5.481,0-10.963,0-16.444c2.741,0,5.481,0,8.222,0
			c0-2.741,0-5.481,0-8.222c-2.398,0-4.796,0-7.194,0c-2.317,0.765-0.401,5.765-1.027,8.222c-2.741,0-5.482,0-8.223,0
			c0,5.481,0,10.963,0,16.444c-5.481,0-10.963,0-16.444,0c0-2.741,0-5.481,0-8.222c2.741,0,5.481,0,8.222,0c0-2.398,0-4.796,0-7.194
			c-0.765-2.318-5.765-0.402-8.222-1.028c0-2.741,0-5.481,0-8.222c2.741,0,5.481,0,8.222,0c0,2.741,0,5.481,0,8.222
			c2.398,0,4.796,0,7.195,0c2.318-0.766,0.402-5.765,1.027-8.222c2.741,0,5.481,0,8.223,0
			C184.944,124.482,184.944,121.741,184.944,119z M176.722,176.556c0,2.741,0,5.481,0,8.223c2.741,0,5.481,0,8.223,0
			c0.626-2.458-1.29-7.457,1.027-8.223c2.398,0,4.796,0,7.194,0c0-2.741,0-5.481,0-8.222c-2.74,0-5.48,0-8.222,0
			c0,2.741,0,5.481,0,8.222C182.203,176.556,179.462,176.556,176.722,176.556z M201.389,184.778c2.74,0,5.481,0,8.223,0
			c0-2.741,0-5.482,0-8.223c-2.741,0-5.482,0-8.223,0C201.389,179.296,201.389,182.037,201.389,184.778z M217.833,184.778
			c2.741,0,5.481,0,8.222,0c0-2.741,0-5.482,0-8.223c-2.74,0-5.48,0-8.222,0C217.833,179.296,217.833,182.037,217.833,184.778z
			 M217.833,242.334c8.222,0,16.444,0,24.667,0c0-8.223,0-16.445,0-24.667c-8.223,0-16.445,0-24.667,0
			C217.833,225.889,217.833,234.111,217.833,242.334z"/>
		<path style="fill-rule:evenodd;clip-rule:evenodd;fill:#FFFFFF;" d="M168.5,258.778c2.741,0,5.481,0,8.222,0
			c0,2.741,0,5.481,0,8.222c-2.398,0-4.796,0-7.194,0c-2.318,0.766-0.402,5.766-1.028,8.223c-2.741,0-5.481,0-8.222,0
			c0,2.74,0,5.481,0,8.223c-2.741,0-5.481,0-8.222,0c0-2.741,0-5.482,0-8.223c-2.741,0-5.481,0-8.222,0c0-5.481,0-10.963,0-16.444
			c2.741,0,5.481,0,8.222,0c0,2.741,0,5.481,0,8.222c5.139,0,10.278,0,15.417,0C169.79,266.234,167.874,261.235,168.5,258.778z"/>
		<path style="fill-rule:evenodd;clip-rule:evenodd;fill:#FFFFFF;" d="M94.5,184.778c0-2.741,0-5.482,0-8.223
			c-2.398,0-4.796,0-7.194,0c-2.318,0.766-0.402,5.765-1.028,8.223c-2.741,0-5.481,0-8.222,0c0-5.482,0-10.963,0-16.445
			c2.741,0,5.481,0,8.222,0c0-2.398,0-4.796,0-7.194c-0.765-2.318-5.765-0.402-8.222-1.028c0-2.741,0-5.481,0-8.222
			c2.741,0,5.481,0,8.222,0c0-2.741,0-5.481,0-8.222c5.481,0,10.963,0,16.444,0c0,2.398,0,4.796,0,7.194
			c0.766,2.318,5.765,0.402,8.223,1.028c0,2.741,0,5.481,0,8.222c-5.139,0-10.278,0-15.417,0c-2.298,0.443-0.416,5.065-1.028,7.194
			c0.766,2.318,5.765,0.402,8.222,1.028c0,5.481,0,10.963,0,16.445C99.981,184.778,97.24,184.778,94.5,184.778
			c0,5.481,0,10.963,0,16.444c-5.481,0-10.963,0-16.444,0c0-2.74,0-5.481,0-8.223c2.398,0,4.796,0,7.194,0
			c2.318-0.766,0.402-5.765,1.028-8.222C89.018,184.778,91.759,184.778,94.5,184.778z"/>
		<path style="fill-rule:evenodd;clip-rule:evenodd;fill:#FFFFFF;" d="M135.611,151.889c-2.741,0-5.481,0-8.222,0
			c0,2.398,0,4.796,0,7.194c0.442,2.298,5.065,0.417,7.194,1.028C136.901,159.346,134.985,154.347,135.611,151.889
			c5.481,0,10.963,0,16.444,0c0,2.398,0,4.796,0,7.194c0.766,2.318,5.765,0.402,8.222,1.028c0,2.741,0,5.481,0,8.222
			c-2.741,0-5.481,0-8.222,0c0-2.741,0-5.481,0-8.222c-2.398,0-4.796,0-7.194,0c-2.318,0.766-0.402,5.765-1.028,8.222
			c-8.222,0-16.444,0-24.667,0c0-5.481,0-10.963,0-16.444c2.398,0,4.796,0,7.194,0c2.318-0.765,0.402-5.765,1.028-8.222
			c2.741,0,5.481,0,8.222,0C135.611,146.408,135.611,149.148,135.611,151.889z"/>
		<path style="fill-rule:evenodd;clip-rule:evenodd;fill:#FFFFFF;" d="M275.389,168.333c0-2.398,0-4.796,0-7.194
			c-0.766-2.318-5.765-0.402-8.223-1.028c0-2.741,0-5.481,0-8.222c5.482,0,10.963,0,16.445,0c0,5.481,0,10.963,0,16.444
			C280.87,168.333,278.129,168.333,275.389,168.333c0,2.398,0,4.796,0,7.195c0.766,2.318,5.765,0.402,8.223,1.027
			c0,13.704,0,27.407,0,41.111c-2.741,0-5.482,0-8.223,0c0,2.397,0,4.796,0,7.194c0.766,2.318,5.765,0.402,8.223,1.027
			c0,2.741,0,5.482,0,8.223c-2.741,0-5.482,0-8.223,0c0-2.398,0-4.797,0-7.194c-0.766-2.317-5.765-0.401-8.223-1.028
			c0-2.74,0-5.48,0-8.222c2.741,0,5.482,0,8.223,0c0-13.361,0-26.722,0-40.083c-0.766-2.318-5.765-0.402-8.223-1.028
			c0-2.741,0-5.481,0-8.222C269.907,168.333,272.648,168.333,275.389,168.333z"/>
	</g>
</g>
<g id="Ebene_1">
</g>
</svg>
