<?xml version="1.0" encoding="iso-8859-1"?>
<!-- Generator: Adobe Illustrator 16.0.0, SVG Export Plug-In . SVG Version: 6.00 Build 0)  -->
<!DOCTYPE svg PUBLIC "-//W3C//DTD SVG 1.1 Tiny//EN" "http://www.w3.org/Graphics/SVG/1.1/DTD/svg11-tiny.dtd">
<svg version="1.1" baseProfile="tiny" id="secur_x5F_frost_x5F_protection"
	 xmlns="http://www.w3.org/2000/svg" xmlns:xlink="http://www.w3.org/1999/xlink" x="0px" y="0px" width="361px" height="361px"
	 viewBox="0 0 361 361" xml:space="preserve">
<g>
	<g>
		<path fill="#FFFFFF" d="M252.31,76.627c0,10.735,0,21.469,0,32.204c0,4.514,7,4.514,7,0c0-10.735,0-21.469,0-32.204
			C259.31,72.113,252.31,72.113,252.31,76.627L252.31,76.627z"/>
	</g>
	<g>
		<path fill="#FFFFFF" d="M244.673,82.891c3.129,1.807,6.259,3.614,9.388,5.421c3.917,2.262,7.44-3.788,3.533-6.044
			c-3.129-1.807-6.259-3.614-9.388-5.421C244.29,74.585,240.766,80.635,244.673,82.891L244.673,82.891z"/>
	</g>
	<g>
		<path fill="#FFFFFF" d="M263.308,76.847c-3.129,1.807-6.259,3.614-9.388,5.421c-3.907,2.256-0.383,8.306,3.533,6.044
			c3.129-1.807,6.259-3.614,9.388-5.421C270.748,80.635,267.224,74.585,263.308,76.847L263.308,76.847z"/>
	</g>
</g>
<g>
	<g>
		<path fill="#FFFFFF" d="M226.043,95.38c9.296,5.368,18.593,10.735,27.889,16.102c3.917,2.261,7.44-3.789,3.533-6.044
			c-9.296-5.368-18.593-10.735-27.889-16.102C225.66,87.075,222.136,93.125,226.043,95.38L226.043,95.38z"/>
	</g>
	<g>
		<path fill="#FFFFFF" d="M227.698,105.117c3.129-1.807,6.259-3.613,9.389-5.42c3.907-2.255,0.383-8.305-3.533-6.044
			c-3.129,1.807-6.259,3.613-9.389,5.42C220.258,101.328,223.781,107.378,227.698,105.117L227.698,105.117z"/>
	</g>
	<g>
		<path fill="#FFFFFF" d="M231.749,85.955c0,3.614,0,7.228,0,10.842c0,4.514,7,4.514,7,0c0-3.614,0-7.228,0-10.842
			C238.749,81.441,231.749,81.441,231.749,85.955L231.749,85.955z"/>
	</g>
</g>
<g>
	<g>
		<path fill="#FFFFFF" d="M229.646,127.562c9.296-5.367,18.593-10.734,27.89-16.102c3.907-2.255,0.383-8.305-3.533-6.044
			c-9.296,5.367-18.593,10.734-27.89,16.102C222.206,123.773,225.729,129.823,229.646,127.562L229.646,127.562z"/>
	</g>
	<g>
		<path fill="#FFFFFF" d="M238.873,131.035c0-3.614,0-7.228,0-10.841c0-4.514-7-4.514-7,0c0,3.614,0,7.228,0,10.841
			C231.873,135.549,238.873,135.549,238.873,131.035L238.873,131.035z"/>
	</g>
	<g>
		<path fill="#FFFFFF" d="M224.289,117.919c3.129,1.807,6.259,3.613,9.388,5.419c3.917,2.261,7.44-3.789,3.533-6.044
			c-3.129-1.807-6.259-3.613-9.388-5.419C223.905,109.614,220.382,115.664,224.289,117.919L224.289,117.919z"/>
	</g>
</g>
<g>
	<g>
		<path fill="#FFFFFF" d="M259.275,140.758c0-10.735,0-21.47,0-32.205c0-4.514-7-4.514-7,0c0,10.735,0,21.47,0,32.205
			C252.275,145.272,259.275,145.272,259.275,140.758L259.275,140.758z"/>
	</g>
	<g>
		<path fill="#FFFFFF" d="M266.912,134.495c-3.13-1.807-6.259-3.614-9.389-5.42c-3.917-2.261-7.44,3.789-3.533,6.044
			c3.13,1.807,6.259,3.614,9.389,5.42C267.295,142.8,270.819,136.75,266.912,134.495L266.912,134.495z"/>
	</g>
	<g>
		<path fill="#FFFFFF" d="M248.276,140.539c3.129-1.807,6.259-3.613,9.389-5.42c3.907-2.255,0.383-8.305-3.533-6.044
			c-3.129,1.807-6.259,3.613-9.389,5.42C240.836,136.75,244.359,142.8,248.276,140.539L248.276,140.539z"/>
	</g>
</g>
<g>
	<g>
		<path fill="#FFFFFF" d="M285.541,121.76c-9.296-5.368-18.593-10.735-27.889-16.102c-3.917-2.261-7.44,3.789-3.533,6.044
			c9.296,5.368,18.593,10.735,27.889,16.102C285.924,130.065,289.448,124.015,285.541,121.76L285.541,121.76z"/>
	</g>
	<g>
		<path fill="#FFFFFF" d="M283.887,112.023c-3.129,1.806-6.259,3.613-9.388,5.419c-3.907,2.255-0.384,8.305,3.533,6.044
			c3.129-1.806,6.259-3.613,9.388-5.419C291.327,115.812,287.804,109.762,283.887,112.023L283.887,112.023z"/>
	</g>
	<g>
		<path fill="#FFFFFF" d="M279.835,131.184c0-3.613,0-7.227,0-10.84c0-4.514-7-4.514-7,0c0,3.613,0,7.227,0,10.84
			C272.835,135.698,279.835,135.698,279.835,131.184L279.835,131.184z"/>
	</g>
</g>
<g>
	<g>
		<path fill="#FFFFFF" d="M281.938,89.578c-9.296,5.367-18.593,10.735-27.89,16.103c-3.907,2.255-0.383,8.305,3.533,6.044
			c9.296-5.367,18.593-10.735,27.89-16.103C289.378,93.366,285.854,87.316,281.938,89.578L281.938,89.578z"/>
	</g>
	<g>
		<path fill="#FFFFFF" d="M272.711,86.106c0,3.613,0,7.227,0,10.84c0,4.514,7,4.514,7,0c0-3.613,0-7.227,0-10.84
			C279.711,81.592,272.711,81.592,272.711,86.106L272.711,86.106z"/>
	</g>
	<g>
		<path fill="#FFFFFF" d="M287.295,99.222c-3.129-1.807-6.259-3.614-9.388-5.421c-3.917-2.262-7.44,3.788-3.533,6.044
			c3.129,1.807,6.259,3.614,9.388,5.421C287.678,107.528,291.202,101.478,287.295,99.222L287.295,99.222z"/>
	</g>
</g>
<path display="none" fill="none" stroke="#FFFFFF" stroke-width="10" stroke-miterlimit="10" d="M194.898,134.628
	c0,60.015-37.982,123.667-78.667,123.667c-40.685,0-78.667-63.652-78.667-123.667c0-21.883-0.615-42.255,6.929-59.309
	c0,0,45.888-15.358,71.738-15.358c25.813,0,71.68,15.229,71.68,15.229C195.491,92.271,194.898,112.69,194.898,134.628z"/>
<rect x="66.696" y="120.074" transform="matrix(0.7071 -0.7071 0.7071 0.7071 -56.3196 128.4225)" fill="#FFFFFF" width="120.33" height="24.244"/>
<path fill="none" stroke="#FFFFFF" stroke-width="10" stroke-miterlimit="10" d="M178.439,127.701
	c0,40.488-25.624,83.429-53.071,83.429s-53.071-42.941-53.071-83.429c0-14.763-0.415-28.507,4.674-40.012
	c0,0,30.958-10.361,48.396-10.361c17.415,0,48.358,10.274,48.358,10.274C178.839,99.125,178.439,112.901,178.439,127.701z"/>
<path fill="none" stroke="#FFFFFF" stroke-width="10" stroke-miterlimit="10" d="M266.13,257.797c0,1.86-1.634,3.369-3.648,3.369
	h-13.378c-2.015,0-3.649-1.508-3.649-3.369V164.4c0-1.861,1.634-3.369,3.649-3.369h13.378c2.015,0,3.648,1.508,3.648,3.369V257.797z
	"/>
<path fill="#FFFFFF" stroke="#FFFFFF" stroke-width="10" stroke-miterlimit="10" d="M271.603,285.896c0,2.015-1.28,3.649-2.86,3.649
	h-25.901c-1.58,0-2.86-1.634-2.86-3.649v-21.081c0-2.015,1.281-3.649,2.86-3.649h25.901c1.58,0,2.86,1.634,2.86,3.649V285.896z"/>
<g>
	<path fill="#FFFFFF" d="M274.036,173.329c3.648,0,7.297,0,10.946,0c6.449,0,6.449-10,0-10c-3.648,0-7.297,0-10.946,0
		C267.587,163.329,267.587,173.329,274.036,173.329L274.036,173.329z"/>
</g>
<g>
	<path fill="#FFFFFF" d="M274.036,197.653c3.648,0,7.297,0,10.946,0c6.449,0,6.449-10,0-10c-3.648,0-7.297,0-10.946,0
		C267.587,187.653,267.587,197.653,274.036,197.653L274.036,197.653z"/>
</g>
<g>
	<path fill="#FFFFFF" d="M274.036,222.585c3.648,0,7.297,0,10.946,0c6.449,0,6.449-10,0-10c-3.648,0-7.297,0-10.946,0
		C267.587,212.585,267.587,222.585,274.036,222.585L274.036,222.585z"/>
</g>
<g>
	<path fill="#FFFFFF" d="M274.036,248.734c3.648,0,7.297,0,10.946,0c6.449,0,6.449-10,0-10c-3.648,0-7.297,0-10.946,0
		C267.587,238.734,267.587,248.734,274.036,248.734L274.036,248.734z"/>
</g>
<rect x="245.454" y="237.545" fill="#FFFFFF" stroke="#FFFFFF" stroke-width="10" stroke-miterlimit="10" width="20.676" height="33.148"/>
</svg>
