<?xml version="1.0" encoding="iso-8859-1"?>
<!-- Generator: Adobe Illustrator 16.0.0, SVG Export Plug-In . SVG Version: 6.00 Build 0)  -->
<!DOCTYPE svg PUBLIC "-//W3C//DTD SVG 1.1//EN" "http://www.w3.org/Graphics/SVG/1.1/DTD/svg11.dtd">
<svg version="1.1" xmlns="http://www.w3.org/2000/svg" xmlns:xlink="http://www.w3.org/1999/xlink" x="0px" y="0px" width="361px"
	 height="361px" viewBox="0 0 361 361" style="enable-background:new 0 0 361 361;" xml:space="preserve">
<g id="secur_x5F_open">
	<path style="fill:none;stroke:#FFFFFF;stroke-width:10;stroke-miterlimit:10;" d="M114.321,182.378c0-3.098,2.69-5.609,6.009-5.609
		h121.828c3.318,0,6.008,2.512,6.008,5.609v98.959c0,3.098-2.689,5.609-6.008,5.609H120.33c-3.318,0-6.009-2.512-6.009-5.609
		V182.378z"/>
	<g>
		<g>
			<path style="fill:#FFFFFF;" d="M115.958,266.805c22.558,0,45.117,0,67.675,0c6.448,0,6.448-10,0-10c-22.558,0-45.117,0-67.675,0
				C109.509,256.805,109.509,266.805,115.958,266.805L115.958,266.805z"/>
		</g>
	</g>
	<g>
		<g>
			<path style="fill:#FFFFFF;" d="M119.13,239.693c21.501,0,43.002,0,64.503,0c6.448,0,6.448-10,0-10c-21.501,0-43.002,0-64.503,0
				C112.681,229.693,112.681,239.693,119.13,239.693L119.13,239.693z"/>
		</g>
	</g>
	<g>
		<g>
			<path style="fill:#FFFFFF;" d="M119.13,212.582c21.501,0,43.002,0,64.503,0c6.448,0,6.448-10,0-10c-21.501,0-43.002,0-64.503,0
				C112.681,202.582,112.681,212.582,119.13,212.582L119.13,212.582z"/>
		</g>
	</g>
	<g style="display:none;">
		<path style="display:inline;fill:none;stroke:#FFFFFF;stroke-width:10;stroke-miterlimit:10;" d="M286.833,164.667
			c0-32.427-22.14-58.667-49.5-58.667"/>
		<path style="display:inline;fill:none;stroke:#FFFFFF;stroke-width:10;stroke-miterlimit:10;" d="M237.333,106
			c-27.36,0-49.5,26.24-49.5,58.667"/>
	</g>
	<g>
		<g>
			<path style="fill:#FFFFFF;" d="M165.477,110.976c3.986-3.986,7.972-7.972,11.958-11.958c2.516-2.516,5.032-5.031,7.547-7.547
				c0.774-0.774,1.548-1.548,2.322-2.323c1.539-1.539-0.845,0.385,0.164-0.137c-1.844,0.953,0.084,0.055,0.502-0.072
				c0.78-0.238,1.579-0.418,2.373-0.604c1.914-0.451,3.861-0.769,5.803-1.074c4.12-0.649,8.314-0.963,12.482-1.042
				c0.74-0.014,4.853,0.353,3.004,0.033c1.431,0.248-2.602-2.016-1.683-1.097c1.324,1.325,2.648,2.649,3.973,3.974
				c10.319,10.319,20.639,20.639,30.958,30.958c1.175,1.175,2.35,2.35,3.524,3.524c0.972,0.972-1.523-3.285-1.164-1.779
				c-0.476-1.995-0.02,0.023,0.008,0.489c0.065,1.114,0.039,2.234,0.019,3.349c-0.074,3.886-0.446,7.805-1.016,11.648
				c-0.288,1.947-0.654,3.881-1.074,5.803c-0.174,0.798-0.387,1.586-0.604,2.373c-0.126,0.44-0.266,0.876-0.419,1.308
				c0.391-0.855,0.423-0.956,0.097-0.302c0.766-1.481,0.779-0.977,0.047-0.245c-0.774,0.774-1.548,1.548-2.322,2.323
				c-2.516,2.516-5.031,5.031-7.547,7.547c-3.986,3.986-7.972,7.972-11.958,11.958c-6.835,6.835,3.813,17.403,10.666,10.551
				c3.985-3.986,7.971-7.972,11.957-11.958c3.858-3.859,8.967-7.677,11.931-12.336c4.091-6.429,4.339-16.261,4.967-23.575
				c0.502-5.841,1.341-13.444-3.18-17.964c-9.419-9.42-18.838-18.839-28.258-28.259c-3.389-3.389-6.777-6.778-10.166-10.167
				c-4.72-4.719-13.731-3.235-19.678-2.671c-5.958,0.565-12.229,1.238-17.93,3.165c-3.65,1.233-5.844,3.43-8.463,6.05
				c-6.501,6.501-13.003,13.003-19.505,19.504C147.976,107.26,158.625,117.828,165.477,110.976L165.477,110.976z"/>
		</g>
	</g>
</g>
<g id="Ebene_1">
</g>
</svg>
