<?xml version="1.0" encoding="iso-8859-1"?>
<!-- Generator: Adobe Illustrator 16.0.3, SVG Export Plug-In . SVG Version: 6.00 Build 0)  -->
<!DOCTYPE svg PUBLIC "-//W3C//DTD SVG 1.1//EN" "http://www.w3.org/Graphics/SVG/1.1/DTD/svg11.dtd">
<svg version="1.1" xmlns="http://www.w3.org/2000/svg" xmlns:xlink="http://www.w3.org/1999/xlink" x="0px" y="0px" width="361px"
	 height="361px" viewBox="0 0 361 361" style="enable-background:new 0 0 361 361;" xml:space="preserve">
<g id="secur_x5F_fingerprint_x5F_reader">
	<g style="display:none;">
		<g style="display:inline;">
			<g>
				<path style="fill:#FFFFFF;" d="M180.123,178.697c0-6.446,12.038-4.061,15.843-4.061c6.49,0,4.491,9.472,4.491,14.062
					c0,6.448,10,6.448,10,0c0-4.242,0.774-9.286-0.28-13.442c-1.554-6.123-7.588-10.62-13.938-10.62c-4.334,0-8.668,0-13.002,0
					c-7.034,0-13.113,7.396-13.113,14.061C170.123,185.146,180.123,185.146,180.123,178.697L180.123,178.697z"/>
			</g>
		</g>
		<g style="display:inline;">
			<g>
				<path style="fill:#FFFFFF;" d="M151.79,232.339c0-23.81,0-47.618,0-71.428c0-12.14,0-24.279,0-36.419
					c0-4.806-0.064-9.617,0.279-14.414c0.188-2.628,0.222-6.497,3.334-6.497c3.692,0,7.385,0,11.078,0c1.006,0,2.012,0,3.019,0
					c2.27,0,0.624,0.311,0.624-1.028c0,0.501,0,1.002,0,1.503c0,3.136,0,6.273,0,9.409c0,11.554,0,23.107,0,34.661
					c0,18.175,0,36.351,0,54.526c0,6.448,10,6.448,10,0c0-24.522,0-49.044,0-73.567c0-8.844,0-17.689,0-26.533
					c0-9.879-10.616-8.972-17.395-8.972c-7.141,0-14.782-0.994-18.466,6.668c-4.177,8.686-2.472,20.455-2.472,30.069
					c0,12.794,0,25.588,0,38.382c0,21.212,0,42.425,0,63.638C141.79,238.787,151.79,238.787,151.79,232.339L151.79,232.339z"/>
			</g>
		</g>
		<g style="display:inline;">
			<g>
				<path style="fill:#FFFFFF;" d="M210.457,196.385c0-3.057,0-6.113,0-9.17c0-1.335-1.736,0.108,0.271,0.108
					c1.964,0,3.929,0,5.894,0c3.021,0,6.434-0.746,8.791,1.447c2.636,2.452,2.377,4.333,2.377,7.614c0,6.448,10,6.448,10,0
					c0-5.884-1.218-10.162-5.306-14.686c-4.276-4.73-10.106-4.376-15.862-4.376c-5.772,0-12.115-0.87-15.278,5.184
					c-1.967,3.765-0.887,9.79-0.887,13.878C200.457,202.833,210.457,202.833,210.457,196.385L210.457,196.385z"/>
			</g>
		</g>
		<g style="display:inline;">
			<g>
				<path style="fill:#FFFFFF;" d="M237.79,207.765c0-4.029,0-8.059,0-12.087c0-1.48-1.212,0.259-0.524,0.259
					c1.311,0,2.621,0,3.932,0c1.952,0,4.168-0.307,6.097,0.094c4.09,0.849,2.829,13.98,2.829,17.244c0,17.699,0,35.399,0,53.099
					c0,6.448,10,6.448,10,0c0-19.757,0-39.514,0-59.271c0-10.369-3.034-21.166-15.258-21.166c-6.563,0-15.49-1.003-16.896,7.63
					c-0.747,4.582-0.179,9.564-0.179,14.198C227.79,214.213,237.79,214.213,237.79,207.765L237.79,207.765z"/>
			</g>
		</g>
		<g style="display:inline;">
			<g>
				<path style="fill:#FFFFFF;" d="M126.817,253.828c-2.698-5.411-5.396-10.823-8.094-16.234c-1.537-3.083-3.074-6.166-4.612-9.25
					c-1.396-2.801-1.526-5.283,1.48-7.284c3.203-2.131,6.328-4.655,10.086-5.665c3.5-0.94,4.439,1.689,6.029,4.062
					c3.546,5.292,7.092,10.583,10.639,15.875c3.57,5.327,12.236,0.327,8.635-5.047c-4.221-6.298-8.441-12.597-12.662-18.895
					c-7.346-10.962-19.357-4.565-27.773,1.035c-5.71,3.8-8.731,9.77-7.094,16.607c0.691,2.888,2.875,6.062,4.182,8.683
					c3.517,7.054,7.033,14.107,10.55,21.16C121.061,264.647,129.686,259.58,126.817,253.828L126.817,253.828z"/>
			</g>
		</g>
	</g>
	<g>
		<g>
			<g>
				<path style="fill:#FFFFFF;" d="M200.125,198.699c0-6.445,12.038-4.061,15.843-4.061c6.49,0,4.491,9.472,4.491,14.062
					c0,6.448,10,6.448,10,0c0-4.242,0.775-9.285-0.28-13.442c-1.554-6.123-7.589-10.619-13.938-10.619c-4.334,0-8.668,0-13.002,0
					c-7.034,0-13.113,7.396-13.113,14.061C190.125,205.147,200.125,205.147,200.125,198.699L200.125,198.699z"/>
			</g>
		</g>
		<g>
			<g>
				<path style="fill:#FFFFFF;" d="M171.792,241.339c0-24.595,0-49.188,0-73.783c0-8.871,0-17.741,0-26.611
					c0-5.261-0.258-10.721,1.229-15.819c0.712-2.442,3.882-1.542,5.957-1.542c3.508,0,7.016,0,10.523,0
					c2.277,0,0.624,0.279,0.624-0.986c0,0.343,0,0.685,0,1.028c0,31.343,0,62.687,0,94.03c0,6.448,10,6.448,10,0
					c0-24.828,0-49.657,0-74.485c0-5.496,0-10.991,0-16.487c0-4.146,0.297-9.396-4.114-11.654
					c-5.67-2.902-13.875-1.446-20.052-1.446c-10.009,0-13.011,7.634-13.888,16.497c-0.728,7.352-0.279,15.068-0.279,22.468
					c0,11.7,0,23.399,0,35.098c0,17.897,0,35.795,0,53.692C161.792,247.787,171.792,247.787,171.792,241.339L171.792,241.339z"/>
			</g>
		</g>
		<g>
			<g>
				<path style="fill:#FFFFFF;" d="M230.459,216.387c0-3.057,0-6.113,0-9.17c0-1.335-1.736,0.108,0.271,0.108
					c1.964,0,3.929,0,5.894,0c3.021,0,6.434-0.746,8.791,1.447c2.636,2.452,2.377,4.333,2.377,7.614c0,6.448,10,6.448,10,0
					c0-5.884-1.218-10.162-5.306-14.686c-4.276-4.73-10.106-4.376-15.862-4.376c-5.772,0-12.115-0.87-15.278,5.184
					c-1.967,3.765-0.887,9.79-0.887,13.878C220.459,222.835,230.459,222.835,230.459,216.387L230.459,216.387z"/>
			</g>
		</g>
		<g>
			<g>
				<path style="fill:#FFFFFF;" d="M257.792,227.767c0-4.029,0-8.059,0-12.087c0-1.48-1.212,0.259-0.524,0.259
					c1.311,0,2.621,0,3.932,0c1.952,0,4.168-0.307,6.097,0.094c4.09,0.849,2.829,13.98,2.829,17.244c0,17.699,0,35.399,0,53.099
					c0,6.448,10,6.448,10,0c0-19.757,0-39.514,0-59.271c0-10.369-3.034-21.166-15.258-21.166c-6.563,0-15.49-1.003-16.896,7.63
					c-0.747,4.582-0.179,9.564-0.179,14.198C247.792,234.215,257.792,234.215,257.792,227.767L257.792,227.767z"/>
			</g>
		</g>
		<g>
			<g>
				<path style="fill:#FFFFFF;" d="M166.652,284.646c-6.125-9.953-12.251-19.907-18.377-29.86
					c-1.925-3.129-7.189-8.676-4.258-12.384c1.558-1.972,4.498-3.283,6.557-4.653c3.127-2.081,8.543-6.913,11.892-3.71
					c4.658,4.456,11.739-2.605,7.071-7.07c-9.175-8.778-19.423-0.907-28.026,4.818c-7.94,5.283-10.902,13.37-5.725,21.783
					c7.411,12.041,14.821,24.082,22.231,36.123C161.39,295.173,170.042,290.153,166.652,284.646L166.652,284.646z"/>
			</g>
		</g>
	</g>
	<g>
		<g>
			<path style="fill:#FFFFFF;" d="M195.125,165.152c6.429,0,13.616,0.867,19.814-1.135c8.591-2.775,13.626-11.268,13.626-19.984
				c0-13.534,0-27.067,0-40.601c0-4.302,0-8.604,0-12.906c0-11.405-9.262-19.818-20.29-20.313c-11.943-0.536-24.031,0-35.986,0
				c-11.315,0-25.128-2.322-33.603,6.903c-7.726,8.411-5.06,24.192-5.06,34.643c0,11.003,0,22.006,0,33.009
				c0,9.693,6.876,17.833,16.211,19.959c5.353,1.219,11.512,0.425,16.954,0.425c6.449,0,6.449-10,0-10
				c-5.691,0-14.383,1.585-19.191-2.131c-4.762-3.681-3.974-9.585-3.974-14.866c0-14.48,0-28.96,0-43.44
				c0-6.673,1.148-12.675,8.87-14.434c3.864-0.88,8.756-0.068,12.663-0.068c13.888,0,27.776,0,41.665,0
				c4.302,0,7.893,1.306,10.336,5.096c1.705,2.644,1.405,5.865,1.405,8.858c0,9.813,0,19.626,0,29.439c0,7.054,0,14.107,0,21.162
				c0,12.654-15.018,10.384-23.44,10.384C188.677,155.152,188.677,165.152,195.125,165.152L195.125,165.152z"/>
		</g>
	</g>
	<g>
		<g>
			<path style="fill:#FFFFFF;" d="M195.523,138.494c5.86-1.915,6.608-6.486,6.608-11.852c0-6.202,0-12.403,0-18.604
				c0-5.211-1.188-9.664-6.871-11.225c-4.23-1.162-9.854-0.167-14.166-0.167c-4.311,0-9.935-0.995-14.166,0.167
				c-5.684,1.561-6.87,6.015-6.87,11.225c0,6.201,0,12.402,0,18.604c0,5.287,0.681,9.709,6.345,11.785
				c1.821,0.667,2.599-2.233,0.798-2.893c-5.221-1.914-4.143-7.778-4.143-12.126c0-4.895,0-9.79,0-14.685
				c0-4.157,0.189-9.077,5.975-9.077c4.02,0,8.04,0,12.06,0c3.91,0,7.82,0,11.73,0c5.873,0,6.307,4.699,6.307,9.077
				c0,4.594,0,9.188,0,13.781c0,4.604,1.263,11.245-4.405,13.098C192.896,136.2,193.68,139.097,195.523,138.494L195.523,138.494z"/>
		</g>
	</g>
</g>
<g id="Ebene_1">
</g>
</svg>
