<?xml version="1.0" encoding="iso-8859-1"?>
<!-- Generator: Adobe Illustrator 16.0.0, SVG Export Plug-In . SVG Version: 6.00 Build 0)  -->
<!DOCTYPE svg PUBLIC "-//W3C//DTD SVG 1.1//EN" "http://www.w3.org/Graphics/SVG/1.1/DTD/svg11.dtd">
<svg version="1.1" xmlns="http://www.w3.org/2000/svg" xmlns:xlink="http://www.w3.org/1999/xlink" x="0px" y="0px" width="361px"
	 height="361px" viewBox="0 0 361 361" style="enable-background:new 0 0 361 361;" xml:space="preserve">
<g id="secur_x5F_locked">
	<path style="fill:none;stroke:#FFFFFF;stroke-width:10;stroke-miterlimit:10;" d="M114.321,182.378c0-3.098,2.69-5.609,6.009-5.609
		h121.828c3.318,0,6.008,2.512,6.008,5.609v98.959c0,3.098-2.689,5.609-6.008,5.609H120.33c-3.318,0-6.009-2.512-6.009-5.609
		V182.378z"/>
	<g>
		<g>
			<path style="fill:#FFFFFF;" d="M115.958,266.805c22.558,0,45.117,0,67.675,0c6.448,0,6.448-10,0-10c-22.558,0-45.117,0-67.675,0
				C109.509,256.805,109.509,266.805,115.958,266.805L115.958,266.805z"/>
		</g>
	</g>
	<g>
		<g>
			<path style="fill:#FFFFFF;" d="M119.13,239.693c21.501,0,43.002,0,64.503,0c6.448,0,6.448-10,0-10c-21.501,0-43.002,0-64.503,0
				C112.681,229.693,112.681,239.693,119.13,239.693L119.13,239.693z"/>
		</g>
	</g>
	<g>
		<g>
			<path style="fill:#FFFFFF;" d="M119.13,212.582c21.501,0,43.002,0,64.503,0c6.448,0,6.448-10,0-10c-21.501,0-43.002,0-64.503,0
				C112.681,202.582,112.681,212.582,119.13,212.582L119.13,212.582z"/>
		</g>
	</g>
	<g style="display:none;">
		<path style="display:inline;fill:none;stroke:#FFFFFF;stroke-width:10;stroke-miterlimit:10;" d="M286.833,164.667
			c0-32.427-22.14-58.667-49.5-58.667"/>
		<path style="display:inline;fill:none;stroke:#FFFFFF;stroke-width:10;stroke-miterlimit:10;" d="M237.333,106
			c-27.36,0-49.5,26.24-49.5,58.667"/>
	</g>
	<g>
		<g>
			<path style="fill:#FFFFFF;" d="M139.873,171.967c0-5.637,0-11.274,0-16.911c0-3.558,0-7.116,0-10.673c0-1.095,0-2.19,0-3.285
				c0-2.169-0.348,0.856-0.006-0.216c-0.526,1.652,1.163-1.928,1.58-2.602c1.036-1.673,2.187-3.274,3.344-4.863
				c2.471-3.395,5.246-6.607,8.157-9.63c0.566-0.587,1.158-1.148,1.754-1.705c1.662-1.551-1.083,0.676,0.409-0.375
				c1.178-0.83-3.44,0.461-2.142,0.461c1.873,0,3.746,0,5.619,0c14.594,0,29.188,0,43.781,0c1.661,0,3.323,0,4.984,0
				c1.392,0-3.292-1.238-1.986-0.436c-1.627-1,0.129,0.149,0.419,0.407c0.834,0.741,1.606,1.552,2.38,2.355
				c2.702,2.805,5.18,5.845,7.499,8.97c1.173,1.58,2.282,3.207,3.344,4.863c0.441,0.688,0.849,1.395,1.251,2.105
				c0.222,0.4,0.432,0.808,0.629,1.221c-0.372-0.964-0.436-1.086-0.191-0.364c-0.523-1.642-0.141-1.409-0.141-0.301
				c0,1.095,0,2.19,0,3.285c0,3.558,0,7.115,0,10.673c0,5.637,0,11.274,0,16.911c0,9.686,15.004,9.772,15.004,0.108
				c0-5.637,0-11.274,0-16.911c0-5.484,0.918-11.836-0.287-17.254c-1.662-7.47-8.481-14.613-13.226-20.249
				c-3.717-4.415-8.481-10.389-14.791-10.389c-13.32,0-26.642,0-39.963,0c-4.792,0-9.585,0-14.377,0
				c-6.781,0-12.089,7.406-15.963,12.093c-3.794,4.59-7.72,9.484-10.375,14.849c-1.695,3.425-1.707,6.491-1.707,10.168
				c0,9.194,0,18.389,0,27.583C124.87,181.545,139.873,181.631,139.873,171.967L139.873,171.967z"/>
		</g>
	</g>
</g>
<g id="Ebene_1">
</g>
</svg>
