<?xml version="1.0" encoding="iso-8859-1"?>
<!-- Generator: Adobe Illustrator 16.0.0, SVG Export Plug-In . SVG Version: 6.00 Build 0)  -->
<!DOCTYPE svg PUBLIC "-//W3C//DTD SVG 1.1 Tiny//EN" "http://www.w3.org/Graphics/SVG/1.1/DTD/svg11-tiny.dtd">
<svg version="1.1" baseProfile="tiny" id="secur_x5F_smoke_x5F_detector"
	 xmlns="http://www.w3.org/2000/svg" xmlns:xlink="http://www.w3.org/1999/xlink" x="0px" y="0px" width="361px" height="361px"
	 viewBox="0 0 361 361" xml:space="preserve">
<path fill="none" stroke="#FFFFFF" stroke-width="10" stroke-miterlimit="10" d="M216.897,93.618c0,1.566-1.271,2.835-2.837,2.835
	h-70.909c-1.567,0-2.836-1.27-2.836-2.835V80.381c0-1.566,1.27-2.836,2.836-2.836h70.909c1.566,0,2.837,1.271,2.837,2.836V93.618z"
	/>
<path fill="none" stroke="#FFFFFF" stroke-width="10" stroke-miterlimit="10" d="M214.815,243.132
	c0,25.633-17.118,46.413-38.233,46.413c-21.117,0-42.558-17.893-41.659-43.511c0.539-15.34,9.655-21.203,16.396-32.395
	c7.01-11.64,11.553-36.532,15.211-38.623c0.926-0.529,9.354,10.757,11.243,24.338c3.266,23.474,16.138-9.127,16.931-8.333
	c2.573,2.573,6.21,6.492,8.201,9.656C210.312,212.449,214.815,227.111,214.815,243.132z"/>
<path fill="none" stroke="#FFFFFF" stroke-width="10" stroke-miterlimit="10" d="M196.226,261.134c0,15.133-10.105,27.4-22.571,27.4
	c-12.466,0-25.124-10.563-24.593-25.687c0.318-9.055,5.7-12.517,9.68-19.124c4.138-6.872,6.82-21.567,8.979-22.801
	c0.547-0.313,5.522,6.351,6.637,14.367c1.929,13.857,9.527-5.388,9.995-4.919c1.519,1.52,3.666,3.832,4.841,5.7
	C193.567,243.021,196.226,251.677,196.226,261.134z"/>
<g>
	<path fill="#FFFFFF" d="M229.674,99.509c-28.236,27.711-73.587,27.711-101.823,0c-4.604-4.518-11.679,2.549-7.071,7.071
		c32.117,31.519,83.849,31.519,115.966,0C241.353,102.058,234.278,94.991,229.674,99.509L229.674,99.509z"/>
</g>
<g>
	<path fill="#FFFFFF" d="M251.279,110.509c-19.601,19.342-45.673,30.18-73.214,30.352c-27.409,0.171-53.795-11.188-73.214-30.352
		c-4.592-4.532-11.667,2.537-7.071,7.071c21.452,21.169,50.141,33.092,80.286,33.281c30,0.188,59.032-12.307,80.286-33.281
		C262.946,113.046,255.872,105.978,251.279,110.509L251.279,110.509z"/>
</g>
</svg>
