<?xml version="1.0" encoding="iso-8859-1"?>
<!-- Generator: Adobe Illustrator 16.0.0, SVG Export Plug-In . SVG Version: 6.00 Build 0)  -->
<!DOCTYPE svg PUBLIC "-//W3C//DTD SVG 1.1 Tiny//EN" "http://www.w3.org/Graphics/SVG/1.1/DTD/svg11-tiny.dtd">
<svg version="1.1" baseProfile="tiny" id="secur_x5F_locked"
	 xmlns="http://www.w3.org/2000/svg" xmlns:xlink="http://www.w3.org/1999/xlink" x="0px" y="0px" width="361px" height="361px"
	 viewBox="0 0 361 361" xml:space="preserve">
<path fill="none" stroke="#FFFFFF" stroke-width="10" stroke-miterlimit="10" d="M111.803,185.256c0-3.098,2.69-5.609,6.009-5.609
	H239.64c3.318,0,6.008,2.512,6.008,5.609v98.959c0,3.098-2.69,5.609-6.008,5.609H117.812c-3.318,0-6.009-2.512-6.009-5.609V185.256z
	"/>
<g>
	<path fill="#FFFFFF" d="M113.44,269.683c22.559,0,45.117,0,67.675,0c6.449,0,6.449-10,0-10c-22.559,0-45.117,0-67.675,0
		C106.991,259.683,106.991,269.683,113.44,269.683L113.44,269.683z"/>
</g>
<g>
	<path fill="#FFFFFF" d="M116.612,242.572c21.501,0,43.002,0,64.503,0c6.449,0,6.449-10,0-10c-21.501,0-43.002,0-64.503,0
		C110.163,232.572,110.163,242.572,116.612,242.572L116.612,242.572z"/>
</g>
<g>
	<path fill="#FFFFFF" d="M116.612,215.46c21.501,0,43.002,0,64.503,0c6.449,0,6.449-10,0-10c-21.501,0-43.002,0-64.503,0
		C110.163,205.46,110.163,215.46,116.612,215.46L116.612,215.46z"/>
</g>
<g display="none">
	<path display="inline" fill="none" stroke="#FFFFFF" stroke-width="10" stroke-miterlimit="10" d="M284.315,167.545
		c0-32.427-22.14-58.667-49.5-58.667"/>
	<path display="inline" fill="none" stroke="#FFFFFF" stroke-width="10" stroke-miterlimit="10" d="M234.815,108.878
		c-27.36,0-49.5,26.24-49.5,58.667"/>
</g>
<g>
	<path fill="#FFFFFF" d="M137.354,174.845c0-5.637,0-11.274,0-16.911c0-3.558,0-7.116,0-10.673c0-1.095,0-2.19,0-3.285
		c0-2.169-0.348,0.856-0.006-0.216c-0.526,1.652,1.163-1.928,1.58-2.602c1.036-1.673,2.187-3.274,3.344-4.863
		c2.471-3.395,5.246-6.607,8.157-9.63c0.566-0.587,1.158-1.148,1.754-1.705c1.662-1.551-1.083,0.676,0.409-0.375
		c1.178-0.83-3.44,0.461-2.142,0.461c1.873,0,3.746,0,5.619,0c14.594,0,29.188,0,43.782,0c1.662,0,3.323,0,4.984,0
		c1.391,0-3.292-1.238-1.986-0.436c-1.627-1,0.128,0.148,0.418,0.407c0.834,0.741,1.607,1.552,2.38,2.355
		c2.701,2.805,5.179,5.845,7.499,8.97c1.173,1.58,2.282,3.207,3.344,4.863c0.441,0.688,0.848,1.395,1.25,2.105
		c0.222,0.4,0.432,0.808,0.629,1.221c-0.372-0.964-0.436-1.086-0.192-0.364c-0.523-1.642-0.14-1.409-0.14-0.301
		c0,1.095,0,2.19,0,3.285c0,3.558,0,7.115,0,10.673c0,5.637,0,11.274,0,16.911c0,9.687,15.003,9.772,15.003,0.108
		c0-5.637,0-11.274,0-16.911c0-5.484,0.918-11.836-0.287-17.254c-1.662-7.47-8.481-14.613-13.226-20.249
		c-3.716-4.415-8.481-10.389-14.79-10.389c-13.321,0-26.643,0-39.964,0c-4.792,0-9.585,0-14.377,0
		c-6.781,0-12.089,7.406-15.963,12.093c-3.794,4.59-7.72,9.484-10.375,14.849c-1.695,3.425-1.707,6.491-1.707,10.168
		c0,9.194,0,18.389,0,27.583C122.352,184.423,137.354,184.509,137.354,174.845L137.354,174.845z"/>
</g>
</svg>
