<?xml version="1.0" encoding="iso-8859-1"?>
<!-- Generator: Adobe Illustrator 16.0.0, SVG Export Plug-In . SVG Version: 6.00 Build 0)  -->
<!DOCTYPE svg PUBLIC "-//W3C//DTD SVG 1.1 Tiny//EN" "http://www.w3.org/Graphics/SVG/1.1/DTD/svg11-tiny.dtd">
<svg version="1.1" baseProfile="tiny" id="status_x5F_frost"
	 xmlns="http://www.w3.org/2000/svg" xmlns:xlink="http://www.w3.org/1999/xlink" x="0px" y="0px" width="361px" height="361px"
	 viewBox="0 0 361 361" xml:space="preserve">
<g>
	<g>
		<g>
			<polygon fill="#FFFFFF" points="178.226,158.461 177.982,77.461 284.783,158.461 			"/>
			<g>
				<path fill="#FFFFFF" d="M183.226,158.461c-0.082-27-0.163-54-0.244-81c-2.508,1.439-5.016,2.878-7.523,4.317
					c35.59,26.992,71.18,53.984,106.77,80.976c0.01,0.008,0.021,0.016,0.031,0.024c0.841-3.106,1.682-6.211,2.523-9.317
					c-35.519,0-71.038,0-106.557,0c-6.449,0-6.449,10,0,10c35.519,0,71.038,0,106.557,0c5.402,0,6.252-6.489,2.523-9.317
					c-35.59-26.992-71.18-53.984-106.77-80.976c-0.01-0.008-0.021-0.016-0.031-0.024c-3.125-2.371-7.534,0.868-7.523,4.317
					c0.082,27,0.163,54,0.244,81C173.246,164.909,183.246,164.911,183.226,158.461z"/>
			</g>
		</g>
		<g>
			<polygon fill="#FFFFFF" points="177.738,158.461 177.982,77.462 71.181,158.461 			"/>
			<g>
				<path fill="#FFFFFF" d="M182.738,158.461c0.082-27,0.163-54,0.244-81c0.01-3.45-4.398-6.688-7.523-4.317
					c-35.59,26.992-71.18,53.984-106.77,80.976c-0.011,0.008-0.021,0.016-0.031,0.023c-3.729,2.828-2.879,9.317,2.523,9.317
					c35.519,0,71.038,0,106.557,0c6.449,0,6.449-10,0-10c-35.519,0-71.038,0-106.557,0c0.841,3.106,1.683,6.211,2.523,9.317
					c35.59-26.992,71.18-53.984,106.77-80.976c0.011-0.008,0.021-0.016,0.031-0.023c-2.508-1.439-5.016-2.878-7.523-4.317
					c-0.082,27-0.163,54-0.244,81C172.718,164.911,182.718,164.909,182.738,158.461z"/>
			</g>
		</g>
	</g>
	<path fill="none" stroke="#FFFFFF" stroke-width="10" stroke-miterlimit="10" d="M265.982,281.866c0,3.919-3.927,7.095-8.771,7.095
		H99.419c-4.844,0-8.771-3.176-8.771-7.095V152.485c0-3.918,175.333-3.918,175.333,0V281.866z"/>
</g>
<g>
	<g>
		<path fill="#FFFFFF" d="M203.718,226.008c0,6.322,0,12.645,0,18.967c0,4.514,7,4.514,7,0c0-6.322,0-12.645,0-18.967
			C210.718,221.494,203.718,221.494,203.718,226.008L203.718,226.008z"/>
	</g>
	<g>
		<path fill="#FFFFFF" d="M199.932,230.938c1.843,1.064,3.687,2.129,5.529,3.193c1.653,0.955,3.822,0.396,4.789-1.255
			c0.96-1.639,0.394-3.836-1.255-4.789c-1.843-1.064-3.687-2.129-5.529-3.193c-1.653-0.955-3.822-0.396-4.789,1.255
			C197.716,227.789,198.283,229.986,199.932,230.938L199.932,230.938z"/>
	</g>
	<g>
		<path fill="#FFFFFF" d="M210.908,224.895c-1.843,1.064-3.686,2.128-5.529,3.193c-1.649,0.952-2.216,3.149-1.255,4.789
			c0.967,1.651,3.136,2.21,4.789,1.255c1.843-1.064,3.686-2.128,5.529-3.193c1.649-0.952,2.216-3.149,1.255-4.789
			C214.729,224.499,212.561,223.94,210.908,224.895L210.908,224.895z"/>
	</g>
</g>
<g>
	<g>
		<path fill="#FFFFFF" d="M188.959,238.295c5.476,3.162,10.951,6.323,16.427,9.484c3.917,2.261,7.44-3.789,3.533-6.044
			c-5.476-3.162-10.951-6.323-16.427-9.484C188.576,229.99,185.052,236.04,188.959,238.295L188.959,238.295z"/>
	</g>
	<g>
		<path fill="#FFFFFF" d="M191.386,244.03c1.843-1.064,3.687-2.128,5.53-3.193c1.649-0.952,2.216-3.149,1.255-4.789
			c-0.967-1.651-3.136-2.21-4.789-1.255c-1.843,1.064-3.687,2.128-5.53,3.193c-1.649,0.952-2.216,3.149-1.255,4.789
			C187.565,244.425,189.733,244.984,191.386,244.03L191.386,244.03z"/>
	</g>
	<g>
		<path fill="#FFFFFF" d="M191.608,231.502c0,2.128,0,4.257,0,6.385c0,4.514,7,4.514,7,0c0-2.128,0-4.257,0-6.385
			C198.608,226.988,191.608,226.988,191.608,231.502L191.608,231.502z"/>
	</g>
</g>
<g>
	<g>
		<path fill="#FFFFFF" d="M192.534,257.25c5.476-3.161,10.951-6.323,16.427-9.484c3.907-2.255,0.383-8.305-3.533-6.044
			c-5.476,3.161-10.951,6.323-16.427,9.484C185.094,253.461,188.618,259.511,192.534,257.25L192.534,257.25z"/>
	</g>
	<g>
		<path fill="#FFFFFF" d="M198.681,258.052c0-2.128,0-4.256,0-6.384c0-4.514-7-4.514-7,0c0,2.128,0,4.256,0,6.384
			C191.681,262.566,198.681,262.566,198.681,258.052L198.681,258.052z"/>
	</g>
	<g>
		<path fill="#FFFFFF" d="M187.926,251.569c1.843,1.064,3.687,2.129,5.53,3.193c1.653,0.955,3.822,0.396,4.789-1.255
			c0.96-1.639,0.394-3.836-1.255-4.789c-1.843-1.064-3.687-2.129-5.53-3.193c-1.653-0.955-3.822-0.396-4.789,1.255
			C185.71,248.419,186.276,250.617,187.926,251.569L187.926,251.569z"/>
	</g>
</g>
<g>
	<g>
		<path fill="#FFFFFF" d="M210.697,263.78c0-6.322,0-12.645,0-18.967c0-4.514-7-4.514-7,0c0,6.322,0,12.645,0,18.967
			C203.697,268.294,210.697,268.294,210.697,263.78L210.697,263.78z"/>
	</g>
	<g>
		<path fill="#FFFFFF" d="M214.483,258.849c-1.843-1.064-3.687-2.129-5.53-3.193c-1.653-0.955-3.822-0.396-4.789,1.255
			c-0.96,1.639-0.394,3.836,1.255,4.789c1.843,1.064,3.687,2.129,5.53,3.193c1.653,0.955,3.821,0.396,4.789-1.255
			C216.699,261.998,216.132,259.801,214.483,258.849L214.483,258.849z"/>
	</g>
	<g>
		<path fill="#FFFFFF" d="M203.507,264.893c1.843-1.064,3.687-2.128,5.53-3.193c1.649-0.952,2.216-3.149,1.255-4.789
			c-0.967-1.651-3.136-2.21-4.789-1.255c-1.843,1.064-3.687,2.128-5.53,3.193c-1.649,0.952-2.216,3.149-1.255,4.789
			C199.685,265.288,201.854,265.847,203.507,264.893L203.507,264.893z"/>
	</g>
</g>
<g>
	<g>
		<path fill="#FFFFFF" d="M225.456,251.348c-5.476-3.162-10.951-6.323-16.427-9.484c-3.917-2.261-7.44,3.789-3.533,6.044
			c5.476,3.162,10.951,6.323,16.427,9.484C225.839,259.653,229.362,253.604,225.456,251.348L225.456,251.348z"/>
	</g>
	<g>
		<path fill="#FFFFFF" d="M223.028,245.613c-1.843,1.064-3.686,2.128-5.529,3.193c-1.649,0.952-2.216,3.149-1.255,4.789
			c0.967,1.651,3.136,2.21,4.789,1.255c1.843-1.064,3.686-2.128,5.529-3.193c1.649-0.952,2.216-3.149,1.255-4.789
			C226.85,245.218,224.681,244.659,223.028,245.613L223.028,245.613z"/>
	</g>
	<g>
		<path fill="#FFFFFF" d="M222.807,258.141c0-2.128,0-4.256,0-6.385c0-4.514-7-4.514-7,0c0,2.128,0,4.256,0,6.385
			C215.807,262.655,222.807,262.655,222.807,258.141L222.807,258.141z"/>
	</g>
</g>
<g>
	<g>
		<path fill="#FFFFFF" d="M221.88,232.394c-5.476,3.161-10.951,6.322-16.426,9.483c-3.907,2.255-0.383,8.305,3.533,6.044
			c5.475-3.161,10.951-6.322,16.426-9.483C229.32,236.183,225.797,230.133,221.88,232.394L221.88,232.394z"/>
	</g>
	<g>
		<path fill="#FFFFFF" d="M215.734,231.59c0,2.128,0,4.257,0,6.385c0,4.514,7,4.514,7,0c0-2.128,0-4.257,0-6.385
			C222.734,227.076,215.734,227.076,215.734,231.59L215.734,231.59z"/>
	</g>
	<g>
		<path fill="#FFFFFF" d="M226.489,238.074c-1.843-1.064-3.687-2.129-5.53-3.193c-1.653-0.955-3.822-0.396-4.789,1.255
			c-0.96,1.639-0.394,3.836,1.255,4.789c1.843,1.064,3.687,2.129,5.53,3.193c1.653,0.955,3.821,0.396,4.789-1.255
			C228.705,241.223,228.138,239.026,226.489,238.074L226.489,238.074z"/>
	</g>
</g>
<g>
	<path fill="#FFFFFF" d="M155.259,246.025c0.075-0.256,1.1-0.124-0.284-0.124c-0.803,0-1.606,0-2.409,0c-1.762,0-3.523,0-5.284,0
		c-1.614,0-0.159,1.17-0.159,0.75c0-0.63,0-1.261,0-1.891c0-5.728,0-11.455,0-17.183c0-14.65,0-29.3,0-43.95
		c0-1.392,0-2.785,0-4.177c0-0.42-1.455,0.75,0.159,0.75c2.062,0,4.123,0,6.185,0c0.682,0,1.364,0,2.046,0
		c0.998,0-0.379-0.708-0.379-0.978c0,0.37,0,0.739,0,1.109c0,2.084,0,4.169,0,6.253c0,15.129,0,30.258,0,45.387
		c0,4.995,0,9.989,0,14.983c0,4.514,7,4.514,7,0c0-22.578,0-45.155,0-67.733c0-7.834-10.75-6.022-15.739-6.022
		c-6.065,0-6.272,5.512-6.272,9.914c0,14.516,0,29.031,0,43.547c0,6.708,0,13.415,0,20.123c0,5.095,4.619,6.118,8.667,6.118
		c5.119,0,11.413,1.15,13.219-5.015C163.281,243.543,156.525,241.703,155.259,246.025z"/>
</g>
<g>
	<path fill="#FFFFFF" d="M162.608,267.356c0,1.463-0.93,2.649-2.077,2.649h-18.805c-1.147,0-2.077-1.186-2.077-2.649V252.05
		c0-1.462,0.93-2.649,2.077-2.649h18.805c1.147,0,2.077,1.187,2.077,2.649V267.356z"/>
	<g>
		<path fill="#FFFFFF" d="M159.233,266.426c-0.001,0.009,2.154,0.08-0.542,0.08c-1.769,0-3.538,0-5.307,0c-3.6,0-7.2,0-10.799,0
			c-1.646,0,0.565,1.589,0.565-0.125c0-1.642,0-3.284,0-4.925c0-3.113,0-6.226,0-9.339c0,0.853-2.185,0.785-0.929,0.785
			c0.65,0,1.3,0,1.949,0c1.866,0,3.732,0,5.599,0c3.423,0,6.846,0,10.269,0c1.256,0-0.929,0.068-0.929-0.785
			c0,0.471,0,0.943,0,1.414c0,1.764,0,3.527,0,5.292c0,2.845,0,5.689,0,8.534c0,4.514,7,4.514,7,0c0-4.192,0-8.383,0-12.575
			c0-3.957-0.667-8.88-5.801-8.88c-4.658,0-9.315,0-13.973,0c-4.322,0-9.183-0.322-10.06,5.218
			c-0.651,4.115-0.125,8.627-0.125,12.781c0,3.96,0.211,9.604,5.634,9.604c4.441,0,8.883,0,13.325,0
			c4.492,0,9.946,0.646,10.875-5.218C166.682,263.873,159.937,261.977,159.233,266.426z"/>
	</g>
</g>
<g>
	<path fill="#FFFFFF" d="M167.374,185.498c2.649,0,5.298,0,7.947,0c4.514,0,4.514-7,0-7c-2.649,0-5.298,0-7.947,0
		C162.86,178.498,162.86,185.498,167.374,185.498L167.374,185.498z"/>
</g>
<g>
	<path fill="#FFFFFF" d="M167.374,203.159c2.649,0,5.298,0,7.947,0c4.514,0,4.514-7,0-7c-2.649,0-5.298,0-7.947,0
		C162.86,196.159,162.86,203.159,167.374,203.159L167.374,203.159z"/>
</g>
<g>
	<path fill="#FFFFFF" d="M167.374,221.26c2.649,0,5.298,0,7.947,0c4.514,0,4.514-7,0-7c-2.649,0-5.298,0-7.947,0
		C162.86,214.26,162.86,221.26,167.374,221.26L167.374,221.26z"/>
</g>
<g>
	<path fill="#FFFFFF" d="M167.374,240.245c2.649,0,5.298,0,7.947,0c4.514,0,4.514-7,0-7c-2.649,0-5.298,0-7.947,0
		C162.86,233.245,162.86,240.245,167.374,240.245L167.374,240.245z"/>
</g>
<g>
	<rect x="143.623" y="238.18" fill="#FFFFFF" width="15.012" height="18.138"/>
	<g>
		<path fill="#FFFFFF" d="M158.634,234.68c-5.004,0-10.008,0-15.012,0c-1.908,0-3.5,1.592-3.5,3.5c0,6.046,0,12.092,0,18.138
			c0,1.908,1.592,3.5,3.5,3.5c5.004,0,10.008,0,15.012,0c1.908,0,3.5-1.592,3.5-3.5c0-6.046,0-12.092,0-18.138c0-4.514-7-4.514-7,0
			c0,6.046,0,12.092,0,18.138c1.167-1.167,2.333-2.333,3.5-3.5c-5.004,0-10.008,0-15.012,0c1.167,1.167,2.333,2.333,3.5,3.5
			c0-6.046,0-12.092,0-18.138c-1.167,1.167-2.333,2.333-3.5,3.5c5.004,0,10.008,0,15.012,0
			C163.148,241.68,163.148,234.68,158.634,234.68z"/>
	</g>
</g>
</svg>
