<?xml version="1.0" encoding="iso-8859-1"?>
<!-- Generator: Adobe Illustrator 16.0.3, SVG Export Plug-In . SVG Version: 6.00 Build 0)  -->
<!DOCTYPE svg PUBLIC "-//W3C//DTD SVG 1.1//EN" "http://www.w3.org/Graphics/SVG/1.1/DTD/svg11.dtd">
<svg version="1.1" xmlns="http://www.w3.org/2000/svg" xmlns:xlink="http://www.w3.org/1999/xlink" x="0px" y="0px" width="361px"
	 height="361px" viewBox="0 0 361 361" style="enable-background:new 0 0 361 361;" xml:space="preserve">
<g id="status_x5F_light_x5F_high">
	<path style="fill:#FFFFFF;stroke:#FFFFFF;stroke-width:10;stroke-miterlimit:10;" d="M210.541,191.987
		c0,9.992-8.027,18.093-17.928,18.093h-23.905c-9.901,0-17.928-8.101-17.928-18.093v-23.575c0-9.992,8.027-18.093,17.928-18.093
		h23.905c9.9,0,17.928,8.101,17.928,18.093V191.987z"/>
	<path style="fill:none;stroke:#FFFFFF;stroke-width:10;stroke-miterlimit:10;" d="M210.541,191.987
		c0,9.992-8.027,18.093-17.928,18.093h-23.905c-9.901,0-17.928-8.101-17.928-18.093v-23.575c0-9.992,8.027-18.093,17.928-18.093
		h23.905c9.9,0,17.928,8.101,17.928,18.093V191.987z"/>
	<g>
		<g>
			<g>
				<path style="fill:#FFFFFF;" d="M109.321,185.607c7.71,0,15.42,0,23.13,0c6.449,0,6.449-10,0-10c-7.71,0-15.42,0-23.13,0
					C102.872,175.607,102.872,185.607,109.321,185.607L109.321,185.607z"/>
			</g>
		</g>
		<g>
			<g>
				<path style="fill:#FFFFFF;" d="M125.173,131.965c5.452,5.452,10.904,10.903,16.355,16.355c4.564,4.563,11.635-2.507,7.071-7.071
					c-5.452-5.452-10.904-10.903-16.355-16.355C127.68,120.33,120.609,127.401,125.173,131.965L125.173,131.965z"/>
			</g>
		</g>
		<g>
			<g>
				<path style="fill:#FFFFFF;" d="M185.887,132.172c0-7.71,0-15.42,0-23.13c0-6.449-10-6.449-10,0c0,7.71,0,15.42,0,23.13
					C175.886,138.621,185.887,138.621,185.887,132.172L185.887,132.172z"/>
			</g>
		</g>
		<g>
			<g>
				<path style="fill:#FFFFFF;" d="M229.563,124.894c-5.452,5.452-10.904,10.904-16.355,16.355
					c-4.564,4.564,2.507,11.635,7.07,7.071c5.452-5.452,10.904-10.904,16.355-16.355
					C241.198,127.401,234.127,120.33,229.563,124.894L229.563,124.894z"/>
			</g>
		</g>
		<g>
			<g>
				<path style="fill:#FFFFFF;" d="M229.355,185.607c7.71,0,15.421,0,23.131,0c6.448,0,6.448-10,0-10c-7.71,0-15.421,0-23.131,0
					C222.907,175.607,222.907,185.607,229.355,185.607L229.355,185.607z"/>
			</g>
		</g>
		<g>
			<g>
				<path style="fill:#FFFFFF;" d="M236.634,229.584c-5.451-5.452-10.903-10.904-16.355-16.355c-4.563-4.564-11.635,2.507-7.07,7.07
					c5.451,5.452,10.903,10.904,16.355,16.355C234.127,241.219,241.198,234.147,236.634,229.584L236.634,229.584z"/>
			</g>
		</g>
		<g>
			<g>
				<path style="fill:#FFFFFF;" d="M175.921,229.377c0,7.71,0,15.42,0,23.13c0,6.448,10,6.448,10,0c0-7.71,0-15.42,0-23.13
					C185.921,222.929,175.921,222.929,175.921,229.377L175.921,229.377z"/>
			</g>
		</g>
		<g>
			<g>
				<path style="fill:#FFFFFF;" d="M132.111,236.889c5.452-5.451,10.903-10.903,16.355-16.355c4.563-4.563-2.507-11.635-7.071-7.07
					c-5.452,5.451-10.903,10.903-16.355,16.355C120.476,234.382,127.547,241.453,132.111,236.889L132.111,236.889z"/>
			</g>
		</g>
	</g>
</g>
<g id="Ebene_1">
</g>
</svg>
