<?xml version="1.0" encoding="iso-8859-1"?>
<!-- Generator: Adobe Illustrator 16.0.0, SVG Export Plug-In . SVG Version: 6.00 Build 0)  -->
<!DOCTYPE svg PUBLIC "-//W3C//DTD SVG 1.1 Tiny//EN" "http://www.w3.org/Graphics/SVG/1.1/DTD/svg11-tiny.dtd">
<svg version="1.1" baseProfile="tiny" id="status_x5F_away_x5F_1"
	 xmlns="http://www.w3.org/2000/svg" xmlns:xlink="http://www.w3.org/1999/xlink" x="0px" y="0px" width="361px" height="361px"
	 viewBox="0 0 361 361" xml:space="preserve">
<g id="Person_x5F_orig_1_" display="none">
	<circle display="inline" fill="#FFFFFF" stroke="#FFFFFF" cx="311.467" cy="136.836" r="21.125"/>
	<g display="inline">
		<path fill="#FFFFFF" d="M289.063,256.714c0,29.011,0,58.021,0,87.033c0,11.623,18.004,11.726,18.004,0.129
			c0-29.011,0-58.021,0-87.032C307.067,245.22,289.063,245.118,289.063,256.714L289.063,256.714z"/>
	</g>
	<g display="inline">
		<path fill="#FFFFFF" d="M316.063,256.714c0,29.011,0,58.021,0,87.033c0,11.623,18.004,11.726,18.004,0.129
			c0-29.011,0-58.021,0-87.032C334.067,245.22,316.063,245.118,316.063,256.714L316.063,256.714z"/>
	</g>
	<path display="inline" fill="#FFFFFF" d="M334.152,258.369c0,5.783-4.688,10.47-10.47,10.47h-24.429
		c-5.782,0-10.47-4.687-10.47-10.47v-84.06c0-5.783,4.688-10.47,10.47-10.47h24.429c5.783,0,10.47,4.687,10.47,10.47V258.369z"/>
	<g display="inline">
		<g>
			<path fill="#FFFFFF" d="M336.569,175.339c0,12.291,0,24.582,0,36.873c0,8.383,13,8.383,13,0c0-12.291,0-24.582,0-36.873
				C349.569,166.956,336.569,166.956,336.569,175.339L336.569,175.339z"/>
		</g>
		<g>
			<path fill="#FFFFFF" d="M336.569,212.211c0,12.291,0,24.582,0,36.873c0,8.383,13,8.383,13,0c0-12.291,0-24.582,0-36.873
				C349.569,203.828,336.569,203.828,336.569,212.211L336.569,212.211z"/>
		</g>
		<g>
			<path fill="#FFFFFF" d="M273.366,175.338c0,12.291,0,24.582,0,36.873c0,8.383,13,8.383,13,0c0-12.291,0-24.582,0-36.873
				C286.366,166.955,273.366,166.955,273.366,175.338L273.366,175.338z"/>
		</g>
		<g>
			<path fill="#FFFFFF" d="M273.366,212.211c0,12.291,0,24.583,0,36.874c0,8.383,13,8.383,13,0c0-12.291,0-24.583,0-36.874
				C286.366,203.828,273.366,203.828,273.366,212.211L273.366,212.211z"/>
		</g>
	</g>
</g>
<g id="Person_2_" display="none">
	<g display="inline">
		<circle fill="#FFFFFF" cx="218.464" cy="197.454" r="9.529"/>
		<path fill="#FFFFFF" d="M218.464,207.208c-5.379,0-9.755-4.376-9.755-9.755s4.376-9.755,9.755-9.755
			c5.378,0,9.754,4.376,9.754,9.755S223.843,207.208,218.464,207.208z M218.464,188.15c-5.13,0-9.304,4.174-9.304,9.304
			c0,5.129,4.173,9.304,9.304,9.304c5.13,0,9.303-4.174,9.303-9.304C227.767,192.324,223.594,188.15,218.464,188.15z"/>
	</g>
	<path display="inline" fill="#FFFFFF" d="M208.357,251.529c0,13.085,0,26.172,0,39.259c0,5.244,8.122,5.289,8.122,0.058
		c0-13.087,0-26.172,0-39.259C216.479,246.343,208.357,246.297,208.357,251.529L208.357,251.529z"/>
	<path display="inline" fill="#FFFFFF" d="M220.537,251.529c0,13.085,0,26.172,0,39.259c0,5.244,8.122,5.289,8.122,0.058
		c0-13.087,0-26.172,0-39.259C228.659,246.343,220.537,246.297,220.537,251.529L220.537,251.529z"/>
	<path display="inline" fill="#FFFFFF" d="M228.697,252.275c0,2.609-2.115,4.723-4.723,4.723h-11.02
		c-2.608,0-4.723-2.114-4.723-4.723v-37.918c0-2.608,2.114-4.723,4.723-4.723h11.02c2.608,0,4.723,2.114,4.723,4.723V252.275z"/>
	<g display="inline">
		<path fill="#FFFFFF" d="M229.787,214.822c0,5.544,0,11.088,0,16.632c0,3.782,5.864,3.782,5.864,0c0-5.544,0-11.088,0-16.632
			C235.651,211.04,229.787,211.04,229.787,214.822L229.787,214.822z"/>
		<path fill="#FFFFFF" d="M229.787,231.454c0,5.544,0,11.089,0,16.633c0,3.781,5.864,3.781,5.864,0c0-5.544,0-11.088,0-16.633
			C235.651,227.673,229.787,227.673,229.787,231.454L229.787,231.454z"/>
		<path fill="#FFFFFF" d="M201.277,214.821c0,5.544,0,11.088,0,16.632c0,3.782,5.864,3.782,5.864,0c0-5.544,0-11.088,0-16.632
			C207.141,211.04,201.277,211.04,201.277,214.821L201.277,214.821z"/>
		<path fill="#FFFFFF" d="M201.277,231.454c0,5.545,0,11.089,0,16.633c0,3.781,5.864,3.781,5.864,0c0-5.544,0-11.088,0-16.633
			C207.141,227.672,201.277,227.672,201.277,231.454L201.277,231.454z"/>
	</g>
</g>
<g id="Haus_28_">
	<g>
		<polygon fill="#FFFFFF" points="73.159,159.461 72.915,78.461 179.716,159.461 		"/>
		<g>
			<path fill="#FFFFFF" d="M78.159,159.461c-0.082-27-0.163-54-0.245-81c-2.508,1.439-5.016,2.878-7.523,4.317
				c35.59,26.992,71.18,53.984,106.77,80.976c0.01,0.008,0.021,0.016,0.031,0.024c0.841-3.106,1.682-6.211,2.523-9.317
				c-35.519,0-71.038,0-106.557,0c-6.449,0-6.449,10,0,10c35.519,0,71.038,0,106.557,0c5.402,0,6.252-6.489,2.523-9.317
				c-35.59-26.992-71.18-53.984-106.77-80.976c-0.01-0.008-0.021-0.016-0.031-0.024c-3.125-2.371-7.534,0.868-7.523,4.317
				c0.082,27,0.163,54,0.245,81C68.179,165.909,78.179,165.911,78.159,159.461z"/>
		</g>
	</g>
	<path fill="none" stroke="#FFFFFF" stroke-width="10" stroke-miterlimit="10" d="M160.915,284.794
		c0,3.222-4.727,5.834-10.558,5.834H83.473c-5.832,0-10.558-2.612-10.558-5.834v-122.5c0-3.222,4.727-5.833,10.558-5.833h66.884
		c5.832,0,10.558,2.612,10.558,5.833V284.794z"/>
	<path fill="none" stroke="#FFFFFF" stroke-width="10" stroke-miterlimit="10" d="M125.915,284.283c0,3.136-2.687,5.679-6,5.679
		h-23.5c-3.313,0-6-2.543-6-5.679V216.14c0-3.136,2.687-5.679,6-5.679h23.5c3.313,0,6,2.542,6,5.679V284.283z"/>
</g>
<g>
	<g>
		<circle fill="#FFFFFF" cx="229.464" cy="198.454" r="9.529"/>
		<path fill="#FFFFFF" d="M229.464,208.208c-5.379,0-9.755-4.376-9.755-9.755s4.376-9.755,9.755-9.755
			c5.378,0,9.754,4.376,9.754,9.755S234.843,208.208,229.464,208.208z M229.464,189.15c-5.13,0-9.304,4.174-9.304,9.304
			c0,5.129,4.173,9.304,9.304,9.304c5.13,0,9.303-4.174,9.303-9.304C238.767,193.324,234.594,189.15,229.464,189.15z"/>
	</g>
	<path fill="#FFFFFF" d="M228.507,252.928c1.528,12.996,2.939,25.001,4.467,37.997c0.611,5.208,8.684,4.305,8.073-0.89
		c-1.528-12.998-2.939-25-4.467-37.998C235.968,246.83,227.896,247.732,228.507,252.928L228.507,252.928z"/>
	<path fill="#FFFFFF" d="M236.707,252.909c0,2.609-2.115,4.723-4.723,4.723h-7.02c-2.608,0-4.723-2.113-4.723-4.723l0-37.918
		c0-2.608,2.114-4.723,4.723-4.723h7.021c2.608,0,4.723,2.114,4.723,4.723L236.707,252.909z"/>
	<path fill="#FFFFFF" d="M229.979,213.547c0.194,5.541,0.387,11.081,0.581,16.623c0.132,3.779,5.993,3.575,5.861-0.205
		c-0.193-5.542-0.387-11.082-0.581-16.623C235.708,209.563,229.847,209.768,229.979,213.547L229.979,213.547z"/>
	<path fill="#FFFFFF" d="M230.694,231.601c2.216,5.082,4.433,10.164,6.648,15.247c1.512,3.464,6.888,1.122,5.375-2.345
		c-2.215-5.082-4.431-10.164-6.648-15.246C234.559,225.791,229.183,228.135,230.694,231.601L230.694,231.601z"/>
	<path fill="#FFFFFF" d="M221.25,212.774c-2.772,4.801-5.544,9.602-8.316,14.404c-1.891,3.275,3.188,6.207,5.079,2.932
		c2.772-4.802,5.544-9.603,8.316-14.404C228.219,212.431,223.141,209.499,221.25,212.774L221.25,212.774z"/>
	<path fill="#FFFFFF" d="M213.597,230.998c4.31,3.488,8.62,6.976,12.93,10.463c2.94,2.378,6.628-2.181,3.689-4.559
		c-4.31-3.487-8.621-6.975-12.931-10.463C214.346,224.06,210.657,228.619,213.597,230.998L213.597,230.998z"/>
	<path fill="#FFFFFF" d="M220.044,251.304c-0.456,13.078-0.215,6.169-0.672,19.247c-0.183,5.241,7.933,5.569,8.115,0.342
		c0.457-13.079,0.215-6.169,0.672-19.247C228.342,246.405,220.227,246.075,220.044,251.304L220.044,251.304z"/>
	<path fill="#FFFFFF" d="M219.545,269.854c-3.624,12.573-1.71,5.931-5.335,18.504c-1.453,5.039,6.339,7.333,7.788,2.307
		c3.626-12.575,1.71-5.931,5.335-18.505C228.786,267.122,220.994,264.827,219.545,269.854L219.545,269.854z"/>
</g>
</svg>
