<?xml version="1.0" encoding="iso-8859-1"?>
<!-- Generator: Adobe Illustrator 16.0.0, SVG Export Plug-In . SVG Version: 6.00 Build 0)  -->
<!DOCTYPE svg PUBLIC "-//W3C//DTD SVG 1.1//EN" "http://www.w3.org/Graphics/SVG/1.1/DTD/svg11.dtd">
<svg version="1.1" xmlns="http://www.w3.org/2000/svg" xmlns:xlink="http://www.w3.org/1999/xlink" x="0px" y="0px" width="361px"
	 height="361px" viewBox="0 0 361 361" style="enable-background:new 0 0 361 361;" xml:space="preserve">
<g id="status_x5F_available">
	<g>
		<g>
			<g>
				<polygon style="fill:#FFFFFF;" points="180.744,155.583 180.5,74.583 287.301,155.583 				"/>
				<g>
					<path style="fill:#FFFFFF;" d="M185.744,155.583c-0.081-27-0.163-54-0.244-81c-2.508,1.439-5.016,2.878-7.523,4.317
						c35.59,26.992,71.18,53.984,106.77,80.976c0.011,0.008,0.021,0.016,0.031,0.024c0.841-3.106,1.683-6.211,2.523-9.317
						c-35.519,0-71.038,0-106.557,0c-6.449,0-6.449,10,0,10c35.519,0,71.038,0,106.557,0c5.402,0,6.252-6.489,2.523-9.317
						c-35.59-26.992-71.18-53.984-106.77-80.976c-0.011-0.008-0.021-0.016-0.031-0.024c-3.125-2.371-7.534,0.868-7.523,4.317
						c0.082,27,0.163,54,0.244,81C175.764,162.031,185.764,162.033,185.744,155.583z"/>
				</g>
			</g>
			<g>
				<polygon style="fill:#FFFFFF;" points="180.256,155.583 180.5,74.584 73.699,155.583 				"/>
				<g>
					<path style="fill:#FFFFFF;" d="M185.256,155.583c0.081-27,0.163-54,0.244-81c0.011-3.45-4.397-6.688-7.523-4.317
						c-35.59,26.992-71.18,53.984-106.77,80.976c-0.011,0.008-0.021,0.016-0.031,0.023c-3.729,2.828-2.879,9.317,2.523,9.317
						c35.519,0,71.038,0,106.557,0c6.448,0,6.448-10,0-10c-35.519,0-71.038,0-106.557,0c0.841,3.106,1.683,6.211,2.523,9.317
						c35.59-26.992,71.18-53.984,106.77-80.976c0.011-0.008,0.021-0.016,0.031-0.023c-2.508-1.439-5.016-2.878-7.523-4.317
						c-0.082,27-0.163,54-0.244,81C175.236,162.033,185.236,162.031,185.256,155.583z"/>
				</g>
			</g>
		</g>
		<path style="fill:none;stroke:#FFFFFF;stroke-width:10;stroke-miterlimit:10;" d="M268.5,278.988c0,3.919-3.927,7.096-8.771,7.096
			H101.938c-4.844,0-8.771-3.177-8.771-7.096V149.607c0-3.918,175.333-3.918,175.333,0V278.988z"/>
	</g>
	<g id="Person_x5F_orig" style="display:none;">
		<circle style="display:inline;fill:#FFFFFF;stroke:#FFFFFF;" cx="313.985" cy="133.958" r="21.125"/>
		<g style="display:inline;">
			<g>
				<path style="fill:#FFFFFF;" d="M291.581,253.836c0,29.011,0,58.021,0,87.033c0,11.623,18.004,11.726,18.004,0.129
					c0-29.011,0-58.021,0-87.033C309.585,242.342,291.581,242.239,291.581,253.836L291.581,253.836z"/>
			</g>
		</g>
		<g style="display:inline;">
			<g>
				<path style="fill:#FFFFFF;" d="M318.581,253.836c0,29.011,0,58.021,0,87.033c0,11.623,18.004,11.726,18.004,0.129
					c0-29.011,0-58.021,0-87.033C336.585,242.342,318.581,242.239,318.581,253.836L318.581,253.836z"/>
			</g>
		</g>
		<path style="display:inline;fill:#FFFFFF;" d="M336.67,255.49c0,5.783-4.688,10.471-10.471,10.471h-24.429
			c-5.782,0-10.47-4.688-10.47-10.471v-84.06c0-5.783,4.688-10.47,10.47-10.47h24.429c5.783,0,10.471,4.687,10.471,10.47V255.49z"/>
		<g style="display:inline;">
			<g>
				<g>
					<path style="fill:#FFFFFF;" d="M339.087,172.461c0,12.291,0,24.582,0,36.873c0,8.383,13,8.383,13,0c0-12.291,0-24.582,0-36.873
						C352.087,164.078,339.087,164.078,339.087,172.461L339.087,172.461z"/>
				</g>
			</g>
			<g>
				<g>
					<path style="fill:#FFFFFF;" d="M339.087,209.334c0,12.291,0,24.582,0,36.873c0,8.383,13,8.383,13,0c0-12.291,0-24.582,0-36.873
						C352.087,200.951,339.087,200.951,339.087,209.334L339.087,209.334z"/>
				</g>
			</g>
			<g>
				<g>
					<path style="fill:#FFFFFF;" d="M275.884,172.46c0,12.291,0,24.582,0,36.873c0,8.383,13,8.383,13,0c0-12.291,0-24.582,0-36.873
						C288.884,164.077,275.884,164.077,275.884,172.46L275.884,172.46z"/>
				</g>
			</g>
			<g>
				<g>
					<path style="fill:#FFFFFF;" d="M275.884,209.333c0,12.291,0,24.583,0,36.874c0,8.383,13,8.383,13,0c0-12.291,0-24.583,0-36.874
						C288.884,200.95,275.884,200.95,275.884,209.333L275.884,209.333z"/>
				</g>
			</g>
		</g>
	</g>
	<g id="Person_1_">
		<g>
			<circle style="fill:#FFFFFF;" cx="180.982" cy="176.576" r="9.53"/>
			<path style="fill:#FFFFFF;" d="M180.982,186.33c-5.379,0-9.755-4.376-9.755-9.754s4.376-9.755,9.755-9.755
				s9.754,4.376,9.754,9.755S186.361,186.33,180.982,186.33z M180.982,167.272c-5.13,0-9.304,4.174-9.304,9.304
				c0,5.129,4.173,9.303,9.304,9.303c5.13,0,9.303-4.174,9.303-9.303C190.285,171.446,186.112,167.272,180.982,167.272z"/>
		</g>
		<path style="fill:#FFFFFF;" d="M170.875,230.65c0,13.086,0,26.173,0,39.26c0,5.243,8.122,5.289,8.122,0.058
			c0-13.087,0-26.173,0-39.259C178.997,225.465,170.875,225.42,170.875,230.65L170.875,230.65z"/>
		<path style="fill:#FFFFFF;" d="M183.055,230.65c0,13.086,0,26.173,0,39.26c0,5.243,8.122,5.289,8.122,0.058
			c0-13.087,0-26.173,0-39.259C191.177,225.465,183.055,225.42,183.055,230.65L183.055,230.65z"/>
		<path style="fill:#FFFFFF;" d="M191.215,231.396c0,2.609-2.115,4.723-4.723,4.723h-11.021c-2.608,0-4.723-2.113-4.723-4.723
			v-37.918c0-2.608,2.114-4.723,4.723-4.723h11.021c2.607,0,4.723,2.114,4.723,4.723V231.396z"/>
		<g>
			<path style="fill:#FFFFFF;" d="M192.305,193.943c0,5.545,0,11.088,0,16.633c0,3.781,5.864,3.781,5.864,0
				c0-5.545,0-11.088,0-16.633C198.169,190.162,192.305,190.162,192.305,193.943L192.305,193.943z"/>
			<path style="fill:#FFFFFF;" d="M192.305,210.576c0,5.545,0,11.089,0,16.633c0,3.781,5.864,3.781,5.864,0
				c0-5.544,0-11.088,0-16.633C198.169,206.795,192.305,206.795,192.305,210.576L192.305,210.576z"/>
			<path style="fill:#FFFFFF;" d="M163.795,193.943c0,5.545,0,11.088,0,16.633c0,3.781,5.864,3.781,5.864,0
				c0-5.545,0-11.088,0-16.633C169.659,190.162,163.795,190.162,163.795,193.943L163.795,193.943z"/>
			<path style="fill:#FFFFFF;" d="M163.795,210.576c0,5.545,0,11.089,0,16.633c0,3.781,5.864,3.781,5.864,0
				c0-5.544,0-11.088,0-16.633C169.659,206.794,163.795,206.794,163.795,210.576L163.795,210.576z"/>
		</g>
	</g>
</g>
<g id="Ebene_1">
</g>
</svg>
