<?xml version="1.0" encoding="iso-8859-1"?>
<!-- Generator: Adobe Illustrator 16.0.0, SVG Export Plug-In . SVG Version: 6.00 Build 0)  -->
<!DOCTYPE svg PUBLIC "-//W3C//DTD SVG 1.1 Tiny//EN" "http://www.w3.org/Graphics/SVG/1.1/DTD/svg11-tiny.dtd">
<svg version="1.1" baseProfile="tiny" id="status_x5F_standby"
	 xmlns="http://www.w3.org/2000/svg" xmlns:xlink="http://www.w3.org/1999/xlink" x="0px" y="0px" width="361px" height="361px"
	 viewBox="0 0 361 361" xml:space="preserve">
<g>
	<g>
		<g>
			<polygon fill="#FFFFFF" points="178.226,158.461 177.982,77.461 284.783,158.461 			"/>
			<g>
				<path fill="#FFFFFF" d="M183.226,158.461c-0.082-27-0.163-54-0.244-81c-2.508,1.439-5.016,2.878-7.523,4.317
					c35.59,26.992,71.18,53.984,106.77,80.976c0.01,0.008,0.021,0.016,0.031,0.024c0.841-3.106,1.682-6.211,2.523-9.317
					c-35.519,0-71.038,0-106.557,0c-6.449,0-6.449,10,0,10c35.519,0,71.038,0,106.557,0c5.402,0,6.252-6.489,2.523-9.317
					c-35.59-26.992-71.18-53.984-106.77-80.976c-0.01-0.008-0.021-0.016-0.031-0.024c-3.125-2.371-7.534,0.868-7.523,4.317
					c0.082,27,0.163,54,0.244,81C173.246,164.909,183.246,164.911,183.226,158.461z"/>
			</g>
		</g>
		<g>
			<polygon fill="#FFFFFF" points="177.738,158.461 177.982,77.462 71.181,158.461 			"/>
			<g>
				<path fill="#FFFFFF" d="M182.738,158.461c0.082-27,0.163-54,0.244-81c0.01-3.45-4.398-6.688-7.523-4.317
					c-35.59,26.992-71.18,53.984-106.77,80.976c-0.011,0.008-0.021,0.016-0.031,0.023c-3.729,2.828-2.879,9.317,2.523,9.317
					c35.519,0,71.038,0,106.557,0c6.449,0,6.449-10,0-10c-35.519,0-71.038,0-106.557,0c0.841,3.106,1.683,6.211,2.523,9.317
					c35.59-26.992,71.18-53.984,106.77-80.976c0.011-0.008,0.021-0.016,0.031-0.023c-2.508-1.439-5.016-2.878-7.523-4.317
					c-0.082,27-0.163,54-0.244,81C172.718,164.911,182.718,164.909,182.738,158.461z"/>
			</g>
		</g>
	</g>
	<path fill="none" stroke="#FFFFFF" stroke-width="10" stroke-miterlimit="10" d="M265.982,281.866c0,3.919-3.927,7.095-8.771,7.095
		H99.419c-4.844,0-8.771-3.176-8.771-7.095V152.485c0-3.918,175.333-3.918,175.333,0V281.866z"/>
</g>
<g>
	<path fill="#FFFFFF" d="M189.657,194.351c6.965,0,16.048-1.81,20.267,5.133c2.335,3.844,1.105,11.205,1.105,15.416
		c0,7.975,0,15.95,0,23.925c0,4.712,0.723,10.15-0.465,14.771c-1.927,7.494-10.184,6.65-16.074,6.65c-7.771,0-15.542,0-23.313,0
		c-5.391,0-10.781,0-16.172,0c-8.018,0-9.871-6.822-9.871-13.265c0-12.5,0-25.001,0-37.501c0-5.509-0.369-10.682,5.133-14.024
		c4.161-2.528,11.862-1.106,16.501-1.106c4.514,0,4.514-7,0-7c-5.911,0-13.396-1.136-18.887,1.509
		c-6.982,3.364-9.747,9.837-9.747,17.228c0,13.814,0,27.629,0,41.443c0,6.952,1.665,12.62,7.518,16.997
		c4.524,3.383,10.708,2.719,16.021,2.719c13.162,0,26.323,0,39.485,0c10.435,0,16.87-8.497,16.87-18.311c0-9.514,0-19.028,0-28.542
		c0-6.896,1.61-16.82-1.509-23.296c-5.296-10.995-16.601-9.748-26.863-9.748C185.143,187.351,185.143,194.351,189.657,194.351
		L189.657,194.351z"/>
</g>
<g>
	<path fill="#FFFFFF" d="M174.785,184.132c0,16.425,0,32.85,0,49.275c0,4.514,7,4.514,7,0c0-16.425,0-32.85,0-49.275
		C181.785,179.618,174.785,179.618,174.785,184.132L174.785,184.132z"/>
</g>
</svg>
