<?xml version="1.0" encoding="iso-8859-1"?>
<!-- Generator: Adobe Illustrator 16.0.0, SVG Export Plug-In . SVG Version: 6.00 Build 0)  -->
<!DOCTYPE svg PUBLIC "-//W3C//DTD SVG 1.1//EN" "http://www.w3.org/Graphics/SVG/1.1/DTD/svg11.dtd">
<svg version="1.1" xmlns="http://www.w3.org/2000/svg" xmlns:xlink="http://www.w3.org/1999/xlink" x="0px" y="0px" width="361px"
	 height="361px" viewBox="0 0 361 361" style="enable-background:new 0 0 361 361;" xml:space="preserve">
<g id="status_x5F_vacation">
	<g id="Person_x5F_orig_5_" style="display:none;">
		<circle style="display:inline;fill:#FFFFFF;stroke:#FFFFFF;" cx="313.985" cy="133.958" r="21.125"/>
		<g style="display:inline;">
			<g>
				<path style="fill:#FFFFFF;" d="M291.581,253.836c0,29.011,0,58.021,0,87.033c0,11.623,18.004,11.726,18.004,0.129
					c0-29.011,0-58.021,0-87.033C309.585,242.342,291.581,242.239,291.581,253.836L291.581,253.836z"/>
			</g>
		</g>
		<g style="display:inline;">
			<g>
				<path style="fill:#FFFFFF;" d="M318.581,253.836c0,29.011,0,58.021,0,87.033c0,11.623,18.004,11.726,18.004,0.129
					c0-29.011,0-58.021,0-87.033C336.585,242.342,318.581,242.239,318.581,253.836L318.581,253.836z"/>
			</g>
		</g>
		<path style="display:inline;fill:#FFFFFF;" d="M336.67,255.49c0,5.783-4.688,10.471-10.471,10.471h-24.429
			c-5.782,0-10.47-4.688-10.47-10.471v-84.06c0-5.783,4.688-10.47,10.47-10.47h24.429c5.783,0,10.471,4.687,10.471,10.47V255.49z"/>
		<g style="display:inline;">
			<g>
				<g>
					<path style="fill:#FFFFFF;" d="M339.087,172.461c0,12.291,0,24.582,0,36.873c0,8.383,13,8.383,13,0c0-12.291,0-24.582,0-36.873
						C352.087,164.078,339.087,164.078,339.087,172.461L339.087,172.461z"/>
				</g>
			</g>
			<g>
				<g>
					<path style="fill:#FFFFFF;" d="M339.087,209.334c0,12.291,0,24.582,0,36.873c0,8.383,13,8.383,13,0c0-12.291,0-24.582,0-36.873
						C352.087,200.951,339.087,200.951,339.087,209.334L339.087,209.334z"/>
				</g>
			</g>
			<g>
				<g>
					<path style="fill:#FFFFFF;" d="M275.884,172.46c0,12.291,0,24.582,0,36.873c0,8.383,13,8.383,13,0c0-12.291,0-24.582,0-36.873
						C288.884,164.077,275.884,164.077,275.884,172.46L275.884,172.46z"/>
				</g>
			</g>
			<g>
				<g>
					<path style="fill:#FFFFFF;" d="M275.884,209.333c0,12.291,0,24.583,0,36.874c0,8.383,13,8.383,13,0c0-12.291,0-24.583,0-36.874
						C288.884,200.95,275.884,200.95,275.884,209.333L275.884,209.333z"/>
				</g>
			</g>
		</g>
	</g>
	<g id="Person_6_" style="display:none;">
		<g style="display:inline;">
			<circle style="fill:#FFFFFF;" cx="220.982" cy="194.576" r="9.529"/>
			<path style="fill:#FFFFFF;" d="M220.982,204.33c-5.379,0-9.755-4.376-9.755-9.754c0-5.379,4.376-9.756,9.755-9.756
				s9.754,4.377,9.754,9.756C230.736,199.954,226.361,204.33,220.982,204.33z M220.982,185.271c-5.131,0-9.304,4.174-9.304,9.305
				c0,5.129,4.173,9.303,9.304,9.303c5.13,0,9.303-4.174,9.303-9.303C230.285,189.445,226.112,185.271,220.982,185.271z"/>
		</g>
		<path style="display:inline;fill:#FFFFFF;" d="M210.875,248.65c0,13.086,0,26.173,0,39.26c0,5.243,8.122,5.289,8.122,0.058
			c0-13.087,0-26.173,0-39.259C218.997,243.465,210.875,243.42,210.875,248.65L210.875,248.65z"/>
		<path style="display:inline;fill:#FFFFFF;" d="M223.055,248.65c0,13.086,0,26.173,0,39.26c0,5.243,8.122,5.289,8.122,0.058
			c0-13.087,0-26.173,0-39.259C231.177,243.465,223.055,243.42,223.055,248.65L223.055,248.65z"/>
		<path style="display:inline;fill:#FFFFFF;" d="M231.215,249.396c0,2.609-2.115,4.723-4.723,4.723h-11.021
			c-2.608,0-4.723-2.113-4.723-4.723v-37.918c0-2.608,2.114-4.723,4.723-4.723h11.021c2.607,0,4.723,2.114,4.723,4.723V249.396z"/>
		<g style="display:inline;">
			<path style="fill:#FFFFFF;" d="M232.305,211.943c0,5.545,0,11.088,0,16.633c0,3.781,5.864,3.781,5.864,0
				c0-5.545,0-11.088,0-16.633C238.169,208.162,232.305,208.162,232.305,211.943L232.305,211.943z"/>
			<path style="fill:#FFFFFF;" d="M232.305,228.576c0,5.545,0,11.089,0,16.633c0,3.781,5.864,3.781,5.864,0
				c0-5.544,0-11.088,0-16.633C238.169,224.795,232.305,224.795,232.305,228.576L232.305,228.576z"/>
			<path style="fill:#FFFFFF;" d="M203.795,211.943c0,5.545,0,11.088,0,16.633c0,3.781,5.864,3.781,5.864,0
				c0-5.545,0-11.088,0-16.633C209.659,208.162,203.795,208.162,203.795,211.943L203.795,211.943z"/>
			<path style="fill:#FFFFFF;" d="M203.795,228.576c0,5.545,0,11.089,0,16.633c0,3.781,5.864,3.781,5.864,0
				c0-5.544,0-11.088,0-16.633C209.659,224.794,203.795,224.794,203.795,228.576L203.795,228.576z"/>
		</g>
	</g>
	<g id="Haus_30_">
		<g>
			<polygon style="fill:#FFFFFF;" points="64.677,155.583 64.433,74.583 171.234,155.583 			"/>
			<g>
				<path style="fill:#FFFFFF;" d="M69.677,155.583c-0.082-27-0.163-54-0.245-81c-2.508,1.439-5.016,2.878-7.523,4.317
					c35.59,26.992,71.18,53.984,106.77,80.976c0.01,0.008,0.021,0.016,0.031,0.024c0.841-3.106,1.682-6.211,2.523-9.317
					c-35.519,0-71.038,0-106.557,0c-6.449,0-6.449,10,0,10c35.519,0,71.038,0,106.557,0c5.402,0,6.252-6.489,2.523-9.317
					c-35.59-26.992-71.18-53.984-106.77-80.976c-0.01-0.008-0.021-0.016-0.031-0.024c-3.125-2.371-7.534,0.868-7.523,4.317
					c0.082,27,0.163,54,0.245,81C59.697,162.031,69.697,162.033,69.677,155.583z"/>
			</g>
		</g>
		<path style="fill:none;stroke:#FFFFFF;stroke-width:10;stroke-miterlimit:10;" d="M152.433,280.916
			c0,3.223-4.727,5.834-10.558,5.834H74.991c-5.832,0-10.558-2.611-10.558-5.834V158.417c0-3.222,4.727-5.833,10.558-5.833h66.884
			c5.832,0,10.558,2.612,10.558,5.833V280.916z"/>
		<path style="fill:none;stroke:#FFFFFF;stroke-width:10;stroke-miterlimit:10;" d="M117.433,280.404c0,3.137-2.687,5.68-6,5.68
			h-23.5c-3.313,0-6-2.543-6-5.68v-68.143c0-3.136,2.687-5.678,6-5.678h23.5c3.313,0,6,2.542,6,5.678V280.404z"/>
	</g>
	<g id="Person_5_">
		<g>
			<circle style="fill:#FFFFFF;" cx="274.833" cy="193.955" r="9.529"/>
			<path style="fill:#FFFFFF;" d="M274.834,203.71c-5.379,0-9.756-4.376-9.756-9.755s4.377-9.755,9.756-9.755
				c5.378,0,9.754,4.376,9.754,9.755S280.212,203.71,274.834,203.71z M274.834,184.651c-5.131,0-9.305,4.174-9.305,9.304
				c0,5.129,4.174,9.304,9.305,9.304c5.129,0,9.303-4.175,9.303-9.304C284.137,188.825,279.963,184.651,274.834,184.651z"/>
		</g>
		<path style="fill:#FFFFFF;" d="M264.727,248.03c0,13.085,0,26.173,0,39.259c0,5.244,8.121,5.289,8.121,0.059
			c0-13.088,0-26.173,0-39.26C272.848,242.845,264.727,242.799,264.727,248.03L264.727,248.03z"/>
		<path style="fill:#FFFFFF;" d="M276.906,248.03c0,13.085,0,26.173,0,39.259c0,5.244,8.121,5.289,8.121,0.059
			c0-13.088,0-26.173,0-39.26C285.027,242.845,276.906,242.799,276.906,248.03L276.906,248.03z"/>
		<path style="fill:#FFFFFF;" d="M285.066,248.776c0,2.608-2.115,4.723-4.724,4.723h-11.021c-2.607,0-4.723-2.114-4.723-4.723
			v-37.919c0-2.607,2.115-4.723,4.723-4.723h11.021c2.608,0,4.724,2.115,4.724,4.723V248.776z"/>
		<g>
			<path style="fill:#FFFFFF;" d="M286.156,211.323c0,5.544,0,11.088,0,16.632c0,3.782,5.863,3.782,5.863,0
				c0-5.544,0-11.088,0-16.632C292.02,207.541,286.156,207.541,286.156,211.323L286.156,211.323z"/>
			<path style="fill:#FFFFFF;" d="M286.156,227.955c0,5.545,0,11.09,0,16.633c0,3.781,5.863,3.781,5.863,0
				c0-5.543,0-11.088,0-16.633C292.02,224.174,286.156,224.174,286.156,227.955L286.156,227.955z"/>
			<path style="fill:#FFFFFF;" d="M257.646,211.322c0,5.545,0,11.088,0,16.633c0,3.781,5.863,3.781,5.863,0
				c0-5.545,0-11.088,0-16.633C263.51,207.541,257.646,207.541,257.646,211.322L257.646,211.322z"/>
			<path style="fill:#FFFFFF;" d="M257.646,227.955c0,5.545,0,11.09,0,16.633c0,3.781,5.863,3.781,5.863,0
				c0-5.543,0-11.088,0-16.633C263.51,224.174,257.646,224.174,257.646,227.955L257.646,227.955z"/>
		</g>
	</g>
	<g>
		<g>
			<path style="fill:#FFFFFF;" d="M248.698,285.252c-0.15,0.363-0.301,0.727-0.451,1.09c0.814-0.814,1.63-1.629,2.444-2.444
				c-1.93,0.8-5.177,0.327-7.446,0.327c-5.736,0-11.474,0-17.21,0c-5.488,0-10.977,0-16.465,0c-2.461,0-6.081,0.548-8.191-0.327
				c0.815,0.815,1.63,1.63,2.444,2.444c-1.575-3.802-0.326-10.823-0.326-15.085c0-3.635,0-7.271,0-10.905
				c0-1.686-0.248-3.776,0.326-5.164c-0.814,0.815-1.629,1.63-2.444,2.444c1.93-0.799,5.178-0.326,7.446-0.326
				c5.736,0,11.474,0,17.21,0c5.488,0,10.977,0,16.465,0c2.461,0,6.08-0.548,8.191,0.326c-0.814-0.814-1.63-1.629-2.444-2.444
				c1.574,3.805,0.326,10.823,0.326,15.086c0,5.303,0,10.606,0,15.909c0,4.514,7,4.514,7,0c0-5.631,0-11.261,0-16.892
				c0-3.45,0-6.899,0-10.35c0-2.241,0.26-4.421-0.929-6.45c-2.048-3.495-9.687-2.186-12.915-2.186c-7.838,0-15.677,0-23.516,0
				c-5.42,0-10.841,0-16.261,0c-6.246,0-5.456,6.534-5.456,10.814c0,7.367,0,14.735,0,22.104c0,4.662,1.381,8.001,6.636,8.001
				c9.924,0,19.848,0,29.771,0c4.727,0,9.453,0,14.18,0c3.805,0,6.663-0.003,8.364-4.111
				C257.175,282.942,250.399,281.144,248.698,285.252z"/>
		</g>
	</g>
	<g>
		<g>
			<path style="fill:#FFFFFF;" d="M231.551,250.28c0.035-0.062,0,0.025-0.53,0.025c-0.639,0-1.277,0-1.916,0
				c-1.734,0-3.469,0-5.203,0c-1.172,0-2.344,0-3.516,0c-0.332-0.027-0.231,0.187,0.302,0.642c0-0.354,0-0.71,0-1.065
				c0-0.866,0-1.732,0-2.599c0,0.81-0.729,0.641,0.325,0.641c0.639,0,1.277,0,1.916,0c1.899,0,3.8,0,5.7,0c1.038,0,2.076,0,3.114,0
				c-0.308-0.748-0.44-0.88-0.397-0.396c0,0.441,0,0.884,0,1.325c0,0.729,0,1.456,0,2.184c0,1.935,3,1.935,3,0
				c0-1.701,0.354-3.629-0.518-5.145c-0.791-1.374-3.422-0.969-4.724-0.969c-2.35,0-4.698,0-7.048,0
				c-1.663,0-3.755-0.166-4.315,1.871c-0.314,1.141-0.457,3.945,0.151,4.999c1.023,1.774,2.801,1.512,4.585,1.512
				c2.359,0,4.719,0,7.078,0c1.784,0,3.563,0.263,4.585-1.512C235.108,250.115,232.516,248.604,231.551,250.28z"/>
		</g>
	</g>
	<g>
		<g>
			<path style="fill:#FFFFFF;" d="M205.726,254.672c0,10.634,0,21.267,0,31.9c0,1.935,3,1.935,3,0c0-10.634,0-21.267,0-31.9
				C208.726,252.737,205.726,252.737,205.726,254.672L205.726,254.672z"/>
		</g>
	</g>
	<g>
		<g>
			<path style="fill:#FFFFFF;" d="M243.463,254.426c0,10.634,0,21.268,0,31.901c0,1.935,3,1.935,3,0c0-10.634,0-21.268,0-31.901
				C246.463,252.491,243.463,252.491,243.463,254.426L243.463,254.426z"/>
		</g>
	</g>
	<g>
		<g>
			<path style="fill:#FFFFFF;" d="M221.79,264.246c0.173,1.015-5.168,2.193-6.09,2.498c-1.551,0.514-2.052-3.317-2.439-4.489
				c-0.287-0.867,5.278-2.229,6.09-2.497C220.902,259.244,221.402,263.073,221.79,264.246c0.604,1.828,3.502,1.045,2.893-0.797
				c-0.921-2.786-1.749-8.033-5.909-6.657c-3.232,1.068-9.186,1.677-8.405,6.26c0.493,2.897,2.096,7.921,5.909,6.658
				c3.23-1.069,9.186-1.68,8.405-6.261C224.358,261.545,221.468,262.354,221.79,264.246z"/>
		</g>
	</g>
</g>
<g id="Ebene_1">
</g>
</svg>
