<?xml version="1.0" encoding="iso-8859-1"?>
<!-- Generator: Adobe Illustrator 16.0.0, SVG Export Plug-In . SVG Version: 6.00 Build 0)  -->
<!DOCTYPE svg PUBLIC "-//W3C//DTD SVG 1.1 Tiny//EN" "http://www.w3.org/Graphics/SVG/1.1/DTD/svg11-tiny.dtd">
<svg version="1.1" baseProfile="tiny" id="status_x5F_night"
	 xmlns="http://www.w3.org/2000/svg" xmlns:xlink="http://www.w3.org/1999/xlink" x="0px" y="0px" width="361px" height="361px"
	 viewBox="0 0 361 361" xml:space="preserve">
<g>
	<g>
		<g>
			<polygon fill="#FFFFFF" points="178.226,158.461 177.982,77.461 284.783,158.461 			"/>
			<g>
				<path fill="#FFFFFF" d="M183.226,158.461c-0.082-27-0.163-54-0.244-81c-2.508,1.439-5.016,2.878-7.523,4.317
					c35.59,26.992,71.18,53.984,106.77,80.976c0.01,0.008,0.021,0.016,0.031,0.024c0.841-3.106,1.682-6.211,2.523-9.317
					c-35.519,0-71.038,0-106.557,0c-6.449,0-6.449,10,0,10c35.519,0,71.038,0,106.557,0c5.402,0,6.252-6.489,2.523-9.317
					c-35.59-26.992-71.18-53.984-106.77-80.976c-0.01-0.008-0.021-0.016-0.031-0.024c-3.125-2.371-7.534,0.868-7.523,4.317
					c0.082,27,0.163,54,0.244,81C173.246,164.909,183.246,164.911,183.226,158.461z"/>
			</g>
		</g>
		<g>
			<polygon fill="#FFFFFF" points="177.738,158.461 177.982,77.462 71.181,158.461 			"/>
			<g>
				<path fill="#FFFFFF" d="M182.738,158.461c0.082-27,0.163-54,0.244-81c0.01-3.45-4.398-6.688-7.523-4.317
					c-35.59,26.992-71.18,53.984-106.77,80.976c-0.011,0.008-0.021,0.016-0.031,0.023c-3.729,2.828-2.879,9.317,2.523,9.317
					c35.519,0,71.038,0,106.557,0c6.449,0,6.449-10,0-10c-35.519,0-71.038,0-106.557,0c0.841,3.106,1.683,6.211,2.523,9.317
					c35.59-26.992,71.18-53.984,106.77-80.976c0.011-0.008,0.021-0.016,0.031-0.023c-2.508-1.439-5.016-2.878-7.523-4.317
					c-0.082,27-0.163,54-0.244,81C172.718,164.911,182.718,164.909,182.738,158.461z"/>
			</g>
		</g>
	</g>
	<path fill="none" stroke="#FFFFFF" stroke-width="10" stroke-miterlimit="10" d="M265.982,281.866c0,3.919-3.927,7.095-8.771,7.095
		H99.419c-4.844,0-8.771-3.176-8.771-7.095V152.485c0-3.918,175.333-3.918,175.333,0V281.866z"/>
</g>
<g>
	<g>
		<path fill="#FFFFFF" d="M126.711,244.108c-9.98-18.121-3.849-40.477,13.906-51.05c3.874-2.307,0.355-8.359-3.533-6.044
			c-21.063,12.543-28.233,39.174-16.417,60.627C122.845,251.596,128.89,248.065,126.711,244.108L126.711,244.108z"/>
	</g>
	<g>
		<path fill="#FFFFFF" d="M177.674,257.864c-18.121,9.98-40.478,3.85-51.051-13.906c-2.307-3.874-8.359-0.355-6.044,3.533
			c12.543,21.063,39.175,28.232,60.628,16.417C185.162,261.73,181.631,255.685,177.674,257.864L177.674,257.864z"/>
	</g>
	<g>
		<path fill="#FFFFFF" d="M136.975,237.321c-6.284-11.433-9.588-36.143,3.624-44.314c3.83-2.369,0.317-8.426-3.533-6.044
			c-16.783,10.379-14.377,38.895-6.134,53.891C133.105,244.811,139.15,241.279,136.975,237.321L136.975,237.321z"/>
	</g>
	<g>
		<path fill="#FFFFFF" d="M177.674,257.864c-7.233,3.787-16.067-0.028-22.557-3.664c-7.168-4.016-13.91-9.871-18.151-16.962
			c-2.313-3.869-8.367-0.351-6.044,3.533c8.809,14.728,32.576,32.409,50.286,23.136
			C185.208,261.813,181.668,255.772,177.674,257.864L177.674,257.864z"/>
	</g>
</g>
<path fill="#FFFFFF" stroke="#FFFFFF" stroke-miterlimit="10" d="M161.08,202.818c0,0.759-0.616,1.375-1.375,1.375l0,0
	c-0.76,0-1.375-0.616-1.375-1.375l0,0c0-0.76,0.615-1.375,1.375-1.375l0,0C160.463,201.443,161.08,202.059,161.08,202.818
	L161.08,202.818z"/>
<path fill="#FFFFFF" stroke="#FFFFFF" stroke-miterlimit="10" d="M171.83,182.193c0,1.449-1.176,2.625-2.625,2.625l0,0
	c-1.45,0-2.625-1.176-2.625-2.625l0,0c0-1.45,1.175-2.625,2.625-2.625l0,0C170.654,179.568,171.83,180.743,171.83,182.193
	L171.83,182.193z"/>
<path fill="#FFFFFF" stroke="#FFFFFF" stroke-miterlimit="10" d="M183.288,204.241c0,1.262-1.023,2.286-2.286,2.286h-0.762
	c-1.262,0-2.286-1.023-2.286-2.286v-0.762c0-1.262,1.023-2.286,2.286-2.286h0.762c1.262,0,2.286,1.023,2.286,2.286V204.241z"/>
<path fill="#FFFFFF" stroke="#FFFFFF" stroke-width="10" stroke-miterlimit="10" d="M224.08,242.853c0,2.203-1.603,3.989-3.58,3.989
	h-27.744c-1.977,0-3.58-1.786-3.58-3.989v-28.92c0-2.203,1.604-3.989,3.58-3.989H220.5c1.978,0,3.58,1.786,3.58,3.989V242.853z"/>
<path fill="#FFFFFF" stroke="#FFFFFF" stroke-width="10" stroke-miterlimit="10" d="M171.557,232.88
	c0,2.203,1.786,3.989,3.989,3.989h18.615c2.203,0,3.989-1.786,3.989-3.989v-11.302c0-2.203-1.786-3.989-3.989-3.989h-18.615
	c-2.203,0-3.989,1.786-3.989,3.989V232.88z"/>
<path fill="#FFFFFF" stroke="#FFFFFF" stroke-width="10" stroke-miterlimit="10" d="M163.58,232.88c0-2.203,1.786-3.989,3.989-3.989
	h22.937c2.203,0,3.989,1.786,3.989,3.989v6.316c0,2.203-1.786,3.989-3.989,3.989h-22.937c-2.203,0-3.989-1.786-3.989-3.989V232.88z"
	/>
<path fill="#FFFFFF" stroke="#FFFFFF" stroke-width="10" stroke-miterlimit="10" d="M210.783,239.195
	c0,2.203,1.786,3.989,3.989,3.989h18.615c2.203,0,3.989-1.786,3.989-3.989v-11.302c0-2.203-1.786-3.989-3.989-3.989h-18.615
	c-2.203,0-3.989,1.786-3.989,3.989V239.195z"/>
</svg>
