<?xml version="1.0" encoding="iso-8859-1"?>
<!-- Generator: Adobe Illustrator 16.0.0, SVG Export Plug-In . SVG Version: 6.00 Build 0)  -->
<!DOCTYPE svg PUBLIC "-//W3C//DTD SVG 1.1 Tiny//EN" "http://www.w3.org/Graphics/SVG/1.1/DTD/svg11-tiny.dtd">
<svg version="1.1" baseProfile="tiny" id="status_x5F_vacation"
	 xmlns="http://www.w3.org/2000/svg" xmlns:xlink="http://www.w3.org/1999/xlink" x="0px" y="0px" width="361px" height="361px"
	 viewBox="0 0 361 361" xml:space="preserve">
<g id="Person_x5F_orig_5_" display="none">
	<circle display="inline" fill="#FFFFFF" stroke="#FFFFFF" cx="311.467" cy="136.836" r="21.125"/>
	<g display="inline">
		<path fill="#FFFFFF" d="M289.063,256.714c0,29.011,0,58.021,0,87.033c0,11.623,18.004,11.726,18.004,0.129
			c0-29.011,0-58.021,0-87.032C307.067,245.22,289.063,245.118,289.063,256.714L289.063,256.714z"/>
	</g>
	<g display="inline">
		<path fill="#FFFFFF" d="M316.063,256.714c0,29.011,0,58.021,0,87.033c0,11.623,18.004,11.726,18.004,0.129
			c0-29.011,0-58.021,0-87.032C334.067,245.22,316.063,245.118,316.063,256.714L316.063,256.714z"/>
	</g>
	<path display="inline" fill="#FFFFFF" d="M334.152,258.369c0,5.783-4.688,10.47-10.47,10.47h-24.429
		c-5.782,0-10.47-4.687-10.47-10.47v-84.06c0-5.783,4.688-10.47,10.47-10.47h24.429c5.783,0,10.47,4.687,10.47,10.47V258.369z"/>
	<g display="inline">
		<g>
			<path fill="#FFFFFF" d="M336.569,175.339c0,12.291,0,24.582,0,36.873c0,8.383,13,8.383,13,0c0-12.291,0-24.582,0-36.873
				C349.569,166.956,336.569,166.956,336.569,175.339L336.569,175.339z"/>
		</g>
		<g>
			<path fill="#FFFFFF" d="M336.569,212.211c0,12.291,0,24.582,0,36.873c0,8.383,13,8.383,13,0c0-12.291,0-24.582,0-36.873
				C349.569,203.828,336.569,203.828,336.569,212.211L336.569,212.211z"/>
		</g>
		<g>
			<path fill="#FFFFFF" d="M273.366,175.338c0,12.291,0,24.582,0,36.873c0,8.383,13,8.383,13,0c0-12.291,0-24.582,0-36.873
				C286.366,166.955,273.366,166.955,273.366,175.338L273.366,175.338z"/>
		</g>
		<g>
			<path fill="#FFFFFF" d="M273.366,212.211c0,12.291,0,24.583,0,36.874c0,8.383,13,8.383,13,0c0-12.291,0-24.583,0-36.874
				C286.366,203.828,273.366,203.828,273.366,212.211L273.366,212.211z"/>
		</g>
	</g>
</g>
<g id="Person_6_" display="none">
	<g display="inline">
		<circle fill="#FFFFFF" cx="218.464" cy="197.454" r="9.529"/>
		<path fill="#FFFFFF" d="M218.464,207.208c-5.379,0-9.755-4.376-9.755-9.755s4.376-9.755,9.755-9.755
			c5.378,0,9.754,4.376,9.754,9.755S223.843,207.208,218.464,207.208z M218.464,188.15c-5.13,0-9.304,4.174-9.304,9.304
			c0,5.129,4.173,9.304,9.304,9.304c5.13,0,9.303-4.174,9.303-9.304C227.767,192.324,223.594,188.15,218.464,188.15z"/>
	</g>
	<path display="inline" fill="#FFFFFF" d="M208.357,251.529c0,13.085,0,26.172,0,39.259c0,5.244,8.122,5.289,8.122,0.058
		c0-13.087,0-26.172,0-39.259C216.479,246.343,208.357,246.297,208.357,251.529L208.357,251.529z"/>
	<path display="inline" fill="#FFFFFF" d="M220.537,251.529c0,13.085,0,26.172,0,39.259c0,5.244,8.122,5.289,8.122,0.058
		c0-13.087,0-26.172,0-39.259C228.659,246.343,220.537,246.297,220.537,251.529L220.537,251.529z"/>
	<path display="inline" fill="#FFFFFF" d="M228.697,252.275c0,2.609-2.115,4.723-4.723,4.723h-11.02
		c-2.608,0-4.723-2.114-4.723-4.723v-37.918c0-2.608,2.114-4.723,4.723-4.723h11.02c2.608,0,4.723,2.114,4.723,4.723V252.275z"/>
	<g display="inline">
		<path fill="#FFFFFF" d="M229.787,214.822c0,5.544,0,11.088,0,16.632c0,3.782,5.864,3.782,5.864,0c0-5.544,0-11.088,0-16.632
			C235.651,211.04,229.787,211.04,229.787,214.822L229.787,214.822z"/>
		<path fill="#FFFFFF" d="M229.787,231.454c0,5.544,0,11.089,0,16.633c0,3.781,5.864,3.781,5.864,0c0-5.544,0-11.088,0-16.633
			C235.651,227.673,229.787,227.673,229.787,231.454L229.787,231.454z"/>
		<path fill="#FFFFFF" d="M201.277,214.821c0,5.544,0,11.088,0,16.632c0,3.782,5.864,3.782,5.864,0c0-5.544,0-11.088,0-16.632
			C207.141,211.04,201.277,211.04,201.277,214.821L201.277,214.821z"/>
		<path fill="#FFFFFF" d="M201.277,231.454c0,5.545,0,11.089,0,16.633c0,3.781,5.864,3.781,5.864,0c0-5.544,0-11.088,0-16.633
			C207.141,227.672,201.277,227.672,201.277,231.454L201.277,231.454z"/>
	</g>
</g>
<g id="Haus_30_">
	<g>
		<polygon fill="#FFFFFF" points="62.159,158.461 61.915,77.461 168.716,158.461 		"/>
		<g>
			<path fill="#FFFFFF" d="M67.159,158.461c-0.082-27-0.163-54-0.245-81c-2.508,1.439-5.016,2.878-7.523,4.317
				c35.59,26.992,71.18,53.984,106.77,80.976c0.01,0.008,0.021,0.016,0.031,0.024c0.841-3.106,1.682-6.211,2.523-9.317
				c-35.519,0-71.038,0-106.557,0c-6.449,0-6.449,10,0,10c35.519,0,71.038,0,106.557,0c5.402,0,6.252-6.489,2.523-9.317
				c-35.59-26.992-71.18-53.984-106.77-80.976c-0.01-0.008-0.021-0.016-0.031-0.024c-3.125-2.371-7.534,0.868-7.523,4.317
				c0.082,27,0.163,54,0.245,81C57.179,164.909,67.179,164.911,67.159,158.461z"/>
		</g>
	</g>
	<path fill="none" stroke="#FFFFFF" stroke-width="10" stroke-miterlimit="10" d="M149.915,283.794
		c0,3.222-4.727,5.834-10.558,5.834H72.473c-5.832,0-10.558-2.612-10.558-5.834v-122.5c0-3.222,4.727-5.833,10.558-5.833h66.884
		c5.832,0,10.558,2.612,10.558,5.833V283.794z"/>
	<path fill="none" stroke="#FFFFFF" stroke-width="10" stroke-miterlimit="10" d="M114.915,283.283c0,3.136-2.687,5.679-6,5.679
		h-23.5c-3.313,0-6-2.543-6-5.679V215.14c0-3.136,2.687-5.679,6-5.679h23.5c3.313,0,6,2.542,6,5.679V283.283z"/>
</g>
<g id="Person_5_">
	<g>
		<circle fill="#FFFFFF" cx="272.315" cy="196.833" r="9.529"/>
		<path fill="#FFFFFF" d="M272.315,206.588c-5.379,0-9.755-4.376-9.755-9.755s4.376-9.755,9.755-9.755
			c5.378,0,9.754,4.376,9.754,9.755S277.694,206.588,272.315,206.588z M272.315,187.529c-5.13,0-9.304,4.174-9.304,9.304
			c0,5.129,4.173,9.304,9.304,9.304c5.13,0,9.303-4.174,9.303-9.304C281.618,191.703,277.445,187.529,272.315,187.529z"/>
	</g>
	<path fill="#FFFFFF" d="M262.208,250.908c0,13.085,0,26.172,0,39.259c0,5.244,8.122,5.289,8.122,0.058c0-13.087,0-26.172,0-39.259
		C270.33,245.723,262.208,245.677,262.208,250.908L262.208,250.908z"/>
	<path fill="#FFFFFF" d="M274.388,250.908c0,13.085,0,26.172,0,39.259c0,5.244,8.122,5.289,8.122,0.058c0-13.087,0-26.172,0-39.259
		C282.51,245.723,274.388,245.677,274.388,250.908L274.388,250.908z"/>
	<path fill="#FFFFFF" d="M282.548,251.654c0,2.609-2.115,4.723-4.723,4.723h-11.02c-2.608,0-4.723-2.114-4.723-4.723v-37.918
		c0-2.608,2.114-4.723,4.723-4.723h11.02c2.608,0,4.723,2.114,4.723,4.723V251.654z"/>
	<g>
		<path fill="#FFFFFF" d="M283.638,214.201c0,5.544,0,11.088,0,16.632c0,3.782,5.864,3.782,5.864,0c0-5.544,0-11.088,0-16.632
			C289.502,210.419,283.638,210.419,283.638,214.201L283.638,214.201z"/>
		<path fill="#FFFFFF" d="M283.638,230.833c0,5.544,0,11.089,0,16.633c0,3.781,5.864,3.781,5.864,0c0-5.544,0-11.088,0-16.633
			C289.502,227.052,283.638,227.052,283.638,230.833L283.638,230.833z"/>
		<path fill="#FFFFFF" d="M255.128,214.201c0,5.544,0,11.088,0,16.632c0,3.782,5.864,3.782,5.864,0c0-5.544,0-11.088,0-16.632
			C260.992,210.419,255.128,210.419,255.128,214.201L255.128,214.201z"/>
		<path fill="#FFFFFF" d="M255.128,230.833c0,5.545,0,11.089,0,16.633c0,3.781,5.864,3.781,5.864,0c0-5.544,0-11.088,0-16.633
			C260.992,227.051,255.128,227.051,255.128,230.833L255.128,230.833z"/>
	</g>
</g>
<g>
	<path fill="#FFFFFF" d="M246.18,288.13c-0.15,0.363-0.301,0.727-0.451,1.09c0.815-0.815,1.629-1.63,2.444-2.445
		c-1.93,0.799-5.177,0.327-7.446,0.327c-5.736,0-11.473,0-17.21,0c-5.488,0-10.977,0-16.465,0c-2.46,0-6.08,0.548-8.19-0.327
		c0.814,0.815,1.629,1.63,2.444,2.445c-1.576-3.802-0.327-10.824-0.327-15.085c0-3.635,0-7.271,0-10.906
		c0-1.685-0.248-3.776,0.327-5.164c-0.815,0.815-1.63,1.63-2.444,2.444c1.929-0.799,5.177-0.327,7.446-0.327
		c5.736,0,11.473,0,17.21,0c5.488,0,10.977,0,16.465,0c2.46,0,6.08-0.548,8.191,0.327c-0.815-0.814-1.629-1.629-2.444-2.444
		c1.575,3.804,0.326,10.823,0.326,15.085c0,5.303,0,10.606,0,15.91c0,4.514,7,4.514,7,0c0-5.63,0-11.261,0-16.892
		c0-3.45,0-6.9,0-10.35c0-2.241,0.26-4.42-0.929-6.45c-2.047-3.495-9.686-2.186-12.915-2.186c-7.838,0-15.677,0-23.515,0
		c-5.42,0-10.841,0-16.261,0c-6.246,0-5.456,6.534-5.456,10.814c0,7.368,0,14.736,0,22.104c0,4.662,1.381,8,6.636,8
		c9.924,0,19.848,0,29.771,0c4.727,0,9.454,0,14.18,0c3.805,0,6.663-0.003,8.364-4.111
		C254.657,285.82,247.881,284.021,246.18,288.13z"/>
</g>
<g>
	<path fill="#FFFFFF" d="M229.032,253.159c0.036-0.063,0.001,0.025-0.529,0.025c-0.639,0-1.277,0-1.916,0c-1.734,0-3.468,0-5.203,0
		c-1.172,0-2.344,0-3.516,0c-0.333-0.027-0.232,0.187,0.302,0.643c0-0.355,0-0.71,0-1.066c0-0.867,0-1.733,0-2.6
		c0,0.811-0.73,0.642,0.325,0.642c0.639,0,1.277,0,1.916,0c1.9,0,3.8,0,5.7,0c1.039,0,2.077,0,3.115,0
		c-0.309-0.749-0.441-0.881-0.398-0.396c0,0.442,0,0.884,0,1.326c0,0.728,0,1.456,0,2.184c0,1.935,3,1.935,3,0
		c0-1.702,0.354-3.629-0.518-5.145c-0.791-1.374-3.422-0.968-4.723-0.968c-2.349,0-4.698,0-7.048,0c-1.664,0-3.755-0.167-4.315,1.87
		c-0.314,1.142-0.457,3.946,0.151,5c1.023,1.774,2.801,1.511,4.585,1.511c2.359,0,4.718,0,7.077,0c1.784,0,3.563,0.263,4.585-1.511
		C232.59,252.993,229.997,251.483,229.032,253.159z"/>
</g>
<g>
	<path fill="#FFFFFF" d="M203.208,257.55c0,10.633,0,21.267,0,31.9c0,1.935,3,1.935,3,0c0-10.633,0-21.267,0-31.9
		C206.208,255.616,203.208,255.616,203.208,257.55L203.208,257.55z"/>
</g>
<g>
	<path fill="#FFFFFF" d="M240.945,257.303c0,10.634,0,21.268,0,31.902c0,1.935,3,1.935,3,0c0-10.634,0-21.268,0-31.902
		C243.945,255.369,240.945,255.369,240.945,257.303L240.945,257.303z"/>
</g>
<g>
	<path fill="#FFFFFF" d="M219.272,267.124c0.173,1.015-5.167,2.192-6.089,2.498c-1.552,0.513-2.053-3.317-2.441-4.49
		c-0.287-0.867,5.28-2.229,6.09-2.498C218.383,262.122,218.884,265.952,219.272,267.124c0.604,1.828,3.502,1.044,2.893-0.798
		c-0.921-2.786-1.75-8.033-5.909-6.657c-3.233,1.069-9.184,1.678-8.406,6.261c0.492,2.898,2.098,7.919,5.91,6.658
		c3.231-1.069,9.185-1.68,8.405-6.262C221.841,264.422,218.95,265.232,219.272,267.124z"/>
</g>
</svg>
