<?xml version="1.0" encoding="iso-8859-1"?>
<!-- Generator: Adobe Illustrator 16.0.0, SVG Export Plug-In . SVG Version: 6.00 Build 0)  -->
<!DOCTYPE svg PUBLIC "-//W3C//DTD SVG 1.1//EN" "http://www.w3.org/Graphics/SVG/1.1/DTD/svg11.dtd">
<svg version="1.1" xmlns="http://www.w3.org/2000/svg" xmlns:xlink="http://www.w3.org/1999/xlink" x="0px" y="0px" width="361px"
	 height="361px" viewBox="0 0 361 361" style="enable-background:new 0 0 361 361;" xml:space="preserve">
<g id="status_x5F_economy">
	<g>
		<g>
			<g>
				<polygon style="fill:#FFFFFF;" points="180.744,155.583 180.5,74.583 287.301,155.583 				"/>
				<g>
					<path style="fill:#FFFFFF;" d="M185.744,155.583c-0.081-27-0.163-54-0.244-81c-2.508,1.439-5.016,2.878-7.523,4.317
						c35.59,26.992,71.18,53.984,106.77,80.976c0.011,0.008,0.021,0.016,0.031,0.024c0.841-3.106,1.683-6.211,2.523-9.317
						c-35.519,0-71.038,0-106.557,0c-6.449,0-6.449,10,0,10c35.519,0,71.038,0,106.557,0c5.402,0,6.252-6.489,2.523-9.317
						c-35.59-26.992-71.18-53.984-106.77-80.976c-0.011-0.008-0.021-0.016-0.031-0.024c-3.125-2.371-7.534,0.868-7.523,4.317
						c0.082,27,0.163,54,0.244,81C175.764,162.031,185.764,162.033,185.744,155.583z"/>
				</g>
			</g>
			<g>
				<polygon style="fill:#FFFFFF;" points="180.256,155.583 180.5,74.584 73.699,155.583 				"/>
				<g>
					<path style="fill:#FFFFFF;" d="M185.256,155.583c0.081-27,0.163-54,0.244-81c0.011-3.45-4.397-6.688-7.523-4.317
						c-35.59,26.992-71.18,53.984-106.77,80.976c-0.011,0.008-0.021,0.016-0.031,0.023c-3.729,2.828-2.879,9.317,2.523,9.317
						c35.519,0,71.038,0,106.557,0c6.448,0,6.448-10,0-10c-35.519,0-71.038,0-106.557,0c0.841,3.106,1.683,6.211,2.523,9.317
						c35.59-26.992,71.18-53.984,106.77-80.976c0.011-0.008,0.021-0.016,0.031-0.023c-2.508-1.439-5.016-2.878-7.523-4.317
						c-0.082,27-0.163,54-0.244,81C175.236,162.033,185.236,162.031,185.256,155.583z"/>
				</g>
			</g>
		</g>
		<path style="fill:none;stroke:#FFFFFF;stroke-width:10;stroke-miterlimit:10;" d="M268.5,278.988c0,3.919-3.927,7.096-8.771,7.096
			H101.938c-4.844,0-8.771-3.177-8.771-7.096V149.607c0-3.918,175.333-3.918,175.333,0V278.988z"/>
	</g>
	<g>
		<g>
			<path style="fill:#FFFFFF;" d="M223.579,232.146c0.454-1.167-1.264,1.553-1.789,2.145c-1.674,1.884-3.587,3.548-5.536,5.136
				c-6.084,4.958-13.542,8.214-21.056,10.248c-8.529,2.309-17.691,2.919-26.466,2.026c-3.993-0.406-11.583-1.666-13.313-6.087
				c-1.832-4.681,4.841-8.597,8.029-10.421c7.522-4.303,16.668-6.124,25.22-6.787c7.92-0.614,16.027-0.188,23.833,1.271
				c2.896,0.541,5.745,1.321,8.503,2.356c0.886,0.332,1.715,0.859,2.51,1.362C224.659,234.12,223.289,233.335,223.579,232.146
				c-1.525,6.265,8.117,8.922,9.643,2.658c4.011-16.468-31.402-16.744-40.178-16.601c-15.773,0.258-46.003,5.395-47.914,25.488
				c-0.703,7.397,5.77,12.912,11.937,15.34c10.119,3.982,21.475,3.401,32.036,1.981c11.318-1.521,22.147-5.67,31.417-12.357
				c4.894-3.531,10.447-8.056,12.702-13.852C235.563,228.785,225.891,226.204,223.579,232.146z"/>
		</g>
	</g>
	<g>
		<g>
			<path style="fill:#FFFFFF;" d="M137.458,270.336c0.019-11.392,16.976-18.05,25.523-21.306
				c20.313-7.737,42.541-10.396,64.135-10.997c6.435-0.179,6.452-10.18,0-10c-23.756,0.66-48.271,3.753-70.42,12.783
				c-12.349,5.035-29.213,14.064-29.239,29.52C127.448,276.785,137.448,276.784,137.458,270.336L137.458,270.336z"/>
		</g>
	</g>
	<g>
		<path style="fill:#FFFFFF;" d="M139.234,209.688v-37.14h22.5v6.12h-15.12v8.34h13.14v6.119h-13.14v10.44h16.44v6.12H139.234z"/>
		<path style="fill:#FFFFFF;" d="M183.215,210.467c-5.241,0-9.24-1.68-12-5.039c-2.76-3.36-4.14-8.14-4.14-14.34
			c0-3.08,0.42-5.82,1.26-8.221c0.84-2.4,2.01-4.429,3.51-6.09c1.5-1.659,3.279-2.919,5.34-3.78c2.06-0.86,4.31-1.29,6.75-1.29
			c1.319,0,2.51,0.111,3.569,0.33c1.061,0.22,1.99,0.471,2.791,0.75c0.799,0.28,1.47,0.58,2.01,0.9
			c0.54,0.321,0.949,0.561,1.23,0.72l-1.92,5.88c-0.922-0.6-2.031-1.11-3.33-1.53c-1.301-0.42-2.791-0.63-4.471-0.63
			c-1.16,0-2.29,0.21-3.39,0.63c-1.101,0.42-2.081,1.121-2.94,2.1c-0.86,0.98-1.56,2.291-2.1,3.93
			c-0.54,1.641-0.81,3.682-0.81,6.121c0,4.24,0.729,7.49,2.19,9.75c1.459,2.26,3.849,3.389,7.17,3.389
			c1.92,0,3.511-0.219,4.771-0.659s2.27-0.88,3.029-1.32l1.86,5.82c-1.04,0.64-2.45,1.229-4.229,1.771
			C187.584,210.197,185.534,210.467,183.215,210.467z"/>
		<path style="fill:#FFFFFF;" d="M197.074,191.088c0-6.4,1.18-11.23,3.541-14.49c2.359-3.26,5.639-4.89,9.84-4.89
			c4.359,0,7.68,1.63,9.959,4.89c2.281,3.26,3.42,8.09,3.42,14.49s-1.16,11.23-3.479,14.49c-2.32,3.26-5.601,4.889-9.84,4.889
			c-4.36,0-7.69-1.629-9.99-4.889S197.074,197.488,197.074,191.088z M204.574,191.088c0,1.8,0.07,3.49,0.211,5.07
			c0.139,1.58,0.42,2.949,0.84,4.109s1.01,2.08,1.77,2.76c0.76,0.681,1.779,1.02,3.061,1.02c1.238,0,2.25-0.339,3.029-1.02
			c0.78-0.68,1.381-1.609,1.801-2.79c0.42-1.179,0.699-2.55,0.84-4.11c0.139-1.56,0.209-3.239,0.209-5.039
			c0-1.801-0.07-3.49-0.209-5.07c-0.141-1.58-0.42-2.949-0.84-4.109s-1.012-2.08-1.771-2.761c-0.761-0.68-1.78-1.02-3.06-1.02
			c-1.281,0-2.301,0.34-3.061,1.02c-0.76,0.681-1.35,1.611-1.77,2.79c-0.42,1.18-0.701,2.55-0.84,4.109
			C204.645,187.607,204.574,189.287,204.574,191.088z"/>
	</g>
</g>
<g id="Ebene_1">
</g>
</svg>
