<?xml version="1.0" encoding="iso-8859-1"?>
<!-- Generator: Adobe Illustrator 16.0.0, SVG Export Plug-In . SVG Version: 6.00 Build 0)  -->
<!DOCTYPE svg PUBLIC "-//W3C//DTD SVG 1.1//EN" "http://www.w3.org/Graphics/SVG/1.1/DTD/svg11.dtd">
<svg version="1.1" xmlns="http://www.w3.org/2000/svg" xmlns:xlink="http://www.w3.org/1999/xlink" x="0px" y="0px" width="361px"
	 height="361px" viewBox="0 0 361 361" style="enable-background:new 0 0 361 361;" xml:space="preserve">
<g id="temp_x5F_dew_x5F_point">
	<g>
		<g>
			<g>
				<g>
					<path style="fill:#FFFFFF;" d="M251.162,198.775c0,7.16,0,14.32,0,21.48c0,1.935,3,1.935,3,0c0-7.16,0-14.32,0-21.48
						C254.162,196.841,251.162,196.841,251.162,198.775L251.162,198.775z"/>
				</g>
			</g>
			<g>
				<g>
					<path style="fill:#FFFFFF;" d="M245.654,202.232c2.087,1.205,4.175,2.41,6.263,3.615c1.679,0.97,3.188-1.623,1.514-2.59
						c-2.087-1.205-4.175-2.41-6.263-3.615C245.489,198.673,243.979,201.266,245.654,202.232L245.654,202.232z"/>
				</g>
			</g>
			<g>
				<g>
					<path style="fill:#FFFFFF;" d="M258.085,199.643c-2.088,1.205-4.176,2.41-6.264,3.615c-1.675,0.966-0.165,3.559,1.514,2.59
						c2.088-1.205,4.176-2.41,6.264-3.615C261.273,201.267,259.764,198.674,258.085,199.643L258.085,199.643z"/>
				</g>
			</g>
		</g>
		<g>
			<g>
				<g>
					<path style="fill:#FFFFFF;" d="M233.228,210.563c6.201,3.58,12.402,7.16,18.604,10.74c1.679,0.97,3.188-1.623,1.514-2.59
						c-6.201-3.58-12.402-7.16-18.604-10.74C233.063,207.003,231.553,209.596,233.228,210.563L233.228,210.563z"/>
				</g>
			</g>
			<g>
				<g>
					<path style="fill:#FFFFFF;" d="M233.489,217.057c2.088-1.205,4.175-2.41,6.262-3.615c1.675-0.967,0.165-3.56-1.514-2.59
						c-2.088,1.205-4.175,2.41-6.262,3.615C230.301,215.434,231.811,218.026,233.489,217.057L233.489,217.057z"/>
				</g>
			</g>
			<g>
				<g>
					<path style="fill:#FFFFFF;" d="M237.447,204.998c0,2.41,0,4.82,0,7.23c0,1.935,3,1.935,3,0c0-2.41,0-4.82,0-7.23
						C240.447,203.063,237.447,203.063,237.447,204.998L237.447,204.998z"/>
				</g>
			</g>
		</g>
		<g>
			<g>
				<g>
					<path style="fill:#FFFFFF;" d="M234.788,232.029c6.201-3.58,12.402-7.16,18.604-10.74c1.675-0.967,0.165-3.56-1.514-2.59
						c-6.201,3.58-12.402,7.16-18.604,10.74C231.6,230.406,233.109,232.999,234.788,232.029L234.788,232.029z"/>
				</g>
			</g>
			<g>
				<g>
					<path style="fill:#FFFFFF;" d="M240.529,235.066c0-2.411,0-4.821,0-7.232c0-1.935-3-1.935-3,0c0,2.411,0,4.821,0,7.232
						C237.529,237.001,240.529,237.001,240.529,235.066L240.529,235.066z"/>
				</g>
			</g>
			<g>
				<g>
					<path style="fill:#FFFFFF;" d="M232.058,225.596c2.087,1.205,4.175,2.41,6.263,3.615c1.679,0.97,3.188-1.623,1.514-2.59
						c-2.087-1.205-4.175-2.41-6.263-3.615C231.893,222.036,230.383,224.629,232.058,225.596L232.058,225.596z"/>
				</g>
			</g>
		</g>
		<g>
			<g>
				<g>
					<path style="fill:#FFFFFF;" d="M254.139,241.552c0-7.16,0-14.321,0-21.481c0-1.935-3-1.935-3,0c0,7.16,0,14.321,0,21.481
						C251.139,243.486,254.139,243.486,254.139,241.552L254.139,241.552z"/>
				</g>
			</g>
			<g>
				<g>
					<path style="fill:#FFFFFF;" d="M259.646,238.094c-2.087-1.205-4.174-2.41-6.262-3.615c-1.679-0.97-3.188,1.623-1.514,2.59
						c2.087,1.205,4.174,2.41,6.262,3.615C259.811,241.653,261.32,239.061,259.646,238.094L259.646,238.094z"/>
				</g>
			</g>
			<g>
				<g>
					<path style="fill:#FFFFFF;" d="M247.216,240.684c2.088-1.205,4.175-2.41,6.262-3.615c1.675-0.967,0.165-3.56-1.514-2.59
						c-2.088,1.205-4.175,2.41-6.262,3.615C244.027,239.061,245.537,241.653,247.216,240.684L247.216,240.684z"/>
				</g>
			</g>
		</g>
		<g>
			<g>
				<g>
					<path style="fill:#FFFFFF;" d="M272.071,229.6c-6.2-3.58-12.4-7.16-18.602-10.74c-1.679-0.97-3.188,1.623-1.514,2.59
						c6.2,3.58,12.4,7.16,18.602,10.74C272.236,233.159,273.746,230.566,272.071,229.6L272.071,229.6z"/>
				</g>
			</g>
			<g>
				<g>
					<path style="fill:#FFFFFF;" d="M271.812,223.105c-2.088,1.205-4.176,2.41-6.264,3.615c-1.675,0.966-0.165,3.559,1.514,2.59
						c2.088-1.205,4.176-2.41,6.264-3.615C275,224.729,273.49,222.137,271.812,223.105L271.812,223.105z"/>
				</g>
			</g>
			<g>
				<g>
					<path style="fill:#FFFFFF;" d="M267.853,235.166c0-2.41,0.001-4.821,0.001-7.231c0-1.935-3-1.935-3,0
						c0,2.41-0.001,4.821-0.001,7.231C264.853,237.101,267.853,237.101,267.853,235.166L267.853,235.166z"/>
				</g>
			</g>
		</g>
		<g>
			<g>
				<g>
					<path style="fill:#FFFFFF;" d="M270.511,208.135c-6.201,3.58-12.402,7.16-18.603,10.74c-1.675,0.967-0.165,3.56,1.514,2.59
						c6.201-3.58,12.402-7.16,18.603-10.74C273.699,209.758,272.189,207.165,270.511,208.135L270.511,208.135z"/>
				</g>
			</g>
			<g>
				<g>
					<path style="fill:#FFFFFF;" d="M264.77,205.098c0,2.41,0,4.82,0,7.23c0,1.935,3,1.935,3,0c0-2.41,0-4.82,0-7.23
						C267.77,203.163,264.77,203.163,264.77,205.098L264.77,205.098z"/>
				</g>
			</g>
			<g>
				<g>
					<path style="fill:#FFFFFF;" d="M273.241,214.567c-2.087-1.206-4.174-2.411-6.262-3.616c-1.678-0.97-3.188,1.623-1.514,2.59
						c2.087,1.206,4.174,2.411,6.262,3.616C273.405,218.127,274.916,215.534,273.241,214.567L273.241,214.567z"/>
				</g>
			</g>
		</g>
	</g>
	<path style="fill:none;stroke:#FFFFFF;stroke-width:10;stroke-miterlimit:10;" d="M135.5,234.127c0,3.06-2.687,5.54-6,5.54h-22
		c-3.313,0-6-2.48-6-5.54V80.541c0-3.06,2.687-5.54,6-5.54h22c3.313,0,6,2.48,6,5.54V234.127z"/>
	<path style="fill:#FFFFFF;stroke:#FFFFFF;stroke-width:10;stroke-miterlimit:10;" d="M144.499,280.334c0,3.313-2.106,6-4.704,6
		H97.203c-2.598,0-4.704-2.687-4.704-6v-34.666c0-3.314,2.106-6,4.704-6h42.592c2.598,0,4.704,2.686,4.704,6V280.334z"/>
	<g>
		<g>
			<path style="fill:#FFFFFF;" d="M148.5,91.333c6,0,12,0,18,0c6.449,0,6.449-10,0-10c-6,0-12,0-18,0
				C142.051,81.333,142.051,91.333,148.5,91.333L148.5,91.333z"/>
		</g>
	</g>
	<g>
		<g>
			<path style="fill:#FFFFFF;" d="M148.5,131.333c6,0,12,0,18,0c6.449,0,6.449-10,0-10c-6,0-12,0-18,0
				C142.051,121.333,142.051,131.333,148.5,131.333L148.5,131.333z"/>
		</g>
	</g>
	<g>
		<g>
			<path style="fill:#FFFFFF;" d="M148.5,172.333c6,0,12,0,18,0c6.449,0,6.449-10,0-10c-6,0-12,0-18,0
				C142.051,162.333,142.051,172.333,148.5,172.333L148.5,172.333z"/>
		</g>
	</g>
	<g>
		<g>
			<path style="fill:#FFFFFF;" d="M148.5,215.334c6,0,12,0,18,0c6.449,0,6.449-10,0-10c-6,0-12,0-18,0
				C142.051,205.334,142.051,215.334,148.5,215.334L148.5,215.334z"/>
		</g>
	</g>
	
		<rect x="101.499" y="167.333" style="fill:#FFFFFF;stroke:#FFFFFF;stroke-width:10;stroke-miterlimit:10;" width="34" height="87.333"/>
	<path style="fill:none;stroke:#FFFFFF;stroke-width:10;stroke-miterlimit:10;" d="M217.42,282.192c0,3.249,3.141,5.884,7.016,5.884
		h55.543c3.874,0,7.016-2.635,7.016-5.884V80.698c0-3.249-3.142-5.884-7.016-5.884h-55.543c-3.875,0-7.016,2.635-7.016,5.884
		V282.192z"/>
	<path style="fill:#FFFFFF;" d="M235.758,140.387c0,9.085,7.364,16.45,16.449,16.45c9.084,0,16.449-7.364,16.449-16.45
		c0-3.474-1.221-6.31-2.304-9.352c-1.93-5.413-8.536-24.488-14.146-24.488c-5.624,0-12.522,19.84-14.166,24.519
		C236.975,134.101,235.758,136.926,235.758,140.387z"/>
</g>
<g id="Ebene_1">
</g>
</svg>
