<?xml version="1.0" encoding="iso-8859-1"?>
<!-- Generator: Adobe Illustrator 16.0.0, SVG Export Plug-In . SVG Version: 6.00 Build 0)  -->
<!DOCTYPE svg PUBLIC "-//W3C//DTD SVG 1.1 Tiny//EN" "http://www.w3.org/Graphics/SVG/1.1/DTD/svg11-tiny.dtd">
<svg version="1.1" baseProfile="tiny" id="temp_x5F_inside"
	 xmlns="http://www.w3.org/2000/svg" xmlns:xlink="http://www.w3.org/1999/xlink" x="0px" y="0px" width="361px" height="361px"
	 viewBox="0 0 361 361" xml:space="preserve">
<path fill="none" stroke="#FFFFFF" stroke-width="10" stroke-miterlimit="10" d="M234.315,283.866c0,3.136-2.687,5.679-6,5.679
	h-23.5c-3.313,0-6-2.542-6-5.679v-68.143c0-3.136,2.687-5.679,6-5.679h23.5c3.313,0,6,2.542,6,5.679V283.866z"/>
<path fill="none" stroke="#FFFFFF" stroke-width="10" stroke-miterlimit="10" d="M135.244,250.369c0,1.476-1.295,2.671-2.894,2.671
	h-10.609c-1.598,0-2.893-1.196-2.893-2.671v-74.065c0-1.475,1.295-2.671,2.893-2.671h10.609c1.598,0,2.894,1.196,2.894,2.671
	V250.369z"/>
<path fill="#FFFFFF" stroke="#FFFFFF" stroke-width="10" stroke-miterlimit="10" d="M139.583,272.651
	c0,1.598-1.016,2.894-2.269,2.894h-20.54c-1.253,0-2.268-1.295-2.268-2.894v-16.717c0-1.598,1.015-2.894,2.268-2.894h20.54
	c1.253,0,2.269,1.295,2.269,2.894V272.651z"/>
<g>
	<path fill="#FFFFFF" d="M146.802,184.419c2.894,0,5.787,0,8.68,0c2.726,0,5-2.274,5-5s-2.274-5-5-5c-2.894,0-5.787,0-8.68,0
		c-2.726,0-5,2.274-5,5S144.076,184.419,146.802,184.419L146.802,184.419z"/>
</g>
<g>
	<path fill="#FFFFFF" d="M146.802,203.708c2.894,0,5.787,0,8.68,0c2.726,0,5-2.274,5-5s-2.274-5-5-5c-2.894,0-5.787,0-8.68,0
		c-2.726,0-5,2.274-5,5S144.076,203.708,146.802,203.708L146.802,203.708z"/>
</g>
<g>
	<path fill="#FFFFFF" d="M146.802,223.48c2.894,0,5.787,0,8.68,0c2.726,0,5-2.274,5-5s-2.274-5-5-5c-2.894,0-5.787,0-8.68,0
		c-2.726,0-5,2.274-5,5S144.076,223.48,146.802,223.48L146.802,223.48z"/>
</g>
<g>
	<path fill="#FFFFFF" d="M146.802,244.216c2.894,0,5.787,0,8.68,0c2.726,0,5-2.274,5-5s-2.274-5-5-5c-2.894,0-5.787,0-8.68,0
		c-2.726,0-5,2.274-5,5S144.076,244.216,146.802,244.216L146.802,244.216z"/>
</g>
<rect x="118.847" y="226.558" fill="#FFFFFF" stroke="#FFFFFF" stroke-width="10" stroke-miterlimit="10" width="16.396" height="34.038"/>
<path fill="none" stroke="#FFFFFF" stroke-width="10" stroke-miterlimit="10" d="M271.065,283.952c0,3.365-2.746,6.093-6.132,6.093
	H91.947c-3.386,0-6.132-2.728-6.132-6.093V164.888c0-3.365,2.746-6.093,6.132-6.093h172.985c3.386,0,6.132,2.728,6.132,6.093
	V283.952z"/>
<g>
	<path fill="#FFFFFF" d="M76.121,163.632c35.06-27.034,70.12-54.069,105.18-81.103c-1.682,0-3.365,0-5.047,0
		c35.06,27.034,70.12,54.069,105.18,81.103c0.841-3.106,1.682-6.211,2.523-9.317c-48.71,0-97.421,0-146.131,0
		c-21.41,0-42.819,0-64.229,0c-6.449,0-6.449,10,0,10c48.71,0,97.421,0,146.131,0c21.41,0,42.819,0,64.229,0
		c5.432,0,6.212-6.473,2.523-9.317c-35.06-27.034-70.12-54.069-105.18-81.103c-1.241-0.957-3.806-0.957-5.047,0
		c-35.06,27.034-70.12,54.069-105.18,81.103C66.044,158.875,71.014,167.57,76.121,163.632z"/>
</g>
</svg>
