<?xml version="1.0" encoding="iso-8859-1"?>
<!-- Generator: Adobe Illustrator 16.0.0, SVG Export Plug-In . SVG Version: 6.00 Build 0)  -->
<!DOCTYPE svg PUBLIC "-//W3C//DTD SVG 1.1 Tiny//EN" "http://www.w3.org/Graphics/SVG/1.1/DTD/svg11-tiny.dtd">
<svg version="1.1" baseProfile="tiny" id="temp_x5F_outside"
	 xmlns="http://www.w3.org/2000/svg" xmlns:xlink="http://www.w3.org/1999/xlink" x="0px" y="0px" width="361px" height="361px"
	 viewBox="0 0 361 361" xml:space="preserve">
<g>
	<polygon fill="#FFFFFF" points="72.56,159.045 72.315,78.045 179.116,159.045 	"/>
	<g>
		<path fill="#FFFFFF" d="M77.56,159.045c-0.082-27-0.163-54-0.245-81c-2.508,1.439-5.016,2.878-7.523,4.317
			c35.59,26.992,71.18,53.984,106.77,80.976c0.01,0.008,0.021,0.016,0.031,0.024c0.841-3.106,1.682-6.211,2.523-9.317
			c-35.519,0-71.038,0-106.557,0c-6.449,0-6.449,10,0,10c35.519,0,71.038,0,106.557,0c5.402,0,6.252-6.489,2.523-9.317
			c-35.59-26.992-71.18-53.984-106.77-80.976c-0.01-0.008-0.021-0.016-0.031-0.024c-3.125-2.371-7.534,0.868-7.523,4.317
			c0.082,27,0.163,54,0.245,81C67.579,165.493,77.579,165.495,77.56,159.045z"/>
	</g>
</g>
<path fill="none" stroke="#FFFFFF" stroke-width="10" stroke-miterlimit="10" d="M160.315,284.378c0,3.222-4.727,5.834-10.558,5.834
	H82.873c-5.832,0-10.558-2.612-10.558-5.834v-122.5c0-3.222,4.727-5.833,10.558-5.833h66.884c5.832,0,10.558,2.612,10.558,5.833
	V284.378z"/>
<path fill="none" stroke="#FFFFFF" stroke-width="10" stroke-miterlimit="10" d="M125.315,283.866c0,3.136-2.687,5.679-6,5.679
	h-23.5c-3.313,0-6-2.542-6-5.679v-68.143c0-3.136,2.687-5.679,6-5.679h23.5c3.313,0,6,2.542,6,5.679V283.866z"/>
<path fill="none" stroke="#FFFFFF" stroke-width="10" stroke-miterlimit="10" d="M253.371,251.466c0,2.231-1.959,4.041-4.376,4.041
	h-16.046c-2.417,0-4.376-1.809-4.376-4.041V139.441c0-2.231,1.959-4.041,4.376-4.041h16.046c2.417,0,4.376,1.809,4.376,4.041
	V251.466z"/>
<path fill="#FFFFFF" stroke="#FFFFFF" stroke-width="10" stroke-miterlimit="10" d="M259.935,285.168
	c0,2.417-1.536,4.376-3.431,4.376h-31.066c-1.895,0-3.431-1.959-3.431-4.376v-25.285c0-2.417,1.536-4.376,3.431-4.376h31.066
	c1.895,0,3.431,1.959,3.431,4.376V285.168z"/>
<g>
	<path fill="#FFFFFF" d="M270.853,149.154c4.376,0,8.752,0,13.129,0c6.449,0,6.449-10,0-10c-4.376,0-8.752,0-13.129,0
		C264.404,139.154,264.404,149.154,270.853,149.154L270.853,149.154z"/>
</g>
<g>
	<path fill="#FFFFFF" d="M270.853,178.329c4.376,0,8.752,0,13.129,0c6.449,0,6.449-10,0-10c-4.376,0-8.752,0-13.129,0
		C264.404,168.329,264.404,178.329,270.853,178.329L270.853,178.329z"/>
</g>
<g>
	<path fill="#FFFFFF" d="M270.853,208.233c4.376,0,8.752,0,13.129,0c6.449,0,6.449-10,0-10c-4.376,0-8.752,0-13.129,0
		C264.404,198.233,264.404,208.233,270.853,208.233L270.853,208.233z"/>
</g>
<g>
	<path fill="#FFFFFF" d="M270.853,239.597c4.376,0,8.752,0,13.129,0c6.449,0,6.449-10,0-10c-4.376,0-8.752,0-13.129,0
		C264.404,229.597,264.404,239.597,270.853,239.597L270.853,239.597z"/>
</g>
<rect x="228.571" y="215.452" fill="#FFFFFF" stroke="#FFFFFF" stroke-width="10" stroke-miterlimit="10" width="24.8" height="51.482"/>
</svg>
