<?xml version="1.0" encoding="iso-8859-1"?>
<!-- Generator: Adobe Illustrator 16.0.0, SVG Export Plug-In . SVG Version: 6.00 Build 0)  -->
<!DOCTYPE svg PUBLIC "-//W3C//DTD SVG 1.1//EN" "http://www.w3.org/Graphics/SVG/1.1/DTD/svg11.dtd">
<svg version="1.1" xmlns="http://www.w3.org/2000/svg" xmlns:xlink="http://www.w3.org/1999/xlink" x="0px" y="0px" width="361px"
	 height="361px" viewBox="0 0 361 361" style="enable-background:new 0 0 361 361;" xml:space="preserve">
<g id="temp_x5F_windchill">
	<g>
		<g>
			<path style="fill:#FFFFFF;" d="M183.983,128.219c4.229-1.258,8.513-2.353,12.844-3.195c5.906-1.149,11.071,0.669,16.59,2.689
				c7.573,2.773,15.314,7.22,23.585,7.594c7.584,0.344,15.701-4.572,22.595-7.222c5.297-2.036,10.722-4.133,16.455-3.259
				c4.719,0.719,9.399,2.033,13.97,3.393c1.858,0.553,2.646-2.342,0.797-2.893c-4.228-1.258-8.513-2.353-12.843-3.195
				c-5.37-1.045-9.78-0.16-14.938,1.538c-8.436,2.775-17.019,8.23-26.035,8.639c-5.043,0.229-10.941-2.752-15.529-4.583
				c-3.039-1.213-6.207-2.541-9.391-3.672c-5.043-1.792-9.606-2.93-14.927-2.119c-4.718,0.72-9.398,2.034-13.969,3.394
				C181.337,125.877,182.125,128.772,183.983,128.219L183.983,128.219z"/>
		</g>
	</g>
	<g>
		<g>
			<path style="fill:#FFFFFF;" d="M189.234,134.172c4.477-1.606,9.603-3.217,14.371-2.406c4.563,0.776,9.035,2.629,13.314,4.337
				c6.278,2.505,13.113,5.923,20.082,6.238c6.439,0.292,13.714-3.623,19.441-5.979c4.211-1.731,8.516-3.3,12.941-4.383
				c5.081-1.243,10.586,0.469,15.385,2.191c1.825,0.655,2.604-2.244,0.797-2.893c-4.163-1.495-8.523-2.583-12.953-2.759
				c-4.584-0.183-9.621,2.132-13.813,3.707c-6.967,2.619-14.19,6.77-21.798,7.115c-6.95,0.314-14.545-4.278-20.875-6.76
				c-4.488-1.76-9.138-3.464-13.949-4.026c-4.459-0.521-9.603,1.238-13.74,2.724C186.631,131.928,187.409,134.827,189.234,134.172
				L189.234,134.172z"/>
		</g>
	</g>
	<g>
		<g>
			<path style="fill:#FFFFFF;" d="M189.316,120.148c4.476-1.606,9.602-3.217,14.37-2.406c4.563,0.777,9.034,2.63,13.313,4.338
				c6.278,2.506,13.114,5.923,20.083,6.238c6.439,0.292,13.714-3.622,19.441-5.978c4.211-1.732,8.516-3.301,12.942-4.384
				c5.08-1.242,10.584,0.469,15.383,2.191c1.825,0.655,2.604-2.244,0.797-2.893c-4.162-1.494-8.522-2.583-12.951-2.759
				c-4.585-0.183-9.622,2.132-13.814,3.708c-6.967,2.619-14.19,6.77-21.798,7.114c-6.95,0.314-14.546-4.277-20.875-6.76
				c-4.489-1.761-9.138-3.465-13.949-4.027c-4.458-0.521-9.602,1.238-13.739,2.724C186.713,117.904,187.491,120.804,189.316,120.148
				L189.316,120.148z"/>
		</g>
	</g>
	<g>
		<g>
			<path style="fill:#FFFFFF;" d="M281.833,187.424c0,33.081,0,66.162,0,99.243c0,6.448,10,6.448,10,0c0-33.081,0-66.162,0-99.243
				C291.833,180.975,281.833,180.975,281.833,187.424L281.833,187.424z"/>
		</g>
	</g>
	
		<line style="fill:none;stroke:#FFFFFF;stroke-width:10;stroke-miterlimit:10;" x1="186.98" y1="203.533" x2="247.918" y2="176.748"/>
	
		<line style="fill:none;stroke:#FFFFFF;stroke-width:10;stroke-miterlimit:10;" x1="192.301" y1="219.188" x2="257.459" y2="212.354"/>
	<g>
		<polygon style="fill:#FFFFFF;" points="247.918,176.748 281.594,186.807 257.459,212.354 		"/>
		<g>
			<path style="fill:#FFFFFF;" d="M246.589,181.569c11.226,3.353,22.45,6.706,33.676,10.059c-0.735-2.785-1.471-5.571-2.206-8.356
				c-8.045,8.516-16.09,17.031-24.135,25.547c2.785,0.735,5.571,1.471,8.356,2.206c-3.181-11.869-6.36-23.737-9.541-35.606
				c-1.667-6.223-11.314-3.579-9.643,2.658c3.181,11.869,6.36,23.738,9.541,35.606c0.955,3.564,5.765,4.95,8.356,2.206
				c8.045-8.516,16.09-17.031,24.135-25.547c2.606-2.758,1.455-7.263-2.206-8.356c-11.226-3.353-22.45-6.706-33.676-10.059
				C243.053,170.076,240.426,179.728,246.589,181.569z"/>
		</g>
	</g>
	<path style="fill:#FFFFFF;" d="M201.344,218.599c0.588,2.352-0.922,4.759-3.371,5.373l-6.287,1.571
		c-2.452,0.613-4.916-0.799-5.505-3.15l-4.753-18.998c-0.59-2.354,0.92-4.758,3.371-5.372l6.287-1.572
		c2.449-0.612,4.915,0.798,5.504,3.15L201.344,218.599z"/>
	<path style="fill:#FFFFFF;" d="M221.037,213.234c0.578,2.312-0.537,4.582-2.492,5.072l-5.013,1.254
		c-1.954,0.488-4.007-0.989-4.585-3.301l-4.67-18.662c-0.58-2.311,0.537-4.581,2.491-5.07l5.013-1.254
		c1.953-0.488,4.006,0.988,4.586,3.301L221.037,213.234z"/>
	<path style="fill:#FFFFFF;" d="M243.361,209.447c0.727,2.9-0.27,5.648-2.224,6.139l-5.013,1.253
		c-1.955,0.489-4.127-1.466-4.854-4.366l-5.861-23.421c-0.725-2.9,0.271-5.649,2.226-6.139l5.013-1.253
		c1.953-0.488,4.127,1.466,4.854,4.366L243.361,209.447z"/>
	<path style="fill:none;stroke:#FFFFFF;stroke-width:10;stroke-miterlimit:10;" d="M135.5,234.127c0,3.06-2.687,5.54-6,5.54h-22
		c-3.313,0-6-2.48-6-5.54V80.541c0-3.06,2.687-5.54,6-5.54h22c3.313,0,6,2.48,6,5.54V234.127z"/>
	<path style="fill:#FFFFFF;stroke:#FFFFFF;stroke-width:10;stroke-miterlimit:10;" d="M144.5,280.334c0,3.313-2.106,6-4.704,6
		H97.204c-2.598,0-4.704-2.687-4.704-6v-34.666c0-3.314,2.106-6,4.704-6h42.592c2.598,0,4.704,2.686,4.704,6V280.334z"/>
	<g>
		<g>
			<path style="fill:#FFFFFF;" d="M148.5,91c6,0,12,0,18,0c6.449,0,6.449-10,0-10c-6,0-12,0-18,0C142.051,81,142.051,91,148.5,91
				L148.5,91z"/>
		</g>
	</g>
	<g>
		<g>
			<path style="fill:#FFFFFF;" d="M148.5,131c6,0,12,0,18,0c6.449,0,6.449-10,0-10c-6,0-12,0-18,0
				C142.051,121,142.051,131,148.5,131L148.5,131z"/>
		</g>
	</g>
	<g>
		<g>
			<path style="fill:#FFFFFF;" d="M148.5,172c6,0,12,0,18,0c6.449,0,6.449-10,0-10c-6,0-12,0-18,0
				C142.051,162,142.051,172,148.5,172L148.5,172z"/>
		</g>
	</g>
	<g>
		<g>
			<path style="fill:#FFFFFF;" d="M148.5,215c6,0,12,0,18,0c6.449,0,6.449-10,0-10c-6,0-12,0-18,0
				C142.051,205,142.051,215,148.5,215L148.5,215z"/>
		</g>
	</g>
	
		<rect x="101.499" y="192.829" style="fill:#FFFFFF;stroke:#FFFFFF;stroke-width:10;stroke-miterlimit:10;" width="34" height="62.505"/>
</g>
<g id="Ebene_1">
</g>
</svg>
