<?xml version="1.0" encoding="iso-8859-1"?>
<!-- Generator: Adobe Illustrator 16.0.3, SVG Export Plug-In . SVG Version: 6.00 Build 0)  -->
<!DOCTYPE svg PUBLIC "-//W3C//DTD SVG 1.1//EN" "http://www.w3.org/Graphics/SVG/1.1/DTD/svg11.dtd">
<svg version="1.1" xmlns="http://www.w3.org/2000/svg" xmlns:xlink="http://www.w3.org/1999/xlink" x="0px" y="0px" width="361px"
	 height="361px" viewBox="0 0 361 361" style="enable-background:new 0 0 361 361;" xml:space="preserve">
<g id="text_x5F_question_x5F_mark">
	<g id="_x32_40_1_">
		<path style="fill:#FFFFFF;" d="M174.875,115.832c-5.76,0-11.202,0.72-16.32,2.16c-5.123,1.44-10.8,3.761-17.04,6.96l-10.08-27.12
			c6.24-3.998,13.598-7.08,22.08-9.24c8.479-2.16,16.8-3.24,24.96-3.24c10.238,0,18.678,1.361,25.321,4.08
			c6.637,2.723,11.879,6.161,15.719,10.32c3.841,4.162,6.518,8.722,8.041,13.68c1.519,4.961,2.279,9.683,2.279,14.16
			c0,4.481-0.682,8.603-2.039,12.36c-1.361,3.761-3.083,7.241-5.16,10.44c-2.082,3.203-4.482,6.24-7.201,9.12
			c-2.722,2.88-5.361,5.603-7.92,8.16c-1.92,1.92-3.922,3.96-6,6.12c-2.08,2.16-3.959,4.44-5.639,6.84
			c-1.681,2.4-3.083,4.92-4.201,7.56c-1.121,2.64-1.68,5.321-1.68,8.04c0,0.641,0,1.602,0,2.88c0,1.282,0.079,2.399,0.24,3.36
			h-31.68c-0.322-1.598-0.521-3.398-0.6-5.4c-0.083-1.999-0.12-3.721-0.12-5.16c0-4.478,0.559-8.52,1.68-12.12
			c1.118-3.6,2.599-6.96,4.44-10.08c1.838-3.12,3.96-6.038,6.36-8.76c2.4-2.719,4.878-5.359,7.44-7.92
			c3.679-3.679,7.039-7.32,10.08-10.92c3.037-3.6,4.561-7.718,4.561-12.36c0-3.84-1.481-7.118-4.44-9.84
			C184.992,117.193,180.634,115.832,174.875,115.832z M197.194,236.553c0,7.042-2.28,12.479-6.84,16.319
			c-4.56,3.841-9.72,5.761-15.48,5.761c-5.76,0-10.92-1.92-15.48-5.761c-4.56-3.84-6.84-9.277-6.84-16.319
			c0-7.039,2.28-12.48,6.84-16.32c4.56-3.84,9.72-5.76,15.48-5.76c5.76,0,10.92,1.92,15.48,5.76S197.194,229.514,197.194,236.553z"
			/>
	</g>
</g>
<g id="Ebene_1">
</g>
</svg>
