<?xml version="1.0" encoding="iso-8859-1"?>
<!-- Generator: Adobe Illustrator 16.0.3, SVG Export Plug-In . SVG Version: 6.00 Build 0)  -->
<!DOCTYPE svg PUBLIC "-//W3C//DTD SVG 1.1//EN" "http://www.w3.org/Graphics/SVG/1.1/DTD/svg11.dtd">
<svg version="1.1" xmlns="http://www.w3.org/2000/svg" xmlns:xlink="http://www.w3.org/1999/xlink" x="0px" y="0px" width="361px"
	 height="361px" viewBox="0 0 361 361" style="enable-background:new 0 0 361 361;" xml:space="preserve">
<g id="text_x5F_na">
	<g id="_x31_00_2_">
		<path style="fill:#FFFFFF;" d="M136.233,217.764c-5.36-9.52-11.16-18.92-17.4-28.201c-6.24-9.279-12.881-18.039-19.92-26.279
			v54.48h-18.48v-83.161h15.24c2.64,2.64,5.56,5.88,8.76,9.72c3.199,3.84,6.459,7.94,9.78,12.3c3.319,4.361,6.619,8.88,9.9,13.56
			c3.28,4.68,6.36,9.18,9.24,13.5v-49.081h18.6v83.161H136.233z"/>
		<path style="fill:#FFFFFF;" d="M175.713,239.963h-18.36l40.333-116.16h18.106L175.713,239.963z"/>
		<path style="fill:#FFFFFF;" d="M270.385,217.764c-0.926-2.89-1.92-5.857-2.984-8.902c-1.065-3.045-2.127-6.08-3.183-9.098h-32.479
			c-1.05,3.033-2.104,6.072-3.157,9.121c-1.057,3.049-2.039,6.01-2.947,8.879h-19.44c3.13-8.959,6.097-17.239,8.906-24.84
			c2.809-7.6,5.556-14.761,8.244-21.48c2.688-6.72,5.337-13.099,7.944-19.14c2.608-6.04,5.317-11.94,8.127-17.7h17.744
			c2.732,5.76,5.425,11.661,8.078,17.7c2.65,6.041,5.324,12.42,8.018,19.14c2.691,6.72,5.444,13.881,8.257,21.48
			c2.813,7.601,5.786,15.881,8.921,24.84H270.385z M247.895,153.443c-0.418,1.208-1.029,2.852-1.834,4.929
			c-0.805,2.08-1.72,4.481-2.747,7.206c-1.027,2.725-2.177,5.725-3.446,9c-1.27,3.276-2.559,6.711-3.87,10.305h23.78
			c-1.272-3.605-2.504-7.051-3.697-10.336c-1.192-3.285-2.326-6.291-3.398-9.017c-1.075-2.724-2.016-5.124-2.826-7.202
			C249.045,156.252,248.391,154.625,247.895,153.443z"/>
	</g>
</g>
<g id="Ebene_1">
</g>
</svg>
