<?xml version="1.0" encoding="iso-8859-1"?>
<!-- Generator: Adobe Illustrator 16.0.0, SVG Export Plug-In . SVG Version: 6.00 Build 0)  -->
<!DOCTYPE svg PUBLIC "-//W3C//DTD SVG 1.1//EN" "http://www.w3.org/Graphics/SVG/1.1/DTD/svg11.dtd">
<svg version="1.1" xmlns="http://www.w3.org/2000/svg" xmlns:xlink="http://www.w3.org/1999/xlink" x="0px" y="0px" width="361px"
	 height="361px" viewBox="0 0 361 361" style="enable-background:new 0 0 361 361;" xml:space="preserve">
<g id="time_x5F_eco_x5F_mode">
	<g style="display:none;">
		<g style="display:inline;">
			<path style="fill:#FFFFFF;" d="M93.833,78.167c0,24.5,0,49,0,73.5c0,6.449,10,6.449,10,0c0-24.5,0-49,0-73.5
				C103.833,71.718,93.833,71.718,93.833,78.167L93.833,78.167z"/>
		</g>
	</g>
	<g style="display:none;">
		<g style="display:inline;">
			<path style="fill:#FFFFFF;" d="M99.833,120.167c9.5,0,19,0,28.5,0c6.449,0,6.449-10,0-10c-9.5,0-19,0-28.5,0
				C93.384,110.167,93.384,120.167,99.833,120.167L99.833,120.167z"/>
		</g>
	</g>
	<g style="display:none;">
		<g style="display:inline;">
			<path style="fill:#FFFFFF;" d="M99.333,157.167c13.833,0,27.667,0,41.5,0c6.449,0,6.449-10,0-10c-13.833,0-27.667,0-41.5,0
				C92.884,147.167,92.884,157.167,99.333,157.167L99.333,157.167z"/>
		</g>
	</g>
	<g style="display:none;">
		<g style="display:inline;">
			<path style="fill:#FFFFFF;" d="M98.833,82.667c13.833,0,27.667,0,41.5,0c6.449,0,6.449-10,0-10c-13.833,0-27.667,0-41.5,0
				C92.384,72.667,92.384,82.667,98.833,82.667L98.833,82.667z"/>
		</g>
	</g>
	<g style="display:none;">
		<g style="display:inline;">
			<path style="fill:#FFFFFF;" d="M153.833,78.167c0,24.5,0,49,0,73.5c0,6.449,10,6.449,10,0c0-24.5,0-49,0-73.5
				C163.833,71.718,153.833,71.718,153.833,78.167L153.833,78.167z"/>
		</g>
	</g>
	<g style="display:none;">
		<g style="display:inline;">
			<path style="fill:#FFFFFF;" d="M159.333,157.167c13.833,0,27.667,0,41.5,0c6.448,0,6.448-10,0-10c-13.833,0-27.667,0-41.5,0
				C152.884,147.167,152.884,157.167,159.333,157.167L159.333,157.167z"/>
		</g>
	</g>
	<g style="display:none;">
		<g style="display:inline;">
			<path style="fill:#FFFFFF;" d="M158.833,82.667c13.833,0,27.667,0,41.5,0c6.448,0,6.448-10,0-10c-13.833,0-27.667,0-41.5,0
				C152.384,72.667,152.384,82.667,158.833,82.667L158.833,82.667z"/>
		</g>
	</g>
	<g style="display:none;">
		<g style="display:inline;">
			<path style="fill:#FFFFFF;" d="M215.833,78.167c0,24.5,0,49,0,73.5c0,6.449,10,6.449,10,0c0-24.5,0-49,0-73.5
				C225.833,71.718,215.833,71.718,215.833,78.167L215.833,78.167z"/>
		</g>
	</g>
	<g style="display:none;">
		<g style="display:inline;">
			<path style="fill:#FFFFFF;" d="M221.333,157.167c13.833,0,27.667,0,41.5,0c6.448,0,6.448-10,0-10c-13.833,0-27.667,0-41.5,0
				C214.885,147.167,214.885,157.167,221.333,157.167L221.333,157.167z"/>
		</g>
	</g>
	<g style="display:none;">
		<g style="display:inline;">
			<path style="fill:#FFFFFF;" d="M220.833,82.667c13.833,0,27.667,0,41.5,0c6.448,0,6.448-10,0-10c-13.833,0-27.667,0-41.5,0
				C214.385,72.667,214.385,82.667,220.833,82.667L220.833,82.667z"/>
		</g>
	</g>
	<g style="display:none;">
		<g style="display:inline;">
			<path style="fill:#FFFFFF;" d="M257.833,78.167c0,24.5,0,49,0,73.5c0,6.449,10,6.449,10,0c0-24.5,0-49,0-73.5
				C267.833,71.718,257.833,71.718,257.833,78.167L257.833,78.167z"/>
		</g>
	</g>
	<g>
		<g>
			<path style="fill:#FFFFFF;" d="M282.515,204.413c-0.359,0.998,0.535-1.114-0.011,0.001c-0.182,0.372-0.395,0.729-0.604,1.086
				c-0.53,0.906-1.145,1.762-1.763,2.608c-1.799,2.463-3.995,4.694-6.144,6.855c-6.521,6.561-13.982,12.087-21.843,16.93
				c-23.196,14.294-50.467,20.206-77.483,20.865c-11.433,0.278-22.96-0.694-33.97-3.893c-6.407-1.86-13.968-4.9-17.895-10.637
				c-10.724-15.664,9.56-29.464,21.531-35.581c26.887-13.741,58.948-16.143,88.583-13.888c12.419,0.944,24.946,2.922,36.774,6.915
				c3.584,1.211,7.484,2.725,10.492,5.084c1.113,0.874,1.704,1.473,2.28,2.428C282.785,203.721,282.723,203.7,282.515,204.413
				c-1.813,6.204,7.839,8.835,9.643,2.658c4.281-14.659-18.265-20.956-28.165-23.496c-22.253-5.709-46.25-6.698-69.05-4.633
				c-23.635,2.14-49.385,8.519-68.604,23.076c-13.084,9.909-21.926,25.815-12.17,41.259c7.552,11.954,24.154,16.144,37.151,18.075
				c22.458,3.34,46.22,0.944,68.11-4.72c18.859-4.879,36.472-13.953,51.79-25.909c7.702-6.011,17.504-14.101,20.938-23.651
				C294.346,200.988,284.68,198.393,282.515,204.413z"/>
		</g>
	</g>
	<g>
		<g>
			<path style="fill:#FFFFFF;" d="M80.864,286.99c-0.142-11.393,7.241-20.589,15.359-27.808
				c12.44-11.063,28.333-18.429,43.724-24.354c45.703-17.595,95.892-23.797,144.562-25.058c6.437-0.167,6.452-10.167,0-10
				c-51.242,1.327-104.253,8.037-152.091,27.334c-24.563,9.908-61.945,28.457-61.554,59.886
				C70.944,293.434,80.944,293.441,80.864,286.99L80.864,286.99z"/>
		</g>
	</g>
	<g>
		<path style="fill:#FFFFFF;" d="M98.863,154.304v-83.16h37.32v9.24h-26.52v25.8h24v9h-24v29.88h28.44v9.24H98.863z"/>
		<path style="fill:#FFFFFF;" d="M178.423,156.104c-9.761,0-17.24-3.639-22.44-10.92c-5.201-7.279-7.8-18.519-7.8-33.72
			c0-7.759,0.739-14.319,2.22-19.68c1.479-5.359,3.54-9.72,6.18-13.08s5.76-5.779,9.36-7.26c3.6-1.479,7.519-2.22,11.76-2.22
			c3.52,0,6.799,0.461,9.84,1.38c3.039,0.921,5.52,2.061,7.439,3.42l-3.239,9c-1.92-1.279-3.981-2.32-6.181-3.12
			c-2.201-0.799-4.739-1.2-7.62-1.2c-6.401,0-11.04,2.661-13.92,7.98c-2.88,5.321-4.32,13.581-4.32,24.78
			c0,11.28,1.519,19.961,4.56,26.04c3.039,6.081,7.999,9.12,14.88,9.12c3.279,0,5.94-0.399,7.98-1.2
			c2.04-0.799,4.02-1.839,5.939-3.12l3,8.52c-1.841,1.44-4.26,2.681-7.26,3.72C185.803,155.583,182.342,156.104,178.423,156.104z"/>
		<path style="fill:#FFFFFF;" d="M262.543,112.784c0,6.48-0.581,12.381-1.74,17.7c-1.16,5.321-2.961,9.881-5.399,13.68
			c-2.441,3.801-5.521,6.741-9.24,8.82c-3.72,2.079-8.101,3.12-13.14,3.12c-5.041,0-9.42-1.041-13.141-3.12
			c-3.72-2.08-6.801-5.02-9.24-8.82c-2.441-3.799-4.26-8.358-5.459-13.68c-1.201-5.319-1.801-11.22-1.801-17.7
			s0.6-12.399,1.801-17.76c1.199-5.359,3.018-9.939,5.459-13.74c2.439-3.799,5.521-6.759,9.24-8.88
			c3.721-2.119,8.1-3.18,13.141-3.18c5.039,0,9.42,1.062,13.14,3.18c3.72,2.121,6.799,5.081,9.24,8.88
			c2.438,3.801,4.239,8.381,5.399,13.74C261.962,100.385,262.543,106.304,262.543,112.784z M251.023,112.784
			c0-5.04-0.32-9.639-0.961-13.8c-0.641-4.159-1.68-7.74-3.119-10.74c-1.44-3-3.301-5.34-5.58-7.02c-2.28-1.68-5.061-2.52-8.34-2.52
			c-3.281,0-6.061,0.84-8.34,2.52c-2.28,1.68-4.141,4.02-5.58,7.02c-1.44,3-2.502,6.582-3.181,10.74
			c-0.681,4.161-1.02,8.76-1.02,13.8s0.339,9.641,1.02,13.8c0.679,4.161,1.74,7.722,3.181,10.68c1.439,2.96,3.3,5.261,5.58,6.9
			c2.279,1.641,5.059,2.46,8.34,2.46c3.279,0,6.06-0.819,8.34-2.46c2.279-1.639,4.14-3.939,5.58-6.9
			c1.439-2.958,2.479-6.52,3.119-10.68C250.703,122.425,251.023,117.824,251.023,112.784z"/>
	</g>
</g>
<g id="Ebene_1">
</g>
</svg>
