<?xml version="1.0" encoding="iso-8859-1"?>
<!-- Generator: Adobe Illustrator 16.0.0, SVG Export Plug-In . SVG Version: 6.00 Build 0)  -->
<!DOCTYPE svg PUBLIC "-//W3C//DTD SVG 1.1//EN" "http://www.w3.org/Graphics/SVG/1.1/DTD/svg11.dtd">
<svg version="1.1" xmlns="http://www.w3.org/2000/svg" xmlns:xlink="http://www.w3.org/1999/xlink" x="0px" y="0px" width="361px"
	 height="361px" viewBox="0 0 361 361" style="enable-background:new 0 0 361 361;" xml:space="preserve">
<g id="time_x5F_statistic">
	<path style="fill:none;stroke:#FFFFFF;stroke-width:10;stroke-miterlimit:10;" d="M116.167,280.287c0,3.709-2.687,6.713-6,6.713
		h-29c-3.313,0-6-3.004-6-6.713V136.713c0-3.708,2.687-6.713,6-6.713h29c3.313,0,6,3.005,6,6.713V280.287z"/>
	<path style="fill:none;stroke:#FFFFFF;stroke-width:10;stroke-miterlimit:10;" d="M172.167,278.635c0,4.621-2.687,8.365-6,8.365
		h-29c-3.313,0-6-3.744-6-8.365V99.7c0-4.62,2.687-8.366,6-8.366h29c3.313,0,6,3.746,6,8.366V278.635z"/>
	<path style="fill:none;stroke:#FFFFFF;stroke-width:10;stroke-miterlimit:10;" d="M229.167,283.096c0,2.156-2.687,3.904-6,3.904
		h-29c-3.313,0-6-1.748-6-3.904v-83.523c0-2.156,2.687-3.905,6-3.905h29c3.313,0,6,1.749,6,3.905V283.096z"/>
	<path style="fill:none;stroke:#FFFFFF;stroke-width:10;stroke-miterlimit:10;" d="M286.167,281.186c0,3.212-2.687,5.814-6,5.814
		h-29c-3.313,0-6-2.603-6-5.814v-124.37c0-3.211,2.687-5.815,6-5.815h29c3.313,0,6,2.604,6,5.815V281.186z"/>
</g>
<g id="Ebene_1">
</g>
</svg>
