<?xml version="1.0" encoding="iso-8859-1"?>
<!-- Generator: Adobe Illustrator 16.0.0, SVG Export Plug-In . SVG Version: 6.00 Build 0)  -->
<!DOCTYPE svg PUBLIC "-//W3C//DTD SVG 1.1 Tiny//EN" "http://www.w3.org/Graphics/SVG/1.1/DTD/svg11-tiny.dtd">
<svg version="1.1" baseProfile="tiny" id="time_x5F_calendar"
	 xmlns="http://www.w3.org/2000/svg" xmlns:xlink="http://www.w3.org/1999/xlink" x="0px" y="0px" width="361px" height="361px"
	 viewBox="0 0 361 361" xml:space="preserve">
<path fill="none" stroke="#FFFFFF" stroke-width="10" stroke-miterlimit="10" d="M246.815,104.808c0,4.272-3.464,7.737-7.737,7.737
	h-9.026c-4.272,0-7.737-3.464-7.737-7.737v-9.026c0-4.272,3.464-7.737,7.737-7.737h9.026c4.272,0,7.737,3.464,7.737,7.737V104.808z"
	/>
<path fill="none" stroke="#FFFFFF" stroke-width="10" stroke-miterlimit="10" d="M133.815,104.808c0,4.272-3.464,7.737-7.737,7.737
	h-9.026c-4.272,0-7.737-3.464-7.737-7.737v-9.026c0-4.272,3.464-7.737,7.737-7.737h9.026c4.272,0,7.737,3.464,7.737,7.737V104.808z"
	/>
<path fill="#FFFFFF" stroke="#FFFFFF" stroke-width="10" stroke-miterlimit="10" d="M284.315,147.545c0,3.313-2.711,6-6.054,6
	H78.466c-3.344,0-6.055-2.687-6.055-6v-29c0-3.313,2.711-6,6.055-6h199.795c3.343,0,6.054,2.687,6.054,6V147.545z"/>
<path fill="none" stroke="#FFFFFF" stroke-width="10" stroke-miterlimit="10" d="M284.417,282.781c0,3.459-2.706,6.264-6.042,6.264
	H78.462c-3.337,0-6.043-2.805-6.043-6.264V151.24c0-3.459,2.706-6.264,6.043-6.264h199.913c3.337,0,6.042,2.805,6.042,6.264V282.781
	z"/>
<g>
	<polygon fill="#FFFFFF" points="242.583,288.302 243.039,248.19 283.152,248.103 	"/>
	<g>
		<path fill="#FFFFFF" d="M247.583,288.302c0.152-13.371,0.304-26.741,0.456-40.112c-1.667,1.667-3.333,3.333-5,5
			c13.371-0.029,26.742-0.058,40.113-0.087c-1.179-2.845-2.357-5.69-3.536-8.536c-13.523,13.4-27.046,26.799-40.569,40.199
			c-4.585,4.544,2.488,11.613,7.071,7.071c13.523-13.4,27.046-26.799,40.569-40.199c3.1-3.072,0.814-8.545-3.536-8.536
			c-13.371,0.029-26.742,0.058-40.113,0.087c-2.749,0.006-4.969,2.271-5,5c-0.152,13.371-0.304,26.741-0.456,40.112
			C237.51,294.753,247.51,294.746,247.583,288.302z"/>
	</g>
</g>
<g>
	<path fill="#FFFFFF" d="M140.315,188.545c0,25.167,0,50.333,0,75.5c0,6.449,10,6.449,10,0c0-25.167,0-50.333,0-75.5
		C150.315,182.096,140.315,182.096,140.315,188.545L140.315,188.545z"/>
</g>
<g>
	<path fill="#FFFFFF" d="M207.315,189.045c0,25,0,50,0,75c0,6.449,10,6.449,10,0c0-25,0-50,0-75
		C217.315,182.596,207.315,182.596,207.315,189.045L207.315,189.045z"/>
</g>
<g>
	<path fill="#FFFFFF" d="M181.315,232.545c9.5,0,19,0,28.5,0c6.449,0,6.449-10,0-10c-9.5,0-19,0-28.5,0
		C174.866,222.545,174.866,232.545,181.315,232.545L181.315,232.545z"/>
</g>
<g>
	<path fill="#FFFFFF" d="M175.815,188.545c0,12.167,0,24.333,0,36.5c0,6.449,10,6.449,10,0c0-12.167,0-24.333,0-36.5
		C185.815,182.096,175.815,182.096,175.815,188.545L175.815,188.545z"/>
</g>
</svg>
