<?xml version="1.0" encoding="iso-8859-1"?>
<!-- Generator: Adobe Illustrator 16.0.0, SVG Export Plug-In . SVG Version: 6.00 Build 0)  -->
<!DOCTYPE svg PUBLIC "-//W3C//DTD SVG 1.1//EN" "http://www.w3.org/Graphics/SVG/1.1/DTD/svg11.dtd">
<svg version="1.1" xmlns="http://www.w3.org/2000/svg" xmlns:xlink="http://www.w3.org/1999/xlink" x="0px" y="0px" width="361px"
	 height="361px" viewBox="0 0 361 361" style="enable-background:new 0 0 361 361;" xml:space="preserve">
<g id="time_x5F_timer_x5F_switch">
	<path style="fill:none;stroke:#FFFFFF;stroke-width:10;stroke-miterlimit:10;" d="M286.936,279.902c0,3.46-2.706,6.265-6.043,6.265
		H80.98c-3.337,0-6.043-2.805-6.043-6.265V81.362c0-3.459,2.706-6.264,6.043-6.264h199.913c3.337,0,6.043,2.805,6.043,6.264V279.902
		z"/>
	<g>
		<path style="fill:#FFFFFF;" d="M108.709,113.784c1.701-0.675,3.41-1.54,5.126-2.596s3.234-2.302,4.554-3.74h3.74v30.492h-5.324
			v-23.364c-0.792,0.616-1.79,1.217-2.992,1.804c-1.203,0.587-2.361,1.071-3.476,1.452L108.709,113.784z"/>
		<path style="fill:#FFFFFF;" d="M146.549,125.356c-0.704,0.323-1.481,0.572-2.332,0.748c-0.851,0.176-1.672,0.264-2.464,0.264
			c-1.819,0-3.366-0.242-4.642-0.726c-1.276-0.484-2.318-1.159-3.124-2.024c-0.807-0.865-1.401-1.87-1.782-3.014
			c-0.381-1.144-0.572-2.376-0.572-3.696c0-1.144,0.19-2.31,0.572-3.498c0.381-1.188,0.982-2.281,1.804-3.278
			c0.821-0.997,1.862-1.811,3.124-2.442c1.261-0.63,2.757-0.946,4.488-0.946c3.579,0,6.285,1.151,8.118,3.454
			c1.833,2.303,2.75,5.552,2.75,9.746c0,5.926-1.525,10.414-4.576,13.464c-3.051,3.051-7.729,4.591-14.036,4.62l-0.22-4.444
			c1.76,0,3.351-0.146,4.774-0.44c1.422-0.293,2.669-0.763,3.74-1.408c1.07-0.645,1.972-1.488,2.706-2.53
			C145.61,128.165,146.167,126.881,146.549,125.356z M142.369,122.144c0.851,0,1.687-0.081,2.508-0.242
			c0.821-0.161,1.524-0.403,2.112-0.726c0.029-0.322,0.044-0.601,0.044-0.836c0-0.234,0-0.44,0-0.616
			c0-1.173-0.081-2.281-0.242-3.322c-0.161-1.041-0.44-1.95-0.836-2.728c-0.396-0.777-0.939-1.393-1.628-1.848
			c-0.689-0.455-1.547-0.682-2.574-0.682c-0.852,0-1.577,0.176-2.178,0.528c-0.602,0.352-1.093,0.807-1.474,1.364
			c-0.381,0.557-0.66,1.159-0.836,1.804c-0.176,0.646-0.264,1.276-0.264,1.892c0,1.79,0.433,3.139,1.298,4.048
			C139.164,121.689,140.521,122.144,142.369,122.144z"/>
		<path style="fill:#FFFFFF;" d="M192.088,129.228c0-0.968-0.191-1.833-0.572-2.596c-0.381-0.762-1.049-1.408-2.002-1.936
			c-0.953-0.528-2.229-0.924-3.828-1.188c-1.599-0.264-3.615-0.396-6.05-0.396c0.323-2.816,0.572-5.492,0.748-8.03
			c0.176-2.537,0.322-5.082,0.44-7.634H196.4v4.488h-11.045c-0.029,0.499-0.065,1.063-0.109,1.694
			c-0.045,0.631-0.088,1.269-0.133,1.914c-0.043,0.646-0.096,1.262-0.153,1.848c-0.06,0.587-0.118,1.085-0.177,1.496
			c4.342,0.235,7.547,1.225,9.615,2.97c2.067,1.746,3.102,4.129,3.102,7.15c0,1.379-0.235,2.655-0.704,3.828
			c-0.47,1.173-1.188,2.186-2.156,3.036c-0.968,0.851-2.186,1.518-3.651,2.002c-1.468,0.484-3.184,0.726-5.148,0.726
			c-0.792,0-1.6-0.059-2.42-0.176c-0.822-0.118-1.605-0.257-2.354-0.418c-0.749-0.161-1.416-0.33-2.002-0.506
			c-0.587-0.176-1.027-0.337-1.32-0.484l1.012-4.488c0.616,0.293,1.503,0.609,2.662,0.946c1.158,0.337,2.574,0.506,4.246,0.506
			c1.144,0,2.126-0.125,2.947-0.374c0.821-0.249,1.488-0.594,2.002-1.034s0.887-0.946,1.123-1.518
			C191.971,130.482,192.088,129.874,192.088,129.228z"/>
		<path style="fill:#FFFFFF;" d="M207.004,137.94c0.176-2.229,0.572-4.576,1.188-7.04c0.616-2.464,1.371-4.862,2.266-7.194
			s1.877-4.517,2.949-6.556c1.07-2.039,2.133-3.747,3.189-5.126H202.56v-4.576h20.372v4.048c-0.969,1.085-2.023,2.567-3.168,4.444
			c-1.145,1.877-2.229,3.997-3.256,6.358c-1.027,2.362-1.914,4.892-2.662,7.59s-1.21,5.383-1.387,8.052H207.004z"/>
	</g>
	<g>
		<path style="fill:#FFFFFF;" d="M170.289,114.307c0,1.027-0.345,1.863-1.034,2.508c-0.689,0.646-1.518,0.968-2.486,0.968
			c-0.998,0-1.833-0.323-2.508-0.968c-0.675-0.645-1.012-1.481-1.012-2.508c0-1.026,0.337-1.87,1.012-2.53
			c0.674-0.66,1.51-0.99,2.508-0.99c0.968,0,1.796,0.33,2.486,0.99C169.943,112.437,170.289,113.281,170.289,114.307z
			 M170.289,130.763c0,1.027-0.345,1.863-1.034,2.508c-0.689,0.645-1.518,0.968-2.486,0.968c-0.998,0-1.833-0.323-2.508-0.968
			c-0.675-0.645-1.012-1.481-1.012-2.508s0.337-1.87,1.012-2.53c0.674-0.66,1.51-0.99,2.508-0.99c0.968,0,1.796,0.33,2.486,0.99
			C169.943,128.893,170.289,129.736,170.289,130.763z"/>
	</g>
	<g>
		<g>
			<path style="fill:#FFFFFF;" d="M267.741,175.382c-0.587,2.246-3.831,1.411-5.528,1.411c-4.129,0-8.258,0-12.386,0
				c-13.557,0-27.113,0-40.669,0c-30.561,0-61.122,0-91.683,0c-6.862,0-13.725,0-20.588,0c-2.517,0-1.199-24.026-1.199-26.198
				c0-15.164,0-30.327,0-45.49c0-0.838-0.861-9.937,0.931-9.937c1.634,0,3.267,0,4.901,0c52.927,0,105.854,0,158.781,0
				c2.204,0,7.386-1.211,7.386,2.026c0,8.058,0,16.115,0,24.172c0,18.139,0,36.277,0,54.416c0,1.935,3,1.935,3,0
				c0-24.568,0-49.137,0-73.706c0-3.141,0.698-6.704-1.641-9.126c-1.141-1.183-4.052-0.782-5.53-0.782c-9.586,0-19.172,0-28.757,0
				c-31.443,0-62.887,0-94.33,0c-11.715,0-23.431,0-35.146,0c-4.094,0-12.595-1.66-12.595,4.589c0,25.342,0,50.685,0,76.027
				c0,2.857-0.133,7.009,3.954,7.009c1.75,0,3.499,0,5.248,0c10.547,0,21.094,0,31.642,0c29.509,0,59.018,0,88.526,0
				c11.354,0,22.707,0,34.062,0c4.287,0,13.089,1.841,14.514-3.613C271.123,174.306,268.229,173.512,267.741,175.382z"/>
		</g>
	</g>
	<g>
		<g>
			<path style="fill:#FFFFFF;" d="M114.5,168.833c4,0,8,0,12,0c4.514,0,4.514-7,0-7c-4,0-8,0-12,0
				C109.986,161.833,109.986,168.833,114.5,168.833L114.5,168.833z"/>
		</g>
	</g>
	<g>
		<g>
			<path style="fill:#FFFFFF;" d="M249.833,132.167c2.667,0,5.334,0,8.001,0c4.514,0,4.514-7,0-7c-2.667,0-5.334,0-8.001,0
				C245.319,125.167,245.319,132.167,249.833,132.167L249.833,132.167z"/>
		</g>
	</g>
	<g>
		<g>
			<path style="fill:#FFFFFF;" d="M243.854,144.417c4.917,0,9.834,0,14.751,0c4.514,0,4.514-7,0-7c-4.917,0-9.834,0-14.751,0
				C239.341,137.417,239.341,144.417,243.854,144.417L243.854,144.417z"/>
		</g>
	</g>
	<g>
		<g>
			<path style="fill:#FFFFFF;" d="M240.5,168.833c5.778,0,11.556,0,17.334,0c4.514,0,4.514-7,0-7c-5.778,0-11.556,0-17.334,0
				C235.986,161.833,235.986,168.833,240.5,168.833L240.5,168.833z"/>
		</g>
	</g>
	<g>
		<g>
			<path style="fill:#FFFFFF;" d="M105.177,235.599c6.702-11.608,13.404-23.216,20.106-34.824c-2.015,0-4.029,0-6.044,0
				c6.702,11.608,13.403,23.216,20.105,34.824c1.007-1.756,2.015-3.511,3.022-5.267c-13.404,0-26.808,0-40.211,0
				c-4.514,0-4.514,7,0,7c13.404,0,26.808,0,40.211,0c2.664,0,4.348-2.971,3.022-5.267c-6.702-11.608-13.403-23.216-20.105-34.824
				c-1.311-2.271-4.733-2.271-6.044,0c-6.702,11.608-13.404,23.216-20.106,34.824C96.872,235.982,102.922,239.506,105.177,235.599z"
				/>
		</g>
	</g>
	<g>
		<g>
			<path style="fill:#FFFFFF;" d="M256.583,197.241c-6.702,11.608-13.404,23.216-20.107,34.824c2.015,0,4.03,0,6.045,0
				c-6.701-11.608-13.402-23.216-20.104-34.824c-1.008,1.756-2.015,3.511-3.022,5.267c13.403,0,26.808,0,40.211,0
				c4.514,0,4.514-7,0-7c-13.403,0-26.808,0-40.211,0c-2.664,0-4.348,2.971-3.022,5.267c6.701,11.608,13.402,23.216,20.104,34.824
				c1.312,2.271,4.733,2.271,6.045,0c6.702-11.608,13.404-23.216,20.107-34.824C264.889,196.857,258.839,193.334,256.583,197.241z"
				/>
		</g>
	</g>
	<g>
		<g>
			<path style="fill:#FFFFFF;" d="M187.541,228.735c-0.353,2.621-4.518,1.597-6.633,1.597c-2.219,0-4.438,0-6.657,0
				c-0.952,0-0.254-1.333,0.267-1.333c0.416,0,0.832,0,1.248,0c1.442,0,2.885,0,4.327,0c0.87,0,7.139-0.706,7.323,0.667
				c0.592,4.405,7.6,4.463,7,0c-1.044-7.771-7.277-7.667-13.508-7.667c-5.46,0-13.19-0.771-14.175,6.56
				c-0.554,4.124,1.869,6.977,5.479,8.5c1.899,0.801,5.103,0.273,7.072,0.273c5.757,0,13.964,1.023,15.007-6.735
				C194.884,226.185,188.14,224.279,187.541,228.735z"/>
		</g>
	</g>
	<g>
		<g>
			<path style="fill:#FFFFFF;" d="M187.416,203.174c-0.185,1.373-6.453,0.667-7.323,0.667c-1.442,0-2.885,0-4.327,0
				c-0.416,0-0.832,0-1.248,0c0.172,0-5.139-0.679-0.267-1.333c2.136-0.287,4.505,0,6.657,0c2.096,0,6.276-1.062,6.633,1.597
				c0.599,4.456,7.343,2.551,6.75-1.861c-1.004-7.47-8.583-6.735-14.198-6.735c-1.947,0-3.895,0-5.842,0
				c-3.713,0-8.217,3.57-7.667,7.666c1.044,7.772,7.273,7.667,13.509,7.667c6.415,0,13.229,0.474,14.323-7.667
				C195.016,198.711,188.008,198.769,187.416,203.174z"/>
		</g>
	</g>
</g>
<g id="Ebene_1">
</g>
</svg>
