<?xml version="1.0" encoding="iso-8859-1"?>
<!-- Generator: Adobe Illustrator 16.0.0, SVG Export Plug-In . SVG Version: 6.00 Build 0)  -->
<!DOCTYPE svg PUBLIC "-//W3C//DTD SVG 1.1//EN" "http://www.w3.org/Graphics/SVG/1.1/DTD/svg11.dtd">
<svg version="1.1" xmlns="http://www.w3.org/2000/svg" xmlns:xlink="http://www.w3.org/1999/xlink" x="0px" y="0px" width="361px"
	 height="361px" viewBox="0 0 361 361" style="enable-background:new 0 0 361 361;" xml:space="preserve">
<g id="time_x5F_note">
	<path style="fill:none;stroke:#FFFFFF;stroke-width:10;stroke-miterlimit:10;" d="M286.755,81.616c0-3.562-2.888-6.449-6.448-6.449
		H128.782c-3.562,0-6.449,2.887-6.449,6.449v198.273c0,3.561,2.887,6.447,6.449,6.447h151.525c3.561,0,6.448-2.887,6.448-6.447
		V81.616z"/>
	<path style="fill:#FFFFFF;" d="M97.515,97.588c1.351,3.575-0.474,7.575-4.074,8.934l-7.877,2.974c-3.6,1.36-7.613-0.437-8.962-4.01
		l-6.314-16.72c-1.35-3.574,0.474-7.574,4.075-8.934l7.876-2.974c3.601-1.36,7.613,0.437,8.963,4.01L97.515,97.588z"/>
	<path style="fill:#FFFFFF;" d="M140.703,211.955c1.314,3.479-0.442,7.366-3.921,8.68l-8.138,3.074
		c-3.48,1.313-7.366-0.443-8.68-3.922L81.5,117.93c-1.314-3.479,0.441-7.366,3.921-8.68l8.138-3.073
		c3.479-1.314,7.366,0.442,8.68,3.921L140.703,211.955z"/>
	<path style="fill:#FFFFFF;" d="M151.775,241.273c1.349,3.574-0.475,7.574-4.075,8.934l-7.875,2.975
		c-3.601,1.359-7.613-0.437-8.963-4.012l-6.314-16.72c-1.35-3.573,0.475-7.574,4.075-8.934l7.876-2.974
		c3.6-1.359,7.613,0.436,8.963,4.01L151.775,241.273z"/>
	<g>
		<polygon style="fill:#FFFFFF;" points="149.682,255.058 150.953,272.275 140.527,258.515 		"/>
		<g>
			<path style="fill:#FFFFFF;" d="M144.682,255.058c0.424,5.739,0.848,11.479,1.271,17.218c3.106-0.841,6.211-1.683,9.317-2.523
				c-3.476-4.587-6.951-9.174-10.426-13.761c-0.996,2.448-1.992,4.896-2.988,7.345c3.052-1.152,6.104-2.305,9.155-3.457
				c5.973-2.256,3.386-11.925-2.658-9.643c-3.052,1.152-6.104,2.305-9.155,3.457c-2.691,1.016-5.105,4.551-2.988,7.345
				c3.476,4.587,6.951,9.174,10.426,13.761c2.672,3.526,9.725,2.997,9.317-2.523c-0.424-5.739-0.848-11.479-1.271-17.218
				C154.209,248.667,144.207,248.621,144.682,255.058z"/>
		</g>
	</g>
	<g>
		<g>
			<path style="fill:#FFFFFF;" d="M145.833,111.667c38.167,0,76.333,0,114.5,0c6.448,0,6.448-10,0-10c-38.167,0-76.333,0-114.5,0
				C139.384,101.667,139.384,111.667,145.833,111.667L145.833,111.667z"/>
		</g>
	</g>
	<g>
		<g>
			<path style="fill:#FFFFFF;" d="M145.833,165.667c38.167,0,76.333,0,114.5,0c6.448,0,6.448-10,0-10c-38.167,0-76.333,0-114.5,0
				C139.384,155.667,139.384,165.667,145.833,165.667L145.833,165.667z"/>
		</g>
	</g>
	<g>
		<g>
			<path style="fill:#FFFFFF;" d="M145.833,138.667c38.167,0,76.333,0,114.5,0c6.448,0,6.448-10,0-10c-38.167,0-76.333,0-114.5,0
				C139.384,128.667,139.384,138.667,145.833,138.667L145.833,138.667z"/>
		</g>
	</g>
	<g>
		<g>
			<path style="fill:#FFFFFF;" d="M145.833,194.667c38.167,0,76.333,0,114.5,0c6.448,0,6.448-10,0-10c-38.167,0-76.333,0-114.5,0
				C139.384,184.667,139.384,194.667,145.833,194.667L145.833,194.667z"/>
		</g>
	</g>
	<g>
		<g>
			<path style="fill:#FFFFFF;" d="M157.333,221.667c34,0,68,0,102,0c6.448,0,6.448-10,0-10c-34,0-68,0-102,0
				C150.884,211.667,150.884,221.667,157.333,221.667L157.333,221.667z"/>
		</g>
	</g>
	<g>
		<g>
			<path style="fill:#FFFFFF;" d="M171.333,249.667c29.333,0,58.667,0,88,0c6.448,0,6.448-10,0-10c-29.333,0-58.667,0-88,0
				C164.884,239.667,164.884,249.667,171.333,249.667L171.333,249.667z"/>
		</g>
	</g>
</g>
<g id="Ebene_1">
</g>
</svg>
