<?xml version="1.0" encoding="iso-8859-1"?>
<!-- Generator: Adobe Illustrator 16.0.0, SVG Export Plug-In . SVG Version: 6.00 Build 0)  -->
<!DOCTYPE svg PUBLIC "-//W3C//DTD SVG 1.1//EN" "http://www.w3.org/Graphics/SVG/1.1/DTD/svg11.dtd">
<svg version="1.1" xmlns="http://www.w3.org/2000/svg" xmlns:xlink="http://www.w3.org/1999/xlink" x="0px" y="0px" width="361px"
	 height="361px" viewBox="0 0 361 361" style="enable-background:new 0 0 361 361;" xml:space="preserve">
<g id="time_x5F_manual_x5F_mode">
	<g>
		<g>
			<g>
				<path style="fill:#FFFFFF;" d="M180.123,178.697c0-24.831,0-49.662,0-74.493c0-5.497,0-10.993,0-16.489
					c0-2.569-0.497-7.721,3.113-8.088c4.691-0.478,12.066-1.135,15.964,1.115c2.145,1.239,1.257,6.139,1.257,8.118
					c0,29.946,0,59.892,0,89.837c0,6.449,10,6.449,10,0c0-24.828,0-49.657,0-74.485c0-5.605,0-11.21,0-16.815
					c0-4.031,0.213-7.807-2.105-11.403c-4.406-6.835-12.506-6.367-19.546-6.367c-2.688,0-5.514-0.263-8.146,0.409
					c-4.822,1.231-8.196,5.39-9.974,9.771c-1.852,4.563-0.563,11.925-0.563,16.625c0,11.069,0,22.137,0,33.206
					c0,16.353,0,32.706,0,49.059C170.123,185.146,180.123,185.146,180.123,178.697L180.123,178.697z"/>
			</g>
		</g>
		<g>
			<g>
				<path style="fill:#FFFFFF;" d="M151.79,232.339c0-23.81,0-47.618,0-71.428c0-12.14,0-24.279,0-36.419
					c0-4.806-0.064-9.617,0.279-14.414c0.188-2.628,0.222-6.497,3.334-6.497c3.692,0,7.385,0,11.078,0c1.006,0,2.012,0,3.019,0
					c2.27,0,0.624,0.311,0.624-1.028c0,0.501,0,1.002,0,1.503c0,3.136,0,6.273,0,9.409c0,11.554,0,23.107,0,34.661
					c0,18.175,0,36.35,0,54.526c0,6.448,10,6.448,10,0c0-24.522,0-49.044,0-73.566c0-8.844,0-17.689,0-26.533
					c0-9.879-10.616-8.972-17.395-8.972c-7.141,0-14.782-0.994-18.466,6.668c-4.177,8.686-2.472,20.455-2.472,30.069
					c0,12.794,0,25.588,0,38.382c0,21.212,0,42.425,0,63.638C141.79,238.787,151.79,238.787,151.79,232.339L151.79,232.339z"/>
			</g>
		</g>
		<g>
			<g>
				<path style="fill:#FFFFFF;" d="M210.457,196.385c0-24.522,0-49.044,0-73.565c0-8.845,0-17.689,0-26.533
					c0,1.178-1.662,1.028-0.259,1.028c0.637,0,1.273,0,1.91,0c1.82,0,3.641,0,5.46,0c3.603,0,6.02-0.572,8.617,2.302
					c2.114,2.339,1.604,4.597,1.604,7.828c0,29.647,0,59.294,0,88.941c0,6.448,10,6.448,10,0c0-24.734,0-49.468,0-74.203
					c0-8.347,1.942-19.257-2.447-26.816c-4.765-8.206-12.365-8.051-20.621-8.051c-6.492,0-14.265,0.71-14.265,9.281
					c0,33.263,0,66.526,0,99.79C200.457,202.833,210.457,202.833,210.457,196.385L210.457,196.385z"/>
			</g>
		</g>
		<g>
			<g>
				<path style="fill:#FFFFFF;" d="M237.79,207.765c0-24.753,0-49.505,0-74.257c0-2.039,0-4.078,0-6.116c0-0.584,0-1.168,0-1.752
					c0-1.495,0.136,0.291-0.875,0.291c3.063,0,6.128,0,9.192,0c3.057,0,3.6,3.988,3.864,6.405
					c0.657,6.013,0.151,12.315,0.151,18.341c0,45.233,0,90.466,0,135.699c0,6.448,10,6.448,10,0c0-48.36,0-96.721,0-145.081
					c0-8.507,0.524-19.438-8.092-24.087c-2.995-1.616-6.576-1.277-9.855-1.277c-3.689,0-8.398-0.627-11.283,2.229
					c-3.493,3.456-3.103,7.462-3.103,11.892c0,25.72,0,51.44,0,77.16c0,0.185,0,0.37,0,0.555
					C227.79,214.213,237.79,214.213,237.79,207.765L237.79,207.765z"/>
			</g>
		</g>
		<g>
			<g>
				<path style="fill:#FFFFFF;" d="M129.321,285.024c-5.641-23.708-11.283-47.416-16.924-71.124
					c-2.315-9.73-4.631-19.462-6.946-29.192c-1.239-5.206,8.485-6.762,12.017-7.598c6.61-1.564,6.918,3.267,8.444,7.964
					c5.31,16.354,10.62,32.708,15.93,49.062c1.982,6.106,11.64,3.493,9.643-2.658c-3.629-11.178-7.258-22.354-10.888-33.532
					c-2.047-6.304-4.094-12.608-6.141-18.912c-1.955-6.021-5.064-10.678-11.912-11.816c-6.398-1.063-17.563,1.682-22.488,6.284
					c-4.625,4.322-5.264,9.596-3.88,15.413c2.7,11.347,5.4,22.694,8.1,34.041c5.134,21.576,10.269,43.152,15.403,64.729
					C121.171,293.955,130.813,291.294,129.321,285.024L129.321,285.024z"/>
			</g>
		</g>
	</g>
</g>
<g id="Ebene_1">
</g>
</svg>
