<?xml version="1.0" encoding="iso-8859-1"?>
<!-- Generator: Adobe Illustrator 16.0.0, SVG Export Plug-In . SVG Version: 6.00 Build 0)  -->
<!DOCTYPE svg PUBLIC "-//W3C//DTD SVG 1.1//EN" "http://www.w3.org/Graphics/SVG/1.1/DTD/svg11.dtd">
<svg version="1.1" xmlns="http://www.w3.org/2000/svg" xmlns:xlink="http://www.w3.org/1999/xlink" x="0px" y="0px" width="361px"
	 height="361px" viewBox="0 0 361 361" style="enable-background:new 0 0 361 361;" xml:space="preserve">
<g id="time_x5F_sandglass">
	<g style="display:none;">
		<g style="display:inline;">
			<g>
				<path style="fill:#FFFFFF;" d="M169.417,128.635c4.939-6.416,13.344-7.218,19.904-2.929c6.767,4.425,6.961,13.737,2.929,19.904
					c-4.424,6.767-13.738,6.959-19.904,2.928C165.579,144.113,165.385,134.8,169.417,128.635c2.479-3.791-3.585-7.294-6.044-3.533
					c-6.573,10.053-3.876,22.31,5.439,29.48c9.507,7.318,22.732,3.33,29.482-5.439c7.317-9.507,3.329-22.732-5.44-29.481
					c-9.508-7.317-22.731-3.329-29.481,5.44C160.619,128.679,166.705,132.158,169.417,128.635z"/>
			</g>
		</g>
		<g style="display:inline;">
			<g>
				<path style="fill:#FFFFFF;" d="M179.333,119.628c0,2.342,0,4.684,0,7.026c0,1.935,3,1.935,3,0c0-2.342,0-4.684,0-7.026
					C182.333,117.694,179.333,117.694,179.333,119.628L179.333,119.628z"/>
			</g>
		</g>
		<g style="display:inline;">
			<g>
				<path style="fill:#FFFFFF;" d="M179.333,147.807c0,2.342,0,4.684,0,7.026c0,1.935,3,1.935,3,0c0-2.342,0-4.684,0-7.026
					C182.333,145.872,179.333,145.872,179.333,147.807L179.333,147.807z"/>
			</g>
		</g>
		<g style="display:inline;">
			<g>
				<path style="fill:#FFFFFF;" d="M163.231,138.622c2.342,0,4.684,0,7.026,0c1.935,0,1.935-3,0-3c-2.342,0-4.684,0-7.026,0
					C161.296,135.622,161.296,138.622,163.231,138.622L163.231,138.622z"/>
			</g>
		</g>
		<g style="display:inline;">
			<g>
				<path style="fill:#FFFFFF;" d="M191.409,138.622c2.342,0,4.685,0,7.026,0c1.935,0,1.935-3,0-3c-2.342,0-4.685,0-7.026,0
					C189.475,135.622,189.475,138.622,191.409,138.622L191.409,138.622z"/>
			</g>
		</g>
		<g style="display:inline;">
			<g>
				<path style="fill:#FFFFFF;" d="M167.327,125.736c1.656,1.656,3.312,3.312,4.968,4.968c1.369,1.369,3.49-0.752,2.121-2.121
					c-1.656-1.656-3.312-3.312-4.968-4.968C168.079,122.246,165.958,124.367,167.327,125.736L167.327,125.736z"/>
			</g>
		</g>
		<g style="display:inline;">
			<g>
				<path style="fill:#FFFFFF;" d="M187.252,145.661c1.655,1.656,3.312,3.312,4.967,4.968c1.369,1.369,3.49-0.752,2.121-2.121
					c-1.655-1.656-3.312-3.312-4.967-4.968C188.004,142.171,185.883,144.292,187.252,145.661L187.252,145.661z"/>
			</g>
		</g>
		<g style="display:inline;">
			<g>
				<path style="fill:#FFFFFF;" d="M169.447,150.629c1.656-1.656,3.312-3.312,4.968-4.968c1.369-1.369-0.752-3.49-2.121-2.121
					c-1.656,1.656-3.312,3.312-4.968,4.968C165.957,149.877,168.078,151.998,169.447,150.629L169.447,150.629z"/>
			</g>
		</g>
		<g style="display:inline;">
			<g>
				<path style="fill:#FFFFFF;" d="M189.372,130.704c1.656-1.656,3.312-3.312,4.968-4.968c1.369-1.369-0.752-3.49-2.121-2.121
					c-1.656,1.656-3.312,3.312-4.968,4.968C185.882,129.952,188.003,132.073,189.372,130.704L189.372,130.704z"/>
			</g>
		</g>
		<g style="display:inline;">
			<g>
				<path style="fill:#FFFFFF;" d="M181.59,138.417c1.964-1.277,3.927-2.554,5.89-3.831c1.615-1.051,0.113-3.649-1.514-2.591
					c-1.964,1.277-3.927,2.554-5.89,3.831C178.461,136.877,179.963,139.476,181.59,138.417L181.59,138.417z"/>
			</g>
		</g>
	</g>
	<g>
		<g>
			<path style="fill:#FFFFFF;" d="M119.529,84.668c40.833,0,81.667,0,122.5,0c9.686,0,9.771-15.003,0.107-15.003
				c-40.833,0-81.667,0-122.5,0C109.951,69.666,109.865,84.668,119.529,84.668L119.529,84.668z"/>
		</g>
	</g>
	<g>
		<g>
			<path style="fill:#FFFFFF;" d="M119.529,292.169c40.833,0,81.667,0,122.5,0c9.686,0,9.771-15.004,0.107-15.004
				c-40.833,0-81.667,0-122.5,0C109.951,277.165,109.865,292.169,119.529,292.169L119.529,292.169z"/>
		</g>
	</g>
	<g>
		<path style="fill:#FFFFFF;" d="M180.458,233.869L180.458,233.869"/>
	</g>
	<path style="fill:none;stroke:#FFFFFF;stroke-width:3;stroke-miterlimit:10;" d="M237.643,149.12V82.702
		c0-9.043-7.675-6.55-17.143-6.55h-79.999c-9.468,0-17.144-2.494-17.144,6.55v66.417c0,9.044,7.676,16.376,17.144,16.376
		c7.443,0,37.808,6.666,37.7,14.981c-0.107,8.225-30.257,14.15-37.702,14.15c-9.467,0-17.142,7.385-17.142,16.492v66.957
		c0,9.107,7.675,6.598,17.142,6.598h79.999c9.469,0,17.144,2.51,17.144-6.598v-66.957c0-9.107-7.675-16.492-17.144-16.492
		c-7.32,0-37.086-6.041-37.191-14.15c-0.108-8.203,29.872-14.981,37.193-14.981C229.968,165.496,237.643,158.164,237.643,149.12z"/>
	<path style="fill:#FFFFFF;" d="M123.315,136.893v12.417c0,9.044,7.676,16.376,17.144,16.376c7.443,0,37.808,6.666,37.7,14.981
		h5.105c-0.107-8.203,29.873-14.981,37.193-14.981c9.469,0,17.143-7.332,17.143-16.376v-12.417"/>
	<rect x="123.357" y="237.973" style="fill:#FFFFFF;" width="114.286" height="42.592"/>
</g>
<g id="Ebene_1">
</g>
</svg>
