<?xml version="1.0" encoding="iso-8859-1"?>
<!-- Generator: Adobe Illustrator 16.0.0, SVG Export Plug-In . SVG Version: 6.00 Build 0)  -->
<!DOCTYPE svg PUBLIC "-//W3C//DTD SVG 1.1//EN" "http://www.w3.org/Graphics/SVG/1.1/DTD/svg11.dtd">
<svg version="1.1" xmlns="http://www.w3.org/2000/svg" xmlns:xlink="http://www.w3.org/1999/xlink" x="0px" y="0px" width="361px"
	 height="361px" viewBox="0 0 361 361" style="enable-background:new 0 0 361 361;" xml:space="preserve">
<g id="time_x5F_timer">
	<g>
		<g>
			<path style="fill:#FFFFFF;" d="M219.609,242.712c-12.438-15.899-24.877-31.799-37.315-47.698
				c-2.779-3.553-7.696,1.438-4.95,4.949c12.439,15.899,24.877,31.799,37.316,47.698
				C217.439,251.214,222.356,246.223,219.609,242.712L219.609,242.712z"/>
		</g>
	</g>
	<g>
		<g>
			<path style="fill:#FFFFFF;" d="M115.234,150.121c26.712-36.986,80.69-43.749,115.845-14.792
				c35.518,29.256,38.264,83.495,7.041,116.85c-28.386,30.323-77.125,32.855-109.005,6.595
				C96.555,231.953,91.388,184.268,115.234,150.121c5.545-7.941-7.491-15.375-12.99-7.5c-27.152,38.88-20.883,93.17,14.211,124.995
				c35.608,32.291,90.287,31.72,126.388,0.799c36.061-30.887,42.13-86.313,15.625-125.109
				c-27.157-39.75-80.619-52.041-122.98-30.173c-13.37,6.902-24.488,17.363-33.245,29.488c-2.397,3.319-0.524,8.358,2.745,10.245
				C108.797,155.065,112.843,153.432,115.234,150.121z"/>
		</g>
	</g>
	<g>
		<g>
			<g>
				<path style="fill:#FFFFFF;" d="M98.698,200.322c6,0,11.999,0,17.998,0c4.514,0,4.514-7,0-7c-6,0-11.999,0-17.998,0
					C94.184,193.322,94.184,200.322,98.698,200.322L98.698,200.322z"/>
			</g>
		</g>
		<g>
			<g>
				<path style="fill:#FFFFFF;" d="M243.465,200.322c5.869,0,11.738,0,17.607,0c4.514,0,4.514-7,0-7c-5.869,0-11.738,0-17.607,0
					C238.951,193.322,238.951,200.322,243.465,200.322L243.465,200.322z"/>
			</g>
		</g>
		<g>
			<g>
				<path style="fill:#FFFFFF;" d="M176.58,116.613c0,5.608,0,11.216,0,16.825c0,4.514,7,4.514,7,0c0-5.608,0-11.216,0-16.825
					C183.58,112.099,176.58,112.099,176.58,116.613L176.58,116.613z"/>
			</g>
		</g>
		<g>
			<g>
				<path style="fill:#FFFFFF;" d="M176.58,260.207c0,5.738,0,11.477,0,17.215c0,4.514,7,4.514,7,0c0-5.738,0-11.477,0-17.215
					C183.58,255.693,176.58,255.693,176.58,260.207L176.58,260.207z"/>
			</g>
		</g>
		<g>
			<g>
				<path style="fill:#FFFFFF;" d="M120.14,141.947c4.243,4.242,8.485,8.484,12.727,12.727c3.195,3.194,8.145-1.755,4.95-4.95
					c-4.243-4.242-8.485-8.484-12.727-12.727C121.895,133.802,116.945,138.752,120.14,141.947L120.14,141.947z"/>
			</g>
		</g>
		<g>
			<g>
				<path style="fill:#FFFFFF;" d="M222.506,244.313c4.15,4.15,8.301,8.301,12.451,12.45c3.194,3.194,8.145-1.755,4.949-4.949
					c-4.15-4.15-8.301-8.301-12.451-12.45C224.261,236.169,219.311,241.118,222.506,244.313L222.506,244.313z"/>
			</g>
		</g>
		<g>
			<g>
				<path style="fill:#FFFFFF;" d="M234.402,137.827c-3.966,3.966-7.932,7.931-11.896,11.896c-3.195,3.195,1.755,8.145,4.949,4.95
					c3.966-3.966,7.932-7.931,11.896-11.896C242.547,139.582,237.597,134.632,234.402,137.827L234.402,137.827z"/>
			</g>
		</g>
		<g>
			<g>
				<path style="fill:#FFFFFF;" d="M132.867,239.363c-4.058,4.058-8.115,8.115-12.173,12.174c-3.194,3.194,1.755,8.145,4.95,4.949
					c4.058-4.058,8.115-8.115,12.173-12.174C141.011,241.118,136.062,236.168,132.867,239.363L132.867,239.363z"/>
			</g>
		</g>
	</g>
	<g>
		<g>
			<g>
				<path style="fill:#FFFFFF;" d="M96.756,234.975c6.206-2.57,12.411-5.141,18.617-7.711c4.108-1.702,2.31-8.478-1.861-6.75
					c-6.206,2.57-12.411,5.141-18.617,7.711C90.786,229.927,92.585,236.702,96.756,234.975L96.756,234.975z"/>
			</g>
		</g>
		<g>
			<g>
				<path style="fill:#FFFFFF;" d="M246.495,172.951c6.07-2.515,12.141-5.029,18.211-7.543c4.108-1.702,2.31-8.478-1.861-6.75
					c-6.07,2.515-12.141,5.029-18.211,7.543C240.525,167.903,242.324,174.678,246.495,172.951L246.495,172.951z"/>
			</g>
		</g>
		<g>
			<g>
				<path style="fill:#FFFFFF;" d="M142.263,114.699c2.403,5.801,4.806,11.602,7.209,17.402c1.702,4.108,8.478,2.309,6.75-1.861
					c-2.403-5.801-4.806-11.602-7.209-17.402C147.311,108.729,140.536,110.529,142.263,114.699L142.263,114.699z"/>
			</g>
		</g>
		<g>
			<g>
				<path style="fill:#FFFFFF;" d="M203.785,263.224c2.458,5.936,4.917,11.871,7.375,17.808c1.701,4.108,8.478,2.31,6.75-1.861
					c-2.458-5.936-4.917-11.871-7.375-17.808C208.834,257.254,202.058,259.053,203.785,263.224L203.785,263.224z"/>
			</g>
		</g>
		<g>
			<g>
				<path style="fill:#FFFFFF;" d="M95.063,165.407c6.206,2.57,12.411,5.141,18.616,7.711c4.171,1.728,5.97-5.048,1.861-6.75
					c-6.206-2.57-12.411-5.141-18.616-7.711C92.753,156.93,90.954,163.706,95.063,165.407L95.063,165.407z"/>
			</g>
		</g>
		<g>
			<g>
				<path style="fill:#FFFFFF;" d="M244.802,227.432c6.07,2.515,12.141,5.028,18.211,7.543c4.171,1.728,5.97-5.048,1.861-6.75
					c-6.07-2.515-12.141-5.028-18.211-7.543C242.492,218.954,240.693,225.729,244.802,227.432L244.802,227.432z"/>
			</g>
		</g>
		<g>
			<g>
				<path style="fill:#FFFFFF;" d="M211.16,113.005c-2.402,5.801-4.805,11.602-7.207,17.402c-1.728,4.171,5.048,5.97,6.75,1.861
					c2.402-5.801,4.805-11.602,7.207-17.402C219.638,110.695,212.862,108.896,211.16,113.005L211.16,113.005z"/>
			</g>
		</g>
		<g>
			<g>
				<path style="fill:#FFFFFF;" d="M149.639,261.53c-2.458,5.936-4.917,11.871-7.376,17.807c-1.728,4.171,5.048,5.97,6.75,1.861
					c2.458-5.936,4.917-11.871,7.376-17.807C158.117,259.221,151.341,257.422,149.639,261.53L149.639,261.53z"/>
			</g>
		</g>
	</g>
	<g>
		<g>
			<path style="fill:#FFFFFF;" d="M176.326,196.031c1.413-1.812,3.202-2.877,5.43-1.709c1.879,0.985,2.283,3.326,1.364,5.078
				c-0.985,1.879-3.326,2.284-5.079,1.365c-2.307-1.209-2.148-3.862-0.934-5.746c3.506-5.438-5.154-10.445-8.635-5.047
				c-3.756,5.825-2.709,13.884,2.841,18.215c5.837,4.556,14.563,3.923,19.228-2.061c4.554-5.839,3.924-14.559-2.06-19.227
				c-5.837-4.555-14.562-3.922-19.228,2.061c-1.675,2.146-2.103,4.968,0,7.07C171.003,197.78,174.646,198.185,176.326,196.031z"/>
		</g>
	</g>
	<g style="display:none;">
		<g style="display:inline;">
			<g>
				<path style="fill:#FFFFFF;" d="M169.417,128.635c4.939-6.416,13.344-7.218,19.904-2.929c6.767,4.425,6.961,13.737,2.929,19.904
					c-4.424,6.767-13.738,6.959-19.904,2.928C165.579,144.113,165.385,134.8,169.417,128.635c2.479-3.791-3.585-7.294-6.044-3.533
					c-6.573,10.053-3.876,22.31,5.439,29.48c9.507,7.318,22.732,3.33,29.482-5.439c7.317-9.507,3.329-22.732-5.44-29.481
					c-9.508-7.317-22.731-3.329-29.481,5.44C160.619,128.679,166.705,132.158,169.417,128.635z"/>
			</g>
		</g>
		<g style="display:inline;">
			<g>
				<path style="fill:#FFFFFF;" d="M179.333,119.628c0,2.342,0,4.684,0,7.026c0,1.935,3,1.935,3,0c0-2.342,0-4.684,0-7.026
					C182.333,117.694,179.333,117.694,179.333,119.628L179.333,119.628z"/>
			</g>
		</g>
		<g style="display:inline;">
			<g>
				<path style="fill:#FFFFFF;" d="M179.333,147.807c0,2.342,0,4.684,0,7.026c0,1.935,3,1.935,3,0c0-2.342,0-4.684,0-7.026
					C182.333,145.872,179.333,145.872,179.333,147.807L179.333,147.807z"/>
			</g>
		</g>
		<g style="display:inline;">
			<g>
				<path style="fill:#FFFFFF;" d="M163.231,138.622c2.342,0,4.684,0,7.026,0c1.935,0,1.935-3,0-3c-2.342,0-4.684,0-7.026,0
					C161.296,135.622,161.296,138.622,163.231,138.622L163.231,138.622z"/>
			</g>
		</g>
		<g style="display:inline;">
			<g>
				<path style="fill:#FFFFFF;" d="M191.409,138.622c2.342,0,4.685,0,7.026,0c1.935,0,1.935-3,0-3c-2.342,0-4.685,0-7.026,0
					C189.475,135.622,189.475,138.622,191.409,138.622L191.409,138.622z"/>
			</g>
		</g>
		<g style="display:inline;">
			<g>
				<path style="fill:#FFFFFF;" d="M167.327,125.736c1.656,1.656,3.312,3.312,4.968,4.968c1.369,1.369,3.49-0.752,2.121-2.121
					c-1.656-1.656-3.312-3.312-4.968-4.968C168.079,122.246,165.958,124.367,167.327,125.736L167.327,125.736z"/>
			</g>
		</g>
		<g style="display:inline;">
			<g>
				<path style="fill:#FFFFFF;" d="M187.252,145.661c1.655,1.656,3.312,3.312,4.967,4.968c1.369,1.369,3.49-0.752,2.121-2.121
					c-1.655-1.656-3.312-3.312-4.967-4.968C188.004,142.171,185.883,144.292,187.252,145.661L187.252,145.661z"/>
			</g>
		</g>
		<g style="display:inline;">
			<g>
				<path style="fill:#FFFFFF;" d="M169.447,150.629c1.656-1.656,3.312-3.312,4.968-4.968c1.369-1.369-0.752-3.49-2.121-2.121
					c-1.656,1.656-3.312,3.312-4.968,4.968C165.957,149.877,168.078,151.998,169.447,150.629L169.447,150.629z"/>
			</g>
		</g>
		<g style="display:inline;">
			<g>
				<path style="fill:#FFFFFF;" d="M189.372,130.704c1.656-1.656,3.312-3.312,4.968-4.968c1.369-1.369-0.752-3.49-2.121-2.121
					c-1.656,1.656-3.312,3.312-4.968,4.968C185.882,129.952,188.003,132.073,189.372,130.704L189.372,130.704z"/>
			</g>
		</g>
		<g style="display:inline;">
			<g>
				<path style="fill:#FFFFFF;" d="M181.59,138.417c1.964-1.277,3.927-2.554,5.89-3.831c1.615-1.051,0.113-3.649-1.514-2.591
					c-1.964,1.277-3.927,2.554-5.89,3.831C178.461,136.877,179.963,139.476,181.59,138.417L181.59,138.417z"/>
			</g>
		</g>
	</g>
	<path style="fill:#FFFFFF;" d="M200.375,102.912c0,2.663-2.158,4.822-4.822,4.822h-28.298c-2.664,0-4.823-2.159-4.823-4.822v-1.227
		c0-2.663,2.159-4.822,4.823-4.822h28.298c2.664,0,4.822,2.159,4.822,4.822V102.912z"/>
	<path style="fill:#FFFFFF;" d="M207.746,95.846c0,2.243-1.621,4.062-3.623,4.062h-45.86c-2.001,0-3.624-1.819-3.624-4.062v-5.487
		c0-2.243,1.623-4.061,3.624-4.061h45.86c2.002,0,3.623,1.818,3.623,4.061V95.846z"/>
	<path style="fill:#FFFFFF;" d="M256.799,137.758c-2.082,2.083-5.459,2.083-7.543,0l-8.827-8.827c-2.083-2.083-2.083-5.459,0-7.542
		l0.959-0.959c2.083-2.083,5.46-2.083,7.544,0l8.826,8.827c2.083,2.083,2.084,5.459,0.001,7.543L256.799,137.758z"/>
	<path style="fill:#FFFFFF;" d="M272.543,135.028c-1.754,1.754-4.444,1.908-6.01,0.342l-22.562-22.563
		c-1.565-1.565-1.412-4.256,0.341-6.011l4.293-4.291c1.754-1.754,4.445-1.907,6.01-0.342l22.563,22.562
		c1.565,1.566,1.412,4.256-0.342,6.011L272.543,135.028z"/>
	<path style="fill:#FFFFFF;" d="M121.508,121.692c2.083,2.083,2.083,5.46,0,7.543l-8.827,8.828c-2.083,2.083-5.459,2.083-7.543,0
		l-0.958-0.96c-2.083-2.083-2.083-5.459,0-7.543l8.826-8.827c2.083-2.083,5.46-2.083,7.543,0L121.508,121.692z"/>
	<path style="fill:#FFFFFF;" d="M118.778,105.948c1.754,1.754,1.908,4.445,0.342,6.009L96.558,134.52
		c-1.565,1.565-4.256,1.412-6.01-0.342l-4.292-4.292c-1.755-1.754-1.908-4.445-0.342-6.01l22.563-22.563
		c1.565-1.566,4.256-1.413,6.01,0.343L118.778,105.948z"/>
	<g>
		<g>
			<path style="fill:#FFFFFF;" d="M211.833,87.434c-0.441,3.832-11.021,2.169-13.039,2.169c-7.885,0-15.77,0-23.654,0
				c-6.537,0-13.073,0-19.609,0c-1.009,0-2.019,0-3.028,0c-3.488,0-2.169-8.986-2.169-10.762c0-4.248,9.223-2.673,11.478-2.673
				c7.75,0,15.5,0,23.249,0c6.852,0,13.702,0,20.553,0c1.32,0,2.641,0,3.96,0c3.477,0,2.261,7.707,2.261,9.463
				C211.833,86.231,211.833,86.833,211.833,87.434c0,4.514,7,4.514,7,0c0-7.127,1.27-15.058-6.938-17.992
				c-3.473-1.241-8.764-0.275-12.309-0.275c-14.521,0-29.04,0-43.56,0c-5.501,0-11.763,1.099-12.543,7.87
				c-0.7,6.077-1.553,16.31,5.596,18.865c3.864,1.381,8.712,0.701,12.732,0.701c7.75,0,15.5,0,23.249,0c7.027,0,14.054,0,21.081,0
				c6.423,0,11.836-1.729,12.692-9.169C219.349,82.954,212.344,83.003,211.833,87.434z"/>
		</g>
	</g>
</g>
<g id="Ebene_1">
</g>
</svg>
