<?xml version="1.0" encoding="iso-8859-1"?>
<!-- Generator: Adobe Illustrator 16.0.0, SVG Export Plug-In . SVG Version: 6.00 Build 0)  -->
<!DOCTYPE svg PUBLIC "-//W3C//DTD SVG 1.1//EN" "http://www.w3.org/Graphics/SVG/1.1/DTD/svg11.dtd">
<svg version="1.1" xmlns="http://www.w3.org/2000/svg" xmlns:xlink="http://www.w3.org/1999/xlink" x="0px" y="0px" width="361px"
	 height="361px" viewBox="0 0 361 361" style="enable-background:new 0 0 361 361;" xml:space="preserve">
<g id="time_x5F_clock">
	<path style="fill:none;stroke:#FFFFFF;stroke-width:10;stroke-miterlimit:10;" d="M75.833,81.328c0-3.402,2.758-6.161,6.161-6.161
		h198.178c3.402,0,6.161,2.759,6.161,6.161v198.178c0,3.402-2.759,6.161-6.161,6.161H81.994c-3.403,0-6.161-2.759-6.161-6.161
		V81.328z"/>
	<g>
		<g>
			<path style="fill:#FFFFFF;" d="M76.833,185.167c7.667,0,15.333,0,23,0c6.449,0,6.449-10,0-10c-7.667,0-15.333,0-23,0
				C70.384,175.167,70.384,185.167,76.833,185.167L76.833,185.167z"/>
		</g>
	</g>
	<g>
		<g>
			<path style="fill:#FFFFFF;" d="M261.833,185.167c7.5,0,15,0,22.5,0c6.448,0,6.448-10,0-10c-7.5,0-15,0-22.5,0
				C255.385,175.167,255.385,185.167,261.833,185.167L261.833,185.167z"/>
		</g>
	</g>
	<g>
		<g>
			<path style="fill:#FFFFFF;" d="M175.833,77.667c0,7.167,0,14.333,0,21.5c0,6.449,10,6.449,10,0c0-7.167,0-14.333,0-21.5
				C185.833,71.218,175.833,71.218,175.833,77.667L175.833,77.667z"/>
		</g>
	</g>
	<g>
		<g>
			<path style="fill:#FFFFFF;" d="M175.833,261.167c0,7.333,0,14.667,0,22c0,6.448,10,6.448,10,0c0-7.333,0-14.667,0-22
				C185.833,254.719,175.833,254.719,175.833,261.167L175.833,261.167z"/>
		</g>
	</g>
	<g>
		<g>
			<path style="fill:#FFFFFF;" d="M176.333,117.667c0,20.917,0,41.833,0,62.75c0,6.448,10,6.448,10,0c0-20.917,0-41.833,0-62.75
				C186.333,111.218,176.333,111.218,176.333,117.667L176.333,117.667z"/>
		</g>
	</g>
	<g>
		<g>
			<path style="fill:#FFFFFF;" d="M178.297,184.202c9,9,18,18,27,27c4.563,4.564,11.635-2.507,7.07-7.07c-9-9-18-18-27-27
				C180.805,172.568,173.734,179.639,178.297,184.202L178.297,184.202z"/>
		</g>
	</g>
</g>
<g id="Ebene_1">
</g>
</svg>
