<?xml version="1.0" encoding="iso-8859-1"?>
<!-- Generator: Adobe Illustrator 16.0.0, SVG Export Plug-In . SVG Version: 6.00 Build 0)  -->
<!DOCTYPE svg PUBLIC "-//W3C//DTD SVG 1.1//EN" "http://www.w3.org/Graphics/SVG/1.1/DTD/svg11.dtd">
<svg version="1.1" xmlns="http://www.w3.org/2000/svg" xmlns:xlink="http://www.w3.org/1999/xlink" x="0px" y="0px" width="361px"
	 height="361px" viewBox="0 0 361 361" style="enable-background:new 0 0 361 361;" xml:space="preserve">
<g id="time_x5F_note">
	<path style="fill:#FFFFFF;" d="M280.307,291.336H128.782c-6.313,0-11.449-5.135-11.449-11.447v-75.722l10,27v48.722
		c0,0.798,0.65,1.447,1.449,1.447h151.525c0.799,0,1.448-0.649,1.448-1.447V81.616c0-0.799-0.649-1.449-1.448-1.449H128.782
		c-0.799,0-1.449,0.65-1.449,1.449v68.051l-10-28V81.616c0-6.313,5.136-11.449,11.449-11.449h151.525
		c6.313,0,11.448,5.136,11.448,11.449v198.273C291.755,286.201,286.619,291.336,280.307,291.336z"/>
	<g>
		<g>
			<path style="fill:#FFFFFF;" d="M145.833,111.667c38.167,0,76.333,0,114.5,0c6.448,0,6.448-10,0-10c-38.167,0-76.333,0-114.5,0
				C139.384,101.667,139.384,111.667,145.833,111.667L145.833,111.667z"/>
		</g>
	</g>
	<g>
		<g>
			<path style="fill:#FFFFFF;" d="M149.833,165.667c36.833,0,73.667,0,110.5,0c6.448,0,6.448-10,0-10c-36.833,0-73.666,0-110.5,0
				C143.385,155.667,143.385,165.667,149.833,165.667L149.833,165.667z"/>
		</g>
	</g>
	<g>
		<g>
			<path style="fill:#FFFFFF;" d="M145.833,138.667c38.167,0,76.333,0,114.5,0c6.448,0,6.448-10,0-10c-38.167,0-76.333,0-114.5,0
				C139.384,128.667,139.384,138.667,145.833,138.667L145.833,138.667z"/>
		</g>
	</g>
	<g>
		<g>
			<path style="fill:#FFFFFF;" d="M160.333,194.667c33.333,0,66.667,0,100,0c6.448,0,6.448-10,0-10c-33.333,0-66.667,0-100,0
				C153.884,184.667,153.884,194.667,160.333,194.667L160.333,194.667z"/>
		</g>
	</g>
	<g>
		<g>
			<path style="fill:#FFFFFF;" d="M171.333,221.667c29.333,0,58.667,0,88,0c6.448,0,6.448-10,0-10c-29.333,0-58.667,0-88,0
				C164.884,211.667,164.884,221.667,171.333,221.667L171.333,221.667z"/>
		</g>
	</g>
	<g>
		<g>
			<path style="fill:#FFFFFF;" d="M175.333,249.667c28,0,56,0,84,0c6.448,0,6.448-10,0-10c-28,0-56,0-84,0
				C168.884,239.667,168.884,249.667,175.333,249.667L175.333,249.667z"/>
		</g>
	</g>
	<g id="Stift" style="display:none;">
		<g style="display:inline;">
			<g>
				<path style="fill:#FFFFFF;" d="M75.72,253.098c4.166,12.03,8.333,24.062,12.499,36.093c1.153,3.329,5.597,3.329,6.75,0
					c4.166-12.031,8.332-24.063,12.498-36.093c0.753-2.176-1.211-4.431-3.375-4.431c-8.332,0-16.665,0-24.997,0
					c-4.514,0-4.514,7,0,7c8.332,0,16.665,0,24.997,0c-1.125-1.477-2.25-2.954-3.375-4.431
					c-4.166,12.031-8.332,24.063-12.498,36.093c2.25,0,4.5,0,6.75,0c-4.166-12.03-8.333-24.062-12.499-36.093
					C81.002,246.998,74.239,248.82,75.72,253.098z"/>
			</g>
		</g>
		<g style="display:inline;">
			<g>
				<path style="fill:#FFFFFF;" d="M71.677,243.667c0.404,5.005,2.803,9.084,7.547,11.089c2.952,1.247,6.327,0.911,9.463,0.911
					c6.79,0,16.457,1.633,20.706-5.214c3.49-5.623,2.118-14.266,2.118-20.587c0-29.58,0-59.16,0-88.74c0-20.629,0-41.258,0-61.887
					c0-8.305-8.03-9.072-14.474-9.072c-3.628,0-7.256,0-10.885,0c-3.293,0-7.375-0.382-10.251,1.467
					c-5.986,3.851-4.223,13.443-4.223,19.625c0,50.707,0,101.414,0,152.121C71.677,243.476,71.677,243.571,71.677,243.667
					c0,4.514,7,4.514,7,0c0-49.633,0-99.266,0-148.898c0-3.973,0-7.946,0-11.919c0-3.15-0.63-5.35,3.621-5.655
					c5.687-0.409,11.512-0.027,17.212-0.027c5.097,0,5,1.593,5,5.365c0,25.462,0,50.925,0,76.388c0,23.049,0,46.097,0,69.146
					c0,5.031,0,10.063,0,15.095c0,5.614-5.025,5.507-9.105,5.507c-4.878,0-16.151,2.144-16.728-5
					C78.316,239.199,71.313,239.165,71.677,243.667z"/>
			</g>
		</g>
		<g style="display:inline;">
			<polygon style="fill:#FFFFFF;" points="85.761,270.417 91.593,287.26 97.425,270.417 			"/>
			<g>
				<path style="fill:#FFFFFF;" d="M82.386,271.348c1.944,5.614,3.888,11.229,5.832,16.843c1.153,3.329,5.597,3.329,6.75,0
					c1.944-5.614,3.888-11.229,5.833-16.843c0.753-2.176-1.211-4.431-3.375-4.431c-3.888,0-7.776,0-11.665,0c-4.514,0-4.514,7,0,7
					c3.888,0,7.776,0,11.665,0c-1.125-1.477-2.25-2.954-3.375-4.431c-1.944,5.614-3.888,11.229-5.833,16.843c2.25,0,4.5,0,6.75,0
					c-1.944-5.614-3.888-11.229-5.832-16.843C87.668,265.248,80.905,267.07,82.386,271.348z"/>
			</g>
		</g>
	</g>
	<g id="Stift_1_">
		<g>
			<g>
				<path style="fill:#FFFFFF;" d="M130.254,243.984c7.575,9.512,15.15,19.023,22.725,28.535c1.978,2.483,5.992,0.339,5.975-2.475
					c-0.071-12.159-0.142-24.319-0.212-36.479c-0.013-2.15-2.248-4.145-4.431-3.375c-7.504,2.647-15.008,5.296-22.513,7.943
					c-4.227,1.491-2.407,8.256,1.861,6.75c7.504-2.647,15.008-5.296,22.513-7.943c-1.477-1.125-2.954-2.25-4.431-3.375
					c0.071,12.159,0.142,24.319,0.212,36.479c1.992-0.825,3.983-1.65,5.975-2.475c-7.575-9.512-15.15-19.023-22.725-28.535
					C132.392,235.504,127.473,240.492,130.254,243.984z"/>
			</g>
		</g>
		<g>
			<g>
				<path style="fill:#FFFFFF;" d="M123.477,236.866c4.053,9.081,12.596,7.167,20.052,4.536c6.62-2.335,15.901-4.24,16.428-12.916
					c0.384-6.321-3.658-13.668-5.695-19.442c-10.026-28.42-20.052-56.839-30.079-85.259c-4.337-12.293-8.674-24.587-13.012-36.881
					c-1.911-5.417-4.062-17.519-11.604-17.214c-6.621,0.268-13.523,3.81-19.696,5.987c-5.723,2.019-11.314,5.684-8.882,12.578
					c2.513,7.123,5.026,14.247,7.54,21.37c14.865,42.135,29.73,84.27,44.595,126.405c1.491,4.227,8.256,2.407,6.75-1.861
					c-16.331-46.289-32.662-92.578-48.992-138.867c-0.982-2.785-1.965-5.57-2.948-8.355c-1.459-4.137,6.911-5.618,9.799-6.637
					c2.532-0.893,5.063-1.786,7.595-2.679c1.982-0.699,4.534-1.791,5.371,0.584c0.945,2.678,1.89,5.356,2.834,8.034
					c9.545,27.056,19.09,54.111,28.636,81.167c5.806,16.457,11.612,32.914,17.418,49.371c1.032,2.926,2.064,5.852,3.097,8.777
					c2.057,5.829-5.343,7.087-9.164,8.435c-4.651,1.641-11.206,5.591-13.999-0.666C127.684,229.218,121.654,232.781,123.477,236.866
					z"/>
			</g>
		</g>
		<g>
			<polygon style="fill:#FFFFFF;" points="144.531,255.828 155.136,269.145 155.037,252.122 			"/>
			<g>
				<path style="fill:#FFFFFF;" d="M142.056,258.303c3.535,4.439,7.07,8.878,10.604,13.316c1.978,2.483,5.991,0.339,5.975-2.475
					c-0.033-5.674-0.066-11.349-0.099-17.022c-0.013-2.151-2.248-4.145-4.431-3.375c-3.502,1.235-7.004,2.471-10.506,3.706
					c-4.227,1.491-2.407,8.256,1.861,6.75c3.502-1.235,7.004-2.471,10.506-3.706c-1.477-1.125-2.954-2.25-4.431-3.375
					c0.033,5.674,0.066,11.349,0.099,17.022c1.992-0.825,3.983-1.65,5.975-2.475c-3.535-4.439-7.07-8.878-10.604-13.316
					C144.194,249.822,139.275,254.811,142.056,258.303z"/>
			</g>
		</g>
	</g>
</g>
<g id="Ebene_1">
</g>
</svg>
