<?xml version="1.0" encoding="iso-8859-1"?>
<!-- Generator: Adobe Illustrator 16.0.0, SVG Export Plug-In . SVG Version: 6.00 Build 0)  -->
<!DOCTYPE svg PUBLIC "-//W3C//DTD SVG 1.1//EN" "http://www.w3.org/Graphics/SVG/1.1/DTD/svg11.dtd">
<svg version="1.1" xmlns="http://www.w3.org/2000/svg" xmlns:xlink="http://www.w3.org/1999/xlink" x="0px" y="0px" width="361px"
	 height="361px" viewBox="0 0 361 361" style="enable-background:new 0 0 361 361;" xml:space="preserve">
<g id="time_x5F_calendar">
	<path style="fill:none;stroke:#FFFFFF;stroke-width:10;stroke-miterlimit:10;" d="M249.333,101.93c0,4.272-3.464,7.737-7.737,7.737
		h-9.025c-4.273,0-7.737-3.464-7.737-7.737v-9.026c0-4.272,3.464-7.737,7.737-7.737h9.025c4.273,0,7.737,3.464,7.737,7.737V101.93z"
		/>
	<path style="fill:none;stroke:#FFFFFF;stroke-width:10;stroke-miterlimit:10;" d="M136.333,101.93c0,4.272-3.464,7.737-7.737,7.737
		h-9.026c-4.272,0-7.737-3.464-7.737-7.737v-9.026c0-4.272,3.464-7.737,7.737-7.737h9.026c4.272,0,7.737,3.464,7.737,7.737V101.93z"
		/>
	<path style="fill:#FFFFFF;stroke:#FFFFFF;stroke-width:10;stroke-miterlimit:10;" d="M286.833,144.667c0,3.313-2.711,6-6.054,6
		H80.984c-3.344,0-6.055-2.687-6.055-6v-29c0-3.313,2.711-6,6.055-6h199.795c3.343,0,6.054,2.687,6.054,6V144.667z"/>
	<path style="fill:none;stroke:#FFFFFF;stroke-width:10;stroke-miterlimit:10;" d="M286.936,279.902c0,3.46-2.706,6.265-6.043,6.265
		H80.98c-3.337,0-6.043-2.805-6.043-6.265v-131.54c0-3.459,2.706-6.264,6.043-6.264h199.913c3.337,0,6.043,2.805,6.043,6.264
		V279.902z"/>
	<g>
		<polygon style="fill:#FFFFFF;" points="245.102,285.424 245.557,245.313 285.67,245.225 		"/>
		<g>
			<path style="fill:#FFFFFF;" d="M250.102,285.424c0.151-13.37,0.304-26.741,0.455-40.111c-1.667,1.667-3.333,3.333-5,5
				c13.371-0.029,26.742-0.059,40.113-0.088c-1.179-2.845-2.357-5.69-3.535-8.535c-13.523,13.399-27.046,26.799-40.568,40.199
				c-4.586,4.543,2.487,11.612,7.07,7.07c13.523-13.399,27.046-26.799,40.568-40.199c3.101-3.071,0.815-8.545-3.535-8.535
				c-13.371,0.029-26.742,0.059-40.113,0.088c-2.749,0.006-4.969,2.271-5,5c-0.151,13.37-0.304,26.741-0.455,40.111
				C240.028,291.875,250.028,291.868,250.102,285.424z"/>
		</g>
	</g>
	<g>
		<g>
			<path style="fill:#FFFFFF;" d="M142.833,185.667c0,25.167,0,50.333,0,75.5c0,6.448,10,6.448,10,0c0-25.167,0-50.333,0-75.5
				C152.833,179.218,142.833,179.218,142.833,185.667L142.833,185.667z"/>
		</g>
	</g>
	<g>
		<g>
			<path style="fill:#FFFFFF;" d="M209.833,186.167c0,25,0,50,0,75c0,6.448,10,6.448,10,0c0-25,0-50,0-75
				C219.833,179.718,209.833,179.718,209.833,186.167L209.833,186.167z"/>
		</g>
	</g>
	<g>
		<g>
			<path style="fill:#FFFFFF;" d="M183.833,229.667c9.5,0,19,0,28.5,0c6.448,0,6.448-10,0-10c-9.5,0-19,0-28.5,0
				C177.384,219.667,177.384,229.667,183.833,229.667L183.833,229.667z"/>
		</g>
	</g>
	<g>
		<g>
			<path style="fill:#FFFFFF;" d="M178.333,185.667c0,12.167,0,24.333,0,36.5c0,6.448,10,6.448,10,0c0-12.167,0-24.333,0-36.5
				C188.333,179.218,178.333,179.218,178.333,185.667L178.333,185.667z"/>
		</g>
	</g>
</g>
<g id="Ebene_1">
</g>
</svg>
