<?xml version="1.0" encoding="iso-8859-1"?>
<!-- Generator: Adobe Illustrator 16.0.0, SVG Export Plug-In . SVG Version: 6.00 Build 0)  -->
<!DOCTYPE svg PUBLIC "-//W3C//DTD SVG 1.1 Tiny//EN" "http://www.w3.org/Graphics/SVG/1.1/DTD/svg11-tiny.dtd">
<svg version="1.1" baseProfile="tiny" id="time_x5F_graph"
	 xmlns="http://www.w3.org/2000/svg" xmlns:xlink="http://www.w3.org/1999/xlink" x="0px" y="0px" width="361px" height="361px"
	 viewBox="0 0 361 361" xml:space="preserve">
<g>
	<path fill="#FFFFFF" d="M68.315,77.545c0,48.697,0,97.394,0,146.091c0,21.97,0,43.939,0,65.909c0,6.449,10,6.449,10,0
		c0-48.697,0-97.394,0-146.091c0-21.97,0-43.939,0-65.909C78.315,71.096,68.315,71.096,68.315,77.545L68.315,77.545z"/>
</g>
<g>
	<path fill="#FFFFFF" d="M285.315,284.545c-48.697,0-97.394,0-146.091,0c-21.97,0-43.939,0-65.909,0c-6.449,0-6.449,10,0,10
		c48.697,0,97.394,0,146.091,0c21.97,0,43.939,0,65.909,0C291.764,294.545,291.764,284.545,285.315,284.545L285.315,284.545z"/>
</g>
<g>
	<path fill="#FFFFFF" d="M79.851,204.581c20.667-21.167,41.333-42.333,62-63.5c4.506-4.615-2.56-11.691-7.071-7.071
		c-20.667,21.167-41.333,42.333-62,63.5C68.273,202.125,75.339,209.201,79.851,204.581L79.851,204.581z"/>
</g>
<g>
	<path fill="#FFFFFF" d="M136.167,139.362c11.909,15.313,23.817,30.625,35.726,45.938c3.956,5.086,10.979-2.046,7.071-7.071
		c-11.909-15.313-23.817-30.625-35.726-45.938C139.282,127.205,132.259,134.337,136.167,139.362L136.167,139.362z"/>
</g>
<g>
	<path fill="#FFFFFF" d="M190.494,156.874c3.333,18.5,6.667,37,10,55.5c1.142,6.34,10.778,3.646,9.643-2.658
		c-3.333-18.5-6.667-37-10-55.5C198.994,147.876,189.358,150.57,190.494,156.874L190.494,156.874z"/>
</g>
<g>
	<path fill="#FFFFFF" d="M209.632,213.568c22-33.667,44-67.333,66-101c3.539-5.416-5.123-10.421-8.635-5.047
		c-22,33.667-44,67.333-66,101C197.458,213.938,206.121,218.942,209.632,213.568L209.632,213.568z"/>
</g>
<g>
	<path fill="#FFFFFF" d="M179.745,184.287c6.629-8.739,13.258-17.479,19.887-26.219c3.9-5.141-4.791-10.114-8.635-5.047
		c-6.629,8.739-13.258,17.479-19.887,26.219C167.21,184.381,175.902,189.354,179.745,184.287L179.745,184.287z"/>
</g>
</svg>
