<?xml version="1.0" encoding="iso-8859-1"?>
<!-- Generator: Adobe Illustrator 16.0.0, SVG Export Plug-In . SVG Version: 6.00 Build 0)  -->
<!DOCTYPE svg PUBLIC "-//W3C//DTD SVG 1.1 Tiny//EN" "http://www.w3.org/Graphics/SVG/1.1/DTD/svg11-tiny.dtd">
<svg version="1.1" baseProfile="tiny" id="time_x5F_timer"
	 xmlns="http://www.w3.org/2000/svg" xmlns:xlink="http://www.w3.org/1999/xlink" x="0px" y="0px" width="361px" height="361px"
	 viewBox="0 0 361 361" xml:space="preserve">
<g>
	<path fill="#FFFFFF" d="M217.092,245.589c-12.438-15.899-24.877-31.799-37.315-47.698c-2.78-3.553-7.697,1.439-4.95,4.95
		c12.438,15.899,24.877,31.799,37.315,47.698C214.921,254.092,219.838,249.101,217.092,245.589L217.092,245.589z"/>
</g>
<g>
	<path fill="#FFFFFF" d="M112.716,152.999c26.712-36.986,80.69-43.749,115.845-14.792c35.517,29.256,38.264,83.495,7.041,116.85
		c-28.386,30.324-77.124,32.855-109.005,6.595C94.037,234.831,88.87,187.146,112.716,152.999c5.545-7.941-7.491-15.375-12.99-7.5
		c-27.152,38.879-20.883,93.17,14.211,124.995c35.608,32.291,90.286,31.72,126.388,0.799
		c36.061-30.886,42.129-86.314,15.625-125.109c-27.157-39.75-80.618-52.041-122.979-30.173
		c-13.37,6.902-24.488,17.363-33.245,29.488c-2.397,3.319-0.524,8.358,2.745,10.245C106.279,157.943,110.325,156.31,112.716,152.999
		z"/>
</g>
<g>
	<g>
		<path fill="#FFFFFF" d="M96.18,203.201c6,0,11.999,0,17.998,0c4.514,0,4.514-7,0-7c-6,0-11.999,0-17.998,0
			C91.666,196.201,91.666,203.201,96.18,203.201L96.18,203.201z"/>
	</g>
	<g>
		<path fill="#FFFFFF" d="M240.947,203.201c5.869,0,11.738,0,17.607,0c4.514,0,4.514-7,0-7c-5.869,0-11.738,0-17.607,0
			C236.433,196.201,236.433,203.201,240.947,203.201L240.947,203.201z"/>
	</g>
	<g>
		<path fill="#FFFFFF" d="M174.062,119.491c0,5.608,0,11.216,0,16.825c0,4.514,7,4.514,7,0c0-5.608,0-11.216,0-16.825
			C181.062,114.977,174.062,114.977,174.062,119.491L174.062,119.491z"/>
	</g>
	<g>
		<path fill="#FFFFFF" d="M174.062,263.085c0,5.738,0,11.477,0,17.215c0,4.514,7,4.514,7,0c0-5.738,0-11.477,0-17.215
			C181.062,258.571,174.062,258.571,174.062,263.085L174.062,263.085z"/>
	</g>
	<g>
		<path fill="#FFFFFF" d="M117.622,144.825c4.243,4.242,8.485,8.484,12.727,12.727c3.195,3.194,8.145-1.755,4.95-4.95
			c-4.243-4.242-8.485-8.484-12.727-12.727C119.377,136.68,114.427,141.63,117.622,144.825L117.622,144.825z"/>
	</g>
	<g>
		<path fill="#FFFFFF" d="M219.988,247.191c4.15,4.15,8.3,8.3,12.45,12.45c3.195,3.194,8.145-1.755,4.95-4.95
			c-4.15-4.15-8.3-8.3-12.45-12.45C221.743,239.046,216.793,243.996,219.988,247.191L219.988,247.191z"/>
	</g>
	<g>
		<path fill="#FFFFFF" d="M231.884,140.705c-3.965,3.966-7.931,7.931-11.896,11.896c-3.194,3.195,1.755,8.145,4.95,4.95
			c3.965-3.966,7.931-7.931,11.896-11.896C240.029,142.46,235.079,137.51,231.884,140.705L231.884,140.705z"/>
	</g>
	<g>
		<path fill="#FFFFFF" d="M130.349,242.241c-4.058,4.058-8.115,8.116-12.173,12.173c-3.194,3.195,1.755,8.145,4.95,4.95
			c4.058-4.058,8.115-8.116,12.173-12.173C138.493,243.996,133.543,239.046,130.349,242.241L130.349,242.241z"/>
	</g>
</g>
<g>
	<g>
		<path fill="#FFFFFF" d="M94.238,237.853c6.206-2.57,12.411-5.141,18.617-7.711c4.108-1.702,2.31-8.478-1.861-6.75
			c-6.206,2.57-12.411,5.141-18.617,7.711C88.268,232.804,90.067,239.58,94.238,237.853L94.238,237.853z"/>
	</g>
	<g>
		<path fill="#FFFFFF" d="M243.978,175.829c6.07-2.515,12.141-5.029,18.211-7.543c4.108-1.702,2.309-8.478-1.861-6.75
			c-6.07,2.515-12.141,5.029-18.211,7.543C238.008,170.781,239.807,177.556,243.978,175.829L243.978,175.829z"/>
	</g>
	<g>
		<path fill="#FFFFFF" d="M139.745,117.577c2.403,5.801,4.806,11.602,7.209,17.402c1.702,4.108,8.478,2.309,6.75-1.861
			c-2.403-5.801-4.806-11.602-7.209-17.402C144.793,111.607,138.018,113.407,139.745,117.577L139.745,117.577z"/>
	</g>
	<g>
		<path fill="#FFFFFF" d="M201.267,266.102c2.458,5.936,4.917,11.871,7.376,17.807c1.702,4.108,8.478,2.31,6.75-1.861
			c-2.458-5.936-4.917-11.871-7.376-17.807C206.315,260.132,199.539,261.931,201.267,266.102L201.267,266.102z"/>
	</g>
	<g>
		<path fill="#FFFFFF" d="M92.544,168.285c6.206,2.57,12.411,5.141,18.616,7.711c4.171,1.728,5.97-5.048,1.861-6.75
			c-6.206-2.57-12.411-5.141-18.616-7.711C90.235,159.808,88.436,166.583,92.544,168.285L92.544,168.285z"/>
	</g>
	<g>
		<path fill="#FFFFFF" d="M242.284,230.309c6.071,2.515,12.141,5.029,18.211,7.543c4.171,1.728,5.97-5.048,1.861-6.75
			c-6.071-2.515-12.141-5.029-18.211-7.543C239.974,221.832,238.175,228.607,242.284,230.309L242.284,230.309z"/>
	</g>
	<g>
		<path fill="#FFFFFF" d="M208.643,115.883c-2.403,5.801-4.805,11.602-7.208,17.402c-1.728,4.171,5.048,5.97,6.75,1.861
			c2.403-5.801,4.805-11.602,7.208-17.402C217.12,113.573,210.344,111.774,208.643,115.883L208.643,115.883z"/>
	</g>
	<g>
		<path fill="#FFFFFF" d="M147.121,264.409c-2.458,5.936-4.917,11.871-7.376,17.807c-1.728,4.17,5.048,5.97,6.75,1.861
			c2.458-5.936,4.917-11.871,7.376-17.807C155.599,262.1,148.823,260.3,147.121,264.409L147.121,264.409z"/>
	</g>
</g>
<g>
	<path fill="#FFFFFF" d="M173.808,198.91c1.414-1.812,3.201-2.877,5.43-1.709c1.879,0.985,2.284,3.325,1.365,5.078
		c-0.985,1.879-3.326,2.284-5.079,1.364c-2.307-1.209-2.148-3.862-0.934-5.746c3.506-5.438-5.154-10.446-8.635-5.047
		c-3.755,5.824-2.71,13.884,2.841,18.215c5.838,4.554,14.562,3.924,19.229-2.06c4.554-5.838,3.923-14.561-2.06-19.228
		c-5.839-4.553-14.561-3.923-19.228,2.06c-1.675,2.147-2.103,4.968,0,7.071C168.485,200.659,172.128,201.063,173.808,198.91z"/>
</g>
<g display="none">
	<g display="inline">
		<path fill="#FFFFFF" d="M166.898,131.513c4.939-6.416,13.344-7.218,19.904-2.929c6.767,4.424,6.96,13.738,2.929,19.904
			c-4.425,6.766-13.738,6.959-19.904,2.928C163.061,146.991,162.867,137.678,166.898,131.513c2.479-3.791-3.585-7.294-6.044-3.533
			c-6.573,10.053-3.876,22.31,5.439,29.48c9.507,7.318,22.731,3.33,29.481-5.439c7.318-9.506,3.33-22.732-5.439-29.481
			c-9.507-7.317-22.731-3.329-29.481,5.44C158.101,131.557,164.187,135.036,166.898,131.513z"/>
	</g>
	<g display="inline">
		<path fill="#FFFFFF" d="M176.815,122.506c0,2.342,0,4.684,0,7.026c0,1.935,3,1.935,3,0c0-2.342,0-4.684,0-7.026
			C179.815,120.572,176.815,120.572,176.815,122.506L176.815,122.506z"/>
	</g>
	<g display="inline">
		<path fill="#FFFFFF" d="M176.815,150.685c0,2.342,0,4.684,0,7.026c0,1.935,3,1.935,3,0c0-2.342,0-4.684,0-7.026
			C179.815,148.75,176.815,148.75,176.815,150.685L176.815,150.685z"/>
	</g>
	<g display="inline">
		<path fill="#FFFFFF" d="M160.713,141.5c2.342,0,4.684,0,7.026,0c1.935,0,1.935-3,0-3c-2.342,0-4.684,0-7.026,0
			C158.778,138.5,158.778,141.5,160.713,141.5L160.713,141.5z"/>
	</g>
	<g display="inline">
		<path fill="#FFFFFF" d="M188.891,141.5c2.342,0,4.684,0,7.026,0c1.935,0,1.935-3,0-3c-2.342,0-4.684,0-7.026,0
			C186.957,138.5,186.957,141.5,188.891,141.5L188.891,141.5z"/>
	</g>
	<g display="inline">
		<path fill="#FFFFFF" d="M164.809,128.614c1.656,1.656,3.312,3.312,4.968,4.968c1.369,1.369,3.49-0.752,2.121-2.121
			c-1.656-1.656-3.312-3.312-4.968-4.968C165.561,125.124,163.439,127.245,164.809,128.614L164.809,128.614z"/>
	</g>
	<g display="inline">
		<path fill="#FFFFFF" d="M184.733,148.539c1.656,1.656,3.312,3.312,4.968,4.968c1.369,1.369,3.49-0.752,2.121-2.121
			c-1.656-1.656-3.312-3.312-4.968-4.968C185.485,145.049,183.364,147.17,184.733,148.539L184.733,148.539z"/>
	</g>
	<g display="inline">
		<path fill="#FFFFFF" d="M166.929,153.507c1.656-1.656,3.312-3.312,4.968-4.968c1.369-1.369-0.752-3.49-2.121-2.121
			c-1.656,1.656-3.312,3.312-4.968,4.968C163.439,152.755,165.56,154.876,166.929,153.507L166.929,153.507z"/>
	</g>
	<g display="inline">
		<path fill="#FFFFFF" d="M186.854,133.582c1.656-1.656,3.312-3.312,4.968-4.968c1.369-1.369-0.752-3.49-2.121-2.121
			c-1.656,1.656-3.312,3.312-4.968,4.968C183.364,132.83,185.485,134.951,186.854,133.582L186.854,133.582z"/>
	</g>
	<g display="inline">
		<path fill="#FFFFFF" d="M179.072,141.295c1.963-1.277,3.927-2.554,5.89-3.831c1.615-1.051,0.113-3.649-1.514-2.591
			c-1.963,1.277-3.927,2.554-5.89,3.831C175.943,139.755,177.445,142.354,179.072,141.295L179.072,141.295z"/>
	</g>
</g>
<path fill="#FFFFFF" d="M197.857,105.79c0,2.663-2.159,4.822-4.822,4.822h-28.298c-2.664,0-4.823-2.159-4.823-4.822v-1.227
	c0-2.663,2.159-4.822,4.823-4.822h28.298c2.664,0,4.822,2.159,4.822,4.822V105.79z"/>
<path fill="#FFFFFF" d="M205.229,98.724c0,2.243-1.622,4.062-3.624,4.062h-45.86c-2.001,0-3.624-1.819-3.624-4.062v-5.487
	c0-2.243,1.623-4.061,3.624-4.061h45.86c2.001,0,3.624,1.818,3.624,4.061V98.724z"/>
<path fill="#FFFFFF" d="M254.281,140.636c-2.083,2.083-5.46,2.083-7.543,0l-8.827-8.827c-2.083-2.083-2.083-5.459,0-7.542
	l0.959-0.959c2.083-2.083,5.46-2.083,7.543,0l8.827,8.827c2.083,2.083,2.083,5.459,0.001,7.543L254.281,140.636z"/>
<path fill="#FFFFFF" d="M270.025,137.906c-1.754,1.754-4.445,1.908-6.01,0.342l-22.562-22.563c-1.565-1.565-1.412-4.256,0.341-6.011
	l4.292-4.291c1.754-1.754,4.445-1.907,6.011-0.342l22.562,22.562c1.565,1.566,1.412,4.256-0.342,6.011L270.025,137.906z"/>
<path fill="#FFFFFF" d="M118.99,124.57c2.083,2.083,2.083,5.46,0,7.543l-8.827,8.828c-2.083,2.083-5.459,2.083-7.543,0l-0.958-0.96
	c-2.083-2.083-2.083-5.459,0-7.543l8.826-8.827c2.083-2.083,5.46-2.083,7.543,0L118.99,124.57z"/>
<path fill="#FFFFFF" d="M116.26,108.826c1.754,1.754,1.908,4.445,0.342,6.009L94.04,137.398c-1.565,1.565-4.256,1.412-6.01-0.342
	l-4.292-4.292c-1.755-1.754-1.908-4.445-0.342-6.01l22.563-22.563c1.565-1.566,4.256-1.413,6.01,0.343L116.26,108.826z"/>
<g>
	<path fill="#FFFFFF" d="M209.315,90.312c-0.441,3.832-11.021,2.169-13.04,2.169c-7.884,0-15.769,0-23.653,0
		c-6.536,0-13.073,0-19.609,0c-1.009,0-2.019,0-3.028,0c-3.488,0-2.169-8.986-2.169-10.762c0-4.248,9.223-2.673,11.478-2.673
		c7.75,0,15.5,0,23.249,0c6.851,0,13.702,0,20.553,0c1.32,0,2.64,0,3.96,0c3.477,0,2.261,7.706,2.261,9.463
		C209.315,89.109,209.315,89.71,209.315,90.312c0,4.514,7,4.514,7,0c0-7.127,1.27-15.058-6.939-17.992
		c-3.473-1.241-8.763-0.275-12.309-0.275c-14.52,0-29.039,0-43.559,0c-5.501,0-11.763,1.099-12.543,7.87
		c-0.7,6.077-1.553,16.31,5.596,18.865c3.864,1.381,8.712,0.701,12.732,0.701c7.75,0,15.5,0,23.249,0c7.027,0,14.054,0,21.081,0
		c6.422,0,11.836-1.729,12.693-9.169C216.831,85.832,209.825,85.881,209.315,90.312z"/>
</g>
</svg>
