<?xml version="1.0" encoding="iso-8859-1"?>
<!-- Generator: Adobe Illustrator 16.0.0, SVG Export Plug-In . SVG Version: 6.00 Build 0)  -->
<!DOCTYPE svg PUBLIC "-//W3C//DTD SVG 1.1 Tiny//EN" "http://www.w3.org/Graphics/SVG/1.1/DTD/svg11-tiny.dtd">
<svg version="1.1" baseProfile="tiny" id="time_x5F_clock"
	 xmlns="http://www.w3.org/2000/svg" xmlns:xlink="http://www.w3.org/1999/xlink" x="0px" y="0px" width="361px" height="361px"
	 viewBox="0 0 361 361" xml:space="preserve">
<path fill="none" stroke="#FFFFFF" stroke-width="10" stroke-miterlimit="10" d="M73.315,84.206c0-3.402,2.758-6.161,6.161-6.161
	h198.178c3.402,0,6.161,2.759,6.161,6.161v198.178c0,3.403-2.759,6.161-6.161,6.161H79.476c-3.403,0-6.161-2.758-6.161-6.161V84.206
	z"/>
<g>
	<path fill="#FFFFFF" d="M74.315,188.045c7.667,0,15.333,0,23,0c6.449,0,6.449-10,0-10c-7.667,0-15.333,0-23,0
		C67.866,178.045,67.866,188.045,74.315,188.045L74.315,188.045z"/>
</g>
<g>
	<path fill="#FFFFFF" d="M259.315,188.045c7.5,0,15,0,22.5,0c6.449,0,6.449-10,0-10c-7.5,0-15,0-22.5,0
		C252.866,178.045,252.866,188.045,259.315,188.045L259.315,188.045z"/>
</g>
<g>
	<path fill="#FFFFFF" d="M173.315,80.545c0,7.167,0,14.333,0,21.5c0,6.449,10,6.449,10,0c0-7.167,0-14.333,0-21.5
		C183.315,74.096,173.315,74.096,173.315,80.545L173.315,80.545z"/>
</g>
<g>
	<path fill="#FFFFFF" d="M173.315,264.045c0,7.333,0,14.667,0,22c0,6.449,10,6.449,10,0c0-7.333,0-14.667,0-22
		C183.315,257.596,173.315,257.596,173.315,264.045L173.315,264.045z"/>
</g>
<g>
	<path fill="#FFFFFF" d="M173.815,120.545c0,20.917,0,41.833,0,62.75c0,6.449,10,6.449,10,0c0-20.917,0-41.833,0-62.75
		C183.815,114.096,173.815,114.096,173.815,120.545L173.815,120.545z"/>
</g>
<g>
	<path fill="#FFFFFF" d="M175.779,187.081c9,9,18,18,27,27c4.564,4.563,11.635-2.507,7.071-7.071c-9-9-18-18-27-27
		C178.287,175.446,171.216,182.517,175.779,187.081L175.779,187.081z"/>
</g>
</svg>
