<?xml version="1.0" encoding="iso-8859-1"?>
<!-- Generator: Adobe Illustrator 16.0.0, SVG Export Plug-In . SVG Version: 6.00 Build 0)  -->
<!DOCTYPE svg PUBLIC "-//W3C//DTD SVG 1.1 Tiny//EN" "http://www.w3.org/Graphics/SVG/1.1/DTD/svg11-tiny.dtd">
<svg version="1.1" baseProfile="tiny" id="user_x5F_ext_x5F_away"
	 xmlns="http://www.w3.org/2000/svg" xmlns:xlink="http://www.w3.org/1999/xlink" x="0px" y="0px" width="361px" height="361px"
	 viewBox="0 0 361 361" xml:space="preserve">
<g>
	<circle fill="#FFFFFF" cx="234.075" cy="159.442" r="28.836"/>
	<path fill="#FFFFFF" d="M234.076,188.961c-16.276,0-29.52-13.243-29.52-29.519s13.243-29.52,29.52-29.52
		c16.276,0,29.517,13.244,29.517,29.52S250.352,188.961,234.076,188.961z M234.076,131.288c-15.525,0-28.154,12.63-28.154,28.154
		c0,15.522,12.629,28.154,28.154,28.154c15.523,0,28.151-12.632,28.151-28.154C262.227,143.918,249.599,131.288,234.076,131.288z"/>
</g>
<path fill="#FFFFFF" d="M265.04,280.336c0,7.895-6.399,14.292-14.292,14.292h-33.348c-7.893,0-14.291-6.397-14.291-14.292v-71.745
	c0-7.894,6.398-14.291,14.291-14.291h33.348c7.893,0,14.292,6.397,14.292,14.291V280.336z"/>
<path fill="#FFFFFF" d="M271.338,207c0,16.777,0,62.553,0,79.331c0,11.444,17.746,11.444,17.746,0c0-16.778,0-62.554,0-79.331
	C289.084,195.556,271.338,195.556,271.338,207L271.338,207z"/>
<path fill="#FFFFFF" d="M179.065,206.998c0,16.779,0,62.554,0,79.331c0,11.444,17.746,11.444,17.746,0c0-16.777,0-62.552,0-79.331
	C196.811,195.555,179.065,195.555,179.065,206.998L179.065,206.998z"/>
<g id="Flugzeug_x5F_schraeg">
	<g>
		<polygon fill="#FFFFFF" points="84.891,127.981 94.535,123.875 83.758,112.681 72.982,101.486 74.116,116.787 75.248,132.088 		
			"/>
		<g>
			<path fill="#FFFFFF" d="M87.415,132.299c3.215-1.369,6.43-2.738,9.644-4.107c3.065-1.306,3.025-5.762,1.012-7.853
				c-7.185-7.462-14.369-14.925-21.553-22.389c-2.886-2.998-8.863-0.882-8.536,3.536c0.755,10.201,1.511,20.402,2.266,30.603
				c0.301,4.073,3.951,5.839,7.523,4.317C80.986,135.037,84.2,133.668,87.415,132.299c5.917-2.52,0.815-11.131-5.047-8.635
				c-3.214,1.369-6.429,2.738-9.643,4.107c2.508,1.439,5.016,2.878,7.523,4.317c-0.755-10.201-1.51-20.402-2.266-30.603
				c-2.845,1.179-5.69,2.357-8.536,3.536c7.184,7.463,14.368,14.926,21.553,22.389c0.337-2.618,0.675-5.235,1.012-7.853
				c-3.215,1.369-6.43,2.738-9.644,4.107C76.451,126.184,81.552,134.795,87.415,132.299z"/>
		</g>
	</g>
	<path fill="#FFFFFF" stroke="#FFFFFF" stroke-miterlimit="10" d="M120.511,119.143c1.425,3.098,5.138,4.488,8.292,3.103
		l23.344-10.248c3.154-1.385,4.557-5.019,3.131-8.118l0,0c-1.425-3.099-5.137-4.488-8.292-3.103l-23.344,10.246
		C120.488,112.41,119.086,116.044,120.511,119.143L120.511,119.143z"/>
	<g>
		<path fill="#FFFFFF" d="M187.706,89.72c6.029-2.801,9.529-8.188,7.816-12.034l0,0c-1.712-3.845-5.895-5.587-11.924-2.787
			L187.706,89.72z"/>
		<path fill="#FFFFFF" d="M187.398,90.464l-4.552-15.818l0.52-0.242c6.363-2.948,10.857-1.071,12.69,3.044
			c1.829,4.11-1.813,9.836-8.119,12.764L187.398,90.464z M184.353,75.16l3.656,13.807c5.405-2.723,8.52-7.587,6.98-11.045
			C193.454,74.478,189.957,72.763,184.353,75.16z"/>
	</g>
	<path fill="#FFFFFF" d="M180.021,73.239l-98.608,42.193c-1.386,0.593-2.031,2.203-1.438,3.589l5.221,12.201
		c0.593,1.386,2.203,2.031,3.589,1.438l98.608-42.193c2.7-1.155,1.583-3.25,1.439-3.589l-5.222-12.201
		C183.018,73.29,181.407,72.646,180.021,73.239z M135.638,98.375l-2.802,1.199c-0.303,0.13-0.763-0.261-1.025-0.875
		c-0.263-0.614-0.229-1.216,0.075-1.346l2.803-1.2c0.303-0.129,0.763,0.262,1.025,0.875
		C135.976,97.642,135.941,98.245,135.638,98.375z M142.105,95.607l-2.802,1.2c-0.304,0.13-0.764-0.262-1.026-0.875
		c-0.263-0.613-0.229-1.216,0.075-1.346l2.803-1.198c0.304-0.13,0.763,0.261,1.025,0.875
		C142.442,94.875,142.409,95.477,142.105,95.607z M148.572,92.841l-2.802,1.199c-0.304,0.13-0.763-0.262-1.025-0.875
		c-0.262-0.613-0.229-1.216,0.075-1.346l2.802-1.199c0.304-0.129,0.764,0.262,1.026,0.875
		C148.91,92.108,148.875,92.711,148.572,92.841z M155.038,90.074l-2.803,1.2c-0.304,0.13-0.763-0.262-1.025-0.875
		c-0.262-0.614-0.229-1.216,0.076-1.346l2.802-1.199c0.304-0.13,0.763,0.262,1.025,0.875
		C155.376,89.342,155.341,89.944,155.038,90.074z M161.505,87.307l-2.803,1.199c-0.304,0.13-0.764-0.262-1.026-0.875
		c-0.262-0.612-0.229-1.215,0.075-1.345l2.803-1.199c0.304-0.131,0.763,0.261,1.025,0.874
		C161.842,86.574,161.809,87.177,161.505,87.307z M167.971,84.54l-2.802,1.2c-0.305,0.129-0.763-0.262-1.026-0.875
		s-0.228-1.216,0.076-1.347l2.802-1.198c0.304-0.13,0.762,0.262,1.024,0.875C168.309,83.807,168.275,84.41,167.971,84.54z
		 M181.784,77.069l-5.605,2.399c-0.608,0.26-1.363-0.141-1.686-0.896c-0.324-0.755-0.093-1.578,0.515-1.838l5.606-2.398
		c0.608-0.26,1.363,0.141,1.687,0.896C182.623,75.986,182.392,76.809,181.784,77.069z"/>
</g>
<g id="Flugzeug_1_" display="none">
	<g display="inline">
		<polygon fill="#FFFFFF" points="56.448,126.2 65.657,126.216 60.821,113.449 55.986,100.682 51.613,113.433 47.239,126.184 		"/>
		<g>
			<path fill="#FFFFFF" d="M56.448,131.2c3.07,0.005,6.14,0.011,9.209,0.016c3.021,0.005,5.991-3.242,4.821-6.329
				c-3.224-8.511-6.448-17.022-9.671-25.534c-1.754-4.634-7.973-4.869-9.643,0c-2.916,8.5-5.831,17.001-8.747,25.502
				c-1.068,3.113,1.724,6.324,4.821,6.329C50.309,131.189,53.378,131.194,56.448,131.2c6.449,0.011,6.448-9.989,0-10
				c-3.069-0.005-6.139-0.01-9.208-0.016c1.607,2.11,3.214,4.219,4.821,6.329c2.916-8.5,5.832-17.001,8.747-25.502
				c-3.214,0-6.428,0-9.643,0c3.223,8.512,6.447,17.023,9.671,25.534c1.607-2.11,3.214-4.219,4.821-6.329
				c-3.07-0.005-6.14-0.011-9.209-0.016C49.999,121.188,50,131.188,56.448,131.2z"/>
		</g>
	</g>
	<path display="inline" fill="#FFFFFF" stroke="#FFFFFF" stroke-miterlimit="10" d="M88.274,131.372
		c0.08,2.995,2.599,5.401,5.626,5.373l22.398-0.209c3.026-0.028,5.415-2.479,5.334-5.475l0,0c-0.08-2.996-2.598-5.4-5.626-5.372
		l-22.397,0.208C90.583,125.925,88.194,128.376,88.274,131.372L88.274,131.372z"/>
	<g display="inline">
		<path fill="#FFFFFF" d="M152.72,130.829c5.838-0.179,10.527-3.321,10.473-7.019l0,0c-0.055-3.697-2.832-6.55-8.669-6.372
			L152.72,130.829z"/>
		<path fill="#FFFFFF" d="M152.214,131.324l1.79-14.35l0.503-0.015c6.159-0.183,9.14,2.887,9.198,6.844
			c0.057,3.952-4.864,7.318-10.969,7.504L152.214,131.324z M155.043,117.91l-1.819,12.416c5.308-0.331,9.504-3.185,9.456-6.509
			C162.631,120.505,160.399,117.911,155.043,117.91z"/>
	</g>
	<path display="inline" fill="#FFFFFF" d="M152.209,114.861H57.975c-1.324,0-2.402,1.078-2.402,2.402v11.66
		c0,1.324,1.078,2.402,2.402,2.402h94.234c2.58,0,2.402-2.078,2.402-2.402v-11.66C154.611,115.938,153.534,114.861,152.209,114.861z
		 M107.671,119.825h-2.678c-0.29,0-0.526-0.475-0.526-1.061s0.236-1.061,0.526-1.061h2.678c0.29,0,0.526,0.475,0.526,1.061
		S107.961,119.825,107.671,119.825z M113.851,119.825h-2.678c-0.291,0-0.526-0.475-0.526-1.061s0.236-1.061,0.526-1.061h2.678
		c0.291,0,0.526,0.475,0.526,1.061S114.142,119.825,113.851,119.825z M120.031,119.825h-2.678c-0.291,0-0.526-0.475-0.526-1.061
		s0.235-1.061,0.526-1.061h2.678c0.291,0,0.526,0.475,0.526,1.061S120.321,119.825,120.031,119.825z M126.21,119.825h-2.678
		c-0.291,0-0.526-0.475-0.526-1.061s0.235-1.061,0.526-1.061h2.678c0.29,0,0.526,0.475,0.526,1.061S126.5,119.825,126.21,119.825z
		 M132.39,119.825h-2.678c-0.29,0-0.526-0.475-0.526-1.061s0.236-1.061,0.526-1.061h2.678c0.291,0,0.526,0.475,0.526,1.061
		S132.681,119.825,132.39,119.825z M138.57,119.825h-2.678c-0.291,0-0.526-0.475-0.526-1.061s0.236-1.061,0.526-1.061h2.678
		c0.291,0,0.526,0.475,0.526,1.061S138.86,119.825,138.57,119.825z M152.309,118.564h-5.357c-0.581,0-1.052-0.585-1.052-1.307
		s0.471-1.307,1.052-1.307h5.357c0.581,0,1.052,0.585,1.052,1.307S152.89,118.564,152.309,118.564z"/>
</g>
</svg>
