<?xml version="1.0" encoding="iso-8859-1"?>
<!-- Generator: Adobe Illustrator 16.0.0, SVG Export Plug-In . SVG Version: 6.00 Build 0)  -->
<!DOCTYPE svg PUBLIC "-//W3C//DTD SVG 1.1//EN" "http://www.w3.org/Graphics/SVG/1.1/DTD/svg11.dtd">
<svg version="1.1" xmlns="http://www.w3.org/2000/svg" xmlns:xlink="http://www.w3.org/1999/xlink" x="0px" y="0px" width="361px"
	 height="361px" viewBox="0 0 361 361" style="enable-background:new 0 0 361 361;" xml:space="preserve">
<g id="user_x5F_away">
	<g>
		<circle style="fill:#FFFFFF;" cx="236.593" cy="156.564" r="28.837"/>
		<path style="fill:#FFFFFF;" d="M236.594,186.084c-16.276,0-29.52-13.244-29.52-29.52s13.243-29.52,29.52-29.52
			c16.275,0,29.517,13.244,29.517,29.52S252.869,186.084,236.594,186.084z M236.594,128.41c-15.525,0-28.154,12.63-28.154,28.154
			c0,15.522,12.629,28.154,28.154,28.154c15.523,0,28.15-12.632,28.15-28.154C264.744,141.041,252.117,128.41,236.594,128.41z"/>
	</g>
	<path style="fill:#FFFFFF;" d="M267.559,277.459c0,7.895-6.4,14.291-14.293,14.291h-33.348c-7.893,0-14.291-6.396-14.291-14.291
		v-71.745c0-7.894,6.398-14.291,14.291-14.291h33.348c7.893,0,14.293,6.397,14.293,14.291V277.459z"/>
	<path style="fill:#FFFFFF;" d="M273.856,204.122c0,16.776,0,62.553,0,79.331c0,11.443,17.745,11.443,17.745,0
		c0-16.778,0-62.555,0-79.331C291.602,192.678,273.856,192.678,273.856,204.122L273.856,204.122z"/>
	<path style="fill:#FFFFFF;" d="M181.583,204.12c0,16.778,0,62.554,0,79.331c0,11.443,17.745,11.443,17.745,0
		c0-16.777,0-62.553,0-79.331C199.328,192.677,181.583,192.677,181.583,204.12L181.583,204.12z"/>
	<g>
		<g>
			<g>
				<path style="fill:#FFFFFF;" d="M77.085,77.474c0.135-0.669,0.073-0.452,1.508-0.452c1.904,0,3.808,0,5.711,0
					c6.272,0,12.544,0,18.816,0c15.979,0,31.958,0,47.938,0c5.803,0,11.607,0,17.411,0c1.463,0,2.927,0,4.391,0
					c1.404,0,0.584-0.323,0.584-0.145c0,10.218,0,20.435,0,30.652c0,15.838,0,31.677,0,47.516c0,5.147,0,10.295,0,15.443
					c0,1.011,0,2.021,0,3.031c0,0.533,0.683-0.264,0.357-0.264c-0.395,0-0.789,0-1.184,0c-27.024,0-54.049,0-81.073,0
					c-4.101,0-8.203,0-12.304,0c-0.796,0-1.592,0-2.388,0c0.471,0,0.357,0.649,0.357-0.827c0-9.894,0-19.788,0-29.681
					c0-22.068,0-44.137,0-66.205c0-4.514-7-4.514-7,0c0,24.776,0,49.551,0,74.327c0,5.803,0,11.607,0,17.411
					c0,3.167-0.49,6.608,1.363,9.357c2.15,3.188,6.35,2.618,9.668,2.618c5.55,0,11.101,0,16.651,0c25.326,0,50.651,0,75.976,0
					c9.515,0,6.576-17.093,6.576-22.846c0-15.679,0-31.359,0-47.038c0-10.995,0-21.99,0-32.985c0-9.625-12.08-7.364-18.482-7.364
					c-27.574,0-55.147,0-82.721,0c-4.083,0-7.944,0.829-8.906,5.59C69.445,80.02,76.191,81.896,77.085,77.474z"/>
			</g>
		</g>
		<g>
			<g>
				<path style="fill:#FFFFFF;" d="M74.2,128.516c3.76,0,7.52,0,11.28,0c4.514,0,4.514-7,0-7c-3.76,0-7.52,0-11.28,0
					C69.686,121.516,69.686,128.516,74.2,128.516L74.2,128.516z"/>
			</g>
		</g>
		<g>
			<g>
				<path style="fill:#FFFFFF;" d="M164.929,128.516c3.678,0,7.356,0,11.035,0c4.514,0,4.514-7,0-7c-3.678,0-7.356,0-11.035,0
					C160.415,121.516,160.415,128.516,164.929,128.516L164.929,128.516z"/>
			</g>
		</g>
		<g>
			<g>
				<path style="fill:#FFFFFF;" d="M121.704,74.748c0,3.515,0,7.029,0,10.544c0,4.514,7,4.514,7,0c0-3.515,0-7.029,0-10.544
					C128.704,70.234,121.704,70.234,121.704,74.748L121.704,74.748z"/>
			</g>
		</g>
		<g>
			<g>
				<path style="fill:#FFFFFF;" d="M121.704,164.741c0,3.596,0,7.193,0,10.789c0,4.514,7,4.514,7,0c0-3.596,0-7.193,0-10.789
					C128.704,160.227,121.704,160.227,121.704,164.741L121.704,164.741z"/>
			</g>
		</g>
		<g>
			<g>
				<path style="fill:#FFFFFF;" d="M121.95,94.365c0,10.258,0,20.516,0,30.774c0,4.514,7,4.514,7,0c0-10.258,0-20.516,0-30.774
					C128.95,89.851,121.95,89.851,121.95,94.365L121.95,94.365z"/>
			</g>
		</g>
		<g>
			<g>
				<path style="fill:#FFFFFF;" d="M123.22,127.737c4.414,4.414,8.828,8.827,13.242,13.241c3.195,3.194,8.145-1.755,4.95-4.95
					c-4.414-4.414-8.828-8.827-13.242-13.241C124.975,119.592,120.025,124.542,123.22,127.737L123.22,127.737z"/>
			</g>
		</g>
	</g>
</g>
<g id="Ebene_1">
</g>
</svg>
