<?xml version="1.0" encoding="iso-8859-1"?>
<!-- Generator: Adobe Illustrator 16.0.0, SVG Export Plug-In . SVG Version: 6.00 Build 0)  -->
<!DOCTYPE svg PUBLIC "-//W3C//DTD SVG 1.1//EN" "http://www.w3.org/Graphics/SVG/1.1/DTD/svg11.dtd">
<svg version="1.1" xmlns="http://www.w3.org/2000/svg" xmlns:xlink="http://www.w3.org/1999/xlink" x="0px" y="0px" width="361px"
	 height="361px" viewBox="0 0 361 361" style="enable-background:new 0 0 361 361;" xml:space="preserve">
<g id="user_x5F_ext_x5F_away">
	<g>
		<circle style="fill:#FFFFFF;" cx="236.593" cy="156.564" r="28.837"/>
		<path style="fill:#FFFFFF;" d="M236.594,186.084c-16.276,0-29.52-13.244-29.52-29.52s13.243-29.52,29.52-29.52
			c16.275,0,29.517,13.244,29.517,29.52S252.869,186.084,236.594,186.084z M236.594,128.41c-15.525,0-28.154,12.63-28.154,28.154
			c0,15.522,12.629,28.154,28.154,28.154c15.523,0,28.15-12.632,28.15-28.154C264.744,141.041,252.117,128.41,236.594,128.41z"/>
	</g>
	<path style="fill:#FFFFFF;" d="M267.559,277.459c0,7.895-6.4,14.291-14.293,14.291h-33.348c-7.893,0-14.291-6.396-14.291-14.291
		v-71.745c0-7.894,6.398-14.291,14.291-14.291h33.348c7.893,0,14.293,6.397,14.293,14.291V277.459z"/>
	<path style="fill:#FFFFFF;" d="M273.856,204.122c0,16.776,0,62.553,0,79.331c0,11.443,17.745,11.443,17.745,0
		c0-16.778,0-62.555,0-79.331C291.602,192.678,273.856,192.678,273.856,204.122L273.856,204.122z"/>
	<path style="fill:#FFFFFF;" d="M181.583,204.12c0,16.778,0,62.554,0,79.331c0,11.443,17.745,11.443,17.745,0
		c0-16.777,0-62.553,0-79.331C199.328,192.677,181.583,192.677,181.583,204.12L181.583,204.12z"/>
	<g id="Flugzeug_x5F_schraeg">
		<g>
			<polygon style="fill:#FFFFFF;" points="87.409,125.104 97.053,120.997 86.276,109.803 75.5,98.608 76.634,113.909 77.766,129.21 
							"/>
			<g>
				<path style="fill:#FFFFFF;" d="M89.933,129.421c3.215-1.369,6.43-2.738,9.644-4.107c3.065-1.306,3.025-5.762,1.012-7.853
					c-7.185-7.462-14.369-14.925-21.553-22.389c-2.886-2.998-8.863-0.882-8.536,3.536c0.755,10.201,1.511,20.402,2.266,30.603
					c0.301,4.073,3.951,5.839,7.523,4.317C83.504,132.159,86.718,130.79,89.933,129.421c5.917-2.52,0.815-11.131-5.047-8.635
					c-3.214,1.369-6.429,2.738-9.643,4.107c2.508,1.439,5.016,2.878,7.523,4.317c-0.755-10.201-1.51-20.402-2.266-30.603
					c-2.845,1.179-5.69,2.357-8.536,3.536c7.184,7.463,14.368,14.926,21.553,22.389c0.337-2.618,0.675-5.235,1.012-7.853
					c-3.215,1.369-6.43,2.738-9.644,4.107C78.969,123.306,84.07,131.917,89.933,129.421z"/>
			</g>
		</g>
		<path style="fill:#FFFFFF;stroke:#FFFFFF;stroke-miterlimit:10;" d="M123.029,116.265c1.425,3.098,5.138,4.488,8.292,3.103
			l23.344-10.248c3.154-1.385,4.557-5.019,3.131-8.118l0,0c-1.425-3.099-5.137-4.488-8.292-3.103l-23.344,10.246
			C123.006,109.532,121.604,113.166,123.029,116.265L123.029,116.265z"/>
		<g>
			<path style="fill:#FFFFFF;" d="M190.224,86.842c6.028-2.801,9.528-8.188,7.815-12.034l0,0c-1.712-3.845-5.895-5.587-11.924-2.787
				L190.224,86.842z"/>
			<path style="fill:#FFFFFF;" d="M189.916,87.586l-4.552-15.818l0.52-0.242c6.362-2.948,10.856-1.071,12.69,3.044
				c1.828,4.11-1.814,9.836-8.119,12.764L189.916,87.586z M186.871,72.282l3.655,13.807c5.405-2.723,8.52-7.587,6.979-11.045
				C195.973,71.6,192.475,69.885,186.871,72.282z"/>
		</g>
		<path style="fill:#FFFFFF;" d="M182.539,70.361l-98.608,42.193c-1.386,0.593-2.031,2.203-1.438,3.589l5.221,12.201
			c0.593,1.386,2.203,2.031,3.589,1.438l98.608-42.193c2.701-1.155,1.584-3.25,1.439-3.589l-5.222-12.201
			C185.535,70.412,183.926,69.768,182.539,70.361z M138.156,95.497l-2.802,1.199c-0.303,0.13-0.763-0.261-1.025-0.875
			c-0.263-0.614-0.229-1.216,0.075-1.346l2.803-1.2c0.303-0.129,0.763,0.262,1.025,0.875
			C138.494,94.764,138.459,95.367,138.156,95.497z M144.623,92.729l-2.802,1.2c-0.304,0.13-0.764-0.262-1.026-0.875
			c-0.263-0.613-0.229-1.216,0.075-1.346l2.803-1.198c0.304-0.13,0.763,0.261,1.025,0.875
			C144.96,91.997,144.927,92.599,144.623,92.729z M151.09,89.963l-2.802,1.199c-0.304,0.13-0.763-0.262-1.025-0.875
			c-0.262-0.613-0.229-1.216,0.075-1.346l2.802-1.199c0.304-0.129,0.764,0.262,1.026,0.875
			C151.428,89.23,151.394,89.833,151.09,89.963z M157.556,87.196l-2.803,1.2c-0.304,0.13-0.763-0.262-1.025-0.875
			c-0.262-0.614-0.229-1.216,0.076-1.346l2.802-1.199c0.304-0.13,0.763,0.262,1.025,0.875
			C157.894,86.464,157.859,87.066,157.556,87.196z M164.023,84.429l-2.803,1.199c-0.304,0.13-0.764-0.262-1.026-0.875
			c-0.262-0.612-0.229-1.215,0.075-1.345l2.803-1.199c0.304-0.131,0.763,0.261,1.025,0.874
			C164.36,83.696,164.327,84.299,164.023,84.429z M170.489,81.662l-2.802,1.2c-0.305,0.129-0.763-0.262-1.026-0.875
			s-0.228-1.216,0.076-1.347l2.802-1.198c0.304-0.13,0.762,0.262,1.024,0.875C170.827,80.929,170.793,81.532,170.489,81.662z
			 M184.302,74.191l-5.605,2.399c-0.608,0.26-1.363-0.141-1.686-0.896c-0.324-0.755-0.093-1.578,0.515-1.838l5.606-2.398
			c0.607-0.26,1.362,0.141,1.686,0.896C185.141,73.108,184.91,73.931,184.302,74.191z"/>
	</g>
	<g id="Flugzeug_1_" style="display:none;">
		<g style="display:inline;">
			<polygon style="fill:#FFFFFF;" points="58.966,123.322 68.175,123.338 63.339,110.571 58.504,97.804 54.131,110.555 
				49.757,123.306 			"/>
			<g>
				<path style="fill:#FFFFFF;" d="M58.966,128.322c3.07,0.005,6.14,0.011,9.209,0.016c3.021,0.005,5.991-3.242,4.821-6.329
					c-3.224-8.511-6.448-17.022-9.671-25.534c-1.754-4.633-7.973-4.869-9.643,0c-2.916,8.5-5.831,17.001-8.747,25.502
					c-1.068,3.113,1.724,6.324,4.821,6.329C52.827,128.312,55.896,128.316,58.966,128.322c6.449,0.011,6.448-9.989,0-10
					c-3.069-0.005-6.139-0.01-9.208-0.016c1.607,2.11,3.214,4.219,4.821,6.329c2.916-8.5,5.832-17.001,8.747-25.502
					c-3.214,0-6.428,0-9.643,0c3.223,8.512,6.447,17.023,9.671,25.534c1.607-2.11,3.214-4.219,4.821-6.329
					c-3.07-0.005-6.14-0.011-9.209-0.016C52.517,118.311,52.518,128.311,58.966,128.322z"/>
			</g>
		</g>
		<path style="display:inline;fill:#FFFFFF;stroke:#FFFFFF;stroke-miterlimit:10;" d="M90.792,128.494
			c0.08,2.995,2.599,5.401,5.626,5.373l22.398-0.209c3.026-0.028,5.415-2.479,5.334-5.475l0,0c-0.08-2.996-2.598-5.4-5.626-5.372
			l-22.397,0.208C93.101,123.047,90.712,125.498,90.792,128.494L90.792,128.494z"/>
		<g style="display:inline;">
			<path style="fill:#FFFFFF;" d="M155.238,127.951c5.838-0.179,10.527-3.321,10.473-7.019l0,0c-0.055-3.697-2.832-6.55-8.669-6.372
				L155.238,127.951z"/>
			<path style="fill:#FFFFFF;" d="M154.732,128.446l1.79-14.35l0.503-0.015c6.159-0.183,9.14,2.887,9.198,6.844
				c0.057,3.952-4.864,7.318-10.969,7.504L154.732,128.446z M157.562,115.032l-1.819,12.416c5.308-0.331,9.504-3.185,9.456-6.509
				C165.149,117.627,162.917,115.033,157.562,115.032z"/>
		</g>
		<path style="display:inline;fill:#FFFFFF;" d="M154.727,111.983H60.493c-1.324,0-2.402,1.078-2.402,2.402v11.66
			c0,1.324,1.078,2.402,2.402,2.402h94.234c2.58,0,2.402-2.078,2.402-2.402v-11.66C157.129,113.061,156.052,111.983,154.727,111.983
			z M110.189,116.947h-2.678c-0.29,0-0.526-0.475-0.526-1.061s0.236-1.061,0.526-1.061h2.678c0.29,0,0.526,0.475,0.526,1.061
			S110.479,116.947,110.189,116.947z M116.369,116.947h-2.678c-0.291,0-0.526-0.475-0.526-1.061s0.236-1.061,0.526-1.061h2.678
			c0.291,0,0.526,0.475,0.526,1.061S116.66,116.947,116.369,116.947z M122.549,116.947h-2.678c-0.291,0-0.526-0.475-0.526-1.061
			s0.235-1.061,0.526-1.061h2.678c0.291,0,0.526,0.475,0.526,1.061S122.839,116.947,122.549,116.947z M128.729,116.947h-2.678
			c-0.291,0-0.526-0.475-0.526-1.061s0.235-1.061,0.526-1.061h2.678c0.29,0,0.526,0.475,0.526,1.061
			S129.019,116.947,128.729,116.947z M134.908,116.947h-2.678c-0.29,0-0.526-0.475-0.526-1.061s0.236-1.061,0.526-1.061h2.678
			c0.291,0,0.526,0.475,0.526,1.061S135.199,116.947,134.908,116.947z M141.088,116.947h-2.678c-0.291,0-0.526-0.475-0.526-1.061
			s0.236-1.061,0.526-1.061h2.678c0.291,0,0.526,0.475,0.526,1.061S141.378,116.947,141.088,116.947z M154.827,115.687h-5.357
			c-0.581,0-1.052-0.585-1.052-1.307s0.471-1.307,1.052-1.307h5.357c0.581,0,1.052,0.585,1.052,1.307
			S155.408,115.687,154.827,115.687z"/>
	</g>
</g>
<g id="Ebene_1">
</g>
</svg>
