<?xml version="1.0" encoding="iso-8859-1"?>
<!-- Generator: Adobe Illustrator 16.0.0, SVG Export Plug-In . SVG Version: 6.00 Build 0)  -->
<!DOCTYPE svg PUBLIC "-//W3C//DTD SVG 1.1//EN" "http://www.w3.org/Graphics/SVG/1.1/DTD/svg11.dtd">
<svg version="1.1" xmlns="http://www.w3.org/2000/svg" xmlns:xlink="http://www.w3.org/1999/xlink" x="0px" y="0px" width="361px"
	 height="361px" viewBox="0 0 361 361" style="enable-background:new 0 0 361 361;" xml:space="preserve">
<g id="user_x5F_available">
	<g>
		<circle style="fill:#FFFFFF;" cx="236.593" cy="156.564" r="28.837"/>
		<path style="fill:#FFFFFF;" d="M236.594,186.084c-16.276,0-29.52-13.244-29.52-29.52s13.243-29.52,29.52-29.52
			c16.275,0,29.517,13.244,29.517,29.52S252.869,186.084,236.594,186.084z M236.594,128.41c-15.525,0-28.154,12.63-28.154,28.154
			c0,15.522,12.629,28.154,28.154,28.154c15.523,0,28.15-12.632,28.15-28.154C264.744,141.041,252.117,128.41,236.594,128.41z"/>
	</g>
	<path style="fill:#FFFFFF;" d="M267.559,277.459c0,7.895-6.4,14.291-14.293,14.291h-33.348c-7.893,0-14.291-6.396-14.291-14.291
		v-71.745c0-7.894,6.398-14.291,14.291-14.291h33.348c7.893,0,14.293,6.397,14.293,14.291V277.459z"/>
	<path style="fill:#FFFFFF;" d="M273.856,204.122c0,16.776,0,62.553,0,79.331c0,11.443,17.745,11.443,17.745,0
		c0-16.778,0-62.555,0-79.331C291.602,192.678,273.856,192.678,273.856,204.122L273.856,204.122z"/>
	<path style="fill:#FFFFFF;" d="M181.583,204.12c0,16.778,0,62.554,0,79.331c0,11.443,17.745,11.443,17.745,0
		c0-16.777,0-62.553,0-79.331C199.328,192.677,181.583,192.677,181.583,204.12L181.583,204.12z"/>
	<g>
		<line style="fill:#FFFFFF;" x1="108.66" y1="172.531" x2="77.701" y2="141.573"/>
		<g>
			<path style="fill:#FFFFFF;" d="M113.936,167.199c-10.32-10.319-20.639-20.639-30.959-30.958
				c-6.835-6.835-17.403,3.813-10.551,10.665c10.319,10.319,20.639,20.639,30.958,30.958
				C110.22,184.699,120.788,174.051,113.936,167.199L113.936,167.199z"/>
		</g>
	</g>
	<g>
		<line style="fill:#FFFFFF;" x1="172.583" y1="77.424" x2="108.66" y2="172.531"/>
		<g>
			<path style="fill:#FFFFFF;" d="M166.088,73.674c-21.308,31.702-42.616,63.405-63.923,95.107c-5.406,8.042,7.62,15.489,12.99,7.5
				c21.308-31.702,42.616-63.405,63.923-95.107C184.483,73.132,171.458,65.685,166.088,73.674L166.088,73.674z"/>
		</g>
	</g>
</g>
<g id="Ebene_1">
</g>
</svg>
