<?xml version="1.0" encoding="iso-8859-1"?>
<!-- Generator: Adobe Illustrator 16.0.0, SVG Export Plug-In . SVG Version: 6.00 Build 0)  -->
<!DOCTYPE svg PUBLIC "-//W3C//DTD SVG 1.1 Tiny//EN" "http://www.w3.org/Graphics/SVG/1.1/DTD/svg11-tiny.dtd">
<svg version="1.1" baseProfile="tiny" id="user_x5F_available"
	 xmlns="http://www.w3.org/2000/svg" xmlns:xlink="http://www.w3.org/1999/xlink" x="0px" y="0px" width="361px" height="361px"
	 viewBox="0 0 361 361" xml:space="preserve">
<g>
	<circle fill="#FFFFFF" cx="234.075" cy="159.442" r="28.836"/>
	<path fill="#FFFFFF" d="M234.076,188.961c-16.276,0-29.52-13.243-29.52-29.519s13.243-29.52,29.52-29.52
		c16.276,0,29.517,13.244,29.517,29.52S250.352,188.961,234.076,188.961z M234.076,131.288c-15.525,0-28.154,12.63-28.154,28.154
		c0,15.522,12.629,28.154,28.154,28.154c15.523,0,28.151-12.632,28.151-28.154C262.227,143.918,249.599,131.288,234.076,131.288z"/>
</g>
<path fill="#FFFFFF" d="M265.04,280.336c0,7.895-6.399,14.292-14.292,14.292h-33.348c-7.893,0-14.291-6.397-14.291-14.292v-71.745
	c0-7.894,6.398-14.291,14.291-14.291h33.348c7.893,0,14.292,6.397,14.292,14.291V280.336z"/>
<path fill="#FFFFFF" d="M271.338,207c0,16.777,0,62.553,0,79.331c0,11.444,17.746,11.444,17.746,0c0-16.778,0-62.554,0-79.331
	C289.084,195.556,271.338,195.556,271.338,207L271.338,207z"/>
<path fill="#FFFFFF" d="M179.065,206.998c0,16.779,0,62.554,0,79.331c0,11.444,17.746,11.444,17.746,0c0-16.777,0-62.552,0-79.331
	C196.811,195.555,179.065,195.555,179.065,206.998L179.065,206.998z"/>
<g>
	<line fill="#FFFFFF" x1="106.142" y1="175.409" x2="75.183" y2="144.451"/>
	<g>
		<path fill="#FFFFFF" d="M111.417,170.077c-10.32-10.319-20.639-20.639-30.959-30.958c-6.835-6.835-17.403,3.813-10.551,10.665
			c10.319,10.319,20.639,20.639,30.958,30.958C107.702,187.577,118.27,176.929,111.417,170.077L111.417,170.077z"/>
	</g>
</g>
<g>
	<line fill="#FFFFFF" x1="170.065" y1="80.302" x2="106.142" y2="175.409"/>
	<g>
		<path fill="#FFFFFF" d="M163.57,76.552c-21.308,31.702-42.616,63.405-63.923,95.107c-5.406,8.042,7.62,15.49,12.99,7.5
			c21.308-31.702,42.616-63.405,63.923-95.107C181.966,76.01,168.94,68.563,163.57,76.552L163.57,76.552z"/>
	</g>
</g>
</svg>
