<?xml version="1.0" encoding="iso-8859-1"?>
<!-- Generator: Adobe Illustrator 24.0.1, SVG Export Plug-In . SVG Version: 6.00 Build 0)  -->
<svg version="1.1" xmlns="http://www.w3.org/2000/svg" xmlns:xlink="http://www.w3.org/1999/xlink" x="0px" y="0px"
	 viewBox="0 0 361 361" style="enable-background:new 0 0 361 361;" xml:space="preserve">
<g id="veh_x5F_wallbox">
	<path style="display:none;fill:#FFFFFF;" d="M136.543,285.667c0,3.314-2.686,6-6,6h-11.5c-3.313,0-6-2.686-6-6v-22
		c0-3.314,2.687-6,6-6h11.5c3.314,0,6,2.686,6,6V285.667z"/>
	<path style="display:none;fill:#FFFFFF;" d="M248.957,285.667c0,3.314-2.687,6-6,6h-11.5c-3.314,0-6-2.686-6-6v-22
		c0-3.314,2.686-6,6-6h11.5c3.313,0,6,2.686,6,6V285.667z"/>
	<g id="wallbox">
		<g>
			<g>
				<path style="fill:#FFFFFF;" d="M217.17,215.95c-0.461,6.854-10.536,5-15.189,5c-9.831,0-19.661,0-29.492,0
					c-21.168,0-42.336,0-63.504,0c-4.735,0-11.237,1.181-11.81-5.357c-0.431-4.906,0-10.047,0-14.967c0-22.16,0-44.32,0-66.48
					c0-16.079-0.702-32.334,0-48.401c0.275-6.304,5.5-5.795,10.118-5.795c8.7,0,17.4,0,26.101,0c22.23,0,44.46,0,66.69,0
					c3.797,0,11.788-1.494,15.116,1.074c3.3,2.546,1.97,10.139,1.97,13.723c0,39.374,0,78.749,0,118.123
					C217.17,213.896,217.17,214.923,217.17,215.95c0,6.435,10,6.445,10,0c0-38.669,0-77.339,0-116.008c0-4.959,0.214-9.972,0-14.927
					c-0.334-7.732-5.757-14.201-13.643-14.974c-1.657-0.162-3.337-0.091-4.998-0.091c-21.578,0-43.157,0-64.735,0
					c-10.677,0-21.355,0-32.032,0c-6.741,0-14.33-1.015-19.713,3.971c-5.588,5.176-4.874,12.139-4.874,18.964
					c0,9.372,0,18.743,0,28.115c0,24.386,0,48.772,0,73.157c0,6.796-0.082,13.598,0,20.394c0.114,9.4,6.235,16.21,15.848,16.399
					c19.2,0.378,38.444,0,57.647,0c17.103,0,34.398,0.761,51.488,0c8.56-0.381,14.446-6.584,15.012-15
					C227.602,209.526,217.6,209.552,217.17,215.95z"/>
			</g>
		</g>
		<g>
			<g>
				<path style="fill:#FFFFFF;" d="M193.423,204.171c4.485-31.298,8.97-62.596,13.455-93.894c0.639-4.463,1.279-8.925,1.918-13.388
					c0.631-4.406-6.112-6.31-6.75-1.861c-4.485,31.298-8.97,62.596-13.455,93.895c-0.639,4.463-1.279,8.925-1.918,13.388
					C186.041,206.717,192.785,208.62,193.423,204.171L193.423,204.171z"/>
			</g>
		</g>
		<g>
			<g>
				<path style="fill:#FFFFFF;" d="M126.788,202.311c-4.485-31.298-8.97-62.596-13.455-93.895
					c-0.639-4.463-1.279-8.925-1.918-13.388c-0.636-4.442-7.382-2.552-6.75,1.861c4.485,31.298,8.97,62.596,13.455,93.895
					c0.639,4.463,1.279,8.925,1.918,13.388C120.674,208.613,127.42,206.724,126.788,202.311L126.788,202.311z"/>
			</g>
		</g>
		<path style="fill:none;stroke:#FFFFFF;stroke-width:10;" d="M157.172,225.95c0,59.847,14.12,60.435,58.679,60.435
			c35.844,0,54.25-29.186,47.25-83.444c-2.446-18.957-3.46-22.676-3.46-22.676"/>
		<g id="ein_x5F_aus_6_">
			<path style="fill:none;stroke:#FFFFFF;stroke-width:7;stroke-miterlimit:10;" d="M173.422,197.21c0,3.165-2.566,5.73-5.73,5.73
				h-20.373c-3.165,0-5.73-2.566-5.73-5.73v-20.373c0-3.165,2.565-5.73,5.73-5.73h20.373c3.165,0,5.73,2.566,5.73,5.73V197.21z"/>
			
				<line style="fill:none;stroke:#FFFFFF;stroke-width:7;stroke-linecap:round;stroke-miterlimit:10;" x1="157.594" y1="182.22" x2="157.594" y2="193.294"/>
		</g>
		<polygon style="fill:none;stroke:#FFFFFF;stroke-width:10;stroke-linecap:round;stroke-linejoin:round;" points="249.726,180.264 
			236.101,138.794 222.17,132.667 222.17,93.539 252.987,110.927 268.833,180.264 		"/>
	</g>
	<g style="display:none;">
		<path style="display:inline;fill:#FFFFFF;" d="M181.049,201.177c12.438,0,24.186,0,40.137,3.803
			c0.044,0.014,4.476,1.566,12.904,18.173c1.595,3.143,3.042,6.258,4.262,9.009H123.679c1.212-2.716,2.648-5.787,4.232-8.898
			c8.517-16.725,12.97-18.298,12.999-18.308c14.693-3.779,27.369-3.779,39.627-3.779h0.255H181.049 M181.049,194.177
			c-0.086,0-0.171,0-0.257,0c-0.084,0-0.171,0-0.255,0c-12.825,0-25.87,0.013-41.371,4c-11.57,2.976-26,40.985-26,40.985h135.667
			c0,0-14.379-38.214-26-40.985C206.114,194.19,193.964,194.177,181.049,194.177L181.049,194.177z"/>
	</g>
	<g style="display:none;">
		<path style="display:inline;fill:#FFFFFF;" d="M133.666,161.72c0,3.313-2.686,6-6,6h-11.5c-3.313,0-6-2.687-6-6v-32
			c0-3.313,2.687-6,6-6h11.5c3.313,0,6,2.687,6,6V161.72z"/>
		<path style="display:inline;fill:#FFFFFF;" d="M250.833,161.72c0,3.313-2.686,6-6,6h-11.5c-3.314,0-6-2.687-6-6v-32
			c0-3.313,2.686-6,6-6h11.5c3.314,0,6,2.687,6,6V161.72z"/>
		<path style="display:inline;fill:#FFFFFF;" d="M244.74,111.4H116.26c-3.433,0-6.216,2.376-6.216,5.306v27.709
			c0,2.929,2.784,5.305,6.216,5.305H244.74c3.433,0,6.217-2.376,6.217-5.305v-27.709C250.957,113.776,248.173,111.4,244.74,111.4z
			 M143.185,127.855c0,2.597-2.691,4.701-6.011,4.701h-17.28c-3.319,0-6.011-2.104-6.011-4.701v-4.897
			c0-2.596,2.691-4.702,6.011-4.702h17.28c3.319,0,6.011,2.105,6.011,4.702V127.855z M246.867,127.855
			c0,2.597-2.691,4.701-6.01,4.701h-17.28c-3.319,0-6.011-2.104-6.011-4.701v-4.897c0-2.596,2.691-4.702,6.011-4.702h17.28
			c3.319,0,6.01,2.105,6.01,4.702V127.855z"/>
		<g style="display:inline;">
			<path style="fill:#FFFFFF;" d="M231.833,76.667c1.55,2.224,4.398,7.655,7.782,20.393c1.111,4.181,2.035,8.247,2.739,11.592
				H118.646c0.704-3.345,1.629-7.411,2.739-11.592c3.384-12.739,6.232-18.17,7.782-20.393H231.833 M234.833,69.667H126.166
				c-9.528,7.208-16,45.985-16,45.985h140.667C250.833,115.652,244.361,76.875,234.833,69.667L234.833,69.667z"/>
		</g>
	</g>
	<path style="display:none;fill:#FFFFFF;" d="M119.475,233.87c-1.416,0.605-1.04,0.721-10.828-4.261
		c-3.705-1.886-2.873-5.367-2.873-5.367l0,0c0-1.86,1.238-3.383,2.751-3.383h10.863c1.513,0,2.751,1.522,2.751,3.383v6.233
		C122.139,232.334,119.475,233.87,119.475,233.87z"/>
	<path style="display:none;fill:#FFFFFF;" d="M242.53,233.87c1.416,0.605,1.04,0.721,10.828-4.261
		c3.705-1.886,2.873-5.367,2.873-5.367l0,0c0-1.86-1.238-3.383-2.751-3.383h-10.863c-1.513,0-2.751,1.522-2.751,3.383v6.233
		C239.867,232.334,242.53,233.87,242.53,233.87z"/>
	<path style="display:none;fill:#FFFFFF;" d="M242.74,234.91H119.26c-3.433,0-6.216,2.376-6.216,5.306v34.709
		c0,2.929,2.784,5.305,6.216,5.305H242.74c3.433,0,6.217-2.376,6.217-5.305v-34.709C248.957,237.286,246.173,234.91,242.74,234.91z
		 M153.987,252.426c0,2.487-2.551,4.523-5.67,4.523h-22.39c-3.118,0-5.67-2.035-5.67-4.523v-6.653c0-2.487,2.536-4.799,3.942-5.362
		c2.812-1.125,2.662-2.64,22.835,4.021C154.671,246.954,153.987,252.426,153.987,252.426z M206.394,271.132c0,2.2-1.8,4-4,4h-42.787
		c-2.2,0-4-1.8-4-4l-2.4-9.187c0-2.2,1.8-4,4-4h47.587c2.2,0,4,1.8,4,4L206.394,271.132z M241.206,252.426
		c0,2.487-2.551,4.523-5.67,4.523h-22.389c-3.118,0-5.67-2.035-5.67-4.523c0,0-0.683-5.472,6.952-7.993
		c20.173-6.661,20.023-5.147,22.835-4.021c1.405,0.562,3.942,2.874,3.942,5.362V252.426z"/>
</g>
<g id="Ebene_1">
</g>
</svg>
