<?xml version="1.0" encoding="iso-8859-1"?>
<!-- Generator: Adobe Illustrator 24.0.1, SVG Export Plug-In . SVG Version: 6.00 Build 0)  -->
<svg version="1.1" xmlns="http://www.w3.org/2000/svg" xmlns:xlink="http://www.w3.org/1999/xlink" x="0px" y="0px"
	 viewBox="0 0 361 361" style="enable-background:new 0 0 361 361;" xml:space="preserve">
<g id="veh_x5F_car_x5F_01">
	<g style="display:none;">
		<path style="display:inline;fill:#FFFFFF;" d="M136.543,285.667c0,3.314-2.686,6-6,6h-11.5c-3.313,0-6-2.686-6-6v-22
			c0-3.314,2.687-6,6-6h11.5c3.314,0,6,2.686,6,6V285.667z"/>
		<path style="display:inline;fill:#FFFFFF;" d="M248.957,285.667c0,3.314-2.686,6-6,6h-11.5c-3.313,0-6-2.686-6-6v-22
			c0-3.314,2.687-6,6-6h11.5c3.314,0,6,2.686,6,6V285.667z"/>
		<g style="display:inline;">
			<path style="fill:#FFFFFF;" d="M181.049,201.177c12.438,0,24.186,0,40.137,3.803c0.044,0.014,4.476,1.566,12.904,18.173
				c1.595,3.143,3.042,6.258,4.262,9.009H123.679c1.212-2.716,2.648-5.787,4.232-8.898c8.517-16.725,12.97-18.298,12.999-18.308
				c14.693-3.779,27.369-3.779,39.627-3.779h0.255H181.049 M181.049,194.177c-0.086,0-0.171,0-0.257,0c-0.084,0-0.171,0-0.255,0
				c-12.825,0-25.87,0.013-41.371,4c-11.57,2.976-26,40.985-26,40.985h135.667c0,0-14.379-38.214-26-40.985
				C206.114,194.19,193.964,194.177,181.049,194.177L181.049,194.177z"/>
		</g>
		<path style="display:inline;fill:#FFFFFF;" d="M119.475,233.87c-1.416,0.605-1.04,0.721-10.828-4.261
			c-3.705-1.886-2.873-5.367-2.873-5.367l0,0c0-1.86,1.238-3.383,2.751-3.383h10.863c1.513,0,2.751,1.522,2.751,3.383v6.233
			C122.139,232.334,119.475,233.87,119.475,233.87z"/>
		<path style="display:inline;fill:#FFFFFF;" d="M242.53,233.87c1.416,0.605,1.04,0.721,10.828-4.261
			c3.705-1.886,2.873-5.367,2.873-5.367l0,0c0-1.86-1.238-3.383-2.751-3.383h-10.863c-1.513,0-2.751,1.522-2.751,3.383v6.233
			C239.867,232.334,242.53,233.87,242.53,233.87z"/>
		<path style="display:inline;fill:#FFFFFF;" d="M242.74,234.91H119.26c-3.433,0-6.216,2.376-6.216,5.306v34.709
			c0,2.929,2.784,5.305,6.216,5.305H242.74c3.433,0,6.217-2.376,6.217-5.305v-34.709C248.957,237.286,246.173,234.91,242.74,234.91z
			 M153.988,252.426c0,2.487-2.551,4.523-5.67,4.523h-22.389c-3.118,0-5.67-2.035-5.67-4.523v-6.653
			c0-2.487,2.536-4.799,3.941-5.362c2.812-1.125,2.662-2.64,22.835,4.021C154.671,246.954,153.988,252.426,153.988,252.426z
			 M206.394,271.132c0,2.2-1.8,4-4,4h-42.787c-2.2,0-4-1.8-4-4l-2.4-9.187c0-2.2,1.8-4,4-4h47.587c2.2,0,4,1.8,4,4L206.394,271.132z
			 M241.206,252.426c0,2.487-2.551,4.523-5.67,4.523h-22.389c-3.118,0-5.67-2.035-5.67-4.523c0,0-0.683-5.472,6.952-7.993
			c20.173-6.661,20.023-5.147,22.835-4.021c1.405,0.562,3.942,2.874,3.942,5.362V252.426z"/>
	</g>
	<path style="fill:#FFFFFF;" d="M291.519,153.014c0-2.737-1.821-4.977-4.047-4.977h-15.983c-0.845,0-1.63,0.325-2.281,0.875
		c-7.586-15.311-17.775-32.088-26.828-34.247c-24.6-5.866-42.477-5.885-61.478-5.885c-0.126,0-0.252,0-0.378,0
		c-0.124,0-0.251,0-0.375,0c-18.87,0-38.064,0.019-60.87,5.885c-9.002,2.316-19.179,19.044-26.772,34.295
		c-0.66-0.576-1.461-0.923-2.328-0.923H74.195c-2.226,0-4.047,2.24-4.047,4.977c0,0-1.224,5.122,4.227,7.897
		c4.95,2.52,8.133,4.153,10.264,5.176c-1.328,3.124-2.326,5.598-2.936,7.141c-0.3,0.549-0.535,1.129-0.679,1.739l0,0.001h0
		c-0.118,0.501-0.182,1.019-0.182,1.55v34.505v16.564v15.805c0,4.875,3.953,8.828,8.828,8.828h16.92
		c4.875,0,8.828-3.953,8.828-8.828v-8h130.821v8c0,4.875,3.953,8.828,8.828,8.828h16.92c4.875,0,8.828-3.953,8.828-8.828v-15.805
		v-16.564v-34.505c0-0.531-0.063-1.049-0.182-1.55h0l-0.001-0.001c-0.141-0.597-0.369-1.165-0.659-1.704
		c-0.604-1.541-1.6-4.033-2.93-7.184c2.131-1.023,5.31-2.654,10.247-5.168C292.742,158.137,291.519,153.014,291.519,153.014z
		 M132.742,201.138H99.8c-4.588,0-8.342-2.995-8.342-6.654v-9.788c0-3.66,3.732-7.061,5.799-7.889
		c4.138-1.656,3.917-3.884,33.598,5.916c11.235,3.71,10.229,11.761,10.229,11.761C141.084,198.143,137.33,201.138,132.742,201.138z
		 M218.191,222.006c0,3.237-2.648,5.885-5.885,5.885h-62.954c-3.237,0-5.885-2.648-5.885-5.885l-3.531-13.517
		c0-3.237,2.648-5.885,5.885-5.885h70.016c3.237,0,5.885,2.648,5.885,5.885L218.191,222.006z M269.411,194.484
		c0,3.66-3.754,6.654-8.342,6.654h-32.942c-4.588,0-8.342-2.995-8.342-6.654c0,0-1.006-8.051,10.229-11.761
		c29.681-9.801,29.46-7.572,33.598-5.916c2.068,0.827,5.799,4.229,5.799,7.889V194.484z M102.717,151.577
		c12.531-24.608,19.084-26.923,19.126-26.937c21.618-5.561,40.268-5.561,58.305-5.561h0.375h0.378c18.301,0,35.586,0,59.054,5.595
		c0.064,0.02,6.586,2.304,18.985,26.738c2.347,4.624,4.476,9.208,6.27,13.256H96.491
		C98.274,160.673,100.387,156.153,102.717,151.577z"/>
</g>
<g id="Ebene_1">
</g>
</svg>
