<?xml version="1.0" encoding="iso-8859-1"?>
<!-- Generator: Adobe Illustrator 24.0.1, SVG Export Plug-In . SVG Version: 6.00 Build 0)  -->
<svg version="1.1" xmlns="http://www.w3.org/2000/svg" xmlns:xlink="http://www.w3.org/1999/xlink" x="0px" y="0px"
	 viewBox="0 0 361 361" style="enable-background:new 0 0 361 361;" xml:space="preserve">
<g id="veh_x5F_car_x5F_01_x5F_charging">
	<g style="display:none;">
		<path style="display:inline;fill:#FFFFFF;" d="M136.543,285.667c0,3.314-2.686,6-6,6h-11.5c-3.313,0-6-2.686-6-6v-22
			c0-3.314,2.687-6,6-6h11.5c3.314,0,6,2.686,6,6V285.667z"/>
		<path style="display:inline;fill:#FFFFFF;" d="M248.957,285.667c0,3.314-2.686,6-6,6h-11.5c-3.313,0-6-2.686-6-6v-22
			c0-3.314,2.687-6,6-6h11.5c3.314,0,6,2.686,6,6V285.667z"/>
		<g style="display:inline;">
			<path style="fill:#FFFFFF;" d="M181.049,201.177c12.438,0,24.186,0,40.137,3.803c0.044,0.014,4.476,1.566,12.904,18.173
				c1.595,3.143,3.042,6.258,4.262,9.009H123.679c1.212-2.716,2.648-5.787,4.232-8.898c8.517-16.725,12.97-18.298,12.999-18.308
				c14.693-3.779,27.369-3.779,39.627-3.779h0.255H181.049 M181.049,194.177c-0.086,0-0.171,0-0.257,0c-0.084,0-0.171,0-0.255,0
				c-12.825,0-25.87,0.013-41.371,4c-11.57,2.976-26,40.985-26,40.985h135.667c0,0-14.379-38.214-26-40.985
				C206.114,194.19,193.964,194.177,181.049,194.177L181.049,194.177z"/>
		</g>
		<path style="display:inline;fill:#FFFFFF;" d="M119.475,233.87c-1.416,0.605-1.04,0.721-10.828-4.261
			c-3.705-1.886-2.873-5.367-2.873-5.367l0,0c0-1.86,1.238-3.383,2.751-3.383h10.863c1.513,0,2.751,1.522,2.751,3.383v6.233
			C122.139,232.334,119.475,233.87,119.475,233.87z"/>
		<path style="display:inline;fill:#FFFFFF;" d="M242.53,233.87c1.416,0.605,1.04,0.721,10.828-4.261
			c3.705-1.886,2.873-5.367,2.873-5.367l0,0c0-1.86-1.238-3.383-2.751-3.383h-10.863c-1.513,0-2.751,1.522-2.751,3.383v6.233
			C239.867,232.334,242.53,233.87,242.53,233.87z"/>
		<path style="display:inline;fill:#FFFFFF;" d="M242.74,234.91H119.26c-3.433,0-6.216,2.376-6.216,5.306v34.709
			c0,2.929,2.784,5.305,6.216,5.305H242.74c3.433,0,6.217-2.376,6.217-5.305v-34.709C248.957,237.286,246.173,234.91,242.74,234.91z
			 M153.988,252.426c0,2.487-2.551,4.523-5.67,4.523h-22.389c-3.118,0-5.67-2.035-5.67-4.523v-6.653
			c0-2.487,2.536-4.799,3.941-5.362c2.812-1.125,2.662-2.64,22.835,4.021C154.671,246.954,153.988,252.426,153.988,252.426z
			 M206.394,271.132c0,2.2-1.8,4-4,4h-42.787c-2.2,0-4-1.8-4-4l-2.4-9.187c0-2.2,1.8-4,4-4h47.587c2.2,0,4,1.8,4,4L206.394,271.132z
			 M241.206,252.426c0,2.487-2.551,4.523-5.67,4.523h-22.389c-3.118,0-5.67-2.035-5.67-4.523c0,0-0.683-5.472,6.952-7.993
			c20.173-6.661,20.023-5.147,22.835-4.021c1.405,0.562,3.942,2.874,3.942,5.362V252.426z"/>
	</g>
	<path style="fill:#FFFFFF;" d="M249.355,211.258c0-2.219-1.476-4.034-3.281-4.034H233.12c-0.685,0-1.321,0.264-1.849,0.71
		c-6.148-12.41-14.407-26.008-21.745-27.758c-19.939-4.755-34.429-4.77-49.829-4.77c-0.102,0-0.204,0-0.306,0
		c-0.101,0-0.204,0-0.304,0c-15.294,0-30.851,0.015-49.337,4.77c-7.296,1.877-15.545,15.435-21.7,27.797
		c-0.535-0.467-1.184-0.748-1.887-0.748H73.209c-1.804,0-3.28,1.815-3.28,4.034c0,0-0.992,4.152,3.426,6.401
		c4.012,2.042,6.592,3.366,8.319,4.195c-1.076,2.532-1.885,4.538-2.38,5.788c-0.243,0.445-0.433,0.915-0.55,1.41l0,0.001h0
		c-0.096,0.406-0.147,0.826-0.147,1.256v27.967v13.426v12.811c0,3.951,3.204,7.155,7.155,7.155h13.714
		c3.951,0,7.155-3.204,7.155-7.155v-6.484h106.034v6.484c0,3.951,3.204,7.155,7.155,7.155h13.714c3.951,0,7.155-3.204,7.155-7.155
		v-12.811v-13.426v-27.967c0-0.43-0.051-0.85-0.147-1.256h0l0-0.001c-0.114-0.484-0.299-0.944-0.535-1.381
		c-0.49-1.249-1.297-3.269-2.375-5.822c1.727-0.829,4.303-2.151,8.306-4.189C250.347,215.41,249.355,211.258,249.355,211.258z
		 M120.663,250.264h-26.7c-3.719,0-6.762-2.427-6.762-5.393v-7.934c0-2.966,3.025-5.723,4.7-6.394
		c3.354-1.342,3.175-3.148,27.232,4.795c9.106,3.007,8.291,9.532,8.291,9.532C127.424,247.837,124.382,250.264,120.663,250.264z
		 M189.921,267.178c0,2.624-2.147,4.77-4.77,4.77h-51.026c-2.624,0-4.77-2.147-4.77-4.77l-2.862-10.956
		c0-2.624,2.147-4.77,4.77-4.77h56.75c2.624,0,4.77,2.147,4.77,4.77L189.921,267.178z M231.436,244.87
		c0,2.966-3.043,5.393-6.762,5.393h-26.7c-3.719,0-6.761-2.427-6.761-5.393c0,0-0.815-6.525,8.291-9.532
		c24.057-7.944,23.878-6.137,27.232-4.795c1.676,0.671,4.701,3.428,4.701,6.394V244.87z M96.327,210.094
		c10.157-19.945,15.468-21.822,15.502-21.833c17.522-4.507,32.639-4.507,47.257-4.507h0.304h0.306c14.833,0,28.843,0,47.865,4.535
		c0.052,0.016,5.338,1.867,15.388,21.672c1.902,3.748,3.628,7.463,5.082,10.744H91.28C92.726,217.466,94.438,213.803,96.327,210.094
		z"/>
	<g id="wallbox_1_">
		<path style="fill:none;stroke:#FFFFFF;stroke-width:3;" d="M258.131,250.85c7.66,18.413,29.45,25.051,29.45-0.586
			c0-19.554,0-36.382,0-36.382"/>
		<polygon style="fill:none;stroke:#FFFFFF;stroke-width:3;stroke-linecap:round;stroke-linejoin:round;" points="254.383,250.85 
			246.699,238.988 241.832,238.218 238.608,225.967 249.69,228.871 260.365,249.275 		"/>
		<path style="fill:none;stroke:#FFFFFF;stroke-width:3;" d="M291.833,215.03c-4.677,0-8.504-3.827-8.504-8.504v-45.545
			c0-4.677,3.827-8.504,8.504-8.504"/>
	</g>
</g>
<g id="Ebene_1">
</g>
</svg>
