<?xml version="1.0" encoding="iso-8859-1"?>
<!-- Generator: Adobe Illustrator 24.0.1, SVG Export Plug-In . SVG Version: 6.00 Build 0)  -->
<svg version="1.1" xmlns="http://www.w3.org/2000/svg" xmlns:xlink="http://www.w3.org/1999/xlink" x="0px" y="0px"
	 viewBox="0 0 361 361" style="enable-background:new 0 0 361 361;" xml:space="preserve">
<g id="veh_x5F_car_x5F_01_x5F_charging_x5F_battery_x5F_100">
	<path style="fill:#FFFFFF;" d="M249.355,211.259c0-2.219-1.476-4.034-3.281-4.034H233.12c-0.685,0-1.321,0.264-1.849,0.709
		c-6.148-12.41-14.407-26.008-21.745-27.758c-19.939-4.754-34.429-4.77-49.829-4.77c-0.102,0-0.204,0-0.306,0
		c-0.101,0-0.204,0-0.304,0c-15.294,0-30.851,0.015-49.337,4.77c-7.296,1.877-15.545,15.435-21.7,27.797
		c-0.535-0.467-1.184-0.748-1.887-0.748H73.209c-1.804,0-3.28,1.815-3.28,4.034c0,0-0.992,4.152,3.426,6.401
		c4.012,2.042,6.592,3.366,8.319,4.195c-1.076,2.532-1.885,4.538-2.38,5.788c-0.243,0.445-0.433,0.915-0.55,1.41l0,0.001h0
		c-0.096,0.406-0.147,0.826-0.147,1.256v27.967v13.426v12.811c0,3.951,3.204,7.155,7.155,7.155h13.714
		c3.952,0,7.155-3.204,7.155-7.155v-6.484h106.034v6.484c0,3.951,3.204,7.155,7.155,7.155h13.714c3.952,0,7.155-3.204,7.155-7.155
		v-12.811v-13.426v-27.967c0-0.43-0.051-0.85-0.147-1.256h0l0-0.001c-0.114-0.484-0.299-0.944-0.534-1.381
		c-0.49-1.249-1.297-3.269-2.375-5.822c1.727-0.829,4.303-2.151,8.306-4.189C250.347,215.41,249.355,211.259,249.355,211.259z
		 M120.663,250.264h-26.7c-3.719,0-6.762-2.427-6.762-5.393v-7.934c0-2.966,3.025-5.724,4.7-6.394
		c3.354-1.342,3.175-3.148,27.232,4.795c9.106,3.007,8.291,9.532,8.291,9.532C127.424,247.837,124.382,250.264,120.663,250.264z
		 M189.921,267.178c0,2.624-2.147,4.77-4.77,4.77h-51.026c-2.624,0-4.77-2.147-4.77-4.77l-2.862-10.956
		c0-2.624,2.147-4.77,4.77-4.77h56.75c2.624,0,4.77,2.147,4.77,4.77L189.921,267.178z M231.436,244.871
		c0,2.966-3.043,5.393-6.762,5.393h-26.7c-3.719,0-6.761-2.427-6.761-5.393c0,0-0.815-6.525,8.291-9.532
		c24.057-7.944,23.878-6.138,27.232-4.795c1.676,0.671,4.701,3.428,4.701,6.394V244.871z M96.327,210.094
		c10.157-19.945,15.468-21.821,15.502-21.833c17.522-4.507,32.639-4.507,47.257-4.507h0.304h0.306c14.833,0,28.843,0,47.865,4.535
		c0.052,0.016,5.338,1.867,15.388,21.672c1.902,3.748,3.628,7.463,5.082,10.744H91.28C92.725,217.466,94.438,213.803,96.327,210.094
		z"/>
	<g id="wallbox_2_">
		<path style="fill:none;stroke:#FFFFFF;stroke-width:3;" d="M258.131,250.85c7.66,18.413,29.45,25.051,29.45-0.586
			c0-19.554,0-36.382,0-36.382"/>
		<polygon style="fill:none;stroke:#FFFFFF;stroke-width:3;stroke-linecap:round;stroke-linejoin:round;" points="254.383,250.85 
			246.699,238.988 241.832,238.218 238.608,225.967 249.69,228.871 260.365,249.275 		"/>
		<path style="fill:none;stroke:#FFFFFF;stroke-width:3;" d="M291.833,215.03c-4.677,0-8.504-3.827-8.504-8.504v-45.545
			c0-4.677,3.827-8.504,8.504-8.504"/>
	</g>
	<g>
		<path style="fill:none;stroke:#FFFFFF;stroke-width:7;" d="M96.214,136.653c-2.373,0-4.297-1.567-4.297-3.501V77.434
			c0-1.933,1.924-3.501,4.297-3.501h128.918c2.373,0,4.297,1.567,4.297,3.501v55.718c0,1.933-1.924,3.501-4.297,3.501H96.214z"/>
		<path style="fill:none;stroke:#FFFFFF;stroke-width:7;" d="M229.071,94.353h10.027c2.373,0,4.297,1.567,4.297,3.501v14.878
			c0,1.933-1.924,3.501-4.297,3.501h-10.027"/>
	</g>
	<g>
		<path style="fill:#FFFFFF;stroke:#FFFFFF;stroke-width:3;" d="M106.122,127.901c-2.373,0-4.297-1.567-4.297-3.501V86.185
			c0-1.933,1.924-3.501,4.297-3.501h4.297c2.373,0,4.297,1.567,4.297,3.501L129.04,124.4c0,1.933-1.924,3.501-4.297,3.501H106.122z"
			/>
		<path style="fill:#FFFFFF;stroke:#FFFFFF;stroke-width:3;" d="M177.504,127.901c-2.373,0-4.297-1.567-4.297-3.501l-14.324-38.215
			c0-1.933,1.924-3.501,4.297-3.501h14.324c2.373,0,4.297,1.567,4.297,3.501l14.324,38.215c0,1.933-1.924,3.501-4.297,3.501H177.504
			z"/>
		<path style="fill:#FFFFFF;stroke:#FFFFFF;stroke-width:3;" d="M210.927,127.901c-2.373,0-4.297-1.567-4.297-3.501l-14.324-38.215
			c0-1.933,1.924-3.501,4.297-3.501h18.621c2.373,0,4.297,1.567,4.297,3.501V124.4c0,1.933-1.924,3.501-4.297,3.501H210.927z"/>
		<path style="fill:#FFFFFF;stroke:#FFFFFF;stroke-width:3;" d="M143.842,127.901c-2.373,0-4.297-1.567-4.297-3.501L125.22,86.185
			c0-1.933,1.924-3.501,4.297-3.501h14.324c2.373,0,4.297,1.567,4.297,3.501l14.324,38.215c0,1.933-1.924,3.501-4.297,3.501H143.842
			z"/>
	</g>
</g>
<g id="Ebene_1">
</g>
</svg>
