<?xml version="1.0" encoding="iso-8859-1"?>
<!-- Generator: Adobe Illustrator 16.0.0, SVG Export Plug-In . SVG Version: 6.00 Build 0)  -->
<!DOCTYPE svg PUBLIC "-//W3C//DTD SVG 1.1 Tiny//EN" "http://www.w3.org/Graphics/SVG/1.1/DTD/svg11-tiny.dtd">
<svg version="1.1" baseProfile="tiny" id="vent_x5F_bypass"
	 xmlns="http://www.w3.org/2000/svg" xmlns:xlink="http://www.w3.org/1999/xlink" x="0px" y="0px" width="361px" height="361px"
	 viewBox="0 0 361 361" xml:space="preserve">
<g id="sani_x5F_lueftung_x5F_nv_Kopie_Kopie_2_Kopie_2" display="none">
	<path display="inline" fill="none" stroke="#FFFFFF" stroke-width="10" stroke-miterlimit="10" d="M192.393,207.395
		c-2.693-0.721-4.29-3.487-3.568-6.179l4.352-16.245c0.722-2.69,3.489-4.289,6.178-3.567l81.228,21.763
		c2.691,0.722,4.29,3.489,3.567,6.182l-9.794,36.55c-0.722,2.691-3.488,4.289-6.18,3.569L192.393,207.395z"/>
	<path display="inline" fill="none" stroke="#FFFFFF" stroke-width="10" stroke-miterlimit="10" d="M180.086,167.67
		c0.722,2.691-0.876,5.458-3.568,6.18l-16.246,4.353c-2.689,0.72-5.457-0.877-6.178-3.568L132.33,93.408
		c-0.722-2.691,0.876-5.457,3.567-6.179l36.553-9.794c2.69-0.723,5.458,0.876,6.178,3.567L180.086,167.67z"/>
	<path display="inline" fill="none" stroke="#FFFFFF" stroke-width="10" stroke-miterlimit="10" d="M151.757,198.246
		c1.97-1.969,5.164-1.971,7.135,0l11.892,11.893c1.969,1.971,1.97,5.165,0,7.136l-59.461,59.461c-1.971,1.97-5.164,1.969-7.135,0
		L77.43,249.978c-1.971-1.971-1.971-5.166-0.001-7.135L151.757,198.246z"/>
</g>
<g id="Zuluft_4_">
	<g>
		<path fill="#FFFFFF" d="M203.41,226.378c0.631,4.876,6.16,3.168,9.981,3.168c3.547,0,3.086-3.354,3.086-6.058
			c0-9.881,0-19.761,0-29.642c0-4.91-6.76-3.167-9.981-3.167c-3.547,0-3.087,3.354-3.087,6.057
			C203.41,206.617,203.41,216.498,203.41,226.378c0,1.935,3,1.935,3,0c0-7.529,0-15.058,0-22.587c0-3.262,0-6.524,0-9.786
			c0-0.508-1.517-0.326-0.479-0.326c1.018,0,2.035,0,3.053,0c1.228,0,2.456,0,3.684,0c0.43,0,0.86,0,1.29,0
			c0.654-0.024,0.494,0.032-0.479,0.167c0.94,7.268,0,15.264,0,22.587c0,3.262,0,6.524,0,9.786c0,0.508,1.518,0.327,0.479,0.327
			c-1.018,0-2.035,0-3.053,0c-1.228,0-2.456,0-3.684,0c-0.43,0-0.86,0-1.29,0c-0.654,0.024-0.495-0.032,0.479-0.168
			C206.166,224.488,203.163,224.464,203.41,226.378z"/>
	</g>
	<g>
		<path fill="#FFFFFF" d="M203.93,183.785c-11.012,8.417-22.023,16.833-33.035,25.249c-0.954,0.729-0.954,1.862,0,2.591
			c11.012,8.416,22.023,16.833,33.035,25.249c0.938,0.717,2.257-0.265,2.257-1.295c0-16.833,0-33.666,0-50.498c0-1.935-3-1.935-3,0
			c0,16.833,0,33.666,0,50.498c0.752-0.432,1.505-0.863,2.257-1.295c-11.012-8.416-22.024-16.833-33.036-25.249
			c0,0.864,0,1.727,0,2.591c11.012-8.417,22.024-16.833,33.036-25.249C206.959,185.217,205.468,182.609,203.93,183.785z"/>
	</g>
</g>
<g id="Abluft_4_" display="none">
	<g display="inline">
		<path fill="#FFFFFF" d="M87.613,271.813c0.141-0.066,0.282-0.133,0.422-0.199c1.179-0.488,2.357-0.976,3.536-1.464
			c-6.018,0-12.036,0-18.053,0c1.179,0.488,2.357,0.976,3.536,1.464c0.767,0.666,0.424-1.664,0.424-2.076c0-2.506,0-5.013,0-7.52
			c0-7.579,0-15.158,0-22.736s0-15.157,0-22.736c0-2.369,0-4.738,0-7.107c0-0.436,0.344-3.154-0.424-2.487
			c-1.179,0.488-2.357,0.976-3.536,1.464c6.018,0,12.036,0,18.053,0c-1.179-0.488-2.357-0.976-3.536-1.464
			c-0.766-0.664-0.422,1.66-0.422,2.075c0,2.265,0,4.529,0,6.794c0,7.489,0,14.978,0,22.467
			C87.613,249.461,87.613,260.637,87.613,271.813c0,6.449,10,6.449,10,0c0-11.176,0-22.352,0-33.527c0-7.489,0-14.978,0-22.467
			c0-3.589,0.781-8.554-0.321-12.082c-2.383-7.626-12.185-5.323-18.511-5.323c-2.303,0-5.692-0.544-7.787,0.683
			c-2.972,1.741-3.517,5.187-3.517,8.354c0,12.918,0,25.835,0,38.753c0,6.195,0,12.39,0,18.584c0,2.992-0.593,7.108,0.321,10.037
			c2.209,7.083,9.781,5.323,15.712,5.323c2.599,0,5.199,0,7.798,0c4.756,0,5.979-4.473,6.305-8.336
			C98.156,265.383,88.152,265.436,87.613,271.813z"/>
	</g>
	<g display="inline">
		<path fill="#FFFFFF" d="M90.535,193.533c22.023,16.833,44.047,33.666,66.071,50.499c0-2.878,0-5.756,0-8.635
			c-22.024,16.833-44.048,33.665-66.071,50.498c2.508,1.439,5.016,2.878,7.523,4.317c0-33.666,0-67.331,0-100.996
			c0-6.449-10-6.449-10,0c0,33.666,0,67.331,0,100.996c0,3.435,4.397,6.707,7.523,4.317c22.024-16.833,44.048-33.665,66.071-50.498
			c3.178-2.429,3.178-6.206,0-8.635c-22.023-16.833-44.047-33.666-66.071-50.499C90.456,180.981,85.485,189.673,90.535,193.533z"/>
	</g>
</g>
<g>
	<path fill="#FFFFFF" d="M249.315,289.212c0-36.111,0-72.222,0-108.333c0-6.449-10-6.449-10,0c0,36.111,0,72.222,0,108.333
		C239.315,295.661,249.315,295.661,249.315,289.212L249.315,289.212z"/>
</g>
<g>
	<path fill="#FFFFFF" d="M249.315,122.879c0-6.956,0-13.911,0-20.866c0-6.449-10-6.449-10,0c0,6.956,0,13.911,0,20.866
		C239.315,129.328,249.315,129.328,249.315,122.879L249.315,122.879z"/>
</g>
<g>
	<path fill="#FFFFFF" d="M286.241,116.51c-28.203-14.46-56.406-28.92-84.609-43.38c-5.727-2.936-10.787,5.692-5.047,8.635
		c28.203,14.46,56.406,28.92,84.609,43.38C286.92,128.081,291.981,119.453,286.241,116.51L286.241,116.51z"/>
</g>
<g>
	<path fill="#FFFFFF" d="M134.315,153.862c6.2-1.85,12.492-3.471,18.851-4.672c8.5-1.605,15.959,0.971,23.905,3.886
		c10.955,4.018,22.235,10.623,34.065,11.009c7.296,0.238,15.346-3.587,21.991-6.186c4.038-1.579,8.01-3.305,12.074-4.823
		c7.977-2.98,15.379-5.382,23.906-3.886c6.362,1.116,12.664,2.827,18.851,4.672c1.859,0.555,2.647-2.341,0.798-2.893
		c-6.201-1.85-12.492-3.471-18.851-4.673c-7.981-1.507-14.637,0.111-22.247,2.718c-11.71,4.011-24.009,11.662-36.521,12.07
		c-7.452,0.243-15.945-3.971-22.727-6.689c-4.585-1.838-9.129-3.741-13.794-5.38c-7.143-2.51-13.599-4.118-21.125-2.915
		c-6.746,1.079-13.432,2.918-19.974,4.87C131.668,151.521,132.456,154.417,134.315,153.862L134.315,153.862z"/>
</g>
<g>
	<path fill="#FFFFFF" d="M141.907,162.466c6.024-2.177,12.932-4.321,19.379-3.757c6.912,0.605,13.977,3.766,20.365,6.296
		c9.375,3.713,19.262,8.915,29.485,9.248c6.396,0.208,13.369-2.933,19.231-5.123c3.208-1.198,6.351-2.547,9.523-3.832
		c6.354-2.575,12.89-5.027,19.629-6.363c6.765-1.341,14.502,1.237,20.846,3.53c1.824,0.659,2.603-2.24,0.798-2.893
		c-5.921-2.14-12.231-3.792-18.547-3.964c-6.732-0.185-14.043,3.152-20.203,5.492c-9.988,3.794-20.465,9.8-31.278,10.152
		c-6.681,0.218-14.219-3.384-20.329-5.741c-3.364-1.297-6.668-2.743-10.026-4.056c-6.489-2.538-13.351-5.21-20.344-5.822
		c-6.329-0.554-13.449,1.813-19.33,3.939C139.304,160.226,140.083,163.125,141.907,162.466L141.907,162.466z"/>
</g>
<g>
	<path fill="#FFFFFF" d="M142.024,142.194c6.024-2.177,12.932-4.322,19.379-3.758c6.912,0.605,13.978,3.767,20.365,6.297
		c9.375,3.713,19.262,8.915,29.486,9.248c6.396,0.208,13.369-2.933,19.23-5.122c3.208-1.198,6.352-2.547,9.523-3.832
		c6.354-2.575,12.891-5.027,19.63-6.363c6.764-1.341,14.501,1.238,20.845,3.531c1.824,0.659,2.603-2.24,0.798-2.893
		c-5.921-2.141-12.231-3.792-18.546-3.965c-6.733-0.185-14.043,3.152-20.204,5.492c-9.988,3.793-20.464,9.799-31.277,10.152
		c-6.682,0.218-14.219-3.384-20.329-5.74c-3.364-1.297-6.668-2.743-10.026-4.056c-6.488-2.537-13.35-5.21-20.343-5.822
		c-6.329-0.554-13.449,1.814-19.33,3.939C139.421,139.954,140.2,142.854,142.024,142.194L142.024,142.194z"/>
</g>
<g>
	<path fill="#FFFFFF" d="M75,110.8c18.877-9.678,37.754-19.357,56.631-29.035c5.74-2.943,0.68-11.571-5.047-8.635
		c-18.877,9.678-37.754,19.357-56.631,29.035C64.213,105.108,69.274,113.736,75,110.8L75,110.8z"/>
</g>
<g id="Zuluft_5_">
	<g>
		<path fill="#FFFFFF" d="M80.592,251.319c-0.631-4.876-6.16-3.168-9.981-3.168c-3.547,0-3.086,3.354-3.086,6.058
			c0,9.881,0,19.761,0,29.642c0,4.91,6.76,3.167,9.981,3.167c3.547,0,3.087-3.354,3.087-6.057
			C80.592,271.08,80.592,261.2,80.592,251.319c0-1.935-3-1.935-3,0c0,7.529,0,15.058,0,22.587c0,3.262,0,6.524,0,9.786
			c0,0.508,1.517,0.326,0.479,0.326c-1.018,0-2.035,0-3.053,0c-1.228,0-2.456,0-3.684,0c-0.43,0-0.86,0-1.29,0
			c-0.654,0.024-0.494-0.032,0.479-0.167c-0.94-7.268,0-15.264,0-22.587c0-3.262,0-6.524,0-9.786c0-0.508-1.518-0.327-0.479-0.327
			c1.018,0,2.035,0,3.053,0c1.228,0,2.456,0,3.684,0c0.43,0,0.86,0,1.29,0c0.654-0.024,0.495,0.032-0.479,0.168
			C77.837,253.209,80.84,253.233,80.592,251.319z"/>
	</g>
	<g>
		<path fill="#FFFFFF" d="M80.072,293.913c11.012-8.417,22.024-16.833,33.036-25.249c0.953-0.729,0.953-1.862,0-2.591
			c-11.012-8.416-22.024-16.833-33.036-25.249c-0.938-0.717-2.257,0.265-2.257,1.295c0,16.833,0,33.666,0,50.498
			c0,1.935,3,1.935,3,0c0-16.833,0-33.666,0-50.498c-0.752,0.432-1.505,0.863-2.257,1.295c11.012,8.416,22.023,16.833,33.035,25.249
			c0-0.864,0-1.727,0-2.591c-11.012,8.417-22.023,16.833-33.035,25.249C77.043,292.48,78.534,295.088,80.072,293.913z"/>
	</g>
</g>
<g>
	<path fill="#FFFFFF" d="M195.047,278.914c-11.263-11.263-22.526-22.526-33.789-33.79c0.341,0.825,0.683,1.65,1.025,2.475
		c0.646-7.669,1.622-17.876-3.75-23.979c-5.06-5.748-17.115-4.329-23.979-3.75c0.825,0.342,1.65,0.684,2.475,1.025
		c-7.204-7.204-14.408-14.408-21.612-21.611c-5.869-5.869-16.502-21.363-25.67-12.196c-9.134,9.135,6.176,19.65,12.033,25.507
		c7.362,7.362,14.724,14.725,22.086,22.087c-0.341-0.825-0.683-1.65-1.025-2.475c-0.382,7.607-1.508,17.197,3.836,23.269
		c5.027,5.712,16.469,4.173,23.269,3.836c-0.825-0.342-1.65-0.684-2.475-1.025c8.693,8.692,17.387,17.385,26.08,26.078
		c2.743,2.743,6.084,7.633,9.724,9.357C192.926,298.295,201.674,287.265,195.047,278.914c-2.806-3.535-7.725,1.454-4.95,4.95
		c2.747,3.461-2.804,4.343-4.712,2.435c-1.901-1.901-3.802-3.802-5.704-5.704c-5.572-5.571-11.144-11.143-16.715-16.714
		c-3.49-3.49-6.979-6.979-10.469-10.469c-1.538-1.538-4.157-1.063-6.158-1.063c-3.404,0-6.808,0-10.212,0
		c-8.74,0-6.323-13.427-6.323-19.007c0-4.03-3.973-6.597-6.642-9.266c-9.465-9.465-18.929-18.929-28.394-28.394
		c-1.982-1.982,0.72-6.43,3.292-3.857c1.346,1.346,2.693,2.692,4.039,4.039c5.344,5.344,10.688,10.688,16.032,16.032
		c4.355,4.355,8.71,8.71,13.066,13.066c3.296,3.296,10.766,1.783,15.142,1.783c4.358,0,8.707,0.847,9.069,6.229
		c0.209,3.117,0,6.318,0,9.442c0,2.234-0.748,6.009,0.92,7.677c1.105,1.105,2.211,2.211,3.316,3.316
		c9.765,9.765,19.529,19.53,29.294,29.295c0.386,0.386,0.772,0.772,1.159,1.159C193.292,287.059,198.241,282.109,195.047,278.914z"
		/>
</g>
</svg>
