<?xml version="1.0" encoding="iso-8859-1"?>
<!-- Generator: Adobe Illustrator 16.0.3, SVG Export Plug-In . SVG Version: 6.00 Build 0)  -->
<!DOCTYPE svg PUBLIC "-//W3C//DTD SVG 1.1//EN" "http://www.w3.org/Graphics/SVG/1.1/DTD/svg11.dtd">
<svg version="1.1" xmlns="http://www.w3.org/2000/svg" xmlns:xlink="http://www.w3.org/1999/xlink" x="0px" y="0px" width="361px"
	 height="361px" viewBox="0 0 361 361" style="enable-background:new 0 0 361 361;" xml:space="preserve">
<g id="vent_x5F_low_x5F_pressure_x5F_protection_x5F_unit">
	<g id="Abluft_20_" style="display:none;">
		<g style="display:inline;">
			<g>
				<path style="fill:#FFFFFF;" d="M90.131,268.935c0.141-0.066,0.282-0.133,0.422-0.198c1.179-0.488,2.357-0.977,3.536-1.465
					c-6.018,0-12.036,0-18.053,0c1.179,0.488,2.357,0.977,3.536,1.465c0.767,0.665,0.424-1.665,0.424-2.077c0-2.507,0-5.013,0-7.52
					c0-7.579,0-15.157,0-22.736s0-15.157,0-22.736c0-2.369,0-4.738,0-7.107c0-0.437,0.345-3.153-0.424-2.487
					c-1.179,0.488-2.357,0.977-3.536,1.465c6.018,0,12.036,0,18.053,0c-1.179-0.488-2.357-0.977-3.536-1.465
					c-0.767-0.663-0.422,1.659-0.422,2.075c0,2.265,0,4.529,0,6.794c0,7.488,0,14.978,0,22.466
					C90.131,246.583,90.131,257.759,90.131,268.935c0,6.448,10,6.448,10,0c0-11.176,0-22.352,0-33.527c0-7.488,0-14.978,0-22.466
					c0-3.59,0.782-8.555-0.321-12.082c-2.383-7.625-12.185-5.322-18.511-5.322c-2.303,0-5.692-0.544-7.787,0.683
					c-2.972,1.741-3.517,5.187-3.517,8.354c0,12.917,0,25.835,0,38.753c0,6.194,0,12.39,0,18.584c0,2.992-0.592,7.108,0.321,10.037
					c2.209,7.083,9.781,5.323,15.712,5.323c2.599,0,5.199,0,7.798,0c4.756,0,5.979-4.474,6.305-8.337
					C100.674,262.506,90.67,262.558,90.131,268.935z"/>
			</g>
		</g>
		<g style="display:inline;">
			<g>
				<path style="fill:#FFFFFF;" d="M93.053,190.655c22.023,16.833,44.047,33.665,66.071,50.498c0-2.878,0-5.757,0-8.635
					c-22.024,16.833-44.048,33.665-66.071,50.498c2.508,1.439,5.016,2.878,7.523,4.317c0-33.665,0-67.331,0-100.996
					c0-6.449-10-6.449-10,0c0,33.665,0,67.331,0,100.996c0,3.436,4.397,6.707,7.523,4.317
					c22.024-16.833,44.048-33.665,66.071-50.498c3.178-2.429,3.178-6.206,0-8.635c-22.023-16.833-44.047-33.665-66.071-50.498
					C92.974,178.103,88.003,186.796,93.053,190.655z"/>
			</g>
		</g>
	</g>
	<g>
		
			<rect x="157.712" y="136.266" transform="matrix(0.7071 -0.7071 0.7071 0.7071 -40.3289 197.1197)" style="fill:#FFFFFF;" width="120.136" height="21.951"/>
		<path style="fill:none;stroke:#FFFFFF;stroke-width:10;stroke-miterlimit:10;" d="M269.214,142.306
			c0,40.706-25.761,83.874-53.353,83.874c-27.594,0-53.354-43.168-53.354-83.874c0-14.843-0.418-28.659,4.699-40.225
			c0,0,31.122-10.416,48.655-10.416c17.508,0,48.615,10.33,48.615,10.33C269.617,113.579,269.214,127.427,269.214,142.306z"/>
	</g>
	<g>
		<path style="fill:#FFFFFF;" d="M145.702,257.161c3.076,0,5.438,0.542,7.085,1.622c1.647,1.082,2.471,2.854,2.471,5.314
			c0,2.48-0.834,4.271-2.5,5.373c-1.667,1.102-4.049,1.652-7.145,1.652h-1.458v6.906h-4.645v-20.332
			c1.012-0.198,2.084-0.338,3.215-0.418C143.856,257.201,144.849,257.161,145.702,257.161z M146,261.12
			c-0.338,0-0.67,0.011-0.997,0.03c-0.328,0.02-0.61,0.04-0.848,0.06v5.953h1.458c1.607,0,2.817-0.218,3.632-0.655
			c0.813-0.436,1.22-1.249,1.22-2.441c0-0.574-0.104-1.051-0.313-1.428s-0.506-0.68-0.893-0.908
			c-0.387-0.228-0.858-0.387-1.414-0.477C147.29,261.164,146.674,261.12,146,261.12z"/>
		<path style="fill:#FFFFFF;" d="M163.415,261.954c1.31,0,2.401,0.149,3.275,0.446c0.873,0.297,1.572,0.725,2.098,1.28
			s0.898,1.23,1.117,2.024c0.218,0.793,0.328,1.678,0.328,2.65v9.228c-0.636,0.14-1.518,0.303-2.649,0.491
			c-1.131,0.188-2.501,0.283-4.108,0.283c-1.013,0-1.93-0.09-2.754-0.269s-1.533-0.472-2.128-0.878
			c-0.596-0.406-1.052-0.938-1.37-1.592c-0.317-0.656-0.476-1.459-0.476-2.412c0-0.912,0.183-1.687,0.55-2.322
			c0.367-0.635,0.859-1.141,1.474-1.519c0.615-0.376,1.32-0.649,2.113-0.818c0.794-0.168,1.617-0.253,2.471-0.253
			c0.575,0,1.086,0.025,1.533,0.074c0.447,0.051,0.808,0.115,1.086,0.193v-0.416c0-0.754-0.228-1.359-0.685-1.816
			s-1.25-0.685-2.381-0.685c-0.754,0-1.499,0.055-2.233,0.164c-0.734,0.108-1.369,0.263-1.905,0.461l-0.566-3.573
			c0.257-0.078,0.58-0.162,0.968-0.252c0.387-0.09,0.809-0.169,1.265-0.238c0.457-0.068,0.938-0.129,1.444-0.179
			C162.388,261.979,162.899,261.954,163.415,261.954z M163.772,274.934c0.436,0,0.853-0.01,1.25-0.029
			c0.396-0.02,0.714-0.05,0.952-0.09v-3.364c-0.178-0.04-0.447-0.079-0.803-0.118c-0.357-0.04-0.685-0.061-0.983-0.061
			c-0.417,0-0.809,0.025-1.176,0.074c-0.368,0.051-0.689,0.145-0.968,0.283c-0.278,0.14-0.496,0.327-0.655,0.566
			c-0.159,0.238-0.238,0.535-0.238,0.893c0,0.694,0.233,1.176,0.7,1.443C162.319,274.799,162.958,274.934,163.772,274.934z"/>
		<g>
			<g>
				<path style="fill:#FFFFFF;" d="M130.725,205.723c-16.53,16.53-33.06,33.06-49.589,49.59c-1.369,1.369,0.752,3.49,2.121,2.121
					c16.53-16.53,33.06-33.06,49.589-49.59C134.215,206.475,132.094,204.354,130.725,205.723L130.725,205.723z"/>
			</g>
		</g>
		<g>
			<g>
				<path style="fill:#FFFFFF;" d="M130.481,203.139c-5.305,5.454-15.069,16.971-8.558,24.748c2.901,3.466,7.827-1.514,4.95-4.949
					c-0.783-0.936,0.931-4.354,1.397-5.315c1.746-3.6,4.393-6.688,7.161-9.534C138.579,204.852,133.633,199.898,130.481,203.139
					L130.481,203.139z"/>
			</g>
		</g>
		<g>
			<g>
				<path style="fill:#FFFFFF;" d="M130.481,203.139c-2.625,2.553-5.388,4.787-8.553,6.635c-1.066,0.622-5.174,2.861-6.295,1.923
					c-3.436-2.877-8.415,2.048-4.95,4.949c7.777,6.512,19.294-3.254,24.749-8.558C138.671,204.937,133.717,199.991,130.481,203.139
					L130.481,203.139z"/>
			</g>
		</g>
		<path style="fill:#FFFFFF;stroke:#FFFFFF;stroke-miterlimit:10;" d="M99.527,243.607c-1.1,1.101-2.883,1.101-3.982,0l-0.584-0.583
			c-1.1-1.1-1.1-2.883,0-3.983l0.759-0.758c1.101-1.102,2.883-1.102,3.983,0l0.583,0.583c1.1,1.1,1.1,2.882,0,3.983L99.527,243.607z
			"/>
		<g>
			<g>
				<g>
					<path style="fill:#FFFFFF;" d="M136.422,182.627c-2.442,3.486-4.885,6.975-7.327,10.461c-0.483,0.695,0.692,1.541,1.196,0.859
						c2.52-3.431,5.039-6.862,7.558-10.293C138.36,182.965,136.912,181.924,136.422,182.627L136.422,182.627z"/>
					<g>
						<path style="fill:#FFFFFF;" d="M135.774,182.248c-2.442,3.487-4.884,6.975-7.327,10.461c-0.992,1.416,1.221,2.922,2.374,1.769
							c1.394-1.394,2.477-3.364,3.645-4.955c1.344-1.83,2.688-3.66,4.031-5.489c1.041-1.417-1.254-2.886-2.453-2.054
							c-0.789,0.547-0.04,1.848,0.757,1.295c-0.034,0.229-0.068,0.458-0.103,0.688c-0.336,0.457-0.672,0.915-1.008,1.372
							c-0.672,0.915-1.344,1.83-2.015,2.745c-1.176,1.602-2.352,3.202-3.527,4.804c2.377-3.238,4.617-6.587,6.922-9.877
							C137.626,182.211,136.325,181.463,135.774,182.248z"/>
					</g>
				</g>
			</g>
			<g>
				<g>
					<path style="fill:#FFFFFF;" d="M146.295,190.832c-1.95,1.994-3.9,3.988-5.85,5.981c-0.59,0.607,0.501,1.698,1.109,1.108
						c1.994-1.95,3.987-3.899,5.981-5.85C148.151,191.475,146.892,190.217,146.295,190.832L146.295,190.832z"/>
					<g>
						<path style="fill:#FFFFFF;" d="M145.765,190.302c-1.17,1.196-2.34,2.393-3.51,3.589c-0.759,0.776-2.373,1.861-2.67,2.94
							c-0.373,1.355,1.416,2.682,2.5,1.621c1.196-1.17,2.393-2.34,3.589-3.51c0.531-0.52,1.063-1.04,1.595-1.56
							c0.323-0.316,1.043-0.795,1.122-1.308c0.201-1.314-1.186-2.748-2.473-1.891c-0.801,0.533-0.051,1.833,0.757,1.295
							c0.505-0.337-0.59,0.964-0.466,0.843c-0.532,0.52-1.063,1.04-1.595,1.56c-1.063,1.04-2.126,2.08-3.19,3.12
							c1.741-1.702,3.607-3.803,5.403-5.64C147.501,190.671,146.442,189.609,145.765,190.302z"/>
					</g>
				</g>
			</g>
			<g>
				<g>
					<path style="fill:#FFFFFF;" d="M141.528,186.532c-1.781,2.146-3.562,4.292-5.343,6.438c-0.538,0.654,0.638,1.652,1.195,1.016
						c1.828-2.105,3.657-4.211,5.484-6.316C143.43,187.023,142.073,185.87,141.528,186.532L141.528,186.532z"/>
					<g>
						<path style="fill:#FFFFFF;" d="M140.998,186.002c-0.95,1.145-1.9,2.289-2.85,3.434c-0.882,1.063-2.129,2.172-2.736,3.414
							c-0.662,1.354,1.487,2.832,2.499,1.667c0.975-1.123,1.95-2.246,2.925-3.369c0.902-1.038,2.159-2.11,2.797-3.33
							c0.71-1.355-1.363-2.776-2.484-1.933c-0.763,0.574-0.017,1.878,0.757,1.295c0.021,0.127,0.042,0.254,0.063,0.381
							c-0.244,0.281-0.487,0.562-0.731,0.843c-0.487,0.562-0.975,1.122-1.462,1.684c-0.854,0.982-1.707,1.966-2.56,2.948
							c0.332-0.383,1.378-1.799,1.993-2.539c0.95-1.145,1.9-2.289,2.85-3.434C142.671,186.324,141.616,185.257,140.998,186.002z"/>
					</g>
				</g>
			</g>
			<g>
				<g>
					<path style="fill:#FFFFFF;" d="M154.713,200.518c-3.431,2.52-6.862,5.039-10.293,7.559c-0.681,0.504,0.164,1.679,0.86,1.196
						c3.487-2.442,6.974-4.885,10.46-7.327C156.443,201.456,155.402,200.008,154.713,200.518L154.713,200.518z"/>
					<g>
						<path style="fill:#FFFFFF;" d="M154.334,199.87c-1.83,1.344-3.66,2.688-5.49,4.031c-1.591,1.168-3.562,2.251-4.956,3.645
							c-1.153,1.152,0.354,3.365,1.769,2.374c1.86-1.303,3.719-2.605,5.579-3.907c1.599-1.12,3.655-2.159,5.033-3.537
							c1.22-1.22-0.271-3.11-1.756-2.682c-0.928,0.269-0.533,1.716,0.398,1.447c-0.083,0.182-0.166,0.363-0.248,0.545
							c-0.465,0.326-0.93,0.651-1.395,0.977c-0.93,0.651-1.859,1.303-2.79,1.954c-1.627,1.14-3.254,2.28-4.881,3.42
							c2.75-1.927,6.407-4.705,9.493-6.972C155.862,200.599,155.115,199.297,154.334,199.87z"/>
					</g>
				</g>
			</g>
			<g>
				<g>
					<path style="fill:#FFFFFF;" d="M158.316,205.855c-2.376,1.461-4.752,2.923-7.127,4.385c-0.72,0.445,0.08,1.774,0.813,1.351
						c2.408-1.409,4.815-2.817,7.223-4.226C159.967,206.936,159.045,205.402,158.316,205.855L158.316,205.855z"/>
					<g>
						<path style="fill:#FFFFFF;" d="M157.938,205.208c-1.358,0.835-2.715,1.67-4.073,2.505c-1,0.615-2.913,1.309-3.524,2.353
							c-0.708,1.207,0.765,2.92,2.041,2.173c1.376-0.805,2.751-1.61,4.127-2.415c0.989-0.578,2.955-1.239,3.553-2.26
							c0.718-1.226-0.632-2.864-1.944-2.432c-0.914,0.302-0.522,1.751,0.398,1.447c-0.062,0.146-0.123,0.293-0.185,0.44
							c-0.344,0.201-0.688,0.402-1.032,0.604c-0.516,0.302-1.032,0.604-1.548,0.905c-1.204,0.704-2.407,1.408-3.611,2.113
							c2.031-1.188,4.393-2.809,6.555-4.139C159.517,205.997,158.764,204.699,157.938,205.208z"/>
					</g>
				</g>
			</g>
			<g>
				<g>
					<path style="fill:#FFFFFF;" d="M168.108,229.926c-2.722,0.609-5.444,1.218-8.167,1.827c-0.826,0.188-0.496,1.751,0.334,1.589
						c2.735-0.545,5.472-1.092,8.207-1.638C169.326,231.539,168.945,229.734,168.108,229.926L168.108,229.926z"/>
					<g>
						<path style="fill:#FFFFFF;" d="M167.909,229.202c-1.675,0.375-3.351,0.75-5.026,1.125c-1.019,0.228-2.955,0.249-3.729,1.024
							c-1.003,1.003-0.151,3.007,1.321,2.714c1.684-0.336,3.367-0.672,5.051-1.008c0.998-0.199,2.967-0.177,3.724-0.934
							c1.014-1.015,0.268-2.921-1.141-2.948c-0.968-0.02-0.966,1.481,0,1.5c-0.152,0.144-0.304,0.287-0.457,0.431
							c-0.421,0.084-0.842,0.169-1.263,0.253c-0.631,0.126-1.263,0.252-1.894,0.378c-1.263,0.252-2.525,0.504-3.788,0.756
							c2.394-0.478,5.095-1.283,7.601-1.844C169.251,230.438,168.851,228.991,167.909,229.202z"/>
					</g>
				</g>
			</g>
			<g>
				<g>
					<path style="fill:#FFFFFF;" d="M166.402,223.549c-4.063,1.273-8.126,2.549-12.19,3.822c-0.807,0.256-0.38,1.674,0.435,1.442
						c4.091-1.181,8.182-2.362,12.273-3.544C167.746,225.035,167.22,223.288,166.402,223.549L166.402,223.549z"/>
					<g>
						<path style="fill:#FFFFFF;" d="M166.203,222.825c-2.188,0.687-4.376,1.372-6.564,2.059c-1.699,0.533-4.563,0.857-5.957,1.957
							c-1.147,0.905-0.475,3.169,1.164,2.696c2.203-0.636,4.406-1.272,6.609-1.908c1.837-0.53,4.61-0.796,6.149-1.938
							c1.274-0.947,0.063-2.823-1.202-2.892c-0.967-0.053-0.962,1.447,0,1.5c-0.208,0.174-0.417,0.347-0.626,0.521
							c-0.629,0.182-1.259,0.363-1.888,0.545c-0.944,0.272-1.888,0.546-2.832,0.818c-1.888,0.545-3.776,1.09-5.665,1.635
							c3.606-1.041,7.5-2.382,11.21-3.545C167.521,223.983,167.128,222.535,166.203,222.825z"/>
					</g>
				</g>
			</g>
			<g>
				<g>
					<path style="fill:#FFFFFF;" d="M150.698,195.502c-2.106,1.828-4.211,3.656-6.317,5.485c-0.637,0.558,0.362,1.733,1.016,1.195
						c2.146-1.781,4.292-3.562,6.438-5.344C152.497,196.295,151.343,194.938,150.698,195.502L150.698,195.502z"/>
					<g>
						<path style="fill:#FFFFFF;" d="M150.167,194.972c-1.123,0.975-2.246,1.95-3.369,2.925c-1.057,0.918-2.419,1.803-3.231,2.946
							c-0.918,1.292,1.239,2.8,2.36,1.87c1.145-0.95,2.289-1.899,3.434-2.85c1.073-0.89,2.438-1.74,3.278-2.854
							c0.975-1.293-1.18-2.752-2.319-2.155c-0.857,0.448-0.099,1.743,0.757,1.295c-0.067,0.172-0.134,0.344-0.201,0.516
							c-0.286,0.237-0.572,0.475-0.858,0.713c-0.572,0.475-1.145,0.95-1.717,1.425c-1.001,0.831-2.003,1.662-3.004,2.493
							c1.985-1.647,3.949-3.542,5.933-5.264C151.96,195.397,150.894,194.341,150.167,194.972z"/>
					</g>
				</g>
			</g>
			<g>
				<g>
					<path style="fill:#FFFFFF;" d="M161.48,211.488c-2.487,1.262-4.974,2.524-7.462,3.787c-0.754,0.385-0.063,1.781,0.702,1.419
						c2.516-1.206,5.031-2.411,7.547-3.617C163.042,212.708,162.244,211.098,161.48,211.488L161.48,211.488z"/>
					<g>
						<path style="fill:#FFFFFF;" d="M161.102,210.841c-1.531,0.776-3.062,1.554-4.592,2.33c-0.925,0.47-2.807,0.972-3.357,1.912
							c-0.72,1.229,0.6,2.904,1.946,2.259c1.548-0.742,3.096-1.483,4.645-2.226c0.803-0.385,2.993-0.94,3.374-1.825
							c0.544-1.263-0.344-2.882-1.836-2.526c-0.941,0.225-0.542,1.671,0.398,1.447c-0.124,0.165-0.248,0.33-0.372,0.496
							c-0.387,0.186-0.774,0.371-1.161,0.557c-0.581,0.278-1.161,0.557-1.742,0.834c-1.161,0.557-2.322,1.113-3.483,1.67
							c2.271-1.089,4.63-2.462,6.937-3.633C162.721,211.698,161.962,210.404,161.102,210.841z"/>
					</g>
				</g>
			</g>
			<g>
				<g>
					<path style="fill:#FFFFFF;" d="M164.184,217.395c-2.583,1.053-5.167,2.105-7.75,3.159c-0.783,0.322-0.207,1.78,0.586,1.481
						c2.607-0.994,5.212-1.988,7.819-2.982C165.643,218.75,164.978,217.066,164.184,217.395L164.184,217.395z"/>
					<g>
						<path style="fill:#FFFFFF;" d="M163.985,216.671c-1.59,0.648-3.18,1.296-4.769,1.944c-1.061,0.433-2.717,0.749-3.544,1.576
							c-0.977,0.978,0.176,3.09,1.547,2.567c1.604-0.612,3.208-1.224,4.812-1.836c0.901-0.344,3.174-0.701,3.671-1.639
							C166.378,218.008,165.449,216.447,163.985,216.671c-0.954,0.146-0.547,1.592,0.398,1.447c0.406-0.063-1.087,0.724-0.946,0.67
							c-0.602,0.229-1.203,0.459-1.805,0.688c-1.403,0.535-2.807,1.07-4.21,1.606c-0.696,0.265,1.101-0.576,1-0.535
							c0.596-0.243,1.192-0.486,1.789-0.729c1.391-0.566,2.782-1.134,4.173-1.7C165.267,217.758,164.881,216.306,163.985,216.671z"
							/>
					</g>
				</g>
			</g>
			<g>
				<g>
					<path style="fill:#FFFFFF;" d="M169.28,236.502c-2.764,0.375-5.528,0.752-8.292,1.127c-0.838,0.117-0.641,1.725,0.201,1.635
						c2.772-0.312,5.543-0.623,8.315-0.934C170.356,238.236,170.13,236.381,169.28,236.502L169.28,236.502z"/>
					<g>
						<path style="fill:#FFFFFF;" d="M169.081,235.778c-1.701,0.231-3.402,0.463-5.103,0.694c-0.892,0.121-3.164-0.018-3.787,0.733
							c-1.204,1.452-0.032,2.923,1.637,2.735c1.706-0.191,3.412-0.383,5.117-0.574c0.818-0.092,2.718,0.1,3.334-0.598
							c0.947-1.073,0.498-2.857-0.999-3.018c-0.961-0.103-0.952,1.398,0,1.5c0.485,0.052-1.218,0.49-1.056,0.472
							c-0.64,0.071-1.279,0.144-1.919,0.215c-1.493,0.168-2.985,0.336-4.478,0.503c-1.684,0.189,0.424-0.233,0.635-0.263
							c0.851-0.115,1.701-0.231,2.552-0.347c1.488-0.202,2.977-0.405,4.465-0.606C170.434,237.096,170.026,235.65,169.081,235.778z"
							/>
					</g>
				</g>
			</g>
			<g>
				<g>
					<path style="fill:#FFFFFF;" d="M169.918,250.151c-4.253-0.164-8.506-0.328-12.76-0.493c-0.846-0.029-0.925,1.541-0.082,1.599
						c4.248,0.269,8.496,0.536,12.744,0.804C170.678,252.115,170.777,250.179,169.918,250.151L169.918,250.151z"/>
					<g>
						<path style="fill:#FFFFFF;" d="M169.918,249.401c-2.29-0.088-4.58-0.177-6.871-0.266c-1.959-0.075-4.56-0.646-6.447-0.097
							c-1.456,0.424-0.953,2.878,0.476,2.968c2.287,0.145,4.575,0.289,6.862,0.434c1.929,0.121,4.533,0.765,6.401,0.256
							c1.569-0.427,0.959-2.821-0.223-3.269c-0.906-0.343-1.294,1.108-0.398,1.447c-0.293,0.124-0.585,0.249-0.878,0.374
							c-0.653-0.041-1.307-0.083-1.96-0.124c-0.98-0.062-1.961-0.123-2.941-0.185c-1.961-0.124-3.921-0.248-5.882-0.372
							c3.791,0.24,7.945,0.182,11.861,0.333C170.886,250.938,170.882,249.438,169.918,249.401z"/>
					</g>
				</g>
			</g>
			<g>
				<g>
					<path style="fill:#FFFFFF;" d="M169.892,243.252c-2.786,0.137-5.572,0.273-8.357,0.41c-0.845,0.045-0.786,1.689,0.06,1.673
						c2.788-0.071,5.576-0.142,8.364-0.212C170.816,245.104,170.749,243.204,169.892,243.252L169.892,243.252z"/>
					<g>
						<path style="fill:#FFFFFF;" d="M169.892,242.502c-1.714,0.084-3.429,0.168-5.143,0.252c-1.041,0.052-3.149-0.3-3.993,0.447
							c-0.939,0.832-0.667,2.922,0.839,2.884c1.716-0.044,3.432-0.087,5.147-0.131c1.047-0.026,3.114,0.372,3.977-0.359
							c0.975-0.825,0.752-2.828-0.627-3.066c-0.946-0.163-1.351,1.283-0.398,1.447c0.763,0.131-1.177,0.434-1.021,0.43
							c-0.644,0.017-1.287,0.032-1.93,0.049c-1.501,0.038-3.002,0.076-4.503,0.114c-0.021-0.063-0.041-0.125-0.061-0.188
							c0.428-0.021,0.857-0.042,1.286-0.063c0.643-0.031,1.286-0.063,1.928-0.095c1.5-0.073,3-0.147,4.5-0.221
							C170.854,243.955,170.859,242.454,169.892,242.502z"/>
					</g>
				</g>
			</g>
			<g>
				<g>
					<path style="fill:#FFFFFF;" d="M86.308,168.546c0.267,4.248,0.534,8.496,0.801,12.744c0.059,0.844,1.629,0.765,1.599-0.082
						c-0.164-4.253-0.328-8.506-0.492-12.76C88.188,167.59,86.252,167.689,86.308,168.546L86.308,168.546z"/>
					<g>
						<path style="fill:#FFFFFF;" d="M85.558,168.546c0.144,2.288,0.288,4.575,0.431,6.862c0.122,1.938-0.196,4.626,0.538,6.427
							c0.547,1.342,2.99,0.874,2.932-0.627c-0.088-2.29-0.177-4.58-0.265-6.871c-0.074-1.921,0.311-4.599-0.371-6.398
							c-0.557-1.469-2.889-0.883-3.237,0.408c-0.253,0.935,1.194,1.332,1.446,0.398c0.158,0.229,0.315,0.457,0.473,0.685
							c0.025,0.654,0.05,1.309,0.076,1.963c0.038,0.981,0.076,1.963,0.113,2.944c0.076,1.963,0.151,3.926,0.227,5.889
							c-0.132-3.438-0.623-7.872-0.862-11.681C86.998,167.585,85.498,167.58,85.558,168.546z"/>
					</g>
				</g>
			</g>
			<g>
				<g>
					<path style="fill:#FFFFFF;" d="M93.244,168.41c-0.071,2.788-0.142,5.576-0.212,8.364c-0.017,0.846,1.629,0.904,1.673,0.06
						c0.137-2.786,0.274-5.571,0.41-8.357C95.163,167.618,93.263,167.551,93.244,168.41L93.244,168.41z"/>
					<g>
						<path style="fill:#FFFFFF;" d="M92.494,168.41c-0.043,1.716-0.087,3.431-0.13,5.147c-0.029,1.126-0.516,3.079,0.22,4.041
							c0.798,1.044,2.802,0.641,2.871-0.765c0.084-1.714,0.168-3.429,0.252-5.143c0.055-1.115,0.584-3.04-0.119-4.011
							c-0.778-1.074-2.743-0.747-3.067,0.532c-0.238,0.938,1.209,1.336,1.446,0.398c0.163-0.644,0.331,1.244,0.335,1.152
							c-0.031,0.643-0.063,1.286-0.095,1.929c-0.073,1.5-0.147,3-0.221,4.5c-0.063-0.02-0.125-0.04-0.188-0.06
							c0.011-0.429,0.022-0.858,0.033-1.287c0.016-0.644,0.033-1.287,0.049-1.93c0.038-1.501,0.076-3.002,0.114-4.503
							C94.019,167.442,92.519,167.444,92.494,168.41z"/>
					</g>
				</g>
			</g>
			<g>
				<g>
					<path style="fill:#FFFFFF;" d="M119.314,173.527c-0.994,2.607-1.988,5.213-2.982,7.82c-0.298,0.793,1.159,1.369,1.482,0.586
						c1.053-2.584,2.105-5.167,3.159-7.751C121.3,173.39,119.617,172.725,119.314,173.527L119.314,173.527z"/>
					<g>
						<path style="fill:#FFFFFF;" d="M118.591,173.328c-0.611,1.604-1.223,3.208-1.835,4.813c-0.324,0.851-1.534,2.765-1.182,3.691
							c0.482,1.268,2.358,1.787,2.963,0.301c0.648-1.59,1.296-3.18,1.944-4.77c0.347-0.851,1.577-2.701,1.254-3.637
							c-0.457-1.327-2.226-1.806-3.069-0.577c-0.549,0.8,0.751,1.549,1.295,0.757c0.026,0.009,0.052,0.018,0.077,0.027
							c0.376,0.017,0.366,0.233-0.032,0.647c-0.243,0.596-0.486,1.192-0.729,1.789c-0.567,1.391-1.134,2.782-1.701,4.173
							c-0.575,1.412-0.142,0.011-0.063-0.198c0.306-0.802,0.612-1.604,0.917-2.406c0.535-1.403,1.07-2.807,1.605-4.211
							C120.382,172.821,118.932,172.434,118.591,173.328z"/>
					</g>
				</g>
			</g>
			<g>
				<g>
					<path style="fill:#FFFFFF;" d="M113.097,171.447c-1.181,4.091-2.362,8.182-3.543,12.273c-0.231,0.814,1.186,1.241,1.442,0.434
						c1.274-4.063,2.549-8.125,3.823-12.189C115.08,171.147,113.332,170.622,113.097,171.447L113.097,171.447z"/>
					<g>
						<path style="fill:#FFFFFF;" d="M112.374,171.248c-0.636,2.203-1.272,4.406-1.908,6.608c-0.54,1.87-1.789,4.353-1.625,6.3
							c0.122,1.458,2.459,1.534,2.878,0.197c0.687-2.188,1.373-4.375,2.059-6.563c0.575-1.834,1.875-4.279,1.771-6.205
							c-0.088-1.623-2.372-1.493-3.099-0.517c-0.579,0.776,0.724,1.523,1.295,0.757c0.019,0.293,0.039,0.585,0.058,0.878
							c-0.196,0.625-0.392,1.25-0.588,1.875c-0.294,0.938-0.588,1.875-0.882,2.813c-0.588,1.875-1.176,3.751-1.765,5.626
							c1.172-3.737,2.162-7.592,3.253-11.371C114.089,170.715,112.641,170.32,112.374,171.248z"/>
					</g>
				</g>
			</g>
			<g>
				<g>
					<path style="fill:#FFFFFF;" d="M100.037,168.864c-0.311,2.771-0.622,5.543-0.933,8.315c-0.09,0.841,1.517,1.038,1.634,0.201
						c0.375-2.765,0.752-5.529,1.128-8.292C101.986,168.237,100.13,168.01,100.037,168.864L100.037,168.864z"/>
					<g>
						<path style="fill:#FFFFFF;" d="M99.287,168.864c-0.191,1.706-0.383,3.411-0.574,5.117c-0.1,0.891-0.797,3.072-0.217,3.861
							c1.107,1.507,2.825,0.771,3.052-0.901c0.231-1.701,0.462-3.402,0.694-5.104c0.11-0.81,0.766-2.626,0.244-3.389
							c-0.799-1.167-2.646-1.196-3.171,0.215c-0.338,0.908,1.112,1.297,1.446,0.398c0.182-0.489,0.165,1.42,0.208,1.101
							c-0.086,0.638-0.173,1.276-0.26,1.914c-0.203,1.488-0.405,2.977-0.607,4.465c-0.228,1.675-0.13-0.402-0.104-0.643
							c0.096-0.853,0.191-1.706,0.287-2.559c0.167-1.493,0.335-2.985,0.502-4.478C100.895,167.903,99.394,167.914,99.287,168.864z"
							/>
					</g>
				</g>
			</g>
			<g>
				<g>
					<path style="fill:#FFFFFF;" d="M106.663,169.884c-0.545,2.736-1.091,5.472-1.637,8.208c-0.162,0.831,1.401,1.16,1.589,0.334
						c0.609-2.722,1.218-5.445,1.827-8.167C108.633,169.422,106.829,169.042,106.663,169.884L106.663,169.884z"/>
					<g>
						<path style="fill:#FFFFFF;" d="M105.939,169.685c-0.336,1.684-0.671,3.367-1.007,5.051c-0.217,1.088-0.919,2.738-0.616,3.842
							c0.365,1.326,2.699,1.49,3.021,0.047c0.375-1.675,0.75-3.351,1.125-5.026c0.236-1.057,0.994-2.721,0.697-3.801
							c-0.373-1.354-2.561-1.536-3.145-0.292c-0.409,0.87,0.884,1.632,1.295,0.757c0.089,0.142,0.179,0.283,0.268,0.425
							c-0.093,0.419-0.187,0.838-0.281,1.257c-0.141,0.628-0.281,1.256-0.421,1.885c-0.281,1.257-0.563,2.513-0.843,3.77
							c-0.115,0.512,0.105-1.255,0.094-1.202c0.126-0.631,0.252-1.263,0.378-1.894c0.294-1.473,0.588-2.946,0.881-4.419
							C107.574,169.139,106.128,168.737,105.939,169.685z"/>
					</g>
				</g>
			</g>
			<g>
				<g>
					<path style="fill:#FFFFFF;" d="M125.291,176.101c-1.206,2.516-2.412,5.03-3.617,7.547c-0.363,0.765,1.033,1.456,1.419,0.702
						c1.262-2.488,2.524-4.976,3.786-7.463C127.27,176.123,125.659,175.326,125.291,176.101L125.291,176.101z"/>
					<g>
						<path style="fill:#FFFFFF;" d="M124.643,175.722c-0.742,1.548-1.484,3.096-2.227,4.644c-0.483,1.008-1.552,2.412-1.552,3.562
							c0,1.378,2.21,2.113,2.876,0.801c0.776-1.531,1.553-3.063,2.33-4.593c0.494-0.973,1.619-2.375,1.619-3.502
							c0-1.401-2.065-2.126-2.929-1.063c-0.604,0.744,0.45,1.812,1.061,1.061c0.04,0.15,0.08,0.301,0.119,0.451
							c-0.194,0.383-0.388,0.766-0.583,1.148c-0.291,0.574-0.583,1.148-0.874,1.722c-0.583,1.148-1.165,2.297-1.748,3.444
							c-0.266,0.525,0.477-1.233,0.419-1.112c0.278-0.581,0.557-1.161,0.835-1.742c0.649-1.354,1.298-2.709,1.948-4.063
							C126.354,175.611,125.061,174.85,124.643,175.722z"/>
					</g>
				</g>
			</g>
			<g>
				<g>
					<path style="fill:#FFFFFF;" d="M131.001,179.142c-1.408,2.407-2.816,4.815-4.224,7.223c-0.424,0.732,0.904,1.533,1.35,0.813
						c1.462-2.375,2.924-4.75,4.385-7.126C132.965,179.323,131.432,178.4,131.001,179.142L131.001,179.142z"/>
					<g>
						<path style="fill:#FFFFFF;" d="M130.354,178.764c-0.805,1.375-1.609,2.751-2.414,4.127c-0.58,0.991-1.995,2.559-1.995,3.749
							c0,1.396,2.051,2.181,2.83,0.917c0.836-1.357,1.671-2.715,2.506-4.072c0.587-0.954,2.063-2.518,2.063-3.681
							c0-1.417-1.91-2.199-2.873-1.192c-0.668,0.699,0.391,1.761,1.061,1.061c0.007,0.17,0.014,0.34,0.02,0.51
							c-0.208,0.339-0.417,0.679-0.626,1.018c-0.313,0.509-0.626,1.019-0.94,1.527c-0.73,1.188-1.461,2.375-2.193,3.563
							c1.282-2.081,2.561-4.556,3.856-6.77C132.138,178.684,130.841,177.929,130.354,178.764z"/>
					</g>
				</g>
			</g>
		</g>
	</g>
	<g>
		<g>
			<path style="fill:#FFFFFF;" d="M281.975,277.074c-0.459,6.251-12.567,4.159-16.677,4.159c-12.039,0-24.079,0-36.119,0
				c-32.006,0-64.011,0-96.016,0c-12.04,0-24.08,0-36.12,0c-4.108,0-16.219,2.091-16.677-4.159c-0.367-5.004,0-10.174,0-15.188
				c0-12.568,0-25.136,0-37.704c0-31.934,0-63.867,0-95.801c0-11.507,0-23.014,0-34.521c0-3.787-1.809-14.609,4.269-14.609
				c50.756,0,101.512,0,152.268,0c10.906,0,21.812,0,32.718,0c4.147,0,12.354-1.513,12.354,4.704c0,20.205,0,40.41,0,60.615
				C281.975,188.738,281.975,232.906,281.975,277.074c0,6.448,10,6.448,10,0c0-49.564,0-99.128,0-148.693
				c0-11.507,0-23.014,0-34.521c0-7.382,1.123-15.16-4.614-20.898c-5.024-5.025-14.029-3.711-20.532-3.711
				c-11.677,0-23.353,0-35.028,0c-31.991,0-63.982,0-95.973,0c-12.39,0-24.779,0-37.168,0c-5.304,0-11.561-0.896-16.816,0.278
				c-11.321,2.528-11.477,12.5-11.477,21.612c0,10.729,0,21.458,0,32.187c0,31.792,0,63.585,0,95.377c0,19.375,0,38.75,0,58.126
				c0,7.791,6.305,14.402,14.187,14.402c1.563,0,3.125,0,4.687,0c9.644,0,19.287,0,28.93,0c52.839,0,105.677,0,158.516,0
				c8.505,0,14.664-5.634,15.289-14.159C292.447,270.638,282.443,270.683,281.975,277.074z"/>
		</g>
	</g>
</g>
<g id="Ebene_1">
</g>
</svg>
