<?xml version="1.0" encoding="iso-8859-1"?>
<!-- Generator: Adobe Illustrator 16.0.0, SVG Export Plug-In . SVG Version: 6.00 Build 0)  -->
<!DOCTYPE svg PUBLIC "-//W3C//DTD SVG 1.1 Tiny//EN" "http://www.w3.org/Graphics/SVG/1.1/DTD/svg11-tiny.dtd">
<svg version="1.1" baseProfile="tiny" id="vent_x5F_ventilation_x5F_level_x5F_3"
	 xmlns="http://www.w3.org/2000/svg" xmlns:xlink="http://www.w3.org/1999/xlink" x="0px" y="0px" width="361px" height="361px"
	 viewBox="0 0 361 361" xml:space="preserve">
<g>
	<path fill="none" stroke="#FFFFFF" stroke-width="10" stroke-miterlimit="10" d="M190.733,190.835
		c-0.712-2.663-2.879-4.398-4.838-3.873l-42.253,11.321c-1.957,0.524-2.966,3.109-2.252,5.774l19.6,73.148
		c0.715,2.663,2.88,4.398,4.839,3.872l42.252-11.32c1.958-0.526,2.967-3.111,2.253-5.774L190.733,190.835z"/>
	<path fill="none" stroke="#FFFFFF" stroke-width="10" stroke-miterlimit="10" d="M192.764,141.989
		c-1.949,1.949-2.368,4.693-0.935,6.126l30.931,30.932c1.433,1.432,4.177,1.015,6.127-0.935l53.548-53.549
		c1.949-1.949,2.368-4.693,0.934-6.126l-30.932-30.93c-1.432-1.434-4.176-1.016-6.125,0.934L192.764,141.989z"/>
	<path fill="none" stroke="#FFFFFF" stroke-width="10" stroke-miterlimit="10" d="M149.449,164.832
		c2.664,0.716,5.249-0.295,5.773-2.254l11.322-42.253c0.523-1.957-1.209-4.124-3.872-4.837L89.522,95.886
		c-2.664-0.711-5.248,0.298-5.773,2.255l-11.322,42.252c-0.525,1.959,1.209,4.126,3.873,4.839L149.449,164.832z"/>
	<g>
		<path fill="#FFFFFF" d="M172.263,177.642c2.083-7.772,4.166-15.545,6.248-23.318c-2.786,0.735-5.571,1.471-8.357,2.207
			c5.69,5.69,11.38,11.38,17.07,17.07c0.735-2.786,1.471-5.571,2.207-8.357c-7.773,2.083-15.545,4.165-23.318,6.248
			c-6.223,1.667-3.579,11.314,2.658,9.643c7.773-2.083,15.545-4.165,23.318-6.248c3.642-0.976,4.853-5.71,2.207-8.357
			c-5.69-5.69-11.38-11.38-17.07-17.07c-2.647-2.646-7.381-1.436-8.357,2.207c-2.083,7.772-4.166,15.545-6.248,23.318
			C160.949,181.221,170.595,183.865,172.263,177.642z"/>
	</g>
</g>
<g>
	<g>
		<path fill="#FFFFFF" d="M79.386,180.979c-3.407-8.751-5.495-16.106-3.231-25.493c0.454-1.88-2.439-2.678-2.893-0.798
			c-2.391,9.915-0.403,17.754,3.231,27.089C77.188,183.559,80.089,182.785,79.386,180.979L79.386,180.979z"/>
	</g>
	<g>
		<path fill="#FFFFFF" d="M90.022,176.413c-3.32-5.645-3.808-10.633-2.695-17.136c0.324-1.892-2.567-2.702-2.893-0.798
			c-1.25,7.302-0.751,13.076,2.997,19.448C88.411,179.593,91.005,178.084,90.022,176.413L90.022,176.413z"/>
	</g>
	<g>
		<path fill="#FFFFFF" d="M241.061,241.494c-5.868,7.323-11.232,12.873-20.492,15.558c-1.854,0.538-1.064,3.433,0.798,2.893
			c9.769-2.833,15.586-8.556,21.815-16.329C244.379,242.122,242.271,239.984,241.061,241.494L241.061,241.494z"/>
	</g>
	<g>
		<path fill="#FFFFFF" d="M231.789,234.56c-1.13,1.995-2.255,3.914-3.879,5.556c-2.595,2.625-6.247,4.12-9.643,5.366
			c-1.8,0.66-1.023,3.561,0.798,2.893c3.805-1.396,7.473-3.046,10.545-5.741c2.057-1.803,3.438-4.21,4.77-6.56
			C235.334,234.389,232.742,232.877,231.789,234.56L231.789,234.56z"/>
	</g>
	<g>
		<path fill="#FFFFFF" d="M210.338,74.991c9.281,1.423,16.746,3.296,23.723,9.962c1.398,1.336,3.522-0.783,2.121-2.121
			c-7.362-7.034-15.176-9.22-25.046-10.733C209.244,71.809,208.431,74.699,210.338,74.991L210.338,74.991z"/>
	</g>
	<g>
		<path fill="#FFFFFF" d="M208.988,86.491c6.555-0.053,11.122,2.017,16.204,6.242c1.476,1.227,3.61-0.883,2.121-2.121
			c-5.687-4.729-10.942-7.18-18.325-7.121C207.055,83.506,207.053,86.506,208.988,86.491L208.988,86.491z"/>
	</g>
</g>
<g>
	<path fill="#FFFFFF" d="M146.039,157.286c1.998,0.537,3.937-0.221,4.33-1.69l8.491-31.689c0.392-1.468-0.907-3.093-2.904-3.628
		l-54.862-14.701c-1.998-0.534-3.936,0.224-4.33,1.691l-8.491,31.689c-0.394,1.469,0.907,3.095,2.904,3.629L146.039,157.286z"/>
	<path fill="#FFFFFF" d="M137.877,155.142c1.998,0.537,3.937-0.221,4.33-1.69l8.491-31.689c0.392-1.468-0.907-3.093-2.904-3.628
		l-54.862-14.701c-1.998-0.534-3.936,0.224-4.33,1.691l-8.491,31.689c-0.394,1.469,0.907,3.095,2.904,3.629L137.877,155.142z"/>
</g>
<g>
	<path fill="#FFFFFF" d="M206.91,136.707c-1.461,1.462-1.776,3.52-0.702,4.595l23.199,23.199c1.074,1.074,3.132,0.761,4.595-0.701
		l40.161-40.162c1.461-1.462,1.776-3.52,0.701-4.595l-23.199-23.197c-1.074-1.076-3.132-0.762-4.594,0.701L206.91,136.707z"/>
	<path fill="#FFFFFF" d="M201.098,142.52c-1.461,1.462-1.776,3.52-0.702,4.595l23.199,23.199c1.074,1.074,3.132,0.761,4.595-0.701
		l40.161-40.162c1.461-1.462,1.776-3.52,0.701-4.595l-23.199-23.197c-1.074-1.076-3.132-0.762-4.594,0.701L201.098,142.52z"/>
</g>
<g>
	<path fill="#FFFFFF" d="M185.866,197.132c-0.534-1.997-2.16-3.299-3.628-2.905l-31.69,8.491c-1.468,0.394-2.225,2.332-1.689,4.331
		l14.7,54.861c0.536,1.997,2.16,3.298,3.629,2.904l31.689-8.49c1.468-0.395,2.225-2.334,1.69-4.331L185.866,197.132z"/>
	<path fill="#FFFFFF" d="M188.135,205.788c-0.534-1.997-2.16-3.299-3.628-2.905l-31.69,8.491c-1.468,0.394-2.225,2.332-1.689,4.331
		l14.7,54.861c0.536,1.997,2.16,3.298,3.629,2.904l31.689-8.49c1.468-0.395,2.225-2.334,1.69-4.331L188.135,205.788z"/>
</g>
</svg>
