<?xml version="1.0" encoding="iso-8859-1"?>
<!-- Generator: Adobe Illustrator 16.0.0, SVG Export Plug-In . SVG Version: 6.00 Build 0)  -->
<!DOCTYPE svg PUBLIC "-//W3C//DTD SVG 1.1//EN" "http://www.w3.org/Graphics/SVG/1.1/DTD/svg11.dtd">
<svg version="1.1" xmlns="http://www.w3.org/2000/svg" xmlns:xlink="http://www.w3.org/1999/xlink" x="0px" y="0px" width="361px"
	 height="361px" viewBox="0 0 361 361" style="enable-background:new 0 0 361 361;" xml:space="preserve">
<g id="vent_x5F_ventilation_x5F_level_x5F_automatic">
	<g>
		<path style="fill:none;stroke:#FFFFFF;stroke-width:10;stroke-miterlimit:10;" d="M157.116,146.943
			c-0.497-1.854-2.006-3.064-3.371-2.697l-29.435,7.886c-1.363,0.365-2.066,2.167-1.569,4.022l13.653,50.958
			c0.499,1.855,2.007,3.064,3.373,2.698l29.435-7.888c1.363-0.365,2.066-2.167,1.569-4.021L157.116,146.943z"/>
		<path style="fill:none;stroke:#FFFFFF;stroke-width:10;stroke-miterlimit:10;" d="M158.531,112.915
			c-1.357,1.358-1.651,3.27-0.652,4.268l21.547,21.549c0.998,0.998,2.911,0.707,4.269-0.652l37.304-37.304
			c1.357-1.358,1.649-3.27,0.65-4.269l-21.548-21.546c-0.998-0.999-2.91-0.708-4.268,0.65L158.531,112.915z"/>
		<path style="fill:none;stroke:#FFFFFF;stroke-width:10;stroke-miterlimit:10;" d="M128.355,128.829
			c1.855,0.499,3.657-0.206,4.022-1.57l7.888-29.436c0.364-1.363-0.843-2.873-2.697-3.369L86.608,80.799
			c-1.856-0.497-3.656,0.207-4.022,1.57l-7.887,29.435c-0.366,1.365,0.841,2.875,2.697,3.372L128.355,128.829z"/>
		<g>
			<g>
				<path style="fill:#FFFFFF;" d="M149.938,133.278c0.56-2.09,1.12-4.18,1.68-6.27c-2.786,0.735-5.571,1.471-8.357,2.207
					c1.53,1.53,3.06,3.06,4.59,4.59c0.735-2.786,1.471-5.571,2.207-8.357c-2.09,0.56-4.18,1.12-6.27,1.68
					c-2.631,0.705-4.211,3.537-3.492,6.15c0.726,2.639,3.52,4.197,6.15,3.492c2.09-0.56,4.18-1.12,6.27-1.68
					c3.642-0.976,4.853-5.71,2.207-8.357c-1.53-1.53-3.06-3.06-4.59-4.59c-2.647-2.646-7.381-1.436-8.357,2.207
					c-0.56,2.09-1.12,4.18-1.68,6.27c-0.705,2.631,0.853,5.424,3.492,6.15C146.4,137.489,149.232,135.91,149.938,133.278z"/>
			</g>
		</g>
	</g>
	<g>
		<g>
			<g>
				<path style="fill:#FFFFFF;" d="M198.484,245.925c0.188-0.586,1.316-0.445,0.176-0.445c-0.85,0-1.699,0-2.549,0
					c-2.498,0-4.996,0-7.494,0c-1.551,0-3.101,0-4.651,0c-0.838,0,0.667,2.139,0.667,0.943c0-0.583,0-1.167,0-1.751
					c0-7.809,0-15.618,0-23.428c0,1.479-1.653,1.327-0.302,1.327c0.85,0,1.699,0,2.549,0c2.498,0,4.996,0,7.494,0
					c1.627,0,3.254,0,4.881,0c-1.013,0-0.896-2.243-0.896-0.622c0,0.68,0,1.36,0,2.041c0,7.622,0,15.243,0,22.865
					c0,4.514,7,4.514,7,0c0-4.441,0-8.883,0-13.324c0-3.889,1.089-9.495-0.125-13.268c-1.939-6.028-8.692-4.692-13.738-4.692
					c-5.047,0-11.799-1.336-13.738,4.692c-1.214,3.772-0.125,9.379-0.125,13.268c0,4.441,0,8.883,0,13.324
					c0,6.741,8.491,5.624,12.886,5.624c5.196,0,12.706,1.554,14.716-4.693C206.621,243.477,199.861,241.646,198.484,245.925z"/>
			</g>
		</g>
		<g>
			<g>
				<path style="fill:#FFFFFF;" d="M227.125,245.158c-0.064,0.367,1.441,0.321-0.311,0.321c-1.267,0-2.533,0-3.8,0
					c-2.756,0-5.512,0-8.268,0c-0.713,0-1.427,0-2.141,0c-0.28,0,0.667,1.114,0.667,0.043c0-1.819,0-3.639,0-5.458
					c0-9.623,0-19.246,0-28.869c0,0.734-1.64,0.572,0.186,0.572c1.267,0,2.533,0,3.8,0c2.986,0,5.973,0,8.959,0
					c0.56,0,1.119,0,1.679,0c-1.095,0-0.896-1.074-0.896,0.265c0,1.979,0,3.957,0,5.937c0,9.373,0,18.746,0,28.12
					c0,4.514,7,4.514,7,0c0-11.353,0-22.704,0-34.057c0-7.04-5.566-7.265-10.985-7.265c-5.5,0-15.295-2.032-16.616,5.46
					c-0.839,4.756-0.125,10.152-0.125,14.956c0,6.555,0,13.109,0,19.664c0,6.644,4.577,7.632,10.089,7.632
					c5.598,0,16.159,2.213,17.513-5.46C234.653,242.606,227.908,240.719,227.125,245.158z"/>
			</g>
		</g>
		<g>
			<g>
				<path style="fill:#FFFFFF;" d="M255.799,245.131c0.685,0.242,0.799,0.344,0.345,0.307c-0.51,0-1.021,0-1.53,0
					c-1.768,0-3.535,0-5.304,0c-2.691,0-5.383,0-8.075,0c0.854,0,0.713,1.093,0.713-0.054c0-0.802,0-1.604,0-2.406
					c0-2.893,0-5.785,0-8.678c0-11.57,0-23.142,0-34.712c0,0.875-0.98,0.596,1.061,0.596c1.768,0,3.535,0,5.304,0
					c1.858,0,3.717,0,5.575,0c0.623,0,1.247,0,1.87,0c1.247,0-0.083,0.122-0.083-0.596c0,4.207,0,8.415,0,12.622
					c0,11.284,0,22.567,0,33.852c0,4.514,7,4.514,7,0c0-12.428,0-24.855,0-37.283c0-3.797,1.207-10.702-1.817-13.727
					c-2.152-2.152-5.013-1.868-7.779-1.868c-3.737,0-7.476,0-11.213,0c-6.244,0-6.917,5.165-6.917,10.007c0,7.204,0,14.407,0,21.611
					c0,6.525,0,13.051,0,19.576c0,6.331,3.902,8.06,9.597,8.06c5.661,0,16.541,2.264,18.005-5.445
					C263.387,242.581,256.641,240.699,255.799,245.131z"/>
			</g>
		</g>
		<g>
			<g>
				<path style="fill:#FFFFFF;" d="M284.401,245.183c-0.044,0.231,1.256,0.214,0.066,0.214c-0.583,0-1.166,0-1.749,0
					c-1.769,0-3.537,0-5.306,0s-3.537,0-5.306,0c-0.583,0-1.166,0-1.749,0c-1.229,0,0.191,0.091,0.191,0.632
					c0-4.189,0-8.379,0-12.569c0-14.634,0-29.269,0-43.902c0-1.38,0-2.759,0-4.138c0,0.335-1.441,0.528,0.289,0.528
					c1.87,0,3.741,0,5.611,0c2.868,0,5.735,0,8.603,0c-0.928,0-0.776-1.265-0.776,0.024c0,0.854,0,1.707,0,2.561
					c0,14.415,0,28.831,0,43.246c0,4.778,0,9.557,0,14.335c0,4.514,7,4.514,7,0c0-11.468,0-22.936,0-34.403
					c0-7.004,0-14.009,0-21.013c0-3.735,0.831-10.341-4.186-11.406c-5.501-1.168-11.713-0.344-17.317-0.344
					c-5.965,0-6.224,5.725-6.224,10.082c0,14.532,0,29.065,0,43.598c0,5.674-1.961,15.306,3.35,19.073
					c2.923,2.073,10.102,0.696,13.348,0.696c4.557,0,9.804,0.381,10.904-5.353C291.998,242.634,285.252,240.753,284.401,245.183z"/>
			</g>
		</g>
		<g>
			<path style="fill:#FFFFFF;" d="M199.264,290.906l-1.644-7.081h-9.347l-1.586,7.081h-7.251c1.662-6.041,3.342-11.545,5.042-16.514
				c1.699-4.967,3.342-9.68,4.928-14.136h7.591c1.661,4.489,3.313,9.251,4.957,14.284c1.643,5.035,3.237,10.49,4.786,16.365H199.264
				z M193.031,266.198c-0.377,1.155-0.727,2.253-1.047,3.293c-0.322,1.04-0.623,2.063-0.906,3.069
				c-0.284,1.008-0.549,2.022-0.794,3.045c-0.246,1.023-0.481,2.08-0.708,3.17h6.854c-0.227-1.09-0.453-2.146-0.68-3.17
				c-0.227-1.022-0.481-2.037-0.765-3.045c-0.283-1.006-0.586-2.029-0.906-3.069C193.758,268.451,193.408,267.354,193.031,266.198z"
				/>
			<path style="fill:#FFFFFF;" d="M221.299,291.549c-2.266,0-4.163-0.271-5.693-0.816c-1.529-0.545-2.746-1.328-3.653-2.352
				c-0.906-1.023-1.549-2.261-1.926-3.714c-0.378-1.452-0.566-3.069-0.566-4.853v-19.558h7.024v19.161
				c0,1.288,0.075,2.369,0.227,3.244c0.15,0.875,0.405,1.576,0.765,2.104c0.358,0.529,0.858,0.908,1.501,1.139
				c0.643,0.232,1.453,0.348,2.436,0.348s1.794-0.115,2.437-0.348c0.642-0.23,1.151-0.618,1.529-1.163
				c0.378-0.544,0.642-1.254,0.794-2.129c0.15-0.874,0.227-1.956,0.227-3.243v-19.112h6.967v19.558c0,1.783-0.189,3.4-0.566,4.853
				c-0.378,1.453-1.039,2.69-1.982,3.714c-0.944,1.023-2.191,1.807-3.738,2.352C225.528,291.277,223.603,291.549,221.299,291.549z"
				/>
			<path style="fill:#FFFFFF;" d="M262.482,260.257v5.05h-9.233v25.6h-7.024v-25.6h-9.234v-5.05H262.482z"/>
			<path style="fill:#FFFFFF;" d="M265.428,275.557c0-5.281,1.114-9.268,3.343-11.957c2.228-2.691,5.325-4.036,9.29-4.036
				c4.116,0,7.252,1.345,9.404,4.036c2.152,2.689,3.229,6.676,3.229,11.957s-1.096,9.268-3.285,11.957
				c-2.191,2.691-5.288,4.035-9.291,4.035c-4.116,0-7.26-1.344-9.432-4.035C266.514,284.824,265.428,280.838,265.428,275.557z
				 M272.51,275.557c0,1.485,0.065,2.881,0.198,4.184c0.132,1.305,0.396,2.436,0.793,3.393s0.953,1.716,1.671,2.277
				c0.717,0.561,1.68,0.842,2.889,0.842c1.171,0,2.125-0.281,2.861-0.842c0.736-0.562,1.303-1.328,1.699-2.303
				c0.396-0.973,0.66-2.104,0.793-3.392c0.133-1.288,0.199-2.674,0.199-4.159s-0.066-2.88-0.199-4.184
				c-0.133-1.305-0.396-2.435-0.793-3.393c-0.396-0.957-0.954-1.715-1.671-2.277c-0.718-0.561-1.681-0.842-2.89-0.842
				s-2.172,0.281-2.889,0.842c-0.718,0.563-1.274,1.329-1.671,2.303s-0.661,2.104-0.793,3.392
				C272.575,272.685,272.51,274.071,272.51,275.557z"/>
		</g>
	</g>
</g>
<g id="Ebene_1">
</g>
</svg>
