<?xml version="1.0" encoding="iso-8859-1"?>
<!-- Generator: Adobe Illustrator 16.0.0, SVG Export Plug-In . SVG Version: 6.00 Build 0)  -->
<!DOCTYPE svg PUBLIC "-//W3C//DTD SVG 1.1//EN" "http://www.w3.org/Graphics/SVG/1.1/DTD/svg11.dtd">
<svg version="1.1" xmlns="http://www.w3.org/2000/svg" xmlns:xlink="http://www.w3.org/1999/xlink" x="0px" y="0px" width="361px"
	 height="361px" viewBox="0 0 361 361" style="enable-background:new 0 0 361 361;" xml:space="preserve">
<g id="vent_x5F_bypass">
	<g id="Zuluft_4_">
		<g>
			<g>
				<path style="fill:#FFFFFF;" d="M205.928,223.5c0.633,4.877,6.159,3.169,9.982,3.169c3.547,0,3.086-3.355,3.086-6.059
					c0-9.88,0-19.761,0-29.642c0-4.909-6.761-3.167-9.981-3.167c-3.547,0-3.087,3.354-3.087,6.057
					C205.928,203.738,205.928,213.619,205.928,223.5c0,1.935,3,1.935,3,0c0-7.529,0-15.058,0-22.587c0-3.262,0-6.524,0-9.786
					c0-0.508-1.517-0.325-0.479-0.325c1.018,0,2.035,0,3.053,0c1.228,0,2.456,0,3.685,0c0.43,0,0.859,0,1.289,0
					c0.654-0.023,0.494,0.032-0.479,0.167c0.94,7.268,0,15.264,0,22.587c0,3.262,0,6.524,0,9.786c0,0.508,1.518,0.327,0.479,0.327
					c-1.018,0-2.035,0-3.053,0c-1.228,0-2.456,0-3.685,0c-0.43,0-0.859,0-1.289,0c-0.654,0.024-0.494-0.032,0.479-0.169
					C208.683,221.609,205.68,221.585,205.928,223.5z"/>
			</g>
		</g>
		<g>
			<g>
				<path style="fill:#FFFFFF;" d="M206.448,180.907c-11.012,8.417-22.023,16.833-33.035,25.25c-0.954,0.729-0.954,1.861,0,2.59
					c11.012,8.417,22.023,16.833,33.035,25.249c0.938,0.717,2.257-0.265,2.257-1.295c0-16.833,0-33.665,0-50.498
					c0-1.935-3-1.935-3,0c0,16.833,0,33.665,0,50.498c0.752-0.432,1.505-0.863,2.257-1.295
					c-11.012-8.417-22.023-16.833-33.035-25.249c0,0.863,0,1.727,0,2.59c11.012-8.416,22.023-16.832,33.035-25.249
					C209.478,182.34,207.985,179.731,206.448,180.907z"/>
			</g>
		</g>
	</g>
	<g id="Abluft_4_" style="display:none;">
		<g style="display:inline;">
			<g>
				<path style="fill:#FFFFFF;" d="M90.131,268.935c0.141-0.066,0.282-0.133,0.422-0.198c1.179-0.488,2.357-0.977,3.536-1.465
					c-6.018,0-12.036,0-18.053,0c1.179,0.488,2.357,0.977,3.536,1.465c0.767,0.665,0.424-1.665,0.424-2.077c0-2.507,0-5.013,0-7.52
					c0-7.579,0-15.157,0-22.736s0-15.157,0-22.736c0-2.369,0-4.738,0-7.107c0-0.437,0.345-3.153-0.424-2.487
					c-1.179,0.488-2.357,0.977-3.536,1.465c6.018,0,12.036,0,18.053,0c-1.179-0.488-2.357-0.977-3.536-1.465
					c-0.767-0.663-0.422,1.659-0.422,2.075c0,2.265,0,4.529,0,6.794c0,7.488,0,14.978,0,22.466
					C90.131,246.583,90.131,257.759,90.131,268.935c0,6.448,10,6.448,10,0c0-11.176,0-22.352,0-33.527c0-7.488,0-14.978,0-22.466
					c0-3.59,0.782-8.555-0.321-12.082c-2.383-7.625-12.185-5.322-18.511-5.322c-2.303,0-5.692-0.544-7.787,0.683
					c-2.972,1.741-3.517,5.187-3.517,8.354c0,12.917,0,25.835,0,38.753c0,6.194,0,12.39,0,18.584c0,2.992-0.592,7.108,0.321,10.037
					c2.209,7.083,9.781,5.323,15.712,5.323c2.599,0,5.199,0,7.798,0c4.756,0,5.979-4.474,6.305-8.337
					C100.674,262.506,90.67,262.558,90.131,268.935z"/>
			</g>
		</g>
		<g style="display:inline;">
			<g>
				<path style="fill:#FFFFFF;" d="M93.053,190.655c22.023,16.833,44.047,33.665,66.071,50.498c0-2.878,0-5.757,0-8.635
					c-22.024,16.833-44.048,33.665-66.071,50.498c2.508,1.439,5.016,2.878,7.523,4.317c0-33.665,0-67.331,0-100.996
					c0-6.449-10-6.449-10,0c0,33.665,0,67.331,0,100.996c0,3.436,4.397,6.707,7.523,4.317
					c22.024-16.833,44.048-33.665,66.071-50.498c3.178-2.429,3.178-6.206,0-8.635c-22.023-16.833-44.047-33.665-66.071-50.498
					C92.974,178.103,88.003,186.796,93.053,190.655z"/>
			</g>
		</g>
	</g>
	<g>
		<g>
			<path style="fill:#FFFFFF;" d="M251.833,286.334c0-36.111,0-72.223,0-108.333c0-6.449-10-6.449-10,0c0,36.111,0,72.222,0,108.333
				C241.833,292.782,251.833,292.782,251.833,286.334L251.833,286.334z"/>
		</g>
	</g>
	<g>
		<g>
			<path style="fill:#FFFFFF;" d="M251.833,120.001c0-6.956,0-13.911,0-20.866c0-6.449-10-6.449-10,0c0,6.956,0,13.911,0,20.866
				C241.833,126.45,251.833,126.45,251.833,120.001L251.833,120.001z"/>
		</g>
	</g>
	<g>
		<g>
			<path style="fill:#FFFFFF;" d="M288.759,113.632c-28.202-14.46-56.405-28.92-84.608-43.38c-5.727-2.936-10.787,5.692-5.047,8.635
				c28.203,14.46,56.405,28.92,84.608,43.38C289.438,125.203,294.499,116.575,288.759,113.632L288.759,113.632z"/>
		</g>
	</g>
	<g>
		<g>
			<path style="fill:#FFFFFF;" d="M136.833,150.984c6.2-1.85,12.492-3.471,18.851-4.672c8.5-1.605,15.959,0.971,23.905,3.886
				c10.954,4.018,22.235,10.623,34.065,11.009c7.296,0.238,15.346-3.587,21.991-6.186c4.038-1.579,8.011-3.305,12.074-4.823
				c7.977-2.98,15.38-5.382,23.906-3.886c6.361,1.116,12.664,2.827,18.851,4.672c1.858,0.555,2.646-2.341,0.797-2.893
				c-6.2-1.85-12.491-3.471-18.851-4.673c-7.98-1.507-14.637,0.111-22.247,2.718c-11.71,4.011-24.009,11.662-36.521,12.07
				c-7.452,0.243-15.945-3.972-22.727-6.689c-4.586-1.838-9.129-3.741-13.794-5.38c-7.143-2.51-13.599-4.118-21.125-2.915
				c-6.746,1.079-13.432,2.918-19.974,4.87C134.186,148.643,134.974,151.539,136.833,150.984L136.833,150.984z"/>
		</g>
	</g>
	<g>
		<g>
			<path style="fill:#FFFFFF;" d="M144.425,159.588c6.024-2.177,12.932-4.321,19.379-3.757c6.911,0.605,13.977,3.766,20.365,6.296
				c9.375,3.713,19.262,8.915,29.485,9.248c6.396,0.208,13.369-2.933,19.231-5.123c3.208-1.198,6.352-2.547,9.524-3.832
				c6.354-2.575,12.89-5.027,19.629-6.363c6.764-1.341,14.501,1.237,20.846,3.53c1.823,0.659,2.602-2.24,0.797-2.893
				c-5.921-2.14-12.23-3.792-18.546-3.964c-6.732-0.185-14.043,3.152-20.203,5.492c-9.988,3.794-20.465,9.8-31.278,10.152
				c-6.682,0.218-14.219-3.385-20.328-5.741c-3.364-1.297-6.668-2.743-10.026-4.056c-6.488-2.538-13.35-5.21-20.343-5.822
				c-6.329-0.554-13.449,1.813-19.33,3.939C141.822,157.348,142.601,160.247,144.425,159.588L144.425,159.588z"/>
		</g>
	</g>
	<g>
		<g>
			<path style="fill:#FFFFFF;" d="M144.542,139.316c6.024-2.177,12.932-4.322,19.379-3.758c6.912,0.605,13.978,3.767,20.365,6.297
				c9.375,3.713,19.262,8.914,29.485,9.248c6.396,0.208,13.369-2.933,19.231-5.122c3.207-1.198,6.351-2.547,9.523-3.832
				c6.354-2.575,12.89-5.027,19.63-6.363c6.764-1.341,14.502,1.238,20.846,3.531c1.823,0.659,2.602-2.24,0.797-2.893
				c-5.921-2.141-12.23-3.792-18.546-3.965c-6.732-0.185-14.043,3.152-20.203,5.492c-9.988,3.794-20.465,9.799-31.278,10.152
				c-6.682,0.218-14.219-3.384-20.328-5.74c-3.364-1.297-6.668-2.743-10.026-4.056c-6.488-2.537-13.35-5.21-20.343-5.822
				c-6.329-0.554-13.449,1.814-19.33,3.939C141.939,137.076,142.718,139.976,144.542,139.316L144.542,139.316z"/>
		</g>
	</g>
	<g>
		<g>
			<path style="fill:#FFFFFF;" d="M77.519,107.922c18.877-9.678,37.754-19.357,56.631-29.035c5.74-2.943,0.68-11.571-5.047-8.635
				c-18.877,9.678-37.754,19.357-56.631,29.035C66.731,102.23,71.792,110.858,77.519,107.922L77.519,107.922z"/>
		</g>
	</g>
	<g id="Zuluft_5_">
		<g>
			<g>
				<path style="fill:#FFFFFF;" d="M83.11,248.441c-0.631-4.877-6.16-3.169-9.981-3.169c-3.547,0-3.086,3.355-3.086,6.059
					c0,9.88,0,19.761,0,29.642c0,4.909,6.761,3.167,9.981,3.167c3.547,0,3.087-3.354,3.087-6.057
					C83.11,268.203,83.11,258.322,83.11,248.441c0-1.935-3-1.935-3,0c0,7.529,0,15.058,0,22.587c0,3.262,0,6.524,0,9.786
					c0,0.508,1.517,0.325,0.479,0.325c-1.018,0-2.035,0-3.053,0c-1.228,0-2.456,0-3.684,0c-0.43,0-0.86,0-1.29,0
					c-0.654,0.023-0.494-0.032,0.479-0.167c-0.941-7.268,0-15.264,0-22.587c0-3.262,0-6.524,0-9.786
					c0-0.508-1.518-0.327-0.479-0.327c1.018,0,2.035,0,3.053,0c1.228,0,2.456,0,3.684,0c0.43,0,0.86,0,1.29,0
					c0.654-0.024,0.495,0.032-0.479,0.169C80.355,250.332,83.358,250.356,83.11,248.441z"/>
			</g>
		</g>
		<g>
			<g>
				<path style="fill:#FFFFFF;" d="M82.59,291.034c11.012-8.416,22.024-16.832,33.036-25.249c0.953-0.729,0.953-1.861,0-2.59
					c-11.012-8.417-22.024-16.833-33.036-25.249c-0.938-0.717-2.257,0.265-2.257,1.295c0,16.833,0,33.665,0,50.498
					c0,1.935,3,1.935,3,0c0-16.833,0-33.665,0-50.498c-0.752,0.432-1.505,0.863-2.257,1.295
					c11.012,8.417,22.023,16.833,33.035,25.249c0-0.863,0-1.727,0-2.59c-11.012,8.416-22.023,16.832-33.035,25.249
					C79.561,289.602,81.052,292.21,82.59,291.034z"/>
			</g>
		</g>
	</g>
	<g>
		<g>
			<path style="fill:#FFFFFF;" d="M197.564,276.037c-11.263-11.264-22.525-22.527-33.788-33.79c0.341,0.824,0.683,1.649,1.025,2.475
				c0.646-7.669,1.622-17.876-3.75-23.979c-5.06-5.749-17.114-4.327-23.979-3.751c0.825,0.342,1.65,0.684,2.475,1.025
				c-7.204-7.204-14.408-14.408-21.612-21.612c-5.864-5.864-16.508-21.368-25.67-12.194c-9.129,9.141,6.171,19.646,12.033,25.507
				c7.362,7.362,14.724,14.725,22.086,22.087c-0.341-0.824-0.683-1.649-1.025-2.475c-0.382,7.607-1.508,17.196,3.836,23.268
				c5.023,5.708,16.474,4.182,23.269,3.836c-0.825-0.342-1.65-0.684-2.475-1.025c8.693,8.693,17.387,17.387,26.08,26.079
				c2.743,2.742,6.084,7.634,9.723,9.357C195.443,295.416,204.193,284.388,197.564,276.037c-2.806-3.535-7.725,1.453-4.949,4.949
				c2.746,3.46-2.805,4.344-4.713,2.436c-1.901-1.901-3.803-3.803-5.704-5.704c-5.571-5.571-11.143-11.144-16.714-16.715
				c-3.49-3.489-6.979-6.979-10.469-10.469c-1.537-1.537-4.157-1.062-6.158-1.062c-3.404,0-6.808,0-10.212,0
				c-8.74,0-6.323-13.428-6.323-19.007c0-4.03-3.973-6.597-6.642-9.266c-9.465-9.465-18.929-18.93-28.394-28.394
				c-1.982-1.982,0.72-6.431,3.292-3.858c1.346,1.346,2.693,2.692,4.039,4.038c5.344,5.345,10.688,10.688,16.032,16.032
				c4.355,4.355,8.71,8.711,13.066,13.065c3.296,3.297,10.766,1.784,15.142,1.784c4.358,0,8.708,0.847,9.069,6.229
				c0.209,3.117,0,6.317,0,9.441c0,2.233-0.748,6.009,0.92,7.677c1.105,1.105,2.211,2.211,3.316,3.316
				c9.765,9.766,19.529,19.53,29.294,29.296c0.387,0.386,0.772,0.772,1.159,1.158C195.81,284.182,200.759,279.231,197.564,276.037z"
				/>
		</g>
	</g>
</g>
<g id="Ebene_1">
</g>
</svg>
