<?xml version="1.0" encoding="iso-8859-1"?>
<!-- Generator: Adobe Illustrator 16.0.0, SVG Export Plug-In . SVG Version: 6.00 Build 0)  -->
<!DOCTYPE svg PUBLIC "-//W3C//DTD SVG 1.1//EN" "http://www.w3.org/Graphics/SVG/1.1/DTD/svg11.dtd">
<svg version="1.1" xmlns="http://www.w3.org/2000/svg" xmlns:xlink="http://www.w3.org/1999/xlink" x="0px" y="0px" width="361px"
	 height="361px" viewBox="0 0 361 361" style="enable-background:new 0 0 361 361;" xml:space="preserve">
<g id="vent_x5F_ventilation_x5F_level_x5F_manual_x5F_m">
	<path style="fill:none;stroke:#FFFFFF;stroke-width:10;stroke-miterlimit:10;" d="M157.116,146.943
		c-0.497-1.854-2.006-3.064-3.371-2.697l-29.435,7.886c-1.363,0.365-2.066,2.167-1.569,4.022l13.653,50.958
		c0.499,1.855,2.007,3.064,3.373,2.698l29.435-7.888c1.363-0.365,2.066-2.167,1.569-4.021L157.116,146.943z"/>
	<path style="fill:none;stroke:#FFFFFF;stroke-width:10;stroke-miterlimit:10;" d="M158.531,112.915
		c-1.357,1.358-1.651,3.27-0.652,4.268l21.547,21.549c0.998,0.998,2.911,0.707,4.269-0.652l37.304-37.304
		c1.357-1.358,1.649-3.27,0.65-4.269l-21.548-21.546c-0.998-0.999-2.91-0.708-4.268,0.65L158.531,112.915z"/>
	<path style="fill:none;stroke:#FFFFFF;stroke-width:10;stroke-miterlimit:10;" d="M128.355,128.829
		c1.855,0.499,3.657-0.206,4.022-1.57l7.888-29.436c0.364-1.363-0.843-2.873-2.697-3.369L86.608,80.799
		c-1.856-0.497-3.656,0.207-4.022,1.57l-7.887,29.435c-0.366,1.365,0.841,2.875,2.697,3.372L128.355,128.829z"/>
	<g>
		<g>
			<path style="fill:#FFFFFF;" d="M149.938,133.278c0.56-2.09,1.12-4.18,1.68-6.27c-2.786,0.735-5.571,1.471-8.357,2.207
				c1.53,1.53,3.06,3.06,4.59,4.59c0.735-2.786,1.471-5.571,2.207-8.357c-2.09,0.56-4.18,1.12-6.27,1.68
				c-2.631,0.705-4.211,3.537-3.492,6.15c0.726,2.639,3.52,4.197,6.15,3.492c2.09-0.56,4.18-1.12,6.27-1.68
				c3.642-0.976,4.853-5.71,2.207-8.357c-1.53-1.53-3.06-3.06-4.59-4.59c-2.647-2.646-7.381-1.436-8.357,2.207
				c-0.56,2.09-1.12,4.18-1.68,6.27c-0.705,2.631,0.853,5.424,3.492,6.15C146.4,137.489,149.232,135.91,149.938,133.278z"/>
		</g>
	</g>
	<g>
		<g>
			<g>
				<path style="fill:#FFFFFF;" d="M241.275,228.957c0-9.88,0-19.76,0-29.64c0-6.245,0-12.491,0-18.736c0-1.511,0-3.021,0-4.532
					c0-2.692,3.229-1.898,5.123-1.898c1.231,0,4.694-0.571,4.694,1.476c0,1.488,0,2.976,0,4.464c0,6.179,0,12.359,0,18.539
					c0,10.109,0,20.219,0,30.328c0,4.514,7,4.514,7,0c0-11.729,0-23.457,0-35.186c0-5.797,0-11.594,0-17.391
					c0-6.473-4.819-9.23-10.74-9.23c-6.26,0-13.077,1.09-13.077,9.111c0,5.421,0,10.842,0,16.264c0,12.144,0,24.288,0,36.432
					C234.275,233.471,241.275,233.471,241.275,228.957L241.275,228.957z"/>
			</g>
		</g>
		<g>
			<g>
				<path style="fill:#FFFFFF;" d="M225.566,259.011c0-11.066,0-22.134,0-33.2c0-7.314,0-14.63,0-21.944
					c0-4.868-0.457-10.225,0.397-14.995c0.455-2.54,5.475-1.3,7.748-1.3c2.685,0,0.563-0.036,0.563-1.077c0,0.646,0,1.294,0,1.941
					c0,6.184,0,12.368,0,18.552c0,11.797,0,23.595,0,35.392c0,4.514,7,4.514,7,0c0-11.797,0-23.595,0-35.392
					c0-6.184,0-12.368,0-18.552c0-1.515-0.022-2.697-0.428-4.196c-1.079-3.989-5.771-3.668-8.954-3.668
					c-3.148,0-6.249-0.352-9.173,0.963c-4.433,1.992-4.11,9.637-4.152,13.472c-0.042,3.904-0.002,7.811-0.002,11.715
					c0,15.005,0,30.011,0,45.016c0,2.425,0,4.85,0,7.274C218.566,263.524,225.566,263.524,225.566,259.011L225.566,259.011z"/>
			</g>
		</g>
		<g>
			<g>
				<path style="fill:#FFFFFF;" d="M258.093,238.867c0-9.843,0-19.686,0-29.529c0-6.469,0-12.938,0-19.406c0-1.919,0-3.838,0-5.757
					c0-0.436,0-0.871,0-1.306c0,0.182-2.004,1.191-0.732,1.191c0.746,0,1.493,0,2.24,0c5.345,0,6.646,0.553,6.646,5.336
					c0,6.075,0,12.149,0,18.224c0,10.416,0,20.831,0,31.247c0,4.514,7,4.514,7,0c0-12.002,0-24.003,0-36.005
					c0-10.291,3.011-25.802-11.811-25.802c-5.726,0-10.344,0.753-10.344,7.47c0,5.997,0,11.994,0,17.99c0,12.108,0,24.216,0,36.323
					c0,0.008,0,0.016,0,0.023C251.093,243.381,258.093,243.381,258.093,238.867L258.093,238.867z"/>
			</g>
		</g>
		<g>
			<g>
				<path style="fill:#FFFFFF;" d="M273.247,245.242c0-12.409,0-24.817,0-37.227c0-2.508,0-5.017,0-7.524c0-0.523,0-1.046,0-1.569
					c0,0.33-2.021,1.17-0.597,1.17c1.112,0,2.225,0,3.337,0c3.474,0,2.642,5.424,2.642,8.125c0,26.146,0,52.29,0,78.435
					c0,0.505,0,1.009,0,1.514c0,4.514,7,4.514,7,0c0-24.866,0-49.732,0-74.598c0-2.887,0-5.772,0-8.659
					c0-3.095-0.473-6.744-2.596-9.154c-2.607-2.96-6.063-2.662-9.661-2.662c-6.621,0-7.125,4.733-7.125,9.928
					c0,7.328,0,14.656,0,21.984c0,6.746,0,13.492,0,20.238C266.247,249.756,273.247,249.756,273.247,245.242L273.247,245.242z"/>
			</g>
		</g>
		<g>
			<g>
				<path style="fill:#FFFFFF;" d="M213.084,288.343c-4.123-17.511-8.247-35.021-12.37-52.532c-0.769-3.265-1.662-4.899,2.263-6.16
					c1.466-0.47,5.149-2.109,5.794-0.105c0.5,1.556,1,3.111,1.499,4.667c2.784,8.664,5.568,17.328,8.352,25.992
					c1.375,4.279,8.135,2.449,6.75-1.861c-3.115-9.694-6.229-19.39-9.345-29.084c-1.872-5.826-5.823-8.204-12.062-7.229
					c-5.899,0.922-12.522,4.937-10.902,11.815c4.424,18.786,8.848,37.573,13.271,56.359
					C207.368,294.597,214.118,292.733,213.084,288.343L213.084,288.343z"/>
			</g>
		</g>
	</g>
</g>
<g id="Ebene_1">
</g>
</svg>
