<?xml version="1.0" encoding="iso-8859-1"?>
<!-- Generator: Adobe Illustrator 16.0.0, SVG Export Plug-In . SVG Version: 6.00 Build 0)  -->
<!DOCTYPE svg PUBLIC "-//W3C//DTD SVG 1.1 Tiny//EN" "http://www.w3.org/Graphics/SVG/1.1/DTD/svg11-tiny.dtd">
<svg version="1.1" baseProfile="tiny" id="vent_x5F_ventilation_x5F_control"
	 xmlns="http://www.w3.org/2000/svg" xmlns:xlink="http://www.w3.org/1999/xlink" x="0px" y="0px" width="361px" height="361px"
	 viewBox="0 0 361 361" xml:space="preserve">
<path fill="none" stroke="#FFFFFF" stroke-width="10" stroke-miterlimit="10" d="M169.799,241.789
	c-0.382-1.425-1.542-2.355-2.591-2.074l-22.63,6.063c-1.048,0.28-1.588,1.666-1.206,3.092l10.497,39.177
	c0.383,1.426,1.543,2.356,2.593,2.075l22.629-6.063c1.048-0.282,1.588-1.667,1.206-3.093L169.799,241.789z"/>
<path fill="none" stroke="#FFFFFF" stroke-width="10" stroke-miterlimit="10" d="M170.887,215.628
	c-1.043,1.044-1.269,2.514-0.501,3.281l16.566,16.567c0.767,0.767,2.237,0.543,3.282-0.501l28.679-28.68
	c1.043-1.044,1.268-2.514,0.5-3.282l-16.566-16.565c-0.767-0.768-2.237-0.544-3.28,0.5L170.887,215.628z"/>
<path fill="none" stroke="#FFFFFF" stroke-width="10" stroke-miterlimit="10" d="M147.688,227.862
	c1.427,0.383,2.812-0.159,3.092-1.207l6.064-22.63c0.28-1.048-0.648-2.208-2.074-2.59l-39.177-10.498
	c-1.427-0.382-2.811,0.159-3.092,1.208l-6.063,22.629c-0.281,1.049,0.647,2.21,2.074,2.592L147.688,227.862z"/>
<g>
	<path fill="#FFFFFF" d="M165.395,231.59c0.431-1.606,0.861-3.213,1.292-4.82c-2.786,0.735-5.571,1.471-8.357,2.207
		c1.176,1.176,2.353,2.353,3.528,3.529c0.735-2.786,1.471-5.571,2.207-8.357c-1.607,0.43-3.214,0.861-4.82,1.292
		c-2.631,0.705-4.211,3.537-3.492,6.15c0.726,2.64,3.52,4.197,6.15,3.492c1.607-0.43,3.214-0.861,4.82-1.292
		c3.643-0.976,4.853-5.71,2.207-8.357c-1.176-1.176-2.353-2.353-3.528-3.529c-2.647-2.647-7.381-1.436-8.357,2.207
		c-0.431,1.606-0.861,3.213-1.292,4.82c-0.705,2.631,0.853,5.424,3.492,6.15C161.858,235.801,164.69,234.222,165.395,231.59z"/>
</g>
<g>
	<g>
		<path fill="#FFFFFF" d="M76.855,164.462c15.77-35.481,45.484-61.806,82.354-73.811c39.982-13.018,84.019-7.971,122.167,8.59
			c5.852,2.541,10.949-6.073,5.047-8.635c-40.863-17.74-86.938-23.159-129.873-9.598c-39.155,12.367-71.634,40.84-88.33,78.406
			C65.625,165.253,74.24,170.346,76.855,164.462L76.855,164.462z"/>
	</g>
	<g>
		<path fill="#FFFFFF" d="M76.02,165.507c26.971-26.788,63.205-41.83,101.209-42.087c38.527-0.261,75.738,15.62,103.047,42.59
			c4.591,4.533,11.665-2.535,7.071-7.071c-29.012-28.651-67.952-45.045-108.745-45.515c-40.924-0.472-80.708,16.263-109.654,45.012
			C64.368,162.984,71.441,170.054,76.02,165.507L76.02,165.507z"/>
	</g>
	<g>
		<path fill="#FFFFFF" d="M278.9,95.82c0,22.218,0,44.436,0,66.654c0,6.449,10,6.449,10,0c0-22.218,0-44.436,0-66.654
			C288.9,89.371,278.9,89.371,278.9,95.82L278.9,95.82z"/>
	</g>
	<g>
		<path fill="#FFFFFF" d="M84.599,198.068c-4.742,0-9.484,0-14.227,0c1.167,1.167,2.333,2.333,3.5,3.5c0-7.452,0-14.904,0-22.356
			c-1.167,1.167-2.333,2.333-3.5,3.5c4.742,0,9.484,0,14.227,0c-1.167-1.167-2.333-2.333-3.5-3.5c0,7.452,0,14.904,0,22.356
			c0,4.514,7,4.514,7,0c0-7.452,0-14.904,0-22.356c0-1.908-1.592-3.5-3.5-3.5c-4.742,0-9.484,0-14.227,0c-1.908,0-3.5,1.592-3.5,3.5
			c0,7.452,0,14.904,0,22.356c0,1.908,1.592,3.5,3.5,3.5c4.742,0,9.484,0,14.227,0C89.113,205.068,89.113,198.068,84.599,198.068z"
			/>
	</g>
	<g>
		<path fill="#FFFFFF" d="M285.981,198.831c-4.742,0-9.484,0-14.227,0c1.167,1.167,2.333,2.333,3.5,3.5c0-7.452,0-14.904,0-22.356
			c-1.167,1.167-2.333,2.333-3.5,3.5c4.742,0,9.484,0,14.227,0c-1.167-1.167-2.333-2.333-3.5-3.5c0,7.452,0,14.904,0,22.356
			c0,4.514,7,4.514,7,0c0-7.452,0-14.904,0-22.356c0-1.908-1.592-3.5-3.5-3.5c-4.742,0-9.484,0-14.227,0c-1.908,0-3.5,1.592-3.5,3.5
			c0,7.452,0,14.904,0,22.356c0,1.908,1.592,3.5,3.5,3.5c4.742,0,9.484,0,14.227,0C290.496,205.831,290.496,198.831,285.981,198.831
			z"/>
	</g>
	<g>
		<path fill="#FFFFFF" d="M263.117,198.831c-4.742,0-9.484,0-14.227,0c1.167,1.167,2.333,2.333,3.5,3.5c0-7.452,0-14.904,0-22.356
			c-1.167,1.167-2.333,2.333-3.5,3.5c4.742,0,9.484,0,14.227,0c-1.167-1.167-2.333-2.333-3.5-3.5c0,7.452,0,14.904,0,22.356
			c0,4.514,7,4.514,7,0c0-7.452,0-14.904,0-22.356c0-1.908-1.592-3.5-3.5-3.5c-4.742,0-9.484,0-14.227,0c-1.908,0-3.5,1.592-3.5,3.5
			c0,7.452,0,14.904,0,22.356c0,1.908,1.592,3.5,3.5,3.5c4.742,0,9.484,0,14.227,0C267.631,205.831,267.631,198.831,263.117,198.831
			z"/>
	</g>
	<g>
		<path fill="#FFFFFF" d="M236.752,179.656c0,7.685,0,15.37,0,23.055c0,4.514,7,4.514,7,0c0-7.685,0-15.37,0-23.055
			C243.752,175.142,236.752,175.142,236.752,179.656L236.752,179.656z"/>
	</g>
</g>
</svg>
