<?xml version="1.0" encoding="iso-8859-1"?>
<!-- Generator: Adobe Illustrator 16.0.0, SVG Export Plug-In . SVG Version: 6.00 Build 0)  -->
<!DOCTYPE svg PUBLIC "-//W3C//DTD SVG 1.1//EN" "http://www.w3.org/Graphics/SVG/1.1/DTD/svg11.dtd">
<svg version="1.1" xmlns="http://www.w3.org/2000/svg" xmlns:xlink="http://www.w3.org/1999/xlink" x="0px" y="0px" width="361px"
	 height="361px" viewBox="0 0 361 361" style="enable-background:new 0 0 361 361;" xml:space="preserve">
<g id="vent_x5F_ventilation">
	<path style="fill:none;stroke:#FFFFFF;stroke-width:10;stroke-miterlimit:10;" d="M193.252,187.957
		c-0.713-2.662-2.88-4.398-4.838-3.873l-42.253,11.322c-1.957,0.523-2.966,3.108-2.252,5.773l19.6,73.148
		c0.715,2.662,2.88,4.397,4.839,3.871l42.252-11.32c1.957-0.525,2.967-3.111,2.254-5.773L193.252,187.957z"/>
	<path style="fill:none;stroke:#FFFFFF;stroke-width:10;stroke-miterlimit:10;" d="M195.281,139.111
		c-1.948,1.949-2.367,4.693-0.935,6.126l30.931,30.932c1.434,1.432,4.178,1.015,6.127-0.935l53.549-53.549
		c1.948-1.949,2.367-4.693,0.934-6.126l-30.932-30.93c-1.432-1.434-4.176-1.016-6.125,0.934L195.281,139.111z"/>
	<path style="fill:none;stroke:#FFFFFF;stroke-width:10;stroke-miterlimit:10;" d="M151.967,161.954
		c2.664,0.716,5.249-0.295,5.773-2.254l11.322-42.253c0.523-1.957-1.209-4.124-3.872-4.837L92.041,93.008
		c-2.664-0.711-5.248,0.298-5.773,2.255l-11.322,42.252c-0.525,1.959,1.209,4.126,3.873,4.839L151.967,161.954z"/>
	<g>
		<g>
			<path style="fill:#FFFFFF;" d="M174.781,174.764c2.083-7.772,4.166-15.545,6.249-23.318c-2.786,0.735-5.572,1.471-8.357,2.207
				c5.69,5.69,11.38,11.38,17.07,17.07c0.735-2.786,1.471-5.571,2.206-8.357c-7.772,2.083-15.545,4.165-23.318,6.248
				c-6.223,1.667-3.579,11.314,2.658,9.643c7.773-2.083,15.545-4.165,23.318-6.248c3.643-0.976,4.854-5.71,2.206-8.357
				c-5.689-5.69-11.38-11.38-17.069-17.07c-2.647-2.646-7.381-1.436-8.357,2.207c-2.083,7.772-4.166,15.545-6.248,23.318
				C163.467,178.343,173.113,180.987,174.781,174.764z"/>
		</g>
	</g>
</g>
<g id="Ebene_1">
</g>
</svg>
