<?xml version="1.0" encoding="iso-8859-1"?>
<!-- Generator: Adobe Illustrator 16.0.3, SVG Export Plug-In . SVG Version: 6.00 Build 0)  -->
<!DOCTYPE svg PUBLIC "-//W3C//DTD SVG 1.1//EN" "http://www.w3.org/Graphics/SVG/1.1/DTD/svg11.dtd">
<svg version="1.1" xmlns="http://www.w3.org/2000/svg" xmlns:xlink="http://www.w3.org/1999/xlink" x="0px" y="0px" width="361px"
	 height="361px" viewBox="0 0 361 361" style="enable-background:new 0 0 361 361;" xml:space="preserve">
<g id="vent_x5F_humidifier">
	<g id="Abluft_21_" style="display:none;">
		<g style="display:inline;">
			<g>
				<path style="fill:#FFFFFF;" d="M90.131,268.935c0.141-0.066,0.282-0.133,0.422-0.198c1.179-0.488,2.357-0.977,3.536-1.465
					c-6.018,0-12.036,0-18.053,0c1.179,0.488,2.357,0.977,3.536,1.465c0.767,0.665,0.424-1.665,0.424-2.077c0-2.507,0-5.013,0-7.52
					c0-7.579,0-15.157,0-22.736s0-15.157,0-22.736c0-2.369,0-4.738,0-7.107c0-0.437,0.345-3.153-0.424-2.487
					c-1.179,0.488-2.357,0.977-3.536,1.465c6.018,0,12.036,0,18.053,0c-1.179-0.488-2.357-0.977-3.536-1.465
					c-0.767-0.663-0.422,1.659-0.422,2.075c0,2.265,0,4.529,0,6.794c0,7.488,0,14.978,0,22.466
					C90.131,246.583,90.131,257.759,90.131,268.935c0,6.448,10,6.448,10,0c0-11.176,0-22.352,0-33.527c0-7.488,0-14.978,0-22.466
					c0-3.59,0.782-8.555-0.321-12.082c-2.383-7.625-12.185-5.322-18.511-5.322c-2.303,0-5.692-0.544-7.787,0.683
					c-2.972,1.741-3.517,5.187-3.517,8.354c0,12.917,0,25.835,0,38.753c0,6.194,0,12.39,0,18.584c0,2.992-0.592,7.108,0.321,10.037
					c2.209,7.083,9.781,5.323,15.712,5.323c2.599,0,5.199,0,7.798,0c4.756,0,5.979-4.474,6.305-8.337
					C100.674,262.506,90.67,262.558,90.131,268.935z"/>
			</g>
		</g>
		<g style="display:inline;">
			<g>
				<path style="fill:#FFFFFF;" d="M93.053,190.655c22.023,16.833,44.047,33.665,66.071,50.498c0-2.878,0-5.757,0-8.635
					c-22.024,16.833-44.048,33.665-66.071,50.498c2.508,1.439,5.016,2.878,7.523,4.317c0-33.665,0-67.331,0-100.996
					c0-6.449-10-6.449-10,0c0,33.665,0,67.331,0,100.996c0,3.436,4.397,6.707,7.523,4.317
					c22.024-16.833,44.048-33.665,66.071-50.498c3.178-2.429,3.178-6.206,0-8.635c-22.023-16.833-44.047-33.665-66.071-50.498
					C92.974,178.103,88.003,186.796,93.053,190.655z"/>
			</g>
		</g>
	</g>
	<g>
		<g>
			<path style="fill:#FFFFFF;" d="M251.833,286.334c0-36.111,0-72.223,0-108.333c0-6.449-10-6.449-10,0c0,36.111,0,72.222,0,108.333
				C241.833,292.782,251.833,292.782,251.833,286.334L251.833,286.334z"/>
		</g>
	</g>
	<g>
		<g>
			<path style="fill:#FFFFFF;" d="M251.833,120.001c0-6.956,0-13.911,0-20.866c0-6.449-10-6.449-10,0c0,6.956,0,13.911,0,20.866
				C241.833,126.45,251.833,126.45,251.833,120.001L251.833,120.001z"/>
		</g>
	</g>
	<g>
		<g>
			<path style="fill:#FFFFFF;" d="M288.759,113.632c-28.202-14.46-56.405-28.92-84.608-43.38c-5.727-2.936-10.787,5.692-5.047,8.635
				c28.203,14.46,56.405,28.92,84.608,43.38C289.438,125.203,294.499,116.575,288.759,113.632L288.759,113.632z"/>
		</g>
	</g>
	<g>
		<g>
			<path style="fill:#FFFFFF;" d="M136.833,150.984c6.2-1.85,12.492-3.471,18.851-4.672c8.5-1.605,15.959,0.971,23.905,3.886
				c10.954,4.018,22.235,10.623,34.065,11.009c7.296,0.238,15.346-3.587,21.991-6.186c4.038-1.579,8.011-3.305,12.074-4.823
				c7.977-2.98,15.38-5.382,23.906-3.886c6.361,1.116,12.664,2.827,18.851,4.672c1.858,0.555,2.646-2.341,0.797-2.893
				c-6.2-1.85-12.491-3.471-18.851-4.673c-7.98-1.507-14.637,0.111-22.247,2.718c-11.71,4.011-24.009,11.662-36.521,12.07
				c-7.452,0.243-15.945-3.972-22.727-6.689c-4.586-1.838-9.129-3.741-13.794-5.38c-7.143-2.51-13.599-4.118-21.125-2.915
				c-6.746,1.079-13.432,2.918-19.974,4.87C134.186,148.643,134.974,151.539,136.833,150.984L136.833,150.984z"/>
		</g>
	</g>
	<g>
		<g>
			<path style="fill:#FFFFFF;" d="M144.425,159.588c6.024-2.177,12.932-4.321,19.379-3.757c6.911,0.605,13.977,3.766,20.365,6.296
				c9.375,3.713,19.262,8.915,29.485,9.248c6.396,0.208,13.369-2.933,19.231-5.123c3.208-1.198,6.352-2.547,9.524-3.832
				c6.354-2.575,12.89-5.027,19.629-6.363c6.764-1.341,14.501,1.237,20.846,3.53c1.823,0.659,2.602-2.24,0.797-2.893
				c-5.921-2.14-12.23-3.792-18.546-3.964c-6.732-0.185-14.043,3.152-20.203,5.492c-9.988,3.794-20.465,9.8-31.278,10.152
				c-6.682,0.218-14.219-3.385-20.328-5.741c-3.364-1.297-6.668-2.743-10.026-4.056c-6.488-2.538-13.35-5.21-20.343-5.822
				c-6.329-0.554-13.449,1.813-19.33,3.939C141.822,157.348,142.601,160.247,144.425,159.588L144.425,159.588z"/>
		</g>
	</g>
	<g>
		<g>
			<path style="fill:#FFFFFF;" d="M144.542,139.316c6.024-2.177,12.932-4.322,19.379-3.758c6.912,0.605,13.978,3.767,20.365,6.297
				c9.375,3.713,19.262,8.914,29.485,9.248c6.396,0.208,13.369-2.933,19.231-5.122c3.207-1.198,6.351-2.547,9.523-3.832
				c6.354-2.575,12.89-5.027,19.63-6.363c6.764-1.341,14.502,1.238,20.846,3.531c1.823,0.659,2.602-2.24,0.797-2.893
				c-5.921-2.141-12.23-3.792-18.546-3.965c-6.732-0.185-14.043,3.152-20.203,5.492c-9.988,3.794-20.465,9.799-31.278,10.152
				c-6.682,0.218-14.219-3.384-20.328-5.74c-3.364-1.297-6.668-2.743-10.026-4.056c-6.488-2.537-13.35-5.21-20.343-5.822
				c-6.329-0.554-13.449,1.814-19.33,3.939C141.939,137.076,142.718,139.976,144.542,139.316L144.542,139.316z"/>
		</g>
	</g>
	<g>
		<g>
			<path style="fill:#FFFFFF;" d="M77.519,107.922c18.877-9.678,37.754-19.357,56.631-29.035c5.74-2.943,0.68-11.571-5.047-8.635
				c-18.877,9.678-37.754,19.357-56.631,29.035C66.731,102.23,71.792,110.858,77.519,107.922L77.519,107.922z"/>
		</g>
	</g>
	<path style="fill:none;stroke:#FFFFFF;stroke-width:3;stroke-miterlimit:10;" d="M142.37,201.952c0,3.278-2.658,5.936-5.936,5.936
		s-5.935-2.657-5.935-5.936c0-1.253,0.44-2.277,0.831-3.375c0.697-1.953,3.081-8.837,5.104-8.837c2.029,0,4.519,7.16,5.112,8.848
		C141.931,199.684,142.37,200.703,142.37,201.952z"/>
	<path style="fill:none;stroke:#FFFFFF;stroke-width:3;stroke-miterlimit:10;" d="M131.332,220.989c0,3.278-2.658,5.937-5.936,5.937
		c-3.278,0-5.936-2.658-5.936-5.937c0-1.253,0.44-2.276,0.832-3.374c0.696-1.953,3.08-8.837,5.104-8.837
		c2.029,0,4.519,7.159,5.112,8.849C130.894,218.721,131.332,219.741,131.332,220.989z"/>
	<path style="fill:none;stroke:#FFFFFF;stroke-width:7;stroke-miterlimit:10;" d="M189.137,249c1.822,0,3.301,1.764,3.301,3.936
		v31.156c0,2.172-1.479,3.934-3.301,3.934H76.116c-1.821,0-3.3-1.762-3.3-3.934v-31.156c0-2.172,1.479-3.936,3.3-3.936H189.137z"/>
	<g>
		<g>
			<g>
				<path style="fill:#FFFFFF;" d="M90.61,122.285c3.255,10.628,1.836,20.408-2.95,30.318c-2.589,5.361-5.073,10.538-6.553,16.372
					c-2.423,9.548-0.638,19.26,3.193,28.178c2.616,6.09,5.729,11.606,7.397,18.127c1.118,4.37,7.869,2.516,6.75-1.861
					c-1.492-5.833-3.911-11.095-6.583-16.438c-5.314-10.621-6.04-21.286-2.091-32.444c1.667-4.71,4.347-9.038,6.248-13.659
					c4.113-9.997,4.494-20.153,1.339-30.455C96.042,116.121,89.285,117.957,90.61,122.285L90.61,122.285z"/>
			</g>
		</g>
		<g>
			<g>
				<path style="fill:#FFFFFF;" d="M102.458,133.417c0.123,3.463,0.688,7.191-0.136,10.6c-0.846,3.497-2.253,7.039-3.879,10.25
					c-3.837,7.576-6.627,15.483-6.874,24.055c-0.242,8.407,3.109,17.134,7.064,24.422c5.719,10.539,6.938,21.602,3.115,32.975
					c-1.442,4.291,5.319,6.116,6.75,1.861c3.852-11.457,3.145-22.224-1.472-33.339c-2.974-7.163-6.625-13.49-8.098-21.295
					c-1.688-8.939,1.939-17.779,5.794-25.622c1.899-3.865,3.524-8.034,4.536-12.216c0.911-3.764,0.335-7.88,0.2-11.69
					C109.298,128.917,102.298,128.901,102.458,133.417L102.458,133.417z"/>
			</g>
		</g>
		<g style="display:none;">
			<g style="display:inline;">
				<path style="fill:#FFFFFF;" d="M78.963,122.285c3.398,11.095,1.727,21.736-3.753,31.871c-3.769,6.97-6.231,14.54-6.886,22.45
					c-0.722,8.722,2.641,18.289,6.846,25.826c5.889,10.555,7.132,21.84,3.284,33.286c-1.442,4.291,5.319,6.116,6.75,1.861
					c3.936-11.706,3.141-22.901-1.824-34.176c-3.636-8.256-7.812-15.724-8.105-25.082c-0.261-8.33,3.705-15.811,7.208-23.065
					c5.436-11.256,6.912-22.812,3.23-34.833C84.396,116.121,77.638,117.957,78.963,122.285L78.963,122.285z"/>
			</g>
		</g>
	</g>
	<path style="fill:none;stroke:#FFFFFF;stroke-width:3;stroke-miterlimit:10;" d="M125.396,192.879c0,3.277-2.658,5.936-5.936,5.936
		s-5.935-2.658-5.935-5.936c0-1.254,0.44-2.277,0.831-3.375c0.697-1.953,3.081-8.837,5.104-8.837c2.029,0,4.519,7.159,5.112,8.848
		C124.958,190.61,125.396,191.629,125.396,192.879z"/>
</g>
<g id="Ebene_1">
</g>
</svg>
