<?xml version="1.0" encoding="iso-8859-1"?>
<!-- Generator: Adobe Illustrator 16.0.0, SVG Export Plug-In . SVG Version: 6.00 Build 0)  -->
<!DOCTYPE svg PUBLIC "-//W3C//DTD SVG 1.1 Tiny//EN" "http://www.w3.org/Graphics/SVG/1.1/DTD/svg11-tiny.dtd">
<svg version="1.1" baseProfile="tiny" id="vent_x5F_ambient_x5F_air"
	 xmlns="http://www.w3.org/2000/svg" xmlns:xlink="http://www.w3.org/1999/xlink" x="0px" y="0px" width="361px" height="361px"
	 viewBox="0 0 361 361" xml:space="preserve">
<g id="sani_x5F_lueftung_x5F_nv_Kopie_Kopie_2_Kopie_Kopie_Kopie" display="none">
	<path display="inline" fill="none" stroke="#FFFFFF" stroke-width="10" stroke-miterlimit="10" d="M192.393,207.395
		c-2.693-0.721-4.29-3.487-3.568-6.179l4.352-16.245c0.722-2.69,3.489-4.289,6.178-3.567l81.228,21.763
		c2.691,0.722,4.29,3.489,3.567,6.182l-9.794,36.55c-0.722,2.691-3.488,4.289-6.18,3.569L192.393,207.395z"/>
	<path display="inline" fill="none" stroke="#FFFFFF" stroke-width="10" stroke-miterlimit="10" d="M180.086,167.67
		c0.722,2.691-0.876,5.458-3.568,6.18l-16.246,4.353c-2.689,0.72-5.457-0.877-6.178-3.568L132.33,93.408
		c-0.722-2.691,0.876-5.457,3.567-6.179l36.553-9.794c2.69-0.723,5.458,0.876,6.178,3.567L180.086,167.67z"/>
	<path display="inline" fill="none" stroke="#FFFFFF" stroke-width="10" stroke-miterlimit="10" d="M151.757,198.246
		c1.97-1.969,5.164-1.971,7.135,0l11.892,11.893c1.969,1.971,1.97,5.165,0,7.136l-59.461,59.461c-1.971,1.97-5.164,1.969-7.135,0
		L77.43,249.978c-1.971-1.971-1.971-5.166-0.001-7.135L151.757,198.246z"/>
</g>
<g id="Zuluft_3_" display="none">
	<g display="inline">
		<path fill="#FFFFFF" d="M133.994,271.813c0.351,4.154,1.696,8.336,6.619,8.336c3.457,0,6.914,0,10.371,0c2.369,0,4.737,0,7.105,0
			c4.56,0,6.041-4.951,6.041-8.653c0-12.392,0-24.785,0-37.177c0-7.061,0-14.121,0-21.181c0-4.118,0.876-10.327-2.505-13.26
			c-2.231-1.935-5.188-1.464-7.932-1.464c-3.842,0-7.684,0-11.525,0c-6.444,0-8.174,4.386-8.174,10.229
			C133.994,229.7,133.994,250.756,133.994,271.813c0,6.449,10,6.449,10,0c0-10.844,0-21.688,0-32.531c0-7.579,0-15.157,0-22.736
			c0-2.369,0-4.738,0-7.107c0-0.436,0.344-3.151-0.422-2.487c-1.179,0.488-2.357,0.976-3.536,1.464c6.018,0,12.036,0,18.053,0
			c-1.179-0.488-2.357-0.976-3.536-1.464c-0.768-0.666-0.424,1.661-0.424,2.075c0,2.507,0,5.014,0,7.52c0,7.579,0,15.158,0,22.736
			s0,15.157,0,22.736c0,2.369,0,4.738,0,7.107c0,0.434-0.343,3.154,0.424,2.488c1.179-0.488,2.357-0.976,3.536-1.464
			c-6.018,0-12.036,0-18.053,0c1.179,0.488,2.357,0.977,3.536,1.464c0.141,0.066,0.282,0.133,0.422,0.199
			C143.455,265.436,133.45,265.383,133.994,271.813z"/>
	</g>
	<g display="inline">
		<path fill="#FFFFFF" d="M136.025,184.898c-22.024,16.833-44.048,33.666-66.071,50.499c-3.178,2.429-3.178,6.206,0,8.635
			c22.023,16.833,44.047,33.665,66.071,50.498c3.126,2.39,7.523-0.882,7.523-4.317c0-33.666,0-67.331,0-100.996
			c0-6.449-10-6.449-10,0c0,33.666,0,67.331,0,100.996c2.508-1.439,5.016-2.878,7.523-4.317
			C119.048,269.062,97.024,252.229,75,235.397c0,2.878,0,5.756,0,8.635c22.024-16.833,44.048-33.666,66.071-50.499
			C146.122,189.673,141.15,180.981,136.025,184.898z"/>
	</g>
</g>
<g id="Abluft_3_">
	<g>
		<path fill="#FFFFFF" d="M258.994,271.813c0.351,4.154,1.696,8.336,6.619,8.336c3.457,0,6.914,0,10.371,0c2.369,0,4.737,0,7.105,0
			c4.56,0,6.041-4.951,6.041-8.653c0-12.392,0-24.785,0-37.177c0-7.061,0-14.121,0-21.181c0-4.118,0.876-10.327-2.505-13.26
			c-2.231-1.935-5.188-1.464-7.932-1.464c-3.842,0-7.684,0-11.525,0c-6.444,0-8.174,4.386-8.174,10.229
			C258.994,229.7,258.994,250.756,258.994,271.813c0,6.449,10,6.449,10,0c0-10.844,0-21.688,0-32.531c0-7.579,0-15.157,0-22.736
			c0-2.369,0-4.738,0-7.107c0-0.436,0.344-3.151-0.422-2.487c-1.179,0.488-2.357,0.976-3.536,1.464c6.018,0,12.036,0,18.053,0
			c-1.179-0.488-2.357-0.976-3.536-1.464c-0.768-0.666-0.424,1.661-0.424,2.075c0,2.507,0,5.014,0,7.52c0,7.579,0,15.158,0,22.736
			s0,15.157,0,22.736c0,2.369,0,4.738,0,7.107c0,0.434-0.343,3.154,0.424,2.488c1.179-0.488,2.357-0.976,3.536-1.464
			c-6.018,0-12.036,0-18.053,0c1.179,0.488,2.357,0.976,3.536,1.464c0.141,0.066,0.282,0.133,0.422,0.199
			C268.455,265.436,258.45,265.383,258.994,271.813z"/>
	</g>
	<g>
		<path fill="#FFFFFF" d="M261.025,184.898c-22.024,16.833-44.048,33.666-66.071,50.499c-3.178,2.429-3.178,6.206,0,8.635
			c22.023,16.833,44.047,33.665,66.071,50.498c3.126,2.39,7.523-0.882,7.523-4.317c0-33.666,0-67.331,0-100.996
			c0-6.449-10-6.449-10,0c0,33.666,0,67.331,0,100.996c2.508-1.439,5.016-2.878,7.523-4.317
			c-22.023-16.833-44.047-33.665-66.071-50.498c0,2.878,0,5.756,0,8.635c22.024-16.833,44.048-33.666,66.071-50.499
			C271.122,189.673,266.15,180.981,261.025,184.898z"/>
	</g>
</g>
<g>
	<path fill="#FFFFFF" d="M159.315,289.212c0-36.111,0-72.222,0-108.333c0-6.449-10-6.449-10,0c0,36.111,0,72.222,0,108.333
		C149.315,295.661,159.315,295.661,159.315,289.212L159.315,289.212z"/>
</g>
<g>
	<path fill="#FFFFFF" d="M159.315,122.879c0-6.956,0-13.911,0-20.866c0-6.449-10-6.449-10,0c0,6.956,0,13.911,0,20.866
		C149.315,129.328,159.315,129.328,159.315,122.879L159.315,122.879z"/>
</g>
<g>
	<path fill="#FFFFFF" d="M196.241,116.51c-28.203-14.46-56.406-28.92-84.609-43.38c-5.727-2.936-10.787,5.692-5.047,8.635
		c28.203,14.46,56.406,28.92,84.609,43.38C196.92,128.081,201.981,119.453,196.241,116.51L196.241,116.51z"/>
</g>
<g>
	<path fill="#FFFFFF" d="M134.315,153.862c6.2-1.85,12.492-3.471,18.851-4.672c8.5-1.605,15.959,0.971,23.905,3.886
		c10.955,4.018,22.235,10.623,34.065,11.009c7.296,0.238,15.346-3.587,21.991-6.186c4.038-1.579,8.01-3.305,12.074-4.823
		c7.977-2.98,15.379-5.382,23.906-3.886c6.362,1.116,12.664,2.827,18.851,4.672c1.859,0.555,2.647-2.341,0.798-2.893
		c-6.201-1.85-12.492-3.471-18.851-4.673c-7.981-1.507-14.637,0.111-22.247,2.718c-11.71,4.011-24.009,11.662-36.521,12.07
		c-7.452,0.243-15.945-3.971-22.727-6.689c-4.585-1.838-9.129-3.741-13.794-5.38c-7.143-2.51-13.599-4.118-21.125-2.915
		c-6.746,1.079-13.432,2.918-19.974,4.87C131.668,151.521,132.456,154.417,134.315,153.862L134.315,153.862z"/>
</g>
<g>
	<path fill="#FFFFFF" d="M141.907,162.466c6.024-2.177,12.932-4.321,19.379-3.757c6.912,0.605,13.977,3.766,20.365,6.296
		c9.375,3.713,19.262,8.915,29.485,9.248c6.396,0.208,13.369-2.933,19.231-5.123c3.208-1.198,6.351-2.547,9.523-3.832
		c6.354-2.575,12.89-5.027,19.629-6.363c6.765-1.341,14.502,1.237,20.846,3.53c1.824,0.659,2.603-2.24,0.798-2.893
		c-5.921-2.14-12.231-3.792-18.547-3.964c-6.732-0.185-14.043,3.152-20.203,5.492c-9.988,3.794-20.465,9.8-31.278,10.152
		c-6.681,0.218-14.219-3.384-20.329-5.741c-3.364-1.297-6.668-2.743-10.026-4.056c-6.489-2.538-13.351-5.21-20.344-5.822
		c-6.329-0.554-13.449,1.813-19.33,3.939C139.304,160.226,140.083,163.125,141.907,162.466L141.907,162.466z"/>
</g>
<g>
	<path fill="#FFFFFF" d="M142.024,142.194c6.024-2.177,12.932-4.322,19.379-3.758c6.912,0.605,13.978,3.767,20.365,6.297
		c9.375,3.713,19.262,8.915,29.486,9.248c6.396,0.208,13.369-2.933,19.23-5.122c3.208-1.198,6.352-2.547,9.523-3.832
		c6.354-2.575,12.891-5.027,19.63-6.363c6.764-1.341,14.501,1.238,20.845,3.531c1.824,0.659,2.603-2.24,0.798-2.893
		c-5.921-2.141-12.231-3.792-18.546-3.965c-6.733-0.185-14.043,3.152-20.204,5.492c-9.988,3.793-20.464,9.799-31.277,10.152
		c-6.682,0.218-14.219-3.384-20.329-5.74c-3.364-1.297-6.668-2.743-10.026-4.056c-6.488-2.537-13.35-5.21-20.343-5.822
		c-6.329-0.554-13.449,1.814-19.33,3.939C139.421,139.954,140.2,142.854,142.024,142.194L142.024,142.194z"/>
</g>
</svg>
