<?xml version="1.0" encoding="iso-8859-1"?>
<!-- Generator: Adobe Illustrator 16.0.0, SVG Export Plug-In . SVG Version: 6.00 Build 0)  -->
<!DOCTYPE svg PUBLIC "-//W3C//DTD SVG 1.1//EN" "http://www.w3.org/Graphics/SVG/1.1/DTD/svg11.dtd">
<svg version="1.1" xmlns="http://www.w3.org/2000/svg" xmlns:xlink="http://www.w3.org/1999/xlink" x="0px" y="0px" width="361px"
	 height="361px" viewBox="0 0 361 361" style="enable-background:new 0 0 361 361;" xml:space="preserve">
<g id="vent_x5F_air_x5F_filter">
	<g id="Abluft_6_" style="display:none;">
		<g style="display:inline;">
			<g>
				<path style="fill:#FFFFFF;" d="M90.131,268.935c0.141-0.066,0.282-0.133,0.422-0.198c1.179-0.488,2.357-0.977,3.536-1.465
					c-6.018,0-12.036,0-18.053,0c1.179,0.488,2.357,0.977,3.536,1.465c0.767,0.665,0.424-1.665,0.424-2.077c0-2.507,0-5.013,0-7.52
					c0-7.579,0-15.157,0-22.736s0-15.157,0-22.736c0-2.369,0-4.738,0-7.107c0-0.437,0.345-3.153-0.424-2.487
					c-1.179,0.488-2.357,0.977-3.536,1.465c6.018,0,12.036,0,18.053,0c-1.179-0.488-2.357-0.977-3.536-1.465
					c-0.767-0.663-0.422,1.659-0.422,2.075c0,2.265,0,4.529,0,6.794c0,7.488,0,14.978,0,22.466
					C90.131,246.583,90.131,257.759,90.131,268.935c0,6.448,10,6.448,10,0c0-11.176,0-22.352,0-33.527c0-7.488,0-14.978,0-22.466
					c0-3.59,0.782-8.555-0.321-12.082c-2.383-7.625-12.185-5.322-18.511-5.322c-2.303,0-5.692-0.544-7.787,0.683
					c-2.972,1.741-3.517,5.187-3.517,8.354c0,12.917,0,25.835,0,38.753c0,6.194,0,12.39,0,18.584c0,2.992-0.592,7.108,0.321,10.037
					c2.209,7.083,9.781,5.323,15.712,5.323c2.599,0,5.199,0,7.798,0c4.756,0,5.979-4.474,6.305-8.337
					C100.674,262.506,90.67,262.558,90.131,268.935z"/>
			</g>
		</g>
		<g style="display:inline;">
			<g>
				<path style="fill:#FFFFFF;" d="M93.053,190.655c22.023,16.833,44.047,33.665,66.071,50.498c0-2.878,0-5.757,0-8.635
					c-22.024,16.833-44.048,33.665-66.071,50.498c2.508,1.439,5.016,2.878,7.523,4.317c0-33.665,0-67.331,0-100.996
					c0-6.449-10-6.449-10,0c0,33.665,0,67.331,0,100.996c0,3.436,4.397,6.707,7.523,4.317
					c22.024-16.833,44.048-33.665,66.071-50.498c3.178-2.429,3.178-6.206,0-8.635c-22.023-16.833-44.047-33.665-66.071-50.498
					C92.974,178.103,88.003,186.796,93.053,190.655z"/>
			</g>
		</g>
	</g>
	<g>
		<g>
			<path style="fill:#FFFFFF;" d="M136.833,150.984c6.2-1.85,12.492-3.471,18.851-4.672c8.5-1.605,15.959,0.971,23.905,3.886
				c10.954,4.018,22.235,10.623,34.065,11.009c7.296,0.238,15.346-3.587,21.991-6.186c4.038-1.579,8.011-3.305,12.074-4.823
				c7.977-2.98,15.38-5.382,23.906-3.886c6.361,1.116,12.664,2.827,18.851,4.672c1.858,0.555,2.646-2.341,0.797-2.893
				c-6.2-1.85-12.491-3.471-18.851-4.673c-7.98-1.507-14.637,0.111-22.247,2.718c-11.71,4.011-24.009,11.662-36.521,12.07
				c-7.452,0.243-15.945-3.972-22.727-6.689c-4.586-1.838-9.129-3.741-13.794-5.38c-7.143-2.51-13.599-4.118-21.125-2.915
				c-6.746,1.079-13.432,2.918-19.974,4.87C134.186,148.643,134.974,151.539,136.833,150.984L136.833,150.984z"/>
		</g>
	</g>
	<g>
		<g>
			<path style="fill:#FFFFFF;" d="M144.425,159.588c6.024-2.177,12.932-4.321,19.379-3.757c6.911,0.605,13.977,3.766,20.365,6.296
				c9.375,3.713,19.262,8.915,29.485,9.248c6.396,0.208,13.369-2.933,19.231-5.123c3.208-1.198,6.352-2.547,9.524-3.832
				c6.354-2.575,12.89-5.027,19.629-6.363c6.764-1.341,14.501,1.237,20.846,3.53c1.823,0.659,2.602-2.24,0.797-2.893
				c-5.921-2.14-12.23-3.792-18.546-3.964c-6.732-0.185-14.043,3.152-20.203,5.492c-9.988,3.794-20.465,9.8-31.278,10.152
				c-6.682,0.218-14.219-3.385-20.328-5.741c-3.364-1.297-6.668-2.743-10.026-4.056c-6.488-2.538-13.35-5.21-20.343-5.822
				c-6.329-0.554-13.449,1.813-19.33,3.939C141.822,157.348,142.601,160.247,144.425,159.588L144.425,159.588z"/>
		</g>
	</g>
	<g>
		<g>
			<path style="fill:#FFFFFF;" d="M144.542,139.316c6.024-2.177,12.932-4.322,19.379-3.758c6.912,0.605,13.978,3.767,20.365,6.297
				c9.375,3.713,19.262,8.914,29.485,9.248c6.396,0.208,13.369-2.933,19.231-5.122c3.207-1.198,6.351-2.547,9.523-3.832
				c6.354-2.575,12.89-5.027,19.63-6.363c6.764-1.341,14.502,1.238,20.846,3.531c1.823,0.659,2.602-2.24,0.797-2.893
				c-5.921-2.141-12.23-3.792-18.546-3.965c-6.732-0.185-14.043,3.152-20.203,5.492c-9.988,3.794-20.465,9.799-31.278,10.152
				c-6.682,0.218-14.219-3.384-20.328-5.74c-3.364-1.297-6.668-2.743-10.026-4.056c-6.488-2.537-13.35-5.21-20.343-5.822
				c-6.329-0.554-13.449,1.814-19.33,3.939C141.939,137.076,142.718,139.976,144.542,139.316L144.542,139.316z"/>
		</g>
	</g>
	<g style="display:none;">
		<g style="display:inline;">
			<g>
				<path style="fill:#FFFFFF;" d="M106.074,277.078c-0.209,2.072-9.201,1-10.483,1c-7.652,0-15.305,0-22.957,0
					c-2.511,0-30.447,1.195-30.447-1.061c0-18.241,0-36.482,0-54.724c0-31.961,0-63.923,0-95.884c0-11.703,0-23.405,0-35.108
					c0-1.623-1.292-12.72,1.333-12.72c12.677,0,25.354,0,38.031,0c6.579,0,13.158,0,19.737,0c1.559,0,4.785-0.721,4.785,1.533
					c0,19.915,0,39.83,0,59.745C106.074,185.6,106.074,231.339,106.074,277.078c0,6.448,10,6.448,10,0c0-49.353,0-98.705,0-148.058
					c0-12.055,0-24.111,0-36.167c0-5.292,0.952-11.777-0.65-16.937c-2.024-6.52-8.404-7.335-14.135-7.335
					c-6.579,0-13.158,0-19.737,0c-12.677,0-25.354,0-38.031,0c-10.69,0-11.333,9.536-11.333,17.384c0,10.156,0,20.312,0,30.467
					c0,31.582,0,63.163,0,94.745c0,21.48,0,42.96,0,64.44c0,4.769,1.738,8.917,6.141,11.306c3.556,1.93,9.012,1.154,12.9,1.154
					c15.031,0,30.063,0,45.094,0c8.72,0,18.591,0.505,19.751-11C116.721,270.663,106.714,270.726,106.074,277.078z"/>
			</g>
		</g>
		<g style="display:inline;">
			<g>
				<path style="fill:#FFFFFF;" d="M37.452,87.813c24.629,0,49.258,0,73.887,0c1.935,0,1.935-3,0-3c-24.629,0-49.258,0-73.887,0
					C35.517,84.813,35.517,87.813,37.452,87.813L37.452,87.813z"/>
			</g>
		</g>
		<g style="display:inline;">
			<g>
				<path style="fill:#FFFFFF;" d="M37.452,103.815c24.629,0,49.258,0,73.887,0c1.935,0,1.935-3,0-3c-24.629,0-49.258,0-73.887,0
					C35.517,100.815,35.517,103.815,37.452,103.815L37.452,103.815z"/>
			</g>
		</g>
		<g style="display:inline;">
			<g>
				<path style="fill:#FFFFFF;" d="M37.452,119.816c24.629,0,49.258,0,73.887,0c1.935,0,1.935-3,0-3c-24.629,0-49.258,0-73.887,0
					C35.517,116.816,35.517,119.816,37.452,119.816L37.452,119.816z"/>
			</g>
		</g>
		<g style="display:inline;">
			<g>
				<path style="fill:#FFFFFF;" d="M37.452,151.819c24.629,0,49.258,0,73.887,0c1.935,0,1.935-3,0-3c-24.629,0-49.258,0-73.887,0
					C35.517,148.819,35.517,151.819,37.452,151.819L37.452,151.819z"/>
			</g>
		</g>
		<g style="display:inline;">
			<g>
				<path style="fill:#FFFFFF;" d="M37.452,135.818c24.629,0,49.258,0,73.887,0c1.935,0,1.935-3,0-3c-24.629,0-49.258,0-73.887,0
					C35.517,132.818,35.517,135.818,37.452,135.818L37.452,135.818z"/>
			</g>
		</g>
		<g style="display:inline;">
			<g>
				<path style="fill:#FFFFFF;" d="M37.452,167.821c24.629,0,49.258,0,73.887,0c1.935,0,1.935-3,0-3c-24.629,0-49.258,0-73.887,0
					C35.517,164.821,35.517,167.821,37.452,167.821L37.452,167.821z"/>
			</g>
		</g>
		<g style="display:inline;">
			<g>
				<path style="fill:#FFFFFF;" d="M37.452,191.823c24.629,0,49.258,0,73.887,0c1.935,0,1.935-3,0-3c-24.629,0-49.258,0-73.887,0
					C35.517,188.823,35.517,191.823,37.452,191.823L37.452,191.823z"/>
			</g>
		</g>
		<g style="display:inline;">
			<g>
				<path style="fill:#FFFFFF;" d="M37.452,223.826c24.629,0,49.258,0,73.887,0c1.935,0,1.935-3,0-3c-24.629,0-49.258,0-73.887,0
					C35.517,220.826,35.517,223.826,37.452,223.826L37.452,223.826z"/>
			</g>
		</g>
		<g style="display:inline;">
			<g>
				<path style="fill:#FFFFFF;" d="M37.452,199.824c24.629,0,49.258,0,73.887,0c1.935,0,1.935-3,0-3c-24.629,0-49.258,0-73.887,0
					C35.517,196.824,35.517,199.824,37.452,199.824L37.452,199.824z"/>
			</g>
		</g>
		<g style="display:inline;">
			<g>
				<path style="fill:#FFFFFF;" d="M37.452,231.827c24.629,0,49.258,0,73.887,0c1.935,0,1.935-3,0-3c-24.629,0-49.258,0-73.887,0
					C35.517,228.827,35.517,231.827,37.452,231.827L37.452,231.827z"/>
			</g>
		</g>
		<g style="display:inline;">
			<g>
				<path style="fill:#FFFFFF;" d="M37.452,247.829c24.629,0,49.258,0,73.887,0c1.935,0,1.935-3,0-3c-24.629,0-49.258,0-73.887,0
					C35.517,244.829,35.517,247.829,37.452,247.829L37.452,247.829z"/>
			</g>
		</g>
		<g style="display:inline;">
			<g>
				<path style="fill:#FFFFFF;" d="M37.452,263.83c24.629,0,49.258,0,73.887,0c1.935,0,1.935-3,0-3c-24.629,0-49.258,0-73.887,0
					C35.517,260.83,35.517,263.83,37.452,263.83L37.452,263.83z"/>
			</g>
		</g>
		<g style="display:inline;">
			<g>
				<path style="fill:#FFFFFF;" d="M37.452,79.813c24.629,0,49.258,0,73.887,0c1.935,0,1.935-3,0-3c-24.629,0-49.258,0-73.887,0
					C35.517,76.813,35.517,79.813,37.452,79.813L37.452,79.813z"/>
			</g>
		</g>
		<g style="display:inline;">
			<g>
				<path style="fill:#FFFFFF;" d="M37.452,95.814c24.629,0,49.258,0,73.887,0c1.935,0,1.935-3,0-3c-24.629,0-49.258,0-73.887,0
					C35.517,92.814,35.517,95.814,37.452,95.814L37.452,95.814z"/>
			</g>
		</g>
		<g style="display:inline;">
			<g>
				<path style="fill:#FFFFFF;" d="M37.452,111.815c24.629,0,49.258,0,73.887,0c1.935,0,1.935-3,0-3c-24.629,0-49.258,0-73.887,0
					C35.517,108.815,35.517,111.815,37.452,111.815L37.452,111.815z"/>
			</g>
		</g>
		<g style="display:inline;">
			<g>
				<path style="fill:#FFFFFF;" d="M37.452,143.819c24.629,0,49.258,0,73.887,0c1.935,0,1.935-3,0-3c-24.629,0-49.258,0-73.887,0
					C35.517,140.819,35.517,143.819,37.452,143.819L37.452,143.819z"/>
			</g>
		</g>
		<g style="display:inline;">
			<g>
				<path style="fill:#FFFFFF;" d="M37.452,127.817c24.629,0,49.258,0,73.887,0c1.935,0,1.935-3,0-3c-24.629,0-49.258,0-73.887,0
					C35.517,124.817,35.517,127.817,37.452,127.817L37.452,127.817z"/>
			</g>
		</g>
		<g style="display:inline;">
			<g>
				<path style="fill:#FFFFFF;" d="M37.452,159.82c24.629,0,49.258,0,73.887,0c1.935,0,1.935-3,0-3c-24.629,0-49.258,0-73.887,0
					C35.517,156.82,35.517,159.82,37.452,159.82L37.452,159.82z"/>
			</g>
		</g>
		<g style="display:inline;">
			<g>
				<path style="fill:#FFFFFF;" d="M37.452,175.822c24.629,0,49.258,0,73.887,0c1.935,0,1.935-3,0-3c-24.629,0-49.258,0-73.887,0
					C35.517,172.822,35.517,175.822,37.452,175.822L37.452,175.822z"/>
			</g>
		</g>
		<g style="display:inline;">
			<g>
				<path style="fill:#FFFFFF;" d="M37.452,207.825c24.629,0,49.258,0,73.887,0c1.935,0,1.935-3,0-3c-24.629,0-49.258,0-73.887,0
					C35.517,204.825,35.517,207.825,37.452,207.825L37.452,207.825z"/>
			</g>
		</g>
		<g style="display:inline;">
			<g>
				<path style="fill:#FFFFFF;" d="M37.452,183.822c24.629,0,49.258,0,73.887,0c1.935,0,1.935-3,0-3c-24.629,0-49.258,0-73.887,0
					C35.517,180.822,35.517,183.822,37.452,183.822L37.452,183.822z"/>
			</g>
		</g>
		<g style="display:inline;">
			<g>
				<path style="fill:#FFFFFF;" d="M37.452,215.826c24.629,0,49.258,0,73.887,0c1.935,0,1.935-3,0-3c-24.629,0-49.258,0-73.887,0
					C35.517,212.826,35.517,215.826,37.452,215.826L37.452,215.826z"/>
			</g>
		</g>
		<g style="display:inline;">
			<g>
				<path style="fill:#FFFFFF;" d="M37.452,239.828c24.629,0,49.258,0,73.887,0c1.935,0,1.935-3,0-3c-24.629,0-49.258,0-73.887,0
					C35.517,236.828,35.517,239.828,37.452,239.828L37.452,239.828z"/>
			</g>
		</g>
		<g style="display:inline;">
			<g>
				<path style="fill:#FFFFFF;" d="M37.452,255.83c24.629,0,49.258,0,73.887,0c1.935,0,1.935-3,0-3c-24.629,0-49.258,0-73.887,0
					C35.517,252.83,35.517,255.83,37.452,255.83L37.452,255.83z"/>
			</g>
		</g>
		<g style="display:inline;">
			<g>
				<path style="fill:#FFFFFF;" d="M37.452,279.832c24.629,0,49.258,0,73.887,0c1.935,0,1.935-3,0-3c-24.629,0-49.258,0-73.887,0
					C35.517,276.832,35.517,279.832,37.452,279.832L37.452,279.832z"/>
			</g>
		</g>
		<g style="display:inline;">
			<g>
				<path style="fill:#FFFFFF;" d="M37.452,271.831c24.629,0,49.258,0,73.887,0c1.935,0,1.935-3,0-3c-24.629,0-49.258,0-73.887,0
					C35.517,268.831,35.517,271.831,37.452,271.831L37.452,271.831z"/>
			</g>
		</g>
	</g>
	<g>
		<g>
			<path style="fill:#FFFFFF;" d="M240.448,169.661c-7.995,22.067-15.99,44.134-23.985,66.201
				c-4.459,12.307-8.918,24.613-13.377,36.92c-0.727,2.006-1.366,4.164-2.255,6.075c-1.734,3.729-8.934,2.367-12.069,2.367
				c-15.074,0-30.148,0-45.223,0c-2.235,0-4.47,0-6.705,0c-0.548,0-1.096,0-1.644,0c-0.925,0,0.695,0.09,0.641,0.239
				c0.488-1.342,0.977-2.685,1.465-4.026c7.972-21.903,15.944-43.807,23.916-65.709c10.883-29.901,21.767-59.802,32.649-89.704
				c3.734-10.259,7.468-20.519,11.202-30.778c1.226-3.368,2.609-11.871,7.416-11.871c20.262,0,40.524,0,60.786,0
				c2.172,0,0.251-0.083,0.31-0.236c-0.352,0.925-0.703,1.851-1.056,2.775c-1.883,4.953-3.766,9.906-5.648,14.859
				c-3.407,8.959-6.813,17.919-10.22,26.879c-2.296,6.039,7.374,8.625,9.643,2.658c4.386-11.535,8.771-23.07,13.157-34.605
				c1.649-4.339,4.086-8.921,4.338-13.624c0.39-7.243-7.008-8.706-12.5-8.706c-14.464,0-28.929,0-43.393,0
				c-10.486,0-24.563-2.527-29.104,9.947c-17.237,47.36-34.475,94.72-51.712,142.079c-6.85,18.819-13.699,37.639-20.549,56.459
				c-1.769,4.859-0.603,10.813,4.811,12.708c3.69,1.291,8.368,0.655,12.197,0.655c15.075,0,30.149,0,45.223,0
				c4.104,0,8.547,0.459,12.544-0.655c5.505-1.536,8.264-6.407,10.055-11.351c3.831-10.575,7.663-21.15,11.494-31.726
				c8.955-24.715,17.909-49.43,26.863-74.145c0.125-0.343,0.249-0.686,0.373-1.029C252.293,166.242,242.627,163.647,240.448,169.661
				L240.448,169.661z"/>
		</g>
	</g>
	<g>
		<g>
			<path style="fill:#FFFFFF;" d="M201.48,88.75c24.905,0,49.811,0,74.716,0c1.935,0,1.935-3,0-3c-24.905,0-49.811,0-74.716,0
				C199.546,85.75,199.546,88.75,201.48,88.75L201.48,88.75z"/>
		</g>
	</g>
	<g>
		<g>
			<path style="fill:#FFFFFF;" d="M195.59,104.932c24.905,0,49.812,0,74.717,0c1.935,0,1.935-3,0-3c-24.905,0-49.812,0-74.717,0
				C193.655,101.932,193.655,104.932,195.59,104.932L195.59,104.932z"/>
		</g>
	</g>
	<g>
		<g>
			<path style="fill:#FFFFFF;" d="M189.701,121.113c24.905,0,49.812,0,74.717,0c1.935,0,1.935-3,0-3c-24.905,0-49.812,0-74.717,0
				C187.767,118.113,187.767,121.113,189.701,121.113L189.701,121.113z"/>
		</g>
	</g>
	<g>
		<g>
			<path style="fill:#FFFFFF;" d="M177.922,153.475c13.572,0,27.144,0,40.716,0c1.935,0,1.935-3,0-3c-13.572,0-27.145,0-40.716,0
				C175.988,150.475,175.988,153.475,177.922,153.475L177.922,153.475z"/>
		</g>
	</g>
	<g>
		<g>
			<path style="fill:#FFFFFF;" d="M183.813,137.294c17.572,0,35.144,0,52.716,0c1.935,0,1.935-3,0-3c-17.572,0-35.144,0-52.716,0
				C181.878,134.294,181.878,137.294,183.813,137.294L183.813,137.294z"/>
		</g>
	</g>
	<g>
		<g>
			<path style="fill:#FFFFFF;" d="M172.033,169.657c17.361-0.152,34.721-0.304,52.082-0.457c1.934-0.017,1.936-3.017,0-3
				c-17.36,0.152-34.721,0.304-52.082,0.457C170.099,166.674,170.098,169.674,172.033,169.657L172.033,169.657z"/>
		</g>
	</g>
	<g>
		<g>
			<path style="fill:#FFFFFF;" d="M163.198,193.928c24.905,0,49.811,0,74.716,0c1.935,0,1.935-3,0-3c-24.905,0-49.811,0-74.716,0
				C161.264,190.928,161.264,193.928,163.198,193.928L163.198,193.928z"/>
		</g>
	</g>
	<g>
		<g>
			<path style="fill:#FFFFFF;" d="M151.419,226.291c24.906,0,49.812,0,74.717,0c1.935,0,1.935-3,0-3c-24.905,0-49.811,0-74.717,0
				C149.484,223.291,149.484,226.291,151.419,226.291L151.419,226.291z"/>
		</g>
	</g>
	<g>
		<g>
			<path style="fill:#FFFFFF;" d="M160.253,202.02c24.906,0,49.811,0,74.716,0c1.935,0,1.935-3,0-3c-24.905,0-49.811,0-74.716,0
				C158.319,199.02,158.319,202.02,160.253,202.02L160.253,202.02z"/>
		</g>
	</g>
	<g>
		<g>
			<path style="fill:#FFFFFF;" d="M148.475,234.381c24.906,0,49.812,0,74.717,0c1.935,0,1.935-3,0-3c-24.905,0-49.811,0-74.717,0
				C146.54,231.381,146.54,234.381,148.475,234.381L148.475,234.381z"/>
		</g>
	</g>
	<g>
		<g>
			<path style="fill:#FFFFFF;" d="M142.585,250.563c24.906,0,49.812,0,74.717,0c1.935,0,1.935-3,0-3c-24.905,0-49.811,0-74.717,0
				C140.65,247.563,140.65,250.563,142.585,250.563L142.585,250.563z"/>
		</g>
	</g>
	<g>
		<g>
			<path style="fill:#FFFFFF;" d="M136.695,266.744c24.906,0,49.812,0,74.717,0c1.935,0,1.935-3,0-3c-24.905,0-49.811,0-74.717,0
				C134.761,263.744,134.761,266.744,136.695,266.744L136.695,266.744z"/>
		</g>
	</g>
	<g>
		<g>
			<path style="fill:#FFFFFF;" d="M204.425,80.66c24.905,0,49.811,0,74.716,0c1.935,0,1.935-3,0-3c-24.905,0-49.811,0-74.716,0
				C202.49,77.66,202.49,80.66,204.425,80.66L204.425,80.66z"/>
		</g>
	</g>
	<g>
		<g>
			<path style="fill:#FFFFFF;" d="M198.535,96.841c24.905,0,49.812,0,74.717,0c1.935,0,1.935-3,0-3c-24.905,0-49.812,0-74.717,0
				C196.601,93.841,196.601,96.841,198.535,96.841L198.535,96.841z"/>
		</g>
	</g>
	<g>
		<g>
			<path style="fill:#FFFFFF;" d="M192.646,113.022c24.905,0,49.811,0,74.716,0c1.935,0,1.935-3,0-3c-24.905,0-49.811,0-74.716,0
				C190.712,110.022,190.712,113.022,192.646,113.022L192.646,113.022z"/>
		</g>
	</g>
	<g>
		<g>
			<path style="fill:#FFFFFF;" d="M180.867,145.385c13.572,0,27.144,0,40.716,0c1.935,0,1.935-3,0-3c-13.572,0-27.145,0-40.716,0
				C178.932,142.385,178.932,145.385,180.867,145.385L180.867,145.385z"/>
		</g>
	</g>
	<g>
		<g>
			<path style="fill:#FFFFFF;" d="M186.756,129.204c24.905,0,49.812,0,74.717,0c1.935,0,1.935-3,0-3c-24.905,0-49.812,0-74.717,0
				C184.821,126.204,184.821,129.204,186.756,129.204L186.756,129.204z"/>
		</g>
	</g>
	<g>
		<g>
			<path style="fill:#FFFFFF;" d="M174.978,161.566c13.572,0,27.144,0,40.716,0c1.935,0,1.935-3,0-3c-13.572,0-27.144,0-40.716,0
				C173.043,158.566,173.043,161.566,174.978,161.566L174.978,161.566z"/>
		</g>
	</g>
	<g>
		<g>
			<path style="fill:#FFFFFF;" d="M169.088,177.747c24.905,0,49.812,0,74.717,0c1.935,0,1.935-3,0-3c-24.905,0-49.812,0-74.717,0
				C167.153,174.747,167.153,177.747,169.088,177.747L169.088,177.747z"/>
		</g>
	</g>
	<g>
		<g>
			<path style="fill:#FFFFFF;" d="M157.309,210.109c24.905,0,49.812,0,74.717,0c1.935,0,1.935-3,0-3c-24.905,0-49.812,0-74.717,0
				C155.374,207.109,155.374,210.109,157.309,210.109L157.309,210.109z"/>
		</g>
	</g>
	<g>
		<g>
			<path style="fill:#FFFFFF;" d="M166.143,185.838c24.906,0,49.811,0,74.716,0c1.935,0,1.935-3,0-3c-24.905,0-49.811,0-74.716,0
				C164.208,182.838,164.208,185.838,166.143,185.838L166.143,185.838z"/>
		</g>
	</g>
	<g>
		<g>
			<path style="fill:#FFFFFF;" d="M154.364,218.2c24.905,0,49.811,0,74.716,0c1.935,0,1.935-3,0-3c-24.905,0-49.811,0-74.716,0
				C152.429,215.2,152.429,218.2,154.364,218.2L154.364,218.2z"/>
		</g>
	</g>
	<g>
		<g>
			<path style="fill:#FFFFFF;" d="M145.53,242.473c24.905,0,49.811,0,74.716,0c1.935,0,1.935-3,0-3c-24.905,0-49.811,0-74.716,0
				C143.595,239.473,143.595,242.473,145.53,242.473L145.53,242.473z"/>
		</g>
	</g>
	<g>
		<g>
			<path style="fill:#FFFFFF;" d="M139.64,258.653c24.906,0,49.811,0,74.717,0c1.935,0,1.935-3,0-3c-24.906,0-49.812,0-74.717,0
				C137.706,255.653,137.706,258.653,139.64,258.653L139.64,258.653z"/>
		</g>
	</g>
	<g>
		<g>
			<path style="fill:#FFFFFF;" d="M130.806,282.926c24.906,0,49.812,0,74.717,0c1.935,0,1.935-3,0-3c-24.906,0-49.812,0-74.717,0
				C128.872,279.926,128.872,282.926,130.806,282.926L130.806,282.926z"/>
		</g>
	</g>
	<g>
		<g>
			<path style="fill:#FFFFFF;" d="M133.751,274.834c24.906,0,49.812,0,74.717,0c1.935,0,1.935-3,0-3c-24.905,0-49.811,0-74.717,0
				C131.816,271.834,131.816,274.834,133.751,274.834L133.751,274.834z"/>
		</g>
	</g>
	<path style="fill:#FFFFFF;" d="M171.915,79.16c0,2.071-1.679,3.75-3.75,3.75l0,0c-2.071,0-3.75-1.679-3.75-3.75l0,0
		c0-2.071,1.679-3.75,3.75-3.75l0,0C170.236,75.41,171.915,77.088,171.915,79.16L171.915,79.16z"/>
	<path style="fill:#FFFFFF;" d="M156.827,112.554c0,2.071-1.679,3.75-3.75,3.75l0,0c-2.071,0-3.75-1.679-3.75-3.75l0,0
		c0-2.071,1.679-3.75,3.75-3.75l0,0C155.148,108.804,156.827,110.482,156.827,112.554L156.827,112.554z"/>
	<path style="fill:#FFFFFF;" d="M129.327,76.804c0,2.071-1.679,3.75-3.75,3.75l0,0c-2.071,0-3.75-1.679-3.75-3.75l0,0
		c0-2.071,1.679-3.75,3.75-3.75l0,0C127.648,73.054,129.327,74.732,129.327,76.804L129.327,76.804z"/>
	<path style="fill:#FFFFFF;" d="M118.077,143.959c0,2.071-1.679,3.75-3.75,3.75l0,0c-2.071,0-3.75-1.679-3.75-3.75l0,0
		c0-2.071,1.679-3.75,3.75-3.75l0,0C116.398,140.209,118.077,141.888,118.077,143.959L118.077,143.959z"/>
	<path style="fill:#FFFFFF;" d="M69.839,93.639c0.114-2.068,1.883-3.651,3.952-3.537l0,0c2.068,0.115,3.651,1.884,3.537,3.952l0,0
		c-0.115,2.068-1.884,3.651-3.952,3.537l0,0C71.307,97.476,69.724,95.707,69.839,93.639L69.839,93.639z"/>
	<path style="fill:#FFFFFF;" d="M87.583,114.346c0.115-2.068,1.884-3.651,3.952-3.537l0,0c2.068,0.114,3.651,1.883,3.537,3.952l0,0
		c-0.114,2.068-1.883,3.651-3.952,3.537l0,0C89.052,118.183,87.468,116.414,87.583,114.346L87.583,114.346z"/>
	<path style="fill:#FFFFFF;" d="M106.577,274.204c-2.071,0-3.75-1.679-3.75-3.75l0,0c0-2.071,1.679-3.75,3.75-3.75l0,0
		c2.071,0,3.75,1.679,3.75,3.75l0,0C110.327,272.525,108.648,274.204,106.577,274.204L106.577,274.204z"/>
	<path style="fill:#FFFFFF;" d="M125.577,228.541c-2.071,0-3.75-1.679-3.75-3.75l0,0c0-2.071,1.679-3.75,3.75-3.75l0,0
		c2.071,0,3.75,1.679,3.75,3.75l0,0C129.327,226.862,127.648,228.541,125.577,228.541L125.577,228.541z"/>
	<path style="fill:#FFFFFF;" d="M77.327,231.204c-2.071,0-3.75-1.679-3.75-3.75l0,0c0-2.071,1.679-3.75,3.75-3.75l0,0
		c2.071,0,3.75,1.679,3.75,3.75l0,0C81.077,229.525,79.398,231.204,77.327,231.204L77.327,231.204z"/>
	<path style="fill:#FFFFFF;" d="M78.827,191.954c-2.071,0-3.75-1.679-3.75-3.75l0,0c0-2.071,1.679-3.75,3.75-3.75l0,0
		c2.071,0,3.75,1.679,3.75,3.75l0,0C82.577,190.275,80.898,191.954,78.827,191.954L78.827,191.954z"/>
	<path style="fill:#FFFFFF;" d="M122.577,194.416c-2.071,0-3.75-1.678-3.75-3.75l0,0c0-2.07,1.679-3.75,3.75-3.75l0,0
		c2.071,0,3.75,1.68,3.75,3.75l0,0C126.327,192.738,124.648,194.416,122.577,194.416L122.577,194.416z"/>
	<path style="fill:#FFFFFF;" d="M101.327,211.704c-2.071,0-3.75-1.679-3.75-3.75l0,0c0-2.071,1.679-3.75,3.75-3.75l0,0
		c2.071,0,3.75,1.679,3.75,3.75l0,0C105.077,210.025,103.398,211.704,101.327,211.704L101.327,211.704z"/>
	<path style="fill:#FFFFFF;" d="M74.035,165.21c2.068,0.115,3.651,1.884,3.537,3.952l0,0c-0.114,2.068-1.883,3.651-3.952,3.537l0,0
		c-2.068-0.114-3.651-1.883-3.537-3.952l0,0C70.198,166.679,71.967,165.095,74.035,165.21L74.035,165.21z"/>
</g>
<g id="Ebene_1">
</g>
</svg>
