<?xml version="1.0" encoding="iso-8859-1"?>
<!-- Generator: Adobe Illustrator 16.0.3, SVG Export Plug-In . SVG Version: 6.00 Build 0)  -->
<!DOCTYPE svg PUBLIC "-//W3C//DTD SVG 1.1//EN" "http://www.w3.org/Graphics/SVG/1.1/DTD/svg11.dtd">
<svg version="1.1" xmlns="http://www.w3.org/2000/svg" xmlns:xlink="http://www.w3.org/1999/xlink" x="0px" y="0px" width="361px"
	 height="361px" viewBox="0 0 361 361" style="enable-background:new 0 0 361 361;" xml:space="preserve">
<g id="vent_x5F_error">
	<g id="Abluft_23_" style="display:none;">
		<g style="display:inline;">
			<g>
				<path style="fill:#FFFFFF;" d="M90.131,268.935c0.141-0.066,0.282-0.133,0.422-0.198c1.179-0.488,2.357-0.977,3.536-1.465
					c-6.018,0-12.036,0-18.053,0c1.179,0.488,2.357,0.977,3.536,1.465c0.767,0.665,0.424-1.665,0.424-2.077c0-2.507,0-5.013,0-7.52
					c0-7.579,0-15.157,0-22.736s0-15.157,0-22.736c0-2.369,0-4.738,0-7.107c0-0.437,0.345-3.153-0.424-2.487
					c-1.179,0.488-2.357,0.977-3.536,1.465c6.018,0,12.036,0,18.053,0c-1.179-0.488-2.357-0.977-3.536-1.465
					c-0.767-0.663-0.422,1.659-0.422,2.075c0,2.265,0,4.529,0,6.794c0,7.488,0,14.978,0,22.466
					C90.131,246.583,90.131,257.759,90.131,268.935c0,6.448,10,6.448,10,0c0-11.176,0-22.352,0-33.527c0-7.488,0-14.978,0-22.466
					c0-3.59,0.782-8.555-0.321-12.082c-2.383-7.625-12.185-5.322-18.511-5.322c-2.303,0-5.692-0.544-7.787,0.683
					c-2.972,1.741-3.517,5.187-3.517,8.354c0,12.917,0,25.835,0,38.753c0,6.194,0,12.39,0,18.584c0,2.992-0.592,7.108,0.321,10.037
					c2.209,7.083,9.781,5.323,15.712,5.323c2.599,0,5.199,0,7.798,0c4.756,0,5.979-4.474,6.305-8.337
					C100.674,262.506,90.67,262.558,90.131,268.935z"/>
			</g>
		</g>
		<g style="display:inline;">
			<g>
				<path style="fill:#FFFFFF;" d="M93.053,190.655c22.023,16.833,44.047,33.665,66.071,50.498c0-2.878,0-5.757,0-8.635
					c-22.024,16.833-44.048,33.665-66.071,50.498c2.508,1.439,5.016,2.878,7.523,4.317c0-33.665,0-67.331,0-100.996
					c0-6.449-10-6.449-10,0c0,33.665,0,67.331,0,100.996c0,3.436,4.397,6.707,7.523,4.317
					c22.024-16.833,44.048-33.665,66.071-50.498c3.178-2.429,3.178-6.206,0-8.635c-22.023-16.833-44.047-33.665-66.071-50.498
					C92.974,178.103,88.003,186.796,93.053,190.655z"/>
			</g>
		</g>
	</g>
	<g>
		<g>
			<path style="fill:#FFFFFF;" d="M251.833,120.001c0-6.956,0-13.911,0-20.866c0-6.449-10-6.449-10,0c0,6.956,0,13.911,0,20.866
				C241.833,126.45,251.833,126.45,251.833,120.001L251.833,120.001z"/>
		</g>
	</g>
	<g>
		<g>
			<path style="fill:#FFFFFF;" d="M288.759,113.632c-28.202-14.46-56.405-28.92-84.608-43.38c-5.727-2.936-10.787,5.692-5.047,8.635
				c28.203,14.46,56.405,28.92,84.608,43.38C289.438,125.203,294.499,116.575,288.759,113.632L288.759,113.632z"/>
		</g>
	</g>
	<g>
		<g>
			<path style="fill:#FFFFFF;" d="M136.833,150.984c6.2-1.85,12.492-3.471,18.851-4.672c8.5-1.605,15.959,0.971,23.905,3.886
				c10.954,4.018,22.235,10.623,34.065,11.009c7.296,0.238,15.346-3.587,21.991-6.186c4.038-1.579,8.011-3.305,12.074-4.823
				c7.977-2.98,15.38-5.382,23.906-3.886c6.361,1.116,12.664,2.827,18.851,4.672c1.858,0.555,2.646-2.341,0.797-2.893
				c-6.2-1.85-12.491-3.471-18.851-4.673c-7.98-1.507-14.637,0.111-22.247,2.718c-11.71,4.011-24.009,11.662-36.521,12.07
				c-7.452,0.243-15.945-3.972-22.727-6.689c-4.586-1.838-9.129-3.741-13.794-5.38c-7.143-2.51-13.599-4.118-21.125-2.915
				c-6.746,1.079-13.432,2.918-19.974,4.87C134.186,148.643,134.974,151.539,136.833,150.984L136.833,150.984z"/>
		</g>
	</g>
	<g>
		<g>
			<path style="fill:#FFFFFF;" d="M144.425,159.588c6.024-2.177,12.932-4.321,19.379-3.757c6.911,0.605,13.977,3.766,20.365,6.296
				c9.375,3.713,19.262,8.915,29.485,9.248c6.396,0.208,13.369-2.933,19.231-5.123c3.208-1.198,6.352-2.547,9.524-3.832
				c6.354-2.575,12.89-5.027,19.629-6.363c6.764-1.341,14.501,1.237,20.846,3.53c1.823,0.659,2.602-2.24,0.797-2.893
				c-5.921-2.14-12.23-3.792-18.546-3.964c-6.732-0.185-14.043,3.152-20.203,5.492c-9.988,3.794-20.465,9.8-31.278,10.152
				c-6.682,0.218-14.219-3.385-20.328-5.741c-3.364-1.297-6.668-2.743-10.026-4.056c-6.488-2.538-13.35-5.21-20.343-5.822
				c-6.329-0.554-13.449,1.813-19.33,3.939C141.822,157.348,142.601,160.247,144.425,159.588L144.425,159.588z"/>
		</g>
	</g>
	<g>
		<g>
			<path style="fill:#FFFFFF;" d="M144.542,139.316c6.024-2.177,12.932-4.322,19.379-3.758c6.912,0.605,13.978,3.767,20.365,6.297
				c9.375,3.713,19.262,8.914,29.485,9.248c6.396,0.208,13.369-2.933,19.231-5.122c3.207-1.198,6.351-2.547,9.523-3.832
				c6.354-2.575,12.89-5.027,19.63-6.363c6.764-1.341,14.502,1.238,20.846,3.531c1.823,0.659,2.602-2.24,0.797-2.893
				c-5.921-2.141-12.23-3.792-18.546-3.965c-6.732-0.185-14.043,3.152-20.203,5.492c-9.988,3.794-20.465,9.799-31.278,10.152
				c-6.682,0.218-14.219-3.384-20.328-5.74c-3.364-1.297-6.668-2.743-10.026-4.056c-6.488-2.537-13.35-5.21-20.343-5.822
				c-6.329-0.554-13.449,1.814-19.33,3.939C141.939,137.076,142.718,139.976,144.542,139.316L144.542,139.316z"/>
		</g>
	</g>
	<g>
		<g>
			<path style="fill:#FFFFFF;" d="M77.519,107.922c18.877-9.678,37.754-19.357,56.631-29.035c5.74-2.943,0.68-11.571-5.047-8.635
				c-18.877,9.678-37.754,19.357-56.631,29.035C66.731,102.23,71.792,110.858,77.519,107.922L77.519,107.922z"/>
		</g>
	</g>
	<g>
		<g>
			<path style="fill:#FFFFFF;" d="M176.872,166.241c-24.866,0-49.731,0-74.597,0c-11.656,0-26.029-1.347-30.788,12.522
				c-1.678,4.891-1.157,10.36-1.157,15.458c0,7.85,0,15.7,0,23.551c0,6.571-0.822,13.859,0.738,20.315
				c2.541,10.518,12.725,13.744,22.193,13.744c15.516,0,31.032,0,46.547,0c-1.179-0.488-2.357-0.977-3.536-1.465
				c11.199,13.19,22.397,26.38,33.596,39.569c3.619,4.263,9.017-0.484,8.357-4.864c-1.987-13.189-3.975-26.38-5.963-39.569
				c-1.607,2.109-3.214,4.22-4.821,6.329c3.589,0,7.193,0.106,10.779-0.064c7.274-0.346,14.143-5.591,16.5-12.458
				c2.34-6.82,1.157-15.406,1.157-22.473c0-9.533,0-19.065,0-28.598C195.877,176.527,189.442,166.838,176.872,166.241
				c-6.449-0.307-6.419,9.695,0,10c8.921,0.424,9.005,8.354,9.005,15.01c0,8.212,0,16.424,0,24.637c0,5.61,0,11.22,0,16.83
				c0,10.401-11.323,9.113-18.436,9.113c-3.542,0-5.297,3.173-4.821,6.329c1.987,13.189,3.975,26.38,5.963,39.569
				c2.786-1.621,5.571-3.243,8.357-4.864c-7.906-9.312-15.811-18.622-23.717-27.934c-3.245-3.821-6.489-7.644-9.734-11.465
				c-2.292-2.7-8.488-1.636-11.567-1.636c-13.793,0-27.587,0-41.381,0c-6.283,0-10.211-4.01-10.211-10.267c0-6.193,0-12.387,0-18.58
				c0-6.768,0-13.536,0-20.304c0-4.401-0.82-9.727,2.2-13.345c2.831-3.391,6.882-3.095,10.788-3.095c5.087,0,10.174,0,15.261,0
				c22.764,0,45.529,0,68.293,0C183.32,176.241,183.32,166.241,176.872,166.241z"/>
		</g>
	</g>
	<path style="fill:#FFFFFF;" d="M160.643,224.139l-15.434-15.434l15.434-15.434c1.912-1.91,1.912-5.011,0-6.922l-5.183-5.184
		c-1.912-1.912-5.011-1.912-6.923,0L133.103,196.6l-15.434-15.434c-1.911-1.912-5.011-1.912-6.922,0l-5.184,5.184
		c-1.912,1.911-1.912,5.012,0,6.922l15.434,15.434l-15.434,15.434c-1.912,1.912-1.912,5.012,0,6.923l5.184,5.184
		c1.911,1.911,5.011,1.911,6.922,0l15.434-15.434l15.434,15.434c1.912,1.911,5.011,1.911,6.923,0l5.183-5.184
		C162.554,229.15,162.554,226.051,160.643,224.139z"/>
</g>
<g id="Ebene_1">
</g>
</svg>
