<?xml version="1.0" encoding="iso-8859-1"?>
<!-- Generator: Adobe Illustrator 16.0.3, SVG Export Plug-In . SVG Version: 6.00 Build 0)  -->
<!DOCTYPE svg PUBLIC "-//W3C//DTD SVG 1.1//EN" "http://www.w3.org/Graphics/SVG/1.1/DTD/svg11.dtd">
<svg version="1.1" xmlns="http://www.w3.org/2000/svg" xmlns:xlink="http://www.w3.org/1999/xlink" x="0px" y="0px" width="361px"
	 height="361px" viewBox="0 0 361 361" style="enable-background:new 0 0 361 361;" xml:space="preserve">
<g id="vent_x5F_stop">
	<g id="Abluft_22_" style="display:none;">
		<g style="display:inline;">
			<g>
				<path style="fill:#FFFFFF;" d="M90.131,268.935c0.141-0.066,0.282-0.133,0.422-0.198c1.179-0.488,2.357-0.977,3.536-1.465
					c-6.018,0-12.036,0-18.053,0c1.179,0.488,2.357,0.977,3.536,1.465c0.767,0.665,0.424-1.665,0.424-2.077c0-2.507,0-5.013,0-7.52
					c0-7.579,0-15.157,0-22.736s0-15.157,0-22.736c0-2.369,0-4.738,0-7.107c0-0.437,0.345-3.153-0.424-2.487
					c-1.179,0.488-2.357,0.977-3.536,1.465c6.018,0,12.036,0,18.053,0c-1.179-0.488-2.357-0.977-3.536-1.465
					c-0.767-0.663-0.422,1.659-0.422,2.075c0,2.265,0,4.529,0,6.794c0,7.488,0,14.978,0,22.466
					C90.131,246.583,90.131,257.759,90.131,268.935c0,6.448,10,6.448,10,0c0-11.176,0-22.352,0-33.527c0-7.488,0-14.978,0-22.466
					c0-3.59,0.782-8.555-0.321-12.082c-2.383-7.625-12.185-5.322-18.511-5.322c-2.303,0-5.692-0.544-7.787,0.683
					c-2.972,1.741-3.517,5.187-3.517,8.354c0,12.917,0,25.835,0,38.753c0,6.194,0,12.39,0,18.584c0,2.992-0.592,7.108,0.321,10.037
					c2.209,7.083,9.781,5.323,15.712,5.323c2.599,0,5.199,0,7.798,0c4.756,0,5.979-4.474,6.305-8.337
					C100.674,262.506,90.67,262.558,90.131,268.935z"/>
			</g>
		</g>
		<g style="display:inline;">
			<g>
				<path style="fill:#FFFFFF;" d="M93.053,190.655c22.023,16.833,44.047,33.665,66.071,50.498c0-2.878,0-5.757,0-8.635
					c-22.024,16.833-44.048,33.665-66.071,50.498c2.508,1.439,5.016,2.878,7.523,4.317c0-33.665,0-67.331,0-100.996
					c0-6.449-10-6.449-10,0c0,33.665,0,67.331,0,100.996c0,3.436,4.397,6.707,7.523,4.317
					c22.024-16.833,44.048-33.665,66.071-50.498c3.178-2.429,3.178-6.206,0-8.635c-22.023-16.833-44.047-33.665-66.071-50.498
					C92.974,178.103,88.003,186.796,93.053,190.655z"/>
			</g>
		</g>
	</g>
	<g>
		<g>
			<path style="fill:#FFFFFF;" d="M251.833,120.001c0-6.956,0-13.911,0-20.866c0-6.449-10-6.449-10,0c0,6.956,0,13.911,0,20.866
				C241.833,126.45,251.833,126.45,251.833,120.001L251.833,120.001z"/>
		</g>
	</g>
	<g>
		<g>
			<path style="fill:#FFFFFF;" d="M288.759,113.632c-28.202-14.46-56.405-28.92-84.608-43.38c-5.727-2.936-10.787,5.692-5.047,8.635
				c28.203,14.46,56.405,28.92,84.608,43.38C289.438,125.203,294.499,116.575,288.759,113.632L288.759,113.632z"/>
		</g>
	</g>
	<g>
		<g>
			<path style="fill:#FFFFFF;" d="M136.833,150.984c6.2-1.85,12.492-3.471,18.851-4.672c8.5-1.605,15.959,0.971,23.905,3.886
				c10.954,4.018,22.235,10.623,34.065,11.009c7.296,0.238,15.346-3.587,21.991-6.186c4.038-1.579,8.011-3.305,12.074-4.823
				c7.977-2.98,15.38-5.382,23.906-3.886c6.361,1.116,12.664,2.827,18.851,4.672c1.858,0.555,2.646-2.341,0.797-2.893
				c-6.2-1.85-12.491-3.471-18.851-4.673c-7.98-1.507-14.637,0.111-22.247,2.718c-11.71,4.011-24.009,11.662-36.521,12.07
				c-7.452,0.243-15.945-3.972-22.727-6.689c-4.586-1.838-9.129-3.741-13.794-5.38c-7.143-2.51-13.599-4.118-21.125-2.915
				c-6.746,1.079-13.432,2.918-19.974,4.87C134.186,148.643,134.974,151.539,136.833,150.984L136.833,150.984z"/>
		</g>
	</g>
	<g>
		<g>
			<path style="fill:#FFFFFF;" d="M144.425,159.588c6.024-2.177,12.932-4.321,19.379-3.757c6.911,0.605,13.977,3.766,20.365,6.296
				c9.375,3.713,19.262,8.915,29.485,9.248c6.396,0.208,13.369-2.933,19.231-5.123c3.208-1.198,6.352-2.547,9.524-3.832
				c6.354-2.575,12.89-5.027,19.629-6.363c6.764-1.341,14.501,1.237,20.846,3.53c1.823,0.659,2.602-2.24,0.797-2.893
				c-5.921-2.14-12.23-3.792-18.546-3.964c-6.732-0.185-14.043,3.152-20.203,5.492c-9.988,3.794-20.465,9.8-31.278,10.152
				c-6.682,0.218-14.219-3.385-20.328-5.741c-3.364-1.297-6.668-2.743-10.026-4.056c-6.488-2.538-13.35-5.21-20.343-5.822
				c-6.329-0.554-13.449,1.813-19.33,3.939C141.822,157.348,142.601,160.247,144.425,159.588L144.425,159.588z"/>
		</g>
	</g>
	<g>
		<g>
			<path style="fill:#FFFFFF;" d="M144.542,139.316c6.024-2.177,12.932-4.322,19.379-3.758c6.912,0.605,13.978,3.767,20.365,6.297
				c9.375,3.713,19.262,8.914,29.485,9.248c6.396,0.208,13.369-2.933,19.231-5.122c3.207-1.198,6.351-2.547,9.523-3.832
				c6.354-2.575,12.89-5.027,19.63-6.363c6.764-1.341,14.502,1.238,20.846,3.531c1.823,0.659,2.602-2.24,0.797-2.893
				c-5.921-2.141-12.23-3.792-18.546-3.965c-6.732-0.185-14.043,3.152-20.203,5.492c-9.988,3.794-20.465,9.799-31.278,10.152
				c-6.682,0.218-14.219-3.384-20.328-5.74c-3.364-1.297-6.668-2.743-10.026-4.056c-6.488-2.537-13.35-5.21-20.343-5.822
				c-6.329-0.554-13.449,1.814-19.33,3.939C141.939,137.076,142.718,139.976,144.542,139.316L144.542,139.316z"/>
		</g>
	</g>
	<g>
		<g>
			<path style="fill:#FFFFFF;" d="M77.519,107.922c18.877-9.678,37.754-19.357,56.631-29.035c5.74-2.943,0.68-11.571-5.047-8.635
				c-18.877,9.678-37.754,19.357-56.631,29.035C66.731,102.23,71.792,110.858,77.519,107.922L77.519,107.922z"/>
		</g>
	</g>
	<g>
		<g>
			<path style="fill:#FFFFFF;" d="M115.911,278.752c-10.757-10.732-21.515-21.465-32.271-32.197
				c0.742,1.796,1.484,3.592,2.226,5.387c0-15.177,0-30.354,0-45.532c-0.723,1.741-1.446,3.481-2.169,5.222
				c10.757-10.732,21.515-21.464,32.272-32.196c-1.795,0.742-3.591,1.484-5.387,2.226c15.213,0,30.427,0,45.64,0
				c-1.74-0.723-3.481-1.446-5.222-2.169c10.758,10.732,21.516,21.465,32.273,32.197c-0.742-1.796-1.484-3.592-2.227-5.387
				c0,15.177,0,30.354,0,45.532c0.724-1.741,1.446-3.481,2.169-5.222c-10.757,10.731-21.515,21.464-32.272,32.196
				c1.795-0.742,3.591-1.484,5.387-2.227c-15.213,0-30.427,0-45.64,0c-9.687,0-9.772,15.004-0.108,15.004
				c12.388,0,24.776,0,37.164,0c4.449,0,10.602,1.026,14.041-2.403c3.817-3.809,7.635-7.617,11.453-11.426
				c5.414-5.4,10.828-10.802,16.242-16.203c3.149-3.142,6.57-5.703,6.57-10.585c0-13.439,0-26.88,0-40.319
				c0-4.447-0.399-7.804-3.73-11.127c-4.761-4.749-9.521-9.499-14.282-14.248c-4.883-4.872-9.767-9.744-14.65-14.616
				c-3.196-3.188-6.334-4.001-10.72-4.001c-13.555,0-27.11,0-40.665,0c-4.953,0-7.41,2.934-10.613,6.129
				c-5.35,5.337-10.7,10.675-16.05,16.013c-3.703,3.694-7.406,7.389-11.109,11.083c-2.797,2.79-3.37,5.761-3.37,9.522
				c0,12.303,0,24.606,0,36.909c0,3.861-0.607,8.081,2.403,11.084c3.154,3.146,6.308,6.293,9.462,9.439
				c7.544,7.526,15.088,15.053,22.633,22.579C112.204,296.244,122.772,285.597,115.911,278.752z"/>
		</g>
	</g>
	<g>
		<path style="fill:#FFFFFF;" d="M95.956,236.881c0.803,0,1.465-0.066,1.988-0.2c0.522-0.134,0.942-0.316,1.258-0.548
			c0.316-0.23,0.536-0.504,0.656-0.82c0.122-0.316,0.184-0.669,0.184-1.059c0-0.826-0.39-1.514-1.168-2.061s-2.116-1.137-4.013-1.77
			c-0.826-0.291-1.654-0.626-2.48-1.002c-0.827-0.377-1.568-0.853-2.225-1.424c-0.657-0.571-1.192-1.265-1.605-2.079
			s-0.62-1.806-0.62-2.974s0.219-2.219,0.657-3.155c0.438-0.937,1.058-1.732,1.861-2.39c0.802-0.656,1.775-1.16,2.918-1.514
			c1.143-0.352,2.432-0.529,3.868-0.529c1.702,0,3.173,0.183,4.414,0.548c1.24,0.364,2.262,0.766,3.065,1.203l-1.643,4.487
			c-0.705-0.365-1.49-0.688-2.353-0.967c-0.864-0.279-1.903-0.42-3.119-0.42c-1.362,0-2.341,0.189-2.937,0.566
			c-0.596,0.377-0.894,0.954-0.894,1.732c0,0.462,0.109,0.852,0.329,1.168s0.529,0.602,0.931,0.856
			c0.401,0.257,0.862,0.487,1.386,0.692c0.522,0.208,1.1,0.42,1.733,0.64c1.313,0.487,2.456,0.967,3.429,1.44
			c0.973,0.475,1.781,1.028,2.426,1.66c0.644,0.633,1.124,1.375,1.44,2.226c0.316,0.851,0.474,1.884,0.474,3.101
			c0,2.359-0.827,4.189-2.48,5.49c-1.654,1.301-4.146,1.951-7.479,1.951c-1.119,0-2.128-0.066-3.028-0.2
			c-0.9-0.134-1.697-0.298-2.39-0.492s-1.29-0.401-1.788-0.62c-0.499-0.22-0.917-0.426-1.258-0.621l1.604-4.523
			c0.753,0.414,1.684,0.785,2.791,1.113C92.995,236.717,94.351,236.881,95.956,236.881z"/>
		<path style="fill:#FFFFFF;" d="M128.313,215.941v4.852h-7.625v20.429h-5.691v-20.429h-7.625v-4.852H128.313z"/>
		<path style="fill:#FFFFFF;" d="M155.2,228.563c0,2.165-0.323,4.067-0.967,5.709s-1.526,3.016-2.645,4.122
			c-1.118,1.107-2.45,1.939-3.994,2.5c-1.545,0.559-3.204,0.838-4.979,0.838c-1.727,0-3.356-0.279-4.888-0.838
			c-1.532-0.561-2.87-1.393-4.012-2.5c-1.144-1.106-2.043-2.48-2.7-4.122s-0.985-3.544-0.985-5.709s0.34-4.067,1.021-5.709
			c0.681-1.642,1.599-3.022,2.754-4.14c1.155-1.119,2.492-1.959,4.013-2.518c1.519-0.56,3.119-0.84,4.796-0.84
			c1.727,0,3.356,0.28,4.889,0.84c1.532,0.559,2.869,1.398,4.013,2.518c1.143,1.117,2.042,2.498,2.699,4.14
			C154.872,224.496,155.2,226.398,155.2,228.563z M135.902,228.563c0,1.241,0.151,2.359,0.456,3.356
			c0.304,0.997,0.742,1.854,1.313,2.572c0.571,0.717,1.27,1.271,2.097,1.659c0.827,0.39,1.775,0.584,2.846,0.584
			c1.045,0,1.988-0.194,2.828-0.584c0.838-0.389,1.543-0.942,2.116-1.659c0.571-0.718,1.009-1.575,1.313-2.572
			c0.304-0.997,0.456-2.115,0.456-3.356c0-1.24-0.152-2.364-0.456-3.375c-0.304-1.009-0.742-1.872-1.313-2.589
			c-0.572-0.717-1.277-1.271-2.116-1.66c-0.839-0.389-1.782-0.584-2.828-0.584c-1.07,0-2.019,0.2-2.846,0.602
			c-0.827,0.402-1.526,0.962-2.097,1.679c-0.572,0.718-1.01,1.581-1.313,2.589C136.053,226.234,135.902,227.348,135.902,228.563z"/>
		<path style="fill:#FFFFFF;" d="M167.529,215.649c3.77,0,6.664,0.663,8.683,1.988c2.018,1.325,3.028,3.496,3.028,6.512
			c0,3.04-1.022,5.235-3.064,6.585c-2.043,1.35-4.961,2.024-8.755,2.024h-1.788v8.463h-5.69v-24.915
			c1.24-0.243,2.554-0.414,3.939-0.512C165.268,215.699,166.484,215.649,167.529,215.649z M167.895,220.502
			c-0.414,0-0.821,0.012-1.223,0.036c-0.401,0.024-0.747,0.048-1.04,0.073v7.296h1.788c1.97,0,3.453-0.269,4.45-0.804
			c0.997-0.533,1.496-1.531,1.496-2.99c0-0.705-0.128-1.289-0.383-1.752c-0.255-0.461-0.62-0.832-1.094-1.111
			s-1.052-0.475-1.732-0.584C169.475,220.556,168.722,220.502,167.895,220.502z"/>
	</g>
</g>
<g id="Ebene_1">
</g>
</svg>
