<?xml version="1.0" encoding="iso-8859-1"?>
<!-- Generator: Adobe Illustrator 16.0.0, SVG Export Plug-In . SVG Version: 6.00 Build 0)  -->
<!DOCTYPE svg PUBLIC "-//W3C//DTD SVG 1.1 Tiny//EN" "http://www.w3.org/Graphics/SVG/1.1/DTD/svg11-tiny.dtd">
<svg version="1.1" baseProfile="tiny" id="weather_x5F_summer"
	 xmlns="http://www.w3.org/2000/svg" xmlns:xlink="http://www.w3.org/1999/xlink" x="0px" y="0px" width="361px" height="361px"
	 viewBox="0 0 361 361" xml:space="preserve">
<g>
	<path fill="#FFFFFF" d="M180.654,141.369c-22.002-2.052-44.003-4.105-66.005-6.157c-1.807-0.168-3.366,1.104-4.317,2.477
		c-12.617,18.194-25.234,36.389-37.851,54.583c-3.134,4.519,2.739,8.753,6.841,6.841c34.619-16.142,69.238-32.284,103.856-48.426
		c5.841-2.723,0.759-11.342-5.047-8.635c-34.619,16.142-69.238,32.284-103.856,48.426c2.28,2.28,4.561,4.561,6.841,6.841
		c12.617-18.194,25.234-36.389,37.851-54.583c-1.439,0.826-2.878,1.651-4.317,2.477c22.002,2.052,44.003,4.105,66.005,6.157
		C187.076,151.968,187.018,141.962,180.654,141.369z"/>
</g>
<g>
	<path fill="#FFFFFF" d="M126.331,176.735c7.008,15.117,14.017,30.234,21.025,45.352c2.71,5.846,11.328,0.763,8.635-5.047
		c-7.008-15.117-14.017-30.234-21.025-45.352C132.256,165.842,123.638,170.925,126.331,176.735L126.331,176.735z"/>
</g>
<g>
	<path fill="#FFFFFF" d="M147.113,221.76c1.501,22.58,3.002,45.159,4.504,67.739c0.425,6.399,10.428,6.441,10,0
		c-1.501-22.58-3.002-45.159-4.504-67.739C156.688,215.36,146.685,215.319,147.113,221.76L147.113,221.76z"/>
</g>
<g>
	<path fill="none" stroke="#FFFFFF" stroke-width="10" stroke-miterlimit="10" d="M267.815,121.98c0,2.245-1.82,4.064-4.064,4.064
		h-23.371c-2.245,0-4.064-1.82-4.064-4.064V98.609c0-2.245,1.82-4.064,4.064-4.064h23.371c2.245,0,4.064,1.82,4.064,4.064V121.98z"
		/>
	<g>
		<path fill="#FFFFFF" d="M213.654,81.206c2.407,2.406,4.813,4.813,7.219,7.219c1.926,1.926,5.145,1.926,7.071,0
			s1.926-5.145,0-7.071c-2.407-2.406-4.813-4.813-7.219-7.219c-1.926-1.926-5.145-1.926-7.071,0S211.728,79.279,213.654,81.206
			L213.654,81.206z"/>
	</g>
	<g>
		<path fill="#FFFFFF" d="M182.815,115.045c11.167,0,22.333,0,33.5,0c6.449,0,6.449-10,0-10c-11.167,0-22.333,0-33.5,0
			C176.366,105.045,176.366,115.045,182.815,115.045L182.815,115.045z"/>
	</g>
	<g>
		<path fill="#FFFFFF" d="M287.225,139.634c-1.99-1.99-3.979-3.979-5.969-5.969c-1.926-1.926-5.145-1.926-7.071,0
			s-1.926,5.145,0,7.071c1.99,1.99,3.979,3.979,5.969,5.969c1.926,1.926,5.145,1.926,7.071,0S289.151,141.56,287.225,139.634
			L287.225,139.634z"/>
	</g>
	<g>
		<path fill="#FFFFFF" d="M256.565,178.795c0-11.167,0-22.333,0-33.5c0-6.449-10-6.449-10,0c0,11.167,0,22.333,0,33.5
			C246.565,185.244,256.565,185.244,256.565,178.795L256.565,178.795z"/>
	</g>
	<g>
		<path fill="#FFFFFF" d="M205.256,164.425c7.896-7.896,15.792-15.792,23.688-23.688c4.563-4.564-2.507-11.635-7.071-7.071
			c-7.896,7.896-15.792,15.792-23.688,23.688C193.622,161.917,200.692,168.988,205.256,164.425L205.256,164.425z"/>
	</g>
</g>
<g>
	<path fill="#FFFFFF" d="M113.224,145.34c8.745,6.396,17.489,12.792,26.234,19.189c5.214,3.814,10.195-4.87,5.047-8.635
		c-8.745-6.396-17.489-12.792-26.234-19.189C113.057,132.891,108.076,141.575,113.224,145.34L113.224,145.34z"/>
</g>
<g>
	<path fill="#FFFFFF" d="M116.981,177.545c0.444-9.778,0.889-19.556,1.333-29.333c0.293-6.45-9.708-6.421-10,0
		c-0.444,9.778-0.889,19.556-1.333,29.333C106.688,183.995,116.689,183.966,116.981,177.545L116.981,177.545z"/>
</g>
<g>
	<path fill="#FFFFFF" d="M179.662,234.047c4.833,18.889,9.667,37.778,14.501,56.667c1.223,4.781,8.419,4.781,9.643,0
		c4.834-18.889,9.667-37.778,14.501-56.667c0.804-3.142-1.526-6.329-4.821-6.329c-9.667,0-19.334,0-29.002,0c-6.449,0-6.449,10,0,10
		c9.667,0,19.334,0,29.002,0c-1.607-2.11-3.214-4.219-4.821-6.329c-4.834,18.889-9.667,37.778-14.501,56.667
		c3.214,0,6.428,0,9.643,0c-4.833-18.889-9.667-37.778-14.501-56.667C187.707,225.145,178.062,227.795,179.662,234.047z"/>
</g>
<path fill="none" stroke="#FFFFFF" stroke-width="10" stroke-miterlimit="10" d="M211.54,216.221
	c-0.785-0.615-1.923-0.476-2.537,0.311l-6.404,8.189c-0.615,0.786-0.476,1.923,0.311,2.537l8.188,6.404
	c0.786,0.615,1.923,0.476,2.538-0.311l6.404-8.188c0.615-0.786,0.476-1.923-0.311-2.537L211.54,216.221z"/>
<path fill="none" stroke="#FFFFFF" stroke-width="10" stroke-miterlimit="10" d="M192.831,230.118
	c0.953-0.297,1.486-1.311,1.189-2.263l-3.087-9.927c-0.296-0.952-1.31-1.485-2.262-1.188l-9.927,3.086
	c-0.953,0.297-1.485,1.311-1.189,2.263l3.087,9.926c0.296,0.954,1.309,1.487,2.263,1.19L192.831,230.118z"/>
<path fill="none" stroke="#FFFFFF" stroke-width="10" stroke-miterlimit="10" d="M206.282,212.869
	c0.437-0.898,0.063-1.98-0.834-2.417l-9.346-4.552c-0.896-0.437-1.979-0.063-2.417,0.834l-4.552,9.346
	c-0.437,0.897-0.064,1.979,0.833,2.417l9.346,4.552c0.897,0.437,1.98,0.064,2.417-0.834L206.282,212.869z"/>
</svg>
