<?xml version="1.0" encoding="iso-8859-1"?>
<!-- Generator: Adobe Illustrator 16.0.0, SVG Export Plug-In . SVG Version: 6.00 Build 0)  -->
<!DOCTYPE svg PUBLIC "-//W3C//DTD SVG 1.1 Tiny//EN" "http://www.w3.org/Graphics/SVG/1.1/DTD/svg11-tiny.dtd">
<svg version="1.1" baseProfile="tiny" id="weather_x5F_snow"
	 xmlns="http://www.w3.org/2000/svg" xmlns:xlink="http://www.w3.org/1999/xlink" x="0px" y="0px" width="361px" height="361px"
	 viewBox="0 0 361 361" xml:space="preserve">
<path fill="#FFFFFF" stroke="#FFFFFF" stroke-width="13.0628" stroke-miterlimit="10" d="M194.132,143.298
	c0,4.328-3.148,7.838-7.033,7.838h-54.512c-3.885,0-7.035-3.51-7.035-7.838V86.475c0-4.329,3.15-7.838,7.035-7.838H187.1
	c3.884,0,7.033,3.509,7.033,7.838V143.298z"/>
<path fill="#FFFFFF" stroke="#FFFFFF" stroke-width="13.0628" stroke-miterlimit="10" d="M90.937,123.703
	c0,4.329,3.509,7.838,7.838,7.838h36.576c4.328,0,7.837-3.509,7.837-7.838v-22.206c0-4.329-3.51-7.838-7.837-7.838H98.774
	c-4.329,0-7.838,3.509-7.838,7.838V123.703z"/>
<path fill="#FFFFFF" stroke="#FFFFFF" stroke-width="13.0628" stroke-miterlimit="10" d="M75.261,123.703
	c0-4.328,3.509-7.837,7.838-7.837h45.067c4.328,0,7.837,3.509,7.837,7.837v12.41c0,4.329-3.51,7.838-7.837,7.838H83.099
	c-4.329,0-7.838-3.509-7.838-7.838V123.703z"/>
<path fill="#FFFFFF" stroke="#FFFFFF" stroke-width="13.0628" stroke-miterlimit="10" d="M246.603,151.136
	c0,4.328-3.149,7.838-7.033,7.838h-54.513c-3.885,0-7.034-3.51-7.034-7.838V94.313c0-4.329,3.149-7.838,7.034-7.838h54.513
	c3.884,0,7.033,3.509,7.033,7.838V151.136z"/>
<path fill="#FFFFFF" stroke="#FFFFFF" stroke-width="13.0628" stroke-miterlimit="10" d="M230.709,144.604
	c0,4.328,3.51,7.838,7.837,7.838h36.576c4.329,0,7.838-3.51,7.838-7.838v-22.208c0-4.328-3.509-7.837-7.838-7.837h-36.576
	c-4.328,0-7.837,3.51-7.837,7.837V144.604z"/>
<path fill="#FFFFFF" stroke="#FFFFFF" stroke-width="13.0628" stroke-miterlimit="10" d="M199.576,160.28
	c0,4.328-3.149,7.837-7.033,7.837H138.03c-3.884,0-7.034-3.509-7.034-7.837v-56.824c0-4.329,3.149-7.838,7.034-7.838h54.513
	c3.884,0,7.033,3.509,7.033,7.838V160.28z"/>
<path fill="#FFFFFF" stroke="#FFFFFF" stroke-width="13.0628" stroke-miterlimit="10" d="M100.545,145.41
	c0-4.328,3.509-7.837,7.838-7.837h45.067c4.328,0,7.837,3.509,7.837,7.837v12.41c0,4.329-3.51,7.838-7.837,7.838h-45.067
	c-4.329,0-7.838-3.509-7.838-7.838V145.41z"/>
<g>
	<g>
		<g>
			<path fill="#FFFFFF" d="M227.871,188.927c-2.649,9.07-5.299,18.14-7.948,27.209c-1.269,4.343,5.487,6.185,6.75,1.861
				c2.649-9.07,5.299-18.14,7.948-27.209C235.89,186.445,229.134,184.604,227.871,188.927L227.871,188.927z"/>
		</g>
		<g>
			<path fill="#FFFFFF" d="M220.054,192.759c2.198,2.299,4.396,4.598,6.594,6.896c3.125,3.268,8.068-1.689,4.95-4.95
				c-2.198-2.299-4.396-4.598-6.594-6.896C221.879,184.542,216.936,189.498,220.054,192.759L220.054,192.759z"/>
		</g>
		<g>
			<path fill="#FFFFFF" d="M237.342,191.508c-3.09,0.754-6.18,1.508-9.27,2.263c-4.384,1.07-2.524,7.82,1.861,6.75
				c3.09-0.754,6.18-1.508,9.27-2.263C243.587,197.188,241.728,190.438,237.342,191.508L237.342,191.508z"/>
		</g>
	</g>
	<g>
		<g>
			<path fill="#FFFFFF" d="M201.23,198.713c6.53,6.829,13.06,13.658,19.589,20.488c3.125,3.268,8.068-1.689,4.95-4.95
				c-6.53-6.829-13.06-13.658-19.589-20.488C203.056,190.495,198.113,195.452,201.23,198.713L201.23,198.713z"/>
		</g>
		<g>
			<path fill="#FFFFFF" d="M200.646,207.376c3.09-0.754,6.18-1.508,9.271-2.263c4.384-1.07,2.524-7.82-1.861-6.75
				c-3.09,0.754-6.18,1.508-9.271,2.263C194.401,201.696,196.261,208.446,200.646,207.376L200.646,207.376z"/>
		</g>
		<g>
			<path fill="#FFFFFF" d="M208.197,191.734c-0.892,3.053-1.784,6.106-2.676,9.16c-1.269,4.343,5.487,6.185,6.75,1.861
				c0.892-3.053,1.784-6.106,2.676-9.16C216.216,189.252,209.46,187.411,208.197,191.734L208.197,191.734z"/>
		</g>
	</g>
	<g>
		<g>
			<path fill="#FFFFFF" d="M196.753,226.82c9.179-2.24,18.358-4.48,27.538-6.72c4.384-1.07,2.524-7.82-1.861-6.75
				c-9.179,2.24-18.358,4.48-27.538,6.72C190.508,221.14,192.368,227.89,196.753,226.82L196.753,226.82z"/>
		</g>
		<g>
			<path fill="#FFFFFF" d="M203.925,231.713c0.892-3.053,1.784-6.106,2.676-9.16c1.269-4.343-5.487-6.185-6.75-1.861
				c-0.892,3.053-1.784,6.106-2.676,9.16C195.907,234.195,202.662,236.036,203.925,231.713L203.925,231.713z"/>
		</g>
		<g>
			<path fill="#FFFFFF" d="M194.186,217.323c2.198,2.299,4.396,4.598,6.595,6.896c3.125,3.268,8.068-1.689,4.95-4.95
				c-2.198-2.299-4.396-4.598-6.595-6.896C196.011,209.105,191.067,214.062,194.186,217.323L194.186,217.323z"/>
		</g>
	</g>
	<g>
		<g>
			<path fill="#FFFFFF" d="M218.763,244.964c2.649-9.07,5.299-18.14,7.948-27.209c1.269-4.343-5.487-6.185-6.75-1.861
				c-2.649,9.07-5.299,18.14-7.948,27.209C210.744,247.446,217.5,249.288,218.763,244.964L218.763,244.964z"/>
		</g>
		<g>
			<path fill="#FFFFFF" d="M226.58,241.132c-2.198-2.299-4.396-4.598-6.594-6.897c-3.125-3.268-8.068,1.689-4.95,4.95
				c2.198,2.299,4.396,4.598,6.594,6.897C224.754,249.351,229.697,244.394,226.58,241.132L226.58,241.132z"/>
		</g>
		<g>
			<path fill="#FFFFFF" d="M209.291,242.383c3.09-0.754,6.18-1.508,9.27-2.263c4.384-1.07,2.524-7.82-1.861-6.75
				c-3.09,0.754-6.18,1.508-9.27,2.263C203.046,236.704,204.906,243.454,209.291,242.383L209.291,242.383z"/>
		</g>
	</g>
	<g>
		<g>
			<path fill="#FFFFFF" d="M245.464,234.971c-6.53-6.829-13.061-13.659-19.59-20.488c-3.125-3.268-8.068,1.689-4.95,4.95
				c6.53,6.829,13.061,13.659,19.59,20.488C243.639,243.189,248.582,238.232,245.464,234.971L245.464,234.971z"/>
		</g>
		<g>
			<path fill="#FFFFFF" d="M246.048,226.309c-3.09,0.754-6.18,1.508-9.271,2.262c-4.384,1.07-2.524,7.82,1.861,6.75
				c3.09-0.754,6.18-1.508,9.271-2.262C252.293,231.989,250.434,225.239,246.048,226.309L246.048,226.309z"/>
		</g>
		<g>
			<path fill="#FFFFFF" d="M238.498,241.95c0.892-3.053,1.784-6.106,2.675-9.159c1.269-4.343-5.487-6.185-6.75-1.861
				c-0.892,3.053-1.784,6.106-2.675,9.159C230.479,244.432,237.235,246.273,238.498,241.95L238.498,241.95z"/>
		</g>
	</g>
	<g>
		<g>
			<path fill="#FFFFFF" d="M249.941,206.863c-9.179,2.24-18.358,4.481-27.538,6.721c-4.384,1.07-2.524,7.82,1.861,6.75
				c9.179-2.24,18.358-4.481,27.538-6.721C256.186,212.543,254.326,205.793,249.941,206.863L249.941,206.863z"/>
		</g>
		<g>
			<path fill="#FFFFFF" d="M242.769,201.971c-0.892,3.053-1.784,6.106-2.676,9.16c-1.269,4.343,5.487,6.185,6.75,1.861
				c0.892-3.053,1.784-6.106,2.676-9.16C250.788,199.489,244.032,197.647,242.769,201.971L242.769,201.971z"/>
		</g>
		<g>
			<path fill="#FFFFFF" d="M252.508,216.362c-2.198-2.299-4.396-4.598-6.595-6.897c-3.125-3.268-8.068,1.689-4.95,4.95
				c2.198,2.299,4.396,4.598,6.595,6.897C250.683,224.58,255.626,219.623,252.508,216.362L252.508,216.362z"/>
		</g>
	</g>
</g>
<g>
	<g>
		<g>
			<path fill="#FFFFFF" d="M131.23,155.32c0,9.449,0,18.898,0,28.347c0,4.514,7,4.514,7,0c0-9.449,0-18.898,0-28.347
				C138.23,150.806,131.23,150.806,131.23,155.32L131.23,155.32z"/>
		</g>
		<g>
			<path fill="#FFFFFF" d="M124.715,161.196c2.755,1.59,5.51,3.181,8.264,4.771c3.917,2.261,7.44-3.789,3.533-6.044
				c-2.755-1.59-5.51-3.181-8.264-4.771C124.332,152.891,120.809,158.94,124.715,161.196L124.715,161.196z"/>
		</g>
		<g>
			<path fill="#FFFFFF" d="M141.118,155.152c-2.754,1.59-5.509,3.181-8.264,4.771c-3.907,2.255-0.383,8.305,3.533,6.044
				c2.754-1.59,5.509-3.181,8.264-4.771C148.558,158.94,145.035,152.891,141.118,155.152L141.118,155.152z"/>
		</g>
	</g>
	<g>
		<g>
			<path fill="#FFFFFF" d="M108.317,172.189c8.183,4.725,16.366,9.449,24.548,14.173c3.917,2.261,7.44-3.789,3.533-6.044
				c-8.183-4.725-16.366-9.449-24.548-14.173C107.934,163.884,104.41,169.934,108.317,172.189L108.317,172.189z"/>
		</g>
		<g>
			<path fill="#FFFFFF" d="M110.197,180.759c2.754-1.59,5.509-3.181,8.264-4.771c3.907-2.255,0.383-8.305-3.533-6.044
				c-2.754,1.59-5.509,3.181-8.264,4.771C102.757,176.971,106.28,183.021,110.197,180.759L110.197,180.759z"/>
		</g>
		<g>
			<path fill="#FFFFFF" d="M113.132,163.532c0,3.181,0,6.362,0,9.542c0,4.514,7,4.514,7,0c0-3.181,0-6.362,0-9.542
				C120.132,159.018,113.132,159.018,113.132,163.532L113.132,163.532z"/>
		</g>
	</g>
	<g>
		<g>
			<path fill="#FFFFFF" d="M111.912,200.516c8.183-4.724,16.366-9.448,24.549-14.173c3.907-2.255,0.383-8.305-3.533-6.044
				c-8.183,4.724-16.366,9.448-24.549,14.173C104.472,196.727,107.996,202.777,111.912,200.516L111.912,200.516z"/>
		</g>
		<g>
			<path fill="#FFFFFF" d="M120.241,203.21c0-3.181,0-6.362,0-9.542c0-4.514-7-4.514-7,0c0,3.181,0,6.362,0,9.542
				C113.241,207.725,120.241,207.725,120.241,203.21L120.241,203.21z"/>
		</g>
		<g>
			<path fill="#FFFFFF" d="M106.773,192.027c2.755,1.59,5.509,3.181,8.264,4.771c3.917,2.261,7.44-3.789,3.533-6.044
				c-2.755-1.59-5.509-3.181-8.264-4.771C106.39,183.722,102.866,189.772,106.773,192.027L106.773,192.027z"/>
		</g>
	</g>
	<g>
		<g>
			<path fill="#FFFFFF" d="M138.199,211.77c0-9.449,0-18.897,0-28.346c0-4.514-7-4.514-7,0c0,9.449,0,18.897,0,28.346
				C131.199,216.284,138.199,216.284,138.199,211.77L138.199,211.77z"/>
		</g>
		<g>
			<path fill="#FFFFFF" d="M144.714,205.894c-2.755-1.59-5.51-3.181-8.264-4.771c-3.917-2.261-7.44,3.789-3.533,6.044
				c2.755,1.59,5.51,3.181,8.264,4.771C145.097,214.199,148.621,208.149,144.714,205.894L144.714,205.894z"/>
		</g>
		<g>
			<path fill="#FFFFFF" d="M128.311,211.938c2.754-1.59,5.509-3.181,8.264-4.771c3.907-2.255,0.383-8.305-3.533-6.044
				c-2.754,1.59-5.509,3.181-8.264,4.771C120.871,208.149,124.395,214.199,128.311,211.938L128.311,211.938z"/>
		</g>
	</g>
	<g>
		<g>
			<path fill="#FFFFFF" d="M161.113,194.685c-8.183-4.725-16.366-9.449-24.549-14.173c-3.917-2.261-7.44,3.789-3.533,6.044
				c8.183,4.725,16.366,9.449,24.549,14.173C161.496,202.99,165.02,196.94,161.113,194.685L161.113,194.685z"/>
		</g>
		<g>
			<path fill="#FFFFFF" d="M159.232,186.115c-2.754,1.59-5.509,3.181-8.264,4.771c-3.907,2.255-0.383,8.305,3.533,6.044
				c2.754-1.59,5.509-3.181,8.264-4.771C166.672,189.903,163.149,183.854,159.232,186.115L159.232,186.115z"/>
		</g>
		<g>
			<path fill="#FFFFFF" d="M156.297,203.342c0-3.181,0-6.362,0-9.542c0-4.514-7-4.514-7,0c0,3.181,0,6.362,0,9.542
				C149.297,207.856,156.297,207.856,156.297,203.342L156.297,203.342z"/>
		</g>
	</g>
	<g>
		<g>
			<path fill="#FFFFFF" d="M157.517,166.358c-8.183,4.724-16.366,9.449-24.549,14.173c-3.907,2.255-0.383,8.305,3.533,6.044
				c8.183-4.724,16.366-9.449,24.549-14.173C164.957,170.146,161.433,164.097,157.517,166.358L157.517,166.358z"/>
		</g>
		<g>
			<path fill="#FFFFFF" d="M149.188,163.663c0,3.181,0,6.362,0,9.542c0,4.514,7,4.514,7,0c0-3.181,0-6.362,0-9.542
				C156.188,159.149,149.188,159.149,149.188,163.663L149.188,163.663z"/>
		</g>
		<g>
			<path fill="#FFFFFF" d="M162.656,174.847c-2.755-1.591-5.51-3.181-8.264-4.771c-3.917-2.261-7.44,3.789-3.533,6.044
				c2.755,1.591,5.51,3.181,8.264,4.771C163.04,183.152,166.563,177.102,162.656,174.847L162.656,174.847z"/>
		</g>
	</g>
</g>
<g>
	<g>
		<g>
			<path fill="#FFFFFF" d="M162.155,240.271c-6.681,6.682-13.362,13.363-20.044,20.044c-3.194,3.195,1.755,8.145,4.95,4.95
				c6.681-6.682,13.362-13.363,20.044-20.044C170.3,242.026,165.35,237.077,162.155,240.271L162.155,240.271z"/>
		</g>
		<g>
			<path fill="#FFFFFF" d="M153.405,239.862c0.823,3.072,1.646,6.145,2.47,9.217c1.167,4.356,7.92,2.505,6.75-1.861
				c-0.823-3.072-1.646-6.145-2.47-9.217C158.988,233.645,152.235,235.496,153.405,239.862L153.405,239.862z"/>
		</g>
		<g>
			<path fill="#FFFFFF" d="M169.309,247.155c-3.072-0.823-6.145-1.646-9.217-2.47c-4.367-1.17-6.217,5.583-1.861,6.75
				c3.072,0.823,6.145,1.646,9.217,2.47C171.814,255.075,173.665,248.322,169.309,247.155L169.309,247.155z"/>
		</g>
	</g>
	<g>
		<g>
			<path fill="#FFFFFF" d="M134.036,236.04c2.445,9.126,4.891,18.253,7.336,27.38c1.167,4.356,7.92,2.505,6.75-1.861
				c-2.445-9.126-4.891-18.253-7.336-27.38C139.619,229.823,132.866,231.673,134.036,236.04L134.036,236.04z"/>
		</g>
		<g>
			<path fill="#FFFFFF" d="M129.251,243.375c3.073,0.823,6.145,1.646,9.217,2.47c4.367,1.17,6.217-5.583,1.861-6.75
				c-3.073-0.823-6.145-1.646-9.217-2.47C126.746,235.456,124.896,242.208,129.251,243.375L129.251,243.375z"/>
		</g>
		<g>
			<path fill="#FFFFFF" d="M143.552,233.28c-2.249,2.249-4.499,4.498-6.748,6.747c-3.195,3.194,1.755,8.145,4.95,4.95
				c2.249-2.249,4.499-4.498,6.748-6.747C151.697,235.036,146.747,230.086,143.552,233.28L143.552,233.28z"/>
		</g>
	</g>
	<g>
		<g>
			<path fill="#FFFFFF" d="M116.495,258.558c9.127,2.446,18.254,4.892,27.38,7.337c4.366,1.17,6.217-5.583,1.861-6.75
				c-9.127-2.446-18.254-4.892-27.38-7.337C113.99,250.638,112.139,257.391,116.495,258.558L116.495,258.558z"/>
		</g>
		<g>
			<path fill="#FFFFFF" d="M120.522,266.364c2.249-2.25,4.498-4.499,6.748-6.748c3.194-3.195-1.755-8.145-4.95-4.95
				c-2.249,2.25-4.498,4.499-6.748,6.748C112.377,264.609,117.327,269.559,120.522,266.364L120.522,266.364z"/>
		</g>
		<g>
			<path fill="#FFFFFF" d="M118.917,248.976c0.823,3.072,1.647,6.145,2.47,9.217c1.167,4.355,7.92,2.505,6.75-1.861
				c-0.823-3.072-1.647-6.145-2.47-9.217C124.499,242.759,117.746,244.61,118.917,248.976L118.917,248.976z"/>
		</g>
	</g>
	<g>
		<g>
			<path fill="#FFFFFF" d="M127.168,285.115c6.681-6.682,13.362-13.363,20.043-20.044c3.194-3.195-1.755-8.145-4.95-4.95
				c-6.681,6.682-13.362,13.363-20.043,20.044C119.023,283.359,123.973,288.309,127.168,285.115L127.168,285.115z"/>
		</g>
		<g>
			<path fill="#FFFFFF" d="M135.917,285.523c-0.823-3.072-1.646-6.145-2.47-9.217c-1.167-4.356-7.92-2.505-6.75,1.861
				c0.823,3.072,1.646,6.145,2.47,9.217C130.334,291.741,137.087,289.89,135.917,285.523L135.917,285.523z"/>
		</g>
		<g>
			<path fill="#FFFFFF" d="M120.014,278.231c3.072,0.823,6.145,1.646,9.217,2.47c4.367,1.17,6.217-5.583,1.861-6.75
				c-3.072-0.823-6.145-1.646-9.217-2.47C117.508,270.311,115.658,277.063,120.014,278.231L120.014,278.231z"/>
		</g>
	</g>
	<g>
		<g>
			<path fill="#FFFFFF" d="M155.44,289.193c-2.446-9.127-4.892-18.254-7.337-27.381c-1.167-4.356-7.92-2.505-6.75,1.861
				c2.446,9.127,4.892,18.254,7.337,27.381C149.857,295.411,156.61,293.56,155.44,289.193L155.44,289.193z"/>
		</g>
		<g>
			<path fill="#FFFFFF" d="M160.224,281.858c-3.073-0.823-6.145-1.647-9.217-2.47c-4.366-1.17-6.217,5.583-1.861,6.75
				c3.073,0.823,6.145,1.647,9.217,2.47C162.729,289.778,164.58,283.025,160.224,281.858L160.224,281.858z"/>
		</g>
		<g>
			<path fill="#FFFFFF" d="M145.924,291.953c2.249-2.25,4.498-4.499,6.747-6.748c3.194-3.195-1.755-8.145-4.95-4.95
				c-2.249,2.25-4.498,4.499-6.747,6.748C137.78,290.198,142.729,295.147,145.924,291.953L145.924,291.953z"/>
		</g>
	</g>
	<g>
		<g>
			<path fill="#FFFFFF" d="M172.981,266.674c-9.127-2.445-18.254-4.891-27.381-7.336c-4.367-1.17-6.217,5.583-1.861,6.75
				c9.127,2.445,18.254,4.891,27.381,7.336C175.486,274.594,177.337,267.841,172.981,266.674L172.981,266.674z"/>
		</g>
		<g>
			<path fill="#FFFFFF" d="M168.954,258.868c-2.249,2.25-4.498,4.499-6.748,6.748c-3.194,3.195,1.755,8.145,4.95,4.95
				c2.249-2.25,4.498-4.499,6.748-6.748C177.099,260.624,172.149,255.674,168.954,258.868L168.954,258.868z"/>
		</g>
		<g>
			<path fill="#FFFFFF" d="M170.559,276.257c-0.823-3.072-1.646-6.145-2.47-9.217c-1.167-4.356-7.92-2.505-6.75,1.861
				c0.823,3.072,1.646,6.145,2.47,9.217C164.976,282.474,171.729,280.624,170.559,276.257L170.559,276.257z"/>
		</g>
	</g>
</g>
</svg>
