<?xml version="1.0" encoding="iso-8859-1"?>
<!-- Generator: Adobe Illustrator 16.0.0, SVG Export Plug-In . SVG Version: 6.00 Build 0)  -->
<!DOCTYPE svg PUBLIC "-//W3C//DTD SVG 1.1 Tiny//EN" "http://www.w3.org/Graphics/SVG/1.1/DTD/svg11-tiny.dtd">
<svg version="1.1" baseProfile="tiny" id="weather_x5F_rain_x5F_heavy"
	 xmlns="http://www.w3.org/2000/svg" xmlns:xlink="http://www.w3.org/1999/xlink" x="0px" y="0px" width="361px" height="361px"
	 viewBox="0 0 361 361" xml:space="preserve">
<path fill="#FFFFFF" stroke="#FFFFFF" stroke-width="13.0628" stroke-miterlimit="10" d="M193.686,143.951
	c0,4.329-3.148,7.838-7.033,7.838h-54.512c-3.885,0-7.035-3.51-7.035-7.838V87.128c0-4.329,3.15-7.838,7.035-7.838h54.512
	c3.884,0,7.033,3.509,7.033,7.838V143.951z"/>
<path fill="#FFFFFF" stroke="#FFFFFF" stroke-width="13.0628" stroke-miterlimit="10" d="M90.49,124.356
	c0,4.329,3.509,7.838,7.838,7.838h36.576c4.328,0,7.837-3.509,7.837-7.838V102.15c0-4.329-3.51-7.838-7.837-7.838H98.328
	c-4.329,0-7.838,3.509-7.838,7.838V124.356z"/>
<path fill="#FFFFFF" stroke="#FFFFFF" stroke-width="13.0628" stroke-miterlimit="10" d="M74.815,124.356
	c0-4.328,3.509-7.837,7.838-7.837h45.067c4.328,0,7.837,3.509,7.837,7.837v12.41c0,4.329-3.51,7.838-7.837,7.838H82.653
	c-4.329,0-7.838-3.509-7.838-7.838V124.356z"/>
<g>
	<path fill="#FFFFFF" d="M171.274,173.833c-5.5,9.526-11,19.052-16.5,28.579c-3.23,5.595,5.412,10.628,8.635,5.047
		c5.5-9.526,11-19.052,16.5-28.579C183.139,173.285,174.497,168.251,171.274,173.833L171.274,173.833z"/>
</g>
<g>
	<path fill="#FFFFFF" d="M167.784,149.878c-5.5,9.526-11,19.052-16.5,28.579c-3.23,5.595,5.412,10.628,8.635,5.047
		c5.5-9.526,11-19.052,16.5-28.579C179.649,149.33,171.006,144.296,167.784,149.878L167.784,149.878z"/>
</g>
<g>
	<path fill="#FFFFFF" d="M141.784,194.911c-5.5,9.526-11,19.053-16.5,28.579c-3.23,5.595,5.412,10.628,8.635,5.047
		c5.5-9.526,11-19.053,16.5-28.579C153.649,194.363,145.006,189.33,141.784,194.911L141.784,194.911z"/>
</g>
<g>
	<path fill="#FFFFFF" d="M145.293,158.833c-5.5,9.526-11,19.053-16.5,28.579c-3.23,5.595,5.413,10.628,8.635,5.047
		c5.5-9.526,11-19.053,16.5-28.579C157.158,158.284,148.515,153.251,145.293,158.833L145.293,158.833z"/>
</g>
<g>
	<path fill="#FFFFFF" d="M141.803,134.878c-5.5,9.526-11,19.053-16.5,28.579c-3.23,5.595,5.412,10.628,8.635,5.047
		c5.5-9.526,11-19.053,16.5-28.579C153.668,134.33,145.025,129.296,141.803,134.878L141.803,134.878z"/>
</g>
<g>
	<path fill="#FFFFFF" d="M115.803,179.911c-5.5,9.526-11,19.053-16.5,28.579c-3.23,5.595,5.413,10.628,8.635,5.047
		c5.5-9.526,11-19.053,16.5-28.579C127.668,179.363,119.025,174.33,115.803,179.911L115.803,179.911z"/>
</g>
<g>
	<path fill="#FFFFFF" d="M119.793,203c-5.5,9.526-11,19.052-16.5,28.579c-3.23,5.595,5.412,10.628,8.635,5.047
		c5.5-9.526,11-19.052,16.5-28.579C131.659,202.452,123.016,197.418,119.793,203L119.793,203z"/>
</g>
<g>
	<path fill="#FFFFFF" d="M146.793,217c-5.5,9.526-11,19.052-16.5,28.579c-3.23,5.595,5.412,10.628,8.635,5.047
		c5.5-9.526,11-19.052,16.5-28.579C158.659,216.452,150.016,211.418,146.793,217L146.793,217z"/>
</g>
<g>
	<path fill="#FFFFFF" d="M224.595,174.393c-5.5,9.526-11,19.052-16.5,28.579c-3.23,5.595,5.412,10.628,8.635,5.047
		c5.5-9.526,11-19.052,16.5-28.579C236.46,173.845,227.817,168.812,224.595,174.393L224.595,174.393z"/>
</g>
<g>
	<path fill="#FFFFFF" d="M221.104,150.438c-5.5,9.526-11,19.052-16.5,28.579c-3.23,5.595,5.412,10.628,8.635,5.047
		c5.5-9.526,11-19.052,16.5-28.579C232.97,149.891,224.327,144.857,221.104,150.438L221.104,150.438z"/>
</g>
<g>
	<path fill="#FFFFFF" d="M195.104,195.472c-5.5,9.526-11,19.053-16.5,28.579c-3.23,5.595,5.412,10.628,8.635,5.047
		c5.5-9.526,11-19.053,16.5-28.579C206.97,194.924,198.327,189.89,195.104,195.472L195.104,195.472z"/>
</g>
<g>
	<path fill="#FFFFFF" d="M198.614,159.393c-5.5,9.526-11,19.053-16.5,28.579c-3.23,5.595,5.413,10.628,8.635,5.047
		c5.5-9.526,11-19.053,16.5-28.579C210.479,158.845,201.836,153.812,198.614,159.393L198.614,159.393z"/>
</g>
<g>
	<path fill="#FFFFFF" d="M173.114,203.561c-5.5,9.526-11,19.052-16.5,28.579c-3.23,5.595,5.412,10.628,8.635,5.047
		c5.5-9.526,11-19.052,16.5-28.579C184.979,203.013,176.337,197.979,173.114,203.561L173.114,203.561z"/>
</g>
<g>
	<path fill="#FFFFFF" d="M200.114,217.561c-5.5,9.526-11,19.052-16.5,28.579c-3.23,5.595,5.412,10.628,8.635,5.047
		c5.5-9.526,11-19.052,16.5-28.579C211.979,217.013,203.337,211.979,200.114,217.561L200.114,217.561z"/>
</g>
<path fill="#FFFFFF" stroke="#FFFFFF" stroke-width="13.0628" stroke-miterlimit="10" d="M246.156,151.79
	c0,4.328-3.149,7.837-7.033,7.837H184.61c-3.885,0-7.034-3.509-7.034-7.837V94.966c0-4.329,3.149-7.838,7.034-7.838h54.513
	c3.884,0,7.033,3.509,7.033,7.838V151.79z"/>
<path fill="#FFFFFF" stroke="#FFFFFF" stroke-width="13.0628" stroke-miterlimit="10" d="M230.263,145.257
	c0,4.329,3.51,7.838,7.837,7.838h36.576c4.329,0,7.838-3.509,7.838-7.838V123.05c0-4.328-3.509-7.837-7.838-7.837H238.1
	c-4.328,0-7.837,3.51-7.837,7.837V145.257z"/>
<path fill="#FFFFFF" stroke="#FFFFFF" stroke-width="13.0628" stroke-miterlimit="10" d="M199.13,160.934
	c0,4.328-3.149,7.837-7.033,7.837h-54.513c-3.884,0-7.034-3.509-7.034-7.837v-56.824c0-4.329,3.149-7.838,7.034-7.838h54.513
	c3.884,0,7.033,3.509,7.033,7.838V160.934z"/>
<g>
	<path fill="#FFFFFF" d="M95.743,244.114c-5.813,9.338-11.625,18.677-17.438,28.016c-3.418,5.492,5.236,10.508,8.635,5.047
		c5.813-9.338,11.625-18.677,17.438-28.016C107.795,243.669,99.142,238.653,95.743,244.114L95.743,244.114z"/>
</g>
<g>
	<path fill="#FFFFFF" d="M117.369,237.753c-5.5,9.526-11,19.052-16.5,28.578c-3.23,5.596,5.412,10.629,8.635,5.047
		c5.5-9.525,11-19.052,16.5-28.578C129.234,237.206,120.592,232.172,117.369,237.753L117.369,237.753z"/>
</g>
<g>
	<path fill="#FFFFFF" d="M146.345,247.85c-5.5,9.526-11,19.052-16.5,28.579c-3.23,5.595,5.412,10.628,8.635,5.047
		c5.5-9.526,11-19.052,16.5-28.579C158.21,247.302,149.567,242.268,146.345,247.85L146.345,247.85z"/>
</g>
<g>
	<path fill="#FFFFFF" d="M122.043,258.207c-5.5,9.526-11,19.052-16.5,28.579c-3.23,5.595,5.412,10.629,8.635,5.047
		c5.5-9.525,11-19.052,16.5-28.579C133.909,257.659,125.266,252.625,122.043,258.207L122.043,258.207z"/>
</g>
<g>
	<path fill="#FFFFFF" d="M252.841,158.393c-5.5,9.526-11,19.052-16.5,28.579c-3.23,5.595,5.412,10.628,8.635,5.047
		c5.5-9.526,11-19.052,16.5-28.579C264.706,157.845,256.063,152.812,252.841,158.393L252.841,158.393z"/>
</g>
<g>
	<path fill="#FFFFFF" d="M228.36,201.561c-5.5,9.526-11,19.052-16.5,28.579c-3.23,5.595,5.412,10.628,8.635,5.047
		c5.5-9.526,11-19.052,16.5-28.579C240.226,201.013,231.583,195.979,228.36,201.561L228.36,201.561z"/>
</g>
<g>
	<path fill="#FFFFFF" d="M202.604,246.478c-4.313,7.471-8.627,14.943-12.941,22.415c-3.23,5.595,5.413,10.628,8.635,5.047
		c4.313-7.471,8.627-14.943,12.941-22.415C214.47,245.93,205.827,240.896,202.604,246.478L202.604,246.478z"/>
</g>
<g>
	<path fill="#FFFFFF" d="M169.114,240.621c-5.5,9.526-11,19.052-16.5,28.578c-3.23,5.596,5.412,10.629,8.635,5.047
		c5.5-9.525,11-19.052,16.5-28.578C180.979,240.073,172.337,235.039,169.114,240.621L169.114,240.621z"/>
</g>
<g>
	<path fill="#FFFFFF" d="M175.354,260.428c-4.948,8.571-9.897,17.142-14.845,25.712c-3.23,5.595,5.413,10.628,8.635,5.047
		c4.948-8.571,9.897-17.142,14.845-25.712C187.22,259.88,178.577,254.847,175.354,260.428L175.354,260.428z"/>
</g>
<g>
	<path fill="#FFFFFF" d="M91.659,220.684c-5.947,9.253-11.894,18.507-17.841,27.761c-3.498,5.442,5.162,10.452,8.635,5.047
		c5.947-9.253,11.894-18.507,17.841-27.761C103.791,220.289,95.132,215.279,91.659,220.684L91.659,220.684z"/>
</g>
<g>
	<path fill="#FFFFFF" d="M118.793,145.104c-5.5,9.526-11,19.053-16.5,28.579c-3.23,5.595,5.413,10.628,8.635,5.047
		c5.5-9.526,11-19.053,16.5-28.579C130.658,144.556,122.015,139.522,118.793,145.104L118.793,145.104z"/>
</g>
<g>
	<path fill="#FFFFFF" d="M93.3,189.271c-5.5,9.526-11,19.053-16.5,28.579c-3.23,5.595,5.413,10.628,8.635,5.047
		c5.5-9.526,11-19.053,16.5-28.579C105.165,188.723,96.522,183.689,93.3,189.271L93.3,189.271z"/>
</g>
</svg>
