<?xml version="1.0" encoding="iso-8859-1"?>
<!-- Generator: Adobe Illustrator 16.0.0, SVG Export Plug-In . SVG Version: 6.00 Build 0)  -->
<!DOCTYPE svg PUBLIC "-//W3C//DTD SVG 1.1//EN" "http://www.w3.org/Graphics/SVG/1.1/DTD/svg11.dtd">
<svg version="1.1" xmlns="http://www.w3.org/2000/svg" xmlns:xlink="http://www.w3.org/1999/xlink" x="0px" y="0px" width="361px"
	 height="361px" viewBox="0 0 361 361" style="enable-background:new 0 0 361 361;" xml:space="preserve">
<g id="weather_x5F_night_x5F_cloudy">
	<g>
		<g>
			<g>
				<path style="fill:#FFFFFF;" d="M87.684,194.604c-15.198-26.286-6.709-59.835,19.248-75.643
					c5.498-3.348,0.476-11.999-5.047-8.635c-30.584,18.625-40.774,58.299-22.836,89.324
					C82.275,205.229,90.918,200.196,87.684,194.604L87.684,194.604z"/>
			</g>
		</g>
		<g>
			<g>
				<path style="fill:#FFFFFF;" d="M163.195,213.632c-26.286,15.197-59.834,6.709-75.642-19.248
					c-3.348-5.497-11.999-0.477-8.635,5.047c18.625,30.584,58.298,40.773,89.323,22.836
					C173.821,219.041,168.788,210.398,163.195,213.632L163.195,213.632z"/>
			</g>
		</g>
		<g>
			<g>
				<path style="fill:#FFFFFF;" d="M165.718,212.949c-22.591,2.954-47.708-11.637-59.346-30.656
					c-2.394-3.913-9.922-2.692-9.317,2.523c0.005,0.041,0.009,0.081,0.014,0.122c3.106-0.841,6.211-1.683,9.317-2.523
					c-10.97-19.153-8.888-46.715,2.312-65.322c3.334-5.54-5.314-10.563-8.635-5.047c-13.031,21.647-15.029,53.211-2.312,75.416
					c2.317,4.045,9.912,2.601,9.317-2.523c-0.005-0.041-0.009-0.081-0.014-0.122c-3.106,0.841-6.211,1.683-9.317,2.523
					c13.287,21.714,42.021,39.004,67.981,35.609C172.019,222.126,172.099,212.115,165.718,212.949L165.718,212.949z"/>
			</g>
		</g>
	</g>
	<path style="fill:#FFFFFF;stroke:#FFFFFF;stroke-miterlimit:10;" d="M213.833,103.667c0,1.519-1.231,2.75-2.75,2.75l0,0
		c-1.519,0-2.75-1.231-2.75-2.75l0,0c0-1.519,1.231-2.75,2.75-2.75l0,0C212.602,100.917,213.833,102.148,213.833,103.667
		L213.833,103.667z"/>
	<path style="fill:#FFFFFF;stroke:#FFFFFF;stroke-miterlimit:10;" d="M171.592,126.638c0,2.319-1.881,4.2-4.2,4.2l0,0
		c-2.319,0-4.2-1.881-4.2-4.2l0,0c0-2.319,1.881-4.2,4.2-4.2l0,0C169.711,122.438,171.592,124.319,171.592,126.638L171.592,126.638z
		"/>
	<g style="display:none;">
		<g style="display:inline;">
			<g>
				<path style="fill:#FFFFFF;" d="M245.664,220.188c7.542-0.081,15.083-0.162,22.625-0.243c1.934-0.021,1.936-3.021,0-3
					c-7.542,0.081-15.083,0.162-22.625,0.243C243.73,217.209,243.729,220.209,245.664,220.188L245.664,220.188z"/>
			</g>
		</g>
		<g style="display:inline;">
			<g>
				<path style="fill:#FFFFFF;" d="M195.88,197.482c29.01,0,58.02,0,87.029,0c1.935,0,1.935-3,0-3c-29.01,0-58.02,0-87.029,0
					C193.945,194.482,193.945,197.482,195.88,197.482L195.88,197.482z"/>
			</g>
		</g>
		<g style="display:inline;">
			<g>
				<path style="fill:#FFFFFF;" d="M171.624,203.068c39.569,0,79.138,0,118.707,0c1.935,0,1.935-3,0-3c-39.568,0-79.138,0-118.707,0
					C169.689,200.068,169.689,203.068,171.624,203.068L171.624,203.068z"/>
			</g>
		</g>
		<g style="display:inline;">
			<g>
				<path style="fill:#FFFFFF;" d="M162.142,220.066c22.57,0,45.142,0,67.712,0c1.935,0,1.935-3,0-3c-22.57,0-45.142,0-67.712,0
					C160.207,217.066,160.207,220.066,162.142,220.066L162.142,220.066z"/>
			</g>
		</g>
		<g style="display:inline;">
			<g>
				<path style="fill:#FFFFFF;" d="M216.968,223.242c-16.861,0-33.722,0-50.583,0c-1.935,0-1.935,3,0,3c16.861,0,33.722,0,50.583,0
					C218.902,226.242,218.902,223.242,216.968,223.242L216.968,223.242z"/>
			</g>
		</g>
		<g style="display:inline;">
			<g>
				<path style="fill:#FFFFFF;" d="M278.551,273.076c-11.199,0-22.398,0-33.598,0c-1.935,0-1.935,3,0,3c11.199,0,22.398,0,33.598,0
					C280.485,276.076,280.485,273.076,278.551,273.076L278.551,273.076z"/>
			</g>
		</g>
		<g style="display:inline;">
			<g>
				<path style="fill:#FFFFFF;" d="M289.939,267.49c-26.695,0-53.391,0-80.086,0c-1.935,0-1.935,3,0,3c26.695,0,53.391,0,80.086,0
					C291.874,270.49,291.874,267.49,289.939,267.49L289.939,267.49z"/>
			</g>
		</g>
		<g style="display:inline;">
			<g>
				<path style="fill:#FFFFFF;" d="M120.385,243.482c34.146,0,68.293,0,102.439,0c1.935,0,1.935-3,0-3c-34.146,0-68.293,0-102.439,0
					C118.45,240.482,118.45,243.482,120.385,243.482L120.385,243.482z"/>
			</g>
		</g>
		<g style="display:inline;">
			<g>
				<path style="fill:#FFFFFF;" d="M150.604,250.068c32.628,0,65.257,0,97.886,0c1.935,0,1.935-3,0-3c-32.629,0-65.258,0-97.886,0
					C148.669,247.068,148.669,250.068,150.604,250.068L150.604,250.068z"/>
			</g>
		</g>
		<g style="display:inline;">
			<g>
				<path style="fill:#FFFFFF;" d="M224.839,210.79c-16.861,0-33.722,0-50.583,0c-1.935,0-1.935,3,0,3c16.861,0,33.722,0,50.583,0
					C226.773,213.79,226.773,210.79,224.839,210.79L224.839,210.79z"/>
			</g>
		</g>
	</g>
	<path style="fill:#FFFFFF;stroke:#FFFFFF;stroke-miterlimit:10;" d="M150.35,163.956c0,1.519-1.231,2.75-2.75,2.75l0,0
		c-1.519,0-2.75-1.231-2.75-2.75l0,0c0-1.519,1.231-2.75,2.75-2.75l0,0C149.119,161.206,150.35,162.438,150.35,163.956
		L150.35,163.956z"/>
	<path style="fill:#FFFFFF;stroke:#FFFFFF;stroke-miterlimit:10;" d="M275.086,133.626c0,1.519-1.23,2.75-2.75,2.75l0,0
		c-1.518,0-2.75-1.231-2.75-2.75l0,0c0-1.519,1.232-2.75,2.75-2.75l0,0C273.855,130.876,275.086,132.108,275.086,133.626
		L275.086,133.626z"/>
	<g>
		<path style="fill:#FFFFFF;" d="M223.129,131.32c0,0.744-0.604,1.347-1.347,1.347h-0.449c-0.743,0-1.347-0.603-1.347-1.347v-0.449
			c0-0.744,0.604-1.347,1.347-1.347h0.449c0.743,0,1.347,0.603,1.347,1.347V131.32z"/>
		<g>
			<path style="fill:#FFFFFF;" d="M221.629,131.32c0.006-0.092,0.049-0.103,0.1-0.166c-0.201,0.255-0.1,0.053-0.014,0.025
				c0.142-0.045-0.292-0.012-0.382-0.012c0.091,0,0.105,0.052,0.167,0.1c-0.256-0.202-0.054-0.1-0.026-0.014
				c0.045,0.141,0.013-0.292,0.013-0.382c0,0.091-0.052,0.105-0.1,0.166c0.201-0.255,0.1-0.053,0.014-0.025
				c-0.142,0.045,0.292,0.012,0.382,0.012c-0.091,0-0.105-0.052-0.167-0.1c0.256,0.202,0.054,0.1,0.026,0.014
				C221.597,130.797,221.629,131.23,221.629,131.32c0,1.935,3,1.935,3,0c0-0.662-0.082-1.228-0.362-1.839
				c-0.432-0.939-1.521-1.396-2.484-1.457c-1.78-0.111-3.185,1.05-3.296,2.847c-0.11,1.78,1.05,3.184,2.847,3.296
				c1.78,0.111,3.185-1.05,3.296-2.847c0.051-0.817-0.721-1.5-1.5-1.5C222.272,129.82,221.68,130.504,221.629,131.32z"/>
		</g>
	</g>
	<path style="fill:#FFFFFF;stroke:#FFFFFF;stroke-miterlimit:10;" d="M205.582,146.721c0,0.834-0.675,1.51-1.508,1.51l0,0
		c-0.833,0-1.508-0.676-1.508-1.51l0,0c0-0.834,0.675-1.51,1.508-1.51l0,0C204.907,145.21,205.582,145.887,205.582,146.721
		L205.582,146.721z"/>
	<path style="fill:#FFFFFF;stroke:#FFFFFF;stroke-miterlimit:10;" d="M231.833,235.473c1.519,0,2.75,1.23,2.75,2.75l0,0
		c0,1.518-1.231,2.75-2.75,2.75l0,0c-1.519,0-2.75-1.232-2.75-2.75l0,0C229.083,236.703,230.314,235.473,231.833,235.473
		L231.833,235.473z"/>
	<path style="fill:#FFFFFF;stroke:#FFFFFF;stroke-miterlimit:10;" d="M195.333,194.777c1.597,0,2.89,1.293,2.89,2.89l0,0
		c0,1.597-1.293,2.89-2.89,2.89l0,0c-1.597,0-2.89-1.293-2.89-2.89l0,0C192.443,196.07,193.736,194.777,195.333,194.777
		L195.333,194.777z"/>
	<path style="fill:#FFFFFF;stroke:#FFFFFF;stroke-miterlimit:10;" d="M213.833,230.414c1.126,0,2.037,0.912,2.037,2.037v0.679
		c0,1.126-0.911,2.037-2.037,2.037h-0.679c-1.126,0-2.037-0.911-2.037-2.037v-0.679c0-1.125,0.911-2.037,2.037-2.037H213.833z"/>
	<path style="fill:#FFFFFF;stroke:#FFFFFF;stroke-miterlimit:10;" d="M203.504,167.965c1.519,0,2.75,1.231,2.75,2.75l0,0
		c0,1.519-1.231,2.75-2.75,2.75l0,0c-1.519,0-2.75-1.231-2.75-2.75l0,0C200.754,169.197,201.985,167.965,203.504,167.965
		L203.504,167.965z"/>
	<g>
		<path style="fill:#FFFFFF;" d="M210.662,219.611c0.744,0,1.348,0.604,1.348,1.348v0.449c0,0.743-0.604,1.346-1.348,1.346h-0.449
			c-0.744,0-1.347-0.603-1.347-1.346v-0.449c0-0.744,0.603-1.348,1.347-1.348H210.662z"/>
		<g>
			<path style="fill:#FFFFFF;" d="M210.662,221.111c-0.093-0.006-0.103-0.049-0.166-0.1c0.256,0.202,0.054,0.1,0.026,0.015
				c-0.045-0.142-0.013,0.292-0.013,0.382c0-0.091,0.052-0.106,0.1-0.167c-0.202,0.256-0.1,0.053-0.015,0.025
				c0.142-0.045-0.292-0.013-0.382-0.013c0.091,0,0.105,0.052,0.166,0.1c-0.255-0.201-0.053-0.099-0.025-0.013
				c0.046,0.142,0.013-0.292,0.013-0.382c0,0.091-0.052,0.105-0.1,0.166c0.201-0.255,0.1-0.054,0.014-0.026
				C210.139,221.144,210.572,221.111,210.662,221.111c1.935,0,1.935-3,0-3c-0.662,0-1.228,0.082-1.84,0.362
				c-0.939,0.432-1.396,1.522-1.456,2.485c-0.11,1.78,1.05,3.184,2.847,3.295c1.78,0.11,3.186-1.049,3.297-2.846
				c0.11-1.781-1.051-3.186-2.848-3.297c-0.816-0.051-1.5,0.721-1.5,1.5C209.162,220.468,209.847,221.061,210.662,221.111z"/>
		</g>
	</g>
	<path style="fill:#FFFFFF;stroke:#FFFFFF;stroke-miterlimit:10;" d="M268.833,192.917c1.519,0,2.75,1.231,2.75,2.75l0,0
		c0,1.519-1.231,2.75-2.75,2.75l0,0c-1.519,0-2.75-1.231-2.75-2.75l0,0C266.083,194.148,267.314,192.917,268.833,192.917
		L268.833,192.917z"/>
	<path style="fill:#FFFFFF;stroke:#FFFFFF;stroke-miterlimit:10;" d="M234.823,131.659c0.834,0,1.51,0.675,1.51,1.508l0,0
		c0,0.833-0.676,1.508-1.51,1.508l0,0c-0.834,0-1.511-0.675-1.511-1.508l0,0C233.313,132.334,233.989,131.659,234.823,131.659
		L234.823,131.659z"/>
	<path style="fill:#FFFFFF;stroke:#FFFFFF;stroke-miterlimit:10;" d="M261.833,163.167c0,1.519-1.231,2.75-2.75,2.75l0,0
		c-1.519,0-2.75-1.231-2.75-2.75l0,0c0-1.519,1.231-2.75,2.75-2.75l0,0C260.602,160.417,261.833,161.648,261.833,163.167
		L261.833,163.167z"/>
	<g>
		<path style="fill:#FFFFFF;stroke:#FFFFFF;stroke-width:10;stroke-miterlimit:10;" d="M195.99,253.915
			c0,4.428-3.223,8.018-7.197,8.018h-55.772c-3.974,0-7.196-3.59-7.196-8.018v-58.138c0-4.428,3.222-8.019,7.196-8.019h55.772
			c3.975,0,7.197,3.591,7.197,8.019V253.915z"/>
		<path style="fill:#FFFFFF;stroke:#FFFFFF;stroke-width:10;stroke-miterlimit:10;" d="M93.37,243.135
			c0-6.508,4.313-11.786,9.632-11.786h55.383c5.319,0,9.632,5.278,9.632,11.786v18.661c0,6.509-4.313,11.787-9.632,11.787h-55.383
			c-5.319,0-9.632-5.278-9.632-11.787V243.135z"/>
		<path style="fill:#FFFFFF;stroke:#FFFFFF;stroke-width:10;stroke-miterlimit:10;" d="M249.672,269.933
			c0,4.43-3.222,8.02-7.195,8.02h-55.773c-3.974,0-7.196-3.59-7.196-8.02v-58.136c0-4.429,3.223-8.02,7.196-8.02h55.773
			c3.974,0,7.195,3.591,7.195,8.02V269.933z"/>
		<path style="fill:#FFFFFF;stroke:#FFFFFF;stroke-width:10;stroke-miterlimit:10;" d="M233.411,263.251
			c0,4.428,3.591,8.02,8.019,8.02h37.422c4.428,0,8.019-3.592,8.019-8.02V240.53c0-4.428-3.591-8.019-8.019-8.019H241.43
			c-4.428,0-8.019,3.591-8.019,8.019V263.251z"/>
		<path style="fill:#FFFFFF;stroke:#FFFFFF;stroke-width:10;stroke-miterlimit:10;" d="M201.559,279.288
			c0,4.43-3.222,8.02-7.195,8.02H138.59c-3.974,0-7.197-3.59-7.197-8.02v-58.136c0-4.429,3.223-8.02,7.197-8.02h55.773
			c3.974,0,7.195,3.591,7.195,8.02V279.288z"/>
		<path style="fill:#FFFFFF;stroke:#FFFFFF;stroke-width:10;stroke-miterlimit:10;" d="M74.87,225.635
			c0-6.508,4.313-11.786,9.632-11.786h45.382c5.319,0,9.632,5.278,9.632,11.786v12.661c0,6.51-4.313,11.787-9.632,11.787H84.502
			c-5.319,0-9.632-5.277-9.632-11.787V225.635z"/>
	</g>
</g>
<g id="Ebene_1">
</g>
</svg>
