<?xml version="1.0" encoding="iso-8859-1"?>
<!-- Generator: Adobe Illustrator 16.0.0, SVG Export Plug-In . SVG Version: 6.00 Build 0)  -->
<!DOCTYPE svg PUBLIC "-//W3C//DTD SVG 1.1//EN" "http://www.w3.org/Graphics/SVG/1.1/DTD/svg11.dtd">
<svg version="1.1" xmlns="http://www.w3.org/2000/svg" xmlns:xlink="http://www.w3.org/1999/xlink" x="0px" y="0px" width="361px"
	 height="361px" viewBox="0 0 361 361" style="enable-background:new 0 0 361 361;" xml:space="preserve">
<g id="weather_x5F_rain_x5F_light">
	<path style="fill:#FFFFFF;stroke:#FFFFFF;stroke-width:13.0628;stroke-miterlimit:10;" d="M196.204,141.073
		c0,4.329-3.148,7.838-7.032,7.838H134.66c-3.885,0-7.035-3.51-7.035-7.838V84.25c0-4.329,3.15-7.838,7.035-7.838h54.512
		c3.884,0,7.032,3.509,7.032,7.838V141.073z"/>
	<path style="fill:#FFFFFF;stroke:#FFFFFF;stroke-width:13.0628;stroke-miterlimit:10;" d="M93.008,121.479
		c0,4.329,3.509,7.838,7.838,7.838h36.576c4.328,0,7.837-3.509,7.837-7.838V99.272c0-4.329-3.51-7.838-7.837-7.838h-36.576
		c-4.329,0-7.838,3.509-7.838,7.838V121.479z"/>
	<path style="fill:#FFFFFF;stroke:#FFFFFF;stroke-width:13.0628;stroke-miterlimit:10;" d="M77.333,121.479
		c0-4.328,3.509-7.837,7.838-7.837h45.067c4.328,0,7.837,3.509,7.837,7.837v12.41c0,4.329-3.51,7.838-7.837,7.838H85.171
		c-4.329,0-7.838-3.509-7.838-7.838V121.479z"/>
	<g>
		<g>
			<path style="fill:#FFFFFF;" d="M144.321,132c-5.5,9.526-11,19.053-16.5,28.579c-3.23,5.595,5.412,10.628,8.635,5.047
				c5.5-9.526,11-19.053,16.5-28.579C156.186,131.452,147.543,126.418,144.321,132L144.321,132z"/>
		</g>
	</g>
	<path style="fill:#FFFFFF;stroke:#FFFFFF;stroke-width:13.0628;stroke-miterlimit:10;" d="M248.674,148.912
		c0,4.328-3.148,7.837-7.033,7.837h-54.512c-3.885,0-7.035-3.509-7.035-7.837V92.088c0-4.329,3.15-7.838,7.035-7.838h54.512
		c3.885,0,7.033,3.509,7.033,7.838V148.912z"/>
	<path style="fill:#FFFFFF;stroke:#FFFFFF;stroke-width:13.0628;stroke-miterlimit:10;" d="M232.781,142.379
		c0,4.329,3.51,7.838,7.837,7.838h36.576c4.329,0,7.838-3.509,7.838-7.838v-22.207c0-4.328-3.509-7.837-7.838-7.837h-36.576
		c-4.327,0-7.837,3.51-7.837,7.837V142.379z"/>
	<path style="fill:#FFFFFF;stroke:#FFFFFF;stroke-width:13.0628;stroke-miterlimit:10;" d="M201.648,158.056
		c0,4.328-3.149,7.837-7.033,7.837h-54.513c-3.884,0-7.034-3.509-7.034-7.837v-56.824c0-4.329,3.149-7.838,7.034-7.838h54.513
		c3.884,0,7.033,3.509,7.033,7.838V158.056z"/>
	<g>
		<g>
			<path style="fill:#FFFFFF;" d="M212.539,198.721c-4.629,7.951-9.258,15.902-13.887,23.854c-3.251,5.584,5.393,10.616,8.635,5.047
				c4.629-7.951,9.258-15.903,13.887-23.854C224.425,198.184,215.781,193.151,212.539,198.721L212.539,198.721z"/>
		</g>
	</g>
	<g>
		<g>
			<path style="fill:#FFFFFF;" d="M240.78,150.416c-4.629,7.951-9.258,15.903-13.887,23.854c-3.251,5.584,5.393,10.616,8.635,5.047
				c4.629-7.951,9.258-15.903,13.887-23.854C252.666,149.878,244.022,144.847,240.78,150.416L240.78,150.416z"/>
		</g>
	</g>
	<g>
		<g>
			<g>
				<path style="fill:#FFFFFF;" d="M170.539,217.585c-4.629,7.951-9.258,15.903-13.887,23.854
					c-3.251,5.584,5.393,10.616,8.635,5.047c4.629-7.951,9.258-15.902,13.887-23.854
					C182.425,217.048,173.781,212.016,170.539,217.585L170.539,217.585z"/>
			</g>
		</g>
		<g>
			<g>
				<path style="fill:#FFFFFF;" d="M198.78,169.28c-4.629,7.951-9.258,15.903-13.887,23.854c-3.251,5.584,5.393,10.616,8.635,5.047
					c4.629-7.951,9.258-15.902,13.887-23.854C210.666,168.743,202.022,163.711,198.78,169.28L198.78,169.28z"/>
			</g>
		</g>
		<g>
			<g>
				<path style="fill:#FFFFFF;" d="M227.022,120.976c-4.629,7.951-9.258,15.903-13.887,23.854
					c-3.251,5.584,5.393,10.616,8.635,5.047c4.629-7.951,9.258-15.903,13.887-23.854
					C238.908,120.438,230.265,115.407,227.022,120.976L227.022,120.976z"/>
			</g>
		</g>
	</g>
	<g>
		<g>
			<path style="fill:#FFFFFF;" d="M134.298,231.025c-2.902,4.984-5.803,9.969-8.705,14.953c-3.251,5.584,5.393,10.616,8.635,5.047
				c2.902-4.984,5.803-9.969,8.705-14.953C146.184,230.488,137.54,225.456,134.298,231.025L134.298,231.025z"/>
		</g>
	</g>
	<g>
		<g>
			<path style="fill:#FFFFFF;" d="M162.539,182.721c-4.629,7.951-9.258,15.902-13.887,23.854c-3.251,5.584,5.393,10.616,8.635,5.047
				c4.629-7.951,9.258-15.903,13.887-23.854C174.425,182.184,165.781,177.152,162.539,182.721L162.539,182.721z"/>
		</g>
	</g>
	<g>
		<g>
			<path style="fill:#FFFFFF;" d="M190.78,134.416c-4.629,7.951-9.258,15.903-13.887,23.854c-3.251,5.584,5.393,10.616,8.635,5.047
				c4.629-7.951,9.258-15.903,13.887-23.854C202.666,133.878,194.022,128.847,190.78,134.416L190.78,134.416z"/>
		</g>
	</g>
	<g>
		<g>
			<path style="fill:#FFFFFF;" d="M123.354,194.721c-4.629,7.951-9.258,15.902-13.887,23.854c-3.251,5.584,5.393,10.616,8.635,5.047
				c4.629-7.951,9.258-15.903,13.887-23.854C135.24,194.184,126.596,189.151,123.354,194.721L123.354,194.721z"/>
		</g>
	</g>
	<g>
		<g>
			<path style="fill:#FFFFFF;" d="M151.596,146.416c-4.629,7.951-9.258,15.903-13.887,23.854c-3.251,5.584,5.393,10.616,8.635,5.047
				c4.629-7.951,9.258-15.903,13.887-23.854C163.481,145.878,154.837,140.847,151.596,146.416L151.596,146.416z"/>
		</g>
	</g>
</g>
<g id="Ebene_1">
</g>
</svg>
