<?xml version="1.0" encoding="iso-8859-1"?>
<!-- Generator: Adobe Illustrator 16.0.0, SVG Export Plug-In . SVG Version: 6.00 Build 0)  -->
<!DOCTYPE svg PUBLIC "-//W3C//DTD SVG 1.1 Tiny//EN" "http://www.w3.org/Graphics/SVG/1.1/DTD/svg11-tiny.dtd">
<svg version="1.1" baseProfile="tiny" id="weather_x5F_station"
	 xmlns="http://www.w3.org/2000/svg" xmlns:xlink="http://www.w3.org/1999/xlink" x="0px" y="0px" width="361px" height="361px"
	 viewBox="0 0 361 361" xml:space="preserve">
<g>
	<path fill="none" stroke="#FFFFFF" stroke-width="10" stroke-miterlimit="10" d="M267.815,121.98c0,2.245-1.82,4.064-4.064,4.064
		h-23.371c-2.245,0-4.064-1.82-4.064-4.064V98.609c0-2.245,1.82-4.064,4.064-4.064h23.371c2.245,0,4.064,1.82,4.064,4.064V121.98z"
		/>
	<g>
		<path fill="#FFFFFF" d="M213.654,81.206c2.407,2.406,4.813,4.813,7.219,7.219c1.926,1.926,5.145,1.926,7.071,0
			s1.926-5.145,0-7.071c-2.407-2.406-4.813-4.813-7.219-7.219c-1.926-1.926-5.145-1.926-7.071,0S211.728,79.279,213.654,81.206
			L213.654,81.206z"/>
	</g>
	<g>
		<path fill="#FFFFFF" d="M182.815,115.045c11.167,0,22.333,0,33.5,0c6.449,0,6.449-10,0-10c-11.167,0-22.333,0-33.5,0
			C176.366,105.045,176.366,115.045,182.815,115.045L182.815,115.045z"/>
	</g>
	<g>
		<path fill="#FFFFFF" d="M287.225,139.634c-1.99-1.99-3.979-3.979-5.969-5.969c-1.926-1.926-5.145-1.926-7.071,0
			s-1.926,5.145,0,7.071c1.99,1.99,3.979,3.979,5.969,5.969c1.926,1.926,5.145,1.926,7.071,0S289.151,141.56,287.225,139.634
			L287.225,139.634z"/>
	</g>
	<g>
		<path fill="#FFFFFF" d="M256.565,178.795c0-11.167,0-22.333,0-33.5c0-6.449-10-6.449-10,0c0,11.167,0,22.333,0,33.5
			C246.565,185.244,256.565,185.244,256.565,178.795L256.565,178.795z"/>
	</g>
	<g>
		<path fill="#FFFFFF" d="M205.256,164.425c7.896-7.896,15.792-15.792,23.688-23.688c4.563-4.564-2.507-11.635-7.071-7.071
			c-7.896,7.896-15.792,15.792-23.688,23.688C193.622,161.917,200.692,168.988,205.256,164.425L205.256,164.425z"/>
	</g>
</g>
<g>
	<g>
		<path fill="#FFFFFF" d="M118.167,274.451c6.905,0,15.18,1.315,21.684-1.445c8.438-3.581,13.885-10.075,17.662-18.215
			c4.142-8.927,8.228-17.914,11.172-27.319c2.583-8.251,3.661-16.845,4.689-25.399c1.001-8.33,1.894-16.7,2.539-25.066
			c0.501-6.504-1.047-13.494-6.805-17.211c-3.988-2.575-9.338-2.083-13.837-2.083c-11.645,0-23.289,0-34.933,0c-4.514,0-4.514,7,0,7
			c0.72,0,1.439,0,2.159,0c4.514,0,4.514-7,0-7c-11.161,0-22.321,0-33.481,0c-5.193,0-10.569-0.493-15.289,2.083
			c-5.563,3.036-6.825,9.934-6.861,15.684c-0.055,8.774,1.576,17.893,2.595,26.593c0.95,8.104,2.06,16.165,4.282,24.03
			c2.802,9.92,7.268,19.359,11.58,28.688c3.64,7.875,8.739,13.992,16.69,17.803c7.15,3.428,16.466,1.857,24.149,1.857
			c4.514,0,4.514-7,0-7c-4.044,0-8.088,0-12.131,0c-2.943,0-5.723,0.271-8.485-0.901c-8.439-3.582-12.091-10.744-15.712-18.62
			c-6.89-14.982-11.404-29.496-13.372-45.858c-0.855-7.118-1.537-14.257-2.217-21.394c-0.443-4.649-1.699-13.139,3.971-15.313
			c4.11-1.577,9.6-0.654,13.835-0.654c10.149,0,20.298,0,30.448,0c4.514,0,4.514-7,0-7c-0.72,0-1.439,0-2.159,0
			c-4.514,0-4.514,7,0,7c9.623,0,19.246,0,28.869,0c4.906,0,10.637-0.862,15.414,0.654c5.379,1.707,4.469,10.104,4.071,14.264
			c-0.716,7.487-1.442,14.972-2.318,22.442c-1.918,16.372-6.525,30.869-13.372,45.858c-3.563,7.801-6.892,13.972-14.712,18.14
			c-5.55,2.958-14.049,1.381-20.123,1.381C113.653,267.451,113.653,274.451,118.167,274.451L118.167,274.451z"/>
	</g>
	<g>
		
			<line fill="none" stroke="#FFFFFF" stroke-width="15" stroke-miterlimit="10" x1="121.417" y1="270.951" x2="121.417" y2="282.211"/>
		<g>
			<path fill="#FFFFFF" d="M93.747,289.095c18.447,0,36.894,0,55.341,0c4.514,0,4.514-7,0-7c-18.447,0-36.894,0-55.341,0
				C89.232,282.095,89.232,289.095,93.747,289.095L93.747,289.095z"/>
		</g>
		<g>
			<path fill="#FFFFFF" d="M107.682,294.377c9.157,0,18.314,0,27.472,0c6.449,0,6.449-10,0-10c-9.157,0-18.314,0-27.472,0
				C101.233,284.377,101.233,294.377,107.682,294.377L107.682,294.377z"/>
		</g>
	</g>
	<g>
		<g>
			<path fill="#FFFFFF" d="M152.08,220.869c-0.699,7.802-10.784,5.948-16.212,5.948c-7.88,0-15.76,0-23.64,0
				c-5.097,0-10.195,0-15.292,0c-6.94,0-6.896-10.601-7.687-15.67c-1.128-7.237-2.256-14.475-3.385-21.712
				c-0.599-3.841,0.435-8.23,5.607-8.23c1.292,0,2.585,0,3.878,0c14.641,0,29.281,0,43.921,0c3.785,0,7.569,0,11.353,0
				c6.963,0,6.796,5.354,6.056,10.108c-1.515,9.719-3.03,19.438-4.545,29.158c-0.295,1.892,2.595,2.705,2.893,0.798
				c1.745-11.19,3.489-22.38,5.233-33.57c1.984-12.73-19.452-9.493-26.216-9.493c-13.752,0-27.505,0-41.258,0
				c-14.932,0-9.001,17.244-7.604,26.206c0.707,4.532,1.413,9.064,2.12,13.597c0.456,2.922,0.425,6.501,2.646,8.722
				c4.744,4.744,13.455,3.089,19.572,3.089c9.813,0,19.625,0,29.438,0c7.089,0,15.284,0.409,16.123-8.948
				C155.252,218.941,152.251,218.958,152.08,220.869z"/>
		</g>
		<g>
			<g>
				<path fill="#FFFFFF" d="M114.301,190.663c0,8.899,0,17.797,0,26.696c0,1.935,3,1.935,3,0c0-8.899,0-17.797,0-26.696
					C117.301,188.729,114.301,188.729,114.301,190.663L114.301,190.663z"/>
			</g>
			<g>
				<path fill="#FFFFFF" d="M125.534,190.663c0,8.899,0,17.797,0,26.696c0,1.935,3,1.935,3,0c0-8.899,0-17.797,0-26.696
					C128.534,188.729,125.534,188.729,125.534,190.663L125.534,190.663z"/>
			</g>
			<g>
				<path fill="#FFFFFF" d="M119.917,190.663c0,8.899,0,17.797,0,26.696c0,1.935,3,1.935,3,0c0-8.899,0-17.797,0-26.696
					C122.917,188.729,119.917,188.729,119.917,190.663L119.917,190.663z"/>
			</g>
		</g>
		<g>
			<g>
				<path fill="#FFFFFF" d="M137.622,190.119c-0.398,8.899-0.796,17.797-1.194,26.696c-0.086,1.935,2.914,1.927,3,0
					c0.398-8.899,0.796-17.797,1.194-26.696C140.708,188.184,137.708,188.192,137.622,190.119L137.622,190.119z"/>
			</g>
			<g>
				<path fill="#FFFFFF" d="M148.855,190.119c-0.398,8.899-0.796,17.797-1.194,26.696c-0.086,1.935,2.914,1.927,3,0
					c0.398-8.899,0.796-17.797,1.194-26.696C151.942,188.184,148.942,188.192,148.855,190.119L148.855,190.119z"/>
			</g>
			<g>
				<path fill="#FFFFFF" d="M143.239,190.119c-0.398,8.899-0.796,17.797-1.194,26.696c-0.086,1.935,2.914,1.927,3,0
					c0.398-8.899,0.796-17.797,1.194-26.696C146.325,188.184,143.325,188.192,143.239,190.119L143.239,190.119z"/>
			</g>
		</g>
		<g>
			<g>
				<path fill="#FFFFFF" d="M102.174,191.104c0.398,8.899,0.796,17.797,1.195,26.696c0.086,1.927,3.086,1.935,3,0
					c-0.398-8.899-0.796-17.797-1.195-26.696C105.088,189.177,102.088,189.169,102.174,191.104L102.174,191.104z"/>
			</g>
			<g>
				<path fill="#FFFFFF" d="M90.941,191.104c0.398,8.899,0.796,17.797,1.194,26.696c0.086,1.927,3.086,1.935,3,0
					c-0.398-8.899-0.796-17.797-1.194-26.696C93.854,189.177,90.854,189.169,90.941,191.104L90.941,191.104z"/>
			</g>
			<g>
				<path fill="#FFFFFF" d="M96.558,191.104c0.398,8.899,0.796,17.797,1.194,26.696c0.086,1.927,3.086,1.935,3,0
					c-0.398-8.899-0.796-17.797-1.194-26.696C99.471,189.177,96.471,189.169,96.558,191.104L96.558,191.104z"/>
			</g>
		</g>
	</g>
</g>
</svg>
