<?xml version="1.0" encoding="iso-8859-1"?>
<!-- Generator: Adobe Illustrator 16.0.0, SVG Export Plug-In . SVG Version: 6.00 Build 0)  -->
<!DOCTYPE svg PUBLIC "-//W3C//DTD SVG 1.1//EN" "http://www.w3.org/Graphics/SVG/1.1/DTD/svg11.dtd">
<svg version="1.1" xmlns="http://www.w3.org/2000/svg" xmlns:xlink="http://www.w3.org/1999/xlink" x="0px" y="0px" width="361px"
	 height="361px" viewBox="0 0 361 361" style="enable-background:new 0 0 361 361;" xml:space="preserve">
<g id="weather_x5F_sunrise">
	<g>
		<g>
			<path style="fill:#FFFFFF;" d="M232.365,267.052c-16.279,0-32.559,0-48.838,0c-6.449,0-6.449,10,0,10c16.279,0,32.559,0,48.838,0
				C238.813,277.052,238.813,267.052,232.365,267.052L232.365,267.052z"/>
		</g>
	</g>
	<g>
		<g>
			<path style="fill:#FFFFFF;" d="M71.923,217.449c6.184,6.184,12.367,12.366,18.55,18.549c4.564,4.563,11.635-2.507,7.071-7.07
				c-6.184-6.184-12.367-12.366-18.55-18.549C74.431,205.815,67.36,212.886,71.923,217.449L71.923,217.449z"/>
		</g>
	</g>
	<g>
		<g>
			<path style="fill:#FFFFFF;" d="M127.14,171.826c0,16.279,0,32.557,0,48.836c0,6.448,10,6.448,10,0c0-16.279,0-32.558,0-48.836
				C137.14,165.377,127.14,165.377,127.14,171.826L127.14,171.826z"/>
		</g>
	</g>
	<g>
		<g>
			<path style="fill:#FFFFFF;" d="M201.27,194.395c-11.512,11.511-23.024,23.022-34.536,34.534
				c-4.563,4.563,2.507,11.635,7.071,7.07c11.511-11.511,23.023-23.022,34.535-34.534
				C212.904,196.901,205.833,189.83,201.27,194.395L201.27,194.395z"/>
		</g>
	</g>
	<g>
		<g>
			<path style="fill:#FFFFFF;" d="M232.365,267.052c-16.279,0-32.559,0-48.838,0c-6.449,0-6.449,10,0,10c16.279,0,32.559,0,48.838,0
				C238.813,277.052,238.813,267.052,232.365,267.052L232.365,267.052z"/>
		</g>
	</g>
	<g>
		<g>
			<path style="fill:#FFFFFF;" d="M127.14,171.826c0,16.279,0,32.557,0,48.836c0,6.448,10,6.448,10,0c0-16.279,0-32.558,0-48.836
				C137.14,165.377,127.14,165.377,127.14,171.826L127.14,171.826z"/>
		</g>
	</g>
	<g>
		<g>
			<path style="fill:#FFFFFF;" d="M201.27,194.395c-11.512,11.511-23.024,23.022-34.536,34.534
				c-4.563,4.563,2.507,11.635,7.071,7.07c11.511-11.511,23.023-23.022,34.535-34.534
				C212.904,196.901,205.833,189.83,201.27,194.395L201.27,194.395z"/>
		</g>
	</g>
	<g>
		<g>
			<path style="fill:#FFFFFF;" d="M195.058,238.709c-4.584,1.898-9.168,3.798-13.752,5.696c-2.516,1.042-4.283,3.275-3.492,6.15
				c0.655,2.383,3.628,4.537,6.15,3.492c4.584-1.898,9.168-3.798,13.752-5.696c2.516-1.042,4.283-3.275,3.492-6.15
				C200.553,239.818,197.58,237.664,195.058,238.709L195.058,238.709z"/>
		</g>
	</g>
	<g>
		<g>
			<path style="fill:#FFFFFF;" d="M153.733,206.456c-1.899,4.584-3.798,9.168-5.696,13.752c-1.045,2.522,1.11,5.495,3.492,6.15
				c2.875,0.791,5.108-0.977,6.15-3.492c1.899-4.584,3.798-9.168,5.696-13.752c1.045-2.522-1.11-5.495-3.492-6.15
				C157.009,202.173,154.775,203.94,153.733,206.456L153.733,206.456z"/>
		</g>
	</g>
	<g>
		<g>
			<path style="fill:#FFFFFF;" d="M101.296,209.114c1.898,4.584,3.797,9.168,5.696,13.752c1.042,2.516,3.275,4.283,6.15,3.492
				c2.382-0.655,4.537-3.628,3.492-6.15c-1.898-4.584-3.797-9.168-5.696-13.752c-1.042-2.516-3.275-4.283-6.15-3.492
				C102.406,203.619,100.251,206.592,101.296,209.114L101.296,209.114z"/>
		</g>
	</g>
	<g>
		<g>
			<path style="fill:#FFFFFF;" d="M73.599,252.427c2.648,1.097,5.296,2.194,7.944,3.291c2.523,1.045,5.495-1.109,6.15-3.492
				c0.791-2.875-0.976-5.108-3.492-6.15c-2.648-1.097-5.296-2.194-7.944-3.291c-2.523-1.045-5.495,1.109-6.15,3.492
				C69.315,249.151,71.083,251.385,73.599,252.427L73.599,252.427z"/>
		</g>
	</g>
	<path style="fill:none;stroke:#FFFFFF;stroke-width:10;stroke-miterlimit:10;" d="M98.554,285.293l0-24.484
		c0-11.063,8.969-20.031,20.032-20.031h25.77c11.063,0,20.032,8.969,20.032,20.032v24.483"/>
	<g>
		<g>
			<path style="fill:#FFFFFF;" d="M286.166,281.334c-48.718,0-97.435,0-146.152,0c-21.695,0-43.391,0-65.086,0
				c-6.449,0-6.449,10,0,10c48.717,0,97.435,0,146.152,0c21.695,0,43.391,0,65.086,0
				C292.614,291.334,292.614,281.334,286.166,281.334L286.166,281.334z"/>
		</g>
	</g>
	<g>
		<g>
			<path style="fill:#FFFFFF;" d="M78.9,267.052c-1.324,0-2.648,0-3.972,0c-2.726,0-5,2.274-5,5s2.274,5,5,5
				c1.324,0,2.648,0,3.972,0c2.726,0,5-2.274,5-5S81.625,267.052,78.9,267.052L78.9,267.052z"/>
		</g>
	</g>
	<g>
		<g>
			<path style="fill:#FFFFFF;" d="M115.781,281.574c0-4.224,0-8.447,0-12.67c0-9.428,8.666-9.531,15.536-9.531
				c6.836,0,16.515-0.459,16.515,9.261c0,4.313,0,8.627,0,12.94c0,1.935,3,1.935,3,0c0-5.53,0.933-11.951-0.771-17.289
				c-2.573-8.061-10.938-7.912-17.764-7.912c-7.467,0-14.928-0.433-18.592,7.554c-2.267,4.941-0.923,12.385-0.923,17.647
				C112.781,283.509,115.781,283.509,115.781,281.574L115.781,281.574z"/>
		</g>
	</g>
	<path style="fill:#FFFFFF;stroke:#FFFFFF;stroke-width:10;stroke-miterlimit:10;" d="M211.529,119.166
		c0,3.624,2.635,6.56,5.887,6.56h45.621c3.251,0,5.887-2.937,5.887-6.56V91.611c0-3.622-2.636-6.559-5.887-6.559h-45.621
		c-3.252,0-5.887,2.937-5.887,6.559V119.166z"/>
	<path style="fill:#FFFFFF;stroke:#FFFFFF;stroke-width:10;stroke-miterlimit:10;" d="M113.616,109.366
		c0,2.495-2.023,4.519-4.519,4.519H88.009c-2.495,0-4.519-2.024-4.519-4.519v-2.804c0-2.495,2.023-4.519,4.519-4.519h21.088
		c2.495,0,4.519,2.024,4.519,4.519V109.366z"/>
	<path style="fill:#FFFFFF;stroke:#FFFFFF;stroke-width:10;stroke-miterlimit:10;" d="M286.693,111.491
		c0,3.683-2.986,6.668-6.669,6.668h-31.122c-3.682,0-6.668-2.985-6.668-6.668v-8.896c0-3.683,2.986-6.668,6.668-6.668h31.122
		c3.683,0,6.669,2.986,6.669,6.668V111.491z"/>
	<path style="fill:#FFFFFF;stroke:#FFFFFF;stroke-width:10;stroke-miterlimit:10;" d="M233.039,113.94
		c0,3.683-2.986,6.668-6.668,6.668h-31.122c-3.683,0-6.669-2.985-6.669-6.668v-8.896c0-3.683,2.986-6.668,6.669-6.668h31.122
		c3.682,0,6.668,2.986,6.668,6.668V113.94z"/>
	<path style="fill:#FFFFFF;stroke:#FFFFFF;stroke-width:10;stroke-miterlimit:10;" d="M164.976,86.058
		c0,3.792-3.076,6.869-6.868,6.869h-32.056c-3.792,0-6.868-3.077-6.868-6.869v-4.262c0-3.792,3.076-6.869,6.868-6.869h32.056
		c3.792,0,6.868,3.077,6.868,6.869V86.058z"/>
	<path style="fill:#FFFFFF;stroke:#FFFFFF;stroke-width:10;stroke-miterlimit:10;" d="M175.912,90.088
		c0,3.501-2.84,6.342-6.342,6.342h-9.188c-3.502,0-6.341-2.84-6.341-6.342v-3.935c0-3.501,2.839-6.342,6.341-6.342h9.188
		c3.502,0,6.342,2.84,6.342,6.342V90.088z"/>
</g>
<g id="Ebene_1">
</g>
</svg>
