<?xml version="1.0" encoding="iso-8859-1"?>
<!-- Generator: Adobe Illustrator 16.0.0, SVG Export Plug-In . SVG Version: 6.00 Build 0)  -->
<!DOCTYPE svg PUBLIC "-//W3C//DTD SVG 1.1//EN" "http://www.w3.org/Graphics/SVG/1.1/DTD/svg11.dtd">
<svg version="1.1" xmlns="http://www.w3.org/2000/svg" xmlns:xlink="http://www.w3.org/1999/xlink" x="0px" y="0px" width="361px"
	 height="361px" viewBox="0 0 361 361" style="enable-background:new 0 0 361 361;" xml:space="preserve">
<g id="weather_x5F_wind">
	<g>
		<g>
			<path style="fill:#FFFFFF;" d="M262.148,96.03c0,49.764,0,99.527,0,149.291c0,13.782,0,27.563,0,41.346c0,6.448,10,6.448,10,0
				c0-49.764,0-99.527,0-149.291c0-13.782,0-27.564,0-41.346C272.148,89.582,262.148,89.582,262.148,96.03L262.148,96.03z"/>
		</g>
	</g>
	<g>
		
			<line style="fill:none;stroke:#FFFFFF;stroke-width:10;stroke-miterlimit:10;" x1="75.345" y1="126.976" x2="192.398" y2="75.523"/>
		
			<line style="fill:none;stroke:#FFFFFF;stroke-width:10;stroke-miterlimit:10;" x1="85.563" y1="157.045" x2="210.725" y2="143.917"/>
		<g>
			<polygon style="fill:#FFFFFF;" points="192.398,75.523 257.083,94.843 210.725,143.917 			"/>
			<g>
				<path style="fill:#FFFFFF;" d="M191.069,80.345c21.562,6.44,43.123,12.88,64.685,19.32c-0.735-2.786-1.471-5.571-2.206-8.357
					c-15.453,16.358-30.906,32.716-46.358,49.074c2.785,0.735,5.571,1.471,8.356,2.207c-6.108-22.798-12.218-45.596-18.326-68.394
					c-1.667-6.223-11.314-3.579-9.643,2.658c6.108,22.798,12.218,45.596,18.326,68.394c0.955,3.565,5.765,4.951,8.356,2.207
					c15.453-16.358,30.906-32.716,46.358-49.074c2.606-2.758,1.455-7.264-2.206-8.357c-21.562-6.44-43.123-12.88-64.685-19.32
					C187.533,68.852,184.906,78.504,191.069,80.345z"/>
			</g>
		</g>
		<path style="fill:#FFFFFF;" d="M100.743,152.304c0.902,3.603-1.41,7.288-5.165,8.228l-9.628,2.409
			c-3.753,0.938-7.528-1.223-8.43-4.826l-7.281-29.096c-0.903-3.604,1.41-7.289,5.164-8.228l9.629-2.409
			c3.754-0.938,7.528,1.222,8.431,4.826L100.743,152.304z"/>
		<path style="fill:#FFFFFF;" d="M140.762,145.611c1.11,4.44-1.033,8.802-4.788,9.742l-9.628,2.409
			c-3.753,0.939-7.698-1.899-8.809-6.339l-8.97-35.847c-1.111-4.44,1.032-8.802,4.787-9.742l9.629-2.409
			c3.752-0.939,7.697,1.899,8.808,6.34L140.762,145.611z"/>
		<path style="fill:#FFFFFF;" d="M183.645,138.335c1.395,5.571-0.518,10.853-4.272,11.791l-9.629,2.409
			c-3.754,0.939-7.928-2.817-9.321-8.389l-11.258-44.987c-1.394-5.571,0.519-10.853,4.273-11.791l9.629-2.409
			c3.753-0.938,7.928,2.818,9.322,8.389L183.645,138.335z"/>
	</g>
</g>
<g id="Ebene_1">
</g>
</svg>
