<?xml version="1.0" encoding="iso-8859-1"?>
<!-- Generator: Adobe Illustrator 16.0.0, SVG Export Plug-In . SVG Version: 6.00 Build 0)  -->
<!DOCTYPE svg PUBLIC "-//W3C//DTD SVG 1.1//EN" "http://www.w3.org/Graphics/SVG/1.1/DTD/svg11.dtd">
<svg version="1.1" xmlns="http://www.w3.org/2000/svg" xmlns:xlink="http://www.w3.org/1999/xlink" x="0px" y="0px" width="361px"
	 height="361px" viewBox="0 0 361 361" style="enable-background:new 0 0 361 361;" xml:space="preserve">
<g id="weather_x5F_directions_x5F_so">
	<g>
		<g>
			<polygon style="fill:#FFFFFF;" points="174.833,160.042 183.785,121.979 192.167,160.042 			"/>
			<g>
				<path style="fill:#FFFFFF;" d="M176.28,160.441c2.984-12.688,5.968-25.375,8.952-38.063c-0.964,0-1.929,0-2.893,0
					c2.794,12.688,5.588,25.375,8.382,38.063c0.482-0.633,0.964-1.266,1.446-1.899c-5.778,0-11.556,0-17.333,0c-1.935,0-1.935,3,0,3
					c5.778,0,11.555,0,17.333,0c1.014,0,1.654-0.954,1.446-1.899c-2.794-12.688-5.588-25.375-8.382-38.063
					c-0.318-1.448-2.558-1.423-2.893,0c-2.984,12.688-5.968,25.375-8.952,38.063C172.944,161.525,175.837,162.324,176.28,160.441z"
					/>
			</g>
		</g>
		<g>
			<g>
				<path style="fill:#FFFFFF;" d="M239.118,177.189c-10.674-2.415-21.348-4.83-32.021-7.245c0.856,1.125,1.713,2.25,2.569,3.375
					c0-4.834,0.81-10.292-1.102-14.821c-2.332-5.526-11.34-3.998-15.96-3.998c1.125,0.856,2.25,1.713,3.375,2.569
					c-3.035-13.414-6.069-26.827-9.104-40.241c-0.758-3.35-5.992-3.35-6.75,0c-3.035,13.414-6.069,26.828-9.104,40.241
					c1.125-0.856,2.25-1.713,3.375-2.569c-5.112,0-11.876-1.289-15.413,3.29c-2.98,3.857-1.649,10.975-1.649,15.53
					c0.856-1.125,1.713-2.25,2.569-3.375c-10.673,2.415-21.347,4.83-32.02,7.244c-3.35,0.758-3.35,5.992,0,6.75
					c10.673,2.415,21.347,4.829,32.02,7.244c-0.856-1.125-1.713-2.25-2.569-3.375c0,3.867-1.472,11.696,1.102,15.028
					c3.981,5.154,9.991,3.998,15.849,3.998c-1.125-0.856-2.25-1.713-3.375-2.569c3.072,13.078,6.144,26.157,9.215,39.236
					c0.784,3.34,5.978,3.359,6.75,0c3.007-13.079,6.015-26.158,9.021-39.236c-1.125,0.856-2.25,1.713-3.375,2.569
					c4.878,0,11.929,1.328,15.328-3.072c3.141-4.067,1.816-11.128,1.816-15.953c-0.856,1.125-1.713,2.25-2.569,3.375
					c10.674-2.415,21.348-4.83,32.021-7.245c4.402-0.995,2.535-7.744-1.861-6.75c-10.674,2.415-21.348,4.83-32.021,7.245
					c-1.509,0.342-2.569,1.873-2.569,3.375c0,3.512,0,7.022,0,10.534c0,2.603-8.361,1.491-10.145,1.491
					c-1.506,0-3.028,1.062-3.375,2.569c-3.007,13.079-6.015,26.158-9.021,39.236c2.25,0,4.5,0,6.75,0
					c-3.072-13.078-6.144-26.157-9.215-39.236c-0.354-1.508-1.863-2.569-3.375-2.569c-1.41,0-9.951,0.923-9.951-1.182
					c0-3.615,0-7.229,0-10.845c0-1.502-1.061-3.033-2.569-3.375c-10.673-2.414-21.347-4.829-32.02-7.244c0,2.25,0,4.5,0,6.75
					c10.673-2.414,21.347-4.829,32.02-7.244c1.509-0.341,2.569-1.873,2.569-3.375c0-3.446,0-6.891,0-10.337
					c0-2.632,8.13-1.482,10.063-1.482c1.502,0,3.034-1.061,3.375-2.569c3.035-13.414,6.069-26.828,9.104-40.241
					c-2.25,0-4.5,0-6.75,0c3.035,13.414,6.069,26.827,9.104,40.241c0.342,1.509,1.873,2.569,3.375,2.569
					c1.563,0,10.062-0.938,10.062,1.179c0,3.546,0,7.093,0,10.64c0,1.502,1.061,3.034,2.569,3.375
					c10.674,2.415,21.348,4.83,32.021,7.244C241.653,184.934,243.521,178.185,239.118,177.189z"/>
			</g>
		</g>
	</g>
	<g>
		<path style="fill:#FFFFFF;" d="M240.203,285.283c1.056,0,1.928-0.088,2.615-0.265c0.688-0.175,1.24-0.415,1.656-0.719
			c0.416-0.305,0.704-0.664,0.864-1.08c0.159-0.416,0.24-0.881,0.24-1.393c0-1.088-0.513-1.992-1.536-2.712
			c-1.024-0.72-2.784-1.495-5.279-2.328c-1.089-0.384-2.178-0.823-3.265-1.319c-1.089-0.496-2.063-1.121-2.929-1.873
			c-0.863-0.751-1.567-1.663-2.111-2.736c-0.545-1.07-0.816-2.375-0.816-3.911s0.289-2.92,0.864-4.152
			c0.576-1.231,1.392-2.28,2.448-3.144c1.057-0.864,2.336-1.527,3.84-1.992c1.504-0.463,3.199-0.696,5.088-0.696
			c2.24,0,4.176,0.24,5.809,0.72c1.632,0.48,2.976,1.008,4.031,1.584l-2.16,5.904c-0.928-0.48-1.96-0.903-3.096-1.271
			c-1.137-0.367-2.504-0.553-4.104-0.553c-1.793,0-3.08,0.248-3.864,0.744s-1.176,1.256-1.176,2.28c0,0.608,0.144,1.12,0.432,1.536
			s0.696,0.792,1.224,1.128c0.528,0.336,1.137,0.641,1.824,0.912c0.688,0.272,1.447,0.552,2.28,0.84
			c1.728,0.641,3.231,1.272,4.513,1.896c1.279,0.625,2.344,1.353,3.191,2.185c0.848,0.833,1.479,1.808,1.896,2.928
			c0.415,1.12,0.623,2.48,0.623,4.08c0,3.104-1.088,5.513-3.264,7.224c-2.176,1.713-5.456,2.568-9.84,2.568
			c-1.473,0-2.801-0.088-3.984-0.264s-2.232-0.393-3.144-0.648c-0.912-0.256-1.696-0.527-2.353-0.816
			c-0.656-0.287-1.208-0.559-1.656-0.815l2.113-5.952c0.99,0.545,2.215,1.032,3.672,1.465
			C236.307,285.067,238.091,285.283,240.203,285.283z"/>
	</g>
	<g>
		<path style="fill:#FFFFFF;" d="M292.02,274.34c0,2.848-0.424,5.352-1.271,7.512c-0.849,2.16-2.01,3.968-3.48,5.424
			c-1.473,1.456-3.225,2.552-5.256,3.287c-2.033,0.736-4.217,1.104-6.553,1.104c-2.271,0-4.416-0.368-6.432-1.104
			c-2.016-0.735-3.775-1.831-5.279-3.287c-1.505-1.456-2.688-3.264-3.553-5.424c-0.863-2.16-1.296-4.664-1.296-7.512
			c0-2.849,0.448-5.353,1.345-7.513c0.895-2.16,2.104-3.976,3.623-5.448c1.52-1.471,3.28-2.575,5.28-3.313
			c1.999-0.734,4.104-1.104,6.312-1.104c2.272,0,4.416,0.369,6.433,1.104c2.017,0.737,3.775,1.842,5.28,3.313
			c1.504,1.473,2.688,3.288,3.552,5.448S292.02,271.491,292.02,274.34z M266.627,274.34c0,1.631,0.2,3.104,0.601,4.415
			c0.399,1.313,0.976,2.44,1.728,3.384c0.752,0.945,1.672,1.673,2.76,2.185c1.088,0.513,2.336,0.769,3.744,0.769
			c1.376,0,2.617-0.256,3.721-0.769c1.104-0.512,2.031-1.239,2.783-2.185c0.752-0.943,1.328-2.071,1.729-3.384
			c0.4-1.312,0.6-2.784,0.6-4.415c0-1.633-0.199-3.112-0.6-4.441c-0.4-1.326-0.977-2.463-1.729-3.407
			c-0.752-0.943-1.68-1.672-2.783-2.185c-1.104-0.512-2.345-0.768-3.721-0.768c-1.408,0-2.656,0.264-3.744,0.792
			s-2.008,1.265-2.76,2.208c-0.752,0.944-1.328,2.08-1.728,3.408C266.827,271.275,266.627,272.739,266.627,274.34z"/>
	</g>
</g>
<g id="Ebene_1">
</g>
</svg>
