<?xml version="1.0" encoding="iso-8859-1"?>
<!-- Generator: Adobe Illustrator 16.0.0, SVG Export Plug-In . SVG Version: 6.00 Build 0)  -->
<!DOCTYPE svg PUBLIC "-//W3C//DTD SVG 1.1//EN" "http://www.w3.org/Graphics/SVG/1.1/DTD/svg11.dtd">
<svg version="1.1" xmlns="http://www.w3.org/2000/svg" xmlns:xlink="http://www.w3.org/1999/xlink" x="0px" y="0px" width="361px"
	 height="361px" viewBox="0 0 361 361" style="enable-background:new 0 0 361 361;" xml:space="preserve">
<g id="weather_x5F_rain">
	<path style="fill:#FFFFFF;stroke:#FFFFFF;stroke-width:13.0628;stroke-miterlimit:10;" d="M196.204,141.073
		c0,4.329-3.148,7.838-7.032,7.838H134.66c-3.885,0-7.035-3.51-7.035-7.838V84.25c0-4.329,3.15-7.838,7.035-7.838h54.512
		c3.884,0,7.032,3.509,7.032,7.838V141.073z"/>
	<path style="fill:#FFFFFF;stroke:#FFFFFF;stroke-width:13.0628;stroke-miterlimit:10;" d="M93.008,121.479
		c0,4.329,3.509,7.838,7.838,7.838h36.576c4.328,0,7.837-3.509,7.837-7.838V99.272c0-4.329-3.51-7.838-7.837-7.838h-36.576
		c-4.329,0-7.838,3.509-7.838,7.838V121.479z"/>
	<path style="fill:#FFFFFF;stroke:#FFFFFF;stroke-width:13.0628;stroke-miterlimit:10;" d="M77.333,121.479
		c0-4.328,3.509-7.837,7.838-7.837h45.067c4.328,0,7.837,3.509,7.837,7.837v12.41c0,4.329-3.51,7.838-7.837,7.838H85.171
		c-4.329,0-7.838-3.509-7.838-7.838V121.479z"/>
	<g>
		<g>
			<path style="fill:#FFFFFF;" d="M173.792,170.955c-5.5,9.526-11,19.052-16.5,28.579c-3.23,5.595,5.412,10.628,8.635,5.047
				c5.5-9.526,11-19.053,16.5-28.579C185.657,170.407,177.015,165.373,173.792,170.955L173.792,170.955z"/>
		</g>
	</g>
	<g>
		<g>
			<path style="fill:#FFFFFF;" d="M170.302,147c-5.5,9.526-11,19.052-16.5,28.579c-3.23,5.595,5.412,10.628,8.635,5.047
				c5.5-9.526,11-19.052,16.5-28.579C182.167,146.452,173.524,141.418,170.302,147L170.302,147z"/>
		</g>
	</g>
	<g>
		<g>
			<path style="fill:#FFFFFF;" d="M144.302,192.033c-5.5,9.526-11,19.053-16.5,28.579c-3.23,5.595,5.412,10.628,8.635,5.047
				c5.5-9.526,11-19.053,16.5-28.579C156.167,191.485,147.524,186.452,144.302,192.033L144.302,192.033z"/>
		</g>
	</g>
	<g>
		<g>
			<path style="fill:#FFFFFF;" d="M147.811,155.955c-5.5,9.526-11,19.052-16.5,28.579c-3.23,5.595,5.413,10.628,8.635,5.047
				c5.5-9.526,11-19.052,16.5-28.579C159.676,155.407,151.033,150.373,147.811,155.955L147.811,155.955z"/>
		</g>
	</g>
	<g>
		<g>
			<path style="fill:#FFFFFF;" d="M144.321,132c-5.5,9.526-11,19.053-16.5,28.579c-3.23,5.595,5.412,10.628,8.635,5.047
				c5.5-9.526,11-19.053,16.5-28.579C156.186,131.452,147.543,126.418,144.321,132L144.321,132z"/>
		</g>
	</g>
	<g>
		<g>
			<path style="fill:#FFFFFF;" d="M118.321,177.033c-5.5,9.526-11,19.053-16.5,28.579c-3.23,5.595,5.413,10.628,8.635,5.047
				c5.5-9.526,11-19.053,16.5-28.579C130.186,176.485,121.543,171.452,118.321,177.033L118.321,177.033z"/>
		</g>
	</g>
	<g>
		<g>
			<path style="fill:#FFFFFF;" d="M122.312,200.122c-5.5,9.526-11,19.053-16.5,28.579c-3.23,5.595,5.412,10.628,8.635,5.047
				c5.5-9.526,11-19.053,16.5-28.579C134.177,199.574,125.534,194.541,122.312,200.122L122.312,200.122z"/>
		</g>
	</g>
	<g>
		<g>
			<path style="fill:#FFFFFF;" d="M149.312,214.122c-5.5,9.526-11,19.053-16.5,28.579c-3.23,5.595,5.412,10.628,8.635,5.047
				c5.5-9.526,11-19.053,16.5-28.579C161.177,213.574,152.534,208.541,149.312,214.122L149.312,214.122z"/>
		</g>
	</g>
	<g>
		<g>
			<path style="fill:#FFFFFF;" d="M229.792,171.955c-5.5,9.526-11,19.052-16.5,28.579c-3.23,5.595,5.412,10.628,8.635,5.047
				c5.5-9.526,11-19.053,16.5-28.579C241.657,171.407,233.015,166.373,229.792,171.955L229.792,171.955z"/>
		</g>
	</g>
	<g>
		<g>
			<path style="fill:#FFFFFF;" d="M226.302,148c-5.5,9.526-11,19.052-16.5,28.579c-3.23,5.595,5.412,10.628,8.635,5.047
				c5.5-9.526,11-19.053,16.5-28.579C238.167,147.452,229.524,142.418,226.302,148L226.302,148z"/>
		</g>
	</g>
	<g>
		<g>
			<path style="fill:#FFFFFF;" d="M200.302,193.033c-5.5,9.526-11,19.053-16.5,28.579c-3.23,5.595,5.412,10.628,8.635,5.047
				c5.5-9.526,11-19.053,16.5-28.579C212.167,192.485,203.524,187.452,200.302,193.033L200.302,193.033z"/>
		</g>
	</g>
	<g>
		<g>
			<path style="fill:#FFFFFF;" d="M203.812,156.955c-5.5,9.526-11,19.052-16.5,28.579c-3.23,5.595,5.412,10.628,8.635,5.047
				c5.5-9.526,11-19.052,16.5-28.579C215.677,156.407,207.034,151.373,203.812,156.955L203.812,156.955z"/>
		</g>
	</g>
	<g>
		<g>
			<path style="fill:#FFFFFF;" d="M178.312,201.122c-5.5,9.526-11,19.053-16.5,28.579c-3.23,5.595,5.412,10.628,8.635,5.047
				c5.5-9.526,11-19.053,16.5-28.579C190.177,200.574,181.534,195.541,178.312,201.122L178.312,201.122z"/>
		</g>
	</g>
	<g>
		<g>
			<path style="fill:#FFFFFF;" d="M205.312,215.122c-5.5,9.526-11,19.053-16.5,28.579c-3.23,5.595,5.412,10.628,8.635,5.047
				c5.5-9.526,11-19.053,16.5-28.579C217.177,214.574,208.534,209.541,205.312,215.122L205.312,215.122z"/>
		</g>
	</g>
	<path style="fill:#FFFFFF;stroke:#FFFFFF;stroke-width:13.0628;stroke-miterlimit:10;" d="M248.674,148.912
		c0,4.328-3.148,7.837-7.033,7.837h-54.512c-3.885,0-7.035-3.509-7.035-7.837V92.088c0-4.329,3.15-7.838,7.035-7.838h54.512
		c3.885,0,7.033,3.509,7.033,7.838V148.912z"/>
	<path style="fill:#FFFFFF;stroke:#FFFFFF;stroke-width:13.0628;stroke-miterlimit:10;" d="M232.781,142.379
		c0,4.329,3.51,7.838,7.837,7.838h36.576c4.329,0,7.838-3.509,7.838-7.838v-22.207c0-4.328-3.509-7.837-7.838-7.837h-36.576
		c-4.327,0-7.837,3.51-7.837,7.837V142.379z"/>
	<path style="fill:#FFFFFF;stroke:#FFFFFF;stroke-width:13.0628;stroke-miterlimit:10;" d="M201.648,158.056
		c0,4.328-3.149,7.837-7.033,7.837h-54.513c-3.884,0-7.034-3.509-7.034-7.837v-56.824c0-4.329,3.149-7.838,7.034-7.838h54.513
		c3.884,0,7.033,3.509,7.033,7.838V158.056z"/>
</g>
<g id="Ebene_1">
</g>
</svg>
