<?xml version="1.0" encoding="iso-8859-1"?>
<!-- Generator: Adobe Illustrator 16.0.0, SVG Export Plug-In . SVG Version: 6.00 Build 0)  -->
<!DOCTYPE svg PUBLIC "-//W3C//DTD SVG 1.1 Tiny//EN" "http://www.w3.org/Graphics/SVG/1.1/DTD/svg11-tiny.dtd">
<svg version="1.1" baseProfile="tiny" id="weather_x5F_cloudy_x5F_light"
	 xmlns="http://www.w3.org/2000/svg" xmlns:xlink="http://www.w3.org/1999/xlink" x="0px" y="0px" width="361px" height="361px"
	 viewBox="0 0 361 361" xml:space="preserve">
<g>
	<path fill="#FFFFFF" d="M187.211,81.732c4.97,4.97,9.939,9.939,14.909,14.909c4.564,4.563,11.635-2.507,7.071-7.071
		c-4.97-4.97-9.939-9.939-14.909-14.909C189.719,70.097,182.648,77.168,187.211,81.732L187.211,81.732z"/>
</g>
<g>
	<path fill="#FFFFFF" d="M156.501,127.833c13.196,0,26.393,0,39.589,0c6.449,0,6.449-10,0-10c-13.196,0-26.393,0-39.589,0
		C150.053,117.833,150.053,127.833,156.501,127.833L156.501,127.833z"/>
</g>
<g>
	<path fill="#FFFFFF" d="M287.23,166.426c-5.013-5.012-10.025-10.024-15.038-15.037c-4.564-4.563-11.635,2.508-7.071,7.071
		c5.013,5.012,10.025,10.024,15.038,15.037C284.723,178.061,291.794,170.99,287.23,166.426L287.23,166.426z"/>
</g>
<g>
	<path fill="#FFFFFF" d="M242.748,205.079c0-13.196,0-26.392,0-39.588c0-6.449-10-6.449-10,0c0,13.196,0,26.392,0,39.588
		C232.748,211.528,242.748,211.528,242.748,205.079L242.748,205.079z"/>
</g>
<g>
	<path fill="#FFFFFF" d="M182.379,186.455c9.331-9.332,18.663-18.663,27.994-27.995c4.563-4.564-2.507-11.635-7.071-7.071
		c-9.331,9.332-18.663,18.663-27.994,27.995C170.745,183.947,177.815,191.018,182.379,186.455L182.379,186.455z"/>
</g>
<g>
	<path fill="#FFFFFF" d="M156.501,127.833c13.196,0,26.393,0,39.589,0c6.449,0,6.449-10,0-10c-13.196,0-26.393,0-39.589,0
		C150.053,117.833,150.053,127.833,156.501,127.833L156.501,127.833z"/>
</g>
<g>
	<path fill="#FFFFFF" d="M242.748,205.079c0-13.196,0-26.392,0-39.588c0-6.449-10-6.449-10,0c0,13.196,0,26.392,0,39.588
		C232.748,211.528,242.748,211.528,242.748,205.079L242.748,205.079z"/>
</g>
<g>
	<path fill="#FFFFFF" d="M182.379,186.455c9.331-9.332,18.663-18.663,27.994-27.995c4.563-4.564-2.507-11.635-7.071-7.071
		c-9.331,9.332-18.663,18.663-27.994,27.995C170.745,183.947,177.815,191.018,182.379,186.455L182.379,186.455z"/>
</g>
<g>
	<path fill="#FFFFFF" d="M184,106.576c3.716,1.54,7.432,3.079,11.147,4.618c2.523,1.045,5.495-1.11,6.15-3.492
		c0.791-2.875-0.976-5.108-3.492-6.15c-3.716-1.54-7.432-3.079-11.147-4.618c-2.523-1.045-5.495,1.11-6.15,3.492
		C179.717,103.3,181.484,105.534,184,106.576L184,106.576z"/>
</g>
<g>
	<path fill="#FFFFFF" d="M186.997,150.774c3.716-1.539,7.432-3.078,11.147-4.617c2.516-1.042,4.283-3.275,3.492-6.15
		c-0.655-2.382-3.627-4.537-6.15-3.492c-3.716,1.539-7.432,3.078-11.147,4.617c-2.516,1.042-4.283,3.275-3.492,6.15
		C181.501,149.665,184.474,151.819,186.997,150.774L186.997,150.774z"/>
</g>
<g>
	<path fill="#FFFFFF" d="M221.156,176.258c1.539-3.715,3.078-7.431,4.617-11.147c1.045-2.523-1.11-5.495-3.492-6.15
		c-2.875-0.791-5.108,0.976-6.15,3.492c-1.539,3.715-3.078,7.431-4.617,11.147c-1.045,2.523,1.11,5.495,3.492,6.15
		C217.881,180.542,220.114,178.774,221.156,176.258L221.156,176.258z"/>
</g>
<g>
	<path fill="#FFFFFF" d="M263.664,173.6c-1.539-3.716-3.078-7.432-4.618-11.147c-1.042-2.516-3.275-4.283-6.15-3.492
		c-2.382,0.655-4.538,3.627-3.492,6.15c1.539,3.716,3.078,7.432,4.618,11.147c1.042,2.516,3.275,4.283,6.15,3.492
		C262.554,179.095,264.709,176.123,263.664,173.6L263.664,173.6z"/>
</g>
<g>
	<path fill="#FFFFFF" d="M211.546,79.425c0.852,2.056,1.703,4.112,2.555,6.168c1.042,2.516,3.275,4.283,6.15,3.492
		c2.382-0.655,4.537-3.627,3.492-6.15c-0.852-2.056-1.703-4.112-2.555-6.168c-1.042-2.516-3.275-4.283-6.15-3.492
		C212.656,73.93,210.501,76.902,211.546,79.425L211.546,79.425z"/>
</g>
<g>
	<path fill="#FFFFFF" d="M285.455,137.829c-2.146-0.889-4.293-1.778-6.44-2.667c-2.523-1.045-5.495,1.11-6.15,3.492
		c-0.791,2.875,0.976,5.108,3.492,6.15c2.146,0.889,4.293,1.778,6.44,2.667c2.523,1.045,5.495-1.11,6.15-3.492
		C289.738,141.104,287.971,138.871,285.455,137.829L285.455,137.829z"/>
</g>
<path fill="#FFFFFF" stroke="#FFFFFF" stroke-width="10" stroke-miterlimit="10" d="M85.315,224.318
	c0,4.429,3.591,8.019,8.019,8.019h37.421c4.428,0,8.019-3.59,8.019-8.019v-22.72c0-4.428-3.591-8.019-8.019-8.019H93.334
	c-4.428,0-8.019,3.59-8.019,8.019V224.318z"/>
<path fill="#FFFFFF" stroke="#FFFFFF" stroke-width="10" stroke-miterlimit="10" d="M72.277,225.989c0-4.428,3.59-8.019,8.019-8.019
	h46.108c4.428,0,8.019,3.59,8.019,8.019v12.696c0,4.429-3.591,8.02-8.019,8.02H80.296c-4.429,0-8.019-3.591-8.019-8.02V225.989z"/>
<path fill="#FFFFFF" stroke="#FFFFFF" stroke-width="10" stroke-miterlimit="10" d="M247.154,238.265c0,3.624-2.635,6.56-5.886,6.56
	h-45.622c-3.251,0-5.887-2.937-5.887-6.56V190.71c0-3.622,2.636-6.559,5.887-6.559h45.622c3.251,0,5.886,2.937,5.886,6.559V238.265z
	"/>
<path fill="#FFFFFF" stroke="#FFFFFF" stroke-width="10" stroke-miterlimit="10" d="M231.226,227.98c0,4.428,3.59,8.02,8.019,8.02
	h37.421c4.429,0,8.019-3.592,8.019-8.02V205.26c0-4.428-3.59-8.019-8.019-8.019h-37.421c-4.428,0-8.019,3.591-8.019,8.019V227.98z"
	/>
<path fill="none" stroke="#FFFFFF" stroke-width="10" stroke-miterlimit="10" d="M262.265,131.516
	c0,7.845-6.36,14.206-14.206,14.206h-18.275c-7.845,0-14.206-6.36-14.206-14.206v-17.363c0-7.846,6.36-14.206,14.206-14.206h18.275
	c7.845,0,14.206,6.36,14.206,14.206V131.516z"/>
<path fill="#FFFFFF" stroke="#FFFFFF" stroke-width="10" stroke-miterlimit="10" d="M175.972,228.568
	c0,3.683,2.986,6.668,6.669,6.668h31.122c3.683,0,6.669-2.985,6.669-6.668v-18.896c0-3.683-2.986-6.668-6.669-6.668h-31.122
	c-3.683,0-6.669,2.986-6.669,6.668V228.568z"/>
<path fill="#FFFFFF" stroke="#FFFFFF" stroke-width="10" stroke-miterlimit="10" d="M145.509,218.162
	c0-4.429-3.591-8.019-8.019-8.019h-37.421c-4.428,0-8.019,3.59-8.019,8.019v22.72c0,4.428,3.591,8.019,8.019,8.019h37.421
	c4.428,0,8.019-3.59,8.019-8.019V218.162z"/>
<path fill="#FFFFFF" stroke="#FFFFFF" stroke-width="10" stroke-miterlimit="10" d="M157.296,225.469
	c0,4.428-3.59,8.019-8.019,8.019h-46.108c-4.428,0-8.019-3.59-8.019-8.019v-12.696c0-4.429,3.591-8.02,8.019-8.02h46.108
	c4.429,0,8.019,3.591,8.019,8.02V225.469z"/>
<path fill="#FFFFFF" stroke="#FFFFFF" stroke-width="10" stroke-miterlimit="10" d="M225.644,246.707
	c0,3.683,2.986,6.668,6.669,6.668h31.122c3.683,0,6.669-2.985,6.669-6.668v-18.896c0-3.683-2.986-6.668-6.669-6.668h-31.122
	c-3.683,0-6.669,2.986-6.669,6.668V246.707z"/>
</svg>
