<?xml version="1.0" encoding="iso-8859-1"?>
<!-- Generator: Adobe Illustrator 16.0.0, SVG Export Plug-In . SVG Version: 6.00 Build 0)  -->
<!DOCTYPE svg PUBLIC "-//W3C//DTD SVG 1.1//EN" "http://www.w3.org/Graphics/SVG/1.1/DTD/svg11.dtd">
<svg version="1.1" xmlns="http://www.w3.org/2000/svg" xmlns:xlink="http://www.w3.org/1999/xlink" x="0px" y="0px" width="361px"
	 height="361px" viewBox="0 0 361 361" style="enable-background:new 0 0 361 361;" xml:space="preserve">
<g id="weather_x5F_humidity_x5F_soil">
	<path style="fill:none;stroke:#FFFFFF;stroke-width:10;stroke-miterlimit:10;" d="M196.834,127.992
		c0,9.084-7.363,16.449-16.449,16.449c-9.084,0-16.449-7.364-16.449-16.449c0-3.474,1.22-6.311,2.303-9.353
		c1.93-5.413,8.535-24.488,14.146-24.488c5.624,0,12.522,19.84,14.167,24.52C195.619,121.706,196.834,124.531,196.834,127.992z"/>
	<path style="fill:none;stroke:#FFFFFF;stroke-width:10;stroke-miterlimit:10;" d="M174.78,201.508
		c0,9.085-7.365,16.449-16.45,16.449c-9.084,0-16.449-7.364-16.449-16.449c0-3.475,1.219-6.312,2.304-9.353
		c1.93-5.413,8.535-24.489,14.145-24.489c5.624,0,12.522,19.84,14.167,24.519C173.564,195.221,174.78,198.046,174.78,201.508z"/>
	<path style="fill:none;stroke:#FFFFFF;stroke-width:10;stroke-miterlimit:10;" d="M125.892,225.797c0,2.369-2.291,4.29-5.115,4.29
		H80.282c-2.825,0-5.115-1.921-5.115-4.29V78.891c0-2.369,2.291-4.29,5.115-4.29h40.495c2.825,0,5.115,1.921,5.115,4.29V225.797z"/>
	<path style="fill:#FFFFFF;" d="M116.702,152.251c0,9.085-7.364,16.45-16.449,16.45c-9.084,0-16.449-7.364-16.449-16.45
		c0-3.474,1.22-6.31,2.304-9.352c1.93-5.413,8.536-24.488,14.146-24.488c5.624,0,12.522,19.84,14.167,24.519
		C115.486,145.965,116.702,148.791,116.702,152.251z"/>
	<g>
		<g>
			<g>
				<path style="fill:#FFFFFF;" d="M288.933,275.434c-2.337,0-4.674,0-7.011,0c-4.514,0-4.514,7,0,7c2.337,0,4.674,0,7.011,0
					C293.446,282.434,293.446,275.434,288.933,275.434L288.933,275.434z"/>
			</g>
		</g>
		<g>
			<g>
				<path style="fill:#FFFFFF;" d="M262.412,272.434c-2.581,0-5.161,0-7.742,0c-4.514,0-4.514,7,0,7c2.581,0,5.161,0,7.742,0
					C266.926,279.434,266.926,272.434,262.412,272.434L262.412,272.434z"/>
			</g>
		</g>
		<g>
			<g>
				<path style="fill:#FFFFFF;" d="M265.848,261.434c-5.083,0-10.167,0-15.25,0c-4.514,0-4.514,7,0,7c5.083,0,10.167,0,15.25,0
					C270.361,268.434,270.361,261.434,265.848,261.434L265.848,261.434z"/>
			</g>
		</g>
		<g>
			<g>
				<path style="fill:#FFFFFF;" d="M240.613,284.33c-2,0-4,0-6,0c-1.908,0-3.5,1.592-3.5,3.5s1.592,3.5,3.5,3.5c2,0,4,0,6,0
					c1.908,0,3.5-1.592,3.5-3.5S242.521,284.33,240.613,284.33L240.613,284.33z"/>
			</g>
		</g>
		<g>
			<g>
				<path style="fill:#FFFFFF;" d="M286.1,265.497c-0.667,0-1.333,0-2,0c-1.908,0-3.5,1.592-3.5,3.5s1.592,3.5,3.5,3.5
					c0.667,0,1.333,0,2,0c1.908,0,3.5-1.592,3.5-3.5S288.008,265.497,286.1,265.497L286.1,265.497z"/>
			</g>
		</g>
		<g>
			<g>
				<path style="fill:#FFFFFF;" d="M269.098,282.822c0.667,0,1.333,0,2,0c1.908,0,3.5-1.592,3.5-3.5s-1.592-3.5-3.5-3.5
					c-0.667,0-1.333,0-2,0c-1.908,0-3.5,1.592-3.5,3.5S267.189,282.822,269.098,282.822L269.098,282.822z"/>
			</g>
		</g>
		<g>
			<g>
				<path style="fill:#FFFFFF;" d="M184.518,291.33c2,0,4,0,6,0c1.908,0,3.5-1.592,3.5-3.5s-1.592-3.5-3.5-3.5c-2,0-4,0-6,0
					c-1.908,0-3.5,1.592-3.5,3.5S182.609,291.33,184.518,291.33L184.518,291.33z"/>
			</g>
		</g>
		<g>
			<g>
				<path style="fill:#FFFFFF;" d="M274.85,270.434c1.833,0,3.667,0,5.5,0c1.908,0,3.5-1.592,3.5-3.5s-1.592-3.5-3.5-3.5
					c-1.833,0-3.667,0-5.5,0c-1.908,0-3.5,1.592-3.5,3.5S272.941,270.434,274.85,270.434L274.85,270.434z"/>
			</g>
		</g>
		<g>
			<g>
				<path style="fill:#FFFFFF;" d="M194.182,259.497c-3,0-6,0-9,0c-4.514,0-4.514,7,0,7c3,0,6,0,9,0
					C198.695,266.497,198.695,259.497,194.182,259.497L194.182,259.497z"/>
			</g>
		</g>
		<g>
			<g>
				<path style="fill:#FFFFFF;" d="M226.801,278.461c3,0,6,0,9,0c4.514,0,4.514-7,0-7c-3,0-6,0-9,0
					C222.287,271.461,222.287,278.461,226.801,278.461L226.801,278.461z"/>
			</g>
		</g>
		<g>
			<g>
				<path style="fill:#FFFFFF;" d="M209.945,267.094c5.333,0,10.667,0,16,0c4.514,0,4.514-7,0-7c-5.333,0-10.667,0-16,0
					C205.432,260.094,205.432,267.094,209.945,267.094L209.945,267.094z"/>
			</g>
		</g>
		<g>
			<g>
				<path style="fill:#FFFFFF;" d="M210.279,278.33c2,0,4,0,6,0c1.908,0,3.5-1.592,3.5-3.5s-1.592-3.5-3.5-3.5c-2,0-4,0-6,0
					c-1.908,0-3.5,1.592-3.5,3.5S208.371,278.33,210.279,278.33L210.279,278.33z"/>
			</g>
		</g>
		<g>
			<g>
				<path style="fill:#FFFFFF;" d="M223.613,272.33c0.667,0,1.333,0,2,0c1.908,0,3.5-1.592,3.5-3.5s-1.592-3.5-3.5-3.5
					c-0.667,0-1.333,0-2,0c-1.908,0-3.5,1.592-3.5,3.5S221.705,272.33,223.613,272.33L223.613,272.33z"/>
			</g>
		</g>
		<g>
			<g>
				<path style="fill:#FFFFFF;" d="M217.779,284.33c-2,0-4,0-6,0c-1.908,0-3.5,1.592-3.5,3.5s1.592,3.5,3.5,3.5c2,0,4,0,6,0
					c1.908,0,3.5-1.592,3.5-3.5S219.688,284.33,217.779,284.33L217.779,284.33z"/>
			</g>
		</g>
		<g>
			<g>
				<path style="fill:#FFFFFF;" d="M276.863,284.163c-5.083,0-10.167,0-15.25,0c-4.514,0-4.514,7,0,7c5.083,0,10.167,0,15.25,0
					C281.377,291.163,281.377,284.163,276.863,284.163L276.863,284.163z"/>
			</g>
		</g>
		<g>
			<g>
				<path style="fill:#FFFFFF;" d="M238.113,264.33c-2,0-4,0-6,0c-1.908,0-3.5,1.592-3.5,3.5s1.592,3.5,3.5,3.5c2,0,4,0,6,0
					c1.908,0,3.5-1.592,3.5-3.5S240.021,264.33,238.113,264.33L238.113,264.33z"/>
			</g>
		</g>
		<g>
			<g>
				<path style="fill:#FFFFFF;" d="M193.432,269.128c-3,0-6.001,0-9.001,0c-4.514,0-4.514,7,0,7c3,0,6.001,0,9.001,0
					C197.945,276.128,197.945,269.128,193.432,269.128L193.432,269.128z"/>
			</g>
		</g>
		<g>
			<g>
				<path style="fill:#FFFFFF;" d="M203.098,284.365c-5.333,0-10.667,0-16,0c-4.514,0-4.514,7,0,7c5.333,0,10.667,0,16,0
					C207.611,291.365,207.611,284.365,203.098,284.365L203.098,284.365z"/>
			</g>
		</g>
		<g>
			<g>
				<path style="fill:#FFFFFF;" d="M207.779,276.33c-2,0-4,0-6,0c-1.908,0-3.5,1.592-3.5,3.5s1.592,3.5,3.5,3.5c2,0,4,0,6,0
					c1.908,0,3.5-1.592,3.5-3.5S209.688,276.33,207.779,276.33L207.779,276.33z"/>
			</g>
		</g>
		<g>
			<g>
				<path style="fill:#FFFFFF;" d="M189.431,280.128c-0.667,0-1.333,0-2,0c-1.908,0-3.5,1.592-3.5,3.5s1.592,3.5,3.5,3.5
					c0.667,0,1.333,0,2,0c1.908,0,3.5-1.592,3.5-3.5S191.339,280.128,189.431,280.128L189.431,280.128z"/>
			</g>
		</g>
		<g>
			<g>
				<path style="fill:#FFFFFF;" d="M195.098,271.128c3.722,0,7.444,0,11.166,0c4.514,0,4.514-7,0-7c-3.722,0-7.444,0-11.166,0
					C190.584,264.128,190.584,271.128,195.098,271.128L195.098,271.128z"/>
			</g>
		</g>
		<g>
			<g>
				<path style="fill:#FFFFFF;" d="M215.779,272.33c-5.333,0-10.667,0-16,0c-4.514,0-4.514,7,0,7c5.333,0,10.667,0,16,0
					C220.293,279.33,220.293,272.33,215.779,272.33L215.779,272.33z"/>
			</g>
		</g>
		<g>
			<g>
				<path style="fill:#FFFFFF;" d="M244.67,281.746c3,0,6.001,0,9.001,0c4.514,0,4.514-7,0-7c-3,0-6.001,0-9.001,0
					C240.156,274.746,240.156,281.746,244.67,281.746L244.67,281.746z"/>
			</g>
		</g>
		<g>
			<g>
				<path style="fill:#FFFFFF;" d="M239.046,267.08c1.083,0,2.167,0,3.25,0c1.908,0,3.5-1.592,3.5-3.5s-1.592-3.5-3.5-3.5
					c-1.083,0-2.167,0-3.25,0c-1.908,0-3.5,1.592-3.5,3.5S237.138,267.08,239.046,267.08L239.046,267.08z"/>
			</g>
		</g>
		<g>
			<g>
				<path style="fill:#FFFFFF;" d="M263.098,271.711c2,0,4,0,6,0c1.908,0,3.5-1.592,3.5-3.5s-1.592-3.5-3.5-3.5c-2,0-4,0-6,0
					c-1.908,0-3.5,1.592-3.5,3.5S261.189,271.711,263.098,271.711L263.098,271.711z"/>
			</g>
		</g>
		<g>
			<g>
				<path style="fill:#FFFFFF;" d="M275.422,287.58c1.833,0,3.667,0,5.5,0c1.908,0,3.5-1.592,3.5-3.5s-1.592-3.5-3.5-3.5
					c-1.833,0-3.667,0-5.5,0c-1.908,0-3.5,1.592-3.5,3.5S273.514,287.58,275.422,287.58L275.422,287.58z"/>
			</g>
		</g>
		<g>
			<g>
				<path style="fill:#FFFFFF;" d="M219.6,288.461c0.667,0,1.333,0,2,0c1.908,0,3.5-1.592,3.5-3.5s-1.592-3.5-3.5-3.5
					c-0.667,0-1.333,0-2,0c-1.908,0-3.5,1.592-3.5,3.5S217.691,288.461,219.6,288.461L219.6,288.461z"/>
			</g>
		</g>
		<g>
			<g>
				<path style="fill:#FFFFFF;" d="M215.85,278.267c0.667,0,1.333,0,2,0c1.908,0,3.5-1.592,3.5-3.5s-1.592-3.5-3.5-3.5
					c-0.667,0-1.333,0-2,0c-1.908,0-3.5,1.592-3.5,3.5S213.941,278.267,215.85,278.267L215.85,278.267z"/>
			</g>
		</g>
		<g>
			<g>
				<path style="fill:#FFFFFF;" d="M257.421,284.163c-1.834,0-3.667,0-5.501,0c-1.908,0-3.5,1.592-3.5,3.5s1.592,3.5,3.5,3.5
					c1.834,0,3.667,0,5.501,0c1.908,0,3.5-1.592,3.5-3.5S259.329,284.163,257.421,284.163L257.421,284.163z"/>
			</g>
		</g>
		<g>
			<g>
				<path style="fill:#FFFFFF;" d="M289.35,283.211c-0.667,0-1.333,0-2,0c-1.908,0-3.5,1.592-3.5,3.5s1.592,3.5,3.5,3.5
					c0.667,0,1.333,0,2,0c1.908,0,3.5-1.592,3.5-3.5S291.258,283.211,289.35,283.211L289.35,283.211z"/>
			</g>
		</g>
		<g>
			<g>
				<path style="fill:#FFFFFF;" d="M270.1,274.497c-0.667,0-1.333,0-2,0c-1.908,0-3.5,1.592-3.5,3.5s1.592,3.5,3.5,3.5
					c0.667,0,1.333,0,2,0c1.908,0,3.5-1.592,3.5-3.5S272.008,274.497,270.1,274.497L270.1,274.497z"/>
			</g>
		</g>
		<g>
			<g>
				<path style="fill:#FFFFFF;" d="M258.85,279.434c1.833,0,3.667,0,5.5,0c1.908,0,3.5-1.592,3.5-3.5s-1.592-3.5-3.5-3.5
					c-1.833,0-3.667,0-5.5,0c-1.908,0-3.5,1.592-3.5,3.5S256.941,279.434,258.85,279.434L258.85,279.434z"/>
			</g>
		</g>
		<g>
			<g>
				<path style="fill:#FFFFFF;" d="M279.517,266.497c3.277,0,6.556,0,9.833,0c4.514,0,4.514-7,0-7c-3.277,0-6.556,0-9.833,0
					C275.003,259.497,275.003,266.497,279.517,266.497L279.517,266.497z"/>
			</g>
		</g>
		<g>
			<g>
				<path style="fill:#FFFFFF;" d="M222.222,287.128c3.722,0,7.444,0,11.166,0c4.514,0,4.514-7,0-7c-3.722,0-7.444,0-11.166,0
					C217.708,280.128,217.708,287.128,222.222,287.128L222.222,287.128z"/>
			</g>
		</g>
		<g>
			<g>
				<path style="fill:#FFFFFF;" d="M184.303,249.61c2.337,0,4.673,0,7.01,0c4.514,0,4.514-7,0-7c-2.337,0-4.673,0-7.01,0
					C179.789,242.61,179.789,249.61,184.303,249.61L184.303,249.61z"/>
			</g>
		</g>
		<g>
			<g>
				<path style="fill:#FFFFFF;" d="M207.823,246.61c2.58,0,5.161,0,7.741,0c4.514,0,4.514-7,0-7c-2.58,0-5.161,0-7.741,0
					C203.31,239.61,203.31,246.61,207.823,246.61L207.823,246.61z"/>
			</g>
		</g>
		<g>
			<g>
				<path style="fill:#FFFFFF;" d="M204.387,235.61c5.083,0,10.167,0,15.25,0c4.514,0,4.514-7,0-7c-5.083,0-10.167,0-15.25,0
					C199.873,228.61,199.873,235.61,204.387,235.61L204.387,235.61z"/>
			</g>
		</g>
		<g>
			<g>
				<path style="fill:#FFFFFF;" d="M229.621,258.507c2,0,4,0,6,0c1.908,0,3.5-1.592,3.5-3.5s-1.592-3.5-3.5-3.5c-2,0-4,0-6,0
					c-1.908,0-3.5,1.592-3.5,3.5S227.713,258.507,229.621,258.507L229.621,258.507z"/>
			</g>
		</g>
		<g>
			<g>
				<path style="fill:#FFFFFF;" d="M184.135,239.674c0.667,0,1.333,0,2,0c1.908,0,3.5-1.592,3.5-3.5s-1.592-3.5-3.5-3.5
					c-0.667,0-1.333,0-2,0c-1.908,0-3.5,1.592-3.5,3.5S182.227,239.674,184.135,239.674L184.135,239.674z"/>
			</g>
		</g>
		<g>
			<g>
				<path style="fill:#FFFFFF;" d="M201.137,242.999c-0.667,0-1.333,0-2,0c-1.908,0-3.5,1.592-3.5,3.5s1.592,3.5,3.5,3.5
					c0.667,0,1.333,0,2,0c1.908,0,3.5-1.592,3.5-3.5S203.045,242.999,201.137,242.999L201.137,242.999z"/>
			</g>
		</g>
		<g>
			<g>
				<path style="fill:#FFFFFF;" d="M288.717,248.507c-2,0-4,0-6,0c-1.908,0-3.5,1.592-3.5,3.5s1.592,3.5,3.5,3.5c2,0,4,0,6,0
					c1.908,0,3.5-1.592,3.5-3.5S290.625,248.507,288.717,248.507L288.717,248.507z"/>
			</g>
		</g>
		<g>
			<g>
				<path style="fill:#FFFFFF;" d="M195.386,230.61c-1.834,0-3.667,0-5.501,0c-1.908,0-3.5,1.592-3.5,3.5s1.592,3.5,3.5,3.5
					c1.834,0,3.667,0,5.501,0c1.908,0,3.5-1.592,3.5-3.5S197.294,230.61,195.386,230.61L195.386,230.61z"/>
			</g>
		</g>
		<g>
			<g>
				<path style="fill:#FFFFFF;" d="M280.053,233.674c3,0,6.001,0,9.001,0c4.514,0,4.514-7,0-7c-3,0-6.001,0-9.001,0
					C275.539,226.674,275.539,233.674,280.053,233.674L280.053,233.674z"/>
			</g>
		</g>
		<g>
			<g>
				<path style="fill:#FFFFFF;" d="M243.435,238.638c-3,0-6.001,0-9.001,0c-4.514,0-4.514,7,0,7c3,0,6.001,0,9.001,0
					C247.948,245.638,247.948,238.638,243.435,238.638L243.435,238.638z"/>
			</g>
		</g>
		<g>
			<g>
				<path style="fill:#FFFFFF;" d="M260.289,227.271c-5.333,0-10.667,0-16,0c-4.514,0-4.514,7,0,7c5.333,0,10.667,0,16,0
					C264.803,234.271,264.803,227.271,260.289,227.271L260.289,227.271z"/>
			</g>
		</g>
		<g>
			<g>
				<path style="fill:#FFFFFF;" d="M259.955,238.507c-2,0-4,0-6,0c-1.908,0-3.5,1.592-3.5,3.5s1.592,3.5,3.5,3.5c2,0,4,0,6,0
					c1.908,0,3.5-1.592,3.5-3.5S261.863,238.507,259.955,238.507L259.955,238.507z"/>
			</g>
		</g>
		<g>
			<g>
				<path style="fill:#FFFFFF;" d="M246.621,232.507c-0.667,0-1.333,0-2,0c-1.908,0-3.5,1.592-3.5,3.5s1.592,3.5,3.5,3.5
					c0.667,0,1.333,0,2,0c1.908,0,3.5-1.592,3.5-3.5S248.529,232.507,246.621,232.507L246.621,232.507z"/>
			</g>
		</g>
		<g>
			<g>
				<path style="fill:#FFFFFF;" d="M252.455,258.507c2,0,4,0,6,0c1.908,0,3.5-1.592,3.5-3.5s-1.592-3.5-3.5-3.5c-2,0-4,0-6,0
					c-1.908,0-3.5,1.592-3.5,3.5S250.547,258.507,252.455,258.507L252.455,258.507z"/>
			</g>
		</g>
		<g>
			<g>
				<path style="fill:#FFFFFF;" d="M193.371,260.34c5.083,0,10.167,0,15.25,0c4.514,0,4.514-7,0-7c-5.083,0-10.167,0-15.25,0
					C188.857,253.34,188.857,260.34,193.371,260.34L193.371,260.34z"/>
			</g>
		</g>
		<g>
			<g>
				<path style="fill:#FFFFFF;" d="M232.122,238.507c2,0,4,0,6,0c1.908,0,3.5-1.592,3.5-3.5s-1.592-3.5-3.5-3.5c-2,0-4,0-6,0
					c-1.908,0-3.5,1.592-3.5,3.5S230.214,238.507,232.122,238.507L232.122,238.507z"/>
			</g>
		</g>
		<g>
			<g>
				<path style="fill:#FFFFFF;" d="M279.804,243.305c3,0,6.001,0,9.001,0c4.514,0,4.514-7,0-7c-3,0-6.001,0-9.001,0
					C275.29,236.305,275.29,243.305,279.804,243.305L279.804,243.305z"/>
			</g>
		</g>
		<g>
			<g>
				<path style="fill:#FFFFFF;" d="M266.137,258.542c5.333,0,10.667,0,16,0c4.514,0,4.514-7,0-7c-5.333,0-10.667,0-16,0
					C261.623,251.542,261.623,258.542,266.137,258.542L266.137,258.542z"/>
			</g>
		</g>
		<g>
			<g>
				<path style="fill:#FFFFFF;" d="M262.455,250.507c2,0,4,0,6,0c1.908,0,3.5-1.592,3.5-3.5s-1.592-3.5-3.5-3.5c-2,0-4,0-6,0
					c-1.908,0-3.5,1.592-3.5,3.5S260.547,250.507,262.455,250.507L262.455,250.507z"/>
			</g>
		</g>
		<g>
			<g>
				<path style="fill:#FFFFFF;" d="M280.805,254.305c0.667,0,1.333,0,2,0c1.908,0,3.5-1.592,3.5-3.5s-1.592-3.5-3.5-3.5
					c-0.667,0-1.333,0-2,0c-1.908,0-3.5,1.592-3.5,3.5S278.896,254.305,280.805,254.305L280.805,254.305z"/>
			</g>
		</g>
		<g>
			<g>
				<path style="fill:#FFFFFF;" d="M275.137,229.305c-3.722,0-7.444,0-11.166,0c-4.514,0-4.514,7,0,7c3.722,0,7.444,0,11.166,0
					C279.65,236.305,279.65,229.305,275.137,229.305L275.137,229.305z"/>
			</g>
		</g>
		<g>
			<g>
				<path style="fill:#FFFFFF;" d="M254.455,246.507c5.333,0,10.667,0,16,0c4.514,0,4.514-7,0-7c-5.333,0-10.667,0-16,0
					C249.941,239.507,249.941,246.507,254.455,246.507L254.455,246.507z"/>
			</g>
		</g>
		<g>
			<g>
				<path style="fill:#FFFFFF;" d="M225.564,241.923c-3,0-6,0-9,0c-4.514,0-4.514,7,0,7c3,0,6,0,9,0
					C230.078,248.923,230.078,241.923,225.564,241.923L225.564,241.923z"/>
			</g>
		</g>
		<g>
			<g>
				<path style="fill:#FFFFFF;" d="M231.189,227.257c-1.083,0-2.167,0-3.25,0c-1.908,0-3.5,1.592-3.5,3.5s1.592,3.5,3.5,3.5
					c1.083,0,2.167,0,3.25,0c1.908,0,3.5-1.592,3.5-3.5S233.098,227.257,231.189,227.257L231.189,227.257z"/>
			</g>
		</g>
		<g>
			<g>
				<path style="fill:#FFFFFF;" d="M207.137,231.888c-2,0-4,0-6,0c-1.908,0-3.5,1.592-3.5,3.5s1.592,3.5,3.5,3.5c2,0,4,0,6,0
					c1.908,0,3.5-1.592,3.5-3.5S209.045,231.888,207.137,231.888L207.137,231.888z"/>
			</g>
		</g>
		<g>
			<g>
				<path style="fill:#FFFFFF;" d="M194.813,247.757c-1.833,0-3.667,0-5.5,0c-1.908,0-3.5,1.592-3.5,3.5s1.592,3.5,3.5,3.5
					c1.833,0,3.667,0,5.5,0c1.908,0,3.5-1.592,3.5-3.5S196.721,247.757,194.813,247.757L194.813,247.757z"/>
			</g>
		</g>
		<g>
			<g>
				<path style="fill:#FFFFFF;" d="M250.636,248.638c-0.667,0-1.333,0-2,0c-1.908,0-3.5,1.592-3.5,3.5s1.592,3.5,3.5,3.5
					c0.667,0,1.333,0,2,0c1.908,0,3.5-1.592,3.5-3.5S252.544,248.638,250.636,248.638L250.636,248.638z"/>
			</g>
		</g>
		<g>
			<g>
				<path style="fill:#FFFFFF;" d="M254.386,238.443c-0.667,0-1.333,0-2,0c-1.908,0-3.5,1.592-3.5,3.5s1.592,3.5,3.5,3.5
					c0.667,0,1.333,0,2,0c1.908,0,3.5-1.592,3.5-3.5S256.294,238.443,254.386,238.443L254.386,238.443z"/>
			</g>
		</g>
		<g>
			<g>
				<path style="fill:#FFFFFF;" d="M212.814,258.34c1.833,0,3.667,0,5.5,0c1.908,0,3.5-1.592,3.5-3.5s-1.592-3.5-3.5-3.5
					c-1.833,0-3.667,0-5.5,0c-1.908,0-3.5,1.592-3.5,3.5S210.906,258.34,212.814,258.34L212.814,258.34z"/>
			</g>
		</g>
		<g>
			<g>
				<path style="fill:#FFFFFF;" d="M184.885,257.388c0.667,0,1.333,0,2,0c1.908,0,3.5-1.592,3.5-3.5s-1.592-3.5-3.5-3.5
					c-0.667,0-1.333,0-2,0c-1.908,0-3.5,1.592-3.5,3.5S182.977,257.388,184.885,257.388L184.885,257.388z"/>
			</g>
		</g>
		<g>
			<g>
				<path style="fill:#FFFFFF;" d="M200.135,248.674c0.667,0,1.333,0,2,0c1.908,0,3.5-1.592,3.5-3.5s-1.592-3.5-3.5-3.5
					c-0.667,0-1.333,0-2,0c-1.908,0-3.5,1.592-3.5,3.5S198.227,248.674,200.135,248.674L200.135,248.674z"/>
			</g>
		</g>
		<g>
			<g>
				<path style="fill:#FFFFFF;" d="M211.386,237.61c-1.834,0-3.667,0-5.501,0c-1.908,0-3.5,1.592-3.5,3.5s1.592,3.5,3.5,3.5
					c1.834,0,3.667,0,5.501,0c1.908,0,3.5-1.592,3.5-3.5S213.294,237.61,211.386,237.61L211.386,237.61z"/>
			</g>
		</g>
		<g>
			<g>
				<path style="fill:#FFFFFF;" d="M193.719,226.674c-3.278,0-6.556,0-9.834,0c-4.514,0-4.514,7,0,7c3.278,0,6.556,0,9.834,0
					C198.232,233.674,198.232,226.674,193.719,226.674L193.719,226.674z"/>
			</g>
		</g>
		<g>
			<g>
				<path style="fill:#FFFFFF;" d="M248.014,247.305c-3.722,0-7.444,0-11.166,0c-4.514,0-4.514,7,0,7c3.722,0,7.444,0,11.166,0
					C252.527,254.305,252.527,247.305,248.014,247.305L248.014,247.305z"/>
			</g>
		</g>
	</g>
	<g>
		<g>
			<path style="fill:#FFFFFF;" d="M182.518,229.586c36.179,0,72.357,0,108.536,0c1.935,0,1.935-3,0-3c-36.179,0-72.357,0-108.536,0
				C180.583,226.586,180.583,229.586,182.518,229.586L182.518,229.586z"/>
		</g>
	</g>
	<g>
		<g>
			<g>
				<path style="fill:#FFFFFF;" d="M209.147,226.655c0.063-15.673,0.431-42.836,21.81-43.222c1.933-0.035,1.936-3.035,0-3
					c-23.483,0.423-24.739,28.599-24.81,46.222C206.14,228.59,209.14,228.59,209.147,226.655L209.147,226.655z"/>
			</g>
		</g>
		<g>
			<g>
				<path style="fill:#FFFFFF;" d="M203.711,226.655c0.126-18.041,4.718-42.843,27.246-43.222c1.933-0.032,1.936-3.033,0-3
					c-24.365,0.409-30.107,26.354-30.246,46.222C200.697,228.591,203.697,228.589,203.711,226.655L203.711,226.655z"/>
			</g>
		</g>
		<g>
			<g>
				<path style="fill:#FFFFFF;" d="M220.82,226.655c0.016-7.765-0.271-15.921,1.438-23.551c0.762-3.402,2.656-5.782,4.748-8.458
					c1.177-1.505-0.931-3.645-2.121-2.121c-2.146,2.743-4.153,5.21-5.206,8.594c-2.482,7.985-1.843,17.319-1.858,25.536
					C217.816,228.59,220.816,228.59,220.82,226.655L220.82,226.655z"/>
			</g>
		</g>
		<g>
			<g>
				<path style="fill:#FFFFFF;" d="M216.789,226.655c0.028-7.726-0.24-16.177,2.533-23.526c1.416-3.752,4.781-5.968,7.684-8.482
					c1.465-1.269-0.667-3.382-2.121-2.121c-3.118,2.701-6.256,4.995-8.047,8.837c-3.517,7.541-3.02,17.229-3.049,25.293
					C213.782,228.59,216.782,228.59,216.789,226.655L216.789,226.655z"/>
			</g>
		</g>
		<g>
			<g>
				<path style="fill:#FFFFFF;" d="M196.428,226.655c-0.046-7.583-0.018-16.121-3.419-23.114c-0.652-1.34-1.617-2.56-2.749-3.524
					c-0.311-0.265-1.609-0.977-1.646-1.382c-0.17-1.911-3.171-1.928-3,0c0.199,2.249,2.109,2.951,3.498,4.435
					c5.123,5.473,4.275,16.854,4.315,23.586C193.439,228.589,196.439,228.591,196.428,226.655L196.428,226.655z"/>
			</g>
		</g>
		<g>
			<g>
				<path style="fill:#FFFFFF;" d="M201.812,226.257c-1.05-6.592-1.379-15.021-5.013-20.889c-1.971-3.183-6.063-5.089-8.624-7.794
					c-1.332-1.407-3.45,0.718-2.121,2.121c2.401,2.536,5.647,4.24,7.91,6.839c1.318,1.514,1.764,3.879,2.24,5.754
					c1.231,4.842,1.93,9.839,2.715,14.766C199.223,228.961,202.113,228.148,201.812,226.257L201.812,226.257z"/>
			</g>
		</g>
		<g>
			<g>
				<path style="fill:#FFFFFF;" d="M275.006,226.604c0.022-6.912-0.262-14.395,1.936-21.048c1.12-3.391,3.961-5.377,6.561-7.588
					c1.476-1.255-0.657-3.367-2.121-2.121c-2.797,2.379-5.485,4.467-6.953,7.943c-2.916,6.906-2.398,15.518-2.422,22.813
					C272,228.539,275,228.539,275.006,226.604L275.006,226.604z"/>
			</g>
		</g>
		<g>
			<g>
				<path style="fill:#FFFFFF;" d="M269.568,226.604c0.04-6.861-0.186-14.869,3.442-20.984c2.181-3.675,6.654-5.38,10.188-7.417
					c1.675-0.966,0.165-3.559-1.514-2.59c-3.98,2.294-8.076,4.141-10.883,7.92c-4.566,6.149-4.191,15.894-4.233,23.071
					C266.557,228.54,269.557,228.538,269.568,226.604L269.568,226.604z"/>
			</g>
		</g>
		<g>
			<g>
				<path style="fill:#FFFFFF;" d="M284.246,226.604c0.047-5.998-0.38-14.873,4.124-19.651c1.392-1.476,3.436-1.81,3.69-4.109
					c0.213-1.922-2.79-1.901-3,0c0.01-0.088-3.619,2.894-4.177,3.699c-3.771,5.45-3.589,13.804-3.638,20.062
					C281.231,228.54,284.231,228.538,284.246,226.604L284.246,226.604z"/>
			</g>
		</g>
		<g>
			<g>
				<path style="fill:#FFFFFF;" d="M278.756,227.003c0.946-5.036,1.286-12.857,4.724-17.048c2.021-2.466,5.733-3.897,8.142-6.051
					c1.445-1.292-0.684-3.406-2.121-2.121c-2.565,2.293-6.219,3.706-8.402,6.367c-3.766,4.592-4.197,12.535-5.234,18.056
					C275.508,228.097,278.398,228.903,278.756,227.003L278.756,227.003z"/>
			</g>
		</g>
		<g>
			<g>
				<path style="fill:#FFFFFF;" d="M265.529,226.706c-0.036-4.676-0.104-9.962-2.447-14.169c-0.521-0.935-1.27-1.739-2.124-2.374
					c-0.278-0.207-0.565-0.395-0.858-0.579c-0.456-0.285-0.184-0.292-0.127,0.22c-0.21-1.901-3.212-1.922-3,0
					c0.188,1.703,1.418,2.043,2.553,3.039c3.402,2.984,2.973,9.897,3.004,13.863C262.544,228.64,265.544,228.642,265.529,226.706
					L265.529,226.706z"/>
			</g>
		</g>
		<g>
			<g>
				<path style="fill:#FFFFFF;" d="M269.344,226.308c-0.753-4.009-1.116-9.289-3.6-12.731c-1.508-2.09-4.309-3.133-6.211-4.833
					c-1.438-1.285-3.566,0.829-2.121,2.121c1.727,1.543,3.95,2.526,5.6,4.098c0.853,0.813,1.179,2.141,1.505,3.223
					c0.876,2.906,1.375,5.943,1.935,8.92C266.809,229.005,269.699,228.198,269.344,226.308L269.344,226.308z"/>
			</g>
		</g>
		<g>
			<g>
				<path style="fill:#FFFFFF;" d="M251.004,227.219c-0.021-6.788,0.339-14.309-1.911-20.838c-1.064-3.092-3.337-5.133-5.603-7.355
					c-1.382-1.355-3.504,0.765-2.121,2.121c2.081,2.041,4.056,3.779,5.032,6.616c2.071,6.013,1.583,13.213,1.603,19.456
					C248.01,229.153,251.01,229.153,251.004,227.219L251.004,227.219z"/>
			</g>
		</g>
		<g>
			<g>
				<path style="fill:#FFFFFF;" d="M255.309,227.219c-0.038-6.844,0.123-14.679-3.241-20.889c-1.917-3.538-5.665-5.402-8.881-7.539
					c-1.616-1.074-3.117,1.525-1.514,2.59c2.862,1.902,5.955,3.442,7.804,6.464c3.309,5.406,2.799,13.333,2.832,19.374
					C252.319,229.152,255.319,229.154,255.309,227.219L255.309,227.219z"/>
			</g>
		</g>
		<g>
			<g>
				<path style="fill:#FFFFFF;" d="M240.324,227.211c-0.042-3.81-0.375-7.961-2.924-10.997c-0.622-0.741-1.483-1.312-2.35-1.726
					c-0.273-0.13-0.556-0.24-0.834-0.361c-0.676-0.295-0.063,0.052-0.04,0.199c-0.304-1.906-3.194-1.095-2.893,0.797
					c0.23,1.444,1.997,1.752,3.043,2.38c2.981,1.792,2.965,6.756,2.997,9.708C237.346,229.145,240.346,229.146,240.324,227.211
					L240.324,227.211z"/>
			</g>
		</g>
		<g>
			<g>
				<path style="fill:#FFFFFF;" d="M244.511,226.813c-0.883-3.167-1.622-7.311-4.082-9.727c-1.792-1.76-4.812-2.372-6.941-3.656
					c-1.661-1.002-3.168,1.593-1.514,2.59c1.938,1.17,4.154,1.796,6.063,2.976c2.322,1.437,2.937,6.301,3.582,8.614
					C242.137,229.471,245.031,228.68,244.511,226.813L244.511,226.813z"/>
			</g>
		</g>
	</g>
</g>
<g id="Ebene_1">
</g>
</svg>
