<?xml version="1.0" encoding="iso-8859-1"?>
<!-- Generator: Adobe Illustrator 16.0.0, SVG Export Plug-In . SVG Version: 6.00 Build 0)  -->
<!DOCTYPE svg PUBLIC "-//W3C//DTD SVG 1.1 Tiny//EN" "http://www.w3.org/Graphics/SVG/1.1/DTD/svg11-tiny.dtd">
<svg version="1.1" baseProfile="tiny" id="weather_x5F_sunset"
	 xmlns="http://www.w3.org/2000/svg" xmlns:xlink="http://www.w3.org/1999/xlink" x="0px" y="0px" width="361px" height="361px"
	 viewBox="0 0 361 361" xml:space="preserve">
<g>
	<path fill="#FFFFFF" d="M73.471,294.324c48.559,0,97.118,0,145.676,0c21.907,0,43.814,0,65.722,0c6.449,0,6.449-10,0-10
		c-48.559,0-97.118,0-145.676,0c-21.907,0-43.814,0-65.722,0C67.022,284.324,67.022,294.324,73.471,294.324L73.471,294.324z"/>
</g>
<g id="sonne_3_" display="none">
	<path display="inline" fill="none" stroke="#FFFFFF" stroke-width="10" stroke-miterlimit="10" d="M207.405,268.504
		c-11.063,0-20.032-8.969-20.032-20.032v-25.77c0-11.063,8.969-20.032,20.032-20.032h24.483c11.064,0,20.032,8.969,20.032,20.032
		v25.769c0,11.064-8.969,20.033-20.032,20.032L207.405,268.504z"/>
	<g display="inline">
		<path fill="#FFFFFF" d="M270.232,172.289c-6.131,6.131-12.262,12.261-18.393,18.392c-4.563,4.563,2.507,11.635,7.071,7.071
			c6.131-6.131,12.262-12.261,18.393-18.392C281.867,174.797,274.796,167.726,270.232,172.289L270.232,172.289z"/>
	</g>
	<g display="inline">
		<path fill="#FFFFFF" d="M214.647,153.692c0,9.613,0,19.225,0,28.838c0,6.449,10,6.449,10,0c0-9.613,0-19.225,0-28.838
			C224.647,147.243,214.647,147.243,214.647,153.692L214.647,153.692z"/>
	</g>
	<g display="inline">
		<path fill="#FFFFFF" d="M139.421,238.918c9.612,0,19.225,0,28.837,0c6.449,0,6.449-10,0-10c-9.612,0-19.225,0-28.837,0
			C132.973,228.918,132.973,238.918,139.421,238.918L139.421,238.918z"/>
	</g>
	<g display="inline">
		<path fill="#FFFFFF" d="M154.989,177.789c7.178,7.178,14.356,14.356,21.535,21.535c4.564,4.563,11.635-2.507,7.071-7.071
			c-7.178-7.178-14.356-14.356-21.535-21.535C157.497,166.154,150.426,173.225,154.989,177.789L154.989,177.789z"/>
	</g>
	<g display="inline">
		<path fill="#FFFFFF" d="M240.828,167.925c-1.898,4.583-3.797,9.167-5.695,13.751c-1.045,2.523,1.11,5.495,3.492,6.15
			c2.875,0.791,5.108-0.976,6.15-3.492c1.898-4.583,3.797-9.167,5.695-13.751c1.045-2.523-1.11-5.495-3.492-6.15
			C244.104,163.642,241.87,165.409,240.828,167.925L240.828,167.925z"/>
	</g>
	<g display="inline">
		<path fill="#FFFFFF" d="M186.305,171c1.898,4.584,3.797,9.167,5.696,13.751c1.042,2.516,3.275,4.283,6.15,3.492
			c2.382-0.655,4.538-3.627,3.492-6.15c-1.898-4.584-3.797-9.167-5.696-13.751c-1.042-2.516-3.275-4.283-6.15-3.492
			C187.415,165.505,185.259,168.478,186.305,171L186.305,171z"/>
	</g>
	<g display="inline">
		<path fill="#FFFFFF" d="M154.052,212.324c4.583,1.899,9.167,3.798,13.751,5.696c2.523,1.045,5.495-1.11,6.15-3.492
			c0.791-2.875-0.976-5.108-3.492-6.15c-4.583-1.899-9.167-3.798-13.751-5.696c-2.523-1.045-5.495,1.11-6.15,3.492
			C149.769,209.049,151.536,211.282,154.052,212.324L154.052,212.324z"/>
	</g>
	<g display="inline">
		<path fill="#FFFFFF" d="M156.71,264.762c4.584-1.898,9.168-3.797,13.751-5.696c2.516-1.042,4.283-3.275,3.492-6.15
			c-0.655-2.382-3.627-4.537-6.15-3.492c-4.584,1.898-9.168,3.797-13.751,5.696c-2.516,1.042-4.283,3.275-3.492,6.15
			C151.215,263.652,154.188,265.807,156.71,264.762L156.71,264.762z"/>
	</g>
	<g display="inline">
		<path fill="#FFFFFF" d="M270.305,283.876c-3.483-3.483-6.967-6.966-10.45-10.449c-4.564-4.563-11.635,2.508-7.071,7.071
			c3.483,3.483,6.967,6.966,10.45,10.449C267.798,295.511,274.869,288.44,270.305,283.876L270.305,283.876z"/>
	</g>
	<g display="inline">
		<path fill="#FFFFFF" d="M171.839,290.796c3.918-3.919,7.837-7.838,11.756-11.756c4.563-4.564-2.507-11.635-7.071-7.071
			c-3.918,3.919-7.837,7.838-11.756,11.756C160.204,288.289,167.275,295.36,171.839,290.796L171.839,290.796z"/>
	</g>
	<g display="inline">
		<path fill="#FFFFFF" d="M283.508,230.784c-4.292,0-8.584,0-12.877,0c-6.449,0-6.449,10,0,10c4.292,0,8.584,0,12.877,0
			C289.957,240.784,289.957,230.784,283.508,230.784L283.508,230.784z"/>
	</g>
	<g display="inline">
		<path fill="#FFFFFF" d="M282.179,204.547c-4.584,1.898-9.168,3.797-13.751,5.696c-2.516,1.042-4.283,3.275-3.492,6.15
			c0.655,2.382,3.627,4.537,6.15,3.492c4.584-1.898,9.168-3.797,13.751-5.696c2.516-1.042,4.283-3.275,3.492-6.15
			C287.674,205.657,284.702,203.502,282.179,204.547L282.179,204.547z"/>
	</g>
	<g display="inline">
		<path fill="#FFFFFF" d="M284.837,256.985c-4.583-1.899-9.167-3.797-13.751-5.696c-2.523-1.045-5.495,1.11-6.15,3.492
			c-0.791,2.875,0.976,5.108,3.492,6.15c4.583,1.899,9.167,3.797,13.751,5.696c2.523,1.045,5.495-1.11,6.15-3.492
			C289.12,260.26,287.353,258.027,284.837,256.985L284.837,256.985z"/>
	</g>
	<g display="inline">
		<path fill="#FFFFFF" d="M225.907,289.324c0-0.703,0-1.406,0-2.108c0-2.726-2.274-5-5-5s-5,2.274-5,5c0,0.703,0,1.406,0,2.108
			c0,2.726,2.274,5,5,5S225.907,292.049,225.907,289.324L225.907,289.324z"/>
	</g>
	<g display="inline">
		<path fill="#FFFFFF" d="M246.461,286.161c-0.36-0.792-0.72-1.583-1.08-2.375c-0.51-1.122-1.846-1.984-2.988-2.298
			c-1.291-0.355-2.698-0.172-3.853,0.504c-1.118,0.655-1.954,1.738-2.298,2.988c-0.06,0.443-0.119,0.886-0.179,1.329
			c0.003,0.902,0.23,1.744,0.683,2.523c0.36,0.792,0.72,1.583,1.08,2.375c0.51,1.122,1.846,1.984,2.988,2.298
			c1.291,0.355,2.698,0.172,3.853-0.504c1.118-0.655,1.954-1.738,2.298-2.988c0.06-0.443,0.119-0.886,0.179-1.329
			C247.141,287.782,246.913,286.94,246.461,286.161L246.461,286.161z"/>
	</g>
	<g display="inline">
		<path fill="#FFFFFF" d="M201.643,290.692c0.42-1.014,0.84-2.027,1.26-3.041c0.483-1.167,0.104-2.814-0.504-3.853
			c-0.655-1.118-1.738-1.954-2.988-2.298c-1.291-0.355-2.698-0.172-3.853,0.504c-1.23,0.721-1.774,1.723-2.298,2.988
			c-0.42,1.014-0.84,2.027-1.26,3.041c-0.483,1.167-0.104,2.814,0.504,3.853c0.655,1.118,1.738,1.954,2.988,2.298
			c1.291,0.355,2.698,0.172,3.853-0.504C200.575,292.96,201.119,291.958,201.643,290.692L201.643,290.692z"/>
	</g>
</g>
<g>
	<g>
		<path fill="#FFFFFF" d="M246.921,236.468c0,4.792,0.577,9.97-0.229,14.712c-1.404,8.263-8.785,12.324-16.526,12.324
			c-6.121,0-12.242,0-18.363,0c-2.02,0-4.038-0.008-6.058,0.036c-3.687,0.08-11.366-2.86-11.644-7.43
			c-0.389-6.406-10.391-6.444-10,0c0.718,11.831,13.444,17.394,23.76,17.394c7.435,0,14.869,0,22.304,0
			c10.127,0,19.017-4.444,23.954-13.533c3.839-7.069,2.801-15.752,2.801-23.503C256.921,230.019,246.921,230.019,246.921,236.468
			L246.921,236.468z"/>
	</g>
	<g>
		<path fill="#FFFFFF" d="M193.143,233.918c-0.095-5.399-0.892-11.247,0.731-16.466c2.258-7.262,9.587-9.782,16.402-9.782
			c6.182,0,12.363,0,18.545,0c5.808,0,16.161-0.426,16.647,7.395c0.398,6.404,10.401,6.443,10,0
			c-1.35-21.711-30.093-17.395-45.192-17.395c-9.976,0-18.467,3.753-23.912,12.398c-4.479,7.111-3.361,15.878-3.222,23.85
			C183.256,240.359,193.256,240.37,193.143,233.918L193.143,233.918z"/>
	</g>
</g>
<g>
	<path fill="#FFFFFF" d="M274.292,171.35c-6.131,6.131-12.262,12.261-18.393,18.392c-3.194,3.195,1.755,8.145,4.95,4.95
		c6.131-6.131,12.262-12.261,18.393-18.392C282.437,173.105,277.487,168.155,274.292,171.35L274.292,171.35z"/>
</g>
<g>
	<path fill="#FFFFFF" d="M216.147,159.692c0,7.479,0,14.958,0,22.438c0,4.514,7,4.514,7,0c0-7.479,0-14.958,0-22.438
		C223.147,155.178,216.147,155.178,216.147,159.692L216.147,159.692z"/>
</g>
<g>
	<path fill="#FFFFFF" d="M139.421,237.418c9.612,0,19.225,0,28.837,0c4.514,0,4.514-7,0-7c-9.612,0-19.225,0-28.837,0
		C134.907,230.418,134.907,237.418,139.421,237.418L139.421,237.418z"/>
</g>
<g>
	<path fill="#FFFFFF" d="M242.274,168.324c-1.898,4.584-3.797,9.167-5.695,13.751c-0.731,1.766,0.777,3.847,2.444,4.306
		c2.013,0.554,3.576-0.684,4.306-2.444c1.898-4.584,3.797-9.167,5.695-13.751c0.731-1.766-0.777-3.847-2.444-4.306
		C244.567,165.326,243.004,166.563,242.274,168.324L242.274,168.324z"/>
</g>
<g>
	<path fill="#FFFFFF" d="M154.451,210.878c4.584,1.899,9.168,3.797,13.751,5.696c1.766,0.731,3.847-0.777,4.306-2.444
		c0.554-2.013-0.684-3.576-2.444-4.306c-4.584-1.899-9.168-3.797-13.751-5.696c-1.766-0.731-3.847,0.777-4.306,2.444
		C151.453,208.585,152.69,210.148,154.451,210.878L154.451,210.878z"/>
</g>
<g>
	<path fill="#FFFFFF" d="M156.312,263.315c4.583-1.898,9.167-3.797,13.751-5.696c1.761-0.729,2.998-2.293,2.444-4.306
		c-0.458-1.667-2.54-3.176-4.306-2.444c-4.583,1.898-9.167,3.797-13.751,5.696c-1.761,0.729-2.998,2.293-2.444,4.306
		C152.465,262.539,154.546,264.047,156.312,263.315L156.312,263.315z"/>
</g>
<g>
	<path fill="#FFFFFF" d="M269.245,284.937c-3.483-3.483-6.967-6.966-10.45-10.449c-3.195-3.194-8.145,1.755-4.95,4.95
		c3.483,3.483,6.967,6.966,10.45,10.449C267.489,293.082,272.439,288.132,269.245,284.937L269.245,284.937z"/>
</g>
<g>
	<path fill="#FFFFFF" d="M170.778,289.736c3.918-3.919,7.837-7.838,11.756-11.756c3.194-3.195-1.755-8.145-4.95-4.95
		c-3.918,3.919-7.837,7.838-11.756,11.756C162.634,287.98,167.583,292.93,170.778,289.736L170.778,289.736z"/>
</g>
<g>
	<path fill="#FFFFFF" d="M283.508,232.284c-4.292,0-8.584,0-12.877,0c-4.514,0-4.514,7,0,7c4.292,0,8.584,0,12.877,0
		C288.022,239.284,288.022,232.284,283.508,232.284L283.508,232.284z"/>
</g>
<g>
	<path fill="#FFFFFF" d="M282.577,205.994c-4.583,1.899-9.167,3.797-13.751,5.696c-1.761,0.729-2.998,2.293-2.444,4.306
		c0.459,1.667,2.54,3.176,4.306,2.444c4.583-1.899,9.167-3.797,13.751-5.696c1.761-0.729,2.998-2.293,2.444-4.306
		C286.424,206.771,284.343,205.262,282.577,205.994L282.577,205.994z"/>
</g>
<g>
	<path fill="#FFFFFF" d="M284.438,258.431c-4.584-1.898-9.168-3.797-13.751-5.696c-1.766-0.731-3.847,0.777-4.306,2.444
		c-0.554,2.013,0.684,3.576,2.444,4.306c4.584,1.898,9.168,3.797,13.751,5.696c1.766,0.731,3.847-0.777,4.306-2.444
		C287.437,260.724,286.199,259.161,284.438,258.431L284.438,258.431z"/>
</g>
<g>
	<path fill="#FFFFFF" d="M224.407,289.324c0-0.703,0-1.406,0-2.108c0-1.908-1.592-3.5-3.5-3.5s-3.5,1.592-3.5,3.5
		c0,0.703,0,1.406,0,2.108c0,1.908,1.592,3.5,3.5,3.5S224.407,291.231,224.407,289.324L224.407,289.324z"/>
</g>
<g>
	<path fill="#FFFFFF" d="M245.166,286.917c-0.36-0.792-0.72-1.583-1.08-2.375c-0.357-0.785-1.292-1.389-2.091-1.608
		c-0.904-0.249-1.889-0.121-2.697,0.353c-0.782,0.458-1.368,1.217-1.608,2.091c-0.27,0.979-0.053,1.806,0.353,2.697
		c0.36,0.792,0.72,1.583,1.08,2.375c0.357,0.785,1.292,1.389,2.091,1.608c0.904,0.249,1.889,0.121,2.697-0.353
		c0.782-0.458,1.368-1.217,1.608-2.091C245.788,288.635,245.571,287.809,245.166,286.917L245.166,286.917z"/>
</g>
<g>
	<path fill="#FFFFFF" d="M200.196,290.294c0.42-1.014,0.84-2.027,1.26-3.041c0.338-0.817,0.073-1.971-0.353-2.697
		c-0.458-0.782-1.217-1.368-2.091-1.608c-0.904-0.249-1.889-0.121-2.697,0.353c-0.861,0.504-1.242,1.206-1.608,2.091
		c-0.42,1.014-0.84,2.027-1.26,3.041c-0.338,0.817-0.073,1.971,0.353,2.697c0.458,0.782,1.217,1.368,2.091,1.608
		c0.904,0.249,1.889,0.121,2.697-0.353C199.449,291.881,199.83,291.179,200.196,290.294L200.196,290.294z"/>
</g>
<g>
	<path fill="#FFFFFF" d="M120.285,244.945c29.902,0,59.805,0,89.707,0c1.935,0,1.935-3,0-3c-29.902,0-59.805,0-89.707,0
		C118.351,241.945,118.351,244.945,120.285,244.945L120.285,244.945z"/>
</g>
<g>
	<path fill="#FFFFFF" d="M102.39,249.53c17.095,0,34.189,0,51.284,0c1.935,0,1.935-3,0-3c-17.095,0-34.189,0-51.284,0
		C100.456,246.53,100.456,249.53,102.39,249.53L102.39,249.53z"/>
</g>
<g>
	<path fill="#FFFFFF" d="M75.781,213.287c22.912,0,45.824,0,68.735,0c1.935,0,1.935-3,0-3c-22.912,0-45.824,0-68.735,0
		C73.847,210.287,73.847,213.287,75.781,213.287L75.781,213.287z"/>
</g>
<g>
	<path fill="#FFFFFF" d="M69.159,218.873c19.703,0,39.406,0,59.108,0c1.935,0,1.935-3,0-3c-19.703,0-39.406,0-59.108,0
		C67.225,215.873,67.225,218.873,69.159,218.873L69.159,218.873z"/>
</g>
<g>
	<path fill="#FFFFFF" d="M237.063,229.458c15.365,0,30.729,0,46.094,0c1.935,0,1.935-3,0-3c-15.365,0-30.729,0-46.094,0
		C235.129,226.458,235.129,229.458,237.063,229.458L237.063,229.458z"/>
</g>
<g>
	<path fill="#FFFFFF" d="M233.126,224.873c13.761,0,27.522,0,41.284,0c1.935,0,1.935-3,0-3c-13.761,0-27.522,0-41.284,0
		C231.191,221.873,231.191,224.873,233.126,224.873L233.126,224.873z"/>
</g>
<g>
	<path fill="#FFFFFF" d="M177.982,249.53c7.542-0.081,15.083-0.162,22.625-0.243c1.934-0.021,1.936-3.021,0-3
		c-7.542,0.081-15.083,0.162-22.625,0.243C176.048,246.551,176.046,249.551,177.982,249.53L177.982,249.53z"/>
</g>
<g>
	<path fill="#FFFFFF" d="M96.156,136.182c34.146,0,68.293,0,102.439,0c1.935,0,1.935-3,0-3c-34.146,0-68.293,0-102.439,0
		C94.221,133.182,94.221,136.182,96.156,136.182L96.156,136.182z"/>
</g>
<g>
	<path fill="#FFFFFF" d="M79.375,141.767c47.362,0,94.724,0,142.086,0c0.934,0,1.867,0,2.8,0c1.935,0,1.935-3,0-3
		c-47.362,0-94.724,0-142.086,0c-0.934,0-1.867,0-2.8,0C77.44,138.767,77.44,141.767,79.375,141.767L79.375,141.767z"/>
</g>
<g>
	<path fill="#FFFFFF" d="M71.913,161.766c22.57,0,45.141,0,67.711,0c1.935,0,1.935-3,0-3c-22.57,0-45.141,0-67.711,0
		C69.978,158.766,69.978,161.766,71.913,161.766L71.913,161.766z"/>
</g>
<g>
	<path fill="#FFFFFF" d="M146.739,164.941c-16.861,0-33.722,0-50.583,0c-1.935,0-1.935,3,0,3c16.861,0,33.722,0,50.583,0
		C148.673,167.941,148.673,164.941,146.739,164.941L146.739,164.941z"/>
</g>
<g>
	<path fill="#FFFFFF" d="M180.852,191.742c-6.131-6.131-12.261-12.262-18.392-18.393c-3.195-3.194-8.145,1.755-4.95,4.95
		c6.131,6.131,12.261,12.262,18.392,18.393C179.097,199.886,184.046,194.937,180.852,191.742L180.852,191.742z"/>
</g>
<g>
	<path fill="#FFFFFF" d="M188.841,170.185c1.898,4.583,3.797,9.167,5.695,13.751c0.729,1.761,2.293,2.998,4.306,2.444
		c1.667-0.459,3.176-2.54,2.444-4.306c-1.898-4.583-3.797-9.167-5.695-13.751c-0.729-1.761-2.293-2.998-4.306-2.444
		C189.618,166.338,188.109,168.419,188.841,170.185L188.841,170.185z"/>
</g>
</svg>
