<?xml version="1.0" encoding="iso-8859-1"?>
<!-- Generator: Adobe Illustrator 16.0.0, SVG Export Plug-In . SVG Version: 6.00 Build 0)  -->
<!DOCTYPE svg PUBLIC "-//W3C//DTD SVG 1.1//EN" "http://www.w3.org/Graphics/SVG/1.1/DTD/svg11.dtd">
<svg version="1.1" xmlns="http://www.w3.org/2000/svg" xmlns:xlink="http://www.w3.org/1999/xlink" x="0px" y="0px" width="361px"
	 height="361px" viewBox="0 0 361 361" style="enable-background:new 0 0 361 361;" xml:space="preserve">
<g id="weather_x5F_wind_x5F_speed_x5F_ms">
	<g>
		<g>
			<g>
				<path style="fill:#FFFFFF;" d="M262.148,96.03c0,49.764,0,99.527,0,149.291c0,13.782,0,27.563,0,41.346c0,6.448,10,6.448,10,0
					c0-49.764,0-99.527,0-149.291c0-13.782,0-27.564,0-41.346C272.148,89.582,262.148,89.582,262.148,96.03L262.148,96.03z"/>
			</g>
		</g>
		
			<line style="fill:none;stroke:#FFFFFF;stroke-width:10;stroke-miterlimit:10;" x1="75.345" y1="126.976" x2="192.398" y2="75.523"/>
		
			<line style="fill:none;stroke:#FFFFFF;stroke-width:10;stroke-miterlimit:10;" x1="85.563" y1="157.045" x2="210.725" y2="143.917"/>
		<g>
			<polygon style="fill:#FFFFFF;" points="192.398,75.523 257.083,94.843 210.725,143.917 			"/>
			<g>
				<path style="fill:#FFFFFF;" d="M191.069,80.345c21.562,6.44,43.123,12.88,64.685,19.32c-0.735-2.786-1.471-5.571-2.206-8.357
					c-15.453,16.358-30.906,32.716-46.358,49.074c2.785,0.735,5.571,1.471,8.356,2.207c-6.108-22.798-12.218-45.596-18.326-68.394
					c-1.667-6.223-11.314-3.579-9.643,2.658c6.108,22.798,12.218,45.596,18.326,68.394c0.955,3.565,5.765,4.951,8.356,2.207
					c15.453-16.358,30.906-32.716,46.358-49.074c2.606-2.758,1.455-7.264-2.206-8.357c-21.562-6.44-43.123-12.88-64.685-19.32
					C187.533,68.852,184.906,78.504,191.069,80.345z"/>
			</g>
		</g>
		<path style="fill:#FFFFFF;" d="M100.743,152.304c0.902,3.603-1.41,7.288-5.165,8.228l-9.628,2.409
			c-3.753,0.938-7.528-1.223-8.43-4.826l-7.281-29.096c-0.903-3.604,1.41-7.289,5.164-8.228l9.629-2.409
			c3.754-0.938,7.528,1.222,8.431,4.826L100.743,152.304z"/>
		<path style="fill:#FFFFFF;" d="M140.762,145.611c1.11,4.44-1.033,8.802-4.788,9.742l-9.628,2.409
			c-3.753,0.939-7.698-1.899-8.809-6.339l-8.97-35.847c-1.111-4.44,1.032-8.802,4.787-9.742l9.629-2.409
			c3.752-0.939,7.697,1.899,8.808,6.34L140.762,145.611z"/>
		<path style="fill:#FFFFFF;" d="M183.645,138.335c1.395,5.571-0.518,10.853-4.272,11.791l-9.629,2.409
			c-3.754,0.939-7.928-2.817-9.321-8.389l-11.258-44.987c-1.394-5.571,0.519-10.853,4.273-11.791l9.629-2.409
			c3.753-0.938,7.928,2.818,9.322,8.389L183.645,138.335z"/>
	</g>
	<g>
		<path style="fill:#FFFFFF;" d="M90.681,258.246c0-3.457-0.444-5.904-1.332-7.345c-0.889-1.44-2.412-2.159-4.572-2.159
			c-0.672,0-1.368,0.035-2.088,0.107c-0.72,0.072-1.417,0.156-2.088,0.252v29.232H69.873v-36.576c0.911-0.24,1.98-0.492,3.204-0.756
			c1.224-0.264,2.52-0.504,3.888-0.721c1.368-0.216,2.772-0.383,4.212-0.504c1.44-0.119,2.855-0.18,4.248-0.18
			c2.736,0,4.956,0.349,6.66,1.044c1.703,0.696,3.107,1.524,4.212,2.483c1.536-1.104,3.3-1.967,5.292-2.592
			c1.991-0.623,3.827-0.936,5.508-0.936c3.024,0,5.508,0.42,7.452,1.26c1.944,0.84,3.492,2.028,4.644,3.564
			c1.152,1.536,1.944,3.359,2.376,5.472c0.432,2.112,0.648,4.464,0.648,7.056v21.385h-10.728v-20.088
			c0-3.457-0.444-5.904-1.332-7.345c-0.889-1.44-2.412-2.159-4.572-2.159c-0.576,0-1.38,0.143-2.412,0.432
			c-1.033,0.287-1.884,0.647-2.556,1.08c0.335,1.104,0.551,2.268,0.648,3.492c0.096,1.224,0.144,2.531,0.144,3.924v20.664H90.681
			V258.246z"/>
		<path style="fill:#FFFFFF;" d="M136.113,291.653h-11.016l24.2-69.696h10.864L136.113,291.653z"/>
		<path style="fill:#FFFFFF;" d="M172.042,270.629c1.967,0,3.359-0.19,4.176-0.575c0.816-0.384,1.224-1.128,1.224-2.232
			c0-0.864-0.529-1.62-1.584-2.268c-1.057-0.648-2.664-1.38-4.824-2.196c-1.681-0.623-3.204-1.271-4.572-1.943
			s-2.532-1.477-3.492-2.412c-0.96-0.937-1.704-2.053-2.232-3.349c-0.529-1.296-0.792-2.854-0.792-4.68
			c0-3.552,1.32-6.36,3.96-8.425c2.639-2.063,6.264-3.096,10.872-3.096c2.304,0,4.511,0.205,6.624,0.612
			c2.112,0.408,3.792,0.853,5.04,1.332l-1.872,8.353c-1.249-0.433-2.604-0.816-4.068-1.152c-1.465-0.336-3.108-0.504-4.932-0.504
			c-3.36,0-5.04,0.936-5.04,2.808c0,0.433,0.072,0.817,0.216,1.152c0.144,0.336,0.432,0.66,0.864,0.972
			c0.432,0.313,1.019,0.65,1.764,1.013c0.744,0.363,1.692,0.763,2.844,1.196c2.352,0.873,4.295,1.732,5.832,2.578
			c1.536,0.848,2.748,1.762,3.637,2.742c0.888,0.982,1.512,2.072,1.872,3.27s0.54,2.586,0.54,4.166c0,3.736-1.404,6.563-4.213,8.479
			c-2.807,1.914-6.78,2.873-11.916,2.873c-3.36,0-6.156-0.288-8.388-0.864s-3.78-1.056-4.644-1.44l1.8-8.711
			c1.824,0.719,3.696,1.284,5.616,1.691C168.272,270.426,170.169,270.629,172.042,270.629z"/>
	</g>
</g>
<g id="Ebene_1">
</g>
</svg>
