<?xml version="1.0" encoding="iso-8859-1"?>
<!-- Generator: Adobe Illustrator 16.0.0, SVG Export Plug-In . SVG Version: 6.00 Build 0)  -->
<!DOCTYPE svg PUBLIC "-//W3C//DTD SVG 1.1//EN" "http://www.w3.org/Graphics/SVG/1.1/DTD/svg11.dtd">
<svg version="1.1" xmlns="http://www.w3.org/2000/svg" xmlns:xlink="http://www.w3.org/1999/xlink" x="0px" y="0px" width="361px"
	 height="361px" viewBox="0 0 361 361" style="enable-background:new 0 0 361 361;" xml:space="preserve">
<g id="weather_x5F_wind_x5F_no_x5F_wind">
	<g>
		<g>
			<path style="fill:#FFFFFF;" d="M262.148,96.03c0,49.764,0,99.527,0,149.291c0,13.782,0,27.563,0,41.346c0,6.448,10,6.448,10,0
				c0-49.764,0-99.527,0-149.291c0-13.782,0-27.564,0-41.346C272.148,89.582,262.148,89.582,262.148,96.03L262.148,96.03z"/>
		</g>
	</g>
	<g>
		<g>
			<g>
				<path style="fill:#FFFFFF;" d="M172.773,257.665c14.601-39.646,29.202-79.291,43.802-118.937
					c2.233-6.065-7.434-8.656-9.643-2.658c-14.601,39.646-29.202,79.292-43.802,118.937
					C160.896,261.071,170.564,263.663,172.773,257.665L172.773,257.665z"/>
			</g>
		</g>
		<g>
			<g>
				<path style="fill:#FFFFFF;" d="M189.809,267.19c22.448-36.103,44.896-72.206,67.345-108.309
					c3.415-5.493-5.238-10.509-8.635-5.047c-22.448,36.103-44.896,72.206-67.345,108.309
					C177.758,267.637,186.412,272.653,189.809,267.19L189.809,267.19z"/>
			</g>
		</g>
		<g>
			<polygon style="fill:#FFFFFF;" points="211.754,137.399 257.338,95.148 252.836,156.358 			"/>
			<g>
				<path style="fill:#FFFFFF;" d="M215.289,140.935c15.195-14.083,30.39-28.167,45.584-42.25c-2.845-1.179-5.69-2.357-8.535-3.536
					c-1.501,20.403-3.001,40.807-4.502,61.21c2.508-1.439,5.016-2.878,7.523-4.317c-13.693-6.32-27.388-12.64-41.082-18.959
					c-5.813-2.683-10.897,5.935-5.047,8.635c13.693,6.32,27.388,12.64,41.082,18.959c3.551,1.639,7.23-0.333,7.523-4.317
					c1.501-20.403,3.001-40.807,4.502-61.21c0.338-4.595-5.565-6.289-8.535-3.536c-15.195,14.083-30.39,28.167-45.584,42.25
					C203.479,138.255,210.568,145.311,215.289,140.935z"/>
			</g>
		</g>
		<path style="fill:#FFFFFF;" d="M193.793,248.467c2.127,1.051,2.457,4.711,0.733,8.177l-4.419,8.887
			c-1.724,3.464-4.846,5.421-6.975,4.372l-17.182-8.479c-2.128-1.05-2.458-4.711-0.734-8.176l4.419-8.888
			c1.724-3.464,4.846-5.423,6.975-4.372L193.793,248.467z"/>
		<path style="fill:#FFFFFF;" d="M213.646,213.162c2.621,1.295,3.351,5.152,1.627,8.619l-4.42,8.887
			c-1.722,3.464-5.244,5.225-7.867,3.931l-21.168-10.445c-2.623-1.294-3.352-5.153-1.628-8.618l4.419-8.887
			c1.723-3.464,5.246-5.224,7.867-3.93L213.646,213.162z"/>
		<path style="fill:#FFFFFF;" d="M234.875,175.278c3.289,1.623,4.563,5.749,2.838,9.214l-4.418,8.888
			c-1.725,3.465-5.788,4.958-9.078,3.333l-26.568-13.107c-3.289-1.623-4.561-5.75-2.838-9.214l4.42-8.888
			c1.723-3.464,5.789-4.958,9.078-3.334L234.875,175.278z"/>
	</g>
</g>
<g id="Ebene_1">
</g>
</svg>
