<?xml version="1.0" encoding="iso-8859-1"?>
<!-- Generator: Adobe Illustrator 16.0.0, SVG Export Plug-In . SVG Version: 6.00 Build 0)  -->
<!DOCTYPE svg PUBLIC "-//W3C//DTD SVG 1.1 Tiny//EN" "http://www.w3.org/Graphics/SVG/1.1/DTD/svg11-tiny.dtd">
<svg version="1.1" baseProfile="tiny" id="weather_x5F_sun"
	 xmlns="http://www.w3.org/2000/svg" xmlns:xlink="http://www.w3.org/1999/xlink" x="0px" y="0px" width="361px" height="361px"
	 viewBox="0 0 361 361" xml:space="preserve">
<g>
	<path fill="#FFFFFF" d="M143.58,81.78c7.345,7.345,14.69,14.689,22.035,22.035c4.564,4.563,11.635-2.507,7.071-7.071
		c-7.345-7.345-14.69-14.689-22.035-22.035C146.087,70.146,139.017,77.216,143.58,81.78L143.58,81.78z"/>
</g>
<g>
	<path fill="#FFFFFF" d="M96.501,149.216c19.504,0,39.008,0,58.512,0c6.449,0,6.449-10,0-10c-19.504,0-39.008,0-58.512,0
		C90.053,139.216,90.053,149.216,96.501,149.216L96.501,149.216z"/>
</g>
<g>
	<path fill="#FFFFFF" d="M288.024,210.335c-7.408-7.408-14.816-14.816-22.224-22.224c-4.564-4.563-11.635,2.507-7.071,7.071
		c7.408,7.408,14.816,14.816,22.224,22.224C285.517,221.97,292.588,214.899,288.024,210.335L288.024,210.335z"/>
</g>
<g>
	<path fill="#FFFFFF" d="M221.581,264.295c0-19.503,0-39.007,0-58.511c0-6.449-10-6.449-10,0c0,19.503,0,39.007,0,58.511
		C211.581,270.744,221.581,270.744,221.581,264.295L221.581,264.295z"/>
</g>
<g>
	<path fill="#FFFFFF" d="M133.058,236.557c13.792-13.792,27.583-27.583,41.375-41.375c4.563-4.564-2.507-11.635-7.071-7.071
		c-13.792,13.792-27.583,27.583-41.375,41.375C121.423,234.049,128.494,241.12,133.058,236.557L133.058,236.557z"/>
</g>
<g>
	<path fill="#FFFFFF" d="M96.501,149.216c19.504,0,39.008,0,58.512,0c6.449,0,6.449-10,0-10c-19.504,0-39.008,0-58.512,0
		C90.053,139.216,90.053,149.216,96.501,149.216L96.501,149.216z"/>
</g>
<g>
	<path fill="#FFFFFF" d="M221.581,264.295c0-19.503,0-39.007,0-58.511c0-6.449-10-6.449-10,0c0,19.503,0,39.007,0,58.511
		C211.581,270.744,221.581,270.744,221.581,264.295L221.581,264.295z"/>
</g>
<g>
	<path fill="#FFFFFF" d="M133.058,236.557c13.792-13.792,27.583-27.583,41.375-41.375c4.563-4.564-2.507-11.635-7.071-7.071
		c-13.792,13.792-27.583,27.583-41.375,41.375C121.423,234.049,128.494,241.12,133.058,236.557L133.058,236.557z"/>
</g>
<g>
	<path fill="#FFFFFF" d="M137.779,117.884c5.492,2.275,10.983,4.55,16.475,6.824c2.523,1.045,5.495-1.11,6.15-3.492
		c0.791-2.875-0.976-5.108-3.492-6.15c-5.492-2.275-10.983-4.55-16.475-6.824c-2.523-1.045-5.495,1.11-6.15,3.492
		C133.496,114.608,135.263,116.842,137.779,117.884L137.779,117.884z"/>
</g>
<g>
	<path fill="#FFFFFF" d="M140.937,183.208c5.492-2.274,10.983-4.549,16.475-6.824c2.516-1.042,4.283-3.275,3.492-6.15
		c-0.655-2.382-3.627-4.537-6.15-3.492c-5.492,2.274-10.983,4.549-16.475,6.824c-2.516,1.042-4.283,3.275-3.492,6.15
		C135.442,182.098,138.414,184.253,140.937,183.208L140.937,183.208z"/>
</g>
<g>
	<path fill="#FFFFFF" d="M189.754,222.541c2.275-5.492,4.55-10.983,6.824-16.475c1.045-2.523-1.11-5.495-3.492-6.15
		c-2.875-0.791-5.108,0.976-6.15,3.492c-2.275,5.492-4.55,10.983-6.824,16.475c-1.045,2.523,1.11,5.495,3.492,6.15
		C186.479,226.824,188.712,225.057,189.754,222.541L189.754,222.541z"/>
</g>
<g>
	<path fill="#FFFFFF" d="M252.579,219.883c-2.274-5.492-4.549-10.983-6.824-16.475c-1.042-2.516-3.275-4.283-6.15-3.492
		c-2.382,0.655-4.537,3.627-3.492,6.15c2.274,5.492,4.549,10.983,6.824,16.475c1.042,2.516,3.275,4.283,6.15,3.492
		C251.469,225.378,253.624,222.406,252.579,219.883L252.579,219.883z"/>
</g>
<g>
	<path fill="#FFFFFF" d="M180.16,79.425c1.259,3.039,2.518,6.078,3.776,9.116c1.042,2.516,3.275,4.283,6.15,3.492
		c2.382-0.655,4.538-3.627,3.492-6.15c-1.259-3.039-2.518-6.078-3.776-9.116c-1.042-2.516-3.275-4.283-6.15-3.492
		C181.27,73.93,179.114,76.902,180.16,79.425L180.16,79.425z"/>
</g>
<g>
	<path fill="#FFFFFF" d="M286.454,168.683c-3.172-1.314-6.345-2.628-9.518-3.942c-2.523-1.045-5.495,1.11-6.15,3.492
		c-0.791,2.875,0.976,5.108,3.492,6.15c3.173,1.314,6.345,2.628,9.518,3.942c2.523,1.045,5.495-1.11,6.15-3.492
		C290.737,171.958,288.97,169.725,286.454,168.683L286.454,168.683z"/>
</g>
<path fill="none" stroke="#FFFFFF" stroke-width="10" stroke-miterlimit="10" d="M258.018,158.883c0,13.255-10.745,24-24,24h-30.874
	c-13.255,0-24-10.745-24-24V129.55c0-13.255,10.745-24,24-24h30.874c13.255,0,24,10.745,24,24V158.883z"/>
</svg>
