<?xml version="1.0" encoding="iso-8859-1"?>
<!-- Generator: Adobe Illustrator 16.0.0, SVG Export Plug-In . SVG Version: 6.00 Build 0)  -->
<!DOCTYPE svg PUBLIC "-//W3C//DTD SVG 1.1//EN" "http://www.w3.org/Graphics/SVG/1.1/DTD/svg11.dtd">
<svg version="1.1" xmlns="http://www.w3.org/2000/svg" xmlns:xlink="http://www.w3.org/1999/xlink" x="0px" y="0px" width="361px"
	 height="361px" viewBox="0 0 361 361" style="enable-background:new 0 0 361 361;" xml:space="preserve">
<g id="weather_x5F_snow">
	<path style="fill:#FFFFFF;stroke:#FFFFFF;stroke-width:13.0628;stroke-miterlimit:10;" d="M196.65,140.42
		c0,4.328-3.148,7.838-7.033,7.838h-54.511c-3.885,0-7.035-3.51-7.035-7.838V83.597c0-4.329,3.15-7.838,7.035-7.838h54.511
		c3.885,0,7.033,3.509,7.033,7.838V140.42z"/>
	<path style="fill:#FFFFFF;stroke:#FFFFFF;stroke-width:13.0628;stroke-miterlimit:10;" d="M93.455,120.825
		c0,4.329,3.509,7.838,7.838,7.838h36.576c4.328,0,7.837-3.509,7.837-7.838V98.619c0-4.329-3.51-7.838-7.837-7.838h-36.576
		c-4.329,0-7.838,3.509-7.838,7.838V120.825z"/>
	<path style="fill:#FFFFFF;stroke:#FFFFFF;stroke-width:13.0628;stroke-miterlimit:10;" d="M77.779,120.825
		c0-4.328,3.509-7.837,7.838-7.837h45.067c4.328,0,7.837,3.509,7.837,7.837v12.41c0,4.329-3.51,7.838-7.837,7.838H85.617
		c-4.329,0-7.838-3.509-7.838-7.838V120.825z"/>
	<path style="fill:#FFFFFF;stroke:#FFFFFF;stroke-width:13.0628;stroke-miterlimit:10;" d="M249.121,148.258
		c0,4.328-3.149,7.838-7.033,7.838h-54.514c-3.885,0-7.034-3.51-7.034-7.838V91.435c0-4.329,3.149-7.838,7.034-7.838h54.514
		c3.884,0,7.033,3.509,7.033,7.838V148.258z"/>
	<path style="fill:#FFFFFF;stroke:#FFFFFF;stroke-width:13.0628;stroke-miterlimit:10;" d="M233.227,141.727
		c0,4.328,3.51,7.838,7.838,7.838h36.576c4.328,0,7.838-3.51,7.838-7.838v-22.208c0-4.328-3.51-7.837-7.838-7.837h-36.576
		c-4.328,0-7.838,3.51-7.838,7.837V141.727z"/>
	<path style="fill:#FFFFFF;stroke:#FFFFFF;stroke-width:13.0628;stroke-miterlimit:10;" d="M202.094,157.402
		c0,4.328-3.148,7.837-7.033,7.837h-54.512c-3.884,0-7.034-3.509-7.034-7.837v-56.824c0-4.329,3.149-7.838,7.034-7.838h54.512
		c3.885,0,7.033,3.509,7.033,7.838V157.402z"/>
	<path style="fill:#FFFFFF;stroke:#FFFFFF;stroke-width:13.0628;stroke-miterlimit:10;" d="M103.063,142.532
		c0-4.328,3.509-7.837,7.838-7.837h45.067c4.328,0,7.837,3.509,7.837,7.837v12.41c0,4.329-3.51,7.838-7.837,7.838h-45.067
		c-4.329,0-7.838-3.509-7.838-7.838V142.532z"/>
	<g>
		<g>
			<g>
				<g>
					<path style="fill:#FFFFFF;" d="M230.389,186.05c-2.649,9.07-5.298,18.14-7.947,27.209c-1.269,4.344,5.487,6.185,6.75,1.861
						c2.649-9.07,5.298-18.14,7.947-27.209C238.407,183.567,231.651,181.727,230.389,186.05L230.389,186.05z"/>
				</g>
			</g>
			<g>
				<g>
					<path style="fill:#FFFFFF;" d="M222.572,189.881c2.197,2.299,4.396,4.598,6.594,6.896c3.124,3.269,8.067-1.688,4.949-4.949
						c-2.197-2.299-4.396-4.598-6.594-6.896C224.397,181.663,219.454,186.62,222.572,189.881L222.572,189.881z"/>
				</g>
			</g>
			<g>
				<g>
					<path style="fill:#FFFFFF;" d="M239.86,188.631c-3.09,0.754-6.18,1.508-9.27,2.262c-4.384,1.069-2.523,7.82,1.861,6.75
						c3.09-0.754,6.18-1.508,9.27-2.262C246.105,194.312,244.245,187.561,239.86,188.631L239.86,188.631z"/>
				</g>
			</g>
		</g>
		<g>
			<g>
				<g>
					<path style="fill:#FFFFFF;" d="M203.749,195.835c6.529,6.829,13.059,13.658,19.589,20.487c3.124,3.269,8.067-1.688,4.949-4.949
						c-6.529-6.829-13.059-13.658-19.589-20.487C205.574,187.617,200.631,192.574,203.749,195.835L203.749,195.835z"/>
				</g>
			</g>
			<g>
				<g>
					<path style="fill:#FFFFFF;" d="M203.164,204.498c3.09-0.754,6.18-1.509,9.271-2.263c4.384-1.07,2.523-7.82-1.861-6.75
						c-3.09,0.754-6.18,1.509-9.271,2.263C196.919,198.818,198.779,205.568,203.164,204.498L203.164,204.498z"/>
				</g>
			</g>
			<g>
				<g>
					<path style="fill:#FFFFFF;" d="M210.715,188.856c-0.892,3.054-1.784,6.107-2.676,9.16c-1.269,4.344,5.487,6.185,6.75,1.861
						c0.892-3.054,1.784-6.107,2.676-9.16C218.733,186.374,211.978,184.533,210.715,188.856L210.715,188.856z"/>
				</g>
			</g>
		</g>
		<g>
			<g>
				<g>
					<path style="fill:#FFFFFF;" d="M199.271,223.942c9.18-2.24,18.359-4.479,27.539-6.72c4.384-1.069,2.523-7.82-1.861-6.75
						c-9.18,2.24-18.359,4.479-27.539,6.72C193.025,218.262,194.886,225.013,199.271,223.942L199.271,223.942z"/>
				</g>
			</g>
			<g>
				<g>
					<path style="fill:#FFFFFF;" d="M206.443,228.835c0.892-3.054,1.784-6.107,2.676-9.16c1.269-4.344-5.487-6.185-6.75-1.861
						c-0.892,3.054-1.784,6.107-2.676,9.16C198.425,231.317,205.181,233.158,206.443,228.835L206.443,228.835z"/>
				</g>
			</g>
			<g>
				<g>
					<path style="fill:#FFFFFF;" d="M196.704,214.444c2.198,2.299,4.396,4.598,6.595,6.896c3.125,3.269,8.067-1.688,4.949-4.949
						c-2.198-2.299-4.396-4.598-6.595-6.896C198.528,206.227,193.586,211.184,196.704,214.444L196.704,214.444z"/>
				</g>
			</g>
		</g>
		<g>
			<g>
				<g>
					<path style="fill:#FFFFFF;" d="M221.281,242.087c2.649-9.07,5.298-18.14,7.947-27.209c1.269-4.344-5.487-6.185-6.75-1.861
						c-2.649,9.07-5.298,18.14-7.947,27.209C213.263,244.569,220.019,246.41,221.281,242.087L221.281,242.087z"/>
				</g>
			</g>
			<g>
				<g>
					<path style="fill:#FFFFFF;" d="M229.098,238.255c-2.198-2.3-4.396-4.599-6.595-6.897c-3.124-3.269-8.067,1.688-4.949,4.949
						c2.198,2.3,4.396,4.599,6.595,6.897C227.272,246.473,232.216,241.516,229.098,238.255L229.098,238.255z"/>
				</g>
			</g>
			<g>
				<g>
					<path style="fill:#FFFFFF;" d="M211.81,239.506c3.09-0.755,6.18-1.509,9.27-2.264c4.384-1.07,2.523-7.82-1.861-6.75
						c-3.09,0.755-6.18,1.509-9.27,2.264C205.564,233.826,207.425,240.576,211.81,239.506L211.81,239.506z"/>
				</g>
			</g>
		</g>
		<g>
			<g>
				<g>
					<path style="fill:#FFFFFF;" d="M247.982,232.094c-6.53-6.83-13.061-13.659-19.591-20.488c-3.125-3.269-8.067,1.688-4.949,4.949
						c6.53,6.83,13.061,13.659,19.591,20.488C246.158,240.312,251.101,235.354,247.982,232.094L247.982,232.094z"/>
				</g>
			</g>
			<g>
				<g>
					<path style="fill:#FFFFFF;" d="M248.566,223.431c-3.09,0.754-6.18,1.509-9.271,2.263c-4.384,1.07-2.523,7.82,1.861,6.75
						c3.09-0.754,6.18-1.509,9.271-2.263C254.812,229.11,252.951,222.36,248.566,223.431L248.566,223.431z"/>
				</g>
			</g>
			<g>
				<g>
					<path style="fill:#FFFFFF;" d="M241.016,239.071c0.892-3.053,1.784-6.105,2.676-9.158c1.269-4.344-5.486-6.185-6.75-1.861
						c-0.892,3.053-1.784,6.105-2.676,9.158C232.997,241.554,239.752,243.395,241.016,239.071L241.016,239.071z"/>
				</g>
			</g>
		</g>
		<g>
			<g>
				<g>
					<path style="fill:#FFFFFF;" d="M252.459,203.985c-9.179,2.24-18.358,4.481-27.538,6.722c-4.384,1.07-2.523,7.82,1.861,6.75
						c9.179-2.24,18.358-4.481,27.538-6.722C258.704,209.665,256.844,202.915,252.459,203.985L252.459,203.985z"/>
				</g>
			</g>
			<g>
				<g>
					<path style="fill:#FFFFFF;" d="M245.287,199.093c-0.892,3.054-1.784,6.107-2.676,9.16c-1.269,4.344,5.487,6.185,6.75,1.861
						c0.892-3.054,1.784-6.107,2.676-9.16C253.306,196.61,246.55,194.77,245.287,199.093L245.287,199.093z"/>
				</g>
			</g>
			<g>
				<g>
					<path style="fill:#FFFFFF;" d="M255.025,213.484c-2.197-2.3-4.396-4.599-6.594-6.897c-3.124-3.269-8.067,1.688-4.949,4.949
						c2.197,2.3,4.396,4.599,6.594,6.897C253.2,221.702,258.144,216.745,255.025,213.484L255.025,213.484z"/>
				</g>
			</g>
		</g>
	</g>
	<g>
		<g>
			<g>
				<g>
					<path style="fill:#FFFFFF;" d="M133.749,152.442c0,9.449,0,18.898,0,28.347c0,4.514,7,4.514,7,0c0-9.449,0-18.898,0-28.347
						C140.749,147.928,133.749,147.928,133.749,152.442L133.749,152.442z"/>
				</g>
			</g>
			<g>
				<g>
					<path style="fill:#FFFFFF;" d="M127.233,158.318c2.755,1.59,5.51,3.181,8.264,4.771c3.917,2.261,7.44-3.789,3.533-6.044
						c-2.755-1.59-5.509-3.181-8.264-4.771C126.85,150.013,123.327,156.063,127.233,158.318L127.233,158.318z"/>
				</g>
			</g>
			<g>
				<g>
					<path style="fill:#FFFFFF;" d="M143.636,152.274c-2.754,1.59-5.509,3.181-8.264,4.771c-3.907,2.255-0.383,8.305,3.533,6.044
						c2.755-1.59,5.509-3.181,8.264-4.771C151.076,156.063,147.553,150.013,143.636,152.274L143.636,152.274z"/>
				</g>
			</g>
		</g>
		<g>
			<g>
				<g>
					<path style="fill:#FFFFFF;" d="M110.835,169.311c8.183,4.725,16.366,9.449,24.548,14.173c3.917,2.262,7.44-3.789,3.533-6.044
						c-8.183-4.725-16.366-9.449-24.548-14.173C110.452,161.006,106.928,167.056,110.835,169.311L110.835,169.311z"/>
				</g>
			</g>
			<g>
				<g>
					<path style="fill:#FFFFFF;" d="M112.715,177.881c2.755-1.59,5.509-3.181,8.264-4.771c3.907-2.255,0.383-8.305-3.533-6.044
						c-2.754,1.59-5.509,3.181-8.264,4.771C105.275,174.093,108.798,180.143,112.715,177.881L112.715,177.881z"/>
				</g>
			</g>
			<g>
				<g>
					<path style="fill:#FFFFFF;" d="M115.65,160.654c0,3.181,0,6.362,0,9.542c0,4.514,7,4.514,7,0c0-3.181,0-6.362,0-9.542
						C122.65,156.14,115.65,156.14,115.65,160.654L115.65,160.654z"/>
				</g>
			</g>
		</g>
		<g>
			<g>
				<g>
					<path style="fill:#FFFFFF;" d="M114.43,197.638c8.183-4.725,16.366-9.448,24.549-14.173c3.907-2.255,0.383-8.305-3.533-6.044
						c-8.183,4.724-16.366,9.448-24.549,14.172C106.99,193.849,110.514,199.898,114.43,197.638L114.43,197.638z"/>
				</g>
			</g>
			<g>
				<g>
					<path style="fill:#FFFFFF;" d="M122.759,200.332c0-3.181,0-6.361,0-9.542c0-4.514-7-4.514-7,0c0,3.181,0,6.361,0,9.542
						C115.759,204.846,122.759,204.846,122.759,200.332L122.759,200.332z"/>
				</g>
			</g>
			<g>
				<g>
					<path style="fill:#FFFFFF;" d="M109.291,189.149c2.755,1.59,5.509,3.181,8.264,4.771c3.917,2.261,7.44-3.789,3.533-6.045
						c-2.755-1.59-5.509-3.181-8.264-4.771C108.908,180.843,105.384,186.894,109.291,189.149L109.291,189.149z"/>
				</g>
			</g>
		</g>
		<g>
			<g>
				<g>
					<path style="fill:#FFFFFF;" d="M140.717,208.892c0-9.448,0-18.897,0-28.346c0-4.514-7-4.514-7,0c0,9.449,0,18.898,0,28.346
						C133.717,213.405,140.717,213.405,140.717,208.892L140.717,208.892z"/>
				</g>
			</g>
			<g>
				<g>
					<path style="fill:#FFFFFF;" d="M147.232,203.016c-2.755-1.59-5.509-3.18-8.264-4.771c-3.917-2.261-7.44,3.789-3.533,6.045
						c2.755,1.59,5.51,3.18,8.264,4.771C147.616,211.321,151.139,205.271,147.232,203.016L147.232,203.016z"/>
				</g>
			</g>
			<g>
				<g>
					<path style="fill:#FFFFFF;" d="M130.829,209.061c2.754-1.591,5.509-3.181,8.264-4.771c3.907-2.256,0.383-8.306-3.533-6.045
						c-2.754,1.591-5.509,3.181-8.264,4.771C123.389,205.271,126.913,211.321,130.829,209.061L130.829,209.061z"/>
				</g>
			</g>
		</g>
		<g>
			<g>
				<g>
					<path style="fill:#FFFFFF;" d="M163.631,191.806c-8.183-4.724-16.366-9.448-24.549-14.172c-3.917-2.261-7.44,3.789-3.533,6.044
						c8.183,4.725,16.366,9.448,24.549,14.173C164.014,200.111,167.538,194.062,163.631,191.806L163.631,191.806z"/>
				</g>
			</g>
			<g>
				<g>
					<path style="fill:#FFFFFF;" d="M161.75,183.236c-2.754,1.591-5.509,3.181-8.264,4.771c-3.907,2.256-0.384,8.306,3.533,6.045
						c2.755-1.591,5.509-3.181,8.264-4.771C169.191,187.025,165.667,180.976,161.75,183.236L161.75,183.236z"/>
				</g>
			</g>
			<g>
				<g>
					<path style="fill:#FFFFFF;" d="M158.815,200.465c0-3.181,0-6.362,0-9.543c0-4.514-7-4.514-7,0c0,3.181,0,6.362,0,9.543
						C151.815,204.979,158.815,204.979,158.815,200.465L158.815,200.465z"/>
				</g>
			</g>
		</g>
		<g>
			<g>
				<g>
					<path style="fill:#FFFFFF;" d="M160.035,163.48c-8.183,4.724-16.366,9.449-24.549,14.173c-3.907,2.255-0.383,8.306,3.533,6.044
						c8.183-4.724,16.366-9.449,24.549-14.173C167.475,167.269,163.951,161.219,160.035,163.48L160.035,163.48z"/>
				</g>
			</g>
			<g>
				<g>
					<path style="fill:#FFFFFF;" d="M151.706,160.785c0,3.181,0,6.362,0,9.542c0,4.514,7,4.514,7,0c0-3.181,0-6.362,0-9.542
						C158.706,156.271,151.706,156.271,151.706,160.785L151.706,160.785z"/>
				</g>
			</g>
			<g>
				<g>
					<path style="fill:#FFFFFF;" d="M165.174,171.969c-2.755-1.591-5.509-3.181-8.264-4.771c-3.917-2.261-7.44,3.789-3.533,6.044
						c2.755,1.591,5.51,3.181,8.264,4.771C165.558,180.274,169.081,174.224,165.174,171.969L165.174,171.969z"/>
				</g>
			</g>
		</g>
	</g>
	<g>
		<g>
			<g>
				<g>
					<path style="fill:#FFFFFF;" d="M164.673,237.394c-6.681,6.681-13.362,13.362-20.044,20.044
						c-3.194,3.194,1.755,8.145,4.95,4.949c6.681-6.681,13.362-13.362,20.044-20.044
						C172.818,239.148,167.868,234.199,164.673,237.394L164.673,237.394z"/>
				</g>
			</g>
			<g>
				<g>
					<path style="fill:#FFFFFF;" d="M155.923,236.984c0.823,3.072,1.646,6.145,2.47,9.217c1.167,4.355,7.92,2.505,6.75-1.861
						c-0.823-3.072-1.646-6.145-2.47-9.217C161.506,230.768,154.753,232.618,155.923,236.984L155.923,236.984z"/>
				</g>
			</g>
			<g>
				<g>
					<path style="fill:#FFFFFF;" d="M171.827,244.277c-3.072-0.823-6.145-1.647-9.217-2.471c-4.366-1.17-6.217,5.582-1.861,6.75
						c3.072,0.823,6.145,1.647,9.217,2.471C174.332,252.197,176.183,245.445,171.827,244.277L171.827,244.277z"/>
				</g>
			</g>
		</g>
		<g>
			<g>
				<g>
					<path style="fill:#FFFFFF;" d="M136.554,233.162c2.445,9.126,4.891,18.253,7.336,27.38c1.167,4.355,7.92,2.505,6.75-1.861
						c-2.445-9.126-4.891-18.253-7.336-27.38C142.137,226.945,135.384,228.796,136.554,233.162L136.554,233.162z"/>
				</g>
			</g>
			<g>
				<g>
					<path style="fill:#FFFFFF;" d="M131.77,240.498c3.073,0.823,6.145,1.646,9.217,2.469c4.367,1.17,6.217-5.583,1.861-6.75
						c-3.073-0.823-6.145-1.646-9.217-2.469C129.264,232.578,127.414,239.331,131.77,240.498L131.77,240.498z"/>
				</g>
			</g>
			<g>
				<g>
					<path style="fill:#FFFFFF;" d="M146.07,230.402c-2.249,2.249-4.499,4.498-6.748,6.748c-3.194,3.194,1.755,8.145,4.95,4.949
						c2.249-2.249,4.499-4.498,6.748-6.748C154.214,232.157,149.265,227.207,146.07,230.402L146.07,230.402z"/>
				</g>
			</g>
		</g>
		<g>
			<g>
				<g>
					<path style="fill:#FFFFFF;" d="M119.013,255.68c9.127,2.446,18.254,4.892,27.38,7.338c4.366,1.17,6.217-5.583,1.861-6.75
						c-9.127-2.446-18.254-4.892-27.38-7.338C116.508,247.76,114.657,254.513,119.013,255.68L119.013,255.68z"/>
				</g>
			</g>
			<g>
				<g>
					<path style="fill:#FFFFFF;" d="M123.04,263.486c2.249-2.249,4.498-4.498,6.748-6.748c3.194-3.194-1.755-8.145-4.95-4.949
						c-2.249,2.249-4.498,4.498-6.748,6.748C114.896,261.731,119.845,266.682,123.04,263.486L123.04,263.486z"/>
				</g>
			</g>
			<g>
				<g>
					<path style="fill:#FFFFFF;" d="M121.435,246.099c0.823,3.072,1.647,6.145,2.47,9.217c1.167,4.355,7.92,2.505,6.75-1.861
						c-0.823-3.072-1.647-6.145-2.47-9.217C127.017,239.882,120.264,241.732,121.435,246.099L121.435,246.099z"/>
				</g>
			</g>
		</g>
		<g>
			<g>
				<g>
					<path style="fill:#FFFFFF;" d="M129.686,282.236c6.681-6.681,13.362-13.362,20.043-20.044c3.194-3.194-1.755-8.145-4.95-4.949
						c-6.681,6.681-13.362,13.362-20.043,20.044C121.542,280.481,126.491,285.432,129.686,282.236L129.686,282.236z"/>
				</g>
			</g>
			<g>
				<g>
					<path style="fill:#FFFFFF;" d="M138.436,282.646c-0.823-3.072-1.646-6.145-2.47-9.217c-1.167-4.355-7.92-2.505-6.75,1.861
						c0.823,3.072,1.646,6.145,2.47,9.217C132.853,288.862,139.605,287.012,138.436,282.646L138.436,282.646z"/>
				</g>
			</g>
			<g>
				<g>
					<path style="fill:#FFFFFF;" d="M122.532,275.354c3.072,0.823,6.145,1.646,9.217,2.469c4.367,1.17,6.217-5.583,1.861-6.75
						c-3.072-0.823-6.145-1.646-9.217-2.469C120.026,267.434,118.176,274.187,122.532,275.354L122.532,275.354z"/>
				</g>
			</g>
		</g>
		<g>
			<g>
				<g>
					<path style="fill:#FFFFFF;" d="M157.958,286.315c-2.446-9.127-4.892-18.254-7.337-27.381c-1.167-4.355-7.92-2.505-6.75,1.861
						c2.446,9.127,4.892,18.254,7.337,27.381C152.375,292.532,159.128,290.682,157.958,286.315L157.958,286.315z"/>
				</g>
			</g>
			<g>
				<g>
					<path style="fill:#FFFFFF;" d="M162.742,278.98c-3.073-0.823-6.145-1.647-9.217-2.471c-4.366-1.17-6.217,5.582-1.861,6.75
						c3.073,0.823,6.145,1.647,9.217,2.471C165.247,286.9,167.098,280.148,162.742,278.98L162.742,278.98z"/>
				</g>
			</g>
			<g>
				<g>
					<path style="fill:#FFFFFF;" d="M148.442,289.074c2.249-2.249,4.498-4.498,6.747-6.747c3.194-3.194-1.755-8.144-4.95-4.949
						c-2.249,2.249-4.498,4.498-6.747,6.747C140.298,287.319,145.248,292.27,148.442,289.074L148.442,289.074z"/>
				</g>
			</g>
		</g>
		<g>
			<g>
				<g>
					<path style="fill:#FFFFFF;" d="M175.499,263.797c-9.127-2.445-18.254-4.892-27.381-7.337c-4.367-1.17-6.217,5.583-1.861,6.75
						c9.127,2.445,18.254,4.892,27.381,7.337C178.004,271.717,179.855,264.964,175.499,263.797L175.499,263.797z"/>
				</g>
			</g>
			<g>
				<g>
					<path style="fill:#FFFFFF;" d="M171.472,255.99c-2.249,2.249-4.498,4.498-6.748,6.748c-3.194,3.194,1.755,8.145,4.95,4.949
						c2.249-2.249,4.498-4.498,6.748-6.748C179.617,257.745,174.667,252.795,171.472,255.99L171.472,255.99z"/>
				</g>
			</g>
			<g>
				<g>
					<path style="fill:#FFFFFF;" d="M173.077,273.379c-0.823-3.072-1.646-6.145-2.47-9.218c-1.167-4.355-7.92-2.505-6.75,1.861
						c0.823,3.072,1.646,6.145,2.47,9.218C167.494,279.596,174.247,277.745,173.077,273.379L173.077,273.379z"/>
				</g>
			</g>
		</g>
	</g>
</g>
<g id="Ebene_1">
</g>
</svg>
