<?xml version="1.0" encoding="iso-8859-1"?>
<!-- Generator: Adobe Illustrator 16.0.0, SVG Export Plug-In . SVG Version: 6.00 Build 0)  -->
<!DOCTYPE svg PUBLIC "-//W3C//DTD SVG 1.1 Tiny//EN" "http://www.w3.org/Graphics/SVG/1.1/DTD/svg11-tiny.dtd">
<svg version="1.1" baseProfile="tiny" id="weather_x5F_sunrise"
	 xmlns="http://www.w3.org/2000/svg" xmlns:xlink="http://www.w3.org/1999/xlink" x="0px" y="0px" width="361px" height="361px"
	 viewBox="0 0 361 361" xml:space="preserve">
<g>
	<path fill="#FFFFFF" d="M229.848,269.93c-16.279,0-32.559,0-48.838,0c-6.449,0-6.449,10,0,10c16.279,0,32.559,0,48.838,0
		C236.296,279.93,236.296,269.93,229.848,269.93L229.848,269.93z"/>
</g>
<g>
	<path fill="#FFFFFF" d="M69.405,220.327c6.184,6.183,12.367,12.366,18.55,18.55c4.564,4.563,11.635-2.507,7.071-7.071
		c-6.184-6.183-12.367-12.366-18.55-18.55C71.913,208.692,64.842,215.763,69.405,220.327L69.405,220.327z"/>
</g>
<g>
	<path fill="#FFFFFF" d="M124.622,174.704c0,16.279,0,32.558,0,48.837c0,6.449,10,6.449,10,0c0-16.279,0-32.558,0-48.837
		C134.622,168.255,124.622,168.255,124.622,174.704L124.622,174.704z"/>
</g>
<g>
	<path fill="#FFFFFF" d="M198.75,197.271c-11.511,11.512-23.023,23.023-34.535,34.535c-4.563,4.564,2.507,11.635,7.071,7.071
		c11.511-11.512,23.023-23.023,34.535-34.535C210.385,199.779,203.314,192.708,198.75,197.271L198.75,197.271z"/>
</g>
<g>
	<path fill="#FFFFFF" d="M229.848,269.93c-16.279,0-32.559,0-48.838,0c-6.449,0-6.449,10,0,10c16.279,0,32.559,0,48.838,0
		C236.296,279.93,236.296,269.93,229.848,269.93L229.848,269.93z"/>
</g>
<g>
	<path fill="#FFFFFF" d="M124.622,174.704c0,16.279,0,32.558,0,48.837c0,6.449,10,6.449,10,0c0-16.279,0-32.558,0-48.837
		C134.622,168.255,124.622,168.255,124.622,174.704L124.622,174.704z"/>
</g>
<g>
	<path fill="#FFFFFF" d="M198.75,197.271c-11.511,11.512-23.023,23.023-34.535,34.535c-4.563,4.564,2.507,11.635,7.071,7.071
		c11.511-11.512,23.023-23.023,34.535-34.535C210.385,199.779,203.314,192.708,198.75,197.271L198.75,197.271z"/>
</g>
<g>
	<path fill="#FFFFFF" d="M192.539,241.587c-4.584,1.898-9.167,3.797-13.751,5.696c-2.516,1.042-4.283,3.275-3.492,6.15
		c0.655,2.382,3.627,4.538,6.15,3.492c4.584-1.898,9.167-3.797,13.751-5.696c2.516-1.042,4.283-3.275,3.492-6.15
		C198.034,242.697,195.062,240.542,192.539,241.587L192.539,241.587z"/>
</g>
<g>
	<path fill="#FFFFFF" d="M151.215,209.334c-1.899,4.583-3.798,9.167-5.696,13.751c-1.045,2.523,1.11,5.495,3.492,6.15
		c2.875,0.791,5.108-0.976,6.15-3.492c1.899-4.583,3.798-9.167,5.696-13.751c1.045-2.523-1.11-5.495-3.492-6.15
		C154.491,205.051,152.257,206.818,151.215,209.334L151.215,209.334z"/>
</g>
<g>
	<path fill="#FFFFFF" d="M98.778,211.993c1.898,4.584,3.797,9.168,5.696,13.751c1.042,2.516,3.275,4.283,6.15,3.492
		c2.382-0.655,4.537-3.627,3.492-6.15c-1.898-4.584-3.797-9.168-5.696-13.751c-1.042-2.516-3.275-4.283-6.15-3.492
		C99.888,206.498,97.733,209.47,98.778,211.993L98.778,211.993z"/>
</g>
<g>
	<path fill="#FFFFFF" d="M71.081,255.305c2.648,1.097,5.296,2.194,7.944,3.291c2.523,1.045,5.495-1.11,6.15-3.492
		c0.791-2.875-0.976-5.108-3.492-6.15c-2.648-1.097-5.296-2.194-7.944-3.291c-2.523-1.045-5.495,1.11-6.15,3.492
		C66.797,252.029,68.564,254.263,71.081,255.305L71.081,255.305z"/>
</g>
<path fill="none" stroke="#FFFFFF" stroke-width="10" stroke-miterlimit="10" d="M96.036,288.171l0-24.484
	c0-11.063,8.969-20.032,20.032-20.032h25.77c11.063,0,20.032,8.969,20.032,20.032v24.483"/>
<g>
	<path fill="#FFFFFF" d="M283.648,284.211c-48.718,0-97.435,0-146.153,0c-21.695,0-43.391,0-65.086,0c-6.449,0-6.449,10,0,10
		c48.718,0,97.435,0,146.153,0c21.695,0,43.391,0,65.086,0C290.097,294.211,290.097,284.211,283.648,284.211L283.648,284.211z"/>
</g>
<g>
	<path fill="#FFFFFF" d="M76.382,269.93c-1.324,0-2.648,0-3.972,0c-2.726,0-5,2.274-5,5s2.274,5,5,5c1.324,0,2.648,0,3.972,0
		c2.726,0,5-2.274,5-5S79.107,269.93,76.382,269.93L76.382,269.93z"/>
</g>
<g>
	<path fill="#FFFFFF" d="M113.263,284.452c0-4.223,0-8.447,0-12.67c0-9.427,8.666-9.531,15.536-9.531
		c6.836,0,16.515-0.458,16.515,9.261c0,4.313,0,8.627,0,12.94c0,1.935,3,1.935,3,0c0-5.53,0.933-11.951-0.771-17.289
		c-2.573-8.061-10.938-7.913-17.764-7.913c-7.467,0-14.928-0.433-18.592,7.554c-2.267,4.941-0.923,12.385-0.923,17.647
		C110.263,286.386,113.263,286.386,113.263,284.452L113.263,284.452z"/>
</g>
<path fill="#FFFFFF" stroke="#FFFFFF" stroke-width="10" stroke-miterlimit="10" d="M209.011,122.044c0,3.624,2.635,6.56,5.886,6.56
	h45.622c3.251,0,5.887-2.937,5.887-6.56V94.489c0-3.622-2.636-6.559-5.887-6.559h-45.622c-3.251,0-5.886,2.937-5.886,6.559V122.044z
	"/>
<path fill="#FFFFFF" stroke="#FFFFFF" stroke-width="10" stroke-miterlimit="10" d="M111.098,112.244
	c0,2.495-2.023,4.519-4.519,4.519H85.491c-2.495,0-4.519-2.024-4.519-4.519v-2.804c0-2.495,2.023-4.519,4.519-4.519h21.088
	c2.495,0,4.519,2.024,4.519,4.519V112.244z"/>
<path fill="#FFFFFF" stroke="#FFFFFF" stroke-width="10" stroke-miterlimit="10" d="M284.175,114.369
	c0,3.683-2.986,6.668-6.669,6.668h-31.122c-3.683,0-6.669-2.985-6.669-6.668v-8.896c0-3.683,2.986-6.668,6.669-6.668h31.122
	c3.683,0,6.669,2.986,6.669,6.668V114.369z"/>
<path fill="#FFFFFF" stroke="#FFFFFF" stroke-width="10" stroke-miterlimit="10" d="M230.521,116.818
	c0,3.683-2.986,6.668-6.669,6.668h-31.122c-3.683,0-6.669-2.985-6.669-6.668v-8.896c0-3.683,2.986-6.668,6.669-6.668h31.122
	c3.683,0,6.669,2.986,6.669,6.668V116.818z"/>
<path fill="#FFFFFF" stroke="#FFFFFF" stroke-width="10" stroke-miterlimit="10" d="M162.458,88.936
	c0,3.792-3.076,6.869-6.868,6.869h-32.056c-3.792,0-6.868-3.077-6.868-6.869v-4.262c0-3.792,3.076-6.869,6.868-6.869h32.056
	c3.792,0,6.868,3.077,6.868,6.869V88.936z"/>
<path fill="#FFFFFF" stroke="#FFFFFF" stroke-width="10" stroke-miterlimit="10" d="M173.394,92.966c0,3.501-2.84,6.342-6.342,6.342
	h-9.188c-3.502,0-6.341-2.84-6.341-6.342v-3.935c0-3.501,2.839-6.342,6.341-6.342h9.188c3.502,0,6.342,2.84,6.342,6.342V92.966z"/>
</svg>
