<?xml version="1.0" encoding="iso-8859-1"?>
<!-- Generator: Adobe Illustrator 16.0.0, SVG Export Plug-In . SVG Version: 6.00 Build 0)  -->
<!DOCTYPE svg PUBLIC "-//W3C//DTD SVG 1.1//EN" "http://www.w3.org/Graphics/SVG/1.1/DTD/svg11.dtd">
<svg version="1.1" xmlns="http://www.w3.org/2000/svg" xmlns:xlink="http://www.w3.org/1999/xlink" x="0px" y="0px" width="361px"
	 height="361px" viewBox="0 0 361 361" style="enable-background:new 0 0 361 361;" xml:space="preserve">
<g id="weather_x5F_storm">
	<path style="fill:#FFFFFF;stroke:#FFFFFF;stroke-width:10;stroke-miterlimit:10;" d="M180.061,125.5
		c0,3.362-2.445,6.087-5.462,6.087h-42.331c-3.016,0-5.462-2.725-5.462-6.087V81.376c0-3.361,2.446-6.086,5.462-6.086h42.331
		c3.017,0,5.462,2.725,5.462,6.086V125.5z"/>
	<path style="fill:#FFFFFF;stroke:#FFFFFF;stroke-width:10;stroke-miterlimit:10;" d="M86.927,110.286
		c0,3.36,2.725,6.086,6.085,6.086h28.403c3.36,0,6.086-2.726,6.086-6.086V93.042c0-3.361-2.726-6.086-6.086-6.086H93.012
		c-3.36,0-6.085,2.726-6.085,6.086V110.286z"/>
	<path style="fill:#FFFFFF;stroke:#FFFFFF;stroke-width:10;stroke-miterlimit:10;" d="M74.754,110.286
		c0-3.361,2.726-6.086,6.086-6.086h34.996c3.361,0,6.086,2.725,6.086,6.086v9.636c0,3.361-2.725,6.086-6.086,6.086H80.84
		c-3.361,0-6.086-2.725-6.086-6.086V110.286z"/>
	<g>
		<g>
			<path style="fill:#FFFFFF;" d="M120.401,163.055c-5.216,9.034-10.432,18.068-15.648,27.103c-2.261,3.917,3.789,7.44,6.044,3.533
				c5.216-9.034,10.432-18.068,15.648-27.103C128.706,162.671,122.656,159.148,120.401,163.055L120.401,163.055z"/>
		</g>
	</g>
	<g>
		<g>
			<path style="fill:#FFFFFF;" d="M127.151,126.888c-5.579,9.663-11.158,19.326-16.737,28.989c-2.261,3.917,3.789,7.44,6.044,3.533
				c5.579-9.663,11.158-19.326,16.737-28.989C135.456,126.504,129.406,122.981,127.151,126.888L127.151,126.888z"/>
		</g>
	</g>
	<g>
		<g>
			<path style="fill:#FFFFFF;" d="M123.611,102.589c-5.58,9.663-11.159,19.327-16.738,28.99c-2.262,3.917,3.789,7.44,6.044,3.533
				c5.58-9.664,11.159-19.327,16.738-28.99C131.917,102.206,125.866,98.682,123.611,102.589L123.611,102.589z"/>
		</g>
	</g>
	<g>
		<g>
			<path style="fill:#FFFFFF;" d="M95.763,148.831c-5.216,9.034-10.431,18.068-15.646,27.102c-2.261,3.917,3.789,7.44,6.044,3.533
				c5.216-9.034,10.431-18.068,15.646-27.102C104.068,148.447,98.018,144.924,95.763,148.831L95.763,148.831z"/>
		</g>
	</g>
	<g>
		<g>
			<path style="fill:#FFFFFF;" d="M99.547,170.726c-5.216,9.033-10.432,18.066-15.647,27.099c-2.262,3.917,3.788,7.44,6.044,3.533
				c5.216-9.033,10.432-18.066,15.647-27.099C107.853,170.343,101.803,166.819,99.547,170.726L99.547,170.726z"/>
		</g>
	</g>
	<g>
		<g>
			<path style="fill:#FFFFFF;" d="M242.883,156.636c-5.216,9.033-10.432,18.066-15.647,27.1c-2.261,3.917,3.789,7.439,6.045,3.533
				c5.216-9.033,10.432-18.066,15.647-27.1C251.188,156.252,245.139,152.729,242.883,156.636L242.883,156.636z"/>
		</g>
	</g>
	<g>
		<g>
			<path style="fill:#FFFFFF;" d="M242.247,127.646c-5.578,9.663-11.157,19.326-16.736,28.989c-2.261,3.917,3.789,7.44,6.045,3.533
				c5.578-9.663,11.157-19.326,16.736-28.989C250.553,127.263,244.503,123.74,242.247,127.646L242.247,127.646z"/>
		</g>
	</g>
	<g>
		<g>
			<path style="fill:#FFFFFF;" d="M217.073,171.572c-5.216,9.034-10.432,18.067-15.647,27.101c-2.261,3.917,3.789,7.44,6.045,3.533
				c5.216-9.033,10.432-18.067,15.647-27.101C225.379,171.189,219.329,167.666,217.073,171.572L217.073,171.572z"/>
		</g>
	</g>
	<g>
		<g>
			<path style="fill:#FFFFFF;" d="M219.435,136.729c-5.579,9.663-11.158,19.326-16.737,28.989c-2.261,3.917,3.789,7.44,6.045,3.533
				c5.579-9.663,11.158-19.326,16.737-28.989C227.74,136.346,221.69,132.823,219.435,136.729L219.435,136.729z"/>
		</g>
	</g>
	<path style="fill:#FFFFFF;stroke:#FFFFFF;stroke-width:10;stroke-miterlimit:10;" d="M220.805,131.587
		c0,3.361-2.445,6.086-5.461,6.086h-42.331c-3.016,0-5.461-2.726-5.461-6.086V87.462c0-3.361,2.446-6.086,5.461-6.086h42.331
		c3.016,0,5.461,2.726,5.461,6.086V131.587z"/>
	<path style="fill:#FFFFFF;stroke:#FFFFFF;stroke-width:10;stroke-miterlimit:10;" d="M208.463,126.516
		c0,3.361,2.725,6.086,6.086,6.086h28.402c3.361,0,6.086-2.725,6.086-6.086v-17.244c0-3.362-2.725-6.086-6.086-6.086h-28.402
		c-3.361,0-6.086,2.724-6.086,6.086V126.516z"/>
	<path style="fill:#FFFFFF;stroke:#FFFFFF;stroke-width:10;stroke-miterlimit:10;" d="M185.842,148.07
		c0,3.361-2.445,6.086-5.461,6.086h-42.33c-3.017,0-5.462-2.725-5.462-6.086v-44.125c0-3.36,2.445-6.086,5.462-6.086h42.33
		c3.016,0,5.461,2.726,5.461,6.086V148.07z"/>
	<g>
		<g>
			<path style="fill:#FFFFFF;" d="M166.286,182.124c5.804,3.897,11.607,7.794,17.41,11.691c3.76,2.524,7.259-3.543,3.533-6.045
				c-5.804-3.896-11.607-7.793-17.41-11.69C166.06,173.556,162.561,179.622,166.286,182.124L166.286,182.124z"/>
		</g>
	</g>
	<g>
		<g>
			<path style="fill:#FFFFFF;" d="M172.81,151.259c2.816,12.847,5.632,25.693,8.448,38.54c0.967,4.408,7.715,2.538,6.75-1.861
				c-2.816-12.847-5.632-25.693-8.448-38.54C178.593,144.989,171.845,146.859,172.81,151.259L172.81,151.259z"/>
		</g>
	</g>
	<g>
		<g>
			<path style="fill:#FFFFFF;" d="M164.534,180.242c4.113,12.261,8.226,24.522,12.338,36.784c1.428,4.257,8.19,2.431,6.75-1.861
				c-4.112-12.261-8.225-24.522-12.338-36.784C169.856,174.125,163.095,175.95,164.534,180.242L164.534,180.242z"/>
		</g>
	</g>
	<g>
		<g>
			<path style="fill:#FFFFFF;" d="M171.081,218.202c2.601,0.652,5.202,1.304,7.802,1.956c4.38,1.098,6.238-5.652,1.861-6.75
				c-2.601-0.652-5.202-1.304-7.802-1.956C168.562,210.354,166.705,217.104,171.081,218.202L171.081,218.202z"/>
		</g>
	</g>
	<g>
		<g>
			<path style="fill:#FFFFFF;" d="M166.168,215.071c2.815,12.847,5.63,25.693,8.446,38.541c0.966,4.408,7.714,2.538,6.75-1.861
				c-2.815-12.847-5.63-25.693-8.445-38.541C171.952,208.802,165.204,210.672,166.168,215.071L166.168,215.071z"/>
		</g>
	</g>
	<g>
		<g>
			<path style="fill:#FFFFFF;" d="M142.638,179.236c4.701,5.462,9.402,10.925,14.103,16.387c2.95,3.428,7.878-1.547,4.95-4.949
				c-4.701-5.463-9.402-10.925-14.103-16.388C144.638,170.859,139.71,175.833,142.638,179.236L142.638,179.236z"/>
		</g>
	</g>
	<g>
		<g>
			<path style="fill:#FFFFFF;" d="M149.217,151.965c1.995,13.333,3.991,26.666,5.986,39.999c0.667,4.452,7.411,2.553,6.75-1.861
				c-1.995-13.333-3.991-26.666-5.986-39.999C155.301,145.652,148.556,147.551,149.217,151.965L149.217,151.965z"/>
		</g>
	</g>
	<g>
		<g>
			<path style="fill:#FFFFFF;" d="M141.614,177.854c3.084,13.133,6.168,26.266,9.252,39.399c1.032,4.394,7.781,2.529,6.75-1.861
				c-3.084-13.133-6.168-26.266-9.252-39.399C147.333,171.6,140.583,173.463,141.614,177.854L141.614,177.854z"/>
		</g>
	</g>
	<g>
		<g>
			<path style="fill:#FFFFFF;" d="M281.833,207.172c0,26.498,0,52.997,0,79.495c0,6.448,10,6.448,10,0c0-26.498,0-52.997,0-79.495
				C291.833,200.724,281.833,200.724,281.833,207.172L281.833,207.172z"/>
		</g>
	</g>
	
		<line style="fill:none;stroke:#FFFFFF;stroke-width:10;stroke-miterlimit:10;" x1="206.85" y1="220.076" x2="255.662" y2="198.619"/>
	
		<line style="fill:none;stroke:#FFFFFF;stroke-width:10;stroke-miterlimit:10;" x1="211.111" y1="232.615" x2="263.304" y2="227.141"/>
	<g>
		<polygon style="fill:#FFFFFF;" points="255.662,198.619 282.636,206.677 263.304,227.141 		"/>
		<g>
			<path style="fill:#FFFFFF;" d="M254.333,203.44c8.991,2.686,17.982,5.372,26.974,8.058c-0.735-2.785-1.471-5.571-2.206-8.356
				c-6.444,6.821-12.889,13.643-19.332,20.464c2.785,0.735,5.571,1.471,8.356,2.206c-2.547-9.507-5.095-19.015-7.642-28.521
				c-1.667-6.223-11.313-3.579-9.643,2.658c2.547,9.507,5.095,19.015,7.642,28.521c0.955,3.564,5.765,4.95,8.356,2.206
				c6.444-6.821,12.889-13.643,19.332-20.464c2.606-2.758,1.455-7.263-2.206-8.356c-8.991-2.686-17.982-5.372-26.974-8.058
				C250.797,191.947,248.17,201.6,254.333,203.44z"/>
		</g>
	</g>
	<path style="fill:#FFFFFF;" d="M218.355,232.143c0.471,1.885-0.738,3.813-2.701,4.305l-5.036,1.259
		c-1.964,0.491-3.938-0.64-4.409-2.523l-3.808-15.218c-0.473-1.885,0.737-3.813,2.7-4.304l5.036-1.259
		c1.963-0.49,3.938,0.639,4.409,2.523L218.355,232.143z"/>
	<path style="fill:#FFFFFF;" d="M234.129,227.847c0.463,1.851-0.43,3.671-1.996,4.063l-4.015,1.004
		c-1.565,0.392-3.21-0.792-3.673-2.644l-3.741-14.947c-0.464-1.852,0.431-3.671,1.996-4.063l4.015-1.005
		c1.565-0.392,3.21,0.792,3.674,2.644L234.129,227.847z"/>
	<path style="fill:#FFFFFF;" d="M252.012,224.813c0.582,2.323-0.216,4.525-1.781,4.917l-4.016,1.004
		c-1.565,0.392-3.306-1.175-3.887-3.497l-4.695-18.761c-0.581-2.323,0.217-4.525,1.782-4.917l4.016-1.004
		c1.564-0.392,3.306,1.174,3.888,3.498L252.012,224.813z"/>
	<path style="fill:#FFFFFF;stroke:#FFFFFF;stroke-width:11.4253;stroke-miterlimit:10;" d="M194.11,142.01
		c0,4.1,3.243,7.425,7.241,7.425h33.797c3.999,0,7.241-3.325,7.241-7.425v-21.038c0-4.101-3.242-7.425-7.241-7.425h-33.797
		c-3.998,0-7.241,3.325-7.241,7.425V142.01z"/>
	<path style="fill:#FFFFFF;stroke:#FFFFFF;stroke-width:9.8934;stroke-miterlimit:10;" d="M153.384,108.521
		c0-3.507,2.843-6.35,6.35-6.35h36.511c3.506,0,6.35,2.843,6.35,6.35v10.053c0,3.506-2.844,6.35-6.35,6.35h-36.511
		c-3.507,0-6.35-2.843-6.35-6.35V108.521z"/>
	<path style="fill:#FFFFFF;stroke:#FFFFFF;stroke-width:8.6054;stroke-miterlimit:10;" d="M172.813,129.315
		c0,3.162-2.142,5.724-4.783,5.724h-37.073c-2.642,0-4.784-2.563-4.784-5.724v-41.49c0-3.16,2.142-5.722,4.784-5.722h37.073
		c2.642,0,4.783,2.563,4.783,5.722V129.315z"/>
	<path style="fill:#FFFFFF;stroke:#FFFFFF;stroke-width:9.8934;stroke-miterlimit:10;" d="M245.085,128.798
		c0,3.507,2.843,6.351,6.35,6.351h29.632c3.506,0,6.35-2.844,6.35-6.351v-17.99c0-3.507-2.844-6.35-6.35-6.35h-29.632
		c-3.507,0-6.35,2.843-6.35,6.35V128.798z"/>
	<path style="fill:#FFFFFF;stroke:#FFFFFF;stroke-width:9.8934;stroke-miterlimit:10;" d="M145.104,122.714
		c0,3.505,2.843,6.349,6.35,6.349h29.632c3.507,0,6.35-2.844,6.35-6.349v-17.992c0-3.505-2.843-6.349-6.35-6.349h-29.632
		c-3.506,0-6.35,2.843-6.35,6.349V122.714z"/>
	<path style="fill:#FFFFFF;stroke:#FFFFFF;stroke-width:9.8934;stroke-miterlimit:10;" d="M202.367,82.103
		c3.507,0,6.35,2.843,6.35,6.35v36.51c0,3.507-2.844,6.35-6.35,6.35h-10.054c-3.507,0-6.35-2.843-6.35-6.35V88.452
		c0-3.506,2.843-6.349,6.351-6.349H202.367z"/>
	<path style="fill:#FFFFFF;stroke:#FFFFFF;stroke-width:9.8934;stroke-miterlimit:10;" d="M149.474,80.792
		c0-3.507,2.843-6.35,6.349-6.35h36.511c3.506,0,6.35,2.843,6.35,6.35v10.053c0,3.507-2.844,6.35-6.35,6.35h-36.511
		c-3.506,0-6.349-2.843-6.349-6.35V80.792z"/>
	<path style="fill:#FFFFFF;stroke:#FFFFFF;stroke-width:9.8934;stroke-miterlimit:10;" d="M150.778,98.506
		c0,3.507-2.843,6.351-6.35,6.351h-36.51c-3.507,0-6.35-2.844-6.35-6.351V88.453c0-3.506,2.843-6.35,6.35-6.35h36.511
		c3.506,0,6.35,2.844,6.35,6.351V98.506z"/>
	<path style="fill:#FFFFFF;stroke:#FFFFFF;stroke-width:9.8934;stroke-miterlimit:10;" d="M255.357,141.12
		c-3.507,0-6.35-2.844-6.35-6.351v-36.51c0-3.507,2.844-6.35,6.35-6.35h10.055c3.506,0,6.35,2.843,6.35,6.35v36.51
		c0,3.507-2.844,6.351-6.351,6.351H255.357z"/>
	<path style="fill:#FFFFFF;stroke:#FFFFFF;stroke-width:9.8934;stroke-miterlimit:10;" d="M270.972,136.208
		c0,3.507-2.843,6.351-6.351,6.351h-36.51c-3.507,0-6.35-2.844-6.35-6.351v-10.053c0-3.506,2.844-6.35,6.35-6.35h36.511
		c3.507,0,6.35,2.844,6.35,6.351V136.208z"/>
	<path style="fill:#FFFFFF;stroke:#FFFFFF;stroke-width:9.8934;stroke-miterlimit:10;" d="M226.012,75.551
		c3.507,0,6.35,2.843,6.35,6.35v36.511c0,3.506-2.843,6.35-6.35,6.35h-10.054c-3.507,0-6.35-2.844-6.35-6.35V81.901
		c0-3.507,2.843-6.35,6.35-6.35H226.012z"/>
	<path style="fill:#FFFFFF;stroke:#FFFFFF;stroke-width:9.8934;stroke-miterlimit:10;" d="M94.182,125.778
		c0-3.507,2.843-6.351,6.35-6.351h36.511c3.506,0,6.35,2.844,6.35,6.351v10.053c0,3.506-2.843,6.35-6.35,6.35h-36.511
		c-3.506,0-6.35-2.844-6.35-6.35V125.778z"/>
	<path style="fill:#FFFFFF;stroke:#FFFFFF;stroke-width:9.8934;stroke-miterlimit:10;" d="M115.354,103.544
		c0-3.507,2.843-6.35,6.35-6.35h36.511c3.506,0,6.35,2.843,6.35,6.35v10.053c0,3.507-2.843,6.351-6.35,6.351h-36.511
		c-3.506,0-6.35-2.844-6.35-6.351V103.544z"/>
	<path style="fill:#FFFFFF;stroke:#FFFFFF;stroke-width:9.8934;stroke-miterlimit:10;" d="M236.282,91.91
		c3.507,0,6.351,2.843,6.351,6.349v36.511c0,3.507-2.844,6.351-6.351,6.351h-10.054c-3.506,0-6.35-2.844-6.35-6.351V98.258
		c0-3.506,2.844-6.349,6.35-6.349H236.282z"/>
</g>
<g id="Ebene_1">
</g>
</svg>
