<?xml version="1.0" encoding="iso-8859-1"?>
<!-- Generator: Adobe Illustrator 16.0.0, SVG Export Plug-In . SVG Version: 6.00 Build 0)  -->
<!DOCTYPE svg PUBLIC "-//W3C//DTD SVG 1.1 Tiny//EN" "http://www.w3.org/Graphics/SVG/1.1/DTD/svg11-tiny.dtd">
<svg version="1.1" baseProfile="tiny" id="weather_x5F_thunderstorm"
	 xmlns="http://www.w3.org/2000/svg" xmlns:xlink="http://www.w3.org/1999/xlink" x="0px" y="0px" width="361px" height="361px"
	 viewBox="0 0 361 361" xml:space="preserve">
<path fill="#FFFFFF" stroke="#FFFFFF" stroke-width="13.2547" stroke-miterlimit="10" d="M175.423,155.872
	c0,4.756,3.762,8.614,8.401,8.614h39.207c4.64,0,8.401-3.857,8.401-8.614v-24.406c0-4.756-3.761-8.614-8.401-8.614h-39.207
	c-4.64,0-8.401,3.857-8.401,8.614V155.872z"/>
<path fill="#FFFFFF" stroke="#FFFFFF" stroke-width="11.4775" stroke-miterlimit="10" d="M130.866,148.219
	c0-4.068,3.298-7.367,7.366-7.367h42.357c4.068,0,7.366,3.298,7.366,7.367v11.663c0,4.068-3.298,7.367-7.366,7.367h-42.357
	c-4.068,0-7.366-3.299-7.366-7.367V148.219z"/>
<g>
	<path fill="#FFFFFF" d="M124.784,210.911c-5.5,9.526-11,19.053-16.5,28.579c-3.23,5.595,5.412,10.628,8.635,5.047
		c5.5-9.526,11-19.053,16.5-28.579C136.649,210.363,128.006,205.33,124.784,210.911L124.784,210.911z"/>
</g>
<g>
	<path fill="#FFFFFF" d="M131.902,172.771c-5.883,10.19-11.766,20.38-17.649,30.57c-3.23,5.595,5.413,10.628,8.635,5.047
		c5.883-10.19,11.766-20.38,17.649-30.57C143.768,172.224,135.125,167.19,131.902,172.771L131.902,172.771z"/>
</g>
<g>
	<path fill="#FFFFFF" d="M128.169,147.147c-5.883,10.19-11.767,20.38-17.65,30.571c-3.23,5.595,5.412,10.628,8.635,5.047
		c5.883-10.19,11.767-20.38,17.65-30.571C140.034,146.6,131.392,141.566,128.169,147.147L128.169,147.147z"/>
</g>
<g>
	<path fill="#FFFFFF" d="M98.803,195.911c-5.5,9.526-11,19.053-16.5,28.579c-3.23,5.595,5.413,10.628,8.635,5.047
		c5.5-9.526,11-19.053,16.5-28.579C110.668,195.363,102.025,190.33,98.803,195.911L98.803,195.911z"/>
</g>
<g>
	<path fill="#FFFFFF" d="M102.793,219c-5.5,9.526-11,19.052-16.5,28.579c-3.23,5.595,5.412,10.628,8.635,5.047
		c5.5-9.526,11-19.052,16.5-28.579C114.659,218.452,106.016,213.418,102.793,219L102.793,219z"/>
</g>
<g>
	<path fill="#FFFFFF" d="M260.274,178.833c-5.5,9.526-11,19.052-16.5,28.579c-3.23,5.595,5.412,10.628,8.635,5.047
		c5.5-9.526,11-19.052,16.5-28.579C272.139,178.285,263.497,173.251,260.274,178.833L260.274,178.833z"/>
</g>
<g>
	<path fill="#FFFFFF" d="M259.604,148.263c-5.883,10.19-11.767,20.38-17.65,30.57c-3.23,5.595,5.412,10.628,8.635,5.047
		c5.883-10.19,11.767-20.38,17.65-30.57C271.47,147.715,262.827,142.681,259.604,148.263L259.604,148.263z"/>
</g>
<g>
	<path fill="#FFFFFF" d="M227.784,200.911c-5.5,9.526-11,19.053-16.5,28.579c-3.23,5.595,5.412,10.628,8.635,5.047
		c5.5-9.526,11-19.053,16.5-28.579C239.649,200.363,231.006,195.33,227.784,200.911L227.784,200.911z"/>
</g>
<g>
	<path fill="#FFFFFF" d="M235.546,157.841c-5.883,10.19-11.766,20.38-17.649,30.571c-3.23,5.595,5.413,10.628,8.635,5.047
		c5.883-10.19,11.766-20.38,17.649-30.571C247.411,157.292,238.769,152.259,235.546,157.841L235.546,157.841z"/>
</g>
<g>
	<path fill="#FFFFFF" d="M234.793,223c-5.5,9.526-11,19.052-16.5,28.579c-3.23,5.595,5.412,10.628,8.635,5.047
		c5.5-9.526,11-19.052,16.5-28.579C246.659,222.452,238.016,217.418,234.793,223L234.793,223z"/>
</g>
<path fill="#FFFFFF" stroke="#FFFFFF" stroke-width="9.9833" stroke-miterlimit="10" d="M150.715,141.145
	c0,3.667-2.484,6.64-5.549,6.64h-43.009c-3.064,0-5.549-2.973-5.549-6.64V93.012c0-3.667,2.485-6.64,5.549-6.64h43.009
	c3.065,0,5.549,2.973,5.549,6.64V141.145z"/>
<path fill="#FFFFFF" stroke="#FFFFFF" stroke-width="11.4775" stroke-miterlimit="10" d="M234.56,140.545
	c0,4.068,3.298,7.366,7.366,7.366h34.376c4.068,0,7.366-3.298,7.366-7.366v-20.872c0-4.068-3.298-7.366-7.366-7.366h-34.376
	c-4.068,0-7.366,3.298-7.366,7.366V140.545z"/>
<g>
	<path fill="#FFFFFF" d="M179.969,200.881c6.12,3.213,12.24,6.426,18.36,9.639c5.703,2.994,10.758-5.636,5.047-8.635
		c-6.12-3.213-12.24-6.426-18.36-9.639C179.313,189.252,174.258,197.883,179.969,200.881L179.969,200.881z"/>
</g>
<g>
	<path fill="#FFFFFF" d="M186.247,174.17c2.97,10.592,5.939,21.184,8.91,31.775c1.738,6.2,11.387,3.563,9.643-2.658
		c-2.97-10.592-5.939-21.184-8.91-31.775C194.151,165.313,184.502,167.949,186.247,174.17L186.247,174.17z"/>
</g>
<g>
	<path fill="#FFFFFF" d="M178.025,199.26c4.337,10.109,8.674,20.218,13.011,30.326c2.536,5.911,11.148,0.812,8.635-5.047
		c-4.337-10.109-8.674-20.218-13.011-30.326C184.124,188.302,175.512,193.401,178.025,199.26L178.025,199.26z"/>
</g>
<g>
	<path fill="#FFFFFF" d="M185.338,230.839c2.743,0.538,5.485,1.075,8.228,1.613c2.672,0.524,5.388-0.719,6.15-3.492
		c0.681-2.476-0.816-5.626-3.492-6.15c-2.743-0.538-5.485-1.075-8.228-1.613c-2.672-0.524-5.388,0.719-6.15,3.492
		C181.165,227.165,182.662,230.314,185.338,230.839L185.338,230.839z"/>
</g>
<g>
	<path fill="#FFFFFF" d="M179.243,226.782c2.969,10.592,5.938,21.183,8.907,31.774c1.738,6.2,11.387,3.563,9.643-2.658
		c-2.969-10.592-5.938-21.183-8.907-31.774C187.147,217.923,177.499,220.561,179.243,226.782L179.243,226.782z"/>
</g>
<g>
	<path fill="#FFFFFF" d="M148.439,203.117c4.957,4.503,9.914,9.007,14.871,13.51c4.761,4.325,11.854-2.726,7.071-7.071
		c-4.957-4.503-9.914-9.007-14.871-13.51C150.75,191.721,143.657,198.771,148.439,203.117L148.439,203.117z"/>
</g>
<g>
	<path fill="#FFFFFF" d="M155.04,179.7c2.104,10.992,4.208,21.984,6.313,32.977c1.211,6.33,10.849,3.642,9.643-2.658
		c-2.104-10.992-4.208-21.984-6.313-32.977C163.471,170.712,153.834,173.4,155.04,179.7L155.04,179.7z"/>
</g>
<g>
	<path fill="#FFFFFF" d="M147.023,201.044c3.252,10.828,6.504,21.655,9.756,32.482c1.85,6.16,11.502,3.534,9.643-2.658
		c-3.252-10.828-6.504-21.655-9.756-32.482C154.816,192.227,145.164,194.853,147.023,201.044L147.023,201.044z"/>
</g>
<path fill="#FFFFFF" stroke="#FFFFFF" stroke-width="11.4775" stroke-miterlimit="10" d="M118.57,133.486
	c0,4.067,3.298,7.366,7.366,7.366h34.376c4.068,0,7.366-3.299,7.366-7.366v-20.872c0-4.067-3.298-7.366-7.366-7.366h-34.376
	c-4.068,0-7.366,3.299-7.366,7.366V133.486z"/>
<path fill="#FFFFFF" stroke="#FFFFFF" stroke-width="11.4775" stroke-miterlimit="10" d="M185.002,86.373
	c4.068,0,7.366,3.298,7.366,7.367v42.356c0,4.068-3.298,7.366-7.367,7.366h-11.663c-4.068,0-7.367-3.298-7.367-7.366V93.739
	c0-4.068,3.299-7.366,7.367-7.366H185.002z"/>
<path fill="#FFFFFF" stroke="#FFFFFF" stroke-width="11.4775" stroke-miterlimit="10" d="M182.493,102.486
	c0-4.068,3.298-7.367,7.366-7.367h42.357c4.068,0,7.366,3.298,7.366,7.367v11.663c0,4.068-3.298,7.367-7.366,7.367h-42.357
	c-4.068,0-7.366-3.299-7.366-7.367V102.486z"/>
<path fill="#FFFFFF" stroke="#FFFFFF" stroke-width="11.4775" stroke-miterlimit="10" d="M154.396,161.903
	c0,4.068-3.298,7.366-7.367,7.366h-42.356c-4.068,0-7.366-3.298-7.366-7.367v-11.663c0-4.068,3.298-7.367,7.366-7.367h42.357
	c4.068,0,7.366,3.299,7.366,7.367V161.903z"/>
<path fill="#FFFFFF" stroke="#FFFFFF" stroke-width="11.4775" stroke-miterlimit="10" d="M246.477,154.839
	c-4.068,0-7.366-3.298-7.366-7.367v-42.356c0-4.068,3.298-7.366,7.367-7.366h11.663c4.068,0,7.367,3.298,7.367,7.366v42.357
	c0,4.068-3.299,7.366-7.367,7.366H246.477z"/>
<path fill="#FFFFFF" stroke="#FFFFFF" stroke-width="11.4775" stroke-miterlimit="10" d="M264.591,161.903
	c0,4.068-3.298,7.366-7.367,7.366h-42.356c-4.068,0-7.366-3.298-7.366-7.367v-11.663c0-4.068,3.298-7.367,7.366-7.367h42.357
	c4.068,0,7.366,3.299,7.366,7.367V161.903z"/>
<path fill="#FFFFFF" stroke="#FFFFFF" stroke-width="11.4775" stroke-miterlimit="10" d="M212.432,78.772
	c4.068,0,7.367,3.298,7.367,7.366v42.357c0,4.067-3.299,7.366-7.367,7.366h-11.663c-4.068,0-7.367-3.299-7.367-7.366V86.139
	c0-4.068,3.299-7.366,7.367-7.366H212.432z"/>
<path fill="#FFFFFF" stroke="#FFFFFF" stroke-width="11.4775" stroke-miterlimit="10" d="M74.576,137.041
	c0-4.068,3.298-7.367,7.366-7.367h42.357c4.068,0,7.366,3.298,7.366,7.367v11.663c0,4.068-3.298,7.367-7.366,7.367H81.942
	c-4.068,0-7.366-3.299-7.366-7.367V137.041z"/>
<path fill="#FFFFFF" stroke="#FFFFFF" stroke-width="11.4775" stroke-miterlimit="10" d="M84.056,111.247
	c0-4.068,3.298-7.367,7.366-7.367h42.357c4.068,0,7.366,3.298,7.366,7.367v11.663c0,4.068-3.298,7.367-7.366,7.367H91.422
	c-4.068,0-7.366-3.299-7.366-7.367V111.247z"/>
<path fill="#FFFFFF" stroke="#FFFFFF" stroke-width="11.4775" stroke-miterlimit="10" d="M129.493,78.703
	c4.068,0,7.367,3.298,7.367,7.366v42.357c0,4.067-3.299,7.366-7.367,7.366H117.83c-4.068,0-7.367-3.299-7.367-7.366V86.069
	c0-4.068,3.299-7.366,7.367-7.366H129.493z"/>
</svg>
