<?xml version="1.0" encoding="iso-8859-1"?>
<!-- Generator: Adobe Illustrator 16.0.0, SVG Export Plug-In . SVG Version: 6.00 Build 0)  -->
<!DOCTYPE svg PUBLIC "-//W3C//DTD SVG 1.1//EN" "http://www.w3.org/Graphics/SVG/1.1/DTD/svg11.dtd">
<svg version="1.1" xmlns="http://www.w3.org/2000/svg" xmlns:xlink="http://www.w3.org/1999/xlink" x="0px" y="0px" width="361px"
	 height="361px" viewBox="0 0 361 361" style="enable-background:new 0 0 361 361;" xml:space="preserve">
<g id="weather_x5F_light_x5F_meter">
	<g style="display:none;">
		<g style="display:inline;">
			<g>
				<path style="fill:#FFFFFF;" d="M257.359,144.168c10.192,0,20.386,0,30.578,0c4.514,0,4.514-7,0-7c-10.192,0-20.386,0-30.578,0
					C252.846,137.168,252.846,144.168,257.359,144.168L257.359,144.168z"/>
			</g>
		</g>
		<g style="display:inline;">
			<g>
				<path style="fill:#FFFFFF;" d="M257.359,163.979c10.192,0,20.386,0,30.578,0c4.514,0,4.514-7,0-7c-10.192,0-20.386,0-30.578,0
					C252.846,156.979,252.846,163.979,257.359,163.979L257.359,163.979z"/>
			</g>
		</g>
		<g style="display:inline;">
			<g>
				<path style="fill:#FFFFFF;" d="M257.359,183.791c10.192,0,20.386,0,30.578,0c4.514,0,4.514-7,0-7c-10.192,0-20.386,0-30.578,0
					C252.846,176.791,252.846,183.791,257.359,183.791L257.359,183.791z"/>
			</g>
		</g>
		<g style="display:inline;">
			<g>
				<path style="fill:#FFFFFF;" d="M257.359,203.603c10.192,0,20.386,0,30.578,0c4.514,0,4.514-7,0-7c-10.192,0-20.386,0-30.578,0
					C252.846,196.603,252.846,203.603,257.359,203.603L257.359,203.603z"/>
			</g>
		</g>
		<g style="display:inline;">
			<g>
				<path style="fill:#FFFFFF;" d="M257.359,223.414c10.192,0,20.386,0,30.578,0c4.514,0,4.514-7,0-7c-10.192,0-20.386,0-30.578,0
					C252.846,216.414,252.846,223.414,257.359,223.414L257.359,223.414z"/>
			</g>
		</g>
		<g style="display:inline;">
			<g>
				<path style="fill:#FFFFFF;" d="M257.359,243.226c10.192,0,20.386,0,30.578,0c4.514,0,4.514-7,0-7c-10.192,0-20.386,0-30.578,0
					C252.846,236.226,252.846,243.226,257.359,243.226L257.359,243.226z"/>
			</g>
		</g>
	</g>
	<g>
		<path style="fill:#FFFFFF;" d="M247.473,291.387c-3.121-0.049-5.652-0.385-7.596-1.008c-1.944-0.623-3.481-1.5-4.608-2.628
			c-1.128-1.128-1.897-2.495-2.304-4.104c-0.408-1.607-0.612-3.42-0.612-5.436v-41.688l10.728-1.729v41.256
			c0,0.961,0.072,1.825,0.217,2.592c0.144,0.769,0.42,1.417,0.828,1.944c0.406,0.528,0.995,0.961,1.764,1.296
			c0.768,0.336,1.8,0.553,3.096,0.648L247.473,291.387z"/>
		<path style="fill:#FFFFFF;" d="M271.623,263.412l7.529-10.617h11.088l-13.145,18.416c3.012,3.461,5.688,6.898,8.026,10.316
			c2.338,3.418,4.212,6.465,5.622,9.14h-11.506c-0.392-0.722-0.874-1.624-1.449-2.704c-0.576-1.079-1.223-2.209-1.941-3.386
			c-0.721-1.177-1.471-2.173-2.254-2.99c-0.783-0.816-1.555-1.56-2.313-2.228c-0.726,0.621-1.464,1.309-2.213,2.061
			s-1.462,1.691-2.137,2.818c-0.675,1.125-1.337,2.239-1.987,3.342s-1.229,2.131-1.734,3.087h-10.913
			c0.603-1.181,1.399-2.595,2.39-4.239s2.074-3.341,3.256-5.09c1.181-1.748,2.457-3.446,3.831-5.096s2.723-3.197,4.046-4.645
			c-2.355-3.346-4.618-6.561-6.791-9.647c-2.174-3.087-4.32-6.138-6.443-9.155h11.592L271.623,263.412z"/>
	</g>
	<g style="display:none;">
		<g style="display:inline;">
			<g>
				<path style="fill:#FFFFFF;" d="M112.251,82.983c-0.083-0.05-0.166-0.101-0.249-0.15c0.578,1.007,1.156,2.015,1.733,3.022
					c0-3.635,0-7.27,0-10.905c-0.578,1.007-1.156,2.015-1.733,3.022c1.08-0.814,4.577-0.151,5.836-0.151c4.521,0,9.041,0,13.562,0
					c4.606,0,9.213,0,13.82,0c1.395,0,5.386-0.747,6.578,0.151c-0.578-1.007-1.156-2.015-1.733-3.022c0,3.635,0,7.27,0,10.905
					c0.578-1.007,1.156-2.015,1.733-3.022c-1.082,0.813-4.576,0.15-5.837,0.15c-4.521,0-9.041,0-13.562,0
					C125.683,82.983,118.967,82.983,112.251,82.983c-4.514,0-4.514,7,0,7c11.472,0,22.943,0,34.415,0
					c3.687,0,10.398,0.833,10.398-4.546c0-2.987,0-5.974,0-8.96c0-3.788-1.816-5.178-5.516-5.656c-4.266-0.551-8.967,0-13.26,0
					c-7.052,0-14.104,0-21.155,0c-3.687,0-10.398-0.833-10.398,4.546c0,2.987,0,5.974,0,8.96c0,3.789,1.816,5.177,5.515,5.655
					C116.719,90.562,116.663,83.554,112.251,82.983z"/>
			</g>
		</g>
		<g style="display:inline;">
			<g>
				<path style="fill:#FFFFFF;" d="M159.118,84.986c-10.167,13.303-20.334,26.605-30.501,39.908c2.015,0,4.029,0,6.044,0
					c-10.167-13.303-20.334-26.605-30.501-39.908c-1.007,1.755-2.015,3.511-3.022,5.267c20.334,0,40.668,0,61.003,0
					c4.514,0,4.514-7,0-7c-20.334,0-40.668,0-61.003,0c-2.405,0-4.695,3.078-3.022,5.267c10.167,13.302,20.334,26.605,30.501,39.908
					c1.7,2.224,4.344,2.224,6.044,0c10.167-13.303,20.334-26.605,30.501-39.908C167.904,84.931,161.82,81.451,159.118,84.986z"/>
			</g>
		</g>
	</g>
	<g style="display:none;">
		<g style="display:inline;">
			<g>
				<g>
					<path style="fill:#FFFFFF;" d="M180.607,181.002c0,24.649,0,49.299,0,73.949c0,8.627,0,17.255,0,25.882
						c0,1.752-26.797,0.834-28.465,0.834c-15.594,0-31.188,0-46.782,0c-4.287,0-8.573,0-12.86,0c-3.049,0-2.893-1.122-2.893-3.629
						c0-27.756,0-55.512,0-83.267c0-4.59,0-9.18,0-13.77c0-6.449-10-6.449-10,0c0,24.649,0,49.299,0,73.949
						c0,8.627,0,17.255,0,25.882c0,13.736,19.228,10.834,28.073,10.834c15.733,0,31.467,0,47.201,0c6.1,0,12.199,0,18.298,0
						c4.25,0,7.857,0.153,11.883-1.679c8.401-3.824,5.544-20.302,5.544-27.453c0-15.783,0-31.565,0-47.349
						c0-11.395,0-22.79,0-34.185C190.607,174.553,180.607,174.553,180.607,181.002L180.607,181.002z"/>
				</g>
			</g>
			<g>
				<g>
					<path style="fill:#FFFFFF;" d="M133.853,204.556c43.653-3.264,87.306-6.528,130.958-9.792c6.39-0.478,6.437-10.481,0-10
						c-43.652,3.264-87.305,6.528-130.958,9.792C127.463,195.033,127.417,205.037,133.853,204.556L133.853,204.556z"/>
				</g>
			</g>
			<g>
				<g>
					<path style="fill:#FFFFFF;" d="M79.458,182.063c7.804-7.604,16.806-12.15,27.05-15.591c10.134-3.404,18.535,2.391,28.6,2.695
						c10.085,0.306,18.936-6.285,29.118-2.903c10.459,3.475,19.77,8.037,27.731,15.798c1.386,1.351,3.509-0.769,2.121-2.121
						c-7.544-7.354-16.271-12.045-26.13-15.568c-4.661-1.665-8.828-2.773-13.805-1.977c-5.936,0.95-11.629,3.089-17.62,3.708
						c-5.733,0.592-11.612-2.025-17.099-3.334c-4.9-1.169-8.975-0.741-13.714,0.809c-10.709,3.501-20.255,8.451-28.374,16.363
						C75.949,181.293,78.072,183.413,79.458,182.063L79.458,182.063z"/>
				</g>
			</g>
		</g>
		<g style="display:inline;">
			<g>
				<path style="fill:#FFFFFF;" d="M133.59,167.667c0.211,10.369,0.423,20.739,0.634,31.108c0.04,1.932,3.04,1.936,3,0
					c-0.211-10.369-0.423-20.739-0.634-31.108C136.551,165.735,133.551,165.732,133.59,167.667L133.59,167.667z"/>
			</g>
		</g>
	</g>
	<g>
		<g>
			<path style="fill:#FFFFFF;" d="M117.333,284.498c-0.767,6.657-15.327,4.169-19.041,4.169c-6.643,0-13.286,0-19.929,0
				c-7.123,0-5.03-11.418-5.03-15.395c0-26.883,0-53.766,0-80.648c0-30.165,0-60.33,0-90.495c0-7.767,0-15.533,0-23.299
				c0-3.083,1.649-6.163,5.393-6.163c6.847,0,13.694,0,20.541,0c3.016,0,18.066-2.263,18.066,4.176c0,1.36,0,2.72,0,4.08
				c0,8.959,0,17.917,0,26.876c0,30.909,0,61.818,0,92.727C117.333,228.517,117.333,256.507,117.333,284.498c0,1.935,3,1.935,3,0
				c0-48.865,0-97.729,0-146.594c0-20.057,0-40.113,0-60.169c0-11.221-15.739-8.067-23.022-8.067c-6.417,0-12.833,0-19.25,0
				c-4.409,0-7.728,3.102-7.728,7.572c0,51.14,0,102.28,0,153.421c0,17.646,0,35.293,0,52.939c0,10.323,12.199,8.067,19.154,8.067
				c6.82,0,13.64,0,20.46,0c5.201,0,9.684-1.076,10.385-7.169C120.554,282.578,117.552,282.6,117.333,284.498z"/>
		</g>
	</g>
	<g>
		<g>
			<path style="fill:#FFFFFF;" d="M189.635,79.054c4.97,4.97,9.939,9.939,14.909,14.909c4.563,4.563,11.635-2.507,7.07-7.071
				c-4.97-4.97-9.939-9.939-14.909-14.909C192.142,67.419,185.07,74.49,189.635,79.054L189.635,79.054z"/>
		</g>
	</g>
	<g>
		<g>
			<path style="fill:#FFFFFF;" d="M158.924,125.156c13.196,0,26.393,0,39.589,0c6.448,0,6.448-10,0-10c-13.196,0-26.393,0-39.589,0
				C152.476,115.156,152.476,125.156,158.924,125.156L158.924,125.156z"/>
		</g>
	</g>
	<g>
		<g>
			<path style="fill:#FFFFFF;" d="M289.652,163.749c-5.012-5.012-10.024-10.024-15.037-15.037c-4.563-4.563-11.635,2.507-7.07,7.071
				c5.012,5.012,10.024,10.024,15.037,15.037C287.146,175.383,294.217,168.313,289.652,163.749L289.652,163.749z"/>
		</g>
	</g>
	<g>
		<g>
			<path style="fill:#FFFFFF;" d="M245.17,201.401c0-13.196,0-26.392,0-39.588c0-6.449-10-6.449-10,0c0,13.196,0,26.392,0,39.588
				C235.17,207.85,245.17,207.85,245.17,201.401L245.17,201.401z"/>
		</g>
	</g>
	<g>
		<g>
			<path style="fill:#FFFFFF;" d="M184.802,183.776c9.332-9.331,18.663-18.663,27.994-27.994c4.564-4.564-2.507-11.635-7.07-7.071
				c-9.332,9.332-18.663,18.663-27.995,27.995C173.167,181.27,180.238,188.341,184.802,183.776L184.802,183.776z"/>
		</g>
	</g>
	<g>
		<g>
			<path style="fill:#FFFFFF;" d="M158.924,125.156c13.196,0,26.393,0,39.589,0c6.448,0,6.448-10,0-10c-13.196,0-26.393,0-39.589,0
				C152.476,115.156,152.476,125.156,158.924,125.156L158.924,125.156z"/>
		</g>
	</g>
	<g>
		<g>
			<path style="fill:#FFFFFF;" d="M245.17,201.401c0-13.196,0-26.392,0-39.588c0-6.449-10-6.449-10,0c0,13.196,0,26.392,0,39.588
				C235.17,207.85,245.17,207.85,245.17,201.401L245.17,201.401z"/>
		</g>
	</g>
	<g>
		<g>
			<path style="fill:#FFFFFF;" d="M184.802,183.776c9.332-9.331,18.663-18.663,27.994-27.994c4.564-4.564-2.507-11.635-7.07-7.071
				c-9.332,9.332-18.663,18.663-27.995,27.995C173.167,181.27,180.238,188.341,184.802,183.776L184.802,183.776z"/>
		</g>
	</g>
	<g>
		<g>
			<path style="fill:#FFFFFF;" d="M186.423,103.898c3.716,1.54,7.432,3.079,11.147,4.618c2.522,1.045,5.495-1.11,6.15-3.492
				c0.791-2.875-0.977-5.108-3.492-6.15c-3.716-1.54-7.432-3.079-11.147-4.618c-2.522-1.045-5.495,1.11-6.15,3.492
				C182.14,100.623,183.907,102.856,186.423,103.898L186.423,103.898z"/>
		</g>
	</g>
	<g>
		<g>
			<path style="fill:#FFFFFF;" d="M189.419,148.097c3.716-1.539,7.432-3.078,11.147-4.617c2.516-1.042,4.283-3.275,3.492-6.15
				c-0.655-2.382-3.628-4.537-6.15-3.492c-3.716,1.539-7.432,3.078-11.147,4.617c-2.516,1.042-4.283,3.275-3.492,6.15
				C183.924,146.987,186.896,149.142,189.419,148.097L189.419,148.097z"/>
		</g>
	</g>
	<g>
		<g>
			<path style="fill:#FFFFFF;" d="M223.579,173.581c1.539-3.715,3.078-7.431,4.617-11.147c1.045-2.523-1.109-5.495-3.492-6.15
				c-2.875-0.791-5.108,0.976-6.15,3.492c-1.539,3.715-3.078,7.431-4.617,11.147c-1.045,2.523,1.109,5.495,3.492,6.15
				C220.304,177.864,222.537,176.097,223.579,173.581L223.579,173.581z"/>
		</g>
	</g>
	<g>
		<g>
			<path style="fill:#FFFFFF;" d="M266.087,170.922c-1.539-3.716-3.079-7.432-4.618-11.147c-1.042-2.516-3.275-4.283-6.15-3.492
				c-2.382,0.655-4.537,3.628-3.492,6.15c1.539,3.716,3.079,7.432,4.618,11.147c1.042,2.516,3.275,4.283,6.15,3.492
				C264.977,176.417,267.132,173.445,266.087,170.922L266.087,170.922z"/>
		</g>
	</g>
	<g>
		<g>
			<path style="fill:#FFFFFF;" d="M213.969,76.748c0.852,2.056,1.704,4.112,2.556,6.168c1.042,2.516,3.275,4.283,6.15,3.492
				c2.382-0.655,4.537-3.628,3.492-6.15c-0.852-2.056-1.704-4.112-2.556-6.168c-1.042-2.516-3.275-4.283-6.15-3.492
				C215.079,71.252,212.924,74.225,213.969,76.748L213.969,76.748z"/>
		</g>
	</g>
	<g>
		<g>
			<path style="fill:#FFFFFF;" d="M287.878,135.151c-2.147-0.889-4.294-1.778-6.441-2.667c-2.522-1.045-5.495,1.109-6.15,3.492
				c-0.791,2.875,0.976,5.108,3.492,6.15c2.147,0.889,4.294,1.778,6.441,2.667c2.522,1.045,5.495-1.109,6.15-3.492
				C292.161,138.427,290.395,136.193,287.878,135.151L287.878,135.151z"/>
		</g>
	</g>
	<path style="fill:none;stroke:#FFFFFF;stroke-width:10;stroke-miterlimit:10;" d="M264.688,128.838
		c0,7.845-6.36,14.206-14.205,14.206h-18.275c-7.846,0-14.206-6.36-14.206-14.206v-17.363c0-7.846,6.36-14.206,14.206-14.206h18.275
		c7.845,0,14.205,6.36,14.205,14.206V128.838z"/>
	<g>
		<g>
			<g>
				<path style="fill:#FFFFFF;" d="M82.859,282.428c8.304,0,16.607,0,24.911,0c6.449,0,6.449-10,0-10c-8.304,0-16.607,0-24.911,0
					C76.411,272.428,76.411,282.428,82.859,282.428L82.859,282.428z"/>
			</g>
		</g>
		<g>
			<g>
				<path style="fill:#FFFFFF;" d="M82.859,267.855c8.304,0,16.607,0,24.911,0c6.449,0,6.449-10,0-10c-8.304,0-16.607,0-24.911,0
					C76.411,257.855,76.411,267.855,82.859,267.855L82.859,267.855z"/>
			</g>
		</g>
		<g>
			<g>
				<path style="fill:#FFFFFF;" d="M82.859,253.283c8.304,0,16.607,0,24.911,0c6.449,0,6.449-10,0-10c-8.304,0-16.607,0-24.911,0
					C76.411,243.283,76.411,253.283,82.859,253.283L82.859,253.283z"/>
			</g>
		</g>
		<g>
			<g>
				<path style="fill:#FFFFFF;" d="M82.859,238.71c8.304,0,16.607,0,24.911,0c6.449,0,6.449-10,0-10c-8.304,0-16.607,0-24.911,0
					C76.411,228.71,76.411,238.71,82.859,238.71L82.859,238.71z"/>
			</g>
		</g>
		<g>
			<g>
				<path style="fill:#FFFFFF;" d="M82.859,224.138c8.304,0,16.607,0,24.911,0c6.449,0,6.449-10,0-10c-8.304,0-16.607,0-24.911,0
					C76.411,214.138,76.411,224.138,82.859,224.138L82.859,224.138z"/>
			</g>
		</g>
		<g>
			<g>
				<path style="fill:#FFFFFF;" d="M82.859,209.565c8.304,0,16.607,0,24.911,0c6.449,0,6.449-10,0-10c-8.304,0-16.607,0-24.911,0
					C76.411,199.565,76.411,209.565,82.859,209.565L82.859,209.565z"/>
			</g>
		</g>
		<g>
			<g>
				<path style="fill:#FFFFFF;" d="M82.859,194.993c8.304,0,16.607,0,24.911,0c6.449,0,6.449-10,0-10c-8.304,0-16.607,0-24.911,0
					C76.411,184.993,76.411,194.993,82.859,194.993L82.859,194.993z"/>
			</g>
		</g>
		<g>
			<g>
				<path style="fill:#FFFFFF;" d="M82.859,180.42c8.304,0,16.607,0,24.911,0c6.449,0,6.449-10,0-10c-8.304,0-16.607,0-24.911,0
					C76.411,170.42,76.411,180.42,82.859,180.42L82.859,180.42z"/>
			</g>
		</g>
		<g>
			<g>
				<path style="fill:#FFFFFF;" d="M82.859,165.848c8.304,0,16.607,0,24.911,0c6.449,0,6.449-10,0-10c-8.304,0-16.607,0-24.911,0
					C76.411,155.848,76.411,165.848,82.859,165.848L82.859,165.848z"/>
			</g>
		</g>
	</g>
</g>
<g id="Ebene_1">
</g>
</svg>
