<?xml version="1.0" encoding="iso-8859-1"?>
<!-- Generator: Adobe Illustrator 16.0.0, SVG Export Plug-In . SVG Version: 6.00 Build 0)  -->
<!DOCTYPE svg PUBLIC "-//W3C//DTD SVG 1.1//EN" "http://www.w3.org/Graphics/SVG/1.1/DTD/svg11.dtd">
<svg version="1.1" xmlns="http://www.w3.org/2000/svg" xmlns:xlink="http://www.w3.org/1999/xlink" x="0px" y="0px" width="361px"
	 height="361px" viewBox="0 0 361 361" style="enable-background:new 0 0 361 361;" xml:space="preserve">
<g id="weather_x5F_rain_x5F_heavy">
	<path style="fill:#FFFFFF;stroke:#FFFFFF;stroke-width:13.0628;stroke-miterlimit:10;" d="M196.204,141.073
		c0,4.329-3.148,7.838-7.032,7.838H134.66c-3.885,0-7.035-3.51-7.035-7.838V84.25c0-4.329,3.15-7.838,7.035-7.838h54.512
		c3.884,0,7.032,3.509,7.032,7.838V141.073z"/>
	<path style="fill:#FFFFFF;stroke:#FFFFFF;stroke-width:13.0628;stroke-miterlimit:10;" d="M93.008,121.479
		c0,4.329,3.509,7.838,7.838,7.838h36.576c4.328,0,7.837-3.509,7.837-7.838V99.272c0-4.329-3.51-7.838-7.837-7.838h-36.576
		c-4.329,0-7.838,3.509-7.838,7.838V121.479z"/>
	<path style="fill:#FFFFFF;stroke:#FFFFFF;stroke-width:13.0628;stroke-miterlimit:10;" d="M77.333,121.479
		c0-4.328,3.509-7.837,7.838-7.837h45.067c4.328,0,7.837,3.509,7.837,7.837v12.41c0,4.329-3.51,7.838-7.837,7.838H85.171
		c-4.329,0-7.838-3.509-7.838-7.838V121.479z"/>
	<g>
		<g>
			<path style="fill:#FFFFFF;" d="M173.792,170.955c-5.5,9.526-11,19.052-16.5,28.579c-3.23,5.595,5.412,10.628,8.635,5.047
				c5.5-9.526,11-19.053,16.5-28.579C185.657,170.407,177.015,165.373,173.792,170.955L173.792,170.955z"/>
		</g>
	</g>
	<g>
		<g>
			<path style="fill:#FFFFFF;" d="M170.302,147c-5.5,9.526-11,19.052-16.5,28.579c-3.23,5.595,5.412,10.628,8.635,5.047
				c5.5-9.526,11-19.052,16.5-28.579C182.167,146.452,173.524,141.418,170.302,147L170.302,147z"/>
		</g>
	</g>
	<g>
		<g>
			<path style="fill:#FFFFFF;" d="M144.302,192.033c-5.5,9.526-11,19.053-16.5,28.579c-3.23,5.595,5.412,10.628,8.635,5.047
				c5.5-9.526,11-19.053,16.5-28.579C156.167,191.485,147.524,186.452,144.302,192.033L144.302,192.033z"/>
		</g>
	</g>
	<g>
		<g>
			<path style="fill:#FFFFFF;" d="M147.811,155.955c-5.5,9.526-11,19.052-16.5,28.579c-3.23,5.595,5.413,10.628,8.635,5.047
				c5.5-9.526,11-19.052,16.5-28.579C159.676,155.407,151.033,150.373,147.811,155.955L147.811,155.955z"/>
		</g>
	</g>
	<g>
		<g>
			<path style="fill:#FFFFFF;" d="M144.321,132c-5.5,9.526-11,19.053-16.5,28.579c-3.23,5.595,5.412,10.628,8.635,5.047
				c5.5-9.526,11-19.053,16.5-28.579C156.186,131.452,147.543,126.418,144.321,132L144.321,132z"/>
		</g>
	</g>
	<g>
		<g>
			<path style="fill:#FFFFFF;" d="M118.321,177.033c-5.5,9.526-11,19.053-16.5,28.579c-3.23,5.595,5.413,10.628,8.635,5.047
				c5.5-9.526,11-19.053,16.5-28.579C130.186,176.485,121.543,171.452,118.321,177.033L118.321,177.033z"/>
		</g>
	</g>
	<g>
		<g>
			<path style="fill:#FFFFFF;" d="M122.312,200.122c-5.5,9.526-11,19.053-16.5,28.579c-3.23,5.595,5.412,10.628,8.635,5.047
				c5.5-9.526,11-19.053,16.5-28.579C134.177,199.574,125.534,194.541,122.312,200.122L122.312,200.122z"/>
		</g>
	</g>
	<g>
		<g>
			<path style="fill:#FFFFFF;" d="M149.312,214.122c-5.5,9.526-11,19.053-16.5,28.579c-3.23,5.595,5.412,10.628,8.635,5.047
				c5.5-9.526,11-19.053,16.5-28.579C161.177,213.574,152.534,208.541,149.312,214.122L149.312,214.122z"/>
		</g>
	</g>
	<g>
		<g>
			<path style="fill:#FFFFFF;" d="M227.112,171.515c-5.5,9.526-11,19.052-16.5,28.579c-3.23,5.595,5.412,10.628,8.635,5.047
				c5.5-9.526,11-19.053,16.5-28.579C238.978,170.967,230.335,165.934,227.112,171.515L227.112,171.515z"/>
		</g>
	</g>
	<g>
		<g>
			<path style="fill:#FFFFFF;" d="M223.622,147.561c-5.5,9.526-11,19.052-16.5,28.579c-3.23,5.595,5.412,10.628,8.635,5.047
				c5.5-9.526,11-19.053,16.5-28.579C235.487,147.013,226.845,141.979,223.622,147.561L223.622,147.561z"/>
		</g>
	</g>
	<g>
		<g>
			<path style="fill:#FFFFFF;" d="M197.622,192.594c-5.5,9.526-11,19.053-16.5,28.579c-3.23,5.595,5.412,10.628,8.635,5.047
				c5.5-9.526,11-19.053,16.5-28.579C209.487,192.046,200.845,187.013,197.622,192.594L197.622,192.594z"/>
		</g>
	</g>
	<g>
		<g>
			<path style="fill:#FFFFFF;" d="M201.132,156.515c-5.5,9.526-11,19.052-16.5,28.579c-3.23,5.595,5.412,10.628,8.635,5.047
				c5.5-9.526,11-19.052,16.5-28.579C212.997,155.967,204.354,150.934,201.132,156.515L201.132,156.515z"/>
		</g>
	</g>
	<g>
		<g>
			<path style="fill:#FFFFFF;" d="M175.632,200.683c-5.5,9.526-11,19.053-16.5,28.579c-3.23,5.595,5.412,10.628,8.635,5.047
				c5.5-9.526,11-19.053,16.5-28.579C187.497,200.135,178.855,195.102,175.632,200.683L175.632,200.683z"/>
		</g>
	</g>
	<g>
		<g>
			<path style="fill:#FFFFFF;" d="M202.632,214.683c-5.5,9.526-11,19.053-16.5,28.579c-3.23,5.595,5.412,10.628,8.635,5.047
				c5.5-9.526,11-19.053,16.5-28.579C214.497,214.135,205.854,209.102,202.632,214.683L202.632,214.683z"/>
		</g>
	</g>
	<path style="fill:#FFFFFF;stroke:#FFFFFF;stroke-width:13.0628;stroke-miterlimit:10;" d="M248.674,148.912
		c0,4.328-3.148,7.837-7.033,7.837h-54.512c-3.885,0-7.035-3.509-7.035-7.837V92.088c0-4.329,3.15-7.838,7.035-7.838h54.512
		c3.885,0,7.033,3.509,7.033,7.838V148.912z"/>
	<path style="fill:#FFFFFF;stroke:#FFFFFF;stroke-width:13.0628;stroke-miterlimit:10;" d="M232.781,142.379
		c0,4.329,3.51,7.838,7.837,7.838h36.576c4.329,0,7.838-3.509,7.838-7.838v-22.207c0-4.328-3.509-7.837-7.838-7.837h-36.576
		c-4.327,0-7.837,3.51-7.837,7.837V142.379z"/>
	<path style="fill:#FFFFFF;stroke:#FFFFFF;stroke-width:13.0628;stroke-miterlimit:10;" d="M201.648,158.056
		c0,4.328-3.149,7.837-7.033,7.837h-54.513c-3.884,0-7.034-3.509-7.034-7.837v-56.824c0-4.329,3.149-7.838,7.034-7.838h54.513
		c3.884,0,7.033,3.509,7.033,7.838V158.056z"/>
	<g>
		<g>
			<path style="fill:#FFFFFF;" d="M98.261,241.236c-5.813,9.338-11.625,18.677-17.438,28.016c-3.418,5.491,5.236,10.508,8.635,5.047
				c5.813-9.338,11.625-18.677,17.438-28.016C110.313,240.792,101.66,235.775,98.261,241.236L98.261,241.236z"/>
		</g>
	</g>
	<g>
		<g>
			<path style="fill:#FFFFFF;" d="M119.887,234.875c-5.5,9.525-11,19.052-16.5,28.578c-3.23,5.595,5.412,10.628,8.635,5.047
				c5.5-9.525,11-19.052,16.5-28.578C131.752,234.327,123.11,229.294,119.887,234.875L119.887,234.875z"/>
		</g>
	</g>
	<g>
		<g>
			<path style="fill:#FFFFFF;" d="M148.863,244.972c-5.5,9.526-11,19.053-16.5,28.579c-3.23,5.595,5.413,10.628,8.635,5.047
				c5.5-9.526,11-19.053,16.5-28.579C160.728,244.424,152.085,239.391,148.863,244.972L148.863,244.972z"/>
		</g>
	</g>
	<g>
		<g>
			<path style="fill:#FFFFFF;" d="M124.562,255.328c-5.5,9.526-11,19.053-16.5,28.579c-3.23,5.595,5.412,10.628,8.635,5.047
				c5.5-9.526,11-19.053,16.5-28.579C136.427,254.78,127.784,249.747,124.562,255.328L124.562,255.328z"/>
		</g>
	</g>
	<g>
		<g>
			<path style="fill:#FFFFFF;" d="M255.358,155.515c-5.5,9.526-11,19.052-16.5,28.579c-3.23,5.595,5.412,10.628,8.635,5.047
				c5.5-9.526,11-19.052,16.5-28.579C267.224,154.967,258.581,149.934,255.358,155.515L255.358,155.515z"/>
		</g>
	</g>
	<g>
		<g>
			<path style="fill:#FFFFFF;" d="M230.878,198.683c-5.5,9.526-11,19.053-16.5,28.579c-3.23,5.595,5.412,10.628,8.635,5.047
				c5.5-9.526,11-19.053,16.5-28.579C242.743,198.135,234.101,193.102,230.878,198.683L230.878,198.683z"/>
		</g>
	</g>
	<g>
		<g>
			<path style="fill:#FFFFFF;" d="M205.122,243.6c-4.313,7.472-8.627,14.943-12.94,22.415c-3.23,5.595,5.412,10.628,8.635,5.047
				c4.313-7.472,8.627-14.943,12.94-22.415C216.987,243.052,208.345,238.018,205.122,243.6L205.122,243.6z"/>
		</g>
	</g>
	<g>
		<g>
			<path style="fill:#FFFFFF;" d="M171.632,237.742c-5.5,9.525-11,19.052-16.5,28.578c-3.23,5.595,5.412,10.628,8.635,5.047
				c5.5-9.525,11-19.052,16.5-28.578C183.497,237.194,174.855,232.161,171.632,237.742L171.632,237.742z"/>
		</g>
	</g>
	<g>
		<g>
			<path style="fill:#FFFFFF;" d="M177.872,257.551c-4.948,8.57-9.896,17.141-14.845,25.712c-3.23,5.595,5.413,10.628,8.635,5.047
				c4.948-8.57,9.896-17.142,14.845-25.712C189.737,257.003,181.095,251.97,177.872,257.551L177.872,257.551z"/>
		</g>
	</g>
	<g>
		<g>
			<path style="fill:#FFFFFF;" d="M94.177,217.807c-5.947,9.254-11.894,18.507-17.841,27.761c-3.498,5.442,5.162,10.451,8.635,5.047
				c5.947-9.253,11.894-18.507,17.841-27.761C106.309,217.411,97.65,212.402,94.177,217.807L94.177,217.807z"/>
		</g>
	</g>
	<g>
		<g>
			<path style="fill:#FFFFFF;" d="M121.311,142.226c-5.5,9.526-11,19.053-16.5,28.579c-3.23,5.595,5.413,10.628,8.635,5.047
				c5.5-9.526,11-19.053,16.5-28.579C133.176,141.678,124.533,136.644,121.311,142.226L121.311,142.226z"/>
		</g>
	</g>
	<g>
		<g>
			<path style="fill:#FFFFFF;" d="M95.818,186.393c-5.5,9.526-11,19.053-16.5,28.58c-3.23,5.595,5.413,10.628,8.635,5.047
				c5.5-9.526,11-19.053,16.5-28.58C107.683,185.845,99.04,180.811,95.818,186.393L95.818,186.393z"/>
		</g>
	</g>
</g>
<g id="Ebene_1">
</g>
</svg>
