<?xml version="1.0" encoding="iso-8859-1"?>
<!-- Generator: Adobe Illustrator 16.0.0, SVG Export Plug-In . SVG Version: 6.00 Build 0)  -->
<!DOCTYPE svg PUBLIC "-//W3C//DTD SVG 1.1//EN" "http://www.w3.org/Graphics/SVG/1.1/DTD/svg11.dtd">
<svg version="1.1" xmlns="http://www.w3.org/2000/svg" xmlns:xlink="http://www.w3.org/1999/xlink" x="0px" y="0px" width="361px"
	 height="361px" viewBox="0 0 361 361" style="enable-background:new 0 0 361 361;" xml:space="preserve">
<g id="weather_x5F_fog">
	<g>
		<g>
			<path style="fill:#FFFFFF;" d="M103.468,191.395c29.902,0,59.805,0,89.708,0c1.935,0,1.935-3,0-3c-29.902,0-59.805,0-89.708,0
				C101.534,188.395,101.534,191.395,103.468,191.395L103.468,191.395z"/>
		</g>
	</g>
	<g>
		<g>
			<path style="fill:#FFFFFF;" d="M85.573,195.979c17.095,0,34.189,0,51.284,0c1.935,0,1.935-3,0-3c-17.095,0-34.189,0-51.284,0
				C83.639,192.979,83.639,195.979,85.573,195.979L85.573,195.979z"/>
		</g>
	</g>
	<g>
		<g>
			<path style="fill:#FFFFFF;" d="M78.966,87.729c22.912,0,45.824,0,68.735,0c1.935,0,1.935-3,0-3c-22.912,0-45.824,0-68.735,0
				C77.032,84.729,77.032,87.729,78.966,87.729L78.966,87.729z"/>
		</g>
	</g>
	<g>
		<g>
			<path style="fill:#FFFFFF;" d="M72.344,93.315c19.703,0,39.406,0,59.108,0c1.935,0,1.935-3,0-3c-19.703,0-39.406,0-59.108,0
				C70.41,90.315,70.41,93.315,72.344,93.315L72.344,93.315z"/>
		</g>
	</g>
	<g>
		<g>
			<path style="fill:#FFFFFF;" d="M240.248,123.902c15.365,0,30.729,0,46.095,0c1.935,0,1.935-3,0-3c-15.365,0-30.729,0-46.095,0
				C238.313,120.902,238.313,123.902,240.248,123.902L240.248,123.902z"/>
		</g>
	</g>
	<g>
		<g>
			<path style="fill:#FFFFFF;" d="M236.311,119.317c13.762,0,27.522,0,41.284,0c1.935,0,1.935-3,0-3c-13.762,0-27.522,0-41.284,0
				C234.376,116.317,234.376,119.317,236.311,119.317L236.311,119.317z"/>
		</g>
	</g>
	<g>
		<g>
			<path style="fill:#FFFFFF;" d="M161.165,195.979c7.542-0.081,15.083-0.161,22.625-0.242c1.934-0.021,1.936-3.021,0-3
				c-7.542,0.081-15.083,0.161-22.625,0.242C159.231,192.999,159.229,195.999,161.165,195.979L161.165,195.979z"/>
		</g>
	</g>
	<g>
		<path style="fill:#FFFFFF;stroke:#FFFFFF;stroke-width:13.0628;stroke-miterlimit:10;" d="M196.65,170.423
			c0,4.328-3.148,7.838-7.033,7.838h-54.511c-3.885,0-7.035-3.51-7.035-7.838V113.6c0-4.329,3.15-7.838,7.035-7.838h54.511
			c3.885,0,7.033,3.509,7.033,7.838V170.423z"/>
		<path style="fill:#FFFFFF;stroke:#FFFFFF;stroke-width:13.0628;stroke-miterlimit:10;" d="M103.456,150.828
			c0,4.329,3.509,7.838,7.838,7.838h36.576c4.328,0,7.837-3.509,7.837-7.838v-22.206c0-4.329-3.51-7.838-7.837-7.838h-36.576
			c-4.329,0-7.838,3.509-7.838,7.838V150.828z"/>
		<path style="fill:#FFFFFF;stroke:#FFFFFF;stroke-width:13.0628;stroke-miterlimit:10;" d="M249.121,178.261
			c0,4.328-3.149,7.838-7.033,7.838h-54.514c-3.885,0-7.034-3.51-7.034-7.838v-56.823c0-4.329,3.149-7.838,7.034-7.838h54.514
			c3.884,0,7.033,3.509,7.033,7.838V178.261z"/>
		<path style="fill:#FFFFFF;stroke:#FFFFFF;stroke-width:13.0628;stroke-miterlimit:10;" d="M233.227,171.729
			c0,4.328,3.51,7.838,7.838,7.838h36.576c4.328,0,7.838-3.51,7.838-7.838v-22.208c0-4.328-3.51-7.837-7.838-7.837h-36.576
			c-4.328,0-7.838,3.51-7.838,7.837V171.729z"/>
	</g>
	<g>
		<g>
			<path style="fill:#FFFFFF;" d="M169.833,209.672c39.427,0,78.854,0,118.28,0c1.935,0,1.935-3,0-3c-39.427,0-78.854,0-118.28,0
				C167.898,206.672,167.898,209.672,169.833,209.672L169.833,209.672z"/>
		</g>
	</g>
	<g>
		<g>
			<path style="fill:#FFFFFF;" d="M113.102,218.159c32.151,0,64.302,0,96.453,0c1.935,0,1.935-3,0-3c-32.151,0-64.302,0-96.453,0
				C111.167,215.159,111.167,218.159,113.102,218.159L113.102,218.159z"/>
		</g>
	</g>
	<g>
		<g>
			<path style="fill:#FFFFFF;" d="M219.688,219.957c-24.018,0-48.036,0-72.054,0c-1.935,0-1.935,3,0,3c24.018,0,48.036,0,72.054,0
				C221.623,222.957,221.623,219.957,219.688,219.957L219.688,219.957z"/>
		</g>
	</g>
	<g>
		<g>
			<path style="fill:#FFFFFF;" d="M278.355,231.957c-32.151,0-64.302,0-96.453,0c-1.935,0-1.935,3,0,3c32.151,0,64.302,0,96.453,0
				C280.29,234.957,280.29,231.957,278.355,231.957L278.355,231.957z"/>
		</g>
	</g>
</g>
<g id="Ebene_1">
</g>
</svg>
