<?xml version="1.0" encoding="iso-8859-1"?>
<!-- Generator: Adobe Illustrator 16.0.0, SVG Export Plug-In . SVG Version: 6.00 Build 0)  -->
<!DOCTYPE svg PUBLIC "-//W3C//DTD SVG 1.1//EN" "http://www.w3.org/Graphics/SVG/1.1/DTD/svg11.dtd">
<svg version="1.1" xmlns="http://www.w3.org/2000/svg" xmlns:xlink="http://www.w3.org/1999/xlink" x="0px" y="0px" width="361px"
	 height="361px" viewBox="0 0 361 361" style="enable-background:new 0 0 361 361;" xml:space="preserve">
<g id="weather_x5F_summer">
	<g>
		<g>
			<path style="fill:#FFFFFF;" d="M183.172,138.491c-22.002-2.052-44.003-4.105-66.005-6.157c-1.807-0.168-3.366,1.104-4.317,2.477
				c-12.617,18.194-25.234,36.388-37.851,54.583c-3.134,4.52,2.739,8.753,6.841,6.841c34.619-16.142,69.238-32.284,103.856-48.425
				c5.841-2.723,0.759-11.342-5.047-8.635c-34.619,16.142-69.238,32.284-103.856,48.425c2.28,2.28,4.561,4.561,6.841,6.841
				c12.617-18.194,25.234-36.388,37.851-54.583c-1.439,0.826-2.878,1.651-4.317,2.477c22.002,2.052,44.003,4.105,66.005,6.157
				C189.594,149.09,189.536,139.084,183.172,138.491z"/>
		</g>
	</g>
	<g>
		<g>
			<path style="fill:#FFFFFF;" d="M128.849,173.857c7.008,15.118,14.017,30.235,21.025,45.352c2.71,5.846,11.328,0.763,8.635-5.047
				c-7.008-15.117-14.017-30.234-21.025-45.352C134.774,162.964,126.156,168.047,128.849,173.857L128.849,173.857z"/>
		</g>
	</g>
	<g>
		<g>
			<path style="fill:#FFFFFF;" d="M149.631,218.882c1.501,22.58,3.002,45.159,4.504,67.739c0.425,6.399,10.428,6.441,10,0
				c-1.501-22.58-3.002-45.159-4.504-67.739C159.206,212.482,149.203,212.44,149.631,218.882L149.631,218.882z"/>
		</g>
	</g>
	<g>
		<path style="fill:none;stroke:#FFFFFF;stroke-width:10;stroke-miterlimit:10;" d="M270.333,119.103
			c0,2.245-1.819,4.064-4.064,4.064h-23.371c-2.245,0-4.064-1.82-4.064-4.064V95.731c0-2.245,1.819-4.064,4.064-4.064h23.371
			c2.245,0,4.064,1.82,4.064,4.064V119.103z"/>
		<g>
			<g>
				<path style="fill:#FFFFFF;" d="M216.173,78.328c2.406,2.406,4.813,4.813,7.22,7.219c1.926,1.926,5.145,1.926,7.07,0
					c1.927-1.926,1.927-5.145,0-7.071c-2.406-2.406-4.813-4.813-7.22-7.219c-1.926-1.926-5.145-1.926-7.07,0
					C214.246,73.183,214.246,76.401,216.173,78.328L216.173,78.328z"/>
			</g>
		</g>
		<g>
			<g>
				<path style="fill:#FFFFFF;" d="M185.333,112.167c11.167,0,22.333,0,33.5,0c6.448,0,6.448-10,0-10c-11.167,0-22.333,0-33.5,0
					C178.884,102.167,178.884,112.167,185.333,112.167L185.333,112.167z"/>
			</g>
		</g>
		<g>
			<g>
				<path style="fill:#FFFFFF;" d="M289.742,136.756c-1.989-1.99-3.979-3.979-5.969-5.969c-1.926-1.926-5.145-1.926-7.07,0
					c-1.927,1.926-1.927,5.145,0,7.071c1.989,1.99,3.979,3.979,5.969,5.969c1.926,1.926,5.145,1.926,7.07,0
					C291.669,141.9,291.669,138.683,289.742,136.756L289.742,136.756z"/>
			</g>
		</g>
		<g>
			<g>
				<path style="fill:#FFFFFF;" d="M259.083,175.917c0-11.167,0-22.333,0-33.5c0-6.449-10-6.449-10,0c0,11.167,0,22.333,0,33.5
					C249.083,182.365,259.083,182.365,259.083,175.917L259.083,175.917z"/>
			</g>
		</g>
		<g>
			<g>
				<path style="fill:#FFFFFF;" d="M207.773,161.547c7.896-7.896,15.793-15.792,23.689-23.688c4.564-4.563-2.507-11.635-7.07-7.071
					c-7.896,7.896-15.793,15.792-23.689,23.688C196.139,159.039,203.21,166.11,207.773,161.547L207.773,161.547z"/>
			</g>
		</g>
	</g>
	<g>
		<g>
			<path style="fill:#FFFFFF;" d="M115.742,142.462c8.745,6.396,17.489,12.792,26.234,19.189c5.214,3.814,10.195-4.87,5.047-8.635
				c-8.745-6.396-17.489-12.792-26.234-19.189C115.575,130.013,110.594,138.697,115.742,142.462L115.742,142.462z"/>
		</g>
	</g>
	<g>
		<g>
			<path style="fill:#FFFFFF;" d="M119.5,174.667c0.444-9.778,0.889-19.556,1.333-29.333c0.293-6.45-9.708-6.421-10,0
				c-0.444,9.778-0.889,19.556-1.333,29.333C109.207,181.116,119.208,181.088,119.5,174.667L119.5,174.667z"/>
		</g>
	</g>
	<g>
		<g>
			<path style="fill:#FFFFFF;" d="M182.181,231.169c4.833,18.89,9.667,37.778,14.5,56.668c1.224,4.78,8.419,4.78,9.643,0
				c4.834-18.89,9.668-37.778,14.502-56.668c0.805-3.143-1.526-6.329-4.821-6.329c-9.667,0-19.335,0-29.002,0
				c-6.449,0-6.449,10,0,10c9.667,0,19.335,0,29.002,0c-1.607-2.109-3.214-4.22-4.821-6.329
				c-4.834,18.89-9.668,37.778-14.502,56.668c3.214,0,6.429,0,9.643,0c-4.833-18.89-9.667-37.778-14.5-56.668
				C190.226,222.267,180.581,224.917,182.181,231.169z"/>
		</g>
	</g>
	<path style="fill:none;stroke:#FFFFFF;stroke-width:10;stroke-miterlimit:10;" d="M214.058,213.344
		c-0.785-0.615-1.923-0.477-2.537,0.311l-6.403,8.188c-0.615,0.786-0.477,1.923,0.311,2.537l8.188,6.403
		c0.786,0.615,1.923,0.477,2.537-0.311l6.404-8.188c0.615-0.786,0.477-1.923-0.311-2.537L214.058,213.344z"/>
	<path style="fill:none;stroke:#FFFFFF;stroke-width:10;stroke-miterlimit:10;" d="M195.349,227.24
		c0.953-0.297,1.485-1.311,1.189-2.264l-3.087-9.927c-0.297-0.952-1.31-1.485-2.262-1.188l-9.928,3.086
		c-0.953,0.297-1.485,1.311-1.189,2.264l3.087,9.926c0.295,0.953,1.309,1.486,2.263,1.189L195.349,227.24z"/>
	<path style="fill:none;stroke:#FFFFFF;stroke-width:10;stroke-miterlimit:10;" d="M208.801,209.991
		c0.436-0.897,0.063-1.98-0.834-2.417l-9.346-4.553c-0.896-0.437-1.98-0.063-2.417,0.834l-4.552,9.346
		c-0.437,0.897-0.064,1.98,0.834,2.418l9.346,4.551c0.896,0.438,1.979,0.064,2.416-0.834L208.801,209.991z"/>
</g>
<g id="Ebene_1">
</g>
</svg>
