<?xml version="1.0" encoding="iso-8859-1"?>
<!-- Generator: Adobe Illustrator 16.0.0, SVG Export Plug-In . SVG Version: 6.00 Build 0)  -->
<!DOCTYPE svg PUBLIC "-//W3C//DTD SVG 1.1//EN" "http://www.w3.org/Graphics/SVG/1.1/DTD/svg11.dtd">
<svg version="1.1" xmlns="http://www.w3.org/2000/svg" xmlns:xlink="http://www.w3.org/1999/xlink" x="0px" y="0px" width="361px"
	 height="361px" viewBox="0 0 361 361" style="enable-background:new 0 0 361 361;" xml:space="preserve">
<g id="weather_x5F_humidity">
	<path style="fill:none;stroke:#FFFFFF;stroke-width:10;stroke-miterlimit:10;" d="M254.833,147.792
		c0,12.357-10.018,22.375-22.375,22.375s-22.375-10.018-22.375-22.375c0-4.726,1.659-8.584,3.134-12.723
		c2.625-7.363,11.609-33.311,19.241-33.311c7.649,0,17.032,26.988,19.271,33.353C253.18,139.241,254.833,143.084,254.833,147.792z"
		/>
	<path style="fill:none;stroke:#FFFFFF;stroke-width:10;stroke-miterlimit:10;" d="M224.833,247.792
		c0,12.357-10.018,22.375-22.375,22.375s-22.375-10.018-22.375-22.375c0-4.726,1.659-8.584,3.134-12.723
		c2.625-7.362,11.609-33.311,19.241-33.311c7.649,0,17.032,26.988,19.271,33.353C223.18,239.24,224.833,243.084,224.833,247.792z"/>
	<path style="fill:none;stroke:#FFFFFF;stroke-width:10;stroke-miterlimit:10;" d="M158.333,280.833
		c0,3.222-3.116,5.834-6.958,5.834H96.291c-3.842,0-6.958-2.612-6.958-5.834V81.002c0-3.223,3.116-5.835,6.958-5.835h55.084
		c3.842,0,6.958,2.612,6.958,5.835V280.833z"/>
	<path style="fill:#FFFFFF;" d="M145.833,180.792c0,12.357-10.018,22.375-22.375,22.375s-22.375-10.018-22.375-22.375
		c0-4.726,1.659-8.584,3.134-12.723c2.625-7.363,11.61-33.311,19.241-33.311c7.649,0,17.033,26.988,19.27,33.353
		C144.179,172.241,145.833,176.084,145.833,180.792z"/>
</g>
<g id="Ebene_1">
</g>
</svg>
