<?xml version="1.0" encoding="iso-8859-1"?>
<!-- Generator: Adobe Illustrator 16.0.0, SVG Export Plug-In . SVG Version: 6.00 Build 0)  -->
<!DOCTYPE svg PUBLIC "-//W3C//DTD SVG 1.1 Tiny//EN" "http://www.w3.org/Graphics/SVG/1.1/DTD/svg11-tiny.dtd">
<svg version="1.1" baseProfile="tiny" id="weather_x5F_storm"
	 xmlns="http://www.w3.org/2000/svg" xmlns:xlink="http://www.w3.org/1999/xlink" x="0px" y="0px" width="361px" height="361px"
	 viewBox="0 0 361 361" xml:space="preserve">
<path fill="#FFFFFF" stroke="#FFFFFF" stroke-width="10" stroke-miterlimit="10" d="M177.543,128.378
	c0,3.362-2.445,6.087-5.462,6.087H129.75c-3.016,0-5.462-2.725-5.462-6.087V84.254c0-3.361,2.446-6.086,5.462-6.086h42.331
	c3.017,0,5.462,2.725,5.462,6.086V128.378z"/>
<path fill="#FFFFFF" stroke="#FFFFFF" stroke-width="10" stroke-miterlimit="10" d="M84.409,113.164c0,3.36,2.725,6.086,6.085,6.086
	h28.403c3.36,0,6.086-2.726,6.086-6.086V95.92c0-3.361-2.726-6.086-6.086-6.086H90.494c-3.36,0-6.085,2.726-6.085,6.086V113.164z"/>
<path fill="#FFFFFF" stroke="#FFFFFF" stroke-width="10" stroke-miterlimit="10" d="M72.236,113.164
	c0-3.361,2.726-6.086,6.086-6.086h34.996c3.361,0,6.086,2.725,6.086,6.086v9.636c0,3.361-2.725,6.086-6.086,6.086H78.322
	c-3.361,0-6.086-2.725-6.086-6.086V113.164z"/>
<g>
	<path fill="#FFFFFF" d="M117.883,165.933c-5.216,9.034-10.432,18.068-15.648,27.102c-2.261,3.917,3.789,7.44,6.044,3.533
		c5.216-9.034,10.432-18.068,15.648-27.102C126.188,165.549,120.138,162.026,117.883,165.933L117.883,165.933z"/>
</g>
<g>
	<path fill="#FFFFFF" d="M124.633,129.766c-5.579,9.663-11.158,19.326-16.737,28.989c-2.261,3.917,3.789,7.44,6.044,3.533
		c5.579-9.663,11.158-19.326,16.737-28.989C132.938,129.382,126.888,125.859,124.633,129.766L124.633,129.766z"/>
</g>
<g>
	<path fill="#FFFFFF" d="M121.093,105.467c-5.58,9.663-11.159,19.327-16.738,28.99c-2.262,3.917,3.789,7.44,6.044,3.533
		c5.58-9.664,11.159-19.327,16.738-28.99C129.398,105.083,123.348,101.56,121.093,105.467L121.093,105.467z"/>
</g>
<g>
	<path fill="#FFFFFF" d="M93.245,151.708c-5.216,9.034-10.431,18.068-15.646,27.102c-2.261,3.917,3.789,7.44,6.044,3.533
		c5.216-9.034,10.431-18.068,15.646-27.102C101.55,151.325,95.5,147.802,93.245,151.708L93.245,151.708z"/>
</g>
<g>
	<path fill="#FFFFFF" d="M97.029,173.604c-5.216,9.033-10.432,18.066-15.647,27.1c-2.262,3.917,3.789,7.44,6.044,3.533
		c5.216-9.033,10.432-18.066,15.647-27.1C105.335,173.221,99.285,169.697,97.029,173.604L97.029,173.604z"/>
</g>
<g>
	<path fill="#FFFFFF" d="M240.365,159.514c-5.216,9.033-10.432,18.066-15.647,27.1c-2.262,3.917,3.789,7.44,6.044,3.533
		c5.216-9.033,10.432-18.066,15.647-27.1C248.671,159.13,242.621,155.607,240.365,159.514L240.365,159.514z"/>
</g>
<g>
	<path fill="#FFFFFF" d="M239.73,130.524c-5.579,9.663-11.158,19.326-16.737,28.989c-2.261,3.917,3.789,7.44,6.044,3.533
		c5.579-9.663,11.158-19.326,16.737-28.989C248.035,130.141,241.985,126.618,239.73,130.524L239.73,130.524z"/>
</g>
<g>
	<path fill="#FFFFFF" d="M214.555,174.45c-5.216,9.034-10.432,18.067-15.647,27.101c-2.261,3.917,3.789,7.44,6.044,3.533
		c5.216-9.034,10.432-18.067,15.647-27.101C222.86,174.067,216.811,170.543,214.555,174.45L214.555,174.45z"/>
</g>
<g>
	<path fill="#FFFFFF" d="M216.917,139.607c-5.579,9.663-11.158,19.326-16.737,28.989c-2.261,3.917,3.789,7.44,6.044,3.533
		c5.579-9.663,11.158-19.326,16.737-28.989C225.222,139.224,219.172,135.701,216.917,139.607L216.917,139.607z"/>
</g>
<path fill="#FFFFFF" stroke="#FFFFFF" stroke-width="10" stroke-miterlimit="10" d="M218.287,134.465
	c0,3.361-2.445,6.086-5.461,6.086h-42.331c-3.016,0-5.461-2.726-5.461-6.086V90.34c0-3.361,2.446-6.086,5.461-6.086h42.331
	c3.016,0,5.461,2.726,5.461,6.086V134.465z"/>
<path fill="#FFFFFF" stroke="#FFFFFF" stroke-width="10" stroke-miterlimit="10" d="M205.945,129.394
	c0,3.361,2.725,6.086,6.086,6.086h28.402c3.362,0,6.086-2.725,6.086-6.086V112.15c0-3.362-2.724-6.086-6.086-6.086h-28.402
	c-3.361,0-6.086,2.724-6.086,6.086V129.394z"/>
<path fill="#FFFFFF" stroke="#FFFFFF" stroke-width="10" stroke-miterlimit="10" d="M183.324,150.948
	c0,3.361-2.446,6.086-5.462,6.086h-42.33c-3.017,0-5.462-2.725-5.462-6.086v-44.125c0-3.36,2.445-6.086,5.462-6.086h42.33
	c3.016,0,5.462,2.726,5.462,6.086V150.948z"/>
<g>
	<path fill="#FFFFFF" d="M163.768,185.002c5.804,3.897,11.607,7.794,17.41,11.69c3.76,2.524,7.259-3.542,3.533-6.044
		c-5.804-3.897-11.607-7.794-17.41-11.69C163.542,176.434,160.042,182.5,163.768,185.002L163.768,185.002z"/>
</g>
<g>
	<path fill="#FFFFFF" d="M170.292,154.137c2.816,12.847,5.632,25.693,8.448,38.54c0.966,4.408,7.714,2.539,6.75-1.861
		c-2.816-12.847-5.632-25.693-8.448-38.54C176.075,147.867,169.327,149.737,170.292,154.137L170.292,154.137z"/>
</g>
<g>
	<path fill="#FFFFFF" d="M162.016,183.12c4.113,12.261,8.226,24.522,12.338,36.784c1.428,4.256,8.189,2.431,6.75-1.861
		c-4.113-12.261-8.226-24.522-12.338-36.784C167.338,177.002,160.577,178.828,162.016,183.12L162.016,183.12z"/>
</g>
<g>
	<path fill="#FFFFFF" d="M168.563,221.08c2.601,0.652,5.202,1.304,7.802,1.956c4.38,1.098,6.238-5.653,1.861-6.75
		c-2.601-0.652-5.202-1.304-7.802-1.956C166.044,213.232,164.187,219.983,168.563,221.08L168.563,221.08z"/>
</g>
<g>
	<path fill="#FFFFFF" d="M163.65,217.95c2.815,12.847,5.63,25.694,8.446,38.541c0.966,4.409,7.714,2.539,6.75-1.861
		c-2.815-12.847-5.63-25.694-8.446-38.541C169.434,211.68,162.686,213.55,163.65,217.95L163.65,217.95z"/>
</g>
<g>
	<path fill="#FFFFFF" d="M140.12,182.114c4.701,5.462,9.402,10.924,14.103,16.387c2.95,3.427,7.878-1.547,4.95-4.95
		c-4.701-5.462-9.402-10.924-14.103-16.387C142.12,173.737,137.192,178.711,140.12,182.114L140.12,182.114z"/>
</g>
<g>
	<path fill="#FFFFFF" d="M146.699,154.843c1.995,13.333,3.991,26.666,5.986,39.999c0.667,4.452,7.411,2.553,6.75-1.861
		c-1.995-13.333-3.991-26.666-5.986-39.999C152.783,148.53,146.038,150.429,146.699,154.843L146.699,154.843z"/>
</g>
<g>
	<path fill="#FFFFFF" d="M139.096,180.732c3.084,13.133,6.168,26.266,9.252,39.399c1.032,4.394,7.781,2.53,6.75-1.861
		c-3.084-13.133-6.168-26.266-9.252-39.399C144.814,174.478,138.065,176.341,139.096,180.732L139.096,180.732z"/>
</g>
<g>
	<path fill="#FFFFFF" d="M279.315,210.049c0,26.499,0,52.997,0,79.496c0,6.449,10,6.449,10,0c0-26.499,0-52.997,0-79.496
		C289.315,203.601,279.315,203.601,279.315,210.049L279.315,210.049z"/>
</g>
<line fill="none" stroke="#FFFFFF" stroke-width="10" stroke-miterlimit="10" x1="204.332" y1="222.954" x2="253.144" y2="201.498"/>
<line fill="none" stroke="#FFFFFF" stroke-width="10" stroke-miterlimit="10" x1="208.593" y1="235.493" x2="260.786" y2="230.019"/>
<g>
	<polygon fill="#FFFFFF" points="253.144,201.498 280.118,209.555 260.786,230.019 	"/>
	<g>
		<path fill="#FFFFFF" d="M251.814,206.319c8.991,2.686,17.983,5.372,26.974,8.057c-0.735-2.786-1.471-5.571-2.207-8.357
			c-6.444,6.821-12.888,13.643-19.332,20.464c2.786,0.735,5.571,1.471,8.357,2.207c-2.547-9.507-5.095-19.014-7.642-28.521
			c-1.667-6.223-11.314-3.579-9.643,2.658c2.547,9.507,5.095,19.014,7.642,28.521c0.955,3.565,5.765,4.951,8.357,2.207
			c6.444-6.821,12.888-13.643,19.332-20.464c2.605-2.758,1.455-7.264-2.207-8.357c-8.991-2.686-17.982-5.372-26.974-8.057
			C248.278,194.826,245.651,204.478,251.814,206.319z"/>
	</g>
</g>
<path fill="#FFFFFF" d="M215.837,235.021c0.471,1.884-0.738,3.813-2.701,4.304l-5.036,1.259c-1.964,0.491-3.938-0.64-4.409-2.523
	l-3.808-15.218c-0.473-1.885,0.737-3.812,2.7-4.304l5.036-1.259c1.963-0.49,3.938,0.639,4.409,2.523L215.837,235.021z"/>
<path fill="#FFFFFF" d="M231.611,230.725c0.463,1.851-0.43,3.67-1.996,4.063l-4.015,1.004c-1.565,0.392-3.21-0.792-3.673-2.643
	l-3.741-14.948c-0.463-1.852,0.431-3.67,1.996-4.063l4.015-1.004c1.565-0.391,3.21,0.792,3.673,2.644L231.611,230.725z"/>
<path fill="#FFFFFF" d="M249.494,227.69c0.582,2.323-0.216,4.525-1.781,4.917l-4.016,1.004c-1.565,0.392-3.306-1.174-3.887-3.498
	l-4.695-18.76c-0.581-2.323,0.217-4.525,1.782-4.917l4.016-1.004c1.564-0.392,3.306,1.174,3.887,3.498L249.494,227.69z"/>
<path fill="#FFFFFF" stroke="#FFFFFF" stroke-width="11.4253" stroke-miterlimit="10" d="M191.592,144.888
	c0,4.1,3.243,7.425,7.242,7.425h33.796c4,0,7.242-3.325,7.242-7.425V123.85c0-4.101-3.242-7.425-7.242-7.425h-33.796
	c-3.999,0-7.242,3.325-7.242,7.425V144.888z"/>
<path fill="#FFFFFF" stroke="#FFFFFF" stroke-width="9.8934" stroke-miterlimit="10" d="M150.866,111.398
	c0-3.507,2.843-6.35,6.35-6.35h36.511c3.506,0,6.35,2.843,6.35,6.35v10.053c0,3.506-2.843,6.35-6.35,6.35h-36.511
	c-3.507,0-6.35-2.843-6.35-6.35V111.398z"/>
<path fill="#FFFFFF" stroke="#FFFFFF" stroke-width="8.6054" stroke-miterlimit="10" d="M170.295,132.193
	c0,3.162-2.142,5.724-4.783,5.724h-37.073c-2.642,0-4.784-2.563-4.784-5.724v-41.49c0-3.16,2.142-5.722,4.784-5.722h37.073
	c2.642,0,4.783,2.563,4.783,5.722V132.193z"/>
<path fill="#FFFFFF" stroke="#FFFFFF" stroke-width="9.8934" stroke-miterlimit="10" d="M242.567,131.676
	c0,3.507,2.843,6.351,6.35,6.351h29.632c3.506,0,6.35-2.844,6.35-6.351v-17.99c0-3.507-2.843-6.35-6.35-6.35h-29.632
	c-3.507,0-6.35,2.843-6.35,6.35V131.676z"/>
<path fill="#FFFFFF" stroke="#FFFFFF" stroke-width="9.8934" stroke-miterlimit="10" d="M142.586,125.592
	c0,3.505,2.843,6.349,6.35,6.349h29.632c3.507,0,6.35-2.844,6.35-6.349V107.6c0-3.505-2.843-6.349-6.35-6.349h-29.632
	c-3.506,0-6.35,2.843-6.35,6.349V125.592z"/>
<path fill="#FFFFFF" stroke="#FFFFFF" stroke-width="9.8934" stroke-miterlimit="10" d="M199.849,84.981
	c3.507,0,6.35,2.843,6.35,6.35v36.51c0,3.507-2.843,6.35-6.35,6.35h-10.053c-3.506,0-6.35-2.843-6.35-6.35V91.33
	c0-3.506,2.843-6.349,6.35-6.349H199.849z"/>
<path fill="#FFFFFF" stroke="#FFFFFF" stroke-width="9.8934" stroke-miterlimit="10" d="M146.956,83.669
	c0-3.507,2.843-6.35,6.349-6.35h36.511c3.506,0,6.349,2.843,6.349,6.35v10.053c0,3.507-2.843,6.35-6.349,6.35h-36.511
	c-3.506,0-6.349-2.843-6.349-6.35V83.669z"/>
<path fill="#FFFFFF" stroke="#FFFFFF" stroke-width="9.8934" stroke-miterlimit="10" d="M148.26,101.384
	c0,3.507-2.843,6.351-6.35,6.351h-36.51c-3.507,0-6.35-2.844-6.35-6.351V91.331c0-3.506,2.843-6.35,6.35-6.35h36.511
	c3.506,0,6.35,2.844,6.35,6.351V101.384z"/>
<path fill="#FFFFFF" stroke="#FFFFFF" stroke-width="9.8934" stroke-miterlimit="10" d="M252.839,143.998
	c-3.507,0-6.349-2.844-6.349-6.351v-36.51c0-3.507,2.843-6.35,6.35-6.35h10.054c3.506,0,6.35,2.843,6.35,6.35v36.51
	c0,3.507-2.843,6.351-6.35,6.351H252.839z"/>
<path fill="#FFFFFF" stroke="#FFFFFF" stroke-width="9.8934" stroke-miterlimit="10" d="M268.454,139.085
	c0,3.507-2.843,6.351-6.35,6.351h-36.51c-3.507,0-6.35-2.844-6.35-6.351v-10.053c0-3.506,2.843-6.35,6.35-6.35h36.511
	c3.506,0,6.35,2.844,6.35,6.351V139.085z"/>
<path fill="#FFFFFF" stroke="#FFFFFF" stroke-width="9.8934" stroke-miterlimit="10" d="M223.494,78.429
	c3.507,0,6.35,2.843,6.35,6.35v36.511c0,3.506-2.843,6.35-6.35,6.35H213.44c-3.506,0-6.35-2.844-6.35-6.35V84.779
	c0-3.507,2.843-6.35,6.35-6.35H223.494z"/>
<path fill="#FFFFFF" stroke="#FFFFFF" stroke-width="9.8934" stroke-miterlimit="10" d="M91.664,128.656
	c0-3.507,2.843-6.351,6.35-6.351h36.511c3.506,0,6.35,2.844,6.35,6.351v10.053c0,3.506-2.843,6.35-6.35,6.35H98.014
	c-3.506,0-6.35-2.844-6.35-6.35V128.656z"/>
<path fill="#FFFFFF" stroke="#FFFFFF" stroke-width="9.8934" stroke-miterlimit="10" d="M112.836,106.422
	c0-3.507,2.843-6.35,6.35-6.35h36.511c3.506,0,6.35,2.843,6.35,6.35v10.053c0,3.507-2.843,6.351-6.35,6.351h-36.511
	c-3.506,0-6.35-2.844-6.35-6.351V106.422z"/>
<path fill="#FFFFFF" stroke="#FFFFFF" stroke-width="9.8934" stroke-miterlimit="10" d="M233.764,94.788
	c3.507,0,6.35,2.843,6.35,6.349v36.511c0,3.507-2.843,6.351-6.35,6.351h-10.053c-3.507,0-6.35-2.844-6.35-6.351v-36.511
	c0-3.506,2.843-6.349,6.35-6.349H233.764z"/>
</svg>
