<?xml version="1.0" encoding="iso-8859-1"?>
<!-- Generator: Adobe Illustrator 16.0.0, SVG Export Plug-In . SVG Version: 6.00 Build 0)  -->
<!DOCTYPE svg PUBLIC "-//W3C//DTD SVG 1.1 Tiny//EN" "http://www.w3.org/Graphics/SVG/1.1/DTD/svg11-tiny.dtd">
<svg version="1.1" baseProfile="tiny" id="weather_x5F_pollen"
	 xmlns="http://www.w3.org/2000/svg" xmlns:xlink="http://www.w3.org/1999/xlink" x="0px" y="0px" width="361px" height="361px"
	 viewBox="0 0 361 361" xml:space="preserve">
<g>
	<path fill="#FFFFFF" d="M112.981,289.878c0.05-29.275,1.846-58.859,8.064-87.53c2.027-9.349,4.523-18.861,8.708-27.502
		c1.325-2.735,2.864-5.451,4.914-7.708c0.968-1.066,1.512-1.472,2.458-2.031c0.417-0.246,1.31-0.436,1.531-0.442
		c6.433-0.199,6.452-10.2,0-10c-16.589,0.513-22.607,26.358-25.755,38.659c-8.003,31.276-9.865,64.403-9.92,96.554
		C102.97,296.328,112.97,296.327,112.981,289.878L112.981,289.878z"/>
</g>
<path fill="#FFFFFF" d="M149.941,133.167c0,2.662-2.158,4.82-4.82,4.82h-3.614c-2.662,0-4.82-2.158-4.82-4.82v-3.615
	c0-2.662,2.158-4.819,4.82-4.819h3.614c2.662,0,4.82,2.158,4.82,4.819V133.167z"/>
<path fill="#FFFFFF" d="M165.103,133.372c0,2.662-2.158,4.82-4.819,4.82h-3.615c-2.662,0-4.82-2.158-4.82-4.82v-3.615
	c0-2.662,2.158-4.82,4.82-4.82h3.615c2.662,0,4.819,2.158,4.819,4.82V133.372z"/>
<path fill="#FFFFFF" d="M142.612,146.357c0,2.662-2.158,4.819-4.82,4.819h-3.614c-2.662,0-4.82-2.158-4.82-4.819v-3.615
	c0-2.662,2.158-4.819,4.82-4.819h3.614c2.662,0,4.82,2.158,4.82,4.819V146.357z"/>
<path fill="#FFFFFF" d="M171.253,147.999c0,2.662-2.158,4.819-4.82,4.819h-3.615c-2.661,0-4.819-2.158-4.819-4.819v-3.615
	c0-2.662,2.158-4.82,4.819-4.82h3.615c2.662,0,4.82,2.158,4.82,4.82V147.999z"/>
<path fill="#FFFFFF" d="M159.803,159.604c0,2.662-2.158,4.819-4.82,4.819h-3.615c-2.662,0-4.819-2.158-4.819-4.819v-3.615
	c0-2.662,2.158-4.819,4.819-4.819h3.615c2.662,0,4.82,2.158,4.82,4.819V159.604z"/>
<path fill="#FFFFFF" d="M177.796,171.583c0,2.662-2.158,4.82-4.819,4.82h-3.615c-2.662,0-4.82-2.158-4.82-4.82v-3.615
	c0-2.662,2.158-4.82,4.82-4.82h3.615c2.661,0,4.819,2.158,4.819,4.82V171.583z"/>
<path fill="#FFFFFF" d="M187.051,129.402c0,2.662-2.158,4.82-4.82,4.82h-3.615c-2.662,0-4.82-2.158-4.82-4.82v-3.615
	c0-2.662,2.158-4.82,4.82-4.82h3.615c2.662,0,4.82,2.158,4.82,4.82V129.402z"/>
<path fill="#FFFFFF" d="M188.167,158.927c0,2.661-2.158,4.819-4.819,4.819h-3.615c-2.662,0-4.819-2.158-4.819-4.819v-3.615
	c0-2.662,2.158-4.82,4.819-4.82h3.615c2.662,0,4.819,2.158,4.819,4.82V158.927z"/>
<path fill="#FFFFFF" d="M191.398,144.129c0,2.661-2.158,4.819-4.819,4.819h-3.615c-2.662,0-4.82-2.158-4.82-4.819v-3.615
	c0-2.661,2.158-4.819,4.82-4.819h3.615c2.661,0,4.819,2.158,4.819,4.819V144.129z"/>
<path fill="#FFFFFF" d="M174.797,117.102c0,2.662-2.158,4.819-4.82,4.819h-3.614c-2.662,0-4.82-2.158-4.82-4.819v-3.615
	c0-2.662,2.158-4.82,4.82-4.82h3.614c2.662,0,4.82,2.158,4.82,4.82V117.102z"/>
<path fill="#FFFFFF" d="M159.536,112.888c0,2.662-2.158,4.82-4.82,4.82h-3.615c-2.662,0-4.82-2.158-4.82-4.82v-3.615
	c0-2.661,2.158-4.819,4.82-4.819h3.615c2.662,0,4.82,2.158,4.82,4.819V112.888z"/>
<path fill="#FFFFFF" d="M145.166,115.62c0,2.662-2.158,4.819-4.819,4.819h-3.615c-2.662,0-4.82-2.158-4.82-4.819v-3.615
	c0-2.662,2.158-4.82,4.82-4.82h3.615c2.662,0,4.819,2.158,4.819,4.82V115.62z"/>
<path fill="#FFFFFF" d="M132.437,125.687c0,2.662-2.158,4.82-4.82,4.82h-3.614c-2.662,0-4.82-2.158-4.82-4.82v-3.615
	c0-2.662,2.158-4.82,4.82-4.82h3.614c2.662,0,4.82,2.158,4.82,4.82V125.687z"/>
<path fill="#FFFFFF" d="M126.195,140.062c0,2.662-2.158,4.82-4.82,4.82h-3.615c-2.661,0-4.819-2.158-4.819-4.82v-3.615
	c0-2.661,2.158-4.819,4.819-4.819h3.615c2.662,0,4.82,2.158,4.82,4.819V140.062z"/>
<path fill="#FFFFFF" d="M162.373,177.848c0,2.662-2.158,4.82-4.82,4.82h-3.615c-2.662,0-4.82-2.158-4.82-4.82v-3.614
	c0-2.662,2.158-4.82,4.82-4.82h3.615c2.662,0,4.82,2.158,4.82,4.82V177.848z"/>
<path fill="#FFFFFF" d="M147.967,176.08c0,2.662-2.158,4.819-4.819,4.819h-3.615c-2.662,0-4.819-2.158-4.819-4.819v-3.615
	c0-2.662,2.158-4.82,4.819-4.82h3.615c2.662,0,4.819,2.158,4.819,4.82V176.08z"/>
<path fill="#FFFFFF" d="M127.689,155.016c0,2.661-2.158,4.819-4.82,4.819h-3.615c-2.662,0-4.819-2.158-4.819-4.819V151.4
	c0-2.661,2.158-4.819,4.819-4.819h3.615c2.662,0,4.82,2.158,4.82,4.819V155.016z"/>
<path fill="#FFFFFF" d="M279.065,98.295c0,2.071-1.679,3.75-3.75,3.75l0,0c-2.071,0-3.75-1.679-3.75-3.75l0,0
	c0-2.071,1.679-3.75,3.75-3.75l0,0C277.386,94.545,279.065,96.224,279.065,98.295L279.065,98.295z"/>
<path fill="#FFFFFF" d="M288.565,85.795c0,2.071-1.679,3.75-3.75,3.75l0,0c-2.071,0-3.75-1.679-3.75-3.75l0,0
	c0-2.071,1.679-3.75,3.75-3.75l0,0C286.886,82.045,288.565,83.724,288.565,85.795L288.565,85.795z"/>
<path fill="#FFFFFF" d="M257.315,79.795c0,2.071-1.679,3.75-3.75,3.75l0,0c-2.071,0-3.75-1.679-3.75-3.75l0,0
	c0-2.071,1.679-3.75,3.75-3.75l0,0C255.636,76.045,257.315,77.724,257.315,79.795L257.315,79.795z"/>
<path fill="#FFFFFF" d="M261.565,107.045c0,2.071-1.679,3.75-3.75,3.75l0,0c-2.071,0-3.75-1.679-3.75-3.75l0,0
	c0-2.071,1.679-3.75,3.75-3.75l0,0C259.886,103.295,261.565,104.974,261.565,107.045L261.565,107.045z"/>
<path fill="#FFFFFF" d="M242.315,105.545c0,2.071-1.679,3.75-3.75,3.75l0,0c-2.071,0-3.75-1.679-3.75-3.75l0,0
	c0-2.071,1.679-3.75,3.75-3.75l0,0C240.636,101.795,242.315,103.474,242.315,105.545L242.315,105.545z"/>
<path fill="#FFFFFF" d="M220.065,77.045c0,2.071-1.679,3.75-3.75,3.75l0,0c-2.071,0-3.75-1.679-3.75-3.75l0,0
	c0-2.071,1.679-3.75,3.75-3.75l0,0C218.386,73.295,220.065,74.974,220.065,77.045L220.065,77.045z"/>
<path fill="#FFFFFF" d="M237.065,92.045c0,2.071-1.679,3.75-3.75,3.75l0,0c-2.071,0-3.75-1.679-3.75-3.75l0,0
	c0-2.071,1.679-3.75,3.75-3.75l0,0C235.386,88.295,237.065,89.974,237.065,92.045L237.065,92.045z"/>
<circle display="none" fill="none" stroke="#000000" stroke-miterlimit="10" cx="136.94" cy="179.67" r="32.625"/>
<circle display="none" fill="none" stroke="#000000" stroke-miterlimit="10" cx="135.565" cy="179.795" r="14.75"/>
<circle display="none" fill="none" stroke="#000000" stroke-miterlimit="10" cx="136.815" cy="179.545" r="46.5"/>
<path fill="#FFFFFF" d="M193.815,88.045c0,2.071-1.679,3.75-3.75,3.75l0,0c-2.071,0-3.75-1.679-3.75-3.75l0,0
	c0-2.071,1.679-3.75,3.75-3.75l0,0C192.136,84.295,193.815,85.974,193.815,88.045L193.815,88.045z"/>
<path fill="#FFFFFF" d="M197.827,96.63c0.114-2.068,1.883-3.651,3.952-3.537l0,0c2.068,0.115,3.651,1.884,3.537,3.952l0,0
	c-0.115,2.068-1.884,3.651-3.952,3.537l0,0C199.295,100.467,197.712,98.698,197.827,96.63L197.827,96.63z"/>
<path fill="#FFFFFF" d="M215.571,107.337c0.115-2.068,1.884-3.651,3.952-3.537l0,0c2.068,0.114,3.651,1.883,3.537,3.952l0,0
	c-0.114,2.068-1.883,3.651-3.952,3.537l0,0C217.04,111.174,215.456,109.405,215.571,107.337L215.571,107.337z"/>
<g>
	<path fill="#FFFFFF" d="M191.565,173.17c0,2.071-1.679,3.75-3.75,3.75l0,0c-2.071,0-3.75-1.679-3.75-3.75l0,0
		c0-2.071,1.679-3.75,3.75-3.75l0,0C189.886,169.42,191.565,171.099,191.565,173.17L191.565,173.17z"/>
	<path fill="#FFFFFF" d="M196.815,164.92c0,2.071-1.679,3.75-3.75,3.75l0,0c-2.071,0-3.75-1.679-3.75-3.75l0,0
		c0-2.071,1.679-3.75,3.75-3.75l0,0C195.136,161.17,196.815,162.849,196.815,164.92L196.815,164.92z"/>
	<path fill="#FFFFFF" d="M200.565,155.67c0,2.071-1.679,3.75-3.75,3.75l0,0c-2.071,0-3.75-1.679-3.75-3.75l0,0
		c0-2.071,1.679-3.75,3.75-3.75l0,0C198.886,151.92,200.565,153.599,200.565,155.67L200.565,155.67z"/>
	<path fill="#FFFFFF" d="M121.815,111.295c0,2.071-1.679,3.75-3.75,3.75l0,0c-2.071,0-3.75-1.679-3.75-3.75l0,0
		c0-2.071,1.679-3.75,3.75-3.75l0,0C120.136,107.545,121.815,109.224,121.815,111.295L121.815,111.295z"/>
	<path fill="#FFFFFF" d="M129.065,105.045c0,2.071-1.679,3.75-3.75,3.75l0,0c-2.071,0-3.75-1.679-3.75-3.75l0,0
		c0-2.071,1.679-3.75,3.75-3.75l0,0C127.386,101.295,129.065,102.974,129.065,105.045L129.065,105.045z"/>
	<path fill="#FFFFFF" d="M137.315,100.545c0,2.071-1.679,3.75-3.75,3.75l0,0c-2.071,0-3.75-1.679-3.75-3.75l0,0
		c0-2.071,1.679-3.75,3.75-3.75l0,0C135.636,96.795,137.315,98.474,137.315,100.545L137.315,100.545z"/>
	<path fill="#FFFFFF" d="M146.315,97.795c0,2.071-1.679,3.75-3.75,3.75l0,0c-2.071,0-3.75-1.679-3.75-3.75l0,0
		c0-2.071,1.679-3.75,3.75-3.75l0,0C144.636,94.045,146.315,95.724,146.315,97.795L146.315,97.795z"/>
	<path fill="#FFFFFF" d="M156.065,97.295c0,2.071-1.679,3.75-3.75,3.75l0,0c-2.071,0-3.75-1.679-3.75-3.75l0,0
		c0-2.071,1.679-3.75,3.75-3.75l0,0C154.386,93.545,156.065,95.224,156.065,97.295L156.065,97.295z"/>
	<path fill="#FFFFFF" d="M165.315,98.295c0,2.071-1.679,3.75-3.75,3.75l0,0c-2.071,0-3.75-1.679-3.75-3.75l0,0
		c0-2.071,1.679-3.75,3.75-3.75l0,0C163.636,94.545,165.315,96.224,165.315,98.295L165.315,98.295z"/>
	<path fill="#FFFFFF" d="M174.565,101.295c0,2.071-1.679,3.75-3.75,3.75l0,0c-2.071,0-3.75-1.679-3.75-3.75l0,0
		c0-2.071,1.679-3.75,3.75-3.75l0,0C172.886,97.545,174.565,99.224,174.565,101.295L174.565,101.295z"/>
	<path fill="#FFFFFF" d="M183.065,106.045c0,2.071-1.679,3.75-3.75,3.75l0,0c-2.071,0-3.75-1.679-3.75-3.75l0,0
		c0-2.071,1.679-3.75,3.75-3.75l0,0C181.386,102.295,183.065,103.974,183.065,106.045L183.065,106.045z"/>
	<path fill="#FFFFFF" d="M190.315,112.045c0,2.071-1.679,3.75-3.75,3.75l0,0c-2.071,0-3.75-1.679-3.75-3.75l0,0
		c0-2.071,1.679-3.75,3.75-3.75l0,0C188.636,108.295,190.315,109.974,190.315,112.045L190.315,112.045z"/>
	<path fill="#FFFFFF" d="M195.315,119.545c0,2.071-1.679,3.75-3.75,3.75l0,0c-2.071,0-3.75-1.679-3.75-3.75l0,0
		c0-2.071,1.679-3.75,3.75-3.75l0,0C193.636,115.795,195.315,117.474,195.315,119.545L195.315,119.545z"/>
	<path fill="#FFFFFF" d="M199.565,127.545c0,2.071-1.679,3.75-3.75,3.75l0,0c-2.071,0-3.75-1.679-3.75-3.75l0,0
		c0-2.071,1.679-3.75,3.75-3.75l0,0C197.886,123.795,199.565,125.474,199.565,127.545L199.565,127.545z"/>
	<path fill="#FFFFFF" d="M202.065,136.545c0,2.071-1.679,3.75-3.75,3.75l0,0c-2.071,0-3.75-1.679-3.75-3.75l0,0
		c0-2.071,1.679-3.75,3.75-3.75l0,0C200.386,132.795,202.065,134.474,202.065,136.545L202.065,136.545z"/>
	<path fill="#FFFFFF" d="M202.315,146.295c0,2.071-1.679,3.75-3.75,3.75l0,0c-2.071,0-3.75-1.679-3.75-3.75l0,0
		c0-2.071,1.679-3.75,3.75-3.75l0,0C200.636,142.545,202.315,144.224,202.315,146.295L202.315,146.295z"/>
	<path fill="#FFFFFF" d="M177.693,179.104c0.414-2.03,2.394-3.339,4.423-2.926l0,0c2.029,0.414,3.339,2.394,2.926,4.423l0,0
		c-0.413,2.03-2.393,3.339-4.423,2.926l0,0C178.59,183.114,177.28,181.135,177.693,179.104L177.693,179.104z"/>
	<path fill="#FFFFFF" d="M170.592,183.907c0.414-2.03,2.394-3.34,4.423-2.926l0,0c2.029,0.413,3.34,2.393,2.927,4.422l0,0
		c-0.414,2.029-2.394,3.34-4.423,2.927l0,0C171.489,187.917,170.179,185.937,170.592,183.907L170.592,183.907z"/>
	<path fill="#FFFFFF" d="M162.265,187.296c0.414-2.03,2.394-3.339,4.424-2.926l0,0c2.029,0.414,3.339,2.394,2.926,4.423l0,0
		c-0.414,2.029-2.393,3.34-4.423,2.926l0,0C163.162,191.306,161.853,189.327,162.265,187.296L162.265,187.296z"/>
	<path fill="#FFFFFF" d="M153.367,189.068c0.414-2.03,2.394-3.339,4.423-2.926l0,0c2.03,0.414,3.339,2.394,2.926,4.423l0,0
		c-0.414,2.029-2.394,3.339-4.423,2.926l0,0C154.264,193.078,152.954,191.099,153.367,189.068L153.367,189.068z"/>
	<path fill="#FFFFFF" d="M144.339,188.988c0.413-2.03,2.394-3.339,4.423-2.925l0,0c2.03,0.413,3.339,2.392,2.927,4.422l0,0
		c-0.414,2.03-2.395,3.339-4.423,2.926l0,0C145.236,192.998,143.926,191.018,144.339,188.988L144.339,188.988z"/>
	<path fill="#FFFFFF" d="M137.381,184.78c1.882-0.864,4.109-0.038,4.973,1.843l0,0c0.864,1.883,0.039,4.108-1.844,4.973l0,0
		c-1.882,0.864-4.108,0.039-4.972-1.844l0,0C134.674,187.87,135.499,185.644,137.381,184.78L137.381,184.78z"/>
	<path fill="#FFFFFF" d="M110.765,165.021c1.883-0.864,4.108-0.039,4.973,1.844l0,0c0.864,1.882,0.039,4.108-1.844,4.973l0,0
		c-1.882,0.864-4.108,0.038-4.972-1.844l0,0C108.058,168.112,108.883,165.885,110.765,165.021L110.765,165.021z"/>
	<path fill="#FFFFFF" d="M106.993,156.994c1.883-0.864,4.108-0.039,4.973,1.844l0,0c0.864,1.883,0.038,4.108-1.844,4.973l0,0
		c-1.882,0.863-4.108,0.038-4.973-1.844l0,0C104.286,160.084,105.111,157.858,106.993,156.994L106.993,156.994z"/>
	<path fill="#FFFFFF" d="M108.221,148.985c1.77,1.077,2.332,3.383,1.255,5.153l0,0c-1.077,1.77-3.383,2.331-5.153,1.255l0,0
		c-1.769-1.077-2.332-3.383-1.255-5.153l0,0C104.145,148.471,106.451,147.909,108.221,148.985L108.221,148.985z"/>
	<path fill="#FFFFFF" d="M107.398,140.668c1.77,1.076,2.332,3.383,1.255,5.152l0,0c-1.076,1.77-3.383,2.332-5.153,1.255l0,0
		c-1.77-1.076-2.332-3.383-1.255-5.152l0,0C103.322,140.153,105.628,139.592,107.398,140.668L107.398,140.668z"/>
	<path fill="#FFFFFF" d="M107.965,131.531c1.77,1.076,2.332,3.383,1.255,5.153l0,0c-1.077,1.77-3.383,2.332-5.152,1.255l0,0
		c-1.77-1.077-2.332-3.383-1.255-5.153l0,0C103.89,131.017,106.196,130.455,107.965,131.531L107.965,131.531z"/>
	<path fill="#FFFFFF" d="M110.167,123.162c1.77,1.077,2.332,3.383,1.255,5.153l0,0c-1.076,1.77-3.383,2.332-5.152,1.255l0,0
		c-1.77-1.076-2.332-3.383-1.255-5.153l0,0C106.091,122.648,108.397,122.086,110.167,123.162L110.167,123.162z"/>
	<path fill="#FFFFFF" d="M114.306,114.947c1.77,1.076,2.332,3.383,1.255,5.152l0,0c-1.076,1.77-3.382,2.332-5.152,1.255l0,0
		c-1.77-1.077-2.332-3.383-1.255-5.152l0,0C110.23,114.433,112.537,113.871,114.306,114.947L114.306,114.947z"/>
</g>
<g>
	<path fill="#FFFFFF" d="M114.481,286.211c0.437-43.795,43.348-70.541,83.5-70.833c-0.589-2.174-1.178-4.348-1.767-6.522
		c-8.617,4.732-17.234,9.463-25.851,14.195c-5.84,3.207-11.68,6.414-17.521,9.621c-2.214,1.216-6.536,2.554-8.163,4.641
		c-12.058,15.475-24.116,30.949-36.175,46.423c-2.739,3.516,2.178,8.508,4.95,4.95c12.04-15.451,24.081-30.903,36.121-46.354
		c-0.902,1.158,0.277-0.034,1.206-0.543c1.865-1.024,3.729-2.048,5.594-3.072c5.84-3.207,11.68-6.414,17.521-9.621
		c8.617-4.732,17.233-9.464,25.851-14.196c3.075-1.688,1.669-6.547-1.767-6.522c-44.021,0.32-90.025,30.175-90.5,77.833
		C107.437,290.727,114.437,290.723,114.481,286.211z"/>
</g>
<g>
	<path fill="#FFFFFF" d="M109.548,290.648c10.331-31.849-5.132-67.154-37.233-78.43c-2.731-0.959-5.827,2.7-3.953,5.142
		c4.246,5.532,8.493,11.063,12.739,16.595c2.727,3.552,5.453,7.104,8.18,10.655c0.889,1.158,1.778,2.316,2.667,3.475
		c0.911,1.187,0.417,0.411,0.39,0.305c3.486,14.086,6.973,28.172,10.459,42.259c1.084,4.38,7.834,2.521,6.75-1.861
		c-3.486-14.086-6.973-28.172-10.459-42.258c-0.409-1.653-1.937-3.073-2.939-4.379c-2.799-3.646-5.599-7.293-8.398-10.939
		c-4.448-5.794-8.896-11.589-13.345-17.383c-1.317,1.714-2.635,3.428-3.953,5.142c28.626,10.056,41.436,41.789,32.344,69.819
		C101.402,293.093,108.162,294.922,109.548,290.648z"/>
</g>
</svg>
