<?xml version="1.0" encoding="iso-8859-1"?>
<!-- Generator: Adobe Illustrator 16.0.0, SVG Export Plug-In . SVG Version: 6.00 Build 0)  -->
<!DOCTYPE svg PUBLIC "-//W3C//DTD SVG 1.1//EN" "http://www.w3.org/Graphics/SVG/1.1/DTD/svg11.dtd">
<svg version="1.1" xmlns="http://www.w3.org/2000/svg" xmlns:xlink="http://www.w3.org/1999/xlink" x="0px" y="0px" width="361px"
	 height="361px" viewBox="0 0 361 361" style="enable-background:new 0 0 361 361;" xml:space="preserve">
<g id="weather_x5F_station_x5F_generic">
	<g>
		<g>
			<path style="fill:#FFFFFF;" d="M176.166,168.667c0,39.223,0,78.444,0,117.667c0,6.448,10,6.448,10,0c0-39.223,0-78.444,0-117.667
				C186.166,162.218,176.166,162.218,176.166,168.667L176.166,168.667z"/>
		</g>
	</g>
	<g>
		<g>
			<g>
				<g>
					<path style="fill:#FFFFFF;" d="M245.692,109.93c-6.111-3.222-12.223-6.444-18.334-9.667c-5.699-3.005-10.753,5.626-5.047,8.635
						c6.111,3.222,12.223,6.444,18.334,9.667C246.345,121.57,251.398,112.938,245.692,109.93L245.692,109.93z"/>
				</g>
			</g>
			<g>
				<g>
					<path style="fill:#FFFFFF;" d="M240.646,110.263c-6.111,3.222-12.223,6.444-18.334,9.667c-5.706,3.008-0.652,11.64,5.047,8.635
						c6.111-3.222,12.223-6.444,18.334-9.667C251.398,115.89,246.345,107.258,240.646,110.263L240.646,110.263z"/>
				</g>
			</g>
		</g>
		<g>
			<g>
				<g>
					<path style="fill:#FFFFFF;" d="M153.168,119.552c29.889,0,59.778,0,89.667,0c6.448,0,6.448-10,0-10
						c-29.889,0-59.777,0-89.667,0C146.72,109.552,146.72,119.552,153.168,119.552L153.168,119.552z"/>
				</g>
			</g>
			<g>
				<g>
					<path style="fill:#FFFFFF;" d="M114.799,78.653c11.222,13.146,22.444,26.292,33.667,39.439
						c0.337-2.618,0.675-5.235,1.012-7.853c-11.222,6.479-22.444,12.958-33.667,19.438c2.508,1.439,5.016,2.878,7.523,4.317
						c0-19.625,0-39.251,0-58.876c0-6.449-10-6.449-10,0c0,19.625,0,39.251,0,58.876c0,3.805,4.243,6.211,7.523,4.317
						c11.222-6.479,22.444-12.958,33.667-19.438c2.958-1.708,3.072-5.44,1.012-7.853c-11.222-13.146-22.444-26.292-33.667-39.439
						C117.677,66.669,110.638,73.778,114.799,78.653z"/>
				</g>
			</g>
		</g>
	</g>
	<g>
		<g>
			<g>
				<path style="fill:#FFFFFF;" d="M262.502,209.002c6.781,0.456,5,9.889,5,14.492c0,7.829,0,15.659,0,23.488
					c0,4.29,1.263,12.016-5.228,12.016c-5.044,0-10.088,0-15.133,0c-7.892,0-15.783,0-23.675,0c-3.849,0-9.875,1.132-13.49-0.683
					c-4.171-2.093-2.477-11.997-2.477-15.586c0-7.737,0-15.475,0-23.211c0-4.251-0.796-10.517,5.401-10.517
					c4.986,0,9.973,0,14.959,0C239.407,209.002,250.955,209.002,262.502,209.002c6.448,0,6.448-10,0-10c-12.15,0-24.3,0-36.45,0
					c-4.509,0-9.018,0-13.526,0c-9.021,0-15.025,7.562-15.025,16.12c0,12.789,0,25.577,0,38.366c0,8.513,6.597,15.51,15.228,15.51
					c5.044,0,10.088,0,15.133,0c10.432,0,20.863,0,31.296,0c10.037,0,18.346-5.021,18.346-16.12c0-10.079,0-20.158,0-30.237
					c0-2.879,0-5.759,0-8.639c0-8.557-6.876-14.453-15-15C256.062,198.568,256.104,208.571,262.502,209.002z"/>
			</g>
		</g>
		<g>
			<g>
				<path style="fill:#FFFFFF;" d="M199.166,222.668c25.445,0,50.891,0,76.336,0c6.448,0,6.448-10,0-10c-25.445,0-50.891,0-76.336,0
					C192.718,212.668,192.718,222.668,199.166,222.668L199.166,222.668z"/>
			</g>
		</g>
	</g>
	<g>
		<g>
			<g>
				<path style="fill:#FFFFFF;" d="M243.835,277c0-4.111,0-8.222,0-12.333c0-6.448-10-6.448-10,0c0,4.111,0,8.222,0,12.333
					C233.835,283.448,243.835,283.448,243.835,277L243.835,277z"/>
			</g>
		</g>
		<g>
			<g>
				<g>
					<path style="fill:#FFFFFF;" d="M238.835,272c-36.889,0-73.778,0-110.667,0c-6.449,0-6.449,10,0,10c36.889,0,73.778,0,110.667,0
						C245.283,282,245.283,272,238.835,272L238.835,272z"/>
				</g>
			</g>
			<g>
				<g>
					<path style="fill:#FFFFFF;" d="M132.833,277c0-4.111,0-8.222,0-12.333c0-6.448-10-6.448-10,0c0,4.111,0,8.222,0,12.333
						C122.833,283.448,132.833,283.448,132.833,277L132.833,277z"/>
				</g>
			</g>
		</g>
	</g>
	<g>
		<g>
			<g>
				<path style="fill:#FFFFFF;" d="M182.666,156.186c0.004,2.331,0.927,7.519-1.666,7.667c-4.35,0.248-7.451-3.671-7.667-7.667
					c-0.234-4.351,3.661-7.451,7.667-7.667C183.597,148.379,182.669,154.097,182.666,156.186c-0.01,6.449,9.99,6.448,10,0
					c0.014-8.75-1.248-17.073-11.666-17.667c-9.96-0.568-17.174,8.514-17.667,17.667c-0.537,9.962,8.49,17.172,17.667,17.667
					c10.454,0.563,11.678-9.815,11.666-17.667C192.656,149.737,182.656,149.736,182.666,156.186z"/>
			</g>
		</g>
		<g>
			<g>
				<path style="fill:#FFFFFF;" d="M220.833,156.186c-0.109,2.583-0.971,7.403-4.333,7.667c-1.381,0.108-1.322-6.83-1.333-7.667
					c-0.013-1.02-0.17-7.544,1.333-7.667C219.804,148.25,220.741,154.037,220.833,156.186c0.273,6.424,10.274,6.45,10,0
					c-0.369-8.676-4.979-16.934-14.333-17.667c-9.485-0.743-11.245,10.819-11.333,17.667c-0.104,8.047,1.997,16.905,11.333,17.667
					c9.312,0.76,14.014-10.151,14.333-17.667C231.107,149.735,221.106,149.762,220.833,156.186z"/>
			</g>
		</g>
		<g>
			<g>
				<path style="fill:#FFFFFF;" d="M146.833,156.186c-0.013,1.024,0.188,7.542-1.333,7.667c-3.304,0.27-4.242-5.517-4.333-7.667
					c-0.109-2.571,1.12-7.415,4.333-7.667C146.881,148.411,146.823,155.349,146.833,156.186c0.083,6.443,10.083,6.452,10,0
					c-0.104-8.051-1.848-16.893-11.333-17.667c-9.312-0.76-14.014,10.151-14.333,17.667c-0.368,8.654,5.513,16.976,14.333,17.667
					c9.485,0.743,11.245-10.819,11.333-17.667C156.917,149.734,146.917,149.742,146.833,156.186z"/>
			</g>
		</g>
	</g>
	<g>
		<g>
			<path style="fill:#FFFFFF;" d="M156.833,161.186c2.667,0,5.333,0,8,0c2.726,0,5-2.274,5-5s-2.274-5-5-5c-2.667,0-5.333,0-8,0
				c-2.726,0-5,2.274-5,5S154.108,161.186,156.833,161.186L156.833,161.186z"/>
		</g>
	</g>
	<g>
		<g>
			<path style="fill:#FFFFFF;" d="M190.334,161.186c4.611,0,9.222,0,13.833,0c6.448,0,6.448-10,0-10c-4.611,0-9.222,0-13.833,0
				C183.886,151.186,183.886,161.186,190.334,161.186L190.334,161.186z"/>
		</g>
	</g>
	<g>
		<g>
			<path style="fill:#FFFFFF;" d="M176.166,116.667c0,7.556,0,15.111,0,22.667c0,6.449,10,6.449,10,0c0-7.556,0-15.111,0-22.667
				C186.166,110.218,176.166,110.218,176.166,116.667L176.166,116.667z"/>
		</g>
	</g>
	<g>
		<g>
			<g>
				<path style="fill:#FFFFFF;" d="M148.461,242.414c-13.331,0.038-26.663,0.001-39.994,0c-1.908,0-3.5,1.592-3.5,3.5
					c0,0.001,0,0.001,0,0.002c0,4.555,6.7,4.46,7,0c0.562-8.354,10.722-6.5,16.497-6.5s15.935-1.854,16.497,6.5
					c0.3,4.46,7,4.555,7,0c0-0.001,0-0.001,0-0.002c0-4.514-7-4.514-7,0c0,0.001,0,0.001,0,0.002c2.333,0,4.667,0,7,0
					c-0.449-6.677-4.528-11.918-11.212-13.283c-3.891-0.796-8.356-0.217-12.285-0.217c-3.774,0-7.586-0.162-11.354,0.091
					c-7.132,0.48-11.694,6.737-12.143,13.409c2.333,0,4.667,0,7,0c0-0.001,0-0.001,0-0.002c-1.167,1.167-2.333,2.333-3.5,3.5
					c13.331,0.001,26.663,0.038,39.994,0C152.974,249.401,152.976,242.401,148.461,242.414z"/>
			</g>
		</g>
		<g>
			<g>
				<path style="fill:#FFFFFF;" d="M148.461,227.997c-13.331,0.058-26.663,0.001-39.994,0c-1.908,0-3.5,1.592-3.5,3.5
					c0,0.001,0,0.002,0,0.003c0,4.555,6.7,4.46,7,0c0.562-8.354,10.722-6.5,16.497-6.5s15.935-1.854,16.497,6.5
					c0.3,4.46,7,4.555,7,0c0-0.001,0-0.002,0-0.003c0-4.514-7-4.514-7,0c0,0.001,0,0.002,0,0.003c2.333,0,4.667,0,7,0
					c-0.449-6.677-4.527-11.918-11.212-13.284c-3.891-0.794-8.356-0.216-12.285-0.216c-3.774,0-7.586-0.162-11.354,0.091
					c-7.132,0.48-11.694,6.737-12.143,13.409c2.333,0,4.667,0,7,0c0-0.001,0-0.002,0-0.003c-1.167,1.167-2.333,2.333-3.5,3.5
					c13.331,0.001,26.663,0.058,39.994,0C152.974,234.978,152.976,227.978,148.461,227.997z"/>
			</g>
		</g>
		<g>
			<g>
				<path style="fill:#FFFFFF;" d="M148.461,213.58c-13.331,0.058-26.663,0.001-39.994,0c-1.908,0-3.5,1.592-3.5,3.5
					c0,0.001,0,0.002,0,0.003c0,4.555,6.7,4.46,7,0c0.562-8.354,10.722-6.5,16.497-6.5s15.935-1.854,16.497,6.5
					c0.3,4.46,7,4.555,7,0c0-0.001,0-0.002,0-0.003c0-4.514-7-4.514-7,0c0,0.001,0,0.002,0,0.003c2.333,0,4.667,0,7,0
					c-0.449-6.677-4.528-11.918-11.212-13.283c-3.891-0.796-8.356-0.217-12.285-0.217c-3.774,0-7.586-0.162-11.354,0.091
					c-7.132,0.48-11.694,6.737-12.143,13.409c2.333,0,4.667,0,7,0c0-0.001,0-0.002,0-0.003c-1.167,1.167-2.333,2.333-3.5,3.5
					c13.331,0.001,26.663,0.058,39.994,0C152.974,220.561,152.976,213.561,148.461,213.58z"/>
			</g>
		</g>
		<g>
			<g>
				<path style="fill:#FFFFFF;" d="M148.461,199.164c-13.331,0.038-26.663,0.001-39.994,0c-1.908,0-3.5,1.592-3.5,3.5
					c0,0.001,0,0.001,0,0.002c0,4.555,6.7,4.46,7,0c0.562-8.354,10.722-6.5,16.497-6.5s15.935-1.854,16.497,6.5
					c0.3,4.46,7,4.555,7,0c0-0.001,0-0.001,0-0.002c0-4.514-7-4.514-7,0c0,0.001,0,0.001,0,0.002c2.333,0,4.667,0,7,0
					c-0.449-6.677-4.528-11.918-11.212-13.283c-3.891-0.796-8.356-0.217-12.285-0.217c-3.774,0-7.586-0.162-11.354,0.091
					c-7.132,0.48-11.694,6.737-12.143,13.409c2.333,0,4.667,0,7,0c0-0.001,0-0.001,0-0.002c-1.167,1.167-2.333,2.333-3.5,3.5
					c13.331,0.001,26.663,0.038,39.994,0C152.974,206.151,152.976,199.151,148.461,199.164z"/>
			</g>
		</g>
		<g>
			<g>
				<path style="fill:#FFFFFF;" d="M148.461,256.83c-13.331,0.058-26.663,0.001-39.994,0c-1.908,0-3.5,1.592-3.5,3.5
					c0,0.001,0,0.002,0,0.003c0,4.555,6.7,4.46,7,0c0.562-8.354,10.722-6.5,16.497-6.5s15.935-1.854,16.497,6.5
					c0.3,4.46,7,4.555,7,0c0-0.001,0-0.002,0-0.003c0-4.514-7-4.514-7,0c0,0.001,0,0.002,0,0.003c2.333,0,4.667,0,7,0
					c-0.449-6.677-4.528-11.918-11.212-13.283c-3.891-0.796-8.356-0.217-12.285-0.217c-3.774,0-7.586-0.162-11.354,0.091
					c-7.132,0.48-11.694,6.737-12.143,13.409c2.333,0,4.667,0,7,0c0-0.001,0-0.002,0-0.003c-1.167,1.167-2.333,2.333-3.5,3.5
					c13.331,0.001,26.663,0.058,39.994,0C152.974,263.811,152.976,256.811,148.461,256.83z"/>
			</g>
		</g>
	</g>
</g>
<g id="Ebene_1">
</g>
</svg>
