<?xml version="1.0" encoding="iso-8859-1"?>
<!-- Generator: Adobe Illustrator 16.0.0, SVG Export Plug-In . SVG Version: 6.00 Build 0)  -->
<!DOCTYPE svg PUBLIC "-//W3C//DTD SVG 1.1//EN" "http://www.w3.org/Graphics/SVG/1.1/DTD/svg11.dtd">
<svg version="1.1" xmlns="http://www.w3.org/2000/svg" xmlns:xlink="http://www.w3.org/1999/xlink" x="0px" y="0px" width="361px"
	 height="361px" viewBox="0 0 361 361" style="enable-background:new 0 0 361 361;" xml:space="preserve">
<g id="weather_x5F_frost">
	<g>
		<g>
			<g>
				<path style="fill:#FFFFFF;" d="M175.642,93.244c0,29.179,0,58.358,0,87.538c0,6.449,10,6.449,10,0c0-29.179,0-58.358,0-87.538
					C185.643,86.795,175.642,86.795,175.642,93.244L175.642,93.244z"/>
			</g>
		</g>
		<g>
			<g>
				<path style="fill:#FFFFFF;" d="M152.646,106.373c8.507,4.912,17.014,9.823,25.521,14.734c5.595,3.23,10.628-5.413,5.047-8.635
					c-8.507-4.912-17.014-9.823-25.521-14.734C152.098,94.508,147.064,103.151,152.646,106.373L152.646,106.373z"/>
			</g>
		</g>
		<g>
			<g>
				<path style="fill:#FFFFFF;" d="M203.301,97.738c-8.507,4.912-17.014,9.823-25.521,14.734c-5.582,3.222-0.548,11.865,5.047,8.635
					c8.507-4.912,17.014-9.823,25.521-14.734C213.929,103.151,208.896,94.508,203.301,97.738L203.301,97.738z"/>
			</g>
		</g>
	</g>
	<g>
		<g>
			<g>
				<path style="fill:#FFFFFF;" d="M102.005,140.322c25.27,14.59,50.54,29.18,75.81,43.769c5.595,3.23,10.628-5.412,5.047-8.634
					c-25.27-14.59-50.54-29.18-75.81-43.77C101.458,128.457,96.424,137.099,102.005,140.322L102.005,140.322z"/>
			</g>
		</g>
		<g>
			<g>
				<path style="fill:#FFFFFF;" d="M101.947,166.788c8.507-4.911,17.014-9.823,25.521-14.734c5.582-3.222,0.548-11.865-5.047-8.635
					c-8.507,4.911-17.014,9.823-25.521,14.734C91.319,161.375,96.353,170.018,101.947,166.788L101.947,166.788z"/>
			</g>
		</g>
		<g>
			<g>
				<path style="fill:#FFFFFF;" d="M119.752,118.602c0,9.823,0,19.646,0,29.468c0,6.449,10,6.449,10,0c0-9.823,0-19.646,0-29.468
					C129.752,112.153,119.752,112.153,119.752,118.602L119.752,118.602z"/>
			</g>
		</g>
	</g>
	<g>
		<g>
			<g>
				<path style="fill:#FFFFFF;" d="M107.245,227.8c25.271-14.59,50.541-29.18,75.811-43.771c5.581-3.222,0.548-11.865-5.047-8.634
					c-25.271,14.59-50.541,29.18-75.811,43.77C96.616,222.388,101.65,231.03,107.245,227.8L107.245,227.8z"/>
			</g>
		</g>
		<g>
			<g>
				<path style="fill:#FFFFFF;" d="M130.089,241.135c0-9.823,0-19.646,0-29.469c0-6.448-10-6.448-10,0c0,9.823,0,19.646,0,29.469
					C120.089,247.583,130.089,247.583,130.089,241.135L130.089,241.135z"/>
			</g>
		</g>
		<g>
			<g>
				<path style="fill:#FFFFFF;" d="M97.238,201.584c8.507,4.911,17.014,9.823,25.521,14.734c5.595,3.23,10.628-5.412,5.047-8.635
					c-8.507-4.911-17.014-9.823-25.521-14.734C96.69,189.719,91.656,198.361,97.238,201.584L97.238,201.584z"/>
			</g>
		</g>
	</g>
	<g>
		<g>
			<g>
				<path style="fill:#FFFFFF;" d="M185.545,267.566c0-29.18,0-58.359,0-87.539c-0.001-6.449-10-6.449-10,0
					c0,29.179,0,58.359,0,87.539C175.545,274.015,185.545,274.015,185.545,267.566L185.545,267.566z"/>
			</g>
		</g>
		<g>
			<g>
				<path style="fill:#FFFFFF;" d="M208.541,254.437c-8.507-4.911-17.014-9.823-25.521-14.734c-5.595-3.23-10.628,5.412-5.047,8.635
					c8.507,4.911,17.014,9.823,25.521,14.734C209.089,266.302,214.122,257.659,208.541,254.437L208.541,254.437z"/>
			</g>
		</g>
		<g>
			<g>
				<path style="fill:#FFFFFF;" d="M157.886,263.071c8.507-4.911,17.014-9.823,25.521-14.734c5.581-3.223,0.548-11.865-5.047-8.635
					c-8.507,4.911-17.014,9.823-25.52,14.734C147.257,257.659,152.291,266.302,157.886,263.071L157.886,263.071z"/>
			</g>
		</g>
	</g>
	<g>
		<g>
			<g>
				<path style="fill:#FFFFFF;" d="M259.182,219.821c-25.271-14.59-50.541-29.18-75.811-43.769
					c-5.595-3.23-10.629,5.413-5.047,8.634c25.27,14.59,50.541,29.18,75.811,43.77C259.729,231.687,264.763,223.044,259.182,219.821
					L259.182,219.821z"/>
			</g>
		</g>
		<g>
			<g>
				<path style="fill:#FFFFFF;" d="M259.238,193.355c-8.507,4.911-17.014,9.823-25.52,14.734c-5.581,3.223-0.548,11.865,5.047,8.635
					c8.507-4.911,17.014-9.823,25.52-14.734C269.866,198.768,264.833,190.125,259.238,193.355L259.238,193.355z"/>
			</g>
		</g>
		<g>
			<g>
				<path style="fill:#FFFFFF;" d="M241.435,241.541c0-9.822,0.001-19.645,0.001-29.467c0-6.448-10-6.448-10,0
					c0,9.822-0.001,19.645-0.001,29.467C231.435,247.989,241.435,247.989,241.435,241.541L241.435,241.541z"/>
			</g>
		</g>
	</g>
	<g>
		<g>
			<g>
				<path style="fill:#FFFFFF;" d="M253.941,132.344c-25.271,14.59-50.54,29.18-75.81,43.77c-5.582,3.223-0.548,11.865,5.047,8.634
					c25.27-14.589,50.54-29.179,75.81-43.769C264.569,137.756,259.536,129.114,253.941,132.344L253.941,132.344z"/>
			</g>
		</g>
		<g>
			<g>
				<path style="fill:#FFFFFF;" d="M231.098,119.007c0,9.823,0,19.646,0,29.469c0,6.449,10,6.449,10,0c0-9.823,0-19.646,0-29.469
					C241.098,112.559,231.098,112.559,231.098,119.007L231.098,119.007z"/>
			</g>
		</g>
		<g>
			<g>
				<path style="fill:#FFFFFF;" d="M263.948,158.559c-8.507-4.912-17.014-9.823-25.521-14.735c-5.595-3.23-10.628,5.412-5.047,8.635
					c8.507,4.912,17.014,9.823,25.521,14.735C264.496,170.424,269.529,161.782,263.948,158.559L263.948,158.559z"/>
			</g>
		</g>
	</g>
</g>
<g id="Ebene_1">
</g>
</svg>
