<?xml version="1.0" encoding="iso-8859-1"?>
<!-- Generator: Adobe Illustrator 16.0.0, SVG Export Plug-In . SVG Version: 6.00 Build 0)  -->
<!DOCTYPE svg PUBLIC "-//W3C//DTD SVG 1.1//EN" "http://www.w3.org/Graphics/SVG/1.1/DTD/svg11.dtd">
<svg version="1.1" xmlns="http://www.w3.org/2000/svg" xmlns:xlink="http://www.w3.org/1999/xlink" x="0px" y="0px" width="361px"
	 height="361px" viewBox="0 0 361 361" style="enable-background:new 0 0 361 361;" xml:space="preserve">
<g id="weather_x5F_moon_x5F_phases_x5F_1_x5F_new">
	<g style="display:none;">
		<g style="display:inline;">
			<g>
				<path style="fill:#FFFFFF;" d="M146.302,214.39c0.295-36.432,29.756-66.006,66.193-66.413c6.444-0.072,6.451-10.072,0-10
					c-41.875,0.467-75.854,34.53-76.193,76.413C136.25,220.841,146.25,220.835,146.302,214.39L146.302,214.39z"/>
			</g>
		</g>
		<g style="display:inline;">
			<g>
				<path style="fill:#FFFFFF;" d="M212.712,280.279c-36.433-0.295-66.006-29.754-66.412-66.192c-0.072-6.444-10.072-6.451-10,0
					c0.466,41.876,34.529,75.854,76.412,76.192C219.163,290.331,219.157,280.331,212.712,280.279L212.712,280.279z"/>
			</g>
		</g>
		<g style="display:inline;">
			<g>
				<path style="fill:#FFFFFF;" d="M215.235,280.962c-25.076-10.63-42.12-41.234-42.457-67.854
					c-0.058-4.616-7.209-7.302-9.317-2.523c-0.02,0.044-0.039,0.088-0.059,0.133c3.106,0.841,6.211,1.683,9.317,2.523
					c0.321-26.471,19.387-53.71,42.313-66.039c5.681-3.055,0.631-11.688-5.047-8.635c-26.003,13.983-46.904,44.784-47.266,74.673
					c-0.057,4.679,7.241,7.229,9.317,2.523c0.02-0.044,0.039-0.088,0.059-0.133c-3.106-0.841-6.211-1.683-9.317-2.523
					c0.376,29.772,19.221,64.54,47.41,76.489C216.053,292.083,221.155,283.472,215.235,280.962L215.235,280.962z"/>
			</g>
		</g>
	</g>
	<g>
		<path style="fill:#FFFFFF;stroke:#FFFFFF;stroke-miterlimit:10;" d="M131.086,126.638c0,1.519-1.231,2.75-2.75,2.75l0,0
			c-1.519,0-2.75-1.231-2.75-2.75l0,0c0-1.519,1.231-2.75,2.75-2.75l0,0C129.855,123.888,131.086,125.12,131.086,126.638
			L131.086,126.638z"/>
		<path style="fill:#FFFFFF;stroke:#FFFFFF;stroke-miterlimit:10;" d="M76.613,80.292c0,1.596-1.294,2.89-2.89,2.89l0,0
			c-1.596,0-2.89-1.294-2.89-2.89l0,0c0-1.596,1.294-2.89,2.89-2.89l0,0C75.319,77.401,76.613,78.695,76.613,80.292L76.613,80.292z"
			/>
		<path style="fill:#FFFFFF;stroke:#FFFFFF;stroke-miterlimit:10;" d="M116.904,95.982c0,1.125-0.912,2.037-2.037,2.037h-0.679
			c-1.125,0-2.037-0.912-2.037-2.037v-0.679c0-1.126,0.912-2.037,2.037-2.037h0.679c1.125,0,2.037,0.911,2.037,2.037V95.982z"/>
		<path style="fill:#FFFFFF;stroke:#FFFFFF;stroke-miterlimit:10;" d="M177.006,90.638c0,1.519-1.231,2.75-2.75,2.75l0,0
			c-1.519,0-2.75-1.231-2.75-2.75l0,0c0-1.519,1.231-2.75,2.75-2.75l0,0C175.774,87.888,177.006,89.12,177.006,90.638
			L177.006,90.638z"/>
		<path style="fill:#FFFFFF;stroke:#FFFFFF;stroke-miterlimit:10;" d="M171.592,126.638c0,2.319-1.881,4.2-4.2,4.2l0,0
			c-2.319,0-4.2-1.881-4.2-4.2l0,0c0-2.319,1.881-4.2,4.2-4.2l0,0C169.711,122.438,171.592,124.319,171.592,126.638L171.592,126.638
			z"/>
		<g>
			<path style="fill:#FFFFFF;" d="M99.464,81.042c0,0.744-0.603,1.347-1.347,1.347h-0.449c-0.744,0-1.347-0.603-1.347-1.347v-0.449
				c0-0.744,0.603-1.347,1.347-1.347h0.449c0.744,0,1.347,0.603,1.347,1.347V81.042z"/>
			<g>
				<path style="fill:#FFFFFF;" d="M97.964,81.042c0.006-0.093,0.049-0.103,0.1-0.166c-0.201,0.255-0.1,0.053-0.014,0.025
					c0.142-0.045-0.292-0.012-0.382-0.012c0.091,0,0.106,0.052,0.167,0.1c-0.255-0.202-0.053-0.1-0.025-0.014
					c0.045,0.141,0.012-0.292,0.012-0.382c0,0.091-0.052,0.105-0.1,0.166c0.201-0.255,0.1-0.053,0.014-0.025
					c-0.142,0.045,0.292,0.012,0.382,0.012c-0.091,0-0.106-0.052-0.167-0.1c0.255,0.202,0.053,0.1,0.025,0.014
					C97.932,80.519,97.964,80.952,97.964,81.042c0,1.935,3,1.935,3,0c0-0.662-0.082-1.227-0.363-1.839
					c-0.431-0.94-1.521-1.396-2.484-1.457c-1.781-0.111-3.184,1.05-3.296,2.847c-0.11,1.78,1.05,3.184,2.847,3.296
					c1.781,0.111,3.184-1.05,3.296-2.847c0.051-0.817-0.721-1.5-1.5-1.5C98.608,79.542,98.015,80.226,97.964,81.042z"/>
			</g>
		</g>
		<path style="fill:#FFFFFF;stroke:#FFFFFF;stroke-miterlimit:10;" d="M143.649,163.956c0,1.519-1.231,2.75-2.75,2.75l0,0
			c-1.519,0-2.75-1.231-2.75-2.75l0,0c0-1.519,1.231-2.75,2.75-2.75l0,0C142.417,161.206,143.649,162.438,143.649,163.956
			L143.649,163.956z"/>
		<path style="fill:#FFFFFF;stroke:#FFFFFF;stroke-miterlimit:10;" d="M94.583,147.732c0,0.834-0.675,1.51-1.508,1.51l0,0
			c-0.833,0-1.508-0.676-1.508-1.51l0,0c0-0.834,0.675-1.51,1.508-1.51l0,0C93.907,146.222,94.583,146.898,94.583,147.732
			L94.583,147.732z"/>
		<path style="fill:#FFFFFF;stroke:#FFFFFF;stroke-miterlimit:10;" d="M236.728,106.89c0,1.519-1.231,2.75-2.75,2.75l0,0
			c-1.519,0-2.75-1.231-2.75-2.75l0,0c0-1.519,1.231-2.75,2.75-2.75l0,0C235.496,104.14,236.728,105.371,236.728,106.89
			L236.728,106.89z"/>
		<path style="fill:#FFFFFF;stroke:#FFFFFF;stroke-miterlimit:10;" d="M103.143,237.508c0,2.898-2.351,5.25-5.25,5.25l0,0
			c-2.899,0-5.25-2.352-5.25-5.25l0,0c0-2.9,2.351-5.25,5.25-5.25l0,0C100.792,232.258,103.143,234.607,103.143,237.508
			L103.143,237.508z"/>
		<path style="fill:#FFFFFF;stroke:#FFFFFF;stroke-miterlimit:10;" d="M113.66,266.795c0,0.834-0.675,1.51-1.508,1.51l0,0
			c-0.833,0-1.508-0.676-1.508-1.51l0,0c0-0.834,0.675-1.511,1.508-1.511l0,0C112.984,265.284,113.66,265.961,113.66,266.795
			L113.66,266.795z"/>
		<path style="fill:#FFFFFF;stroke:#FFFFFF;stroke-miterlimit:10;" d="M273.941,91.315c0,2.246-1.885,4.067-4.209,4.067h-1.402
			c-2.324,0-4.209-1.821-4.209-4.067V89.96c0-2.246,1.885-4.067,4.209-4.067h1.402c2.324,0,4.209,1.821,4.209,4.067V91.315z"/>
	</g>
	<g>
		<g>
			<path style="fill:#FFFFFF;" d="M281.918,245.595c-10.364,21.323-29.583,36.451-52.749,41.503
				c-23.599,5.145-48.62-2.305-66.35-18.44c-17.154-15.611-25.641-38.942-23.842-61.891c1.889-24.108,16.327-45.954,36.924-58.23
				c28.281-16.857,64.984-12.275,89.118,9.688C289.139,180.173,295.512,216.295,281.918,245.595
				c-0.809,1.742,1.776,3.268,2.59,1.514c18.846-40.616,0.09-88.762-41.129-106.111c-41.593-17.506-89.606,6.206-103.821,48.182
				c-13.11,38.715,7.862,81.115,44.902,96.705c37.872,15.94,82.339-2.339,100.048-38.775
				C285.35,245.377,282.764,243.854,281.918,245.595z"/>
		</g>
	</g>
	<g style="display:none;">
		<g style="display:inline;">
			<path style="fill:#FFFFFF;" d="M274.063,242.066c-9.976,20.485-29.303,34.942-52.083,37.703
				c-22.826,2.766-46.186-7.068-60.217-25.273c-13.869-17.994-17.167-41.822-9.727-63.114c7.588-21.718,26.914-37.331,49.093-42.131
				c24.216-5.241,50.372,4.915,65.403,24.417C281.521,193.114,284.355,219.842,274.063,242.066
				c-2.69,5.811,5.927,10.894,8.635,5.047c9.654-20.849,9.813-43.888,0.545-64.893c-9.196-20.842-28.504-36.143-50.325-41.913
				c-21.536-5.694-45.126-0.894-63.166,11.964c-18.768,13.376-30.083,34.841-31.615,57.701
				c-2.413,35.996,22.854,68.791,57.241,77.883c34.66,9.164,71.773-8.815,87.32-40.742
				C285.509,241.341,276.887,236.269,274.063,242.066z"/>
		</g>
	</g>
	<g style="display:none;">
		<g style="display:inline;">
			<g>
				<path style="fill:#FFFFFF;" d="M290.558,214.39c-0.34-41.882-34.318-75.945-76.193-76.413c-6.451-0.072-6.444,9.928,0,10
					c36.438,0.407,65.897,29.981,66.193,66.413C280.61,220.835,290.61,220.841,290.558,214.39L290.558,214.39z"/>
			</g>
		</g>
		<g style="display:inline;">
			<g>
				<path style="fill:#FFFFFF;" d="M214.147,290.279c41.882-0.339,75.945-34.316,76.411-76.192c0.071-6.451-9.929-6.444-10,0
					c-0.405,36.438-29.979,65.897-66.411,66.192C207.702,280.331,207.696,290.331,214.147,290.279L214.147,290.279z"/>
			</g>
		</g>
		<g style="display:inline;">
			<g>
				<path style="fill:#FFFFFF;" d="M211.826,147.202c22.926,12.329,41.992,39.568,42.313,66.039
					c3.105-0.841,6.212-1.683,9.317-2.523c-0.02-0.045-0.039-0.089-0.059-0.133c-2.107-4.777-9.259-2.093-9.317,2.523
					c-0.336,26.62-17.38,57.225-42.456,67.854c-5.92,2.51-0.817,11.121,5.047,8.635c28.188-11.949,47.033-46.717,47.409-76.489
					c-3.105,0.841-6.212,1.683-9.317,2.523c0.02,0.045,0.039,0.089,0.059,0.133c2.076,4.706,9.374,2.155,9.317-2.523
					c-0.362-29.89-21.263-60.69-47.266-74.673C211.195,135.513,206.146,144.147,211.826,147.202L211.826,147.202z"/>
			</g>
		</g>
	</g>
	<g style="display:none;">
		<g style="display:inline;">
			<g>
				<path style="fill:#FFFFFF;" d="M214.363,290.541c41.884-0.339,75.944-34.317,76.412-76.193c0.072-6.451-9.928-6.444-10,0
					c-0.406,36.438-29.979,65.898-66.412,66.193C207.918,280.593,207.912,290.593,214.363,290.541L214.363,290.541z"/>
			</g>
		</g>
		<g style="display:inline;">
			<g>
				<g>
					<path style="fill:#FFFFFF;" d="M290.773,214.65c-0.339-41.882-34.318-75.945-76.193-76.412c-6.451-0.072-6.444,9.928,0,10
						c36.438,0.407,65.898,29.98,66.193,66.412C280.825,221.096,290.825,221.102,290.773,214.65L290.773,214.65z"/>
				</g>
			</g>
			<g>
				<g>
					<path style="fill:#FFFFFF;" d="M209.58,143.238c0,46.852,0,93.703,0,140.556c0,0.582,0,1.165,0,1.747c0,6.448,10,6.448,10,0
						c0-46.852,0-93.703,0-140.555c0-0.583,0-1.165,0-1.748C219.58,136.79,209.58,136.79,209.58,143.238L209.58,143.238z"/>
				</g>
			</g>
		</g>
	</g>
	<g style="display:none;">
		<g style="display:inline;">
			<g>
				<path style="fill:#FFFFFF;" d="M214.147,280.233c-36.433-0.295-66.006-29.754-66.412-66.192c-0.072-6.444-10.072-6.451-10,0
					c0.466,41.876,34.529,75.854,76.412,76.192C220.599,290.285,220.593,280.285,214.147,280.233L214.147,280.233z"/>
			</g>
		</g>
		<g style="display:inline;">
			<g>
				<g>
					<path style="fill:#FFFFFF;" d="M147.737,214.344c0.295-36.432,29.755-66.006,66.193-66.413c6.444-0.072,6.451-10.072,0-10
						c-41.875,0.467-75.854,34.531-76.193,76.413C137.685,220.795,147.685,220.789,147.737,214.344L147.737,214.344z"/>
				</g>
			</g>
			<g>
				<g>
					<path style="fill:#FFFFFF;" d="M208.931,142.931c0,46.852,0,93.703,0,140.556c0,0.582,0,1.165,0,1.747c0,6.448,10,6.448,10,0
						c0-46.852,0-93.703,0-140.555c0-0.583,0-1.165,0-1.748C218.931,136.482,208.931,136.482,208.931,142.931L208.931,142.931z"/>
				</g>
			</g>
		</g>
	</g>
</g>
<g id="Ebene_1">
</g>
</svg>
