<?xml version="1.0" encoding="iso-8859-1"?>
<!-- Generator: Adobe Illustrator 16.0.0, SVG Export Plug-In . SVG Version: 6.00 Build 0)  -->
<!DOCTYPE svg PUBLIC "-//W3C//DTD SVG 1.1 Tiny//EN" "http://www.w3.org/Graphics/SVG/1.1/DTD/svg11-tiny.dtd">
<svg version="1.1" baseProfile="tiny" id="weather_x5F_moon_x5F_phases_x5F_7_x5F_half"
	 xmlns="http://www.w3.org/2000/svg" xmlns:xlink="http://www.w3.org/1999/xlink" x="0px" y="0px" width="361px" height="361px"
	 viewBox="0 0 361 361" xml:space="preserve">
<g display="none">
	<g display="inline">
		<path fill="#FFFFFF" d="M143.784,217.268c0.295-36.432,29.756-66.006,66.193-66.413c6.444-0.072,6.451-10.072,0-10
			c-41.875,0.467-75.854,34.53-76.193,76.413C133.731,223.718,143.731,223.713,143.784,217.268L143.784,217.268z"/>
	</g>
	<g display="inline">
		<path fill="#FFFFFF" d="M210.194,283.158c-36.433-0.295-66.006-29.754-66.412-66.193c-0.072-6.444-10.072-6.451-10,0
			c0.466,41.876,34.529,75.854,76.412,76.193C216.645,293.21,216.64,283.21,210.194,283.158L210.194,283.158z"/>
	</g>
	<g display="inline">
		<path fill="#FFFFFF" d="M212.717,283.84c-25.076-10.631-42.12-41.234-42.457-67.855c-0.058-4.616-7.209-7.301-9.317-2.523
			c-0.02,0.044-0.039,0.088-0.059,0.133c3.106,0.841,6.211,1.682,9.317,2.523c0.321-26.471,19.387-53.71,42.313-66.039
			c5.681-3.055,0.631-11.688-5.047-8.635c-26.003,13.983-46.905,44.783-47.267,74.673c-0.057,4.679,7.241,7.229,9.317,2.523
			c0.02-0.044,0.039-0.088,0.059-0.133c-3.106-0.841-6.211-1.682-9.317-2.523c0.376,29.773,19.222,64.54,47.41,76.49
			C213.535,294.961,218.637,286.35,212.717,283.84L212.717,283.84z"/>
	</g>
</g>
<g>
	<path fill="#FFFFFF" stroke="#FFFFFF" stroke-miterlimit="10" d="M128.568,129.516c0,1.519-1.231,2.75-2.75,2.75l0,0
		c-1.519,0-2.75-1.231-2.75-2.75l0,0c0-1.519,1.231-2.75,2.75-2.75l0,0C127.337,126.766,128.568,127.998,128.568,129.516
		L128.568,129.516z"/>
	<path fill="#FFFFFF" stroke="#FFFFFF" stroke-miterlimit="10" d="M74.095,83.169c0,1.596-1.294,2.89-2.89,2.89l0,0
		c-1.596,0-2.89-1.294-2.89-2.89l0,0c0-1.596,1.294-2.89,2.89-2.89l0,0C72.801,80.279,74.095,81.573,74.095,83.169L74.095,83.169z"
		/>
	<path fill="#FFFFFF" stroke="#FFFFFF" stroke-miterlimit="10" d="M114.386,98.86c0,1.125-0.912,2.037-2.037,2.037h-0.679
		c-1.125,0-2.037-0.912-2.037-2.037v-0.679c0-1.126,0.912-2.037,2.037-2.037h0.679c1.125,0,2.037,0.911,2.037,2.037V98.86z"/>
	<path fill="#FFFFFF" stroke="#FFFFFF" stroke-miterlimit="10" d="M174.488,93.516c0,1.519-1.231,2.75-2.75,2.75l0,0
		c-1.519,0-2.75-1.231-2.75-2.75l0,0c0-1.519,1.231-2.75,2.75-2.75l0,0C173.256,90.766,174.488,91.998,174.488,93.516
		L174.488,93.516z"/>
	<path fill="#FFFFFF" stroke="#FFFFFF" stroke-miterlimit="10" d="M169.074,129.516c0,2.319-1.881,4.2-4.2,4.2l0,0
		c-2.319,0-4.2-1.881-4.2-4.2l0,0c0-2.319,1.881-4.2,4.2-4.2l0,0C167.193,125.316,169.074,127.197,169.074,129.516L169.074,129.516z
		"/>
	<g>
		<path fill="#FFFFFF" d="M96.946,83.919c0,0.744-0.603,1.347-1.347,1.347H95.15c-0.744,0-1.347-0.603-1.347-1.347v-0.449
			c0-0.744,0.603-1.347,1.347-1.347H95.6c0.744,0,1.347,0.603,1.347,1.347V83.919z"/>
		<g>
			<path fill="#FFFFFF" d="M95.446,83.919c0.006-0.093,0.049-0.103,0.1-0.166c-0.201,0.255-0.1,0.053-0.014,0.025
				c0.142-0.045-0.292-0.012-0.382-0.012c0.091,0,0.106,0.052,0.167,0.1c-0.255-0.202-0.053-0.1-0.025-0.014
				c0.045,0.141,0.012-0.292,0.012-0.382c0,0.091-0.052,0.105-0.1,0.166c0.201-0.255,0.1-0.053,0.014-0.025
				c-0.142,0.045,0.292,0.012,0.382,0.012c-0.091,0-0.106-0.052-0.167-0.1c0.255,0.202,0.053,0.1,0.025,0.014
				C95.414,83.396,95.446,83.83,95.446,83.919c0,1.935,3,1.935,3,0c0-0.662-0.082-1.227-0.363-1.839
				c-0.431-0.94-1.521-1.396-2.484-1.457c-1.781-0.111-3.184,1.05-3.296,2.847c-0.11,1.78,1.05,3.184,2.847,3.296
				c1.781,0.111,3.184-1.05,3.296-2.847c0.051-0.817-0.721-1.5-1.5-1.5C96.09,82.419,95.497,83.104,95.446,83.919z"/>
		</g>
	</g>
	<path fill="#FFFFFF" stroke="#FFFFFF" stroke-miterlimit="10" d="M141.131,166.834c0,1.519-1.231,2.75-2.75,2.75l0,0
		c-1.519,0-2.75-1.231-2.75-2.75l0,0c0-1.519,1.231-2.75,2.75-2.75l0,0C139.899,164.084,141.131,165.315,141.131,166.834
		L141.131,166.834z"/>
	<path fill="#FFFFFF" stroke="#FFFFFF" stroke-miterlimit="10" d="M92.064,150.61c0,0.834-0.675,1.51-1.508,1.51l0,0
		c-0.833,0-1.508-0.676-1.508-1.51l0,0c0-0.834,0.675-1.51,1.508-1.51l0,0C91.389,149.1,92.064,149.776,92.064,150.61L92.064,150.61
		z"/>
	<path fill="#FFFFFF" stroke="#FFFFFF" stroke-miterlimit="10" d="M234.209,109.768c0,1.519-1.231,2.75-2.75,2.75l0,0
		c-1.519,0-2.75-1.231-2.75-2.75l0,0c0-1.519,1.231-2.75,2.75-2.75l0,0C232.978,107.018,234.209,108.249,234.209,109.768
		L234.209,109.768z"/>
	<path fill="#FFFFFF" stroke="#FFFFFF" stroke-miterlimit="10" d="M100.625,240.385c0,2.899-2.351,5.25-5.25,5.25l0,0
		c-2.899,0-5.25-2.351-5.25-5.25l0,0c0-2.899,2.351-5.25,5.25-5.25l0,0C98.274,235.135,100.625,237.486,100.625,240.385
		L100.625,240.385z"/>
	<path fill="#FFFFFF" stroke="#FFFFFF" stroke-miterlimit="10" d="M111.142,269.672c0,0.834-0.675,1.51-1.508,1.51l0,0
		c-0.833,0-1.508-0.676-1.508-1.51l0,0c0-0.834,0.675-1.51,1.508-1.51l0,0C110.466,268.162,111.142,268.838,111.142,269.672
		L111.142,269.672z"/>
	<path fill="#FFFFFF" stroke="#FFFFFF" stroke-miterlimit="10" d="M271.423,94.193c0,2.246-1.884,4.067-4.208,4.067h-1.402
		c-2.324,0-4.208-1.821-4.208-4.067v-1.355c0-2.246,1.884-4.067,4.208-4.067h1.402c2.324,0,4.208,1.821,4.208,4.067V94.193z"/>
</g>
<g>
	<path fill="#FFFFFF" d="M279.399,248.473c-10.364,21.323-29.583,36.452-52.749,41.503c-23.599,5.145-48.62-2.305-66.35-18.44
		c-17.154-15.611-25.641-38.942-23.842-61.891c1.889-24.108,16.327-45.954,36.924-58.23c28.282-16.857,64.984-12.275,89.118,9.688
		C286.621,183.051,292.994,219.173,279.399,248.473c-0.809,1.743,1.777,3.268,2.591,1.514
		c18.845-40.616,0.089-88.762-41.129-106.111c-41.593-17.507-89.607,6.206-103.821,48.182c-13.11,38.715,7.862,81.114,44.902,96.705
		c37.873,15.941,82.338-2.339,100.048-38.775C282.832,248.254,280.245,246.732,279.399,248.473z"/>
</g>
<g display="none">
	<path display="inline" fill="#FFFFFF" d="M271.546,244.944c-9.976,20.486-29.303,34.943-52.083,37.703
		c-22.826,2.766-46.186-7.069-60.217-25.273c-13.869-17.994-17.166-41.822-9.727-63.114c7.588-21.718,26.914-37.332,49.093-42.131
		c24.215-5.241,50.372,4.915,65.403,24.417C279.003,195.992,281.837,222.719,271.546,244.944c-2.691,5.811,5.927,10.894,8.635,5.047
		c9.654-20.849,9.813-43.888,0.545-64.893c-9.197-20.842-28.504-36.143-50.326-41.913c-21.535-5.694-45.126-0.894-63.165,11.964
		c-18.768,13.377-30.083,34.842-31.615,57.701c-2.413,35.996,22.854,68.791,57.241,77.883c34.66,9.164,71.773-8.816,87.32-40.743
		C282.992,244.219,274.369,239.147,271.546,244.944z"/>
</g>
<g display="none">
	<g display="inline">
		<path fill="#FFFFFF" d="M288.04,217.268c-0.339-41.882-34.318-75.945-76.193-76.413c-6.451-0.072-6.444,9.928,0,10
			c36.438,0.407,65.898,29.98,66.193,66.413C278.092,223.713,288.092,223.718,288.04,217.268L288.04,217.268z"/>
	</g>
	<g display="inline">
		<path fill="#FFFFFF" d="M211.629,293.158c41.883-0.339,75.945-34.317,76.412-76.193c0.072-6.451-9.928-6.444-10,0
			c-0.406,36.438-29.979,65.898-66.412,66.193C205.184,283.21,205.179,293.21,211.629,293.158L211.629,293.158z"/>
	</g>
	<g display="inline">
		<path fill="#FFFFFF" d="M209.308,150.08c22.926,12.328,41.993,39.567,42.313,66.039c3.106-0.841,6.211-1.683,9.317-2.523
			c-0.02-0.044-0.039-0.089-0.059-0.133c-2.108-4.778-9.259-2.093-9.317,2.523c-0.336,26.621-17.381,57.224-42.457,67.855
			c-5.92,2.51-0.818,11.121,5.047,8.635c28.188-11.95,47.034-46.717,47.41-76.49c-3.106,0.841-6.211,1.683-9.317,2.523
			c0.02,0.044,0.039,0.089,0.059,0.133c2.076,4.706,9.374,2.156,9.317-2.523c-0.362-29.89-21.263-60.69-47.267-74.673
			C208.676,138.392,203.626,147.025,209.308,150.08L209.308,150.08z"/>
	</g>
</g>
<g display="none">
	<g display="inline">
		<path fill="#FFFFFF" d="M211.845,293.419c41.883-0.339,75.945-34.317,76.412-76.193c0.072-6.451-9.928-6.444-10,0
			c-0.406,36.438-29.979,65.898-66.412,66.193C205.399,283.471,205.395,293.471,211.845,293.419L211.845,293.419z"/>
	</g>
	<g display="inline">
		<g>
			<path fill="#FFFFFF" d="M288.255,217.529c-0.339-41.882-34.318-75.945-76.193-76.413c-6.451-0.072-6.444,9.928,0,10
				c36.438,0.407,65.898,29.98,66.193,66.413C278.308,223.975,288.308,223.979,288.255,217.529L288.255,217.529z"/>
		</g>
		<g>
			<path fill="#FFFFFF" d="M210.733,141.295c-6.801,2.285-12.82,7.377-17.521,12.624c-12.643,14.112-17.464,33.236-18.832,51.696
				c-2.22,29.969,4.966,70.527,34.072,86.571c0.354,0.195,0.715,0.386,1.086,0.55c5.84,2.586,10.933-6.028,5.047-8.635
				c-6.052-2.681-10.426-7.376-14.714-12.765c-11.929-14.991-15.45-35.462-15.797-54.067c-0.348-18.671,2.721-39.503,14.737-54.541
				c3.074-3.846,6.505-7.036,10.324-9.498c1.192-0.769,2.438-1.458,3.719-2.07c1.389-0.665-0.994,0.291,0.537-0.224
				C219.471,148.895,216.863,139.235,210.733,141.295L210.733,141.295z"/>
		</g>
	</g>
</g>
<g>
	<g>
		<path fill="#FFFFFF" d="M211.629,283.111c-36.433-0.295-66.006-29.754-66.412-66.193c-0.072-6.444-10.072-6.451-10,0
			c0.466,41.876,34.529,75.854,76.412,76.193C218.08,293.164,218.075,283.164,211.629,283.111L211.629,283.111z"/>
	</g>
	<g>
		<g>
			<path fill="#FFFFFF" d="M145.219,217.221c0.295-36.432,29.756-66.006,66.193-66.413c6.444-0.072,6.451-10.072,0-10
				c-41.875,0.467-75.854,34.53-76.193,76.413C135.167,223.672,145.167,223.667,145.219,217.221L145.219,217.221z"/>
		</g>
		<g>
			<path fill="#FFFFFF" d="M206.413,145.809c0,46.852,0,93.704,0,140.555c0,0.583,0,1.165,0,1.748c0,6.449,10,6.449,10,0
				c0-46.852,0-93.704,0-140.555c0-0.583,0-1.165,0-1.748C216.413,139.36,206.413,139.36,206.413,145.809L206.413,145.809z"/>
		</g>
	</g>
</g>
<g display="none">
	<g display="inline">
		<path fill="#FFFFFF" d="M209.792,282.47c-36.433-0.295-66.006-29.754-66.412-66.193c-0.072-6.444-10.072-6.451-10,0
			c0.466,41.876,34.529,75.854,76.412,76.193C216.243,292.522,216.238,282.522,209.792,282.47L209.792,282.47z"/>
	</g>
	<g display="inline">
		<g>
			<path fill="#FFFFFF" d="M143.382,216.58c0.295-36.432,29.756-66.006,66.193-66.413c6.444-0.072,6.451-10.072,0-10
				c-41.875,0.467-75.854,34.53-76.193,76.413C133.33,223.03,143.33,223.025,143.382,216.58L143.382,216.58z"/>
		</g>
		<g>
			<path fill="#FFFFFF" d="M208.247,149.988c1.453,0.488-0.633-0.312,0.31,0.117c1.236,0.563,2.419,1.234,3.576,1.943
				c3.874,2.376,7.061,5.423,10.203,9.134c12.258,14.479,15.172,35.14,15.241,53.413c0.073,19.46-3.901,39.597-15.613,55.525
				c-4.076,5.543-8.889,10.365-14.91,13.032c-5.886,2.607-0.793,11.221,5.047,8.635c6.599-2.923,12.335-8.796,16.738-14.329
				c12.309-15.469,17.232-35.079,18.49-54.496c1.374-21.207-1.499-44.374-13.239-62.568c-5.073-7.862-12.353-15.412-21.079-19.188
				c-0.683-0.295-1.391-0.622-2.104-0.861C204.774,138.286,202.167,147.946,208.247,149.988L208.247,149.988z"/>
		</g>
	</g>
</g>
</svg>
