<?xml version="1.0" encoding="iso-8859-1"?>
<!-- Generator: Adobe Illustrator 16.0.0, SVG Export Plug-In . SVG Version: 6.00 Build 0)  -->
<!DOCTYPE svg PUBLIC "-//W3C//DTD SVG 1.1 Tiny//EN" "http://www.w3.org/Graphics/SVG/1.1/DTD/svg11-tiny.dtd">
<svg version="1.1" baseProfile="tiny" id="weather_x5F_rain_x5F_meter"
	 xmlns="http://www.w3.org/2000/svg" xmlns:xlink="http://www.w3.org/1999/xlink" x="0px" y="0px" width="361px" height="361px"
	 viewBox="0 0 361 361" xml:space="preserve">
<path fill="#FFFFFF" stroke="#FFFFFF" stroke-width="13.0628" stroke-miterlimit="10" d="M162.686,143.951
	c0,4.329-3.148,7.838-7.033,7.838h-54.512c-3.885,0-7.035-3.51-7.035-7.838V87.128c0-4.329,3.15-7.838,7.035-7.838h54.512
	c3.884,0,7.033,3.509,7.033,7.838V143.951z"/>
<path fill="#FFFFFF" stroke="#FFFFFF" stroke-width="13.0628" stroke-miterlimit="10" d="M75.49,124.356
	c0,4.329,3.509,7.838,7.838,7.838h36.576c4.328,0,7.837-3.509,7.837-7.838V102.15c0-4.329-3.51-7.838-7.837-7.838H83.328
	c-4.329,0-7.838,3.509-7.838,7.838V124.356z"/>
<path fill="#FFFFFF" stroke="#FFFFFF" stroke-width="13.0628" stroke-miterlimit="10" d="M73.815,124.356
	c0-4.328,3.509-7.837,7.838-7.837h45.067c4.328,0,7.837,3.509,7.837,7.837v12.41c0,4.329-3.51,7.838-7.837,7.838H81.653
	c-4.329,0-7.838-3.509-7.838-7.838V124.356z"/>
<g>
	<path fill="#FFFFFF" d="M140.274,173.833c-5.5,9.526-11,19.052-16.5,28.579c-3.23,5.595,5.412,10.628,8.635,5.047
		c5.5-9.526,11-19.052,16.5-28.579C152.139,173.285,143.497,168.251,140.274,173.833L140.274,173.833z"/>
</g>
<g>
	<path fill="#FFFFFF" d="M136.784,149.878c-5.5,9.526-11,19.052-16.5,28.579c-3.23,5.595,5.412,10.628,8.635,5.047
		c5.5-9.526,11-19.052,16.5-28.579C148.649,149.33,140.006,144.296,136.784,149.878L136.784,149.878z"/>
</g>
<g>
	<path fill="#FFFFFF" d="M110.784,194.911c-5.5,9.526-11,19.053-16.5,28.579c-3.23,5.595,5.412,10.628,8.635,5.047
		c5.5-9.526,11-19.053,16.5-28.579C122.649,194.363,114.006,189.33,110.784,194.911L110.784,194.911z"/>
</g>
<g>
	<path fill="#FFFFFF" d="M114.293,158.833c-5.5,9.526-11,19.053-16.5,28.579c-3.23,5.595,5.413,10.628,8.635,5.047
		c5.5-9.526,11-19.053,16.5-28.579C126.158,158.284,117.515,153.251,114.293,158.833L114.293,158.833z"/>
</g>
<g>
	<path fill="#FFFFFF" d="M110.803,134.878c-5.5,9.526-11,19.053-16.5,28.579c-3.23,5.595,5.412,10.628,8.635,5.047
		c5.5-9.526,11-19.053,16.5-28.579C122.668,134.33,114.025,129.296,110.803,134.878L110.803,134.878z"/>
</g>
<g>
	<path fill="#FFFFFF" d="M84.803,179.911c-5.5,9.526-11,19.053-16.5,28.579c-3.23,5.595,5.413,10.628,8.635,5.047
		c5.5-9.526,11-19.053,16.5-28.579C96.668,179.363,88.025,174.33,84.803,179.911L84.803,179.911z"/>
</g>
<g>
	<path fill="#FFFFFF" d="M88.793,203c-5.5,9.526-11,19.052-16.5,28.579c-3.23,5.595,5.412,10.628,8.635,5.047
		c5.5-9.526,11-19.052,16.5-28.579C100.659,202.452,92.016,197.418,88.793,203L88.793,203z"/>
</g>
<g>
	<path fill="#FFFFFF" d="M115.793,217c-5.5,9.526-11,19.052-16.5,28.579c-3.23,5.595,5.412,10.628,8.635,5.047
		c5.5-9.526,11-19.052,16.5-28.579C127.659,216.452,119.016,211.418,115.793,217L115.793,217z"/>
</g>
<g>
	<path fill="#FFFFFF" d="M192.784,150.878c-5.5,9.526-11,19.052-16.5,28.579c-3.23,5.595,5.412,10.628,8.635,5.047
		c5.5-9.526,11-19.052,16.5-28.579C204.649,150.33,196.006,145.296,192.784,150.878L192.784,150.878z"/>
</g>
<g>
	<path fill="#FFFFFF" d="M166.784,195.911c-5.5,9.526-11,19.053-16.5,28.579c-3.23,5.595,5.412,10.628,8.635,5.047
		c5.5-9.526,11-19.053,16.5-28.579C178.649,195.363,170.006,190.33,166.784,195.911L166.784,195.911z"/>
</g>
<g>
	<path fill="#FFFFFF" d="M170.293,159.833c-5.5,9.526-11,19.053-16.5,28.579c-3.23,5.595,5.413,10.628,8.635,5.047
		c5.5-9.526,11-19.053,16.5-28.579C182.158,159.284,173.515,154.251,170.293,159.833L170.293,159.833z"/>
</g>
<g>
	<path fill="#FFFFFF" d="M144.793,204c-5.5,9.526-11,19.052-16.5,28.579c-3.23,5.595,5.412,10.628,8.635,5.047
		c5.5-9.526,11-19.052,16.5-28.579C156.659,203.452,148.016,198.418,144.793,204L144.793,204z"/>
</g>
<path fill="#FFFFFF" stroke="#FFFFFF" stroke-width="13.0628" stroke-miterlimit="10" d="M205.156,151.79
	c0,4.328-3.149,7.837-7.033,7.837H143.61c-3.885,0-7.034-3.509-7.034-7.837V94.966c0-4.329,3.149-7.838,7.034-7.838h54.513
	c3.884,0,7.033,3.509,7.033,7.838V151.79z"/>
<path fill="#FFFFFF" stroke="#FFFFFF" stroke-width="13.0628" stroke-miterlimit="10" d="M169.263,145.257
	c0,4.329,3.51,7.838,7.837,7.838h36.576c4.329,0,7.838-3.509,7.838-7.838V123.05c0-4.328-3.509-7.837-7.838-7.837H177.1
	c-4.328,0-7.837,3.51-7.837,7.837V145.257z"/>
<path fill="#FFFFFF" stroke="#FFFFFF" stroke-width="13.0628" stroke-miterlimit="10" d="M168.13,160.934
	c0,4.328-3.149,7.837-7.033,7.837H95.584c-3.884,0-7.034-3.509-7.034-7.837v-56.824c0-4.329,3.149-7.838,7.034-7.838h65.513
	c3.884,0,7.033,3.509,7.033,7.838V160.934z"/>
<g>
	<g>
		<path fill="#FFFFFF" d="M282.565,283.204c-0.434,5.377-6.033,4.5-9.862,4.5c-3.448,0-8.888,0.559-8.888-4.527
			c0-1.523,0-3.046,0-4.569c0-9.444,0-18.888,0-28.332c0-31.346,0-62.691,0-94.037c0-22.94,0-45.88,0-68.821
			c0-3.284-0.028-6.955,4.5-7.32c4.226-0.341,14.25-1.545,14.25,4.738c0,6.055,0,12.111,0,18.166c0,56.493,0,112.985,0,169.477
			C282.565,276.055,282.565,279.629,282.565,283.204c0,4.514,7,4.514,7,0c0-49.432,0-98.863,0-148.295c0-12.17,0-24.34,0-36.511
			c0-4.968,0.98-11.113-0.229-16.026c-2.395-9.723-11.283-9.272-19.31-9.272c-6.946,0-13.21,4.066-13.21,11.666
			c0,5.877,0,11.755,0,17.632c0,56.531,0,113.063,0,169.594c0,4.175-0.788,9.307,0.229,13.44c2.092,8.493,9.272,9.272,16.632,9.272
			c2.909,0,5.944,0.272,8.684-0.886c4.533-1.916,6.819-5.836,7.205-10.614C289.928,278.701,282.925,278.736,282.565,283.204z"/>
	</g>
	<g>
		<g>
			<path fill="#FFFFFF" d="M260.315,107.432c7.163,0,14.325,0,21.487,0c1.935,0,1.935-3,0-3c-7.163,0-14.325,0-21.487,0
				C258.38,104.432,258.38,107.432,260.315,107.432L260.315,107.432z"/>
		</g>
		<g>
			<path fill="#FFFFFF" d="M260.315,98.119c3.988,0,7.976,0,11.964,0c1.935,0,1.935-3,0-3c-3.988,0-7.976,0-11.964,0
				C258.38,95.119,258.38,98.119,260.315,98.119L260.315,98.119z"/>
		</g>
		<g>
			<path fill="#FFFFFF" d="M260.315,88.807c3.988,0,7.976,0,11.964,0c1.935,0,1.935-3,0-3c-3.988,0-7.976,0-11.964,0
				C258.38,85.807,258.38,88.807,260.315,88.807L260.315,88.807z"/>
		</g>
		<g>
			<g>
				<path fill="#FFFFFF" d="M259.535,153.816c7.163,0,14.325,0,21.487,0c1.935,0,1.935-3,0-3c-7.163,0-14.325,0-21.487,0
					C257.601,150.816,257.601,153.816,259.535,153.816L259.535,153.816z"/>
			</g>
			<g>
				<path fill="#FFFFFF" d="M259.535,144.503c3.988,0,7.976,0,11.964,0c1.935,0,1.935-3,0-3c-3.988,0-7.976,0-11.964,0
					C257.601,141.503,257.601,144.503,259.535,144.503L259.535,144.503z"/>
			</g>
			<g>
				<path fill="#FFFFFF" d="M259.535,135.191c3.988,0,7.976,0,11.964,0c1.935,0,1.935-3,0-3c-3.988,0-7.976,0-11.964,0
					C257.601,132.191,257.601,135.191,259.535,135.191L259.535,135.191z"/>
			</g>
			<g>
				<path fill="#FFFFFF" d="M259.535,125.878c3.988,0,7.976,0,11.964,0c1.935,0,1.935-3,0-3c-3.988,0-7.976,0-11.964,0
					C257.601,122.878,257.601,125.878,259.535,125.878L259.535,125.878z"/>
			</g>
			<g>
				<path fill="#FFFFFF" d="M259.535,116.566c3.988,0,7.976,0,11.964,0c1.935,0,1.935-3,0-3c-3.988,0-7.976,0-11.964,0
					C257.601,113.566,257.601,116.566,259.535,116.566L259.535,116.566z"/>
			</g>
		</g>
		<g>
			<g>
				<path fill="#FFFFFF" d="M260.145,199.73c7.163,0,14.325,0,21.487,0c1.935,0,1.935-3,0-3c-7.163,0-14.325,0-21.487,0
					C258.21,196.73,258.21,199.73,260.145,199.73L260.145,199.73z"/>
			</g>
			<g>
				<path fill="#FFFFFF" d="M260.145,190.417c3.988,0,7.976,0,11.964,0c1.935,0,1.935-3,0-3c-3.988,0-7.976,0-11.964,0
					C258.21,187.417,258.21,190.417,260.145,190.417L260.145,190.417z"/>
			</g>
			<g>
				<path fill="#FFFFFF" d="M260.145,181.105c3.988,0,7.976,0,11.964,0c1.935,0,1.935-3,0-3c-3.988,0-7.976,0-11.964,0
					C258.21,178.105,258.21,181.105,260.145,181.105L260.145,181.105z"/>
			</g>
			<g>
				<path fill="#FFFFFF" d="M260.145,171.792c3.988,0,7.976,0,11.964,0c1.935,0,1.935-3,0-3c-3.988,0-7.976,0-11.964,0
					C258.21,168.792,258.21,171.792,260.145,171.792L260.145,171.792z"/>
			</g>
			<g>
				<path fill="#FFFFFF" d="M260.145,162.48c3.988,0,7.976,0,11.964,0c1.935,0,1.935-3,0-3c-3.988,0-7.976,0-11.964,0
					C258.21,159.48,258.21,162.48,260.145,162.48L260.145,162.48z"/>
			</g>
		</g>
		<g>
			<g>
				<path fill="#FFFFFF" d="M259.365,246.114c7.163,0,14.325,0,21.487,0c1.935,0,1.935-3,0-3c-7.163,0-14.325,0-21.487,0
					C257.431,243.114,257.431,246.114,259.365,246.114L259.365,246.114z"/>
			</g>
			<g>
				<path fill="#FFFFFF" d="M259.365,236.802c3.988,0,7.976,0,11.964,0c1.935,0,1.935-3,0-3c-3.988,0-7.976,0-11.964,0
					C257.431,233.802,257.431,236.802,259.365,236.802L259.365,236.802z"/>
			</g>
			<g>
				<path fill="#FFFFFF" d="M259.365,227.489c3.988,0,7.976,0,11.964,0c1.935,0,1.935-3,0-3c-3.988,0-7.976,0-11.964,0
					C257.431,224.489,257.431,227.489,259.365,227.489L259.365,227.489z"/>
			</g>
			<g>
				<path fill="#FFFFFF" d="M259.365,218.177c3.988,0,7.976,0,11.964,0c1.935,0,1.935-3,0-3c-3.988,0-7.976,0-11.964,0
					C257.431,215.177,257.431,218.177,259.365,218.177L259.365,218.177z"/>
			</g>
			<g>
				<path fill="#FFFFFF" d="M259.365,208.864c3.988,0,7.976,0,11.964,0c1.935,0,1.935-3,0-3c-3.988,0-7.976,0-11.964,0
					C257.431,205.864,257.431,208.864,259.365,208.864L259.365,208.864z"/>
			</g>
		</g>
		<g>
			<path fill="#FFFFFF" d="M259.535,283.232c3.988,0,7.976,0,11.964,0c1.935,0,1.935-3,0-3c-3.988,0-7.976,0-11.964,0
				C257.601,280.232,257.601,283.232,259.535,283.232L259.535,283.232z"/>
		</g>
		<g>
			<path fill="#FFFFFF" d="M259.535,273.92c3.988,0,7.976,0,11.964,0c1.935,0,1.935-3,0-3c-3.988,0-7.976,0-11.964,0
				C257.601,270.92,257.601,273.92,259.535,273.92L259.535,273.92z"/>
		</g>
		<g>
			<path fill="#FFFFFF" d="M259.535,264.607c3.988,0,7.976,0,11.964,0c1.935,0,1.935-3,0-3c-3.988,0-7.976,0-11.964,0
				C257.601,261.607,257.601,264.607,259.535,264.607L259.535,264.607z"/>
		</g>
		<g>
			<path fill="#FFFFFF" d="M259.535,255.295c3.988,0,7.976,0,11.964,0c1.935,0,1.935-3,0-3c-3.988,0-7.976,0-11.964,0
				C257.601,252.295,257.601,255.295,259.535,255.295L259.535,255.295z"/>
		</g>
	</g>
</g>
</svg>
