<?xml version="1.0" encoding="iso-8859-1"?>
<!-- Generator: Adobe Illustrator 16.0.0, SVG Export Plug-In . SVG Version: 6.00 Build 0)  -->
<!DOCTYPE svg PUBLIC "-//W3C//DTD SVG 1.1//EN" "http://www.w3.org/Graphics/SVG/1.1/DTD/svg11.dtd">
<svg version="1.1" xmlns="http://www.w3.org/2000/svg" xmlns:xlink="http://www.w3.org/1999/xlink" x="0px" y="0px" width="361px"
	 height="361px" viewBox="0 0 361 361" style="enable-background:new 0 0 361 361;" xml:space="preserve">
<g id="weather_x5F_moonset">
	<g>
		<g>
			<g>
				<path style="fill:#FFFFFF;" d="M110.657,258.859c-18.347-16.767-29.54-39.665-31.008-64.526
					c-1.458-24.687,7.375-49.102,23.741-67.537c4.265-4.804-2.782-11.903-7.071-7.071c-18.243,20.55-27.918,47.105-26.669,74.608
					c1.24,27.316,13.821,53.214,33.937,71.597C108.334,270.271,115.426,263.218,110.657,258.859L110.657,258.859z"/>
			</g>
		</g>
		<g>
			<g>
				<path style="fill:#FFFFFF;" d="M242.408,251.313c-16.768,18.346-39.665,29.54-64.526,31.009
					c-24.688,1.459-49.102-7.375-67.537-23.74c-4.804-4.266-11.903,2.781-7.071,7.07c20.55,18.244,47.105,27.919,74.608,26.67
					c27.315-1.24,53.213-13.822,71.597-33.938C253.819,253.634,246.767,246.543,242.408,251.313L242.408,251.313z"/>
			</g>
		</g>
		<g>
			<g>
				<path style="fill:#FFFFFF;" d="M243.42,250.53c-17.335,8.139-37.751,8.071-56.23,4.594
					c-19.219-3.617-38.575-11.526-53.322-24.597c-4.428-3.925-10.143,0.935-7.853,6.059c0.027,0.062,0.055,0.123,0.082,0.184
					c2.618-2.02,5.235-4.039,7.853-6.059c-14.319-13.139-22.854-31.17-27.803-49.714c-4.859-18.208-6.152-38.121-1.552-56.509
					c1.565-6.258-8.079-8.912-9.643-2.658c-5.064,20.245-3.585,41.752,1.552,61.826c5.138,20.077,14.955,39.979,30.375,54.126
					c4.389,4.027,10.119-0.987,7.853-6.059c-0.027-0.062-0.055-0.123-0.082-0.184c-2.618,2.02-5.235,4.039-7.853,6.059
					c16.137,14.303,36.735,22.983,57.734,27.169c21.213,4.229,44.109,3.707,63.937-5.602
					C254.301,256.426,249.221,247.807,243.42,250.53L243.42,250.53z"/>
			</g>
		</g>
	</g>
	<g>
		<path style="fill:none;stroke:#FFFFFF;stroke-width:10;stroke-miterlimit:10;" d="M265.558,98.006
			c2.141,0,3.876-0.542,3.876-1.209V75.828c0-0.668-1.736-1.21-3.877-1.21h-75.57c-2.141,0-3.875,0.542-3.875,1.21v20.969
			c0,0.667,1.734,1.209,3.874,1.209H265.558z"/>
		<g>
			<g>
				<path style="fill:#FFFFFF;" d="M165.301,101.048c19.552,25.582,39.104,51.163,58.656,76.744c2.429,3.178,6.206,3.178,8.635,0
					c19.552-25.581,39.104-51.163,58.655-76.744c2.39-3.126-0.882-7.523-4.317-7.523c-39.104,0-78.208,0-117.312,0
					c-6.449,0-6.449,10,0,10c39.104,0,78.208,0,117.312,0c-1.439-2.508-2.878-5.016-4.317-7.523
					c-19.552,25.581-39.104,51.163-58.655,76.744c2.878,0,5.757,0,8.635,0c-19.552-25.582-39.104-51.163-58.656-76.744
					C170.076,90.952,161.383,95.923,165.301,101.048z"/>
			</g>
		</g>
	</g>
</g>
<g id="Ebene_1">
</g>
</svg>
